<?xml version="1.0" encoding="us-ascii" standalone="no"?><svg xmlns="http://www.w3.org/2000/svg" xmlns:xlink="http://www.w3.org/1999/xlink" contentStyleType="text/css" height="521.4px" preserveAspectRatio="none" style="width:1183px;height:521px;background:#FFFFFF;" version="1.1" viewBox="0 0 1183 521" width="1183.8px" zoomAndPan="magnify"><defs/><g><text fill="#000000" font-family="sans-serif" font-size="8.4" font-weight="bold" lengthAdjust="spacing" textLength="547.2" x="319.35" y="18.0645">US06 - As a Room Owner [or Power User, or Administrator], I want to get a list of all devices in a room, so that I can configure them.</text><rect fill="#FFFFFF" height="421.6395" style="stroke:#181818;stroke-width:0.6;" width="6" x="194.4" y="66.9199"/><rect fill="#FFFFFF" height="317.5898" style="stroke:#181818;stroke-width:0.6;" width="6" x="379.2" y="152.1949"/><rect fill="#FFFFFF" height="18.7746" style="stroke:#181818;stroke-width:0.6;" width="6" x="639.9" y="234.6914"/><rect fill="#FFFFFF" height="18.7746" style="stroke:#181818;stroke-width:0.6;" width="6" x="702.9" y="389.2863"/><rect fill="#FFFFFF" height="44.9473" style="stroke:#181818;stroke-width:0.6;" width="6" x="759.9" y="272.2406"/><rect fill="#FFFFFF" height="53.3238" style="stroke:#181818;stroke-width:0.6;" width="6" x="935.7" y="317.1879"/><rect fill="#FFFFFF" height="18.7746" style="stroke:#181818;stroke-width:0.6;" width="6" x="1009.8" y="170.9695"/><rect fill="none" height="125.4223" style="stroke:#000000;stroke-width:0.8999999999999999;" width="842.7" x="337.8" y="326.1879"/><rect fill="none" height="30.3492" style="stroke:#000000;stroke-width:0.8999999999999999;" width="830.7" x="343.8" y="417.0609"/><line style="stroke:#181818;stroke-width:0.3;stroke-dasharray:5.0,5.0;" x1="197.1" x2="197.1" y1="46.9453" y2="499.3594"/><line style="stroke:#181818;stroke-width:0.3;stroke-dasharray:5.0,5.0;" x1="382.2" x2="382.2" y1="46.9453" y2="499.3594"/><line style="stroke:#181818;stroke-width:0.3;stroke-dasharray:5.0,5.0;" x1="445.8" x2="445.8" y1="46.9453" y2="499.3594"/><line style="stroke:#181818;stroke-width:0.3;stroke-dasharray:5.0,5.0;" x1="498" x2="498" y1="213.6305" y2="499.3594"/><line style="stroke:#181818;stroke-width:0.3;stroke-dasharray:5.0,5.0;" x1="561" x2="561" y1="46.9453" y2="499.3594"/><line style="stroke:#181818;stroke-width:0.3;stroke-dasharray:5.0,5.0;" x1="642.6" x2="642.6" y1="46.9453" y2="499.3594"/><line style="stroke:#181818;stroke-width:0.3;stroke-dasharray:5.0,5.0;" x1="705.6" x2="705.6" y1="46.9453" y2="499.3594"/><line style="stroke:#181818;stroke-width:0.3;stroke-dasharray:5.0,5.0;" x1="762.6" x2="762.6" y1="46.9453" y2="499.3594"/><line style="stroke:#181818;stroke-width:0.3;stroke-dasharray:5.0,5.0;" x1="852.3" x2="852.3" y1="296.127" y2="499.3594"/><line style="stroke:#181818;stroke-width:0.3;stroke-dasharray:5.0,5.0;" x1="938.7" x2="938.7" y1="46.9453" y2="499.3594"/><line style="stroke:#181818;stroke-width:0.3;stroke-dasharray:5.0,5.0;" x1="1012.5" x2="1012.5" y1="46.9453" y2="499.3594"/><line style="stroke:#181818;stroke-width:0.3;stroke-dasharray:5.0,5.0;" x1="1101.3" x2="1101.3" y1="46.9453" y2="499.3594"/><rect fill="#E2E2F0" height="19.5727" rx="1.5" ry="1.5" style="stroke:#181818;stroke-width:0.3;" width="129" x="132.9" y="26.7727"/><text fill="#000000" font-family="sans-serif" font-size="8.4" lengthAdjust="spacing" textLength="120.6" x="137.1" y="40.0371">:ListAllDevicesInRoomController</text><rect fill="#E2E2F0" height="19.5727" rx="1.5" ry="1.5" style="stroke:#181818;stroke-width:0.3;" width="129" x="132.9" y="498.7594"/><text fill="#000000" font-family="sans-serif" font-size="8.4" lengthAdjust="spacing" textLength="120.6" x="137.1" y="512.0238">:ListAllDevicesInRoomController</text><rect fill="#E2E2F0" height="19.5727" rx="1.5" ry="1.5" style="stroke:#181818;stroke-width:0.3;" width="64.8" x="349.8" y="26.7727"/><text fill="#000000" font-family="sans-serif" font-size="8.4" lengthAdjust="spacing" textLength="56.4" x="354" y="40.0371">:DeviceService</text><rect fill="#E2E2F0" height="19.5727" rx="1.5" ry="1.5" style="stroke:#181818;stroke-width:0.3;" width="64.8" x="349.8" y="498.7594"/><text fill="#000000" font-family="sans-serif" font-size="8.4" lengthAdjust="spacing" textLength="56.4" x="354" y="512.0238">:DeviceService</text><rect fill="#E2E2F0" height="19.5727" rx="1.5" ry="1.5" style="stroke:#181818;stroke-width:0.3;" width="51" x="420.6" y="26.7727"/><text fill="#000000" font-family="sans-serif" font-size="8.4" lengthAdjust="spacing" textLength="42.6" x="424.8" y="40.0371">:RoomDTO</text><rect fill="#E2E2F0" height="19.5727" rx="1.5" ry="1.5" style="stroke:#181818;stroke-width:0.3;" width="51" x="420.6" y="498.7594"/><text fill="#000000" font-family="sans-serif" font-size="8.4" lengthAdjust="spacing" textLength="42.6" x="424.8" y="512.0238">:RoomDTO</text><rect fill="#E2E2F0" height="19.5727" rx="1.5" ry="1.5" style="stroke:#181818;stroke-width:0.3;" width="40.8" x="477.6" y="498.7594"/><text fill="#000000" font-family="sans-serif" font-size="8.4" lengthAdjust="spacing" textLength="32.4" x="481.8" y="512.0238">:RoomID</text><rect fill="#E2E2F0" height="19.5727" rx="1.5" ry="1.5" style="stroke:#181818;stroke-width:0.3;" width="73.8" x="524.4" y="26.7727"/><text fill="#000000" font-family="sans-serif" font-size="8.4" lengthAdjust="spacing" textLength="65.4" x="528.6" y="40.0371">:RoomRepository</text><rect fill="#E2E2F0" height="19.5727" rx="1.5" ry="1.5" style="stroke:#181818;stroke-width:0.3;" width="73.8" x="524.4" y="498.7594"/><text fill="#000000" font-family="sans-serif" font-size="8.4" lengthAdjust="spacing" textLength="65.4" x="528.6" y="512.0238">:RoomRepository</text><rect fill="#E2E2F0" height="19.5727" rx="1.5" ry="1.5" style="stroke:#181818;stroke-width:0.3;" width="77.4" x="604.2" y="26.7727"/><text fill="#000000" font-family="sans-serif" font-size="8.4" lengthAdjust="spacing" textLength="69" x="608.4" y="40.0371">:DeviceRepository</text><rect fill="#E2E2F0" height="19.5727" rx="1.5" ry="1.5" style="stroke:#181818;stroke-width:0.3;" width="77.4" x="604.2" y="498.7594"/><text fill="#000000" font-family="sans-serif" font-size="8.4" lengthAdjust="spacing" textLength="69" x="608.4" y="512.0238">:DeviceRepository</text><rect fill="#E2E2F0" height="19.5727" rx="1.5" ry="1.5" style="stroke:#181818;stroke-width:0.3;" width="36.6" x="687.6" y="26.7727"/><text fill="#000000" font-family="sans-serif" font-size="8.4" lengthAdjust="spacing" textLength="28.2" x="691.8" y="40.0371">:Device</text><rect fill="#E2E2F0" height="19.5727" rx="1.5" ry="1.5" style="stroke:#181818;stroke-width:0.3;" width="36.6" x="687.6" y="498.7594"/><text fill="#000000" font-family="sans-serif" font-size="8.4" lengthAdjust="spacing" textLength="28.2" x="691.8" y="512.0238">:Device</text><rect fill="#E2E2F0" height="19.5727" rx="1.5" ry="1.5" style="stroke:#181818;stroke-width:0.3;" width="65.4" x="730.2" y="26.7727"/><text fill="#000000" font-family="sans-serif" font-size="8.4" lengthAdjust="spacing" textLength="57" x="734.4" y="40.0371">:DeviceMapper</text><rect fill="#E2E2F0" height="19.5727" rx="1.5" ry="1.5" style="stroke:#181818;stroke-width:0.3;" width="65.4" x="730.2" y="498.7594"/><text fill="#000000" font-family="sans-serif" font-size="8.4" lengthAdjust="spacing" textLength="57" x="734.4" y="512.0238">:DeviceMapper</text><rect fill="#E2E2F0" height="19.5727" rx="1.5" ry="1.5" style="stroke:#181818;stroke-width:0.3;" width="54.6" x="825.3" y="498.7594"/><text fill="#000000" font-family="sans-serif" font-size="8.4" lengthAdjust="spacing" textLength="46.2" x="829.5" y="512.0238">:DeviceDTO</text><rect fill="#E2E2F0" height="19.5727" rx="1.5" ry="1.5" style="stroke:#181818;stroke-width:0.3;" width="105.6" x="885.9" y="26.7727"/><text fill="#000000" font-family="sans-serif" font-size="8.4" lengthAdjust="spacing" textLength="97.2" x="890.1" y="40.0371">:deviceDTOToDeviceMap</text><rect fill="#E2E2F0" height="19.5727" rx="1.5" ry="1.5" style="stroke:#181818;stroke-width:0.3;" width="105.6" x="885.9" y="498.7594"/><text fill="#000000" font-family="sans-serif" font-size="8.4" lengthAdjust="spacing" textLength="97.2" x="890.1" y="512.0238">:deviceDTOToDeviceMap</text><rect fill="#E2E2F0" height="19.5727" rx="1.5" ry="1.5" style="stroke:#181818;stroke-width:0.3;" width="30.6" x="997.5" y="26.7727"/><text fill="#000000" font-family="sans-serif" font-size="8.4" lengthAdjust="spacing" textLength="22.2" x="1001.7" y="40.0371">Room</text><rect fill="#E2E2F0" height="19.5727" rx="1.5" ry="1.5" style="stroke:#181818;stroke-width:0.3;" width="30.6" x="997.5" y="498.7594"/><text fill="#000000" font-family="sans-serif" font-size="8.4" lengthAdjust="spacing" textLength="22.2" x="1001.7" y="512.0238">Room</text><rect fill="#E2E2F0" height="19.5727" rx="1.5" ry="1.5" style="stroke:#181818;stroke-width:0.3;" width="134.4" x="1034.1" y="26.7727"/><text fill="#000000" font-family="sans-serif" font-size="8.4" lengthAdjust="spacing" textLength="126" x="1038.3" y="40.0371">deviceDTOToDeviceOfRoomMap</text><rect fill="#E2E2F0" height="19.5727" rx="1.5" ry="1.5" style="stroke:#181818;stroke-width:0.3;" width="134.4" x="1034.1" y="498.7594"/><text fill="#000000" font-family="sans-serif" font-size="8.4" lengthAdjust="spacing" textLength="126" x="1038.3" y="512.0238">deviceDTOToDeviceOfRoomMap</text><rect fill="#FFFFFF" height="421.6395" style="stroke:#181818;stroke-width:0.6;" width="6" x="194.4" y="66.9199"/><rect fill="#FFFFFF" height="317.5898" style="stroke:#181818;stroke-width:0.6;" width="6" x="379.2" y="152.1949"/><rect fill="#FFFFFF" height="18.7746" style="stroke:#181818;stroke-width:0.6;" width="6" x="639.9" y="234.6914"/><rect fill="#FFFFFF" height="18.7746" style="stroke:#181818;stroke-width:0.6;" width="6" x="702.9" y="389.2863"/><rect fill="#FFFFFF" height="44.9473" style="stroke:#181818;stroke-width:0.6;" width="6" x="759.9" y="272.2406"/><rect fill="#FFFFFF" height="53.3238" style="stroke:#181818;stroke-width:0.6;" width="6" x="935.7" y="317.1879"/><rect fill="#FFFFFF" height="18.7746" style="stroke:#181818;stroke-width:0.6;" width="6" x="1009.8" y="170.9695"/><polygon fill="#181818" points="187.2,64.5199,193.2,66.9199,187.2,69.3199,189.6,66.9199" style="stroke:#181818;stroke-width:0.6;"/><line style="stroke:#181818;stroke-width:0.6;" x1="0" x2="190.8" y1="66.9199" y2="66.9199"/><text fill="#000000" font-family="sans-serif" font-size="7.8" font-weight="bold" lengthAdjust="spacing" textLength="4.2" x="4.2" y="63.7623">1</text><text fill="#000000" font-family="sans-serif" font-size="7.8" lengthAdjust="spacing" textLength="76.2" x="10.8" y="63.7623">getListOfRoomsDTO()</text><rect fill="none" height="25.9512" style="stroke:#000000;stroke-width:0.8999999999999999;" width="132.6" x="131.1" y="71.7199"/><path d="M131.1,71.7199 L168.3,71.7199 L168.3,77.1199 L162.3,83.1199 L131.1,83.1199 L131.1,71.7199 " fill="#EEEEEE" style="stroke:#000000;stroke-width:1.2;"/><text fill="#000000" font-family="sans-serif" font-size="7.8" font-weight="bold" lengthAdjust="spacing" textLength="10.2" x="138.9" y="81.3369">ref</text><text fill="#000000" font-family="sans-serif" font-size="7.2" lengthAdjust="spacing" textLength="87" x="153.9" y="93.2895">US03.1SequenceDiagram</text><polygon fill="#181818" points="6.6,112.2457,0.6,114.6457,6.6,117.0457,4.2,114.6457" style="stroke:#181818;stroke-width:0.6;"/><line style="stroke:#181818;stroke-width:0.6;stroke-dasharray:2.0,2.0;" x1="3" x2="193.8" y1="114.6457" y2="114.6457"/><text fill="#000000" font-family="sans-serif" font-size="7.8" font-weight="bold" lengthAdjust="spacing" textLength="4.2" x="10.2" y="111.4881">2</text><text fill="#000000" font-family="sans-serif" font-size="7.8" lengthAdjust="spacing" textLength="58.2" x="16.8" y="111.4881">List&lt;RoomDTO&gt;</text><polygon fill="#181818" points="187.2,131.0203,193.2,133.4203,187.2,135.8203,189.6,133.4203" style="stroke:#181818;stroke-width:0.6;"/><line style="stroke:#181818;stroke-width:0.6;" x1="0" x2="190.8" y1="133.4203" y2="133.4203"/><text fill="#000000" font-family="sans-serif" font-size="7.8" font-weight="bold" lengthAdjust="spacing" textLength="4.2" x="4.2" y="130.2627">3</text><text fill="#000000" font-family="sans-serif" font-size="7.8" lengthAdjust="spacing" textLength="176.4" x="10.8" y="130.2627">getListOfDevicesDTOInRoom(RoomDTO roomDTO)</text><polygon fill="#181818" points="372,149.7949,378,152.1949,372,154.5949,374.4,152.1949" style="stroke:#181818;stroke-width:0.6;"/><line style="stroke:#181818;stroke-width:0.6;" x1="200.4" x2="375.6" y1="152.1949" y2="152.1949"/><text fill="#000000" font-family="sans-serif" font-size="7.8" font-weight="bold" lengthAdjust="spacing" textLength="4.2" x="204.6" y="149.0373">4</text><text fill="#000000" font-family="sans-serif" font-size="7.8" lengthAdjust="spacing" textLength="160.8" x="211.2" y="149.0373">getListOfDevicesinRoom(RoomDTO roomDTO)</text><polygon fill="#181818" points="1002.6,168.5695,1008.6,170.9695,1002.6,173.3695,1005,170.9695" style="stroke:#181818;stroke-width:0.6;"/><line style="stroke:#181818;stroke-width:0.6;" x1="385.2" x2="1006.2" y1="170.9695" y2="170.9695"/><text fill="#000000" font-family="sans-serif" font-size="7.8" font-weight="bold" lengthAdjust="spacing" textLength="4.2" x="389.4" y="167.8119">5</text><text fill="#000000" font-family="sans-serif" font-size="7.8" lengthAdjust="spacing" textLength="30" x="396" y="167.8119">identity()</text><polygon fill="#181818" points="391.8,187.3441,385.8,189.7441,391.8,192.1441,389.4,189.7441" style="stroke:#181818;stroke-width:0.6;"/><line style="stroke:#181818;stroke-width:0.6;stroke-dasharray:2.0,2.0;" x1="388.2" x2="1012.2" y1="189.7441" y2="189.7441"/><text fill="#000000" font-family="sans-serif" font-size="7.8" font-weight="bold" lengthAdjust="spacing" textLength="4.2" x="395.4" y="186.5865">6</text><text fill="#000000" font-family="sans-serif" font-size="7.8" lengthAdjust="spacing" textLength="27.6" x="402" y="186.5865">RoomID</text><polygon fill="#181818" points="470.4,206.1188,476.4,208.5187,470.4,210.9188,472.8,208.5187" style="stroke:#181818;stroke-width:0.6;"/><line style="stroke:#181818;stroke-width:0.6;" x1="385.2" x2="474" y1="208.5187" y2="208.5187"/><text fill="#000000" font-family="sans-serif" font-size="7.8" font-weight="bold" lengthAdjust="spacing" textLength="4.2" x="389.4" y="205.3611">7</text><text fill="#000000" font-family="sans-serif" font-size="7.8" lengthAdjust="spacing" textLength="34.2" x="396" y="205.3611">&#171;creates&#187;</text><rect fill="#E2E2F0" height="19.5727" rx="1.5" ry="1.5" style="stroke:#181818;stroke-width:0.3;" width="40.8" x="477.6" y="194.5441"/><text fill="#000000" font-family="sans-serif" font-size="8.4" lengthAdjust="spacing" textLength="32.4" x="481.8" y="207.8086">:RoomID</text><polygon fill="#181818" points="632.7,232.2914,638.7,234.6914,632.7,237.0914,635.1,234.6914" style="stroke:#181818;stroke-width:0.6;"/><line style="stroke:#181818;stroke-width:0.6;" x1="385.2" x2="636.3" y1="234.6914" y2="234.6914"/><text fill="#000000" font-family="sans-serif" font-size="7.8" font-weight="bold" lengthAdjust="spacing" textLength="4.2" x="389.4" y="231.5338">8</text><text fill="#000000" font-family="sans-serif" font-size="7.8" lengthAdjust="spacing" textLength="52.2" x="396" y="231.5338">findAllEntities()</text><polygon fill="#181818" points="391.8,251.066,385.8,253.466,391.8,255.866,389.4,253.466" style="stroke:#181818;stroke-width:0.6;"/><line style="stroke:#181818;stroke-width:0.6;stroke-dasharray:2.0,2.0;" x1="388.2" x2="642.3" y1="253.466" y2="253.466"/><text fill="#000000" font-family="sans-serif" font-size="7.8" font-weight="bold" lengthAdjust="spacing" textLength="4.2" x="395.4" y="250.3084">9</text><text fill="#000000" font-family="sans-serif" font-size="7.8" lengthAdjust="spacing" textLength="57.6" x="402" y="250.3084">Iterable&lt;Device&gt;</text><polygon fill="#181818" points="752.7,269.8406,758.7,272.2406,752.7,274.6406,755.1,272.2406" style="stroke:#181818;stroke-width:0.6;"/><line style="stroke:#181818;stroke-width:0.6;" x1="385.2" x2="756.3" y1="272.2406" y2="272.2406"/><text fill="#000000" font-family="sans-serif" font-size="7.8" font-weight="bold" lengthAdjust="spacing" textLength="8.4" x="389.4" y="269.083">10</text><text fill="#000000" font-family="sans-serif" font-size="7.8" lengthAdjust="spacing" textLength="115.2" x="400.2" y="269.083">deviceToDTO(deviceInRepository)</text><polygon fill="#181818" points="818.1,288.6152,824.1,291.0152,818.1,293.4152,820.5,291.0152" style="stroke:#181818;stroke-width:0.6;"/><line style="stroke:#181818;stroke-width:0.6;" x1="765.9" x2="821.7" y1="291.0152" y2="291.0152"/><text fill="#000000" font-family="sans-serif" font-size="7.8" font-weight="bold" lengthAdjust="spacing" textLength="8.4" x="770.1" y="287.8576">11</text><text fill="#000000" font-family="sans-serif" font-size="7.8" lengthAdjust="spacing" textLength="34.2" x="780.9" y="287.8576">&#171;creates&#187;</text><rect fill="#E2E2F0" height="19.5727" rx="1.5" ry="1.5" style="stroke:#181818;stroke-width:0.3;" width="54.6" x="825.3" y="277.0406"/><text fill="#000000" font-family="sans-serif" font-size="8.4" lengthAdjust="spacing" textLength="46.2" x="829.5" y="290.3051">:DeviceDTO</text><polygon fill="#181818" points="391.8,314.7879,385.8,317.1879,391.8,319.5879,389.4,317.1879" style="stroke:#181818;stroke-width:0.6;"/><line style="stroke:#181818;stroke-width:0.6;stroke-dasharray:2.0,2.0;" x1="388.2" x2="762.3" y1="317.1879" y2="317.1879"/><text fill="#000000" font-family="sans-serif" font-size="7.8" font-weight="bold" lengthAdjust="spacing" textLength="8.4" x="395.4" y="314.0303">12</text><text fill="#000000" font-family="sans-serif" font-size="7.8" lengthAdjust="spacing" textLength="37.2" x="406.2" y="314.0303">deviceDTO</text><path d="M337.8,326.1879 L381.6,326.1879 L381.6,331.7625 L375.6,337.7625 L337.8,337.7625 L337.8,326.1879 " fill="#EEEEEE" style="stroke:#000000;stroke-width:0.8999999999999999;"/><rect fill="none" height="125.4223" style="stroke:#000000;stroke-width:0.8999999999999999;" width="842.7" x="337.8" y="326.1879"/><text fill="#000000" font-family="sans-serif" font-size="7.8" font-weight="bold" lengthAdjust="spacing" textLength="16.8" x="346.8" y="335.2049">loop</text><text fill="#000000" font-family="sans-serif" font-size="6.6" font-weight="bold" lengthAdjust="spacing" textLength="114.6" x="390.6" y="334.51">[for each entry in Iterable&lt;Device&gt;]</text><polygon fill="#181818" points="928.5,349.3371,934.5,351.7371,928.5,354.1371,930.9,351.7371" style="stroke:#181818;stroke-width:0.6;"/><line style="stroke:#181818;stroke-width:0.6;" x1="385.2" x2="932.1" y1="351.7371" y2="351.7371"/><text fill="#000000" font-family="sans-serif" font-size="7.8" font-weight="bold" lengthAdjust="spacing" textLength="8.4" x="389.4" y="348.5795">13</text><text fill="#000000" font-family="sans-serif" font-size="7.8" lengthAdjust="spacing" textLength="35.4" x="400.2" y="348.5795">getValue()</text><polygon fill="#181818" points="391.8,368.1117,385.8,370.5117,391.8,372.9117,389.4,370.5117" style="stroke:#181818;stroke-width:0.6;"/><line style="stroke:#181818;stroke-width:0.6;" x1="388.2" x2="938.1" y1="370.5117" y2="370.5117"/><text fill="#000000" font-family="sans-serif" font-size="7.8" font-weight="bold" lengthAdjust="spacing" textLength="8.4" x="395.4" y="367.3541">14</text><text fill="#000000" font-family="sans-serif" font-size="7.8" lengthAdjust="spacing" textLength="22.8" x="406.2" y="367.3541">Device</text><polygon fill="#181818" points="695.7,386.8863,701.7,389.2863,695.7,391.6863,698.1,389.2863" style="stroke:#181818;stroke-width:0.6;"/><line style="stroke:#181818;stroke-width:0.6;" x1="385.2" x2="699.3" y1="389.2863" y2="389.2863"/><text fill="#000000" font-family="sans-serif" font-size="7.8" font-weight="bold" lengthAdjust="spacing" textLength="8.4" x="389.4" y="386.1287">15</text><text fill="#000000" font-family="sans-serif" font-size="7.8" lengthAdjust="spacing" textLength="43.2" x="400.2" y="386.1287">getRoomID()</text><polygon fill="#181818" points="391.8,405.6609,385.8,408.0609,391.8,410.4609,389.4,408.0609" style="stroke:#181818;stroke-width:0.6;"/><line style="stroke:#181818;stroke-width:0.6;stroke-dasharray:2.0,2.0;" x1="388.2" x2="705.3" y1="408.0609" y2="408.0609"/><text fill="#000000" font-family="sans-serif" font-size="7.8" font-weight="bold" lengthAdjust="spacing" textLength="8.4" x="395.4" y="404.9033">16</text><text fill="#000000" font-family="sans-serif" font-size="7.8" lengthAdjust="spacing" textLength="24.6" x="406.2" y="404.9033">roomID</text><path d="M343.8,417.0609 L380.4,417.0609 L380.4,422.6355 L374.4,428.6355 L343.8,428.6355 L343.8,417.0609 " fill="#EEEEEE" style="stroke:#000000;stroke-width:0.8999999999999999;"/><rect fill="none" height="30.3492" style="stroke:#000000;stroke-width:0.8999999999999999;" width="830.7" x="343.8" y="417.0609"/><text fill="#000000" font-family="sans-serif" font-size="7.8" font-weight="bold" lengthAdjust="spacing" textLength="9.6" x="352.8" y="426.0779">alt</text><text fill="#000000" font-family="sans-serif" font-size="6.6" font-weight="bold" lengthAdjust="spacing" textLength="79.8" x="389.4" y="425.383">[roomID equals RoomID]</text><polygon fill="#181818" points="1094.1,440.2102,1100.1,442.6102,1094.1,445.0102,1096.5,442.6102" style="stroke:#181818;stroke-width:0.6;"/><line style="stroke:#181818;stroke-width:0.6;" x1="385.2" x2="1097.7" y1="442.6102" y2="442.6102"/><text fill="#000000" font-family="sans-serif" font-size="7.8" font-weight="bold" lengthAdjust="spacing" textLength="8.4" x="389.4" y="439.4525">17</text><text fill="#000000" font-family="sans-serif" font-size="7.8" lengthAdjust="spacing" textLength="91.2" x="400.2" y="439.4525">put(entry.getKey(), device)</text><polygon fill="#181818" points="207,467.3848,201,469.7848,207,472.1848,204.6,469.7848" style="stroke:#181818;stroke-width:0.6;"/><line style="stroke:#181818;stroke-width:0.6;stroke-dasharray:2.0,2.0;" x1="203.4" x2="381.6" y1="469.7848" y2="469.7848"/><text fill="#000000" font-family="sans-serif" font-size="7.8" font-weight="bold" lengthAdjust="spacing" textLength="8.4" x="210.6" y="466.6271">18</text><text fill="#000000" font-family="sans-serif" font-size="7.8" lengthAdjust="spacing" textLength="60.6" x="221.4" y="466.6271">List&lt;DeviceDTO&gt;</text><polygon fill="#181818" points="6.6,486.1594,0.6,488.5594,6.6,490.9594,4.2,488.5594" style="stroke:#181818;stroke-width:0.6;"/><line style="stroke:#181818;stroke-width:0.6;stroke-dasharray:2.0,2.0;" x1="3" x2="196.8" y1="488.5594" y2="488.5594"/><text fill="#000000" font-family="sans-serif" font-size="7.8" font-weight="bold" lengthAdjust="spacing" textLength="8.4" x="10.2" y="485.4018">19</text><text fill="#000000" font-family="sans-serif" font-size="7.8" lengthAdjust="spacing" textLength="60.6" x="21" y="485.4018">List&lt;DeviceDTO&gt;</text><!--SRC=[VLJBhjem4DtxAqPtKxZYqQfI5n52GgKBr5PKzz5DrOLlCe0bnqvj1yJVT-oOu3nQ5iJsd3cUnnc_EpbNsMovh2HNhYxb8jVbqkAV6bMEyqBme-4bOquuYV3w_FuJp65ZWSEJrYNiBmeD_D86VkWBhLujcXdGTbEKGWdh37VQ_9x13Yx43qx34HrvIxA1FW2N4WeyYnmj24K6GxGpi1hSYJjooxc2NAk3EDO6wH3B1MEyTbhLvHiQnYfkdCX5vUaVic_4kv5osr3kb8_oirREQ2dHF02ta3iZUruD_1cD_mIGRTOzd6VRlkm38gv74Bjj2zXjH-nFM6ahg2xN5kUFHcFgOU-7e-W4Csh_pgigLY4z6CNUycntFLHnEt_HBLTm63CmDb-7mcU-_xv9-uFFsn9iCcKyT-BC7JQzCNW0VIOrXHrfxkFYmtDKv3OA4bK1X6Eh-JpoUj9LRCfwxBwe2J8tifX4S90SVQVCEm0vnkOFVSK_7DluRx9XSU7PF3e3KQ2Y8RgcsNeB2tCqJs-DmYcm2-npxhRm-9Z1QfKR991ThpkGkrGoE0XLq5HyyH48j6aCYQBkosuyEuU6lqbSDO1r6bdYFhoyKLSM5K5oe6OtQ-f0A-n1C56KwUREwUlUJxkBJ4DljJYCETx2fDOL7EZ98i09g4dcwb-YGTBtA4S5dYG_PWzQ-ibbZLJyCK17Tt64avZ7XsfGyN1D8uvXasETkXKo0x55CEFIHIlGy77PlcWGV_zBkHdla7XLkqaewu9Y-ueq0RE8dmOg6cN6mbzBs0vl6EgsyHtbtKQjzm8au1Jj4Ny1]--></g></svg>