<?xml version="1.0" encoding="us-ascii" standalone="no"?><svg xmlns="http://www.w3.org/2000/svg" xmlns:xlink="http://www.w3.org/1999/xlink" contentStyleType="text/css" height="578px" preserveAspectRatio="none" style="width:1386px;height:578px;background:#FFFFFF;" version="1.1" viewBox="0 0 1386 578" width="1386px" zoomAndPan="magnify"><defs/><g><text fill="#000000" font-family="sans-serif" font-size="14" font-weight="bold" lengthAdjust="spacing" textLength="907" x="232.75" y="25.1074">US06: As a Room Owner [or Power User, or Administrator], I want to get a list of all devices in a room, so that I can configure them.</text><!--class ListAllDevicesInRoomController--><g id="elem_ListAllDevicesInRoomController"><rect codeLine="4" fill="#F1F1F1" height="103.8633" id="ListAllDevicesInRoomController" rx="2.5" ry="2.5" style="stroke:#181818;stroke-width:0.5;" width="367" x="506" y="46.6211"/><ellipse cx="586.75" cy="62.6211" fill="#ADD1B2" rx="11" ry="11" style="stroke:#181818;stroke-width:1.0;"/><path d="M589.5156,58.4961 Q589.6719,58.2773 589.8594,58.168 Q590.0469,58.0586 590.2656,58.0586 Q590.6406,58.0586 590.875,58.3242 Q591.1094,58.5742 591.1094,59.1836 L591.1094,60.6367 Q591.1094,61.2461 590.875,61.5117 Q590.6406,61.7773 590.2656,61.7773 Q589.9219,61.7773 589.7188,61.5742 Q589.5156,61.3867 589.4063,60.8711 Q589.3594,60.5117 589.1719,60.3242 Q588.8438,59.9492 588.2344,59.7305 Q587.625,59.5117 587,59.5117 Q586.2344,59.5117 585.5938,59.8398 Q584.9688,60.168 584.4688,60.918 Q583.9844,61.668 583.9844,62.6992 L583.9844,63.793 Q583.9844,65.0273 584.875,65.8555 Q585.7656,66.668 587.3594,66.668 Q588.2969,66.668 588.9531,66.418 Q589.3438,66.2617 589.7656,65.8242 Q590.0313,65.5586 590.1719,65.4805 Q590.3281,65.4023 590.5313,65.4023 Q590.8594,65.4023 591.1094,65.668 Q591.375,65.918 591.375,66.2617 Q591.375,66.6055 591.0313,67.0117 Q590.5313,67.5898 589.7344,67.918 Q588.6563,68.3711 587.3594,68.3711 Q585.8438,68.3711 584.6406,67.7461 Q583.6563,67.2461 582.9688,66.1836 Q582.2813,65.1055 582.2813,63.8242 L582.2813,62.668 Q582.2813,61.3398 582.8906,60.1992 Q583.5156,59.043 584.6094,58.4336 Q585.7031,57.8086 586.9375,57.8086 Q587.6719,57.8086 588.3125,57.9805 Q588.9688,58.1367 589.5156,58.4961 Z " fill="#000000"/><text fill="#000000" font-family="sans-serif" font-size="14" lengthAdjust="spacing" textLength="197" x="607.25" y="68.418">ListAllDevicesInRoomController</text><line style="stroke:#181818;stroke-width:0.5;" x1="507" x2="872" y1="78.6211" y2="78.6211"/><rect fill="none" height="6" style="stroke:#C82930;stroke-width:1.0;" width="6" x="514" y="90.4316"/><text fill="#000000" font-family="sans-serif" font-size="14" lengthAdjust="spacing" textLength="87" x="526" y="97.7285">house: House</text><line style="stroke:#181818;stroke-width:0.5;" x1="507" x2="872" y1="105.2422" y2="105.2422"/><ellipse cx="517" cy="120.0527" fill="#84BE84" rx="3" ry="3" style="stroke:#038048;stroke-width:1.0;"/><text fill="#000000" font-family="sans-serif" font-size="14" lengthAdjust="spacing" textLength="186" x="526" y="124.3496">getRoomList(): RoomListDTO</text><ellipse cx="517" cy="138.6738" fill="#84BE84" rx="3" ry="3" style="stroke:#038048;stroke-width:1.0;"/><text fill="#000000" font-family="sans-serif" font-size="14" lengthAdjust="spacing" textLength="341" x="526" y="142.9707">getDeviceList(roomNameDTO: String): DeviceListDTO</text></g><!--class RoomDTO--><g id="elem_RoomDTO"><rect codeLine="10" fill="#F1F1F1" height="159.7266" id="RoomDTO" rx="2.5" ry="2.5" style="stroke:#181818;stroke-width:0.5;" width="174" x="88.5" y="411.6211"/><ellipse cx="137.75" cy="427.6211" fill="#ADD1B2" rx="11" ry="11" style="stroke:#181818;stroke-width:1.0;"/><path d="M140.5156,423.4961 Q140.6719,423.2773 140.8594,423.168 Q141.0469,423.0586 141.2656,423.0586 Q141.6406,423.0586 141.875,423.3242 Q142.1094,423.5742 142.1094,424.1836 L142.1094,425.6367 Q142.1094,426.2461 141.875,426.5117 Q141.6406,426.7773 141.2656,426.7773 Q140.9219,426.7773 140.7188,426.5742 Q140.5156,426.3867 140.4063,425.8711 Q140.3594,425.5117 140.1719,425.3242 Q139.8438,424.9492 139.2344,424.7305 Q138.625,424.5117 138,424.5117 Q137.2344,424.5117 136.5938,424.8398 Q135.9688,425.168 135.4688,425.918 Q134.9844,426.668 134.9844,427.6992 L134.9844,428.793 Q134.9844,430.0273 135.875,430.8555 Q136.7656,431.668 138.3594,431.668 Q139.2969,431.668 139.9531,431.418 Q140.3438,431.2617 140.7656,430.8242 Q141.0313,430.5586 141.1719,430.4805 Q141.3281,430.4023 141.5313,430.4023 Q141.8594,430.4023 142.1094,430.668 Q142.375,430.918 142.375,431.2617 Q142.375,431.6055 142.0313,432.0117 Q141.5313,432.5898 140.7344,432.918 Q139.6563,433.3711 138.3594,433.3711 Q136.8438,433.3711 135.6406,432.7461 Q134.6563,432.2461 133.9688,431.1836 Q133.2813,430.1055 133.2813,428.8242 L133.2813,427.668 Q133.2813,426.3398 133.8906,425.1992 Q134.5156,424.043 135.6094,423.4336 Q136.7031,422.8086 137.9375,422.8086 Q138.6719,422.8086 139.3125,422.9805 Q139.9688,423.1367 140.5156,423.4961 Z " fill="#000000"/><text fill="#000000" font-family="sans-serif" font-size="14" lengthAdjust="spacing" textLength="67" x="158.25" y="433.418">RoomDTO</text><line style="stroke:#181818;stroke-width:0.5;" x1="89.5" x2="261.5" y1="443.6211" y2="443.6211"/><rect fill="none" height="6" style="stroke:#C82930;stroke-width:1.0;" width="6" x="96.5" y="455.4316"/><text fill="#000000" font-family="sans-serif" font-size="14" lengthAdjust="spacing" textLength="113" x="108.5" y="462.7285">roomName: String</text><rect fill="none" height="6" style="stroke:#C82930;stroke-width:1.0;" width="6" x="96.5" y="474.0527"/><text fill="#000000" font-family="sans-serif" font-size="14" lengthAdjust="spacing" textLength="100" x="108.5" y="481.3496">floorNumber: int</text><rect fill="none" height="6" style="stroke:#C82930;stroke-width:1.0;" width="6" x="96.5" y="492.6738"/><text fill="#000000" font-family="sans-serif" font-size="14" lengthAdjust="spacing" textLength="83" x="108.5" y="499.9707">width: double</text><rect fill="none" height="6" style="stroke:#C82930;stroke-width:1.0;" width="6" x="96.5" y="511.2949"/><text fill="#000000" font-family="sans-serif" font-size="14" lengthAdjust="spacing" textLength="90" x="108.5" y="518.5918">length: double</text><rect fill="none" height="6" style="stroke:#C82930;stroke-width:1.0;" width="6" x="96.5" y="529.916"/><text fill="#000000" font-family="sans-serif" font-size="14" lengthAdjust="spacing" textLength="90" x="108.5" y="537.2129">height: double</text><line style="stroke:#181818;stroke-width:0.5;" x1="89.5" x2="261.5" y1="544.7266" y2="544.7266"/><ellipse cx="99.5" cy="559.5371" fill="#84BE84" rx="3" ry="3" style="stroke:#038048;stroke-width:1.0;"/><text fill="#000000" font-family="sans-serif" font-size="14" lengthAdjust="spacing" textLength="148" x="108.5" y="563.834">getRoomName(): String</text></g><!--class DeviceDTO--><g id="elem_DeviceDTO"><rect codeLine="19" fill="#F1F1F1" height="85.2422" id="DeviceDTO" rx="2.5" ry="2.5" style="stroke:#181818;stroke-width:0.5;" width="180" x="1096.5" y="449.1211"/><ellipse cx="1145.75" cy="465.1211" fill="#ADD1B2" rx="11" ry="11" style="stroke:#181818;stroke-width:1.0;"/><path d="M1148.5156,460.9961 Q1148.6719,460.7773 1148.8594,460.668 Q1149.0469,460.5586 1149.2656,460.5586 Q1149.6406,460.5586 1149.875,460.8242 Q1150.1094,461.0742 1150.1094,461.6836 L1150.1094,463.1367 Q1150.1094,463.7461 1149.875,464.0117 Q1149.6406,464.2773 1149.2656,464.2773 Q1148.9219,464.2773 1148.7188,464.0742 Q1148.5156,463.8867 1148.4063,463.3711 Q1148.3594,463.0117 1148.1719,462.8242 Q1147.8438,462.4492 1147.2344,462.2305 Q1146.625,462.0117 1146,462.0117 Q1145.2344,462.0117 1144.5938,462.3398 Q1143.9688,462.668 1143.4688,463.418 Q1142.9844,464.168 1142.9844,465.1992 L1142.9844,466.293 Q1142.9844,467.5273 1143.875,468.3555 Q1144.7656,469.168 1146.3594,469.168 Q1147.2969,469.168 1147.9531,468.918 Q1148.3438,468.7617 1148.7656,468.3242 Q1149.0313,468.0586 1149.1719,467.9805 Q1149.3281,467.9023 1149.5313,467.9023 Q1149.8594,467.9023 1150.1094,468.168 Q1150.375,468.418 1150.375,468.7617 Q1150.375,469.1055 1150.0313,469.5117 Q1149.5313,470.0898 1148.7344,470.418 Q1147.6563,470.8711 1146.3594,470.8711 Q1144.8438,470.8711 1143.6406,470.2461 Q1142.6563,469.7461 1141.9688,468.6836 Q1141.2813,467.6055 1141.2813,466.3242 L1141.2813,465.168 Q1141.2813,463.8398 1141.8906,462.6992 Q1142.5156,461.543 1143.6094,460.9336 Q1144.7031,460.3086 1145.9375,460.3086 Q1146.6719,460.3086 1147.3125,460.4805 Q1147.9688,460.6367 1148.5156,460.9961 Z " fill="#000000"/><text fill="#000000" font-family="sans-serif" font-size="14" lengthAdjust="spacing" textLength="73" x="1166.25" y="470.918">DeviceDTO</text><line style="stroke:#181818;stroke-width:0.5;" x1="1097.5" x2="1275.5" y1="481.1211" y2="481.1211"/><rect fill="none" height="6" style="stroke:#C82930;stroke-width:1.0;" width="6" x="1104.5" y="492.9316"/><text fill="#000000" font-family="sans-serif" font-size="14" lengthAdjust="spacing" textLength="124" x="1116.5" y="500.2285">DeviceName: String</text><line style="stroke:#181818;stroke-width:0.5;" x1="1097.5" x2="1275.5" y1="507.7422" y2="507.7422"/><ellipse cx="1107.5" cy="522.5527" fill="#84BE84" rx="3" ry="3" style="stroke:#038048;stroke-width:1.0;"/><text fill="#000000" font-family="sans-serif" font-size="14" lengthAdjust="spacing" textLength="154" x="1116.5" y="526.8496">getDeviceName(): String</text></g><!--class RoomMapper--><g id="elem_RoomMapper"><rect codeLine="25" fill="#F1F1F1" height="85.2422" id="RoomMapper" rx="2.5" ry="2.5" style="stroke:#181818;stroke-width:0.5;" width="337" x="7" y="238.6211"/><ellipse cx="128.75" cy="254.6211" fill="#ADD1B2" rx="11" ry="11" style="stroke:#181818;stroke-width:1.0;"/><path d="M131.5156,250.4961 Q131.6719,250.2773 131.8594,250.168 Q132.0469,250.0586 132.2656,250.0586 Q132.6406,250.0586 132.875,250.3242 Q133.1094,250.5742 133.1094,251.1836 L133.1094,252.6367 Q133.1094,253.2461 132.875,253.5117 Q132.6406,253.7773 132.2656,253.7773 Q131.9219,253.7773 131.7188,253.5742 Q131.5156,253.3867 131.4063,252.8711 Q131.3594,252.5117 131.1719,252.3242 Q130.8438,251.9492 130.2344,251.7305 Q129.625,251.5117 129,251.5117 Q128.2344,251.5117 127.5938,251.8398 Q126.9688,252.168 126.4688,252.918 Q125.9844,253.668 125.9844,254.6992 L125.9844,255.793 Q125.9844,257.0273 126.875,257.8555 Q127.7656,258.668 129.3594,258.668 Q130.2969,258.668 130.9531,258.418 Q131.3438,258.2617 131.7656,257.8242 Q132.0313,257.5586 132.1719,257.4805 Q132.3281,257.4023 132.5313,257.4023 Q132.8594,257.4023 133.1094,257.668 Q133.375,257.918 133.375,258.2617 Q133.375,258.6055 133.0313,259.0117 Q132.5313,259.5898 131.7344,259.918 Q130.6563,260.3711 129.3594,260.3711 Q127.8438,260.3711 126.6406,259.7461 Q125.6563,259.2461 124.9688,258.1836 Q124.2813,257.1055 124.2813,255.8242 L124.2813,254.668 Q124.2813,253.3398 124.8906,252.1992 Q125.5156,251.043 126.6094,250.4336 Q127.7031,249.8086 128.9375,249.8086 Q129.6719,249.8086 130.3125,249.9805 Q130.9688,250.1367 131.5156,250.4961 Z " fill="#000000"/><text fill="#000000" font-family="sans-serif" font-size="14" lengthAdjust="spacing" textLength="85" x="149.25" y="260.418">RoomMapper</text><line style="stroke:#181818;stroke-width:0.5;" x1="8" x2="343" y1="270.6211" y2="270.6211"/><line style="stroke:#181818;stroke-width:0.5;" x1="8" x2="343" y1="278.6211" y2="278.6211"/><ellipse cx="18" cy="293.4316" fill="#84BE84" rx="3" ry="3" style="stroke:#038048;stroke-width:1.0;"/><text fill="#000000" font-family="sans-serif" font-size="14" lengthAdjust="spacing" textLength="311" x="27" y="297.7285">roomToDTO(RoomList): Map&lt;RoomDTO, Room&gt;</text><ellipse cx="18" cy="312.0527" fill="#84BE84" rx="3" ry="3" style="stroke:#038048;stroke-width:1.0;"/><text fill="#000000" font-family="sans-serif" font-size="14" lengthAdjust="spacing" textLength="201" x="27" y="316.3496">roomToDTO(Room): RoomDTO</text></g><!--class House--><g id="elem_House"><rect codeLine="30" fill="#F1F1F1" height="103.8633" id="House" rx="2.5" ry="2.5" style="stroke:#181818;stroke-width:0.5;" width="314" x="379.5" y="229.1211"/><ellipse cx="512.25" cy="245.1211" fill="#ADD1B2" rx="11" ry="11" style="stroke:#181818;stroke-width:1.0;"/><path d="M515.0156,240.9961 Q515.1719,240.7773 515.3594,240.668 Q515.5469,240.5586 515.7656,240.5586 Q516.1406,240.5586 516.375,240.8242 Q516.6094,241.0742 516.6094,241.6836 L516.6094,243.1367 Q516.6094,243.7461 516.375,244.0117 Q516.1406,244.2773 515.7656,244.2773 Q515.4219,244.2773 515.2188,244.0742 Q515.0156,243.8867 514.9063,243.3711 Q514.8594,243.0117 514.6719,242.8242 Q514.3438,242.4492 513.7344,242.2305 Q513.125,242.0117 512.5,242.0117 Q511.7344,242.0117 511.0938,242.3398 Q510.4688,242.668 509.9688,243.418 Q509.4844,244.168 509.4844,245.1992 L509.4844,246.293 Q509.4844,247.5273 510.375,248.3555 Q511.2656,249.168 512.8594,249.168 Q513.7969,249.168 514.4531,248.918 Q514.8438,248.7617 515.2656,248.3242 Q515.5313,248.0586 515.6719,247.9805 Q515.8281,247.9023 516.0313,247.9023 Q516.3594,247.9023 516.6094,248.168 Q516.875,248.418 516.875,248.7617 Q516.875,249.1055 516.5313,249.5117 Q516.0313,250.0898 515.2344,250.418 Q514.1563,250.8711 512.8594,250.8711 Q511.3438,250.8711 510.1406,250.2461 Q509.1563,249.7461 508.4688,248.6836 Q507.7813,247.6055 507.7813,246.3242 L507.7813,245.168 Q507.7813,243.8398 508.3906,242.6992 Q509.0156,241.543 510.1094,240.9336 Q511.2031,240.3086 512.4375,240.3086 Q513.1719,240.3086 513.8125,240.4805 Q514.4688,240.6367 515.0156,240.9961 Z " fill="#000000"/><text fill="#000000" font-family="sans-serif" font-size="14" lengthAdjust="spacing" textLength="40" x="532.75" y="250.918">House</text><line style="stroke:#181818;stroke-width:0.5;" x1="380.5" x2="692.5" y1="261.1211" y2="261.1211"/><rect fill="none" height="6" style="stroke:#C82930;stroke-width:1.0;" width="6" x="387.5" y="272.9316"/><text fill="#000000" font-family="sans-serif" font-size="14" lengthAdjust="spacing" textLength="121" x="399.5" y="280.2285">roomList: RoomList</text><line style="stroke:#181818;stroke-width:0.5;" x1="380.5" x2="692.5" y1="287.7422" y2="287.7422"/><ellipse cx="390.5" cy="302.5527" fill="#84BE84" rx="3" ry="3" style="stroke:#038048;stroke-width:1.0;"/><text fill="#000000" font-family="sans-serif" font-size="14" lengthAdjust="spacing" textLength="156" x="399.5" y="306.8496">getRoomList(): RoomList</text><ellipse cx="390.5" cy="321.1738" fill="#84BE84" rx="3" ry="3" style="stroke:#038048;stroke-width:1.0;"/><text fill="#000000" font-family="sans-serif" font-size="14" lengthAdjust="spacing" textLength="288" x="399.5" y="325.4707">getDeviceByName(String deviceName): String</text></g><!--class Room--><g id="elem_Room"><rect codeLine="37" fill="#F1F1F1" height="141.1055" id="Room" rx="2.5" ry="2.5" style="stroke:#181818;stroke-width:0.5;" width="229" x="729" y="210.6211"/><ellipse cx="820.75" cy="226.6211" fill="#ADD1B2" rx="11" ry="11" style="stroke:#181818;stroke-width:1.0;"/><path d="M823.5156,222.4961 Q823.6719,222.2773 823.8594,222.168 Q824.0469,222.0586 824.2656,222.0586 Q824.6406,222.0586 824.875,222.3242 Q825.1094,222.5742 825.1094,223.1836 L825.1094,224.6367 Q825.1094,225.2461 824.875,225.5117 Q824.6406,225.7773 824.2656,225.7773 Q823.9219,225.7773 823.7188,225.5742 Q823.5156,225.3867 823.4063,224.8711 Q823.3594,224.5117 823.1719,224.3242 Q822.8438,223.9492 822.2344,223.7305 Q821.625,223.5117 821,223.5117 Q820.2344,223.5117 819.5938,223.8398 Q818.9688,224.168 818.4688,224.918 Q817.9844,225.668 817.9844,226.6992 L817.9844,227.793 Q817.9844,229.0273 818.875,229.8555 Q819.7656,230.668 821.3594,230.668 Q822.2969,230.668 822.9531,230.418 Q823.3438,230.2617 823.7656,229.8242 Q824.0313,229.5586 824.1719,229.4805 Q824.3281,229.4023 824.5313,229.4023 Q824.8594,229.4023 825.1094,229.668 Q825.375,229.918 825.375,230.2617 Q825.375,230.6055 825.0313,231.0117 Q824.5313,231.5898 823.7344,231.918 Q822.6563,232.3711 821.3594,232.3711 Q819.8438,232.3711 818.6406,231.7461 Q817.6563,231.2461 816.9688,230.1836 Q816.2813,229.1055 816.2813,227.8242 L816.2813,226.668 Q816.2813,225.3398 816.8906,224.1992 Q817.5156,223.043 818.6094,222.4336 Q819.7031,221.8086 820.9375,221.8086 Q821.6719,221.8086 822.3125,221.9805 Q822.9688,222.1367 823.5156,222.4961 Z " fill="#000000"/><text fill="#000000" font-family="sans-serif" font-size="14" lengthAdjust="spacing" textLength="37" x="841.25" y="232.418">Room</text><line style="stroke:#181818;stroke-width:0.5;" x1="730" x2="957" y1="242.6211" y2="242.6211"/><rect fill="none" height="6" style="stroke:#C82930;stroke-width:1.0;" width="6" x="737" y="254.4316"/><text fill="#000000" font-family="sans-serif" font-size="14" lengthAdjust="spacing" textLength="113" x="749" y="261.7285">roomName: String</text><rect fill="none" height="6" style="stroke:#C82930;stroke-width:1.0;" width="6" x="737" y="273.0527"/><text fill="#000000" font-family="sans-serif" font-size="14" lengthAdjust="spacing" textLength="100" x="749" y="280.3496">floorNumber: int</text><rect fill="none" height="6" style="stroke:#C82930;stroke-width:1.0;" width="6" x="737" y="291.6738"/><text fill="#000000" font-family="sans-serif" font-size="14" lengthAdjust="spacing" textLength="152" x="749" y="298.9707">dimensions: Dimensions</text><rect fill="none" height="6" style="stroke:#C82930;stroke-width:1.0;" width="6" x="737" y="310.2949"/><text fill="#000000" font-family="sans-serif" font-size="14" lengthAdjust="spacing" textLength="136" x="749" y="317.5918">deviceList: DeviceList</text><line style="stroke:#181818;stroke-width:0.5;" x1="730" x2="957" y1="325.1055" y2="325.1055"/><rect fill="#F24D5C" height="6" style="stroke:#C82930;stroke-width:1.0;" width="6" x="737" y="336.916"/><text fill="#000000" font-family="sans-serif" font-size="14" lengthAdjust="spacing" textLength="203" x="749" y="344.2129">validRoomArguments(): boolean</text></g><!--class DeviceMapper--><g id="elem_DeviceMapper"><rect codeLine="46" fill="#F1F1F1" height="85.2422" id="DeviceMapper" rx="2.5" ry="2.5" style="stroke:#181818;stroke-width:0.5;" width="386" x="993.5" y="238.6211"/><ellipse cx="1136.75" cy="254.6211" fill="#ADD1B2" rx="11" ry="11" style="stroke:#181818;stroke-width:1.0;"/><path d="M1139.5156,250.4961 Q1139.6719,250.2773 1139.8594,250.168 Q1140.0469,250.0586 1140.2656,250.0586 Q1140.6406,250.0586 1140.875,250.3242 Q1141.1094,250.5742 1141.1094,251.1836 L1141.1094,252.6367 Q1141.1094,253.2461 1140.875,253.5117 Q1140.6406,253.7773 1140.2656,253.7773 Q1139.9219,253.7773 1139.7188,253.5742 Q1139.5156,253.3867 1139.4063,252.8711 Q1139.3594,252.5117 1139.1719,252.3242 Q1138.8438,251.9492 1138.2344,251.7305 Q1137.625,251.5117 1137,251.5117 Q1136.2344,251.5117 1135.5938,251.8398 Q1134.9688,252.168 1134.4688,252.918 Q1133.9844,253.668 1133.9844,254.6992 L1133.9844,255.793 Q1133.9844,257.0273 1134.875,257.8555 Q1135.7656,258.668 1137.3594,258.668 Q1138.2969,258.668 1138.9531,258.418 Q1139.3438,258.2617 1139.7656,257.8242 Q1140.0313,257.5586 1140.1719,257.4805 Q1140.3281,257.4023 1140.5313,257.4023 Q1140.8594,257.4023 1141.1094,257.668 Q1141.375,257.918 1141.375,258.2617 Q1141.375,258.6055 1141.0313,259.0117 Q1140.5313,259.5898 1139.7344,259.918 Q1138.6563,260.3711 1137.3594,260.3711 Q1135.8438,260.3711 1134.6406,259.7461 Q1133.6563,259.2461 1132.9688,258.1836 Q1132.2813,257.1055 1132.2813,255.8242 L1132.2813,254.668 Q1132.2813,253.3398 1132.8906,252.1992 Q1133.5156,251.043 1134.6094,250.4336 Q1135.7031,249.8086 1136.9375,249.8086 Q1137.6719,249.8086 1138.3125,249.9805 Q1138.9688,250.1367 1139.5156,250.4961 Z " fill="#000000"/><text fill="#000000" font-family="sans-serif" font-size="14" lengthAdjust="spacing" textLength="91" x="1157.25" y="260.418">DeviceMapper</text><line style="stroke:#181818;stroke-width:0.5;" x1="994.5" x2="1378.5" y1="270.6211" y2="270.6211"/><line style="stroke:#181818;stroke-width:0.5;" x1="994.5" x2="1378.5" y1="278.6211" y2="278.6211"/><ellipse cx="1004.5" cy="293.4316" fill="#84BE84" rx="3" ry="3" style="stroke:#038048;stroke-width:1.0;"/><text fill="#000000" font-family="sans-serif" font-size="14" lengthAdjust="spacing" textLength="360" x="1013.5" y="297.7285">deviceListToDTO(DeviceList): Map&lt;DeviceDTO, Device&gt;</text><ellipse cx="1004.5" cy="312.0527" fill="#84BE84" rx="3" ry="3" style="stroke:#038048;stroke-width:1.0;"/><text fill="#000000" font-family="sans-serif" font-size="14" lengthAdjust="spacing" textLength="224" x="1013.5" y="316.3496">DeviceToDTO(Device): DeviceDTO</text></g><!--link ListAllDevicesInRoomController to RoomMapper--><g id="link_ListAllDevicesInRoomController_RoomMapper"><path codeLine="55" d="M535.23,150.7211 C480.26,169.2211 417.99,190.5111 361.5,210.6211 C336.66,219.4611 310.05,229.2311 284.95,238.5711 " fill="none" id="ListAllDevicesInRoomController-RoomMapper" style="stroke:#181818;stroke-width:1.0;"/></g><!--link ListAllDevicesInRoomController to DeviceMapper--><g id="link_ListAllDevicesInRoomController_DeviceMapper"><path codeLine="57" d="M829.93,150.6211 C906.43,178.4011 999.89,212.3511 1071.94,238.5111 " fill="none" id="ListAllDevicesInRoomController-DeviceMapper" style="stroke:#181818;stroke-width:1.0;"/></g><!--link ListAllDevicesInRoomController to House--><g id="link_ListAllDevicesInRoomController_House"><path codeLine="59" d="M646.07,150.8611 C625.3,175.3511 600.52,204.5911 579.78,229.0611 " fill="none" id="ListAllDevicesInRoomController-House" style="stroke:#181818;stroke-width:1.0;"/></g><!--link ListAllDevicesInRoomController to Room--><g id="link_ListAllDevicesInRoomController_Room"><path codeLine="61" d="M733.22,150.8611 C749.05,169.4111 767.2,190.6911 784.15,210.5511 " fill="none" id="ListAllDevicesInRoomController-Room" style="stroke:#181818;stroke-width:1.0;"/></g><!--link RoomMapper to RoomDTO--><g id="link_RoomMapper_RoomDTO"><path codeLine="63" d="M175.5,323.8111 C175.5,348.8911 175.5,381.6211 175.5,411.4511 " fill="none" id="RoomMapper-RoomDTO" style="stroke:#181818;stroke-width:1.0;"/></g><!--link DeviceMapper to DeviceDTO--><g id="link_DeviceMapper_DeviceDTO"><path codeLine="64" d="M1186.5,323.8111 C1186.5,360.1811 1186.5,412.6611 1186.5,449.0011 " fill="none" id="DeviceMapper-DeviceDTO" style="stroke:#181818;stroke-width:1.0;"/></g><!--SRC=[ZLF1Rjim3BthAtXRXzhDJZiOmu1iFRH0rmvhUnfwK6p55Y29WIGt68Rz-qXBjfK1nU9BH97lyV5HYJeQ1S-F7pusi0qWuGUYXOUZKnv-eeVlUAJJSr2-0WgtdTLEX-XbHFzImIqSfOiG4NeL2Mqe1xW7QGnqwbMtAe1sbF14Mq50Y8EC16kbWnRTNlUZLtIfx9LuDyHu2CrcSp14EbfprQBTj4Q6K7TQzbvQ8QOGxgZFrfZhrEBMiUglwA97OqZlRr4FE0RLm0t_Y4jInoKCktZVm7o-VdgOSebdohBGUsaLfHfuZ5wxdW1h0KF-p3AOXowutuoRGQBU6qH_FzgTyWsP44Lzr5qS6kXmt1abQgDSNyQ3qlqGbtWMpQmiElCkpPEct3u59mAAoTwYOFflyd2OBBla4PwG22zcVmX2wKzvp6gg__nlOVRpn9Z9zjaMPbezVtCPXTulloR5IMv-I7npCa8nmxaBwBHLBcXqWLQwdEb-MM-vQb6_IgCxRh3r_KZbCR3W7Q9HqXKQ4cPrSkLBDgsSsT5bTrN6aglfK0AMXvUzvUy_Bx-kYwMUKrrAFwS-_Q7Eb254ySBo7SzoujSYWZFy_GK0]--></g></svg>