<?xml version="1.0" encoding="us-ascii" standalone="no"?><svg xmlns="http://www.w3.org/2000/svg" xmlns:xlink="http://www.w3.org/1999/xlink" contentStyleType="text/css" height="586px" preserveAspectRatio="none" style="width:940px;height:586px;background:#FFFFFF;" version="1.1" viewBox="0 0 940 586" width="940px" zoomAndPan="magnify"><defs/><g><text fill="#000000" font-family="sans-serif" font-size="14" font-weight="bold" lengthAdjust="spacing" textLength="912" x="10" y="30.1074">US06 - As a Room Owner [or Power User, or Administrator], I want to get a list of all devices in a room, so that I can configure them.</text><rect fill="#FFFFFF" height="419.7832" style="stroke:#181818;stroke-width:1.0;" width="10" x="312.25" y="111.5332"/><rect fill="#FFFFFF" height="108.2031" style="stroke:#181818;stroke-width:1.0;" width="10" x="515.25" y="391.8223"/><rect fill="#FFFFFF" height="31.291" style="stroke:#181818;stroke-width:1.0;" width="10" x="740.75" y="297.9492"/><rect fill="none" height="62.9121" style="stroke:#000000;stroke-width:1.5;" width="389" x="455.75" y="406.8223"/><line style="stroke:#181818;stroke-width:0.5;stroke-dasharray:5.0,5.0;" x1="316.75" x2="316.75" y1="78.2422" y2="549.3164"/><line style="stroke:#181818;stroke-width:0.5;stroke-dasharray:5.0,5.0;" x1="519.75" x2="519.75" y1="78.2422" y2="549.3164"/><line style="stroke:#181818;stroke-width:0.5;stroke-dasharray:5.0,5.0;" x1="662.25" x2="662.25" y1="457.9238" y2="549.3164"/><line style="stroke:#181818;stroke-width:0.5;stroke-dasharray:5.0,5.0;" x1="745.25" x2="745.25" y1="78.2422" y2="549.3164"/><rect fill="#E2E2F0" height="32.6211" rx="2.5" ry="2.5" style="stroke:#181818;stroke-width:0.5;" width="215" x="209.75" y="44.6211"/><text fill="#000000" font-family="sans-serif" font-size="14" lengthAdjust="spacing" textLength="201" x="216.75" y="66.7285">:ListAllDevicesInRoomController</text><rect fill="#E2E2F0" height="32.6211" rx="2.5" ry="2.5" style="stroke:#181818;stroke-width:0.5;" width="215" x="209.75" y="548.3164"/><text fill="#000000" font-family="sans-serif" font-size="14" lengthAdjust="spacing" textLength="201" x="216.75" y="570.4238">:ListAllDevicesInRoomController</text><rect fill="#E2E2F0" height="32.6211" rx="2.5" ry="2.5" style="stroke:#181818;stroke-width:0.5;" width="109" x="465.75" y="44.6211"/><text fill="#000000" font-family="sans-serif" font-size="14" lengthAdjust="spacing" textLength="95" x="472.75" y="66.7285">:DeviceMapper</text><rect fill="#E2E2F0" height="32.6211" rx="2.5" ry="2.5" style="stroke:#181818;stroke-width:0.5;" width="109" x="465.75" y="548.3164"/><text fill="#000000" font-family="sans-serif" font-size="14" lengthAdjust="spacing" textLength="95" x="472.75" y="570.4238">:DeviceMapper</text><rect fill="#E2E2F0" height="32.6211" rx="2.5" ry="2.5" style="stroke:#181818;stroke-width:0.5;" width="91" x="617.25" y="548.3164"/><text fill="#000000" font-family="sans-serif" font-size="14" lengthAdjust="spacing" textLength="77" x="624.25" y="570.4238">:DeviceDTO</text><rect fill="#E2E2F0" height="32.6211" rx="2.5" ry="2.5" style="stroke:#181818;stroke-width:0.5;" width="55" x="718.25" y="44.6211"/><text fill="#000000" font-family="sans-serif" font-size="14" lengthAdjust="spacing" textLength="41" x="725.25" y="66.7285">:Room</text><rect fill="#E2E2F0" height="32.6211" rx="2.5" ry="2.5" style="stroke:#181818;stroke-width:0.5;" width="55" x="718.25" y="548.3164"/><text fill="#000000" font-family="sans-serif" font-size="14" lengthAdjust="spacing" textLength="41" x="725.25" y="570.4238">:Room</text><rect fill="#FFFFFF" height="419.7832" style="stroke:#181818;stroke-width:1.0;" width="10" x="312.25" y="111.5332"/><rect fill="#FFFFFF" height="108.2031" style="stroke:#181818;stroke-width:1.0;" width="10" x="515.25" y="391.8223"/><rect fill="#FFFFFF" height="31.291" style="stroke:#181818;stroke-width:1.0;" width="10" x="740.75" y="297.9492"/><polygon fill="#181818" points="300.25,107.5332,310.25,111.5332,300.25,115.5332,304.25,111.5332" style="stroke:#181818;stroke-width:1.0;"/><line style="stroke:#181818;stroke-width:1.0;" x1="78.25" x2="306.25" y1="111.5332" y2="111.5332"/><text fill="#000000" font-family="sans-serif" font-size="13" font-weight="bold" lengthAdjust="spacing" textLength="7" x="85.25" y="106.2705">1</text><text fill="#000000" font-family="sans-serif" font-size="13" lengthAdjust="spacing" textLength="81" x="96.25" y="106.2705">getRoomList()</text><rect fill="none" height="43.252" style="stroke:#000000;stroke-width:1.5;" width="221" x="206.75" y="119.5332"/><path d="M206.75,119.5332 L268.75,119.5332 L268.75,128.5332 L258.75,138.5332 L206.75,138.5332 L206.75,119.5332 " fill="#EEEEEE" style="stroke:#000000;stroke-width:2.0;"/><text fill="#000000" font-family="sans-serif" font-size="13" font-weight="bold" lengthAdjust="spacing" textLength="17" x="219.75" y="135.5615">ref</text><text fill="#000000" font-family="sans-serif" font-size="12" lengthAdjust="spacing" textLength="145" x="244.75" y="155.4824">US03.1SequenceDiagram</text><polygon fill="#181818" points="89.25,187.0762,79.25,191.0762,89.25,195.0762,85.25,191.0762" style="stroke:#181818;stroke-width:1.0;"/><line style="stroke:#181818;stroke-width:1.0;stroke-dasharray:2.0,2.0;" x1="83.25" x2="311.25" y1="191.0762" y2="191.0762"/><text fill="#000000" font-family="sans-serif" font-size="13" font-weight="bold" lengthAdjust="spacing" textLength="7" x="95.25" y="185.8135">2</text><text fill="#000000" font-family="sans-serif" font-size="13" lengthAdjust="spacing" textLength="97" x="106.25" y="185.8135">List&lt;RoomDTO&gt;</text><polygon fill="#181818" points="300.25,218.3672,310.25,222.3672,300.25,226.3672,304.25,222.3672" style="stroke:#181818;stroke-width:1.0;"/><line style="stroke:#181818;stroke-width:1.0;" x1="78.25" x2="306.25" y1="222.3672" y2="222.3672"/><text fill="#000000" font-family="sans-serif" font-size="13" font-weight="bold" lengthAdjust="spacing" textLength="7" x="85.25" y="217.1045">3</text><text fill="#000000" font-family="sans-serif" font-size="13" lengthAdjust="spacing" textLength="204" x="96.25" y="217.1045">getDeviceList(RoomDTO roomDTO)</text><line style="stroke:#181818;stroke-width:1.0;" x1="322.25" x2="364.25" y1="253.6582" y2="253.6582"/><line style="stroke:#181818;stroke-width:1.0;" x1="364.25" x2="364.25" y1="253.6582" y2="266.6582"/><line style="stroke:#181818;stroke-width:1.0;" x1="323.25" x2="364.25" y1="266.6582" y2="266.6582"/><polygon fill="#181818" points="333.25,262.6582,323.25,266.6582,333.25,270.6582,329.25,266.6582" style="stroke:#181818;stroke-width:1.0;"/><text fill="#000000" font-family="sans-serif" font-size="13" font-weight="bold" lengthAdjust="spacing" textLength="7" x="329.25" y="248.3955">4</text><text fill="#000000" font-family="sans-serif" font-size="13" lengthAdjust="spacing" textLength="149" x="340.25" y="248.3955">get.(RoomDTO roomDTO)</text><polygon fill="#181818" points="728.75,293.9492,738.75,297.9492,728.75,301.9492,732.75,297.9492" style="stroke:#181818;stroke-width:1.0;"/><line style="stroke:#181818;stroke-width:1.0;" x1="322.25" x2="734.75" y1="297.9492" y2="297.9492"/><text fill="#000000" font-family="sans-serif" font-size="13" font-weight="bold" lengthAdjust="spacing" textLength="7" x="329.25" y="292.6865">5</text><text fill="#000000" font-family="sans-serif" font-size="13" lengthAdjust="spacing" textLength="85" x="340.25" y="292.6865">getDeviceList()</text><polygon fill="#181818" points="531.25,325.2402,521.25,329.2402,531.25,333.2402,527.25,329.2402" style="stroke:#181818;stroke-width:1.0;"/><line style="stroke:#181818;stroke-width:1.0;stroke-dasharray:2.0,2.0;" x1="525.25" x2="744.75" y1="329.2402" y2="329.2402"/><text fill="#000000" font-family="sans-serif" font-size="13" font-weight="bold" lengthAdjust="spacing" textLength="7" x="537.25" y="323.9775">6</text><text fill="#000000" font-family="sans-serif" font-size="13" lengthAdjust="spacing" textLength="59" x="548.25" y="323.9775">DeviceList</text><polygon fill="#181818" points="333.25,356.5313,323.25,360.5313,333.25,364.5313,329.25,360.5313" style="stroke:#181818;stroke-width:1.0;"/><line style="stroke:#181818;stroke-width:1.0;stroke-dasharray:2.0,2.0;" x1="327.25" x2="519.25" y1="360.5313" y2="360.5313"/><text fill="#000000" font-family="sans-serif" font-size="13" font-weight="bold" lengthAdjust="spacing" textLength="7" x="339.25" y="355.2686">7</text><text fill="#000000" font-family="sans-serif" font-size="13" lengthAdjust="spacing" textLength="59" x="350.25" y="355.2686">DeviceList</text><polygon fill="#181818" points="503.25,387.8223,513.25,391.8223,503.25,395.8223,507.25,391.8223" style="stroke:#181818;stroke-width:1.0;"/><line style="stroke:#181818;stroke-width:1.0;" x1="322.25" x2="509.25" y1="391.8223" y2="391.8223"/><text fill="#000000" font-family="sans-serif" font-size="13" font-weight="bold" lengthAdjust="spacing" textLength="7" x="329.25" y="386.5596">8</text><text fill="#000000" font-family="sans-serif" font-size="13" lengthAdjust="spacing" textLength="149" x="340.25" y="386.5596">domainToDTO(DeviceList)</text><path d="M455.75,406.8223 L528.75,406.8223 L528.75,416.1133 L518.75,426.1133 L455.75,426.1133 L455.75,406.8223 " fill="#EEEEEE" style="stroke:#000000;stroke-width:1.5;"/><rect fill="none" height="62.9121" style="stroke:#000000;stroke-width:1.5;" width="389" x="455.75" y="406.8223"/><text fill="#000000" font-family="sans-serif" font-size="13" font-weight="bold" lengthAdjust="spacing" textLength="28" x="470.75" y="421.8506">loop</text><text fill="#000000" font-family="sans-serif" font-size="11" font-weight="bold" lengthAdjust="spacing" textLength="296" x="543.75" y="420.6924">[as many times as the number of rooms in RoomList]</text><polygon fill="#181818" points="605.25,445.4043,615.25,449.4043,605.25,453.4043,609.25,449.4043" style="stroke:#181818;stroke-width:1.0;"/><line style="stroke:#181818;stroke-width:1.0;stroke-dasharray:2.0,2.0;" x1="525.25" x2="611.25" y1="449.4043" y2="449.4043"/><text fill="#000000" font-family="sans-serif" font-size="13" font-weight="bold" lengthAdjust="spacing" textLength="7" x="532.25" y="444.1416">9</text><text fill="#000000" font-family="sans-serif" font-size="13" lengthAdjust="spacing" textLength="57" x="543.25" y="444.1416">&#171;creates&#187;</text><rect fill="#E2E2F0" height="32.6211" rx="2.5" ry="2.5" style="stroke:#181818;stroke-width:0.5;" width="91" x="617.25" y="426.1133"/><text fill="#000000" font-family="sans-serif" font-size="14" lengthAdjust="spacing" textLength="77" x="624.25" y="448.2207">:DeviceDTO</text><polygon fill="#181818" points="333.25,496.0254,323.25,500.0254,333.25,504.0254,329.25,500.0254" style="stroke:#181818;stroke-width:1.0;"/><line style="stroke:#181818;stroke-width:1.0;stroke-dasharray:2.0,2.0;" x1="327.25" x2="519.25" y1="500.0254" y2="500.0254"/><text fill="#000000" font-family="sans-serif" font-size="13" font-weight="bold" lengthAdjust="spacing" textLength="14" x="339.25" y="494.7627">10</text><text fill="#000000" font-family="sans-serif" font-size="13" lengthAdjust="spacing" textLength="151" x="357.25" y="494.7627">Map&lt;DeviceDTO, Device&gt;</text><polygon fill="#181818" points="89.25,527.3164,79.25,531.3164,89.25,535.3164,85.25,531.3164" style="stroke:#181818;stroke-width:1.0;"/><line style="stroke:#181818;stroke-width:1.0;stroke-dasharray:2.0,2.0;" x1="83.25" x2="316.25" y1="531.3164" y2="531.3164"/><text fill="#000000" font-family="sans-serif" font-size="13" font-weight="bold" lengthAdjust="spacing" textLength="14" x="95.25" y="526.0537">11</text><text fill="#000000" font-family="sans-serif" font-size="13" lengthAdjust="spacing" textLength="101" x="113.25" y="526.0537">List&lt;DeviceDTO&gt;</text><!--SRC=[TLB1Rjim3BthAuXUrXPnic703ePX85Wk1JPqMDlJq8DcCwa0IVGaEi7-VfJZ9PQJdYIHxv5FvFlmnjp5ShNghFRSExjioAqY_kdHDrYqHk-2TagnOOlmylJn2nImZg3X9v63nuF70Byem0ywoEqbObY0FDUjCzv43fefl2xW0GvI7vXWXoniApcWBMXheSMzQJ22yP88KdO1aO3VD0kjqHuQybkpwmDA4DrIATqp-Txzng1KfmERndIf_4tvJUgkhTqSIpxufF8hUGvaBOORq77un3aqun-9ttNNZUXfu2fsy_mu0SfhXaeA1a2wA5NKCm5bcaZA9UctTqetRFQQSQupu1PedsQSn-NvUVdfQTpOPbmO-XQ4eQgYkEYN6bMfeuYjtrDq_CwWQOGEgv7pJkLmk5vWUScxGaoOUR_938QP3Kuh13pTHGbdXcenPqo10tEkRyAz8YhlqvBJnZ-JVE7sp9k8p2nYYRgqRQVzNs3ZnDVo4j_2qR39z6aWWzt_h_rIyCbDz_SbL5KJK3h5kawBdIjEEyuborcTAYp6P3qTKwRvNPESQcJS7FeF]--></g></svg>