<?xml version="1.0" encoding="us-ascii" standalone="no"?><svg xmlns="http://www.w3.org/2000/svg" xmlns:xlink="http://www.w3.org/1999/xlink" contentStyleType="text/css" height="815px" preserveAspectRatio="none" style="width:1309px;height:815px;background:#FFFFFF;" version="1.1" viewBox="0 0 1309 815" width="1309px" zoomAndPan="magnify"><defs/><g><!--cluster roomAggregate--><g id="cluster_roomAggregate"><path d="M327.5,161 L439.5,161 A3.75,3.75 0 0 1 442,163.5 L449,183.4883 L489.5,183.4883 A2.5,2.5 0 0 1 492,185.9883 L492,273.5 A2.5,2.5 0 0 1 489.5,276 L327.5,276 A2.5,2.5 0 0 1 325,273.5 L325,163.5 A2.5,2.5 0 0 1 327.5,161 " fill="none" style="stroke:#000000;stroke-width:1.5;"/><line style="stroke:#000000;stroke-width:1.5;" x1="325" x2="449" y1="183.4883" y2="183.4883"/><text fill="#000000" font-family="sans-serif" font-size="14" font-weight="bold" lengthAdjust="spacing" textLength="111" x="329" y="176.5352">roomAggregate</text></g><!--cluster houseAggregate--><g id="cluster_houseAggregate"><path d="M327.5,6 L444.5,6 A3.75,3.75 0 0 1 447,8.5 L454,28.4883 L491.5,28.4883 A2.5,2.5 0 0 1 494,30.9883 L494,118.5 A2.5,2.5 0 0 1 491.5,121 L327.5,121 A2.5,2.5 0 0 1 325,118.5 L325,8.5 A2.5,2.5 0 0 1 327.5,6 " fill="none" style="stroke:#000000;stroke-width:1.5;"/><line style="stroke:#000000;stroke-width:1.5;" x1="325" x2="454" y1="28.4883" y2="28.4883"/><text fill="#000000" font-family="sans-serif" font-size="14" font-weight="bold" lengthAdjust="spacing" textLength="116" x="329" y="21.5352">houseAggregate</text></g><!--cluster deviceAggregate--><g id="cluster_deviceAggregate"><path d="M327.5,316 L446.5,316 A3.75,3.75 0 0 1 449,318.5 L456,338.4883 L493.5,338.4883 A2.5,2.5 0 0 1 496,340.9883 L496,428.5 A2.5,2.5 0 0 1 493.5,431 L327.5,431 A2.5,2.5 0 0 1 325,428.5 L325,318.5 A2.5,2.5 0 0 1 327.5,316 " fill="none" style="stroke:#000000;stroke-width:1.5;"/><line style="stroke:#000000;stroke-width:1.5;" x1="325" x2="456" y1="338.4883" y2="338.4883"/><text fill="#000000" font-family="sans-serif" font-size="14" font-weight="bold" lengthAdjust="spacing" textLength="118" x="329" y="331.5352">deviceAggregate</text></g><!--cluster actuatorAggregate--><g id="cluster_actuatorAggregate"><path d="M58.5,471 L191.5,471 A3.75,3.75 0 0 1 194,473.5 L201,493.4883 L238.5,493.4883 A2.5,2.5 0 0 1 241,495.9883 L241,583.5 A2.5,2.5 0 0 1 238.5,586 L58.5,586 A2.5,2.5 0 0 1 56,583.5 L56,473.5 A2.5,2.5 0 0 1 58.5,471 " fill="none" style="stroke:#000000;stroke-width:1.5;"/><line style="stroke:#000000;stroke-width:1.5;" x1="56" x2="201" y1="493.4883" y2="493.4883"/><text fill="#000000" font-family="sans-serif" font-size="14" font-weight="bold" lengthAdjust="spacing" textLength="132" x="60" y="486.5352">actuatorAggregate</text></g><!--cluster actuatorFunctionalityAggregate--><g id="cluster_actuatorFunctionalityAggregate"><path d="M14.5,316 L241.5,316 A3.75,3.75 0 0 1 244,318.5 L251,338.4883 L282.5,338.4883 A2.5,2.5 0 0 1 285,340.9883 L285,428.5 A2.5,2.5 0 0 1 282.5,431 L14.5,431 A2.5,2.5 0 0 1 12,428.5 L12,318.5 A2.5,2.5 0 0 1 14.5,316 " fill="none" style="stroke:#000000;stroke-width:1.5;"/><line style="stroke:#000000;stroke-width:1.5;" x1="12" x2="251" y1="338.4883" y2="338.4883"/><text fill="#000000" font-family="sans-serif" font-size="14" font-weight="bold" lengthAdjust="spacing" textLength="226" x="16" y="331.5352">actuatorFunctionalityAggregate</text></g><!--cluster sensorAggregate--><g id="cluster_sensorAggregate"><path d="M327.5,471 L449.5,471 A3.75,3.75 0 0 1 452,473.5 L459,493.4883 L495.5,493.4883 A2.5,2.5 0 0 1 498,495.9883 L498,583.5 A2.5,2.5 0 0 1 495.5,586 L327.5,586 A2.5,2.5 0 0 1 325,583.5 L325,473.5 A2.5,2.5 0 0 1 327.5,471 " fill="none" style="stroke:#000000;stroke-width:1.5;"/><line style="stroke:#000000;stroke-width:1.5;" x1="325" x2="459" y1="493.4883" y2="493.4883"/><text fill="#000000" font-family="sans-serif" font-size="14" font-weight="bold" lengthAdjust="spacing" textLength="121" x="329" y="486.5352">sensorAggregate</text></g><!--cluster sensorFunctionalityAggregate--><g id="cluster_sensorFunctionalityAggregate"><path d="M176.5,669 L392.5,669 A3.75,3.75 0 0 1 395,671.5 L402,691.4883 L432.5,691.4883 A2.5,2.5 0 0 1 435,693.9883 L435,781.5 A2.5,2.5 0 0 1 432.5,784 L176.5,784 A2.5,2.5 0 0 1 174,781.5 L174,671.5 A2.5,2.5 0 0 1 176.5,669 " fill="none" style="stroke:#000000;stroke-width:1.5;"/><line style="stroke:#000000;stroke-width:1.5;" x1="174" x2="402" y1="691.4883" y2="691.4883"/><text fill="#000000" font-family="sans-serif" font-size="14" font-weight="bold" lengthAdjust="spacing" textLength="215" x="178" y="684.5352">sensorFunctionalityAggregate</text></g><!--cluster value--><g id="cluster_value"><path d="M477.5,626 L516.5,626 A3.75,3.75 0 0 1 519,628.5 L526,648.4883 L1299.5,648.4883 A2.5,2.5 0 0 1 1302,650.9883 L1302,805.5 A2.5,2.5 0 0 1 1299.5,808 L477.5,808 A2.5,2.5 0 0 1 475,805.5 L475,628.5 A2.5,2.5 0 0 1 477.5,626 " fill="none" style="stroke:#000000;stroke-width:1.5;"/><line style="stroke:#000000;stroke-width:1.5;" x1="475" x2="526" y1="648.4883" y2="648.4883"/><text fill="#000000" font-family="sans-serif" font-size="14" font-weight="bold" lengthAdjust="spacing" textLength="38" x="479" y="641.5352">value</text></g><!--cluster instantTimeValueAggregate--><g id="cluster_instantTimeValueAggregate"><path d="M1055.5,677 L1257.5,677 A3.75,3.75 0 0 1 1260,679.5 L1267,699.4883 L1267.5,699.4883 A2.5,2.5 0 0 1 1270,701.9883 L1270,773.5 A2.5,2.5 0 0 1 1267.5,776 L1055.5,776 A2.5,2.5 0 0 1 1053,773.5 L1053,679.5 A2.5,2.5 0 0 1 1055.5,677 " fill="none" style="stroke:#000000;stroke-width:1.5;"/><line style="stroke:#000000;stroke-width:1.5;" x1="1053" x2="1267" y1="699.4883" y2="699.4883"/><text fill="#000000" font-family="sans-serif" font-size="14" font-weight="bold" lengthAdjust="spacing" textLength="201" x="1057" y="692.5352">instantTimeValueAggregate</text></g><!--cluster periodTimeValueAggregate--><g id="cluster_periodTimeValueAggregate"><path d="M819.5,677 L1016.5,677 A3.75,3.75 0 0 1 1019,679.5 L1026,699.4883 L1026.5,699.4883 A2.5,2.5 0 0 1 1029,701.9883 L1029,773.5 A2.5,2.5 0 0 1 1026.5,776 L819.5,776 A2.5,2.5 0 0 1 817,773.5 L817,679.5 A2.5,2.5 0 0 1 819.5,677 " fill="none" style="stroke:#000000;stroke-width:1.5;"/><line style="stroke:#000000;stroke-width:1.5;" x1="817" x2="1026" y1="699.4883" y2="699.4883"/><text fill="#000000" font-family="sans-serif" font-size="14" font-weight="bold" lengthAdjust="spacing" textLength="196" x="821" y="692.5352">periodTimeValueAggregate</text></g><!--cluster instantTimeLocationValueAggregate--><g id="cluster_instantTimeLocationValueAggregate"><path d="M517.5,677 L780.5,677 A3.75,3.75 0 0 1 783,679.5 L790,699.4883 L790.5,699.4883 A2.5,2.5 0 0 1 793,701.9883 L793,773.5 A2.5,2.5 0 0 1 790.5,776 L517.5,776 A2.5,2.5 0 0 1 515,773.5 L515,679.5 A2.5,2.5 0 0 1 517.5,677 " fill="none" style="stroke:#000000;stroke-width:1.5;"/><line style="stroke:#000000;stroke-width:1.5;" x1="515" x2="790" y1="699.4883" y2="699.4883"/><text fill="#000000" font-family="sans-serif" font-size="14" font-weight="bold" lengthAdjust="spacing" textLength="262" x="519" y="692.5352">instantTimeLocationValueAggregate</text></g><!--class Room--><g id="elem_Room"><rect codeLine="6" fill="#F1F1F1" height="48" id="Room" rx="2.5" ry="2.5" style="stroke:#181818;stroke-width:0.5;" width="99" x="368.5" y="204"/><ellipse cx="383.5" cy="220" fill="#ADD1B2" rx="11" ry="11" style="stroke:#181818;stroke-width:1.0;"/><path d="M386.4731,225.6431 Q385.8921,225.9419 385.2529,226.0913 Q384.6138,226.2407 383.9082,226.2407 Q381.4014,226.2407 380.0815,224.5889 Q378.7617,222.937 378.7617,219.8159 Q378.7617,216.6865 380.0815,215.0347 Q381.4014,213.3828 383.9082,213.3828 Q384.6138,213.3828 385.2612,213.5322 Q385.9087,213.6816 386.4731,213.9805 L386.4731,216.7031 Q385.8423,216.1221 385.2488,215.8523 Q384.6553,215.5825 384.0244,215.5825 Q382.6797,215.5825 381.9949,216.6492 Q381.3101,217.7158 381.3101,219.8159 Q381.3101,221.9077 381.9949,222.9744 Q382.6797,224.041 384.0244,224.041 Q384.6553,224.041 385.2488,223.7712 Q385.8423,223.5015 386.4731,222.9204 Z " fill="#000000"/><text fill="#000000" font-family="sans-serif" font-size="14" lengthAdjust="spacing" textLength="40" x="397.5" y="225.291">Room</text><rect fill="#FFFFFF" height="16.1328" style="stroke:#181818;stroke-width:1.0;stroke-dasharray:2.0,2.0;" width="25" x="445.5" y="201"/><text fill="#000000" font-family="sans-serif" font-size="12" font-style="italic" lengthAdjust="spacing" textLength="23" x="446.5" y="213.6016">root</text><line style="stroke:#181818;stroke-width:0.5;" x1="369.5" x2="466.5" y1="236" y2="236"/><line style="stroke:#181818;stroke-width:0.5;" x1="369.5" x2="466.5" y1="244" y2="244"/></g><!--class House--><g id="elem_House"><rect codeLine="11" fill="#F1F1F1" height="48" id="House" rx="2.5" ry="2.5" style="stroke:#181818;stroke-width:0.5;" width="102" x="368" y="49"/><ellipse cx="383" cy="65" fill="#ADD1B2" rx="11" ry="11" style="stroke:#181818;stroke-width:1.0;"/><path d="M385.9731,70.6431 Q385.3921,70.9419 384.7529,71.0913 Q384.1138,71.2407 383.4082,71.2407 Q380.9014,71.2407 379.5815,69.5889 Q378.2617,67.937 378.2617,64.8159 Q378.2617,61.6865 379.5815,60.0347 Q380.9014,58.3828 383.4082,58.3828 Q384.1138,58.3828 384.7612,58.5322 Q385.4087,58.6816 385.9731,58.9805 L385.9731,61.7031 Q385.3423,61.1221 384.7488,60.8523 Q384.1553,60.5825 383.5244,60.5825 Q382.1797,60.5825 381.4949,61.6492 Q380.8101,62.7158 380.8101,64.8159 Q380.8101,66.9077 381.4949,67.9744 Q382.1797,69.041 383.5244,69.041 Q384.1553,69.041 384.7488,68.7712 Q385.3423,68.5015 385.9731,67.9204 Z " fill="#000000"/><text fill="#000000" font-family="sans-serif" font-size="14" lengthAdjust="spacing" textLength="43" x="397" y="70.291">House</text><rect fill="#FFFFFF" height="16.1328" style="stroke:#181818;stroke-width:1.0;stroke-dasharray:2.0,2.0;" width="25" x="448" y="46"/><text fill="#000000" font-family="sans-serif" font-size="12" font-style="italic" lengthAdjust="spacing" textLength="23" x="449" y="58.6016">root</text><line style="stroke:#181818;stroke-width:0.5;" x1="369" x2="469" y1="81" y2="81"/><line style="stroke:#181818;stroke-width:0.5;" x1="369" x2="469" y1="89" y2="89"/></g><!--class Device--><g id="elem_Device"><rect codeLine="16" fill="#F1F1F1" height="48" id="Device" rx="2.5" ry="2.5" style="stroke:#181818;stroke-width:0.5;" width="103" x="368.5" y="359"/><ellipse cx="383.5" cy="375" fill="#ADD1B2" rx="11" ry="11" style="stroke:#181818;stroke-width:1.0;"/><path d="M386.4731,380.6431 Q385.8921,380.9419 385.2529,381.0913 Q384.6138,381.2407 383.9082,381.2407 Q381.4014,381.2407 380.0815,379.5889 Q378.7617,377.937 378.7617,374.8159 Q378.7617,371.6865 380.0815,370.0347 Q381.4014,368.3828 383.9082,368.3828 Q384.6138,368.3828 385.2612,368.5322 Q385.9087,368.6816 386.4731,368.9805 L386.4731,371.7031 Q385.8423,371.1221 385.2488,370.8523 Q384.6553,370.5825 384.0244,370.5825 Q382.6797,370.5825 381.9949,371.6492 Q381.3101,372.7158 381.3101,374.8159 Q381.3101,376.9077 381.9949,377.9744 Q382.6797,379.041 384.0244,379.041 Q384.6553,379.041 385.2488,378.7712 Q385.8423,378.5015 386.4731,377.9204 Z " fill="#000000"/><text fill="#000000" font-family="sans-serif" font-size="14" lengthAdjust="spacing" textLength="44" x="397.5" y="380.291">Device</text><rect fill="#FFFFFF" height="16.1328" style="stroke:#181818;stroke-width:1.0;stroke-dasharray:2.0,2.0;" width="25" x="449.5" y="356"/><text fill="#000000" font-family="sans-serif" font-size="12" font-style="italic" lengthAdjust="spacing" textLength="23" x="450.5" y="368.6016">root</text><line style="stroke:#181818;stroke-width:0.5;" x1="369.5" x2="470.5" y1="391" y2="391"/><line style="stroke:#181818;stroke-width:0.5;" x1="369.5" x2="470.5" y1="399" y2="399"/></g><!--class Actuator--><g id="elem_Actuator"><rect codeLine="21" fill="#F1F1F1" height="48" id="Actuator" rx="2.5" ry="2.5" style="stroke:#181818;stroke-width:0.5;" width="118" x="99" y="514"/><ellipse cx="114" cy="530" fill="#A9DCDF" rx="11" ry="11" style="stroke:#181818;stroke-width:1.0;"/><path d="M114.1133,525.3481 L112.9595,530.4199 L115.2754,530.4199 Z M112.6191,523.1069 L115.6157,523.1069 L118.9609,535.5 L116.5122,535.5 L115.7485,532.437 L112.4697,532.437 L111.7227,535.5 L109.2739,535.5 Z " fill="#000000"/><text fill="#000000" font-family="sans-serif" font-size="14" font-style="italic" lengthAdjust="spacing" textLength="59" x="128" y="535.291">Actuator</text><rect fill="#FFFFFF" height="16.1328" style="stroke:#181818;stroke-width:1.0;stroke-dasharray:2.0,2.0;" width="25" x="195" y="511"/><text fill="#000000" font-family="sans-serif" font-size="12" font-style="italic" lengthAdjust="spacing" textLength="23" x="196" y="523.6016">root</text><line style="stroke:#181818;stroke-width:0.5;" x1="100" x2="216" y1="546" y2="546"/><line style="stroke:#181818;stroke-width:0.5;" x1="100" x2="216" y1="554" y2="554"/></g><!--class ActuatorFunctionality--><g id="elem_ActuatorFunctionality"><rect codeLine="26" fill="#F1F1F1" height="48" id="ActuatorFunctionality" rx="2.5" ry="2.5" style="stroke:#181818;stroke-width:0.5;" width="206" x="55" y="359"/><ellipse cx="70" cy="375" fill="#ADD1B2" rx="11" ry="11" style="stroke:#181818;stroke-width:1.0;"/><path d="M72.9731,380.6431 Q72.3921,380.9419 71.7529,381.0913 Q71.1138,381.2407 70.4082,381.2407 Q67.9014,381.2407 66.5815,379.5889 Q65.2617,377.937 65.2617,374.8159 Q65.2617,371.6865 66.5815,370.0347 Q67.9014,368.3828 70.4082,368.3828 Q71.1138,368.3828 71.7612,368.5322 Q72.4087,368.6816 72.9731,368.9805 L72.9731,371.7031 Q72.3423,371.1221 71.7488,370.8523 Q71.1553,370.5825 70.5244,370.5825 Q69.1797,370.5825 68.4949,371.6492 Q67.8101,372.7158 67.8101,374.8159 Q67.8101,376.9077 68.4949,377.9744 Q69.1797,379.041 70.5244,379.041 Q71.1553,379.041 71.7488,378.7712 Q72.3423,378.5015 72.9731,377.9204 Z " fill="#000000"/><text fill="#000000" font-family="sans-serif" font-size="14" lengthAdjust="spacing" textLength="147" x="84" y="380.291">ActuatorFunctionality</text><rect fill="#FFFFFF" height="16.1328" style="stroke:#181818;stroke-width:1.0;stroke-dasharray:2.0,2.0;" width="25" x="239" y="356"/><text fill="#000000" font-family="sans-serif" font-size="12" font-style="italic" lengthAdjust="spacing" textLength="23" x="240" y="368.6016">root</text><line style="stroke:#181818;stroke-width:0.5;" x1="56" x2="260" y1="391" y2="391"/><line style="stroke:#181818;stroke-width:0.5;" x1="56" x2="260" y1="399" y2="399"/></g><!--class Sensor--><g id="elem_Sensor"><rect codeLine="33" fill="#F1F1F1" height="48" id="Sensor" rx="2.5" ry="2.5" style="stroke:#181818;stroke-width:0.5;" width="106" x="368" y="514"/><ellipse cx="383" cy="530" fill="#A9DCDF" rx="11" ry="11" style="stroke:#181818;stroke-width:1.0;"/><path d="M383.1133,525.3481 L381.9595,530.4199 L384.2754,530.4199 Z M381.6191,523.1069 L384.6157,523.1069 L387.9609,535.5 L385.5122,535.5 L384.7485,532.437 L381.4697,532.437 L380.7227,535.5 L378.2739,535.5 Z " fill="#000000"/><text fill="#000000" font-family="sans-serif" font-size="14" font-style="italic" lengthAdjust="spacing" textLength="47" x="397" y="535.291">Sensor</text><rect fill="#FFFFFF" height="16.1328" style="stroke:#181818;stroke-width:1.0;stroke-dasharray:2.0,2.0;" width="25" x="452" y="511"/><text fill="#000000" font-family="sans-serif" font-size="12" font-style="italic" lengthAdjust="spacing" textLength="23" x="453" y="523.6016">root</text><line style="stroke:#181818;stroke-width:0.5;" x1="369" x2="473" y1="546" y2="546"/><line style="stroke:#181818;stroke-width:0.5;" x1="369" x2="473" y1="554" y2="554"/></g><!--class SensorFunctionality--><g id="elem_SensorFunctionality"><rect codeLine="38" fill="#F1F1F1" height="48" id="SensorFunctionality" rx="2.5" ry="2.5" style="stroke:#181818;stroke-width:0.5;" width="194" x="217" y="712"/><ellipse cx="232" cy="728" fill="#ADD1B2" rx="11" ry="11" style="stroke:#181818;stroke-width:1.0;"/><path d="M234.9731,733.6431 Q234.3921,733.9419 233.7529,734.0913 Q233.1138,734.2407 232.4082,734.2407 Q229.9014,734.2407 228.5815,732.5889 Q227.2617,730.937 227.2617,727.8159 Q227.2617,724.6865 228.5815,723.0347 Q229.9014,721.3828 232.4082,721.3828 Q233.1138,721.3828 233.7612,721.5322 Q234.4087,721.6816 234.9731,721.9805 L234.9731,724.7031 Q234.3423,724.1221 233.7488,723.8523 Q233.1553,723.5825 232.5244,723.5825 Q231.1797,723.5825 230.4949,724.6492 Q229.8101,725.7158 229.8101,727.8159 Q229.8101,729.9077 230.4949,730.9744 Q231.1797,732.041 232.5244,732.041 Q233.1553,732.041 233.7488,731.7712 Q234.3423,731.5015 234.9731,730.9204 Z " fill="#000000"/><text fill="#000000" font-family="sans-serif" font-size="14" lengthAdjust="spacing" textLength="135" x="246" y="733.291">SensorFunctionality</text><rect fill="#FFFFFF" height="16.1328" style="stroke:#181818;stroke-width:1.0;stroke-dasharray:2.0,2.0;" width="25" x="389" y="709"/><text fill="#000000" font-family="sans-serif" font-size="12" font-style="italic" lengthAdjust="spacing" textLength="23" x="390" y="721.6016">root</text><line style="stroke:#181818;stroke-width:0.5;" x1="218" x2="410" y1="744" y2="744"/><line style="stroke:#181818;stroke-width:0.5;" x1="218" x2="410" y1="752" y2="752"/></g><!--class InstantTimeValue--><g id="elem_InstantTimeValue"><rect codeLine="46" fill="#F1F1F1" height="48" id="InstantTimeValue" rx="2.5" ry="2.5" style="stroke:#181818;stroke-width:0.5;" width="178" x="1072" y="712"/><ellipse cx="1087" cy="728" fill="#ADD1B2" rx="11" ry="11" style="stroke:#181818;stroke-width:1.0;"/><path d="M1089.9731,733.6431 Q1089.3921,733.9419 1088.7529,734.0913 Q1088.1138,734.2407 1087.4082,734.2407 Q1084.9014,734.2407 1083.5815,732.5889 Q1082.2617,730.937 1082.2617,727.8159 Q1082.2617,724.6865 1083.5815,723.0347 Q1084.9014,721.3828 1087.4082,721.3828 Q1088.1138,721.3828 1088.7612,721.5322 Q1089.4087,721.6816 1089.9731,721.9805 L1089.9731,724.7031 Q1089.3423,724.1221 1088.7488,723.8523 Q1088.1553,723.5825 1087.5244,723.5825 Q1086.1797,723.5825 1085.4949,724.6492 Q1084.8101,725.7158 1084.8101,727.8159 Q1084.8101,729.9077 1085.4949,730.9744 Q1086.1797,732.041 1087.5244,732.041 Q1088.1553,732.041 1088.7488,731.7712 Q1089.3423,731.5015 1089.9731,730.9204 Z " fill="#000000"/><text fill="#000000" font-family="sans-serif" font-size="14" lengthAdjust="spacing" textLength="119" x="1101" y="733.291">InstantTimeValue</text><rect fill="#FFFFFF" height="16.1328" style="stroke:#181818;stroke-width:1.0;stroke-dasharray:2.0,2.0;" width="25" x="1228" y="709"/><text fill="#000000" font-family="sans-serif" font-size="12" font-style="italic" lengthAdjust="spacing" textLength="23" x="1229" y="721.6016">root</text><line style="stroke:#181818;stroke-width:0.5;" x1="1073" x2="1249" y1="744" y2="744"/><line style="stroke:#181818;stroke-width:0.5;" x1="1073" x2="1249" y1="752" y2="752"/></g><!--class PeriodTimeValue--><g id="elem_PeriodTimeValue"><rect codeLine="50" fill="#F1F1F1" height="48" id="PeriodTimeValue" rx="2.5" ry="2.5" style="stroke:#181818;stroke-width:0.5;" width="175" x="835.5" y="712"/><ellipse cx="850.5" cy="728" fill="#ADD1B2" rx="11" ry="11" style="stroke:#181818;stroke-width:1.0;"/><path d="M853.4731,733.6431 Q852.8921,733.9419 852.2529,734.0913 Q851.6138,734.2407 850.9082,734.2407 Q848.4014,734.2407 847.0815,732.5889 Q845.7617,730.937 845.7617,727.8159 Q845.7617,724.6865 847.0815,723.0347 Q848.4014,721.3828 850.9082,721.3828 Q851.6138,721.3828 852.2612,721.5322 Q852.9087,721.6816 853.4731,721.9805 L853.4731,724.7031 Q852.8423,724.1221 852.2488,723.8523 Q851.6553,723.5825 851.0244,723.5825 Q849.6797,723.5825 848.9949,724.6492 Q848.3101,725.7158 848.3101,727.8159 Q848.3101,729.9077 848.9949,730.9744 Q849.6797,732.041 851.0244,732.041 Q851.6553,732.041 852.2488,731.7712 Q852.8423,731.5015 853.4731,730.9204 Z " fill="#000000"/><text fill="#000000" font-family="sans-serif" font-size="14" lengthAdjust="spacing" textLength="116" x="864.5" y="733.291">PeriodTimeValue</text><rect fill="#FFFFFF" height="16.1328" style="stroke:#181818;stroke-width:1.0;stroke-dasharray:2.0,2.0;" width="25" x="988.5" y="709"/><text fill="#000000" font-family="sans-serif" font-size="12" font-style="italic" lengthAdjust="spacing" textLength="23" x="989.5" y="721.6016">root</text><line style="stroke:#181818;stroke-width:0.5;" x1="836.5" x2="1009.5" y1="744" y2="744"/><line style="stroke:#181818;stroke-width:0.5;" x1="836.5" x2="1009.5" y1="752" y2="752"/></g><!--class InstantValue--><g id="elem_InstantValue"><rect codeLine="54" fill="#F1F1F1" height="48" id="InstantValue" rx="2.5" ry="2.5" style="stroke:#181818;stroke-width:0.5;" width="144" x="582" y="712"/><ellipse cx="597" cy="728" fill="#ADD1B2" rx="11" ry="11" style="stroke:#181818;stroke-width:1.0;"/><path d="M599.9731,733.6431 Q599.3921,733.9419 598.7529,734.0913 Q598.1138,734.2407 597.4082,734.2407 Q594.9014,734.2407 593.5815,732.5889 Q592.2617,730.937 592.2617,727.8159 Q592.2617,724.6865 593.5815,723.0347 Q594.9014,721.3828 597.4082,721.3828 Q598.1138,721.3828 598.7612,721.5322 Q599.4087,721.6816 599.9731,721.9805 L599.9731,724.7031 Q599.3423,724.1221 598.7488,723.8523 Q598.1553,723.5825 597.5244,723.5825 Q596.1797,723.5825 595.4949,724.6492 Q594.8101,725.7158 594.8101,727.8159 Q594.8101,729.9077 595.4949,730.9744 Q596.1797,732.041 597.5244,732.041 Q598.1553,732.041 598.7488,731.7712 Q599.3423,731.5015 599.9731,730.9204 Z " fill="#000000"/><text fill="#000000" font-family="sans-serif" font-size="14" lengthAdjust="spacing" textLength="85" x="611" y="733.291">InstantValue</text><rect fill="#FFFFFF" height="16.1328" style="stroke:#181818;stroke-width:1.0;stroke-dasharray:2.0,2.0;" width="25" x="704" y="709"/><text fill="#000000" font-family="sans-serif" font-size="12" font-style="italic" lengthAdjust="spacing" textLength="23" x="705" y="721.6016">root</text><line style="stroke:#181818;stroke-width:0.5;" x1="583" x2="725" y1="744" y2="744"/><line style="stroke:#181818;stroke-width:0.5;" x1="583" x2="725" y1="752" y2="752"/></g><!--reverse link actuatorFunctionalityAggregate to actuatorAggregate--><g id="link_actuatorFunctionalityAggregate_actuatorAggregate"><path codeLine="30" d="M20,437.636 C20,438.1826 20,433.5495 20,434.1002 C20,435.2017 20,436.3112 20,437.4277 C20,446.3602 20,455.7425 20,465.0375 C20,502.2175 20,538 20,538 C20,538 29.3475,538 39.4262,538 C44.4656,538 49.6878,538 54.0158,538 C54.5568,538 55.0838,538 55.5947,538 C55.7225,538 55.8492,538 55.9749,538 " fill="none" id="actuatorFunctionalityAggregate-backto-actuatorAggregate" style="stroke:#181818;stroke-width:1.0;"/><polygon fill="#181818" points="20,431.636,16,440.636,20,436.636,24,440.636,20,431.636" style="stroke:#181818;stroke-width:1.0;"/></g><!--link sensorAggregate to sensorFunctionalityAggregate--><g id="link_sensorAggregate_sensorFunctionalityAggregate"><path codeLine="42" d="M324.8788,538 C324.7962,538 324.7133,538 324.6301,538 C324.4637,538 324.2962,538 324.1278,538 C323.791,538 323.4505,538 323.1073,538 C321.7347,538 320.32,538 318.935,538 C313.395,538 308.33,538 308.33,538 C308.33,538 308.33,612 308.33,612 C308.33,612 182,612 182,612 C182,612 182,619.0406 182,629.7666 C182,635.1295 182,641.4138 182,648.2 C182,651.5931 182,655.1117 182,658.7034 C182,660.4992 182,662.3133 182,664.1391 C182,665.0519 182,665.9678 182,666.8857 C182,667.3447 182,667.8042 182,668.2641 C182,668.494 182,662.7241 182,662.9543 " fill="none" id="sensorAggregate-to-sensorFunctionalityAggregate" style="stroke:#181818;stroke-width:1.0;"/><polygon fill="#181818" points="182,668.9543,186,659.9543,182,663.9543,178,659.9543,182,668.9543" style="stroke:#181818;stroke-width:1.0;"/></g><!--reverse link houseAggregate to roomAggregate--><g id="link_houseAggregate_roomAggregate"><path codeLine="59" d="M333,127.1549 C333,135.6299 333,141.7334 333,150.6788 C333,152.9151 333,155.1512 333,157.3797 C333,158.4939 333,159.6063 333,160.7157 " fill="none" id="houseAggregate-backto-roomAggregate" style="stroke:#181818;stroke-width:1.0;"/><polygon fill="#181818" points="333,121.1549,329,130.1549,333,126.1549,337,130.1549,333,121.1549" style="stroke:#181818;stroke-width:1.0;"/></g><!--reverse link roomAggregate to deviceAggregate--><g id="link_roomAggregate_deviceAggregate"><path codeLine="60" d="M333,282.1549 C333,290.6299 333,296.7334 333,305.6788 C333,307.9151 333,310.1512 333,312.3797 C333,313.4939 333,314.6063 333,315.7157 " fill="none" id="roomAggregate-backto-deviceAggregate" style="stroke:#181818;stroke-width:1.0;"/><polygon fill="#181818" points="333,276.1549,329,285.1549,333,281.1549,337,285.1549,333,276.1549" style="stroke:#181818;stroke-width:1.0;"/></g><!--reverse link deviceAggregate to actuatorAggregate--><g id="link_deviceAggregate_actuatorAggregate"><path codeLine="61" d="M318.9971,383 C318.7256,383 324.0459,383 323.7653,383 C323.2042,383 322.6254,383 322.0313,383 C317.2781,383 311.5425,383 306.0075,383 C294.9375,383 284.67,383 284.67,383 C284.67,383 284.67,461 284.67,461 C284.67,461 64,461 64,461 C64,461 64,462.093 64,464.0185 C64,464.9812 64,466.1521 64,467.4986 C64,468.1718 64,468.889 64,469.6459 C64,470.0244 64,470.4128 64,470.8107 " fill="none" id="deviceAggregate-backto-actuatorAggregate" style="stroke:#181818;stroke-width:1.0;"/><polygon fill="#181818" points="324.9971,383,315.9971,379,319.9971,383,315.9971,387,324.9971,383" style="stroke:#181818;stroke-width:1.0;"/></g><!--reverse link deviceAggregate to sensorAggregate--><g id="link_deviceAggregate_sensorAggregate"><path codeLine="62" d="M333,437.1549 C333,445.6299 333,451.7334 333,460.6788 C333,462.9151 333,465.1512 333,467.3797 C333,468.4939 333,469.6063 333,470.7157 " fill="none" id="deviceAggregate-backto-sensorAggregate" style="stroke:#181818;stroke-width:1.0;"/><polygon fill="#181818" points="333,431.1549,329,440.1549,333,436.1549,337,440.1549,333,431.1549" style="stroke:#181818;stroke-width:1.0;"/></g><!--reverse link sensorAggregate to value--><g id="link_sensorAggregate_value"><path codeLine="63" d="M333,592.4507 C333,594.2653 333,591.4525 333,593.2896 C333,596.9638 333,600.6697 333,604.355 C333,633.8375 333,662 333,662 C333,662 370.5,662 408,662 C426.75,662 445.5,662 459.5625,662 C463.0781,662 466.3008,662 469.1572,662 C470.5854,662 471.9221,662 473.1581,662 C473.7761,662 474.3689,662 474.9353,662 " fill="none" id="sensorAggregate-backto-value" style="stroke:#181818;stroke-width:1.0;"/><polygon fill="#181818" points="333,586.4507,329,595.4507,333,591.4507,337,595.4507,333,586.4507" style="stroke:#181818;stroke-width:1.0;"/></g><!--SRC=[ZLDDQuGm4BtdL-JMa_LUoe9GIWizBDtI-pG63Qj9I2OBIzd_tgXPeb6h7aJoFkQDCtce4RLzodFTW4JNDezCjJbhmDgi550PQ8az2wd1Vz56I8vNpQaoM2j2Y0PsXefJerHRL9NX5I2dluJwfpUXdnwXpnx7mt1y8xUegvMpV5dura7hof9V18lIiVAbXzQbmD01AfFMXH-BneF1fWYqRQDN9naA9Q4HU5tkfbYY1cSwifvdovpE3XkbOYJBfTtixDIJ5gfFNNQqTPeJ5spJK9blwByICSW56XTcUpyIqg9VrI_HykyEJLOWPdjFYDDWGxZuljjhReGgjzsFKzu-yr7s3yMWwtnN3nib_2-UNi1XPwQNYoGt9f0cmjNrIxJpYIwo-ka5B54GyWS0]--></g></svg>