<?xml version="1.0" encoding="us-ascii" standalone="no"?><svg xmlns="http://www.w3.org/2000/svg" xmlns:xlink="http://www.w3.org/1999/xlink" contentStyleType="text/css" height="880px" preserveAspectRatio="none" style="width:4081px;height:880px;background:#FFFFFF;" version="1.1" viewBox="0 0 4081 880" width="4081px" zoomAndPan="magnify"><defs/><g><!--cluster houseAggregate--><g id="cluster_houseAggregate"><path d="M1744.5,558 L1861.5,558 A3.75,3.75 0 0 1 1864,560.5 L1871,580.4883 L2030.5,580.4883 A2.5,2.5 0 0 1 2033,582.9883 L2033,870.5 A2.5,2.5 0 0 1 2030.5,873 L1744.5,873 A2.5,2.5 0 0 1 1742,870.5 L1742,560.5 A2.5,2.5 0 0 1 1744.5,558 " fill="none" style="stroke:#000000;stroke-width:1.5;"/><line style="stroke:#000000;stroke-width:1.5;" x1="1742" x2="1871" y1="580.4883" y2="580.4883"/><text fill="#000000" font-family="sans-serif" font-size="14" font-weight="bold" lengthAdjust="spacing" textLength="116" x="1746" y="573.5352">houseAggregate</text></g><!--cluster roomAggregate--><g id="cluster_roomAggregate"><path d="M1377.5,419 L1489.5,419 A3.75,3.75 0 0 1 1492,421.5 L1499,441.4883 L1715.5,441.4883 A2.5,2.5 0 0 1 1718,443.9883 L1718,762.5 A2.5,2.5 0 0 1 1715.5,765 L1377.5,765 A2.5,2.5 0 0 1 1375,762.5 L1375,421.5 A2.5,2.5 0 0 1 1377.5,419 " fill="none" style="stroke:#000000;stroke-width:1.5;"/><line style="stroke:#000000;stroke-width:1.5;" x1="1375" x2="1499" y1="441.4883" y2="441.4883"/><text fill="#000000" font-family="sans-serif" font-size="14" font-weight="bold" lengthAdjust="spacing" textLength="111" x="1379" y="434.5352">roomAggregate</text></g><!--cluster deviceAggregate--><g id="cluster_deviceAggregate"><path d="M1052.5,237 L1171.5,237 A3.75,3.75 0 0 1 1174,239.5 L1181,259.4883 L1348.5,259.4883 A2.5,2.5 0 0 1 1351,261.9883 L1351,515.5 A2.5,2.5 0 0 1 1348.5,518 L1052.5,518 A2.5,2.5 0 0 1 1050,515.5 L1050,239.5 A2.5,2.5 0 0 1 1052.5,237 " fill="none" style="stroke:#000000;stroke-width:1.5;"/><line style="stroke:#000000;stroke-width:1.5;" x1="1050" x2="1181" y1="259.4883" y2="259.4883"/><text fill="#000000" font-family="sans-serif" font-size="14" font-weight="bold" lengthAdjust="spacing" textLength="118" x="1054" y="252.5352">deviceAggregate</text></g><!--cluster actuatorAggregate--><g id="cluster_actuatorAggregate"><path d="M8.5,129 L141.5,129 A3.75,3.75 0 0 1 144,131.5 L151,151.4883 L1023.5,151.4883 A2.5,2.5 0 0 1 1026,153.9883 L1026,515.5 A2.5,2.5 0 0 1 1023.5,518 L8.5,518 A2.5,2.5 0 0 1 6,515.5 L6,131.5 A2.5,2.5 0 0 1 8.5,129 " fill="none" style="stroke:#000000;stroke-width:1.5;"/><line style="stroke:#000000;stroke-width:1.5;" x1="6" x2="151" y1="151.4883" y2="151.4883"/><text fill="#000000" font-family="sans-serif" font-size="14" font-weight="bold" lengthAdjust="spacing" textLength="132" x="10" y="144.5352">actuatorAggregate</text></g><!--cluster actuatorFunctionalityAggregate--><g id="cluster_actuatorFunctionalityAggregate"><path d="M502.5,6 L729.5,6 A3.75,3.75 0 0 1 732,8.5 L739,28.4883 L739.5,28.4883 A2.5,2.5 0 0 1 742,30.9883 L742,102.5 A2.5,2.5 0 0 1 739.5,105 L502.5,105 A2.5,2.5 0 0 1 500,102.5 L500,8.5 A2.5,2.5 0 0 1 502.5,6 " fill="none" style="stroke:#000000;stroke-width:1.5;"/><line style="stroke:#000000;stroke-width:1.5;" x1="500" x2="739" y1="28.4883" y2="28.4883"/><text fill="#000000" font-family="sans-serif" font-size="14" font-weight="bold" lengthAdjust="spacing" textLength="226" x="504" y="21.5352">actuatorFunctionalityAggregate</text></g><!--cluster sensorAggregate--><g id="cluster_sensorAggregate"><path d="M1377.5,129 L1499.5,129 A3.75,3.75 0 0 1 1502,131.5 L1509,151.4883 L4071.5,151.4883 A2.5,2.5 0 0 1 4074,153.9883 L4074,333.5 A2.5,2.5 0 0 1 4071.5,336 L1377.5,336 A2.5,2.5 0 0 1 1375,333.5 L1375,131.5 A2.5,2.5 0 0 1 1377.5,129 " fill="none" style="stroke:#000000;stroke-width:1.5;"/><line style="stroke:#000000;stroke-width:1.5;" x1="1375" x2="1509" y1="151.4883" y2="151.4883"/><text fill="#000000" font-family="sans-serif" font-size="14" font-weight="bold" lengthAdjust="spacing" textLength="121" x="1379" y="144.5352">sensorAggregate</text></g><!--cluster sensorFunctionalityAggregate--><g id="cluster_sensorFunctionalityAggregate"><path d="M2452.5,6 L2668.5,6 A3.75,3.75 0 0 1 2671,8.5 L2678,28.4883 L2678.5,28.4883 A2.5,2.5 0 0 1 2681,30.9883 L2681,102.5 A2.5,2.5 0 0 1 2678.5,105 L2452.5,105 A2.5,2.5 0 0 1 2450,102.5 L2450,8.5 A2.5,2.5 0 0 1 2452.5,6 " fill="none" style="stroke:#000000;stroke-width:1.5;"/><line style="stroke:#000000;stroke-width:1.5;" x1="2450" x2="2678" y1="28.4883" y2="28.4883"/><text fill="#000000" font-family="sans-serif" font-size="14" font-weight="bold" lengthAdjust="spacing" textLength="215" x="2454" y="21.5352">sensorFunctionalityAggregate</text></g><!--cluster value--><g id="cluster_value"><path d="M2269.5,360 L2308.5,360 A3.75,3.75 0 0 1 2311,362.5 L2318,382.4883 L3199.5,382.4883 A2.5,2.5 0 0 1 3202,384.9883 L3202,654.5 A2.5,2.5 0 0 1 3199.5,657 L2269.5,657 A2.5,2.5 0 0 1 2267,654.5 L2267,362.5 A2.5,2.5 0 0 1 2269.5,360 " fill="none" style="stroke:#000000;stroke-width:1.5;"/><line style="stroke:#000000;stroke-width:1.5;" x1="2267" x2="2318" y1="382.4883" y2="382.4883"/><text fill="#000000" font-family="sans-serif" font-size="14" font-weight="bold" lengthAdjust="spacing" textLength="38" x="2271" y="375.5352">value</text></g><!--cluster InstantTimeValue--><g id="cluster_InstantTimeValue"><path d="M2927.5,411 L3056.5,411 A3.75,3.75 0 0 1 3059,413.5 L3066,433.4883 L3167.5,433.4883 A2.5,2.5 0 0 1 3170,435.9883 L3170,523.5 A2.5,2.5 0 0 1 3167.5,526 L2927.5,526 A2.5,2.5 0 0 1 2925,523.5 L2925,413.5 A2.5,2.5 0 0 1 2927.5,411 " fill="none" style="stroke:#000000;stroke-width:1.5;"/><line style="stroke:#000000;stroke-width:1.5;" x1="2925" x2="3066" y1="433.4883" y2="433.4883"/><text fill="#000000" font-family="sans-serif" font-size="14" font-weight="bold" lengthAdjust="spacing" textLength="128" x="2929" y="426.5352">InstantTimeValue</text></g><!--cluster PeriodTimeValue--><g id="cluster_PeriodTimeValue"><path d="M2301.5,411 L2425.5,411 A3.75,3.75 0 0 1 2428,413.5 L2435,433.4883 L2539.5,433.4883 A2.5,2.5 0 0 1 2542,435.9883 L2542,523.5 A2.5,2.5 0 0 1 2539.5,526 L2301.5,526 A2.5,2.5 0 0 1 2299,523.5 L2299,413.5 A2.5,2.5 0 0 1 2301.5,411 " fill="none" style="stroke:#000000;stroke-width:1.5;"/><line style="stroke:#000000;stroke-width:1.5;" x1="2299" x2="2435" y1="433.4883" y2="433.4883"/><text fill="#000000" font-family="sans-serif" font-size="14" font-weight="bold" lengthAdjust="spacing" textLength="123" x="2303" y="426.5352">PeriodTimeValue</text></g><!--cluster InstantTimeLocationValue--><g id="cluster_InstantTimeLocationValue"><path d="M2584.5,411 L2774.5,411 A3.75,3.75 0 0 1 2777,413.5 L2784,433.4883 L2882.5,433.4883 A2.5,2.5 0 0 1 2885,435.9883 L2885,523.5 A2.5,2.5 0 0 1 2882.5,526 L2584.5,526 A2.5,2.5 0 0 1 2582,523.5 L2582,413.5 A2.5,2.5 0 0 1 2584.5,411 " fill="none" style="stroke:#000000;stroke-width:1.5;"/><line style="stroke:#000000;stroke-width:1.5;" x1="2582" x2="2784" y1="433.4883" y2="433.4883"/><text fill="#000000" font-family="sans-serif" font-size="14" font-weight="bold" lengthAdjust="spacing" textLength="189" x="2586" y="426.5352">InstantTimeLocationValue</text></g><!--class House--><g id="elem_House"><rect codeLine="5" fill="#F1F1F1" height="48" id="House" rx="2.5" ry="2.5" style="stroke:#181818;stroke-width:0.5;" width="102" x="1760" y="593"/><ellipse cx="1775" cy="609" fill="#ADD1B2" rx="11" ry="11" style="stroke:#181818;stroke-width:1.0;"/><path d="M1777.9731,614.6431 Q1777.3921,614.9419 1776.7529,615.0913 Q1776.1138,615.2407 1775.4082,615.2407 Q1772.9014,615.2407 1771.5815,613.5889 Q1770.2617,611.937 1770.2617,608.8159 Q1770.2617,605.6865 1771.5815,604.0347 Q1772.9014,602.3828 1775.4082,602.3828 Q1776.1138,602.3828 1776.7612,602.5322 Q1777.4087,602.6816 1777.9731,602.9805 L1777.9731,605.7031 Q1777.3423,605.1221 1776.7488,604.8523 Q1776.1553,604.5825 1775.5244,604.5825 Q1774.1797,604.5825 1773.4949,605.6492 Q1772.8101,606.7158 1772.8101,608.8159 Q1772.8101,610.9077 1773.4949,611.9744 Q1774.1797,613.041 1775.5244,613.041 Q1776.1553,613.041 1776.7488,612.7712 Q1777.3423,612.5015 1777.9731,611.9204 Z " fill="#000000"/><text fill="#000000" font-family="sans-serif" font-size="14" lengthAdjust="spacing" textLength="43" x="1789" y="614.291">House</text><rect fill="#FFFFFF" height="16.1328" style="stroke:#181818;stroke-width:1.0;stroke-dasharray:2.0,2.0;" width="25" x="1840" y="590"/><text fill="#000000" font-family="sans-serif" font-size="12" font-style="italic" lengthAdjust="spacing" textLength="23" x="1841" y="602.6016">root</text><line style="stroke:#181818;stroke-width:0.5;" x1="1761" x2="1861" y1="625" y2="625"/><line style="stroke:#181818;stroke-width:0.5;" x1="1761" x2="1861" y1="633" y2="633"/></g><!--class Location--><g id="elem_Location"><rect codeLine="7" fill="#F1F1F1" height="48" id="Location" rx="2.5" ry="2.5" style="stroke:#181818;stroke-width:0.5;" width="111" x="1758.5" y="701"/><ellipse cx="1773.5" cy="717" fill="#ADD1B2" rx="11" ry="11" style="stroke:#181818;stroke-width:1.0;"/><path d="M1776.4731,722.6431 Q1775.8921,722.9419 1775.2529,723.0913 Q1774.6138,723.2407 1773.9082,723.2407 Q1771.4014,723.2407 1770.0815,721.5889 Q1768.7617,719.937 1768.7617,716.8159 Q1768.7617,713.6865 1770.0815,712.0347 Q1771.4014,710.3828 1773.9082,710.3828 Q1774.6138,710.3828 1775.2612,710.5322 Q1775.9087,710.6816 1776.4731,710.9805 L1776.4731,713.7031 Q1775.8423,713.1221 1775.2488,712.8523 Q1774.6553,712.5825 1774.0244,712.5825 Q1772.6797,712.5825 1771.9949,713.6492 Q1771.3101,714.7158 1771.3101,716.8159 Q1771.3101,718.9077 1771.9949,719.9744 Q1772.6797,721.041 1774.0244,721.041 Q1774.6553,721.041 1775.2488,720.7712 Q1775.8423,720.5015 1776.4731,719.9204 Z " fill="#000000"/><text fill="#000000" font-family="sans-serif" font-size="14" lengthAdjust="spacing" textLength="58" x="1787.5" y="722.291">Location</text><rect fill="#FFFFFF" height="16.1328" style="stroke:#181818;stroke-width:1.0;stroke-dasharray:2.0,2.0;" width="19" x="1853.5" y="698"/><text fill="#000000" font-family="sans-serif" font-size="12" font-style="italic" lengthAdjust="spacing" textLength="17" x="1854.5" y="710.6016">VO</text><line style="stroke:#181818;stroke-width:0.5;" x1="1759.5" x2="1868.5" y1="733" y2="733"/><line style="stroke:#181818;stroke-width:0.5;" x1="1759.5" x2="1868.5" y1="741" y2="741"/></g><!--class Address--><g id="elem_Address"><rect codeLine="9" fill="#F1F1F1" height="48" id="Address" rx="2.5" ry="2.5" style="stroke:#181818;stroke-width:0.5;" width="109" x="1758.5" y="809"/><ellipse cx="1773.5" cy="825" fill="#ADD1B2" rx="11" ry="11" style="stroke:#181818;stroke-width:1.0;"/><path d="M1776.4731,830.6431 Q1775.8921,830.9419 1775.2529,831.0913 Q1774.6138,831.2407 1773.9082,831.2407 Q1771.4014,831.2407 1770.0815,829.5889 Q1768.7617,827.937 1768.7617,824.8159 Q1768.7617,821.6865 1770.0815,820.0347 Q1771.4014,818.3828 1773.9082,818.3828 Q1774.6138,818.3828 1775.2612,818.5322 Q1775.9087,818.6816 1776.4731,818.9805 L1776.4731,821.7031 Q1775.8423,821.1221 1775.2488,820.8523 Q1774.6553,820.5825 1774.0244,820.5825 Q1772.6797,820.5825 1771.9949,821.6492 Q1771.3101,822.7158 1771.3101,824.8159 Q1771.3101,826.9077 1771.9949,827.9744 Q1772.6797,829.041 1774.0244,829.041 Q1774.6553,829.041 1775.2488,828.7712 Q1775.8423,828.5015 1776.4731,827.9204 Z " fill="#000000"/><text fill="#000000" font-family="sans-serif" font-size="14" lengthAdjust="spacing" textLength="56" x="1787.5" y="830.291">Address</text><rect fill="#FFFFFF" height="16.1328" style="stroke:#181818;stroke-width:1.0;stroke-dasharray:2.0,2.0;" width="19" x="1851.5" y="806"/><text fill="#000000" font-family="sans-serif" font-size="12" font-style="italic" lengthAdjust="spacing" textLength="17" x="1852.5" y="818.6016">VO</text><line style="stroke:#181818;stroke-width:0.5;" x1="1759.5" x2="1866.5" y1="841" y2="841"/><line style="stroke:#181818;stroke-width:0.5;" x1="1759.5" x2="1866.5" y1="849" y2="849"/></g><!--class GPSCode--><g id="elem_GPSCode"><rect codeLine="11" fill="#F1F1F1" height="48" id="GPSCode" rx="2.5" ry="2.5" style="stroke:#181818;stroke-width:0.5;" width="115" x="1902.5" y="809"/><ellipse cx="1917.5" cy="825" fill="#ADD1B2" rx="11" ry="11" style="stroke:#181818;stroke-width:1.0;"/><path d="M1920.4731,830.6431 Q1919.8921,830.9419 1919.2529,831.0913 Q1918.6138,831.2407 1917.9082,831.2407 Q1915.4014,831.2407 1914.0815,829.5889 Q1912.7617,827.937 1912.7617,824.8159 Q1912.7617,821.6865 1914.0815,820.0347 Q1915.4014,818.3828 1917.9082,818.3828 Q1918.6138,818.3828 1919.2612,818.5322 Q1919.9087,818.6816 1920.4731,818.9805 L1920.4731,821.7031 Q1919.8423,821.1221 1919.2488,820.8523 Q1918.6553,820.5825 1918.0244,820.5825 Q1916.6797,820.5825 1915.9949,821.6492 Q1915.3101,822.7158 1915.3101,824.8159 Q1915.3101,826.9077 1915.9949,827.9744 Q1916.6797,829.041 1918.0244,829.041 Q1918.6553,829.041 1919.2488,828.7712 Q1919.8423,828.5015 1920.4731,827.9204 Z " fill="#000000"/><text fill="#000000" font-family="sans-serif" font-size="14" lengthAdjust="spacing" textLength="62" x="1931.5" y="830.291">GPSCode</text><rect fill="#FFFFFF" height="16.1328" style="stroke:#181818;stroke-width:1.0;stroke-dasharray:2.0,2.0;" width="19" x="2001.5" y="806"/><text fill="#000000" font-family="sans-serif" font-size="12" font-style="italic" lengthAdjust="spacing" textLength="17" x="2002.5" y="818.6016">VO</text><line style="stroke:#181818;stroke-width:0.5;" x1="1903.5" x2="2016.5" y1="841" y2="841"/><line style="stroke:#181818;stroke-width:0.5;" x1="1903.5" x2="2016.5" y1="849" y2="849"/></g><!--class Room--><g id="elem_Room"><rect codeLine="20" fill="#F1F1F1" height="48" id="Room" rx="2.5" ry="2.5" style="stroke:#181818;stroke-width:0.5;" width="99" x="1500.5" y="454"/><ellipse cx="1515.5" cy="470" fill="#ADD1B2" rx="11" ry="11" style="stroke:#181818;stroke-width:1.0;"/><path d="M1518.4731,475.6431 Q1517.8921,475.9419 1517.2529,476.0913 Q1516.6138,476.2407 1515.9082,476.2407 Q1513.4014,476.2407 1512.0815,474.5889 Q1510.7617,472.937 1510.7617,469.8159 Q1510.7617,466.6865 1512.0815,465.0347 Q1513.4014,463.3828 1515.9082,463.3828 Q1516.6138,463.3828 1517.2612,463.5322 Q1517.9087,463.6816 1518.4731,463.9805 L1518.4731,466.7031 Q1517.8423,466.1221 1517.2488,465.8523 Q1516.6553,465.5825 1516.0244,465.5825 Q1514.6797,465.5825 1513.9949,466.6492 Q1513.3101,467.7158 1513.3101,469.8159 Q1513.3101,471.9077 1513.9949,472.9744 Q1514.6797,474.041 1516.0244,474.041 Q1516.6553,474.041 1517.2488,473.7712 Q1517.8423,473.5015 1518.4731,472.9204 Z " fill="#000000"/><text fill="#000000" font-family="sans-serif" font-size="14" lengthAdjust="spacing" textLength="40" x="1529.5" y="475.291">Room</text><rect fill="#FFFFFF" height="16.1328" style="stroke:#181818;stroke-width:1.0;stroke-dasharray:2.0,2.0;" width="25" x="1577.5" y="451"/><text fill="#000000" font-family="sans-serif" font-size="12" font-style="italic" lengthAdjust="spacing" textLength="23" x="1578.5" y="463.6016">root</text><line style="stroke:#181818;stroke-width:0.5;" x1="1501.5" x2="1598.5" y1="486" y2="486"/><line style="stroke:#181818;stroke-width:0.5;" x1="1501.5" x2="1598.5" y1="494" y2="494"/></g><!--class FloorNumber--><g id="elem_FloorNumber"><rect codeLine="22" fill="#F1F1F1" height="48" id="FloorNumber" rx="2.5" ry="2.5" style="stroke:#181818;stroke-width:0.5;" width="144" x="1391" y="701"/><ellipse cx="1406" cy="717" fill="#ADD1B2" rx="11" ry="11" style="stroke:#181818;stroke-width:1.0;"/><path d="M1408.9731,722.6431 Q1408.3921,722.9419 1407.7529,723.0913 Q1407.1138,723.2407 1406.4082,723.2407 Q1403.9014,723.2407 1402.5815,721.5889 Q1401.2617,719.937 1401.2617,716.8159 Q1401.2617,713.6865 1402.5815,712.0347 Q1403.9014,710.3828 1406.4082,710.3828 Q1407.1138,710.3828 1407.7612,710.5322 Q1408.4087,710.6816 1408.9731,710.9805 L1408.9731,713.7031 Q1408.3423,713.1221 1407.7488,712.8523 Q1407.1553,712.5825 1406.5244,712.5825 Q1405.1797,712.5825 1404.4949,713.6492 Q1403.8101,714.7158 1403.8101,716.8159 Q1403.8101,718.9077 1404.4949,719.9744 Q1405.1797,721.041 1406.5244,721.041 Q1407.1553,721.041 1407.7488,720.7712 Q1408.3423,720.5015 1408.9731,719.9204 Z " fill="#000000"/><text fill="#000000" font-family="sans-serif" font-size="14" lengthAdjust="spacing" textLength="91" x="1420" y="722.291">FloorNumber</text><rect fill="#FFFFFF" height="16.1328" style="stroke:#181818;stroke-width:1.0;stroke-dasharray:2.0,2.0;" width="19" x="1519" y="698"/><text fill="#000000" font-family="sans-serif" font-size="12" font-style="italic" lengthAdjust="spacing" textLength="17" x="1520" y="710.6016">VO</text><line style="stroke:#181818;stroke-width:0.5;" x1="1392" x2="1534" y1="733" y2="733"/><line style="stroke:#181818;stroke-width:0.5;" x1="1392" x2="1534" y1="741" y2="741"/></g><!--class Dimensions--><g id="elem_Dimensions"><rect codeLine="24" fill="#F1F1F1" height="48" id="Dimensions" rx="2.5" ry="2.5" style="stroke:#181818;stroke-width:0.5;" width="133" x="1569.5" y="701"/><ellipse cx="1584.5" cy="717" fill="#ADD1B2" rx="11" ry="11" style="stroke:#181818;stroke-width:1.0;"/><path d="M1587.4731,722.6431 Q1586.8921,722.9419 1586.2529,723.0913 Q1585.6138,723.2407 1584.9082,723.2407 Q1582.4014,723.2407 1581.0815,721.5889 Q1579.7617,719.937 1579.7617,716.8159 Q1579.7617,713.6865 1581.0815,712.0347 Q1582.4014,710.3828 1584.9082,710.3828 Q1585.6138,710.3828 1586.2612,710.5322 Q1586.9087,710.6816 1587.4731,710.9805 L1587.4731,713.7031 Q1586.8423,713.1221 1586.2488,712.8523 Q1585.6553,712.5825 1585.0244,712.5825 Q1583.6797,712.5825 1582.9949,713.6492 Q1582.3101,714.7158 1582.3101,716.8159 Q1582.3101,718.9077 1582.9949,719.9744 Q1583.6797,721.041 1585.0244,721.041 Q1585.6553,721.041 1586.2488,720.7712 Q1586.8423,720.5015 1587.4731,719.9204 Z " fill="#000000"/><text fill="#000000" font-family="sans-serif" font-size="14" lengthAdjust="spacing" textLength="80" x="1598.5" y="722.291">Dimensions</text><rect fill="#FFFFFF" height="16.1328" style="stroke:#181818;stroke-width:1.0;stroke-dasharray:2.0,2.0;" width="19" x="1686.5" y="698"/><text fill="#000000" font-family="sans-serif" font-size="12" font-style="italic" lengthAdjust="spacing" textLength="17" x="1687.5" y="710.6016">VO</text><line style="stroke:#181818;stroke-width:0.5;" x1="1570.5" x2="1701.5" y1="733" y2="733"/><line style="stroke:#181818;stroke-width:0.5;" x1="1570.5" x2="1701.5" y1="741" y2="741"/></g><!--class Device--><g id="elem_Device"><rect codeLine="34" fill="#F1F1F1" height="48" id="Device" rx="2.5" ry="2.5" style="stroke:#181818;stroke-width:0.5;" width="103" x="1213.5" y="272"/><ellipse cx="1228.5" cy="288" fill="#ADD1B2" rx="11" ry="11" style="stroke:#181818;stroke-width:1.0;"/><path d="M1231.4731,293.6431 Q1230.8921,293.9419 1230.2529,294.0913 Q1229.6138,294.2407 1228.9082,294.2407 Q1226.4014,294.2407 1225.0815,292.5889 Q1223.7617,290.937 1223.7617,287.8159 Q1223.7617,284.6865 1225.0815,283.0347 Q1226.4014,281.3828 1228.9082,281.3828 Q1229.6138,281.3828 1230.2612,281.5322 Q1230.9087,281.6816 1231.4731,281.9805 L1231.4731,284.7031 Q1230.8423,284.1221 1230.2488,283.8523 Q1229.6553,283.5825 1229.0244,283.5825 Q1227.6797,283.5825 1226.9949,284.6492 Q1226.3101,285.7158 1226.3101,287.8159 Q1226.3101,289.9077 1226.9949,290.9744 Q1227.6797,292.041 1229.0244,292.041 Q1229.6553,292.041 1230.2488,291.7712 Q1230.8423,291.5015 1231.4731,290.9204 Z " fill="#000000"/><text fill="#000000" font-family="sans-serif" font-size="14" lengthAdjust="spacing" textLength="44" x="1242.5" y="293.291">Device</text><rect fill="#FFFFFF" height="16.1328" style="stroke:#181818;stroke-width:1.0;stroke-dasharray:2.0,2.0;" width="25" x="1294.5" y="269"/><text fill="#000000" font-family="sans-serif" font-size="12" font-style="italic" lengthAdjust="spacing" textLength="23" x="1295.5" y="281.6016">root</text><line style="stroke:#181818;stroke-width:0.5;" x1="1214.5" x2="1315.5" y1="304" y2="304"/><line style="stroke:#181818;stroke-width:0.5;" x1="1214.5" x2="1315.5" y1="312" y2="312"/></g><!--class Model--><g id="elem_Model"><rect codeLine="36" fill="#F1F1F1" height="48" id="Model" rx="2.5" ry="2.5" style="stroke:#181818;stroke-width:0.5;" width="95" x="1065.5" y="454"/><ellipse cx="1080.5" cy="470" fill="#ADD1B2" rx="11" ry="11" style="stroke:#181818;stroke-width:1.0;"/><path d="M1083.4731,475.6431 Q1082.8921,475.9419 1082.2529,476.0913 Q1081.6138,476.2407 1080.9082,476.2407 Q1078.4014,476.2407 1077.0815,474.5889 Q1075.7617,472.937 1075.7617,469.8159 Q1075.7617,466.6865 1077.0815,465.0347 Q1078.4014,463.3828 1080.9082,463.3828 Q1081.6138,463.3828 1082.2612,463.5322 Q1082.9087,463.6816 1083.4731,463.9805 L1083.4731,466.7031 Q1082.8423,466.1221 1082.2488,465.8523 Q1081.6553,465.5825 1081.0244,465.5825 Q1079.6797,465.5825 1078.9949,466.6492 Q1078.3101,467.7158 1078.3101,469.8159 Q1078.3101,471.9077 1078.9949,472.9744 Q1079.6797,474.041 1081.0244,474.041 Q1081.6553,474.041 1082.2488,473.7712 Q1082.8423,473.5015 1083.4731,472.9204 Z " fill="#000000"/><text fill="#000000" font-family="sans-serif" font-size="14" lengthAdjust="spacing" textLength="42" x="1094.5" y="475.291">Model</text><rect fill="#FFFFFF" height="16.1328" style="stroke:#181818;stroke-width:1.0;stroke-dasharray:2.0,2.0;" width="19" x="1144.5" y="451"/><text fill="#000000" font-family="sans-serif" font-size="12" font-style="italic" lengthAdjust="spacing" textLength="17" x="1145.5" y="463.6016">VO</text><line style="stroke:#181818;stroke-width:0.5;" x1="1066.5" x2="1159.5" y1="486" y2="486"/><line style="stroke:#181818;stroke-width:0.5;" x1="1066.5" x2="1159.5" y1="494" y2="494"/></g><!--class DeviceStatus--><g id="elem_DeviceStatus"><rect codeLine="38" fill="#F1F1F1" height="48" id="DeviceStatus" rx="2.5" ry="2.5" style="stroke:#181818;stroke-width:0.5;" width="139" x="1195.5" y="454"/><ellipse cx="1210.5" cy="470" fill="#EB937F" rx="11" ry="11" style="stroke:#181818;stroke-width:1.0;"/><path d="M1214.6143,476 L1206.8945,476 L1206.8945,463.6069 L1214.6143,463.6069 L1214.6143,465.7651 L1209.3433,465.7651 L1209.3433,468.438 L1214.1162,468.438 L1214.1162,470.5962 L1209.3433,470.5962 L1209.3433,473.8418 L1214.6143,473.8418 Z " fill="#000000"/><text fill="#000000" font-family="sans-serif" font-size="14" lengthAdjust="spacing" textLength="86" x="1224.5" y="475.291">DeviceStatus</text><rect fill="#FFFFFF" height="16.1328" style="stroke:#181818;stroke-width:1.0;stroke-dasharray:2.0,2.0;" width="19" x="1318.5" y="451"/><text fill="#000000" font-family="sans-serif" font-size="12" font-style="italic" lengthAdjust="spacing" textLength="17" x="1319.5" y="463.6016">VO</text><line style="stroke:#181818;stroke-width:0.5;" x1="1196.5" x2="1333.5" y1="486" y2="486"/><line style="stroke:#181818;stroke-width:0.5;" x1="1196.5" x2="1333.5" y1="494" y2="494"/></g><!--class Actuator--><g id="elem_Actuator"><rect codeLine="48" fill="#F1F1F1" height="48" id="Actuator" rx="2.5" ry="2.5" style="stroke:#181818;stroke-width:0.5;" width="118" x="562" y="164"/><ellipse cx="577" cy="180" fill="#A9DCDF" rx="11" ry="11" style="stroke:#181818;stroke-width:1.0;"/><path d="M577.1133,175.3481 L575.9595,180.4199 L578.2754,180.4199 Z M575.6191,173.1069 L578.6157,173.1069 L581.9609,185.5 L579.5122,185.5 L578.7485,182.437 L575.4697,182.437 L574.7227,185.5 L572.2739,185.5 Z " fill="#000000"/><text fill="#000000" font-family="sans-serif" font-size="14" font-style="italic" lengthAdjust="spacing" textLength="59" x="591" y="185.291">Actuator</text><rect fill="#FFFFFF" height="16.1328" style="stroke:#181818;stroke-width:1.0;stroke-dasharray:2.0,2.0;" width="25" x="658" y="161"/><text fill="#000000" font-family="sans-serif" font-size="12" font-style="italic" lengthAdjust="spacing" textLength="23" x="659" y="173.6016">root</text><line style="stroke:#181818;stroke-width:0.5;" x1="563" x2="679" y1="196" y2="196"/><line style="stroke:#181818;stroke-width:0.5;" x1="563" x2="679" y1="204" y2="204"/></g><!--class BlindSetterActuator--><g id="elem_BlindSetterActuator"><rect codeLine="51" fill="#F1F1F1" height="48" id="BlindSetterActuator" rx="2.5" ry="2.5" style="stroke:#181818;stroke-width:0.5;" width="165" x="844.5" y="272"/><ellipse cx="859.5" cy="288" fill="#ADD1B2" rx="11" ry="11" style="stroke:#181818;stroke-width:1.0;"/><path d="M862.4731,293.6431 Q861.8921,293.9419 861.2529,294.0913 Q860.6138,294.2407 859.9082,294.2407 Q857.4014,294.2407 856.0815,292.5889 Q854.7617,290.937 854.7617,287.8159 Q854.7617,284.6865 856.0815,283.0347 Q857.4014,281.3828 859.9082,281.3828 Q860.6138,281.3828 861.2612,281.5322 Q861.9087,281.6816 862.4731,281.9805 L862.4731,284.7031 Q861.8423,284.1221 861.2488,283.8523 Q860.6553,283.5825 860.0244,283.5825 Q858.6797,283.5825 857.9949,284.6492 Q857.3101,285.7158 857.3101,287.8159 Q857.3101,289.9077 857.9949,290.9744 Q858.6797,292.041 860.0244,292.041 Q860.6553,292.041 861.2488,291.7712 Q861.8423,291.5015 862.4731,290.9204 Z " fill="#000000"/><text fill="#000000" font-family="sans-serif" font-size="14" lengthAdjust="spacing" textLength="133" x="873.5" y="293.291">BlindSetterActuator</text><line style="stroke:#181818;stroke-width:0.5;" x1="845.5" x2="1008.5" y1="304" y2="304"/><line style="stroke:#181818;stroke-width:0.5;" x1="845.5" x2="1008.5" y1="312" y2="312"/></g><!--class DecimalSetterActuator--><g id="elem_DecimalSetterActuator"><rect codeLine="54" fill="#F1F1F1" height="48" id="DecimalSetterActuator" rx="2.5" ry="2.5" style="stroke:#181818;stroke-width:0.5;" width="185" x="21.5" y="272"/><ellipse cx="36.5" cy="288" fill="#ADD1B2" rx="11" ry="11" style="stroke:#181818;stroke-width:1.0;"/><path d="M39.4731,293.6431 Q38.8921,293.9419 38.2529,294.0913 Q37.6138,294.2407 36.9082,294.2407 Q34.4014,294.2407 33.0815,292.5889 Q31.7617,290.937 31.7617,287.8159 Q31.7617,284.6865 33.0815,283.0347 Q34.4014,281.3828 36.9082,281.3828 Q37.6138,281.3828 38.2612,281.5322 Q38.9087,281.6816 39.4731,281.9805 L39.4731,284.7031 Q38.8423,284.1221 38.2488,283.8523 Q37.6553,283.5825 37.0244,283.5825 Q35.6797,283.5825 34.9949,284.6492 Q34.3101,285.7158 34.3101,287.8159 Q34.3101,289.9077 34.9949,290.9744 Q35.6797,292.041 37.0244,292.041 Q37.6553,292.041 38.2488,291.7712 Q38.8423,291.5015 39.4731,290.9204 Z " fill="#000000"/><text fill="#000000" font-family="sans-serif" font-size="14" lengthAdjust="spacing" textLength="153" x="50.5" y="293.291">DecimalSetterActuator</text><line style="stroke:#181818;stroke-width:0.5;" x1="22.5" x2="205.5" y1="304" y2="304"/><line style="stroke:#181818;stroke-width:0.5;" x1="22.5" x2="205.5" y1="312" y2="312"/></g><!--class IntegerSetterActuator--><g id="elem_IntegerSetterActuator"><rect codeLine="57" fill="#F1F1F1" height="48" id="IntegerSetterActuator" rx="2.5" ry="2.5" style="stroke:#181818;stroke-width:0.5;" width="180" x="241" y="272"/><ellipse cx="256" cy="288" fill="#ADD1B2" rx="11" ry="11" style="stroke:#181818;stroke-width:1.0;"/><path d="M258.9731,293.6431 Q258.3921,293.9419 257.7529,294.0913 Q257.1138,294.2407 256.4082,294.2407 Q253.9014,294.2407 252.5815,292.5889 Q251.2617,290.937 251.2617,287.8159 Q251.2617,284.6865 252.5815,283.0347 Q253.9014,281.3828 256.4082,281.3828 Q257.1138,281.3828 257.7612,281.5322 Q258.4087,281.6816 258.9731,281.9805 L258.9731,284.7031 Q258.3423,284.1221 257.7488,283.8523 Q257.1553,283.5825 256.5244,283.5825 Q255.1797,283.5825 254.4949,284.6492 Q253.8101,285.7158 253.8101,287.8159 Q253.8101,289.9077 254.4949,290.9744 Q255.1797,292.041 256.5244,292.041 Q257.1553,292.041 257.7488,291.7712 Q258.3423,291.5015 258.9731,290.9204 Z " fill="#000000"/><text fill="#000000" font-family="sans-serif" font-size="14" lengthAdjust="spacing" textLength="148" x="270" y="293.291">IntegerSetterActuator</text><line style="stroke:#181818;stroke-width:0.5;" x1="242" x2="420" y1="304" y2="304"/><line style="stroke:#181818;stroke-width:0.5;" x1="242" x2="420" y1="312" y2="312"/></g><!--class SwitchActuator--><g id="elem_SwitchActuator"><rect codeLine="60" fill="#F1F1F1" height="48" id="SwitchActuator" rx="2.5" ry="2.5" style="stroke:#181818;stroke-width:0.5;" width="135" x="456.5" y="272"/><ellipse cx="471.5" cy="288" fill="#ADD1B2" rx="11" ry="11" style="stroke:#181818;stroke-width:1.0;"/><path d="M474.4731,293.6431 Q473.8921,293.9419 473.2529,294.0913 Q472.6138,294.2407 471.9082,294.2407 Q469.4014,294.2407 468.0815,292.5889 Q466.7617,290.937 466.7617,287.8159 Q466.7617,284.6865 468.0815,283.0347 Q469.4014,281.3828 471.9082,281.3828 Q472.6138,281.3828 473.2612,281.5322 Q473.9087,281.6816 474.4731,281.9805 L474.4731,284.7031 Q473.8423,284.1221 473.2488,283.8523 Q472.6553,283.5825 472.0244,283.5825 Q470.6797,283.5825 469.9949,284.6492 Q469.3101,285.7158 469.3101,287.8159 Q469.3101,289.9077 469.9949,290.9744 Q470.6797,292.041 472.0244,292.041 Q472.6553,292.041 473.2488,291.7712 Q473.8423,291.5015 474.4731,290.9204 Z " fill="#000000"/><text fill="#000000" font-family="sans-serif" font-size="14" lengthAdjust="spacing" textLength="103" x="485.5" y="293.291">SwitchActuator</text><line style="stroke:#181818;stroke-width:0.5;" x1="457.5" x2="590.5" y1="304" y2="304"/><line style="stroke:#181818;stroke-width:0.5;" x1="457.5" x2="590.5" y1="312" y2="312"/></g><!--class ActuatorProperties--><g id="elem_ActuatorProperties"><rect codeLine="63" fill="#F1F1F1" height="48" id="ActuatorProperties" rx="2.5" ry="2.5" style="stroke:#181818;stroke-width:0.5;" width="182" x="627" y="272"/><ellipse cx="642" cy="288" fill="#ADD1B2" rx="11" ry="11" style="stroke:#181818;stroke-width:1.0;"/><path d="M644.9731,293.6431 Q644.3921,293.9419 643.7529,294.0913 Q643.1138,294.2407 642.4082,294.2407 Q639.9014,294.2407 638.5815,292.5889 Q637.2617,290.937 637.2617,287.8159 Q637.2617,284.6865 638.5815,283.0347 Q639.9014,281.3828 642.4082,281.3828 Q643.1138,281.3828 643.7612,281.5322 Q644.4087,281.6816 644.9731,281.9805 L644.9731,284.7031 Q644.3423,284.1221 643.7488,283.8523 Q643.1553,283.5825 642.5244,283.5825 Q641.1797,283.5825 640.4949,284.6492 Q639.8101,285.7158 639.8101,287.8159 Q639.8101,289.9077 640.4949,290.9744 Q641.1797,292.041 642.5244,292.041 Q643.1553,292.041 643.7488,291.7712 Q644.3423,291.5015 644.9731,290.9204 Z " fill="#000000"/><text fill="#000000" font-family="sans-serif" font-size="14" lengthAdjust="spacing" textLength="129" x="656" y="293.291">ActuatorProperties</text><rect fill="#FFFFFF" height="16.1328" style="stroke:#181818;stroke-width:1.0;stroke-dasharray:2.0,2.0;" width="19" x="793" y="269"/><text fill="#000000" font-family="sans-serif" font-size="12" font-style="italic" lengthAdjust="spacing" textLength="17" x="794" y="281.6016">VO</text><line style="stroke:#181818;stroke-width:0.5;" x1="628" x2="808" y1="304" y2="304"/><line style="stroke:#181818;stroke-width:0.5;" x1="628" x2="808" y1="312" y2="312"/></g><!--class RangeInt--><g id="elem_RangeInt"><rect codeLine="66" fill="#F1F1F1" height="48" id="RangeInt" rx="2.5" ry="2.5" style="stroke:#181818;stroke-width:0.5;" width="114" x="828" y="454"/><ellipse cx="843" cy="470" fill="#ADD1B2" rx="11" ry="11" style="stroke:#181818;stroke-width:1.0;"/><path d="M845.9731,475.6431 Q845.3921,475.9419 844.7529,476.0913 Q844.1138,476.2407 843.4082,476.2407 Q840.9014,476.2407 839.5815,474.5889 Q838.2617,472.937 838.2617,469.8159 Q838.2617,466.6865 839.5815,465.0347 Q840.9014,463.3828 843.4082,463.3828 Q844.1138,463.3828 844.7612,463.5322 Q845.4087,463.6816 845.9731,463.9805 L845.9731,466.7031 Q845.3423,466.1221 844.7488,465.8523 Q844.1553,465.5825 843.5244,465.5825 Q842.1797,465.5825 841.4949,466.6492 Q840.8101,467.7158 840.8101,469.8159 Q840.8101,471.9077 841.4949,472.9744 Q842.1797,474.041 843.5244,474.041 Q844.1553,474.041 844.7488,473.7712 Q845.3423,473.5015 845.9731,472.9204 Z " fill="#000000"/><text fill="#000000" font-family="sans-serif" font-size="14" lengthAdjust="spacing" textLength="61" x="857" y="475.291">RangeInt</text><rect fill="#FFFFFF" height="16.1328" style="stroke:#181818;stroke-width:1.0;stroke-dasharray:2.0,2.0;" width="19" x="926" y="451"/><text fill="#000000" font-family="sans-serif" font-size="12" font-style="italic" lengthAdjust="spacing" textLength="17" x="927" y="463.6016">VO</text><line style="stroke:#181818;stroke-width:0.5;" x1="829" x2="941" y1="486" y2="486"/><line style="stroke:#181818;stroke-width:0.5;" x1="829" x2="941" y1="494" y2="494"/></g><!--class RangeDecimal--><g id="elem_RangeDecimal"><rect codeLine="69" fill="#F1F1F1" height="48" id="RangeDecimal" rx="2.5" ry="2.5" style="stroke:#181818;stroke-width:0.5;" width="150" x="643" y="454"/><ellipse cx="658" cy="470" fill="#ADD1B2" rx="11" ry="11" style="stroke:#181818;stroke-width:1.0;"/><path d="M660.9731,475.6431 Q660.3921,475.9419 659.7529,476.0913 Q659.1138,476.2407 658.4082,476.2407 Q655.9014,476.2407 654.5815,474.5889 Q653.2617,472.937 653.2617,469.8159 Q653.2617,466.6865 654.5815,465.0347 Q655.9014,463.3828 658.4082,463.3828 Q659.1138,463.3828 659.7612,463.5322 Q660.4087,463.6816 660.9731,463.9805 L660.9731,466.7031 Q660.3423,466.1221 659.7488,465.8523 Q659.1553,465.5825 658.5244,465.5825 Q657.1797,465.5825 656.4949,466.6492 Q655.8101,467.7158 655.8101,469.8159 Q655.8101,471.9077 656.4949,472.9744 Q657.1797,474.041 658.5244,474.041 Q659.1553,474.041 659.7488,473.7712 Q660.3423,473.5015 660.9731,472.9204 Z " fill="#000000"/><text fill="#000000" font-family="sans-serif" font-size="14" lengthAdjust="spacing" textLength="97" x="672" y="475.291">RangeDecimal</text><rect fill="#FFFFFF" height="16.1328" style="stroke:#181818;stroke-width:1.0;stroke-dasharray:2.0,2.0;" width="19" x="777" y="451"/><text fill="#000000" font-family="sans-serif" font-size="12" font-style="italic" lengthAdjust="spacing" textLength="17" x="778" y="463.6016">VO</text><line style="stroke:#181818;stroke-width:0.5;" x1="644" x2="792" y1="486" y2="486"/><line style="stroke:#181818;stroke-width:0.5;" x1="644" x2="792" y1="494" y2="494"/></g><!--class SwitchActuatorStatus--><g id="elem_SwitchActuatorStatus"><rect codeLine="72" fill="#F1F1F1" height="48" id="SwitchActuatorStatus" rx="2.5" ry="2.5" style="stroke:#181818;stroke-width:0.5;" width="198" x="410" y="454"/><ellipse cx="425" cy="470" fill="#EB937F" rx="11" ry="11" style="stroke:#181818;stroke-width:1.0;"/><path d="M429.1143,476 L421.3945,476 L421.3945,463.6069 L429.1143,463.6069 L429.1143,465.7651 L423.8433,465.7651 L423.8433,468.438 L428.6162,468.438 L428.6162,470.5962 L423.8433,470.5962 L423.8433,473.8418 L429.1143,473.8418 Z " fill="#000000"/><text fill="#000000" font-family="sans-serif" font-size="14" lengthAdjust="spacing" textLength="145" x="439" y="475.291">SwitchActuatorStatus</text><rect fill="#FFFFFF" height="16.1328" style="stroke:#181818;stroke-width:1.0;stroke-dasharray:2.0,2.0;" width="19" x="592" y="451"/><text fill="#000000" font-family="sans-serif" font-size="12" font-style="italic" lengthAdjust="spacing" textLength="17" x="593" y="463.6016">VO</text><line style="stroke:#181818;stroke-width:0.5;" x1="411" x2="607" y1="486" y2="486"/><line style="stroke:#181818;stroke-width:0.5;" x1="411" x2="607" y1="494" y2="494"/></g><!--class ActuatorTarget--><g id="elem_ActuatorTarget"><rect codeLine="75" fill="#F1F1F1" height="48" id="ActuatorTarget" rx="2.5" ry="2.5" style="stroke:#181818;stroke-width:0.5;" width="157" x="35.5" y="454"/><ellipse cx="50.5" cy="470" fill="#ADD1B2" rx="11" ry="11" style="stroke:#181818;stroke-width:1.0;"/><path d="M53.4731,475.6431 Q52.8921,475.9419 52.2529,476.0913 Q51.6138,476.2407 50.9082,476.2407 Q48.4014,476.2407 47.0815,474.5889 Q45.7617,472.937 45.7617,469.8159 Q45.7617,466.6865 47.0815,465.0347 Q48.4014,463.3828 50.9082,463.3828 Q51.6138,463.3828 52.2612,463.5322 Q52.9087,463.6816 53.4731,463.9805 L53.4731,466.7031 Q52.8423,466.1221 52.2488,465.8523 Q51.6553,465.5825 51.0244,465.5825 Q49.6797,465.5825 48.9949,466.6492 Q48.3101,467.7158 48.3101,469.8159 Q48.3101,471.9077 48.9949,472.9744 Q49.6797,474.041 51.0244,474.041 Q51.6553,474.041 52.2488,473.7712 Q52.8423,473.5015 53.4731,472.9204 Z " fill="#000000"/><text fill="#000000" font-family="sans-serif" font-size="14" lengthAdjust="spacing" textLength="104" x="64.5" y="475.291">ActuatorTarget</text><rect fill="#FFFFFF" height="16.1328" style="stroke:#181818;stroke-width:1.0;stroke-dasharray:2.0,2.0;" width="19" x="176.5" y="451"/><text fill="#000000" font-family="sans-serif" font-size="12" font-style="italic" lengthAdjust="spacing" textLength="17" x="177.5" y="463.6016">VO</text><line style="stroke:#181818;stroke-width:0.5;" x1="36.5" x2="191.5" y1="486" y2="486"/><line style="stroke:#181818;stroke-width:0.5;" x1="36.5" x2="191.5" y1="494" y2="494"/></g><!--class ActuatorFunctionality--><g id="elem_ActuatorFunctionality"><rect codeLine="89" fill="#F1F1F1" height="48" id="ActuatorFunctionality" rx="2.5" ry="2.5" style="stroke:#181818;stroke-width:0.5;" width="206" x="518" y="41"/><ellipse cx="533" cy="57" fill="#ADD1B2" rx="11" ry="11" style="stroke:#181818;stroke-width:1.0;"/><path d="M535.9731,62.6431 Q535.3921,62.9419 534.7529,63.0913 Q534.1138,63.2407 533.4082,63.2407 Q530.9014,63.2407 529.5815,61.5889 Q528.2617,59.937 528.2617,56.8159 Q528.2617,53.6865 529.5815,52.0347 Q530.9014,50.3828 533.4082,50.3828 Q534.1138,50.3828 534.7612,50.5322 Q535.4087,50.6816 535.9731,50.9805 L535.9731,53.7031 Q535.3423,53.1221 534.7488,52.8523 Q534.1553,52.5825 533.5244,52.5825 Q532.1797,52.5825 531.4949,53.6492 Q530.8101,54.7158 530.8101,56.8159 Q530.8101,58.9077 531.4949,59.9744 Q532.1797,61.041 533.5244,61.041 Q534.1553,61.041 534.7488,60.7712 Q535.3423,60.5015 535.9731,59.9204 Z " fill="#000000"/><text fill="#000000" font-family="sans-serif" font-size="14" lengthAdjust="spacing" textLength="147" x="547" y="62.291">ActuatorFunctionality</text><rect fill="#FFFFFF" height="16.1328" style="stroke:#181818;stroke-width:1.0;stroke-dasharray:2.0,2.0;" width="25" x="702" y="38"/><text fill="#000000" font-family="sans-serif" font-size="12" font-style="italic" lengthAdjust="spacing" textLength="23" x="703" y="50.6016">root</text><line style="stroke:#181818;stroke-width:0.5;" x1="519" x2="723" y1="73" y2="73"/><line style="stroke:#181818;stroke-width:0.5;" x1="519" x2="723" y1="81" y2="81"/></g><!--class Sensor--><g id="elem_Sensor"><rect codeLine="96" fill="#F1F1F1" height="48" id="Sensor" rx="2.5" ry="2.5" style="stroke:#181818;stroke-width:0.5;" width="106" x="2512" y="164"/><ellipse cx="2527" cy="180" fill="#A9DCDF" rx="11" ry="11" style="stroke:#181818;stroke-width:1.0;"/><path d="M2527.1133,175.3481 L2525.9595,180.4199 L2528.2754,180.4199 Z M2525.6191,173.1069 L2528.6157,173.1069 L2531.9609,185.5 L2529.5122,185.5 L2528.7485,182.437 L2525.4697,182.437 L2524.7227,185.5 L2522.2739,185.5 Z " fill="#000000"/><text fill="#000000" font-family="sans-serif" font-size="14" font-style="italic" lengthAdjust="spacing" textLength="47" x="2541" y="185.291">Sensor</text><rect fill="#FFFFFF" height="16.1328" style="stroke:#181818;stroke-width:1.0;stroke-dasharray:2.0,2.0;" width="25" x="2596" y="161"/><text fill="#000000" font-family="sans-serif" font-size="12" font-style="italic" lengthAdjust="spacing" textLength="23" x="2597" y="173.6016">root</text><line style="stroke:#181818;stroke-width:0.5;" x1="2513" x2="2617" y1="196" y2="196"/><line style="stroke:#181818;stroke-width:0.5;" x1="2513" x2="2617" y1="204" y2="204"/></g><!--class BinaryStatusSensor--><g id="elem_BinaryStatusSensor"><rect codeLine="99" fill="#F1F1F1" height="48" id="BinaryStatusSensor" rx="2.5" ry="2.5" style="stroke:#181818;stroke-width:0.5;" width="163" x="1391.5" y="272"/><ellipse cx="1406.5" cy="288" fill="#ADD1B2" rx="11" ry="11" style="stroke:#181818;stroke-width:1.0;"/><path d="M1409.4731,293.6431 Q1408.8921,293.9419 1408.2529,294.0913 Q1407.6138,294.2407 1406.9082,294.2407 Q1404.4014,294.2407 1403.0815,292.5889 Q1401.7617,290.937 1401.7617,287.8159 Q1401.7617,284.6865 1403.0815,283.0347 Q1404.4014,281.3828 1406.9082,281.3828 Q1407.6138,281.3828 1408.2612,281.5322 Q1408.9087,281.6816 1409.4731,281.9805 L1409.4731,284.7031 Q1408.8423,284.1221 1408.2488,283.8523 Q1407.6553,283.5825 1407.0244,283.5825 Q1405.6797,283.5825 1404.9949,284.6492 Q1404.3101,285.7158 1404.3101,287.8159 Q1404.3101,289.9077 1404.9949,290.9744 Q1405.6797,292.041 1407.0244,292.041 Q1407.6553,292.041 1408.2488,291.7712 Q1408.8423,291.5015 1409.4731,290.9204 Z " fill="#000000"/><text fill="#000000" font-family="sans-serif" font-size="14" lengthAdjust="spacing" textLength="131" x="1420.5" y="293.291">BinaryStatusSensor</text><line style="stroke:#181818;stroke-width:0.5;" x1="1392.5" x2="1553.5" y1="304" y2="304"/><line style="stroke:#181818;stroke-width:0.5;" x1="1392.5" x2="1553.5" y1="312" y2="312"/></g><!--class DewPointSensor--><g id="elem_DewPointSensor"><rect codeLine="102" fill="#F1F1F1" height="48" id="DewPointSensor" rx="2.5" ry="2.5" style="stroke:#181818;stroke-width:0.5;" width="143" x="2103.5" y="272"/><ellipse cx="2118.5" cy="288" fill="#ADD1B2" rx="11" ry="11" style="stroke:#181818;stroke-width:1.0;"/><path d="M2121.4731,293.6431 Q2120.8921,293.9419 2120.2529,294.0913 Q2119.6138,294.2407 2118.9082,294.2407 Q2116.4014,294.2407 2115.0815,292.5889 Q2113.7617,290.937 2113.7617,287.8159 Q2113.7617,284.6865 2115.0815,283.0347 Q2116.4014,281.3828 2118.9082,281.3828 Q2119.6138,281.3828 2120.2612,281.5322 Q2120.9087,281.6816 2121.4731,281.9805 L2121.4731,284.7031 Q2120.8423,284.1221 2120.2488,283.8523 Q2119.6553,283.5825 2119.0244,283.5825 Q2117.6797,283.5825 2116.9949,284.6492 Q2116.3101,285.7158 2116.3101,287.8159 Q2116.3101,289.9077 2116.9949,290.9744 Q2117.6797,292.041 2119.0244,292.041 Q2119.6553,292.041 2120.2488,291.7712 Q2120.8423,291.5015 2121.4731,290.9204 Z " fill="#000000"/><text fill="#000000" font-family="sans-serif" font-size="14" lengthAdjust="spacing" textLength="111" x="2132.5" y="293.291">DewPointSensor</text><line style="stroke:#181818;stroke-width:0.5;" x1="2104.5" x2="2245.5" y1="304" y2="304"/><line style="stroke:#181818;stroke-width:0.5;" x1="2104.5" x2="2245.5" y1="312" y2="312"/></g><!--class ElectricEnergyConsumptionSensor--><g id="elem_ElectricEnergyConsumptionSensor"><rect codeLine="105" fill="#F1F1F1" height="48" id="ElectricEnergyConsumptionSensor" rx="2.5" ry="2.5" style="stroke:#181818;stroke-width:0.5;" width="268" x="1589" y="272"/><ellipse cx="1604" cy="288" fill="#ADD1B2" rx="11" ry="11" style="stroke:#181818;stroke-width:1.0;"/><path d="M1606.9731,293.6431 Q1606.3921,293.9419 1605.7529,294.0913 Q1605.1138,294.2407 1604.4082,294.2407 Q1601.9014,294.2407 1600.5815,292.5889 Q1599.2617,290.937 1599.2617,287.8159 Q1599.2617,284.6865 1600.5815,283.0347 Q1601.9014,281.3828 1604.4082,281.3828 Q1605.1138,281.3828 1605.7612,281.5322 Q1606.4087,281.6816 1606.9731,281.9805 L1606.9731,284.7031 Q1606.3423,284.1221 1605.7488,283.8523 Q1605.1553,283.5825 1604.5244,283.5825 Q1603.1797,283.5825 1602.4949,284.6492 Q1601.8101,285.7158 1601.8101,287.8159 Q1601.8101,289.9077 1602.4949,290.9744 Q1603.1797,292.041 1604.5244,292.041 Q1605.1553,292.041 1605.7488,291.7712 Q1606.3423,291.5015 1606.9731,290.9204 Z " fill="#000000"/><text fill="#000000" font-family="sans-serif" font-size="14" lengthAdjust="spacing" textLength="236" x="1618" y="293.291">ElectricEnergyConsumptionSensor</text><line style="stroke:#181818;stroke-width:0.5;" x1="1590" x2="1856" y1="304" y2="304"/><line style="stroke:#181818;stroke-width:0.5;" x1="1590" x2="1856" y1="312" y2="312"/></g><!--class HumidityPercentageSensor--><g id="elem_HumidityPercentageSensor"><rect codeLine="108" fill="#F1F1F1" height="48" id="HumidityPercentageSensor" rx="2.5" ry="2.5" style="stroke:#181818;stroke-width:0.5;" width="216" x="2825" y="272"/><ellipse cx="2840" cy="288" fill="#ADD1B2" rx="11" ry="11" style="stroke:#181818;stroke-width:1.0;"/><path d="M2842.9731,293.6431 Q2842.3921,293.9419 2841.7529,294.0913 Q2841.1138,294.2407 2840.4082,294.2407 Q2837.9014,294.2407 2836.5815,292.5889 Q2835.2617,290.937 2835.2617,287.8159 Q2835.2617,284.6865 2836.5815,283.0347 Q2837.9014,281.3828 2840.4082,281.3828 Q2841.1138,281.3828 2841.7612,281.5322 Q2842.4087,281.6816 2842.9731,281.9805 L2842.9731,284.7031 Q2842.3423,284.1221 2841.7488,283.8523 Q2841.1553,283.5825 2840.5244,283.5825 Q2839.1797,283.5825 2838.4949,284.6492 Q2837.8101,285.7158 2837.8101,287.8159 Q2837.8101,289.9077 2838.4949,290.9744 Q2839.1797,292.041 2840.5244,292.041 Q2841.1553,292.041 2841.7488,291.7712 Q2842.3423,291.5015 2842.9731,290.9204 Z " fill="#000000"/><text fill="#000000" font-family="sans-serif" font-size="14" lengthAdjust="spacing" textLength="184" x="2854" y="293.291">HumidityPercentageSensor</text><line style="stroke:#181818;stroke-width:0.5;" x1="2826" x2="3040" y1="304" y2="304"/><line style="stroke:#181818;stroke-width:0.5;" x1="2826" x2="3040" y1="312" y2="312"/></g><!--class PowerAverageSensor--><g id="elem_PowerAverageSensor"><rect codeLine="111" fill="#F1F1F1" height="48" id="PowerAverageSensor" rx="2.5" ry="2.5" style="stroke:#181818;stroke-width:0.5;" width="177" x="1891.5" y="272"/><ellipse cx="1906.5" cy="288" fill="#ADD1B2" rx="11" ry="11" style="stroke:#181818;stroke-width:1.0;"/><path d="M1909.4731,293.6431 Q1908.8921,293.9419 1908.2529,294.0913 Q1907.6138,294.2407 1906.9082,294.2407 Q1904.4014,294.2407 1903.0815,292.5889 Q1901.7617,290.937 1901.7617,287.8159 Q1901.7617,284.6865 1903.0815,283.0347 Q1904.4014,281.3828 1906.9082,281.3828 Q1907.6138,281.3828 1908.2612,281.5322 Q1908.9087,281.6816 1909.4731,281.9805 L1909.4731,284.7031 Q1908.8423,284.1221 1908.2488,283.8523 Q1907.6553,283.5825 1907.0244,283.5825 Q1905.6797,283.5825 1904.9949,284.6492 Q1904.3101,285.7158 1904.3101,287.8159 Q1904.3101,289.9077 1904.9949,290.9744 Q1905.6797,292.041 1907.0244,292.041 Q1907.6553,292.041 1908.2488,291.7712 Q1908.8423,291.5015 1909.4731,290.9204 Z " fill="#000000"/><text fill="#000000" font-family="sans-serif" font-size="14" lengthAdjust="spacing" textLength="145" x="1920.5" y="293.291">PowerAverageSensor</text><line style="stroke:#181818;stroke-width:0.5;" x1="1892.5" x2="2067.5" y1="304" y2="304"/><line style="stroke:#181818;stroke-width:0.5;" x1="1892.5" x2="2067.5" y1="312" y2="312"/></g><!--class ScaleSensor--><g id="elem_ScaleSensor"><rect codeLine="114" fill="#F1F1F1" height="48" id="ScaleSensor" rx="2.5" ry="2.5" style="stroke:#181818;stroke-width:0.5;" width="114" x="3076" y="272"/><ellipse cx="3091" cy="288" fill="#ADD1B2" rx="11" ry="11" style="stroke:#181818;stroke-width:1.0;"/><path d="M3093.9731,293.6431 Q3093.3921,293.9419 3092.7529,294.0913 Q3092.1138,294.2407 3091.4082,294.2407 Q3088.9014,294.2407 3087.5815,292.5889 Q3086.2617,290.937 3086.2617,287.8159 Q3086.2617,284.6865 3087.5815,283.0347 Q3088.9014,281.3828 3091.4082,281.3828 Q3092.1138,281.3828 3092.7612,281.5322 Q3093.4087,281.6816 3093.9731,281.9805 L3093.9731,284.7031 Q3093.3423,284.1221 3092.7488,283.8523 Q3092.1553,283.5825 3091.5244,283.5825 Q3090.1797,283.5825 3089.4949,284.6492 Q3088.8101,285.7158 3088.8101,287.8159 Q3088.8101,289.9077 3089.4949,290.9744 Q3090.1797,292.041 3091.5244,292.041 Q3092.1553,292.041 3092.7488,291.7712 Q3093.3423,291.5015 3093.9731,290.9204 Z " fill="#000000"/><text fill="#000000" font-family="sans-serif" font-size="14" lengthAdjust="spacing" textLength="82" x="3105" y="293.291">ScaleSensor</text><line style="stroke:#181818;stroke-width:0.5;" x1="3077" x2="3189" y1="304" y2="304"/><line style="stroke:#181818;stroke-width:0.5;" x1="3077" x2="3189" y1="312" y2="312"/></g><!--class SolarIrradianceSensor--><g id="elem_SolarIrradianceSensor"><rect codeLine="117" fill="#F1F1F1" height="48" id="SolarIrradianceSensor" rx="2.5" ry="2.5" style="stroke:#181818;stroke-width:0.5;" width="183" x="2281.5" y="272"/><ellipse cx="2296.5" cy="288" fill="#ADD1B2" rx="11" ry="11" style="stroke:#181818;stroke-width:1.0;"/><path d="M2299.4731,293.6431 Q2298.8921,293.9419 2298.2529,294.0913 Q2297.6138,294.2407 2296.9082,294.2407 Q2294.4014,294.2407 2293.0815,292.5889 Q2291.7617,290.937 2291.7617,287.8159 Q2291.7617,284.6865 2293.0815,283.0347 Q2294.4014,281.3828 2296.9082,281.3828 Q2297.6138,281.3828 2298.2612,281.5322 Q2298.9087,281.6816 2299.4731,281.9805 L2299.4731,284.7031 Q2298.8423,284.1221 2298.2488,283.8523 Q2297.6553,283.5825 2297.0244,283.5825 Q2295.6797,283.5825 2294.9949,284.6492 Q2294.3101,285.7158 2294.3101,287.8159 Q2294.3101,289.9077 2294.9949,290.9744 Q2295.6797,292.041 2297.0244,292.041 Q2297.6553,292.041 2298.2488,291.7712 Q2298.8423,291.5015 2299.4731,290.9204 Z " fill="#000000"/><text fill="#000000" font-family="sans-serif" font-size="14" lengthAdjust="spacing" textLength="151" x="2310.5" y="293.291">SolarIrradianceSensor</text><line style="stroke:#181818;stroke-width:0.5;" x1="2282.5" x2="2463.5" y1="304" y2="304"/><line style="stroke:#181818;stroke-width:0.5;" x1="2282.5" x2="2463.5" y1="312" y2="312"/></g><!--class SpecificTimePowerConsumptionSensor--><g id="elem_SpecificTimePowerConsumptionSensor"><rect codeLine="120" fill="#F1F1F1" height="48" id="SpecificTimePowerConsumptionSensor" rx="2.5" ry="2.5" style="stroke:#181818;stroke-width:0.5;" width="300" x="3225" y="272"/><ellipse cx="3240" cy="288" fill="#ADD1B2" rx="11" ry="11" style="stroke:#181818;stroke-width:1.0;"/><path d="M3242.9731,293.6431 Q3242.3921,293.9419 3241.7529,294.0913 Q3241.1138,294.2407 3240.4082,294.2407 Q3237.9014,294.2407 3236.5815,292.5889 Q3235.2617,290.937 3235.2617,287.8159 Q3235.2617,284.6865 3236.5815,283.0347 Q3237.9014,281.3828 3240.4082,281.3828 Q3241.1138,281.3828 3241.7612,281.5322 Q3242.4087,281.6816 3242.9731,281.9805 L3242.9731,284.7031 Q3242.3423,284.1221 3241.7488,283.8523 Q3241.1553,283.5825 3240.5244,283.5825 Q3239.1797,283.5825 3238.4949,284.6492 Q3237.8101,285.7158 3237.8101,287.8159 Q3237.8101,289.9077 3238.4949,290.9744 Q3239.1797,292.041 3240.5244,292.041 Q3241.1553,292.041 3241.7488,291.7712 Q3242.3423,291.5015 3242.9731,290.9204 Z " fill="#000000"/><text fill="#000000" font-family="sans-serif" font-size="14" lengthAdjust="spacing" textLength="268" x="3254" y="293.291">SpecificTimePowerConsumptionSensor</text><line style="stroke:#181818;stroke-width:0.5;" x1="3226" x2="3524" y1="304" y2="304"/><line style="stroke:#181818;stroke-width:0.5;" x1="3226" x2="3524" y1="312" y2="312"/></g><!--class SunriseSensor--><g id="elem_SunriseSensor"><rect codeLine="123" fill="#F1F1F1" height="48" id="SunriseSensor" rx="2.5" ry="2.5" style="stroke:#181818;stroke-width:0.5;" width="130" x="2500" y="272"/><ellipse cx="2515" cy="288" fill="#ADD1B2" rx="11" ry="11" style="stroke:#181818;stroke-width:1.0;"/><path d="M2517.9731,293.6431 Q2517.3921,293.9419 2516.7529,294.0913 Q2516.1138,294.2407 2515.4082,294.2407 Q2512.9014,294.2407 2511.5815,292.5889 Q2510.2617,290.937 2510.2617,287.8159 Q2510.2617,284.6865 2511.5815,283.0347 Q2512.9014,281.3828 2515.4082,281.3828 Q2516.1138,281.3828 2516.7612,281.5322 Q2517.4087,281.6816 2517.9731,281.9805 L2517.9731,284.7031 Q2517.3423,284.1221 2516.7488,283.8523 Q2516.1553,283.5825 2515.5244,283.5825 Q2514.1797,283.5825 2513.4949,284.6492 Q2512.8101,285.7158 2512.8101,287.8159 Q2512.8101,289.9077 2513.4949,290.9744 Q2514.1797,292.041 2515.5244,292.041 Q2516.1553,292.041 2516.7488,291.7712 Q2517.3423,291.5015 2517.9731,290.9204 Z " fill="#000000"/><text fill="#000000" font-family="sans-serif" font-size="14" lengthAdjust="spacing" textLength="98" x="2529" y="293.291">SunriseSensor</text><line style="stroke:#181818;stroke-width:0.5;" x1="2501" x2="2629" y1="304" y2="304"/><line style="stroke:#181818;stroke-width:0.5;" x1="2501" x2="2629" y1="312" y2="312"/></g><!--class SunsetSensor--><g id="elem_SunsetSensor"><rect codeLine="126" fill="#F1F1F1" height="48" id="SunsetSensor" rx="2.5" ry="2.5" style="stroke:#181818;stroke-width:0.5;" width="125" x="2665.5" y="272"/><ellipse cx="2680.5" cy="288" fill="#ADD1B2" rx="11" ry="11" style="stroke:#181818;stroke-width:1.0;"/><path d="M2683.4731,293.6431 Q2682.8921,293.9419 2682.2529,294.0913 Q2681.6138,294.2407 2680.9082,294.2407 Q2678.4014,294.2407 2677.0815,292.5889 Q2675.7617,290.937 2675.7617,287.8159 Q2675.7617,284.6865 2677.0815,283.0347 Q2678.4014,281.3828 2680.9082,281.3828 Q2681.6138,281.3828 2682.2612,281.5322 Q2682.9087,281.6816 2683.4731,281.9805 L2683.4731,284.7031 Q2682.8423,284.1221 2682.2488,283.8523 Q2681.6553,283.5825 2681.0244,283.5825 Q2679.6797,283.5825 2678.9949,284.6492 Q2678.3101,285.7158 2678.3101,287.8159 Q2678.3101,289.9077 2678.9949,290.9744 Q2679.6797,292.041 2681.0244,292.041 Q2681.6553,292.041 2682.2488,291.7712 Q2682.8423,291.5015 2683.4731,290.9204 Z " fill="#000000"/><text fill="#000000" font-family="sans-serif" font-size="14" lengthAdjust="spacing" textLength="93" x="2694.5" y="293.291">SunsetSensor</text><line style="stroke:#181818;stroke-width:0.5;" x1="2666.5" x2="2789.5" y1="304" y2="304"/><line style="stroke:#181818;stroke-width:0.5;" x1="2666.5" x2="2789.5" y1="312" y2="312"/></g><!--class TemperatureCelsiusSensor--><g id="elem_TemperatureCelsiusSensor"><rect codeLine="129" fill="#F1F1F1" height="48" id="TemperatureCelsiusSensor" rx="2.5" ry="2.5" style="stroke:#181818;stroke-width:0.5;" width="217" x="3560.5" y="272"/><ellipse cx="3575.5" cy="288" fill="#ADD1B2" rx="11" ry="11" style="stroke:#181818;stroke-width:1.0;"/><path d="M3578.4731,293.6431 Q3577.8921,293.9419 3577.2529,294.0913 Q3576.6138,294.2407 3575.9082,294.2407 Q3573.4014,294.2407 3572.0815,292.5889 Q3570.7617,290.937 3570.7617,287.8159 Q3570.7617,284.6865 3572.0815,283.0347 Q3573.4014,281.3828 3575.9082,281.3828 Q3576.6138,281.3828 3577.2612,281.5322 Q3577.9087,281.6816 3578.4731,281.9805 L3578.4731,284.7031 Q3577.8423,284.1221 3577.2488,283.8523 Q3576.6553,283.5825 3576.0244,283.5825 Q3574.6797,283.5825 3573.9949,284.6492 Q3573.3101,285.7158 3573.3101,287.8159 Q3573.3101,289.9077 3573.9949,290.9744 Q3574.6797,292.041 3576.0244,292.041 Q3576.6553,292.041 3577.2488,291.7712 Q3577.8423,291.5015 3578.4731,290.9204 Z " fill="#000000"/><text fill="#000000" font-family="sans-serif" font-size="14" lengthAdjust="spacing" textLength="185" x="3589.5" y="293.291">TemperatureCelsiusSensor</text><line style="stroke:#181818;stroke-width:0.5;" x1="3561.5" x2="3776.5" y1="304" y2="304"/><line style="stroke:#181818;stroke-width:0.5;" x1="3561.5" x2="3776.5" y1="312" y2="312"/></g><!--class WindSpeedAndDirectionSensor--><g id="elem_WindSpeedAndDirectionSensor"><rect codeLine="132" fill="#F1F1F1" height="48" id="WindSpeedAndDirectionSensor" rx="2.5" ry="2.5" style="stroke:#181818;stroke-width:0.5;" width="245" x="3812.5" y="272"/><ellipse cx="3827.5" cy="288" fill="#ADD1B2" rx="11" ry="11" style="stroke:#181818;stroke-width:1.0;"/><path d="M3830.4731,293.6431 Q3829.8921,293.9419 3829.2529,294.0913 Q3828.6138,294.2407 3827.9082,294.2407 Q3825.4014,294.2407 3824.0815,292.5889 Q3822.7617,290.937 3822.7617,287.8159 Q3822.7617,284.6865 3824.0815,283.0347 Q3825.4014,281.3828 3827.9082,281.3828 Q3828.6138,281.3828 3829.2612,281.5322 Q3829.9087,281.6816 3830.4731,281.9805 L3830.4731,284.7031 Q3829.8423,284.1221 3829.2488,283.8523 Q3828.6553,283.5825 3828.0244,283.5825 Q3826.6797,283.5825 3825.9949,284.6492 Q3825.3101,285.7158 3825.3101,287.8159 Q3825.3101,289.9077 3825.9949,290.9744 Q3826.6797,292.041 3828.0244,292.041 Q3828.6553,292.041 3829.2488,291.7712 Q3829.8423,291.5015 3830.4731,290.9204 Z " fill="#000000"/><text fill="#000000" font-family="sans-serif" font-size="14" lengthAdjust="spacing" textLength="213" x="3841.5" y="293.291">WindSpeedAndDirectionSensor</text><line style="stroke:#181818;stroke-width:0.5;" x1="3813.5" x2="4056.5" y1="304" y2="304"/><line style="stroke:#181818;stroke-width:0.5;" x1="3813.5" x2="4056.5" y1="312" y2="312"/></g><!--class SensorFunctionality--><g id="elem_SensorFunctionality"><rect codeLine="139" fill="#F1F1F1" height="48" id="SensorFunctionality" rx="2.5" ry="2.5" style="stroke:#181818;stroke-width:0.5;" width="194" x="2468" y="41"/><ellipse cx="2483" cy="57" fill="#ADD1B2" rx="11" ry="11" style="stroke:#181818;stroke-width:1.0;"/><path d="M2485.9731,62.6431 Q2485.3921,62.9419 2484.7529,63.0913 Q2484.1138,63.2407 2483.4082,63.2407 Q2480.9014,63.2407 2479.5815,61.5889 Q2478.2617,59.937 2478.2617,56.8159 Q2478.2617,53.6865 2479.5815,52.0347 Q2480.9014,50.3828 2483.4082,50.3828 Q2484.1138,50.3828 2484.7612,50.5322 Q2485.4087,50.6816 2485.9731,50.9805 L2485.9731,53.7031 Q2485.3423,53.1221 2484.7488,52.8523 Q2484.1553,52.5825 2483.5244,52.5825 Q2482.1797,52.5825 2481.4949,53.6492 Q2480.8101,54.7158 2480.8101,56.8159 Q2480.8101,58.9077 2481.4949,59.9744 Q2482.1797,61.041 2483.5244,61.041 Q2484.1553,61.041 2484.7488,60.7712 Q2485.3423,60.5015 2485.9731,59.9204 Z " fill="#000000"/><text fill="#000000" font-family="sans-serif" font-size="14" lengthAdjust="spacing" textLength="135" x="2497" y="62.291">SensorFunctionality</text><rect fill="#FFFFFF" height="16.1328" style="stroke:#181818;stroke-width:1.0;stroke-dasharray:2.0,2.0;" width="25" x="2640" y="38"/><text fill="#000000" font-family="sans-serif" font-size="12" font-style="italic" lengthAdjust="spacing" textLength="23" x="2641" y="50.6016">root</text><line style="stroke:#181818;stroke-width:0.5;" x1="2469" x2="2661" y1="73" y2="73"/><line style="stroke:#181818;stroke-width:0.5;" x1="2469" x2="2661" y1="81" y2="81"/></g><!--class Reading--><g id="elem_Reading"><rect codeLine="159" fill="#F1F1F1" height="48" id="Reading" rx="2.5" ry="2.5" style="stroke:#181818;stroke-width:0.5;" width="109" x="2535.5" y="593"/><ellipse cx="2550.5" cy="609" fill="#ADD1B2" rx="11" ry="11" style="stroke:#181818;stroke-width:1.0;"/><path d="M2553.4731,614.6431 Q2552.8921,614.9419 2552.2529,615.0913 Q2551.6138,615.2407 2550.9082,615.2407 Q2548.4014,615.2407 2547.0815,613.5889 Q2545.7617,611.937 2545.7617,608.8159 Q2545.7617,605.6865 2547.0815,604.0347 Q2548.4014,602.3828 2550.9082,602.3828 Q2551.6138,602.3828 2552.2612,602.5322 Q2552.9087,602.6816 2553.4731,602.9805 L2553.4731,605.7031 Q2552.8423,605.1221 2552.2488,604.8523 Q2551.6553,604.5825 2551.0244,604.5825 Q2549.6797,604.5825 2548.9949,605.6492 Q2548.3101,606.7158 2548.3101,608.8159 Q2548.3101,610.9077 2548.9949,611.9744 Q2549.6797,613.041 2551.0244,613.041 Q2551.6553,613.041 2552.2488,612.7712 Q2552.8423,612.5015 2553.4731,611.9204 Z " fill="#000000"/><text fill="#000000" font-family="sans-serif" font-size="14" lengthAdjust="spacing" textLength="56" x="2564.5" y="614.291">Reading</text><rect fill="#FFFFFF" height="16.1328" style="stroke:#181818;stroke-width:1.0;stroke-dasharray:2.0,2.0;" width="19" x="2628.5" y="590"/><text fill="#000000" font-family="sans-serif" font-size="12" font-style="italic" lengthAdjust="spacing" textLength="17" x="2629.5" y="602.6016">VO</text><line style="stroke:#181818;stroke-width:0.5;" x1="2536.5" x2="2643.5" y1="625" y2="625"/><line style="stroke:#181818;stroke-width:0.5;" x1="2536.5" x2="2643.5" y1="633" y2="633"/></g><!--class InstantTimeValue--><g id="elem_InstantTimeValue"><rect codeLine="147" fill="#F1F1F1" height="48" id="InstantTimeValue" rx="2.5" ry="2.5" style="stroke:#181818;stroke-width:0.5;" width="178" x="2968" y="454"/><ellipse cx="2983" cy="470" fill="#ADD1B2" rx="11" ry="11" style="stroke:#181818;stroke-width:1.0;"/><path d="M2985.9731,475.6431 Q2985.3921,475.9419 2984.7529,476.0913 Q2984.1138,476.2407 2983.4082,476.2407 Q2980.9014,476.2407 2979.5815,474.5889 Q2978.2617,472.937 2978.2617,469.8159 Q2978.2617,466.6865 2979.5815,465.0347 Q2980.9014,463.3828 2983.4082,463.3828 Q2984.1138,463.3828 2984.7612,463.5322 Q2985.4087,463.6816 2985.9731,463.9805 L2985.9731,466.7031 Q2985.3423,466.1221 2984.7488,465.8523 Q2984.1553,465.5825 2983.5244,465.5825 Q2982.1797,465.5825 2981.4949,466.6492 Q2980.8101,467.7158 2980.8101,469.8159 Q2980.8101,471.9077 2981.4949,472.9744 Q2982.1797,474.041 2983.5244,474.041 Q2984.1553,474.041 2984.7488,473.7712 Q2985.3423,473.5015 2985.9731,472.9204 Z " fill="#000000"/><text fill="#000000" font-family="sans-serif" font-size="14" lengthAdjust="spacing" textLength="119" x="2997" y="475.291">InstantTimeValue</text><rect fill="#FFFFFF" height="16.1328" style="stroke:#181818;stroke-width:1.0;stroke-dasharray:2.0,2.0;" width="25" x="3124" y="451"/><text fill="#000000" font-family="sans-serif" font-size="12" font-style="italic" lengthAdjust="spacing" textLength="23" x="3125" y="463.6016">root</text><line style="stroke:#181818;stroke-width:0.5;" x1="2969" x2="3145" y1="486" y2="486"/><line style="stroke:#181818;stroke-width:0.5;" x1="2969" x2="3145" y1="494" y2="494"/></g><!--class PeriodTimeValue--><g id="elem_PeriodTimeValue"><rect codeLine="151" fill="#F1F1F1" height="48" id="PeriodTimeValue" rx="2.5" ry="2.5" style="stroke:#181818;stroke-width:0.5;" width="175" x="2342.5" y="454"/><ellipse cx="2357.5" cy="470" fill="#ADD1B2" rx="11" ry="11" style="stroke:#181818;stroke-width:1.0;"/><path d="M2360.4731,475.6431 Q2359.8921,475.9419 2359.2529,476.0913 Q2358.6138,476.2407 2357.9082,476.2407 Q2355.4014,476.2407 2354.0815,474.5889 Q2352.7617,472.937 2352.7617,469.8159 Q2352.7617,466.6865 2354.0815,465.0347 Q2355.4014,463.3828 2357.9082,463.3828 Q2358.6138,463.3828 2359.2612,463.5322 Q2359.9087,463.6816 2360.4731,463.9805 L2360.4731,466.7031 Q2359.8423,466.1221 2359.2488,465.8523 Q2358.6553,465.5825 2358.0244,465.5825 Q2356.6797,465.5825 2355.9949,466.6492 Q2355.3101,467.7158 2355.3101,469.8159 Q2355.3101,471.9077 2355.9949,472.9744 Q2356.6797,474.041 2358.0244,474.041 Q2358.6553,474.041 2359.2488,473.7712 Q2359.8423,473.5015 2360.4731,472.9204 Z " fill="#000000"/><text fill="#000000" font-family="sans-serif" font-size="14" lengthAdjust="spacing" textLength="116" x="2371.5" y="475.291">PeriodTimeValue</text><rect fill="#FFFFFF" height="16.1328" style="stroke:#181818;stroke-width:1.0;stroke-dasharray:2.0,2.0;" width="25" x="2495.5" y="451"/><text fill="#000000" font-family="sans-serif" font-size="12" font-style="italic" lengthAdjust="spacing" textLength="23" x="2496.5" y="463.6016">root</text><line style="stroke:#181818;stroke-width:0.5;" x1="2343.5" x2="2516.5" y1="486" y2="486"/><line style="stroke:#181818;stroke-width:0.5;" x1="2343.5" x2="2516.5" y1="494" y2="494"/></g><!--class InstantTimeLocationValue--><g id="elem_InstantTimeLocationValue"><rect codeLine="155" fill="#F1F1F1" height="48" id="InstantTimeLocationValue" rx="2.5" ry="2.5" style="stroke:#181818;stroke-width:0.5;" width="236" x="2625" y="454"/><ellipse cx="2640" cy="470" fill="#ADD1B2" rx="11" ry="11" style="stroke:#181818;stroke-width:1.0;"/><path d="M2642.9731,475.6431 Q2642.3921,475.9419 2641.7529,476.0913 Q2641.1138,476.2407 2640.4082,476.2407 Q2637.9014,476.2407 2636.5815,474.5889 Q2635.2617,472.937 2635.2617,469.8159 Q2635.2617,466.6865 2636.5815,465.0347 Q2637.9014,463.3828 2640.4082,463.3828 Q2641.1138,463.3828 2641.7612,463.5322 Q2642.4087,463.6816 2642.9731,463.9805 L2642.9731,466.7031 Q2642.3423,466.1221 2641.7488,465.8523 Q2641.1553,465.5825 2640.5244,465.5825 Q2639.1797,465.5825 2638.4949,466.6492 Q2637.8101,467.7158 2637.8101,469.8159 Q2637.8101,471.9077 2638.4949,472.9744 Q2639.1797,474.041 2640.5244,474.041 Q2641.1553,474.041 2641.7488,473.7712 Q2642.3423,473.5015 2642.9731,472.9204 Z " fill="#000000"/><text fill="#000000" font-family="sans-serif" font-size="14" lengthAdjust="spacing" textLength="177" x="2654" y="475.291">InstantTimeLocationValue</text><rect fill="#FFFFFF" height="16.1328" style="stroke:#181818;stroke-width:1.0;stroke-dasharray:2.0,2.0;" width="25" x="2839" y="451"/><text fill="#000000" font-family="sans-serif" font-size="12" font-style="italic" lengthAdjust="spacing" textLength="23" x="2840" y="463.6016">root</text><line style="stroke:#181818;stroke-width:0.5;" x1="2626" x2="2860" y1="486" y2="486"/><line style="stroke:#181818;stroke-width:0.5;" x1="2626" x2="2860" y1="494" y2="494"/></g><!--link Location to Address--><g id="link_Location_Address"><path codeLine="14" d="M1813,749.24 C1813,767.02 1813,785.08 1813,802.84 " fill="none" id="Location-to-Address" style="stroke:#181818;stroke-width:1.0;"/><polygon fill="#181818" points="1813,808.84,1817,799.84,1813,803.84,1809,799.84,1813,808.84" style="stroke:#181818;stroke-width:1.0;"/></g><!--link Location to GPSCode--><g id="link_Location_GPSCode"><path codeLine="15" d="M1869.61,725 C1910.87,725 1960,725 1960,725 C1960,725 1960,770.92 1960,802.76 " fill="none" id="Location-to-GPSCode" style="stroke:#181818;stroke-width:1.0;"/><polygon fill="#181818" points="1960,808.76,1964,799.76,1960,803.76,1956,799.76,1960,808.76" style="stroke:#181818;stroke-width:1.0;"/></g><!--link House to Location--><g id="link_House_Location"><path codeLine="16" d="M1811,641.24 C1811,659.02 1811,677.08 1811,694.84 " fill="none" id="House-to-Location" style="stroke:#181818;stroke-width:1.0;"/><polygon fill="#181818" points="1811,700.84,1815,691.84,1811,695.84,1807,691.84,1811,700.84" style="stroke:#181818;stroke-width:1.0;"/></g><!--link Room to Dimensions--><g id="link_Room_Dimensions"><path codeLine="27" d="M1579.5,502.13 C1579.5,549.35 1579.5,647.47 1579.5,694.77 " fill="none" id="Room-to-Dimensions" style="stroke:#181818;stroke-width:1.0;"/><polygon fill="#181818" points="1579.5,700.77,1583.5,691.77,1579.5,695.77,1575.5,691.77,1579.5,700.77" style="stroke:#181818;stroke-width:1.0;"/></g><!--link Room to FloorNumber--><g id="link_Room_FloorNumber"><path codeLine="28" d="M1517.75,502.13 C1517.75,549.35 1517.75,647.47 1517.75,694.77 " fill="none" id="Room-to-FloorNumber" style="stroke:#181818;stroke-width:1.0;"/><polygon fill="#181818" points="1517.75,700.77,1521.75,691.77,1517.75,695.77,1513.75,691.77,1517.75,700.77" style="stroke:#181818;stroke-width:1.0;"/></g><!--link Room to House--><g id="link_Room_House"><path codeLine="31" d="M1589.5,502.21 C1589.5,542.04 1589.5,617 1589.5,617 C1589.5,617 1688.19,617 1753.63,617 " fill="none" id="Room-to-House" style="stroke:#181818;stroke-width:1.0;"/><polygon fill="#181818" points="1759.63,617,1750.63,613,1754.63,617,1750.63,621,1759.63,617" style="stroke:#181818;stroke-width:1.0;"/></g><!--link Device to Model--><g id="link_Device_Model"><path codeLine="41" d="M1213.12,296 C1169.08,296 1113,296 1113,296 C1113,296 1113,398.32 1113,447.83 " fill="none" id="Device-to-Model" style="stroke:#181818;stroke-width:1.0;"/><polygon fill="#181818" points="1113,453.83,1117,444.83,1113,448.83,1109,444.83,1113,453.83" style="stroke:#181818;stroke-width:1.0;"/></g><!--link Device to DeviceStatus--><g id="link_Device_DeviceStatus"><path codeLine="42" d="M1265,320.17 C1265,354.98 1265,412.87 1265,447.73 " fill="none" id="Device-to-DeviceStatus" style="stroke:#181818;stroke-width:1.0;"/><polygon fill="#181818" points="1265,453.73,1269,444.73,1265,448.73,1261,444.73,1265,453.73" style="stroke:#181818;stroke-width:1.0;"/></g><!--link Device to Room--><g id="link_Device_Room"><path codeLine="45" d="M1316.74,296 C1340.18,296 1362.75,296 1362.75,296 C1362.75,296 1362.75,478 1362.75,478 C1362.75,478 1438.84,478 1494.31,478 " fill="none" id="Device-to-Room" style="stroke:#181818;stroke-width:1.0;"/><polygon fill="#181818" points="1500.31,478,1491.31,474,1495.31,478,1491.31,482,1500.31,478" style="stroke:#181818;stroke-width:1.0;"/></g><!--reverse link Actuator to BlindSetterActuator--><g id="link_Actuator_BlindSetterActuator"><path d="M698.36,202 C787.35,202 927,202 927,202 C927,202 927,243.94 927,271.79 " fill="none" id="Actuator-backto-BlindSetterActuator" style="stroke:#181818;stroke-width:1.0;"/><polygon fill="none" points="680.36,202,698.36,208,698.36,196,680.36,202" style="stroke:#181818;stroke-width:1.0;"/></g><!--reverse link Actuator to DecimalSetterActuator--><g id="link_Actuator_DecimalSetterActuator"><path d="M543.85,180 C410.11,180 114,180 114,180 C114,180 114,237.67 114,271.68 " fill="none" id="Actuator-backto-DecimalSetterActuator" style="stroke:#181818;stroke-width:1.0;"/><polygon fill="none" points="561.85,180,543.85,174,543.85,186,561.85,180" style="stroke:#181818;stroke-width:1.0;"/></g><!--reverse link Actuator to IntegerSetterActuator--><g id="link_Actuator_IntegerSetterActuator"><path d="M543.61,196 C458.77,196 331,196 331,196 C331,196 331,241.93 331,271.54 " fill="none" id="Actuator-backto-IntegerSetterActuator" style="stroke:#181818;stroke-width:1.0;"/><polygon fill="none" points="561.61,196,543.61,190,543.61,202,561.61,196" style="stroke:#181818;stroke-width:1.0;"/></g><!--reverse link Actuator to SwitchActuator--><g id="link_Actuator_SwitchActuator"><path d="M576.75,230.24 C576.75,248.02 576.75,254.08 576.75,271.84 " fill="none" id="Actuator-backto-SwitchActuator" style="stroke:#181818;stroke-width:1.0;"/><polygon fill="none" points="576.75,212.24,570.75,230.24,582.75,230.24,576.75,212.24" style="stroke:#181818;stroke-width:1.0;"/></g><!--link ActuatorProperties to RangeInt--><g id="link_ActuatorProperties_RangeInt"><path codeLine="78" d="M809.42,296 C824.99,296 836.25,296 836.25,296 C836.25,296 836.25,398.32 836.25,447.83 " fill="none" id="ActuatorProperties-to-RangeInt" style="stroke:#181818;stroke-width:1.0;"/><polygon fill="#181818" points="836.25,453.83,840.25,444.83,836.25,448.83,832.25,444.83,836.25,453.83" style="stroke:#181818;stroke-width:1.0;"/></g><!--link ActuatorProperties to RangeDecimal--><g id="link_ActuatorProperties_RangeDecimal"><path codeLine="79" d="M718,320.17 C718,354.98 718,412.87 718,447.73 " fill="none" id="ActuatorProperties-to-RangeDecimal" style="stroke:#181818;stroke-width:1.0;"/><polygon fill="#181818" points="718,453.73,722,444.73,718,448.73,714,444.73,718,453.73" style="stroke:#181818;stroke-width:1.0;"/></g><!--link SwitchActuator to SwitchActuatorStatus--><g id="link_SwitchActuator_SwitchActuatorStatus"><path codeLine="81" d="M524,320.17 C524,354.98 524,412.87 524,447.73 " fill="none" id="SwitchActuator-to-SwitchActuatorStatus" style="stroke:#181818;stroke-width:1.0;"/><polygon fill="#181818" points="524,453.73,528,444.73,524,448.73,520,444.73,524,453.73" style="stroke:#181818;stroke-width:1.0;"/></g><!--link DecimalSetterActuator to ActuatorTarget--><g id="link_DecimalSetterActuator_ActuatorTarget"><path codeLine="82" d="M114,320.17 C114,354.98 114,412.87 114,447.73 " fill="none" id="DecimalSetterActuator-to-ActuatorTarget" style="stroke:#181818;stroke-width:1.0;"/><polygon fill="#181818" points="114,453.73,118,444.73,114,448.73,110,444.73,114,453.73" style="stroke:#181818;stroke-width:1.0;"/></g><!--link Actuator to Device--><g id="link_Actuator_Device"><path codeLine="84" d="M680.25,186 C836.51,186 1247.83,186 1247.83,186 C1247.83,186 1247.83,233.18 1247.83,265.59 " fill="none" id="Actuator-to-Device" style="stroke:#181818;stroke-width:1.0;"/><polygon fill="#181818" points="1247.83,271.59,1251.83,262.59,1247.83,266.59,1243.83,262.59,1247.83,271.59" style="stroke:#181818;stroke-width:1.0;"/></g><!--link Actuator to ActuatorProperties--><g id="link_Actuator_ActuatorProperties"><path codeLine="85" d="M653.5,212.24 C653.5,230.02 653.5,248.08 653.5,265.84 " fill="none" id="Actuator-to-ActuatorProperties" style="stroke:#181818;stroke-width:1.0;"/><polygon fill="#181818" points="653.5,271.84,657.5,262.84,653.5,266.84,649.5,262.84,653.5,271.84" style="stroke:#181818;stroke-width:1.0;"/></g><!--reverse link ActuatorFunctionality to Actuator--><g id="link_ActuatorFunctionality_Actuator"><path codeLine="93" d="M621,95.3 C621,116.86 621,142.2 621,163.75 " fill="none" id="ActuatorFunctionality-backto-Actuator" style="stroke:#181818;stroke-width:1.0;"/><polygon fill="#181818" points="621,89.3,617,98.3,621,94.3,625,98.3,621,89.3" style="stroke:#181818;stroke-width:1.0;"/></g><!--reverse link Sensor to BinaryStatusSensor--><g id="link_Sensor_BinaryStatusSensor"><path d="M2493.59,175 C2274.35,175 1473,175 1473,175 C1473,175 1473,236.16 1473,271.51 " fill="none" id="Sensor-backto-BinaryStatusSensor" style="stroke:#181818;stroke-width:1.0;"/><polygon fill="none" points="2511.59,175,2493.59,169,2493.59,181,2511.59,175" style="stroke:#181818;stroke-width:1.0;"/></g><!--reverse link Sensor to DewPointSensor--><g id="link_Sensor_DewPointSensor"><path d="M2493.59,196 C2386.78,196 2175,196 2175,196 C2175,196 2175,241.93 2175,271.54 " fill="none" id="Sensor-backto-DewPointSensor" style="stroke:#181818;stroke-width:1.0;"/><polygon fill="none" points="2511.59,196,2493.59,190,2493.59,202,2511.59,196" style="stroke:#181818;stroke-width:1.0;"/></g><!--reverse link Sensor to ElectricEnergyConsumptionSensor--><g id="link_Sensor_ElectricEnergyConsumptionSensor"><path d="M2493.69,180 C2308.6,180 1723,180 1723,180 C1723,180 1723,237.67 1723,271.68 " fill="none" id="Sensor-backto-ElectricEnergyConsumptionSensor" style="stroke:#181818;stroke-width:1.0;"/><polygon fill="none" points="2511.69,180,2493.69,174,2493.69,186,2511.69,180" style="stroke:#181818;stroke-width:1.0;"/></g><!--reverse link Sensor to HumidityPercentageSensor--><g id="link_Sensor_HumidityPercentageSensor"><path d="M2636.12,199 C2738.03,199 2933,199 2933,199 C2933,199 2933,242.79 2933,271.52 " fill="none" id="Sensor-backto-HumidityPercentageSensor" style="stroke:#181818;stroke-width:1.0;"/><polygon fill="none" points="2618.12,199,2636.12,205,2636.12,193,2618.12,199" style="stroke:#181818;stroke-width:1.0;"/></g><!--reverse link Sensor to PowerAverageSensor--><g id="link_Sensor_PowerAverageSensor"><path d="M2493.53,191 C2349.12,191 1980,191 1980,191 C1980,191 1980,240.63 1980,271.65 " fill="none" id="Sensor-backto-PowerAverageSensor" style="stroke:#181818;stroke-width:1.0;"/><polygon fill="none" points="2511.53,191,2493.53,185,2493.53,197,2511.53,191" style="stroke:#181818;stroke-width:1.0;"/></g><!--reverse link Sensor to ScaleSensor--><g id="link_Sensor_ScaleSensor"><path d="M2636.44,192 C2777.83,192 3133,192 3133,192 C3133,192 3133,240.88 3133,271.62 " fill="none" id="Sensor-backto-ScaleSensor" style="stroke:#181818;stroke-width:1.0;"/><polygon fill="none" points="2618.44,192,2636.44,198,2636.44,186,2618.44,192" style="stroke:#181818;stroke-width:1.0;"/></g><!--reverse link Sensor to SolarIrradianceSensor--><g id="link_Sensor_SolarIrradianceSensor"><path d="M2493.52,207 C2436.71,207 2373,207 2373,207 C2373,207 2373,245.33 2373,271.68 " fill="none" id="Sensor-backto-SolarIrradianceSensor" style="stroke:#181818;stroke-width:1.0;"/><polygon fill="none" points="2511.52,207,2493.52,201,2493.52,213,2511.52,207" style="stroke:#181818;stroke-width:1.0;"/></g><!--reverse link Sensor to SpecificTimePowerConsumptionSensor--><g id="link_Sensor_SpecificTimePowerConsumptionSensor"><path d="M2636.46,185 C2817.02,185 3375,185 3375,185 C3375,185 3375,238.97 3375,271.64 " fill="none" id="Sensor-backto-SpecificTimePowerConsumptionSensor" style="stroke:#181818;stroke-width:1.0;"/><polygon fill="none" points="2618.46,185,2636.46,191,2636.46,179,2618.46,185" style="stroke:#181818;stroke-width:1.0;"/></g><!--reverse link Sensor to SunriseSensor--><g id="link_Sensor_SunriseSensor"><path d="M2565,230.24 C2565,248.02 2565,254.08 2565,271.84 " fill="none" id="Sensor-backto-SunriseSensor" style="stroke:#181818;stroke-width:1.0;"/><polygon fill="none" points="2565,212.24,2559,230.24,2571,230.24,2565,212.24" style="stroke:#181818;stroke-width:1.0;"/></g><!--reverse link Sensor to SunsetSensor--><g id="link_Sensor_SunsetSensor"><path d="M2636.37,206 C2683.91,206 2728,206 2728,206 C2728,206 2728,245.22 2728,271.88 " fill="none" id="Sensor-backto-SunsetSensor" style="stroke:#181818;stroke-width:1.0;"/><polygon fill="none" points="2618.37,206,2636.37,212,2636.37,200,2618.37,206" style="stroke:#181818;stroke-width:1.0;"/></g><!--reverse link Sensor to TemperatureCelsiusSensor--><g id="link_Sensor_TemperatureCelsiusSensor"><path d="M2636.25,178 C2856.78,178 3669,178 3669,178 C3669,178 3669,236.99 3669,271.55 " fill="none" id="Sensor-backto-TemperatureCelsiusSensor" style="stroke:#181818;stroke-width:1.0;"/><polygon fill="none" points="2618.25,178,2636.25,184,2636.25,172,2618.25,178" style="stroke:#181818;stroke-width:1.0;"/></g><!--reverse link Sensor to WindSpeedAndDirectionSensor--><g id="link_Sensor_WindSpeedAndDirectionSensor"><path d="M2636.29,171 C2888.82,171 3935,171 3935,171 C3935,171 3935,235.22 3935,271.6 " fill="none" id="Sensor-backto-WindSpeedAndDirectionSensor" style="stroke:#181818;stroke-width:1.0;"/><polygon fill="none" points="2618.29,171,2636.29,177,2636.29,165,2618.29,171" style="stroke:#181818;stroke-width:1.0;"/></g><!--link Sensor to Device--><g id="link_Sensor_Device"><path codeLine="135" d="M2511.51,170 C2268.73,170 1282.17,170 1282.17,170 C1282.17,170 1282.17,229.09 1282.17,265.71 " fill="none" id="Sensor-to-Device" style="stroke:#181818;stroke-width:1.0;"/><polygon fill="#181818" points="1282.17,271.71,1286.17,262.71,1282.17,266.71,1278.17,262.71,1282.17,271.71" style="stroke:#181818;stroke-width:1.0;"/></g><!--reverse link SensorFunctionality to Sensor--><g id="link_SensorFunctionality_Sensor"><path codeLine="143" d="M2565,95.3 C2565,116.86 2565,142.2 2565,163.75 " fill="none" id="SensorFunctionality-backto-Sensor" style="stroke:#181818;stroke-width:1.0;"/><polygon fill="#181818" points="2565,89.3,2561,98.3,2565,94.3,2569,98.3,2565,89.3" style="stroke:#181818;stroke-width:1.0;"/></g><!--link InstantTimeValue to Reading--><g id="link_InstantTimeValue_Reading"><path codeLine="162" d="M2924.922,478 C2924.8089,478 2924.6949,478 2924.5803,478 C2924.3509,478 2924.1186,478 2923.8836,478 C2923.4136,478 2922.9326,478 2922.4426,478 C2921.4626,478 2920.4464,478 2919.4087,478 C2917.3332,478 2915.1716,478 2913.0413,478 C2904.52,478 2896.5,478 2896.5,478 C2896.5,478 2896.5,625 2896.5,625 C2896.5,625 2738.96,625 2650.8,625 " fill="none" id="InstantTimeValue-to-Reading" style="stroke:#FF0000;stroke-width:1.0;"/><polygon fill="#FF0000" points="2644.8,625,2653.8,629,2649.8,625,2653.8,621,2644.8,625" style="stroke:#FF0000;stroke-width:1.0;"/></g><!--link TemperatureCelsiusSensor to InstantTimeValue--><g id="link_TemperatureCelsiusSensor_InstantTimeValue"><path codeLine="163" d="M3669,320.33 C3669,331.79 3669,343 3669,343 C3669,343 2933.33,343 2933.33,343 C2933.33,343 2933.33,374.6725 2933.33,407.335 C2933.33,408.3557 2933.33,403.3774 2933.33,404.3991 " fill="none" id="TemperatureCelsiusSensor-to-InstantTimeValue" style="stroke:#FF0000;stroke-width:1.0;"/><polygon fill="#FF0000" points="2933.33,410.3991,2937.33,401.3991,2933.33,405.3991,2929.33,401.3991,2933.33,410.3991" style="stroke:#FF0000;stroke-width:1.0;"/></g><!--link HumidityPercentageSensor to InstantTimeValue--><g id="link_HumidityPercentageSensor_InstantTimeValue"><path codeLine="164" d="M2932.67,320.17 C2932.67,331.965 2932.67,347.1 2932.67,363.3136 C2932.67,371.4204 2932.67,379.7968 2932.67,388.1603 C2932.67,392.342 2932.67,396.5204 2932.67,400.6603 C2932.67,402.7302 2932.67,404.7905 2932.67,406.8367 C2932.67,407.8598 2932.67,408.8794 2932.67,409.8949 C2932.67,410.1488 2932.67,404.4024 2932.67,404.6558 " fill="none" id="HumidityPercentageSensor-to-InstantTimeValue" style="stroke:#FF0000;stroke-width:1.0;"/><polygon fill="#FF0000" points="2932.67,410.6558,2936.67,401.6558,2932.67,405.6558,2928.67,401.6558,2932.67,410.6558" style="stroke:#FF0000;stroke-width:1.0;"/></g><!--link ScaleSensor to InstantTimeValue--><g id="link_ScaleSensor_InstantTimeValue"><path codeLine="165" d="M3168,320.16 C3168,383.24 3168,548 3168,548 C3168,548 2933.33,548 2933.33,548 C2933.33,548 2933.33,544.155 2933.33,538.2673 C2933.33,535.3235 2933.33,531.869 2933.33,528.1292 C2933.33,527.6617 2933.33,527.1897 2933.33,526.7138 C2933.33,526.5948 2933.33,532.4755 2933.33,532.3561 " fill="none" id="ScaleSensor-to-InstantTimeValue" style="stroke:#FF0000;stroke-width:1.0;"/><polygon fill="#FF0000" points="2933.33,526.3561,2929.33,535.3561,2933.33,531.3561,2937.33,535.3561,2933.33,526.3561" style="stroke:#FF0000;stroke-width:1.0;"/></g><!--link SpecificTimePowerConsumptionSensor to InstantTimeValue--><g id="link_SpecificTimePowerConsumptionSensor_InstantTimeValue"><path codeLine="166" d="M3375,320.13 C3375,340.03 3375,365 3375,365 C3375,365 2951,365 2951,365 C2951,365 2951,372.0625 2951,382.6563 C2951,387.9531 2951,394.1328 2951,400.7539 C2951,404.0645 2951,401.4854 2951,404.9614 " fill="none" id="SpecificTimePowerConsumptionSensor-to-InstantTimeValue" style="stroke:#FF0000;stroke-width:1.0;"/><polygon fill="#FF0000" points="2951,410.9614,2955,401.9614,2951,405.9614,2947,401.9614,2951,410.9614" style="stroke:#FF0000;stroke-width:1.0;"/></g><!--link WindSpeedAndDirectionSensor to InstantTimeValue--><g id="link_WindSpeedAndDirectionSensor_InstantTimeValue"><path codeLine="167" d="M3935,320.3 C3935,393.84 3935,609 3935,609 C3935,609 2932.67,609 2932.67,609 C2932.67,609 2932.67,578.265 2932.67,546.57 C2932.67,542.6081 2932.67,538.6313 2932.67,534.6975 C2932.67,532.7307 2932.67,530.7746 2932.67,528.8366 C2932.67,528.3521 2932.67,527.8687 2932.67,527.3866 C2932.67,527.1455 2932.67,532.9048 2932.67,532.6643 " fill="none" id="WindSpeedAndDirectionSensor-to-InstantTimeValue" style="stroke:#FF0000;stroke-width:1.0;"/><polygon fill="#FF0000" points="2932.67,526.6643,2928.67,535.6643,2932.67,531.6643,2936.67,535.6643,2932.67,526.6643" style="stroke:#FF0000;stroke-width:1.0;"/></g><!--link PeriodTimeValue to Reading--><g id="link_PeriodTimeValue_Reading"><path codeLine="169" d="M2307,526.5906 C2307,526.8427 2307,527.0952 2307,527.3481 C2307,527.854 2307,528.3614 2307,528.8702 C2307,529.8879 2307,530.9113 2307,531.9395 C2307,533.9959 2307,536.0715 2307,538.1585 C2307,542.3325 2307,546.5523 2307,550.7563 C2307,584.3875 2307,617 2307,617 C2307,617 2446.8,617 2529.1,617 " fill="none" id="PeriodTimeValue-to-Reading" style="stroke:#008000;stroke-width:1.0;"/><polygon fill="#008000" points="2535.1,617,2526.1,613,2530.1,617,2526.1,621,2535.1,617" style="stroke:#008000;stroke-width:1.0;"/></g><!--link PowerAverageSensor to PeriodTimeValue--><g id="link_PowerAverageSensor_PeriodTimeValue"><path codeLine="170" d="M2043,320.17 C2043,369.68 2043,478 2043,478 C2043,478 2104.94,478 2168.815,478 C2200.7525,478 2233.1738,478 2258.5781,478 C2271.2803,478 2282.2283,478 2290.4845,478 C2292.5485,478 2294.4443,478 2296.1572,478 C2297.0137,478 2291.8244,478 2292.5876,478 " fill="none" id="PowerAverageSensor-to-PeriodTimeValue" style="stroke:#008000;stroke-width:1.0;"/><polygon fill="#008000" points="2298.5876,478,2289.5876,474,2293.5876,478,2289.5876,482,2298.5876,478" style="stroke:#008000;stroke-width:1.0;"/></g><!--link ElectricEnergyConsumptionSensor to PeriodTimeValue--><g id="link_ElectricEnergyConsumptionSensor_PeriodTimeValue"><path codeLine="171" d="M1808.5,320.36 C1808.5,367.36 1808.5,466 1808.5,466 C1808.5,466 1933.125,466 2057.75,466 C2120.0625,466 2182.375,466 2229.1094,466 C2252.4766,466 2271.9492,466 2285.5801,466 C2288.9878,466 2292.0304,466 2294.6775,466 C2296.001,466 2291.2256,466 2292.3476,466 " fill="none" id="ElectricEnergyConsumptionSensor-to-PeriodTimeValue" style="stroke:#008000;stroke-width:1.0;"/><polygon fill="#008000" points="2298.3476,466,2289.3476,462,2293.3476,466,2289.3476,470,2298.3476,466" style="stroke:#008000;stroke-width:1.0;"/></g><!--link InstantTimeLocationValue to Reading--><g id="link_InstantTimeLocationValue_Reading"><path codeLine="173" d="M2590,526.1202 C2590,526.3026 2590,526.4851 2590,526.6678 C2590,527.0333 2590,527.3997 2590,527.7668 C2590,529.2354 2590,530.7168 2590,532.208 C2590,535.1906 2590,538.2127 2590,541.2508 C2590,547.327 2590,553.4675 2590,559.4844 C2590,571.5181 2590,577.0575 2590,586.6 " fill="none" id="InstantTimeLocationValue-to-Reading" style="stroke:#0000FF;stroke-width:1.0;"/><polygon fill="#0000FF" points="2590,592.6,2594,583.6,2590,587.6,2586,583.6,2590,592.6" style="stroke:#0000FF;stroke-width:1.0;"/></g><!--link SunsetSensor to InstantTimeLocationValue--><g id="link_SunsetSensor_InstantTimeLocationValue"><path codeLine="174" d="M2728,320.31 C2728,339.87 2728,367.7925 2728,390.825 C2728,396.5831 2728,402.0356 2728,406.9754 C2728,408.2104 2728,403.4133 2728,404.5809 " fill="none" id="SunsetSensor-to-InstantTimeLocationValue" style="stroke:#0000FF;stroke-width:1.0;"/><polygon fill="#0000FF" points="2728,410.5809,2732,401.5809,2728,405.5809,2724,401.5809,2728,410.5809" style="stroke:#0000FF;stroke-width:1.0;"/></g><!--link SunriseSensor to InstantTimeLocationValue--><g id="link_SunriseSensor_InstantTimeLocationValue"><path codeLine="175" d="M2590.33,320.17 C2590.33,331.965 2590.33,347.1 2590.33,363.3136 C2590.33,371.4204 2590.33,379.7968 2590.33,388.1603 C2590.33,392.342 2590.33,396.5204 2590.33,400.6603 C2590.33,402.7302 2590.33,404.7905 2590.33,406.8367 C2590.33,407.8598 2590.33,408.8794 2590.33,409.8949 C2590.33,410.1488 2590.33,404.4024 2590.33,404.6558 " fill="none" id="SunriseSensor-to-InstantTimeLocationValue" style="stroke:#0000FF;stroke-width:1.0;"/><polygon fill="#0000FF" points="2590.33,410.6558,2594.33,401.6558,2590.33,405.6558,2586.33,401.6558,2590.33,410.6558" style="stroke:#0000FF;stroke-width:1.0;"/></g><!--link DewPointSensor to InstantTimeLocationValue--><g id="link_DewPointSensor_InstantTimeLocationValue"><path codeLine="176" d="M2175,320.39 C2175,347.34 2175,387 2175,387 C2175,387 2589.67,387 2589.67,387 C2589.67,387 2589.67,392.1669 2589.67,400.0383 C2589.67,402.0061 2589.67,404.143 2589.67,406.4105 C2589.67,407.5442 2589.67,408.7105 2589.67,409.9047 C2589.67,410.2033 2589.67,404.5036 2589.67,404.8055 " fill="none" id="DewPointSensor-to-InstantTimeLocationValue" style="stroke:#0000FF;stroke-width:1.0;"/><polygon fill="#0000FF" points="2589.67,410.8055,2593.67,401.8055,2589.67,405.8055,2585.67,401.8055,2589.67,410.8055" style="stroke:#0000FF;stroke-width:1.0;"/></g><!--link SolarIrradianceSensor to InstantTimeLocationValue--><g id="link_SolarIrradianceSensor_InstantTimeLocationValue"><path codeLine="177" d="M2403.5,320.46 C2403.5,353.95 2403.5,410 2403.5,410 C2403.5,410 2526.5,410 2526.5,410 C2526.5,410 2526.5,478 2526.5,478 C2526.5,478 2540.4525,478 2555.2775,478 C2562.69,478 2570.3206,478 2576.5344,478 C2578.0878,478 2579.5527,478 2580.9035,478 C2581.2412,478 2575.5717,478 2575.8948,478 " fill="none" id="SolarIrradianceSensor-to-InstantTimeLocationValue" style="stroke:#0000FF;stroke-width:1.0;"/><polygon fill="#0000FF" points="2581.8948,478,2572.8948,474,2576.8948,478,2572.8948,482,2581.8948,478" style="stroke:#0000FF;stroke-width:1.0;"/></g><!--SRC=[dLPDZvim4BtdLo3rq1FTUxMAb6xsI-f7LABjeUh1Qq-9jSP6nYIDglpt3WQ2CIQGxeKDyzxuZVrcpFkTCNdnyUOc5qIQCXCVgCfkg2154JDEKasoHV76PKxmlqXm2UQOGwIqsQd58YVqZQGGxLHPm2fDDQJ4GFHt4U6VJH8zLQ7eLYjbblNxanFzh2WnNCdezkLR8BnYJ0C-mz77JNAd6FIYzd7E6iVBDiSmqD1je5PfNvz1YrDN8ChFmlLznyXeUGz2AVsrp5v1ZzImvXd80bShXcNOr76bgKDv0MU1IcwpsN6PnnRK5S1WpsbtH6u5QniQhU4Bxf4Og0TPPWqpCSIK0VbDtagcpU6_TDcL-7E8gODSUle9DIKnIdiLaDV2Q8orVcbGNZ5EDP_GmYm1Oq2VmV37W6GTEq1R0-KP4TSJdwM15FJrnEJ03TrTmsX36wroq8P3u4mQpnAP0Ygx66zA7cBiqVVbZLcWBsnBT0g1HGF2At-qAYSnZT8wcRTl5IYajJ5Zw5JjqEX9xikCh47F1lPY3hdJwewIriaFfQJLc262csDujgn2qCRRKRk5cBfR7Hj_6QPr0WeS9KuZHS5EIYpeGXznIVIntii6srgq_XbieiD6SMdcuky5KACvlPUWq-CTJhyoowk2vYPuAZFEiFODQ0hIOF5pcHjrG4ViGL_1IIWHyy5A4FsiDS5BLjBvj1mj-vlJBLu8LkD_x4fIIiqBk09UmEmpsqA6daTNQBW3KV3vxlXH3UOSWAqaMtCDT5vD3QAxKDnUgwq-ezEI8J3GP-rQjii2b6xXFH5bSqMrhvvbOV0JgpgvboxgtXJzUA_tkeltr4kApkQAZURqmhDIEZhQBw4flJtSw2Bk1GFeUvaEhuB19iG_tsbWlwfHNtCiRDHb7TpFL7_cZGs42PxRsbFGwGwTo72f4IvGBTS_SCIZtK7w6nYORoxKIsCfKzFu4jy_sxvXaFcAJrzZR_0ucB4yBSaPRdDPtiqqUx7W49_3FYt-0G00]--></g></svg>