<?xml version="1.0" encoding="us-ascii" standalone="no"?><svg xmlns="http://www.w3.org/2000/svg" xmlns:xlink="http://www.w3.org/1999/xlink" contentStyleType="text/css" height="442px" preserveAspectRatio="none" style="width:2581px;height:442px;background:#FFFFFF;" version="1.1" viewBox="0 0 2581 442" width="2581px" zoomAndPan="magnify"><defs/><g><rect fill="#F1F1F1" height="38.6211" rx="12.5" ry="12.5" style="stroke:#181818;stroke-width:1.5;" width="56.3333" x="1261.3333" y="10"/><path d="M1277,25.7878 C1274.4217,25.7878 1272.3333,27.8761 1272.3333,30.4544 C1272.3333,33.0328 1274.4217,35.1211 1277,35.1211 C1279.5783,35.1211 1281.6667,33.0328 1281.6667,30.4544 C1281.6667,27.8761 1279.5783,25.7878 1277,25.7878 M1277,26.9544 C1277.385,26.9544 1277.7467,27.0594 1278.0967,27.1761 C1277.8517,27.4094 1277.5717,27.6194 1277.6183,27.8294 C1277.665,28.0394 1278.4233,27.9811 1278.4233,28.4128 C1278.4233,28.7278 1277.9333,28.8211 1278.2717,29.1828 C1278.68,29.5911 1277.525,30.3261 1277.5017,30.8628 C1277.4667,31.8311 1278.4817,31.9944 1279.2867,31.9944 C1279.7767,31.9944 1279.905,32.2278 1279.87,32.5078 C1279.24,33.4061 1278.1667,33.9661 1276.9883,33.9661 C1276.545,33.9661 1276.1367,33.8611 1275.7517,33.7094 C1276.0083,33.1961 1275.425,32.1811 1274.8767,31.8544 C1274.6083,31.5861 1274.0367,31.6911 1273.71,31.5628 C1273.605,31.2478 1273.5,30.9328 1273.4883,30.5828 C1273.5233,30.5244 1273.5817,30.4778 1273.675,30.4778 C1273.8967,30.4778 1274.2,30.9211 1274.3633,30.8744 C1274.5733,30.8278 1273.5,29.3461 1274.0017,29.0544 C1274.235,28.9144 1274.7017,29.5094 1274.55,28.8678 C1274.41,28.2728 1274.97,28.5411 1275.32,28.3894 C1275.6233,28.2611 1275.845,27.9111 1275.4717,27.7011 C1275.4017,27.6661 1275.32,27.5844 1275.215,27.4794 C1275.74,27.1644 1276.3467,26.9661 1277,26.9661 M1279.695,28.2261 C1279.905,28.4828 1280.0683,28.7628 1280.2083,29.0661 C1280.2083,29.0778 1280.2083,29.0894 1280.2083,29.1011 C1280.1617,29.1828 1280.08,29.2294 1279.9517,29.3578 C1279.625,29.6844 1279.5783,29.1128 1279.4383,28.9961 C1279.2867,28.8561 1278.7383,29.0194 1278.6683,28.8444 C1278.5867,28.6344 1279.2517,28.3544 1279.695,28.2261 " fill="#000000" style="stroke:;stroke-width:0.0;stroke-dasharray:;"/><text fill="#000000" font-family="sans-serif" font-size="14" lengthAdjust="spacing" textLength="25" x="1282.6667" y="35.1074">App</text><rect fill="#F1F1F1" height="38.6211" rx="12.5" ry="12.5" style="stroke:#181818;stroke-width:1.5;" width="107" x="903.5" y="73.6211"/><text fill="#000000" font-family="sans-serif" font-size="14" lengthAdjust="spacing" textLength="87" x="913.5" y="98.7285">sidebar-menu</text><rect fill="#F1F1F1" height="38.6211" rx="12.5" ry="12.5" style="stroke:#181818;stroke-width:1.5;" width="83" x="301" y="137.2422"/><text fill="#000000" font-family="sans-serif" font-size="14" lengthAdjust="spacing" textLength="63" x="311" y="162.3496">MainPage</text><rect fill="#F1F1F1" height="38.6211" rx="12.5" ry="12.5" style="stroke:#181818;stroke-width:1.5;" width="81" x="20" y="200.8633"/><text fill="#000000" font-family="sans-serif" font-size="14" lengthAdjust="spacing" textLength="61" x="30" y="225.9707">DateTime</text><path d="M342.5,175.8633 L342.5,178.8633 C342.5,185.8633 60.5,190.8633 60.5,197.8633 L60.5,200.8633 " fill="none" style="stroke:#181818;stroke-width:1.0;"/><rect fill="#F1F1F1" height="38.6211" rx="12.5" ry="12.5" style="stroke:#181818;stroke-width:1.5;" width="102" x="121" y="200.8633"/><text fill="#000000" font-family="sans-serif" font-size="14" lengthAdjust="spacing" textLength="82" x="131" y="225.9707">Temperature</text><path d="M342.5,175.8633 L342.5,178.8633 C342.5,185.8633 172,190.8633 172,197.8633 L172,200.8633 " fill="none" style="stroke:#181818;stroke-width:1.0;"/><rect fill="#F1F1F1" height="38.6211" rx="12.5" ry="12.5" style="stroke:#181818;stroke-width:1.5;" width="73" x="243" y="200.8633"/><text fill="#000000" font-family="sans-serif" font-size="14" lengthAdjust="spacing" textLength="53" x="253" y="225.9707">Humidity</text><path d="M342.5,175.8633 L342.5,178.8633 C342.5,185.8633 279.5,190.8633 279.5,197.8633 L279.5,200.8633 " fill="none" style="stroke:#181818;stroke-width:1.0;"/><rect fill="#F1F1F1" height="38.6211" rx="12.5" ry="12.5" style="stroke:#181818;stroke-width:1.5;" width="68" x="336" y="200.8633"/><text fill="#000000" font-family="sans-serif" font-size="14" lengthAdjust="spacing" textLength="48" x="346" y="225.9707">Sunrise</text><path d="M342.5,175.8633 L342.5,178.8633 C342.5,185.8633 370,190.8633 370,197.8633 L370,200.8633 " fill="none" style="stroke:#181818;stroke-width:1.0;"/><rect fill="#F1F1F1" height="38.6211" rx="12.5" ry="12.5" style="stroke:#181818;stroke-width:1.5;" width="64" x="424" y="200.8633"/><text fill="#000000" font-family="sans-serif" font-size="14" lengthAdjust="spacing" textLength="44" x="434" y="225.9707">Sunset</text><path d="M342.5,175.8633 L342.5,178.8633 C342.5,185.8633 456,190.8633 456,197.8633 L456,200.8633 " fill="none" style="stroke:#181818;stroke-width:1.0;"/><rect fill="#F1F1F1" height="38.6211" rx="12.5" ry="12.5" style="stroke:#181818;stroke-width:1.5;" width="86" x="508" y="200.8633"/><text fill="#000000" font-family="sans-serif" font-size="14" lengthAdjust="spacing" textLength="66" x="518" y="225.9707">CopyRight</text><path d="M342.5,175.8633 L342.5,178.8633 C342.5,185.8633 551,190.8633 551,197.8633 L551,200.8633 " fill="none" style="stroke:#181818;stroke-width:1.0;"/><rect fill="#F1F1F1" height="38.6211" rx="12.5" ry="12.5" style="stroke:#181818;stroke-width:1.5;" width="51" x="614" y="200.8633"/><text fill="#000000" font-family="sans-serif" font-size="14" lengthAdjust="spacing" textLength="31" x="624" y="225.9707">Orbit</text><path d="M342.5,175.8633 L342.5,178.8633 C342.5,185.8633 639.5,190.8633 639.5,197.8633 L639.5,200.8633 " fill="none" style="stroke:#181818;stroke-width:1.0;"/><path d="M957,112.2422 L957,115.2422 C957,122.2422 342.5,127.2422 342.5,134.2422 L342.5,137.2422 " fill="none" style="stroke:#181818;stroke-width:1.0;"/><rect fill="#F1F1F1" height="38.6211" rx="12.5" ry="12.5" style="stroke:#181818;stroke-width:1.5;" width="56" x="404" y="137.2422"/><text fill="#000000" font-family="sans-serif" font-size="14" lengthAdjust="spacing" textLength="36" x="414" y="162.3496">Home</text><path d="M957,112.2422 L957,115.2422 C957,122.2422 432,127.2422 432,134.2422 L432,137.2422 " fill="none" style="stroke:#181818;stroke-width:1.0;"/><rect fill="#F1F1F1" height="38.6211" rx="12.5" ry="12.5" style="stroke:#181818;stroke-width:1.5;" width="64" x="910.5" y="137.2422"/><text fill="#000000" font-family="sans-serif" font-size="14" lengthAdjust="spacing" textLength="44" x="920.5" y="162.3496">Rooms</text><rect fill="#F1F1F1" height="38.6211" rx="12.5" ry="12.5" style="stroke:#181818;stroke-width:1.5;" width="79" x="903" y="200.8633"/><text fill="#000000" font-family="sans-serif" font-size="14" lengthAdjust="spacing" textLength="59" x="913" y="225.9707">RoomList</text><rect fill="#F1F1F1" height="38.6211" rx="12.5" ry="12.5" style="stroke:#181818;stroke-width:1.5;" width="107" x="889" y="264.4844"/><text fill="#000000" font-family="sans-serif" font-size="14" lengthAdjust="spacing" textLength="87" x="899" y="289.5918">RoomDevices</text><rect fill="#F1F1F1" height="38.6211" rx="12.5" ry="12.5" style="stroke:#181818;stroke-width:1.5;" width="116" x="685" y="328.1055"/><text fill="#000000" font-family="sans-serif" font-size="14" lengthAdjust="spacing" textLength="96" x="695" y="353.2129">AddNewSensor</text><path d="M942.5,303.1055 L942.5,306.1055 C942.5,313.1055 743,318.1055 743,325.1055 L743,328.1055 " fill="none" style="stroke:#181818;stroke-width:1.0;"/><rect fill="#F1F1F1" height="38.6211" rx="12.5" ry="12.5" style="stroke:#181818;stroke-width:1.5;" width="124" x="821" y="328.1055"/><text fill="#000000" font-family="sans-serif" font-size="14" lengthAdjust="spacing" textLength="104" x="831" y="353.2129">AddNewActuator</text><path d="M942.5,303.1055 L942.5,306.1055 C942.5,313.1055 883,318.1055 883,325.1055 L883,328.1055 " fill="none" style="stroke:#181818;stroke-width:1.0;"/><rect fill="#F1F1F1" height="38.6211" rx="12.5" ry="12.5" style="stroke:#181818;stroke-width:1.5;" width="156" x="965" y="328.1055"/><text fill="#000000" font-family="sans-serif" font-size="14" lengthAdjust="spacing" textLength="136" x="975" y="353.2129">DeviceMeasurements</text><rect fill="#F1F1F1" height="38.6211" rx="12.5" ry="12.5" style="stroke:#181818;stroke-width:1.5;" width="181" x="886" y="391.7266"/><text fill="#000000" font-family="sans-serif" font-size="14" lengthAdjust="spacing" textLength="161" x="896" y="416.834">DateTimeRangeCalender</text><path d="M1043,366.7266 L1043,369.7266 C1043,376.7266 976.5,381.7266 976.5,388.7266 L976.5,391.7266 " fill="none" style="stroke:#181818;stroke-width:1.0;"/><rect fill="#F1F1F1" height="38.6211" rx="12.5" ry="12.5" style="stroke:#181818;stroke-width:1.5;" width="113" x="1087" y="391.7266"/><text fill="#000000" font-family="sans-serif" font-size="14" lengthAdjust="spacing" textLength="93" x="1097" y="416.834">Measurements</text><path d="M1043,366.7266 L1043,369.7266 C1043,376.7266 1143.5,381.7266 1143.5,388.7266 L1143.5,391.7266 " fill="none" style="stroke:#181818;stroke-width:1.0;"/><path d="M942.5,303.1055 L942.5,306.1055 C942.5,313.1055 1043,318.1055 1043,325.1055 L1043,328.1055 " fill="none" style="stroke:#181818;stroke-width:1.0;"/><path d="M942.5,239.4844 L942.5,242.4844 C942.5,249.4844 942.5,254.4844 942.5,261.4844 L942.5,264.4844 " fill="none" style="stroke:#181818;stroke-width:1.0;"/><rect fill="#F1F1F1" height="38.6211" rx="12.5" ry="12.5" style="stroke:#181818;stroke-width:1.5;" width="114" x="1016" y="264.4844"/><text fill="#000000" font-family="sans-serif" font-size="14" lengthAdjust="spacing" textLength="94" x="1026" y="289.5918">AddNewDevice</text><path d="M942.5,239.4844 L942.5,242.4844 C942.5,249.4844 1073,254.4844 1073,261.4844 L1073,264.4844 " fill="none" style="stroke:#181818;stroke-width:1.0;"/><path d="M942.5,175.8633 L942.5,178.8633 C942.5,185.8633 942.5,190.8633 942.5,197.8633 L942.5,200.8633 " fill="none" style="stroke:#181818;stroke-width:1.0;"/><path d="M957,112.2422 L957,115.2422 C957,122.2422 942.5,127.2422 942.5,134.2422 L942.5,137.2422 " fill="none" style="stroke:#181818;stroke-width:1.0;"/><rect fill="#F1F1F1" height="38.6211" rx="12.5" ry="12.5" style="stroke:#181818;stroke-width:1.5;" width="70" x="1522" y="137.2422"/><text fill="#000000" font-family="sans-serif" font-size="14" lengthAdjust="spacing" textLength="50" x="1532" y="162.3496">Devices</text><rect fill="#F1F1F1" height="38.6211" rx="12.5" ry="12.5" style="stroke:#181818;stroke-width:1.5;" width="110" x="1502" y="200.8633"/><text fill="#000000" font-family="sans-serif" font-size="14" lengthAdjust="spacing" textLength="90" x="1512" y="225.9707">HouseDevices</text><rect fill="#F1F1F1" height="38.6211" rx="12.5" ry="12.5" style="stroke:#181818;stroke-width:1.5;" width="138" x="1220.5" y="264.4844"/><text fill="#000000" font-family="sans-serif" font-size="14" lengthAdjust="spacing" textLength="118" x="1230.5" y="289.5918">BlindRollerDevices</text><rect fill="#F1F1F1" height="38.6211" rx="12.5" ry="12.5" style="stroke:#181818;stroke-width:1.5;" width="139" x="1220" y="328.1055"/><text fill="#000000" font-family="sans-serif" font-size="14" lengthAdjust="spacing" textLength="119" x="1230" y="353.2129">ManageBlindRoller</text><path d="M1289.5,303.1055 L1289.5,306.1055 C1289.5,313.1055 1289.5,318.1055 1289.5,325.1055 L1289.5,328.1055 " fill="none" style="stroke:#181818;stroke-width:1.0;"/><path d="M1557,239.4844 L1557,242.4844 C1557,249.4844 1289.5,254.4844 1289.5,261.4844 L1289.5,264.4844 " fill="none" style="stroke:#181818;stroke-width:1.0;"/><rect fill="#F1F1F1" height="38.6211" rx="12.5" ry="12.5" style="stroke:#181818;stroke-width:1.5;" width="156" x="1458" y="264.4844"/><text fill="#000000" font-family="sans-serif" font-size="14" lengthAdjust="spacing" textLength="136" x="1468" y="289.5918">DeviceMeasurements</text><rect fill="#F1F1F1" height="38.6211" rx="12.5" ry="12.5" style="stroke:#181818;stroke-width:1.5;" width="181" x="1379" y="328.1055"/><text fill="#000000" font-family="sans-serif" font-size="14" lengthAdjust="spacing" textLength="161" x="1389" y="353.2129">DateTimeRangeCalender</text><path d="M1536,303.1055 L1536,306.1055 C1536,313.1055 1469.5,318.1055 1469.5,325.1055 L1469.5,328.1055 " fill="none" style="stroke:#181818;stroke-width:1.0;"/><rect fill="#F1F1F1" height="38.6211" rx="12.5" ry="12.5" style="stroke:#181818;stroke-width:1.5;" width="113" x="1580" y="328.1055"/><text fill="#000000" font-family="sans-serif" font-size="14" lengthAdjust="spacing" textLength="93" x="1590" y="353.2129">Measurements</text><path d="M1536,303.1055 L1536,306.1055 C1536,313.1055 1636.5,318.1055 1636.5,325.1055 L1636.5,328.1055 " fill="none" style="stroke:#181818;stroke-width:1.0;"/><path d="M1557,239.4844 L1557,242.4844 C1557,249.4844 1536,254.4844 1536,261.4844 L1536,264.4844 " fill="none" style="stroke:#181818;stroke-width:1.0;"/><rect fill="#F1F1F1" height="38.6211" rx="12.5" ry="12.5" style="stroke:#181818;stroke-width:1.5;" width="116" x="1634" y="264.4844"/><text fill="#000000" font-family="sans-serif" font-size="14" lengthAdjust="spacing" textLength="96" x="1644" y="289.5918">AddNewSensor</text><path d="M1557,239.4844 L1557,242.4844 C1557,249.4844 1692,254.4844 1692,261.4844 L1692,264.4844 " fill="none" style="stroke:#181818;stroke-width:1.0;"/><rect fill="#F1F1F1" height="38.6211" rx="12.5" ry="12.5" style="stroke:#181818;stroke-width:1.5;" width="124" x="1770" y="264.4844"/><text fill="#000000" font-family="sans-serif" font-size="14" lengthAdjust="spacing" textLength="104" x="1780" y="289.5918">AddNewActuator</text><path d="M1557,239.4844 L1557,242.4844 C1557,249.4844 1832,254.4844 1832,261.4844 L1832,264.4844 " fill="none" style="stroke:#181818;stroke-width:1.0;"/><path d="M1557,175.8633 L1557,178.8633 C1557,185.8633 1557,190.8633 1557,197.8633 L1557,200.8633 " fill="none" style="stroke:#181818;stroke-width:1.0;"/><path d="M957,112.2422 L957,115.2422 C957,122.2422 1557,127.2422 1557,134.2422 L1557,137.2422 " fill="none" style="stroke:#181818;stroke-width:1.0;"/><path d="M1289.5,48.6211 L1289.5,51.6211 C1289.5,58.6211 957,63.6211 957,70.6211 L957,73.6211 " fill="none" style="stroke:#181818;stroke-width:1.0;"/><rect fill="#F1F1F1" height="38.6211" rx="12.5" ry="12.5" style="stroke:#181818;stroke-width:1.5;" width="65" x="1030.5" y="73.6211"/><text fill="#000000" font-family="sans-serif" font-size="14" lengthAdjust="spacing" textLength="45" x="1040.5" y="98.7285">header</text><path d="M1289.5,48.6211 L1289.5,51.6211 C1289.5,58.6211 1063,63.6211 1063,70.6211 L1063,73.6211 " fill="none" style="stroke:#181818;stroke-width:1.0;"/><rect fill="#F1F1F1" height="38.6211" rx="12.5" ry="12.5" style="stroke:#181818;stroke-width:1.5;" width="166" x="2153.5" y="73.6211"/><text fill="#000000" font-family="sans-serif" font-size="14" lengthAdjust="spacing" textLength="146" x="2163.5" y="98.7285">main-content-container</text><rect fill="#F1F1F1" height="38.6211" rx="12.5" ry="12.5" style="stroke:#181818;stroke-width:1.5;" width="83" x="2195" y="137.2422"/><text fill="#000000" font-family="sans-serif" font-size="14" lengthAdjust="spacing" textLength="63" x="2205" y="162.3496">MainPage</text><rect fill="#F1F1F1" height="38.6211" rx="12.5" ry="12.5" style="stroke:#181818;stroke-width:1.5;" width="81" x="1914" y="200.8633"/><text fill="#000000" font-family="sans-serif" font-size="14" lengthAdjust="spacing" textLength="61" x="1924" y="225.9707">DateTime</text><path d="M2236.5,175.8633 L2236.5,178.8633 C2236.5,185.8633 1954.5,190.8633 1954.5,197.8633 L1954.5,200.8633 " fill="none" style="stroke:#181818;stroke-width:1.0;"/><rect fill="#F1F1F1" height="38.6211" rx="12.5" ry="12.5" style="stroke:#181818;stroke-width:1.5;" width="102" x="2015" y="200.8633"/><text fill="#000000" font-family="sans-serif" font-size="14" lengthAdjust="spacing" textLength="82" x="2025" y="225.9707">Temperature</text><path d="M2236.5,175.8633 L2236.5,178.8633 C2236.5,185.8633 2066,190.8633 2066,197.8633 L2066,200.8633 " fill="none" style="stroke:#181818;stroke-width:1.0;"/><rect fill="#F1F1F1" height="38.6211" rx="12.5" ry="12.5" style="stroke:#181818;stroke-width:1.5;" width="73" x="2137" y="200.8633"/><text fill="#000000" font-family="sans-serif" font-size="14" lengthAdjust="spacing" textLength="53" x="2147" y="225.9707">Humidity</text><path d="M2236.5,175.8633 L2236.5,178.8633 C2236.5,185.8633 2173.5,190.8633 2173.5,197.8633 L2173.5,200.8633 " fill="none" style="stroke:#181818;stroke-width:1.0;"/><rect fill="#F1F1F1" height="38.6211" rx="12.5" ry="12.5" style="stroke:#181818;stroke-width:1.5;" width="68" x="2230" y="200.8633"/><text fill="#000000" font-family="sans-serif" font-size="14" lengthAdjust="spacing" textLength="48" x="2240" y="225.9707">Sunrise</text><path d="M2236.5,175.8633 L2236.5,178.8633 C2236.5,185.8633 2264,190.8633 2264,197.8633 L2264,200.8633 " fill="none" style="stroke:#181818;stroke-width:1.0;"/><rect fill="#F1F1F1" height="38.6211" rx="12.5" ry="12.5" style="stroke:#181818;stroke-width:1.5;" width="64" x="2318" y="200.8633"/><text fill="#000000" font-family="sans-serif" font-size="14" lengthAdjust="spacing" textLength="44" x="2328" y="225.9707">Sunset</text><path d="M2236.5,175.8633 L2236.5,178.8633 C2236.5,185.8633 2350,190.8633 2350,197.8633 L2350,200.8633 " fill="none" style="stroke:#181818;stroke-width:1.0;"/><rect fill="#F1F1F1" height="38.6211" rx="12.5" ry="12.5" style="stroke:#181818;stroke-width:1.5;" width="86" x="2402" y="200.8633"/><text fill="#000000" font-family="sans-serif" font-size="14" lengthAdjust="spacing" textLength="66" x="2412" y="225.9707">CopyRight</text><path d="M2236.5,175.8633 L2236.5,178.8633 C2236.5,185.8633 2445,190.8633 2445,197.8633 L2445,200.8633 " fill="none" style="stroke:#181818;stroke-width:1.0;"/><rect fill="#F1F1F1" height="38.6211" rx="12.5" ry="12.5" style="stroke:#181818;stroke-width:1.5;" width="51" x="2508" y="200.8633"/><text fill="#000000" font-family="sans-serif" font-size="14" lengthAdjust="spacing" textLength="31" x="2518" y="225.9707">Orbit</text><path d="M2236.5,175.8633 L2236.5,178.8633 C2236.5,185.8633 2533.5,190.8633 2533.5,197.8633 L2533.5,200.8633 " fill="none" style="stroke:#181818;stroke-width:1.0;"/><path d="M2236.5,112.2422 L2236.5,115.2422 C2236.5,122.2422 2236.5,127.2422 2236.5,134.2422 L2236.5,137.2422 " fill="none" style="stroke:#181818;stroke-width:1.0;"/><path d="M1289.5,48.6211 L1289.5,51.6211 C1289.5,58.6211 2236.5,63.6211 2236.5,70.6211 L2236.5,73.6211 " fill="none" style="stroke:#181818;stroke-width:1.0;"/><!--SRC=[xLJBRjim4BppA_RK9WRyKfmSXAAmOmTmNQinR3SzKz9M9Y0-G2vT-EzBcN8SDsXxww68BkBiSaUpow76ZhWbALGfkM7lTqJ6fVs-gRaYB-jUeMM_pNPBmIlB9MEa3P26N1Df2QMmM93GYh4EV7XNrJh7ZnDZMAS3JfIOSzkLg7p07SYuK2jUOGCwCEE4Mo5Rj4Lfq7BojWtClHIbe4D46w-iSFWC759SJxKvh4MrQ-6ZpSLn2NCTgM6jjNGnsooNmiMz4SvmBmgC-H2QbEKN_B51vRIzZ4qAyfpEqLYO8NT1ScYHJXpdpjPSLJZbDQeIxNFsTKdxXSZ8s9czbJtNtk65KBYlmxciTLsZ_QM3ZAimuXTvzXUzVvJxUxKlP_HwHB137bb0XbFl5bfHe3Y-0uxy_yuGnsSS6ZkPdOqllF_cwZTN_m-kNZM_xg_P4lPeNV0l37l981drHbSRJZ0n5WPtCBnDRsxIP03V7ZPRQFBNx2hxj0MdlIqmkD-H5RblBi0rM_0zXxLN57f8uT6WMim-dmBmeFR2QjKCaYsUilE6kr7tNX1iq0Ofy9In6NxdlgPGKUXIg2g5gHacjmbRXWFoOLmf669J7OZj8ONLzYS0]--></g></svg>