<?xml version="1.0" encoding="us-ascii" standalone="no"?><svg xmlns="http://www.w3.org/2000/svg" xmlns:xlink="http://www.w3.org/1999/xlink" contentStyleType="text/css" height="1084px" preserveAspectRatio="none" style="width:1800px;height:1084px;background:#FFFFFF;" version="1.1" viewBox="0 0 1800 1084" width="1800px" zoomAndPan="magnify"><defs/><g><rect fill="#A9A9A9" height="1034.9121" style="stroke:#181818;stroke-width:0.5;" width="1558" x="236" y="43.4883"/><text fill="#000000" font-family="sans-serif" font-size="13" font-weight="bold" lengthAdjust="spacing" textLength="87" x="973.5" y="56.0566">&#171;SubSystem&#187;</text><text fill="#000000" font-family="sans-serif" font-size="13" font-weight="bold" lengthAdjust="spacing" textLength="80" x="977.5" y="71.3672">&#171;Container&#187;</text><text fill="#000000" font-family="sans-serif" font-size="13" font-weight="bold" lengthAdjust="spacing" textLength="60" x="989.5" y="86.6777">:Backend</text><rect fill="#D3D3D3" height="983.9805" style="stroke:#181818;stroke-width:0.5;" width="1558" x="236" y="94.4199"/><text fill="#000000" font-family="sans-serif" font-size="13" font-weight="bold" lengthAdjust="spacing" textLength="92" x="971" y="106.9883">&#171;Component&#187;</text><text fill="#000000" font-family="sans-serif" font-size="13" font-weight="bold" lengthAdjust="spacing" textLength="46" x="983" y="122.2988">:Server</text><text fill="#000000" font-family="sans-serif" font-size="14" font-weight="bold" lengthAdjust="spacing" textLength="707" x="548.5" y="28.5352">UC01 - As an Administrator, I want to configure the location of the house. Main success scenario.</text><line style="stroke:#181818;stroke-width:0.5;stroke-dasharray:5.0,5.0;" x1="369" x2="369" y1="177.0176" y2="1024.4238"/><rect fill="#FFFFFF" height="800.0957" style="stroke:#181818;stroke-width:1.0;" width="10" x="364" y="206.3281"/><line style="stroke:#181818;stroke-width:0.5;stroke-dasharray:5.0,5.0;" x1="603.5" x2="603.5" y1="177.0176" y2="1024.4238"/><rect fill="#FFFFFF" height="412.5254" style="stroke:#181818;stroke-width:1.0;" width="10" x="598.5" y="235.6387"/><line style="stroke:#181818;stroke-width:0.5;stroke-dasharray:5.0,5.0;" x1="773" x2="773" y1="507.4336" y2="1024.4238"/><line style="stroke:#181818;stroke-width:0.5;stroke-dasharray:5.0,5.0;" x1="917.5" x2="917.5" y1="656.1641" y2="1024.4238"/><line style="stroke:#181818;stroke-width:0.5;stroke-dasharray:5.0,5.0;" x1="1052.5" x2="1052.5" y1="177.0176" y2="1024.4238"/><rect fill="#FFFFFF" height="236.6621" style="stroke:#181818;stroke-width:1.0;" width="10" x="1047.5" y="708.9629"/><line style="stroke:#181818;stroke-width:0.5;stroke-dasharray:5.0,5.0;" x1="1252.5" x2="1252.5" y1="177.0176" y2="1024.4238"/><rect fill="#FFFFFF" height="29.3105" style="stroke:#181818;stroke-width:1.0;" width="10" x="1247.5" y="738.2734"/><rect fill="#FFFFFF" height="29.3105" style="stroke:#181818;stroke-width:1.0;" width="10" x="1247.5" y="887.0039"/><line style="stroke:#181818;stroke-width:0.5;stroke-dasharray:5.0,5.0;" x1="1381" x2="1381" y1="177.0176" y2="1024.4238"/><rect fill="#FFFFFF" height="60.7988" style="stroke:#181818;stroke-width:1.0;" width="10" x="1376" y="796.8945"/><line style="stroke:#181818;stroke-width:0.5;stroke-dasharray:5.0,5.0;" x1="1551.5" x2="1551.5" y1="804.8945" y2="1024.4238"/><line style="stroke:#181818;stroke-width:0.5;stroke-dasharray:5.0,5.0;" x1="1708.5" x2="1708.5" y1="953.625" y2="1024.4238"/><rect fill="#E2E2F0" height="46.9766" rx="2.5" ry="2.5" style="stroke:#181818;stroke-width:0.5;" width="258" x="240" y="129.041"/><text fill="#000000" font-family="sans-serif" font-size="14" font-style="italic" lengthAdjust="spacing" textLength="95" x="321.5" y="149.5762">&#171;Component&#187;</text><text fill="#000000" font-family="sans-serif" font-size="14" lengthAdjust="spacing" textLength="244" x="247" y="166.0645">:ConfigureHouseLocationController</text><rect fill="#E2E2F0" height="30.4883" rx="2.5" ry="2.5" style="stroke:#181818;stroke-width:0.5;" width="191" x="508" y="145.5293"/><text fill="#000000" font-family="sans-serif" font-size="14" lengthAdjust="spacing" textLength="177" x="515" y="166.0645">locationDTO:LocationDTO</text><rect fill="#E2E2F0" height="46.9766" rx="2.5" ry="2.5" style="stroke:#181818;stroke-width:0.5;" width="109" x="998" y="129.041"/><text fill="#000000" font-family="sans-serif" font-size="14" font-style="italic" lengthAdjust="spacing" textLength="95" x="1005" y="149.5762">&#171;Component&#187;</text><text fill="#000000" font-family="sans-serif" font-size="14" lengthAdjust="spacing" textLength="95" x="1005" y="166.0645">:HouseService</text><rect fill="#E2E2F0" height="46.9766" rx="2.5" ry="2.5" style="stroke:#181818;stroke-width:0.5;" width="134" x="1185.5" y="129.041"/><text fill="#000000" font-family="sans-serif" font-size="14" font-style="italic" lengthAdjust="spacing" textLength="95" x="1205" y="149.5762">&#171;Component&#187;</text><text fill="#000000" font-family="sans-serif" font-size="14" lengthAdjust="spacing" textLength="120" x="1192.5" y="166.0645">:HouseRepository</text><rect fill="#E2E2F0" height="30.4883" rx="2.5" ry="2.5" style="stroke:#181818;stroke-width:0.5;" width="103" x="1329.5" y="145.5293"/><text fill="#000000" font-family="sans-serif" font-size="14" lengthAdjust="spacing" textLength="89" x="1336.5" y="166.0645">house:House</text><rect fill="#E2E2F0" height="46.9766" rx="2.5" ry="2.5" style="stroke:#181818;stroke-width:0.5;" width="258" x="240" y="1024.4238"/><text fill="#000000" font-family="sans-serif" font-size="14" font-style="italic" lengthAdjust="spacing" textLength="95" x="321.5" y="1044.959">&#171;Component&#187;</text><text fill="#000000" font-family="sans-serif" font-size="14" lengthAdjust="spacing" textLength="244" x="247" y="1061.4473">:ConfigureHouseLocationController</text><rect fill="#E2E2F0" height="30.4883" rx="2.5" ry="2.5" style="stroke:#181818;stroke-width:0.5;" width="191" x="508" y="1024.4238"/><text fill="#000000" font-family="sans-serif" font-size="14" lengthAdjust="spacing" textLength="177" x="515" y="1044.959">locationDTO:LocationDTO</text><rect fill="#E2E2F0" height="30.4883" rx="2.5" ry="2.5" style="stroke:#181818;stroke-width:0.5;" width="128" x="709" y="1024.4238"/><text fill="#000000" font-family="sans-serif" font-size="14" lengthAdjust="spacing" textLength="114" x="716" y="1044.959">address:Address</text><rect fill="#E2E2F0" height="30.4883" rx="2.5" ry="2.5" style="stroke:#181818;stroke-width:0.5;" width="141" x="847" y="1024.4238"/><text fill="#000000" font-family="sans-serif" font-size="14" lengthAdjust="spacing" textLength="127" x="854" y="1044.959">gpsCode:GPSCode</text><rect fill="#E2E2F0" height="46.9766" rx="2.5" ry="2.5" style="stroke:#181818;stroke-width:0.5;" width="109" x="998" y="1024.4238"/><text fill="#000000" font-family="sans-serif" font-size="14" font-style="italic" lengthAdjust="spacing" textLength="95" x="1005" y="1044.959">&#171;Component&#187;</text><text fill="#000000" font-family="sans-serif" font-size="14" lengthAdjust="spacing" textLength="95" x="1005" y="1061.4473">:HouseService</text><rect fill="#E2E2F0" height="46.9766" rx="2.5" ry="2.5" style="stroke:#181818;stroke-width:0.5;" width="134" x="1185.5" y="1024.4238"/><text fill="#000000" font-family="sans-serif" font-size="14" font-style="italic" lengthAdjust="spacing" textLength="95" x="1205" y="1044.959">&#171;Component&#187;</text><text fill="#000000" font-family="sans-serif" font-size="14" lengthAdjust="spacing" textLength="120" x="1192.5" y="1061.4473">:HouseRepository</text><rect fill="#E2E2F0" height="30.4883" rx="2.5" ry="2.5" style="stroke:#181818;stroke-width:0.5;" width="103" x="1329.5" y="1024.4238"/><text fill="#000000" font-family="sans-serif" font-size="14" lengthAdjust="spacing" textLength="89" x="1336.5" y="1044.959">house:House</text><rect fill="#E2E2F0" height="30.4883" rx="2.5" ry="2.5" style="stroke:#181818;stroke-width:0.5;" width="131" x="1486" y="1024.4238"/><text fill="#000000" font-family="sans-serif" font-size="14" lengthAdjust="spacing" textLength="117" x="1493" y="1044.959">location:Location</text><rect fill="#E2E2F0" height="30.4883" rx="2.5" ry="2.5" style="stroke:#181818;stroke-width:0.5;" width="163" x="1627" y="1024.4238"/><text fill="#000000" font-family="sans-serif" font-size="14" lengthAdjust="spacing" textLength="149" x="1634" y="1044.959">houseDTO:HouseDTO</text><ellipse cx="10.5" cy="205.5781" fill="none" rx="4" ry="4" style="stroke:#181818;stroke-width:1.5;"/><polygon fill="#181818" points="352,202.3281,362,206.3281,352,210.3281,356,206.3281" style="stroke:#181818;stroke-width:1.0;"/><line style="stroke:#181818;stroke-width:1.0;" x1="15" x2="358" y1="206.3281" y2="206.3281"/><text fill="#000000" font-family="sans-serif" font-size="13" font-weight="bold" lengthAdjust="spacing" textLength="9" x="18" y="201.5859">1</text><text fill="#000000" font-family="sans-serif" font-size="13" lengthAdjust="spacing" textLength="327" x="31" y="201.5859">configureHouseLocation(LocationDTO locationDTO)</text><polygon fill="#181818" points="586.5,231.6387,596.5,235.6387,586.5,239.6387,590.5,235.6387" style="stroke:#181818;stroke-width:1.0;"/><line style="stroke:#181818;stroke-width:1.0;" x1="374" x2="592.5" y1="235.6387" y2="235.6387"/><text fill="#000000" font-family="sans-serif" font-size="13" font-weight="bold" lengthAdjust="spacing" textLength="9" x="381" y="230.8965">2</text><text fill="#000000" font-family="sans-serif" font-size="13" lengthAdjust="spacing" textLength="36" x="394" y="230.8965">street</text><polygon fill="#181818" points="385,260.9492,375,264.9492,385,268.9492,381,264.9492" style="stroke:#181818;stroke-width:1.0;"/><line style="stroke:#181818;stroke-width:1.0;stroke-dasharray:2.0,2.0;" x1="379" x2="597.5" y1="264.9492" y2="264.9492"/><text fill="#000000" font-family="sans-serif" font-size="13" font-weight="bold" lengthAdjust="spacing" textLength="9" x="391" y="260.207">3</text><text fill="#000000" font-family="sans-serif" font-size="13" lengthAdjust="spacing" textLength="77" x="404" y="260.207">String street</text><polygon fill="#181818" points="586.5,290.2598,596.5,294.2598,586.5,298.2598,590.5,294.2598" style="stroke:#181818;stroke-width:1.0;"/><line style="stroke:#181818;stroke-width:1.0;" x1="374" x2="592.5" y1="294.2598" y2="294.2598"/><text fill="#000000" font-family="sans-serif" font-size="13" font-weight="bold" lengthAdjust="spacing" textLength="9" x="381" y="289.5176">4</text><text fill="#000000" font-family="sans-serif" font-size="13" lengthAdjust="spacing" textLength="79" x="394" y="289.5176">doorNumber</text><polygon fill="#181818" points="385,319.5703,375,323.5703,385,327.5703,381,323.5703" style="stroke:#181818;stroke-width:1.0;"/><line style="stroke:#181818;stroke-width:1.0;stroke-dasharray:2.0,2.0;" x1="379" x2="597.5" y1="323.5703" y2="323.5703"/><text fill="#000000" font-family="sans-serif" font-size="13" font-weight="bold" lengthAdjust="spacing" textLength="9" x="391" y="318.8281">5</text><text fill="#000000" font-family="sans-serif" font-size="13" lengthAdjust="spacing" textLength="120" x="404" y="318.8281">String doorNumber</text><polygon fill="#181818" points="586.5,348.8809,596.5,352.8809,586.5,356.8809,590.5,352.8809" style="stroke:#181818;stroke-width:1.0;"/><line style="stroke:#181818;stroke-width:1.0;" x1="374" x2="592.5" y1="352.8809" y2="352.8809"/><text fill="#000000" font-family="sans-serif" font-size="13" font-weight="bold" lengthAdjust="spacing" textLength="9" x="381" y="348.1387">6</text><text fill="#000000" font-family="sans-serif" font-size="13" lengthAdjust="spacing" textLength="51" x="394" y="348.1387">zipCode</text><polygon fill="#181818" points="385,378.1914,375,382.1914,385,386.1914,381,382.1914" style="stroke:#181818;stroke-width:1.0;"/><line style="stroke:#181818;stroke-width:1.0;stroke-dasharray:2.0,2.0;" x1="379" x2="597.5" y1="382.1914" y2="382.1914"/><text fill="#000000" font-family="sans-serif" font-size="13" font-weight="bold" lengthAdjust="spacing" textLength="9" x="391" y="377.4492">7</text><text fill="#000000" font-family="sans-serif" font-size="13" lengthAdjust="spacing" textLength="92" x="404" y="377.4492">String zipCode</text><polygon fill="#181818" points="586.5,407.502,596.5,411.502,586.5,415.502,590.5,411.502" style="stroke:#181818;stroke-width:1.0;"/><line style="stroke:#181818;stroke-width:1.0;" x1="374" x2="592.5" y1="411.502" y2="411.502"/><text fill="#000000" font-family="sans-serif" font-size="13" font-weight="bold" lengthAdjust="spacing" textLength="9" x="381" y="406.7598">8</text><text fill="#000000" font-family="sans-serif" font-size="13" lengthAdjust="spacing" textLength="23" x="394" y="406.7598">city</text><polygon fill="#181818" points="385,436.8125,375,440.8125,385,444.8125,381,440.8125" style="stroke:#181818;stroke-width:1.0;"/><line style="stroke:#181818;stroke-width:1.0;stroke-dasharray:2.0,2.0;" x1="379" x2="597.5" y1="440.8125" y2="440.8125"/><text fill="#000000" font-family="sans-serif" font-size="13" font-weight="bold" lengthAdjust="spacing" textLength="9" x="391" y="436.0703">9</text><text fill="#000000" font-family="sans-serif" font-size="13" lengthAdjust="spacing" textLength="64" x="404" y="436.0703">String city</text><polygon fill="#181818" points="586.5,466.123,596.5,470.123,586.5,474.123,590.5,470.123" style="stroke:#181818;stroke-width:1.0;"/><line style="stroke:#181818;stroke-width:1.0;" x1="374" x2="592.5" y1="470.123" y2="470.123"/><text fill="#000000" font-family="sans-serif" font-size="13" font-weight="bold" lengthAdjust="spacing" textLength="18" x="381" y="465.3809">10</text><text fill="#000000" font-family="sans-serif" font-size="13" lengthAdjust="spacing" textLength="48" x="403" y="465.3809">country</text><polygon fill="#181818" points="385,495.4336,375,499.4336,385,503.4336,381,499.4336" style="stroke:#181818;stroke-width:1.0;"/><line style="stroke:#181818;stroke-width:1.0;stroke-dasharray:2.0,2.0;" x1="379" x2="597.5" y1="499.4336" y2="499.4336"/><text fill="#000000" font-family="sans-serif" font-size="13" font-weight="bold" lengthAdjust="spacing" textLength="18" x="391" y="494.6914">11</text><text fill="#000000" font-family="sans-serif" font-size="13" lengthAdjust="spacing" textLength="89" x="413" y="494.6914">String country</text><rect fill="#E2E2F0" height="30.4883" rx="2.5" ry="2.5" style="stroke:#181818;stroke-width:0.5;" width="128" x="709" y="507.4336"/><text fill="#000000" font-family="sans-serif" font-size="14" lengthAdjust="spacing" textLength="114" x="716" y="527.9688">address:Address</text><polygon fill="#181818" points="697,524.7441,707,528.7441,697,532.7441,701,528.7441" style="stroke:#181818;stroke-width:1.0;"/><line style="stroke:#181818;stroke-width:1.0;stroke-dasharray:2.0,2.0;" x1="374" x2="703" y1="528.7441" y2="528.7441"/><text fill="#000000" font-family="sans-serif" font-size="13" font-weight="bold" lengthAdjust="spacing" textLength="18" x="381" y="524.002">12</text><text fill="#000000" font-family="sans-serif" font-size="13" lengthAdjust="spacing" textLength="59" x="403" y="524.002">&#171;creates&#187;</text><polygon fill="#181818" points="586.5,556.2324,596.5,560.2324,586.5,564.2324,590.5,560.2324" style="stroke:#181818;stroke-width:1.0;"/><line style="stroke:#181818;stroke-width:1.0;" x1="374" x2="592.5" y1="560.2324" y2="560.2324"/><text fill="#000000" font-family="sans-serif" font-size="13" font-weight="bold" lengthAdjust="spacing" textLength="18" x="381" y="555.4902">13</text><text fill="#000000" font-family="sans-serif" font-size="13" lengthAdjust="spacing" textLength="48" x="403" y="555.4902">latitude</text><polygon fill="#181818" points="385,585.543,375,589.543,385,593.543,381,589.543" style="stroke:#181818;stroke-width:1.0;"/><line style="stroke:#181818;stroke-width:1.0;stroke-dasharray:2.0,2.0;" x1="379" x2="597.5" y1="589.543" y2="589.543"/><text fill="#000000" font-family="sans-serif" font-size="13" font-weight="bold" lengthAdjust="spacing" textLength="18" x="391" y="584.8008">14</text><text fill="#000000" font-family="sans-serif" font-size="13" lengthAdjust="spacing" textLength="95" x="413" y="584.8008">double latitude</text><polygon fill="#181818" points="586.5,614.8535,596.5,618.8535,586.5,622.8535,590.5,618.8535" style="stroke:#181818;stroke-width:1.0;"/><line style="stroke:#181818;stroke-width:1.0;" x1="374" x2="592.5" y1="618.8535" y2="618.8535"/><text fill="#000000" font-family="sans-serif" font-size="13" font-weight="bold" lengthAdjust="spacing" textLength="18" x="381" y="614.1113">15</text><text fill="#000000" font-family="sans-serif" font-size="13" lengthAdjust="spacing" textLength="60" x="403" y="614.1113">longitude</text><polygon fill="#181818" points="385,644.1641,375,648.1641,385,652.1641,381,648.1641" style="stroke:#181818;stroke-width:1.0;"/><line style="stroke:#181818;stroke-width:1.0;stroke-dasharray:2.0,2.0;" x1="379" x2="597.5" y1="648.1641" y2="648.1641"/><text fill="#000000" font-family="sans-serif" font-size="13" font-weight="bold" lengthAdjust="spacing" textLength="18" x="391" y="643.4219">16</text><text fill="#000000" font-family="sans-serif" font-size="13" lengthAdjust="spacing" textLength="107" x="413" y="643.4219">double longitude</text><rect fill="#E2E2F0" height="30.4883" rx="2.5" ry="2.5" style="stroke:#181818;stroke-width:0.5;" width="141" x="847" y="656.1641"/><text fill="#000000" font-family="sans-serif" font-size="14" lengthAdjust="spacing" textLength="127" x="854" y="676.6992">gpsCode:GPSCode</text><polygon fill="#181818" points="835,673.4746,845,677.4746,835,681.4746,839,677.4746" style="stroke:#181818;stroke-width:1.0;"/><line style="stroke:#181818;stroke-width:1.0;stroke-dasharray:2.0,2.0;" x1="374" x2="841" y1="677.4746" y2="677.4746"/><text fill="#000000" font-family="sans-serif" font-size="13" font-weight="bold" lengthAdjust="spacing" textLength="18" x="381" y="672.7324">17</text><text fill="#000000" font-family="sans-serif" font-size="13" lengthAdjust="spacing" textLength="59" x="403" y="672.7324">&#171;creates&#187;</text><polygon fill="#181818" points="1035.5,704.9629,1045.5,708.9629,1035.5,712.9629,1039.5,708.9629" style="stroke:#181818;stroke-width:1.0;"/><line style="stroke:#181818;stroke-width:1.0;" x1="374" x2="1041.5" y1="708.9629" y2="708.9629"/><text fill="#000000" font-family="sans-serif" font-size="13" font-weight="bold" lengthAdjust="spacing" textLength="18" x="381" y="704.2207">18</text><text fill="#000000" font-family="sans-serif" font-size="13" lengthAdjust="spacing" textLength="258" x="403" y="704.2207">editLocation(houseID, address, gpsCode)</text><polygon fill="#181818" points="1235.5,734.2734,1245.5,738.2734,1235.5,742.2734,1239.5,738.2734" style="stroke:#181818;stroke-width:1.0;"/><line style="stroke:#181818;stroke-width:1.0;" x1="1057.5" x2="1241.5" y1="738.2734" y2="738.2734"/><text fill="#000000" font-family="sans-serif" font-size="13" font-weight="bold" lengthAdjust="spacing" textLength="18" x="1064.5" y="733.5313">19</text><text fill="#000000" font-family="sans-serif" font-size="13" lengthAdjust="spacing" textLength="149" x="1086.5" y="733.5313">findEntityByID(houseID)</text><polygon fill="#181818" points="1068.5,763.584,1058.5,767.584,1068.5,771.584,1064.5,767.584" style="stroke:#181818;stroke-width:1.0;"/><line style="stroke:#181818;stroke-width:1.0;stroke-dasharray:2.0,2.0;" x1="1062.5" x2="1246.5" y1="767.584" y2="767.584"/><text fill="#000000" font-family="sans-serif" font-size="13" font-weight="bold" lengthAdjust="spacing" textLength="18" x="1074.5" y="762.8418">20</text><text fill="#000000" font-family="sans-serif" font-size="13" lengthAdjust="spacing" textLength="38" x="1096.5" y="762.8418">house</text><polygon fill="#181818" points="1364,792.8945,1374,796.8945,1364,800.8945,1368,796.8945" style="stroke:#181818;stroke-width:1.0;"/><line style="stroke:#181818;stroke-width:1.0;stroke-dasharray:2.0,2.0;" x1="1057.5" x2="1370" y1="796.8945" y2="796.8945"/><text fill="#000000" font-family="sans-serif" font-size="13" font-weight="bold" lengthAdjust="spacing" textLength="18" x="1064.5" y="792.1523">21</text><text fill="#000000" font-family="sans-serif" font-size="13" lengthAdjust="spacing" textLength="198" x="1086.5" y="792.1523">editLocation(address, gpsCode)</text><rect fill="#E2E2F0" height="30.4883" rx="2.5" ry="2.5" style="stroke:#181818;stroke-width:0.5;" width="131" x="1486" y="804.8945"/><text fill="#000000" font-family="sans-serif" font-size="14" lengthAdjust="spacing" textLength="117" x="1493" y="825.4297">location:Location</text><polygon fill="#181818" points="1474,822.2051,1484,826.2051,1474,830.2051,1478,826.2051" style="stroke:#181818;stroke-width:1.0;"/><line style="stroke:#181818;stroke-width:1.0;stroke-dasharray:2.0,2.0;" x1="1386" x2="1480" y1="826.2051" y2="826.2051"/><text fill="#000000" font-family="sans-serif" font-size="13" font-weight="bold" lengthAdjust="spacing" textLength="18" x="1393" y="821.4629">22</text><text fill="#000000" font-family="sans-serif" font-size="13" lengthAdjust="spacing" textLength="59" x="1415" y="821.4629">&#171;creates&#187;</text><polygon fill="#181818" points="1068.5,853.6934,1058.5,857.6934,1068.5,861.6934,1064.5,857.6934" style="stroke:#181818;stroke-width:1.0;"/><line style="stroke:#181818;stroke-width:1.0;stroke-dasharray:2.0,2.0;" x1="1062.5" x2="1375" y1="857.6934" y2="857.6934"/><text fill="#000000" font-family="sans-serif" font-size="13" font-weight="bold" lengthAdjust="spacing" textLength="18" x="1074.5" y="852.9512">23</text><text fill="#000000" font-family="sans-serif" font-size="13" lengthAdjust="spacing" textLength="51" x="1096.5" y="852.9512">location</text><polygon fill="#181818" points="1235.5,883.0039,1245.5,887.0039,1235.5,891.0039,1239.5,887.0039" style="stroke:#181818;stroke-width:1.0;"/><line style="stroke:#181818;stroke-width:1.0;" x1="1057.5" x2="1241.5" y1="887.0039" y2="887.0039"/><text fill="#000000" font-family="sans-serif" font-size="13" font-weight="bold" lengthAdjust="spacing" textLength="18" x="1064.5" y="882.2617">24</text><text fill="#000000" font-family="sans-serif" font-size="13" lengthAdjust="spacing" textLength="89" x="1086.5" y="882.2617">update(house)</text><polygon fill="#181818" points="1068.5,912.3145,1058.5,916.3145,1068.5,920.3145,1064.5,916.3145" style="stroke:#181818;stroke-width:1.0;"/><line style="stroke:#181818;stroke-width:1.0;stroke-dasharray:2.0,2.0;" x1="1062.5" x2="1246.5" y1="916.3145" y2="916.3145"/><text fill="#000000" font-family="sans-serif" font-size="13" font-weight="bold" lengthAdjust="spacing" textLength="18" x="1074.5" y="911.5723">25</text><text fill="#000000" font-family="sans-serif" font-size="13" lengthAdjust="spacing" textLength="38" x="1096.5" y="911.5723">house</text><polygon fill="#181818" points="385,941.625,375,945.625,385,949.625,381,945.625" style="stroke:#181818;stroke-width:1.0;"/><line style="stroke:#181818;stroke-width:1.0;stroke-dasharray:2.0,2.0;" x1="379" x2="1046.5" y1="945.625" y2="945.625"/><text fill="#000000" font-family="sans-serif" font-size="13" font-weight="bold" lengthAdjust="spacing" textLength="18" x="391" y="940.8828">26</text><text fill="#000000" font-family="sans-serif" font-size="13" lengthAdjust="spacing" textLength="51" x="413" y="940.8828">location</text><rect fill="#E2E2F0" height="30.4883" rx="2.5" ry="2.5" style="stroke:#181818;stroke-width:0.5;" width="163" x="1627" y="953.625"/><text fill="#000000" font-family="sans-serif" font-size="14" lengthAdjust="spacing" textLength="149" x="1634" y="974.1602">houseDTO:HouseDTO</text><polygon fill="#181818" points="1615,970.9355,1625,974.9355,1615,978.9355,1619,974.9355" style="stroke:#181818;stroke-width:1.0;"/><line style="stroke:#181818;stroke-width:1.0;stroke-dasharray:2.0,2.0;" x1="374" x2="1621" y1="974.9355" y2="974.9355"/><text fill="#000000" font-family="sans-serif" font-size="13" font-weight="bold" lengthAdjust="spacing" textLength="18" x="381" y="970.1934">27</text><text fill="#000000" font-family="sans-serif" font-size="13" lengthAdjust="spacing" textLength="59" x="403" y="970.1934">&#171;creates&#187;</text><ellipse cx="10.5" cy="1005.6738" fill="none" rx="4" ry="4" style="stroke:#181818;stroke-width:1.5;"/><polygon fill="#181818" points="27.5,1002.4238,17.5,1006.4238,27.5,1010.4238,23.5,1006.4238" style="stroke:#181818;stroke-width:1.0;"/><line style="stroke:#181818;stroke-width:1.0;stroke-dasharray:2.0,2.0;" x1="25.5" x2="363" y1="1006.4238" y2="1006.4238"/><text fill="#000000" font-family="sans-serif" font-size="13" font-weight="bold" lengthAdjust="spacing" textLength="18" x="28" y="1001.6816">28</text><text fill="#000000" font-family="sans-serif" font-size="13" lengthAdjust="spacing" textLength="66" x="50" y="1001.6816">houseDTO</text><!--SRC=[lLJBRjim4BppAxRffGsi8BaAXW57BX83xWDrSqelj4JBH6HIe5PfbQylHOaYQLjsJlL5D34pt9rz8CU2mLDoUmSHp2kW0kRPdWjUeQ8erGIMy8SA19IGIh7bUQqOu8v18LEAN0gGM_D_9-kAtS1NoWLKTPgoge8gPO8gBcy8eJLAKUytJ17oeLGqtrD09jy0LSq8sSY_S0NJwRhUh9iAsNus-or0NoHIe9PaghlGl_YUfYzCP1h_SK7LouDYpS1FvBwKWWcqy7ZDr2jJ6hlY-GuDkAGAUShBDg-hEB5fFROPhFgqsdULB8gMIYjuMj_U9QYAy8bGoJgo-FKzNhcpuNl_GnBDCgMjYkVTru3xSmZCoogH6OiVVgpRhm7svuE4J1vjsZpjOFx5kGGwvazMoehhsZUExExEyKqBT2AEUjgZmQ30dHDohPcF_S69jZQsBQ3BFdm9UPRHRAXKxFerAEmdhnJWbUmpeIdoLufia213rRMkHuj1JmTZw1X-UNtzA0XeZOgBt997nJCfrRTkL2vgUTXHlJTUcYwvA6Q1eqefn-QoZ46DQyXQJzPxP7gWKzAeVZIkho7MdPWgfjslT1-EFbVe8zPdiyzalT5BS42EQqcHlrTiW6RiP9S4MVLpV9GL2MBnnpW6bd4SUjgCod8nWNwTJA1V5rvN-tGIh0IhxQOyXYqNsHUX7Mdkc-N2Fd0evnZaS4z4Hn4R3T-Fan93K9P_aEgb33iLGxUS8ryT98pGheEZ82_xLPUPHdS-_MUNNFEDnc_B7hQTNQL7_ZpBQHHvkdOJ-xh3aYJ_0000]--></g></svg>