<?xml version="1.0" encoding="us-ascii" standalone="no"?><svg xmlns="http://www.w3.org/2000/svg" xmlns:xlink="http://www.w3.org/1999/xlink" contentStyleType="text/css" height="1046px" preserveAspectRatio="none" style="width:2243px;height:1046px;background:#FFFFFF;" version="1.1" viewBox="0 0 2243 1046" width="2243px" zoomAndPan="magnify"><defs/><g><rect fill="#A9A9A9" height="1034.9121" style="stroke:#181818;stroke-width:0.5;" width="2116" x="121" y="6"/><text fill="#000000" font-family="sans-serif" font-size="13" font-weight="bold" lengthAdjust="spacing" textLength="87" x="1137.5" y="18.5684">&#171;SubSystem&#187;</text><text fill="#000000" font-family="sans-serif" font-size="13" font-weight="bold" lengthAdjust="spacing" textLength="60" x="1149.5" y="33.8789">:Backend</text><rect fill="#D3D3D3" height="999.291" style="stroke:#181818;stroke-width:0.5;" width="2116" x="121" y="41.6211"/><text fill="#000000" font-family="sans-serif" font-size="13" font-weight="bold" lengthAdjust="spacing" textLength="80" x="1141" y="54.1895">&#171;Container&#187;</text><text fill="#000000" font-family="sans-serif" font-size="13" font-weight="bold" lengthAdjust="spacing" textLength="46" x="1153" y="69.5">:Server</text><line style="stroke:#181818;stroke-width:0.5;stroke-dasharray:5.0,5.0;" x1="248" x2="248" y1="124.2188" y2="986.9355"/><rect fill="#FFFFFF" height="800.0957" style="stroke:#181818;stroke-width:1.0;" width="10" x="243" y="168.8398"/><line style="stroke:#181818;stroke-width:0.5;stroke-dasharray:5.0,5.0;" x1="458.5" x2="458.5" y1="124.2188" y2="986.9355"/><rect fill="#FFFFFF" height="326.7715" style="stroke:#181818;stroke-width:1.0;" width="10" x="453.5" y="198.1504"/><line style="stroke:#181818;stroke-width:0.5;stroke-dasharray:5.0,5.0;" x1="611.5" x2="611.5" y1="124.2188" y2="986.9355"/><line style="stroke:#181818;stroke-width:0.5;stroke-dasharray:5.0,5.0;" x1="748.5" x2="748.5" y1="235.4609" y2="986.9355"/><line style="stroke:#181818;stroke-width:0.5;stroke-dasharray:5.0,5.0;" x1="903.5" x2="903.5" y1="325.5703" y2="986.9355"/><line style="stroke:#181818;stroke-width:0.5;stroke-dasharray:5.0,5.0;" x1="1124.5" x2="1124.5" y1="532.9219" y2="986.9355"/><line style="stroke:#181818;stroke-width:0.5;stroke-dasharray:5.0,5.0;" x1="1316.5" x2="1316.5" y1="124.2188" y2="986.9355"/><rect fill="#FFFFFF" height="322.416" style="stroke:#181818;stroke-width:1.0;" width="10" x="1311.5" y="585.7207"/><line style="stroke:#181818;stroke-width:0.5;stroke-dasharray:5.0,5.0;" x1="1545.5" x2="1545.5" y1="124.2188" y2="986.9355"/><rect fill="#FFFFFF" height="29.3105" style="stroke:#181818;stroke-width:1.0;" width="10" x="1540.5" y="615.0313"/><line style="stroke:#181818;stroke-width:0.5;stroke-dasharray:5.0,5.0;" x1="1745.5" x2="1745.5" y1="124.2188" y2="986.9355"/><rect fill="#FFFFFF" height="29.3105" style="stroke:#181818;stroke-width:1.0;" width="10" x="1740.5" y="673.6523"/><line style="stroke:#181818;stroke-width:0.5;stroke-dasharray:5.0,5.0;" x1="1875.5" x2="1875.5" y1="124.2188" y2="986.9355"/><rect fill="#FFFFFF" height="29.3105" style="stroke:#181818;stroke-width:1.0;" width="10" x="1870.5" y="732.2734"/><rect fill="#FFFFFF" height="29.3105" style="stroke:#181818;stroke-width:1.0;" width="10" x="1870.5" y="790.8945"/><line style="stroke:#181818;stroke-width:0.5;stroke-dasharray:5.0,5.0;" x1="1998.5" x2="1998.5" y1="124.2188" y2="986.9355"/><rect fill="#FFFFFF" height="29.3105" style="stroke:#181818;stroke-width:1.0;" width="10" x="1993.5" y="849.5156"/><line style="stroke:#181818;stroke-width:0.5;stroke-dasharray:5.0,5.0;" x1="2144.5" x2="2144.5" y1="916.1367" y2="986.9355"/><rect fill="#E2E2F0" height="46.9766" rx="2.5" ry="2.5" style="stroke:#181818;stroke-width:0.5;" width="246" x="125" y="76.2422"/><text fill="#000000" font-family="sans-serif" font-size="14" font-style="italic" lengthAdjust="spacing" textLength="95" x="200.5" y="96.7773">&#171;Component&#187;</text><text fill="#000000" font-family="sans-serif" font-size="14" lengthAdjust="spacing" textLength="232" x="132" y="113.2656">:AddNewRoomToHouseController</text><rect fill="#E2E2F0" height="30.4883" rx="2.5" ry="2.5" style="stroke:#181818;stroke-width:0.5;" width="155" x="381" y="92.7305"/><text fill="#000000" font-family="sans-serif" font-size="14" lengthAdjust="spacing" textLength="141" x="388" y="113.2656">roomDTO:RoomDTO</text><rect fill="#E2E2F0" height="30.4883" rx="2.5" ry="2.5" style="stroke:#181818;stroke-width:0.5;" width="131" x="546" y="92.7305"/><text fill="#000000" font-family="sans-serif" font-size="14" lengthAdjust="spacing" textLength="117" x="553" y="113.2656">houseID:HouseID</text><rect fill="#E2E2F0" height="46.9766" rx="2.5" ry="2.5" style="stroke:#181818;stroke-width:0.5;" width="109" x="1262" y="76.2422"/><text fill="#000000" font-family="sans-serif" font-size="14" font-style="italic" lengthAdjust="spacing" textLength="95" x="1269" y="96.7773">&#171;Component&#187;</text><text fill="#000000" font-family="sans-serif" font-size="14" lengthAdjust="spacing" textLength="92" x="1270.5" y="113.2656">:RoomService</text><rect fill="#E2E2F0" height="46.9766" rx="2.5" ry="2.5" style="stroke:#181818;stroke-width:0.5;" width="134" x="1478.5" y="76.2422"/><text fill="#000000" font-family="sans-serif" font-size="14" font-style="italic" lengthAdjust="spacing" textLength="95" x="1498" y="96.7773">&#171;Component&#187;</text><text fill="#000000" font-family="sans-serif" font-size="14" lengthAdjust="spacing" textLength="120" x="1485.5" y="113.2656">:HouseRepository</text><rect fill="#E2E2F0" height="46.9766" rx="2.5" ry="2.5" style="stroke:#181818;stroke-width:0.5;" width="109" x="1691" y="76.2422"/><text fill="#000000" font-family="sans-serif" font-size="14" font-style="italic" lengthAdjust="spacing" textLength="95" x="1698" y="96.7773">&#171;Component&#187;</text><text fill="#000000" font-family="sans-serif" font-size="14" lengthAdjust="spacing" textLength="94" x="1698.5" y="113.2656">:FactoryRoom</text><rect fill="#E2E2F0" height="46.9766" rx="2.5" ry="2.5" style="stroke:#181818;stroke-width:0.5;" width="131" x="1810" y="76.2422"/><text fill="#000000" font-family="sans-serif" font-size="14" font-style="italic" lengthAdjust="spacing" textLength="95" x="1828" y="96.7773">&#171;Component&#187;</text><text fill="#000000" font-family="sans-serif" font-size="14" lengthAdjust="spacing" textLength="117" x="1817" y="113.2656">:RoomRepository</text><rect fill="#E2E2F0" height="30.4883" rx="2.5" ry="2.5" style="stroke:#181818;stroke-width:0.5;" width="95" x="1951" y="92.7305"/><text fill="#000000" font-family="sans-serif" font-size="14" lengthAdjust="spacing" textLength="81" x="1958" y="113.2656">room:Room</text><rect fill="#E2E2F0" height="46.9766" rx="2.5" ry="2.5" style="stroke:#181818;stroke-width:0.5;" width="246" x="125" y="986.9355"/><text fill="#000000" font-family="sans-serif" font-size="14" font-style="italic" lengthAdjust="spacing" textLength="95" x="200.5" y="1007.4707">&#171;Component&#187;</text><text fill="#000000" font-family="sans-serif" font-size="14" lengthAdjust="spacing" textLength="232" x="132" y="1023.959">:AddNewRoomToHouseController</text><rect fill="#E2E2F0" height="30.4883" rx="2.5" ry="2.5" style="stroke:#181818;stroke-width:0.5;" width="155" x="381" y="986.9355"/><text fill="#000000" font-family="sans-serif" font-size="14" lengthAdjust="spacing" textLength="141" x="388" y="1007.4707">roomDTO:RoomDTO</text><rect fill="#E2E2F0" height="30.4883" rx="2.5" ry="2.5" style="stroke:#181818;stroke-width:0.5;" width="131" x="546" y="986.9355"/><text fill="#000000" font-family="sans-serif" font-size="14" lengthAdjust="spacing" textLength="117" x="553" y="1007.4707">houseID:HouseID</text><rect fill="#E2E2F0" height="30.4883" rx="2.5" ry="2.5" style="stroke:#181818;stroke-width:0.5;" width="123" x="687" y="986.9355"/><text fill="#000000" font-family="sans-serif" font-size="14" lengthAdjust="spacing" textLength="109" x="694" y="1007.4707">roomID:RoomID</text><rect fill="#E2E2F0" height="30.4883" rx="2.5" ry="2.5" style="stroke:#181818;stroke-width:0.5;" width="167" x="820" y="986.9355"/><text fill="#000000" font-family="sans-serif" font-size="14" lengthAdjust="spacing" textLength="153" x="827" y="1007.4707">roomFloor:RoomFloor</text><rect fill="#E2E2F0" height="30.4883" rx="2.5" ry="2.5" style="stroke:#181818;stroke-width:0.5;" width="255" x="997" y="986.9355"/><text fill="#000000" font-family="sans-serif" font-size="14" lengthAdjust="spacing" textLength="241" x="1004" y="1007.4707">roomDimensions:RoomDimensions</text><rect fill="#E2E2F0" height="46.9766" rx="2.5" ry="2.5" style="stroke:#181818;stroke-width:0.5;" width="109" x="1262" y="986.9355"/><text fill="#000000" font-family="sans-serif" font-size="14" font-style="italic" lengthAdjust="spacing" textLength="95" x="1269" y="1007.4707">&#171;Component&#187;</text><text fill="#000000" font-family="sans-serif" font-size="14" lengthAdjust="spacing" textLength="92" x="1270.5" y="1023.959">:RoomService</text><rect fill="#E2E2F0" height="46.9766" rx="2.5" ry="2.5" style="stroke:#181818;stroke-width:0.5;" width="134" x="1478.5" y="986.9355"/><text fill="#000000" font-family="sans-serif" font-size="14" font-style="italic" lengthAdjust="spacing" textLength="95" x="1498" y="1007.4707">&#171;Component&#187;</text><text fill="#000000" font-family="sans-serif" font-size="14" lengthAdjust="spacing" textLength="120" x="1485.5" y="1023.959">:HouseRepository</text><rect fill="#E2E2F0" height="46.9766" rx="2.5" ry="2.5" style="stroke:#181818;stroke-width:0.5;" width="109" x="1691" y="986.9355"/><text fill="#000000" font-family="sans-serif" font-size="14" font-style="italic" lengthAdjust="spacing" textLength="95" x="1698" y="1007.4707">&#171;Component&#187;</text><text fill="#000000" font-family="sans-serif" font-size="14" lengthAdjust="spacing" textLength="94" x="1698.5" y="1023.959">:FactoryRoom</text><rect fill="#E2E2F0" height="46.9766" rx="2.5" ry="2.5" style="stroke:#181818;stroke-width:0.5;" width="131" x="1810" y="986.9355"/><text fill="#000000" font-family="sans-serif" font-size="14" font-style="italic" lengthAdjust="spacing" textLength="95" x="1828" y="1007.4707">&#171;Component&#187;</text><text fill="#000000" font-family="sans-serif" font-size="14" lengthAdjust="spacing" textLength="117" x="1817" y="1023.959">:RoomRepository</text><rect fill="#E2E2F0" height="30.4883" rx="2.5" ry="2.5" style="stroke:#181818;stroke-width:0.5;" width="95" x="1951" y="986.9355"/><text fill="#000000" font-family="sans-serif" font-size="14" lengthAdjust="spacing" textLength="81" x="1958" y="1007.4707">room:Room</text><rect fill="#E2E2F0" height="30.4883" rx="2.5" ry="2.5" style="stroke:#181818;stroke-width:0.5;" width="177" x="2056" y="986.9355"/><text fill="#000000" font-family="sans-serif" font-size="14" lengthAdjust="spacing" textLength="163" x="2063" y="1007.4707">newRomDTO:RoomDTO</text><ellipse cx="10.5" cy="168.0898" fill="none" rx="4" ry="4" style="stroke:#181818;stroke-width:1.5;"/><polygon fill="#181818" points="231,164.8398,241,168.8398,231,172.8398,235,168.8398" style="stroke:#181818;stroke-width:1.0;"/><line style="stroke:#181818;stroke-width:1.0;" x1="15" x2="237" y1="168.8398" y2="168.8398"/><text fill="#000000" font-family="sans-serif" font-size="13" font-weight="bold" lengthAdjust="spacing" textLength="9" x="18" y="156.4424">1</text><text fill="#000000" font-family="sans-serif" font-size="13" lengthAdjust="spacing" textLength="206" x="31" y="148.7871">createRoomAndSaveInRepository</text><text fill="#000000" font-family="sans-serif" font-size="13" lengthAdjust="spacing" textLength="137" x="31" y="164.0977">(RoomDTO roomDTO)</text><polygon fill="#181818" points="441.5,194.1504,451.5,198.1504,441.5,202.1504,445.5,198.1504" style="stroke:#181818;stroke-width:1.0;"/><line style="stroke:#181818;stroke-width:1.0;" x1="253" x2="447.5" y1="198.1504" y2="198.1504"/><text fill="#000000" font-family="sans-serif" font-size="13" font-weight="bold" lengthAdjust="spacing" textLength="9" x="260" y="193.4082">2</text><text fill="#000000" font-family="sans-serif" font-size="13" lengthAdjust="spacing" textLength="69" x="273" y="193.4082">roomName</text><polygon fill="#181818" points="264,223.4609,254,227.4609,264,231.4609,260,227.4609" style="stroke:#181818;stroke-width:1.0;"/><line style="stroke:#181818;stroke-width:1.0;stroke-dasharray:2.0,2.0;" x1="258" x2="452.5" y1="227.4609" y2="227.4609"/><text fill="#000000" font-family="sans-serif" font-size="13" font-weight="bold" lengthAdjust="spacing" textLength="9" x="270" y="222.7188">3</text><text fill="#000000" font-family="sans-serif" font-size="13" lengthAdjust="spacing" textLength="110" x="283" y="222.7188">String roomName</text><rect fill="#E2E2F0" height="30.4883" rx="2.5" ry="2.5" style="stroke:#181818;stroke-width:0.5;" width="123" x="687" y="235.4609"/><text fill="#000000" font-family="sans-serif" font-size="14" lengthAdjust="spacing" textLength="109" x="694" y="255.9961">roomID:RoomID</text><polygon fill="#181818" points="675,252.7715,685,256.7715,675,260.7715,679,256.7715" style="stroke:#181818;stroke-width:1.0;"/><line style="stroke:#181818;stroke-width:1.0;stroke-dasharray:2.0,2.0;" x1="253" x2="681" y1="256.7715" y2="256.7715"/><text fill="#000000" font-family="sans-serif" font-size="13" font-weight="bold" lengthAdjust="spacing" textLength="9" x="260" y="252.0293">4</text><text fill="#000000" font-family="sans-serif" font-size="13" lengthAdjust="spacing" textLength="52" x="273" y="252.0293">&#171;create&#187;</text><polygon fill="#181818" points="441.5,284.2598,451.5,288.2598,441.5,292.2598,445.5,288.2598" style="stroke:#181818;stroke-width:1.0;"/><line style="stroke:#181818;stroke-width:1.0;" x1="253" x2="447.5" y1="288.2598" y2="288.2598"/><text fill="#000000" font-family="sans-serif" font-size="13" font-weight="bold" lengthAdjust="spacing" textLength="9" x="260" y="283.5176">5</text><text fill="#000000" font-family="sans-serif" font-size="13" lengthAdjust="spacing" textLength="80" x="273" y="283.5176">floorNumber</text><polygon fill="#181818" points="264,313.5703,254,317.5703,264,321.5703,260,317.5703" style="stroke:#181818;stroke-width:1.0;"/><line style="stroke:#181818;stroke-width:1.0;stroke-dasharray:2.0,2.0;" x1="258" x2="452.5" y1="317.5703" y2="317.5703"/><text fill="#000000" font-family="sans-serif" font-size="13" font-weight="bold" lengthAdjust="spacing" textLength="9" x="270" y="312.8281">6</text><text fill="#000000" font-family="sans-serif" font-size="13" lengthAdjust="spacing" textLength="101" x="283" y="312.8281">int floorNumber</text><rect fill="#E2E2F0" height="30.4883" rx="2.5" ry="2.5" style="stroke:#181818;stroke-width:0.5;" width="167" x="820" y="325.5703"/><text fill="#000000" font-family="sans-serif" font-size="14" lengthAdjust="spacing" textLength="153" x="827" y="346.1055">roomFloor:RoomFloor</text><polygon fill="#181818" points="808,342.8809,818,346.8809,808,350.8809,812,346.8809" style="stroke:#181818;stroke-width:1.0;"/><line style="stroke:#181818;stroke-width:1.0;stroke-dasharray:2.0,2.0;" x1="253" x2="814" y1="346.8809" y2="346.8809"/><text fill="#000000" font-family="sans-serif" font-size="13" font-weight="bold" lengthAdjust="spacing" textLength="9" x="260" y="342.1387">7</text><text fill="#000000" font-family="sans-serif" font-size="13" lengthAdjust="spacing" textLength="52" x="273" y="342.1387">&#171;create&#187;</text><polygon fill="#181818" points="441.5,374.3691,451.5,378.3691,441.5,382.3691,445.5,378.3691" style="stroke:#181818;stroke-width:1.0;"/><line style="stroke:#181818;stroke-width:1.0;" x1="253" x2="447.5" y1="378.3691" y2="378.3691"/><text fill="#000000" font-family="sans-serif" font-size="13" font-weight="bold" lengthAdjust="spacing" textLength="9" x="260" y="373.627">8</text><text fill="#000000" font-family="sans-serif" font-size="13" lengthAdjust="spacing" textLength="76" x="273" y="373.627">roomLength</text><polygon fill="#181818" points="264,403.6797,254,407.6797,264,411.6797,260,407.6797" style="stroke:#181818;stroke-width:1.0;"/><line style="stroke:#181818;stroke-width:1.0;stroke-dasharray:2.0,2.0;" x1="258" x2="452.5" y1="407.6797" y2="407.6797"/><text fill="#000000" font-family="sans-serif" font-size="13" font-weight="bold" lengthAdjust="spacing" textLength="9" x="270" y="402.9375">9</text><text fill="#000000" font-family="sans-serif" font-size="13" lengthAdjust="spacing" textLength="123" x="283" y="402.9375">double roomLength</text><polygon fill="#181818" points="441.5,432.9902,451.5,436.9902,441.5,440.9902,445.5,436.9902" style="stroke:#181818;stroke-width:1.0;"/><line style="stroke:#181818;stroke-width:1.0;" x1="253" x2="447.5" y1="436.9902" y2="436.9902"/><text fill="#000000" font-family="sans-serif" font-size="13" font-weight="bold" lengthAdjust="spacing" textLength="18" x="260" y="432.248">10</text><text fill="#000000" font-family="sans-serif" font-size="13" lengthAdjust="spacing" textLength="69" x="282" y="432.248">roomWidth</text><polygon fill="#181818" points="264,462.3008,254,466.3008,264,470.3008,260,466.3008" style="stroke:#181818;stroke-width:1.0;"/><line style="stroke:#181818;stroke-width:1.0;stroke-dasharray:2.0,2.0;" x1="258" x2="452.5" y1="466.3008" y2="466.3008"/><text fill="#000000" font-family="sans-serif" font-size="13" font-weight="bold" lengthAdjust="spacing" textLength="18" x="270" y="461.5586">11</text><text fill="#000000" font-family="sans-serif" font-size="13" lengthAdjust="spacing" textLength="116" x="292" y="461.5586">double roomWidth</text><polygon fill="#181818" points="441.5,491.6113,451.5,495.6113,441.5,499.6113,445.5,495.6113" style="stroke:#181818;stroke-width:1.0;"/><line style="stroke:#181818;stroke-width:1.0;" x1="253" x2="447.5" y1="495.6113" y2="495.6113"/><text fill="#000000" font-family="sans-serif" font-size="13" font-weight="bold" lengthAdjust="spacing" textLength="18" x="260" y="490.8691">12</text><text fill="#000000" font-family="sans-serif" font-size="13" lengthAdjust="spacing" textLength="75" x="282" y="490.8691">roomHeight</text><polygon fill="#181818" points="264,520.9219,254,524.9219,264,528.9219,260,524.9219" style="stroke:#181818;stroke-width:1.0;"/><line style="stroke:#181818;stroke-width:1.0;stroke-dasharray:2.0,2.0;" x1="258" x2="452.5" y1="524.9219" y2="524.9219"/><text fill="#000000" font-family="sans-serif" font-size="13" font-weight="bold" lengthAdjust="spacing" textLength="18" x="270" y="520.1797">13</text><text fill="#000000" font-family="sans-serif" font-size="13" lengthAdjust="spacing" textLength="122" x="292" y="520.1797">double roomHeight</text><rect fill="#E2E2F0" height="30.4883" rx="2.5" ry="2.5" style="stroke:#181818;stroke-width:0.5;" width="255" x="997" y="532.9219"/><text fill="#000000" font-family="sans-serif" font-size="14" lengthAdjust="spacing" textLength="241" x="1004" y="553.457">roomDimensions:RoomDimensions</text><polygon fill="#181818" points="985,550.2324,995,554.2324,985,558.2324,989,554.2324" style="stroke:#181818;stroke-width:1.0;"/><line style="stroke:#181818;stroke-width:1.0;stroke-dasharray:2.0,2.0;" x1="253" x2="991" y1="554.2324" y2="554.2324"/><text fill="#000000" font-family="sans-serif" font-size="13" font-weight="bold" lengthAdjust="spacing" textLength="18" x="260" y="549.4902">14</text><text fill="#000000" font-family="sans-serif" font-size="13" lengthAdjust="spacing" textLength="52" x="282" y="549.4902">&#171;create&#187;</text><polygon fill="#181818" points="1299.5,581.7207,1309.5,585.7207,1299.5,589.7207,1303.5,585.7207" style="stroke:#181818;stroke-width:1.0;"/><line style="stroke:#181818;stroke-width:1.0;" x1="253" x2="1305.5" y1="585.7207" y2="585.7207"/><text fill="#000000" font-family="sans-serif" font-size="13" font-weight="bold" lengthAdjust="spacing" textLength="18" x="260" y="580.9785">15</text><text fill="#000000" font-family="sans-serif" font-size="13" lengthAdjust="spacing" textLength="431" x="282" y="580.9785">createRoomAndSave(roomID, roomFloor, roomDimensions, houseID)</text><polygon fill="#181818" points="1528.5,611.0313,1538.5,615.0313,1528.5,619.0313,1532.5,615.0313" style="stroke:#181818;stroke-width:1.0;"/><line style="stroke:#181818;stroke-width:1.0;" x1="1321.5" x2="1534.5" y1="615.0313" y2="615.0313"/><text fill="#000000" font-family="sans-serif" font-size="13" font-weight="bold" lengthAdjust="spacing" textLength="18" x="1328.5" y="610.2891">16</text><text fill="#000000" font-family="sans-serif" font-size="13" lengthAdjust="spacing" textLength="178" x="1350.5" y="610.2891">containsEntityByID(houseID)</text><polygon fill="#181818" points="1332.5,640.3418,1322.5,644.3418,1332.5,648.3418,1328.5,644.3418" style="stroke:#181818;stroke-width:1.0;"/><line style="stroke:#181818;stroke-width:1.0;stroke-dasharray:2.0,2.0;" x1="1326.5" x2="1539.5" y1="644.3418" y2="644.3418"/><text fill="#000000" font-family="sans-serif" font-size="13" font-weight="bold" lengthAdjust="spacing" textLength="18" x="1338.5" y="639.5996">17</text><text fill="#000000" font-family="sans-serif" font-size="13" lengthAdjust="spacing" textLength="25" x="1360.5" y="639.5996">true</text><polygon fill="#181818" points="1728.5,669.6523,1738.5,673.6523,1728.5,677.6523,1732.5,673.6523" style="stroke:#181818;stroke-width:1.0;"/><line style="stroke:#181818;stroke-width:1.0;stroke-dasharray:2.0,2.0;" x1="1321.5" x2="1734.5" y1="673.6523" y2="673.6523"/><text fill="#000000" font-family="sans-serif" font-size="13" font-weight="bold" lengthAdjust="spacing" textLength="18" x="1328.5" y="668.9102">18</text><text fill="#000000" font-family="sans-serif" font-size="13" lengthAdjust="spacing" textLength="378" x="1350.5" y="668.9102">createRoom(roomID, roomFloor, roomDimensions, houseID)</text><polygon fill="#181818" points="1332.5,698.9629,1322.5,702.9629,1332.5,706.9629,1328.5,702.9629" style="stroke:#181818;stroke-width:1.0;"/><line style="stroke:#181818;stroke-width:1.0;stroke-dasharray:2.0,2.0;" x1="1326.5" x2="1739.5" y1="702.9629" y2="702.9629"/><text fill="#000000" font-family="sans-serif" font-size="13" font-weight="bold" lengthAdjust="spacing" textLength="18" x="1338.5" y="698.2207">19</text><text fill="#000000" font-family="sans-serif" font-size="13" lengthAdjust="spacing" textLength="33" x="1360.5" y="698.2207">room</text><polygon fill="#181818" points="1858.5,728.2734,1868.5,732.2734,1858.5,736.2734,1862.5,732.2734" style="stroke:#181818;stroke-width:1.0;"/><line style="stroke:#181818;stroke-width:1.0;" x1="1321.5" x2="1864.5" y1="732.2734" y2="732.2734"/><text fill="#000000" font-family="sans-serif" font-size="13" font-weight="bold" lengthAdjust="spacing" textLength="18" x="1328.5" y="727.5313">20</text><text fill="#000000" font-family="sans-serif" font-size="13" lengthAdjust="spacing" textLength="173" x="1350.5" y="727.5313">containsEntityByID(roomID)</text><polygon fill="#181818" points="1332.5,757.584,1322.5,761.584,1332.5,765.584,1328.5,761.584" style="stroke:#181818;stroke-width:1.0;"/><line style="stroke:#181818;stroke-width:1.0;stroke-dasharray:2.0,2.0;" x1="1326.5" x2="1869.5" y1="761.584" y2="761.584"/><text fill="#000000" font-family="sans-serif" font-size="13" font-weight="bold" lengthAdjust="spacing" textLength="18" x="1338.5" y="756.8418">21</text><text fill="#000000" font-family="sans-serif" font-size="13" lengthAdjust="spacing" textLength="30" x="1360.5" y="756.8418">false</text><polygon fill="#181818" points="1858.5,786.8945,1868.5,790.8945,1858.5,794.8945,1862.5,790.8945" style="stroke:#181818;stroke-width:1.0;"/><line style="stroke:#181818;stroke-width:1.0;" x1="1321.5" x2="1864.5" y1="790.8945" y2="790.8945"/><text fill="#000000" font-family="sans-serif" font-size="13" font-weight="bold" lengthAdjust="spacing" textLength="18" x="1328.5" y="786.1523">22</text><text fill="#000000" font-family="sans-serif" font-size="13" lengthAdjust="spacing" textLength="69" x="1350.5" y="786.1523">save(room)</text><polygon fill="#181818" points="1332.5,816.2051,1322.5,820.2051,1332.5,824.2051,1328.5,820.2051" style="stroke:#181818;stroke-width:1.0;"/><line style="stroke:#181818;stroke-width:1.0;stroke-dasharray:2.0,2.0;" x1="1326.5" x2="1869.5" y1="820.2051" y2="820.2051"/><text fill="#000000" font-family="sans-serif" font-size="13" font-weight="bold" lengthAdjust="spacing" textLength="18" x="1338.5" y="815.4629">23</text><text fill="#000000" font-family="sans-serif" font-size="13" lengthAdjust="spacing" textLength="73" x="1360.5" y="815.4629">room saved</text><polygon fill="#181818" points="1981.5,845.5156,1991.5,849.5156,1981.5,853.5156,1985.5,849.5156" style="stroke:#181818;stroke-width:1.0;"/><line style="stroke:#181818;stroke-width:1.0;stroke-dasharray:2.0,2.0;" x1="1321.5" x2="1987.5" y1="849.5156" y2="849.5156"/><text fill="#000000" font-family="sans-serif" font-size="13" font-weight="bold" lengthAdjust="spacing" textLength="18" x="1328.5" y="844.7734">24</text><text fill="#000000" font-family="sans-serif" font-size="13" lengthAdjust="spacing" textLength="56" x="1350.5" y="844.7734">identity()</text><polygon fill="#181818" points="1332.5,874.8262,1322.5,878.8262,1332.5,882.8262,1328.5,878.8262" style="stroke:#181818;stroke-width:1.0;"/><line style="stroke:#181818;stroke-width:1.0;stroke-dasharray:2.0,2.0;" x1="1326.5" x2="1992.5" y1="878.8262" y2="878.8262"/><text fill="#000000" font-family="sans-serif" font-size="13" font-weight="bold" lengthAdjust="spacing" textLength="18" x="1338.5" y="874.084">25</text><text fill="#000000" font-family="sans-serif" font-size="13" lengthAdjust="spacing" textLength="47" x="1360.5" y="874.084">roomID</text><polygon fill="#181818" points="264,904.1367,254,908.1367,264,912.1367,260,908.1367" style="stroke:#181818;stroke-width:1.0;"/><line style="stroke:#181818;stroke-width:1.0;stroke-dasharray:2.0,2.0;" x1="258" x2="1310.5" y1="908.1367" y2="908.1367"/><text fill="#000000" font-family="sans-serif" font-size="13" font-weight="bold" lengthAdjust="spacing" textLength="18" x="270" y="903.3945">26</text><text fill="#000000" font-family="sans-serif" font-size="13" lengthAdjust="spacing" textLength="47" x="292" y="903.3945">roomID</text><rect fill="#E2E2F0" height="30.4883" rx="2.5" ry="2.5" style="stroke:#181818;stroke-width:0.5;" width="177" x="2056" y="916.1367"/><text fill="#000000" font-family="sans-serif" font-size="14" lengthAdjust="spacing" textLength="163" x="2063" y="936.6719">newRomDTO:RoomDTO</text><polygon fill="#181818" points="2044,933.4473,2054,937.4473,2044,941.4473,2048,937.4473" style="stroke:#181818;stroke-width:1.0;"/><line style="stroke:#181818;stroke-width:1.0;stroke-dasharray:2.0,2.0;" x1="253" x2="2050" y1="937.4473" y2="937.4473"/><text fill="#000000" font-family="sans-serif" font-size="13" font-weight="bold" lengthAdjust="spacing" textLength="18" x="260" y="932.7051">27</text><text fill="#000000" font-family="sans-serif" font-size="13" lengthAdjust="spacing" textLength="52" x="282" y="932.7051">&#171;create&#187;</text><ellipse cx="10.5" cy="968.1855" fill="none" rx="4" ry="4" style="stroke:#181818;stroke-width:1.5;"/><polygon fill="#181818" points="27.5,964.9355,17.5,968.9355,27.5,972.9355,23.5,968.9355" style="stroke:#181818;stroke-width:1.0;"/><line style="stroke:#181818;stroke-width:1.0;stroke-dasharray:2.0,2.0;" x1="25.5" x2="242" y1="968.9355" y2="968.9355"/><text fill="#000000" font-family="sans-serif" font-size="13" font-weight="bold" lengthAdjust="spacing" textLength="18" x="28" y="964.1934">28</text><text fill="#000000" font-family="sans-serif" font-size="13" lengthAdjust="spacing" textLength="69" x="50" y="964.1934">roomDTO2</text><!--SRC=[dLLDZzem4BtxLwJRGoaYHUenGaYxfLkGLbI2bNhOlPXa5gnDxDHsQEclh-ryJPp0ekNY3zvxypmUJpuTjCvLD9tcAUMwoD8liSYc2duNm6C84qRtacQ4q48BNcGxaEH3Bka-eu46yI_GiW12Tk9lS1FCPjjYjpqf3Tby_im3yulkQFmAF37_VbnG-Vf3mgb1VnDSKyP1DkWjo2D8WtrW-uDsu9nApMAM6tV1JNIR96luin4YUnHBKIYm6bAagMLH5SJDqkbdkU30zNpUbP66ltZy6MtAqJ6hlIxmO4Ei5j6o71smskih6jp63OtU4Ee-5K8we9irMBSQiCaou8e9hagtpR8rtMnvkR9ucr0MWmEZzQNab8VTG2uKqqAU7DVRkyY_fx75s72EYzONUHRWXUrklNMbKHFIJhh_SrirvoxzAx4bQigo6ScJ2EUecg8Wba0rMF8jJxRq22lUEdlceqgsblnCpAdPqL2G2a7bQUJhCdIJDSsWvTJLM8r1wBdPQidulYLYuKfvjHYFWyZah7Hk4dOc-ekjl7Nvji_5OoQ763SGpnNmU7nDH3jv0BxNXxC14r7iKi382rg_M7ATL0cyeBG4stYkaQgG2VJkR20txHlr4kHvGKzqeE96vRLEsdHFFFL9tPrG-I5DWbk02UUzwiYTrNHazPrhfaztfzLYr1VqMCJl3Q5_4FUDG8do1Rgs31jr39o6zvqVYH7SYdeshHIsYOb-vhgDQJ1nfLdl8j2flTxMi_D2KzL9cyT_ovAgA-Rz5YpRwIHN-wWaJCT8mELYv8KdvvDlFfTUcBuuVet3dBhM1z-XwVNU2tmIip3ioRgF0X96FPoG_m00]--></g></svg>