<?xml version="1.0" encoding="us-ascii" standalone="no"?><svg xmlns="http://www.w3.org/2000/svg" xmlns:xlink="http://www.w3.org/1999/xlink" contentStyleType="text/css" height="1394px" preserveAspectRatio="none" style="width:1730px;height:1394px;background:#FFFFFF;" version="1.1" viewBox="0 0 1730 1394" width="1730px" zoomAndPan="magnify"><defs/><g><rect fill="#A9A9A9" height="1345.3281" style="stroke:#181818;stroke-width:0.5;" width="1519.5" x="205" y="43.4883"/><text fill="#000000" font-family="sans-serif" font-size="13" font-weight="bold" lengthAdjust="spacing" textLength="87" x="921.25" y="56.0566">&#171;SubSystem&#187;</text><text fill="#000000" font-family="sans-serif" font-size="13" font-weight="bold" lengthAdjust="spacing" textLength="80" x="925.25" y="71.3672">&#171;Container&#187;</text><text fill="#000000" font-family="sans-serif" font-size="13" font-weight="bold" lengthAdjust="spacing" textLength="60" x="933.25" y="86.6777">:Backend</text><rect fill="#D3D3D3" height="1294.3965" style="stroke:#181818;stroke-width:0.5;" width="1519.5" x="205" y="94.4199"/><text fill="#000000" font-family="sans-serif" font-size="13" font-weight="bold" lengthAdjust="spacing" textLength="92" x="918.75" y="106.9883">&#171;Component&#187;</text><text fill="#000000" font-family="sans-serif" font-size="13" font-weight="bold" lengthAdjust="spacing" textLength="46" x="926.75" y="122.2988">:Server</text><text fill="#000000" font-family="sans-serif" font-size="14" font-weight="bold" lengthAdjust="spacing" textLength="130" x="802.25" y="28.5352">UC03.2 Edit Room</text><line style="stroke:#181818;stroke-width:0.5;stroke-dasharray:5.0,5.0;" x1="286" x2="286" y1="177.0176" y2="1334.8398"/><rect fill="#FFFFFF" height="1095.2012" style="stroke:#181818;stroke-width:1.0;" width="10" x="281" y="221.6387"/><line style="stroke:#181818;stroke-width:0.5;stroke-dasharray:5.0,5.0;" x1="469" x2="469" y1="177.0176" y2="1334.8398"/><rect fill="#FFFFFF" height="326.7715" style="stroke:#181818;stroke-width:1.0;" width="10" x="464" y="250.9492"/><rect fill="#FFFFFF" height="263.7949" style="stroke:#181818;stroke-width:1.0;" width="10" x="464" y="992.2461"/><line style="stroke:#181818;stroke-width:0.5;stroke-dasharray:5.0,5.0;" x1="618" x2="618" y1="288.2598" y2="1334.8398"/><line style="stroke:#181818;stroke-width:0.5;stroke-dasharray:5.0,5.0;" x1="773" x2="773" y1="378.3691" y2="1334.8398"/><line style="stroke:#181818;stroke-width:0.5;stroke-dasharray:5.0,5.0;" x1="994" x2="994" y1="585.7207" y2="1334.8398"/><line style="stroke:#181818;stroke-width:0.5;stroke-dasharray:5.0,5.0;" x1="1186" x2="1186" y1="177.0176" y2="1334.8398"/><rect fill="#FFFFFF" height="309.1055" style="stroke:#181818;stroke-width:1.0;" width="10" x="1181" y="653.8301"/><line style="stroke:#181818;stroke-width:0.5;stroke-dasharray:5.0,5.0;" x1="1385" x2="1385" y1="177.0176" y2="1334.8398"/><rect fill="#FFFFFF" height="29.3105" style="stroke:#181818;stroke-width:1.0;" width="10" x="1380" y="683.1406"/><rect fill="#FFFFFF" height="29.3105" style="stroke:#181818;stroke-width:1.0;" width="10" x="1380" y="831.6934"/><line style="stroke:#181818;stroke-width:0.5;stroke-dasharray:5.0,5.0;" x1="1508" x2="1508" y1="177.0176" y2="1334.8398"/><rect fill="#FFFFFF" height="29.3105" style="stroke:#181818;stroke-width:1.0;" width="10" x="1503" y="773.0723"/><rect fill="#FFFFFF" height="29.3105" style="stroke:#181818;stroke-width:1.0;" width="10" x="1503" y="890.3145"/><line style="stroke:#181818;stroke-width:0.5;stroke-dasharray:5.0,5.0;" x1="1643" x2="1643" y1="1264.041" y2="1334.8398"/><rect fill="#E2E2F0" height="46.9766" rx="2.5" ry="2.5" style="stroke:#181818;stroke-width:0.5;" width="154" x="209" y="129.041"/><text fill="#000000" font-family="sans-serif" font-size="14" font-style="italic" lengthAdjust="spacing" textLength="95" x="238.5" y="149.5762">&#171;Component&#187;</text><text fill="#000000" font-family="sans-serif" font-size="14" lengthAdjust="spacing" textLength="140" x="216" y="166.0645">:EditRoomController</text><rect fill="#E2E2F0" height="30.4883" rx="2.5" ry="2.5" style="stroke:#181818;stroke-width:0.5;" width="155" x="391.5" y="145.5293"/><text fill="#000000" font-family="sans-serif" font-size="14" lengthAdjust="spacing" textLength="141" x="398.5" y="166.0645">roomDTO:RoomDTO</text><rect fill="#E2E2F0" height="46.9766" rx="2.5" ry="2.5" style="stroke:#181818;stroke-width:0.5;" width="109" x="1131.5" y="129.041"/><text fill="#000000" font-family="sans-serif" font-size="14" font-style="italic" lengthAdjust="spacing" textLength="95" x="1138.5" y="149.5762">&#171;Component&#187;</text><text fill="#000000" font-family="sans-serif" font-size="14" lengthAdjust="spacing" textLength="92" x="1140" y="166.0645">:RoomService</text><rect fill="#E2E2F0" height="46.9766" rx="2.5" ry="2.5" style="stroke:#181818;stroke-width:0.5;" width="131" x="1319.5" y="129.041"/><text fill="#000000" font-family="sans-serif" font-size="14" font-style="italic" lengthAdjust="spacing" textLength="95" x="1337.5" y="149.5762">&#171;Component&#187;</text><text fill="#000000" font-family="sans-serif" font-size="14" lengthAdjust="spacing" textLength="117" x="1326.5" y="166.0645">:RoomRepository</text><rect fill="#E2E2F0" height="30.4883" rx="2.5" ry="2.5" style="stroke:#181818;stroke-width:0.5;" width="95" x="1460.5" y="145.5293"/><text fill="#000000" font-family="sans-serif" font-size="14" lengthAdjust="spacing" textLength="81" x="1467.5" y="166.0645">room:Room</text><rect fill="#E2E2F0" height="46.9766" rx="2.5" ry="2.5" style="stroke:#181818;stroke-width:0.5;" width="154" x="209" y="1334.8398"/><text fill="#000000" font-family="sans-serif" font-size="14" font-style="italic" lengthAdjust="spacing" textLength="95" x="238.5" y="1355.375">&#171;Component&#187;</text><text fill="#000000" font-family="sans-serif" font-size="14" lengthAdjust="spacing" textLength="140" x="216" y="1371.8633">:EditRoomController</text><rect fill="#E2E2F0" height="30.4883" rx="2.5" ry="2.5" style="stroke:#181818;stroke-width:0.5;" width="155" x="391.5" y="1334.8398"/><text fill="#000000" font-family="sans-serif" font-size="14" lengthAdjust="spacing" textLength="141" x="398.5" y="1355.375">roomDTO:RoomDTO</text><rect fill="#E2E2F0" height="30.4883" rx="2.5" ry="2.5" style="stroke:#181818;stroke-width:0.5;" width="123" x="556.5" y="1334.8398"/><text fill="#000000" font-family="sans-serif" font-size="14" lengthAdjust="spacing" textLength="109" x="563.5" y="1355.375">roomID:RoomID</text><rect fill="#E2E2F0" height="30.4883" rx="2.5" ry="2.5" style="stroke:#181818;stroke-width:0.5;" width="167" x="689.5" y="1334.8398"/><text fill="#000000" font-family="sans-serif" font-size="14" lengthAdjust="spacing" textLength="153" x="696.5" y="1355.375">roomFloor:RoomFloor</text><rect fill="#E2E2F0" height="30.4883" rx="2.5" ry="2.5" style="stroke:#181818;stroke-width:0.5;" width="255" x="866.5" y="1334.8398"/><text fill="#000000" font-family="sans-serif" font-size="14" lengthAdjust="spacing" textLength="241" x="873.5" y="1355.375">roomDimensions:RoomDimensions</text><rect fill="#E2E2F0" height="46.9766" rx="2.5" ry="2.5" style="stroke:#181818;stroke-width:0.5;" width="109" x="1131.5" y="1334.8398"/><text fill="#000000" font-family="sans-serif" font-size="14" font-style="italic" lengthAdjust="spacing" textLength="95" x="1138.5" y="1355.375">&#171;Component&#187;</text><text fill="#000000" font-family="sans-serif" font-size="14" lengthAdjust="spacing" textLength="92" x="1140" y="1371.8633">:RoomService</text><rect fill="#E2E2F0" height="46.9766" rx="2.5" ry="2.5" style="stroke:#181818;stroke-width:0.5;" width="131" x="1319.5" y="1334.8398"/><text fill="#000000" font-family="sans-serif" font-size="14" font-style="italic" lengthAdjust="spacing" textLength="95" x="1337.5" y="1355.375">&#171;Component&#187;</text><text fill="#000000" font-family="sans-serif" font-size="14" lengthAdjust="spacing" textLength="117" x="1326.5" y="1371.8633">:RoomRepository</text><rect fill="#E2E2F0" height="30.4883" rx="2.5" ry="2.5" style="stroke:#181818;stroke-width:0.5;" width="95" x="1460.5" y="1334.8398"/><text fill="#000000" font-family="sans-serif" font-size="14" lengthAdjust="spacing" textLength="81" x="1467.5" y="1355.375">room:Room</text><rect fill="#E2E2F0" height="30.4883" rx="2.5" ry="2.5" style="stroke:#181818;stroke-width:0.5;" width="155" x="1565.5" y="1334.8398"/><text fill="#000000" font-family="sans-serif" font-size="14" lengthAdjust="spacing" textLength="141" x="1572.5" y="1355.375">roomDTO:RoomDTO</text><ellipse cx="10.5" cy="220.8887" fill="none" rx="4" ry="4" style="stroke:#181818;stroke-width:1.5;"/><polygon fill="#181818" points="269,217.6387,279,221.6387,269,225.6387,273,221.6387" style="stroke:#181818;stroke-width:1.0;"/><line style="stroke:#181818;stroke-width:1.0;" x1="15" x2="275" y1="221.6387" y2="221.6387"/><text fill="#000000" font-family="sans-serif" font-size="13" font-weight="bold" lengthAdjust="spacing" textLength="9" x="18" y="209.2412">1</text><text fill="#000000" font-family="sans-serif" font-size="13" lengthAdjust="spacing" textLength="244" x="31" y="201.5859">editSelectedRoomAndSaveInRepository</text><text fill="#000000" font-family="sans-serif" font-size="13" lengthAdjust="spacing" textLength="137" x="31" y="216.8965">(RoomDTO roomDTO)</text><polygon fill="#181818" points="452,246.9492,462,250.9492,452,254.9492,456,250.9492" style="stroke:#181818;stroke-width:1.0;"/><line style="stroke:#181818;stroke-width:1.0;" x1="291" x2="458" y1="250.9492" y2="250.9492"/><text fill="#000000" font-family="sans-serif" font-size="13" font-weight="bold" lengthAdjust="spacing" textLength="9" x="298" y="246.207">2</text><text fill="#000000" font-family="sans-serif" font-size="13" lengthAdjust="spacing" textLength="69" x="311" y="246.207">roomName</text><polygon fill="#181818" points="302,276.2598,292,280.2598,302,284.2598,298,280.2598" style="stroke:#181818;stroke-width:1.0;"/><line style="stroke:#181818;stroke-width:1.0;stroke-dasharray:2.0,2.0;" x1="296" x2="463" y1="280.2598" y2="280.2598"/><text fill="#000000" font-family="sans-serif" font-size="13" font-weight="bold" lengthAdjust="spacing" textLength="9" x="308" y="275.5176">3</text><text fill="#000000" font-family="sans-serif" font-size="13" lengthAdjust="spacing" textLength="110" x="321" y="275.5176">String roomName</text><rect fill="#E2E2F0" height="30.4883" rx="2.5" ry="2.5" style="stroke:#181818;stroke-width:0.5;" width="123" x="556.5" y="288.2598"/><text fill="#000000" font-family="sans-serif" font-size="14" lengthAdjust="spacing" textLength="109" x="563.5" y="308.7949">roomID:RoomID</text><polygon fill="#181818" points="544.5,305.5703,554.5,309.5703,544.5,313.5703,548.5,309.5703" style="stroke:#181818;stroke-width:1.0;"/><line style="stroke:#181818;stroke-width:1.0;stroke-dasharray:2.0,2.0;" x1="291" x2="550.5" y1="309.5703" y2="309.5703"/><text fill="#000000" font-family="sans-serif" font-size="13" font-weight="bold" lengthAdjust="spacing" textLength="9" x="298" y="304.8281">4</text><text fill="#000000" font-family="sans-serif" font-size="13" lengthAdjust="spacing" textLength="52" x="311" y="304.8281">&#171;create&#187;</text><polygon fill="#181818" points="452,337.0586,462,341.0586,452,345.0586,456,341.0586" style="stroke:#181818;stroke-width:1.0;"/><line style="stroke:#181818;stroke-width:1.0;" x1="291" x2="458" y1="341.0586" y2="341.0586"/><text fill="#000000" font-family="sans-serif" font-size="13" font-weight="bold" lengthAdjust="spacing" textLength="9" x="298" y="336.3164">5</text><text fill="#000000" font-family="sans-serif" font-size="13" lengthAdjust="spacing" textLength="80" x="311" y="336.3164">floorNumber</text><polygon fill="#181818" points="302,366.3691,292,370.3691,302,374.3691,298,370.3691" style="stroke:#181818;stroke-width:1.0;"/><line style="stroke:#181818;stroke-width:1.0;stroke-dasharray:2.0,2.0;" x1="296" x2="463" y1="370.3691" y2="370.3691"/><text fill="#000000" font-family="sans-serif" font-size="13" font-weight="bold" lengthAdjust="spacing" textLength="9" x="308" y="365.627">6</text><text fill="#000000" font-family="sans-serif" font-size="13" lengthAdjust="spacing" textLength="101" x="321" y="365.627">int floorNumber</text><rect fill="#E2E2F0" height="30.4883" rx="2.5" ry="2.5" style="stroke:#181818;stroke-width:0.5;" width="167" x="689.5" y="378.3691"/><text fill="#000000" font-family="sans-serif" font-size="14" lengthAdjust="spacing" textLength="153" x="696.5" y="398.9043">roomFloor:RoomFloor</text><polygon fill="#181818" points="677.5,395.6797,687.5,399.6797,677.5,403.6797,681.5,399.6797" style="stroke:#181818;stroke-width:1.0;"/><line style="stroke:#181818;stroke-width:1.0;stroke-dasharray:2.0,2.0;" x1="291" x2="683.5" y1="399.6797" y2="399.6797"/><text fill="#000000" font-family="sans-serif" font-size="13" font-weight="bold" lengthAdjust="spacing" textLength="9" x="298" y="394.9375">7</text><text fill="#000000" font-family="sans-serif" font-size="13" lengthAdjust="spacing" textLength="52" x="311" y="394.9375">&#171;create&#187;</text><polygon fill="#181818" points="452,427.168,462,431.168,452,435.168,456,431.168" style="stroke:#181818;stroke-width:1.0;"/><line style="stroke:#181818;stroke-width:1.0;" x1="291" x2="458" y1="431.168" y2="431.168"/><text fill="#000000" font-family="sans-serif" font-size="13" font-weight="bold" lengthAdjust="spacing" textLength="9" x="298" y="426.4258">8</text><text fill="#000000" font-family="sans-serif" font-size="13" lengthAdjust="spacing" textLength="40" x="311" y="426.4258">length</text><polygon fill="#181818" points="302,456.4785,292,460.4785,302,464.4785,298,460.4785" style="stroke:#181818;stroke-width:1.0;"/><line style="stroke:#181818;stroke-width:1.0;stroke-dasharray:2.0,2.0;" x1="296" x2="463" y1="460.4785" y2="460.4785"/><text fill="#000000" font-family="sans-serif" font-size="13" font-weight="bold" lengthAdjust="spacing" textLength="9" x="308" y="455.7363">9</text><text fill="#000000" font-family="sans-serif" font-size="13" lengthAdjust="spacing" textLength="87" x="321" y="455.7363">double length</text><polygon fill="#181818" points="452,485.7891,462,489.7891,452,493.7891,456,489.7891" style="stroke:#181818;stroke-width:1.0;"/><line style="stroke:#181818;stroke-width:1.0;" x1="291" x2="458" y1="489.7891" y2="489.7891"/><text fill="#000000" font-family="sans-serif" font-size="13" font-weight="bold" lengthAdjust="spacing" textLength="18" x="298" y="485.0469">10</text><text fill="#000000" font-family="sans-serif" font-size="13" lengthAdjust="spacing" textLength="35" x="320" y="485.0469">width</text><polygon fill="#181818" points="302,515.0996,292,519.0996,302,523.0996,298,519.0996" style="stroke:#181818;stroke-width:1.0;"/><line style="stroke:#181818;stroke-width:1.0;stroke-dasharray:2.0,2.0;" x1="296" x2="463" y1="519.0996" y2="519.0996"/><text fill="#000000" font-family="sans-serif" font-size="13" font-weight="bold" lengthAdjust="spacing" textLength="18" x="308" y="514.3574">11</text><text fill="#000000" font-family="sans-serif" font-size="13" lengthAdjust="spacing" textLength="82" x="330" y="514.3574">double width</text><polygon fill="#181818" points="452,544.4102,462,548.4102,452,552.4102,456,548.4102" style="stroke:#181818;stroke-width:1.0;"/><line style="stroke:#181818;stroke-width:1.0;" x1="291" x2="458" y1="548.4102" y2="548.4102"/><text fill="#000000" font-family="sans-serif" font-size="13" font-weight="bold" lengthAdjust="spacing" textLength="18" x="298" y="543.668">12</text><text fill="#000000" font-family="sans-serif" font-size="13" lengthAdjust="spacing" textLength="40" x="320" y="543.668">height</text><polygon fill="#181818" points="302,573.7207,292,577.7207,302,581.7207,298,577.7207" style="stroke:#181818;stroke-width:1.0;"/><line style="stroke:#181818;stroke-width:1.0;stroke-dasharray:2.0,2.0;" x1="296" x2="463" y1="577.7207" y2="577.7207"/><text fill="#000000" font-family="sans-serif" font-size="13" font-weight="bold" lengthAdjust="spacing" textLength="18" x="308" y="572.9785">13</text><text fill="#000000" font-family="sans-serif" font-size="13" lengthAdjust="spacing" textLength="87" x="330" y="572.9785">double height</text><rect fill="#E2E2F0" height="30.4883" rx="2.5" ry="2.5" style="stroke:#181818;stroke-width:0.5;" width="255" x="866.5" y="585.7207"/><text fill="#000000" font-family="sans-serif" font-size="14" lengthAdjust="spacing" textLength="241" x="873.5" y="606.2559">roomDimensions:RoomDimensions</text><polygon fill="#181818" points="854.5,603.0313,864.5,607.0313,854.5,611.0313,858.5,607.0313" style="stroke:#181818;stroke-width:1.0;"/><line style="stroke:#181818;stroke-width:1.0;stroke-dasharray:2.0,2.0;" x1="291" x2="860.5" y1="607.0313" y2="607.0313"/><text fill="#000000" font-family="sans-serif" font-size="13" font-weight="bold" lengthAdjust="spacing" textLength="18" x="298" y="602.2891">14</text><text fill="#000000" font-family="sans-serif" font-size="13" lengthAdjust="spacing" textLength="52" x="320" y="602.2891">&#171;create&#187;</text><polygon fill="#181818" points="1169,649.8301,1179,653.8301,1169,657.8301,1173,653.8301" style="stroke:#181818;stroke-width:1.0;"/><line style="stroke:#181818;stroke-width:1.0;" x1="291" x2="1175" y1="653.8301" y2="653.8301"/><text fill="#000000" font-family="sans-serif" font-size="13" font-weight="bold" lengthAdjust="spacing" textLength="18" x="298" y="641.4326">15</text><text fill="#000000" font-family="sans-serif" font-size="13" lengthAdjust="spacing" textLength="113" x="320" y="633.7773">editRoomAndSave</text><text fill="#000000" font-family="sans-serif" font-size="13" lengthAdjust="spacing" textLength="244" x="320" y="649.0879">(roomID, roomFloor, roomDimensions)</text><polygon fill="#181818" points="1368,679.1406,1378,683.1406,1368,687.1406,1372,683.1406" style="stroke:#181818;stroke-width:1.0;"/><line style="stroke:#181818;stroke-width:1.0;" x1="1191" x2="1374" y1="683.1406" y2="683.1406"/><text fill="#000000" font-family="sans-serif" font-size="13" font-weight="bold" lengthAdjust="spacing" textLength="18" x="1198" y="678.3984">16</text><text fill="#000000" font-family="sans-serif" font-size="13" lengthAdjust="spacing" textLength="148" x="1220" y="678.3984">findEntityByID(roomID);</text><polygon fill="#181818" points="1202,708.4512,1192,712.4512,1202,716.4512,1198,712.4512" style="stroke:#181818;stroke-width:1.0;"/><line style="stroke:#181818;stroke-width:1.0;stroke-dasharray:2.0,2.0;" x1="1196" x2="1379" y1="712.4512" y2="712.4512"/><text fill="#000000" font-family="sans-serif" font-size="13" font-weight="bold" lengthAdjust="spacing" textLength="18" x="1208" y="707.709">17</text><text fill="#000000" font-family="sans-serif" font-size="13" lengthAdjust="spacing" textLength="73" x="1230" y="707.709">roomToEdit</text><path d="M1170,724.4512 L1232,724.4512 L1232,731.7617 L1222,741.7617 L1170,741.7617 L1170,724.4512 " fill="#EEEEEE" style="stroke:#000000;stroke-width:1.5;"/><rect fill="none" height="203.1738" style="stroke:#000000;stroke-width:1.5;" width="401.5" x="1170" y="724.4512"/><text fill="#000000" font-family="sans-serif" font-size="13" font-weight="bold" lengthAdjust="spacing" textLength="17" x="1185" y="738.0195">alt</text><text fill="#000000" font-family="sans-serif" font-size="11" font-weight="bold" lengthAdjust="spacing" textLength="154" x="1247" y="737.0859">[if all parameters are valid]</text><polygon fill="#181818" points="1491,769.0723,1501,773.0723,1491,777.0723,1495,773.0723" style="stroke:#181818;stroke-width:1.0;"/><line style="stroke:#181818;stroke-width:1.0;" x1="1191" x2="1497" y1="773.0723" y2="773.0723"/><text fill="#000000" font-family="sans-serif" font-size="13" font-weight="bold" lengthAdjust="spacing" textLength="18" x="1198" y="768.3301">18</text><text fill="#000000" font-family="sans-serif" font-size="13" lengthAdjust="spacing" textLength="249" x="1220" y="768.3301">editRoom(roomFloor, roomDimensions)</text><polygon fill="#181818" points="1202,798.3828,1192,802.3828,1202,806.3828,1198,802.3828" style="stroke:#181818;stroke-width:1.0;"/><line style="stroke:#181818;stroke-width:1.0;stroke-dasharray:2.0,2.0;" x1="1196" x2="1502" y1="802.3828" y2="802.3828"/><text fill="#000000" font-family="sans-serif" font-size="13" font-weight="bold" lengthAdjust="spacing" textLength="18" x="1208" y="797.6406">19</text><text fill="#000000" font-family="sans-serif" font-size="13" lengthAdjust="spacing" textLength="73" x="1230" y="797.6406">roomToEdit</text><polygon fill="#181818" points="1368,827.6934,1378,831.6934,1368,835.6934,1372,831.6934" style="stroke:#181818;stroke-width:1.0;"/><line style="stroke:#181818;stroke-width:1.0;" x1="1191" x2="1374" y1="831.6934" y2="831.6934"/><text fill="#000000" font-family="sans-serif" font-size="13" font-weight="bold" lengthAdjust="spacing" textLength="18" x="1198" y="826.9512">20</text><text fill="#000000" font-family="sans-serif" font-size="13" lengthAdjust="spacing" textLength="109" x="1220" y="826.9512">save(roomToEdit)</text><polygon fill="#181818" points="1202,857.0039,1192,861.0039,1202,865.0039,1198,861.0039" style="stroke:#181818;stroke-width:1.0;"/><line style="stroke:#181818;stroke-width:1.0;stroke-dasharray:2.0,2.0;" x1="1196" x2="1379" y1="861.0039" y2="861.0039"/><text fill="#000000" font-family="sans-serif" font-size="13" font-weight="bold" lengthAdjust="spacing" textLength="18" x="1208" y="856.2617">21</text><text fill="#000000" font-family="sans-serif" font-size="13" lengthAdjust="spacing" textLength="73" x="1230" y="856.2617">roomToEdit</text><polygon fill="#181818" points="1491,886.3145,1501,890.3145,1491,894.3145,1495,890.3145" style="stroke:#181818;stroke-width:1.0;"/><line style="stroke:#181818;stroke-width:1.0;" x1="1191" x2="1497" y1="890.3145" y2="890.3145"/><text fill="#000000" font-family="sans-serif" font-size="13" font-weight="bold" lengthAdjust="spacing" textLength="18" x="1198" y="885.5723">22</text><text fill="#000000" font-family="sans-serif" font-size="13" lengthAdjust="spacing" textLength="56" x="1220" y="885.5723">identity()</text><polygon fill="#181818" points="1202,915.625,1192,919.625,1202,923.625,1198,919.625" style="stroke:#181818;stroke-width:1.0;"/><line style="stroke:#181818;stroke-width:1.0;stroke-dasharray:2.0,2.0;" x1="1196" x2="1502" y1="919.625" y2="919.625"/><text fill="#000000" font-family="sans-serif" font-size="13" font-weight="bold" lengthAdjust="spacing" textLength="18" x="1208" y="914.8828">23</text><text fill="#000000" font-family="sans-serif" font-size="13" lengthAdjust="spacing" textLength="87" x="1230" y="914.8828">roomToEditID</text><polygon fill="#181818" points="302,958.9355,292,962.9355,302,966.9355,298,962.9355" style="stroke:#181818;stroke-width:1.0;"/><line style="stroke:#181818;stroke-width:1.0;stroke-dasharray:2.0,2.0;" x1="296" x2="1180" y1="962.9355" y2="962.9355"/><text fill="#000000" font-family="sans-serif" font-size="13" font-weight="bold" lengthAdjust="spacing" textLength="18" x="308" y="958.1934">24</text><text fill="#000000" font-family="sans-serif" font-size="13" lengthAdjust="spacing" textLength="87" x="330" y="958.1934">roomToEditID</text><polygon fill="#181818" points="452,988.2461,462,992.2461,452,996.2461,456,992.2461" style="stroke:#181818;stroke-width:1.0;"/><line style="stroke:#181818;stroke-width:1.0;" x1="291" x2="458" y1="992.2461" y2="992.2461"/><text fill="#000000" font-family="sans-serif" font-size="13" font-weight="bold" lengthAdjust="spacing" textLength="18" x="298" y="987.5039">25</text><text fill="#000000" font-family="sans-serif" font-size="13" lengthAdjust="spacing" textLength="86" x="320" y="987.5039">roomEditedID</text><polygon fill="#181818" points="302,1017.5566,292,1021.5566,302,1025.5566,298,1021.5566" style="stroke:#181818;stroke-width:1.0;"/><line style="stroke:#181818;stroke-width:1.0;stroke-dasharray:2.0,2.0;" x1="296" x2="463" y1="1021.5566" y2="1021.5566"/><text fill="#000000" font-family="sans-serif" font-size="13" font-weight="bold" lengthAdjust="spacing" textLength="18" x="308" y="1016.8145">26</text><text fill="#000000" font-family="sans-serif" font-size="13" lengthAdjust="spacing" textLength="127" x="330" y="1016.8145">String roomEditedID</text><polygon fill="#181818" points="452,1046.8672,462,1050.8672,452,1054.8672,456,1050.8672" style="stroke:#181818;stroke-width:1.0;"/><line style="stroke:#181818;stroke-width:1.0;" x1="291" x2="458" y1="1050.8672" y2="1050.8672"/><text fill="#000000" font-family="sans-serif" font-size="13" font-weight="bold" lengthAdjust="spacing" textLength="18" x="298" y="1046.125">27</text><text fill="#000000" font-family="sans-serif" font-size="13" lengthAdjust="spacing" textLength="80" x="320" y="1046.125">floorNumber</text><polygon fill="#181818" points="302,1076.1777,292,1080.1777,302,1084.1777,298,1080.1777" style="stroke:#181818;stroke-width:1.0;"/><line style="stroke:#181818;stroke-width:1.0;stroke-dasharray:2.0,2.0;" x1="296" x2="463" y1="1080.1777" y2="1080.1777"/><text fill="#000000" font-family="sans-serif" font-size="13" font-weight="bold" lengthAdjust="spacing" textLength="18" x="308" y="1075.4355">28</text><text fill="#000000" font-family="sans-serif" font-size="13" lengthAdjust="spacing" textLength="101" x="330" y="1075.4355">int floorNumber</text><polygon fill="#181818" points="452,1105.4883,462,1109.4883,452,1113.4883,456,1109.4883" style="stroke:#181818;stroke-width:1.0;"/><line style="stroke:#181818;stroke-width:1.0;" x1="291" x2="458" y1="1109.4883" y2="1109.4883"/><text fill="#000000" font-family="sans-serif" font-size="13" font-weight="bold" lengthAdjust="spacing" textLength="18" x="298" y="1104.7461">29</text><text fill="#000000" font-family="sans-serif" font-size="13" lengthAdjust="spacing" textLength="40" x="320" y="1104.7461">length</text><polygon fill="#181818" points="302,1134.7988,292,1138.7988,302,1142.7988,298,1138.7988" style="stroke:#181818;stroke-width:1.0;"/><line style="stroke:#181818;stroke-width:1.0;stroke-dasharray:2.0,2.0;" x1="296" x2="463" y1="1138.7988" y2="1138.7988"/><text fill="#000000" font-family="sans-serif" font-size="13" font-weight="bold" lengthAdjust="spacing" textLength="18" x="308" y="1134.0566">30</text><text fill="#000000" font-family="sans-serif" font-size="13" lengthAdjust="spacing" textLength="87" x="330" y="1134.0566">double length</text><polygon fill="#181818" points="452,1164.1094,462,1168.1094,452,1172.1094,456,1168.1094" style="stroke:#181818;stroke-width:1.0;"/><line style="stroke:#181818;stroke-width:1.0;" x1="291" x2="458" y1="1168.1094" y2="1168.1094"/><text fill="#000000" font-family="sans-serif" font-size="13" font-weight="bold" lengthAdjust="spacing" textLength="18" x="298" y="1163.3672">31</text><text fill="#000000" font-family="sans-serif" font-size="13" lengthAdjust="spacing" textLength="35" x="320" y="1163.3672">width</text><polygon fill="#181818" points="302,1193.4199,292,1197.4199,302,1201.4199,298,1197.4199" style="stroke:#181818;stroke-width:1.0;"/><line style="stroke:#181818;stroke-width:1.0;stroke-dasharray:2.0,2.0;" x1="296" x2="463" y1="1197.4199" y2="1197.4199"/><text fill="#000000" font-family="sans-serif" font-size="13" font-weight="bold" lengthAdjust="spacing" textLength="18" x="308" y="1192.6777">32</text><text fill="#000000" font-family="sans-serif" font-size="13" lengthAdjust="spacing" textLength="82" x="330" y="1192.6777">double width</text><polygon fill="#181818" points="452,1222.7305,462,1226.7305,452,1230.7305,456,1226.7305" style="stroke:#181818;stroke-width:1.0;"/><line style="stroke:#181818;stroke-width:1.0;" x1="291" x2="458" y1="1226.7305" y2="1226.7305"/><text fill="#000000" font-family="sans-serif" font-size="13" font-weight="bold" lengthAdjust="spacing" textLength="18" x="298" y="1221.9883">33</text><text fill="#000000" font-family="sans-serif" font-size="13" lengthAdjust="spacing" textLength="40" x="320" y="1221.9883">height</text><polygon fill="#181818" points="302,1252.041,292,1256.041,302,1260.041,298,1256.041" style="stroke:#181818;stroke-width:1.0;"/><line style="stroke:#181818;stroke-width:1.0;stroke-dasharray:2.0,2.0;" x1="296" x2="463" y1="1256.041" y2="1256.041"/><text fill="#000000" font-family="sans-serif" font-size="13" font-weight="bold" lengthAdjust="spacing" textLength="18" x="308" y="1251.2988">34</text><text fill="#000000" font-family="sans-serif" font-size="13" lengthAdjust="spacing" textLength="87" x="330" y="1251.2988">double height</text><rect fill="#E2E2F0" height="30.4883" rx="2.5" ry="2.5" style="stroke:#181818;stroke-width:0.5;" width="155" x="1565.5" y="1264.041"/><text fill="#000000" font-family="sans-serif" font-size="14" lengthAdjust="spacing" textLength="141" x="1572.5" y="1284.5762">roomDTO:RoomDTO</text><polygon fill="#181818" points="1553.5,1281.3516,1563.5,1285.3516,1553.5,1289.3516,1557.5,1285.3516" style="stroke:#181818;stroke-width:1.0;"/><line style="stroke:#181818;stroke-width:1.0;stroke-dasharray:2.0,2.0;" x1="291" x2="1559.5" y1="1285.3516" y2="1285.3516"/><text fill="#000000" font-family="sans-serif" font-size="13" font-weight="bold" lengthAdjust="spacing" textLength="18" x="298" y="1280.6094">35</text><text fill="#000000" font-family="sans-serif" font-size="13" lengthAdjust="spacing" textLength="59" x="320" y="1280.6094">&#171;creates&#187;</text><ellipse cx="10.5" cy="1316.0898" fill="none" rx="4" ry="4" style="stroke:#181818;stroke-width:1.5;"/><polygon fill="#181818" points="27.5,1312.8398,17.5,1316.8398,27.5,1320.8398,23.5,1316.8398" style="stroke:#181818;stroke-width:1.0;"/><line style="stroke:#181818;stroke-width:1.0;" x1="25.5" x2="280" y1="1316.8398" y2="1316.8398"/><text fill="#000000" font-family="sans-serif" font-size="13" font-weight="bold" lengthAdjust="spacing" textLength="18" x="28" y="1312.0977">36</text><text fill="#000000" font-family="sans-serif" font-size="13" lengthAdjust="spacing" textLength="61" x="50" y="1312.0977">roomDTO</text><!--SRC=[vLNFRzCm5Bxdhp3bqauhWd4BKINM31G93QaPf-tYnc-jjSIk7BTG_dgUdSHnacOh24xqqDhfzttlzmlTQodsnHfKeBdEWNnRldt_vehSCAx9IieY25xj5DqKb6YGFubMUmZMyWUPH56wNwV7KaEnM3m84aLBAJJb0fIz4n9Uq-m919kGrp5LJvyL71lgKXOxAK3e2Xgce0wW4FY5RxRQ8eCTLPfdV4U59fFGE6JyCKQKp7E3fYN9t9LqLBjiXSJuxckugdujitxsReXCOWjCOeTBuY7gKowbia1xSbXxEs6U5o1ABaLPUU6khJFkKIzqWpS9uXbOS5cTo-SYjgGLx6J9jLJ7oeYxlfGhotQEdPtBgm0_ztA-yCeI4i3AfP13fe4PqaV1Kdg0HBJkFOXfBTT8pGAQQNwW6ZojmAis6cag6DhJBIsW9RdgDWSoxxcLQiN5fgNwshLu4bzSX9YhJ05gOgB6x3-QcjzMOpHga6FsVE09WxPtphIPWzZexRWv9lThdESQDgRodRCpH2hKcCOMpD2-A5B360oBT28LxJJqyj5penc6gi-y_iAUgcfusQRsiYVjTLcZ4xZfCewu3iKQSy5k12x9u_KnYMljsGUlvHmuy2Pjtl7HiEwasMMTFBHCccl27mdDSu9JXtsfGPM4AY07cdFMzSvCgWjxUawKTfpDrtb-6VHOFahCyRJbpVvo8eQ1SWOs_TFVYWTNTpyYV2Lvyhrc7MEw_dXk1naQC2J-sHvoz7-sP_wd1OBl8tzrbBWxJjNpNaRpGGSWsGUtV_y2]--></g></svg>