<?xml version="1.0" encoding="us-ascii" standalone="no"?><svg xmlns="http://www.w3.org/2000/svg" xmlns:xlink="http://www.w3.org/1999/xlink" contentStyleType="text/css" height="792px" preserveAspectRatio="none" style="width:1578px;height:792px;background:#FFFFFF;" version="1.1" viewBox="0 0 1578 792" width="1578px" zoomAndPan="magnify"><defs/><g><rect fill="#A9A9A9" height="743.2734" style="stroke:#181818;stroke-width:0.5;" width="1455.5" x="116.5" y="43.4883"/><text fill="#000000" font-family="sans-serif" font-size="13" font-weight="bold" lengthAdjust="spacing" textLength="87" x="800.75" y="56.0566">&#171;SubSystem&#187;</text><text fill="#000000" font-family="sans-serif" font-size="13" font-weight="bold" lengthAdjust="spacing" textLength="80" x="804.75" y="71.3672">&#171;Container&#187;</text><text fill="#000000" font-family="sans-serif" font-size="13" font-weight="bold" lengthAdjust="spacing" textLength="60" x="812.75" y="86.6777">:Backend</text><rect fill="#D3D3D3" height="692.3418" style="stroke:#181818;stroke-width:0.5;" width="1455.5" x="116.5" y="94.4199"/><text fill="#000000" font-family="sans-serif" font-size="13" font-weight="bold" lengthAdjust="spacing" textLength="92" x="798.25" y="106.9883">&#171;Component&#187;</text><text fill="#000000" font-family="sans-serif" font-size="13" font-weight="bold" lengthAdjust="spacing" textLength="46" x="806.25" y="122.2988">:Server</text><text fill="#000000" font-family="sans-serif" font-size="14" font-weight="bold" lengthAdjust="spacing" textLength="207" x="687.5" y="28.5352">UC03.1 List Rooms of House</text><line style="stroke:#181818;stroke-width:0.5;stroke-dasharray:5.0,5.0;" x1="223" x2="223" y1="177.0176" y2="732.7852"/><rect fill="#FFFFFF" height="508.457" style="stroke:#181818;stroke-width:1.0;" width="10" x="218" y="206.3281"/><line style="stroke:#181818;stroke-width:0.5;stroke-dasharray:5.0,5.0;" x1="637" x2="637" y1="177.0176" y2="732.7852"/><rect fill="#FFFFFF" height="391.2148" style="stroke:#181818;stroke-width:1.0;" width="10" x="632" y="235.6387"/><rect fill="#FFFFFF" height="331.5938" style="stroke:#181818;stroke-width:1.0;" width="10" x="637" y="264.9492"/><line style="stroke:#181818;stroke-width:0.5;stroke-dasharray:5.0,5.0;" x1="968" x2="968" y1="177.0176" y2="732.7852"/><rect fill="#FFFFFF" height="21.3105" style="stroke:#181818;stroke-width:1.0;" width="10" x="963" y="272.9492"/><line style="stroke:#181818;stroke-width:0.5;stroke-dasharray:5.0,5.0;" x1="1110.5" x2="1110.5" y1="177.0176" y2="732.7852"/><rect fill="#FFFFFF" height="29.3105" style="stroke:#181818;stroke-width:1.0;" width="10" x="1105.5" y="323.5703"/><line style="stroke:#181818;stroke-width:0.5;stroke-dasharray:5.0,5.0;" x1="1242.5" x2="1242.5" y1="360.8809" y2="732.7852"/><rect fill="#FFFFFF" height="29.3105" style="stroke:#181818;stroke-width:1.0;" width="10" x="1237.5" y="554.2324"/><line style="stroke:#181818;stroke-width:0.5;stroke-dasharray:5.0,5.0;" x1="1363.5" x2="1363.5" y1="177.0176" y2="732.7852"/><rect fill="#FFFFFF" height="29.3105" style="stroke:#181818;stroke-width:1.0;" width="10" x="1358.5" y="444.9902"/><line style="stroke:#181818;stroke-width:0.5;stroke-dasharray:5.0,5.0;" x1="1498" x2="1498" y1="177.0176" y2="732.7852"/><rect fill="#FFFFFF" height="29.3105" style="stroke:#181818;stroke-width:1.0;" width="10" x="1493" y="656.1641"/><rect fill="#E2E2F0" height="46.9766" rx="2.5" ry="2.5" style="stroke:#181818;stroke-width:0.5;" width="205" x="120.5" y="129.041"/><text fill="#000000" font-family="sans-serif" font-size="14" font-style="italic" lengthAdjust="spacing" textLength="95" x="175.5" y="149.5762">&#171;Component&#187;</text><text fill="#000000" font-family="sans-serif" font-size="14" lengthAdjust="spacing" textLength="191" x="127.5" y="166.0645">:ListAndEditRoomController</text><rect fill="#E2E2F0" height="46.9766" rx="2.5" ry="2.5" style="stroke:#181818;stroke-width:0.5;" width="109" x="582.5" y="129.041"/><text fill="#000000" font-family="sans-serif" font-size="14" font-style="italic" lengthAdjust="spacing" textLength="95" x="589.5" y="149.5762">&#171;Component&#187;</text><text fill="#000000" font-family="sans-serif" font-size="14" lengthAdjust="spacing" textLength="92" x="591" y="166.0645">:RoomService</text><rect fill="#E2E2F0" height="46.9766" rx="2.5" ry="2.5" style="stroke:#181818;stroke-width:0.5;" width="134" x="901" y="129.041"/><text fill="#000000" font-family="sans-serif" font-size="14" font-style="italic" lengthAdjust="spacing" textLength="95" x="920.5" y="149.5762">&#171;Component&#187;</text><text fill="#000000" font-family="sans-serif" font-size="14" lengthAdjust="spacing" textLength="120" x="908" y="166.0645">:HouseRepository</text><rect fill="#E2E2F0" height="46.9766" rx="2.5" ry="2.5" style="stroke:#181818;stroke-width:0.5;" width="131" x="1045" y="129.041"/><text fill="#000000" font-family="sans-serif" font-size="14" font-style="italic" lengthAdjust="spacing" textLength="95" x="1063" y="149.5762">&#171;Component&#187;</text><text fill="#000000" font-family="sans-serif" font-size="14" lengthAdjust="spacing" textLength="117" x="1052" y="166.0645">:RoomRepository</text><rect fill="#E2E2F0" height="46.9766" rx="2.5" ry="2.5" style="stroke:#181818;stroke-width:0.5;" width="109" x="1309" y="129.041"/><text fill="#000000" font-family="sans-serif" font-size="14" font-style="italic" lengthAdjust="spacing" textLength="95" x="1316" y="149.5762">&#171;Component&#187;</text><text fill="#000000" font-family="sans-serif" font-size="14" lengthAdjust="spacing" textLength="44" x="1341.5" y="166.0645">:Room</text><rect fill="#E2E2F0" height="46.9766" rx="2.5" ry="2.5" style="stroke:#181818;stroke-width:0.5;" width="140" x="1428" y="129.041"/><text fill="#000000" font-family="sans-serif" font-size="14" font-style="italic" lengthAdjust="spacing" textLength="95" x="1450.5" y="149.5762">&#171;Component&#187;</text><text fill="#000000" font-family="sans-serif" font-size="14" lengthAdjust="spacing" textLength="126" x="1435" y="166.0645">:RoomMapperDTO</text><rect fill="#E2E2F0" height="46.9766" rx="2.5" ry="2.5" style="stroke:#181818;stroke-width:0.5;" width="205" x="120.5" y="732.7852"/><text fill="#000000" font-family="sans-serif" font-size="14" font-style="italic" lengthAdjust="spacing" textLength="95" x="175.5" y="753.3203">&#171;Component&#187;</text><text fill="#000000" font-family="sans-serif" font-size="14" lengthAdjust="spacing" textLength="191" x="127.5" y="769.8086">:ListAndEditRoomController</text><rect fill="#E2E2F0" height="46.9766" rx="2.5" ry="2.5" style="stroke:#181818;stroke-width:0.5;" width="109" x="582.5" y="732.7852"/><text fill="#000000" font-family="sans-serif" font-size="14" font-style="italic" lengthAdjust="spacing" textLength="95" x="589.5" y="753.3203">&#171;Component&#187;</text><text fill="#000000" font-family="sans-serif" font-size="14" lengthAdjust="spacing" textLength="92" x="591" y="769.8086">:RoomService</text><rect fill="#E2E2F0" height="46.9766" rx="2.5" ry="2.5" style="stroke:#181818;stroke-width:0.5;" width="134" x="901" y="732.7852"/><text fill="#000000" font-family="sans-serif" font-size="14" font-style="italic" lengthAdjust="spacing" textLength="95" x="920.5" y="753.3203">&#171;Component&#187;</text><text fill="#000000" font-family="sans-serif" font-size="14" lengthAdjust="spacing" textLength="120" x="908" y="769.8086">:HouseRepository</text><rect fill="#E2E2F0" height="46.9766" rx="2.5" ry="2.5" style="stroke:#181818;stroke-width:0.5;" width="131" x="1045" y="732.7852"/><text fill="#000000" font-family="sans-serif" font-size="14" font-style="italic" lengthAdjust="spacing" textLength="95" x="1063" y="753.3203">&#171;Component&#187;</text><text fill="#000000" font-family="sans-serif" font-size="14" lengthAdjust="spacing" textLength="117" x="1052" y="769.8086">:RoomRepository</text><rect fill="#E2E2F0" height="30.4883" rx="2.5" ry="2.5" style="stroke:#181818;stroke-width:0.5;" width="113" x="1186" y="732.7852"/><text fill="#000000" font-family="sans-serif" font-size="14" lengthAdjust="spacing" textLength="99" x="1193" y="753.3203">List&lt;RoomID&gt;</text><rect fill="#E2E2F0" height="46.9766" rx="2.5" ry="2.5" style="stroke:#181818;stroke-width:0.5;" width="109" x="1309" y="732.7852"/><text fill="#000000" font-family="sans-serif" font-size="14" font-style="italic" lengthAdjust="spacing" textLength="95" x="1316" y="753.3203">&#171;Component&#187;</text><text fill="#000000" font-family="sans-serif" font-size="14" lengthAdjust="spacing" textLength="44" x="1341.5" y="769.8086">:Room</text><rect fill="#E2E2F0" height="46.9766" rx="2.5" ry="2.5" style="stroke:#181818;stroke-width:0.5;" width="140" x="1428" y="732.7852"/><text fill="#000000" font-family="sans-serif" font-size="14" font-style="italic" lengthAdjust="spacing" textLength="95" x="1450.5" y="753.3203">&#171;Component&#187;</text><text fill="#000000" font-family="sans-serif" font-size="14" lengthAdjust="spacing" textLength="126" x="1435" y="769.8086">:RoomMapperDTO</text><ellipse cx="10.5" cy="205.5781" fill="none" rx="4" ry="4" style="stroke:#181818;stroke-width:1.5;"/><polygon fill="#181818" points="206,202.3281,216,206.3281,206,210.3281,210,206.3281" style="stroke:#181818;stroke-width:1.0;"/><line style="stroke:#181818;stroke-width:1.0;" x1="15" x2="212" y1="206.3281" y2="206.3281"/><text fill="#000000" font-family="sans-serif" font-size="13" font-weight="bold" lengthAdjust="spacing" textLength="9" x="18" y="201.5859">1</text><text fill="#000000" font-family="sans-serif" font-size="13" lengthAdjust="spacing" textLength="181" x="31" y="201.5859">getListOfRoomsDTOInHouse</text><polygon fill="#181818" points="620,231.6387,630,235.6387,620,239.6387,624,235.6387" style="stroke:#181818;stroke-width:1.0;"/><line style="stroke:#181818;stroke-width:1.0;" x1="228" x2="626" y1="235.6387" y2="235.6387"/><text fill="#000000" font-family="sans-serif" font-size="13" font-weight="bold" lengthAdjust="spacing" textLength="9" x="235" y="230.8965">2</text><text fill="#000000" font-family="sans-serif" font-size="13" lengthAdjust="spacing" textLength="372" x="248" y="230.8965">getListOfRoomsInHouse(HouseID houseID): List&lt;RoomID&gt;</text><polygon fill="#181818" points="956,260.9492,966,264.9492,956,268.9492,960,264.9492" style="stroke:#181818;stroke-width:1.0;"/><line style="stroke:#181818;stroke-width:1.0;" x1="647" x2="962" y1="264.9492" y2="264.9492"/><text fill="#000000" font-family="sans-serif" font-size="13" font-weight="bold" lengthAdjust="spacing" textLength="9" x="654" y="260.207">3</text><text fill="#000000" font-family="sans-serif" font-size="13" lengthAdjust="spacing" textLength="294" x="667" y="260.207">containsEntityByID(HouseID houseID): boolean</text><polygon fill="#181818" points="658,290.2598,648,294.2598,658,298.2598,654,294.2598" style="stroke:#181818;stroke-width:1.0;"/><line style="stroke:#181818;stroke-width:1.0;stroke-dasharray:2.0,2.0;" x1="652" x2="962" y1="294.2598" y2="294.2598"/><text fill="#000000" font-family="sans-serif" font-size="13" font-weight="bold" lengthAdjust="spacing" textLength="9" x="664" y="289.5176">4</text><text fill="#000000" font-family="sans-serif" font-size="13" lengthAdjust="spacing" textLength="25" x="677" y="289.5176">true</text><polygon fill="#181818" points="1093.5,319.5703,1103.5,323.5703,1093.5,327.5703,1097.5,323.5703" style="stroke:#181818;stroke-width:1.0;"/><line style="stroke:#181818;stroke-width:1.0;" x1="647" x2="1099.5" y1="323.5703" y2="323.5703"/><text fill="#000000" font-family="sans-serif" font-size="13" font-weight="bold" lengthAdjust="spacing" textLength="9" x="654" y="318.8281">5</text><text fill="#000000" font-family="sans-serif" font-size="13" lengthAdjust="spacing" textLength="208" x="667" y="318.8281">findAllEntities(): Iterable&lt;Room&gt;</text><polygon fill="#181818" points="658,348.8809,648,352.8809,658,356.8809,654,352.8809" style="stroke:#181818;stroke-width:1.0;"/><line style="stroke:#181818;stroke-width:1.0;stroke-dasharray:2.0,2.0;" x1="652" x2="1104.5" y1="352.8809" y2="352.8809"/><text fill="#000000" font-family="sans-serif" font-size="13" font-weight="bold" lengthAdjust="spacing" textLength="9" x="664" y="348.1387">6</text><text fill="#000000" font-family="sans-serif" font-size="13" lengthAdjust="spacing" textLength="103" x="677" y="348.1387">Iterable&lt;Room&gt;</text><rect fill="#E2E2F0" height="30.4883" rx="2.5" ry="2.5" style="stroke:#181818;stroke-width:0.5;" width="113" x="1186" y="360.8809"/><text fill="#000000" font-family="sans-serif" font-size="14" lengthAdjust="spacing" textLength="99" x="1193" y="381.416">List&lt;RoomID&gt;</text><polygon fill="#181818" points="1174,378.1914,1184,382.1914,1174,386.1914,1178,382.1914" style="stroke:#181818;stroke-width:1.0;"/><line style="stroke:#181818;stroke-width:1.0;stroke-dasharray:2.0,2.0;" x1="647" x2="1180" y1="382.1914" y2="382.1914"/><text fill="#000000" font-family="sans-serif" font-size="13" font-weight="bold" lengthAdjust="spacing" textLength="9" x="654" y="377.4492">7</text><text fill="#000000" font-family="sans-serif" font-size="13" lengthAdjust="spacing" textLength="52" x="667" y="377.4492">&#171;create&#187;</text><path d="M505,396.3691 L579,396.3691 L579,403.6797 L569,413.6797 L505,413.6797 L505,396.3691 " fill="#EEEEEE" style="stroke:#000000;stroke-width:1.5;"/><rect fill="none" height="195.1738" style="stroke:#000000;stroke-width:1.5;" width="929" x="505" y="396.3691"/><text fill="#000000" font-family="sans-serif" font-size="13" font-weight="bold" lengthAdjust="spacing" textLength="29" x="520" y="409.9375">loop</text><text fill="#000000" font-family="sans-serif" font-size="11" font-weight="bold" lengthAdjust="spacing" textLength="203" x="594" y="409.0039">[for each Room in RoomRepository]</text><polygon fill="#181818" points="1346.5,440.9902,1356.5,444.9902,1346.5,448.9902,1350.5,444.9902" style="stroke:#181818;stroke-width:1.0;"/><line style="stroke:#181818;stroke-width:1.0;" x1="647" x2="1352.5" y1="444.9902" y2="444.9902"/><text fill="#000000" font-family="sans-serif" font-size="13" font-weight="bold" lengthAdjust="spacing" textLength="9" x="654" y="440.248">8</text><text fill="#000000" font-family="sans-serif" font-size="13" lengthAdjust="spacing" textLength="148" x="667" y="440.248">getHouseID() : HouseID</text><polygon fill="#181818" points="658,470.3008,648,474.3008,658,478.3008,654,474.3008" style="stroke:#181818;stroke-width:1.0;"/><line style="stroke:#181818;stroke-width:1.0;stroke-dasharray:2.0,2.0;" x1="652" x2="1357.5" y1="474.3008" y2="474.3008"/><text fill="#000000" font-family="sans-serif" font-size="13" font-weight="bold" lengthAdjust="spacing" textLength="9" x="664" y="469.5586">9</text><text fill="#000000" font-family="sans-serif" font-size="13" lengthAdjust="spacing" textLength="153" x="677" y="469.5586">roomHouseID : HouseID</text><path d="M526,487.3008 L526,527.3008 L748,527.3008 L748,497.3008 L738,487.3008 L526,487.3008 " fill="#FEFFDD" style="stroke:#181818;stroke-width:0.5;"/><path d="M738,487.3008 L738,497.3008 L748,497.3008 L738,487.3008 " fill="#FEFFDD" style="stroke:#181818;stroke-width:0.5;"/><text fill="#000000" font-family="sans-serif" font-size="13" lengthAdjust="spacing" textLength="158" x="532" y="504.8691">Method executes step 10</text><text fill="#000000" font-family="sans-serif" font-size="13" lengthAdjust="spacing" textLength="201" x="532" y="520.1797">if roomHouseID equals houseID</text><polygon fill="#181818" points="1225.5,550.2324,1235.5,554.2324,1225.5,558.2324,1229.5,554.2324" style="stroke:#181818;stroke-width:1.0;"/><line style="stroke:#181818;stroke-width:1.0;" x1="647" x2="1231.5" y1="554.2324" y2="554.2324"/><text fill="#000000" font-family="sans-serif" font-size="13" font-weight="bold" lengthAdjust="spacing" textLength="18" x="654" y="549.4902">10</text><text fill="#000000" font-family="sans-serif" font-size="13" lengthAdjust="spacing" textLength="124" x="676" y="549.4902">add(room.identity())</text><polygon fill="#181818" points="658,579.543,648,583.543,658,587.543,654,583.543" style="stroke:#181818;stroke-width:1.0;"/><line style="stroke:#181818;stroke-width:1.0;stroke-dasharray:2.0,2.0;" x1="652" x2="1236.5" y1="583.543" y2="583.543"/><text fill="#000000" font-family="sans-serif" font-size="13" font-weight="bold" lengthAdjust="spacing" textLength="18" x="664" y="578.8008">11</text><text fill="#000000" font-family="sans-serif" font-size="13" lengthAdjust="spacing" textLength="93" x="686" y="578.8008">List&lt;RoomID&gt;</text><polygon fill="#181818" points="239,622.8535,229,626.8535,239,630.8535,235,626.8535" style="stroke:#181818;stroke-width:1.0;"/><line style="stroke:#181818;stroke-width:1.0;stroke-dasharray:2.0,2.0;" x1="233" x2="631" y1="626.8535" y2="626.8535"/><text fill="#000000" font-family="sans-serif" font-size="13" font-weight="bold" lengthAdjust="spacing" textLength="18" x="245" y="622.1113">12</text><text fill="#000000" font-family="sans-serif" font-size="13" lengthAdjust="spacing" textLength="93" x="267" y="622.1113">List&lt;RoomID&gt;</text><polygon fill="#181818" points="1481,652.1641,1491,656.1641,1481,660.1641,1485,656.1641" style="stroke:#181818;stroke-width:1.0;"/><line style="stroke:#181818;stroke-width:1.0;" x1="228" x2="1487" y1="656.1641" y2="656.1641"/><text fill="#000000" font-family="sans-serif" font-size="13" font-weight="bold" lengthAdjust="spacing" textLength="18" x="235" y="651.4219">13</text><text fill="#000000" font-family="sans-serif" font-size="13" lengthAdjust="spacing" textLength="440" x="257" y="651.4219">roomIDsToDTOList(List&lt;RoomID&gt; listOfRoomsIDs): List&lt;RoomDTO&gt;</text><polygon fill="#181818" points="239,681.4746,229,685.4746,239,689.4746,235,685.4746" style="stroke:#181818;stroke-width:1.0;"/><line style="stroke:#181818;stroke-width:1.0;stroke-dasharray:2.0,2.0;" x1="233" x2="1492" y1="685.4746" y2="685.4746"/><text fill="#000000" font-family="sans-serif" font-size="13" font-weight="bold" lengthAdjust="spacing" textLength="18" x="245" y="680.7324">14</text><text fill="#000000" font-family="sans-serif" font-size="13" lengthAdjust="spacing" textLength="107" x="267" y="680.7324">List&lt;RoomDTO&gt;</text><ellipse cx="10.5" cy="714.0352" fill="none" rx="4" ry="4" style="stroke:#181818;stroke-width:1.5;"/><polygon fill="#181818" points="27.5,710.7852,17.5,714.7852,27.5,718.7852,23.5,714.7852" style="stroke:#181818;stroke-width:1.0;"/><line style="stroke:#181818;stroke-width:1.0;stroke-dasharray:2.0,2.0;" x1="25.5" x2="217" y1="714.7852" y2="714.7852"/><text fill="#000000" font-family="sans-serif" font-size="13" font-weight="bold" lengthAdjust="spacing" textLength="18" x="28" y="710.043">15</text><text fill="#000000" font-family="sans-serif" font-size="13" lengthAdjust="spacing" textLength="107" x="50" y="710.043">List&lt;RoomDTO&gt;</text><!--SRC=[ZLHDJ-Cm4BtxLynsBobI4MXlKLG96iH60Y5HzWGNDvcs5eadQpk8xgzVs_cea-q2bogsvZs_cNcll34acsg3YXbXIeHVguiVvvTm9xI1Hw9A0stX9pKQ6VjMAxwhE1YaFs1KWsn3xp1BadMpMH-qmMgvV96G92kIXWk9ofy1uckUlw8iPl0zvUhrLk6XXwwegacYD6rfl4RrXieMtedTtlXALdDbH2vgBWtCOYVjIXOtXJ1Ee7jBKLaw4DUG3qSOaKz87D8z9NBqCDr-VuZnKtZ4chGmf0uUj-_lFdrj0bJTrKSursdYi5cwzA3INfoW7WW_5N7FwnfL-lJW8PK_JK3icHRBO8mnxD0u9GzRxmSBpcHh29uRySOD1jKicB-bwSOwvUW88l-RfUqKitGUGzZoaR-ZOVsMBFCm-DY_RjscRwIryE7waAKdY3T49NBvB-TmCJ2our8NOG_UyGMU00Iw-ht6i1Mok2fBhqgWZgo8pA3Ycn9zXq5_FOWDhXWzF8454WRWeC3Yd4lEpcAxrroXhN9BBObgs982YztxO8EGCFRbj0s_jMwIqHnYwBx7khtciLvtqs_WY9h8PaoI_IIRzYFo7isU2i1tp1k3DfO6QxYyW1SfjYDQ_DtmKlVx3PMxxcFWHH6v-dDHeBT5D9yVTViSkP-nxf7v0hc-F3Ztrh7_Q6mq-S3y_sVhqMoIbJQDxVIoL3-HJPhZY48YhwLFKQh3nDZom58j6-iYlfX4UWmAn7MmPqeMYwyXWkp_1G00]--></g></svg>