<?xml version="1.0" encoding="us-ascii" standalone="no"?><svg xmlns="http://www.w3.org/2000/svg" xmlns:xlink="http://www.w3.org/1999/xlink" contentStyleType="text/css" height="1074px" preserveAspectRatio="none" style="width:2062px;height:1074px;background:#FFFFFF;" version="1.1" viewBox="0 0 2062 1074" width="2062px" zoomAndPan="magnify"><defs/><g><rect fill="#A9A9A9" height="1025.4004" style="stroke:#181818;stroke-width:0.5;" width="1845.5" x="203.5" y="43.4883"/><text fill="#000000" font-family="sans-serif" font-size="13" font-weight="bold" lengthAdjust="spacing" textLength="87" x="1082.75" y="56.0566">&#171;SubSystem&#187;</text><text fill="#000000" font-family="sans-serif" font-size="13" font-weight="bold" lengthAdjust="spacing" textLength="80" x="1086.75" y="71.3672">&#171;Container&#187;</text><text fill="#000000" font-family="sans-serif" font-size="13" font-weight="bold" lengthAdjust="spacing" textLength="60" x="1094.75" y="86.6777">:Backend</text><rect fill="#D3D3D3" height="974.4688" style="stroke:#181818;stroke-width:0.5;" width="1845.5" x="203.5" y="94.4199"/><text fill="#000000" font-family="sans-serif" font-size="13" font-weight="bold" lengthAdjust="spacing" textLength="92" x="1080.25" y="106.9883">&#171;Component&#187;</text><text fill="#000000" font-family="sans-serif" font-size="13" font-weight="bold" lengthAdjust="spacing" textLength="46" x="1088.25" y="122.2988">:Server</text><text fill="#000000" font-family="sans-serif" font-size="14" font-weight="bold" lengthAdjust="spacing" textLength="221" x="919" y="28.5352">UC05 Add new device to room.</text><line style="stroke:#181818;stroke-width:0.5;stroke-dasharray:5.0,5.0;" x1="331" x2="331" y1="177.0176" y2="1014.9121"/><rect fill="#FFFFFF" height="790.584" style="stroke:#181818;stroke-width:1.0;" width="10" x="326" y="206.3281"/><line style="stroke:#181818;stroke-width:0.5;stroke-dasharray:5.0,5.0;" x1="547" x2="547" y1="944.1133" y2="1014.9121"/><line style="stroke:#181818;stroke-width:0.5;stroke-dasharray:5.0,5.0;" x1="706" x2="706" y1="376.0137" y2="1014.9121"/><line style="stroke:#181818;stroke-width:0.5;stroke-dasharray:5.0,5.0;" x1="877" x2="877" y1="407.502" y2="1014.9121"/><line style="stroke:#181818;stroke-width:0.5;stroke-dasharray:5.0,5.0;" x1="1059" x2="1059" y1="177.0176" y2="1014.9121"/><rect fill="#FFFFFF" height="29.3105" style="stroke:#181818;stroke-width:1.0;" width="10" x="1054" y="476.7891"/><line style="stroke:#181818;stroke-width:0.5;stroke-dasharray:5.0,5.0;" x1="1208" x2="1208" y1="514.0996" y2="1014.9121"/><line style="stroke:#181818;stroke-width:0.5;stroke-dasharray:5.0,5.0;" x1="1334.5" x2="1334.5" y1="177.0176" y2="1014.9121"/><rect fill="#FFFFFF" height="353.9043" style="stroke:#181818;stroke-width:1.0;" width="10" x="1329.5" y="582.209"/><line style="stroke:#181818;stroke-width:0.5;stroke-dasharray:5.0,5.0;" x1="1558.5" x2="1558.5" y1="177.0176" y2="1014.9121"/><rect fill="#FFFFFF" height="29.3105" style="stroke:#181818;stroke-width:1.0;" width="10" x="1553.5" y="611.5195"/><line style="stroke:#181818;stroke-width:0.5;stroke-dasharray:5.0,5.0;" x1="1701.5" x2="1701.5" y1="177.0176" y2="1014.9121"/><rect fill="#FFFFFF" height="29.3105" style="stroke:#181818;stroke-width:1.0;" width="10" x="1696.5" y="670.1406"/><rect fill="#FFFFFF" height="29.3105" style="stroke:#181818;stroke-width:1.0;" width="10" x="1696.5" y="818.8711"/><line style="stroke:#181818;stroke-width:0.5;stroke-dasharray:5.0,5.0;" x1="1835" x2="1835" y1="177.0176" y2="1014.9121"/><rect fill="#FFFFFF" height="60.7988" style="stroke:#181818;stroke-width:1.0;" width="10" x="1830" y="728.7617"/><line style="stroke:#181818;stroke-width:0.5;stroke-dasharray:5.0,5.0;" x1="1992.5" x2="1992.5" y1="736.7617" y2="1014.9121"/><rect fill="#FFFFFF" height="29.3105" style="stroke:#181818;stroke-width:1.0;" width="10" x="1987.5" y="877.4922"/><rect fill="#E2E2F0" height="46.9766" rx="2.5" ry="2.5" style="stroke:#181818;stroke-width:0.5;" width="247" x="207.5" y="129.041"/><text fill="#000000" font-family="sans-serif" font-size="14" font-style="italic" lengthAdjust="spacing" textLength="95" x="283.5" y="149.5762">&#171;Component&#187;</text><text fill="#000000" font-family="sans-serif" font-size="14" lengthAdjust="spacing" textLength="233" x="214.5" y="166.0645">:AddNewDeviceToRoomController</text><rect fill="#E2E2F0" height="30.4883" rx="2.5" ry="2.5" style="stroke:#181818;stroke-width:0.5;" width="155" x="981.5" y="145.5293"/><text fill="#000000" font-family="sans-serif" font-size="14" lengthAdjust="spacing" textLength="141" x="988.5" y="166.0645">roomDTO:RoomDTO</text><rect fill="#E2E2F0" height="46.9766" rx="2.5" ry="2.5" style="stroke:#181818;stroke-width:0.5;" width="110" x="1279.5" y="129.041"/><text fill="#000000" font-family="sans-serif" font-size="14" font-style="italic" lengthAdjust="spacing" textLength="95" x="1287" y="149.5762">&#171;Component&#187;</text><text fill="#000000" font-family="sans-serif" font-size="14" lengthAdjust="spacing" textLength="96" x="1286.5" y="166.0645">:DeviceService</text><rect fill="#E2E2F0" height="46.9766" rx="2.5" ry="2.5" style="stroke:#181818;stroke-width:0.5;" width="131" x="1493" y="129.041"/><text fill="#000000" font-family="sans-serif" font-size="14" font-style="italic" lengthAdjust="spacing" textLength="95" x="1511" y="149.5762">&#171;Component&#187;</text><text fill="#000000" font-family="sans-serif" font-size="14" lengthAdjust="spacing" textLength="117" x="1500" y="166.0645">:RoomRepository</text><rect fill="#E2E2F0" height="46.9766" rx="2.5" ry="2.5" style="stroke:#181818;stroke-width:0.5;" width="135" x="1634" y="129.041"/><text fill="#000000" font-family="sans-serif" font-size="14" font-style="italic" lengthAdjust="spacing" textLength="95" x="1654" y="149.5762">&#171;Component&#187;</text><text fill="#000000" font-family="sans-serif" font-size="14" lengthAdjust="spacing" textLength="121" x="1641" y="166.0645">:DeviceRepository</text><rect fill="#E2E2F0" height="46.9766" rx="2.5" ry="2.5" style="stroke:#181818;stroke-width:0.5;" width="112" x="1779" y="129.041"/><text fill="#000000" font-family="sans-serif" font-size="14" font-style="italic" lengthAdjust="spacing" textLength="95" x="1787.5" y="149.5762">&#171;Component&#187;</text><text fill="#000000" font-family="sans-serif" font-size="14" lengthAdjust="spacing" textLength="98" x="1786" y="166.0645">:FactoryDevice</text><rect fill="#E2E2F0" height="46.9766" rx="2.5" ry="2.5" style="stroke:#181818;stroke-width:0.5;" width="247" x="207.5" y="1014.9121"/><text fill="#000000" font-family="sans-serif" font-size="14" font-style="italic" lengthAdjust="spacing" textLength="95" x="283.5" y="1035.4473">&#171;Component&#187;</text><text fill="#000000" font-family="sans-serif" font-size="14" lengthAdjust="spacing" textLength="233" x="214.5" y="1051.9355">:AddNewDeviceToRoomController</text><rect fill="#E2E2F0" height="30.4883" rx="2.5" ry="2.5" style="stroke:#181818;stroke-width:0.5;" width="165" x="464.5" y="1014.9121"/><text fill="#000000" font-family="sans-serif" font-size="14" lengthAdjust="spacing" textLength="151" x="471.5" y="1035.4473">deviceDTO:DeviceDTO</text><rect fill="#E2E2F0" height="30.4883" rx="2.5" ry="2.5" style="stroke:#181818;stroke-width:0.5;" width="133" x="639.5" y="1014.9121"/><text fill="#000000" font-family="sans-serif" font-size="14" lengthAdjust="spacing" textLength="119" x="646.5" y="1035.4473">deviceID:DeviceID</text><rect fill="#E2E2F0" height="46.9766" rx="2.5" ry="2.5" style="stroke:#181818;stroke-width:0.5;" width="189" x="782.5" y="1014.9121"/><text fill="#000000" font-family="sans-serif" font-size="14" font-style="italic" lengthAdjust="spacing" textLength="95" x="829.5" y="1035.4473">&#171;Component&#187;</text><text fill="#000000" font-family="sans-serif" font-size="14" lengthAdjust="spacing" textLength="175" x="789.5" y="1051.9355">deviceModel:DeviceModel</text><rect fill="#E2E2F0" height="30.4883" rx="2.5" ry="2.5" style="stroke:#181818;stroke-width:0.5;" width="155" x="981.5" y="1014.9121"/><text fill="#000000" font-family="sans-serif" font-size="14" lengthAdjust="spacing" textLength="141" x="988.5" y="1035.4473">roomDTO:RoomDTO</text><rect fill="#E2E2F0" height="30.4883" rx="2.5" ry="2.5" style="stroke:#181818;stroke-width:0.5;" width="123" x="1146.5" y="1014.9121"/><text fill="#000000" font-family="sans-serif" font-size="14" lengthAdjust="spacing" textLength="109" x="1153.5" y="1035.4473">roomID:RoomID</text><rect fill="#E2E2F0" height="46.9766" rx="2.5" ry="2.5" style="stroke:#181818;stroke-width:0.5;" width="110" x="1279.5" y="1014.9121"/><text fill="#000000" font-family="sans-serif" font-size="14" font-style="italic" lengthAdjust="spacing" textLength="95" x="1287" y="1035.4473">&#171;Component&#187;</text><text fill="#000000" font-family="sans-serif" font-size="14" lengthAdjust="spacing" textLength="96" x="1286.5" y="1051.9355">:DeviceService</text><rect fill="#E2E2F0" height="46.9766" rx="2.5" ry="2.5" style="stroke:#181818;stroke-width:0.5;" width="131" x="1493" y="1014.9121"/><text fill="#000000" font-family="sans-serif" font-size="14" font-style="italic" lengthAdjust="spacing" textLength="95" x="1511" y="1035.4473">&#171;Component&#187;</text><text fill="#000000" font-family="sans-serif" font-size="14" lengthAdjust="spacing" textLength="117" x="1500" y="1051.9355">:RoomRepository</text><rect fill="#E2E2F0" height="46.9766" rx="2.5" ry="2.5" style="stroke:#181818;stroke-width:0.5;" width="135" x="1634" y="1014.9121"/><text fill="#000000" font-family="sans-serif" font-size="14" font-style="italic" lengthAdjust="spacing" textLength="95" x="1654" y="1035.4473">&#171;Component&#187;</text><text fill="#000000" font-family="sans-serif" font-size="14" lengthAdjust="spacing" textLength="121" x="1641" y="1051.9355">:DeviceRepository</text><rect fill="#E2E2F0" height="46.9766" rx="2.5" ry="2.5" style="stroke:#181818;stroke-width:0.5;" width="112" x="1779" y="1014.9121"/><text fill="#000000" font-family="sans-serif" font-size="14" font-style="italic" lengthAdjust="spacing" textLength="95" x="1787.5" y="1035.4473">&#171;Component&#187;</text><text fill="#000000" font-family="sans-serif" font-size="14" lengthAdjust="spacing" textLength="98" x="1786" y="1051.9355">:FactoryDevice</text><rect fill="#E2E2F0" height="30.4883" rx="2.5" ry="2.5" style="stroke:#181818;stroke-width:0.5;" width="105" x="1940" y="1014.9121"/><text fill="#000000" font-family="sans-serif" font-size="14" lengthAdjust="spacing" textLength="91" x="1947" y="1035.4473">device:Device</text><ellipse cx="10.5" cy="205.5781" fill="none" rx="4" ry="4" style="stroke:#181818;stroke-width:1.5;"/><polygon fill="#181818" points="314,202.3281,324,206.3281,314,210.3281,318,206.3281" style="stroke:#181818;stroke-width:1.0;"/><line style="stroke:#181818;stroke-width:1.0;" x1="15" x2="320" y1="206.3281" y2="206.3281"/><text fill="#000000" font-family="sans-serif" font-size="13" font-weight="bold" lengthAdjust="spacing" textLength="9" x="18" y="201.5859">1</text><text fill="#000000" font-family="sans-serif" font-size="13" lengthAdjust="spacing" textLength="137" x="31" y="201.5859">getListOfRoomsDTO()</text><rect fill="none" height="39.4434" style="stroke:#000000;stroke-width:1.5;" width="533" x="209.5" y="214.3281"/><path d="M209.5,214.3281 L273.5,214.3281 L273.5,221.3281 L263.5,231.3281 L209.5,231.3281 L209.5,214.3281 " fill="#EEEEEE" style="stroke:#000000;stroke-width:2.0;"/><text fill="#000000" font-family="sans-serif" font-size="13" font-weight="bold" lengthAdjust="spacing" textLength="19" x="222.5" y="228.8965">ref</text><a href="docs/DocumentationOfSystem/UC03_1-ListRoomsOfHouse/UC03.1SequenceDiagram.puml" target="_top" title="docs/DocumentationOfSystem/UC03_1-ListRoomsOfHouse/UC03.1SequenceDiagram.puml" xlink:actuate="onRequest" xlink:href="docs/DocumentationOfSystem/UC03_1-ListRoomsOfHouse/UC03.1SequenceDiagram.puml" xlink:show="new" xlink:title="docs/DocumentationOfSystem/UC03_1-ListRoomsOfHouse/UC03.1SequenceDiagram.puml" xlink:type="simple"><text fill="#0000FF" font-family="sans-serif" font-size="12" lengthAdjust="spacing" text-decoration="underline" textLength="525" x="213.5" y="246.9297">docs/DocumentationOfSystem/UC03_1-ListRoomsOfHouse/UC03.1SequenceDiagram.puml</text></a><ellipse cx="10.5" cy="279.332" fill="none" rx="4" ry="4" style="stroke:#181818;stroke-width:1.5;"/><polygon fill="#181818" points="27.5,276.082,17.5,280.082,27.5,284.082,23.5,280.082" style="stroke:#181818;stroke-width:1.0;"/><line style="stroke:#181818;stroke-width:1.0;stroke-dasharray:2.0,2.0;" x1="25.5" x2="325" y1="280.082" y2="280.082"/><text fill="#000000" font-family="sans-serif" font-size="13" font-weight="bold" lengthAdjust="spacing" textLength="9" x="28" y="275.3398">2</text><text fill="#000000" font-family="sans-serif" font-size="13" lengthAdjust="spacing" textLength="107" x="41" y="275.3398">List&lt;RoomDTO&gt;</text><rect fill="#EEEEEE" height="3" style="stroke:#EEEEEE;stroke-width:1.0;" width="2050" x="5" y="308.7373"/><line style="stroke:#000000;stroke-width:1.0;" x1="5" x2="2055" y1="308.7373" y2="308.7373"/><line style="stroke:#000000;stroke-width:1.0;" x1="5" x2="2055" y1="311.7373" y2="311.7373"/><rect fill="#EEEEEE" height="23.3105" style="stroke:#000000;stroke-width:2.0;" width="275" x="892.5" y="298.082"/><text fill="#000000" font-family="sans-serif" font-size="13" font-weight="bold" lengthAdjust="spacing" textLength="257" x="898.5" y="314.6504">Create Device object for a given Room</text><ellipse cx="10.5" cy="367.2637" fill="none" rx="4" ry="4" style="stroke:#181818;stroke-width:1.5;"/><polygon fill="#181818" points="314,364.0137,324,368.0137,314,372.0137,318,368.0137" style="stroke:#181818;stroke-width:1.0;"/><line style="stroke:#181818;stroke-width:1.0;" x1="15" x2="320" y1="368.0137" y2="368.0137"/><text fill="#000000" font-family="sans-serif" font-size="13" font-weight="bold" lengthAdjust="spacing" textLength="9" x="18" y="355.6162">3</text><text fill="#000000" font-family="sans-serif" font-size="13" lengthAdjust="spacing" textLength="285" x="31" y="347.9609">createDeviceAndSaveToRepository(roomDTO,</text><text fill="#000000" font-family="sans-serif" font-size="13" lengthAdjust="spacing" textLength="127" x="35" y="363.2715">deviceName, model)</text><rect fill="#E2E2F0" height="30.4883" rx="2.5" ry="2.5" style="stroke:#181818;stroke-width:0.5;" width="133" x="639.5" y="376.0137"/><text fill="#000000" font-family="sans-serif" font-size="14" lengthAdjust="spacing" textLength="119" x="646.5" y="396.5488">deviceID:DeviceID</text><polygon fill="#181818" points="627.5,393.3242,637.5,397.3242,627.5,401.3242,631.5,397.3242" style="stroke:#181818;stroke-width:1.0;"/><line style="stroke:#181818;stroke-width:1.0;stroke-dasharray:2.0,2.0;" x1="336" x2="633.5" y1="397.3242" y2="397.3242"/><text fill="#000000" font-family="sans-serif" font-size="13" font-weight="bold" lengthAdjust="spacing" textLength="9" x="343" y="392.582">4</text><text fill="#000000" font-family="sans-serif" font-size="13" lengthAdjust="spacing" textLength="52" x="356" y="392.582">&#171;create&#187;</text><rect fill="#E2E2F0" height="46.9766" rx="2.5" ry="2.5" style="stroke:#181818;stroke-width:0.5;" width="189" x="782.5" y="407.502"/><text fill="#000000" font-family="sans-serif" font-size="14" font-style="italic" lengthAdjust="spacing" textLength="95" x="829.5" y="428.0371">&#171;Component&#187;</text><text fill="#000000" font-family="sans-serif" font-size="14" lengthAdjust="spacing" textLength="175" x="789.5" y="444.5254">deviceModel:DeviceModel</text><polygon fill="#181818" points="770.5,424.8125,780.5,428.8125,770.5,432.8125,774.5,428.8125" style="stroke:#181818;stroke-width:1.0;"/><line style="stroke:#181818;stroke-width:1.0;stroke-dasharray:2.0,2.0;" x1="336" x2="776.5" y1="428.8125" y2="428.8125"/><text fill="#000000" font-family="sans-serif" font-size="13" font-weight="bold" lengthAdjust="spacing" textLength="9" x="343" y="424.0703">5</text><text fill="#000000" font-family="sans-serif" font-size="13" lengthAdjust="spacing" textLength="52" x="356" y="424.0703">&#171;create&#187;</text><polygon fill="#181818" points="1042,472.7891,1052,476.7891,1042,480.7891,1046,476.7891" style="stroke:#181818;stroke-width:1.0;"/><line style="stroke:#181818;stroke-width:1.0;" x1="336" x2="1048" y1="476.7891" y2="476.7891"/><text fill="#000000" font-family="sans-serif" font-size="13" font-weight="bold" lengthAdjust="spacing" textLength="9" x="343" y="472.0469">6</text><text fill="#000000" font-family="sans-serif" font-size="13" lengthAdjust="spacing" textLength="69" x="356" y="472.0469">roomName</text><polygon fill="#181818" points="347,502.0996,337,506.0996,347,510.0996,343,506.0996" style="stroke:#181818;stroke-width:1.0;"/><line style="stroke:#181818;stroke-width:1.0;stroke-dasharray:2.0,2.0;" x1="341" x2="1053" y1="506.0996" y2="506.0996"/><text fill="#000000" font-family="sans-serif" font-size="13" font-weight="bold" lengthAdjust="spacing" textLength="9" x="353" y="501.3574">7</text><text fill="#000000" font-family="sans-serif" font-size="13" lengthAdjust="spacing" textLength="110" x="366" y="501.3574">String roomName</text><rect fill="#E2E2F0" height="30.4883" rx="2.5" ry="2.5" style="stroke:#181818;stroke-width:0.5;" width="123" x="1146.5" y="514.0996"/><text fill="#000000" font-family="sans-serif" font-size="14" lengthAdjust="spacing" textLength="109" x="1153.5" y="534.6348">roomID:RoomID</text><polygon fill="#181818" points="1134.5,531.4102,1144.5,535.4102,1134.5,539.4102,1138.5,535.4102" style="stroke:#181818;stroke-width:1.0;"/><line style="stroke:#181818;stroke-width:1.0;stroke-dasharray:2.0,2.0;" x1="336" x2="1140.5" y1="535.4102" y2="535.4102"/><text fill="#000000" font-family="sans-serif" font-size="13" font-weight="bold" lengthAdjust="spacing" textLength="9" x="343" y="530.668">8</text><text fill="#000000" font-family="sans-serif" font-size="13" lengthAdjust="spacing" textLength="52" x="356" y="530.668">&#171;create&#187;</text><polygon fill="#181818" points="1317.5,578.209,1327.5,582.209,1317.5,586.209,1321.5,582.209" style="stroke:#181818;stroke-width:1.0;"/><line style="stroke:#181818;stroke-width:1.0;" x1="336" x2="1323.5" y1="582.209" y2="582.209"/><text fill="#000000" font-family="sans-serif" font-size="13" font-weight="bold" lengthAdjust="spacing" textLength="9" x="343" y="569.8115">9</text><text fill="#000000" font-family="sans-serif" font-size="13" lengthAdjust="spacing" textLength="271" x="356" y="562.1563">createDeviceAndSaveToRepository(roomID,</text><text fill="#000000" font-family="sans-serif" font-size="13" lengthAdjust="spacing" textLength="144" x="360" y="577.4668">deviceID, deviceModel)</text><polygon fill="#181818" points="1541.5,607.5195,1551.5,611.5195,1541.5,615.5195,1545.5,611.5195" style="stroke:#181818;stroke-width:1.0;"/><line style="stroke:#181818;stroke-width:1.0;" x1="1339.5" x2="1547.5" y1="611.5195" y2="611.5195"/><text fill="#000000" font-family="sans-serif" font-size="13" font-weight="bold" lengthAdjust="spacing" textLength="18" x="1346.5" y="606.7773">10</text><text fill="#000000" font-family="sans-serif" font-size="13" lengthAdjust="spacing" textLength="173" x="1368.5" y="606.7773">containsEntityByID(roomID)</text><polygon fill="#181818" points="1350.5,636.8301,1340.5,640.8301,1350.5,644.8301,1346.5,640.8301" style="stroke:#181818;stroke-width:1.0;"/><line style="stroke:#181818;stroke-width:1.0;stroke-dasharray:2.0,2.0;" x1="1344.5" x2="1552.5" y1="640.8301" y2="640.8301"/><text fill="#000000" font-family="sans-serif" font-size="13" font-weight="bold" lengthAdjust="spacing" textLength="18" x="1356.5" y="636.0879">11</text><text fill="#000000" font-family="sans-serif" font-size="13" lengthAdjust="spacing" textLength="25" x="1378.5" y="636.0879">true</text><polygon fill="#181818" points="1684.5,666.1406,1694.5,670.1406,1684.5,674.1406,1688.5,670.1406" style="stroke:#181818;stroke-width:1.0;"/><line style="stroke:#181818;stroke-width:1.0;" x1="1339.5" x2="1690.5" y1="670.1406" y2="670.1406"/><text fill="#000000" font-family="sans-serif" font-size="13" font-weight="bold" lengthAdjust="spacing" textLength="18" x="1346.5" y="665.3984">12</text><text fill="#000000" font-family="sans-serif" font-size="13" lengthAdjust="spacing" textLength="180" x="1368.5" y="665.3984">containsEntityByID(deviceID)</text><polygon fill="#181818" points="1350.5,695.4512,1340.5,699.4512,1350.5,703.4512,1346.5,699.4512" style="stroke:#181818;stroke-width:1.0;"/><line style="stroke:#181818;stroke-width:1.0;stroke-dasharray:2.0,2.0;" x1="1344.5" x2="1695.5" y1="699.4512" y2="699.4512"/><text fill="#000000" font-family="sans-serif" font-size="13" font-weight="bold" lengthAdjust="spacing" textLength="18" x="1356.5" y="694.709">13</text><text fill="#000000" font-family="sans-serif" font-size="13" lengthAdjust="spacing" textLength="30" x="1378.5" y="694.709">false</text><polygon fill="#181818" points="1818,724.7617,1828,728.7617,1818,732.7617,1822,728.7617" style="stroke:#181818;stroke-width:1.0;"/><line style="stroke:#181818;stroke-width:1.0;" x1="1339.5" x2="1824" y1="728.7617" y2="728.7617"/><text fill="#000000" font-family="sans-serif" font-size="13" font-weight="bold" lengthAdjust="spacing" textLength="18" x="1346.5" y="724.0195">14</text><text fill="#000000" font-family="sans-serif" font-size="13" lengthAdjust="spacing" textLength="283" x="1368.5" y="724.0195">createDevice(deviceID, deviceModel, roomID)</text><rect fill="#E2E2F0" height="30.4883" rx="2.5" ry="2.5" style="stroke:#181818;stroke-width:0.5;" width="105" x="1940" y="736.7617"/><text fill="#000000" font-family="sans-serif" font-size="14" lengthAdjust="spacing" textLength="91" x="1947" y="757.2969">device:Device</text><polygon fill="#181818" points="1928,754.0723,1938,758.0723,1928,762.0723,1932,758.0723" style="stroke:#181818;stroke-width:1.0;"/><line style="stroke:#181818;stroke-width:1.0;" x1="1840" x2="1934" y1="758.0723" y2="758.0723"/><text fill="#000000" font-family="sans-serif" font-size="13" font-weight="bold" lengthAdjust="spacing" textLength="18" x="1847" y="753.3301">15</text><text fill="#000000" font-family="sans-serif" font-size="13" lengthAdjust="spacing" textLength="59" x="1869" y="753.3301">&#171;creates&#187;</text><polygon fill="#181818" points="1350.5,785.5605,1340.5,789.5605,1350.5,793.5605,1346.5,789.5605" style="stroke:#181818;stroke-width:1.0;"/><line style="stroke:#181818;stroke-width:1.0;stroke-dasharray:2.0,2.0;" x1="1344.5" x2="1829" y1="789.5605" y2="789.5605"/><text fill="#000000" font-family="sans-serif" font-size="13" font-weight="bold" lengthAdjust="spacing" textLength="18" x="1356.5" y="784.8184">16</text><text fill="#000000" font-family="sans-serif" font-size="13" lengthAdjust="spacing" textLength="42" x="1378.5" y="784.8184">Device</text><polygon fill="#181818" points="1684.5,814.8711,1694.5,818.8711,1684.5,822.8711,1688.5,818.8711" style="stroke:#181818;stroke-width:1.0;"/><line style="stroke:#181818;stroke-width:1.0;" x1="1339.5" x2="1690.5" y1="818.8711" y2="818.8711"/><text fill="#000000" font-family="sans-serif" font-size="13" font-weight="bold" lengthAdjust="spacing" textLength="18" x="1346.5" y="814.1289">17</text><text fill="#000000" font-family="sans-serif" font-size="13" lengthAdjust="spacing" textLength="76" x="1368.5" y="814.1289">save(device)</text><polygon fill="#181818" points="1350.5,844.1816,1340.5,848.1816,1350.5,852.1816,1346.5,848.1816" style="stroke:#181818;stroke-width:1.0;"/><line style="stroke:#181818;stroke-width:1.0;stroke-dasharray:2.0,2.0;" x1="1344.5" x2="1695.5" y1="848.1816" y2="848.1816"/><text fill="#000000" font-family="sans-serif" font-size="13" font-weight="bold" lengthAdjust="spacing" textLength="18" x="1356.5" y="843.4395">18</text><text fill="#000000" font-family="sans-serif" font-size="13" lengthAdjust="spacing" textLength="42" x="1378.5" y="843.4395">Device</text><polygon fill="#181818" points="1975.5,873.4922,1985.5,877.4922,1975.5,881.4922,1979.5,877.4922" style="stroke:#181818;stroke-width:1.0;"/><line style="stroke:#181818;stroke-width:1.0;" x1="1339.5" x2="1981.5" y1="877.4922" y2="877.4922"/><text fill="#000000" font-family="sans-serif" font-size="13" font-weight="bold" lengthAdjust="spacing" textLength="18" x="1346.5" y="872.75">19</text><text fill="#000000" font-family="sans-serif" font-size="13" lengthAdjust="spacing" textLength="56" x="1368.5" y="872.75">identity()</text><polygon fill="#181818" points="1350.5,902.8027,1340.5,906.8027,1350.5,910.8027,1346.5,906.8027" style="stroke:#181818;stroke-width:1.0;"/><line style="stroke:#181818;stroke-width:1.0;stroke-dasharray:2.0,2.0;" x1="1344.5" x2="1986.5" y1="906.8027" y2="906.8027"/><text fill="#000000" font-family="sans-serif" font-size="13" font-weight="bold" lengthAdjust="spacing" textLength="18" x="1356.5" y="902.0605">20</text><text fill="#000000" font-family="sans-serif" font-size="13" lengthAdjust="spacing" textLength="56" x="1378.5" y="902.0605">DeviceID</text><polygon fill="#181818" points="347,932.1133,337,936.1133,347,940.1133,343,936.1133" style="stroke:#181818;stroke-width:1.0;"/><line style="stroke:#181818;stroke-width:1.0;stroke-dasharray:2.0,2.0;" x1="341" x2="1328.5" y1="936.1133" y2="936.1133"/><text fill="#000000" font-family="sans-serif" font-size="13" font-weight="bold" lengthAdjust="spacing" textLength="18" x="353" y="931.3711">21</text><text fill="#000000" font-family="sans-serif" font-size="13" lengthAdjust="spacing" textLength="56" x="375" y="931.3711">DeviceID</text><rect fill="#E2E2F0" height="30.4883" rx="2.5" ry="2.5" style="stroke:#181818;stroke-width:0.5;" width="165" x="464.5" y="944.1133"/><text fill="#000000" font-family="sans-serif" font-size="14" lengthAdjust="spacing" textLength="151" x="471.5" y="964.6484">deviceDTO:DeviceDTO</text><polygon fill="#181818" points="452.5,961.4238,462.5,965.4238,452.5,969.4238,456.5,965.4238" style="stroke:#181818;stroke-width:1.0;"/><line style="stroke:#181818;stroke-width:1.0;stroke-dasharray:2.0,2.0;" x1="336" x2="458.5" y1="965.4238" y2="965.4238"/><text fill="#000000" font-family="sans-serif" font-size="13" font-weight="bold" lengthAdjust="spacing" textLength="18" x="343" y="960.6816">22</text><text fill="#000000" font-family="sans-serif" font-size="13" lengthAdjust="spacing" textLength="52" x="365" y="960.6816">&#171;create&#187;</text><ellipse cx="10.5" cy="996.1621" fill="none" rx="4" ry="4" style="stroke:#181818;stroke-width:1.5;"/><polygon fill="#181818" points="27.5,992.9121,17.5,996.9121,27.5,1000.9121,23.5,996.9121" style="stroke:#181818;stroke-width:1.0;"/><line style="stroke:#181818;stroke-width:1.0;stroke-dasharray:2.0,2.0;" x1="25.5" x2="325" y1="996.9121" y2="996.9121"/><text fill="#000000" font-family="sans-serif" font-size="13" font-weight="bold" lengthAdjust="spacing" textLength="18" x="28" y="992.1699">23</text><text fill="#000000" font-family="sans-serif" font-size="13" lengthAdjust="spacing" textLength="70" x="50" y="992.1699">DeviceDTO</text><!--SRC=[fLPHRzem47xthxXr3wMej9kclKI0H4dQHcg9HEXUkceooS6o4fiv3XtxzRET19o4qafx8h6-x-xptNqNQ2uvozCv2Y8JkK9u67_w2gCu1eOl4ECcYH0a1y5vUa78XxMWovI2HFuNfCYHpFaVEEdtmtmURZE9wN3udK6_F-PCqeIXCEy0pXMDdf759_3HfUBvHk2seevvkkOCcIoWJeXYWq81xvBbJscGP4s5JA9aJPc44qV9c-2BQyJD-5H9q-a4NwqqZsQmVuLQ_7gSudRkB73SwicmT-U7uBvRedtN0llk8UmzZt5LmispnJ3lnzJfYcjjq-BNKCkpDb2fcfgV7Qofg9IXYwj-3AnsSaoAYJt5DSyIoSNMaEj7Hzb5dWQ_UNWqmZMDDARW67fvydPx7OjKF19o6dhZcHzCu3gOmeqtc_cJ6vZTUd3dXpC8hc4Q1FSX-1COmMtm47haaVU6rbGvi4HvbsGoMEWwPAeddJEY92KRAj424e4Bu6gSxRF7nvX7sQNBepnLkgbCE0iMXNqkbV- -_FZSqy5Dw61no_CCpVd5vn1_vyZKS2PqAMXwiSxJrTCJKSO2bKd9xFTwDPqwJhySeI4vzIOkb9Tlb64yzKQc3YDmlM_-s2E30Om5wliKTGC-_uMHX0KNG66PR92PAO31e5sVo30BueZ58Tref-wwtIad-HoKvOj6JMYAvv1gMvmHoy0z5RaoMRSBZcfv4Lpr-o3CEEiOSbZvI47qaywyRrxbiGhJQzmib29XopqnnXQr8Qkmut55DI- -hto-QrLFlrZNjuQn5fcGkkbLvhgHLUfYSsSUKn-4xTNMTyjiLimwXpHsGQzz7_Efi2hL2D0IrTmE1sLLDszTjXNvkBW5NMKrTQz4iVILwwVUgCx1Lfn3gtmbcrHBR2UfszsFIAPcP8zegowNcIMx2lkEQcPge4gv_rkzjewtorSSE934QDhPQOaeEQydLD-tLahI6k-6Tr-dLluuk56KfvlkRM_QtNy8ExYrzMlBzny0]--></g></svg>