<?xml version="1.0" encoding="us-ascii" standalone="no"?><svg xmlns="http://www.w3.org/2000/svg" xmlns:xlink="http://www.w3.org/1999/xlink" contentStyleType="text/css" height="1118px" preserveAspectRatio="none" style="width:2160px;height:1118px;background:#FFFFFF;" version="1.1" viewBox="0 0 2160 1118" width="2160px" zoomAndPan="magnify"><defs/><g><rect fill="#A9A9A9" height="1069.4004" style="stroke:#181818;stroke-width:0.5;" width="2022.5" x="120" y="43.4883"/><text fill="#000000" font-family="sans-serif" font-size="13" font-weight="bold" lengthAdjust="spacing" textLength="87" x="1087.75" y="56.0566">&#171;SubSystem&#187;</text><text fill="#000000" font-family="sans-serif" font-size="13" font-weight="bold" lengthAdjust="spacing" textLength="80" x="1091.75" y="71.3672">&#171;Container&#187;</text><text fill="#000000" font-family="sans-serif" font-size="13" font-weight="bold" lengthAdjust="spacing" textLength="60" x="1099.75" y="86.6777">:Backend</text><rect fill="#D3D3D3" height="1018.4688" style="stroke:#181818;stroke-width:0.5;" width="2022.5" x="120" y="94.4199"/><text fill="#000000" font-family="sans-serif" font-size="13" font-weight="bold" lengthAdjust="spacing" textLength="92" x="1085.25" y="106.9883">&#171;Component&#187;</text><text fill="#000000" font-family="sans-serif" font-size="13" font-weight="bold" lengthAdjust="spacing" textLength="46" x="1093.25" y="122.2988">:Server</text><text fill="#000000" font-family="sans-serif" font-size="14" font-weight="bold" lengthAdjust="spacing" textLength="965" x="601.25" y="28.5352">US06 - As a Room Owner [or Power User, or Administrator], I want to get a list of all devices in a room, so that I can configure them.</text><line style="stroke:#181818;stroke-width:0.5;stroke-dasharray:5.0,5.0;" x1="231" x2="231" y1="177.0176" y2="1058.9121"/><rect fill="#FFFFFF" height="73.7539" style="stroke:#181818;stroke-width:1.0;" width="10" x="226" y="206.3281"/><line style="stroke:#181818;stroke-width:0.5;stroke-dasharray:5.0,5.0;" x1="464.5" x2="464.5" y1="177.0176" y2="1058.9121"/><rect fill="#FFFFFF" height="731.5195" style="stroke:#181818;stroke-width:1.0;" width="10" x="459.5" y="309.3926"/><line style="stroke:#181818;stroke-width:0.5;stroke-dasharray:5.0,5.0;" x1="668.5" x2="668.5" y1="177.0176" y2="1058.9121"/><rect fill="#FFFFFF" height="29.3105" style="stroke:#181818;stroke-width:1.0;" width="10" x="663.5" y="338.7031"/><line style="stroke:#181818;stroke-width:0.5;stroke-dasharray:5.0,5.0;" x1="817.5" x2="817.5" y1="376.0137" y2="1058.9121"/><line style="stroke:#181818;stroke-width:0.5;stroke-dasharray:5.0,5.0;" x1="944" x2="944" y1="177.0176" y2="1058.9121"/><rect fill="#FFFFFF" height="327.7715" style="stroke:#181818;stroke-width:1.0;" width="10" x="939" y="428.8125"/><line style="stroke:#181818;stroke-width:0.5;stroke-dasharray:5.0,5.0;" x1="1159" x2="1159" y1="177.0176" y2="1058.9121"/><rect fill="#FFFFFF" height="29.3105" style="stroke:#181818;stroke-width:1.0;" width="10" x="1154" y="458.123"/><line style="stroke:#181818;stroke-width:0.5;stroke-dasharray:5.0,5.0;" x1="1302" x2="1302" y1="177.0176" y2="1058.9121"/><rect fill="#FFFFFF" height="29.3105" style="stroke:#181818;stroke-width:1.0;" width="10" x="1297" y="516.7441"/><line style="stroke:#181818;stroke-width:0.5;stroke-dasharray:5.0,5.0;" x1="1458.5" x2="1458.5" y1="554.0547" y2="1058.9121"/><line style="stroke:#181818;stroke-width:0.5;stroke-dasharray:5.0,5.0;" x1="1600" x2="1600" y1="177.0176" y2="1058.9121"/><rect fill="#FFFFFF" height="29.3105" style="stroke:#181818;stroke-width:1.0;" width="10" x="1595" y="654.6523"/><line style="stroke:#181818;stroke-width:0.5;stroke-dasharray:5.0,5.0;" x1="1734.5" x2="1734.5" y1="177.0176" y2="1058.9121"/><rect fill="#FFFFFF" height="225.707" style="stroke:#181818;stroke-width:1.0;" width="10" x="1729.5" y="785.8945"/><line style="stroke:#181818;stroke-width:0.5;stroke-dasharray:5.0,5.0;" x1="1942.5" x2="1942.5" y1="793.8945" y2="1058.9121"/><rect fill="#FFFFFF" height="13" style="stroke:#181818;stroke-width:1.0;" width="10" x="1937.5" y="968.291"/><line style="stroke:#181818;stroke-width:0.5;stroke-dasharray:5.0,5.0;" x1="2092.5" x2="2092.5" y1="915.4922" y2="1058.9121"/><rect fill="#E2E2F0" height="46.9766" rx="2.5" ry="2.5" style="stroke:#181818;stroke-width:0.5;" width="214" x="124" y="129.041"/><text fill="#000000" font-family="sans-serif" font-size="14" font-style="italic" lengthAdjust="spacing" textLength="95" x="183.5" y="149.5762">&#171;Component&#187;</text><text fill="#000000" font-family="sans-serif" font-size="14" lengthAdjust="spacing" textLength="200" x="131" y="166.0645">:ListRoomsInHouseController</text><rect fill="#E2E2F0" height="46.9766" rx="2.5" ry="2.5" style="stroke:#181818;stroke-width:0.5;" width="233" x="348" y="129.041"/><text fill="#000000" font-family="sans-serif" font-size="14" font-style="italic" lengthAdjust="spacing" textLength="95" x="417" y="149.5762">&#171;Component&#187;</text><text fill="#000000" font-family="sans-serif" font-size="14" lengthAdjust="spacing" textLength="219" x="355" y="166.0645">:ListAllDevicesInRoomController</text><rect fill="#E2E2F0" height="30.4883" rx="2.5" ry="2.5" style="stroke:#181818;stroke-width:0.5;" width="155" x="591" y="145.5293"/><text fill="#000000" font-family="sans-serif" font-size="14" lengthAdjust="spacing" textLength="141" x="598" y="166.0645">roomDTO:RoomDTO</text><rect fill="#E2E2F0" height="46.9766" rx="2.5" ry="2.5" style="stroke:#181818;stroke-width:0.5;" width="110" x="889" y="129.041"/><text fill="#000000" font-family="sans-serif" font-size="14" font-style="italic" lengthAdjust="spacing" textLength="95" x="896.5" y="149.5762">&#171;Component&#187;</text><text fill="#000000" font-family="sans-serif" font-size="14" lengthAdjust="spacing" textLength="96" x="896" y="166.0645">:DeviceService</text><rect fill="#E2E2F0" height="46.9766" rx="2.5" ry="2.5" style="stroke:#181818;stroke-width:0.5;" width="131" x="1093.5" y="129.041"/><text fill="#000000" font-family="sans-serif" font-size="14" font-style="italic" lengthAdjust="spacing" textLength="95" x="1111.5" y="149.5762">&#171;Component&#187;</text><text fill="#000000" font-family="sans-serif" font-size="14" lengthAdjust="spacing" textLength="117" x="1100.5" y="166.0645">:RoomRepository</text><rect fill="#E2E2F0" height="46.9766" rx="2.5" ry="2.5" style="stroke:#181818;stroke-width:0.5;" width="135" x="1234.5" y="129.041"/><text fill="#000000" font-family="sans-serif" font-size="14" font-style="italic" lengthAdjust="spacing" textLength="95" x="1254.5" y="149.5762">&#171;Component&#187;</text><text fill="#000000" font-family="sans-serif" font-size="14" lengthAdjust="spacing" textLength="121" x="1241.5" y="166.0645">:DeviceRepository</text><rect fill="#E2E2F0" height="30.4883" rx="2.5" ry="2.5" style="stroke:#181818;stroke-width:0.5;" width="105" x="1547.5" y="145.5293"/><text fill="#000000" font-family="sans-serif" font-size="14" lengthAdjust="spacing" textLength="91" x="1554.5" y="166.0645">device:Device</text><rect fill="#E2E2F0" height="30.4883" rx="2.5" ry="2.5" style="stroke:#181818;stroke-width:0.5;" width="144" x="1662.5" y="145.5293"/><text fill="#000000" font-family="sans-serif" font-size="14" lengthAdjust="spacing" textLength="130" x="1669.5" y="166.0645">:DeviceMapperDTO</text><rect fill="#E2E2F0" height="46.9766" rx="2.5" ry="2.5" style="stroke:#181818;stroke-width:0.5;" width="214" x="124" y="1058.9121"/><text fill="#000000" font-family="sans-serif" font-size="14" font-style="italic" lengthAdjust="spacing" textLength="95" x="183.5" y="1079.4473">&#171;Component&#187;</text><text fill="#000000" font-family="sans-serif" font-size="14" lengthAdjust="spacing" textLength="200" x="131" y="1095.9355">:ListRoomsInHouseController</text><rect fill="#E2E2F0" height="46.9766" rx="2.5" ry="2.5" style="stroke:#181818;stroke-width:0.5;" width="233" x="348" y="1058.9121"/><text fill="#000000" font-family="sans-serif" font-size="14" font-style="italic" lengthAdjust="spacing" textLength="95" x="417" y="1079.4473">&#171;Component&#187;</text><text fill="#000000" font-family="sans-serif" font-size="14" lengthAdjust="spacing" textLength="219" x="355" y="1095.9355">:ListAllDevicesInRoomController</text><rect fill="#E2E2F0" height="30.4883" rx="2.5" ry="2.5" style="stroke:#181818;stroke-width:0.5;" width="155" x="591" y="1058.9121"/><text fill="#000000" font-family="sans-serif" font-size="14" lengthAdjust="spacing" textLength="141" x="598" y="1079.4473">roomDTO:RoomDTO</text><rect fill="#E2E2F0" height="30.4883" rx="2.5" ry="2.5" style="stroke:#181818;stroke-width:0.5;" width="123" x="756" y="1058.9121"/><text fill="#000000" font-family="sans-serif" font-size="14" lengthAdjust="spacing" textLength="109" x="763" y="1079.4473">roomID:RoomID</text><rect fill="#E2E2F0" height="46.9766" rx="2.5" ry="2.5" style="stroke:#181818;stroke-width:0.5;" width="110" x="889" y="1058.9121"/><text fill="#000000" font-family="sans-serif" font-size="14" font-style="italic" lengthAdjust="spacing" textLength="95" x="896.5" y="1079.4473">&#171;Component&#187;</text><text fill="#000000" font-family="sans-serif" font-size="14" lengthAdjust="spacing" textLength="96" x="896" y="1095.9355">:DeviceService</text><rect fill="#E2E2F0" height="46.9766" rx="2.5" ry="2.5" style="stroke:#181818;stroke-width:0.5;" width="131" x="1093.5" y="1058.9121"/><text fill="#000000" font-family="sans-serif" font-size="14" font-style="italic" lengthAdjust="spacing" textLength="95" x="1111.5" y="1079.4473">&#171;Component&#187;</text><text fill="#000000" font-family="sans-serif" font-size="14" lengthAdjust="spacing" textLength="117" x="1100.5" y="1095.9355">:RoomRepository</text><rect fill="#E2E2F0" height="46.9766" rx="2.5" ry="2.5" style="stroke:#181818;stroke-width:0.5;" width="135" x="1234.5" y="1058.9121"/><text fill="#000000" font-family="sans-serif" font-size="14" font-style="italic" lengthAdjust="spacing" textLength="95" x="1254.5" y="1079.4473">&#171;Component&#187;</text><text fill="#000000" font-family="sans-serif" font-size="14" lengthAdjust="spacing" textLength="121" x="1241.5" y="1095.9355">:DeviceRepository</text><rect fill="#E2E2F0" height="46.9766" rx="2.5" ry="2.5" style="stroke:#181818;stroke-width:0.5;" width="158" x="1379.5" y="1058.9121"/><text fill="#000000" font-family="sans-serif" font-size="14" lengthAdjust="spacing" textLength="140" x="1386.5" y="1079.4473">listOfDevicesInRoom</text><text fill="#000000" font-family="sans-serif" font-size="14" lengthAdjust="spacing" textLength="107" x="1405" y="1095.9355">:List&lt;DeviceID&gt;</text><rect fill="#E2E2F0" height="30.4883" rx="2.5" ry="2.5" style="stroke:#181818;stroke-width:0.5;" width="105" x="1547.5" y="1058.9121"/><text fill="#000000" font-family="sans-serif" font-size="14" lengthAdjust="spacing" textLength="91" x="1554.5" y="1079.4473">device:Device</text><rect fill="#E2E2F0" height="30.4883" rx="2.5" ry="2.5" style="stroke:#181818;stroke-width:0.5;" width="144" x="1662.5" y="1058.9121"/><text fill="#000000" font-family="sans-serif" font-size="14" lengthAdjust="spacing" textLength="130" x="1669.5" y="1079.4473">:DeviceMapperDTO</text><rect fill="#E2E2F0" height="46.9766" rx="2.5" ry="2.5" style="stroke:#181818;stroke-width:0.5;" width="188" x="1848.5" y="1058.9121"/><text fill="#000000" font-family="sans-serif" font-size="14" lengthAdjust="spacing" textLength="170" x="1855.5" y="1079.4473">listOfDevicesDTOInRoom</text><text fill="#000000" font-family="sans-serif" font-size="14" lengthAdjust="spacing" textLength="123" x="1881" y="1095.9355">:List&lt;DeviceDTO&gt;</text><rect fill="#E2E2F0" height="30.4883" rx="2.5" ry="2.5" style="stroke:#181818;stroke-width:0.5;" width="92" x="2046.5" y="1058.9121"/><text fill="#000000" font-family="sans-serif" font-size="14" lengthAdjust="spacing" textLength="78" x="2053.5" y="1079.4473">:DeviceDTO</text><ellipse cx="10.5" cy="205.5781" fill="none" rx="4" ry="4" style="stroke:#181818;stroke-width:1.5;"/><polygon fill="#181818" points="214,202.3281,224,206.3281,214,210.3281,218,206.3281" style="stroke:#181818;stroke-width:1.0;"/><line style="stroke:#181818;stroke-width:1.0;" x1="15" x2="220" y1="206.3281" y2="206.3281"/><text fill="#000000" font-family="sans-serif" font-size="13" font-weight="bold" lengthAdjust="spacing" textLength="9" x="18" y="201.5859">1</text><text fill="#000000" font-family="sans-serif" font-size="13" lengthAdjust="spacing" textLength="189" x="31" y="201.5859">getListOfRoomsDTOInHouse()</text><rect fill="none" height="39.4434" style="stroke:#000000;stroke-width:1.5;" width="533" x="126" y="214.3281"/><path d="M126,214.3281 L190,214.3281 L190,221.3281 L180,231.3281 L126,231.3281 L126,214.3281 " fill="#EEEEEE" style="stroke:#000000;stroke-width:2.0;"/><text fill="#000000" font-family="sans-serif" font-size="13" font-weight="bold" lengthAdjust="spacing" textLength="19" x="139" y="228.8965">ref</text><a href="docs/DocumentationOfSystem/UC03_1-ListRoomsOfHouse/UC03.1SequenceDiagram.puml" target="_top" title="docs/DocumentationOfSystem/UC03_1-ListRoomsOfHouse/UC03.1SequenceDiagram.puml" xlink:actuate="onRequest" xlink:href="docs/DocumentationOfSystem/UC03_1-ListRoomsOfHouse/UC03.1SequenceDiagram.puml" xlink:show="new" xlink:title="docs/DocumentationOfSystem/UC03_1-ListRoomsOfHouse/UC03.1SequenceDiagram.puml" xlink:type="simple"><text fill="#0000FF" font-family="sans-serif" font-size="12" lengthAdjust="spacing" text-decoration="underline" textLength="525" x="130" y="246.9297">docs/DocumentationOfSystem/UC03_1-ListRoomsOfHouse/UC03.1SequenceDiagram.puml</text></a><ellipse cx="10.5" cy="279.332" fill="none" rx="4" ry="4" style="stroke:#181818;stroke-width:1.5;"/><polygon fill="#181818" points="27.5,276.082,17.5,280.082,27.5,284.082,23.5,280.082" style="stroke:#181818;stroke-width:1.0;"/><line style="stroke:#181818;stroke-width:1.0;stroke-dasharray:2.0,2.0;" x1="25.5" x2="225" y1="280.082" y2="280.082"/><text fill="#000000" font-family="sans-serif" font-size="13" font-weight="bold" lengthAdjust="spacing" textLength="9" x="28" y="275.3398">2</text><text fill="#000000" font-family="sans-serif" font-size="13" lengthAdjust="spacing" textLength="107" x="41" y="275.3398">List&lt;RoomDTO&gt;</text><ellipse cx="10.5" cy="308.6426" fill="none" rx="4" ry="4" style="stroke:#181818;stroke-width:1.5;"/><polygon fill="#181818" points="447.5,305.3926,457.5,309.3926,447.5,313.3926,451.5,309.3926" style="stroke:#181818;stroke-width:1.0;"/><line style="stroke:#181818;stroke-width:1.0;" x1="15" x2="453.5" y1="309.3926" y2="309.3926"/><text fill="#000000" font-family="sans-serif" font-size="13" font-weight="bold" lengthAdjust="spacing" textLength="9" x="18" y="304.6504">3</text><text fill="#000000" font-family="sans-serif" font-size="13" lengthAdjust="spacing" textLength="224" x="31" y="304.6504">getListOfDevicesInRoom(roomDTO)</text><polygon fill="#181818" points="651.5,334.7031,661.5,338.7031,651.5,342.7031,655.5,338.7031" style="stroke:#181818;stroke-width:1.0;"/><line style="stroke:#181818;stroke-width:1.0;" x1="469.5" x2="657.5" y1="338.7031" y2="338.7031"/><text fill="#000000" font-family="sans-serif" font-size="13" font-weight="bold" lengthAdjust="spacing" textLength="9" x="476.5" y="333.9609">4</text><text fill="#000000" font-family="sans-serif" font-size="13" lengthAdjust="spacing" textLength="69" x="489.5" y="333.9609">roomName</text><polygon fill="#181818" points="480.5,364.0137,470.5,368.0137,480.5,372.0137,476.5,368.0137" style="stroke:#181818;stroke-width:1.0;"/><line style="stroke:#181818;stroke-width:1.0;stroke-dasharray:2.0,2.0;" x1="474.5" x2="662.5" y1="368.0137" y2="368.0137"/><text fill="#000000" font-family="sans-serif" font-size="13" font-weight="bold" lengthAdjust="spacing" textLength="9" x="486.5" y="363.2715">5</text><text fill="#000000" font-family="sans-serif" font-size="13" lengthAdjust="spacing" textLength="110" x="499.5" y="363.2715">String roomName</text><rect fill="#E2E2F0" height="30.4883" rx="2.5" ry="2.5" style="stroke:#181818;stroke-width:0.5;" width="123" x="756" y="376.0137"/><text fill="#000000" font-family="sans-serif" font-size="14" lengthAdjust="spacing" textLength="109" x="763" y="396.5488">roomID:RoomID</text><polygon fill="#181818" points="744,393.3242,754,397.3242,744,401.3242,748,397.3242" style="stroke:#181818;stroke-width:1.0;"/><line style="stroke:#181818;stroke-width:1.0;stroke-dasharray:2.0,2.0;" x1="469.5" x2="750" y1="397.3242" y2="397.3242"/><text fill="#000000" font-family="sans-serif" font-size="13" font-weight="bold" lengthAdjust="spacing" textLength="9" x="476.5" y="392.582">6</text><text fill="#000000" font-family="sans-serif" font-size="13" lengthAdjust="spacing" textLength="59" x="489.5" y="392.582">&#171;creates&#187;</text><polygon fill="#181818" points="927,424.8125,937,428.8125,927,432.8125,931,428.8125" style="stroke:#181818;stroke-width:1.0;"/><line style="stroke:#181818;stroke-width:1.0;" x1="469.5" x2="933" y1="428.8125" y2="428.8125"/><text fill="#000000" font-family="sans-serif" font-size="13" font-weight="bold" lengthAdjust="spacing" textLength="9" x="476.5" y="424.0703">7</text><text fill="#000000" font-family="sans-serif" font-size="13" lengthAdjust="spacing" textLength="210" x="489.5" y="424.0703">getListOfDevicesInRoom(roomID)</text><polygon fill="#181818" points="1142,454.123,1152,458.123,1142,462.123,1146,458.123" style="stroke:#181818;stroke-width:1.0;"/><line style="stroke:#181818;stroke-width:1.0;" x1="949" x2="1148" y1="458.123" y2="458.123"/><text fill="#000000" font-family="sans-serif" font-size="13" font-weight="bold" lengthAdjust="spacing" textLength="9" x="956" y="453.3809">8</text><text fill="#000000" font-family="sans-serif" font-size="13" lengthAdjust="spacing" textLength="173" x="969" y="453.3809">containsEntityByID(roomID)</text><polygon fill="#181818" points="960,483.4336,950,487.4336,960,491.4336,956,487.4336" style="stroke:#181818;stroke-width:1.0;"/><line style="stroke:#181818;stroke-width:1.0;stroke-dasharray:2.0,2.0;" x1="954" x2="1153" y1="487.4336" y2="487.4336"/><text fill="#000000" font-family="sans-serif" font-size="13" font-weight="bold" lengthAdjust="spacing" textLength="9" x="966" y="482.6914">9</text><text fill="#000000" font-family="sans-serif" font-size="13" lengthAdjust="spacing" textLength="25" x="979" y="482.6914">true</text><polygon fill="#181818" points="1285,512.7441,1295,516.7441,1285,520.7441,1289,516.7441" style="stroke:#181818;stroke-width:1.0;"/><line style="stroke:#181818;stroke-width:1.0;" x1="949" x2="1291" y1="516.7441" y2="516.7441"/><text fill="#000000" font-family="sans-serif" font-size="13" font-weight="bold" lengthAdjust="spacing" textLength="18" x="956" y="512.002">10</text><text fill="#000000" font-family="sans-serif" font-size="13" lengthAdjust="spacing" textLength="144" x="978" y="512.002">findByRoomID(roomID)</text><polygon fill="#181818" points="960,542.0547,950,546.0547,960,550.0547,956,546.0547" style="stroke:#181818;stroke-width:1.0;"/><line style="stroke:#181818;stroke-width:1.0;stroke-dasharray:2.0,2.0;" x1="954" x2="1296" y1="546.0547" y2="546.0547"/><text fill="#000000" font-family="sans-serif" font-size="13" font-weight="bold" lengthAdjust="spacing" textLength="18" x="966" y="541.3125">11</text><text fill="#000000" font-family="sans-serif" font-size="13" lengthAdjust="spacing" textLength="109" x="988" y="541.3125">Iterable&lt;Device&gt;</text><rect fill="#E2E2F0" height="46.9766" rx="2.5" ry="2.5" style="stroke:#181818;stroke-width:0.5;" width="158" x="1379.5" y="554.0547"/><text fill="#000000" font-family="sans-serif" font-size="14" lengthAdjust="spacing" textLength="140" x="1386.5" y="574.5898">listOfDevicesInRoom</text><text fill="#000000" font-family="sans-serif" font-size="14" lengthAdjust="spacing" textLength="107" x="1405" y="591.0781">:List&lt;DeviceID&gt;</text><polygon fill="#181818" points="1367.5,571.3652,1377.5,575.3652,1367.5,579.3652,1371.5,575.3652" style="stroke:#181818;stroke-width:1.0;"/><line style="stroke:#181818;stroke-width:1.0;stroke-dasharray:2.0,2.0;" x1="949" x2="1373.5" y1="575.3652" y2="575.3652"/><text fill="#000000" font-family="sans-serif" font-size="13" font-weight="bold" lengthAdjust="spacing" textLength="18" x="956" y="570.623">12</text><text fill="#000000" font-family="sans-serif" font-size="13" lengthAdjust="spacing" textLength="59" x="978" y="570.623">&#171;creates&#187;</text><path d="M928,606.0313 L1002,606.0313 L1002,613.3418 L992,623.3418 L928,623.3418 L928,606.0313 " fill="#EEEEEE" style="stroke:#000000;stroke-width:1.5;"/><rect fill="none" height="115.2422" style="stroke:#000000;stroke-width:1.5;" width="740.5" x="928" y="606.0313"/><text fill="#000000" font-family="sans-serif" font-size="13" font-weight="bold" lengthAdjust="spacing" textLength="29" x="943" y="619.5996">loop</text><text fill="#000000" font-family="sans-serif" font-size="11" font-weight="bold" lengthAdjust="spacing" textLength="157" x="1017" y="618.666">[for each Device in Iterable]</text><polygon fill="#181818" points="1583,650.6523,1593,654.6523,1583,658.6523,1587,654.6523" style="stroke:#181818;stroke-width:1.0;"/><line style="stroke:#181818;stroke-width:1.0;" x1="949" x2="1589" y1="654.6523" y2="654.6523"/><text fill="#000000" font-family="sans-serif" font-size="13" font-weight="bold" lengthAdjust="spacing" textLength="18" x="956" y="649.9102">13</text><text fill="#000000" font-family="sans-serif" font-size="13" lengthAdjust="spacing" textLength="56" x="978" y="649.9102">identity()</text><polygon fill="#181818" points="960,679.9629,950,683.9629,960,687.9629,956,683.9629" style="stroke:#181818;stroke-width:1.0;"/><line style="stroke:#181818;stroke-width:1.0;stroke-dasharray:2.0,2.0;" x1="954" x2="1594" y1="683.9629" y2="683.9629"/><text fill="#000000" font-family="sans-serif" font-size="13" font-weight="bold" lengthAdjust="spacing" textLength="18" x="966" y="679.2207">14</text><text fill="#000000" font-family="sans-serif" font-size="13" lengthAdjust="spacing" textLength="62" x="988" y="679.2207">deviceID()</text><polygon fill="#181818" points="1446.5,709.2734,1456.5,713.2734,1446.5,717.2734,1450.5,713.2734" style="stroke:#181818;stroke-width:1.0;"/><line style="stroke:#181818;stroke-width:1.0;" x1="949" x2="1452.5" y1="713.2734" y2="713.2734"/><text fill="#000000" font-family="sans-serif" font-size="13" font-weight="bold" lengthAdjust="spacing" textLength="18" x="956" y="708.5313">15</text><text fill="#000000" font-family="sans-serif" font-size="13" lengthAdjust="spacing" textLength="85" x="978" y="708.5313">add(deviceID)</text><polygon fill="#181818" points="480.5,752.584,470.5,756.584,480.5,760.584,476.5,756.584" style="stroke:#181818;stroke-width:1.0;"/><line style="stroke:#181818;stroke-width:1.0;stroke-dasharray:2.0,2.0;" x1="474.5" x2="938" y1="756.584" y2="756.584"/><text fill="#000000" font-family="sans-serif" font-size="13" font-weight="bold" lengthAdjust="spacing" textLength="18" x="486.5" y="751.8418">16</text><text fill="#000000" font-family="sans-serif" font-size="13" lengthAdjust="spacing" textLength="132" x="508.5" y="751.8418">listOfDevicesInRoom</text><polygon fill="#181818" points="1717.5,781.8945,1727.5,785.8945,1717.5,789.8945,1721.5,785.8945" style="stroke:#181818;stroke-width:1.0;"/><line style="stroke:#181818;stroke-width:1.0;" x1="469.5" x2="1723.5" y1="785.8945" y2="785.8945"/><text fill="#000000" font-family="sans-serif" font-size="13" font-weight="bold" lengthAdjust="spacing" textLength="18" x="476.5" y="781.1523">17</text><text fill="#000000" font-family="sans-serif" font-size="13" lengthAdjust="spacing" textLength="268" x="498.5" y="781.1523">deviceIDsToDTOList(listOfDevicesInRoom)</text><rect fill="#E2E2F0" height="46.9766" rx="2.5" ry="2.5" style="stroke:#181818;stroke-width:0.5;" width="188" x="1848.5" y="793.8945"/><text fill="#000000" font-family="sans-serif" font-size="14" lengthAdjust="spacing" textLength="170" x="1855.5" y="814.4297">listOfDevicesDTOInRoom</text><text fill="#000000" font-family="sans-serif" font-size="14" lengthAdjust="spacing" textLength="123" x="1881" y="830.918">:List&lt;DeviceDTO&gt;</text><polygon fill="#181818" points="1836.5,811.2051,1846.5,815.2051,1836.5,819.2051,1840.5,815.2051" style="stroke:#181818;stroke-width:1.0;"/><line style="stroke:#181818;stroke-width:1.0;stroke-dasharray:2.0,2.0;" x1="1739.5" x2="1842.5" y1="815.2051" y2="815.2051"/><text fill="#000000" font-family="sans-serif" font-size="13" font-weight="bold" lengthAdjust="spacing" textLength="18" x="1746.5" y="810.4629">18</text><text fill="#000000" font-family="sans-serif" font-size="13" lengthAdjust="spacing" textLength="59" x="1768.5" y="810.4629">&#171;creates&#187;</text><path d="M1718.5,845.8711 L1792.5,845.8711 L1792.5,853.1816 L1782.5,863.1816 L1718.5,863.1816 L1718.5,845.8711 " fill="#EEEEEE" style="stroke:#000000;stroke-width:1.5;"/><rect fill="none" height="130.4199" style="stroke:#000000;stroke-width:1.5;" width="436" x="1718.5" y="845.8711"/><text fill="#000000" font-family="sans-serif" font-size="13" font-weight="bold" lengthAdjust="spacing" textLength="29" x="1733.5" y="859.4395">loop</text><text fill="#000000" font-family="sans-serif" font-size="11" font-weight="bold" lengthAdjust="spacing" textLength="248" x="1807.5" y="858.5059">[for each DeviceID in listOfDevicesInRoom]</text><line style="stroke:#181818;stroke-width:1.0;" x1="1739.5" x2="1781.5" y1="894.4922" y2="894.4922"/><line style="stroke:#181818;stroke-width:1.0;" x1="1781.5" x2="1781.5" y1="894.4922" y2="907.4922"/><line style="stroke:#181818;stroke-width:1.0;" x1="1740.5" x2="1781.5" y1="907.4922" y2="907.4922"/><polygon fill="#181818" points="1750.5,903.4922,1740.5,907.4922,1750.5,911.4922,1746.5,907.4922" style="stroke:#181818;stroke-width:1.0;"/><text fill="#000000" font-family="sans-serif" font-size="13" font-weight="bold" lengthAdjust="spacing" textLength="18" x="1746.5" y="889.75">19</text><text fill="#000000" font-family="sans-serif" font-size="13" lengthAdjust="spacing" textLength="167" x="1768.5" y="889.75">deviceIDsToDTO(deviceID)</text><rect fill="#E2E2F0" height="30.4883" rx="2.5" ry="2.5" style="stroke:#181818;stroke-width:0.5;" width="92" x="2046.5" y="915.4922"/><text fill="#000000" font-family="sans-serif" font-size="14" lengthAdjust="spacing" textLength="78" x="2053.5" y="936.0273">:DeviceDTO</text><polygon fill="#181818" points="2034.5,932.8027,2044.5,936.8027,2034.5,940.8027,2038.5,936.8027" style="stroke:#181818;stroke-width:1.0;"/><line style="stroke:#181818;stroke-width:1.0;stroke-dasharray:2.0,2.0;" x1="1739.5" x2="2040.5" y1="936.8027" y2="936.8027"/><text fill="#000000" font-family="sans-serif" font-size="13" font-weight="bold" lengthAdjust="spacing" textLength="18" x="1746.5" y="932.0605">20</text><text fill="#000000" font-family="sans-serif" font-size="13" lengthAdjust="spacing" textLength="59" x="1768.5" y="932.0605">&#171;creates&#187;</text><polygon fill="#181818" points="1925.5,964.291,1935.5,968.291,1925.5,972.291,1929.5,968.291" style="stroke:#181818;stroke-width:1.0;"/><line style="stroke:#181818;stroke-width:1.0;" x1="1739.5" x2="1931.5" y1="968.291" y2="968.291"/><text fill="#000000" font-family="sans-serif" font-size="13" font-weight="bold" lengthAdjust="spacing" textLength="18" x="1746.5" y="963.5488">21</text><text fill="#000000" font-family="sans-serif" font-size="13" lengthAdjust="spacing" textLength="99" x="1768.5" y="963.5488">add(deviceDTO)</text><polygon fill="#181818" points="480.5,1007.6016,470.5,1011.6016,480.5,1015.6016,476.5,1011.6016" style="stroke:#181818;stroke-width:1.0;"/><line style="stroke:#181818;stroke-width:1.0;stroke-dasharray:2.0,2.0;" x1="474.5" x2="1728.5" y1="1011.6016" y2="1011.6016"/><text fill="#000000" font-family="sans-serif" font-size="13" font-weight="bold" lengthAdjust="spacing" textLength="18" x="486.5" y="1006.8594">22</text><text fill="#000000" font-family="sans-serif" font-size="13" lengthAdjust="spacing" textLength="160" x="508.5" y="1006.8594">listOfDevicesDTOInRoom</text><ellipse cx="10.5" cy="1040.1621" fill="none" rx="4" ry="4" style="stroke:#181818;stroke-width:1.5;"/><polygon fill="#181818" points="27.5,1036.9121,17.5,1040.9121,27.5,1044.9121,23.5,1040.9121" style="stroke:#181818;stroke-width:1.0;"/><line style="stroke:#181818;stroke-width:1.0;stroke-dasharray:2.0,2.0;" x1="25.5" x2="458.5" y1="1040.9121" y2="1040.9121"/><text fill="#000000" font-family="sans-serif" font-size="13" font-weight="bold" lengthAdjust="spacing" textLength="18" x="28" y="1036.1699">23</text><text fill="#000000" font-family="sans-serif" font-size="13" lengthAdjust="spacing" textLength="160" x="50" y="1036.1699">listOfDevicesDTOInRoom</text><!--SRC=[bLPDR-Cs4BtpLqpJWxEBEDvqWJq8Xe4a2hO2qhY8arCsA1Y9jecLI9MaadL_VOSK9L4VyROdIwEPzsQ6yuQUxOqfTRHOb3aLfYhoyrGM2yt-hfX8sJpZTATeGOZX9cVmkFdq1UPmgO72lPG5hDy4K_0a5Vmft_3fKJDr1lXwcHLSS6qKDL8zdq42RuWFHiAE6OpEyHl8BT0yXuozyfHfu08_A8Gz0ot1xAd1i9GAIANOybsb61fPSKu8hOmKLV725FcbL7HNK31C_WD6LOoyo1zmibnkgfVDGHjMh5RV12oNrr8OoZ5TzmuGNT7qEnFP2VmQK_NzgsA79lHQ5gKKJ9ZQDTemzSeKEjxotTuuJr9IPNZAIrlLINIBvTY6w4JyBYlDB9cIUMwZg7P5fKRbqCEUmBZCyxZkHY8itW2dxjJFa2nR_B2ExkjV5-cVnuv9xFoIk7LBua5YTKQs2VZZt7JzVBGS2tNFIgavJi2XHRUcet4rso2oCnwBjKErtlOQ2D-4Q-oojYRnok5DUFQXwaxxP88K9fFzWvObKqsh1xOZAUBNoIpHFf5cwpsPGv_TyfBPvkRw8LdVmKK4Nr5rZURiiJkrxUsepiYJdA_Q4OsiG6yThnjen-fc-lG3eQdXhzImrfiejWM9ukWiJq-PJFKYbcbLu1bHmwLORsifBXwlFtt-wsBUocMzTT3EVdwnyMidhhVEUOdxwFcPe4W1UJ3FvNmU9EewvWTxHJ8spgvhmM_z5WGh1rSApdEEgcAPYvoH6NSxnolFDwZJNj2YtWITUk45VUg220d4Yt0-xyXHtj62TK6DLlqlp0Vi6wEus7M1GULDQ8_CioNnnuyHoYTL35qrYiSLwhMiPuC4lVreiKaSrEe326csW-UrgerSFt7zwXk1LydXwf34OuJ6cxIBOXucuhRxe5Zd7Z9scoA2BHVPrQ6kVSpMUP9WlVGO4yCKVScPrsLlo8BmZX-39rRBgE-vb2LiyPf4kBr7ihFOy16yds1KL0GyOwvzA4NhCSZ5sJnOhupCxpuVDYfYI3THGWGqoquRe0zEaxQAVktXb4wjs82vdPPGedZTuIxHk37iFmKSvE5G3dPhLvf-aFXkv_HqWdXqwjrsTXgeNsTay75ydkqE_az7ciJsKASQqPrKGFRJyeB-JmAq2FWsJF0TnkdgmjDs2wqtRU_SIeFHUiUh6vofzDyTe0vWDBt1MTOtnFy32LRqxEOk1Z-Ev5y0]--></g></svg>