<?xml version="1.0" encoding="us-ascii" standalone="no"?><svg xmlns="http://www.w3.org/2000/svg" xmlns:xlink="http://www.w3.org/1999/xlink" contentStyleType="text/css" height="981px" preserveAspectRatio="none" style="width:1999px;height:981px;background:#FFFFFF;" version="1.1" viewBox="0 0 1999 981" width="1999px" zoomAndPan="magnify"><defs/><g><rect fill="#A9A9A9" height="929.9824" style="stroke:#181818;stroke-width:0.5;" width="1879.5" x="102" y="45.6211"/><text fill="#000000" font-family="sans-serif" font-size="13" font-weight="bold" lengthAdjust="spacing" textLength="85" x="999.25" y="59.6494">&#171;SubSystem&#187;</text><text fill="#000000" font-family="sans-serif" font-size="13" font-weight="bold" lengthAdjust="spacing" textLength="59" x="999.25" y="76.9404">:Backend</text><rect fill="#D3D3D3" height="890.4004" style="stroke:#181818;stroke-width:0.5;" width="1879.5" x="102" y="85.2031"/><text fill="#000000" font-family="sans-serif" font-size="13" font-weight="bold" lengthAdjust="spacing" textLength="76" x="1005.75" y="99.2314">&#171;Container&#187;</text><text fill="#000000" font-family="sans-serif" font-size="13" font-weight="bold" lengthAdjust="spacing" textLength="46" x="1001.75" y="116.5225">:Server</text><text fill="#000000" font-family="sans-serif" font-size="14" font-weight="bold" lengthAdjust="spacing" textLength="239" x="883.75" y="30.1074">UC07.1 List Sensor Functionalities</text><line style="stroke:#181818;stroke-width:0.5;stroke-dasharray:5.0,5.0;" x1="225" x2="225" y1="176.0273" y2="917.3613"/><rect fill="#FFFFFF" height="692.043" style="stroke:#181818;stroke-width:1.0;" width="10" x="220" y="207.3184"/><line style="stroke:#181818;stroke-width:0.5;stroke-dasharray:5.0,5.0;" x1="570" x2="570" y1="215.3184" y2="917.3613"/><rect fill="#FFFFFF" height="258.6484" style="stroke:#181818;stroke-width:1.0;" width="10" x="565" y="609.4219"/><line style="stroke:#181818;stroke-width:0.5;stroke-dasharray:5.0,5.0;" x1="893" x2="893" y1="176.0273" y2="917.3613"/><rect fill="#FFFFFF" height="287.2793" style="stroke:#181818;stroke-width:1.0;" width="10" x="888" y="290.8516"/><line style="stroke:#181818;stroke-width:0.5;stroke-dasharray:5.0,5.0;" x1="1111" x2="1111" y1="176.0273" y2="917.3613"/><rect fill="#FFFFFF" height="31.291" style="stroke:#181818;stroke-width:1.0;" width="10" x="1106" y="322.1426"/><line style="stroke:#181818;stroke-width:0.5;stroke-dasharray:5.0,5.0;" x1="1323.5" x2="1323.5" y1="361.4336" y2="917.3613"/><rect fill="#FFFFFF" height="13" style="stroke:#181818;stroke-width:1.0;" width="10" x="1318.5" y="532.8398"/><line style="stroke:#181818;stroke-width:0.5;stroke-dasharray:5.0,5.0;" x1="1502" x2="1502" y1="176.0273" y2="917.3613"/><rect fill="#FFFFFF" height="31.291" style="stroke:#181818;stroke-width:1.0;" width="10" x="1497" y="470.2578"/><line style="stroke:#181818;stroke-width:0.5;stroke-dasharray:5.0,5.0;" x1="1689" x2="1689" y1="617.4219" y2="917.3613"/><rect fill="#FFFFFF" height="13" style="stroke:#181818;stroke-width:1.0;" width="10" x="1684" y="822.7793"/><line style="stroke:#181818;stroke-width:0.5;stroke-dasharray:5.0,5.0;" x1="1891" x2="1891" y1="747.2461" y2="917.3613"/><rect fill="#E2E2F0" height="51.2422" rx="2.5" ry="2.5" style="stroke:#181818;stroke-width:0.5;" width="238" x="106" y="123.7852"/><text fill="#000000" font-family="sans-serif" font-size="14" font-style="italic" lengthAdjust="spacing" textLength="89" x="180.5" y="145.8926">&#171;Component&#187;</text><text fill="#000000" font-family="sans-serif" font-size="14" lengthAdjust="spacing" textLength="224" x="113" y="164.5137">:ListSensorFunctionalitiesController</text><rect fill="#E2E2F0" height="51.2422" rx="2.5" ry="2.5" style="stroke:#181818;stroke-width:0.5;" width="190" x="798" y="123.7852"/><text fill="#000000" font-family="sans-serif" font-size="14" font-style="italic" lengthAdjust="spacing" textLength="89" x="848.5" y="145.8926">&#171;Component&#187;</text><text fill="#000000" font-family="sans-serif" font-size="14" lengthAdjust="spacing" textLength="176" x="805" y="164.5137">:SensorFunctionalityService</text><rect fill="#E2E2F0" height="51.2422" rx="2.5" ry="2.5" style="stroke:#181818;stroke-width:0.5;" width="211" x="1005.5" y="123.7852"/><text fill="#000000" font-family="sans-serif" font-size="14" font-style="italic" lengthAdjust="spacing" textLength="89" x="1066.5" y="145.8926">&#171;Component&#187;</text><text fill="#000000" font-family="sans-serif" font-size="14" lengthAdjust="spacing" textLength="197" x="1012.5" y="164.5137">:SensorFunctionalityRepository</text><rect fill="#E2E2F0" height="51.2422" rx="2.5" ry="2.5" style="stroke:#181818;stroke-width:0.5;" width="143" x="1430.5" y="123.7852"/><text fill="#000000" font-family="sans-serif" font-size="14" lengthAdjust="spacing" textLength="123" x="1440.5" y="145.8926">sensorFunctionality</text><text fill="#000000" font-family="sans-serif" font-size="14" lengthAdjust="spacing" textLength="129" x="1437.5" y="164.5137">:SensorFunctionality</text><rect fill="#E2E2F0" height="51.2422" rx="2.5" ry="2.5" style="stroke:#181818;stroke-width:0.5;" width="238" x="106" y="917.3613"/><text fill="#000000" font-family="sans-serif" font-size="14" font-style="italic" lengthAdjust="spacing" textLength="89" x="180.5" y="939.4688">&#171;Component&#187;</text><text fill="#000000" font-family="sans-serif" font-size="14" lengthAdjust="spacing" textLength="224" x="113" y="958.0898">:ListSensorFunctionalitiesController</text><rect fill="#E2E2F0" height="51.2422" rx="2.5" ry="2.5" style="stroke:#181818;stroke-width:0.5;" width="221" x="459.5" y="917.3613"/><text fill="#000000" font-family="sans-serif" font-size="14" lengthAdjust="spacing" textLength="129" x="505.5" y="939.4688">SensorFunctMapper</text><text fill="#000000" font-family="sans-serif" font-size="14" lengthAdjust="spacing" textLength="207" x="466.5" y="958.0898">:SensorFunctionalityMapperDTO</text><rect fill="#E2E2F0" height="51.2422" rx="2.5" ry="2.5" style="stroke:#181818;stroke-width:0.5;" width="190" x="798" y="917.3613"/><text fill="#000000" font-family="sans-serif" font-size="14" font-style="italic" lengthAdjust="spacing" textLength="89" x="848.5" y="939.4688">&#171;Component&#187;</text><text fill="#000000" font-family="sans-serif" font-size="14" lengthAdjust="spacing" textLength="176" x="805" y="958.0898">:SensorFunctionalityService</text><rect fill="#E2E2F0" height="51.2422" rx="2.5" ry="2.5" style="stroke:#181818;stroke-width:0.5;" width="211" x="1005.5" y="917.3613"/><text fill="#000000" font-family="sans-serif" font-size="14" font-style="italic" lengthAdjust="spacing" textLength="89" x="1066.5" y="939.4688">&#171;Component&#187;</text><text fill="#000000" font-family="sans-serif" font-size="14" lengthAdjust="spacing" textLength="197" x="1012.5" y="958.0898">:SensorFunctionalityRepository</text><rect fill="#E2E2F0" height="51.2422" rx="2.5" ry="2.5" style="stroke:#181818;stroke-width:0.5;" width="194" x="1226.5" y="917.3613"/><text fill="#000000" font-family="sans-serif" font-size="14" lengthAdjust="spacing" textLength="126" x="1260.5" y="939.4688">listOfSensorFunctID</text><text fill="#000000" font-family="sans-serif" font-size="14" lengthAdjust="spacing" textLength="180" x="1233.5" y="958.0898">:List&lt;SensorFunctionalityID&gt;</text><rect fill="#E2E2F0" height="51.2422" rx="2.5" ry="2.5" style="stroke:#181818;stroke-width:0.5;" width="143" x="1430.5" y="917.3613"/><text fill="#000000" font-family="sans-serif" font-size="14" lengthAdjust="spacing" textLength="123" x="1440.5" y="939.4688">sensorFunctionality</text><text fill="#000000" font-family="sans-serif" font-size="14" lengthAdjust="spacing" textLength="129" x="1437.5" y="958.0898">:SensorFunctionality</text><rect fill="#E2E2F0" height="51.2422" rx="2.5" ry="2.5" style="stroke:#181818;stroke-width:0.5;" width="211" x="1583.5" y="917.3613"/><text fill="#000000" font-family="sans-serif" font-size="14" lengthAdjust="spacing" textLength="143" x="1617.5" y="939.4688">listOfSensorFunctDTO</text><text fill="#000000" font-family="sans-serif" font-size="14" lengthAdjust="spacing" textLength="197" x="1590.5" y="958.0898">:List&lt;SensorFunctionalityDTO&gt;</text><rect fill="#E2E2F0" height="51.2422" rx="2.5" ry="2.5" style="stroke:#181818;stroke-width:0.5;" width="173" x="1804.5" y="917.3613"/><text fill="#000000" font-family="sans-serif" font-size="14" lengthAdjust="spacing" textLength="153" x="1814.5" y="939.4688">sensorFunctionalityDTO</text><text fill="#000000" font-family="sans-serif" font-size="14" lengthAdjust="spacing" textLength="159" x="1811.5" y="958.0898">:SensorFunctionalityDTO</text><polygon fill="#181818" points="208,203.3184,218,207.3184,208,211.3184,212,207.3184" style="stroke:#181818;stroke-width:1.0;"/><line style="stroke:#181818;stroke-width:1.0;" x1="5" x2="214" y1="207.3184" y2="207.3184"/><text fill="#000000" font-family="sans-serif" font-size="13" font-weight="bold" lengthAdjust="spacing" textLength="7" x="12" y="202.0557">1</text><text fill="#000000" font-family="sans-serif" font-size="13" lengthAdjust="spacing" textLength="185" x="23" y="202.0557">getListOfSensorFunctionalities()</text><rect fill="#E2E2F0" height="51.2422" rx="2.5" ry="2.5" style="stroke:#181818;stroke-width:0.5;" width="221" x="459.5" y="215.3184"/><text fill="#000000" font-family="sans-serif" font-size="14" lengthAdjust="spacing" textLength="129" x="505.5" y="237.4258">SensorFunctMapper</text><text fill="#000000" font-family="sans-serif" font-size="14" lengthAdjust="spacing" textLength="207" x="466.5" y="256.0469">:SensorFunctionalityMapperDTO</text><polygon fill="#181818" points="447.5,234.6094,457.5,238.6094,447.5,242.6094,451.5,238.6094" style="stroke:#181818;stroke-width:1.0;"/><line style="stroke:#181818;stroke-width:1.0;stroke-dasharray:2.0,2.0;" x1="230" x2="453.5" y1="238.6094" y2="238.6094"/><text fill="#000000" font-family="sans-serif" font-size="13" font-weight="bold" lengthAdjust="spacing" textLength="7" x="237" y="233.3467">2</text><text fill="#000000" font-family="sans-serif" font-size="13" lengthAdjust="spacing" textLength="57" x="248" y="233.3467">&#171;creates&#187;</text><polygon fill="#181818" points="876,286.8516,886,290.8516,876,294.8516,880,290.8516" style="stroke:#181818;stroke-width:1.0;"/><line style="stroke:#181818;stroke-width:1.0;" x1="230" x2="882" y1="290.8516" y2="290.8516"/><text fill="#000000" font-family="sans-serif" font-size="13" font-weight="bold" lengthAdjust="spacing" textLength="7" x="237" y="285.5889">3</text><text fill="#000000" font-family="sans-serif" font-size="13" lengthAdjust="spacing" textLength="185" x="248" y="285.5889">getListOfSensorFunctionalities()</text><polygon fill="#181818" points="1094,318.1426,1104,322.1426,1094,326.1426,1098,322.1426" style="stroke:#181818;stroke-width:1.0;"/><line style="stroke:#181818;stroke-width:1.0;" x1="898" x2="1100" y1="322.1426" y2="322.1426"/><text fill="#000000" font-family="sans-serif" font-size="13" font-weight="bold" lengthAdjust="spacing" textLength="7" x="905" y="316.8799">4</text><text fill="#000000" font-family="sans-serif" font-size="13" lengthAdjust="spacing" textLength="87" x="916" y="316.8799">findAllEntities()</text><polygon fill="#181818" points="909,349.4336,899,353.4336,909,357.4336,905,353.4336" style="stroke:#181818;stroke-width:1.0;"/><line style="stroke:#181818;stroke-width:1.0;stroke-dasharray:2.0,2.0;" x1="903" x2="1105" y1="353.4336" y2="353.4336"/><text fill="#000000" font-family="sans-serif" font-size="13" font-weight="bold" lengthAdjust="spacing" textLength="7" x="915" y="348.1709">5</text><text fill="#000000" font-family="sans-serif" font-size="13" lengthAdjust="spacing" textLength="173" x="926" y="348.1709">Iterable&lt;SensorFunctionality&gt;</text><rect fill="#E2E2F0" height="51.2422" rx="2.5" ry="2.5" style="stroke:#181818;stroke-width:0.5;" width="194" x="1226.5" y="361.4336"/><text fill="#000000" font-family="sans-serif" font-size="14" lengthAdjust="spacing" textLength="126" x="1260.5" y="383.541">listOfSensorFunctID</text><text fill="#000000" font-family="sans-serif" font-size="14" lengthAdjust="spacing" textLength="180" x="1233.5" y="402.1621">:List&lt;SensorFunctionalityID&gt;</text><polygon fill="#181818" points="1214.5,380.7246,1224.5,384.7246,1214.5,388.7246,1218.5,384.7246" style="stroke:#181818;stroke-width:1.0;"/><line style="stroke:#181818;stroke-width:1.0;stroke-dasharray:2.0,2.0;" x1="898" x2="1220.5" y1="384.7246" y2="384.7246"/><text fill="#000000" font-family="sans-serif" font-size="13" font-weight="bold" lengthAdjust="spacing" textLength="7" x="905" y="379.4619">6</text><text fill="#000000" font-family="sans-serif" font-size="13" lengthAdjust="spacing" textLength="57" x="916" y="379.4619">&#171;creates&#187;</text><path d="M877,417.6758 L950,417.6758 L950,426.9668 L940,436.9668 L877,436.9668 L877,417.6758 " fill="#EEEEEE" style="stroke:#000000;stroke-width:1.5;"/><rect fill="none" height="123.1641" style="stroke:#000000;stroke-width:1.5;" width="712.5" x="877" y="417.6758"/><text fill="#000000" font-family="sans-serif" font-size="13" font-weight="bold" lengthAdjust="spacing" textLength="28" x="892" y="432.7041">loop</text><text fill="#000000" font-family="sans-serif" font-size="11" font-weight="bold" lengthAdjust="spacing" textLength="223" x="965" y="431.5459">[for each SensorFunctionality in Iterable]</text><polygon fill="#181818" points="1485,466.2578,1495,470.2578,1485,474.2578,1489,470.2578" style="stroke:#181818;stroke-width:1.0;"/><line style="stroke:#181818;stroke-width:1.0;" x1="898" x2="1491" y1="470.2578" y2="470.2578"/><text fill="#000000" font-family="sans-serif" font-size="13" font-weight="bold" lengthAdjust="spacing" textLength="7" x="905" y="464.9951">7</text><text fill="#000000" font-family="sans-serif" font-size="13" lengthAdjust="spacing" textLength="50" x="916" y="464.9951">identity()</text><polygon fill="#181818" points="909,497.5488,899,501.5488,909,505.5488,905,501.5488" style="stroke:#181818;stroke-width:1.0;"/><line style="stroke:#181818;stroke-width:1.0;stroke-dasharray:2.0,2.0;" x1="903" x2="1496" y1="501.5488" y2="501.5488"/><text fill="#000000" font-family="sans-serif" font-size="13" font-weight="bold" lengthAdjust="spacing" textLength="7" x="915" y="496.2861">8</text><text fill="#000000" font-family="sans-serif" font-size="13" lengthAdjust="spacing" textLength="125" x="926" y="496.2861">sensorFunctionalityID</text><polygon fill="#181818" points="1306.5,528.8398,1316.5,532.8398,1306.5,536.8398,1310.5,532.8398" style="stroke:#181818;stroke-width:1.0;"/><line style="stroke:#181818;stroke-width:1.0;" x1="898" x2="1312.5" y1="532.8398" y2="532.8398"/><text fill="#000000" font-family="sans-serif" font-size="13" font-weight="bold" lengthAdjust="spacing" textLength="7" x="905" y="527.5771">9</text><text fill="#000000" font-family="sans-serif" font-size="13" lengthAdjust="spacing" textLength="154" x="916" y="527.5771">add(sensorFunctionalityID)</text><polygon fill="#181818" points="241,574.1309,231,578.1309,241,582.1309,237,578.1309" style="stroke:#181818;stroke-width:1.0;"/><line style="stroke:#181818;stroke-width:1.0;stroke-dasharray:2.0,2.0;" x1="235" x2="887" y1="578.1309" y2="578.1309"/><text fill="#000000" font-family="sans-serif" font-size="13" font-weight="bold" lengthAdjust="spacing" textLength="14" x="247" y="572.8682">10</text><text fill="#000000" font-family="sans-serif" font-size="13" lengthAdjust="spacing" textLength="116" x="265" y="572.8682">listOfSensorFunctID</text><polygon fill="#181818" points="553,605.4219,563,609.4219,553,613.4219,557,609.4219" style="stroke:#181818;stroke-width:1.0;"/><line style="stroke:#181818;stroke-width:1.0;" x1="230" x2="559" y1="609.4219" y2="609.4219"/><text fill="#000000" font-family="sans-serif" font-size="13" font-weight="bold" lengthAdjust="spacing" textLength="14" x="237" y="604.1592">11</text><text fill="#000000" font-family="sans-serif" font-size="13" lengthAdjust="spacing" textLength="298" x="255" y="604.1592">sensorFunctionalityToDTOList(listOfSensorFunctID)</text><rect fill="#E2E2F0" height="51.2422" rx="2.5" ry="2.5" style="stroke:#181818;stroke-width:0.5;" width="211" x="1583.5" y="617.4219"/><text fill="#000000" font-family="sans-serif" font-size="14" lengthAdjust="spacing" textLength="143" x="1617.5" y="639.5293">listOfSensorFunctDTO</text><text fill="#000000" font-family="sans-serif" font-size="14" lengthAdjust="spacing" textLength="197" x="1590.5" y="658.1504">:List&lt;SensorFunctionalityDTO&gt;</text><polygon fill="#181818" points="1571.5,636.7129,1581.5,640.7129,1571.5,644.7129,1575.5,640.7129" style="stroke:#181818;stroke-width:1.0;"/><line style="stroke:#181818;stroke-width:1.0;stroke-dasharray:2.0,2.0;" x1="575" x2="1577.5" y1="640.7129" y2="640.7129"/><text fill="#000000" font-family="sans-serif" font-size="13" font-weight="bold" lengthAdjust="spacing" textLength="14" x="582" y="635.4502">12</text><text fill="#000000" font-family="sans-serif" font-size="13" lengthAdjust="spacing" textLength="57" x="600" y="635.4502">&#171;creates&#187;</text><path d="M554,673.6641 L627,673.6641 L627,682.9551 L617,692.9551 L554,692.9551 L554,673.6641 " fill="#EEEEEE" style="stroke:#000000;stroke-width:1.5;"/><rect fill="none" height="157.1152" style="stroke:#000000;stroke-width:1.5;" width="1439.5" x="554" y="673.6641"/><text fill="#000000" font-family="sans-serif" font-size="13" font-weight="bold" lengthAdjust="spacing" textLength="28" x="569" y="688.6924">loop</text><text fill="#000000" font-family="sans-serif" font-size="11" font-weight="bold" lengthAdjust="spacing" textLength="212" x="642" y="687.5342">[for each SensorFunctionalityID in List]</text><line style="stroke:#181818;stroke-width:1.0;" x1="575" x2="617" y1="726.2461" y2="726.2461"/><line style="stroke:#181818;stroke-width:1.0;" x1="617" x2="617" y1="726.2461" y2="739.2461"/><line style="stroke:#181818;stroke-width:1.0;" x1="576" x2="617" y1="739.2461" y2="739.2461"/><polygon fill="#181818" points="586,735.2461,576,739.2461,586,743.2461,582,739.2461" style="stroke:#181818;stroke-width:1.0;"/><text fill="#000000" font-family="sans-serif" font-size="13" font-weight="bold" lengthAdjust="spacing" textLength="14" x="582" y="720.9834">13</text><text fill="#000000" font-family="sans-serif" font-size="13" lengthAdjust="spacing" textLength="286" x="600" y="720.9834">sensorFunctionalityToDTO(sensorFunctionalityID)</text><rect fill="#E2E2F0" height="51.2422" rx="2.5" ry="2.5" style="stroke:#181818;stroke-width:0.5;" width="173" x="1804.5" y="747.2461"/><text fill="#000000" font-family="sans-serif" font-size="14" lengthAdjust="spacing" textLength="153" x="1814.5" y="769.3535">sensorFunctionalityDTO</text><text fill="#000000" font-family="sans-serif" font-size="14" lengthAdjust="spacing" textLength="159" x="1811.5" y="787.9746">:SensorFunctionalityDTO</text><polygon fill="#181818" points="1792.5,766.5371,1802.5,770.5371,1792.5,774.5371,1796.5,770.5371" style="stroke:#181818;stroke-width:1.0;"/><line style="stroke:#181818;stroke-width:1.0;stroke-dasharray:2.0,2.0;" x1="575" x2="1798.5" y1="770.5371" y2="770.5371"/><text fill="#000000" font-family="sans-serif" font-size="13" font-weight="bold" lengthAdjust="spacing" textLength="14" x="582" y="765.2744">14</text><text fill="#000000" font-family="sans-serif" font-size="13" lengthAdjust="spacing" textLength="57" x="600" y="765.2744">&#171;creates&#187;</text><polygon fill="#181818" points="1672,818.7793,1682,822.7793,1672,826.7793,1676,822.7793" style="stroke:#181818;stroke-width:1.0;"/><line style="stroke:#181818;stroke-width:1.0;" x1="575" x2="1678" y1="822.7793" y2="822.7793"/><text fill="#000000" font-family="sans-serif" font-size="13" font-weight="bold" lengthAdjust="spacing" textLength="14" x="582" y="817.5166">15</text><text fill="#000000" font-family="sans-serif" font-size="13" lengthAdjust="spacing" textLength="168" x="600" y="817.5166">add(sensorFunctionalityDTO)</text><polygon fill="#181818" points="241,864.0703,231,868.0703,241,872.0703,237,868.0703" style="stroke:#181818;stroke-width:1.0;"/><line style="stroke:#181818;stroke-width:1.0;stroke-dasharray:2.0,2.0;" x1="235" x2="564" y1="868.0703" y2="868.0703"/><text fill="#000000" font-family="sans-serif" font-size="13" font-weight="bold" lengthAdjust="spacing" textLength="14" x="247" y="862.8076">16</text><text fill="#000000" font-family="sans-serif" font-size="13" lengthAdjust="spacing" textLength="130" x="265" y="862.8076">listOfSensorFunctDTO</text><polygon fill="#181818" points="16,895.3613,6,899.3613,16,903.3613,12,899.3613" style="stroke:#181818;stroke-width:1.0;"/><line style="stroke:#181818;stroke-width:1.0;stroke-dasharray:2.0,2.0;" x1="10" x2="219" y1="899.3613" y2="899.3613"/><text fill="#000000" font-family="sans-serif" font-size="13" font-weight="bold" lengthAdjust="spacing" textLength="14" x="22" y="894.0986">17</text><text fill="#000000" font-family="sans-serif" font-size="13" lengthAdjust="spacing" textLength="130" x="40" y="894.0986">listOfSensorFunctDTO</text><!--SRC=[bLHDRzim3BthLt3U9IkGOZiDC0m3MzqD0J8KMBhRBehDf49joP3bOjcl7-MloBAQBYTR4lduI3wIjqR9jjgZPim8Ko94l-u-Vhxz15lH6DYXR9I6RwtCZL2Iby88R2B6tjMQ7oiE1jLVCBf5nlRg3qH9icltkrDZi4hJtpB-olDdb4K4xpEkdxzhFFLsa2HtIXek9EhES8Vw1JNPRSNnoNI6DTT6vABcqa0KMpuz7O-DnT6gBAqtR-1yx69KjP8eJPhEuHoa7xokKNSKVFHJ_vOzFdJGzgc_yRW5F6q-8iV9RpXVuXI2-OcrQeHH-ZGXpTukuPLKiOU30xh9A4jRnoGGQPEbNOYAr_P-3jKixSC5crY-GOLAUe4BlVPah1yTtYJJmuMH9aeMYBG89C3fozQfevWOZcYsFjUpr5OV6AVp2pVeU357Scl2EylavYQc1kKQoQ6XzhY6gIkBQm8xRinLre0uaqSC1o6BBsLvBqqGQ6RDbl9Q-pmt1ZNVbnXgMyeAl80-Pql0WzJyAfLArN2WjKDWJn280q9EF48bW1X4WJRZavzlPxxCgWdDWv-D7sgWJz5uKQo244xqSQuSqF7AYj4clIYGevSO0kFiCnnbiTHPhyTWee-A1iDgRnM8u9Lls7xdtuxcCALNzt6JsKxQq3F4_sFyMi4zRiFW-zpcyOO4NkyaFJgL6BUIK_tnYbhfCt3NIsWF-aqSQfoirrUvElle7m00]--></g></svg>