<?xml version="1.0" encoding="us-ascii" standalone="no"?><svg xmlns="http://www.w3.org/2000/svg" xmlns:xlink="http://www.w3.org/1999/xlink" contentStyleType="text/css" height="1213px" preserveAspectRatio="none" style="width:1828px;height:1213px;background:#FFFFFF;" version="1.1" viewBox="0 0 1828 1213" width="1828px" zoomAndPan="magnify"><defs/><g><rect fill="#A9A9A9" height="1162.1836" style="stroke:#181818;stroke-width:0.5;" width="1632" x="190" y="45.6211"/><text fill="#000000" font-family="sans-serif" font-size="13" font-weight="bold" lengthAdjust="spacing" textLength="85" x="963.5" y="59.6494">&#171;SubSystem&#187;</text><text fill="#000000" font-family="sans-serif" font-size="13" font-weight="bold" lengthAdjust="spacing" textLength="59" x="963.5" y="76.9404">:Backend</text><rect fill="#D3D3D3" height="1122.6016" style="stroke:#181818;stroke-width:0.5;" width="1632" x="190" y="85.2031"/><text fill="#000000" font-family="sans-serif" font-size="13" font-weight="bold" lengthAdjust="spacing" textLength="76" x="970" y="99.2314">&#171;Container&#187;</text><text fill="#000000" font-family="sans-serif" font-size="13" font-weight="bold" lengthAdjust="spacing" textLength="46" x="966" y="116.5225">:Server</text><text fill="#000000" font-family="sans-serif" font-size="14" font-weight="bold" lengthAdjust="spacing" textLength="238" x="797" y="30.1074">UC7.2 - Add new Sensor to Device</text><line style="stroke:#181818;stroke-width:0.5;stroke-dasharray:5.0,5.0;" x1="312" x2="312" y1="176.0273" y2="1149.5625"/><rect fill="#FFFFFF" height="810.4492" style="stroke:#181818;stroke-width:1.0;" width="10" x="307" y="321.1133"/><line style="stroke:#181818;stroke-width:0.5;stroke-dasharray:5.0,5.0;" x1="517" x2="517" y1="329.1133" y2="1149.5625"/><line style="stroke:#181818;stroke-width:0.5;stroke-dasharray:5.0,5.0;" x1="641" x2="641" y1="381.3555" y2="1149.5625"/><line style="stroke:#181818;stroke-width:0.5;stroke-dasharray:5.0,5.0;" x1="724" x2="724" y1="433.5977" y2="1149.5625"/><line style="stroke:#181818;stroke-width:0.5;stroke-dasharray:5.0,5.0;" x1="825" x2="825" y1="176.0273" y2="1149.5625"/><rect fill="#FFFFFF" height="521.6074" style="stroke:#181818;stroke-width:1.0;" width="10" x="820" y="526.4219"/><line style="stroke:#181818;stroke-width:0.5;stroke-dasharray:5.0,5.0;" x1="1003" x2="1003" y1="176.0273" y2="1149.5625"/><rect fill="#FFFFFF" height="31.291" style="stroke:#181818;stroke-width:1.0;" width="10" x="998" y="557.7129"/><line style="stroke:#181818;stroke-width:0.5;stroke-dasharray:5.0,5.0;" x1="1107" x2="1107" y1="176.0273" y2="1149.5625"/><rect fill="#FFFFFF" height="31.291" style="stroke:#181818;stroke-width:1.0;" width="10" x="1102" y="620.2949"/><line style="stroke:#181818;stroke-width:0.5;stroke-dasharray:5.0,5.0;" x1="1252" x2="1252" y1="176.0273" y2="1149.5625"/><rect fill="#FFFFFF" height="31.291" style="stroke:#181818;stroke-width:1.0;" width="10" x="1247" y="682.877"/><line style="stroke:#181818;stroke-width:0.5;stroke-dasharray:5.0,5.0;" x1="1423" x2="1423" y1="176.0273" y2="1149.5625"/><rect fill="#FFFFFF" height="83.5332" style="stroke:#181818;stroke-width:1.0;" width="10" x="1418" y="745.459"/><line style="stroke:#181818;stroke-width:0.5;stroke-dasharray:5.0,5.0;" x1="1545.5" x2="1545.5" y1="753.459" y2="1149.5625"/><rect fill="#FFFFFF" height="31.291" style="stroke:#181818;stroke-width:1.0;" width="10" x="1540.5" y="860.2832"/><line style="stroke:#181818;stroke-width:0.5;stroke-dasharray:5.0,5.0;" x1="1651.5" x2="1651.5" y1="176.0273" y2="1149.5625"/><rect fill="#FFFFFF" height="93.873" style="stroke:#181818;stroke-width:1.0;" width="10" x="1646.5" y="922.8652"/><line style="stroke:#181818;stroke-width:0.5;stroke-dasharray:5.0,5.0;" x1="1772.5" x2="1772.5" y1="1056.0293" y2="1149.5625"/><rect fill="#E2E2F0" height="51.2422" rx="2.5" ry="2.5" style="stroke:#181818;stroke-width:0.5;" width="236" x="194" y="123.7852"/><text fill="#000000" font-family="sans-serif" font-size="14" font-style="italic" lengthAdjust="spacing" textLength="89" x="267.5" y="145.8926">&#171;Component&#187;</text><text fill="#000000" font-family="sans-serif" font-size="14" lengthAdjust="spacing" textLength="222" x="201" y="164.5137">:AddNewSensorToDeviceController</text><rect fill="#E2E2F0" height="51.2422" rx="2.5" ry="2.5" style="stroke:#181818;stroke-width:0.5;" width="110" x="770" y="123.7852"/><text fill="#000000" font-family="sans-serif" font-size="14" font-style="italic" lengthAdjust="spacing" textLength="89" x="780.5" y="145.8926">&#171;Component&#187;</text><text fill="#000000" font-family="sans-serif" font-size="14" lengthAdjust="spacing" textLength="96" x="777" y="164.5137">:SensorService</text><rect fill="#E2E2F0" height="51.2422" rx="2.5" ry="2.5" style="stroke:#181818;stroke-width:0.5;" width="129" x="938.5" y="123.7852"/><text fill="#000000" font-family="sans-serif" font-size="14" font-style="italic" lengthAdjust="spacing" textLength="89" x="958.5" y="145.8926">&#171;Component&#187;</text><text fill="#000000" font-family="sans-serif" font-size="14" lengthAdjust="spacing" textLength="115" x="945.5" y="164.5137">:DeviceRepository</text><rect fill="#E2E2F0" height="51.2422" rx="2.5" ry="2.5" style="stroke:#181818;stroke-width:0.5;" width="59" x="1077.5" y="123.7852"/><text fill="#000000" font-family="sans-serif" font-size="14" lengthAdjust="spacing" textLength="45" x="1084.5" y="145.8926">device:</text><text fill="#000000" font-family="sans-serif" font-size="14" lengthAdjust="spacing" textLength="43" x="1085.5" y="164.5137">Device</text><rect fill="#E2E2F0" height="51.2422" rx="2.5" ry="2.5" style="stroke:#181818;stroke-width:0.5;" width="211" x="1146.5" y="123.7852"/><text fill="#000000" font-family="sans-serif" font-size="14" font-style="italic" lengthAdjust="spacing" textLength="89" x="1207.5" y="145.8926">&#171;Component&#187;</text><text fill="#000000" font-family="sans-serif" font-size="14" lengthAdjust="spacing" textLength="197" x="1153.5" y="164.5137">:SensorFunctionalityRepository</text><rect fill="#E2E2F0" height="51.2422" rx="2.5" ry="2.5" style="stroke:#181818;stroke-width:0.5;" width="111" x="1367.5" y="123.7852"/><text fill="#000000" font-family="sans-serif" font-size="14" font-style="italic" lengthAdjust="spacing" textLength="89" x="1378.5" y="145.8926">&#171;Component&#187;</text><text fill="#000000" font-family="sans-serif" font-size="14" lengthAdjust="spacing" textLength="97" x="1374.5" y="164.5137">:FactorySensor</text><rect fill="#E2E2F0" height="51.2422" rx="2.5" ry="2.5" style="stroke:#181818;stroke-width:0.5;" width="131" x="1586" y="123.7852"/><text fill="#000000" font-family="sans-serif" font-size="14" font-style="italic" lengthAdjust="spacing" textLength="89" x="1607" y="145.8926">&#171;Component&#187;</text><text fill="#000000" font-family="sans-serif" font-size="14" lengthAdjust="spacing" textLength="117" x="1593" y="164.5137">:SensorRepository</text><rect fill="#E2E2F0" height="51.2422" rx="2.5" ry="2.5" style="stroke:#181818;stroke-width:0.5;" width="236" x="194" y="1149.5625"/><text fill="#000000" font-family="sans-serif" font-size="14" font-style="italic" lengthAdjust="spacing" textLength="89" x="267.5" y="1171.6699">&#171;Component&#187;</text><text fill="#000000" font-family="sans-serif" font-size="14" lengthAdjust="spacing" textLength="222" x="201" y="1190.291">:AddNewSensorToDeviceController</text><rect fill="#E2E2F0" height="51.2422" rx="2.5" ry="2.5" style="stroke:#181818;stroke-width:0.5;" width="154" x="440" y="1149.5625"/><text fill="#000000" font-family="sans-serif" font-size="14" lengthAdjust="spacing" textLength="140" x="447" y="1171.6699">sensorFunctionalityID:</text><text fill="#000000" font-family="sans-serif" font-size="14" lengthAdjust="spacing" textLength="138" x="448" y="1190.291">SensorFunctionalityID</text><rect fill="#E2E2F0" height="51.2422" rx="2.5" ry="2.5" style="stroke:#181818;stroke-width:0.5;" width="74" x="604" y="1149.5625"/><text fill="#000000" font-family="sans-serif" font-size="14" lengthAdjust="spacing" textLength="60" x="611" y="1171.6699">sensorID:</text><text fill="#000000" font-family="sans-serif" font-size="14" lengthAdjust="spacing" textLength="58" x="612" y="1190.291">SensorID</text><rect fill="#E2E2F0" height="51.2422" rx="2.5" ry="2.5" style="stroke:#181818;stroke-width:0.5;" width="72" x="688" y="1149.5625"/><text fill="#000000" font-family="sans-serif" font-size="14" lengthAdjust="spacing" textLength="58" x="695" y="1171.6699">deviceID:</text><text fill="#000000" font-family="sans-serif" font-size="14" lengthAdjust="spacing" textLength="56" x="696" y="1190.291">DeviceID</text><rect fill="#E2E2F0" height="51.2422" rx="2.5" ry="2.5" style="stroke:#181818;stroke-width:0.5;" width="110" x="770" y="1149.5625"/><text fill="#000000" font-family="sans-serif" font-size="14" font-style="italic" lengthAdjust="spacing" textLength="89" x="780.5" y="1171.6699">&#171;Component&#187;</text><text fill="#000000" font-family="sans-serif" font-size="14" lengthAdjust="spacing" textLength="96" x="777" y="1190.291">:SensorService</text><rect fill="#E2E2F0" height="51.2422" rx="2.5" ry="2.5" style="stroke:#181818;stroke-width:0.5;" width="129" x="938.5" y="1149.5625"/><text fill="#000000" font-family="sans-serif" font-size="14" font-style="italic" lengthAdjust="spacing" textLength="89" x="958.5" y="1171.6699">&#171;Component&#187;</text><text fill="#000000" font-family="sans-serif" font-size="14" lengthAdjust="spacing" textLength="115" x="945.5" y="1190.291">:DeviceRepository</text><rect fill="#E2E2F0" height="51.2422" rx="2.5" ry="2.5" style="stroke:#181818;stroke-width:0.5;" width="59" x="1077.5" y="1149.5625"/><text fill="#000000" font-family="sans-serif" font-size="14" lengthAdjust="spacing" textLength="45" x="1084.5" y="1171.6699">device:</text><text fill="#000000" font-family="sans-serif" font-size="14" lengthAdjust="spacing" textLength="43" x="1085.5" y="1190.291">Device</text><rect fill="#E2E2F0" height="51.2422" rx="2.5" ry="2.5" style="stroke:#181818;stroke-width:0.5;" width="211" x="1146.5" y="1149.5625"/><text fill="#000000" font-family="sans-serif" font-size="14" font-style="italic" lengthAdjust="spacing" textLength="89" x="1207.5" y="1171.6699">&#171;Component&#187;</text><text fill="#000000" font-family="sans-serif" font-size="14" lengthAdjust="spacing" textLength="197" x="1153.5" y="1190.291">:SensorFunctionalityRepository</text><rect fill="#E2E2F0" height="51.2422" rx="2.5" ry="2.5" style="stroke:#181818;stroke-width:0.5;" width="111" x="1367.5" y="1149.5625"/><text fill="#000000" font-family="sans-serif" font-size="14" font-style="italic" lengthAdjust="spacing" textLength="89" x="1378.5" y="1171.6699">&#171;Component&#187;</text><text fill="#000000" font-family="sans-serif" font-size="14" lengthAdjust="spacing" textLength="97" x="1374.5" y="1190.291">:FactorySensor</text><rect fill="#E2E2F0" height="51.2422" rx="2.5" ry="2.5" style="stroke:#181818;stroke-width:0.5;" width="61" x="1515" y="1149.5625"/><text fill="#000000" font-family="sans-serif" font-size="14" lengthAdjust="spacing" textLength="47" x="1522" y="1171.6699">sensor:</text><text fill="#000000" font-family="sans-serif" font-size="14" lengthAdjust="spacing" textLength="45" x="1523" y="1190.291">Sensor</text><rect fill="#E2E2F0" height="51.2422" rx="2.5" ry="2.5" style="stroke:#181818;stroke-width:0.5;" width="131" x="1586" y="1149.5625"/><text fill="#000000" font-family="sans-serif" font-size="14" font-style="italic" lengthAdjust="spacing" textLength="89" x="1607" y="1171.6699">&#171;Component&#187;</text><text fill="#000000" font-family="sans-serif" font-size="14" lengthAdjust="spacing" textLength="117" x="1593" y="1190.291">:SensorRepository</text><rect fill="#E2E2F0" height="51.2422" rx="2.5" ry="2.5" style="stroke:#181818;stroke-width:0.5;" width="91" x="1727" y="1149.5625"/><text fill="#000000" font-family="sans-serif" font-size="14" lengthAdjust="spacing" textLength="77" x="1734" y="1171.6699">sensorDTO:</text><text fill="#000000" font-family="sans-serif" font-size="14" lengthAdjust="spacing" textLength="75" x="1735" y="1190.291">SensorDTO</text><rect fill="none" height="43.252" style="stroke:#000000;stroke-width:1.5;" width="232" x="196" y="184.0273"/><path d="M196,184.0273 L258,184.0273 L258,193.0273 L248,203.0273 L196,203.0273 L196,184.0273 " fill="#EEEEEE" style="stroke:#000000;stroke-width:2.0;"/><text fill="#000000" font-family="sans-serif" font-size="13" font-weight="bold" lengthAdjust="spacing" textLength="17" x="209" y="200.0557">ref</text><text fill="#000000" font-family="sans-serif" font-size="12" lengthAdjust="spacing" textLength="178" x="223" y="219.9766">UC06-SD-ListAllDevicesInRoom</text><rect fill="none" height="43.252" style="stroke:#000000;stroke-width:1.5;" width="232" x="196" y="232.2793"/><path d="M196,232.2793 L258,232.2793 L258,241.2793 L248,251.2793 L196,251.2793 L196,232.2793 " fill="#EEEEEE" style="stroke:#000000;stroke-width:2.0;"/><text fill="#000000" font-family="sans-serif" font-size="13" font-weight="bold" lengthAdjust="spacing" textLength="17" x="209" y="248.3076">ref</text><text fill="#000000" font-family="sans-serif" font-size="12" lengthAdjust="spacing" textLength="200" x="212" y="268.2285">UC7.1-SD-ListSensorFunctionalities</text><ellipse cx="10.5" cy="320.3633" fill="none" rx="4" ry="4" style="stroke:#181818;stroke-width:1.5;"/><polygon fill="#181818" points="295,317.1133,305,321.1133,295,325.1133,299,321.1133" style="stroke:#181818;stroke-width:1.0;"/><line style="stroke:#181818;stroke-width:1.0;" x1="15" x2="301" y1="321.1133" y2="321.1133"/><text fill="#000000" font-family="sans-serif" font-size="13" font-weight="bold" lengthAdjust="spacing" textLength="7" x="18" y="307.2051">1</text><text fill="#000000" font-family="sans-serif" font-size="13" lengthAdjust="spacing" textLength="204" x="29" y="298.5596">createSensorAndSaveToRepository</text><text fill="#000000" font-family="sans-serif" font-size="13" lengthAdjust="spacing" textLength="272" x="29" y="315.8506">(deviceDTO, sensorName, sensorFunctionality)</text><rect fill="#E2E2F0" height="51.2422" rx="2.5" ry="2.5" style="stroke:#181818;stroke-width:0.5;" width="154" x="440" y="329.1133"/><text fill="#000000" font-family="sans-serif" font-size="14" lengthAdjust="spacing" textLength="140" x="447" y="351.2207">sensorFunctionalityID:</text><text fill="#000000" font-family="sans-serif" font-size="14" lengthAdjust="spacing" textLength="138" x="448" y="369.8418">SensorFunctionalityID</text><polygon fill="#181818" points="428,348.4043,438,352.4043,428,356.4043,432,352.4043" style="stroke:#181818;stroke-width:1.0;"/><line style="stroke:#181818;stroke-width:1.0;stroke-dasharray:2.0,2.0;" x1="317" x2="434" y1="352.4043" y2="352.4043"/><text fill="#000000" font-family="sans-serif" font-size="13" font-weight="bold" lengthAdjust="spacing" textLength="7" x="324" y="347.1416">2</text><text fill="#000000" font-family="sans-serif" font-size="13" lengthAdjust="spacing" textLength="50" x="335" y="347.1416">&#171;create&#187;</text><rect fill="#E2E2F0" height="51.2422" rx="2.5" ry="2.5" style="stroke:#181818;stroke-width:0.5;" width="74" x="604" y="381.3555"/><text fill="#000000" font-family="sans-serif" font-size="14" lengthAdjust="spacing" textLength="60" x="611" y="403.4629">sensorID:</text><text fill="#000000" font-family="sans-serif" font-size="14" lengthAdjust="spacing" textLength="58" x="612" y="422.084">SensorID</text><polygon fill="#181818" points="592,400.6465,602,404.6465,592,408.6465,596,404.6465" style="stroke:#181818;stroke-width:1.0;"/><line style="stroke:#181818;stroke-width:1.0;stroke-dasharray:2.0,2.0;" x1="317" x2="598" y1="404.6465" y2="404.6465"/><text fill="#000000" font-family="sans-serif" font-size="13" font-weight="bold" lengthAdjust="spacing" textLength="7" x="324" y="399.3838">3</text><text fill="#000000" font-family="sans-serif" font-size="13" lengthAdjust="spacing" textLength="50" x="335" y="399.3838">&#171;create&#187;</text><rect fill="#E2E2F0" height="51.2422" rx="2.5" ry="2.5" style="stroke:#181818;stroke-width:0.5;" width="72" x="688" y="433.5977"/><text fill="#000000" font-family="sans-serif" font-size="14" lengthAdjust="spacing" textLength="58" x="695" y="455.7051">deviceID:</text><text fill="#000000" font-family="sans-serif" font-size="14" lengthAdjust="spacing" textLength="56" x="696" y="474.3262">DeviceID</text><polygon fill="#181818" points="676,452.8887,686,456.8887,676,460.8887,680,456.8887" style="stroke:#181818;stroke-width:1.0;"/><line style="stroke:#181818;stroke-width:1.0;stroke-dasharray:2.0,2.0;" x1="317" x2="682" y1="456.8887" y2="456.8887"/><text fill="#000000" font-family="sans-serif" font-size="13" font-weight="bold" lengthAdjust="spacing" textLength="7" x="324" y="451.626">4</text><text fill="#000000" font-family="sans-serif" font-size="13" lengthAdjust="spacing" textLength="50" x="335" y="451.626">&#171;create&#187;</text><polygon fill="#181818" points="808,522.4219,818,526.4219,808,530.4219,812,526.4219" style="stroke:#181818;stroke-width:1.0;"/><line style="stroke:#181818;stroke-width:1.0;" x1="317" x2="814" y1="526.4219" y2="526.4219"/><text fill="#000000" font-family="sans-serif" font-size="13" font-weight="bold" lengthAdjust="spacing" textLength="7" x="324" y="512.5137">5</text><text fill="#000000" font-family="sans-serif" font-size="13" lengthAdjust="spacing" textLength="184" x="335" y="503.8682">createSensorAndSave(deviceID,</text><text fill="#000000" font-family="sans-serif" font-size="13" lengthAdjust="spacing" textLength="188" x="335" y="521.1592">sensorFunctionalityID, sensorID)</text><polygon fill="#181818" points="986,553.7129,996,557.7129,986,561.7129,990,557.7129" style="stroke:#181818;stroke-width:1.0;"/><line style="stroke:#181818;stroke-width:1.0;" x1="830" x2="992" y1="557.7129" y2="557.7129"/><text fill="#000000" font-family="sans-serif" font-size="13" font-weight="bold" lengthAdjust="spacing" textLength="7" x="837" y="552.4502">6</text><text fill="#000000" font-family="sans-serif" font-size="13" lengthAdjust="spacing" textLength="138" x="848" y="552.4502">findEntityByID(deviceID)</text><polygon fill="#181818" points="841,585.0039,831,589.0039,841,593.0039,837,589.0039" style="stroke:#181818;stroke-width:1.0;"/><line style="stroke:#181818;stroke-width:1.0;stroke-dasharray:2.0,2.0;" x1="835" x2="997" y1="589.0039" y2="589.0039"/><text fill="#000000" font-family="sans-serif" font-size="13" font-weight="bold" lengthAdjust="spacing" textLength="7" x="847" y="583.7412">7</text><text fill="#000000" font-family="sans-serif" font-size="13" lengthAdjust="spacing" textLength="38" x="858" y="583.7412">Device</text><polygon fill="#181818" points="1090,616.2949,1100,620.2949,1090,624.2949,1094,620.2949" style="stroke:#181818;stroke-width:1.0;"/><line style="stroke:#181818;stroke-width:1.0;" x1="830" x2="1096" y1="620.2949" y2="620.2949"/><text fill="#000000" font-family="sans-serif" font-size="13" font-weight="bold" lengthAdjust="spacing" textLength="7" x="837" y="615.0322">8</text><text fill="#000000" font-family="sans-serif" font-size="13" lengthAdjust="spacing" textLength="53" x="848" y="615.0322">isActive()</text><polygon fill="#181818" points="841,647.5859,831,651.5859,841,655.5859,837,651.5859" style="stroke:#181818;stroke-width:1.0;"/><line style="stroke:#181818;stroke-width:1.0;stroke-dasharray:2.0,2.0;" x1="835" x2="1101" y1="651.5859" y2="651.5859"/><text fill="#000000" font-family="sans-serif" font-size="13" font-weight="bold" lengthAdjust="spacing" textLength="7" x="847" y="646.3232">9</text><text fill="#000000" font-family="sans-serif" font-size="13" lengthAdjust="spacing" textLength="22" x="858" y="646.3232">true</text><polygon fill="#181818" points="1235,678.877,1245,682.877,1235,686.877,1239,682.877" style="stroke:#181818;stroke-width:1.0;"/><line style="stroke:#181818;stroke-width:1.0;" x1="830" x2="1241" y1="682.877" y2="682.877"/><text fill="#000000" font-family="sans-serif" font-size="13" font-weight="bold" lengthAdjust="spacing" textLength="14" x="837" y="677.6143">10</text><text fill="#000000" font-family="sans-serif" font-size="13" lengthAdjust="spacing" textLength="364" x="855" y="677.6143">getClassNameForSensorFunctionalityID(sensorFunctionalityID)</text><polygon fill="#181818" points="841,710.168,831,714.168,841,718.168,837,714.168" style="stroke:#181818;stroke-width:1.0;"/><line style="stroke:#181818;stroke-width:1.0;stroke-dasharray:2.0,2.0;" x1="835" x2="1246" y1="714.168" y2="714.168"/><text fill="#000000" font-family="sans-serif" font-size="13" font-weight="bold" lengthAdjust="spacing" textLength="14" x="847" y="708.9053">11</text><text fill="#000000" font-family="sans-serif" font-size="13" lengthAdjust="spacing" textLength="110" x="865" y="708.9053">String sensorClass</text><polygon fill="#181818" points="1406,741.459,1416,745.459,1406,749.459,1410,745.459" style="stroke:#181818;stroke-width:1.0;"/><line style="stroke:#181818;stroke-width:1.0;" x1="830" x2="1412" y1="745.459" y2="745.459"/><text fill="#000000" font-family="sans-serif" font-size="13" font-weight="bold" lengthAdjust="spacing" textLength="14" x="837" y="740.1963">12</text><text fill="#000000" font-family="sans-serif" font-size="13" lengthAdjust="spacing" textLength="405" x="855" y="740.1963">createSensor(sensorID, deviceID, sensorFunctionalityID, sensorClass)</text><rect fill="#E2E2F0" height="51.2422" rx="2.5" ry="2.5" style="stroke:#181818;stroke-width:0.5;" width="61" x="1515" y="753.459"/><text fill="#000000" font-family="sans-serif" font-size="14" lengthAdjust="spacing" textLength="47" x="1522" y="775.5664">sensor:</text><text fill="#000000" font-family="sans-serif" font-size="14" lengthAdjust="spacing" textLength="45" x="1523" y="794.1875">Sensor</text><polygon fill="#181818" points="1503,772.75,1513,776.75,1503,780.75,1507,776.75" style="stroke:#181818;stroke-width:1.0;"/><line style="stroke:#181818;stroke-width:1.0;stroke-dasharray:2.0,2.0;" x1="1428" x2="1509" y1="776.75" y2="776.75"/><text fill="#000000" font-family="sans-serif" font-size="13" font-weight="bold" lengthAdjust="spacing" textLength="14" x="1435" y="771.4873">13</text><text fill="#000000" font-family="sans-serif" font-size="13" lengthAdjust="spacing" textLength="50" x="1453" y="771.4873">&#171;create&#187;</text><polygon fill="#181818" points="841,824.9922,831,828.9922,841,832.9922,837,828.9922" style="stroke:#181818;stroke-width:1.0;"/><line style="stroke:#181818;stroke-width:1.0;stroke-dasharray:2.0,2.0;" x1="835" x2="1417" y1="828.9922" y2="828.9922"/><text fill="#000000" font-family="sans-serif" font-size="13" font-weight="bold" lengthAdjust="spacing" textLength="14" x="847" y="823.7295">14</text><text fill="#000000" font-family="sans-serif" font-size="13" lengthAdjust="spacing" textLength="41" x="865" y="823.7295">Sensor</text><polygon fill="#181818" points="1528.5,856.2832,1538.5,860.2832,1528.5,864.2832,1532.5,860.2832" style="stroke:#181818;stroke-width:1.0;"/><line style="stroke:#181818;stroke-width:1.0;" x1="830" x2="1534.5" y1="860.2832" y2="860.2832"/><text fill="#000000" font-family="sans-serif" font-size="13" font-weight="bold" lengthAdjust="spacing" textLength="14" x="837" y="855.0205">15</text><text fill="#000000" font-family="sans-serif" font-size="13" lengthAdjust="spacing" textLength="50" x="855" y="855.0205">identity()</text><polygon fill="#181818" points="841,887.5742,831,891.5742,841,895.5742,837,891.5742" style="stroke:#181818;stroke-width:1.0;"/><line style="stroke:#181818;stroke-width:1.0;stroke-dasharray:2.0,2.0;" x1="835" x2="1539.5" y1="891.5742" y2="891.5742"/><text fill="#000000" font-family="sans-serif" font-size="13" font-weight="bold" lengthAdjust="spacing" textLength="14" x="847" y="886.3115">16</text><text fill="#000000" font-family="sans-serif" font-size="13" lengthAdjust="spacing" textLength="53" x="865" y="886.3115">SensorID</text><polygon fill="#181818" points="1634.5,918.8652,1644.5,922.8652,1634.5,926.8652,1638.5,922.8652" style="stroke:#181818;stroke-width:1.0;"/><line style="stroke:#181818;stroke-width:1.0;" x1="830" x2="1640.5" y1="922.8652" y2="922.8652"/><text fill="#000000" font-family="sans-serif" font-size="13" font-weight="bold" lengthAdjust="spacing" textLength="14" x="837" y="917.6025">17</text><text fill="#000000" font-family="sans-serif" font-size="13" lengthAdjust="spacing" textLength="170" x="855" y="917.6025">containsEntityByID(sensorID)</text><polygon fill="#181818" points="841,950.1563,831,954.1563,841,958.1563,837,954.1563" style="stroke:#181818;stroke-width:1.0;"/><line style="stroke:#181818;stroke-width:1.0;stroke-dasharray:2.0,2.0;" x1="835" x2="1645.5" y1="954.1563" y2="954.1563"/><text fill="#000000" font-family="sans-serif" font-size="13" font-weight="bold" lengthAdjust="spacing" textLength="14" x="847" y="948.8936">18</text><text fill="#000000" font-family="sans-serif" font-size="13" lengthAdjust="spacing" textLength="27" x="865" y="948.8936">false</text><polygon fill="#181818" points="1634.5,981.4473,1644.5,985.4473,1634.5,989.4473,1638.5,985.4473" style="stroke:#181818;stroke-width:1.0;"/><line style="stroke:#181818;stroke-width:1.0;" x1="830" x2="1640.5" y1="985.4473" y2="985.4473"/><text fill="#000000" font-family="sans-serif" font-size="13" font-weight="bold" lengthAdjust="spacing" textLength="14" x="837" y="980.1846">19</text><text fill="#000000" font-family="sans-serif" font-size="13" lengthAdjust="spacing" textLength="73" x="855" y="980.1846">save(sensor)</text><polygon fill="#181818" points="841,1012.7383,831,1016.7383,841,1020.7383,837,1016.7383" style="stroke:#181818;stroke-width:1.0;"/><line style="stroke:#181818;stroke-width:1.0;stroke-dasharray:2.0,2.0;" x1="835" x2="1645.5" y1="1016.7383" y2="1016.7383"/><text fill="#000000" font-family="sans-serif" font-size="13" font-weight="bold" lengthAdjust="spacing" textLength="14" x="847" y="1011.4756">20</text><text fill="#000000" font-family="sans-serif" font-size="13" lengthAdjust="spacing" textLength="41" x="865" y="1011.4756">Sensor</text><polygon fill="#181818" points="328,1044.0293,318,1048.0293,328,1052.0293,324,1048.0293" style="stroke:#181818;stroke-width:1.0;"/><line style="stroke:#181818;stroke-width:1.0;stroke-dasharray:2.0,2.0;" x1="322" x2="819" y1="1048.0293" y2="1048.0293"/><text fill="#000000" font-family="sans-serif" font-size="13" font-weight="bold" lengthAdjust="spacing" textLength="14" x="334" y="1042.7666">21</text><text fill="#000000" font-family="sans-serif" font-size="13" lengthAdjust="spacing" textLength="53" x="352" y="1042.7666">SensorID</text><rect fill="#E2E2F0" height="51.2422" rx="2.5" ry="2.5" style="stroke:#181818;stroke-width:0.5;" width="91" x="1727" y="1056.0293"/><text fill="#000000" font-family="sans-serif" font-size="14" lengthAdjust="spacing" textLength="77" x="1734" y="1078.1367">sensorDTO:</text><text fill="#000000" font-family="sans-serif" font-size="14" lengthAdjust="spacing" textLength="75" x="1735" y="1096.7578">SensorDTO</text><polygon fill="#181818" points="1715,1075.3203,1725,1079.3203,1715,1083.3203,1719,1079.3203" style="stroke:#181818;stroke-width:1.0;"/><line style="stroke:#181818;stroke-width:1.0;stroke-dasharray:2.0,2.0;" x1="317" x2="1721" y1="1079.3203" y2="1079.3203"/><text fill="#000000" font-family="sans-serif" font-size="13" font-weight="bold" lengthAdjust="spacing" textLength="14" x="324" y="1074.0576">22</text><text fill="#000000" font-family="sans-serif" font-size="13" lengthAdjust="spacing" textLength="50" x="342" y="1074.0576">&#171;create&#187;</text><ellipse cx="10.5" cy="1130.8125" fill="none" rx="4" ry="4" style="stroke:#181818;stroke-width:1.5;"/><polygon fill="#181818" points="27.5,1127.5625,17.5,1131.5625,27.5,1135.5625,23.5,1131.5625" style="stroke:#181818;stroke-width:1.0;"/><line style="stroke:#181818;stroke-width:1.0;stroke-dasharray:2.0,2.0;" x1="25.5" x2="306" y1="1131.5625" y2="1131.5625"/><text fill="#000000" font-family="sans-serif" font-size="13" font-weight="bold" lengthAdjust="spacing" textLength="14" x="28" y="1126.2998">23</text><text fill="#000000" font-family="sans-serif" font-size="13" lengthAdjust="spacing" textLength="67" x="46" y="1126.2998">SensorDTO</text><!--SRC=[ZLPTRvim57tthxZh7ffMeThsi4eeYaG3QP4oa81KqzeNDxWPQc97uBJBVlsC3S60IVO6phdddllXG_2UCxhVlf0S8Pxn3O7bxFRc6rZWf2bGyW4neGNBWJDmoNks8WXzskLulSN02ViBFD-BenVs1oucatZ_4XyAJhRJwJErx_3gZT3q0ZwxE7-xpyb1uM0ocJ7ASKP9Be4noTz9Bd2BRFsRI-0EvpnRPJjCELpOGaj0FfIIX2aT9KNEDfio41VGl4hwxOvHGlbqscOg9CLyJrSyOnHlCdxmNVkPngPpoTj4-Aw9ImjlHNJHgHGjqMxrAD7rUQTYnLWsHlmgWQsJKpNQYZyYErPadEK76TuSdefLQeuQjKYZlbR3EWaRnBcazXoloZ0L8OEha_EZF3PVoscKsb5tJfDYTvFmc40yQ-CLRqZiDeY5HWXTnjuiySC0vc44zrwI-C4z90yUBFmuWN0EKHZ-YC4Fm867S1bxu0GkkDwZF_EgunA1Sl8AJ5m5RPlHSlRbknMxrY8hkBFPg6aKFeqOsqe98WXTUeAl4j6H4tb9v8jCGb6PrFkPU57WBFnVvKcjRxuCP8GuJtml7X1oU_ErLjAVVqQA_v4pYpn7jiSHW20E8_J4hAcMnuPLJZ0dAeD3qnY_auGryuDdEb9xAeOmhkOHu2qPW-5wNo6nIjcx8DHhGPfTM2AzViklhssn6Kg4M0iZyXogljKTL0isRLzfOzsZccWigZQQr_YeIAkqHOnGspf4uiOCR7ZDQEfHuVs7Eq5tJAYnDMYakOZLBw1oYfIOGeTKs90LJeaderxEAfyfb_pkz38PihHzo8OruRCDBefoO-Obqj3KaR7LlGRNfAZZTGQvCSypkgvc9VFhuZjq_I8gFsploAYU_1YQDJcv93AnLaP5YsgxROHt5hSFQ2fJdgjLKxEUS87OUMnvmC3Kn6waHExcgDVyAcPOalYczbfiQAtQYfNwGr9eDy5mh-HqXaRyYZS56U8loiki6Ay66VgjDAv3now7gpqQWD73X7jsflp49fPbu2u_TXgvvgEj4Vy3]--></g></svg>