<?xml version="1.0" encoding="us-ascii" standalone="no"?><svg xmlns="http://www.w3.org/2000/svg" xmlns:xlink="http://www.w3.org/1999/xlink" contentStyleType="text/css" height="727px" preserveAspectRatio="none" style="width:1105px;height:727px;background:#FFFFFF;" version="1.1" viewBox="0 0 1105 727" width="1105px" zoomAndPan="magnify"><defs/><g><rect fill="#A9A9A9" height="678.4746" style="stroke:#181818;stroke-width:0.5;" width="968.5" x="119" y="43.4883"/><text fill="#000000" font-family="sans-serif" font-size="13" font-weight="bold" lengthAdjust="spacing" textLength="87" x="559.75" y="56.0566">&#171;SubSystem&#187;</text><text fill="#000000" font-family="sans-serif" font-size="13" font-weight="bold" lengthAdjust="spacing" textLength="80" x="563.75" y="71.3672">&#171;Container&#187;</text><text fill="#000000" font-family="sans-serif" font-size="13" font-weight="bold" lengthAdjust="spacing" textLength="60" x="571.75" y="86.6777">:Backend</text><rect fill="#D3D3D3" height="627.543" style="stroke:#181818;stroke-width:0.5;" width="968.5" x="119" y="94.4199"/><text fill="#000000" font-family="sans-serif" font-size="13" font-weight="bold" lengthAdjust="spacing" textLength="92" x="557.25" y="106.9883">&#171;Component&#187;</text><text fill="#000000" font-family="sans-serif" font-size="13" font-weight="bold" lengthAdjust="spacing" textLength="46" x="565.25" y="122.2988">:Server</text><text fill="#000000" font-family="sans-serif" font-size="14" font-weight="bold" lengthAdjust="spacing" textLength="184" x="464.25" y="28.5352">UC08 - Deactivate Device</text><line style="stroke:#181818;stroke-width:0.5;stroke-dasharray:5.0,5.0;" x1="224" x2="224" y1="177.0176" y2="667.9863"/><rect fill="#FFFFFF" height="420.5254" style="stroke:#181818;stroke-width:1.0;" width="10" x="219" y="229.4609"/><line style="stroke:#181818;stroke-width:0.5;stroke-dasharray:5.0,5.0;" x1="417.5" x2="417.5" y1="177.0176" y2="667.9863"/><rect fill="#FFFFFF" height="29.3105" style="stroke:#181818;stroke-width:1.0;" width="10" x="412.5" y="280.082"/><line style="stroke:#181818;stroke-width:0.5;stroke-dasharray:5.0,5.0;" x1="576.5" x2="576.5" y1="317.3926" y2="667.9863"/><line style="stroke:#181818;stroke-width:0.5;stroke-dasharray:5.0,5.0;" x1="708" x2="708" y1="177.0176" y2="667.9863"/><rect fill="#FFFFFF" height="250.4844" style="stroke:#181818;stroke-width:1.0;" width="10" x="703" y="370.1914"/><line style="stroke:#181818;stroke-width:0.5;stroke-dasharray:5.0,5.0;" x1="901" x2="901" y1="177.0176" y2="667.9863"/><rect fill="#FFFFFF" height="29.3105" style="stroke:#181818;stroke-width:1.0;" width="10" x="896" y="399.502"/><rect fill="#FFFFFF" height="29.3105" style="stroke:#181818;stroke-width:1.0;" width="10" x="896" y="562.0547"/><line style="stroke:#181818;stroke-width:0.5;stroke-dasharray:5.0,5.0;" x1="1031" x2="1031" y1="177.0176" y2="667.9863"/><rect fill="#FFFFFF" height="29.3105" style="stroke:#181818;stroke-width:1.0;" width="10" x="1026" y="489.4336"/><rect fill="#E2E2F0" height="46.9766" rx="2.5" ry="2.5" style="stroke:#181818;stroke-width:0.5;" width="202" x="123" y="129.041"/><text fill="#000000" font-family="sans-serif" font-size="14" font-style="italic" lengthAdjust="spacing" textLength="92" x="178" y="149.5762">&#171;component&#187;</text><text fill="#000000" font-family="sans-serif" font-size="14" lengthAdjust="spacing" textLength="188" x="130" y="166.0645">:DeactivateDeviceController</text><rect fill="#E2E2F0" height="30.4883" rx="2.5" ry="2.5" style="stroke:#181818;stroke-width:0.5;" width="165" x="335" y="145.5293"/><text fill="#000000" font-family="sans-serif" font-size="14" lengthAdjust="spacing" textLength="151" x="342" y="166.0645">deviceDTO:DeviceDTO</text><rect fill="#E2E2F0" height="46.9766" rx="2.5" ry="2.5" style="stroke:#181818;stroke-width:0.5;" width="110" x="653" y="129.041"/><text fill="#000000" font-family="sans-serif" font-size="14" font-style="italic" lengthAdjust="spacing" textLength="92" x="662" y="149.5762">&#171;component&#187;</text><text fill="#000000" font-family="sans-serif" font-size="14" lengthAdjust="spacing" textLength="96" x="660" y="166.0645">:DeviceService</text><rect fill="#E2E2F0" height="46.9766" rx="2.5" ry="2.5" style="stroke:#181818;stroke-width:0.5;" width="135" x="833.5" y="129.041"/><text fill="#000000" font-family="sans-serif" font-size="14" font-style="italic" lengthAdjust="spacing" textLength="92" x="855" y="149.5762">&#171;component&#187;</text><text fill="#000000" font-family="sans-serif" font-size="14" lengthAdjust="spacing" textLength="121" x="840.5" y="166.0645">:DeviceRepository</text><rect fill="#E2E2F0" height="30.4883" rx="2.5" ry="2.5" style="stroke:#181818;stroke-width:0.5;" width="105" x="978.5" y="145.5293"/><text fill="#000000" font-family="sans-serif" font-size="14" lengthAdjust="spacing" textLength="91" x="985.5" y="166.0645">device:Device</text><rect fill="#E2E2F0" height="46.9766" rx="2.5" ry="2.5" style="stroke:#181818;stroke-width:0.5;" width="202" x="123" y="667.9863"/><text fill="#000000" font-family="sans-serif" font-size="14" font-style="italic" lengthAdjust="spacing" textLength="92" x="178" y="688.5215">&#171;component&#187;</text><text fill="#000000" font-family="sans-serif" font-size="14" lengthAdjust="spacing" textLength="188" x="130" y="705.0098">:DeactivateDeviceController</text><rect fill="#E2E2F0" height="30.4883" rx="2.5" ry="2.5" style="stroke:#181818;stroke-width:0.5;" width="165" x="335" y="667.9863"/><text fill="#000000" font-family="sans-serif" font-size="14" lengthAdjust="spacing" textLength="151" x="342" y="688.5215">deviceDTO:DeviceDTO</text><rect fill="#E2E2F0" height="30.4883" rx="2.5" ry="2.5" style="stroke:#181818;stroke-width:0.5;" width="133" x="510" y="667.9863"/><text fill="#000000" font-family="sans-serif" font-size="14" lengthAdjust="spacing" textLength="119" x="517" y="688.5215">deviceID:DeviceID</text><rect fill="#E2E2F0" height="46.9766" rx="2.5" ry="2.5" style="stroke:#181818;stroke-width:0.5;" width="110" x="653" y="667.9863"/><text fill="#000000" font-family="sans-serif" font-size="14" font-style="italic" lengthAdjust="spacing" textLength="92" x="662" y="688.5215">&#171;component&#187;</text><text fill="#000000" font-family="sans-serif" font-size="14" lengthAdjust="spacing" textLength="96" x="660" y="705.0098">:DeviceService</text><rect fill="#E2E2F0" height="46.9766" rx="2.5" ry="2.5" style="stroke:#181818;stroke-width:0.5;" width="135" x="833.5" y="667.9863"/><text fill="#000000" font-family="sans-serif" font-size="14" font-style="italic" lengthAdjust="spacing" textLength="92" x="855" y="688.5215">&#171;component&#187;</text><text fill="#000000" font-family="sans-serif" font-size="14" lengthAdjust="spacing" textLength="121" x="840.5" y="705.0098">:DeviceRepository</text><rect fill="#E2E2F0" height="30.4883" rx="2.5" ry="2.5" style="stroke:#181818;stroke-width:0.5;" width="105" x="978.5" y="667.9863"/><text fill="#000000" font-family="sans-serif" font-size="14" lengthAdjust="spacing" textLength="91" x="985.5" y="688.5215">device:Device</text><rect fill="none" height="39.4434" style="stroke:#000000;stroke-width:1.5;" width="520" x="125" y="185.0176"/><path d="M125,185.0176 L189,185.0176 L189,192.0176 L179,202.0176 L125,202.0176 L125,185.0176 " fill="#EEEEEE" style="stroke:#000000;stroke-width:2.0;"/><text fill="#000000" font-family="sans-serif" font-size="13" font-weight="bold" lengthAdjust="spacing" textLength="19" x="138" y="199.5859">ref</text><a href="docs/DocumentationOfSystem/UC06-ListAllDevicesInRoom/UC06SequenceDiagram.puml" target="_top" title="docs/DocumentationOfSystem/UC06-ListAllDevicesInRoom/UC06SequenceDiagram.puml" xlink:actuate="onRequest" xlink:href="docs/DocumentationOfSystem/UC06-ListAllDevicesInRoom/UC06SequenceDiagram.puml" xlink:show="new" xlink:title="docs/DocumentationOfSystem/UC06-ListAllDevicesInRoom/UC06SequenceDiagram.puml" xlink:type="simple"><text fill="#0000FF" font-family="sans-serif" font-size="12" lengthAdjust="spacing" text-decoration="underline" textLength="512" x="129" y="217.6191">docs/DocumentationOfSystem/UC06-ListAllDevicesInRoom/UC06SequenceDiagram.puml</text></a><ellipse cx="10.5" cy="250.0215" fill="none" rx="4" ry="4" style="stroke:#181818;stroke-width:1.5;"/><polygon fill="#181818" points="207,246.7715,217,250.7715,207,254.7715,211,250.7715" style="stroke:#181818;stroke-width:1.0;"/><line style="stroke:#181818;stroke-width:1.0;" x1="15" x2="213" y1="250.7715" y2="250.7715"/><text fill="#000000" font-family="sans-serif" font-size="13" font-weight="bold" lengthAdjust="spacing" textLength="9" x="18" y="246.0293">1</text><text fill="#000000" font-family="sans-serif" font-size="13" lengthAdjust="spacing" textLength="182" x="31" y="246.0293">deactivateDevice(deviceDTO)</text><polygon fill="#181818" points="400.5,276.082,410.5,280.082,400.5,284.082,404.5,280.082" style="stroke:#181818;stroke-width:1.0;"/><line style="stroke:#181818;stroke-width:1.0;" x1="229" x2="406.5" y1="280.082" y2="280.082"/><text fill="#000000" font-family="sans-serif" font-size="13" font-weight="bold" lengthAdjust="spacing" textLength="9" x="236" y="275.3398">2</text><text fill="#000000" font-family="sans-serif" font-size="13" lengthAdjust="spacing" textLength="76" x="249" y="275.3398">deviceName</text><polygon fill="#181818" points="240,305.3926,230,309.3926,240,313.3926,236,309.3926" style="stroke:#181818;stroke-width:1.0;"/><line style="stroke:#181818;stroke-width:1.0;stroke-dasharray:2.0,2.0;" x1="234" x2="411.5" y1="309.3926" y2="309.3926"/><text fill="#000000" font-family="sans-serif" font-size="13" font-weight="bold" lengthAdjust="spacing" textLength="9" x="246" y="304.6504">3</text><text fill="#000000" font-family="sans-serif" font-size="13" lengthAdjust="spacing" textLength="117" x="259" y="304.6504">String deviceName</text><rect fill="#E2E2F0" height="30.4883" rx="2.5" ry="2.5" style="stroke:#181818;stroke-width:0.5;" width="133" x="510" y="317.3926"/><text fill="#000000" font-family="sans-serif" font-size="14" lengthAdjust="spacing" textLength="119" x="517" y="337.9277">deviceID:DeviceID</text><polygon fill="#181818" points="498,334.7031,508,338.7031,498,342.7031,502,338.7031" style="stroke:#181818;stroke-width:1.0;"/><line style="stroke:#181818;stroke-width:1.0;stroke-dasharray:2.0,2.0;" x1="229" x2="504" y1="338.7031" y2="338.7031"/><text fill="#000000" font-family="sans-serif" font-size="13" font-weight="bold" lengthAdjust="spacing" textLength="9" x="236" y="333.9609">4</text><text fill="#000000" font-family="sans-serif" font-size="13" lengthAdjust="spacing" textLength="52" x="249" y="333.9609">&#171;create&#187;</text><polygon fill="#181818" points="691,366.1914,701,370.1914,691,374.1914,695,370.1914" style="stroke:#181818;stroke-width:1.0;"/><line style="stroke:#181818;stroke-width:1.0;" x1="229" x2="697" y1="370.1914" y2="370.1914"/><text fill="#000000" font-family="sans-serif" font-size="13" font-weight="bold" lengthAdjust="spacing" textLength="9" x="236" y="365.4492">5</text><text fill="#000000" font-family="sans-serif" font-size="13" lengthAdjust="spacing" textLength="168" x="249" y="365.4492">deactivateDevice(deviceID)</text><polygon fill="#181818" points="884,395.502,894,399.502,884,403.502,888,399.502" style="stroke:#181818;stroke-width:1.0;"/><line style="stroke:#181818;stroke-width:1.0;" x1="713" x2="890" y1="399.502" y2="399.502"/><text fill="#000000" font-family="sans-serif" font-size="13" font-weight="bold" lengthAdjust="spacing" textLength="9" x="720" y="394.7598">6</text><text fill="#000000" font-family="sans-serif" font-size="13" lengthAdjust="spacing" textLength="151" x="733" y="394.7598">findEntityByID(deviceID)</text><polygon fill="#181818" points="724,424.8125,714,428.8125,724,432.8125,720,428.8125" style="stroke:#181818;stroke-width:1.0;"/><line style="stroke:#181818;stroke-width:1.0;stroke-dasharray:2.0,2.0;" x1="718" x2="895" y1="428.8125" y2="428.8125"/><text fill="#000000" font-family="sans-serif" font-size="13" font-weight="bold" lengthAdjust="spacing" textLength="9" x="730" y="424.0703">7</text><text fill="#000000" font-family="sans-serif" font-size="13" lengthAdjust="spacing" textLength="116" x="743" y="424.0703">Optional&lt;Device&gt;</text><path d="M692,440.8125 L754,440.8125 L754,448.123 L744,458.123 L692,458.123 L692,440.8125 " fill="#EEEEEE" style="stroke:#000000;stroke-width:1.5;"/><rect fill="none" height="85.9316" style="stroke:#000000;stroke-width:1.5;" width="407.5" x="692" y="440.8125"/><text fill="#000000" font-family="sans-serif" font-size="13" font-weight="bold" lengthAdjust="spacing" textLength="17" x="707" y="454.3809">alt</text><text fill="#000000" font-family="sans-serif" font-size="11" font-weight="bold" lengthAdjust="spacing" textLength="110" x="769" y="453.4473">[if Device is active]</text><polygon fill="#181818" points="1014,485.4336,1024,489.4336,1014,493.4336,1018,489.4336" style="stroke:#181818;stroke-width:1.0;"/><line style="stroke:#181818;stroke-width:1.0;" x1="713" x2="1020" y1="489.4336" y2="489.4336"/><text fill="#000000" font-family="sans-serif" font-size="13" font-weight="bold" lengthAdjust="spacing" textLength="9" x="720" y="484.6914">8</text><text fill="#000000" font-family="sans-serif" font-size="13" lengthAdjust="spacing" textLength="72" x="733" y="484.6914">deactivate()</text><polygon fill="#181818" points="724,514.7441,714,518.7441,724,522.7441,720,518.7441" style="stroke:#181818;stroke-width:1.0;"/><line style="stroke:#181818;stroke-width:1.0;stroke-dasharray:2.0,2.0;" x1="718" x2="1025" y1="518.7441" y2="518.7441"/><text fill="#000000" font-family="sans-serif" font-size="13" font-weight="bold" lengthAdjust="spacing" textLength="9" x="730" y="514.002">9</text><text fill="#000000" font-family="sans-serif" font-size="13" lengthAdjust="spacing" textLength="25" x="743" y="514.002">true</text><polygon fill="#181818" points="884,558.0547,894,562.0547,884,566.0547,888,562.0547" style="stroke:#181818;stroke-width:1.0;"/><line style="stroke:#181818;stroke-width:1.0;" x1="713" x2="890" y1="562.0547" y2="562.0547"/><text fill="#000000" font-family="sans-serif" font-size="13" font-weight="bold" lengthAdjust="spacing" textLength="18" x="720" y="557.3125">10</text><text fill="#000000" font-family="sans-serif" font-size="13" lengthAdjust="spacing" textLength="93" x="742" y="557.3125">update(Device)</text><polygon fill="#181818" points="724,587.3652,714,591.3652,724,595.3652,720,591.3652" style="stroke:#181818;stroke-width:1.0;"/><line style="stroke:#181818;stroke-width:1.0;stroke-dasharray:2.0,2.0;" x1="718" x2="895" y1="591.3652" y2="591.3652"/><text fill="#000000" font-family="sans-serif" font-size="13" font-weight="bold" lengthAdjust="spacing" textLength="18" x="730" y="586.623">11</text><text fill="#000000" font-family="sans-serif" font-size="13" lengthAdjust="spacing" textLength="42" x="752" y="586.623">Device</text><polygon fill="#181818" points="240,616.6758,230,620.6758,240,624.6758,236,620.6758" style="stroke:#181818;stroke-width:1.0;"/><line style="stroke:#181818;stroke-width:1.0;stroke-dasharray:2.0,2.0;" x1="234" x2="702" y1="620.6758" y2="620.6758"/><text fill="#000000" font-family="sans-serif" font-size="13" font-weight="bold" lengthAdjust="spacing" textLength="18" x="246" y="615.9336">12</text><text fill="#000000" font-family="sans-serif" font-size="13" lengthAdjust="spacing" textLength="25" x="268" y="615.9336">true</text><ellipse cx="10.5" cy="649.2363" fill="none" rx="4" ry="4" style="stroke:#181818;stroke-width:1.5;"/><polygon fill="#181818" points="27.5,645.9863,17.5,649.9863,27.5,653.9863,23.5,649.9863" style="stroke:#181818;stroke-width:1.0;"/><line style="stroke:#181818;stroke-width:1.0;stroke-dasharray:2.0,2.0;" x1="25.5" x2="218" y1="649.9863" y2="649.9863"/><text fill="#000000" font-family="sans-serif" font-size="13" font-weight="bold" lengthAdjust="spacing" textLength="18" x="28" y="645.2441">13</text><text fill="#000000" font-family="sans-serif" font-size="13" lengthAdjust="spacing" textLength="25" x="50" y="645.2441">true</text><!--SRC=[XLHTRzem57tthxXZ3xILikvfcg88YUAKMMl9H5YrgUk3IGorIEpCSL3Phv_j16AWMv_YQvzpp_quYkQwOF1zyl4p180PpJJVKitCSSipXcYZfMZA9LC8lQiKNPSKD9D_GAk6eQLyWK4KfSqotTMQbQFHBm5HD952KowOSZ50U4Ep3HFv0DvZgZPJnNPxwaIMbHHCw1OQfanjcJB0Exv-rWw9AgeqptX5XOP1sDVObcZ5b2mAow8rzA4f9Ekp7sV97HKlaX3lJuvzk7yDJd279jW34tnMeBssZPYF0tRd_nNKiUQiaZNNKkqSqOPljz5n7QDR6r9i1T9Cqfi7UdpCPLPVOvarfKb6DPSYMRMRkpOE-1JSyLgFYw9DKXCnbx9zITdlXWap6KxNYfOVggOidfwGsIaO9OI6qtW1EBaVandW-85COhXDvZ26ANc8zrTsh0T_-NN9OEJ5eHdiyOel3ckvHDv-3Ulm065tdj6IzIhzFdjaSAAMQiN5sgVt-bu2N_YWJF3LLMWtf9X1c_MWuJtTCD3Fp0p6pApMeAKBwzO49mrqrlXdpmHVzjrqO2Co-H9FlWAvXNYs88kV4FyWwI85C_rv_2r1UyCP0MkX45PSvB7GNEzkTWI_bjlYaFDRu9ULLDObj8ZQgaR-R1o55XhuglCTy1hSC_DBQD_y5YyyuSwnNO8ZSVUFoS_-ITPrHXQXypwRAhVfM-3RtNK9JtlgyvvOnHNam_SRUPHH49n3FQJdzs4ymty1]--></g></svg>