<?xml version="1.0" encoding="us-ascii" standalone="no"?><svg xmlns="http://www.w3.org/2000/svg" xmlns:xlink="http://www.w3.org/1999/xlink" contentStyleType="text/css" height="1661px" preserveAspectRatio="none" style="width:2312px;height:1661px;background:#FFFFFF;" version="1.1" viewBox="0 0 2312 1661" width="2312px" zoomAndPan="magnify"><defs/><g><rect fill="#A9A9A9" height="1612.3223" style="stroke:#181818;stroke-width:0.5;" width="2227" x="79.5" y="43.4883"/><text fill="#000000" font-family="sans-serif" font-size="13" font-weight="bold" lengthAdjust="spacing" textLength="87" x="1151.5" y="56.0566">&#171;SubSystem&#187;</text><text fill="#000000" font-family="sans-serif" font-size="13" font-weight="bold" lengthAdjust="spacing" textLength="80" x="1155.5" y="71.3672">&#171;Container&#187;</text><text fill="#000000" font-family="sans-serif" font-size="13" font-weight="bold" lengthAdjust="spacing" textLength="60" x="1163.5" y="86.6777">:Backend</text><rect fill="#D3D3D3" height="1561.3906" style="stroke:#181818;stroke-width:0.5;" width="2227" x="79.5" y="94.4199"/><text fill="#000000" font-family="sans-serif" font-size="13" font-weight="bold" lengthAdjust="spacing" textLength="92" x="1149" y="106.9883">&#171;Component&#187;</text><text fill="#000000" font-family="sans-serif" font-size="13" font-weight="bold" lengthAdjust="spacing" textLength="46" x="1161" y="122.2988">:Server</text><text fill="#000000" font-family="sans-serif" font-size="14" font-weight="bold" lengthAdjust="spacing" textLength="1282" x="517.25" y="28.5352">US09 - As a Power User [or Administrator], I want to get a list of all devices in a house, grouped by device functionality types. It must include device location. Main success case</text><line style="stroke:#181818;stroke-width:0.5;stroke-dasharray:5.0,5.0;" x1="253" x2="253" y1="193.5059" y2="1585.3457"/><rect fill="#FFFFFF" height="1362.5293" style="stroke:#181818;stroke-width:1.0;" width="10" x="248" y="222.8164"/><line style="stroke:#181818;stroke-width:0.5;stroke-dasharray:5.0,5.0;" x1="591" x2="591" y1="193.5059" y2="1585.3457"/><rect fill="#FFFFFF" height="1270.7754" style="stroke:#181818;stroke-width:1.0;" width="10" x="586" y="252.127"/><rect fill="#FFFFFF" height="512.123" style="stroke:#181818;stroke-width:1.0;" width="10" x="591" y="294.4375"/><rect fill="#FFFFFF" height="512.123" style="stroke:#181818;stroke-width:1.0;" width="10" x="591" y="861.8711"/><line style="stroke:#181818;stroke-width:0.5;stroke-dasharray:5.0,5.0;" x1="932" x2="932" y1="302.4375" y2="1585.3457"/><rect fill="#FFFFFF" height="13" style="stroke:#181818;stroke-width:1.0;" width="10" x="927" y="763.25"/><line style="stroke:#181818;stroke-width:0.5;stroke-dasharray:5.0,5.0;" x1="1116.5" x2="1116.5" y1="193.5059" y2="1585.3457"/><rect fill="#FFFFFF" height="29.3105" style="stroke:#181818;stroke-width:1.0;" width="10" x="1111.5" y="388.2129"/><line style="stroke:#181818;stroke-width:0.5;stroke-dasharray:5.0,5.0;" x1="1251" x2="1251" y1="193.5059" y2="1585.3457"/><rect fill="#FFFFFF" height="87.9316" style="stroke:#181818;stroke-width:1.0;" width="10" x="1246" y="478.1445"/><line style="stroke:#181818;stroke-width:0.5;stroke-dasharray:5.0,5.0;" x1="1384" x2="1384" y1="193.5059" y2="1585.3457"/><rect fill="#FFFFFF" height="29.3105" style="stroke:#181818;stroke-width:1.0;" width="10" x="1379" y="595.3867"/><rect fill="#FFFFFF" height="29.3105" style="stroke:#181818;stroke-width:1.0;" width="10" x="1379" y="1162.8203"/><line style="stroke:#181818;stroke-width:0.5;stroke-dasharray:5.0,5.0;" x1="1514" x2="1514" y1="193.5059" y2="1585.3457"/><rect fill="#FFFFFF" height="29.3105" style="stroke:#181818;stroke-width:1.0;" width="10" x="1509" y="654.0078"/><rect fill="#FFFFFF" height="29.3105" style="stroke:#181818;stroke-width:1.0;" width="10" x="1509" y="1221.4414"/><line style="stroke:#181818;stroke-width:0.5;stroke-dasharray:5.0,5.0;" x1="1684.5" x2="1684.5" y1="869.8711" y2="1585.3457"/><rect fill="#FFFFFF" height="13" style="stroke:#181818;stroke-width:1.0;" width="10" x="1679.5" y="1330.6836"/><line style="stroke:#181818;stroke-width:0.5;stroke-dasharray:5.0,5.0;" x1="1877.5" x2="1877.5" y1="193.5059" y2="1585.3457"/><rect fill="#FFFFFF" height="29.3105" style="stroke:#181818;stroke-width:1.0;" width="10" x="1872.5" y="955.6465"/><line style="stroke:#181818;stroke-width:0.5;stroke-dasharray:5.0,5.0;" x1="2029.5" x2="2029.5" y1="193.5059" y2="1585.3457"/><rect fill="#FFFFFF" height="87.9316" style="stroke:#181818;stroke-width:1.0;" width="10" x="2024.5" y="1045.5781"/><line style="stroke:#181818;stroke-width:0.5;stroke-dasharray:5.0,5.0;" x1="2204.5" x2="2204.5" y1="1394.9941" y2="1585.3457"/><rect fill="#FFFFFF" height="29.3105" style="stroke:#181818;stroke-width:1.0;" width="10" x="2199.5" y="1464.2813"/><rect fill="#E2E2F0" height="30.4883" rx="2.5" ry="2.5" style="stroke:#181818;stroke-width:0.5;" width="339" x="83.5" y="162.0176"/><text fill="#000000" font-family="sans-serif" font-size="14" lengthAdjust="spacing" textLength="325" x="90.5" y="182.5527">:ListAllDevicesInHouseByFunctionalityController</text><rect fill="#E2E2F0" height="30.4883" rx="2.5" ry="2.5" style="stroke:#181818;stroke-width:0.5;" width="317" x="432.5" y="162.0176"/><text fill="#000000" font-family="sans-serif" font-size="14" lengthAdjust="spacing" textLength="303" x="439.5" y="182.5527">:ListAllDevicesInHouseByFunctionalityService</text><rect fill="#E2E2F0" height="30.4883" rx="2.5" ry="2.5" style="stroke:#181818;stroke-width:0.5;" width="138" x="1047.5" y="162.0176"/><text fill="#000000" font-family="sans-serif" font-size="14" lengthAdjust="spacing" textLength="124" x="1054.5" y="182.5527">:SensorRepository</text><rect fill="#E2E2F0" height="30.4883" rx="2.5" ry="2.5" style="stroke:#181818;stroke-width:0.5;" width="111" x="1195.5" y="162.0176"/><text fill="#000000" font-family="sans-serif" font-size="14" lengthAdjust="spacing" textLength="97" x="1202.5" y="182.5527">sensor:Sensor</text><rect fill="#E2E2F0" height="30.4883" rx="2.5" ry="2.5" style="stroke:#181818;stroke-width:0.5;" width="135" x="1316.5" y="162.0176"/><text fill="#000000" font-family="sans-serif" font-size="14" lengthAdjust="spacing" textLength="121" x="1323.5" y="182.5527">:DeviceRepository</text><rect fill="#E2E2F0" height="30.4883" rx="2.5" ry="2.5" style="stroke:#181818;stroke-width:0.5;" width="105" x="1461.5" y="162.0176"/><text fill="#000000" font-family="sans-serif" font-size="14" lengthAdjust="spacing" textLength="91" x="1468.5" y="182.5527">device:Device</text><rect fill="#E2E2F0" height="30.4883" rx="2.5" ry="2.5" style="stroke:#181818;stroke-width:0.5;" width="150" x="1802.5" y="162.0176"/><text fill="#000000" font-family="sans-serif" font-size="14" lengthAdjust="spacing" textLength="136" x="1809.5" y="182.5527">:ActuatorRepository</text><rect fill="#E2E2F0" height="30.4883" rx="2.5" ry="2.5" style="stroke:#181818;stroke-width:0.5;" width="134" x="1962.5" y="162.0176"/><text fill="#000000" font-family="sans-serif" font-size="14" lengthAdjust="spacing" textLength="120" x="1969.5" y="182.5527">actuator:Actuator</text><rect fill="#E2E2F0" height="30.4883" rx="2.5" ry="2.5" style="stroke:#181818;stroke-width:0.5;" width="339" x="83.5" y="1585.3457"/><text fill="#000000" font-family="sans-serif" font-size="14" lengthAdjust="spacing" textLength="325" x="90.5" y="1605.8809">:ListAllDevicesInHouseByFunctionalityController</text><rect fill="#E2E2F0" height="30.4883" rx="2.5" ry="2.5" style="stroke:#181818;stroke-width:0.5;" width="317" x="432.5" y="1585.3457"/><text fill="#000000" font-family="sans-serif" font-size="14" lengthAdjust="spacing" textLength="303" x="439.5" y="1605.8809">:ListAllDevicesInHouseByFunctionalityService</text><rect fill="#E2E2F0" height="63.4648" rx="2.5" ry="2.5" style="stroke:#181818;stroke-width:0.5;" width="211" x="826.5" y="1585.3457"/><text fill="#000000" font-family="sans-serif" font-size="14" lengthAdjust="spacing" textLength="114" x="875" y="1605.8809">mainSensorMap:</text><text fill="#000000" font-family="sans-serif" font-size="14" lengthAdjust="spacing" textLength="193" x="833.5" y="1622.3691">Map&lt;SensorFunctionalityID,</text><text fill="#000000" font-family="sans-serif" font-size="14" lengthAdjust="spacing" textLength="182" x="841" y="1638.8574">Map&lt;RoomID, DeviceID&gt;&gt;</text><rect fill="#E2E2F0" height="30.4883" rx="2.5" ry="2.5" style="stroke:#181818;stroke-width:0.5;" width="138" x="1047.5" y="1585.3457"/><text fill="#000000" font-family="sans-serif" font-size="14" lengthAdjust="spacing" textLength="124" x="1054.5" y="1605.8809">:SensorRepository</text><rect fill="#E2E2F0" height="30.4883" rx="2.5" ry="2.5" style="stroke:#181818;stroke-width:0.5;" width="111" x="1195.5" y="1585.3457"/><text fill="#000000" font-family="sans-serif" font-size="14" lengthAdjust="spacing" textLength="97" x="1202.5" y="1605.8809">sensor:Sensor</text><rect fill="#E2E2F0" height="30.4883" rx="2.5" ry="2.5" style="stroke:#181818;stroke-width:0.5;" width="135" x="1316.5" y="1585.3457"/><text fill="#000000" font-family="sans-serif" font-size="14" lengthAdjust="spacing" textLength="121" x="1323.5" y="1605.8809">:DeviceRepository</text><rect fill="#E2E2F0" height="30.4883" rx="2.5" ry="2.5" style="stroke:#181818;stroke-width:0.5;" width="105" x="1461.5" y="1585.3457"/><text fill="#000000" font-family="sans-serif" font-size="14" lengthAdjust="spacing" textLength="91" x="1468.5" y="1605.8809">device:Device</text><rect fill="#E2E2F0" height="63.4648" rx="2.5" ry="2.5" style="stroke:#181818;stroke-width:0.5;" width="216" x="1576.5" y="1585.3457"/><text fill="#000000" font-family="sans-serif" font-size="14" lengthAdjust="spacing" textLength="126" x="1621.5" y="1605.8809">mainActuatorMap:</text><text fill="#000000" font-family="sans-serif" font-size="14" lengthAdjust="spacing" textLength="198" x="1583.5" y="1622.3691">Map&lt;ActuatorFuntionalityID,</text><text fill="#000000" font-family="sans-serif" font-size="14" lengthAdjust="spacing" textLength="182" x="1593.5" y="1638.8574">Map&lt;RoomID, DeviceID&gt;&gt;</text><rect fill="#E2E2F0" height="30.4883" rx="2.5" ry="2.5" style="stroke:#181818;stroke-width:0.5;" width="150" x="1802.5" y="1585.3457"/><text fill="#000000" font-family="sans-serif" font-size="14" lengthAdjust="spacing" textLength="136" x="1809.5" y="1605.8809">:ActuatorRepository</text><rect fill="#E2E2F0" height="30.4883" rx="2.5" ry="2.5" style="stroke:#181818;stroke-width:0.5;" width="134" x="1962.5" y="1585.3457"/><text fill="#000000" font-family="sans-serif" font-size="14" lengthAdjust="spacing" textLength="120" x="1969.5" y="1605.8809">actuator:Actuator</text><rect fill="#E2E2F0" height="46.9766" rx="2.5" ry="2.5" style="stroke:#181818;stroke-width:0.5;" width="196" x="2106.5" y="1585.3457"/><text fill="#000000" font-family="sans-serif" font-size="14" lengthAdjust="spacing" textLength="155" x="2125" y="1605.8809">mainMap:Map&lt;Object,</text><text fill="#000000" font-family="sans-serif" font-size="14" lengthAdjust="spacing" textLength="182" x="2113.5" y="1622.3691">Map&lt;RoomID, DeviceID&gt;&gt;</text><ellipse cx="10.5" cy="222.0664" fill="none" rx="4" ry="4" style="stroke:#181818;stroke-width:1.5;"/><polygon fill="#181818" points="236,218.8164,246,222.8164,236,226.8164,240,222.8164" style="stroke:#181818;stroke-width:1.0;"/><line style="stroke:#181818;stroke-width:1.0;" x1="15" x2="242" y1="222.8164" y2="222.8164"/><text fill="#000000" font-family="sans-serif" font-size="13" font-weight="bold" lengthAdjust="spacing" textLength="9" x="18" y="218.0742">1</text><text fill="#000000" font-family="sans-serif" font-size="13" lengthAdjust="spacing" textLength="211" x="31" y="218.0742">getListOfDevicesByFunctionality()</text><polygon fill="#181818" points="574,248.127,584,252.127,574,256.127,578,252.127" style="stroke:#181818;stroke-width:1.0;"/><line style="stroke:#181818;stroke-width:1.0;" x1="258" x2="580" y1="252.127" y2="252.127"/><text fill="#000000" font-family="sans-serif" font-size="13" font-weight="bold" lengthAdjust="spacing" textLength="9" x="265" y="247.3848">2</text><text fill="#000000" font-family="sans-serif" font-size="13" lengthAdjust="spacing" textLength="283" x="278" y="247.3848">devicesGroupedByFunctionalityAndLocation()</text><line style="stroke:#181818;stroke-width:1.0;" x1="596" x2="643" y1="281.4375" y2="281.4375"/><line style="stroke:#181818;stroke-width:1.0;" x1="643" x2="643" y1="281.4375" y2="294.4375"/><line style="stroke:#181818;stroke-width:1.0;" x1="602" x2="643" y1="294.4375" y2="294.4375"/><polygon fill="#181818" points="612,290.4375,602,294.4375,612,298.4375,608,294.4375" style="stroke:#181818;stroke-width:1.0;"/><text fill="#000000" font-family="sans-serif" font-size="13" font-weight="bold" lengthAdjust="spacing" textLength="9" x="608" y="276.6953">3</text><text fill="#000000" font-family="sans-serif" font-size="13" lengthAdjust="spacing" textLength="158" x="621" y="276.6953">sensorFunctionalityMap()</text><rect fill="#E2E2F0" height="63.4648" rx="2.5" ry="2.5" style="stroke:#181818;stroke-width:0.5;" width="211" x="826.5" y="302.4375"/><text fill="#000000" font-family="sans-serif" font-size="14" lengthAdjust="spacing" textLength="114" x="875" y="322.9727">mainSensorMap:</text><text fill="#000000" font-family="sans-serif" font-size="14" lengthAdjust="spacing" textLength="193" x="833.5" y="339.4609">Map&lt;SensorFunctionalityID,</text><text fill="#000000" font-family="sans-serif" font-size="14" lengthAdjust="spacing" textLength="182" x="841" y="355.9492">Map&lt;RoomID, DeviceID&gt;&gt;</text><polygon fill="#181818" points="814.5,319.748,824.5,323.748,814.5,327.748,818.5,323.748" style="stroke:#181818;stroke-width:1.0;"/><line style="stroke:#181818;stroke-width:1.0;stroke-dasharray:2.0,2.0;" x1="601" x2="820.5" y1="323.748" y2="323.748"/><text fill="#000000" font-family="sans-serif" font-size="13" font-weight="bold" lengthAdjust="spacing" textLength="9" x="608" y="319.0059">4</text><text fill="#000000" font-family="sans-serif" font-size="13" lengthAdjust="spacing" textLength="59" x="621" y="319.0059">&#171;creates&#187;</text><polygon fill="#181818" points="1099.5,384.2129,1109.5,388.2129,1099.5,392.2129,1103.5,388.2129" style="stroke:#181818;stroke-width:1.0;"/><line style="stroke:#181818;stroke-width:1.0;" x1="601" x2="1105.5" y1="388.2129" y2="388.2129"/><text fill="#000000" font-family="sans-serif" font-size="13" font-weight="bold" lengthAdjust="spacing" textLength="9" x="608" y="383.4707">5</text><text fill="#000000" font-family="sans-serif" font-size="13" lengthAdjust="spacing" textLength="97" x="621" y="383.4707">findAllEntities()</text><polygon fill="#181818" points="612,413.5234,602,417.5234,612,421.5234,608,417.5234" style="stroke:#181818;stroke-width:1.0;"/><line style="stroke:#181818;stroke-width:1.0;stroke-dasharray:2.0,2.0;" x1="606" x2="1110.5" y1="417.5234" y2="417.5234"/><text fill="#000000" font-family="sans-serif" font-size="13" font-weight="bold" lengthAdjust="spacing" textLength="9" x="618" y="412.7813">6</text><text fill="#000000" font-family="sans-serif" font-size="13" lengthAdjust="spacing" textLength="162" x="631" y="412.7813">Iterable&lt;Sensor&gt; sensors</text><path d="M433.5,429.5234 L507.5,429.5234 L507.5,436.834 L497.5,446.834 L433.5,446.834 L433.5,429.5234 " fill="#EEEEEE" style="stroke:#000000;stroke-width:1.5;"/><rect fill="none" height="341.7266" style="stroke:#000000;stroke-width:1.5;" width="1149" x="433.5" y="429.5234"/><text fill="#000000" font-family="sans-serif" font-size="13" font-weight="bold" lengthAdjust="spacing" textLength="29" x="448.5" y="443.0918">loop</text><text fill="#000000" font-family="sans-serif" font-size="11" font-weight="bold" lengthAdjust="spacing" textLength="157" x="522.5" y="442.1582">[for each Sensor in sensors]</text><polygon fill="#181818" points="1234,474.1445,1244,478.1445,1234,482.1445,1238,478.1445" style="stroke:#181818;stroke-width:1.0;"/><line style="stroke:#181818;stroke-width:1.0;" x1="601" x2="1240" y1="478.1445" y2="478.1445"/><text fill="#000000" font-family="sans-serif" font-size="13" font-weight="bold" lengthAdjust="spacing" textLength="9" x="608" y="473.4023">7</text><text fill="#000000" font-family="sans-serif" font-size="13" lengthAdjust="spacing" textLength="166" x="621" y="473.4023">getSensorFunctionalityID()</text><polygon fill="#181818" points="612,503.4551,602,507.4551,612,511.4551,608,507.4551" style="stroke:#181818;stroke-width:1.0;"/><line style="stroke:#181818;stroke-width:1.0;stroke-dasharray:2.0,2.0;" x1="606" x2="1245" y1="507.4551" y2="507.4551"/><text fill="#000000" font-family="sans-serif" font-size="13" font-weight="bold" lengthAdjust="spacing" textLength="9" x="618" y="502.7129">8</text><text fill="#000000" font-family="sans-serif" font-size="13" lengthAdjust="spacing" textLength="280" x="631" y="502.7129">SensorFunctionalityID sensorFunctionalityID</text><polygon fill="#181818" points="1234,532.7656,1244,536.7656,1234,540.7656,1238,536.7656" style="stroke:#181818;stroke-width:1.0;"/><line style="stroke:#181818;stroke-width:1.0;" x1="601" x2="1240" y1="536.7656" y2="536.7656"/><text fill="#000000" font-family="sans-serif" font-size="13" font-weight="bold" lengthAdjust="spacing" textLength="9" x="608" y="532.0234">9</text><text fill="#000000" font-family="sans-serif" font-size="13" lengthAdjust="spacing" textLength="84" x="621" y="532.0234">getDeviceID()</text><polygon fill="#181818" points="612,562.0762,602,566.0762,612,570.0762,608,566.0762" style="stroke:#181818;stroke-width:1.0;"/><line style="stroke:#181818;stroke-width:1.0;stroke-dasharray:2.0,2.0;" x1="606" x2="1245" y1="566.0762" y2="566.0762"/><text fill="#000000" font-family="sans-serif" font-size="13" font-weight="bold" lengthAdjust="spacing" textLength="18" x="618" y="561.334">10</text><text fill="#000000" font-family="sans-serif" font-size="13" lengthAdjust="spacing" textLength="114" x="640" y="561.334">DeviceID deviceID</text><polygon fill="#181818" points="1367,591.3867,1377,595.3867,1367,599.3867,1371,595.3867" style="stroke:#181818;stroke-width:1.0;"/><line style="stroke:#181818;stroke-width:1.0;" x1="601" x2="1373" y1="595.3867" y2="595.3867"/><text fill="#000000" font-family="sans-serif" font-size="13" font-weight="bold" lengthAdjust="spacing" textLength="18" x="608" y="590.6445">11</text><text fill="#000000" font-family="sans-serif" font-size="13" lengthAdjust="spacing" textLength="151" x="630" y="590.6445">findEntityByID(deviceID)</text><polygon fill="#181818" points="612,620.6973,602,624.6973,612,628.6973,608,624.6973" style="stroke:#181818;stroke-width:1.0;"/><line style="stroke:#181818;stroke-width:1.0;stroke-dasharray:2.0,2.0;" x1="606" x2="1378" y1="624.6973" y2="624.6973"/><text fill="#000000" font-family="sans-serif" font-size="13" font-weight="bold" lengthAdjust="spacing" textLength="18" x="618" y="619.9551">12</text><text fill="#000000" font-family="sans-serif" font-size="13" lengthAdjust="spacing" textLength="86" x="640" y="619.9551">Device device</text><polygon fill="#181818" points="1497,650.0078,1507,654.0078,1497,658.0078,1501,654.0078" style="stroke:#181818;stroke-width:1.0;"/><line style="stroke:#181818;stroke-width:1.0;" x1="601" x2="1503" y1="654.0078" y2="654.0078"/><text fill="#000000" font-family="sans-serif" font-size="13" font-weight="bold" lengthAdjust="spacing" textLength="18" x="608" y="649.2656">13</text><text fill="#000000" font-family="sans-serif" font-size="13" lengthAdjust="spacing" textLength="78" x="630" y="649.2656">getRoomID()</text><polygon fill="#181818" points="612,679.3184,602,683.3184,612,687.3184,608,683.3184" style="stroke:#181818;stroke-width:1.0;"/><line style="stroke:#181818;stroke-width:1.0;stroke-dasharray:2.0,2.0;" x1="606" x2="1508" y1="683.3184" y2="683.3184"/><text fill="#000000" font-family="sans-serif" font-size="13" font-weight="bold" lengthAdjust="spacing" textLength="18" x="618" y="678.5762">14</text><text fill="#000000" font-family="sans-serif" font-size="13" lengthAdjust="spacing" textLength="101" x="640" y="678.5762">RoomID roomID</text><path d="M454.5,696.3184 L454.5,736.3184 L727.5,736.3184 L727.5,706.3184 L717.5,696.3184 L454.5,696.3184 " fill="#FEFFDD" style="stroke:#181818;stroke-width:0.5;"/><path d="M717.5,696.3184 L717.5,706.3184 L727.5,706.3184 L717.5,696.3184 " fill="#FEFFDD" style="stroke:#181818;stroke-width:0.5;"/><text fill="#000000" font-family="sans-serif" font-size="13" lengthAdjust="spacing" textLength="49" x="460.5" y="713.8867">On Step</text><text fill="#000000" font-family="sans-serif" font-size="13" font-weight="bold" lengthAdjust="spacing" textLength="18" x="513.5" y="713.8867">15</text><text fill="#000000" font-family="sans-serif" font-size="13" lengthAdjust="spacing" textLength="169" x="535.5" y="713.8867">make sure not to overwrite</text><text fill="#000000" font-family="sans-serif" font-size="13" lengthAdjust="spacing" textLength="248" x="464.5" y="729.1973">Map key and value if they already exist.</text><polygon fill="#181818" points="915,759.25,925,763.25,915,767.25,919,763.25" style="stroke:#181818;stroke-width:1.0;"/><line style="stroke:#181818;stroke-width:1.0;" x1="601" x2="921" y1="763.25" y2="763.25"/><text fill="#000000" font-family="sans-serif" font-size="13" font-weight="bold" lengthAdjust="spacing" textLength="18" x="608" y="758.5078">15</text><text fill="#000000" font-family="sans-serif" font-size="13" lengthAdjust="spacing" textLength="290" x="630" y="758.5078">add (sensorFunctionalityID, roomID, deviceID)</text><line style="stroke:#181818;stroke-width:1.0;stroke-dasharray:2.0,2.0;" x1="601" x2="643" y1="806.5605" y2="806.5605"/><line style="stroke:#181818;stroke-width:1.0;stroke-dasharray:2.0,2.0;" x1="643" x2="643" y1="806.5605" y2="819.5605"/><line style="stroke:#181818;stroke-width:1.0;stroke-dasharray:2.0,2.0;" x1="596" x2="643" y1="819.5605" y2="819.5605"/><polygon fill="#181818" points="606,815.5605,596,819.5605,606,823.5605,602,819.5605" style="stroke:#181818;stroke-width:1.0;"/><text fill="#000000" font-family="sans-serif" font-size="13" font-weight="bold" lengthAdjust="spacing" textLength="18" x="608" y="801.8184">16</text><text fill="#000000" font-family="sans-serif" font-size="13" lengthAdjust="spacing" textLength="99" x="630" y="801.8184">mainSensorMap</text><line style="stroke:#181818;stroke-width:1.0;" x1="596" x2="643" y1="848.8711" y2="848.8711"/><line style="stroke:#181818;stroke-width:1.0;" x1="643" x2="643" y1="848.8711" y2="861.8711"/><line style="stroke:#181818;stroke-width:1.0;" x1="602" x2="643" y1="861.8711" y2="861.8711"/><polygon fill="#181818" points="612,857.8711,602,861.8711,612,865.8711,608,861.8711" style="stroke:#181818;stroke-width:1.0;"/><text fill="#000000" font-family="sans-serif" font-size="13" font-weight="bold" lengthAdjust="spacing" textLength="18" x="608" y="844.1289">17</text><text fill="#000000" font-family="sans-serif" font-size="13" lengthAdjust="spacing" textLength="168" x="630" y="844.1289">actuatorFunctionalityMap()</text><rect fill="#E2E2F0" height="63.4648" rx="2.5" ry="2.5" style="stroke:#181818;stroke-width:0.5;" width="216" x="1576.5" y="869.8711"/><text fill="#000000" font-family="sans-serif" font-size="14" lengthAdjust="spacing" textLength="126" x="1621.5" y="890.4063">mainActuatorMap:</text><text fill="#000000" font-family="sans-serif" font-size="14" lengthAdjust="spacing" textLength="198" x="1583.5" y="906.8945">Map&lt;ActuatorFuntionalityID,</text><text fill="#000000" font-family="sans-serif" font-size="14" lengthAdjust="spacing" textLength="182" x="1593.5" y="923.3828">Map&lt;RoomID, DeviceID&gt;&gt;</text><polygon fill="#181818" points="1564.5,887.1816,1574.5,891.1816,1564.5,895.1816,1568.5,891.1816" style="stroke:#181818;stroke-width:1.0;"/><line style="stroke:#181818;stroke-width:1.0;stroke-dasharray:2.0,2.0;" x1="601" x2="1570.5" y1="891.1816" y2="891.1816"/><text fill="#000000" font-family="sans-serif" font-size="13" font-weight="bold" lengthAdjust="spacing" textLength="18" x="608" y="886.4395">18</text><text fill="#000000" font-family="sans-serif" font-size="13" lengthAdjust="spacing" textLength="59" x="630" y="886.4395">&#171;creates&#187;</text><polygon fill="#181818" points="1860.5,951.6465,1870.5,955.6465,1860.5,959.6465,1864.5,955.6465" style="stroke:#181818;stroke-width:1.0;"/><line style="stroke:#181818;stroke-width:1.0;" x1="601" x2="1866.5" y1="955.6465" y2="955.6465"/><text fill="#000000" font-family="sans-serif" font-size="13" font-weight="bold" lengthAdjust="spacing" textLength="18" x="608" y="950.9043">19</text><text fill="#000000" font-family="sans-serif" font-size="13" lengthAdjust="spacing" textLength="97" x="630" y="950.9043">findAllEntities()</text><polygon fill="#181818" points="612,980.957,602,984.957,612,988.957,608,984.957" style="stroke:#181818;stroke-width:1.0;"/><line style="stroke:#181818;stroke-width:1.0;stroke-dasharray:2.0,2.0;" x1="606" x2="1871.5" y1="984.957" y2="984.957"/><text fill="#000000" font-family="sans-serif" font-size="13" font-weight="bold" lengthAdjust="spacing" textLength="18" x="618" y="980.2148">20</text><text fill="#000000" font-family="sans-serif" font-size="13" lengthAdjust="spacing" textLength="184" x="640" y="980.2148">Iterable&lt;Actuator&gt; actuators</text><path d="M433.5,996.957 L507.5,996.957 L507.5,1004.2676 L497.5,1014.2676 L433.5,1014.2676 L433.5,996.957 " fill="#EEEEEE" style="stroke:#000000;stroke-width:1.5;"/><rect fill="none" height="341.7266" style="stroke:#000000;stroke-width:1.5;" width="1679" x="433.5" y="996.957"/><text fill="#000000" font-family="sans-serif" font-size="13" font-weight="bold" lengthAdjust="spacing" textLength="29" x="448.5" y="1010.5254">loop</text><text fill="#000000" font-family="sans-serif" font-size="11" font-weight="bold" lengthAdjust="spacing" textLength="175" x="522.5" y="1009.5918">[for each Actuator in actuators]</text><polygon fill="#181818" points="2012.5,1041.5781,2022.5,1045.5781,2012.5,1049.5781,2016.5,1045.5781" style="stroke:#181818;stroke-width:1.0;"/><line style="stroke:#181818;stroke-width:1.0;" x1="601" x2="2018.5" y1="1045.5781" y2="1045.5781"/><text fill="#000000" font-family="sans-serif" font-size="13" font-weight="bold" lengthAdjust="spacing" textLength="18" x="608" y="1040.8359">21</text><text fill="#000000" font-family="sans-serif" font-size="13" lengthAdjust="spacing" textLength="178" x="630" y="1040.8359">getActuatorFunctionalityID()</text><polygon fill="#181818" points="612,1070.8887,602,1074.8887,612,1078.8887,608,1074.8887" style="stroke:#181818;stroke-width:1.0;"/><line style="stroke:#181818;stroke-width:1.0;stroke-dasharray:2.0,2.0;" x1="606" x2="2023.5" y1="1074.8887" y2="1074.8887"/><text fill="#000000" font-family="sans-serif" font-size="13" font-weight="bold" lengthAdjust="spacing" textLength="18" x="618" y="1070.1465">22</text><text fill="#000000" font-family="sans-serif" font-size="13" lengthAdjust="spacing" textLength="302" x="640" y="1070.1465">ActuatorFunctionalityID actuatorFunctionalityID</text><polygon fill="#181818" points="2012.5,1100.1992,2022.5,1104.1992,2012.5,1108.1992,2016.5,1104.1992" style="stroke:#181818;stroke-width:1.0;"/><line style="stroke:#181818;stroke-width:1.0;" x1="601" x2="2018.5" y1="1104.1992" y2="1104.1992"/><text fill="#000000" font-family="sans-serif" font-size="13" font-weight="bold" lengthAdjust="spacing" textLength="18" x="608" y="1099.457">23</text><text fill="#000000" font-family="sans-serif" font-size="13" lengthAdjust="spacing" textLength="84" x="630" y="1099.457">getDeviceID()</text><polygon fill="#181818" points="612,1129.5098,602,1133.5098,612,1137.5098,608,1133.5098" style="stroke:#181818;stroke-width:1.0;"/><line style="stroke:#181818;stroke-width:1.0;stroke-dasharray:2.0,2.0;" x1="606" x2="2023.5" y1="1133.5098" y2="1133.5098"/><text fill="#000000" font-family="sans-serif" font-size="13" font-weight="bold" lengthAdjust="spacing" textLength="18" x="618" y="1128.7676">24</text><text fill="#000000" font-family="sans-serif" font-size="13" lengthAdjust="spacing" textLength="114" x="640" y="1128.7676">DeviceID deviceID</text><polygon fill="#181818" points="1367,1158.8203,1377,1162.8203,1367,1166.8203,1371,1162.8203" style="stroke:#181818;stroke-width:1.0;"/><line style="stroke:#181818;stroke-width:1.0;" x1="601" x2="1373" y1="1162.8203" y2="1162.8203"/><text fill="#000000" font-family="sans-serif" font-size="13" font-weight="bold" lengthAdjust="spacing" textLength="18" x="608" y="1158.0781">25</text><text fill="#000000" font-family="sans-serif" font-size="13" lengthAdjust="spacing" textLength="151" x="630" y="1158.0781">findEntityByID(deviceID)</text><polygon fill="#181818" points="612,1188.1309,602,1192.1309,612,1196.1309,608,1192.1309" style="stroke:#181818;stroke-width:1.0;"/><line style="stroke:#181818;stroke-width:1.0;stroke-dasharray:2.0,2.0;" x1="606" x2="1378" y1="1192.1309" y2="1192.1309"/><text fill="#000000" font-family="sans-serif" font-size="13" font-weight="bold" lengthAdjust="spacing" textLength="18" x="618" y="1187.3887">26</text><text fill="#000000" font-family="sans-serif" font-size="13" lengthAdjust="spacing" textLength="86" x="640" y="1187.3887">Device device</text><polygon fill="#181818" points="1497,1217.4414,1507,1221.4414,1497,1225.4414,1501,1221.4414" style="stroke:#181818;stroke-width:1.0;"/><line style="stroke:#181818;stroke-width:1.0;" x1="601" x2="1503" y1="1221.4414" y2="1221.4414"/><text fill="#000000" font-family="sans-serif" font-size="13" font-weight="bold" lengthAdjust="spacing" textLength="18" x="608" y="1216.6992">27</text><text fill="#000000" font-family="sans-serif" font-size="13" lengthAdjust="spacing" textLength="78" x="630" y="1216.6992">getRoomID()</text><polygon fill="#181818" points="612,1246.752,602,1250.752,612,1254.752,608,1250.752" style="stroke:#181818;stroke-width:1.0;"/><line style="stroke:#181818;stroke-width:1.0;stroke-dasharray:2.0,2.0;" x1="606" x2="1508" y1="1250.752" y2="1250.752"/><text fill="#000000" font-family="sans-serif" font-size="13" font-weight="bold" lengthAdjust="spacing" textLength="18" x="618" y="1246.0098">28</text><text fill="#000000" font-family="sans-serif" font-size="13" lengthAdjust="spacing" textLength="101" x="640" y="1246.0098">RoomID roomID</text><path d="M454.5,1263.752 L454.5,1303.752 L727.5,1303.752 L727.5,1273.752 L717.5,1263.752 L454.5,1263.752 " fill="#FEFFDD" style="stroke:#181818;stroke-width:0.5;"/><path d="M717.5,1263.752 L717.5,1273.752 L727.5,1273.752 L717.5,1263.752 " fill="#FEFFDD" style="stroke:#181818;stroke-width:0.5;"/><text fill="#000000" font-family="sans-serif" font-size="13" lengthAdjust="spacing" textLength="49" x="460.5" y="1281.3203">On Step</text><text fill="#000000" font-family="sans-serif" font-size="13" font-weight="bold" lengthAdjust="spacing" textLength="18" x="513.5" y="1281.3203">29</text><text fill="#000000" font-family="sans-serif" font-size="13" lengthAdjust="spacing" textLength="169" x="535.5" y="1281.3203">make sure not to overwrite</text><text fill="#000000" font-family="sans-serif" font-size="13" lengthAdjust="spacing" textLength="248" x="464.5" y="1296.6309">Map key and value if they already exist.</text><polygon fill="#181818" points="1667.5,1326.6836,1677.5,1330.6836,1667.5,1334.6836,1671.5,1330.6836" style="stroke:#181818;stroke-width:1.0;"/><line style="stroke:#181818;stroke-width:1.0;" x1="601" x2="1673.5" y1="1330.6836" y2="1330.6836"/><text fill="#000000" font-family="sans-serif" font-size="13" font-weight="bold" lengthAdjust="spacing" textLength="18" x="608" y="1325.9414">29</text><text fill="#000000" font-family="sans-serif" font-size="13" lengthAdjust="spacing" textLength="300" x="630" y="1325.9414">add (actuatorFunctionalityID, roomID, deviceID)</text><line style="stroke:#181818;stroke-width:1.0;stroke-dasharray:2.0,2.0;" x1="601" x2="643" y1="1373.9941" y2="1373.9941"/><line style="stroke:#181818;stroke-width:1.0;stroke-dasharray:2.0,2.0;" x1="643" x2="643" y1="1373.9941" y2="1386.9941"/><line style="stroke:#181818;stroke-width:1.0;stroke-dasharray:2.0,2.0;" x1="596" x2="643" y1="1386.9941" y2="1386.9941"/><polygon fill="#181818" points="606,1382.9941,596,1386.9941,606,1390.9941,602,1386.9941" style="stroke:#181818;stroke-width:1.0;"/><text fill="#000000" font-family="sans-serif" font-size="13" font-weight="bold" lengthAdjust="spacing" textLength="18" x="608" y="1369.252">30</text><text fill="#000000" font-family="sans-serif" font-size="13" lengthAdjust="spacing" textLength="111" x="630" y="1369.252">mainActuatorMap</text><rect fill="#E2E2F0" height="46.9766" rx="2.5" ry="2.5" style="stroke:#181818;stroke-width:0.5;" width="196" x="2106.5" y="1394.9941"/><text fill="#000000" font-family="sans-serif" font-size="14" lengthAdjust="spacing" textLength="155" x="2125" y="1415.5293">mainMap:Map&lt;Object,</text><text fill="#000000" font-family="sans-serif" font-size="14" lengthAdjust="spacing" textLength="182" x="2113.5" y="1432.0176">Map&lt;RoomID, DeviceID&gt;&gt;</text><polygon fill="#181818" points="2094.5,1412.3047,2104.5,1416.3047,2094.5,1420.3047,2098.5,1416.3047" style="stroke:#181818;stroke-width:1.0;"/><line style="stroke:#181818;stroke-width:1.0;stroke-dasharray:2.0,2.0;" x1="596" x2="2100.5" y1="1416.3047" y2="1416.3047"/><text fill="#000000" font-family="sans-serif" font-size="13" font-weight="bold" lengthAdjust="spacing" textLength="18" x="603" y="1411.5625">31</text><text fill="#000000" font-family="sans-serif" font-size="13" lengthAdjust="spacing" textLength="59" x="625" y="1411.5625">&#171;creates&#187;</text><polygon fill="#181818" points="2187.5,1460.2813,2197.5,1464.2813,2187.5,1468.2813,2191.5,1464.2813" style="stroke:#181818;stroke-width:1.0;"/><line style="stroke:#181818;stroke-width:1.0;" x1="596" x2="2193.5" y1="1464.2813" y2="1464.2813"/><text fill="#000000" font-family="sans-serif" font-size="13" font-weight="bold" lengthAdjust="spacing" textLength="18" x="603" y="1459.5391">32</text><text fill="#000000" font-family="sans-serif" font-size="13" lengthAdjust="spacing" textLength="145" x="625" y="1459.5391">putAll(mainSensorMap)</text><polygon fill="#181818" points="2187.5,1489.5918,2197.5,1493.5918,2187.5,1497.5918,2191.5,1493.5918" style="stroke:#181818;stroke-width:1.0;"/><line style="stroke:#181818;stroke-width:1.0;" x1="596" x2="2193.5" y1="1493.5918" y2="1493.5918"/><text fill="#000000" font-family="sans-serif" font-size="13" font-weight="bold" lengthAdjust="spacing" textLength="18" x="603" y="1488.8496">33</text><text fill="#000000" font-family="sans-serif" font-size="13" lengthAdjust="spacing" textLength="157" x="625" y="1488.8496">putAll(mainActuatorMap)</text><polygon fill="#181818" points="269,1518.9023,259,1522.9023,269,1526.9023,265,1522.9023" style="stroke:#181818;stroke-width:1.0;"/><line style="stroke:#181818;stroke-width:1.0;stroke-dasharray:2.0,2.0;" x1="263" x2="585" y1="1522.9023" y2="1522.9023"/><text fill="#000000" font-family="sans-serif" font-size="13" font-weight="bold" lengthAdjust="spacing" textLength="18" x="275" y="1518.1602">34</text><text fill="#000000" font-family="sans-serif" font-size="13" lengthAdjust="spacing" textLength="57" x="297" y="1518.1602">mainMap</text><rect fill="none" height="39.4434" style="stroke:#000000;stroke-width:1.5;" width="349" x="434.5" y="1530.9023"/><path d="M434.5,1530.9023 L498.5,1530.9023 L498.5,1537.9023 L488.5,1547.9023 L434.5,1547.9023 L434.5,1530.9023 " fill="#EEEEEE" style="stroke:#000000;stroke-width:2.0;"/><text fill="#000000" font-family="sans-serif" font-size="13" font-weight="bold" lengthAdjust="spacing" textLength="19" x="447.5" y="1545.4707">ref</text><text fill="#000000" font-family="sans-serif" font-size="12" lengthAdjust="spacing" textLength="341" x="438.5" y="1563.5039">UC09-SD_Part2-ListAllDevicesInHouseByFunctionality.puml]</text><!--SRC=[xLXBRzj64BxpLqpJWvp0bXEtEPWm1D0IhH2GHO6a0WH9KAp8bSsQvBBBfHtrrtUMB_6fCaMGKo-IDOzlPsPdljtrv568E54lB-E0H28DWwdBmik4_fNIoAKNdayUE0aLuOk0mjP-UmqNe2L0OCDUA8TjWX-V6GVD2_t8JmGdWl6lvs302-A1OF101Pe7g0Es1n84uD5dtwK9-14g7bcQq7Duu2oDgGUxGw66VHgvmcSH2Nnn0768QJ85Gq2O8f8VkK7gqT8sO2wHjbEu9uYQf2xY9-2IX2eAIGMBqd17kQBy4dFo418GbFqDWgUeth5ly0fkRknqPnyIGSFPx4i4A9YpI20QvRa0GBqbxXEDF3J_TK7uqvBJG-K-Ps7C8Xg9ojgc_9boj5tv3uyYCuu95xxhnx8qhzGLraGBWaLU3YFw84jnUxYh9ow3u2m89119iXsO2nxy1oGP3cepc4nV29fG8MPiqoXX_9x4wfS8Fs_otmqmOt4EkT9YB9I_yhMDnMoMhT30QKMRooqQiyJ7RZba3crXqoV9j8LdpRw5d0VHGcuBcpvv1nMUDVjkMJHNfBAxZuKf9LYQxwjC3QgLGQbfvT0LD_r8eQ_y6rxTN6GECaPpzoTrnOY8PQIozR7TgszbOkjpnp3Ny4w5kRPQWMF2t5mxbhbQwHPewqNz9ofjtVfepFM9yfbTpAfcLYL7o1OszqK7jrhtxBM22VhFHD3Z19H_02BL-raj-MMPKqeBIukyLS4MTTZ6H4nqZBp8RL9Byqe5mz4jpT71-M2Ps-K7j5hRfcLdkIvHjAaajv_WRhlE7BMLuNoQAFKrkb4dtId3ecECaapwuvIQ9YYYDYRlpHiLkSdb57sJsQp7OzQPF1NsVkGXdUZOrSAdIJk6pgXARLkOnTBCq12Karr02qAP5IadcRz7J-CVDs6AtROopOsnNbRRe6lpSYyccNd0M0nxF9WGzh50b0TEVSdXOcGTsKjxHIrwwb79YyMw-VS2zksxiHWJNpcbjP06bovjYzceBT2f- -3IRHxD-oHhaiEjB4s9tLEY3WUN5ct5OEn5v7rn3uBtPv0LBwUwiy5GMm7sX9KZ0C- -XiEgD1536SCRGGl7ZC0MD8QRtUpT-vlBdPpW9uft64wbZxn2IQyNxWkADmiSQdYY1o18miyaI2duUn2FKXBWc7i7eD-GIgU3HMYUy40y3ywI_XEU5-V1YOrjdlCzLUWQuF6XT5YhMPEcKmrj54t_rgLfRUviDUV743Kvdle_WAfhLu4nPDsz2FmhNVVS7QI-Apv5sQNrh4g_Gzi3wnotPP2uoztfe-uIDNijD9O-LPvinhM-ZUeV-kgcL6ggPRir6O3jxuiJLDw8jOVCJuGmYiuxEVrFw3-RqA-kVnAXrzycEQKFTEDeKgy_KGPelMqoajZhRjzBxR-hSAzRIxqWxupDI_Q0UssJy_jcwu1yZYmqHmDZZG-FUyrOI_r4wINXaUHRlfmWJkLp-wnnJBLOjtmqZGQgbUMrqbFj36oeBk-nVNLdQwshJ5jliJki3_xyg5ksj4VbmZ5xgd5yavLhZjmYJlTzmx2Tlxs-i1T_RF05UdKnvlyKqpWDWw__0000]--></g></svg>