<?xml version="1.0" encoding="us-ascii" standalone="no"?><svg xmlns="http://www.w3.org/2000/svg" xmlns:xlink="http://www.w3.org/1999/xlink" contentStyleType="text/css" height="1040px" preserveAspectRatio="none" style="width:2452px;height:1040px;background:#FFFFFF;" version="1.1" viewBox="0 0 2452 1040" width="2452px" zoomAndPan="magnify"><defs/><g><rect fill="#A9A9A9" height="991.3789" style="stroke:#181818;stroke-width:0.5;" width="2373" x="11" y="43.4883"/><text fill="#000000" font-family="sans-serif" font-size="13" font-weight="bold" lengthAdjust="spacing" textLength="87" x="1156" y="56.0566">&#171;SubSystem&#187;</text><text fill="#000000" font-family="sans-serif" font-size="13" font-weight="bold" lengthAdjust="spacing" textLength="80" x="1160" y="71.3672">&#171;Container&#187;</text><text fill="#000000" font-family="sans-serif" font-size="13" font-weight="bold" lengthAdjust="spacing" textLength="60" x="1168" y="86.6777">:Backend</text><rect fill="#D3D3D3" height="940.4473" style="stroke:#181818;stroke-width:0.5;" width="2373" x="11" y="94.4199"/><text fill="#000000" font-family="sans-serif" font-size="13" font-weight="bold" lengthAdjust="spacing" textLength="92" x="1153.5" y="106.9883">&#171;Component&#187;</text><text fill="#000000" font-family="sans-serif" font-size="13" font-weight="bold" lengthAdjust="spacing" textLength="46" x="1165.5" y="122.2988">:Server</text><text fill="#000000" font-family="sans-serif" font-size="14" font-weight="bold" lengthAdjust="spacing" textLength="1282" x="588.5" y="28.5352">US09 - As a Power User [or Administrator], I want to get a list of all devices in a house, grouped by device functionality types. It must include device location. Main success case</text><line style="stroke:#181818;stroke-width:0.5;stroke-dasharray:5.0,5.0;" x1="184.5" x2="184.5" y1="177.0176" y2="980.8906"/><rect fill="#FFFFFF" height="761.5625" style="stroke:#181818;stroke-width:1.0;" width="10" x="179.5" y="185.0176"/><line style="stroke:#181818;stroke-width:0.5;stroke-dasharray:5.0,5.0;" x1="560.5" x2="560.5" y1="185.0176" y2="980.8906"/><rect fill="#FFFFFF" height="538.0117" style="stroke:#181818;stroke-width:1.0;" width="10" x="555.5" y="442.8789"/><line style="stroke:#181818;stroke-width:0.5;stroke-dasharray:5.0,5.0;" x1="811.5" x2="811.5" y1="216.5059" y2="980.8906"/><rect fill="#FFFFFF" height="429.7695" style="stroke:#181818;stroke-width:1.0;" width="10" x="806.5" y="551.1211"/><line style="stroke:#181818;stroke-width:0.5;stroke-dasharray:5.0,5.0;" x1="1009" x2="1009" y1="247.9941" y2="980.8906"/><rect fill="#FFFFFF" height="273.1953" style="stroke:#181818;stroke-width:1.0;" width="10" x="1004" y="707.6953"/><line style="stroke:#181818;stroke-width:0.5;stroke-dasharray:5.0,5.0;" x1="1161" x2="1161" y1="279.4824" y2="980.8906"/><rect fill="#FFFFFF" height="195.9082" style="stroke:#181818;stroke-width:1.0;" width="10" x="1156" y="784.9824"/><line style="stroke:#181818;stroke-width:0.5;stroke-dasharray:5.0,5.0;" x1="1403" x2="1403" y1="310.9707" y2="980.8906"/><line style="stroke:#181818;stroke-width:0.5;stroke-dasharray:5.0,5.0;" x1="1669.5" x2="1669.5" y1="450.8789" y2="980.8906"/><line style="stroke:#181818;stroke-width:0.5;stroke-dasharray:5.0,5.0;" x1="1867" x2="1867" y1="559.1211" y2="980.8906"/><line style="stroke:#181818;stroke-width:0.5;stroke-dasharray:5.0,5.0;" x1="2076" x2="2076" y1="607.0977" y2="980.8906"/><line style="stroke:#181818;stroke-width:0.5;stroke-dasharray:5.0,5.0;" x1="2236.5" x2="2236.5" y1="715.6953" y2="980.8906"/><line style="stroke:#181818;stroke-width:0.5;stroke-dasharray:5.0,5.0;" x1="2334.5" x2="2334.5" y1="792.9824" y2="980.8906"/><rect fill="#E2E2F0" height="30.4883" rx="2.5" ry="2.5" style="stroke:#181818;stroke-width:0.5;" width="339" x="15" y="145.5293"/><text fill="#000000" font-family="sans-serif" font-size="14" lengthAdjust="spacing" textLength="325" x="22" y="166.0645">:ListAllDevicesInHouseByFunctionalityController</text><rect fill="#E2E2F0" height="30.4883" rx="2.5" ry="2.5" style="stroke:#181818;stroke-width:0.5;" width="339" x="15" y="980.8906"/><text fill="#000000" font-family="sans-serif" font-size="14" lengthAdjust="spacing" textLength="325" x="22" y="1001.4258">:ListAllDevicesInHouseByFunctionalityController</text><rect fill="#E2E2F0" height="30.4883" rx="2.5" ry="2.5" style="stroke:#181818;stroke-width:0.5;" width="247" x="437" y="980.8906"/><text fill="#000000" font-family="sans-serif" font-size="14" lengthAdjust="spacing" textLength="233" x="444" y="1001.4258">:ActuatorFunctionalityMapperDTO</text><rect fill="#E2E2F0" height="30.4883" rx="2.5" ry="2.5" style="stroke:#181818;stroke-width:0.5;" width="235" x="694" y="980.8906"/><text fill="#000000" font-family="sans-serif" font-size="14" lengthAdjust="spacing" textLength="221" x="701" y="1001.4258">:SensorFunctionalityMapperDTO</text><rect fill="#E2E2F0" height="30.4883" rx="2.5" ry="2.5" style="stroke:#181818;stroke-width:0.5;" width="140" x="939" y="980.8906"/><text fill="#000000" font-family="sans-serif" font-size="14" lengthAdjust="spacing" textLength="126" x="946" y="1001.4258">:RoomMapperDTO</text><rect fill="#E2E2F0" height="30.4883" rx="2.5" ry="2.5" style="stroke:#181818;stroke-width:0.5;" width="144" x="1089" y="980.8906"/><text fill="#000000" font-family="sans-serif" font-size="14" lengthAdjust="spacing" textLength="130" x="1096" y="1001.4258">:DeviceMapperDTO</text><rect fill="#E2E2F0" height="46.9766" rx="2.5" ry="2.5" style="stroke:#181818;stroke-width:0.5;" width="320" x="1243" y="980.8906"/><text fill="#000000" font-family="sans-serif" font-size="14" lengthAdjust="spacing" textLength="124" x="1341" y="1001.4258">mapDTOGrouped:</text><text fill="#000000" font-family="sans-serif" font-size="14" lengthAdjust="spacing" textLength="306" x="1250" y="1017.9141">Map&lt;Object, Map&lt;RoomDTO, DeviceDTO&gt;&gt;</text><rect fill="#E2E2F0" height="46.9766" rx="2.5" ry="2.5" style="stroke:#181818;stroke-width:0.5;" width="193" x="1573" y="980.8906"/><text fill="#000000" font-family="sans-serif" font-size="14" lengthAdjust="spacing" textLength="179" x="1580" y="1001.4258">actuatorFunctionalityDTO:</text><text fill="#000000" font-family="sans-serif" font-size="14" lengthAdjust="spacing" textLength="177" x="1581" y="1017.9141">ActuatorFunctionalityDTO</text><rect fill="#E2E2F0" height="46.9766" rx="2.5" ry="2.5" style="stroke:#181818;stroke-width:0.5;" width="182" x="1776" y="980.8906"/><text fill="#000000" font-family="sans-serif" font-size="14" lengthAdjust="spacing" textLength="168" x="1783" y="1001.4258">sensorFunctionalityDTO:</text><text fill="#000000" font-family="sans-serif" font-size="14" lengthAdjust="spacing" textLength="165" x="1784.5" y="1017.9141">SensorFunctionalityDTO</text><rect fill="#E2E2F0" height="46.9766" rx="2.5" ry="2.5" style="stroke:#181818;stroke-width:0.5;" width="216" x="1968" y="980.8906"/><text fill="#000000" font-family="sans-serif" font-size="14" lengthAdjust="spacing" textLength="202" x="1975" y="1001.4258">roomDTOAndDeviceDTOMap:</text><text fill="#000000" font-family="sans-serif" font-size="14" lengthAdjust="spacing" textLength="171" x="1990.5" y="1017.9141">Map&lt;RoomID, DeviceID&gt;</text><rect fill="#E2E2F0" height="46.9766" rx="2.5" ry="2.5" style="stroke:#181818;stroke-width:0.5;" width="85" x="2194" y="980.8906"/><text fill="#000000" font-family="sans-serif" font-size="14" lengthAdjust="spacing" textLength="71" x="2201" y="1001.4258">roomDTO:</text><text fill="#000000" font-family="sans-serif" font-size="14" lengthAdjust="spacing" textLength="70" x="2201.5" y="1017.9141">RoomDTO</text><rect fill="#E2E2F0" height="46.9766" rx="2.5" ry="2.5" style="stroke:#181818;stroke-width:0.5;" width="91" x="2289" y="980.8906"/><text fill="#000000" font-family="sans-serif" font-size="14" lengthAdjust="spacing" textLength="77" x="2296" y="1001.4258">deviceDTO:</text><text fill="#000000" font-family="sans-serif" font-size="14" lengthAdjust="spacing" textLength="74" x="2297.5" y="1017.9141">DeviceDTO</text><rect fill="#E2E2F0" height="30.4883" rx="2.5" ry="2.5" style="stroke:#181818;stroke-width:0.5;" width="247" x="437" y="185.0176"/><text fill="#000000" font-family="sans-serif" font-size="14" lengthAdjust="spacing" textLength="233" x="444" y="205.5527">:ActuatorFunctionalityMapperDTO</text><polygon fill="#181818" points="425,202.3281,435,206.3281,425,210.3281,429,206.3281" style="stroke:#181818;stroke-width:1.0;"/><line style="stroke:#181818;stroke-width:1.0;stroke-dasharray:2.0,2.0;" x1="189.5" x2="431" y1="206.3281" y2="206.3281"/><text fill="#000000" font-family="sans-serif" font-size="13" font-weight="bold" lengthAdjust="spacing" textLength="9" x="196.5" y="201.5859">1</text><text fill="#000000" font-family="sans-serif" font-size="13" lengthAdjust="spacing" textLength="59" x="209.5" y="201.5859">&#171;creates&#187;</text><rect fill="#E2E2F0" height="30.4883" rx="2.5" ry="2.5" style="stroke:#181818;stroke-width:0.5;" width="235" x="694" y="216.5059"/><text fill="#000000" font-family="sans-serif" font-size="14" lengthAdjust="spacing" textLength="221" x="701" y="237.041">:SensorFunctionalityMapperDTO</text><polygon fill="#181818" points="682,233.8164,692,237.8164,682,241.8164,686,237.8164" style="stroke:#181818;stroke-width:1.0;"/><line style="stroke:#181818;stroke-width:1.0;stroke-dasharray:2.0,2.0;" x1="189.5" x2="688" y1="237.8164" y2="237.8164"/><text fill="#000000" font-family="sans-serif" font-size="13" font-weight="bold" lengthAdjust="spacing" textLength="9" x="196.5" y="233.0742">2</text><text fill="#000000" font-family="sans-serif" font-size="13" lengthAdjust="spacing" textLength="59" x="209.5" y="233.0742">&#171;creates&#187;</text><rect fill="#E2E2F0" height="30.4883" rx="2.5" ry="2.5" style="stroke:#181818;stroke-width:0.5;" width="140" x="939" y="247.9941"/><text fill="#000000" font-family="sans-serif" font-size="14" lengthAdjust="spacing" textLength="126" x="946" y="268.5293">:RoomMapperDTO</text><polygon fill="#181818" points="927,265.3047,937,269.3047,927,273.3047,931,269.3047" style="stroke:#181818;stroke-width:1.0;"/><line style="stroke:#181818;stroke-width:1.0;stroke-dasharray:2.0,2.0;" x1="189.5" x2="933" y1="269.3047" y2="269.3047"/><text fill="#000000" font-family="sans-serif" font-size="13" font-weight="bold" lengthAdjust="spacing" textLength="9" x="196.5" y="264.5625">3</text><text fill="#000000" font-family="sans-serif" font-size="13" lengthAdjust="spacing" textLength="59" x="209.5" y="264.5625">&#171;creates&#187;</text><rect fill="#E2E2F0" height="30.4883" rx="2.5" ry="2.5" style="stroke:#181818;stroke-width:0.5;" width="144" x="1089" y="279.4824"/><text fill="#000000" font-family="sans-serif" font-size="14" lengthAdjust="spacing" textLength="130" x="1096" y="300.0176">:DeviceMapperDTO</text><polygon fill="#181818" points="1077,296.793,1087,300.793,1077,304.793,1081,300.793" style="stroke:#181818;stroke-width:1.0;"/><line style="stroke:#181818;stroke-width:1.0;stroke-dasharray:2.0,2.0;" x1="189.5" x2="1083" y1="300.793" y2="300.793"/><text fill="#000000" font-family="sans-serif" font-size="13" font-weight="bold" lengthAdjust="spacing" textLength="9" x="196.5" y="296.0508">4</text><text fill="#000000" font-family="sans-serif" font-size="13" lengthAdjust="spacing" textLength="59" x="209.5" y="296.0508">&#171;creates&#187;</text><rect fill="#E2E2F0" height="46.9766" rx="2.5" ry="2.5" style="stroke:#181818;stroke-width:0.5;" width="320" x="1243" y="310.9707"/><text fill="#000000" font-family="sans-serif" font-size="14" lengthAdjust="spacing" textLength="124" x="1341" y="331.5059">mapDTOGrouped:</text><text fill="#000000" font-family="sans-serif" font-size="14" lengthAdjust="spacing" textLength="306" x="1250" y="347.9941">Map&lt;Object, Map&lt;RoomDTO, DeviceDTO&gt;&gt;</text><polygon fill="#181818" points="1231,328.2813,1241,332.2813,1231,336.2813,1235,332.2813" style="stroke:#181818;stroke-width:1.0;"/><line style="stroke:#181818;stroke-width:1.0;stroke-dasharray:2.0,2.0;" x1="189.5" x2="1237" y1="332.2813" y2="332.2813"/><text fill="#000000" font-family="sans-serif" font-size="13" font-weight="bold" lengthAdjust="spacing" textLength="9" x="196.5" y="327.5391">5</text><text fill="#000000" font-family="sans-serif" font-size="13" lengthAdjust="spacing" textLength="59" x="209.5" y="327.5391">&#171;creates&#187;</text><path d="M130.5,362.9473 L204.5,362.9473 L204.5,370.2578 L194.5,380.2578 L130.5,380.2578 L130.5,362.9473 " fill="#EEEEEE" style="stroke:#000000;stroke-width:1.5;"/><rect fill="none" height="564.6328" style="stroke:#000000;stroke-width:1.5;" width="2315.5" x="130.5" y="362.9473"/><text fill="#000000" font-family="sans-serif" font-size="13" font-weight="bold" lengthAdjust="spacing" textLength="29" x="145.5" y="376.5156">loop</text><text fill="#000000" font-family="sans-serif" font-size="11" font-weight="bold" lengthAdjust="spacing" textLength="156" x="219.5" y="375.582">[for each entry in mainMap]</text><path d="M149.5,394.2578 L211.5,394.2578 L211.5,401.5684 L201.5,411.5684 L149.5,411.5684 L149.5,394.2578 " fill="#EEEEEE" style="stroke:#000000;stroke-width:1.5;"/><rect fill="none" height="519.3223" style="stroke:#000000;stroke-width:1.5;" width="2271.5" x="149.5" y="394.2578"/><text fill="#000000" font-family="sans-serif" font-size="13" font-weight="bold" lengthAdjust="spacing" textLength="17" x="164.5" y="407.8262">alt</text><text fill="#000000" font-family="sans-serif" font-size="11" font-weight="bold" lengthAdjust="spacing" textLength="290" x="226.5" y="406.8926">[if Object is an instance of ActuatorFunctionalityID]</text><line style="stroke:#000000;stroke-width:1.0;stroke-dasharray:2.0,2.0;" x1="149.5" x2="2421" y1="509.8555" y2="509.8555"/><text fill="#000000" font-family="sans-serif" font-size="11" font-weight="bold" lengthAdjust="spacing" textLength="280" x="154.5" y="522.4902">[if Object is an instance of SensorFunctionalityID]</text><polygon fill="#181818" points="543.5,438.8789,553.5,442.8789,543.5,446.8789,547.5,442.8789" style="stroke:#181818;stroke-width:1.0;"/><line style="stroke:#181818;stroke-width:1.0;" x1="189.5" x2="549.5" y1="442.8789" y2="442.8789"/><text fill="#000000" font-family="sans-serif" font-size="13" font-weight="bold" lengthAdjust="spacing" textLength="9" x="196.5" y="438.1367">6</text><text fill="#000000" font-family="sans-serif" font-size="13" lengthAdjust="spacing" textLength="334" x="209.5" y="438.1367">actuatorFunctionalityToDTO(actuatorFunctionalityID)</text><rect fill="#E2E2F0" height="46.9766" rx="2.5" ry="2.5" style="stroke:#181818;stroke-width:0.5;" width="193" x="1573" y="450.8789"/><text fill="#000000" font-family="sans-serif" font-size="14" lengthAdjust="spacing" textLength="179" x="1580" y="471.4141">actuatorFunctionalityDTO:</text><text fill="#000000" font-family="sans-serif" font-size="14" lengthAdjust="spacing" textLength="177" x="1581" y="487.9023">ActuatorFunctionalityDTO</text><polygon fill="#181818" points="1561,468.1895,1571,472.1895,1561,476.1895,1565,472.1895" style="stroke:#181818;stroke-width:1.0;"/><line style="stroke:#181818;stroke-width:1.0;stroke-dasharray:2.0,2.0;" x1="565.5" x2="1567" y1="472.1895" y2="472.1895"/><text fill="#000000" font-family="sans-serif" font-size="13" font-weight="bold" lengthAdjust="spacing" textLength="9" x="572.5" y="467.4473">7</text><text fill="#000000" font-family="sans-serif" font-size="13" lengthAdjust="spacing" textLength="59" x="585.5" y="467.4473">&#171;creates&#187;</text><polygon fill="#181818" points="794.5,547.1211,804.5,551.1211,794.5,555.1211,798.5,551.1211" style="stroke:#181818;stroke-width:1.0;"/><line style="stroke:#181818;stroke-width:1.0;" x1="189.5" x2="800.5" y1="551.1211" y2="551.1211"/><text fill="#000000" font-family="sans-serif" font-size="13" font-weight="bold" lengthAdjust="spacing" textLength="9" x="196.5" y="546.3789">8</text><text fill="#000000" font-family="sans-serif" font-size="13" lengthAdjust="spacing" textLength="314" x="209.5" y="546.3789">sensorFunctionalityToDTO(sensorFunctionalityID)</text><rect fill="#E2E2F0" height="46.9766" rx="2.5" ry="2.5" style="stroke:#181818;stroke-width:0.5;" width="182" x="1776" y="559.1211"/><text fill="#000000" font-family="sans-serif" font-size="14" lengthAdjust="spacing" textLength="168" x="1783" y="579.6563">sensorFunctionalityDTO:</text><text fill="#000000" font-family="sans-serif" font-size="14" lengthAdjust="spacing" textLength="165" x="1784.5" y="596.1445">SensorFunctionalityDTO</text><polygon fill="#181818" points="1764,576.4316,1774,580.4316,1764,584.4316,1768,580.4316" style="stroke:#181818;stroke-width:1.0;"/><line style="stroke:#181818;stroke-width:1.0;stroke-dasharray:2.0,2.0;" x1="816.5" x2="1770" y1="580.4316" y2="580.4316"/><text fill="#000000" font-family="sans-serif" font-size="13" font-weight="bold" lengthAdjust="spacing" textLength="9" x="823.5" y="575.6895">9</text><text fill="#000000" font-family="sans-serif" font-size="13" lengthAdjust="spacing" textLength="59" x="836.5" y="575.6895">&#171;creates&#187;</text><rect fill="#E2E2F0" height="46.9766" rx="2.5" ry="2.5" style="stroke:#181818;stroke-width:0.5;" width="216" x="1968" y="607.0977"/><text fill="#000000" font-family="sans-serif" font-size="14" lengthAdjust="spacing" textLength="202" x="1975" y="627.6328">roomDTOAndDeviceDTOMap:</text><text fill="#000000" font-family="sans-serif" font-size="14" lengthAdjust="spacing" textLength="171" x="1990.5" y="644.1211">Map&lt;RoomID, DeviceID&gt;</text><polygon fill="#181818" points="1956,624.4082,1966,628.4082,1956,632.4082,1960,628.4082" style="stroke:#181818;stroke-width:1.0;"/><line style="stroke:#181818;stroke-width:1.0;stroke-dasharray:2.0,2.0;" x1="189.5" x2="1962" y1="628.4082" y2="628.4082"/><text fill="#000000" font-family="sans-serif" font-size="13" font-weight="bold" lengthAdjust="spacing" textLength="18" x="196.5" y="623.666">10</text><text fill="#000000" font-family="sans-serif" font-size="13" lengthAdjust="spacing" textLength="59" x="218.5" y="623.666">&#171;creates&#187;</text><path d="M168.5,659.0742 L242.5,659.0742 L242.5,666.3848 L232.5,676.3848 L168.5,676.3848 L168.5,659.0742 " fill="#EEEEEE" style="stroke:#000000;stroke-width:1.5;"/><rect fill="none" height="211.1953" style="stroke:#000000;stroke-width:1.5;" width="2227.5" x="168.5" y="659.0742"/><text fill="#000000" font-family="sans-serif" font-size="13" font-weight="bold" lengthAdjust="spacing" textLength="29" x="183.5" y="672.6426">loop</text><text fill="#000000" font-family="sans-serif" font-size="11" font-weight="bold" lengthAdjust="spacing" textLength="250" x="257.5" y="671.709">[for each entry in Map&lt;RoomID, DeviceID&gt;]</text><polygon fill="#181818" points="992,703.6953,1002,707.6953,992,711.6953,996,707.6953" style="stroke:#181818;stroke-width:1.0;"/><line style="stroke:#181818;stroke-width:1.0;" x1="189.5" x2="998" y1="707.6953" y2="707.6953"/><text fill="#000000" font-family="sans-serif" font-size="13" font-weight="bold" lengthAdjust="spacing" textLength="18" x="196.5" y="702.9531">11</text><text fill="#000000" font-family="sans-serif" font-size="13" lengthAdjust="spacing" textLength="132" x="218.5" y="702.9531">roomToDTO(roomID)</text><rect fill="#E2E2F0" height="46.9766" rx="2.5" ry="2.5" style="stroke:#181818;stroke-width:0.5;" width="85" x="2194" y="715.6953"/><text fill="#000000" font-family="sans-serif" font-size="14" lengthAdjust="spacing" textLength="71" x="2201" y="736.2305">roomDTO:</text><text fill="#000000" font-family="sans-serif" font-size="14" lengthAdjust="spacing" textLength="70" x="2201.5" y="752.7188">RoomDTO</text><polygon fill="#181818" points="2182,733.0059,2192,737.0059,2182,741.0059,2186,737.0059" style="stroke:#181818;stroke-width:1.0;"/><line style="stroke:#181818;stroke-width:1.0;stroke-dasharray:2.0,2.0;" x1="1014" x2="2188" y1="737.0059" y2="737.0059"/><text fill="#000000" font-family="sans-serif" font-size="13" font-weight="bold" lengthAdjust="spacing" textLength="18" x="1021" y="732.2637">12</text><text fill="#000000" font-family="sans-serif" font-size="13" lengthAdjust="spacing" textLength="59" x="1043" y="732.2637">&#171;creates&#187;</text><polygon fill="#181818" points="1144,780.9824,1154,784.9824,1144,788.9824,1148,784.9824" style="stroke:#181818;stroke-width:1.0;"/><line style="stroke:#181818;stroke-width:1.0;" x1="189.5" x2="1150" y1="784.9824" y2="784.9824"/><text fill="#000000" font-family="sans-serif" font-size="13" font-weight="bold" lengthAdjust="spacing" textLength="18" x="196.5" y="780.2402">13</text><text fill="#000000" font-family="sans-serif" font-size="13" lengthAdjust="spacing" textLength="146" x="218.5" y="780.2402">deviceToDTO(deviceID)</text><rect fill="#E2E2F0" height="46.9766" rx="2.5" ry="2.5" style="stroke:#181818;stroke-width:0.5;" width="91" x="2289" y="792.9824"/><text fill="#000000" font-family="sans-serif" font-size="14" lengthAdjust="spacing" textLength="77" x="2296" y="813.5176">deviceDTO:</text><text fill="#000000" font-family="sans-serif" font-size="14" lengthAdjust="spacing" textLength="74" x="2297.5" y="830.0059">DeviceDTO</text><polygon fill="#181818" points="2277,810.293,2287,814.293,2277,818.293,2281,814.293" style="stroke:#181818;stroke-width:1.0;"/><line style="stroke:#181818;stroke-width:1.0;stroke-dasharray:2.0,2.0;" x1="1166" x2="2283" y1="814.293" y2="814.293"/><text fill="#000000" font-family="sans-serif" font-size="13" font-weight="bold" lengthAdjust="spacing" textLength="18" x="1173" y="809.5508">14</text><text fill="#000000" font-family="sans-serif" font-size="13" lengthAdjust="spacing" textLength="59" x="1195" y="809.5508">&#171;creates&#187;</text><polygon fill="#181818" points="2064,858.2695,2074,862.2695,2064,866.2695,2068,862.2695" style="stroke:#181818;stroke-width:1.0;"/><line style="stroke:#181818;stroke-width:1.0;" x1="189.5" x2="2070" y1="862.2695" y2="862.2695"/><text fill="#000000" font-family="sans-serif" font-size="13" font-weight="bold" lengthAdjust="spacing" textLength="18" x="196.5" y="857.5273">15</text><text fill="#000000" font-family="sans-serif" font-size="13" lengthAdjust="spacing" textLength="166" x="218.5" y="857.5273">put(roomDTO, deviceDTO)</text><polygon fill="#181818" points="1391,901.5801,1401,905.5801,1391,909.5801,1395,905.5801" style="stroke:#181818;stroke-width:1.0;"/><line style="stroke:#181818;stroke-width:1.0;" x1="189.5" x2="1397" y1="905.5801" y2="905.5801"/><text fill="#000000" font-family="sans-serif" font-size="13" font-weight="bold" lengthAdjust="spacing" textLength="18" x="196.5" y="900.8379">16</text><text fill="#000000" font-family="sans-serif" font-size="13" lengthAdjust="spacing" textLength="260" x="218.5" y="900.8379">put(Object, roomDTOAndDeviceDTOMap)</text><ellipse cx="10.5" cy="962.1406" fill="none" rx="4" ry="4" style="stroke:#181818;stroke-width:1.5;"/><polygon fill="#181818" points="27.5,958.8906,17.5,962.8906,27.5,966.8906,23.5,962.8906" style="stroke:#181818;stroke-width:1.0;"/><line style="stroke:#181818;stroke-width:1.0;stroke-dasharray:2.0,2.0;" x1="25.5" x2="183.5" y1="962.8906" y2="962.8906"/><text fill="#000000" font-family="sans-serif" font-size="13" font-weight="bold" lengthAdjust="spacing" textLength="18" x="28" y="958.1484">17</text><text fill="#000000" font-family="sans-serif" font-size="13" lengthAdjust="spacing" textLength="108" x="50" y="958.1484">mapDTOGrouped</text><!--SRC=[VLRRSjem47ttLspJXpGPIFfQ3yCCWJHb9hSfoLFI1s4lu4QMN4bEIh- -AnjVaSmCOBHdZrPdB-9qPqocmylBZ3DXyfHVH3AzrFWdHn7XE4xOLh4qC8dX2C-hhzzW33CD31xb1ofurlJn8XNCuZGHYJQA6Qb-ZM097yG7Hi8M3S4vsK1kW74ECRud4Mf811bsCjSuWgsIUOOnhFS7Csno4Pb42iOJimUppr1VmD90cXDJ8YAUnrXXkOoOnLx07IDMdKV4ho5Y6eE0vKQAF5sZ2e9FcMBRb851-G-Coicybd_X12QJLRvUxRN1T3fz5K0BSoaCiQ4g5m32AnQzeOW9_dd1rDkDmdtjFfTf9WKAKwDNgDvH4VOssUvC0SwOCacKP5QQa_2MD9bnlYZbM8eVLegh_VVsmMqGId9kYPWkCZ0tYWV1wMF3fM53ALWyFK0a1UsfoVkqjzaiChdDJOVzZcKPAd8io0SWFR8L2Zr8vGNqY7vAcNOzcvKUj9If2swlTU4fomXqKrPL-2e8CtbO_yR8ZC0-ssq8C3fGqEDqMb1s78CkANC9H6ZYdtbCVc79s6NNnvgLt2kdmQUpvUqIg_AiCn7NXoK93g9O8PQBIeVbebJ1xUAa9Pw3c7N-ZeuMLoG4hWbR6RGEjh6ecUhlWDHEtfd1fkYh1nYFfqFLUduUKaT62ibRJwTTFszf3derPJa8QnTa7zX5Tkhi2Cgbp8gcHXRjWAQAsjjncT8yidcmyuLn6eCRA8iQ4fh9WY3QC9hRTj8wzLak2b_xQg8Pr384PzK_IOh-2tFlSLPlKkTmQBPKu06CF-CKHbyzouLSuw0yZZBmYECjc10SBLiAerti3bdySxA2UX6-OdO84dIFH7xk_dO9QL-UQdIEZzgfBsFJGM6nVIcKAlpFEbwrEgsxe6rlbklMz1tQ5KYxHyF3FuWocFXm24yudTkcZMWRMcF0Kvgkc3mZ6hBSV57LLLLFqIO-6fP1dwjxzHKKrStdtgQairJs7SHuF7bVv6Gyhd-6lLlozFf-0Qlh-TFouVu_]--></g></svg>