<?xml version="1.0" encoding="us-ascii" standalone="no"?><svg xmlns="http://www.w3.org/2000/svg" xmlns:xlink="http://www.w3.org/1999/xlink" contentStyleType="text/css" height="1233px" preserveAspectRatio="none" style="width:2193px;height:1233px;background:#FFFFFF;" version="1.1" viewBox="0 0 2193 1233" width="2193px" zoomAndPan="magnify"><defs/><g><rect fill="#A9A9A9" height="1183.7734" style="stroke:#181818;stroke-width:0.5;" width="2050" x="137" y="43.4883"/><text fill="#000000" font-family="sans-serif" font-size="13" font-weight="bold" lengthAdjust="spacing" textLength="87" x="1118.5" y="56.0566">&#171;SubSystem&#187;</text><text fill="#000000" font-family="sans-serif" font-size="13" font-weight="bold" lengthAdjust="spacing" textLength="60" x="1118.5" y="71.3672">:Backend</text><rect fill="#D3D3D3" height="1148.1523" style="stroke:#181818;stroke-width:0.5;" width="2050" x="137" y="79.1094"/><text fill="#000000" font-family="sans-serif" font-size="13" font-weight="bold" lengthAdjust="spacing" textLength="80" x="1124" y="91.6777">&#171;Container&#187;</text><text fill="#000000" font-family="sans-serif" font-size="13" font-weight="bold" lengthAdjust="spacing" textLength="46" x="1120" y="106.9883">:Server</text><text fill="#000000" font-family="sans-serif" font-size="14" font-weight="bold" lengthAdjust="spacing" textLength="255" x="971" y="28.5352">UC12.2 Add new Actuator to Device</text><line style="stroke:#181818;stroke-width:0.5;stroke-dasharray:5.0,5.0;" x1="274" x2="274" y1="161.707" y2="1173.2852"/><rect fill="#FFFFFF" height="860.0703" style="stroke:#181818;stroke-width:1.0;" width="10" x="269" y="295.2148"/><line style="stroke:#181818;stroke-width:0.5;stroke-dasharray:5.0,5.0;" x1="505.5" x2="505.5" y1="303.2148" y2="1173.2852"/><line style="stroke:#181818;stroke-width:0.5;stroke-dasharray:5.0,5.0;" x1="648.5" x2="648.5" y1="351.1914" y2="1173.2852"/><line style="stroke:#181818;stroke-width:0.5;stroke-dasharray:5.0,5.0;" x1="740.5" x2="740.5" y1="399.168" y2="1173.2852"/><line style="stroke:#181818;stroke-width:0.5;stroke-dasharray:5.0,5.0;" x1="895.5" x2="895.5" y1="447.1445" y2="1173.2852"/><rect fill="#FFFFFF" height="29.3105" style="stroke:#181818;stroke-width:1.0;" width="10" x="890.5" y="516.4316"/><line style="stroke:#181818;stroke-width:0.5;stroke-dasharray:5.0,5.0;" x1="1075.5" x2="1075.5" y1="161.707" y2="1173.2852"/><rect fill="#FFFFFF" height="502.9453" style="stroke:#181818;stroke-width:1.0;" width="10" x="1070.5" y="575.0527"/><line style="stroke:#181818;stroke-width:0.5;stroke-dasharray:5.0,5.0;" x1="1268.5" x2="1268.5" y1="161.707" y2="1173.2852"/><rect fill="#FFFFFF" height="29.3105" style="stroke:#181818;stroke-width:1.0;" width="10" x="1263.5" y="604.3633"/><line style="stroke:#181818;stroke-width:0.5;stroke-dasharray:5.0,5.0;" x1="1376.5" x2="1376.5" y1="161.707" y2="1173.2852"/><rect fill="#FFFFFF" height="29.3105" style="stroke:#181818;stroke-width:1.0;" width="10" x="1371.5" y="662.9844"/><line style="stroke:#181818;stroke-width:0.5;stroke-dasharray:5.0,5.0;" x1="1542.5" x2="1542.5" y1="161.707" y2="1173.2852"/><rect fill="#FFFFFF" height="29.3105" style="stroke:#181818;stroke-width:1.0;" width="10" x="1537.5" y="721.6055"/><line style="stroke:#181818;stroke-width:0.5;stroke-dasharray:5.0,5.0;" x1="1735" x2="1735" y1="161.707" y2="1173.2852"/><rect fill="#FFFFFF" height="77.2871" style="stroke:#181818;stroke-width:1.0;" width="10" x="1730" y="795.5371"/><line style="stroke:#181818;stroke-width:0.5;stroke-dasharray:5.0,5.0;" x1="1870.5" x2="1870.5" y1="803.5371" y2="1173.2852"/><rect fill="#FFFFFF" height="29.3105" style="stroke:#181818;stroke-width:1.0;" width="10" x="1865.5" y="902.1348"/><line style="stroke:#181818;stroke-width:0.5;stroke-dasharray:5.0,5.0;" x1="1993" x2="1993" y1="161.707" y2="1173.2852"/><rect fill="#FFFFFF" height="87.9316" style="stroke:#181818;stroke-width:1.0;" width="10" x="1988" y="960.7559"/><line style="stroke:#181818;stroke-width:0.5;stroke-dasharray:5.0,5.0;" x1="2130.5" x2="2130.5" y1="1085.998" y2="1173.2852"/><rect fill="#E2E2F0" height="46.9766" rx="2.5" ry="2.5" style="stroke:#181818;stroke-width:0.5;" width="266" x="141" y="113.7305"/><text fill="#000000" font-family="sans-serif" font-size="14" font-style="italic" lengthAdjust="spacing" textLength="95" x="226.5" y="134.2656">&#171;Component&#187;</text><text fill="#000000" font-family="sans-serif" font-size="14" lengthAdjust="spacing" textLength="252" x="148" y="150.7539">:AddNewActuatorToDeviceController</text><rect fill="#E2E2F0" height="46.9766" rx="2.5" ry="2.5" style="stroke:#181818;stroke-width:0.5;" width="125" x="1013" y="113.7305"/><text fill="#000000" font-family="sans-serif" font-size="14" font-style="italic" lengthAdjust="spacing" textLength="95" x="1028" y="134.2656">&#171;Component&#187;</text><text fill="#000000" font-family="sans-serif" font-size="14" lengthAdjust="spacing" textLength="111" x="1020" y="150.7539">:ActuatorService</text><rect fill="#E2E2F0" height="46.9766" rx="2.5" ry="2.5" style="stroke:#181818;stroke-width:0.5;" width="135" x="1201" y="113.7305"/><text fill="#000000" font-family="sans-serif" font-size="14" font-style="italic" lengthAdjust="spacing" textLength="95" x="1221" y="134.2656">&#171;Component&#187;</text><text fill="#000000" font-family="sans-serif" font-size="14" lengthAdjust="spacing" textLength="121" x="1208" y="150.7539">:DeviceRepository</text><rect fill="#E2E2F0" height="46.9766" rx="2.5" ry="2.5" style="stroke:#181818;stroke-width:0.5;" width="61" x="1346" y="113.7305"/><text fill="#000000" font-family="sans-serif" font-size="14" lengthAdjust="spacing" textLength="47" x="1353" y="134.2656">device:</text><text fill="#000000" font-family="sans-serif" font-size="14" lengthAdjust="spacing" textLength="44" x="1354.5" y="150.7539">Device</text><rect fill="#E2E2F0" height="46.9766" rx="2.5" ry="2.5" style="stroke:#181818;stroke-width:0.5;" width="238" x="1423.5" y="113.7305"/><text fill="#000000" font-family="sans-serif" font-size="14" font-style="italic" lengthAdjust="spacing" textLength="95" x="1495" y="134.2656">&#171;Component&#187;</text><text fill="#000000" font-family="sans-serif" font-size="14" lengthAdjust="spacing" textLength="224" x="1430.5" y="150.7539">:ActuatorFunctionalityRepository</text><rect fill="#E2E2F0" height="46.9766" rx="2.5" ry="2.5" style="stroke:#181818;stroke-width:0.5;" width="127" x="1671.5" y="113.7305"/><text fill="#000000" font-family="sans-serif" font-size="14" font-style="italic" lengthAdjust="spacing" textLength="95" x="1687.5" y="134.2656">&#171;Component&#187;</text><text fill="#000000" font-family="sans-serif" font-size="14" lengthAdjust="spacing" textLength="113" x="1678.5" y="150.7539">:FactoryActuator</text><rect fill="#E2E2F0" height="46.9766" rx="2.5" ry="2.5" style="stroke:#181818;stroke-width:0.5;" width="150" x="1918" y="113.7305"/><text fill="#000000" font-family="sans-serif" font-size="14" font-style="italic" lengthAdjust="spacing" textLength="95" x="1945.5" y="134.2656">&#171;Component&#187;</text><text fill="#000000" font-family="sans-serif" font-size="14" lengthAdjust="spacing" textLength="136" x="1925" y="150.7539">:ActuatorRepository</text><rect fill="#E2E2F0" height="46.9766" rx="2.5" ry="2.5" style="stroke:#181818;stroke-width:0.5;" width="266" x="141" y="1173.2852"/><text fill="#000000" font-family="sans-serif" font-size="14" font-style="italic" lengthAdjust="spacing" textLength="95" x="226.5" y="1193.8203">&#171;Component&#187;</text><text fill="#000000" font-family="sans-serif" font-size="14" lengthAdjust="spacing" textLength="252" x="148" y="1210.3086">:AddNewActuatorToDeviceController</text><rect fill="#E2E2F0" height="46.9766" rx="2.5" ry="2.5" style="stroke:#181818;stroke-width:0.5;" width="177" x="417" y="1173.2852"/><text fill="#000000" font-family="sans-serif" font-size="14" lengthAdjust="spacing" textLength="163" x="424" y="1193.8203">actuatorFunctionalityID:</text><text fill="#000000" font-family="sans-serif" font-size="14" lengthAdjust="spacing" textLength="161" x="425" y="1210.3086">ActuatorFunctionalityID</text><rect fill="#E2E2F0" height="46.9766" rx="2.5" ry="2.5" style="stroke:#181818;stroke-width:0.5;" width="89" x="604" y="1173.2852"/><text fill="#000000" font-family="sans-serif" font-size="14" lengthAdjust="spacing" textLength="75" x="611" y="1193.8203">actuatorID:</text><text fill="#000000" font-family="sans-serif" font-size="14" lengthAdjust="spacing" textLength="73" x="612" y="1210.3086">ActuatorID</text><rect fill="#E2E2F0" height="46.9766" rx="2.5" ry="2.5" style="stroke:#181818;stroke-width:0.5;" width="75" x="703" y="1173.2852"/><text fill="#000000" font-family="sans-serif" font-size="14" lengthAdjust="spacing" textLength="61" x="710" y="1193.8203">deviceID:</text><text fill="#000000" font-family="sans-serif" font-size="14" lengthAdjust="spacing" textLength="58" x="711.5" y="1210.3086">DeviceID</text><rect fill="#E2E2F0" height="46.9766" rx="2.5" ry="2.5" style="stroke:#181818;stroke-width:0.5;" width="215" x="788" y="1173.2852"/><text fill="#000000" font-family="sans-serif" font-size="14" lengthAdjust="spacing" textLength="127" x="832" y="1193.8203">propertiesMapper:</text><text fill="#000000" font-family="sans-serif" font-size="14" lengthAdjust="spacing" textLength="201" x="795" y="1210.3086">AssemblerActuatorProperties</text><rect fill="#E2E2F0" height="46.9766" rx="2.5" ry="2.5" style="stroke:#181818;stroke-width:0.5;" width="125" x="1013" y="1173.2852"/><text fill="#000000" font-family="sans-serif" font-size="14" font-style="italic" lengthAdjust="spacing" textLength="95" x="1028" y="1193.8203">&#171;Component&#187;</text><text fill="#000000" font-family="sans-serif" font-size="14" lengthAdjust="spacing" textLength="111" x="1020" y="1210.3086">:ActuatorService</text><rect fill="#E2E2F0" height="46.9766" rx="2.5" ry="2.5" style="stroke:#181818;stroke-width:0.5;" width="135" x="1201" y="1173.2852"/><text fill="#000000" font-family="sans-serif" font-size="14" font-style="italic" lengthAdjust="spacing" textLength="95" x="1221" y="1193.8203">&#171;Component&#187;</text><text fill="#000000" font-family="sans-serif" font-size="14" lengthAdjust="spacing" textLength="121" x="1208" y="1210.3086">:DeviceRepository</text><rect fill="#E2E2F0" height="46.9766" rx="2.5" ry="2.5" style="stroke:#181818;stroke-width:0.5;" width="61" x="1346" y="1173.2852"/><text fill="#000000" font-family="sans-serif" font-size="14" lengthAdjust="spacing" textLength="47" x="1353" y="1193.8203">device:</text><text fill="#000000" font-family="sans-serif" font-size="14" lengthAdjust="spacing" textLength="44" x="1354.5" y="1210.3086">Device</text><rect fill="#E2E2F0" height="46.9766" rx="2.5" ry="2.5" style="stroke:#181818;stroke-width:0.5;" width="238" x="1423.5" y="1173.2852"/><text fill="#000000" font-family="sans-serif" font-size="14" font-style="italic" lengthAdjust="spacing" textLength="95" x="1495" y="1193.8203">&#171;Component&#187;</text><text fill="#000000" font-family="sans-serif" font-size="14" lengthAdjust="spacing" textLength="224" x="1430.5" y="1210.3086">:ActuatorFunctionalityRepository</text><rect fill="#E2E2F0" height="46.9766" rx="2.5" ry="2.5" style="stroke:#181818;stroke-width:0.5;" width="127" x="1671.5" y="1173.2852"/><text fill="#000000" font-family="sans-serif" font-size="14" font-style="italic" lengthAdjust="spacing" textLength="95" x="1687.5" y="1193.8203">&#171;Component&#187;</text><text fill="#000000" font-family="sans-serif" font-size="14" lengthAdjust="spacing" textLength="113" x="1678.5" y="1210.3086">:FactoryActuator</text><rect fill="#E2E2F0" height="46.9766" rx="2.5" ry="2.5" style="stroke:#181818;stroke-width:0.5;" width="75" x="1833" y="1173.2852"/><text fill="#000000" font-family="sans-serif" font-size="14" lengthAdjust="spacing" textLength="61" x="1840" y="1193.8203">actuator:</text><text fill="#000000" font-family="sans-serif" font-size="14" lengthAdjust="spacing" textLength="59" x="1841" y="1210.3086">Actuator</text><rect fill="#E2E2F0" height="46.9766" rx="2.5" ry="2.5" style="stroke:#181818;stroke-width:0.5;" width="150" x="1918" y="1173.2852"/><text fill="#000000" font-family="sans-serif" font-size="14" font-style="italic" lengthAdjust="spacing" textLength="95" x="1945.5" y="1193.8203">&#171;Component&#187;</text><text fill="#000000" font-family="sans-serif" font-size="14" lengthAdjust="spacing" textLength="136" x="1925" y="1210.3086">:ActuatorRepository</text><rect fill="#E2E2F0" height="46.9766" rx="2.5" ry="2.5" style="stroke:#181818;stroke-width:0.5;" width="105" x="2078" y="1173.2852"/><text fill="#000000" font-family="sans-serif" font-size="14" lengthAdjust="spacing" textLength="91" x="2085" y="1193.8203">actuatorDTO:</text><text fill="#000000" font-family="sans-serif" font-size="14" lengthAdjust="spacing" textLength="89" x="2086" y="1210.3086">ActuatorDTO</text><rect fill="none" height="39.4434" style="stroke:#000000;stroke-width:1.5;" width="262" x="143" y="169.707"/><path d="M143,169.707 L207,169.707 L207,176.707 L197,186.707 L143,186.707 L143,169.707 " fill="#EEEEEE" style="stroke:#000000;stroke-width:2.0;"/><text fill="#000000" font-family="sans-serif" font-size="13" font-weight="bold" lengthAdjust="spacing" textLength="19" x="156" y="184.2754">ref</text><text fill="#000000" font-family="sans-serif" font-size="12" lengthAdjust="spacing" textLength="181" x="183.5" y="202.3086">UC06-SD-ListAllDevicesInRoom</text><rect fill="none" height="39.4434" style="stroke:#000000;stroke-width:1.5;" width="262" x="143" y="214.1504"/><path d="M143,214.1504 L207,214.1504 L207,221.1504 L197,231.1504 L143,231.1504 L143,214.1504 " fill="#EEEEEE" style="stroke:#000000;stroke-width:2.0;"/><text fill="#000000" font-family="sans-serif" font-size="13" font-weight="bold" lengthAdjust="spacing" textLength="19" x="156" y="228.7188">ref</text><text fill="#000000" font-family="sans-serif" font-size="12" lengthAdjust="spacing" textLength="226" x="161" y="246.752">UC12.1-SD-ListActuatorsFunctionalities</text><ellipse cx="10.5" cy="294.4648" fill="none" rx="4" ry="4" style="stroke:#181818;stroke-width:1.5;"/><polygon fill="#181818" points="257,291.2148,267,295.2148,257,299.2148,261,295.2148" style="stroke:#181818;stroke-width:1.0;"/><line style="stroke:#181818;stroke-width:1.0;" x1="15" x2="263" y1="295.2148" y2="295.2148"/><text fill="#000000" font-family="sans-serif" font-size="13" font-weight="bold" lengthAdjust="spacing" textLength="9" x="18" y="282.8174">1</text><text fill="#000000" font-family="sans-serif" font-size="13" lengthAdjust="spacing" textLength="228" x="31" y="275.1621">createActuatorAndSaveToRepository</text><text fill="#000000" font-family="sans-serif" font-size="13" lengthAdjust="spacing" textLength="88" x="31" y="290.4727">(actuatorDTO)</text><rect fill="#E2E2F0" height="46.9766" rx="2.5" ry="2.5" style="stroke:#181818;stroke-width:0.5;" width="177" x="417" y="303.2148"/><text fill="#000000" font-family="sans-serif" font-size="14" lengthAdjust="spacing" textLength="163" x="424" y="323.75">actuatorFunctionalityID:</text><text fill="#000000" font-family="sans-serif" font-size="14" lengthAdjust="spacing" textLength="161" x="425" y="340.2383">ActuatorFunctionalityID</text><polygon fill="#181818" points="405,320.5254,415,324.5254,405,328.5254,409,324.5254" style="stroke:#181818;stroke-width:1.0;"/><line style="stroke:#181818;stroke-width:1.0;stroke-dasharray:2.0,2.0;" x1="279" x2="411" y1="324.5254" y2="324.5254"/><text fill="#000000" font-family="sans-serif" font-size="13" font-weight="bold" lengthAdjust="spacing" textLength="9" x="286" y="319.7832">2</text><text fill="#000000" font-family="sans-serif" font-size="13" lengthAdjust="spacing" textLength="52" x="299" y="319.7832">&#171;create&#187;</text><rect fill="#E2E2F0" height="46.9766" rx="2.5" ry="2.5" style="stroke:#181818;stroke-width:0.5;" width="89" x="604" y="351.1914"/><text fill="#000000" font-family="sans-serif" font-size="14" lengthAdjust="spacing" textLength="75" x="611" y="371.7266">actuatorID:</text><text fill="#000000" font-family="sans-serif" font-size="14" lengthAdjust="spacing" textLength="73" x="612" y="388.2148">ActuatorID</text><polygon fill="#181818" points="592,368.502,602,372.502,592,376.502,596,372.502" style="stroke:#181818;stroke-width:1.0;"/><line style="stroke:#181818;stroke-width:1.0;stroke-dasharray:2.0,2.0;" x1="279" x2="598" y1="372.502" y2="372.502"/><text fill="#000000" font-family="sans-serif" font-size="13" font-weight="bold" lengthAdjust="spacing" textLength="9" x="286" y="367.7598">3</text><text fill="#000000" font-family="sans-serif" font-size="13" lengthAdjust="spacing" textLength="52" x="299" y="367.7598">&#171;create&#187;</text><rect fill="#E2E2F0" height="46.9766" rx="2.5" ry="2.5" style="stroke:#181818;stroke-width:0.5;" width="75" x="703" y="399.168"/><text fill="#000000" font-family="sans-serif" font-size="14" lengthAdjust="spacing" textLength="61" x="710" y="419.7031">deviceID:</text><text fill="#000000" font-family="sans-serif" font-size="14" lengthAdjust="spacing" textLength="58" x="711.5" y="436.1914">DeviceID</text><polygon fill="#181818" points="691,416.4785,701,420.4785,691,424.4785,695,420.4785" style="stroke:#181818;stroke-width:1.0;"/><line style="stroke:#181818;stroke-width:1.0;stroke-dasharray:2.0,2.0;" x1="279" x2="697" y1="420.4785" y2="420.4785"/><text fill="#000000" font-family="sans-serif" font-size="13" font-weight="bold" lengthAdjust="spacing" textLength="9" x="286" y="415.7363">4</text><text fill="#000000" font-family="sans-serif" font-size="13" lengthAdjust="spacing" textLength="52" x="299" y="415.7363">&#171;create&#187;</text><rect fill="#E2E2F0" height="46.9766" rx="2.5" ry="2.5" style="stroke:#181818;stroke-width:0.5;" width="215" x="788" y="447.1445"/><text fill="#000000" font-family="sans-serif" font-size="14" lengthAdjust="spacing" textLength="127" x="832" y="467.6797">propertiesMapper:</text><text fill="#000000" font-family="sans-serif" font-size="14" lengthAdjust="spacing" textLength="201" x="795" y="484.168">AssemblerActuatorProperties</text><polygon fill="#181818" points="776,464.4551,786,468.4551,776,472.4551,780,468.4551" style="stroke:#181818;stroke-width:1.0;"/><line style="stroke:#181818;stroke-width:1.0;stroke-dasharray:2.0,2.0;" x1="279" x2="782" y1="468.4551" y2="468.4551"/><text fill="#000000" font-family="sans-serif" font-size="13" font-weight="bold" lengthAdjust="spacing" textLength="9" x="286" y="463.7129">5</text><text fill="#000000" font-family="sans-serif" font-size="13" lengthAdjust="spacing" textLength="52" x="299" y="463.7129">&#171;create&#187;</text><polygon fill="#181818" points="878.5,512.4316,888.5,516.4316,878.5,520.4316,882.5,516.4316" style="stroke:#181818;stroke-width:1.0;"/><line style="stroke:#181818;stroke-width:1.0;" x1="279" x2="884.5" y1="516.4316" y2="516.4316"/><text fill="#000000" font-family="sans-serif" font-size="13" font-weight="bold" lengthAdjust="spacing" textLength="9" x="286" y="511.6895">6</text><text fill="#000000" font-family="sans-serif" font-size="13" lengthAdjust="spacing" textLength="357" x="299" y="511.6895">createActuatorPropertiesFromActuatorDTO(actuatorDTO)</text><polygon fill="#181818" points="290,541.7422,280,545.7422,290,549.7422,286,545.7422" style="stroke:#181818;stroke-width:1.0;"/><line style="stroke:#181818;stroke-width:1.0;stroke-dasharray:2.0,2.0;" x1="284" x2="889.5" y1="545.7422" y2="545.7422"/><text fill="#000000" font-family="sans-serif" font-size="13" font-weight="bold" lengthAdjust="spacing" textLength="9" x="296" y="541">7</text><text fill="#000000" font-family="sans-serif" font-size="13" lengthAdjust="spacing" textLength="115" x="309" y="541">actuatorProperties</text><polygon fill="#181818" points="1058.5,571.0527,1068.5,575.0527,1058.5,579.0527,1062.5,575.0527" style="stroke:#181818;stroke-width:1.0;"/><line style="stroke:#181818;stroke-width:1.0;" x1="279" x2="1064.5" y1="575.0527" y2="575.0527"/><text fill="#000000" font-family="sans-serif" font-size="13" font-weight="bold" lengthAdjust="spacing" textLength="9" x="286" y="570.3105">8</text><text fill="#000000" font-family="sans-serif" font-size="13" lengthAdjust="spacing" textLength="560" x="299" y="570.3105">createActuatorAndSave(actuatorFunctionalityID, actuatorID, actuatorProperties, deviceID)</text><polygon fill="#181818" points="1251.5,600.3633,1261.5,604.3633,1251.5,608.3633,1255.5,604.3633" style="stroke:#181818;stroke-width:1.0;"/><line style="stroke:#181818;stroke-width:1.0;" x1="1080.5" x2="1257.5" y1="604.3633" y2="604.3633"/><text fill="#000000" font-family="sans-serif" font-size="13" font-weight="bold" lengthAdjust="spacing" textLength="9" x="1087.5" y="599.6211">9</text><text fill="#000000" font-family="sans-serif" font-size="13" lengthAdjust="spacing" textLength="151" x="1100.5" y="599.6211">findEntityByID(deviceID)</text><polygon fill="#181818" points="1091.5,629.6738,1081.5,633.6738,1091.5,637.6738,1087.5,633.6738" style="stroke:#181818;stroke-width:1.0;"/><line style="stroke:#181818;stroke-width:1.0;stroke-dasharray:2.0,2.0;" x1="1085.5" x2="1262.5" y1="633.6738" y2="633.6738"/><text fill="#000000" font-family="sans-serif" font-size="13" font-weight="bold" lengthAdjust="spacing" textLength="18" x="1097.5" y="628.9316">10</text><text fill="#000000" font-family="sans-serif" font-size="13" lengthAdjust="spacing" textLength="40" x="1119.5" y="628.9316">device</text><polygon fill="#181818" points="1359.5,658.9844,1369.5,662.9844,1359.5,666.9844,1363.5,662.9844" style="stroke:#181818;stroke-width:1.0;"/><line style="stroke:#181818;stroke-width:1.0;" x1="1080.5" x2="1365.5" y1="662.9844" y2="662.9844"/><text fill="#000000" font-family="sans-serif" font-size="13" font-weight="bold" lengthAdjust="spacing" textLength="18" x="1087.5" y="658.2422">11</text><text fill="#000000" font-family="sans-serif" font-size="13" lengthAdjust="spacing" textLength="58" x="1109.5" y="658.2422">isActive()</text><polygon fill="#181818" points="1091.5,688.2949,1081.5,692.2949,1091.5,696.2949,1087.5,692.2949" style="stroke:#181818;stroke-width:1.0;"/><line style="stroke:#181818;stroke-width:1.0;stroke-dasharray:2.0,2.0;" x1="1085.5" x2="1370.5" y1="692.2949" y2="692.2949"/><text fill="#000000" font-family="sans-serif" font-size="13" font-weight="bold" lengthAdjust="spacing" textLength="18" x="1097.5" y="687.5527">12</text><text fill="#000000" font-family="sans-serif" font-size="13" lengthAdjust="spacing" textLength="25" x="1119.5" y="687.5527">true</text><polygon fill="#181818" points="1525.5,717.6055,1535.5,721.6055,1525.5,725.6055,1529.5,721.6055" style="stroke:#181818;stroke-width:1.0;"/><line style="stroke:#181818;stroke-width:1.0;" x1="1080.5" x2="1531.5" y1="721.6055" y2="721.6055"/><text fill="#000000" font-family="sans-serif" font-size="13" font-weight="bold" lengthAdjust="spacing" textLength="18" x="1087.5" y="716.8633">13</text><text fill="#000000" font-family="sans-serif" font-size="13" lengthAdjust="spacing" textLength="416" x="1109.5" y="716.8633">getClassNameForActuatorFunctionalityID(actuatorFunctionalityID)</text><polygon fill="#181818" points="1091.5,746.916,1081.5,750.916,1091.5,754.916,1087.5,750.916" style="stroke:#181818;stroke-width:1.0;"/><line style="stroke:#181818;stroke-width:1.0;stroke-dasharray:2.0,2.0;" x1="1085.5" x2="1536.5" y1="750.916" y2="750.916"/><text fill="#000000" font-family="sans-serif" font-size="13" font-weight="bold" lengthAdjust="spacing" textLength="18" x="1097.5" y="746.1738">14</text><text fill="#000000" font-family="sans-serif" font-size="13" lengthAdjust="spacing" textLength="127" x="1119.5" y="746.1738">String actuatorClass</text><polygon fill="#181818" points="1718,791.5371,1728,795.5371,1718,799.5371,1722,795.5371" style="stroke:#181818;stroke-width:1.0;"/><line style="stroke:#181818;stroke-width:1.0;" x1="1080.5" x2="1724" y1="795.5371" y2="795.5371"/><text fill="#000000" font-family="sans-serif" font-size="13" font-weight="bold" lengthAdjust="spacing" textLength="18" x="1087.5" y="783.1396">15</text><text fill="#000000" font-family="sans-serif" font-size="13" lengthAdjust="spacing" textLength="322" x="1109.5" y="775.4844">createActuator(actuatorID, actuatorFunctionalityID,</text><text fill="#000000" font-family="sans-serif" font-size="13" lengthAdjust="spacing" textLength="275" x="1113.5" y="790.7949">actuatorProperties, deviceID, actuatorClass)</text><rect fill="#E2E2F0" height="46.9766" rx="2.5" ry="2.5" style="stroke:#181818;stroke-width:0.5;" width="75" x="1833" y="803.5371"/><text fill="#000000" font-family="sans-serif" font-size="14" lengthAdjust="spacing" textLength="61" x="1840" y="824.0723">actuator:</text><text fill="#000000" font-family="sans-serif" font-size="14" lengthAdjust="spacing" textLength="59" x="1841" y="840.5605">Actuator</text><polygon fill="#181818" points="1821,820.8477,1831,824.8477,1821,828.8477,1825,824.8477" style="stroke:#181818;stroke-width:1.0;"/><line style="stroke:#181818;stroke-width:1.0;stroke-dasharray:2.0,2.0;" x1="1740" x2="1827" y1="824.8477" y2="824.8477"/><text fill="#000000" font-family="sans-serif" font-size="13" font-weight="bold" lengthAdjust="spacing" textLength="18" x="1747" y="820.1055">16</text><text fill="#000000" font-family="sans-serif" font-size="13" lengthAdjust="spacing" textLength="52" x="1769" y="820.1055">&#171;create&#187;</text><polygon fill="#181818" points="1091.5,868.8242,1081.5,872.8242,1091.5,876.8242,1087.5,872.8242" style="stroke:#181818;stroke-width:1.0;"/><line style="stroke:#181818;stroke-width:1.0;stroke-dasharray:2.0,2.0;" x1="1085.5" x2="1729" y1="872.8242" y2="872.8242"/><text fill="#000000" font-family="sans-serif" font-size="13" font-weight="bold" lengthAdjust="spacing" textLength="18" x="1097.5" y="868.082">17</text><text fill="#000000" font-family="sans-serif" font-size="13" lengthAdjust="spacing" textLength="52" x="1119.5" y="868.082">actuator</text><polygon fill="#181818" points="1853.5,898.1348,1863.5,902.1348,1853.5,906.1348,1857.5,902.1348" style="stroke:#181818;stroke-width:1.0;"/><line style="stroke:#181818;stroke-width:1.0;" x1="1080.5" x2="1859.5" y1="902.1348" y2="902.1348"/><text fill="#000000" font-family="sans-serif" font-size="13" font-weight="bold" lengthAdjust="spacing" textLength="18" x="1087.5" y="897.3926">18</text><text fill="#000000" font-family="sans-serif" font-size="13" lengthAdjust="spacing" textLength="56" x="1109.5" y="897.3926">identity()</text><polygon fill="#181818" points="1091.5,927.4453,1081.5,931.4453,1091.5,935.4453,1087.5,931.4453" style="stroke:#181818;stroke-width:1.0;"/><line style="stroke:#181818;stroke-width:1.0;stroke-dasharray:2.0,2.0;" x1="1085.5" x2="1864.5" y1="931.4453" y2="931.4453"/><text fill="#000000" font-family="sans-serif" font-size="13" font-weight="bold" lengthAdjust="spacing" textLength="18" x="1097.5" y="926.7031">19</text><text fill="#000000" font-family="sans-serif" font-size="13" lengthAdjust="spacing" textLength="66" x="1119.5" y="926.7031">actuatorID</text><polygon fill="#181818" points="1976,956.7559,1986,960.7559,1976,964.7559,1980,960.7559" style="stroke:#181818;stroke-width:1.0;"/><line style="stroke:#181818;stroke-width:1.0;" x1="1080.5" x2="1982" y1="960.7559" y2="960.7559"/><text fill="#000000" font-family="sans-serif" font-size="13" font-weight="bold" lengthAdjust="spacing" textLength="18" x="1087.5" y="956.0137">20</text><text fill="#000000" font-family="sans-serif" font-size="13" lengthAdjust="spacing" textLength="192" x="1109.5" y="956.0137">containsEntityByID(actuatorID)</text><polygon fill="#181818" points="1091.5,986.0664,1081.5,990.0664,1091.5,994.0664,1087.5,990.0664" style="stroke:#181818;stroke-width:1.0;"/><line style="stroke:#181818;stroke-width:1.0;stroke-dasharray:2.0,2.0;" x1="1085.5" x2="1987" y1="990.0664" y2="990.0664"/><text fill="#000000" font-family="sans-serif" font-size="13" font-weight="bold" lengthAdjust="spacing" textLength="18" x="1097.5" y="985.3242">21</text><text fill="#000000" font-family="sans-serif" font-size="13" lengthAdjust="spacing" textLength="30" x="1119.5" y="985.3242">false</text><polygon fill="#181818" points="1976,1015.377,1986,1019.377,1976,1023.377,1980,1019.377" style="stroke:#181818;stroke-width:1.0;"/><line style="stroke:#181818;stroke-width:1.0;" x1="1080.5" x2="1982" y1="1019.377" y2="1019.377"/><text fill="#000000" font-family="sans-serif" font-size="13" font-weight="bold" lengthAdjust="spacing" textLength="18" x="1087.5" y="1014.6348">22</text><text fill="#000000" font-family="sans-serif" font-size="13" lengthAdjust="spacing" textLength="88" x="1109.5" y="1014.6348">save(actuator)</text><polygon fill="#181818" points="1091.5,1044.6875,1081.5,1048.6875,1091.5,1052.6875,1087.5,1048.6875" style="stroke:#181818;stroke-width:1.0;"/><line style="stroke:#181818;stroke-width:1.0;stroke-dasharray:2.0,2.0;" x1="1085.5" x2="1987" y1="1048.6875" y2="1048.6875"/><text fill="#000000" font-family="sans-serif" font-size="13" font-weight="bold" lengthAdjust="spacing" textLength="18" x="1097.5" y="1043.9453">23</text><text fill="#000000" font-family="sans-serif" font-size="13" lengthAdjust="spacing" textLength="52" x="1119.5" y="1043.9453">actuator</text><polygon fill="#181818" points="290,1073.998,280,1077.998,290,1081.998,286,1077.998" style="stroke:#181818;stroke-width:1.0;"/><line style="stroke:#181818;stroke-width:1.0;stroke-dasharray:2.0,2.0;" x1="284" x2="1069.5" y1="1077.998" y2="1077.998"/><text fill="#000000" font-family="sans-serif" font-size="13" font-weight="bold" lengthAdjust="spacing" textLength="18" x="296" y="1073.2559">24</text><text fill="#000000" font-family="sans-serif" font-size="13" lengthAdjust="spacing" textLength="66" x="318" y="1073.2559">actuatorID</text><rect fill="#E2E2F0" height="46.9766" rx="2.5" ry="2.5" style="stroke:#181818;stroke-width:0.5;" width="105" x="2078" y="1085.998"/><text fill="#000000" font-family="sans-serif" font-size="14" lengthAdjust="spacing" textLength="91" x="2085" y="1106.5332">actuatorDTO:</text><text fill="#000000" font-family="sans-serif" font-size="14" lengthAdjust="spacing" textLength="89" x="2086" y="1123.0215">ActuatorDTO</text><polygon fill="#181818" points="2066,1103.3086,2076,1107.3086,2066,1111.3086,2070,1107.3086" style="stroke:#181818;stroke-width:1.0;"/><line style="stroke:#181818;stroke-width:1.0;stroke-dasharray:2.0,2.0;" x1="279" x2="2072" y1="1107.3086" y2="1107.3086"/><text fill="#000000" font-family="sans-serif" font-size="13" font-weight="bold" lengthAdjust="spacing" textLength="18" x="286" y="1102.5664">25</text><text fill="#000000" font-family="sans-serif" font-size="13" lengthAdjust="spacing" textLength="52" x="308" y="1102.5664">&#171;create&#187;</text><ellipse cx="10.5" cy="1154.5352" fill="none" rx="4" ry="4" style="stroke:#181818;stroke-width:1.5;"/><polygon fill="#181818" points="27.5,1151.2852,17.5,1155.2852,27.5,1159.2852,23.5,1155.2852" style="stroke:#181818;stroke-width:1.0;"/><line style="stroke:#181818;stroke-width:1.0;stroke-dasharray:2.0,2.0;" x1="25.5" x2="268" y1="1155.2852" y2="1155.2852"/><text fill="#000000" font-family="sans-serif" font-size="13" font-weight="bold" lengthAdjust="spacing" textLength="18" x="28" y="1150.543">26</text><text fill="#000000" font-family="sans-serif" font-size="13" lengthAdjust="spacing" textLength="80" x="50" y="1150.543">actuatorDTO</text><!--SRC=[ZLPDSzem4BthLspJGqW6EaqEFNWOPXni4iyGdB5Dfssu2AnGJq1YP96K_lhAtxAGtToGsDttzaDlZO-2qUD-JJX28X4x0ilfpUsNMx3Z62Xv1tiZZbWm3eA1GzwI3K7equ7ZxHw38Eml27wKLsls1ox6u_2u3a-f8Fl9P4MjExnv9JI-WCyEvg_td9mAEnYFfumAd532SyEGy3V2fTqysVuMkU41Sv5iaWEc0YuioMP1tYik4IkOP44us-qoLvn2Sym1zWT62HMJIJiMBeFCZdGZ4aRnBX4dpx5Mr3R_ayVMximXMr5An-ROzedp378Ff_oPsrU7jlM1imEHPv8-ueFybU6aATclPR8LmbDjamV2rVzwAKlphEOIgKMolEihdrKG3CY1fObqEIcicyk-24NcTTwAVmVJLkqru4wRtXncicCoGkLSTBYu-yZeA5rkaUZWtq7vVomhD2Vo5K1vAjhRd95yOo0V5aANeJkDF7y1Cp-0UpUAlCKzH0ykpBqm0dy6WUy_Xk0jm8O7VncwO2ySSDpltjGjhpCBnCaBCFaYbIU5bjEltqQXCvedgR1tkw9ZgKS3nlOv0-c4BbqPhoIXqGdSAF0aacIKWRe_8ZTOs7FlLtPJyPij5xc7l8yyD-mW8WNgfgPIrY5L9q2-WOzGcWQkdPV81diQBUt83z0p6qqKD0isd611AXYRnY5-8n5JPdr51qethf0y96_IHoMD574QIGHDJwwlBJaA1PIS0ysuqP1-kqex-grgOT3CMdQAcLw2HcTcdEsLkUoeGYD4zQ-SXrfaV1ORnSGGGUEewLP7imOTaZ-4HhY71Wf3g4HQoKQ3HBfqrcre1iI2buJ6BfNxzNGdSGU6iBeFEbFKaIdV8f9QgxD0tGmjI58xyoE3CoOblXarN_bdc4QaJdssO4l4T2TRky1xCcEyO_jsDS_GaZCCrBqTZ7c5WYTqMqz2paxDinl8b7gvKFIX79Y6Jf_C5UsTns6RerAB4XHLsqpDKtll9fEw55LyDVqgTe-YXdOXyAMQPYibS9_yq9E7dttp8MSn9laB6HWwMtlsavLVJOPkzS4MaxWfFaPJvOas8GrqMhFLFKulU9UI_wEdgaHTVI2kgJSjQkUO7N9hBbWbRMUBev5tRPIUsNWqCY9adoSAXB8HMrFq3m00]--></g></svg>