<?xml version="1.0" encoding="us-ascii" standalone="no"?><svg xmlns="http://www.w3.org/2000/svg" xmlns:xlink="http://www.w3.org/1999/xlink" contentStyleType="text/css" height="998px" preserveAspectRatio="none" style="width:1970px;height:998px;background:#FFFFFF;" version="1.1" viewBox="0 0 1970 998" width="1970px" zoomAndPan="magnify"><defs/><g><rect fill="#A9A9A9" height="947.2734" style="stroke:#181818;stroke-width:0.5;" width="1846" x="106" y="45.6211"/><text fill="#000000" font-family="sans-serif" font-size="13" font-weight="bold" lengthAdjust="spacing" textLength="85" x="986.5" y="59.6494">&#171;SubSystem&#187;</text><text fill="#000000" font-family="sans-serif" font-size="13" font-weight="bold" lengthAdjust="spacing" textLength="59" x="986.5" y="76.9404">:Backend</text><rect fill="#D3D3D3" height="907.6914" style="stroke:#181818;stroke-width:0.5;" width="1846" x="106" y="85.2031"/><text fill="#000000" font-family="sans-serif" font-size="13" font-weight="bold" lengthAdjust="spacing" textLength="76" x="993" y="99.2314">&#171;Container&#187;</text><text fill="#000000" font-family="sans-serif" font-size="13" font-weight="bold" lengthAdjust="spacing" textLength="46" x="989" y="116.5225">:Server</text><text fill="#000000" font-family="sans-serif" font-size="14" font-weight="bold" lengthAdjust="spacing" textLength="252" x="862.5" y="30.1074">UC12.1 List Actuator Functionalities.</text><line style="stroke:#181818;stroke-width:0.5;stroke-dasharray:5.0,5.0;" x1="233" x2="233" y1="176.0273" y2="934.6523"/><rect fill="#FFFFFF" height="709.334" style="stroke:#181818;stroke-width:1.0;" width="10" x="228" y="207.3184"/><line style="stroke:#181818;stroke-width:0.5;stroke-dasharray:5.0,5.0;" x1="480.5" x2="480.5" y1="215.3184" y2="934.6523"/><rect fill="#FFFFFF" height="258.6484" style="stroke:#181818;stroke-width:1.0;" width="10" x="475.5" y="626.7129"/><line style="stroke:#181818;stroke-width:0.5;stroke-dasharray:5.0,5.0;" x1="819.5" x2="819.5" y1="176.0273" y2="934.6523"/><rect fill="#FFFFFF" height="287.2793" style="stroke:#181818;stroke-width:1.0;" width="10" x="814.5" y="290.8516"/><line style="stroke:#181818;stroke-width:0.5;stroke-dasharray:5.0,5.0;" x1="1045.5" x2="1045.5" y1="176.0273" y2="934.6523"/><rect fill="#FFFFFF" height="31.291" style="stroke:#181818;stroke-width:1.0;" width="10" x="1040.5" y="322.1426"/><line style="stroke:#181818;stroke-width:0.5;stroke-dasharray:5.0,5.0;" x1="1266" x2="1266" y1="361.4336" y2="934.6523"/><rect fill="#FFFFFF" height="13" style="stroke:#181818;stroke-width:1.0;" width="10" x="1261" y="532.8398"/><line style="stroke:#181818;stroke-width:0.5;stroke-dasharray:5.0,5.0;" x1="1452.5" x2="1452.5" y1="176.0273" y2="934.6523"/><rect fill="#FFFFFF" height="31.291" style="stroke:#181818;stroke-width:1.0;" width="10" x="1447.5" y="470.2578"/><line style="stroke:#181818;stroke-width:0.5;stroke-dasharray:5.0,5.0;" x1="1647.5" x2="1647.5" y1="634.7129" y2="934.6523"/><rect fill="#FFFFFF" height="13" style="stroke:#181818;stroke-width:1.0;" width="10" x="1642.5" y="840.0703"/><line style="stroke:#181818;stroke-width:0.5;stroke-dasharray:5.0,5.0;" x1="1857.5" x2="1857.5" y1="764.5371" y2="934.6523"/><rect fill="#E2E2F0" height="51.2422" rx="2.5" ry="2.5" style="stroke:#181818;stroke-width:0.5;" width="246" x="110" y="123.7852"/><text fill="#000000" font-family="sans-serif" font-size="14" font-style="italic" lengthAdjust="spacing" textLength="89" x="188.5" y="145.8926">&#171;Component&#187;</text><text fill="#000000" font-family="sans-serif" font-size="14" lengthAdjust="spacing" textLength="232" x="117" y="164.5137">:ListActuatorFunctionalitiesController</text><rect fill="#E2E2F0" height="51.2422" rx="2.5" ry="2.5" style="stroke:#181818;stroke-width:0.5;" width="198" x="720.5" y="123.7852"/><text fill="#000000" font-family="sans-serif" font-size="14" font-style="italic" lengthAdjust="spacing" textLength="89" x="775" y="145.8926">&#171;Component&#187;</text><text fill="#000000" font-family="sans-serif" font-size="14" lengthAdjust="spacing" textLength="184" x="727.5" y="164.5137">:ActuatorFunctionalityService</text><rect fill="#E2E2F0" height="51.2422" rx="2.5" ry="2.5" style="stroke:#181818;stroke-width:0.5;" width="219" x="936" y="123.7852"/><text fill="#000000" font-family="sans-serif" font-size="14" font-style="italic" lengthAdjust="spacing" textLength="89" x="1001" y="145.8926">&#171;Component&#187;</text><text fill="#000000" font-family="sans-serif" font-size="14" lengthAdjust="spacing" textLength="205" x="943" y="164.5137">:ActuatorFunctionalityRepository</text><rect fill="#E2E2F0" height="51.2422" rx="2.5" ry="2.5" style="stroke:#181818;stroke-width:0.5;" width="151" x="1377" y="123.7852"/><text fill="#000000" font-family="sans-serif" font-size="14" lengthAdjust="spacing" textLength="132" x="1386.5" y="145.8926">actuatorFunctionality</text><text fill="#000000" font-family="sans-serif" font-size="14" lengthAdjust="spacing" textLength="137" x="1384" y="164.5137">:ActuatorFunctionality</text><rect fill="#E2E2F0" height="51.2422" rx="2.5" ry="2.5" style="stroke:#181818;stroke-width:0.5;" width="246" x="110" y="934.6523"/><text fill="#000000" font-family="sans-serif" font-size="14" font-style="italic" lengthAdjust="spacing" textLength="89" x="188.5" y="956.7598">&#171;Component&#187;</text><text fill="#000000" font-family="sans-serif" font-size="14" lengthAdjust="spacing" textLength="232" x="117" y="975.3809">:ListActuatorFunctionalitiesController</text><rect fill="#E2E2F0" height="51.2422" rx="2.5" ry="2.5" style="stroke:#181818;stroke-width:0.5;" width="229" x="366" y="934.6523"/><text fill="#000000" font-family="sans-serif" font-size="14" lengthAdjust="spacing" textLength="136" x="412.5" y="956.7598">actuatorFunctMapper</text><text fill="#000000" font-family="sans-serif" font-size="14" lengthAdjust="spacing" textLength="215" x="373" y="975.3809">:ActuatorFunctionalityMapperDTO</text><rect fill="#E2E2F0" height="51.2422" rx="2.5" ry="2.5" style="stroke:#181818;stroke-width:0.5;" width="198" x="720.5" y="934.6523"/><text fill="#000000" font-family="sans-serif" font-size="14" font-style="italic" lengthAdjust="spacing" textLength="89" x="775" y="956.7598">&#171;Component&#187;</text><text fill="#000000" font-family="sans-serif" font-size="14" lengthAdjust="spacing" textLength="184" x="727.5" y="975.3809">:ActuatorFunctionalityService</text><rect fill="#E2E2F0" height="51.2422" rx="2.5" ry="2.5" style="stroke:#181818;stroke-width:0.5;" width="219" x="936" y="934.6523"/><text fill="#000000" font-family="sans-serif" font-size="14" font-style="italic" lengthAdjust="spacing" textLength="89" x="1001" y="956.7598">&#171;Component&#187;</text><text fill="#000000" font-family="sans-serif" font-size="14" lengthAdjust="spacing" textLength="205" x="943" y="975.3809">:ActuatorFunctionalityRepository</text><rect fill="#E2E2F0" height="51.2422" rx="2.5" ry="2.5" style="stroke:#181818;stroke-width:0.5;" width="202" x="1165" y="934.6523"/><text fill="#000000" font-family="sans-serif" font-size="14" lengthAdjust="spacing" textLength="134" x="1199" y="956.7598">listOfActuatorFunctID</text><text fill="#000000" font-family="sans-serif" font-size="14" lengthAdjust="spacing" textLength="188" x="1172" y="975.3809">:List&lt;ActuatorFunctionalityID&gt;</text><rect fill="#E2E2F0" height="51.2422" rx="2.5" ry="2.5" style="stroke:#181818;stroke-width:0.5;" width="151" x="1377" y="934.6523"/><text fill="#000000" font-family="sans-serif" font-size="14" lengthAdjust="spacing" textLength="132" x="1386.5" y="956.7598">actuatorFunctionality</text><text fill="#000000" font-family="sans-serif" font-size="14" lengthAdjust="spacing" textLength="137" x="1384" y="975.3809">:ActuatorFunctionality</text><rect fill="#E2E2F0" height="51.2422" rx="2.5" ry="2.5" style="stroke:#181818;stroke-width:0.5;" width="219" x="1538" y="934.6523"/><text fill="#000000" font-family="sans-serif" font-size="14" lengthAdjust="spacing" textLength="151" x="1572" y="956.7598">listOfActuatorFunctDTO</text><text fill="#000000" font-family="sans-serif" font-size="14" lengthAdjust="spacing" textLength="205" x="1545" y="975.3809">:List&lt;ActuatorFunctionalityDTO&gt;</text><rect fill="#E2E2F0" height="51.2422" rx="2.5" ry="2.5" style="stroke:#181818;stroke-width:0.5;" width="181" x="1767" y="934.6523"/><text fill="#000000" font-family="sans-serif" font-size="14" lengthAdjust="spacing" textLength="162" x="1776.5" y="956.7598">actuatorFunctionalityDTO</text><text fill="#000000" font-family="sans-serif" font-size="14" lengthAdjust="spacing" textLength="167" x="1774" y="975.3809">:ActuatorFunctionalityDTO</text><polygon fill="#181818" points="216,203.3184,226,207.3184,216,211.3184,220,207.3184" style="stroke:#181818;stroke-width:1.0;"/><line style="stroke:#181818;stroke-width:1.0;" x1="5" x2="222" y1="207.3184" y2="207.3184"/><text fill="#000000" font-family="sans-serif" font-size="13" font-weight="bold" lengthAdjust="spacing" textLength="7" x="12" y="202.0557">1</text><text fill="#000000" font-family="sans-serif" font-size="13" lengthAdjust="spacing" textLength="193" x="23" y="202.0557">getListOfActuatorFunctionalities()</text><rect fill="#E2E2F0" height="51.2422" rx="2.5" ry="2.5" style="stroke:#181818;stroke-width:0.5;" width="229" x="366" y="215.3184"/><text fill="#000000" font-family="sans-serif" font-size="14" lengthAdjust="spacing" textLength="136" x="412.5" y="237.4258">actuatorFunctMapper</text><text fill="#000000" font-family="sans-serif" font-size="14" lengthAdjust="spacing" textLength="215" x="373" y="256.0469">:ActuatorFunctionalityMapperDTO</text><polygon fill="#181818" points="354,234.6094,364,238.6094,354,242.6094,358,238.6094" style="stroke:#181818;stroke-width:1.0;"/><line style="stroke:#181818;stroke-width:1.0;stroke-dasharray:2.0,2.0;" x1="238" x2="360" y1="238.6094" y2="238.6094"/><text fill="#000000" font-family="sans-serif" font-size="13" font-weight="bold" lengthAdjust="spacing" textLength="7" x="245" y="233.3467">2</text><text fill="#000000" font-family="sans-serif" font-size="13" lengthAdjust="spacing" textLength="50" x="256" y="233.3467">&#171;create&#187;</text><polygon fill="#181818" points="802.5,286.8516,812.5,290.8516,802.5,294.8516,806.5,290.8516" style="stroke:#181818;stroke-width:1.0;"/><line style="stroke:#181818;stroke-width:1.0;" x1="238" x2="808.5" y1="290.8516" y2="290.8516"/><text fill="#000000" font-family="sans-serif" font-size="13" font-weight="bold" lengthAdjust="spacing" textLength="7" x="245" y="285.5889">3</text><text fill="#000000" font-family="sans-serif" font-size="13" lengthAdjust="spacing" textLength="193" x="256" y="285.5889">getListOfActuatorFunctionalities()</text><polygon fill="#181818" points="1028.5,318.1426,1038.5,322.1426,1028.5,326.1426,1032.5,322.1426" style="stroke:#181818;stroke-width:1.0;"/><line style="stroke:#181818;stroke-width:1.0;" x1="824.5" x2="1034.5" y1="322.1426" y2="322.1426"/><text fill="#000000" font-family="sans-serif" font-size="13" font-weight="bold" lengthAdjust="spacing" textLength="7" x="831.5" y="316.8799">4</text><text fill="#000000" font-family="sans-serif" font-size="13" lengthAdjust="spacing" textLength="87" x="842.5" y="316.8799">findAllEntities()</text><polygon fill="#181818" points="835.5,349.4336,825.5,353.4336,835.5,357.4336,831.5,353.4336" style="stroke:#181818;stroke-width:1.0;"/><line style="stroke:#181818;stroke-width:1.0;stroke-dasharray:2.0,2.0;" x1="829.5" x2="1039.5" y1="353.4336" y2="353.4336"/><text fill="#000000" font-family="sans-serif" font-size="13" font-weight="bold" lengthAdjust="spacing" textLength="7" x="841.5" y="348.1709">5</text><text fill="#000000" font-family="sans-serif" font-size="13" lengthAdjust="spacing" textLength="181" x="852.5" y="348.1709">Iterable&lt;ActuatorFunctionality&gt;</text><rect fill="#E2E2F0" height="51.2422" rx="2.5" ry="2.5" style="stroke:#181818;stroke-width:0.5;" width="202" x="1165" y="361.4336"/><text fill="#000000" font-family="sans-serif" font-size="14" lengthAdjust="spacing" textLength="134" x="1199" y="383.541">listOfActuatorFunctID</text><text fill="#000000" font-family="sans-serif" font-size="14" lengthAdjust="spacing" textLength="188" x="1172" y="402.1621">:List&lt;ActuatorFunctionalityID&gt;</text><polygon fill="#181818" points="1153,380.7246,1163,384.7246,1153,388.7246,1157,384.7246" style="stroke:#181818;stroke-width:1.0;"/><line style="stroke:#181818;stroke-width:1.0;" x1="824.5" x2="1159" y1="384.7246" y2="384.7246"/><text fill="#000000" font-family="sans-serif" font-size="13" font-weight="bold" lengthAdjust="spacing" textLength="7" x="831.5" y="379.4619">6</text><text fill="#000000" font-family="sans-serif" font-size="13" lengthAdjust="spacing" textLength="50" x="842.5" y="379.4619">&#171;create&#187;</text><path d="M803.5,417.6758 L876.5,417.6758 L876.5,426.9668 L866.5,436.9668 L803.5,436.9668 L803.5,417.6758 " fill="#EEEEEE" style="stroke:#000000;stroke-width:1.5;"/><rect fill="none" height="123.1641" style="stroke:#000000;stroke-width:1.5;" width="740.5" x="803.5" y="417.6758"/><text fill="#000000" font-family="sans-serif" font-size="13" font-weight="bold" lengthAdjust="spacing" textLength="28" x="818.5" y="432.7041">loop</text><text fill="#000000" font-family="sans-serif" font-size="11" font-weight="bold" lengthAdjust="spacing" textLength="233" x="891.5" y="431.5459">[for each Actuator Functionality in Iterable]</text><polygon fill="#181818" points="1435.5,466.2578,1445.5,470.2578,1435.5,474.2578,1439.5,470.2578" style="stroke:#181818;stroke-width:1.0;"/><line style="stroke:#181818;stroke-width:1.0;" x1="824.5" x2="1441.5" y1="470.2578" y2="470.2578"/><text fill="#000000" font-family="sans-serif" font-size="13" font-weight="bold" lengthAdjust="spacing" textLength="7" x="831.5" y="464.9951">7</text><text fill="#000000" font-family="sans-serif" font-size="13" lengthAdjust="spacing" textLength="50" x="842.5" y="464.9951">identity()</text><polygon fill="#181818" points="835.5,497.5488,825.5,501.5488,835.5,505.5488,831.5,501.5488" style="stroke:#181818;stroke-width:1.0;"/><line style="stroke:#181818;stroke-width:1.0;stroke-dasharray:2.0,2.0;" x1="829.5" x2="1446.5" y1="501.5488" y2="501.5488"/><text fill="#000000" font-family="sans-serif" font-size="13" font-weight="bold" lengthAdjust="spacing" textLength="7" x="841.5" y="496.2861">8</text><text fill="#000000" font-family="sans-serif" font-size="13" lengthAdjust="spacing" textLength="133" x="852.5" y="496.2861">actuatorFunctionalityID</text><polygon fill="#181818" points="1249,528.8398,1259,532.8398,1249,536.8398,1253,532.8398" style="stroke:#181818;stroke-width:1.0;"/><line style="stroke:#181818;stroke-width:1.0;" x1="824.5" x2="1255" y1="532.8398" y2="532.8398"/><text fill="#000000" font-family="sans-serif" font-size="13" font-weight="bold" lengthAdjust="spacing" textLength="7" x="831.5" y="527.5771">9</text><text fill="#000000" font-family="sans-serif" font-size="13" lengthAdjust="spacing" textLength="159" x="842.5" y="527.5771">put(actuatorFunctionalityID)</text><polygon fill="#181818" points="249,574.1309,239,578.1309,249,582.1309,245,578.1309" style="stroke:#181818;stroke-width:1.0;"/><line style="stroke:#181818;stroke-width:1.0;stroke-dasharray:2.0,2.0;" x1="243" x2="813.5" y1="578.1309" y2="578.1309"/><text fill="#000000" font-family="sans-serif" font-size="13" font-weight="bold" lengthAdjust="spacing" textLength="14" x="255" y="572.8682">10</text><text fill="#000000" font-family="sans-serif" font-size="13" lengthAdjust="spacing" textLength="124" x="273" y="572.8682">listOfActuatorFunctID</text><polygon fill="#181818" points="463.5,622.7129,473.5,626.7129,463.5,630.7129,467.5,626.7129" style="stroke:#181818;stroke-width:1.0;"/><line style="stroke:#181818;stroke-width:1.0;" x1="238" x2="469.5" y1="626.7129" y2="626.7129"/><text fill="#000000" font-family="sans-serif" font-size="13" font-weight="bold" lengthAdjust="spacing" textLength="14" x="245" y="612.8047">11</text><text fill="#000000" font-family="sans-serif" font-size="13" lengthAdjust="spacing" textLength="182" x="263" y="604.1592">actuatorFunctionalityToDTOList</text><text fill="#000000" font-family="sans-serif" font-size="13" lengthAdjust="spacing" textLength="132" x="263" y="621.4502">(listOfActuatorFunctID)</text><rect fill="#E2E2F0" height="51.2422" rx="2.5" ry="2.5" style="stroke:#181818;stroke-width:0.5;" width="219" x="1538" y="634.7129"/><text fill="#000000" font-family="sans-serif" font-size="14" lengthAdjust="spacing" textLength="151" x="1572" y="656.8203">listOfActuatorFunctDTO</text><text fill="#000000" font-family="sans-serif" font-size="14" lengthAdjust="spacing" textLength="205" x="1545" y="675.4414">:List&lt;ActuatorFunctionalityDTO&gt;</text><polygon fill="#181818" points="1526,654.0039,1536,658.0039,1526,662.0039,1530,658.0039" style="stroke:#181818;stroke-width:1.0;"/><line style="stroke:#181818;stroke-width:1.0;stroke-dasharray:2.0,2.0;" x1="485.5" x2="1532" y1="658.0039" y2="658.0039"/><text fill="#000000" font-family="sans-serif" font-size="13" font-weight="bold" lengthAdjust="spacing" textLength="14" x="492.5" y="652.7412">12</text><text fill="#000000" font-family="sans-serif" font-size="13" lengthAdjust="spacing" textLength="50" x="510.5" y="652.7412">&#171;create&#187;</text><path d="M464.5,690.9551 L537.5,690.9551 L537.5,700.2461 L527.5,710.2461 L464.5,710.2461 L464.5,690.9551 " fill="#EEEEEE" style="stroke:#000000;stroke-width:1.5;"/><rect fill="none" height="157.1152" style="stroke:#000000;stroke-width:1.5;" width="1499.5" x="464.5" y="690.9551"/><text fill="#000000" font-family="sans-serif" font-size="13" font-weight="bold" lengthAdjust="spacing" textLength="28" x="479.5" y="705.9834">loop</text><text fill="#000000" font-family="sans-serif" font-size="11" font-weight="bold" lengthAdjust="spacing" textLength="219" x="552.5" y="704.8252">[for each ActuatorFunctionalityID in List]</text><line style="stroke:#181818;stroke-width:1.0;" x1="485.5" x2="527.5" y1="743.5371" y2="743.5371"/><line style="stroke:#181818;stroke-width:1.0;" x1="527.5" x2="527.5" y1="743.5371" y2="756.5371"/><line style="stroke:#181818;stroke-width:1.0;" x1="486.5" x2="527.5" y1="756.5371" y2="756.5371"/><polygon fill="#181818" points="496.5,752.5371,486.5,756.5371,496.5,760.5371,492.5,756.5371" style="stroke:#181818;stroke-width:1.0;"/><text fill="#000000" font-family="sans-serif" font-size="13" font-weight="bold" lengthAdjust="spacing" textLength="14" x="492.5" y="738.2744">13</text><text fill="#000000" font-family="sans-serif" font-size="13" lengthAdjust="spacing" textLength="302" x="510.5" y="738.2744">actuatorFunctionalityToDTO(actuatorFunctionalityID)</text><rect fill="#E2E2F0" height="51.2422" rx="2.5" ry="2.5" style="stroke:#181818;stroke-width:0.5;" width="181" x="1767" y="764.5371"/><text fill="#000000" font-family="sans-serif" font-size="14" lengthAdjust="spacing" textLength="162" x="1776.5" y="786.6445">actuatorFunctionalityDTO</text><text fill="#000000" font-family="sans-serif" font-size="14" lengthAdjust="spacing" textLength="167" x="1774" y="805.2656">:ActuatorFunctionalityDTO</text><polygon fill="#181818" points="1755,783.8281,1765,787.8281,1755,791.8281,1759,787.8281" style="stroke:#181818;stroke-width:1.0;"/><line style="stroke:#181818;stroke-width:1.0;stroke-dasharray:2.0,2.0;" x1="485.5" x2="1761" y1="787.8281" y2="787.8281"/><text fill="#000000" font-family="sans-serif" font-size="13" font-weight="bold" lengthAdjust="spacing" textLength="14" x="492.5" y="782.5654">14</text><text fill="#000000" font-family="sans-serif" font-size="13" lengthAdjust="spacing" textLength="50" x="510.5" y="782.5654">&#171;create&#187;</text><polygon fill="#181818" points="1630.5,836.0703,1640.5,840.0703,1630.5,844.0703,1634.5,840.0703" style="stroke:#181818;stroke-width:1.0;"/><line style="stroke:#181818;stroke-width:1.0;" x1="485.5" x2="1636.5" y1="840.0703" y2="840.0703"/><text fill="#000000" font-family="sans-serif" font-size="13" font-weight="bold" lengthAdjust="spacing" textLength="14" x="492.5" y="834.8076">15</text><text fill="#000000" font-family="sans-serif" font-size="13" lengthAdjust="spacing" textLength="176" x="510.5" y="834.8076">add(actuatorFunctionalityDTO)</text><polygon fill="#181818" points="249,881.3613,239,885.3613,249,889.3613,245,885.3613" style="stroke:#181818;stroke-width:1.0;"/><line style="stroke:#181818;stroke-width:1.0;stroke-dasharray:2.0,2.0;" x1="243" x2="474.5" y1="885.3613" y2="885.3613"/><text fill="#000000" font-family="sans-serif" font-size="13" font-weight="bold" lengthAdjust="spacing" textLength="14" x="255" y="880.0986">16</text><text fill="#000000" font-family="sans-serif" font-size="13" lengthAdjust="spacing" textLength="138" x="273" y="880.0986">listOfActuatorFunctDTO</text><polygon fill="#181818" points="16,912.6523,6,916.6523,16,920.6523,12,916.6523" style="stroke:#181818;stroke-width:1.0;"/><line style="stroke:#181818;stroke-width:1.0;stroke-dasharray:2.0,2.0;" x1="10" x2="227" y1="916.6523" y2="916.6523"/><text fill="#000000" font-family="sans-serif" font-size="13" font-weight="bold" lengthAdjust="spacing" textLength="14" x="22" y="911.3896">17</text><text fill="#000000" font-family="sans-serif" font-size="13" lengthAdjust="spacing" textLength="138" x="40" y="911.3896">listOfActuatorFunctDTO</text><!--SRC=[dLN1Zjem4BtxArnwMBfIGDjZ54MY9AmYKP0WkwgglPXa06iJEtMSLUdNrmu1Gh2ptPuG7i-RDyzl9dTxAOlI7O-BZ31PvTaeuVcuX5yLi0ISb9AT83b2f9ASLVa614AIoWpmu6dwy7NqWEUqb7YIo8f8Bl2iOecad96CIWhbQ83GfqAGNKwm1Fu7Ir41GXl-6myyRrrjreTIGkxxBypzHf9NOEa0Vmw8U7qKS3ZUmvutvKmIoa3K5zSWta2eUtEwsylwOa64f0ajL0zuu6fA9qOTGXf9y2pJ-QJ4bxzrbRpW39Zq_Mj0qiRwJee2XA9Xgd0uHeDuMSERGnssHXpT8qtW5gK9zD4r8wwWu2LLfuTRK1thGyoKeClj5MmKA0cqq9wnMXJuTHbz8mfwv3mbs0IjKOoHToaggNivglY5vCsx44kAZQZnpJMgyZHMHZx_ehjL6A-Yy3bQFEB98i3XZpXSBIRpwAS-cKVh62zdUFQqcCRHKf_7KRX6Zjzogujt8EUtBL-CFlo2L0VqZKXevQ6MuHs5Q3Re_Rsht908KCdA2bT9lj6E7-DZGa16btVBQQEwU4jPEicoaCb-Q7qRtHhTiJOHIH1aau7PBpvAeQUGjOFZ37H4pJWly5PjJ0MvD-_F0wRiJCcARgJgOfg2bkVG5iSyHiRJ7f68UTxRufWBzUlZugAIGmjugubcexIgDITwlhIgjeVe391nfrbV-EJIdb4uZuz5efYhMFsrV653OtMRZozV3lDntLkpnFx9PXrrjSzqkXN-VpgrFsLF4ztbsUd6pg_fNX5Aqw5jTNTSf0NjsAZPrtqKt_5G1zJoZiXpd0yYjPRuNQY-6kkm_Zpy1G00]--></g></svg>