<?xml version="1.0" encoding="us-ascii" standalone="no"?><svg xmlns="http://www.w3.org/2000/svg" xmlns:xlink="http://www.w3.org/1999/xlink" contentStyleType="text/css" height="1139px" preserveAspectRatio="none" style="width:2423px;height:1139px;background:#FFFFFF;" version="1.1" viewBox="0 0 2423 1139" width="2423px" zoomAndPan="magnify"><defs/><g><rect fill="#A9A9A9" height="1088.1074" style="stroke:#181818;stroke-width:0.5;" width="2394.5" x="11" y="45.6211"/><text fill="#000000" font-family="sans-serif" font-size="13" font-weight="bold" lengthAdjust="spacing" textLength="85" x="1165.75" y="59.6494">&#171;SubSystem&#187;</text><text fill="#000000" font-family="sans-serif" font-size="13" font-weight="bold" lengthAdjust="spacing" textLength="76" x="1165.75" y="76.9404">&#171;Container&#187;</text><text fill="#000000" font-family="sans-serif" font-size="13" font-weight="bold" lengthAdjust="spacing" textLength="59" x="1165.75" y="94.2314">:Backend</text><rect fill="#D3D3D3" height="1031.2344" style="stroke:#181818;stroke-width:0.5;" width="2394.5" x="11" y="102.4941"/><text fill="#000000" font-family="sans-serif" font-size="13" font-weight="bold" lengthAdjust="spacing" textLength="87" x="1166.75" y="116.5225">&#171;Component&#187;</text><text fill="#000000" font-family="sans-serif" font-size="13" font-weight="bold" lengthAdjust="spacing" textLength="46" x="1162.75" y="133.8135">:Server</text><text fill="#000000" font-family="sans-serif" font-size="14" font-weight="bold" lengthAdjust="spacing" textLength="311" x="1059.75" y="30.1074">UC34.2 - List temperature sensors in device.</text><line style="stroke:#181818;stroke-width:0.5;stroke-dasharray:5.0,5.0;" x1="122.5" x2="122.5" y1="193.3184" y2="1075.4863"/><line style="stroke:#181818;stroke-width:0.5;stroke-dasharray:5.0,5.0;" x1="385" x2="385" y1="193.3184" y2="1075.4863"/><rect fill="#FFFFFF" height="784.625" style="stroke:#181818;stroke-width:1.0;" width="10" x="380" y="272.8613"/><line style="stroke:#181818;stroke-width:0.5;stroke-dasharray:5.0,5.0;" x1="621" x2="621" y1="193.3184" y2="1075.4863"/><rect fill="#FFFFFF" height="31.291" style="stroke:#181818;stroke-width:1.0;" width="10" x="616" y="304.1523"/><line style="stroke:#181818;stroke-width:0.5;stroke-dasharray:5.0,5.0;" x1="776" x2="776" y1="343.4434" y2="1075.4863"/><line style="stroke:#181818;stroke-width:0.5;stroke-dasharray:5.0,5.0;" x1="996" x2="996" y1="377.0645" y2="1075.4863"/><line style="stroke:#181818;stroke-width:0.5;stroke-dasharray:5.0,5.0;" x1="1207" x2="1207" y1="193.3184" y2="1075.4863"/><rect fill="#FFFFFF" height="287.2793" style="stroke:#181818;stroke-width:1.0;" width="10" x="1202" y="433.9766"/><line style="stroke:#181818;stroke-width:0.5;stroke-dasharray:5.0,5.0;" x1="1660" x2="1660" y1="193.3184" y2="1075.4863"/><rect fill="#FFFFFF" height="31.291" style="stroke:#181818;stroke-width:1.0;" width="10" x="1655" y="465.2676"/><line style="stroke:#181818;stroke-width:0.5;stroke-dasharray:5.0,5.0;" x1="1792.5" x2="1792.5" y1="504.5586" y2="1075.4863"/><rect fill="#FFFFFF" height="13" style="stroke:#181818;stroke-width:1.0;" width="10" x="1787.5" y="675.9648"/><line style="stroke:#181818;stroke-width:0.5;stroke-dasharray:5.0,5.0;" x1="1912.5" x2="1912.5" y1="193.3184" y2="1075.4863"/><rect fill="#FFFFFF" height="31.291" style="stroke:#181818;stroke-width:1.0;" width="10" x="1907.5" y="613.3828"/><line style="stroke:#181818;stroke-width:0.5;stroke-dasharray:5.0,5.0;" x1="2046" x2="2046" y1="729.2559" y2="1075.4863"/><rect fill="#FFFFFF" height="240.0273" style="stroke:#181818;stroke-width:1.0;" width="10" x="2041" y="786.168"/><line style="stroke:#181818;stroke-width:0.5;stroke-dasharray:5.0,5.0;" x1="2233" x2="2233" y1="794.168" y2="1075.4863"/><rect fill="#FFFFFF" height="13" style="stroke:#181818;stroke-width:1.0;" width="10" x="2228" y="980.9043"/><line style="stroke:#181818;stroke-width:0.5;stroke-dasharray:5.0,5.0;" x1="2355" x2="2355" y1="923.9922" y2="1075.4863"/><rect fill="#E2E2F0" height="51.2422" rx="2.5" ry="2.5" style="stroke:#181818;stroke-width:0.5;" width="215" x="15" y="141.0762"/><text fill="#000000" font-family="sans-serif" font-size="14" font-style="italic" lengthAdjust="spacing" textLength="89" x="78" y="163.1836">&#171;Component&#187;</text><text fill="#000000" font-family="sans-serif" font-size="14" lengthAdjust="spacing" textLength="201" x="22" y="181.8047">:ListAllDevicesInRoomController</text><rect fill="#E2E2F0" height="51.2422" rx="2.5" ry="2.5" style="stroke:#181818;stroke-width:0.5;" width="290" x="240" y="141.0762"/><text fill="#000000" font-family="sans-serif" font-size="14" font-style="italic" lengthAdjust="spacing" textLength="89" x="340.5" y="163.1836">&#171;Component&#187;</text><text fill="#000000" font-family="sans-serif" font-size="14" lengthAdjust="spacing" textLength="276" x="247" y="181.8047">:ListTemperatureSensorsInDeviceController</text><rect fill="#E2E2F0" height="32.6211" rx="2.5" ry="2.5" style="stroke:#181818;stroke-width:0.5;" width="162" x="540" y="159.6973"/><text fill="#000000" font-family="sans-serif" font-size="14" lengthAdjust="spacing" textLength="148" x="547" y="181.8047">deviceDTO:DeviceDTO</text><rect fill="#E2E2F0" height="51.2422" rx="2.5" ry="2.5" style="stroke:#181818;stroke-width:0.5;" width="110" x="1152" y="141.0762"/><text fill="#000000" font-family="sans-serif" font-size="14" font-style="italic" lengthAdjust="spacing" textLength="89" x="1162.5" y="163.1836">&#171;Component&#187;</text><text fill="#000000" font-family="sans-serif" font-size="14" lengthAdjust="spacing" textLength="96" x="1159" y="181.8047">:SensorService</text><rect fill="#E2E2F0" height="51.2422" rx="2.5" ry="2.5" style="stroke:#181818;stroke-width:0.5;" width="131" x="1594.5" y="141.0762"/><text fill="#000000" font-family="sans-serif" font-size="14" font-style="italic" lengthAdjust="spacing" textLength="89" x="1615.5" y="163.1836">&#171;Component&#187;</text><text fill="#000000" font-family="sans-serif" font-size="14" lengthAdjust="spacing" textLength="117" x="1601.5" y="181.8047">:SensorRepository</text><rect fill="#E2E2F0" height="32.6211" rx="2.5" ry="2.5" style="stroke:#181818;stroke-width:0.5;" width="106" x="1859.5" y="159.6973"/><text fill="#000000" font-family="sans-serif" font-size="14" lengthAdjust="spacing" textLength="92" x="1866.5" y="181.8047">sensor:Sensor</text><rect fill="#E2E2F0" height="51.2422" rx="2.5" ry="2.5" style="stroke:#181818;stroke-width:0.5;" width="215" x="15" y="1075.4863"/><text fill="#000000" font-family="sans-serif" font-size="14" font-style="italic" lengthAdjust="spacing" textLength="89" x="78" y="1097.5938">&#171;Component&#187;</text><text fill="#000000" font-family="sans-serif" font-size="14" lengthAdjust="spacing" textLength="201" x="22" y="1116.2148">:ListAllDevicesInRoomController</text><rect fill="#E2E2F0" height="51.2422" rx="2.5" ry="2.5" style="stroke:#181818;stroke-width:0.5;" width="290" x="240" y="1075.4863"/><text fill="#000000" font-family="sans-serif" font-size="14" font-style="italic" lengthAdjust="spacing" textLength="89" x="340.5" y="1097.5938">&#171;Component&#187;</text><text fill="#000000" font-family="sans-serif" font-size="14" lengthAdjust="spacing" textLength="276" x="247" y="1116.2148">:ListTemperatureSensorsInDeviceController</text><rect fill="#E2E2F0" height="32.6211" rx="2.5" ry="2.5" style="stroke:#181818;stroke-width:0.5;" width="162" x="540" y="1075.4863"/><text fill="#000000" font-family="sans-serif" font-size="14" lengthAdjust="spacing" textLength="148" x="547" y="1097.5938">deviceDTO:DeviceDTO</text><rect fill="#E2E2F0" height="32.6211" rx="2.5" ry="2.5" style="stroke:#181818;stroke-width:0.5;" width="128" x="712" y="1075.4863"/><text fill="#000000" font-family="sans-serif" font-size="14" lengthAdjust="spacing" textLength="114" x="719" y="1097.5938">deviceID:DeviceID</text><rect fill="#E2E2F0" height="32.6211" rx="2.5" ry="2.5" style="stroke:#181818;stroke-width:0.5;" width="292" x="850" y="1075.4863"/><text fill="#000000" font-family="sans-serif" font-size="14" lengthAdjust="spacing" textLength="278" x="857" y="1097.5938">sensorFunctionalityID:SensorFunctionalityID</text><rect fill="#E2E2F0" height="51.2422" rx="2.5" ry="2.5" style="stroke:#181818;stroke-width:0.5;" width="110" x="1152" y="1075.4863"/><text fill="#000000" font-family="sans-serif" font-size="14" font-style="italic" lengthAdjust="spacing" textLength="89" x="1162.5" y="1097.5938">&#171;Component&#187;</text><text fill="#000000" font-family="sans-serif" font-size="14" lengthAdjust="spacing" textLength="96" x="1159" y="1116.2148">:SensorService</text><rect fill="#E2E2F0" height="51.2422" rx="2.5" ry="2.5" style="stroke:#181818;stroke-width:0.5;" width="131" x="1594.5" y="1075.4863"/><text fill="#000000" font-family="sans-serif" font-size="14" font-style="italic" lengthAdjust="spacing" textLength="89" x="1615.5" y="1097.5938">&#171;Component&#187;</text><text fill="#000000" font-family="sans-serif" font-size="14" lengthAdjust="spacing" textLength="117" x="1601.5" y="1116.2148">:SensorRepository</text><rect fill="#E2E2F0" height="51.2422" rx="2.5" ry="2.5" style="stroke:#181818;stroke-width:0.5;" width="114" x="1735.5" y="1075.4863"/><text fill="#000000" font-family="sans-serif" font-size="14" lengthAdjust="spacing" textLength="97" x="1744" y="1097.5938">listOfSensorIDs</text><text fill="#000000" font-family="sans-serif" font-size="14" lengthAdjust="spacing" textLength="100" x="1742.5" y="1116.2148">:List&lt;SensorID&gt;</text><rect fill="#E2E2F0" height="32.6211" rx="2.5" ry="2.5" style="stroke:#181818;stroke-width:0.5;" width="106" x="1859.5" y="1075.4863"/><text fill="#000000" font-family="sans-serif" font-size="14" lengthAdjust="spacing" textLength="92" x="1866.5" y="1097.5938">sensor:Sensor</text><rect fill="#E2E2F0" height="32.6211" rx="2.5" ry="2.5" style="stroke:#181818;stroke-width:0.5;" width="141" x="1975.5" y="1075.4863"/><text fill="#000000" font-family="sans-serif" font-size="14" lengthAdjust="spacing" textLength="127" x="1982.5" y="1097.5938">:SensorMapperDTO</text><rect fill="#E2E2F0" height="51.2422" rx="2.5" ry="2.5" style="stroke:#181818;stroke-width:0.5;" width="131" x="2167.5" y="1075.4863"/><text fill="#000000" font-family="sans-serif" font-size="14" lengthAdjust="spacing" textLength="114" x="2176" y="1097.5938">listOfSensorsDTO</text><text fill="#000000" font-family="sans-serif" font-size="14" lengthAdjust="spacing" textLength="117" x="2174.5" y="1116.2148">:List&lt;SensorDTO&gt;</text><rect fill="#E2E2F0" height="32.6211" rx="2.5" ry="2.5" style="stroke:#181818;stroke-width:0.5;" width="93" x="2308.5" y="1075.4863"/><text fill="#000000" font-family="sans-serif" font-size="14" lengthAdjust="spacing" textLength="79" x="2315.5" y="1097.5938">:SensorDTO</text><rect fill="none" height="43.252" style="stroke:#000000;stroke-width:1.5;" width="505" x="17" y="201.3184"/><path d="M17,201.3184 L79,201.3184 L79,210.3184 L69,220.3184 L17,220.3184 L17,201.3184 " fill="#EEEEEE" style="stroke:#000000;stroke-width:2.0;"/><text fill="#000000" font-family="sans-serif" font-size="13" font-weight="bold" lengthAdjust="spacing" textLength="17" x="30" y="217.3467">ref</text><a href="docs/DocumentationOfSystem/UC06-ListAllDevicesInRoom/UC06SequenceDiagram.puml" target="_top" title="docs/DocumentationOfSystem/UC06-ListAllDevicesInRoom/UC06SequenceDiagram.puml" xlink:actuate="onRequest" xlink:href="docs/DocumentationOfSystem/UC06-ListAllDevicesInRoom/UC06SequenceDiagram.puml" xlink:show="new" xlink:title="docs/DocumentationOfSystem/UC06-ListAllDevicesInRoom/UC06SequenceDiagram.puml" xlink:type="simple"><text fill="#0000FF" font-family="sans-serif" font-size="12" lengthAdjust="spacing" text-decoration="underline" textLength="497" x="21" y="237.2676">docs/DocumentationOfSystem/UC06-ListAllDevicesInRoom/UC06SequenceDiagram.puml</text></a><polygon fill="#181818" points="368,268.8613,378,272.8613,368,276.8613,372,272.8613" style="stroke:#181818;stroke-width:1.0;"/><line style="stroke:#181818;stroke-width:1.0;" x1="5" x2="374" y1="272.8613" y2="272.8613"/><text fill="#000000" font-family="sans-serif" font-size="13" font-weight="bold" lengthAdjust="spacing" textLength="7" x="12" y="267.5986">1</text><text fill="#000000" font-family="sans-serif" font-size="13" lengthAdjust="spacing" textLength="320" x="23" y="267.5986">getListOfTemperatureSensorsDTOInDevice (deviceDTO)</text><polygon fill="#181818" points="604,300.1523,614,304.1523,604,308.1523,608,304.1523" style="stroke:#181818;stroke-width:1.0;"/><line style="stroke:#181818;stroke-width:1.0;" x1="390" x2="610" y1="304.1523" y2="304.1523"/><text fill="#000000" font-family="sans-serif" font-size="13" font-weight="bold" lengthAdjust="spacing" textLength="7" x="397" y="298.8896">2</text><text fill="#000000" font-family="sans-serif" font-size="13" lengthAdjust="spacing" textLength="70" x="408" y="298.8896">deviceName</text><polygon fill="#181818" points="401,331.4434,391,335.4434,401,339.4434,397,335.4434" style="stroke:#181818;stroke-width:1.0;"/><line style="stroke:#181818;stroke-width:1.0;stroke-dasharray:2.0,2.0;" x1="395" x2="615" y1="335.4434" y2="335.4434"/><text fill="#000000" font-family="sans-serif" font-size="13" font-weight="bold" lengthAdjust="spacing" textLength="7" x="407" y="330.1807">3</text><text fill="#000000" font-family="sans-serif" font-size="13" lengthAdjust="spacing" textLength="108" x="418" y="330.1807">String deviceName</text><rect fill="#E2E2F0" height="32.6211" rx="2.5" ry="2.5" style="stroke:#181818;stroke-width:0.5;" width="128" x="712" y="343.4434"/><text fill="#000000" font-family="sans-serif" font-size="14" lengthAdjust="spacing" textLength="114" x="719" y="365.5508">deviceID:DeviceID</text><polygon fill="#181818" points="700,362.7344,710,366.7344,700,370.7344,704,366.7344" style="stroke:#181818;stroke-width:1.0;"/><line style="stroke:#181818;stroke-width:1.0;stroke-dasharray:2.0,2.0;" x1="390" x2="706" y1="366.7344" y2="366.7344"/><text fill="#000000" font-family="sans-serif" font-size="13" font-weight="bold" lengthAdjust="spacing" textLength="7" x="397" y="361.4717">4</text><text fill="#000000" font-family="sans-serif" font-size="13" lengthAdjust="spacing" textLength="50" x="408" y="361.4717">&#171;create&#187;</text><rect fill="#E2E2F0" height="32.6211" rx="2.5" ry="2.5" style="stroke:#181818;stroke-width:0.5;" width="292" x="850" y="377.0645"/><text fill="#000000" font-family="sans-serif" font-size="14" lengthAdjust="spacing" textLength="278" x="857" y="399.1719">sensorFunctionalityID:SensorFunctionalityID</text><polygon fill="#181818" points="838,396.3555,848,400.3555,838,404.3555,842,400.3555" style="stroke:#181818;stroke-width:1.0;"/><line style="stroke:#181818;stroke-width:1.0;" x1="390" x2="844" y1="400.3555" y2="400.3555"/><text fill="#000000" font-family="sans-serif" font-size="13" font-weight="bold" lengthAdjust="spacing" textLength="7" x="397" y="395.0928">5</text><text fill="#000000" font-family="sans-serif" font-size="13" lengthAdjust="spacing" textLength="95" x="408" y="395.0928">String &#171;creates&#187;</text><polygon fill="#181818" points="1190,429.9766,1200,433.9766,1190,437.9766,1194,433.9766" style="stroke:#181818;stroke-width:1.0;"/><line style="stroke:#181818;stroke-width:1.0;" x1="390" x2="1196" y1="433.9766" y2="433.9766"/><text fill="#000000" font-family="sans-serif" font-size="13" font-weight="bold" lengthAdjust="spacing" textLength="7" x="397" y="428.7139">6</text><text fill="#000000" font-family="sans-serif" font-size="13" lengthAdjust="spacing" textLength="460" x="408" y="428.7139">findSensorsIDOfADeviceBySensorFunctionality(deviceID, sensorFunctionalityID)</text><polygon fill="#181818" points="1643,461.2676,1653,465.2676,1643,469.2676,1647,465.2676" style="stroke:#181818;stroke-width:1.0;"/><line style="stroke:#181818;stroke-width:1.0;" x1="1212" x2="1649" y1="465.2676" y2="465.2676"/><text fill="#000000" font-family="sans-serif" font-size="13" font-weight="bold" lengthAdjust="spacing" textLength="7" x="1219" y="460.0049">7</text><text fill="#000000" font-family="sans-serif" font-size="13" lengthAdjust="spacing" textLength="413" x="1230" y="460.0049">findByDeviceIDAndSensorFunctionality(deviceID, sensorFunctionalityID)</text><polygon fill="#181818" points="1223,492.5586,1213,496.5586,1223,500.5586,1219,496.5586" style="stroke:#181818;stroke-width:1.0;"/><line style="stroke:#181818;stroke-width:1.0;stroke-dasharray:2.0,2.0;" x1="1217" x2="1654" y1="496.5586" y2="496.5586"/><text fill="#000000" font-family="sans-serif" font-size="13" font-weight="bold" lengthAdjust="spacing" textLength="7" x="1229" y="491.2959">8</text><text fill="#000000" font-family="sans-serif" font-size="13" lengthAdjust="spacing" textLength="99" x="1240" y="491.2959">Iterable&lt;Sensor&gt;</text><rect fill="#E2E2F0" height="51.2422" rx="2.5" ry="2.5" style="stroke:#181818;stroke-width:0.5;" width="114" x="1735.5" y="504.5586"/><text fill="#000000" font-family="sans-serif" font-size="14" lengthAdjust="spacing" textLength="97" x="1744" y="526.666">listOfSensorIDs</text><text fill="#000000" font-family="sans-serif" font-size="14" lengthAdjust="spacing" textLength="100" x="1742.5" y="545.2871">:List&lt;SensorID&gt;</text><polygon fill="#181818" points="1723.5,523.8496,1733.5,527.8496,1723.5,531.8496,1727.5,527.8496" style="stroke:#181818;stroke-width:1.0;"/><line style="stroke:#181818;stroke-width:1.0;" x1="1212" x2="1729.5" y1="527.8496" y2="527.8496"/><text fill="#000000" font-family="sans-serif" font-size="13" font-weight="bold" lengthAdjust="spacing" textLength="7" x="1219" y="522.5869">9</text><text fill="#000000" font-family="sans-serif" font-size="13" lengthAdjust="spacing" textLength="50" x="1230" y="522.5869">&#171;create&#187;</text><path d="M1191,560.8008 L1252,560.8008 L1252,570.0918 L1242,580.0918 L1191,580.0918 L1191,560.8008 " fill="#EEEEEE" style="stroke:#000000;stroke-width:1.5;"/><rect fill="none" height="123.1641" style="stroke:#000000;stroke-width:1.5;" width="790.5" x="1191" y="560.8008"/><text fill="#000000" font-family="sans-serif" font-size="13" font-weight="bold" lengthAdjust="spacing" textLength="16" x="1206" y="575.8291">alt</text><text fill="#000000" font-family="sans-serif" font-size="11" font-weight="bold" lengthAdjust="spacing" textLength="360" x="1267" y="574.6709">[if SensorFunctionalityID.toString() equals "TemperatureCelsius"]</text><polygon fill="#181818" points="1895.5,609.3828,1905.5,613.3828,1895.5,617.3828,1899.5,613.3828" style="stroke:#181818;stroke-width:1.0;"/><line style="stroke:#181818;stroke-width:1.0;" x1="1212" x2="1901.5" y1="613.3828" y2="613.3828"/><text fill="#000000" font-family="sans-serif" font-size="13" font-weight="bold" lengthAdjust="spacing" textLength="14" x="1219" y="608.1201">10</text><text fill="#000000" font-family="sans-serif" font-size="13" lengthAdjust="spacing" textLength="50" x="1237" y="608.1201">identity()</text><polygon fill="#181818" points="1223,640.6738,1213,644.6738,1223,648.6738,1219,644.6738" style="stroke:#181818;stroke-width:1.0;"/><line style="stroke:#181818;stroke-width:1.0;stroke-dasharray:2.0,2.0;" x1="1217" x2="1906.5" y1="644.6738" y2="644.6738"/><text fill="#000000" font-family="sans-serif" font-size="13" font-weight="bold" lengthAdjust="spacing" textLength="14" x="1229" y="639.4111">11</text><text fill="#000000" font-family="sans-serif" font-size="13" lengthAdjust="spacing" textLength="51" x="1247" y="639.4111">sensorID</text><polygon fill="#181818" points="1775.5,671.9648,1785.5,675.9648,1775.5,679.9648,1779.5,675.9648" style="stroke:#181818;stroke-width:1.0;"/><line style="stroke:#181818;stroke-width:1.0;" x1="1212" x2="1781.5" y1="675.9648" y2="675.9648"/><text fill="#000000" font-family="sans-serif" font-size="13" font-weight="bold" lengthAdjust="spacing" textLength="14" x="1219" y="670.7021">12</text><text fill="#000000" font-family="sans-serif" font-size="13" lengthAdjust="spacing" textLength="80" x="1237" y="670.7021">add(sensorID)</text><polygon fill="#181818" points="401,717.2559,391,721.2559,401,725.2559,397,721.2559" style="stroke:#181818;stroke-width:1.0;"/><line style="stroke:#181818;stroke-width:1.0;stroke-dasharray:2.0,2.0;" x1="395" x2="1201" y1="721.2559" y2="721.2559"/><text fill="#000000" font-family="sans-serif" font-size="13" font-weight="bold" lengthAdjust="spacing" textLength="14" x="407" y="715.9932">13</text><text fill="#000000" font-family="sans-serif" font-size="13" lengthAdjust="spacing" textLength="90" x="425" y="715.9932">listOfSensorIDs</text><rect fill="#E2E2F0" height="32.6211" rx="2.5" ry="2.5" style="stroke:#181818;stroke-width:0.5;" width="141" x="1975.5" y="729.2559"/><text fill="#000000" font-family="sans-serif" font-size="14" lengthAdjust="spacing" textLength="127" x="1982.5" y="751.3633">:SensorMapperDTO</text><polygon fill="#181818" points="1963.5,748.5469,1973.5,752.5469,1963.5,756.5469,1967.5,752.5469" style="stroke:#181818;stroke-width:1.0;"/><line style="stroke:#181818;stroke-width:1.0;" x1="390" x2="1969.5" y1="752.5469" y2="752.5469"/><text fill="#000000" font-family="sans-serif" font-size="13" font-weight="bold" lengthAdjust="spacing" textLength="14" x="397" y="747.2842">14</text><text fill="#000000" font-family="sans-serif" font-size="13" lengthAdjust="spacing" textLength="4" x="415" y="747.2842">&#160;</text><polygon fill="#181818" points="2029,782.168,2039,786.168,2029,790.168,2033,786.168" style="stroke:#181818;stroke-width:1.0;"/><line style="stroke:#181818;stroke-width:1.0;" x1="390" x2="2035" y1="786.168" y2="786.168"/><text fill="#000000" font-family="sans-serif" font-size="13" font-weight="bold" lengthAdjust="spacing" textLength="14" x="397" y="780.9053">15</text><text fill="#000000" font-family="sans-serif" font-size="13" lengthAdjust="spacing" textLength="217" x="415" y="780.9053">sensorIDsToDTOList(List&lt;SensorID&gt;)</text><rect fill="#E2E2F0" height="51.2422" rx="2.5" ry="2.5" style="stroke:#181818;stroke-width:0.5;" width="131" x="2167.5" y="794.168"/><text fill="#000000" font-family="sans-serif" font-size="14" lengthAdjust="spacing" textLength="114" x="2176" y="816.2754">listOfSensorsDTO</text><text fill="#000000" font-family="sans-serif" font-size="14" lengthAdjust="spacing" textLength="117" x="2174.5" y="834.8965">:List&lt;SensorDTO&gt;</text><polygon fill="#181818" points="2155.5,813.459,2165.5,817.459,2155.5,821.459,2159.5,817.459" style="stroke:#181818;stroke-width:1.0;"/><line style="stroke:#181818;stroke-width:1.0;stroke-dasharray:2.0,2.0;" x1="2051" x2="2161.5" y1="817.459" y2="817.459"/><text fill="#000000" font-family="sans-serif" font-size="13" font-weight="bold" lengthAdjust="spacing" textLength="14" x="2058" y="812.1963">16</text><text fill="#000000" font-family="sans-serif" font-size="13" lengthAdjust="spacing" textLength="50" x="2076" y="812.1963">&#171;create&#187;</text><path d="M2030,850.4102 L2103,850.4102 L2103,859.7012 L2093,869.7012 L2030,869.7012 L2030,850.4102 " fill="#EEEEEE" style="stroke:#000000;stroke-width:1.5;"/><rect fill="none" height="138.4941" style="stroke:#000000;stroke-width:1.5;" width="387.5" x="2030" y="850.4102"/><text fill="#000000" font-family="sans-serif" font-size="13" font-weight="bold" lengthAdjust="spacing" textLength="28" x="2045" y="865.4385">loop</text><text fill="#000000" font-family="sans-serif" font-size="11" font-weight="bold" lengthAdjust="spacing" textLength="208" x="2118" y="864.2803">[for each SensorID in listOfSensorIDs]</text><line style="stroke:#181818;stroke-width:1.0;" x1="2051" x2="2093" y1="902.9922" y2="902.9922"/><line style="stroke:#181818;stroke-width:1.0;" x1="2093" x2="2093" y1="902.9922" y2="915.9922"/><line style="stroke:#181818;stroke-width:1.0;" x1="2052" x2="2093" y1="915.9922" y2="915.9922"/><polygon fill="#181818" points="2062,911.9922,2052,915.9922,2062,919.9922,2058,915.9922" style="stroke:#181818;stroke-width:1.0;"/><text fill="#000000" font-family="sans-serif" font-size="13" font-weight="bold" lengthAdjust="spacing" textLength="14" x="2058" y="897.7295">17</text><text fill="#000000" font-family="sans-serif" font-size="13" lengthAdjust="spacing" textLength="150" x="2076" y="897.7295">sensorIDToDTO(sensorID)</text><rect fill="#E2E2F0" height="32.6211" rx="2.5" ry="2.5" style="stroke:#181818;stroke-width:0.5;" width="93" x="2308.5" y="923.9922"/><text fill="#000000" font-family="sans-serif" font-size="14" lengthAdjust="spacing" textLength="79" x="2315.5" y="946.0996">:SensorDTO</text><polygon fill="#181818" points="2296.5,943.2832,2306.5,947.2832,2296.5,951.2832,2300.5,947.2832" style="stroke:#181818;stroke-width:1.0;"/><line style="stroke:#181818;stroke-width:1.0;" x1="2051" x2="2302.5" y1="947.2832" y2="947.2832"/><text fill="#000000" font-family="sans-serif" font-size="13" font-weight="bold" lengthAdjust="spacing" textLength="14" x="2058" y="942.0205">18</text><text fill="#000000" font-family="sans-serif" font-size="13" lengthAdjust="spacing" textLength="50" x="2076" y="942.0205">&#171;create&#187;</text><polygon fill="#181818" points="2216,976.9043,2226,980.9043,2216,984.9043,2220,980.9043" style="stroke:#181818;stroke-width:1.0;"/><line style="stroke:#181818;stroke-width:1.0;" x1="2051" x2="2222" y1="980.9043" y2="980.9043"/><text fill="#000000" font-family="sans-serif" font-size="13" font-weight="bold" lengthAdjust="spacing" textLength="14" x="2058" y="975.6416">19</text><text fill="#000000" font-family="sans-serif" font-size="13" lengthAdjust="spacing" textLength="94" x="2076" y="975.6416">add(sensorDTO)</text><polygon fill="#181818" points="401,1022.1953,391,1026.1953,401,1030.1953,397,1026.1953" style="stroke:#181818;stroke-width:1.0;"/><line style="stroke:#181818;stroke-width:1.0;stroke-dasharray:2.0,2.0;" x1="395" x2="2040" y1="1026.1953" y2="1026.1953"/><text fill="#000000" font-family="sans-serif" font-size="13" font-weight="bold" lengthAdjust="spacing" textLength="14" x="407" y="1020.9326">20</text><text fill="#000000" font-family="sans-serif" font-size="13" lengthAdjust="spacing" textLength="104" x="425" y="1020.9326">listOfSensorsDTO</text><polygon fill="#181818" points="16,1053.4863,6,1057.4863,16,1061.4863,12,1057.4863" style="stroke:#181818;stroke-width:1.0;"/><line style="stroke:#181818;stroke-width:1.0;stroke-dasharray:2.0,2.0;" x1="10" x2="379" y1="1057.4863" y2="1057.4863"/><text fill="#000000" font-family="sans-serif" font-size="13" font-weight="bold" lengthAdjust="spacing" textLength="14" x="22" y="1052.2236">21</text><text fill="#000000" font-family="sans-serif" font-size="13" lengthAdjust="spacing" textLength="104" x="40" y="1052.2236">listOfSensorsDTO</text><!--SRC=[fLLDZzCm4BtxLmpbqEwAjdo9GrHLscq0HLfs9RgS5WxUnErQ97QmdHNbrpDsajP9d0L1Jeapy_myC-zv-c1CgQFbiiofC5MHBr9PB3NxKJ6Hidd6wLxHWXXkSWPVDc_UBbx37AwuDc1OKJ95JQKOQ2QqL1guW8mzyfGj226qCb9KnJrJv5cfwBwWc2D_WL4L8_Vo9qnMgsrrlpreX5glluhLQYE5eLmmPJ-ZIvf-PoARmFEOgkyV5JlKQM03Yr8A9emBt3Bro1J6NV7zWt619LM6fxp4Ky4aieGlyZnst7GYFajPsBsKp7ERI7N3-xJOtII0Ttiw_xO-VYBY7eX3jeLg8luElgOItzv4SVlcKSIlK7WIDz59x0KdSJUsRjI7IgI6Iq5pRWwOk0sjEfHWVAyOTRRj0MxePJKhJnQopltCIgcvaUhWfTl5ft9pxC7DhWP8OerZOBkoQXVM3geN52f6my7RESZn4osntMqhTFqvpaXZP9SIBWmvwK4tesEqnyX6aUds_UOskRc6Ln5yPCRXWDmrdNRYew1migU4ABO3YPeOZ3MvkyjagfUnJAi2gqfjNv6D4-7oo-Rbktb8BExFjh65k7Q5HOb-yUqRGOa2xkSHVDqbEE8Kvi5-vYmrB6juJiaKVwH7jbCoNuVr4y6UcIjNoQ4GiLoj5c5sLCqPeJZ5ZzImC2G92nKPd0JPl5xJWftGJheyli5ydFZMA2xsFbB60bWZR8vqalZyF4A1f8fX8gfZb7vGn3QvOT9YQ0GXhWEwbgwU_WcqqNW4EoworWRZczr5NVtBGy1QPYt_5s5cNfywcv2khHmvMAEe2LmUMWkyQDdytyuMcdXsD1yUF34uU_SvQrI-zflfWGp9zwofrqm2-D3S0Dz1q9uNHjRjcvq1wfBc6YQU4ZOirxpI4uSpKhW8U8OMO0jpLk_N9UxbXawk6-ekR73gyCQzGqT0ispM0lL8zBsxjqteDrhHeDBZGkmZ3CxG3jx9sTv4W0Xeh1ex0KO2AXNjTbmbzJs1pVrZpAcW-bOYh3MtMVTAy-UpkO18y-BEsRzP-ZELIrd23hk91ts05jPwSQYOH-G0HSUmrpW_lhsrUWnwONs-_ZWumnwT1tTlFZ4Gxh-zcEoHkqNwYs7GjPSFYhsQp_ybFNpR_0O0]--></g></svg>