<?xml version="1.0" encoding="us-ascii" standalone="no"?><svg xmlns="http://www.w3.org/2000/svg" xmlns:xlink="http://www.w3.org/1999/xlink" contentStyleType="text/css" height="1531px" preserveAspectRatio="none" style="width:2635px;height:1531px;background:#FFFFFF;" version="1.1" viewBox="0 0 2635 1531" width="2635px" zoomAndPan="magnify"><defs/><g><rect fill="#A9A9A9" height="1481.7949" style="stroke:#181818;stroke-width:0.5;" width="2335" x="282" y="43.4883"/><text fill="#000000" font-family="sans-serif" font-size="13" font-weight="bold" lengthAdjust="spacing" textLength="87" x="1406" y="56.0566">&#171;SubSystem&#187;</text><text fill="#000000" font-family="sans-serif" font-size="13" font-weight="bold" lengthAdjust="spacing" textLength="80" x="1406" y="71.3672">&#171;Container&#187;</text><text fill="#000000" font-family="sans-serif" font-size="13" font-weight="bold" lengthAdjust="spacing" textLength="60" x="1406" y="86.6777">:Backend</text><rect fill="#D3D3D3" height="1430.8633" style="stroke:#181818;stroke-width:0.5;" width="2335" x="282" y="94.4199"/><text fill="#000000" font-family="sans-serif" font-size="13" font-weight="bold" lengthAdjust="spacing" textLength="102" x="1398.5" y="106.9883">" &#171;Component&#187;</text><text fill="#000000" font-family="sans-serif" font-size="13" font-weight="bold" lengthAdjust="spacing" textLength="46" x="1398.5" y="122.2988">:Server</text><text fill="#000000" font-family="sans-serif" font-size="14" font-weight="bold" lengthAdjust="spacing" textLength="358" x="1142" y="28.5352">UC34.1 List of Rooms Inside or Outside of House</text><line style="stroke:#181818;stroke-width:0.5;stroke-dasharray:5.0,5.0;" x1="459" x2="459" y1="160.5293" y2="1487.7949"/><rect fill="#FFFFFF" height="1264.6445" style="stroke:#181818;stroke-width:1.0;" width="10" x="454" y="205.1504"/><line style="stroke:#181818;stroke-width:0.5;stroke-dasharray:5.0,5.0;" x1="723.5" x2="723.5" y1="160.5293" y2="1487.7949"/><rect fill="#FFFFFF" height="29.3105" style="stroke:#181818;stroke-width:1.0;" width="10" x="718.5" y="234.4609"/><line style="stroke:#181818;stroke-width:0.5;stroke-dasharray:5.0,5.0;" x1="880.5" x2="880.5" y1="271.7715" y2="1487.7949"/><line style="stroke:#181818;stroke-width:0.5;stroke-dasharray:5.0,5.0;" x1="1009" x2="1009" y1="160.5293" y2="1487.7949"/><rect fill="#FFFFFF" height="845.8965" style="stroke:#181818;stroke-width:1.0;" width="10" x="1004" y="324.5703"/><line style="stroke:#181818;stroke-width:0.5;stroke-dasharray:5.0,5.0;" x1="1229" x2="1229" y1="160.5293" y2="1487.7949"/><rect fill="#FFFFFF" height="29.3105" style="stroke:#181818;stroke-width:1.0;" width="10" x="1224" y="353.8809"/><line style="stroke:#181818;stroke-width:0.5;stroke-dasharray:5.0,5.0;" x1="1413" x2="1413" y1="391.1914" y2="1487.7949"/><rect fill="#FFFFFF" height="13" style="stroke:#181818;stroke-width:1.0;" width="10" x="1408" y="772.4063"/><rect fill="#FFFFFF" height="13" style="stroke:#181818;stroke-width:1.0;" width="10" x="1408" y="1099.1563"/><line style="stroke:#181818;stroke-width:0.5;stroke-dasharray:5.0,5.0;" x1="1595.5" x2="1595.5" y1="160.5293" y2="1487.7949"/><rect fill="#FFFFFF" height="29.3105" style="stroke:#181818;stroke-width:1.0;" width="10" x="1590.5" y="443.9902"/><line style="stroke:#181818;stroke-width:0.5;stroke-dasharray:5.0,5.0;" x1="1718.5" x2="1718.5" y1="160.5293" y2="1487.7949"/><rect fill="#FFFFFF" height="146.5527" style="stroke:#181818;stroke-width:1.0;" width="10" x="1713.5" y="596.543"/><rect fill="#FFFFFF" height="146.5527" style="stroke:#181818;stroke-width:1.0;" width="10" x="1713.5" y="923.293"/><line style="stroke:#181818;stroke-width:0.5;stroke-dasharray:5.0,5.0;" x1="1903.5" x2="1903.5" y1="160.5293" y2="1487.7949"/><rect fill="#FFFFFF" height="29.3105" style="stroke:#181818;stroke-width:1.0;" width="10" x="1898.5" y="625.8535"/><rect fill="#FFFFFF" height="29.3105" style="stroke:#181818;stroke-width:1.0;" width="10" x="1898.5" y="952.6035"/><line style="stroke:#181818;stroke-width:0.5;stroke-dasharray:5.0,5.0;" x1="2111" x2="2111" y1="1178.4668" y2="1487.7949"/><rect fill="#FFFFFF" height="209.2188" style="stroke:#181818;stroke-width:1.0;" width="10" x="2106" y="1231.2656"/><line style="stroke:#181818;stroke-width:0.5;stroke-dasharray:5.0,5.0;" x1="2328.5" x2="2328.5" y1="1239.2656" y2="1487.7949"/><rect fill="#FFFFFF" height="13" style="stroke:#181818;stroke-width:1.0;" width="10" x="2323.5" y="1397.1738"/><line style="stroke:#181818;stroke-width:0.5;stroke-dasharray:5.0,5.0;" x1="2535.5" x2="2535.5" y1="1344.375" y2="1487.7949"/><rect fill="#E2E2F0" height="30.4883" rx="2.5" ry="2.5" style="stroke:#181818;stroke-width:0.5;" width="346" x="286" y="129.041"/><text fill="#000000" font-family="sans-serif" font-size="14" lengthAdjust="spacing" textLength="332" x="293" y="149.5762">:ListAllRoomsInsideOrOutsideOfHouseController</text><rect fill="#E2E2F0" height="30.4883" rx="2.5" ry="2.5" style="stroke:#181818;stroke-width:0.5;" width="163" x="642" y="129.041"/><text fill="#000000" font-family="sans-serif" font-size="14" lengthAdjust="spacing" textLength="149" x="649" y="149.5762">houseDTO:HouseDTO</text><rect fill="#E2E2F0" height="30.4883" rx="2.5" ry="2.5" style="stroke:#181818;stroke-width:0.5;" width="106" x="956" y="129.041"/><text fill="#000000" font-family="sans-serif" font-size="14" lengthAdjust="spacing" textLength="92" x="963" y="149.5762">:RoomService</text><rect fill="#E2E2F0" height="30.4883" rx="2.5" ry="2.5" style="stroke:#181818;stroke-width:0.5;" width="134" x="1162" y="129.041"/><text fill="#000000" font-family="sans-serif" font-size="14" lengthAdjust="spacing" textLength="120" x="1169" y="149.5762">:HouseRepository</text><rect fill="#E2E2F0" height="30.4883" rx="2.5" ry="2.5" style="stroke:#181818;stroke-width:0.5;" width="131" x="1530" y="129.041"/><text fill="#000000" font-family="sans-serif" font-size="14" lengthAdjust="spacing" textLength="117" x="1537" y="149.5762">:RoomRepository</text><rect fill="#E2E2F0" height="30.4883" rx="2.5" ry="2.5" style="stroke:#181818;stroke-width:0.5;" width="95" x="1671" y="129.041"/><text fill="#000000" font-family="sans-serif" font-size="14" lengthAdjust="spacing" textLength="81" x="1678" y="149.5762">room:Room</text><rect fill="#E2E2F0" height="30.4883" rx="2.5" ry="2.5" style="stroke:#181818;stroke-width:0.5;" width="255" x="1776" y="129.041"/><text fill="#000000" font-family="sans-serif" font-size="14" lengthAdjust="spacing" textLength="241" x="1783" y="149.5762">roomDimensions:RoomDimensions</text><rect fill="#E2E2F0" height="30.4883" rx="2.5" ry="2.5" style="stroke:#181818;stroke-width:0.5;" width="346" x="286" y="1487.7949"/><text fill="#000000" font-family="sans-serif" font-size="14" lengthAdjust="spacing" textLength="332" x="293" y="1508.3301">:ListAllRoomsInsideOrOutsideOfHouseController</text><rect fill="#E2E2F0" height="30.4883" rx="2.5" ry="2.5" style="stroke:#181818;stroke-width:0.5;" width="163" x="642" y="1487.7949"/><text fill="#000000" font-family="sans-serif" font-size="14" lengthAdjust="spacing" textLength="149" x="649" y="1508.3301">houseDTO:HouseDTO</text><rect fill="#E2E2F0" height="30.4883" rx="2.5" ry="2.5" style="stroke:#181818;stroke-width:0.5;" width="131" x="815" y="1487.7949"/><text fill="#000000" font-family="sans-serif" font-size="14" lengthAdjust="spacing" textLength="117" x="822" y="1508.3301">houseID:HouseID</text><rect fill="#E2E2F0" height="30.4883" rx="2.5" ry="2.5" style="stroke:#181818;stroke-width:0.5;" width="106" x="956" y="1487.7949"/><text fill="#000000" font-family="sans-serif" font-size="14" lengthAdjust="spacing" textLength="92" x="963" y="1508.3301">:RoomService</text><rect fill="#E2E2F0" height="30.4883" rx="2.5" ry="2.5" style="stroke:#181818;stroke-width:0.5;" width="134" x="1162" y="1487.7949"/><text fill="#000000" font-family="sans-serif" font-size="14" lengthAdjust="spacing" textLength="120" x="1169" y="1508.3301">:HouseRepository</text><rect fill="#E2E2F0" height="30.4883" rx="2.5" ry="2.5" style="stroke:#181818;stroke-width:0.5;" width="214" x="1306" y="1487.7949"/><text fill="#000000" font-family="sans-serif" font-size="14" lengthAdjust="spacing" textLength="200" x="1313" y="1508.3301">listOfRoomIDs:List&lt;RoomID&gt;</text><rect fill="#E2E2F0" height="30.4883" rx="2.5" ry="2.5" style="stroke:#181818;stroke-width:0.5;" width="131" x="1530" y="1487.7949"/><text fill="#000000" font-family="sans-serif" font-size="14" lengthAdjust="spacing" textLength="117" x="1537" y="1508.3301">:RoomRepository</text><rect fill="#E2E2F0" height="30.4883" rx="2.5" ry="2.5" style="stroke:#181818;stroke-width:0.5;" width="95" x="1671" y="1487.7949"/><text fill="#000000" font-family="sans-serif" font-size="14" lengthAdjust="spacing" textLength="81" x="1678" y="1508.3301">room:Room</text><rect fill="#E2E2F0" height="30.4883" rx="2.5" ry="2.5" style="stroke:#181818;stroke-width:0.5;" width="255" x="1776" y="1487.7949"/><text fill="#000000" font-family="sans-serif" font-size="14" lengthAdjust="spacing" textLength="241" x="1783" y="1508.3301">roomDimensions:RoomDimensions</text><rect fill="#E2E2F0" height="30.4883" rx="2.5" ry="2.5" style="stroke:#181818;stroke-width:0.5;" width="140" x="2041" y="1487.7949"/><text fill="#000000" font-family="sans-serif" font-size="14" lengthAdjust="spacing" textLength="126" x="2048" y="1508.3301">:RoomMapperDTO</text><rect fill="#E2E2F0" height="30.4883" rx="2.5" ry="2.5" style="stroke:#181818;stroke-width:0.5;" width="239" x="2209" y="1487.7949"/><text fill="#000000" font-family="sans-serif" font-size="14" lengthAdjust="spacing" textLength="225" x="2216" y="1508.3301">listOfRoomDTO:List&lt;RoomDTO&gt;</text><rect fill="#E2E2F0" height="30.4883" rx="2.5" ry="2.5" style="stroke:#181818;stroke-width:0.5;" width="155" x="2458" y="1487.7949"/><text fill="#000000" font-family="sans-serif" font-size="14" lengthAdjust="spacing" textLength="141" x="2465" y="1508.3301">roomDTO:RoomDTO</text><ellipse cx="10.5" cy="204.4004" fill="none" rx="4" ry="4" style="stroke:#181818;stroke-width:1.5;"/><polygon fill="#181818" points="442,201.1504,452,205.1504,442,209.1504,446,205.1504" style="stroke:#181818;stroke-width:1.0;"/><line style="stroke:#181818;stroke-width:1.0;" x1="15" x2="448" y1="205.1504" y2="205.1504"/><text fill="#000000" font-family="sans-serif" font-size="13" font-weight="bold" lengthAdjust="spacing" textLength="9" x="18" y="192.7529">1</text><text fill="#000000" font-family="sans-serif" font-size="13" lengthAdjust="spacing" textLength="417" x="31" y="185.0977">getListOfRoomsDTOInsideOrOutsideHouse(HouseDTO houseDTO,</text><text fill="#000000" font-family="sans-serif" font-size="13" lengthAdjust="spacing" textLength="273" x="35" y="200.4082">boolean areRoomsInside): List&lt;RoomDTO&gt;</text><polygon fill="#181818" points="706.5,230.4609,716.5,234.4609,706.5,238.4609,710.5,234.4609" style="stroke:#181818;stroke-width:1.0;"/><line style="stroke:#181818;stroke-width:1.0;" x1="464" x2="712.5" y1="234.4609" y2="234.4609"/><text fill="#000000" font-family="sans-serif" font-size="13" font-weight="bold" lengthAdjust="spacing" textLength="9" x="471" y="229.7188">2</text><text fill="#000000" font-family="sans-serif" font-size="13" lengthAdjust="spacing" textLength="52" x="484" y="229.7188">houseID</text><polygon fill="#181818" points="475,259.7715,465,263.7715,475,267.7715,471,263.7715" style="stroke:#181818;stroke-width:1.0;"/><line style="stroke:#181818;stroke-width:1.0;stroke-dasharray:2.0,2.0;" x1="469" x2="717.5" y1="263.7715" y2="263.7715"/><text fill="#000000" font-family="sans-serif" font-size="13" font-weight="bold" lengthAdjust="spacing" textLength="9" x="481" y="259.0293">3</text><text fill="#000000" font-family="sans-serif" font-size="13" lengthAdjust="spacing" textLength="93" x="494" y="259.0293">String houseID</text><rect fill="#E2E2F0" height="30.4883" rx="2.5" ry="2.5" style="stroke:#181818;stroke-width:0.5;" width="131" x="815" y="271.7715"/><text fill="#000000" font-family="sans-serif" font-size="14" lengthAdjust="spacing" textLength="117" x="822" y="292.3066">houseID:HouseID</text><polygon fill="#181818" points="803,289.082,813,293.082,803,297.082,807,293.082" style="stroke:#181818;stroke-width:1.0;"/><line style="stroke:#181818;stroke-width:1.0;stroke-dasharray:2.0,2.0;" x1="464" x2="809" y1="293.082" y2="293.082"/><text fill="#000000" font-family="sans-serif" font-size="13" font-weight="bold" lengthAdjust="spacing" textLength="9" x="471" y="288.3398">4</text><text fill="#000000" font-family="sans-serif" font-size="13" lengthAdjust="spacing" textLength="59" x="484" y="288.3398">&#171;creates&#187;</text><polygon fill="#181818" points="992,320.5703,1002,324.5703,992,328.5703,996,324.5703" style="stroke:#181818;stroke-width:1.0;"/><line style="stroke:#181818;stroke-width:1.0;" x1="464" x2="998" y1="324.5703" y2="324.5703"/><text fill="#000000" font-family="sans-serif" font-size="13" font-weight="bold" lengthAdjust="spacing" textLength="9" x="471" y="319.8281">5</text><text fill="#000000" font-family="sans-serif" font-size="13" lengthAdjust="spacing" textLength="465" x="484" y="319.8281">getListOfRoomsInsideOrOutsideHouse(houseID, boolean areRoomsInside)</text><polygon fill="#181818" points="1212,349.8809,1222,353.8809,1212,357.8809,1216,353.8809" style="stroke:#181818;stroke-width:1.0;"/><line style="stroke:#181818;stroke-width:1.0;" x1="1014" x2="1218" y1="353.8809" y2="353.8809"/><text fill="#000000" font-family="sans-serif" font-size="13" font-weight="bold" lengthAdjust="spacing" textLength="9" x="1021" y="349.1387">6</text><text fill="#000000" font-family="sans-serif" font-size="13" lengthAdjust="spacing" textLength="178" x="1034" y="349.1387">containsEntityByID(houseID)</text><polygon fill="#181818" points="1025,379.1914,1015,383.1914,1025,387.1914,1021,383.1914" style="stroke:#181818;stroke-width:1.0;"/><line style="stroke:#181818;stroke-width:1.0;stroke-dasharray:2.0,2.0;" x1="1019" x2="1223" y1="383.1914" y2="383.1914"/><text fill="#000000" font-family="sans-serif" font-size="13" font-weight="bold" lengthAdjust="spacing" textLength="9" x="1031" y="378.4492">7</text><text fill="#000000" font-family="sans-serif" font-size="13" lengthAdjust="spacing" textLength="25" x="1044" y="378.4492">true</text><rect fill="#E2E2F0" height="30.4883" rx="2.5" ry="2.5" style="stroke:#181818;stroke-width:0.5;" width="214" x="1306" y="391.1914"/><text fill="#000000" font-family="sans-serif" font-size="14" lengthAdjust="spacing" textLength="200" x="1313" y="411.7266">listOfRoomIDs:List&lt;RoomID&gt;</text><polygon fill="#181818" points="1294,408.502,1304,412.502,1294,416.502,1298,412.502" style="stroke:#181818;stroke-width:1.0;"/><line style="stroke:#181818;stroke-width:1.0;stroke-dasharray:2.0,2.0;" x1="1014" x2="1300" y1="412.502" y2="412.502"/><text fill="#000000" font-family="sans-serif" font-size="13" font-weight="bold" lengthAdjust="spacing" textLength="9" x="1021" y="407.7598">8</text><text fill="#000000" font-family="sans-serif" font-size="13" lengthAdjust="spacing" textLength="52" x="1034" y="407.7598">&#171;create&#187;</text><polygon fill="#181818" points="1578.5,439.9902,1588.5,443.9902,1578.5,447.9902,1582.5,443.9902" style="stroke:#181818;stroke-width:1.0;"/><line style="stroke:#181818;stroke-width:1.0;" x1="1014" x2="1584.5" y1="443.9902" y2="443.9902"/><text fill="#000000" font-family="sans-serif" font-size="13" font-weight="bold" lengthAdjust="spacing" textLength="9" x="1021" y="439.248">9</text><text fill="#000000" font-family="sans-serif" font-size="13" lengthAdjust="spacing" textLength="153" x="1034" y="439.248">findByHouseID(houseID)</text><polygon fill="#181818" points="1025,469.3008,1015,473.3008,1025,477.3008,1021,473.3008" style="stroke:#181818;stroke-width:1.0;"/><line style="stroke:#181818;stroke-width:1.0;stroke-dasharray:2.0,2.0;" x1="1019" x2="1589.5" y1="473.3008" y2="473.3008"/><text fill="#000000" font-family="sans-serif" font-size="13" font-weight="bold" lengthAdjust="spacing" textLength="18" x="1031" y="468.5586">10</text><text fill="#000000" font-family="sans-serif" font-size="13" lengthAdjust="spacing" textLength="103" x="1053" y="468.5586">Iterable&lt;Room&gt;</text><path d="M955,485.3008 L1017,485.3008 L1017,492.6113 L1007,502.6113 L955,502.6113 L955,485.3008 " fill="#EEEEEE" style="stroke:#000000;stroke-width:1.5;"/><rect fill="none" height="649.8555" style="stroke:#000000;stroke-width:1.5;" width="1142" x="955" y="485.3008"/><text fill="#000000" font-family="sans-serif" font-size="13" font-weight="bold" lengthAdjust="spacing" textLength="17" x="970" y="498.8691">alt</text><text fill="#000000" font-family="sans-serif" font-size="11" font-weight="bold" lengthAdjust="spacing" textLength="106" x="1032" y="497.9355">[are Rooms Inside]</text><line style="stroke:#000000;stroke-width:1.0;stroke-dasharray:2.0,2.0;" x1="955" x2="2097" y1="819.4063" y2="819.4063"/><text fill="#000000" font-family="sans-serif" font-size="11" font-weight="bold" lengthAdjust="spacing" textLength="129" x="960" y="832.041">[are Rooms Not Inside]</text><path d="M974,516.6113 L1048,516.6113 L1048,523.9219 L1038,533.9219 L974,533.9219 L974,516.6113 " fill="#EEEEEE" style="stroke:#000000;stroke-width:1.5;"/><rect fill="none" height="277.7949" style="stroke:#000000;stroke-width:1.5;" width="1098" x="974" y="516.6113"/><text fill="#000000" font-family="sans-serif" font-size="13" font-weight="bold" lengthAdjust="spacing" textLength="29" x="989" y="530.1797">loop</text><text fill="#000000" font-family="sans-serif" font-size="11" font-weight="bold" lengthAdjust="spacing" textLength="203" x="1063" y="529.2461">[for each Room in RoomRepository]</text><path d="M993,547.9219 L1055,547.9219 L1055,555.2324 L1045,565.2324 L993,565.2324 L993,547.9219 " fill="#EEEEEE" style="stroke:#000000;stroke-width:1.5;"/><rect fill="none" height="232.4844" style="stroke:#000000;stroke-width:1.5;" width="1054" x="993" y="547.9219"/><text fill="#000000" font-family="sans-serif" font-size="13" font-weight="bold" lengthAdjust="spacing" textLength="17" x="1008" y="561.4902">alt</text><text fill="#000000" font-family="sans-serif" font-size="11" font-weight="bold" lengthAdjust="spacing" textLength="70" x="1070" y="560.5566">[height != 0]</text><polygon fill="#181818" points="1701.5,592.543,1711.5,596.543,1701.5,600.543,1705.5,596.543" style="stroke:#181818;stroke-width:1.0;"/><line style="stroke:#181818;stroke-width:1.0;" x1="1014" x2="1707.5" y1="596.543" y2="596.543"/><text fill="#000000" font-family="sans-serif" font-size="13" font-weight="bold" lengthAdjust="spacing" textLength="18" x="1021" y="591.8008">11</text><text fill="#000000" font-family="sans-serif" font-size="13" lengthAdjust="spacing" textLength="139" x="1043" y="591.8008">getRoomDimensions()</text><polygon fill="#181818" points="1886.5,621.8535,1896.5,625.8535,1886.5,629.8535,1890.5,625.8535" style="stroke:#181818;stroke-width:1.0;"/><line style="stroke:#181818;stroke-width:1.0;" x1="1723.5" x2="1892.5" y1="625.8535" y2="625.8535"/><text fill="#000000" font-family="sans-serif" font-size="13" font-weight="bold" lengthAdjust="spacing" textLength="18" x="1730.5" y="621.1113">12</text><text fill="#000000" font-family="sans-serif" font-size="13" lengthAdjust="spacing" textLength="70" x="1752.5" y="621.1113">getHeight()</text><polygon fill="#181818" points="1734.5,651.1641,1724.5,655.1641,1734.5,659.1641,1730.5,655.1641" style="stroke:#181818;stroke-width:1.0;"/><line style="stroke:#181818;stroke-width:1.0;stroke-dasharray:2.0,2.0;" x1="1728.5" x2="1897.5" y1="655.1641" y2="655.1641"/><text fill="#000000" font-family="sans-serif" font-size="13" font-weight="bold" lengthAdjust="spacing" textLength="18" x="1740.5" y="650.4219">13</text><text fill="#000000" font-family="sans-serif" font-size="13" lengthAdjust="spacing" textLength="85" x="1762.5" y="650.4219">double != 0.0</text><polygon fill="#181818" points="1025,680.4746,1015,684.4746,1025,688.4746,1021,684.4746" style="stroke:#181818;stroke-width:1.0;"/><line style="stroke:#181818;stroke-width:1.0;stroke-dasharray:2.0,2.0;" x1="1019" x2="1712.5" y1="684.4746" y2="684.4746"/><text fill="#000000" font-family="sans-serif" font-size="13" font-weight="bold" lengthAdjust="spacing" textLength="18" x="1031" y="679.7324">14</text><text fill="#000000" font-family="sans-serif" font-size="13" lengthAdjust="spacing" textLength="108" x="1053" y="679.7324">roomDimensions</text><polygon fill="#181818" points="1701.5,709.7852,1711.5,713.7852,1701.5,717.7852,1705.5,713.7852" style="stroke:#181818;stroke-width:1.0;"/><line style="stroke:#181818;stroke-width:1.0;" x1="1014" x2="1707.5" y1="713.7852" y2="713.7852"/><text fill="#000000" font-family="sans-serif" font-size="13" font-weight="bold" lengthAdjust="spacing" textLength="18" x="1021" y="709.043">15</text><text fill="#000000" font-family="sans-serif" font-size="13" lengthAdjust="spacing" textLength="56" x="1043" y="709.043">identity()</text><polygon fill="#181818" points="1025,739.0957,1015,743.0957,1025,747.0957,1021,743.0957" style="stroke:#181818;stroke-width:1.0;"/><line style="stroke:#181818;stroke-width:1.0;stroke-dasharray:2.0,2.0;" x1="1019" x2="1712.5" y1="743.0957" y2="743.0957"/><text fill="#000000" font-family="sans-serif" font-size="13" font-weight="bold" lengthAdjust="spacing" textLength="18" x="1031" y="738.3535">16</text><text fill="#000000" font-family="sans-serif" font-size="13" lengthAdjust="spacing" textLength="47" x="1053" y="738.3535">roomID</text><polygon fill="#181818" points="1396,768.4063,1406,772.4063,1396,776.4063,1400,772.4063" style="stroke:#181818;stroke-width:1.0;"/><line style="stroke:#181818;stroke-width:1.0;" x1="1014" x2="1402" y1="772.4063" y2="772.4063"/><text fill="#000000" font-family="sans-serif" font-size="13" font-weight="bold" lengthAdjust="spacing" textLength="18" x="1021" y="767.6641">17</text><text fill="#000000" font-family="sans-serif" font-size="13" lengthAdjust="spacing" textLength="78" x="1043" y="767.6641">add(roomID)</text><path d="M974,843.3613 L1048,843.3613 L1048,850.6719 L1038,860.6719 L974,860.6719 L974,843.3613 " fill="#EEEEEE" style="stroke:#000000;stroke-width:1.5;"/><rect fill="none" height="277.7949" style="stroke:#000000;stroke-width:1.5;" width="1098" x="974" y="843.3613"/><text fill="#000000" font-family="sans-serif" font-size="13" font-weight="bold" lengthAdjust="spacing" textLength="29" x="989" y="856.9297">loop</text><text fill="#000000" font-family="sans-serif" font-size="11" font-weight="bold" lengthAdjust="spacing" textLength="203" x="1063" y="855.9961">[for each Room in RoomRepository]</text><path d="M993,874.6719 L1055,874.6719 L1055,881.9824 L1045,891.9824 L993,891.9824 L993,874.6719 " fill="#EEEEEE" style="stroke:#000000;stroke-width:1.5;"/><rect fill="none" height="232.4844" style="stroke:#000000;stroke-width:1.5;" width="1054" x="993" y="874.6719"/><text fill="#000000" font-family="sans-serif" font-size="13" font-weight="bold" lengthAdjust="spacing" textLength="17" x="1008" y="888.2402">alt</text><text fill="#000000" font-family="sans-serif" font-size="11" font-weight="bold" lengthAdjust="spacing" textLength="67" x="1070" y="887.3066">[height = 0]</text><polygon fill="#181818" points="1701.5,919.293,1711.5,923.293,1701.5,927.293,1705.5,923.293" style="stroke:#181818;stroke-width:1.0;"/><line style="stroke:#181818;stroke-width:1.0;" x1="1014" x2="1707.5" y1="923.293" y2="923.293"/><text fill="#000000" font-family="sans-serif" font-size="13" font-weight="bold" lengthAdjust="spacing" textLength="18" x="1021" y="918.5508">18</text><text fill="#000000" font-family="sans-serif" font-size="13" lengthAdjust="spacing" textLength="139" x="1043" y="918.5508">getRoomDimensions()</text><polygon fill="#181818" points="1886.5,948.6035,1896.5,952.6035,1886.5,956.6035,1890.5,952.6035" style="stroke:#181818;stroke-width:1.0;"/><line style="stroke:#181818;stroke-width:1.0;" x1="1723.5" x2="1892.5" y1="952.6035" y2="952.6035"/><text fill="#000000" font-family="sans-serif" font-size="13" font-weight="bold" lengthAdjust="spacing" textLength="18" x="1730.5" y="947.8613">19</text><text fill="#000000" font-family="sans-serif" font-size="13" lengthAdjust="spacing" textLength="70" x="1752.5" y="947.8613">getHeight()</text><polygon fill="#181818" points="1734.5,977.9141,1724.5,981.9141,1734.5,985.9141,1730.5,981.9141" style="stroke:#181818;stroke-width:1.0;"/><line style="stroke:#181818;stroke-width:1.0;stroke-dasharray:2.0,2.0;" x1="1728.5" x2="1897.5" y1="981.9141" y2="981.9141"/><text fill="#000000" font-family="sans-serif" font-size="13" font-weight="bold" lengthAdjust="spacing" textLength="18" x="1740.5" y="977.1719">20</text><text fill="#000000" font-family="sans-serif" font-size="13" lengthAdjust="spacing" textLength="81" x="1762.5" y="977.1719">double = 0.0</text><polygon fill="#181818" points="1025,1007.2246,1015,1011.2246,1025,1015.2246,1021,1011.2246" style="stroke:#181818;stroke-width:1.0;"/><line style="stroke:#181818;stroke-width:1.0;stroke-dasharray:2.0,2.0;" x1="1019" x2="1712.5" y1="1011.2246" y2="1011.2246"/><text fill="#000000" font-family="sans-serif" font-size="13" font-weight="bold" lengthAdjust="spacing" textLength="18" x="1031" y="1006.4824">21</text><text fill="#000000" font-family="sans-serif" font-size="13" lengthAdjust="spacing" textLength="108" x="1053" y="1006.4824">roomDimensions</text><polygon fill="#181818" points="1701.5,1036.5352,1711.5,1040.5352,1701.5,1044.5352,1705.5,1040.5352" style="stroke:#181818;stroke-width:1.0;"/><line style="stroke:#181818;stroke-width:1.0;" x1="1014" x2="1707.5" y1="1040.5352" y2="1040.5352"/><text fill="#000000" font-family="sans-serif" font-size="13" font-weight="bold" lengthAdjust="spacing" textLength="18" x="1021" y="1035.793">22</text><text fill="#000000" font-family="sans-serif" font-size="13" lengthAdjust="spacing" textLength="56" x="1043" y="1035.793">identity()</text><polygon fill="#181818" points="1025,1065.8457,1015,1069.8457,1025,1073.8457,1021,1069.8457" style="stroke:#181818;stroke-width:1.0;"/><line style="stroke:#181818;stroke-width:1.0;stroke-dasharray:2.0,2.0;" x1="1019" x2="1712.5" y1="1069.8457" y2="1069.8457"/><text fill="#000000" font-family="sans-serif" font-size="13" font-weight="bold" lengthAdjust="spacing" textLength="18" x="1031" y="1065.1035">23</text><text fill="#000000" font-family="sans-serif" font-size="13" lengthAdjust="spacing" textLength="47" x="1053" y="1065.1035">roomID</text><polygon fill="#181818" points="1396,1095.1563,1406,1099.1563,1396,1103.1563,1400,1099.1563" style="stroke:#181818;stroke-width:1.0;"/><line style="stroke:#181818;stroke-width:1.0;" x1="1014" x2="1402" y1="1099.1563" y2="1099.1563"/><text fill="#000000" font-family="sans-serif" font-size="13" font-weight="bold" lengthAdjust="spacing" textLength="18" x="1021" y="1094.4141">24</text><text fill="#000000" font-family="sans-serif" font-size="13" lengthAdjust="spacing" textLength="78" x="1043" y="1094.4141">add(roomID)</text><polygon fill="#181818" points="475,1166.4668,465,1170.4668,475,1174.4668,471,1170.4668" style="stroke:#181818;stroke-width:1.0;"/><line style="stroke:#181818;stroke-width:1.0;stroke-dasharray:2.0,2.0;" x1="469" x2="1003" y1="1170.4668" y2="1170.4668"/><text fill="#000000" font-family="sans-serif" font-size="13" font-weight="bold" lengthAdjust="spacing" textLength="18" x="481" y="1165.7246">25</text><text fill="#000000" font-family="sans-serif" font-size="13" lengthAdjust="spacing" textLength="92" x="503" y="1165.7246">listOfRoomIDs</text><rect fill="#E2E2F0" height="30.4883" rx="2.5" ry="2.5" style="stroke:#181818;stroke-width:0.5;" width="140" x="2041" y="1178.4668"/><text fill="#000000" font-family="sans-serif" font-size="14" lengthAdjust="spacing" textLength="126" x="2048" y="1199.002">:RoomMapperDTO</text><polygon fill="#181818" points="2029,1195.7773,2039,1199.7773,2029,1203.7773,2033,1199.7773" style="stroke:#181818;stroke-width:1.0;"/><line style="stroke:#181818;stroke-width:1.0;" x1="464" x2="2035" y1="1199.7773" y2="1199.7773"/><text fill="#000000" font-family="sans-serif" font-size="13" font-weight="bold" lengthAdjust="spacing" textLength="18" x="471" y="1195.0352">26</text><text fill="#000000" font-family="sans-serif" font-size="13" lengthAdjust="spacing" textLength="4" x="493" y="1195.0352">&#160;</text><polygon fill="#181818" points="2094,1227.2656,2104,1231.2656,2094,1235.2656,2098,1231.2656" style="stroke:#181818;stroke-width:1.0;"/><line style="stroke:#181818;stroke-width:1.0;" x1="464" x2="2100" y1="1231.2656" y2="1231.2656"/><text fill="#000000" font-family="sans-serif" font-size="13" font-weight="bold" lengthAdjust="spacing" textLength="18" x="471" y="1226.5234">27</text><text fill="#000000" font-family="sans-serif" font-size="13" lengthAdjust="spacing" textLength="318" x="493" y="1226.5234">roomIDsToDTOList(List&lt;RoomID&gt; listOfRoomIDs)</text><rect fill="#E2E2F0" height="30.4883" rx="2.5" ry="2.5" style="stroke:#181818;stroke-width:0.5;" width="239" x="2209" y="1239.2656"/><text fill="#000000" font-family="sans-serif" font-size="14" lengthAdjust="spacing" textLength="225" x="2216" y="1259.8008">listOfRoomDTO:List&lt;RoomDTO&gt;</text><polygon fill="#181818" points="2197,1256.5762,2207,1260.5762,2197,1264.5762,2201,1260.5762" style="stroke:#181818;stroke-width:1.0;"/><line style="stroke:#181818;stroke-width:1.0;stroke-dasharray:2.0,2.0;" x1="2116" x2="2203" y1="1260.5762" y2="1260.5762"/><text fill="#000000" font-family="sans-serif" font-size="13" font-weight="bold" lengthAdjust="spacing" textLength="18" x="2123" y="1255.834">28</text><text fill="#000000" font-family="sans-serif" font-size="13" lengthAdjust="spacing" textLength="52" x="2145" y="1255.834">&#171;create&#187;</text><path d="M2095,1274.7539 L2169,1274.7539 L2169,1282.0645 L2159,1292.0645 L2095,1292.0645 L2095,1274.7539 " fill="#EEEEEE" style="stroke:#000000;stroke-width:1.5;"/><rect fill="none" height="130.4199" style="stroke:#000000;stroke-width:1.5;" width="534" x="2095" y="1274.7539"/><text fill="#000000" font-family="sans-serif" font-size="13" font-weight="bold" lengthAdjust="spacing" textLength="29" x="2110" y="1288.3223">loop</text><text fill="#000000" font-family="sans-serif" font-size="11" font-weight="bold" lengthAdjust="spacing" textLength="207" x="2184" y="1287.3887">[for each RoomID in listOfRoomIDs]</text><line style="stroke:#181818;stroke-width:1.0;" x1="2116" x2="2158" y1="1323.375" y2="1323.375"/><line style="stroke:#181818;stroke-width:1.0;" x1="2158" x2="2158" y1="1323.375" y2="1336.375"/><line style="stroke:#181818;stroke-width:1.0;" x1="2117" x2="2158" y1="1336.375" y2="1336.375"/><polygon fill="#181818" points="2127,1332.375,2117,1336.375,2127,1340.375,2123,1336.375" style="stroke:#181818;stroke-width:1.0;"/><text fill="#000000" font-family="sans-serif" font-size="13" font-weight="bold" lengthAdjust="spacing" textLength="18" x="2123" y="1318.6328">29</text><text fill="#000000" font-family="sans-serif" font-size="13" lengthAdjust="spacing" textLength="146" x="2145" y="1318.6328">roomIDToDTO(roomID)</text><rect fill="#E2E2F0" height="30.4883" rx="2.5" ry="2.5" style="stroke:#181818;stroke-width:0.5;" width="155" x="2458" y="1344.375"/><text fill="#000000" font-family="sans-serif" font-size="14" lengthAdjust="spacing" textLength="141" x="2465" y="1364.9102">roomDTO:RoomDTO</text><polygon fill="#181818" points="2446,1361.6855,2456,1365.6855,2446,1369.6855,2450,1365.6855" style="stroke:#181818;stroke-width:1.0;"/><line style="stroke:#181818;stroke-width:1.0;" x1="2116" x2="2452" y1="1365.6855" y2="1365.6855"/><text fill="#000000" font-family="sans-serif" font-size="13" font-weight="bold" lengthAdjust="spacing" textLength="18" x="2123" y="1360.9434">30</text><text fill="#000000" font-family="sans-serif" font-size="13" lengthAdjust="spacing" textLength="52" x="2145" y="1360.9434">&#171;create&#187;</text><polygon fill="#181818" points="2311.5,1393.1738,2321.5,1397.1738,2311.5,1401.1738,2315.5,1397.1738" style="stroke:#181818;stroke-width:1.0;"/><line style="stroke:#181818;stroke-width:1.0;" x1="2116" x2="2317.5" y1="1397.1738" y2="1397.1738"/><text fill="#000000" font-family="sans-serif" font-size="13" font-weight="bold" lengthAdjust="spacing" textLength="18" x="2123" y="1392.4316">31</text><text fill="#000000" font-family="sans-serif" font-size="13" lengthAdjust="spacing" textLength="92" x="2145" y="1392.4316">add(roomDTO)</text><polygon fill="#181818" points="475,1436.4844,465,1440.4844,475,1444.4844,471,1440.4844" style="stroke:#181818;stroke-width:1.0;"/><line style="stroke:#181818;stroke-width:1.0;stroke-dasharray:2.0,2.0;" x1="469" x2="2105" y1="1440.4844" y2="1440.4844"/><text fill="#000000" font-family="sans-serif" font-size="13" font-weight="bold" lengthAdjust="spacing" textLength="18" x="481" y="1435.7422">32</text><text fill="#000000" font-family="sans-serif" font-size="13" lengthAdjust="spacing" textLength="99" x="503" y="1435.7422">listOfRoomDTO</text><ellipse cx="10.5" cy="1469.0449" fill="none" rx="4" ry="4" style="stroke:#181818;stroke-width:1.5;"/><polygon fill="#181818" points="27.5,1465.7949,17.5,1469.7949,27.5,1473.7949,23.5,1469.7949" style="stroke:#181818;stroke-width:1.0;"/><line style="stroke:#181818;stroke-width:1.0;stroke-dasharray:2.0,2.0;" x1="25.5" x2="453" y1="1469.7949" y2="1469.7949"/><text fill="#000000" font-family="sans-serif" font-size="13" font-weight="bold" lengthAdjust="spacing" textLength="18" x="28" y="1465.0527">33</text><text fill="#000000" font-family="sans-serif" font-size="13" lengthAdjust="spacing" textLength="107" x="50" y="1465.0527">List&lt;RoomDTO&gt;</text><!--SRC=[xLOzRzim4DtrAoxEq2I8anRj9BW6cgXe3AGr4ATJij3IsIOYaIf91NL_VKbAeaXQ7WfqAL0juiUxuztZuv6AgXBX- -tx3rVlu9vA1Nm33vnN4XPCqWA12rWsgcrku8ut4fCtEwLgcLvVroLXggdAgvnNrn9_DCXod1QKR0Mf4j8epffgZI8vgGNPLWGKyb-WH8F9cl-4oMosQjQhlLHOpUVFR3QxvKmHob2ORdf3yXTanGHECo9UlWZSjsPWW5ND6J9bWIiKhoZWz9vkTyhYQY8KpMcjuuD9QZBxL9OsiJQlfUYoMcviJcPXmSiInGI8XDnrGqyxWyqUb-bTrx3eVdG4kyXQw2ApoAuTXMVYCYdG72rAjkq8PMqViEQIAYxsmyfcBCIMEj_bnhXTPD9cFsixSsiLJ8_44YqYkg4GQKOjsc4EvpDQeQQRCscHGzVP34CZSNmbTOsYPxcolME9carnYUfEdEd1zeZEg9iS8jB0v8bFvvu8KjYYkdU-fCP4ChARSzQhmYdYyfd1clCI2GCYq1FWUGf1k0d95Nqb2dtj3KtGyJZnGIUjmSOfi6_0D4fWfGHbMsTPuA6jlvgsxhHwSP7gyvOBr5WvdqSnTLAD2HfbfrlxyXWZGphz0UZ-BdcZmjIcfOk4_CmKLVkR_IBhNPz7Z5ZLkfRDoWLigr1CWpLmgsfuS5HyAZGJNdJz4KbXGrbni- -u6udB7QQ-4KQrK2Z8kaIhYxaVdpDCIAaCTK6TJa1_9USrR7J5rbOxEmsKGNYYBT1yniiEJS64au_mrer7MTcT3G_lsVdWn8_EZPfER- -L0EFfpgvup8DN3NnVmx0bgmshu8tcoSP-DKGV4NR4OSZv4M141AIWURQIyy8VzwOFs960nho7rHf8KPorJaPO2alto2BZ07sB9lq_mLAY9w1lNFqD4Vt36leleJ-Ka9MHNoRzcoOqz_psLJsyGTfhNPVMqV6U3Fd8zHLbRfWp_paJBkQLsUwnaBJ_g9HhJr4fJmvLlyYCxW-vw3t64Te00zO7f1XTDCI4JnctXRhJUXlP7dDf7zqxCwdtoPxdW8VnlJ9mpq_FtnEVJQU1IVXgyKoyTyjl]--></g></svg>