<?xml version="1.0" encoding="us-ascii" standalone="no"?><svg xmlns="http://www.w3.org/2000/svg" xmlns:xlink="http://www.w3.org/1999/xlink" contentStyleType="text/css" height="800px" preserveAspectRatio="none" style="width:1146px;height:800px;background:#FFFFFF;" version="1.1" viewBox="0 0 1146 800" width="1146px" zoomAndPan="magnify"><defs/><g><text fill="#000000" font-family="sans-serif" font-size="14" font-weight="bold" lengthAdjust="spacing" textLength="861" x="135.75" y="25.1074">US21: As Product Owner, I want the system to have a type of sensor that gives the sunset instant for a given calendar date.</text><!--class Sensor--><g id="elem_Sensor"><rect codeLine="4" fill="#F1F1F1" height="85.2422" id="Sensor" rx="2.5" ry="2.5" style="stroke:#181818;stroke-width:0.5;" width="314" x="359" y="46.6211"/><ellipse cx="489.25" cy="62.6211" fill="#B4A7E5" rx="11" ry="11" style="stroke:#181818;stroke-width:1.0;"/><path d="M490.2031,59.2617 L490.2031,65.918 L491.9219,65.918 Q492.5313,65.918 492.7969,66.1523 Q493.0625,66.3867 493.0625,66.7773 Q493.0625,67.1523 492.7969,67.3867 Q492.5313,67.6211 491.9219,67.6211 L486.7813,67.6211 Q486.1719,67.6211 485.9063,67.3867 Q485.6406,67.1523 485.6406,66.7617 Q485.6406,66.3867 485.9063,66.1523 Q486.1719,65.918 486.7813,65.918 L488.5,65.918 L488.5,59.2617 L486.7813,59.2617 Q486.1719,59.2617 485.9063,59.0273 Q485.6406,58.793 485.6406,58.4023 Q485.6406,58.0273 485.9063,57.793 Q486.1719,57.5586 486.7813,57.5586 L491.9219,57.5586 Q492.5313,57.5586 492.7969,57.793 Q493.0625,58.0273 493.0625,58.4023 Q493.0625,58.793 492.7969,59.0273 Q492.5313,59.2617 491.9219,59.2617 L490.2031,59.2617 Z " fill="#000000"/><text fill="#000000" font-family="sans-serif" font-size="14" font-style="italic" lengthAdjust="spacing" textLength="45" x="509.75" y="68.418">Sensor</text><line style="stroke:#181818;stroke-width:0.5;" x1="360" x2="672" y1="78.6211" y2="78.6211"/><line style="stroke:#181818;stroke-width:0.5;" x1="360" x2="672" y1="86.6211" y2="86.6211"/><ellipse cx="370" cy="101.4316" fill="#84BE84" rx="3" ry="3" style="stroke:#038048;stroke-width:1.0;"/><text fill="#000000" font-family="sans-serif" font-size="14" lengthAdjust="spacing" textLength="156" x="379" y="105.7285">getSensorName(): String</text><ellipse cx="370" cy="120.0527" fill="#84BE84" rx="3" ry="3" style="stroke:#038048;stroke-width:1.0;"/><text fill="#000000" font-family="sans-serif" font-size="14" lengthAdjust="spacing" textLength="288" x="379" y="124.3496">getSensorFunctionality(): SensorFunctionality</text></g><!--class SensorSpecificTimeLocation--><g id="elem_SensorSpecificTimeLocation"><rect codeLine="9" fill="#F1F1F1" height="85.2422" id="SensorSpecificTimeLocation" rx="2.5" ry="2.5" style="stroke:#181818;stroke-width:0.5;" width="370" x="331" y="192.6211"/><ellipse cx="422.25" cy="208.6211" fill="#B4A7E5" rx="11" ry="11" style="stroke:#181818;stroke-width:1.0;"/><path d="M423.2031,205.2617 L423.2031,211.918 L424.9219,211.918 Q425.5313,211.918 425.7969,212.1523 Q426.0625,212.3867 426.0625,212.7773 Q426.0625,213.1523 425.7969,213.3867 Q425.5313,213.6211 424.9219,213.6211 L419.7813,213.6211 Q419.1719,213.6211 418.9063,213.3867 Q418.6406,213.1523 418.6406,212.7617 Q418.6406,212.3867 418.9063,212.1523 Q419.1719,211.918 419.7813,211.918 L421.5,211.918 L421.5,205.2617 L419.7813,205.2617 Q419.1719,205.2617 418.9063,205.0273 Q418.6406,204.793 418.6406,204.4023 Q418.6406,204.0273 418.9063,203.793 Q419.1719,203.5586 419.7813,203.5586 L424.9219,203.5586 Q425.5313,203.5586 425.7969,203.793 Q426.0625,204.0273 426.0625,204.4023 Q426.0625,204.793 425.7969,205.0273 Q425.5313,205.2617 424.9219,205.2617 L423.2031,205.2617 Z " fill="#000000"/><text fill="#000000" font-family="sans-serif" font-size="14" font-style="italic" lengthAdjust="spacing" textLength="179" x="442.75" y="214.418">SensorSpecificTimeLocation</text><line style="stroke:#181818;stroke-width:0.5;" x1="332" x2="700" y1="224.6211" y2="224.6211"/><line style="stroke:#181818;stroke-width:0.5;" x1="332" x2="700" y1="232.6211" y2="232.6211"/><ellipse cx="342" cy="256.7422" fill="#84BE84" rx="3" ry="3" style="stroke:#038048;stroke-width:1.0;"/><text fill="#000000" font-family="sans-serif" font-size="14" lengthAdjust="spacing" textLength="228" x="351" y="251.7285">getValueAtSpecificTimeAndLocation</text><text fill="#000000" font-family="sans-serif" font-size="14" lengthAdjust="spacing" textLength="344" x="351" y="270.3496">(Timestamp dateAndTime, GPSCode gpsCode): String</text></g><!--class SunsetSensor--><g id="elem_SunsetSensor"><rect codeLine="13" fill="#F1F1F1" height="196.9688" id="SunsetSensor" rx="2.5" ry="2.5" style="stroke:#181818;stroke-width:0.5;" width="370" x="331" y="366.6211"/><ellipse cx="467.25" cy="382.6211" fill="#ADD1B2" rx="11" ry="11" style="stroke:#181818;stroke-width:1.0;"/><path d="M470.0156,378.4961 Q470.1719,378.2773 470.3594,378.168 Q470.5469,378.0586 470.7656,378.0586 Q471.1406,378.0586 471.375,378.3242 Q471.6094,378.5742 471.6094,379.1836 L471.6094,380.6367 Q471.6094,381.2461 471.375,381.5117 Q471.1406,381.7773 470.7656,381.7773 Q470.4219,381.7773 470.2188,381.5742 Q470.0156,381.3867 469.9063,380.8711 Q469.8594,380.5117 469.6719,380.3242 Q469.3438,379.9492 468.7344,379.7305 Q468.125,379.5117 467.5,379.5117 Q466.7344,379.5117 466.0938,379.8398 Q465.4688,380.168 464.9688,380.918 Q464.4844,381.668 464.4844,382.6992 L464.4844,383.793 Q464.4844,385.0273 465.375,385.8555 Q466.2656,386.668 467.8594,386.668 Q468.7969,386.668 469.4531,386.418 Q469.8438,386.2617 470.2656,385.8242 Q470.5313,385.5586 470.6719,385.4805 Q470.8281,385.4023 471.0313,385.4023 Q471.3594,385.4023 471.6094,385.668 Q471.875,385.918 471.875,386.2617 Q471.875,386.6055 471.5313,387.0117 Q471.0313,387.5898 470.2344,387.918 Q469.1563,388.3711 467.8594,388.3711 Q466.3438,388.3711 465.1406,387.7461 Q464.1563,387.2461 463.4688,386.1836 Q462.7813,385.1055 462.7813,383.8242 L462.7813,382.668 Q462.7813,381.3398 463.3906,380.1992 Q464.0156,379.043 465.1094,378.4336 Q466.2031,377.8086 467.4375,377.8086 Q468.1719,377.8086 468.8125,377.9805 Q469.4688,378.1367 470.0156,378.4961 Z " fill="#000000"/><text fill="#000000" font-family="sans-serif" font-size="14" lengthAdjust="spacing" textLength="89" x="487.75" y="388.418">SunsetSensor</text><line style="stroke:#181818;stroke-width:0.5;" x1="332" x2="700" y1="398.6211" y2="398.6211"/><rect fill="none" height="6" style="stroke:#C82930;stroke-width:1.0;" width="6" x="339" y="410.4316"/><text fill="#000000" font-family="sans-serif" font-size="14" lengthAdjust="spacing" textLength="124" x="351" y="417.7285">sensorName: String</text><rect fill="none" height="6" style="stroke:#C82930;stroke-width:1.0;" width="6" x="339" y="429.0527"/><text fill="#000000" font-family="sans-serif" font-size="14" lengthAdjust="spacing" textLength="256" x="351" y="436.3496">sensorFunctionality: SensorFunctionality</text><rect fill="none" height="6" style="stroke:#C82930;stroke-width:1.0;" width="6" x="339" y="447.6738"/><text fill="#000000" font-family="sans-serif" font-size="14" lengthAdjust="spacing" textLength="171" x="351" y="454.9707">factoryValue: FactoryValue</text><rect fill="none" height="6" style="stroke:#C82930;stroke-width:1.0;" width="6" x="339" y="466.2949"/><text fill="#000000" font-family="sans-serif" font-size="14" lengthAdjust="spacing" textLength="78" x="351" y="473.5918">value: Value</text><line style="stroke:#181818;stroke-width:0.5;" x1="332" x2="700" y1="481.1055" y2="481.1055"/><ellipse cx="342" cy="495.916" fill="#84BE84" rx="3" ry="3" style="stroke:#038048;stroke-width:1.0;"/><text fill="#000000" font-family="sans-serif" font-size="14" lengthAdjust="spacing" textLength="156" x="351" y="500.2129">getSensorName(): String</text><ellipse cx="342" cy="514.5371" fill="#84BE84" rx="3" ry="3" style="stroke:#038048;stroke-width:1.0;"/><text fill="#000000" font-family="sans-serif" font-size="14" lengthAdjust="spacing" textLength="288" x="351" y="518.834">getSensorFunctionality(): SensorFunctionality</text><ellipse cx="342" cy="542.4688" fill="#84BE84" rx="3" ry="3" style="stroke:#038048;stroke-width:1.0;"/><text fill="#000000" font-family="sans-serif" font-size="14" lengthAdjust="spacing" textLength="228" x="351" y="537.4551">getValueAtSpecificTimeAndLocation</text><text fill="#000000" font-family="sans-serif" font-size="14" lengthAdjust="spacing" textLength="344" x="351" y="556.0762">(Timestamp dateAndTime, GPSCode gpsCode): String</text></g><!--class FactoryValue--><g id="elem_FactoryValue"><rect codeLine="23" fill="#F1F1F1" height="66.6211" id="FactoryValue" rx="2.5" ry="2.5" style="stroke:#181818;stroke-width:0.5;" width="266" x="7" y="431.6211"/><ellipse cx="93.75" cy="447.6211" fill="#ADD1B2" rx="11" ry="11" style="stroke:#181818;stroke-width:1.0;"/><path d="M96.5156,443.4961 Q96.6719,443.2773 96.8594,443.168 Q97.0469,443.0586 97.2656,443.0586 Q97.6406,443.0586 97.875,443.3242 Q98.1094,443.5742 98.1094,444.1836 L98.1094,445.6367 Q98.1094,446.2461 97.875,446.5117 Q97.6406,446.7773 97.2656,446.7773 Q96.9219,446.7773 96.7188,446.5742 Q96.5156,446.3867 96.4063,445.8711 Q96.3594,445.5117 96.1719,445.3242 Q95.8438,444.9492 95.2344,444.7305 Q94.625,444.5117 94,444.5117 Q93.2344,444.5117 92.5938,444.8398 Q91.9688,445.168 91.4688,445.918 Q90.9844,446.668 90.9844,447.6992 L90.9844,448.793 Q90.9844,450.0273 91.875,450.8555 Q92.7656,451.668 94.3594,451.668 Q95.2969,451.668 95.9531,451.418 Q96.3438,451.2617 96.7656,450.8242 Q97.0313,450.5586 97.1719,450.4805 Q97.3281,450.4023 97.5313,450.4023 Q97.8594,450.4023 98.1094,450.668 Q98.375,450.918 98.375,451.2617 Q98.375,451.6055 98.0313,452.0117 Q97.5313,452.5898 96.7344,452.918 Q95.6563,453.3711 94.3594,453.3711 Q92.8438,453.3711 91.6406,452.7461 Q90.6563,452.2461 89.9688,451.1836 Q89.2813,450.1055 89.2813,448.8242 L89.2813,447.668 Q89.2813,446.3398 89.8906,445.1992 Q90.5156,444.043 91.6094,443.4336 Q92.7031,442.8086 93.9375,442.8086 Q94.6719,442.8086 95.3125,442.9805 Q95.9688,443.1367 96.5156,443.4961 Z " fill="#000000"/><text fill="#000000" font-family="sans-serif" font-size="14" lengthAdjust="spacing" textLength="84" x="114.25" y="453.418">FactoryValue</text><line style="stroke:#181818;stroke-width:0.5;" x1="8" x2="272" y1="463.6211" y2="463.6211"/><line style="stroke:#181818;stroke-width:0.5;" x1="8" x2="272" y1="471.6211" y2="471.6211"/><ellipse cx="18" cy="486.4316" fill="#84BE84" rx="3" ry="3" style="stroke:#038048;stroke-width:1.0;"/><text fill="#000000" font-family="sans-serif" font-size="14" lengthAdjust="spacing" textLength="240" x="27" y="490.7285">createValueTimeAndLocation(): Value</text></g><!--class SensorFunctionality--><g id="elem_SensorFunctionality"><rect codeLine="27" fill="#F1F1F1" height="252.832" id="SensorFunctionality" rx="2.5" ry="2.5" style="stroke:#181818;stroke-width:0.5;" width="157" x="758.5" y="338.6211"/><ellipse cx="773.5" cy="354.6211" fill="#EB937F" rx="11" ry="11" style="stroke:#181818;stroke-width:1.0;"/><path d="M772.3594,355.418 L772.3594,357.918 L776.6875,357.918 L776.6875,356.9961 Q776.6875,356.3867 776.9219,356.1211 Q777.1719,355.8555 777.5469,355.8555 Q777.9219,355.8555 778.1563,356.1211 Q778.3906,356.3867 778.3906,356.9961 L778.3906,359.6211 L770.3906,359.6211 Q769.7656,359.6211 769.5,359.3867 Q769.25,359.1523 769.25,358.7617 Q769.25,358.3867 769.5156,358.1523 Q769.7813,357.918 770.3906,357.918 L770.6563,357.918 L770.6563,351.2617 L770.3906,351.2617 Q769.7656,351.2617 769.5,351.0273 Q769.25,350.793 769.25,350.4023 Q769.25,350.0273 769.5,349.793 Q769.7656,349.5586 770.3906,349.5586 L778.0156,349.5586 L778.0156,352.1523 Q778.0156,352.7617 777.7813,353.0273 Q777.5625,353.2773 777.1719,353.2773 Q776.7969,353.2773 776.5625,353.0273 Q776.3281,352.7617 776.3281,352.1523 L776.3281,351.2617 L772.3594,351.2617 L772.3594,353.7148 L773.8438,353.7148 Q773.8438,353.0586 773.9688,352.8711 Q774.2344,352.4648 774.7031,352.4648 Q775.0781,352.4648 775.3125,352.7305 Q775.5469,352.9805 775.5469,353.5898 L775.5469,355.5586 Q775.5469,356.1055 775.4219,356.293 Q775.1563,356.6836 774.7031,356.6836 Q774.2344,356.6836 773.9688,356.2773 Q773.8438,356.0898 773.8438,355.418 L772.3594,355.418 Z " fill="#000000"/><text fill="#000000" font-family="sans-serif" font-size="14" lengthAdjust="spacing" textLength="125" x="787.5" y="360.418">SensorFunctionality</text><line style="stroke:#181818;stroke-width:0.5;" x1="759.5" x2="914.5" y1="370.6211" y2="370.6211"/><text fill="#000000" font-family="sans-serif" font-size="14" lengthAdjust="spacing" textLength="107" x="764.5" y="389.7285">TEMPERATURE,</text><text fill="#000000" font-family="sans-serif" font-size="14" lengthAdjust="spacing" textLength="67" x="764.5" y="408.3496">HUMIDITY,</text><text fill="#000000" font-family="sans-serif" font-size="14" lengthAdjust="spacing" textLength="115" x="764.5" y="426.9707">BINARY_STATUS,</text><text fill="#000000" font-family="sans-serif" font-size="14" lengthAdjust="spacing" textLength="121" x="764.5" y="445.5918">SCALE_POSITION,</text><text fill="#000000" font-family="sans-serif" font-size="14" lengthAdjust="spacing" textLength="39" x="764.5" y="464.2129">WIND,</text><text fill="#000000" font-family="sans-serif" font-size="14" lengthAdjust="spacing" textLength="62" x="764.5" y="482.834">SUNRISE,</text><text fill="#000000" font-family="sans-serif" font-size="14" lengthAdjust="spacing" textLength="58" x="764.5" y="501.4551">SUNSET,</text><text fill="#000000" font-family="sans-serif" font-size="14" lengthAdjust="spacing" textLength="85" x="764.5" y="520.0762">DEW_POINT,</text><text fill="#000000" font-family="sans-serif" font-size="14" lengthAdjust="spacing" textLength="132" x="764.5" y="538.6973">SOLAR_RADIATION,</text><text fill="#000000" font-family="sans-serif" font-size="14" lengthAdjust="spacing" textLength="56" x="764.5" y="557.3184">POWER,</text><text fill="#000000" font-family="sans-serif" font-size="14" lengthAdjust="spacing" textLength="57" x="764.5" y="575.9395">ENERGY</text><line style="stroke:#181818;stroke-width:0.5;" x1="759.5" x2="914.5" y1="583.4531" y2="583.4531"/></g><!--class SunsetSensorValue--><g id="elem_SunsetSensorValue"><rect codeLine="41" fill="#F1F1F1" height="122.4844" id="SunsetSensorValue" rx="2.5" ry="2.5" style="stroke:#181818;stroke-width:0.5;" width="189" x="421.5" y="670.6211"/><ellipse cx="450.9" cy="686.6211" fill="#ADD1B2" rx="11" ry="11" style="stroke:#181818;stroke-width:1.0;"/><path d="M453.6656,682.4961 Q453.8219,682.2773 454.0094,682.168 Q454.1969,682.0586 454.4156,682.0586 Q454.7906,682.0586 455.025,682.3242 Q455.2594,682.5742 455.2594,683.1836 L455.2594,684.6367 Q455.2594,685.2461 455.025,685.5117 Q454.7906,685.7773 454.4156,685.7773 Q454.0719,685.7773 453.8688,685.5742 Q453.6656,685.3867 453.5563,684.8711 Q453.5094,684.5117 453.3219,684.3242 Q452.9938,683.9492 452.3844,683.7305 Q451.775,683.5117 451.15,683.5117 Q450.3844,683.5117 449.7438,683.8398 Q449.1188,684.168 448.6188,684.918 Q448.1344,685.668 448.1344,686.6992 L448.1344,687.793 Q448.1344,689.0273 449.025,689.8555 Q449.9156,690.668 451.5094,690.668 Q452.4469,690.668 453.1031,690.418 Q453.4938,690.2617 453.9156,689.8242 Q454.1813,689.5586 454.3219,689.4805 Q454.4781,689.4023 454.6813,689.4023 Q455.0094,689.4023 455.2594,689.668 Q455.525,689.918 455.525,690.2617 Q455.525,690.6055 455.1813,691.0117 Q454.6813,691.5898 453.8844,691.918 Q452.8063,692.3711 451.5094,692.3711 Q449.9938,692.3711 448.7906,691.7461 Q447.8063,691.2461 447.1188,690.1836 Q446.4313,689.1055 446.4313,687.8242 L446.4313,686.668 Q446.4313,685.3398 447.0406,684.1992 Q447.6656,683.043 448.7594,682.4336 Q449.8531,681.8086 451.0875,681.8086 Q451.8219,681.8086 452.4625,681.9805 Q453.1188,682.1367 453.6656,682.4961 Z " fill="#000000"/><text fill="#000000" font-family="sans-serif" font-size="14" lengthAdjust="spacing" textLength="125" x="468.1" y="692.418">SunsetSensorValue</text><line style="stroke:#181818;stroke-width:0.5;" x1="422.5" x2="609.5" y1="702.6211" y2="702.6211"/><rect fill="none" height="6" style="stroke:#C82930;stroke-width:1.0;" width="6" x="429.5" y="714.4316"/><text fill="#000000" font-family="sans-serif" font-size="14" lengthAdjust="spacing" textLength="68" x="441.5" y="721.7285">unit: String</text><rect fill="none" height="6" style="stroke:#C82930;stroke-width:1.0;" width="6" x="429.5" y="733.0527"/><text fill="#000000" font-family="sans-serif" font-size="14" lengthAdjust="spacing" textLength="141" x="441.5" y="740.3496">timestamp: Timestamp</text><rect fill="none" height="6" style="stroke:#C82930;stroke-width:1.0;" width="6" x="429.5" y="751.6738"/><text fill="#000000" font-family="sans-serif" font-size="14" lengthAdjust="spacing" textLength="128" x="441.5" y="758.9707">gpsCode: GPSCode</text><line style="stroke:#181818;stroke-width:0.5;" x1="422.5" x2="609.5" y1="766.4844" y2="766.4844"/><ellipse cx="432.5" cy="781.2949" fill="#84BE84" rx="3" ry="3" style="stroke:#038048;stroke-width:1.0;"/><text fill="#000000" font-family="sans-serif" font-size="14" lengthAdjust="spacing" textLength="163" x="441.5" y="785.5918">getValueWithUnit(): String</text></g><!--class Value--><g id="elem_Value"><rect codeLine="48" fill="#F1F1F1" height="66.6211" id="Value" rx="2.5" ry="2.5" style="stroke:#181818;stroke-width:0.5;" width="189" x="950.5" y="431.6211"/><ellipse cx="1022.75" cy="447.6211" fill="#B4A7E5" rx="11" ry="11" style="stroke:#181818;stroke-width:1.0;"/><path d="M1023.7031,444.2617 L1023.7031,450.918 L1025.4219,450.918 Q1026.0313,450.918 1026.2969,451.1523 Q1026.5625,451.3867 1026.5625,451.7773 Q1026.5625,452.1523 1026.2969,452.3867 Q1026.0313,452.6211 1025.4219,452.6211 L1020.2813,452.6211 Q1019.6719,452.6211 1019.4063,452.3867 Q1019.1406,452.1523 1019.1406,451.7617 Q1019.1406,451.3867 1019.4063,451.1523 Q1019.6719,450.918 1020.2813,450.918 L1022,450.918 L1022,444.2617 L1020.2813,444.2617 Q1019.6719,444.2617 1019.4063,444.0273 Q1019.1406,443.793 1019.1406,443.4023 Q1019.1406,443.0273 1019.4063,442.793 Q1019.6719,442.5586 1020.2813,442.5586 L1025.4219,442.5586 Q1026.0313,442.5586 1026.2969,442.793 Q1026.5625,443.0273 1026.5625,443.4023 Q1026.5625,443.793 1026.2969,444.0273 Q1026.0313,444.2617 1025.4219,444.2617 L1023.7031,444.2617 Z " fill="#000000"/><text fill="#000000" font-family="sans-serif" font-size="14" font-style="italic" lengthAdjust="spacing" textLength="36" x="1043.25" y="453.418">Value</text><line style="stroke:#181818;stroke-width:0.5;" x1="951.5" x2="1138.5" y1="463.6211" y2="463.6211"/><line style="stroke:#181818;stroke-width:0.5;" x1="951.5" x2="1138.5" y1="471.6211" y2="471.6211"/><ellipse cx="961.5" cy="486.4316" fill="#84BE84" rx="3" ry="3" style="stroke:#038048;stroke-width:1.0;"/><text fill="#000000" font-family="sans-serif" font-size="14" lengthAdjust="spacing" textLength="163" x="970.5" y="490.7285">getValueWithUnit(): String</text></g><!--reverse link Sensor to SensorSpecificTimeLocation--><g id="link_Sensor_SensorSpecificTimeLocation"><path d="M516,149.7711 C516,168.8811 516,173.4711 516,192.5611 " fill="none" id="Sensor-backto-SensorSpecificTimeLocation" style="stroke:#181818;stroke-width:1.0;"/><polygon fill="none" points="516,131.7711,510,149.7711,522,149.7711,516,131.7711" style="stroke:#181818;stroke-width:1.0;"/></g><!--reverse link SensorSpecificTimeLocation to SunsetSensor--><g id="link_SensorSpecificTimeLocation_SunsetSensor"><path d="M516,295.6711 C516,320.5911 516,335.3911 516,366.5311 " fill="none" id="SensorSpecificTimeLocation-backto-SunsetSensor" style="stroke:#181818;stroke-width:1.0;stroke-dasharray:7.0,7.0;"/><polygon fill="none" points="516,277.6711,510,295.6711,522,295.6711,516,277.6711" style="stroke:#181818;stroke-width:1.0;"/></g><!--reverse link Value to SunsetSensorValue--><g id="link_Value_SunsetSensorValue"><path d="M1012.8205,513.4117 C992.5405,541.6517 970.33,567.0611 933,591.6211 C833.23,657.2711 699.6,694.6011 610.8,713.7011 " fill="none" id="Value-backto-SunsetSensorValue" style="stroke:#181818;stroke-width:1.0;stroke-dasharray:7.0,7.0;"/><polygon fill="none" points="1023.32,498.7911,1007.947,509.9118,1017.694,516.9115,1023.32,498.7911" style="stroke:#181818;stroke-width:1.0;"/></g><!--link FactoryValue to SunsetSensor--><g id="link_FactoryValue_SunsetSensor"><path codeLine="52" d="M273.09,465.1211 C291.79,465.1211 311.28,465.1211 330.73,465.1211 " fill="none" id="FactoryValue-SunsetSensor" style="stroke:#181818;stroke-width:1.0;"/><text fill="#000000" font-family="sans-serif" font-size="13" lengthAdjust="spacing" textLength="21" x="291.5" y="458.1494">has</text></g><!--link FactoryValue to SunsetSensorValue--><g id="link_FactoryValue_SunsetSensorValue"><path codeLine="53" d="M184.21,498.7011 C219.02,524.2311 268.87,560.5211 313,591.6211 C350.18,617.8311 386.6022,642.9117 422.2522,667.2117 " fill="none" id="FactoryValue-to-SunsetSensorValue" style="stroke:#181818;stroke-width:1.0;stroke-dasharray:7.0,7.0;"/><polygon fill="#181818" points="427.21,670.5911,422.0262,662.2168,423.0785,667.7749,417.5204,668.8272,427.21,670.5911" style="stroke:#181818;stroke-width:1.0;"/><text fill="#000000" font-family="sans-serif" font-size="13" lengthAdjust="spacing" textLength="57" x="381" y="636.6494">&#171;creates&#187;</text></g><!--link SunsetSensor to SensorFunctionality--><g id="link_SunsetSensor_SensorFunctionality"><path codeLine="54" d="M701.33,465.1211 C721.21,465.1211 740.57,465.1211 758.14,465.1211 " fill="none" id="SunsetSensor-SensorFunctionality" style="stroke:#181818;stroke-width:1.0;"/><text fill="#000000" font-family="sans-serif" font-size="13" lengthAdjust="spacing" textLength="21" x="719.25" y="458.1494">has</text></g><!--link SunsetSensor to SunsetSensorValue--><g id="link_SunsetSensor_SunsetSensorValue"><path codeLine="55" d="M516,563.8611 C516,599.6211 516,639.0011 516,670.5111 " fill="none" id="SunsetSensor-SunsetSensorValue" style="stroke:#181818;stroke-width:1.0;"/><text fill="#000000" font-family="sans-serif" font-size="13" lengthAdjust="spacing" textLength="21" x="517" y="636.6494">has</text></g><!--SRC=[jLHDZvim4BtpA-RML0s9sYDQHQ8RTekK9H4c6qMg55am8PR083na6wtwtsim-Q11Usgvu7b-VfvvCq22CeGr-_RL0LV1gYgIEYPOlacink336vS4T41G9qMO0nLmu4S43dGg4OezA9Igg3I74wJYYChGQwcGG4X5ZS9UCtYxBI7c6Sg4Lv1mmedrwK1KAcSwBJFDhFDi4XVvDCwuKdOYU5hntBA49ApsF4PWvhftwqkAP8A0vpZwx02ZIiZqPkEfbZ69Gl9CqAbbtCFMxtjrLc8izYAEH8wB8kOD6V0NwRHLHp7tl_AiHfTk-QvCpaT-ob63Q0VoiYrMxpN069vNxB584D9IDUzhxZgPjd9WhNzTiI8lCynHaleWmNVBLXSxBe8TrYjvs0TR6q15TMfhSk3f9hBiem5DzA-S_xyEtXRGZ4jSeHPemxzkQV8pbUd3AEjyA5ij0Vg9l9UL5xhHElJ6BV1Z_UBF_MXhekz-u8RR7OiqWnc8FReBRxTQCZ_obu71DdumxtRNGUWpxn8mBpBhkRVHX_oW2zbouOQxq9txxbLcjTnueLbwWHS-Rzlbu0mP6su6gGNqpDHIq7LQwEos0nVZBRipsJcxVktSHj1XhHL6lGPSlwUB-nyVwFNAxYNkwF-DwXCcazbzRGuyF9WMgzdCwdq-zb0_ZMwVPm_9QjeV]--></g></svg>