<?xml version="1.0" encoding="us-ascii" standalone="no"?><svg xmlns="http://www.w3.org/2000/svg" xmlns:xlink="http://www.w3.org/1999/xlink" contentStyleType="text/css" height="504px" preserveAspectRatio="none" style="width:795px;height:504px;background:#FFFFFF;" version="1.1" viewBox="0 0 795 504" width="795px" zoomAndPan="magnify"><defs/><g><text fill="#000000" font-family="sans-serif" font-size="14" font-weight="bold" lengthAdjust="spacing" textLength="245" x="60.25" y="30.1074">GET Request with Weather Service</text><rect fill="#FFFFFF" height="93.873" style="stroke:#181818;stroke-width:1.0;" width="10" x="397.25" y="156.5332"/><line style="stroke:#181818;stroke-width:0.5;stroke-dasharray:5.0,5.0;" x1="232.75" x2="232.75" y1="123.2422" y2="268.4063"/><line style="stroke:#181818;stroke-width:0.5;stroke-dasharray:5.0,5.0;" x1="401.75" x2="401.75" y1="123.2422" y2="268.4063"/><text fill="#000000" font-family="sans-serif" font-size="14" lengthAdjust="spacing" textLength="29" x="215.75" y="119.7285">User</text><ellipse cx="233.25" cy="53.1211" fill="#FFFFFF" rx="8" ry="8" style="stroke:#181818;stroke-width:0.5;"/><path d="M233.25,61.1211 L233.25,88.1211 M220.25,69.1211 L246.25,69.1211 M233.25,88.1211 L220.25,103.1211 M233.25,88.1211 L246.25,103.1211 " fill="none" style="stroke:#181818;stroke-width:0.5;"/><text fill="#000000" font-family="sans-serif" font-size="14" lengthAdjust="spacing" textLength="29" x="215.75" y="282.5137">User</text><ellipse cx="233.25" cy="294.5273" fill="#FFFFFF" rx="8" ry="8" style="stroke:#181818;stroke-width:0.5;"/><path d="M233.25,302.5273 L233.25,329.5273 M220.25,310.5273 L246.25,310.5273 M233.25,329.5273 L220.25,344.5273 M233.25,329.5273 L246.25,344.5273 " fill="none" style="stroke:#181818;stroke-width:0.5;"/><rect fill="#FFFFFF" height="51.2422" rx="2.5" ry="2.5" style="stroke:#181818;stroke-width:0.5;" width="91" x="356.75" y="71"/><text fill="#000000" font-family="sans-serif" font-size="14" lengthAdjust="spacing" textLength="62" x="371.25" y="93.1074">&#171;System&#187;</text><text fill="#000000" font-family="sans-serif" font-size="14" lengthAdjust="spacing" textLength="77" x="363.75" y="111.7285">:SmartHome</text><rect fill="#FFFFFF" height="51.2422" rx="2.5" ry="2.5" style="stroke:#181818;stroke-width:0.5;" width="91" x="356.75" y="267.4063"/><text fill="#000000" font-family="sans-serif" font-size="14" lengthAdjust="spacing" textLength="62" x="371.25" y="289.5137">&#171;System&#187;</text><text fill="#000000" font-family="sans-serif" font-size="14" lengthAdjust="spacing" textLength="77" x="363.75" y="308.1348">:SmartHome</text><rect fill="#FFFFFF" height="93.873" style="stroke:#181818;stroke-width:1.0;" width="10" x="397.25" y="156.5332"/><polygon fill="#181818" points="385.25,152.5332,395.25,156.5332,385.25,160.5332,389.25,156.5332" style="stroke:#181818;stroke-width:1.0;"/><line style="stroke:#181818;stroke-width:1.0;" x1="233.25" x2="391.25" y1="156.5332" y2="156.5332"/><text fill="#000000" font-family="sans-serif" font-size="13" font-weight="bold" lengthAdjust="spacing" textLength="7" x="242.75" y="151.2705">1</text><text fill="#000000" font-family="sans-serif" font-size="13" lengthAdjust="spacing" textLength="134" x="253.75" y="151.2705">Request to get Objects</text><ellipse cx="568.75" cy="187.0742" fill="none" rx="4" ry="4" style="stroke:#181818;stroke-width:1.5;"/><polygon fill="#181818" points="551.75,183.8242,561.75,187.8242,551.75,191.8242,555.75,187.8242" style="stroke:#181818;stroke-width:1.0;"/><line style="stroke:#181818;stroke-width:1.0;" x1="407.25" x2="557.75" y1="187.8242" y2="187.8242"/><text fill="#000000" font-family="sans-serif" font-size="13" font-weight="bold" lengthAdjust="spacing" textLength="7" x="419.25" y="182.5615">2</text><text fill="#000000" font-family="sans-serif" font-size="13" lengthAdjust="spacing" textLength="127" x="430.25" y="182.5615">Request to get Object</text><polygon fill="#181818" points="418.25,215.1152,408.25,219.1152,418.25,223.1152,414.25,219.1152" style="stroke:#181818;stroke-width:1.0;"/><ellipse cx="568.75" cy="218.3652" fill="none" rx="4" ry="4" style="stroke:#181818;stroke-width:1.5;"/><line style="stroke:#181818;stroke-width:1.0;stroke-dasharray:2.0,2.0;" x1="412.25" x2="564.25" y1="219.1152" y2="219.1152"/><text fill="#000000" font-family="sans-serif" font-size="13" font-weight="bold" lengthAdjust="spacing" textLength="7" x="456.25" y="213.8525">3</text><text fill="#000000" font-family="sans-serif" font-size="13" lengthAdjust="spacing" textLength="53" x="467.25" y="213.8525">response</text><polygon fill="#181818" points="244.25,246.4063,234.25,250.4063,244.25,254.4063,240.25,250.4063" style="stroke:#181818;stroke-width:1.0;"/><line style="stroke:#181818;stroke-width:1.0;stroke-dasharray:2.0,2.0;" x1="238.25" x2="401.25" y1="250.4063" y2="250.4063"/><text fill="#000000" font-family="sans-serif" font-size="13" font-weight="bold" lengthAdjust="spacing" textLength="7" x="285.75" y="245.1436">4</text><text fill="#000000" font-family="sans-serif" font-size="13" lengthAdjust="spacing" textLength="53" x="296.75" y="245.1436">response</text><rect fill="#DDDDDD" height="125.7266" id="_legend" rx="7.5" ry="7.5" style="stroke:#000000;stroke-width:1.0;" width="763" x="12" y="359.0273"/><text fill="#000000" font-family="sans-serif" font-size="14" font-weight="bold" lengthAdjust="spacing" textLength="225" x="17" y="379.1348">This request can be included in:</text><text fill="#000000" font-family="sans-serif" font-size="14" font-weight="bold" lengthAdjust="spacing" textLength="91" x="21" y="399.7559">Request GET</text><text fill="#000000" font-family="sans-serif" font-size="14" font-weight="bold" lengthAdjust="spacing" textLength="71" x="266" y="399.7559">Response</text><text fill="#000000" font-family="sans-serif" font-size="14" font-weight="bold" lengthAdjust="spacing" textLength="137" x="21" y="418.377">/house/{id} (UC34.3)</text><text fill="#000000" font-family="sans-serif" font-size="14" font-weight="bold" lengthAdjust="spacing" textLength="504" x="266" y="418.377">Double of maximum temperature difference between outside and inside</text><text fill="#000000" font-family="sans-serif" font-size="14" font-weight="bold" lengthAdjust="spacing" textLength="237" x="21" y="436.998">/actuatorfunctionality/{id} (UC37.1)</text><text fill="#000000" font-family="sans-serif" font-size="14" font-weight="bold" lengthAdjust="spacing" textLength="428" x="266" y="436.998">List of Devices with Actuator Functionality and Room location</text><text fill="#000000" font-family="sans-serif" font-size="14" font-weight="bold" lengthAdjust="spacing" textLength="159" x="21" y="455.6191">/house/weather (UC38)</text><text fill="#000000" font-family="sans-serif" font-size="14" font-weight="bold" lengthAdjust="spacing" textLength="208" x="266" y="455.6191">Today's Sunrise/Sunset hours</text><text fill="#000000" font-family="sans-serif" font-size="14" font-weight="bold" lengthAdjust="spacing" textLength="159" x="21" y="474.2402">/house/weather (UC39)</text><text fill="#000000" font-family="sans-serif" font-size="14" font-weight="bold" lengthAdjust="spacing" textLength="216" x="266" y="474.2402">Temperature for selected hour</text><line style="stroke:#000000;stroke-width:1.0;" x1="17" x2="770" y1="384.6484" y2="384.6484"/><line style="stroke:#000000;stroke-width:1.0;" x1="17" x2="770" y1="403.2695" y2="403.2695"/><line style="stroke:#000000;stroke-width:1.0;" x1="17" x2="770" y1="421.8906" y2="421.8906"/><line style="stroke:#000000;stroke-width:1.0;" x1="17" x2="770" y1="440.5117" y2="440.5117"/><line style="stroke:#000000;stroke-width:1.0;" x1="17" x2="770" y1="459.1328" y2="459.1328"/><line style="stroke:#000000;stroke-width:1.0;" x1="17" x2="770" y1="477.7539" y2="477.7539"/><line style="stroke:#000000;stroke-width:1.0;" x1="17" x2="17" y1="384.6484" y2="477.7539"/><line style="stroke:#000000;stroke-width:1.0;" x1="262" x2="262" y1="384.6484" y2="477.7539"/><line style="stroke:#000000;stroke-width:1.0;" x1="770" x2="770" y1="384.6484" y2="477.7539"/><!--SRC=[bLF1RjD04BtxAqQz097I2XK9Y4Aaqa9x024bgRYqX_LwR2_rxfgTsOQeuT-PjPtKGbJ0nHxll3TltiwO3JS8bn_MiCJl4ObXOxY6hwYunW0h3FT6OvRHdN6j2ie29PpJ-1c9L8LdZQaSQ7ICOOHIcdruh_HT5NnqnRblV81DRHX787coqQPLZly6tQikiSIGWlycNA4gCFmhxL8mxP_1MUSDhaaCZnp0qNo-sXAZNInkt6nb9NNbBHw18g0kaQd8taMR2pFHOReOCZ0xt3zxg93XI_uDDLCIC_UASLzYm4yN_lOfqXupdquxK41glIFiDENmKVEGAV1tdInhi49NGEwPlSrWCbdNXeJIAshb84SmJZUnm4A2sMIIxTuTMaexrNts4h1BoPFQHyAJ1rFyXEVNvwUlZazV9DI5ZxdieI_1gX_6HWlIGuj1SGm8XIc78OeaRn0T-CXa2WJbadGA-_fY8oePJncT6F9EDOQtZtglZrzsUf-CT2Xg5vZMc_gbFnkuy75CxYIMtbjel5RfUEnaC_megVYRhlJQ5shxZ60LNJ22a3V9Q0GUw2dcsvuvibnA6uIDJ5FkDd5tMHf6FvDV]--></g></svg>