<?xml version="1.0" encoding="us-ascii" standalone="no"?><svg xmlns="http://www.w3.org/2000/svg" xmlns:xlink="http://www.w3.org/1999/xlink" contentStyleType="text/css" height="442px" preserveAspectRatio="none" style="width:337px;height:442px;background:#FFFFFF;" version="1.1" viewBox="0 0 337 442" width="337px" zoomAndPan="magnify"><defs/><g><text fill="#000000" font-family="sans-serif" font-size="14" font-weight="bold" lengthAdjust="spacing" textLength="100" x="58.5" y="30.1074">POST Request</text><rect fill="#FFFFFF" height="31.291" style="stroke:#181818;stroke-width:1.0;" width="10" x="218.5" y="156.5332"/><line style="stroke:#181818;stroke-width:0.5;stroke-dasharray:5.0,5.0;" x1="78" x2="78" y1="123.2422" y2="205.8242"/><line style="stroke:#181818;stroke-width:0.5;stroke-dasharray:5.0,5.0;" x1="223" x2="223" y1="123.2422" y2="205.8242"/><text fill="#000000" font-family="sans-serif" font-size="14" lengthAdjust="spacing" textLength="29" x="61" y="119.7285">User</text><ellipse cx="78.5" cy="53.1211" fill="#FFFFFF" rx="8" ry="8" style="stroke:#181818;stroke-width:0.5;"/><path d="M78.5,61.1211 L78.5,88.1211 M65.5,69.1211 L91.5,69.1211 M78.5,88.1211 L65.5,103.1211 M78.5,88.1211 L91.5,103.1211 " fill="none" style="stroke:#181818;stroke-width:0.5;"/><text fill="#000000" font-family="sans-serif" font-size="14" lengthAdjust="spacing" textLength="29" x="61" y="219.9316">User</text><ellipse cx="78.5" cy="231.9453" fill="#FFFFFF" rx="8" ry="8" style="stroke:#181818;stroke-width:0.5;"/><path d="M78.5,239.9453 L78.5,266.9453 M65.5,247.9453 L91.5,247.9453 M78.5,266.9453 L65.5,281.9453 M78.5,266.9453 L91.5,281.9453 " fill="none" style="stroke:#181818;stroke-width:0.5;"/><rect fill="#FFFFFF" height="51.2422" rx="2.5" ry="2.5" style="stroke:#181818;stroke-width:0.5;" width="91" x="178" y="71"/><text fill="#000000" font-family="sans-serif" font-size="14" lengthAdjust="spacing" textLength="62" x="192.5" y="93.1074">&#171;System&#187;</text><text fill="#000000" font-family="sans-serif" font-size="14" lengthAdjust="spacing" textLength="77" x="185" y="111.7285">:SmartHome</text><rect fill="#FFFFFF" height="51.2422" rx="2.5" ry="2.5" style="stroke:#181818;stroke-width:0.5;" width="91" x="178" y="204.8242"/><text fill="#000000" font-family="sans-serif" font-size="14" lengthAdjust="spacing" textLength="62" x="192.5" y="226.9316">&#171;System&#187;</text><text fill="#000000" font-family="sans-serif" font-size="14" lengthAdjust="spacing" textLength="77" x="185" y="245.5527">:SmartHome</text><rect fill="#FFFFFF" height="31.291" style="stroke:#181818;stroke-width:1.0;" width="10" x="218.5" y="156.5332"/><polygon fill="#181818" points="206.5,152.5332,216.5,156.5332,206.5,160.5332,210.5,156.5332" style="stroke:#181818;stroke-width:1.0;"/><line style="stroke:#181818;stroke-width:1.0;" x1="78.5" x2="212.5" y1="156.5332" y2="156.5332"/><text fill="#000000" font-family="sans-serif" font-size="13" font-weight="bold" lengthAdjust="spacing" textLength="7" x="88" y="151.2705">1</text><text fill="#000000" font-family="sans-serif" font-size="13" lengthAdjust="spacing" textLength="110" x="99" y="151.2705">Ask to add request</text><polygon fill="#181818" points="89.5,183.8242,79.5,187.8242,89.5,191.8242,85.5,187.8242" style="stroke:#181818;stroke-width:1.0;"/><line style="stroke:#181818;stroke-width:1.0;stroke-dasharray:2.0,2.0;" x1="83.5" x2="222.5" y1="187.8242" y2="187.8242"/><text fill="#000000" font-family="sans-serif" font-size="13" font-weight="bold" lengthAdjust="spacing" textLength="7" x="119" y="182.5615">2</text><text fill="#000000" font-family="sans-serif" font-size="13" lengthAdjust="spacing" textLength="53" x="130" y="182.5615">response</text><rect fill="#DDDDDD" height="125.7266" id="_legend" rx="7.5" ry="7.5" style="stroke:#000000;stroke-width:1.0;" width="305" x="12" y="296.4453"/><text fill="#000000" font-family="sans-serif" font-size="14" font-weight="bold" lengthAdjust="spacing" textLength="225" x="17" y="316.5527">This request can be included in:</text><text fill="#000000" font-family="sans-serif" font-size="14" font-weight="bold" lengthAdjust="spacing" textLength="100" x="21" y="337.1738">Request POST</text><text fill="#000000" font-family="sans-serif" font-size="14" font-weight="bold" lengthAdjust="spacing" textLength="71" x="161" y="337.1738">Response</text><text fill="#000000" font-family="sans-serif" font-size="14" font-weight="bold" lengthAdjust="spacing" textLength="98" x="21" y="355.7949">/rooms (UC02)</text><text fill="#000000" font-family="sans-serif" font-size="14" font-weight="bold" lengthAdjust="spacing" textLength="132" x="161" y="355.7949">New Room created</text><text fill="#000000" font-family="sans-serif" font-size="14" font-weight="bold" lengthAdjust="spacing" textLength="110" x="21" y="374.416">/devices (UC05)</text><text fill="#000000" font-family="sans-serif" font-size="14" font-weight="bold" lengthAdjust="spacing" textLength="141" x="161" y="374.416">New Device created</text><text fill="#000000" font-family="sans-serif" font-size="14" font-weight="bold" lengthAdjust="spacing" textLength="123" x="21" y="393.0371">/sensors (UC07.2)</text><text fill="#000000" font-family="sans-serif" font-size="14" font-weight="bold" lengthAdjust="spacing" textLength="142" x="161" y="393.0371">New Sensor created</text><text fill="#000000" font-family="sans-serif" font-size="14" font-weight="bold" lengthAdjust="spacing" textLength="132" x="21" y="411.6582">/actuators (UC12.2)</text><text fill="#000000" font-family="sans-serif" font-size="14" font-weight="bold" lengthAdjust="spacing" textLength="151" x="161" y="411.6582">New Actuator created</text><line style="stroke:#000000;stroke-width:1.0;" x1="17" x2="312" y1="322.0664" y2="322.0664"/><line style="stroke:#000000;stroke-width:1.0;" x1="17" x2="312" y1="340.6875" y2="340.6875"/><line style="stroke:#000000;stroke-width:1.0;" x1="17" x2="312" y1="359.3086" y2="359.3086"/><line style="stroke:#000000;stroke-width:1.0;" x1="17" x2="312" y1="377.9297" y2="377.9297"/><line style="stroke:#000000;stroke-width:1.0;" x1="17" x2="312" y1="396.5508" y2="396.5508"/><line style="stroke:#000000;stroke-width:1.0;" x1="17" x2="312" y1="415.1719" y2="415.1719"/><line style="stroke:#000000;stroke-width:1.0;" x1="17" x2="17" y1="322.0664" y2="415.1719"/><line style="stroke:#000000;stroke-width:1.0;" x1="157" x2="157" y1="322.0664" y2="415.1719"/><line style="stroke:#000000;stroke-width:1.0;" x1="312" x2="312" y1="322.0664" y2="415.1719"/><!--SRC=[bP5DImCn48Rl-HL3JxfGFmeYb5ge5Up53xhjpKkQZDlGtMJDpBO8_V5cFsAh2Eeb93FFcp1Fs72EyFoKBc2ERnKI2rcnirMnGYzeOsmflIo0wgPL-814CiD9RZ8B2Yr_eQHYvs-bscJULLPFNUuyxDQ6yGWAAnjbIcdvDpI-EiTNzFNctu4PIet-hx7xm9G_mwAP3POK1ZwQ07gZKVfEZCLu_6A7QH5QCrTW3oG1DGsHOuPMmyenkq809CbYRGXywnkKjB12C5RbbKOTDiCa2TZ-9dv9-p_DcKfd2M7Vzi-zSmN1oN9wCJYj2u-uWtceWV8eELmMGOrRex15hpxHkwOQuSWIMdA-PQ_F3XUdJVqx7RnKaZl-Sd34JxhE8L5hQ6s8MYJqnvqZ6CA4Di0EfDRHJAtSR4CoYcmoetx_4FAT4A7n6_m1]--></g></svg>