<?xml version="1.0" encoding="us-ascii" standalone="no"?><svg xmlns="http://www.w3.org/2000/svg" xmlns:xlink="http://www.w3.org/1999/xlink" contentStyleType="text/css" height="419px" preserveAspectRatio="none" style="width:459px;height:419px;background:#FFFFFF;" version="1.1" viewBox="0 0 459 419" width="459px" zoomAndPan="magnify"><defs/><g><text fill="#000000" font-family="sans-serif" font-size="14" font-weight="bold" lengthAdjust="spacing" textLength="113" x="47.75" y="28.5352">PATCH Request</text><rect fill="#FFFFFF" height="29.3105" style="stroke:#181818;stroke-width:1.0;" width="10" x="271.75" y="150.2871"/><line style="stroke:#181818;stroke-width:0.5;stroke-dasharray:5.0,5.0;" x1="144.25" x2="144.25" y1="118.9766" y2="197.5977"/><line style="stroke:#181818;stroke-width:0.5;stroke-dasharray:5.0,5.0;" x1="276.75" x2="276.75" y1="118.9766" y2="197.5977"/><text fill="#000000" font-family="sans-serif" font-size="14" lengthAdjust="spacing" textLength="31" x="126.25" y="116.0234">User</text><ellipse cx="144.75" cy="50.9883" fill="#FFFFFF" rx="8" ry="8" style="stroke:#181818;stroke-width:0.5;"/><path d="M144.75,58.9883 L144.75,85.9883 M131.75,66.9883 L157.75,66.9883 M144.75,85.9883 L131.75,100.9883 M144.75,85.9883 L157.75,100.9883 " fill="none" style="stroke:#181818;stroke-width:0.5;"/><text fill="#000000" font-family="sans-serif" font-size="14" lengthAdjust="spacing" textLength="31" x="126.25" y="210.1328">User</text><ellipse cx="144.75" cy="221.5859" fill="#FFFFFF" rx="8" ry="8" style="stroke:#181818;stroke-width:0.5;"/><path d="M144.75,229.5859 L144.75,256.5859 M131.75,237.5859 L157.75,237.5859 M144.75,256.5859 L131.75,271.5859 M144.75,256.5859 L157.75,271.5859 " fill="none" style="stroke:#181818;stroke-width:0.5;"/><rect fill="#FFFFFF" height="46.9766" rx="2.5" ry="2.5" style="stroke:#181818;stroke-width:0.5;" width="98" x="227.75" y="71"/><text fill="#000000" font-family="sans-serif" font-size="14" lengthAdjust="spacing" textLength="62" x="245.75" y="91.5352">&#171;System&#187;</text><text fill="#000000" font-family="sans-serif" font-size="14" lengthAdjust="spacing" textLength="84" x="234.75" y="108.0234">:SmartHome</text><rect fill="#FFFFFF" height="46.9766" rx="2.5" ry="2.5" style="stroke:#181818;stroke-width:0.5;" width="98" x="227.75" y="196.5977"/><text fill="#000000" font-family="sans-serif" font-size="14" lengthAdjust="spacing" textLength="62" x="245.75" y="217.1328">&#171;System&#187;</text><text fill="#000000" font-family="sans-serif" font-size="14" lengthAdjust="spacing" textLength="84" x="234.75" y="233.6211">:SmartHome</text><rect fill="#FFFFFF" height="29.3105" style="stroke:#181818;stroke-width:1.0;" width="10" x="271.75" y="150.2871"/><polygon fill="#181818" points="259.75,146.2871,269.75,150.2871,259.75,154.2871,263.75,150.2871" style="stroke:#181818;stroke-width:1.0;"/><line style="stroke:#181818;stroke-width:1.0;" x1="144.75" x2="265.75" y1="150.2871" y2="150.2871"/><text fill="#000000" font-family="sans-serif" font-size="13" font-weight="bold" lengthAdjust="spacing" textLength="9" x="154.25" y="145.5449">1</text><text fill="#000000" font-family="sans-serif" font-size="13" lengthAdjust="spacing" textLength="95" x="167.25" y="145.5449">Update request</text><polygon fill="#181818" points="155.75,175.5977,145.75,179.5977,155.75,183.5977,151.75,179.5977" style="stroke:#181818;stroke-width:1.0;"/><line style="stroke:#181818;stroke-width:1.0;stroke-dasharray:2.0,2.0;" x1="149.75" x2="275.75" y1="179.5977" y2="179.5977"/><text fill="#000000" font-family="sans-serif" font-size="13" font-weight="bold" lengthAdjust="spacing" textLength="9" x="175.75" y="174.8555">2</text><text fill="#000000" font-family="sans-serif" font-size="13" lengthAdjust="spacing" textLength="57" x="188.75" y="174.8555">response</text><rect fill="#DDDDDD" height="112.9297" id="_legend" rx="7.5" ry="7.5" style="stroke:#000000;stroke-width:1.0;" width="427" x="12" y="286.0859"/><text fill="#000000" font-family="sans-serif" font-size="14" font-weight="bold" lengthAdjust="spacing" textLength="230" x="17" y="304.6211">This request can be included in:</text><text fill="#000000" font-family="sans-serif" font-size="14" font-weight="bold" lengthAdjust="spacing" textLength="113" x="22" y="323.1094">Request PATCH</text><text fill="#000000" font-family="sans-serif" font-size="14" font-weight="bold" lengthAdjust="spacing" textLength="69" x="183" y="323.1094">Response</text><text fill="#000000" font-family="sans-serif" font-size="14" font-weight="bold" lengthAdjust="spacing" textLength="144" x="22" y="339.5977">/houses/{id} (UC01)</text><text fill="#000000" font-family="sans-serif" font-size="14" font-weight="bold" lengthAdjust="spacing" textLength="241" x="183" y="339.5977">Location of the House configured</text><text fill="#000000" font-family="sans-serif" font-size="14" font-weight="bold" lengthAdjust="spacing" textLength="151" x="22" y="356.0859">/rooms/{id} (UC03.2)</text><text fill="#000000" font-family="sans-serif" font-size="14" font-weight="bold" lengthAdjust="spacing" textLength="92" x="183" y="356.0859">Room edited</text><text fill="#000000" font-family="sans-serif" font-size="14" font-weight="bold" lengthAdjust="spacing" textLength="146" x="22" y="372.5742">/devices/{id} (UC08)</text><text fill="#000000" font-family="sans-serif" font-size="14" font-weight="bold" lengthAdjust="spacing" textLength="134" x="183" y="372.5742">Device deactivated</text><text fill="#000000" font-family="sans-serif" font-size="14" font-weight="bold" lengthAdjust="spacing" textLength="150" x="22" y="389.0625">/device/{id} (UC37.2)</text><text fill="#000000" font-family="sans-serif" font-size="14" font-weight="bold" lengthAdjust="spacing" textLength="132" x="183" y="389.0625">Blind roller closed</text><line style="stroke:#000000;stroke-width:1.0;" x1="17" x2="434" y1="309.5742" y2="309.5742"/><line style="stroke:#000000;stroke-width:1.0;" x1="17" x2="434" y1="326.0625" y2="326.0625"/><line style="stroke:#000000;stroke-width:1.0;" x1="17" x2="434" y1="342.5508" y2="342.5508"/><line style="stroke:#000000;stroke-width:1.0;" x1="17" x2="434" y1="359.0391" y2="359.0391"/><line style="stroke:#000000;stroke-width:1.0;" x1="17" x2="434" y1="375.5273" y2="375.5273"/><line style="stroke:#000000;stroke-width:1.0;" x1="17" x2="434" y1="392.0156" y2="392.0156"/><line style="stroke:#000000;stroke-width:1.0;" x1="17" x2="17" y1="309.5742" y2="392.0156"/><line style="stroke:#000000;stroke-width:1.0;" x1="178" x2="178" y1="309.5742" y2="392.0156"/><line style="stroke:#000000;stroke-width:1.0;" x1="434" x2="434" y1="309.5742" y2="392.0156"/><!--SRC=[bP5DImCn48Rl-HL3JrgeLNjGIYsq5To3WlJZvYLDfhkXsSoQP2jY_Uzcqrsx1K6zB67cUJCxJxpo6W6U9yjP0dDyBT5vnajFfipNQ9dRAbDmotDmLTC8V4BdU8eJhL830eq_eRZmPATSR5DBfP4pqcJXBLCUMr3uUYLKmOt_3Mscpd63jZhyEv0WbsZ_6di8JF4ppE9ki79XuTO6q1cD5k_EOpuUlvZX8W-jX7Bi07VWOeDfJD58M9Ftb3FeTfUPSc0Fka5m0si4POGk9Sfm67Qx3FPtpOFKpnCBhY3Z4FQnty-eTEZw7qf-mjbgTdbrNfKVIN2lo01jm6S8IKM18BDHQMd3X2PkYV9MUd1n7VFpK0QKOMbPWn9tIhG7tKRmFfP1Ob2ZTZpmS1BuvWStzTLJhO88IrgZ1Q79nKWbv-28LNgXDwxDmH1MXGmNDx9OCwbH6_bHhtSCsDeHE_vMtVm2]--></g></svg>