<?xml version="1.0" encoding="us-ascii" standalone="no"?><svg xmlns="http://www.w3.org/2000/svg" xmlns:xlink="http://www.w3.org/1999/xlink" contentStyleType="text/css" height="894px" preserveAspectRatio="none" style="width:1209px;height:894px;background:#FFFFFF;" version="1.1" viewBox="0 0 1209 894" width="1209px" zoomAndPan="magnify"><defs/><g><text fill="#000000" font-family="sans-serif" font-size="14" font-weight="bold" lengthAdjust="spacing" textLength="1181" x="10" y="25.1074">US16: As Product Owner, I want the system to have a type of actuator that sets a decimal value in the range defined by [lower limit, upper limit] and predefined precision.</text><!--class Actuator--><g id="elem_Actuator"><rect codeLine="4" fill="#F1F1F1" height="85.2422" id="Actuator" rx="2.5" ry="2.5" style="stroke:#181818;stroke-width:0.5;" width="330" x="351" y="46.6211"/><ellipse cx="485.25" cy="62.6211" fill="#B4A7E5" rx="11" ry="11" style="stroke:#181818;stroke-width:1.0;"/><path d="M486.2031,59.2617 L486.2031,65.918 L487.9219,65.918 Q488.5313,65.918 488.7969,66.1523 Q489.0625,66.3867 489.0625,66.7773 Q489.0625,67.1523 488.7969,67.3867 Q488.5313,67.6211 487.9219,67.6211 L482.7813,67.6211 Q482.1719,67.6211 481.9063,67.3867 Q481.6406,67.1523 481.6406,66.7617 Q481.6406,66.3867 481.9063,66.1523 Q482.1719,65.918 482.7813,65.918 L484.5,65.918 L484.5,59.2617 L482.7813,59.2617 Q482.1719,59.2617 481.9063,59.0273 Q481.6406,58.793 481.6406,58.4023 Q481.6406,58.0273 481.9063,57.793 Q482.1719,57.5586 482.7813,57.5586 L487.9219,57.5586 Q488.5313,57.5586 488.7969,57.793 Q489.0625,58.0273 489.0625,58.4023 Q489.0625,58.793 488.7969,59.0273 Q488.5313,59.2617 487.9219,59.2617 L486.2031,59.2617 Z " fill="#000000"/><text fill="#000000" font-family="sans-serif" font-size="14" font-style="italic" lengthAdjust="spacing" textLength="53" x="505.75" y="68.418">Actuator</text><line style="stroke:#181818;stroke-width:0.5;" x1="352" x2="680" y1="78.6211" y2="78.6211"/><line style="stroke:#181818;stroke-width:0.5;" x1="352" x2="680" y1="86.6211" y2="86.6211"/><ellipse cx="362" cy="101.4316" fill="#84BE84" rx="3" ry="3" style="stroke:#038048;stroke-width:1.0;"/><text fill="#000000" font-family="sans-serif" font-size="14" lengthAdjust="spacing" textLength="164" x="371" y="105.7285">getActuatorName(): String</text><ellipse cx="362" cy="120.0527" fill="#84BE84" rx="3" ry="3" style="stroke:#038048;stroke-width:1.0;"/><text fill="#000000" font-family="sans-serif" font-size="14" lengthAdjust="spacing" textLength="304" x="371" y="124.3496">getActuatorFunctionality(): ActuatorFunctionality</text></g><!--class ActuatorSpecificDecimal--><g id="elem_ActuatorSpecificDecimal"><rect codeLine="9" fill="#F1F1F1" height="66.6211" id="ActuatorSpecificDecimal" rx="2.5" ry="2.5" style="stroke:#181818;stroke-width:0.5;" width="281" x="375.5" y="192.6211"/><ellipse cx="435.75" cy="208.6211" fill="#B4A7E5" rx="11" ry="11" style="stroke:#181818;stroke-width:1.0;"/><path d="M436.7031,205.2617 L436.7031,211.918 L438.4219,211.918 Q439.0313,211.918 439.2969,212.1523 Q439.5625,212.3867 439.5625,212.7773 Q439.5625,213.1523 439.2969,213.3867 Q439.0313,213.6211 438.4219,213.6211 L433.2813,213.6211 Q432.6719,213.6211 432.4063,213.3867 Q432.1406,213.1523 432.1406,212.7617 Q432.1406,212.3867 432.4063,212.1523 Q432.6719,211.918 433.2813,211.918 L435,211.918 L435,205.2617 L433.2813,205.2617 Q432.6719,205.2617 432.4063,205.0273 Q432.1406,204.793 432.1406,204.4023 Q432.1406,204.0273 432.4063,203.793 Q432.6719,203.5586 433.2813,203.5586 L438.4219,203.5586 Q439.0313,203.5586 439.2969,203.793 Q439.5625,204.0273 439.5625,204.4023 Q439.5625,204.793 439.2969,205.0273 Q439.0313,205.2617 438.4219,205.2617 L436.7031,205.2617 Z " fill="#000000"/><text fill="#000000" font-family="sans-serif" font-size="14" font-style="italic" lengthAdjust="spacing" textLength="152" x="456.25" y="214.418">ActuatorSpecificDecimal</text><line style="stroke:#181818;stroke-width:0.5;" x1="376.5" x2="655.5" y1="224.6211" y2="224.6211"/><line style="stroke:#181818;stroke-width:0.5;" x1="376.5" x2="655.5" y1="232.6211" y2="232.6211"/><ellipse cx="386.5" cy="247.4316" fill="#84BE84" rx="3" ry="3" style="stroke:#038048;stroke-width:1.0;"/><text fill="#000000" font-family="sans-serif" font-size="14" lengthAdjust="spacing" textLength="255" x="395.5" y="251.7285">setDecimalValue(double value): boolean</text></g><!--class DecimalSetterActuator--><g id="elem_DecimalSetterActuator"><rect codeLine="13" fill="#F1F1F1" height="215.5898" id="DecimalSetterActuator" rx="2.5" ry="2.5" style="stroke:#181818;stroke-width:0.5;" width="642" x="195" y="320.6211"/><ellipse cx="441.25" cy="336.6211" fill="#ADD1B2" rx="11" ry="11" style="stroke:#181818;stroke-width:1.0;"/><path d="M444.0156,332.4961 Q444.1719,332.2773 444.3594,332.168 Q444.5469,332.0586 444.7656,332.0586 Q445.1406,332.0586 445.375,332.3242 Q445.6094,332.5742 445.6094,333.1836 L445.6094,334.6367 Q445.6094,335.2461 445.375,335.5117 Q445.1406,335.7773 444.7656,335.7773 Q444.4219,335.7773 444.2188,335.5742 Q444.0156,335.3867 443.9063,334.8711 Q443.8594,334.5117 443.6719,334.3242 Q443.3438,333.9492 442.7344,333.7305 Q442.125,333.5117 441.5,333.5117 Q440.7344,333.5117 440.0938,333.8398 Q439.4688,334.168 438.9688,334.918 Q438.4844,335.668 438.4844,336.6992 L438.4844,337.793 Q438.4844,339.0273 439.375,339.8555 Q440.2656,340.668 441.8594,340.668 Q442.7969,340.668 443.4531,340.418 Q443.8438,340.2617 444.2656,339.8242 Q444.5313,339.5586 444.6719,339.4805 Q444.8281,339.4023 445.0313,339.4023 Q445.3594,339.4023 445.6094,339.668 Q445.875,339.918 445.875,340.2617 Q445.875,340.6055 445.5313,341.0117 Q445.0313,341.5898 444.2344,341.918 Q443.1563,342.3711 441.8594,342.3711 Q440.3438,342.3711 439.1406,341.7461 Q438.1563,341.2461 437.4688,340.1836 Q436.7813,339.1055 436.7813,337.8242 L436.7813,336.668 Q436.7813,335.3398 437.3906,334.1992 Q438.0156,333.043 439.1094,332.4336 Q440.2031,331.8086 441.4375,331.8086 Q442.1719,331.8086 442.8125,331.9805 Q443.4688,332.1367 444.0156,332.4961 Z " fill="#000000"/><text fill="#000000" font-family="sans-serif" font-size="14" lengthAdjust="spacing" textLength="141" x="461.75" y="342.418">DecimalSetterActuator</text><line style="stroke:#181818;stroke-width:0.5;" x1="196" x2="836" y1="352.6211" y2="352.6211"/><rect fill="none" height="6" style="stroke:#C82930;stroke-width:1.0;" width="6" x="203" y="364.4316"/><text fill="#000000" font-family="sans-serif" font-size="14" lengthAdjust="spacing" textLength="133" x="215" y="371.7285">actuatorName: String</text><rect fill="none" height="6" style="stroke:#C82930;stroke-width:1.0;" width="6" x="203" y="383.0527"/><text fill="#000000" font-family="sans-serif" font-size="14" lengthAdjust="spacing" textLength="273" x="215" y="390.3496">actuatorFunctionality: ActuatorFunctionality</text><rect fill="none" height="6" style="stroke:#C82930;stroke-width:1.0;" width="6" x="203" y="401.6738"/><text fill="#000000" font-family="sans-serif" font-size="14" lengthAdjust="spacing" textLength="243" x="215" y="408.9707">actuatorProperties: ActuatorProperties</text><rect fill="none" height="6" style="stroke:#C82930;stroke-width:1.0;" width="6" x="203" y="420.2949"/><text fill="#000000" font-family="sans-serif" font-size="14" lengthAdjust="spacing" textLength="124" x="215" y="427.5918">targetValue: double</text><line style="stroke:#181818;stroke-width:0.5;" x1="196" x2="836" y1="435.1055" y2="435.1055"/><rect fill="#F24D5C" height="6" style="stroke:#C82930;stroke-width:1.0;" width="6" x="203" y="446.916"/><text fill="#000000" font-family="sans-serif" font-size="14" lengthAdjust="spacing" textLength="616" x="215" y="454.2129">validConstructorArguments(String actuatorName, ActuatorProperties actuatorProperties): boolean</text><ellipse cx="206" cy="468.5371" fill="#84BE84" rx="3" ry="3" style="stroke:#038048;stroke-width:1.0;"/><text fill="#000000" font-family="sans-serif" font-size="14" lengthAdjust="spacing" textLength="159" x="215" y="472.834">getTargetValue(): double</text><ellipse cx="206" cy="487.1582" fill="#84BE84" rx="3" ry="3" style="stroke:#038048;stroke-width:1.0;"/><text fill="#000000" font-family="sans-serif" font-size="14" lengthAdjust="spacing" textLength="164" x="215" y="491.4551">getActuatorName(): String</text><ellipse cx="206" cy="505.7793" fill="#84BE84" rx="3" ry="3" style="stroke:#038048;stroke-width:1.0;"/><text fill="#000000" font-family="sans-serif" font-size="14" lengthAdjust="spacing" textLength="304" x="215" y="510.0762">getActuatorFunctionality(): ActuatorFunctionality</text><ellipse cx="206" cy="524.4004" fill="#84BE84" rx="3" ry="3" style="stroke:#038048;stroke-width:1.0;"/><text fill="#000000" font-family="sans-serif" font-size="14" lengthAdjust="spacing" textLength="282" x="215" y="528.6973">setDecimalValue(double newValue): boolean</text></g><!--class ActuatorProperties--><g id="elem_ActuatorProperties"><rect codeLine="25" fill="#F1F1F1" height="271.4531" id="ActuatorProperties" rx="2.5" ry="2.5" style="stroke:#181818;stroke-width:0.5;" width="737" x="147.5" y="615.6211"/><ellipse cx="452.75" cy="631.6211" fill="#ADD1B2" rx="11" ry="11" style="stroke:#181818;stroke-width:1.0;"/><path d="M455.5156,627.4961 Q455.6719,627.2773 455.8594,627.168 Q456.0469,627.0586 456.2656,627.0586 Q456.6406,627.0586 456.875,627.3242 Q457.1094,627.5742 457.1094,628.1836 L457.1094,629.6367 Q457.1094,630.2461 456.875,630.5117 Q456.6406,630.7773 456.2656,630.7773 Q455.9219,630.7773 455.7188,630.5742 Q455.5156,630.3867 455.4063,629.8711 Q455.3594,629.5117 455.1719,629.3242 Q454.8438,628.9492 454.2344,628.7305 Q453.625,628.5117 453,628.5117 Q452.2344,628.5117 451.5938,628.8398 Q450.9688,629.168 450.4688,629.918 Q449.9844,630.668 449.9844,631.6992 L449.9844,632.793 Q449.9844,634.0273 450.875,634.8555 Q451.7656,635.668 453.3594,635.668 Q454.2969,635.668 454.9531,635.418 Q455.3438,635.2617 455.7656,634.8242 Q456.0313,634.5586 456.1719,634.4805 Q456.3281,634.4023 456.5313,634.4023 Q456.8594,634.4023 457.1094,634.668 Q457.375,634.918 457.375,635.2617 Q457.375,635.6055 457.0313,636.0117 Q456.5313,636.5898 455.7344,636.918 Q454.6563,637.3711 453.3594,637.3711 Q451.8438,637.3711 450.6406,636.7461 Q449.6563,636.2461 448.9688,635.1836 Q448.2813,634.1055 448.2813,632.8242 L448.2813,631.668 Q448.2813,630.3398 448.8906,629.1992 Q449.5156,628.043 450.6094,627.4336 Q451.7031,626.8086 452.9375,626.8086 Q453.6719,626.8086 454.3125,626.9805 Q454.9688,627.1367 455.5156,627.4961 Z " fill="#000000"/><text fill="#000000" font-family="sans-serif" font-size="14" lengthAdjust="spacing" textLength="118" x="473.25" y="637.418">ActuatorProperties</text><line style="stroke:#181818;stroke-width:0.5;" x1="148.5" x2="883.5" y1="647.6211" y2="647.6211"/><rect fill="none" height="6" style="stroke:#C82930;stroke-width:1.0;" width="6" x="155.5" y="659.4316"/><text fill="#000000" font-family="sans-serif" font-size="14" lengthAdjust="spacing" textLength="104" x="167.5" y="666.7285">upperLimitInt: int</text><rect fill="none" height="6" style="stroke:#C82930;stroke-width:1.0;" width="6" x="155.5" y="678.0527"/><text fill="#000000" font-family="sans-serif" font-size="14" lengthAdjust="spacing" textLength="100" x="167.5" y="685.3496">lowerLimitInt: int</text><rect fill="none" height="6" style="stroke:#C82930;stroke-width:1.0;" width="6" x="155.5" y="696.6738"/><text fill="#000000" font-family="sans-serif" font-size="14" lengthAdjust="spacing" textLength="167" x="167.5" y="703.9707">upperLimitDecimal: double</text><rect fill="none" height="6" style="stroke:#C82930;stroke-width:1.0;" width="6" x="155.5" y="715.2949"/><text fill="#000000" font-family="sans-serif" font-size="14" lengthAdjust="spacing" textLength="163" x="167.5" y="722.5918">lowerLimitDecimal: double</text><rect fill="none" height="6" style="stroke:#C82930;stroke-width:1.0;" width="6" x="155.5" y="733.916"/><text fill="#000000" font-family="sans-serif" font-size="14" lengthAdjust="spacing" textLength="80" x="167.5" y="741.2129">precision: int</text><line style="stroke:#181818;stroke-width:0.5;" x1="148.5" x2="883.5" y1="748.7266" y2="748.7266"/><rect fill="#F24D5C" height="6" style="stroke:#C82930;stroke-width:1.0;" width="6" x="155.5" y="760.5371"/><text fill="#000000" font-family="sans-serif" font-size="14" lengthAdjust="spacing" textLength="444" x="167.5" y="767.834">validConstructorArguments(int upperLimitInt, int lowerLimitInt): boolean</text><rect fill="#F24D5C" height="6" style="stroke:#C82930;stroke-width:1.0;" width="6" x="155.5" y="779.1582"/><text fill="#000000" font-family="sans-serif" font-size="14" lengthAdjust="spacing" textLength="711" x="167.5" y="786.4551">validConstructorsArgumentsDecimal(double upperLimitDecimal, double lowerLimitDecimal, int precision): boolean</text><ellipse cx="158.5" cy="800.7793" fill="#84BE84" rx="3" ry="3" style="stroke:#038048;stroke-width:1.0;"/><text fill="#000000" font-family="sans-serif" font-size="14" lengthAdjust="spacing" textLength="135" x="167.5" y="805.0762">getUpperLimitInt(): int</text><ellipse cx="158.5" cy="819.4004" fill="#84BE84" rx="3" ry="3" style="stroke:#038048;stroke-width:1.0;"/><text fill="#000000" font-family="sans-serif" font-size="14" lengthAdjust="spacing" textLength="135" x="167.5" y="823.6973">getLowerLimitInt(): int</text><ellipse cx="158.5" cy="838.0215" fill="#84BE84" rx="3" ry="3" style="stroke:#038048;stroke-width:1.0;"/><text fill="#000000" font-family="sans-serif" font-size="14" lengthAdjust="spacing" textLength="198" x="167.5" y="842.3184">getUpperLimitDecimal(): double</text><ellipse cx="158.5" cy="856.6426" fill="#84BE84" rx="3" ry="3" style="stroke:#038048;stroke-width:1.0;"/><text fill="#000000" font-family="sans-serif" font-size="14" lengthAdjust="spacing" textLength="198" x="167.5" y="860.9395">getLowerLimitDecimal(): double</text><ellipse cx="158.5" cy="875.2637" fill="#84BE84" rx="3" ry="3" style="stroke:#038048;stroke-width:1.0;"/><text fill="#000000" font-family="sans-serif" font-size="14" lengthAdjust="spacing" textLength="111" x="167.5" y="879.5605">getPrecision(): int</text></g><!--class ActuatorFunctionality--><g id="elem_ActuatorFunctionality"><rect codeLine="40" fill="#F1F1F1" height="122.4844" id="ActuatorFunctionality" rx="2.5" ry="2.5" style="stroke:#181818;stroke-width:0.5;" width="173" x="894.5" y="367.6211"/><ellipse cx="913.1" cy="383.6211" fill="#EB937F" rx="11" ry="11" style="stroke:#181818;stroke-width:1.0;"/><path d="M911.9594,384.418 L911.9594,386.918 L916.2875,386.918 L916.2875,385.9961 Q916.2875,385.3867 916.5219,385.1211 Q916.7719,384.8555 917.1469,384.8555 Q917.5219,384.8555 917.7563,385.1211 Q917.9906,385.3867 917.9906,385.9961 L917.9906,388.6211 L909.9906,388.6211 Q909.3656,388.6211 909.1,388.3867 Q908.85,388.1523 908.85,387.7617 Q908.85,387.3867 909.1156,387.1523 Q909.3813,386.918 909.9906,386.918 L910.2563,386.918 L910.2563,380.2617 L909.9906,380.2617 Q909.3656,380.2617 909.1,380.0273 Q908.85,379.793 908.85,379.4023 Q908.85,379.0273 909.1,378.793 Q909.3656,378.5586 909.9906,378.5586 L917.6156,378.5586 L917.6156,381.1523 Q917.6156,381.7617 917.3813,382.0273 Q917.1625,382.2773 916.7719,382.2773 Q916.3969,382.2773 916.1625,382.0273 Q915.9281,381.7617 915.9281,381.1523 L915.9281,380.2617 L911.9594,380.2617 L911.9594,382.7148 L913.4438,382.7148 Q913.4438,382.0586 913.5688,381.8711 Q913.8344,381.4648 914.3031,381.4648 Q914.6781,381.4648 914.9125,381.7305 Q915.1469,381.9805 915.1469,382.5898 L915.1469,384.5586 Q915.1469,385.1055 915.0219,385.293 Q914.7563,385.6836 914.3031,385.6836 Q913.8344,385.6836 913.5688,385.2773 Q913.4438,385.0898 913.4438,384.418 L911.9594,384.418 Z " fill="#000000"/><text fill="#000000" font-family="sans-serif" font-size="14" lengthAdjust="spacing" textLength="133" x="927.9" y="389.418">ActuatorFunctionality</text><line style="stroke:#181818;stroke-width:0.5;" x1="895.5" x2="1066.5" y1="399.6211" y2="399.6211"/><text fill="#000000" font-family="sans-serif" font-size="14" lengthAdjust="spacing" textLength="114" x="900.5" y="418.7285">BINARY_SWITCH,</text><text fill="#000000" font-family="sans-serif" font-size="14" lengthAdjust="spacing" textLength="161" x="900.5" y="437.3496">PERCENTAGE_SETTER,</text><text fill="#000000" font-family="sans-serif" font-size="14" lengthAdjust="spacing" textLength="127" x="900.5" y="455.9707">INTEGER_SETTER,</text><text fill="#000000" font-family="sans-serif" font-size="14" lengthAdjust="spacing" textLength="123" x="900.5" y="474.5918">DECIMAL_SETTER</text><line style="stroke:#181818;stroke-width:0.5;" x1="895.5" x2="1066.5" y1="482.1055" y2="482.1055"/></g><!--reverse link Actuator to ActuatorSpecificDecimal--><g id="link_Actuator_ActuatorSpecificDecimal"><path d="M516,149.7311 C516,169.2511 516,174.1811 516,192.4311 " fill="none" id="Actuator-backto-ActuatorSpecificDecimal" style="stroke:#181818;stroke-width:1.0;"/><polygon fill="none" points="516,131.7311,510,149.7311,522,149.7311,516,131.7311" style="stroke:#181818;stroke-width:1.0;"/></g><!--reverse link ActuatorSpecificDecimal to DecimalSetterActuator--><g id="link_ActuatorSpecificDecimal_DecimalSetterActuator"><path d="M516,277.7811 C516,294.6511 516,298.2911 516,320.3911 " fill="none" id="ActuatorSpecificDecimal-backto-DecimalSetterActuator" style="stroke:#181818;stroke-width:1.0;stroke-dasharray:7.0,7.0;"/><polygon fill="none" points="516,259.7811,510,277.7811,522,277.7811,516,259.7811" style="stroke:#181818;stroke-width:1.0;"/></g><!--link DecimalSetterActuator to ActuatorFunctionality--><g id="link_DecimalSetterActuator_ActuatorFunctionality"><path codeLine="47" d="M837.06,428.6211 C857.43,428.6211 876.74,428.6211 894.21,428.6211 " fill="none" id="DecimalSetterActuator-ActuatorFunctionality" style="stroke:#181818;stroke-width:1.0;"/><text fill="#000000" font-family="sans-serif" font-size="13" lengthAdjust="spacing" textLength="21" x="855.25" y="421.6494">has</text></g><!--link DecimalSetterActuator to ActuatorProperties--><g id="link_DecimalSetterActuator_ActuatorProperties"><path codeLine="48" d="M516,536.7911 C516,561.9911 516,589.1711 516,615.4111 " fill="none" id="DecimalSetterActuator-ActuatorProperties" style="stroke:#181818;stroke-width:1.0;"/><text fill="#000000" font-family="sans-serif" font-size="13" lengthAdjust="spacing" textLength="21" x="517" y="581.6494">has</text></g><!--SRC=[hLHDRvj04BtpA-PMLu5OlVJ0ZJeqHN9Tov14LLL5QnZRAy4ksXtYMb7_UnVCj-5MJZ0pE- -zURCGfnJXAVpqsGLFmrR9f8W9Vfm5AXi2E3D1G2S4VT646P244tj3O42N744UWCLKC9BAL342ZQHDCi6OPoo5DvOM25nKBHGJHpIf0nUOmFu2lr9vHWKfppZPKEHvy_4Rc4WWLzWKczUOQox5lVNXH9HhTxdCKyEjoDBxM6RBE6LQEmbdHyKoo-A2K1rOZE0rzDwjkoDIyxbX6Iu-kX2Iuk8uI7qjH4m6YgMSBcNDPCBwEuKIveRdWSSFjNxyGoWIFM1HpgZEFvVZMIIos1iJgbaPkBsKAJ9H0bIge2uEaGnSsubdUOeP2jApwE-MmtfwMxLjTA1eJcXRRPR3E4GSTLVQnIo7c39Zh3IvS1LbEKOLJrPIQ59ciQJorB6eM2-kPA3Fq9xe2xVmlI6LnaKTRcbNZVn_tRwRCKtW-NdEjrijnf1gozVbaWU2N7Cro7AgQp2ATNKrR3VIhlmcrTwJkilyz4qQ1bpiyWGCgFH4tNJIRQkQH3EH6-9spGvkU5yXMyuZMv_wx4fdIaLbOjtds4yyZQ57wx0U4nZbjmsJfgcn4aMHJU-4kLvWdY_1njlzV0rVWcZrpQv2Mt-tyZUHz-Y_XduK-RjhEDX4_gE_6yGU_5NmtLlNiIfaGATll3FDmpL_P3rtn9dOmki1wny0]--></g></svg>