<?xml version="1.0" encoding="us-ascii" standalone="no"?><svg xmlns="http://www.w3.org/2000/svg" xmlns:xlink="http://www.w3.org/1999/xlink" contentStyleType="text/css" height="1398px" preserveAspectRatio="none" style="width:1854px;height:1398px;background:#FFFFFF;" version="1.1" viewBox="0 0 1854 1398" width="1854px" zoomAndPan="magnify"><defs/><g><!--cluster domain--><g id="cluster_domain"><path d="M8.5,6.0137 L60.5,6.0137 A3.75,3.75 0 0 1 63,8.5137 L70,30.6348 L1844.5,30.6348 A2.5,2.5 0 0 1 1847,33.1348 L1847,1389.0137 A2.5,2.5 0 0 1 1844.5,1391.5137 L8.5,1391.5137 A2.5,2.5 0 0 1 6,1389.0137 L6,8.5137 A2.5,2.5 0 0 1 8.5,6.0137 " fill="none" style="stroke:#000000;stroke-width:1.5;"/><line style="stroke:#000000;stroke-width:1.5;" x1="6" x2="70" y1="30.6348" y2="30.6348"/><text fill="#000000" font-family="sans-serif" font-size="14" font-weight="bold" lengthAdjust="spacing" textLength="51" x="10" y="23.1211">domain</text></g><!--cluster sensors--><g id="cluster_sensors"><path d="M560.5,525.0137 L618.5,525.0137 A3.75,3.75 0 0 1 621,527.5137 L628,549.6348 L1820.5,549.6348 A2.5,2.5 0 0 1 1823,552.1348 L1823,1055.0137 A2.5,2.5 0 0 1 1820.5,1057.5137 L560.5,1057.5137 A2.5,2.5 0 0 1 558,1055.0137 L558,527.5137 A2.5,2.5 0 0 1 560.5,525.0137 " fill="none" style="stroke:#000000;stroke-width:1.5;"/><line style="stroke:#000000;stroke-width:1.5;" x1="558" x2="628" y1="549.6348" y2="549.6348"/><text fill="#000000" font-family="sans-serif" font-size="14" font-weight="bold" lengthAdjust="spacing" textLength="57" x="562" y="542.1211">sensors</text></g><!--class SensorFunctionality--><g id="elem_SensorFunctionality"><rect codeLine="2" fill="#F1F1F1" height="252.832" id="SensorFunctionality" rx="2.5" ry="2.5" style="stroke:#181818;stroke-width:0.5;" width="157" x="1095.5" y="1122.5137"/><ellipse cx="1110.5" cy="1138.5137" fill="#EB937F" rx="11" ry="11" style="stroke:#181818;stroke-width:1.0;"/><path d="M1109.3594,1139.3105 L1109.3594,1141.8105 L1113.6875,1141.8105 L1113.6875,1140.8887 Q1113.6875,1140.2793 1113.9219,1140.0137 Q1114.1719,1139.748 1114.5469,1139.748 Q1114.9219,1139.748 1115.1563,1140.0137 Q1115.3906,1140.2793 1115.3906,1140.8887 L1115.3906,1143.5137 L1107.3906,1143.5137 Q1106.7656,1143.5137 1106.5,1143.2793 Q1106.25,1143.0449 1106.25,1142.6543 Q1106.25,1142.2793 1106.5156,1142.0449 Q1106.7813,1141.8105 1107.3906,1141.8105 L1107.6563,1141.8105 L1107.6563,1135.1543 L1107.3906,1135.1543 Q1106.7656,1135.1543 1106.5,1134.9199 Q1106.25,1134.6855 1106.25,1134.2949 Q1106.25,1133.9199 1106.5,1133.6855 Q1106.7656,1133.4512 1107.3906,1133.4512 L1115.0156,1133.4512 L1115.0156,1136.0449 Q1115.0156,1136.6543 1114.7813,1136.9199 Q1114.5625,1137.1699 1114.1719,1137.1699 Q1113.7969,1137.1699 1113.5625,1136.9199 Q1113.3281,1136.6543 1113.3281,1136.0449 L1113.3281,1135.1543 L1109.3594,1135.1543 L1109.3594,1137.6074 L1110.8438,1137.6074 Q1110.8438,1136.9512 1110.9688,1136.7637 Q1111.2344,1136.3574 1111.7031,1136.3574 Q1112.0781,1136.3574 1112.3125,1136.623 Q1112.5469,1136.873 1112.5469,1137.4824 L1112.5469,1139.4512 Q1112.5469,1139.998 1112.4219,1140.1855 Q1112.1563,1140.5762 1111.7031,1140.5762 Q1111.2344,1140.5762 1110.9688,1140.1699 Q1110.8438,1139.9824 1110.8438,1139.3105 L1109.3594,1139.3105 Z " fill="#000000"/><text fill="#000000" font-family="sans-serif" font-size="14" lengthAdjust="spacing" textLength="125" x="1124.5" y="1144.3105">SensorFunctionality</text><line style="stroke:#181818;stroke-width:0.5;" x1="1096.5" x2="1251.5" y1="1154.5137" y2="1154.5137"/><text fill="#000000" font-family="sans-serif" font-size="14" lengthAdjust="spacing" textLength="107" x="1101.5" y="1173.6211">TEMPERATURE,</text><text fill="#000000" font-family="sans-serif" font-size="14" lengthAdjust="spacing" textLength="67" x="1101.5" y="1192.2422">HUMIDITY,</text><text fill="#000000" font-family="sans-serif" font-size="14" lengthAdjust="spacing" textLength="115" x="1101.5" y="1210.8633">BINARY_STATUS,</text><text fill="#000000" font-family="sans-serif" font-size="14" lengthAdjust="spacing" textLength="121" x="1101.5" y="1229.4844">SCALE_POSITION,</text><text fill="#000000" font-family="sans-serif" font-size="14" lengthAdjust="spacing" textLength="39" x="1101.5" y="1248.1055">WIND,</text><text fill="#000000" font-family="sans-serif" font-size="14" lengthAdjust="spacing" textLength="62" x="1101.5" y="1266.7266">SUNRISE,</text><text fill="#000000" font-family="sans-serif" font-size="14" lengthAdjust="spacing" textLength="58" x="1101.5" y="1285.3477">SUNSET,</text><text fill="#000000" font-family="sans-serif" font-size="14" lengthAdjust="spacing" textLength="85" x="1101.5" y="1303.9688">DEW_POINT,</text><text fill="#000000" font-family="sans-serif" font-size="14" lengthAdjust="spacing" textLength="132" x="1101.5" y="1322.5898">SOLAR_RADIATION,</text><text fill="#000000" font-family="sans-serif" font-size="14" lengthAdjust="spacing" textLength="56" x="1101.5" y="1341.2109">POWER,</text><text fill="#000000" font-family="sans-serif" font-size="14" lengthAdjust="spacing" textLength="57" x="1101.5" y="1359.832">ENERGY</text><line style="stroke:#181818;stroke-width:0.5;" x1="1096.5" x2="1251.5" y1="1367.3457" y2="1367.3457"/></g><!--class Sensor--><g id="elem_Sensor"><rect codeLine="16" fill="#F1F1F1" height="85.2422" id="Sensor" rx="2.5" ry="2.5" style="stroke:#181818;stroke-width:0.5;" width="314" x="648" y="375.0137"/><ellipse cx="778.25" cy="391.0137" fill="#B4A7E5" rx="11" ry="11" style="stroke:#181818;stroke-width:1.0;"/><path d="M779.2031,387.6543 L779.2031,394.3105 L780.9219,394.3105 Q781.5313,394.3105 781.7969,394.5449 Q782.0625,394.7793 782.0625,395.1699 Q782.0625,395.5449 781.7969,395.7793 Q781.5313,396.0137 780.9219,396.0137 L775.7813,396.0137 Q775.1719,396.0137 774.9063,395.7793 Q774.6406,395.5449 774.6406,395.1543 Q774.6406,394.7793 774.9063,394.5449 Q775.1719,394.3105 775.7813,394.3105 L777.5,394.3105 L777.5,387.6543 L775.7813,387.6543 Q775.1719,387.6543 774.9063,387.4199 Q774.6406,387.1855 774.6406,386.7949 Q774.6406,386.4199 774.9063,386.1855 Q775.1719,385.9512 775.7813,385.9512 L780.9219,385.9512 Q781.5313,385.9512 781.7969,386.1855 Q782.0625,386.4199 782.0625,386.7949 Q782.0625,387.1855 781.7969,387.4199 Q781.5313,387.6543 780.9219,387.6543 L779.2031,387.6543 Z " fill="#000000"/><text fill="#000000" font-family="sans-serif" font-size="14" font-style="italic" lengthAdjust="spacing" textLength="45" x="798.75" y="396.8105">Sensor</text><line style="stroke:#181818;stroke-width:0.5;" x1="649" x2="961" y1="407.0137" y2="407.0137"/><line style="stroke:#181818;stroke-width:0.5;" x1="649" x2="961" y1="415.0137" y2="415.0137"/><ellipse cx="659" cy="429.8242" fill="#84BE84" rx="3" ry="3" style="stroke:#038048;stroke-width:1.0;"/><text fill="#000000" font-family="sans-serif" font-size="14" lengthAdjust="spacing" textLength="156" x="668" y="434.1211">getSensorName(): String</text><ellipse cx="659" cy="448.4453" fill="#84BE84" rx="3" ry="3" style="stroke:#038048;stroke-width:1.0;"/><text fill="#000000" font-family="sans-serif" font-size="14" lengthAdjust="spacing" textLength="288" x="668" y="452.7422">getSensorFunctionality(): SensorFunctionality</text></g><!--class SensorCatalogue--><g id="elem_SensorCatalogue"><rect codeLine="91" fill="#F1F1F1" height="141.1055" id="SensorCatalogue" rx="2.5" ry="2.5" style="stroke:#181818;stroke-width:0.5;" width="519" x="22.5" y="543.5137"/><ellipse cx="222.75" cy="559.5137" fill="#ADD1B2" rx="11" ry="11" style="stroke:#181818;stroke-width:1.0;"/><path d="M225.5156,555.3887 Q225.6719,555.1699 225.8594,555.0605 Q226.0469,554.9512 226.2656,554.9512 Q226.6406,554.9512 226.875,555.2168 Q227.1094,555.4668 227.1094,556.0762 L227.1094,557.5293 Q227.1094,558.1387 226.875,558.4043 Q226.6406,558.6699 226.2656,558.6699 Q225.9219,558.6699 225.7188,558.4668 Q225.5156,558.2793 225.4063,557.7637 Q225.3594,557.4043 225.1719,557.2168 Q224.8438,556.8418 224.2344,556.623 Q223.625,556.4043 223,556.4043 Q222.2344,556.4043 221.5938,556.7324 Q220.9688,557.0605 220.4688,557.8105 Q219.9844,558.5605 219.9844,559.5918 L219.9844,560.6855 Q219.9844,561.9199 220.875,562.748 Q221.7656,563.5605 223.3594,563.5605 Q224.2969,563.5605 224.9531,563.3105 Q225.3438,563.1543 225.7656,562.7168 Q226.0313,562.4512 226.1719,562.373 Q226.3281,562.2949 226.5313,562.2949 Q226.8594,562.2949 227.1094,562.5605 Q227.375,562.8105 227.375,563.1543 Q227.375,563.498 227.0313,563.9043 Q226.5313,564.4824 225.7344,564.8105 Q224.6563,565.2637 223.3594,565.2637 Q221.8438,565.2637 220.6406,564.6387 Q219.6563,564.1387 218.9688,563.0762 Q218.2813,561.998 218.2813,560.7168 L218.2813,559.5605 Q218.2813,558.2324 218.8906,557.0918 Q219.5156,555.9355 220.6094,555.3262 Q221.7031,554.7012 222.9375,554.7012 Q223.6719,554.7012 224.3125,554.873 Q224.9688,555.0293 225.5156,555.3887 Z " fill="#000000"/><text fill="#000000" font-family="sans-serif" font-size="14" lengthAdjust="spacing" textLength="110" x="243.25" y="565.3105">SensorCatalogue</text><line style="stroke:#181818;stroke-width:0.5;" x1="23.5" x2="540.5" y1="575.5137" y2="575.5137"/><rect fill="none" height="6" style="stroke:#C82930;stroke-width:1.0;" width="6" x="30.5" y="587.3242"/><text fill="#000000" font-family="sans-serif" font-size="14" lengthAdjust="spacing" textLength="176" x="42.5" y="594.6211">sensorClasses: List&lt;String&gt;</text><rect fill="none" height="6" style="stroke:#C82930;stroke-width:1.0;" width="6" x="30.5" y="605.9453"/><text fill="#000000" font-family="sans-serif" font-size="14" lengthAdjust="spacing" textLength="171" x="42.5" y="613.2422">factoryValue: FactoryValue</text><line style="stroke:#181818;stroke-width:0.5;" x1="23.5" x2="540.5" y1="620.7559" y2="620.7559"/><ellipse cx="33.5" cy="635.5664" fill="#84BE84" rx="3" ry="3" style="stroke:#038048;stroke-width:1.0;"/><text fill="#000000" font-family="sans-serif" font-size="14" lengthAdjust="spacing" textLength="208" x="42.5" y="639.8633">getSensorClasses(): List&lt;String&gt;</text><ellipse cx="33.5" cy="654.1875" fill="#84BE84" rx="3" ry="3" style="stroke:#038048;stroke-width:1.0;"/><text fill="#000000" font-family="sans-serif" font-size="14" lengthAdjust="spacing" textLength="493" x="42.5" y="658.4844">createSensorFromCatalogue(String sensorClass, String sensorName): Sensor</text><rect fill="#F24D5C" height="6" style="stroke:#C82930;stroke-width:1.0;" width="6" x="30.5" y="669.8086"/><text fill="#000000" font-family="sans-serif" font-size="14" lengthAdjust="spacing" textLength="277" x="42.5" y="677.1055">isSensorInList(String sensorName): boolean</text></g><!--class Device--><g id="elem_Device"><rect codeLine="101" fill="#F1F1F1" height="252.832" id="Device" rx="2.5" ry="2.5" style="stroke:#181818;stroke-width:0.5;" width="433" x="275.5" y="43.0137"/><ellipse cx="466.25" cy="59.0137" fill="#ADD1B2" rx="11" ry="11" style="stroke:#181818;stroke-width:1.0;"/><path d="M469.0156,54.8887 Q469.1719,54.6699 469.3594,54.5605 Q469.5469,54.4512 469.7656,54.4512 Q470.1406,54.4512 470.375,54.7168 Q470.6094,54.9668 470.6094,55.5762 L470.6094,57.0293 Q470.6094,57.6387 470.375,57.9043 Q470.1406,58.1699 469.7656,58.1699 Q469.4219,58.1699 469.2188,57.9668 Q469.0156,57.7793 468.9063,57.2637 Q468.8594,56.9043 468.6719,56.7168 Q468.3438,56.3418 467.7344,56.123 Q467.125,55.9043 466.5,55.9043 Q465.7344,55.9043 465.0938,56.2324 Q464.4688,56.5605 463.9688,57.3105 Q463.4844,58.0605 463.4844,59.0918 L463.4844,60.1855 Q463.4844,61.4199 464.375,62.248 Q465.2656,63.0605 466.8594,63.0605 Q467.7969,63.0605 468.4531,62.8105 Q468.8438,62.6543 469.2656,62.2168 Q469.5313,61.9512 469.6719,61.873 Q469.8281,61.7949 470.0313,61.7949 Q470.3594,61.7949 470.6094,62.0605 Q470.875,62.3105 470.875,62.6543 Q470.875,62.998 470.5313,63.4043 Q470.0313,63.9824 469.2344,64.3105 Q468.1563,64.7637 466.8594,64.7637 Q465.3438,64.7637 464.1406,64.1387 Q463.1563,63.6387 462.4688,62.5762 Q461.7813,61.498 461.7813,60.2168 L461.7813,59.0605 Q461.7813,57.7324 462.3906,56.5918 Q463.0156,55.4355 464.1094,54.8262 Q465.2031,54.2012 466.4375,54.2012 Q467.1719,54.2012 467.8125,54.373 Q468.4688,54.5293 469.0156,54.8887 Z " fill="#000000"/><text fill="#000000" font-family="sans-serif" font-size="14" lengthAdjust="spacing" textLength="43" x="486.75" y="64.8105">Device</text><line style="stroke:#181818;stroke-width:0.5;" x1="276.5" x2="707.5" y1="75.0137" y2="75.0137"/><rect fill="none" height="6" style="stroke:#C82930;stroke-width:1.0;" width="6" x="283.5" y="86.8242"/><text fill="#000000" font-family="sans-serif" font-size="14" lengthAdjust="spacing" textLength="122" x="295.5" y="94.1211">deviceName: String</text><rect fill="none" height="6" style="stroke:#C82930;stroke-width:1.0;" width="6" x="283.5" y="105.4453"/><text fill="#000000" font-family="sans-serif" font-size="14" lengthAdjust="spacing" textLength="124" x="295.5" y="112.7422">deviceModel: String</text><rect fill="none" height="6" style="stroke:#C82930;stroke-width:1.0;" width="6" x="283.5" y="124.0664"/><text fill="#000000" font-family="sans-serif" font-size="14" lengthAdjust="spacing" textLength="86" x="295.5" y="131.3633">status: Status</text><rect fill="none" height="6" style="stroke:#C82930;stroke-width:1.0;" width="6" x="283.5" y="142.6875"/><text fill="#000000" font-family="sans-serif" font-size="14" lengthAdjust="spacing" textLength="156" x="295.5" y="149.9844">sensorList: List&lt;Sensor&gt;</text><rect fill="none" height="6" style="stroke:#C82930;stroke-width:1.0;" width="6" x="283.5" y="161.3086"/><text fill="#000000" font-family="sans-serif" font-size="14" lengthAdjust="spacing" textLength="173" x="295.5" y="168.6055">actuatorList: List&lt;Actuator&gt;</text><line style="stroke:#181818;stroke-width:0.5;" x1="276.5" x2="707.5" y1="176.1191" y2="176.1191"/><ellipse cx="286.5" cy="190.9297" fill="#84BE84" rx="3" ry="3" style="stroke:#038048;stroke-width:1.0;"/><text fill="#000000" font-family="sans-serif" font-size="14" lengthAdjust="spacing" textLength="154" x="295.5" y="195.2266">getDeviceName(): String</text><ellipse cx="286.5" cy="209.5508" fill="#84BE84" rx="3" ry="3" style="stroke:#038048;stroke-width:1.0;"/><text fill="#000000" font-family="sans-serif" font-size="14" lengthAdjust="spacing" textLength="156" x="295.5" y="213.8477">getDeviceModel(): String</text><ellipse cx="286.5" cy="228.1719" fill="#84BE84" rx="3" ry="3" style="stroke:#038048;stroke-width:1.0;"/><text fill="#000000" font-family="sans-serif" font-size="14" lengthAdjust="spacing" textLength="188" x="295.5" y="232.4688">getSensorList(): List&lt;Sensor&gt;</text><ellipse cx="286.5" cy="256.1035" fill="#84BE84" rx="3" ry="3" style="stroke:#038048;stroke-width:1.0;"/><text fill="#000000" font-family="sans-serif" font-size="14" lengthAdjust="spacing" textLength="324" x="295.5" y="251.0898">createSensorAndAddToDevice(String sensorName,</text><text fill="#000000" font-family="sans-serif" font-size="14" lengthAdjust="spacing" textLength="407" x="295.5" y="269.7109">SensorCatalogue sensorCatalogue, String sensorClass): Sensor</text><rect fill="#F24D5C" height="6" style="stroke:#C82930;stroke-width:1.0;" width="6" x="283.5" y="281.0352"/><text fill="#000000" font-family="sans-serif" font-size="14" lengthAdjust="spacing" textLength="277" x="295.5" y="288.332">isSensorInList(String sensorName): boolean</text></g><!--class SensorSpecificTime--><g id="elem_SensorSpecificTime"><rect codeLine="22" fill="#F1F1F1" height="85.2422" id="SensorSpecificTime" rx="2.5" ry="2.5" style="stroke:#181818;stroke-width:0.5;" width="232" x="689" y="571.5137"/><ellipse cx="738.25" cy="587.5137" fill="#B4A7E5" rx="11" ry="11" style="stroke:#181818;stroke-width:1.0;"/><path d="M739.2031,584.1543 L739.2031,590.8105 L740.9219,590.8105 Q741.5313,590.8105 741.7969,591.0449 Q742.0625,591.2793 742.0625,591.6699 Q742.0625,592.0449 741.7969,592.2793 Q741.5313,592.5137 740.9219,592.5137 L735.7813,592.5137 Q735.1719,592.5137 734.9063,592.2793 Q734.6406,592.0449 734.6406,591.6543 Q734.6406,591.2793 734.9063,591.0449 Q735.1719,590.8105 735.7813,590.8105 L737.5,590.8105 L737.5,584.1543 L735.7813,584.1543 Q735.1719,584.1543 734.9063,583.9199 Q734.6406,583.6855 734.6406,583.2949 Q734.6406,582.9199 734.9063,582.6855 Q735.1719,582.4512 735.7813,582.4512 L740.9219,582.4512 Q741.5313,582.4512 741.7969,582.6855 Q742.0625,582.9199 742.0625,583.2949 Q742.0625,583.6855 741.7969,583.9199 Q741.5313,584.1543 740.9219,584.1543 L739.2031,584.1543 Z " fill="#000000"/><text fill="#000000" font-family="sans-serif" font-size="14" font-style="italic" lengthAdjust="spacing" textLength="125" x="758.75" y="593.3105">SensorSpecificTime</text><line style="stroke:#181818;stroke-width:0.5;" x1="690" x2="920" y1="603.5137" y2="603.5137"/><line style="stroke:#181818;stroke-width:0.5;" x1="690" x2="920" y1="611.5137" y2="611.5137"/><ellipse cx="700" cy="635.6348" fill="#84BE84" rx="3" ry="3" style="stroke:#038048;stroke-width:1.0;"/><text fill="#000000" font-family="sans-serif" font-size="14" lengthAdjust="spacing" textLength="158" x="709" y="630.6211">getValueForSpecificTime</text><text fill="#000000" font-family="sans-serif" font-size="14" lengthAdjust="spacing" textLength="206" x="709" y="649.2422">(Timestamp specificTime): String</text></g><!--class SensorSpecificTimeLocation--><g id="elem_SensorSpecificTimeLocation"><rect codeLine="26" fill="#F1F1F1" height="103.8633" id="SensorSpecificTimeLocation" rx="2.5" ry="2.5" style="stroke:#181818;stroke-width:0.5;" width="254" x="995" y="562.0137"/><ellipse cx="1029.35" cy="578.0137" fill="#B4A7E5" rx="11" ry="11" style="stroke:#181818;stroke-width:1.0;"/><path d="M1030.3031,574.6543 L1030.3031,581.3105 L1032.0219,581.3105 Q1032.6313,581.3105 1032.8969,581.5449 Q1033.1625,581.7793 1033.1625,582.1699 Q1033.1625,582.5449 1032.8969,582.7793 Q1032.6313,583.0137 1032.0219,583.0137 L1026.8813,583.0137 Q1026.2719,583.0137 1026.0063,582.7793 Q1025.7406,582.5449 1025.7406,582.1543 Q1025.7406,581.7793 1026.0063,581.5449 Q1026.2719,581.3105 1026.8813,581.3105 L1028.6,581.3105 L1028.6,574.6543 L1026.8813,574.6543 Q1026.2719,574.6543 1026.0063,574.4199 Q1025.7406,574.1855 1025.7406,573.7949 Q1025.7406,573.4199 1026.0063,573.1855 Q1026.2719,572.9512 1026.8813,572.9512 L1032.0219,572.9512 Q1032.6313,572.9512 1032.8969,573.1855 Q1033.1625,573.4199 1033.1625,573.7949 Q1033.1625,574.1855 1032.8969,574.4199 Q1032.6313,574.6543 1032.0219,574.6543 L1030.3031,574.6543 Z " fill="#000000"/><text fill="#000000" font-family="sans-serif" font-size="14" font-style="italic" lengthAdjust="spacing" textLength="179" x="1047.65" y="583.8105">SensorSpecificTimeLocation</text><line style="stroke:#181818;stroke-width:0.5;" x1="996" x2="1248" y1="594.0137" y2="594.0137"/><line style="stroke:#181818;stroke-width:0.5;" x1="996" x2="1248" y1="602.0137" y2="602.0137"/><ellipse cx="1006" cy="635.4453" fill="#84BE84" rx="3" ry="3" style="stroke:#038048;stroke-width:1.0;"/><text fill="#000000" font-family="sans-serif" font-size="14" lengthAdjust="spacing" textLength="228" x="1015" y="621.1211">getValueAtSpecificTimeAndLocation</text><text fill="#000000" font-family="sans-serif" font-size="14" lengthAdjust="spacing" textLength="166" x="1015" y="639.7422">(Timestamp dateAndTime,</text><text fill="#000000" font-family="sans-serif" font-size="14" lengthAdjust="spacing" textLength="174" x="1019" y="658.3633">GPSCode gpsCode): String</text></g><!--class SensorPeriodOfTime--><g id="elem_SensorPeriodOfTime"><rect codeLine="30" fill="#F1F1F1" height="103.8633" id="SensorPeriodOfTime" rx="2.5" ry="2.5" style="stroke:#181818;stroke-width:0.5;" width="191" x="1304.5" y="562.0137"/><ellipse cx="1331.65" cy="578.0137" fill="#B4A7E5" rx="11" ry="11" style="stroke:#181818;stroke-width:1.0;"/><path d="M1332.6031,574.6543 L1332.6031,581.3105 L1334.3219,581.3105 Q1334.9313,581.3105 1335.1969,581.5449 Q1335.4625,581.7793 1335.4625,582.1699 Q1335.4625,582.5449 1335.1969,582.7793 Q1334.9313,583.0137 1334.3219,583.0137 L1329.1813,583.0137 Q1328.5719,583.0137 1328.3063,582.7793 Q1328.0406,582.5449 1328.0406,582.1543 Q1328.0406,581.7793 1328.3063,581.5449 Q1328.5719,581.3105 1329.1813,581.3105 L1330.9,581.3105 L1330.9,574.6543 L1329.1813,574.6543 Q1328.5719,574.6543 1328.3063,574.4199 Q1328.0406,574.1855 1328.0406,573.7949 Q1328.0406,573.4199 1328.3063,573.1855 Q1328.5719,572.9512 1329.1813,572.9512 L1334.3219,572.9512 Q1334.9313,572.9512 1335.1969,573.1855 Q1335.4625,573.4199 1335.4625,573.7949 Q1335.4625,574.1855 1335.1969,574.4199 Q1334.9313,574.6543 1334.3219,574.6543 L1332.6031,574.6543 Z " fill="#000000"/><text fill="#000000" font-family="sans-serif" font-size="14" font-style="italic" lengthAdjust="spacing" textLength="132" x="1348.35" y="583.8105">SensorPeriodOfTime</text><line style="stroke:#181818;stroke-width:0.5;" x1="1305.5" x2="1494.5" y1="594.0137" y2="594.0137"/><line style="stroke:#181818;stroke-width:0.5;" x1="1305.5" x2="1494.5" y1="602.0137" y2="602.0137"/><ellipse cx="1315.5" cy="635.4453" fill="#84BE84" rx="3" ry="3" style="stroke:#038048;stroke-width:1.0;"/><text fill="#000000" font-family="sans-serif" font-size="14" lengthAdjust="spacing" textLength="165" x="1324.5" y="621.1211">getValueForPeriodOfTime</text><text fill="#000000" font-family="sans-serif" font-size="14" lengthAdjust="spacing" textLength="110" x="1324.5" y="639.7422">(Timestamp start,</text><text fill="#000000" font-family="sans-serif" font-size="14" lengthAdjust="spacing" textLength="147" x="1328.5" y="658.3633">Timestamp end): String</text></g><!--class SpecificTimePowerConsumptionSensor--><g id="elem_SpecificTimePowerConsumptionSensor"><rect codeLine="34" fill="#F1F1F1" height="196.9688" id="SpecificTimePowerConsumptionSensor" rx="2.5" ry="2.5" style="stroke:#181818;stroke-width:0.5;" width="279" x="574.5" y="835.0137"/><ellipse cx="589.5" cy="851.0137" fill="#ADD1B2" rx="11" ry="11" style="stroke:#181818;stroke-width:1.0;"/><path d="M592.2656,846.8887 Q592.4219,846.6699 592.6094,846.5605 Q592.7969,846.4512 593.0156,846.4512 Q593.3906,846.4512 593.625,846.7168 Q593.8594,846.9668 593.8594,847.5762 L593.8594,849.0293 Q593.8594,849.6387 593.625,849.9043 Q593.3906,850.1699 593.0156,850.1699 Q592.6719,850.1699 592.4688,849.9668 Q592.2656,849.7793 592.1563,849.2637 Q592.1094,848.9043 591.9219,848.7168 Q591.5938,848.3418 590.9844,848.123 Q590.375,847.9043 589.75,847.9043 Q588.9844,847.9043 588.3438,848.2324 Q587.7188,848.5605 587.2188,849.3105 Q586.7344,850.0605 586.7344,851.0918 L586.7344,852.1855 Q586.7344,853.4199 587.625,854.248 Q588.5156,855.0605 590.1094,855.0605 Q591.0469,855.0605 591.7031,854.8105 Q592.0938,854.6543 592.5156,854.2168 Q592.7813,853.9512 592.9219,853.873 Q593.0781,853.7949 593.2813,853.7949 Q593.6094,853.7949 593.8594,854.0605 Q594.125,854.3105 594.125,854.6543 Q594.125,854.998 593.7813,855.4043 Q593.2813,855.9824 592.4844,856.3105 Q591.4063,856.7637 590.1094,856.7637 Q588.5938,856.7637 587.3906,856.1387 Q586.4063,855.6387 585.7188,854.5762 Q585.0313,853.498 585.0313,852.2168 L585.0313,851.0605 Q585.0313,849.7324 585.6406,848.5918 Q586.2656,847.4355 587.3594,846.8262 Q588.4531,846.2012 589.6875,846.2012 Q590.4219,846.2012 591.0625,846.373 Q591.7188,846.5293 592.2656,846.8887 Z " fill="#000000"/><text fill="#000000" font-family="sans-serif" font-size="14" lengthAdjust="spacing" textLength="247" x="603.5" y="856.8105">SpecificTimePowerConsumptionSensor</text><line style="stroke:#181818;stroke-width:0.5;" x1="575.5" x2="852.5" y1="867.0137" y2="867.0137"/><rect fill="none" height="6" style="stroke:#C82930;stroke-width:1.0;" width="6" x="582.5" y="878.8242"/><text fill="#000000" font-family="sans-serif" font-size="14" lengthAdjust="spacing" textLength="124" x="594.5" y="886.1211">sensorName: String</text><rect fill="none" height="6" style="stroke:#C82930;stroke-width:1.0;" width="6" x="582.5" y="897.4453"/><text fill="#000000" font-family="sans-serif" font-size="14" lengthAdjust="spacing" textLength="208" x="594.5" y="904.7422">functionality: SensorFunctionality</text><rect fill="none" height="6" style="stroke:#C82930;stroke-width:1.0;" width="6" x="582.5" y="916.0664"/><text fill="#000000" font-family="sans-serif" font-size="14" lengthAdjust="spacing" textLength="171" x="594.5" y="923.3633">factoryValue: FactoryValue</text><rect fill="none" height="6" style="stroke:#C82930;stroke-width:1.0;" width="6" x="582.5" y="934.6875"/><text fill="#000000" font-family="sans-serif" font-size="14" lengthAdjust="spacing" textLength="78" x="594.5" y="941.9844">value: Value</text><line style="stroke:#181818;stroke-width:0.5;" x1="575.5" x2="852.5" y1="949.498" y2="949.498"/><ellipse cx="585.5" cy="964.3086" fill="#84BE84" rx="3" ry="3" style="stroke:#038048;stroke-width:1.0;"/><text fill="#000000" font-family="sans-serif" font-size="14" lengthAdjust="spacing" textLength="156" x="594.5" y="968.6055">getSensorName(): String</text><ellipse cx="585.5" cy="982.9297" fill="#84BE84" rx="3" ry="3" style="stroke:#038048;stroke-width:1.0;"/><text fill="#000000" font-family="sans-serif" font-size="14" lengthAdjust="spacing" textLength="243" x="594.5" y="987.2266">getFunctionality(): SensorFunctionality</text><ellipse cx="585.5" cy="1010.8613" fill="#84BE84" rx="3" ry="3" style="stroke:#038048;stroke-width:1.0;"/><text fill="#000000" font-family="sans-serif" font-size="14" lengthAdjust="spacing" textLength="158" x="594.5" y="1005.8477">getValueForSpecificTime</text><text fill="#000000" font-family="sans-serif" font-size="14" lengthAdjust="spacing" textLength="206" x="594.5" y="1024.4688">(Timestamp specificTime): String</text></g><!--class WindSpeedAndDirectionSensor--><g id="elem_WindSpeedAndDirectionSensor"><rect codeLine="48" fill="#F1F1F1" height="196.9688" id="WindSpeedAndDirectionSensor" rx="2.5" ry="2.5" style="stroke:#181818;stroke-width:0.5;" width="269" x="888.5" y="835.0137"/><ellipse cx="920.6" cy="851.0137" fill="#ADD1B2" rx="11" ry="11" style="stroke:#181818;stroke-width:1.0;"/><path d="M923.3656,846.8887 Q923.5219,846.6699 923.7094,846.5605 Q923.8969,846.4512 924.1156,846.4512 Q924.4906,846.4512 924.725,846.7168 Q924.9594,846.9668 924.9594,847.5762 L924.9594,849.0293 Q924.9594,849.6387 924.725,849.9043 Q924.4906,850.1699 924.1156,850.1699 Q923.7719,850.1699 923.5688,849.9668 Q923.3656,849.7793 923.2563,849.2637 Q923.2094,848.9043 923.0219,848.7168 Q922.6938,848.3418 922.0844,848.123 Q921.475,847.9043 920.85,847.9043 Q920.0844,847.9043 919.4438,848.2324 Q918.8188,848.5605 918.3188,849.3105 Q917.8344,850.0605 917.8344,851.0918 L917.8344,852.1855 Q917.8344,853.4199 918.725,854.248 Q919.6156,855.0605 921.2094,855.0605 Q922.1469,855.0605 922.8031,854.8105 Q923.1938,854.6543 923.6156,854.2168 Q923.8813,853.9512 924.0219,853.873 Q924.1781,853.7949 924.3813,853.7949 Q924.7094,853.7949 924.9594,854.0605 Q925.225,854.3105 925.225,854.6543 Q925.225,854.998 924.8813,855.4043 Q924.3813,855.9824 923.5844,856.3105 Q922.5063,856.7637 921.2094,856.7637 Q919.6938,856.7637 918.4906,856.1387 Q917.5063,855.6387 916.8188,854.5762 Q916.1313,853.498 916.1313,852.2168 L916.1313,851.0605 Q916.1313,849.7324 916.7406,848.5918 Q917.3656,847.4355 918.4594,846.8262 Q919.5531,846.2012 920.7875,846.2012 Q921.5219,846.2012 922.1625,846.373 Q922.8188,846.5293 923.3656,846.8887 Z " fill="#000000"/><text fill="#000000" font-family="sans-serif" font-size="14" lengthAdjust="spacing" textLength="199" x="938.4" y="856.8105">WindSpeedAndDirectionSensor</text><line style="stroke:#181818;stroke-width:0.5;" x1="889.5" x2="1156.5" y1="867.0137" y2="867.0137"/><rect fill="none" height="6" style="stroke:#C82930;stroke-width:1.0;" width="6" x="896.5" y="878.8242"/><text fill="#000000" font-family="sans-serif" font-size="14" lengthAdjust="spacing" textLength="124" x="908.5" y="886.1211">sensorName: String</text><rect fill="none" height="6" style="stroke:#C82930;stroke-width:1.0;" width="6" x="896.5" y="897.4453"/><text fill="#000000" font-family="sans-serif" font-size="14" lengthAdjust="spacing" textLength="208" x="908.5" y="904.7422">functionality: SensorFunctionality</text><rect fill="none" height="6" style="stroke:#C82930;stroke-width:1.0;" width="6" x="896.5" y="916.0664"/><text fill="#000000" font-family="sans-serif" font-size="14" lengthAdjust="spacing" textLength="171" x="908.5" y="923.3633">factoryValue: FactoryValue</text><rect fill="none" height="6" style="stroke:#C82930;stroke-width:1.0;" width="6" x="896.5" y="934.6875"/><text fill="#000000" font-family="sans-serif" font-size="14" lengthAdjust="spacing" textLength="78" x="908.5" y="941.9844">value: Value</text><line style="stroke:#181818;stroke-width:0.5;" x1="889.5" x2="1156.5" y1="949.498" y2="949.498"/><ellipse cx="899.5" cy="964.3086" fill="#84BE84" rx="3" ry="3" style="stroke:#038048;stroke-width:1.0;"/><text fill="#000000" font-family="sans-serif" font-size="14" lengthAdjust="spacing" textLength="156" x="908.5" y="968.6055">getSensorName(): String</text><ellipse cx="899.5" cy="982.9297" fill="#84BE84" rx="3" ry="3" style="stroke:#038048;stroke-width:1.0;"/><text fill="#000000" font-family="sans-serif" font-size="14" lengthAdjust="spacing" textLength="243" x="908.5" y="987.2266">getFunctionality(): SensorFunctionality</text><ellipse cx="899.5" cy="1010.8613" fill="#84BE84" rx="3" ry="3" style="stroke:#038048;stroke-width:1.0;"/><text fill="#000000" font-family="sans-serif" font-size="14" lengthAdjust="spacing" textLength="158" x="908.5" y="1005.8477">getValueForSpecificTime</text><text fill="#000000" font-family="sans-serif" font-size="14" lengthAdjust="spacing" textLength="206" x="908.5" y="1024.4688">(Timestamp specificTime): String</text></g><!--class ElectricEnergyConsumptionSensor--><g id="elem_ElectricEnergyConsumptionSensor"><rect codeLine="62" fill="#F1F1F1" height="215.5898" id="ElectricEnergyConsumptionSensor" rx="2.5" ry="2.5" style="stroke:#181818;stroke-width:0.5;" width="310" x="1497" y="825.5137"/><ellipse cx="1538.55" cy="841.5137" fill="#ADD1B2" rx="11" ry="11" style="stroke:#181818;stroke-width:1.0;"/><path d="M1541.3156,837.3887 Q1541.4719,837.1699 1541.6594,837.0605 Q1541.8469,836.9512 1542.0656,836.9512 Q1542.4406,836.9512 1542.675,837.2168 Q1542.9094,837.4668 1542.9094,838.0762 L1542.9094,839.5293 Q1542.9094,840.1387 1542.675,840.4043 Q1542.4406,840.6699 1542.0656,840.6699 Q1541.7219,840.6699 1541.5188,840.4668 Q1541.3156,840.2793 1541.2063,839.7637 Q1541.1594,839.4043 1540.9719,839.2168 Q1540.6438,838.8418 1540.0344,838.623 Q1539.425,838.4043 1538.8,838.4043 Q1538.0344,838.4043 1537.3938,838.7324 Q1536.7688,839.0605 1536.2688,839.8105 Q1535.7844,840.5605 1535.7844,841.5918 L1535.7844,842.6855 Q1535.7844,843.9199 1536.675,844.748 Q1537.5656,845.5605 1539.1594,845.5605 Q1540.0969,845.5605 1540.7531,845.3105 Q1541.1438,845.1543 1541.5656,844.7168 Q1541.8313,844.4512 1541.9719,844.373 Q1542.1281,844.2949 1542.3313,844.2949 Q1542.6594,844.2949 1542.9094,844.5605 Q1543.175,844.8105 1543.175,845.1543 Q1543.175,845.498 1542.8313,845.9043 Q1542.3313,846.4824 1541.5344,846.8105 Q1540.4563,847.2637 1539.1594,847.2637 Q1537.6438,847.2637 1536.4406,846.6387 Q1535.4563,846.1387 1534.7688,845.0762 Q1534.0813,843.998 1534.0813,842.7168 L1534.0813,841.5605 Q1534.0813,840.2324 1534.6906,839.0918 Q1535.3156,837.9355 1536.4094,837.3262 Q1537.5031,836.7012 1538.7375,836.7012 Q1539.4719,836.7012 1540.1125,836.873 Q1540.7688,837.0293 1541.3156,837.3887 Z " fill="#000000"/><text fill="#000000" font-family="sans-serif" font-size="14" lengthAdjust="spacing" textLength="219" x="1558.45" y="847.3105">ElectricEnergyConsumptionSensor</text><line style="stroke:#181818;stroke-width:0.5;" x1="1498" x2="1806" y1="857.5137" y2="857.5137"/><rect fill="none" height="6" style="stroke:#C82930;stroke-width:1.0;" width="6" x="1505" y="869.3242"/><text fill="#000000" font-family="sans-serif" font-size="14" lengthAdjust="spacing" textLength="124" x="1517" y="876.6211">sensorName: String</text><rect fill="none" height="6" style="stroke:#C82930;stroke-width:1.0;" width="6" x="1505" y="887.9453"/><text fill="#000000" font-family="sans-serif" font-size="14" lengthAdjust="spacing" textLength="208" x="1517" y="895.2422">functionality: SensorFunctionality</text><rect fill="none" height="6" style="stroke:#C82930;stroke-width:1.0;" width="6" x="1505" y="906.5664"/><text fill="#000000" font-family="sans-serif" font-size="14" lengthAdjust="spacing" textLength="171" x="1517" y="913.8633">factoryValue: FactoryValue</text><rect fill="none" height="6" style="stroke:#C82930;stroke-width:1.0;" width="6" x="1505" y="925.1875"/><text fill="#000000" font-family="sans-serif" font-size="14" lengthAdjust="spacing" textLength="78" x="1517" y="932.4844">value: Value</text><line style="stroke:#181818;stroke-width:0.5;" x1="1498" x2="1806" y1="939.998" y2="939.998"/><ellipse cx="1508" cy="954.8086" fill="#84BE84" rx="3" ry="3" style="stroke:#038048;stroke-width:1.0;"/><text fill="#000000" font-family="sans-serif" font-size="14" lengthAdjust="spacing" textLength="156" x="1517" y="959.1055">getSensorName(): String</text><ellipse cx="1508" cy="973.4297" fill="#84BE84" rx="3" ry="3" style="stroke:#038048;stroke-width:1.0;"/><text fill="#000000" font-family="sans-serif" font-size="14" lengthAdjust="spacing" textLength="243" x="1517" y="977.7266">getFunctionality(): SensorFunctionality</text><ellipse cx="1508" cy="1010.6719" fill="#84BE84" rx="3" ry="3" style="stroke:#038048;stroke-width:1.0;"/><text fill="#000000" font-family="sans-serif" font-size="14" lengthAdjust="spacing" textLength="165" x="1517" y="996.3477">getValueForPeriodOfTime</text><text fill="#000000" font-family="sans-serif" font-size="14" lengthAdjust="spacing" textLength="280" x="1517" y="1014.9688">(Timestamp startDate, Timestamp endDate):</text><text fill="#000000" font-family="sans-serif" font-size="14" lengthAdjust="spacing" textLength="37" x="1517" y="1033.5898">String</text></g><!--class DewPointCelsiusSensor--><g id="elem_DewPointCelsiusSensor"><rect codeLine="75" fill="#F1F1F1" height="178.3477" id="DewPointCelsiusSensor" rx="2.5" ry="2.5" style="stroke:#181818;stroke-width:0.5;" width="269" x="1192.5" y="844.5137"/><ellipse cx="1247.75" cy="860.5137" fill="#ADD1B2" rx="11" ry="11" style="stroke:#181818;stroke-width:1.0;"/><path d="M1250.5156,856.3887 Q1250.6719,856.1699 1250.8594,856.0605 Q1251.0469,855.9512 1251.2656,855.9512 Q1251.6406,855.9512 1251.875,856.2168 Q1252.1094,856.4668 1252.1094,857.0762 L1252.1094,858.5293 Q1252.1094,859.1387 1251.875,859.4043 Q1251.6406,859.6699 1251.2656,859.6699 Q1250.9219,859.6699 1250.7188,859.4668 Q1250.5156,859.2793 1250.4063,858.7637 Q1250.3594,858.4043 1250.1719,858.2168 Q1249.8438,857.8418 1249.2344,857.623 Q1248.625,857.4043 1248,857.4043 Q1247.2344,857.4043 1246.5938,857.7324 Q1245.9688,858.0605 1245.4688,858.8105 Q1244.9844,859.5605 1244.9844,860.5918 L1244.9844,861.6855 Q1244.9844,862.9199 1245.875,863.748 Q1246.7656,864.5605 1248.3594,864.5605 Q1249.2969,864.5605 1249.9531,864.3105 Q1250.3438,864.1543 1250.7656,863.7168 Q1251.0313,863.4512 1251.1719,863.373 Q1251.3281,863.2949 1251.5313,863.2949 Q1251.8594,863.2949 1252.1094,863.5605 Q1252.375,863.8105 1252.375,864.1543 Q1252.375,864.498 1252.0313,864.9043 Q1251.5313,865.4824 1250.7344,865.8105 Q1249.6563,866.2637 1248.3594,866.2637 Q1246.8438,866.2637 1245.6406,865.6387 Q1244.6563,865.1387 1243.9688,864.0762 Q1243.2813,862.998 1243.2813,861.7168 L1243.2813,860.5605 Q1243.2813,859.2324 1243.8906,858.0918 Q1244.5156,856.9355 1245.6094,856.3262 Q1246.7031,855.7012 1247.9375,855.7012 Q1248.6719,855.7012 1249.3125,855.873 Q1249.9688,856.0293 1250.5156,856.3887 Z " fill="#000000"/><text fill="#000000" font-family="sans-serif" font-size="14" lengthAdjust="spacing" textLength="150" x="1268.25" y="866.3105">DewPointCelsiusSensor</text><line style="stroke:#181818;stroke-width:0.5;" x1="1193.5" x2="1460.5" y1="876.5137" y2="876.5137"/><rect fill="none" height="6" style="stroke:#C82930;stroke-width:1.0;" width="6" x="1200.5" y="888.3242"/><text fill="#000000" font-family="sans-serif" font-size="14" lengthAdjust="spacing" textLength="76" x="1212.5" y="895.6211">String name</text><rect fill="none" height="6" style="stroke:#C82930;stroke-width:1.0;" width="6" x="1200.5" y="906.9453"/><text fill="#000000" font-family="sans-serif" font-size="14" lengthAdjust="spacing" textLength="204" x="1212.5" y="914.2422">SensorFunctionality functionality</text><rect fill="none" height="6" style="stroke:#C82930;stroke-width:1.0;" width="6" x="1200.5" y="925.5664"/><text fill="#000000" font-family="sans-serif" font-size="14" lengthAdjust="spacing" textLength="179" x="1212.5" y="932.8633">DewPointCelsiusValue value</text><line style="stroke:#181818;stroke-width:0.5;" x1="1193.5" x2="1460.5" y1="940.377" y2="940.377"/><ellipse cx="1203.5" cy="955.1875" fill="#84BE84" rx="3" ry="3" style="stroke:#038048;stroke-width:1.0;"/><text fill="#000000" font-family="sans-serif" font-size="14" lengthAdjust="spacing" textLength="156" x="1212.5" y="959.4844">getSensorName(): String</text><ellipse cx="1203.5" cy="973.8086" fill="#84BE84" rx="3" ry="3" style="stroke:#038048;stroke-width:1.0;"/><text fill="#000000" font-family="sans-serif" font-size="14" lengthAdjust="spacing" textLength="243" x="1212.5" y="978.1055">getFunctionality(): SensorFunctionality</text><ellipse cx="1203.5" cy="1001.7402" fill="#84BE84" rx="3" ry="3" style="stroke:#038048;stroke-width:1.0;"/><text fill="#000000" font-family="sans-serif" font-size="14" lengthAdjust="spacing" textLength="158" x="1212.5" y="996.7266">getValueForSpecificTime</text><text fill="#000000" font-family="sans-serif" font-size="14" lengthAdjust="spacing" textLength="206" x="1212.5" y="1015.3477">(Timestamp specificTime): String</text></g><!--reverse link SensorSpecificTime to SpecificTimePowerConsumptionSensor--><g id="link_SensorSpecificTime_SpecificTimePowerConsumptionSensor"><path codeLine="43" d="M788.1413,673.8272 C775.2313,718.8772 759.12,775.0737 741.98,834.9037 " fill="none" id="SensorSpecificTime-backto-SpecificTimePowerConsumptionSensor" style="stroke:#181818;stroke-width:1.0;stroke-dasharray:7.0,7.0;"/><polygon fill="none" points="793.1,656.5237,782.3735,672.1743,793.9092,675.4801,793.1,656.5237" style="stroke:#181818;stroke-width:1.0;"/><text fill="#000000" font-family="sans-serif" font-size="13" lengthAdjust="spacing" textLength="81" x="768" y="760.542">&#171;implements&#187;</text></g><!--reverse link Sensor to SensorSpecificTime--><g id="link_Sensor_SensorSpecificTime"><path codeLine="44" d="M805,478.2437 C805,511.0537 805,538.5537 805,571.3537 " fill="none" id="Sensor-backto-SensorSpecificTime" style="stroke:#181818;stroke-width:1.0;"/><polygon fill="none" points="805,460.2437,799,478.2437,811,478.2437,805,460.2437" style="stroke:#181818;stroke-width:1.0;"/></g><!--link SpecificTimePowerConsumptionSensor to SensorFunctionality--><g id="link_SpecificTimePowerConsumptionSensor_SensorFunctionality"><path codeLine="45" d="M826.85,1032.1337 C841.44,1043.7237 856.4,1055.1137 871,1065.5137 C944.29,1117.6937 1032.92,1169.9237 1095.34,1205.0537 " fill="none" id="SpecificTimePowerConsumptionSensor-SensorFunctionality" style="stroke:#181818;stroke-width:1.0;"/><text fill="#000000" font-family="sans-serif" font-size="13" lengthAdjust="spacing" textLength="21" x="903" y="1088.542">has</text></g><!--reverse link SensorSpecificTime to WindSpeedAndDirectionSensor--><g id="link_SensorSpecificTime_WindSpeedAndDirectionSensor"><path codeLine="58" d="M843.6882,671.3629 C874.6182,716.4129 914.9,775.0737 955.98,834.9037 " fill="none" id="SensorSpecificTime-backto-WindSpeedAndDirectionSensor" style="stroke:#181818;stroke-width:1.0;stroke-dasharray:7.0,7.0;"/><polygon fill="none" points="833.5,656.5237,838.7418,674.7589,848.6345,667.9668,833.5,656.5237" style="stroke:#181818;stroke-width:1.0;"/><text fill="#000000" font-family="sans-serif" font-size="13" lengthAdjust="spacing" textLength="81" x="908" y="760.542">&#171;implements&#187;</text></g><!--link WindSpeedAndDirectionSensor to SensorFunctionality--><g id="link_WindSpeedAndDirectionSensor_SensorFunctionality"><path codeLine="59" d="M1070.16,1032.4137 C1083.87,1060.8937 1099.05,1092.4037 1113.46,1122.3337 " fill="none" id="WindSpeedAndDirectionSensor-SensorFunctionality" style="stroke:#181818;stroke-width:1.0;"/><text fill="#000000" font-family="sans-serif" font-size="13" lengthAdjust="spacing" textLength="21" x="1099" y="1088.542">has</text></g><!--reverse link SensorPeriodOfTime to ElectricEnergyConsumptionSensor--><g id="link_SensorPeriodOfTime_ElectricEnergyConsumptionSensor"><path codeLine="71" d="M1451.6807,680.1222 C1485.7007,722.9822 1524.27,771.5837 1566.98,825.3937 " fill="none" id="SensorPeriodOfTime-backto-ElectricEnergyConsumptionSensor" style="stroke:#181818;stroke-width:1.0;stroke-dasharray:7.0,7.0;"/><polygon fill="none" points="1440.49,666.0237,1446.9812,683.8524,1456.3802,676.392,1440.49,666.0237" style="stroke:#181818;stroke-width:1.0;"/><text fill="#000000" font-family="sans-serif" font-size="13" lengthAdjust="spacing" textLength="81" x="1519" y="760.542">&#171;implements&#187;</text></g><!--reverse link Sensor to SensorPeriodOfTime--><g id="link_Sensor_SensorPeriodOfTime"><path codeLine="72" d="M979.9563,438.2438 C1071.7663,452.1738 1170.39,474.1437 1267,517.0137 C1292.77,528.4437 1318.5,545.3937 1340.36,561.8837 " fill="none" id="Sensor-backto-SensorPeriodOfTime" style="stroke:#181818;stroke-width:1.0;"/><polygon fill="none" points="962.16,435.5437,979.0563,444.176,980.8564,432.3117,962.16,435.5437" style="stroke:#181818;stroke-width:1.0;"/></g><!--link ElectricEnergyConsumptionSensor to SensorFunctionality--><g id="link_ElectricEnergyConsumptionSensor_SensorFunctionality"><path codeLine="73" d="M1513.21,1041.6637 C1501.74,1049.8837 1490.24,1057.9237 1479,1065.5137 C1404.07,1116.0837 1315.01,1168.5437 1252.54,1204.1637 " fill="none" id="ElectricEnergyConsumptionSensor-SensorFunctionality" style="stroke:#181818;stroke-width:1.0;"/><text fill="#000000" font-family="sans-serif" font-size="13" lengthAdjust="spacing" textLength="21" x="1464" y="1088.542">has</text></g><!--reverse link SensorSpecificTimeLocation to DewPointCelsiusSensor--><g id="link_SensorSpecificTimeLocation_DewPointCelsiusSensor"><path codeLine="83" d="M1164.7034,681.1457 C1195.7134,729.1757 1233.05,787.0037 1270.13,844.4337 " fill="none" id="SensorSpecificTimeLocation-backto-DewPointCelsiusSensor" style="stroke:#181818;stroke-width:1.0;stroke-dasharray:7.0,7.0;"/><polygon fill="none" points="1154.94,666.0237,1159.6627,684.4002,1169.7441,677.8913,1154.94,666.0237" style="stroke:#181818;stroke-width:1.0;"/><text fill="#000000" font-family="sans-serif" font-size="13" lengthAdjust="spacing" textLength="81" x="1219" y="760.542">&#171;implements&#187;</text></g><!--link DewPointCelsiusSensor to SensorFunctionality--><g id="link_DewPointCelsiusSensor_SensorFunctionality"><path codeLine="84" d="M1283.97,1022.6737 C1268.86,1053.6437 1251.57,1089.0637 1235.25,1122.5037 " fill="none" id="DewPointCelsiusSensor-SensorFunctionality" style="stroke:#181818;stroke-width:1.0;"/><text fill="#000000" font-family="sans-serif" font-size="13" lengthAdjust="spacing" textLength="21" x="1256" y="1088.542">has</text></g><!--reverse link Sensor to SensorSpecificTimeLocation--><g id="link_Sensor_SensorSpecificTimeLocation"><path codeLine="85" d="M888.344,469.6545 C936.834,499.3945 986.96,530.1537 1038.6,561.8437 " fill="none" id="Sensor-backto-SensorSpecificTimeLocation" style="stroke:#181818;stroke-width:1.0;"/><polygon fill="none" points="873,460.2437,885.207,474.7691,891.4809,464.5398,873,460.2437" style="stroke:#181818;stroke-width:1.0;"/></g><!--reverse link Sensor to SensorCatalogue--><g id="link_Sensor_SensorCatalogue"><path codeLine="99" d="M677.3442,462.0182 C649.6542,471.6682 626.09,480.0537 599,490.0137 C553.15,506.8637 503.82,525.6637 458.05,543.4037 " fill="none" id="Sensor-backto-SensorCatalogue" style="stroke:#181818;stroke-width:1.0;stroke-dasharray:7.0,7.0;"/><polygon fill="#181818" points="683.01,460.0437,673.195,459.2283,678.2885,461.6891,675.8277,466.7827,683.01,460.0437" style="stroke:#181818;stroke-width:1.0;"/><text fill="#000000" font-family="sans-serif" font-size="13" lengthAdjust="spacing" textLength="196" x="600" y="505.042">&#171;creates classes that implement&#187;</text></g><!--link Device to Sensor--><g id="link_Device_Sensor"><path codeLine="114" d="M651.71,296.0337 C688.03,324.5837 724.12,352.9537 752.15,374.9837 " fill="none" id="Device-Sensor" style="stroke:#181818;stroke-width:1.0;"/><text fill="#000000" font-family="sans-serif" font-size="13" lengthAdjust="spacing" textLength="160" x="713" y="341.042">has classes that implement</text><text fill="#000000" font-family="sans-serif" font-size="13" lengthAdjust="spacing" textLength="7" x="653.7409" y="317.8811">1</text><text fill="#000000" font-family="sans-serif" font-size="13" lengthAdjust="spacing" textLength="20" x="722.1333" y="363.883">0..*</text></g><!--link Device to SensorCatalogue--><g id="link_Device_SensorCatalogue"><path codeLine="115" d="M432.38,296.1337 C394.31,376.3637 348.9425,471.9531 317.5625,538.0731 " fill="none" id="Device-to-SensorCatalogue" style="stroke:#181818;stroke-width:1.0;stroke-dasharray:7.0,7.0;"/><polygon fill="#181818" points="314.99,543.4937,322.4625,537.0779,317.1338,538.9766,315.2351,533.6479,314.99,543.4937" style="stroke:#181818;stroke-width:1.0;"/><text fill="#000000" font-family="sans-serif" font-size="13" lengthAdjust="spacing" textLength="42" x="394" y="423.042">&#171;uses&#187;</text></g><!--SRC=[xLRHRfim57tdAwmyPMiQRQzH58a5sY6bIGHqKQLAbGTEQWrCX4shQkk_pyQ6s0H88tKlKtanlZw-lhxd-Dfx6Fs2EmJYB8MOWDyMu1yYHGe2H6YMNnKaOZWZCC7iHGs7xitQzUtmrdT7fU7xxOtdUE6Tx7tpbhP_zn247158Kp2t5-x3UXLueRTQIjl6Mpfgz7RfUu5RTm8tbF-Ek-6JlANg1gk5xJ_ujkFP1pVhrSRrvQ-xTFthk_BtrIeRJ1ZAjp12QZTg0nTWXvYqB66AXfyc860v9hlcgB7x4dPirjVRgspI4aRLScsH17iKuIsEGfmY3LQk_GCc1ReoCVTaA1hAOBe7L1imOzTYERNg8ekWs4JhwZRJeJQ9AxGHHmoP61E6qJq1r-jWdiK8xFPKj6T5jaOvpkBLjYyVEiRC1uCv4n4SJ8Z4lUj72QGKw9jSPyyedsU45kbUxDHGJFLTAcg5R8xSIy1M5qUtOhG9C69P_bBkSWAkj5u3-2GHnqFzUZPGRrRq-ogo-ciH__JFU3n-0nCJC9tYT9-W5156PxE6J-xdyhB5_m5scklQWP6EoIEaLbCv6qnYxX75NFyEpb7q8HdmZufOfsPwEEWKInzlPz3l9dncZYENe7ptyb4rUYNGNxSTVecCpCejJ7oHUtAYZXYNXjJ42MBEA2AwynfsYlSE2O5IGwQ47FIyplWrE4S9nGNj48xC020mRVBQzZxRzWYciLv9ZXJ7VtENr4yQgONM37Sge9sFdfhmjlkdYicoU4cJ6b1lZn8wXmmcsQxG7prLkPWB7A8JiC2KJMKUPjPP9K1ZKtaJFBNwkm1HZlZ1KzlDixIERQXKg8Kr0ePDIAKMW1OYLddqY5Xps3RdPvOb21Bz6LrbLBmBp2m9zcIOLAQHj-mHCb1JoXcrz4FsX2Cpjt5fQYt5rU0DVxqcBQDSdwoWOa2qHto9BLR9BGqwMPoT0Z83P2lJpAJBgGDiENmQeeoo2nBK4Hq8RyHa4ixlGpkEmqpwFcPg9CfnGxBKx3SqKUha_KIXg1ny7OX3EVWo7dyUWEfCy_FOeGTzxdZMfgU2JnAgURN-0W00]--></g></svg>