<?xml version="1.0" encoding="us-ascii" standalone="no"?><svg xmlns="http://www.w3.org/2000/svg" xmlns:xlink="http://www.w3.org/1999/xlink" contentStyleType="text/css" height="1337px" preserveAspectRatio="none" style="width:1812px;height:1337px;background:#FFFFFF;" version="1.1" viewBox="0 0 1812 1337" width="1812px" zoomAndPan="magnify"><defs/><g><!--cluster actuators--><g id="cluster_actuators"><path d="M8.5,728 L75.5,728 A3.75,3.75 0 0 1 78,730.5 L85,752.6211 L1802.5,752.6211 A2.5,2.5 0 0 1 1805,755.1211 L1805,1140.5 A2.5,2.5 0 0 1 1802.5,1143 L8.5,1143 A2.5,2.5 0 0 1 6,1140.5 L6,730.5 A2.5,2.5 0 0 1 8.5,728 " fill="none" style="stroke:#000000;stroke-width:1.5;"/><line style="stroke:#000000;stroke-width:1.5;" x1="6" x2="85" y1="752.6211" y2="752.6211"/><text fill="#000000" font-family="sans-serif" font-size="14" font-weight="bold" lengthAdjust="spacing" textLength="66" x="10" y="745.1074">actuators</text></g><!--class ActuatorSpecificDecimal--><g id="elem_ActuatorSpecificDecimal"><rect codeLine="41" fill="#F1F1F1" height="66.6211" id="ActuatorSpecificDecimal" rx="2.5" ry="2.5" style="stroke:#181818;stroke-width:0.5;" width="281" x="414.5" y="765"/><ellipse cx="474.75" cy="781" fill="#B4A7E5" rx="11" ry="11" style="stroke:#181818;stroke-width:1.0;"/><path d="M475.7031,777.6406 L475.7031,784.2969 L477.4219,784.2969 Q478.0313,784.2969 478.2969,784.5313 Q478.5625,784.7656 478.5625,785.1563 Q478.5625,785.5313 478.2969,785.7656 Q478.0313,786 477.4219,786 L472.2813,786 Q471.6719,786 471.4063,785.7656 Q471.1406,785.5313 471.1406,785.1406 Q471.1406,784.7656 471.4063,784.5313 Q471.6719,784.2969 472.2813,784.2969 L474,784.2969 L474,777.6406 L472.2813,777.6406 Q471.6719,777.6406 471.4063,777.4063 Q471.1406,777.1719 471.1406,776.7813 Q471.1406,776.4063 471.4063,776.1719 Q471.6719,775.9375 472.2813,775.9375 L477.4219,775.9375 Q478.0313,775.9375 478.2969,776.1719 Q478.5625,776.4063 478.5625,776.7813 Q478.5625,777.1719 478.2969,777.4063 Q478.0313,777.6406 477.4219,777.6406 L475.7031,777.6406 Z " fill="#000000"/><text fill="#000000" font-family="sans-serif" font-size="14" font-style="italic" lengthAdjust="spacing" textLength="152" x="495.25" y="786.7969">ActuatorSpecificDecimal</text><line style="stroke:#181818;stroke-width:0.5;" x1="415.5" x2="694.5" y1="797" y2="797"/><line style="stroke:#181818;stroke-width:0.5;" x1="415.5" x2="694.5" y1="805" y2="805"/><ellipse cx="425.5" cy="819.8105" fill="#84BE84" rx="3" ry="3" style="stroke:#038048;stroke-width:1.0;"/><text fill="#000000" font-family="sans-serif" font-size="14" lengthAdjust="spacing" textLength="255" x="434.5" y="824.1074">setDecimalValue(double value): boolean</text></g><!--class ActuatorSpecificInteger--><g id="elem_ActuatorSpecificInteger"><rect codeLine="45" fill="#F1F1F1" height="66.6211" id="ActuatorSpecificInteger" rx="2.5" ry="2.5" style="stroke:#181818;stroke-width:0.5;" width="366" x="752" y="765"/><ellipse cx="857.25" cy="781" fill="#B4A7E5" rx="11" ry="11" style="stroke:#181818;stroke-width:1.0;"/><path d="M858.2031,777.6406 L858.2031,784.2969 L859.9219,784.2969 Q860.5313,784.2969 860.7969,784.5313 Q861.0625,784.7656 861.0625,785.1563 Q861.0625,785.5313 860.7969,785.7656 Q860.5313,786 859.9219,786 L854.7813,786 Q854.1719,786 853.9063,785.7656 Q853.6406,785.5313 853.6406,785.1406 Q853.6406,784.7656 853.9063,784.5313 Q854.1719,784.2969 854.7813,784.2969 L856.5,784.2969 L856.5,777.6406 L854.7813,777.6406 Q854.1719,777.6406 853.9063,777.4063 Q853.6406,777.1719 853.6406,776.7813 Q853.6406,776.4063 853.9063,776.1719 Q854.1719,775.9375 854.7813,775.9375 L859.9219,775.9375 Q860.5313,775.9375 860.7969,776.1719 Q861.0625,776.4063 861.0625,776.7813 Q861.0625,777.1719 860.7969,777.4063 Q860.5313,777.6406 859.9219,777.6406 L858.2031,777.6406 Z " fill="#000000"/><text fill="#000000" font-family="sans-serif" font-size="14" font-style="italic" lengthAdjust="spacing" textLength="147" x="877.75" y="786.7969">ActuatorSpecificInteger</text><line style="stroke:#181818;stroke-width:0.5;" x1="753" x2="1117" y1="797" y2="797"/><line style="stroke:#181818;stroke-width:0.5;" x1="753" x2="1117" y1="805" y2="805"/><ellipse cx="763" cy="819.8105" fill="#84BE84" rx="3" ry="3" style="stroke:#038048;stroke-width:1.0;"/><text fill="#000000" font-family="sans-serif" font-size="14" lengthAdjust="spacing" textLength="340" x="772" y="824.1074">setActuatorSpecificValue (int specificInteger): boolean</text></g><!--class BlindSetterActuator--><g id="elem_BlindSetterActuator"><rect codeLine="49" fill="#F1F1F1" height="196.9688" id="BlindSetterActuator" rx="2.5" ry="2.5" style="stroke:#181818;stroke-width:0.5;" width="330" x="22" y="911.5"/><ellipse cx="121.75" cy="927.5" fill="#ADD1B2" rx="11" ry="11" style="stroke:#181818;stroke-width:1.0;"/><path d="M124.5156,923.375 Q124.6719,923.1563 124.8594,923.0469 Q125.0469,922.9375 125.2656,922.9375 Q125.6406,922.9375 125.875,923.2031 Q126.1094,923.4531 126.1094,924.0625 L126.1094,925.5156 Q126.1094,926.125 125.875,926.3906 Q125.6406,926.6563 125.2656,926.6563 Q124.9219,926.6563 124.7188,926.4531 Q124.5156,926.2656 124.4063,925.75 Q124.3594,925.3906 124.1719,925.2031 Q123.8438,924.8281 123.2344,924.6094 Q122.625,924.3906 122,924.3906 Q121.2344,924.3906 120.5938,924.7188 Q119.9688,925.0469 119.4688,925.7969 Q118.9844,926.5469 118.9844,927.5781 L118.9844,928.6719 Q118.9844,929.9063 119.875,930.7344 Q120.7656,931.5469 122.3594,931.5469 Q123.2969,931.5469 123.9531,931.2969 Q124.3438,931.1406 124.7656,930.7031 Q125.0313,930.4375 125.1719,930.3594 Q125.3281,930.2813 125.5313,930.2813 Q125.8594,930.2813 126.1094,930.5469 Q126.375,930.7969 126.375,931.1406 Q126.375,931.4844 126.0313,931.8906 Q125.5313,932.4688 124.7344,932.7969 Q123.6563,933.25 122.3594,933.25 Q120.8438,933.25 119.6406,932.625 Q118.6563,932.125 117.9688,931.0625 Q117.2813,929.9844 117.2813,928.7031 L117.2813,927.5469 Q117.2813,926.2188 117.8906,925.0781 Q118.5156,923.9219 119.6094,923.3125 Q120.7031,922.6875 121.9375,922.6875 Q122.6719,922.6875 123.3125,922.8594 Q123.9688,923.0156 124.5156,923.375 Z " fill="#000000"/><text fill="#000000" font-family="sans-serif" font-size="14" lengthAdjust="spacing" textLength="122" x="142.25" y="933.2969">BlindSetterActuator</text><line style="stroke:#181818;stroke-width:0.5;" x1="23" x2="351" y1="943.5" y2="943.5"/><rect fill="none" height="6" style="stroke:#C82930;stroke-width:1.0;" width="6" x="30" y="955.3105"/><text fill="#000000" font-family="sans-serif" font-size="14" lengthAdjust="spacing" textLength="133" x="42" y="962.6074">actuatorName: String</text><rect fill="none" height="6" style="stroke:#C82930;stroke-width:1.0;" width="6" x="30" y="973.9316"/><text fill="#000000" font-family="sans-serif" font-size="14" lengthAdjust="spacing" textLength="273" x="42" y="981.2285">actuatorFunctionality: ActuatorFunctionality</text><rect fill="none" height="6" style="stroke:#C82930;stroke-width:1.0;" width="6" x="30" y="992.5527"/><text fill="#000000" font-family="sans-serif" font-size="14" lengthAdjust="spacing" textLength="114" x="42" y="999.8496">specificInteger: int</text><rect fill="none" height="6" style="stroke:#C82930;stroke-width:1.0;" width="6" x="30" y="1011.1738"/><text fill="#000000" font-family="sans-serif" font-size="14" lengthAdjust="spacing" textLength="243" x="42" y="1018.4707">actuatorProperties: ActuatorProperties</text><line style="stroke:#181818;stroke-width:0.5;" x1="23" x2="351" y1="1025.9844" y2="1025.9844"/><ellipse cx="33" cy="1040.7949" fill="#84BE84" rx="3" ry="3" style="stroke:#038048;stroke-width:1.0;"/><text fill="#000000" font-family="sans-serif" font-size="14" lengthAdjust="spacing" textLength="164" x="42" y="1045.0918">getActuatorName(): String</text><ellipse cx="33" cy="1059.416" fill="#84BE84" rx="3" ry="3" style="stroke:#038048;stroke-width:1.0;"/><text fill="#000000" font-family="sans-serif" font-size="14" lengthAdjust="spacing" textLength="304" x="42" y="1063.7129">getActuatorFunctionality(): ActuatorFunctionality</text><ellipse cx="33" cy="1087.3477" fill="#84BE84" rx="3" ry="3" style="stroke:#038048;stroke-width:1.0;"/><text fill="#000000" font-family="sans-serif" font-size="14" lengthAdjust="spacing" textLength="157" x="42" y="1082.334">setActuatorSpecificValue</text><text fill="#000000" font-family="sans-serif" font-size="14" lengthAdjust="spacing" textLength="179" x="42" y="1100.9551">(int specificInteger): boolean</text></g><!--class DecimalSetterActuator--><g id="elem_DecimalSetterActuator"><rect codeLine="60" fill="#F1F1F1" height="234.2109" id="DecimalSetterActuator" rx="2.5" ry="2.5" style="stroke:#181818;stroke-width:0.5;" width="335" x="387.5" y="893"/><ellipse cx="480.25" cy="909" fill="#ADD1B2" rx="11" ry="11" style="stroke:#181818;stroke-width:1.0;"/><path d="M483.0156,904.875 Q483.1719,904.6563 483.3594,904.5469 Q483.5469,904.4375 483.7656,904.4375 Q484.1406,904.4375 484.375,904.7031 Q484.6094,904.9531 484.6094,905.5625 L484.6094,907.0156 Q484.6094,907.625 484.375,907.8906 Q484.1406,908.1563 483.7656,908.1563 Q483.4219,908.1563 483.2188,907.9531 Q483.0156,907.7656 482.9063,907.25 Q482.8594,906.8906 482.6719,906.7031 Q482.3438,906.3281 481.7344,906.1094 Q481.125,905.8906 480.5,905.8906 Q479.7344,905.8906 479.0938,906.2188 Q478.4688,906.5469 477.9688,907.2969 Q477.4844,908.0469 477.4844,909.0781 L477.4844,910.1719 Q477.4844,911.4063 478.375,912.2344 Q479.2656,913.0469 480.8594,913.0469 Q481.7969,913.0469 482.4531,912.7969 Q482.8438,912.6406 483.2656,912.2031 Q483.5313,911.9375 483.6719,911.8594 Q483.8281,911.7813 484.0313,911.7813 Q484.3594,911.7813 484.6094,912.0469 Q484.875,912.2969 484.875,912.6406 Q484.875,912.9844 484.5313,913.3906 Q484.0313,913.9688 483.2344,914.2969 Q482.1563,914.75 480.8594,914.75 Q479.3438,914.75 478.1406,914.125 Q477.1563,913.625 476.4688,912.5625 Q475.7813,911.4844 475.7813,910.2031 L475.7813,909.0469 Q475.7813,907.7188 476.3906,906.5781 Q477.0156,905.4219 478.1094,904.8125 Q479.2031,904.1875 480.4375,904.1875 Q481.1719,904.1875 481.8125,904.3594 Q482.4688,904.5156 483.0156,904.875 Z " fill="#000000"/><text fill="#000000" font-family="sans-serif" font-size="14" lengthAdjust="spacing" textLength="141" x="500.75" y="914.7969">DecimalSetterActuator</text><line style="stroke:#181818;stroke-width:0.5;" x1="388.5" x2="721.5" y1="925" y2="925"/><rect fill="none" height="6" style="stroke:#C82930;stroke-width:1.0;" width="6" x="395.5" y="936.8105"/><text fill="#000000" font-family="sans-serif" font-size="14" lengthAdjust="spacing" textLength="133" x="407.5" y="944.1074">actuatorName: String</text><rect fill="none" height="6" style="stroke:#C82930;stroke-width:1.0;" width="6" x="395.5" y="955.4316"/><text fill="#000000" font-family="sans-serif" font-size="14" lengthAdjust="spacing" textLength="273" x="407.5" y="962.7285">actuatorFunctionality: ActuatorFunctionality</text><rect fill="none" height="6" style="stroke:#C82930;stroke-width:1.0;" width="6" x="395.5" y="974.0527"/><text fill="#000000" font-family="sans-serif" font-size="14" lengthAdjust="spacing" textLength="243" x="407.5" y="981.3496">actuatorProperties: ActuatorProperties</text><rect fill="none" height="6" style="stroke:#C82930;stroke-width:1.0;" width="6" x="395.5" y="992.6738"/><text fill="#000000" font-family="sans-serif" font-size="14" lengthAdjust="spacing" textLength="124" x="407.5" y="999.9707">targetValue: double</text><line style="stroke:#181818;stroke-width:0.5;" x1="388.5" x2="721.5" y1="1007.4844" y2="1007.4844"/><rect fill="#F24D5C" height="6" style="stroke:#C82930;stroke-width:1.0;" width="6" x="395.5" y="1028.6055"/><text fill="#000000" font-family="sans-serif" font-size="14" lengthAdjust="spacing" textLength="309" x="407.5" y="1026.5918">validConstructorArguments(String actuatorName,</text><text fill="#000000" font-family="sans-serif" font-size="14" lengthAdjust="spacing" textLength="303" x="411.5" y="1045.2129">ActuatorProperties actuatorProperties): boolean</text><ellipse cx="398.5" cy="1059.5371" fill="#84BE84" rx="3" ry="3" style="stroke:#038048;stroke-width:1.0;"/><text fill="#000000" font-family="sans-serif" font-size="14" lengthAdjust="spacing" textLength="159" x="407.5" y="1063.834">getTargetValue(): double</text><ellipse cx="398.5" cy="1078.1582" fill="#84BE84" rx="3" ry="3" style="stroke:#038048;stroke-width:1.0;"/><text fill="#000000" font-family="sans-serif" font-size="14" lengthAdjust="spacing" textLength="164" x="407.5" y="1082.4551">getActuatorName(): String</text><ellipse cx="398.5" cy="1096.7793" fill="#84BE84" rx="3" ry="3" style="stroke:#038048;stroke-width:1.0;"/><text fill="#000000" font-family="sans-serif" font-size="14" lengthAdjust="spacing" textLength="304" x="407.5" y="1101.0762">getActuatorFunctionality(): ActuatorFunctionality</text><ellipse cx="398.5" cy="1115.4004" fill="#84BE84" rx="3" ry="3" style="stroke:#038048;stroke-width:1.0;"/><text fill="#000000" font-family="sans-serif" font-size="14" lengthAdjust="spacing" textLength="255" x="407.5" y="1119.6973">setDecimalValue(double value): boolean</text></g><!--class SwitchActuator--><g id="elem_SwitchActuator"><rect codeLine="73" fill="#F1F1F1" height="178.3477" id="SwitchActuator" rx="2.5" ry="2.5" style="stroke:#181818;stroke-width:0.5;" width="354" x="758" y="921"/><ellipse cx="884.25" cy="937" fill="#ADD1B2" rx="11" ry="11" style="stroke:#181818;stroke-width:1.0;"/><path d="M887.0156,932.875 Q887.1719,932.6563 887.3594,932.5469 Q887.5469,932.4375 887.7656,932.4375 Q888.1406,932.4375 888.375,932.7031 Q888.6094,932.9531 888.6094,933.5625 L888.6094,935.0156 Q888.6094,935.625 888.375,935.8906 Q888.1406,936.1563 887.7656,936.1563 Q887.4219,936.1563 887.2188,935.9531 Q887.0156,935.7656 886.9063,935.25 Q886.8594,934.8906 886.6719,934.7031 Q886.3438,934.3281 885.7344,934.1094 Q885.125,933.8906 884.5,933.8906 Q883.7344,933.8906 883.0938,934.2188 Q882.4688,934.5469 881.9688,935.2969 Q881.4844,936.0469 881.4844,937.0781 L881.4844,938.1719 Q881.4844,939.4063 882.375,940.2344 Q883.2656,941.0469 884.8594,941.0469 Q885.7969,941.0469 886.4531,940.7969 Q886.8438,940.6406 887.2656,940.2031 Q887.5313,939.9375 887.6719,939.8594 Q887.8281,939.7813 888.0313,939.7813 Q888.3594,939.7813 888.6094,940.0469 Q888.875,940.2969 888.875,940.6406 Q888.875,940.9844 888.5313,941.3906 Q888.0313,941.9688 887.2344,942.2969 Q886.1563,942.75 884.8594,942.75 Q883.3438,942.75 882.1406,942.125 Q881.1563,941.625 880.4688,940.5625 Q879.7813,939.4844 879.7813,938.2031 L879.7813,937.0469 Q879.7813,935.7188 880.3906,934.5781 Q881.0156,933.4219 882.1094,932.8125 Q883.2031,932.1875 884.4375,932.1875 Q885.1719,932.1875 885.8125,932.3594 Q886.4688,932.5156 887.0156,932.875 Z " fill="#000000"/><text fill="#000000" font-family="sans-serif" font-size="14" lengthAdjust="spacing" textLength="93" x="904.75" y="942.7969">SwitchActuator</text><line style="stroke:#181818;stroke-width:0.5;" x1="759" x2="1111" y1="953" y2="953"/><rect fill="none" height="6" style="stroke:#C82930;stroke-width:1.0;" width="6" x="766" y="964.8105"/><text fill="#000000" font-family="sans-serif" font-size="14" lengthAdjust="spacing" textLength="133" x="778" y="972.1074">actuatorName: String</text><rect fill="none" height="6" style="stroke:#C82930;stroke-width:1.0;" width="6" x="766" y="983.4316"/><text fill="#000000" font-family="sans-serif" font-size="14" lengthAdjust="spacing" textLength="273" x="778" y="990.7285">actuatorFunctionality: ActuatorFunctionality</text><rect fill="none" height="6" style="stroke:#C82930;stroke-width:1.0;" width="6" x="766" y="1002.0527"/><text fill="#000000" font-family="sans-serif" font-size="14" lengthAdjust="spacing" textLength="86" x="778" y="1009.3496">status: Status</text><rect fill="none" height="6" style="stroke:#C82930;stroke-width:1.0;" width="6" x="766" y="1020.6738"/><text fill="#000000" font-family="sans-serif" font-size="14" lengthAdjust="spacing" textLength="243" x="778" y="1027.9707">actuatorProperties: ActuatorProperties</text><line style="stroke:#181818;stroke-width:0.5;" x1="759" x2="1111" y1="1035.4844" y2="1035.4844"/><ellipse cx="769" cy="1050.2949" fill="#84BE84" rx="3" ry="3" style="stroke:#038048;stroke-width:1.0;"/><text fill="#000000" font-family="sans-serif" font-size="14" lengthAdjust="spacing" textLength="164" x="778" y="1054.5918">getActuatorName(): String</text><ellipse cx="769" cy="1068.916" fill="#84BE84" rx="3" ry="3" style="stroke:#038048;stroke-width:1.0;"/><text fill="#000000" font-family="sans-serif" font-size="14" lengthAdjust="spacing" textLength="304" x="778" y="1073.2129">getActuatorFunctionality(): ActuatorFunctionality</text><ellipse cx="769" cy="1087.5371" fill="#84BE84" rx="3" ry="3" style="stroke:#038048;stroke-width:1.0;"/><text fill="#000000" font-family="sans-serif" font-size="14" lengthAdjust="spacing" textLength="328" x="778" y="1091.834">setActuatorSpecificValue(int specificValue): boolean</text></g><!--class IntegerSetterActuator--><g id="elem_IntegerSetterActuator"><rect codeLine="84" fill="#F1F1F1" height="178.3477" id="IntegerSetterActuator" rx="2.5" ry="2.5" style="stroke:#181818;stroke-width:0.5;" width="642" x="1147" y="921"/><ellipse cx="1396.25" cy="937" fill="#ADD1B2" rx="11" ry="11" style="stroke:#181818;stroke-width:1.0;"/><path d="M1399.0156,932.875 Q1399.1719,932.6563 1399.3594,932.5469 Q1399.5469,932.4375 1399.7656,932.4375 Q1400.1406,932.4375 1400.375,932.7031 Q1400.6094,932.9531 1400.6094,933.5625 L1400.6094,935.0156 Q1400.6094,935.625 1400.375,935.8906 Q1400.1406,936.1563 1399.7656,936.1563 Q1399.4219,936.1563 1399.2188,935.9531 Q1399.0156,935.7656 1398.9063,935.25 Q1398.8594,934.8906 1398.6719,934.7031 Q1398.3438,934.3281 1397.7344,934.1094 Q1397.125,933.8906 1396.5,933.8906 Q1395.7344,933.8906 1395.0938,934.2188 Q1394.4688,934.5469 1393.9688,935.2969 Q1393.4844,936.0469 1393.4844,937.0781 L1393.4844,938.1719 Q1393.4844,939.4063 1394.375,940.2344 Q1395.2656,941.0469 1396.8594,941.0469 Q1397.7969,941.0469 1398.4531,940.7969 Q1398.8438,940.6406 1399.2656,940.2031 Q1399.5313,939.9375 1399.6719,939.8594 Q1399.8281,939.7813 1400.0313,939.7813 Q1400.3594,939.7813 1400.6094,940.0469 Q1400.875,940.2969 1400.875,940.6406 Q1400.875,940.9844 1400.5313,941.3906 Q1400.0313,941.9688 1399.2344,942.2969 Q1398.1563,942.75 1396.8594,942.75 Q1395.3438,942.75 1394.1406,942.125 Q1393.1563,941.625 1392.4688,940.5625 Q1391.7813,939.4844 1391.7813,938.2031 L1391.7813,937.0469 Q1391.7813,935.7188 1392.3906,934.5781 Q1393.0156,933.4219 1394.1094,932.8125 Q1395.2031,932.1875 1396.4375,932.1875 Q1397.1719,932.1875 1397.8125,932.3594 Q1398.4688,932.5156 1399.0156,932.875 Z " fill="#000000"/><text fill="#000000" font-family="sans-serif" font-size="14" lengthAdjust="spacing" textLength="135" x="1416.75" y="942.7969">IntegerSetterActuator</text><line style="stroke:#181818;stroke-width:0.5;" x1="1148" x2="1788" y1="953" y2="953"/><rect fill="none" height="6" style="stroke:#C82930;stroke-width:1.0;" width="6" x="1155" y="964.8105"/><text fill="#000000" font-family="sans-serif" font-size="14" lengthAdjust="spacing" textLength="133" x="1167" y="972.1074">actuatorName: String</text><rect fill="none" height="6" style="stroke:#C82930;stroke-width:1.0;" width="6" x="1155" y="983.4316"/><text fill="#000000" font-family="sans-serif" font-size="14" lengthAdjust="spacing" textLength="273" x="1167" y="990.7285">actuatorFunctionality: ActuatorFunctionality</text><rect fill="none" height="6" style="stroke:#C82930;stroke-width:1.0;" width="6" x="1155" y="1002.0527"/><text fill="#000000" font-family="sans-serif" font-size="14" lengthAdjust="spacing" textLength="243" x="1167" y="1009.3496">actuatorProperties: ActuatorProperties</text><line style="stroke:#181818;stroke-width:0.5;" x1="1148" x2="1788" y1="1016.8633" y2="1016.8633"/><rect fill="#F24D5C" height="6" style="stroke:#C82930;stroke-width:1.0;" width="6" x="1155" y="1028.6738"/><text fill="#000000" font-family="sans-serif" font-size="14" lengthAdjust="spacing" textLength="616" x="1167" y="1035.9707">validConstructorArguments(String actuatorName, ActuatorProperties actuatorProperties): boolean</text><ellipse cx="1158" cy="1050.2949" fill="#84BE84" rx="3" ry="3" style="stroke:#038048;stroke-width:1.0;"/><text fill="#000000" font-family="sans-serif" font-size="14" lengthAdjust="spacing" textLength="164" x="1167" y="1054.5918">getActuatorName(): String</text><ellipse cx="1158" cy="1068.916" fill="#84BE84" rx="3" ry="3" style="stroke:#038048;stroke-width:1.0;"/><text fill="#000000" font-family="sans-serif" font-size="14" lengthAdjust="spacing" textLength="304" x="1167" y="1073.2129">getActuatorFunctionality(): ActuatorFunctionality</text><ellipse cx="1158" cy="1087.5371" fill="#84BE84" rx="3" ry="3" style="stroke:#038048;stroke-width:1.0;"/><text fill="#000000" font-family="sans-serif" font-size="14" lengthAdjust="spacing" textLength="336" x="1167" y="1091.834">setActuatorSpecificValue(int specificInteger): boolean</text></g><!--class ActuatorFunctionality--><g id="elem_ActuatorFunctionality"><rect codeLine="1" fill="#F1F1F1" height="122.4844" id="ActuatorFunctionality" rx="2.5" ry="2.5" style="stroke:#181818;stroke-width:0.5;" width="173" x="657.5" y="1208"/><ellipse cx="676.1" cy="1224" fill="#EB937F" rx="11" ry="11" style="stroke:#181818;stroke-width:1.0;"/><path d="M674.9594,1224.7969 L674.9594,1227.2969 L679.2875,1227.2969 L679.2875,1226.375 Q679.2875,1225.7656 679.5219,1225.5 Q679.7719,1225.2344 680.1469,1225.2344 Q680.5219,1225.2344 680.7563,1225.5 Q680.9906,1225.7656 680.9906,1226.375 L680.9906,1229 L672.9906,1229 Q672.3656,1229 672.1,1228.7656 Q671.85,1228.5313 671.85,1228.1406 Q671.85,1227.7656 672.1156,1227.5313 Q672.3813,1227.2969 672.9906,1227.2969 L673.2563,1227.2969 L673.2563,1220.6406 L672.9906,1220.6406 Q672.3656,1220.6406 672.1,1220.4063 Q671.85,1220.1719 671.85,1219.7813 Q671.85,1219.4063 672.1,1219.1719 Q672.3656,1218.9375 672.9906,1218.9375 L680.6156,1218.9375 L680.6156,1221.5313 Q680.6156,1222.1406 680.3813,1222.4063 Q680.1625,1222.6563 679.7719,1222.6563 Q679.3969,1222.6563 679.1625,1222.4063 Q678.9281,1222.1406 678.9281,1221.5313 L678.9281,1220.6406 L674.9594,1220.6406 L674.9594,1223.0938 L676.4438,1223.0938 Q676.4438,1222.4375 676.5688,1222.25 Q676.8344,1221.8438 677.3031,1221.8438 Q677.6781,1221.8438 677.9125,1222.1094 Q678.1469,1222.3594 678.1469,1222.9688 L678.1469,1224.9375 Q678.1469,1225.4844 678.0219,1225.6719 Q677.7563,1226.0625 677.3031,1226.0625 Q676.8344,1226.0625 676.5688,1225.6563 Q676.4438,1225.4688 676.4438,1224.7969 L674.9594,1224.7969 Z " fill="#000000"/><text fill="#000000" font-family="sans-serif" font-size="14" lengthAdjust="spacing" textLength="133" x="690.9" y="1229.7969">ActuatorFunctionality</text><line style="stroke:#181818;stroke-width:0.5;" x1="658.5" x2="829.5" y1="1240" y2="1240"/><text fill="#000000" font-family="sans-serif" font-size="14" lengthAdjust="spacing" textLength="114" x="663.5" y="1259.1074">BINARY_SWITCH,</text><text fill="#000000" font-family="sans-serif" font-size="14" lengthAdjust="spacing" textLength="161" x="663.5" y="1277.7285">PERCENTAGE_SETTER,</text><text fill="#000000" font-family="sans-serif" font-size="14" lengthAdjust="spacing" textLength="127" x="663.5" y="1296.3496">INTEGER_SETTER,</text><text fill="#000000" font-family="sans-serif" font-size="14" lengthAdjust="spacing" textLength="123" x="663.5" y="1314.9707">DECIMAL_SETTER</text><line style="stroke:#181818;stroke-width:0.5;" x1="658.5" x2="829.5" y1="1322.4844" y2="1322.4844"/></g><!--class Actuator--><g id="elem_Actuator"><rect codeLine="8" fill="#F1F1F1" height="85.2422" id="Actuator" rx="2.5" ry="2.5" style="stroke:#181818;stroke-width:0.5;" width="330" x="579" y="596"/><ellipse cx="713.25" cy="612" fill="#B4A7E5" rx="11" ry="11" style="stroke:#181818;stroke-width:1.0;"/><path d="M714.2031,608.6406 L714.2031,615.2969 L715.9219,615.2969 Q716.5313,615.2969 716.7969,615.5313 Q717.0625,615.7656 717.0625,616.1563 Q717.0625,616.5313 716.7969,616.7656 Q716.5313,617 715.9219,617 L710.7813,617 Q710.1719,617 709.9063,616.7656 Q709.6406,616.5313 709.6406,616.1406 Q709.6406,615.7656 709.9063,615.5313 Q710.1719,615.2969 710.7813,615.2969 L712.5,615.2969 L712.5,608.6406 L710.7813,608.6406 Q710.1719,608.6406 709.9063,608.4063 Q709.6406,608.1719 709.6406,607.7813 Q709.6406,607.4063 709.9063,607.1719 Q710.1719,606.9375 710.7813,606.9375 L715.9219,606.9375 Q716.5313,606.9375 716.7969,607.1719 Q717.0625,607.4063 717.0625,607.7813 Q717.0625,608.1719 716.7969,608.4063 Q716.5313,608.6406 715.9219,608.6406 L714.2031,608.6406 Z " fill="#000000"/><text fill="#000000" font-family="sans-serif" font-size="14" font-style="italic" lengthAdjust="spacing" textLength="53" x="733.75" y="617.7969">Actuator</text><line style="stroke:#181818;stroke-width:0.5;" x1="580" x2="908" y1="628" y2="628"/><line style="stroke:#181818;stroke-width:0.5;" x1="580" x2="908" y1="636" y2="636"/><ellipse cx="590" cy="650.8105" fill="#84BE84" rx="3" ry="3" style="stroke:#038048;stroke-width:1.0;"/><text fill="#000000" font-family="sans-serif" font-size="14" lengthAdjust="spacing" textLength="164" x="599" y="655.1074">getActuatorName(): String</text><ellipse cx="590" cy="669.4316" fill="#84BE84" rx="3" ry="3" style="stroke:#038048;stroke-width:1.0;"/><text fill="#000000" font-family="sans-serif" font-size="14" lengthAdjust="spacing" textLength="304" x="599" y="673.7285">getActuatorFunctionality(): ActuatorFunctionality</text></g><!--class ActuatorCatalogue--><g id="elem_ActuatorCatalogue"><rect codeLine="13" fill="#F1F1F1" height="159.7266" id="ActuatorCatalogue" rx="2.5" ry="2.5" style="stroke:#181818;stroke-width:0.5;" width="472" x="766" y="357"/><ellipse cx="938.75" cy="373" fill="#ADD1B2" rx="11" ry="11" style="stroke:#181818;stroke-width:1.0;"/><path d="M941.5156,368.875 Q941.6719,368.6563 941.8594,368.5469 Q942.0469,368.4375 942.2656,368.4375 Q942.6406,368.4375 942.875,368.7031 Q943.1094,368.9531 943.1094,369.5625 L943.1094,371.0156 Q943.1094,371.625 942.875,371.8906 Q942.6406,372.1563 942.2656,372.1563 Q941.9219,372.1563 941.7188,371.9531 Q941.5156,371.7656 941.4063,371.25 Q941.3594,370.8906 941.1719,370.7031 Q940.8438,370.3281 940.2344,370.1094 Q939.625,369.8906 939,369.8906 Q938.2344,369.8906 937.5938,370.2188 Q936.9688,370.5469 936.4688,371.2969 Q935.9844,372.0469 935.9844,373.0781 L935.9844,374.1719 Q935.9844,375.4063 936.875,376.2344 Q937.7656,377.0469 939.3594,377.0469 Q940.2969,377.0469 940.9531,376.7969 Q941.3438,376.6406 941.7656,376.2031 Q942.0313,375.9375 942.1719,375.8594 Q942.3281,375.7813 942.5313,375.7813 Q942.8594,375.7813 943.1094,376.0469 Q943.375,376.2969 943.375,376.6406 Q943.375,376.9844 943.0313,377.3906 Q942.5313,377.9688 941.7344,378.2969 Q940.6563,378.75 939.3594,378.75 Q937.8438,378.75 936.6406,378.125 Q935.6563,377.625 934.9688,376.5625 Q934.2813,375.4844 934.2813,374.2031 L934.2813,373.0469 Q934.2813,371.7188 934.8906,370.5781 Q935.5156,369.4219 936.6094,368.8125 Q937.7031,368.1875 938.9375,368.1875 Q939.6719,368.1875 940.3125,368.3594 Q940.9688,368.5156 941.5156,368.875 Z " fill="#000000"/><text fill="#000000" font-family="sans-serif" font-size="14" lengthAdjust="spacing" textLength="118" x="959.25" y="378.7969">ActuatorCatalogue</text><line style="stroke:#181818;stroke-width:0.5;" x1="767" x2="1237" y1="389" y2="389"/><rect fill="none" height="6" style="stroke:#C82930;stroke-width:1.0;" width="6" x="774" y="400.8105"/><text fill="#000000" font-family="sans-serif" font-size="14" lengthAdjust="spacing" textLength="185" x="786" y="408.1074">actuatorClasses: List&lt;String&gt;</text><line style="stroke:#181818;stroke-width:0.5;" x1="767" x2="1237" y1="415.6211" y2="415.6211"/><rect fill="#F24D5C" height="6" style="stroke:#C82930;stroke-width:1.0;" width="6" x="774" y="427.4316"/><text fill="#000000" font-family="sans-serif" font-size="14" lengthAdjust="spacing" textLength="200" x="786" y="434.7285">loadConfig(String filePath): void</text><ellipse cx="777" cy="458.3633" fill="#84BE84" rx="3" ry="3" style="stroke:#038048;stroke-width:1.0;"/><text fill="#000000" font-family="sans-serif" font-size="14" lengthAdjust="spacing" textLength="328" x="786" y="453.3496">createActuatorFromCatalogue(String actuatorClass,</text><text fill="#000000" font-family="sans-serif" font-size="14" lengthAdjust="spacing" textLength="442" x="790" y="471.9707">String actuatorName, ActuatorProperties actuatorProperties): Actuator</text><rect fill="#F24D5C" height="6" style="stroke:#C82930;stroke-width:1.0;" width="6" x="774" y="483.2949"/><text fill="#000000" font-family="sans-serif" font-size="14" lengthAdjust="spacing" textLength="294" x="786" y="490.5918">isActuatorInList(String actuatorName): boolean</text><ellipse cx="777" cy="504.916" fill="#84BE84" rx="3" ry="3" style="stroke:#038048;stroke-width:1.0;"/><text fill="#000000" font-family="sans-serif" font-size="14" lengthAdjust="spacing" textLength="216" x="786" y="509.2129">getActuatorClasses(): List&lt;String&gt;</text></g><!--class Device--><g id="elem_Device"><rect codeLine="22" fill="#F1F1F1" height="271.4531" id="Device" rx="2.5" ry="2.5" style="stroke:#181818;stroke-width:0.5;" width="405" x="465.5" y="7"/><ellipse cx="642.25" cy="23" fill="#ADD1B2" rx="11" ry="11" style="stroke:#181818;stroke-width:1.0;"/><path d="M645.0156,18.875 Q645.1719,18.6563 645.3594,18.5469 Q645.5469,18.4375 645.7656,18.4375 Q646.1406,18.4375 646.375,18.7031 Q646.6094,18.9531 646.6094,19.5625 L646.6094,21.0156 Q646.6094,21.625 646.375,21.8906 Q646.1406,22.1563 645.7656,22.1563 Q645.4219,22.1563 645.2188,21.9531 Q645.0156,21.7656 644.9063,21.25 Q644.8594,20.8906 644.6719,20.7031 Q644.3438,20.3281 643.7344,20.1094 Q643.125,19.8906 642.5,19.8906 Q641.7344,19.8906 641.0938,20.2188 Q640.4688,20.5469 639.9688,21.2969 Q639.4844,22.0469 639.4844,23.0781 L639.4844,24.1719 Q639.4844,25.4063 640.375,26.2344 Q641.2656,27.0469 642.8594,27.0469 Q643.7969,27.0469 644.4531,26.7969 Q644.8438,26.6406 645.2656,26.2031 Q645.5313,25.9375 645.6719,25.8594 Q645.8281,25.7813 646.0313,25.7813 Q646.3594,25.7813 646.6094,26.0469 Q646.875,26.2969 646.875,26.6406 Q646.875,26.9844 646.5313,27.3906 Q646.0313,27.9688 645.2344,28.2969 Q644.1563,28.75 642.8594,28.75 Q641.3438,28.75 640.1406,28.125 Q639.1563,27.625 638.4688,26.5625 Q637.7813,25.4844 637.7813,24.2031 L637.7813,23.0469 Q637.7813,21.7188 638.3906,20.5781 Q639.0156,19.4219 640.1094,18.8125 Q641.2031,18.1875 642.4375,18.1875 Q643.1719,18.1875 643.8125,18.3594 Q644.4688,18.5156 645.0156,18.875 Z " fill="#000000"/><text fill="#000000" font-family="sans-serif" font-size="14" lengthAdjust="spacing" textLength="43" x="662.75" y="28.7969">Device</text><line style="stroke:#181818;stroke-width:0.5;" x1="466.5" x2="869.5" y1="39" y2="39"/><rect fill="none" height="6" style="stroke:#C82930;stroke-width:1.0;" width="6" x="473.5" y="50.8105"/><text fill="#000000" font-family="sans-serif" font-size="14" lengthAdjust="spacing" textLength="122" x="485.5" y="58.1074">deviceName: String</text><rect fill="none" height="6" style="stroke:#C82930;stroke-width:1.0;" width="6" x="473.5" y="69.4316"/><text fill="#000000" font-family="sans-serif" font-size="14" lengthAdjust="spacing" textLength="124" x="485.5" y="76.7285">deviceModel: String</text><rect fill="none" height="6" style="stroke:#C82930;stroke-width:1.0;" width="6" x="473.5" y="88.0527"/><text fill="#000000" font-family="sans-serif" font-size="14" lengthAdjust="spacing" textLength="86" x="485.5" y="95.3496">status: Status</text><rect fill="none" height="6" style="stroke:#C82930;stroke-width:1.0;" width="6" x="473.5" y="106.6738"/><text fill="#000000" font-family="sans-serif" font-size="14" lengthAdjust="spacing" textLength="156" x="485.5" y="113.9707">sensorList: List&lt;Sensor&gt;</text><rect fill="none" height="6" style="stroke:#C82930;stroke-width:1.0;" width="6" x="473.5" y="125.2949"/><text fill="#000000" font-family="sans-serif" font-size="14" lengthAdjust="spacing" textLength="173" x="485.5" y="132.5918">actuatorList: List&lt;Actuator&gt;</text><line style="stroke:#181818;stroke-width:0.5;" x1="466.5" x2="869.5" y1="140.1055" y2="140.1055"/><ellipse cx="476.5" cy="154.916" fill="#84BE84" rx="3" ry="3" style="stroke:#038048;stroke-width:1.0;"/><text fill="#000000" font-family="sans-serif" font-size="14" lengthAdjust="spacing" textLength="154" x="485.5" y="159.2129">getDeviceName(): String</text><ellipse cx="476.5" cy="173.5371" fill="#84BE84" rx="3" ry="3" style="stroke:#038048;stroke-width:1.0;"/><text fill="#000000" font-family="sans-serif" font-size="14" lengthAdjust="spacing" textLength="156" x="485.5" y="177.834">getDeviceModel(): String</text><ellipse cx="476.5" cy="192.1582" fill="#84BE84" rx="3" ry="3" style="stroke:#038048;stroke-width:1.0;"/><text fill="#000000" font-family="sans-serif" font-size="14" lengthAdjust="spacing" textLength="204" x="485.5" y="196.4551">getActuatorList(): List&lt;Actuator&gt;</text><ellipse cx="476.5" cy="229.4004" fill="#84BE84" rx="3" ry="3" style="stroke:#038048;stroke-width:1.0;"/><text fill="#000000" font-family="sans-serif" font-size="14" lengthAdjust="spacing" textLength="341" x="485.5" y="215.0762">createActuatorAndAddToDevice(String actuatorName,</text><text fill="#000000" font-family="sans-serif" font-size="14" lengthAdjust="spacing" textLength="375" x="489.5" y="233.6973">ActuatorCatalogue actuatorCatalogue, String actuatorClass</text><text fill="#000000" font-family="sans-serif" font-size="14" lengthAdjust="spacing" textLength="305" x="489.5" y="252.3184">ActuatorProperties actuatorProperties): Actuator</text><rect fill="#F24D5C" height="6" style="stroke:#C82930;stroke-width:1.0;" width="6" x="473.5" y="263.6426"/><text fill="#000000" font-family="sans-serif" font-size="14" lengthAdjust="spacing" textLength="294" x="485.5" y="270.9395">isActuatorInList(String actuatorName): boolean</text></g><!--link ActuatorCatalogue to Actuator--><g id="link_ActuatorCatalogue_Actuator"><path codeLine="20" d="M899.66,517.13 C864.91,544 832.2059,569.289 802.7559,592.069 " fill="none" id="ActuatorCatalogue-to-Actuator" style="stroke:#181818;stroke-width:1.0;stroke-dasharray:7.0,7.0;"/><polygon fill="#181818" points="798.01,595.74,807.5762,593.3974,801.9649,592.6808,802.6815,587.0695,798.01,595.74" style="stroke:#181818;stroke-width:1.0;"/><text fill="#000000" font-family="sans-serif" font-size="13" lengthAdjust="spacing" textLength="196" x="858" y="562.0283">&#171;creates classes that implement&#187;</text></g><!--link Device to ActuatorCatalogue--><g id="link_Device_ActuatorCatalogue"><path codeLine="36" d="M821.8,278.19 C852.45,305.03 879.1762,328.4371 906.8562,352.6771 " fill="none" id="Device-to-ActuatorCatalogue" style="stroke:#181818;stroke-width:1.0;stroke-dasharray:7.0,7.0;"/><polygon fill="#181818" points="911.37,356.63,907.2345,347.6915,907.6085,353.3359,901.964,353.7099,911.37,356.63" style="stroke:#181818;stroke-width:1.0;"/><text fill="#000000" font-family="sans-serif" font-size="13" lengthAdjust="spacing" textLength="42" x="875" y="323.0283">&#171;uses&#187;</text></g><!--link Device to Actuator--><g id="link_Device_Actuator"><path codeLine="37" d="M642.46,278.39 C634.06,350.8 632.31,440.61 657,517 C666.41,546.09 685.74,574.07 703.81,595.73 " fill="none" id="Device-Actuator" style="stroke:#181818;stroke-width:1.0;"/><text fill="#000000" font-family="sans-serif" font-size="13" lengthAdjust="spacing" textLength="70" x="668" y="434.0283">has classes</text><text fill="#000000" font-family="sans-serif" font-size="13" lengthAdjust="spacing" textLength="86" x="662" y="451.3193">that implement</text><text fill="#000000" font-family="sans-serif" font-size="13" lengthAdjust="spacing" textLength="7" x="633.8719" y="300.3102">1</text><text fill="#000000" font-family="sans-serif" font-size="13" lengthAdjust="spacing" textLength="20" x="675.811" y="584.5911">0..*</text></g><!--reverse link ActuatorSpecificDecimal to BlindSetterActuator--><g id="link_ActuatorSpecificDecimal_BlindSetterActuator"><path d="M470.3502,840.0686 C435.1102,857.3586 407.86,871.5 370,893 C359.61,898.9 348.99,905.12 338.35,911.49 " fill="none" id="ActuatorSpecificDecimal-backto-BlindSetterActuator" style="stroke:#181818;stroke-width:1.0;stroke-dasharray:7.0,7.0;"/><polygon fill="none" points="486.51,832.14,467.7074,834.682,472.9931,845.4551,486.51,832.14" style="stroke:#181818;stroke-width:1.0;"/></g><!--link BlindSetterActuator to ActuatorFunctionality--><g id="link_BlindSetterActuator_ActuatorFunctionality"><path codeLine="58" d="M302.05,1108.53 C323.75,1124.12 346.91,1139.04 370,1151 C463.02,1199.21 579.47,1231.75 657.5,1250.04 " fill="none" id="BlindSetterActuator-ActuatorFunctionality" style="stroke:#181818;stroke-width:1.0;"/><text fill="#000000" font-family="sans-serif" font-size="13" lengthAdjust="spacing" textLength="21" x="428" y="1174.0283">has</text></g><!--reverse link ActuatorSpecificDecimal to DecimalSetterActuator--><g id="link_ActuatorSpecificDecimal_DecimalSetterActuator"><path d="M555,850.23 C555,867.04 555,870.63 555,892.92 " fill="none" id="ActuatorSpecificDecimal-backto-DecimalSetterActuator" style="stroke:#181818;stroke-width:1.0;stroke-dasharray:7.0,7.0;"/><polygon fill="none" points="555,832.23,549,850.23,561,850.23,555,832.23" style="stroke:#181818;stroke-width:1.0;"/></g><!--link DecimalSetterActuator to ActuatorFunctionality--><g id="link_DecimalSetterActuator_ActuatorFunctionality"><path codeLine="71" d="M640.38,1127.09 C660.92,1155.03 682.04,1183.75 699.82,1207.92 " fill="none" id="DecimalSetterActuator-ActuatorFunctionality" style="stroke:#181818;stroke-width:1.0;"/><text fill="#000000" font-family="sans-serif" font-size="13" lengthAdjust="spacing" textLength="21" x="678" y="1174.0283">has</text></g><!--reverse link ActuatorSpecificInteger to SwitchActuator--><g id="link_ActuatorSpecificInteger_SwitchActuator"><path d="M935,850.23 C935,874.06 935,889.51 935,920.91 " fill="none" id="ActuatorSpecificInteger-backto-SwitchActuator" style="stroke:#181818;stroke-width:1.0;stroke-dasharray:7.0,7.0;"/><polygon fill="none" points="935,832.23,929,850.23,941,850.23,935,832.23" style="stroke:#181818;stroke-width:1.0;"/></g><!--link SwitchActuator to ActuatorFunctionality--><g id="link_SwitchActuator_ActuatorFunctionality"><path codeLine="82" d="M869.54,1099.09 C842.86,1134.98 812.71,1175.55 788.64,1207.93 " fill="none" id="SwitchActuator-ActuatorFunctionality" style="stroke:#181818;stroke-width:1.0;"/><text fill="#000000" font-family="sans-serif" font-size="13" lengthAdjust="spacing" textLength="21" x="823" y="1174.0283">has</text></g><!--reverse link ActuatorSpecificInteger to IntegerSetterActuator--><g id="link_ActuatorSpecificInteger_IntegerSetterActuator"><path d="M1034.4521,838.5854 C1095.1221,862.4354 1163.83,889.44 1244.01,920.96 " fill="none" id="ActuatorSpecificInteger-backto-IntegerSetterActuator" style="stroke:#181818;stroke-width:1.0;stroke-dasharray:7.0,7.0;"/><polygon fill="none" points="1017.7,832,1032.2569,844.1694,1036.6472,833.0014,1017.7,832" style="stroke:#181818;stroke-width:1.0;"/></g><!--link IntegerSetterActuator to ActuatorFunctionality--><g id="link_IntegerSetterActuator_ActuatorFunctionality"><path codeLine="93" d="M1264.6,1099.03 C1220.53,1117.04 1173.96,1135.28 1130,1151 C1028.46,1187.32 909.4,1222.28 830.65,1244.38 " fill="none" id="IntegerSetterActuator-ActuatorFunctionality" style="stroke:#181818;stroke-width:1.0;"/><text fill="#000000" font-family="sans-serif" font-size="13" lengthAdjust="spacing" textLength="21" x="1100" y="1174.0283">has</text></g><!--reverse link Actuator to ActuatorSpecificDecimal--><g id="link_Actuator_ActuatorSpecificDecimal"><path codeLine="96" d="M680.5297,692.5545 C649.1397,718.7945 622.97,740.68 593.89,764.99 " fill="none" id="Actuator-backto-ActuatorSpecificDecimal" style="stroke:#181818;stroke-width:1.0;"/><polygon fill="none" points="694.34,681.01,676.6815,687.9511,684.3779,697.1579,694.34,681.01" style="stroke:#181818;stroke-width:1.0;"/></g><!--reverse link Actuator to ActuatorSpecificInteger--><g id="link_Actuator_ActuatorSpecificInteger"><path codeLine="97" d="M808.0495,692.4834 C839.7695,718.7234 866.31,740.68 895.7,764.99 " fill="none" id="Actuator-backto-ActuatorSpecificInteger" style="stroke:#181818;stroke-width:1.0;"/><polygon fill="none" points="794.18,681.01,804.225,697.1065,811.8739,687.8602,794.18,681.01" style="stroke:#181818;stroke-width:1.0;"/></g><!--SRC=[rLPHRzem47xdLrWyqHNGzXeXf1Io3gb55KIT9bMgtCG4Qy56iSCqRVtlEoUEiKE0K8c7yGAvE_lklk-x2uJb6-H7CiUIPrzp5adA6Kwf_8t-T11yxcPpV_7ZTVbz5aw-zGlJKx2O1FFGlmzUbq4O1elIF9k7mNsmS6pJO39xz1-qhVFUwL0cIRR24J5P8T4jIeYidkTuGtet7bhAZBB4zJaLgg16XyeJfLW8uvvWYLEUv0II3H2kh2g620yzK257PRun-5EEumbdAvhqIYDQqPGyORc6Z3jEOoWgoWYMnAJF-CRag0uvQVel3DNigj6-AV4furkIIKg42TYRh4wXFYggXnbJfVSQBeOJRvod13CNGTspmixf-hrpYDLmE3PfFJGQbJqB59Lt8Bd64j7DDYKRmkHuNA4-9JiQbL37nKzLa26qCZxocAIMLKWiSw4CwbiP21CyKrLMjHQ6iSMWvQmA7PVzJatYkfQc- -p7P5Q0UjDmiSkwps8_ZaDUtjZ4WcBz45TSj_HHasIiizSJ1unAH_DbqsrAyqQZ7BW6SdLKzqiN3GQe-tau_DIrvB76HXXGk2iDoB75qK-Sx7iNUhySxeFbbaHqHQCfV6rmgkDkGGvIcvvn2bCMy_mj9MYd7go6L30qTVhk6NWIajbtrqEA9AW7To3XdcfELah_BgKiNX89YSr-Cp28CpqE79ACD5sNi-cEBS3oIArkJm5Ikssl8gz1R1gTuylvmDzoGPz6_OMrWhruFJNW3Uhqcy42ZTfaQVGlfkiwR5r0oG19d07g1LeUAYT1Us0Ug7fx2PdbaLfIMP8NtPpRJ-TsZ0r-mNcuhq4nRLLnLScqNmB5Fv16ZbjBPFcBocZTHXjQfLUQPFVT-1_Ci3F1pqVfgU5xb9SQBHhizfFhBlp1SNOk9-UIkRriE3ysccUO_Y3HhNW-jQcRAJizYF1gDP6ZlrPiRI6VYTAfuL_8Fm00]--></g></svg>