<?xml version="1.0" encoding="us-ascii" standalone="no"?><svg xmlns="http://www.w3.org/2000/svg" xmlns:xlink="http://www.w3.org/1999/xlink" contentStyleType="text/css" height="886px" preserveAspectRatio="none" style="width:683px;height:886px;background:#FFFFFF;" version="1.1" viewBox="0 0 683 886" width="683px" zoomAndPan="magnify"><defs/><g><!--cluster sensors--><g id="cluster_sensors"><path d="M8.5,6.0137 L66.5,6.0137 A3.75,3.75 0 0 1 69,8.5137 L76,30.6348 L673.5,30.6348 A2.5,2.5 0 0 1 676,33.1348 L676,876.5137 A2.5,2.5 0 0 1 673.5,879.0137 L8.5,879.0137 A2.5,2.5 0 0 1 6,876.5137 L6,8.5137 A2.5,2.5 0 0 1 8.5,6.0137 " fill="none" style="stroke:#000000;stroke-width:1.5;"/><line style="stroke:#000000;stroke-width:1.5;" x1="6" x2="76" y1="30.6348" y2="30.6348"/><text fill="#000000" font-family="sans-serif" font-size="14" font-weight="bold" lengthAdjust="spacing" textLength="57" x="10" y="23.1211">sensors</text></g><!--class ElectricEnergyConsumptionSensor--><g id="elem_ElectricEnergyConsumptionSensor"><rect codeLine="5" fill="#F1F1F1" height="252.832" id="ElectricEnergyConsumptionSensor" rx="2.5" ry="2.5" style="stroke:#181818;stroke-width:0.5;" width="251" x="381.5" y="43.0137"/><ellipse cx="396.5" cy="59.0137" fill="#ADD1B2" rx="11" ry="11" style="stroke:#181818;stroke-width:1.0;"/><path d="M399.2656,54.8887 Q399.4219,54.6699 399.6094,54.5605 Q399.7969,54.4512 400.0156,54.4512 Q400.3906,54.4512 400.625,54.7168 Q400.8594,54.9668 400.8594,55.5762 L400.8594,57.0293 Q400.8594,57.6387 400.625,57.9043 Q400.3906,58.1699 400.0156,58.1699 Q399.6719,58.1699 399.4688,57.9668 Q399.2656,57.7793 399.1563,57.2637 Q399.1094,56.9043 398.9219,56.7168 Q398.5938,56.3418 397.9844,56.123 Q397.375,55.9043 396.75,55.9043 Q395.9844,55.9043 395.3438,56.2324 Q394.7188,56.5605 394.2188,57.3105 Q393.7344,58.0605 393.7344,59.0918 L393.7344,60.1855 Q393.7344,61.4199 394.625,62.248 Q395.5156,63.0605 397.1094,63.0605 Q398.0469,63.0605 398.7031,62.8105 Q399.0938,62.6543 399.5156,62.2168 Q399.7813,61.9512 399.9219,61.873 Q400.0781,61.7949 400.2813,61.7949 Q400.6094,61.7949 400.8594,62.0605 Q401.125,62.3105 401.125,62.6543 Q401.125,62.998 400.7813,63.4043 Q400.2813,63.9824 399.4844,64.3105 Q398.4063,64.7637 397.1094,64.7637 Q395.5938,64.7637 394.3906,64.1387 Q393.4063,63.6387 392.7188,62.5762 Q392.0313,61.498 392.0313,60.2168 L392.0313,59.0605 Q392.0313,57.7324 392.6406,56.5918 Q393.2656,55.4355 394.3594,54.8262 Q395.4531,54.2012 396.6875,54.2012 Q397.4219,54.2012 398.0625,54.373 Q398.7188,54.5293 399.2656,54.8887 Z " fill="#000000"/><text fill="#000000" font-family="sans-serif" font-size="14" lengthAdjust="spacing" textLength="219" x="410.5" y="64.8105">ElectricEnergyConsumptionSensor</text><line style="stroke:#181818;stroke-width:0.5;" x1="382.5" x2="631.5" y1="75.0137" y2="75.0137"/><rect fill="none" height="6" style="stroke:#C82930;stroke-width:1.0;" width="6" x="389.5" y="86.8242"/><text fill="#000000" font-family="sans-serif" font-size="14" lengthAdjust="spacing" textLength="120" x="401.5" y="94.1211">String sensorName</text><rect fill="none" height="6" style="stroke:#C82930;stroke-width:1.0;" width="6" x="389.5" y="114.7559"/><text fill="#000000" font-family="sans-serif" font-size="14" lengthAdjust="spacing" textLength="125" x="401.5" y="112.7422">SensorFunctionality</text><text fill="#000000" font-family="sans-serif" font-size="14" lengthAdjust="spacing" textLength="123" x="405.5" y="131.3633">sensorFunctionality</text><rect fill="none" height="6" style="stroke:#C82930;stroke-width:1.0;" width="6" x="389.5" y="142.6875"/><text fill="#000000" font-family="sans-serif" font-size="14" lengthAdjust="spacing" textLength="74" x="401.5" y="149.9844">Value value</text><rect fill="none" height="6" style="stroke:#C82930;stroke-width:1.0;" width="6" x="389.5" y="161.3086"/><text fill="#000000" font-family="sans-serif" font-size="14" lengthAdjust="spacing" textLength="167" x="401.5" y="168.6055">FactoryValue factoryValue</text><line style="stroke:#181818;stroke-width:0.5;" x1="382.5" x2="631.5" y1="176.1191" y2="176.1191"/><ellipse cx="392.5" cy="190.9297" fill="#84BE84" rx="3" ry="3" style="stroke:#038048;stroke-width:1.0;"/><text fill="#000000" font-family="sans-serif" font-size="14" lengthAdjust="spacing" textLength="152" x="401.5" y="195.2266">getSensorName():String</text><ellipse cx="392.5" cy="218.8613" fill="#84BE84" rx="3" ry="3" style="stroke:#038048;stroke-width:1.0;"/><text fill="#000000" font-family="sans-serif" font-size="14" lengthAdjust="spacing" textLength="159" x="401.5" y="213.8477">getSensorFunctionality():</text><text fill="#000000" font-family="sans-serif" font-size="14" lengthAdjust="spacing" textLength="125" x="401.5" y="232.4688">SensorFunctionality</text><ellipse cx="392.5" cy="265.4141" fill="#84BE84" rx="3" ry="3" style="stroke:#038048;stroke-width:1.0;"/><text fill="#000000" font-family="sans-serif" font-size="14" lengthAdjust="spacing" textLength="170" x="401.5" y="251.0898">getValueForPeriodOfTime(</text><text fill="#000000" font-family="sans-serif" font-size="14" lengthAdjust="spacing" textLength="135" x="401.5" y="269.7109">Timestamp startDate,</text><text fill="#000000" font-family="sans-serif" font-size="14" lengthAdjust="spacing" textLength="173" x="405.5" y="288.332">Timestamp endDate):String</text></g><!--class FactoryValue--><g id="elem_FactoryValue"><rect codeLine="30" fill="#F1F1F1" height="159.7266" id="FactoryValue" rx="2.5" ry="2.5" style="stroke:#181818;stroke-width:0.5;" width="362" x="127" y="357.0137"/><ellipse cx="261.75" cy="373.0137" fill="#ADD1B2" rx="11" ry="11" style="stroke:#181818;stroke-width:1.0;"/><path d="M264.5156,368.8887 Q264.6719,368.6699 264.8594,368.5605 Q265.0469,368.4512 265.2656,368.4512 Q265.6406,368.4512 265.875,368.7168 Q266.1094,368.9668 266.1094,369.5762 L266.1094,371.0293 Q266.1094,371.6387 265.875,371.9043 Q265.6406,372.1699 265.2656,372.1699 Q264.9219,372.1699 264.7188,371.9668 Q264.5156,371.7793 264.4063,371.2637 Q264.3594,370.9043 264.1719,370.7168 Q263.8438,370.3418 263.2344,370.123 Q262.625,369.9043 262,369.9043 Q261.2344,369.9043 260.5938,370.2324 Q259.9688,370.5605 259.4688,371.3105 Q258.9844,372.0605 258.9844,373.0918 L258.9844,374.1855 Q258.9844,375.4199 259.875,376.248 Q260.7656,377.0605 262.3594,377.0605 Q263.2969,377.0605 263.9531,376.8105 Q264.3438,376.6543 264.7656,376.2168 Q265.0313,375.9512 265.1719,375.873 Q265.3281,375.7949 265.5313,375.7949 Q265.8594,375.7949 266.1094,376.0605 Q266.375,376.3105 266.375,376.6543 Q266.375,376.998 266.0313,377.4043 Q265.5313,377.9824 264.7344,378.3105 Q263.6563,378.7637 262.3594,378.7637 Q260.8438,378.7637 259.6406,378.1387 Q258.6563,377.6387 257.9688,376.5762 Q257.2813,375.498 257.2813,374.2168 L257.2813,373.0605 Q257.2813,371.7324 257.8906,370.5918 Q258.5156,369.4355 259.6094,368.8262 Q260.7031,368.2012 261.9375,368.2012 Q262.6719,368.2012 263.3125,368.373 Q263.9688,368.5293 264.5156,368.8887 Z " fill="#000000"/><text fill="#000000" font-family="sans-serif" font-size="14" lengthAdjust="spacing" textLength="84" x="282.25" y="378.8105">FactoryValue</text><line style="stroke:#181818;stroke-width:0.5;" x1="128" x2="488" y1="389.0137" y2="389.0137"/><line style="stroke:#181818;stroke-width:0.5;" x1="128" x2="488" y1="397.0137" y2="397.0137"/><ellipse cx="138" cy="421.1348" fill="#84BE84" rx="3" ry="3" style="stroke:#038048;stroke-width:1.0;"/><text fill="#000000" font-family="sans-serif" font-size="14" lengthAdjust="spacing" textLength="278" x="147" y="416.1211">createValueSpecificTime (String className,</text><text fill="#000000" font-family="sans-serif" font-size="14" lengthAdjust="spacing" textLength="200" x="151" y="434.7422">Timestamp specificTime): Value</text><ellipse cx="138" cy="458.377" fill="#84BE84" rx="3" ry="3" style="stroke:#038048;stroke-width:1.0;"/><text fill="#000000" font-family="sans-serif" font-size="14" lengthAdjust="spacing" textLength="270" x="147" y="453.3633">createValuePeriodTime (String className,</text><text fill="#000000" font-family="sans-serif" font-size="14" lengthAdjust="spacing" textLength="255" x="151" y="471.9844">Timestamp start, Timestamp end): Value</text><ellipse cx="138" cy="495.6191" fill="#84BE84" rx="3" ry="3" style="stroke:#038048;stroke-width:1.0;"/><text fill="#000000" font-family="sans-serif" font-size="14" lengthAdjust="spacing" textLength="308" x="147" y="490.6055">createValueTimeAndLocation (String className,</text><text fill="#000000" font-family="sans-serif" font-size="14" lengthAdjust="spacing" textLength="332" x="151" y="509.2266">Timestamp specificTime, GPSCode gpsCode): Value</text></g><!--class SpecificTimePowerConsumptionSensor--><g id="elem_SpecificTimePowerConsumptionSensor"><rect codeLine="17" fill="#F1F1F1" height="234.2109" id="SpecificTimePowerConsumptionSensor" rx="2.5" ry="2.5" style="stroke:#181818;stroke-width:0.5;" width="279" x="40.5" y="52.5137"/><ellipse cx="55.5" cy="68.5137" fill="#ADD1B2" rx="11" ry="11" style="stroke:#181818;stroke-width:1.0;"/><path d="M58.2656,64.3887 Q58.4219,64.1699 58.6094,64.0605 Q58.7969,63.9512 59.0156,63.9512 Q59.3906,63.9512 59.625,64.2168 Q59.8594,64.4668 59.8594,65.0762 L59.8594,66.5293 Q59.8594,67.1387 59.625,67.4043 Q59.3906,67.6699 59.0156,67.6699 Q58.6719,67.6699 58.4688,67.4668 Q58.2656,67.2793 58.1563,66.7637 Q58.1094,66.4043 57.9219,66.2168 Q57.5938,65.8418 56.9844,65.623 Q56.375,65.4043 55.75,65.4043 Q54.9844,65.4043 54.3438,65.7324 Q53.7188,66.0605 53.2188,66.8105 Q52.7344,67.5605 52.7344,68.5918 L52.7344,69.6855 Q52.7344,70.9199 53.625,71.748 Q54.5156,72.5605 56.1094,72.5605 Q57.0469,72.5605 57.7031,72.3105 Q58.0938,72.1543 58.5156,71.7168 Q58.7813,71.4512 58.9219,71.373 Q59.0781,71.2949 59.2813,71.2949 Q59.6094,71.2949 59.8594,71.5605 Q60.125,71.8105 60.125,72.1543 Q60.125,72.498 59.7813,72.9043 Q59.2813,73.4824 58.4844,73.8105 Q57.4063,74.2637 56.1094,74.2637 Q54.5938,74.2637 53.3906,73.6387 Q52.4063,73.1387 51.7188,72.0762 Q51.0313,70.998 51.0313,69.7168 L51.0313,68.5605 Q51.0313,67.2324 51.6406,66.0918 Q52.2656,64.9355 53.3594,64.3262 Q54.4531,63.7012 55.6875,63.7012 Q56.4219,63.7012 57.0625,63.873 Q57.7188,64.0293 58.2656,64.3887 Z " fill="#000000"/><text fill="#000000" font-family="sans-serif" font-size="14" lengthAdjust="spacing" textLength="247" x="69.5" y="74.3105">SpecificTimePowerConsumptionSensor</text><line style="stroke:#181818;stroke-width:0.5;" x1="41.5" x2="318.5" y1="84.5137" y2="84.5137"/><rect fill="none" height="6" style="stroke:#C82930;stroke-width:1.0;" width="6" x="48.5" y="96.3242"/><text fill="#000000" font-family="sans-serif" font-size="14" lengthAdjust="spacing" textLength="120" x="60.5" y="103.6211">String sensorName</text><rect fill="none" height="6" style="stroke:#C82930;stroke-width:1.0;" width="6" x="48.5" y="124.2559"/><text fill="#000000" font-family="sans-serif" font-size="14" lengthAdjust="spacing" textLength="125" x="60.5" y="122.2422">SensorFunctionality</text><text fill="#000000" font-family="sans-serif" font-size="14" lengthAdjust="spacing" textLength="123" x="64.5" y="140.8633">sensorFunctionality</text><rect fill="none" height="6" style="stroke:#C82930;stroke-width:1.0;" width="6" x="48.5" y="152.1875"/><text fill="#000000" font-family="sans-serif" font-size="14" lengthAdjust="spacing" textLength="74" x="60.5" y="159.4844">Value value</text><rect fill="none" height="6" style="stroke:#C82930;stroke-width:1.0;" width="6" x="48.5" y="170.8086"/><text fill="#000000" font-family="sans-serif" font-size="14" lengthAdjust="spacing" textLength="167" x="60.5" y="178.1055">FactoryValue factoryValue</text><line style="stroke:#181818;stroke-width:0.5;" x1="41.5" x2="318.5" y1="185.6191" y2="185.6191"/><ellipse cx="51.5" cy="200.4297" fill="#84BE84" rx="3" ry="3" style="stroke:#038048;stroke-width:1.0;"/><text fill="#000000" font-family="sans-serif" font-size="14" lengthAdjust="spacing" textLength="152" x="60.5" y="204.7266">getSensorName():String</text><ellipse cx="51.5" cy="228.3613" fill="#84BE84" rx="3" ry="3" style="stroke:#038048;stroke-width:1.0;"/><text fill="#000000" font-family="sans-serif" font-size="14" lengthAdjust="spacing" textLength="159" x="60.5" y="223.3477">getSensorFunctionality():</text><text fill="#000000" font-family="sans-serif" font-size="14" lengthAdjust="spacing" textLength="125" x="60.5" y="241.9688">SensorFunctionality</text><ellipse cx="51.5" cy="265.6035" fill="#84BE84" rx="3" ry="3" style="stroke:#038048;stroke-width:1.0;"/><text fill="#000000" font-family="sans-serif" font-size="14" lengthAdjust="spacing" textLength="232" x="60.5" y="260.5898">getValueForSpecificTime(Timestamp</text><text fill="#000000" font-family="sans-serif" font-size="14" lengthAdjust="spacing" textLength="124" x="64.5" y="279.2109">specificTime):String</text></g><!--class Value--><g id="elem_Value"><rect codeLine="36" fill="#F1F1F1" height="66.6211" id="Value" rx="2.5" ry="2.5" style="stroke:#181818;stroke-width:0.5;" width="185" x="215.5" y="613.0137"/><ellipse cx="285.75" cy="629.0137" fill="#B4A7E5" rx="11" ry="11" style="stroke:#181818;stroke-width:1.0;"/><path d="M286.7031,625.6543 L286.7031,632.3105 L288.4219,632.3105 Q289.0313,632.3105 289.2969,632.5449 Q289.5625,632.7793 289.5625,633.1699 Q289.5625,633.5449 289.2969,633.7793 Q289.0313,634.0137 288.4219,634.0137 L283.2813,634.0137 Q282.6719,634.0137 282.4063,633.7793 Q282.1406,633.5449 282.1406,633.1543 Q282.1406,632.7793 282.4063,632.5449 Q282.6719,632.3105 283.2813,632.3105 L285,632.3105 L285,625.6543 L283.2813,625.6543 Q282.6719,625.6543 282.4063,625.4199 Q282.1406,625.1855 282.1406,624.7949 Q282.1406,624.4199 282.4063,624.1855 Q282.6719,623.9512 283.2813,623.9512 L288.4219,623.9512 Q289.0313,623.9512 289.2969,624.1855 Q289.5625,624.4199 289.5625,624.7949 Q289.5625,625.1855 289.2969,625.4199 Q289.0313,625.6543 288.4219,625.6543 L286.7031,625.6543 Z " fill="#000000"/><text fill="#000000" font-family="sans-serif" font-size="14" font-style="italic" lengthAdjust="spacing" textLength="36" x="306.25" y="634.8105">Value</text><line style="stroke:#181818;stroke-width:0.5;" x1="216.5" x2="399.5" y1="645.0137" y2="645.0137"/><line style="stroke:#181818;stroke-width:0.5;" x1="216.5" x2="399.5" y1="653.0137" y2="653.0137"/><ellipse cx="226.5" cy="667.8242" fill="#84BE84" rx="3" ry="3" style="stroke:#038048;stroke-width:1.0;"/><text fill="#000000" font-family="sans-serif" font-size="14" lengthAdjust="spacing" textLength="159" x="235.5" y="672.1211">getValueWithUnit():String</text></g><!--class ElectricEnergyConsumptionSensorValue--><g id="elem_ElectricEnergyConsumptionSensorValue"><rect codeLine="43" fill="#F1F1F1" height="122.4844" id="ElectricEnergyConsumptionSensorValue" rx="2.5" ry="2.5" style="stroke:#181818;stroke-width:0.5;" width="287" x="372.5" y="741.0137"/><ellipse cx="387.5" cy="757.0137" fill="#ADD1B2" rx="11" ry="11" style="stroke:#181818;stroke-width:1.0;"/><path d="M390.2656,752.8887 Q390.4219,752.6699 390.6094,752.5605 Q390.7969,752.4512 391.0156,752.4512 Q391.3906,752.4512 391.625,752.7168 Q391.8594,752.9668 391.8594,753.5762 L391.8594,755.0293 Q391.8594,755.6387 391.625,755.9043 Q391.3906,756.1699 391.0156,756.1699 Q390.6719,756.1699 390.4688,755.9668 Q390.2656,755.7793 390.1563,755.2637 Q390.1094,754.9043 389.9219,754.7168 Q389.5938,754.3418 388.9844,754.123 Q388.375,753.9043 387.75,753.9043 Q386.9844,753.9043 386.3438,754.2324 Q385.7188,754.5605 385.2188,755.3105 Q384.7344,756.0605 384.7344,757.0918 L384.7344,758.1855 Q384.7344,759.4199 385.625,760.248 Q386.5156,761.0605 388.1094,761.0605 Q389.0469,761.0605 389.7031,760.8105 Q390.0938,760.6543 390.5156,760.2168 Q390.7813,759.9512 390.9219,759.873 Q391.0781,759.7949 391.2813,759.7949 Q391.6094,759.7949 391.8594,760.0605 Q392.125,760.3105 392.125,760.6543 Q392.125,760.998 391.7813,761.4043 Q391.2813,761.9824 390.4844,762.3105 Q389.4063,762.7637 388.1094,762.7637 Q386.5938,762.7637 385.3906,762.1387 Q384.4063,761.6387 383.7188,760.5762 Q383.0313,759.498 383.0313,758.2168 L383.0313,757.0605 Q383.0313,755.7324 383.6406,754.5918 Q384.2656,753.4355 385.3594,752.8262 Q386.4531,752.2012 387.6875,752.2012 Q388.4219,752.2012 389.0625,752.373 Q389.7188,752.5293 390.2656,752.8887 Z " fill="#000000"/><text fill="#000000" font-family="sans-serif" font-size="14" lengthAdjust="spacing" textLength="255" x="401.5" y="762.8105">ElectricEnergyConsumptionSensorValue</text><line style="stroke:#181818;stroke-width:0.5;" x1="373.5" x2="658.5" y1="773.0137" y2="773.0137"/><rect fill="none" height="6" style="stroke:#C82930;stroke-width:1.0;" width="6" x="380.5" y="784.8242"/><text fill="#000000" font-family="sans-serif" font-size="14" lengthAdjust="spacing" textLength="131" x="392.5" y="792.1211">Timestamp startDate</text><rect fill="none" height="6" style="stroke:#C82930;stroke-width:1.0;" width="6" x="380.5" y="803.4453"/><text fill="#000000" font-family="sans-serif" font-size="14" lengthAdjust="spacing" textLength="127" x="392.5" y="810.7422">Timestamp endDate</text><rect fill="none" height="6" style="stroke:#C82930;stroke-width:1.0;" width="6" x="380.5" y="822.0664"/><text fill="#000000" font-family="sans-serif" font-size="14" lengthAdjust="spacing" textLength="64" x="392.5" y="829.3633">String unit</text><line style="stroke:#181818;stroke-width:0.5;" x1="373.5" x2="658.5" y1="836.877" y2="836.877"/><ellipse cx="383.5" cy="851.6875" fill="#84BE84" rx="3" ry="3" style="stroke:#038048;stroke-width:1.0;"/><text fill="#000000" font-family="sans-serif" font-size="14" lengthAdjust="spacing" textLength="159" x="392.5" y="855.9844">getValueWithUnit():String</text></g><!--class SpecificTimePowerConsumptionSensorValue--><g id="elem_SpecificTimePowerConsumptionSensorValue"><rect codeLine="51" fill="#F1F1F1" height="103.8633" id="SpecificTimePowerConsumptionSensorValue" rx="2.5" ry="2.5" style="stroke:#181818;stroke-width:0.5;" width="315" x="22.5" y="750.0137"/><ellipse cx="37.5" cy="766.0137" fill="#ADD1B2" rx="11" ry="11" style="stroke:#181818;stroke-width:1.0;"/><path d="M40.2656,761.8887 Q40.4219,761.6699 40.6094,761.5605 Q40.7969,761.4512 41.0156,761.4512 Q41.3906,761.4512 41.625,761.7168 Q41.8594,761.9668 41.8594,762.5762 L41.8594,764.0293 Q41.8594,764.6387 41.625,764.9043 Q41.3906,765.1699 41.0156,765.1699 Q40.6719,765.1699 40.4688,764.9668 Q40.2656,764.7793 40.1563,764.2637 Q40.1094,763.9043 39.9219,763.7168 Q39.5938,763.3418 38.9844,763.123 Q38.375,762.9043 37.75,762.9043 Q36.9844,762.9043 36.3438,763.2324 Q35.7188,763.5605 35.2188,764.3105 Q34.7344,765.0605 34.7344,766.0918 L34.7344,767.1855 Q34.7344,768.4199 35.625,769.248 Q36.5156,770.0605 38.1094,770.0605 Q39.0469,770.0605 39.7031,769.8105 Q40.0938,769.6543 40.5156,769.2168 Q40.7813,768.9512 40.9219,768.873 Q41.0781,768.7949 41.2813,768.7949 Q41.6094,768.7949 41.8594,769.0605 Q42.125,769.3105 42.125,769.6543 Q42.125,769.998 41.7813,770.4043 Q41.2813,770.9824 40.4844,771.3105 Q39.4063,771.7637 38.1094,771.7637 Q36.5938,771.7637 35.3906,771.1387 Q34.4063,770.6387 33.7188,769.5762 Q33.0313,768.498 33.0313,767.2168 L33.0313,766.0605 Q33.0313,764.7324 33.6406,763.5918 Q34.2656,762.4355 35.3594,761.8262 Q36.4531,761.2012 37.6875,761.2012 Q38.4219,761.2012 39.0625,761.373 Q39.7188,761.5293 40.2656,761.8887 Z " fill="#000000"/><text fill="#000000" font-family="sans-serif" font-size="14" lengthAdjust="spacing" textLength="283" x="51.5" y="771.8105">SpecificTimePowerConsumptionSensorValue</text><line style="stroke:#181818;stroke-width:0.5;" x1="23.5" x2="336.5" y1="782.0137" y2="782.0137"/><rect fill="none" height="6" style="stroke:#C82930;stroke-width:1.0;" width="6" x="30.5" y="793.8242"/><text fill="#000000" font-family="sans-serif" font-size="14" lengthAdjust="spacing" textLength="101" x="42.5" y="801.1211">Timestamp date</text><rect fill="none" height="6" style="stroke:#C82930;stroke-width:1.0;" width="6" x="30.5" y="812.4453"/><text fill="#000000" font-family="sans-serif" font-size="14" lengthAdjust="spacing" textLength="64" x="42.5" y="819.7422">String unit</text><line style="stroke:#181818;stroke-width:0.5;" x1="23.5" x2="336.5" y1="827.2559" y2="827.2559"/><ellipse cx="33.5" cy="842.0664" fill="#84BE84" rx="3" ry="3" style="stroke:#038048;stroke-width:1.0;"/><text fill="#000000" font-family="sans-serif" font-size="14" lengthAdjust="spacing" textLength="159" x="42.5" y="846.3633">getValueWithUnit():String</text></g><!--link ElectricEnergyConsumptionSensor to FactoryValue--><g id="link_ElectricEnergyConsumptionSensor_FactoryValue"><path codeLine="14" d="M412.74,296.2637 C397.27,316.9037 381.63,337.7737 367.33,356.8637 " fill="none" id="ElectricEnergyConsumptionSensor-FactoryValue" style="stroke:#181818;stroke-width:1.0;"/></g><!--link SpecificTimePowerConsumptionSensor to FactoryValue--><g id="link_SpecificTimePowerConsumptionSensor_FactoryValue"><path codeLine="26" d="M235.96,286.5837 C247.39,310.3037 259.18,334.7437 269.82,356.8137 " fill="none" id="SpecificTimePowerConsumptionSensor-FactoryValue" style="stroke:#181818;stroke-width:1.0;"/></g><!--link FactoryValue to Value--><g id="link_FactoryValue_Value"><path codeLine="40" d="M308,517.0537 C308,550.3837 308,581.3237 308,607.0037 " fill="none" id="FactoryValue-to-Value" style="stroke:#181818;stroke-width:1.0;stroke-dasharray:7.0,7.0;"/><polygon fill="#181818" points="308,613.0037,312,604.0037,308,608.0037,304,604.0037,308,613.0037" style="stroke:#181818;stroke-width:1.0;"/><text fill="#000000" font-family="sans-serif" font-size="13" lengthAdjust="spacing" textLength="108" x="309" y="562.042">&lt;&lt;creates classes</text><text fill="#000000" font-family="sans-serif" font-size="13" lengthAdjust="spacing" textLength="95" x="317.5" y="579.333">that implment&gt;&gt;</text></g><!--reverse link Value to ElectricEnergyConsumptionSensorValue--><g id="link_Value_ElectricEnergyConsumptionSensorValue"><path d="M366.593,690.7522 C390.563,708.4422 406.49,720.1937 434.59,740.9337 " fill="none" id="Value-backto-ElectricEnergyConsumptionSensorValue" style="stroke:#181818;stroke-width:1.0;stroke-dasharray:7.0,7.0;"/><polygon fill="none" points="352.11,680.0637,363.0301,695.5798,370.1558,685.9245,352.11,680.0637" style="stroke:#181818;stroke-width:1.0;"/></g><!--link ElectricEnergyConsumptionSensor to ElectricEnergyConsumptionSensorValue--><g id="link_ElectricEnergyConsumptionSensor_ElectricEnergyConsumptionSensorValue"><path codeLine="49" d="M508.79,296.2137 C510.72,430.9337 513.69,639.1037 515.14,740.8637 " fill="none" id="ElectricEnergyConsumptionSensor-ElectricEnergyConsumptionSensorValue" style="stroke:#181818;stroke-width:1.0;"/><text fill="#000000" font-family="sans-serif" font-size="13" lengthAdjust="spacing" textLength="21" x="513" y="570.542">has</text></g><!--reverse link Value to SpecificTimePowerConsumptionSensorValue--><g id="link_Value_SpecificTimePowerConsumptionSensorValue"><path d="M269.3253,693.8905 C252.4553,714.1305 241.91,726.7737 222.72,749.7837 " fill="none" id="Value-backto-SpecificTimePowerConsumptionSensorValue" style="stroke:#181818;stroke-width:1.0;stroke-dasharray:7.0,7.0;"/><polygon fill="none" points="280.85,680.0637,264.7164,690.049,273.9343,697.7321,280.85,680.0637" style="stroke:#181818;stroke-width:1.0;"/></g><!--link SpecificTimePowerConsumptionSensor to SpecificTimePowerConsumptionSensorValue--><g id="link_SpecificTimePowerConsumptionSensor_SpecificTimePowerConsumptionSensorValue"><path codeLine="56" d="M129.16,286.5837 C121.21,309.5137 114.23,333.7037 110,357.0137 C84.26,498.8637 132.13,667.2237 160.77,749.9437 " fill="none" id="SpecificTimePowerConsumptionSensor-SpecificTimePowerConsumptionSensorValue" style="stroke:#181818;stroke-width:1.0;"/><text fill="#000000" font-family="sans-serif" font-size="13" lengthAdjust="spacing" textLength="21" x="117" y="570.542">has</text></g><!--SRC=[vLJ9Ri8m4BttA-QO2i8788HKKUYbQf7IvSB5SePWDR4Zssc5AlwzNWArAQX6FTO7MvdzlPb9I-WRgH0KSYMaWiyhSy0SMXEbO5uZrPBHEKTPRMU2gwvfDHEySFR6tDhcXR7XLH_aWJJOYzttekFKkf2QwUsAzrQHr9k_aBf3UBUt5om8rK9klNmTV3Zre49T739crsDVnP4kocECLhmuaz_wkEWB8PSecIWVrq_CH5vn-oXDcXRCBVKjqJWqIBx5o4ihZ6hOkVit1lCSGfWH-qMBbAqPjNcMuWFb_sb023qxy6oB3nGdw4wWx2VZ0UKHOa_kW4eqlNMYC3naFUlEqr8GpqHSAGIy1G7ze2M5ivCtZ6VkR5XhTSFBUq69HNv9gKEuMnOpKI9KhR9lb6JdoM9SepG3WLu5Uwhs7NnbUlFCcSwEMkIUYEFHQEfZZ2SJ3q3vAb6P4lM6Q61DMpV8zNHwoR_9XxU-Q9qLX3tDJspqiQBVwMZ1EeCf3MdYxgU06CE6gCl-2wdWoxy1JDksn79xcERilW00]--></g></svg>