<?xml version="1.0" encoding="us-ascii" standalone="no"?><svg xmlns="http://www.w3.org/2000/svg" xmlns:xlink="http://www.w3.org/1999/xlink" contentStyleType="text/css" height="453px" preserveAspectRatio="none" style="width:291px;height:453px;background:#FFFFFF;" version="1.1" viewBox="0 0 291 453" width="291px" zoomAndPan="magnify"><defs/><g><rect fill="#A9A9A9" height="402.1035" style="stroke:#181818;stroke-width:0.5;" width="106" x="89" y="45.6211"/><text fill="#000000" font-family="sans-serif" font-size="13" font-weight="bold" lengthAdjust="spacing" textLength="60" x="106.5" y="59.6494">&#171;System&#187;</text><text fill="#000000" font-family="sans-serif" font-size="13" font-weight="bold" lengthAdjust="spacing" textLength="79" x="102.5" y="76.9404">:SmartHome</text><rect fill="#D3D3D3" height="362.5215" style="stroke:#181818;stroke-width:0.5;" width="106" x="89" y="85.2031"/><text fill="#000000" font-family="sans-serif" font-size="13" font-weight="bold" lengthAdjust="spacing" textLength="82" x="101" y="99.2314">&#171;Subsystem&#187;</text><text fill="#000000" font-family="sans-serif" font-size="13" font-weight="bold" lengthAdjust="spacing" textLength="59" x="105" y="116.5225">:Backend</text><text fill="#000000" font-family="sans-serif" font-size="14" font-weight="bold" lengthAdjust="spacing" textLength="177" x="59" y="30.1074">UC08 - Deactivate Device</text><line style="stroke:#181818;stroke-width:0.5;stroke-dasharray:5.0,5.0;" x1="142" x2="142" y1="176.0273" y2="389.4824"/><rect fill="#FFFFFF" height="164.1641" style="stroke:#181818;stroke-width:1.0;" width="10" x="137" y="207.3184"/><rect fill="#E2E2F0" height="51.2422" rx="2.5" ry="2.5" style="stroke:#181818;stroke-width:0.5;" width="92" x="96" y="123.7852"/><text fill="#000000" font-family="sans-serif" font-size="14" font-style="italic" lengthAdjust="spacing" textLength="78" x="103" y="145.8926">&#171;Container&#187;</text><text fill="#000000" font-family="sans-serif" font-size="14" lengthAdjust="spacing" textLength="46" x="119" y="164.5137">:Server</text><rect fill="#E2E2F0" height="51.2422" rx="2.5" ry="2.5" style="stroke:#181818;stroke-width:0.5;" width="92" x="96" y="389.4824"/><text fill="#000000" font-family="sans-serif" font-size="14" font-style="italic" lengthAdjust="spacing" textLength="78" x="103" y="411.5898">&#171;Container&#187;</text><text fill="#000000" font-family="sans-serif" font-size="14" lengthAdjust="spacing" textLength="46" x="119" y="430.2109">:Server</text><ellipse cx="10.5" cy="206.5684" fill="none" rx="4" ry="4" style="stroke:#181818;stroke-width:1.5;"/><polygon fill="#181818" points="125,203.3184,135,207.3184,125,211.3184,129,207.3184" style="stroke:#181818;stroke-width:1.0;"/><line style="stroke:#181818;stroke-width:1.0;" x1="15" x2="131" y1="207.3184" y2="207.3184"/><text fill="#000000" font-family="sans-serif" font-size="13" font-weight="bold" lengthAdjust="spacing" textLength="7" x="18" y="202.0557">1</text><text fill="#000000" font-family="sans-serif" font-size="13" lengthAdjust="spacing" textLength="102" x="29" y="202.0557">Deactivate Device</text><line style="stroke:#181818;stroke-width:1.0;" x1="147" x2="189" y1="238.6094" y2="238.6094"/><line style="stroke:#181818;stroke-width:1.0;" x1="189" x2="189" y1="238.6094" y2="251.6094"/><line style="stroke:#181818;stroke-width:1.0;" x1="148" x2="189" y1="251.6094" y2="251.6094"/><polygon fill="#181818" points="158,247.6094,148,251.6094,158,255.6094,154,251.6094" style="stroke:#181818;stroke-width:1.0;"/><text fill="#000000" font-family="sans-serif" font-size="13" font-weight="bold" lengthAdjust="spacing" textLength="7" x="154" y="233.3467">2</text><text fill="#000000" font-family="sans-serif" font-size="13" lengthAdjust="spacing" textLength="60" x="165" y="233.3467">find device</text><line style="stroke:#181818;stroke-width:1.0;" x1="147" x2="189" y1="282.9004" y2="282.9004"/><line style="stroke:#181818;stroke-width:1.0;" x1="189" x2="189" y1="282.9004" y2="295.9004"/><line style="stroke:#181818;stroke-width:1.0;" x1="148" x2="189" y1="295.9004" y2="295.9004"/><polygon fill="#181818" points="158,291.9004,148,295.9004,158,299.9004,154,295.9004" style="stroke:#181818;stroke-width:1.0;"/><text fill="#000000" font-family="sans-serif" font-size="13" font-weight="bold" lengthAdjust="spacing" textLength="7" x="154" y="277.6377">3</text><text fill="#000000" font-family="sans-serif" font-size="13" lengthAdjust="spacing" textLength="98" x="165" y="277.6377">deactivate device</text><line style="stroke:#181818;stroke-width:1.0;" x1="147" x2="189" y1="327.1914" y2="327.1914"/><line style="stroke:#181818;stroke-width:1.0;" x1="189" x2="189" y1="327.1914" y2="340.1914"/><line style="stroke:#181818;stroke-width:1.0;" x1="148" x2="189" y1="340.1914" y2="340.1914"/><polygon fill="#181818" points="158,336.1914,148,340.1914,158,344.1914,154,340.1914" style="stroke:#181818;stroke-width:1.0;"/><text fill="#000000" font-family="sans-serif" font-size="13" font-weight="bold" lengthAdjust="spacing" textLength="7" x="154" y="321.9287">4</text><text fill="#000000" font-family="sans-serif" font-size="13" lengthAdjust="spacing" textLength="119" x="165" y="321.9287">update device status</text><ellipse cx="10.5" cy="370.7324" fill="none" rx="4" ry="4" style="stroke:#181818;stroke-width:1.5;"/><polygon fill="#181818" points="27.5,367.4824,17.5,371.4824,27.5,375.4824,23.5,371.4824" style="stroke:#181818;stroke-width:1.0;"/><line style="stroke:#181818;stroke-width:1.0;stroke-dasharray:2.0,2.0;" x1="25.5" x2="136" y1="371.4824" y2="371.4824"/><text fill="#000000" font-family="sans-serif" font-size="13" font-weight="bold" lengthAdjust="spacing" textLength="7" x="28" y="366.2197">5</text><text fill="#000000" font-family="sans-serif" font-size="13" lengthAdjust="spacing" textLength="22" x="39" y="366.2197">true</text><!--SRC=[TP0_JyCm4CLtVueZ34nf654KPQ2LOEWMCS5oSOxKQlodzZcYV7fCB9eAmNHtljzxzlFTWTc5kghSX8QZdZRIwYhGAPAHL0uAHuzQO6Hhekx92rOy4Rnixn-WX1sXP3KZKsfd9KbSe-B6UHmr0fFz1FQHH6y_e82cwSw1IRVjcwaxZPwVhQO2RdVeZq-UpfbBMEp3XOJw4UMHp930lHeFl900BkcLL2u5WABkoC_a2y00OMdJRLjh69KXtxOYwI6v2_5gopOJzHyvBdD6H2whubqbdo6pltV3wlOF4TsmRY4mSWpY-qbDMVumotzTMUNpBm00]--></g></svg>