<?xml version="1.0" encoding="us-ascii" standalone="no"?><svg xmlns="http://www.w3.org/2000/svg" xmlns:xlink="http://www.w3.org/1999/xlink" contentStyleType="text/css" height="838px" preserveAspectRatio="none" style="width:796px;height:838px;background:#FFFFFF;" version="1.1" viewBox="0 0 796 838" width="796px" zoomAndPan="magnify"><defs/><g><text fill="#000000" font-family="sans-serif" font-size="14" font-weight="bold" lengthAdjust="spacing" textLength="686" x="48" y="25.1074">US13: As Product Owner, I want the system to have a type of actuator that switches a load ON/OFF.</text><!--class Actuator--><g id="elem_Actuator"><rect codeLine="4" fill="#F1F1F1" height="85.2422" id="Actuator" rx="2.5" ry="2.5" style="stroke:#181818;stroke-width:0.5;" width="330" x="255.5" y="46.6211"/><ellipse cx="389.75" cy="62.6211" fill="#B4A7E5" rx="11" ry="11" style="stroke:#181818;stroke-width:1.0;"/><path d="M390.7031,59.2617 L390.7031,65.918 L392.4219,65.918 Q393.0313,65.918 393.2969,66.1523 Q393.5625,66.3867 393.5625,66.7773 Q393.5625,67.1523 393.2969,67.3867 Q393.0313,67.6211 392.4219,67.6211 L387.2813,67.6211 Q386.6719,67.6211 386.4063,67.3867 Q386.1406,67.1523 386.1406,66.7617 Q386.1406,66.3867 386.4063,66.1523 Q386.6719,65.918 387.2813,65.918 L389,65.918 L389,59.2617 L387.2813,59.2617 Q386.6719,59.2617 386.4063,59.0273 Q386.1406,58.793 386.1406,58.4023 Q386.1406,58.0273 386.4063,57.793 Q386.6719,57.5586 387.2813,57.5586 L392.4219,57.5586 Q393.0313,57.5586 393.2969,57.793 Q393.5625,58.0273 393.5625,58.4023 Q393.5625,58.793 393.2969,59.0273 Q393.0313,59.2617 392.4219,59.2617 L390.7031,59.2617 Z " fill="#000000"/><text fill="#000000" font-family="sans-serif" font-size="14" font-style="italic" lengthAdjust="spacing" textLength="53" x="410.25" y="68.418">Actuator</text><line style="stroke:#181818;stroke-width:0.5;" x1="256.5" x2="584.5" y1="78.6211" y2="78.6211"/><line style="stroke:#181818;stroke-width:0.5;" x1="256.5" x2="584.5" y1="86.6211" y2="86.6211"/><ellipse cx="266.5" cy="101.4316" fill="#84BE84" rx="3" ry="3" style="stroke:#038048;stroke-width:1.0;"/><text fill="#000000" font-family="sans-serif" font-size="14" lengthAdjust="spacing" textLength="164" x="275.5" y="105.7285">getActuatorName(): String</text><ellipse cx="266.5" cy="120.0527" fill="#84BE84" rx="3" ry="3" style="stroke:#038048;stroke-width:1.0;"/><text fill="#000000" font-family="sans-serif" font-size="14" lengthAdjust="spacing" textLength="304" x="275.5" y="124.3496">getActuatorFunctionality(): ActuatorFunctionality</text></g><!--class ActuatorSpecificInteger--><g id="elem_ActuatorSpecificInteger"><rect codeLine="9" fill="#F1F1F1" height="66.6211" id="ActuatorSpecificInteger" rx="2.5" ry="2.5" style="stroke:#181818;stroke-width:0.5;" width="366" x="237.5" y="192.6211"/><ellipse cx="342.75" cy="208.6211" fill="#B4A7E5" rx="11" ry="11" style="stroke:#181818;stroke-width:1.0;"/><path d="M343.7031,205.2617 L343.7031,211.918 L345.4219,211.918 Q346.0313,211.918 346.2969,212.1523 Q346.5625,212.3867 346.5625,212.7773 Q346.5625,213.1523 346.2969,213.3867 Q346.0313,213.6211 345.4219,213.6211 L340.2813,213.6211 Q339.6719,213.6211 339.4063,213.3867 Q339.1406,213.1523 339.1406,212.7617 Q339.1406,212.3867 339.4063,212.1523 Q339.6719,211.918 340.2813,211.918 L342,211.918 L342,205.2617 L340.2813,205.2617 Q339.6719,205.2617 339.4063,205.0273 Q339.1406,204.793 339.1406,204.4023 Q339.1406,204.0273 339.4063,203.793 Q339.6719,203.5586 340.2813,203.5586 L345.4219,203.5586 Q346.0313,203.5586 346.2969,203.793 Q346.5625,204.0273 346.5625,204.4023 Q346.5625,204.793 346.2969,205.0273 Q346.0313,205.2617 345.4219,205.2617 L343.7031,205.2617 Z " fill="#000000"/><text fill="#000000" font-family="sans-serif" font-size="14" font-style="italic" lengthAdjust="spacing" textLength="147" x="363.25" y="214.418">ActuatorSpecificInteger</text><line style="stroke:#181818;stroke-width:0.5;" x1="238.5" x2="602.5" y1="224.6211" y2="224.6211"/><line style="stroke:#181818;stroke-width:0.5;" x1="238.5" x2="602.5" y1="232.6211" y2="232.6211"/><ellipse cx="248.5" cy="247.4316" fill="#84BE84" rx="3" ry="3" style="stroke:#038048;stroke-width:1.0;"/><text fill="#000000" font-family="sans-serif" font-size="14" lengthAdjust="spacing" textLength="340" x="257.5" y="251.7285">setActuatorSpecificValue(int specificInteger) : boolean</text></g><!--class SwitchActuator--><g id="elem_SwitchActuator"><rect codeLine="13" fill="#F1F1F1" height="178.3477" id="SwitchActuator" rx="2.5" ry="2.5" style="stroke:#181818;stroke-width:0.5;" width="366" x="237.5" y="320.6211"/><ellipse cx="369.75" cy="336.6211" fill="#ADD1B2" rx="11" ry="11" style="stroke:#181818;stroke-width:1.0;"/><path d="M372.5156,332.4961 Q372.6719,332.2773 372.8594,332.168 Q373.0469,332.0586 373.2656,332.0586 Q373.6406,332.0586 373.875,332.3242 Q374.1094,332.5742 374.1094,333.1836 L374.1094,334.6367 Q374.1094,335.2461 373.875,335.5117 Q373.6406,335.7773 373.2656,335.7773 Q372.9219,335.7773 372.7188,335.5742 Q372.5156,335.3867 372.4063,334.8711 Q372.3594,334.5117 372.1719,334.3242 Q371.8438,333.9492 371.2344,333.7305 Q370.625,333.5117 370,333.5117 Q369.2344,333.5117 368.5938,333.8398 Q367.9688,334.168 367.4688,334.918 Q366.9844,335.668 366.9844,336.6992 L366.9844,337.793 Q366.9844,339.0273 367.875,339.8555 Q368.7656,340.668 370.3594,340.668 Q371.2969,340.668 371.9531,340.418 Q372.3438,340.2617 372.7656,339.8242 Q373.0313,339.5586 373.1719,339.4805 Q373.3281,339.4023 373.5313,339.4023 Q373.8594,339.4023 374.1094,339.668 Q374.375,339.918 374.375,340.2617 Q374.375,340.6055 374.0313,341.0117 Q373.5313,341.5898 372.7344,341.918 Q371.6563,342.3711 370.3594,342.3711 Q368.8438,342.3711 367.6406,341.7461 Q366.6563,341.2461 365.9688,340.1836 Q365.2813,339.1055 365.2813,337.8242 L365.2813,336.668 Q365.2813,335.3398 365.8906,334.1992 Q366.5156,333.043 367.6094,332.4336 Q368.7031,331.8086 369.9375,331.8086 Q370.6719,331.8086 371.3125,331.9805 Q371.9688,332.1367 372.5156,332.4961 Z " fill="#000000"/><text fill="#000000" font-family="sans-serif" font-size="14" lengthAdjust="spacing" textLength="93" x="390.25" y="342.418">SwitchActuator</text><line style="stroke:#181818;stroke-width:0.5;" x1="238.5" x2="602.5" y1="352.6211" y2="352.6211"/><rect fill="none" height="6" style="stroke:#C82930;stroke-width:1.0;" width="6" x="245.5" y="364.4316"/><text fill="#000000" font-family="sans-serif" font-size="14" lengthAdjust="spacing" textLength="133" x="257.5" y="371.7285">actuatorName: String</text><rect fill="none" height="6" style="stroke:#C82930;stroke-width:1.0;" width="6" x="245.5" y="383.0527"/><text fill="#000000" font-family="sans-serif" font-size="14" lengthAdjust="spacing" textLength="225" x="257.5" y="390.3496">actuatorType: ActuatorFunctionality</text><rect fill="none" height="6" style="stroke:#C82930;stroke-width:1.0;" width="6" x="245.5" y="401.6738"/><text fill="#000000" font-family="sans-serif" font-size="14" lengthAdjust="spacing" textLength="86" x="257.5" y="408.9707">status: Status</text><rect fill="none" height="6" style="stroke:#C82930;stroke-width:1.0;" width="6" x="245.5" y="420.2949"/><text fill="#000000" font-family="sans-serif" font-size="14" lengthAdjust="spacing" textLength="243" x="257.5" y="427.5918">actuatorProperties: ActuatorProperties</text><line style="stroke:#181818;stroke-width:0.5;" x1="238.5" x2="602.5" y1="435.1055" y2="435.1055"/><ellipse cx="248.5" cy="449.916" fill="#84BE84" rx="3" ry="3" style="stroke:#038048;stroke-width:1.0;"/><text fill="#000000" font-family="sans-serif" font-size="14" lengthAdjust="spacing" textLength="168" x="257.5" y="454.2129">getActuatorName() : String</text><ellipse cx="248.5" cy="468.5371" fill="#84BE84" rx="3" ry="3" style="stroke:#038048;stroke-width:1.0;"/><text fill="#000000" font-family="sans-serif" font-size="14" lengthAdjust="spacing" textLength="308" x="257.5" y="472.834">getActuatorFunctionality() : ActuatorFunctionality</text><ellipse cx="248.5" cy="487.1582" fill="#84BE84" rx="3" ry="3" style="stroke:#038048;stroke-width:1.0;"/><text fill="#000000" font-family="sans-serif" font-size="14" lengthAdjust="spacing" textLength="340" x="257.5" y="491.4551">setActuatorSpecificValue(int specificInteger) : boolean</text></g><!--class ActuatorFunctionality--><g id="elem_ActuatorFunctionality"><rect codeLine="23" fill="#F1F1F1" height="122.4844" id="ActuatorFunctionality" rx="2.5" ry="2.5" style="stroke:#181818;stroke-width:0.5;" width="173" x="7" y="348.6211"/><ellipse cx="25.6" cy="364.6211" fill="#EB937F" rx="11" ry="11" style="stroke:#181818;stroke-width:1.0;"/><path d="M24.4594,365.418 L24.4594,367.918 L28.7875,367.918 L28.7875,366.9961 Q28.7875,366.3867 29.0219,366.1211 Q29.2719,365.8555 29.6469,365.8555 Q30.0219,365.8555 30.2563,366.1211 Q30.4906,366.3867 30.4906,366.9961 L30.4906,369.6211 L22.4906,369.6211 Q21.8656,369.6211 21.6,369.3867 Q21.35,369.1523 21.35,368.7617 Q21.35,368.3867 21.6156,368.1523 Q21.8813,367.918 22.4906,367.918 L22.7563,367.918 L22.7563,361.2617 L22.4906,361.2617 Q21.8656,361.2617 21.6,361.0273 Q21.35,360.793 21.35,360.4023 Q21.35,360.0273 21.6,359.793 Q21.8656,359.5586 22.4906,359.5586 L30.1156,359.5586 L30.1156,362.1523 Q30.1156,362.7617 29.8813,363.0273 Q29.6625,363.2773 29.2719,363.2773 Q28.8969,363.2773 28.6625,363.0273 Q28.4281,362.7617 28.4281,362.1523 L28.4281,361.2617 L24.4594,361.2617 L24.4594,363.7148 L25.9438,363.7148 Q25.9438,363.0586 26.0688,362.8711 Q26.3344,362.4648 26.8031,362.4648 Q27.1781,362.4648 27.4125,362.7305 Q27.6469,362.9805 27.6469,363.5898 L27.6469,365.5586 Q27.6469,366.1055 27.5219,366.293 Q27.2563,366.6836 26.8031,366.6836 Q26.3344,366.6836 26.0688,366.2773 Q25.9438,366.0898 25.9438,365.418 L24.4594,365.418 Z " fill="#000000"/><text fill="#000000" font-family="sans-serif" font-size="14" lengthAdjust="spacing" textLength="133" x="40.4" y="370.418">ActuatorFunctionality</text><line style="stroke:#181818;stroke-width:0.5;" x1="8" x2="179" y1="380.6211" y2="380.6211"/><text fill="#000000" font-family="sans-serif" font-size="14" lengthAdjust="spacing" textLength="114" x="13" y="399.7285">BINARY_SWITCH,</text><text fill="#000000" font-family="sans-serif" font-size="14" lengthAdjust="spacing" textLength="161" x="13" y="418.3496">PERCENTAGE_SETTER,</text><text fill="#000000" font-family="sans-serif" font-size="14" lengthAdjust="spacing" textLength="127" x="13" y="436.9707">INTEGER_SETTER,</text><text fill="#000000" font-family="sans-serif" font-size="14" lengthAdjust="spacing" textLength="123" x="13" y="455.5918">DECIMAL_SETTER</text><line style="stroke:#181818;stroke-width:0.5;" x1="8" x2="179" y1="463.1055" y2="463.1055"/></g><!--class ActuatorProperties--><g id="elem_ActuatorProperties"><rect codeLine="30" fill="#F1F1F1" height="271.4531" id="ActuatorProperties" rx="2.5" ry="2.5" style="stroke:#181818;stroke-width:0.5;" width="737" x="52" y="559.6211"/><ellipse cx="357.25" cy="575.6211" fill="#ADD1B2" rx="11" ry="11" style="stroke:#181818;stroke-width:1.0;"/><path d="M360.0156,571.4961 Q360.1719,571.2773 360.3594,571.168 Q360.5469,571.0586 360.7656,571.0586 Q361.1406,571.0586 361.375,571.3242 Q361.6094,571.5742 361.6094,572.1836 L361.6094,573.6367 Q361.6094,574.2461 361.375,574.5117 Q361.1406,574.7773 360.7656,574.7773 Q360.4219,574.7773 360.2188,574.5742 Q360.0156,574.3867 359.9063,573.8711 Q359.8594,573.5117 359.6719,573.3242 Q359.3438,572.9492 358.7344,572.7305 Q358.125,572.5117 357.5,572.5117 Q356.7344,572.5117 356.0938,572.8398 Q355.4688,573.168 354.9688,573.918 Q354.4844,574.668 354.4844,575.6992 L354.4844,576.793 Q354.4844,578.0273 355.375,578.8555 Q356.2656,579.668 357.8594,579.668 Q358.7969,579.668 359.4531,579.418 Q359.8438,579.2617 360.2656,578.8242 Q360.5313,578.5586 360.6719,578.4805 Q360.8281,578.4023 361.0313,578.4023 Q361.3594,578.4023 361.6094,578.668 Q361.875,578.918 361.875,579.2617 Q361.875,579.6055 361.5313,580.0117 Q361.0313,580.5898 360.2344,580.918 Q359.1563,581.3711 357.8594,581.3711 Q356.3438,581.3711 355.1406,580.7461 Q354.1563,580.2461 353.4688,579.1836 Q352.7813,578.1055 352.7813,576.8242 L352.7813,575.668 Q352.7813,574.3398 353.3906,573.1992 Q354.0156,572.043 355.1094,571.4336 Q356.2031,570.8086 357.4375,570.8086 Q358.1719,570.8086 358.8125,570.9805 Q359.4688,571.1367 360.0156,571.4961 Z " fill="#000000"/><text fill="#000000" font-family="sans-serif" font-size="14" lengthAdjust="spacing" textLength="118" x="377.75" y="581.418">ActuatorProperties</text><line style="stroke:#181818;stroke-width:0.5;" x1="53" x2="788" y1="591.6211" y2="591.6211"/><rect fill="none" height="6" style="stroke:#C82930;stroke-width:1.0;" width="6" x="60" y="603.4316"/><text fill="#000000" font-family="sans-serif" font-size="14" lengthAdjust="spacing" textLength="104" x="72" y="610.7285">upperLimitInt: int</text><rect fill="none" height="6" style="stroke:#C82930;stroke-width:1.0;" width="6" x="60" y="622.0527"/><text fill="#000000" font-family="sans-serif" font-size="14" lengthAdjust="spacing" textLength="100" x="72" y="629.3496">lowerLimitInt: int</text><rect fill="none" height="6" style="stroke:#C82930;stroke-width:1.0;" width="6" x="60" y="640.6738"/><text fill="#000000" font-family="sans-serif" font-size="14" lengthAdjust="spacing" textLength="167" x="72" y="647.9707">upperLimitDecimal: double</text><rect fill="none" height="6" style="stroke:#C82930;stroke-width:1.0;" width="6" x="60" y="659.2949"/><text fill="#000000" font-family="sans-serif" font-size="14" lengthAdjust="spacing" textLength="163" x="72" y="666.5918">lowerLimitDecimal: double</text><rect fill="none" height="6" style="stroke:#C82930;stroke-width:1.0;" width="6" x="60" y="677.916"/><text fill="#000000" font-family="sans-serif" font-size="14" lengthAdjust="spacing" textLength="80" x="72" y="685.2129">precision: int</text><line style="stroke:#181818;stroke-width:0.5;" x1="53" x2="788" y1="692.7266" y2="692.7266"/><rect fill="#F24D5C" height="6" style="stroke:#C82930;stroke-width:1.0;" width="6" x="60" y="704.5371"/><text fill="#000000" font-family="sans-serif" font-size="14" lengthAdjust="spacing" textLength="444" x="72" y="711.834">validConstructorArguments(int upperLimitInt, int lowerLimitInt): boolean</text><rect fill="#F24D5C" height="6" style="stroke:#C82930;stroke-width:1.0;" width="6" x="60" y="723.1582"/><text fill="#000000" font-family="sans-serif" font-size="14" lengthAdjust="spacing" textLength="711" x="72" y="730.4551">validConstructorsArgumentsDecimal(double upperLimitDecimal, double lowerLimitDecimal, int precision): boolean</text><ellipse cx="63" cy="744.7793" fill="#84BE84" rx="3" ry="3" style="stroke:#038048;stroke-width:1.0;"/><text fill="#000000" font-family="sans-serif" font-size="14" lengthAdjust="spacing" textLength="135" x="72" y="749.0762">getUpperLimitInt(): int</text><ellipse cx="63" cy="763.4004" fill="#84BE84" rx="3" ry="3" style="stroke:#038048;stroke-width:1.0;"/><text fill="#000000" font-family="sans-serif" font-size="14" lengthAdjust="spacing" textLength="135" x="72" y="767.6973">getLowerLimitInt(): int</text><ellipse cx="63" cy="782.0215" fill="#84BE84" rx="3" ry="3" style="stroke:#038048;stroke-width:1.0;"/><text fill="#000000" font-family="sans-serif" font-size="14" lengthAdjust="spacing" textLength="198" x="72" y="786.3184">getUpperLimitDecimal(): double</text><ellipse cx="63" cy="800.6426" fill="#84BE84" rx="3" ry="3" style="stroke:#038048;stroke-width:1.0;"/><text fill="#000000" font-family="sans-serif" font-size="14" lengthAdjust="spacing" textLength="198" x="72" y="804.9395">getLowerLimitDecimal(): double</text><ellipse cx="63" cy="819.2637" fill="#84BE84" rx="3" ry="3" style="stroke:#038048;stroke-width:1.0;"/><text fill="#000000" font-family="sans-serif" font-size="14" lengthAdjust="spacing" textLength="111" x="72" y="823.5605">getPrecision(): int</text></g><!--reverse link Actuator to ActuatorSpecificInteger--><g id="link_Actuator_ActuatorSpecificInteger"><path d="M420.5,149.7311 C420.5,169.2511 420.5,174.1811 420.5,192.4311 " fill="none" id="Actuator-backto-ActuatorSpecificInteger" style="stroke:#181818;stroke-width:1.0;"/><polygon fill="none" points="420.5,131.7311,414.5,149.7311,426.5,149.7311,420.5,131.7311" style="stroke:#181818;stroke-width:1.0;"/></g><!--reverse link ActuatorSpecificInteger to SwitchActuator--><g id="link_ActuatorSpecificInteger_SwitchActuator"><path d="M420.5,277.9911 C420.5,295.0511 420.5,298.7911 420.5,320.3511 " fill="none" id="ActuatorSpecificInteger-backto-SwitchActuator" style="stroke:#181818;stroke-width:1.0;stroke-dasharray:7.0,7.0;"/><polygon fill="none" points="420.5,259.9911,414.5,277.9911,426.5,277.9911,420.5,259.9911" style="stroke:#181818;stroke-width:1.0;"/></g><!--link ActuatorFunctionality to SwitchActuator--><g id="link_ActuatorFunctionality_SwitchActuator"><path codeLine="45" d="M180.27,409.6211 C198.15,409.6211 217.62,409.6211 237.47,409.6211 " fill="none" id="ActuatorFunctionality-SwitchActuator" style="stroke:#181818;stroke-width:1.0;"/><text fill="#000000" font-family="sans-serif" font-size="13" lengthAdjust="spacing" textLength="21" x="198.25" y="402.6494">has</text></g><!--link SwitchActuator to ActuatorProperties--><g id="link_SwitchActuator_ActuatorProperties"><path codeLine="46" d="M420.5,498.7711 C420.5,518.0311 420.5,538.8411 420.5,559.4511 " fill="none" id="SwitchActuator-ActuatorProperties" style="stroke:#181818;stroke-width:1.0;"/></g><!--SRC=[fLHDZvim4BtpA-RMH0qRLRrnercoHKgJA92jUbfvOP9OCZQoXqsZLVzxxIm14eXKgITWtdoyzyQ6E0c4RVBbQm2XWRLMUPKHh8uIzGHYE399G0S4SpA41P220tj3O42d4a7jW6LKCLBQPZ42S-IK7T3O1A5O3glbT3MVFtYV3aIb2QRJKjYELI4UCbLCCy6CyNFEzfeLdiSbeTwn326yD7ttFk-HBfzBLk1e7412cilz5JIlP4PSIIOudLpE8E3z6PgIb9Zn7SzYY-nH0_ucbBbfS4l2j9CksSzCL3YotS1SruyXW5Ub13Bfvfr5Gd8sfj75Yr9WWPBCNHRldiywkXlLJJIr6xYdqpV4g3Ako3tR8hlX4ZLnD6rf6njm6_x5RhZ7ut-CGraLmssjDm3VucMu-VMI_8pJsVU93QoZpInQfk5Jz994QHfjN31Ufj5JjEb47gDP_2DSr95sGtqtx0QgqhulUC79SWp0alPyeOwzM9ltQ2KLJ0IGg-fLO3Uz1vNQHenLLNTvi-hocPA6jBs5IeTwNvqFoTcjAouJLm5NLCQjUxrEfcbLanXzS80UyKdD3dgyFqOsd3lZtCdOTjcv2-WKEM3HvTW5jhUZ7LXRSrquZAylJ2vDxIg7Zuj_S_q2-nCptisLzFs18_0N]--></g></svg>