<?xml version="1.0" encoding="us-ascii" standalone="no"?><svg xmlns="http://www.w3.org/2000/svg" xmlns:xlink="http://www.w3.org/1999/xlink" contentStyleType="text/css" height="1370px" preserveAspectRatio="none" style="width:2543px;height:1370px;background:#FFFFFF;" version="1.1" viewBox="0 0 2543 1370" width="2543px" zoomAndPan="magnify"><defs/><g><text fill="#000000" font-family="sans-serif" font-size="14" font-weight="bold" lengthAdjust="spacing" textLength="1098" x="715.5" y="25.1074">US07: As a Power User [or Administrator], I want to add a sensor to an existing device in a room. The sensor must be of a model of an existing type of sensor.</text><!--class AddNewSensorToDeviceController--><g id="elem_AddNewSensorToDeviceController"><rect codeLine="4" fill="#F1F1F1" height="215.5898" id="AddNewSensorToDeviceController" rx="2.5" ry="2.5" style="stroke:#181818;stroke-width:0.5;" width="403" x="797.5" y="304.6211"/><ellipse cx="885.75" cy="320.6211" fill="#ADD1B2" rx="11" ry="11" style="stroke:#181818;stroke-width:1.0;"/><path d="M888.5156,316.4961 Q888.6719,316.2773 888.8594,316.168 Q889.0469,316.0586 889.2656,316.0586 Q889.6406,316.0586 889.875,316.3242 Q890.1094,316.5742 890.1094,317.1836 L890.1094,318.6367 Q890.1094,319.2461 889.875,319.5117 Q889.6406,319.7773 889.2656,319.7773 Q888.9219,319.7773 888.7188,319.5742 Q888.5156,319.3867 888.4063,318.8711 Q888.3594,318.5117 888.1719,318.3242 Q887.8438,317.9492 887.2344,317.7305 Q886.625,317.5117 886,317.5117 Q885.2344,317.5117 884.5938,317.8398 Q883.9688,318.168 883.4688,318.918 Q882.9844,319.668 882.9844,320.6992 L882.9844,321.793 Q882.9844,323.0273 883.875,323.8555 Q884.7656,324.668 886.3594,324.668 Q887.2969,324.668 887.9531,324.418 Q888.3438,324.2617 888.7656,323.8242 Q889.0313,323.5586 889.1719,323.4805 Q889.3281,323.4023 889.5313,323.4023 Q889.8594,323.4023 890.1094,323.668 Q890.375,323.918 890.375,324.2617 Q890.375,324.6055 890.0313,325.0117 Q889.5313,325.5898 888.7344,325.918 Q887.6563,326.3711 886.3594,326.3711 Q884.8438,326.3711 883.6406,325.7461 Q882.6563,325.2461 881.9688,324.1836 Q881.2813,323.1055 881.2813,321.8242 L881.2813,320.668 Q881.2813,319.3398 881.8906,318.1992 Q882.5156,317.043 883.6094,316.4336 Q884.7031,315.8086 885.9375,315.8086 Q886.6719,315.8086 887.3125,315.9805 Q887.9688,316.1367 888.5156,316.4961 Z " fill="#000000"/><text fill="#000000" font-family="sans-serif" font-size="14" lengthAdjust="spacing" textLength="218" x="906.25" y="326.418">AddNewSensorToDeviceController</text><line style="stroke:#181818;stroke-width:0.5;" x1="798.5" x2="1199.5" y1="336.6211" y2="336.6211"/><rect fill="none" height="6" style="stroke:#C82930;stroke-width:1.0;" width="6" x="805.5" y="348.4316"/><text fill="#000000" font-family="sans-serif" font-size="14" lengthAdjust="spacing" textLength="87" x="817.5" y="355.7285">house: House</text><rect fill="none" height="6" style="stroke:#C82930;stroke-width:1.0;" width="6" x="805.5" y="367.0527"/><text fill="#000000" font-family="sans-serif" font-size="14" lengthAdjust="spacing" textLength="226" x="817.5" y="374.3496">sensorCatalogue: SensorCatalogue</text><rect fill="none" height="6" style="stroke:#C82930;stroke-width:1.0;" width="6" x="805.5" y="385.6738"/><text fill="#000000" font-family="sans-serif" font-size="14" lengthAdjust="spacing" textLength="301" x="817.5" y="392.9707">roomsDTOAndRooms: Map&lt;RoomDTO, Room&gt;</text><rect fill="none" height="6" style="stroke:#C82930;stroke-width:1.0;" width="6" x="805.5" y="404.2949"/><text fill="#000000" font-family="sans-serif" font-size="14" lengthAdjust="spacing" textLength="328" x="817.5" y="411.5918">devicesDTOAndDevices: Map&lt;DeviceDTO, Device&gt;</text><line style="stroke:#181818;stroke-width:0.5;" x1="798.5" x2="1199.5" y1="419.1055" y2="419.1055"/><ellipse cx="808.5" cy="433.916" fill="#84BE84" rx="3" ry="3" style="stroke:#038048;stroke-width:1.0;"/><text fill="#000000" font-family="sans-serif" font-size="14" lengthAdjust="spacing" textLength="232" x="817.5" y="438.2129">getRoomListDTO(): List&lt;RoomDTO&gt;</text><ellipse cx="808.5" cy="452.5371" fill="#84BE84" rx="3" ry="3" style="stroke:#038048;stroke-width:1.0;"/><text fill="#000000" font-family="sans-serif" font-size="14" lengthAdjust="spacing" textLength="377" x="817.5" y="456.834">getDeviceListDTO(RoomDTO roomDTO): List&lt;DeviceDTO&gt;</text><ellipse cx="808.5" cy="471.1582" fill="#84BE84" rx="3" ry="3" style="stroke:#038048;stroke-width:1.0;"/><text fill="#000000" font-family="sans-serif" font-size="14" lengthAdjust="spacing" textLength="345" x="817.5" y="475.4551">getCatalogueOfAvailableSensorClasses(): List&lt;String&gt;</text><ellipse cx="808.5" cy="499.0898" fill="#84BE84" rx="3" ry="3" style="stroke:#038048;stroke-width:1.0;"/><text fill="#000000" font-family="sans-serif" font-size="14" lengthAdjust="spacing" textLength="286" x="817.5" y="494.0762">addSensorToDevice(DeviceDTO deviceDTO,</text><text fill="#000000" font-family="sans-serif" font-size="14" lengthAdjust="spacing" textLength="311" x="821.5" y="512.6973">String sensorClass, String sensorName): boolean</text></g><!--class DeviceDTO--><g id="elem_DeviceDTO"><rect codeLine="15" fill="#F1F1F1" height="85.2422" id="DeviceDTO" rx="2.5" ry="2.5" style="stroke:#181818;stroke-width:0.5;" width="180" x="135" y="903.1211"/><ellipse cx="184.25" cy="919.1211" fill="#ADD1B2" rx="11" ry="11" style="stroke:#181818;stroke-width:1.0;"/><path d="M187.0156,914.9961 Q187.1719,914.7773 187.3594,914.668 Q187.5469,914.5586 187.7656,914.5586 Q188.1406,914.5586 188.375,914.8242 Q188.6094,915.0742 188.6094,915.6836 L188.6094,917.1367 Q188.6094,917.7461 188.375,918.0117 Q188.1406,918.2773 187.7656,918.2773 Q187.4219,918.2773 187.2188,918.0742 Q187.0156,917.8867 186.9063,917.3711 Q186.8594,917.0117 186.6719,916.8242 Q186.3438,916.4492 185.7344,916.2305 Q185.125,916.0117 184.5,916.0117 Q183.7344,916.0117 183.0938,916.3398 Q182.4688,916.668 181.9688,917.418 Q181.4844,918.168 181.4844,919.1992 L181.4844,920.293 Q181.4844,921.5273 182.375,922.3555 Q183.2656,923.168 184.8594,923.168 Q185.7969,923.168 186.4531,922.918 Q186.8438,922.7617 187.2656,922.3242 Q187.5313,922.0586 187.6719,921.9805 Q187.8281,921.9023 188.0313,921.9023 Q188.3594,921.9023 188.6094,922.168 Q188.875,922.418 188.875,922.7617 Q188.875,923.1055 188.5313,923.5117 Q188.0313,924.0898 187.2344,924.418 Q186.1563,924.8711 184.8594,924.8711 Q183.3438,924.8711 182.1406,924.2461 Q181.1563,923.7461 180.4688,922.6836 Q179.7813,921.6055 179.7813,920.3242 L179.7813,919.168 Q179.7813,917.8398 180.3906,916.6992 Q181.0156,915.543 182.1094,914.9336 Q183.2031,914.3086 184.4375,914.3086 Q185.1719,914.3086 185.8125,914.4805 Q186.4688,914.6367 187.0156,914.9961 Z " fill="#000000"/><text fill="#000000" font-family="sans-serif" font-size="14" lengthAdjust="spacing" textLength="73" x="204.75" y="924.918">DeviceDTO</text><line style="stroke:#181818;stroke-width:0.5;" x1="136" x2="314" y1="935.1211" y2="935.1211"/><rect fill="none" height="6" style="stroke:#C82930;stroke-width:1.0;" width="6" x="143" y="946.9316"/><text fill="#000000" font-family="sans-serif" font-size="14" lengthAdjust="spacing" textLength="122" x="155" y="954.2285">deviceName: String</text><line style="stroke:#181818;stroke-width:0.5;" x1="136" x2="314" y1="961.7422" y2="961.7422"/><ellipse cx="146" cy="976.5527" fill="#84BE84" rx="3" ry="3" style="stroke:#038048;stroke-width:1.0;"/><text fill="#000000" font-family="sans-serif" font-size="14" lengthAdjust="spacing" textLength="154" x="155" y="980.8496">getDeviceName(): String</text></g><!--class House--><g id="elem_House"><rect codeLine="20" fill="#F1F1F1" height="103.8633" id="House" rx="2.5" ry="2.5" style="stroke:#181818;stroke-width:0.5;" width="182" x="777" y="636.6211"/><ellipse cx="843.75" cy="652.6211" fill="#ADD1B2" rx="11" ry="11" style="stroke:#181818;stroke-width:1.0;"/><path d="M846.5156,648.4961 Q846.6719,648.2773 846.8594,648.168 Q847.0469,648.0586 847.2656,648.0586 Q847.6406,648.0586 847.875,648.3242 Q848.1094,648.5742 848.1094,649.1836 L848.1094,650.6367 Q848.1094,651.2461 847.875,651.5117 Q847.6406,651.7773 847.2656,651.7773 Q846.9219,651.7773 846.7188,651.5742 Q846.5156,651.3867 846.4063,650.8711 Q846.3594,650.5117 846.1719,650.3242 Q845.8438,649.9492 845.2344,649.7305 Q844.625,649.5117 844,649.5117 Q843.2344,649.5117 842.5938,649.8398 Q841.9688,650.168 841.4688,650.918 Q840.9844,651.668 840.9844,652.6992 L840.9844,653.793 Q840.9844,655.0273 841.875,655.8555 Q842.7656,656.668 844.3594,656.668 Q845.2969,656.668 845.9531,656.418 Q846.3438,656.2617 846.7656,655.8242 Q847.0313,655.5586 847.1719,655.4805 Q847.3281,655.4023 847.5313,655.4023 Q847.8594,655.4023 848.1094,655.668 Q848.375,655.918 848.375,656.2617 Q848.375,656.6055 848.0313,657.0117 Q847.5313,657.5898 846.7344,657.918 Q845.6563,658.3711 844.3594,658.3711 Q842.8438,658.3711 841.6406,657.7461 Q840.6563,657.2461 839.9688,656.1836 Q839.2813,655.1055 839.2813,653.8242 L839.2813,652.668 Q839.2813,651.3398 839.8906,650.1992 Q840.5156,649.043 841.6094,648.4336 Q842.7031,647.8086 843.9375,647.8086 Q844.6719,647.8086 845.3125,647.9805 Q845.9688,648.1367 846.5156,648.4961 Z " fill="#000000"/><text fill="#000000" font-family="sans-serif" font-size="14" lengthAdjust="spacing" textLength="40" x="864.25" y="658.418">House</text><line style="stroke:#181818;stroke-width:0.5;" x1="778" x2="958" y1="668.6211" y2="668.6211"/><rect fill="none" height="6" style="stroke:#C82930;stroke-width:1.0;" width="6" x="785" y="680.4316"/><text fill="#000000" font-family="sans-serif" font-size="14" lengthAdjust="spacing" textLength="111" x="797" y="687.7285">location: Location</text><rect fill="none" height="6" style="stroke:#C82930;stroke-width:1.0;" width="6" x="785" y="699.0527"/><text fill="#000000" font-family="sans-serif" font-size="14" lengthAdjust="spacing" textLength="121" x="797" y="706.3496">roomList: RoomList</text><line style="stroke:#181818;stroke-width:0.5;" x1="778" x2="958" y1="713.8633" y2="713.8633"/><ellipse cx="788" cy="728.6738" fill="#84BE84" rx="3" ry="3" style="stroke:#038048;stroke-width:1.0;"/><text fill="#000000" font-family="sans-serif" font-size="14" lengthAdjust="spacing" textLength="156" x="797" y="732.9707">getRoomList(): RoomList</text></g><!--class Room--><g id="elem_Room"><rect codeLine="26" fill="#F1F1F1" height="178.3477" id="Room" rx="2.5" ry="2.5" style="stroke:#181818;stroke-width:0.5;" width="271" x="994.5" y="599.6211"/><ellipse cx="1107.25" cy="615.6211" fill="#ADD1B2" rx="11" ry="11" style="stroke:#181818;stroke-width:1.0;"/><path d="M1110.0156,611.4961 Q1110.1719,611.2773 1110.3594,611.168 Q1110.5469,611.0586 1110.7656,611.0586 Q1111.1406,611.0586 1111.375,611.3242 Q1111.6094,611.5742 1111.6094,612.1836 L1111.6094,613.6367 Q1111.6094,614.2461 1111.375,614.5117 Q1111.1406,614.7773 1110.7656,614.7773 Q1110.4219,614.7773 1110.2188,614.5742 Q1110.0156,614.3867 1109.9063,613.8711 Q1109.8594,613.5117 1109.6719,613.3242 Q1109.3438,612.9492 1108.7344,612.7305 Q1108.125,612.5117 1107.5,612.5117 Q1106.7344,612.5117 1106.0938,612.8398 Q1105.4688,613.168 1104.9688,613.918 Q1104.4844,614.668 1104.4844,615.6992 L1104.4844,616.793 Q1104.4844,618.0273 1105.375,618.8555 Q1106.2656,619.668 1107.8594,619.668 Q1108.7969,619.668 1109.4531,619.418 Q1109.8438,619.2617 1110.2656,618.8242 Q1110.5313,618.5586 1110.6719,618.4805 Q1110.8281,618.4023 1111.0313,618.4023 Q1111.3594,618.4023 1111.6094,618.668 Q1111.875,618.918 1111.875,619.2617 Q1111.875,619.6055 1111.5313,620.0117 Q1111.0313,620.5898 1110.2344,620.918 Q1109.1563,621.3711 1107.8594,621.3711 Q1106.3438,621.3711 1105.1406,620.7461 Q1104.1563,620.2461 1103.4688,619.1836 Q1102.7813,618.1055 1102.7813,616.8242 L1102.7813,615.668 Q1102.7813,614.3398 1103.3906,613.1992 Q1104.0156,612.043 1105.1094,611.4336 Q1106.2031,610.8086 1107.4375,610.8086 Q1108.1719,610.8086 1108.8125,610.9805 Q1109.4688,611.1367 1110.0156,611.4961 Z " fill="#000000"/><text fill="#000000" font-family="sans-serif" font-size="14" lengthAdjust="spacing" textLength="37" x="1127.75" y="621.418">Room</text><line style="stroke:#181818;stroke-width:0.5;" x1="995.5" x2="1264.5" y1="631.6211" y2="631.6211"/><rect fill="none" height="6" style="stroke:#C82930;stroke-width:1.0;" width="6" x="1002.5" y="643.4316"/><text fill="#000000" font-family="sans-serif" font-size="14" lengthAdjust="spacing" textLength="113" x="1014.5" y="650.7285">roomName: String</text><rect fill="none" height="6" style="stroke:#C82930;stroke-width:1.0;" width="6" x="1002.5" y="662.0527"/><text fill="#000000" font-family="sans-serif" font-size="14" lengthAdjust="spacing" textLength="100" x="1014.5" y="669.3496">floorNumber: int</text><rect fill="none" height="6" style="stroke:#C82930;stroke-width:1.0;" width="6" x="1002.5" y="680.6738"/><text fill="#000000" font-family="sans-serif" font-size="14" lengthAdjust="spacing" textLength="152" x="1014.5" y="687.9707">dimensions: Dimensions</text><rect fill="none" height="6" style="stroke:#C82930;stroke-width:1.0;" width="6" x="1002.5" y="699.2949"/><text fill="#000000" font-family="sans-serif" font-size="14" lengthAdjust="spacing" textLength="136" x="1014.5" y="706.5918">deviceList: DeviceList</text><rect fill="none" height="6" style="stroke:#C82930;stroke-width:1.0;" width="6" x="1002.5" y="717.916"/><text fill="#000000" font-family="sans-serif" font-size="14" lengthAdjust="spacing" textLength="245" x="1014.5" y="725.2129">factoryDimensions: FactoryDimensions</text><rect fill="none" height="6" style="stroke:#C82930;stroke-width:1.0;" width="6" x="1002.5" y="736.5371"/><text fill="#000000" font-family="sans-serif" font-size="14" lengthAdjust="spacing" textLength="229" x="1014.5" y="743.834">factoryDeviceList: FactoryDeviceList</text><line style="stroke:#181818;stroke-width:0.5;" x1="995.5" x2="1264.5" y1="751.3477" y2="751.3477"/><ellipse cx="1005.5" cy="766.1582" fill="#84BE84" rx="3" ry="3" style="stroke:#038048;stroke-width:1.0;"/><text fill="#000000" font-family="sans-serif" font-size="14" lengthAdjust="spacing" textLength="168" x="1014.5" y="770.4551">getDeviceList(): DeviceList</text></g><!--class Device--><g id="elem_Device"><rect codeLine="37" fill="#F1F1F1" height="196.9688" id="Device" rx="2.5" ry="2.5" style="stroke:#181818;stroke-width:0.5;" width="437" x="1250.5" y="46.6211"/><ellipse cx="1443.25" cy="62.6211" fill="#ADD1B2" rx="11" ry="11" style="stroke:#181818;stroke-width:1.0;"/><path d="M1446.0156,58.4961 Q1446.1719,58.2773 1446.3594,58.168 Q1446.5469,58.0586 1446.7656,58.0586 Q1447.1406,58.0586 1447.375,58.3242 Q1447.6094,58.5742 1447.6094,59.1836 L1447.6094,60.6367 Q1447.6094,61.2461 1447.375,61.5117 Q1447.1406,61.7773 1446.7656,61.7773 Q1446.4219,61.7773 1446.2188,61.5742 Q1446.0156,61.3867 1445.9063,60.8711 Q1445.8594,60.5117 1445.6719,60.3242 Q1445.3438,59.9492 1444.7344,59.7305 Q1444.125,59.5117 1443.5,59.5117 Q1442.7344,59.5117 1442.0938,59.8398 Q1441.4688,60.168 1440.9688,60.918 Q1440.4844,61.668 1440.4844,62.6992 L1440.4844,63.793 Q1440.4844,65.0273 1441.375,65.8555 Q1442.2656,66.668 1443.8594,66.668 Q1444.7969,66.668 1445.4531,66.418 Q1445.8438,66.2617 1446.2656,65.8242 Q1446.5313,65.5586 1446.6719,65.4805 Q1446.8281,65.4023 1447.0313,65.4023 Q1447.3594,65.4023 1447.6094,65.668 Q1447.875,65.918 1447.875,66.2617 Q1447.875,66.6055 1447.5313,67.0117 Q1447.0313,67.5898 1446.2344,67.918 Q1445.1563,68.3711 1443.8594,68.3711 Q1442.3438,68.3711 1441.1406,67.7461 Q1440.1563,67.2461 1439.4688,66.1836 Q1438.7813,65.1055 1438.7813,63.8242 L1438.7813,62.668 Q1438.7813,61.3398 1439.3906,60.1992 Q1440.0156,59.043 1441.1094,58.4336 Q1442.2031,57.8086 1443.4375,57.8086 Q1444.1719,57.8086 1444.8125,57.9805 Q1445.4688,58.1367 1446.0156,58.4961 Z " fill="#000000"/><text fill="#000000" font-family="sans-serif" font-size="14" lengthAdjust="spacing" textLength="43" x="1463.75" y="68.418">Device</text><line style="stroke:#181818;stroke-width:0.5;" x1="1251.5" x2="1686.5" y1="78.6211" y2="78.6211"/><rect fill="none" height="6" style="stroke:#C82930;stroke-width:1.0;" width="6" x="1258.5" y="90.4316"/><text fill="#000000" font-family="sans-serif" font-size="14" lengthAdjust="spacing" textLength="122" x="1270.5" y="97.7285">deviceName: String</text><rect fill="none" height="6" style="stroke:#C82930;stroke-width:1.0;" width="6" x="1258.5" y="109.0527"/><text fill="#000000" font-family="sans-serif" font-size="14" lengthAdjust="spacing" textLength="124" x="1270.5" y="116.3496">deviceModel: String</text><rect fill="none" height="6" style="stroke:#C82930;stroke-width:1.0;" width="6" x="1258.5" y="127.6738"/><text fill="#000000" font-family="sans-serif" font-size="14" lengthAdjust="spacing" textLength="86" x="1270.5" y="134.9707">status: Status</text><rect fill="none" height="6" style="stroke:#C82930;stroke-width:1.0;" width="6" x="1258.5" y="146.2949"/><text fill="#000000" font-family="sans-serif" font-size="14" lengthAdjust="spacing" textLength="156" x="1270.5" y="153.5918">sensorList: List&lt;Sensor&gt;</text><rect fill="none" height="6" style="stroke:#C82930;stroke-width:1.0;" width="6" x="1258.5" y="164.916"/><text fill="#000000" font-family="sans-serif" font-size="14" lengthAdjust="spacing" textLength="173" x="1270.5" y="172.2129">actuatorList: List&lt;Actuator&gt;</text><line style="stroke:#181818;stroke-width:0.5;" x1="1251.5" x2="1686.5" y1="179.7266" y2="179.7266"/><ellipse cx="1261.5" cy="203.8477" fill="#84BE84" rx="3" ry="3" style="stroke:#038048;stroke-width:1.0;"/><text fill="#000000" font-family="sans-serif" font-size="14" lengthAdjust="spacing" textLength="324" x="1270.5" y="198.834">createSensorAndAddToDevice(String sensorName,</text><text fill="#000000" font-family="sans-serif" font-size="14" lengthAdjust="spacing" textLength="407" x="1274.5" y="217.4551">SensorCatalogue sensorCatalogue, String sensorClass): Sensor</text><rect fill="#F24D5C" height="6" style="stroke:#C82930;stroke-width:1.0;" width="6" x="1258.5" y="228.7793"/><text fill="#000000" font-family="sans-serif" font-size="14" lengthAdjust="spacing" textLength="277" x="1270.5" y="236.0762">isSensorInList(String sensorName): boolean</text></g><!--class Sensor--><g id="elem_Sensor"><rect codeLine="47" fill="#F1F1F1" height="85.2422" id="Sensor" rx="2.5" ry="2.5" style="stroke:#181818;stroke-width:0.5;" width="314" x="1622" y="370.1211"/><ellipse cx="1752.25" cy="386.1211" fill="#B4A7E5" rx="11" ry="11" style="stroke:#181818;stroke-width:1.0;"/><path d="M1753.2031,382.7617 L1753.2031,389.418 L1754.9219,389.418 Q1755.5313,389.418 1755.7969,389.6523 Q1756.0625,389.8867 1756.0625,390.2773 Q1756.0625,390.6523 1755.7969,390.8867 Q1755.5313,391.1211 1754.9219,391.1211 L1749.7813,391.1211 Q1749.1719,391.1211 1748.9063,390.8867 Q1748.6406,390.6523 1748.6406,390.2617 Q1748.6406,389.8867 1748.9063,389.6523 Q1749.1719,389.418 1749.7813,389.418 L1751.5,389.418 L1751.5,382.7617 L1749.7813,382.7617 Q1749.1719,382.7617 1748.9063,382.5273 Q1748.6406,382.293 1748.6406,381.9023 Q1748.6406,381.5273 1748.9063,381.293 Q1749.1719,381.0586 1749.7813,381.0586 L1754.9219,381.0586 Q1755.5313,381.0586 1755.7969,381.293 Q1756.0625,381.5273 1756.0625,381.9023 Q1756.0625,382.293 1755.7969,382.5273 Q1755.5313,382.7617 1754.9219,382.7617 L1753.2031,382.7617 Z " fill="#000000"/><text fill="#000000" font-family="sans-serif" font-size="14" font-style="italic" lengthAdjust="spacing" textLength="45" x="1772.75" y="391.918">Sensor</text><line style="stroke:#181818;stroke-width:0.5;" x1="1623" x2="1935" y1="402.1211" y2="402.1211"/><line style="stroke:#181818;stroke-width:0.5;" x1="1623" x2="1935" y1="410.1211" y2="410.1211"/><ellipse cx="1633" cy="424.9316" fill="#84BE84" rx="3" ry="3" style="stroke:#038048;stroke-width:1.0;"/><text fill="#000000" font-family="sans-serif" font-size="14" lengthAdjust="spacing" textLength="156" x="1642" y="429.2285">getSensorName(): String</text><ellipse cx="1633" cy="443.5527" fill="#84BE84" rx="3" ry="3" style="stroke:#038048;stroke-width:1.0;"/><text fill="#000000" font-family="sans-serif" font-size="14" lengthAdjust="spacing" textLength="288" x="1642" y="447.8496">getSensorFunctionality(): SensorFunctionality</text></g><!--class SensorSpecificTime--><g id="elem_SensorSpecificTime"><rect codeLine="52" fill="#F1F1F1" height="66.6211" id="SensorSpecificTime" rx="2.5" ry="2.5" style="stroke:#181818;stroke-width:0.5;" width="390" x="1672" y="655.1211"/><ellipse cx="1800.25" cy="671.1211" fill="#B4A7E5" rx="11" ry="11" style="stroke:#181818;stroke-width:1.0;"/><path d="M1801.2031,667.7617 L1801.2031,674.418 L1802.9219,674.418 Q1803.5313,674.418 1803.7969,674.6523 Q1804.0625,674.8867 1804.0625,675.2773 Q1804.0625,675.6523 1803.7969,675.8867 Q1803.5313,676.1211 1802.9219,676.1211 L1797.7813,676.1211 Q1797.1719,676.1211 1796.9063,675.8867 Q1796.6406,675.6523 1796.6406,675.2617 Q1796.6406,674.8867 1796.9063,674.6523 Q1797.1719,674.418 1797.7813,674.418 L1799.5,674.418 L1799.5,667.7617 L1797.7813,667.7617 Q1797.1719,667.7617 1796.9063,667.5273 Q1796.6406,667.293 1796.6406,666.9023 Q1796.6406,666.5273 1796.9063,666.293 Q1797.1719,666.0586 1797.7813,666.0586 L1802.9219,666.0586 Q1803.5313,666.0586 1803.7969,666.293 Q1804.0625,666.5273 1804.0625,666.9023 Q1804.0625,667.293 1803.7969,667.5273 Q1803.5313,667.7617 1802.9219,667.7617 L1801.2031,667.7617 Z " fill="#000000"/><text fill="#000000" font-family="sans-serif" font-size="14" font-style="italic" lengthAdjust="spacing" textLength="125" x="1820.75" y="676.918">SensorSpecificTime</text><line style="stroke:#181818;stroke-width:0.5;" x1="1673" x2="2061" y1="687.1211" y2="687.1211"/><line style="stroke:#181818;stroke-width:0.5;" x1="1673" x2="2061" y1="695.1211" y2="695.1211"/><ellipse cx="1683" cy="709.9316" fill="#84BE84" rx="3" ry="3" style="stroke:#038048;stroke-width:1.0;"/><text fill="#000000" font-family="sans-serif" font-size="14" lengthAdjust="spacing" textLength="364" x="1692" y="714.2285">getValueForSpecificTime(Timestamp specificTime): String</text></g><!--class HumidityPercentageSensor--><g id="elem_HumidityPercentageSensor"><rect codeLine="56" fill="#F1F1F1" height="178.3477" id="HumidityPercentageSensor" rx="2.5" ry="2.5" style="stroke:#181818;stroke-width:0.5;" width="390" x="1500" y="856.6211"/><ellipse cx="1605.25" cy="872.6211" fill="#ADD1B2" rx="11" ry="11" style="stroke:#181818;stroke-width:1.0;"/><path d="M1608.0156,868.4961 Q1608.1719,868.2773 1608.3594,868.168 Q1608.5469,868.0586 1608.7656,868.0586 Q1609.1406,868.0586 1609.375,868.3242 Q1609.6094,868.5742 1609.6094,869.1836 L1609.6094,870.6367 Q1609.6094,871.2461 1609.375,871.5117 Q1609.1406,871.7773 1608.7656,871.7773 Q1608.4219,871.7773 1608.2188,871.5742 Q1608.0156,871.3867 1607.9063,870.8711 Q1607.8594,870.5117 1607.6719,870.3242 Q1607.3438,869.9492 1606.7344,869.7305 Q1606.125,869.5117 1605.5,869.5117 Q1604.7344,869.5117 1604.0938,869.8398 Q1603.4688,870.168 1602.9688,870.918 Q1602.4844,871.668 1602.4844,872.6992 L1602.4844,873.793 Q1602.4844,875.0273 1603.375,875.8555 Q1604.2656,876.668 1605.8594,876.668 Q1606.7969,876.668 1607.4531,876.418 Q1607.8438,876.2617 1608.2656,875.8242 Q1608.5313,875.5586 1608.6719,875.4805 Q1608.8281,875.4023 1609.0313,875.4023 Q1609.3594,875.4023 1609.6094,875.668 Q1609.875,875.918 1609.875,876.2617 Q1609.875,876.6055 1609.5313,877.0117 Q1609.0313,877.5898 1608.2344,877.918 Q1607.1563,878.3711 1605.8594,878.3711 Q1604.3438,878.3711 1603.1406,877.7461 Q1602.1563,877.2461 1601.4688,876.1836 Q1600.7813,875.1055 1600.7813,873.8242 L1600.7813,872.668 Q1600.7813,871.3398 1601.3906,870.1992 Q1602.0156,869.043 1603.1094,868.4336 Q1604.2031,867.8086 1605.4375,867.8086 Q1606.1719,867.8086 1606.8125,867.9805 Q1607.4688,868.1367 1608.0156,868.4961 Z " fill="#000000"/><text fill="#000000" font-family="sans-serif" font-size="14" lengthAdjust="spacing" textLength="171" x="1625.75" y="878.418">HumidityPercentageSensor</text><line style="stroke:#181818;stroke-width:0.5;" x1="1501" x2="1889" y1="888.6211" y2="888.6211"/><rect fill="none" height="6" style="stroke:#C82930;stroke-width:1.0;" width="6" x="1508" y="900.4316"/><text fill="#000000" font-family="sans-serif" font-size="14" lengthAdjust="spacing" textLength="124" x="1520" y="907.7285">sensorName: String</text><rect fill="none" height="6" style="stroke:#C82930;stroke-width:1.0;" width="6" x="1508" y="919.0527"/><text fill="#000000" font-family="sans-serif" font-size="14" lengthAdjust="spacing" textLength="256" x="1520" y="926.3496">sensorFunctionality: SensorFunctionality</text><rect fill="none" height="6" style="stroke:#C82930;stroke-width:1.0;" width="6" x="1508" y="937.6738"/><text fill="#000000" font-family="sans-serif" font-size="14" lengthAdjust="spacing" textLength="171" x="1520" y="944.9707">factoryValue: FactoryValue</text><rect fill="none" height="6" style="stroke:#C82930;stroke-width:1.0;" width="6" x="1508" y="956.2949"/><text fill="#000000" font-family="sans-serif" font-size="14" lengthAdjust="spacing" textLength="78" x="1520" y="963.5918">value: Value</text><line style="stroke:#181818;stroke-width:0.5;" x1="1501" x2="1889" y1="971.1055" y2="971.1055"/><ellipse cx="1511" cy="985.916" fill="#84BE84" rx="3" ry="3" style="stroke:#038048;stroke-width:1.0;"/><text fill="#000000" font-family="sans-serif" font-size="14" lengthAdjust="spacing" textLength="156" x="1520" y="990.2129">getSensorName(): String</text><ellipse cx="1511" cy="1004.5371" fill="#84BE84" rx="3" ry="3" style="stroke:#038048;stroke-width:1.0;"/><text fill="#000000" font-family="sans-serif" font-size="14" lengthAdjust="spacing" textLength="288" x="1520" y="1008.834">getSensorFunctionality(): SensorFunctionality</text><ellipse cx="1511" cy="1023.1582" fill="#84BE84" rx="3" ry="3" style="stroke:#038048;stroke-width:1.0;"/><text fill="#000000" font-family="sans-serif" font-size="14" lengthAdjust="spacing" textLength="364" x="1520" y="1027.4551">getValueForSpecificTime(Timestamp specificTime): String</text></g><!--class Value--><g id="elem_Value"><rect codeLine="66" fill="#F1F1F1" height="66.6211" id="Value" rx="2.5" ry="2.5" style="stroke:#181818;stroke-width:0.5;" width="185" x="1925.5" y="912.1211"/><ellipse cx="1995.75" cy="928.1211" fill="#B4A7E5" rx="11" ry="11" style="stroke:#181818;stroke-width:1.0;"/><path d="M1996.7031,924.7617 L1996.7031,931.418 L1998.4219,931.418 Q1999.0313,931.418 1999.2969,931.6523 Q1999.5625,931.8867 1999.5625,932.2773 Q1999.5625,932.6523 1999.2969,932.8867 Q1999.0313,933.1211 1998.4219,933.1211 L1993.2813,933.1211 Q1992.6719,933.1211 1992.4063,932.8867 Q1992.1406,932.6523 1992.1406,932.2617 Q1992.1406,931.8867 1992.4063,931.6523 Q1992.6719,931.418 1993.2813,931.418 L1995,931.418 L1995,924.7617 L1993.2813,924.7617 Q1992.6719,924.7617 1992.4063,924.5273 Q1992.1406,924.293 1992.1406,923.9023 Q1992.1406,923.5273 1992.4063,923.293 Q1992.6719,923.0586 1993.2813,923.0586 L1998.4219,923.0586 Q1999.0313,923.0586 1999.2969,923.293 Q1999.5625,923.5273 1999.5625,923.9023 Q1999.5625,924.293 1999.2969,924.5273 Q1999.0313,924.7617 1998.4219,924.7617 L1996.7031,924.7617 Z " fill="#000000"/><text fill="#000000" font-family="sans-serif" font-size="14" font-style="italic" lengthAdjust="spacing" textLength="36" x="2016.25" y="933.918">Value</text><line style="stroke:#181818;stroke-width:0.5;" x1="1926.5" x2="2109.5" y1="944.1211" y2="944.1211"/><line style="stroke:#181818;stroke-width:0.5;" x1="1926.5" x2="2109.5" y1="952.1211" y2="952.1211"/><ellipse cx="1936.5" cy="966.9316" fill="#84BE84" rx="3" ry="3" style="stroke:#038048;stroke-width:1.0;"/><text fill="#000000" font-family="sans-serif" font-size="14" lengthAdjust="spacing" textLength="159" x="1945.5" y="971.2285">getValueWithUnit():String</text></g><!--class HumidityPercentageSensorValue--><g id="elem_HumidityPercentageSensorValue"><rect codeLine="70" fill="#F1F1F1" height="103.8633" id="HumidityPercentageSensorValue" rx="2.5" ry="2.5" style="stroke:#181818;stroke-width:0.5;" width="239" x="1754.5" y="1113.6211"/><ellipse cx="1769.5" cy="1129.6211" fill="#ADD1B2" rx="11" ry="11" style="stroke:#181818;stroke-width:1.0;"/><path d="M1772.2656,1125.4961 Q1772.4219,1125.2773 1772.6094,1125.168 Q1772.7969,1125.0586 1773.0156,1125.0586 Q1773.3906,1125.0586 1773.625,1125.3242 Q1773.8594,1125.5742 1773.8594,1126.1836 L1773.8594,1127.6367 Q1773.8594,1128.2461 1773.625,1128.5117 Q1773.3906,1128.7773 1773.0156,1128.7773 Q1772.6719,1128.7773 1772.4688,1128.5742 Q1772.2656,1128.3867 1772.1563,1127.8711 Q1772.1094,1127.5117 1771.9219,1127.3242 Q1771.5938,1126.9492 1770.9844,1126.7305 Q1770.375,1126.5117 1769.75,1126.5117 Q1768.9844,1126.5117 1768.3438,1126.8398 Q1767.7188,1127.168 1767.2188,1127.918 Q1766.7344,1128.668 1766.7344,1129.6992 L1766.7344,1130.793 Q1766.7344,1132.0273 1767.625,1132.8555 Q1768.5156,1133.668 1770.1094,1133.668 Q1771.0469,1133.668 1771.7031,1133.418 Q1772.0938,1133.2617 1772.5156,1132.8242 Q1772.7813,1132.5586 1772.9219,1132.4805 Q1773.0781,1132.4023 1773.2813,1132.4023 Q1773.6094,1132.4023 1773.8594,1132.668 Q1774.125,1132.918 1774.125,1133.2617 Q1774.125,1133.6055 1773.7813,1134.0117 Q1773.2813,1134.5898 1772.4844,1134.918 Q1771.4063,1135.3711 1770.1094,1135.3711 Q1768.5938,1135.3711 1767.3906,1134.7461 Q1766.4063,1134.2461 1765.7188,1133.1836 Q1765.0313,1132.1055 1765.0313,1130.8242 L1765.0313,1129.668 Q1765.0313,1128.3398 1765.6406,1127.1992 Q1766.2656,1126.043 1767.3594,1125.4336 Q1768.4531,1124.8086 1769.6875,1124.8086 Q1770.4219,1124.8086 1771.0625,1124.9805 Q1771.7188,1125.1367 1772.2656,1125.4961 Z " fill="#000000"/><text fill="#000000" font-family="sans-serif" font-size="14" lengthAdjust="spacing" textLength="207" x="1783.5" y="1135.418">HumidityPercentageSensorValue</text><line style="stroke:#181818;stroke-width:0.5;" x1="1755.5" x2="1992.5" y1="1145.6211" y2="1145.6211"/><rect fill="none" height="6" style="stroke:#C82930;stroke-width:1.0;" width="6" x="1762.5" y="1157.4316"/><text fill="#000000" font-family="sans-serif" font-size="14" lengthAdjust="spacing" textLength="68" x="1774.5" y="1164.7285">unit: String</text><rect fill="none" height="6" style="stroke:#C82930;stroke-width:1.0;" width="6" x="1762.5" y="1176.0527"/><text fill="#000000" font-family="sans-serif" font-size="14" lengthAdjust="spacing" textLength="167" x="1774.5" y="1183.3496">readingInstant: Timestamp</text><line style="stroke:#181818;stroke-width:0.5;" x1="1755.5" x2="1992.5" y1="1190.8633" y2="1190.8633"/><ellipse cx="1765.5" cy="1205.6738" fill="#84BE84" rx="3" ry="3" style="stroke:#038048;stroke-width:1.0;"/><text fill="#000000" font-family="sans-serif" font-size="14" lengthAdjust="spacing" textLength="163" x="1774.5" y="1209.9707">getValueWithUnit(): String</text></g><!--class TemperatureCelsiusSensor--><g id="elem_TemperatureCelsiusSensor"><rect codeLine="77" fill="#F1F1F1" height="178.3477" id="TemperatureCelsiusSensor" rx="2.5" ry="2.5" style="stroke:#181818;stroke-width:0.5;" width="390" x="2146" y="856.6211"/><ellipse cx="2250.25" cy="872.6211" fill="#ADD1B2" rx="11" ry="11" style="stroke:#181818;stroke-width:1.0;"/><path d="M2253.0156,868.4961 Q2253.1719,868.2773 2253.3594,868.168 Q2253.5469,868.0586 2253.7656,868.0586 Q2254.1406,868.0586 2254.375,868.3242 Q2254.6094,868.5742 2254.6094,869.1836 L2254.6094,870.6367 Q2254.6094,871.2461 2254.375,871.5117 Q2254.1406,871.7773 2253.7656,871.7773 Q2253.4219,871.7773 2253.2188,871.5742 Q2253.0156,871.3867 2252.9063,870.8711 Q2252.8594,870.5117 2252.6719,870.3242 Q2252.3438,869.9492 2251.7344,869.7305 Q2251.125,869.5117 2250.5,869.5117 Q2249.7344,869.5117 2249.0938,869.8398 Q2248.4688,870.168 2247.9688,870.918 Q2247.4844,871.668 2247.4844,872.6992 L2247.4844,873.793 Q2247.4844,875.0273 2248.375,875.8555 Q2249.2656,876.668 2250.8594,876.668 Q2251.7969,876.668 2252.4531,876.418 Q2252.8438,876.2617 2253.2656,875.8242 Q2253.5313,875.5586 2253.6719,875.4805 Q2253.8281,875.4023 2254.0313,875.4023 Q2254.3594,875.4023 2254.6094,875.668 Q2254.875,875.918 2254.875,876.2617 Q2254.875,876.6055 2254.5313,877.0117 Q2254.0313,877.5898 2253.2344,877.918 Q2252.1563,878.3711 2250.8594,878.3711 Q2249.3438,878.3711 2248.1406,877.7461 Q2247.1563,877.2461 2246.4688,876.1836 Q2245.7813,875.1055 2245.7813,873.8242 L2245.7813,872.668 Q2245.7813,871.3398 2246.3906,870.1992 Q2247.0156,869.043 2248.1094,868.4336 Q2249.2031,867.8086 2250.4375,867.8086 Q2251.1719,867.8086 2251.8125,867.9805 Q2252.4688,868.1367 2253.0156,868.4961 Z " fill="#000000"/><text fill="#000000" font-family="sans-serif" font-size="14" lengthAdjust="spacing" textLength="173" x="2270.75" y="878.418">TemperatureCelsiusSensor</text><line style="stroke:#181818;stroke-width:0.5;" x1="2147" x2="2535" y1="888.6211" y2="888.6211"/><rect fill="none" height="6" style="stroke:#C82930;stroke-width:1.0;" width="6" x="2154" y="900.4316"/><text fill="#000000" font-family="sans-serif" font-size="14" lengthAdjust="spacing" textLength="124" x="2166" y="907.7285">sensorName: String</text><rect fill="none" height="6" style="stroke:#C82930;stroke-width:1.0;" width="6" x="2154" y="919.0527"/><text fill="#000000" font-family="sans-serif" font-size="14" lengthAdjust="spacing" textLength="208" x="2166" y="926.3496">functionality: SensorFunctionality</text><rect fill="none" height="6" style="stroke:#C82930;stroke-width:1.0;" width="6" x="2154" y="937.6738"/><text fill="#000000" font-family="sans-serif" font-size="14" lengthAdjust="spacing" textLength="171" x="2166" y="944.9707">factoryValue: FactoryValue</text><rect fill="none" height="6" style="stroke:#C82930;stroke-width:1.0;" width="6" x="2154" y="956.2949"/><text fill="#000000" font-family="sans-serif" font-size="14" lengthAdjust="spacing" textLength="78" x="2166" y="963.5918">value: Value</text><line style="stroke:#181818;stroke-width:0.5;" x1="2147" x2="2535" y1="971.1055" y2="971.1055"/><ellipse cx="2157" cy="985.916" fill="#84BE84" rx="3" ry="3" style="stroke:#038048;stroke-width:1.0;"/><text fill="#000000" font-family="sans-serif" font-size="14" lengthAdjust="spacing" textLength="156" x="2166" y="990.2129">getSensorName(): String</text><ellipse cx="2157" cy="1004.5371" fill="#84BE84" rx="3" ry="3" style="stroke:#038048;stroke-width:1.0;"/><text fill="#000000" font-family="sans-serif" font-size="14" lengthAdjust="spacing" textLength="288" x="2166" y="1008.834">getSensorFunctionality(): SensorFunctionality</text><ellipse cx="2157" cy="1023.1582" fill="#84BE84" rx="3" ry="3" style="stroke:#038048;stroke-width:1.0;"/><text fill="#000000" font-family="sans-serif" font-size="14" lengthAdjust="spacing" textLength="364" x="2166" y="1027.4551">getValueForSpecificTime(Timestamp specificTime): String</text></g><!--class TemperatureCelsiusSensorValue--><g id="elem_TemperatureCelsiusSensorValue"><rect codeLine="87" fill="#F1F1F1" height="103.8633" id="TemperatureCelsiusSensorValue" rx="2.5" ry="2.5" style="stroke:#181818;stroke-width:0.5;" width="241" x="2028.5" y="1113.6211"/><ellipse cx="2043.5" cy="1129.6211" fill="#ADD1B2" rx="11" ry="11" style="stroke:#181818;stroke-width:1.0;"/><path d="M2046.2656,1125.4961 Q2046.4219,1125.2773 2046.6094,1125.168 Q2046.7969,1125.0586 2047.0156,1125.0586 Q2047.3906,1125.0586 2047.625,1125.3242 Q2047.8594,1125.5742 2047.8594,1126.1836 L2047.8594,1127.6367 Q2047.8594,1128.2461 2047.625,1128.5117 Q2047.3906,1128.7773 2047.0156,1128.7773 Q2046.6719,1128.7773 2046.4688,1128.5742 Q2046.2656,1128.3867 2046.1563,1127.8711 Q2046.1094,1127.5117 2045.9219,1127.3242 Q2045.5938,1126.9492 2044.9844,1126.7305 Q2044.375,1126.5117 2043.75,1126.5117 Q2042.9844,1126.5117 2042.3438,1126.8398 Q2041.7188,1127.168 2041.2188,1127.918 Q2040.7344,1128.668 2040.7344,1129.6992 L2040.7344,1130.793 Q2040.7344,1132.0273 2041.625,1132.8555 Q2042.5156,1133.668 2044.1094,1133.668 Q2045.0469,1133.668 2045.7031,1133.418 Q2046.0938,1133.2617 2046.5156,1132.8242 Q2046.7813,1132.5586 2046.9219,1132.4805 Q2047.0781,1132.4023 2047.2813,1132.4023 Q2047.6094,1132.4023 2047.8594,1132.668 Q2048.125,1132.918 2048.125,1133.2617 Q2048.125,1133.6055 2047.7813,1134.0117 Q2047.2813,1134.5898 2046.4844,1134.918 Q2045.4063,1135.3711 2044.1094,1135.3711 Q2042.5938,1135.3711 2041.3906,1134.7461 Q2040.4063,1134.2461 2039.7188,1133.1836 Q2039.0313,1132.1055 2039.0313,1130.8242 L2039.0313,1129.668 Q2039.0313,1128.3398 2039.6406,1127.1992 Q2040.2656,1126.043 2041.3594,1125.4336 Q2042.4531,1124.8086 2043.6875,1124.8086 Q2044.4219,1124.8086 2045.0625,1124.9805 Q2045.7188,1125.1367 2046.2656,1125.4961 Z " fill="#000000"/><text fill="#000000" font-family="sans-serif" font-size="14" lengthAdjust="spacing" textLength="209" x="2057.5" y="1135.418">TemperatureCelsiusSensorValue</text><line style="stroke:#181818;stroke-width:0.5;" x1="2029.5" x2="2268.5" y1="1145.6211" y2="1145.6211"/><rect fill="none" height="6" style="stroke:#C82930;stroke-width:1.0;" width="6" x="2036.5" y="1157.4316"/><text fill="#000000" font-family="sans-serif" font-size="14" lengthAdjust="spacing" textLength="68" x="2048.5" y="1164.7285">unit: String</text><rect fill="none" height="6" style="stroke:#C82930;stroke-width:1.0;" width="6" x="2036.5" y="1176.0527"/><text fill="#000000" font-family="sans-serif" font-size="14" lengthAdjust="spacing" textLength="167" x="2048.5" y="1183.3496">readingInstant: Timestamp</text><line style="stroke:#181818;stroke-width:0.5;" x1="2029.5" x2="2268.5" y1="1190.8633" y2="1190.8633"/><ellipse cx="2039.5" cy="1205.6738" fill="#84BE84" rx="3" ry="3" style="stroke:#038048;stroke-width:1.0;"/><text fill="#000000" font-family="sans-serif" font-size="14" lengthAdjust="spacing" textLength="163" x="2048.5" y="1209.9707">getValueWithUnit(): String</text></g><!--class SensorFunctionality--><g id="elem_SensorFunctionality"><rect codeLine="93" fill="#F1F1F1" height="85.2422" id="SensorFunctionality" rx="2.5" ry="2.5" style="stroke:#181818;stroke-width:0.5;" width="157" x="1939.5" y="1278.6211"/><ellipse cx="1954.5" cy="1294.6211" fill="#EB937F" rx="11" ry="11" style="stroke:#181818;stroke-width:1.0;"/><path d="M1953.3594,1295.418 L1953.3594,1297.918 L1957.6875,1297.918 L1957.6875,1296.9961 Q1957.6875,1296.3867 1957.9219,1296.1211 Q1958.1719,1295.8555 1958.5469,1295.8555 Q1958.9219,1295.8555 1959.1563,1296.1211 Q1959.3906,1296.3867 1959.3906,1296.9961 L1959.3906,1299.6211 L1951.3906,1299.6211 Q1950.7656,1299.6211 1950.5,1299.3867 Q1950.25,1299.1523 1950.25,1298.7617 Q1950.25,1298.3867 1950.5156,1298.1523 Q1950.7813,1297.918 1951.3906,1297.918 L1951.6563,1297.918 L1951.6563,1291.2617 L1951.3906,1291.2617 Q1950.7656,1291.2617 1950.5,1291.0273 Q1950.25,1290.793 1950.25,1290.4023 Q1950.25,1290.0273 1950.5,1289.793 Q1950.7656,1289.5586 1951.3906,1289.5586 L1959.0156,1289.5586 L1959.0156,1292.1523 Q1959.0156,1292.7617 1958.7813,1293.0273 Q1958.5625,1293.2773 1958.1719,1293.2773 Q1957.7969,1293.2773 1957.5625,1293.0273 Q1957.3281,1292.7617 1957.3281,1292.1523 L1957.3281,1291.2617 L1953.3594,1291.2617 L1953.3594,1293.7148 L1954.8438,1293.7148 Q1954.8438,1293.0586 1954.9688,1292.8711 Q1955.2344,1292.4648 1955.7031,1292.4648 Q1956.0781,1292.4648 1956.3125,1292.7305 Q1956.5469,1292.9805 1956.5469,1293.5898 L1956.5469,1295.5586 Q1956.5469,1296.1055 1956.4219,1296.293 Q1956.1563,1296.6836 1955.7031,1296.6836 Q1955.2344,1296.6836 1954.9688,1296.2773 Q1954.8438,1296.0898 1954.8438,1295.418 L1953.3594,1295.418 Z " fill="#000000"/><text fill="#000000" font-family="sans-serif" font-size="14" lengthAdjust="spacing" textLength="125" x="1968.5" y="1300.418">SensorFunctionality</text><line style="stroke:#181818;stroke-width:0.5;" x1="1940.5" x2="2095.5" y1="1310.6211" y2="1310.6211"/><text fill="#000000" font-family="sans-serif" font-size="14" lengthAdjust="spacing" textLength="103" x="1945.5" y="1329.7285">TEMPERATURE</text><text fill="#000000" font-family="sans-serif" font-size="14" lengthAdjust="spacing" textLength="63" x="1945.5" y="1348.3496">HUMIDITY</text><line style="stroke:#181818;stroke-width:0.5;" x1="1940.5" x2="2095.5" y1="1355.8633" y2="1355.8633"/></g><!--class SensorCatalogue--><g id="elem_SensorCatalogue"><rect codeLine="98" fill="#F1F1F1" height="178.3477" id="SensorCatalogue" rx="2.5" ry="2.5" style="stroke:#181818;stroke-width:0.5;" width="336" x="1301" y="599.6211"/><ellipse cx="1409.75" cy="615.6211" fill="#ADD1B2" rx="11" ry="11" style="stroke:#181818;stroke-width:1.0;"/><path d="M1412.5156,611.4961 Q1412.6719,611.2773 1412.8594,611.168 Q1413.0469,611.0586 1413.2656,611.0586 Q1413.6406,611.0586 1413.875,611.3242 Q1414.1094,611.5742 1414.1094,612.1836 L1414.1094,613.6367 Q1414.1094,614.2461 1413.875,614.5117 Q1413.6406,614.7773 1413.2656,614.7773 Q1412.9219,614.7773 1412.7188,614.5742 Q1412.5156,614.3867 1412.4063,613.8711 Q1412.3594,613.5117 1412.1719,613.3242 Q1411.8438,612.9492 1411.2344,612.7305 Q1410.625,612.5117 1410,612.5117 Q1409.2344,612.5117 1408.5938,612.8398 Q1407.9688,613.168 1407.4688,613.918 Q1406.9844,614.668 1406.9844,615.6992 L1406.9844,616.793 Q1406.9844,618.0273 1407.875,618.8555 Q1408.7656,619.668 1410.3594,619.668 Q1411.2969,619.668 1411.9531,619.418 Q1412.3438,619.2617 1412.7656,618.8242 Q1413.0313,618.5586 1413.1719,618.4805 Q1413.3281,618.4023 1413.5313,618.4023 Q1413.8594,618.4023 1414.1094,618.668 Q1414.375,618.918 1414.375,619.2617 Q1414.375,619.6055 1414.0313,620.0117 Q1413.5313,620.5898 1412.7344,620.918 Q1411.6563,621.3711 1410.3594,621.3711 Q1408.8438,621.3711 1407.6406,620.7461 Q1406.6563,620.2461 1405.9688,619.1836 Q1405.2813,618.1055 1405.2813,616.8242 L1405.2813,615.668 Q1405.2813,614.3398 1405.8906,613.1992 Q1406.5156,612.043 1407.6094,611.4336 Q1408.7031,610.8086 1409.9375,610.8086 Q1410.6719,610.8086 1411.3125,610.9805 Q1411.9688,611.1367 1412.5156,611.4961 Z " fill="#000000"/><text fill="#000000" font-family="sans-serif" font-size="14" lengthAdjust="spacing" textLength="110" x="1430.25" y="621.418">SensorCatalogue</text><line style="stroke:#181818;stroke-width:0.5;" x1="1302" x2="1636" y1="631.6211" y2="631.6211"/><rect fill="none" height="6" style="stroke:#C82930;stroke-width:1.0;" width="6" x="1309" y="643.4316"/><text fill="#000000" font-family="sans-serif" font-size="14" lengthAdjust="spacing" textLength="176" x="1321" y="650.7285">sensorClasses: List&lt;String&gt;</text><rect fill="none" height="6" style="stroke:#C82930;stroke-width:1.0;" width="6" x="1309" y="662.0527"/><text fill="#000000" font-family="sans-serif" font-size="14" lengthAdjust="spacing" textLength="171" x="1321" y="669.3496">factoryValue: FactoryValue</text><line style="stroke:#181818;stroke-width:0.5;" x1="1302" x2="1636" y1="676.8633" y2="676.8633"/><ellipse cx="1312" cy="691.6738" fill="#84BE84" rx="3" ry="3" style="stroke:#038048;stroke-width:1.0;"/><text fill="#000000" font-family="sans-serif" font-size="14" lengthAdjust="spacing" textLength="208" x="1321" y="695.9707">getSensorClasses(): List&lt;String&gt;</text><ellipse cx="1312" cy="719.6055" fill="#84BE84" rx="3" ry="3" style="stroke:#038048;stroke-width:1.0;"/><text fill="#000000" font-family="sans-serif" font-size="14" lengthAdjust="spacing" textLength="183" x="1321" y="714.5918">createSensorFromCatalogue</text><text fill="#000000" font-family="sans-serif" font-size="14" lengthAdjust="spacing" textLength="310" x="1321" y="733.2129">(String sensorClass, String sensorName): Sensor</text><rect fill="#F24D5C" height="6" style="stroke:#C82930;stroke-width:1.0;" width="6" x="1309" y="744.5371"/><text fill="#000000" font-family="sans-serif" font-size="14" lengthAdjust="spacing" textLength="200" x="1321" y="751.834">loadConfig(String filePath): void</text><rect fill="#F24D5C" height="6" style="stroke:#C82930;stroke-width:1.0;" width="6" x="1309" y="763.1582"/><text fill="#000000" font-family="sans-serif" font-size="14" lengthAdjust="spacing" textLength="277" x="1321" y="770.4551">isSensorInList(String sensorName): boolean</text></g><!--class DeviceMapper--><g id="elem_DeviceMapper"><rect codeLine="107" fill="#F1F1F1" height="85.2422" id="DeviceMapper" rx="2.5" ry="2.5" style="stroke:#181818;stroke-width:0.5;" width="436" x="7" y="646.1211"/><ellipse cx="175.25" cy="662.1211" fill="#ADD1B2" rx="11" ry="11" style="stroke:#181818;stroke-width:1.0;"/><path d="M178.0156,657.9961 Q178.1719,657.7773 178.3594,657.668 Q178.5469,657.5586 178.7656,657.5586 Q179.1406,657.5586 179.375,657.8242 Q179.6094,658.0742 179.6094,658.6836 L179.6094,660.1367 Q179.6094,660.7461 179.375,661.0117 Q179.1406,661.2773 178.7656,661.2773 Q178.4219,661.2773 178.2188,661.0742 Q178.0156,660.8867 177.9063,660.3711 Q177.8594,660.0117 177.6719,659.8242 Q177.3438,659.4492 176.7344,659.2305 Q176.125,659.0117 175.5,659.0117 Q174.7344,659.0117 174.0938,659.3398 Q173.4688,659.668 172.9688,660.418 Q172.4844,661.168 172.4844,662.1992 L172.4844,663.293 Q172.4844,664.5273 173.375,665.3555 Q174.2656,666.168 175.8594,666.168 Q176.7969,666.168 177.4531,665.918 Q177.8438,665.7617 178.2656,665.3242 Q178.5313,665.0586 178.6719,664.9805 Q178.8281,664.9023 179.0313,664.9023 Q179.3594,664.9023 179.6094,665.168 Q179.875,665.418 179.875,665.7617 Q179.875,666.1055 179.5313,666.5117 Q179.0313,667.0898 178.2344,667.418 Q177.1563,667.8711 175.8594,667.8711 Q174.3438,667.8711 173.1406,667.2461 Q172.1563,666.7461 171.4688,665.6836 Q170.7813,664.6055 170.7813,663.3242 L170.7813,662.168 Q170.7813,660.8398 171.3906,659.6992 Q172.0156,658.543 173.1094,657.9336 Q174.2031,657.3086 175.4375,657.3086 Q176.1719,657.3086 176.8125,657.4805 Q177.4688,657.6367 178.0156,657.9961 Z " fill="#000000"/><text fill="#000000" font-family="sans-serif" font-size="14" lengthAdjust="spacing" textLength="91" x="195.75" y="667.918">DeviceMapper</text><line style="stroke:#181818;stroke-width:0.5;" x1="8" x2="442" y1="678.1211" y2="678.1211"/><line style="stroke:#181818;stroke-width:0.5;" x1="8" x2="442" y1="686.1211" y2="686.1211"/><ellipse cx="18" cy="700.9316" fill="#84BE84" rx="3" ry="3" style="stroke:#038048;stroke-width:1.0;"/><text fill="#000000" font-family="sans-serif" font-size="14" lengthAdjust="spacing" textLength="267" x="27" y="705.2285">deviceToDTO(Device device): DeviceDTO</text><ellipse cx="18" cy="719.5527" fill="#84BE84" rx="3" ry="3" style="stroke:#038048;stroke-width:1.0;"/><text fill="#000000" font-family="sans-serif" font-size="14" lengthAdjust="spacing" textLength="410" x="27" y="723.8496">deviceDTOList(DeviceList deviceList): Map&lt;DeviceDTO, Device&gt;</text></g><!--class RoomMapper--><g id="elem_RoomMapper"><rect codeLine="112" fill="#F1F1F1" height="103.8633" id="RoomMapper" rx="2.5" ry="2.5" style="stroke:#181818;stroke-width:0.5;" width="263" x="478.5" y="636.6211"/><ellipse cx="563.25" cy="652.6211" fill="#ADD1B2" rx="11" ry="11" style="stroke:#181818;stroke-width:1.0;"/><path d="M566.0156,648.4961 Q566.1719,648.2773 566.3594,648.168 Q566.5469,648.0586 566.7656,648.0586 Q567.1406,648.0586 567.375,648.3242 Q567.6094,648.5742 567.6094,649.1836 L567.6094,650.6367 Q567.6094,651.2461 567.375,651.5117 Q567.1406,651.7773 566.7656,651.7773 Q566.4219,651.7773 566.2188,651.5742 Q566.0156,651.3867 565.9063,650.8711 Q565.8594,650.5117 565.6719,650.3242 Q565.3438,649.9492 564.7344,649.7305 Q564.125,649.5117 563.5,649.5117 Q562.7344,649.5117 562.0938,649.8398 Q561.4688,650.168 560.9688,650.918 Q560.4844,651.668 560.4844,652.6992 L560.4844,653.793 Q560.4844,655.0273 561.375,655.8555 Q562.2656,656.668 563.8594,656.668 Q564.7969,656.668 565.4531,656.418 Q565.8438,656.2617 566.2656,655.8242 Q566.5313,655.5586 566.6719,655.4805 Q566.8281,655.4023 567.0313,655.4023 Q567.3594,655.4023 567.6094,655.668 Q567.875,655.918 567.875,656.2617 Q567.875,656.6055 567.5313,657.0117 Q567.0313,657.5898 566.2344,657.918 Q565.1563,658.3711 563.8594,658.3711 Q562.3438,658.3711 561.1406,657.7461 Q560.1563,657.2461 559.4688,656.1836 Q558.7813,655.1055 558.7813,653.8242 L558.7813,652.668 Q558.7813,651.3398 559.3906,650.1992 Q560.0156,649.043 561.1094,648.4336 Q562.2031,647.8086 563.4375,647.8086 Q564.1719,647.8086 564.8125,647.9805 Q565.4688,648.1367 566.0156,648.4961 Z " fill="#000000"/><text fill="#000000" font-family="sans-serif" font-size="14" lengthAdjust="spacing" textLength="85" x="583.75" y="658.418">RoomMapper</text><line style="stroke:#181818;stroke-width:0.5;" x1="479.5" x2="740.5" y1="668.6211" y2="668.6211"/><line style="stroke:#181818;stroke-width:0.5;" x1="479.5" x2="740.5" y1="676.6211" y2="676.6211"/><ellipse cx="489.5" cy="691.4316" fill="#84BE84" rx="3" ry="3" style="stroke:#038048;stroke-width:1.0;"/><text fill="#000000" font-family="sans-serif" font-size="14" lengthAdjust="spacing" textLength="237" x="498.5" y="695.7285">roomToDTO(Room room): RoomDTO</text><ellipse cx="489.5" cy="719.3633" fill="#84BE84" rx="3" ry="3" style="stroke:#038048;stroke-width:1.0;"/><text fill="#000000" font-family="sans-serif" font-size="14" lengthAdjust="spacing" textLength="200" x="498.5" y="714.3496">roomToDTO(Roomlist roomlist):</text><text fill="#000000" font-family="sans-serif" font-size="14" lengthAdjust="spacing" textLength="155" x="502.5" y="732.9707">Map&lt;RoomDTO, Room&gt;</text></g><!--class RoomDTO--><g id="elem_RoomDTO"><rect codeLine="118" fill="#F1F1F1" height="159.7266" id="RoomDTO" rx="2.5" ry="2.5" style="stroke:#181818;stroke-width:0.5;" width="174" x="523" y="865.6211"/><ellipse cx="572.25" cy="881.6211" fill="#ADD1B2" rx="11" ry="11" style="stroke:#181818;stroke-width:1.0;"/><path d="M575.0156,877.4961 Q575.1719,877.2773 575.3594,877.168 Q575.5469,877.0586 575.7656,877.0586 Q576.1406,877.0586 576.375,877.3242 Q576.6094,877.5742 576.6094,878.1836 L576.6094,879.6367 Q576.6094,880.2461 576.375,880.5117 Q576.1406,880.7773 575.7656,880.7773 Q575.4219,880.7773 575.2188,880.5742 Q575.0156,880.3867 574.9063,879.8711 Q574.8594,879.5117 574.6719,879.3242 Q574.3438,878.9492 573.7344,878.7305 Q573.125,878.5117 572.5,878.5117 Q571.7344,878.5117 571.0938,878.8398 Q570.4688,879.168 569.9688,879.918 Q569.4844,880.668 569.4844,881.6992 L569.4844,882.793 Q569.4844,884.0273 570.375,884.8555 Q571.2656,885.668 572.8594,885.668 Q573.7969,885.668 574.4531,885.418 Q574.8438,885.2617 575.2656,884.8242 Q575.5313,884.5586 575.6719,884.4805 Q575.8281,884.4023 576.0313,884.4023 Q576.3594,884.4023 576.6094,884.668 Q576.875,884.918 576.875,885.2617 Q576.875,885.6055 576.5313,886.0117 Q576.0313,886.5898 575.2344,886.918 Q574.1563,887.3711 572.8594,887.3711 Q571.3438,887.3711 570.1406,886.7461 Q569.1563,886.2461 568.4688,885.1836 Q567.7813,884.1055 567.7813,882.8242 L567.7813,881.668 Q567.7813,880.3398 568.3906,879.1992 Q569.0156,878.043 570.1094,877.4336 Q571.2031,876.8086 572.4375,876.8086 Q573.1719,876.8086 573.8125,876.9805 Q574.4688,877.1367 575.0156,877.4961 Z " fill="#000000"/><text fill="#000000" font-family="sans-serif" font-size="14" lengthAdjust="spacing" textLength="67" x="592.75" y="887.418">RoomDTO</text><line style="stroke:#181818;stroke-width:0.5;" x1="524" x2="696" y1="897.6211" y2="897.6211"/><rect fill="none" height="6" style="stroke:#C82930;stroke-width:1.0;" width="6" x="531" y="909.4316"/><text fill="#000000" font-family="sans-serif" font-size="14" lengthAdjust="spacing" textLength="113" x="543" y="916.7285">roomName: String</text><rect fill="none" height="6" style="stroke:#C82930;stroke-width:1.0;" width="6" x="531" y="928.0527"/><text fill="#000000" font-family="sans-serif" font-size="14" lengthAdjust="spacing" textLength="100" x="543" y="935.3496">floorNumber: int</text><rect fill="none" height="6" style="stroke:#C82930;stroke-width:1.0;" width="6" x="531" y="946.6738"/><text fill="#000000" font-family="sans-serif" font-size="14" lengthAdjust="spacing" textLength="127" x="543" y="953.9707">roomLength: double</text><rect fill="none" height="6" style="stroke:#C82930;stroke-width:1.0;" width="6" x="531" y="965.2949"/><text fill="#000000" font-family="sans-serif" font-size="14" lengthAdjust="spacing" textLength="119" x="543" y="972.5918">roomWidth: double</text><rect fill="none" height="6" style="stroke:#C82930;stroke-width:1.0;" width="6" x="531" y="983.916"/><text fill="#000000" font-family="sans-serif" font-size="14" lengthAdjust="spacing" textLength="123" x="543" y="991.2129">roomHeight: double</text><line style="stroke:#181818;stroke-width:0.5;" x1="524" x2="696" y1="998.7266" y2="998.7266"/><ellipse cx="534" cy="1013.5371" fill="#84BE84" rx="3" ry="3" style="stroke:#038048;stroke-width:1.0;"/><text fill="#000000" font-family="sans-serif" font-size="14" lengthAdjust="spacing" textLength="148" x="543" y="1017.834">getRoomName(): String</text></g><!--reverse link Sensor to SensorSpecificTime--><g id="link_Sensor_SensorSpecificTime"><path d="M1797.8713,472.3698 C1815.4613,527.1698 1840.54,605.2311 1856.55,655.0711 " fill="none" id="Sensor-backto-SensorSpecificTime" style="stroke:#181818;stroke-width:1.0;"/><polygon fill="none" points="1792.37,455.2311,1792.1584,474.2036,1803.5842,470.5361,1792.37,455.2311" style="stroke:#181818;stroke-width:1.0;"/></g><!--reverse link SensorSpecificTime to HumidityPercentageSensor--><g id="link_SensorSpecificTime_HumidityPercentageSensor"><path d="M1834.9769,737.0953 C1812.2469,770.8053 1785.81,809.9911 1754.5,856.4111 " fill="none" id="SensorSpecificTime-backto-HumidityPercentageSensor" style="stroke:#181818;stroke-width:1.0;stroke-dasharray:7.0,7.0;"/><polygon fill="none" points="1845.04,722.1711,1830.0021,733.741,1839.9516,740.4497,1845.04,722.1711" style="stroke:#181818;stroke-width:1.0;"/></g><!--reverse link Value to HumidityPercentageSensorValue--><g id="link_Value_HumidityPercentageSensorValue"><path d="M1986.5179,994.2795 C1963.0579,1029.7895 1935.17,1072.0211 1907.76,1113.5111 " fill="none" id="Value-backto-HumidityPercentageSensorValue" style="stroke:#181818;stroke-width:1.0;stroke-dasharray:7.0,7.0;"/><polygon fill="none" points="1996.44,979.2611,1981.5118,990.9722,1991.5241,997.5869,1996.44,979.2611" style="stroke:#181818;stroke-width:1.0;"/></g><!--reverse link SensorSpecificTime to TemperatureCelsiusSensor--><g id="link_SensorSpecificTime_TemperatureCelsiusSensor"><path d="M1943.3613,730.6996 C2006.0713,764.4396 2090.96,810.1011 2177.3,856.5511 " fill="none" id="SensorSpecificTime-backto-TemperatureCelsiusSensor" style="stroke:#181818;stroke-width:1.0;stroke-dasharray:7.0,7.0;"/><polygon fill="none" points="1927.51,722.1711,1940.5185,735.9834,1946.2042,725.4158,1927.51,722.1711" style="stroke:#181818;stroke-width:1.0;"/></g><!--reverse link Value to TemperatureCelsiusSensorValue--><g id="link_Value_TemperatureCelsiusSensorValue"><path d="M2046.8818,994.6894 C2068.2218,1030.1994 2093.36,1072.0211 2118.29,1113.5111 " fill="none" id="Value-backto-TemperatureCelsiusSensorValue" style="stroke:#181818;stroke-width:1.0;stroke-dasharray:7.0,7.0;"/><polygon fill="none" points="2037.61,979.2611,2041.739,997.78,2052.0246,991.5989,2037.61,979.2611" style="stroke:#181818;stroke-width:1.0;"/></g><!--link AddNewSensorToDeviceController to House--><g id="link_AddNewSensorToDeviceController_House"><path codeLine="127" d="M947.79,520.7311 C928.77,560.5111 908.07,603.8211 892.51,636.3511 " fill="none" id="AddNewSensorToDeviceController-House" style="stroke:#181818;stroke-width:1.0;"/></g><!--link AddNewSensorToDeviceController to Room--><g id="link_AddNewSensorToDeviceController_Room"><path codeLine="128" d="M1050.21,520.7311 C1062.7,546.8511 1073.3211,569.0784 1085.3311,594.1884 " fill="none" id="AddNewSensorToDeviceController-to-Room" style="stroke:#181818;stroke-width:1.0;stroke-dasharray:7.0,7.0;"/><polygon fill="#181818" points="1087.92,599.6011,1087.6452,589.7561,1085.7626,595.0905,1080.4282,593.2079,1087.92,599.6011" style="stroke:#181818;stroke-width:1.0;"/><text fill="#000000" font-family="sans-serif" font-size="13" lengthAdjust="spacing" textLength="28" x="1073" y="565.6494">uses</text></g><!--link AddNewSensorToDeviceController to DeviceMapper--><g id="link_AddNewSensorToDeviceController_DeviceMapper"><path codeLine="129" d="M797.41,482.0311 C696.23,516.6911 571.91,559.7811 461,599.6211 C419.64,614.4811 379.9991,629.1275 340.2791,643.9975 " fill="none" id="AddNewSensorToDeviceController-to-DeviceMapper" style="stroke:#181818;stroke-width:1.0;stroke-dasharray:7.0,7.0;"/><polygon fill="#181818" points="334.66,646.1011,344.4911,646.6917,339.3426,644.3481,341.6863,639.1995,334.66,646.1011" style="stroke:#181818;stroke-width:1.0;"/><text fill="#000000" font-family="sans-serif" font-size="13" lengthAdjust="spacing" textLength="28" x="595" y="565.6494">uses</text></g><!--link DeviceMapper to DeviceDTO--><g id="link_DeviceMapper_DeviceDTO"><path codeLine="130" d="M225,731.1611 C225,778.5811 225,849.6911 225,897.1011 " fill="none" id="DeviceMapper-to-DeviceDTO" style="stroke:#181818;stroke-width:1.0;stroke-dasharray:7.0,7.0;"/><polygon fill="#181818" points="225,903.1011,229,894.1011,225,898.1011,221,894.1011,225,903.1011" style="stroke:#181818;stroke-width:1.0;"/><text fill="#000000" font-family="sans-serif" font-size="13" lengthAdjust="spacing" textLength="28" x="226" y="822.6494">uses</text></g><!--link AddNewSensorToDeviceController to RoomMapper--><g id="link_AddNewSensorToDeviceController_RoomMapper"><path codeLine="131" d="M846.93,520.7311 C790.36,560.5811 733.6452,600.5259 687.4352,633.0759 " fill="none" id="AddNewSensorToDeviceController-to-RoomMapper" style="stroke:#181818;stroke-width:1.0;stroke-dasharray:7.0,7.0;"/><polygon fill="#181818" points="682.53,636.5311,692.1914,634.6184,686.6177,633.6517,687.5844,628.0781,682.53,636.5311" style="stroke:#181818;stroke-width:1.0;"/><text fill="#000000" font-family="sans-serif" font-size="13" lengthAdjust="spacing" textLength="28" x="805" y="565.6494">uses</text></g><!--link RoomMapper to RoomDTO--><g id="link_RoomMapper_RoomDTO"><path codeLine="132" d="M610,740.9211 C610,776.5511 610,818.7211 610,859.2811 " fill="none" id="RoomMapper-to-RoomDTO" style="stroke:#181818;stroke-width:1.0;stroke-dasharray:7.0,7.0;"/><polygon fill="#181818" points="610,865.2811,614,856.2811,610,860.2811,606,856.2811,610,865.2811" style="stroke:#181818;stroke-width:1.0;"/><text fill="#000000" font-family="sans-serif" font-size="13" lengthAdjust="spacing" textLength="28" x="611" y="822.6494">uses</text></g><!--link AddNewSensorToDeviceController to SensorCatalogue--><g id="link_AddNewSensorToDeviceController_SensorCatalogue"><path codeLine="133" d="M1182.73,520.7311 C1227.53,546.8511 1274.94,574.4911 1318.02,599.6011 " fill="none" id="AddNewSensorToDeviceController-SensorCatalogue" style="stroke:#181818;stroke-width:1.0;"/></g><!--link Device to Sensor--><g id="link_Device_Sensor"><path codeLine="134" d="M1583.11,243.8511 C1633.87,287.3211 1690.92,336.1911 1730.31,369.9211 " fill="none" id="Device-Sensor" style="stroke:#181818;stroke-width:1.0;"/><text fill="#000000" font-family="sans-serif" font-size="13" lengthAdjust="spacing" textLength="7" x="1584.2329" y="265.766">1</text><text fill="#000000" font-family="sans-serif" font-size="13" lengthAdjust="spacing" textLength="20" x="1700.9563" y="358.7933">0..*</text></g><!--link Device to SensorCatalogue--><g id="link_Device_SensorCatalogue"><path codeLine="135" d="M1469,243.8711 C1469,345.1611 1469,496.0411 1469,593.5911 " fill="none" id="Device-to-SensorCatalogue" style="stroke:#181818;stroke-width:1.0;stroke-dasharray:7.0,7.0;"/><polygon fill="#181818" points="1469,599.5911,1473,590.5911,1469,594.5911,1465,590.5911,1469,599.5911" style="stroke:#181818;stroke-width:1.0;"/><text fill="#000000" font-family="sans-serif" font-size="13" lengthAdjust="spacing" textLength="28" x="1470" y="418.1494">uses</text></g><!--link HumidityPercentageSensor to HumidityPercentageSensorValue--><g id="link_HumidityPercentageSensor_HumidityPercentageSensorValue"><path codeLine="136" d="M1767.29,1034.6611 C1789.32,1061.4911 1812.79,1090.0711 1832.09,1113.5811 " fill="none" id="HumidityPercentageSensor-HumidityPercentageSensorValue" style="stroke:#181818;stroke-width:1.0;"/><text fill="#000000" font-family="sans-serif" font-size="13" lengthAdjust="spacing" textLength="21" x="1806" y="1079.6494">has</text></g><!--link HumidityPercentageSensor to SensorFunctionality--><g id="link_HumidityPercentageSensor_SensorFunctionality"><path codeLine="137" d="M1677.89,1034.7111 C1671.83,1092.4711 1674.5,1166.4911 1714,1217.6211 C1767.12,1286.3811 1868.39,1309.4011 1939.4,1316.8911 " fill="none" id="HumidityPercentageSensor-SensorFunctionality" style="stroke:#181818;stroke-width:1.0;"/><text fill="#000000" font-family="sans-serif" font-size="13" lengthAdjust="spacing" textLength="21" x="1715" y="1171.1494">has</text></g><!--link TemperatureCelsiusSensor to TemperatureCelsiusSensorValue--><g id="link_TemperatureCelsiusSensor_TemperatureCelsiusSensorValue"><path codeLine="138" d="M2263.46,1034.6611 C2239.83,1061.4911 2214.66,1090.0711 2193.95,1113.5811 " fill="none" id="TemperatureCelsiusSensor-TemperatureCelsiusSensorValue" style="stroke:#181818;stroke-width:1.0;"/><text fill="#000000" font-family="sans-serif" font-size="13" lengthAdjust="spacing" textLength="21" x="2234" y="1079.6494">has</text></g><!--link TemperatureCelsiusSensor to SensorFunctionality--><g id="link_TemperatureCelsiusSensor_SensorFunctionality"><path codeLine="139" d="M2344.37,1034.6811 C2342,1092.8011 2329.58,1167.2411 2287,1217.6211 C2239.5,1273.8211 2157.64,1299.2811 2096.67,1310.7711 " fill="none" id="TemperatureCelsiusSensor-SensorFunctionality" style="stroke:#181818;stroke-width:1.0;"/><text fill="#000000" font-family="sans-serif" font-size="13" lengthAdjust="spacing" textLength="21" x="2335" y="1171.1494">has</text></g><!--link Device to AddNewSensorToDeviceController--><g id="link_Device_AddNewSensorToDeviceController"><path codeLine="140" d="M1296.32,243.6611 C1261.23,263.4911 1224.15,284.4411 1188.51,304.5711 " fill="none" id="Device-AddNewSensorToDeviceController" style="stroke:#181818;stroke-width:1.0;"/></g><!--SRC=[tLTBRziu4BxhLn2vrDbOJlUqWB08OCGnOg1fWzZUOj7kWP5ecm152YALR13ql-yCNvByYXTjBxt4vBpdcw5cOhWHZ2pdx__8o5WJIkxLCwl9KiEVBwecuwBaacjJKwFgVuPaHfwfDCGeGei2n3MJ6iJmBWdx5oIvN9E2FV6S4Iv1ebQg7975XWNPij66F3AYLi0jLS64FNRKpKjbsKvXbBpR65FfxFAo4k2yASKeL-LbBgZMQS7fkgPbajWhn5jyPCzpgxXG4nl7jPAcLa90Igz9kb6DPXcvnPyaTIwkgQ52hHkWp_k49CNuzMJnQIoB1pncv8vMV-8HY4E2XwiaTHbxEUVMIxgBbNN7g-HYpGpgVO1yWJ4upmWUWr4du8I3Y6TPDE4tQ4JZJYU6_MarVg9Sq4V1V4A83jFHrTpKW3HeGHdxQ0sYJLz66_fNIPoABugrD-pJFjAIWVr7fGIZClaMQj8QV0r0eMZcjJlP8Xb3z8nemHOBjONAgU5AGXR-v0g4EMKaODe36Er5HhI853I8ohrWqfLGa4fJFh8wWmus438l8J_m1HMTn7D8nRbkgmKMQ0wFvMNIKPjkargfZf7fDcch4J2L3XEIwI5y05vFkyENrXAreQRHUCVVy11S7Av3B05Q6u9gyFLtU6DFWlx9QqQDRp9eVNX_iP5sccE8NTH_NsJh0GxtjDbvU9L9ohKxpQJ5uutsW-gn6d1cNXy0Ga3dKRpJQorZsiWSEuiARbu6qNcFlC_wl68vN_5y0KM6RvbXij1zntzHqR1fNtA0Vw0OPKLqXxpl4JGbBy3tFQjp9WrTUzG9Bol1eB6CtXF9QoXjloVqRaxx4mrzQcEFBMflIVhaYExsew3z7gJQcbWBNTm_SxDPIewFw5HadOqEl9O0Y3PWfyKINa01Xvc4u2JGOvnxdNUYzUuNhAmO3DYcPjTCQDxexoZiwbShwN6CVdQ9c6pAVIb1Porkxkvl7iQBvSDDShkycqrcYx_RWBU_Sx5SVX9lpU5ZDMd1FZZ5kr_XQQtAwFUh79mwjyCtLYXQmCgqukkWkkA2tLEp0Q4dnOl_-ndkpYZOY2gxXrsugGJ30hORFxySAGuvu0GnE5fFxVGZxVGzFxXezSPzT4t81Ovzvzek0dZrQm8wtH4GwB3sX_CCnjYU7R3lpQyxf-mNTe5XScqs6IbK0pkRettcnJRfbl7rnaHQs7DszwOtzk0qzGlm6tAZqPND9YCWh4-HxfRPQ_Kgtye0GgURRGleTJeL3VoJ3MBwEuk-xy6pty-GVVP-DFhjBBm9pqD7y-r_6Ap3WxCPWJusNJAoeSVLv_icDIeT71kWTFHp-QRw4QSU2H0vZd7o7m00]--></g></svg>