<?xml version="1.0" encoding="us-ascii" standalone="no"?><svg xmlns="http://www.w3.org/2000/svg" xmlns:xlink="http://www.w3.org/1999/xlink" contentStyleType="text/css" height="697px" preserveAspectRatio="none" style="width:1403px;height:697px;background:#FFFFFF;" version="1.1" viewBox="0 0 1403 697" width="1403px" zoomAndPan="magnify"><defs/><g><text fill="#000000" font-family="sans-serif" font-size="14" font-weight="bold" lengthAdjust="spacing" textLength="1055" x="173" y="30.1074">As a Power User [or Administrator], I want to add a sensor to an existing device in a room. The sensor must be of a model of an existing type of sensor.</text><rect fill="#FFFFFF" height="539.2871" style="stroke:#181818;stroke-width:1.0;" width="10" x="526" y="111.5332"/><rect fill="#FFFFFF" height="31.291" style="stroke:#181818;stroke-width:1.0;" width="10" x="721" y="253.6582"/><rect fill="#FFFFFF" height="227.707" style="stroke:#181818;stroke-width:1.0;" width="10" x="1161" y="423.1133"/><rect fill="none" height="161.0859" style="stroke:#000000;stroke-width:1.5;" width="1203.5" x="3" y="481.7344"/><line style="stroke:#181818;stroke-width:0.5;stroke-dasharray:5.0,5.0;" x1="531" x2="531" y1="78.2422" y2="659.8203"/><line style="stroke:#181818;stroke-width:0.5;stroke-dasharray:5.0,5.0;" x1="726" x2="726" y1="78.2422" y2="659.8203"/><line style="stroke:#181818;stroke-width:0.5;stroke-dasharray:5.0,5.0;" x1="851" x2="851" y1="78.2422" y2="659.8203"/><line style="stroke:#181818;stroke-width:0.5;stroke-dasharray:5.0,5.0;" x1="1165.5" x2="1165.5" y1="78.2422" y2="659.8203"/><line style="stroke:#181818;stroke-width:0.5;stroke-dasharray:5.0,5.0;" x1="1330" x2="1330" y1="462.9238" y2="659.8203"/><rect fill="#E2E2F0" height="32.6211" rx="2.5" ry="2.5" style="stroke:#181818;stroke-width:0.5;" width="236" x="413" y="44.6211"/><text fill="#000000" font-family="sans-serif" font-size="14" lengthAdjust="spacing" textLength="222" x="420" y="66.7285">:AddNewSensorToDeviceController</text><rect fill="#E2E2F0" height="32.6211" rx="2.5" ry="2.5" style="stroke:#181818;stroke-width:0.5;" width="236" x="413" y="658.8203"/><text fill="#000000" font-family="sans-serif" font-size="14" lengthAdjust="spacing" textLength="222" x="420" y="680.9277">:AddNewSensorToDeviceController</text><rect fill="#E2E2F0" height="32.6211" rx="2.5" ry="2.5" style="stroke:#181818;stroke-width:0.5;" width="128" x="662" y="44.6211"/><text fill="#000000" font-family="sans-serif" font-size="14" lengthAdjust="spacing" textLength="114" x="669" y="66.7285">:SensorCatalogue</text><rect fill="#E2E2F0" height="32.6211" rx="2.5" ry="2.5" style="stroke:#181818;stroke-width:0.5;" width="128" x="662" y="658.8203"/><text fill="#000000" font-family="sans-serif" font-size="14" lengthAdjust="spacing" textLength="114" x="669" y="680.9277">:SensorCatalogue</text><rect fill="#E2E2F0" height="32.6211" rx="2.5" ry="2.5" style="stroke:#181818;stroke-width:0.5;" width="103" x="800" y="44.6211"/><text fill="#000000" font-family="sans-serif" font-size="14" lengthAdjust="spacing" textLength="89" x="807" y="66.7285">:RoomMapper</text><rect fill="#E2E2F0" height="32.6211" rx="2.5" ry="2.5" style="stroke:#181818;stroke-width:0.5;" width="103" x="800" y="658.8203"/><text fill="#000000" font-family="sans-serif" font-size="14" lengthAdjust="spacing" textLength="89" x="807" y="680.9277">:RoomMapper</text><rect fill="#E2E2F0" height="32.6211" rx="2.5" ry="2.5" style="stroke:#181818;stroke-width:0.5;" width="61" x="1135.5" y="44.6211"/><text fill="#000000" font-family="sans-serif" font-size="14" lengthAdjust="spacing" textLength="47" x="1142.5" y="66.7285">:Device</text><rect fill="#E2E2F0" height="32.6211" rx="2.5" ry="2.5" style="stroke:#181818;stroke-width:0.5;" width="61" x="1135.5" y="658.8203"/><text fill="#000000" font-family="sans-serif" font-size="14" lengthAdjust="spacing" textLength="47" x="1142.5" y="680.9277">:Device</text><rect fill="#E2E2F0" height="32.6211" rx="2.5" ry="2.5" style="stroke:#181818;stroke-width:0.5;" width="134" x="1263" y="658.8203"/><text fill="#000000" font-family="sans-serif" font-size="14" lengthAdjust="spacing" textLength="120" x="1270" y="680.9277">&#171;interface&#187;:Sensor</text><rect fill="#FFFFFF" height="539.2871" style="stroke:#181818;stroke-width:1.0;" width="10" x="526" y="111.5332"/><rect fill="#FFFFFF" height="31.291" style="stroke:#181818;stroke-width:1.0;" width="10" x="721" y="253.6582"/><rect fill="#FFFFFF" height="227.707" style="stroke:#181818;stroke-width:1.0;" width="10" x="1161" y="423.1133"/><polygon fill="#181818" points="514,107.5332,524,111.5332,514,115.5332,518,111.5332" style="stroke:#181818;stroke-width:1.0;"/><line style="stroke:#181818;stroke-width:1.0;" x1="0" x2="520" y1="111.5332" y2="111.5332"/><text fill="#000000" font-family="sans-serif" font-size="13" font-weight="bold" lengthAdjust="spacing" textLength="7" x="7" y="106.2705">1</text><text fill="#000000" font-family="sans-serif" font-size="13" lengthAdjust="spacing" textLength="81" x="18" y="106.2705">getRoomList()</text><rect fill="none" height="43.252" style="stroke:#000000;stroke-width:1.5;" width="242" x="410" y="119.5332"/><path d="M410,119.5332 L472,119.5332 L472,128.5332 L462,138.5332 L410,138.5332 L410,119.5332 " fill="#EEEEEE" style="stroke:#000000;stroke-width:2.0;"/><text fill="#000000" font-family="sans-serif" font-size="13" font-weight="bold" lengthAdjust="spacing" textLength="17" x="423" y="135.5615">ref</text><text fill="#000000" font-family="sans-serif" font-size="12" lengthAdjust="spacing" textLength="135" x="463.5" y="155.4824">US06SequenceDiagram</text><polygon fill="#181818" points="11,187.0762,1,191.0762,11,195.0762,7,191.0762" style="stroke:#181818;stroke-width:1.0;"/><line style="stroke:#181818;stroke-width:1.0;stroke-dasharray:2.0,2.0;" x1="5" x2="525" y1="191.0762" y2="191.0762"/><text fill="#000000" font-family="sans-serif" font-size="13" font-weight="bold" lengthAdjust="spacing" textLength="7" x="17" y="185.8135">2</text><text fill="#000000" font-family="sans-serif" font-size="13" lengthAdjust="spacing" textLength="83" x="28" y="185.8135">deviceListDTO</text><polygon fill="#181818" points="514,218.3672,524,222.3672,514,226.3672,518,222.3672" style="stroke:#181818;stroke-width:1.0;"/><line style="stroke:#181818;stroke-width:1.0;" x1="0" x2="520" y1="222.3672" y2="222.3672"/><text fill="#000000" font-family="sans-serif" font-size="13" font-weight="bold" lengthAdjust="spacing" textLength="7" x="7" y="217.1045">3</text><text fill="#000000" font-family="sans-serif" font-size="13" lengthAdjust="spacing" textLength="236" x="18" y="217.1045">getCatalogueOfAvailableSensorClasses()</text><polygon fill="#181818" points="709,249.6582,719,253.6582,709,257.6582,713,253.6582" style="stroke:#181818;stroke-width:1.0;"/><line style="stroke:#181818;stroke-width:1.0;" x1="536" x2="715" y1="253.6582" y2="253.6582"/><text fill="#000000" font-family="sans-serif" font-size="13" font-weight="bold" lengthAdjust="spacing" textLength="7" x="543" y="248.3955">4</text><text fill="#000000" font-family="sans-serif" font-size="13" lengthAdjust="spacing" textLength="114" x="554" y="248.3955">getSensorClasses()</text><polygon fill="#181818" points="547,280.9492,537,284.9492,547,288.9492,543,284.9492" style="stroke:#181818;stroke-width:1.0;"/><line style="stroke:#181818;stroke-width:1.0;stroke-dasharray:2.0,2.0;" x1="541" x2="725" y1="284.9492" y2="284.9492"/><text fill="#000000" font-family="sans-serif" font-size="13" font-weight="bold" lengthAdjust="spacing" textLength="7" x="553" y="279.6865">5</text><text fill="#000000" font-family="sans-serif" font-size="13" lengthAdjust="spacing" textLength="71" x="564" y="279.6865">List&lt;String&gt;</text><polygon fill="#181818" points="11,312.2402,1,316.2402,11,320.2402,7,316.2402" style="stroke:#181818;stroke-width:1.0;"/><line style="stroke:#181818;stroke-width:1.0;stroke-dasharray:2.0,2.0;" x1="5" x2="525" y1="316.2402" y2="316.2402"/><text fill="#000000" font-family="sans-serif" font-size="13" font-weight="bold" lengthAdjust="spacing" textLength="7" x="17" y="310.9775">6</text><text fill="#000000" font-family="sans-serif" font-size="13" lengthAdjust="spacing" textLength="71" x="28" y="310.9775">List&lt;String&gt;</text><polygon fill="#181818" points="514,343.5313,524,347.5313,514,351.5313,518,347.5313" style="stroke:#181818;stroke-width:1.0;"/><line style="stroke:#181818;stroke-width:1.0;" x1="0" x2="520" y1="347.5313" y2="347.5313"/><text fill="#000000" font-family="sans-serif" font-size="13" font-weight="bold" lengthAdjust="spacing" textLength="7" x="7" y="342.2686">7</text><text fill="#000000" font-family="sans-serif" font-size="13" lengthAdjust="spacing" textLength="489" x="18" y="342.2686">addSensorToDevice(DeviceDTO deviceDTO, String sensorClass, String sensorName)</text><line style="stroke:#181818;stroke-width:1.0;" x1="536" x2="578" y1="378.8223" y2="378.8223"/><line style="stroke:#181818;stroke-width:1.0;" x1="578" x2="578" y1="378.8223" y2="391.8223"/><line style="stroke:#181818;stroke-width:1.0;" x1="537" x2="578" y1="391.8223" y2="391.8223"/><polygon fill="#181818" points="547,387.8223,537,391.8223,547,395.8223,543,391.8223" style="stroke:#181818;stroke-width:1.0;"/><text fill="#000000" font-family="sans-serif" font-size="13" font-weight="bold" lengthAdjust="spacing" textLength="7" x="543" y="373.5596">8</text><text fill="#000000" font-family="sans-serif" font-size="13" lengthAdjust="spacing" textLength="160" x="554" y="373.5596">get.(DeviceDTO deviceDTO)</text><polygon fill="#181818" points="1149,419.1133,1159,423.1133,1149,427.1133,1153,423.1133" style="stroke:#181818;stroke-width:1.0;"/><line style="stroke:#181818;stroke-width:1.0;" x1="536" x2="1155" y1="423.1133" y2="423.1133"/><text fill="#000000" font-family="sans-serif" font-size="13" font-weight="bold" lengthAdjust="spacing" textLength="7" x="543" y="417.8506">9</text><text fill="#000000" font-family="sans-serif" font-size="13" lengthAdjust="spacing" textLength="595" x="554" y="417.8506">createSensorAndAddToDevice(String sensorName, SensorCatalogue sensorClass, String sensorClass)</text><polygon fill="#181818" points="1251,450.4043,1261,454.4043,1251,458.4043,1255,454.4043" style="stroke:#181818;stroke-width:1.0;"/><line style="stroke:#181818;stroke-width:1.0;stroke-dasharray:2.0,2.0;" x1="1171" x2="1257" y1="454.4043" y2="454.4043"/><text fill="#000000" font-family="sans-serif" font-size="13" font-weight="bold" lengthAdjust="spacing" textLength="14" x="1178" y="449.1416">10</text><text fill="#000000" font-family="sans-serif" font-size="13" lengthAdjust="spacing" textLength="50" x="1196" y="449.1416">&#171;create&#187;</text><rect fill="#E2E2F0" height="32.6211" rx="2.5" ry="2.5" style="stroke:#181818;stroke-width:0.5;" width="134" x="1263" y="431.1133"/><text fill="#000000" font-family="sans-serif" font-size="14" lengthAdjust="spacing" textLength="120" x="1270" y="453.2207">&#171;interface&#187;:Sensor</text><path d="M3,481.7344 L64,481.7344 L64,491.0254 L54,501.0254 L3,501.0254 L3,481.7344 " fill="#EEEEEE" style="stroke:#000000;stroke-width:1.5;"/><rect fill="none" height="161.0859" style="stroke:#000000;stroke-width:1.5;" width="1203.5" x="3" y="481.7344"/><text fill="#000000" font-family="sans-serif" font-size="13" font-weight="bold" lengthAdjust="spacing" textLength="16" x="18" y="496.7627">alt</text><text fill="#000000" font-family="sans-serif" font-size="11" font-weight="bold" lengthAdjust="spacing" textLength="98" x="79" y="495.6045">[Sensor is added]</text><polygon fill="#181818" points="547,520.3164,537,524.3164,547,528.3164,543,524.3164" style="stroke:#181818;stroke-width:1.0;"/><line style="stroke:#181818;stroke-width:1.0;stroke-dasharray:2.0,2.0;" x1="541" x2="1160" y1="524.3164" y2="524.3164"/><text fill="#000000" font-family="sans-serif" font-size="13" font-weight="bold" lengthAdjust="spacing" textLength="14" x="553" y="519.0537">11</text><text fill="#000000" font-family="sans-serif" font-size="13" lengthAdjust="spacing" textLength="22" x="571" y="519.0537">true</text><polygon fill="#181818" points="11,551.6074,1,555.6074,11,559.6074,7,555.6074" style="stroke:#181818;stroke-width:1.0;"/><line style="stroke:#181818;stroke-width:1.0;stroke-dasharray:2.0,2.0;" x1="5" x2="525" y1="555.6074" y2="555.6074"/><text fill="#000000" font-family="sans-serif" font-size="13" font-weight="bold" lengthAdjust="spacing" textLength="14" x="17" y="550.3447">12</text><text fill="#000000" font-family="sans-serif" font-size="13" lengthAdjust="spacing" textLength="22" x="35" y="550.3447">true</text><line style="stroke:#000000;stroke-width:1.0;stroke-dasharray:2.0,2.0;" x1="3" x2="1206.5" y1="564.6074" y2="564.6074"/><text fill="#000000" font-family="sans-serif" font-size="11" font-weight="bold" lengthAdjust="spacing" textLength="119" x="8" y="576.4775">[Sensor is not added]</text><polygon fill="#181818" points="547,599.5293,537,603.5293,547,607.5293,543,603.5293" style="stroke:#181818;stroke-width:1.0;"/><line style="stroke:#181818;stroke-width:1.0;stroke-dasharray:2.0,2.0;" x1="541" x2="1160" y1="603.5293" y2="603.5293"/><text fill="#000000" font-family="sans-serif" font-size="13" font-weight="bold" lengthAdjust="spacing" textLength="14" x="553" y="598.2666">13</text><text fill="#000000" font-family="sans-serif" font-size="13" lengthAdjust="spacing" textLength="27" x="571" y="598.2666">false</text><polygon fill="#181818" points="11,630.8203,1,634.8203,11,638.8203,7,634.8203" style="stroke:#181818;stroke-width:1.0;"/><line style="stroke:#181818;stroke-width:1.0;stroke-dasharray:2.0,2.0;" x1="5" x2="525" y1="634.8203" y2="634.8203"/><text fill="#000000" font-family="sans-serif" font-size="13" font-weight="bold" lengthAdjust="spacing" textLength="14" x="17" y="629.5576">14</text><text fill="#000000" font-family="sans-serif" font-size="13" lengthAdjust="spacing" textLength="27" x="35" y="629.5576">false</text><!--SRC=[XLDDRzim3BthLn2vh2tYPASD20m3GNCPiBN3afw67HIBJWN8aYVHoVRlHqkUapZkveDDYU-HZnz-zqhKXDLosHXfgQtDedJrCk3F5cs9cTBou6KjX6p9sRRUenU2D1c4sJg0XA_kX1vU0h- -EmzhLMkh0tb9pl-OmoSuSLWW1r8fXWUqWM7TsGB-OgIs1r1ur2M2jepmpjKBsBtYNspT1e8zWglOMpk59feNTFhTH7SYB6P2DDAJBdNJvPwjraezuMaRlJktYSaUdINlZ44_0ndWPVl-u_bgn4_CHqdIk4EBaJ2SHjXlBF-BR9e-xlaumYKL4PFCQt-UQqleArbYKVG28ZYPWf-i6AbUmG6fI_YP-t9tBsH9-YW9nyLvhC0TkwbTt_FnmxOV_AQVEre5Z1TvbjraIrFhacrsps_f6VhqNAsFKXkvDzZtqyWGCB3GQnfme84LOupnGs7d8GmMP1CwEetvbZmlIo4KJl2dwhjYJTR7EtszLNVfm_tekyFM75ACVZrZ6QEx9rdZL1ic-hcOId7FycxP2RY2qYCNcuIkhUA_OP1xes8EesN_X-fuTp6DVe_J9yuXnNfuM46U9nL58QIXtW4wT2r4TSaPrqp-ZV541vg05z6ie_z7h2IJ9aCc3- -y47y0]--></g></svg>