<?xml version="1.0" encoding="us-ascii" standalone="no"?><svg xmlns="http://www.w3.org/2000/svg" xmlns:xlink="http://www.w3.org/1999/xlink" contentStyleType="text/css" height="250px" preserveAspectRatio="none" style="width:695px;height:250px;background:#FFFFFF;" version="1.1" viewBox="0 0 695 250" width="695px" zoomAndPan="magnify"><defs/><g><text fill="#000000" font-family="sans-serif" font-size="14" font-weight="bold" lengthAdjust="spacing" textLength="667" x="10" y="25.1074">US11: As Product Owner, I want the system to have a type of sensor that measures humidity (%).</text><!--class Sensor--><g id="elem_Sensor"><rect codeLine="4" fill="#F1F1F1" height="122.4844" id="Sensor" rx="2.5" ry="2.5" style="stroke:#181818;stroke-width:0.5;" width="190" x="67.75" y="84.1211"/><ellipse cx="136" cy="100.1211" fill="#B4A7E5" rx="11" ry="11" style="stroke:#181818;stroke-width:1.0;"/><path d="M136.9531,96.7617 L136.9531,103.418 L138.6719,103.418 Q139.2813,103.418 139.5469,103.6523 Q139.8125,103.8867 139.8125,104.2773 Q139.8125,104.6523 139.5469,104.8867 Q139.2813,105.1211 138.6719,105.1211 L133.5313,105.1211 Q132.9219,105.1211 132.6563,104.8867 Q132.3906,104.6523 132.3906,104.2617 Q132.3906,103.8867 132.6563,103.6523 Q132.9219,103.418 133.5313,103.418 L135.25,103.418 L135.25,96.7617 L133.5313,96.7617 Q132.9219,96.7617 132.6563,96.5273 Q132.3906,96.293 132.3906,95.9023 Q132.3906,95.5273 132.6563,95.293 Q132.9219,95.0586 133.5313,95.0586 L138.6719,95.0586 Q139.2813,95.0586 139.5469,95.293 Q139.8125,95.5273 139.8125,95.9023 Q139.8125,96.293 139.5469,96.5273 Q139.2813,96.7617 138.6719,96.7617 L136.9531,96.7617 Z " fill="#000000"/><text fill="#000000" font-family="sans-serif" font-size="14" font-style="italic" lengthAdjust="spacing" textLength="45" x="156.5" y="105.918">Sensor</text><line style="stroke:#181818;stroke-width:0.5;" x1="68.75" x2="256.75" y1="116.1211" y2="116.1211"/><line style="stroke:#181818;stroke-width:0.5;" x1="68.75" x2="256.75" y1="124.1211" y2="124.1211"/><ellipse cx="78.75" cy="138.9316" fill="#84BE84" rx="3" ry="3" style="stroke:#038048;stroke-width:1.0;"/><text fill="#000000" font-family="sans-serif" font-size="14" lengthAdjust="spacing" textLength="111" x="87.75" y="143.2285">getSensorName()</text><ellipse cx="78.75" cy="157.5527" fill="#84BE84" rx="3" ry="3" style="stroke:#038048;stroke-width:1.0;"/><text fill="#000000" font-family="sans-serif" font-size="14" lengthAdjust="spacing" textLength="107" x="87.75" y="161.8496">getSensorType()</text><ellipse cx="78.75" cy="176.1738" fill="#84BE84" rx="3" ry="3" style="stroke:#038048;stroke-width:1.0;"/><text fill="#000000" font-family="sans-serif" font-size="14" lengthAdjust="spacing" textLength="54" x="87.75" y="180.4707">getUnit()</text><ellipse cx="78.75" cy="194.7949" fill="#84BE84" rx="3" ry="3" style="stroke:#038048;stroke-width:1.0;"/><text fill="#000000" font-family="sans-serif" font-size="14" lengthAdjust="spacing" textLength="164" x="87.75" y="199.0918">getCurrentMeasurement()</text></g><!--class HumiditySensor--><g id="elem_HumiditySensor"><rect codeLine="11" fill="#F1F1F1" height="196.9688" id="HumiditySensor" rx="2.5" ry="2.5" style="stroke:#181818;stroke-width:0.5;" width="190" x="292.75" y="46.6211"/><ellipse cx="334.75" cy="62.6211" fill="#ADD1B2" rx="11" ry="11" style="stroke:#181818;stroke-width:1.0;"/><path d="M337.5156,58.4961 Q337.6719,58.2773 337.8594,58.168 Q338.0469,58.0586 338.2656,58.0586 Q338.6406,58.0586 338.875,58.3242 Q339.1094,58.5742 339.1094,59.1836 L339.1094,60.6367 Q339.1094,61.2461 338.875,61.5117 Q338.6406,61.7773 338.2656,61.7773 Q337.9219,61.7773 337.7188,61.5742 Q337.5156,61.3867 337.4063,60.8711 Q337.3594,60.5117 337.1719,60.3242 Q336.8438,59.9492 336.2344,59.7305 Q335.625,59.5117 335,59.5117 Q334.2344,59.5117 333.5938,59.8398 Q332.9688,60.168 332.4688,60.918 Q331.9844,61.668 331.9844,62.6992 L331.9844,63.793 Q331.9844,65.0273 332.875,65.8555 Q333.7656,66.668 335.3594,66.668 Q336.2969,66.668 336.9531,66.418 Q337.3438,66.2617 337.7656,65.8242 Q338.0313,65.5586 338.1719,65.4805 Q338.3281,65.4023 338.5313,65.4023 Q338.8594,65.4023 339.1094,65.668 Q339.375,65.918 339.375,66.2617 Q339.375,66.6055 339.0313,67.0117 Q338.5313,67.5898 337.7344,67.918 Q336.6563,68.3711 335.3594,68.3711 Q333.8438,68.3711 332.6406,67.7461 Q331.6563,67.2461 330.9688,66.1836 Q330.2813,65.1055 330.2813,63.8242 L330.2813,62.668 Q330.2813,61.3398 330.8906,60.1992 Q331.5156,59.043 332.6094,58.4336 Q333.7031,57.8086 334.9375,57.8086 Q335.6719,57.8086 336.3125,57.9805 Q336.9688,58.1367 337.5156,58.4961 Z " fill="#000000"/><text fill="#000000" font-family="sans-serif" font-size="14" lengthAdjust="spacing" textLength="98" x="354.75" y="68.418">HumiditySensor</text><line style="stroke:#181818;stroke-width:0.5;" x1="293.75" x2="481.75" y1="78.6211" y2="78.6211"/><rect fill="none" height="6" style="stroke:#C82930;stroke-width:1.0;" width="6" x="300.75" y="90.4316"/><text fill="#000000" font-family="sans-serif" font-size="14" lengthAdjust="spacing" textLength="124" x="312.75" y="97.7285">sensorName: String</text><rect fill="none" height="6" style="stroke:#C82930;stroke-width:1.0;" width="6" x="300.75" y="109.0527"/><text fill="#000000" font-family="sans-serif" font-size="14" lengthAdjust="spacing" textLength="160" x="312.75" y="116.3496">sensorType: SensorType</text><rect fill="none" height="6" style="stroke:#C82930;stroke-width:1.0;" width="6" x="300.75" y="127.6738"/><text fill="#000000" font-family="sans-serif" font-size="14" lengthAdjust="spacing" textLength="68" x="312.75" y="134.9707">unit: String</text><rect fill="none" height="6" style="stroke:#C82930;stroke-width:1.0;" width="6" x="300.75" y="146.2949"/><text fill="#000000" font-family="sans-serif" font-size="14" lengthAdjust="spacing" textLength="154" x="312.75" y="153.5918">currentMeasurement: int</text><line style="stroke:#181818;stroke-width:0.5;" x1="293.75" x2="481.75" y1="161.1055" y2="161.1055"/><ellipse cx="303.75" cy="175.916" fill="#84BE84" rx="3" ry="3" style="stroke:#038048;stroke-width:1.0;"/><text fill="#000000" font-family="sans-serif" font-size="14" lengthAdjust="spacing" textLength="111" x="312.75" y="180.2129">getSensorName()</text><ellipse cx="303.75" cy="194.5371" fill="#84BE84" rx="3" ry="3" style="stroke:#038048;stroke-width:1.0;"/><text fill="#000000" font-family="sans-serif" font-size="14" lengthAdjust="spacing" textLength="107" x="312.75" y="198.834">getSensorType()</text><ellipse cx="303.75" cy="213.1582" fill="#84BE84" rx="3" ry="3" style="stroke:#038048;stroke-width:1.0;"/><text fill="#000000" font-family="sans-serif" font-size="14" lengthAdjust="spacing" textLength="54" x="312.75" y="217.4551">getUnit()</text><ellipse cx="303.75" cy="231.7793" fill="#84BE84" rx="3" ry="3" style="stroke:#038048;stroke-width:1.0;"/><text fill="#000000" font-family="sans-serif" font-size="14" lengthAdjust="spacing" textLength="164" x="312.75" y="236.0762">getCurrentMeasurement()</text></g><!--class SensorType--><g id="elem_SensorType"><rect codeLine="22" fill="#F1F1F1" height="85.2422" id="SensorType" rx="2.5" ry="2.5" style="stroke:#181818;stroke-width:0.5;" width="115" x="518.25" y="102.6211"/><ellipse cx="535.95" cy="118.6211" fill="#EB937F" rx="11" ry="11" style="stroke:#181818;stroke-width:1.0;"/><path d="M534.8094,119.418 L534.8094,121.918 L539.1375,121.918 L539.1375,120.9961 Q539.1375,120.3867 539.3719,120.1211 Q539.6219,119.8555 539.9969,119.8555 Q540.3719,119.8555 540.6063,120.1211 Q540.8406,120.3867 540.8406,120.9961 L540.8406,123.6211 L532.8406,123.6211 Q532.2156,123.6211 531.95,123.3867 Q531.7,123.1523 531.7,122.7617 Q531.7,122.3867 531.9656,122.1523 Q532.2313,121.918 532.8406,121.918 L533.1063,121.918 L533.1063,115.2617 L532.8406,115.2617 Q532.2156,115.2617 531.95,115.0273 Q531.7,114.793 531.7,114.4023 Q531.7,114.0273 531.95,113.793 Q532.2156,113.5586 532.8406,113.5586 L540.4656,113.5586 L540.4656,116.1523 Q540.4656,116.7617 540.2313,117.0273 Q540.0125,117.2773 539.6219,117.2773 Q539.2469,117.2773 539.0125,117.0273 Q538.7781,116.7617 538.7781,116.1523 L538.7781,115.2617 L534.8094,115.2617 L534.8094,117.7148 L536.2938,117.7148 Q536.2938,117.0586 536.4188,116.8711 Q536.6844,116.4648 537.1531,116.4648 Q537.5281,116.4648 537.7625,116.7305 Q537.9969,116.9805 537.9969,117.5898 L537.9969,119.5586 Q537.9969,120.1055 537.8719,120.293 Q537.6063,120.6836 537.1531,120.6836 Q536.6844,120.6836 536.4188,120.2773 Q536.2938,120.0898 536.2938,119.418 L534.8094,119.418 Z " fill="#000000"/><text fill="#000000" font-family="sans-serif" font-size="14" lengthAdjust="spacing" textLength="77" x="550.55" y="124.418">SensorType</text><line style="stroke:#181818;stroke-width:0.5;" x1="519.25" x2="632.25" y1="134.6211" y2="134.6211"/><text fill="#000000" font-family="sans-serif" font-size="14" lengthAdjust="spacing" textLength="63" x="524.25" y="153.7285">HUMIDITY</text><text fill="#000000" font-family="sans-serif" font-size="14" lengthAdjust="spacing" textLength="103" x="524.25" y="172.3496">TEMPERATURE</text><line style="stroke:#181818;stroke-width:0.5;" x1="519.25" x2="632.25" y1="179.8633" y2="179.8633"/></g><!--link Sensor to HumiditySensor--><g id="link_Sensor_HumiditySensor"><path codeLine="27" d="M258.11,145.1211 C269.59,145.1211 281.07,145.1211 292.55,145.1211 " fill="none" id="Sensor-HumiditySensor" style="stroke:#181818;stroke-width:1.0;"/></g><!--link HumiditySensor to SensorType--><g id="link_HumiditySensor_SensorType"><path codeLine="28" d="M482.85,145.1211 C494.58,145.1211 506.32,145.1211 518.05,145.1211 " fill="none" id="HumiditySensor-SensorType" style="stroke:#181818;stroke-width:1.0;"/></g><!--SRC=[hOynRuCm48Lt_ufRgYPg2ShA5ZL8OI290WmTBRY09MoGxzm8LVtlTGfDKBfsEpy_lUyzLjmY5Dbw7S66u6YxofKCXuj1-me9NAHXu0Q11cBKm1qqyWD10WyzGdS6GaETzHx9e56IiqZGEAqgnGCidfOhyTmmznI5OT_wEAVRLTdfi6mbKL0fMLkfXL26qPvbYP2DYP_YfKOU7tkfSR6S2RcdJq9X54_dcxCM3QTZ3UrF__4bn0yATbEfMtv0j_08ChRArB_QDJ-2Eqi4pcFkhl8FAGA_uFyget5wnlTjTqMQR9FyNUHnUenFcxmunLVdD2Tus2SUvWRpDTy0]--></g></svg>