<?xml version="1.0" encoding="us-ascii" standalone="no"?><svg xmlns="http://www.w3.org/2000/svg" xmlns:xlink="http://www.w3.org/1999/xlink" contentStyleType="text/css" height="1012px" preserveAspectRatio="none" style="width:1120px;height:1012px;background:#FFFFFF;" version="1.1" viewBox="0 0 1120 1012" width="1120px" zoomAndPan="magnify"><defs/><g><text fill="#000000" font-family="sans-serif" font-size="14" font-weight="bold" lengthAdjust="spacing" textLength="1089" x="10" y="25.1074">US09: As a Power User [or Administrator], I want to get a list of all devices in a house, grouped by device functionality types. It must include device location.</text><!--class ListAllDevicesInRoomByFunctionalityController--><g id="elem_ListAllDevicesInRoomByFunctionalityController"><rect codeLine="4" fill="#F1F1F1" height="85.2422" id="ListAllDevicesInRoomByFunctionalityController" rx="2.5" ry="2.5" style="stroke:#181818;stroke-width:0.5;" width="361" x="467.75" y="46.6211"/><ellipse cx="498.95" cy="62.6211" fill="#ADD1B2" rx="11" ry="11" style="stroke:#181818;stroke-width:1.0;"/><path d="M501.7156,58.4961 Q501.8719,58.2773 502.0594,58.168 Q502.2469,58.0586 502.4656,58.0586 Q502.8406,58.0586 503.075,58.3242 Q503.3094,58.5742 503.3094,59.1836 L503.3094,60.6367 Q503.3094,61.2461 503.075,61.5117 Q502.8406,61.7773 502.4656,61.7773 Q502.1219,61.7773 501.9188,61.5742 Q501.7156,61.3867 501.6063,60.8711 Q501.5594,60.5117 501.3719,60.3242 Q501.0438,59.9492 500.4344,59.7305 Q499.825,59.5117 499.2,59.5117 Q498.4344,59.5117 497.7938,59.8398 Q497.1688,60.168 496.6688,60.918 Q496.1844,61.668 496.1844,62.6992 L496.1844,63.793 Q496.1844,65.0273 497.075,65.8555 Q497.9656,66.668 499.5594,66.668 Q500.4969,66.668 501.1531,66.418 Q501.5438,66.2617 501.9656,65.8242 Q502.2313,65.5586 502.3719,65.4805 Q502.5281,65.4023 502.7313,65.4023 Q503.0594,65.4023 503.3094,65.668 Q503.575,65.918 503.575,66.2617 Q503.575,66.6055 503.2313,67.0117 Q502.7313,67.5898 501.9344,67.918 Q500.8563,68.3711 499.5594,68.3711 Q498.0438,68.3711 496.8406,67.7461 Q495.8563,67.2461 495.1688,66.1836 Q494.4813,65.1055 494.4813,63.8242 L494.4813,62.668 Q494.4813,61.3398 495.0906,60.1992 Q495.7156,59.043 496.8094,58.4336 Q497.9031,57.8086 499.1375,57.8086 Q499.8719,57.8086 500.5125,57.9805 Q501.1688,58.1367 501.7156,58.4961 Z " fill="#000000"/><text fill="#000000" font-family="sans-serif" font-size="14" lengthAdjust="spacing" textLength="293" x="516.55" y="68.418">ListAllDevicesInRoomByFunctionalityController</text><line style="stroke:#181818;stroke-width:0.5;" x1="468.75" x2="827.75" y1="78.6211" y2="78.6211"/><rect fill="none" height="6" style="stroke:#C82930;stroke-width:1.0;" width="6" x="475.75" y="90.4316"/><text fill="#000000" font-family="sans-serif" font-size="14" lengthAdjust="spacing" textLength="87" x="487.75" y="97.7285">house: House</text><line style="stroke:#181818;stroke-width:0.5;" x1="468.75" x2="827.75" y1="105.2422" y2="105.2422"/><ellipse cx="478.75" cy="120.0527" fill="#84BE84" rx="3" ry="3" style="stroke:#038048;stroke-width:1.0;"/><text fill="#000000" font-family="sans-serif" font-size="14" lengthAdjust="spacing" textLength="335" x="487.75" y="124.3496">getListOfAllDevicesInHouseGroupedByFunctionality()</text></g><!--class RoomMapper--><g id="elem_RoomMapper"><rect codeLine="9" fill="#F1F1F1" height="66.6211" id="RoomMapper" rx="2.5" ry="2.5" style="stroke:#181818;stroke-width:0.5;" width="267" x="514.75" y="219.1211"/><ellipse cx="601.5" cy="235.1211" fill="#ADD1B2" rx="11" ry="11" style="stroke:#181818;stroke-width:1.0;"/><path d="M604.2656,230.9961 Q604.4219,230.7773 604.6094,230.668 Q604.7969,230.5586 605.0156,230.5586 Q605.3906,230.5586 605.625,230.8242 Q605.8594,231.0742 605.8594,231.6836 L605.8594,233.1367 Q605.8594,233.7461 605.625,234.0117 Q605.3906,234.2773 605.0156,234.2773 Q604.6719,234.2773 604.4688,234.0742 Q604.2656,233.8867 604.1563,233.3711 Q604.1094,233.0117 603.9219,232.8242 Q603.5938,232.4492 602.9844,232.2305 Q602.375,232.0117 601.75,232.0117 Q600.9844,232.0117 600.3438,232.3398 Q599.7188,232.668 599.2188,233.418 Q598.7344,234.168 598.7344,235.1992 L598.7344,236.293 Q598.7344,237.5273 599.625,238.3555 Q600.5156,239.168 602.1094,239.168 Q603.0469,239.168 603.7031,238.918 Q604.0938,238.7617 604.5156,238.3242 Q604.7813,238.0586 604.9219,237.9805 Q605.0781,237.9023 605.2813,237.9023 Q605.6094,237.9023 605.8594,238.168 Q606.125,238.418 606.125,238.7617 Q606.125,239.1055 605.7813,239.5117 Q605.2813,240.0898 604.4844,240.418 Q603.4063,240.8711 602.1094,240.8711 Q600.5938,240.8711 599.3906,240.2461 Q598.4063,239.7461 597.7188,238.6836 Q597.0313,237.6055 597.0313,236.3242 L597.0313,235.168 Q597.0313,233.8398 597.6406,232.6992 Q598.2656,231.543 599.3594,230.9336 Q600.4531,230.3086 601.6875,230.3086 Q602.4219,230.3086 603.0625,230.4805 Q603.7188,230.6367 604.2656,230.9961 Z " fill="#000000"/><text fill="#000000" font-family="sans-serif" font-size="14" lengthAdjust="spacing" textLength="85" x="622" y="240.918">RoomMapper</text><line style="stroke:#181818;stroke-width:0.5;" x1="515.75" x2="780.75" y1="251.1211" y2="251.1211"/><line style="stroke:#181818;stroke-width:0.5;" x1="515.75" x2="780.75" y1="259.1211" y2="259.1211"/><ellipse cx="525.75" cy="273.9316" fill="#84BE84" rx="3" ry="3" style="stroke:#038048;stroke-width:1.0;"/><text fill="#000000" font-family="sans-serif" font-size="14" lengthAdjust="spacing" textLength="241" x="534.75" y="278.2285">roomToDTO(Room room) : RoomDTO</text></g><!--class RoomDTO--><g id="elem_RoomDTO"><rect codeLine="13" fill="#F1F1F1" height="122.4844" id="RoomDTO" rx="2.5" ry="2.5" style="stroke:#181818;stroke-width:0.5;" width="178" x="559.25" y="373.6211"/><ellipse cx="610.5" cy="389.6211" fill="#ADD1B2" rx="11" ry="11" style="stroke:#181818;stroke-width:1.0;"/><path d="M613.2656,385.4961 Q613.4219,385.2773 613.6094,385.168 Q613.7969,385.0586 614.0156,385.0586 Q614.3906,385.0586 614.625,385.3242 Q614.8594,385.5742 614.8594,386.1836 L614.8594,387.6367 Q614.8594,388.2461 614.625,388.5117 Q614.3906,388.7773 614.0156,388.7773 Q613.6719,388.7773 613.4688,388.5742 Q613.2656,388.3867 613.1563,387.8711 Q613.1094,387.5117 612.9219,387.3242 Q612.5938,386.9492 611.9844,386.7305 Q611.375,386.5117 610.75,386.5117 Q609.9844,386.5117 609.3438,386.8398 Q608.7188,387.168 608.2188,387.918 Q607.7344,388.668 607.7344,389.6992 L607.7344,390.793 Q607.7344,392.0273 608.625,392.8555 Q609.5156,393.668 611.1094,393.668 Q612.0469,393.668 612.7031,393.418 Q613.0938,393.2617 613.5156,392.8242 Q613.7813,392.5586 613.9219,392.4805 Q614.0781,392.4023 614.2813,392.4023 Q614.6094,392.4023 614.8594,392.668 Q615.125,392.918 615.125,393.2617 Q615.125,393.6055 614.7813,394.0117 Q614.2813,394.5898 613.4844,394.918 Q612.4063,395.3711 611.1094,395.3711 Q609.5938,395.3711 608.3906,394.7461 Q607.4063,394.2461 606.7188,393.1836 Q606.0313,392.1055 606.0313,390.8242 L606.0313,389.668 Q606.0313,388.3398 606.6406,387.1992 Q607.2656,386.043 608.3594,385.4336 Q609.4531,384.8086 610.6875,384.8086 Q611.4219,384.8086 612.0625,384.9805 Q612.7188,385.1367 613.2656,385.4961 Z " fill="#000000"/><text fill="#000000" font-family="sans-serif" font-size="14" lengthAdjust="spacing" textLength="67" x="631" y="395.418">RoomDTO</text><line style="stroke:#181818;stroke-width:0.5;" x1="560.25" x2="736.25" y1="405.6211" y2="405.6211"/><rect fill="none" height="6" style="stroke:#C82930;stroke-width:1.0;" width="6" x="567.25" y="417.4316"/><text fill="#000000" font-family="sans-serif" font-size="14" lengthAdjust="spacing" textLength="113" x="579.25" y="424.7285">roomName: String</text><rect fill="none" height="6" style="stroke:#C82930;stroke-width:1.0;" width="6" x="567.25" y="436.0527"/><text fill="#000000" font-family="sans-serif" font-size="14" lengthAdjust="spacing" textLength="100" x="579.25" y="443.3496">floorNumber: int</text><rect fill="none" height="6" style="stroke:#C82930;stroke-width:1.0;" width="6" x="567.25" y="454.6738"/><text fill="#000000" font-family="sans-serif" font-size="14" lengthAdjust="spacing" textLength="152" x="579.25" y="461.9707">dimensions: Dimensions</text><rect fill="none" height="6" style="stroke:#C82930;stroke-width:1.0;" width="6" x="567.25" y="473.2949"/><text fill="#000000" font-family="sans-serif" font-size="14" lengthAdjust="spacing" textLength="136" x="579.25" y="480.5918">deviceList: DeviceList</text><line style="stroke:#181818;stroke-width:0.5;" x1="560.25" x2="736.25" y1="488.1055" y2="488.1055"/></g><!--class DeviceMapper--><g id="elem_DeviceMapper"><rect codeLine="20" fill="#F1F1F1" height="66.6211" id="DeviceMapper" rx="2.5" ry="2.5" style="stroke:#181818;stroke-width:0.5;" width="297" x="816.75" y="219.1211"/><ellipse cx="915.5" cy="235.1211" fill="#ADD1B2" rx="11" ry="11" style="stroke:#181818;stroke-width:1.0;"/><path d="M918.2656,230.9961 Q918.4219,230.7773 918.6094,230.668 Q918.7969,230.5586 919.0156,230.5586 Q919.3906,230.5586 919.625,230.8242 Q919.8594,231.0742 919.8594,231.6836 L919.8594,233.1367 Q919.8594,233.7461 919.625,234.0117 Q919.3906,234.2773 919.0156,234.2773 Q918.6719,234.2773 918.4688,234.0742 Q918.2656,233.8867 918.1563,233.3711 Q918.1094,233.0117 917.9219,232.8242 Q917.5938,232.4492 916.9844,232.2305 Q916.375,232.0117 915.75,232.0117 Q914.9844,232.0117 914.3438,232.3398 Q913.7188,232.668 913.2188,233.418 Q912.7344,234.168 912.7344,235.1992 L912.7344,236.293 Q912.7344,237.5273 913.625,238.3555 Q914.5156,239.168 916.1094,239.168 Q917.0469,239.168 917.7031,238.918 Q918.0938,238.7617 918.5156,238.3242 Q918.7813,238.0586 918.9219,237.9805 Q919.0781,237.9023 919.2813,237.9023 Q919.6094,237.9023 919.8594,238.168 Q920.125,238.418 920.125,238.7617 Q920.125,239.1055 919.7813,239.5117 Q919.2813,240.0898 918.4844,240.418 Q917.4063,240.8711 916.1094,240.8711 Q914.5938,240.8711 913.3906,240.2461 Q912.4063,239.7461 911.7188,238.6836 Q911.0313,237.6055 911.0313,236.3242 L911.0313,235.168 Q911.0313,233.8398 911.6406,232.6992 Q912.2656,231.543 913.3594,230.9336 Q914.4531,230.3086 915.6875,230.3086 Q916.4219,230.3086 917.0625,230.4805 Q917.7188,230.6367 918.2656,230.9961 Z " fill="#000000"/><text fill="#000000" font-family="sans-serif" font-size="14" lengthAdjust="spacing" textLength="91" x="936" y="240.918">DeviceMapper</text><line style="stroke:#181818;stroke-width:0.5;" x1="817.75" x2="1112.75" y1="251.1211" y2="251.1211"/><line style="stroke:#181818;stroke-width:0.5;" x1="817.75" x2="1112.75" y1="259.1211" y2="259.1211"/><ellipse cx="827.75" cy="273.9316" fill="#84BE84" rx="3" ry="3" style="stroke:#038048;stroke-width:1.0;"/><text fill="#000000" font-family="sans-serif" font-size="14" lengthAdjust="spacing" textLength="271" x="836.75" y="278.2285">deviceToDTO(Device device) : DeviceDTO</text></g><!--class DeviceDTO--><g id="elem_DeviceDTO"><rect codeLine="24" fill="#F1F1F1" height="85.2422" id="DeviceDTO" rx="2.5" ry="2.5" style="stroke:#181818;stroke-width:0.5;" width="182" x="874.25" y="392.1211"/><ellipse cx="924.5" cy="408.1211" fill="#ADD1B2" rx="11" ry="11" style="stroke:#181818;stroke-width:1.0;"/><path d="M927.2656,403.9961 Q927.4219,403.7773 927.6094,403.668 Q927.7969,403.5586 928.0156,403.5586 Q928.3906,403.5586 928.625,403.8242 Q928.8594,404.0742 928.8594,404.6836 L928.8594,406.1367 Q928.8594,406.7461 928.625,407.0117 Q928.3906,407.2773 928.0156,407.2773 Q927.6719,407.2773 927.4688,407.0742 Q927.2656,406.8867 927.1563,406.3711 Q927.1094,406.0117 926.9219,405.8242 Q926.5938,405.4492 925.9844,405.2305 Q925.375,405.0117 924.75,405.0117 Q923.9844,405.0117 923.3438,405.3398 Q922.7188,405.668 922.2188,406.418 Q921.7344,407.168 921.7344,408.1992 L921.7344,409.293 Q921.7344,410.5273 922.625,411.3555 Q923.5156,412.168 925.1094,412.168 Q926.0469,412.168 926.7031,411.918 Q927.0938,411.7617 927.5156,411.3242 Q927.7813,411.0586 927.9219,410.9805 Q928.0781,410.9023 928.2813,410.9023 Q928.6094,410.9023 928.8594,411.168 Q929.125,411.418 929.125,411.7617 Q929.125,412.1055 928.7813,412.5117 Q928.2813,413.0898 927.4844,413.418 Q926.4063,413.8711 925.1094,413.8711 Q923.5938,413.8711 922.3906,413.2461 Q921.4063,412.7461 920.7188,411.6836 Q920.0313,410.6055 920.0313,409.3242 L920.0313,408.168 Q920.0313,406.8398 920.6406,405.6992 Q921.2656,404.543 922.3594,403.9336 Q923.4531,403.3086 924.6875,403.3086 Q925.4219,403.3086 926.0625,403.4805 Q926.7188,403.6367 927.2656,403.9961 Z " fill="#000000"/><text fill="#000000" font-family="sans-serif" font-size="14" lengthAdjust="spacing" textLength="73" x="945" y="413.918">DeviceDTO</text><line style="stroke:#181818;stroke-width:0.5;" x1="875.25" x2="1055.25" y1="424.1211" y2="424.1211"/><rect fill="none" height="6" style="stroke:#C82930;stroke-width:1.0;" width="6" x="882.25" y="435.9316"/><text fill="#000000" font-family="sans-serif" font-size="14" lengthAdjust="spacing" textLength="122" x="894.25" y="443.2285">deviceName: String</text><rect fill="none" height="6" style="stroke:#C82930;stroke-width:1.0;" width="6" x="882.25" y="454.5527"/><text fill="#000000" font-family="sans-serif" font-size="14" lengthAdjust="spacing" textLength="156" x="894.25" y="461.8496">sensorList: List&lt;Sensor&gt;</text><line style="stroke:#181818;stroke-width:0.5;" x1="875.25" x2="1055.25" y1="469.3633" y2="469.3633"/></g><!--class House--><g id="elem_House"><rect codeLine="29" fill="#F1F1F1" height="122.4844" id="House" rx="2.5" ry="2.5" style="stroke:#181818;stroke-width:0.5;" width="361" x="118.75" y="191.6211"/><ellipse cx="275" cy="207.6211" fill="#ADD1B2" rx="11" ry="11" style="stroke:#181818;stroke-width:1.0;"/><path d="M277.7656,203.4961 Q277.9219,203.2773 278.1094,203.168 Q278.2969,203.0586 278.5156,203.0586 Q278.8906,203.0586 279.125,203.3242 Q279.3594,203.5742 279.3594,204.1836 L279.3594,205.6367 Q279.3594,206.2461 279.125,206.5117 Q278.8906,206.7773 278.5156,206.7773 Q278.1719,206.7773 277.9688,206.5742 Q277.7656,206.3867 277.6563,205.8711 Q277.6094,205.5117 277.4219,205.3242 Q277.0938,204.9492 276.4844,204.7305 Q275.875,204.5117 275.25,204.5117 Q274.4844,204.5117 273.8438,204.8398 Q273.2188,205.168 272.7188,205.918 Q272.2344,206.668 272.2344,207.6992 L272.2344,208.793 Q272.2344,210.0273 273.125,210.8555 Q274.0156,211.668 275.6094,211.668 Q276.5469,211.668 277.2031,211.418 Q277.5938,211.2617 278.0156,210.8242 Q278.2813,210.5586 278.4219,210.4805 Q278.5781,210.4023 278.7813,210.4023 Q279.1094,210.4023 279.3594,210.668 Q279.625,210.918 279.625,211.2617 Q279.625,211.6055 279.2813,212.0117 Q278.7813,212.5898 277.9844,212.918 Q276.9063,213.3711 275.6094,213.3711 Q274.0938,213.3711 272.8906,212.7461 Q271.9063,212.2461 271.2188,211.1836 Q270.5313,210.1055 270.5313,208.8242 L270.5313,207.668 Q270.5313,206.3398 271.1406,205.1992 Q271.7656,204.043 272.8594,203.4336 Q273.9531,202.8086 275.1875,202.8086 Q275.9219,202.8086 276.5625,202.9805 Q277.2188,203.1367 277.7656,203.4961 Z " fill="#000000"/><text fill="#000000" font-family="sans-serif" font-size="14" lengthAdjust="spacing" textLength="40" x="295.5" y="213.418">House</text><line style="stroke:#181818;stroke-width:0.5;" x1="119.75" x2="478.75" y1="223.6211" y2="223.6211"/><rect fill="none" height="6" style="stroke:#C82930;stroke-width:1.0;" width="6" x="126.75" y="235.4316"/><text fill="#000000" font-family="sans-serif" font-size="14" lengthAdjust="spacing" textLength="111" x="138.75" y="242.7285">location: Location</text><rect fill="none" height="6" style="stroke:#C82930;stroke-width:1.0;" width="6" x="126.75" y="254.0527"/><text fill="#000000" font-family="sans-serif" font-size="14" lengthAdjust="spacing" textLength="121" x="138.75" y="261.3496">roomList: RoomList</text><rect fill="none" height="6" style="stroke:#C82930;stroke-width:1.0;" width="6" x="126.75" y="272.6738"/><text fill="#000000" font-family="sans-serif" font-size="14" lengthAdjust="spacing" textLength="204" x="138.75" y="279.9707">sensorTypeList: SensorTypeList</text><line style="stroke:#181818;stroke-width:0.5;" x1="119.75" x2="478.75" y1="287.4844" y2="287.4844"/><ellipse cx="129.75" cy="302.2949" fill="#84BE84" rx="3" ry="3" style="stroke:#038048;stroke-width:1.0;"/><text fill="#000000" font-family="sans-serif" font-size="14" lengthAdjust="spacing" textLength="335" x="138.75" y="306.5918">getListOfAllDevicesInHouseGroupedByFunctionality()</text></g><!--class SensorCatalogue--><g id="elem_SensorCatalogue"><rect codeLine="36" fill="#F1F1F1" height="66.6211" id="SensorCatalogue" rx="2.5" ry="2.5" style="stroke:#181818;stroke-width:0.5;" width="234" x="9.25" y="592.6211"/><ellipse cx="67" cy="608.6211" fill="#ADD1B2" rx="11" ry="11" style="stroke:#181818;stroke-width:1.0;"/><path d="M69.7656,604.4961 Q69.9219,604.2773 70.1094,604.168 Q70.2969,604.0586 70.5156,604.0586 Q70.8906,604.0586 71.125,604.3242 Q71.3594,604.5742 71.3594,605.1836 L71.3594,606.6367 Q71.3594,607.2461 71.125,607.5117 Q70.8906,607.7773 70.5156,607.7773 Q70.1719,607.7773 69.9688,607.5742 Q69.7656,607.3867 69.6563,606.8711 Q69.6094,606.5117 69.4219,606.3242 Q69.0938,605.9492 68.4844,605.7305 Q67.875,605.5117 67.25,605.5117 Q66.4844,605.5117 65.8438,605.8398 Q65.2188,606.168 64.7188,606.918 Q64.2344,607.668 64.2344,608.6992 L64.2344,609.793 Q64.2344,611.0273 65.125,611.8555 Q66.0156,612.668 67.6094,612.668 Q68.5469,612.668 69.2031,612.418 Q69.5938,612.2617 70.0156,611.8242 Q70.2813,611.5586 70.4219,611.4805 Q70.5781,611.4023 70.7813,611.4023 Q71.1094,611.4023 71.3594,611.668 Q71.625,611.918 71.625,612.2617 Q71.625,612.6055 71.2813,613.0117 Q70.7813,613.5898 69.9844,613.918 Q68.9063,614.3711 67.6094,614.3711 Q66.0938,614.3711 64.8906,613.7461 Q63.9063,613.2461 63.2188,612.1836 Q62.5313,611.1055 62.5313,609.8242 L62.5313,608.668 Q62.5313,607.3398 63.1406,606.1992 Q63.7656,605.043 64.8594,604.4336 Q65.9531,603.8086 67.1875,603.8086 Q67.9219,603.8086 68.5625,603.9805 Q69.2188,604.1367 69.7656,604.4961 Z " fill="#000000"/><text fill="#000000" font-family="sans-serif" font-size="14" lengthAdjust="spacing" textLength="110" x="87.5" y="614.418">SensorCatalogue</text><line style="stroke:#181818;stroke-width:0.5;" x1="10.25" x2="242.25" y1="624.6211" y2="624.6211"/><line style="stroke:#181818;stroke-width:0.5;" x1="10.25" x2="242.25" y1="632.6211" y2="632.6211"/><ellipse cx="20.25" cy="647.4316" fill="#84BE84" rx="3" ry="3" style="stroke:#038048;stroke-width:1.0;"/><text fill="#000000" font-family="sans-serif" font-size="14" lengthAdjust="spacing" textLength="208" x="29.25" y="651.7285">getSensorClasses(): List&lt;String&gt;</text></g><!--class RoomList--><g id="elem_RoomList"><rect codeLine="41" fill="#F1F1F1" height="66.6211" id="RoomList" rx="2.5" ry="2.5" style="stroke:#181818;stroke-width:0.5;" width="163" x="299.75" y="401.1211"/><ellipse cx="347.5" cy="417.1211" fill="#ADD1B2" rx="11" ry="11" style="stroke:#181818;stroke-width:1.0;"/><path d="M350.2656,412.9961 Q350.4219,412.7773 350.6094,412.668 Q350.7969,412.5586 351.0156,412.5586 Q351.3906,412.5586 351.625,412.8242 Q351.8594,413.0742 351.8594,413.6836 L351.8594,415.1367 Q351.8594,415.7461 351.625,416.0117 Q351.3906,416.2773 351.0156,416.2773 Q350.6719,416.2773 350.4688,416.0742 Q350.2656,415.8867 350.1563,415.3711 Q350.1094,415.0117 349.9219,414.8242 Q349.5938,414.4492 348.9844,414.2305 Q348.375,414.0117 347.75,414.0117 Q346.9844,414.0117 346.3438,414.3398 Q345.7188,414.668 345.2188,415.418 Q344.7344,416.168 344.7344,417.1992 L344.7344,418.293 Q344.7344,419.5273 345.625,420.3555 Q346.5156,421.168 348.1094,421.168 Q349.0469,421.168 349.7031,420.918 Q350.0938,420.7617 350.5156,420.3242 Q350.7813,420.0586 350.9219,419.9805 Q351.0781,419.9023 351.2813,419.9023 Q351.6094,419.9023 351.8594,420.168 Q352.125,420.418 352.125,420.7617 Q352.125,421.1055 351.7813,421.5117 Q351.2813,422.0898 350.4844,422.418 Q349.4063,422.8711 348.1094,422.8711 Q346.5938,422.8711 345.3906,422.2461 Q344.4063,421.7461 343.7188,420.6836 Q343.0313,419.6055 343.0313,418.3242 L343.0313,417.168 Q343.0313,415.8398 343.6406,414.6992 Q344.2656,413.543 345.3594,412.9336 Q346.4531,412.3086 347.6875,412.3086 Q348.4219,412.3086 349.0625,412.4805 Q349.7188,412.6367 350.2656,412.9961 Z " fill="#000000"/><text fill="#000000" font-family="sans-serif" font-size="14" lengthAdjust="spacing" textLength="59" x="368" y="422.918">RoomList</text><line style="stroke:#181818;stroke-width:0.5;" x1="300.75" x2="461.75" y1="433.1211" y2="433.1211"/><rect fill="none" height="6" style="stroke:#C82930;stroke-width:1.0;" width="6" x="307.75" y="444.9316"/><text fill="#000000" font-family="sans-serif" font-size="14" lengthAdjust="spacing" textLength="137" x="319.75" y="452.2285">roomList: List&lt;Room&gt;</text><line style="stroke:#181818;stroke-width:0.5;" x1="300.75" x2="461.75" y1="459.7422" y2="459.7422"/></g><!--class Room--><g id="elem_Room"><rect codeLine="45" fill="#F1F1F1" height="141.1055" id="Room" rx="2.5" ry="2.5" style="stroke:#181818;stroke-width:0.5;" width="443" x="278.75" y="555.6211"/><ellipse cx="477.5" cy="571.6211" fill="#ADD1B2" rx="11" ry="11" style="stroke:#181818;stroke-width:1.0;"/><path d="M480.2656,567.4961 Q480.4219,567.2773 480.6094,567.168 Q480.7969,567.0586 481.0156,567.0586 Q481.3906,567.0586 481.625,567.3242 Q481.8594,567.5742 481.8594,568.1836 L481.8594,569.6367 Q481.8594,570.2461 481.625,570.5117 Q481.3906,570.7773 481.0156,570.7773 Q480.6719,570.7773 480.4688,570.5742 Q480.2656,570.3867 480.1563,569.8711 Q480.1094,569.5117 479.9219,569.3242 Q479.5938,568.9492 478.9844,568.7305 Q478.375,568.5117 477.75,568.5117 Q476.9844,568.5117 476.3438,568.8398 Q475.7188,569.168 475.2188,569.918 Q474.7344,570.668 474.7344,571.6992 L474.7344,572.793 Q474.7344,574.0273 475.625,574.8555 Q476.5156,575.668 478.1094,575.668 Q479.0469,575.668 479.7031,575.418 Q480.0938,575.2617 480.5156,574.8242 Q480.7813,574.5586 480.9219,574.4805 Q481.0781,574.4023 481.2813,574.4023 Q481.6094,574.4023 481.8594,574.668 Q482.125,574.918 482.125,575.2617 Q482.125,575.6055 481.7813,576.0117 Q481.2813,576.5898 480.4844,576.918 Q479.4063,577.3711 478.1094,577.3711 Q476.5938,577.3711 475.3906,576.7461 Q474.4063,576.2461 473.7188,575.1836 Q473.0313,574.1055 473.0313,572.8242 L473.0313,571.668 Q473.0313,570.3398 473.6406,569.1992 Q474.2656,568.043 475.3594,567.4336 Q476.4531,566.8086 477.6875,566.8086 Q478.4219,566.8086 479.0625,566.9805 Q479.7188,567.1367 480.2656,567.4961 Z " fill="#000000"/><text fill="#000000" font-family="sans-serif" font-size="14" lengthAdjust="spacing" textLength="37" x="498" y="577.418">Room</text><line style="stroke:#181818;stroke-width:0.5;" x1="279.75" x2="720.75" y1="587.6211" y2="587.6211"/><rect fill="none" height="6" style="stroke:#C82930;stroke-width:1.0;" width="6" x="286.75" y="599.4316"/><text fill="#000000" font-family="sans-serif" font-size="14" lengthAdjust="spacing" textLength="113" x="298.75" y="606.7285">roomName: String</text><rect fill="none" height="6" style="stroke:#C82930;stroke-width:1.0;" width="6" x="286.75" y="618.0527"/><text fill="#000000" font-family="sans-serif" font-size="14" lengthAdjust="spacing" textLength="100" x="298.75" y="625.3496">floorNumber: int</text><rect fill="none" height="6" style="stroke:#C82930;stroke-width:1.0;" width="6" x="286.75" y="636.6738"/><text fill="#000000" font-family="sans-serif" font-size="14" lengthAdjust="spacing" textLength="152" x="298.75" y="643.9707">dimensions: Dimensions</text><rect fill="none" height="6" style="stroke:#C82930;stroke-width:1.0;" width="6" x="286.75" y="655.2949"/><text fill="#000000" font-family="sans-serif" font-size="14" lengthAdjust="spacing" textLength="136" x="298.75" y="662.5918">deviceList: DeviceList</text><line style="stroke:#181818;stroke-width:0.5;" x1="279.75" x2="720.75" y1="670.1055" y2="670.1055"/><ellipse cx="289.75" cy="684.916" fill="#84BE84" rx="3" ry="3" style="stroke:#038048;stroke-width:1.0;"/><text fill="#000000" font-family="sans-serif" font-size="14" lengthAdjust="spacing" textLength="417" x="298.75" y="689.2129">getListOfDevicesOfSpecificFunctionality(SensorType sensorType)</text></g><!--class DeviceList--><g id="elem_DeviceList"><rect codeLine="53" fill="#F1F1F1" height="66.6211" id="DeviceList" rx="2.5" ry="2.5" style="stroke:#181818;stroke-width:0.5;" width="178" x="757.25" y="592.6211"/><ellipse cx="809.5" cy="608.6211" fill="#ADD1B2" rx="11" ry="11" style="stroke:#181818;stroke-width:1.0;"/><path d="M812.2656,604.4961 Q812.4219,604.2773 812.6094,604.168 Q812.7969,604.0586 813.0156,604.0586 Q813.3906,604.0586 813.625,604.3242 Q813.8594,604.5742 813.8594,605.1836 L813.8594,606.6367 Q813.8594,607.2461 813.625,607.5117 Q813.3906,607.7773 813.0156,607.7773 Q812.6719,607.7773 812.4688,607.5742 Q812.2656,607.3867 812.1563,606.8711 Q812.1094,606.5117 811.9219,606.3242 Q811.5938,605.9492 810.9844,605.7305 Q810.375,605.5117 809.75,605.5117 Q808.9844,605.5117 808.3438,605.8398 Q807.7188,606.168 807.2188,606.918 Q806.7344,607.668 806.7344,608.6992 L806.7344,609.793 Q806.7344,611.0273 807.625,611.8555 Q808.5156,612.668 810.1094,612.668 Q811.0469,612.668 811.7031,612.418 Q812.0938,612.2617 812.5156,611.8242 Q812.7813,611.5586 812.9219,611.4805 Q813.0781,611.4023 813.2813,611.4023 Q813.6094,611.4023 813.8594,611.668 Q814.125,611.918 814.125,612.2617 Q814.125,612.6055 813.7813,613.0117 Q813.2813,613.5898 812.4844,613.918 Q811.4063,614.3711 810.1094,614.3711 Q808.5938,614.3711 807.3906,613.7461 Q806.4063,613.2461 805.7188,612.1836 Q805.0313,611.1055 805.0313,609.8242 L805.0313,608.668 Q805.0313,607.3398 805.6406,606.1992 Q806.2656,605.043 807.3594,604.4336 Q808.4531,603.8086 809.6875,603.8086 Q810.4219,603.8086 811.0625,603.9805 Q811.7188,604.1367 812.2656,604.4961 Z " fill="#000000"/><text fill="#000000" font-family="sans-serif" font-size="14" lengthAdjust="spacing" textLength="65" x="830" y="614.418">DeviceList</text><line style="stroke:#181818;stroke-width:0.5;" x1="758.25" x2="934.25" y1="624.6211" y2="624.6211"/><rect fill="none" height="6" style="stroke:#C82930;stroke-width:1.0;" width="6" x="765.25" y="636.4316"/><text fill="#000000" font-family="sans-serif" font-size="14" lengthAdjust="spacing" textLength="152" x="777.25" y="643.7285">deviceList: List&lt;Device&gt;</text><line style="stroke:#181818;stroke-width:0.5;" x1="758.25" x2="934.25" y1="651.2422" y2="651.2422"/></g><!--class Device--><g id="elem_Device"><rect codeLine="57" fill="#F1F1F1" height="122.4844" id="Device" rx="2.5" ry="2.5" style="stroke:#181818;stroke-width:0.5;" width="491" x="240.75" y="756.6211"/><ellipse cx="460.5" cy="772.6211" fill="#ADD1B2" rx="11" ry="11" style="stroke:#181818;stroke-width:1.0;"/><path d="M463.2656,768.4961 Q463.4219,768.2773 463.6094,768.168 Q463.7969,768.0586 464.0156,768.0586 Q464.3906,768.0586 464.625,768.3242 Q464.8594,768.5742 464.8594,769.1836 L464.8594,770.6367 Q464.8594,771.2461 464.625,771.5117 Q464.3906,771.7773 464.0156,771.7773 Q463.6719,771.7773 463.4688,771.5742 Q463.2656,771.3867 463.1563,770.8711 Q463.1094,770.5117 462.9219,770.3242 Q462.5938,769.9492 461.9844,769.7305 Q461.375,769.5117 460.75,769.5117 Q459.9844,769.5117 459.3438,769.8398 Q458.7188,770.168 458.2188,770.918 Q457.7344,771.668 457.7344,772.6992 L457.7344,773.793 Q457.7344,775.0273 458.625,775.8555 Q459.5156,776.668 461.1094,776.668 Q462.0469,776.668 462.7031,776.418 Q463.0938,776.2617 463.5156,775.8242 Q463.7813,775.5586 463.9219,775.4805 Q464.0781,775.4023 464.2813,775.4023 Q464.6094,775.4023 464.8594,775.668 Q465.125,775.918 465.125,776.2617 Q465.125,776.6055 464.7813,777.0117 Q464.2813,777.5898 463.4844,777.918 Q462.4063,778.3711 461.1094,778.3711 Q459.5938,778.3711 458.3906,777.7461 Q457.4063,777.2461 456.7188,776.1836 Q456.0313,775.1055 456.0313,773.8242 L456.0313,772.668 Q456.0313,771.3398 456.6406,770.1992 Q457.2656,769.043 458.3594,768.4336 Q459.4531,767.8086 460.6875,767.8086 Q461.4219,767.8086 462.0625,767.9805 Q462.7188,768.1367 463.2656,768.4961 Z " fill="#000000"/><text fill="#000000" font-family="sans-serif" font-size="14" lengthAdjust="spacing" textLength="43" x="481" y="778.418">Device</text><line style="stroke:#181818;stroke-width:0.5;" x1="241.75" x2="730.75" y1="788.6211" y2="788.6211"/><rect fill="none" height="6" style="stroke:#C82930;stroke-width:1.0;" width="6" x="248.75" y="800.4316"/><text fill="#000000" font-family="sans-serif" font-size="14" lengthAdjust="spacing" textLength="122" x="260.75" y="807.7285">deviceName: String</text><rect fill="none" height="6" style="stroke:#C82930;stroke-width:1.0;" width="6" x="248.75" y="819.0527"/><text fill="#000000" font-family="sans-serif" font-size="14" lengthAdjust="spacing" textLength="156" x="260.75" y="826.3496">sensorList: List&lt;Sensor&gt;</text><rect fill="none" height="6" style="stroke:#C82930;stroke-width:1.0;" width="6" x="248.75" y="837.6738"/><text fill="#000000" font-family="sans-serif" font-size="14" lengthAdjust="spacing" textLength="86" x="260.75" y="844.9707">status: Status</text><line style="stroke:#181818;stroke-width:0.5;" x1="241.75" x2="730.75" y1="852.4844" y2="852.4844"/><ellipse cx="251.75" cy="867.2949" fill="#84BE84" rx="3" ry="3" style="stroke:#038048;stroke-width:1.0;"/><text fill="#000000" font-family="sans-serif" font-size="14" lengthAdjust="spacing" textLength="465" x="260.75" y="871.5918">doesDeviceHaveSensorsOfSpecificSensorType(SensorType sensorType)</text></g><!--class Sensor--><g id="elem_Sensor"><rect codeLine="64" fill="#F1F1F1" height="66.6211" id="Sensor" rx="2.5" ry="2.5" style="stroke:#181818;stroke-width:0.5;" width="133" x="419.75" y="938.6211"/><ellipse cx="459.95" cy="954.6211" fill="#B4A7E5" rx="11" ry="11" style="stroke:#181818;stroke-width:1.0;"/><path d="M460.9031,951.2617 L460.9031,957.918 L462.6219,957.918 Q463.2313,957.918 463.4969,958.1523 Q463.7625,958.3867 463.7625,958.7773 Q463.7625,959.1523 463.4969,959.3867 Q463.2313,959.6211 462.6219,959.6211 L457.4813,959.6211 Q456.8719,959.6211 456.6063,959.3867 Q456.3406,959.1523 456.3406,958.7617 Q456.3406,958.3867 456.6063,958.1523 Q456.8719,957.918 457.4813,957.918 L459.2,957.918 L459.2,951.2617 L457.4813,951.2617 Q456.8719,951.2617 456.6063,951.0273 Q456.3406,950.793 456.3406,950.4023 Q456.3406,950.0273 456.6063,949.793 Q456.8719,949.5586 457.4813,949.5586 L462.6219,949.5586 Q463.2313,949.5586 463.4969,949.793 Q463.7625,950.0273 463.7625,950.4023 Q463.7625,950.793 463.4969,951.0273 Q463.2313,951.2617 462.6219,951.2617 L460.9031,951.2617 Z " fill="#000000"/><text fill="#000000" font-family="sans-serif" font-size="14" font-style="italic" lengthAdjust="spacing" textLength="45" x="479.55" y="960.418">Sensor</text><line style="stroke:#181818;stroke-width:0.5;" x1="420.75" x2="551.75" y1="970.6211" y2="970.6211"/><line style="stroke:#181818;stroke-width:0.5;" x1="420.75" x2="551.75" y1="978.6211" y2="978.6211"/><ellipse cx="430.75" cy="993.4316" fill="#84BE84" rx="3" ry="3" style="stroke:#038048;stroke-width:1.0;"/><text fill="#000000" font-family="sans-serif" font-size="14" lengthAdjust="spacing" textLength="107" x="439.75" y="997.7285">getSensorType()</text></g><!--link ListAllDevicesInRoomByFunctionalityController to House--><g id="link_ListAllDevicesInRoomByFunctionalityController_House"><path codeLine="70" d="M558.37,131.7111 C518.99,149.9311 472.02,171.6711 428.95,191.6011 " fill="none" id="ListAllDevicesInRoomByFunctionalityController-House" style="stroke:#181818;stroke-width:1.0;"/></g><!--link ListAllDevicesInRoomByFunctionalityController to RoomMapper--><g id="link_ListAllDevicesInRoomByFunctionalityController_RoomMapper"><path codeLine="71" d="M648.25,131.7111 C648.25,158.9111 648.25,193.9211 648.25,219.0911 " fill="none" id="ListAllDevicesInRoomByFunctionalityController-RoomMapper" style="stroke:#181818;stroke-width:1.0;"/></g><!--link RoomMapper to RoomDTO--><g id="link_RoomMapper_RoomDTO"><path codeLine="72" d="M648.25,286.2211 C648.25,310.5311 648.25,344.4411 648.25,373.6011 " fill="none" id="RoomMapper-RoomDTO" style="stroke:#181818;stroke-width:1.0;"/></g><!--link ListAllDevicesInRoomByFunctionalityController to DeviceMapper--><g id="link_ListAllDevicesInRoomByFunctionalityController_DeviceMapper"><path codeLine="73" d="M729.89,131.7111 C783.27,158.9111 852,193.9211 901.39,219.0911 " fill="none" id="ListAllDevicesInRoomByFunctionalityController-DeviceMapper" style="stroke:#181818;stroke-width:1.0;"/></g><!--link DeviceMapper to DeviceDTO--><g id="link_DeviceMapper_DeviceDTO"><path codeLine="74" d="M965.25,286.2211 C965.25,315.9011 965.25,359.8811 965.25,392.0811 " fill="none" id="DeviceMapper-DeviceDTO" style="stroke:#181818;stroke-width:1.0;"/></g><!--reverse link House to RoomList--><g id="link_House_RoomList"><path codeLine="75" d="M331.6447,324.7314 C344.9147,353.8614 355.35,376.7611 366.4,401.0311 " fill="none" id="House-backto-RoomList" style="stroke:#181818;stroke-width:1.0;"/><polygon fill="#181818" points="326.67,313.8111,325.5172,320.9295,331.6447,324.7314,332.7974,317.613,326.67,313.8111" style="stroke:#181818;stroke-width:1.0;"/><text fill="#000000" font-family="sans-serif" font-size="13" lengthAdjust="spacing" textLength="7" x="322.5853" y="336.3211">1</text><text fill="#000000" font-family="sans-serif" font-size="13" lengthAdjust="spacing" textLength="7" x="355.7873" y="389.8389">1</text></g><!--reverse link House to SensorCatalogue--><g id="link_House_SensorCatalogue"><path codeLine="76" d="M266.1947,324.5996 C229.2847,403.8696 170.67,529.7311 141.57,592.2311 " fill="none" id="House-backto-SensorCatalogue" style="stroke:#181818;stroke-width:1.0;"/><polygon fill="#181818" points="271.26,313.7211,265.1012,317.4719,266.1947,324.5996,272.3535,320.8488,271.26,313.7211" style="stroke:#181818;stroke-width:1.0;"/><text fill="#000000" font-family="sans-serif" font-size="13" lengthAdjust="spacing" textLength="7" x="260.4222" y="336.2201">1</text><text fill="#000000" font-family="sans-serif" font-size="13" lengthAdjust="spacing" textLength="7" x="136.8232" y="581.2427">1</text></g><!--reverse link RoomList to Room--><g id="link_RoomList_Room"><path codeLine="77" d="M408.0933,478.3625 C423.1133,502.2725 437.69,525.4911 456.42,555.3211 " fill="none" id="RoomList-backto-Room" style="stroke:#181818;stroke-width:1.0;"/><polygon fill="#181818" points="401.71,468.2011,401.5145,475.4095,408.0933,478.3625,408.2888,471.154,401.71,468.2011" style="stroke:#181818;stroke-width:1.0;"/><text fill="#000000" font-family="sans-serif" font-size="13" lengthAdjust="spacing" textLength="7" x="397.731" y="489.7846">1</text><text fill="#000000" font-family="sans-serif" font-size="13" lengthAdjust="spacing" textLength="20" x="430.8688" y="544.1812">0..*</text></g><!--reverse link Room to DeviceList--><g id="link_Room_DeviceList"><path codeLine="78" d="M733.91,626.1211 C745.56,626.1211 745.22,626.1211 756.88,626.1211 " fill="none" id="Room-backto-DeviceList" style="stroke:#181818;stroke-width:1.0;"/><polygon fill="#181818" points="721.91,626.1211,727.91,630.1211,733.91,626.1211,727.91,622.1211,721.91,626.1211" style="stroke:#181818;stroke-width:1.0;"/><text fill="#000000" font-family="sans-serif" font-size="13" lengthAdjust="spacing" textLength="7" x="730.0017" y="622.8473">1</text><text fill="#000000" font-family="sans-serif" font-size="13" lengthAdjust="spacing" textLength="7" x="742.1892" y="622.4732">1</text></g><!--reverse link DeviceList to Device--><g id="link_DeviceList_Device"><path codeLine="79" d="M789.1453,666.2773 C770.7853,678.4373 759.36,685.3811 739.25,696.6211 C701.8,717.5411 660.1,738.3011 621.54,756.5211 " fill="none" id="DeviceList-backto-Device" style="stroke:#181818;stroke-width:1.0;"/><polygon fill="#181818" points="799.15,659.6511,791.9389,659.6293,789.1453,666.2773,796.3564,666.2991,799.15,659.6511" style="stroke:#181818;stroke-width:1.0;"/><text fill="#000000" font-family="sans-serif" font-size="13" lengthAdjust="spacing" textLength="7" x="783.1369" y="681.2257">1</text><text fill="#000000" font-family="sans-serif" font-size="13" lengthAdjust="spacing" textLength="20" x="616.0267" y="745.4907">0..*</text></g><!--link Device to Sensor--><g id="link_Device_Sensor"><path codeLine="80" d="M486.25,878.8911 C486.25,899.2111 486.25,921.1011 486.25,938.4611 " fill="none" id="Device-Sensor" style="stroke:#181818;stroke-width:1.0;"/></g><!--link SensorCatalogue to Device--><g id="link_SensorCatalogue_Device"><path codeLine="81" d="M188.14,659.7011 C238.6,686.2611 311.23,724.4911 372.16,756.5711 " fill="none" id="SensorCatalogue-Device" style="stroke:#181818;stroke-width:1.0;"/></g><!--SRC=[jLJBRjim4BppAnQvr4uYEprM20ouCTeOQECYTav53unCAGGeKI2f14RGV-ykgGUbGm6Zw4KKT_OnmrtIIQS4FErlFgMmji3XXtuJ1fuiVdvg0-jZAIjfdU5Ecr_Ni8KtNZbm6WhXq5qX1Ze7hXGSnQlCX0LP8V2Y6okkeJ2wgSKHdayj37bJPKxgYYlfJk1EjR0Bs3ee6ymagqmrHz7vAfrnybsm3o_ErJPTBck5zPjIBJ9TBZF5hKsEaXU6bupvBNn3IckbDe7DjdhKklny-XANlTELCref5FdE4ayrXNjQs1NgeWoxFCxXiQz1ooJNRCv-TwMfr7TUrpxlbS7TGMyEkndPWRPpIBqJ6iTHQ20gvFF0IsIpTqPM1KjofRLvQCfdOL8y7iTGRYagY-Lj2fl-7-sUB757U_y_b0csWLxm3mG3rXuxaGo64StUH4I3vvYgHIhQ10BqlTrxmsf8uO-Hmhl6ecFx5xI7uCVshqjvm249o7wq_xTcXLntt76bYqQy-sojaHo4dSqx8LwX5nBrZA2kQP5gWbRZxlwdrWxoM-sxV5-BJEOo6wiUZWs64vrFMzlfYQjvHG5UJVtFdeF4EkuQIvwquWXgOKEkU_ugWbiaOg3z5mLuSCBa7Ea47uWRwMEz6sFdlGj9qZu8PuSDZm2BteCMe1jrTiRuvhBHDUv1oXjkryN72xX4EwtzHOeXlqo6d_Npt8VVB1QN8OC7u-1e1AF96KS6eCM9PrkIJIeF4jWV]--></g></svg>