<?xml version="1.0" encoding="us-ascii" standalone="no"?><svg xmlns="http://www.w3.org/2000/svg" xmlns:xlink="http://www.w3.org/1999/xlink" contentStyleType="text/css" height="1270px" preserveAspectRatio="none" style="width:2350px;height:1270px;background:#FFFFFF;" version="1.1" viewBox="0 0 2350 1270" width="2350px" zoomAndPan="magnify"><defs/><g><text fill="#000000" font-family="sans-serif" font-size="14" font-weight="bold" lengthAdjust="spacing" textLength="599" x="880.25" y="30.1074">US09 - As a Power User [or Administrator], I want to get a list of all devices in a house,</text><text fill="#000000" font-family="sans-serif" font-size="14" font-weight="bold" lengthAdjust="spacing" textLength="491" x="938.25" y="48.7285">grouped by device functionality types. It must include device location.</text><rect fill="#FFFFFF" height="1084.2344" style="stroke:#181818;stroke-width:1.0;" width="10" x="361" y="130.1543"/><rect fill="#FFFFFF" height="579.5781" style="stroke:#181818;stroke-width:1.0;" width="10" x="707" y="161.4453"/><rect fill="#FFFFFF" height="406.123" style="stroke:#181818;stroke-width:1.0;" width="10" x="1052" y="245.3184"/><rect fill="#FFFFFF" height="318.25" style="stroke:#181818;stroke-width:1.0;" width="10" x="1437" y="302.9004"/><rect fill="#FFFFFF" height="31.291" style="stroke:#181818;stroke-width:1.0;" width="10" x="1572" y="418.0645"/><rect fill="#FFFFFF" height="93.873" style="stroke:#181818;stroke-width:1.0;" width="10" x="1685" y="798.6055"/><rect fill="#FFFFFF" height="93.873" style="stroke:#181818;stroke-width:1.0;" width="10" x="1821" y="950.0605"/><rect fill="#FFFFFF" height="93.873" style="stroke:#181818;stroke-width:1.0;" width="10" x="1937" y="1075.2246"/><rect fill="#FFFFFF" height="31.291" style="stroke:#181818;stroke-width:1.0;" width="10" x="2061" y="829.8965"/><rect fill="#FFFFFF" height="31.291" style="stroke:#181818;stroke-width:1.0;" width="10" x="2179" y="981.3516"/><rect fill="#FFFFFF" height="31.291" style="stroke:#181818;stroke-width:1.0;" width="10" x="2277" y="1106.5156"/><rect fill="none" height="507.9961" style="stroke:#000000;stroke-width:1.5;" width="985.5" x="663" y="202.7363"/><rect fill="none" height="443.4141" style="stroke:#000000;stroke-width:1.5;" width="965.5" x="673" y="260.3184"/><rect fill="none" height="303.25" style="stroke:#000000;stroke-width:1.5;" width="629" x="999.5" y="317.9004"/><rect fill="none" height="238.668" style="stroke:#000000;stroke-width:1.5;" width="609" x="1009.5" y="375.4824"/><rect fill="none" height="94.873" style="stroke:#000000;stroke-width:1.5;" width="463" x="1019.5" y="464.3555"/><rect fill="none" height="428.0742" style="stroke:#000000;stroke-width:1.5;" width="2154" x="190.5" y="756.0234"/><rect fill="none" height="269.6191" style="stroke:#000000;stroke-width:1.5;" width="2134" x="200.5" y="907.4785"/><line style="stroke:#181818;stroke-width:0.5;stroke-dasharray:5.0,5.0;" x1="365.5" x2="365.5" y1="96.8633" y2="1232.3887"/><line style="stroke:#181818;stroke-width:0.5;stroke-dasharray:5.0,5.0;" x1="712" x2="712" y1="96.8633" y2="1232.3887"/><line style="stroke:#181818;stroke-width:0.5;stroke-dasharray:5.0,5.0;" x1="1056.5" x2="1056.5" y1="96.8633" y2="1232.3887"/><line style="stroke:#181818;stroke-width:0.5;stroke-dasharray:5.0,5.0;" x1="1441.5" x2="1441.5" y1="96.8633" y2="1232.3887"/><line style="stroke:#181818;stroke-width:0.5;stroke-dasharray:5.0,5.0;" x1="1576.5" x2="1576.5" y1="96.8633" y2="1232.3887"/><line style="stroke:#181818;stroke-width:0.5;stroke-dasharray:5.0,5.0;" x1="1689.5" x2="1689.5" y1="96.8633" y2="1232.3887"/><line style="stroke:#181818;stroke-width:0.5;stroke-dasharray:5.0,5.0;" x1="1825.5" x2="1825.5" y1="96.8633" y2="1232.3887"/><line style="stroke:#181818;stroke-width:0.5;stroke-dasharray:5.0,5.0;" x1="1941.5" x2="1941.5" y1="96.8633" y2="1232.3887"/><line style="stroke:#181818;stroke-width:0.5;stroke-dasharray:5.0,5.0;" x1="2065.5" x2="2065.5" y1="96.8633" y2="1232.3887"/><line style="stroke:#181818;stroke-width:0.5;stroke-dasharray:5.0,5.0;" x1="2183.5" x2="2183.5" y1="96.8633" y2="1232.3887"/><line style="stroke:#181818;stroke-width:0.5;stroke-dasharray:5.0,5.0;" x1="2281.5" x2="2281.5" y1="96.8633" y2="1232.3887"/><rect fill="#E2E2F0" height="32.6211" rx="2.5" ry="2.5" style="stroke:#181818;stroke-width:0.5;" width="311" x="210.5" y="63.2422"/><text fill="#000000" font-family="sans-serif" font-size="14" lengthAdjust="spacing" textLength="297" x="217.5" y="85.3496">:ListAllDevicesInRoomByFunctionalityController</text><rect fill="#E2E2F0" height="32.6211" rx="2.5" ry="2.5" style="stroke:#181818;stroke-width:0.5;" width="311" x="210.5" y="1231.3887"/><text fill="#000000" font-family="sans-serif" font-size="14" lengthAdjust="spacing" textLength="297" x="217.5" y="1253.4961">:ListAllDevicesInRoomByFunctionalityController</text><rect fill="#E2E2F0" height="32.6211" rx="2.5" ry="2.5" style="stroke:#181818;stroke-width:0.5;" width="58" x="683" y="63.2422"/><text fill="#000000" font-family="sans-serif" font-size="14" lengthAdjust="spacing" textLength="44" x="690" y="85.3496">:House</text><rect fill="#E2E2F0" height="32.6211" rx="2.5" ry="2.5" style="stroke:#181818;stroke-width:0.5;" width="58" x="683" y="1231.3887"/><text fill="#000000" font-family="sans-serif" font-size="14" lengthAdjust="spacing" textLength="44" x="690" y="1253.4961">:House</text><rect fill="#E2E2F0" height="32.6211" rx="2.5" ry="2.5" style="stroke:#181818;stroke-width:0.5;" width="55" x="1029.5" y="63.2422"/><text fill="#000000" font-family="sans-serif" font-size="14" lengthAdjust="spacing" textLength="41" x="1036.5" y="85.3496">:Room</text><rect fill="#E2E2F0" height="32.6211" rx="2.5" ry="2.5" style="stroke:#181818;stroke-width:0.5;" width="55" x="1029.5" y="1231.3887"/><text fill="#000000" font-family="sans-serif" font-size="14" lengthAdjust="spacing" textLength="41" x="1036.5" y="1253.4961">:Room</text><rect fill="#E2E2F0" height="32.6211" rx="2.5" ry="2.5" style="stroke:#181818;stroke-width:0.5;" width="61" x="1411.5" y="63.2422"/><text fill="#000000" font-family="sans-serif" font-size="14" lengthAdjust="spacing" textLength="47" x="1418.5" y="85.3496">:Device</text><rect fill="#E2E2F0" height="32.6211" rx="2.5" ry="2.5" style="stroke:#181818;stroke-width:0.5;" width="61" x="1411.5" y="1231.3887"/><text fill="#000000" font-family="sans-serif" font-size="14" lengthAdjust="spacing" textLength="47" x="1418.5" y="1253.4961">:Device</text><rect fill="#E2E2F0" height="32.6211" rx="2.5" ry="2.5" style="stroke:#181818;stroke-width:0.5;" width="63" x="1545.5" y="63.2422"/><text fill="#000000" font-family="sans-serif" font-size="14" lengthAdjust="spacing" textLength="49" x="1552.5" y="85.3496">:Sensor</text><rect fill="#E2E2F0" height="32.6211" rx="2.5" ry="2.5" style="stroke:#181818;stroke-width:0.5;" width="63" x="1545.5" y="1231.3887"/><text fill="#000000" font-family="sans-serif" font-size="14" lengthAdjust="spacing" textLength="49" x="1552.5" y="1253.4961">:Sensor</text><rect fill="#E2E2F0" height="32.6211" rx="2.5" ry="2.5" style="stroke:#181818;stroke-width:0.5;" width="143" x="1618.5" y="63.2422"/><text fill="#000000" font-family="sans-serif" font-size="14" lengthAdjust="spacing" textLength="129" x="1625.5" y="85.3496">:SensorTypeMapper</text><rect fill="#E2E2F0" height="32.6211" rx="2.5" ry="2.5" style="stroke:#181818;stroke-width:0.5;" width="143" x="1618.5" y="1231.3887"/><text fill="#000000" font-family="sans-serif" font-size="14" lengthAdjust="spacing" textLength="129" x="1625.5" y="1253.4961">:SensorTypeMapper</text><rect fill="#E2E2F0" height="32.6211" rx="2.5" ry="2.5" style="stroke:#181818;stroke-width:0.5;" width="109" x="1771.5" y="63.2422"/><text fill="#000000" font-family="sans-serif" font-size="14" lengthAdjust="spacing" textLength="95" x="1778.5" y="85.3496">:DeviceMapper</text><rect fill="#E2E2F0" height="32.6211" rx="2.5" ry="2.5" style="stroke:#181818;stroke-width:0.5;" width="109" x="1771.5" y="1231.3887"/><text fill="#000000" font-family="sans-serif" font-size="14" lengthAdjust="spacing" textLength="95" x="1778.5" y="1253.4961">:DeviceMapper</text><rect fill="#E2E2F0" height="32.6211" rx="2.5" ry="2.5" style="stroke:#181818;stroke-width:0.5;" width="103" x="1890.5" y="63.2422"/><text fill="#000000" font-family="sans-serif" font-size="14" lengthAdjust="spacing" textLength="89" x="1897.5" y="85.3496">:RoomMapper</text><rect fill="#E2E2F0" height="32.6211" rx="2.5" ry="2.5" style="stroke:#181818;stroke-width:0.5;" width="103" x="1890.5" y="1231.3887"/><text fill="#000000" font-family="sans-serif" font-size="14" lengthAdjust="spacing" textLength="89" x="1897.5" y="1253.4961">:RoomMapper</text><rect fill="#E2E2F0" height="32.6211" rx="2.5" ry="2.5" style="stroke:#181818;stroke-width:0.5;" width="125" x="2003.5" y="63.2422"/><text fill="#000000" font-family="sans-serif" font-size="14" lengthAdjust="spacing" textLength="111" x="2010.5" y="85.3496">:SensorTypeDTO</text><rect fill="#E2E2F0" height="32.6211" rx="2.5" ry="2.5" style="stroke:#181818;stroke-width:0.5;" width="125" x="2003.5" y="1231.3887"/><text fill="#000000" font-family="sans-serif" font-size="14" lengthAdjust="spacing" textLength="111" x="2010.5" y="1253.4961">:SensorTypeDTO</text><rect fill="#E2E2F0" height="32.6211" rx="2.5" ry="2.5" style="stroke:#181818;stroke-width:0.5;" width="91" x="2138.5" y="63.2422"/><text fill="#000000" font-family="sans-serif" font-size="14" lengthAdjust="spacing" textLength="77" x="2145.5" y="85.3496">:DeviceDTO</text><rect fill="#E2E2F0" height="32.6211" rx="2.5" ry="2.5" style="stroke:#181818;stroke-width:0.5;" width="91" x="2138.5" y="1231.3887"/><text fill="#000000" font-family="sans-serif" font-size="14" lengthAdjust="spacing" textLength="77" x="2145.5" y="1253.4961">:DeviceDTO</text><rect fill="#E2E2F0" height="32.6211" rx="2.5" ry="2.5" style="stroke:#181818;stroke-width:0.5;" width="85" x="2239.5" y="63.2422"/><text fill="#000000" font-family="sans-serif" font-size="14" lengthAdjust="spacing" textLength="71" x="2246.5" y="85.3496">:RoomDTO</text><rect fill="#E2E2F0" height="32.6211" rx="2.5" ry="2.5" style="stroke:#181818;stroke-width:0.5;" width="85" x="2239.5" y="1231.3887"/><text fill="#000000" font-family="sans-serif" font-size="14" lengthAdjust="spacing" textLength="71" x="2246.5" y="1253.4961">:RoomDTO</text><rect fill="#FFFFFF" height="1084.2344" style="stroke:#181818;stroke-width:1.0;" width="10" x="361" y="130.1543"/><rect fill="#FFFFFF" height="579.5781" style="stroke:#181818;stroke-width:1.0;" width="10" x="707" y="161.4453"/><rect fill="#FFFFFF" height="406.123" style="stroke:#181818;stroke-width:1.0;" width="10" x="1052" y="245.3184"/><rect fill="#FFFFFF" height="318.25" style="stroke:#181818;stroke-width:1.0;" width="10" x="1437" y="302.9004"/><rect fill="#FFFFFF" height="31.291" style="stroke:#181818;stroke-width:1.0;" width="10" x="1572" y="418.0645"/><rect fill="#FFFFFF" height="93.873" style="stroke:#181818;stroke-width:1.0;" width="10" x="1685" y="798.6055"/><rect fill="#FFFFFF" height="93.873" style="stroke:#181818;stroke-width:1.0;" width="10" x="1821" y="950.0605"/><rect fill="#FFFFFF" height="93.873" style="stroke:#181818;stroke-width:1.0;" width="10" x="1937" y="1075.2246"/><rect fill="#FFFFFF" height="31.291" style="stroke:#181818;stroke-width:1.0;" width="10" x="2061" y="829.8965"/><rect fill="#FFFFFF" height="31.291" style="stroke:#181818;stroke-width:1.0;" width="10" x="2179" y="981.3516"/><rect fill="#FFFFFF" height="31.291" style="stroke:#181818;stroke-width:1.0;" width="10" x="2277" y="1106.5156"/><polygon fill="#181818" points="349,126.1543,359,130.1543,349,134.1543,353,130.1543" style="stroke:#181818;stroke-width:1.0;"/><line style="stroke:#181818;stroke-width:1.0;" x1="0" x2="355" y1="130.1543" y2="130.1543"/><text fill="#000000" font-family="sans-serif" font-size="13" font-weight="bold" lengthAdjust="spacing" textLength="7" x="7" y="124.8916">1</text><text fill="#000000" font-family="sans-serif" font-size="13" lengthAdjust="spacing" textLength="257" x="18" y="124.8916">getListOfAllDevicesInHouseByFunctionality()</text><polygon fill="#181818" points="695,157.4453,705,161.4453,695,165.4453,699,161.4453" style="stroke:#181818;stroke-width:1.0;"/><line style="stroke:#181818;stroke-width:1.0;" x1="371" x2="701" y1="161.4453" y2="161.4453"/><text fill="#000000" font-family="sans-serif" font-size="13" font-weight="bold" lengthAdjust="spacing" textLength="7" x="378" y="156.1826">2</text><text fill="#000000" font-family="sans-serif" font-size="13" lengthAdjust="spacing" textLength="306" x="389" y="156.1826">getListOfAllDevicesInHouseGroupedByFunctionality()</text><path d="M663,202.7363 L736,202.7363 L736,212.0273 L726,222.0273 L663,222.0273 L663,202.7363 " fill="#EEEEEE" style="stroke:#000000;stroke-width:1.5;"/><rect fill="none" height="507.9961" style="stroke:#000000;stroke-width:1.5;" width="985.5" x="663" y="202.7363"/><text fill="#000000" font-family="sans-serif" font-size="13" font-weight="bold" lengthAdjust="spacing" textLength="28" x="678" y="217.7646">loop</text><text fill="#000000" font-family="sans-serif" font-size="11" font-weight="bold" lengthAdjust="spacing" textLength="86" x="751" y="216.6064">[for each room]</text><polygon fill="#181818" points="1040,241.3184,1050,245.3184,1040,249.3184,1044,245.3184" style="stroke:#181818;stroke-width:1.0;"/><line style="stroke:#181818;stroke-width:1.0;" x1="717" x2="1046" y1="245.3184" y2="245.3184"/><text fill="#000000" font-family="sans-serif" font-size="13" font-weight="bold" lengthAdjust="spacing" textLength="7" x="724" y="240.0557">3</text><text fill="#000000" font-family="sans-serif" font-size="13" lengthAdjust="spacing" textLength="305" x="735" y="240.0557">getListOfDevicesOfSpecificFunctionality(sensorType)</text><path d="M673,260.3184 L746,260.3184 L746,269.6094 L736,279.6094 L673,279.6094 L673,260.3184 " fill="#EEEEEE" style="stroke:#000000;stroke-width:1.5;"/><rect fill="none" height="443.4141" style="stroke:#000000;stroke-width:1.5;" width="965.5" x="673" y="260.3184"/><text fill="#000000" font-family="sans-serif" font-size="13" font-weight="bold" lengthAdjust="spacing" textLength="28" x="688" y="275.3467">loop</text><text fill="#000000" font-family="sans-serif" font-size="11" font-weight="bold" lengthAdjust="spacing" textLength="92" x="761" y="274.1885">[for each device]</text><polygon fill="#181818" points="1425,298.9004,1435,302.9004,1425,306.9004,1429,302.9004" style="stroke:#181818;stroke-width:1.0;"/><line style="stroke:#181818;stroke-width:1.0;" x1="1062" x2="1431" y1="302.9004" y2="302.9004"/><text fill="#000000" font-family="sans-serif" font-size="13" font-weight="bold" lengthAdjust="spacing" textLength="7" x="1069" y="297.6377">4</text><text fill="#000000" font-family="sans-serif" font-size="13" lengthAdjust="spacing" textLength="345" x="1080" y="297.6377">doesDeviceHaveSensorsOfSpecificSensorType(sensorType)</text><path d="M999.5,317.9004 L1060.5,317.9004 L1060.5,327.1914 L1050.5,337.1914 L999.5,337.1914 L999.5,317.9004 " fill="#EEEEEE" style="stroke:#000000;stroke-width:1.5;"/><rect fill="none" height="303.25" style="stroke:#000000;stroke-width:1.5;" width="629" x="999.5" y="317.9004"/><text fill="#000000" font-family="sans-serif" font-size="13" font-weight="bold" lengthAdjust="spacing" textLength="16" x="1014.5" y="332.9287">alt</text><text fill="#000000" font-family="sans-serif" font-size="11" font-weight="bold" lengthAdjust="spacing" textLength="130" x="1075.5" y="331.7705">[if sensorList is empty]</text><polygon fill="#181818" points="1073,356.4824,1063,360.4824,1073,364.4824,1069,360.4824" style="stroke:#181818;stroke-width:1.0;"/><line style="stroke:#181818;stroke-width:1.0;stroke-dasharray:2.0,2.0;" x1="1067" x2="1436" y1="360.4824" y2="360.4824"/><text fill="#000000" font-family="sans-serif" font-size="13" font-weight="bold" lengthAdjust="spacing" textLength="7" x="1079" y="355.2197">5</text><text fill="#000000" font-family="sans-serif" font-size="13" lengthAdjust="spacing" textLength="64" x="1090" y="355.2197">return false</text><path d="M1009.5,375.4824 L1082.5,375.4824 L1082.5,384.7734 L1072.5,394.7734 L1009.5,394.7734 L1009.5,375.4824 " fill="#EEEEEE" style="stroke:#000000;stroke-width:1.5;"/><rect fill="none" height="238.668" style="stroke:#000000;stroke-width:1.5;" width="609" x="1009.5" y="375.4824"/><text fill="#000000" font-family="sans-serif" font-size="13" font-weight="bold" lengthAdjust="spacing" textLength="28" x="1024.5" y="390.5107">loop</text><text fill="#000000" font-family="sans-serif" font-size="11" font-weight="bold" lengthAdjust="spacing" textLength="96" x="1097.5" y="389.3525">[for each sensor]</text><polygon fill="#181818" points="1560,414.0645,1570,418.0645,1560,422.0645,1564,418.0645" style="stroke:#181818;stroke-width:1.0;"/><line style="stroke:#181818;stroke-width:1.0;" x1="1447" x2="1566" y1="418.0645" y2="418.0645"/><text fill="#000000" font-family="sans-serif" font-size="13" font-weight="bold" lengthAdjust="spacing" textLength="7" x="1454" y="412.8018">6</text><text fill="#000000" font-family="sans-serif" font-size="13" lengthAdjust="spacing" textLength="95" x="1465" y="412.8018">getSensorType()</text><polygon fill="#181818" points="1458,445.3555,1448,449.3555,1458,453.3555,1454,449.3555" style="stroke:#181818;stroke-width:1.0;"/><line style="stroke:#181818;stroke-width:1.0;stroke-dasharray:2.0,2.0;" x1="1452" x2="1576" y1="449.3555" y2="449.3555"/><text fill="#000000" font-family="sans-serif" font-size="13" font-weight="bold" lengthAdjust="spacing" textLength="7" x="1464" y="444.0928">7</text><text fill="#000000" font-family="sans-serif" font-size="13" lengthAdjust="spacing" textLength="67" x="1475" y="444.0928">sensorType</text><path d="M1019.5,464.3555 L1080.5,464.3555 L1080.5,473.6465 L1070.5,483.6465 L1019.5,483.6465 L1019.5,464.3555 " fill="#EEEEEE" style="stroke:#000000;stroke-width:1.5;"/><rect fill="none" height="94.873" style="stroke:#000000;stroke-width:1.5;" width="463" x="1019.5" y="464.3555"/><text fill="#000000" font-family="sans-serif" font-size="13" font-weight="bold" lengthAdjust="spacing" textLength="16" x="1034.5" y="479.3838">alt</text><text fill="#000000" font-family="sans-serif" font-size="11" font-weight="bold" lengthAdjust="spacing" textLength="201" x="1095.5" y="478.2256">[if sensor is of specific sensorType]</text><polygon fill="#181818" points="1073,502.9375,1063,506.9375,1073,510.9375,1069,506.9375" style="stroke:#181818;stroke-width:1.0;"/><line style="stroke:#181818;stroke-width:1.0;stroke-dasharray:2.0,2.0;" x1="1067" x2="1436" y1="506.9375" y2="506.9375"/><text fill="#000000" font-family="sans-serif" font-size="13" font-weight="bold" lengthAdjust="spacing" textLength="7" x="1079" y="501.6748">8</text><text fill="#000000" font-family="sans-serif" font-size="13" lengthAdjust="spacing" textLength="59" x="1090" y="501.6748">return true</text><line style="stroke:#181818;stroke-width:1.0;" x1="1062" x2="1104" y1="538.2285" y2="538.2285"/><line style="stroke:#181818;stroke-width:1.0;" x1="1104" x2="1104" y1="538.2285" y2="551.2285"/><line style="stroke:#181818;stroke-width:1.0;" x1="1063" x2="1104" y1="551.2285" y2="551.2285"/><polygon fill="#181818" points="1073,547.2285,1063,551.2285,1073,555.2285,1069,551.2285" style="stroke:#181818;stroke-width:1.0;"/><text fill="#000000" font-family="sans-serif" font-size="13" font-weight="bold" lengthAdjust="spacing" textLength="7" x="1069" y="532.9658">9</text><text fill="#000000" font-family="sans-serif" font-size="13" lengthAdjust="spacing" textLength="99" x="1080" y="532.9658">add Device to list</text><line style="stroke:#000000;stroke-width:1.0;stroke-dasharray:2.0,2.0;" x1="1009.5" x2="1618.5" y1="567.2285" y2="567.2285"/><text fill="#000000" font-family="sans-serif" font-size="11" font-weight="bold" lengthAdjust="spacing" textLength="305" x="1014.5" y="579.0986">[device does not have sensors of specific sensorType]</text><polygon fill="#181818" points="1073,602.1504,1063,606.1504,1073,610.1504,1069,606.1504" style="stroke:#181818;stroke-width:1.0;"/><line style="stroke:#181818;stroke-width:1.0;stroke-dasharray:2.0,2.0;" x1="1067" x2="1436" y1="606.1504" y2="606.1504"/><text fill="#000000" font-family="sans-serif" font-size="13" font-weight="bold" lengthAdjust="spacing" textLength="14" x="1079" y="600.8877">10</text><text fill="#000000" font-family="sans-serif" font-size="13" lengthAdjust="spacing" textLength="64" x="1097" y="600.8877">return false</text><polygon fill="#181818" points="728,647.4414,718,651.4414,728,655.4414,724,651.4414" style="stroke:#181818;stroke-width:1.0;"/><line style="stroke:#181818;stroke-width:1.0;stroke-dasharray:2.0,2.0;" x1="722" x2="1056" y1="651.4414" y2="651.4414"/><text fill="#000000" font-family="sans-serif" font-size="13" font-weight="bold" lengthAdjust="spacing" textLength="14" x="734" y="646.1787">11</text><text fill="#000000" font-family="sans-serif" font-size="13" lengthAdjust="spacing" textLength="208" x="752" y="646.1787">listOfDevicesOfSpecificFunctionality</text><line style="stroke:#181818;stroke-width:1.0;" x1="717" x2="759" y1="682.7324" y2="682.7324"/><line style="stroke:#181818;stroke-width:1.0;" x1="759" x2="759" y1="682.7324" y2="695.7324"/><line style="stroke:#181818;stroke-width:1.0;" x1="718" x2="759" y1="695.7324" y2="695.7324"/><polygon fill="#181818" points="728,691.7324,718,695.7324,728,699.7324,724,695.7324" style="stroke:#181818;stroke-width:1.0;"/><text fill="#000000" font-family="sans-serif" font-size="13" font-weight="bold" lengthAdjust="spacing" textLength="14" x="724" y="677.4697">12</text><text fill="#000000" font-family="sans-serif" font-size="13" lengthAdjust="spacing" textLength="159" x="742" y="677.4697">Add to map (Device, Room)</text><polygon fill="#181818" points="382,737.0234,372,741.0234,382,745.0234,378,741.0234" style="stroke:#181818;stroke-width:1.0;"/><line style="stroke:#181818;stroke-width:1.0;stroke-dasharray:2.0,2.0;" x1="376" x2="711" y1="741.0234" y2="741.0234"/><text fill="#000000" font-family="sans-serif" font-size="13" font-weight="bold" lengthAdjust="spacing" textLength="14" x="388" y="735.7607">13</text><text fill="#000000" font-family="sans-serif" font-size="13" lengthAdjust="spacing" textLength="239" x="406" y="735.7607">Map&lt;SensorType, Map&lt;Device, Room&gt;&gt;</text><path d="M190.5,756.0234 L263.5,756.0234 L263.5,765.3145 L253.5,775.3145 L190.5,775.3145 L190.5,756.0234 " fill="#EEEEEE" style="stroke:#000000;stroke-width:1.5;"/><rect fill="none" height="428.0742" style="stroke:#000000;stroke-width:1.5;" width="2154" x="190.5" y="756.0234"/><text fill="#000000" font-family="sans-serif" font-size="13" font-weight="bold" lengthAdjust="spacing" textLength="28" x="205.5" y="771.0518">loop</text><text fill="#000000" font-family="sans-serif" font-size="11" font-weight="bold" lengthAdjust="spacing" textLength="294" x="278.5" y="769.8936">[for each Entry in &lt;SensorType, Map&lt;Device, Room&gt;&gt;]</text><polygon fill="#181818" points="1673,794.6055,1683,798.6055,1673,802.6055,1677,798.6055" style="stroke:#181818;stroke-width:1.0;"/><line style="stroke:#181818;stroke-width:1.0;" x1="371" x2="1679" y1="798.6055" y2="798.6055"/><text fill="#000000" font-family="sans-serif" font-size="13" font-weight="bold" lengthAdjust="spacing" textLength="14" x="378" y="793.3428">14</text><text fill="#000000" font-family="sans-serif" font-size="13" lengthAdjust="spacing" textLength="182" x="396" y="793.3428">sensorTypeToDTO(sensorType)</text><polygon fill="#181818" points="2049,825.8965,2059,829.8965,2049,833.8965,2053,829.8965" style="stroke:#181818;stroke-width:1.0;"/><line style="stroke:#181818;stroke-width:1.0;" x1="1695" x2="2055" y1="829.8965" y2="829.8965"/><text fill="#000000" font-family="sans-serif" font-size="13" font-weight="bold" lengthAdjust="spacing" textLength="14" x="1702" y="824.6338">15</text><text fill="#000000" font-family="sans-serif" font-size="13" lengthAdjust="spacing" textLength="67" x="1720" y="824.6338">sensorType</text><polygon fill="#181818" points="1706,857.1875,1696,861.1875,1706,865.1875,1702,861.1875" style="stroke:#181818;stroke-width:1.0;"/><line style="stroke:#181818;stroke-width:1.0;stroke-dasharray:2.0,2.0;" x1="1700" x2="2065" y1="861.1875" y2="861.1875"/><text fill="#000000" font-family="sans-serif" font-size="13" font-weight="bold" lengthAdjust="spacing" textLength="14" x="1712" y="855.9248">16</text><text fill="#000000" font-family="sans-serif" font-size="13" lengthAdjust="spacing" textLength="95" x="1730" y="855.9248">SensorTypeDTO</text><polygon fill="#181818" points="382,888.4785,372,892.4785,382,896.4785,378,892.4785" style="stroke:#181818;stroke-width:1.0;"/><line style="stroke:#181818;stroke-width:1.0;stroke-dasharray:2.0,2.0;" x1="376" x2="1689" y1="892.4785" y2="892.4785"/><text fill="#000000" font-family="sans-serif" font-size="13" font-weight="bold" lengthAdjust="spacing" textLength="14" x="388" y="887.2158">17</text><text fill="#000000" font-family="sans-serif" font-size="13" lengthAdjust="spacing" textLength="95" x="406" y="887.2158">SensorTypeDTO</text><path d="M200.5,907.4785 L273.5,907.4785 L273.5,916.7695 L263.5,926.7695 L200.5,926.7695 L200.5,907.4785 " fill="#EEEEEE" style="stroke:#000000;stroke-width:1.5;"/><rect fill="none" height="269.6191" style="stroke:#000000;stroke-width:1.5;" width="2134" x="200.5" y="907.4785"/><text fill="#000000" font-family="sans-serif" font-size="13" font-weight="bold" lengthAdjust="spacing" textLength="28" x="215.5" y="922.5068">loop</text><text fill="#000000" font-family="sans-serif" font-size="11" font-weight="bold" lengthAdjust="spacing" textLength="186" x="288.5" y="921.3486">[for each Entry in &lt;Device, Room&gt;]</text><polygon fill="#181818" points="1809,946.0605,1819,950.0605,1809,954.0605,1813,950.0605" style="stroke:#181818;stroke-width:1.0;"/><line style="stroke:#181818;stroke-width:1.0;" x1="371" x2="1815" y1="950.0605" y2="950.0605"/><text fill="#000000" font-family="sans-serif" font-size="13" font-weight="bold" lengthAdjust="spacing" textLength="14" x="378" y="944.7979">18</text><text fill="#000000" font-family="sans-serif" font-size="13" lengthAdjust="spacing" textLength="120" x="396" y="944.7979">deviceToDTO(device)</text><polygon fill="#181818" points="2167,977.3516,2177,981.3516,2167,985.3516,2171,981.3516" style="stroke:#181818;stroke-width:1.0;"/><line style="stroke:#181818;stroke-width:1.0;" x1="1831" x2="2173" y1="981.3516" y2="981.3516"/><text fill="#000000" font-family="sans-serif" font-size="13" font-weight="bold" lengthAdjust="spacing" textLength="14" x="1838" y="976.0889">19</text><text fill="#000000" font-family="sans-serif" font-size="13" lengthAdjust="spacing" textLength="36" x="1856" y="976.0889">device</text><polygon fill="#181818" points="1842,1008.6426,1832,1012.6426,1842,1016.6426,1838,1012.6426" style="stroke:#181818;stroke-width:1.0;"/><line style="stroke:#181818;stroke-width:1.0;stroke-dasharray:2.0,2.0;" x1="1836" x2="2183" y1="1012.6426" y2="1012.6426"/><text fill="#000000" font-family="sans-serif" font-size="13" font-weight="bold" lengthAdjust="spacing" textLength="14" x="1848" y="1007.3799">20</text><text fill="#000000" font-family="sans-serif" font-size="13" lengthAdjust="spacing" textLength="62" x="1866" y="1007.3799">deviceDTO</text><polygon fill="#181818" points="382,1039.9336,372,1043.9336,382,1047.9336,378,1043.9336" style="stroke:#181818;stroke-width:1.0;"/><line style="stroke:#181818;stroke-width:1.0;stroke-dasharray:2.0,2.0;" x1="376" x2="1825" y1="1043.9336" y2="1043.9336"/><text fill="#000000" font-family="sans-serif" font-size="13" font-weight="bold" lengthAdjust="spacing" textLength="14" x="388" y="1038.6709">21</text><text fill="#000000" font-family="sans-serif" font-size="13" lengthAdjust="spacing" textLength="64" x="406" y="1038.6709">DeviceDTO</text><polygon fill="#181818" points="1925,1071.2246,1935,1075.2246,1925,1079.2246,1929,1075.2246" style="stroke:#181818;stroke-width:1.0;"/><line style="stroke:#181818;stroke-width:1.0;" x1="371" x2="1931" y1="1075.2246" y2="1075.2246"/><text fill="#000000" font-family="sans-serif" font-size="13" font-weight="bold" lengthAdjust="spacing" textLength="14" x="378" y="1069.9619">22</text><text fill="#000000" font-family="sans-serif" font-size="13" lengthAdjust="spacing" textLength="106" x="396" y="1069.9619">roomToDTO(room)</text><polygon fill="#181818" points="2265,1102.5156,2275,1106.5156,2265,1110.5156,2269,1106.5156" style="stroke:#181818;stroke-width:1.0;"/><line style="stroke:#181818;stroke-width:1.0;" x1="1947" x2="2271" y1="1106.5156" y2="1106.5156"/><text fill="#000000" font-family="sans-serif" font-size="13" font-weight="bold" lengthAdjust="spacing" textLength="14" x="1954" y="1101.2529">23</text><text fill="#000000" font-family="sans-serif" font-size="13" lengthAdjust="spacing" textLength="29" x="1972" y="1101.2529">room</text><polygon fill="#181818" points="1958,1133.8066,1948,1137.8066,1958,1141.8066,1954,1137.8066" style="stroke:#181818;stroke-width:1.0;"/><line style="stroke:#181818;stroke-width:1.0;stroke-dasharray:2.0,2.0;" x1="1952" x2="2281" y1="1137.8066" y2="1137.8066"/><text fill="#000000" font-family="sans-serif" font-size="13" font-weight="bold" lengthAdjust="spacing" textLength="14" x="1964" y="1132.5439">24</text><text fill="#000000" font-family="sans-serif" font-size="13" lengthAdjust="spacing" textLength="55" x="1982" y="1132.5439">roomDTO</text><polygon fill="#181818" points="382,1165.0977,372,1169.0977,382,1173.0977,378,1169.0977" style="stroke:#181818;stroke-width:1.0;"/><line style="stroke:#181818;stroke-width:1.0;stroke-dasharray:2.0,2.0;" x1="376" x2="1941" y1="1169.0977" y2="1169.0977"/><text fill="#000000" font-family="sans-serif" font-size="13" font-weight="bold" lengthAdjust="spacing" textLength="14" x="388" y="1163.835">25</text><text fill="#000000" font-family="sans-serif" font-size="13" lengthAdjust="spacing" textLength="60" x="406" y="1163.835">RoomDTO</text><polygon fill="#181818" points="11,1210.3887,1,1214.3887,11,1218.3887,7,1214.3887" style="stroke:#181818;stroke-width:1.0;"/><line style="stroke:#181818;stroke-width:1.0;stroke-dasharray:2.0,2.0;" x1="5" x2="365" y1="1214.3887" y2="1214.3887"/><text fill="#000000" font-family="sans-serif" font-size="13" font-weight="bold" lengthAdjust="spacing" textLength="14" x="17" y="1209.126">26</text><text fill="#000000" font-family="sans-serif" font-size="13" lengthAdjust="spacing" textLength="317" x="35" y="1209.126">Map&lt;SensorTypeDTO, Map&lt;DeviceDTO, RoomDTO&gt;&gt;</text><!--SRC=[ZLLDRniX4BtpAqQzD97ifDTQKIItQPj8hLBbuzJsG7RP68c5BR29_E_Brte7ZDtau0pByDwROMPulx5sCAlpyq5GQSTUd3MgFpVixyXamvOjfy-QzeHORWM3n_iF7s49QmCKVgfNfk7Hk9zVIiEwxRdancfgbVwpW1juTO1W5Jmpwzo5smFL0HK2MlR26sQ0IxUnKQDX2_WjuLchSM0jF6sJ1tIZR2nNaWfkjs2t0pDdS6EX7nqObuqOMpRv2jLGxtj621sjacF_n3GX0zMMDtpmOjwjlZiLQo6kee0RUQTK_sdx5TDyLj9g9GJJxu2Q4FBygO2xzjg3Mx2ANGyUDhrHx4K5OJUQnVuzaqP51T6ixZ-uZFoWmv2qck9ZbHFvj-X3HJlorBlbGHrN3xU52FUbgc3oRATLXNloqT4c19QNnLsiV6Nv2xtjy9M6coZkzEIKKBTwePQL5qf8_i7p18XZyDzYfUwp2AK6w5mxCDfiK2gA3H_Lh2ZMZliBXXVWCu3u4_bjTp-mXdUyoMbd6XHcgBcSDUQR-1rF4b5Nq2fcedrDNrYyKCGrtt2TA9KleSArP9TYzhg16s3zOBUHyMAvt55gPaSjeQF2i6hEIFJqCYD_o0QIWWJSPoSypNG4vRzbfN-crsjrmycacF59Sb2-rUESpNXbj6sJbvzyVkOHmcGBFaR2NBJJjF991waiR5pE4zr12SVpv_5TC0J7E5tAZZlLbWU9IiKRAWiZXdgQApIroDh5wmBjwG0d4MiHF4y9ZdidecWrhoO1kU5oCL_l8gmnuEKb5fCw9g-SBmvtwz-K_m7jDtmvE77fF2WtV-gblpTlomyvjiF9QhA2uqTTje9bLLusTd5c3a5DUYfJz0rOARo32SyINCalVcXMQHNp6csKq-nDmeiP9-Gn3RFYN8mWMI7Q6dKHPtdqIAwk3fzFalU3dz_ELR1Zu3fqoGu3FR2pEPqE0UTlnlGkflz1R4bKoCH7ZeHuLp-Pn5MQEhHnYPBtiyF3dHYMYSVr8o2gudN-1m00]--></g></svg>