<?xml version="1.0" encoding="us-ascii" standalone="no"?><svg xmlns="http://www.w3.org/2000/svg" xmlns:xlink="http://www.w3.org/1999/xlink" contentStyleType="text/css" height="516px" preserveAspectRatio="none" style="width:403px;height:516px;background:#FFFFFF;" version="1.1" viewBox="0 0 403 516" width="403px" zoomAndPan="magnify"><defs/><g><!--cluster :Backend--><g id="cluster_:Backend"><rect fill="none" height="398" rx="2.5" ry="2.5" style="stroke:#181818;stroke-width:1.0;" width="319" x="21.5" y="112"/><rect fill="none" height="10" style="stroke:#181818;stroke-width:1.0;" width="15" x="320.5" y="117"/><rect fill="none" height="2" style="stroke:#181818;stroke-width:1.0;" width="4" x="318.5" y="119"/><rect fill="none" height="2" style="stroke:#181818;stroke-width:1.0;" width="4" x="318.5" y="123"/><text fill="#000000" font-family="sans-serif" font-size="14" font-style="italic" lengthAdjust="spacing" textLength="85" x="138.5" y="140.1074">&#171;Subsystem&#187;</text><text fill="#000000" font-family="sans-serif" font-size="14" font-weight="bold" lengthAdjust="spacing" textLength="65" x="148.5" y="158.7285">:Backend</text></g><text fill="#000000" font-family="sans-serif" font-size="14" lengthAdjust="spacing" textLength="4" x="37.5" y="90.4863">&#160;</text><rect fill="#F1F1F1" height="12" style="stroke:#181818;stroke-width:1.5;" width="12" x="33.5" y="106"/><text fill="#000000" font-family="sans-serif" font-size="14" lengthAdjust="spacing" textLength="4" x="97.5" y="90.4863">&#160;</text><rect fill="#F1F1F1" height="12" style="stroke:#181818;stroke-width:1.5;" width="12" x="93.5" y="106"/><text fill="#000000" font-family="sans-serif" font-size="14" lengthAdjust="spacing" textLength="4" x="320.5" y="90.4863">&#160;</text><rect fill="#F1F1F1" height="12" style="stroke:#181818;stroke-width:1.5;" width="12" x="316.5" y="106"/><!--entity DatabaseAPI--><g id="elem_DatabaseAPI"><ellipse cx="172.5" cy="336" fill="#F1F1F1" rx="8" ry="8" style="stroke:#181818;stroke-width:0.5;"/><text fill="#000000" font-family="sans-serif" font-size="14" lengthAdjust="spacing" textLength="82" x="131.5" y="368.1074">DatabaseAPI</text></g><!--entity SV--><g id="elem_SV"><rect fill="#F1F1F1" height="67.2422" rx="2.5" ry="2.5" style="stroke:#181818;stroke-width:0.5;" width="129" x="108" y="427"/><rect fill="#F1F1F1" height="10" style="stroke:#181818;stroke-width:0.5;" width="15" x="217" y="432"/><rect fill="#F1F1F1" height="2" style="stroke:#181818;stroke-width:0.5;" width="4" x="215" y="434"/><rect fill="#F1F1F1" height="2" style="stroke:#181818;stroke-width:0.5;" width="4" x="215" y="438"/><text fill="#000000" font-family="sans-serif" font-size="14" font-style="italic" lengthAdjust="spacing" textLength="89" x="123" y="462.1074">&#171;Component&#187;</text><text fill="#000000" font-family="sans-serif" font-size="14" lengthAdjust="spacing" textLength="46" x="144.5" y="480.7285">:Server</text></g><!--entity DB--><g id="elem_DB"><rect fill="#F1F1F1" height="67.2422" rx="2.5" ry="2.5" style="stroke:#181818;stroke-width:0.5;" width="129" x="108" y="178"/><rect fill="#F1F1F1" height="10" style="stroke:#181818;stroke-width:0.5;" width="15" x="217" y="183"/><rect fill="#F1F1F1" height="2" style="stroke:#181818;stroke-width:0.5;" width="4" x="215" y="185"/><rect fill="#F1F1F1" height="2" style="stroke:#181818;stroke-width:0.5;" width="4" x="215" y="189"/><text fill="#000000" font-family="sans-serif" font-size="14" font-style="italic" lengthAdjust="spacing" textLength="89" x="123" y="213.1074">&#171;Component&#187;</text><text fill="#000000" font-family="sans-serif" font-size="14" lengthAdjust="spacing" textLength="65" x="135" y="231.7285">:Database</text></g><!--entity REST--><g id="elem_REST"><rect fill="#FFFFFF" height="38.6211" rx="2.5" ry="2.5" style="stroke:#FFFFFF;stroke-width:0.5;" width="82" x="83.5" y="7"/><text fill="#000000" font-family="sans-serif" font-size="14" lengthAdjust="spacing" textLength="62" x="93.5" y="32.1074">REST API</text></g><!--entity CLI--><g id="elem_CLI"><rect fill="#FFFFFF" height="38.6211" rx="2.5" ry="2.5" style="stroke:#FFFFFF;stroke-width:0.5;" width="41" x="7" y="7"/><text fill="#000000" font-family="sans-serif" font-size="14" lengthAdjust="spacing" textLength="21" x="17" y="32.1074">CLI</text></g><!--entity WS--><g id="elem_WS"><rect fill="#FFFFFF" height="38.6211" rx="2.5" ry="2.5" style="stroke:#FFFFFF;stroke-width:0.5;" width="150" x="247.5" y="7"/><text fill="#000000" font-family="sans-serif" font-size="14" lengthAdjust="spacing" textLength="130" x="257.5" y="32.1074">Weather Service API</text></g><!--link P1 to SV--><g id="link_P1_SV"><path d="M39.5,118.25 C39.5,166.05 39.5,472 39.5,472 C39.5,472 74.06,472 107.95,472 " fill="none" id="P1-SV" style="stroke:#181818;stroke-width:1.0;"/></g><!--link P2 to SV--><g id="link_P2_SV"><path d="M99.5,118.16 C99.5,163.97 99.5,450 99.5,450 C99.5,450 102.75,450 107.87,450 " fill="none" id="P2-SV" style="stroke:#181818;stroke-width:1.0;"/></g><!--link P3 to SV--><g id="link_P3_SV"><path d="M316.25,114 C300.38,114 259.75,114 259.75,114 C259.75,114 259.75,461 259.75,461 C259.75,461 250.13,461 237.28,461 " fill="none" id="P3-SV" style="stroke:#181818;stroke-width:1.0;"/></g><!--link DB to DatabaseAPI--><g id="link_DB_DatabaseAPI"><path d="M172.5,245.19 C172.5,272.84 172.5,310.1 172.5,327 " fill="none" id="DB-DatabaseAPI" style="stroke:#181818;stroke-width:1.0;"/></g><!--reverse link DatabaseAPI to SV--><g id="link_DatabaseAPI_SV"><path d="M172.5,355.36 C172.5,372.44 172.5,399.43 172.5,426.9 " fill="none" id="DatabaseAPI-backto-SV" style="stroke:#181818;stroke-width:1.0;"/><path d="M164.0428,348.4382 A9,9 0 0 0 180.9572 348.4382" fill="none" style="stroke:#181818;stroke-width:1.5;"/></g><!--reverse link REST to P2--><g id="link_REST_P2"><path d="M99.5,58.33 C99.5,77.47 99.5,93.31 99.5,105.68 " fill="none" id="REST-backto-P2" style="stroke:#181818;stroke-width:1.0;"/><ellipse cx="99.5" cy="52.33" fill="#FFFFFF" rx="6" ry="6" style="stroke:#181818;stroke-width:1.5;"/></g><!--reverse link CLI to P1--><g id="link_CLI_P1"><path d="M39.5,58.33 C39.5,77.47 39.5,93.31 39.5,105.68 " fill="none" id="CLI-backto-P1" style="stroke:#181818;stroke-width:1.0;"/><ellipse cx="39.5" cy="52.33" fill="#FFFFFF" rx="6" ry="6" style="stroke:#181818;stroke-width:1.5;"/></g><!--reverse link WS to P3--><g id="link_WS_P3"><path d="M322.5,56.33 C322.5,75.47 322.5,93.31 322.5,105.68 " fill="none" id="WS-backto-P3" style="stroke:#181818;stroke-width:1.0;"/><path d="M314.0428,49.4082 A9,9 0 0 0 330.9572 49.4082" fill="none" style="stroke:#181818;stroke-width:1.5;"/></g><!--SRC=[RL71QW8n4BtdAuRrOW-1ghSYGbqh57fOcbBFSNVGnTqa9DaMAVttJXArkwp98RptvZ5l9kvKAoEjRA6f5VgpGT3M7pLZfMwDLgWyP4zhMPvGLHaibwBRkxFpsAvMyCE0JhzGeFr26-hoAqjrqe7ul5J_if5f8xtSIuTtR9lrq6Oe76HqIIjcOse-fXR9MSo0SugHmBmF5XUG2gabh_ItujC7k2PxBbwZHbFmpl3fG62KpMBffJeq2DdxY_W0ucFt0FfY_fPuUllq3gK_eeMmlhh4ctqd67Et7_etf9s4NpbOtQagrussCDd6apHjAxH3ddA6mMc0nnGix2IY42Ui8Sv6JVy0]--></g></svg>