<?xml version="1.0" encoding="us-ascii" standalone="no"?><svg xmlns="http://www.w3.org/2000/svg" xmlns:xlink="http://www.w3.org/1999/xlink" contentStyleType="text/css" height="642px" preserveAspectRatio="none" style="width:722px;height:642px;background:#FFFFFF;" version="1.1" viewBox="0 0 722 642" width="722px" zoomAndPan="magnify"><defs/><g><!--cluster client--><g id="cluster_client"><polygon fill="none" points="247,16,257,6,391,6,391,172,381,182,247,182,247,16" style="stroke:#181818;stroke-width:1.0;"/><line style="stroke:#181818;stroke-width:1.0;" x1="381" x2="391" y1="16" y2="6"/><line style="stroke:#181818;stroke-width:1.0;" x1="247" x2="381" y1="16" y2="16"/><line style="stroke:#181818;stroke-width:1.0;" x1="381" x2="381" y1="16" y2="182"/><text fill="#000000" font-family="sans-serif" font-size="14" font-weight="bold" lengthAdjust="spacing" textLength="68" x="281" y="34.1074">localhost:</text></g><!--cluster browser--><g id="cluster_browser"><rect fill="none" height="102" rx="2.5" ry="2.5" style="stroke:#181818;stroke-width:1.0;" width="84" x="277" y="56"/><rect fill="none" height="10" style="stroke:#181818;stroke-width:1.0;" width="15" x="341" y="61"/><rect fill="none" height="2" style="stroke:#181818;stroke-width:1.0;" width="4" x="339" y="63"/><rect fill="none" height="2" style="stroke:#181818;stroke-width:1.0;" width="4" x="339" y="67"/><text fill="#000000" font-family="sans-serif" font-size="14" font-weight="bold" lengthAdjust="spacing" textLength="59" x="289.5" y="84.1074">Browser</text></g><!--cluster server--><g id="cluster_server"><polygon fill="none" points="16,399,26,389,705,389,705,615,695,625,16,625,16,399" style="stroke:#181818;stroke-width:1.0;"/><line style="stroke:#181818;stroke-width:1.0;" x1="695" x2="705" y1="399" y2="389"/><line style="stroke:#181818;stroke-width:1.0;" x1="16" x2="695" y1="399" y2="399"/><line style="stroke:#181818;stroke-width:1.0;" x1="695" x2="695" y1="399" y2="625"/><text fill="#000000" font-family="sans-serif" font-size="14" font-weight="bold" lengthAdjust="spacing" textLength="52" x="330.5" y="417.1074">:Server</text></g><!--cluster sh--><g id="cluster_sh"><rect fill="none" height="139" rx="2.5" ry="2.5" style="stroke:#181818;stroke-width:1.0;" width="502" x="179" y="462"/><rect fill="none" height="10" style="stroke:#181818;stroke-width:1.0;" width="15" x="661" y="467"/><rect fill="none" height="2" style="stroke:#181818;stroke-width:1.0;" width="4" x="659" y="469"/><rect fill="none" height="2" style="stroke:#181818;stroke-width:1.0;" width="4" x="659" y="473"/><text fill="#000000" font-family="sans-serif" font-size="14" font-weight="bold" lengthAdjust="spacing" textLength="83" x="388.5" y="490.1074">:Smarthome</text><text fill="#000000" font-family="sans-serif" font-size="14" font-weight="bold" lengthAdjust="spacing" textLength="66" x="397" y="508.7285">&#171;System&#187;</text></g><!--entity UI--><g id="elem_UI"><rect fill="#F1F1F1" height="48.6211" rx="2.5" ry="2.5" style="stroke:#181818;stroke-width:0.5;" width="52" x="293" y="93"/><rect fill="#F1F1F1" height="10" style="stroke:#181818;stroke-width:0.5;" width="15" x="325" y="98"/><rect fill="#F1F1F1" height="2" style="stroke:#181818;stroke-width:0.5;" width="4" x="323" y="100"/><rect fill="#F1F1F1" height="2" style="stroke:#181818;stroke-width:0.5;" width="4" x="323" y="104"/><text fill="#000000" font-family="sans-serif" font-size="14" lengthAdjust="spacing" textLength="12" x="308" y="128.1074">UI</text></g><text fill="#000000" font-family="sans-serif" font-size="14" lengthAdjust="spacing" textLength="62" x="227" y="367.4863">Port 3000</text><rect fill="#F1F1F1" height="12" style="stroke:#181818;stroke-width:1.5;" width="12" x="252" y="383"/><text fill="#000000" font-family="sans-serif" font-size="14" lengthAdjust="spacing" textLength="62" x="351" y="367.4863">Port 8080</text><rect fill="#F1F1F1" height="12" style="stroke:#181818;stroke-width:1.5;" width="12" x="376" y="383"/><!--entity Frontend--><g id="elem_Frontend"><rect fill="#F1F1F1" height="67.2422" rx="2.5" ry="2.5" style="stroke:#181818;stroke-width:0.5;" width="125" x="195.5" y="518"/><rect fill="#F1F1F1" height="10" style="stroke:#181818;stroke-width:0.5;" width="15" x="300.5" y="523"/><rect fill="#F1F1F1" height="2" style="stroke:#181818;stroke-width:0.5;" width="4" x="298.5" y="525"/><rect fill="#F1F1F1" height="2" style="stroke:#181818;stroke-width:0.5;" width="4" x="298.5" y="529"/><text fill="#000000" font-family="sans-serif" font-size="14" font-style="italic" lengthAdjust="spacing" textLength="85" x="210.5" y="553.1074">&#171;Subsystem&#187;</text><text fill="#000000" font-family="sans-serif" font-size="14" lengthAdjust="spacing" textLength="58" x="224" y="571.7285">Frontend</text></g><!--entity Backend--><g id="elem_Backend"><rect fill="#F1F1F1" height="67.2422" rx="2.5" ry="2.5" style="stroke:#181818;stroke-width:0.5;" width="125" x="539.5" y="518"/><rect fill="#F1F1F1" height="10" style="stroke:#181818;stroke-width:0.5;" width="15" x="644.5" y="523"/><rect fill="#F1F1F1" height="2" style="stroke:#181818;stroke-width:0.5;" width="4" x="642.5" y="525"/><rect fill="#F1F1F1" height="2" style="stroke:#181818;stroke-width:0.5;" width="4" x="642.5" y="529"/><text fill="#000000" font-family="sans-serif" font-size="14" font-style="italic" lengthAdjust="spacing" textLength="85" x="554.5" y="553.1074">&#171;Subsystem&#187;</text><text fill="#000000" font-family="sans-serif" font-size="14" lengthAdjust="spacing" textLength="55" x="569.5" y="571.7285">Backend</text></g><!--entity Database--><g id="elem_Database"><rect fill="#F1F1F1" height="67.2422" rx="2.5" ry="2.5" style="stroke:#181818;stroke-width:0.5;" width="125" x="355.5" y="518"/><rect fill="#F1F1F1" height="10" style="stroke:#181818;stroke-width:0.5;" width="15" x="460.5" y="523"/><rect fill="#F1F1F1" height="2" style="stroke:#181818;stroke-width:0.5;" width="4" x="458.5" y="525"/><rect fill="#F1F1F1" height="2" style="stroke:#181818;stroke-width:0.5;" width="4" x="458.5" y="529"/><text fill="#000000" font-family="sans-serif" font-size="14" font-style="italic" lengthAdjust="spacing" textLength="85" x="370.5" y="553.1074">&#171;Subsystem&#187;</text><text fill="#000000" font-family="sans-serif" font-size="14" lengthAdjust="spacing" textLength="61" x="382.5" y="571.7285">Database</text></g><!--link Database to Backend--><g id="link_Database_Backend"><path d="M480.55,551.5 C499.51,551.5 520.34,551.5 539.31,551.5 " fill="none" id="Database-Backend" style="stroke:#181818;stroke-width:2.0;"/><text fill="#000000" font-family="sans-serif" font-size="13" lengthAdjust="spacing" textLength="22" x="499" y="544.5283">http</text></g><!--link Frontend to p3000--><g id="link_Frontend_p3000"><path d="M258,517.74 C258,478.03 258,414.11 258,395.34 " fill="none" id="Frontend-p3000" style="stroke:#181818;stroke-width:2.0;"/></g><!--link Backend to p8080--><g id="link_Backend_p8080"><path d="M569.38,517.72 C538.88,487.08 498,446 498,446 C498,446 412.33,404.64 388.24,393.01 " fill="none" id="Backend-p8080" style="stroke:#181818;stroke-width:2.0;"/></g><!--link UI to p3000--><g id="link_UI_p3000"><path d="M313.59,142.42 C300.17,201.67 265.99,352.69 259.19,382.75 " fill="none" id="UI-p3000" style="stroke:#181818;stroke-width:2.0;"/><text fill="#000000" font-family="sans-serif" font-size="13" lengthAdjust="spacing" textLength="22" x="287" y="275.0283">http</text></g><!--link UI to p8080--><g id="link_UI_p8080"><path d="M324.59,142.42 C338.44,201.67 373.74,352.69 380.77,382.75 " fill="none" id="UI-p8080" style="stroke:#181818;stroke-width:2.0;"/><text fill="#000000" font-family="sans-serif" font-size="13" lengthAdjust="spacing" textLength="22" x="357" y="275.0283">http</text></g><!--SRC=[ZP4nQyCm48Lt_Oh3ky7G9OYG8PH2jeB9b7QGxIisaNL2KXjCy7-F9Cj515DwWpZvlU-UpxRNGMbXn0XoKEWcZQ19Jk72cA8EeP3K2jcJTRm0OQ6L0oe7TyR0LqkZ9XKU54T3Duiccfgbzov8bHdFf-WvdzOXeMQsd3DRStcDvYVDix65D2-RnUjH6DVJY1zglwydwt0y71Qctun_CwGSgWwy_RknYSYiCzkWZgAz_XDQhUMb8TbzIlno9RmA9nfXaKFldDvAM1r_H6H1cepV_ZsSBrLLnOLrw9xLNRLBQkWM-FSJf5ViwARA37_Q8CcHz_7-lvMvaaZWSRCDDO2B-W00]--></g></svg>