<?xml version="1.0" encoding="us-ascii" standalone="no"?><svg xmlns="http://www.w3.org/2000/svg" xmlns:xlink="http://www.w3.org/1999/xlink" contentStyleType="text/css" height="1803px" preserveAspectRatio="none" style="width:2137px;height:1803px;background:#FFFFFF;" version="1.1" viewBox="0 0 2137 1803" width="2137px" zoomAndPan="magnify"><defs/><g><rect fill="#A9A9A9" height="1753.6758" style="stroke:#181818;stroke-width:0.5;" width="1940" x="94.5" y="43.4883"/><text fill="#000000" font-family="sans-serif" font-size="13" font-weight="bold" lengthAdjust="spacing" textLength="87" x="1023" y="56.0566">&#171;SubSystem&#187;</text><text fill="#000000" font-family="sans-serif" font-size="13" font-weight="bold" lengthAdjust="spacing" textLength="60" x="1035" y="71.3672">:Backend</text><rect fill="#D3D3D3" height="1718.0547" style="stroke:#181818;stroke-width:0.5;" width="1940" x="94.5" y="79.1094"/><text fill="#000000" font-family="sans-serif" font-size="13" font-weight="bold" lengthAdjust="spacing" textLength="80" x="1026.5" y="91.6777">&#171;Container&#187;</text><text fill="#000000" font-family="sans-serif" font-size="13" font-weight="bold" lengthAdjust="spacing" textLength="46" x="1038.5" y="106.9883">:Server</text><text fill="#000000" font-family="sans-serif" font-size="14" font-weight="bold" lengthAdjust="spacing" textLength="707" x="715.5" y="28.5352">UC01 - As an Administrator, I want to configure the location of the house. Main success scenario.</text><line style="stroke:#181818;stroke-width:0.5;stroke-dasharray:5.0,5.0;" x1="153" x2="153" y1="161.707" y2="1743.1875"/><rect fill="#FFFFFF" height="1534.1699" style="stroke:#181818;stroke-width:1.0;" width="10" x="148" y="191.0176"/><line style="stroke:#181818;stroke-width:0.5;stroke-dasharray:5.0,5.0;" x1="463" x2="463" y1="161.707" y2="1743.1875"/><rect fill="#FFFFFF" height="1444.9277" style="stroke:#181818;stroke-width:1.0;" width="10" x="458" y="235.6387"/><line style="stroke:#181818;stroke-width:0.5;stroke-dasharray:5.0,5.0;" x1="648.5" x2="648.5" y1="161.707" y2="1743.1875"/><rect fill="#FFFFFF" height="412.5254" style="stroke:#181818;stroke-width:1.0;" width="10" x="643.5" y="264.9492"/><line style="stroke:#181818;stroke-width:0.5;stroke-dasharray:5.0,5.0;" x1="808.5" x2="808.5" y1="161.707" y2="1743.1875"/><rect fill="#FFFFFF" height="881.4941" style="stroke:#181818;stroke-width:1.0;" width="10" x="803.5" y="738.2734"/><line style="stroke:#181818;stroke-width:0.5;stroke-dasharray:5.0,5.0;" x1="937" x2="937" y1="536.7441" y2="1743.1875"/><line style="stroke:#181818;stroke-width:0.5;stroke-dasharray:5.0,5.0;" x1="1081.5" x2="1081.5" y1="685.4746" y2="1743.1875"/><line style="stroke:#181818;stroke-width:0.5;stroke-dasharray:5.0,5.0;" x1="1229" x2="1229" y1="161.707" y2="1743.1875"/><rect fill="#FFFFFF" height="205.1738" style="stroke:#181818;stroke-width:1.0;" width="10" x="1224" y="767.584"/><rect fill="#FFFFFF" height="205.1738" style="stroke:#181818;stroke-width:1.0;" width="10" x="1224" y="1060.6895"/><rect fill="#FFFFFF" height="205.1738" style="stroke:#181818;stroke-width:1.0;" width="10" x="1224" y="1385.2832"/><line style="stroke:#181818;stroke-width:0.5;stroke-dasharray:5.0,5.0;" x1="1357.5" x2="1357.5" y1="161.707" y2="1743.1875"/><rect fill="#FFFFFF" height="60.7988" style="stroke:#181818;stroke-width:1.0;" width="10" x="1352.5" y="1295.1738"/><line style="stroke:#181818;stroke-width:0.5;stroke-dasharray:5.0,5.0;" x1="1528" x2="1528" y1="1303.1738" y2="1743.1875"/><line style="stroke:#181818;stroke-width:0.5;stroke-dasharray:5.0,5.0;" x1="1685" x2="1685" y1="1627.7676" y2="1743.1875"/><line style="stroke:#181818;stroke-width:0.5;stroke-dasharray:5.0,5.0;" x1="1844" x2="1844" y1="161.707" y2="1743.1875"/><rect fill="#FFFFFF" height="29.3105" style="stroke:#181818;stroke-width:1.0;" width="10" x="1839" y="914.1367"/><rect fill="#FFFFFF" height="29.3105" style="stroke:#181818;stroke-width:1.0;" width="10" x="1839" y="1207.2422"/><rect fill="#FFFFFF" height="29.3105" style="stroke:#181818;stroke-width:1.0;" width="10" x="1839" y="1531.8359"/><line style="stroke:#181818;stroke-width:0.5;stroke-dasharray:5.0,5.0;" x1="1976" x2="1976" y1="161.707" y2="1743.1875"/><rect fill="#FFFFFF" height="87.9316" style="stroke:#181818;stroke-width:1.0;" width="10" x="1971" y="796.8945"/><rect fill="#FFFFFF" height="87.9316" style="stroke:#181818;stroke-width:1.0;" width="10" x="1971" y="1090"/><rect fill="#FFFFFF" height="87.9316" style="stroke:#181818;stroke-width:1.0;" width="10" x="1971" y="1414.5938"/><rect fill="#E2E2F0" height="46.9766" rx="2.5" ry="2.5" style="stroke:#181818;stroke-width:0.5;" width="109" x="98.5" y="113.7305"/><text fill="#000000" font-family="sans-serif" font-size="14" font-style="italic" lengthAdjust="spacing" textLength="95" x="105.5" y="134.2656">&#171;Component&#187;</text><text fill="#000000" font-family="sans-serif" font-size="14" lengthAdjust="spacing" textLength="50" x="128" y="150.7539">:Router</text><rect fill="#E2E2F0" height="46.9766" rx="2.5" ry="2.5" style="stroke:#181818;stroke-width:0.5;" width="160" x="383" y="113.7305"/><text fill="#000000" font-family="sans-serif" font-size="14" font-style="italic" lengthAdjust="spacing" textLength="95" x="415.5" y="134.2656">&#171;Component&#187;</text><text fill="#000000" font-family="sans-serif" font-size="14" lengthAdjust="spacing" textLength="146" x="390" y="150.7539">:HouseControllerWeb</text><rect fill="#E2E2F0" height="30.4883" rx="2.5" ry="2.5" style="stroke:#181818;stroke-width:0.5;" width="191" x="553" y="130.2188"/><text fill="#000000" font-family="sans-serif" font-size="14" lengthAdjust="spacing" textLength="177" x="560" y="150.7539">locationDTO:LocationDTO</text><rect fill="#E2E2F0" height="46.9766" rx="2.5" ry="2.5" style="stroke:#181818;stroke-width:0.5;" width="109" x="754" y="113.7305"/><text fill="#000000" font-family="sans-serif" font-size="14" font-style="italic" lengthAdjust="spacing" textLength="95" x="761" y="134.2656">&#171;Component&#187;</text><text fill="#000000" font-family="sans-serif" font-size="14" lengthAdjust="spacing" textLength="95" x="761" y="150.7539">:HouseService</text><rect fill="#E2E2F0" height="46.9766" rx="2.5" ry="2.5" style="stroke:#181818;stroke-width:0.5;" width="134" x="1162" y="113.7305"/><text fill="#000000" font-family="sans-serif" font-size="14" font-style="italic" lengthAdjust="spacing" textLength="95" x="1181.5" y="134.2656">&#171;Component&#187;</text><text fill="#000000" font-family="sans-serif" font-size="14" lengthAdjust="spacing" textLength="120" x="1169" y="150.7539">:HouseRepository</text><rect fill="#E2E2F0" height="30.4883" rx="2.5" ry="2.5" style="stroke:#181818;stroke-width:0.5;" width="103" x="1306" y="130.2188"/><text fill="#000000" font-family="sans-serif" font-size="14" lengthAdjust="spacing" textLength="89" x="1313" y="150.7539">house:House</text><rect fill="#E2E2F0" height="30.4883" rx="2.5" ry="2.5" style="stroke:#181818;stroke-width:0.5;" width="135" x="1776.5" y="130.2188"/><text fill="#000000" font-family="sans-serif" font-size="14" lengthAdjust="spacing" textLength="121" x="1783.5" y="150.7539">:MapperHouseDM</text><rect fill="#E2E2F0" height="46.9766" rx="2.5" ry="2.5" style="stroke:#181818;stroke-width:0.5;" width="109" x="1921.5" y="113.7305"/><text fill="#000000" font-family="sans-serif" font-size="14" font-style="italic" lengthAdjust="spacing" textLength="95" x="1928.5" y="134.2656">&#171;Component&#187;</text><text fill="#000000" font-family="sans-serif" font-size="14" lengthAdjust="spacing" textLength="67" x="1942.5" y="150.7539">:DB Driver</text><rect fill="#E2E2F0" height="46.9766" rx="2.5" ry="2.5" style="stroke:#181818;stroke-width:0.5;" width="109" x="98.5" y="1743.1875"/><text fill="#000000" font-family="sans-serif" font-size="14" font-style="italic" lengthAdjust="spacing" textLength="95" x="105.5" y="1763.7227">&#171;Component&#187;</text><text fill="#000000" font-family="sans-serif" font-size="14" lengthAdjust="spacing" textLength="50" x="128" y="1780.2109">:Router</text><rect fill="#E2E2F0" height="46.9766" rx="2.5" ry="2.5" style="stroke:#181818;stroke-width:0.5;" width="160" x="383" y="1743.1875"/><text fill="#000000" font-family="sans-serif" font-size="14" font-style="italic" lengthAdjust="spacing" textLength="95" x="415.5" y="1763.7227">&#171;Component&#187;</text><text fill="#000000" font-family="sans-serif" font-size="14" lengthAdjust="spacing" textLength="146" x="390" y="1780.2109">:HouseControllerWeb</text><rect fill="#E2E2F0" height="30.4883" rx="2.5" ry="2.5" style="stroke:#181818;stroke-width:0.5;" width="191" x="553" y="1743.1875"/><text fill="#000000" font-family="sans-serif" font-size="14" lengthAdjust="spacing" textLength="177" x="560" y="1763.7227">locationDTO:LocationDTO</text><rect fill="#E2E2F0" height="46.9766" rx="2.5" ry="2.5" style="stroke:#181818;stroke-width:0.5;" width="109" x="754" y="1743.1875"/><text fill="#000000" font-family="sans-serif" font-size="14" font-style="italic" lengthAdjust="spacing" textLength="95" x="761" y="1763.7227">&#171;Component&#187;</text><text fill="#000000" font-family="sans-serif" font-size="14" lengthAdjust="spacing" textLength="95" x="761" y="1780.2109">:HouseService</text><rect fill="#E2E2F0" height="30.4883" rx="2.5" ry="2.5" style="stroke:#181818;stroke-width:0.5;" width="128" x="873" y="1743.1875"/><text fill="#000000" font-family="sans-serif" font-size="14" lengthAdjust="spacing" textLength="114" x="880" y="1763.7227">address:Address</text><rect fill="#E2E2F0" height="30.4883" rx="2.5" ry="2.5" style="stroke:#181818;stroke-width:0.5;" width="141" x="1011" y="1743.1875"/><text fill="#000000" font-family="sans-serif" font-size="14" lengthAdjust="spacing" textLength="127" x="1018" y="1763.7227">gpsCode:GPSCode</text><rect fill="#E2E2F0" height="46.9766" rx="2.5" ry="2.5" style="stroke:#181818;stroke-width:0.5;" width="134" x="1162" y="1743.1875"/><text fill="#000000" font-family="sans-serif" font-size="14" font-style="italic" lengthAdjust="spacing" textLength="95" x="1181.5" y="1763.7227">&#171;Component&#187;</text><text fill="#000000" font-family="sans-serif" font-size="14" lengthAdjust="spacing" textLength="120" x="1169" y="1780.2109">:HouseRepository</text><rect fill="#E2E2F0" height="30.4883" rx="2.5" ry="2.5" style="stroke:#181818;stroke-width:0.5;" width="103" x="1306" y="1743.1875"/><text fill="#000000" font-family="sans-serif" font-size="14" lengthAdjust="spacing" textLength="89" x="1313" y="1763.7227">house:House</text><rect fill="#E2E2F0" height="30.4883" rx="2.5" ry="2.5" style="stroke:#181818;stroke-width:0.5;" width="131" x="1462.5" y="1743.1875"/><text fill="#000000" font-family="sans-serif" font-size="14" lengthAdjust="spacing" textLength="117" x="1469.5" y="1763.7227">location:Location</text><rect fill="#E2E2F0" height="30.4883" rx="2.5" ry="2.5" style="stroke:#181818;stroke-width:0.5;" width="163" x="1603.5" y="1743.1875"/><text fill="#000000" font-family="sans-serif" font-size="14" lengthAdjust="spacing" textLength="149" x="1610.5" y="1763.7227">houseDTO:HouseDTO</text><rect fill="#E2E2F0" height="30.4883" rx="2.5" ry="2.5" style="stroke:#181818;stroke-width:0.5;" width="135" x="1776.5" y="1743.1875"/><text fill="#000000" font-family="sans-serif" font-size="14" lengthAdjust="spacing" textLength="121" x="1783.5" y="1763.7227">:MapperHouseDM</text><rect fill="#E2E2F0" height="46.9766" rx="2.5" ry="2.5" style="stroke:#181818;stroke-width:0.5;" width="109" x="1921.5" y="1743.1875"/><text fill="#000000" font-family="sans-serif" font-size="14" font-style="italic" lengthAdjust="spacing" textLength="95" x="1928.5" y="1763.7227">&#171;Component&#187;</text><text fill="#000000" font-family="sans-serif" font-size="14" lengthAdjust="spacing" textLength="67" x="1942.5" y="1780.2109">:DB Driver</text><ellipse cx="10.5" cy="190.2676" fill="none" rx="4" ry="4" style="stroke:#181818;stroke-width:1.5;"/><polygon fill="#181818" points="136,187.0176,146,191.0176,136,195.0176,140,191.0176" style="stroke:#181818;stroke-width:1.0;"/><line style="stroke:#181818;stroke-width:1.0;" x1="15" x2="142" y1="191.0176" y2="191.0176"/><text fill="#000000" font-family="sans-serif" font-size="13" font-weight="bold" lengthAdjust="spacing" textLength="9" x="18" y="186.2754">1</text><text fill="#000000" font-family="sans-serif" font-size="13" lengthAdjust="spacing" textLength="111" x="31" y="186.2754">PATCH api/house</text><polygon fill="#181818" points="446,231.6387,456,235.6387,446,239.6387,450,235.6387" style="stroke:#181818;stroke-width:1.0;"/><line style="stroke:#181818;stroke-width:1.0;" x1="158" x2="452" y1="235.6387" y2="235.6387"/><text fill="#000000" font-family="sans-serif" font-size="13" font-weight="bold" lengthAdjust="spacing" textLength="9" x="165" y="223.2412">2</text><text fill="#000000" font-family="sans-serif" font-size="13" lengthAdjust="spacing" textLength="201" x="178" y="215.5859">PATCH configureHouseLocation</text><text fill="#000000" font-family="sans-serif" font-size="13" lengthAdjust="spacing" textLength="268" x="178" y="230.8965">(@RequestBody LocationDTO locationDTO)</text><polygon fill="#181818" points="631.5,260.9492,641.5,264.9492,631.5,268.9492,635.5,264.9492" style="stroke:#181818;stroke-width:1.0;"/><line style="stroke:#181818;stroke-width:1.0;" x1="468" x2="637.5" y1="264.9492" y2="264.9492"/><text fill="#000000" font-family="sans-serif" font-size="13" font-weight="bold" lengthAdjust="spacing" textLength="9" x="475" y="260.207">3</text><text fill="#000000" font-family="sans-serif" font-size="13" lengthAdjust="spacing" textLength="36" x="488" y="260.207">street</text><polygon fill="#181818" points="479,290.2598,469,294.2598,479,298.2598,475,294.2598" style="stroke:#181818;stroke-width:1.0;"/><line style="stroke:#181818;stroke-width:1.0;stroke-dasharray:2.0,2.0;" x1="473" x2="642.5" y1="294.2598" y2="294.2598"/><text fill="#000000" font-family="sans-serif" font-size="13" font-weight="bold" lengthAdjust="spacing" textLength="9" x="485" y="289.5176">4</text><text fill="#000000" font-family="sans-serif" font-size="13" lengthAdjust="spacing" textLength="77" x="498" y="289.5176">String street</text><polygon fill="#181818" points="631.5,319.5703,641.5,323.5703,631.5,327.5703,635.5,323.5703" style="stroke:#181818;stroke-width:1.0;"/><line style="stroke:#181818;stroke-width:1.0;" x1="468" x2="637.5" y1="323.5703" y2="323.5703"/><text fill="#000000" font-family="sans-serif" font-size="13" font-weight="bold" lengthAdjust="spacing" textLength="9" x="475" y="318.8281">5</text><text fill="#000000" font-family="sans-serif" font-size="13" lengthAdjust="spacing" textLength="79" x="488" y="318.8281">doorNumber</text><polygon fill="#181818" points="479,348.8809,469,352.8809,479,356.8809,475,352.8809" style="stroke:#181818;stroke-width:1.0;"/><line style="stroke:#181818;stroke-width:1.0;stroke-dasharray:2.0,2.0;" x1="473" x2="642.5" y1="352.8809" y2="352.8809"/><text fill="#000000" font-family="sans-serif" font-size="13" font-weight="bold" lengthAdjust="spacing" textLength="9" x="485" y="348.1387">6</text><text fill="#000000" font-family="sans-serif" font-size="13" lengthAdjust="spacing" textLength="120" x="498" y="348.1387">String doorNumber</text><polygon fill="#181818" points="631.5,378.1914,641.5,382.1914,631.5,386.1914,635.5,382.1914" style="stroke:#181818;stroke-width:1.0;"/><line style="stroke:#181818;stroke-width:1.0;" x1="468" x2="637.5" y1="382.1914" y2="382.1914"/><text fill="#000000" font-family="sans-serif" font-size="13" font-weight="bold" lengthAdjust="spacing" textLength="9" x="475" y="377.4492">7</text><text fill="#000000" font-family="sans-serif" font-size="13" lengthAdjust="spacing" textLength="51" x="488" y="377.4492">zipCode</text><polygon fill="#181818" points="479,407.502,469,411.502,479,415.502,475,411.502" style="stroke:#181818;stroke-width:1.0;"/><line style="stroke:#181818;stroke-width:1.0;stroke-dasharray:2.0,2.0;" x1="473" x2="642.5" y1="411.502" y2="411.502"/><text fill="#000000" font-family="sans-serif" font-size="13" font-weight="bold" lengthAdjust="spacing" textLength="9" x="485" y="406.7598">8</text><text fill="#000000" font-family="sans-serif" font-size="13" lengthAdjust="spacing" textLength="92" x="498" y="406.7598">String zipCode</text><polygon fill="#181818" points="631.5,436.8125,641.5,440.8125,631.5,444.8125,635.5,440.8125" style="stroke:#181818;stroke-width:1.0;"/><line style="stroke:#181818;stroke-width:1.0;" x1="468" x2="637.5" y1="440.8125" y2="440.8125"/><text fill="#000000" font-family="sans-serif" font-size="13" font-weight="bold" lengthAdjust="spacing" textLength="9" x="475" y="436.0703">9</text><text fill="#000000" font-family="sans-serif" font-size="13" lengthAdjust="spacing" textLength="23" x="488" y="436.0703">city</text><polygon fill="#181818" points="479,466.123,469,470.123,479,474.123,475,470.123" style="stroke:#181818;stroke-width:1.0;"/><line style="stroke:#181818;stroke-width:1.0;stroke-dasharray:2.0,2.0;" x1="473" x2="642.5" y1="470.123" y2="470.123"/><text fill="#000000" font-family="sans-serif" font-size="13" font-weight="bold" lengthAdjust="spacing" textLength="18" x="485" y="465.3809">10</text><text fill="#000000" font-family="sans-serif" font-size="13" lengthAdjust="spacing" textLength="64" x="507" y="465.3809">String city</text><polygon fill="#181818" points="631.5,495.4336,641.5,499.4336,631.5,503.4336,635.5,499.4336" style="stroke:#181818;stroke-width:1.0;"/><line style="stroke:#181818;stroke-width:1.0;" x1="468" x2="637.5" y1="499.4336" y2="499.4336"/><text fill="#000000" font-family="sans-serif" font-size="13" font-weight="bold" lengthAdjust="spacing" textLength="18" x="475" y="494.6914">11</text><text fill="#000000" font-family="sans-serif" font-size="13" lengthAdjust="spacing" textLength="48" x="497" y="494.6914">country</text><polygon fill="#181818" points="479,524.7441,469,528.7441,479,532.7441,475,528.7441" style="stroke:#181818;stroke-width:1.0;"/><line style="stroke:#181818;stroke-width:1.0;stroke-dasharray:2.0,2.0;" x1="473" x2="642.5" y1="528.7441" y2="528.7441"/><text fill="#000000" font-family="sans-serif" font-size="13" font-weight="bold" lengthAdjust="spacing" textLength="18" x="485" y="524.002">12</text><text fill="#000000" font-family="sans-serif" font-size="13" lengthAdjust="spacing" textLength="89" x="507" y="524.002">String country</text><rect fill="#E2E2F0" height="30.4883" rx="2.5" ry="2.5" style="stroke:#181818;stroke-width:0.5;" width="128" x="873" y="536.7441"/><text fill="#000000" font-family="sans-serif" font-size="14" lengthAdjust="spacing" textLength="114" x="880" y="557.2793">address:Address</text><polygon fill="#181818" points="861,554.0547,871,558.0547,861,562.0547,865,558.0547" style="stroke:#181818;stroke-width:1.0;"/><line style="stroke:#181818;stroke-width:1.0;stroke-dasharray:2.0,2.0;" x1="468" x2="867" y1="558.0547" y2="558.0547"/><text fill="#000000" font-family="sans-serif" font-size="13" font-weight="bold" lengthAdjust="spacing" textLength="18" x="475" y="553.3125">13</text><text fill="#000000" font-family="sans-serif" font-size="13" lengthAdjust="spacing" textLength="59" x="497" y="553.3125">&#171;creates&#187;</text><polygon fill="#181818" points="631.5,585.543,641.5,589.543,631.5,593.543,635.5,589.543" style="stroke:#181818;stroke-width:1.0;"/><line style="stroke:#181818;stroke-width:1.0;" x1="468" x2="637.5" y1="589.543" y2="589.543"/><text fill="#000000" font-family="sans-serif" font-size="13" font-weight="bold" lengthAdjust="spacing" textLength="18" x="475" y="584.8008">14</text><text fill="#000000" font-family="sans-serif" font-size="13" lengthAdjust="spacing" textLength="48" x="497" y="584.8008">latitude</text><polygon fill="#181818" points="479,614.8535,469,618.8535,479,622.8535,475,618.8535" style="stroke:#181818;stroke-width:1.0;"/><line style="stroke:#181818;stroke-width:1.0;stroke-dasharray:2.0,2.0;" x1="473" x2="642.5" y1="618.8535" y2="618.8535"/><text fill="#000000" font-family="sans-serif" font-size="13" font-weight="bold" lengthAdjust="spacing" textLength="18" x="485" y="614.1113">15</text><text fill="#000000" font-family="sans-serif" font-size="13" lengthAdjust="spacing" textLength="95" x="507" y="614.1113">double latitude</text><polygon fill="#181818" points="631.5,644.1641,641.5,648.1641,631.5,652.1641,635.5,648.1641" style="stroke:#181818;stroke-width:1.0;"/><line style="stroke:#181818;stroke-width:1.0;" x1="468" x2="637.5" y1="648.1641" y2="648.1641"/><text fill="#000000" font-family="sans-serif" font-size="13" font-weight="bold" lengthAdjust="spacing" textLength="18" x="475" y="643.4219">16</text><text fill="#000000" font-family="sans-serif" font-size="13" lengthAdjust="spacing" textLength="60" x="497" y="643.4219">longitude</text><polygon fill="#181818" points="479,673.4746,469,677.4746,479,681.4746,475,677.4746" style="stroke:#181818;stroke-width:1.0;"/><line style="stroke:#181818;stroke-width:1.0;stroke-dasharray:2.0,2.0;" x1="473" x2="642.5" y1="677.4746" y2="677.4746"/><text fill="#000000" font-family="sans-serif" font-size="13" font-weight="bold" lengthAdjust="spacing" textLength="18" x="485" y="672.7324">17</text><text fill="#000000" font-family="sans-serif" font-size="13" lengthAdjust="spacing" textLength="107" x="507" y="672.7324">double longitude</text><rect fill="#E2E2F0" height="30.4883" rx="2.5" ry="2.5" style="stroke:#181818;stroke-width:0.5;" width="141" x="1011" y="685.4746"/><text fill="#000000" font-family="sans-serif" font-size="14" lengthAdjust="spacing" textLength="127" x="1018" y="706.0098">gpsCode:GPSCode</text><polygon fill="#181818" points="999,702.7852,1009,706.7852,999,710.7852,1003,706.7852" style="stroke:#181818;stroke-width:1.0;"/><line style="stroke:#181818;stroke-width:1.0;stroke-dasharray:2.0,2.0;" x1="468" x2="1005" y1="706.7852" y2="706.7852"/><text fill="#000000" font-family="sans-serif" font-size="13" font-weight="bold" lengthAdjust="spacing" textLength="18" x="475" y="702.043">18</text><text fill="#000000" font-family="sans-serif" font-size="13" lengthAdjust="spacing" textLength="59" x="497" y="702.043">&#171;creates&#187;</text><polygon fill="#181818" points="791.5,734.2734,801.5,738.2734,791.5,742.2734,795.5,738.2734" style="stroke:#181818;stroke-width:1.0;"/><line style="stroke:#181818;stroke-width:1.0;" x1="468" x2="797.5" y1="738.2734" y2="738.2734"/><text fill="#000000" font-family="sans-serif" font-size="13" font-weight="bold" lengthAdjust="spacing" textLength="18" x="475" y="733.5313">19</text><text fill="#000000" font-family="sans-serif" font-size="13" lengthAdjust="spacing" textLength="181" x="497" y="733.5313">getHouseIDFromRepository()</text><polygon fill="#181818" points="1212,763.584,1222,767.584,1212,771.584,1216,767.584" style="stroke:#181818;stroke-width:1.0;"/><line style="stroke:#181818;stroke-width:1.0;" x1="813.5" x2="1218" y1="767.584" y2="767.584"/><text fill="#000000" font-family="sans-serif" font-size="13" font-weight="bold" lengthAdjust="spacing" textLength="18" x="820.5" y="762.8418">20</text><text fill="#000000" font-family="sans-serif" font-size="13" lengthAdjust="spacing" textLength="97" x="842.5" y="762.8418">findAllEntities()</text><polygon fill="#181818" points="1959,792.8945,1969,796.8945,1959,800.8945,1963,796.8945" style="stroke:#181818;stroke-width:1.0;"/><line style="stroke:#181818;stroke-width:1.0;" x1="1234" x2="1965" y1="796.8945" y2="796.8945"/><text fill="#000000" font-family="sans-serif" font-size="13" font-weight="bold" lengthAdjust="spacing" textLength="18" x="1241" y="792.1523">21</text><text fill="#000000" font-family="sans-serif" font-size="13" lengthAdjust="spacing" textLength="50" x="1263" y="792.1523">findAll()</text><ellipse cx="2127.5" cy="825.4551" fill="none" rx="4" ry="4" style="stroke:#181818;stroke-width:1.5;"/><polygon fill="#181818" points="2110.5,822.2051,2120.5,826.2051,2110.5,830.2051,2114.5,826.2051" style="stroke:#181818;stroke-width:1.0;"/><line style="stroke:#181818;stroke-width:1.0;" x1="1981" x2="2116.5" y1="826.2051" y2="826.2051"/><text fill="#000000" font-family="sans-serif" font-size="13" font-weight="bold" lengthAdjust="spacing" textLength="18" x="1988" y="821.4629">22</text><text fill="#000000" font-family="sans-serif" font-size="13" lengthAdjust="spacing" textLength="112" x="2010" y="821.4629">DATABASE QUERY</text><polygon fill="#181818" points="1992,851.5156,1982,855.5156,1992,859.5156,1988,855.5156" style="stroke:#181818;stroke-width:1.0;"/><ellipse cx="2127.5" cy="854.7656" fill="none" rx="4" ry="4" style="stroke:#181818;stroke-width:1.5;"/><line style="stroke:#181818;stroke-width:1.0;stroke-dasharray:2.0,2.0;" x1="1986" x2="2123" y1="855.5156" y2="855.5156"/><text fill="#000000" font-family="sans-serif" font-size="13" font-weight="bold" lengthAdjust="spacing" textLength="18" x="1998" y="850.7734">23</text><text fill="#000000" font-family="sans-serif" font-size="13" lengthAdjust="spacing" textLength="109" x="2020" y="850.7734">QUERY RESPONSE</text><polygon fill="#181818" points="1245,880.8262,1235,884.8262,1245,888.8262,1241,884.8262" style="stroke:#181818;stroke-width:1.0;"/><line style="stroke:#181818;stroke-width:1.0;stroke-dasharray:2.0,2.0;" x1="1239" x2="1970" y1="884.8262" y2="884.8262"/><text fill="#000000" font-family="sans-serif" font-size="13" font-weight="bold" lengthAdjust="spacing" textLength="18" x="1251" y="880.084">24</text><text fill="#000000" font-family="sans-serif" font-size="13" lengthAdjust="spacing" textLength="128" x="1273" y="880.084">houseDataModelList</text><polygon fill="#181818" points="1827,910.1367,1837,914.1367,1827,918.1367,1831,914.1367" style="stroke:#181818;stroke-width:1.0;"/><line style="stroke:#181818;stroke-width:1.0;" x1="1234" x2="1833" y1="914.1367" y2="914.1367"/><text fill="#000000" font-family="sans-serif" font-size="13" font-weight="bold" lengthAdjust="spacing" textLength="18" x="1241" y="909.3945">25</text><text fill="#000000" font-family="sans-serif" font-size="13" lengthAdjust="spacing" textLength="313" x="1263" y="909.3945">toDomainList(factoryHouse, houseDataModelList)</text><polygon fill="#181818" points="1245,939.4473,1235,943.4473,1245,947.4473,1241,943.4473" style="stroke:#181818;stroke-width:1.0;"/><line style="stroke:#181818;stroke-width:1.0;stroke-dasharray:2.0,2.0;" x1="1239" x2="1838" y1="943.4473" y2="943.4473"/><text fill="#000000" font-family="sans-serif" font-size="13" font-weight="bold" lengthAdjust="spacing" textLength="18" x="1251" y="938.7051">26</text><text fill="#000000" font-family="sans-serif" font-size="13" lengthAdjust="spacing" textLength="61" x="1273" y="938.7051">houseList</text><polygon fill="#181818" points="824.5,968.7578,814.5,972.7578,824.5,976.7578,820.5,972.7578" style="stroke:#181818;stroke-width:1.0;"/><line style="stroke:#181818;stroke-width:1.0;stroke-dasharray:2.0,2.0;" x1="818.5" x2="1223" y1="972.7578" y2="972.7578"/><text fill="#000000" font-family="sans-serif" font-size="13" font-weight="bold" lengthAdjust="spacing" textLength="18" x="830.5" y="968.0156">27</text><text fill="#000000" font-family="sans-serif" font-size="13" lengthAdjust="spacing" textLength="61" x="852.5" y="968.0156">houseList</text><polygon fill="#181818" points="479,998.0684,469,1002.0684,479,1006.0684,475,1002.0684" style="stroke:#181818;stroke-width:1.0;"/><line style="stroke:#181818;stroke-width:1.0;stroke-dasharray:2.0,2.0;" x1="473" x2="802.5" y1="1002.0684" y2="1002.0684"/><text fill="#000000" font-family="sans-serif" font-size="13" font-weight="bold" lengthAdjust="spacing" textLength="18" x="485" y="997.3262">28</text><text fill="#000000" font-family="sans-serif" font-size="13" lengthAdjust="spacing" textLength="52" x="507" y="997.3262">houseID</text><polygon fill="#181818" points="791.5,1027.3789,801.5,1031.3789,791.5,1035.3789,795.5,1031.3789" style="stroke:#181818;stroke-width:1.0;"/><line style="stroke:#181818;stroke-width:1.0;" x1="468" x2="797.5" y1="1031.3789" y2="1031.3789"/><text fill="#000000" font-family="sans-serif" font-size="13" font-weight="bold" lengthAdjust="spacing" textLength="18" x="475" y="1026.6367">29</text><text fill="#000000" font-family="sans-serif" font-size="13" lengthAdjust="spacing" textLength="258" x="497" y="1026.6367">editLocation(houseID, address, gpsCode)</text><polygon fill="#181818" points="1212,1056.6895,1222,1060.6895,1212,1064.6895,1216,1060.6895" style="stroke:#181818;stroke-width:1.0;"/><line style="stroke:#181818;stroke-width:1.0;" x1="813.5" x2="1218" y1="1060.6895" y2="1060.6895"/><text fill="#000000" font-family="sans-serif" font-size="13" font-weight="bold" lengthAdjust="spacing" textLength="18" x="820.5" y="1055.9473">30</text><text fill="#000000" font-family="sans-serif" font-size="13" lengthAdjust="spacing" textLength="149" x="842.5" y="1055.9473">findEntityByID(houseID)</text><polygon fill="#181818" points="1959,1086,1969,1090,1959,1094,1963,1090" style="stroke:#181818;stroke-width:1.0;"/><line style="stroke:#181818;stroke-width:1.0;" x1="1234" x2="1965" y1="1090" y2="1090"/><text fill="#000000" font-family="sans-serif" font-size="13" font-weight="bold" lengthAdjust="spacing" textLength="18" x="1241" y="1085.2578">31</text><text fill="#000000" font-family="sans-serif" font-size="13" lengthAdjust="spacing" textLength="111" x="1263" y="1085.2578">findById(houseID)</text><ellipse cx="2127.5" cy="1118.5605" fill="none" rx="4" ry="4" style="stroke:#181818;stroke-width:1.5;"/><polygon fill="#181818" points="2110.5,1115.3105,2120.5,1119.3105,2110.5,1123.3105,2114.5,1119.3105" style="stroke:#181818;stroke-width:1.0;"/><line style="stroke:#181818;stroke-width:1.0;" x1="1981" x2="2116.5" y1="1119.3105" y2="1119.3105"/><text fill="#000000" font-family="sans-serif" font-size="13" font-weight="bold" lengthAdjust="spacing" textLength="18" x="1988" y="1114.5684">32</text><text fill="#000000" font-family="sans-serif" font-size="13" lengthAdjust="spacing" textLength="112" x="2010" y="1114.5684">DATABASE QUERY</text><polygon fill="#181818" points="1992,1144.6211,1982,1148.6211,1992,1152.6211,1988,1148.6211" style="stroke:#181818;stroke-width:1.0;"/><ellipse cx="2127.5" cy="1147.8711" fill="none" rx="4" ry="4" style="stroke:#181818;stroke-width:1.5;"/><line style="stroke:#181818;stroke-width:1.0;stroke-dasharray:2.0,2.0;" x1="1986" x2="2123" y1="1148.6211" y2="1148.6211"/><text fill="#000000" font-family="sans-serif" font-size="13" font-weight="bold" lengthAdjust="spacing" textLength="18" x="1998" y="1143.8789">33</text><text fill="#000000" font-family="sans-serif" font-size="13" lengthAdjust="spacing" textLength="109" x="2020" y="1143.8789">QUERY RESPONSE</text><polygon fill="#181818" points="1245,1173.9316,1235,1177.9316,1245,1181.9316,1241,1177.9316" style="stroke:#181818;stroke-width:1.0;"/><line style="stroke:#181818;stroke-width:1.0;stroke-dasharray:2.0,2.0;" x1="1239" x2="1970" y1="1177.9316" y2="1177.9316"/><text fill="#000000" font-family="sans-serif" font-size="13" font-weight="bold" lengthAdjust="spacing" textLength="18" x="1251" y="1173.1895">34</text><text fill="#000000" font-family="sans-serif" font-size="13" lengthAdjust="spacing" textLength="105" x="1273" y="1173.1895">houseDataModel</text><polygon fill="#181818" points="1827,1203.2422,1837,1207.2422,1827,1211.2422,1831,1207.2422" style="stroke:#181818;stroke-width:1.0;"/><line style="stroke:#181818;stroke-width:1.0;" x1="1234" x2="1833" y1="1207.2422" y2="1207.2422"/><text fill="#000000" font-family="sans-serif" font-size="13" font-weight="bold" lengthAdjust="spacing" textLength="18" x="1241" y="1202.5">35</text><text fill="#000000" font-family="sans-serif" font-size="13" lengthAdjust="spacing" textLength="267" x="1263" y="1202.5">toDomain(factoryHouse, houseDataModel)</text><polygon fill="#181818" points="1245,1232.5527,1235,1236.5527,1245,1240.5527,1241,1236.5527" style="stroke:#181818;stroke-width:1.0;"/><line style="stroke:#181818;stroke-width:1.0;stroke-dasharray:2.0,2.0;" x1="1239" x2="1838" y1="1236.5527" y2="1236.5527"/><text fill="#000000" font-family="sans-serif" font-size="13" font-weight="bold" lengthAdjust="spacing" textLength="18" x="1251" y="1231.8105">36</text><text fill="#000000" font-family="sans-serif" font-size="13" lengthAdjust="spacing" textLength="38" x="1273" y="1231.8105">house</text><polygon fill="#181818" points="824.5,1261.8633,814.5,1265.8633,824.5,1269.8633,820.5,1265.8633" style="stroke:#181818;stroke-width:1.0;"/><line style="stroke:#181818;stroke-width:1.0;stroke-dasharray:2.0,2.0;" x1="818.5" x2="1223" y1="1265.8633" y2="1265.8633"/><text fill="#000000" font-family="sans-serif" font-size="13" font-weight="bold" lengthAdjust="spacing" textLength="18" x="830.5" y="1261.1211">37</text><text fill="#000000" font-family="sans-serif" font-size="13" lengthAdjust="spacing" textLength="38" x="852.5" y="1261.1211">house</text><polygon fill="#181818" points="1340.5,1291.1738,1350.5,1295.1738,1340.5,1299.1738,1344.5,1295.1738" style="stroke:#181818;stroke-width:1.0;"/><line style="stroke:#181818;stroke-width:1.0;stroke-dasharray:2.0,2.0;" x1="813.5" x2="1346.5" y1="1295.1738" y2="1295.1738"/><text fill="#000000" font-family="sans-serif" font-size="13" font-weight="bold" lengthAdjust="spacing" textLength="18" x="820.5" y="1290.4316">38</text><text fill="#000000" font-family="sans-serif" font-size="13" lengthAdjust="spacing" textLength="198" x="842.5" y="1290.4316">editLocation(address, gpsCode)</text><rect fill="#E2E2F0" height="30.4883" rx="2.5" ry="2.5" style="stroke:#181818;stroke-width:0.5;" width="131" x="1462.5" y="1303.1738"/><text fill="#000000" font-family="sans-serif" font-size="14" lengthAdjust="spacing" textLength="117" x="1469.5" y="1323.709">location:Location</text><polygon fill="#181818" points="1450.5,1320.4844,1460.5,1324.4844,1450.5,1328.4844,1454.5,1324.4844" style="stroke:#181818;stroke-width:1.0;"/><line style="stroke:#181818;stroke-width:1.0;stroke-dasharray:2.0,2.0;" x1="1362.5" x2="1456.5" y1="1324.4844" y2="1324.4844"/><text fill="#000000" font-family="sans-serif" font-size="13" font-weight="bold" lengthAdjust="spacing" textLength="18" x="1369.5" y="1319.7422">39</text><text fill="#000000" font-family="sans-serif" font-size="13" lengthAdjust="spacing" textLength="59" x="1391.5" y="1319.7422">&#171;creates&#187;</text><polygon fill="#181818" points="824.5,1351.9727,814.5,1355.9727,824.5,1359.9727,820.5,1355.9727" style="stroke:#181818;stroke-width:1.0;"/><line style="stroke:#181818;stroke-width:1.0;stroke-dasharray:2.0,2.0;" x1="818.5" x2="1351.5" y1="1355.9727" y2="1355.9727"/><text fill="#000000" font-family="sans-serif" font-size="13" font-weight="bold" lengthAdjust="spacing" textLength="18" x="830.5" y="1351.2305">40</text><text fill="#000000" font-family="sans-serif" font-size="13" lengthAdjust="spacing" textLength="51" x="852.5" y="1351.2305">location</text><polygon fill="#181818" points="1212,1381.2832,1222,1385.2832,1212,1389.2832,1216,1385.2832" style="stroke:#181818;stroke-width:1.0;"/><line style="stroke:#181818;stroke-width:1.0;stroke-dasharray:2.0,2.0;" x1="813.5" x2="1218" y1="1385.2832" y2="1385.2832"/><text fill="#000000" font-family="sans-serif" font-size="13" font-weight="bold" lengthAdjust="spacing" textLength="18" x="820.5" y="1380.541">41</text><text fill="#000000" font-family="sans-serif" font-size="13" lengthAdjust="spacing" textLength="89" x="842.5" y="1380.541">update(house)</text><polygon fill="#181818" points="1959,1410.5938,1969,1414.5938,1959,1418.5938,1963,1414.5938" style="stroke:#181818;stroke-width:1.0;"/><line style="stroke:#181818;stroke-width:1.0;" x1="1234" x2="1965" y1="1414.5938" y2="1414.5938"/><text fill="#000000" font-family="sans-serif" font-size="13" font-weight="bold" lengthAdjust="spacing" textLength="18" x="1241" y="1409.8516">42</text><text fill="#000000" font-family="sans-serif" font-size="13" lengthAdjust="spacing" textLength="74" x="1263" y="1409.8516">save(house)</text><ellipse cx="2127.5" cy="1443.1543" fill="none" rx="4" ry="4" style="stroke:#181818;stroke-width:1.5;"/><polygon fill="#181818" points="2110.5,1439.9043,2120.5,1443.9043,2110.5,1447.9043,2114.5,1443.9043" style="stroke:#181818;stroke-width:1.0;"/><line style="stroke:#181818;stroke-width:1.0;" x1="1981" x2="2116.5" y1="1443.9043" y2="1443.9043"/><text fill="#000000" font-family="sans-serif" font-size="13" font-weight="bold" lengthAdjust="spacing" textLength="18" x="1988" y="1439.1621">43</text><text fill="#000000" font-family="sans-serif" font-size="13" lengthAdjust="spacing" textLength="112" x="2010" y="1439.1621">DATABASE QUERY</text><polygon fill="#181818" points="1992,1469.2148,1982,1473.2148,1992,1477.2148,1988,1473.2148" style="stroke:#181818;stroke-width:1.0;"/><ellipse cx="2127.5" cy="1472.4648" fill="none" rx="4" ry="4" style="stroke:#181818;stroke-width:1.5;"/><line style="stroke:#181818;stroke-width:1.0;stroke-dasharray:2.0,2.0;" x1="1986" x2="2123" y1="1473.2148" y2="1473.2148"/><text fill="#000000" font-family="sans-serif" font-size="13" font-weight="bold" lengthAdjust="spacing" textLength="18" x="1998" y="1468.4727">44</text><text fill="#000000" font-family="sans-serif" font-size="13" lengthAdjust="spacing" textLength="109" x="2020" y="1468.4727">QUERY RESPONSE</text><polygon fill="#181818" points="1245,1498.5254,1235,1502.5254,1245,1506.5254,1241,1502.5254" style="stroke:#181818;stroke-width:1.0;"/><line style="stroke:#181818;stroke-width:1.0;stroke-dasharray:2.0,2.0;" x1="1239" x2="1970" y1="1502.5254" y2="1502.5254"/><text fill="#000000" font-family="sans-serif" font-size="13" font-weight="bold" lengthAdjust="spacing" textLength="18" x="1251" y="1497.7832">45</text><text fill="#000000" font-family="sans-serif" font-size="13" lengthAdjust="spacing" textLength="105" x="1273" y="1497.7832">houseDataModel</text><polygon fill="#181818" points="1827,1527.8359,1837,1531.8359,1827,1535.8359,1831,1531.8359" style="stroke:#181818;stroke-width:1.0;"/><line style="stroke:#181818;stroke-width:1.0;" x1="1234" x2="1833" y1="1531.8359" y2="1531.8359"/><text fill="#000000" font-family="sans-serif" font-size="13" font-weight="bold" lengthAdjust="spacing" textLength="18" x="1241" y="1527.0938">46</text><text fill="#000000" font-family="sans-serif" font-size="13" lengthAdjust="spacing" textLength="267" x="1263" y="1527.0938">toDomain(factoryHouse, houseDataModel)</text><polygon fill="#181818" points="1245,1557.1465,1235,1561.1465,1245,1565.1465,1241,1561.1465" style="stroke:#181818;stroke-width:1.0;"/><line style="stroke:#181818;stroke-width:1.0;stroke-dasharray:2.0,2.0;" x1="1239" x2="1838" y1="1561.1465" y2="1561.1465"/><text fill="#000000" font-family="sans-serif" font-size="13" font-weight="bold" lengthAdjust="spacing" textLength="18" x="1251" y="1556.4043">47</text><text fill="#000000" font-family="sans-serif" font-size="13" lengthAdjust="spacing" textLength="38" x="1273" y="1556.4043">house</text><polygon fill="#181818" points="824.5,1586.457,814.5,1590.457,824.5,1594.457,820.5,1590.457" style="stroke:#181818;stroke-width:1.0;"/><line style="stroke:#181818;stroke-width:1.0;stroke-dasharray:2.0,2.0;" x1="818.5" x2="1223" y1="1590.457" y2="1590.457"/><text fill="#000000" font-family="sans-serif" font-size="13" font-weight="bold" lengthAdjust="spacing" textLength="18" x="830.5" y="1585.7148">48</text><text fill="#000000" font-family="sans-serif" font-size="13" lengthAdjust="spacing" textLength="38" x="852.5" y="1585.7148">house</text><polygon fill="#181818" points="479,1615.7676,469,1619.7676,479,1623.7676,475,1619.7676" style="stroke:#181818;stroke-width:1.0;"/><line style="stroke:#181818;stroke-width:1.0;stroke-dasharray:2.0,2.0;" x1="473" x2="802.5" y1="1619.7676" y2="1619.7676"/><text fill="#000000" font-family="sans-serif" font-size="13" font-weight="bold" lengthAdjust="spacing" textLength="18" x="485" y="1615.0254">49</text><text fill="#000000" font-family="sans-serif" font-size="13" lengthAdjust="spacing" textLength="51" x="507" y="1615.0254">location</text><rect fill="#E2E2F0" height="30.4883" rx="2.5" ry="2.5" style="stroke:#181818;stroke-width:0.5;" width="163" x="1603.5" y="1627.7676"/><text fill="#000000" font-family="sans-serif" font-size="14" lengthAdjust="spacing" textLength="149" x="1610.5" y="1648.3027">houseDTO:HouseDTO</text><polygon fill="#181818" points="1591.5,1645.0781,1601.5,1649.0781,1591.5,1653.0781,1595.5,1649.0781" style="stroke:#181818;stroke-width:1.0;"/><line style="stroke:#181818;stroke-width:1.0;stroke-dasharray:2.0,2.0;" x1="468" x2="1597.5" y1="1649.0781" y2="1649.0781"/><text fill="#000000" font-family="sans-serif" font-size="13" font-weight="bold" lengthAdjust="spacing" textLength="18" x="475" y="1644.3359">50</text><text fill="#000000" font-family="sans-serif" font-size="13" lengthAdjust="spacing" textLength="59" x="497" y="1644.3359">&#171;creates&#187;</text><polygon fill="#181818" points="169,1676.5664,159,1680.5664,169,1684.5664,165,1680.5664" style="stroke:#181818;stroke-width:1.0;"/><line style="stroke:#181818;stroke-width:1.0;stroke-dasharray:2.0,2.0;" x1="163" x2="457" y1="1680.5664" y2="1680.5664"/><text fill="#000000" font-family="sans-serif" font-size="13" font-weight="bold" lengthAdjust="spacing" textLength="18" x="175" y="1675.8242">51</text><text fill="#000000" font-family="sans-serif" font-size="13" lengthAdjust="spacing" textLength="163" x="197" y="1675.8242">houseDTO, HttpStatus.OK</text><ellipse cx="10.5" cy="1724.4375" fill="none" rx="4" ry="4" style="stroke:#181818;stroke-width:1.5;"/><polygon fill="#181818" points="27.5,1721.1875,17.5,1725.1875,27.5,1729.1875,23.5,1725.1875" style="stroke:#181818;stroke-width:1.0;"/><line style="stroke:#181818;stroke-width:1.0;stroke-dasharray:2.0,2.0;" x1="25.5" x2="147" y1="1725.1875" y2="1725.1875"/><text fill="#000000" font-family="sans-serif" font-size="13" font-weight="bold" lengthAdjust="spacing" textLength="18" x="28" y="1712.79">52</text><text fill="#000000" font-family="sans-serif" font-size="13" lengthAdjust="spacing" textLength="96" x="50" y="1705.1348">JSON response,</text><text fill="#000000" font-family="sans-serif" font-size="13" lengthAdjust="spacing" textLength="89" x="50" y="1720.4453">HttpStatus.OK</text><!--SRC=[xPTDKzim48Rl_XLRUWbCGk7gOJ9rufJG0g4nJAS3FIYsacXm95UMquPVNrcsRFahCANJNih5jlpkgzNcqSe88a8CT-EJKnY04mEYu0GRGaaiE1ACz-42VY0gG33m6LsILS8nY3M6aFb844Q1BTNpcYKnFeOhH2Z4YU_ZE8ROnnHnmeuj2oM2qMIpmDnw4t6qsY0Gc3s1u0bk6R4Mx2SSmDcPbooyNIpmPZXye23_x17o7p4DvDktBkAFvnpl2lMOKI4JmBnGUvXlCPVQIx9Q2oME41V49r6wh0DxpXAH2b0CsQsosKICOYg6mvfwcguodOMpCCJy2rweo3llv7GiUBWlLXVClPtPb-MzYZUUsoPC5q5yhAJcmBxfK11m-HlOJdPLiVbzLRYAuZ4Bi7r-uwLN9SplstAPuuZ5HAAnAzCfn_Pbf0Z9JChGzXeL1QfKfyKkBUOqlobDcsMyGb64UVRooX0YWQxaGiEQt1s1oyasvy8TPG-rnLafXPAyuchTiy4mfyY66-TsF0KKaNSgKmlvWcoHmBd0occJ4PeU7LDiD9MZNlq3xRsVu-y9ZiM81JkJ6J3OEYmdqhwMLV0fPpFYR93R76DHXfWWcXCCAcbwWXEwqi6TvW5Z_3hRyyzw6TfEloSIAIgVDTF2JYUVYDtpDahLxS4IsGPUOfCBIoUfohVYqH7O4YkVOrdzM4BLELqeRqMoT_K1InQocnVARYz6LoyrAwG1RgMaiggyRpHMLKd5x60shB1G0nVk1yusPIVf6I2R4LQb0MgxCiw69Q614uOJAij0SDmmAhLMlNj9ExtP2nypNh-qYfOm6B9lDhZEhJDol0bylflClvPlpmQ3zBKQXVd4kvbTUnCZk2tzTQKnNSgJs2nzaK5BwjMMPiipssKRUHoc7hsbj90wfUctJ5AlKjaQguzxagxdskPZPjnWeTl5-Crg05IWNMSaxUCD1qHeVdkvlW_vQTc7_3GyV1bcYh7TQ7VXQglNm2PzWXQVlm_TQu7R2ziV0EtraEq3hC6N6gYHqmIcwfUvg70Tq-YAfQIQeJxD6qbsf6RM9ua2ASye-bqMOxHjElody1zJM7QvJZxq4Lava_KNSGC__U_EO53le5BTXwaGaIUGIEBZsITpgkApyfwbiVfxzwCtkmQv9-JtSLhk1zffa4Ny0W00]--></g></svg>