<?xml version="1.0" encoding="us-ascii" standalone="no"?><svg xmlns="http://www.w3.org/2000/svg" xmlns:xlink="http://www.w3.org/1999/xlink" contentStyleType="text/css" height="1703px" preserveAspectRatio="none" style="width:3034px;height:1703px;background:#FFFFFF;" version="1.1" viewBox="0 0 3034 1703" width="3034px" zoomAndPan="magnify"><defs/><g><rect fill="#A9A9A9" height="1653.9219" style="stroke:#181818;stroke-width:0.5;" width="2810" x="121.5" y="43.4883"/><text fill="#000000" font-family="sans-serif" font-size="13" font-weight="bold" lengthAdjust="spacing" textLength="87" x="1485" y="56.0566">&#171;SubSystem&#187;</text><text fill="#000000" font-family="sans-serif" font-size="13" font-weight="bold" lengthAdjust="spacing" textLength="80" x="1489" y="71.3672">&#171;Container&#187;</text><text fill="#000000" font-family="sans-serif" font-size="13" font-weight="bold" lengthAdjust="spacing" textLength="60" x="1497" y="86.6777">:Backend</text><rect fill="#D3D3D3" height="1602.9902" style="stroke:#181818;stroke-width:0.5;" width="2810" x="121.5" y="94.4199"/><text fill="#000000" font-family="sans-serif" font-size="13" font-weight="bold" lengthAdjust="spacing" textLength="92" x="1482.5" y="106.9883">&#171;Component&#187;</text><text fill="#000000" font-family="sans-serif" font-size="13" font-weight="bold" lengthAdjust="spacing" textLength="46" x="1494.5" y="122.2988">:Server</text><text fill="#000000" font-family="sans-serif" font-size="14" font-weight="bold" lengthAdjust="spacing" textLength="230" x="1402.5" y="28.5352">UC02 - Add new room to house</text><line style="stroke:#181818;stroke-width:0.5;stroke-dasharray:5.0,5.0;" x1="180" x2="180" y1="177.0176" y2="1643.4336"/><rect fill="#FFFFFF" height="1419.1055" style="stroke:#181818;stroke-width:1.0;" width="10" x="175" y="206.3281"/><line style="stroke:#181818;stroke-width:0.5;stroke-dasharray:5.0,5.0;" x1="462" x2="462" y1="177.0176" y2="1643.4336"/><rect fill="#FFFFFF" height="1329.8633" style="stroke:#181818;stroke-width:1.0;" width="10" x="457" y="250.9492"/><line style="stroke:#181818;stroke-width:0.5;stroke-dasharray:5.0,5.0;" x1="641" x2="641" y1="177.0176" y2="1643.4336"/><rect fill="#FFFFFF" height="414.7031" style="stroke:#181818;stroke-width:1.0;" width="10" x="636" y="280.2598"/><line style="stroke:#181818;stroke-width:0.5;stroke-dasharray:5.0,5.0;" x1="794" x2="794" y1="177.0176" y2="1643.4336"/><line style="stroke:#181818;stroke-width:0.5;stroke-dasharray:5.0,5.0;" x1="931" x2="931" y1="405.502" y2="1643.4336"/><line style="stroke:#181818;stroke-width:0.5;stroke-dasharray:5.0,5.0;" x1="1086" x2="1086" y1="495.6113" y2="1643.4336"/><line style="stroke:#181818;stroke-width:0.5;stroke-dasharray:5.0,5.0;" x1="1307" x2="1307" y1="702.9629" y2="1643.4336"/><line style="stroke:#181818;stroke-width:0.5;stroke-dasharray:5.0,5.0;" x1="1499" x2="1499" y1="177.0176" y2="1643.4336"/><rect fill="#FFFFFF" height="764.252" style="stroke:#181818;stroke-width:1.0;" width="10" x="1494" y="755.7617"/><line style="stroke:#181818;stroke-width:0.5;stroke-dasharray:5.0,5.0;" x1="1728" x2="1728" y1="177.0176" y2="1643.4336"/><rect fill="#FFFFFF" height="146.5527" style="stroke:#181818;stroke-width:1.0;" width="10" x="1723" y="785.0723"/><line style="stroke:#181818;stroke-width:0.5;stroke-dasharray:5.0,5.0;" x1="1928" x2="1928" y1="177.0176" y2="1643.4336"/><rect fill="#FFFFFF" height="29.3105" style="stroke:#181818;stroke-width:1.0;" width="10" x="1923" y="960.9355"/><line style="stroke:#181818;stroke-width:0.5;stroke-dasharray:5.0,5.0;" x1="2058" x2="2058" y1="177.0176" y2="1643.4336"/><rect fill="#FFFFFF" height="146.5527" style="stroke:#181818;stroke-width:1.0;" width="10" x="2053" y="1019.5566"/><rect fill="#FFFFFF" height="236.6621" style="stroke:#181818;stroke-width:1.0;" width="10" x="2053" y="1195.4199"/><line style="stroke:#181818;stroke-width:0.5;stroke-dasharray:5.0,5.0;" x1="2181" x2="2181" y1="177.0176" y2="1643.4336"/><rect fill="#FFFFFF" height="29.3105" style="stroke:#181818;stroke-width:1.0;" width="10" x="2176" y="1461.3926"/><line style="stroke:#181818;stroke-width:0.5;stroke-dasharray:5.0,5.0;" x1="2327" x2="2327" y1="1528.0137" y2="1643.4336"/><line style="stroke:#181818;stroke-width:0.5;stroke-dasharray:5.0,5.0;" x1="2546" x2="2546" y1="1203.4199" y2="1643.4336"/><line style="stroke:#181818;stroke-width:0.5;stroke-dasharray:5.0,5.0;" x1="2742.5" x2="2742.5" y1="177.0176" y2="1643.4336"/><rect fill="#FFFFFF" height="29.3105" style="stroke:#181818;stroke-width:1.0;" width="10" x="2737.5" y="1373.4609"/><line style="stroke:#181818;stroke-width:0.5;stroke-dasharray:5.0,5.0;" x1="2873" x2="2873" y1="177.0176" y2="1643.4336"/><rect fill="#FFFFFF" height="87.9316" style="stroke:#181818;stroke-width:1.0;" width="10" x="2868" y="814.3828"/><rect fill="#FFFFFF" height="87.9316" style="stroke:#181818;stroke-width:1.0;" width="10" x="2868" y="1048.8672"/><rect fill="#FFFFFF" height="87.9316" style="stroke:#181818;stroke-width:1.0;" width="10" x="2868" y="1256.2188"/><rect fill="#E2E2F0" height="46.9766" rx="2.5" ry="2.5" style="stroke:#181818;stroke-width:0.5;" width="109" x="125.5" y="129.041"/><text fill="#000000" font-family="sans-serif" font-size="14" font-style="italic" lengthAdjust="spacing" textLength="95" x="132.5" y="149.5762">&#171;Component&#187;</text><text fill="#000000" font-family="sans-serif" font-size="14" lengthAdjust="spacing" textLength="50" x="155" y="166.0645">:Router</text><rect fill="#E2E2F0" height="46.9766" rx="2.5" ry="2.5" style="stroke:#181818;stroke-width:0.5;" width="157" x="383.5" y="129.041"/><text fill="#000000" font-family="sans-serif" font-size="14" font-style="italic" lengthAdjust="spacing" textLength="95" x="414.5" y="149.5762">&#171;Component&#187;</text><text fill="#000000" font-family="sans-serif" font-size="14" lengthAdjust="spacing" textLength="143" x="390.5" y="166.0645">:RoomControllerWeb</text><rect fill="#E2E2F0" height="30.4883" rx="2.5" ry="2.5" style="stroke:#181818;stroke-width:0.5;" width="155" x="563.5" y="145.5293"/><text fill="#000000" font-family="sans-serif" font-size="14" lengthAdjust="spacing" textLength="141" x="570.5" y="166.0645">roomDTO:RoomDTO</text><rect fill="#E2E2F0" height="30.4883" rx="2.5" ry="2.5" style="stroke:#181818;stroke-width:0.5;" width="131" x="728.5" y="145.5293"/><text fill="#000000" font-family="sans-serif" font-size="14" lengthAdjust="spacing" textLength="117" x="735.5" y="166.0645">houseID:HouseID</text><rect fill="#E2E2F0" height="46.9766" rx="2.5" ry="2.5" style="stroke:#181818;stroke-width:0.5;" width="109" x="1444.5" y="129.041"/><text fill="#000000" font-family="sans-serif" font-size="14" font-style="italic" lengthAdjust="spacing" textLength="95" x="1451.5" y="149.5762">&#171;Component&#187;</text><text fill="#000000" font-family="sans-serif" font-size="14" lengthAdjust="spacing" textLength="92" x="1453" y="166.0645">:RoomService</text><rect fill="#E2E2F0" height="46.9766" rx="2.5" ry="2.5" style="stroke:#181818;stroke-width:0.5;" width="134" x="1661" y="129.041"/><text fill="#000000" font-family="sans-serif" font-size="14" font-style="italic" lengthAdjust="spacing" textLength="95" x="1680.5" y="149.5762">&#171;Component&#187;</text><text fill="#000000" font-family="sans-serif" font-size="14" lengthAdjust="spacing" textLength="120" x="1668" y="166.0645">:HouseRepository</text><rect fill="#E2E2F0" height="46.9766" rx="2.5" ry="2.5" style="stroke:#181818;stroke-width:0.5;" width="109" x="1873.5" y="129.041"/><text fill="#000000" font-family="sans-serif" font-size="14" font-style="italic" lengthAdjust="spacing" textLength="95" x="1880.5" y="149.5762">&#171;Component&#187;</text><text fill="#000000" font-family="sans-serif" font-size="14" lengthAdjust="spacing" textLength="94" x="1881" y="166.0645">:FactoryRoom</text><rect fill="#E2E2F0" height="46.9766" rx="2.5" ry="2.5" style="stroke:#181818;stroke-width:0.5;" width="131" x="1992.5" y="129.041"/><text fill="#000000" font-family="sans-serif" font-size="14" font-style="italic" lengthAdjust="spacing" textLength="95" x="2010.5" y="149.5762">&#171;Component&#187;</text><text fill="#000000" font-family="sans-serif" font-size="14" lengthAdjust="spacing" textLength="117" x="1999.5" y="166.0645">:RoomRepository</text><rect fill="#E2E2F0" height="30.4883" rx="2.5" ry="2.5" style="stroke:#181818;stroke-width:0.5;" width="95" x="2133.5" y="145.5293"/><text fill="#000000" font-family="sans-serif" font-size="14" lengthAdjust="spacing" textLength="81" x="2140.5" y="166.0645">room:Room</text><rect fill="#E2E2F0" height="46.9766" rx="2.5" ry="2.5" style="stroke:#181818;stroke-width:0.5;" width="132" x="2676.5" y="129.041"/><text fill="#000000" font-family="sans-serif" font-size="14" font-style="italic" lengthAdjust="spacing" textLength="95" x="2695" y="149.5762">&#171;Component&#187;</text><text fill="#000000" font-family="sans-serif" font-size="14" lengthAdjust="spacing" textLength="118" x="2683.5" y="166.0645">:MapperRoomDM</text><rect fill="#E2E2F0" height="46.9766" rx="2.5" ry="2.5" style="stroke:#181818;stroke-width:0.5;" width="109" x="2818.5" y="129.041"/><text fill="#000000" font-family="sans-serif" font-size="14" font-style="italic" lengthAdjust="spacing" textLength="95" x="2825.5" y="149.5762">&#171;Component&#187;</text><text fill="#000000" font-family="sans-serif" font-size="14" lengthAdjust="spacing" textLength="67" x="2839.5" y="166.0645">:DB Driver</text><rect fill="#E2E2F0" height="46.9766" rx="2.5" ry="2.5" style="stroke:#181818;stroke-width:0.5;" width="109" x="125.5" y="1643.4336"/><text fill="#000000" font-family="sans-serif" font-size="14" font-style="italic" lengthAdjust="spacing" textLength="95" x="132.5" y="1663.9688">&#171;Component&#187;</text><text fill="#000000" font-family="sans-serif" font-size="14" lengthAdjust="spacing" textLength="50" x="155" y="1680.457">:Router</text><rect fill="#E2E2F0" height="46.9766" rx="2.5" ry="2.5" style="stroke:#181818;stroke-width:0.5;" width="157" x="383.5" y="1643.4336"/><text fill="#000000" font-family="sans-serif" font-size="14" font-style="italic" lengthAdjust="spacing" textLength="95" x="414.5" y="1663.9688">&#171;Component&#187;</text><text fill="#000000" font-family="sans-serif" font-size="14" lengthAdjust="spacing" textLength="143" x="390.5" y="1680.457">:RoomControllerWeb</text><rect fill="#E2E2F0" height="30.4883" rx="2.5" ry="2.5" style="stroke:#181818;stroke-width:0.5;" width="155" x="563.5" y="1643.4336"/><text fill="#000000" font-family="sans-serif" font-size="14" lengthAdjust="spacing" textLength="141" x="570.5" y="1663.9688">roomDTO:RoomDTO</text><rect fill="#E2E2F0" height="30.4883" rx="2.5" ry="2.5" style="stroke:#181818;stroke-width:0.5;" width="131" x="728.5" y="1643.4336"/><text fill="#000000" font-family="sans-serif" font-size="14" lengthAdjust="spacing" textLength="117" x="735.5" y="1663.9688">houseID:HouseID</text><rect fill="#E2E2F0" height="30.4883" rx="2.5" ry="2.5" style="stroke:#181818;stroke-width:0.5;" width="123" x="869.5" y="1643.4336"/><text fill="#000000" font-family="sans-serif" font-size="14" lengthAdjust="spacing" textLength="109" x="876.5" y="1663.9688">roomID:RoomID</text><rect fill="#E2E2F0" height="30.4883" rx="2.5" ry="2.5" style="stroke:#181818;stroke-width:0.5;" width="167" x="1002.5" y="1643.4336"/><text fill="#000000" font-family="sans-serif" font-size="14" lengthAdjust="spacing" textLength="153" x="1009.5" y="1663.9688">roomFloor:RoomFloor</text><rect fill="#E2E2F0" height="30.4883" rx="2.5" ry="2.5" style="stroke:#181818;stroke-width:0.5;" width="255" x="1179.5" y="1643.4336"/><text fill="#000000" font-family="sans-serif" font-size="14" lengthAdjust="spacing" textLength="241" x="1186.5" y="1663.9688">roomDimensions:RoomDimensions</text><rect fill="#E2E2F0" height="46.9766" rx="2.5" ry="2.5" style="stroke:#181818;stroke-width:0.5;" width="109" x="1444.5" y="1643.4336"/><text fill="#000000" font-family="sans-serif" font-size="14" font-style="italic" lengthAdjust="spacing" textLength="95" x="1451.5" y="1663.9688">&#171;Component&#187;</text><text fill="#000000" font-family="sans-serif" font-size="14" lengthAdjust="spacing" textLength="92" x="1453" y="1680.457">:RoomService</text><rect fill="#E2E2F0" height="46.9766" rx="2.5" ry="2.5" style="stroke:#181818;stroke-width:0.5;" width="134" x="1661" y="1643.4336"/><text fill="#000000" font-family="sans-serif" font-size="14" font-style="italic" lengthAdjust="spacing" textLength="95" x="1680.5" y="1663.9688">&#171;Component&#187;</text><text fill="#000000" font-family="sans-serif" font-size="14" lengthAdjust="spacing" textLength="120" x="1668" y="1680.457">:HouseRepository</text><rect fill="#E2E2F0" height="46.9766" rx="2.5" ry="2.5" style="stroke:#181818;stroke-width:0.5;" width="109" x="1873.5" y="1643.4336"/><text fill="#000000" font-family="sans-serif" font-size="14" font-style="italic" lengthAdjust="spacing" textLength="95" x="1880.5" y="1663.9688">&#171;Component&#187;</text><text fill="#000000" font-family="sans-serif" font-size="14" lengthAdjust="spacing" textLength="94" x="1881" y="1680.457">:FactoryRoom</text><rect fill="#E2E2F0" height="46.9766" rx="2.5" ry="2.5" style="stroke:#181818;stroke-width:0.5;" width="131" x="1992.5" y="1643.4336"/><text fill="#000000" font-family="sans-serif" font-size="14" font-style="italic" lengthAdjust="spacing" textLength="95" x="2010.5" y="1663.9688">&#171;Component&#187;</text><text fill="#000000" font-family="sans-serif" font-size="14" lengthAdjust="spacing" textLength="117" x="1999.5" y="1680.457">:RoomRepository</text><rect fill="#E2E2F0" height="30.4883" rx="2.5" ry="2.5" style="stroke:#181818;stroke-width:0.5;" width="95" x="2133.5" y="1643.4336"/><text fill="#000000" font-family="sans-serif" font-size="14" lengthAdjust="spacing" textLength="81" x="2140.5" y="1663.9688">room:Room</text><rect fill="#E2E2F0" height="30.4883" rx="2.5" ry="2.5" style="stroke:#181818;stroke-width:0.5;" width="177" x="2238.5" y="1643.4336"/><text fill="#000000" font-family="sans-serif" font-size="14" lengthAdjust="spacing" textLength="163" x="2245.5" y="1663.9688">newRomDTO:RoomDTO</text><rect fill="#E2E2F0" height="30.4883" rx="2.5" ry="2.5" style="stroke:#181818;stroke-width:0.5;" width="241" x="2425.5" y="1643.4336"/><text fill="#000000" font-family="sans-serif" font-size="14" lengthAdjust="spacing" textLength="227" x="2432.5" y="1663.9688">roomDataModel:RoomDataModel</text><rect fill="#E2E2F0" height="46.9766" rx="2.5" ry="2.5" style="stroke:#181818;stroke-width:0.5;" width="132" x="2676.5" y="1643.4336"/><text fill="#000000" font-family="sans-serif" font-size="14" font-style="italic" lengthAdjust="spacing" textLength="95" x="2695" y="1663.9688">&#171;Component&#187;</text><text fill="#000000" font-family="sans-serif" font-size="14" lengthAdjust="spacing" textLength="118" x="2683.5" y="1680.457">:MapperRoomDM</text><rect fill="#E2E2F0" height="46.9766" rx="2.5" ry="2.5" style="stroke:#181818;stroke-width:0.5;" width="109" x="2818.5" y="1643.4336"/><text fill="#000000" font-family="sans-serif" font-size="14" font-style="italic" lengthAdjust="spacing" textLength="95" x="2825.5" y="1663.9688">&#171;Component&#187;</text><text fill="#000000" font-family="sans-serif" font-size="14" lengthAdjust="spacing" textLength="67" x="2839.5" y="1680.457">:DB Driver</text><ellipse cx="10.5" cy="205.5781" fill="none" rx="4" ry="4" style="stroke:#181818;stroke-width:1.5;"/><polygon fill="#181818" points="163,202.3281,173,206.3281,163,210.3281,167,206.3281" style="stroke:#181818;stroke-width:1.0;"/><line style="stroke:#181818;stroke-width:1.0;" x1="15" x2="169" y1="206.3281" y2="206.3281"/><text fill="#000000" font-family="sans-serif" font-size="13" font-weight="bold" lengthAdjust="spacing" textLength="9" x="18" y="201.5859">1</text><text fill="#000000" font-family="sans-serif" font-size="13" lengthAdjust="spacing" textLength="102" x="31" y="201.5859">POST api/rooms</text><polygon fill="#181818" points="445,246.9492,455,250.9492,445,254.9492,449,250.9492" style="stroke:#181818;stroke-width:1.0;"/><line style="stroke:#181818;stroke-width:1.0;" x1="185" x2="451" y1="250.9492" y2="250.9492"/><text fill="#000000" font-family="sans-serif" font-size="13" font-weight="bold" lengthAdjust="spacing" textLength="9" x="192" y="238.5518">2</text><text fill="#000000" font-family="sans-serif" font-size="13" lengthAdjust="spacing" textLength="110" x="205" y="230.8965">POST createRoom</text><text fill="#000000" font-family="sans-serif" font-size="13" lengthAdjust="spacing" textLength="232" x="205" y="246.207">(@RequestBody RoomDTO roomDTO)</text><polygon fill="#181818" points="624,276.2598,634,280.2598,624,284.2598,628,280.2598" style="stroke:#181818;stroke-width:1.0;"/><line style="stroke:#181818;stroke-width:1.0;" x1="467" x2="630" y1="280.2598" y2="280.2598"/><text fill="#000000" font-family="sans-serif" font-size="13" font-weight="bold" lengthAdjust="spacing" textLength="9" x="474" y="275.5176">3</text><text fill="#000000" font-family="sans-serif" font-size="13" lengthAdjust="spacing" textLength="52" x="487" y="275.5176">houseID</text><polygon fill="#181818" points="478,305.5703,468,309.5703,478,313.5703,474,309.5703" style="stroke:#181818;stroke-width:1.0;"/><line style="stroke:#181818;stroke-width:1.0;stroke-dasharray:2.0,2.0;" x1="472" x2="635" y1="309.5703" y2="309.5703"/><text fill="#000000" font-family="sans-serif" font-size="13" font-weight="bold" lengthAdjust="spacing" textLength="9" x="484" y="304.8281">4</text><text fill="#000000" font-family="sans-serif" font-size="13" lengthAdjust="spacing" textLength="93" x="497" y="304.8281">String houseID</text><polygon fill="#181818" points="782,334.8809,792,338.8809,782,342.8809,786,338.8809" style="stroke:#181818;stroke-width:1.0;"/><line style="stroke:#181818;stroke-width:1.0;stroke-dasharray:2.0,2.0;" x1="467" x2="788" y1="338.8809" y2="338.8809"/><text fill="#000000" font-family="sans-serif" font-size="13" font-weight="bold" lengthAdjust="spacing" textLength="9" x="474" y="334.1387">5</text><text fill="#000000" font-family="sans-serif" font-size="13" lengthAdjust="spacing" textLength="52" x="487" y="334.1387">&#171;create&#187;</text><polygon fill="#181818" points="624,364.1914,634,368.1914,624,372.1914,628,368.1914" style="stroke:#181818;stroke-width:1.0;"/><line style="stroke:#181818;stroke-width:1.0;" x1="467" x2="630" y1="368.1914" y2="368.1914"/><text fill="#000000" font-family="sans-serif" font-size="13" font-weight="bold" lengthAdjust="spacing" textLength="9" x="474" y="363.4492">6</text><text fill="#000000" font-family="sans-serif" font-size="13" lengthAdjust="spacing" textLength="69" x="487" y="363.4492">roomName</text><polygon fill="#181818" points="478,393.502,468,397.502,478,401.502,474,397.502" style="stroke:#181818;stroke-width:1.0;"/><line style="stroke:#181818;stroke-width:1.0;stroke-dasharray:2.0,2.0;" x1="472" x2="635" y1="397.502" y2="397.502"/><text fill="#000000" font-family="sans-serif" font-size="13" font-weight="bold" lengthAdjust="spacing" textLength="9" x="484" y="392.7598">7</text><text fill="#000000" font-family="sans-serif" font-size="13" lengthAdjust="spacing" textLength="110" x="497" y="392.7598">String roomName</text><rect fill="#E2E2F0" height="30.4883" rx="2.5" ry="2.5" style="stroke:#181818;stroke-width:0.5;" width="123" x="869.5" y="405.502"/><text fill="#000000" font-family="sans-serif" font-size="14" lengthAdjust="spacing" textLength="109" x="876.5" y="426.0371">roomID:RoomID</text><polygon fill="#181818" points="857.5,422.8125,867.5,426.8125,857.5,430.8125,861.5,426.8125" style="stroke:#181818;stroke-width:1.0;"/><line style="stroke:#181818;stroke-width:1.0;stroke-dasharray:2.0,2.0;" x1="467" x2="863.5" y1="426.8125" y2="426.8125"/><text fill="#000000" font-family="sans-serif" font-size="13" font-weight="bold" lengthAdjust="spacing" textLength="9" x="474" y="422.0703">8</text><text fill="#000000" font-family="sans-serif" font-size="13" lengthAdjust="spacing" textLength="52" x="487" y="422.0703">&#171;create&#187;</text><polygon fill="#181818" points="624,454.3008,634,458.3008,624,462.3008,628,458.3008" style="stroke:#181818;stroke-width:1.0;"/><line style="stroke:#181818;stroke-width:1.0;" x1="467" x2="630" y1="458.3008" y2="458.3008"/><text fill="#000000" font-family="sans-serif" font-size="13" font-weight="bold" lengthAdjust="spacing" textLength="9" x="474" y="453.5586">9</text><text fill="#000000" font-family="sans-serif" font-size="13" lengthAdjust="spacing" textLength="80" x="487" y="453.5586">floorNumber</text><polygon fill="#181818" points="478,483.6113,468,487.6113,478,491.6113,474,487.6113" style="stroke:#181818;stroke-width:1.0;"/><line style="stroke:#181818;stroke-width:1.0;stroke-dasharray:2.0,2.0;" x1="472" x2="635" y1="487.6113" y2="487.6113"/><text fill="#000000" font-family="sans-serif" font-size="13" font-weight="bold" lengthAdjust="spacing" textLength="18" x="484" y="482.8691">10</text><text fill="#000000" font-family="sans-serif" font-size="13" lengthAdjust="spacing" textLength="101" x="506" y="482.8691">int floorNumber</text><rect fill="#E2E2F0" height="30.4883" rx="2.5" ry="2.5" style="stroke:#181818;stroke-width:0.5;" width="167" x="1002.5" y="495.6113"/><text fill="#000000" font-family="sans-serif" font-size="14" lengthAdjust="spacing" textLength="153" x="1009.5" y="516.1465">roomFloor:RoomFloor</text><polygon fill="#181818" points="990.5,512.9219,1000.5,516.9219,990.5,520.9219,994.5,516.9219" style="stroke:#181818;stroke-width:1.0;"/><line style="stroke:#181818;stroke-width:1.0;stroke-dasharray:2.0,2.0;" x1="467" x2="996.5" y1="516.9219" y2="516.9219"/><text fill="#000000" font-family="sans-serif" font-size="13" font-weight="bold" lengthAdjust="spacing" textLength="18" x="474" y="512.1797">11</text><text fill="#000000" font-family="sans-serif" font-size="13" lengthAdjust="spacing" textLength="52" x="496" y="512.1797">&#171;create&#187;</text><polygon fill="#181818" points="624,544.4102,634,548.4102,624,552.4102,628,548.4102" style="stroke:#181818;stroke-width:1.0;"/><line style="stroke:#181818;stroke-width:1.0;" x1="467" x2="630" y1="548.4102" y2="548.4102"/><text fill="#000000" font-family="sans-serif" font-size="13" font-weight="bold" lengthAdjust="spacing" textLength="18" x="474" y="543.668">12</text><text fill="#000000" font-family="sans-serif" font-size="13" lengthAdjust="spacing" textLength="76" x="496" y="543.668">roomLength</text><polygon fill="#181818" points="478,573.7207,468,577.7207,478,581.7207,474,577.7207" style="stroke:#181818;stroke-width:1.0;"/><line style="stroke:#181818;stroke-width:1.0;stroke-dasharray:2.0,2.0;" x1="472" x2="635" y1="577.7207" y2="577.7207"/><text fill="#000000" font-family="sans-serif" font-size="13" font-weight="bold" lengthAdjust="spacing" textLength="18" x="484" y="572.9785">13</text><text fill="#000000" font-family="sans-serif" font-size="13" lengthAdjust="spacing" textLength="123" x="506" y="572.9785">double roomLength</text><polygon fill="#181818" points="624,603.0313,634,607.0313,624,611.0313,628,607.0313" style="stroke:#181818;stroke-width:1.0;"/><line style="stroke:#181818;stroke-width:1.0;" x1="467" x2="630" y1="607.0313" y2="607.0313"/><text fill="#000000" font-family="sans-serif" font-size="13" font-weight="bold" lengthAdjust="spacing" textLength="18" x="474" y="602.2891">14</text><text fill="#000000" font-family="sans-serif" font-size="13" lengthAdjust="spacing" textLength="69" x="496" y="602.2891">roomWidth</text><polygon fill="#181818" points="478,632.3418,468,636.3418,478,640.3418,474,636.3418" style="stroke:#181818;stroke-width:1.0;"/><line style="stroke:#181818;stroke-width:1.0;stroke-dasharray:2.0,2.0;" x1="472" x2="635" y1="636.3418" y2="636.3418"/><text fill="#000000" font-family="sans-serif" font-size="13" font-weight="bold" lengthAdjust="spacing" textLength="18" x="484" y="631.5996">15</text><text fill="#000000" font-family="sans-serif" font-size="13" lengthAdjust="spacing" textLength="116" x="506" y="631.5996">double roomWidth</text><polygon fill="#181818" points="624,661.6523,634,665.6523,624,669.6523,628,665.6523" style="stroke:#181818;stroke-width:1.0;"/><line style="stroke:#181818;stroke-width:1.0;" x1="467" x2="630" y1="665.6523" y2="665.6523"/><text fill="#000000" font-family="sans-serif" font-size="13" font-weight="bold" lengthAdjust="spacing" textLength="18" x="474" y="660.9102">16</text><text fill="#000000" font-family="sans-serif" font-size="13" lengthAdjust="spacing" textLength="75" x="496" y="660.9102">roomHeight</text><polygon fill="#181818" points="478,690.9629,468,694.9629,478,698.9629,474,694.9629" style="stroke:#181818;stroke-width:1.0;"/><line style="stroke:#181818;stroke-width:1.0;stroke-dasharray:2.0,2.0;" x1="472" x2="635" y1="694.9629" y2="694.9629"/><text fill="#000000" font-family="sans-serif" font-size="13" font-weight="bold" lengthAdjust="spacing" textLength="18" x="484" y="690.2207">17</text><text fill="#000000" font-family="sans-serif" font-size="13" lengthAdjust="spacing" textLength="122" x="506" y="690.2207">double roomHeight</text><rect fill="#E2E2F0" height="30.4883" rx="2.5" ry="2.5" style="stroke:#181818;stroke-width:0.5;" width="255" x="1179.5" y="702.9629"/><text fill="#000000" font-family="sans-serif" font-size="14" lengthAdjust="spacing" textLength="241" x="1186.5" y="723.498">roomDimensions:RoomDimensions</text><polygon fill="#181818" points="1167.5,720.2734,1177.5,724.2734,1167.5,728.2734,1171.5,724.2734" style="stroke:#181818;stroke-width:1.0;"/><line style="stroke:#181818;stroke-width:1.0;stroke-dasharray:2.0,2.0;" x1="467" x2="1173.5" y1="724.2734" y2="724.2734"/><text fill="#000000" font-family="sans-serif" font-size="13" font-weight="bold" lengthAdjust="spacing" textLength="18" x="474" y="719.5313">18</text><text fill="#000000" font-family="sans-serif" font-size="13" lengthAdjust="spacing" textLength="52" x="496" y="719.5313">&#171;create&#187;</text><polygon fill="#181818" points="1482,751.7617,1492,755.7617,1482,759.7617,1486,755.7617" style="stroke:#181818;stroke-width:1.0;"/><line style="stroke:#181818;stroke-width:1.0;" x1="467" x2="1488" y1="755.7617" y2="755.7617"/><text fill="#000000" font-family="sans-serif" font-size="13" font-weight="bold" lengthAdjust="spacing" textLength="18" x="474" y="751.0195">19</text><text fill="#000000" font-family="sans-serif" font-size="13" lengthAdjust="spacing" textLength="431" x="496" y="751.0195">createRoomAndSave(roomID, roomFloor, roomDimensions, houseID)</text><polygon fill="#181818" points="1711,781.0723,1721,785.0723,1711,789.0723,1715,785.0723" style="stroke:#181818;stroke-width:1.0;"/><line style="stroke:#181818;stroke-width:1.0;" x1="1504" x2="1717" y1="785.0723" y2="785.0723"/><text fill="#000000" font-family="sans-serif" font-size="13" font-weight="bold" lengthAdjust="spacing" textLength="18" x="1511" y="780.3301">20</text><text fill="#000000" font-family="sans-serif" font-size="13" lengthAdjust="spacing" textLength="178" x="1533" y="780.3301">containsEntityByID(houseID)</text><polygon fill="#181818" points="2856,810.3828,2866,814.3828,2856,818.3828,2860,814.3828" style="stroke:#181818;stroke-width:1.0;"/><line style="stroke:#181818;stroke-width:1.0;" x1="1733" x2="2862" y1="814.3828" y2="814.3828"/><text fill="#000000" font-family="sans-serif" font-size="13" font-weight="bold" lengthAdjust="spacing" textLength="18" x="1740" y="809.6406">21</text><text fill="#000000" font-family="sans-serif" font-size="13" lengthAdjust="spacing" textLength="186" x="1762" y="809.6406">existsById(houseID.toString())</text><ellipse cx="3024.5" cy="842.9434" fill="none" rx="4" ry="4" style="stroke:#181818;stroke-width:1.5;"/><polygon fill="#181818" points="3007.5,839.6934,3017.5,843.6934,3007.5,847.6934,3011.5,843.6934" style="stroke:#181818;stroke-width:1.0;"/><line style="stroke:#181818;stroke-width:1.0;" x1="2878" x2="3013.5" y1="843.6934" y2="843.6934"/><text fill="#000000" font-family="sans-serif" font-size="13" font-weight="bold" lengthAdjust="spacing" textLength="18" x="2885" y="838.9512">22</text><text fill="#000000" font-family="sans-serif" font-size="13" lengthAdjust="spacing" textLength="112" x="2907" y="838.9512">DATABASE QUERY</text><polygon fill="#181818" points="2889,869.0039,2879,873.0039,2889,877.0039,2885,873.0039" style="stroke:#181818;stroke-width:1.0;"/><ellipse cx="3024.5" cy="872.2539" fill="none" rx="4" ry="4" style="stroke:#181818;stroke-width:1.5;"/><line style="stroke:#181818;stroke-width:1.0;stroke-dasharray:2.0,2.0;" x1="2883" x2="3020" y1="873.0039" y2="873.0039"/><text fill="#000000" font-family="sans-serif" font-size="13" font-weight="bold" lengthAdjust="spacing" textLength="18" x="2895" y="868.2617">23</text><text fill="#000000" font-family="sans-serif" font-size="13" lengthAdjust="spacing" textLength="109" x="2917" y="868.2617">QUERY RESPONSE</text><polygon fill="#181818" points="1744,898.3145,1734,902.3145,1744,906.3145,1740,902.3145" style="stroke:#181818;stroke-width:1.0;"/><line style="stroke:#181818;stroke-width:1.0;stroke-dasharray:2.0,2.0;" x1="1738" x2="2867" y1="902.3145" y2="902.3145"/><text fill="#000000" font-family="sans-serif" font-size="13" font-weight="bold" lengthAdjust="spacing" textLength="18" x="1750" y="897.5723">24</text><text fill="#000000" font-family="sans-serif" font-size="13" lengthAdjust="spacing" textLength="25" x="1772" y="897.5723">true</text><polygon fill="#181818" points="1515,927.625,1505,931.625,1515,935.625,1511,931.625" style="stroke:#181818;stroke-width:1.0;"/><line style="stroke:#181818;stroke-width:1.0;stroke-dasharray:2.0,2.0;" x1="1509" x2="1722" y1="931.625" y2="931.625"/><text fill="#000000" font-family="sans-serif" font-size="13" font-weight="bold" lengthAdjust="spacing" textLength="18" x="1521" y="926.8828">25</text><text fill="#000000" font-family="sans-serif" font-size="13" lengthAdjust="spacing" textLength="25" x="1543" y="926.8828">true</text><polygon fill="#181818" points="1911,956.9355,1921,960.9355,1911,964.9355,1915,960.9355" style="stroke:#181818;stroke-width:1.0;"/><line style="stroke:#181818;stroke-width:1.0;stroke-dasharray:2.0,2.0;" x1="1504" x2="1917" y1="960.9355" y2="960.9355"/><text fill="#000000" font-family="sans-serif" font-size="13" font-weight="bold" lengthAdjust="spacing" textLength="18" x="1511" y="956.1934">26</text><text fill="#000000" font-family="sans-serif" font-size="13" lengthAdjust="spacing" textLength="378" x="1533" y="956.1934">createRoom(roomID, roomFloor, roomDimensions, houseID)</text><polygon fill="#181818" points="1515,986.2461,1505,990.2461,1515,994.2461,1511,990.2461" style="stroke:#181818;stroke-width:1.0;"/><line style="stroke:#181818;stroke-width:1.0;stroke-dasharray:2.0,2.0;" x1="1509" x2="1922" y1="990.2461" y2="990.2461"/><text fill="#000000" font-family="sans-serif" font-size="13" font-weight="bold" lengthAdjust="spacing" textLength="18" x="1521" y="985.5039">27</text><text fill="#000000" font-family="sans-serif" font-size="13" lengthAdjust="spacing" textLength="33" x="1543" y="985.5039">room</text><polygon fill="#181818" points="2041,1015.5566,2051,1019.5566,2041,1023.5566,2045,1019.5566" style="stroke:#181818;stroke-width:1.0;"/><line style="stroke:#181818;stroke-width:1.0;" x1="1504" x2="2047" y1="1019.5566" y2="1019.5566"/><text fill="#000000" font-family="sans-serif" font-size="13" font-weight="bold" lengthAdjust="spacing" textLength="18" x="1511" y="1014.8145">28</text><text fill="#000000" font-family="sans-serif" font-size="13" lengthAdjust="spacing" textLength="173" x="1533" y="1014.8145">containsEntityByID(roomID)</text><polygon fill="#181818" points="2856,1044.8672,2866,1048.8672,2856,1052.8672,2860,1048.8672" style="stroke:#181818;stroke-width:1.0;"/><line style="stroke:#181818;stroke-width:1.0;" x1="2063" x2="2862" y1="1048.8672" y2="1048.8672"/><text fill="#000000" font-family="sans-serif" font-size="13" font-weight="bold" lengthAdjust="spacing" textLength="18" x="2070" y="1044.125">29</text><text fill="#000000" font-family="sans-serif" font-size="13" lengthAdjust="spacing" textLength="181" x="2092" y="1044.125">existsById(roomID.toString())</text><ellipse cx="3024.5" cy="1077.4277" fill="none" rx="4" ry="4" style="stroke:#181818;stroke-width:1.5;"/><polygon fill="#181818" points="3007.5,1074.1777,3017.5,1078.1777,3007.5,1082.1777,3011.5,1078.1777" style="stroke:#181818;stroke-width:1.0;"/><line style="stroke:#181818;stroke-width:1.0;" x1="2878" x2="3013.5" y1="1078.1777" y2="1078.1777"/><text fill="#000000" font-family="sans-serif" font-size="13" font-weight="bold" lengthAdjust="spacing" textLength="18" x="2885" y="1073.4355">30</text><text fill="#000000" font-family="sans-serif" font-size="13" lengthAdjust="spacing" textLength="112" x="2907" y="1073.4355">DATABASE QUERY</text><polygon fill="#181818" points="2889,1103.4883,2879,1107.4883,2889,1111.4883,2885,1107.4883" style="stroke:#181818;stroke-width:1.0;"/><ellipse cx="3024.5" cy="1106.7383" fill="none" rx="4" ry="4" style="stroke:#181818;stroke-width:1.5;"/><line style="stroke:#181818;stroke-width:1.0;stroke-dasharray:2.0,2.0;" x1="2883" x2="3020" y1="1107.4883" y2="1107.4883"/><text fill="#000000" font-family="sans-serif" font-size="13" font-weight="bold" lengthAdjust="spacing" textLength="18" x="2895" y="1102.7461">31</text><text fill="#000000" font-family="sans-serif" font-size="13" lengthAdjust="spacing" textLength="109" x="2917" y="1102.7461">QUERY RESPONSE</text><polygon fill="#181818" points="2074,1132.7988,2064,1136.7988,2074,1140.7988,2070,1136.7988" style="stroke:#181818;stroke-width:1.0;"/><line style="stroke:#181818;stroke-width:1.0;stroke-dasharray:2.0,2.0;" x1="2068" x2="2867" y1="1136.7988" y2="1136.7988"/><text fill="#000000" font-family="sans-serif" font-size="13" font-weight="bold" lengthAdjust="spacing" textLength="18" x="2080" y="1132.0566">32</text><text fill="#000000" font-family="sans-serif" font-size="13" lengthAdjust="spacing" textLength="25" x="2102" y="1132.0566">true</text><polygon fill="#181818" points="1515,1162.1094,1505,1166.1094,1515,1170.1094,1511,1166.1094" style="stroke:#181818;stroke-width:1.0;"/><line style="stroke:#181818;stroke-width:1.0;stroke-dasharray:2.0,2.0;" x1="1509" x2="2052" y1="1166.1094" y2="1166.1094"/><text fill="#000000" font-family="sans-serif" font-size="13" font-weight="bold" lengthAdjust="spacing" textLength="18" x="1521" y="1161.3672">33</text><text fill="#000000" font-family="sans-serif" font-size="13" lengthAdjust="spacing" textLength="30" x="1543" y="1161.3672">false</text><polygon fill="#181818" points="2041,1191.4199,2051,1195.4199,2041,1199.4199,2045,1195.4199" style="stroke:#181818;stroke-width:1.0;"/><line style="stroke:#181818;stroke-width:1.0;" x1="1504" x2="2047" y1="1195.4199" y2="1195.4199"/><text fill="#000000" font-family="sans-serif" font-size="13" font-weight="bold" lengthAdjust="spacing" textLength="18" x="1511" y="1190.6777">34</text><text fill="#000000" font-family="sans-serif" font-size="13" lengthAdjust="spacing" textLength="69" x="1533" y="1190.6777">save(room)</text><rect fill="#E2E2F0" height="30.4883" rx="2.5" ry="2.5" style="stroke:#181818;stroke-width:0.5;" width="241" x="2425.5" y="1203.4199"/><text fill="#000000" font-family="sans-serif" font-size="14" lengthAdjust="spacing" textLength="227" x="2432.5" y="1223.9551">roomDataModel:RoomDataModel</text><polygon fill="#181818" points="2413.5,1220.7305,2423.5,1224.7305,2413.5,1228.7305,2417.5,1224.7305" style="stroke:#181818;stroke-width:1.0;"/><line style="stroke:#181818;stroke-width:1.0;stroke-dasharray:2.0,2.0;" x1="2063" x2="2419.5" y1="1224.7305" y2="1224.7305"/><text fill="#000000" font-family="sans-serif" font-size="13" font-weight="bold" lengthAdjust="spacing" textLength="18" x="2070" y="1219.9883">35</text><text fill="#000000" font-family="sans-serif" font-size="13" lengthAdjust="spacing" textLength="52" x="2092" y="1219.9883">&#171;create&#187;</text><polygon fill="#181818" points="2856,1252.2188,2866,1256.2188,2856,1260.2188,2860,1256.2188" style="stroke:#181818;stroke-width:1.0;"/><line style="stroke:#181818;stroke-width:1.0;" x1="2063" x2="2862" y1="1256.2188" y2="1256.2188"/><text fill="#000000" font-family="sans-serif" font-size="13" font-weight="bold" lengthAdjust="spacing" textLength="18" x="2070" y="1251.4766">36</text><text fill="#000000" font-family="sans-serif" font-size="13" lengthAdjust="spacing" textLength="136" x="2092" y="1251.4766">save(roomDataModel)</text><ellipse cx="3024.5" cy="1284.7793" fill="none" rx="4" ry="4" style="stroke:#181818;stroke-width:1.5;"/><polygon fill="#181818" points="3007.5,1281.5293,3017.5,1285.5293,3007.5,1289.5293,3011.5,1285.5293" style="stroke:#181818;stroke-width:1.0;"/><line style="stroke:#181818;stroke-width:1.0;" x1="2878" x2="3013.5" y1="1285.5293" y2="1285.5293"/><text fill="#000000" font-family="sans-serif" font-size="13" font-weight="bold" lengthAdjust="spacing" textLength="18" x="2885" y="1280.7871">37</text><text fill="#000000" font-family="sans-serif" font-size="13" lengthAdjust="spacing" textLength="112" x="2907" y="1280.7871">DATABASE QUERY</text><polygon fill="#181818" points="2889,1310.8398,2879,1314.8398,2889,1318.8398,2885,1314.8398" style="stroke:#181818;stroke-width:1.0;"/><ellipse cx="3024.5" cy="1314.0898" fill="none" rx="4" ry="4" style="stroke:#181818;stroke-width:1.5;"/><line style="stroke:#181818;stroke-width:1.0;stroke-dasharray:2.0,2.0;" x1="2883" x2="3020" y1="1314.8398" y2="1314.8398"/><text fill="#000000" font-family="sans-serif" font-size="13" font-weight="bold" lengthAdjust="spacing" textLength="18" x="2895" y="1310.0977">38</text><text fill="#000000" font-family="sans-serif" font-size="13" lengthAdjust="spacing" textLength="109" x="2917" y="1310.0977">QUERY RESPONSE</text><polygon fill="#181818" points="2074,1340.1504,2064,1344.1504,2074,1348.1504,2070,1344.1504" style="stroke:#181818;stroke-width:1.0;"/><line style="stroke:#181818;stroke-width:1.0;stroke-dasharray:2.0,2.0;" x1="2068" x2="2867" y1="1344.1504" y2="1344.1504"/><text fill="#000000" font-family="sans-serif" font-size="13" font-weight="bold" lengthAdjust="spacing" textLength="18" x="2080" y="1339.4082">39</text><text fill="#000000" font-family="sans-serif" font-size="13" lengthAdjust="spacing" textLength="100" x="2102" y="1339.4082">roomDataModel</text><polygon fill="#181818" points="2725.5,1369.4609,2735.5,1373.4609,2725.5,1377.4609,2729.5,1373.4609" style="stroke:#181818;stroke-width:1.0;"/><line style="stroke:#181818;stroke-width:1.0;" x1="2063" x2="2731.5" y1="1373.4609" y2="1373.4609"/><text fill="#000000" font-family="sans-serif" font-size="13" font-weight="bold" lengthAdjust="spacing" textLength="18" x="2070" y="1368.7188">40</text><text fill="#000000" font-family="sans-serif" font-size="13" lengthAdjust="spacing" textLength="258" x="2092" y="1368.7188">toDomain(factoryRoom, roomDataModel)</text><polygon fill="#181818" points="2074,1398.7715,2064,1402.7715,2074,1406.7715,2070,1402.7715" style="stroke:#181818;stroke-width:1.0;"/><line style="stroke:#181818;stroke-width:1.0;stroke-dasharray:2.0,2.0;" x1="2068" x2="2736.5" y1="1402.7715" y2="1402.7715"/><text fill="#000000" font-family="sans-serif" font-size="13" font-weight="bold" lengthAdjust="spacing" textLength="18" x="2080" y="1398.0293">41</text><text fill="#000000" font-family="sans-serif" font-size="13" lengthAdjust="spacing" textLength="33" x="2102" y="1398.0293">room</text><polygon fill="#181818" points="1515,1428.082,1505,1432.082,1515,1436.082,1511,1432.082" style="stroke:#181818;stroke-width:1.0;"/><line style="stroke:#181818;stroke-width:1.0;stroke-dasharray:2.0,2.0;" x1="1509" x2="2052" y1="1432.082" y2="1432.082"/><text fill="#000000" font-family="sans-serif" font-size="13" font-weight="bold" lengthAdjust="spacing" textLength="18" x="1521" y="1427.3398">42</text><text fill="#000000" font-family="sans-serif" font-size="13" lengthAdjust="spacing" textLength="73" x="1543" y="1427.3398">room saved</text><polygon fill="#181818" points="2164,1457.3926,2174,1461.3926,2164,1465.3926,2168,1461.3926" style="stroke:#181818;stroke-width:1.0;"/><line style="stroke:#181818;stroke-width:1.0;stroke-dasharray:2.0,2.0;" x1="1504" x2="2170" y1="1461.3926" y2="1461.3926"/><text fill="#000000" font-family="sans-serif" font-size="13" font-weight="bold" lengthAdjust="spacing" textLength="18" x="1511" y="1456.6504">43</text><text fill="#000000" font-family="sans-serif" font-size="13" lengthAdjust="spacing" textLength="56" x="1533" y="1456.6504">identity()</text><polygon fill="#181818" points="1515,1486.7031,1505,1490.7031,1515,1494.7031,1511,1490.7031" style="stroke:#181818;stroke-width:1.0;"/><line style="stroke:#181818;stroke-width:1.0;stroke-dasharray:2.0,2.0;" x1="1509" x2="2175" y1="1490.7031" y2="1490.7031"/><text fill="#000000" font-family="sans-serif" font-size="13" font-weight="bold" lengthAdjust="spacing" textLength="18" x="1521" y="1485.9609">44</text><text fill="#000000" font-family="sans-serif" font-size="13" lengthAdjust="spacing" textLength="47" x="1543" y="1485.9609">roomID</text><polygon fill="#181818" points="478,1516.0137,468,1520.0137,478,1524.0137,474,1520.0137" style="stroke:#181818;stroke-width:1.0;"/><line style="stroke:#181818;stroke-width:1.0;stroke-dasharray:2.0,2.0;" x1="472" x2="1493" y1="1520.0137" y2="1520.0137"/><text fill="#000000" font-family="sans-serif" font-size="13" font-weight="bold" lengthAdjust="spacing" textLength="18" x="484" y="1515.2715">45</text><text fill="#000000" font-family="sans-serif" font-size="13" lengthAdjust="spacing" textLength="47" x="506" y="1515.2715">roomID</text><rect fill="#E2E2F0" height="30.4883" rx="2.5" ry="2.5" style="stroke:#181818;stroke-width:0.5;" width="177" x="2238.5" y="1528.0137"/><text fill="#000000" font-family="sans-serif" font-size="14" lengthAdjust="spacing" textLength="163" x="2245.5" y="1548.5488">newRomDTO:RoomDTO</text><polygon fill="#181818" points="2226.5,1545.3242,2236.5,1549.3242,2226.5,1553.3242,2230.5,1549.3242" style="stroke:#181818;stroke-width:1.0;"/><line style="stroke:#181818;stroke-width:1.0;stroke-dasharray:2.0,2.0;" x1="467" x2="2232.5" y1="1549.3242" y2="1549.3242"/><text fill="#000000" font-family="sans-serif" font-size="13" font-weight="bold" lengthAdjust="spacing" textLength="18" x="474" y="1544.582">46</text><text fill="#000000" font-family="sans-serif" font-size="13" lengthAdjust="spacing" textLength="52" x="496" y="1544.582">&#171;create&#187;</text><polygon fill="#181818" points="196,1576.8125,186,1580.8125,196,1584.8125,192,1580.8125" style="stroke:#181818;stroke-width:1.0;"/><line style="stroke:#181818;stroke-width:1.0;stroke-dasharray:2.0,2.0;" x1="190" x2="456" y1="1580.8125" y2="1580.8125"/><text fill="#000000" font-family="sans-serif" font-size="13" font-weight="bold" lengthAdjust="spacing" textLength="18" x="202" y="1576.0703">47</text><text fill="#000000" font-family="sans-serif" font-size="13" lengthAdjust="spacing" textLength="226" x="224" y="1576.0703">newRoomDTO, HttpStatus.CREATED</text><ellipse cx="10.5" cy="1624.6836" fill="none" rx="4" ry="4" style="stroke:#181818;stroke-width:1.5;"/><polygon fill="#181818" points="27.5,1621.4336,17.5,1625.4336,27.5,1629.4336,23.5,1625.4336" style="stroke:#181818;stroke-width:1.0;"/><line style="stroke:#181818;stroke-width:1.0;stroke-dasharray:2.0,2.0;" x1="25.5" x2="174" y1="1625.4336" y2="1625.4336"/><text fill="#000000" font-family="sans-serif" font-size="13" font-weight="bold" lengthAdjust="spacing" textLength="18" x="28" y="1613.0361">48</text><text fill="#000000" font-family="sans-serif" font-size="13" lengthAdjust="spacing" textLength="96" x="50" y="1605.3809">JSON response,</text><text fill="#000000" font-family="sans-serif" font-size="13" lengthAdjust="spacing" textLength="129" x="50" y="1620.6914">HttpStatus.CREATED</text><!--SRC=[lLV1SjCm4BtxAqGva6QIbk7ewMH8wa1XQ0jnEns6Sb3YRQh1bema5yBN8ycs8Yjsd7BWP5lQztRrLhkINprAcOlmz3HFCPL5bfwiM7Ogu6S1T0NZXE0rnraWYKm1tPw_VeF6Q9eaYC8ln1dBa6JeaHK2WY30XMIqo9R0WnSvn-iC8mdi3vAyKDDBzXiTeREpk5Z66o4XcqpkAL83vunAJ2ZmSW2XS8PNFu0colnbXFcFznms5dxEifnHeD9Qny2VW2lRJsJzA8rnZhaaAvAh9Q6ZSC4AgGsmGELhasR7ccKw9CxI5FWTB2kWDxgFGmiJtLmRAlKq1DLOqz0ezo4ABygdCQp6TXcLtS8yB5-RrRkKCMuCpPkrDLyjOP8Cg22CYZ9Q-xaDsWwr2AMr9okm4bNVUmKsYrr0pWIHZ6yCrXlRYt-7Lzf6kpDOvxitiPxRvb1VIaFhKhyqvrKzB3gJ_gP5Topn9KiWBUthByjkHxn5NE8y1suiBesnEx1t-T4CHPmyLOKGpSeF3wAhJbMQVGRVs7XILKs8Fb_7DmZdv5IlG0HAT_A49LJpGLLS1k1LIuLTSL3sUlQU3jukT9SHSiQI3QfKgnKxTiazhc2t5fNBkkPi_LY2klAg9ngt1nXBJkZQmbkSA5nTi4gsSYrAi_tXw9ShdC61xgrvk_-oweT3z8m87dJbNvLzkIS8edQAQzuTX6adm-4pXVW4T2qV-w98MB5CmGNqCz-Hv5d4fNq_xmNeG-KPn1KWWPtzrotcjiLwYhO7w3JQq2cfAKrY_0I3Se-CjcaQUKv6zJRsggpY3Dn6hjnvlLcvB0ziCQVgMh2PRJv4Wrr23nNu7LuHrpqeHF2R22aKKr8pdKXMLiJWs26j4O5jN-C9-nwYQ7epdKtZEVfoErzytSwUZSTwseoYnJp-V7qLpnrms-hCRSL9d_Mvim8_5JxIbw0fh48x9vURo7_Be4CMk4VYJfYQoWtJ1VgvRnwGhQalW_MsahDgxupjodj9yz_IxY-iC-j- -BwQ3pWL3QIt_3v5HLsoXojOiTWhWceQNXVkqjiwizZ_gtB3zK5oJneN79Kd5h5CxS31mtRNZb3NabniqBWfTKNd1jL0zsu4ypUa1KuEtWqLXJft4p05DV0sGT1TmUgAuhbf9_TEgdPetVdtdL7g6jj_tZkNHNCZDhWHkb0_cR74iX0dvulvz6Q-4q7pXlUDgSrbcJx6rrU8Wr2tL04ZT4_xw3JiBm00]--></g></svg>