<?xml version="1.0" encoding="us-ascii" standalone="no"?><svg xmlns="http://www.w3.org/2000/svg" xmlns:xlink="http://www.w3.org/1999/xlink" contentStyleType="text/css" height="1157px" preserveAspectRatio="none" style="width:2130px;height:1157px;background:#FFFFFF;" version="1.1" viewBox="0 0 2130 1157" width="2130px" zoomAndPan="magnify"><defs/><g><rect fill="#A9A9A9" height="1107.666" style="stroke:#181818;stroke-width:0.5;" width="1877.5" x="149.5" y="43.4883"/><text fill="#000000" font-family="sans-serif" font-size="13" font-weight="bold" lengthAdjust="spacing" textLength="87" x="1046.75" y="56.0566">&#171;SubSystem&#187;</text><text fill="#000000" font-family="sans-serif" font-size="13" font-weight="bold" lengthAdjust="spacing" textLength="60" x="1058.75" y="71.3672">:Backend</text><rect fill="#D3D3D3" height="1072.0449" style="stroke:#181818;stroke-width:0.5;" width="1877.5" x="149.5" y="79.1094"/><text fill="#000000" font-family="sans-serif" font-size="13" font-weight="bold" lengthAdjust="spacing" textLength="80" x="1050.25" y="91.6777">&#171;Container&#187;</text><text fill="#000000" font-family="sans-serif" font-size="13" font-weight="bold" lengthAdjust="spacing" textLength="46" x="1062.25" y="106.9883">:Server</text><text fill="#000000" font-family="sans-serif" font-size="14" font-weight="bold" lengthAdjust="spacing" textLength="207" x="961.75" y="28.5352">UC03.1 List Rooms of House</text><line style="stroke:#181818;stroke-width:0.5;stroke-dasharray:5.0,5.0;" x1="208" x2="208" y1="161.707" y2="1097.1777"/><rect fill="#FFFFFF" height="888.1602" style="stroke:#181818;stroke-width:1.0;" width="10" x="203" y="191.0176"/><line style="stroke:#181818;stroke-width:0.5;stroke-dasharray:5.0,5.0;" x1="490" x2="490" y1="161.707" y2="1097.1777"/><rect fill="#FFFFFF" height="768.2969" style="stroke:#181818;stroke-width:1.0;" width="10" x="485" y="266.2598"/><rect fill="#FFFFFF" height="709.6758" style="stroke:#181818;stroke-width:1.0;" width="10" x="490" y="308.5703"/><line style="stroke:#181818;stroke-width:0.5;stroke-dasharray:5.0,5.0;" x1="781" x2="781" y1="316.5703" y2="1097.1777"/><line style="stroke:#181818;stroke-width:0.5;stroke-dasharray:5.0,5.0;" x1="911" x2="911" y1="161.707" y2="1097.1777"/><rect fill="#FFFFFF" height="545.7676" style="stroke:#181818;stroke-width:1.0;" width="10" x="906" y="369.3691"/><line style="stroke:#181818;stroke-width:0.5;stroke-dasharray:5.0,5.0;" x1="1131" x2="1131" y1="161.707" y2="1097.1777"/><rect fill="#FFFFFF" height="698.498" style="stroke:#181818;stroke-width:1.0;" width="10" x="1126" y="398.6797"/><line style="stroke:#181818;stroke-width:0.5;stroke-dasharray:5.0,5.0;" x1="1273.5" x2="1273.5" y1="161.707" y2="1097.1777"/><rect fill="#FFFFFF" height="146.5527" style="stroke:#181818;stroke-width:1.0;" width="10" x="1268.5" y="545.2324"/><line style="stroke:#181818;stroke-width:0.5;stroke-dasharray:5.0,5.0;" x1="1396.5" x2="1396.5" y1="161.707" y2="1097.1777"/><rect fill="#FFFFFF" height="29.3105" style="stroke:#181818;stroke-width:1.0;" width="10" x="1391.5" y="783.8945"/><line style="stroke:#181818;stroke-width:0.5;stroke-dasharray:5.0,5.0;" x1="1512.5" x2="1512.5" y1="699.7852" y2="1097.1777"/><rect fill="#FFFFFF" height="29.3105" style="stroke:#181818;stroke-width:1.0;" width="10" x="1507.5" y="842.5156"/><line style="stroke:#181818;stroke-width:0.5;stroke-dasharray:5.0,5.0;" x1="1651" x2="1651" y1="161.707" y2="1097.1777"/><rect fill="#FFFFFF" height="60.7988" style="stroke:#181818;stroke-width:1.0;" width="10" x="1646" y="944.4473"/><line style="stroke:#181818;stroke-width:0.5;stroke-dasharray:5.0,5.0;" x1="1826.5" x2="1826.5" y1="952.4473" y2="1097.1777"/><line style="stroke:#181818;stroke-width:0.5;stroke-dasharray:5.0,5.0;" x1="1968.5" x2="1968.5" y1="161.707" y2="1097.1777"/><rect fill="#FFFFFF" height="87.9316" style="stroke:#181818;stroke-width:1.0;" width="10" x="1963.5" y="427.9902"/><rect fill="#FFFFFF" height="87.9316" style="stroke:#181818;stroke-width:1.0;" width="10" x="1963.5" y="574.543"/><rect fill="#E2E2F0" height="46.9766" rx="2.5" ry="2.5" style="stroke:#181818;stroke-width:0.5;" width="109" x="153.5" y="113.7305"/><text fill="#000000" font-family="sans-serif" font-size="14" font-style="italic" lengthAdjust="spacing" textLength="95" x="160.5" y="134.2656">&#171;Component&#187;</text><text fill="#000000" font-family="sans-serif" font-size="14" lengthAdjust="spacing" textLength="50" x="183" y="150.7539">:Router</text><rect fill="#E2E2F0" height="46.9766" rx="2.5" ry="2.5" style="stroke:#181818;stroke-width:0.5;" width="160" x="410" y="113.7305"/><text fill="#000000" font-family="sans-serif" font-size="14" font-style="italic" lengthAdjust="spacing" textLength="95" x="442.5" y="134.2656">&#171;Component&#187;</text><text fill="#000000" font-family="sans-serif" font-size="14" lengthAdjust="spacing" textLength="146" x="417" y="150.7539">:HouseControllerWeb</text><rect fill="#E2E2F0" height="46.9766" rx="2.5" ry="2.5" style="stroke:#181818;stroke-width:0.5;" width="109" x="856.5" y="113.7305"/><text fill="#000000" font-family="sans-serif" font-size="14" font-style="italic" lengthAdjust="spacing" textLength="95" x="863.5" y="134.2656">&#171;Component&#187;</text><text fill="#000000" font-family="sans-serif" font-size="14" lengthAdjust="spacing" textLength="92" x="865" y="150.7539">:RoomService</text><rect fill="#E2E2F0" height="46.9766" rx="2.5" ry="2.5" style="stroke:#181818;stroke-width:0.5;" width="134" x="1064" y="113.7305"/><text fill="#000000" font-family="sans-serif" font-size="14" font-style="italic" lengthAdjust="spacing" textLength="95" x="1083.5" y="134.2656">&#171;Component&#187;</text><text fill="#000000" font-family="sans-serif" font-size="14" lengthAdjust="spacing" textLength="120" x="1071" y="150.7539">:HouseRepository</text><rect fill="#E2E2F0" height="46.9766" rx="2.5" ry="2.5" style="stroke:#181818;stroke-width:0.5;" width="131" x="1208" y="113.7305"/><text fill="#000000" font-family="sans-serif" font-size="14" font-style="italic" lengthAdjust="spacing" textLength="95" x="1226" y="134.2656">&#171;Component&#187;</text><text fill="#000000" font-family="sans-serif" font-size="14" lengthAdjust="spacing" textLength="117" x="1215" y="150.7539">:RoomRepository</text><rect fill="#E2E2F0" height="30.4883" rx="2.5" ry="2.5" style="stroke:#181818;stroke-width:0.5;" width="95" x="1349" y="130.2188"/><text fill="#000000" font-family="sans-serif" font-size="14" lengthAdjust="spacing" textLength="81" x="1356" y="150.7539">room:Room</text><rect fill="#E2E2F0" height="46.9766" rx="2.5" ry="2.5" style="stroke:#181818;stroke-width:0.5;" width="140" x="1581" y="113.7305"/><text fill="#000000" font-family="sans-serif" font-size="14" font-style="italic" lengthAdjust="spacing" textLength="95" x="1603.5" y="134.2656">&#171;Component&#187;</text><text fill="#000000" font-family="sans-serif" font-size="14" lengthAdjust="spacing" textLength="126" x="1588" y="150.7539">:RoomMapperDTO</text><rect fill="#E2E2F0" height="46.9766" rx="2.5" ry="2.5" style="stroke:#181818;stroke-width:0.5;" width="109" x="1914" y="113.7305"/><text fill="#000000" font-family="sans-serif" font-size="14" font-style="italic" lengthAdjust="spacing" textLength="95" x="1921" y="134.2656">&#171;Component&#187;</text><text fill="#000000" font-family="sans-serif" font-size="14" lengthAdjust="spacing" textLength="67" x="1935" y="150.7539">:DB Driver</text><rect fill="#E2E2F0" height="46.9766" rx="2.5" ry="2.5" style="stroke:#181818;stroke-width:0.5;" width="109" x="153.5" y="1097.1777"/><text fill="#000000" font-family="sans-serif" font-size="14" font-style="italic" lengthAdjust="spacing" textLength="95" x="160.5" y="1117.7129">&#171;Component&#187;</text><text fill="#000000" font-family="sans-serif" font-size="14" lengthAdjust="spacing" textLength="50" x="183" y="1134.2012">:Router</text><rect fill="#E2E2F0" height="46.9766" rx="2.5" ry="2.5" style="stroke:#181818;stroke-width:0.5;" width="160" x="410" y="1097.1777"/><text fill="#000000" font-family="sans-serif" font-size="14" font-style="italic" lengthAdjust="spacing" textLength="95" x="442.5" y="1117.7129">&#171;Component&#187;</text><text fill="#000000" font-family="sans-serif" font-size="14" lengthAdjust="spacing" textLength="146" x="417" y="1134.2012">:HouseControllerWeb</text><rect fill="#E2E2F0" height="30.4883" rx="2.5" ry="2.5" style="stroke:#181818;stroke-width:0.5;" width="131" x="715.5" y="1097.1777"/><text fill="#000000" font-family="sans-serif" font-size="14" lengthAdjust="spacing" textLength="117" x="722.5" y="1117.7129">houseID:HouseID</text><rect fill="#E2E2F0" height="46.9766" rx="2.5" ry="2.5" style="stroke:#181818;stroke-width:0.5;" width="109" x="856.5" y="1097.1777"/><text fill="#000000" font-family="sans-serif" font-size="14" font-style="italic" lengthAdjust="spacing" textLength="95" x="863.5" y="1117.7129">&#171;Component&#187;</text><text fill="#000000" font-family="sans-serif" font-size="14" lengthAdjust="spacing" textLength="92" x="865" y="1134.2012">:RoomService</text><rect fill="#E2E2F0" height="46.9766" rx="2.5" ry="2.5" style="stroke:#181818;stroke-width:0.5;" width="134" x="1064" y="1097.1777"/><text fill="#000000" font-family="sans-serif" font-size="14" font-style="italic" lengthAdjust="spacing" textLength="95" x="1083.5" y="1117.7129">&#171;Component&#187;</text><text fill="#000000" font-family="sans-serif" font-size="14" lengthAdjust="spacing" textLength="120" x="1071" y="1134.2012">:HouseRepository</text><rect fill="#E2E2F0" height="46.9766" rx="2.5" ry="2.5" style="stroke:#181818;stroke-width:0.5;" width="131" x="1208" y="1097.1777"/><text fill="#000000" font-family="sans-serif" font-size="14" font-style="italic" lengthAdjust="spacing" textLength="95" x="1226" y="1117.7129">&#171;Component&#187;</text><text fill="#000000" font-family="sans-serif" font-size="14" lengthAdjust="spacing" textLength="117" x="1215" y="1134.2012">:RoomRepository</text><rect fill="#E2E2F0" height="30.4883" rx="2.5" ry="2.5" style="stroke:#181818;stroke-width:0.5;" width="95" x="1349" y="1097.1777"/><text fill="#000000" font-family="sans-serif" font-size="14" lengthAdjust="spacing" textLength="81" x="1356" y="1117.7129">room:Room</text><rect fill="#E2E2F0" height="30.4883" rx="2.5" ry="2.5" style="stroke:#181818;stroke-width:0.5;" width="117" x="1454" y="1097.1777"/><text fill="#000000" font-family="sans-serif" font-size="14" lengthAdjust="spacing" textLength="103" x="1461" y="1117.7129">:List&lt;RoomID&gt;</text><rect fill="#E2E2F0" height="46.9766" rx="2.5" ry="2.5" style="stroke:#181818;stroke-width:0.5;" width="140" x="1581" y="1097.1777"/><text fill="#000000" font-family="sans-serif" font-size="14" font-style="italic" lengthAdjust="spacing" textLength="95" x="1603.5" y="1117.7129">&#171;Component&#187;</text><text fill="#000000" font-family="sans-serif" font-size="14" lengthAdjust="spacing" textLength="126" x="1588" y="1134.2012">:RoomMapperDTO</text><rect fill="#E2E2F0" height="30.4883" rx="2.5" ry="2.5" style="stroke:#181818;stroke-width:0.5;" width="155" x="1749" y="1097.1777"/><text fill="#000000" font-family="sans-serif" font-size="14" lengthAdjust="spacing" textLength="141" x="1756" y="1117.7129">roomDTO:RoomDTO</text><rect fill="#E2E2F0" height="46.9766" rx="2.5" ry="2.5" style="stroke:#181818;stroke-width:0.5;" width="109" x="1914" y="1097.1777"/><text fill="#000000" font-family="sans-serif" font-size="14" font-style="italic" lengthAdjust="spacing" textLength="95" x="1921" y="1117.7129">&#171;Component&#187;</text><text fill="#000000" font-family="sans-serif" font-size="14" lengthAdjust="spacing" textLength="67" x="1935" y="1134.2012">:DB Driver</text><ellipse cx="10.5" cy="190.2676" fill="none" rx="4" ry="4" style="stroke:#181818;stroke-width:1.5;"/><polygon fill="#181818" points="27.5,187.0176,17.5,191.0176,27.5,195.0176,23.5,191.0176" style="stroke:#181818;stroke-width:1.0;"/><line style="stroke:#181818;stroke-width:1.0;" x1="25.5" x2="202" y1="191.0176" y2="191.0176"/><text fill="#000000" font-family="sans-serif" font-size="13" font-weight="bold" lengthAdjust="spacing" textLength="9" x="28" y="186.2754">1</text><text fill="#000000" font-family="sans-serif" font-size="13" lengthAdjust="spacing" textLength="166" x="41" y="186.2754">GET api/house/{id}/rooms</text><polygon fill="#181818" points="473,262.2598,483,266.2598,473,270.2598,477,266.2598" style="stroke:#181818;stroke-width:1.0;"/><line style="stroke:#181818;stroke-width:1.0;" x1="213" x2="479" y1="266.2598" y2="266.2598"/><text fill="#000000" font-family="sans-serif" font-size="13" font-weight="bold" lengthAdjust="spacing" textLength="9" x="220" y="238.5518">2</text><text fill="#000000" font-family="sans-serif" font-size="13" lengthAdjust="spacing" textLength="209" x="233" y="215.5859">GET getListOfRoomsDTOInHouse</text><text fill="#000000" font-family="sans-serif" font-size="13" lengthAdjust="spacing" textLength="240" x="233" y="230.8965">(@PathVariable("id") String houseIDstr,</text><text fill="#000000" font-family="sans-serif" font-size="13" lengthAdjust="spacing" textLength="207" x="233" y="246.207">@RequestParam(required = false)</text><text fill="#000000" font-family="sans-serif" font-size="13" lengthAdjust="spacing" textLength="157" x="233" y="261.5176">Boolean areRoomsInside)</text><line style="stroke:#181818;stroke-width:1.0;" x1="495" x2="542" y1="295.5703" y2="295.5703"/><line style="stroke:#181818;stroke-width:1.0;" x1="542" x2="542" y1="295.5703" y2="308.5703"/><line style="stroke:#181818;stroke-width:1.0;" x1="501" x2="542" y1="308.5703" y2="308.5703"/><polygon fill="#181818" points="511,304.5703,501,308.5703,511,312.5703,507,308.5703" style="stroke:#181818;stroke-width:1.0;"/><text fill="#000000" font-family="sans-serif" font-size="13" font-weight="bold" lengthAdjust="spacing" textLength="9" x="507" y="290.8281">3</text><text fill="#000000" font-family="sans-serif" font-size="13" lengthAdjust="spacing" textLength="254" x="520" y="290.8281">getListOfRoomsInHouse(String houseID)</text><rect fill="#E2E2F0" height="30.4883" rx="2.5" ry="2.5" style="stroke:#181818;stroke-width:0.5;" width="131" x="715.5" y="316.5703"/><text fill="#000000" font-family="sans-serif" font-size="14" lengthAdjust="spacing" textLength="117" x="722.5" y="337.1055">houseID:HouseID</text><polygon fill="#181818" points="703.5,333.8809,713.5,337.8809,703.5,341.8809,707.5,337.8809" style="stroke:#181818;stroke-width:1.0;"/><line style="stroke:#181818;stroke-width:1.0;" x1="500" x2="709.5" y1="337.8809" y2="337.8809"/><text fill="#000000" font-family="sans-serif" font-size="13" font-weight="bold" lengthAdjust="spacing" textLength="9" x="507" y="333.1387">4</text><text fill="#000000" font-family="sans-serif" font-size="13" lengthAdjust="spacing" textLength="52" x="520" y="333.1387">&#171;create&#187;</text><polygon fill="#181818" points="894,365.3691,904,369.3691,894,373.3691,898,369.3691" style="stroke:#181818;stroke-width:1.0;"/><line style="stroke:#181818;stroke-width:1.0;" x1="500" x2="900" y1="369.3691" y2="369.3691"/><text fill="#000000" font-family="sans-serif" font-size="13" font-weight="bold" lengthAdjust="spacing" textLength="9" x="507" y="364.627">5</text><text fill="#000000" font-family="sans-serif" font-size="13" lengthAdjust="spacing" textLength="275" x="520" y="364.627">getListOfRoomsInHouse(houseID: HouseID)</text><polygon fill="#181818" points="1114,394.6797,1124,398.6797,1114,402.6797,1118,398.6797" style="stroke:#181818;stroke-width:1.0;"/><line style="stroke:#181818;stroke-width:1.0;" x1="916" x2="1120" y1="398.6797" y2="398.6797"/><text fill="#000000" font-family="sans-serif" font-size="13" font-weight="bold" lengthAdjust="spacing" textLength="9" x="923" y="393.9375">6</text><text fill="#000000" font-family="sans-serif" font-size="13" lengthAdjust="spacing" textLength="178" x="936" y="393.9375">containsEntityByID(houseID)</text><polygon fill="#181818" points="1951.5,423.9902,1961.5,427.9902,1951.5,431.9902,1955.5,427.9902" style="stroke:#181818;stroke-width:1.0;"/><line style="stroke:#181818;stroke-width:1.0;" x1="1136" x2="1957.5" y1="427.9902" y2="427.9902"/><text fill="#000000" font-family="sans-serif" font-size="13" font-weight="bold" lengthAdjust="spacing" textLength="9" x="1143" y="423.248">7</text><text fill="#000000" font-family="sans-serif" font-size="13" lengthAdjust="spacing" textLength="186" x="1156" y="423.248">existsById(houseID.toString())</text><ellipse cx="2120" cy="456.5508" fill="none" rx="4" ry="4" style="stroke:#181818;stroke-width:1.5;"/><polygon fill="#181818" points="2103,453.3008,2113,457.3008,2103,461.3008,2107,457.3008" style="stroke:#181818;stroke-width:1.0;"/><line style="stroke:#181818;stroke-width:1.0;" x1="1973.5" x2="2109" y1="457.3008" y2="457.3008"/><text fill="#000000" font-family="sans-serif" font-size="13" font-weight="bold" lengthAdjust="spacing" textLength="9" x="1980.5" y="452.5586">8</text><text fill="#000000" font-family="sans-serif" font-size="13" lengthAdjust="spacing" textLength="112" x="1993.5" y="452.5586">DATABASE QUERY</text><polygon fill="#181818" points="1984.5,482.6113,1974.5,486.6113,1984.5,490.6113,1980.5,486.6113" style="stroke:#181818;stroke-width:1.0;"/><ellipse cx="2120" cy="485.8613" fill="none" rx="4" ry="4" style="stroke:#181818;stroke-width:1.5;"/><line style="stroke:#181818;stroke-width:1.0;stroke-dasharray:2.0,2.0;" x1="1978.5" x2="2115.5" y1="486.6113" y2="486.6113"/><text fill="#000000" font-family="sans-serif" font-size="13" font-weight="bold" lengthAdjust="spacing" textLength="9" x="1990.5" y="481.8691">9</text><text fill="#000000" font-family="sans-serif" font-size="13" lengthAdjust="spacing" textLength="109" x="2003.5" y="481.8691">QUERY RESPONSE</text><polygon fill="#181818" points="1147,511.9219,1137,515.9219,1147,519.9219,1143,515.9219" style="stroke:#181818;stroke-width:1.0;"/><line style="stroke:#181818;stroke-width:1.0;stroke-dasharray:2.0,2.0;" x1="1141" x2="1962.5" y1="515.9219" y2="515.9219"/><text fill="#000000" font-family="sans-serif" font-size="13" font-weight="bold" lengthAdjust="spacing" textLength="18" x="1153" y="511.1797">10</text><text fill="#000000" font-family="sans-serif" font-size="13" lengthAdjust="spacing" textLength="25" x="1175" y="511.1797">true</text><polygon fill="#181818" points="1256.5,541.2324,1266.5,545.2324,1256.5,549.2324,1260.5,545.2324" style="stroke:#181818;stroke-width:1.0;"/><line style="stroke:#181818;stroke-width:1.0;" x1="916" x2="1262.5" y1="545.2324" y2="545.2324"/><text fill="#000000" font-family="sans-serif" font-size="13" font-weight="bold" lengthAdjust="spacing" textLength="18" x="923" y="540.4902">11</text><text fill="#000000" font-family="sans-serif" font-size="13" lengthAdjust="spacing" textLength="153" x="945" y="540.4902">findByHouseID(houseID)</text><polygon fill="#181818" points="1951.5,570.543,1961.5,574.543,1951.5,578.543,1955.5,574.543" style="stroke:#181818;stroke-width:1.0;"/><line style="stroke:#181818;stroke-width:1.0;" x1="1278.5" x2="1957.5" y1="574.543" y2="574.543"/><text fill="#000000" font-family="sans-serif" font-size="13" font-weight="bold" lengthAdjust="spacing" textLength="18" x="1285.5" y="569.8008">12</text><text fill="#000000" font-family="sans-serif" font-size="13" lengthAdjust="spacing" textLength="215" x="1307.5" y="569.8008">findByHouseID(houseID.toString())</text><ellipse cx="2120" cy="603.1035" fill="none" rx="4" ry="4" style="stroke:#181818;stroke-width:1.5;"/><polygon fill="#181818" points="2103,599.8535,2113,603.8535,2103,607.8535,2107,603.8535" style="stroke:#181818;stroke-width:1.0;"/><line style="stroke:#181818;stroke-width:1.0;" x1="1973.5" x2="2109" y1="603.8535" y2="603.8535"/><text fill="#000000" font-family="sans-serif" font-size="13" font-weight="bold" lengthAdjust="spacing" textLength="18" x="1980.5" y="599.1113">13</text><text fill="#000000" font-family="sans-serif" font-size="13" lengthAdjust="spacing" textLength="112" x="2002.5" y="599.1113">DATABASE QUERY</text><polygon fill="#181818" points="1984.5,629.1641,1974.5,633.1641,1984.5,637.1641,1980.5,633.1641" style="stroke:#181818;stroke-width:1.0;"/><ellipse cx="2120" cy="632.4141" fill="none" rx="4" ry="4" style="stroke:#181818;stroke-width:1.5;"/><line style="stroke:#181818;stroke-width:1.0;stroke-dasharray:2.0,2.0;" x1="1978.5" x2="2115.5" y1="633.1641" y2="633.1641"/><text fill="#000000" font-family="sans-serif" font-size="13" font-weight="bold" lengthAdjust="spacing" textLength="18" x="1990.5" y="628.4219">14</text><text fill="#000000" font-family="sans-serif" font-size="13" lengthAdjust="spacing" textLength="109" x="2012.5" y="628.4219">QUERY RESPONSE</text><polygon fill="#181818" points="1289.5,658.4746,1279.5,662.4746,1289.5,666.4746,1285.5,662.4746" style="stroke:#181818;stroke-width:1.0;"/><line style="stroke:#181818;stroke-width:1.0;stroke-dasharray:2.0,2.0;" x1="1283.5" x2="1962.5" y1="662.4746" y2="662.4746"/><text fill="#000000" font-family="sans-serif" font-size="13" font-weight="bold" lengthAdjust="spacing" textLength="18" x="1295.5" y="657.7324">15</text><text fill="#000000" font-family="sans-serif" font-size="13" lengthAdjust="spacing" textLength="161" x="1317.5" y="657.7324">RoomDataModel:roomDM</text><polygon fill="#181818" points="927,687.7852,917,691.7852,927,695.7852,923,691.7852" style="stroke:#181818;stroke-width:1.0;"/><line style="stroke:#181818;stroke-width:1.0;stroke-dasharray:2.0,2.0;" x1="921" x2="1267.5" y1="691.7852" y2="691.7852"/><text fill="#000000" font-family="sans-serif" font-size="13" font-weight="bold" lengthAdjust="spacing" textLength="18" x="933" y="687.043">16</text><text fill="#000000" font-family="sans-serif" font-size="13" lengthAdjust="spacing" textLength="103" x="955" y="687.043">Iterable&lt;Room&gt;</text><rect fill="#E2E2F0" height="30.4883" rx="2.5" ry="2.5" style="stroke:#181818;stroke-width:0.5;" width="117" x="1454" y="699.7852"/><text fill="#000000" font-family="sans-serif" font-size="14" lengthAdjust="spacing" textLength="103" x="1461" y="720.3203">:List&lt;RoomID&gt;</text><polygon fill="#181818" points="1442,717.0957,1452,721.0957,1442,725.0957,1446,721.0957" style="stroke:#181818;stroke-width:1.0;"/><line style="stroke:#181818;stroke-width:1.0;stroke-dasharray:2.0,2.0;" x1="916" x2="1448" y1="721.0957" y2="721.0957"/><text fill="#000000" font-family="sans-serif" font-size="13" font-weight="bold" lengthAdjust="spacing" textLength="18" x="923" y="716.3535">17</text><text fill="#000000" font-family="sans-serif" font-size="13" lengthAdjust="spacing" textLength="52" x="945" y="716.3535">&#171;create&#187;</text><path d="M895,735.2734 L969,735.2734 L969,742.584 L959,752.584 L895,752.584 L895,735.2734 " fill="#EEEEEE" style="stroke:#000000;stroke-width:1.5;"/><rect fill="none" height="144.5527" style="stroke:#000000;stroke-width:1.5;" width="692" x="895" y="735.2734"/><text fill="#000000" font-family="sans-serif" font-size="13" font-weight="bold" lengthAdjust="spacing" textLength="29" x="910" y="748.8418">loop</text><text fill="#000000" font-family="sans-serif" font-size="11" font-weight="bold" lengthAdjust="spacing" textLength="130" x="984" y="747.9082">[for each Room in List]</text><polygon fill="#181818" points="1379.5,779.8945,1389.5,783.8945,1379.5,787.8945,1383.5,783.8945" style="stroke:#181818;stroke-width:1.0;"/><line style="stroke:#181818;stroke-width:1.0;" x1="916" x2="1385.5" y1="783.8945" y2="783.8945"/><text fill="#000000" font-family="sans-serif" font-size="13" font-weight="bold" lengthAdjust="spacing" textLength="18" x="923" y="779.1523">18</text><text fill="#000000" font-family="sans-serif" font-size="13" lengthAdjust="spacing" textLength="56" x="945" y="779.1523">identity()</text><polygon fill="#181818" points="927,809.2051,917,813.2051,927,817.2051,923,813.2051" style="stroke:#181818;stroke-width:1.0;"/><line style="stroke:#181818;stroke-width:1.0;stroke-dasharray:2.0,2.0;" x1="921" x2="1390.5" y1="813.2051" y2="813.2051"/><text fill="#000000" font-family="sans-serif" font-size="13" font-weight="bold" lengthAdjust="spacing" textLength="18" x="933" y="808.4629">19</text><text fill="#000000" font-family="sans-serif" font-size="13" lengthAdjust="spacing" textLength="47" x="955" y="808.4629">roomID</text><polygon fill="#181818" points="1495.5,838.5156,1505.5,842.5156,1495.5,846.5156,1499.5,842.5156" style="stroke:#181818;stroke-width:1.0;"/><line style="stroke:#181818;stroke-width:1.0;" x1="916" x2="1501.5" y1="842.5156" y2="842.5156"/><text fill="#000000" font-family="sans-serif" font-size="13" font-weight="bold" lengthAdjust="spacing" textLength="18" x="923" y="837.7734">20</text><text fill="#000000" font-family="sans-serif" font-size="13" lengthAdjust="spacing" textLength="78" x="945" y="837.7734">add(roomID)</text><polygon fill="#181818" points="927,867.8262,917,871.8262,927,875.8262,923,871.8262" style="stroke:#181818;stroke-width:1.0;"/><line style="stroke:#181818;stroke-width:1.0;stroke-dasharray:2.0,2.0;" x1="921" x2="1506.5" y1="871.8262" y2="871.8262"/><text fill="#000000" font-family="sans-serif" font-size="13" font-weight="bold" lengthAdjust="spacing" textLength="18" x="933" y="867.084">21</text><text fill="#000000" font-family="sans-serif" font-size="13" lengthAdjust="spacing" textLength="93" x="955" y="867.084">List&lt;RoomID&gt;</text><polygon fill="#181818" points="511,911.1367,501,915.1367,511,919.1367,507,915.1367" style="stroke:#181818;stroke-width:1.0;"/><line style="stroke:#181818;stroke-width:1.0;stroke-dasharray:2.0,2.0;" x1="505" x2="905" y1="915.1367" y2="915.1367"/><text fill="#000000" font-family="sans-serif" font-size="13" font-weight="bold" lengthAdjust="spacing" textLength="18" x="517" y="910.3945">22</text><text fill="#000000" font-family="sans-serif" font-size="13" lengthAdjust="spacing" textLength="93" x="539" y="910.3945">List&lt;RoomID&gt;</text><polygon fill="#181818" points="1634,940.4473,1644,944.4473,1634,948.4473,1638,944.4473" style="stroke:#181818;stroke-width:1.0;"/><line style="stroke:#181818;stroke-width:1.0;" x1="500" x2="1640" y1="944.4473" y2="944.4473"/><text fill="#000000" font-family="sans-serif" font-size="13" font-weight="bold" lengthAdjust="spacing" textLength="18" x="507" y="939.7051">23</text><text fill="#000000" font-family="sans-serif" font-size="13" lengthAdjust="spacing" textLength="325" x="529" y="939.7051">roomIDsToDTOList(List&lt;RoomID&gt; listOfRoomsIDs)</text><rect fill="#E2E2F0" height="30.4883" rx="2.5" ry="2.5" style="stroke:#181818;stroke-width:0.5;" width="155" x="1749" y="952.4473"/><text fill="#000000" font-family="sans-serif" font-size="14" lengthAdjust="spacing" textLength="141" x="1756" y="972.9824">roomDTO:RoomDTO</text><polygon fill="#181818" points="1737,969.7578,1747,973.7578,1737,977.7578,1741,973.7578" style="stroke:#181818;stroke-width:1.0;"/><line style="stroke:#181818;stroke-width:1.0;stroke-dasharray:2.0,2.0;" x1="1656" x2="1743" y1="973.7578" y2="973.7578"/><text fill="#000000" font-family="sans-serif" font-size="13" font-weight="bold" lengthAdjust="spacing" textLength="18" x="1663" y="969.0156">24</text><text fill="#000000" font-family="sans-serif" font-size="13" lengthAdjust="spacing" textLength="52" x="1685" y="969.0156">&#171;create&#187;</text><polygon fill="#181818" points="511,1001.2461,501,1005.2461,511,1009.2461,507,1005.2461" style="stroke:#181818;stroke-width:1.0;"/><line style="stroke:#181818;stroke-width:1.0;stroke-dasharray:2.0,2.0;" x1="505" x2="1645" y1="1005.2461" y2="1005.2461"/><text fill="#000000" font-family="sans-serif" font-size="13" font-weight="bold" lengthAdjust="spacing" textLength="18" x="517" y="1000.5039">25</text><text fill="#000000" font-family="sans-serif" font-size="13" lengthAdjust="spacing" textLength="107" x="539" y="1000.5039">List&lt;RoomDTO&gt;</text><polygon fill="#181818" points="224,1030.5566,214,1034.5566,224,1038.5566,220,1034.5566" style="stroke:#181818;stroke-width:1.0;"/><line style="stroke:#181818;stroke-width:1.0;stroke-dasharray:2.0,2.0;" x1="218" x2="484" y1="1034.5566" y2="1034.5566"/><text fill="#000000" font-family="sans-serif" font-size="13" font-weight="bold" lengthAdjust="spacing" textLength="18" x="230" y="1029.8145">26</text><text fill="#000000" font-family="sans-serif" font-size="13" lengthAdjust="spacing" textLength="181" x="252" y="1029.8145">roomDTOList, HttpStatus.OK</text><ellipse cx="10.5" cy="1078.4277" fill="none" rx="4" ry="4" style="stroke:#181818;stroke-width:1.5;"/><polygon fill="#181818" points="27.5,1075.1777,17.5,1079.1777,27.5,1083.1777,23.5,1079.1777" style="stroke:#181818;stroke-width:1.0;"/><line style="stroke:#181818;stroke-width:1.0;" x1="25.5" x2="202" y1="1079.1777" y2="1079.1777"/><text fill="#000000" font-family="sans-serif" font-size="13" font-weight="bold" lengthAdjust="spacing" textLength="18" x="28" y="1066.7803">27</text><text fill="#000000" font-family="sans-serif" font-size="13" lengthAdjust="spacing" textLength="96" x="50" y="1059.125">JSON response,</text><text fill="#000000" font-family="sans-serif" font-size="13" lengthAdjust="spacing" textLength="89" x="50" y="1074.4355">HttpStatus.OK</text><!--SRC=[lLLDSzem4BthLspfnSc4f9tUF9H9Y9c4jWaf9krqIWy22z34bbn9peHs-jyhoH_80fAUoW6m_DxRfzNkIb6L4hY_VFFkz2ryebB1XFDC0b_2DIyaGGWNYhCYcnE1NkK2hp8CYl1Ve4IXtyASFq47UhsucCSRgKZMxyyOw4yum8i7mXBzzdM4nSEL89ij_98pXIaZee77H3mIeS6Vw6gjB3h7Gj45pJ5Jq0adl506W2MKVwrCbdD6cEhtFRHrRw88dgP4V2LpormqAy-nruOyYagHKMIPrTgEAPuPvtH1AcVDyyls9YJdaYekDfRhhJtBDt4ykgYMdkCPZEKs34_Nb43F04PHts9IlR0dzWtESoAYwTY2CllqKc2DjjoQLQrvwj408a4VgvEE1kM3fstgIfTIyulGTzxhLdKHmjLm2ZYdP_RCpdxJvC-P2IOHNYZwY1MfaAWgf6xVAOoIlYBAv6AyjFsWROwOFPyP2yxli5f_mOBYUKg23aqwHn0hGTcgBXAfnCcCdK_8pu98TOS5pWAX7wWW2Ro79KubEPgn0USfmGom83RAY4cQaAEjowqfv1IkvxRjjB8Pj0tzYsO5FJuETR8NWcYmphG7SkhxKEIwUU1w9xR3HiXj5QtiLNzeZUeH8OTCKRKPR4PHiBiRZuNy7jB2TGc5G9wqMwcLabhfLF4oKS6H8repK5DztJx_4K9qCRqONCH3-7m_d7pRlkrrk-QrNON9CBuRtyP3XxnlTtPy9cGtff-Nkgr3M5AM33PLLlVaeaOYr8o2rlRtylzR1hRxi3C0Atp34vA6TWhSx4_5TXz-wOrqsvhsixEgxxARBBJogFbcald5dNAUmv8BqForZG2KsNjmtp64eDlJLcFWfTqwtNKfx23rtUqSiN4M0awIe2GuudRycgzTSNTKko4iHGz6X7PIuFJoONwhIRtsBmTzlJ4vvNem6ft05RCEwg4GIMSt9HrLrqLT5Lh3EnS7u4ww9eXcj2nNkiwAC-LQMx19B2-9AhGHFO5hfV9OOLN8q_770qAjA-P3FBu5GQI-aYGvWHaxg51TDUWl]--></g></svg>