<?xml version="1.0" encoding="us-ascii" standalone="no"?><svg xmlns="http://www.w3.org/2000/svg" xmlns:xlink="http://www.w3.org/1999/xlink" contentStyleType="text/css" height="1719px" preserveAspectRatio="none" style="width:2049px;height:1719px;background:#FFFFFF;" version="1.1" viewBox="0 0 2049 1719" width="2049px" zoomAndPan="magnify"><defs/><g><rect fill="#A9A9A9" height="1670.2324" style="stroke:#181818;stroke-width:0.5;" width="1798" x="123.5" y="43.4883"/><text fill="#000000" font-family="sans-serif" font-size="13" font-weight="bold" lengthAdjust="spacing" textLength="87" x="981" y="56.0566">&#171;SubSystem&#187;</text><text fill="#000000" font-family="sans-serif" font-size="13" font-weight="bold" lengthAdjust="spacing" textLength="80" x="985" y="71.3672">&#171;Container&#187;</text><text fill="#000000" font-family="sans-serif" font-size="13" font-weight="bold" lengthAdjust="spacing" textLength="60" x="993" y="86.6777">:Backend</text><rect fill="#D3D3D3" height="1619.3008" style="stroke:#181818;stroke-width:0.5;" width="1798" x="123.5" y="94.4199"/><text fill="#000000" font-family="sans-serif" font-size="13" font-weight="bold" lengthAdjust="spacing" textLength="92" x="978.5" y="106.9883">&#171;Component&#187;</text><text fill="#000000" font-family="sans-serif" font-size="13" font-weight="bold" lengthAdjust="spacing" textLength="46" x="990.5" y="122.2988">:Server</text><text fill="#000000" font-family="sans-serif" font-size="14" font-weight="bold" lengthAdjust="spacing" textLength="130" x="960" y="28.5352">UC03.2 Edit Room</text><line style="stroke:#181818;stroke-width:0.5;stroke-dasharray:5.0,5.0;" x1="182" x2="182" y1="177.0176" y2="1659.7441"/><rect fill="#FFFFFF" height="1453.416" style="stroke:#181818;stroke-width:1.0;" width="10" x="177" y="206.3281"/><line style="stroke:#181818;stroke-width:0.5;stroke-dasharray:5.0,5.0;" x1="484" x2="484" y1="177.0176" y2="1659.7441"/><rect fill="#FFFFFF" height="1346.1738" style="stroke:#181818;stroke-width:1.0;" width="10" x="479" y="250.9492"/><line style="stroke:#181818;stroke-width:0.5;stroke-dasharray:5.0,5.0;" x1="667" x2="667" y1="177.0176" y2="1659.7441"/><rect fill="#FFFFFF" height="326.7715" style="stroke:#181818;stroke-width:1.0;" width="10" x="662" y="280.2598"/><rect fill="#FFFFFF" height="263.7949" style="stroke:#181818;stroke-width:1.0;" width="10" x="662" y="1272.5293"/><line style="stroke:#181818;stroke-width:0.5;stroke-dasharray:5.0,5.0;" x1="816" x2="816" y1="317.5703" y2="1659.7441"/><line style="stroke:#181818;stroke-width:0.5;stroke-dasharray:5.0,5.0;" x1="971" x2="971" y1="407.6797" y2="1659.7441"/><line style="stroke:#181818;stroke-width:0.5;stroke-dasharray:5.0,5.0;" x1="1132" x2="1132" y1="615.0313" y2="1659.7441"/><line style="stroke:#181818;stroke-width:0.5;stroke-dasharray:5.0,5.0;" x1="1264" x2="1264" y1="177.0176" y2="1659.7441"/><rect fill="#FFFFFF" height="543.5898" style="stroke:#181818;stroke-width:1.0;" width="10" x="1259" y="699.6289"/><line style="stroke:#181818;stroke-width:0.5;stroke-dasharray:5.0,5.0;" x1="1463" x2="1463" y1="177.0176" y2="1659.7441"/><rect fill="#FFFFFF" height="146.5527" style="stroke:#181818;stroke-width:1.0;" width="10" x="1458" y="728.9395"/><rect fill="#FFFFFF" height="146.5527" style="stroke:#181818;stroke-width:1.0;" width="10" x="1458" y="994.7344"/><line style="stroke:#181818;stroke-width:0.5;stroke-dasharray:5.0,5.0;" x1="1586" x2="1586" y1="177.0176" y2="1659.7441"/><rect fill="#FFFFFF" height="29.3105" style="stroke:#181818;stroke-width:1.0;" width="10" x="1581" y="936.1133"/><rect fill="#FFFFFF" height="29.3105" style="stroke:#181818;stroke-width:1.0;" width="10" x="1581" y="1170.5977"/><line style="stroke:#181818;stroke-width:0.5;stroke-dasharray:5.0,5.0;" x1="1721" x2="1721" y1="1544.3242" y2="1659.7441"/><line style="stroke:#181818;stroke-width:0.5;stroke-dasharray:5.0,5.0;" x1="1863" x2="1863" y1="177.0176" y2="1659.7441"/><rect fill="#FFFFFF" height="87.9316" style="stroke:#181818;stroke-width:1.0;" width="10" x="1858" y="758.25"/><rect fill="#FFFFFF" height="87.9316" style="stroke:#181818;stroke-width:1.0;" width="10" x="1858" y="1024.0449"/><rect fill="#E2E2F0" height="46.9766" rx="2.5" ry="2.5" style="stroke:#181818;stroke-width:0.5;" width="109" x="127.5" y="129.041"/><text fill="#000000" font-family="sans-serif" font-size="14" font-style="italic" lengthAdjust="spacing" textLength="95" x="134.5" y="149.5762">&#171;Component&#187;</text><text fill="#000000" font-family="sans-serif" font-size="14" lengthAdjust="spacing" textLength="50" x="157" y="166.0645">:Router</text><rect fill="#E2E2F0" height="46.9766" rx="2.5" ry="2.5" style="stroke:#181818;stroke-width:0.5;" width="157" x="405.5" y="129.041"/><text fill="#000000" font-family="sans-serif" font-size="14" font-style="italic" lengthAdjust="spacing" textLength="95" x="436.5" y="149.5762">&#171;Component&#187;</text><text fill="#000000" font-family="sans-serif" font-size="14" lengthAdjust="spacing" textLength="143" x="412.5" y="166.0645">:RoomControllerWeb</text><rect fill="#E2E2F0" height="30.4883" rx="2.5" ry="2.5" style="stroke:#181818;stroke-width:0.5;" width="155" x="589.5" y="145.5293"/><text fill="#000000" font-family="sans-serif" font-size="14" lengthAdjust="spacing" textLength="141" x="596.5" y="166.0645">roomDTO:RoomDTO</text><rect fill="#E2E2F0" height="46.9766" rx="2.5" ry="2.5" style="stroke:#181818;stroke-width:0.5;" width="109" x="1209.5" y="129.041"/><text fill="#000000" font-family="sans-serif" font-size="14" font-style="italic" lengthAdjust="spacing" textLength="95" x="1216.5" y="149.5762">&#171;Component&#187;</text><text fill="#000000" font-family="sans-serif" font-size="14" lengthAdjust="spacing" textLength="92" x="1218" y="166.0645">:RoomService</text><rect fill="#E2E2F0" height="46.9766" rx="2.5" ry="2.5" style="stroke:#181818;stroke-width:0.5;" width="131" x="1397.5" y="129.041"/><text fill="#000000" font-family="sans-serif" font-size="14" font-style="italic" lengthAdjust="spacing" textLength="95" x="1415.5" y="149.5762">&#171;Component&#187;</text><text fill="#000000" font-family="sans-serif" font-size="14" lengthAdjust="spacing" textLength="117" x="1404.5" y="166.0645">:RoomRepository</text><rect fill="#E2E2F0" height="30.4883" rx="2.5" ry="2.5" style="stroke:#181818;stroke-width:0.5;" width="95" x="1538.5" y="145.5293"/><text fill="#000000" font-family="sans-serif" font-size="14" lengthAdjust="spacing" textLength="81" x="1545.5" y="166.0645">room:Room</text><rect fill="#E2E2F0" height="46.9766" rx="2.5" ry="2.5" style="stroke:#181818;stroke-width:0.5;" width="109" x="1808.5" y="129.041"/><text fill="#000000" font-family="sans-serif" font-size="14" font-style="italic" lengthAdjust="spacing" textLength="95" x="1815.5" y="149.5762">&#171;Component&#187;</text><text fill="#000000" font-family="sans-serif" font-size="14" lengthAdjust="spacing" textLength="67" x="1829.5" y="166.0645">:DB Driver</text><rect fill="#E2E2F0" height="46.9766" rx="2.5" ry="2.5" style="stroke:#181818;stroke-width:0.5;" width="109" x="127.5" y="1659.7441"/><text fill="#000000" font-family="sans-serif" font-size="14" font-style="italic" lengthAdjust="spacing" textLength="95" x="134.5" y="1680.2793">&#171;Component&#187;</text><text fill="#000000" font-family="sans-serif" font-size="14" lengthAdjust="spacing" textLength="50" x="157" y="1696.7676">:Router</text><rect fill="#E2E2F0" height="46.9766" rx="2.5" ry="2.5" style="stroke:#181818;stroke-width:0.5;" width="157" x="405.5" y="1659.7441"/><text fill="#000000" font-family="sans-serif" font-size="14" font-style="italic" lengthAdjust="spacing" textLength="95" x="436.5" y="1680.2793">&#171;Component&#187;</text><text fill="#000000" font-family="sans-serif" font-size="14" lengthAdjust="spacing" textLength="143" x="412.5" y="1696.7676">:RoomControllerWeb</text><rect fill="#E2E2F0" height="30.4883" rx="2.5" ry="2.5" style="stroke:#181818;stroke-width:0.5;" width="155" x="589.5" y="1659.7441"/><text fill="#000000" font-family="sans-serif" font-size="14" lengthAdjust="spacing" textLength="141" x="596.5" y="1680.2793">roomDTO:RoomDTO</text><rect fill="#E2E2F0" height="30.4883" rx="2.5" ry="2.5" style="stroke:#181818;stroke-width:0.5;" width="123" x="754.5" y="1659.7441"/><text fill="#000000" font-family="sans-serif" font-size="14" lengthAdjust="spacing" textLength="109" x="761.5" y="1680.2793">roomID:RoomID</text><rect fill="#E2E2F0" height="30.4883" rx="2.5" ry="2.5" style="stroke:#181818;stroke-width:0.5;" width="167" x="887.5" y="1659.7441"/><text fill="#000000" font-family="sans-serif" font-size="14" lengthAdjust="spacing" textLength="153" x="894.5" y="1680.2793">roomFloor:RoomFloor</text><rect fill="#E2E2F0" height="46.9766" rx="2.5" ry="2.5" style="stroke:#181818;stroke-width:0.5;" width="135" x="1064.5" y="1659.7441"/><text fill="#000000" font-family="sans-serif" font-size="14" lengthAdjust="spacing" textLength="121" x="1071.5" y="1680.2793">roomDimensions:</text><text fill="#000000" font-family="sans-serif" font-size="14" lengthAdjust="spacing" textLength="120" x="1072" y="1696.7676">RoomDimensions</text><rect fill="#E2E2F0" height="46.9766" rx="2.5" ry="2.5" style="stroke:#181818;stroke-width:0.5;" width="109" x="1209.5" y="1659.7441"/><text fill="#000000" font-family="sans-serif" font-size="14" font-style="italic" lengthAdjust="spacing" textLength="95" x="1216.5" y="1680.2793">&#171;Component&#187;</text><text fill="#000000" font-family="sans-serif" font-size="14" lengthAdjust="spacing" textLength="92" x="1218" y="1696.7676">:RoomService</text><rect fill="#E2E2F0" height="46.9766" rx="2.5" ry="2.5" style="stroke:#181818;stroke-width:0.5;" width="131" x="1397.5" y="1659.7441"/><text fill="#000000" font-family="sans-serif" font-size="14" font-style="italic" lengthAdjust="spacing" textLength="95" x="1415.5" y="1680.2793">&#171;Component&#187;</text><text fill="#000000" font-family="sans-serif" font-size="14" lengthAdjust="spacing" textLength="117" x="1404.5" y="1696.7676">:RoomRepository</text><rect fill="#E2E2F0" height="30.4883" rx="2.5" ry="2.5" style="stroke:#181818;stroke-width:0.5;" width="95" x="1538.5" y="1659.7441"/><text fill="#000000" font-family="sans-serif" font-size="14" lengthAdjust="spacing" textLength="81" x="1545.5" y="1680.2793">room:Room</text><rect fill="#E2E2F0" height="30.4883" rx="2.5" ry="2.5" style="stroke:#181818;stroke-width:0.5;" width="155" x="1643.5" y="1659.7441"/><text fill="#000000" font-family="sans-serif" font-size="14" lengthAdjust="spacing" textLength="141" x="1650.5" y="1680.2793">roomDTO:RoomDTO</text><rect fill="#E2E2F0" height="46.9766" rx="2.5" ry="2.5" style="stroke:#181818;stroke-width:0.5;" width="109" x="1808.5" y="1659.7441"/><text fill="#000000" font-family="sans-serif" font-size="14" font-style="italic" lengthAdjust="spacing" textLength="95" x="1815.5" y="1680.2793">&#171;Component&#187;</text><text fill="#000000" font-family="sans-serif" font-size="14" lengthAdjust="spacing" textLength="67" x="1829.5" y="1696.7676">:DB Driver</text><ellipse cx="10.5" cy="205.5781" fill="none" rx="4" ry="4" style="stroke:#181818;stroke-width:1.5;"/><polygon fill="#181818" points="165,202.3281,175,206.3281,165,210.3281,169,206.3281" style="stroke:#181818;stroke-width:1.0;"/><line style="stroke:#181818;stroke-width:1.0;" x1="15" x2="171" y1="206.3281" y2="206.3281"/><text fill="#000000" font-family="sans-serif" font-size="13" font-weight="bold" lengthAdjust="spacing" textLength="9" x="18" y="201.5859">1</text><text fill="#000000" font-family="sans-serif" font-size="13" lengthAdjust="spacing" textLength="140" x="31" y="201.5859">PATCH api/rooms/{id}</text><polygon fill="#181818" points="467,246.9492,477,250.9492,467,254.9492,471,250.9492" style="stroke:#181818;stroke-width:1.0;"/><line style="stroke:#181818;stroke-width:1.0;" x1="187" x2="473" y1="250.9492" y2="250.9492"/><text fill="#000000" font-family="sans-serif" font-size="13" font-weight="bold" lengthAdjust="spacing" textLength="9" x="194" y="238.5518">2</text><text fill="#000000" font-family="sans-serif" font-size="13" lengthAdjust="spacing" textLength="260" x="207" y="230.8965">PATCH editRoom(@PathVariable String id,</text><text fill="#000000" font-family="sans-serif" font-size="13" lengthAdjust="spacing" textLength="228" x="211" y="246.207">@RequestBody RoomDTO roomDTO)</text><polygon fill="#181818" points="650,276.2598,660,280.2598,650,284.2598,654,280.2598" style="stroke:#181818;stroke-width:1.0;"/><line style="stroke:#181818;stroke-width:1.0;" x1="489" x2="656" y1="280.2598" y2="280.2598"/><text fill="#000000" font-family="sans-serif" font-size="13" font-weight="bold" lengthAdjust="spacing" textLength="9" x="496" y="275.5176">3</text><text fill="#000000" font-family="sans-serif" font-size="13" lengthAdjust="spacing" textLength="69" x="509" y="275.5176">roomName</text><polygon fill="#181818" points="500,305.5703,490,309.5703,500,313.5703,496,309.5703" style="stroke:#181818;stroke-width:1.0;"/><line style="stroke:#181818;stroke-width:1.0;stroke-dasharray:2.0,2.0;" x1="494" x2="661" y1="309.5703" y2="309.5703"/><text fill="#000000" font-family="sans-serif" font-size="13" font-weight="bold" lengthAdjust="spacing" textLength="9" x="506" y="304.8281">4</text><text fill="#000000" font-family="sans-serif" font-size="13" lengthAdjust="spacing" textLength="110" x="519" y="304.8281">String roomName</text><rect fill="#E2E2F0" height="30.4883" rx="2.5" ry="2.5" style="stroke:#181818;stroke-width:0.5;" width="123" x="754.5" y="317.5703"/><text fill="#000000" font-family="sans-serif" font-size="14" lengthAdjust="spacing" textLength="109" x="761.5" y="338.1055">roomID:RoomID</text><polygon fill="#181818" points="742.5,334.8809,752.5,338.8809,742.5,342.8809,746.5,338.8809" style="stroke:#181818;stroke-width:1.0;"/><line style="stroke:#181818;stroke-width:1.0;stroke-dasharray:2.0,2.0;" x1="489" x2="748.5" y1="338.8809" y2="338.8809"/><text fill="#000000" font-family="sans-serif" font-size="13" font-weight="bold" lengthAdjust="spacing" textLength="9" x="496" y="334.1387">5</text><text fill="#000000" font-family="sans-serif" font-size="13" lengthAdjust="spacing" textLength="52" x="509" y="334.1387">&#171;create&#187;</text><polygon fill="#181818" points="650,366.3691,660,370.3691,650,374.3691,654,370.3691" style="stroke:#181818;stroke-width:1.0;"/><line style="stroke:#181818;stroke-width:1.0;" x1="489" x2="656" y1="370.3691" y2="370.3691"/><text fill="#000000" font-family="sans-serif" font-size="13" font-weight="bold" lengthAdjust="spacing" textLength="9" x="496" y="365.627">6</text><text fill="#000000" font-family="sans-serif" font-size="13" lengthAdjust="spacing" textLength="80" x="509" y="365.627">floorNumber</text><polygon fill="#181818" points="500,395.6797,490,399.6797,500,403.6797,496,399.6797" style="stroke:#181818;stroke-width:1.0;"/><line style="stroke:#181818;stroke-width:1.0;stroke-dasharray:2.0,2.0;" x1="494" x2="661" y1="399.6797" y2="399.6797"/><text fill="#000000" font-family="sans-serif" font-size="13" font-weight="bold" lengthAdjust="spacing" textLength="9" x="506" y="394.9375">7</text><text fill="#000000" font-family="sans-serif" font-size="13" lengthAdjust="spacing" textLength="101" x="519" y="394.9375">int floorNumber</text><rect fill="#E2E2F0" height="30.4883" rx="2.5" ry="2.5" style="stroke:#181818;stroke-width:0.5;" width="167" x="887.5" y="407.6797"/><text fill="#000000" font-family="sans-serif" font-size="14" lengthAdjust="spacing" textLength="153" x="894.5" y="428.2148">roomFloor:RoomFloor</text><polygon fill="#181818" points="875.5,424.9902,885.5,428.9902,875.5,432.9902,879.5,428.9902" style="stroke:#181818;stroke-width:1.0;"/><line style="stroke:#181818;stroke-width:1.0;stroke-dasharray:2.0,2.0;" x1="489" x2="881.5" y1="428.9902" y2="428.9902"/><text fill="#000000" font-family="sans-serif" font-size="13" font-weight="bold" lengthAdjust="spacing" textLength="9" x="496" y="424.248">8</text><text fill="#000000" font-family="sans-serif" font-size="13" lengthAdjust="spacing" textLength="52" x="509" y="424.248">&#171;create&#187;</text><polygon fill="#181818" points="650,456.4785,660,460.4785,650,464.4785,654,460.4785" style="stroke:#181818;stroke-width:1.0;"/><line style="stroke:#181818;stroke-width:1.0;" x1="489" x2="656" y1="460.4785" y2="460.4785"/><text fill="#000000" font-family="sans-serif" font-size="13" font-weight="bold" lengthAdjust="spacing" textLength="9" x="496" y="455.7363">9</text><text fill="#000000" font-family="sans-serif" font-size="13" lengthAdjust="spacing" textLength="40" x="509" y="455.7363">length</text><polygon fill="#181818" points="500,485.7891,490,489.7891,500,493.7891,496,489.7891" style="stroke:#181818;stroke-width:1.0;"/><line style="stroke:#181818;stroke-width:1.0;stroke-dasharray:2.0,2.0;" x1="494" x2="661" y1="489.7891" y2="489.7891"/><text fill="#000000" font-family="sans-serif" font-size="13" font-weight="bold" lengthAdjust="spacing" textLength="18" x="506" y="485.0469">10</text><text fill="#000000" font-family="sans-serif" font-size="13" lengthAdjust="spacing" textLength="87" x="528" y="485.0469">double length</text><polygon fill="#181818" points="650,515.0996,660,519.0996,650,523.0996,654,519.0996" style="stroke:#181818;stroke-width:1.0;"/><line style="stroke:#181818;stroke-width:1.0;" x1="489" x2="656" y1="519.0996" y2="519.0996"/><text fill="#000000" font-family="sans-serif" font-size="13" font-weight="bold" lengthAdjust="spacing" textLength="18" x="496" y="514.3574">11</text><text fill="#000000" font-family="sans-serif" font-size="13" lengthAdjust="spacing" textLength="35" x="518" y="514.3574">width</text><polygon fill="#181818" points="500,544.4102,490,548.4102,500,552.4102,496,548.4102" style="stroke:#181818;stroke-width:1.0;"/><line style="stroke:#181818;stroke-width:1.0;stroke-dasharray:2.0,2.0;" x1="494" x2="661" y1="548.4102" y2="548.4102"/><text fill="#000000" font-family="sans-serif" font-size="13" font-weight="bold" lengthAdjust="spacing" textLength="18" x="506" y="543.668">12</text><text fill="#000000" font-family="sans-serif" font-size="13" lengthAdjust="spacing" textLength="82" x="528" y="543.668">double width</text><polygon fill="#181818" points="650,573.7207,660,577.7207,650,581.7207,654,577.7207" style="stroke:#181818;stroke-width:1.0;"/><line style="stroke:#181818;stroke-width:1.0;" x1="489" x2="656" y1="577.7207" y2="577.7207"/><text fill="#000000" font-family="sans-serif" font-size="13" font-weight="bold" lengthAdjust="spacing" textLength="18" x="496" y="572.9785">13</text><text fill="#000000" font-family="sans-serif" font-size="13" lengthAdjust="spacing" textLength="40" x="518" y="572.9785">height</text><polygon fill="#181818" points="500,603.0313,490,607.0313,500,611.0313,496,607.0313" style="stroke:#181818;stroke-width:1.0;"/><line style="stroke:#181818;stroke-width:1.0;stroke-dasharray:2.0,2.0;" x1="494" x2="661" y1="607.0313" y2="607.0313"/><text fill="#000000" font-family="sans-serif" font-size="13" font-weight="bold" lengthAdjust="spacing" textLength="18" x="506" y="602.2891">14</text><text fill="#000000" font-family="sans-serif" font-size="13" lengthAdjust="spacing" textLength="87" x="528" y="602.2891">double height</text><rect fill="#E2E2F0" height="46.9766" rx="2.5" ry="2.5" style="stroke:#181818;stroke-width:0.5;" width="135" x="1064.5" y="615.0313"/><text fill="#000000" font-family="sans-serif" font-size="14" lengthAdjust="spacing" textLength="121" x="1071.5" y="635.5664">roomDimensions:</text><text fill="#000000" font-family="sans-serif" font-size="14" lengthAdjust="spacing" textLength="120" x="1072" y="652.0547">RoomDimensions</text><polygon fill="#181818" points="1052.5,632.3418,1062.5,636.3418,1052.5,640.3418,1056.5,636.3418" style="stroke:#181818;stroke-width:1.0;"/><line style="stroke:#181818;stroke-width:1.0;stroke-dasharray:2.0,2.0;" x1="489" x2="1058.5" y1="636.3418" y2="636.3418"/><text fill="#000000" font-family="sans-serif" font-size="13" font-weight="bold" lengthAdjust="spacing" textLength="18" x="496" y="631.5996">15</text><text fill="#000000" font-family="sans-serif" font-size="13" lengthAdjust="spacing" textLength="52" x="518" y="631.5996">&#171;create&#187;</text><polygon fill="#181818" points="1247,695.6289,1257,699.6289,1247,703.6289,1251,699.6289" style="stroke:#181818;stroke-width:1.0;"/><line style="stroke:#181818;stroke-width:1.0;" x1="489" x2="1253" y1="699.6289" y2="699.6289"/><text fill="#000000" font-family="sans-serif" font-size="13" font-weight="bold" lengthAdjust="spacing" textLength="18" x="496" y="687.2314">16</text><text fill="#000000" font-family="sans-serif" font-size="13" lengthAdjust="spacing" textLength="113" x="518" y="679.5762">editRoomAndSave</text><text fill="#000000" font-family="sans-serif" font-size="13" lengthAdjust="spacing" textLength="244" x="518" y="694.8867">(roomID, roomFloor, roomDimensions)</text><polygon fill="#181818" points="1446,724.9395,1456,728.9395,1446,732.9395,1450,728.9395" style="stroke:#181818;stroke-width:1.0;"/><line style="stroke:#181818;stroke-width:1.0;" x1="1269" x2="1452" y1="728.9395" y2="728.9395"/><text fill="#000000" font-family="sans-serif" font-size="13" font-weight="bold" lengthAdjust="spacing" textLength="18" x="1276" y="724.1973">17</text><text fill="#000000" font-family="sans-serif" font-size="13" lengthAdjust="spacing" textLength="148" x="1298" y="724.1973">findEntityByID(roomID);</text><polygon fill="#181818" points="1846,754.25,1856,758.25,1846,762.25,1850,758.25" style="stroke:#181818;stroke-width:1.0;"/><line style="stroke:#181818;stroke-width:1.0;" x1="1468" x2="1852" y1="758.25" y2="758.25"/><text fill="#000000" font-family="sans-serif" font-size="13" font-weight="bold" lengthAdjust="spacing" textLength="18" x="1475" y="753.5078">18</text><text fill="#000000" font-family="sans-serif" font-size="13" lengthAdjust="spacing" textLength="135" x="1497" y="753.5078">findByID(id.toString())</text><ellipse cx="2039.5" cy="786.8105" fill="none" rx="4" ry="4" style="stroke:#181818;stroke-width:1.5;"/><polygon fill="#181818" points="2022.5,783.5605,2032.5,787.5605,2022.5,791.5605,2026.5,787.5605" style="stroke:#181818;stroke-width:1.0;"/><line style="stroke:#181818;stroke-width:1.0;" x1="1868" x2="2028.5" y1="787.5605" y2="787.5605"/><text fill="#000000" font-family="sans-serif" font-size="13" font-weight="bold" lengthAdjust="spacing" textLength="18" x="1875" y="782.8184">19</text><text fill="#000000" font-family="sans-serif" font-size="13" lengthAdjust="spacing" textLength="112" x="1897" y="782.8184">DATABASE QUERY</text><polygon fill="#181818" points="1879,812.8711,1869,816.8711,1879,820.8711,1875,816.8711" style="stroke:#181818;stroke-width:1.0;"/><ellipse cx="2039.5" cy="816.1211" fill="none" rx="4" ry="4" style="stroke:#181818;stroke-width:1.5;"/><line style="stroke:#181818;stroke-width:1.0;stroke-dasharray:2.0,2.0;" x1="1873" x2="2035" y1="816.8711" y2="816.8711"/><text fill="#000000" font-family="sans-serif" font-size="13" font-weight="bold" lengthAdjust="spacing" textLength="18" x="1885" y="812.1289">20</text><text fill="#000000" font-family="sans-serif" font-size="13" lengthAdjust="spacing" textLength="109" x="1907" y="812.1289">QUERY RESPONSE</text><polygon fill="#181818" points="1479,842.1816,1469,846.1816,1479,850.1816,1475,846.1816" style="stroke:#181818;stroke-width:1.0;"/><line style="stroke:#181818;stroke-width:1.0;stroke-dasharray:2.0,2.0;" x1="1473" x2="1857" y1="846.1816" y2="846.1816"/><text fill="#000000" font-family="sans-serif" font-size="13" font-weight="bold" lengthAdjust="spacing" textLength="18" x="1485" y="841.4395">21</text><text fill="#000000" font-family="sans-serif" font-size="13" lengthAdjust="spacing" textLength="161" x="1507" y="841.4395">RoomDataModel:roomDM</text><polygon fill="#181818" points="1280,871.4922,1270,875.4922,1280,879.4922,1276,875.4922" style="stroke:#181818;stroke-width:1.0;"/><line style="stroke:#181818;stroke-width:1.0;stroke-dasharray:2.0,2.0;" x1="1274" x2="1457" y1="875.4922" y2="875.4922"/><text fill="#000000" font-family="sans-serif" font-size="13" font-weight="bold" lengthAdjust="spacing" textLength="18" x="1286" y="870.75">22</text><text fill="#000000" font-family="sans-serif" font-size="13" lengthAdjust="spacing" textLength="73" x="1308" y="870.75">roomToEdit</text><path d="M1248,887.4922 L1310,887.4922 L1310,894.8027 L1300,904.8027 L1248,904.8027 L1248,887.4922 " fill="#EEEEEE" style="stroke:#000000;stroke-width:1.5;"/><rect fill="none" height="320.416" style="stroke:#000000;stroke-width:1.5;" width="789" x="1248" y="887.4922"/><text fill="#000000" font-family="sans-serif" font-size="13" font-weight="bold" lengthAdjust="spacing" textLength="17" x="1263" y="901.0605">alt</text><text fill="#000000" font-family="sans-serif" font-size="11" font-weight="bold" lengthAdjust="spacing" textLength="154" x="1325" y="900.127">[if all parameters are valid]</text><polygon fill="#181818" points="1569,932.1133,1579,936.1133,1569,940.1133,1573,936.1133" style="stroke:#181818;stroke-width:1.0;"/><line style="stroke:#181818;stroke-width:1.0;" x1="1269" x2="1575" y1="936.1133" y2="936.1133"/><text fill="#000000" font-family="sans-serif" font-size="13" font-weight="bold" lengthAdjust="spacing" textLength="18" x="1276" y="931.3711">23</text><text fill="#000000" font-family="sans-serif" font-size="13" lengthAdjust="spacing" textLength="249" x="1298" y="931.3711">editRoom(roomFloor, roomDimensions)</text><polygon fill="#181818" points="1280,961.4238,1270,965.4238,1280,969.4238,1276,965.4238" style="stroke:#181818;stroke-width:1.0;"/><line style="stroke:#181818;stroke-width:1.0;stroke-dasharray:2.0,2.0;" x1="1274" x2="1580" y1="965.4238" y2="965.4238"/><text fill="#000000" font-family="sans-serif" font-size="13" font-weight="bold" lengthAdjust="spacing" textLength="18" x="1286" y="960.6816">24</text><text fill="#000000" font-family="sans-serif" font-size="13" lengthAdjust="spacing" textLength="73" x="1308" y="960.6816">roomToEdit</text><polygon fill="#181818" points="1446,990.7344,1456,994.7344,1446,998.7344,1450,994.7344" style="stroke:#181818;stroke-width:1.0;"/><line style="stroke:#181818;stroke-width:1.0;" x1="1269" x2="1452" y1="994.7344" y2="994.7344"/><text fill="#000000" font-family="sans-serif" font-size="13" font-weight="bold" lengthAdjust="spacing" textLength="18" x="1276" y="989.9922">25</text><text fill="#000000" font-family="sans-serif" font-size="13" lengthAdjust="spacing" textLength="109" x="1298" y="989.9922">save(roomToEdit)</text><polygon fill="#181818" points="1846,1020.0449,1856,1024.0449,1846,1028.0449,1850,1024.0449" style="stroke:#181818;stroke-width:1.0;"/><line style="stroke:#181818;stroke-width:1.0;" x1="1468" x2="1852" y1="1024.0449" y2="1024.0449"/><text fill="#000000" font-family="sans-serif" font-size="13" font-weight="bold" lengthAdjust="spacing" textLength="18" x="1475" y="1019.3027">26</text><text fill="#000000" font-family="sans-serif" font-size="13" lengthAdjust="spacing" textLength="148" x="1497" y="1019.3027">existsByID(id.toString())</text><ellipse cx="2039.5" cy="1052.6055" fill="none" rx="4" ry="4" style="stroke:#181818;stroke-width:1.5;"/><polygon fill="#181818" points="2022.5,1049.3555,2032.5,1053.3555,2022.5,1057.3555,2026.5,1053.3555" style="stroke:#181818;stroke-width:1.0;"/><line style="stroke:#181818;stroke-width:1.0;" x1="1868" x2="2028.5" y1="1053.3555" y2="1053.3555"/><text fill="#000000" font-family="sans-serif" font-size="13" font-weight="bold" lengthAdjust="spacing" textLength="18" x="1875" y="1048.6133">27</text><text fill="#000000" font-family="sans-serif" font-size="13" lengthAdjust="spacing" textLength="112" x="1897" y="1048.6133">DATABASE QUERY</text><polygon fill="#181818" points="1879,1078.666,1869,1082.666,1879,1086.666,1875,1082.666" style="stroke:#181818;stroke-width:1.0;"/><ellipse cx="2039.5" cy="1081.916" fill="none" rx="4" ry="4" style="stroke:#181818;stroke-width:1.5;"/><line style="stroke:#181818;stroke-width:1.0;stroke-dasharray:2.0,2.0;" x1="1873" x2="2035" y1="1082.666" y2="1082.666"/><text fill="#000000" font-family="sans-serif" font-size="13" font-weight="bold" lengthAdjust="spacing" textLength="18" x="1885" y="1077.9238">28</text><text fill="#000000" font-family="sans-serif" font-size="13" lengthAdjust="spacing" textLength="109" x="1907" y="1077.9238">QUERY RESPONSE</text><polygon fill="#181818" points="1479,1107.9766,1469,1111.9766,1479,1115.9766,1475,1111.9766" style="stroke:#181818;stroke-width:1.0;"/><line style="stroke:#181818;stroke-width:1.0;stroke-dasharray:2.0,2.0;" x1="1473" x2="1857" y1="1111.9766" y2="1111.9766"/><text fill="#000000" font-family="sans-serif" font-size="13" font-weight="bold" lengthAdjust="spacing" textLength="18" x="1485" y="1107.2344">29</text><text fill="#000000" font-family="sans-serif" font-size="13" lengthAdjust="spacing" textLength="30" x="1507" y="1107.2344">false</text><polygon fill="#181818" points="1280,1137.2871,1270,1141.2871,1280,1145.2871,1276,1141.2871" style="stroke:#181818;stroke-width:1.0;"/><line style="stroke:#181818;stroke-width:1.0;stroke-dasharray:2.0,2.0;" x1="1274" x2="1457" y1="1141.2871" y2="1141.2871"/><text fill="#000000" font-family="sans-serif" font-size="13" font-weight="bold" lengthAdjust="spacing" textLength="18" x="1286" y="1136.5449">30</text><text fill="#000000" font-family="sans-serif" font-size="13" lengthAdjust="spacing" textLength="73" x="1308" y="1136.5449">roomToEdit</text><polygon fill="#181818" points="1569,1166.5977,1579,1170.5977,1569,1174.5977,1573,1170.5977" style="stroke:#181818;stroke-width:1.0;"/><line style="stroke:#181818;stroke-width:1.0;" x1="1269" x2="1575" y1="1170.5977" y2="1170.5977"/><text fill="#000000" font-family="sans-serif" font-size="13" font-weight="bold" lengthAdjust="spacing" textLength="18" x="1276" y="1165.8555">31</text><text fill="#000000" font-family="sans-serif" font-size="13" lengthAdjust="spacing" textLength="56" x="1298" y="1165.8555">identity()</text><polygon fill="#181818" points="1280,1195.9082,1270,1199.9082,1280,1203.9082,1276,1199.9082" style="stroke:#181818;stroke-width:1.0;"/><line style="stroke:#181818;stroke-width:1.0;stroke-dasharray:2.0,2.0;" x1="1274" x2="1580" y1="1199.9082" y2="1199.9082"/><text fill="#000000" font-family="sans-serif" font-size="13" font-weight="bold" lengthAdjust="spacing" textLength="18" x="1286" y="1195.166">32</text><text fill="#000000" font-family="sans-serif" font-size="13" lengthAdjust="spacing" textLength="87" x="1308" y="1195.166">roomToEditID</text><polygon fill="#181818" points="500,1239.2188,490,1243.2188,500,1247.2188,496,1243.2188" style="stroke:#181818;stroke-width:1.0;"/><line style="stroke:#181818;stroke-width:1.0;stroke-dasharray:2.0,2.0;" x1="494" x2="1258" y1="1243.2188" y2="1243.2188"/><text fill="#000000" font-family="sans-serif" font-size="13" font-weight="bold" lengthAdjust="spacing" textLength="18" x="506" y="1238.4766">33</text><text fill="#000000" font-family="sans-serif" font-size="13" lengthAdjust="spacing" textLength="87" x="528" y="1238.4766">roomToEditID</text><polygon fill="#181818" points="650,1268.5293,660,1272.5293,650,1276.5293,654,1272.5293" style="stroke:#181818;stroke-width:1.0;"/><line style="stroke:#181818;stroke-width:1.0;" x1="489" x2="656" y1="1272.5293" y2="1272.5293"/><text fill="#000000" font-family="sans-serif" font-size="13" font-weight="bold" lengthAdjust="spacing" textLength="18" x="496" y="1267.7871">34</text><text fill="#000000" font-family="sans-serif" font-size="13" lengthAdjust="spacing" textLength="86" x="518" y="1267.7871">roomEditedID</text><polygon fill="#181818" points="500,1297.8398,490,1301.8398,500,1305.8398,496,1301.8398" style="stroke:#181818;stroke-width:1.0;"/><line style="stroke:#181818;stroke-width:1.0;stroke-dasharray:2.0,2.0;" x1="494" x2="661" y1="1301.8398" y2="1301.8398"/><text fill="#000000" font-family="sans-serif" font-size="13" font-weight="bold" lengthAdjust="spacing" textLength="18" x="506" y="1297.0977">35</text><text fill="#000000" font-family="sans-serif" font-size="13" lengthAdjust="spacing" textLength="127" x="528" y="1297.0977">String roomEditedID</text><polygon fill="#181818" points="650,1327.1504,660,1331.1504,650,1335.1504,654,1331.1504" style="stroke:#181818;stroke-width:1.0;"/><line style="stroke:#181818;stroke-width:1.0;" x1="489" x2="656" y1="1331.1504" y2="1331.1504"/><text fill="#000000" font-family="sans-serif" font-size="13" font-weight="bold" lengthAdjust="spacing" textLength="18" x="496" y="1326.4082">36</text><text fill="#000000" font-family="sans-serif" font-size="13" lengthAdjust="spacing" textLength="80" x="518" y="1326.4082">floorNumber</text><polygon fill="#181818" points="500,1356.4609,490,1360.4609,500,1364.4609,496,1360.4609" style="stroke:#181818;stroke-width:1.0;"/><line style="stroke:#181818;stroke-width:1.0;stroke-dasharray:2.0,2.0;" x1="494" x2="661" y1="1360.4609" y2="1360.4609"/><text fill="#000000" font-family="sans-serif" font-size="13" font-weight="bold" lengthAdjust="spacing" textLength="18" x="506" y="1355.7188">37</text><text fill="#000000" font-family="sans-serif" font-size="13" lengthAdjust="spacing" textLength="101" x="528" y="1355.7188">int floorNumber</text><polygon fill="#181818" points="650,1385.7715,660,1389.7715,650,1393.7715,654,1389.7715" style="stroke:#181818;stroke-width:1.0;"/><line style="stroke:#181818;stroke-width:1.0;" x1="489" x2="656" y1="1389.7715" y2="1389.7715"/><text fill="#000000" font-family="sans-serif" font-size="13" font-weight="bold" lengthAdjust="spacing" textLength="18" x="496" y="1385.0293">38</text><text fill="#000000" font-family="sans-serif" font-size="13" lengthAdjust="spacing" textLength="40" x="518" y="1385.0293">length</text><polygon fill="#181818" points="500,1415.082,490,1419.082,500,1423.082,496,1419.082" style="stroke:#181818;stroke-width:1.0;"/><line style="stroke:#181818;stroke-width:1.0;stroke-dasharray:2.0,2.0;" x1="494" x2="661" y1="1419.082" y2="1419.082"/><text fill="#000000" font-family="sans-serif" font-size="13" font-weight="bold" lengthAdjust="spacing" textLength="18" x="506" y="1414.3398">39</text><text fill="#000000" font-family="sans-serif" font-size="13" lengthAdjust="spacing" textLength="87" x="528" y="1414.3398">double length</text><polygon fill="#181818" points="650,1444.3926,660,1448.3926,650,1452.3926,654,1448.3926" style="stroke:#181818;stroke-width:1.0;"/><line style="stroke:#181818;stroke-width:1.0;" x1="489" x2="656" y1="1448.3926" y2="1448.3926"/><text fill="#000000" font-family="sans-serif" font-size="13" font-weight="bold" lengthAdjust="spacing" textLength="18" x="496" y="1443.6504">40</text><text fill="#000000" font-family="sans-serif" font-size="13" lengthAdjust="spacing" textLength="35" x="518" y="1443.6504">width</text><polygon fill="#181818" points="500,1473.7031,490,1477.7031,500,1481.7031,496,1477.7031" style="stroke:#181818;stroke-width:1.0;"/><line style="stroke:#181818;stroke-width:1.0;stroke-dasharray:2.0,2.0;" x1="494" x2="661" y1="1477.7031" y2="1477.7031"/><text fill="#000000" font-family="sans-serif" font-size="13" font-weight="bold" lengthAdjust="spacing" textLength="18" x="506" y="1472.9609">41</text><text fill="#000000" font-family="sans-serif" font-size="13" lengthAdjust="spacing" textLength="82" x="528" y="1472.9609">double width</text><polygon fill="#181818" points="650,1503.0137,660,1507.0137,650,1511.0137,654,1507.0137" style="stroke:#181818;stroke-width:1.0;"/><line style="stroke:#181818;stroke-width:1.0;" x1="489" x2="656" y1="1507.0137" y2="1507.0137"/><text fill="#000000" font-family="sans-serif" font-size="13" font-weight="bold" lengthAdjust="spacing" textLength="18" x="496" y="1502.2715">42</text><text fill="#000000" font-family="sans-serif" font-size="13" lengthAdjust="spacing" textLength="40" x="518" y="1502.2715">height</text><polygon fill="#181818" points="500,1532.3242,490,1536.3242,500,1540.3242,496,1536.3242" style="stroke:#181818;stroke-width:1.0;"/><line style="stroke:#181818;stroke-width:1.0;stroke-dasharray:2.0,2.0;" x1="494" x2="661" y1="1536.3242" y2="1536.3242"/><text fill="#000000" font-family="sans-serif" font-size="13" font-weight="bold" lengthAdjust="spacing" textLength="18" x="506" y="1531.582">43</text><text fill="#000000" font-family="sans-serif" font-size="13" lengthAdjust="spacing" textLength="87" x="528" y="1531.582">double height</text><rect fill="#E2E2F0" height="30.4883" rx="2.5" ry="2.5" style="stroke:#181818;stroke-width:0.5;" width="155" x="1643.5" y="1544.3242"/><text fill="#000000" font-family="sans-serif" font-size="14" lengthAdjust="spacing" textLength="141" x="1650.5" y="1564.8594">roomDTO:RoomDTO</text><polygon fill="#181818" points="1631.5,1561.6348,1641.5,1565.6348,1631.5,1569.6348,1635.5,1565.6348" style="stroke:#181818;stroke-width:1.0;"/><line style="stroke:#181818;stroke-width:1.0;stroke-dasharray:2.0,2.0;" x1="489" x2="1637.5" y1="1565.6348" y2="1565.6348"/><text fill="#000000" font-family="sans-serif" font-size="13" font-weight="bold" lengthAdjust="spacing" textLength="18" x="496" y="1560.8926">44</text><text fill="#000000" font-family="sans-serif" font-size="13" lengthAdjust="spacing" textLength="59" x="518" y="1560.8926">&#171;creates&#187;</text><polygon fill="#181818" points="198,1593.123,188,1597.123,198,1601.123,194,1597.123" style="stroke:#181818;stroke-width:1.0;"/><line style="stroke:#181818;stroke-width:1.0;stroke-dasharray:2.0,2.0;" x1="192" x2="478" y1="1597.123" y2="1597.123"/><text fill="#000000" font-family="sans-serif" font-size="13" font-weight="bold" lengthAdjust="spacing" textLength="18" x="204" y="1592.3809">45</text><text fill="#000000" font-family="sans-serif" font-size="13" lengthAdjust="spacing" textLength="200" x="226" y="1592.3809">editedRoomDTO, HttpStatus.OK</text><ellipse cx="10.5" cy="1640.9941" fill="none" rx="4" ry="4" style="stroke:#181818;stroke-width:1.5;"/><polygon fill="#181818" points="27.5,1637.7441,17.5,1641.7441,27.5,1645.7441,23.5,1641.7441" style="stroke:#181818;stroke-width:1.0;"/><line style="stroke:#181818;stroke-width:1.0;stroke-dasharray:2.0,2.0;" x1="25.5" x2="176" y1="1641.7441" y2="1641.7441"/><text fill="#000000" font-family="sans-serif" font-size="13" font-weight="bold" lengthAdjust="spacing" textLength="18" x="28" y="1629.3467">46</text><text fill="#000000" font-family="sans-serif" font-size="13" lengthAdjust="spacing" textLength="96" x="50" y="1621.6914">JSON response,</text><text fill="#000000" font-family="sans-serif" font-size="13" lengthAdjust="spacing" textLength="89" x="50" y="1637.002">HttpStatus.OK</text><!--SRC=[vLRBSjem5DtxAzHq0nb8-jYv6IQ0QKFRG8f9EvtGXS0te8ajKKccePt-UoNPbet1WNJQwQ8RaELpphswBqiI6GAwxZvxUV82zG8YqOYno75mB1cDeobmvycIutc4aGJs7KaUWpDbz-W8dPtvyTHV2mbHgpMXI6rq6PMOKE391a9k1y_kW0OA_jJ3_EuDXxMbTrcqP1Iej6WV-0gumhudyuKqO6U9kIGpiiHKeYDtn6Af4LYWPBcfiuLcaVQ9ip04_WccXZYpEm-HkU9wuw7HKF-6cUuztqRsFGFiUnRNzxPHhqF6k06QbSMQfntcIGHK44Q5Ew6ZZOtS7Rkru-mwdcG61YoIjTWRi14icI2IyNLYn3xkYvPXMySEZkQBaWzU1tcShD8iUvtaeMHSrvIg8yUvOSrMMWekkcgFknS8BycfrXQdFqZmqy4pILPOGefoqhfHjBmGCYge3j0kriwli5nyn9pWgUeFNt92vuW43LMevoFu6eEG7HQiKNgUx2prt5ekxXGAJbdDYiWrgm6E82VP0iiMg5doCtN5KelQgNZVEpvsLRnc79Ic2bQL_LjTTeEaooiD4fMK8d27GLE-1zeCWSxbejfSm68TyHHMfVAD10U89AWgZGNe8RDN98K5i9sa7Q78sx4KZv8RMJUwjkJQDF3n2YQqbkImaOUsKP8kL5ccuzZsrexObbKv9ZJeKKdakhFkUwbs_LMXv2pOSGgzhcIoraj439q49v8b9LYh5zp8e8vjrsQBVN6HrnwtEss_XpvSzqQVyxTdpQP-RNRHgETV3GT-hq0k7S9q6PRuaWKGkYOObyMCMFCR9zW8ioQDcVx2RQGoFpmE9IAt28SXKlD8jPOQ4W9X3cY5Gn9i1bXFktnO798eCnBrps5-QNHLIeKgarhEgpykbt1FX1J_CfktE1JmfzEtdHuIWAdxsgEoe3xRvJoeRqr1lZGbgfYsCHyQ_fe6WIB-tWV0ql_QWF-V9hUwYHHdjb13Ury-2rSFCBb8hmCDT27bqfTOnk9a-AweKxWMt33LE5RWhJySg88MweeZe84cT5FY5m00]--></g></svg>