<?xml version="1.0" encoding="us-ascii" standalone="no"?><svg xmlns="http://www.w3.org/2000/svg" xmlns:xlink="http://www.w3.org/1999/xlink" contentStyleType="text/css" height="1491px" preserveAspectRatio="none" style="width:2218px;height:1491px;background:#FFFFFF;" version="1.1" viewBox="0 0 2218 1491" width="2218px" zoomAndPan="magnify"><defs/><g><rect fill="#A9A9A9" height="1441.9023" style="stroke:#181818;stroke-width:0.5;" width="1994" x="121.5" y="43.4883"/><text fill="#000000" font-family="sans-serif" font-size="13" font-weight="bold" lengthAdjust="spacing" textLength="87" x="1075" y="56.0566">&#171;SubSystem&#187;</text><text fill="#000000" font-family="sans-serif" font-size="13" font-weight="bold" lengthAdjust="spacing" textLength="80" x="1079" y="71.3672">&#171;Container&#187;</text><text fill="#000000" font-family="sans-serif" font-size="13" font-weight="bold" lengthAdjust="spacing" textLength="60" x="1087" y="86.6777">:Backend</text><rect fill="#D3D3D3" height="1390.9707" style="stroke:#181818;stroke-width:0.5;" width="1994" x="121.5" y="94.4199"/><text fill="#000000" font-family="sans-serif" font-size="13" font-weight="bold" lengthAdjust="spacing" textLength="92" x="1072.5" y="106.9883">&#171;Component&#187;</text><text fill="#000000" font-family="sans-serif" font-size="13" font-weight="bold" lengthAdjust="spacing" textLength="46" x="1080.5" y="122.2988">:Server</text><text fill="#000000" font-family="sans-serif" font-size="14" font-weight="bold" lengthAdjust="spacing" textLength="221" x="999" y="28.5352">UC05 Add new device to room.</text><line style="stroke:#181818;stroke-width:0.5;stroke-dasharray:5.0,5.0;" x1="180" x2="180" y1="177.0176" y2="1431.4141"/><rect fill="#FFFFFF" height="1162.6426" style="stroke:#181818;stroke-width:1.0;" width="10" x="175" y="250.7715"/><line style="stroke:#181818;stroke-width:0.5;stroke-dasharray:5.0,5.0;" x1="478" x2="478" y1="177.0176" y2="1431.4141"/><rect fill="#FFFFFF" height="1073.4004" style="stroke:#181818;stroke-width:1.0;" width="10" x="473" y="295.3926"/><line style="stroke:#181818;stroke-width:0.5;stroke-dasharray:5.0,5.0;" x1="621.5" x2="621.5" y1="1299.5059" y2="1431.4141"/><line style="stroke:#181818;stroke-width:0.5;stroke-dasharray:5.0,5.0;" x1="714.5" x2="714.5" y1="303.3926" y2="1431.4141"/><line style="stroke:#181818;stroke-width:0.5;stroke-dasharray:5.0,5.0;" x1="813.5" x2="813.5" y1="351.3691" y2="1431.4141"/><line style="stroke:#181818;stroke-width:0.5;stroke-dasharray:5.0,5.0;" x1="917.5" x2="917.5" y1="177.0176" y2="1431.4141"/><rect fill="#FFFFFF" height="29.3105" style="stroke:#181818;stroke-width:1.0;" width="10" x="912.5" y="420.6563"/><line style="stroke:#181818;stroke-width:0.5;stroke-dasharray:5.0,5.0;" x1="1004.5" x2="1004.5" y1="457.9668" y2="1431.4141"/><line style="stroke:#181818;stroke-width:0.5;stroke-dasharray:5.0,5.0;" x1="1104" x2="1104" y1="177.0176" y2="1431.4141"/><rect fill="#FFFFFF" height="764.252" style="stroke:#181818;stroke-width:1.0;" width="10" x="1099" y="527.2539"/><line style="stroke:#181818;stroke-width:0.5;stroke-dasharray:5.0,5.0;" x1="1319" x2="1319" y1="177.0176" y2="1431.4141"/><rect fill="#FFFFFF" height="146.5527" style="stroke:#181818;stroke-width:1.0;" width="10" x="1314" y="556.5645"/><line style="stroke:#181818;stroke-width:0.5;stroke-dasharray:5.0,5.0;" x1="1462" x2="1462" y1="177.0176" y2="1431.4141"/><rect fill="#FFFFFF" height="146.5527" style="stroke:#181818;stroke-width:1.0;" width="10" x="1457" y="732.4277"/><rect fill="#FFFFFF" height="205.1738" style="stroke:#181818;stroke-width:1.0;" width="10" x="1457" y="998.4004"/><line style="stroke:#181818;stroke-width:0.5;stroke-dasharray:5.0,5.0;" x1="1595.5" x2="1595.5" y1="177.0176" y2="1431.4141"/><rect fill="#FFFFFF" height="60.7988" style="stroke:#181818;stroke-width:1.0;" width="10" x="1590.5" y="908.291"/><line style="stroke:#181818;stroke-width:0.5;stroke-dasharray:5.0,5.0;" x1="1786" x2="1786" y1="177.0176" y2="1431.4141"/><rect fill="#FFFFFF" height="29.3105" style="stroke:#181818;stroke-width:1.0;" width="10" x="1781" y="1144.9531"/><line style="stroke:#181818;stroke-width:0.5;stroke-dasharray:5.0,5.0;" x1="1940" x2="1940" y1="916.291" y2="1431.4141"/><rect fill="#FFFFFF" height="29.3105" style="stroke:#181818;stroke-width:1.0;" width="10" x="1935" y="1232.8848"/><line style="stroke:#181818;stroke-width:0.5;stroke-dasharray:5.0,5.0;" x1="2057" x2="2057" y1="177.0176" y2="1431.4141"/><rect fill="#FFFFFF" height="87.9316" style="stroke:#181818;stroke-width:1.0;" width="10" x="2052" y="585.875"/><rect fill="#FFFFFF" height="87.9316" style="stroke:#181818;stroke-width:1.0;" width="10" x="2052" y="761.7383"/><rect fill="#FFFFFF" height="87.9316" style="stroke:#181818;stroke-width:1.0;" width="10" x="2052" y="1027.7109"/><rect fill="#E2E2F0" height="46.9766" rx="2.5" ry="2.5" style="stroke:#181818;stroke-width:0.5;" width="109" x="125.5" y="129.041"/><text fill="#000000" font-family="sans-serif" font-size="14" font-style="italic" lengthAdjust="spacing" textLength="95" x="132.5" y="149.5762">&#171;Component&#187;</text><text fill="#000000" font-family="sans-serif" font-size="14" lengthAdjust="spacing" textLength="50" x="155" y="166.0645">:Router</text><rect fill="#E2E2F0" height="46.9766" rx="2.5" ry="2.5" style="stroke:#181818;stroke-width:0.5;" width="161" x="397.5" y="129.041"/><text fill="#000000" font-family="sans-serif" font-size="14" font-style="italic" lengthAdjust="spacing" textLength="95" x="430.5" y="149.5762">&#171;Component&#187;</text><text fill="#000000" font-family="sans-serif" font-size="14" lengthAdjust="spacing" textLength="147" x="404.5" y="166.0645">:DeviceControllerWeb</text><rect fill="#E2E2F0" height="46.9766" rx="2.5" ry="2.5" style="stroke:#181818;stroke-width:0.5;" width="85" x="875" y="129.041"/><text fill="#000000" font-family="sans-serif" font-size="14" lengthAdjust="spacing" textLength="71" x="882" y="149.5762">roomDTO:</text><text fill="#000000" font-family="sans-serif" font-size="14" lengthAdjust="spacing" textLength="70" x="882.5" y="166.0645">RoomDTO</text><rect fill="#E2E2F0" height="46.9766" rx="2.5" ry="2.5" style="stroke:#181818;stroke-width:0.5;" width="110" x="1049" y="129.041"/><text fill="#000000" font-family="sans-serif" font-size="14" font-style="italic" lengthAdjust="spacing" textLength="95" x="1056.5" y="149.5762">&#171;Component&#187;</text><text fill="#000000" font-family="sans-serif" font-size="14" lengthAdjust="spacing" textLength="96" x="1056" y="166.0645">:DeviceService</text><rect fill="#E2E2F0" height="46.9766" rx="2.5" ry="2.5" style="stroke:#181818;stroke-width:0.5;" width="131" x="1253.5" y="129.041"/><text fill="#000000" font-family="sans-serif" font-size="14" font-style="italic" lengthAdjust="spacing" textLength="95" x="1271.5" y="149.5762">&#171;Component&#187;</text><text fill="#000000" font-family="sans-serif" font-size="14" lengthAdjust="spacing" textLength="117" x="1260.5" y="166.0645">:RoomRepository</text><rect fill="#E2E2F0" height="46.9766" rx="2.5" ry="2.5" style="stroke:#181818;stroke-width:0.5;" width="135" x="1394.5" y="129.041"/><text fill="#000000" font-family="sans-serif" font-size="14" font-style="italic" lengthAdjust="spacing" textLength="95" x="1414.5" y="149.5762">&#171;Component&#187;</text><text fill="#000000" font-family="sans-serif" font-size="14" lengthAdjust="spacing" textLength="121" x="1401.5" y="166.0645">:DeviceRepository</text><rect fill="#E2E2F0" height="46.9766" rx="2.5" ry="2.5" style="stroke:#181818;stroke-width:0.5;" width="112" x="1539.5" y="129.041"/><text fill="#000000" font-family="sans-serif" font-size="14" font-style="italic" lengthAdjust="spacing" textLength="95" x="1548" y="149.5762">&#171;Component&#187;</text><text fill="#000000" font-family="sans-serif" font-size="14" lengthAdjust="spacing" textLength="98" x="1546.5" y="166.0645">:FactoryDevice</text><rect fill="#E2E2F0" height="46.9766" rx="2.5" ry="2.5" style="stroke:#181818;stroke-width:0.5;" width="183" x="1694.5" y="129.041"/><text fill="#000000" font-family="sans-serif" font-size="14" font-style="italic" lengthAdjust="spacing" textLength="95" x="1738.5" y="149.5762">&#171;Component&#187;</text><text fill="#000000" font-family="sans-serif" font-size="14" lengthAdjust="spacing" textLength="169" x="1701.5" y="166.0645">MapperDeviceDataModel</text><rect fill="#E2E2F0" height="46.9766" rx="2.5" ry="2.5" style="stroke:#181818;stroke-width:0.5;" width="109" x="2002.5" y="129.041"/><text fill="#000000" font-family="sans-serif" font-size="14" font-style="italic" lengthAdjust="spacing" textLength="95" x="2009.5" y="149.5762">&#171;Component&#187;</text><text fill="#000000" font-family="sans-serif" font-size="14" lengthAdjust="spacing" textLength="67" x="2023.5" y="166.0645">:DB Driver</text><rect fill="#E2E2F0" height="46.9766" rx="2.5" ry="2.5" style="stroke:#181818;stroke-width:0.5;" width="109" x="125.5" y="1431.4141"/><text fill="#000000" font-family="sans-serif" font-size="14" font-style="italic" lengthAdjust="spacing" textLength="95" x="132.5" y="1451.9492">&#171;Component&#187;</text><text fill="#000000" font-family="sans-serif" font-size="14" lengthAdjust="spacing" textLength="50" x="155" y="1468.4375">:Router</text><rect fill="#E2E2F0" height="46.9766" rx="2.5" ry="2.5" style="stroke:#181818;stroke-width:0.5;" width="161" x="397.5" y="1431.4141"/><text fill="#000000" font-family="sans-serif" font-size="14" font-style="italic" lengthAdjust="spacing" textLength="95" x="430.5" y="1451.9492">&#171;Component&#187;</text><text fill="#000000" font-family="sans-serif" font-size="14" lengthAdjust="spacing" textLength="147" x="404.5" y="1468.4375">:DeviceControllerWeb</text><rect fill="#E2E2F0" height="46.9766" rx="2.5" ry="2.5" style="stroke:#181818;stroke-width:0.5;" width="91" x="576" y="1431.4141"/><text fill="#000000" font-family="sans-serif" font-size="14" lengthAdjust="spacing" textLength="77" x="583" y="1451.9492">deviceDTO:</text><text fill="#000000" font-family="sans-serif" font-size="14" lengthAdjust="spacing" textLength="74" x="584.5" y="1468.4375">DeviceDTO</text><rect fill="#E2E2F0" height="46.9766" rx="2.5" ry="2.5" style="stroke:#181818;stroke-width:0.5;" width="75" x="677" y="1431.4141"/><text fill="#000000" font-family="sans-serif" font-size="14" lengthAdjust="spacing" textLength="61" x="684" y="1451.9492">deviceID:</text><text fill="#000000" font-family="sans-serif" font-size="14" lengthAdjust="spacing" textLength="58" x="685.5" y="1468.4375">DeviceID</text><rect fill="#E2E2F0" height="46.9766" rx="2.5" ry="2.5" style="stroke:#181818;stroke-width:0.5;" width="103" x="762" y="1431.4141"/><text fill="#000000" font-family="sans-serif" font-size="14" lengthAdjust="spacing" textLength="89" x="769" y="1451.9492">deviceModel:</text><text fill="#000000" font-family="sans-serif" font-size="14" lengthAdjust="spacing" textLength="86" x="770.5" y="1468.4375">DeviceModel</text><rect fill="#E2E2F0" height="46.9766" rx="2.5" ry="2.5" style="stroke:#181818;stroke-width:0.5;" width="85" x="875" y="1431.4141"/><text fill="#000000" font-family="sans-serif" font-size="14" lengthAdjust="spacing" textLength="71" x="882" y="1451.9492">roomDTO:</text><text fill="#000000" font-family="sans-serif" font-size="14" lengthAdjust="spacing" textLength="70" x="882.5" y="1468.4375">RoomDTO</text><rect fill="#E2E2F0" height="46.9766" rx="2.5" ry="2.5" style="stroke:#181818;stroke-width:0.5;" width="69" x="970" y="1431.4141"/><text fill="#000000" font-family="sans-serif" font-size="14" lengthAdjust="spacing" textLength="55" x="977" y="1451.9492">roomID:</text><text fill="#000000" font-family="sans-serif" font-size="14" lengthAdjust="spacing" textLength="54" x="977.5" y="1468.4375">RoomID</text><rect fill="#E2E2F0" height="46.9766" rx="2.5" ry="2.5" style="stroke:#181818;stroke-width:0.5;" width="110" x="1049" y="1431.4141"/><text fill="#000000" font-family="sans-serif" font-size="14" font-style="italic" lengthAdjust="spacing" textLength="95" x="1056.5" y="1451.9492">&#171;Component&#187;</text><text fill="#000000" font-family="sans-serif" font-size="14" lengthAdjust="spacing" textLength="96" x="1056" y="1468.4375">:DeviceService</text><rect fill="#E2E2F0" height="46.9766" rx="2.5" ry="2.5" style="stroke:#181818;stroke-width:0.5;" width="131" x="1253.5" y="1431.4141"/><text fill="#000000" font-family="sans-serif" font-size="14" font-style="italic" lengthAdjust="spacing" textLength="95" x="1271.5" y="1451.9492">&#171;Component&#187;</text><text fill="#000000" font-family="sans-serif" font-size="14" lengthAdjust="spacing" textLength="117" x="1260.5" y="1468.4375">:RoomRepository</text><rect fill="#E2E2F0" height="46.9766" rx="2.5" ry="2.5" style="stroke:#181818;stroke-width:0.5;" width="135" x="1394.5" y="1431.4141"/><text fill="#000000" font-family="sans-serif" font-size="14" font-style="italic" lengthAdjust="spacing" textLength="95" x="1414.5" y="1451.9492">&#171;Component&#187;</text><text fill="#000000" font-family="sans-serif" font-size="14" lengthAdjust="spacing" textLength="121" x="1401.5" y="1468.4375">:DeviceRepository</text><rect fill="#E2E2F0" height="46.9766" rx="2.5" ry="2.5" style="stroke:#181818;stroke-width:0.5;" width="112" x="1539.5" y="1431.4141"/><text fill="#000000" font-family="sans-serif" font-size="14" font-style="italic" lengthAdjust="spacing" textLength="95" x="1548" y="1451.9492">&#171;Component&#187;</text><text fill="#000000" font-family="sans-serif" font-size="14" lengthAdjust="spacing" textLength="98" x="1546.5" y="1468.4375">:FactoryDevice</text><rect fill="#E2E2F0" height="46.9766" rx="2.5" ry="2.5" style="stroke:#181818;stroke-width:0.5;" width="183" x="1694.5" y="1431.4141"/><text fill="#000000" font-family="sans-serif" font-size="14" font-style="italic" lengthAdjust="spacing" textLength="95" x="1738.5" y="1451.9492">&#171;Component&#187;</text><text fill="#000000" font-family="sans-serif" font-size="14" lengthAdjust="spacing" textLength="169" x="1701.5" y="1468.4375">MapperDeviceDataModel</text><rect fill="#E2E2F0" height="30.4883" rx="2.5" ry="2.5" style="stroke:#181818;stroke-width:0.5;" width="105" x="1887.5" y="1431.4141"/><text fill="#000000" font-family="sans-serif" font-size="14" lengthAdjust="spacing" textLength="91" x="1894.5" y="1451.9492">device:Device</text><rect fill="#E2E2F0" height="46.9766" rx="2.5" ry="2.5" style="stroke:#181818;stroke-width:0.5;" width="109" x="2002.5" y="1431.4141"/><text fill="#000000" font-family="sans-serif" font-size="14" font-style="italic" lengthAdjust="spacing" textLength="95" x="2009.5" y="1451.9492">&#171;Component&#187;</text><text fill="#000000" font-family="sans-serif" font-size="14" lengthAdjust="spacing" textLength="67" x="2023.5" y="1468.4375">:DB Driver</text><rect fill="none" height="39.4434" style="stroke:#000000;stroke-width:1.5;" width="188" x="127.5" y="185.0176"/><path d="M127.5,185.0176 L191.5,185.0176 L191.5,192.0176 L181.5,202.0176 L127.5,202.0176 L127.5,185.0176 " fill="#EEEEEE" style="stroke:#000000;stroke-width:2.0;"/><text fill="#000000" font-family="sans-serif" font-size="13" font-weight="bold" lengthAdjust="spacing" textLength="19" x="140.5" y="199.5859">ref</text><text fill="#000000" font-family="sans-serif" font-size="12" lengthAdjust="spacing" textLength="180" x="131.5" y="217.6191">UC03.1-SD-ListRoomsOfHouse</text><ellipse cx="10.5" cy="250.0215" fill="none" rx="4" ry="4" style="stroke:#181818;stroke-width:1.5;"/><polygon fill="#181818" points="163,246.7715,173,250.7715,163,254.7715,167,250.7715" style="stroke:#181818;stroke-width:1.0;"/><line style="stroke:#181818;stroke-width:1.0;" x1="15" x2="169" y1="250.7715" y2="250.7715"/><text fill="#000000" font-family="sans-serif" font-size="13" font-weight="bold" lengthAdjust="spacing" textLength="9" x="18" y="246.0293">1</text><text fill="#000000" font-family="sans-serif" font-size="13" lengthAdjust="spacing" textLength="109" x="31" y="246.0293">POST api/devices</text><polygon fill="#181818" points="461,291.3926,471,295.3926,461,299.3926,465,295.3926" style="stroke:#181818;stroke-width:1.0;"/><line style="stroke:#181818;stroke-width:1.0;" x1="185" x2="467" y1="295.3926" y2="295.3926"/><text fill="#000000" font-family="sans-serif" font-size="13" font-weight="bold" lengthAdjust="spacing" textLength="9" x="192" y="282.9951">2</text><text fill="#000000" font-family="sans-serif" font-size="13" lengthAdjust="spacing" textLength="252" x="205" y="275.3398">POST createDeviceAndSaveToRepository</text><text fill="#000000" font-family="sans-serif" font-size="13" lengthAdjust="spacing" textLength="245" x="205" y="290.6504">(@RequestBody DeviceDTO deviceDTO)</text><rect fill="#E2E2F0" height="46.9766" rx="2.5" ry="2.5" style="stroke:#181818;stroke-width:0.5;" width="75" x="677" y="303.3926"/><text fill="#000000" font-family="sans-serif" font-size="14" lengthAdjust="spacing" textLength="61" x="684" y="323.9277">deviceID:</text><text fill="#000000" font-family="sans-serif" font-size="14" lengthAdjust="spacing" textLength="58" x="685.5" y="340.416">DeviceID</text><polygon fill="#181818" points="665,320.7031,675,324.7031,665,328.7031,669,324.7031" style="stroke:#181818;stroke-width:1.0;"/><line style="stroke:#181818;stroke-width:1.0;stroke-dasharray:2.0,2.0;" x1="483" x2="671" y1="324.7031" y2="324.7031"/><text fill="#000000" font-family="sans-serif" font-size="13" font-weight="bold" lengthAdjust="spacing" textLength="9" x="490" y="319.9609">3</text><text fill="#000000" font-family="sans-serif" font-size="13" lengthAdjust="spacing" textLength="52" x="503" y="319.9609">&#171;create&#187;</text><rect fill="#E2E2F0" height="46.9766" rx="2.5" ry="2.5" style="stroke:#181818;stroke-width:0.5;" width="103" x="762" y="351.3691"/><text fill="#000000" font-family="sans-serif" font-size="14" lengthAdjust="spacing" textLength="89" x="769" y="371.9043">deviceModel:</text><text fill="#000000" font-family="sans-serif" font-size="14" lengthAdjust="spacing" textLength="86" x="770.5" y="388.3926">DeviceModel</text><polygon fill="#181818" points="750,368.6797,760,372.6797,750,376.6797,754,372.6797" style="stroke:#181818;stroke-width:1.0;"/><line style="stroke:#181818;stroke-width:1.0;stroke-dasharray:2.0,2.0;" x1="483" x2="756" y1="372.6797" y2="372.6797"/><text fill="#000000" font-family="sans-serif" font-size="13" font-weight="bold" lengthAdjust="spacing" textLength="9" x="490" y="367.9375">4</text><text fill="#000000" font-family="sans-serif" font-size="13" lengthAdjust="spacing" textLength="52" x="503" y="367.9375">&#171;create&#187;</text><polygon fill="#181818" points="900.5,416.6563,910.5,420.6563,900.5,424.6563,904.5,420.6563" style="stroke:#181818;stroke-width:1.0;"/><line style="stroke:#181818;stroke-width:1.0;" x1="483" x2="906.5" y1="420.6563" y2="420.6563"/><text fill="#000000" font-family="sans-serif" font-size="13" font-weight="bold" lengthAdjust="spacing" textLength="9" x="490" y="415.9141">5</text><text fill="#000000" font-family="sans-serif" font-size="13" lengthAdjust="spacing" textLength="69" x="503" y="415.9141">roomName</text><polygon fill="#181818" points="494,445.9668,484,449.9668,494,453.9668,490,449.9668" style="stroke:#181818;stroke-width:1.0;"/><line style="stroke:#181818;stroke-width:1.0;stroke-dasharray:2.0,2.0;" x1="488" x2="911.5" y1="449.9668" y2="449.9668"/><text fill="#000000" font-family="sans-serif" font-size="13" font-weight="bold" lengthAdjust="spacing" textLength="9" x="500" y="445.2246">6</text><text fill="#000000" font-family="sans-serif" font-size="13" lengthAdjust="spacing" textLength="110" x="513" y="445.2246">String roomName</text><rect fill="#E2E2F0" height="46.9766" rx="2.5" ry="2.5" style="stroke:#181818;stroke-width:0.5;" width="69" x="970" y="457.9668"/><text fill="#000000" font-family="sans-serif" font-size="14" lengthAdjust="spacing" textLength="55" x="977" y="478.502">roomID:</text><text fill="#000000" font-family="sans-serif" font-size="14" lengthAdjust="spacing" textLength="54" x="977.5" y="494.9902">RoomID</text><polygon fill="#181818" points="958,475.2773,968,479.2773,958,483.2773,962,479.2773" style="stroke:#181818;stroke-width:1.0;"/><line style="stroke:#181818;stroke-width:1.0;stroke-dasharray:2.0,2.0;" x1="483" x2="964" y1="479.2773" y2="479.2773"/><text fill="#000000" font-family="sans-serif" font-size="13" font-weight="bold" lengthAdjust="spacing" textLength="9" x="490" y="474.5352">7</text><text fill="#000000" font-family="sans-serif" font-size="13" lengthAdjust="spacing" textLength="52" x="503" y="474.5352">&#171;create&#187;</text><polygon fill="#181818" points="1087,523.2539,1097,527.2539,1087,531.2539,1091,527.2539" style="stroke:#181818;stroke-width:1.0;"/><line style="stroke:#181818;stroke-width:1.0;" x1="483" x2="1093" y1="527.2539" y2="527.2539"/><text fill="#000000" font-family="sans-serif" font-size="13" font-weight="bold" lengthAdjust="spacing" textLength="9" x="490" y="522.5117">8</text><text fill="#000000" font-family="sans-serif" font-size="13" lengthAdjust="spacing" textLength="423" x="503" y="522.5117">createDeviceAndSaveToRepository (deviceID, deviceModel, roomID)</text><polygon fill="#181818" points="1302,552.5645,1312,556.5645,1302,560.5645,1306,556.5645" style="stroke:#181818;stroke-width:1.0;"/><line style="stroke:#181818;stroke-width:1.0;" x1="1109" x2="1308" y1="556.5645" y2="556.5645"/><text fill="#000000" font-family="sans-serif" font-size="13" font-weight="bold" lengthAdjust="spacing" textLength="9" x="1116" y="551.8223">9</text><text fill="#000000" font-family="sans-serif" font-size="13" lengthAdjust="spacing" textLength="173" x="1129" y="551.8223">containsEntityByID(roomID)</text><polygon fill="#181818" points="2040,581.875,2050,585.875,2040,589.875,2044,585.875" style="stroke:#181818;stroke-width:1.0;"/><line style="stroke:#181818;stroke-width:1.0;" x1="1324" x2="2046" y1="585.875" y2="585.875"/><text fill="#000000" font-family="sans-serif" font-size="13" font-weight="bold" lengthAdjust="spacing" textLength="18" x="1331" y="581.1328">10</text><text fill="#000000" font-family="sans-serif" font-size="13" lengthAdjust="spacing" textLength="173" x="1353" y="581.1328">containsEntityByID(roomID)</text><ellipse cx="2208.5" cy="614.4355" fill="none" rx="4" ry="4" style="stroke:#181818;stroke-width:1.5;"/><polygon fill="#181818" points="2191.5,611.1855,2201.5,615.1855,2191.5,619.1855,2195.5,615.1855" style="stroke:#181818;stroke-width:1.0;"/><line style="stroke:#181818;stroke-width:1.0;" x1="2062" x2="2197.5" y1="615.1855" y2="615.1855"/><text fill="#000000" font-family="sans-serif" font-size="13" font-weight="bold" lengthAdjust="spacing" textLength="18" x="2069" y="610.4434">11</text><text fill="#000000" font-family="sans-serif" font-size="13" lengthAdjust="spacing" textLength="112" x="2091" y="610.4434">DATABASE QUERY</text><polygon fill="#181818" points="2073,640.4961,2063,644.4961,2073,648.4961,2069,644.4961" style="stroke:#181818;stroke-width:1.0;"/><ellipse cx="2208.5" cy="643.7461" fill="none" rx="4" ry="4" style="stroke:#181818;stroke-width:1.5;"/><line style="stroke:#181818;stroke-width:1.0;stroke-dasharray:2.0,2.0;" x1="2067" x2="2204" y1="644.4961" y2="644.4961"/><text fill="#000000" font-family="sans-serif" font-size="13" font-weight="bold" lengthAdjust="spacing" textLength="18" x="2079" y="639.7539">12</text><text fill="#000000" font-family="sans-serif" font-size="13" lengthAdjust="spacing" textLength="109" x="2101" y="639.7539">QUERY RESPONSE</text><polygon fill="#181818" points="1335,669.8066,1325,673.8066,1335,677.8066,1331,673.8066" style="stroke:#181818;stroke-width:1.0;"/><line style="stroke:#181818;stroke-width:1.0;stroke-dasharray:2.0,2.0;" x1="1329" x2="2051" y1="673.8066" y2="673.8066"/><text fill="#000000" font-family="sans-serif" font-size="13" font-weight="bold" lengthAdjust="spacing" textLength="18" x="1341" y="669.0645">13</text><text fill="#000000" font-family="sans-serif" font-size="13" lengthAdjust="spacing" textLength="25" x="1363" y="669.0645">true</text><polygon fill="#181818" points="1120,699.1172,1110,703.1172,1120,707.1172,1116,703.1172" style="stroke:#181818;stroke-width:1.0;"/><line style="stroke:#181818;stroke-width:1.0;stroke-dasharray:2.0,2.0;" x1="1114" x2="1313" y1="703.1172" y2="703.1172"/><text fill="#000000" font-family="sans-serif" font-size="13" font-weight="bold" lengthAdjust="spacing" textLength="18" x="1126" y="698.375">14</text><text fill="#000000" font-family="sans-serif" font-size="13" lengthAdjust="spacing" textLength="25" x="1148" y="698.375">true</text><polygon fill="#181818" points="1445,728.4277,1455,732.4277,1445,736.4277,1449,732.4277" style="stroke:#181818;stroke-width:1.0;"/><line style="stroke:#181818;stroke-width:1.0;" x1="1109" x2="1451" y1="732.4277" y2="732.4277"/><text fill="#000000" font-family="sans-serif" font-size="13" font-weight="bold" lengthAdjust="spacing" textLength="18" x="1116" y="727.6855">15</text><text fill="#000000" font-family="sans-serif" font-size="13" lengthAdjust="spacing" textLength="180" x="1138" y="727.6855">containsEntityByID(deviceID)</text><polygon fill="#181818" points="2040,757.7383,2050,761.7383,2040,765.7383,2044,761.7383" style="stroke:#181818;stroke-width:1.0;"/><line style="stroke:#181818;stroke-width:1.0;" x1="1467" x2="2046" y1="761.7383" y2="761.7383"/><text fill="#000000" font-family="sans-serif" font-size="13" font-weight="bold" lengthAdjust="spacing" textLength="18" x="1474" y="756.9961">16</text><text fill="#000000" font-family="sans-serif" font-size="13" lengthAdjust="spacing" textLength="180" x="1496" y="756.9961">containsEntityByID(deviceID)</text><ellipse cx="2208.5" cy="790.2988" fill="none" rx="4" ry="4" style="stroke:#181818;stroke-width:1.5;"/><polygon fill="#181818" points="2191.5,787.0488,2201.5,791.0488,2191.5,795.0488,2195.5,791.0488" style="stroke:#181818;stroke-width:1.0;"/><line style="stroke:#181818;stroke-width:1.0;" x1="2062" x2="2197.5" y1="791.0488" y2="791.0488"/><text fill="#000000" font-family="sans-serif" font-size="13" font-weight="bold" lengthAdjust="spacing" textLength="18" x="2069" y="786.3066">17</text><text fill="#000000" font-family="sans-serif" font-size="13" lengthAdjust="spacing" textLength="112" x="2091" y="786.3066">DATABASE QUERY</text><polygon fill="#181818" points="2073,816.3594,2063,820.3594,2073,824.3594,2069,820.3594" style="stroke:#181818;stroke-width:1.0;"/><ellipse cx="2208.5" cy="819.6094" fill="none" rx="4" ry="4" style="stroke:#181818;stroke-width:1.5;"/><line style="stroke:#181818;stroke-width:1.0;stroke-dasharray:2.0,2.0;" x1="2067" x2="2204" y1="820.3594" y2="820.3594"/><text fill="#000000" font-family="sans-serif" font-size="13" font-weight="bold" lengthAdjust="spacing" textLength="18" x="2079" y="815.6172">18</text><text fill="#000000" font-family="sans-serif" font-size="13" lengthAdjust="spacing" textLength="109" x="2101" y="815.6172">QUERY RESPONSE</text><polygon fill="#181818" points="1478,845.6699,1468,849.6699,1478,853.6699,1474,849.6699" style="stroke:#181818;stroke-width:1.0;"/><line style="stroke:#181818;stroke-width:1.0;stroke-dasharray:2.0,2.0;" x1="1472" x2="2051" y1="849.6699" y2="849.6699"/><text fill="#000000" font-family="sans-serif" font-size="13" font-weight="bold" lengthAdjust="spacing" textLength="18" x="1484" y="844.9277">19</text><text fill="#000000" font-family="sans-serif" font-size="13" lengthAdjust="spacing" textLength="30" x="1506" y="844.9277">false</text><polygon fill="#181818" points="1120,874.9805,1110,878.9805,1120,882.9805,1116,878.9805" style="stroke:#181818;stroke-width:1.0;"/><line style="stroke:#181818;stroke-width:1.0;stroke-dasharray:2.0,2.0;" x1="1114" x2="1456" y1="878.9805" y2="878.9805"/><text fill="#000000" font-family="sans-serif" font-size="13" font-weight="bold" lengthAdjust="spacing" textLength="18" x="1126" y="874.2383">20</text><text fill="#000000" font-family="sans-serif" font-size="13" lengthAdjust="spacing" textLength="30" x="1148" y="874.2383">false</text><polygon fill="#181818" points="1578.5,904.291,1588.5,908.291,1578.5,912.291,1582.5,908.291" style="stroke:#181818;stroke-width:1.0;"/><line style="stroke:#181818;stroke-width:1.0;" x1="1109" x2="1584.5" y1="908.291" y2="908.291"/><text fill="#000000" font-family="sans-serif" font-size="13" font-weight="bold" lengthAdjust="spacing" textLength="18" x="1116" y="903.5488">21</text><text fill="#000000" font-family="sans-serif" font-size="13" lengthAdjust="spacing" textLength="283" x="1138" y="903.5488">createDevice(deviceID, deviceModel, roomID)</text><rect fill="#E2E2F0" height="30.4883" rx="2.5" ry="2.5" style="stroke:#181818;stroke-width:0.5;" width="105" x="1887.5" y="916.291"/><text fill="#000000" font-family="sans-serif" font-size="14" lengthAdjust="spacing" textLength="91" x="1894.5" y="936.8262">device:Device</text><polygon fill="#181818" points="1875.5,933.6016,1885.5,937.6016,1875.5,941.6016,1879.5,937.6016" style="stroke:#181818;stroke-width:1.0;"/><line style="stroke:#181818;stroke-width:1.0;" x1="1600.5" x2="1881.5" y1="937.6016" y2="937.6016"/><text fill="#000000" font-family="sans-serif" font-size="13" font-weight="bold" lengthAdjust="spacing" textLength="18" x="1607.5" y="932.8594">22</text><text fill="#000000" font-family="sans-serif" font-size="13" lengthAdjust="spacing" textLength="59" x="1629.5" y="932.8594">&#171;creates&#187;</text><polygon fill="#181818" points="1120,965.0898,1110,969.0898,1120,973.0898,1116,969.0898" style="stroke:#181818;stroke-width:1.0;"/><line style="stroke:#181818;stroke-width:1.0;stroke-dasharray:2.0,2.0;" x1="1114" x2="1589.5" y1="969.0898" y2="969.0898"/><text fill="#000000" font-family="sans-serif" font-size="13" font-weight="bold" lengthAdjust="spacing" textLength="18" x="1126" y="964.3477">23</text><text fill="#000000" font-family="sans-serif" font-size="13" lengthAdjust="spacing" textLength="42" x="1148" y="964.3477">Device</text><polygon fill="#181818" points="1445,994.4004,1455,998.4004,1445,1002.4004,1449,998.4004" style="stroke:#181818;stroke-width:1.0;"/><line style="stroke:#181818;stroke-width:1.0;" x1="1109" x2="1451" y1="998.4004" y2="998.4004"/><text fill="#000000" font-family="sans-serif" font-size="13" font-weight="bold" lengthAdjust="spacing" textLength="18" x="1116" y="993.6582">24</text><text fill="#000000" font-family="sans-serif" font-size="13" lengthAdjust="spacing" textLength="76" x="1138" y="993.6582">save(device)</text><polygon fill="#181818" points="2040,1023.7109,2050,1027.7109,2040,1031.7109,2044,1027.7109" style="stroke:#181818;stroke-width:1.0;"/><line style="stroke:#181818;stroke-width:1.0;" x1="1467" x2="2046" y1="1027.7109" y2="1027.7109"/><text fill="#000000" font-family="sans-serif" font-size="13" font-weight="bold" lengthAdjust="spacing" textLength="18" x="1474" y="1022.9688">25</text><text fill="#000000" font-family="sans-serif" font-size="13" lengthAdjust="spacing" textLength="76" x="1496" y="1022.9688">save(device)</text><ellipse cx="2208.5" cy="1056.2715" fill="none" rx="4" ry="4" style="stroke:#181818;stroke-width:1.5;"/><polygon fill="#181818" points="2191.5,1053.0215,2201.5,1057.0215,2191.5,1061.0215,2195.5,1057.0215" style="stroke:#181818;stroke-width:1.0;"/><line style="stroke:#181818;stroke-width:1.0;" x1="2062" x2="2197.5" y1="1057.0215" y2="1057.0215"/><text fill="#000000" font-family="sans-serif" font-size="13" font-weight="bold" lengthAdjust="spacing" textLength="18" x="2069" y="1052.2793">26</text><text fill="#000000" font-family="sans-serif" font-size="13" lengthAdjust="spacing" textLength="112" x="2091" y="1052.2793">DATABASE QUERY</text><polygon fill="#181818" points="2073,1082.332,2063,1086.332,2073,1090.332,2069,1086.332" style="stroke:#181818;stroke-width:1.0;"/><ellipse cx="2208.5" cy="1085.582" fill="none" rx="4" ry="4" style="stroke:#181818;stroke-width:1.5;"/><line style="stroke:#181818;stroke-width:1.0;stroke-dasharray:2.0,2.0;" x1="2067" x2="2204" y1="1086.332" y2="1086.332"/><text fill="#000000" font-family="sans-serif" font-size="13" font-weight="bold" lengthAdjust="spacing" textLength="18" x="2079" y="1081.5898">27</text><text fill="#000000" font-family="sans-serif" font-size="13" lengthAdjust="spacing" textLength="109" x="2101" y="1081.5898">QUERY RESPONSE</text><polygon fill="#181818" points="1478,1111.6426,1468,1115.6426,1478,1119.6426,1474,1115.6426" style="stroke:#181818;stroke-width:1.0;"/><line style="stroke:#181818;stroke-width:1.0;stroke-dasharray:2.0,2.0;" x1="1472" x2="2051" y1="1115.6426" y2="1115.6426"/><text fill="#000000" font-family="sans-serif" font-size="13" font-weight="bold" lengthAdjust="spacing" textLength="18" x="1484" y="1110.9004">28</text><text fill="#000000" font-family="sans-serif" font-size="13" lengthAdjust="spacing" textLength="109" x="1506" y="1110.9004">DeviceDataModel</text><polygon fill="#181818" points="1769,1140.9531,1779,1144.9531,1769,1148.9531,1773,1144.9531" style="stroke:#181818;stroke-width:1.0;"/><line style="stroke:#181818;stroke-width:1.0;" x1="1467" x2="1775" y1="1144.9531" y2="1144.9531"/><text fill="#000000" font-family="sans-serif" font-size="13" font-weight="bold" lengthAdjust="spacing" textLength="18" x="1474" y="1140.2109">29</text><text fill="#000000" font-family="sans-serif" font-size="13" lengthAdjust="spacing" textLength="273" x="1496" y="1140.2109">toDomain(factoryDevice, DeviceDataModel)</text><polygon fill="#181818" points="1478,1170.2637,1468,1174.2637,1478,1178.2637,1474,1174.2637" style="stroke:#181818;stroke-width:1.0;"/><line style="stroke:#181818;stroke-width:1.0;stroke-dasharray:2.0,2.0;" x1="1472" x2="1780" y1="1174.2637" y2="1174.2637"/><text fill="#000000" font-family="sans-serif" font-size="13" font-weight="bold" lengthAdjust="spacing" textLength="18" x="1484" y="1169.5215">30</text><text fill="#000000" font-family="sans-serif" font-size="13" lengthAdjust="spacing" textLength="40" x="1506" y="1169.5215">device</text><polygon fill="#181818" points="1120,1199.5742,1110,1203.5742,1120,1207.5742,1116,1203.5742" style="stroke:#181818;stroke-width:1.0;"/><line style="stroke:#181818;stroke-width:1.0;stroke-dasharray:2.0,2.0;" x1="1114" x2="1456" y1="1203.5742" y2="1203.5742"/><text fill="#000000" font-family="sans-serif" font-size="13" font-weight="bold" lengthAdjust="spacing" textLength="18" x="1126" y="1198.832">31</text><text fill="#000000" font-family="sans-serif" font-size="13" lengthAdjust="spacing" textLength="42" x="1148" y="1198.832">Device</text><polygon fill="#181818" points="1923,1228.8848,1933,1232.8848,1923,1236.8848,1927,1232.8848" style="stroke:#181818;stroke-width:1.0;"/><line style="stroke:#181818;stroke-width:1.0;" x1="1109" x2="1929" y1="1232.8848" y2="1232.8848"/><text fill="#000000" font-family="sans-serif" font-size="13" font-weight="bold" lengthAdjust="spacing" textLength="18" x="1116" y="1228.1426">32</text><text fill="#000000" font-family="sans-serif" font-size="13" lengthAdjust="spacing" textLength="56" x="1138" y="1228.1426">identity()</text><polygon fill="#181818" points="1120,1258.1953,1110,1262.1953,1120,1266.1953,1116,1262.1953" style="stroke:#181818;stroke-width:1.0;"/><line style="stroke:#181818;stroke-width:1.0;stroke-dasharray:2.0,2.0;" x1="1114" x2="1934" y1="1262.1953" y2="1262.1953"/><text fill="#000000" font-family="sans-serif" font-size="13" font-weight="bold" lengthAdjust="spacing" textLength="18" x="1126" y="1257.4531">33</text><text fill="#000000" font-family="sans-serif" font-size="13" lengthAdjust="spacing" textLength="56" x="1148" y="1257.4531">DeviceID</text><polygon fill="#181818" points="494,1287.5059,484,1291.5059,494,1295.5059,490,1291.5059" style="stroke:#181818;stroke-width:1.0;"/><line style="stroke:#181818;stroke-width:1.0;stroke-dasharray:2.0,2.0;" x1="488" x2="1098" y1="1291.5059" y2="1291.5059"/><text fill="#000000" font-family="sans-serif" font-size="13" font-weight="bold" lengthAdjust="spacing" textLength="18" x="500" y="1286.7637">34</text><text fill="#000000" font-family="sans-serif" font-size="13" lengthAdjust="spacing" textLength="56" x="522" y="1286.7637">DeviceID</text><rect fill="#E2E2F0" height="46.9766" rx="2.5" ry="2.5" style="stroke:#181818;stroke-width:0.5;" width="91" x="576" y="1299.5059"/><text fill="#000000" font-family="sans-serif" font-size="14" lengthAdjust="spacing" textLength="77" x="583" y="1320.041">deviceDTO:</text><text fill="#000000" font-family="sans-serif" font-size="14" lengthAdjust="spacing" textLength="74" x="584.5" y="1336.5293">DeviceDTO</text><polygon fill="#181818" points="564,1316.8164,574,1320.8164,564,1324.8164,568,1320.8164" style="stroke:#181818;stroke-width:1.0;"/><line style="stroke:#181818;stroke-width:1.0;stroke-dasharray:2.0,2.0;" x1="483" x2="570" y1="1320.8164" y2="1320.8164"/><text fill="#000000" font-family="sans-serif" font-size="13" font-weight="bold" lengthAdjust="spacing" textLength="18" x="490" y="1316.0742">35</text><text fill="#000000" font-family="sans-serif" font-size="13" lengthAdjust="spacing" textLength="52" x="512" y="1316.0742">&#171;create&#187;</text><polygon fill="#181818" points="196,1364.793,186,1368.793,196,1372.793,192,1368.793" style="stroke:#181818;stroke-width:1.0;"/><line style="stroke:#181818;stroke-width:1.0;stroke-dasharray:2.0,2.0;" x1="190" x2="472" y1="1368.793" y2="1368.793"/><text fill="#000000" font-family="sans-serif" font-size="13" font-weight="bold" lengthAdjust="spacing" textLength="18" x="202" y="1364.0508">36</text><text fill="#000000" font-family="sans-serif" font-size="13" lengthAdjust="spacing" textLength="232" x="224" y="1364.0508">newDeviceDTO, HttpStatus.CREATED</text><ellipse cx="10.5" cy="1412.6641" fill="none" rx="4" ry="4" style="stroke:#181818;stroke-width:1.5;"/><polygon fill="#181818" points="27.5,1409.4141,17.5,1413.4141,27.5,1417.4141,23.5,1413.4141" style="stroke:#181818;stroke-width:1.0;"/><line style="stroke:#181818;stroke-width:1.0;stroke-dasharray:2.0,2.0;" x1="25.5" x2="174" y1="1413.4141" y2="1413.4141"/><text fill="#000000" font-family="sans-serif" font-size="13" font-weight="bold" lengthAdjust="spacing" textLength="18" x="28" y="1401.0166">37</text><text fill="#000000" font-family="sans-serif" font-size="13" lengthAdjust="spacing" textLength="96" x="50" y="1393.3613">JSON response,</text><text fill="#000000" font-family="sans-serif" font-size="13" lengthAdjust="spacing" textLength="129" x="50" y="1408.6719">HttpStatus.CREATED</text><!--SRC=[lLVRRjCm6BxtKvXnGQcQ5eIuYQgAjYbiQ5j7qWaXoeNRk5sqnWwsKoXFZ-F4ETXfLv3WQexxVV_vuBru42BXxc2Gx10HQRphhsayuFXxYiaQEs64jWp50AM2aZHUOGP497OOtazVlONZC8G4_u0XtaTh30M5ZDAu3y2pXA5jZA30z1SKBCLWHN_2Y-4mI5V1WGiSZqPB0eV3AIK2HGGpzGsXEq7hHqp22_ZSG-pn0yC7JPtIEA444v53tG2pFMOIU1rj7uH2WWGn4QsZHBe2BroVfY9380xp8sn8CT2USY8pYD7T3hFFUAMerSqfUXu2Rp5tbyJJPyKlVsaZN7ab_ighmQ-yDlGD3V6k9AYl6aTzDsbPEdAR_FoauCMj3LNM-EfG0arBYZXbqPT_5AnnSpB6cMmV9vH7Wh93aPdwrHaPClZcvKa9xz4wm-GSHIzkJh5kK99WLYGL2LJ5tRXxkZxSckRyQBeuWHwBzaNLXglymn0C6Dv0cjtdPGraCxxfltO2pxcEkCWYokURIvfo36GlGGa7u2jrHWNUXNVpO05H4WroipYGKOZsI60j4HGD8pbL_HUyDSCIcPi_9c60zdX1QmbOaiuxFniWN4neU81bErIjyB9IM8a7jKvpf6BT2TqkT6K4ShNI_LQOIi0fv4YNlOHafriKuyeAtH8QunYE1u95P5iHGsnH3RFotZbjKQDnt2S3sz4HwTMTxXMgQZ5jo0MWsP-g3Eez9nNdKvZFY1pkXydXokjOCfiSOBHjbeUYMCyJfz6Wh75dHB-vq1ilnfDnC8EVxcV-b-hNeUDaFwjRwC-2k_bjCAkHMxnIUwUMg5AbQRkT2PDgE6y5r1n2hJ7GsRCIPKd-Wy2s2Fq7eRNzsw0TRu-kxO8TNujz912r41U3kjabPtT4mGPwt9ScTRjLV_9ijfO8s-fYOjVCrcBFA0Wkkxamz-yBe5t8VqcuiUlEJFt8vCdUeXwDPHLtDlLbt3E1Lf0grURQRJSujBBLBkTqfNf7f3mz3LmOXLWrQiVofU0SLoXVNPPAQv0RE-euKs-2riqfTvUvfVHhsN4Q2kHJlzpbFNWf_t48118fxq_zsNWnQoYkhNNvzCWawRV7ns1-AvyaN3vdk4pxafmMf1yalm40]--></g></svg>