<?xml version="1.0" encoding="us-ascii" standalone="no"?><svg xmlns="http://www.w3.org/2000/svg" xmlns:xlink="http://www.w3.org/1999/xlink" contentStyleType="text/css" height="1399px" preserveAspectRatio="none" style="width:2629px;height:1399px;background:#FFFFFF;" version="1.1" viewBox="0 0 2629 1399" width="2629px" zoomAndPan="magnify"><defs/><g><rect fill="#A9A9A9" height="1349.8164" style="stroke:#181818;stroke-width:0.5;" width="2367.5" x="158.5" y="43.4883"/><text fill="#000000" font-family="sans-serif" font-size="13" font-weight="bold" lengthAdjust="spacing" textLength="87" x="1298.75" y="56.0566">&#171;SubSystem&#187;</text><text fill="#000000" font-family="sans-serif" font-size="13" font-weight="bold" lengthAdjust="spacing" textLength="80" x="1302.75" y="71.3672">&#171;Container&#187;</text><text fill="#000000" font-family="sans-serif" font-size="13" font-weight="bold" lengthAdjust="spacing" textLength="60" x="1310.75" y="86.6777">:Backend</text><rect fill="#D3D3D3" height="1298.8848" style="stroke:#181818;stroke-width:0.5;" width="2367.5" x="158.5" y="94.4199"/><text fill="#000000" font-family="sans-serif" font-size="13" font-weight="bold" lengthAdjust="spacing" textLength="92" x="1296.25" y="106.9883">&#171;Component&#187;</text><text fill="#000000" font-family="sans-serif" font-size="13" font-weight="bold" lengthAdjust="spacing" textLength="46" x="1304.25" y="122.2988">:Server</text><text fill="#000000" font-family="sans-serif" font-size="14" font-weight="bold" lengthAdjust="spacing" textLength="965" x="832.25" y="28.5352">US06 - As a Room Owner [or Power User, or Administrator], I want to get a list of all devices in a room, so that I can configure them.</text><line style="stroke:#181818;stroke-width:0.5;stroke-dasharray:5.0,5.0;" x1="217" x2="217" y1="177.0176" y2="1339.3281"/><rect fill="#FFFFFF" height="1070.5566" style="stroke:#181818;stroke-width:1.0;" width="10" x="212" y="250.7715"/><line style="stroke:#181818;stroke-width:0.5;stroke-dasharray:5.0,5.0;" x1="563" x2="563" y1="177.0176" y2="1339.3281"/><rect fill="#FFFFFF" height="981.3145" style="stroke:#181818;stroke-width:1.0;" width="10" x="558" y="295.3926"/><line style="stroke:#181818;stroke-width:0.5;stroke-dasharray:5.0,5.0;" x1="713.5" x2="713.5" y1="303.3926" y2="1339.3281"/><line style="stroke:#181818;stroke-width:0.5;stroke-dasharray:5.0,5.0;" x1="840" x2="840" y1="177.0176" y2="1339.3281"/><rect fill="#FFFFFF" height="620.877" style="stroke:#181818;stroke-width:1.0;" width="10" x="835" y="356.1914"/><line style="stroke:#181818;stroke-width:0.5;stroke-dasharray:5.0,5.0;" x1="1055" x2="1055" y1="177.0176" y2="1339.3281"/><rect fill="#FFFFFF" height="146.5527" style="stroke:#181818;stroke-width:1.0;" width="10" x="1050" y="385.502"/><line style="stroke:#181818;stroke-width:0.5;stroke-dasharray:5.0,5.0;" x1="1198" x2="1198" y1="177.0176" y2="1339.3281"/><rect fill="#FFFFFF" height="205.1738" style="stroke:#181818;stroke-width:1.0;" width="10" x="1193" y="561.3652"/><line style="stroke:#181818;stroke-width:0.5;stroke-dasharray:5.0,5.0;" x1="1566" x2="1566" y1="177.0176" y2="1339.3281"/><rect fill="#FFFFFF" height="29.3105" style="stroke:#181818;stroke-width:1.0;" width="10" x="1561" y="707.918"/><line style="stroke:#181818;stroke-width:0.5;stroke-dasharray:5.0,5.0;" x1="1748.5" x2="1748.5" y1="774.5391" y2="1339.3281"/><rect fill="#FFFFFF" height="13" style="stroke:#181818;stroke-width:1.0;" width="10" x="1743.5" y="933.7578"/><line style="stroke:#181818;stroke-width:0.5;stroke-dasharray:5.0,5.0;" x1="1890" x2="1890" y1="177.0176" y2="1339.3281"/><rect fill="#FFFFFF" height="29.3105" style="stroke:#181818;stroke-width:1.0;" width="10" x="1885" y="875.1367"/><line style="stroke:#181818;stroke-width:0.5;stroke-dasharray:5.0,5.0;" x1="2024.5" x2="2024.5" y1="177.0176" y2="1339.3281"/><rect fill="#FFFFFF" height="225.707" style="stroke:#181818;stroke-width:1.0;" width="10" x="2019.5" y="1006.3789"/><line style="stroke:#181818;stroke-width:0.5;stroke-dasharray:5.0,5.0;" x1="2232.5" x2="2232.5" y1="1014.3789" y2="1339.3281"/><rect fill="#FFFFFF" height="13" style="stroke:#181818;stroke-width:1.0;" width="10" x="2227.5" y="1188.7754"/><line style="stroke:#181818;stroke-width:0.5;stroke-dasharray:5.0,5.0;" x1="2357" x2="2357" y1="1135.9766" y2="1339.3281"/><line style="stroke:#181818;stroke-width:0.5;stroke-dasharray:5.0,5.0;" x1="2467.5" x2="2467.5" y1="177.0176" y2="1339.3281"/><rect fill="#FFFFFF" height="87.9316" style="stroke:#181818;stroke-width:1.0;" width="10" x="2462.5" y="414.8125"/><rect fill="#FFFFFF" height="87.9316" style="stroke:#181818;stroke-width:1.0;" width="10" x="2462.5" y="590.6758"/><rect fill="#E2E2F0" height="46.9766" rx="2.5" ry="2.5" style="stroke:#181818;stroke-width:0.5;" width="109" x="162.5" y="129.041"/><text fill="#000000" font-family="sans-serif" font-size="14" font-style="italic" lengthAdjust="spacing" textLength="95" x="169.5" y="149.5762">&#171;Component&#187;</text><text fill="#000000" font-family="sans-serif" font-size="14" lengthAdjust="spacing" textLength="50" x="192" y="166.0645">:Router</text><rect fill="#E2E2F0" height="46.9766" rx="2.5" ry="2.5" style="stroke:#181818;stroke-width:0.5;" width="157" x="484.5" y="129.041"/><text fill="#000000" font-family="sans-serif" font-size="14" font-style="italic" lengthAdjust="spacing" textLength="95" x="515.5" y="149.5762">&#171;Component&#187;</text><text fill="#000000" font-family="sans-serif" font-size="14" lengthAdjust="spacing" textLength="143" x="491.5" y="166.0645">:RoomControllerWeb</text><rect fill="#E2E2F0" height="46.9766" rx="2.5" ry="2.5" style="stroke:#181818;stroke-width:0.5;" width="110" x="785" y="129.041"/><text fill="#000000" font-family="sans-serif" font-size="14" font-style="italic" lengthAdjust="spacing" textLength="95" x="792.5" y="149.5762">&#171;Component&#187;</text><text fill="#000000" font-family="sans-serif" font-size="14" lengthAdjust="spacing" textLength="96" x="792" y="166.0645">:DeviceService</text><rect fill="#E2E2F0" height="46.9766" rx="2.5" ry="2.5" style="stroke:#181818;stroke-width:0.5;" width="131" x="989.5" y="129.041"/><text fill="#000000" font-family="sans-serif" font-size="14" font-style="italic" lengthAdjust="spacing" textLength="95" x="1007.5" y="149.5762">&#171;Component&#187;</text><text fill="#000000" font-family="sans-serif" font-size="14" lengthAdjust="spacing" textLength="117" x="996.5" y="166.0645">:RoomRepository</text><rect fill="#E2E2F0" height="46.9766" rx="2.5" ry="2.5" style="stroke:#181818;stroke-width:0.5;" width="135" x="1130.5" y="129.041"/><text fill="#000000" font-family="sans-serif" font-size="14" font-style="italic" lengthAdjust="spacing" textLength="95" x="1150.5" y="149.5762">&#171;Component&#187;</text><text fill="#000000" font-family="sans-serif" font-size="14" lengthAdjust="spacing" textLength="121" x="1137.5" y="166.0645">:DeviceRepository</text><rect fill="#E2E2F0" height="46.9766" rx="2.5" ry="2.5" style="stroke:#181818;stroke-width:0.5;" width="187" x="1472.5" y="129.041"/><text fill="#000000" font-family="sans-serif" font-size="14" font-style="italic" lengthAdjust="spacing" textLength="95" x="1518.5" y="149.5762">&#171;Component&#187;</text><text fill="#000000" font-family="sans-serif" font-size="14" lengthAdjust="spacing" textLength="173" x="1479.5" y="166.0645">:MapperDeviceDataModel</text><rect fill="#E2E2F0" height="30.4883" rx="2.5" ry="2.5" style="stroke:#181818;stroke-width:0.5;" width="105" x="1837.5" y="145.5293"/><text fill="#000000" font-family="sans-serif" font-size="14" lengthAdjust="spacing" textLength="91" x="1844.5" y="166.0645">device:Device</text><rect fill="#E2E2F0" height="30.4883" rx="2.5" ry="2.5" style="stroke:#181818;stroke-width:0.5;" width="144" x="1952.5" y="145.5293"/><text fill="#000000" font-family="sans-serif" font-size="14" lengthAdjust="spacing" textLength="130" x="1959.5" y="166.0645">:DeviceMapperDTO</text><rect fill="#E2E2F0" height="46.9766" rx="2.5" ry="2.5" style="stroke:#181818;stroke-width:0.5;" width="109" x="2413" y="129.041"/><text fill="#000000" font-family="sans-serif" font-size="14" font-style="italic" lengthAdjust="spacing" textLength="95" x="2420" y="149.5762">&#171;Component&#187;</text><text fill="#000000" font-family="sans-serif" font-size="14" lengthAdjust="spacing" textLength="67" x="2434" y="166.0645">:DB Driver</text><rect fill="#E2E2F0" height="46.9766" rx="2.5" ry="2.5" style="stroke:#181818;stroke-width:0.5;" width="109" x="162.5" y="1339.3281"/><text fill="#000000" font-family="sans-serif" font-size="14" font-style="italic" lengthAdjust="spacing" textLength="95" x="169.5" y="1359.8633">&#171;Component&#187;</text><text fill="#000000" font-family="sans-serif" font-size="14" lengthAdjust="spacing" textLength="50" x="192" y="1376.3516">:Router</text><rect fill="#E2E2F0" height="46.9766" rx="2.5" ry="2.5" style="stroke:#181818;stroke-width:0.5;" width="157" x="484.5" y="1339.3281"/><text fill="#000000" font-family="sans-serif" font-size="14" font-style="italic" lengthAdjust="spacing" textLength="95" x="515.5" y="1359.8633">&#171;Component&#187;</text><text fill="#000000" font-family="sans-serif" font-size="14" lengthAdjust="spacing" textLength="143" x="491.5" y="1376.3516">:RoomControllerWeb</text><rect fill="#E2E2F0" height="30.4883" rx="2.5" ry="2.5" style="stroke:#181818;stroke-width:0.5;" width="123" x="652" y="1339.3281"/><text fill="#000000" font-family="sans-serif" font-size="14" lengthAdjust="spacing" textLength="109" x="659" y="1359.8633">roomID:RoomID</text><rect fill="#E2E2F0" height="46.9766" rx="2.5" ry="2.5" style="stroke:#181818;stroke-width:0.5;" width="110" x="785" y="1339.3281"/><text fill="#000000" font-family="sans-serif" font-size="14" font-style="italic" lengthAdjust="spacing" textLength="95" x="792.5" y="1359.8633">&#171;Component&#187;</text><text fill="#000000" font-family="sans-serif" font-size="14" lengthAdjust="spacing" textLength="96" x="792" y="1376.3516">:DeviceService</text><rect fill="#E2E2F0" height="46.9766" rx="2.5" ry="2.5" style="stroke:#181818;stroke-width:0.5;" width="131" x="989.5" y="1339.3281"/><text fill="#000000" font-family="sans-serif" font-size="14" font-style="italic" lengthAdjust="spacing" textLength="95" x="1007.5" y="1359.8633">&#171;Component&#187;</text><text fill="#000000" font-family="sans-serif" font-size="14" lengthAdjust="spacing" textLength="117" x="996.5" y="1376.3516">:RoomRepository</text><rect fill="#E2E2F0" height="46.9766" rx="2.5" ry="2.5" style="stroke:#181818;stroke-width:0.5;" width="135" x="1130.5" y="1339.3281"/><text fill="#000000" font-family="sans-serif" font-size="14" font-style="italic" lengthAdjust="spacing" textLength="95" x="1150.5" y="1359.8633">&#171;Component&#187;</text><text fill="#000000" font-family="sans-serif" font-size="14" lengthAdjust="spacing" textLength="121" x="1137.5" y="1376.3516">:DeviceRepository</text><rect fill="#E2E2F0" height="46.9766" rx="2.5" ry="2.5" style="stroke:#181818;stroke-width:0.5;" width="187" x="1472.5" y="1339.3281"/><text fill="#000000" font-family="sans-serif" font-size="14" font-style="italic" lengthAdjust="spacing" textLength="95" x="1518.5" y="1359.8633">&#171;Component&#187;</text><text fill="#000000" font-family="sans-serif" font-size="14" lengthAdjust="spacing" textLength="173" x="1479.5" y="1376.3516">:MapperDeviceDataModel</text><rect fill="#E2E2F0" height="46.9766" rx="2.5" ry="2.5" style="stroke:#181818;stroke-width:0.5;" width="158" x="1669.5" y="1339.3281"/><text fill="#000000" font-family="sans-serif" font-size="14" lengthAdjust="spacing" textLength="140" x="1676.5" y="1359.8633">listOfDevicesInRoom</text><text fill="#000000" font-family="sans-serif" font-size="14" lengthAdjust="spacing" textLength="107" x="1695" y="1376.3516">:List&lt;DeviceID&gt;</text><rect fill="#E2E2F0" height="30.4883" rx="2.5" ry="2.5" style="stroke:#181818;stroke-width:0.5;" width="105" x="1837.5" y="1339.3281"/><text fill="#000000" font-family="sans-serif" font-size="14" lengthAdjust="spacing" textLength="91" x="1844.5" y="1359.8633">device:Device</text><rect fill="#E2E2F0" height="30.4883" rx="2.5" ry="2.5" style="stroke:#181818;stroke-width:0.5;" width="144" x="1952.5" y="1339.3281"/><text fill="#000000" font-family="sans-serif" font-size="14" lengthAdjust="spacing" textLength="130" x="1959.5" y="1359.8633">:DeviceMapperDTO</text><rect fill="#E2E2F0" height="46.9766" rx="2.5" ry="2.5" style="stroke:#181818;stroke-width:0.5;" width="137" x="2164" y="1339.3281"/><text fill="#000000" font-family="sans-serif" font-size="14" lengthAdjust="spacing" textLength="117" x="2172" y="1359.8633">listOfDevicesDTO</text><text fill="#000000" font-family="sans-serif" font-size="14" lengthAdjust="spacing" textLength="123" x="2171" y="1376.3516">:List&lt;DeviceDTO&gt;</text><rect fill="#E2E2F0" height="30.4883" rx="2.5" ry="2.5" style="stroke:#181818;stroke-width:0.5;" width="92" x="2311" y="1339.3281"/><text fill="#000000" font-family="sans-serif" font-size="14" lengthAdjust="spacing" textLength="78" x="2318" y="1359.8633">:DeviceDTO</text><rect fill="#E2E2F0" height="46.9766" rx="2.5" ry="2.5" style="stroke:#181818;stroke-width:0.5;" width="109" x="2413" y="1339.3281"/><text fill="#000000" font-family="sans-serif" font-size="14" font-style="italic" lengthAdjust="spacing" textLength="95" x="2420" y="1359.8633">&#171;Component&#187;</text><text fill="#000000" font-family="sans-serif" font-size="14" lengthAdjust="spacing" textLength="67" x="2434" y="1376.3516">:DB Driver</text><rect fill="none" height="39.4434" style="stroke:#000000;stroke-width:1.5;" width="190" x="164.5" y="185.0176"/><path d="M164.5,185.0176 L228.5,185.0176 L228.5,192.0176 L218.5,202.0176 L164.5,202.0176 L164.5,185.0176 " fill="#EEEEEE" style="stroke:#000000;stroke-width:2.0;"/><text fill="#000000" font-family="sans-serif" font-size="13" font-weight="bold" lengthAdjust="spacing" textLength="19" x="177.5" y="199.5859">ref</text><text fill="#000000" font-family="sans-serif" font-size="12" lengthAdjust="spacing" textLength="182" x="168.5" y="217.6191">UC03_1-SD-ListRoomsOfHouse</text><ellipse cx="10.5" cy="250.0215" fill="none" rx="4" ry="4" style="stroke:#181818;stroke-width:1.5;"/><polygon fill="#181818" points="200,246.7715,210,250.7715,200,254.7715,204,250.7715" style="stroke:#181818;stroke-width:1.0;"/><line style="stroke:#181818;stroke-width:1.0;" x1="15" x2="206" y1="250.7715" y2="250.7715"/><text fill="#000000" font-family="sans-serif" font-size="13" font-weight="bold" lengthAdjust="spacing" textLength="9" x="18" y="246.0293">1</text><text fill="#000000" font-family="sans-serif" font-size="13" lengthAdjust="spacing" textLength="175" x="31" y="246.0293">GET api/rooms/{id}/devices</text><polygon fill="#181818" points="546,291.3926,556,295.3926,546,299.3926,550,295.3926" style="stroke:#181818;stroke-width:1.0;"/><line style="stroke:#181818;stroke-width:1.0;" x1="222" x2="552" y1="295.3926" y2="295.3926"/><text fill="#000000" font-family="sans-serif" font-size="13" font-weight="bold" lengthAdjust="spacing" textLength="9" x="229" y="282.9951">2</text><text fill="#000000" font-family="sans-serif" font-size="13" lengthAdjust="spacing" textLength="211" x="242" y="275.3398">GET getListOfDevicesDTOInRoom</text><text fill="#000000" font-family="sans-serif" font-size="13" lengthAdjust="spacing" textLength="240" x="242" y="290.6504">(@PathVariable("id") String roomName)</text><rect fill="#E2E2F0" height="30.4883" rx="2.5" ry="2.5" style="stroke:#181818;stroke-width:0.5;" width="123" x="652" y="303.3926"/><text fill="#000000" font-family="sans-serif" font-size="14" lengthAdjust="spacing" textLength="109" x="659" y="323.9277">roomID:RoomID</text><polygon fill="#181818" points="640,320.7031,650,324.7031,640,328.7031,644,324.7031" style="stroke:#181818;stroke-width:1.0;"/><line style="stroke:#181818;stroke-width:1.0;stroke-dasharray:2.0,2.0;" x1="568" x2="646" y1="324.7031" y2="324.7031"/><text fill="#000000" font-family="sans-serif" font-size="13" font-weight="bold" lengthAdjust="spacing" textLength="9" x="575" y="319.9609">3</text><text fill="#000000" font-family="sans-serif" font-size="13" lengthAdjust="spacing" textLength="52" x="588" y="319.9609">&#171;create&#187;</text><polygon fill="#181818" points="823,352.1914,833,356.1914,823,360.1914,827,356.1914" style="stroke:#181818;stroke-width:1.0;"/><line style="stroke:#181818;stroke-width:1.0;" x1="568" x2="829" y1="356.1914" y2="356.1914"/><text fill="#000000" font-family="sans-serif" font-size="13" font-weight="bold" lengthAdjust="spacing" textLength="9" x="575" y="351.4492">4</text><text fill="#000000" font-family="sans-serif" font-size="13" lengthAdjust="spacing" textLength="210" x="588" y="351.4492">getListOfDevicesInRoom(roomID)</text><polygon fill="#181818" points="1038,381.502,1048,385.502,1038,389.502,1042,385.502" style="stroke:#181818;stroke-width:1.0;"/><line style="stroke:#181818;stroke-width:1.0;" x1="845" x2="1044" y1="385.502" y2="385.502"/><text fill="#000000" font-family="sans-serif" font-size="13" font-weight="bold" lengthAdjust="spacing" textLength="9" x="852" y="380.7598">5</text><text fill="#000000" font-family="sans-serif" font-size="13" lengthAdjust="spacing" textLength="173" x="865" y="380.7598">containsEntityByID(roomID)</text><polygon fill="#181818" points="2450.5,410.8125,2460.5,414.8125,2450.5,418.8125,2454.5,414.8125" style="stroke:#181818;stroke-width:1.0;"/><line style="stroke:#181818;stroke-width:1.0;" x1="1060" x2="2456.5" y1="414.8125" y2="414.8125"/><text fill="#000000" font-family="sans-serif" font-size="13" font-weight="bold" lengthAdjust="spacing" textLength="9" x="1067" y="410.0703">6</text><text fill="#000000" font-family="sans-serif" font-size="13" lengthAdjust="spacing" textLength="173" x="1080" y="410.0703">containsEntityByID(roomID)</text><ellipse cx="2619" cy="443.373" fill="none" rx="4" ry="4" style="stroke:#181818;stroke-width:1.5;"/><polygon fill="#181818" points="2602,440.123,2612,444.123,2602,448.123,2606,444.123" style="stroke:#181818;stroke-width:1.0;"/><line style="stroke:#181818;stroke-width:1.0;" x1="2472.5" x2="2608" y1="444.123" y2="444.123"/><text fill="#000000" font-family="sans-serif" font-size="13" font-weight="bold" lengthAdjust="spacing" textLength="9" x="2479.5" y="439.3809">7</text><text fill="#000000" font-family="sans-serif" font-size="13" lengthAdjust="spacing" textLength="112" x="2492.5" y="439.3809">DATABASE QUERY</text><polygon fill="#181818" points="2483.5,469.4336,2473.5,473.4336,2483.5,477.4336,2479.5,473.4336" style="stroke:#181818;stroke-width:1.0;"/><ellipse cx="2619" cy="472.6836" fill="none" rx="4" ry="4" style="stroke:#181818;stroke-width:1.5;"/><line style="stroke:#181818;stroke-width:1.0;stroke-dasharray:2.0,2.0;" x1="2477.5" x2="2614.5" y1="473.4336" y2="473.4336"/><text fill="#000000" font-family="sans-serif" font-size="13" font-weight="bold" lengthAdjust="spacing" textLength="9" x="2489.5" y="468.6914">8</text><text fill="#000000" font-family="sans-serif" font-size="13" lengthAdjust="spacing" textLength="109" x="2502.5" y="468.6914">QUERY RESPONSE</text><polygon fill="#181818" points="1071,498.7441,1061,502.7441,1071,506.7441,1067,502.7441" style="stroke:#181818;stroke-width:1.0;"/><line style="stroke:#181818;stroke-width:1.0;stroke-dasharray:2.0,2.0;" x1="1065" x2="2461.5" y1="502.7441" y2="502.7441"/><text fill="#000000" font-family="sans-serif" font-size="13" font-weight="bold" lengthAdjust="spacing" textLength="9" x="1077" y="498.002">9</text><text fill="#000000" font-family="sans-serif" font-size="13" lengthAdjust="spacing" textLength="25" x="1090" y="498.002">true</text><polygon fill="#181818" points="856,528.0547,846,532.0547,856,536.0547,852,532.0547" style="stroke:#181818;stroke-width:1.0;"/><line style="stroke:#181818;stroke-width:1.0;stroke-dasharray:2.0,2.0;" x1="850" x2="1049" y1="532.0547" y2="532.0547"/><text fill="#000000" font-family="sans-serif" font-size="13" font-weight="bold" lengthAdjust="spacing" textLength="18" x="862" y="527.3125">10</text><text fill="#000000" font-family="sans-serif" font-size="13" lengthAdjust="spacing" textLength="25" x="884" y="527.3125">true</text><polygon fill="#181818" points="1181,557.3652,1191,561.3652,1181,565.3652,1185,561.3652" style="stroke:#181818;stroke-width:1.0;"/><line style="stroke:#181818;stroke-width:1.0;" x1="845" x2="1187" y1="561.3652" y2="561.3652"/><text fill="#000000" font-family="sans-serif" font-size="13" font-weight="bold" lengthAdjust="spacing" textLength="18" x="852" y="556.623">11</text><text fill="#000000" font-family="sans-serif" font-size="13" lengthAdjust="spacing" textLength="144" x="874" y="556.623">findByRoomID(roomID)</text><polygon fill="#181818" points="2450.5,586.6758,2460.5,590.6758,2450.5,594.6758,2454.5,590.6758" style="stroke:#181818;stroke-width:1.0;"/><line style="stroke:#181818;stroke-width:1.0;" x1="1203" x2="2456.5" y1="590.6758" y2="590.6758"/><text fill="#000000" font-family="sans-serif" font-size="13" font-weight="bold" lengthAdjust="spacing" textLength="18" x="1210" y="585.9336">12</text><text fill="#000000" font-family="sans-serif" font-size="13" lengthAdjust="spacing" textLength="144" x="1232" y="585.9336">findByRoomID(roomID)</text><ellipse cx="2619" cy="619.2363" fill="none" rx="4" ry="4" style="stroke:#181818;stroke-width:1.5;"/><polygon fill="#181818" points="2602,615.9863,2612,619.9863,2602,623.9863,2606,619.9863" style="stroke:#181818;stroke-width:1.0;"/><line style="stroke:#181818;stroke-width:1.0;" x1="2472.5" x2="2608" y1="619.9863" y2="619.9863"/><text fill="#000000" font-family="sans-serif" font-size="13" font-weight="bold" lengthAdjust="spacing" textLength="18" x="2479.5" y="615.2441">13</text><text fill="#000000" font-family="sans-serif" font-size="13" lengthAdjust="spacing" textLength="112" x="2501.5" y="615.2441">DATABASE QUERY</text><polygon fill="#181818" points="2483.5,645.2969,2473.5,649.2969,2483.5,653.2969,2479.5,649.2969" style="stroke:#181818;stroke-width:1.0;"/><ellipse cx="2619" cy="648.5469" fill="none" rx="4" ry="4" style="stroke:#181818;stroke-width:1.5;"/><line style="stroke:#181818;stroke-width:1.0;stroke-dasharray:2.0,2.0;" x1="2477.5" x2="2614.5" y1="649.2969" y2="649.2969"/><text fill="#000000" font-family="sans-serif" font-size="13" font-weight="bold" lengthAdjust="spacing" textLength="18" x="2489.5" y="644.5547">14</text><text fill="#000000" font-family="sans-serif" font-size="13" lengthAdjust="spacing" textLength="109" x="2511.5" y="644.5547">QUERY RESPONSE</text><polygon fill="#181818" points="1214,674.6074,1204,678.6074,1214,682.6074,1210,678.6074" style="stroke:#181818;stroke-width:1.0;"/><line style="stroke:#181818;stroke-width:1.0;stroke-dasharray:2.0,2.0;" x1="1208" x2="2461.5" y1="678.6074" y2="678.6074"/><text fill="#000000" font-family="sans-serif" font-size="13" font-weight="bold" lengthAdjust="spacing" textLength="18" x="1220" y="673.8652">15</text><text fill="#000000" font-family="sans-serif" font-size="13" lengthAdjust="spacing" textLength="310" x="1242" y="673.8652">Iterable&lt;DeviceDataModel&gt; deviceDataModelList</text><polygon fill="#181818" points="1549,703.918,1559,707.918,1549,711.918,1553,707.918" style="stroke:#181818;stroke-width:1.0;"/><line style="stroke:#181818;stroke-width:1.0;" x1="1203" x2="1555" y1="707.918" y2="707.918"/><text fill="#000000" font-family="sans-serif" font-size="13" font-weight="bold" lengthAdjust="spacing" textLength="18" x="1210" y="703.1758">16</text><text fill="#000000" font-family="sans-serif" font-size="13" lengthAdjust="spacing" textLength="317" x="1232" y="703.1758">toDomainList(factoryDevice, deviceDataModelList)</text><polygon fill="#181818" points="1214,733.2285,1204,737.2285,1214,741.2285,1210,737.2285" style="stroke:#181818;stroke-width:1.0;"/><line style="stroke:#181818;stroke-width:1.0;stroke-dasharray:2.0,2.0;" x1="1208" x2="1560" y1="737.2285" y2="737.2285"/><text fill="#000000" font-family="sans-serif" font-size="13" font-weight="bold" lengthAdjust="spacing" textLength="18" x="1220" y="732.4863">17</text><text fill="#000000" font-family="sans-serif" font-size="13" lengthAdjust="spacing" textLength="176" x="1242" y="732.4863">Iterable&lt;Device&gt; deviceList</text><polygon fill="#181818" points="856,762.5391,846,766.5391,856,770.5391,852,766.5391" style="stroke:#181818;stroke-width:1.0;"/><line style="stroke:#181818;stroke-width:1.0;stroke-dasharray:2.0,2.0;" x1="850" x2="1192" y1="766.5391" y2="766.5391"/><text fill="#000000" font-family="sans-serif" font-size="13" font-weight="bold" lengthAdjust="spacing" textLength="18" x="862" y="761.7969">18</text><text fill="#000000" font-family="sans-serif" font-size="13" lengthAdjust="spacing" textLength="109" x="884" y="761.7969">Iterable&lt;Device&gt;</text><rect fill="#E2E2F0" height="46.9766" rx="2.5" ry="2.5" style="stroke:#181818;stroke-width:0.5;" width="158" x="1669.5" y="774.5391"/><text fill="#000000" font-family="sans-serif" font-size="14" lengthAdjust="spacing" textLength="140" x="1676.5" y="795.0742">listOfDevicesInRoom</text><text fill="#000000" font-family="sans-serif" font-size="14" lengthAdjust="spacing" textLength="107" x="1695" y="811.5625">:List&lt;DeviceID&gt;</text><polygon fill="#181818" points="1657.5,791.8496,1667.5,795.8496,1657.5,799.8496,1661.5,795.8496" style="stroke:#181818;stroke-width:1.0;"/><line style="stroke:#181818;stroke-width:1.0;stroke-dasharray:2.0,2.0;" x1="845" x2="1663.5" y1="795.8496" y2="795.8496"/><text fill="#000000" font-family="sans-serif" font-size="13" font-weight="bold" lengthAdjust="spacing" textLength="18" x="852" y="791.1074">19</text><text fill="#000000" font-family="sans-serif" font-size="13" lengthAdjust="spacing" textLength="52" x="874" y="791.1074">&#171;create&#187;</text><path d="M824,826.5156 L898,826.5156 L898,833.8262 L888,843.8262 L824,843.8262 L824,826.5156 " fill="#EEEEEE" style="stroke:#000000;stroke-width:1.5;"/><rect fill="none" height="115.2422" style="stroke:#000000;stroke-width:1.5;" width="1134.5" x="824" y="826.5156"/><text fill="#000000" font-family="sans-serif" font-size="13" font-weight="bold" lengthAdjust="spacing" textLength="29" x="839" y="840.084">loop</text><text fill="#000000" font-family="sans-serif" font-size="11" font-weight="bold" lengthAdjust="spacing" textLength="157" x="913" y="839.1504">[for each Device in Iterable]</text><polygon fill="#181818" points="1873,871.1367,1883,875.1367,1873,879.1367,1877,875.1367" style="stroke:#181818;stroke-width:1.0;"/><line style="stroke:#181818;stroke-width:1.0;" x1="845" x2="1879" y1="875.1367" y2="875.1367"/><text fill="#000000" font-family="sans-serif" font-size="13" font-weight="bold" lengthAdjust="spacing" textLength="18" x="852" y="870.3945">20</text><text fill="#000000" font-family="sans-serif" font-size="13" lengthAdjust="spacing" textLength="56" x="874" y="870.3945">identity()</text><polygon fill="#181818" points="856,900.4473,846,904.4473,856,908.4473,852,904.4473" style="stroke:#181818;stroke-width:1.0;"/><line style="stroke:#181818;stroke-width:1.0;stroke-dasharray:2.0,2.0;" x1="850" x2="1884" y1="904.4473" y2="904.4473"/><text fill="#000000" font-family="sans-serif" font-size="13" font-weight="bold" lengthAdjust="spacing" textLength="18" x="862" y="899.7051">21</text><text fill="#000000" font-family="sans-serif" font-size="13" lengthAdjust="spacing" textLength="54" x="884" y="899.7051">deviceID</text><polygon fill="#181818" points="1731.5,929.7578,1741.5,933.7578,1731.5,937.7578,1735.5,933.7578" style="stroke:#181818;stroke-width:1.0;"/><line style="stroke:#181818;stroke-width:1.0;" x1="845" x2="1737.5" y1="933.7578" y2="933.7578"/><text fill="#000000" font-family="sans-serif" font-size="13" font-weight="bold" lengthAdjust="spacing" textLength="18" x="852" y="929.0156">22</text><text fill="#000000" font-family="sans-serif" font-size="13" lengthAdjust="spacing" textLength="85" x="874" y="929.0156">add(deviceID)</text><polygon fill="#181818" points="579,973.0684,569,977.0684,579,981.0684,575,977.0684" style="stroke:#181818;stroke-width:1.0;"/><line style="stroke:#181818;stroke-width:1.0;stroke-dasharray:2.0,2.0;" x1="573" x2="834" y1="977.0684" y2="977.0684"/><text fill="#000000" font-family="sans-serif" font-size="13" font-weight="bold" lengthAdjust="spacing" textLength="18" x="585" y="972.3262">23</text><text fill="#000000" font-family="sans-serif" font-size="13" lengthAdjust="spacing" textLength="132" x="607" y="972.3262">listOfDevicesInRoom</text><polygon fill="#181818" points="2007.5,1002.3789,2017.5,1006.3789,2007.5,1010.3789,2011.5,1006.3789" style="stroke:#181818;stroke-width:1.0;"/><line style="stroke:#181818;stroke-width:1.0;" x1="568" x2="2013.5" y1="1006.3789" y2="1006.3789"/><text fill="#000000" font-family="sans-serif" font-size="13" font-weight="bold" lengthAdjust="spacing" textLength="18" x="575" y="1001.6367">24</text><text fill="#000000" font-family="sans-serif" font-size="13" lengthAdjust="spacing" textLength="268" x="597" y="1001.6367">deviceIDsToDTOList(listOfDevicesInRoom)</text><rect fill="#E2E2F0" height="46.9766" rx="2.5" ry="2.5" style="stroke:#181818;stroke-width:0.5;" width="137" x="2164" y="1014.3789"/><text fill="#000000" font-family="sans-serif" font-size="14" lengthAdjust="spacing" textLength="117" x="2172" y="1034.9141">listOfDevicesDTO</text><text fill="#000000" font-family="sans-serif" font-size="14" lengthAdjust="spacing" textLength="123" x="2171" y="1051.4023">:List&lt;DeviceDTO&gt;</text><polygon fill="#181818" points="2152,1031.6895,2162,1035.6895,2152,1039.6895,2156,1035.6895" style="stroke:#181818;stroke-width:1.0;"/><line style="stroke:#181818;stroke-width:1.0;stroke-dasharray:2.0,2.0;" x1="2029.5" x2="2158" y1="1035.6895" y2="1035.6895"/><text fill="#000000" font-family="sans-serif" font-size="13" font-weight="bold" lengthAdjust="spacing" textLength="18" x="2036.5" y="1030.9473">25</text><text fill="#000000" font-family="sans-serif" font-size="13" lengthAdjust="spacing" textLength="52" x="2058.5" y="1030.9473">&#171;create&#187;</text><path d="M2008.5,1066.3555 L2082.5,1066.3555 L2082.5,1073.666 L2072.5,1083.666 L2008.5,1083.666 L2008.5,1066.3555 " fill="#EEEEEE" style="stroke:#000000;stroke-width:1.5;"/><rect fill="none" height="130.4199" style="stroke:#000000;stroke-width:1.5;" width="410.5" x="2008.5" y="1066.3555"/><text fill="#000000" font-family="sans-serif" font-size="13" font-weight="bold" lengthAdjust="spacing" textLength="29" x="2023.5" y="1079.9238">loop</text><text fill="#000000" font-family="sans-serif" font-size="11" font-weight="bold" lengthAdjust="spacing" textLength="248" x="2097.5" y="1078.9902">[for each DeviceID in listOfDevicesInRoom]</text><line style="stroke:#181818;stroke-width:1.0;" x1="2029.5" x2="2071.5" y1="1114.9766" y2="1114.9766"/><line style="stroke:#181818;stroke-width:1.0;" x1="2071.5" x2="2071.5" y1="1114.9766" y2="1127.9766"/><line style="stroke:#181818;stroke-width:1.0;" x1="2030.5" x2="2071.5" y1="1127.9766" y2="1127.9766"/><polygon fill="#181818" points="2040.5,1123.9766,2030.5,1127.9766,2040.5,1131.9766,2036.5,1127.9766" style="stroke:#181818;stroke-width:1.0;"/><text fill="#000000" font-family="sans-serif" font-size="13" font-weight="bold" lengthAdjust="spacing" textLength="18" x="2036.5" y="1110.2344">26</text><text fill="#000000" font-family="sans-serif" font-size="13" lengthAdjust="spacing" textLength="167" x="2058.5" y="1110.2344">deviceIDsToDTO(deviceID)</text><rect fill="#E2E2F0" height="30.4883" rx="2.5" ry="2.5" style="stroke:#181818;stroke-width:0.5;" width="92" x="2311" y="1135.9766"/><text fill="#000000" font-family="sans-serif" font-size="14" lengthAdjust="spacing" textLength="78" x="2318" y="1156.5117">:DeviceDTO</text><polygon fill="#181818" points="2299,1153.2871,2309,1157.2871,2299,1161.2871,2303,1157.2871" style="stroke:#181818;stroke-width:1.0;"/><line style="stroke:#181818;stroke-width:1.0;stroke-dasharray:2.0,2.0;" x1="2029.5" x2="2305" y1="1157.2871" y2="1157.2871"/><text fill="#000000" font-family="sans-serif" font-size="13" font-weight="bold" lengthAdjust="spacing" textLength="18" x="2036.5" y="1152.5449">27</text><text fill="#000000" font-family="sans-serif" font-size="13" lengthAdjust="spacing" textLength="52" x="2058.5" y="1152.5449">&#171;create&#187;</text><polygon fill="#181818" points="2215.5,1184.7754,2225.5,1188.7754,2215.5,1192.7754,2219.5,1188.7754" style="stroke:#181818;stroke-width:1.0;"/><line style="stroke:#181818;stroke-width:1.0;" x1="2029.5" x2="2221.5" y1="1188.7754" y2="1188.7754"/><text fill="#000000" font-family="sans-serif" font-size="13" font-weight="bold" lengthAdjust="spacing" textLength="18" x="2036.5" y="1184.0332">28</text><text fill="#000000" font-family="sans-serif" font-size="13" lengthAdjust="spacing" textLength="99" x="2058.5" y="1184.0332">add(deviceDTO)</text><polygon fill="#181818" points="579,1228.0859,569,1232.0859,579,1236.0859,575,1232.0859" style="stroke:#181818;stroke-width:1.0;"/><line style="stroke:#181818;stroke-width:1.0;stroke-dasharray:2.0,2.0;" x1="573" x2="2018.5" y1="1232.0859" y2="1232.0859"/><text fill="#000000" font-family="sans-serif" font-size="13" font-weight="bold" lengthAdjust="spacing" textLength="18" x="585" y="1227.3438">29</text><text fill="#000000" font-family="sans-serif" font-size="13" lengthAdjust="spacing" textLength="112" x="607" y="1227.3438">listOfDevicesDTO</text><polygon fill="#181818" points="233,1272.707,223,1276.707,233,1280.707,229,1276.707" style="stroke:#181818;stroke-width:1.0;"/><line style="stroke:#181818;stroke-width:1.0;stroke-dasharray:2.0,2.0;" x1="227" x2="557" y1="1276.707" y2="1276.707"/><text fill="#000000" font-family="sans-serif" font-size="13" font-weight="bold" lengthAdjust="spacing" textLength="18" x="239" y="1264.3096">30</text><text fill="#000000" font-family="sans-serif" font-size="13" lengthAdjust="spacing" textLength="286" x="261" y="1256.6543">CollectionModel&lt;EntityModel&lt;DeviceDTO&gt;&gt;</text><text fill="#000000" font-family="sans-serif" font-size="13" lengthAdjust="spacing" textLength="97" x="261" y="1271.9648">, HttpStatus.OK</text><ellipse cx="10.5" cy="1320.5781" fill="none" rx="4" ry="4" style="stroke:#181818;stroke-width:1.5;"/><polygon fill="#181818" points="27.5,1317.3281,17.5,1321.3281,27.5,1325.3281,23.5,1321.3281" style="stroke:#181818;stroke-width:1.0;"/><line style="stroke:#181818;stroke-width:1.0;stroke-dasharray:2.0,2.0;" x1="25.5" x2="211" y1="1321.3281" y2="1321.3281"/><text fill="#000000" font-family="sans-serif" font-size="13" font-weight="bold" lengthAdjust="spacing" textLength="18" x="28" y="1308.9307">31</text><text fill="#000000" font-family="sans-serif" font-size="13" lengthAdjust="spacing" textLength="96" x="50" y="1301.2754">JSON response,</text><text fill="#000000" font-family="sans-serif" font-size="13" lengthAdjust="spacing" textLength="89" x="50" y="1316.5859">HttpStatus.OK</text><!--SRC=[jLTBR-Cs4BxpLqpTWvr55E-sm1u4msWI6Rjkit4QEIsAP57G4cqJAuagIITr5_tl7L9FIxIpb-OIaPpvvi5lXkFXLkjS-UDndj1CxzBa8XBfMB6_TYoBc1Tpkf4q9KHpdJ1u2D- -1myk5L2u5oA5nKl693mA2NVY1RyU59FdWClBEEKPLrfIBUJdSvZ32-A35h1X6hKJF0En1fea4BDd7Z45FCC3YR3de0JeBTMe5j4C8f6j-MOd6Mwoz88GkjCYswKh9ibtkQIRb89cuX_GSiV8IlmDWyaatAt2lT8idKwVCfXChaMcAKTtxHh0lwBH5vR50_W-eFBB1ydsbUgrI7EHiKmNedx8v3EJA7Z3Drjj9KbEfUOHpqrK0_zUxBIHe0gAJpX0wKcBrBWZHP8m-JjRMKKJUQHbSahLoCm32p0FIdFcisCWi1arRkC_AwQAxrVTkcUvK1plR5-ZcwsJUeMrZcQpULBt4yrp9WlXW6hwISGiQG6KvzN9AIn3gSMwK5FppFBpAVDlS7jIxCw3gOLsI1v25Omi0sjvumoyT76vwBkzN9nm4Kyx_k6Emy4UYbzBjomwfAuWaFovf6MyAXQT399XEBjUpXUtyCw73rYQLM4QfjcIt8gTOaCYsHg4qI_uJHwkt_xuvpil33mJW4cXMgm_6bc2HGKetiB-uH2xLV1OqCZDX4MQnTRca0ovhVYoEeQ4F0flMff5dDaIQCx7rh_nLnx_EoxX28qqVwQQLIwIiXHHkwgjGXzRq4qdmpLVHZ_TKRtzZKfELmaR3NWyE8DGIvvjBCejJTbPOwe29gGkNyzwQwhopHiVqnr9Xf8srnXPMOXgs5AOLhj-pxN2hr5HzosxfG8XLM6NHat1-JPzsElKBCE-lR_QpuC-GYLDwXf7Y8ebtmPHIPEQNDvKVFOXk5nUNbs6C_ZrONR_HtCwyJnpR7VXVXRUBMx3MKlv80RRosFMDzRusqvSLxmEhvsXfYdviEPPVBKlBgeVMYD9IAkL7QJeDCB_a9os-tDajc7efDCxfsLrrHk6Jiuy7eRbRBUOLX6857bWK4Ph1C7-NeYUkmprCjW19Ewk_afmLKpTKDmc3Y-ipP4kR1-hmnXKThmLtR9EXCXXZKCFecrB8DFRAdC4ohyU4ttWCRC5DZghfJekrViby454SVckrKAzY8ZBkYCe7sWSZoeyXpUkHzDXrILc7WIJfCFCDZtPfTE2h7jT-pt1-Gb9hBZ8p5297Nn83ZfgvnrkKgMM0jUMpmwxnmYChwjjtyLoI3g7VQhWvhVmP1uOfXpBRS_Agt5rRj3bPZqlTFmxOh0RLPiek2pikA_VPEqKFSnvmmsNhqSuOXIFzG5pKzKCxdajX6ipJw2Ao6oVc1GlM_7Tp5zJd07EuIF-AWerrJjriVYbRQfvxn-5WQ_6afz3fALa2WShXQtnAJkAK0udmzbj02MVoNy0]--></g></svg>