<?xml version="1.0" encoding="us-ascii" standalone="no"?><svg xmlns="http://www.w3.org/2000/svg" xmlns:xlink="http://www.w3.org/1999/xlink" contentStyleType="text/css" height="1552px" preserveAspectRatio="none" style="width:2241px;height:1552px;background:#FFFFFF;" version="1.1" viewBox="0 0 2241 1552" width="2241px" zoomAndPan="magnify"><defs/><g><rect fill="#A9A9A9" height="1502.834" style="stroke:#181818;stroke-width:0.5;" width="2017" x="121.5" y="43.4883"/><text fill="#000000" font-family="sans-serif" font-size="13" font-weight="bold" lengthAdjust="spacing" textLength="87" x="1086.5" y="56.0566">&#171;SubSystem&#187;</text><text fill="#000000" font-family="sans-serif" font-size="13" font-weight="bold" lengthAdjust="spacing" textLength="60" x="1086.5" y="71.3672">:Backend</text><rect fill="#D3D3D3" height="1467.2129" style="stroke:#181818;stroke-width:0.5;" width="2017" x="121.5" y="79.1094"/><text fill="#000000" font-family="sans-serif" font-size="13" font-weight="bold" lengthAdjust="spacing" textLength="80" x="1092" y="91.6777">&#171;Container&#187;</text><text fill="#000000" font-family="sans-serif" font-size="13" font-weight="bold" lengthAdjust="spacing" textLength="46" x="1088" y="106.9883">:Server</text><text fill="#000000" font-family="sans-serif" font-size="14" font-weight="bold" lengthAdjust="spacing" textLength="247" x="997.5" y="28.5352">UC7.2 - Add new Sensor to Device</text><line style="stroke:#181818;stroke-width:0.5;stroke-dasharray:5.0,5.0;" x1="180" x2="180" y1="161.707" y2="1492.3457"/><rect fill="#FFFFFF" height="1194.4414" style="stroke:#181818;stroke-width:1.0;" width="10" x="175" y="279.9043"/><line style="stroke:#181818;stroke-width:0.5;stroke-dasharray:5.0,5.0;" x1="469" x2="469" y1="161.707" y2="1492.3457"/><rect fill="#FFFFFF" height="1105.1992" style="stroke:#181818;stroke-width:1.0;" width="10" x="464" y="324.5254"/><line style="stroke:#181818;stroke-width:0.5;stroke-dasharray:5.0,5.0;" x1="644" x2="644" y1="332.5254" y2="1492.3457"/><line style="stroke:#181818;stroke-width:0.5;stroke-dasharray:5.0,5.0;" x1="776" x2="776" y1="380.502" y2="1492.3457"/><line style="stroke:#181818;stroke-width:0.5;stroke-dasharray:5.0,5.0;" x1="862.5" x2="862.5" y1="428.4785" y2="1492.3457"/><line style="stroke:#181818;stroke-width:0.5;stroke-dasharray:5.0,5.0;" x1="966.5" x2="966.5" y1="161.707" y2="1492.3457"/><rect fill="#FFFFFF" height="839.3613" style="stroke:#181818;stroke-width:1.0;" width="10" x="961.5" y="513.0762"/><line style="stroke:#181818;stroke-width:0.5;stroke-dasharray:5.0,5.0;" x1="1159.5" x2="1159.5" y1="161.707" y2="1492.3457"/><rect fill="#FFFFFF" height="146.5527" style="stroke:#181818;stroke-width:1.0;" width="10" x="1154.5" y="542.3867"/><line style="stroke:#181818;stroke-width:0.5;stroke-dasharray:5.0,5.0;" x1="1267.5" x2="1267.5" y1="161.707" y2="1492.3457"/><rect fill="#FFFFFF" height="29.3105" style="stroke:#181818;stroke-width:1.0;" width="10" x="1262.5" y="718.25"/><line style="stroke:#181818;stroke-width:0.5;stroke-dasharray:5.0,5.0;" x1="1421" x2="1421" y1="161.707" y2="1492.3457"/><rect fill="#FFFFFF" height="29.3105" style="stroke:#181818;stroke-width:1.0;" width="10" x="1416" y="776.8711"/><line style="stroke:#181818;stroke-width:0.5;stroke-dasharray:5.0,5.0;" x1="1601.5" x2="1601.5" y1="161.707" y2="1492.3457"/><rect fill="#FFFFFF" height="77.2871" style="stroke:#181818;stroke-width:1.0;" width="10" x="1596.5" y="835.4922"/><line style="stroke:#181818;stroke-width:0.5;stroke-dasharray:5.0,5.0;" x1="1731.5" x2="1731.5" y1="843.4922" y2="1492.3457"/><rect fill="#FFFFFF" height="29.3105" style="stroke:#181818;stroke-width:1.0;" width="10" x="1726.5" y="942.0898"/><line style="stroke:#181818;stroke-width:0.5;stroke-dasharray:5.0,5.0;" x1="1842.5" x2="1842.5" y1="161.707" y2="1492.3457"/><rect fill="#FFFFFF" height="146.5527" style="stroke:#181818;stroke-width:1.0;" width="10" x="1837.5" y="1000.7109"/><rect fill="#FFFFFF" height="146.5527" style="stroke:#181818;stroke-width:1.0;" width="10" x="1837.5" y="1176.5742"/><line style="stroke:#181818;stroke-width:0.5;stroke-dasharray:5.0,5.0;" x1="1968.5" x2="1968.5" y1="1360.4375" y2="1492.3457"/><line style="stroke:#181818;stroke-width:0.5;stroke-dasharray:5.0,5.0;" x1="2080" x2="2080" y1="161.707" y2="1492.3457"/><rect fill="#FFFFFF" height="87.9316" style="stroke:#181818;stroke-width:1.0;" width="10" x="2075" y="571.6973"/><rect fill="#FFFFFF" height="87.9316" style="stroke:#181818;stroke-width:1.0;" width="10" x="2075" y="1030.0215"/><rect fill="#FFFFFF" height="87.9316" style="stroke:#181818;stroke-width:1.0;" width="10" x="2075" y="1205.8848"/><rect fill="#E2E2F0" height="46.9766" rx="2.5" ry="2.5" style="stroke:#181818;stroke-width:0.5;" width="109" x="125.5" y="113.7305"/><text fill="#000000" font-family="sans-serif" font-size="14" font-style="italic" lengthAdjust="spacing" textLength="95" x="132.5" y="134.2656">&#171;Component&#187;</text><text fill="#000000" font-family="sans-serif" font-size="14" lengthAdjust="spacing" textLength="50" x="155" y="150.7539">:Router</text><rect fill="#E2E2F0" height="46.9766" rx="2.5" ry="2.5" style="stroke:#181818;stroke-width:0.5;" width="164" x="387" y="113.7305"/><text fill="#000000" font-family="sans-serif" font-size="14" font-style="italic" lengthAdjust="spacing" textLength="95" x="421.5" y="134.2656">&#171;Component&#187;</text><text fill="#000000" font-family="sans-serif" font-size="14" lengthAdjust="spacing" textLength="150" x="394" y="150.7539">:SensorControllerWeb</text><rect fill="#E2E2F0" height="46.9766" rx="2.5" ry="2.5" style="stroke:#181818;stroke-width:0.5;" width="113" x="910" y="113.7305"/><text fill="#000000" font-family="sans-serif" font-size="14" font-style="italic" lengthAdjust="spacing" textLength="95" x="919" y="134.2656">&#171;Component&#187;</text><text fill="#000000" font-family="sans-serif" font-size="14" lengthAdjust="spacing" textLength="99" x="917" y="150.7539">:SensorService</text><rect fill="#E2E2F0" height="46.9766" rx="2.5" ry="2.5" style="stroke:#181818;stroke-width:0.5;" width="135" x="1092" y="113.7305"/><text fill="#000000" font-family="sans-serif" font-size="14" font-style="italic" lengthAdjust="spacing" textLength="95" x="1112" y="134.2656">&#171;Component&#187;</text><text fill="#000000" font-family="sans-serif" font-size="14" lengthAdjust="spacing" textLength="121" x="1099" y="150.7539">:DeviceRepository</text><rect fill="#E2E2F0" height="46.9766" rx="2.5" ry="2.5" style="stroke:#181818;stroke-width:0.5;" width="61" x="1237" y="113.7305"/><text fill="#000000" font-family="sans-serif" font-size="14" lengthAdjust="spacing" textLength="47" x="1244" y="134.2656">device:</text><text fill="#000000" font-family="sans-serif" font-size="14" lengthAdjust="spacing" textLength="44" x="1245.5" y="150.7539">Device</text><rect fill="#E2E2F0" height="46.9766" rx="2.5" ry="2.5" style="stroke:#181818;stroke-width:0.5;" width="226" x="1308" y="113.7305"/><text fill="#000000" font-family="sans-serif" font-size="14" font-style="italic" lengthAdjust="spacing" textLength="95" x="1373.5" y="134.2656">&#171;Component&#187;</text><text fill="#000000" font-family="sans-serif" font-size="14" lengthAdjust="spacing" textLength="212" x="1315" y="150.7539">:SensorFunctionalityRepository</text><rect fill="#E2E2F0" height="46.9766" rx="2.5" ry="2.5" style="stroke:#181818;stroke-width:0.5;" width="115" x="1544" y="113.7305"/><text fill="#000000" font-family="sans-serif" font-size="14" font-style="italic" lengthAdjust="spacing" textLength="95" x="1554" y="134.2656">&#171;Component&#187;</text><text fill="#000000" font-family="sans-serif" font-size="14" lengthAdjust="spacing" textLength="101" x="1551" y="150.7539">:FactorySensor</text><rect fill="#E2E2F0" height="46.9766" rx="2.5" ry="2.5" style="stroke:#181818;stroke-width:0.5;" width="138" x="1773.5" y="113.7305"/><text fill="#000000" font-family="sans-serif" font-size="14" font-style="italic" lengthAdjust="spacing" textLength="95" x="1795" y="134.2656">&#171;Component&#187;</text><text fill="#000000" font-family="sans-serif" font-size="14" lengthAdjust="spacing" textLength="124" x="1780.5" y="150.7539">:SensorRepository</text><rect fill="#E2E2F0" height="46.9766" rx="2.5" ry="2.5" style="stroke:#181818;stroke-width:0.5;" width="109" x="2025.5" y="113.7305"/><text fill="#000000" font-family="sans-serif" font-size="14" font-style="italic" lengthAdjust="spacing" textLength="95" x="2032.5" y="134.2656">&#171;Component&#187;</text><text fill="#000000" font-family="sans-serif" font-size="14" lengthAdjust="spacing" textLength="67" x="2046.5" y="150.7539">:DB Driver</text><rect fill="#E2E2F0" height="46.9766" rx="2.5" ry="2.5" style="stroke:#181818;stroke-width:0.5;" width="109" x="125.5" y="1492.3457"/><text fill="#000000" font-family="sans-serif" font-size="14" font-style="italic" lengthAdjust="spacing" textLength="95" x="132.5" y="1512.8809">&#171;Component&#187;</text><text fill="#000000" font-family="sans-serif" font-size="14" lengthAdjust="spacing" textLength="50" x="155" y="1529.3691">:Router</text><rect fill="#E2E2F0" height="46.9766" rx="2.5" ry="2.5" style="stroke:#181818;stroke-width:0.5;" width="164" x="387" y="1492.3457"/><text fill="#000000" font-family="sans-serif" font-size="14" font-style="italic" lengthAdjust="spacing" textLength="95" x="421.5" y="1512.8809">&#171;Component&#187;</text><text fill="#000000" font-family="sans-serif" font-size="14" lengthAdjust="spacing" textLength="150" x="394" y="1529.3691">:SensorControllerWeb</text><rect fill="#E2E2F0" height="46.9766" rx="2.5" ry="2.5" style="stroke:#181818;stroke-width:0.5;" width="166" x="561" y="1492.3457"/><text fill="#000000" font-family="sans-serif" font-size="14" lengthAdjust="spacing" textLength="152" x="568" y="1512.8809">sensorFunctionalityID:</text><text fill="#000000" font-family="sans-serif" font-size="14" lengthAdjust="spacing" textLength="149" x="569.5" y="1529.3691">SensorFunctionalityID</text><rect fill="#E2E2F0" height="46.9766" rx="2.5" ry="2.5" style="stroke:#181818;stroke-width:0.5;" width="78" x="737" y="1492.3457"/><text fill="#000000" font-family="sans-serif" font-size="14" lengthAdjust="spacing" textLength="64" x="744" y="1512.8809">sensorID:</text><text fill="#000000" font-family="sans-serif" font-size="14" lengthAdjust="spacing" textLength="61" x="745.5" y="1529.3691">SensorID</text><rect fill="#E2E2F0" height="46.9766" rx="2.5" ry="2.5" style="stroke:#181818;stroke-width:0.5;" width="75" x="825" y="1492.3457"/><text fill="#000000" font-family="sans-serif" font-size="14" lengthAdjust="spacing" textLength="61" x="832" y="1512.8809">deviceID:</text><text fill="#000000" font-family="sans-serif" font-size="14" lengthAdjust="spacing" textLength="58" x="833.5" y="1529.3691">DeviceID</text><rect fill="#E2E2F0" height="46.9766" rx="2.5" ry="2.5" style="stroke:#181818;stroke-width:0.5;" width="113" x="910" y="1492.3457"/><text fill="#000000" font-family="sans-serif" font-size="14" font-style="italic" lengthAdjust="spacing" textLength="95" x="919" y="1512.8809">&#171;Component&#187;</text><text fill="#000000" font-family="sans-serif" font-size="14" lengthAdjust="spacing" textLength="99" x="917" y="1529.3691">:SensorService</text><rect fill="#E2E2F0" height="46.9766" rx="2.5" ry="2.5" style="stroke:#181818;stroke-width:0.5;" width="135" x="1092" y="1492.3457"/><text fill="#000000" font-family="sans-serif" font-size="14" font-style="italic" lengthAdjust="spacing" textLength="95" x="1112" y="1512.8809">&#171;Component&#187;</text><text fill="#000000" font-family="sans-serif" font-size="14" lengthAdjust="spacing" textLength="121" x="1099" y="1529.3691">:DeviceRepository</text><rect fill="#E2E2F0" height="46.9766" rx="2.5" ry="2.5" style="stroke:#181818;stroke-width:0.5;" width="61" x="1237" y="1492.3457"/><text fill="#000000" font-family="sans-serif" font-size="14" lengthAdjust="spacing" textLength="47" x="1244" y="1512.8809">device:</text><text fill="#000000" font-family="sans-serif" font-size="14" lengthAdjust="spacing" textLength="44" x="1245.5" y="1529.3691">Device</text><rect fill="#E2E2F0" height="46.9766" rx="2.5" ry="2.5" style="stroke:#181818;stroke-width:0.5;" width="226" x="1308" y="1492.3457"/><text fill="#000000" font-family="sans-serif" font-size="14" font-style="italic" lengthAdjust="spacing" textLength="95" x="1373.5" y="1512.8809">&#171;Component&#187;</text><text fill="#000000" font-family="sans-serif" font-size="14" lengthAdjust="spacing" textLength="212" x="1315" y="1529.3691">:SensorFunctionalityRepository</text><rect fill="#E2E2F0" height="46.9766" rx="2.5" ry="2.5" style="stroke:#181818;stroke-width:0.5;" width="115" x="1544" y="1492.3457"/><text fill="#000000" font-family="sans-serif" font-size="14" font-style="italic" lengthAdjust="spacing" textLength="95" x="1554" y="1512.8809">&#171;Component&#187;</text><text fill="#000000" font-family="sans-serif" font-size="14" lengthAdjust="spacing" textLength="101" x="1551" y="1529.3691">:FactorySensor</text><rect fill="#E2E2F0" height="46.9766" rx="2.5" ry="2.5" style="stroke:#181818;stroke-width:0.5;" width="64" x="1699.5" y="1492.3457"/><text fill="#000000" font-family="sans-serif" font-size="14" lengthAdjust="spacing" textLength="50" x="1706.5" y="1512.8809">sensor:</text><text fill="#000000" font-family="sans-serif" font-size="14" lengthAdjust="spacing" textLength="47" x="1708" y="1529.3691">Sensor</text><rect fill="#E2E2F0" height="46.9766" rx="2.5" ry="2.5" style="stroke:#181818;stroke-width:0.5;" width="138" x="1773.5" y="1492.3457"/><text fill="#000000" font-family="sans-serif" font-size="14" font-style="italic" lengthAdjust="spacing" textLength="95" x="1795" y="1512.8809">&#171;Component&#187;</text><text fill="#000000" font-family="sans-serif" font-size="14" lengthAdjust="spacing" textLength="124" x="1780.5" y="1529.3691">:SensorRepository</text><rect fill="#E2E2F0" height="46.9766" rx="2.5" ry="2.5" style="stroke:#181818;stroke-width:0.5;" width="94" x="1921.5" y="1492.3457"/><text fill="#000000" font-family="sans-serif" font-size="14" lengthAdjust="spacing" textLength="80" x="1928.5" y="1512.8809">sensorDTO:</text><text fill="#000000" font-family="sans-serif" font-size="14" lengthAdjust="spacing" textLength="77" x="1930" y="1529.3691">SensorDTO</text><rect fill="#E2E2F0" height="46.9766" rx="2.5" ry="2.5" style="stroke:#181818;stroke-width:0.5;" width="109" x="2025.5" y="1492.3457"/><text fill="#000000" font-family="sans-serif" font-size="14" font-style="italic" lengthAdjust="spacing" textLength="95" x="2032.5" y="1512.8809">&#171;Component&#187;</text><text fill="#000000" font-family="sans-serif" font-size="14" lengthAdjust="spacing" textLength="67" x="2046.5" y="1529.3691">:DB Driver</text><rect fill="none" height="39.4434" style="stroke:#000000;stroke-width:1.5;" width="189" x="127.5" y="169.707"/><path d="M127.5,169.707 L191.5,169.707 L191.5,176.707 L181.5,186.707 L127.5,186.707 L127.5,169.707 " fill="#EEEEEE" style="stroke:#000000;stroke-width:2.0;"/><text fill="#000000" font-family="sans-serif" font-size="13" font-weight="bold" lengthAdjust="spacing" textLength="19" x="140.5" y="184.2754">ref</text><text fill="#000000" font-family="sans-serif" font-size="12" lengthAdjust="spacing" textLength="181" x="131.5" y="202.3086">UC06-SD-ListAllDevicesInRoom</text><rect fill="none" height="39.4434" style="stroke:#000000;stroke-width:1.5;" width="210" x="127.5" y="214.1504"/><path d="M127.5,214.1504 L191.5,214.1504 L191.5,221.1504 L181.5,231.1504 L127.5,231.1504 L127.5,214.1504 " fill="#EEEEEE" style="stroke:#000000;stroke-width:2.0;"/><text fill="#000000" font-family="sans-serif" font-size="13" font-weight="bold" lengthAdjust="spacing" textLength="19" x="140.5" y="228.7188">ref</text><text fill="#000000" font-family="sans-serif" font-size="12" lengthAdjust="spacing" textLength="202" x="131.5" y="246.752">UC7.1-SD-ListSensorFunctionalities</text><ellipse cx="10.5" cy="279.1543" fill="none" rx="4" ry="4" style="stroke:#181818;stroke-width:1.5;"/><polygon fill="#181818" points="163,275.9043,173,279.9043,163,283.9043,167,279.9043" style="stroke:#181818;stroke-width:1.0;"/><line style="stroke:#181818;stroke-width:1.0;" x1="15" x2="169" y1="279.9043" y2="279.9043"/><text fill="#000000" font-family="sans-serif" font-size="13" font-weight="bold" lengthAdjust="spacing" textLength="9" x="18" y="275.1621">1</text><text fill="#000000" font-family="sans-serif" font-size="13" lengthAdjust="spacing" textLength="111" x="31" y="275.1621">POST api/sensors</text><polygon fill="#181818" points="452,320.5254,462,324.5254,452,328.5254,456,324.5254" style="stroke:#181818;stroke-width:1.0;"/><line style="stroke:#181818;stroke-width:1.0;" x1="185" x2="458" y1="324.5254" y2="324.5254"/><text fill="#000000" font-family="sans-serif" font-size="13" font-weight="bold" lengthAdjust="spacing" textLength="9" x="192" y="312.1279">2</text><text fill="#000000" font-family="sans-serif" font-size="13" lengthAdjust="spacing" textLength="159" x="205" y="304.4727">POST addSensorToDevice</text><text fill="#000000" font-family="sans-serif" font-size="13" lengthAdjust="spacing" textLength="247" x="205" y="319.7832">(@RequestBody SensorDTO sensorDTO)</text><rect fill="#E2E2F0" height="46.9766" rx="2.5" ry="2.5" style="stroke:#181818;stroke-width:0.5;" width="166" x="561" y="332.5254"/><text fill="#000000" font-family="sans-serif" font-size="14" lengthAdjust="spacing" textLength="152" x="568" y="353.0605">sensorFunctionalityID:</text><text fill="#000000" font-family="sans-serif" font-size="14" lengthAdjust="spacing" textLength="149" x="569.5" y="369.5488">SensorFunctionalityID</text><polygon fill="#181818" points="549,349.8359,559,353.8359,549,357.8359,553,353.8359" style="stroke:#181818;stroke-width:1.0;"/><line style="stroke:#181818;stroke-width:1.0;stroke-dasharray:2.0,2.0;" x1="474" x2="555" y1="353.8359" y2="353.8359"/><text fill="#000000" font-family="sans-serif" font-size="13" font-weight="bold" lengthAdjust="spacing" textLength="9" x="481" y="349.0938">3</text><text fill="#000000" font-family="sans-serif" font-size="13" lengthAdjust="spacing" textLength="52" x="494" y="349.0938">&#171;create&#187;</text><rect fill="#E2E2F0" height="46.9766" rx="2.5" ry="2.5" style="stroke:#181818;stroke-width:0.5;" width="78" x="737" y="380.502"/><text fill="#000000" font-family="sans-serif" font-size="14" lengthAdjust="spacing" textLength="64" x="744" y="401.0371">sensorID:</text><text fill="#000000" font-family="sans-serif" font-size="14" lengthAdjust="spacing" textLength="61" x="745.5" y="417.5254">SensorID</text><polygon fill="#181818" points="725,397.8125,735,401.8125,725,405.8125,729,401.8125" style="stroke:#181818;stroke-width:1.0;"/><line style="stroke:#181818;stroke-width:1.0;stroke-dasharray:2.0,2.0;" x1="474" x2="731" y1="401.8125" y2="401.8125"/><text fill="#000000" font-family="sans-serif" font-size="13" font-weight="bold" lengthAdjust="spacing" textLength="9" x="481" y="397.0703">4</text><text fill="#000000" font-family="sans-serif" font-size="13" lengthAdjust="spacing" textLength="52" x="494" y="397.0703">&#171;create&#187;</text><rect fill="#E2E2F0" height="46.9766" rx="2.5" ry="2.5" style="stroke:#181818;stroke-width:0.5;" width="75" x="825" y="428.4785"/><text fill="#000000" font-family="sans-serif" font-size="14" lengthAdjust="spacing" textLength="61" x="832" y="449.0137">deviceID:</text><text fill="#000000" font-family="sans-serif" font-size="14" lengthAdjust="spacing" textLength="58" x="833.5" y="465.502">DeviceID</text><polygon fill="#181818" points="813,445.7891,823,449.7891,813,453.7891,817,449.7891" style="stroke:#181818;stroke-width:1.0;"/><line style="stroke:#181818;stroke-width:1.0;stroke-dasharray:2.0,2.0;" x1="474" x2="819" y1="449.7891" y2="449.7891"/><text fill="#000000" font-family="sans-serif" font-size="13" font-weight="bold" lengthAdjust="spacing" textLength="9" x="481" y="445.0469">5</text><text fill="#000000" font-family="sans-serif" font-size="13" lengthAdjust="spacing" textLength="52" x="494" y="445.0469">&#171;create&#187;</text><polygon fill="#181818" points="949.5,509.0762,959.5,513.0762,949.5,517.0762,953.5,513.0762" style="stroke:#181818;stroke-width:1.0;"/><line style="stroke:#181818;stroke-width:1.0;" x1="474" x2="955.5" y1="513.0762" y2="513.0762"/><text fill="#000000" font-family="sans-serif" font-size="13" font-weight="bold" lengthAdjust="spacing" textLength="9" x="481" y="500.6787">6</text><text fill="#000000" font-family="sans-serif" font-size="13" lengthAdjust="spacing" textLength="195" x="494" y="493.0234">createSensorAndSave(deviceID,</text><text fill="#000000" font-family="sans-serif" font-size="13" lengthAdjust="spacing" textLength="206" x="494" y="508.334">sensorFunctionalityID, sensorID)</text><polygon fill="#181818" points="1142.5,538.3867,1152.5,542.3867,1142.5,546.3867,1146.5,542.3867" style="stroke:#181818;stroke-width:1.0;"/><line style="stroke:#181818;stroke-width:1.0;" x1="971.5" x2="1148.5" y1="542.3867" y2="542.3867"/><text fill="#000000" font-family="sans-serif" font-size="13" font-weight="bold" lengthAdjust="spacing" textLength="9" x="978.5" y="537.6445">7</text><text fill="#000000" font-family="sans-serif" font-size="13" lengthAdjust="spacing" textLength="151" x="991.5" y="537.6445">findEntityByID(deviceID)</text><polygon fill="#181818" points="2063,567.6973,2073,571.6973,2063,575.6973,2067,571.6973" style="stroke:#181818;stroke-width:1.0;"/><line style="stroke:#181818;stroke-width:1.0;" x1="1164.5" x2="2069" y1="571.6973" y2="571.6973"/><text fill="#000000" font-family="sans-serif" font-size="13" font-weight="bold" lengthAdjust="spacing" textLength="9" x="1171.5" y="566.9551">8</text><text fill="#000000" font-family="sans-serif" font-size="13" lengthAdjust="spacing" textLength="135" x="1184.5" y="566.9551">findByID(id.toString())</text><ellipse cx="2231.5" cy="600.2578" fill="none" rx="4" ry="4" style="stroke:#181818;stroke-width:1.5;"/><polygon fill="#181818" points="2214.5,597.0078,2224.5,601.0078,2214.5,605.0078,2218.5,601.0078" style="stroke:#181818;stroke-width:1.0;"/><line style="stroke:#181818;stroke-width:1.0;" x1="2085" x2="2220.5" y1="601.0078" y2="601.0078"/><text fill="#000000" font-family="sans-serif" font-size="13" font-weight="bold" lengthAdjust="spacing" textLength="9" x="2092" y="596.2656">9</text><text fill="#000000" font-family="sans-serif" font-size="13" lengthAdjust="spacing" textLength="112" x="2105" y="596.2656">DATABASE QUERY</text><polygon fill="#181818" points="2096,626.3184,2086,630.3184,2096,634.3184,2092,630.3184" style="stroke:#181818;stroke-width:1.0;"/><ellipse cx="2231.5" cy="629.5684" fill="none" rx="4" ry="4" style="stroke:#181818;stroke-width:1.5;"/><line style="stroke:#181818;stroke-width:1.0;stroke-dasharray:2.0,2.0;" x1="2090" x2="2227" y1="630.3184" y2="630.3184"/><text fill="#000000" font-family="sans-serif" font-size="13" font-weight="bold" lengthAdjust="spacing" textLength="18" x="2102" y="625.5762">10</text><text fill="#000000" font-family="sans-serif" font-size="13" lengthAdjust="spacing" textLength="109" x="2124" y="625.5762">QUERY RESPONSE</text><polygon fill="#181818" points="1175.5,655.6289,1165.5,659.6289,1175.5,663.6289,1171.5,659.6289" style="stroke:#181818;stroke-width:1.0;"/><line style="stroke:#181818;stroke-width:1.0;stroke-dasharray:2.0,2.0;" x1="1169.5" x2="2074" y1="659.6289" y2="659.6289"/><text fill="#000000" font-family="sans-serif" font-size="13" font-weight="bold" lengthAdjust="spacing" textLength="18" x="1181.5" y="654.8867">11</text><text fill="#000000" font-family="sans-serif" font-size="13" lengthAdjust="spacing" textLength="174" x="1203.5" y="654.8867">DeviceDataModel:deviceDM</text><polygon fill="#181818" points="982.5,684.9395,972.5,688.9395,982.5,692.9395,978.5,688.9395" style="stroke:#181818;stroke-width:1.0;"/><line style="stroke:#181818;stroke-width:1.0;stroke-dasharray:2.0,2.0;" x1="976.5" x2="1153.5" y1="688.9395" y2="688.9395"/><text fill="#000000" font-family="sans-serif" font-size="13" font-weight="bold" lengthAdjust="spacing" textLength="18" x="988.5" y="684.1973">12</text><text fill="#000000" font-family="sans-serif" font-size="13" lengthAdjust="spacing" textLength="42" x="1010.5" y="684.1973">Device</text><polygon fill="#181818" points="1250.5,714.25,1260.5,718.25,1250.5,722.25,1254.5,718.25" style="stroke:#181818;stroke-width:1.0;"/><line style="stroke:#181818;stroke-width:1.0;" x1="971.5" x2="1256.5" y1="718.25" y2="718.25"/><text fill="#000000" font-family="sans-serif" font-size="13" font-weight="bold" lengthAdjust="spacing" textLength="18" x="978.5" y="713.5078">13</text><text fill="#000000" font-family="sans-serif" font-size="13" lengthAdjust="spacing" textLength="58" x="1000.5" y="713.5078">isActive()</text><polygon fill="#181818" points="982.5,743.5605,972.5,747.5605,982.5,751.5605,978.5,747.5605" style="stroke:#181818;stroke-width:1.0;"/><line style="stroke:#181818;stroke-width:1.0;stroke-dasharray:2.0,2.0;" x1="976.5" x2="1261.5" y1="747.5605" y2="747.5605"/><text fill="#000000" font-family="sans-serif" font-size="13" font-weight="bold" lengthAdjust="spacing" textLength="18" x="988.5" y="742.8184">14</text><text fill="#000000" font-family="sans-serif" font-size="13" lengthAdjust="spacing" textLength="25" x="1010.5" y="742.8184">true</text><polygon fill="#181818" points="1404,772.8711,1414,776.8711,1404,780.8711,1408,776.8711" style="stroke:#181818;stroke-width:1.0;"/><line style="stroke:#181818;stroke-width:1.0;" x1="971.5" x2="1410" y1="776.8711" y2="776.8711"/><text fill="#000000" font-family="sans-serif" font-size="13" font-weight="bold" lengthAdjust="spacing" textLength="18" x="978.5" y="772.1289">15</text><text fill="#000000" font-family="sans-serif" font-size="13" lengthAdjust="spacing" textLength="394" x="1000.5" y="772.1289">getClassNameForSensorFunctionalityID(sensorFunctionalityID)</text><polygon fill="#181818" points="982.5,802.1816,972.5,806.1816,982.5,810.1816,978.5,806.1816" style="stroke:#181818;stroke-width:1.0;"/><line style="stroke:#181818;stroke-width:1.0;stroke-dasharray:2.0,2.0;" x1="976.5" x2="1415" y1="806.1816" y2="806.1816"/><text fill="#000000" font-family="sans-serif" font-size="13" font-weight="bold" lengthAdjust="spacing" textLength="18" x="988.5" y="801.4395">16</text><text fill="#000000" font-family="sans-serif" font-size="13" lengthAdjust="spacing" textLength="117" x="1010.5" y="801.4395">String sensorClass</text><polygon fill="#181818" points="1584.5,831.4922,1594.5,835.4922,1584.5,839.4922,1588.5,835.4922" style="stroke:#181818;stroke-width:1.0;"/><line style="stroke:#181818;stroke-width:1.0;" x1="971.5" x2="1590.5" y1="835.4922" y2="835.4922"/><text fill="#000000" font-family="sans-serif" font-size="13" font-weight="bold" lengthAdjust="spacing" textLength="18" x="978.5" y="830.75">17</text><text fill="#000000" font-family="sans-serif" font-size="13" lengthAdjust="spacing" textLength="436" x="1000.5" y="830.75">createSensor(sensorID, deviceID, sensorFunctionalityID, sensorClass)</text><rect fill="#E2E2F0" height="46.9766" rx="2.5" ry="2.5" style="stroke:#181818;stroke-width:0.5;" width="64" x="1699.5" y="843.4922"/><text fill="#000000" font-family="sans-serif" font-size="14" lengthAdjust="spacing" textLength="50" x="1706.5" y="864.0273">sensor:</text><text fill="#000000" font-family="sans-serif" font-size="14" lengthAdjust="spacing" textLength="47" x="1708" y="880.5156">Sensor</text><polygon fill="#181818" points="1687.5,860.8027,1697.5,864.8027,1687.5,868.8027,1691.5,864.8027" style="stroke:#181818;stroke-width:1.0;"/><line style="stroke:#181818;stroke-width:1.0;stroke-dasharray:2.0,2.0;" x1="1606.5" x2="1693.5" y1="864.8027" y2="864.8027"/><text fill="#000000" font-family="sans-serif" font-size="13" font-weight="bold" lengthAdjust="spacing" textLength="18" x="1613.5" y="860.0605">18</text><text fill="#000000" font-family="sans-serif" font-size="13" lengthAdjust="spacing" textLength="52" x="1635.5" y="860.0605">&#171;create&#187;</text><polygon fill="#181818" points="982.5,908.7793,972.5,912.7793,982.5,916.7793,978.5,912.7793" style="stroke:#181818;stroke-width:1.0;"/><line style="stroke:#181818;stroke-width:1.0;stroke-dasharray:2.0,2.0;" x1="976.5" x2="1595.5" y1="912.7793" y2="912.7793"/><text fill="#000000" font-family="sans-serif" font-size="13" font-weight="bold" lengthAdjust="spacing" textLength="18" x="988.5" y="908.0371">19</text><text fill="#000000" font-family="sans-serif" font-size="13" lengthAdjust="spacing" textLength="42" x="1010.5" y="908.0371">Sensor</text><polygon fill="#181818" points="1714.5,938.0898,1724.5,942.0898,1714.5,946.0898,1718.5,942.0898" style="stroke:#181818;stroke-width:1.0;"/><line style="stroke:#181818;stroke-width:1.0;" x1="971.5" x2="1720.5" y1="942.0898" y2="942.0898"/><text fill="#000000" font-family="sans-serif" font-size="13" font-weight="bold" lengthAdjust="spacing" textLength="18" x="978.5" y="937.3477">20</text><text fill="#000000" font-family="sans-serif" font-size="13" lengthAdjust="spacing" textLength="56" x="1000.5" y="937.3477">identity()</text><polygon fill="#181818" points="982.5,967.4004,972.5,971.4004,982.5,975.4004,978.5,971.4004" style="stroke:#181818;stroke-width:1.0;"/><line style="stroke:#181818;stroke-width:1.0;stroke-dasharray:2.0,2.0;" x1="976.5" x2="1725.5" y1="971.4004" y2="971.4004"/><text fill="#000000" font-family="sans-serif" font-size="13" font-weight="bold" lengthAdjust="spacing" textLength="18" x="988.5" y="966.6582">21</text><text fill="#000000" font-family="sans-serif" font-size="13" lengthAdjust="spacing" textLength="56" x="1010.5" y="966.6582">SensorID</text><polygon fill="#181818" points="1825.5,996.7109,1835.5,1000.7109,1825.5,1004.7109,1829.5,1000.7109" style="stroke:#181818;stroke-width:1.0;"/><line style="stroke:#181818;stroke-width:1.0;" x1="971.5" x2="1831.5" y1="1000.7109" y2="1000.7109"/><text fill="#000000" font-family="sans-serif" font-size="13" font-weight="bold" lengthAdjust="spacing" textLength="18" x="978.5" y="995.9688">22</text><text fill="#000000" font-family="sans-serif" font-size="13" lengthAdjust="spacing" textLength="182" x="1000.5" y="995.9688">containsEntityByID(sensorID)</text><polygon fill="#181818" points="2063,1026.0215,2073,1030.0215,2063,1034.0215,2067,1030.0215" style="stroke:#181818;stroke-width:1.0;"/><line style="stroke:#181818;stroke-width:1.0;" x1="1847.5" x2="2069" y1="1030.0215" y2="1030.0215"/><text fill="#000000" font-family="sans-serif" font-size="13" font-weight="bold" lengthAdjust="spacing" textLength="18" x="1854.5" y="1025.2793">23</text><text fill="#000000" font-family="sans-serif" font-size="13" lengthAdjust="spacing" textLength="148" x="1876.5" y="1025.2793">existsByID(id.toString())</text><ellipse cx="2231.5" cy="1058.582" fill="none" rx="4" ry="4" style="stroke:#181818;stroke-width:1.5;"/><polygon fill="#181818" points="2214.5,1055.332,2224.5,1059.332,2214.5,1063.332,2218.5,1059.332" style="stroke:#181818;stroke-width:1.0;"/><line style="stroke:#181818;stroke-width:1.0;" x1="2085" x2="2220.5" y1="1059.332" y2="1059.332"/><text fill="#000000" font-family="sans-serif" font-size="13" font-weight="bold" lengthAdjust="spacing" textLength="18" x="2092" y="1054.5898">24</text><text fill="#000000" font-family="sans-serif" font-size="13" lengthAdjust="spacing" textLength="112" x="2114" y="1054.5898">DATABASE QUERY</text><polygon fill="#181818" points="2096,1084.6426,2086,1088.6426,2096,1092.6426,2092,1088.6426" style="stroke:#181818;stroke-width:1.0;"/><ellipse cx="2231.5" cy="1087.8926" fill="none" rx="4" ry="4" style="stroke:#181818;stroke-width:1.5;"/><line style="stroke:#181818;stroke-width:1.0;stroke-dasharray:2.0,2.0;" x1="2090" x2="2227" y1="1088.6426" y2="1088.6426"/><text fill="#000000" font-family="sans-serif" font-size="13" font-weight="bold" lengthAdjust="spacing" textLength="18" x="2102" y="1083.9004">25</text><text fill="#000000" font-family="sans-serif" font-size="13" lengthAdjust="spacing" textLength="109" x="2124" y="1083.9004">QUERY RESPONSE</text><polygon fill="#181818" points="1858.5,1113.9531,1848.5,1117.9531,1858.5,1121.9531,1854.5,1117.9531" style="stroke:#181818;stroke-width:1.0;"/><line style="stroke:#181818;stroke-width:1.0;stroke-dasharray:2.0,2.0;" x1="1852.5" x2="2074" y1="1117.9531" y2="1117.9531"/><text fill="#000000" font-family="sans-serif" font-size="13" font-weight="bold" lengthAdjust="spacing" textLength="18" x="1864.5" y="1113.2109">26</text><text fill="#000000" font-family="sans-serif" font-size="13" lengthAdjust="spacing" textLength="30" x="1886.5" y="1113.2109">false</text><polygon fill="#181818" points="982.5,1143.2637,972.5,1147.2637,982.5,1151.2637,978.5,1147.2637" style="stroke:#181818;stroke-width:1.0;"/><line style="stroke:#181818;stroke-width:1.0;stroke-dasharray:2.0,2.0;" x1="976.5" x2="1836.5" y1="1147.2637" y2="1147.2637"/><text fill="#000000" font-family="sans-serif" font-size="13" font-weight="bold" lengthAdjust="spacing" textLength="18" x="988.5" y="1142.5215">27</text><text fill="#000000" font-family="sans-serif" font-size="13" lengthAdjust="spacing" textLength="30" x="1010.5" y="1142.5215">false</text><polygon fill="#181818" points="1825.5,1172.5742,1835.5,1176.5742,1825.5,1180.5742,1829.5,1176.5742" style="stroke:#181818;stroke-width:1.0;"/><line style="stroke:#181818;stroke-width:1.0;" x1="971.5" x2="1831.5" y1="1176.5742" y2="1176.5742"/><text fill="#000000" font-family="sans-serif" font-size="13" font-weight="bold" lengthAdjust="spacing" textLength="18" x="978.5" y="1171.832">28</text><text fill="#000000" font-family="sans-serif" font-size="13" lengthAdjust="spacing" textLength="78" x="1000.5" y="1171.832">save(sensor)</text><polygon fill="#181818" points="2063,1201.8848,2073,1205.8848,2063,1209.8848,2067,1205.8848" style="stroke:#181818;stroke-width:1.0;"/><line style="stroke:#181818;stroke-width:1.0;" x1="1847.5" x2="2069" y1="1205.8848" y2="1205.8848"/><text fill="#000000" font-family="sans-serif" font-size="13" font-weight="bold" lengthAdjust="spacing" textLength="18" x="1854.5" y="1201.1426">29</text><text fill="#000000" font-family="sans-serif" font-size="13" lengthAdjust="spacing" textLength="145" x="1876.5" y="1201.1426">save(sensorDataModel)</text><ellipse cx="2231.5" cy="1234.4453" fill="none" rx="4" ry="4" style="stroke:#181818;stroke-width:1.5;"/><polygon fill="#181818" points="2214.5,1231.1953,2224.5,1235.1953,2214.5,1239.1953,2218.5,1235.1953" style="stroke:#181818;stroke-width:1.0;"/><line style="stroke:#181818;stroke-width:1.0;" x1="2085" x2="2220.5" y1="1235.1953" y2="1235.1953"/><text fill="#000000" font-family="sans-serif" font-size="13" font-weight="bold" lengthAdjust="spacing" textLength="18" x="2092" y="1230.4531">30</text><text fill="#000000" font-family="sans-serif" font-size="13" lengthAdjust="spacing" textLength="112" x="2114" y="1230.4531">DATABASE QUERY</text><polygon fill="#181818" points="2096,1260.5059,2086,1264.5059,2096,1268.5059,2092,1264.5059" style="stroke:#181818;stroke-width:1.0;"/><ellipse cx="2231.5" cy="1263.7559" fill="none" rx="4" ry="4" style="stroke:#181818;stroke-width:1.5;"/><line style="stroke:#181818;stroke-width:1.0;stroke-dasharray:2.0,2.0;" x1="2090" x2="2227" y1="1264.5059" y2="1264.5059"/><text fill="#000000" font-family="sans-serif" font-size="13" font-weight="bold" lengthAdjust="spacing" textLength="18" x="2102" y="1259.7637">31</text><text fill="#000000" font-family="sans-serif" font-size="13" lengthAdjust="spacing" textLength="109" x="2124" y="1259.7637">QUERY RESPONSE</text><polygon fill="#181818" points="1858.5,1289.8164,1848.5,1293.8164,1858.5,1297.8164,1854.5,1293.8164" style="stroke:#181818;stroke-width:1.0;"/><line style="stroke:#181818;stroke-width:1.0;stroke-dasharray:2.0,2.0;" x1="1852.5" x2="2074" y1="1293.8164" y2="1293.8164"/><text fill="#000000" font-family="sans-serif" font-size="13" font-weight="bold" lengthAdjust="spacing" textLength="18" x="1864.5" y="1289.0742">32</text><text fill="#000000" font-family="sans-serif" font-size="13" lengthAdjust="spacing" textLength="176" x="1886.5" y="1289.0742">SensorDataModel:sensorDM</text><polygon fill="#181818" points="982.5,1319.127,972.5,1323.127,982.5,1327.127,978.5,1323.127" style="stroke:#181818;stroke-width:1.0;"/><line style="stroke:#181818;stroke-width:1.0;stroke-dasharray:2.0,2.0;" x1="976.5" x2="1836.5" y1="1323.127" y2="1323.127"/><text fill="#000000" font-family="sans-serif" font-size="13" font-weight="bold" lengthAdjust="spacing" textLength="18" x="988.5" y="1318.3848">33</text><text fill="#000000" font-family="sans-serif" font-size="13" lengthAdjust="spacing" textLength="42" x="1010.5" y="1318.3848">Sensor</text><polygon fill="#181818" points="485,1348.4375,475,1352.4375,485,1356.4375,481,1352.4375" style="stroke:#181818;stroke-width:1.0;"/><line style="stroke:#181818;stroke-width:1.0;stroke-dasharray:2.0,2.0;" x1="479" x2="960.5" y1="1352.4375" y2="1352.4375"/><text fill="#000000" font-family="sans-serif" font-size="13" font-weight="bold" lengthAdjust="spacing" textLength="18" x="491" y="1347.6953">34</text><text fill="#000000" font-family="sans-serif" font-size="13" lengthAdjust="spacing" textLength="56" x="513" y="1347.6953">SensorID</text><rect fill="#E2E2F0" height="46.9766" rx="2.5" ry="2.5" style="stroke:#181818;stroke-width:0.5;" width="94" x="1921.5" y="1360.4375"/><text fill="#000000" font-family="sans-serif" font-size="14" lengthAdjust="spacing" textLength="80" x="1928.5" y="1380.9727">sensorDTO:</text><text fill="#000000" font-family="sans-serif" font-size="14" lengthAdjust="spacing" textLength="77" x="1930" y="1397.4609">SensorDTO</text><polygon fill="#181818" points="1909.5,1377.748,1919.5,1381.748,1909.5,1385.748,1913.5,1381.748" style="stroke:#181818;stroke-width:1.0;"/><line style="stroke:#181818;stroke-width:1.0;stroke-dasharray:2.0,2.0;" x1="474" x2="1915.5" y1="1381.748" y2="1381.748"/><text fill="#000000" font-family="sans-serif" font-size="13" font-weight="bold" lengthAdjust="spacing" textLength="18" x="481" y="1377.0059">35</text><text fill="#000000" font-family="sans-serif" font-size="13" lengthAdjust="spacing" textLength="52" x="503" y="1377.0059">&#171;create&#187;</text><polygon fill="#181818" points="196,1425.7246,186,1429.7246,196,1433.7246,192,1429.7246" style="stroke:#181818;stroke-width:1.0;"/><line style="stroke:#181818;stroke-width:1.0;stroke-dasharray:2.0,2.0;" x1="190" x2="463" y1="1429.7246" y2="1429.7246"/><text fill="#000000" font-family="sans-serif" font-size="13" font-weight="bold" lengthAdjust="spacing" textLength="18" x="202" y="1424.9824">36</text><text fill="#000000" font-family="sans-serif" font-size="13" lengthAdjust="spacing" textLength="232" x="224" y="1424.9824">newSensorDTO, HttpStatus.CREATED</text><ellipse cx="10.5" cy="1473.5957" fill="none" rx="4" ry="4" style="stroke:#181818;stroke-width:1.5;"/><polygon fill="#181818" points="27.5,1470.3457,17.5,1474.3457,27.5,1478.3457,23.5,1474.3457" style="stroke:#181818;stroke-width:1.0;"/><line style="stroke:#181818;stroke-width:1.0;stroke-dasharray:2.0,2.0;" x1="25.5" x2="174" y1="1474.3457" y2="1474.3457"/><text fill="#000000" font-family="sans-serif" font-size="13" font-weight="bold" lengthAdjust="spacing" textLength="18" x="28" y="1461.9482">37</text><text fill="#000000" font-family="sans-serif" font-size="13" lengthAdjust="spacing" textLength="96" x="50" y="1454.293">JSON response,</text><text fill="#000000" font-family="sans-serif" font-size="13" lengthAdjust="spacing" textLength="129" x="50" y="1469.6035">HttpStatus.CREATED</text><!--SRC=[jLTBSzis4BxZLsoTGvICwJuEpGn7emabKZOxDfaILDeaxW4I4PSJ2L09I8twwmi2V80FoJcqDmhyThzl5_kWo45oTjYjQO6GpEMMmchnvkOdSC3BCc3qRy2K2Lw0vE3JOxwX27stByZJZe2a_1-GnK4ThVbNk9fEyM6DJqBItMpsoDmvsNoXBBk25pufljmMz6HmC9qkE9CaPxJGG4oB8oqKxZv_-bDgu9uKCj_aUy8aNBa9FyWIG0IOH-rYj-UCCZcRzT16SKbHyEsM5h_HjJPjJowP2sszFB2Dp3aZsroUGjzzP7ZiNFjjBK9_p9Tbth7eepETNutsgqUDhiz7monpfzvgOEVaOegC_uJkkSWbBqxQl3syP6lKD1ejor5zdOJr25l4SwJkacnACsEXZQkJvw-oIRx5EIgrf-uvJSQxdyODWNgshbVzwcTz3dwH7wjApjOzxwfNG3K8GkWb3XPf64UmZ1Eu3T8qZ6uXlGlWFiGfn4j8ulW1GnY11tVn2WVWHJxumVjm4LJ79G8Lz3DmnLTr3LejVlZPmRvpdmlfRRVcsaJ84ivtcbuPe9U1ybK9w4b9WZG95OjIKn86lwT14ddtuSVofDQsN4NQGfsdOO17HBov-R5MCIoId8flaR980a-dnLE02CS9-iITMSNXmhjOYI7x_7jp5mAfQicFHD9Q1Qe6YR9fvq9jbsL6LyfDYk2HJTuczAy35NBEinCqzztUzQkMedM8a3Lq7CLbpuhNhrrL0Pk2AXjr_QF8vr3rREYXEh1PTp2uO63cq6CP9aSwgHrTgrX7H-1reyYAjECOeUu0KiJjI77XSywoWAabSvehTmsXvQr58sGDepBCjR7Nbdbs8pcMHSwU9gyiysoDL4yvC_w72xwNUdDFDSQlgo3vK9vF7QTyeN-hGiRluWW7sg2dqppxH987dj6jQuJw3oYZDbL7uJ37rKYqREpepYJAXLnu9PvE1ccf-CQuz0uUC8smT0Uk2qzKBhP4Y8ZiwB94ZjpxPBGQ1ZLGEwrPcwa-ejVSNLLFMe2jVjoV5KKr-RjrFAchynhQKhvOo9hOYgDoY-h5qWhlDTSGq4PcjeiLJUtrmYZ3tllE83jpRQeuCghxPpB8VcLpNfBwUXYaU2IrfYmsvkjCMDqwqllcTkmEfL_LH1V_LuzMKuHi1Ustuhb26u3FL9HnBSevQ0Az6AQ5QwR4VnaYxhfsAwg7RurwM8IZOVSst_awQSRxw8PIgw_N7_KdkkDq2DIVYMPjNiETb7iiYJo86xtAWmwnlK4_yT9JlTX_mQfh2YhKLvEWvRAwxAZQzftk-nS0]--></g></svg>