<?xml version="1.0" encoding="us-ascii" standalone="no"?><svg xmlns="http://www.w3.org/2000/svg" xmlns:xlink="http://www.w3.org/1999/xlink" contentStyleType="text/css" height="1061px" preserveAspectRatio="none" style="width:2228px;height:1061px;background:#FFFFFF;" version="1.1" viewBox="0 0 2228 1061" width="2228px" zoomAndPan="magnify"><defs/><g><rect fill="#A9A9A9" height="1009.8555" style="stroke:#181818;stroke-width:0.5;" width="2067" x="143.5" y="45.6211"/><text fill="#000000" font-family="sans-serif" font-size="13" font-weight="bold" lengthAdjust="spacing" textLength="85" x="1134.5" y="59.6494">&#171;SubSystem&#187;</text><text fill="#000000" font-family="sans-serif" font-size="13" font-weight="bold" lengthAdjust="spacing" textLength="59" x="1134.5" y="76.9404">:Backend</text><rect fill="#D3D3D3" height="970.2734" style="stroke:#181818;stroke-width:0.5;" width="2067" x="143.5" y="85.2031"/><text fill="#000000" font-family="sans-serif" font-size="13" font-weight="bold" lengthAdjust="spacing" textLength="76" x="1141" y="99.2314">&#171;Container&#187;</text><text fill="#000000" font-family="sans-serif" font-size="13" font-weight="bold" lengthAdjust="spacing" textLength="46" x="1137" y="116.5225">:Server</text><text fill="#000000" font-family="sans-serif" font-size="14" font-weight="bold" lengthAdjust="spacing" textLength="239" x="998.25" y="30.1074">UC07.1 List Sensor Functionalities</text><line style="stroke:#181818;stroke-width:0.5;stroke-dasharray:5.0,5.0;" x1="199" x2="199" y1="176.0273" y2="997.2344"/><rect fill="#FFFFFF" height="771.916" style="stroke:#181818;stroke-width:1.0;" width="10" x="194" y="207.3184"/><line style="stroke:#181818;stroke-width:0.5;stroke-dasharray:5.0,5.0;" x1="454" x2="454" y1="176.0273" y2="997.2344"/><rect fill="#FFFFFF" height="692.043" style="stroke:#181818;stroke-width:1.0;" width="10" x="449" y="238.6094"/><line style="stroke:#181818;stroke-width:0.5;stroke-dasharray:5.0,5.0;" x1="799" x2="799" y1="246.6094" y2="997.2344"/><rect fill="#FFFFFF" height="258.6484" style="stroke:#181818;stroke-width:1.0;" width="10" x="794" y="640.7129"/><line style="stroke:#181818;stroke-width:0.5;stroke-dasharray:5.0,5.0;" x1="1122" x2="1122" y1="176.0273" y2="997.2344"/><rect fill="#FFFFFF" height="287.2793" style="stroke:#181818;stroke-width:1.0;" width="10" x="1117" y="322.1426"/><line style="stroke:#181818;stroke-width:0.5;stroke-dasharray:5.0,5.0;" x1="1340" x2="1340" y1="176.0273" y2="997.2344"/><rect fill="#FFFFFF" height="31.291" style="stroke:#181818;stroke-width:1.0;" width="10" x="1335" y="353.4336"/><line style="stroke:#181818;stroke-width:0.5;stroke-dasharray:5.0,5.0;" x1="1552.5" x2="1552.5" y1="392.7246" y2="997.2344"/><rect fill="#FFFFFF" height="13" style="stroke:#181818;stroke-width:1.0;" width="10" x="1547.5" y="564.1309"/><line style="stroke:#181818;stroke-width:0.5;stroke-dasharray:5.0,5.0;" x1="1731" x2="1731" y1="176.0273" y2="997.2344"/><rect fill="#FFFFFF" height="31.291" style="stroke:#181818;stroke-width:1.0;" width="10" x="1726" y="501.5488"/><line style="stroke:#181818;stroke-width:0.5;stroke-dasharray:5.0,5.0;" x1="1918" x2="1918" y1="648.7129" y2="997.2344"/><rect fill="#FFFFFF" height="13" style="stroke:#181818;stroke-width:1.0;" width="10" x="1913" y="854.0703"/><line style="stroke:#181818;stroke-width:0.5;stroke-dasharray:5.0,5.0;" x1="2120" x2="2120" y1="778.5371" y2="997.2344"/><rect fill="#E2E2F0" height="51.2422" rx="2.5" ry="2.5" style="stroke:#181818;stroke-width:0.5;" width="103" x="147.5" y="123.7852"/><text fill="#000000" font-family="sans-serif" font-size="14" font-style="italic" lengthAdjust="spacing" textLength="89" x="154.5" y="145.8926">&#171;Component&#187;</text><text fill="#000000" font-family="sans-serif" font-size="14" lengthAdjust="spacing" textLength="47" x="175.5" y="164.5137">:Router</text><rect fill="#E2E2F0" height="51.2422" rx="2.5" ry="2.5" style="stroke:#181818;stroke-width:0.5;" width="234" x="337" y="123.7852"/><text fill="#000000" font-family="sans-serif" font-size="14" font-style="italic" lengthAdjust="spacing" textLength="89" x="409.5" y="145.8926">&#171;Component&#187;</text><text fill="#000000" font-family="sans-serif" font-size="14" lengthAdjust="spacing" textLength="220" x="344" y="164.5137">:SensorFunctionalityControllerWeb</text><rect fill="#E2E2F0" height="51.2422" rx="2.5" ry="2.5" style="stroke:#181818;stroke-width:0.5;" width="190" x="1027" y="123.7852"/><text fill="#000000" font-family="sans-serif" font-size="14" font-style="italic" lengthAdjust="spacing" textLength="89" x="1077.5" y="145.8926">&#171;Component&#187;</text><text fill="#000000" font-family="sans-serif" font-size="14" lengthAdjust="spacing" textLength="176" x="1034" y="164.5137">:SensorFunctionalityService</text><rect fill="#E2E2F0" height="51.2422" rx="2.5" ry="2.5" style="stroke:#181818;stroke-width:0.5;" width="211" x="1234.5" y="123.7852"/><text fill="#000000" font-family="sans-serif" font-size="14" font-style="italic" lengthAdjust="spacing" textLength="89" x="1295.5" y="145.8926">&#171;Component&#187;</text><text fill="#000000" font-family="sans-serif" font-size="14" lengthAdjust="spacing" textLength="197" x="1241.5" y="164.5137">:SensorFunctionalityRepository</text><rect fill="#E2E2F0" height="51.2422" rx="2.5" ry="2.5" style="stroke:#181818;stroke-width:0.5;" width="143" x="1659.5" y="123.7852"/><text fill="#000000" font-family="sans-serif" font-size="14" lengthAdjust="spacing" textLength="123" x="1669.5" y="145.8926">sensorFunctionality</text><text fill="#000000" font-family="sans-serif" font-size="14" lengthAdjust="spacing" textLength="129" x="1666.5" y="164.5137">:SensorFunctionality</text><rect fill="#E2E2F0" height="51.2422" rx="2.5" ry="2.5" style="stroke:#181818;stroke-width:0.5;" width="103" x="147.5" y="997.2344"/><text fill="#000000" font-family="sans-serif" font-size="14" font-style="italic" lengthAdjust="spacing" textLength="89" x="154.5" y="1019.3418">&#171;Component&#187;</text><text fill="#000000" font-family="sans-serif" font-size="14" lengthAdjust="spacing" textLength="47" x="175.5" y="1037.9629">:Router</text><rect fill="#E2E2F0" height="51.2422" rx="2.5" ry="2.5" style="stroke:#181818;stroke-width:0.5;" width="234" x="337" y="997.2344"/><text fill="#000000" font-family="sans-serif" font-size="14" font-style="italic" lengthAdjust="spacing" textLength="89" x="409.5" y="1019.3418">&#171;Component&#187;</text><text fill="#000000" font-family="sans-serif" font-size="14" lengthAdjust="spacing" textLength="220" x="344" y="1037.9629">:SensorFunctionalityControllerWeb</text><rect fill="#E2E2F0" height="51.2422" rx="2.5" ry="2.5" style="stroke:#181818;stroke-width:0.5;" width="221" x="688.5" y="997.2344"/><text fill="#000000" font-family="sans-serif" font-size="14" lengthAdjust="spacing" textLength="171" x="713.5" y="1019.3418">sensorFunctionalityMapper</text><text fill="#000000" font-family="sans-serif" font-size="14" lengthAdjust="spacing" textLength="207" x="695.5" y="1037.9629">:SensorFunctionalityMapperDTO</text><rect fill="#E2E2F0" height="51.2422" rx="2.5" ry="2.5" style="stroke:#181818;stroke-width:0.5;" width="190" x="1027" y="997.2344"/><text fill="#000000" font-family="sans-serif" font-size="14" font-style="italic" lengthAdjust="spacing" textLength="89" x="1077.5" y="1019.3418">&#171;Component&#187;</text><text fill="#000000" font-family="sans-serif" font-size="14" lengthAdjust="spacing" textLength="176" x="1034" y="1037.9629">:SensorFunctionalityService</text><rect fill="#E2E2F0" height="51.2422" rx="2.5" ry="2.5" style="stroke:#181818;stroke-width:0.5;" width="211" x="1234.5" y="997.2344"/><text fill="#000000" font-family="sans-serif" font-size="14" font-style="italic" lengthAdjust="spacing" textLength="89" x="1295.5" y="1019.3418">&#171;Component&#187;</text><text fill="#000000" font-family="sans-serif" font-size="14" lengthAdjust="spacing" textLength="197" x="1241.5" y="1037.9629">:SensorFunctionalityRepository</text><rect fill="#E2E2F0" height="51.2422" rx="2.5" ry="2.5" style="stroke:#181818;stroke-width:0.5;" width="194" x="1455.5" y="997.2344"/><text fill="#000000" font-family="sans-serif" font-size="14" lengthAdjust="spacing" textLength="126" x="1489.5" y="1019.3418">listOfSensorFunctID</text><text fill="#000000" font-family="sans-serif" font-size="14" lengthAdjust="spacing" textLength="180" x="1462.5" y="1037.9629">:List&lt;SensorFunctionalityID&gt;</text><rect fill="#E2E2F0" height="51.2422" rx="2.5" ry="2.5" style="stroke:#181818;stroke-width:0.5;" width="143" x="1659.5" y="997.2344"/><text fill="#000000" font-family="sans-serif" font-size="14" lengthAdjust="spacing" textLength="123" x="1669.5" y="1019.3418">sensorFunctionality</text><text fill="#000000" font-family="sans-serif" font-size="14" lengthAdjust="spacing" textLength="129" x="1666.5" y="1037.9629">:SensorFunctionality</text><rect fill="#E2E2F0" height="51.2422" rx="2.5" ry="2.5" style="stroke:#181818;stroke-width:0.5;" width="211" x="1812.5" y="997.2344"/><text fill="#000000" font-family="sans-serif" font-size="14" lengthAdjust="spacing" textLength="143" x="1846.5" y="1019.3418">listOfSensorFunctDTO</text><text fill="#000000" font-family="sans-serif" font-size="14" lengthAdjust="spacing" textLength="197" x="1819.5" y="1037.9629">:List&lt;SensorFunctionalityDTO&gt;</text><rect fill="#E2E2F0" height="51.2422" rx="2.5" ry="2.5" style="stroke:#181818;stroke-width:0.5;" width="173" x="2033.5" y="997.2344"/><text fill="#000000" font-family="sans-serif" font-size="14" lengthAdjust="spacing" textLength="153" x="2043.5" y="1019.3418">sensorFunctionalityDTO</text><text fill="#000000" font-family="sans-serif" font-size="14" lengthAdjust="spacing" textLength="159" x="2040.5" y="1037.9629">:SensorFunctionalityDTO</text><ellipse cx="10.5" cy="206.5684" fill="none" rx="4" ry="4" style="stroke:#181818;stroke-width:1.5;"/><polygon fill="#181818" points="182,203.3184,192,207.3184,182,211.3184,186,207.3184" style="stroke:#181818;stroke-width:1.0;"/><line style="stroke:#181818;stroke-width:1.0;" x1="15" x2="188" y1="207.3184" y2="207.3184"/><text fill="#000000" font-family="sans-serif" font-size="13" font-weight="bold" lengthAdjust="spacing" textLength="7" x="18" y="202.0557">1</text><text fill="#000000" font-family="sans-serif" font-size="13" lengthAdjust="spacing" textLength="159" x="29" y="202.0557">GET api/sensorfunctionality</text><polygon fill="#181818" points="437,234.6094,447,238.6094,437,242.6094,441,238.6094" style="stroke:#181818;stroke-width:1.0;"/><line style="stroke:#181818;stroke-width:1.0;" x1="204" x2="443" y1="238.6094" y2="238.6094"/><text fill="#000000" font-family="sans-serif" font-size="13" font-weight="bold" lengthAdjust="spacing" textLength="7" x="211" y="233.3467">2</text><text fill="#000000" font-family="sans-serif" font-size="13" lengthAdjust="spacing" textLength="215" x="222" y="233.3467">GET getListOfSensorFunctionalities()</text><rect fill="#E2E2F0" height="51.2422" rx="2.5" ry="2.5" style="stroke:#181818;stroke-width:0.5;" width="221" x="688.5" y="246.6094"/><text fill="#000000" font-family="sans-serif" font-size="14" lengthAdjust="spacing" textLength="171" x="713.5" y="268.7168">sensorFunctionalityMapper</text><text fill="#000000" font-family="sans-serif" font-size="14" lengthAdjust="spacing" textLength="207" x="695.5" y="287.3379">:SensorFunctionalityMapperDTO</text><polygon fill="#181818" points="676.5,265.9004,686.5,269.9004,676.5,273.9004,680.5,269.9004" style="stroke:#181818;stroke-width:1.0;"/><line style="stroke:#181818;stroke-width:1.0;stroke-dasharray:2.0,2.0;" x1="459" x2="682.5" y1="269.9004" y2="269.9004"/><text fill="#000000" font-family="sans-serif" font-size="13" font-weight="bold" lengthAdjust="spacing" textLength="7" x="466" y="264.6377">3</text><text fill="#000000" font-family="sans-serif" font-size="13" lengthAdjust="spacing" textLength="57" x="477" y="264.6377">&#171;creates&#187;</text><polygon fill="#181818" points="1105,318.1426,1115,322.1426,1105,326.1426,1109,322.1426" style="stroke:#181818;stroke-width:1.0;"/><line style="stroke:#181818;stroke-width:1.0;" x1="459" x2="1111" y1="322.1426" y2="322.1426"/><text fill="#000000" font-family="sans-serif" font-size="13" font-weight="bold" lengthAdjust="spacing" textLength="7" x="466" y="316.8799">4</text><text fill="#000000" font-family="sans-serif" font-size="13" lengthAdjust="spacing" textLength="185" x="477" y="316.8799">getListOfSensorFunctionalities()</text><polygon fill="#181818" points="1323,349.4336,1333,353.4336,1323,357.4336,1327,353.4336" style="stroke:#181818;stroke-width:1.0;"/><line style="stroke:#181818;stroke-width:1.0;" x1="1127" x2="1329" y1="353.4336" y2="353.4336"/><text fill="#000000" font-family="sans-serif" font-size="13" font-weight="bold" lengthAdjust="spacing" textLength="7" x="1134" y="348.1709">5</text><text fill="#000000" font-family="sans-serif" font-size="13" lengthAdjust="spacing" textLength="87" x="1145" y="348.1709">findAllEntities()</text><polygon fill="#181818" points="1138,380.7246,1128,384.7246,1138,388.7246,1134,384.7246" style="stroke:#181818;stroke-width:1.0;"/><line style="stroke:#181818;stroke-width:1.0;stroke-dasharray:2.0,2.0;" x1="1132" x2="1334" y1="384.7246" y2="384.7246"/><text fill="#000000" font-family="sans-serif" font-size="13" font-weight="bold" lengthAdjust="spacing" textLength="7" x="1144" y="379.4619">6</text><text fill="#000000" font-family="sans-serif" font-size="13" lengthAdjust="spacing" textLength="173" x="1155" y="379.4619">Iterable&lt;SensorFunctionality&gt;</text><rect fill="#E2E2F0" height="51.2422" rx="2.5" ry="2.5" style="stroke:#181818;stroke-width:0.5;" width="194" x="1455.5" y="392.7246"/><text fill="#000000" font-family="sans-serif" font-size="14" lengthAdjust="spacing" textLength="126" x="1489.5" y="414.832">listOfSensorFunctID</text><text fill="#000000" font-family="sans-serif" font-size="14" lengthAdjust="spacing" textLength="180" x="1462.5" y="433.4531">:List&lt;SensorFunctionalityID&gt;</text><polygon fill="#181818" points="1443.5,412.0156,1453.5,416.0156,1443.5,420.0156,1447.5,416.0156" style="stroke:#181818;stroke-width:1.0;"/><line style="stroke:#181818;stroke-width:1.0;stroke-dasharray:2.0,2.0;" x1="1127" x2="1449.5" y1="416.0156" y2="416.0156"/><text fill="#000000" font-family="sans-serif" font-size="13" font-weight="bold" lengthAdjust="spacing" textLength="7" x="1134" y="410.7529">7</text><text fill="#000000" font-family="sans-serif" font-size="13" lengthAdjust="spacing" textLength="57" x="1145" y="410.7529">&#171;creates&#187;</text><path d="M1106,448.9668 L1179,448.9668 L1179,458.2578 L1169,468.2578 L1106,468.2578 L1106,448.9668 " fill="#EEEEEE" style="stroke:#000000;stroke-width:1.5;"/><rect fill="none" height="123.1641" style="stroke:#000000;stroke-width:1.5;" width="712.5" x="1106" y="448.9668"/><text fill="#000000" font-family="sans-serif" font-size="13" font-weight="bold" lengthAdjust="spacing" textLength="28" x="1121" y="463.9951">loop</text><text fill="#000000" font-family="sans-serif" font-size="11" font-weight="bold" lengthAdjust="spacing" textLength="223" x="1194" y="462.8369">[for each SensorFunctionality in Iterable]</text><polygon fill="#181818" points="1714,497.5488,1724,501.5488,1714,505.5488,1718,501.5488" style="stroke:#181818;stroke-width:1.0;"/><line style="stroke:#181818;stroke-width:1.0;" x1="1127" x2="1720" y1="501.5488" y2="501.5488"/><text fill="#000000" font-family="sans-serif" font-size="13" font-weight="bold" lengthAdjust="spacing" textLength="7" x="1134" y="496.2861">8</text><text fill="#000000" font-family="sans-serif" font-size="13" lengthAdjust="spacing" textLength="50" x="1145" y="496.2861">identity()</text><polygon fill="#181818" points="1138,528.8398,1128,532.8398,1138,536.8398,1134,532.8398" style="stroke:#181818;stroke-width:1.0;"/><line style="stroke:#181818;stroke-width:1.0;stroke-dasharray:2.0,2.0;" x1="1132" x2="1725" y1="532.8398" y2="532.8398"/><text fill="#000000" font-family="sans-serif" font-size="13" font-weight="bold" lengthAdjust="spacing" textLength="7" x="1144" y="527.5771">9</text><text fill="#000000" font-family="sans-serif" font-size="13" lengthAdjust="spacing" textLength="125" x="1155" y="527.5771">sensorFunctionalityID</text><polygon fill="#181818" points="1535.5,560.1309,1545.5,564.1309,1535.5,568.1309,1539.5,564.1309" style="stroke:#181818;stroke-width:1.0;"/><line style="stroke:#181818;stroke-width:1.0;" x1="1127" x2="1541.5" y1="564.1309" y2="564.1309"/><text fill="#000000" font-family="sans-serif" font-size="13" font-weight="bold" lengthAdjust="spacing" textLength="14" x="1134" y="558.8682">10</text><text fill="#000000" font-family="sans-serif" font-size="13" lengthAdjust="spacing" textLength="154" x="1152" y="558.8682">add(sensorFunctionalityID)</text><polygon fill="#181818" points="470,605.4219,460,609.4219,470,613.4219,466,609.4219" style="stroke:#181818;stroke-width:1.0;"/><line style="stroke:#181818;stroke-width:1.0;stroke-dasharray:2.0,2.0;" x1="464" x2="1116" y1="609.4219" y2="609.4219"/><text fill="#000000" font-family="sans-serif" font-size="13" font-weight="bold" lengthAdjust="spacing" textLength="14" x="476" y="604.1592">11</text><text fill="#000000" font-family="sans-serif" font-size="13" lengthAdjust="spacing" textLength="116" x="494" y="604.1592">listOfSensorFunctID</text><polygon fill="#181818" points="782,636.7129,792,640.7129,782,644.7129,786,640.7129" style="stroke:#181818;stroke-width:1.0;"/><line style="stroke:#181818;stroke-width:1.0;" x1="459" x2="788" y1="640.7129" y2="640.7129"/><text fill="#000000" font-family="sans-serif" font-size="13" font-weight="bold" lengthAdjust="spacing" textLength="14" x="466" y="635.4502">12</text><text fill="#000000" font-family="sans-serif" font-size="13" lengthAdjust="spacing" textLength="298" x="484" y="635.4502">sensorFunctionalityToDTOList(listOfSensorFunctID)</text><rect fill="#E2E2F0" height="51.2422" rx="2.5" ry="2.5" style="stroke:#181818;stroke-width:0.5;" width="211" x="1812.5" y="648.7129"/><text fill="#000000" font-family="sans-serif" font-size="14" lengthAdjust="spacing" textLength="143" x="1846.5" y="670.8203">listOfSensorFunctDTO</text><text fill="#000000" font-family="sans-serif" font-size="14" lengthAdjust="spacing" textLength="197" x="1819.5" y="689.4414">:List&lt;SensorFunctionalityDTO&gt;</text><polygon fill="#181818" points="1800.5,668.0039,1810.5,672.0039,1800.5,676.0039,1804.5,672.0039" style="stroke:#181818;stroke-width:1.0;"/><line style="stroke:#181818;stroke-width:1.0;stroke-dasharray:2.0,2.0;" x1="804" x2="1806.5" y1="672.0039" y2="672.0039"/><text fill="#000000" font-family="sans-serif" font-size="13" font-weight="bold" lengthAdjust="spacing" textLength="14" x="811" y="666.7412">13</text><text fill="#000000" font-family="sans-serif" font-size="13" lengthAdjust="spacing" textLength="57" x="829" y="666.7412">&#171;creates&#187;</text><path d="M783,704.9551 L856,704.9551 L856,714.2461 L846,724.2461 L783,724.2461 L783,704.9551 " fill="#EEEEEE" style="stroke:#000000;stroke-width:1.5;"/><rect fill="none" height="157.1152" style="stroke:#000000;stroke-width:1.5;" width="1439.5" x="783" y="704.9551"/><text fill="#000000" font-family="sans-serif" font-size="13" font-weight="bold" lengthAdjust="spacing" textLength="28" x="798" y="719.9834">loop</text><text fill="#000000" font-family="sans-serif" font-size="11" font-weight="bold" lengthAdjust="spacing" textLength="212" x="871" y="718.8252">[for each SensorFunctionalityID in List]</text><line style="stroke:#181818;stroke-width:1.0;" x1="804" x2="846" y1="757.5371" y2="757.5371"/><line style="stroke:#181818;stroke-width:1.0;" x1="846" x2="846" y1="757.5371" y2="770.5371"/><line style="stroke:#181818;stroke-width:1.0;" x1="805" x2="846" y1="770.5371" y2="770.5371"/><polygon fill="#181818" points="815,766.5371,805,770.5371,815,774.5371,811,770.5371" style="stroke:#181818;stroke-width:1.0;"/><text fill="#000000" font-family="sans-serif" font-size="13" font-weight="bold" lengthAdjust="spacing" textLength="14" x="811" y="752.2744">14</text><text fill="#000000" font-family="sans-serif" font-size="13" lengthAdjust="spacing" textLength="286" x="829" y="752.2744">sensorFunctionalityToDTO(sensorFunctionalityID)</text><rect fill="#E2E2F0" height="51.2422" rx="2.5" ry="2.5" style="stroke:#181818;stroke-width:0.5;" width="173" x="2033.5" y="778.5371"/><text fill="#000000" font-family="sans-serif" font-size="14" lengthAdjust="spacing" textLength="153" x="2043.5" y="800.6445">sensorFunctionalityDTO</text><text fill="#000000" font-family="sans-serif" font-size="14" lengthAdjust="spacing" textLength="159" x="2040.5" y="819.2656">:SensorFunctionalityDTO</text><polygon fill="#181818" points="2021.5,797.8281,2031.5,801.8281,2021.5,805.8281,2025.5,801.8281" style="stroke:#181818;stroke-width:1.0;"/><line style="stroke:#181818;stroke-width:1.0;stroke-dasharray:2.0,2.0;" x1="804" x2="2027.5" y1="801.8281" y2="801.8281"/><text fill="#000000" font-family="sans-serif" font-size="13" font-weight="bold" lengthAdjust="spacing" textLength="14" x="811" y="796.5654">15</text><text fill="#000000" font-family="sans-serif" font-size="13" lengthAdjust="spacing" textLength="57" x="829" y="796.5654">&#171;creates&#187;</text><polygon fill="#181818" points="1901,850.0703,1911,854.0703,1901,858.0703,1905,854.0703" style="stroke:#181818;stroke-width:1.0;"/><line style="stroke:#181818;stroke-width:1.0;" x1="804" x2="1907" y1="854.0703" y2="854.0703"/><text fill="#000000" font-family="sans-serif" font-size="13" font-weight="bold" lengthAdjust="spacing" textLength="14" x="811" y="848.8076">16</text><text fill="#000000" font-family="sans-serif" font-size="13" lengthAdjust="spacing" textLength="168" x="829" y="848.8076">add(sensorFunctionalityDTO)</text><polygon fill="#181818" points="470,895.3613,460,899.3613,470,903.3613,466,899.3613" style="stroke:#181818;stroke-width:1.0;"/><line style="stroke:#181818;stroke-width:1.0;stroke-dasharray:2.0,2.0;" x1="464" x2="793" y1="899.3613" y2="899.3613"/><text fill="#000000" font-family="sans-serif" font-size="13" font-weight="bold" lengthAdjust="spacing" textLength="14" x="476" y="894.0986">17</text><text fill="#000000" font-family="sans-serif" font-size="13" lengthAdjust="spacing" textLength="130" x="494" y="894.0986">listOfSensorFunctDTO</text><polygon fill="#181818" points="215,926.6523,205,930.6523,215,934.6523,211,930.6523" style="stroke:#181818;stroke-width:1.0;"/><line style="stroke:#181818;stroke-width:1.0;stroke-dasharray:2.0,2.0;" x1="209" x2="448" y1="930.6523" y2="930.6523"/><text fill="#000000" font-family="sans-serif" font-size="13" font-weight="bold" lengthAdjust="spacing" textLength="14" x="221" y="925.3896">18</text><text fill="#000000" font-family="sans-serif" font-size="13" lengthAdjust="spacing" textLength="183" x="239" y="925.3896">collectionModel, HttpStatus.OK</text><ellipse cx="10.5" cy="978.4844" fill="none" rx="4" ry="4" style="stroke:#181818;stroke-width:1.5;"/><polygon fill="#181818" points="27.5,975.2344,17.5,979.2344,27.5,983.2344,23.5,979.2344" style="stroke:#181818;stroke-width:1.0;"/><line style="stroke:#181818;stroke-width:1.0;stroke-dasharray:2.0,2.0;" x1="25.5" x2="193" y1="979.2344" y2="979.2344"/><text fill="#000000" font-family="sans-serif" font-size="13" font-weight="bold" lengthAdjust="spacing" textLength="14" x="28" y="965.3262">19</text><text fill="#000000" font-family="sans-serif" font-size="13" lengthAdjust="spacing" textLength="95" x="46" y="956.6807">JSON response,</text><text fill="#000000" font-family="sans-serif" font-size="13" lengthAdjust="spacing" textLength="85" x="46" y="973.9717">HttpStatus.OK</text><!--SRC=[bLLHRzem47xthxYn5rQLRdkQ54MHjj9rREsG6gOzj2ycEQZLO4UEKutz-jc9IHnZO3nXxFFtVNVt-K9h9NYzMQ8aH35L88n-NN_uTFKHxbYb84LU2GbVQvuf9ZWjc69OZSYRKjBrXe92yHUKh96GfVW3epXEwsMwhHHkakI9Hrzeze8y7y7RAPKljnAtRHp4yRNWYZAEiWbCKRwYr75tRFsici2IIiKoLbAkO1GzY5gP05f1ksmWDgNWo5MIUD6jRbVsrl19KHGeV-EomUbtZc5L-r3tj2nHDgeFd4qNyuR27BKxfmMQ4h0Cktls_xbvFc0fAgQ4t7P8WxDZU8Nk-NpbWCwcEalZX3Z0D9ic3SM6bcR_PDd21UjKdf2YItf4YpxjnEZrIIqjMXYeKsI0j7j1MxRx9UHHJ1BhmGXkRnP0I_Q-fLYvI8JgzIjLQ8E9zQs-tJklHLYZklFpxP_R-5qFrTyaZdqd6hEtsiL5f9kSITGNAjrYDp1nhHMTGUnS8wuxBUB0OX6i6Cy_5yKDLq6WGJJPj-Z4rpdJXQFB0aEjJqYEHz27QZMmjQjVfKA84bPws6cmPmZm0EETZb0980AMeybuw-VRXEzdLONUb9-DJsNbQpQQv-CWXCE-UviEw6xBEDealLSWnoyH14Q2ht1dYtsVjNuC9heG-dKPxuq335xvx0Jjbxi-QeYpspYRcaOQvW7W_ma-L6zFcXqUlhOXNwl_S1_ruR2HPXmD-sW7b4_lZfVG7FKRQElh3PJTYClCLYFhNkHONC8tfSfKKLLNL_CVBfOpd1v5F9bq4D_J-K-GMEclJeMNyCGFGjXHIVu1]--></g></svg>