<?xml version="1.0" encoding="us-ascii" standalone="no"?><svg xmlns="http://www.w3.org/2000/svg" xmlns:xlink="http://www.w3.org/1999/xlink" contentStyleType="text/css" height="1139px" preserveAspectRatio="none" style="width:1517px;height:1139px;background:#FFFFFF;" version="1.1" viewBox="0 0 1517 1139" width="1517px" zoomAndPan="magnify"><defs/><g><rect fill="#A9A9A9" height="1089.6211" style="stroke:#181818;stroke-width:0.5;" width="1283.5" x="130.5" y="43.4883"/><text fill="#000000" font-family="sans-serif" font-size="13" font-weight="bold" lengthAdjust="spacing" textLength="87" x="728.75" y="56.0566">&#171;SubSystem&#187;</text><text fill="#000000" font-family="sans-serif" font-size="13" font-weight="bold" lengthAdjust="spacing" textLength="80" x="732.75" y="71.3672">&#171;Container&#187;</text><text fill="#000000" font-family="sans-serif" font-size="13" font-weight="bold" lengthAdjust="spacing" textLength="60" x="740.75" y="86.6777">:Backend</text><rect fill="#D3D3D3" height="1038.6895" style="stroke:#181818;stroke-width:0.5;" width="1283.5" x="130.5" y="94.4199"/><text fill="#000000" font-family="sans-serif" font-size="13" font-weight="bold" lengthAdjust="spacing" textLength="92" x="726.25" y="106.9883">&#171;Component&#187;</text><text fill="#000000" font-family="sans-serif" font-size="13" font-weight="bold" lengthAdjust="spacing" textLength="46" x="734.25" y="122.2988">:Server</text><text fill="#000000" font-family="sans-serif" font-size="14" font-weight="bold" lengthAdjust="spacing" textLength="184" x="666.75" y="28.5352">UC08 - Deactivate Device</text><line style="stroke:#181818;stroke-width:0.5;stroke-dasharray:5.0,5.0;" x1="189" x2="189" y1="177.0176" y2="1079.1328"/><rect fill="#FFFFFF" height="810.3613" style="stroke:#181818;stroke-width:1.0;" width="10" x="184" y="250.7715"/><line style="stroke:#181818;stroke-width:0.5;stroke-dasharray:5.0,5.0;" x1="440" x2="440" y1="177.0176" y2="1079.1328"/><rect fill="#FFFFFF" height="721.1191" style="stroke:#181818;stroke-width:1.0;" width="10" x="435" y="295.3926"/><line style="stroke:#181818;stroke-width:0.5;stroke-dasharray:5.0,5.0;" x1="578" x2="578" y1="361.0137" y2="1079.1328"/><line style="stroke:#181818;stroke-width:0.5;stroke-dasharray:5.0,5.0;" x1="680.5" x2="680.5" y1="177.0176" y2="1079.1328"/><rect fill="#FFFFFF" height="556.9004" style="stroke:#181818;stroke-width:1.0;" width="10" x="675.5" y="430.3008"/><line style="stroke:#181818;stroke-width:0.5;stroke-dasharray:5.0,5.0;" x1="873.5" x2="873.5" y1="177.0176" y2="1079.1328"/><rect fill="#FFFFFF" height="205.1738" style="stroke:#181818;stroke-width:1.0;" width="10" x="868.5" y="459.6113"/><rect fill="#FFFFFF" height="205.1738" style="stroke:#181818;stroke-width:1.0;" width="10" x="868.5" y="752.7168"/><line style="stroke:#181818;stroke-width:0.5;stroke-dasharray:5.0,5.0;" x1="981.5" x2="981.5" y1="177.0176" y2="1079.1328"/><rect fill="#FFFFFF" height="29.3105" style="stroke:#181818;stroke-width:1.0;" width="10" x="976.5" y="694.0957"/><line style="stroke:#181818;stroke-width:0.5;stroke-dasharray:5.0,5.0;" x1="1197.5" x2="1197.5" y1="177.0176" y2="1079.1328"/><rect fill="#FFFFFF" height="29.3105" style="stroke:#181818;stroke-width:1.0;" width="10" x="1192.5" y="606.1641"/><rect fill="#FFFFFF" height="29.3105" style="stroke:#181818;stroke-width:1.0;" width="10" x="1192.5" y="899.2695"/><line style="stroke:#181818;stroke-width:0.5;stroke-dasharray:5.0,5.0;" x1="1355.5" x2="1355.5" y1="177.0176" y2="1079.1328"/><rect fill="#FFFFFF" height="87.9316" style="stroke:#181818;stroke-width:1.0;" width="10" x="1350.5" y="488.9219"/><rect fill="#FFFFFF" height="87.9316" style="stroke:#181818;stroke-width:1.0;" width="10" x="1350.5" y="782.0273"/><rect fill="#E2E2F0" height="46.9766" rx="2.5" ry="2.5" style="stroke:#181818;stroke-width:0.5;" width="109" x="134.5" y="129.041"/><text fill="#000000" font-family="sans-serif" font-size="14" font-style="italic" lengthAdjust="spacing" textLength="95" x="141.5" y="149.5762">&#171;Component&#187;</text><text fill="#000000" font-family="sans-serif" font-size="14" lengthAdjust="spacing" textLength="50" x="164" y="166.0645">:Router</text><rect fill="#E2E2F0" height="46.9766" rx="2.5" ry="2.5" style="stroke:#181818;stroke-width:0.5;" width="161" x="359.5" y="129.041"/><text fill="#000000" font-family="sans-serif" font-size="14" font-style="italic" lengthAdjust="spacing" textLength="95" x="392.5" y="149.5762">&#171;Component&#187;</text><text fill="#000000" font-family="sans-serif" font-size="14" lengthAdjust="spacing" textLength="147" x="366.5" y="166.0645">:DeviceControllerWeb</text><rect fill="#E2E2F0" height="46.9766" rx="2.5" ry="2.5" style="stroke:#181818;stroke-width:0.5;" width="110" x="625.5" y="129.041"/><text fill="#000000" font-family="sans-serif" font-size="14" font-style="italic" lengthAdjust="spacing" textLength="95" x="633" y="149.5762">&#171;Component&#187;</text><text fill="#000000" font-family="sans-serif" font-size="14" lengthAdjust="spacing" textLength="96" x="632.5" y="166.0645">:DeviceService</text><rect fill="#E2E2F0" height="46.9766" rx="2.5" ry="2.5" style="stroke:#181818;stroke-width:0.5;" width="135" x="806" y="129.041"/><text fill="#000000" font-family="sans-serif" font-size="14" font-style="italic" lengthAdjust="spacing" textLength="95" x="826" y="149.5762">&#171;Component&#187;</text><text fill="#000000" font-family="sans-serif" font-size="14" lengthAdjust="spacing" textLength="121" x="813" y="166.0645">:DeviceRepository</text><rect fill="#E2E2F0" height="46.9766" rx="2.5" ry="2.5" style="stroke:#181818;stroke-width:0.5;" width="61" x="951" y="129.041"/><text fill="#000000" font-family="sans-serif" font-size="14" lengthAdjust="spacing" textLength="47" x="958" y="149.5762">device:</text><text fill="#000000" font-family="sans-serif" font-size="14" lengthAdjust="spacing" textLength="44" x="959.5" y="166.0645">Device</text><rect fill="#E2E2F0" height="46.9766" rx="2.5" ry="2.5" style="stroke:#181818;stroke-width:0.5;" width="187" x="1104" y="129.041"/><text fill="#000000" font-family="sans-serif" font-size="14" font-style="italic" lengthAdjust="spacing" textLength="95" x="1150" y="149.5762">&#171;Component&#187;</text><text fill="#000000" font-family="sans-serif" font-size="14" lengthAdjust="spacing" textLength="173" x="1111" y="166.0645">:MapperDeviceDataModel</text><rect fill="#E2E2F0" height="46.9766" rx="2.5" ry="2.5" style="stroke:#181818;stroke-width:0.5;" width="109" x="1301" y="129.041"/><text fill="#000000" font-family="sans-serif" font-size="14" font-style="italic" lengthAdjust="spacing" textLength="95" x="1308" y="149.5762">&#171;Component&#187;</text><text fill="#000000" font-family="sans-serif" font-size="14" lengthAdjust="spacing" textLength="67" x="1322" y="166.0645">:DB Driver</text><rect fill="#E2E2F0" height="46.9766" rx="2.5" ry="2.5" style="stroke:#181818;stroke-width:0.5;" width="109" x="134.5" y="1079.1328"/><text fill="#000000" font-family="sans-serif" font-size="14" font-style="italic" lengthAdjust="spacing" textLength="95" x="141.5" y="1099.668">&#171;Component&#187;</text><text fill="#000000" font-family="sans-serif" font-size="14" lengthAdjust="spacing" textLength="50" x="164" y="1116.1563">:Router</text><rect fill="#E2E2F0" height="46.9766" rx="2.5" ry="2.5" style="stroke:#181818;stroke-width:0.5;" width="161" x="359.5" y="1079.1328"/><text fill="#000000" font-family="sans-serif" font-size="14" font-style="italic" lengthAdjust="spacing" textLength="95" x="392.5" y="1099.668">&#171;Component&#187;</text><text fill="#000000" font-family="sans-serif" font-size="14" lengthAdjust="spacing" textLength="147" x="366.5" y="1116.1563">:DeviceControllerWeb</text><rect fill="#E2E2F0" height="46.9766" rx="2.5" ry="2.5" style="stroke:#181818;stroke-width:0.5;" width="75" x="540.5" y="1079.1328"/><text fill="#000000" font-family="sans-serif" font-size="14" lengthAdjust="spacing" textLength="61" x="547.5" y="1099.668">deviceID:</text><text fill="#000000" font-family="sans-serif" font-size="14" lengthAdjust="spacing" textLength="58" x="549" y="1116.1563">DeviceID</text><rect fill="#E2E2F0" height="46.9766" rx="2.5" ry="2.5" style="stroke:#181818;stroke-width:0.5;" width="110" x="625.5" y="1079.1328"/><text fill="#000000" font-family="sans-serif" font-size="14" font-style="italic" lengthAdjust="spacing" textLength="95" x="633" y="1099.668">&#171;Component&#187;</text><text fill="#000000" font-family="sans-serif" font-size="14" lengthAdjust="spacing" textLength="96" x="632.5" y="1116.1563">:DeviceService</text><rect fill="#E2E2F0" height="46.9766" rx="2.5" ry="2.5" style="stroke:#181818;stroke-width:0.5;" width="135" x="806" y="1079.1328"/><text fill="#000000" font-family="sans-serif" font-size="14" font-style="italic" lengthAdjust="spacing" textLength="95" x="826" y="1099.668">&#171;Component&#187;</text><text fill="#000000" font-family="sans-serif" font-size="14" lengthAdjust="spacing" textLength="121" x="813" y="1116.1563">:DeviceRepository</text><rect fill="#E2E2F0" height="46.9766" rx="2.5" ry="2.5" style="stroke:#181818;stroke-width:0.5;" width="61" x="951" y="1079.1328"/><text fill="#000000" font-family="sans-serif" font-size="14" lengthAdjust="spacing" textLength="47" x="958" y="1099.668">device:</text><text fill="#000000" font-family="sans-serif" font-size="14" lengthAdjust="spacing" textLength="44" x="959.5" y="1116.1563">Device</text><rect fill="#E2E2F0" height="46.9766" rx="2.5" ry="2.5" style="stroke:#181818;stroke-width:0.5;" width="187" x="1104" y="1079.1328"/><text fill="#000000" font-family="sans-serif" font-size="14" font-style="italic" lengthAdjust="spacing" textLength="95" x="1150" y="1099.668">&#171;Component&#187;</text><text fill="#000000" font-family="sans-serif" font-size="14" lengthAdjust="spacing" textLength="173" x="1111" y="1116.1563">:MapperDeviceDataModel</text><rect fill="#E2E2F0" height="46.9766" rx="2.5" ry="2.5" style="stroke:#181818;stroke-width:0.5;" width="109" x="1301" y="1079.1328"/><text fill="#000000" font-family="sans-serif" font-size="14" font-style="italic" lengthAdjust="spacing" textLength="95" x="1308" y="1099.668">&#171;Component&#187;</text><text fill="#000000" font-family="sans-serif" font-size="14" lengthAdjust="spacing" textLength="67" x="1322" y="1116.1563">:DB Driver</text><rect fill="none" height="39.4434" style="stroke:#000000;stroke-width:1.5;" width="197" x="136.5" y="185.0176"/><path d="M136.5,185.0176 L200.5,185.0176 L200.5,192.0176 L190.5,202.0176 L136.5,202.0176 L136.5,185.0176 " fill="#EEEEEE" style="stroke:#000000;stroke-width:2.0;"/><text fill="#000000" font-family="sans-serif" font-size="13" font-weight="bold" lengthAdjust="spacing" textLength="19" x="149.5" y="199.5859">ref</text><text fill="#000000" font-family="sans-serif" font-size="12" lengthAdjust="spacing" textLength="189" x="140.5" y="217.6191">[UC06-SD-ListAllDevicesInRoom]</text><ellipse cx="10.5" cy="250.0215" fill="none" rx="4" ry="4" style="stroke:#181818;stroke-width:1.5;"/><polygon fill="#181818" points="172,246.7715,182,250.7715,172,254.7715,176,250.7715" style="stroke:#181818;stroke-width:1.0;"/><line style="stroke:#181818;stroke-width:1.0;" x1="15" x2="178" y1="250.7715" y2="250.7715"/><text fill="#000000" font-family="sans-serif" font-size="13" font-weight="bold" lengthAdjust="spacing" textLength="9" x="18" y="246.0293">1</text><text fill="#000000" font-family="sans-serif" font-size="13" lengthAdjust="spacing" textLength="147" x="31" y="246.0293">PATCH api/devices/{id}</text><polygon fill="#181818" points="423,291.3926,433,295.3926,423,299.3926,427,295.3926" style="stroke:#181818;stroke-width:1.0;"/><line style="stroke:#181818;stroke-width:1.0;" x1="194" x2="429" y1="295.3926" y2="295.3926"/><text fill="#000000" font-family="sans-serif" font-size="13" font-weight="bold" lengthAdjust="spacing" textLength="9" x="201" y="282.9951">2</text><text fill="#000000" font-family="sans-serif" font-size="13" lengthAdjust="spacing" textLength="205" x="214" y="275.3398">PATCH editDevice(@PathVariable</text><text fill="#000000" font-family="sans-serif" font-size="13" lengthAdjust="spacing" textLength="121" x="214" y="290.6504">String deviceName)</text><line style="stroke:#181818;stroke-width:1.0;" x1="445" x2="487" y1="340.0137" y2="340.0137"/><line style="stroke:#181818;stroke-width:1.0;" x1="487" x2="487" y1="340.0137" y2="353.0137"/><line style="stroke:#181818;stroke-width:1.0;" x1="446" x2="487" y1="353.0137" y2="353.0137"/><polygon fill="#181818" points="456,349.0137,446,353.0137,456,357.0137,452,353.0137" style="stroke:#181818;stroke-width:1.0;"/><text fill="#000000" font-family="sans-serif" font-size="13" font-weight="bold" lengthAdjust="spacing" textLength="9" x="452" y="327.6162">3</text><text fill="#000000" font-family="sans-serif" font-size="13" lengthAdjust="spacing" textLength="106" x="465" y="319.9609">deactivateDevice</text><text fill="#000000" font-family="sans-serif" font-size="13" lengthAdjust="spacing" textLength="84" x="465" y="335.2715">(deviceName)</text><rect fill="#E2E2F0" height="46.9766" rx="2.5" ry="2.5" style="stroke:#181818;stroke-width:0.5;" width="75" x="540.5" y="361.0137"/><text fill="#000000" font-family="sans-serif" font-size="14" lengthAdjust="spacing" textLength="61" x="547.5" y="381.5488">deviceID:</text><text fill="#000000" font-family="sans-serif" font-size="14" lengthAdjust="spacing" textLength="58" x="549" y="398.0371">DeviceID</text><polygon fill="#181818" points="528.5,378.3242,538.5,382.3242,528.5,386.3242,532.5,382.3242" style="stroke:#181818;stroke-width:1.0;"/><line style="stroke:#181818;stroke-width:1.0;stroke-dasharray:2.0,2.0;" x1="445" x2="534.5" y1="382.3242" y2="382.3242"/><text fill="#000000" font-family="sans-serif" font-size="13" font-weight="bold" lengthAdjust="spacing" textLength="9" x="452" y="377.582">4</text><text fill="#000000" font-family="sans-serif" font-size="13" lengthAdjust="spacing" textLength="52" x="465" y="377.582">&#171;create&#187;</text><polygon fill="#181818" points="663.5,426.3008,673.5,430.3008,663.5,434.3008,667.5,430.3008" style="stroke:#181818;stroke-width:1.0;"/><line style="stroke:#181818;stroke-width:1.0;" x1="445" x2="669.5" y1="430.3008" y2="430.3008"/><text fill="#000000" font-family="sans-serif" font-size="13" font-weight="bold" lengthAdjust="spacing" textLength="9" x="452" y="425.5586">5</text><text fill="#000000" font-family="sans-serif" font-size="13" lengthAdjust="spacing" textLength="168" x="465" y="425.5586">deactivateDevice(deviceID)</text><polygon fill="#181818" points="856.5,455.6113,866.5,459.6113,856.5,463.6113,860.5,459.6113" style="stroke:#181818;stroke-width:1.0;"/><line style="stroke:#181818;stroke-width:1.0;" x1="685.5" x2="862.5" y1="459.6113" y2="459.6113"/><text fill="#000000" font-family="sans-serif" font-size="13" font-weight="bold" lengthAdjust="spacing" textLength="9" x="692.5" y="454.8691">6</text><text fill="#000000" font-family="sans-serif" font-size="13" lengthAdjust="spacing" textLength="151" x="705.5" y="454.8691">findEntityByID(deviceID)</text><polygon fill="#181818" points="1338.5,484.9219,1348.5,488.9219,1338.5,492.9219,1342.5,488.9219" style="stroke:#181818;stroke-width:1.0;"/><line style="stroke:#181818;stroke-width:1.0;" x1="878.5" x2="1344.5" y1="488.9219" y2="488.9219"/><text fill="#000000" font-family="sans-serif" font-size="13" font-weight="bold" lengthAdjust="spacing" textLength="9" x="885.5" y="484.1797">7</text><text fill="#000000" font-family="sans-serif" font-size="13" lengthAdjust="spacing" textLength="151" x="898.5" y="484.1797">findEntityByID(deviceID)</text><ellipse cx="1507" cy="517.4824" fill="none" rx="4" ry="4" style="stroke:#181818;stroke-width:1.5;"/><polygon fill="#181818" points="1490,514.2324,1500,518.2324,1490,522.2324,1494,518.2324" style="stroke:#181818;stroke-width:1.0;"/><line style="stroke:#181818;stroke-width:1.0;" x1="1360.5" x2="1496" y1="518.2324" y2="518.2324"/><text fill="#000000" font-family="sans-serif" font-size="13" font-weight="bold" lengthAdjust="spacing" textLength="9" x="1367.5" y="513.4902">8</text><text fill="#000000" font-family="sans-serif" font-size="13" lengthAdjust="spacing" textLength="112" x="1380.5" y="513.4902">DATABASE QUERY</text><polygon fill="#181818" points="1371.5,543.543,1361.5,547.543,1371.5,551.543,1367.5,547.543" style="stroke:#181818;stroke-width:1.0;"/><ellipse cx="1507" cy="546.793" fill="none" rx="4" ry="4" style="stroke:#181818;stroke-width:1.5;"/><line style="stroke:#181818;stroke-width:1.0;stroke-dasharray:2.0,2.0;" x1="1365.5" x2="1502.5" y1="547.543" y2="547.543"/><text fill="#000000" font-family="sans-serif" font-size="13" font-weight="bold" lengthAdjust="spacing" textLength="9" x="1377.5" y="542.8008">9</text><text fill="#000000" font-family="sans-serif" font-size="13" lengthAdjust="spacing" textLength="109" x="1390.5" y="542.8008">QUERY RESPONSE</text><polygon fill="#181818" points="889.5,572.8535,879.5,576.8535,889.5,580.8535,885.5,576.8535" style="stroke:#181818;stroke-width:1.0;"/><line style="stroke:#181818;stroke-width:1.0;stroke-dasharray:2.0,2.0;" x1="883.5" x2="1349.5" y1="576.8535" y2="576.8535"/><text fill="#000000" font-family="sans-serif" font-size="13" font-weight="bold" lengthAdjust="spacing" textLength="18" x="895.5" y="572.1113">10</text><text fill="#000000" font-family="sans-serif" font-size="13" lengthAdjust="spacing" textLength="231" x="917.5" y="572.1113">Optional &lt;Device&gt; deviceDataModel</text><polygon fill="#181818" points="1180.5,602.1641,1190.5,606.1641,1180.5,610.1641,1184.5,606.1641" style="stroke:#181818;stroke-width:1.0;"/><line style="stroke:#181818;stroke-width:1.0;" x1="878.5" x2="1186.5" y1="606.1641" y2="606.1641"/><text fill="#000000" font-family="sans-serif" font-size="13" font-weight="bold" lengthAdjust="spacing" textLength="18" x="885.5" y="601.4219">11</text><text fill="#000000" font-family="sans-serif" font-size="13" lengthAdjust="spacing" textLength="271" x="907.5" y="601.4219">toDomain(factoryDevice, deviceDataModel)</text><polygon fill="#181818" points="889.5,631.4746,879.5,635.4746,889.5,639.4746,885.5,635.4746" style="stroke:#181818;stroke-width:1.0;"/><line style="stroke:#181818;stroke-width:1.0;stroke-dasharray:2.0,2.0;" x1="883.5" x2="1191.5" y1="635.4746" y2="635.4746"/><text fill="#000000" font-family="sans-serif" font-size="13" font-weight="bold" lengthAdjust="spacing" textLength="18" x="895.5" y="630.7324">12</text><text fill="#000000" font-family="sans-serif" font-size="13" lengthAdjust="spacing" textLength="116" x="917.5" y="630.7324">Optional&lt;Device&gt;</text><polygon fill="#181818" points="696.5,660.7852,686.5,664.7852,696.5,668.7852,692.5,664.7852" style="stroke:#181818;stroke-width:1.0;"/><line style="stroke:#181818;stroke-width:1.0;stroke-dasharray:2.0,2.0;" x1="690.5" x2="867.5" y1="664.7852" y2="664.7852"/><text fill="#000000" font-family="sans-serif" font-size="13" font-weight="bold" lengthAdjust="spacing" textLength="18" x="702.5" y="660.043">13</text><text fill="#000000" font-family="sans-serif" font-size="13" lengthAdjust="spacing" textLength="116" x="724.5" y="660.043">Optional&lt;Device&gt;</text><polygon fill="#181818" points="964.5,690.0957,974.5,694.0957,964.5,698.0957,968.5,694.0957" style="stroke:#181818;stroke-width:1.0;"/><line style="stroke:#181818;stroke-width:1.0;" x1="685.5" x2="970.5" y1="694.0957" y2="694.0957"/><text fill="#000000" font-family="sans-serif" font-size="13" font-weight="bold" lengthAdjust="spacing" textLength="18" x="692.5" y="689.3535">14</text><text fill="#000000" font-family="sans-serif" font-size="13" lengthAdjust="spacing" textLength="72" x="714.5" y="689.3535">deactivate()</text><polygon fill="#181818" points="696.5,719.4063,686.5,723.4063,696.5,727.4063,692.5,723.4063" style="stroke:#181818;stroke-width:1.0;"/><line style="stroke:#181818;stroke-width:1.0;stroke-dasharray:2.0,2.0;" x1="690.5" x2="975.5" y1="723.4063" y2="723.4063"/><text fill="#000000" font-family="sans-serif" font-size="13" font-weight="bold" lengthAdjust="spacing" textLength="18" x="702.5" y="718.6641">15</text><text fill="#000000" font-family="sans-serif" font-size="13" lengthAdjust="spacing" textLength="25" x="724.5" y="718.6641">true</text><polygon fill="#181818" points="856.5,748.7168,866.5,752.7168,856.5,756.7168,860.5,752.7168" style="stroke:#181818;stroke-width:1.0;"/><line style="stroke:#181818;stroke-width:1.0;" x1="685.5" x2="862.5" y1="752.7168" y2="752.7168"/><text fill="#000000" font-family="sans-serif" font-size="13" font-weight="bold" lengthAdjust="spacing" textLength="18" x="692.5" y="747.9746">16</text><text fill="#000000" font-family="sans-serif" font-size="13" lengthAdjust="spacing" textLength="91" x="714.5" y="747.9746">update(device)</text><polygon fill="#181818" points="1338.5,778.0273,1348.5,782.0273,1338.5,786.0273,1342.5,782.0273" style="stroke:#181818;stroke-width:1.0;"/><line style="stroke:#181818;stroke-width:1.0;" x1="878.5" x2="1344.5" y1="782.0273" y2="782.0273"/><text fill="#000000" font-family="sans-serif" font-size="13" font-weight="bold" lengthAdjust="spacing" textLength="18" x="885.5" y="777.2852">17</text><text fill="#000000" font-family="sans-serif" font-size="13" lengthAdjust="spacing" textLength="76" x="907.5" y="777.2852">save(device)</text><ellipse cx="1507" cy="810.5879" fill="none" rx="4" ry="4" style="stroke:#181818;stroke-width:1.5;"/><polygon fill="#181818" points="1490,807.3379,1500,811.3379,1490,815.3379,1494,811.3379" style="stroke:#181818;stroke-width:1.0;"/><line style="stroke:#181818;stroke-width:1.0;" x1="1360.5" x2="1496" y1="811.3379" y2="811.3379"/><text fill="#000000" font-family="sans-serif" font-size="13" font-weight="bold" lengthAdjust="spacing" textLength="18" x="1367.5" y="806.5957">18</text><text fill="#000000" font-family="sans-serif" font-size="13" lengthAdjust="spacing" textLength="112" x="1389.5" y="806.5957">DATABASE QUERY</text><polygon fill="#181818" points="1371.5,836.6484,1361.5,840.6484,1371.5,844.6484,1367.5,840.6484" style="stroke:#181818;stroke-width:1.0;"/><ellipse cx="1507" cy="839.8984" fill="none" rx="4" ry="4" style="stroke:#181818;stroke-width:1.5;"/><line style="stroke:#181818;stroke-width:1.0;stroke-dasharray:2.0,2.0;" x1="1365.5" x2="1502.5" y1="840.6484" y2="840.6484"/><text fill="#000000" font-family="sans-serif" font-size="13" font-weight="bold" lengthAdjust="spacing" textLength="18" x="1377.5" y="835.9063">19</text><text fill="#000000" font-family="sans-serif" font-size="13" lengthAdjust="spacing" textLength="109" x="1399.5" y="835.9063">QUERY RESPONSE</text><polygon fill="#181818" points="889.5,865.959,879.5,869.959,889.5,873.959,885.5,869.959" style="stroke:#181818;stroke-width:1.0;"/><line style="stroke:#181818;stroke-width:1.0;" x1="883.5" x2="1349.5" y1="869.959" y2="869.959"/><text fill="#000000" font-family="sans-serif" font-size="13" font-weight="bold" lengthAdjust="spacing" textLength="18" x="895.5" y="865.2168">20</text><text fill="#000000" font-family="sans-serif" font-size="13" lengthAdjust="spacing" textLength="109" x="917.5" y="865.2168">DeviceDataModel</text><polygon fill="#181818" points="1180.5,895.2695,1190.5,899.2695,1180.5,903.2695,1184.5,899.2695" style="stroke:#181818;stroke-width:1.0;"/><line style="stroke:#181818;stroke-width:1.0;" x1="878.5" x2="1186.5" y1="899.2695" y2="899.2695"/><text fill="#000000" font-family="sans-serif" font-size="13" font-weight="bold" lengthAdjust="spacing" textLength="18" x="885.5" y="894.5273">21</text><text fill="#000000" font-family="sans-serif" font-size="13" lengthAdjust="spacing" textLength="273" x="907.5" y="894.5273">toDomain(factoryDevice, DeviceDataModel)</text><polygon fill="#181818" points="889.5,924.5801,879.5,928.5801,889.5,932.5801,885.5,928.5801" style="stroke:#181818;stroke-width:1.0;"/><line style="stroke:#181818;stroke-width:1.0;stroke-dasharray:2.0,2.0;" x1="883.5" x2="1191.5" y1="928.5801" y2="928.5801"/><text fill="#000000" font-family="sans-serif" font-size="13" font-weight="bold" lengthAdjust="spacing" textLength="18" x="895.5" y="923.8379">22</text><text fill="#000000" font-family="sans-serif" font-size="13" lengthAdjust="spacing" textLength="42" x="917.5" y="923.8379">Device</text><polygon fill="#181818" points="696.5,953.8906,686.5,957.8906,696.5,961.8906,692.5,957.8906" style="stroke:#181818;stroke-width:1.0;"/><line style="stroke:#181818;stroke-width:1.0;stroke-dasharray:2.0,2.0;" x1="690.5" x2="867.5" y1="957.8906" y2="957.8906"/><text fill="#000000" font-family="sans-serif" font-size="13" font-weight="bold" lengthAdjust="spacing" textLength="18" x="702.5" y="953.1484">23</text><text fill="#000000" font-family="sans-serif" font-size="13" lengthAdjust="spacing" textLength="42" x="724.5" y="953.1484">Device</text><polygon fill="#181818" points="456,983.2012,446,987.2012,456,991.2012,452,987.2012" style="stroke:#181818;stroke-width:1.0;"/><line style="stroke:#181818;stroke-width:1.0;stroke-dasharray:2.0,2.0;" x1="450" x2="674.5" y1="987.2012" y2="987.2012"/><text fill="#000000" font-family="sans-serif" font-size="13" font-weight="bold" lengthAdjust="spacing" textLength="18" x="462" y="982.459">24</text><text fill="#000000" font-family="sans-serif" font-size="13" lengthAdjust="spacing" textLength="25" x="484" y="982.459">true</text><polygon fill="#181818" points="205,1012.5117,195,1016.5117,205,1020.5117,201,1016.5117" style="stroke:#181818;stroke-width:1.0;"/><line style="stroke:#181818;stroke-width:1.0;stroke-dasharray:2.0,2.0;" x1="199" x2="434" y1="1016.5117" y2="1016.5117"/><text fill="#000000" font-family="sans-serif" font-size="13" font-weight="bold" lengthAdjust="spacing" textLength="18" x="211" y="1011.7695">25</text><text fill="#000000" font-family="sans-serif" font-size="13" lengthAdjust="spacing" textLength="122" x="233" y="1011.7695">true, HttpStatus.OK</text><ellipse cx="10.5" cy="1060.3828" fill="none" rx="4" ry="4" style="stroke:#181818;stroke-width:1.5;"/><polygon fill="#181818" points="27.5,1057.1328,17.5,1061.1328,27.5,1065.1328,23.5,1061.1328" style="stroke:#181818;stroke-width:1.0;"/><line style="stroke:#181818;stroke-width:1.0;stroke-dasharray:2.0,2.0;" x1="25.5" x2="183" y1="1061.1328" y2="1061.1328"/><text fill="#000000" font-family="sans-serif" font-size="13" font-weight="bold" lengthAdjust="spacing" textLength="18" x="28" y="1048.7354">26</text><text fill="#000000" font-family="sans-serif" font-size="13" lengthAdjust="spacing" textLength="96" x="50" y="1041.0801">JSON response,</text><text fill="#000000" font-family="sans-serif" font-size="13" lengthAdjust="spacing" textLength="89" x="50" y="1056.3906">HttpStatus.OK</text><!--SRC=[hLNVRzem47xtNt7h7iggPjtJD4K83N3QPYk44TgjAdqmn6sjWfqv3XgRzh_FYMr84_f3Kv_YdE-x- -xkiwsOMb0uxt_u11vWIkQAhOYYUhbYSuf8hWJFbpCg4NgJIdAx9A2e-0rAvXJDn2_OQxVZV1QlCqMNdSwKGxlT5rmHngai_m7y7fdVKvximLjCvFs9f6i7xOjbAZZbohZwCPKhAhNZ6RkzKwKdIebKRCvImXNi-MEHgyA3P62My21ApTkKKH2IOh6WyZkTbT2jvIbuKg93x4yvjiiIxUmxanKbw4_fQDSle3YcgSYO4d9jIjE_ppFRy2enTcGFemz8cb9fjZ1HP20IkgYuststypJJ7c39LhRxoSpyr218qXiGXTsC1rrfSNtqOkoTiKnr5mkJDmlvM8ZbDTAw00r1w4fu7OlnOTITz4-1fEp8L9eT_M79NxIHfusDza-22U1eq0s7W8EBi1_0SJI6Bfo45u4puKc4h5PqYkteNHgQC6LOjJwFYBgx89AHcJuMKnuhoVYj7VYGBEcxBOTj85IHquCCu6ke0vWKKzwgHgiYDTGfw-30rtsTIwfnHLFt1-IUWhgZkbS_SvefKABypOp2QWoixfhPMov1fGxhh9FqJuF-LmYF8HXEmiab13_2U1A3xkqu64N8gRcOazQd3pUC9m5NJArxwn3lYbtu8LIgkQZEIkObIEUBDZhpEkBQ1zoTT7lTE81lvy7uShlRzhnYkxHgkl4e6iP11RmX7QMA2Kwqr4rBNDCtPm1jcxPbiQbXvx7nzJYmMEfBhtMZiVeK6xV3UknAWJi3eTsdiidUaQ-ItHtHCg-gugaWPcALKHkVgfHQZIeixOTPoYUYGGyrPPIdIH7LjAekdgPsChBQuVpQUd7ay0l4yP_QmA-i3TlWPnNH54GJMPD1xTwiZzPT8Uv5zho6-o6SAfN6YgWyUnzzhQ8h5-bZvYjHn7IlmvSu6kgBCDEFJgO3J_cZeJVlH334_m00]--></g></svg>