<?xml version="1.0" encoding="us-ascii" standalone="no"?><svg xmlns="http://www.w3.org/2000/svg" xmlns:xlink="http://www.w3.org/1999/xlink" contentStyleType="text/css" height="1431px" preserveAspectRatio="none" style="width:2580px;height:1431px;background:#FFFFFF;" version="1.1" viewBox="0 0 2580 1431" width="2580px" zoomAndPan="magnify"><defs/><g><rect fill="#A9A9A9" height="1382.4375" style="stroke:#181818;stroke-width:0.5;" width="2441.5" x="11" y="43.4883"/><text fill="#000000" font-family="sans-serif" font-size="13" font-weight="bold" lengthAdjust="spacing" textLength="87" x="1190.25" y="56.0566">&#171;SubSystem&#187;</text><text fill="#000000" font-family="sans-serif" font-size="13" font-weight="bold" lengthAdjust="spacing" textLength="80" x="1194.25" y="71.3672">&#171;Container&#187;</text><text fill="#000000" font-family="sans-serif" font-size="13" font-weight="bold" lengthAdjust="spacing" textLength="60" x="1202.25" y="86.6777">:Backend</text><rect fill="#D3D3D3" height="1331.5059" style="stroke:#181818;stroke-width:0.5;" width="2441.5" x="11" y="94.4199"/><text fill="#000000" font-family="sans-serif" font-size="13" font-weight="bold" lengthAdjust="spacing" textLength="92" x="1187.75" y="106.9883">&#171;Component&#187;</text><text fill="#000000" font-family="sans-serif" font-size="13" font-weight="bold" lengthAdjust="spacing" textLength="46" x="1199.75" y="122.2988">:Server</text><text fill="#000000" font-family="sans-serif" font-size="14" font-weight="bold" lengthAdjust="spacing" textLength="818" x="881.5" y="28.5352">UC09 - Get a list of all devices in a house, grouped by device functionality types. It must include device location.</text><line style="stroke:#181818;stroke-width:0.5;stroke-dasharray:5.0,5.0;" x1="95" x2="95" y1="193.5059" y2="1355.4609"/><rect fill="#FFFFFF" height="1104.5117" style="stroke:#181818;stroke-width:1.0;" width="10" x="90" y="201.5059"/><line style="stroke:#181818;stroke-width:0.5;stroke-dasharray:5.0,5.0;" x1="343.5" x2="343.5" y1="193.5059" y2="1355.4609"/><rect fill="#FFFFFF" height="1091.5117" style="stroke:#181818;stroke-width:1.0;" width="10" x="338.5" y="201.5059"/><rect fill="#FFFFFF" height="863.8496" style="stroke:#181818;stroke-width:1.0;" width="10" x="343.5" y="280.2598"/><line style="stroke:#181818;stroke-width:0.5;stroke-dasharray:5.0,5.0;" x1="694.5" x2="694.5" y1="288.2598" y2="1355.4609"/><rect fill="#FFFFFF" height="13" style="stroke:#181818;stroke-width:1.0;" width="10" x="689.5" y="1100.7988"/><line style="stroke:#181818;stroke-width:0.5;stroke-dasharray:5.0,5.0;" x1="887.5" x2="887.5" y1="193.5059" y2="1355.4609"/><rect fill="#FFFFFF" height="205.1738" style="stroke:#181818;stroke-width:1.0;" width="10" x="882.5" y="374.0352"/><line style="stroke:#181818;stroke-width:0.5;stroke-dasharray:5.0,5.0;" x1="1270.5" x2="1270.5" y1="193.5059" y2="1355.4609"/><rect fill="#FFFFFF" height="29.3105" style="stroke:#181818;stroke-width:1.0;" width="10" x="1265.5" y="520.5879"/><line style="stroke:#181818;stroke-width:0.5;stroke-dasharray:5.0,5.0;" x1="1448.5" x2="1448.5" y1="193.5059" y2="1355.4609"/><rect fill="#FFFFFF" height="87.9316" style="stroke:#181818;stroke-width:1.0;" width="10" x="1443.5" y="639.8301"/><line style="stroke:#181818;stroke-width:0.5;stroke-dasharray:5.0,5.0;" x1="1593" x2="1593" y1="193.5059" y2="1355.4609"/><rect fill="#FFFFFF" height="205.1738" style="stroke:#181818;stroke-width:1.0;" width="10" x="1588" y="757.0723"/><line style="stroke:#181818;stroke-width:0.5;stroke-dasharray:5.0,5.0;" x1="1915" x2="1915" y1="193.5059" y2="1355.4609"/><rect fill="#FFFFFF" height="29.3105" style="stroke:#181818;stroke-width:1.0;" width="10" x="1910" y="903.625"/><line style="stroke:#181818;stroke-width:0.5;stroke-dasharray:5.0,5.0;" x1="2071" x2="2071" y1="193.5059" y2="1355.4609"/><rect fill="#FFFFFF" height="29.3105" style="stroke:#181818;stroke-width:1.0;" width="10" x="2066" y="991.5566"/><line style="stroke:#181818;stroke-width:0.5;stroke-dasharray:5.0,5.0;" x1="2231.5" x2="2231.5" y1="1165.1094" y2="1355.4609"/><rect fill="#FFFFFF" height="29.3105" style="stroke:#181818;stroke-width:1.0;" width="10" x="2226.5" y="1234.3965"/><line style="stroke:#181818;stroke-width:0.5;stroke-dasharray:5.0,5.0;" x1="2394" x2="2394" y1="193.5059" y2="1355.4609"/><rect fill="#FFFFFF" height="87.9316" style="stroke:#181818;stroke-width:1.0;" width="10" x="2389" y="403.3457"/><rect fill="#FFFFFF" height="87.9316" style="stroke:#181818;stroke-width:1.0;" width="10" x="2389" y="786.3828"/><rect fill="#E2E2F0" height="46.9766" rx="2.5" ry="2.5" style="stroke:#181818;stroke-width:0.5;" width="160" x="15" y="145.5293"/><text fill="#000000" font-family="sans-serif" font-size="14" font-style="italic" lengthAdjust="spacing" textLength="95" x="47.5" y="166.0645">&#171;Component&#187;</text><text fill="#000000" font-family="sans-serif" font-size="14" lengthAdjust="spacing" textLength="146" x="22" y="182.5527">:HouseControllerWeb</text><rect fill="#E2E2F0" height="46.9766" rx="2.5" ry="2.5" style="stroke:#181818;stroke-width:0.5;" width="317" x="185" y="145.5293"/><text fill="#000000" font-family="sans-serif" font-size="14" font-style="italic" lengthAdjust="spacing" textLength="95" x="296" y="166.0645">&#171;Component&#187;</text><text fill="#000000" font-family="sans-serif" font-size="14" lengthAdjust="spacing" textLength="303" x="192" y="182.5527">:ListAllDevicesInHouseByFunctionalityService</text><rect fill="#E2E2F0" height="46.9766" rx="2.5" ry="2.5" style="stroke:#181818;stroke-width:0.5;" width="150" x="812.5" y="145.5293"/><text fill="#000000" font-family="sans-serif" font-size="14" font-style="italic" lengthAdjust="spacing" textLength="95" x="840" y="166.0645">&#171;Component&#187;</text><text fill="#000000" font-family="sans-serif" font-size="14" lengthAdjust="spacing" textLength="136" x="819.5" y="182.5527">:ActuatorRepository</text><rect fill="#E2E2F0" height="46.9766" rx="2.5" ry="2.5" style="stroke:#181818;stroke-width:0.5;" width="202" x="1169.5" y="145.5293"/><text fill="#000000" font-family="sans-serif" font-size="14" font-style="italic" lengthAdjust="spacing" textLength="95" x="1223" y="166.0645">&#171;Component&#187;</text><text fill="#000000" font-family="sans-serif" font-size="14" lengthAdjust="spacing" textLength="188" x="1176.5" y="182.5527">:MapperActuatorDataModel</text><rect fill="#E2E2F0" height="30.4883" rx="2.5" ry="2.5" style="stroke:#181818;stroke-width:0.5;" width="134" x="1381.5" y="162.0176"/><text fill="#000000" font-family="sans-serif" font-size="14" lengthAdjust="spacing" textLength="120" x="1388.5" y="182.5527">actuator:Actuator</text><rect fill="#E2E2F0" height="46.9766" rx="2.5" ry="2.5" style="stroke:#181818;stroke-width:0.5;" width="135" x="1525.5" y="145.5293"/><text fill="#000000" font-family="sans-serif" font-size="14" font-style="italic" lengthAdjust="spacing" textLength="95" x="1545.5" y="166.0645">&#171;Component&#187;</text><text fill="#000000" font-family="sans-serif" font-size="14" lengthAdjust="spacing" textLength="121" x="1532.5" y="182.5527">:DeviceRepository</text><rect fill="#E2E2F0" height="46.9766" rx="2.5" ry="2.5" style="stroke:#181818;stroke-width:0.5;" width="187" x="1821.5" y="145.5293"/><text fill="#000000" font-family="sans-serif" font-size="14" font-style="italic" lengthAdjust="spacing" textLength="95" x="1867.5" y="166.0645">&#171;Component&#187;</text><text fill="#000000" font-family="sans-serif" font-size="14" lengthAdjust="spacing" textLength="173" x="1828.5" y="182.5527">:MapperDeviceDataModel</text><rect fill="#E2E2F0" height="30.4883" rx="2.5" ry="2.5" style="stroke:#181818;stroke-width:0.5;" width="105" x="2018.5" y="162.0176"/><text fill="#000000" font-family="sans-serif" font-size="14" lengthAdjust="spacing" textLength="91" x="2025.5" y="182.5527">device:Device</text><rect fill="#E2E2F0" height="46.9766" rx="2.5" ry="2.5" style="stroke:#181818;stroke-width:0.5;" width="109" x="2339.5" y="145.5293"/><text fill="#000000" font-family="sans-serif" font-size="14" font-style="italic" lengthAdjust="spacing" textLength="95" x="2346.5" y="166.0645">&#171;Component&#187;</text><text fill="#000000" font-family="sans-serif" font-size="14" lengthAdjust="spacing" textLength="67" x="2360.5" y="182.5527">:DB Driver</text><rect fill="#E2E2F0" height="46.9766" rx="2.5" ry="2.5" style="stroke:#181818;stroke-width:0.5;" width="160" x="15" y="1355.4609"/><text fill="#000000" font-family="sans-serif" font-size="14" font-style="italic" lengthAdjust="spacing" textLength="95" x="47.5" y="1375.9961">&#171;Component&#187;</text><text fill="#000000" font-family="sans-serif" font-size="14" lengthAdjust="spacing" textLength="146" x="22" y="1392.4844">:HouseControllerWeb</text><rect fill="#E2E2F0" height="46.9766" rx="2.5" ry="2.5" style="stroke:#181818;stroke-width:0.5;" width="317" x="185" y="1355.4609"/><text fill="#000000" font-family="sans-serif" font-size="14" font-style="italic" lengthAdjust="spacing" textLength="95" x="296" y="1375.9961">&#171;Component&#187;</text><text fill="#000000" font-family="sans-serif" font-size="14" lengthAdjust="spacing" textLength="303" x="192" y="1392.4844">:ListAllDevicesInHouseByFunctionalityService</text><rect fill="#E2E2F0" height="63.4648" rx="2.5" ry="2.5" style="stroke:#181818;stroke-width:0.5;" width="216" x="586.5" y="1355.4609"/><text fill="#000000" font-family="sans-serif" font-size="14" lengthAdjust="spacing" textLength="126" x="631.5" y="1375.9961">mainActuatorMap:</text><text fill="#000000" font-family="sans-serif" font-size="14" lengthAdjust="spacing" textLength="198" x="593.5" y="1392.4844">Map&lt;ActuatorFuntionalityID,</text><text fill="#000000" font-family="sans-serif" font-size="14" lengthAdjust="spacing" textLength="182" x="603.5" y="1408.9727">Map&lt;RoomID, DeviceID&gt;&gt;</text><rect fill="#E2E2F0" height="46.9766" rx="2.5" ry="2.5" style="stroke:#181818;stroke-width:0.5;" width="150" x="812.5" y="1355.4609"/><text fill="#000000" font-family="sans-serif" font-size="14" font-style="italic" lengthAdjust="spacing" textLength="95" x="840" y="1375.9961">&#171;Component&#187;</text><text fill="#000000" font-family="sans-serif" font-size="14" lengthAdjust="spacing" textLength="136" x="819.5" y="1392.4844">:ActuatorRepository</text><rect fill="#E2E2F0" height="46.9766" rx="2.5" ry="2.5" style="stroke:#181818;stroke-width:0.5;" width="202" x="1169.5" y="1355.4609"/><text fill="#000000" font-family="sans-serif" font-size="14" font-style="italic" lengthAdjust="spacing" textLength="95" x="1223" y="1375.9961">&#171;Component&#187;</text><text fill="#000000" font-family="sans-serif" font-size="14" lengthAdjust="spacing" textLength="188" x="1176.5" y="1392.4844">:MapperActuatorDataModel</text><rect fill="#E2E2F0" height="30.4883" rx="2.5" ry="2.5" style="stroke:#181818;stroke-width:0.5;" width="134" x="1381.5" y="1355.4609"/><text fill="#000000" font-family="sans-serif" font-size="14" lengthAdjust="spacing" textLength="120" x="1388.5" y="1375.9961">actuator:Actuator</text><rect fill="#E2E2F0" height="46.9766" rx="2.5" ry="2.5" style="stroke:#181818;stroke-width:0.5;" width="135" x="1525.5" y="1355.4609"/><text fill="#000000" font-family="sans-serif" font-size="14" font-style="italic" lengthAdjust="spacing" textLength="95" x="1545.5" y="1375.9961">&#171;Component&#187;</text><text fill="#000000" font-family="sans-serif" font-size="14" lengthAdjust="spacing" textLength="121" x="1532.5" y="1392.4844">:DeviceRepository</text><rect fill="#E2E2F0" height="46.9766" rx="2.5" ry="2.5" style="stroke:#181818;stroke-width:0.5;" width="187" x="1821.5" y="1355.4609"/><text fill="#000000" font-family="sans-serif" font-size="14" font-style="italic" lengthAdjust="spacing" textLength="95" x="1867.5" y="1375.9961">&#171;Component&#187;</text><text fill="#000000" font-family="sans-serif" font-size="14" lengthAdjust="spacing" textLength="173" x="1828.5" y="1392.4844">:MapperDeviceDataModel</text><rect fill="#E2E2F0" height="30.4883" rx="2.5" ry="2.5" style="stroke:#181818;stroke-width:0.5;" width="105" x="2018.5" y="1355.4609"/><text fill="#000000" font-family="sans-serif" font-size="14" lengthAdjust="spacing" textLength="91" x="2025.5" y="1375.9961">device:Device</text><rect fill="#E2E2F0" height="46.9766" rx="2.5" ry="2.5" style="stroke:#181818;stroke-width:0.5;" width="196" x="2133.5" y="1355.4609"/><text fill="#000000" font-family="sans-serif" font-size="14" lengthAdjust="spacing" textLength="155" x="2152" y="1375.9961">mainMap:Map&lt;Object,</text><text fill="#000000" font-family="sans-serif" font-size="14" lengthAdjust="spacing" textLength="182" x="2140.5" y="1392.4844">Map&lt;RoomID, DeviceID&gt;&gt;</text><rect fill="#E2E2F0" height="46.9766" rx="2.5" ry="2.5" style="stroke:#181818;stroke-width:0.5;" width="109" x="2339.5" y="1355.4609"/><text fill="#000000" font-family="sans-serif" font-size="14" font-style="italic" lengthAdjust="spacing" textLength="95" x="2346.5" y="1375.9961">&#171;Component&#187;</text><text fill="#000000" font-family="sans-serif" font-size="14" lengthAdjust="spacing" textLength="67" x="2360.5" y="1392.4844">:DB Driver</text><rect fill="none" height="39.4434" style="stroke:#000000;stroke-width:1.5;" width="313" x="187" y="201.5059"/><path d="M187,201.5059 L251,201.5059 L251,208.5059 L241,218.5059 L187,218.5059 L187,201.5059 " fill="#EEEEEE" style="stroke:#000000;stroke-width:2.0;"/><text fill="#000000" font-family="sans-serif" font-size="13" font-weight="bold" lengthAdjust="spacing" textLength="19" x="200" y="216.0742">ref</text><text fill="#000000" font-family="sans-serif" font-size="12" lengthAdjust="spacing" textLength="282" x="202.5" y="234.1074">UC09-SD-ListAllDevicesInHouseByFunctionality-1</text><line style="stroke:#181818;stroke-width:1.0;" x1="348.5" x2="395.5" y1="267.2598" y2="267.2598"/><line style="stroke:#181818;stroke-width:1.0;" x1="395.5" x2="395.5" y1="267.2598" y2="280.2598"/><line style="stroke:#181818;stroke-width:1.0;" x1="354.5" x2="395.5" y1="280.2598" y2="280.2598"/><polygon fill="#181818" points="364.5,276.2598,354.5,280.2598,364.5,284.2598,360.5,280.2598" style="stroke:#181818;stroke-width:1.0;"/><text fill="#000000" font-family="sans-serif" font-size="13" font-weight="bold" lengthAdjust="spacing" textLength="9" x="360.5" y="262.5176">1</text><text fill="#000000" font-family="sans-serif" font-size="13" lengthAdjust="spacing" textLength="168" x="373.5" y="262.5176">actuatorFunctionalityMap()</text><rect fill="#E2E2F0" height="63.4648" rx="2.5" ry="2.5" style="stroke:#181818;stroke-width:0.5;" width="216" x="586.5" y="288.2598"/><text fill="#000000" font-family="sans-serif" font-size="14" lengthAdjust="spacing" textLength="126" x="631.5" y="308.7949">mainActuatorMap:</text><text fill="#000000" font-family="sans-serif" font-size="14" lengthAdjust="spacing" textLength="198" x="593.5" y="325.2832">Map&lt;ActuatorFuntionalityID,</text><text fill="#000000" font-family="sans-serif" font-size="14" lengthAdjust="spacing" textLength="182" x="603.5" y="341.7715">Map&lt;RoomID, DeviceID&gt;&gt;</text><polygon fill="#181818" points="574.5,305.5703,584.5,309.5703,574.5,313.5703,578.5,309.5703" style="stroke:#181818;stroke-width:1.0;"/><line style="stroke:#181818;stroke-width:1.0;stroke-dasharray:2.0,2.0;" x1="353.5" x2="580.5" y1="309.5703" y2="309.5703"/><text fill="#000000" font-family="sans-serif" font-size="13" font-weight="bold" lengthAdjust="spacing" textLength="9" x="360.5" y="304.8281">2</text><text fill="#000000" font-family="sans-serif" font-size="13" lengthAdjust="spacing" textLength="59" x="373.5" y="304.8281">&#171;creates&#187;</text><polygon fill="#181818" points="870.5,370.0352,880.5,374.0352,870.5,378.0352,874.5,374.0352" style="stroke:#181818;stroke-width:1.0;"/><line style="stroke:#181818;stroke-width:1.0;" x1="353.5" x2="876.5" y1="374.0352" y2="374.0352"/><text fill="#000000" font-family="sans-serif" font-size="13" font-weight="bold" lengthAdjust="spacing" textLength="9" x="360.5" y="369.293">3</text><text fill="#000000" font-family="sans-serif" font-size="13" lengthAdjust="spacing" textLength="97" x="373.5" y="369.293">findAllEntities()</text><polygon fill="#181818" points="2377,399.3457,2387,403.3457,2377,407.3457,2381,403.3457" style="stroke:#181818;stroke-width:1.0;"/><line style="stroke:#181818;stroke-width:1.0;" x1="892.5" x2="2383" y1="403.3457" y2="403.3457"/><text fill="#000000" font-family="sans-serif" font-size="13" font-weight="bold" lengthAdjust="spacing" textLength="9" x="899.5" y="398.6035">4</text><text fill="#000000" font-family="sans-serif" font-size="13" lengthAdjust="spacing" textLength="50" x="912.5" y="398.6035">findAll()</text><ellipse cx="2570.5" cy="431.9063" fill="none" rx="4" ry="4" style="stroke:#181818;stroke-width:1.5;"/><polygon fill="#181818" points="2553.5,428.6563,2563.5,432.6563,2553.5,436.6563,2557.5,432.6563" style="stroke:#181818;stroke-width:1.0;"/><line style="stroke:#181818;stroke-width:1.0;" x1="2399" x2="2559.5" y1="432.6563" y2="432.6563"/><text fill="#000000" font-family="sans-serif" font-size="13" font-weight="bold" lengthAdjust="spacing" textLength="9" x="2406" y="427.9141">5</text><text fill="#000000" font-family="sans-serif" font-size="13" lengthAdjust="spacing" textLength="112" x="2419" y="427.9141">DATABASE QUERY</text><polygon fill="#181818" points="2410,457.9668,2400,461.9668,2410,465.9668,2406,461.9668" style="stroke:#181818;stroke-width:1.0;"/><ellipse cx="2570.5" cy="461.2168" fill="none" rx="4" ry="4" style="stroke:#181818;stroke-width:1.5;"/><line style="stroke:#181818;stroke-width:1.0;stroke-dasharray:2.0,2.0;" x1="2404" x2="2566" y1="461.9668" y2="461.9668"/><text fill="#000000" font-family="sans-serif" font-size="13" font-weight="bold" lengthAdjust="spacing" textLength="9" x="2416" y="457.2246">6</text><text fill="#000000" font-family="sans-serif" font-size="13" lengthAdjust="spacing" textLength="109" x="2429" y="457.2246">QUERY RESPONSE</text><polygon fill="#181818" points="903.5,487.2773,893.5,491.2773,903.5,495.2773,899.5,491.2773" style="stroke:#181818;stroke-width:1.0;"/><line style="stroke:#181818;stroke-width:1.0;stroke-dasharray:2.0,2.0;" x1="897.5" x2="2388" y1="491.2773" y2="491.2773"/><text fill="#000000" font-family="sans-serif" font-size="13" font-weight="bold" lengthAdjust="spacing" textLength="9" x="909.5" y="486.5352">7</text><text fill="#000000" font-family="sans-serif" font-size="13" lengthAdjust="spacing" textLength="334" x="922.5" y="486.5352">Iterable&lt;ActuatorDataModel&gt; actuatorListDataModel</text><polygon fill="#181818" points="1253.5,516.5879,1263.5,520.5879,1253.5,524.5879,1257.5,520.5879" style="stroke:#181818;stroke-width:1.0;"/><line style="stroke:#181818;stroke-width:1.0;" x1="892.5" x2="1259.5" y1="520.5879" y2="520.5879"/><text fill="#000000" font-family="sans-serif" font-size="13" font-weight="bold" lengthAdjust="spacing" textLength="9" x="899.5" y="515.8457">8</text><text fill="#000000" font-family="sans-serif" font-size="13" lengthAdjust="spacing" textLength="341" x="912.5" y="515.8457">toDomainList(factoryActuator, actuatorListDataModel)</text><polygon fill="#181818" points="903.5,545.8984,893.5,549.8984,903.5,553.8984,899.5,549.8984" style="stroke:#181818;stroke-width:1.0;"/><line style="stroke:#181818;stroke-width:1.0;stroke-dasharray:2.0,2.0;" x1="897.5" x2="1264.5" y1="549.8984" y2="549.8984"/><text fill="#000000" font-family="sans-serif" font-size="13" font-weight="bold" lengthAdjust="spacing" textLength="9" x="909.5" y="545.1563">9</text><text fill="#000000" font-family="sans-serif" font-size="13" lengthAdjust="spacing" textLength="200" x="922.5" y="545.1563">Iterable&lt;Actuator&gt; actuatorList</text><polygon fill="#181818" points="364.5,575.209,354.5,579.209,364.5,583.209,360.5,579.209" style="stroke:#181818;stroke-width:1.0;"/><line style="stroke:#181818;stroke-width:1.0;stroke-dasharray:2.0,2.0;" x1="358.5" x2="881.5" y1="579.209" y2="579.209"/><text fill="#000000" font-family="sans-serif" font-size="13" font-weight="bold" lengthAdjust="spacing" textLength="18" x="370.5" y="574.4668">10</text><text fill="#000000" font-family="sans-serif" font-size="13" lengthAdjust="spacing" textLength="200" x="392.5" y="574.4668">Iterable&lt;Actuator&gt; actuatorList</text><path d="M186,591.209 L260,591.209 L260,598.5195 L250,608.5195 L186,608.5195 L186,591.209 " fill="#EEEEEE" style="stroke:#000000;stroke-width:1.5;"/><rect fill="none" height="517.5898" style="stroke:#000000;stroke-width:1.5;" width="2382" x="186" y="591.209"/><text fill="#000000" font-family="sans-serif" font-size="13" font-weight="bold" lengthAdjust="spacing" textLength="29" x="201" y="604.7773">loop</text><text fill="#000000" font-family="sans-serif" font-size="11" font-weight="bold" lengthAdjust="spacing" textLength="175" x="275" y="603.8438">[for each Actuator in actuators]</text><polygon fill="#181818" points="1431.5,635.8301,1441.5,639.8301,1431.5,643.8301,1435.5,639.8301" style="stroke:#181818;stroke-width:1.0;"/><line style="stroke:#181818;stroke-width:1.0;" x1="353.5" x2="1437.5" y1="639.8301" y2="639.8301"/><text fill="#000000" font-family="sans-serif" font-size="13" font-weight="bold" lengthAdjust="spacing" textLength="18" x="360.5" y="635.0879">11</text><text fill="#000000" font-family="sans-serif" font-size="13" lengthAdjust="spacing" textLength="178" x="382.5" y="635.0879">getActuatorFunctionalityID()</text><polygon fill="#181818" points="364.5,665.1406,354.5,669.1406,364.5,673.1406,360.5,669.1406" style="stroke:#181818;stroke-width:1.0;"/><line style="stroke:#181818;stroke-width:1.0;stroke-dasharray:2.0,2.0;" x1="358.5" x2="1442.5" y1="669.1406" y2="669.1406"/><text fill="#000000" font-family="sans-serif" font-size="13" font-weight="bold" lengthAdjust="spacing" textLength="18" x="370.5" y="664.3984">12</text><text fill="#000000" font-family="sans-serif" font-size="13" lengthAdjust="spacing" textLength="302" x="392.5" y="664.3984">ActuatorFunctionalityID actuatorFunctionalityID</text><polygon fill="#181818" points="1431.5,694.4512,1441.5,698.4512,1431.5,702.4512,1435.5,698.4512" style="stroke:#181818;stroke-width:1.0;"/><line style="stroke:#181818;stroke-width:1.0;" x1="353.5" x2="1437.5" y1="698.4512" y2="698.4512"/><text fill="#000000" font-family="sans-serif" font-size="13" font-weight="bold" lengthAdjust="spacing" textLength="18" x="360.5" y="693.709">13</text><text fill="#000000" font-family="sans-serif" font-size="13" lengthAdjust="spacing" textLength="84" x="382.5" y="693.709">getDeviceID()</text><polygon fill="#181818" points="364.5,723.7617,354.5,727.7617,364.5,731.7617,360.5,727.7617" style="stroke:#181818;stroke-width:1.0;"/><line style="stroke:#181818;stroke-width:1.0;stroke-dasharray:2.0,2.0;" x1="358.5" x2="1442.5" y1="727.7617" y2="727.7617"/><text fill="#000000" font-family="sans-serif" font-size="13" font-weight="bold" lengthAdjust="spacing" textLength="18" x="370.5" y="723.0195">14</text><text fill="#000000" font-family="sans-serif" font-size="13" lengthAdjust="spacing" textLength="114" x="392.5" y="723.0195">DeviceID deviceID</text><polygon fill="#181818" points="1576,753.0723,1586,757.0723,1576,761.0723,1580,757.0723" style="stroke:#181818;stroke-width:1.0;"/><line style="stroke:#181818;stroke-width:1.0;" x1="353.5" x2="1582" y1="757.0723" y2="757.0723"/><text fill="#000000" font-family="sans-serif" font-size="13" font-weight="bold" lengthAdjust="spacing" textLength="18" x="360.5" y="752.3301">15</text><text fill="#000000" font-family="sans-serif" font-size="13" lengthAdjust="spacing" textLength="151" x="382.5" y="752.3301">findEntityByID(deviceID)</text><polygon fill="#181818" points="2377,782.3828,2387,786.3828,2377,790.3828,2381,786.3828" style="stroke:#181818;stroke-width:1.0;"/><line style="stroke:#181818;stroke-width:1.0;" x1="1598" x2="2383" y1="786.3828" y2="786.3828"/><text fill="#000000" font-family="sans-serif" font-size="13" font-weight="bold" lengthAdjust="spacing" textLength="18" x="1605" y="781.6406">16</text><text fill="#000000" font-family="sans-serif" font-size="13" lengthAdjust="spacing" textLength="115" x="1627" y="781.6406">findByID(deviceID)</text><ellipse cx="2570.5" cy="814.9434" fill="none" rx="4" ry="4" style="stroke:#181818;stroke-width:1.5;"/><polygon fill="#181818" points="2553.5,811.6934,2563.5,815.6934,2553.5,819.6934,2557.5,815.6934" style="stroke:#181818;stroke-width:1.0;"/><line style="stroke:#181818;stroke-width:1.0;" x1="2399" x2="2559.5" y1="815.6934" y2="815.6934"/><text fill="#000000" font-family="sans-serif" font-size="13" font-weight="bold" lengthAdjust="spacing" textLength="18" x="2406" y="810.9512">17</text><text fill="#000000" font-family="sans-serif" font-size="13" lengthAdjust="spacing" textLength="112" x="2428" y="810.9512">DATABASE QUERY</text><polygon fill="#181818" points="2410,841.0039,2400,845.0039,2410,849.0039,2406,845.0039" style="stroke:#181818;stroke-width:1.0;"/><ellipse cx="2570.5" cy="844.2539" fill="none" rx="4" ry="4" style="stroke:#181818;stroke-width:1.5;"/><line style="stroke:#181818;stroke-width:1.0;stroke-dasharray:2.0,2.0;" x1="2404" x2="2566" y1="845.0039" y2="845.0039"/><text fill="#000000" font-family="sans-serif" font-size="13" font-weight="bold" lengthAdjust="spacing" textLength="18" x="2416" y="840.2617">18</text><text fill="#000000" font-family="sans-serif" font-size="13" lengthAdjust="spacing" textLength="109" x="2438" y="840.2617">QUERY RESPONSE</text><polygon fill="#181818" points="1609,870.3145,1599,874.3145,1609,878.3145,1605,874.3145" style="stroke:#181818;stroke-width:1.0;"/><line style="stroke:#181818;stroke-width:1.0;stroke-dasharray:2.0,2.0;" x1="1603" x2="2388" y1="874.3145" y2="874.3145"/><text fill="#000000" font-family="sans-serif" font-size="13" font-weight="bold" lengthAdjust="spacing" textLength="18" x="1615" y="869.5723">19</text><text fill="#000000" font-family="sans-serif" font-size="13" lengthAdjust="spacing" textLength="220" x="1637" y="869.5723">DeviceDataModel deviceDataModel</text><polygon fill="#181818" points="1898,899.625,1908,903.625,1898,907.625,1902,903.625" style="stroke:#181818;stroke-width:1.0;"/><line style="stroke:#181818;stroke-width:1.0;" x1="1598" x2="1904" y1="903.625" y2="903.625"/><text fill="#000000" font-family="sans-serif" font-size="13" font-weight="bold" lengthAdjust="spacing" textLength="18" x="1605" y="898.8828">20</text><text fill="#000000" font-family="sans-serif" font-size="13" lengthAdjust="spacing" textLength="271" x="1627" y="898.8828">toDomain(factoryDevice, deviceDataModel)</text><polygon fill="#181818" points="1609,928.9355,1599,932.9355,1609,936.9355,1605,932.9355" style="stroke:#181818;stroke-width:1.0;"/><line style="stroke:#181818;stroke-width:1.0;stroke-dasharray:2.0,2.0;" x1="1603" x2="1909" y1="932.9355" y2="932.9355"/><text fill="#000000" font-family="sans-serif" font-size="13" font-weight="bold" lengthAdjust="spacing" textLength="18" x="1615" y="928.1934">21</text><text fill="#000000" font-family="sans-serif" font-size="13" lengthAdjust="spacing" textLength="40" x="1637" y="928.1934">device</text><polygon fill="#181818" points="364.5,958.2461,354.5,962.2461,364.5,966.2461,360.5,962.2461" style="stroke:#181818;stroke-width:1.0;"/><line style="stroke:#181818;stroke-width:1.0;stroke-dasharray:2.0,2.0;" x1="358.5" x2="1587" y1="962.2461" y2="962.2461"/><text fill="#000000" font-family="sans-serif" font-size="13" font-weight="bold" lengthAdjust="spacing" textLength="18" x="370.5" y="957.5039">22</text><text fill="#000000" font-family="sans-serif" font-size="13" lengthAdjust="spacing" textLength="40" x="392.5" y="957.5039">device</text><polygon fill="#181818" points="2054,987.5566,2064,991.5566,2054,995.5566,2058,991.5566" style="stroke:#181818;stroke-width:1.0;"/><line style="stroke:#181818;stroke-width:1.0;" x1="353.5" x2="2060" y1="991.5566" y2="991.5566"/><text fill="#000000" font-family="sans-serif" font-size="13" font-weight="bold" lengthAdjust="spacing" textLength="18" x="360.5" y="986.8145">23</text><text fill="#000000" font-family="sans-serif" font-size="13" lengthAdjust="spacing" textLength="78" x="382.5" y="986.8145">getRoomID()</text><polygon fill="#181818" points="364.5,1016.8672,354.5,1020.8672,364.5,1024.8672,360.5,1020.8672" style="stroke:#181818;stroke-width:1.0;"/><line style="stroke:#181818;stroke-width:1.0;stroke-dasharray:2.0,2.0;" x1="358.5" x2="2065" y1="1020.8672" y2="1020.8672"/><text fill="#000000" font-family="sans-serif" font-size="13" font-weight="bold" lengthAdjust="spacing" textLength="18" x="370.5" y="1016.125">24</text><text fill="#000000" font-family="sans-serif" font-size="13" lengthAdjust="spacing" textLength="101" x="392.5" y="1016.125">RoomID roomID</text><path d="M207,1033.8672 L207,1073.8672 L480,1073.8672 L480,1043.8672 L470,1033.8672 L207,1033.8672 " fill="#FEFFDD" style="stroke:#181818;stroke-width:0.5;"/><path d="M470,1033.8672 L470,1043.8672 L480,1043.8672 L470,1033.8672 " fill="#FEFFDD" style="stroke:#181818;stroke-width:0.5;"/><text fill="#000000" font-family="sans-serif" font-size="13" lengthAdjust="spacing" textLength="49" x="213" y="1051.4355">On Step</text><text fill="#000000" font-family="sans-serif" font-size="13" font-weight="bold" lengthAdjust="spacing" textLength="18" x="266" y="1051.4355">25</text><text fill="#000000" font-family="sans-serif" font-size="13" lengthAdjust="spacing" textLength="169" x="288" y="1051.4355">make sure not to overwrite</text><text fill="#000000" font-family="sans-serif" font-size="13" lengthAdjust="spacing" textLength="248" x="217" y="1066.7461">Map key and value if they already exist.</text><polygon fill="#181818" points="677.5,1096.7988,687.5,1100.7988,677.5,1104.7988,681.5,1100.7988" style="stroke:#181818;stroke-width:1.0;"/><line style="stroke:#181818;stroke-width:1.0;" x1="353.5" x2="683.5" y1="1100.7988" y2="1100.7988"/><text fill="#000000" font-family="sans-serif" font-size="13" font-weight="bold" lengthAdjust="spacing" textLength="18" x="360.5" y="1096.0566">25</text><text fill="#000000" font-family="sans-serif" font-size="13" lengthAdjust="spacing" textLength="300" x="382.5" y="1096.0566">add (actuatorFunctionalityID, roomID, deviceID)</text><line style="stroke:#181818;stroke-width:1.0;stroke-dasharray:2.0,2.0;" x1="353.5" x2="395.5" y1="1144.1094" y2="1144.1094"/><line style="stroke:#181818;stroke-width:1.0;stroke-dasharray:2.0,2.0;" x1="395.5" x2="395.5" y1="1144.1094" y2="1157.1094"/><line style="stroke:#181818;stroke-width:1.0;stroke-dasharray:2.0,2.0;" x1="348.5" x2="395.5" y1="1157.1094" y2="1157.1094"/><polygon fill="#181818" points="358.5,1153.1094,348.5,1157.1094,358.5,1161.1094,354.5,1157.1094" style="stroke:#181818;stroke-width:1.0;"/><text fill="#000000" font-family="sans-serif" font-size="13" font-weight="bold" lengthAdjust="spacing" textLength="18" x="360.5" y="1139.3672">26</text><text fill="#000000" font-family="sans-serif" font-size="13" lengthAdjust="spacing" textLength="111" x="382.5" y="1139.3672">mainActuatorMap</text><rect fill="#E2E2F0" height="46.9766" rx="2.5" ry="2.5" style="stroke:#181818;stroke-width:0.5;" width="196" x="2133.5" y="1165.1094"/><text fill="#000000" font-family="sans-serif" font-size="14" lengthAdjust="spacing" textLength="155" x="2152" y="1185.6445">mainMap:Map&lt;Object,</text><text fill="#000000" font-family="sans-serif" font-size="14" lengthAdjust="spacing" textLength="182" x="2140.5" y="1202.1328">Map&lt;RoomID, DeviceID&gt;&gt;</text><polygon fill="#181818" points="2121.5,1182.4199,2131.5,1186.4199,2121.5,1190.4199,2125.5,1186.4199" style="stroke:#181818;stroke-width:1.0;"/><line style="stroke:#181818;stroke-width:1.0;stroke-dasharray:2.0,2.0;" x1="348.5" x2="2127.5" y1="1186.4199" y2="1186.4199"/><text fill="#000000" font-family="sans-serif" font-size="13" font-weight="bold" lengthAdjust="spacing" textLength="18" x="355.5" y="1181.6777">27</text><text fill="#000000" font-family="sans-serif" font-size="13" lengthAdjust="spacing" textLength="59" x="377.5" y="1181.6777">&#171;creates&#187;</text><polygon fill="#181818" points="2214.5,1230.3965,2224.5,1234.3965,2214.5,1238.3965,2218.5,1234.3965" style="stroke:#181818;stroke-width:1.0;"/><line style="stroke:#181818;stroke-width:1.0;" x1="348.5" x2="2220.5" y1="1234.3965" y2="1234.3965"/><text fill="#000000" font-family="sans-serif" font-size="13" font-weight="bold" lengthAdjust="spacing" textLength="18" x="355.5" y="1229.6543">28</text><text fill="#000000" font-family="sans-serif" font-size="13" lengthAdjust="spacing" textLength="145" x="377.5" y="1229.6543">putAll(mainSensorMap)</text><polygon fill="#181818" points="2214.5,1259.707,2224.5,1263.707,2214.5,1267.707,2218.5,1263.707" style="stroke:#181818;stroke-width:1.0;"/><line style="stroke:#181818;stroke-width:1.0;" x1="348.5" x2="2220.5" y1="1263.707" y2="1263.707"/><text fill="#000000" font-family="sans-serif" font-size="13" font-weight="bold" lengthAdjust="spacing" textLength="18" x="355.5" y="1258.9648">29</text><text fill="#000000" font-family="sans-serif" font-size="13" lengthAdjust="spacing" textLength="153" x="377.5" y="1258.9648">putAll(mainActuatorMap</text><polygon fill="#181818" points="111,1289.0176,101,1293.0176,111,1297.0176,107,1293.0176" style="stroke:#181818;stroke-width:1.0;"/><line style="stroke:#181818;stroke-width:1.0;stroke-dasharray:2.0,2.0;" x1="105" x2="337.5" y1="1293.0176" y2="1293.0176"/><text fill="#000000" font-family="sans-serif" font-size="13" font-weight="bold" lengthAdjust="spacing" textLength="18" x="117" y="1288.2754">30</text><text fill="#000000" font-family="sans-serif" font-size="13" lengthAdjust="spacing" textLength="57" x="139" y="1288.2754">mainMap</text><rect fill="none" height="39.4434" style="stroke:#000000;stroke-width:1.5;" width="290" x="17" y="1301.0176"/><path d="M17,1301.0176 L81,1301.0176 L81,1308.0176 L71,1318.0176 L17,1318.0176 L17,1301.0176 " fill="#EEEEEE" style="stroke:#000000;stroke-width:2.0;"/><text fill="#000000" font-family="sans-serif" font-size="13" font-weight="bold" lengthAdjust="spacing" textLength="19" x="30" y="1315.5859">ref</text><text fill="#000000" font-family="sans-serif" font-size="12" lengthAdjust="spacing" textLength="282" x="21" y="1333.6191">UC09-SD-ListAllDevicesInHouseByFunctionality-3</text><!--SRC=[bLTTZ-8s57tFhxYTFa1NCDsFzc4ZX1H8bed402MWQgJjWo5c9fqGHuuptVJNrtQ8IHmdPUPXWFjnV7tiUtF28XPZsCy_VeKnB303176KCI0dG74C8NwBZZY3AE6E5v9dU0JFbEGf3k5GNDnmofCZYqY2ueWLm8eKP_VWCpZd72bAZd4UuYes9aSaOkyj2-MC9FdvWAbb_PHIz7n6m33v5nZDiMKTo0-uWyaao0z1aJ5ydaw_9y0DSv8m52MObWO0UuQEhpW9UVZFBgAl2ueBbJudvvGaE64gEi3q3LCUkuoUNvWCjb94MNICKfGmkBCVn4x5CfJ4CQP_uiCTe0psmSUlSqRZ9ggMk-JqEN7ibipvYSIQ5T_g78aAk5U2Il_5q0TyvbjsZYn7ZD17bDhV4_v_Kbaul4BttH6KtYqXP_6hBCPtfrEvf0QbRQ3oR75AieX_AMHIsznB0yTDCQsINCJG8mbnBA4wV7ruw1AigclKfArTRbUhNpVUK7sPOgfTy_HXbVV-KbEjalRfYbCLfxO-_8sFx8OpR9-TEmENHl9sYuLcvG-jFD4fl3lKfyN9ZTuGm-g2NotrssbHV08Yy1fMqLDoWem3TtpBxHz_AdF4-XpIiWQ1Dz_vwnLyii7VULjdvy7kORlUBnx0cU_spcwz3S1PkR3WnWq4tYeGbjaJVDklPAgpz7TF0wlHJEDfer0RqBLPhjLm4eU_o8BCcnQU9Yp7rJhemmURStoac6TddE5spjJGFpQSeYJaR7cyTrc4CxsETehq6pgHurU7hL0lQDMVGgq26rvrLSPJyfSDhhDpPaxWmHzxR_jaZfoCno9KHi3M2pRhLU1rW7RitsUOeaEC9wrPC5M79MwKCZVWGzo_9pDF7SF71aPS8ivLB3WySMYUK8MDpELqCDonH2EuQmRUJ5MJeIvY-aenyTFgcLlMhQtNSMLLXt-vvps-NAyt_cgXUjnpvjT67yY4c90KJeG2XtvHg5A7NBvdQijTdMR3CsQEgUTzjzOShTej_G8PQEc0DOyOtxsjrch4ruhhAQ6AlYYhsYA6y-WiG7yibkD3JgHY9eYgq0s4wRagelMiRSsd3kZRXjNx1jOxXrPhSBKPqf_-OVDt2-x_1bKNPKQjSHrKrP0g0qPw6Jsi6e5RuMQfOwQaNBjlv_rhjhVVkk_Q4dLIk-wX-RBBNYjbrR3pLckL6Uef4O3AZ-wob2SXtDQIJpQi4mWOJc5oc7x-VVBhGQYBLmnPJh78uSSji_wX4SFy3ORp2A-u0CJLqnkASmpH2TYBiCHSW8G5u1zyCDztag2_I00AGnXs3AxHPNyZw9a3-lk4WGjJ2DT_LajPDRdHqsg83P4syBWul3nZ1ZL1-PiDZzvsuLqaezIGrOC67frDgIet-nquowKS8k2lTclkybV2Fx2Cqkz6oLU9UaXp8Og7udU0aqpkHTDwbPw_6KXdKoDRc5krL_hULY5TXDRiwgL0oNzbUR_q_zAK_lLpi_u3]--></g></svg>