<?xml version="1.0" encoding="us-ascii" standalone="no"?><svg xmlns="http://www.w3.org/2000/svg" xmlns:xlink="http://www.w3.org/1999/xlink" contentStyleType="text/css" height="1078px" preserveAspectRatio="none" style="width:2207px;height:1078px;background:#FFFFFF;" version="1.1" viewBox="0 0 2207 1078" width="2207px" zoomAndPan="magnify"><defs/><g><rect fill="#A9A9A9" height="1027.1465" style="stroke:#181818;stroke-width:0.5;" width="2037.5" x="151.5" y="45.6211"/><text fill="#000000" font-family="sans-serif" font-size="13" font-weight="bold" lengthAdjust="spacing" textLength="85" x="1127.75" y="59.6494">&#171;SubSystem&#187;</text><text fill="#000000" font-family="sans-serif" font-size="13" font-weight="bold" lengthAdjust="spacing" textLength="59" x="1127.75" y="76.9404">:Backend</text><rect fill="#D3D3D3" height="987.5645" style="stroke:#181818;stroke-width:0.5;" width="2037.5" x="151.5" y="85.2031"/><text fill="#000000" font-family="sans-serif" font-size="13" font-weight="bold" lengthAdjust="spacing" textLength="76" x="1134.25" y="99.2314">&#171;Container&#187;</text><text fill="#000000" font-family="sans-serif" font-size="13" font-weight="bold" lengthAdjust="spacing" textLength="46" x="1130.25" y="116.5225">:Server</text><text fill="#000000" font-family="sans-serif" font-size="14" font-weight="bold" lengthAdjust="spacing" textLength="252" x="981" y="30.1074">UC12.1 List Actuator Functionalities.</text><line style="stroke:#181818;stroke-width:0.5;stroke-dasharray:5.0,5.0;" x1="207" x2="207" y1="176.0273" y2="1014.5254"/><rect fill="#FFFFFF" height="789.207" style="stroke:#181818;stroke-width:1.0;" width="10" x="202" y="207.3184"/><line style="stroke:#181818;stroke-width:0.5;stroke-dasharray:5.0,5.0;" x1="470" x2="470" y1="176.0273" y2="1014.5254"/><rect fill="#FFFFFF" height="709.334" style="stroke:#181818;stroke-width:1.0;" width="10" x="465" y="238.6094"/><line style="stroke:#181818;stroke-width:0.5;stroke-dasharray:5.0,5.0;" x1="717.5" x2="717.5" y1="246.6094" y2="1014.5254"/><rect fill="#FFFFFF" height="258.6484" style="stroke:#181818;stroke-width:1.0;" width="10" x="712.5" y="658.0039"/><line style="stroke:#181818;stroke-width:0.5;stroke-dasharray:5.0,5.0;" x1="1056.5" x2="1056.5" y1="176.0273" y2="1014.5254"/><rect fill="#FFFFFF" height="287.2793" style="stroke:#181818;stroke-width:1.0;" width="10" x="1051.5" y="322.1426"/><line style="stroke:#181818;stroke-width:0.5;stroke-dasharray:5.0,5.0;" x1="1282.5" x2="1282.5" y1="176.0273" y2="1014.5254"/><rect fill="#FFFFFF" height="31.291" style="stroke:#181818;stroke-width:1.0;" width="10" x="1277.5" y="353.4336"/><line style="stroke:#181818;stroke-width:0.5;stroke-dasharray:5.0,5.0;" x1="1503" x2="1503" y1="392.7246" y2="1014.5254"/><rect fill="#FFFFFF" height="13" style="stroke:#181818;stroke-width:1.0;" width="10" x="1498" y="564.1309"/><line style="stroke:#181818;stroke-width:0.5;stroke-dasharray:5.0,5.0;" x1="1689.5" x2="1689.5" y1="176.0273" y2="1014.5254"/><rect fill="#FFFFFF" height="31.291" style="stroke:#181818;stroke-width:1.0;" width="10" x="1684.5" y="501.5488"/><line style="stroke:#181818;stroke-width:0.5;stroke-dasharray:5.0,5.0;" x1="1884.5" x2="1884.5" y1="666.0039" y2="1014.5254"/><rect fill="#FFFFFF" height="13" style="stroke:#181818;stroke-width:1.0;" width="10" x="1879.5" y="871.3613"/><line style="stroke:#181818;stroke-width:0.5;stroke-dasharray:5.0,5.0;" x1="2094.5" x2="2094.5" y1="795.8281" y2="1014.5254"/><rect fill="#E2E2F0" height="51.2422" rx="2.5" ry="2.5" style="stroke:#181818;stroke-width:0.5;" width="103" x="155.5" y="123.7852"/><text fill="#000000" font-family="sans-serif" font-size="14" font-style="italic" lengthAdjust="spacing" textLength="89" x="162.5" y="145.8926">&#171;Component&#187;</text><text fill="#000000" font-family="sans-serif" font-size="14" lengthAdjust="spacing" textLength="47" x="183.5" y="164.5137">:Router</text><rect fill="#E2E2F0" height="51.2422" rx="2.5" ry="2.5" style="stroke:#181818;stroke-width:0.5;" width="246" x="347" y="123.7852"/><text fill="#000000" font-family="sans-serif" font-size="14" font-style="italic" lengthAdjust="spacing" textLength="89" x="425.5" y="145.8926">&#171;Component&#187;</text><text fill="#000000" font-family="sans-serif" font-size="14" lengthAdjust="spacing" textLength="232" x="354" y="164.5137">:ListActuatorFunctionalitiesController</text><rect fill="#E2E2F0" height="51.2422" rx="2.5" ry="2.5" style="stroke:#181818;stroke-width:0.5;" width="198" x="957.5" y="123.7852"/><text fill="#000000" font-family="sans-serif" font-size="14" font-style="italic" lengthAdjust="spacing" textLength="89" x="1012" y="145.8926">&#171;Component&#187;</text><text fill="#000000" font-family="sans-serif" font-size="14" lengthAdjust="spacing" textLength="184" x="964.5" y="164.5137">:ActuatorFunctionalityService</text><rect fill="#E2E2F0" height="51.2422" rx="2.5" ry="2.5" style="stroke:#181818;stroke-width:0.5;" width="219" x="1173" y="123.7852"/><text fill="#000000" font-family="sans-serif" font-size="14" font-style="italic" lengthAdjust="spacing" textLength="89" x="1238" y="145.8926">&#171;Component&#187;</text><text fill="#000000" font-family="sans-serif" font-size="14" lengthAdjust="spacing" textLength="205" x="1180" y="164.5137">:ActuatorFunctionalityRepository</text><rect fill="#E2E2F0" height="51.2422" rx="2.5" ry="2.5" style="stroke:#181818;stroke-width:0.5;" width="151" x="1614" y="123.7852"/><text fill="#000000" font-family="sans-serif" font-size="14" lengthAdjust="spacing" textLength="132" x="1623.5" y="145.8926">actuatorFunctionality</text><text fill="#000000" font-family="sans-serif" font-size="14" lengthAdjust="spacing" textLength="137" x="1621" y="164.5137">:ActuatorFunctionality</text><rect fill="#E2E2F0" height="51.2422" rx="2.5" ry="2.5" style="stroke:#181818;stroke-width:0.5;" width="103" x="155.5" y="1014.5254"/><text fill="#000000" font-family="sans-serif" font-size="14" font-style="italic" lengthAdjust="spacing" textLength="89" x="162.5" y="1036.6328">&#171;Component&#187;</text><text fill="#000000" font-family="sans-serif" font-size="14" lengthAdjust="spacing" textLength="47" x="183.5" y="1055.2539">:Router</text><rect fill="#E2E2F0" height="51.2422" rx="2.5" ry="2.5" style="stroke:#181818;stroke-width:0.5;" width="246" x="347" y="1014.5254"/><text fill="#000000" font-family="sans-serif" font-size="14" font-style="italic" lengthAdjust="spacing" textLength="89" x="425.5" y="1036.6328">&#171;Component&#187;</text><text fill="#000000" font-family="sans-serif" font-size="14" lengthAdjust="spacing" textLength="232" x="354" y="1055.2539">:ListActuatorFunctionalitiesController</text><rect fill="#E2E2F0" height="51.2422" rx="2.5" ry="2.5" style="stroke:#181818;stroke-width:0.5;" width="229" x="603" y="1014.5254"/><text fill="#000000" font-family="sans-serif" font-size="14" lengthAdjust="spacing" textLength="180" x="627.5" y="1036.6328">actuatorFunctionalityMapper</text><text fill="#000000" font-family="sans-serif" font-size="14" lengthAdjust="spacing" textLength="215" x="610" y="1055.2539">:ActuatorFunctionalityMapperDTO</text><rect fill="#E2E2F0" height="51.2422" rx="2.5" ry="2.5" style="stroke:#181818;stroke-width:0.5;" width="198" x="957.5" y="1014.5254"/><text fill="#000000" font-family="sans-serif" font-size="14" font-style="italic" lengthAdjust="spacing" textLength="89" x="1012" y="1036.6328">&#171;Component&#187;</text><text fill="#000000" font-family="sans-serif" font-size="14" lengthAdjust="spacing" textLength="184" x="964.5" y="1055.2539">:ActuatorFunctionalityService</text><rect fill="#E2E2F0" height="51.2422" rx="2.5" ry="2.5" style="stroke:#181818;stroke-width:0.5;" width="219" x="1173" y="1014.5254"/><text fill="#000000" font-family="sans-serif" font-size="14" font-style="italic" lengthAdjust="spacing" textLength="89" x="1238" y="1036.6328">&#171;Component&#187;</text><text fill="#000000" font-family="sans-serif" font-size="14" lengthAdjust="spacing" textLength="205" x="1180" y="1055.2539">:ActuatorFunctionalityRepository</text><rect fill="#E2E2F0" height="51.2422" rx="2.5" ry="2.5" style="stroke:#181818;stroke-width:0.5;" width="202" x="1402" y="1014.5254"/><text fill="#000000" font-family="sans-serif" font-size="14" lengthAdjust="spacing" textLength="134" x="1436" y="1036.6328">listOfActuatorFunctID</text><text fill="#000000" font-family="sans-serif" font-size="14" lengthAdjust="spacing" textLength="188" x="1409" y="1055.2539">:List&lt;ActuatorFunctionalityID&gt;</text><rect fill="#E2E2F0" height="51.2422" rx="2.5" ry="2.5" style="stroke:#181818;stroke-width:0.5;" width="151" x="1614" y="1014.5254"/><text fill="#000000" font-family="sans-serif" font-size="14" lengthAdjust="spacing" textLength="132" x="1623.5" y="1036.6328">actuatorFunctionality</text><text fill="#000000" font-family="sans-serif" font-size="14" lengthAdjust="spacing" textLength="137" x="1621" y="1055.2539">:ActuatorFunctionality</text><rect fill="#E2E2F0" height="51.2422" rx="2.5" ry="2.5" style="stroke:#181818;stroke-width:0.5;" width="219" x="1775" y="1014.5254"/><text fill="#000000" font-family="sans-serif" font-size="14" lengthAdjust="spacing" textLength="151" x="1809" y="1036.6328">listOfActuatorFunctDTO</text><text fill="#000000" font-family="sans-serif" font-size="14" lengthAdjust="spacing" textLength="205" x="1782" y="1055.2539">:List&lt;ActuatorFunctionalityDTO&gt;</text><rect fill="#E2E2F0" height="51.2422" rx="2.5" ry="2.5" style="stroke:#181818;stroke-width:0.5;" width="181" x="2004" y="1014.5254"/><text fill="#000000" font-family="sans-serif" font-size="14" lengthAdjust="spacing" textLength="162" x="2013.5" y="1036.6328">actuatorFunctionalityDTO</text><text fill="#000000" font-family="sans-serif" font-size="14" lengthAdjust="spacing" textLength="167" x="2011" y="1055.2539">:ActuatorFunctionalityDTO</text><ellipse cx="10.5" cy="206.5684" fill="none" rx="4" ry="4" style="stroke:#181818;stroke-width:1.5;"/><polygon fill="#181818" points="190,203.3184,200,207.3184,190,211.3184,194,207.3184" style="stroke:#181818;stroke-width:1.0;"/><line style="stroke:#181818;stroke-width:1.0;" x1="15" x2="196" y1="207.3184" y2="207.3184"/><text fill="#000000" font-family="sans-serif" font-size="13" font-weight="bold" lengthAdjust="spacing" textLength="7" x="18" y="202.0557">1</text><text fill="#000000" font-family="sans-serif" font-size="13" lengthAdjust="spacing" textLength="167" x="29" y="202.0557">GET api/actuatorfunctionality</text><polygon fill="#181818" points="453,234.6094,463,238.6094,453,242.6094,457,238.6094" style="stroke:#181818;stroke-width:1.0;"/><line style="stroke:#181818;stroke-width:1.0;" x1="212" x2="459" y1="238.6094" y2="238.6094"/><text fill="#000000" font-family="sans-serif" font-size="13" font-weight="bold" lengthAdjust="spacing" textLength="7" x="219" y="233.3467">2</text><text fill="#000000" font-family="sans-serif" font-size="13" lengthAdjust="spacing" textLength="223" x="230" y="233.3467">GET getListOfActuatorFunctionalities()</text><rect fill="#E2E2F0" height="51.2422" rx="2.5" ry="2.5" style="stroke:#181818;stroke-width:0.5;" width="229" x="603" y="246.6094"/><text fill="#000000" font-family="sans-serif" font-size="14" lengthAdjust="spacing" textLength="180" x="627.5" y="268.7168">actuatorFunctionalityMapper</text><text fill="#000000" font-family="sans-serif" font-size="14" lengthAdjust="spacing" textLength="215" x="610" y="287.3379">:ActuatorFunctionalityMapperDTO</text><polygon fill="#181818" points="591,265.9004,601,269.9004,591,273.9004,595,269.9004" style="stroke:#181818;stroke-width:1.0;"/><line style="stroke:#181818;stroke-width:1.0;stroke-dasharray:2.0,2.0;" x1="475" x2="597" y1="269.9004" y2="269.9004"/><text fill="#000000" font-family="sans-serif" font-size="13" font-weight="bold" lengthAdjust="spacing" textLength="7" x="482" y="264.6377">3</text><text fill="#000000" font-family="sans-serif" font-size="13" lengthAdjust="spacing" textLength="50" x="493" y="264.6377">&#171;create&#187;</text><polygon fill="#181818" points="1039.5,318.1426,1049.5,322.1426,1039.5,326.1426,1043.5,322.1426" style="stroke:#181818;stroke-width:1.0;"/><line style="stroke:#181818;stroke-width:1.0;" x1="475" x2="1045.5" y1="322.1426" y2="322.1426"/><text fill="#000000" font-family="sans-serif" font-size="13" font-weight="bold" lengthAdjust="spacing" textLength="7" x="482" y="316.8799">4</text><text fill="#000000" font-family="sans-serif" font-size="13" lengthAdjust="spacing" textLength="193" x="493" y="316.8799">getListOfActuatorFunctionalities()</text><polygon fill="#181818" points="1265.5,349.4336,1275.5,353.4336,1265.5,357.4336,1269.5,353.4336" style="stroke:#181818;stroke-width:1.0;"/><line style="stroke:#181818;stroke-width:1.0;" x1="1061.5" x2="1271.5" y1="353.4336" y2="353.4336"/><text fill="#000000" font-family="sans-serif" font-size="13" font-weight="bold" lengthAdjust="spacing" textLength="7" x="1068.5" y="348.1709">5</text><text fill="#000000" font-family="sans-serif" font-size="13" lengthAdjust="spacing" textLength="87" x="1079.5" y="348.1709">findAllEntities()</text><polygon fill="#181818" points="1072.5,380.7246,1062.5,384.7246,1072.5,388.7246,1068.5,384.7246" style="stroke:#181818;stroke-width:1.0;"/><line style="stroke:#181818;stroke-width:1.0;stroke-dasharray:2.0,2.0;" x1="1066.5" x2="1276.5" y1="384.7246" y2="384.7246"/><text fill="#000000" font-family="sans-serif" font-size="13" font-weight="bold" lengthAdjust="spacing" textLength="7" x="1078.5" y="379.4619">6</text><text fill="#000000" font-family="sans-serif" font-size="13" lengthAdjust="spacing" textLength="181" x="1089.5" y="379.4619">Iterable&lt;ActuatorFunctionality&gt;</text><rect fill="#E2E2F0" height="51.2422" rx="2.5" ry="2.5" style="stroke:#181818;stroke-width:0.5;" width="202" x="1402" y="392.7246"/><text fill="#000000" font-family="sans-serif" font-size="14" lengthAdjust="spacing" textLength="134" x="1436" y="414.832">listOfActuatorFunctID</text><text fill="#000000" font-family="sans-serif" font-size="14" lengthAdjust="spacing" textLength="188" x="1409" y="433.4531">:List&lt;ActuatorFunctionalityID&gt;</text><polygon fill="#181818" points="1390,412.0156,1400,416.0156,1390,420.0156,1394,416.0156" style="stroke:#181818;stroke-width:1.0;"/><line style="stroke:#181818;stroke-width:1.0;" x1="1061.5" x2="1396" y1="416.0156" y2="416.0156"/><text fill="#000000" font-family="sans-serif" font-size="13" font-weight="bold" lengthAdjust="spacing" textLength="7" x="1068.5" y="410.7529">7</text><text fill="#000000" font-family="sans-serif" font-size="13" lengthAdjust="spacing" textLength="50" x="1079.5" y="410.7529">&#171;create&#187;</text><path d="M1040.5,448.9668 L1113.5,448.9668 L1113.5,458.2578 L1103.5,468.2578 L1040.5,468.2578 L1040.5,448.9668 " fill="#EEEEEE" style="stroke:#000000;stroke-width:1.5;"/><rect fill="none" height="123.1641" style="stroke:#000000;stroke-width:1.5;" width="740.5" x="1040.5" y="448.9668"/><text fill="#000000" font-family="sans-serif" font-size="13" font-weight="bold" lengthAdjust="spacing" textLength="28" x="1055.5" y="463.9951">loop</text><text fill="#000000" font-family="sans-serif" font-size="11" font-weight="bold" lengthAdjust="spacing" textLength="233" x="1128.5" y="462.8369">[for each Actuator Functionality in Iterable]</text><polygon fill="#181818" points="1672.5,497.5488,1682.5,501.5488,1672.5,505.5488,1676.5,501.5488" style="stroke:#181818;stroke-width:1.0;"/><line style="stroke:#181818;stroke-width:1.0;" x1="1061.5" x2="1678.5" y1="501.5488" y2="501.5488"/><text fill="#000000" font-family="sans-serif" font-size="13" font-weight="bold" lengthAdjust="spacing" textLength="7" x="1068.5" y="496.2861">8</text><text fill="#000000" font-family="sans-serif" font-size="13" lengthAdjust="spacing" textLength="50" x="1079.5" y="496.2861">identity()</text><polygon fill="#181818" points="1072.5,528.8398,1062.5,532.8398,1072.5,536.8398,1068.5,532.8398" style="stroke:#181818;stroke-width:1.0;"/><line style="stroke:#181818;stroke-width:1.0;stroke-dasharray:2.0,2.0;" x1="1066.5" x2="1683.5" y1="532.8398" y2="532.8398"/><text fill="#000000" font-family="sans-serif" font-size="13" font-weight="bold" lengthAdjust="spacing" textLength="7" x="1078.5" y="527.5771">9</text><text fill="#000000" font-family="sans-serif" font-size="13" lengthAdjust="spacing" textLength="133" x="1089.5" y="527.5771">actuatorFunctionalityID</text><polygon fill="#181818" points="1486,560.1309,1496,564.1309,1486,568.1309,1490,564.1309" style="stroke:#181818;stroke-width:1.0;"/><line style="stroke:#181818;stroke-width:1.0;" x1="1061.5" x2="1492" y1="564.1309" y2="564.1309"/><text fill="#000000" font-family="sans-serif" font-size="13" font-weight="bold" lengthAdjust="spacing" textLength="14" x="1068.5" y="558.8682">10</text><text fill="#000000" font-family="sans-serif" font-size="13" lengthAdjust="spacing" textLength="162" x="1086.5" y="558.8682">add(actuatorFunctionalityID)</text><polygon fill="#181818" points="486,605.4219,476,609.4219,486,613.4219,482,609.4219" style="stroke:#181818;stroke-width:1.0;"/><line style="stroke:#181818;stroke-width:1.0;stroke-dasharray:2.0,2.0;" x1="480" x2="1050.5" y1="609.4219" y2="609.4219"/><text fill="#000000" font-family="sans-serif" font-size="13" font-weight="bold" lengthAdjust="spacing" textLength="14" x="492" y="604.1592">11</text><text fill="#000000" font-family="sans-serif" font-size="13" lengthAdjust="spacing" textLength="124" x="510" y="604.1592">listOfActuatorFunctID</text><polygon fill="#181818" points="700.5,654.0039,710.5,658.0039,700.5,662.0039,704.5,658.0039" style="stroke:#181818;stroke-width:1.0;"/><line style="stroke:#181818;stroke-width:1.0;" x1="475" x2="706.5" y1="658.0039" y2="658.0039"/><text fill="#000000" font-family="sans-serif" font-size="13" font-weight="bold" lengthAdjust="spacing" textLength="14" x="482" y="644.0957">12</text><text fill="#000000" font-family="sans-serif" font-size="13" lengthAdjust="spacing" textLength="182" x="500" y="635.4502">actuatorFunctionalityToDTOList</text><text fill="#000000" font-family="sans-serif" font-size="13" lengthAdjust="spacing" textLength="132" x="500" y="652.7412">(listOfActuatorFunctID)</text><rect fill="#E2E2F0" height="51.2422" rx="2.5" ry="2.5" style="stroke:#181818;stroke-width:0.5;" width="219" x="1775" y="666.0039"/><text fill="#000000" font-family="sans-serif" font-size="14" lengthAdjust="spacing" textLength="151" x="1809" y="688.1113">listOfActuatorFunctDTO</text><text fill="#000000" font-family="sans-serif" font-size="14" lengthAdjust="spacing" textLength="205" x="1782" y="706.7324">:List&lt;ActuatorFunctionalityDTO&gt;</text><polygon fill="#181818" points="1763,685.2949,1773,689.2949,1763,693.2949,1767,689.2949" style="stroke:#181818;stroke-width:1.0;"/><line style="stroke:#181818;stroke-width:1.0;stroke-dasharray:2.0,2.0;" x1="722.5" x2="1769" y1="689.2949" y2="689.2949"/><text fill="#000000" font-family="sans-serif" font-size="13" font-weight="bold" lengthAdjust="spacing" textLength="14" x="729.5" y="684.0322">13</text><text fill="#000000" font-family="sans-serif" font-size="13" lengthAdjust="spacing" textLength="50" x="747.5" y="684.0322">&#171;create&#187;</text><path d="M701.5,722.2461 L774.5,722.2461 L774.5,731.5371 L764.5,741.5371 L701.5,741.5371 L701.5,722.2461 " fill="#EEEEEE" style="stroke:#000000;stroke-width:1.5;"/><rect fill="none" height="157.1152" style="stroke:#000000;stroke-width:1.5;" width="1499.5" x="701.5" y="722.2461"/><text fill="#000000" font-family="sans-serif" font-size="13" font-weight="bold" lengthAdjust="spacing" textLength="28" x="716.5" y="737.2744">loop</text><text fill="#000000" font-family="sans-serif" font-size="11" font-weight="bold" lengthAdjust="spacing" textLength="219" x="789.5" y="736.1162">[for each ActuatorFunctionalityID in List]</text><line style="stroke:#181818;stroke-width:1.0;" x1="722.5" x2="764.5" y1="774.8281" y2="774.8281"/><line style="stroke:#181818;stroke-width:1.0;" x1="764.5" x2="764.5" y1="774.8281" y2="787.8281"/><line style="stroke:#181818;stroke-width:1.0;" x1="723.5" x2="764.5" y1="787.8281" y2="787.8281"/><polygon fill="#181818" points="733.5,783.8281,723.5,787.8281,733.5,791.8281,729.5,787.8281" style="stroke:#181818;stroke-width:1.0;"/><text fill="#000000" font-family="sans-serif" font-size="13" font-weight="bold" lengthAdjust="spacing" textLength="14" x="729.5" y="769.5654">14</text><text fill="#000000" font-family="sans-serif" font-size="13" lengthAdjust="spacing" textLength="302" x="747.5" y="769.5654">actuatorFunctionalityToDTO(actuatorFunctionalityID)</text><rect fill="#E2E2F0" height="51.2422" rx="2.5" ry="2.5" style="stroke:#181818;stroke-width:0.5;" width="181" x="2004" y="795.8281"/><text fill="#000000" font-family="sans-serif" font-size="14" lengthAdjust="spacing" textLength="162" x="2013.5" y="817.9355">actuatorFunctionalityDTO</text><text fill="#000000" font-family="sans-serif" font-size="14" lengthAdjust="spacing" textLength="167" x="2011" y="836.5566">:ActuatorFunctionalityDTO</text><polygon fill="#181818" points="1992,815.1191,2002,819.1191,1992,823.1191,1996,819.1191" style="stroke:#181818;stroke-width:1.0;"/><line style="stroke:#181818;stroke-width:1.0;stroke-dasharray:2.0,2.0;" x1="722.5" x2="1998" y1="819.1191" y2="819.1191"/><text fill="#000000" font-family="sans-serif" font-size="13" font-weight="bold" lengthAdjust="spacing" textLength="14" x="729.5" y="813.8564">15</text><text fill="#000000" font-family="sans-serif" font-size="13" lengthAdjust="spacing" textLength="50" x="747.5" y="813.8564">&#171;create&#187;</text><polygon fill="#181818" points="1867.5,867.3613,1877.5,871.3613,1867.5,875.3613,1871.5,871.3613" style="stroke:#181818;stroke-width:1.0;"/><line style="stroke:#181818;stroke-width:1.0;" x1="722.5" x2="1873.5" y1="871.3613" y2="871.3613"/><text fill="#000000" font-family="sans-serif" font-size="13" font-weight="bold" lengthAdjust="spacing" textLength="14" x="729.5" y="866.0986">16</text><text fill="#000000" font-family="sans-serif" font-size="13" lengthAdjust="spacing" textLength="176" x="747.5" y="866.0986">add(actuatorFunctionalityDTO)</text><polygon fill="#181818" points="486,912.6523,476,916.6523,486,920.6523,482,916.6523" style="stroke:#181818;stroke-width:1.0;"/><line style="stroke:#181818;stroke-width:1.0;stroke-dasharray:2.0,2.0;" x1="480" x2="711.5" y1="916.6523" y2="916.6523"/><text fill="#000000" font-family="sans-serif" font-size="13" font-weight="bold" lengthAdjust="spacing" textLength="14" x="492" y="911.3896">17</text><text fill="#000000" font-family="sans-serif" font-size="13" lengthAdjust="spacing" textLength="138" x="510" y="911.3896">listOfActuatorFunctDTO</text><polygon fill="#181818" points="223,943.9434,213,947.9434,223,951.9434,219,947.9434" style="stroke:#181818;stroke-width:1.0;"/><line style="stroke:#181818;stroke-width:1.0;stroke-dasharray:2.0,2.0;" x1="217" x2="464" y1="947.9434" y2="947.9434"/><text fill="#000000" font-family="sans-serif" font-size="13" font-weight="bold" lengthAdjust="spacing" textLength="14" x="229" y="942.6807">18</text><text fill="#000000" font-family="sans-serif" font-size="13" lengthAdjust="spacing" textLength="183" x="247" y="942.6807">collectionModel, HttpStatus.OK</text><ellipse cx="10.5" cy="995.7754" fill="none" rx="4" ry="4" style="stroke:#181818;stroke-width:1.5;"/><polygon fill="#181818" points="27.5,992.5254,17.5,996.5254,27.5,1000.5254,23.5,996.5254" style="stroke:#181818;stroke-width:1.0;"/><line style="stroke:#181818;stroke-width:1.0;stroke-dasharray:2.0,2.0;" x1="25.5" x2="201" y1="996.5254" y2="996.5254"/><text fill="#000000" font-family="sans-serif" font-size="13" font-weight="bold" lengthAdjust="spacing" textLength="14" x="28" y="982.6172">19</text><text fill="#000000" font-family="sans-serif" font-size="13" lengthAdjust="spacing" textLength="95" x="46" y="973.9717">JSON response,</text><text fill="#000000" font-family="sans-serif" font-size="13" lengthAdjust="spacing" textLength="85" x="46" y="991.2627">HttpStatus.OK</text><!--SRC=[dLPRRzem57xth_3OGxkgC7MF4Oh4Ic3PA958EarhNqnYMgl1ZXod6ltrEmw1fCPEkpq1v_ATSpwV2wHIWbVRDPK8AQPoYWUtrrTVHbTumKg59wcgY18IpogUAYOuoPbYj1mD4FfGIFAm9LXHyOALh2X2Q_473yRZk5h7krBHhU_VS-yhIPyepmRuuvJ8fxcakxqT7e-l1LU4SIfhmvZAPoh1Ri4U7bLjM12fMCeAmXKUU2jHAMr0Ihp_MaDi2y4fLxvlMEi23laRwUkuKkHv0zR-x0Ca5gpT3IaAAY7vYLixJQ8wZ5rbP6t5qSomb9wYD8fU7go8Arg8ae5qTmggTNs8EH0RRLx1XbEWG1C-jaOBftuTHbk4qtVGwYAqHh5gtamHgExD4VHjaYVlGXmkhaIjRwvHOH8mjF_n4vt5mNKIHaiyYrPu5IIhCFWPBkTuifpYu5SIh9QJHVXRInPXdE1eXcUtoze3v4aOnEXE3Frc83my3n9C2lRvaF3c5KaWPSz4qSOSDMC4_kqCx34Ug5gSajYEqFcd5gprHPrH6WAglUKlBZpehrHIS8RcUkNaMnlS-wTyR0Z8EZTcEDtw7jumdatoFE2g7rfRezFH6JgB285iiiwflGDzbD6UGCuAzbDba9eBKU0DR6w0VBJlyHrc_9YI4zsQgeTPHZKzkouvzi6qIdj88lODqYN77gYV7m3EidC7UAU8PaTreZKIFR6QLTT364DatPBE5pvqQSye7CV7GL4YG5TVxNj-RetkwkFs5jd5TMtDMdnNcndiwZxJxiY9_p-bkj-ofmfp7nlbkFDhok_f8j0QRQGPDVgeEG5zARxHH0Qeuo7DHNmu3waMrGut8gFv9VwcL14hegfo5Fte0dUM-fqO3uT7YEyn72j9I_XpKD9BQ3OdH7DapW8uPSsL-mi0]--></g></svg>