<?xml version="1.0" encoding="us-ascii" standalone="no"?><svg xmlns="http://www.w3.org/2000/svg" xmlns:xlink="http://www.w3.org/1999/xlink" contentStyleType="text/css" height="1188px" preserveAspectRatio="none" style="width:1924px;height:1188px;background:#FFFFFF;" version="1.1" viewBox="0 0 1924 1188" width="1924px" zoomAndPan="magnify"><defs/><g><rect fill="#A9A9A9" height="1136.709" style="stroke:#181818;stroke-width:0.5;" width="1795.5" x="122.5" y="45.6211"/><text fill="#000000" font-family="sans-serif" font-size="13" font-weight="bold" lengthAdjust="spacing" textLength="85" x="979.75" y="59.6494">&#171;SubSystem&#187;</text><text fill="#000000" font-family="sans-serif" font-size="13" font-weight="bold" lengthAdjust="spacing" textLength="59" x="991.75" y="76.9404">:Backend</text><rect fill="#D3D3D3" height="1097.127" style="stroke:#181818;stroke-width:0.5;" width="1683.5" x="122.5" y="85.2031"/><text fill="#000000" font-family="sans-serif" font-size="13" font-weight="bold" lengthAdjust="spacing" textLength="76" x="928.25" y="99.2314">&#171;Container&#187;</text><text fill="#000000" font-family="sans-serif" font-size="13" font-weight="bold" lengthAdjust="spacing" textLength="46" x="940.25" y="116.5225">:Server</text><text fill="#000000" font-family="sans-serif" font-size="14" font-weight="bold" lengthAdjust="spacing" textLength="1326" x="301" y="30.1074">US34 - As a Room Owner [or Power User, or Administrator], I want to get the maximum instantaneous temperature difference between a device in the room and the outside, in a given period.</text><line style="stroke:#181818;stroke-width:0.5;stroke-dasharray:5.0,5.0;" x1="178" x2="178" y1="176.0273" y2="1124.0879"/><rect fill="#FFFFFF" height="850.5176" style="stroke:#181818;stroke-width:1.0;" width="10" x="173" y="255.5703"/><line style="stroke:#181818;stroke-width:0.5;stroke-dasharray:5.0,5.0;" x1="627" x2="627" y1="176.0273" y2="1124.0879"/><rect fill="#FFFFFF" height="718.7715" style="stroke:#181818;stroke-width:1.0;" width="10" x="622" y="338.7344"/><line style="stroke:#181818;stroke-width:0.5;stroke-dasharray:5.0,5.0;" x1="797.5" x2="797.5" y1="346.7344" y2="1124.0879"/><line style="stroke:#181818;stroke-width:0.5;stroke-dasharray:5.0,5.0;" x1="983" x2="983" y1="380.3555" y2="1124.0879"/><line style="stroke:#181818;stroke-width:0.5;stroke-dasharray:5.0,5.0;" x1="1195.5" x2="1195.5" y1="176.0273" y2="1124.0879"/><rect fill="#FFFFFF" height="571.6563" style="stroke:#181818;stroke-width:1.0;" width="10" x="1190.5" y="454.5586"/><line style="stroke:#181818;stroke-width:0.5;stroke-dasharray:5.0,5.0;" x1="1564.5" x2="1564.5" y1="176.0273" y2="1124.0879"/><rect fill="#FFFFFF" height="93.873" style="stroke:#181818;stroke-width:1.0;" width="10" x="1559.5" y="485.8496"/><line style="stroke:#181818;stroke-width:0.5;stroke-dasharray:5.0,5.0;" x1="1658.5" x2="1658.5" y1="176.0273" y2="1124.0879"/><rect fill="#FFFFFF" height="31.291" style="stroke:#181818;stroke-width:1.0;" width="10" x="1653.5" y="644.3047"/><rect fill="#FFFFFF" height="93.873" style="stroke:#181818;stroke-width:1.0;" width="10" x="1653.5" y="798.4688"/><line style="stroke:#181818;stroke-width:0.5;stroke-dasharray:5.0,5.0;" x1="1768.5" x2="1768.5" y1="176.0273" y2="1124.0879"/><rect fill="#FFFFFF" height="31.291" style="stroke:#181818;stroke-width:1.0;" width="10" x="1763.5" y="829.7598"/><line style="stroke:#181818;stroke-width:0.5;stroke-dasharray:5.0,5.0;" x1="1868" x2="1868" y1="176.0273" y2="1124.0879"/><rect fill="#E2E2F0" height="51.2422" rx="2.5" ry="2.5" style="stroke:#181818;stroke-width:0.5;" width="103" x="126.5" y="123.7852"/><text fill="#000000" font-family="sans-serif" font-size="14" font-style="italic" lengthAdjust="spacing" textLength="89" x="133.5" y="145.8926">&#171;Component&#187;</text><text fill="#000000" font-family="sans-serif" font-size="14" lengthAdjust="spacing" textLength="47" x="154.5" y="164.5137">:Router</text><rect fill="#E2E2F0" height="51.2422" rx="2.5" ry="2.5" style="stroke:#181818;stroke-width:0.5;" width="145" x="554.5" y="123.7852"/><text fill="#000000" font-family="sans-serif" font-size="14" font-style="italic" lengthAdjust="spacing" textLength="89" x="582.5" y="145.8926">&#171;Component&#187;</text><text fill="#000000" font-family="sans-serif" font-size="14" lengthAdjust="spacing" textLength="131" x="561.5" y="164.5137">HouseControllerWeb</text><rect fill="#E2E2F0" height="51.2422" rx="2.5" ry="2.5" style="stroke:#181818;stroke-width:0.5;" width="225" x="1083" y="123.7852"/><text fill="#000000" font-family="sans-serif" font-size="14" font-style="italic" lengthAdjust="spacing" textLength="89" x="1151" y="145.8926">&#171;Component&#187;</text><text fill="#000000" font-family="sans-serif" font-size="14" lengthAdjust="spacing" textLength="211" x="1090" y="164.5137">MaxTempDifOutsideInsideService</text><rect fill="#E2E2F0" height="51.2422" rx="2.5" ry="2.5" style="stroke:#181818;stroke-width:0.5;" width="118" x="1505.5" y="123.7852"/><text fill="#000000" font-family="sans-serif" font-size="14" font-style="italic" lengthAdjust="spacing" textLength="89" x="1520" y="145.8926">&#171;Component&#187;</text><text fill="#000000" font-family="sans-serif" font-size="14" lengthAdjust="spacing" textLength="104" x="1512.5" y="164.5137">ValueRepository</text><rect fill="#E2E2F0" height="32.6211" rx="2.5" ry="2.5" style="stroke:#181818;stroke-width:0.5;" width="50" x="1633.5" y="142.4063"/><text fill="#000000" font-family="sans-serif" font-size="14" lengthAdjust="spacing" textLength="36" x="1640.5" y="164.5137">Value</text><rect fill="#E2E2F0" height="32.6211" rx="2.5" ry="2.5" style="stroke:#181818;stroke-width:0.5;" width="67" x="1735" y="142.4063"/><text fill="#000000" font-family="sans-serif" font-size="14" lengthAdjust="spacing" textLength="53" x="1742" y="164.5137">Reading</text><rect fill="#E2E2F0" height="51.2422" rx="2.5" ry="2.5" style="stroke:#181818;stroke-width:0.5;" width="92" x="1822" y="123.7852"/><text fill="#000000" font-family="sans-serif" font-size="14" lengthAdjust="spacing" textLength="78" x="1829" y="145.8926">&#171;Container&#187;</text><text fill="#000000" font-family="sans-serif" font-size="14" lengthAdjust="spacing" textLength="65" x="1839.5" y="164.5137">:Database</text><rect fill="#E2E2F0" height="51.2422" rx="2.5" ry="2.5" style="stroke:#181818;stroke-width:0.5;" width="103" x="126.5" y="1124.0879"/><text fill="#000000" font-family="sans-serif" font-size="14" font-style="italic" lengthAdjust="spacing" textLength="89" x="133.5" y="1146.1953">&#171;Component&#187;</text><text fill="#000000" font-family="sans-serif" font-size="14" lengthAdjust="spacing" textLength="47" x="154.5" y="1164.8164">:Router</text><rect fill="#E2E2F0" height="51.2422" rx="2.5" ry="2.5" style="stroke:#181818;stroke-width:0.5;" width="145" x="554.5" y="1124.0879"/><text fill="#000000" font-family="sans-serif" font-size="14" font-style="italic" lengthAdjust="spacing" textLength="89" x="582.5" y="1146.1953">&#171;Component&#187;</text><text fill="#000000" font-family="sans-serif" font-size="14" lengthAdjust="spacing" textLength="131" x="561.5" y="1164.8164">HouseControllerWeb</text><rect fill="#E2E2F0" height="32.6211" rx="2.5" ry="2.5" style="stroke:#181818;stroke-width:0.5;" width="171" x="712" y="1124.0879"/><text fill="#000000" font-family="sans-serif" font-size="14" lengthAdjust="spacing" textLength="157" x="719" y="1146.1953">insideSensorID:SensorID</text><rect fill="#E2E2F0" height="32.6211" rx="2.5" ry="2.5" style="stroke:#181818;stroke-width:0.5;" width="180" x="893" y="1124.0879"/><text fill="#000000" font-family="sans-serif" font-size="14" lengthAdjust="spacing" textLength="166" x="900" y="1146.1953">outsideSensorID:SensorID</text><rect fill="#E2E2F0" height="51.2422" rx="2.5" ry="2.5" style="stroke:#181818;stroke-width:0.5;" width="225" x="1083" y="1124.0879"/><text fill="#000000" font-family="sans-serif" font-size="14" font-style="italic" lengthAdjust="spacing" textLength="89" x="1151" y="1146.1953">&#171;Component&#187;</text><text fill="#000000" font-family="sans-serif" font-size="14" lengthAdjust="spacing" textLength="211" x="1090" y="1164.8164">MaxTempDifOutsideInsideService</text><rect fill="#E2E2F0" height="51.2422" rx="2.5" ry="2.5" style="stroke:#181818;stroke-width:0.5;" width="118" x="1505.5" y="1124.0879"/><text fill="#000000" font-family="sans-serif" font-size="14" font-style="italic" lengthAdjust="spacing" textLength="89" x="1520" y="1146.1953">&#171;Component&#187;</text><text fill="#000000" font-family="sans-serif" font-size="14" lengthAdjust="spacing" textLength="104" x="1512.5" y="1164.8164">ValueRepository</text><rect fill="#E2E2F0" height="32.6211" rx="2.5" ry="2.5" style="stroke:#181818;stroke-width:0.5;" width="50" x="1633.5" y="1124.0879"/><text fill="#000000" font-family="sans-serif" font-size="14" lengthAdjust="spacing" textLength="36" x="1640.5" y="1146.1953">Value</text><rect fill="#E2E2F0" height="32.6211" rx="2.5" ry="2.5" style="stroke:#181818;stroke-width:0.5;" width="67" x="1735" y="1124.0879"/><text fill="#000000" font-family="sans-serif" font-size="14" lengthAdjust="spacing" textLength="53" x="1742" y="1146.1953">Reading</text><rect fill="#E2E2F0" height="51.2422" rx="2.5" ry="2.5" style="stroke:#181818;stroke-width:0.5;" width="92" x="1822" y="1124.0879"/><text fill="#000000" font-family="sans-serif" font-size="14" lengthAdjust="spacing" textLength="78" x="1829" y="1146.1953">&#171;Container&#187;</text><text fill="#000000" font-family="sans-serif" font-size="14" lengthAdjust="spacing" textLength="65" x="1839.5" y="1164.8164">:Database</text><rect fill="none" height="43.252" style="stroke:#000000;stroke-width:1.5;" width="584" x="556.5" y="184.0273"/><path d="M556.5,184.0273 L618.5,184.0273 L618.5,193.0273 L608.5,203.0273 L556.5,203.0273 L556.5,184.0273 " fill="#EEEEEE" style="stroke:#000000;stroke-width:2.0;"/><text fill="#000000" font-family="sans-serif" font-size="13" font-weight="bold" lengthAdjust="spacing" textLength="17" x="569.5" y="200.0557">ref</text><a href="docs/DocumentationOfSystem/UC34_2-ListTemperatureSensorsInDevice/UC34.2SequenceDiagram.svg" target="_top" title="docs/DocumentationOfSystem/UC34_2-ListTemperatureSensorsInDevice/UC34.2SequenceDiagram.svg" xlink:actuate="onRequest" xlink:href="docs/DocumentationOfSystem/UC34_2-ListTemperatureSensorsInDevice/UC34.2SequenceDiagram.svg" xlink:show="new" xlink:title="docs/DocumentationOfSystem/UC34_2-ListTemperatureSensorsInDevice/UC34.2SequenceDiagram.svg" xlink:type="simple"><text fill="#0000FF" font-family="sans-serif" font-size="12" lengthAdjust="spacing" text-decoration="underline" textLength="576" x="560.5" y="219.9766">docs/DocumentationOfSystem/UC34_2-ListTemperatureSensorsInDevice/UC34.2SequenceDiagram.svg</text></a><ellipse cx="10.5" cy="254.8203" fill="none" rx="4" ry="4" style="stroke:#181818;stroke-width:1.5;"/><polygon fill="#181818" points="161,251.5703,171,255.5703,161,259.5703,165,255.5703" style="stroke:#181818;stroke-width:1.0;"/><line style="stroke:#181818;stroke-width:1.0;" x1="15" x2="167" y1="255.5703" y2="255.5703"/><text fill="#000000" font-family="sans-serif" font-size="13" font-weight="bold" lengthAdjust="spacing" textLength="7" x="18" y="250.3076">1</text><text fill="#000000" font-family="sans-serif" font-size="13" lengthAdjust="spacing" textLength="138" x="29" y="250.3076">GET /houses/{id}/rooms</text><polygon fill="#181818" points="610,334.7344,620,338.7344,610,342.7344,614,338.7344" style="stroke:#181818;stroke-width:1.0;"/><line style="stroke:#181818;stroke-width:1.0;" x1="183" x2="616" y1="338.7344" y2="338.7344"/><text fill="#000000" font-family="sans-serif" font-size="13" font-weight="bold" lengthAdjust="spacing" textLength="7" x="190" y="307.5352">2</text><text fill="#000000" font-family="sans-serif" font-size="13" lengthAdjust="spacing" textLength="409" x="201" y="281.5986">maxTempDifOutsideInside(@PathVariable String insideSensorIDString,</text><text fill="#000000" font-family="sans-serif" font-size="13" lengthAdjust="spacing" textLength="262" x="201" y="298.8896">@PathVariable String outsideSensorIDString,</text><text fill="#000000" font-family="sans-serif" font-size="13" lengthAdjust="spacing" textLength="254" x="201" y="316.1807">@RequestParam LocalDateTime givenStart,</text><text fill="#000000" font-family="sans-serif" font-size="13" lengthAdjust="spacing" textLength="249" x="201" y="333.4717">@RequestParam LocalDateTime givenEnd)</text><rect fill="#E2E2F0" height="32.6211" rx="2.5" ry="2.5" style="stroke:#181818;stroke-width:0.5;" width="171" x="712" y="346.7344"/><text fill="#000000" font-family="sans-serif" font-size="14" lengthAdjust="spacing" textLength="157" x="719" y="368.8418">insideSensorID:SensorID</text><polygon fill="#181818" points="700,366.0254,710,370.0254,700,374.0254,704,370.0254" style="stroke:#181818;stroke-width:1.0;"/><line style="stroke:#181818;stroke-width:1.0;stroke-dasharray:2.0,2.0;" x1="632" x2="706" y1="370.0254" y2="370.0254"/><text fill="#000000" font-family="sans-serif" font-size="13" font-weight="bold" lengthAdjust="spacing" textLength="7" x="639" y="364.7627">3</text><text fill="#000000" font-family="sans-serif" font-size="13" lengthAdjust="spacing" textLength="50" x="650" y="364.7627">&#171;create&#187;</text><rect fill="#E2E2F0" height="32.6211" rx="2.5" ry="2.5" style="stroke:#181818;stroke-width:0.5;" width="180" x="893" y="380.3555"/><text fill="#000000" font-family="sans-serif" font-size="14" lengthAdjust="spacing" textLength="166" x="900" y="402.4629">outsideSensorID:SensorID</text><polygon fill="#181818" points="881,399.6465,891,403.6465,881,407.6465,885,403.6465" style="stroke:#181818;stroke-width:1.0;"/><line style="stroke:#181818;stroke-width:1.0;stroke-dasharray:2.0,2.0;" x1="632" x2="887" y1="403.6465" y2="403.6465"/><text fill="#000000" font-family="sans-serif" font-size="13" font-weight="bold" lengthAdjust="spacing" textLength="7" x="639" y="398.3838">4</text><text fill="#000000" font-family="sans-serif" font-size="13" lengthAdjust="spacing" textLength="50" x="650" y="398.3838">&#171;create&#187;</text><polygon fill="#181818" points="1178.5,450.5586,1188.5,454.5586,1178.5,458.5586,1182.5,454.5586" style="stroke:#181818;stroke-width:1.0;"/><line style="stroke:#181818;stroke-width:1.0;" x1="632" x2="1184.5" y1="454.5586" y2="454.5586"/><text fill="#000000" font-family="sans-serif" font-size="13" font-weight="bold" lengthAdjust="spacing" textLength="7" x="639" y="440.6504">5</text><text fill="#000000" font-family="sans-serif" font-size="13" lengthAdjust="spacing" textLength="370" x="650" y="432.0049">getMaxTemperatureDifference(insideSensorID, outsideSensorID,</text><text fill="#000000" font-family="sans-serif" font-size="13" lengthAdjust="spacing" textLength="259" x="650" y="449.2959">Timestamp startTime, Timestamp  endTime);</text><polygon fill="#181818" points="1547.5,481.8496,1557.5,485.8496,1547.5,489.8496,1551.5,485.8496" style="stroke:#181818;stroke-width:1.0;"/><line style="stroke:#181818;stroke-width:1.0;" x1="1200.5" x2="1553.5" y1="485.8496" y2="485.8496"/><text fill="#000000" font-family="sans-serif" font-size="13" font-weight="bold" lengthAdjust="spacing" textLength="7" x="1207.5" y="480.5869">6</text><text fill="#000000" font-family="sans-serif" font-size="13" lengthAdjust="spacing" textLength="182" x="1218.5" y="480.5869">findBySensorId(insideSensorID)</text><polygon fill="#181818" points="1211.5,513.1406,1201.5,517.1406,1211.5,521.1406,1207.5,517.1406" style="stroke:#181818;stroke-width:1.0;"/><line style="stroke:#181818;stroke-width:1.0;stroke-dasharray:2.0,2.0;" x1="1205.5" x2="1558.5" y1="517.1406" y2="517.1406"/><text fill="#000000" font-family="sans-serif" font-size="13" font-weight="bold" lengthAdjust="spacing" textLength="7" x="1217.5" y="511.8779">7</text><text fill="#000000" font-family="sans-serif" font-size="13" lengthAdjust="spacing" textLength="148" x="1228.5" y="511.8779">insideValues:List&lt;Value&gt;</text><polygon fill="#181818" points="1547.5,544.4316,1557.5,548.4316,1547.5,552.4316,1551.5,548.4316" style="stroke:#181818;stroke-width:1.0;"/><line style="stroke:#181818;stroke-width:1.0;" x1="1200.5" x2="1553.5" y1="548.4316" y2="548.4316"/><text fill="#000000" font-family="sans-serif" font-size="13" font-weight="bold" lengthAdjust="spacing" textLength="7" x="1207.5" y="543.1689">8</text><text fill="#000000" font-family="sans-serif" font-size="13" lengthAdjust="spacing" textLength="190" x="1218.5" y="543.1689">findBySensorId(outsideSensorID)</text><polygon fill="#181818" points="1211.5,575.7227,1201.5,579.7227,1211.5,583.7227,1207.5,579.7227" style="stroke:#181818;stroke-width:1.0;"/><line style="stroke:#181818;stroke-width:1.0;stroke-dasharray:2.0,2.0;" x1="1205.5" x2="1558.5" y1="579.7227" y2="579.7227"/><text fill="#000000" font-family="sans-serif" font-size="13" font-weight="bold" lengthAdjust="spacing" textLength="7" x="1217.5" y="574.46">9</text><text fill="#000000" font-family="sans-serif" font-size="13" lengthAdjust="spacing" textLength="156" x="1228.5" y="574.46">outsideValues:List&lt;Value&gt;</text><path d="M1160.5,591.7227 L1233.5,591.7227 L1233.5,601.0137 L1223.5,611.0137 L1160.5,611.0137 L1160.5,591.7227 " fill="#EEEEEE" style="stroke:#000000;stroke-width:1.5;"/><rect fill="none" height="352.9102" style="stroke:#000000;stroke-width:1.5;" width="657.5" x="1160.5" y="591.7227"/><text fill="#000000" font-family="sans-serif" font-size="13" font-weight="bold" lengthAdjust="spacing" textLength="28" x="1175.5" y="606.751">loop</text><text fill="#000000" font-family="sans-serif" font-size="11" font-weight="bold" lengthAdjust="spacing" textLength="124" x="1248.5" y="605.5928">[for each Value in List]</text><polygon fill="#181818" points="1641.5,640.3047,1651.5,644.3047,1641.5,648.3047,1645.5,644.3047" style="stroke:#181818;stroke-width:1.0;"/><line style="stroke:#181818;stroke-width:1.0;" x1="1200.5" x2="1647.5" y1="644.3047" y2="644.3047"/><text fill="#000000" font-family="sans-serif" font-size="13" font-weight="bold" lengthAdjust="spacing" textLength="14" x="1207.5" y="639.042">10</text><text fill="#000000" font-family="sans-serif" font-size="13" lengthAdjust="spacing" textLength="198" x="1225.5" y="639.042">getInstantTimeReading().getTime()</text><polygon fill="#181818" points="1211.5,671.5957,1201.5,675.5957,1211.5,679.5957,1207.5,675.5957" style="stroke:#181818;stroke-width:1.0;"/><line style="stroke:#181818;stroke-width:1.0;stroke-dasharray:2.0,2.0;" x1="1205.5" x2="1652.5" y1="675.5957" y2="675.5957"/><text fill="#000000" font-family="sans-serif" font-size="13" font-weight="bold" lengthAdjust="spacing" textLength="14" x="1217.5" y="670.333">11</text><text fill="#000000" font-family="sans-serif" font-size="13" lengthAdjust="spacing" textLength="98" x="1235.5" y="670.333">insideTimestamp</text><path d="M1179.5,687.5957 L1240.5,687.5957 L1240.5,696.8867 L1230.5,706.8867 L1179.5,706.8867 L1179.5,687.5957 " fill="#EEEEEE" style="stroke:#000000;stroke-width:1.5;"/><rect fill="none" height="73.582" style="stroke:#000000;stroke-width:1.5;" width="371" x="1179.5" y="687.5957"/><text fill="#000000" font-family="sans-serif" font-size="13" font-weight="bold" lengthAdjust="spacing" textLength="16" x="1194.5" y="702.624">alt</text><text fill="#000000" font-family="sans-serif" font-size="11" font-weight="bold" lengthAdjust="spacing" textLength="279" x="1255.5" y="701.4658">[if the insideTimestamp is within the given period]</text><line style="stroke:#181818;stroke-width:1.0;" x1="1200.5" x2="1242.5" y1="740.1777" y2="740.1777"/><line style="stroke:#181818;stroke-width:1.0;" x1="1242.5" x2="1242.5" y1="740.1777" y2="753.1777"/><line style="stroke:#181818;stroke-width:1.0;" x1="1201.5" x2="1242.5" y1="753.1777" y2="753.1777"/><polygon fill="#181818" points="1211.5,749.1777,1201.5,753.1777,1211.5,757.1777,1207.5,753.1777" style="stroke:#181818;stroke-width:1.0;"/><text fill="#000000" font-family="sans-serif" font-size="13" font-weight="bold" lengthAdjust="spacing" textLength="14" x="1207.5" y="734.915">12</text><text fill="#000000" font-family="sans-serif" font-size="13" lengthAdjust="spacing" textLength="49" x="1225.5" y="734.915">continue</text><polygon fill="#181818" points="1641.5,794.4688,1651.5,798.4688,1641.5,802.4688,1645.5,798.4688" style="stroke:#181818;stroke-width:1.0;"/><line style="stroke:#181818;stroke-width:1.0;" x1="1200.5" x2="1647.5" y1="798.4688" y2="798.4688"/><text fill="#000000" font-family="sans-serif" font-size="13" font-weight="bold" lengthAdjust="spacing" textLength="14" x="1207.5" y="793.2061">13</text><text fill="#000000" font-family="sans-serif" font-size="13" lengthAdjust="spacing" textLength="73" x="1225.5" y="793.2061">getReading()</text><polygon fill="#181818" points="1751.5,825.7598,1761.5,829.7598,1751.5,833.7598,1755.5,829.7598" style="stroke:#181818;stroke-width:1.0;"/><line style="stroke:#181818;stroke-width:1.0;" x1="1663.5" x2="1757.5" y1="829.7598" y2="829.7598"/><text fill="#000000" font-family="sans-serif" font-size="13" font-weight="bold" lengthAdjust="spacing" textLength="14" x="1670.5" y="824.4971">14</text><text fill="#000000" font-family="sans-serif" font-size="13" lengthAdjust="spacing" textLength="63" x="1688.5" y="824.4971">getValue();</text><polygon fill="#181818" points="1674.5,857.0508,1664.5,861.0508,1674.5,865.0508,1670.5,861.0508" style="stroke:#181818;stroke-width:1.0;"/><line style="stroke:#181818;stroke-width:1.0;stroke-dasharray:2.0,2.0;" x1="1668.5" x2="1762.5" y1="861.0508" y2="861.0508"/><text fill="#000000" font-family="sans-serif" font-size="13" font-weight="bold" lengthAdjust="spacing" textLength="14" x="1680.5" y="855.7881">15</text><text fill="#000000" font-family="sans-serif" font-size="13" lengthAdjust="spacing" textLength="29" x="1698.5" y="855.7881">value</text><polygon fill="#181818" points="1211.5,888.3418,1201.5,892.3418,1211.5,896.3418,1207.5,892.3418" style="stroke:#181818;stroke-width:1.0;"/><line style="stroke:#181818;stroke-width:1.0;stroke-dasharray:2.0,2.0;" x1="1205.5" x2="1652.5" y1="892.3418" y2="892.3418"/><text fill="#000000" font-family="sans-serif" font-size="13" font-weight="bold" lengthAdjust="spacing" textLength="14" x="1217.5" y="887.0791">16</text><text fill="#000000" font-family="sans-serif" font-size="13" lengthAdjust="spacing" textLength="42" x="1235.5" y="887.0791">reading</text><line style="stroke:#181818;stroke-width:1.0;" x1="1200.5" x2="1242.5" y1="923.6328" y2="923.6328"/><line style="stroke:#181818;stroke-width:1.0;" x1="1242.5" x2="1242.5" y1="923.6328" y2="936.6328"/><line style="stroke:#181818;stroke-width:1.0;" x1="1201.5" x2="1242.5" y1="936.6328" y2="936.6328"/><polygon fill="#181818" points="1211.5,932.6328,1201.5,936.6328,1211.5,940.6328,1207.5,936.6328" style="stroke:#181818;stroke-width:1.0;"/><text fill="#000000" font-family="sans-serif" font-size="13" font-weight="bold" lengthAdjust="spacing" textLength="14" x="1207.5" y="918.3701">17</text><text fill="#000000" font-family="sans-serif" font-size="13" lengthAdjust="spacing" textLength="332" x="1225.5" y="918.3701">findClosestTemperature(outsideValues, insideTimestamp)</text><line style="stroke:#181818;stroke-width:1.0;" x1="1200.5" x2="1242.5" y1="981.9238" y2="981.9238"/><line style="stroke:#181818;stroke-width:1.0;" x1="1242.5" x2="1242.5" y1="981.9238" y2="994.9238"/><line style="stroke:#181818;stroke-width:1.0;" x1="1201.5" x2="1242.5" y1="994.9238" y2="994.9238"/><polygon fill="#181818" points="1211.5,990.9238,1201.5,994.9238,1211.5,998.9238,1207.5,994.9238" style="stroke:#181818;stroke-width:1.0;"/><text fill="#000000" font-family="sans-serif" font-size="13" font-weight="bold" lengthAdjust="spacing" textLength="14" x="1207.5" y="976.6611">18</text><text fill="#000000" font-family="sans-serif" font-size="13" lengthAdjust="spacing" textLength="82" x="1225.5" y="976.6611">maxDifference</text><polygon fill="#181818" points="643,1022.2148,633,1026.2148,643,1030.2148,639,1026.2148" style="stroke:#181818;stroke-width:1.0;"/><line style="stroke:#181818;stroke-width:1.0;stroke-dasharray:2.0,2.0;" x1="637" x2="1189.5" y1="1026.2148" y2="1026.2148"/><text fill="#000000" font-family="sans-serif" font-size="13" font-weight="bold" lengthAdjust="spacing" textLength="14" x="649" y="1020.9521">19</text><text fill="#000000" font-family="sans-serif" font-size="13" lengthAdjust="spacing" textLength="124" x="667" y="1020.9521">double maxDifference</text><polygon fill="#181818" points="194,1053.5059,184,1057.5059,194,1061.5059,190,1057.5059" style="stroke:#181818;stroke-width:1.0;"/><line style="stroke:#181818;stroke-width:1.0;stroke-dasharray:2.0,2.0;" x1="188" x2="621" y1="1057.5059" y2="1057.5059"/><text fill="#000000" font-family="sans-serif" font-size="13" font-weight="bold" lengthAdjust="spacing" textLength="14" x="200" y="1052.2432">20</text><text fill="#000000" font-family="sans-serif" font-size="13" lengthAdjust="spacing" textLength="175" x="218" y="1052.2432">maxDifference, HttpStatus.OK</text><ellipse cx="10.5" cy="1105.3379" fill="none" rx="4" ry="4" style="stroke:#181818;stroke-width:1.5;"/><polygon fill="#181818" points="27.5,1102.0879,17.5,1106.0879,27.5,1110.0879,23.5,1106.0879" style="stroke:#181818;stroke-width:1.0;"/><line style="stroke:#181818;stroke-width:1.0;stroke-dasharray:2.0,2.0;" x1="25.5" x2="172" y1="1106.0879" y2="1106.0879"/><text fill="#000000" font-family="sans-serif" font-size="13" font-weight="bold" lengthAdjust="spacing" textLength="14" x="28" y="1092.1797">21</text><text fill="#000000" font-family="sans-serif" font-size="13" lengthAdjust="spacing" textLength="95" x="46" y="1083.5342">JSON response,</text><text fill="#000000" font-family="sans-serif" font-size="13" lengthAdjust="spacing" textLength="85" x="46" y="1100.8252">HttpStatus.OK</text><!--SRC=[ZLPBRziu4BxhLqopXxKBFz2q9srWR1iNhTliEh2Izf042reQsqGbKYKfEsdH_zuXHUkrIjfSGWtdc-StG_-vCoRNuNIQfqoO8aidiSoc6hyMA68S9vnj5Si2mqsAS1szV0LZUAs1mKhA39O7WGfkf89BUQ3JjKOr0lfydMHSS6qKCrBTZM011p8FHi8MwTyE8MFtF2iou48Rkc82PQ71O9OZWGg5aF3D1fKD0zPe3eY2t2QuvoJWmXbHDWWc4lSX2wDvWYDxoM3BzmGWOrmcao08dkMARJD67kGtCAh0O2tluGJEpg9Y7JreyZoRtGgWl_0DYxyWMJs1F-PCVNcdyA7IFfSKBAUqA-q8rHuLwLxmxSuuPLOOAOfiZIh8cJ8yvhbD_oHSKP1MbsaeZyvYbak1mincRUttL16q_fHCKrIVSUs0SILv2anrfM94ABHKYtbuF3WBsd-yQ4Dy0P_6dBOn_x3xA-hPd6-M9NhX_IhR9uzqvqwmRJEVM5hW2dEfEH7cmU7sHzbJQJfWhTw-N25BkDYwQrMU0zjNwcLRyNzj3UVCi3NJU5810eKRaDJfHWE2cvj4ndewbt6HKNJCS2cMcv9Eq-lpbw_-EnrVq1nSrRmkgweNOkwexBGcfv6Vk7avS1EztzxTET_abkXx8ySpJvaGthszWkdEiaDFl_FanzJEWGvORFYU6VHwWMSO0Uk8GpjuVHqR_7t9pEuJKvojQTGZewXQq6PHAHpTYbxT3drgvPNDJPjBHed1XOnPIjN5AvvXEQMHeLxyZk9RaGphB1jjQ8p4cDAj-FtyUKZaYQdt1eavZwYTFg4sEz8tj9lBizrtSbujg46xJgDkBIWvcmLjkYm7RTErdoEeXK2jjb_3l-e4lUVWE40KJ3KJ8MouIDuyU0z99u96cIf8K0_Kk9bNYNI3f4DBrZDtdlsUtqwcmyUyUBqUDmdsn1gaKkQmeQU4RdVWLErYjy30hjrkSAu_Y_8niONqipyOJaXk1OEXmxLzEP4xzTMaQezJwyPPcaiDy8rxVpeOu1eEtEpyKzLyZxe9L6ujyxZmfeaHZsTQfVUBf6R7nUTGhem3ubWBT5oDLkZFhXhUMsspKO4cfgT-pUlUklLbRvbrdahQQirzEMWnPzGjyz0koQ3F72swUa9hZSuwJ6HXTrXRkH7oSGYxo-EuYrl04RoddrEqpqoX9ykFJJkDRKNB_6myhYnyY9R_Ki4qFN2QBDoAHstulVuJ]--></g></svg>