<?xml version="1.0" encoding="us-ascii" standalone="no"?><svg xmlns="http://www.w3.org/2000/svg" xmlns:xlink="http://www.w3.org/1999/xlink" contentStyleType="text/css" height="1366px" preserveAspectRatio="none" style="width:2653px;height:1366px;background:#FFFFFF;" version="1.1" viewBox="0 0 2653 1366" width="2653px" zoomAndPan="magnify"><defs/><g><rect fill="#A9A9A9" height="1315.0566" style="stroke:#181818;stroke-width:0.5;" width="2395" x="150.5" y="45.6211"/><text fill="#000000" font-family="sans-serif" font-size="13" font-weight="bold" lengthAdjust="spacing" textLength="85" x="1307.5" y="59.6494">&#171;SubSystem&#187;</text><text fill="#000000" font-family="sans-serif" font-size="13" font-weight="bold" lengthAdjust="spacing" textLength="59" x="1319.5" y="76.9404">:Backend</text><rect fill="#D3D3D3" height="1275.4746" style="stroke:#181818;stroke-width:0.5;" width="2395" x="150.5" y="85.2031"/><text fill="#000000" font-family="sans-serif" font-size="13" font-weight="bold" lengthAdjust="spacing" textLength="76" x="1312" y="99.2314">&#171;Container&#187;</text><text fill="#000000" font-family="sans-serif" font-size="13" font-weight="bold" lengthAdjust="spacing" textLength="46" x="1324" y="116.5225">:Server</text><text fill="#000000" font-family="sans-serif" font-size="14" font-weight="bold" lengthAdjust="spacing" textLength="311" x="1170.5" y="30.1074">UC34.2 - List temperature sensors in device.</text><line style="stroke:#181818;stroke-width:0.5;stroke-dasharray:5.0,5.0;" x1="206" x2="206" y1="176.0273" y2="1302.4355"/><rect fill="#FFFFFF" height="1028.8652" style="stroke:#181818;stroke-width:1.0;" width="10" x="201" y="255.5703"/><line style="stroke:#181818;stroke-width:0.5;stroke-dasharray:5.0,5.0;" x1="613" x2="613" y1="176.0273" y2="1302.4355"/><rect fill="#FFFFFF" height="931.7012" style="stroke:#181818;stroke-width:1.0;" width="10" x="608" y="304.1523"/><line style="stroke:#181818;stroke-width:0.5;stroke-dasharray:5.0,5.0;" x1="763" x2="763" y1="312.1523" y2="1302.4355"/><line style="stroke:#181818;stroke-width:0.5;stroke-dasharray:5.0,5.0;" x1="915" x2="915" y1="345.7734" y2="1302.4355"/><line style="stroke:#181818;stroke-width:0.5;stroke-dasharray:5.0,5.0;" x1="1058" x2="1058" y1="176.0273" y2="1302.4355"/><rect fill="#FFFFFF" height="863.8379" style="stroke:#181818;stroke-width:1.0;" width="10" x="1053" y="438.5977"/><line style="stroke:#181818;stroke-width:0.5;stroke-dasharray:5.0,5.0;" x1="1322" x2="1322" y1="176.0273" y2="1302.4355"/><rect fill="#FFFFFF" height="219.0371" style="stroke:#181818;stroke-width:1.0;" width="10" x="1317" y="487.1797"/><line style="stroke:#181818;stroke-width:0.5;stroke-dasharray:5.0,5.0;" x1="1663" x2="1663" y1="176.0273" y2="1302.4355"/><rect fill="#FFFFFF" height="31.291" style="stroke:#181818;stroke-width:1.0;" width="10" x="1658" y="643.6348"/><line style="stroke:#181818;stroke-width:0.5;stroke-dasharray:5.0,5.0;" x1="1819.5" x2="1819.5" y1="714.2168" y2="1302.4355"/><rect fill="#FFFFFF" height="31.291" style="stroke:#181818;stroke-width:1.0;" width="10" x="1814.5" y="885.623"/><line style="stroke:#181818;stroke-width:0.5;stroke-dasharray:5.0,5.0;" x1="1939.5" x2="1939.5" y1="176.0273" y2="1302.4355"/><rect fill="#FFFFFF" height="31.291" style="stroke:#181818;stroke-width:1.0;" width="10" x="1934.5" y="823.041"/><line style="stroke:#181818;stroke-width:0.5;stroke-dasharray:5.0,5.0;" x1="2073" x2="2073" y1="970.2051" y2="1302.4355"/><rect fill="#FFFFFF" height="224.0664" style="stroke:#181818;stroke-width:1.0;" width="10" x="2068" y="993.4961"/><line style="stroke:#181818;stroke-width:0.5;stroke-dasharray:5.0,5.0;" x1="2260" x2="2260" y1="1003.8262" y2="1302.4355"/><rect fill="#FFFFFF" height="13" style="stroke:#181818;stroke-width:1.0;" width="10" x="2255" y="1190.5625"/><line style="stroke:#181818;stroke-width:0.5;stroke-dasharray:5.0,5.0;" x1="2382" x2="2382" y1="1133.6504" y2="1302.4355"/><line style="stroke:#181818;stroke-width:0.5;stroke-dasharray:5.0,5.0;" x1="2490" x2="2490" y1="176.0273" y2="1302.4355"/><rect fill="#FFFFFF" height="93.873" style="stroke:#181818;stroke-width:1.0;" width="10" x="2485" y="518.4707"/><rect fill="#E2E2F0" height="51.2422" rx="2.5" ry="2.5" style="stroke:#181818;stroke-width:0.5;" width="103" x="154.5" y="123.7852"/><text fill="#000000" font-family="sans-serif" font-size="14" font-style="italic" lengthAdjust="spacing" textLength="89" x="161.5" y="145.8926">&#171;Component&#187;</text><text fill="#000000" font-family="sans-serif" font-size="14" lengthAdjust="spacing" textLength="47" x="182.5" y="164.5137">:Router</text><rect fill="#E2E2F0" height="51.2422" rx="2.5" ry="2.5" style="stroke:#181818;stroke-width:0.5;" width="152" x="537" y="123.7852"/><text fill="#000000" font-family="sans-serif" font-size="14" font-style="italic" lengthAdjust="spacing" textLength="89" x="568.5" y="145.8926">&#171;Component&#187;</text><text fill="#000000" font-family="sans-serif" font-size="14" lengthAdjust="spacing" textLength="138" x="544" y="164.5137">:DeviceControllerWeb</text><rect fill="#E2E2F0" height="51.2422" rx="2.5" ry="2.5" style="stroke:#181818;stroke-width:0.5;" width="110" x="1003" y="123.7852"/><text fill="#000000" font-family="sans-serif" font-size="14" font-style="italic" lengthAdjust="spacing" textLength="89" x="1013.5" y="145.8926">&#171;Component&#187;</text><text fill="#000000" font-family="sans-serif" font-size="14" lengthAdjust="spacing" textLength="96" x="1010" y="164.5137">:SensorService</text><rect fill="#E2E2F0" height="51.2422" rx="2.5" ry="2.5" style="stroke:#181818;stroke-width:0.5;" width="131" x="1256.5" y="123.7852"/><text fill="#000000" font-family="sans-serif" font-size="14" font-style="italic" lengthAdjust="spacing" textLength="89" x="1277.5" y="145.8926">&#171;Component&#187;</text><text fill="#000000" font-family="sans-serif" font-size="14" lengthAdjust="spacing" textLength="117" x="1263.5" y="164.5137">:SensorRepository</text><rect fill="#E2E2F0" height="51.2422" rx="2.5" ry="2.5" style="stroke:#181818;stroke-width:0.5;" width="179" x="1573.5" y="123.7852"/><text fill="#000000" font-family="sans-serif" font-size="14" font-style="italic" lengthAdjust="spacing" textLength="89" x="1618.5" y="145.8926">&#171;Component&#187;</text><text fill="#000000" font-family="sans-serif" font-size="14" lengthAdjust="spacing" textLength="165" x="1580.5" y="164.5137">:MapperSensorDataModel</text><rect fill="#E2E2F0" height="32.6211" rx="2.5" ry="2.5" style="stroke:#181818;stroke-width:0.5;" width="106" x="1886.5" y="142.4063"/><text fill="#000000" font-family="sans-serif" font-size="14" lengthAdjust="spacing" textLength="92" x="1893.5" y="164.5137">sensor:Sensor</text><rect fill="#E2E2F0" height="51.2422" rx="2.5" ry="2.5" style="stroke:#181818;stroke-width:0.5;" width="103" x="2438.5" y="123.7852"/><text fill="#000000" font-family="sans-serif" font-size="14" font-style="italic" lengthAdjust="spacing" textLength="89" x="2445.5" y="145.8926">&#171;Component&#187;</text><text fill="#000000" font-family="sans-serif" font-size="14" lengthAdjust="spacing" textLength="65" x="2457.5" y="164.5137">:DB Driver</text><rect fill="#E2E2F0" height="51.2422" rx="2.5" ry="2.5" style="stroke:#181818;stroke-width:0.5;" width="103" x="154.5" y="1302.4355"/><text fill="#000000" font-family="sans-serif" font-size="14" font-style="italic" lengthAdjust="spacing" textLength="89" x="161.5" y="1324.543">&#171;Component&#187;</text><text fill="#000000" font-family="sans-serif" font-size="14" lengthAdjust="spacing" textLength="47" x="182.5" y="1343.1641">:Router</text><rect fill="#E2E2F0" height="51.2422" rx="2.5" ry="2.5" style="stroke:#181818;stroke-width:0.5;" width="152" x="537" y="1302.4355"/><text fill="#000000" font-family="sans-serif" font-size="14" font-style="italic" lengthAdjust="spacing" textLength="89" x="568.5" y="1324.543">&#171;Component&#187;</text><text fill="#000000" font-family="sans-serif" font-size="14" lengthAdjust="spacing" textLength="138" x="544" y="1343.1641">:DeviceControllerWeb</text><rect fill="#E2E2F0" height="32.6211" rx="2.5" ry="2.5" style="stroke:#181818;stroke-width:0.5;" width="128" x="699" y="1302.4355"/><text fill="#000000" font-family="sans-serif" font-size="14" lengthAdjust="spacing" textLength="114" x="706" y="1324.543">deviceID:DeviceID</text><rect fill="#E2E2F0" height="51.2422" rx="2.5" ry="2.5" style="stroke:#181818;stroke-width:0.5;" width="156" x="837" y="1302.4355"/><text fill="#000000" font-family="sans-serif" font-size="14" lengthAdjust="spacing" textLength="140" x="845" y="1324.543">sensorFunctionalityID:</text><text fill="#000000" font-family="sans-serif" font-size="14" lengthAdjust="spacing" textLength="138" x="848" y="1343.1641">SensorFunctionalityID</text><rect fill="#E2E2F0" height="51.2422" rx="2.5" ry="2.5" style="stroke:#181818;stroke-width:0.5;" width="110" x="1003" y="1302.4355"/><text fill="#000000" font-family="sans-serif" font-size="14" font-style="italic" lengthAdjust="spacing" textLength="89" x="1013.5" y="1324.543">&#171;Component&#187;</text><text fill="#000000" font-family="sans-serif" font-size="14" lengthAdjust="spacing" textLength="96" x="1010" y="1343.1641">:SensorService</text><rect fill="#E2E2F0" height="51.2422" rx="2.5" ry="2.5" style="stroke:#181818;stroke-width:0.5;" width="131" x="1256.5" y="1302.4355"/><text fill="#000000" font-family="sans-serif" font-size="14" font-style="italic" lengthAdjust="spacing" textLength="89" x="1277.5" y="1324.543">&#171;Component&#187;</text><text fill="#000000" font-family="sans-serif" font-size="14" lengthAdjust="spacing" textLength="117" x="1263.5" y="1343.1641">:SensorRepository</text><rect fill="#E2E2F0" height="51.2422" rx="2.5" ry="2.5" style="stroke:#181818;stroke-width:0.5;" width="179" x="1573.5" y="1302.4355"/><text fill="#000000" font-family="sans-serif" font-size="14" font-style="italic" lengthAdjust="spacing" textLength="89" x="1618.5" y="1324.543">&#171;Component&#187;</text><text fill="#000000" font-family="sans-serif" font-size="14" lengthAdjust="spacing" textLength="165" x="1580.5" y="1343.1641">:MapperSensorDataModel</text><rect fill="#E2E2F0" height="51.2422" rx="2.5" ry="2.5" style="stroke:#181818;stroke-width:0.5;" width="114" x="1762.5" y="1302.4355"/><text fill="#000000" font-family="sans-serif" font-size="14" lengthAdjust="spacing" textLength="97" x="1771" y="1324.543">listOfSensorIDs</text><text fill="#000000" font-family="sans-serif" font-size="14" lengthAdjust="spacing" textLength="100" x="1769.5" y="1343.1641">:List&lt;SensorID&gt;</text><rect fill="#E2E2F0" height="32.6211" rx="2.5" ry="2.5" style="stroke:#181818;stroke-width:0.5;" width="106" x="1886.5" y="1302.4355"/><text fill="#000000" font-family="sans-serif" font-size="14" lengthAdjust="spacing" textLength="92" x="1893.5" y="1324.543">sensor:Sensor</text><rect fill="#E2E2F0" height="32.6211" rx="2.5" ry="2.5" style="stroke:#181818;stroke-width:0.5;" width="141" x="2002.5" y="1302.4355"/><text fill="#000000" font-family="sans-serif" font-size="14" lengthAdjust="spacing" textLength="127" x="2009.5" y="1324.543">:SensorMapperDTO</text><rect fill="#E2E2F0" height="51.2422" rx="2.5" ry="2.5" style="stroke:#181818;stroke-width:0.5;" width="131" x="2194.5" y="1302.4355"/><text fill="#000000" font-family="sans-serif" font-size="14" lengthAdjust="spacing" textLength="114" x="2203" y="1324.543">listOfSensorsDTO</text><text fill="#000000" font-family="sans-serif" font-size="14" lengthAdjust="spacing" textLength="117" x="2201.5" y="1343.1641">:List&lt;SensorDTO&gt;</text><rect fill="#E2E2F0" height="32.6211" rx="2.5" ry="2.5" style="stroke:#181818;stroke-width:0.5;" width="93" x="2335.5" y="1302.4355"/><text fill="#000000" font-family="sans-serif" font-size="14" lengthAdjust="spacing" textLength="79" x="2342.5" y="1324.543">:SensorDTO</text><rect fill="#E2E2F0" height="51.2422" rx="2.5" ry="2.5" style="stroke:#181818;stroke-width:0.5;" width="103" x="2438.5" y="1302.4355"/><text fill="#000000" font-family="sans-serif" font-size="14" font-style="italic" lengthAdjust="spacing" textLength="89" x="2445.5" y="1324.543">&#171;Component&#187;</text><text fill="#000000" font-family="sans-serif" font-size="14" lengthAdjust="spacing" textLength="65" x="2457.5" y="1343.1641">:DB Driver</text><rect fill="none" height="43.252" style="stroke:#000000;stroke-width:1.5;" width="505" x="156.5" y="184.0273"/><path d="M156.5,184.0273 L218.5,184.0273 L218.5,193.0273 L208.5,203.0273 L156.5,203.0273 L156.5,184.0273 " fill="#EEEEEE" style="stroke:#000000;stroke-width:2.0;"/><text fill="#000000" font-family="sans-serif" font-size="13" font-weight="bold" lengthAdjust="spacing" textLength="17" x="169.5" y="200.0557">ref</text><a href="docs/DocumentationOfSystem/UC06-ListAllDevicesInRoom/UC06SequenceDiagram.puml" target="_top" title="docs/DocumentationOfSystem/UC06-ListAllDevicesInRoom/UC06SequenceDiagram.puml" xlink:actuate="onRequest" xlink:href="docs/DocumentationOfSystem/UC06-ListAllDevicesInRoom/UC06SequenceDiagram.puml" xlink:show="new" xlink:title="docs/DocumentationOfSystem/UC06-ListAllDevicesInRoom/UC06SequenceDiagram.puml" xlink:type="simple"><text fill="#0000FF" font-family="sans-serif" font-size="12" lengthAdjust="spacing" text-decoration="underline" textLength="497" x="160.5" y="219.9766">docs/DocumentationOfSystem/UC06-ListAllDevicesInRoom/UC06SequenceDiagram.puml</text></a><ellipse cx="10.5" cy="254.8203" fill="none" rx="4" ry="4" style="stroke:#181818;stroke-width:1.5;"/><polygon fill="#181818" points="189,251.5703,199,255.5703,189,259.5703,193,255.5703" style="stroke:#181818;stroke-width:1.0;"/><line style="stroke:#181818;stroke-width:1.0;" x1="15" x2="195" y1="255.5703" y2="255.5703"/><text fill="#000000" font-family="sans-serif" font-size="13" font-weight="bold" lengthAdjust="spacing" textLength="7" x="18" y="250.3076">1</text><text fill="#000000" font-family="sans-serif" font-size="13" lengthAdjust="spacing" textLength="166" x="29" y="250.3076">GET api/devices/{id}/sensors</text><polygon fill="#181818" points="596,300.1523,606,304.1523,596,308.1523,600,304.1523" style="stroke:#181818;stroke-width:1.0;"/><line style="stroke:#181818;stroke-width:1.0;" x1="211" x2="602" y1="304.1523" y2="304.1523"/><text fill="#000000" font-family="sans-serif" font-size="13" font-weight="bold" lengthAdjust="spacing" textLength="7" x="218" y="290.2441">2</text><text fill="#000000" font-family="sans-serif" font-size="13" lengthAdjust="spacing" textLength="307" x="229" y="281.5986">getListOfSensors(@PathVariable String deviceName,</text><text fill="#000000" font-family="sans-serif" font-size="13" lengthAdjust="spacing" textLength="367" x="229" y="298.8896">@RequestParam(required = false) String sensorFunctionalityID)</text><rect fill="#E2E2F0" height="32.6211" rx="2.5" ry="2.5" style="stroke:#181818;stroke-width:0.5;" width="128" x="699" y="312.1523"/><text fill="#000000" font-family="sans-serif" font-size="14" lengthAdjust="spacing" textLength="114" x="706" y="334.2598">deviceID:DeviceID</text><polygon fill="#181818" points="687,331.4434,697,335.4434,687,339.4434,691,335.4434" style="stroke:#181818;stroke-width:1.0;"/><line style="stroke:#181818;stroke-width:1.0;stroke-dasharray:2.0,2.0;" x1="618" x2="693" y1="335.4434" y2="335.4434"/><text fill="#000000" font-family="sans-serif" font-size="13" font-weight="bold" lengthAdjust="spacing" textLength="7" x="625" y="330.1807">3</text><text fill="#000000" font-family="sans-serif" font-size="13" lengthAdjust="spacing" textLength="50" x="636" y="330.1807">&#171;create&#187;</text><rect fill="#E2E2F0" height="51.2422" rx="2.5" ry="2.5" style="stroke:#181818;stroke-width:0.5;" width="156" x="837" y="345.7734"/><text fill="#000000" font-family="sans-serif" font-size="14" lengthAdjust="spacing" textLength="140" x="845" y="367.8809">sensorFunctionalityID:</text><text fill="#000000" font-family="sans-serif" font-size="14" lengthAdjust="spacing" textLength="138" x="848" y="386.502">SensorFunctionalityID</text><polygon fill="#181818" points="825,365.0645,835,369.0645,825,373.0645,829,369.0645" style="stroke:#181818;stroke-width:1.0;"/><line style="stroke:#181818;stroke-width:1.0;stroke-dasharray:2.0,2.0;" x1="618" x2="831" y1="369.0645" y2="369.0645"/><text fill="#000000" font-family="sans-serif" font-size="13" font-weight="bold" lengthAdjust="spacing" textLength="7" x="625" y="363.8018">4</text><text fill="#000000" font-family="sans-serif" font-size="13" lengthAdjust="spacing" textLength="50" x="636" y="363.8018">&#171;create&#187;</text><polygon fill="#181818" points="1041,434.5977,1051,438.5977,1041,442.5977,1045,438.5977" style="stroke:#181818;stroke-width:1.0;"/><line style="stroke:#181818;stroke-width:1.0;" x1="618" x2="1047" y1="438.5977" y2="438.5977"/><text fill="#000000" font-family="sans-serif" font-size="13" font-weight="bold" lengthAdjust="spacing" textLength="7" x="625" y="424.6895">5</text><text fill="#000000" font-family="sans-serif" font-size="13" lengthAdjust="spacing" textLength="271" x="636" y="416.0439">findSensorsIDOfADeviceBySensorFunctionality</text><text fill="#000000" font-family="sans-serif" font-size="13" lengthAdjust="spacing" textLength="177" x="636" y="433.335">(deviceID, sensorFunctionality)</text><polygon fill="#181818" points="1305,483.1797,1315,487.1797,1305,491.1797,1309,487.1797" style="stroke:#181818;stroke-width:1.0;"/><line style="stroke:#181818;stroke-width:1.0;" x1="1063" x2="1311" y1="487.1797" y2="487.1797"/><text fill="#000000" font-family="sans-serif" font-size="13" font-weight="bold" lengthAdjust="spacing" textLength="7" x="1070" y="473.2715">6</text><text fill="#000000" font-family="sans-serif" font-size="13" lengthAdjust="spacing" textLength="224" x="1081" y="464.626">findByDeviceIDAndSensorFunctionality</text><text fill="#000000" font-family="sans-serif" font-size="13" lengthAdjust="spacing" textLength="189" x="1081" y="481.917">(deviceID, sensorFunctionalityID)</text><polygon fill="#181818" points="2473,514.4707,2483,518.4707,2473,522.4707,2477,518.4707" style="stroke:#181818;stroke-width:1.0;"/><line style="stroke:#181818;stroke-width:1.0;" x1="1327" x2="2479" y1="518.4707" y2="518.4707"/><text fill="#000000" font-family="sans-serif" font-size="13" font-weight="bold" lengthAdjust="spacing" textLength="7" x="1334" y="513.208">7</text><text fill="#000000" font-family="sans-serif" font-size="13" lengthAdjust="spacing" textLength="413" x="1345" y="513.208">findByDeviceIDAndSensorFunctionality(deviceID, sensorFunctionalityID)</text><ellipse cx="2641.5" cy="549.0117" fill="none" rx="4" ry="4" style="stroke:#181818;stroke-width:1.5;"/><polygon fill="#181818" points="2624.5,545.7617,2634.5,549.7617,2624.5,553.7617,2628.5,549.7617" style="stroke:#181818;stroke-width:1.0;"/><line style="stroke:#181818;stroke-width:1.0;" x1="2495" x2="2630.5" y1="549.7617" y2="549.7617"/><text fill="#000000" font-family="sans-serif" font-size="13" font-weight="bold" lengthAdjust="spacing" textLength="7" x="2502" y="544.499">8</text><text fill="#000000" font-family="sans-serif" font-size="13" lengthAdjust="spacing" textLength="120" x="2513" y="544.499">DATABASE QUERY</text><polygon fill="#181818" points="2506,577.0527,2496,581.0527,2506,585.0527,2502,581.0527" style="stroke:#181818;stroke-width:1.0;"/><ellipse cx="2641.5" cy="580.3027" fill="none" rx="4" ry="4" style="stroke:#181818;stroke-width:1.5;"/><line style="stroke:#181818;stroke-width:1.0;stroke-dasharray:2.0,2.0;" x1="2500" x2="2637" y1="581.0527" y2="581.0527"/><text fill="#000000" font-family="sans-serif" font-size="13" font-weight="bold" lengthAdjust="spacing" textLength="7" x="2512" y="575.79">9</text><text fill="#000000" font-family="sans-serif" font-size="13" lengthAdjust="spacing" textLength="123" x="2523" y="575.79">QUERY RESPONSE</text><polygon fill="#181818" points="1338,608.3438,1328,612.3438,1338,616.3438,1334,612.3438" style="stroke:#181818;stroke-width:1.0;"/><line style="stroke:#181818;stroke-width:1.0;stroke-dasharray:2.0,2.0;" x1="1332" x2="2484" y1="612.3438" y2="612.3438"/><text fill="#000000" font-family="sans-serif" font-size="13" font-weight="bold" lengthAdjust="spacing" textLength="14" x="1344" y="607.0811">10</text><text fill="#000000" font-family="sans-serif" font-size="13" lengthAdjust="spacing" textLength="287" x="1362" y="607.0811">Iterable&lt;SensorDataModel&gt; sensorDataModelList</text><polygon fill="#181818" points="1646,639.6348,1656,643.6348,1646,647.6348,1650,643.6348" style="stroke:#181818;stroke-width:1.0;"/><line style="stroke:#181818;stroke-width:1.0;" x1="1327" x2="1652" y1="643.6348" y2="643.6348"/><text fill="#000000" font-family="sans-serif" font-size="13" font-weight="bold" lengthAdjust="spacing" textLength="14" x="1334" y="638.3721">11</text><text fill="#000000" font-family="sans-serif" font-size="13" lengthAdjust="spacing" textLength="294" x="1352" y="638.3721">toDomainList(factorySensor, sensorDataModelList)</text><polygon fill="#181818" points="1338,670.9258,1328,674.9258,1338,678.9258,1334,674.9258" style="stroke:#181818;stroke-width:1.0;"/><line style="stroke:#181818;stroke-width:1.0;stroke-dasharray:2.0,2.0;" x1="1332" x2="1657" y1="674.9258" y2="674.9258"/><text fill="#000000" font-family="sans-serif" font-size="13" font-weight="bold" lengthAdjust="spacing" textLength="14" x="1344" y="669.6631">12</text><text fill="#000000" font-family="sans-serif" font-size="13" lengthAdjust="spacing" textLength="163" x="1362" y="669.6631">Iterable&lt;Sensor&gt; sensorList</text><polygon fill="#181818" points="1074,702.2168,1064,706.2168,1074,710.2168,1070,706.2168" style="stroke:#181818;stroke-width:1.0;"/><line style="stroke:#181818;stroke-width:1.0;stroke-dasharray:2.0,2.0;" x1="1068" x2="1316" y1="706.2168" y2="706.2168"/><text fill="#000000" font-family="sans-serif" font-size="13" font-weight="bold" lengthAdjust="spacing" textLength="14" x="1080" y="700.9541">13</text><text fill="#000000" font-family="sans-serif" font-size="13" lengthAdjust="spacing" textLength="163" x="1098" y="700.9541">Iterable&lt;Sensor&gt; sensorList</text><rect fill="#E2E2F0" height="51.2422" rx="2.5" ry="2.5" style="stroke:#181818;stroke-width:0.5;" width="114" x="1762.5" y="714.2168"/><text fill="#000000" font-family="sans-serif" font-size="14" lengthAdjust="spacing" textLength="97" x="1771" y="736.3242">listOfSensorIDs</text><text fill="#000000" font-family="sans-serif" font-size="14" lengthAdjust="spacing" textLength="100" x="1769.5" y="754.9453">:List&lt;SensorID&gt;</text><polygon fill="#181818" points="1750.5,733.5078,1760.5,737.5078,1750.5,741.5078,1754.5,737.5078" style="stroke:#181818;stroke-width:1.0;"/><line style="stroke:#181818;stroke-width:1.0;stroke-dasharray:2.0,2.0;" x1="1063" x2="1756.5" y1="737.5078" y2="737.5078"/><text fill="#000000" font-family="sans-serif" font-size="13" font-weight="bold" lengthAdjust="spacing" textLength="14" x="1070" y="732.2451">14</text><text fill="#000000" font-family="sans-serif" font-size="13" lengthAdjust="spacing" textLength="50" x="1088" y="732.2451">&#171;create&#187;</text><path d="M1042,770.459 L1115,770.459 L1115,779.75 L1105,789.75 L1042,789.75 L1042,770.459 " fill="#EEEEEE" style="stroke:#000000;stroke-width:1.5;"/><rect fill="none" height="154.4551" style="stroke:#000000;stroke-width:1.5;" width="966.5" x="1042" y="770.459"/><text fill="#000000" font-family="sans-serif" font-size="13" font-weight="bold" lengthAdjust="spacing" textLength="28" x="1057" y="785.4873">loop</text><text fill="#000000" font-family="sans-serif" font-size="11" font-weight="bold" lengthAdjust="spacing" textLength="206" x="1130" y="784.3291">[for each Sensor in Iterable&lt;Sensor&gt;]</text><polygon fill="#181818" points="1922.5,819.041,1932.5,823.041,1922.5,827.041,1926.5,823.041" style="stroke:#181818;stroke-width:1.0;"/><line style="stroke:#181818;stroke-width:1.0;" x1="1063" x2="1928.5" y1="823.041" y2="823.041"/><text fill="#000000" font-family="sans-serif" font-size="13" font-weight="bold" lengthAdjust="spacing" textLength="14" x="1070" y="817.7783">15</text><text fill="#000000" font-family="sans-serif" font-size="13" lengthAdjust="spacing" textLength="50" x="1088" y="817.7783">identity()</text><polygon fill="#181818" points="1074,850.332,1064,854.332,1074,858.332,1070,854.332" style="stroke:#181818;stroke-width:1.0;"/><line style="stroke:#181818;stroke-width:1.0;stroke-dasharray:2.0,2.0;" x1="1068" x2="1933.5" y1="854.332" y2="854.332"/><text fill="#000000" font-family="sans-serif" font-size="13" font-weight="bold" lengthAdjust="spacing" textLength="14" x="1080" y="849.0693">16</text><text fill="#000000" font-family="sans-serif" font-size="13" lengthAdjust="spacing" textLength="51" x="1098" y="849.0693">sensorID</text><polygon fill="#181818" points="1802.5,881.623,1812.5,885.623,1802.5,889.623,1806.5,885.623" style="stroke:#181818;stroke-width:1.0;"/><line style="stroke:#181818;stroke-width:1.0;" x1="1063" x2="1808.5" y1="885.623" y2="885.623"/><text fill="#000000" font-family="sans-serif" font-size="13" font-weight="bold" lengthAdjust="spacing" textLength="14" x="1070" y="880.3604">17</text><text fill="#000000" font-family="sans-serif" font-size="13" lengthAdjust="spacing" textLength="80" x="1088" y="880.3604">add(sensorID)</text><polygon fill="#181818" points="1074,912.9141,1064,916.9141,1074,920.9141,1070,916.9141" style="stroke:#181818;stroke-width:1.0;"/><line style="stroke:#181818;stroke-width:1.0;stroke-dasharray:2.0,2.0;" x1="1068" x2="1813.5" y1="916.9141" y2="916.9141"/><text fill="#000000" font-family="sans-serif" font-size="13" font-weight="bold" lengthAdjust="spacing" textLength="14" x="1080" y="911.6514">18</text><text fill="#000000" font-family="sans-serif" font-size="13" lengthAdjust="spacing" textLength="90" x="1098" y="911.6514">List&lt;SensorID&gt;</text><polygon fill="#181818" points="629,958.2051,619,962.2051,629,966.2051,625,962.2051" style="stroke:#181818;stroke-width:1.0;"/><line style="stroke:#181818;stroke-width:1.0;stroke-dasharray:2.0,2.0;" x1="623" x2="1052" y1="962.2051" y2="962.2051"/><text fill="#000000" font-family="sans-serif" font-size="13" font-weight="bold" lengthAdjust="spacing" textLength="14" x="635" y="956.9424">19</text><text fill="#000000" font-family="sans-serif" font-size="13" lengthAdjust="spacing" textLength="98" x="653" y="956.9424">(List&lt;SensorID&gt;)</text><rect fill="#E2E2F0" height="32.6211" rx="2.5" ry="2.5" style="stroke:#181818;stroke-width:0.5;" width="141" x="1997.5" y="970.2051"/><text fill="#000000" font-family="sans-serif" font-size="14" lengthAdjust="spacing" textLength="127" x="2004.5" y="992.3125">:SensorMapperDTO</text><polygon fill="#181818" points="1985.5,989.4961,1995.5,993.4961,1985.5,997.4961,1989.5,993.4961" style="stroke:#181818;stroke-width:1.0;"/><line style="stroke:#181818;stroke-width:1.0;" x1="618" x2="1991.5" y1="993.4961" y2="993.4961"/><text fill="#000000" font-family="sans-serif" font-size="13" font-weight="bold" lengthAdjust="spacing" textLength="14" x="625" y="988.2334">20</text><text fill="#000000" font-family="sans-serif" font-size="13" lengthAdjust="spacing" textLength="217" x="643" y="988.2334">sensorIDsToDTOList(List&lt;SensorID&gt;)</text><rect fill="#E2E2F0" height="51.2422" rx="2.5" ry="2.5" style="stroke:#181818;stroke-width:0.5;" width="131" x="2194.5" y="1003.8262"/><text fill="#000000" font-family="sans-serif" font-size="14" lengthAdjust="spacing" textLength="114" x="2203" y="1025.9336">listOfSensorsDTO</text><text fill="#000000" font-family="sans-serif" font-size="14" lengthAdjust="spacing" textLength="117" x="2201.5" y="1044.5547">:List&lt;SensorDTO&gt;</text><polygon fill="#181818" points="2182.5,1023.1172,2192.5,1027.1172,2182.5,1031.1172,2186.5,1027.1172" style="stroke:#181818;stroke-width:1.0;"/><line style="stroke:#181818;stroke-width:1.0;stroke-dasharray:2.0,2.0;" x1="2078" x2="2188.5" y1="1027.1172" y2="1027.1172"/><text fill="#000000" font-family="sans-serif" font-size="13" font-weight="bold" lengthAdjust="spacing" textLength="14" x="2085" y="1021.8545">21</text><text fill="#000000" font-family="sans-serif" font-size="13" lengthAdjust="spacing" textLength="50" x="2103" y="1021.8545">&#171;create&#187;</text><path d="M2057,1060.0684 L2130,1060.0684 L2130,1069.3594 L2120,1079.3594 L2057,1079.3594 L2057,1060.0684 " fill="#EEEEEE" style="stroke:#000000;stroke-width:1.5;"/><rect fill="none" height="138.4941" style="stroke:#000000;stroke-width:1.5;" width="387.5" x="2057" y="1060.0684"/><text fill="#000000" font-family="sans-serif" font-size="13" font-weight="bold" lengthAdjust="spacing" textLength="28" x="2072" y="1075.0967">loop</text><text fill="#000000" font-family="sans-serif" font-size="11" font-weight="bold" lengthAdjust="spacing" textLength="208" x="2145" y="1073.9385">[for each SensorID in listOfSensorIDs]</text><line style="stroke:#181818;stroke-width:1.0;" x1="2078" x2="2120" y1="1112.6504" y2="1112.6504"/><line style="stroke:#181818;stroke-width:1.0;" x1="2120" x2="2120" y1="1112.6504" y2="1125.6504"/><line style="stroke:#181818;stroke-width:1.0;" x1="2079" x2="2120" y1="1125.6504" y2="1125.6504"/><polygon fill="#181818" points="2089,1121.6504,2079,1125.6504,2089,1129.6504,2085,1125.6504" style="stroke:#181818;stroke-width:1.0;"/><text fill="#000000" font-family="sans-serif" font-size="13" font-weight="bold" lengthAdjust="spacing" textLength="14" x="2085" y="1107.3877">22</text><text fill="#000000" font-family="sans-serif" font-size="13" lengthAdjust="spacing" textLength="150" x="2103" y="1107.3877">sensorIDToDTO(sensorID)</text><rect fill="#E2E2F0" height="32.6211" rx="2.5" ry="2.5" style="stroke:#181818;stroke-width:0.5;" width="93" x="2335.5" y="1133.6504"/><text fill="#000000" font-family="sans-serif" font-size="14" lengthAdjust="spacing" textLength="79" x="2342.5" y="1155.7578">:SensorDTO</text><polygon fill="#181818" points="2323.5,1152.9414,2333.5,1156.9414,2323.5,1160.9414,2327.5,1156.9414" style="stroke:#181818;stroke-width:1.0;"/><line style="stroke:#181818;stroke-width:1.0;" x1="2078" x2="2329.5" y1="1156.9414" y2="1156.9414"/><text fill="#000000" font-family="sans-serif" font-size="13" font-weight="bold" lengthAdjust="spacing" textLength="14" x="2085" y="1151.6787">23</text><text fill="#000000" font-family="sans-serif" font-size="13" lengthAdjust="spacing" textLength="50" x="2103" y="1151.6787">&#171;create&#187;</text><polygon fill="#181818" points="2243,1186.5625,2253,1190.5625,2243,1194.5625,2247,1190.5625" style="stroke:#181818;stroke-width:1.0;"/><line style="stroke:#181818;stroke-width:1.0;" x1="2078" x2="2249" y1="1190.5625" y2="1190.5625"/><text fill="#000000" font-family="sans-serif" font-size="13" font-weight="bold" lengthAdjust="spacing" textLength="14" x="2085" y="1185.2998">24</text><text fill="#000000" font-family="sans-serif" font-size="13" lengthAdjust="spacing" textLength="94" x="2103" y="1185.2998">add(sensorDTO)</text><polygon fill="#181818" points="222,1231.8535,212,1235.8535,222,1239.8535,218,1235.8535" style="stroke:#181818;stroke-width:1.0;"/><line style="stroke:#181818;stroke-width:1.0;stroke-dasharray:2.0,2.0;" x1="216" x2="607" y1="1235.8535" y2="1235.8535"/><text fill="#000000" font-family="sans-serif" font-size="13" font-weight="bold" lengthAdjust="spacing" textLength="14" x="228" y="1230.5908">25</text><text fill="#000000" font-family="sans-serif" font-size="13" lengthAdjust="spacing" textLength="179" x="246" y="1230.5908">sensorDTOList, HttpStatus.OK</text><ellipse cx="10.5" cy="1283.6855" fill="none" rx="4" ry="4" style="stroke:#181818;stroke-width:1.5;"/><polygon fill="#181818" points="27.5,1280.4355,17.5,1284.4355,27.5,1288.4355,23.5,1284.4355" style="stroke:#181818;stroke-width:1.0;"/><line style="stroke:#181818;stroke-width:1.0;stroke-dasharray:2.0,2.0;" x1="25.5" x2="200" y1="1284.4355" y2="1284.4355"/><text fill="#000000" font-family="sans-serif" font-size="13" font-weight="bold" lengthAdjust="spacing" textLength="14" x="28" y="1270.5273">26</text><text fill="#000000" font-family="sans-serif" font-size="13" lengthAdjust="spacing" textLength="95" x="46" y="1261.8818">JSON response,</text><text fill="#000000" font-family="sans-serif" font-size="13" lengthAdjust="spacing" textLength="85" x="46" y="1279.1729">HttpStatus.OK</text><!--SRC=[bLVTS-Cq47_NNx4S3qblyW47muCdP2wfmrsWrvGuXM6QFYYsadhEbemaTmWC_pihotPinIdNlhJIxlxsjwlzS7jFMcVA6u-pX7ATfyae5EbOiJzpnaCsZ69wa3GbEjO9W_lhxxuVlOCXtCHAWsPfnYJLkMIW65T2AeWvHEmv3jc84F9L9kaXfQWe_WOjSqPsuYzu0vD9aE-2eqA0wNJB0N-yEGq_CnwXz6kVoiyV93lMsjU2Qnfp9cljWCbd9b7t9ZuywKAPvbhmFDqnIJ8gTHp66GO4RxoroBNHfGhidmLYcWdEk9vE7Ms_O6yyIf4aJFxETeLfMD_0I_Os-ALVuYpzmhYwRUlQdFsKyr37WjCaraSqn0Y3Ba41r6dYH62jJORGPyEgl7anUckxPfbGiHRos30tbo_QVg8PbeD5yAccdqJ4aWQ0bTUIbx0IBA_Lta8jVRNbdYcuINKnBL0TfQxSbl4qI7J6MpBRhAoYFLvcf52pJGalpZaPjKvtjQFgv9RW77mPFvSr6-timScNwHNiZ_etwGMBwyroTGlVUl21wO8AY7rPUqLdKf12f3r29Dk3C9Ys8SZ3GoH2DVP5cAS8JqrnOHX5Xuxlhx_vOMY2dIM9hMgrv6i4AYH1EIbyEoX66OwGnyU25deXv44CfwKRvBNO0CtYSSbf_4yS_JikHmUXMDFFLBEALDciQ7xgFGyEJDyqazn_VqVrqszKndI74ohGCkQ7CkXRchB1bhzV6uvAtr4as9TuY2MBu4VOqqIngygcixUkJhHEB1h9VjTEzeMHg9_CCM6XHh-MMu_qK732x976X1bYqDNCUFlMmwSF9KCE-EwELYTfnwJmf6ptgxQVQNisUB2FULHcTkclzZFxuFDZnqZQydx5ST35ev6wbXFI7aSr1pDWB87viPgUiuhDgpotdkq4JXg3p2IuQgmlS_eAbnKogLqCf-BH0t-scSrdmG9-lL-i_pX99yEX4HUti5u4TwlROD4mTbAqnBOmnJvnPcsbLL-OHY4HE-VLJaJdUFP02r-ak7ODId-F8BWFhCT1bwEpb3k0f7iB_4zmbT0DfTj5Ax3puduLTb4nRgqYfhDst5vBXCXWBoGWtbEvoSq8S7qJW0jzu44SuH0s9NU5MWwjsguhG5MoGgMpUBeSEh5uGAEeNu6qdBlB5joRBZhjfTqcvGBYmkZATdFqzzjuLyGTPROSp8jKCQYDmFrQLB1hV4fFkUz9-SVPAvj5_YNFlFJDGvzd2g16hacUA1OCMqblwrSV2Gu3HytbstnAF5hOpkGNdob6Uk5n2hbPvoRaLfjKUNDMKhNiQ-ScymFuYFzd1FXfaQlHwfScJdElFWYSXUNYz-3d03UiP0e_UXGRm9PVn2W_6SX_]--></g></svg>