<?xml version="1.0" encoding="us-ascii" standalone="no"?><svg xmlns="http://www.w3.org/2000/svg" xmlns:xlink="http://www.w3.org/1999/xlink" contentStyleType="text/css" height="832.8px" preserveAspectRatio="none" style="width:1390px;height:832px;background:#FFFFFF;" version="1.1" viewBox="0 0 1390 832" width="1390.4px" zoomAndPan="magnify"><defs/><g><rect fill="#A9A9A9" height="812.4047" style="stroke:#181818;stroke-width:0.20000000000000004;" width="1247.6" x="98.6" y="18.2484"/><text fill="#000000" font-family="sans-serif" font-size="5.2" font-weight="bold" lengthAdjust="spacing" textLength="34" x="705.4" y="23.8598">&#171;SubSystem&#187;</text><text fill="#000000" font-family="sans-serif" font-size="5.2" font-weight="bold" lengthAdjust="spacing" textLength="23.6" x="705.4" y="30.7762">:Backend</text><rect fill="#D3D3D3" height="796.5719" style="stroke:#181818;stroke-width:0.20000000000000004;" width="1247.6" x="98.6" y="34.0813"/><text fill="#000000" font-family="sans-serif" font-size="5.2" font-weight="bold" lengthAdjust="spacing" textLength="30.4" x="708" y="39.6926">&#171;Container&#187;</text><text fill="#000000" font-family="sans-serif" font-size="5.2" font-weight="bold" lengthAdjust="spacing" textLength="18.4" x="706.4" y="46.609">:Server</text><text fill="#000000" font-family="sans-serif" font-size="5.6" font-weight="bold" lengthAdjust="spacing" textLength="210" x="590.4" y="12.043">UC36 - Get Peak Power consumption of the House in a given period - Part 1</text><line style="stroke:#181818;stroke-width:0.20000000000000004;stroke-dasharray:5.0,5.0;" x1="120.8" x2="120.8" y1="70.4109" y2="807.3563"/><rect fill="#FFFFFF" height="717.2289" style="stroke:#181818;stroke-width:0.4000000000000001;" width="4" x="118.8" y="82.9273"/><line style="stroke:#181818;stroke-width:0.20000000000000004;stroke-dasharray:5.0,5.0;" x1="232" x2="232" y1="70.4109" y2="807.3563"/><rect fill="#FFFFFF" height="664.5305" style="stroke:#181818;stroke-width:0.4000000000000001;" width="4" x="230" y="116.193"/><rect fill="#FFFFFF" height="622.1813" style="stroke:#181818;stroke-width:0.4000000000000001;" width="4" x="232" y="140.8258"/><line style="stroke:#181818;stroke-width:0.20000000000000004;stroke-dasharray:5.0,5.0;" x1="307.6" x2="307.6" y1="70.4109" y2="807.3563"/><rect fill="#FFFFFF" height="583.3156" style="stroke:#181818;stroke-width:0.4000000000000001;" width="4" x="305.6" y="167.175"/><rect fill="#FFFFFF" height="31.8172" style="stroke:#181818;stroke-width:0.4000000000000001;" width="4" x="307.6" y="700.957"/><line style="stroke:#181818;stroke-width:0.20000000000000004;stroke-dasharray:5.0,5.0;" x1="427.6" x2="427.6" y1="70.4109" y2="807.3563"/><rect fill="#FFFFFF" height="62.582" style="stroke:#181818;stroke-width:0.4000000000000001;" width="4" x="425.6" y="179.6914"/><line style="stroke:#181818;stroke-width:0.20000000000000004;stroke-dasharray:5.0,5.0;" x1="484.2" x2="484.2" y1="245.4734" y2="807.3563"/><line style="stroke:#181818;stroke-width:0.20000000000000004;stroke-dasharray:5.0,5.0;" x1="568.4" x2="568.4" y1="258.9219" y2="807.3563"/><line style="stroke:#181818;stroke-width:0.20000000000000004;stroke-dasharray:5.0,5.0;" x1="648.8" x2="648.8" y1="70.4109" y2="807.3563"/><rect fill="#FFFFFF" height="69.4984" style="stroke:#181818;stroke-width:0.4000000000000001;" width="4" x="646.8" y="288.6031"/><rect fill="#FFFFFF" height="12.5164" style="stroke:#181818;stroke-width:0.4000000000000001;" width="4" x="646.8" y="466.0813"/><line style="stroke:#181818;stroke-width:0.20000000000000004;stroke-dasharray:5.0,5.0;" x1="717.8" x2="717.8" y1="70.4109" y2="807.3563"/><rect fill="#FFFFFF" height="69.4984" style="stroke:#181818;stroke-width:0.4000000000000001;" width="4" x="715.8" y="370.618"/><line style="stroke:#181818;stroke-width:0.20000000000000004;stroke-dasharray:5.0,5.0;" x1="814.8" x2="814.8" y1="443.3164" y2="807.3563"/><line style="stroke:#181818;stroke-width:0.20000000000000004;stroke-dasharray:5.0,5.0;" x1="942.2" x2="942.2" y1="481.7977" y2="807.3563"/><rect fill="#FFFFFF" height="32.7492" style="stroke:#181818;stroke-width:0.4000000000000001;" width="4" x="940.2" y="632.375"/><line style="stroke:#181818;stroke-width:0.20000000000000004;stroke-dasharray:5.0,5.0;" x1="1053.6" x2="1053.6" y1="70.4109" y2="807.3563"/><rect fill="#FFFFFF" height="12.5164" style="stroke:#181818;stroke-width:0.4000000000000001;" width="4" x="1051.6" y="525.3273"/><line style="stroke:#181818;stroke-width:0.20000000000000004;stroke-dasharray:5.0,5.0;" x1="1134.8" x2="1134.8" y1="70.4109" y2="807.3563"/><rect fill="#FFFFFF" height="69.4984" style="stroke:#181818;stroke-width:0.4000000000000001;" width="4" x="1132.8" y="550.3602"/><line style="stroke:#181818;stroke-width:0.20000000000000004;stroke-dasharray:5.0,5.0;" x1="1320.4" x2="1320.4" y1="70.4109" y2="807.3563"/><rect fill="#FFFFFF" height="37.5492" style="stroke:#181818;stroke-width:0.4000000000000001;" width="4" x="1318.4" y="308.0359"/><rect fill="#FFFFFF" height="37.5492" style="stroke:#181818;stroke-width:0.4000000000000001;" width="4" x="1318.4" y="390.0508"/><rect fill="#FFFFFF" height="37.5492" style="stroke:#181818;stroke-width:0.4000000000000001;" width="4" x="1318.4" y="569.793"/><rect fill="#E2E2F0" height="20.4969" rx="1" ry="1" style="stroke:#181818;stroke-width:0.20000000000000004;" width="41.2" x="100.2" y="49.5141"/><text fill="#000000" font-family="sans-serif" font-size="5.6" font-style="italic" lengthAdjust="spacing" textLength="35.6" x="103" y="58.357">&#171;Component&#187;</text><text fill="#000000" font-family="sans-serif" font-size="5.6" lengthAdjust="spacing" textLength="18.8" x="111.4" y="65.8055">:Router</text><rect fill="#E2E2F0" height="20.4969" rx="1" ry="1" style="stroke:#181818;stroke-width:0.20000000000000004;" width="59.6" x="202.2" y="49.5141"/><text fill="#000000" font-family="sans-serif" font-size="5.6" font-style="italic" lengthAdjust="spacing" textLength="35.6" x="214.2" y="58.357">&#171;Component&#187;</text><text fill="#000000" font-family="sans-serif" font-size="5.6" lengthAdjust="spacing" textLength="54" x="205" y="65.8055">:HouseWebController</text><rect fill="#E2E2F0" height="20.4969" rx="1" ry="1" style="stroke:#181818;stroke-width:0.20000000000000004;" width="54.4" x="280.4" y="49.5141"/><text fill="#000000" font-family="sans-serif" font-size="5.6" font-style="italic" lengthAdjust="spacing" textLength="35.6" x="289.8" y="58.357">&#171;Component&#187;</text><text fill="#000000" font-family="sans-serif" font-size="5.6" lengthAdjust="spacing" textLength="48.8" x="283.2" y="65.8055">:PeakPowerService</text><rect fill="#E2E2F0" height="20.4969" rx="1" ry="1" style="stroke:#181818;stroke-width:0.20000000000000004;" width="45.2" x="405" y="49.5141"/><text fill="#000000" font-family="sans-serif" font-size="5.6" font-style="italic" lengthAdjust="spacing" textLength="35.6" x="409.8" y="58.357">&#171;Component&#187;</text><text fill="#000000" font-family="sans-serif" font-size="5.6" lengthAdjust="spacing" textLength="39.6" x="407.8" y="65.8055">:Config Scraper</text><rect fill="#E2E2F0" height="20.4969" rx="1" ry="1" style="stroke:#181818;stroke-width:0.20000000000000004;" width="52.4" x="622.6" y="49.5141"/><text fill="#000000" font-family="sans-serif" font-size="5.6" font-style="italic" lengthAdjust="spacing" textLength="35.6" x="631" y="58.357">&#171;Component&#187;</text><text fill="#000000" font-family="sans-serif" font-size="5.6" lengthAdjust="spacing" textLength="46.8" x="625.4" y="65.8055">:SensorRepository</text><rect fill="#E2E2F0" height="20.4969" rx="1" ry="1" style="stroke:#181818;stroke-width:0.20000000000000004;" width="77.6" x="679" y="49.5141"/><text fill="#000000" font-family="sans-serif" font-size="5.6" font-style="italic" lengthAdjust="spacing" textLength="35.6" x="700" y="58.357">&#171;Component&#187;</text><text fill="#000000" font-family="sans-serif" font-size="5.6" lengthAdjust="spacing" textLength="72" x="681.8" y="65.8055">:PeriodTimeValueRepository</text><rect fill="#E2E2F0" height="13.0484" rx="1" ry="1" style="stroke:#181818;stroke-width:0.20000000000000004;" width="76.4" x="1015.4" y="56.9625"/><text fill="#000000" font-family="sans-serif" font-size="5.6" lengthAdjust="spacing" textLength="70.8" x="1018.2" y="65.8055">powerSourceSensor:Sensor</text><rect fill="#E2E2F0" height="20.4969" rx="1" ry="1" style="stroke:#181818;stroke-width:0.20000000000000004;" width="78" x="1095.8" y="49.5141"/><text fill="#000000" font-family="sans-serif" font-size="5.6" font-style="italic" lengthAdjust="spacing" textLength="35.6" x="1117" y="58.357">&#171;Component&#187;</text><text fill="#000000" font-family="sans-serif" font-size="5.6" lengthAdjust="spacing" textLength="72.4" x="1098.6" y="65.8055">:InstantTimeValueRepository</text><rect fill="#E2E2F0" height="20.4969" rx="1" ry="1" style="stroke:#181818;stroke-width:0.20000000000000004;" width="48.4" x="1296.2" y="49.5141"/><text fill="#000000" font-family="sans-serif" font-size="5.6" font-style="italic" lengthAdjust="spacing" textLength="35.6" x="1302.6" y="58.357">&#171;Component&#187;</text><text fill="#000000" font-family="sans-serif" font-size="5.6" lengthAdjust="spacing" textLength="42.8" x="1299" y="65.8055">:Database Driver</text><rect fill="#E2E2F0" height="20.4969" rx="1" ry="1" style="stroke:#181818;stroke-width:0.20000000000000004;" width="41.2" x="100.2" y="807.3563"/><text fill="#000000" font-family="sans-serif" font-size="5.6" font-style="italic" lengthAdjust="spacing" textLength="35.6" x="103" y="816.1992">&#171;Component&#187;</text><text fill="#000000" font-family="sans-serif" font-size="5.6" lengthAdjust="spacing" textLength="18.8" x="111.4" y="823.6477">:Router</text><rect fill="#E2E2F0" height="20.4969" rx="1" ry="1" style="stroke:#181818;stroke-width:0.20000000000000004;" width="59.6" x="202.2" y="807.3563"/><text fill="#000000" font-family="sans-serif" font-size="5.6" font-style="italic" lengthAdjust="spacing" textLength="35.6" x="214.2" y="816.1992">&#171;Component&#187;</text><text fill="#000000" font-family="sans-serif" font-size="5.6" lengthAdjust="spacing" textLength="54" x="205" y="823.6477">:HouseWebController</text><rect fill="#E2E2F0" height="20.4969" rx="1" ry="1" style="stroke:#181818;stroke-width:0.20000000000000004;" width="54.4" x="280.4" y="807.3563"/><text fill="#000000" font-family="sans-serif" font-size="5.6" font-style="italic" lengthAdjust="spacing" textLength="35.6" x="289.8" y="816.1992">&#171;Component&#187;</text><text fill="#000000" font-family="sans-serif" font-size="5.6" lengthAdjust="spacing" textLength="48.8" x="283.2" y="823.6477">:PeakPowerService</text><rect fill="#E2E2F0" height="20.4969" rx="1" ry="1" style="stroke:#181818;stroke-width:0.20000000000000004;" width="45.2" x="405" y="807.3563"/><text fill="#000000" font-family="sans-serif" font-size="5.6" font-style="italic" lengthAdjust="spacing" textLength="35.6" x="409.8" y="816.1992">&#171;Component&#187;</text><text fill="#000000" font-family="sans-serif" font-size="5.6" lengthAdjust="spacing" textLength="39.6" x="407.8" y="823.6477">:Config Scraper</text><rect fill="#E2E2F0" height="13.0484" rx="1" ry="1" style="stroke:#181818;stroke-width:0.20000000000000004;" width="60" x="454.2" y="807.3563"/><text fill="#000000" font-family="sans-serif" font-size="5.6" lengthAdjust="spacing" textLength="54.4" x="457" y="816.1992">gridPowerID:DeviceID</text><rect fill="#E2E2F0" height="13.0484" rx="1" ry="1" style="stroke:#181818;stroke-width:0.20000000000000004;" width="100.4" x="518.2" y="807.3563"/><text fill="#000000" font-family="sans-serif" font-size="5.6" lengthAdjust="spacing" textLength="94.8" x="521" y="816.1992">gridPowerFunc:SensorFunctionalityID</text><rect fill="#E2E2F0" height="20.4969" rx="1" ry="1" style="stroke:#181818;stroke-width:0.20000000000000004;" width="52.4" x="622.6" y="807.3563"/><text fill="#000000" font-family="sans-serif" font-size="5.6" font-style="italic" lengthAdjust="spacing" textLength="35.6" x="631" y="816.1992">&#171;Component&#187;</text><text fill="#000000" font-family="sans-serif" font-size="5.6" lengthAdjust="spacing" textLength="46.8" x="625.4" y="823.6477">:SensorRepository</text><rect fill="#E2E2F0" height="20.4969" rx="1" ry="1" style="stroke:#181818;stroke-width:0.20000000000000004;" width="77.6" x="679" y="807.3563"/><text fill="#000000" font-family="sans-serif" font-size="5.6" font-style="italic" lengthAdjust="spacing" textLength="35.6" x="700" y="816.1992">&#171;Component&#187;</text><text fill="#000000" font-family="sans-serif" font-size="5.6" lengthAdjust="spacing" textLength="72" x="681.8" y="823.6477">:PeriodTimeValueRepository</text><rect fill="#E2E2F0" height="13.0484" rx="1" ry="1" style="stroke:#181818;stroke-width:0.20000000000000004;" width="108.4" x="760.6" y="807.3563"/><text fill="#000000" font-family="sans-serif" font-size="5.6" lengthAdjust="spacing" textLength="102.8" x="763.4" y="816.1992">powerSourceFunc:SensorFunctionalityID</text><rect fill="#E2E2F0" height="20.4969" rx="1" ry="1" style="stroke:#181818;stroke-width:0.20000000000000004;" width="138.4" x="873" y="807.3563"/><text fill="#000000" font-family="sans-serif" font-size="5.6" lengthAdjust="spacing" textLength="72" x="906.2" y="816.1992">mapOfPowerSourcesValues:</text><text fill="#000000" font-family="sans-serif" font-size="5.6" lengthAdjust="spacing" textLength="132.8" x="875.8" y="823.6477">Map&lt;DeviceID,Map&lt;Timestamp, InstantTimeValue&gt;&gt;</text><rect fill="#E2E2F0" height="13.0484" rx="1" ry="1" style="stroke:#181818;stroke-width:0.20000000000000004;" width="76.4" x="1015.4" y="807.3563"/><text fill="#000000" font-family="sans-serif" font-size="5.6" lengthAdjust="spacing" textLength="70.8" x="1018.2" y="816.1992">powerSourceSensor:Sensor</text><rect fill="#E2E2F0" height="20.4969" rx="1" ry="1" style="stroke:#181818;stroke-width:0.20000000000000004;" width="78" x="1095.8" y="807.3563"/><text fill="#000000" font-family="sans-serif" font-size="5.6" font-style="italic" lengthAdjust="spacing" textLength="35.6" x="1117" y="816.1992">&#171;Component&#187;</text><text fill="#000000" font-family="sans-serif" font-size="5.6" lengthAdjust="spacing" textLength="72.4" x="1098.6" y="823.6477">:InstantTimeValueRepository</text><rect fill="#E2E2F0" height="20.4969" rx="1" ry="1" style="stroke:#181818;stroke-width:0.20000000000000004;" width="48.4" x="1296.2" y="807.3563"/><text fill="#000000" font-family="sans-serif" font-size="5.6" font-style="italic" lengthAdjust="spacing" textLength="35.6" x="1302.6" y="816.1992">&#171;Component&#187;</text><text fill="#000000" font-family="sans-serif" font-size="5.6" lengthAdjust="spacing" textLength="42.8" x="1299" y="823.6477">:Database Driver</text><ellipse cx="4.2" cy="82.6273" fill="none" rx="1.6" ry="1.6" style="stroke:#181818;stroke-width:0.6000000000000001;"/><polygon fill="#181818" points="114,81.3273,118,82.9273,114,84.5273,115.6,82.9273" style="stroke:#181818;stroke-width:0.4000000000000001;"/><line style="stroke:#181818;stroke-width:0.4000000000000001;" x1="6" x2="116.4" y1="82.9273" y2="82.9273"/><text fill="#000000" font-family="sans-serif" font-size="5.2" lengthAdjust="spacing" textLength="109.2" x="7.2" y="80.8223">GET /house?givenStart=[start]&amp;givenEnd=[end]</text><polygon fill="#181818" points="225.2,114.593,229.2,116.193,225.2,117.793,226.8,116.193" style="stroke:#181818;stroke-width:0.4000000000000001;"/><line style="stroke:#181818;stroke-width:0.4000000000000001;" x1="122.8" x2="227.6" y1="116.193" y2="116.193"/><text fill="#000000" font-family="sans-serif" font-size="5.2" lengthAdjust="spacing" textLength="50" x="125.6" y="93.3387">getObjectByHouseID(</text><text fill="#000000" font-family="sans-serif" font-size="5.2" lengthAdjust="spacing" textLength="81.6" x="125.6" y="100.2551">@PathVariable("id")String houseID,</text><text fill="#000000" font-family="sans-serif" font-size="5.2" lengthAdjust="spacing" textLength="90.8" x="125.6" y="107.1715">@RequestParam\LocalTime givenStart,</text><text fill="#000000" font-family="sans-serif" font-size="5.2" lengthAdjust="spacing" textLength="99.6" x="125.6" y="114.0879">@RequestParam\LocalDateTime givenEnd)</text><line style="stroke:#181818;stroke-width:0.4000000000000001;" x1="234" x2="252.8" y1="135.6258" y2="135.6258"/><line style="stroke:#181818;stroke-width:0.4000000000000001;" x1="252.8" x2="252.8" y1="135.6258" y2="140.8258"/><line style="stroke:#181818;stroke-width:0.4000000000000001;" x1="236.4" x2="252.8" y1="140.8258" y2="140.8258"/><polygon fill="#181818" points="240.4,139.2258,236.4,140.8258,240.4,142.4258,238.8,140.8258" style="stroke:#181818;stroke-width:0.4000000000000001;"/><text fill="#000000" font-family="sans-serif" font-size="5.2" lengthAdjust="spacing" textLength="64" x="238.8" y="126.6043">getPeakPowerConsumption</text><text fill="#000000" font-family="sans-serif" font-size="5.2" lengthAdjust="spacing" textLength="25.2" x="238.8" y="133.5207">(start, end)</text><polygon fill="#181818" points="300.8,165.575,304.8,167.175,300.8,168.775,302.4,167.175" style="stroke:#181818;stroke-width:0.4000000000000001;"/><line style="stroke:#181818;stroke-width:0.4000000000000001;" x1="236" x2="303.2" y1="167.175" y2="167.175"/><text fill="#000000" font-family="sans-serif" font-size="5.2" lengthAdjust="spacing" textLength="64" x="238.8" y="151.2371">getPeakPowerConsumption</text><text fill="#000000" font-family="sans-serif" font-size="5.2" lengthAdjust="spacing" textLength="40.8" x="238.8" y="158.1535">(Timestamp start,</text><text fill="#000000" font-family="sans-serif" font-size="5.2" lengthAdjust="spacing" textLength="37.2" x="240.4" y="165.0699">Timestamp end)</text><polygon fill="#181818" points="420.8,178.0914,424.8,179.6914,420.8,181.2914,422.4,179.6914" style="stroke:#181818;stroke-width:0.4000000000000001;"/><line style="stroke:#181818;stroke-width:0.4000000000000001;" x1="309.6" x2="423.2" y1="179.6914" y2="179.6914"/><text fill="#000000" font-family="sans-serif" font-size="5.2" lengthAdjust="spacing" textLength="54.8" x="312.4" y="177.5863">loadGridPowerMeterID()</text><polygon fill="#181818" points="314,190.6078,310,192.2078,314,193.8078,312.4,192.2078" style="stroke:#181818;stroke-width:0.4000000000000001;"/><line style="stroke:#181818;stroke-width:0.4000000000000001;stroke-dasharray:2.0,2.0;" x1="311.6" x2="425.2" y1="192.2078" y2="192.2078"/><text fill="#000000" font-family="sans-serif" font-size="5.2" lengthAdjust="spacing" textLength="67.2" x="316.4" y="190.1027">String devicePowerGridName</text><polygon fill="#181818" points="420.8,203.1242,424.8,204.7242,420.8,206.3242,422.4,204.7242" style="stroke:#181818;stroke-width:0.4000000000000001;"/><line style="stroke:#181818;stroke-width:0.4000000000000001;" x1="309.6" x2="423.2" y1="204.7242" y2="204.7242"/><text fill="#000000" font-family="sans-serif" font-size="5.2" lengthAdjust="spacing" textLength="96" x="312.4" y="202.6191">loadGridPowerMeterSensorFunctionality()</text><polygon fill="#181818" points="314,215.6406,310,217.2406,314,218.8406,312.4,217.2406" style="stroke:#181818;stroke-width:0.4000000000000001;"/><line style="stroke:#181818;stroke-width:0.4000000000000001;stroke-dasharray:2.0,2.0;" x1="311.6" x2="425.2" y1="217.2406" y2="217.2406"/><text fill="#000000" font-family="sans-serif" font-size="5.2" lengthAdjust="spacing" textLength="83.2" x="316.4" y="215.1355">String devicePowerGridFunctionality</text><polygon fill="#181818" points="420.8,228.157,424.8,229.757,420.8,231.357,422.4,229.757" style="stroke:#181818;stroke-width:0.4000000000000001;"/><line style="stroke:#181818;stroke-width:0.4000000000000001;" x1="309.6" x2="423.2" y1="229.757" y2="229.757"/><text fill="#000000" font-family="sans-serif" font-size="5.2" lengthAdjust="spacing" textLength="89.6" x="312.4" y="227.652">loadPowerSourceSensorFunctionality()</text><polygon fill="#181818" points="314,240.6734,310,242.2734,314,243.8734,312.4,242.2734" style="stroke:#181818;stroke-width:0.4000000000000001;"/><line style="stroke:#181818;stroke-width:0.4000000000000001;stroke-dasharray:2.0,2.0;" x1="311.6" x2="425.2" y1="242.2734" y2="242.2734"/><text fill="#000000" font-family="sans-serif" font-size="5.2" lengthAdjust="spacing" textLength="74.8" x="316.4" y="240.1684">String powerSourceFunctionality</text><rect fill="#E2E2F0" height="13.0484" rx="1" ry="1" style="stroke:#181818;stroke-width:0.20000000000000004;" width="60" x="454.2" y="245.4734"/><text fill="#000000" font-family="sans-serif" font-size="5.6" lengthAdjust="spacing" textLength="54.4" x="457" y="254.3164">gridPowerID:DeviceID</text><polygon fill="#181818" points="449.4,253.1898,453.4,254.7898,449.4,256.3898,451,254.7898" style="stroke:#181818;stroke-width:0.4000000000000001;"/><line style="stroke:#181818;stroke-width:0.4000000000000001;stroke-dasharray:2.0,2.0;" x1="309.6" x2="451.8" y1="254.7898" y2="254.7898"/><text fill="#000000" font-family="sans-serif" font-size="5.2" lengthAdjust="spacing" textLength="20" x="312.4" y="252.6848">&#171;create&#187;</text><rect fill="#E2E2F0" height="13.0484" rx="1" ry="1" style="stroke:#181818;stroke-width:0.20000000000000004;" width="100.4" x="518.2" y="258.9219"/><text fill="#000000" font-family="sans-serif" font-size="5.6" lengthAdjust="spacing" textLength="94.8" x="521" y="267.7648">gridPowerFunc:SensorFunctionalityID</text><polygon fill="#181818" points="513.4,266.6383,517.4,268.2383,513.4,269.8383,515,268.2383" style="stroke:#181818;stroke-width:0.4000000000000001;"/><line style="stroke:#181818;stroke-width:0.4000000000000001;stroke-dasharray:2.0,2.0;" x1="309.6" x2="515.8" y1="268.2383" y2="268.2383"/><text fill="#000000" font-family="sans-serif" font-size="5.2" lengthAdjust="spacing" textLength="20" x="312.4" y="266.1332">&#171;create&#187;</text><polygon fill="#181818" points="642,287.0031,646,288.6031,642,290.2031,643.6,288.6031" style="stroke:#181818;stroke-width:0.4000000000000001;"/><line style="stroke:#181818;stroke-width:0.4000000000000001;" x1="309.6" x2="644.4" y1="288.6031" y2="288.6031"/><text fill="#000000" font-family="sans-serif" font-size="5.2" lengthAdjust="spacing" textLength="89.6" x="312.4" y="279.5816">findByDeviceIDAndSensorFunctionality</text><text fill="#000000" font-family="sans-serif" font-size="5.2" lengthAdjust="spacing" textLength="68.4" x="312.4" y="286.498">(gridPowerID, gridPowerFunc)</text><polygon fill="#181818" points="1313.6,306.4359,1317.6,308.0359,1313.6,309.6359,1315.2,308.0359" style="stroke:#181818;stroke-width:0.4000000000000001;"/><line style="stroke:#181818;stroke-width:0.4000000000000001;" x1="650.8" x2="1316" y1="308.0359" y2="308.0359"/><text fill="#000000" font-family="sans-serif" font-size="5.2" lengthAdjust="spacing" textLength="94.4" x="653.6" y="299.0145">findByDeviceIDAndSensorFunctionalityID</text><text fill="#000000" font-family="sans-serif" font-size="5.2" lengthAdjust="spacing" textLength="68.4" x="653.6" y="305.9309">(gridPowerID, gridPowerFunc)</text><ellipse cx="1386.6" cy="320.2523" fill="none" rx="1.6" ry="1.6" style="stroke:#181818;stroke-width:0.6000000000000001;"/><polygon fill="#181818" points="1379.8,318.9523,1383.8,320.5523,1379.8,322.1523,1381.4,320.5523" style="stroke:#181818;stroke-width:0.4000000000000001;"/><line style="stroke:#181818;stroke-width:0.4000000000000001;" x1="1322.4" x2="1382.2" y1="320.5523" y2="320.5523"/><text fill="#000000" font-family="sans-serif" font-size="5.2" lengthAdjust="spacing" textLength="48" x="1325.2" y="318.4473">DATABASE QUERY</text><polygon fill="#181818" points="1326.8,331.4688,1322.8,333.0688,1326.8,334.6688,1325.2,333.0688" style="stroke:#181818;stroke-width:0.4000000000000001;"/><ellipse cx="1386.6" cy="332.7688" fill="none" rx="1.6" ry="1.6" style="stroke:#181818;stroke-width:0.6000000000000001;"/><line style="stroke:#181818;stroke-width:0.4000000000000001;stroke-dasharray:2.0,2.0;" x1="1324.4" x2="1384.8" y1="333.0688" y2="333.0688"/><text fill="#000000" font-family="sans-serif" font-size="5.2" lengthAdjust="spacing" textLength="49.2" x="1329.2" y="330.9637">QUERY RESPONSE</text><polygon fill="#181818" points="655.2,343.9852,651.2,345.5852,655.2,347.1852,653.6,345.5852" style="stroke:#181818;stroke-width:0.4000000000000001;"/><line style="stroke:#181818;stroke-width:0.4000000000000001;stroke-dasharray:2.0,2.0;" x1="652.8" x2="1318" y1="345.5852" y2="345.5852"/><text fill="#000000" font-family="sans-serif" font-size="5.2" lengthAdjust="spacing" textLength="112.8" x="657.6" y="343.4801">Iterable&lt;SensorDataModel&gt; lstSensorDataModel</text><polygon fill="#181818" points="314,356.5016,310,358.1016,314,359.7016,312.4,358.1016" style="stroke:#181818;stroke-width:0.4000000000000001;"/><line style="stroke:#181818;stroke-width:0.4000000000000001;stroke-dasharray:2.0,2.0;" x1="311.6" x2="646.4" y1="358.1016" y2="358.1016"/><text fill="#000000" font-family="sans-serif" font-size="5.2" lengthAdjust="spacing" textLength="33.6" x="316.4" y="355.9965">Sensor sensor</text><polygon fill="#181818" points="711,369.018,715,370.618,711,372.218,712.6,370.618" style="stroke:#181818;stroke-width:0.4000000000000001;"/><line style="stroke:#181818;stroke-width:0.4000000000000001;" x1="309.6" x2="713.4" y1="370.618" y2="370.618"/><text fill="#000000" font-family="sans-serif" font-size="5.2" lengthAdjust="spacing" textLength="151.6" x="312.4" y="368.5129">findBySensorIdBetweenPeriodOfTime(sensor.identity(), start, end)</text><polygon fill="#181818" points="1313.6,388.4508,1317.6,390.0508,1313.6,391.6508,1315.2,390.0508" style="stroke:#181818;stroke-width:0.4000000000000001;"/><line style="stroke:#181818;stroke-width:0.4000000000000001;" x1="719.8" x2="1316" y1="390.0508" y2="390.0508"/><text fill="#000000" font-family="sans-serif" font-size="5.2" lengthAdjust="spacing" textLength="174" x="722.6" y="381.0293">findBySensorIDAndStartTimeGreaterThanEqualAndEndTimeLessThanEqual</text><text fill="#000000" font-family="sans-serif" font-size="5.2" lengthAdjust="spacing" textLength="71.6" x="722.6" y="387.9457">(sensorID.toString(), start, end)</text><ellipse cx="1386.6" cy="402.2672" fill="none" rx="1.6" ry="1.6" style="stroke:#181818;stroke-width:0.6000000000000001;"/><polygon fill="#181818" points="1379.8,400.9672,1383.8,402.5672,1379.8,404.1672,1381.4,402.5672" style="stroke:#181818;stroke-width:0.4000000000000001;"/><line style="stroke:#181818;stroke-width:0.4000000000000001;" x1="1322.4" x2="1382.2" y1="402.5672" y2="402.5672"/><text fill="#000000" font-family="sans-serif" font-size="5.2" lengthAdjust="spacing" textLength="48" x="1325.2" y="400.4621">DATABASE QUERY</text><polygon fill="#181818" points="1326.8,413.4836,1322.8,415.0836,1326.8,416.6836,1325.2,415.0836" style="stroke:#181818;stroke-width:0.4000000000000001;"/><ellipse cx="1386.6" cy="414.7836" fill="none" rx="1.6" ry="1.6" style="stroke:#181818;stroke-width:0.6000000000000001;"/><line style="stroke:#181818;stroke-width:0.4000000000000001;stroke-dasharray:2.0,2.0;" x1="1324.4" x2="1384.8" y1="415.0836" y2="415.0836"/><text fill="#000000" font-family="sans-serif" font-size="5.2" lengthAdjust="spacing" textLength="49.2" x="1329.2" y="412.9785">QUERY RESPONSE</text><polygon fill="#181818" points="724.2,426,720.2,427.6,724.2,429.2,722.6,427.6" style="stroke:#181818;stroke-width:0.4000000000000001;"/><line style="stroke:#181818;stroke-width:0.4000000000000001;stroke-dasharray:2.0,2.0;" x1="721.8" x2="1318" y1="427.6" y2="427.6"/><text fill="#000000" font-family="sans-serif" font-size="5.2" lengthAdjust="spacing" textLength="151.2" x="726.6" y="425.4949">List&lt;PeriodTimeValueDataModel&gt; listPeriodTimeValueDataModel</text><polygon fill="#181818" points="314,438.5164,310,440.1164,314,441.7164,312.4,440.1164" style="stroke:#181818;stroke-width:0.4000000000000001;"/><line style="stroke:#181818;stroke-width:0.4000000000000001;stroke-dasharray:2.0,2.0;" x1="311.6" x2="715.4" y1="440.1164" y2="440.1164"/><text fill="#000000" font-family="sans-serif" font-size="5.2" lengthAdjust="spacing" textLength="68.8" x="316.4" y="438.0113">List&lt;Value&gt; powerGridValues</text><rect fill="#E2E2F0" height="13.0484" rx="1" ry="1" style="stroke:#181818;stroke-width:0.20000000000000004;" width="108.4" x="760.6" y="443.3164"/><text fill="#000000" font-family="sans-serif" font-size="5.6" lengthAdjust="spacing" textLength="102.8" x="763.4" y="452.1594">powerSourceFunc:SensorFunctionalityID</text><polygon fill="#181818" points="755.8,451.0328,759.8,452.6328,755.8,454.2328,757.4,452.6328" style="stroke:#181818;stroke-width:0.4000000000000001;"/><line style="stroke:#181818;stroke-width:0.4000000000000001;stroke-dasharray:2.0,2.0;" x1="309.6" x2="758.2" y1="452.6328" y2="452.6328"/><text fill="#000000" font-family="sans-serif" font-size="5.2" lengthAdjust="spacing" textLength="20" x="312.4" y="450.5277">&#171;create&#187;</text><polygon fill="#181818" points="642,464.4813,646,466.0813,642,467.6813,643.6,466.0813" style="stroke:#181818;stroke-width:0.4000000000000001;"/><line style="stroke:#181818;stroke-width:0.4000000000000001;" x1="309.6" x2="644.4" y1="466.0813" y2="466.0813"/><text fill="#000000" font-family="sans-serif" font-size="5.2" lengthAdjust="spacing" textLength="105.2" x="312.4" y="463.9762">findBySensorFunctionality(powerSourceFunc)</text><polygon fill="#181818" points="314,476.9977,310,478.5977,314,480.1977,312.4,478.5977" style="stroke:#181818;stroke-width:0.4000000000000001;"/><line style="stroke:#181818;stroke-width:0.4000000000000001;stroke-dasharray:2.0,2.0;" x1="311.6" x2="646.4" y1="478.5977" y2="478.5977"/><text fill="#000000" font-family="sans-serif" font-size="5.2" lengthAdjust="spacing" textLength="118" x="316.4" y="476.4926">Iterable&lt;Sensor&gt; listOfSensorsFromPowerSources</text><rect fill="#E2E2F0" height="20.4969" rx="1" ry="1" style="stroke:#181818;stroke-width:0.20000000000000004;" width="138.4" x="873" y="481.7977"/><text fill="#000000" font-family="sans-serif" font-size="5.6" lengthAdjust="spacing" textLength="72" x="906.2" y="490.6406">mapOfPowerSourcesValues:</text><text fill="#000000" font-family="sans-serif" font-size="5.6" lengthAdjust="spacing" textLength="132.8" x="875.8" y="498.0891">Map&lt;DeviceID,Map&lt;Timestamp, InstantTimeValue&gt;&gt;</text><polygon fill="#181818" points="868.2,489.5141,872.2,491.1141,868.2,492.7141,869.8,491.1141" style="stroke:#181818;stroke-width:0.4000000000000001;"/><line style="stroke:#181818;stroke-width:0.4000000000000001;stroke-dasharray:2.0,2.0;" x1="309.6" x2="870.6" y1="491.1141" y2="491.1141"/><text fill="#000000" font-family="sans-serif" font-size="5.2" lengthAdjust="spacing" textLength="20" x="312.4" y="489.009">&#171;create&#187;</text><path d="M293.6,504.2945 L322.8,504.2945 L322.8,508.0109 L318.8,512.0109 L293.6,512.0109 L293.6,504.2945 " fill="#EEEEEE" style="stroke:#000000;stroke-width:0.6000000000000001;"/><rect fill="none" height="169.6297" style="stroke:#000000;stroke-width:0.6000000000000001;" width="1092" x="293.6" y="504.2945"/><text fill="#000000" font-family="sans-serif" font-size="5.2" font-weight="bold" lengthAdjust="spacing" textLength="11.2" x="299.6" y="510.3059">loop</text><text fill="#000000" font-family="sans-serif" font-size="4.4" font-weight="bold" lengthAdjust="spacing" textLength="119.6" x="328.8" y="509.8426">[for each Sensor in listOfSensorsFromPowerSources]</text><polygon fill="#181818" points="1046.8,523.7273,1050.8,525.3273,1046.8,526.9273,1048.4,525.3273" style="stroke:#181818;stroke-width:0.4000000000000001;"/><line style="stroke:#181818;stroke-width:0.4000000000000001;" x1="309.6" x2="1049.2" y1="525.3273" y2="525.3273"/><text fill="#000000" font-family="sans-serif" font-size="5.2" lengthAdjust="spacing" textLength="30.4" x="312.4" y="523.2223">getDeviceID()</text><polygon fill="#181818" points="314,536.2438,310,537.8438,314,539.4438,312.4,537.8438" style="stroke:#181818;stroke-width:0.4000000000000001;"/><line style="stroke:#181818;stroke-width:0.4000000000000001;stroke-dasharray:2.0,2.0;" x1="311.6" x2="1051.2" y1="537.8438" y2="537.8438"/><text fill="#000000" font-family="sans-serif" font-size="5.2" lengthAdjust="spacing" textLength="76.8" x="316.4" y="535.7387">DeviceID deviceIDOfPowerSource</text><polygon fill="#181818" points="1128,548.7602,1132,550.3602,1128,551.9602,1129.6,550.3602" style="stroke:#181818;stroke-width:0.4000000000000001;"/><line style="stroke:#181818;stroke-width:0.4000000000000001;" x1="309.6" x2="1130.4" y1="550.3602" y2="550.3602"/><text fill="#000000" font-family="sans-serif" font-size="5.2" lengthAdjust="spacing" textLength="152.4" x="312.4" y="548.2551">findBySensorIDBetweenPeriodOfTime(sensor.identity(), start, end)</text><polygon fill="#181818" points="1313.6,568.193,1317.6,569.793,1313.6,571.393,1315.2,569.793" style="stroke:#181818;stroke-width:0.4000000000000001;"/><line style="stroke:#181818;stroke-width:0.4000000000000001;" x1="1136.8" x2="1316" y1="569.793" y2="569.793"/><text fill="#000000" font-family="sans-serif" font-size="5.2" lengthAdjust="spacing" textLength="174" x="1139.6" y="560.7715">findBySensorIDAndStartTimeGreaterThanEqualAndEndTimeLessThanEqual</text><text fill="#000000" font-family="sans-serif" font-size="5.2" lengthAdjust="spacing" textLength="71.6" x="1139.6" y="567.6879">(sensorID.toString(), start, end)</text><ellipse cx="1386.6" cy="582.0094" fill="none" rx="1.6" ry="1.6" style="stroke:#181818;stroke-width:0.6000000000000001;"/><polygon fill="#181818" points="1379.8,580.7094,1383.8,582.3094,1379.8,583.9094,1381.4,582.3094" style="stroke:#181818;stroke-width:0.4000000000000001;"/><line style="stroke:#181818;stroke-width:0.4000000000000001;" x1="1322.4" x2="1382.2" y1="582.3094" y2="582.3094"/><text fill="#000000" font-family="sans-serif" font-size="5.2" lengthAdjust="spacing" textLength="48" x="1325.2" y="580.2043">DATABASE QUERY</text><polygon fill="#181818" points="1326.8,593.2258,1322.8,594.8258,1326.8,596.4258,1325.2,594.8258" style="stroke:#181818;stroke-width:0.4000000000000001;"/><ellipse cx="1386.6" cy="594.5258" fill="none" rx="1.6" ry="1.6" style="stroke:#181818;stroke-width:0.6000000000000001;"/><line style="stroke:#181818;stroke-width:0.4000000000000001;stroke-dasharray:2.0,2.0;" x1="1324.4" x2="1384.8" y1="594.8258" y2="594.8258"/><text fill="#000000" font-family="sans-serif" font-size="5.2" lengthAdjust="spacing" textLength="49.2" x="1329.2" y="592.7207">QUERY RESPONSE</text><polygon fill="#181818" points="1141.2,605.7422,1137.2,607.3422,1141.2,608.9422,1139.6,607.3422" style="stroke:#181818;stroke-width:0.4000000000000001;"/><line style="stroke:#181818;stroke-width:0.4000000000000001;stroke-dasharray:2.0,2.0;" x1="1138.8" x2="1318" y1="607.3422" y2="607.3422"/><text fill="#000000" font-family="sans-serif" font-size="5.2" lengthAdjust="spacing" textLength="152" x="1143.6" y="605.2371">List&lt;InstantTimeValueDataModel&gt; listPeriodTimeValueDataModel</text><polygon fill="#181818" points="314,618.2586,310,619.8586,314,621.4586,312.4,619.8586" style="stroke:#181818;stroke-width:0.4000000000000001;"/><line style="stroke:#181818;stroke-width:0.4000000000000001;stroke-dasharray:2.0,2.0;" x1="311.6" x2="1132.4" y1="619.8586" y2="619.8586"/><text fill="#000000" font-family="sans-serif" font-size="5.2" lengthAdjust="spacing" textLength="75.6" x="316.4" y="617.7535">List&lt;Value&gt; powerSourceValues</text><polygon fill="#181818" points="935.4,630.775,939.4,632.375,935.4,633.975,937,632.375" style="stroke:#181818;stroke-width:0.4000000000000001;"/><line style="stroke:#181818;stroke-width:0.4000000000000001;" x1="309.6" x2="937.8" y1="632.375" y2="632.375"/><text fill="#000000" font-family="sans-serif" font-size="5.2" lengthAdjust="spacing" textLength="155.2" x="312.4" y="630.2699">computeIfAbsent (deviceIDOfPowerSource, k -&gt; new Hashmap&lt;&gt;())</text><path d="M301.2,637.175 L330.4,637.175 L330.4,640.8914 L326.4,644.8914 L301.2,644.8914 L301.2,637.175 " fill="#EEEEEE" style="stroke:#000000;stroke-width:0.6000000000000001;"/><rect fill="none" height="31.1492" style="stroke:#000000;stroke-width:0.6000000000000001;" width="716.6" x="301.2" y="637.175"/><text fill="#000000" font-family="sans-serif" font-size="5.2" font-weight="bold" lengthAdjust="spacing" textLength="11.2" x="307.2" y="643.1863">loop</text><text fill="#000000" font-family="sans-serif" font-size="4.4" font-weight="bold" lengthAdjust="spacing" textLength="86.4" x="336.4" y="642.723">[for each Value in powerSourceValues]</text><polygon fill="#181818" points="935.4,663.5242,939.4,665.1242,935.4,666.7242,937,665.1242" style="stroke:#181818;stroke-width:0.4000000000000001;"/><line style="stroke:#181818;stroke-width:0.4000000000000001;" x1="309.6" x2="937.8" y1="665.1242" y2="665.1242"/><text fill="#000000" font-family="sans-serif" font-size="5.2" lengthAdjust="spacing" textLength="65.6" x="312.4" y="656.1027">put(deviceIDOfPowerSource,</text><text fill="#000000" font-family="sans-serif" font-size="5.2" lengthAdjust="spacing" textLength="88.8" x="314" y="663.0191">Value.getInstantTimeReading(), Value)</text><line style="stroke:#181818;stroke-width:0.4000000000000001;" x1="309.6" x2="328.4" y1="695.757" y2="695.757"/><line style="stroke:#181818;stroke-width:0.4000000000000001;" x1="328.4" x2="328.4" y1="695.757" y2="700.957"/><line style="stroke:#181818;stroke-width:0.4000000000000001;" x1="312" x2="328.4" y1="700.957" y2="700.957"/><polygon fill="#181818" points="316,699.357,312,700.957,316,702.557,314.4,700.957" style="stroke:#181818;stroke-width:0.4000000000000001;"/><text fill="#000000" font-family="sans-serif" font-size="5.2" lengthAdjust="spacing" textLength="77.6" x="314.4" y="686.7355">calculatePeakPowerConsumption</text><text fill="#000000" font-family="sans-serif" font-size="5.2" lengthAdjust="spacing" textLength="110.4" x="314.4" y="693.652">(powerGridValues, mapOfPowerSourcesValues)</text><rect fill="none" height="17.3008" style="stroke:#000000;stroke-width:0.6000000000000001;" width="103.2" x="281.2" y="704.157"/><path d="M281.2,704.157 L306,704.157 L306,707.757 L302,711.757 L281.2,711.757 L281.2,704.157 " fill="#EEEEEE" style="stroke:#000000;stroke-width:0.8000000000000002;"/><text fill="#000000" font-family="sans-serif" font-size="5.2" font-weight="bold" lengthAdjust="spacing" textLength="6.8" x="286.4" y="710.5684">ref</text><text fill="#000000" font-family="sans-serif" font-size="4.8" lengthAdjust="spacing" textLength="100" x="282.8" y="718.5367">UC36-SD_Part2-GetPeakPowerConsumption</text><line style="stroke:#181818;stroke-width:0.4000000000000001;stroke-dasharray:2.0,2.0;" x1="311.6" x2="328.4" y1="732.7742" y2="732.7742"/><line style="stroke:#181818;stroke-width:0.4000000000000001;stroke-dasharray:2.0,2.0;" x1="328.4" x2="328.4" y1="732.7742" y2="737.9742"/><line style="stroke:#181818;stroke-width:0.4000000000000001;stroke-dasharray:2.0,2.0;" x1="309.6" x2="328.4" y1="737.9742" y2="737.9742"/><polygon fill="#181818" points="313.6,736.3742,309.6,737.9742,313.6,739.5742,312,737.9742" style="stroke:#181818;stroke-width:0.4000000000000001;"/><text fill="#000000" font-family="sans-serif" font-size="5.2" lengthAdjust="spacing" textLength="72.8" x="314.4" y="730.6691">double peakPowerConsumption</text><polygon fill="#181818" points="240.4,748.8906,236.4,750.4906,240.4,752.0906,238.8,750.4906" style="stroke:#181818;stroke-width:0.4000000000000001;"/><line style="stroke:#181818;stroke-width:0.4000000000000001;stroke-dasharray:2.0,2.0;" x1="238" x2="305.2" y1="750.4906" y2="750.4906"/><text fill="#000000" font-family="sans-serif" font-size="5.2" lengthAdjust="spacing" textLength="56" x="242.8" y="748.3855">peakPowerConsumption</text><line style="stroke:#181818;stroke-width:0.4000000000000001;stroke-dasharray:2.0,2.0;" x1="236" x2="252.8" y1="763.007" y2="763.007"/><line style="stroke:#181818;stroke-width:0.4000000000000001;stroke-dasharray:2.0,2.0;" x1="252.8" x2="252.8" y1="763.007" y2="768.207"/><line style="stroke:#181818;stroke-width:0.4000000000000001;stroke-dasharray:2.0,2.0;" x1="234" x2="252.8" y1="768.207" y2="768.207"/><polygon fill="#181818" points="238,766.607,234,768.207,238,769.807,236.4,768.207" style="stroke:#181818;stroke-width:0.4000000000000001;"/><text fill="#000000" font-family="sans-serif" font-size="5.2" lengthAdjust="spacing" textLength="25.6" x="238.8" y="760.902">peakPower</text><polygon fill="#181818" points="127.2,779.1234,123.2,780.7234,127.2,782.3234,125.6,780.7234" style="stroke:#181818;stroke-width:0.4000000000000001;"/><line style="stroke:#181818;stroke-width:0.4000000000000001;stroke-dasharray:2.0,2.0;" x1="124.8" x2="229.6" y1="780.7234" y2="780.7234"/><text fill="#000000" font-family="sans-serif" font-size="5.2" lengthAdjust="spacing" textLength="62.8" x="129.6" y="778.6184">peakPower, HttpStatus.OK</text><ellipse cx="4.2" cy="799.8563" fill="none" rx="1.6" ry="1.6" style="stroke:#181818;stroke-width:0.6000000000000001;"/><polygon fill="#181818" points="11,798.5563,7,800.1563,11,801.7563,9.4,800.1563" style="stroke:#181818;stroke-width:0.4000000000000001;"/><line style="stroke:#181818;stroke-width:0.4000000000000001;stroke-dasharray:2.0,2.0;" x1="10.2" x2="118.4" y1="800.1563" y2="800.1563"/><text fill="#000000" font-family="sans-serif" font-size="5.2" lengthAdjust="spacing" textLength="42.4" x="11.2" y="791.1348">JSON peakPower,</text><text fill="#000000" font-family="sans-serif" font-size="5.2" lengthAdjust="spacing" textLength="34" x="11.2" y="798.0512">HttpStatus.OK</text><!--SRC=[nLXjRwD64FxkNp5DfUP5TjfxwPrakMwnmGuzOYZWH55ogh1PnpGsSB3EDVtrdTtbPS7W92TLzHV3ximpipCxp-n20xeXC1-_-m0zc18A5l4Um8g-aWIMKPZkjZ4DeX2Y5T0rWOjebn88Gl3WFdWa8SGa2I8VTIqleV2cq_akJhpxhGUKHFy0JNQaWxz5z3SS3GRERk4yfPHiXyExi3_obWyaz8_WUzLB7gO9UH9oC1YCev1wGKWIBkYGv94aA6S4zslA1JincWkMGUo558xwThIZJC9B8U6F76CRHo49wN1Oa-QBk2OBPYM9DfjCSrcy7jHc0UBnOMu5Iy9rK_5yK17DhO9xS9Q95vScSIWREQHydmG-DwghVPKmKxhA4UvZNrTRP2UxS8d12zE8Fx8yUfk0FXMgavg7GjOcSPG6D4gUH43nLKmy4nQs4TnWIwwypOxKGCGsOOE7G68UrcYNBCapliTfpVUj5vihgzHFkHTf_owyzE917h8kUs4-fjJRnbtGGtm8QU7rSCZHMy1QdHL-Pkvc_ecNMf3gzcfH2iJqSs7ggnxr5XuMefe4ZzbMyXVYfQROmGe3B2jMXRTHRvZLHn-ccWi_hbab_CehsQ5eufVRbFrz_e4FQQ7_ootgV-vuc817Zv9CktEipLHmjB6hcpFugTCvpf_Vz46VkPgjYDUHvbvhsWmKopBqiSB755HL5LSPAOxMoQeL_PAghm_tX9gBlyYIZfvuiUhgoLtuc-NHzPMN1DvYGqwE0l_erA594Dx3MiXqKSOcNp1J5Dd8szuPqTBRi613kSGkD4fXI4afYIi_BHTTkiPMEXzbY-q0_YIt6nPHSCMufDAxy2GLZX1cXO4qMTe7ppdc47Anjq7Ok0kX7Dgtbq7omHnUB4EYfJvi8i-VvgnoIIYZePDzrqkTt7i9fLTPGPOudzSbXsNuCs_x3Ruqi4JctEizgA2yn1MhpWBVw4UD-ge- -AGbp5KF4PUtWxCpn1qCbWb13UI0VQ59aqYbgDyU2_2Yij_rOQmO1WhC7DC6MxDCHtTD-mPS4oOwL-KpenjGjIjzh86kycBFnYVp6KTI3DszEHRW7D7IRDrKuKenvXh7POYsvjgwTgK1a-1J3amGnRtGdHpnMiUt6GvfCDMla6O4qd4zRr87wyCg2FtHKzuGbD1lI1iMajHmkr3fgBLzNuBpSSaMMYv8-MLsTVKrbdDmiKLoIxrXzBbV42pyCTVicwh4eDTZ8dm6u-nOvWoPk0fIZvgETSPeTo16M0EwZ7oo6S8cfRMn-fQj-2d7fre7OZ0jGob1I46k9rSwMUH15fAwFoBqAo6XE9cOAqQ49mB_FF2nFV82xK8h6vVGV5oor9JQp2fFBKDavgQylX9txONQbvstmJbiBMp686bQ3BEMa6cVqqWmma7F_kFKLs9g12aTr4vtSlvnkctsu4wGmrdP2ToWE8u9McJ4d9t0Qe2r35KOx5sTmTuZWzcQucfWcTUQ3Ouvjv6bAhoKSzQKav34TMmq8wsfhOoWf4A7yn2oaE8sSPnCl7XgFSZDZLJLr5PgtUBbb5G9TAseHIxDbNXB9qcqbS_01sfoB_Rlwx7_kOZzXMce-cmAbuh52Ltq2iPrhdwfEQvoQU6vV8OFCpR0gJyBl66Q5iRPDkVJ2z2KyKMU86m2EZjqZeoy4-18uOj8A4iQTWhTbhF81_BsahMJh1qn9SkqvWPp6fqztc-sBTU4ixDAXhdQ9efYM646C7xhdElm6lrynEjqbnRR0q-1UJl9pXbLzagbxF22InjtGOwH7OLqjRAcGbkkkbJcufg3yXscJetVICYLPKdunQHiyt-YvdPwVXb5lv2czwYw6cvEdVLBvcl8-X1XxqNwC6kB_IFnTWrRJcGnNnB6ERjAigB6yijhFYjKB593Tzo64ctOZsqV1l0alOtnygclb0LccC99u_xlmWD32SbNkF3IDQ8DXYUd3Jbl-sQG2rOPW4yo0cWFrSlMWP77LRJuZhS_BdMEL27j2fjuVhQD-VHfnQQKekVMXBk_p9pC_vWzaOnSeZfRxmuV-DrYp1B9Niq9ah3oAMlJbg6CDPKbVQPTWwehoDoNUsVySYFYPNwvsw3xBLVasf6YsxRA0rVbXAmWOXLOMcLVK7kE-YVx3FgsDss-eEzra5BVZtROYV50qw8bPKNsf1BN3_MuVkopUzJSdidnn7FDs9ovjcaOchr_HYc_EVHVxOtylQ8Dgk52At_og2peut6d1fb_lIhWkd11QOoiJdVfkVcfquny6o6b5ig_EuWj8To5hHX2vLy0]--></g></svg>