<?xml version="1.0" encoding="us-ascii" standalone="no"?><svg xmlns="http://www.w3.org/2000/svg" xmlns:xlink="http://www.w3.org/1999/xlink" contentStyleType="text/css" height="1305px" preserveAspectRatio="none" style="width:3107px;height:1305px;background:#FFFFFF;" version="1.1" viewBox="0 0 3107 1305" width="3107px" zoomAndPan="magnify"><defs/><g><rect fill="#A9A9A9" height="1256.3281" style="stroke:#181818;stroke-width:0.5;" width="2873.5" x="130.5" y="43.4883"/><text fill="#000000" font-family="sans-serif" font-size="13" font-weight="bold" lengthAdjust="spacing" textLength="87" x="1523.25" y="56.0566">&#171;SubSystem&#187;</text><text fill="#000000" font-family="sans-serif" font-size="13" font-weight="bold" lengthAdjust="spacing" textLength="80" x="1527.25" y="71.3672">&#171;Container&#187;</text><text fill="#000000" font-family="sans-serif" font-size="13" font-weight="bold" lengthAdjust="spacing" textLength="60" x="1535.25" y="86.6777">:Backend</text><rect fill="#D3D3D3" height="1205.3965" style="stroke:#181818;stroke-width:0.5;" width="2873.5" x="130.5" y="94.4199"/><text fill="#000000" font-family="sans-serif" font-size="13" font-weight="bold" lengthAdjust="spacing" textLength="92" x="1523.25" y="106.9883">&#171;Component&#187;</text><text fill="#000000" font-family="sans-serif" font-size="13" font-weight="bold" lengthAdjust="spacing" textLength="46" x="1543.25" y="122.2988">:Server</text><text fill="#000000" font-family="sans-serif" font-size="14" font-weight="bold" lengthAdjust="spacing" textLength="251" x="1428.25" y="28.5352">UC37.2 - Close Blind Roller Device</text><line style="stroke:#181818;stroke-width:0.5;stroke-dasharray:5.0,5.0;" x1="189" x2="189" y1="177.0176" y2="1245.8398"/><rect fill="#FFFFFF" height="1021.5117" style="stroke:#181818;stroke-width:1.0;" width="10" x="184" y="206.3281"/><line style="stroke:#181818;stroke-width:0.5;stroke-dasharray:5.0,5.0;" x1="455" x2="455" y1="177.0176" y2="1245.8398"/><rect fill="#FFFFFF" height="964.2695" style="stroke:#181818;stroke-width:1.0;" width="10" x="450" y="281.5703"/><rect fill="#FFFFFF" height="844.0273" style="stroke:#181818;stroke-width:1.0;" width="10" x="455" y="339.1914"/><line style="stroke:#181818;stroke-width:0.5;stroke-dasharray:5.0,5.0;" x1="653" x2="653" y1="347.1914" y2="1245.8398"/><line style="stroke:#181818;stroke-width:0.5;stroke-dasharray:5.0,5.0;" x1="789" x2="789" y1="395.168" y2="1245.8398"/><line style="stroke:#181818;stroke-width:0.5;stroke-dasharray:5.0,5.0;" x1="976.5" x2="976.5" y1="177.0176" y2="1245.8398"/><rect fill="#FFFFFF" height="674.1426" style="stroke:#181818;stroke-width:1.0;" width="10" x="971.5" y="479.7656"/><line style="stroke:#181818;stroke-width:0.5;stroke-dasharray:5.0,5.0;" x1="1262.5" x2="1262.5" y1="177.0176" y2="1245.8398"/><rect fill="#FFFFFF" height="205.1738" style="stroke:#181818;stroke-width:1.0;" width="10" x="1257.5" y="509.0762"/><line style="stroke:#181818;stroke-width:0.5;stroke-dasharray:5.0,5.0;" x1="1584.5" x2="1584.5" y1="177.0176" y2="1245.8398"/><rect fill="#FFFFFF" height="29.3105" style="stroke:#181818;stroke-width:1.0;" width="10" x="1579.5" y="655.6289"/><line style="stroke:#181818;stroke-width:0.5;stroke-dasharray:5.0,5.0;" x1="1756.5" x2="1756.5" y1="177.0176" y2="1245.8398"/><rect fill="#FFFFFF" height="29.3105" style="stroke:#181818;stroke-width:1.0;" width="10" x="1751.5" y="743.5605"/><line style="stroke:#181818;stroke-width:0.5;stroke-dasharray:5.0,5.0;" x1="1904" x2="1904" y1="177.0176" y2="1245.8398"/><line style="stroke:#181818;stroke-width:0.5;stroke-dasharray:5.0,5.0;" x1="2058" x2="2058" y1="177.0176" y2="1245.8398"/><rect fill="#FFFFFF" height="205.1738" style="stroke:#181818;stroke-width:1.0;" width="10" x="2053" y="802.1816"/><line style="stroke:#181818;stroke-width:0.5;stroke-dasharray:5.0,5.0;" x1="2461" x2="2461" y1="177.0176" y2="1245.8398"/><rect fill="#FFFFFF" height="29.3105" style="stroke:#181818;stroke-width:1.0;" width="10" x="2456" y="948.7344"/><line style="stroke:#181818;stroke-width:0.5;stroke-dasharray:5.0,5.0;" x1="2645.5" x2="2645.5" y1="177.0176" y2="1245.8398"/><rect fill="#FFFFFF" height="29.3105" style="stroke:#181818;stroke-width:1.0;" width="10" x="2640.5" y="1036.666"/><line style="stroke:#181818;stroke-width:0.5;stroke-dasharray:5.0,5.0;" x1="2805" x2="2805" y1="177.0176" y2="1245.8398"/><rect fill="#FFFFFF" height="29.3105" style="stroke:#181818;stroke-width:1.0;" width="10" x="2800" y="1095.2871"/><line style="stroke:#181818;stroke-width:0.5;stroke-dasharray:5.0,5.0;" x1="2945.5" x2="2945.5" y1="177.0176" y2="1245.8398"/><rect fill="#FFFFFF" height="87.9316" style="stroke:#181818;stroke-width:1.0;" width="10" x="2940.5" y="538.3867"/><rect fill="#FFFFFF" height="87.9316" style="stroke:#181818;stroke-width:1.0;" width="10" x="2940.5" y="831.4922"/><rect fill="#E2E2F0" height="46.9766" rx="2.5" ry="2.5" style="stroke:#181818;stroke-width:0.5;" width="109" x="134.5" y="129.041"/><text fill="#000000" font-family="sans-serif" font-size="14" font-style="italic" lengthAdjust="spacing" textLength="95" x="141.5" y="149.5762">&#171;Component&#187;</text><text fill="#000000" font-family="sans-serif" font-size="14" lengthAdjust="spacing" textLength="50" x="164" y="166.0645">:Router</text><rect fill="#E2E2F0" height="46.9766" rx="2.5" ry="2.5" style="stroke:#181818;stroke-width:0.5;" width="161" x="374.5" y="129.041"/><text fill="#000000" font-family="sans-serif" font-size="14" font-style="italic" lengthAdjust="spacing" textLength="95" x="407.5" y="149.5762">&#171;Component&#187;</text><text fill="#000000" font-family="sans-serif" font-size="14" lengthAdjust="spacing" textLength="147" x="381.5" y="166.0645">:DeviceControllerWeb</text><rect fill="#E2E2F0" height="46.9766" rx="2.5" ry="2.5" style="stroke:#181818;stroke-width:0.5;" width="178" x="887.5" y="129.041"/><text fill="#000000" font-family="sans-serif" font-size="14" font-style="italic" lengthAdjust="spacing" textLength="95" x="929" y="149.5762">&#171;Component&#187;</text><text fill="#000000" font-family="sans-serif" font-size="14" lengthAdjust="spacing" textLength="164" x="894.5" y="166.0645">:CloseBlindRollerService</text><rect fill="#E2E2F0" height="46.9766" rx="2.5" ry="2.5" style="stroke:#181818;stroke-width:0.5;" width="135" x="1195" y="129.041"/><text fill="#000000" font-family="sans-serif" font-size="14" font-style="italic" lengthAdjust="spacing" textLength="95" x="1215" y="149.5762">&#171;Component&#187;</text><text fill="#000000" font-family="sans-serif" font-size="14" lengthAdjust="spacing" textLength="121" x="1202" y="166.0645">:DeviceRepository</text><rect fill="#E2E2F0" height="46.9766" rx="2.5" ry="2.5" style="stroke:#181818;stroke-width:0.5;" width="187" x="1491" y="129.041"/><text fill="#000000" font-family="sans-serif" font-size="14" font-style="italic" lengthAdjust="spacing" textLength="95" x="1537" y="149.5762">&#171;Component&#187;</text><text fill="#000000" font-family="sans-serif" font-size="14" lengthAdjust="spacing" textLength="173" x="1498" y="166.0645">:MapperDeviceDataModel</text><rect fill="#E2E2F0" height="46.9766" rx="2.5" ry="2.5" style="stroke:#181818;stroke-width:0.5;" width="137" x="1688" y="129.041"/><text fill="#000000" font-family="sans-serif" font-size="14" lengthAdjust="spacing" textLength="123" x="1695" y="149.5762">blindRollerDevice:</text><text fill="#000000" font-family="sans-serif" font-size="14" lengthAdjust="spacing" textLength="44" x="1734.5" y="166.0645">Device</text><rect fill="#E2E2F0" height="46.9766" rx="2.5" ry="2.5" style="stroke:#181818;stroke-width:0.5;" width="138" x="1835" y="129.041"/><text fill="#000000" font-family="sans-serif" font-size="14" font-style="italic" lengthAdjust="spacing" textLength="95" x="1856.5" y="149.5762">&#171;Component&#187;</text><text fill="#000000" font-family="sans-serif" font-size="14" lengthAdjust="spacing" textLength="124" x="1842" y="166.0645">:SensorRepository</text><rect fill="#E2E2F0" height="46.9766" rx="2.5" ry="2.5" style="stroke:#181818;stroke-width:0.5;" width="150" x="1983" y="129.041"/><text fill="#000000" font-family="sans-serif" font-size="14" font-style="italic" lengthAdjust="spacing" textLength="95" x="2010.5" y="149.5762">&#171;Component&#187;</text><text fill="#000000" font-family="sans-serif" font-size="14" lengthAdjust="spacing" textLength="136" x="1990" y="166.0645">:ActuatorRepository</text><rect fill="#E2E2F0" height="46.9766" rx="2.5" ry="2.5" style="stroke:#181818;stroke-width:0.5;" width="202" x="2360" y="129.041"/><text fill="#000000" font-family="sans-serif" font-size="14" font-style="italic" lengthAdjust="spacing" textLength="95" x="2413.5" y="149.5762">&#171;Component&#187;</text><text fill="#000000" font-family="sans-serif" font-size="14" lengthAdjust="spacing" textLength="188" x="2367" y="166.0645">:MapperActuatorDataModel</text><rect fill="#E2E2F0" height="46.9766" rx="2.5" ry="2.5" style="stroke:#181818;stroke-width:0.5;" width="147" x="2572" y="129.041"/><text fill="#000000" font-family="sans-serif" font-size="14" lengthAdjust="spacing" textLength="84" x="2603.5" y="149.5762">actuatorList:</text><text fill="#000000" font-family="sans-serif" font-size="14" lengthAdjust="spacing" textLength="133" x="2579" y="166.0645">Iterable&lt;Actuator&gt;</text><rect fill="#E2E2F0" height="46.9766" rx="2.5" ry="2.5" style="stroke:#181818;stroke-width:0.5;" width="152" x="2729" y="129.041"/><text fill="#000000" font-family="sans-serif" font-size="14" lengthAdjust="spacing" textLength="138" x="2736" y="149.5762">blindSetterActuator:</text><text fill="#000000" font-family="sans-serif" font-size="14" lengthAdjust="spacing" textLength="59" x="2775.5" y="166.0645">Actuator</text><rect fill="#E2E2F0" height="46.9766" rx="2.5" ry="2.5" style="stroke:#181818;stroke-width:0.5;" width="109" x="2891" y="129.041"/><text fill="#000000" font-family="sans-serif" font-size="14" font-style="italic" lengthAdjust="spacing" textLength="95" x="2898" y="149.5762">&#171;Component&#187;</text><text fill="#000000" font-family="sans-serif" font-size="14" lengthAdjust="spacing" textLength="63" x="2914" y="166.0645">:DBDriver</text><rect fill="#E2E2F0" height="46.9766" rx="2.5" ry="2.5" style="stroke:#181818;stroke-width:0.5;" width="109" x="134.5" y="1245.8398"/><text fill="#000000" font-family="sans-serif" font-size="14" font-style="italic" lengthAdjust="spacing" textLength="95" x="141.5" y="1266.375">&#171;Component&#187;</text><text fill="#000000" font-family="sans-serif" font-size="14" lengthAdjust="spacing" textLength="50" x="164" y="1282.8633">:Router</text><rect fill="#E2E2F0" height="46.9766" rx="2.5" ry="2.5" style="stroke:#181818;stroke-width:0.5;" width="161" x="374.5" y="1245.8398"/><text fill="#000000" font-family="sans-serif" font-size="14" font-style="italic" lengthAdjust="spacing" textLength="95" x="407.5" y="1266.375">&#171;Component&#187;</text><text fill="#000000" font-family="sans-serif" font-size="14" lengthAdjust="spacing" textLength="147" x="381.5" y="1282.8633">:DeviceControllerWeb</text><rect fill="#E2E2F0" height="46.9766" rx="2.5" ry="2.5" style="stroke:#181818;stroke-width:0.5;" width="75" x="615.5" y="1245.8398"/><text fill="#000000" font-family="sans-serif" font-size="14" lengthAdjust="spacing" textLength="61" x="622.5" y="1266.375">deviceID:</text><text fill="#000000" font-family="sans-serif" font-size="14" lengthAdjust="spacing" textLength="58" x="624" y="1282.8633">DeviceID</text><rect fill="#E2E2F0" height="46.9766" rx="2.5" ry="2.5" style="stroke:#181818;stroke-width:0.5;" width="177" x="700.5" y="1245.8398"/><text fill="#000000" font-family="sans-serif" font-size="14" lengthAdjust="spacing" textLength="163" x="707.5" y="1266.375">actuatorFunctionalityID:</text><text fill="#000000" font-family="sans-serif" font-size="14" lengthAdjust="spacing" textLength="161" x="708.5" y="1282.8633">ActuatorFunctionalityID</text><rect fill="#E2E2F0" height="46.9766" rx="2.5" ry="2.5" style="stroke:#181818;stroke-width:0.5;" width="178" x="887.5" y="1245.8398"/><text fill="#000000" font-family="sans-serif" font-size="14" font-style="italic" lengthAdjust="spacing" textLength="95" x="929" y="1266.375">&#171;Component&#187;</text><text fill="#000000" font-family="sans-serif" font-size="14" lengthAdjust="spacing" textLength="164" x="894.5" y="1282.8633">:CloseBlindRollerService</text><rect fill="#E2E2F0" height="46.9766" rx="2.5" ry="2.5" style="stroke:#181818;stroke-width:0.5;" width="135" x="1195" y="1245.8398"/><text fill="#000000" font-family="sans-serif" font-size="14" font-style="italic" lengthAdjust="spacing" textLength="95" x="1215" y="1266.375">&#171;Component&#187;</text><text fill="#000000" font-family="sans-serif" font-size="14" lengthAdjust="spacing" textLength="121" x="1202" y="1282.8633">:DeviceRepository</text><rect fill="#E2E2F0" height="46.9766" rx="2.5" ry="2.5" style="stroke:#181818;stroke-width:0.5;" width="187" x="1491" y="1245.8398"/><text fill="#000000" font-family="sans-serif" font-size="14" font-style="italic" lengthAdjust="spacing" textLength="95" x="1537" y="1266.375">&#171;Component&#187;</text><text fill="#000000" font-family="sans-serif" font-size="14" lengthAdjust="spacing" textLength="173" x="1498" y="1282.8633">:MapperDeviceDataModel</text><rect fill="#E2E2F0" height="46.9766" rx="2.5" ry="2.5" style="stroke:#181818;stroke-width:0.5;" width="137" x="1688" y="1245.8398"/><text fill="#000000" font-family="sans-serif" font-size="14" lengthAdjust="spacing" textLength="123" x="1695" y="1266.375">blindRollerDevice:</text><text fill="#000000" font-family="sans-serif" font-size="14" lengthAdjust="spacing" textLength="44" x="1734.5" y="1282.8633">Device</text><rect fill="#E2E2F0" height="46.9766" rx="2.5" ry="2.5" style="stroke:#181818;stroke-width:0.5;" width="138" x="1835" y="1245.8398"/><text fill="#000000" font-family="sans-serif" font-size="14" font-style="italic" lengthAdjust="spacing" textLength="95" x="1856.5" y="1266.375">&#171;Component&#187;</text><text fill="#000000" font-family="sans-serif" font-size="14" lengthAdjust="spacing" textLength="124" x="1842" y="1282.8633">:SensorRepository</text><rect fill="#E2E2F0" height="46.9766" rx="2.5" ry="2.5" style="stroke:#181818;stroke-width:0.5;" width="150" x="1983" y="1245.8398"/><text fill="#000000" font-family="sans-serif" font-size="14" font-style="italic" lengthAdjust="spacing" textLength="95" x="2010.5" y="1266.375">&#171;Component&#187;</text><text fill="#000000" font-family="sans-serif" font-size="14" lengthAdjust="spacing" textLength="136" x="1990" y="1282.8633">:ActuatorRepository</text><rect fill="#E2E2F0" height="46.9766" rx="2.5" ry="2.5" style="stroke:#181818;stroke-width:0.5;" width="202" x="2360" y="1245.8398"/><text fill="#000000" font-family="sans-serif" font-size="14" font-style="italic" lengthAdjust="spacing" textLength="95" x="2413.5" y="1266.375">&#171;Component&#187;</text><text fill="#000000" font-family="sans-serif" font-size="14" lengthAdjust="spacing" textLength="188" x="2367" y="1282.8633">:MapperActuatorDataModel</text><rect fill="#E2E2F0" height="46.9766" rx="2.5" ry="2.5" style="stroke:#181818;stroke-width:0.5;" width="147" x="2572" y="1245.8398"/><text fill="#000000" font-family="sans-serif" font-size="14" lengthAdjust="spacing" textLength="84" x="2603.5" y="1266.375">actuatorList:</text><text fill="#000000" font-family="sans-serif" font-size="14" lengthAdjust="spacing" textLength="133" x="2579" y="1282.8633">Iterable&lt;Actuator&gt;</text><rect fill="#E2E2F0" height="46.9766" rx="2.5" ry="2.5" style="stroke:#181818;stroke-width:0.5;" width="152" x="2729" y="1245.8398"/><text fill="#000000" font-family="sans-serif" font-size="14" lengthAdjust="spacing" textLength="138" x="2736" y="1266.375">blindSetterActuator:</text><text fill="#000000" font-family="sans-serif" font-size="14" lengthAdjust="spacing" textLength="59" x="2775.5" y="1282.8633">Actuator</text><rect fill="#E2E2F0" height="46.9766" rx="2.5" ry="2.5" style="stroke:#181818;stroke-width:0.5;" width="109" x="2891" y="1245.8398"/><text fill="#000000" font-family="sans-serif" font-size="14" font-style="italic" lengthAdjust="spacing" textLength="95" x="2898" y="1266.375">&#171;Component&#187;</text><text fill="#000000" font-family="sans-serif" font-size="14" lengthAdjust="spacing" textLength="63" x="2914" y="1282.8633">:DBDriver</text><ellipse cx="10.5" cy="205.5781" fill="none" rx="4" ry="4" style="stroke:#181818;stroke-width:1.5;"/><polygon fill="#181818" points="172,202.3281,182,206.3281,172,210.3281,176,206.3281" style="stroke:#181818;stroke-width:1.0;"/><line style="stroke:#181818;stroke-width:1.0;" x1="15" x2="178" y1="206.3281" y2="206.3281"/><text fill="#000000" font-family="sans-serif" font-size="13" font-weight="bold" lengthAdjust="spacing" textLength="9" x="18" y="201.5859">1</text><text fill="#000000" font-family="sans-serif" font-size="13" lengthAdjust="spacing" textLength="147" x="31" y="201.5859">PATCH api/devices/{id}</text><polygon fill="#181818" points="438,277.5703,448,281.5703,438,285.5703,442,281.5703" style="stroke:#181818;stroke-width:1.0;"/><line style="stroke:#181818;stroke-width:1.0;" x1="194" x2="444" y1="281.5703" y2="281.5703"/><text fill="#000000" font-family="sans-serif" font-size="13" font-weight="bold" lengthAdjust="spacing" textLength="9" x="201" y="253.8623">2</text><text fill="#000000" font-family="sans-serif" font-size="13" lengthAdjust="spacing" textLength="113" x="214" y="230.8965">PATCH editDevice</text><text fill="#000000" font-family="sans-serif" font-size="13" lengthAdjust="spacing" textLength="220" x="214" y="246.207">(@RequestBody String deviceName,</text><text fill="#000000" font-family="sans-serif" font-size="13" lengthAdjust="spacing" textLength="207" x="214" y="261.5176">@RequestParam(required = false)</text><text fill="#000000" font-family="sans-serif" font-size="13" lengthAdjust="spacing" textLength="153" x="214" y="276.8281">Integer closePercentage)</text><line style="stroke:#181818;stroke-width:1.0;" x1="460" x2="507" y1="326.1914" y2="326.1914"/><line style="stroke:#181818;stroke-width:1.0;" x1="507" x2="507" y1="326.1914" y2="339.1914"/><line style="stroke:#181818;stroke-width:1.0;" x1="466" x2="507" y1="339.1914" y2="339.1914"/><polygon fill="#181818" points="476,335.1914,466,339.1914,476,343.1914,472,339.1914" style="stroke:#181818;stroke-width:1.0;"/><text fill="#000000" font-family="sans-serif" font-size="13" font-weight="bold" lengthAdjust="spacing" textLength="9" x="472" y="313.7939">3</text><text fill="#000000" font-family="sans-serif" font-size="13" lengthAdjust="spacing" textLength="142" x="485" y="306.1387">closeBlindRollerDevice</text><text fill="#000000" font-family="sans-serif" font-size="13" lengthAdjust="spacing" textLength="161" x="485" y="321.4492">(deviceName, percentage)</text><rect fill="#E2E2F0" height="46.9766" rx="2.5" ry="2.5" style="stroke:#181818;stroke-width:0.5;" width="75" x="615.5" y="347.1914"/><text fill="#000000" font-family="sans-serif" font-size="14" lengthAdjust="spacing" textLength="61" x="622.5" y="367.7266">deviceID:</text><text fill="#000000" font-family="sans-serif" font-size="14" lengthAdjust="spacing" textLength="58" x="624" y="384.2148">DeviceID</text><polygon fill="#181818" points="603.5,364.502,613.5,368.502,603.5,372.502,607.5,368.502" style="stroke:#181818;stroke-width:1.0;"/><line style="stroke:#181818;stroke-width:1.0;stroke-dasharray:2.0,2.0;" x1="465" x2="609.5" y1="368.502" y2="368.502"/><text fill="#000000" font-family="sans-serif" font-size="13" font-weight="bold" lengthAdjust="spacing" textLength="9" x="472" y="363.7598">4</text><text fill="#000000" font-family="sans-serif" font-size="13" lengthAdjust="spacing" textLength="68" x="485" y="363.7598">&lt;&lt;create&gt;</text><rect fill="#E2E2F0" height="46.9766" rx="2.5" ry="2.5" style="stroke:#181818;stroke-width:0.5;" width="177" x="700.5" y="395.168"/><text fill="#000000" font-family="sans-serif" font-size="14" lengthAdjust="spacing" textLength="163" x="707.5" y="415.7031">actuatorFunctionalityID:</text><text fill="#000000" font-family="sans-serif" font-size="14" lengthAdjust="spacing" textLength="161" x="708.5" y="432.1914">ActuatorFunctionalityID</text><polygon fill="#181818" points="688.5,412.4785,698.5,416.4785,688.5,420.4785,692.5,416.4785" style="stroke:#181818;stroke-width:1.0;"/><line style="stroke:#181818;stroke-width:1.0;stroke-dasharray:2.0,2.0;" x1="465" x2="694.5" y1="416.4785" y2="416.4785"/><text fill="#000000" font-family="sans-serif" font-size="13" font-weight="bold" lengthAdjust="spacing" textLength="9" x="472" y="411.7363">5</text><text fill="#000000" font-family="sans-serif" font-size="13" lengthAdjust="spacing" textLength="68" x="485" y="411.7363">&lt;&lt;create&gt;</text><polygon fill="#181818" points="959.5,475.7656,969.5,479.7656,959.5,483.7656,963.5,479.7656" style="stroke:#181818;stroke-width:1.0;"/><line style="stroke:#181818;stroke-width:1.0;" x1="465" x2="965.5" y1="479.7656" y2="479.7656"/><text fill="#000000" font-family="sans-serif" font-size="13" font-weight="bold" lengthAdjust="spacing" textLength="9" x="472" y="467.3682">6</text><text fill="#000000" font-family="sans-serif" font-size="13" lengthAdjust="spacing" textLength="186" x="485" y="459.7129">setActuatorStateOfBlindRoller</text><text fill="#000000" font-family="sans-serif" font-size="13" lengthAdjust="spacing" textLength="327" x="485" y="475.0234">(deviceID, actuatorFunctionalityID, closePercentage)</text><polygon fill="#181818" points="1245.5,505.0762,1255.5,509.0762,1245.5,513.0762,1249.5,509.0762" style="stroke:#181818;stroke-width:1.0;"/><line style="stroke:#181818;stroke-width:1.0;" x1="981.5" x2="1251.5" y1="509.0762" y2="509.0762"/><text fill="#000000" font-family="sans-serif" font-size="13" font-weight="bold" lengthAdjust="spacing" textLength="9" x="988.5" y="504.334">7</text><text fill="#000000" font-family="sans-serif" font-size="13" lengthAdjust="spacing" textLength="155" x="1001.5" y="504.334">findEntityByID (deviceID)</text><polygon fill="#181818" points="2928.5,534.3867,2938.5,538.3867,2928.5,542.3867,2932.5,538.3867" style="stroke:#181818;stroke-width:1.0;"/><line style="stroke:#181818;stroke-width:1.0;" x1="1267.5" x2="2934.5" y1="538.3867" y2="538.3867"/><text fill="#000000" font-family="sans-serif" font-size="13" font-weight="bold" lengthAdjust="spacing" textLength="9" x="1274.5" y="533.6445">8</text><text fill="#000000" font-family="sans-serif" font-size="13" lengthAdjust="spacing" textLength="115" x="1287.5" y="533.6445">findByID(deviceID)</text><ellipse cx="3097" cy="566.9473" fill="none" rx="4" ry="4" style="stroke:#181818;stroke-width:1.5;"/><polygon fill="#181818" points="3080,563.6973,3090,567.6973,3080,571.6973,3084,567.6973" style="stroke:#181818;stroke-width:1.0;"/><line style="stroke:#181818;stroke-width:1.0;" x1="2950.5" x2="3086" y1="567.6973" y2="567.6973"/><text fill="#000000" font-family="sans-serif" font-size="13" font-weight="bold" lengthAdjust="spacing" textLength="9" x="2957.5" y="562.9551">9</text><text fill="#000000" font-family="sans-serif" font-size="13" lengthAdjust="spacing" textLength="112" x="2970.5" y="562.9551">DATABASE QUERY</text><polygon fill="#181818" points="2961.5,593.0078,2951.5,597.0078,2961.5,601.0078,2957.5,597.0078" style="stroke:#181818;stroke-width:1.0;"/><ellipse cx="3097" cy="596.2578" fill="none" rx="4" ry="4" style="stroke:#181818;stroke-width:1.5;"/><line style="stroke:#181818;stroke-width:1.0;stroke-dasharray:2.0,2.0;" x1="2955.5" x2="3092.5" y1="597.0078" y2="597.0078"/><text fill="#000000" font-family="sans-serif" font-size="13" font-weight="bold" lengthAdjust="spacing" textLength="18" x="2967.5" y="592.2656">10</text><text fill="#000000" font-family="sans-serif" font-size="13" lengthAdjust="spacing" textLength="109" x="2989.5" y="592.2656">QUERY RESPONSE</text><polygon fill="#181818" points="1278.5,622.3184,1268.5,626.3184,1278.5,630.3184,1274.5,626.3184" style="stroke:#181818;stroke-width:1.0;"/><line style="stroke:#181818;stroke-width:1.0;stroke-dasharray:2.0,2.0;" x1="1272.5" x2="2939.5" y1="626.3184" y2="626.3184"/><text fill="#000000" font-family="sans-serif" font-size="13" font-weight="bold" lengthAdjust="spacing" textLength="18" x="1284.5" y="621.5762">11</text><text fill="#000000" font-family="sans-serif" font-size="13" lengthAdjust="spacing" textLength="294" x="1306.5" y="621.5762">Optional&lt;DeviceDataModel&gt; deviceDataModel</text><polygon fill="#181818" points="1567.5,651.6289,1577.5,655.6289,1567.5,659.6289,1571.5,655.6289" style="stroke:#181818;stroke-width:1.0;"/><line style="stroke:#181818;stroke-width:1.0;" x1="1267.5" x2="1573.5" y1="655.6289" y2="655.6289"/><text fill="#000000" font-family="sans-serif" font-size="13" font-weight="bold" lengthAdjust="spacing" textLength="18" x="1274.5" y="650.8867">12</text><text fill="#000000" font-family="sans-serif" font-size="13" lengthAdjust="spacing" textLength="271" x="1296.5" y="650.8867">toDomain(factoryDevice, deviceDataModel)</text><polygon fill="#181818" points="1278.5,680.9395,1268.5,684.9395,1278.5,688.9395,1274.5,684.9395" style="stroke:#181818;stroke-width:1.0;"/><line style="stroke:#181818;stroke-width:1.0;stroke-dasharray:2.0,2.0;" x1="1272.5" x2="1578.5" y1="684.9395" y2="684.9395"/><text fill="#000000" font-family="sans-serif" font-size="13" font-weight="bold" lengthAdjust="spacing" textLength="18" x="1284.5" y="680.1973">13</text><text fill="#000000" font-family="sans-serif" font-size="13" lengthAdjust="spacing" textLength="230" x="1306.5" y="680.1973">Optional&lt;Device&gt; blindRollerDevice</text><polygon fill="#181818" points="992.5,710.25,982.5,714.25,992.5,718.25,988.5,714.25" style="stroke:#181818;stroke-width:1.0;"/><line style="stroke:#181818;stroke-width:1.0;stroke-dasharray:2.0,2.0;" x1="986.5" x2="1256.5" y1="714.25" y2="714.25"/><text fill="#000000" font-family="sans-serif" font-size="13" font-weight="bold" lengthAdjust="spacing" textLength="18" x="998.5" y="709.5078">14</text><text fill="#000000" font-family="sans-serif" font-size="13" lengthAdjust="spacing" textLength="230" x="1020.5" y="709.5078">Optional&lt;Device&gt; blindRollerDevice</text><polygon fill="#181818" points="1739.5,739.5605,1749.5,743.5605,1739.5,747.5605,1743.5,743.5605" style="stroke:#181818;stroke-width:1.0;"/><line style="stroke:#181818;stroke-width:1.0;" x1="981.5" x2="1745.5" y1="743.5605" y2="743.5605"/><text fill="#000000" font-family="sans-serif" font-size="13" font-weight="bold" lengthAdjust="spacing" textLength="18" x="988.5" y="738.8184">15</text><text fill="#000000" font-family="sans-serif" font-size="13" lengthAdjust="spacing" textLength="58" x="1010.5" y="738.8184">isActive()</text><polygon fill="#181818" points="992.5,768.8711,982.5,772.8711,992.5,776.8711,988.5,772.8711" style="stroke:#181818;stroke-width:1.0;"/><line style="stroke:#181818;stroke-width:1.0;stroke-dasharray:2.0,2.0;" x1="986.5" x2="1750.5" y1="772.8711" y2="772.8711"/><text fill="#000000" font-family="sans-serif" font-size="13" font-weight="bold" lengthAdjust="spacing" textLength="18" x="998.5" y="768.1289">16</text><text fill="#000000" font-family="sans-serif" font-size="13" lengthAdjust="spacing" textLength="25" x="1020.5" y="768.1289">true</text><polygon fill="#181818" points="2041,798.1816,2051,802.1816,2041,806.1816,2045,802.1816" style="stroke:#181818;stroke-width:1.0;"/><line style="stroke:#181818;stroke-width:1.0;" x1="981.5" x2="2047" y1="802.1816" y2="802.1816"/><text fill="#000000" font-family="sans-serif" font-size="13" font-weight="bold" lengthAdjust="spacing" textLength="18" x="988.5" y="797.4395">17</text><text fill="#000000" font-family="sans-serif" font-size="13" lengthAdjust="spacing" textLength="492" x="1010.5" y="797.4395">findByDeviceIDAndActuatorFunctionalityID (deviceID, actuatorFunctionalityID)</text><polygon fill="#181818" points="2928.5,827.4922,2938.5,831.4922,2928.5,835.4922,2932.5,831.4922" style="stroke:#181818;stroke-width:1.0;"/><line style="stroke:#181818;stroke-width:1.0;" x1="2063" x2="2934.5" y1="831.4922" y2="831.4922"/><text fill="#000000" font-family="sans-serif" font-size="13" font-weight="bold" lengthAdjust="spacing" textLength="18" x="2070" y="826.75">18</text><text fill="#000000" font-family="sans-serif" font-size="13" lengthAdjust="spacing" textLength="488" x="2092" y="826.75">findByDeviceIDAndActuatorFunctionalityID(deviceID, actuatorFunctionalityID)</text><ellipse cx="3097" cy="860.0527" fill="none" rx="4" ry="4" style="stroke:#181818;stroke-width:1.5;"/><polygon fill="#181818" points="3080,856.8027,3090,860.8027,3080,864.8027,3084,860.8027" style="stroke:#181818;stroke-width:1.0;"/><line style="stroke:#181818;stroke-width:1.0;" x1="2950.5" x2="3086" y1="860.8027" y2="860.8027"/><text fill="#000000" font-family="sans-serif" font-size="13" font-weight="bold" lengthAdjust="spacing" textLength="18" x="2957.5" y="856.0605">19</text><text fill="#000000" font-family="sans-serif" font-size="13" lengthAdjust="spacing" textLength="112" x="2979.5" y="856.0605">DATABASE QUERY</text><polygon fill="#181818" points="2961.5,886.1133,2951.5,890.1133,2961.5,894.1133,2957.5,890.1133" style="stroke:#181818;stroke-width:1.0;"/><ellipse cx="3097" cy="889.3633" fill="none" rx="4" ry="4" style="stroke:#181818;stroke-width:1.5;"/><line style="stroke:#181818;stroke-width:1.0;stroke-dasharray:2.0,2.0;" x1="2955.5" x2="3092.5" y1="890.1133" y2="890.1133"/><text fill="#000000" font-family="sans-serif" font-size="13" font-weight="bold" lengthAdjust="spacing" textLength="18" x="2967.5" y="885.3711">20</text><text fill="#000000" font-family="sans-serif" font-size="13" lengthAdjust="spacing" textLength="109" x="2989.5" y="885.3711">QUERY RESPONSE</text><polygon fill="#181818" points="2074,915.4238,2064,919.4238,2074,923.4238,2070,919.4238" style="stroke:#181818;stroke-width:1.0;"/><line style="stroke:#181818;stroke-width:1.0;stroke-dasharray:2.0,2.0;" x1="2068" x2="2939.5" y1="919.4238" y2="919.4238"/><text fill="#000000" font-family="sans-serif" font-size="13" font-weight="bold" lengthAdjust="spacing" textLength="18" x="2080" y="914.6816">21</text><text fill="#000000" font-family="sans-serif" font-size="13" lengthAdjust="spacing" textLength="345" x="2102" y="914.6816">Iterable&lt;ActuatorDataModel&gt; listOfActuatorsOfDevice</text><polygon fill="#181818" points="2444,944.7344,2454,948.7344,2444,952.7344,2448,948.7344" style="stroke:#181818;stroke-width:1.0;"/><line style="stroke:#181818;stroke-width:1.0;" x1="2063" x2="2450" y1="948.7344" y2="948.7344"/><text fill="#000000" font-family="sans-serif" font-size="13" font-weight="bold" lengthAdjust="spacing" textLength="18" x="2070" y="943.9922">22</text><text fill="#000000" font-family="sans-serif" font-size="13" lengthAdjust="spacing" textLength="352" x="2092" y="943.9922">toDomainList(factoryActuator, listOfActuatorsOfDevice)</text><polygon fill="#181818" points="2074,974.0449,2064,978.0449,2074,982.0449,2070,978.0449" style="stroke:#181818;stroke-width:1.0;"/><line style="stroke:#181818;stroke-width:1.0;stroke-dasharray:2.0,2.0;" x1="2068" x2="2455" y1="978.0449" y2="978.0449"/><text fill="#000000" font-family="sans-serif" font-size="13" font-weight="bold" lengthAdjust="spacing" textLength="18" x="2080" y="973.3027">23</text><text fill="#000000" font-family="sans-serif" font-size="13" lengthAdjust="spacing" textLength="278" x="2102" y="973.3027">Iterable&lt;Actuator&gt; listOfActuatorsOfDevice</text><polygon fill="#181818" points="992.5,1003.3555,982.5,1007.3555,992.5,1011.3555,988.5,1007.3555" style="stroke:#181818;stroke-width:1.0;"/><line style="stroke:#181818;stroke-width:1.0;stroke-dasharray:2.0,2.0;" x1="986.5" x2="2052" y1="1007.3555" y2="1007.3555"/><text fill="#000000" font-family="sans-serif" font-size="13" font-weight="bold" lengthAdjust="spacing" textLength="18" x="998.5" y="1002.6133">24</text><text fill="#000000" font-family="sans-serif" font-size="13" lengthAdjust="spacing" textLength="278" x="1020.5" y="1002.6133">listOfActuatorsOfDevice:Iterable&lt;Actuator&gt;</text><polygon fill="#181818" points="2628.5,1032.666,2638.5,1036.666,2628.5,1040.666,2632.5,1036.666" style="stroke:#181818;stroke-width:1.0;"/><line style="stroke:#181818;stroke-width:1.0;" x1="981.5" x2="2634.5" y1="1036.666" y2="1036.666"/><text fill="#000000" font-family="sans-serif" font-size="13" font-weight="bold" lengthAdjust="spacing" textLength="18" x="988.5" y="1031.9238">25</text><text fill="#000000" font-family="sans-serif" font-size="13" lengthAdjust="spacing" textLength="118" x="1010.5" y="1031.9238">iterator().hasNext()</text><polygon fill="#181818" points="992.5,1061.9766,982.5,1065.9766,992.5,1069.9766,988.5,1065.9766" style="stroke:#181818;stroke-width:1.0;"/><line style="stroke:#181818;stroke-width:1.0;stroke-dasharray:2.0,2.0;" x1="986.5" x2="2639.5" y1="1065.9766" y2="1065.9766"/><text fill="#000000" font-family="sans-serif" font-size="13" font-weight="bold" lengthAdjust="spacing" textLength="18" x="998.5" y="1061.2344">26</text><text fill="#000000" font-family="sans-serif" font-size="13" lengthAdjust="spacing" textLength="25" x="1020.5" y="1061.2344">true</text><polygon fill="#181818" points="2788,1091.2871,2798,1095.2871,2788,1099.2871,2792,1095.2871" style="stroke:#181818;stroke-width:1.0;"/><line style="stroke:#181818;stroke-width:1.0;" x1="981.5" x2="2794" y1="1095.2871" y2="1095.2871"/><text fill="#000000" font-family="sans-serif" font-size="13" font-weight="bold" lengthAdjust="spacing" textLength="18" x="988.5" y="1090.5449">27</text><text fill="#000000" font-family="sans-serif" font-size="13" lengthAdjust="spacing" textLength="233" x="1010.5" y="1090.5449">setActuatorSpecificValue(percentage)</text><polygon fill="#181818" points="992.5,1120.5977,982.5,1124.5977,992.5,1128.5977,988.5,1124.5977" style="stroke:#181818;stroke-width:1.0;"/><line style="stroke:#181818;stroke-width:1.0;stroke-dasharray:2.0,2.0;" x1="986.5" x2="2799" y1="1124.5977" y2="1124.5977"/><text fill="#000000" font-family="sans-serif" font-size="13" font-weight="bold" lengthAdjust="spacing" textLength="18" x="998.5" y="1119.8555">28</text><text fill="#000000" font-family="sans-serif" font-size="13" lengthAdjust="spacing" textLength="25" x="1020.5" y="1119.8555">true</text><polygon fill="#181818" points="476,1149.9082,466,1153.9082,476,1157.9082,472,1153.9082" style="stroke:#181818;stroke-width:1.0;"/><line style="stroke:#181818;stroke-width:1.0;stroke-dasharray:2.0,2.0;" x1="470" x2="970.5" y1="1153.9082" y2="1153.9082"/><text fill="#000000" font-family="sans-serif" font-size="13" font-weight="bold" lengthAdjust="spacing" textLength="18" x="482" y="1149.166">29</text><text fill="#000000" font-family="sans-serif" font-size="13" lengthAdjust="spacing" textLength="25" x="504" y="1149.166">true</text><polygon fill="#181818" points="205,1179.2188,195,1183.2188,205,1187.2188,201,1183.2188" style="stroke:#181818;stroke-width:1.0;"/><line style="stroke:#181818;stroke-width:1.0;stroke-dasharray:2.0,2.0;" x1="199" x2="449" y1="1183.2188" y2="1183.2188"/><text fill="#000000" font-family="sans-serif" font-size="13" font-weight="bold" lengthAdjust="spacing" textLength="18" x="211" y="1178.4766">30</text><text fill="#000000" font-family="sans-serif" font-size="13" lengthAdjust="spacing" textLength="122" x="233" y="1178.4766">true, HttpStatus.OK</text><ellipse cx="10.5" cy="1227.0898" fill="none" rx="4" ry="4" style="stroke:#181818;stroke-width:1.5;"/><polygon fill="#181818" points="27.5,1223.8398,17.5,1227.8398,27.5,1231.8398,23.5,1227.8398" style="stroke:#181818;stroke-width:1.0;"/><line style="stroke:#181818;stroke-width:1.0;stroke-dasharray:2.0,2.0;" x1="25.5" x2="183" y1="1227.8398" y2="1227.8398"/><text fill="#000000" font-family="sans-serif" font-size="13" font-weight="bold" lengthAdjust="spacing" textLength="18" x="28" y="1215.4424">31</text><text fill="#000000" font-family="sans-serif" font-size="13" lengthAdjust="spacing" textLength="96" x="50" y="1207.7871">JSON response,</text><text fill="#000000" font-family="sans-serif" font-size="13" lengthAdjust="spacing" textLength="89" x="50" y="1223.0977">HttpStatus.OK</text><!--SRC=[jLR1Sjis4BtpAxREHSv8panxw0o7vLGobSPjRBbYqaudwG4YLmeQYc10q1Cbqt_l4YH849Havr1VJ2tslRSBx6AXkCeGtbx_yEFLzp23wqoK28kCvociHPQXX0WVU8AUnoebycg_GUbvtnMIxVOC58ele6H5ozv6V8QB88YhJNme5Ux3y7qEGN0jSiLuZZ8CWGm0_e8b7p5FB-1PnEJ7NoGU6gnstXSYnrnfiFxpOvGFACdxDTzzKDgzO5BnX1SiLt3XhqMbQWTMGlCv97AyctJggAJExq_SQ6XlEGTFDVecyj_dKVkfqSO-z6Q9gfWIycML9ugBd6LS7JHuVdn5Svr0ENdeaz87rPnJlKqKWcOec-ydxCCQ2r5o4ZjOQTJ6izXRLXGe6uQ8ANOhKimqmRvPkJq7t_H1DnJTPbenh3R_OA8StHZpKaWdvh8pdetPxBY3PfRv2JaRbcDPTsjdipU2htcfAF4RgbUsoJ0mw50pyjPih4TsC4QbUb6hfWPvkQU-Y2H_QBl5_732fTu4QiZkl_TEpCAsjNoudx-vVWMiu2-QWofVVENflnxfyGUciFNplBOL2Tbtba5ZobLpudGbJ7vUuwSAIxKGwG5Y9Nc-QulWZkrnIYx6uvv9jfz8-i4bfl0JR5bMuYLvtEGAToINr5rnZpAXLDWEB_ku-YWygzK7uO7Vu1TkWLAGTa358_m30L8mbyFpvwGG18b40eIkrucsTq1EyARJVVfIfW1YHQwhhPK6T1dSHDDJIjCpkzVgU9uHxDBIZUF3bhIMkIAY1L51fsPnzFwU1IMYhWuRcfhW6DwuUPt_B1H_-n3DtymNytW9lxzThl_gLuFPh5xMLbWlu_lLNRoqm6uAgwBPZC2vs8nRPw3mnq4DK-hkGH-KYCIU9k1aIo2wTXhsgKjg9Mh0NiVoMAmXZ2vLEyYEq0voK3tVncUTvAWUcekRA7avh_rnCYg1zcuV-0_3qK-AaM2BipNjwzjKZndCypmzCMRXyMQmWhOrlC6yE5QxZwj_a_Z_KFI357mOJI2hy3CQKgkjMIXNst4jT06wEpCQYdqhrBFFj8Dnc9uI6pL6J-cDD9wItvFI6aaDq-khrJ_5ve-5RO51LLaLxKx-kfDg4trEBgy-iF8EFokxfqPFXH73-TuQuO-qbpDV2apubYT_iAp2oT5fs3q_s94WnZ5qxhsuyt1m4MOWcHV_R3Pody8hfOfw65RbrUet6sqFwtUY1fldpQ_nwWuablGQAlNRuoH7-z3v3m00]--></g></svg>