<?xml version="1.0" encoding="us-ascii" standalone="no"?><svg xmlns="http://www.w3.org/2000/svg" xmlns:xlink="http://www.w3.org/1999/xlink" contentStyleType="text/css" height="1344px" preserveAspectRatio="none" style="width:2328px;height:1344px;background:#FFFFFF;" version="1.1" viewBox="0 0 2328 1344" width="2328px" zoomAndPan="magnify"><defs/><g><rect fill="#A9A9A9" height="1295.3496" style="stroke:#181818;stroke-width:0.5;" width="2004" x="196.5" y="43.4883"/><text fill="#000000" font-family="sans-serif" font-size="13" font-weight="bold" lengthAdjust="spacing" textLength="87" x="1155" y="56.0566">&#171;SubSystem&#187;</text><text fill="#000000" font-family="sans-serif" font-size="13" font-weight="bold" lengthAdjust="spacing" textLength="60" x="1155" y="71.3672">:Backend</text><rect fill="#D3D3D3" height="1259.7285" style="stroke:#181818;stroke-width:0.5;" width="2004" x="196.5" y="79.1094"/><text fill="#000000" font-family="sans-serif" font-size="13" font-weight="bold" lengthAdjust="spacing" textLength="80" x="1160.5" y="91.6777">&#171;Container&#187;</text><text fill="#000000" font-family="sans-serif" font-size="13" font-weight="bold" lengthAdjust="spacing" textLength="46" x="1156.5" y="106.9883">:Server</text><text fill="#000000" font-family="sans-serif" font-size="14" font-weight="bold" lengthAdjust="spacing" textLength="473" x="928" y="28.5352">UC37.1 - Get list of Devices with Actuator Functionality by Room</text><line style="stroke:#181818;stroke-width:0.5;stroke-dasharray:5.0,5.0;" x1="255" x2="255" y1="161.707" y2="1284.8613"/><rect fill="#FFFFFF" height="1075.8438" style="stroke:#181818;stroke-width:1.0;" width="10" x="250" y="191.0176"/><line style="stroke:#181818;stroke-width:0.5;stroke-dasharray:5.0,5.0;" x1="554" x2="554" y1="161.707" y2="1284.8613"/><rect fill="#FFFFFF" height="955.9805" style="stroke:#181818;stroke-width:1.0;" width="10" x="549" y="266.2598"/><rect fill="#FFFFFF" height="839.7383" style="stroke:#181818;stroke-width:1.0;" width="10" x="554" y="350.8809"/><line style="stroke:#181818;stroke-width:0.5;stroke-dasharray:5.0,5.0;" x1="962" x2="962" y1="358.8809" y2="1284.8613"/><line style="stroke:#181818;stroke-width:0.5;stroke-dasharray:5.0,5.0;" x1="1148.5" x2="1148.5" y1="161.707" y2="1284.8613"/><rect fill="#FFFFFF" height="734.1406" style="stroke:#181818;stroke-width:1.0;" width="10" x="1143.5" y="443.4785"/><line style="stroke:#181818;stroke-width:0.5;stroke-dasharray:5.0,5.0;" x1="1369.5" x2="1369.5" y1="161.707" y2="1284.8613"/><rect fill="#FFFFFF" height="29.3105" style="stroke:#181818;stroke-width:1.0;" width="10" x="1364.5" y="488.0996"/><line style="stroke:#181818;stroke-width:0.5;stroke-dasharray:5.0,5.0;" x1="1547" x2="1547" y1="525.4102" y2="1284.8613"/><rect fill="#FFFFFF" height="13" style="stroke:#181818;stroke-width:1.0;" width="10" x="1542" y="1104.998"/><line style="stroke:#181818;stroke-width:0.5;stroke-dasharray:5.0,5.0;" x1="1699.5" x2="1699.5" y1="573.3867" y2="1284.8613"/><rect fill="#FFFFFF" height="13" style="stroke:#181818;stroke-width:1.0;" width="10" x="1694.5" y="985.7559"/><line style="stroke:#181818;stroke-width:0.5;stroke-dasharray:5.0,5.0;" x1="1797" x2="1797" y1="652.6738" y2="1284.8613"/><rect fill="#FFFFFF" height="47.9766" style="stroke:#181818;stroke-width:1.0;" width="10" x="1792" y="673.9844"/><line style="stroke:#181818;stroke-width:0.5;stroke-dasharray:5.0,5.0;" x1="1912" x2="1912" y1="161.707" y2="1284.8613"/><rect fill="#FFFFFF" height="146.5527" style="stroke:#181818;stroke-width:1.0;" width="10" x="1907" y="751.2715"/><line style="stroke:#181818;stroke-width:0.5;stroke-dasharray:5.0,5.0;" x1="2020" x2="2020" y1="161.707" y2="1284.8613"/><rect fill="#FFFFFF" height="29.3105" style="stroke:#181818;stroke-width:1.0;" width="10" x="2015" y="927.1348"/><rect fill="#FFFFFF" height="29.3105" style="stroke:#181818;stroke-width:1.0;" width="10" x="2015" y="1046.377"/><line style="stroke:#181818;stroke-width:0.5;stroke-dasharray:5.0,5.0;" x1="2142" x2="2142" y1="161.707" y2="1284.8613"/><rect fill="#FFFFFF" height="87.9316" style="stroke:#181818;stroke-width:1.0;" width="10" x="2137" y="780.582"/><rect fill="#E2E2F0" height="46.9766" rx="2.5" ry="2.5" style="stroke:#181818;stroke-width:0.5;" width="109" x="200.5" y="113.7305"/><text fill="#000000" font-family="sans-serif" font-size="14" font-style="italic" lengthAdjust="spacing" textLength="95" x="207.5" y="134.2656">&#171;Component&#187;</text><text fill="#000000" font-family="sans-serif" font-size="14" lengthAdjust="spacing" textLength="50" x="230" y="150.7539">:Router</text><rect fill="#E2E2F0" height="46.9766" rx="2.5" ry="2.5" style="stroke:#181818;stroke-width:0.5;" width="264" x="422" y="113.7305"/><text fill="#000000" font-family="sans-serif" font-size="14" font-style="italic" lengthAdjust="spacing" textLength="95" x="506.5" y="134.2656">&#171;Component&#187;</text><text fill="#000000" font-family="sans-serif" font-size="14" lengthAdjust="spacing" textLength="250" x="429" y="150.7539">:ActuatorFunctionalityControllerWeb</text><rect fill="#E2E2F0" height="46.9766" rx="2.5" ry="2.5" style="stroke:#181818;stroke-width:0.5;" width="178" x="1059.5" y="113.7305"/><text fill="#000000" font-family="sans-serif" font-size="14" font-style="italic" lengthAdjust="spacing" textLength="95" x="1101" y="134.2656">&#171;Component&#187;</text><text fill="#000000" font-family="sans-serif" font-size="14" lengthAdjust="spacing" textLength="164" x="1066.5" y="150.7539">:CloseBlindRollerService</text><rect fill="#E2E2F0" height="46.9766" rx="2.5" ry="2.5" style="stroke:#181818;stroke-width:0.5;" width="150" x="1294.5" y="113.7305"/><text fill="#000000" font-family="sans-serif" font-size="14" font-style="italic" lengthAdjust="spacing" textLength="95" x="1322" y="134.2656">&#171;Component&#187;</text><text fill="#000000" font-family="sans-serif" font-size="14" lengthAdjust="spacing" textLength="136" x="1301.5" y="150.7539">:ActuatorRepository</text><rect fill="#E2E2F0" height="46.9766" rx="2.5" ry="2.5" style="stroke:#181818;stroke-width:0.5;" width="135" x="1844.5" y="113.7305"/><text fill="#000000" font-family="sans-serif" font-size="14" font-style="italic" lengthAdjust="spacing" textLength="95" x="1864.5" y="134.2656">&#171;Component&#187;</text><text fill="#000000" font-family="sans-serif" font-size="14" lengthAdjust="spacing" textLength="121" x="1851.5" y="150.7539">:DeviceRepository</text><rect fill="#E2E2F0" height="46.9766" rx="2.5" ry="2.5" style="stroke:#181818;stroke-width:0.5;" width="61" x="1989.5" y="113.7305"/><text fill="#000000" font-family="sans-serif" font-size="14" lengthAdjust="spacing" textLength="47" x="1996.5" y="134.2656">device:</text><text fill="#000000" font-family="sans-serif" font-size="14" lengthAdjust="spacing" textLength="44" x="1998" y="150.7539">Device</text><rect fill="#E2E2F0" height="46.9766" rx="2.5" ry="2.5" style="stroke:#181818;stroke-width:0.5;" width="109" x="2087.5" y="113.7305"/><text fill="#000000" font-family="sans-serif" font-size="14" font-style="italic" lengthAdjust="spacing" textLength="95" x="2094.5" y="134.2656">&#171;Component&#187;</text><text fill="#000000" font-family="sans-serif" font-size="14" lengthAdjust="spacing" textLength="67" x="2108.5" y="150.7539">:DB Driver</text><rect fill="#E2E2F0" height="46.9766" rx="2.5" ry="2.5" style="stroke:#181818;stroke-width:0.5;" width="109" x="200.5" y="1284.8613"/><text fill="#000000" font-family="sans-serif" font-size="14" font-style="italic" lengthAdjust="spacing" textLength="95" x="207.5" y="1305.3965">&#171;Component&#187;</text><text fill="#000000" font-family="sans-serif" font-size="14" lengthAdjust="spacing" textLength="50" x="230" y="1321.8848">:Router</text><rect fill="#E2E2F0" height="46.9766" rx="2.5" ry="2.5" style="stroke:#181818;stroke-width:0.5;" width="264" x="422" y="1284.8613"/><text fill="#000000" font-family="sans-serif" font-size="14" font-style="italic" lengthAdjust="spacing" textLength="95" x="506.5" y="1305.3965">&#171;Component&#187;</text><text fill="#000000" font-family="sans-serif" font-size="14" lengthAdjust="spacing" textLength="250" x="429" y="1321.8848">:ActuatorFunctionalityControllerWeb</text><rect fill="#E2E2F0" height="46.9766" rx="2.5" ry="2.5" style="stroke:#181818;stroke-width:0.5;" width="175" x="874.5" y="1284.8613"/><text fill="#000000" font-family="sans-serif" font-size="14" lengthAdjust="spacing" textLength="149" x="887.5" y="1305.3965">actuatorFunctionality:</text><text fill="#000000" font-family="sans-serif" font-size="14" lengthAdjust="spacing" textLength="161" x="881.5" y="1321.8848">ActuatorFunctionalityID</text><rect fill="#E2E2F0" height="46.9766" rx="2.5" ry="2.5" style="stroke:#181818;stroke-width:0.5;" width="178" x="1059.5" y="1284.8613"/><text fill="#000000" font-family="sans-serif" font-size="14" font-style="italic" lengthAdjust="spacing" textLength="95" x="1101" y="1305.3965">&#171;Component&#187;</text><text fill="#000000" font-family="sans-serif" font-size="14" lengthAdjust="spacing" textLength="164" x="1066.5" y="1321.8848">:CloseBlindRollerService</text><rect fill="#E2E2F0" height="46.9766" rx="2.5" ry="2.5" style="stroke:#181818;stroke-width:0.5;" width="150" x="1294.5" y="1284.8613"/><text fill="#000000" font-family="sans-serif" font-size="14" font-style="italic" lengthAdjust="spacing" textLength="95" x="1322" y="1305.3965">&#171;Component&#187;</text><text fill="#000000" font-family="sans-serif" font-size="14" lengthAdjust="spacing" textLength="136" x="1301.5" y="1321.8848">:ActuatorRepository</text><rect fill="#E2E2F0" height="46.9766" rx="2.5" ry="2.5" style="stroke:#181818;stroke-width:0.5;" width="185" x="1454.5" y="1284.8613"/><text fill="#000000" font-family="sans-serif" font-size="14" lengthAdjust="spacing" textLength="76" x="1509" y="1305.3965">returnMap:</text><text fill="#000000" font-family="sans-serif" font-size="14" lengthAdjust="spacing" textLength="171" x="1461.5" y="1321.8848">Map&lt;DeviceID, RoomID&gt;</text><rect fill="#E2E2F0" height="46.9766" rx="2.5" ry="2.5" style="stroke:#181818;stroke-width:0.5;" width="100" x="1649.5" y="1284.8613"/><text fill="#000000" font-family="sans-serif" font-size="14" lengthAdjust="spacing" textLength="75" x="1662" y="1305.3965">listDevices:</text><text fill="#000000" font-family="sans-serif" font-size="14" lengthAdjust="spacing" textLength="86" x="1656.5" y="1321.8848">list&lt;Device&gt;</text><rect fill="#E2E2F0" height="46.9766" rx="2.5" ry="2.5" style="stroke:#181818;stroke-width:0.5;" width="75" x="1759.5" y="1284.8613"/><text fill="#000000" font-family="sans-serif" font-size="14" lengthAdjust="spacing" textLength="61" x="1766.5" y="1305.3965">actuator:</text><text fill="#000000" font-family="sans-serif" font-size="14" lengthAdjust="spacing" textLength="59" x="1767.5" y="1321.8848">Actuator</text><rect fill="#E2E2F0" height="46.9766" rx="2.5" ry="2.5" style="stroke:#181818;stroke-width:0.5;" width="135" x="1844.5" y="1284.8613"/><text fill="#000000" font-family="sans-serif" font-size="14" font-style="italic" lengthAdjust="spacing" textLength="95" x="1864.5" y="1305.3965">&#171;Component&#187;</text><text fill="#000000" font-family="sans-serif" font-size="14" lengthAdjust="spacing" textLength="121" x="1851.5" y="1321.8848">:DeviceRepository</text><rect fill="#E2E2F0" height="46.9766" rx="2.5" ry="2.5" style="stroke:#181818;stroke-width:0.5;" width="61" x="1989.5" y="1284.8613"/><text fill="#000000" font-family="sans-serif" font-size="14" lengthAdjust="spacing" textLength="47" x="1996.5" y="1305.3965">device:</text><text fill="#000000" font-family="sans-serif" font-size="14" lengthAdjust="spacing" textLength="44" x="1998" y="1321.8848">Device</text><rect fill="#E2E2F0" height="46.9766" rx="2.5" ry="2.5" style="stroke:#181818;stroke-width:0.5;" width="109" x="2087.5" y="1284.8613"/><text fill="#000000" font-family="sans-serif" font-size="14" font-style="italic" lengthAdjust="spacing" textLength="95" x="2094.5" y="1305.3965">&#171;Component&#187;</text><text fill="#000000" font-family="sans-serif" font-size="14" lengthAdjust="spacing" textLength="67" x="2108.5" y="1321.8848">:DB Driver</text><ellipse cx="10.5" cy="190.2676" fill="none" rx="4" ry="4" style="stroke:#181818;stroke-width:1.5;"/><polygon fill="#181818" points="238,187.0176,248,191.0176,238,195.0176,242,191.0176" style="stroke:#181818;stroke-width:1.0;"/><line style="stroke:#181818;stroke-width:1.0;" x1="15" x2="244" y1="191.0176" y2="191.0176"/><text fill="#000000" font-family="sans-serif" font-size="13" font-weight="bold" lengthAdjust="spacing" textLength="9" x="18" y="186.2754">1</text><text fill="#000000" font-family="sans-serif" font-size="13" lengthAdjust="spacing" textLength="213" x="31" y="186.2754">GET api/actuatorfunctionality/{id}</text><polygon fill="#181818" points="537,262.2598,547,266.2598,537,270.2598,541,266.2598" style="stroke:#181818;stroke-width:1.0;"/><line style="stroke:#181818;stroke-width:1.0;" x1="260" x2="543" y1="266.2598" y2="266.2598"/><text fill="#000000" font-family="sans-serif" font-size="13" font-weight="bold" lengthAdjust="spacing" textLength="9" x="267" y="238.5518">2</text><text fill="#000000" font-family="sans-serif" font-size="13" lengthAdjust="spacing" textLength="253" x="280" y="215.5859">GET getObjectByActuatorFunctionalityID</text><text fill="#000000" font-family="sans-serif" font-size="13" lengthAdjust="spacing" textLength="183" x="280" y="230.8965">(@PathVariable("id") String id,</text><text fill="#000000" font-family="sans-serif" font-size="13" lengthAdjust="spacing" textLength="195" x="280" y="246.207">@RequestParam(value = "type",</text><text fill="#000000" font-family="sans-serif" font-size="13" lengthAdjust="spacing" textLength="180" x="280" y="261.5176">required = false) String type)</text><line style="stroke:#181818;stroke-width:1.0;" x1="559" x2="601" y1="295.5703" y2="295.5703"/><line style="stroke:#181818;stroke-width:1.0;" x1="601" x2="601" y1="295.5703" y2="308.5703"/><line style="stroke:#181818;stroke-width:1.0;" x1="560" x2="601" y1="308.5703" y2="308.5703"/><polygon fill="#181818" points="570,304.5703,560,308.5703,570,312.5703,566,308.5703" style="stroke:#181818;stroke-width:1.0;"/><text fill="#000000" font-family="sans-serif" font-size="13" font-weight="bold" lengthAdjust="spacing" textLength="9" x="566" y="290.8281">3</text><text fill="#000000" font-family="sans-serif" font-size="13" lengthAdjust="spacing" textLength="150" x="579" y="290.8281">type.equals("map"): true</text><line style="stroke:#181818;stroke-width:1.0;" x1="559" x2="606" y1="337.8809" y2="337.8809"/><line style="stroke:#181818;stroke-width:1.0;" x1="606" x2="606" y1="337.8809" y2="350.8809"/><line style="stroke:#181818;stroke-width:1.0;" x1="565" x2="606" y1="350.8809" y2="350.8809"/><polygon fill="#181818" points="575,346.8809,565,350.8809,575,354.8809,571,350.8809" style="stroke:#181818;stroke-width:1.0;"/><text fill="#000000" font-family="sans-serif" font-size="13" font-weight="bold" lengthAdjust="spacing" textLength="9" x="571" y="333.1387">4</text><text fill="#000000" font-family="sans-serif" font-size="13" lengthAdjust="spacing" textLength="371" x="584" y="333.1387">getListOfDeviceIDAndRoomIDAccordingToFunctionality(id)</text><rect fill="#E2E2F0" height="46.9766" rx="2.5" ry="2.5" style="stroke:#181818;stroke-width:0.5;" width="175" x="874.5" y="358.8809"/><text fill="#000000" font-family="sans-serif" font-size="14" lengthAdjust="spacing" textLength="149" x="887.5" y="379.416">actuatorFunctionality:</text><text fill="#000000" font-family="sans-serif" font-size="14" lengthAdjust="spacing" textLength="161" x="881.5" y="395.9043">ActuatorFunctionalityID</text><polygon fill="#181818" points="862.5,376.1914,872.5,380.1914,862.5,384.1914,866.5,380.1914" style="stroke:#181818;stroke-width:1.0;"/><line style="stroke:#181818;stroke-width:1.0;stroke-dasharray:2.0,2.0;" x1="564" x2="868.5" y1="380.1914" y2="380.1914"/><text fill="#000000" font-family="sans-serif" font-size="13" font-weight="bold" lengthAdjust="spacing" textLength="9" x="571" y="375.4492">5</text><text fill="#000000" font-family="sans-serif" font-size="13" lengthAdjust="spacing" textLength="68" x="584" y="375.4492">&lt;&lt;create&gt;</text><polygon fill="#181818" points="1131.5,439.4785,1141.5,443.4785,1131.5,447.4785,1135.5,443.4785" style="stroke:#181818;stroke-width:1.0;"/><line style="stroke:#181818;stroke-width:1.0;" x1="564" x2="1137.5" y1="443.4785" y2="443.4785"/><text fill="#000000" font-family="sans-serif" font-size="13" font-weight="bold" lengthAdjust="spacing" textLength="9" x="571" y="431.0811">6</text><text fill="#000000" font-family="sans-serif" font-size="13" lengthAdjust="spacing" textLength="354" x="584" y="423.4258">getMapOfDeviceIDAndRoomIDAccordingToFunctionality</text><text fill="#000000" font-family="sans-serif" font-size="13" lengthAdjust="spacing" textLength="142" x="584" y="438.7363">(actuatorFunctionality)</text><polygon fill="#181818" points="1352.5,484.0996,1362.5,488.0996,1352.5,492.0996,1356.5,488.0996" style="stroke:#181818;stroke-width:1.0;"/><line style="stroke:#181818;stroke-width:1.0;" x1="1153.5" x2="1358.5" y1="488.0996" y2="488.0996"/><text fill="#000000" font-family="sans-serif" font-size="13" font-weight="bold" lengthAdjust="spacing" textLength="9" x="1160.5" y="475.7021">7</text><text fill="#000000" font-family="sans-serif" font-size="13" lengthAdjust="spacing" textLength="175" x="1173.5" y="468.0469">findByActuatorFunctionality</text><text fill="#000000" font-family="sans-serif" font-size="13" lengthAdjust="spacing" textLength="135" x="1173.5" y="483.3574">(chosenFunctionality)</text><polygon fill="#181818" points="1164.5,513.4102,1154.5,517.4102,1164.5,521.4102,1160.5,517.4102" style="stroke:#181818;stroke-width:1.0;"/><line style="stroke:#181818;stroke-width:1.0;stroke-dasharray:2.0,2.0;" x1="1158.5" x2="1363.5" y1="517.4102" y2="517.4102"/><text fill="#000000" font-family="sans-serif" font-size="13" font-weight="bold" lengthAdjust="spacing" textLength="9" x="1170.5" y="512.668">8</text><text fill="#000000" font-family="sans-serif" font-size="13" lengthAdjust="spacing" textLength="121" x="1183.5" y="512.668">Iterable&lt;Actuator&gt;</text><rect fill="#E2E2F0" height="46.9766" rx="2.5" ry="2.5" style="stroke:#181818;stroke-width:0.5;" width="185" x="1454.5" y="525.4102"/><text fill="#000000" font-family="sans-serif" font-size="14" lengthAdjust="spacing" textLength="76" x="1509" y="545.9453">returnMap:</text><text fill="#000000" font-family="sans-serif" font-size="14" lengthAdjust="spacing" textLength="171" x="1461.5" y="562.4336">Map&lt;DeviceID, RoomID&gt;</text><polygon fill="#181818" points="1442.5,542.7207,1452.5,546.7207,1442.5,550.7207,1446.5,546.7207" style="stroke:#181818;stroke-width:1.0;"/><line style="stroke:#181818;stroke-width:1.0;stroke-dasharray:2.0,2.0;" x1="1153.5" x2="1448.5" y1="546.7207" y2="546.7207"/><text fill="#000000" font-family="sans-serif" font-size="13" font-weight="bold" lengthAdjust="spacing" textLength="9" x="1160.5" y="541.9785">9</text><text fill="#000000" font-family="sans-serif" font-size="13" lengthAdjust="spacing" textLength="68" x="1173.5" y="541.9785">&lt;&lt;create&gt;</text><rect fill="#E2E2F0" height="46.9766" rx="2.5" ry="2.5" style="stroke:#181818;stroke-width:0.5;" width="100" x="1649.5" y="573.3867"/><text fill="#000000" font-family="sans-serif" font-size="14" lengthAdjust="spacing" textLength="75" x="1662" y="593.9219">listDevices:</text><text fill="#000000" font-family="sans-serif" font-size="14" lengthAdjust="spacing" textLength="86" x="1656.5" y="610.4102">list&lt;Device&gt;</text><polygon fill="#181818" points="1637.5,590.6973,1647.5,594.6973,1637.5,598.6973,1641.5,594.6973" style="stroke:#181818;stroke-width:1.0;"/><line style="stroke:#181818;stroke-width:1.0;stroke-dasharray:2.0,2.0;" x1="1153.5" x2="1643.5" y1="594.6973" y2="594.6973"/><text fill="#000000" font-family="sans-serif" font-size="13" font-weight="bold" lengthAdjust="spacing" textLength="18" x="1160.5" y="589.9551">10</text><text fill="#000000" font-family="sans-serif" font-size="13" lengthAdjust="spacing" textLength="68" x="1182.5" y="589.9551">&lt;&lt;create&gt;</text><path d="M1113.5,625.3633 L1187.5,625.3633 L1187.5,632.6738 L1177.5,642.6738 L1113.5,642.6738 L1113.5,625.3633 " fill="#EEEEEE" style="stroke:#000000;stroke-width:1.5;"/><rect fill="none" height="501.6348" style="stroke:#000000;stroke-width:1.5;" width="1202.5" x="1113.5" y="625.3633"/><text fill="#000000" font-family="sans-serif" font-size="13" font-weight="bold" lengthAdjust="spacing" textLength="29" x="1128.5" y="638.9316">loop</text><text fill="#000000" font-family="sans-serif" font-size="11" font-weight="bold" lengthAdjust="spacing" textLength="281" x="1202.5" y="637.998">[for each Actuator in List with the functionalityID]</text><rect fill="#E2E2F0" height="46.9766" rx="2.5" ry="2.5" style="stroke:#181818;stroke-width:0.5;" width="75" x="1754.5" y="652.6738"/><text fill="#000000" font-family="sans-serif" font-size="14" lengthAdjust="spacing" textLength="61" x="1761.5" y="673.209">actuator:</text><text fill="#000000" font-family="sans-serif" font-size="14" lengthAdjust="spacing" textLength="59" x="1762.5" y="689.6973">Actuator</text><polygon fill="#181818" points="1742.5,669.9844,1752.5,673.9844,1742.5,677.9844,1746.5,673.9844" style="stroke:#181818;stroke-width:1.0;"/><line style="stroke:#181818;stroke-width:1.0;" x1="1153.5" x2="1748.5" y1="673.9844" y2="673.9844"/><text fill="#000000" font-family="sans-serif" font-size="13" font-weight="bold" lengthAdjust="spacing" textLength="18" x="1160.5" y="669.2422">11</text><text fill="#000000" font-family="sans-serif" font-size="13" lengthAdjust="spacing" textLength="106" x="1182.5" y="669.2422">getDeviceName()</text><polygon fill="#181818" points="1164.5,717.9609,1154.5,721.9609,1164.5,725.9609,1160.5,721.9609" style="stroke:#181818;stroke-width:1.0;"/><line style="stroke:#181818;stroke-width:1.0;stroke-dasharray:2.0,2.0;" x1="1158.5" x2="1791" y1="721.9609" y2="721.9609"/><text fill="#000000" font-family="sans-serif" font-size="13" font-weight="bold" lengthAdjust="spacing" textLength="18" x="1170.5" y="717.2188">12</text><text fill="#000000" font-family="sans-serif" font-size="13" lengthAdjust="spacing" textLength="54" x="1192.5" y="717.2188">deviceID</text><polygon fill="#181818" points="1895,747.2715,1905,751.2715,1895,755.2715,1899,751.2715" style="stroke:#181818;stroke-width:1.0;"/><line style="stroke:#181818;stroke-width:1.0;" x1="1153.5" x2="1901" y1="751.2715" y2="751.2715"/><text fill="#000000" font-family="sans-serif" font-size="13" font-weight="bold" lengthAdjust="spacing" textLength="18" x="1160.5" y="746.5293">13</text><text fill="#000000" font-family="sans-serif" font-size="13" lengthAdjust="spacing" textLength="151" x="1182.5" y="746.5293">findEntityByID(deviceID)</text><polygon fill="#181818" points="2125,776.582,2135,780.582,2125,784.582,2129,780.582" style="stroke:#181818;stroke-width:1.0;"/><line style="stroke:#181818;stroke-width:1.0;" x1="1917" x2="2131" y1="780.582" y2="780.582"/><text fill="#000000" font-family="sans-serif" font-size="13" font-weight="bold" lengthAdjust="spacing" textLength="18" x="1924" y="775.8398">14</text><text fill="#000000" font-family="sans-serif" font-size="13" lengthAdjust="spacing" textLength="151" x="1946" y="775.8398">findEntityByID(deviceID)</text><ellipse cx="2318.5" cy="809.1426" fill="none" rx="4" ry="4" style="stroke:#181818;stroke-width:1.5;"/><polygon fill="#181818" points="2301.5,805.8926,2311.5,809.8926,2301.5,813.8926,2305.5,809.8926" style="stroke:#181818;stroke-width:1.0;"/><line style="stroke:#181818;stroke-width:1.0;" x1="2147" x2="2307.5" y1="809.8926" y2="809.8926"/><text fill="#000000" font-family="sans-serif" font-size="13" font-weight="bold" lengthAdjust="spacing" textLength="18" x="2154" y="805.1504">15</text><text fill="#000000" font-family="sans-serif" font-size="13" lengthAdjust="spacing" textLength="112" x="2176" y="805.1504">DATABASE QUERY</text><polygon fill="#181818" points="2158,835.2031,2148,839.2031,2158,843.2031,2154,839.2031" style="stroke:#181818;stroke-width:1.0;"/><ellipse cx="2318.5" cy="838.4531" fill="none" rx="4" ry="4" style="stroke:#181818;stroke-width:1.5;"/><line style="stroke:#181818;stroke-width:1.0;stroke-dasharray:2.0,2.0;" x1="2152" x2="2314" y1="839.2031" y2="839.2031"/><text fill="#000000" font-family="sans-serif" font-size="13" font-weight="bold" lengthAdjust="spacing" textLength="18" x="2164" y="834.4609">16</text><text fill="#000000" font-family="sans-serif" font-size="13" lengthAdjust="spacing" textLength="109" x="2186" y="834.4609">QUERY RESPONSE</text><polygon fill="#181818" points="1928,864.5137,1918,868.5137,1928,872.5137,1924,868.5137" style="stroke:#181818;stroke-width:1.0;"/><line style="stroke:#181818;stroke-width:1.0;stroke-dasharray:2.0,2.0;" x1="1922" x2="2136" y1="868.5137" y2="868.5137"/><text fill="#000000" font-family="sans-serif" font-size="13" font-weight="bold" lengthAdjust="spacing" textLength="18" x="1934" y="863.7715">17</text><text fill="#000000" font-family="sans-serif" font-size="13" lengthAdjust="spacing" textLength="174" x="1956" y="863.7715">DeviceDataModel:deviceDM</text><polygon fill="#181818" points="1164.5,893.8242,1154.5,897.8242,1164.5,901.8242,1160.5,897.8242" style="stroke:#181818;stroke-width:1.0;"/><line style="stroke:#181818;stroke-width:1.0;stroke-dasharray:2.0,2.0;" x1="1158.5" x2="1906" y1="897.8242" y2="897.8242"/><text fill="#000000" font-family="sans-serif" font-size="13" font-weight="bold" lengthAdjust="spacing" textLength="18" x="1170.5" y="893.082">18</text><text fill="#000000" font-family="sans-serif" font-size="13" lengthAdjust="spacing" textLength="116" x="1192.5" y="893.082">Optional&lt;Device&gt;</text><polygon fill="#181818" points="2003,923.1348,2013,927.1348,2003,931.1348,2007,927.1348" style="stroke:#181818;stroke-width:1.0;"/><line style="stroke:#181818;stroke-width:1.0;" x1="1153.5" x2="2009" y1="927.1348" y2="927.1348"/><text fill="#000000" font-family="sans-serif" font-size="13" font-weight="bold" lengthAdjust="spacing" textLength="18" x="1160.5" y="922.3926">19</text><text fill="#000000" font-family="sans-serif" font-size="13" lengthAdjust="spacing" textLength="58" x="1182.5" y="922.3926">isActive()</text><polygon fill="#181818" points="1164.5,952.4453,1154.5,956.4453,1164.5,960.4453,1160.5,956.4453" style="stroke:#181818;stroke-width:1.0;"/><line style="stroke:#181818;stroke-width:1.0;stroke-dasharray:2.0,2.0;" x1="1158.5" x2="2014" y1="956.4453" y2="956.4453"/><text fill="#000000" font-family="sans-serif" font-size="13" font-weight="bold" lengthAdjust="spacing" textLength="18" x="1170.5" y="951.7031">20</text><text fill="#000000" font-family="sans-serif" font-size="13" lengthAdjust="spacing" textLength="25" x="1192.5" y="951.7031">true</text><polygon fill="#181818" points="1682.5,981.7559,1692.5,985.7559,1682.5,989.7559,1686.5,985.7559" style="stroke:#181818;stroke-width:1.0;"/><line style="stroke:#181818;stroke-width:1.0;" x1="1153.5" x2="1688.5" y1="985.7559" y2="985.7559"/><text fill="#000000" font-family="sans-serif" font-size="13" font-weight="bold" lengthAdjust="spacing" textLength="18" x="1160.5" y="981.0137">21</text><text fill="#000000" font-family="sans-serif" font-size="13" lengthAdjust="spacing" textLength="157" x="1182.5" y="981.0137">add(deviceOptional.get())</text><path d="M1132.5,997.7559 L1206.5,997.7559 L1206.5,1005.0664 L1196.5,1015.0664 L1132.5,1015.0664 L1132.5,997.7559 " fill="#EEEEEE" style="stroke:#000000;stroke-width:1.5;"/><rect fill="none" height="115.2422" style="stroke:#000000;stroke-width:1.5;" width="934" x="1132.5" y="997.7559"/><text fill="#000000" font-family="sans-serif" font-size="13" font-weight="bold" lengthAdjust="spacing" textLength="29" x="1147.5" y="1011.3242">loop</text><text fill="#000000" font-family="sans-serif" font-size="11" font-weight="bold" lengthAdjust="spacing" textLength="177" x="1221.5" y="1010.3906">[for each Device in listDevices]</text><polygon fill="#181818" points="2003,1042.377,2013,1046.377,2003,1050.377,2007,1046.377" style="stroke:#181818;stroke-width:1.0;"/><line style="stroke:#181818;stroke-width:1.0;" x1="1153.5" x2="2009" y1="1046.377" y2="1046.377"/><text fill="#000000" font-family="sans-serif" font-size="13" font-weight="bold" lengthAdjust="spacing" textLength="18" x="1160.5" y="1041.6348">22</text><text fill="#000000" font-family="sans-serif" font-size="13" lengthAdjust="spacing" textLength="78" x="1182.5" y="1041.6348">getRoomID()</text><polygon fill="#181818" points="1164.5,1071.6875,1154.5,1075.6875,1164.5,1079.6875,1160.5,1075.6875" style="stroke:#181818;stroke-width:1.0;"/><line style="stroke:#181818;stroke-width:1.0;stroke-dasharray:2.0,2.0;" x1="1158.5" x2="2014" y1="1075.6875" y2="1075.6875"/><text fill="#000000" font-family="sans-serif" font-size="13" font-weight="bold" lengthAdjust="spacing" textLength="18" x="1170.5" y="1070.9453">23</text><text fill="#000000" font-family="sans-serif" font-size="13" lengthAdjust="spacing" textLength="47" x="1192.5" y="1070.9453">roomID</text><polygon fill="#181818" points="1530,1100.998,1540,1104.998,1530,1108.998,1534,1104.998" style="stroke:#181818;stroke-width:1.0;"/><line style="stroke:#181818;stroke-width:1.0;" x1="1153.5" x2="1536" y1="1104.998" y2="1104.998"/><text fill="#000000" font-family="sans-serif" font-size="13" font-weight="bold" lengthAdjust="spacing" textLength="18" x="1160.5" y="1100.2559">24</text><text fill="#000000" font-family="sans-serif" font-size="13" lengthAdjust="spacing" textLength="138" x="1182.5" y="1100.2559">put(deviceID, roomID)</text><polygon fill="#181818" points="575,1173.6191,565,1177.6191,575,1181.6191,571,1177.6191" style="stroke:#181818;stroke-width:1.0;"/><line style="stroke:#181818;stroke-width:1.0;stroke-dasharray:2.0,2.0;" x1="569" x2="1142.5" y1="1177.6191" y2="1177.6191"/><text fill="#000000" font-family="sans-serif" font-size="13" font-weight="bold" lengthAdjust="spacing" textLength="18" x="581" y="1165.2217">25</text><text fill="#000000" font-family="sans-serif" font-size="13" lengthAdjust="spacing" textLength="134" x="603" y="1157.5664">deviceIDRoomIDMap:</text><text fill="#000000" font-family="sans-serif" font-size="13" lengthAdjust="spacing" textLength="160" x="603" y="1172.877">Map&lt;DeviceID, RoomID&gt;</text><polygon fill="#181818" points="271,1218.2402,261,1222.2402,271,1226.2402,267,1222.2402" style="stroke:#181818;stroke-width:1.0;"/><line style="stroke:#181818;stroke-width:1.0;stroke-dasharray:2.0,2.0;" x1="265" x2="548" y1="1222.2402" y2="1222.2402"/><text fill="#000000" font-family="sans-serif" font-size="13" font-weight="bold" lengthAdjust="spacing" textLength="18" x="277" y="1209.8428">26</text><text fill="#000000" font-family="sans-serif" font-size="13" lengthAdjust="spacing" textLength="234" x="299" y="1202.1875">CollectionModel.of(blindRollerDTOs),</text><text fill="#000000" font-family="sans-serif" font-size="13" lengthAdjust="spacing" textLength="94" x="299" y="1217.498">HTTPStatus.OK</text><ellipse cx="10.5" cy="1266.1113" fill="none" rx="4" ry="4" style="stroke:#181818;stroke-width:1.5;"/><polygon fill="#181818" points="27.5,1262.8613,17.5,1266.8613,27.5,1270.8613,23.5,1266.8613" style="stroke:#181818;stroke-width:1.0;"/><line style="stroke:#181818;stroke-width:1.0;stroke-dasharray:2.0,2.0;" x1="25.5" x2="249" y1="1266.8613" y2="1266.8613"/><text fill="#000000" font-family="sans-serif" font-size="13" font-weight="bold" lengthAdjust="spacing" textLength="18" x="28" y="1254.4639">27</text><text fill="#000000" font-family="sans-serif" font-size="13" lengthAdjust="spacing" textLength="96" x="50" y="1246.8086">JSON response,</text><text fill="#000000" font-family="sans-serif" font-size="13" lengthAdjust="spacing" textLength="89" x="50" y="1262.1191">HttpStatus.OK</text><!--SRC=[dLPDa-Cq4BthLpJXucnDiaLneCeLN9kCmn3OcGn95ehQuI3RoaIiOtbbEH0e_ZijoOvb4tjdkUH3wdwlk_NKBSLLok3TxTVVJB-22Tmn1Ial58WzXEp4OrR07rmTO1whaYeXuRioYnKN6KsvEaDqXeqGHq9egKHM7YCc2VaYb_JvI44nyHSeMJ928l4dZ6QpRHbjpuLYno1uolm5ZJ-mB1d1bo6L7-uaErixcCrkHQOepvWqXbicJqoYtLl-V536CATIyPZdD5CmyZUYLDg05c1_6eXZBZAMgI3eMDUvj5BHZ5AaAPE_iCWWDIj3QFGQcF-KNILPXGPvxwvrWhjDHS4MAS-IZU7MkUCn6B_u-jwBajsmN1GSVvmD57MMX_mbKwNCxccEAU7dp8fY5TwOSr-5WK6xMBMTjP8g5Q6x_bVvMozd-tfDdJAsWkwaQ34w2IQNnQ7qh1NoM0p7iyknW53oKoMo9Eg0eem1jKl8Up49AWtwSBVS0Stvwphkrhc__fid_n3SuYUgMEL3IALVH6dqPv6UcLf7lxDOBSuzueAdp7lpIDNXPoevZLBcZNWo6iDMIPuz0qzkqEBDXdqiMQ4UgQH7xqJJai6tC5Bdd8tqliHjBbc2YtkQ5kpYhYt6JS1DUCIvAPsujSyK0H786nrfFXhxjYFqks2QRr4OwtqjjRcMkzRQF8w5J32KdMWbxl7aUbmj5gHfrV_LA_3n56F9q2le1DHpqqnqAFFF24wVoTKUuOJSmqRwxZi6wDvV7_PeqgCApHyV42VhOtUX26arXibGALQeKosoMSqRa8JreFPcWWINvj4vaI4VftLql4WgH0vxd5GOYpEtU0PQLdQQgGDhYs4LlgJOXWeLO9aVw95vL-fuAU5m-P9AGTUADXHCqzZikIypXGaiC0MlXdI2Qgm9SLgYnebUv1yHR7QJGFpcGpZVpHVpxH9-UhVS_AhNPvE9tZ3_ORFSFguVjalZq0dKLYoaYjwBXAM-tGlltUIHgXNYKF7MkJswUfwqS9gKFrb67tWnruwjawmcWFqQ3iGqi_-G3n6xGn5eabHLhpEQehwyiHECEoKT8dUvetcxh1Nl6dso5bRRjflzpsf8u_nvzMXU692NwgB1cmhC2QHvPJW4pQAUmReGnFarr4FSeLEpskm7dZikTL_RTapSOLIFThmqBUvR_MrQaRaRKx7teWOqtAsBiPxBt-zsZrj5LLbCrp_sSRmN6hr-V_omNJzWWGfyfXJCO2YLNyMeNn__0W00]--></g></svg>