<?xml version="1.0" encoding="us-ascii" standalone="no"?><svg xmlns="http://www.w3.org/2000/svg" xmlns:xlink="http://www.w3.org/1999/xlink" contentStyleType="text/css" height="1071.9px" preserveAspectRatio="none" style="width:1873px;height:1071px;background:#FFFFFF;" version="1.1" viewBox="0 0 1873 1071" width="1873.8px" zoomAndPan="magnify"><defs/><g><rect fill="#A9A9A9" height="1025.9473" style="stroke:#181818;stroke-width:0.45;" width="1551.15" x="160.65" y="41.059"/><text fill="#000000" font-family="sans-serif" font-size="11.7" font-weight="bold" lengthAdjust="spacing" textLength="76.5" x="897.975" y="53.6845">&#171;SubSystem&#187;</text><text fill="#000000" font-family="sans-serif" font-size="11.7" font-weight="bold" lengthAdjust="spacing" textLength="53.1" x="897.975" y="69.2464">:Backend</text><rect fill="#D3D3D3" height="990.3234" style="stroke:#181818;stroke-width:0.45;" width="1551.15" x="160.65" y="76.6828"/><text fill="#000000" font-family="sans-serif" font-size="11.7" font-weight="bold" lengthAdjust="spacing" textLength="68.4" x="903.825" y="89.3083">&#171;Container&#187;</text><text fill="#000000" font-family="sans-serif" font-size="11.7" font-weight="bold" lengthAdjust="spacing" textLength="41.4" x="900.225" y="104.8702">:Server</text><text fill="#000000" font-family="sans-serif" font-size="12.6" font-weight="bold" lengthAdjust="spacing" textLength="659.7" x="606.825" y="27.0967">UC38 - As a User, I want to have today&#8217;s sunrise and sunset hours on the front/main page of my Web App.</text><line style="stroke:#181818;stroke-width:0.45;stroke-dasharray:5.0,5.0;" x1="210.6" x2="210.6" y1="158.4246" y2="1014.5883"/><rect fill="#FFFFFF" height="762.6779" style="stroke:#181818;stroke-width:0.9;" width="9" x="206.1" y="235.7104"/><line style="stroke:#181818;stroke-width:0.45;stroke-dasharray:5.0,5.0;" x1="484.2" x2="484.2" y1="158.4246" y2="1014.5883"/><rect fill="#FFFFFF" height="706.3541" style="stroke:#181818;stroke-width:0.9;" width="9" x="479.7" y="263.8723"/><line style="stroke:#181818;stroke-width:0.45;stroke-dasharray:5.0,5.0;" x1="627.3" x2="627.3" y1="158.4246" y2="1014.5883"/><rect fill="#FFFFFF" height="634.4684" style="stroke:#181818;stroke-width:0.9;" width="9" x="622.8" y="307.5961"/><rect fill="#FFFFFF" height="378.0492" style="stroke:#181818;stroke-width:0.9;" width="9" x="627.3" y="347.458"/><line style="stroke:#181818;stroke-width:0.45;stroke-dasharray:5.0,5.0;" x1="795.6" x2="795.6" y1="158.4246" y2="1014.5883"/><rect fill="#FFFFFF" height="28.1619" style="stroke:#181818;stroke-width:0.9;" width="9" x="791.1" y="375.6199"/><line style="stroke:#181818;stroke-width:0.45;stroke-dasharray:5.0,5.0;" x1="910.35" x2="910.35" y1="158.4246" y2="1014.5883"/><rect fill="#FFFFFF" height="28.1619" style="stroke:#181818;stroke-width:0.9;" width="9" x="905.85" y="431.9438"/><line style="stroke:#181818;stroke-width:0.45;stroke-dasharray:5.0,5.0;" x1="1022.4" x2="1022.4" y1="467.3057" y2="1014.5883"/><rect fill="#FFFFFF" height="47.018" style="stroke:#181818;stroke-width:0.9;" width="9" x="1017.9" y="488.2676"/><line style="stroke:#181818;stroke-width:0.45;stroke-dasharray:5.0,5.0;" x1="1191.15" x2="1191.15" y1="514.3236" y2="1014.5883"/><rect fill="#FFFFFF" height="20.9619" style="stroke:#181818;stroke-width:0.9;" width="9" x="1186.65" y="561.3416"/><line style="stroke:#181818;stroke-width:0.45;stroke-dasharray:5.0,5.0;" x1="1331.1" x2="1331.1" y1="561.3416" y2="1014.5883"/><rect fill="#FFFFFF" height="105.4477" style="stroke:#181818;stroke-width:0.9;" width="9" x="1326.6" y="608.3596"/><line style="stroke:#181818;stroke-width:0.45;stroke-dasharray:5.0,5.0;" x1="1453.05" x2="1453.05" y1="158.4246" y2="1014.5883"/><rect fill="#FFFFFF" height="156.3715" style="stroke:#181818;stroke-width:0.9;" width="9" x="1448.55" y="757.5311"/><line style="stroke:#181818;stroke-width:0.45;stroke-dasharray:5.0,5.0;" x1="1637.55" x2="1637.55" y1="158.4246" y2="1014.5883"/><rect fill="#FFFFFF" height="84.4857" style="stroke:#181818;stroke-width:0.9;" width="9" x="1633.05" y="801.2549"/><rect fill="#E2E2F0" height="46.118" rx="2.25" ry="2.25" style="stroke:#181818;stroke-width:0.45;" width="92.7" x="164.25" y="111.4066"/><text fill="#000000" font-family="sans-serif" font-size="12.6" font-style="italic" lengthAdjust="spacing" textLength="80.1" x="170.55" y="131.3033">&#171;Component&#187;</text><text fill="#000000" font-family="sans-serif" font-size="12.6" lengthAdjust="spacing" textLength="42.3" x="189.45" y="148.0623">:Router</text><rect fill="#E2E2F0" height="46.118" rx="2.25" ry="2.25" style="stroke:#181818;stroke-width:0.45;" width="134.1" x="417.15" y="111.4066"/><text fill="#000000" font-family="sans-serif" font-size="12.6" font-style="italic" lengthAdjust="spacing" textLength="80.1" x="444.15" y="131.3033">&#171;Component&#187;</text><text fill="#000000" font-family="sans-serif" font-size="12.6" lengthAdjust="spacing" textLength="121.5" x="423.45" y="148.0623">:HouseWebController</text><rect fill="#E2E2F0" height="46.118" rx="2.25" ry="2.25" style="stroke:#181818;stroke-width:0.45;" width="126" x="564.3" y="111.4066"/><text fill="#000000" font-family="sans-serif" font-size="12.6" font-style="italic" lengthAdjust="spacing" textLength="80.1" x="587.25" y="131.3033">&#171;Component&#187;</text><text fill="#000000" font-family="sans-serif" font-size="12.6" lengthAdjust="spacing" textLength="113.4" x="570.6" y="148.0623">:WeatherAPIService</text><rect fill="#E2E2F0" height="46.118" rx="2.25" ry="2.25" style="stroke:#181818;stroke-width:0.45;" width="98.1" x="746.55" y="111.4066"/><text fill="#000000" font-family="sans-serif" font-size="12.6" font-style="italic" lengthAdjust="spacing" textLength="80.1" x="755.55" y="131.3033">&#171;Component&#187;</text><text fill="#000000" font-family="sans-serif" font-size="12.6" lengthAdjust="spacing" textLength="85.5" x="752.85" y="148.0623">:ConfigScraper</text><rect fill="#E2E2F0" height="46.118" rx="2.25" ry="2.25" style="stroke:#181818;stroke-width:0.45;" width="113.4" x="853.65" y="111.4066"/><text fill="#000000" font-family="sans-serif" font-size="12.6" font-style="italic" lengthAdjust="spacing" textLength="80.1" x="870.3" y="131.3033">&#171;Component&#187;</text><text fill="#000000" font-family="sans-serif" font-size="12.6" lengthAdjust="spacing" textLength="100.8" x="859.95" y="148.0623">:HouseRepository</text><rect fill="#E2E2F0" height="46.118" rx="2.25" ry="2.25" style="stroke:#181818;stroke-width:0.45;" width="133.2" x="1386.45" y="111.4066"/><text fill="#000000" font-family="sans-serif" font-size="12.6" font-style="italic" lengthAdjust="spacing" textLength="80.1" x="1413" y="131.3033">&#171;Component&#187;</text><text fill="#000000" font-family="sans-serif" font-size="12.6" lengthAdjust="spacing" textLength="120.6" x="1392.75" y="148.0623">:WeatherAPIGateway</text><rect fill="#E2E2F0" height="46.118" rx="2.25" ry="2.25" style="stroke:#181818;stroke-width:0.45;" width="141.3" x="1566.9" y="111.4066"/><text fill="#000000" font-family="sans-serif" font-size="12.6" font-style="italic" lengthAdjust="spacing" textLength="80.1" x="1597.5" y="131.3033">&#171;Component&#187;</text><text fill="#000000" font-family="sans-serif" font-size="12.6" lengthAdjust="spacing" textLength="128.7" x="1573.2" y="148.0623">:WeatherServiceDriver</text><rect fill="#E2E2F0" height="46.118" rx="2.25" ry="2.25" style="stroke:#181818;stroke-width:0.45;" width="92.7" x="164.25" y="1014.5883"/><text fill="#000000" font-family="sans-serif" font-size="12.6" font-style="italic" lengthAdjust="spacing" textLength="80.1" x="170.55" y="1034.485">&#171;Component&#187;</text><text fill="#000000" font-family="sans-serif" font-size="12.6" lengthAdjust="spacing" textLength="42.3" x="189.45" y="1051.2439">:Router</text><rect fill="#E2E2F0" height="46.118" rx="2.25" ry="2.25" style="stroke:#181818;stroke-width:0.45;" width="134.1" x="417.15" y="1014.5883"/><text fill="#000000" font-family="sans-serif" font-size="12.6" font-style="italic" lengthAdjust="spacing" textLength="80.1" x="444.15" y="1034.485">&#171;Component&#187;</text><text fill="#000000" font-family="sans-serif" font-size="12.6" lengthAdjust="spacing" textLength="121.5" x="423.45" y="1051.2439">:HouseWebController</text><rect fill="#E2E2F0" height="46.118" rx="2.25" ry="2.25" style="stroke:#181818;stroke-width:0.45;" width="126" x="564.3" y="1014.5883"/><text fill="#000000" font-family="sans-serif" font-size="12.6" font-style="italic" lengthAdjust="spacing" textLength="80.1" x="587.25" y="1034.485">&#171;Component&#187;</text><text fill="#000000" font-family="sans-serif" font-size="12.6" lengthAdjust="spacing" textLength="113.4" x="570.6" y="1051.2439">:WeatherAPIService</text><rect fill="#E2E2F0" height="46.118" rx="2.25" ry="2.25" style="stroke:#181818;stroke-width:0.45;" width="98.1" x="746.55" y="1014.5883"/><text fill="#000000" font-family="sans-serif" font-size="12.6" font-style="italic" lengthAdjust="spacing" textLength="80.1" x="755.55" y="1034.485">&#171;Component&#187;</text><text fill="#000000" font-family="sans-serif" font-size="12.6" lengthAdjust="spacing" textLength="85.5" x="752.85" y="1051.2439">:ConfigScraper</text><rect fill="#E2E2F0" height="46.118" rx="2.25" ry="2.25" style="stroke:#181818;stroke-width:0.45;" width="113.4" x="853.65" y="1014.5883"/><text fill="#000000" font-family="sans-serif" font-size="12.6" font-style="italic" lengthAdjust="spacing" textLength="80.1" x="870.3" y="1034.485">&#171;Component&#187;</text><text fill="#000000" font-family="sans-serif" font-size="12.6" lengthAdjust="spacing" textLength="100.8" x="859.95" y="1051.2439">:HouseRepository</text><rect fill="#E2E2F0" height="46.118" rx="2.25" ry="2.25" style="stroke:#181818;stroke-width:0.45;" width="92.7" x="976.05" y="1014.5883"/><text fill="#000000" font-family="sans-serif" font-size="12.6" font-style="italic" lengthAdjust="spacing" textLength="80.1" x="982.35" y="1034.485">&#171;Component&#187;</text><text fill="#000000" font-family="sans-serif" font-size="12.6" lengthAdjust="spacing" textLength="39.6" x="1002.6" y="1051.2439">:House</text><rect fill="#E2E2F0" height="46.118" rx="2.25" ry="2.25" style="stroke:#181818;stroke-width:0.45;" width="92.7" x="1144.8" y="1014.5883"/><text fill="#000000" font-family="sans-serif" font-size="12.6" font-style="italic" lengthAdjust="spacing" textLength="80.1" x="1151.1" y="1034.485">&#171;Component&#187;</text><text fill="#000000" font-family="sans-serif" font-size="12.6" lengthAdjust="spacing" textLength="52.2" x="1165.05" y="1051.2439">:Location</text><rect fill="#E2E2F0" height="46.118" rx="2.25" ry="2.25" style="stroke:#181818;stroke-width:0.45;" width="92.7" x="1284.75" y="1014.5883"/><text fill="#000000" font-family="sans-serif" font-size="12.6" font-style="italic" lengthAdjust="spacing" textLength="80.1" x="1291.05" y="1034.485">&#171;Component&#187;</text><text fill="#000000" font-family="sans-serif" font-size="12.6" lengthAdjust="spacing" textLength="60.3" x="1300.95" y="1051.2439">:GPSCode</text><rect fill="#E2E2F0" height="46.118" rx="2.25" ry="2.25" style="stroke:#181818;stroke-width:0.45;" width="133.2" x="1386.45" y="1014.5883"/><text fill="#000000" font-family="sans-serif" font-size="12.6" font-style="italic" lengthAdjust="spacing" textLength="80.1" x="1413" y="1034.485">&#171;Component&#187;</text><text fill="#000000" font-family="sans-serif" font-size="12.6" lengthAdjust="spacing" textLength="120.6" x="1392.75" y="1051.2439">:WeatherAPIGateway</text><rect fill="#E2E2F0" height="46.118" rx="2.25" ry="2.25" style="stroke:#181818;stroke-width:0.45;" width="141.3" x="1566.9" y="1014.5883"/><text fill="#000000" font-family="sans-serif" font-size="12.6" font-style="italic" lengthAdjust="spacing" textLength="80.1" x="1597.5" y="1034.485">&#171;Component&#187;</text><text fill="#000000" font-family="sans-serif" font-size="12.6" lengthAdjust="spacing" textLength="128.7" x="1573.2" y="1051.2439">:WeatherServiceDriver</text><path d="M103.5,170.1246 L103.5,194.4246 L317.7,194.4246 L317.7,179.1246 L308.7,170.1246 L103.5,170.1246 " fill="#FEFFDD" style="stroke:#181818;stroke-width:0.45;"/><path d="M308.7,170.1246 L308.7,179.1246 L317.7,179.1246 L308.7,170.1246 " fill="#FEFFDD" style="stroke:#181818;stroke-width:0.45;"/><text fill="#000000" font-family="sans-serif" font-size="11.7" lengthAdjust="spacing" textLength="195.3" x="108.9" y="187.2501">SunX can represent sunrise or sunset</text><ellipse cx="9.45" cy="235.0354" fill="none" rx="3.6" ry="3.6" style="stroke:#181818;stroke-width:1.35;"/><polygon fill="#181818" points="195.3,232.1104,204.3,235.7104,195.3,239.3104,198.9,235.7104" style="stroke:#181818;stroke-width:0.9;"/><line style="stroke:#181818;stroke-width:0.9;" x1="13.5" x2="200.7" y1="235.7104" y2="235.7104"/><text fill="#000000" font-family="sans-serif" font-size="11.7" lengthAdjust="spacing" textLength="23.4" x="16.2" y="215.412">GET</text><text fill="#000000" font-family="sans-serif" font-size="11.7" lengthAdjust="spacing" textLength="149.4" x="16.2" y="230.9739">/house/weather?option=sunX</text><polygon fill="#181818" points="468.9,260.2723,477.9,263.8723,468.9,267.4723,472.5,263.8723" style="stroke:#181818;stroke-width:0.9;"/><line style="stroke:#181818;stroke-width:0.9;" x1="215.1" x2="474.3" y1="263.8723" y2="263.8723"/><text fill="#000000" font-family="sans-serif" font-size="11.7" lengthAdjust="spacing" textLength="247.5" x="221.4" y="259.1358">getWeatherInfo (@RequestParam String option)</text><polygon fill="#181818" points="612,303.9961,621,307.5961,612,311.1961,615.6,307.5961" style="stroke:#181818;stroke-width:0.9;"/><line style="stroke:#181818;stroke-width:0.9;" x1="488.7" x2="617.4" y1="307.5961" y2="307.5961"/><text fill="#000000" font-family="sans-serif" font-size="11.7" lengthAdjust="spacing" textLength="117" x="495" y="287.2978">getSunriseSunsetHour</text><text fill="#000000" font-family="sans-serif" font-size="11.7" lengthAdjust="spacing" textLength="38.7" x="495" y="302.8597">(option)</text><line style="stroke:#181818;stroke-width:0.9;" x1="631.8" x2="674.1" y1="335.758" y2="335.758"/><line style="stroke:#181818;stroke-width:0.9;" x1="674.1" x2="674.1" y1="335.758" y2="347.458"/><line style="stroke:#181818;stroke-width:0.9;" x1="637.2" x2="674.1" y1="347.458" y2="347.458"/><polygon fill="#181818" points="646.2,343.858,637.2,347.458,646.2,351.058,642.6,347.458" style="stroke:#181818;stroke-width:0.9;"/><text fill="#000000" font-family="sans-serif" font-size="11.7" lengthAdjust="spacing" textLength="146.7" x="642.6" y="331.0216">defineGroupHouseLocation()</text><polygon fill="#181818" points="780.3,372.0199,789.3,375.6199,780.3,379.2199,783.9,375.6199" style="stroke:#181818;stroke-width:0.9;"/><line style="stroke:#181818;stroke-width:0.9;" x1="636.3" x2="785.7" y1="375.6199" y2="375.6199"/><text fill="#000000" font-family="sans-serif" font-size="11.7" lengthAdjust="spacing" textLength="100.8" x="642.6" y="370.8835">loadGroupNumber()</text><polygon fill="#181818" points="646.2,400.1818,637.2,403.7818,646.2,407.3818,642.6,403.7818" style="stroke:#181818;stroke-width:0.9;"/><line style="stroke:#181818;stroke-width:0.9;stroke-dasharray:2.0,2.0;" x1="640.8" x2="790.2" y1="403.7818" y2="403.7818"/><text fill="#000000" font-family="sans-serif" font-size="11.7" lengthAdjust="spacing" textLength="85.5" x="651.6" y="399.0454">int groupNumber</text><polygon fill="#181818" points="895.05,428.3438,904.05,431.9438,895.05,435.5438,898.65,431.9438" style="stroke:#181818;stroke-width:0.9;"/><line style="stroke:#181818;stroke-width:0.9;" x1="636.3" x2="900.45" y1="431.9438" y2="431.9438"/><text fill="#000000" font-family="sans-serif" font-size="11.7" lengthAdjust="spacing" textLength="78.3" x="642.6" y="427.2073">findAllEntities()</text><polygon fill="#181818" points="646.2,456.5057,637.2,460.1057,646.2,463.7057,642.6,460.1057" style="stroke:#181818;stroke-width:0.9;"/><line style="stroke:#181818;stroke-width:0.9;stroke-dasharray:2.0,2.0;" x1="640.8" x2="904.95" y1="460.1057" y2="460.1057"/><text fill="#000000" font-family="sans-serif" font-size="11.7" lengthAdjust="spacing" textLength="126.9" x="651.6" y="455.3692">Iterable&lt;House&gt; houses</text><rect fill="#E2E2F0" height="46.118" rx="2.25" ry="2.25" style="stroke:#181818;stroke-width:0.45;" width="92.7" x="971.55" y="467.3057"/><text fill="#000000" font-family="sans-serif" font-size="12.6" font-style="italic" lengthAdjust="spacing" textLength="80.1" x="977.85" y="487.2023">&#171;Component&#187;</text><text fill="#000000" font-family="sans-serif" font-size="12.6" lengthAdjust="spacing" textLength="39.6" x="998.1" y="503.9613">:House</text><polygon fill="#181818" points="960.75,484.6676,969.75,488.2676,960.75,491.8676,964.35,488.2676" style="stroke:#181818;stroke-width:0.9;"/><line style="stroke:#181818;stroke-width:0.9;" x1="636.3" x2="966.15" y1="488.2676" y2="488.2676"/><text fill="#000000" font-family="sans-serif" font-size="11.7" lengthAdjust="spacing" textLength="117.9" x="642.6" y="483.5312">houses.iterator().next()</text><rect fill="#E2E2F0" height="46.118" rx="2.25" ry="2.25" style="stroke:#181818;stroke-width:0.45;" width="92.7" x="1144.8" y="514.3236"/><text fill="#000000" font-family="sans-serif" font-size="12.6" font-style="italic" lengthAdjust="spacing" textLength="80.1" x="1151.1" y="534.2203">&#171;Component&#187;</text><text fill="#000000" font-family="sans-serif" font-size="12.6" lengthAdjust="spacing" textLength="52.2" x="1165.05" y="550.9793">:Location</text><polygon fill="#181818" points="1134,531.6855,1143,535.2855,1134,538.8855,1137.6,535.2855" style="stroke:#181818;stroke-width:0.9;"/><line style="stroke:#181818;stroke-width:0.9;" x1="1026.9" x2="1139.4" y1="535.2855" y2="535.2855"/><text fill="#000000" font-family="sans-serif" font-size="11.7" lengthAdjust="spacing" textLength="100.8" x="1033.2" y="530.5491">getHouseLocation()</text><rect fill="#E2E2F0" height="46.118" rx="2.25" ry="2.25" style="stroke:#181818;stroke-width:0.45;" width="92.7" x="1284.75" y="561.3416"/><text fill="#000000" font-family="sans-serif" font-size="12.6" font-style="italic" lengthAdjust="spacing" textLength="80.1" x="1291.05" y="581.2383">&#171;Component&#187;</text><text fill="#000000" font-family="sans-serif" font-size="12.6" lengthAdjust="spacing" textLength="60.3" x="1300.95" y="597.9973">:GPSCode</text><polygon fill="#181818" points="1273.95,578.7035,1282.95,582.3035,1273.95,585.9035,1277.55,582.3035" style="stroke:#181818;stroke-width:0.9;"/><line style="stroke:#181818;stroke-width:0.9;" x1="1195.65" x2="1279.35" y1="582.3035" y2="582.3035"/><text fill="#000000" font-family="sans-serif" font-size="11.7" lengthAdjust="spacing" textLength="72" x="1201.95" y="577.5671">getGpsCode()</text><polygon fill="#181818" points="1315.8,625.7215,1324.8,629.3215,1315.8,632.9215,1319.4,629.3215" style="stroke:#181818;stroke-width:0.9;"/><line style="stroke:#181818;stroke-width:0.9;" x1="636.3" x2="1321.2" y1="629.3215" y2="629.3215"/><text fill="#000000" font-family="sans-serif" font-size="11.7" lengthAdjust="spacing" textLength="64.8" x="642.6" y="624.5851">getLatitude()</text><polygon fill="#181818" points="646.2,653.8834,637.2,657.4834,646.2,661.0834,642.6,657.4834" style="stroke:#181818;stroke-width:0.9;"/><line style="stroke:#181818;stroke-width:0.9;stroke-dasharray:2.0,2.0;" x1="640.8" x2="1325.7" y1="657.4834" y2="657.4834"/><text fill="#000000" font-family="sans-serif" font-size="11.7" lengthAdjust="spacing" textLength="75.6" x="651.6" y="652.747">double latitude</text><polygon fill="#181818" points="1315.8,682.0453,1324.8,685.6453,1315.8,689.2453,1319.4,685.6453" style="stroke:#181818;stroke-width:0.9;"/><line style="stroke:#181818;stroke-width:0.9;" x1="636.3" x2="1321.2" y1="685.6453" y2="685.6453"/><text fill="#000000" font-family="sans-serif" font-size="11.7" lengthAdjust="spacing" textLength="73.8" x="642.6" y="680.9089">getLongitude()</text><polygon fill="#181818" points="646.2,710.2072,637.2,713.8072,646.2,717.4072,642.6,713.8072" style="stroke:#181818;stroke-width:0.9;"/><line style="stroke:#181818;stroke-width:0.9;stroke-dasharray:2.0,2.0;" x1="640.8" x2="1325.7" y1="713.8072" y2="713.8072"/><text fill="#000000" font-family="sans-serif" font-size="11.7" lengthAdjust="spacing" textLength="84.6" x="651.6" y="709.0708">double longitude</text><polygon fill="#181818" points="1437.75,753.9311,1446.75,757.5311,1437.75,761.1311,1441.35,757.5311" style="stroke:#181818;stroke-width:0.9;"/><line style="stroke:#181818;stroke-width:0.9;" x1="631.8" x2="1443.15" y1="757.5311" y2="757.5311"/><text fill="#000000" font-family="sans-serif" font-size="11.7" lengthAdjust="spacing" textLength="123.3" x="638.1" y="737.2327">getSunriseSunsetHours</text><text fill="#000000" font-family="sans-serif" font-size="11.7" lengthAdjust="spacing" textLength="214.2" x="638.1" y="752.7946">(groupNumber, latitude, longitude, option)</text><polygon fill="#181818" points="1622.25,797.6549,1631.25,801.2549,1622.25,804.8549,1625.85,801.2549" style="stroke:#181818;stroke-width:0.9;"/><line style="stroke:#181818;stroke-width:0.9;" x1="1457.55" x2="1627.65" y1="801.2549" y2="801.2549"/><text fill="#000000" font-family="sans-serif" font-size="11.7" lengthAdjust="spacing" textLength="63.9" x="1463.85" y="780.9565">getForEntity</text><text fill="#000000" font-family="sans-serif" font-size="11.7" lengthAdjust="spacing" textLength="158.4" x="1463.85" y="796.5185">(url, SunriseSunsetDTO.class)</text><ellipse cx="1863.9" cy="828.7418" fill="none" rx="3.6" ry="3.6" style="stroke:#181818;stroke-width:1.35;"/><polygon fill="#181818" points="1848.6,825.8168,1857.6,829.4168,1848.6,833.0168,1852.2,829.4168" style="stroke:#181818;stroke-width:0.9;"/><line style="stroke:#181818;stroke-width:0.9;" x1="1642.05" x2="1854" y1="829.4168" y2="829.4168"/><text fill="#000000" font-family="sans-serif" font-size="11.7" lengthAdjust="spacing" textLength="175.5" x="1648.35" y="824.6804">Request external Weather service</text><polygon fill="#181818" points="1651.95,853.9787,1642.95,857.5787,1651.95,861.1787,1648.35,857.5787" style="stroke:#181818;stroke-width:0.9;"/><ellipse cx="1863.9" cy="856.9037" fill="none" rx="3.6" ry="3.6" style="stroke:#181818;stroke-width:1.35;"/><line style="stroke:#181818;stroke-width:0.9;stroke-dasharray:2.0,2.0;" x1="1646.55" x2="1859.85" y1="857.5787" y2="857.5787"/><text fill="#000000" font-family="sans-serif" font-size="11.7" lengthAdjust="spacing" textLength="210.6" x="1657.35" y="852.8423">Response from external Weather service</text><polygon fill="#181818" points="1467.45,882.1406,1458.45,885.7406,1467.45,889.3406,1463.85,885.7406" style="stroke:#181818;stroke-width:0.9;"/><line style="stroke:#181818;stroke-width:0.9;stroke-dasharray:2.0,2.0;" x1="1462.05" x2="1632.15" y1="885.7406" y2="885.7406"/><text fill="#000000" font-family="sans-serif" font-size="11.7" lengthAdjust="spacing" textLength="99.9" x="1472.85" y="881.0042">SunriseSunsetDTO</text><polygon fill="#181818" points="641.7,910.3025,632.7,913.9025,641.7,917.5025,638.1,913.9025" style="stroke:#181818;stroke-width:0.9;"/><line style="stroke:#181818;stroke-width:0.9;stroke-dasharray:2.0,2.0;" x1="636.3" x2="1447.65" y1="913.9025" y2="913.9025"/><text fill="#000000" font-family="sans-serif" font-size="11.7" lengthAdjust="spacing" textLength="99.9" x="647.1" y="909.1661">SunriseSunsetDTO</text><polygon fill="#181818" points="498.6,938.4645,489.6,942.0645,498.6,945.6645,495,942.0645" style="stroke:#181818;stroke-width:0.9;"/><line style="stroke:#181818;stroke-width:0.9;stroke-dasharray:2.0,2.0;" x1="493.2" x2="621.9" y1="942.0645" y2="942.0645"/><text fill="#000000" font-family="sans-serif" font-size="11.7" lengthAdjust="spacing" textLength="93.6" x="504" y="937.328">double sunXHours</text><polygon fill="#181818" points="225,966.6264,216,970.2264,225,973.8264,221.4,970.2264" style="stroke:#181818;stroke-width:0.9;"/><line style="stroke:#181818;stroke-width:0.9;stroke-dasharray:2.0,2.0;" x1="219.6" x2="478.8" y1="970.2264" y2="970.2264"/><text fill="#000000" font-family="sans-serif" font-size="11.7" lengthAdjust="spacing" textLength="150.3" x="230.4" y="965.4899">sunXHours, HTTP Status OK</text><ellipse cx="9.45" cy="997.7133" fill="none" rx="3.6" ry="3.6" style="stroke:#181818;stroke-width:1.35;"/><polygon fill="#181818" points="24.75,994.7883,15.75,998.3883,24.75,1001.9883,21.15,998.3883" style="stroke:#181818;stroke-width:0.9;"/><line style="stroke:#181818;stroke-width:0.9;stroke-dasharray:2.0,2.0;" x1="22.95" x2="205.2" y1="998.3883" y2="998.3883"/><text fill="#000000" font-family="sans-serif" font-size="11.7" lengthAdjust="spacing" textLength="184.5" x="25.2" y="993.6519">JSON sunXHours, HTTP Status OK</text><!--SRC=[ZLLDKzim4BthLspf1PW43hrqCcbQ2ZJGCi3WC303FIZsnj7WIAua0-cfVwD_hx-aQqbsbC0ad92Pzzv-lTrOOGk4wyCF7w4B1mOuN1lK7JY59oujM0LJ_eZqD-FpVt_-6Z2LrC8WS9dLRuCMfghI1fG4EqMOQ2Nj_emB2INF4TG4PdEumJ4SbEKUO-zApVCP1ulgDrXT8MDih9vXgzzFgd4oDnPdWy6zx7tbwGFAR0lU7t7zCDGuzpZezmyf10L0xO09waVKX3iJ-TGwOCcr5QaewnAsUbUgiZM06z3kwIHcfP8exM2mWZvHbK7AjmwYLL44Pjf-hcNV8ASkw8FBqpejaQ8Z6_zUowHu4v4dgUPb26dyUtEsLrWg8wpISrza-xcPwWZJ-hKMUwPIReMI3bw4ZxMCuMLog3AldvVcZKqRSejFt9UH-_TRcA7NHreyXjvbxhd2POmC1UGY9fKbQzO8xmYMLF8MKYxhvcaqX6-ThdGmkcFNJ7QdkeF0xC7mU0JtSjyrSV_99_HPbNM7FX7nbl7KYaSgfeaLJ4WI2rFr84SRgZcL4mNRNwxmLuN6NdBDPv1OBMGENdPd8RbGO953IJfOpkaclfB4LK5Zr_To-uLI8B36gx56XXDQjo4bNZhND7ROti3t1kwHOtZcsEVLR8nwYUOnh35xDuuhQ0pvWiSoVCbRX5lulWUKRtPG5CVI2YlGn14NC1PjobBSKveF7nVOTzKE_8AOE7ma4cNWSBkxlK3O4xKEWRPtzYG-spWBXs1-yuZPx5HDpjsGbheSHVR4zhCXidOhIOqMBWWDIrEluR94osd_GuIu3lfqx3E2sShHwnrUwb6cAkeG507oAbt9V2E_mSG9rkd4itvfhN0SNhUt8Nz7jkcqINOMuJelTobeikRmK1X_HboKRqexDyr9lD951vR27eqkzjA26nFfUJ8BfwWxK3zx49OQo0se9IyWx7nROtEukbqFDtIzZFjPdMqaTUF6hAONDpHarXOQpsKTh-bGEuYL6nPcMbyzDuVNXXYVgUYAjfmEd8n6btJmkAqCNFo8DQ9hTwUeHItxUt9n_ZO9p_WF]--></g></svg>