<?xml version="1.0" encoding="us-ascii" standalone="no"?><svg xmlns="http://www.w3.org/2000/svg" xmlns:xlink="http://www.w3.org/1999/xlink" contentStyleType="text/css" height="1191px" preserveAspectRatio="none" style="width:2073px;height:1191px;background:#FFFFFF;" version="1.1" viewBox="0 0 2073 1191" width="2073px" zoomAndPan="magnify"><defs/><g><rect fill="#A9A9A9" height="1139.9414" style="stroke:#181818;stroke-width:0.5;" width="1707.5" x="185.5" y="45.6211"/><text fill="#000000" font-family="sans-serif" font-size="13" font-weight="bold" lengthAdjust="spacing" textLength="85" x="996.75" y="59.6494">&#171;SubSystem&#187;</text><text fill="#000000" font-family="sans-serif" font-size="13" font-weight="bold" lengthAdjust="spacing" textLength="59" x="996.75" y="76.9404">:Backend</text><rect fill="#D3D3D3" height="1100.3594" style="stroke:#181818;stroke-width:0.5;" width="1707.5" x="185.5" y="85.2031"/><text fill="#000000" font-family="sans-serif" font-size="13" font-weight="bold" lengthAdjust="spacing" textLength="76" x="1003.25" y="99.2314">&#171;Container&#187;</text><text fill="#000000" font-family="sans-serif" font-size="13" font-weight="bold" lengthAdjust="spacing" textLength="46" x="999.25" y="116.5225">:Server</text><text fill="#000000" font-family="sans-serif" font-size="14" font-weight="bold" lengthAdjust="spacing" textLength="1014" x="529.25" y="30.1074">UC39 - As a User, I want to have current outside temperature on the front/main page of my Web App (updated every 15 minutes, starting at 00:00).</text><line style="stroke:#181818;stroke-width:0.5;stroke-dasharray:5.0,5.0;" x1="241" x2="241" y1="176.0273" y2="1127.3203"/><rect fill="#FFFFFF" height="847.4199" style="stroke:#181818;stroke-width:1.0;" width="10" x="236" y="261.9004"/><line style="stroke:#181818;stroke-width:0.5;stroke-dasharray:5.0,5.0;" x1="515" x2="515" y1="176.0273" y2="1127.3203"/><rect fill="#FFFFFF" height="784.8379" style="stroke:#181818;stroke-width:1.0;" width="10" x="510" y="293.1914"/><line style="stroke:#181818;stroke-width:0.5;stroke-dasharray:5.0,5.0;" x1="680" x2="680" y1="176.0273" y2="1127.3203"/><rect fill="#FFFFFF" height="704.9648" style="stroke:#181818;stroke-width:1.0;" width="10" x="675" y="341.7734"/><rect fill="#FFFFFF" height="420.0547" style="stroke:#181818;stroke-width:1.0;" width="10" x="680" y="386.0645"/><line style="stroke:#181818;stroke-width:0.5;stroke-dasharray:5.0,5.0;" x1="867" x2="867" y1="176.0273" y2="1127.3203"/><rect fill="#FFFFFF" height="31.291" style="stroke:#181818;stroke-width:1.0;" width="10" x="862" y="417.3555"/><line style="stroke:#181818;stroke-width:0.5;stroke-dasharray:5.0,5.0;" x1="994.5" x2="994.5" y1="176.0273" y2="1127.3203"/><rect fill="#FFFFFF" height="31.291" style="stroke:#181818;stroke-width:1.0;" width="10" x="989.5" y="479.9375"/><line style="stroke:#181818;stroke-width:0.5;stroke-dasharray:5.0,5.0;" x1="1119" x2="1119" y1="519.2285" y2="1127.3203"/><rect fill="#FFFFFF" height="52.2422" style="stroke:#181818;stroke-width:1.0;" width="10" x="1114" y="542.5195"/><line style="stroke:#181818;stroke-width:0.5;stroke-dasharray:5.0,5.0;" x1="1306.5" x2="1306.5" y1="571.4707" y2="1127.3203"/><rect fill="#FFFFFF" height="23.291" style="stroke:#181818;stroke-width:1.0;" width="10" x="1301.5" y="623.7129"/><line style="stroke:#181818;stroke-width:0.5;stroke-dasharray:5.0,5.0;" x1="1462" x2="1462" y1="623.7129" y2="1127.3203"/><rect fill="#FFFFFF" height="117.1641" style="stroke:#181818;stroke-width:1.0;" width="10" x="1457" y="675.9551"/><line style="stroke:#181818;stroke-width:0.5;stroke-dasharray:5.0,5.0;" x1="1597.5" x2="1597.5" y1="176.0273" y2="1127.3203"/><rect fill="#FFFFFF" height="173.7461" style="stroke:#181818;stroke-width:1.0;" width="10" x="1592.5" y="841.7012"/><line style="stroke:#181818;stroke-width:0.5;stroke-dasharray:5.0,5.0;" x1="1810.5" x2="1810.5" y1="176.0273" y2="1127.3203"/><rect fill="#FFFFFF" height="93.873" style="stroke:#181818;stroke-width:1.0;" width="10" x="1805.5" y="890.2832"/><rect fill="#E2E2F0" height="51.2422" rx="2.5" ry="2.5" style="stroke:#181818;stroke-width:0.5;" width="103" x="189.5" y="123.7852"/><text fill="#000000" font-family="sans-serif" font-size="14" font-style="italic" lengthAdjust="spacing" textLength="89" x="196.5" y="145.8926">&#171;Component&#187;</text><text fill="#000000" font-family="sans-serif" font-size="14" lengthAdjust="spacing" textLength="47" x="217.5" y="164.5137">:Router</text><rect fill="#E2E2F0" height="51.2422" rx="2.5" ry="2.5" style="stroke:#181818;stroke-width:0.5;" width="149" x="440.5" y="123.7852"/><text fill="#000000" font-family="sans-serif" font-size="14" font-style="italic" lengthAdjust="spacing" textLength="89" x="470.5" y="145.8926">&#171;Component&#187;</text><text fill="#000000" font-family="sans-serif" font-size="14" lengthAdjust="spacing" textLength="135" x="447.5" y="164.5137">:HouseWebController</text><rect fill="#E2E2F0" height="51.2422" rx="2.5" ry="2.5" style="stroke:#181818;stroke-width:0.5;" width="140" x="610" y="123.7852"/><text fill="#000000" font-family="sans-serif" font-size="14" font-style="italic" lengthAdjust="spacing" textLength="89" x="635.5" y="145.8926">&#171;Component&#187;</text><text fill="#000000" font-family="sans-serif" font-size="14" lengthAdjust="spacing" textLength="126" x="617" y="164.5137">:WeatherAPIService</text><rect fill="#E2E2F0" height="51.2422" rx="2.5" ry="2.5" style="stroke:#181818;stroke-width:0.5;" width="109" x="812.5" y="123.7852"/><text fill="#000000" font-family="sans-serif" font-size="14" font-style="italic" lengthAdjust="spacing" textLength="89" x="822.5" y="145.8926">&#171;Component&#187;</text><text fill="#000000" font-family="sans-serif" font-size="14" lengthAdjust="spacing" textLength="95" x="819.5" y="164.5137">:ConfigScraper</text><rect fill="#E2E2F0" height="51.2422" rx="2.5" ry="2.5" style="stroke:#181818;stroke-width:0.5;" width="126" x="931.5" y="123.7852"/><text fill="#000000" font-family="sans-serif" font-size="14" font-style="italic" lengthAdjust="spacing" textLength="89" x="950" y="145.8926">&#171;Component&#187;</text><text fill="#000000" font-family="sans-serif" font-size="14" lengthAdjust="spacing" textLength="112" x="938.5" y="164.5137">:HouseRepository</text><rect fill="#E2E2F0" height="51.2422" rx="2.5" ry="2.5" style="stroke:#181818;stroke-width:0.5;" width="148" x="1523.5" y="123.7852"/><text fill="#000000" font-family="sans-serif" font-size="14" font-style="italic" lengthAdjust="spacing" textLength="89" x="1553" y="145.8926">&#171;Component&#187;</text><text fill="#000000" font-family="sans-serif" font-size="14" lengthAdjust="spacing" textLength="134" x="1530.5" y="164.5137">:WeatherAPIGateway</text><rect fill="#E2E2F0" height="51.2422" rx="2.5" ry="2.5" style="stroke:#181818;stroke-width:0.5;" width="157" x="1732" y="123.7852"/><text fill="#000000" font-family="sans-serif" font-size="14" font-style="italic" lengthAdjust="spacing" textLength="89" x="1766" y="145.8926">&#171;Component&#187;</text><text fill="#000000" font-family="sans-serif" font-size="14" lengthAdjust="spacing" textLength="143" x="1739" y="164.5137">:WeatherServiceDriver</text><rect fill="#E2E2F0" height="51.2422" rx="2.5" ry="2.5" style="stroke:#181818;stroke-width:0.5;" width="103" x="189.5" y="1127.3203"/><text fill="#000000" font-family="sans-serif" font-size="14" font-style="italic" lengthAdjust="spacing" textLength="89" x="196.5" y="1149.4277">&#171;Component&#187;</text><text fill="#000000" font-family="sans-serif" font-size="14" lengthAdjust="spacing" textLength="47" x="217.5" y="1168.0488">:Router</text><rect fill="#E2E2F0" height="51.2422" rx="2.5" ry="2.5" style="stroke:#181818;stroke-width:0.5;" width="149" x="440.5" y="1127.3203"/><text fill="#000000" font-family="sans-serif" font-size="14" font-style="italic" lengthAdjust="spacing" textLength="89" x="470.5" y="1149.4277">&#171;Component&#187;</text><text fill="#000000" font-family="sans-serif" font-size="14" lengthAdjust="spacing" textLength="135" x="447.5" y="1168.0488">:HouseWebController</text><rect fill="#E2E2F0" height="51.2422" rx="2.5" ry="2.5" style="stroke:#181818;stroke-width:0.5;" width="140" x="610" y="1127.3203"/><text fill="#000000" font-family="sans-serif" font-size="14" font-style="italic" lengthAdjust="spacing" textLength="89" x="635.5" y="1149.4277">&#171;Component&#187;</text><text fill="#000000" font-family="sans-serif" font-size="14" lengthAdjust="spacing" textLength="126" x="617" y="1168.0488">:WeatherAPIService</text><rect fill="#E2E2F0" height="51.2422" rx="2.5" ry="2.5" style="stroke:#181818;stroke-width:0.5;" width="109" x="812.5" y="1127.3203"/><text fill="#000000" font-family="sans-serif" font-size="14" font-style="italic" lengthAdjust="spacing" textLength="89" x="822.5" y="1149.4277">&#171;Component&#187;</text><text fill="#000000" font-family="sans-serif" font-size="14" lengthAdjust="spacing" textLength="95" x="819.5" y="1168.0488">:ConfigScraper</text><rect fill="#E2E2F0" height="51.2422" rx="2.5" ry="2.5" style="stroke:#181818;stroke-width:0.5;" width="126" x="931.5" y="1127.3203"/><text fill="#000000" font-family="sans-serif" font-size="14" font-style="italic" lengthAdjust="spacing" textLength="89" x="950" y="1149.4277">&#171;Component&#187;</text><text fill="#000000" font-family="sans-serif" font-size="14" lengthAdjust="spacing" textLength="112" x="938.5" y="1168.0488">:HouseRepository</text><rect fill="#E2E2F0" height="51.2422" rx="2.5" ry="2.5" style="stroke:#181818;stroke-width:0.5;" width="103" x="1067.5" y="1127.3203"/><text fill="#000000" font-family="sans-serif" font-size="14" font-style="italic" lengthAdjust="spacing" textLength="89" x="1074.5" y="1149.4277">&#171;Component&#187;</text><text fill="#000000" font-family="sans-serif" font-size="14" lengthAdjust="spacing" textLength="44" x="1097" y="1168.0488">:House</text><rect fill="#E2E2F0" height="51.2422" rx="2.5" ry="2.5" style="stroke:#181818;stroke-width:0.5;" width="103" x="1255" y="1127.3203"/><text fill="#000000" font-family="sans-serif" font-size="14" font-style="italic" lengthAdjust="spacing" textLength="89" x="1262" y="1149.4277">&#171;Component&#187;</text><text fill="#000000" font-family="sans-serif" font-size="14" lengthAdjust="spacing" textLength="58" x="1277.5" y="1168.0488">:Location</text><rect fill="#E2E2F0" height="51.2422" rx="2.5" ry="2.5" style="stroke:#181818;stroke-width:0.5;" width="103" x="1410.5" y="1127.3203"/><text fill="#000000" font-family="sans-serif" font-size="14" font-style="italic" lengthAdjust="spacing" textLength="89" x="1417.5" y="1149.4277">&#171;Component&#187;</text><text fill="#000000" font-family="sans-serif" font-size="14" lengthAdjust="spacing" textLength="67" x="1428.5" y="1168.0488">:GPSCode</text><rect fill="#E2E2F0" height="51.2422" rx="2.5" ry="2.5" style="stroke:#181818;stroke-width:0.5;" width="148" x="1523.5" y="1127.3203"/><text fill="#000000" font-family="sans-serif" font-size="14" font-style="italic" lengthAdjust="spacing" textLength="89" x="1553" y="1149.4277">&#171;Component&#187;</text><text fill="#000000" font-family="sans-serif" font-size="14" lengthAdjust="spacing" textLength="134" x="1530.5" y="1168.0488">:WeatherAPIGateway</text><rect fill="#E2E2F0" height="51.2422" rx="2.5" ry="2.5" style="stroke:#181818;stroke-width:0.5;" width="157" x="1732" y="1127.3203"/><text fill="#000000" font-family="sans-serif" font-size="14" font-style="italic" lengthAdjust="spacing" textLength="89" x="1766" y="1149.4277">&#171;Component&#187;</text><text fill="#000000" font-family="sans-serif" font-size="14" lengthAdjust="spacing" textLength="143" x="1739" y="1168.0488">:WeatherServiceDriver</text><path d="M86.5,189.0273 L86.5,216.0273 L395.5,216.0273 L395.5,199.0273 L385.5,189.0273 L86.5,189.0273 " fill="#FEFFDD" style="stroke:#181818;stroke-width:0.5;"/><path d="M385.5,189.0273 L385.5,199.0273 L395.5,199.0273 L385.5,189.0273 " fill="#FEFFDD" style="stroke:#181818;stroke-width:0.5;"/><text fill="#000000" font-family="sans-serif" font-size="13" lengthAdjust="spacing" textLength="288" x="92.5" y="208.0557">currentHour represents the current hour of the day</text><ellipse cx="10.5" cy="261.1504" fill="none" rx="4" ry="4" style="stroke:#181818;stroke-width:1.5;"/><polygon fill="#181818" points="224,257.9004,234,261.9004,224,265.9004,228,261.9004" style="stroke:#181818;stroke-width:1.0;"/><line style="stroke:#181818;stroke-width:1.0;" x1="15" x2="230" y1="261.9004" y2="261.9004"/><text fill="#000000" font-family="sans-serif" font-size="13" lengthAdjust="spacing" textLength="26" x="18" y="239.3467">GET</text><text fill="#000000" font-family="sans-serif" font-size="13" lengthAdjust="spacing" textLength="210" x="18" y="256.6377">/house/weather?hour=${currentHour}</text><polygon fill="#181818" points="498,289.1914,508,293.1914,498,297.1914,502,293.1914" style="stroke:#181818;stroke-width:1.0;"/><line style="stroke:#181818;stroke-width:1.0;" x1="246" x2="504" y1="293.1914" y2="293.1914"/><text fill="#000000" font-family="sans-serif" font-size="13" lengthAdjust="spacing" textLength="245" x="253" y="287.9287">getWeatherInfo (@RequestParam int hour)</text><polygon fill="#181818" points="663,337.7734,673,341.7734,663,345.7734,667,341.7734" style="stroke:#181818;stroke-width:1.0;"/><line style="stroke:#181818;stroke-width:1.0;" x1="520" x2="669" y1="341.7734" y2="341.7734"/><text fill="#000000" font-family="sans-serif" font-size="13" lengthAdjust="spacing" textLength="136" x="527" y="319.2197">getTemperatureForHour</text><text fill="#000000" font-family="sans-serif" font-size="13" lengthAdjust="spacing" textLength="33" x="527" y="336.5107">(hour)</text><line style="stroke:#181818;stroke-width:1.0;" x1="685" x2="732" y1="373.0645" y2="373.0645"/><line style="stroke:#181818;stroke-width:1.0;" x1="732" x2="732" y1="373.0645" y2="386.0645"/><line style="stroke:#181818;stroke-width:1.0;" x1="691" x2="732" y1="386.0645" y2="386.0645"/><polygon fill="#181818" points="701,382.0645,691,386.0645,701,390.0645,697,386.0645" style="stroke:#181818;stroke-width:1.0;"/><text fill="#000000" font-family="sans-serif" font-size="13" lengthAdjust="spacing" textLength="163" x="697" y="367.8018">defineGroupHouseLocation()</text><polygon fill="#181818" points="850,413.3555,860,417.3555,850,421.3555,854,417.3555" style="stroke:#181818;stroke-width:1.0;"/><line style="stroke:#181818;stroke-width:1.0;" x1="690" x2="856" y1="417.3555" y2="417.3555"/><text fill="#000000" font-family="sans-serif" font-size="13" lengthAdjust="spacing" textLength="112" x="697" y="412.0928">loadGroupNumber()</text><polygon fill="#181818" points="701,444.6465,691,448.6465,701,452.6465,697,448.6465" style="stroke:#181818;stroke-width:1.0;"/><line style="stroke:#181818;stroke-width:1.0;stroke-dasharray:2.0,2.0;" x1="695" x2="861" y1="448.6465" y2="448.6465"/><text fill="#000000" font-family="sans-serif" font-size="13" lengthAdjust="spacing" textLength="95" x="707" y="443.3838">int groupNumber</text><polygon fill="#181818" points="977.5,475.9375,987.5,479.9375,977.5,483.9375,981.5,479.9375" style="stroke:#181818;stroke-width:1.0;"/><line style="stroke:#181818;stroke-width:1.0;" x1="690" x2="983.5" y1="479.9375" y2="479.9375"/><text fill="#000000" font-family="sans-serif" font-size="13" lengthAdjust="spacing" textLength="87" x="697" y="474.6748">findAllEntities()</text><polygon fill="#181818" points="701,507.2285,691,511.2285,701,515.2285,697,511.2285" style="stroke:#181818;stroke-width:1.0;"/><line style="stroke:#181818;stroke-width:1.0;stroke-dasharray:2.0,2.0;" x1="695" x2="988.5" y1="511.2285" y2="511.2285"/><text fill="#000000" font-family="sans-serif" font-size="13" lengthAdjust="spacing" textLength="141" x="707" y="505.9658">Iterable&lt;House&gt; houses</text><rect fill="#E2E2F0" height="51.2422" rx="2.5" ry="2.5" style="stroke:#181818;stroke-width:0.5;" width="103" x="1062.5" y="519.2285"/><text fill="#000000" font-family="sans-serif" font-size="14" font-style="italic" lengthAdjust="spacing" textLength="89" x="1069.5" y="541.3359">&#171;Component&#187;</text><text fill="#000000" font-family="sans-serif" font-size="14" lengthAdjust="spacing" textLength="44" x="1092" y="559.957">:House</text><polygon fill="#181818" points="1050.5,538.5195,1060.5,542.5195,1050.5,546.5195,1054.5,542.5195" style="stroke:#181818;stroke-width:1.0;"/><line style="stroke:#181818;stroke-width:1.0;" x1="690" x2="1056.5" y1="542.5195" y2="542.5195"/><text fill="#000000" font-family="sans-serif" font-size="13" lengthAdjust="spacing" textLength="131" x="697" y="537.2568">houses.iterator().next()</text><rect fill="#E2E2F0" height="51.2422" rx="2.5" ry="2.5" style="stroke:#181818;stroke-width:0.5;" width="103" x="1255" y="571.4707"/><text fill="#000000" font-family="sans-serif" font-size="14" font-style="italic" lengthAdjust="spacing" textLength="89" x="1262" y="593.5781">&#171;Component&#187;</text><text fill="#000000" font-family="sans-serif" font-size="14" lengthAdjust="spacing" textLength="58" x="1277.5" y="612.1992">:Location</text><polygon fill="#181818" points="1243,590.7617,1253,594.7617,1243,598.7617,1247,594.7617" style="stroke:#181818;stroke-width:1.0;"/><line style="stroke:#181818;stroke-width:1.0;" x1="1124" x2="1249" y1="594.7617" y2="594.7617"/><text fill="#000000" font-family="sans-serif" font-size="13" lengthAdjust="spacing" textLength="112" x="1131" y="589.499">getHouseLocation()</text><rect fill="#E2E2F0" height="51.2422" rx="2.5" ry="2.5" style="stroke:#181818;stroke-width:0.5;" width="103" x="1410.5" y="623.7129"/><text fill="#000000" font-family="sans-serif" font-size="14" font-style="italic" lengthAdjust="spacing" textLength="89" x="1417.5" y="645.8203">&#171;Component&#187;</text><text fill="#000000" font-family="sans-serif" font-size="14" lengthAdjust="spacing" textLength="67" x="1428.5" y="664.4414">:GPSCode</text><polygon fill="#181818" points="1398.5,643.0039,1408.5,647.0039,1398.5,651.0039,1402.5,647.0039" style="stroke:#181818;stroke-width:1.0;"/><line style="stroke:#181818;stroke-width:1.0;" x1="1311.5" x2="1404.5" y1="647.0039" y2="647.0039"/><text fill="#000000" font-family="sans-serif" font-size="13" lengthAdjust="spacing" textLength="80" x="1318.5" y="641.7412">getGpsCode()</text><polygon fill="#181818" points="1445,695.2461,1455,699.2461,1445,703.2461,1449,699.2461" style="stroke:#181818;stroke-width:1.0;"/><line style="stroke:#181818;stroke-width:1.0;" x1="690" x2="1451" y1="699.2461" y2="699.2461"/><text fill="#000000" font-family="sans-serif" font-size="13" lengthAdjust="spacing" textLength="72" x="697" y="693.9834">getLatitude()</text><polygon fill="#181818" points="701,726.5371,691,730.5371,701,734.5371,697,730.5371" style="stroke:#181818;stroke-width:1.0;"/><line style="stroke:#181818;stroke-width:1.0;stroke-dasharray:2.0,2.0;" x1="695" x2="1456" y1="730.5371" y2="730.5371"/><text fill="#000000" font-family="sans-serif" font-size="13" lengthAdjust="spacing" textLength="84" x="707" y="725.2744">double latitude</text><polygon fill="#181818" points="1445,757.8281,1455,761.8281,1445,765.8281,1449,761.8281" style="stroke:#181818;stroke-width:1.0;"/><line style="stroke:#181818;stroke-width:1.0;" x1="690" x2="1451" y1="761.8281" y2="761.8281"/><text fill="#000000" font-family="sans-serif" font-size="13" lengthAdjust="spacing" textLength="82" x="697" y="756.5654">getLongitude()</text><polygon fill="#181818" points="701,789.1191,691,793.1191,701,797.1191,697,793.1191" style="stroke:#181818;stroke-width:1.0;"/><line style="stroke:#181818;stroke-width:1.0;stroke-dasharray:2.0,2.0;" x1="695" x2="1456" y1="793.1191" y2="793.1191"/><text fill="#000000" font-family="sans-serif" font-size="13" lengthAdjust="spacing" textLength="94" x="707" y="787.8564">double longitude</text><polygon fill="#181818" points="1580.5,837.7012,1590.5,841.7012,1580.5,845.7012,1584.5,841.7012" style="stroke:#181818;stroke-width:1.0;"/><line style="stroke:#181818;stroke-width:1.0;" x1="685" x2="1586.5" y1="841.7012" y2="841.7012"/><text fill="#000000" font-family="sans-serif" font-size="13" lengthAdjust="spacing" textLength="171" x="692" y="819.1475">getInstantaneousTemperature</text><text fill="#000000" font-family="sans-serif" font-size="13" lengthAdjust="spacing" textLength="228" x="692" y="836.4385">(groupNumber, latitude, longitude, hour)</text><polygon fill="#181818" points="1793.5,886.2832,1803.5,890.2832,1793.5,894.2832,1797.5,890.2832" style="stroke:#181818;stroke-width:1.0;"/><line style="stroke:#181818;stroke-width:1.0;" x1="1602.5" x2="1799.5" y1="890.2832" y2="890.2832"/><text fill="#000000" font-family="sans-serif" font-size="13" lengthAdjust="spacing" textLength="71" x="1609.5" y="867.7295">getForEntity</text><text fill="#000000" font-family="sans-serif" font-size="13" lengthAdjust="spacing" textLength="184" x="1609.5" y="885.0205">(url, InstTemperatureDTO.class)</text><ellipse cx="2062" cy="920.8242" fill="none" rx="4" ry="4" style="stroke:#181818;stroke-width:1.5;"/><polygon fill="#181818" points="2045,917.5742,2055,921.5742,2045,925.5742,2049,921.5742" style="stroke:#181818;stroke-width:1.0;"/><line style="stroke:#181818;stroke-width:1.0;" x1="1815.5" x2="2051" y1="921.5742" y2="921.5742"/><text fill="#000000" font-family="sans-serif" font-size="13" lengthAdjust="spacing" textLength="195" x="1822.5" y="916.3115">Request external Weather service</text><polygon fill="#181818" points="1826.5,948.8652,1816.5,952.8652,1826.5,956.8652,1822.5,952.8652" style="stroke:#181818;stroke-width:1.0;"/><ellipse cx="2062" cy="952.1152" fill="none" rx="4" ry="4" style="stroke:#181818;stroke-width:1.5;"/><line style="stroke:#181818;stroke-width:1.0;stroke-dasharray:2.0,2.0;" x1="1820.5" x2="2057.5" y1="952.8652" y2="952.8652"/><text fill="#000000" font-family="sans-serif" font-size="13" lengthAdjust="spacing" textLength="234" x="1832.5" y="947.6025">Response from external Weather service</text><polygon fill="#181818" points="1613.5,980.1563,1603.5,984.1563,1613.5,988.1563,1609.5,984.1563" style="stroke:#181818;stroke-width:1.0;"/><line style="stroke:#181818;stroke-width:1.0;stroke-dasharray:2.0,2.0;" x1="1607.5" x2="1804.5" y1="984.1563" y2="984.1563"/><text fill="#000000" font-family="sans-serif" font-size="13" lengthAdjust="spacing" textLength="119" x="1619.5" y="978.8936">InstTemperatureDTO</text><polygon fill="#181818" points="696,1011.4473,686,1015.4473,696,1019.4473,692,1015.4473" style="stroke:#181818;stroke-width:1.0;"/><line style="stroke:#181818;stroke-width:1.0;stroke-dasharray:2.0,2.0;" x1="690" x2="1591.5" y1="1015.4473" y2="1015.4473"/><text fill="#000000" font-family="sans-serif" font-size="13" lengthAdjust="spacing" textLength="119" x="702" y="1010.1846">InstTemperatureDTO</text><polygon fill="#181818" points="531,1042.7383,521,1046.7383,531,1050.7383,527,1046.7383" style="stroke:#181818;stroke-width:1.0;"/><line style="stroke:#181818;stroke-width:1.0;stroke-dasharray:2.0,2.0;" x1="525" x2="674" y1="1046.7383" y2="1046.7383"/><text fill="#000000" font-family="sans-serif" font-size="13" lengthAdjust="spacing" textLength="111" x="537" y="1041.4756">double temperature</text><polygon fill="#181818" points="257,1074.0293,247,1078.0293,257,1082.0293,253,1078.0293" style="stroke:#181818;stroke-width:1.0;"/><line style="stroke:#181818;stroke-width:1.0;stroke-dasharray:2.0,2.0;" x1="251" x2="509" y1="1078.0293" y2="1078.0293"/><text fill="#000000" font-family="sans-serif" font-size="13" lengthAdjust="spacing" textLength="174" x="263" y="1072.7666">temperature, HTTP Status OK</text><ellipse cx="10.5" cy="1108.5703" fill="none" rx="4" ry="4" style="stroke:#181818;stroke-width:1.5;"/><polygon fill="#181818" points="27.5,1105.3203,17.5,1109.3203,27.5,1113.3203,23.5,1109.3203" style="stroke:#181818;stroke-width:1.0;"/><line style="stroke:#181818;stroke-width:1.0;stroke-dasharray:2.0,2.0;" x1="25.5" x2="235" y1="1109.3203" y2="1109.3203"/><text fill="#000000" font-family="sans-serif" font-size="13" lengthAdjust="spacing" textLength="212" x="28" y="1104.0576">JSON temperature, HTTP Status OK</text><!--SRC=[ZLPDRziu4BtpLyocFJY5dMHHzB22rziqwRfkWoQ8NVJGx86Mnh9GYTIIL5Atw7_ly4CIxHHsRgJptfiFlXd55AP4-7JnyYyOmRa63fyqgY7Cu84B0qR2cjyZf8rII7VP65ra20Qh6XKtZKAG0imQOQMaCASLBmJKFAUVLr1ju3CkuRokOT3K6JUO0TwZsi2Vhw0gH6DG3q4RhamXSk06piwIixFZ4_P7hNXUSOeZluDH3JB6bl8R78t7ysOvtsXAO3Av4yaRddv5aHt1iqkklauLRZmEnkCBoeUoGUM0SrGKcN1NHRus3bZRk6bHsqAFabkgpGAu1kMEJgAgfQ329vCTz3lPQAJYR10bop8mq-wwb_qPERLCdT_CR5f5Yewi_Nala-AjYdoUAbw7aDgV3sTxYxNKXP5guuliheUfZh2sfxtOAvboKqZXu6Mux6LCR-ONClFwUQsVsBGfEUc1-p9oVtuAC_JwKXNteNUPE-vm6ID30Rc82Md8nnRX7S72651FbEsVGaqtxUpVJiZQ_esyRt_B-CPfMHtsHOucGIU1wTi5t8bJrzBJ1v_UFvRwz_CVKP2VZAUckASIsmo2DKcgjre2EPfGuqoi90nUt-B_3MfpmnMle0Xf7VTgFPb5bYNLu44dkUY7_5-fR3vtOh0Z5F2izMuiaU6AnczAATVEHQqz1WVutj09EOXdZlsngPQejcWUmrhpZ-Aujjwyvx4C7_FwSFqS943vPkTb-LQOmXIeuuWzZ4MJinLtHY_3boMENRKJFp0w3X-9H1aut8iNII2S55Q7G8FZ4u7VJ9o5Gp0_YSHiPyoIwS5sknn5ziJksX9PDwMaHWCOXAQrjcEvBT5nkb-84DT1LyU-8fXf7DtEz5QFCjbGXw0CaD_IfSWFybjCdA1D9txhnzOAoyA5cGdwyD0NGY2r9h8wUJmopx1BTTW77UwEKz1bxJAYK7wrk4WqFCvH6v9kL4aVLmeTHRnSN9-a9TSwKlHq5XRKQ2B_Io0CDP0dK0bUGfZvhj9sdOr67gvffsdtPQuEaaPnUnud63SsvDOLkpK3UvbjdxedsTbZuNMZ_ov-zw3nnefsQiGQmhl5uWRcXcuQhZ_4Aj7g-oAfLHt__VpwurD5FESN]--></g></svg>