<?xml version="1.0" encoding="us-ascii" standalone="no"?><svg xmlns="http://www.w3.org/2000/svg" xmlns:xlink="http://www.w3.org/1999/xlink" contentStyleType="text/css" height="909px" preserveAspectRatio="none" style="width:859px;height:909px;background:#FFFFFF;" version="1.1" viewBox="0 0 859 909" width="859px" zoomAndPan="magnify"><defs/><g><text fill="#000000" font-family="sans-serif" font-size="14" font-weight="bold" lengthAdjust="spacing" textLength="831" x="10" y="25.1074">US18: As Product Owner, I want the system to have a type of sensor that gives the current value/position in a scale (%).</text><!--class ScaleSensor--><g id="elem_ScaleSensor"><rect codeLine="4" fill="#F1F1F1" height="178.3477" id="ScaleSensor" rx="2.5" ry="2.5" style="stroke:#181818;stroke-width:0.5;" width="314" x="308" y="358.1211"/><ellipse cx="420.75" cy="374.1211" fill="#ADD1B2" rx="11" ry="11" style="stroke:#181818;stroke-width:1.0;"/><path d="M423.5156,369.9961 Q423.6719,369.7773 423.8594,369.668 Q424.0469,369.5586 424.2656,369.5586 Q424.6406,369.5586 424.875,369.8242 Q425.1094,370.0742 425.1094,370.6836 L425.1094,372.1367 Q425.1094,372.7461 424.875,373.0117 Q424.6406,373.2773 424.2656,373.2773 Q423.9219,373.2773 423.7188,373.0742 Q423.5156,372.8867 423.4063,372.3711 Q423.3594,372.0117 423.1719,371.8242 Q422.8438,371.4492 422.2344,371.2305 Q421.625,371.0117 421,371.0117 Q420.2344,371.0117 419.5938,371.3398 Q418.9688,371.668 418.4688,372.418 Q417.9844,373.168 417.9844,374.1992 L417.9844,375.293 Q417.9844,376.5273 418.875,377.3555 Q419.7656,378.168 421.3594,378.168 Q422.2969,378.168 422.9531,377.918 Q423.3438,377.7617 423.7656,377.3242 Q424.0313,377.0586 424.1719,376.9805 Q424.3281,376.9023 424.5313,376.9023 Q424.8594,376.9023 425.1094,377.168 Q425.375,377.418 425.375,377.7617 Q425.375,378.1055 425.0313,378.5117 Q424.5313,379.0898 423.7344,379.418 Q422.6563,379.8711 421.3594,379.8711 Q419.8438,379.8711 418.6406,379.2461 Q417.6563,378.7461 416.9688,377.6836 Q416.2813,376.6055 416.2813,375.3242 L416.2813,374.168 Q416.2813,372.8398 416.8906,371.6992 Q417.5156,370.543 418.6094,369.9336 Q419.7031,369.3086 420.9375,369.3086 Q421.6719,369.3086 422.3125,369.4805 Q422.9688,369.6367 423.5156,369.9961 Z " fill="#000000"/><text fill="#000000" font-family="sans-serif" font-size="14" lengthAdjust="spacing" textLength="80" x="441.25" y="379.918">ScaleSensor</text><line style="stroke:#181818;stroke-width:0.5;" x1="309" x2="621" y1="390.1211" y2="390.1211"/><rect fill="none" height="6" style="stroke:#C82930;stroke-width:1.0;" width="6" x="316" y="401.9316"/><text fill="#000000" font-family="sans-serif" font-size="14" lengthAdjust="spacing" textLength="124" x="328" y="409.2285">sensorName: String</text><rect fill="none" height="6" style="stroke:#C82930;stroke-width:1.0;" width="6" x="316" y="420.5527"/><text fill="#000000" font-family="sans-serif" font-size="14" lengthAdjust="spacing" textLength="208" x="328" y="427.8496">functionality: SensorFunctionality</text><rect fill="none" height="6" style="stroke:#C82930;stroke-width:1.0;" width="6" x="316" y="439.1738"/><text fill="#000000" font-family="sans-serif" font-size="14" lengthAdjust="spacing" textLength="171" x="328" y="446.4707">factoryValue: FactoryValue</text><rect fill="none" height="6" style="stroke:#C82930;stroke-width:1.0;" width="6" x="316" y="457.7949"/><text fill="#000000" font-family="sans-serif" font-size="14" lengthAdjust="spacing" textLength="78" x="328" y="465.0918">value: Value</text><line style="stroke:#181818;stroke-width:0.5;" x1="309" x2="621" y1="472.6055" y2="472.6055"/><ellipse cx="319" cy="487.416" fill="#84BE84" rx="3" ry="3" style="stroke:#038048;stroke-width:1.0;"/><text fill="#000000" font-family="sans-serif" font-size="14" lengthAdjust="spacing" textLength="156" x="328" y="491.7129">getSensorName(): String</text><ellipse cx="319" cy="506.0371" fill="#84BE84" rx="3" ry="3" style="stroke:#038048;stroke-width:1.0;"/><text fill="#000000" font-family="sans-serif" font-size="14" lengthAdjust="spacing" textLength="288" x="328" y="510.334">getSensorFunctionality(): SensorFunctionality</text><ellipse cx="319" cy="524.6582" fill="#84BE84" rx="3" ry="3" style="stroke:#038048;stroke-width:1.0;"/><text fill="#000000" font-family="sans-serif" font-size="14" lengthAdjust="spacing" textLength="213" x="328" y="528.9551">getValueForSpecificTime(): String</text></g><!--class SensorSpecificTime--><g id="elem_SensorSpecificTime"><rect codeLine="43" fill="#F1F1F1" height="66.6211" id="SensorSpecificTime" rx="2.5" ry="2.5" style="stroke:#181818;stroke-width:0.5;" width="239" x="345.5" y="192.6211"/><ellipse cx="398.25" cy="208.6211" fill="#B4A7E5" rx="11" ry="11" style="stroke:#181818;stroke-width:1.0;"/><path d="M399.2031,205.2617 L399.2031,211.918 L400.9219,211.918 Q401.5313,211.918 401.7969,212.1523 Q402.0625,212.3867 402.0625,212.7773 Q402.0625,213.1523 401.7969,213.3867 Q401.5313,213.6211 400.9219,213.6211 L395.7813,213.6211 Q395.1719,213.6211 394.9063,213.3867 Q394.6406,213.1523 394.6406,212.7617 Q394.6406,212.3867 394.9063,212.1523 Q395.1719,211.918 395.7813,211.918 L397.5,211.918 L397.5,205.2617 L395.7813,205.2617 Q395.1719,205.2617 394.9063,205.0273 Q394.6406,204.793 394.6406,204.4023 Q394.6406,204.0273 394.9063,203.793 Q395.1719,203.5586 395.7813,203.5586 L400.9219,203.5586 Q401.5313,203.5586 401.7969,203.793 Q402.0625,204.0273 402.0625,204.4023 Q402.0625,204.793 401.7969,205.0273 Q401.5313,205.2617 400.9219,205.2617 L399.2031,205.2617 Z " fill="#000000"/><text fill="#000000" font-family="sans-serif" font-size="14" font-style="italic" lengthAdjust="spacing" textLength="125" x="418.75" y="214.418">SensorSpecificTime</text><line style="stroke:#181818;stroke-width:0.5;" x1="346.5" x2="583.5" y1="224.6211" y2="224.6211"/><line style="stroke:#181818;stroke-width:0.5;" x1="346.5" x2="583.5" y1="232.6211" y2="232.6211"/><ellipse cx="356.5" cy="247.4316" fill="#84BE84" rx="3" ry="3" style="stroke:#038048;stroke-width:1.0;"/><text fill="#000000" font-family="sans-serif" font-size="14" lengthAdjust="spacing" textLength="213" x="365.5" y="251.7285">getValueForSpecificTime(): String</text></g><!--class FactoryValue--><g id="elem_FactoryValue"><rect codeLine="14" fill="#F1F1F1" height="66.6211" id="FactoryValue" rx="2.5" ry="2.5" style="stroke:#181818;stroke-width:0.5;" width="236" x="253" y="652.6211"/><ellipse cx="324.75" cy="668.6211" fill="#ADD1B2" rx="11" ry="11" style="stroke:#181818;stroke-width:1.0;"/><path d="M327.5156,664.4961 Q327.6719,664.2773 327.8594,664.168 Q328.0469,664.0586 328.2656,664.0586 Q328.6406,664.0586 328.875,664.3242 Q329.1094,664.5742 329.1094,665.1836 L329.1094,666.6367 Q329.1094,667.2461 328.875,667.5117 Q328.6406,667.7773 328.2656,667.7773 Q327.9219,667.7773 327.7188,667.5742 Q327.5156,667.3867 327.4063,666.8711 Q327.3594,666.5117 327.1719,666.3242 Q326.8438,665.9492 326.2344,665.7305 Q325.625,665.5117 325,665.5117 Q324.2344,665.5117 323.5938,665.8398 Q322.9688,666.168 322.4688,666.918 Q321.9844,667.668 321.9844,668.6992 L321.9844,669.793 Q321.9844,671.0273 322.875,671.8555 Q323.7656,672.668 325.3594,672.668 Q326.2969,672.668 326.9531,672.418 Q327.3438,672.2617 327.7656,671.8242 Q328.0313,671.5586 328.1719,671.4805 Q328.3281,671.4023 328.5313,671.4023 Q328.8594,671.4023 329.1094,671.668 Q329.375,671.918 329.375,672.2617 Q329.375,672.6055 329.0313,673.0117 Q328.5313,673.5898 327.7344,673.918 Q326.6563,674.3711 325.3594,674.3711 Q323.8438,674.3711 322.6406,673.7461 Q321.6563,673.2461 320.9688,672.1836 Q320.2813,671.1055 320.2813,669.8242 L320.2813,668.668 Q320.2813,667.3398 320.8906,666.1992 Q321.5156,665.043 322.6094,664.4336 Q323.7031,663.8086 324.9375,663.8086 Q325.6719,663.8086 326.3125,663.9805 Q326.9688,664.1367 327.5156,664.4961 Z " fill="#000000"/><text fill="#000000" font-family="sans-serif" font-size="14" lengthAdjust="spacing" textLength="84" x="345.25" y="674.418">FactoryValue</text><line style="stroke:#181818;stroke-width:0.5;" x1="254" x2="488" y1="684.6211" y2="684.6211"/><line style="stroke:#181818;stroke-width:0.5;" x1="254" x2="488" y1="692.6211" y2="692.6211"/><ellipse cx="264" cy="707.4316" fill="#84BE84" rx="3" ry="3" style="stroke:#038048;stroke-width:1.0;"/><text fill="#000000" font-family="sans-serif" font-size="14" lengthAdjust="spacing" textLength="210" x="273" y="711.7285">createValueSpecificTime(): Value</text></g><!--class SensorFunctionality--><g id="elem_SensorFunctionality"><rect codeLine="18" fill="#F1F1F1" height="252.832" id="SensorFunctionality" rx="2.5" ry="2.5" style="stroke:#181818;stroke-width:0.5;" width="157" x="679.5" y="320.6211"/><ellipse cx="694.5" cy="336.6211" fill="#EB937F" rx="11" ry="11" style="stroke:#181818;stroke-width:1.0;"/><path d="M693.3594,337.418 L693.3594,339.918 L697.6875,339.918 L697.6875,338.9961 Q697.6875,338.3867 697.9219,338.1211 Q698.1719,337.8555 698.5469,337.8555 Q698.9219,337.8555 699.1563,338.1211 Q699.3906,338.3867 699.3906,338.9961 L699.3906,341.6211 L691.3906,341.6211 Q690.7656,341.6211 690.5,341.3867 Q690.25,341.1523 690.25,340.7617 Q690.25,340.3867 690.5156,340.1523 Q690.7813,339.918 691.3906,339.918 L691.6563,339.918 L691.6563,333.2617 L691.3906,333.2617 Q690.7656,333.2617 690.5,333.0273 Q690.25,332.793 690.25,332.4023 Q690.25,332.0273 690.5,331.793 Q690.7656,331.5586 691.3906,331.5586 L699.0156,331.5586 L699.0156,334.1523 Q699.0156,334.7617 698.7813,335.0273 Q698.5625,335.2773 698.1719,335.2773 Q697.7969,335.2773 697.5625,335.0273 Q697.3281,334.7617 697.3281,334.1523 L697.3281,333.2617 L693.3594,333.2617 L693.3594,335.7148 L694.8438,335.7148 Q694.8438,335.0586 694.9688,334.8711 Q695.2344,334.4648 695.7031,334.4648 Q696.0781,334.4648 696.3125,334.7305 Q696.5469,334.9805 696.5469,335.5898 L696.5469,337.5586 Q696.5469,338.1055 696.4219,338.293 Q696.1563,338.6836 695.7031,338.6836 Q695.2344,338.6836 694.9688,338.2773 Q694.8438,338.0898 694.8438,337.418 L693.3594,337.418 Z " fill="#000000"/><text fill="#000000" font-family="sans-serif" font-size="14" lengthAdjust="spacing" textLength="125" x="708.5" y="342.418">SensorFunctionality</text><line style="stroke:#181818;stroke-width:0.5;" x1="680.5" x2="835.5" y1="352.6211" y2="352.6211"/><text fill="#000000" font-family="sans-serif" font-size="14" lengthAdjust="spacing" textLength="107" x="685.5" y="371.7285">TEMPERATURE,</text><text fill="#000000" font-family="sans-serif" font-size="14" lengthAdjust="spacing" textLength="67" x="685.5" y="390.3496">HUMIDITY,</text><text fill="#000000" font-family="sans-serif" font-size="14" lengthAdjust="spacing" textLength="115" x="685.5" y="408.9707">BINARY_STATUS,</text><text fill="#000000" font-family="sans-serif" font-size="14" lengthAdjust="spacing" textLength="121" x="685.5" y="427.5918">SCALE_POSITION,</text><text fill="#000000" font-family="sans-serif" font-size="14" lengthAdjust="spacing" textLength="39" x="685.5" y="446.2129">WIND,</text><text fill="#000000" font-family="sans-serif" font-size="14" lengthAdjust="spacing" textLength="62" x="685.5" y="464.834">SUNRISE,</text><text fill="#000000" font-family="sans-serif" font-size="14" lengthAdjust="spacing" textLength="58" x="685.5" y="483.4551">SUNSET,</text><text fill="#000000" font-family="sans-serif" font-size="14" lengthAdjust="spacing" textLength="85" x="685.5" y="502.0762">DEW_POINT,</text><text fill="#000000" font-family="sans-serif" font-size="14" lengthAdjust="spacing" textLength="132" x="685.5" y="520.6973">SOLAR_RADIATION,</text><text fill="#000000" font-family="sans-serif" font-size="14" lengthAdjust="spacing" textLength="56" x="685.5" y="539.3184">POWER,</text><text fill="#000000" font-family="sans-serif" font-size="14" lengthAdjust="spacing" textLength="57" x="685.5" y="557.9395">ENERGY</text><line style="stroke:#181818;stroke-width:0.5;" x1="680.5" x2="835.5" y1="565.4531" y2="565.4531"/></g><!--class ScaleSensorValue--><g id="elem_ScaleSensorValue"><rect codeLine="32" fill="#F1F1F1" height="103.8633" id="ScaleSensorValue" rx="2.5" ry="2.5" style="stroke:#181818;stroke-width:0.5;" width="189" x="276.5" y="798.6211"/><ellipse cx="309.95" cy="814.6211" fill="#ADD1B2" rx="11" ry="11" style="stroke:#181818;stroke-width:1.0;"/><path d="M312.7156,810.4961 Q312.8719,810.2773 313.0594,810.168 Q313.2469,810.0586 313.4656,810.0586 Q313.8406,810.0586 314.075,810.3242 Q314.3094,810.5742 314.3094,811.1836 L314.3094,812.6367 Q314.3094,813.2461 314.075,813.5117 Q313.8406,813.7773 313.4656,813.7773 Q313.1219,813.7773 312.9188,813.5742 Q312.7156,813.3867 312.6063,812.8711 Q312.5594,812.5117 312.3719,812.3242 Q312.0438,811.9492 311.4344,811.7305 Q310.825,811.5117 310.2,811.5117 Q309.4344,811.5117 308.7938,811.8398 Q308.1688,812.168 307.6688,812.918 Q307.1844,813.668 307.1844,814.6992 L307.1844,815.793 Q307.1844,817.0273 308.075,817.8555 Q308.9656,818.668 310.5594,818.668 Q311.4969,818.668 312.1531,818.418 Q312.5438,818.2617 312.9656,817.8242 Q313.2313,817.5586 313.3719,817.4805 Q313.5281,817.4023 313.7313,817.4023 Q314.0594,817.4023 314.3094,817.668 Q314.575,817.918 314.575,818.2617 Q314.575,818.6055 314.2313,819.0117 Q313.7313,819.5898 312.9344,819.918 Q311.8563,820.3711 310.5594,820.3711 Q309.0438,820.3711 307.8406,819.7461 Q306.8563,819.2461 306.1688,818.1836 Q305.4813,817.1055 305.4813,815.8242 L305.4813,814.668 Q305.4813,813.3398 306.0906,812.1992 Q306.7156,811.043 307.8094,810.4336 Q308.9031,809.8086 310.1375,809.8086 Q310.8719,809.8086 311.5125,809.9805 Q312.1688,810.1367 312.7156,810.4961 Z " fill="#000000"/><text fill="#000000" font-family="sans-serif" font-size="14" lengthAdjust="spacing" textLength="116" x="328.05" y="820.418">ScaleSensorValue</text><line style="stroke:#181818;stroke-width:0.5;" x1="277.5" x2="464.5" y1="830.6211" y2="830.6211"/><rect fill="none" height="6" style="stroke:#C82930;stroke-width:1.0;" width="6" x="284.5" y="842.4316"/><text fill="#000000" font-family="sans-serif" font-size="14" lengthAdjust="spacing" textLength="105" x="296.5" y="849.7285">date: Timestamp</text><rect fill="none" height="6" style="stroke:#C82930;stroke-width:1.0;" width="6" x="284.5" y="861.0527"/><text fill="#000000" font-family="sans-serif" font-size="14" lengthAdjust="spacing" textLength="68" x="296.5" y="868.3496">unit: String</text><line style="stroke:#181818;stroke-width:0.5;" x1="277.5" x2="464.5" y1="875.8633" y2="875.8633"/><ellipse cx="287.5" cy="890.6738" fill="#84BE84" rx="3" ry="3" style="stroke:#038048;stroke-width:1.0;"/><text fill="#000000" font-family="sans-serif" font-size="14" lengthAdjust="spacing" textLength="163" x="296.5" y="894.9707">getValueWithUnit(): String</text></g><!--class Value--><g id="elem_Value"><rect codeLine="47" fill="#F1F1F1" height="66.6211" id="Value" rx="2.5" ry="2.5" style="stroke:#181818;stroke-width:0.5;" width="189" x="28.5" y="652.6211"/><ellipse cx="100.75" cy="668.6211" fill="#B4A7E5" rx="11" ry="11" style="stroke:#181818;stroke-width:1.0;"/><path d="M101.7031,665.2617 L101.7031,671.918 L103.4219,671.918 Q104.0313,671.918 104.2969,672.1523 Q104.5625,672.3867 104.5625,672.7773 Q104.5625,673.1523 104.2969,673.3867 Q104.0313,673.6211 103.4219,673.6211 L98.2813,673.6211 Q97.6719,673.6211 97.4063,673.3867 Q97.1406,673.1523 97.1406,672.7617 Q97.1406,672.3867 97.4063,672.1523 Q97.6719,671.918 98.2813,671.918 L100,671.918 L100,665.2617 L98.2813,665.2617 Q97.6719,665.2617 97.4063,665.0273 Q97.1406,664.793 97.1406,664.4023 Q97.1406,664.0273 97.4063,663.793 Q97.6719,663.5586 98.2813,663.5586 L103.4219,663.5586 Q104.0313,663.5586 104.2969,663.793 Q104.5625,664.0273 104.5625,664.4023 Q104.5625,664.793 104.2969,665.0273 Q104.0313,665.2617 103.4219,665.2617 L101.7031,665.2617 Z " fill="#000000"/><text fill="#000000" font-family="sans-serif" font-size="14" font-style="italic" lengthAdjust="spacing" textLength="36" x="121.25" y="674.418">Value</text><line style="stroke:#181818;stroke-width:0.5;" x1="29.5" x2="216.5" y1="684.6211" y2="684.6211"/><line style="stroke:#181818;stroke-width:0.5;" x1="29.5" x2="216.5" y1="692.6211" y2="692.6211"/><ellipse cx="39.5" cy="707.4316" fill="#84BE84" rx="3" ry="3" style="stroke:#038048;stroke-width:1.0;"/><text fill="#000000" font-family="sans-serif" font-size="14" lengthAdjust="spacing" textLength="163" x="48.5" y="711.7285">getValueWithUnit(): String</text></g><!--class Sensor--><g id="elem_Sensor"><rect codeLine="38" fill="#F1F1F1" height="85.2422" id="Sensor" rx="2.5" ry="2.5" style="stroke:#181818;stroke-width:0.5;" width="314" x="308" y="46.6211"/><ellipse cx="438.25" cy="62.6211" fill="#B4A7E5" rx="11" ry="11" style="stroke:#181818;stroke-width:1.0;"/><path d="M439.2031,59.2617 L439.2031,65.918 L440.9219,65.918 Q441.5313,65.918 441.7969,66.1523 Q442.0625,66.3867 442.0625,66.7773 Q442.0625,67.1523 441.7969,67.3867 Q441.5313,67.6211 440.9219,67.6211 L435.7813,67.6211 Q435.1719,67.6211 434.9063,67.3867 Q434.6406,67.1523 434.6406,66.7617 Q434.6406,66.3867 434.9063,66.1523 Q435.1719,65.918 435.7813,65.918 L437.5,65.918 L437.5,59.2617 L435.7813,59.2617 Q435.1719,59.2617 434.9063,59.0273 Q434.6406,58.793 434.6406,58.4023 Q434.6406,58.0273 434.9063,57.793 Q435.1719,57.5586 435.7813,57.5586 L440.9219,57.5586 Q441.5313,57.5586 441.7969,57.793 Q442.0625,58.0273 442.0625,58.4023 Q442.0625,58.793 441.7969,59.0273 Q441.5313,59.2617 440.9219,59.2617 L439.2031,59.2617 Z " fill="#000000"/><text fill="#000000" font-family="sans-serif" font-size="14" font-style="italic" lengthAdjust="spacing" textLength="45" x="458.75" y="68.418">Sensor</text><line style="stroke:#181818;stroke-width:0.5;" x1="309" x2="621" y1="78.6211" y2="78.6211"/><line style="stroke:#181818;stroke-width:0.5;" x1="309" x2="621" y1="86.6211" y2="86.6211"/><ellipse cx="319" cy="101.4316" fill="#84BE84" rx="3" ry="3" style="stroke:#038048;stroke-width:1.0;"/><text fill="#000000" font-family="sans-serif" font-size="14" lengthAdjust="spacing" textLength="156" x="328" y="105.7285">getSensorName(): String</text><ellipse cx="319" cy="120.0527" fill="#84BE84" rx="3" ry="3" style="stroke:#038048;stroke-width:1.0;"/><text fill="#000000" font-family="sans-serif" font-size="14" lengthAdjust="spacing" textLength="288" x="328" y="124.3496">getSensorFunctionality(): SensorFunctionality</text></g><!--reverse link SensorSpecificTime to ScaleSensor--><g id="link_SensorSpecificTime_ScaleSensor"><path d="M465,277.9111 C465,303.8011 465,323.1911 465,357.6911 " fill="none" id="SensorSpecificTime-backto-ScaleSensor" style="stroke:#181818;stroke-width:1.0;stroke-dasharray:7.0,7.0;"/><polygon fill="none" points="465,259.9111,459,277.9111,471,277.9111,465,259.9111" style="stroke:#181818;stroke-width:1.0;"/></g><!--reverse link Value to ScaleSensorValue--><g id="link_Value_ScaleSensorValue"><path d="M187.946,729.6761 C222.316,752.1961 253.63,772.7111 292.87,798.4211 " fill="none" id="Value-backto-ScaleSensorValue" style="stroke:#181818;stroke-width:1.0;stroke-dasharray:7.0,7.0;"/><polygon fill="none" points="172.89,719.8111,184.6576,734.6947,191.2343,724.6574,172.89,719.8111" style="stroke:#181818;stroke-width:1.0;"/></g><!--reverse link Sensor to SensorSpecificTime--><g id="link_Sensor_SensorSpecificTime"><path d="M465,149.7311 C465,169.2511 465,174.1811 465,192.4311 " fill="none" id="Sensor-backto-SensorSpecificTime" style="stroke:#181818;stroke-width:1.0;"/><polygon fill="none" points="465,131.7311,459,149.7311,471,149.7311,465,131.7311" style="stroke:#181818;stroke-width:1.0;"/></g><!--link FactoryValue to ScaleSensorValue--><g id="link_FactoryValue_ScaleSensorValue"><path codeLine="51" d="M371,720.0011 C371,742.5411 371,766.8811 371,792.5411 " fill="none" id="FactoryValue-to-ScaleSensorValue" style="stroke:#181818;stroke-width:1.0;stroke-dasharray:7.0,7.0;"/><polygon fill="#181818" points="371,798.5411,375,789.5411,371,793.5411,367,789.5411,371,798.5411" style="stroke:#181818;stroke-width:1.0;"/><text fill="#000000" font-family="sans-serif" font-size="13" lengthAdjust="spacing" textLength="57" x="372" y="764.6494">&#171;creates&#187;</text></g><!--link ScaleSensor to FactoryValue--><g id="link_ScaleSensor_FactoryValue"><path codeLine="52" d="M430,536.3711 C413.92,576.9011 395.84,622.5011 383.98,652.4011 " fill="none" id="ScaleSensor-FactoryValue" style="stroke:#181818;stroke-width:1.0;"/><text fill="#000000" font-family="sans-serif" font-size="13" lengthAdjust="spacing" textLength="21" x="402" y="618.6494">has</text></g><!--link ScaleSensor to SensorFunctionality--><g id="link_ScaleSensor_SensorFunctionality"><path codeLine="53" d="M622.22,447.1211 C642.04,447.1211 661.6,447.1211 679.43,447.1211 " fill="none" id="ScaleSensor-SensorFunctionality" style="stroke:#181818;stroke-width:1.0;"/><text fill="#000000" font-family="sans-serif" font-size="13" lengthAdjust="spacing" textLength="21" x="640.25" y="440.1494">has</text></g><!--link ScaleSensorValue to ScaleSensor--><g id="link_ScaleSensorValue_ScaleSensor"><path codeLine="54" d="M445.22,798.3511 C469.65,777.1111 493.9,750.2511 507,719.6211 C531.84,661.5111 519.72,590.8211 502.24,536.1411 " fill="none" id="ScaleSensorValue-ScaleSensor" style="stroke:#181818;stroke-width:1.0;"/><text fill="#000000" font-family="sans-serif" font-size="13" lengthAdjust="spacing" textLength="21" x="521" y="691.6494">has</text></g><!--SRC=[hLF1Rfj04BtlLyobIgA0hTug55cYzJf5Ii1YePPFrWgFxPLWGUpWr8hwxrqWiQ6nsajlExFlpPitiqkASeHKVFxYWMzWMPVR9YE8NZJM3WJm8ZK17H3CoH0MG2KSv1510fqgX7871hKfQukH17jrHDF1iwQkqLAFCczmMfL6aIerA6sP9fDMy_RJtOJT78WguqsdLMw5cYAVP6KnpN9fZBjLSb_BWh4k1D6oH2-cYYh7mjQtwIuZAipKJcM9Al2LkNrFeIpG0q6rqdlcxXgTjJt8ND79U-CjXacBaHcLzUb7sxG7Yq74m3tssJwytoE9iyhjtLddSZ6gtI6kIBRmhk9YR69GyTVx18Rzm2kxpsgKX5tu9xLlqZ9HDyKrOSjF-FEIntwInjnXtzFdO1uaQuTz3K8_Ncz4Oc-4myGt_ublbf48aY0A7ROAmhdDfc4S2DuT14ySDkSh2mf2UnJHanzlOdyU-3rb6Qrux30UylXnVR4pM6XlQR3LTu_krZhqeBLbI1OLSnkjQ3Ji3hfIT4ZjpNXiIXFMTgVuDe5sQFzfRrUg3tS0-9DGRyrO-D-BljGyR_dl5aTlOZAPVPYg1myF_KCninaRVYBN7RqeptviCmPSS_u1rakxG-4Uyni0]--></g></svg>