<?xml version="1.0" encoding="us-ascii" standalone="no"?><svg xmlns="http://www.w3.org/2000/svg" xmlns:xlink="http://www.w3.org/1999/xlink" contentStyleType="text/css" height="999px" preserveAspectRatio="none" style="width:760px;height:999px;background:#FFFFFF;" version="1.1" viewBox="0 0 760 999" width="760px" zoomAndPan="magnify"><defs/><g><!--class Sensor--><g id="elem_Sensor"><rect codeLine="1" fill="#F1F1F1" height="85.2422" id="Sensor" rx="2.5" ry="2.5" style="stroke:#181818;stroke-width:0.5;" width="181" x="144" y="7"/><ellipse cx="207.75" cy="23" fill="#B4A7E5" rx="11" ry="11" style="stroke:#181818;stroke-width:1.0;"/><path d="M208.7031,19.6406 L208.7031,26.2969 L210.4219,26.2969 Q211.0313,26.2969 211.2969,26.5313 Q211.5625,26.7656 211.5625,27.1563 Q211.5625,27.5313 211.2969,27.7656 Q211.0313,28 210.4219,28 L205.2813,28 Q204.6719,28 204.4063,27.7656 Q204.1406,27.5313 204.1406,27.1406 Q204.1406,26.7656 204.4063,26.5313 Q204.6719,26.2969 205.2813,26.2969 L207,26.2969 L207,19.6406 L205.2813,19.6406 Q204.6719,19.6406 204.4063,19.4063 Q204.1406,19.1719 204.1406,18.7813 Q204.1406,18.4063 204.4063,18.1719 Q204.6719,17.9375 205.2813,17.9375 L210.4219,17.9375 Q211.0313,17.9375 211.2969,18.1719 Q211.5625,18.4063 211.5625,18.7813 Q211.5625,19.1719 211.2969,19.4063 Q211.0313,19.6406 210.4219,19.6406 L208.7031,19.6406 Z " fill="#000000"/><text fill="#000000" font-family="sans-serif" font-size="14" font-style="italic" lengthAdjust="spacing" textLength="45" x="228.25" y="28.7969">Sensor</text><line style="stroke:#181818;stroke-width:0.5;" x1="145" x2="324" y1="39" y2="39"/><line style="stroke:#181818;stroke-width:0.5;" x1="145" x2="324" y1="47" y2="47"/><ellipse cx="155" cy="61.8105" fill="#84BE84" rx="3" ry="3" style="stroke:#038048;stroke-width:1.0;"/><text fill="#000000" font-family="sans-serif" font-size="14" lengthAdjust="spacing" textLength="111" x="164" y="66.1074">getSensorName()</text><ellipse cx="155" cy="80.4316" fill="#84BE84" rx="3" ry="3" style="stroke:#038048;stroke-width:1.0;"/><text fill="#000000" font-family="sans-serif" font-size="14" lengthAdjust="spacing" textLength="155" x="164" y="84.7285">getSensorFunctionality()</text></g><!--class WindSpeedAndDirectionSensor--><g id="elem_WindSpeedAndDirectionSensor"><rect codeLine="6" fill="#F1F1F1" height="196.9688" id="WindSpeedAndDirectionSensor" rx="2.5" ry="2.5" style="stroke:#181818;stroke-width:0.5;" width="335" x="67" y="281"/><ellipse cx="130.75" cy="297" fill="#ADD1B2" rx="11" ry="11" style="stroke:#181818;stroke-width:1.0;"/><path d="M133.5156,292.875 Q133.6719,292.6563 133.8594,292.5469 Q134.0469,292.4375 134.2656,292.4375 Q134.6406,292.4375 134.875,292.7031 Q135.1094,292.9531 135.1094,293.5625 L135.1094,295.0156 Q135.1094,295.625 134.875,295.8906 Q134.6406,296.1563 134.2656,296.1563 Q133.9219,296.1563 133.7188,295.9531 Q133.5156,295.7656 133.4063,295.25 Q133.3594,294.8906 133.1719,294.7031 Q132.8438,294.3281 132.2344,294.1094 Q131.625,293.8906 131,293.8906 Q130.2344,293.8906 129.5938,294.2188 Q128.9688,294.5469 128.4688,295.2969 Q127.9844,296.0469 127.9844,297.0781 L127.9844,298.1719 Q127.9844,299.4063 128.875,300.2344 Q129.7656,301.0469 131.3594,301.0469 Q132.2969,301.0469 132.9531,300.7969 Q133.3438,300.6406 133.7656,300.2031 Q134.0313,299.9375 134.1719,299.8594 Q134.3281,299.7813 134.5313,299.7813 Q134.8594,299.7813 135.1094,300.0469 Q135.375,300.2969 135.375,300.6406 Q135.375,300.9844 135.0313,301.3906 Q134.5313,301.9688 133.7344,302.2969 Q132.6563,302.75 131.3594,302.75 Q129.8438,302.75 128.6406,302.125 Q127.6563,301.625 126.9688,300.5625 Q126.2813,299.4844 126.2813,298.2031 L126.2813,297.0469 Q126.2813,295.7188 126.8906,294.5781 Q127.5156,293.4219 128.6094,292.8125 Q129.7031,292.1875 130.9375,292.1875 Q131.6719,292.1875 132.3125,292.3594 Q132.9688,292.5156 133.5156,292.875 Z " fill="#000000"/><text fill="#000000" font-family="sans-serif" font-size="14" lengthAdjust="spacing" textLength="199" x="151.25" y="302.7969">WindSpeedAndDirectionSensor</text><line style="stroke:#181818;stroke-width:0.5;" x1="68" x2="401" y1="313" y2="313"/><rect fill="none" height="6" style="stroke:#C82930;stroke-width:1.0;" width="6" x="75" y="324.8105"/><text fill="#000000" font-family="sans-serif" font-size="14" lengthAdjust="spacing" textLength="124" x="87" y="332.1074">sensorName: String</text><rect fill="none" height="6" style="stroke:#C82930;stroke-width:1.0;" width="6" x="75" y="343.4316"/><text fill="#000000" font-family="sans-serif" font-size="14" lengthAdjust="spacing" textLength="256" x="87" y="350.7285">sensorFunctionality: SensorFunctionality</text><rect fill="none" height="6" style="stroke:#C82930;stroke-width:1.0;" width="6" x="75" y="362.0527"/><text fill="#000000" font-family="sans-serif" font-size="14" lengthAdjust="spacing" textLength="78" x="87" y="369.3496">value: Value</text><rect fill="none" height="6" style="stroke:#C82930;stroke-width:1.0;" width="6" x="75" y="380.6738"/><text fill="#000000" font-family="sans-serif" font-size="14" lengthAdjust="spacing" textLength="171" x="87" y="387.9707">factoryValue: FactoryValue</text><line style="stroke:#181818;stroke-width:0.5;" x1="68" x2="401" y1="395.4844" y2="395.4844"/><ellipse cx="78" cy="410.2949" fill="#84BE84" rx="3" ry="3" style="stroke:#038048;stroke-width:1.0;"/><text fill="#000000" font-family="sans-serif" font-size="14" lengthAdjust="spacing" textLength="156" x="87" y="414.5918">getSensorName(): String</text><ellipse cx="78" cy="428.916" fill="#84BE84" rx="3" ry="3" style="stroke:#038048;stroke-width:1.0;"/><text fill="#000000" font-family="sans-serif" font-size="14" lengthAdjust="spacing" textLength="288" x="87" y="433.2129">getSensorFunctionality(): SensorFunctionality</text><ellipse cx="78" cy="447.5371" fill="#84BE84" rx="3" ry="3" style="stroke:#038048;stroke-width:1.0;"/><text fill="#000000" font-family="sans-serif" font-size="14" lengthAdjust="spacing" textLength="197" x="87" y="451.834">getSpeedAndDirection(): String</text><ellipse cx="78" cy="466.1582" fill="#84BE84" rx="3" ry="3" style="stroke:#038048;stroke-width:1.0;"/><text fill="#000000" font-family="sans-serif" font-size="14" lengthAdjust="spacing" textLength="309" x="87" y="470.4551">getValueFromLog(TimeStamp timeStamp): String</text></g><!--class SensorSpecificTime--><g id="elem_SensorSpecificTime"><rect codeLine="41" fill="#F1F1F1" height="66.6211" id="SensorSpecificTime" rx="2.5" ry="2.5" style="stroke:#181818;stroke-width:0.5;" width="239" x="115" y="153"/><ellipse cx="167.75" cy="169" fill="#B4A7E5" rx="11" ry="11" style="stroke:#181818;stroke-width:1.0;"/><path d="M168.7031,165.6406 L168.7031,172.2969 L170.4219,172.2969 Q171.0313,172.2969 171.2969,172.5313 Q171.5625,172.7656 171.5625,173.1563 Q171.5625,173.5313 171.2969,173.7656 Q171.0313,174 170.4219,174 L165.2813,174 Q164.6719,174 164.4063,173.7656 Q164.1406,173.5313 164.1406,173.1406 Q164.1406,172.7656 164.4063,172.5313 Q164.6719,172.2969 165.2813,172.2969 L167,172.2969 L167,165.6406 L165.2813,165.6406 Q164.6719,165.6406 164.4063,165.4063 Q164.1406,165.1719 164.1406,164.7813 Q164.1406,164.4063 164.4063,164.1719 Q164.6719,163.9375 165.2813,163.9375 L170.4219,163.9375 Q171.0313,163.9375 171.2969,164.1719 Q171.5625,164.4063 171.5625,164.7813 Q171.5625,165.1719 171.2969,165.4063 Q171.0313,165.6406 170.4219,165.6406 L168.7031,165.6406 Z " fill="#000000"/><text fill="#000000" font-family="sans-serif" font-size="14" font-style="italic" lengthAdjust="spacing" textLength="125" x="188.25" y="174.7969">SensorSpecificTime</text><line style="stroke:#181818;stroke-width:0.5;" x1="116" x2="353" y1="185" y2="185"/><line style="stroke:#181818;stroke-width:0.5;" x1="116" x2="353" y1="193" y2="193"/><ellipse cx="126" cy="207.8105" fill="#84BE84" rx="3" ry="3" style="stroke:#038048;stroke-width:1.0;"/><text fill="#000000" font-family="sans-serif" font-size="14" lengthAdjust="spacing" textLength="213" x="135" y="212.1074">getValueForSpecificTime(): String</text></g><!--class SensorFunctionality--><g id="elem_SensorFunctionality"><rect codeLine="17" fill="#F1F1F1" height="252.832" id="SensorFunctionality" rx="2.5" ry="2.5" style="stroke:#181818;stroke-width:0.5;" width="157" x="7" y="557"/><ellipse cx="22" cy="573" fill="#EB937F" rx="11" ry="11" style="stroke:#181818;stroke-width:1.0;"/><path d="M20.8594,573.7969 L20.8594,576.2969 L25.1875,576.2969 L25.1875,575.375 Q25.1875,574.7656 25.4219,574.5 Q25.6719,574.2344 26.0469,574.2344 Q26.4219,574.2344 26.6563,574.5 Q26.8906,574.7656 26.8906,575.375 L26.8906,578 L18.8906,578 Q18.2656,578 18,577.7656 Q17.75,577.5313 17.75,577.1406 Q17.75,576.7656 18.0156,576.5313 Q18.2813,576.2969 18.8906,576.2969 L19.1563,576.2969 L19.1563,569.6406 L18.8906,569.6406 Q18.2656,569.6406 18,569.4063 Q17.75,569.1719 17.75,568.7813 Q17.75,568.4063 18,568.1719 Q18.2656,567.9375 18.8906,567.9375 L26.5156,567.9375 L26.5156,570.5313 Q26.5156,571.1406 26.2813,571.4063 Q26.0625,571.6563 25.6719,571.6563 Q25.2969,571.6563 25.0625,571.4063 Q24.8281,571.1406 24.8281,570.5313 L24.8281,569.6406 L20.8594,569.6406 L20.8594,572.0938 L22.3438,572.0938 Q22.3438,571.4375 22.4688,571.25 Q22.7344,570.8438 23.2031,570.8438 Q23.5781,570.8438 23.8125,571.1094 Q24.0469,571.3594 24.0469,571.9688 L24.0469,573.9375 Q24.0469,574.4844 23.9219,574.6719 Q23.6563,575.0625 23.2031,575.0625 Q22.7344,575.0625 22.4688,574.6563 Q22.3438,574.4688 22.3438,573.7969 L20.8594,573.7969 Z " fill="#000000"/><text fill="#000000" font-family="sans-serif" font-size="14" lengthAdjust="spacing" textLength="125" x="36" y="578.7969">SensorFunctionality</text><line style="stroke:#181818;stroke-width:0.5;" x1="8" x2="163" y1="589" y2="589"/><text fill="#000000" font-family="sans-serif" font-size="14" lengthAdjust="spacing" textLength="107" x="13" y="608.1074">TEMPERATURE,</text><text fill="#000000" font-family="sans-serif" font-size="14" lengthAdjust="spacing" textLength="67" x="13" y="626.7285">HUMIDITY,</text><text fill="#000000" font-family="sans-serif" font-size="14" lengthAdjust="spacing" textLength="115" x="13" y="645.3496">BINARY_STATUS,</text><text fill="#000000" font-family="sans-serif" font-size="14" lengthAdjust="spacing" textLength="121" x="13" y="663.9707">SCALE_POSITION,</text><text fill="#000000" font-family="sans-serif" font-size="14" lengthAdjust="spacing" textLength="39" x="13" y="682.5918">WIND,</text><text fill="#000000" font-family="sans-serif" font-size="14" lengthAdjust="spacing" textLength="62" x="13" y="701.2129">SUNRISE,</text><text fill="#000000" font-family="sans-serif" font-size="14" lengthAdjust="spacing" textLength="58" x="13" y="719.834">SUNSET,</text><text fill="#000000" font-family="sans-serif" font-size="14" lengthAdjust="spacing" textLength="85" x="13" y="738.4551">DEW_POINT,</text><text fill="#000000" font-family="sans-serif" font-size="14" lengthAdjust="spacing" textLength="132" x="13" y="757.0762">SOLAR_RADIATION,</text><text fill="#000000" font-family="sans-serif" font-size="14" lengthAdjust="spacing" textLength="56" x="13" y="775.6973">POWER,</text><text fill="#000000" font-family="sans-serif" font-size="14" lengthAdjust="spacing" textLength="57" x="13" y="794.3184">ENERGY</text><line style="stroke:#181818;stroke-width:0.5;" x1="8" x2="163" y1="801.832" y2="801.832"/></g><!--class WindSpeedAndDirectionValue--><g id="elem_WindSpeedAndDirectionValue"><rect codeLine="31" fill="#F1F1F1" height="103.8633" id="WindSpeedAndDirectionValue" rx="2.5" ry="2.5" style="stroke:#181818;stroke-width:0.5;" width="222" x="299.5" y="889"/><ellipse cx="314.5" cy="905" fill="#ADD1B2" rx="11" ry="11" style="stroke:#181818;stroke-width:1.0;"/><path d="M317.2656,900.875 Q317.4219,900.6563 317.6094,900.5469 Q317.7969,900.4375 318.0156,900.4375 Q318.3906,900.4375 318.625,900.7031 Q318.8594,900.9531 318.8594,901.5625 L318.8594,903.0156 Q318.8594,903.625 318.625,903.8906 Q318.3906,904.1563 318.0156,904.1563 Q317.6719,904.1563 317.4688,903.9531 Q317.2656,903.7656 317.1563,903.25 Q317.1094,902.8906 316.9219,902.7031 Q316.5938,902.3281 315.9844,902.1094 Q315.375,901.8906 314.75,901.8906 Q313.9844,901.8906 313.3438,902.2188 Q312.7188,902.5469 312.2188,903.2969 Q311.7344,904.0469 311.7344,905.0781 L311.7344,906.1719 Q311.7344,907.4063 312.625,908.2344 Q313.5156,909.0469 315.1094,909.0469 Q316.0469,909.0469 316.7031,908.7969 Q317.0938,908.6406 317.5156,908.2031 Q317.7813,907.9375 317.9219,907.8594 Q318.0781,907.7813 318.2813,907.7813 Q318.6094,907.7813 318.8594,908.0469 Q319.125,908.2969 319.125,908.6406 Q319.125,908.9844 318.7813,909.3906 Q318.2813,909.9688 317.4844,910.2969 Q316.4063,910.75 315.1094,910.75 Q313.5938,910.75 312.3906,910.125 Q311.4063,909.625 310.7188,908.5625 Q310.0313,907.4844 310.0313,906.2031 L310.0313,905.0469 Q310.0313,903.7188 310.6406,902.5781 Q311.2656,901.4219 312.3594,900.8125 Q313.4531,900.1875 314.6875,900.1875 Q315.4219,900.1875 316.0625,900.3594 Q316.7188,900.5156 317.2656,900.875 Z " fill="#000000"/><text fill="#000000" font-family="sans-serif" font-size="14" lengthAdjust="spacing" textLength="190" x="328.5" y="910.7969">WindSpeedAndDirectionValue</text><line style="stroke:#181818;stroke-width:0.5;" x1="300.5" x2="520.5" y1="921" y2="921"/><rect fill="none" height="6" style="stroke:#C82930;stroke-width:1.0;" width="6" x="307.5" y="932.8105"/><text fill="#000000" font-family="sans-serif" font-size="14" lengthAdjust="spacing" textLength="109" x="319.5" y="940.1074">unitSpeed: String</text><rect fill="none" height="6" style="stroke:#C82930;stroke-width:1.0;" width="6" x="307.5" y="951.4316"/><text fill="#000000" font-family="sans-serif" font-size="14" lengthAdjust="spacing" textLength="167" x="319.5" y="958.7285">readingInstant: Timestamp</text><line style="stroke:#181818;stroke-width:0.5;" x1="300.5" x2="520.5" y1="966.2422" y2="966.2422"/><ellipse cx="310.5" cy="981.0527" fill="#84BE84" rx="3" ry="3" style="stroke:#038048;stroke-width:1.0;"/><text fill="#000000" font-family="sans-serif" font-size="14" lengthAdjust="spacing" textLength="163" x="319.5" y="985.3496">getValueWithUnit(): String</text></g><!--class Value--><g id="elem_Value"><rect codeLine="37" fill="#F1F1F1" height="66.6211" id="Value" rx="2.5" ry="2.5" style="stroke:#181818;stroke-width:0.5;" width="189" x="564" y="650"/><ellipse cx="636.25" cy="666" fill="#B4A7E5" rx="11" ry="11" style="stroke:#181818;stroke-width:1.0;"/><path d="M637.2031,662.6406 L637.2031,669.2969 L638.9219,669.2969 Q639.5313,669.2969 639.7969,669.5313 Q640.0625,669.7656 640.0625,670.1563 Q640.0625,670.5313 639.7969,670.7656 Q639.5313,671 638.9219,671 L633.7813,671 Q633.1719,671 632.9063,670.7656 Q632.6406,670.5313 632.6406,670.1406 Q632.6406,669.7656 632.9063,669.5313 Q633.1719,669.2969 633.7813,669.2969 L635.5,669.2969 L635.5,662.6406 L633.7813,662.6406 Q633.1719,662.6406 632.9063,662.4063 Q632.6406,662.1719 632.6406,661.7813 Q632.6406,661.4063 632.9063,661.1719 Q633.1719,660.9375 633.7813,660.9375 L638.9219,660.9375 Q639.5313,660.9375 639.7969,661.1719 Q640.0625,661.4063 640.0625,661.7813 Q640.0625,662.1719 639.7969,662.4063 Q639.5313,662.6406 638.9219,662.6406 L637.2031,662.6406 Z " fill="#000000"/><text fill="#000000" font-family="sans-serif" font-size="14" font-style="italic" lengthAdjust="spacing" textLength="36" x="656.75" y="671.7969">Value</text><line style="stroke:#181818;stroke-width:0.5;" x1="565" x2="752" y1="682" y2="682"/><line style="stroke:#181818;stroke-width:0.5;" x1="565" x2="752" y1="690" y2="690"/><ellipse cx="575" cy="704.8105" fill="#84BE84" rx="3" ry="3" style="stroke:#038048;stroke-width:1.0;"/><text fill="#000000" font-family="sans-serif" font-size="14" lengthAdjust="spacing" textLength="163" x="584" y="709.1074">getValueWithUnit(): String</text></g><!--class FactoryValue--><g id="elem_FactoryValue"><rect codeLine="45" fill="#F1F1F1" height="66.6211" id="FactoryValue" rx="2.5" ry="2.5" style="stroke:#181818;stroke-width:0.5;" width="236" x="292.5" y="650"/><ellipse cx="364.25" cy="666" fill="#ADD1B2" rx="11" ry="11" style="stroke:#181818;stroke-width:1.0;"/><path d="M367.0156,661.875 Q367.1719,661.6563 367.3594,661.5469 Q367.5469,661.4375 367.7656,661.4375 Q368.1406,661.4375 368.375,661.7031 Q368.6094,661.9531 368.6094,662.5625 L368.6094,664.0156 Q368.6094,664.625 368.375,664.8906 Q368.1406,665.1563 367.7656,665.1563 Q367.4219,665.1563 367.2188,664.9531 Q367.0156,664.7656 366.9063,664.25 Q366.8594,663.8906 366.6719,663.7031 Q366.3438,663.3281 365.7344,663.1094 Q365.125,662.8906 364.5,662.8906 Q363.7344,662.8906 363.0938,663.2188 Q362.4688,663.5469 361.9688,664.2969 Q361.4844,665.0469 361.4844,666.0781 L361.4844,667.1719 Q361.4844,668.4063 362.375,669.2344 Q363.2656,670.0469 364.8594,670.0469 Q365.7969,670.0469 366.4531,669.7969 Q366.8438,669.6406 367.2656,669.2031 Q367.5313,668.9375 367.6719,668.8594 Q367.8281,668.7813 368.0313,668.7813 Q368.3594,668.7813 368.6094,669.0469 Q368.875,669.2969 368.875,669.6406 Q368.875,669.9844 368.5313,670.3906 Q368.0313,670.9688 367.2344,671.2969 Q366.1563,671.75 364.8594,671.75 Q363.3438,671.75 362.1406,671.125 Q361.1563,670.625 360.4688,669.5625 Q359.7813,668.4844 359.7813,667.2031 L359.7813,666.0469 Q359.7813,664.7188 360.3906,663.5781 Q361.0156,662.4219 362.1094,661.8125 Q363.2031,661.1875 364.4375,661.1875 Q365.1719,661.1875 365.8125,661.3594 Q366.4688,661.5156 367.0156,661.875 Z " fill="#000000"/><text fill="#000000" font-family="sans-serif" font-size="14" lengthAdjust="spacing" textLength="84" x="384.75" y="671.7969">FactoryValue</text><line style="stroke:#181818;stroke-width:0.5;" x1="293.5" x2="527.5" y1="682" y2="682"/><line style="stroke:#181818;stroke-width:0.5;" x1="293.5" x2="527.5" y1="690" y2="690"/><ellipse cx="303.5" cy="704.8105" fill="#84BE84" rx="3" ry="3" style="stroke:#038048;stroke-width:1.0;"/><text fill="#000000" font-family="sans-serif" font-size="14" lengthAdjust="spacing" textLength="210" x="312.5" y="709.1074">createValueSpecificTime(): Value</text></g><!--reverse link SensorSpecificTime to WindSpeedAndDirectionSensor--><g id="link_SensorSpecificTime_WindSpeedAndDirectionSensor"><path d="M234.5,238.33 C234.5,255.29 234.5,258.97 234.5,280.8 " fill="none" id="SensorSpecificTime-backto-WindSpeedAndDirectionSensor" style="stroke:#181818;stroke-width:1.0;stroke-dasharray:7.0,7.0;"/><polygon fill="none" points="234.5,220.33,228.5,238.33,240.5,238.33,234.5,220.33" style="stroke:#181818;stroke-width:1.0;"/></g><!--reverse link Value to WindSpeedAndDirectionValue--><g id="link_Value_WindSpeedAndDirectionValue"><path d="M618.8679,730.7282 C596.6079,756.4382 576.13,779.34 546.5,810 C520.74,836.66 491.09,865.23 466.06,888.78 " fill="none" id="Value-backto-WindSpeedAndDirectionValue" style="stroke:#181818;stroke-width:1.0;stroke-dasharray:7.0,7.0;"/><polygon fill="none" points="630.65,717.12,614.3318,726.8008,623.404,734.6555,630.65,717.12" style="stroke:#181818;stroke-width:1.0;"/></g><!--reverse link Sensor to SensorSpecificTime--><g id="link_Sensor_SensorSpecificTime"><path d="M234.5,110.11 C234.5,129.63 234.5,134.56 234.5,152.81 " fill="none" id="Sensor-backto-SensorSpecificTime" style="stroke:#181818;stroke-width:1.0;"/><polygon fill="none" points="234.5,92.11,228.5,110.11,240.5,110.11,234.5,92.11" style="stroke:#181818;stroke-width:1.0;"/></g><!--link WindSpeedAndDirectionSensor to FactoryValue--><g id="link_WindSpeedAndDirectionSensor_FactoryValue"><path codeLine="49" d="M291.4,478.13 C325.85,537.24 367.59,608.87 391.4,649.72 " fill="none" id="WindSpeedAndDirectionSensor-FactoryValue" style="stroke:#181818;stroke-width:1.0;"/><text fill="#000000" font-family="sans-serif" font-size="13" lengthAdjust="spacing" textLength="21" x="318.5" y="523.0283">has</text></g><!--link FactoryValue to WindSpeedAndDirectionValue--><g id="link_FactoryValue_WindSpeedAndDirectionValue"><path codeLine="50" d="M410.5,717.12 C410.5,760.44 410.5,831.42 410.5,882.6 " fill="none" id="FactoryValue-to-WindSpeedAndDirectionValue" style="stroke:#181818;stroke-width:1.0;stroke-dasharray:7.0,7.0;"/><polygon fill="#181818" points="410.5,888.6,414.5,879.6,410.5,883.6,406.5,879.6,410.5,888.6" style="stroke:#181818;stroke-width:1.0;"/><text fill="#000000" font-family="sans-serif" font-size="13" lengthAdjust="spacing" textLength="57" x="411.5" y="855.0283">&#171;creates&#187;</text></g><!--link WindSpeedAndDirectionSensor to SensorFunctionality--><g id="link_WindSpeedAndDirectionSensor_SensorFunctionality"><path codeLine="51" d="M186.33,478.13 C173.96,503.21 160.48,530.54 147.51,556.81 " fill="none" id="WindSpeedAndDirectionSensor-SensorFunctionality" style="stroke:#181818;stroke-width:1.0;"/><text fill="#000000" font-family="sans-serif" font-size="13" lengthAdjust="spacing" textLength="21" x="170.5" y="523.0283">has</text></g><!--link WindSpeedAndDirectionSensor to WindSpeedAndDirectionValue--><g id="link_WindSpeedAndDirectionSensor_WindSpeedAndDirectionValue"><path codeLine="52" d="M216.48,478.22 C204.61,569.12 199.56,705.82 251.5,810 C267.25,841.59 294.6,868.19 322.22,888.93 " fill="none" id="WindSpeedAndDirectionSensor-WindSpeedAndDirectionValue" style="stroke:#181818;stroke-width:1.0;"/><text fill="#000000" font-family="sans-serif" font-size="13" lengthAdjust="spacing" textLength="21" x="252.5" y="689.0283">has</text></g><!--SRC=[ZLDjRu8m4FxEh-X7bmr_034cRDIjYOAX8F6JQQ1g4oY6bcN6xB-lKCQBCXrVkBlUSq_lkIlZaXPx4bE0AHTv0Ix6yu5AxRWaevEdNc1HybYod9EKoRCw-JQCE2L2W8Zn19yeJMoUEAoWTLPJaMMdb6QKIz5mgCIOxLaSi8nU35EqN1R0ic3yy1iRq5bWv0w6-KdIKW4trSymLISoByuR7Lpql9ksMh8_snjdhDElMxqgLpCkYZnRveT9rIQM93i1-MjrsKf1oijiZ4cD0gWlWAirzEqWzE5B7VW8LyX1mLPxhyYr_UqE1oe3wn1-ivTmj_Om2f3dwbY4NASv3LqVOTWw60RQTc2aGCXjNEmjRN_dsmwokp9hBuA-Dg4B_VVjWnMeXUXlG1rGGoyvqofsCmS59Oco41UIS6c1IZXHoTLf6Z5v31LqCb2GjKki-Ix_1znk9A1Val9431-4dkWmSrXJgz1VkGeQgwOahTrhg5vBXRptU4npKD82HoAC0SbqEh-ZlGLcCtq7CPy_Oi9ZhwuYV82xHr_1Vm00]--></g></svg>