<?xml version="1.0" encoding="us-ascii" standalone="no"?><svg xmlns="http://www.w3.org/2000/svg" xmlns:xlink="http://www.w3.org/1999/xlink" contentStyleType="text/css" height="528px" preserveAspectRatio="none" style="width:1284px;height:528px;background:#FFFFFF;" version="1.1" viewBox="0 0 1284 528" width="1284px" zoomAndPan="magnify"><defs/><g><text fill="#000000" font-family="sans-serif" font-size="14" font-weight="bold" lengthAdjust="spacing" textLength="1256" x="10" y="30.1074">US08 - As a Power User [or Administrator], I want to deactivate a device, so that it is no longer used. Nevertheless, it should be possible to access its configuration and activity log.</text><rect fill="#FFFFFF" height="370.502" style="stroke:#181818;stroke-width:1.0;" width="10" x="648.75" y="111.5332"/><rect fill="#FFFFFF" height="136.7949" style="stroke:#181818;stroke-width:1.0;" width="10" x="843.75" y="297.9492"/><rect fill="none" height="161.0859" style="stroke:#000000;stroke-width:1.5;" width="508.5" x="380.75" y="312.9492"/><line style="stroke:#181818;stroke-width:0.5;stroke-dasharray:5.0,5.0;" x1="653.75" x2="653.75" y1="78.2422" y2="491.0352"/><line style="stroke:#181818;stroke-width:0.5;stroke-dasharray:5.0,5.0;" x1="848.25" x2="848.25" y1="78.2422" y2="491.0352"/><rect fill="#E2E2F0" height="32.6211" rx="2.5" ry="2.5" style="stroke:#181818;stroke-width:0.5;" width="190" x="558.75" y="44.6211"/><text fill="#000000" font-family="sans-serif" font-size="14" lengthAdjust="spacing" textLength="176" x="565.75" y="66.7285">:DeactivateDeviceController</text><rect fill="#E2E2F0" height="32.6211" rx="2.5" ry="2.5" style="stroke:#181818;stroke-width:0.5;" width="190" x="558.75" y="490.0352"/><text fill="#000000" font-family="sans-serif" font-size="14" lengthAdjust="spacing" textLength="176" x="565.75" y="512.1426">:DeactivateDeviceController</text><rect fill="#E2E2F0" height="32.6211" rx="2.5" ry="2.5" style="stroke:#181818;stroke-width:0.5;" width="61" x="818.25" y="44.6211"/><text fill="#000000" font-family="sans-serif" font-size="14" lengthAdjust="spacing" textLength="47" x="825.25" y="66.7285">:Device</text><rect fill="#E2E2F0" height="32.6211" rx="2.5" ry="2.5" style="stroke:#181818;stroke-width:0.5;" width="61" x="818.25" y="490.0352"/><text fill="#000000" font-family="sans-serif" font-size="14" lengthAdjust="spacing" textLength="47" x="825.25" y="512.1426">:Device</text><rect fill="#FFFFFF" height="370.502" style="stroke:#181818;stroke-width:1.0;" width="10" x="648.75" y="111.5332"/><rect fill="#FFFFFF" height="136.7949" style="stroke:#181818;stroke-width:1.0;" width="10" x="843.75" y="297.9492"/><polygon fill="#181818" points="636.75,107.5332,646.75,111.5332,636.75,115.5332,640.75,111.5332" style="stroke:#181818;stroke-width:1.0;"/><line style="stroke:#181818;stroke-width:1.0;" x1="377.75" x2="642.75" y1="111.5332" y2="111.5332"/><text fill="#000000" font-family="sans-serif" font-size="13" font-weight="bold" lengthAdjust="spacing" textLength="7" x="384.75" y="106.2705">1</text><text fill="#000000" font-family="sans-serif" font-size="13" lengthAdjust="spacing" textLength="107" x="395.75" y="106.2705">getRoomListDTO()</text><rect fill="none" height="43.252" style="stroke:#000000;stroke-width:1.5;" width="196" x="555.75" y="119.5332"/><path d="M555.75,119.5332 L617.75,119.5332 L617.75,128.5332 L607.75,138.5332 L555.75,138.5332 L555.75,119.5332 " fill="#EEEEEE" style="stroke:#000000;stroke-width:2.0;"/><text fill="#000000" font-family="sans-serif" font-size="13" font-weight="bold" lengthAdjust="spacing" textLength="17" x="568.75" y="135.5615">ref</text><text fill="#000000" font-family="sans-serif" font-size="12" lengthAdjust="spacing" textLength="135" x="586.25" y="155.4824">US06SequenceDiagram</text><polygon fill="#181818" points="388.75,187.0762,378.75,191.0762,388.75,195.0762,384.75,191.0762" style="stroke:#181818;stroke-width:1.0;"/><line style="stroke:#181818;stroke-width:1.0;stroke-dasharray:2.0,2.0;" x1="382.75" x2="647.75" y1="191.0762" y2="191.0762"/><text fill="#000000" font-family="sans-serif" font-size="13" font-weight="bold" lengthAdjust="spacing" textLength="7" x="394.75" y="185.8135">2</text><text fill="#000000" font-family="sans-serif" font-size="13" lengthAdjust="spacing" textLength="101" x="405.75" y="185.8135">List&lt;DeviceDTO&gt;</text><polygon fill="#181818" points="636.75,218.3672,646.75,222.3672,636.75,226.3672,640.75,222.3672" style="stroke:#181818;stroke-width:1.0;"/><line style="stroke:#181818;stroke-width:1.0;" x1="377.75" x2="642.75" y1="222.3672" y2="222.3672"/><text fill="#000000" font-family="sans-serif" font-size="13" font-weight="bold" lengthAdjust="spacing" textLength="7" x="384.75" y="217.1045">3</text><text fill="#000000" font-family="sans-serif" font-size="13" lengthAdjust="spacing" textLength="234" x="395.75" y="217.1045">deactivateDevice(DeviceDTO deviceDTO)</text><line style="stroke:#181818;stroke-width:1.0;" x1="658.75" x2="700.75" y1="253.6582" y2="253.6582"/><line style="stroke:#181818;stroke-width:1.0;" x1="700.75" x2="700.75" y1="253.6582" y2="266.6582"/><line style="stroke:#181818;stroke-width:1.0;" x1="659.75" x2="700.75" y1="266.6582" y2="266.6582"/><polygon fill="#181818" points="669.75,262.6582,659.75,266.6582,669.75,270.6582,665.75,266.6582" style="stroke:#181818;stroke-width:1.0;"/><text fill="#000000" font-family="sans-serif" font-size="13" font-weight="bold" lengthAdjust="spacing" textLength="7" x="665.75" y="248.3955">4</text><text fill="#000000" font-family="sans-serif" font-size="13" lengthAdjust="spacing" textLength="160" x="676.75" y="248.3955">get.(DeviceDTO deviceDTO)</text><polygon fill="#181818" points="831.75,293.9492,841.75,297.9492,831.75,301.9492,835.75,297.9492" style="stroke:#181818;stroke-width:1.0;"/><line style="stroke:#181818;stroke-width:1.0;" x1="658.75" x2="837.75" y1="297.9492" y2="297.9492"/><text fill="#000000" font-family="sans-serif" font-size="13" font-weight="bold" lengthAdjust="spacing" textLength="7" x="665.75" y="292.6865">5</text><text fill="#000000" font-family="sans-serif" font-size="13" lengthAdjust="spacing" textLength="104" x="676.75" y="292.6865">deactivateDevice()</text><path d="M380.75,312.9492 L441.75,312.9492 L441.75,322.2402 L431.75,332.2402 L380.75,332.2402 L380.75,312.9492 " fill="#EEEEEE" style="stroke:#000000;stroke-width:1.5;"/><rect fill="none" height="161.0859" style="stroke:#000000;stroke-width:1.5;" width="508.5" x="380.75" y="312.9492"/><text fill="#000000" font-family="sans-serif" font-size="13" font-weight="bold" lengthAdjust="spacing" textLength="16" x="395.75" y="327.9775">alt</text><text fill="#000000" font-family="sans-serif" font-size="11" font-weight="bold" lengthAdjust="spacing" textLength="206" x="456.75" y="326.8193">[if Device is successfully deactivated]</text><polygon fill="#181818" points="669.75,351.5313,659.75,355.5313,669.75,359.5313,665.75,355.5313" style="stroke:#181818;stroke-width:1.0;"/><line style="stroke:#181818;stroke-width:1.0;stroke-dasharray:2.0,2.0;" x1="663.75" x2="842.75" y1="355.5313" y2="355.5313"/><text fill="#000000" font-family="sans-serif" font-size="13" font-weight="bold" lengthAdjust="spacing" textLength="7" x="675.75" y="350.2686">6</text><text fill="#000000" font-family="sans-serif" font-size="13" lengthAdjust="spacing" textLength="59" x="686.75" y="350.2686">return true</text><polygon fill="#181818" points="388.75,382.8223,378.75,386.8223,388.75,390.8223,384.75,386.8223" style="stroke:#181818;stroke-width:1.0;"/><line style="stroke:#181818;stroke-width:1.0;stroke-dasharray:2.0,2.0;" x1="382.75" x2="647.75" y1="386.8223" y2="386.8223"/><text fill="#000000" font-family="sans-serif" font-size="13" font-weight="bold" lengthAdjust="spacing" textLength="7" x="394.75" y="381.5596">7</text><text fill="#000000" font-family="sans-serif" font-size="13" lengthAdjust="spacing" textLength="59" x="405.75" y="381.5596">return true</text><line style="stroke:#000000;stroke-width:1.0;stroke-dasharray:2.0,2.0;" x1="380.75" x2="889.25" y1="395.8223" y2="395.8223"/><text fill="#000000" font-family="sans-serif" font-size="11" font-weight="bold" lengthAdjust="spacing" textLength="176" x="385.75" y="407.6924">[if Device is already deactivated]</text><polygon fill="#181818" points="669.75,430.7441,659.75,434.7441,669.75,438.7441,665.75,434.7441" style="stroke:#181818;stroke-width:1.0;"/><line style="stroke:#181818;stroke-width:1.0;stroke-dasharray:2.0,2.0;" x1="663.75" x2="847.75" y1="434.7441" y2="434.7441"/><text fill="#000000" font-family="sans-serif" font-size="13" font-weight="bold" lengthAdjust="spacing" textLength="7" x="675.75" y="429.4814">8</text><text fill="#000000" font-family="sans-serif" font-size="13" lengthAdjust="spacing" textLength="64" x="686.75" y="429.4814">return false</text><polygon fill="#181818" points="388.75,462.0352,378.75,466.0352,388.75,470.0352,384.75,466.0352" style="stroke:#181818;stroke-width:1.0;"/><line style="stroke:#181818;stroke-width:1.0;stroke-dasharray:2.0,2.0;" x1="382.75" x2="647.75" y1="466.0352" y2="466.0352"/><text fill="#000000" font-family="sans-serif" font-size="13" font-weight="bold" lengthAdjust="spacing" textLength="7" x="394.75" y="460.7725">9</text><text fill="#000000" font-family="sans-serif" font-size="13" lengthAdjust="spacing" textLength="64" x="405.75" y="460.7725">return false</text><!--SRC=[bL9BQzj04BxlhnXoQGAMtLCe9WH2VIcKjZJDAUGmrexaXTMEkZFha7-VaIqSnNOE0I7syRrcPhziL7jPBXPznAIbY_EQkuNG_qAffie7R3DsJeD6WeVxhz-WWZi1X3_yJ1aUn7wFdE7ETo45qOpA-Ma6F-3Pz40PF66jOOjAnlAq3JNDG1XqWmh1Fe7443cr9bM4_1n-qPQoRYYIo6p0o8PBzB0cw5aah2sBAMDT6y3k1MfEJMYBkGTEWCd3pZJeYoctSuT5EPLkJTcv7hE6ElH3lelbwX1ljSlsdPDcZf7o1Q30s_QKEC1teFtIELVTJWXBQ4d_CdS_hI-hVxylhzoX4nFPJ0smrJiziqPVtuypM8qZ82lAiEwcgjwP3Eet-mHcSdiImXyLU7d0ZjEmrPLxOy1f4VFpd2FI7dF6S5Bts2cCDlTct0qlGCfkbas9yMKYuDq8gOv2PTAI4sWkTDAGwHr5eVTE63EX_un9WoRY9izuBE83tptSfkLU0G00]--></g></svg>