<?xml version="1.0" encoding="us-ascii" standalone="no"?><svg xmlns="http://www.w3.org/2000/svg" xmlns:xlink="http://www.w3.org/1999/xlink" contentStyleType="text/css" height="626px" preserveAspectRatio="none" style="width:1444px;height:626px;background:#FFFFFF;" version="1.1" viewBox="0 0 1444 626" width="1444px" zoomAndPan="magnify"><defs/><g><text fill="#000000" font-family="sans-serif" font-size="14" font-weight="bold" lengthAdjust="spacing" textLength="1256" x="93" y="30.1074">US08 - As a Power User [or Administrator], I want to deactivate a device, so that it is no longer used. Nevertheless, it should be possible to access its configuration and activity log.</text><rect fill="#FFFFFF" height="102.834" style="stroke:#181818;stroke-width:1.0;" width="10" x="331" y="88.2422"/><rect fill="#FFFFFF" height="278.6191" style="stroke:#181818;stroke-width:1.0;" width="10" x="600" y="253.6582"/><rect fill="#FFFFFF" height="72.582" style="stroke:#181818;stroke-width:1.0;" width="10" x="913.5" y="284.9492"/><rect fill="#FFFFFF" height="31.291" style="stroke:#181818;stroke-width:1.0;" width="10" x="913.5" y="469.6953"/><rect fill="#FFFFFF" height="57.582" style="stroke:#181818;stroke-width:1.0;" width="10" x="1018.5" y="380.8223"/><rect fill="none" height="50.582" style="stroke:#000000;stroke-width:1.5;" width="452" x="541" y="299.9492"/><rect fill="none" height="175.7461" style="stroke:#000000;stroke-width:1.5;" width="1061" x="3" y="395.8223"/><line style="stroke:#181818;stroke-width:0.5;stroke-dasharray:5.0,5.0;" x1="336" x2="336" y1="78.2422" y2="588.5684"/><line style="stroke:#181818;stroke-width:0.5;stroke-dasharray:5.0,5.0;" x1="605" x2="605" y1="78.2422" y2="588.5684"/><line style="stroke:#181818;stroke-width:0.5;stroke-dasharray:5.0,5.0;" x1="714" x2="714" y1="78.2422" y2="588.5684"/><line style="stroke:#181818;stroke-width:0.5;stroke-dasharray:5.0,5.0;" x1="807" x2="807" y1="78.2422" y2="588.5684"/><line style="stroke:#181818;stroke-width:0.5;stroke-dasharray:5.0,5.0;" x1="918" x2="918" y1="78.2422" y2="588.5684"/><line style="stroke:#181818;stroke-width:0.5;stroke-dasharray:5.0,5.0;" x1="1023" x2="1023" y1="78.2422" y2="588.5684"/><line style="stroke:#181818;stroke-width:0.5;stroke-dasharray:5.0,5.0;" x1="1251" x2="1251" y1="78.2422" y2="588.5684"/><rect fill="#E2E2F0" height="32.6211" rx="2.5" ry="2.5" style="stroke:#181818;stroke-width:0.5;" width="190" x="241" y="44.6211"/><text fill="#000000" font-family="sans-serif" font-size="14" lengthAdjust="spacing" textLength="176" x="248" y="66.7285">:DeactivateDeviceController</text><rect fill="#E2E2F0" height="32.6211" rx="2.5" ry="2.5" style="stroke:#181818;stroke-width:0.5;" width="190" x="241" y="587.5684"/><text fill="#000000" font-family="sans-serif" font-size="14" lengthAdjust="spacing" textLength="176" x="248" y="609.6758">:DeactivateDeviceController</text><rect fill="#E2E2F0" height="32.6211" rx="2.5" ry="2.5" style="stroke:#181818;stroke-width:0.5;" width="108" x="551" y="44.6211"/><text fill="#000000" font-family="sans-serif" font-size="14" lengthAdjust="spacing" textLength="94" x="558" y="66.7285">:DeviceService</text><rect fill="#E2E2F0" height="32.6211" rx="2.5" ry="2.5" style="stroke:#181818;stroke-width:0.5;" width="108" x="551" y="587.5684"/><text fill="#000000" font-family="sans-serif" font-size="14" lengthAdjust="spacing" textLength="94" x="558" y="609.6758">:DeviceService</text><rect fill="#E2E2F0" height="32.6211" rx="2.5" ry="2.5" style="stroke:#181818;stroke-width:0.5;" width="91" x="669" y="44.6211"/><text fill="#000000" font-family="sans-serif" font-size="14" lengthAdjust="spacing" textLength="77" x="676" y="66.7285">:DeviceDTO</text><rect fill="#E2E2F0" height="32.6211" rx="2.5" ry="2.5" style="stroke:#181818;stroke-width:0.5;" width="91" x="669" y="587.5684"/><text fill="#000000" font-family="sans-serif" font-size="14" lengthAdjust="spacing" textLength="77" x="676" y="609.6758">:DeviceDTO</text><rect fill="#E2E2F0" height="32.6211" rx="2.5" ry="2.5" style="stroke:#181818;stroke-width:0.5;" width="74" x="770" y="44.6211"/><text fill="#000000" font-family="sans-serif" font-size="14" lengthAdjust="spacing" textLength="60" x="777" y="66.7285">:DeviceID</text><rect fill="#E2E2F0" height="32.6211" rx="2.5" ry="2.5" style="stroke:#181818;stroke-width:0.5;" width="74" x="770" y="587.5684"/><text fill="#000000" font-family="sans-serif" font-size="14" lengthAdjust="spacing" textLength="60" x="777" y="609.6758">:DeviceID</text><rect fill="#E2E2F0" height="32.6211" rx="2.5" ry="2.5" style="stroke:#181818;stroke-width:0.5;" width="129" x="854" y="44.6211"/><text fill="#000000" font-family="sans-serif" font-size="14" lengthAdjust="spacing" textLength="115" x="861" y="66.7285">:DeviceRepository</text><rect fill="#E2E2F0" height="32.6211" rx="2.5" ry="2.5" style="stroke:#181818;stroke-width:0.5;" width="129" x="854" y="587.5684"/><text fill="#000000" font-family="sans-serif" font-size="14" lengthAdjust="spacing" textLength="115" x="861" y="609.6758">:DeviceRepository</text><rect fill="#E2E2F0" height="32.6211" rx="2.5" ry="2.5" style="stroke:#181818;stroke-width:0.5;" width="61" x="993" y="44.6211"/><text fill="#000000" font-family="sans-serif" font-size="14" lengthAdjust="spacing" textLength="47" x="1000" y="66.7285">:Device</text><rect fill="#E2E2F0" height="32.6211" rx="2.5" ry="2.5" style="stroke:#181818;stroke-width:0.5;" width="61" x="993" y="587.5684"/><text fill="#000000" font-family="sans-serif" font-size="14" lengthAdjust="spacing" textLength="47" x="1000" y="609.6758">:Device</text><rect fill="#E2E2F0" height="32.6211" rx="2.5" ry="2.5" style="stroke:#181818;stroke-width:0.5;" width="374" x="1064" y="44.6211"/><text fill="#000000" font-family="sans-serif" font-size="14" lengthAdjust="spacing" textLength="360" x="1071" y="66.7285">:devicesDTOAndDevices:HashMap&lt;DeviceDTO, Device&gt;</text><rect fill="#E2E2F0" height="32.6211" rx="2.5" ry="2.5" style="stroke:#181818;stroke-width:0.5;" width="374" x="1064" y="587.5684"/><text fill="#000000" font-family="sans-serif" font-size="14" lengthAdjust="spacing" textLength="360" x="1071" y="609.6758">:devicesDTOAndDevices:HashMap&lt;DeviceDTO, Device&gt;</text><rect fill="#FFFFFF" height="102.834" style="stroke:#181818;stroke-width:1.0;" width="10" x="331" y="88.2422"/><rect fill="#FFFFFF" height="278.6191" style="stroke:#181818;stroke-width:1.0;" width="10" x="600" y="253.6582"/><rect fill="#FFFFFF" height="72.582" style="stroke:#181818;stroke-width:1.0;" width="10" x="913.5" y="284.9492"/><rect fill="#FFFFFF" height="31.291" style="stroke:#181818;stroke-width:1.0;" width="10" x="913.5" y="469.6953"/><rect fill="#FFFFFF" height="57.582" style="stroke:#181818;stroke-width:1.0;" width="10" x="1018.5" y="380.8223"/><polygon fill="#181818" points="319,107.5332,329,111.5332,319,115.5332,323,111.5332" style="stroke:#181818;stroke-width:1.0;"/><line style="stroke:#181818;stroke-width:1.0;" x1="0" x2="325" y1="111.5332" y2="111.5332"/><text fill="#000000" font-family="sans-serif" font-size="13" font-weight="bold" lengthAdjust="spacing" textLength="7" x="7" y="106.2705">1</text><text fill="#000000" font-family="sans-serif" font-size="13" lengthAdjust="spacing" textLength="294" x="18" y="106.2705">getListOfDevicesDTOInRoom(RoomDTO roomDTO)</text><rect fill="none" height="43.252" style="stroke:#000000;stroke-width:1.5;" width="196" x="238" y="119.5332"/><path d="M238,119.5332 L300,119.5332 L300,128.5332 L290,138.5332 L238,138.5332 L238,119.5332 " fill="#EEEEEE" style="stroke:#000000;stroke-width:2.0;"/><text fill="#000000" font-family="sans-serif" font-size="13" font-weight="bold" lengthAdjust="spacing" textLength="17" x="251" y="135.5615">ref</text><text fill="#000000" font-family="sans-serif" font-size="12" lengthAdjust="spacing" textLength="135" x="268.5" y="155.4824">US06SequenceDiagram</text><polygon fill="#181818" points="11,187.0762,1,191.0762,11,195.0762,7,191.0762" style="stroke:#181818;stroke-width:1.0;"/><line style="stroke:#181818;stroke-width:1.0;stroke-dasharray:2.0,2.0;" x1="5" x2="335" y1="191.0762" y2="191.0762"/><text fill="#000000" font-family="sans-serif" font-size="13" font-weight="bold" lengthAdjust="spacing" textLength="7" x="17" y="185.8135">2</text><text fill="#000000" font-family="sans-serif" font-size="13" lengthAdjust="spacing" textLength="101" x="28" y="185.8135">List&lt;DeviceDTO&gt;</text><polygon fill="#181818" points="324,218.3672,334,222.3672,324,226.3672,328,222.3672" style="stroke:#181818;stroke-width:1.0;"/><line style="stroke:#181818;stroke-width:1.0;" x1="0" x2="330" y1="222.3672" y2="222.3672"/><text fill="#000000" font-family="sans-serif" font-size="13" font-weight="bold" lengthAdjust="spacing" textLength="7" x="7" y="217.1045">3</text><text fill="#000000" font-family="sans-serif" font-size="13" lengthAdjust="spacing" textLength="234" x="18" y="217.1045">deactivateDevice(DeviceDTO deviceDTO)</text><polygon fill="#181818" points="588,249.6582,598,253.6582,588,257.6582,592,253.6582" style="stroke:#181818;stroke-width:1.0;"/><line style="stroke:#181818;stroke-width:1.0;" x1="336" x2="594" y1="253.6582" y2="253.6582"/><text fill="#000000" font-family="sans-serif" font-size="13" font-weight="bold" lengthAdjust="spacing" textLength="7" x="343" y="248.3955">4</text><text fill="#000000" font-family="sans-serif" font-size="13" lengthAdjust="spacing" textLength="234" x="354" y="248.3955">deactivateDevice(DeviceDTO deviceDTO)</text><polygon fill="#181818" points="901.5,280.9492,911.5,284.9492,901.5,288.9492,905.5,284.9492" style="stroke:#181818;stroke-width:1.0;"/><line style="stroke:#181818;stroke-width:1.0;" x1="610" x2="907.5" y1="284.9492" y2="284.9492"/><text fill="#000000" font-family="sans-serif" font-size="13" font-weight="bold" lengthAdjust="spacing" textLength="7" x="617" y="279.6865">5</text><text fill="#000000" font-family="sans-serif" font-size="13" lengthAdjust="spacing" textLength="209" x="628" y="279.6865">containsEntityByID(device.identity())</text><path d="M541,299.9492 L602,299.9492 L602,309.2402 L592,319.2402 L541,319.2402 L541,299.9492 " fill="#EEEEEE" style="stroke:#000000;stroke-width:1.5;"/><rect fill="none" height="50.582" style="stroke:#000000;stroke-width:1.5;" width="452" x="541" y="299.9492"/><text fill="#000000" font-family="sans-serif" font-size="13" font-weight="bold" lengthAdjust="spacing" textLength="16" x="556" y="314.9775">alt</text><text fill="#000000" font-family="sans-serif" font-size="11" font-weight="bold" lengthAdjust="spacing" textLength="367" x="617" y="313.8193">[if a device with that deviceID (deviceName) doesn&#180;t already exists]</text><polygon fill="#181818" points="621,338.5313,611,342.5313,621,346.5313,617,342.5313" style="stroke:#181818;stroke-width:1.0;"/><line style="stroke:#181818;stroke-width:1.0;stroke-dasharray:2.0,2.0;" x1="615" x2="912.5" y1="342.5313" y2="342.5313"/><text fill="#000000" font-family="sans-serif" font-size="13" font-weight="bold" lengthAdjust="spacing" textLength="7" x="627" y="337.2686">6</text><text fill="#000000" font-family="sans-serif" font-size="13" lengthAdjust="spacing" textLength="22" x="638" y="337.2686">true</text><polygon fill="#181818" points="1006.5,376.8223,1016.5,380.8223,1006.5,384.8223,1010.5,380.8223" style="stroke:#181818;stroke-width:1.0;"/><line style="stroke:#181818;stroke-width:1.0;" x1="610" x2="1012.5" y1="380.8223" y2="380.8223"/><text fill="#000000" font-family="sans-serif" font-size="13" font-weight="bold" lengthAdjust="spacing" textLength="7" x="617" y="375.5596">7</text><text fill="#000000" font-family="sans-serif" font-size="13" lengthAdjust="spacing" textLength="66" x="628" y="375.5596">deactivate()</text><path d="M3,395.8223 L64,395.8223 L64,405.1133 L54,415.1133 L3,415.1133 L3,395.8223 " fill="#EEEEEE" style="stroke:#000000;stroke-width:1.5;"/><rect fill="none" height="175.7461" style="stroke:#000000;stroke-width:1.5;" width="1061" x="3" y="395.8223"/><text fill="#000000" font-family="sans-serif" font-size="13" font-weight="bold" lengthAdjust="spacing" textLength="16" x="18" y="410.8506">alt</text><text fill="#000000" font-family="sans-serif" font-size="11" font-weight="bold" lengthAdjust="spacing" textLength="206" x="79" y="409.6924">[if Device is successfully deactivated]</text><polygon fill="#181818" points="621,434.4043,611,438.4043,621,442.4043,617,438.4043" style="stroke:#181818;stroke-width:1.0;"/><line style="stroke:#181818;stroke-width:1.0;stroke-dasharray:2.0,2.0;" x1="615" x2="1022.5" y1="438.4043" y2="438.4043"/><text fill="#000000" font-family="sans-serif" font-size="13" font-weight="bold" lengthAdjust="spacing" textLength="7" x="627" y="433.1416">8</text><text fill="#000000" font-family="sans-serif" font-size="13" lengthAdjust="spacing" textLength="22" x="638" y="433.1416">true</text><polygon fill="#181818" points="901.5,465.6953,911.5,469.6953,901.5,473.6953,905.5,469.6953" style="stroke:#181818;stroke-width:1.0;"/><line style="stroke:#181818;stroke-width:1.0;" x1="610" x2="907.5" y1="469.6953" y2="469.6953"/><text fill="#000000" font-family="sans-serif" font-size="13" font-weight="bold" lengthAdjust="spacing" textLength="7" x="617" y="464.4326">9</text><text fill="#000000" font-family="sans-serif" font-size="13" lengthAdjust="spacing" textLength="167" x="628" y="464.4326">updateOrSave(Device device)</text><polygon fill="#181818" points="621,496.9863,611,500.9863,621,504.9863,617,500.9863" style="stroke:#181818;stroke-width:1.0;"/><line style="stroke:#181818;stroke-width:1.0;stroke-dasharray:2.0,2.0;" x1="615" x2="917.5" y1="500.9863" y2="500.9863"/><text fill="#000000" font-family="sans-serif" font-size="13" font-weight="bold" lengthAdjust="spacing" textLength="14" x="627" y="495.7236">10</text><text fill="#000000" font-family="sans-serif" font-size="13" lengthAdjust="spacing" textLength="38" x="645" y="495.7236">Device</text><polygon fill="#181818" points="347,528.2773,337,532.2773,347,536.2773,343,532.2773" style="stroke:#181818;stroke-width:1.0;"/><line style="stroke:#181818;stroke-width:1.0;stroke-dasharray:2.0,2.0;" x1="341" x2="604" y1="532.2773" y2="532.2773"/><text fill="#000000" font-family="sans-serif" font-size="13" font-weight="bold" lengthAdjust="spacing" textLength="14" x="353" y="527.0146">11</text><text fill="#000000" font-family="sans-serif" font-size="13" lengthAdjust="spacing" textLength="59" x="371" y="527.0146">return true</text><polygon fill="#181818" points="11,559.5684,1,563.5684,11,567.5684,7,563.5684" style="stroke:#181818;stroke-width:1.0;"/><line style="stroke:#181818;stroke-width:1.0;stroke-dasharray:2.0,2.0;" x1="5" x2="335" y1="563.5684" y2="563.5684"/><text fill="#000000" font-family="sans-serif" font-size="13" font-weight="bold" lengthAdjust="spacing" textLength="14" x="17" y="558.3057">12</text><text fill="#000000" font-family="sans-serif" font-size="13" lengthAdjust="spacing" textLength="59" x="35" y="558.3057">return true</text><!--SRC=[ZLJHRfim57ttLrprfQcKf7kQfgYgn09jaTem1TgNQGyklaaiWSriaox_jI_Obys0Irp8eaaHmN3kyRd7vtAvCwRIY-lhgg32r6KnpsLvhV5dZIB76UDqgsX933S5mdFwwGlC8D10uPjyGmNFsbw-ImK1AxdWsYXgfFenXHZUB1yO2GnfRlYU6hHL3FSynobe2MP73N3xqo0a559iBLMjaSrXXNjKPeS5QZrjC7edwuB1Aq8bjUQlLejbfdbk0VQzXboA3T_MTdSk1L31eDsKcuDbtiu9hOqKTVcAYf2AAiDpNZNwBXPXBozijIsbC4eM1QeBe1gEor5TWqvHDNyjL7Vt9t5XbhIOVdKI5OSUA0vFOjPeBU3Mv8E7FJuyMUCX1- -xyz1MK21OXz2B1wftJxIwwSLENV5jIrJIod4HSfb6oonELd2NhE4-oh9uTG_PGmIFSPf1SWVh97bA8LY5_PCmUecNKGhn2fOFIP96gnP4-fHubizklTK2jcWURSQIJTZBZiLQodBINEmALFT_HHHkGDeK-MmslfzJb-pG1HjjL2oMtCnc7xPgzZaQS4ky57kCv3AodJaFXdQ4KM0NBq4MGU2w7ZR41k6Rz3kwIMbx8SSIi0GkP_zRtUj-poSXxguX6-PdqOoIeLpeIDYXFtmznE6aOvjpXkspoPN7EWeWBUnCR_fPXpTkTjsmCvThS8GhMk8LC8bQ_FbjW1OAAJi0_hBUQp8aXfdVkr4rDeVd7yn8ohXHtxJ9g0loBhvRDfycNRSVcKrT50UlbZbv9qID19stkwwOXIOgfVlt0tH6dJFvl3bkttFMz9e6YLHeQYL6dVJP6Sx9F_3-Z3Idz1S0]--></g></svg>