<?xml version="1.0" encoding="us-ascii" standalone="no"?><svg xmlns="http://www.w3.org/2000/svg" xmlns:xlink="http://www.w3.org/1999/xlink" contentStyleType="text/css" height="741px" preserveAspectRatio="none" style="width:1279px;height:741px;background:#DDDDDD;" version="1.1" viewBox="0 0 1279 741" width="1279px" zoomAndPan="magnify"><defs/><g><rect fill="#DDDDDD" height="741" style="stroke:none;stroke-width:1.0;" width="1279" x="0" y="0"/><text fill="#000000" font-family="sans-serif" font-size="14" font-weight="bold" lengthAdjust="spacing" textLength="1251" x="10" y="25.1074">US08: As a Power User [or Administrator], I want to deactivate a device, so that it is no longer used. Nevertheless, it should be possible to access its configuration and activity log.</text><!--class DeactivateDeviceController--><g id="elem_DeactivateDeviceController"><rect codeLine="4" fill="#F1F1F1" height="122.4844" id="DeactivateDeviceController" rx="3.5" ry="3.5" style="stroke:#181818;stroke-width:0.5;" width="378" x="440.75" y="247.6211"/><ellipse cx="539.5" cy="263.6211" fill="#ADD1B2" rx="11" ry="11" style="stroke:#181818;stroke-width:1.0;"/><path d="M542.2656,259.4961 Q542.4219,259.2773 542.6094,259.168 Q542.7969,259.0586 543.0156,259.0586 Q543.3906,259.0586 543.625,259.3242 Q543.8594,259.5742 543.8594,260.1836 L543.8594,261.6367 Q543.8594,262.2461 543.625,262.5117 Q543.3906,262.7773 543.0156,262.7773 Q542.6719,262.7773 542.4688,262.5742 Q542.2656,262.3867 542.1563,261.8711 Q542.1094,261.5117 541.9219,261.3242 Q541.5938,260.9492 540.9844,260.7305 Q540.375,260.5117 539.75,260.5117 Q538.9844,260.5117 538.3438,260.8398 Q537.7188,261.168 537.2188,261.918 Q536.7344,262.668 536.7344,263.6992 L536.7344,264.793 Q536.7344,266.0273 537.625,266.8555 Q538.5156,267.668 540.1094,267.668 Q541.0469,267.668 541.7031,267.418 Q542.0938,267.2617 542.5156,266.8242 Q542.7813,266.5586 542.9219,266.4805 Q543.0781,266.4023 543.2813,266.4023 Q543.6094,266.4023 543.8594,266.668 Q544.125,266.918 544.125,267.2617 Q544.125,267.6055 543.7813,268.0117 Q543.2813,268.5898 542.4844,268.918 Q541.4063,269.3711 540.1094,269.3711 Q538.5938,269.3711 537.3906,268.7461 Q536.4063,268.2461 535.7188,267.1836 Q535.0313,266.1055 535.0313,264.8242 L535.0313,263.668 Q535.0313,262.3398 535.6406,261.1992 Q536.2656,260.043 537.3594,259.4336 Q538.4531,258.8086 539.6875,258.8086 Q540.4219,258.8086 541.0625,258.9805 Q541.7188,259.1367 542.2656,259.4961 Z " fill="#000000"/><text fill="#000000" font-family="sans-serif" font-size="14" lengthAdjust="spacing" textLength="172" x="560" y="269.418">DeactivateDeviceController</text><line style="stroke:#181818;stroke-width:0.5;" x1="441.75" x2="817.75" y1="279.6211" y2="279.6211"/><rect fill="none" height="6" style="stroke:#C82930;stroke-width:1.0;" width="6" x="448.75" y="291.4316"/><text fill="#000000" font-family="sans-serif" font-size="14" lengthAdjust="spacing" textLength="87" x="460.75" y="298.7285">house: House</text><line style="stroke:#181818;stroke-width:0.5;" x1="441.75" x2="817.75" y1="306.2422" y2="306.2422"/><ellipse cx="451.75" cy="321.0527" fill="#84BE84" rx="3" ry="3" style="stroke:#038048;stroke-width:1.0;"/><text fill="#000000" font-family="sans-serif" font-size="14" lengthAdjust="spacing" textLength="232" x="460.75" y="325.3496">getRoomListDTO(): List&lt;RoomDTO&gt;</text><ellipse cx="451.75" cy="339.6738" fill="#84BE84" rx="3" ry="3" style="stroke:#038048;stroke-width:1.0;"/><text fill="#000000" font-family="sans-serif" font-size="14" lengthAdjust="spacing" textLength="352" x="460.75" y="343.9707">getDeviceList(RoomDTO RoomDTO): List&lt;DeviceDTO&gt;</text><ellipse cx="451.75" cy="358.2949" fill="#84BE84" rx="3" ry="3" style="stroke:#038048;stroke-width:1.0;"/><text fill="#000000" font-family="sans-serif" font-size="14" lengthAdjust="spacing" textLength="325" x="460.75" y="362.5918">deactivateDevice(DeviceDTO deviceDTO): boolean</text></g><!--class RoomDTO--><g id="elem_RoomDTO"><rect codeLine="11" fill="#F1F1F1" height="159.7266" id="RoomDTO" rx="3.5" ry="3.5" style="stroke:#181818;stroke-width:0.5;" width="139" x="337.25" y="574.6211"/><ellipse cx="370.25" cy="590.6211" fill="#ADD1B2" rx="11" ry="11" style="stroke:#181818;stroke-width:1.0;"/><path d="M373.0156,586.4961 Q373.1719,586.2773 373.3594,586.168 Q373.5469,586.0586 373.7656,586.0586 Q374.1406,586.0586 374.375,586.3242 Q374.6094,586.5742 374.6094,587.1836 L374.6094,588.6367 Q374.6094,589.2461 374.375,589.5117 Q374.1406,589.7773 373.7656,589.7773 Q373.4219,589.7773 373.2188,589.5742 Q373.0156,589.3867 372.9063,588.8711 Q372.8594,588.5117 372.6719,588.3242 Q372.3438,587.9492 371.7344,587.7305 Q371.125,587.5117 370.5,587.5117 Q369.7344,587.5117 369.0938,587.8398 Q368.4688,588.168 367.9688,588.918 Q367.4844,589.668 367.4844,590.6992 L367.4844,591.793 Q367.4844,593.0273 368.375,593.8555 Q369.2656,594.668 370.8594,594.668 Q371.7969,594.668 372.4531,594.418 Q372.8438,594.2617 373.2656,593.8242 Q373.5313,593.5586 373.6719,593.4805 Q373.8281,593.4023 374.0313,593.4023 Q374.3594,593.4023 374.6094,593.668 Q374.875,593.918 374.875,594.2617 Q374.875,594.6055 374.5313,595.0117 Q374.0313,595.5898 373.2344,595.918 Q372.1563,596.3711 370.8594,596.3711 Q369.3438,596.3711 368.1406,595.7461 Q367.1563,595.2461 366.4688,594.1836 Q365.7813,593.1055 365.7813,591.8242 L365.7813,590.668 Q365.7813,589.3398 366.3906,588.1992 Q367.0156,587.043 368.1094,586.4336 Q369.2031,585.8086 370.4375,585.8086 Q371.1719,585.8086 371.8125,585.9805 Q372.4688,586.1367 373.0156,586.4961 Z " fill="#000000"/><text fill="#000000" font-family="sans-serif" font-size="14" lengthAdjust="spacing" textLength="67" x="388.25" y="596.418">RoomDTO</text><line style="stroke:#181818;stroke-width:0.5;" x1="338.25" x2="475.25" y1="606.6211" y2="606.6211"/><rect fill="none" height="6" style="stroke:#C82930;stroke-width:1.0;" width="6" x="345.25" y="618.4316"/><text fill="#000000" font-family="sans-serif" font-size="14" lengthAdjust="spacing" textLength="113" x="357.25" y="625.7285">roomName: String</text><rect fill="none" height="6" style="stroke:#C82930;stroke-width:1.0;" width="6" x="345.25" y="637.0527"/><text fill="#000000" font-family="sans-serif" font-size="14" lengthAdjust="spacing" textLength="51" x="357.25" y="644.3496">floor: int</text><rect fill="none" height="6" style="stroke:#C82930;stroke-width:1.0;" width="6" x="345.25" y="655.6738"/><text fill="#000000" font-family="sans-serif" font-size="14" lengthAdjust="spacing" textLength="90" x="357.25" y="662.9707">length: double</text><rect fill="none" height="6" style="stroke:#C82930;stroke-width:1.0;" width="6" x="345.25" y="674.2949"/><text fill="#000000" font-family="sans-serif" font-size="14" lengthAdjust="spacing" textLength="83" x="357.25" y="681.5918">width: double</text><rect fill="none" height="6" style="stroke:#C82930;stroke-width:1.0;" width="6" x="345.25" y="692.916"/><text fill="#000000" font-family="sans-serif" font-size="14" lengthAdjust="spacing" textLength="90" x="357.25" y="700.2129">height: double</text><line style="stroke:#181818;stroke-width:0.5;" x1="338.25" x2="475.25" y1="707.7266" y2="707.7266"/><ellipse cx="348.25" cy="722.5371" fill="#84BE84" rx="3" ry="3" style="stroke:#038048;stroke-width:1.0;"/><text fill="#000000" font-family="sans-serif" font-size="14" lengthAdjust="spacing" textLength="111" x="357.25" y="726.834">getName(): String</text></g><!--class RoomMapper--><g id="elem_RoomMapper"><rect codeLine="20" fill="#F1F1F1" height="85.2422" id="RoomMapper" rx="3.5" ry="3.5" style="stroke:#181818;stroke-width:0.5;" width="385" x="214.25" y="429.6211"/><ellipse cx="360" cy="445.6211" fill="#ADD1B2" rx="11" ry="11" style="stroke:#181818;stroke-width:1.0;"/><path d="M362.7656,441.4961 Q362.9219,441.2773 363.1094,441.168 Q363.2969,441.0586 363.5156,441.0586 Q363.8906,441.0586 364.125,441.3242 Q364.3594,441.5742 364.3594,442.1836 L364.3594,443.6367 Q364.3594,444.2461 364.125,444.5117 Q363.8906,444.7773 363.5156,444.7773 Q363.1719,444.7773 362.9688,444.5742 Q362.7656,444.3867 362.6563,443.8711 Q362.6094,443.5117 362.4219,443.3242 Q362.0938,442.9492 361.4844,442.7305 Q360.875,442.5117 360.25,442.5117 Q359.4844,442.5117 358.8438,442.8398 Q358.2188,443.168 357.7188,443.918 Q357.2344,444.668 357.2344,445.6992 L357.2344,446.793 Q357.2344,448.0273 358.125,448.8555 Q359.0156,449.668 360.6094,449.668 Q361.5469,449.668 362.2031,449.418 Q362.5938,449.2617 363.0156,448.8242 Q363.2813,448.5586 363.4219,448.4805 Q363.5781,448.4023 363.7813,448.4023 Q364.1094,448.4023 364.3594,448.668 Q364.625,448.918 364.625,449.2617 Q364.625,449.6055 364.2813,450.0117 Q363.7813,450.5898 362.9844,450.918 Q361.9063,451.3711 360.6094,451.3711 Q359.0938,451.3711 357.8906,450.7461 Q356.9063,450.2461 356.2188,449.1836 Q355.5313,448.1055 355.5313,446.8242 L355.5313,445.668 Q355.5313,444.3398 356.1406,443.1992 Q356.7656,442.043 357.8594,441.4336 Q358.9531,440.8086 360.1875,440.8086 Q360.9219,440.8086 361.5625,440.9805 Q362.2188,441.1367 362.7656,441.4961 Z " fill="#000000"/><text fill="#000000" font-family="sans-serif" font-size="14" lengthAdjust="spacing" textLength="85" x="380.5" y="451.418">RoomMapper</text><line style="stroke:#181818;stroke-width:0.5;" x1="215.25" x2="598.25" y1="461.6211" y2="461.6211"/><line style="stroke:#181818;stroke-width:0.5;" x1="215.25" x2="598.25" y1="469.6211" y2="469.6211"/><ellipse cx="225.25" cy="484.4316" fill="#84BE84" rx="3" ry="3" style="stroke:#038048;stroke-width:1.0;"/><text fill="#000000" font-family="sans-serif" font-size="14" lengthAdjust="spacing" textLength="237" x="234.25" y="488.7285">roomToDTO(Room room): RoomDTO</text><ellipse cx="225.25" cy="503.0527" fill="#84BE84" rx="3" ry="3" style="stroke:#038048;stroke-width:1.0;"/><text fill="#000000" font-family="sans-serif" font-size="14" lengthAdjust="spacing" textLength="359" x="234.25" y="507.3496">roomToDTO(Roomlist roomlist): Map&lt;RoomDTO, Room&gt;</text></g><!--class DeviceDTO--><g id="elem_DeviceDTO"><rect codeLine="26" fill="#F1F1F1" height="85.2422" id="DeviceDTO" rx="3.5" ry="3.5" style="stroke:#181818;stroke-width:0.5;" width="180" x="762.75" y="612.1211"/><ellipse cx="812" cy="628.1211" fill="#ADD1B2" rx="11" ry="11" style="stroke:#181818;stroke-width:1.0;"/><path d="M814.7656,623.9961 Q814.9219,623.7773 815.1094,623.668 Q815.2969,623.5586 815.5156,623.5586 Q815.8906,623.5586 816.125,623.8242 Q816.3594,624.0742 816.3594,624.6836 L816.3594,626.1367 Q816.3594,626.7461 816.125,627.0117 Q815.8906,627.2773 815.5156,627.2773 Q815.1719,627.2773 814.9688,627.0742 Q814.7656,626.8867 814.6563,626.3711 Q814.6094,626.0117 814.4219,625.8242 Q814.0938,625.4492 813.4844,625.2305 Q812.875,625.0117 812.25,625.0117 Q811.4844,625.0117 810.8438,625.3398 Q810.2188,625.668 809.7188,626.418 Q809.2344,627.168 809.2344,628.1992 L809.2344,629.293 Q809.2344,630.5273 810.125,631.3555 Q811.0156,632.168 812.6094,632.168 Q813.5469,632.168 814.2031,631.918 Q814.5938,631.7617 815.0156,631.3242 Q815.2813,631.0586 815.4219,630.9805 Q815.5781,630.9023 815.7813,630.9023 Q816.1094,630.9023 816.3594,631.168 Q816.625,631.418 816.625,631.7617 Q816.625,632.1055 816.2813,632.5117 Q815.7813,633.0898 814.9844,633.418 Q813.9063,633.8711 812.6094,633.8711 Q811.0938,633.8711 809.8906,633.2461 Q808.9063,632.7461 808.2188,631.6836 Q807.5313,630.6055 807.5313,629.3242 L807.5313,628.168 Q807.5313,626.8398 808.1406,625.6992 Q808.7656,624.543 809.8594,623.9336 Q810.9531,623.3086 812.1875,623.3086 Q812.9219,623.3086 813.5625,623.4805 Q814.2188,623.6367 814.7656,623.9961 Z " fill="#000000"/><text fill="#000000" font-family="sans-serif" font-size="14" lengthAdjust="spacing" textLength="73" x="832.5" y="633.918">DeviceDTO</text><line style="stroke:#181818;stroke-width:0.5;" x1="763.75" x2="941.75" y1="644.1211" y2="644.1211"/><rect fill="none" height="6" style="stroke:#C82930;stroke-width:1.0;" width="6" x="770.75" y="655.9316"/><text fill="#000000" font-family="sans-serif" font-size="14" lengthAdjust="spacing" textLength="122" x="782.75" y="663.2285">deviceName: String</text><line style="stroke:#181818;stroke-width:0.5;" x1="763.75" x2="941.75" y1="670.7422" y2="670.7422"/><ellipse cx="773.75" cy="685.5527" fill="#84BE84" rx="3" ry="3" style="stroke:#038048;stroke-width:1.0;"/><text fill="#000000" font-family="sans-serif" font-size="14" lengthAdjust="spacing" textLength="154" x="782.75" y="689.8496">getDeviceName(): String</text></g><!--class DeviceMapper--><g id="elem_DeviceMapper"><rect codeLine="31" fill="#F1F1F1" height="85.2422" id="DeviceMapper" rx="3.5" ry="3.5" style="stroke:#181818;stroke-width:0.5;" width="436" x="634.75" y="429.6211"/><ellipse cx="803" cy="445.6211" fill="#ADD1B2" rx="11" ry="11" style="stroke:#181818;stroke-width:1.0;"/><path d="M805.7656,441.4961 Q805.9219,441.2773 806.1094,441.168 Q806.2969,441.0586 806.5156,441.0586 Q806.8906,441.0586 807.125,441.3242 Q807.3594,441.5742 807.3594,442.1836 L807.3594,443.6367 Q807.3594,444.2461 807.125,444.5117 Q806.8906,444.7773 806.5156,444.7773 Q806.1719,444.7773 805.9688,444.5742 Q805.7656,444.3867 805.6563,443.8711 Q805.6094,443.5117 805.4219,443.3242 Q805.0938,442.9492 804.4844,442.7305 Q803.875,442.5117 803.25,442.5117 Q802.4844,442.5117 801.8438,442.8398 Q801.2188,443.168 800.7188,443.918 Q800.2344,444.668 800.2344,445.6992 L800.2344,446.793 Q800.2344,448.0273 801.125,448.8555 Q802.0156,449.668 803.6094,449.668 Q804.5469,449.668 805.2031,449.418 Q805.5938,449.2617 806.0156,448.8242 Q806.2813,448.5586 806.4219,448.4805 Q806.5781,448.4023 806.7813,448.4023 Q807.1094,448.4023 807.3594,448.668 Q807.625,448.918 807.625,449.2617 Q807.625,449.6055 807.2813,450.0117 Q806.7813,450.5898 805.9844,450.918 Q804.9063,451.3711 803.6094,451.3711 Q802.0938,451.3711 800.8906,450.7461 Q799.9063,450.2461 799.2188,449.1836 Q798.5313,448.1055 798.5313,446.8242 L798.5313,445.668 Q798.5313,444.3398 799.1406,443.1992 Q799.7656,442.043 800.8594,441.4336 Q801.9531,440.8086 803.1875,440.8086 Q803.9219,440.8086 804.5625,440.9805 Q805.2188,441.1367 805.7656,441.4961 Z " fill="#000000"/><text fill="#000000" font-family="sans-serif" font-size="14" lengthAdjust="spacing" textLength="91" x="823.5" y="451.418">DeviceMapper</text><line style="stroke:#181818;stroke-width:0.5;" x1="635.75" x2="1069.75" y1="461.6211" y2="461.6211"/><line style="stroke:#181818;stroke-width:0.5;" x1="635.75" x2="1069.75" y1="469.6211" y2="469.6211"/><ellipse cx="645.75" cy="484.4316" fill="#84BE84" rx="3" ry="3" style="stroke:#038048;stroke-width:1.0;"/><text fill="#000000" font-family="sans-serif" font-size="14" lengthAdjust="spacing" textLength="267" x="654.75" y="488.7285">deviceToDTO(Device device): DeviceDTO</text><ellipse cx="645.75" cy="503.0527" fill="#84BE84" rx="3" ry="3" style="stroke:#038048;stroke-width:1.0;"/><text fill="#000000" font-family="sans-serif" font-size="14" lengthAdjust="spacing" textLength="410" x="654.75" y="507.3496">deviceDTOList(DeviceList deviceList): Map&lt;DeviceDTO, Device&gt;</text></g><!--class House--><g id="elem_House"><rect codeLine="36" fill="#F1F1F1" height="103.8633" id="House" rx="3.5" ry="3.5" style="stroke:#181818;stroke-width:0.5;" width="182" x="382.75" y="65.1211"/><ellipse cx="449.5" cy="81.1211" fill="#ADD1B2" rx="11" ry="11" style="stroke:#181818;stroke-width:1.0;"/><path d="M452.2656,76.9961 Q452.4219,76.7773 452.6094,76.668 Q452.7969,76.5586 453.0156,76.5586 Q453.3906,76.5586 453.625,76.8242 Q453.8594,77.0742 453.8594,77.6836 L453.8594,79.1367 Q453.8594,79.7461 453.625,80.0117 Q453.3906,80.2773 453.0156,80.2773 Q452.6719,80.2773 452.4688,80.0742 Q452.2656,79.8867 452.1563,79.3711 Q452.1094,79.0117 451.9219,78.8242 Q451.5938,78.4492 450.9844,78.2305 Q450.375,78.0117 449.75,78.0117 Q448.9844,78.0117 448.3438,78.3398 Q447.7188,78.668 447.2188,79.418 Q446.7344,80.168 446.7344,81.1992 L446.7344,82.293 Q446.7344,83.5273 447.625,84.3555 Q448.5156,85.168 450.1094,85.168 Q451.0469,85.168 451.7031,84.918 Q452.0938,84.7617 452.5156,84.3242 Q452.7813,84.0586 452.9219,83.9805 Q453.0781,83.9023 453.2813,83.9023 Q453.6094,83.9023 453.8594,84.168 Q454.125,84.418 454.125,84.7617 Q454.125,85.1055 453.7813,85.5117 Q453.2813,86.0898 452.4844,86.418 Q451.4063,86.8711 450.1094,86.8711 Q448.5938,86.8711 447.3906,86.2461 Q446.4063,85.7461 445.7188,84.6836 Q445.0313,83.6055 445.0313,82.3242 L445.0313,81.168 Q445.0313,79.8398 445.6406,78.6992 Q446.2656,77.543 447.3594,76.9336 Q448.4531,76.3086 449.6875,76.3086 Q450.4219,76.3086 451.0625,76.4805 Q451.7188,76.6367 452.2656,76.9961 Z " fill="#000000"/><text fill="#000000" font-family="sans-serif" font-size="14" lengthAdjust="spacing" textLength="40" x="470" y="86.918">House</text><line style="stroke:#181818;stroke-width:0.5;" x1="383.75" x2="563.75" y1="97.1211" y2="97.1211"/><rect fill="none" height="6" style="stroke:#C82930;stroke-width:1.0;" width="6" x="390.75" y="108.9316"/><text fill="#000000" font-family="sans-serif" font-size="14" lengthAdjust="spacing" textLength="111" x="402.75" y="116.2285">location: Location</text><rect fill="none" height="6" style="stroke:#C82930;stroke-width:1.0;" width="6" x="390.75" y="127.5527"/><text fill="#000000" font-family="sans-serif" font-size="14" lengthAdjust="spacing" textLength="121" x="402.75" y="134.8496">roomList: RoomList</text><line style="stroke:#181818;stroke-width:0.5;" x1="383.75" x2="563.75" y1="142.3633" y2="142.3633"/><ellipse cx="393.75" cy="157.1738" fill="#84BE84" rx="3" ry="3" style="stroke:#038048;stroke-width:1.0;"/><text fill="#000000" font-family="sans-serif" font-size="14" lengthAdjust="spacing" textLength="156" x="402.75" y="161.4707">getRoomList(): RoomList</text></g><!--class Room--><g id="elem_Room"><rect codeLine="42" fill="#F1F1F1" height="141.1055" id="Room" rx="3.5" ry="3.5" style="stroke:#181818;stroke-width:0.5;" width="194" x="599.75" y="46.6211"/><ellipse cx="674" cy="62.6211" fill="#ADD1B2" rx="11" ry="11" style="stroke:#181818;stroke-width:1.0;"/><path d="M676.7656,58.4961 Q676.9219,58.2773 677.1094,58.168 Q677.2969,58.0586 677.5156,58.0586 Q677.8906,58.0586 678.125,58.3242 Q678.3594,58.5742 678.3594,59.1836 L678.3594,60.6367 Q678.3594,61.2461 678.125,61.5117 Q677.8906,61.7773 677.5156,61.7773 Q677.1719,61.7773 676.9688,61.5742 Q676.7656,61.3867 676.6563,60.8711 Q676.6094,60.5117 676.4219,60.3242 Q676.0938,59.9492 675.4844,59.7305 Q674.875,59.5117 674.25,59.5117 Q673.4844,59.5117 672.8438,59.8398 Q672.2188,60.168 671.7188,60.918 Q671.2344,61.668 671.2344,62.6992 L671.2344,63.793 Q671.2344,65.0273 672.125,65.8555 Q673.0156,66.668 674.6094,66.668 Q675.5469,66.668 676.2031,66.418 Q676.5938,66.2617 677.0156,65.8242 Q677.2813,65.5586 677.4219,65.4805 Q677.5781,65.4023 677.7813,65.4023 Q678.1094,65.4023 678.3594,65.668 Q678.625,65.918 678.625,66.2617 Q678.625,66.6055 678.2813,67.0117 Q677.7813,67.5898 676.9844,67.918 Q675.9063,68.3711 674.6094,68.3711 Q673.0938,68.3711 671.8906,67.7461 Q670.9063,67.2461 670.2188,66.1836 Q669.5313,65.1055 669.5313,63.8242 L669.5313,62.668 Q669.5313,61.3398 670.1406,60.1992 Q670.7656,59.043 671.8594,58.4336 Q672.9531,57.8086 674.1875,57.8086 Q674.9219,57.8086 675.5625,57.9805 Q676.2188,58.1367 676.7656,58.4961 Z " fill="#000000"/><text fill="#000000" font-family="sans-serif" font-size="14" lengthAdjust="spacing" textLength="37" x="694.5" y="68.418">Room</text><line style="stroke:#181818;stroke-width:0.5;" x1="600.75" x2="792.75" y1="78.6211" y2="78.6211"/><rect fill="none" height="6" style="stroke:#C82930;stroke-width:1.0;" width="6" x="607.75" y="90.4316"/><text fill="#000000" font-family="sans-serif" font-size="14" lengthAdjust="spacing" textLength="113" x="619.75" y="97.7285">roomName: String</text><rect fill="none" height="6" style="stroke:#C82930;stroke-width:1.0;" width="6" x="607.75" y="109.0527"/><text fill="#000000" font-family="sans-serif" font-size="14" lengthAdjust="spacing" textLength="100" x="619.75" y="116.3496">floorNumber: int</text><rect fill="none" height="6" style="stroke:#C82930;stroke-width:1.0;" width="6" x="607.75" y="127.6738"/><text fill="#000000" font-family="sans-serif" font-size="14" lengthAdjust="spacing" textLength="152" x="619.75" y="134.9707">dimensions: Dimensions</text><rect fill="none" height="6" style="stroke:#C82930;stroke-width:1.0;" width="6" x="607.75" y="146.2949"/><text fill="#000000" font-family="sans-serif" font-size="14" lengthAdjust="spacing" textLength="136" x="619.75" y="153.5918">deviceList: DeviceList</text><line style="stroke:#181818;stroke-width:0.5;" x1="600.75" x2="792.75" y1="161.1055" y2="161.1055"/><ellipse cx="610.75" cy="175.916" fill="#84BE84" rx="3" ry="3" style="stroke:#038048;stroke-width:1.0;"/><text fill="#000000" font-family="sans-serif" font-size="14" lengthAdjust="spacing" textLength="168" x="619.75" y="180.2129">getDeviceList(): DeviceList</text></g><!--class Device--><g id="elem_Device"><rect codeLine="50" fill="#F1F1F1" height="122.4844" id="Device" rx="3.5" ry="3.5" style="stroke:#181818;stroke-width:0.5;" width="203" x="854.25" y="247.6211"/><ellipse cx="930" cy="263.6211" fill="#ADD1B2" rx="11" ry="11" style="stroke:#181818;stroke-width:1.0;"/><path d="M932.7656,259.4961 Q932.9219,259.2773 933.1094,259.168 Q933.2969,259.0586 933.5156,259.0586 Q933.8906,259.0586 934.125,259.3242 Q934.3594,259.5742 934.3594,260.1836 L934.3594,261.6367 Q934.3594,262.2461 934.125,262.5117 Q933.8906,262.7773 933.5156,262.7773 Q933.1719,262.7773 932.9688,262.5742 Q932.7656,262.3867 932.6563,261.8711 Q932.6094,261.5117 932.4219,261.3242 Q932.0938,260.9492 931.4844,260.7305 Q930.875,260.5117 930.25,260.5117 Q929.4844,260.5117 928.8438,260.8398 Q928.2188,261.168 927.7188,261.918 Q927.2344,262.668 927.2344,263.6992 L927.2344,264.793 Q927.2344,266.0273 928.125,266.8555 Q929.0156,267.668 930.6094,267.668 Q931.5469,267.668 932.2031,267.418 Q932.5938,267.2617 933.0156,266.8242 Q933.2813,266.5586 933.4219,266.4805 Q933.5781,266.4023 933.7813,266.4023 Q934.1094,266.4023 934.3594,266.668 Q934.625,266.918 934.625,267.2617 Q934.625,267.6055 934.2813,268.0117 Q933.7813,268.5898 932.9844,268.918 Q931.9063,269.3711 930.6094,269.3711 Q929.0938,269.3711 927.8906,268.7461 Q926.9063,268.2461 926.2188,267.1836 Q925.5313,266.1055 925.5313,264.8242 L925.5313,263.668 Q925.5313,262.3398 926.1406,261.1992 Q926.7656,260.043 927.8594,259.4336 Q928.9531,258.8086 930.1875,258.8086 Q930.9219,258.8086 931.5625,258.9805 Q932.2188,259.1367 932.7656,259.4961 Z " fill="#000000"/><text fill="#000000" font-family="sans-serif" font-size="14" lengthAdjust="spacing" textLength="43" x="950.5" y="269.418">Device</text><line style="stroke:#181818;stroke-width:0.5;" x1="855.25" x2="1056.25" y1="279.6211" y2="279.6211"/><rect fill="none" height="6" style="stroke:#C82930;stroke-width:1.0;" width="6" x="862.25" y="291.4316"/><text fill="#000000" font-family="sans-serif" font-size="14" lengthAdjust="spacing" textLength="122" x="874.25" y="298.7285">deviceName: String</text><rect fill="none" height="6" style="stroke:#C82930;stroke-width:1.0;" width="6" x="862.25" y="310.0527"/><text fill="#000000" font-family="sans-serif" font-size="14" lengthAdjust="spacing" textLength="156" x="874.25" y="317.3496">sensorList: List&lt;Sensor&gt;</text><rect fill="none" height="6" style="stroke:#C82930;stroke-width:1.0;" width="6" x="862.25" y="328.6738"/><text fill="#000000" font-family="sans-serif" font-size="14" lengthAdjust="spacing" textLength="86" x="874.25" y="335.9707">status: Status</text><line style="stroke:#181818;stroke-width:0.5;" x1="855.25" x2="1056.25" y1="343.4844" y2="343.4844"/><ellipse cx="865.25" cy="358.2949" fill="#84BE84" rx="3" ry="3" style="stroke:#038048;stroke-width:1.0;"/><text fill="#000000" font-family="sans-serif" font-size="14" lengthAdjust="spacing" textLength="177" x="874.25" y="362.5918">deactivateDevice(): boolean</text></g><!--class Status--><g id="elem_Status"><rect codeLine="57" fill="#F1F1F1" height="85.2422" id="Status" rx="3.5" ry="3.5" style="stroke:#181818;stroke-width:0.5;" width="122" x="894.75" y="74.6211"/><ellipse cx="932.25" cy="90.6211" fill="#EB937F" rx="11" ry="11" style="stroke:#181818;stroke-width:1.0;"/><path d="M931.1094,91.418 L931.1094,93.918 L935.4375,93.918 L935.4375,92.9961 Q935.4375,92.3867 935.6719,92.1211 Q935.9219,91.8555 936.2969,91.8555 Q936.6719,91.8555 936.9063,92.1211 Q937.1406,92.3867 937.1406,92.9961 L937.1406,95.6211 L929.1406,95.6211 Q928.5156,95.6211 928.25,95.3867 Q928,95.1523 928,94.7617 Q928,94.3867 928.2656,94.1523 Q928.5313,93.918 929.1406,93.918 L929.4063,93.918 L929.4063,87.2617 L929.1406,87.2617 Q928.5156,87.2617 928.25,87.0273 Q928,86.793 928,86.4023 Q928,86.0273 928.25,85.793 Q928.5156,85.5586 929.1406,85.5586 L936.7656,85.5586 L936.7656,88.1523 Q936.7656,88.7617 936.5313,89.0273 Q936.3125,89.2773 935.9219,89.2773 Q935.5469,89.2773 935.3125,89.0273 Q935.0781,88.7617 935.0781,88.1523 L935.0781,87.2617 L931.1094,87.2617 L931.1094,89.7148 L932.5938,89.7148 Q932.5938,89.0586 932.7188,88.8711 Q932.9844,88.4648 933.4531,88.4648 Q933.8281,88.4648 934.0625,88.7305 Q934.2969,88.9805 934.2969,89.5898 L934.2969,91.5586 Q934.2969,92.1055 934.1719,92.293 Q933.9063,92.6836 933.4531,92.6836 Q932.9844,92.6836 932.7188,92.2773 Q932.5938,92.0898 932.5938,91.418 L931.1094,91.418 Z " fill="#000000"/><text fill="#000000" font-family="sans-serif" font-size="14" lengthAdjust="spacing" textLength="40" x="951.25" y="96.418">Status</text><line style="stroke:#181818;stroke-width:0.5;" x1="895.75" x2="1015.75" y1="106.6211" y2="106.6211"/><rect fill="none" height="6" style="stroke:#C82930;stroke-width:1.0;" width="6" x="902.75" y="118.4316"/><text fill="#000000" font-family="sans-serif" font-size="14" lengthAdjust="spacing" textLength="49" x="914.75" y="125.7285">ACTIVE</text><rect fill="none" height="6" style="stroke:#C82930;stroke-width:1.0;" width="6" x="902.75" y="137.0527"/><text fill="#000000" font-family="sans-serif" font-size="14" lengthAdjust="spacing" textLength="96" x="914.75" y="144.3496">DEACTIVATED</text><line style="stroke:#181818;stroke-width:0.5;" x1="895.75" x2="1015.75" y1="151.8633" y2="151.8633"/></g><!--link House to DeactivateDeviceController--><g id="link_House_DeactivateDeviceController"><path codeLine="62" d="M515.97,169.4011 C535.82,193.5211 559.62,222.4311 580.31,247.5611 " fill="none" id="House-DeactivateDeviceController" style="stroke:#454645;stroke-width:1.0;"/></g><!--link Room to DeactivateDeviceController--><g id="link_Room_DeactivateDeviceController"><path codeLine="63" d="M672.09,187.8811 C665.18,207.4011 657.74,228.4511 651.05,247.3711 " fill="none" id="Room-DeactivateDeviceController" style="stroke:#454645;stroke-width:1.0;"/></g><!--link RoomMapper to RoomDTO--><g id="link_RoomMapper_RoomDTO"><path codeLine="64" d="M406.75,514.9811 C406.75,532.6911 406.75,553.9211 406.75,574.3811 " fill="none" id="RoomMapper-RoomDTO" style="stroke:#454645;stroke-width:1.0;"/></g><!--link DeactivateDeviceController to RoomMapper--><g id="link_DeactivateDeviceController_RoomMapper"><path codeLine="65" d="M546.71,369.7611 C519.22,389.6711 489.26,411.3711 464.13,429.5611 " fill="none" id="DeactivateDeviceController-RoomMapper" style="stroke:#454645;stroke-width:1.0;"/></g><!--link DeactivateDeviceController to DeviceMapper--><g id="link_DeactivateDeviceController_DeviceMapper"><path codeLine="66" d="M712.79,369.7611 C740.28,389.6711 770.24,411.3711 795.37,429.5611 " fill="none" id="DeactivateDeviceController-DeviceMapper" style="stroke:#454645;stroke-width:1.0;"/></g><!--link DeviceMapper to DeviceDTO--><g id="link_DeviceMapper_DeviceDTO"><path codeLine="67" d="M852.75,514.9811 C852.75,544.1411 852.75,582.8711 852.75,611.9811 " fill="none" id="DeviceMapper-DeviceDTO" style="stroke:#454645;stroke-width:1.0;"/></g><!--link DeactivateDeviceController to Device--><g id="link_DeactivateDeviceController_Device"><path codeLine="68" d="M818.86,308.6211 C830.62,308.6211 842.38,308.6211 854.15,308.6211 " fill="none" id="DeactivateDeviceController-Device" style="stroke:#454645;stroke-width:1.0;"/></g><!--reverse link Status to Device--><g id="link_Status_Device"><path codeLine="69" d="M955.75,165.7111 C955.75,191.4211 955.75,218.8511 955.75,247.4311 " fill="none" id="Status-backto-Device" style="stroke:#454645;stroke-width:1.0;"/><polygon fill="#454645" points="955.75,159.7111,951.75,168.7111,955.75,164.7111,959.75,168.7111,955.75,159.7111" style="stroke:#454645;stroke-width:1.0;"/></g><!--SRC=[XLHHQzim47xthxYz9JGkUnoc148JMA7BnfBkPUn1iLLR8Ek29IUKiV- -EqcsOuSsKEhJtNTtttqwnIcd9RpiFd_9O6L1m0yyomPUBFtxZGsiYbePPLqZ73P_5l04Ps4SE8H2Yjofat2IiWfvKhbSW4LmbN2WwC-2GT1eIYhLMbdSmrQUPECggQMr2yRO2bjTm4724QrL1w92bKMU4u3Y5d8qhwfigRj20y8Ku9igzqQLo_la4rMhEUajIN8jA6lTqrfxJezeN8DQ4uc_2K1A7QtCu2j_w7nNIlSJiNwc6TVxxxDv1cm-i8_EomW9jJWoYn68touX8BgKOi9YreUZL27pWAYbCCc_ZdrNt5DjwB0LDR7TkKQPadsl6h79G1d79orDwQeC2cn9E_QSLJ5sL5ALbRlmy3XSbKUDTKVjludZCOfrnmpsoBfm1FX8MP7aDK2J41x41W6fL2VamcSjaw7Ne8WVDiWo6NUG_Zt68Nh9EHGAf48qIaxPVSy1I0T_hSCDH_ZpC4EVjeWLbWC1lqXX18svtrFQY6XrjyYrWcviJTPkDX-5HfTnOn6sRNsGmpeKgfR6KbzBe_Rse6wWCKnwlTppINYYiwVppbr1QgaXDg69VnCxxrY6e1EkjOpdBxkk7yduHKZJrX7EVLDOFUwVVctOMc-ylTflremCTv2c7pp-nAjv6n8tYO3Tbd_mWn9H8US6y79Haz7Mzi5RtI8iYPeyz8d9Vm00]--></g></svg>