<?xml version="1.0" encoding="us-ascii" standalone="no"?><svg xmlns="http://www.w3.org/2000/svg" xmlns:xlink="http://www.w3.org/1999/xlink" contentStyleType="text/css" height="513px" preserveAspectRatio="none" style="width:356px;height:513px;background:#FFFFFF;" version="1.1" viewBox="0 0 356 513" width="356px" zoomAndPan="magnify"><defs/><g><text fill="#000000" font-family="sans-serif" font-size="14" font-weight="bold" lengthAdjust="spacing" textLength="328" x="10" y="25.1074">Development View - Package Diagram - Level 3</text><!--cluster Backend--><g id="cluster_Backend"><path d="M76,45.6348 L138,45.6348 A3.75,3.75 0 0 1 140.5,48.1348 L147.5,70.2559 L285,70.2559 A2.5,2.5 0 0 1 287.5,72.7559 L287.5,504.1348 A2.5,2.5 0 0 1 285,506.6348 L76,506.6348 A2.5,2.5 0 0 1 73.5,504.1348 L73.5,48.1348 A2.5,2.5 0 0 1 76,45.6348 " fill="none" style="stroke:#000000;stroke-width:1.5;"/><line style="stroke:#000000;stroke-width:1.5;" x1="73.5" x2="147.5" y1="70.2559" y2="70.2559"/><text fill="#000000" font-family="sans-serif" font-size="14" font-weight="bold" lengthAdjust="spacing" textLength="61" x="77.5" y="62.7422">Backend</text></g><path d="M138.5,82.6348 L208.5,82.6348 A3.75,3.75 0 0 1 211,85.1348 L218,107.2559 L222.5,107.2559 A2.5,2.5 0 0 1 225,109.7559 L225,137.377 A2.5,2.5 0 0 1 222.5,139.877 L138.5,139.877 A2.5,2.5 0 0 1 136,137.377 L136,85.1348 A2.5,2.5 0 0 1 138.5,82.6348 " fill="#F1F1F1" style="stroke:#181818;stroke-width:0.5;"/><line style="stroke:#181818;stroke-width:0.5;" x1="136" x2="218" y1="107.2559" y2="107.2559"/><text fill="#000000" font-family="sans-serif" font-size="14" font-weight="bold" lengthAdjust="spacing" textLength="69" x="140" y="99.7422">controller</text><path d="M92.5,199.6348 L146.5,199.6348 A3.75,3.75 0 0 1 149,202.1348 L156,224.2559 L160.5,224.2559 A2.5,2.5 0 0 1 163,226.7559 L163,254.377 A2.5,2.5 0 0 1 160.5,256.877 L92.5,256.877 A2.5,2.5 0 0 1 90,254.377 L90,202.1348 A2.5,2.5 0 0 1 92.5,199.6348 " fill="#F1F1F1" style="stroke:#181818;stroke-width:0.5;"/><line style="stroke:#181818;stroke-width:0.5;" x1="90" x2="156" y1="224.2559" y2="224.2559"/><text fill="#000000" font-family="sans-serif" font-size="14" font-weight="bold" lengthAdjust="spacing" textLength="53" x="94" y="216.7422">service</text><path d="M129,316.6348 L214,316.6348 A3.75,3.75 0 0 1 216.5,319.1348 L223.5,341.2559 L228,341.2559 A2.5,2.5 0 0 1 230.5,343.7559 L230.5,371.377 A2.5,2.5 0 0 1 228,373.877 L129,373.877 A2.5,2.5 0 0 1 126.5,371.377 L126.5,319.1348 A2.5,2.5 0 0 1 129,316.6348 " fill="#F1F1F1" style="stroke:#181818;stroke-width:0.5;"/><line style="stroke:#181818;stroke-width:0.5;" x1="126.5" x2="223.5" y1="341.2559" y2="341.2559"/><text fill="#000000" font-family="sans-serif" font-size="14" font-weight="bold" lengthAdjust="spacing" textLength="84" x="130.5" y="333.7422">persistence</text><path d="M104.5,433.6348 L156.5,433.6348 A3.75,3.75 0 0 1 159,436.1348 L166,458.2559 L170.5,458.2559 A2.5,2.5 0 0 1 173,460.7559 L173,488.377 A2.5,2.5 0 0 1 170.5,490.877 L104.5,490.877 A2.5,2.5 0 0 1 102,488.377 L102,436.1348 A2.5,2.5 0 0 1 104.5,433.6348 " fill="#F1F1F1" style="stroke:#181818;stroke-width:0.5;"/><line style="stroke:#181818;stroke-width:0.5;" x1="102" x2="166" y1="458.2559" y2="458.2559"/><text fill="#000000" font-family="sans-serif" font-size="14" font-weight="bold" lengthAdjust="spacing" textLength="51" x="106" y="450.7422">domain</text><path d="M200.5,199.6348 L254.5,199.6348 A3.75,3.75 0 0 1 257,202.1348 L264,224.2559 L268.5,224.2559 A2.5,2.5 0 0 1 271,226.7559 L271,254.377 A2.5,2.5 0 0 1 268.5,256.877 L200.5,256.877 A2.5,2.5 0 0 1 198,254.377 L198,202.1348 A2.5,2.5 0 0 1 200.5,199.6348 " fill="#F1F1F1" style="stroke:#181818;stroke-width:0.5;"/><line style="stroke:#181818;stroke-width:0.5;" x1="198" x2="264" y1="224.2559" y2="224.2559"/><text fill="#000000" font-family="sans-serif" font-size="14" font-weight="bold" lengthAdjust="spacing" textLength="53" x="202" y="216.7422">mapper</text><path d="M217,433.6348 L248,433.6348 A3.75,3.75 0 0 1 250.5,436.1348 L257.5,458.2559 L262,458.2559 A2.5,2.5 0 0 1 264.5,460.7559 L264.5,488.377 A2.5,2.5 0 0 1 262,490.877 L217,490.877 A2.5,2.5 0 0 1 214.5,488.377 L214.5,436.1348 A2.5,2.5 0 0 1 217,433.6348 " fill="#F1F1F1" style="stroke:#181818;stroke-width:0.5;"/><line style="stroke:#181818;stroke-width:0.5;" x1="214.5" x2="257.5" y1="458.2559" y2="458.2559"/><text fill="#000000" font-family="sans-serif" font-size="14" font-weight="bold" lengthAdjust="spacing" textLength="30" x="218.5" y="450.7422">utils</text><!--link controller to service--><g id="link_controller_service"><path codeLine="26" d="M149.5,139.7548 C149.5,157.8848 149.5,175.2548 149.5,193.4048 " fill="none" id="controller-to-service" style="stroke:#181818;stroke-width:1.0;stroke-dasharray:7.0,7.0;"/><polygon fill="#181818" points="149.5,199.4048,153.5,190.4048,149.5,194.4048,145.5,190.4048,149.5,199.4048" style="stroke:#181818;stroke-width:1.0;"/></g><!--link controller to mapper--><g id="link_controller_mapper"><path codeLine="27" d="M211.5,139.7548 C211.5,157.8848 211.5,175.2548 211.5,193.4048 " fill="none" id="controller-to-mapper" style="stroke:#181818;stroke-width:1.0;stroke-dasharray:7.0,7.0;"/><polygon fill="#181818" points="211.5,199.4048,215.5,190.4048,211.5,194.4048,207.5,190.4048,211.5,199.4048" style="stroke:#181818;stroke-width:1.0;"/></g><!--link service to utils--><g id="link_service_utils"><path codeLine="29" d="M150.83,256.6948 C150.83,271.5448 150.83,286.6348 150.83,286.6348 C150.83,286.6348 247.5,286.6348 247.5,286.6348 C247.5,286.6348 247.5,377.8148 247.5,427.5448 " fill="none" id="service-to-utils" style="stroke:#181818;stroke-width:1.0;stroke-dasharray:7.0,7.0;"/><polygon fill="#181818" points="247.5,433.5448,251.5,424.5448,247.5,428.5448,243.5,424.5448,247.5,433.5448" style="stroke:#181818;stroke-width:1.0;"/></g><!--link service to persistence--><g id="link_service_persistence"><path codeLine="30" d="M138.67,256.7548 C138.67,274.8848 138.67,292.2548 138.67,310.4048 " fill="none" id="service-to-persistence" style="stroke:#181818;stroke-width:1.0;stroke-dasharray:7.0,7.0;"/><polygon fill="#181818" points="138.67,316.4048,142.67,307.4048,138.67,311.4048,134.67,307.4048,138.67,316.4048" style="stroke:#181818;stroke-width:1.0;"/></g><!--link service to domain--><g id="link_service_domain"><path codeLine="31" d="M114.25,256.8248 C114.25,301.8648 114.25,382.6248 114.25,427.5748 " fill="none" id="service-to-domain" style="stroke:#181818;stroke-width:1.0;stroke-dasharray:7.0,7.0;"/><polygon fill="#181818" points="114.25,433.5748,118.25,424.5748,114.25,428.5748,110.25,424.5748,114.25,433.5748" style="stroke:#181818;stroke-width:1.0;"/></g><!--link persistence to domain--><g id="link_persistence_domain"><path codeLine="33" d="M149.75,373.7548 C149.75,391.8848 149.75,409.2548 149.75,427.4048 " fill="none" id="persistence-to-domain" style="stroke:#181818;stroke-width:1.0;stroke-dasharray:7.0,7.0;"/><polygon fill="#181818" points="149.75,433.4048,153.75,424.4048,149.75,428.4048,145.75,424.4048,149.75,433.4048" style="stroke:#181818;stroke-width:1.0;"/></g><!--link persistence to utils--><g id="link_persistence_utils"><path codeLine="34" d="M222.5,373.7548 C222.5,391.8848 222.5,409.2548 222.5,427.4048 " fill="none" id="persistence-to-utils" style="stroke:#181818;stroke-width:1.0;stroke-dasharray:7.0,7.0;"/><polygon fill="#181818" points="222.5,433.4048,226.5,424.4048,222.5,428.4048,218.5,424.4048,222.5,433.4048" style="stroke:#181818;stroke-width:1.0;"/></g><!--SRC=[TP2x3i8m34LtVuL_e5tO6H0Z0nDxr5h5QbvAJ152_3i9RL5QjLaYdUFSt2JsRBqAog1cI_BoX2x8tG48YoOyqq3QUKDMyCRqn0glgkbLbnIhBX-iy9A7y03W9tLAEzaMtu1fpRHnLeBJci8aFh3maSB03MrBJo5o5B9x0wqpYkssCyhxlLiVmZh-LP95pRe-pgtMU8m4c4jdzejQaABrWezbquSLhohu6e_1Nm00]--></g></svg>