<?xml version="1.0" encoding="us-ascii" standalone="no"?><svg xmlns="http://www.w3.org/2000/svg" xmlns:xlink="http://www.w3.org/1999/xlink" contentStyleType="text/css" height="924px" preserveAspectRatio="none" style="width:722px;height:924px;background:#FFFFFF;" version="1.1" viewBox="0 0 722 924" width="722px" zoomAndPan="magnify"><defs/><g><text fill="#000000" font-family="sans-serif" font-size="14" font-weight="bold" lengthAdjust="spacing" textLength="694" x="10" y="25.1074">US03: As an Administrator, I want to have a list of existing rooms, so that I can choose one to edit it.</text><!--class ListAndEditRoomController--><g id="elem_ListAndEditRoomController"><rect codeLine="4" fill="#F1F1F1" height="122.4844" id="ListAndEditRoomController" rx="2.5" ry="2.5" style="stroke:#181818;stroke-width:0.5;" width="455" x="130.5" y="46.6211"/><ellipse cx="268.75" cy="62.6211" fill="#ADD1B2" rx="11" ry="11" style="stroke:#181818;stroke-width:1.0;"/><path d="M271.5156,58.4961 Q271.6719,58.2773 271.8594,58.168 Q272.0469,58.0586 272.2656,58.0586 Q272.6406,58.0586 272.875,58.3242 Q273.1094,58.5742 273.1094,59.1836 L273.1094,60.6367 Q273.1094,61.2461 272.875,61.5117 Q272.6406,61.7773 272.2656,61.7773 Q271.9219,61.7773 271.7188,61.5742 Q271.5156,61.3867 271.4063,60.8711 Q271.3594,60.5117 271.1719,60.3242 Q270.8438,59.9492 270.2344,59.7305 Q269.625,59.5117 269,59.5117 Q268.2344,59.5117 267.5938,59.8398 Q266.9688,60.168 266.4688,60.918 Q265.9844,61.668 265.9844,62.6992 L265.9844,63.793 Q265.9844,65.0273 266.875,65.8555 Q267.7656,66.668 269.3594,66.668 Q270.2969,66.668 270.9531,66.418 Q271.3438,66.2617 271.7656,65.8242 Q272.0313,65.5586 272.1719,65.4805 Q272.3281,65.4023 272.5313,65.4023 Q272.8594,65.4023 273.1094,65.668 Q273.375,65.918 273.375,66.2617 Q273.375,66.6055 273.0313,67.0117 Q272.5313,67.5898 271.7344,67.918 Q270.6563,68.3711 269.3594,68.3711 Q267.8438,68.3711 266.6406,67.7461 Q265.6563,67.2461 264.9688,66.1836 Q264.2813,65.1055 264.2813,63.8242 L264.2813,62.668 Q264.2813,61.3398 264.8906,60.1992 Q265.5156,59.043 266.6094,58.4336 Q267.7031,57.8086 268.9375,57.8086 Q269.6719,57.8086 270.3125,57.9805 Q270.9688,58.1367 271.5156,58.4961 Z " fill="#000000"/><text fill="#000000" font-family="sans-serif" font-size="14" lengthAdjust="spacing" textLength="170" x="289.25" y="68.418">ListAndEditRoomController</text><line style="stroke:#181818;stroke-width:0.5;" x1="131.5" x2="584.5" y1="78.6211" y2="78.6211"/><rect fill="none" height="6" style="stroke:#C82930;stroke-width:1.0;" width="6" x="138.5" y="90.4316"/><text fill="#000000" font-family="sans-serif" font-size="14" lengthAdjust="spacing" textLength="87" x="150.5" y="97.7285">house: House</text><rect fill="none" height="6" style="stroke:#C82930;stroke-width:1.0;" width="6" x="138.5" y="109.0527"/><text fill="#000000" font-family="sans-serif" font-size="14" lengthAdjust="spacing" textLength="300" x="150.5" y="116.3496">roomsDTOandRooms: Map&lt;RoomDTO, Room&gt;</text><ellipse cx="141.5" cy="130.6738" fill="none" rx="3" ry="3" style="stroke:#038048;stroke-width:1.0;"/><text fill="#000000" font-family="sans-serif" font-size="14" lengthAdjust="spacing" textLength="222" x="150.5" y="134.9707">getRoomListDTO: List&lt;RoomDTO&gt;</text><line style="stroke:#181818;stroke-width:0.5;" x1="131.5" x2="584.5" y1="142.4844" y2="142.4844"/><ellipse cx="141.5" cy="157.2949" fill="#84BE84" rx="3" ry="3" style="stroke:#038048;stroke-width:1.0;"/><text fill="#000000" font-family="sans-serif" font-size="14" lengthAdjust="spacing" textLength="429" x="150.5" y="161.5918">editRoom(String currentRoomName, RoomDTO roomDTO): boolean</text></g><!--class RoomMapper--><g id="elem_RoomMapper"><rect codeLine="11" fill="#F1F1F1" height="85.2422" id="RoomMapper" rx="2.5" ry="2.5" style="stroke:#181818;stroke-width:0.5;" width="337" x="42.5" y="238.1211"/><ellipse cx="164.25" cy="254.1211" fill="#ADD1B2" rx="11" ry="11" style="stroke:#181818;stroke-width:1.0;"/><path d="M167.0156,249.9961 Q167.1719,249.7773 167.3594,249.668 Q167.5469,249.5586 167.7656,249.5586 Q168.1406,249.5586 168.375,249.8242 Q168.6094,250.0742 168.6094,250.6836 L168.6094,252.1367 Q168.6094,252.7461 168.375,253.0117 Q168.1406,253.2773 167.7656,253.2773 Q167.4219,253.2773 167.2188,253.0742 Q167.0156,252.8867 166.9063,252.3711 Q166.8594,252.0117 166.6719,251.8242 Q166.3438,251.4492 165.7344,251.2305 Q165.125,251.0117 164.5,251.0117 Q163.7344,251.0117 163.0938,251.3398 Q162.4688,251.668 161.9688,252.418 Q161.4844,253.168 161.4844,254.1992 L161.4844,255.293 Q161.4844,256.5273 162.375,257.3555 Q163.2656,258.168 164.8594,258.168 Q165.7969,258.168 166.4531,257.918 Q166.8438,257.7617 167.2656,257.3242 Q167.5313,257.0586 167.6719,256.9805 Q167.8281,256.9023 168.0313,256.9023 Q168.3594,256.9023 168.6094,257.168 Q168.875,257.418 168.875,257.7617 Q168.875,258.1055 168.5313,258.5117 Q168.0313,259.0898 167.2344,259.418 Q166.1563,259.8711 164.8594,259.8711 Q163.3438,259.8711 162.1406,259.2461 Q161.1563,258.7461 160.4688,257.6836 Q159.7813,256.6055 159.7813,255.3242 L159.7813,254.168 Q159.7813,252.8398 160.3906,251.6992 Q161.0156,250.543 162.1094,249.9336 Q163.2031,249.3086 164.4375,249.3086 Q165.1719,249.3086 165.8125,249.4805 Q166.4688,249.6367 167.0156,249.9961 Z " fill="#000000"/><text fill="#000000" font-family="sans-serif" font-size="14" lengthAdjust="spacing" textLength="85" x="184.75" y="259.918">RoomMapper</text><line style="stroke:#181818;stroke-width:0.5;" x1="43.5" x2="378.5" y1="270.1211" y2="270.1211"/><line style="stroke:#181818;stroke-width:0.5;" x1="43.5" x2="378.5" y1="278.1211" y2="278.1211"/><ellipse cx="53.5" cy="292.9316" fill="#84BE84" rx="3" ry="3" style="stroke:#038048;stroke-width:1.0;"/><text fill="#000000" font-family="sans-serif" font-size="14" lengthAdjust="spacing" textLength="201" x="62.5" y="297.2285">roomToDTO(Room): RoomDTO</text><ellipse cx="53.5" cy="311.5527" fill="#84BE84" rx="3" ry="3" style="stroke:#038048;stroke-width:1.0;"/><text fill="#000000" font-family="sans-serif" font-size="14" lengthAdjust="spacing" textLength="311" x="62.5" y="315.8496">roomToDTO(RoomList): Map&lt;RoomDTO, Room&gt;</text></g><!--class RoomDTO--><g id="elem_RoomDTO"><rect codeLine="16" fill="#F1F1F1" height="141.1055" id="RoomDTO" rx="2.5" ry="2.5" style="stroke:#181818;stroke-width:0.5;" width="164" x="129" y="392.6211"/><ellipse cx="173.25" cy="408.6211" fill="#ADD1B2" rx="11" ry="11" style="stroke:#181818;stroke-width:1.0;"/><path d="M176.0156,404.4961 Q176.1719,404.2773 176.3594,404.168 Q176.5469,404.0586 176.7656,404.0586 Q177.1406,404.0586 177.375,404.3242 Q177.6094,404.5742 177.6094,405.1836 L177.6094,406.6367 Q177.6094,407.2461 177.375,407.5117 Q177.1406,407.7773 176.7656,407.7773 Q176.4219,407.7773 176.2188,407.5742 Q176.0156,407.3867 175.9063,406.8711 Q175.8594,406.5117 175.6719,406.3242 Q175.3438,405.9492 174.7344,405.7305 Q174.125,405.5117 173.5,405.5117 Q172.7344,405.5117 172.0938,405.8398 Q171.4688,406.168 170.9688,406.918 Q170.4844,407.668 170.4844,408.6992 L170.4844,409.793 Q170.4844,411.0273 171.375,411.8555 Q172.2656,412.668 173.8594,412.668 Q174.7969,412.668 175.4531,412.418 Q175.8438,412.2617 176.2656,411.8242 Q176.5313,411.5586 176.6719,411.4805 Q176.8281,411.4023 177.0313,411.4023 Q177.3594,411.4023 177.6094,411.668 Q177.875,411.918 177.875,412.2617 Q177.875,412.6055 177.5313,413.0117 Q177.0313,413.5898 176.2344,413.918 Q175.1563,414.3711 173.8594,414.3711 Q172.3438,414.3711 171.1406,413.7461 Q170.1563,413.2461 169.4688,412.1836 Q168.7813,411.1055 168.7813,409.8242 L168.7813,408.668 Q168.7813,407.3398 169.3906,406.1992 Q170.0156,405.043 171.1094,404.4336 Q172.2031,403.8086 173.4375,403.8086 Q174.1719,403.8086 174.8125,403.9805 Q175.4688,404.1367 176.0156,404.4961 Z " fill="#000000"/><text fill="#000000" font-family="sans-serif" font-size="14" lengthAdjust="spacing" textLength="67" x="193.75" y="414.418">RoomDTO</text><line style="stroke:#181818;stroke-width:0.5;" x1="130" x2="292" y1="424.6211" y2="424.6211"/><rect fill="none" height="6" style="stroke:#C82930;stroke-width:1.0;" width="6" x="137" y="436.4316"/><text fill="#000000" font-family="sans-serif" font-size="14" lengthAdjust="spacing" textLength="138" x="149" y="443.7285">getRoomName: String</text><rect fill="none" height="6" style="stroke:#C82930;stroke-width:1.0;" width="6" x="137" y="455.0527"/><text fill="#000000" font-family="sans-serif" font-size="14" lengthAdjust="spacing" textLength="125" x="149" y="462.3496">getFloorNumber: int</text><rect fill="none" height="6" style="stroke:#C82930;stroke-width:1.0;" width="6" x="137" y="473.6738"/><text fill="#000000" font-family="sans-serif" font-size="14" lengthAdjust="spacing" textLength="107" x="149" y="480.9707">getWidth: double</text><rect fill="none" height="6" style="stroke:#C82930;stroke-width:1.0;" width="6" x="137" y="492.2949"/><text fill="#000000" font-family="sans-serif" font-size="14" lengthAdjust="spacing" textLength="115" x="149" y="499.5918">getLength: double</text><rect fill="none" height="6" style="stroke:#C82930;stroke-width:1.0;" width="6" x="137" y="510.916"/><text fill="#000000" font-family="sans-serif" font-size="14" lengthAdjust="spacing" textLength="111" x="149" y="518.2129">getHeight: double</text><line style="stroke:#181818;stroke-width:0.5;" x1="130" x2="292" y1="525.7266" y2="525.7266"/></g><!--class House--><g id="elem_House"><rect codeLine="24" fill="#F1F1F1" height="103.8633" id="House" rx="2.5" ry="2.5" style="stroke:#181818;stroke-width:0.5;" width="182" x="415" y="228.6211"/><ellipse cx="481.75" cy="244.6211" fill="#ADD1B2" rx="11" ry="11" style="stroke:#181818;stroke-width:1.0;"/><path d="M484.5156,240.4961 Q484.6719,240.2773 484.8594,240.168 Q485.0469,240.0586 485.2656,240.0586 Q485.6406,240.0586 485.875,240.3242 Q486.1094,240.5742 486.1094,241.1836 L486.1094,242.6367 Q486.1094,243.2461 485.875,243.5117 Q485.6406,243.7773 485.2656,243.7773 Q484.9219,243.7773 484.7188,243.5742 Q484.5156,243.3867 484.4063,242.8711 Q484.3594,242.5117 484.1719,242.3242 Q483.8438,241.9492 483.2344,241.7305 Q482.625,241.5117 482,241.5117 Q481.2344,241.5117 480.5938,241.8398 Q479.9688,242.168 479.4688,242.918 Q478.9844,243.668 478.9844,244.6992 L478.9844,245.793 Q478.9844,247.0273 479.875,247.8555 Q480.7656,248.668 482.3594,248.668 Q483.2969,248.668 483.9531,248.418 Q484.3438,248.2617 484.7656,247.8242 Q485.0313,247.5586 485.1719,247.4805 Q485.3281,247.4023 485.5313,247.4023 Q485.8594,247.4023 486.1094,247.668 Q486.375,247.918 486.375,248.2617 Q486.375,248.6055 486.0313,249.0117 Q485.5313,249.5898 484.7344,249.918 Q483.6563,250.3711 482.3594,250.3711 Q480.8438,250.3711 479.6406,249.7461 Q478.6563,249.2461 477.9688,248.1836 Q477.2813,247.1055 477.2813,245.8242 L477.2813,244.668 Q477.2813,243.3398 477.8906,242.1992 Q478.5156,241.043 479.6094,240.4336 Q480.7031,239.8086 481.9375,239.8086 Q482.6719,239.8086 483.3125,239.9805 Q483.9688,240.1367 484.5156,240.4961 Z " fill="#000000"/><text fill="#000000" font-family="sans-serif" font-size="14" lengthAdjust="spacing" textLength="40" x="502.25" y="250.418">House</text><line style="stroke:#181818;stroke-width:0.5;" x1="416" x2="596" y1="260.6211" y2="260.6211"/><rect fill="none" height="6" style="stroke:#C82930;stroke-width:1.0;" width="6" x="423" y="272.4316"/><text fill="#000000" font-family="sans-serif" font-size="14" lengthAdjust="spacing" textLength="111" x="435" y="279.7285">location: Location</text><rect fill="none" height="6" style="stroke:#C82930;stroke-width:1.0;" width="6" x="423" y="291.0527"/><text fill="#000000" font-family="sans-serif" font-size="14" lengthAdjust="spacing" textLength="121" x="435" y="298.3496">roomList: RoomList</text><line style="stroke:#181818;stroke-width:0.5;" x1="416" x2="596" y1="305.8633" y2="305.8633"/><ellipse cx="426" cy="320.6738" fill="#84BE84" rx="3" ry="3" style="stroke:#038048;stroke-width:1.0;"/><text fill="#000000" font-family="sans-serif" font-size="14" lengthAdjust="spacing" textLength="156" x="435" y="324.9707">getRoomList(): RoomList</text></g><!--class RoomList--><g id="elem_RoomList"><rect codeLine="30" fill="#F1F1F1" height="122.4844" id="RoomList" rx="2.5" ry="2.5" style="stroke:#181818;stroke-width:0.5;" width="357" x="328.5" y="402.1211"/><ellipse cx="473.25" cy="418.1211" fill="#ADD1B2" rx="11" ry="11" style="stroke:#181818;stroke-width:1.0;"/><path d="M476.0156,413.9961 Q476.1719,413.7773 476.3594,413.668 Q476.5469,413.5586 476.7656,413.5586 Q477.1406,413.5586 477.375,413.8242 Q477.6094,414.0742 477.6094,414.6836 L477.6094,416.1367 Q477.6094,416.7461 477.375,417.0117 Q477.1406,417.2773 476.7656,417.2773 Q476.4219,417.2773 476.2188,417.0742 Q476.0156,416.8867 475.9063,416.3711 Q475.8594,416.0117 475.6719,415.8242 Q475.3438,415.4492 474.7344,415.2305 Q474.125,415.0117 473.5,415.0117 Q472.7344,415.0117 472.0938,415.3398 Q471.4688,415.668 470.9688,416.418 Q470.4844,417.168 470.4844,418.1992 L470.4844,419.293 Q470.4844,420.5273 471.375,421.3555 Q472.2656,422.168 473.8594,422.168 Q474.7969,422.168 475.4531,421.918 Q475.8438,421.7617 476.2656,421.3242 Q476.5313,421.0586 476.6719,420.9805 Q476.8281,420.9023 477.0313,420.9023 Q477.3594,420.9023 477.6094,421.168 Q477.875,421.418 477.875,421.7617 Q477.875,422.1055 477.5313,422.5117 Q477.0313,423.0898 476.2344,423.418 Q475.1563,423.8711 473.8594,423.8711 Q472.3438,423.8711 471.1406,423.2461 Q470.1563,422.7461 469.4688,421.6836 Q468.7813,420.6055 468.7813,419.3242 L468.7813,418.168 Q468.7813,416.8398 469.3906,415.6992 Q470.0156,414.543 471.1094,413.9336 Q472.2031,413.3086 473.4375,413.3086 Q474.1719,413.3086 474.8125,413.4805 Q475.4688,413.6367 476.0156,413.9961 Z " fill="#000000"/><text fill="#000000" font-family="sans-serif" font-size="14" lengthAdjust="spacing" textLength="59" x="493.75" y="423.918">RoomList</text><line style="stroke:#181818;stroke-width:0.5;" x1="329.5" x2="684.5" y1="434.1211" y2="434.1211"/><rect fill="none" height="6" style="stroke:#C82930;stroke-width:1.0;" width="6" x="336.5" y="445.9316"/><text fill="#000000" font-family="sans-serif" font-size="14" lengthAdjust="spacing" textLength="137" x="348.5" y="453.2285">roomList: List&lt;Room&gt;</text><ellipse cx="339.5" cy="467.5527" fill="none" rx="3" ry="3" style="stroke:#038048;stroke-width:1.0;"/><text fill="#000000" font-family="sans-serif" font-size="14" lengthAdjust="spacing" textLength="190" x="348.5" y="471.8496">editRoomConfiguration: Room</text><line style="stroke:#181818;stroke-width:0.5;" x1="329.5" x2="684.5" y1="479.3633" y2="479.3633"/><ellipse cx="339.5" cy="494.1738" fill="#84BE84" rx="3" ry="3" style="stroke:#038048;stroke-width:1.0;"/><text fill="#000000" font-family="sans-serif" font-size="14" lengthAdjust="spacing" textLength="273" x="348.5" y="498.4707">getRoomByName(String roomName): Room</text><ellipse cx="339.5" cy="512.7949" fill="#84BE84" rx="3" ry="3" style="stroke:#038048;stroke-width:1.0;"/><text fill="#000000" font-family="sans-serif" font-size="14" lengthAdjust="spacing" textLength="331" x="348.5" y="517.0918">isRoomNameInRoomList(String roomName): boolean</text></g><!--class Room--><g id="elem_Room"><rect codeLine="37" fill="#F1F1F1" height="141.1055" id="Room" rx="2.5" ry="2.5" style="stroke:#181818;stroke-width:0.5;" width="229" x="392.5" y="593.6211"/><ellipse cx="484.25" cy="609.6211" fill="#ADD1B2" rx="11" ry="11" style="stroke:#181818;stroke-width:1.0;"/><path d="M487.0156,605.4961 Q487.1719,605.2773 487.3594,605.168 Q487.5469,605.0586 487.7656,605.0586 Q488.1406,605.0586 488.375,605.3242 Q488.6094,605.5742 488.6094,606.1836 L488.6094,607.6367 Q488.6094,608.2461 488.375,608.5117 Q488.1406,608.7773 487.7656,608.7773 Q487.4219,608.7773 487.2188,608.5742 Q487.0156,608.3867 486.9063,607.8711 Q486.8594,607.5117 486.6719,607.3242 Q486.3438,606.9492 485.7344,606.7305 Q485.125,606.5117 484.5,606.5117 Q483.7344,606.5117 483.0938,606.8398 Q482.4688,607.168 481.9688,607.918 Q481.4844,608.668 481.4844,609.6992 L481.4844,610.793 Q481.4844,612.0273 482.375,612.8555 Q483.2656,613.668 484.8594,613.668 Q485.7969,613.668 486.4531,613.418 Q486.8438,613.2617 487.2656,612.8242 Q487.5313,612.5586 487.6719,612.4805 Q487.8281,612.4023 488.0313,612.4023 Q488.3594,612.4023 488.6094,612.668 Q488.875,612.918 488.875,613.2617 Q488.875,613.6055 488.5313,614.0117 Q488.0313,614.5898 487.2344,614.918 Q486.1563,615.3711 484.8594,615.3711 Q483.3438,615.3711 482.1406,614.7461 Q481.1563,614.2461 480.4688,613.1836 Q479.7813,612.1055 479.7813,610.8242 L479.7813,609.668 Q479.7813,608.3398 480.3906,607.1992 Q481.0156,606.043 482.1094,605.4336 Q483.2031,604.8086 484.4375,604.8086 Q485.1719,604.8086 485.8125,604.9805 Q486.4688,605.1367 487.0156,605.4961 Z " fill="#000000"/><text fill="#000000" font-family="sans-serif" font-size="14" lengthAdjust="spacing" textLength="37" x="504.75" y="615.418">Room</text><line style="stroke:#181818;stroke-width:0.5;" x1="393.5" x2="620.5" y1="625.6211" y2="625.6211"/><rect fill="none" height="6" style="stroke:#C82930;stroke-width:1.0;" width="6" x="400.5" y="637.4316"/><text fill="#000000" font-family="sans-serif" font-size="14" lengthAdjust="spacing" textLength="113" x="412.5" y="644.7285">roomName: String</text><rect fill="none" height="6" style="stroke:#C82930;stroke-width:1.0;" width="6" x="400.5" y="656.0527"/><text fill="#000000" font-family="sans-serif" font-size="14" lengthAdjust="spacing" textLength="100" x="412.5" y="663.3496">floorNumber: int</text><rect fill="none" height="6" style="stroke:#C82930;stroke-width:1.0;" width="6" x="400.5" y="674.6738"/><text fill="#000000" font-family="sans-serif" font-size="14" lengthAdjust="spacing" textLength="152" x="412.5" y="681.9707">dimensions: Dimensions</text><rect fill="none" height="6" style="stroke:#C82930;stroke-width:1.0;" width="6" x="400.5" y="693.2949"/><text fill="#000000" font-family="sans-serif" font-size="14" lengthAdjust="spacing" textLength="136" x="412.5" y="700.5918">deviceList: DeviceList</text><line style="stroke:#181818;stroke-width:0.5;" x1="393.5" x2="620.5" y1="708.1055" y2="708.1055"/><rect fill="#F24D5C" height="6" style="stroke:#C82930;stroke-width:1.0;" width="6" x="400.5" y="719.916"/><text fill="#000000" font-family="sans-serif" font-size="14" lengthAdjust="spacing" textLength="203" x="412.5" y="727.2129">validRoomArguments(): boolean</text></g><!--class Dimensions--><g id="elem_Dimensions"><rect codeLine="45" fill="#F1F1F1" height="122.4844" id="Dimensions" rx="2.5" ry="2.5" style="stroke:#181818;stroke-width:0.5;" width="265" x="374.5" y="794.6211"/><ellipse cx="466.25" cy="810.6211" fill="#ADD1B2" rx="11" ry="11" style="stroke:#181818;stroke-width:1.0;"/><path d="M469.0156,806.4961 Q469.1719,806.2773 469.3594,806.168 Q469.5469,806.0586 469.7656,806.0586 Q470.1406,806.0586 470.375,806.3242 Q470.6094,806.5742 470.6094,807.1836 L470.6094,808.6367 Q470.6094,809.2461 470.375,809.5117 Q470.1406,809.7773 469.7656,809.7773 Q469.4219,809.7773 469.2188,809.5742 Q469.0156,809.3867 468.9063,808.8711 Q468.8594,808.5117 468.6719,808.3242 Q468.3438,807.9492 467.7344,807.7305 Q467.125,807.5117 466.5,807.5117 Q465.7344,807.5117 465.0938,807.8398 Q464.4688,808.168 463.9688,808.918 Q463.4844,809.668 463.4844,810.6992 L463.4844,811.793 Q463.4844,813.0273 464.375,813.8555 Q465.2656,814.668 466.8594,814.668 Q467.7969,814.668 468.4531,814.418 Q468.8438,814.2617 469.2656,813.8242 Q469.5313,813.5586 469.6719,813.4805 Q469.8281,813.4023 470.0313,813.4023 Q470.3594,813.4023 470.6094,813.668 Q470.875,813.918 470.875,814.2617 Q470.875,814.6055 470.5313,815.0117 Q470.0313,815.5898 469.2344,815.918 Q468.1563,816.3711 466.8594,816.3711 Q465.3438,816.3711 464.1406,815.7461 Q463.1563,815.2461 462.4688,814.1836 Q461.7813,813.1055 461.7813,811.8242 L461.7813,810.668 Q461.7813,809.3398 462.3906,808.1992 Q463.0156,807.043 464.1094,806.4336 Q465.2031,805.8086 466.4375,805.8086 Q467.1719,805.8086 467.8125,805.9805 Q468.4688,806.1367 469.0156,806.4961 Z " fill="#000000"/><text fill="#000000" font-family="sans-serif" font-size="14" lengthAdjust="spacing" textLength="73" x="486.75" y="816.418">Dimensions</text><line style="stroke:#181818;stroke-width:0.5;" x1="375.5" x2="638.5" y1="826.6211" y2="826.6211"/><rect fill="none" height="6" style="stroke:#C82930;stroke-width:1.0;" width="6" x="382.5" y="838.4316"/><text fill="#000000" font-family="sans-serif" font-size="14" lengthAdjust="spacing" textLength="83" x="394.5" y="845.7285">width: double</text><rect fill="none" height="6" style="stroke:#C82930;stroke-width:1.0;" width="6" x="382.5" y="857.0527"/><text fill="#000000" font-family="sans-serif" font-size="14" lengthAdjust="spacing" textLength="90" x="394.5" y="864.3496">length: double</text><rect fill="none" height="6" style="stroke:#C82930;stroke-width:1.0;" width="6" x="382.5" y="875.6738"/><text fill="#000000" font-family="sans-serif" font-size="14" lengthAdjust="spacing" textLength="90" x="394.5" y="882.9707">height: double</text><line style="stroke:#181818;stroke-width:0.5;" x1="375.5" x2="638.5" y1="890.4844" y2="890.4844"/><rect fill="#F24D5C" height="6" style="stroke:#C82930;stroke-width:1.0;" width="6" x="382.5" y="902.2949"/><text fill="#000000" font-family="sans-serif" font-size="14" lengthAdjust="spacing" textLength="239" x="394.5" y="909.5918">validDimensionsArguments(): boolean</text></g><!--link ListAndEditRoomController to House--><g id="link_ListAndEditRoomController_House"><path codeLine="52" d="M410.18,168.9111 C426.99,188.3311 445.45,209.6611 461.64,228.3711 " fill="none" id="ListAndEditRoomController-House" style="stroke:#181818;stroke-width:1.0;"/></g><!--link ListAndEditRoomController to RoomMapper--><g id="link_ListAndEditRoomController_RoomMapper"><path codeLine="53" d="M306.17,168.9111 C286.5,191.7911 264.55,217.3311 246.69,238.1011 " fill="none" id="ListAndEditRoomController-RoomMapper" style="stroke:#181818;stroke-width:1.0;"/></g><!--reverse link House to RoomList--><g id="link_House_RoomList"><path codeLine="54" d="M506.3471,344.8609 C506.4671,366.3309 506.54,379.4511 506.67,401.8011 " fill="none" id="House-backto-RoomList" style="stroke:#181818;stroke-width:1.0;"/><polygon fill="#181818" points="506.28,332.8611,502.3136,338.8834,506.3471,344.8609,510.3135,338.8386,506.28,332.8611" style="stroke:#181818;stroke-width:1.0;"/><text fill="#000000" font-family="sans-serif" font-size="13" lengthAdjust="spacing" textLength="7" x="498.8674" y="354.6991">1</text><text fill="#000000" font-family="sans-serif" font-size="13" lengthAdjust="spacing" textLength="7" x="499.2272" y="390.7453">1</text></g><!--link RoomMapper to RoomDTO--><g id="link_RoomMapper_RoomDTO"><path codeLine="55" d="M211,323.4811 C211,344.0011 211,369.2511 211,392.5611 " fill="none" id="RoomMapper-RoomDTO" style="stroke:#181818;stroke-width:1.0;"/></g><!--reverse link RoomList to Room--><g id="link_RoomList_Room"><path codeLine="56" d="M507,536.3711 C507,558.1011 507,570.8111 507,593.3011 " fill="none" id="RoomList-backto-Room" style="stroke:#181818;stroke-width:1.0;"/><polygon fill="#181818" points="507,524.3711,503,530.3711,507,536.3711,511,530.3711,507,524.3711" style="stroke:#181818;stroke-width:1.0;"/><text fill="#000000" font-family="sans-serif" font-size="13" lengthAdjust="spacing" textLength="7" x="499.5953" y="546.4531">1</text><text fill="#000000" font-family="sans-serif" font-size="13" lengthAdjust="spacing" textLength="20" x="485.9688" y="582.1591">0..*</text></g><!--reverse link Room to Dimensions--><g id="link_Room_Dimensions"><path codeLine="57" d="M507,746.8811 C507,766.4011 507,775.4511 507,794.3711 " fill="none" id="Room-backto-Dimensions" style="stroke:#181818;stroke-width:1.0;"/><polygon fill="#181818" points="507,734.8811,503,740.8811,507,746.8811,511,740.8811,507,734.8811" style="stroke:#181818;stroke-width:1.0;"/><text fill="#000000" font-family="sans-serif" font-size="13" lengthAdjust="spacing" textLength="7" x="499.6555" y="756.7207">1</text><text fill="#000000" font-family="sans-serif" font-size="13" lengthAdjust="spacing" textLength="7" x="499.5953" y="783.3234">1</text></g><!--SRC=[VLDDRzim3BthLn2zD6dYfCDknb0WMpQqGDS1QuUT5Lkn1SXY8CdfXc7_VQHiot7QxcJwaNny_53GmIZuyNZzFeUD1sbXKpRQQX-S3EYMS0VFqWO82BKyAf1Wo0Uu1_MB36qhS8YDNu972BKCb50GIr4ZUWLe5QUgKWVGOIKkwn0EFb-l3uPOsyQi2cpMXP7UPwMMbPED4F4Nxeb-OylFbFgTAdn26nmQenpy4LcDhLSvtF97P571zkcRj2M7-Xo-oiC7DWbS0XitOb6fICIy1EUnm114RjKNcZq6nsqLhNFAHkX1DggZeT3OBttdEUmGZP9M_1qqSmYLFaIH2mvyGWgTCKxnFSEvXuNCNzKy8URQr7hV1clAeTCQmIy6qJsqpKwv7BGD4Vofor3dK6AxCoeYzyfMPz2jqbKT4fIAnkboIOE531ejpQotkfcpyAuhjYOJdirF79Cs667IaI0jObpInz_Stx0Ar_VRSug5ziC8xcog-39us4_QBHtHNbUjwxk9P1DnWx3fTFSlHblgHbbF97HhssGJhewwK5rRssIBx2YDZhUvSLLBuS7FNhkVaOg5F4-NPyusLq_NrjKO6TwgzFQxohB-GVqtPBnnqHt8nRiBk287VzFAJru2kTBbfmD8ITUhrLMN5vqJjfF9_WC0]--></g></svg>