<?xml version="1.0" encoding="us-ascii" standalone="no"?><svg xmlns="http://www.w3.org/2000/svg" xmlns:xlink="http://www.w3.org/1999/xlink" contentStyleType="text/css" height="342px" preserveAspectRatio="none" style="width:987px;height:342px;background:#FFFFFF;" version="1.1" viewBox="0 0 987 342" width="987px" zoomAndPan="magnify"><defs/><g><text fill="#000000" font-family="sans-serif" font-size="14" font-weight="bold" lengthAdjust="spacing" textLength="699" x="145.25" y="30.1074">US03 - As an Administrator, I want to have a list of existing rooms, so that I can choose one to edit it.</text><rect fill="#FFFFFF" height="175.0859" style="stroke:#181818;stroke-width:1.0;" width="10" x="304" y="111.5332"/><rect fill="#FFFFFF" height="120.5039" style="stroke:#181818;stroke-width:1.0;" width="10" x="938" y="142.8242"/><rect fill="none" height="98.5039" style="stroke:#000000;stroke-width:1.5;" width="775.5" x="205" y="157.8242"/><line style="stroke:#181818;stroke-width:0.5;stroke-dasharray:5.0,5.0;" x1="309" x2="309" y1="78.2422" y2="304.6191"/><line style="stroke:#181818;stroke-width:0.5;stroke-dasharray:5.0,5.0;" x1="942.5" x2="942.5" y1="78.2422" y2="304.6191"/><rect fill="#E2E2F0" height="32.6211" rx="2.5" ry="2.5" style="stroke:#181818;stroke-width:0.5;" width="188" x="215" y="44.6211"/><text fill="#000000" font-family="sans-serif" font-size="14" lengthAdjust="spacing" textLength="174" x="222" y="66.7285">:ListAndEditRoomController</text><rect fill="#E2E2F0" height="32.6211" rx="2.5" ry="2.5" style="stroke:#181818;stroke-width:0.5;" width="188" x="215" y="303.6191"/><text fill="#000000" font-family="sans-serif" font-size="14" lengthAdjust="spacing" textLength="174" x="222" y="325.7266">:ListAndEditRoomController</text><rect fill="#E2E2F0" height="32.6211" rx="2.5" ry="2.5" style="stroke:#181818;stroke-width:0.5;" width="55" x="915.5" y="44.6211"/><text fill="#000000" font-family="sans-serif" font-size="14" lengthAdjust="spacing" textLength="41" x="922.5" y="66.7285">:Room</text><rect fill="#E2E2F0" height="32.6211" rx="2.5" ry="2.5" style="stroke:#181818;stroke-width:0.5;" width="55" x="915.5" y="303.6191"/><text fill="#000000" font-family="sans-serif" font-size="14" lengthAdjust="spacing" textLength="41" x="922.5" y="325.7266">:Room</text><rect fill="#FFFFFF" height="175.0859" style="stroke:#181818;stroke-width:1.0;" width="10" x="304" y="111.5332"/><rect fill="#FFFFFF" height="120.5039" style="stroke:#181818;stroke-width:1.0;" width="10" x="938" y="142.8242"/><polygon fill="#181818" points="292,107.5332,302,111.5332,292,115.5332,296,111.5332" style="stroke:#181818;stroke-width:1.0;"/><line style="stroke:#181818;stroke-width:1.0;" x1="0" x2="298" y1="111.5332" y2="111.5332"/><text fill="#000000" font-family="sans-serif" font-size="13" font-weight="bold" lengthAdjust="spacing" textLength="7" x="7" y="106.2705">1</text><text fill="#000000" font-family="sans-serif" font-size="13" lengthAdjust="spacing" textLength="274" x="18" y="106.2705">editRoom(roomDTOIdentifier, roomDTONewInfo)</text><polygon fill="#181818" points="926,138.8242,936,142.8242,926,146.8242,930,142.8242" style="stroke:#181818;stroke-width:1.0;"/><line style="stroke:#181818;stroke-width:1.0;" x1="314" x2="932" y1="142.8242" y2="142.8242"/><text fill="#000000" font-family="sans-serif" font-size="13" font-weight="bold" lengthAdjust="spacing" textLength="7" x="321" y="137.5615">2</text><text fill="#000000" font-family="sans-serif" font-size="13" lengthAdjust="spacing" textLength="594" x="332" y="137.5615">editRoomConfiguration(newRoomName, newFloor, newRoomLength, newRoomWidth, newRoomHeight)</text><path d="M205,157.8242 L266,157.8242 L266,167.1152 L256,177.1152 L205,177.1152 L205,157.8242 " fill="#EEEEEE" style="stroke:#000000;stroke-width:1.5;"/><rect fill="none" height="98.5039" style="stroke:#000000;stroke-width:1.5;" width="775.5" x="205" y="157.8242"/><text fill="#000000" font-family="sans-serif" font-size="13" font-weight="bold" lengthAdjust="spacing" textLength="16" x="220" y="172.8525">alt</text><text fill="#000000" font-family="sans-serif" font-size="11" font-weight="bold" lengthAdjust="spacing" textLength="75" x="281" y="171.6943">[room exists]</text><polygon fill="#181818" points="325,196.4063,315,200.4063,325,204.4063,321,200.4063" style="stroke:#181818;stroke-width:1.0;"/><line style="stroke:#181818;stroke-width:1.0;stroke-dasharray:2.0,2.0;" x1="319" x2="937" y1="200.4063" y2="200.4063"/><text fill="#000000" font-family="sans-serif" font-size="13" font-weight="bold" lengthAdjust="spacing" textLength="7" x="331" y="195.1436">3</text><text fill="#000000" font-family="sans-serif" font-size="13" lengthAdjust="spacing" textLength="22" x="342" y="195.1436">true</text><line style="stroke:#000000;stroke-width:1.0;stroke-dasharray:2.0,2.0;" x1="205" x2="980.5" y1="209.4063" y2="209.4063"/><text fill="#000000" font-family="sans-serif" font-size="11" font-weight="bold" lengthAdjust="spacing" textLength="120" x="210" y="221.2764">[room does not exist]</text><polygon fill="#181818" points="325,244.3281,315,248.3281,325,252.3281,321,248.3281" style="stroke:#181818;stroke-width:1.0;"/><line style="stroke:#181818;stroke-width:1.0;stroke-dasharray:2.0,2.0;" x1="319" x2="937" y1="248.3281" y2="248.3281"/><text fill="#000000" font-family="sans-serif" font-size="13" font-weight="bold" lengthAdjust="spacing" textLength="7" x="331" y="243.0654">4</text><text fill="#000000" font-family="sans-serif" font-size="13" lengthAdjust="spacing" textLength="27" x="342" y="243.0654">false</text><polygon fill="#181818" points="11,282.6191,1,286.6191,11,290.6191,7,286.6191" style="stroke:#181818;stroke-width:1.0;"/><line style="stroke:#181818;stroke-width:1.0;stroke-dasharray:2.0,2.0;" x1="5" x2="308" y1="286.6191" y2="286.6191"/><text fill="#000000" font-family="sans-serif" font-size="13" font-weight="bold" lengthAdjust="spacing" textLength="7" x="17" y="281.3564">5</text><text fill="#000000" font-family="sans-serif" font-size="13" lengthAdjust="spacing" textLength="32" x="28" y="281.3564">result</text><!--SRC=[ZL7BQWCn3BpxAqHFAMHBeRTG2g4F6WWfz47FRgpT5NYbO6kJVdxbJMZJmeRw9CrunYDPIIF2sylb5LGmp-0Pvg4Zfgp9gwGfB63dMK45Mhz5y12D0wa1FwqWRY29T7aAMK1RhoPOcykw5Sa8mbYa64Y1zC8vtwjmttrWScxZazAQDiN_RBOqkpc7UxlwR8wtmfeaHandu3ECidzS2Za8Ik5STJEkd0sn2ZOf8zozFYq2ib9DQ7CVe1Nk5bpBkVDhfQrNF974ZL9WEGhoywHnDJMzBPc49uox0gvyXrEmvY5AsVq1NY8tsdwtxnIEkaUafjMZVCFWFkemmVwNiWCxXO3gz4OqzUWmsiyDwY2OWKNtDlzsgRqvEEJW0lxE1TTLTKgPCFTHZsNZw_u2]--></g></svg>