<?xml version="1.0" encoding="us-ascii" standalone="no"?><svg xmlns="http://www.w3.org/2000/svg" xmlns:xlink="http://www.w3.org/1999/xlink" contentStyleType="text/css" height="323px" preserveAspectRatio="none" style="width:727px;height:323px;background:#FFFFFF;" version="1.1" viewBox="0 0 727 323" width="727px" zoomAndPan="magnify"><defs/><g><text fill="#000000" font-family="sans-serif" font-size="14" font-weight="bold" lengthAdjust="spacing" textLength="699" x="10" y="30.1074">US03 - As an Administrator, I want to have a list of existing rooms, so that I can choose one to edit it.</text><rect fill="#FFFFFF" height="156.4551" style="stroke:#181818;stroke-width:1.0;" width="10" x="245.75" y="111.5332"/><rect fill="#FFFFFF" height="31.291" style="stroke:#181818;stroke-width:1.0;" width="10" x="471.75" y="205.4063"/><rect fill="#FFFFFF" height="31.291" style="stroke:#181818;stroke-width:1.0;" width="10" x="562.25" y="142.8242"/><line style="stroke:#181818;stroke-width:0.5;stroke-dasharray:5.0,5.0;" x1="250.75" x2="250.75" y1="78.2422" y2="285.9883"/><line style="stroke:#181818;stroke-width:0.5;stroke-dasharray:5.0,5.0;" x1="476.25" x2="476.25" y1="78.2422" y2="285.9883"/><line style="stroke:#181818;stroke-width:0.5;stroke-dasharray:5.0,5.0;" x1="567.25" x2="567.25" y1="78.2422" y2="285.9883"/><rect fill="#E2E2F0" height="32.6211" rx="2.5" ry="2.5" style="stroke:#181818;stroke-width:0.5;" width="188" x="156.75" y="44.6211"/><text fill="#000000" font-family="sans-serif" font-size="14" lengthAdjust="spacing" textLength="174" x="163.75" y="66.7285">:ListAndEditRoomController</text><rect fill="#E2E2F0" height="32.6211" rx="2.5" ry="2.5" style="stroke:#181818;stroke-width:0.5;" width="188" x="156.75" y="284.9883"/><text fill="#000000" font-family="sans-serif" font-size="14" lengthAdjust="spacing" textLength="174" x="163.75" y="307.0957">:ListAndEditRoomController</text><rect fill="#E2E2F0" height="32.6211" rx="2.5" ry="2.5" style="stroke:#181818;stroke-width:0.5;" width="103" x="425.25" y="44.6211"/><text fill="#000000" font-family="sans-serif" font-size="14" lengthAdjust="spacing" textLength="89" x="432.25" y="66.7285">:RoomMapper</text><rect fill="#E2E2F0" height="32.6211" rx="2.5" ry="2.5" style="stroke:#181818;stroke-width:0.5;" width="103" x="425.25" y="284.9883"/><text fill="#000000" font-family="sans-serif" font-size="14" lengthAdjust="spacing" textLength="89" x="432.25" y="307.0957">:RoomMapper</text><rect fill="#E2E2F0" height="32.6211" rx="2.5" ry="2.5" style="stroke:#181818;stroke-width:0.5;" width="58" x="538.25" y="44.6211"/><text fill="#000000" font-family="sans-serif" font-size="14" lengthAdjust="spacing" textLength="44" x="545.25" y="66.7285">:House</text><rect fill="#E2E2F0" height="32.6211" rx="2.5" ry="2.5" style="stroke:#181818;stroke-width:0.5;" width="58" x="538.25" y="284.9883"/><text fill="#000000" font-family="sans-serif" font-size="14" lengthAdjust="spacing" textLength="44" x="545.25" y="307.0957">:House</text><rect fill="#FFFFFF" height="156.4551" style="stroke:#181818;stroke-width:1.0;" width="10" x="245.75" y="111.5332"/><rect fill="#FFFFFF" height="31.291" style="stroke:#181818;stroke-width:1.0;" width="10" x="471.75" y="205.4063"/><rect fill="#FFFFFF" height="31.291" style="stroke:#181818;stroke-width:1.0;" width="10" x="562.25" y="142.8242"/><polygon fill="#181818" points="233.75,107.5332,243.75,111.5332,233.75,115.5332,237.75,111.5332" style="stroke:#181818;stroke-width:1.0;"/><line style="stroke:#181818;stroke-width:1.0;" x1="118.75" x2="239.75" y1="111.5332" y2="111.5332"/><text fill="#000000" font-family="sans-serif" font-size="13" font-weight="bold" lengthAdjust="spacing" textLength="7" x="125.75" y="106.2705">1</text><text fill="#000000" font-family="sans-serif" font-size="13" lengthAdjust="spacing" textLength="81" x="136.75" y="106.2705">getRoomList()</text><polygon fill="#181818" points="550.25,138.8242,560.25,142.8242,550.25,146.8242,554.25,142.8242" style="stroke:#181818;stroke-width:1.0;"/><line style="stroke:#181818;stroke-width:1.0;" x1="255.75" x2="556.25" y1="142.8242" y2="142.8242"/><text fill="#000000" font-family="sans-serif" font-size="13" font-weight="bold" lengthAdjust="spacing" textLength="7" x="262.75" y="137.5615">2</text><text fill="#000000" font-family="sans-serif" font-size="13" lengthAdjust="spacing" textLength="81" x="273.75" y="137.5615">getRoomList()</text><polygon fill="#181818" points="266.75,170.1152,256.75,174.1152,266.75,178.1152,262.75,174.1152" style="stroke:#181818;stroke-width:1.0;"/><line style="stroke:#181818;stroke-width:1.0;stroke-dasharray:2.0,2.0;" x1="260.75" x2="566.25" y1="174.1152" y2="174.1152"/><text fill="#000000" font-family="sans-serif" font-size="13" font-weight="bold" lengthAdjust="spacing" textLength="7" x="272.75" y="168.8525">3</text><text fill="#000000" font-family="sans-serif" font-size="13" lengthAdjust="spacing" textLength="55" x="283.75" y="168.8525">RoomList</text><polygon fill="#181818" points="459.75,201.4063,469.75,205.4063,459.75,209.4063,463.75,205.4063" style="stroke:#181818;stroke-width:1.0;"/><line style="stroke:#181818;stroke-width:1.0;" x1="255.75" x2="465.75" y1="205.4063" y2="205.4063"/><text fill="#000000" font-family="sans-serif" font-size="13" font-weight="bold" lengthAdjust="spacing" textLength="7" x="262.75" y="200.1436">4</text><text fill="#000000" font-family="sans-serif" font-size="13" lengthAdjust="spacing" textLength="186" x="273.75" y="200.1436">roomToDTO(RoomList roomList)</text><polygon fill="#181818" points="266.75,232.6973,256.75,236.6973,266.75,240.6973,262.75,236.6973" style="stroke:#181818;stroke-width:1.0;"/><line style="stroke:#181818;stroke-width:1.0;stroke-dasharray:2.0,2.0;" x1="260.75" x2="475.75" y1="236.6973" y2="236.6973"/><text fill="#000000" font-family="sans-serif" font-size="13" font-weight="bold" lengthAdjust="spacing" textLength="7" x="272.75" y="231.4346">5</text><text fill="#000000" font-family="sans-serif" font-size="13" lengthAdjust="spacing" textLength="143" x="283.75" y="231.4346">Map&lt;RoomDTO, Room&gt;</text><polygon fill="#181818" points="129.75,263.9883,119.75,267.9883,129.75,271.9883,125.75,267.9883" style="stroke:#181818;stroke-width:1.0;"/><line style="stroke:#181818;stroke-width:1.0;stroke-dasharray:2.0,2.0;" x1="123.75" x2="249.75" y1="267.9883" y2="267.9883"/><text fill="#000000" font-family="sans-serif" font-size="13" font-weight="bold" lengthAdjust="spacing" textLength="7" x="135.75" y="262.7256">6</text><text fill="#000000" font-family="sans-serif" font-size="13" lengthAdjust="spacing" textLength="97" x="146.75" y="262.7256">List&lt;RoomDTO&gt;</text><!--SRC=[TP3HIiCm58RlynG_kvgmYk1T6OCn1GL5qFa0n_Qu1hgSafnE7zyaMsqjU1DEa-___ZHgjMMylztSei0sW1oszT4w6zIJYb_X4L_a52fewCGWjF4CyWd-ZeDr1tYHOrWX2BGXZO4gMgf69334SOfoRHLMhusXNiNrnm_sndJarLQsI_v5-HHrMrVVH_Gr6dVYr4lRib-00dRgstaYOS_KTHTa_9nn3z87paYUZ2assLVYmBahLI-l35LgJwHyBaiB8fap_w9dOrvH_7e7qjGy8mVhUDaoF-1UxlOloo6Njz8mQPhytZXEEkF6EXr4poh3csdx9BqkYaiaDGoPFtH-W1y0]--></g></svg>