<?xml version="1.0" encoding="us-ascii" standalone="no"?><svg xmlns="http://www.w3.org/2000/svg" xmlns:xlink="http://www.w3.org/1999/xlink" contentStyleType="text/css" height="818px" preserveAspectRatio="none" style="width:1085px;height:818px;background:#FFFFFF;" version="1.1" viewBox="0 0 1085 818" width="1085px" zoomAndPan="magnify"><defs/><g><text fill="#000000" font-family="sans-serif" font-size="14" font-weight="bold" lengthAdjust="spacing" textLength="367" x="350.25" y="25.1074">US25: As Product Owner, I want the system to have a</text><text fill="#000000" font-family="sans-serif" font-size="14" font-weight="bold" lengthAdjust="spacing" textLength="537" x="269.25" y="43.7285">type of sensor that gives the average power consumption over a period (W).</text><!--class SensorFunctionality--><g id="elem_SensorFunctionality"><rect codeLine="5" fill="#F1F1F1" height="252.832" id="SensorFunctionality" rx="2.5" ry="2.5" style="stroke:#181818;stroke-width:0.5;" width="157" x="697.5" y="357.2422"/><ellipse cx="712.5" cy="373.2422" fill="#EB937F" rx="11" ry="11" style="stroke:#181818;stroke-width:1.0;"/><path d="M711.3594,374.0391 L711.3594,376.5391 L715.6875,376.5391 L715.6875,375.6172 Q715.6875,375.0078 715.9219,374.7422 Q716.1719,374.4766 716.5469,374.4766 Q716.9219,374.4766 717.1563,374.7422 Q717.3906,375.0078 717.3906,375.6172 L717.3906,378.2422 L709.3906,378.2422 Q708.7656,378.2422 708.5,378.0078 Q708.25,377.7734 708.25,377.3828 Q708.25,377.0078 708.5156,376.7734 Q708.7813,376.5391 709.3906,376.5391 L709.6563,376.5391 L709.6563,369.8828 L709.3906,369.8828 Q708.7656,369.8828 708.5,369.6484 Q708.25,369.4141 708.25,369.0234 Q708.25,368.6484 708.5,368.4141 Q708.7656,368.1797 709.3906,368.1797 L717.0156,368.1797 L717.0156,370.7734 Q717.0156,371.3828 716.7813,371.6484 Q716.5625,371.8984 716.1719,371.8984 Q715.7969,371.8984 715.5625,371.6484 Q715.3281,371.3828 715.3281,370.7734 L715.3281,369.8828 L711.3594,369.8828 L711.3594,372.3359 L712.8438,372.3359 Q712.8438,371.6797 712.9688,371.4922 Q713.2344,371.0859 713.7031,371.0859 Q714.0781,371.0859 714.3125,371.3516 Q714.5469,371.6016 714.5469,372.2109 L714.5469,374.1797 Q714.5469,374.7266 714.4219,374.9141 Q714.1563,375.3047 713.7031,375.3047 Q713.2344,375.3047 712.9688,374.8984 Q712.8438,374.7109 712.8438,374.0391 L711.3594,374.0391 Z " fill="#000000"/><text fill="#000000" font-family="sans-serif" font-size="14" lengthAdjust="spacing" textLength="125" x="726.5" y="379.0391">SensorFunctionality</text><line style="stroke:#181818;stroke-width:0.5;" x1="698.5" x2="853.5" y1="389.2422" y2="389.2422"/><text fill="#000000" font-family="sans-serif" font-size="14" lengthAdjust="spacing" textLength="107" x="703.5" y="408.3496">TEMPERATURE,</text><text fill="#000000" font-family="sans-serif" font-size="14" lengthAdjust="spacing" textLength="67" x="703.5" y="426.9707">HUMIDITY,</text><text fill="#000000" font-family="sans-serif" font-size="14" lengthAdjust="spacing" textLength="115" x="703.5" y="445.5918">BINARY_STATUS,</text><text fill="#000000" font-family="sans-serif" font-size="14" lengthAdjust="spacing" textLength="121" x="703.5" y="464.2129">SCALE_POSITION,</text><text fill="#000000" font-family="sans-serif" font-size="14" lengthAdjust="spacing" textLength="39" x="703.5" y="482.834">WIND,</text><text fill="#000000" font-family="sans-serif" font-size="14" lengthAdjust="spacing" textLength="62" x="703.5" y="501.4551">SUNRISE,</text><text fill="#000000" font-family="sans-serif" font-size="14" lengthAdjust="spacing" textLength="58" x="703.5" y="520.0762">SUNSET,</text><text fill="#000000" font-family="sans-serif" font-size="14" lengthAdjust="spacing" textLength="85" x="703.5" y="538.6973">DEW_POINT,</text><text fill="#000000" font-family="sans-serif" font-size="14" lengthAdjust="spacing" textLength="132" x="703.5" y="557.3184">SOLAR_RADIATION,</text><text fill="#000000" font-family="sans-serif" font-size="14" lengthAdjust="spacing" textLength="56" x="703.5" y="575.9395">POWER,</text><text fill="#000000" font-family="sans-serif" font-size="14" lengthAdjust="spacing" textLength="57" x="703.5" y="594.5605">ENERGY</text><line style="stroke:#181818;stroke-width:0.5;" x1="698.5" x2="853.5" y1="602.0742" y2="602.0742"/></g><!--class Sensor--><g id="elem_Sensor"><rect codeLine="19" fill="#F1F1F1" height="85.2422" id="Sensor" rx="2.5" ry="2.5" style="stroke:#181818;stroke-width:0.5;" width="314" x="309" y="65.2422"/><ellipse cx="439.25" cy="81.2422" fill="#B4A7E5" rx="11" ry="11" style="stroke:#181818;stroke-width:1.0;"/><path d="M440.2031,77.8828 L440.2031,84.5391 L441.9219,84.5391 Q442.5313,84.5391 442.7969,84.7734 Q443.0625,85.0078 443.0625,85.3984 Q443.0625,85.7734 442.7969,86.0078 Q442.5313,86.2422 441.9219,86.2422 L436.7813,86.2422 Q436.1719,86.2422 435.9063,86.0078 Q435.6406,85.7734 435.6406,85.3828 Q435.6406,85.0078 435.9063,84.7734 Q436.1719,84.5391 436.7813,84.5391 L438.5,84.5391 L438.5,77.8828 L436.7813,77.8828 Q436.1719,77.8828 435.9063,77.6484 Q435.6406,77.4141 435.6406,77.0234 Q435.6406,76.6484 435.9063,76.4141 Q436.1719,76.1797 436.7813,76.1797 L441.9219,76.1797 Q442.5313,76.1797 442.7969,76.4141 Q443.0625,76.6484 443.0625,77.0234 Q443.0625,77.4141 442.7969,77.6484 Q442.5313,77.8828 441.9219,77.8828 L440.2031,77.8828 Z " fill="#000000"/><text fill="#000000" font-family="sans-serif" font-size="14" font-style="italic" lengthAdjust="spacing" textLength="45" x="459.75" y="87.0391">Sensor</text><line style="stroke:#181818;stroke-width:0.5;" x1="310" x2="622" y1="97.2422" y2="97.2422"/><line style="stroke:#181818;stroke-width:0.5;" x1="310" x2="622" y1="105.2422" y2="105.2422"/><ellipse cx="320" cy="120.0527" fill="#84BE84" rx="3" ry="3" style="stroke:#038048;stroke-width:1.0;"/><text fill="#000000" font-family="sans-serif" font-size="14" lengthAdjust="spacing" textLength="156" x="329" y="124.3496">getSensorName(): String</text><ellipse cx="320" cy="138.6738" fill="#84BE84" rx="3" ry="3" style="stroke:#038048;stroke-width:1.0;"/><text fill="#000000" font-family="sans-serif" font-size="14" lengthAdjust="spacing" textLength="288" x="329" y="142.9707">getSensorFunctionality(): SensorFunctionality</text></g><!--class SensorPowerAverage--><g id="elem_SensorPowerAverage"><rect codeLine="25" fill="#F1F1F1" height="85.2422" id="SensorPowerAverage" rx="2.5" ry="2.5" style="stroke:#181818;stroke-width:0.5;" width="347" x="292.5" y="211.2422"/><ellipse cx="393.75" cy="227.2422" fill="#B4A7E5" rx="11" ry="11" style="stroke:#181818;stroke-width:1.0;"/><path d="M394.7031,223.8828 L394.7031,230.5391 L396.4219,230.5391 Q397.0313,230.5391 397.2969,230.7734 Q397.5625,231.0078 397.5625,231.3984 Q397.5625,231.7734 397.2969,232.0078 Q397.0313,232.2422 396.4219,232.2422 L391.2813,232.2422 Q390.6719,232.2422 390.4063,232.0078 Q390.1406,231.7734 390.1406,231.3828 Q390.1406,231.0078 390.4063,230.7734 Q390.6719,230.5391 391.2813,230.5391 L393,230.5391 L393,223.8828 L391.2813,223.8828 Q390.6719,223.8828 390.4063,223.6484 Q390.1406,223.4141 390.1406,223.0234 Q390.1406,222.6484 390.4063,222.4141 Q390.6719,222.1797 391.2813,222.1797 L396.4219,222.1797 Q397.0313,222.1797 397.2969,222.4141 Q397.5625,222.6484 397.5625,223.0234 Q397.5625,223.4141 397.2969,223.6484 Q397.0313,223.8828 396.4219,223.8828 L394.7031,223.8828 Z " fill="#000000"/><text fill="#000000" font-family="sans-serif" font-size="14" font-style="italic" lengthAdjust="spacing" textLength="136" x="414.25" y="233.0391">SensorPowerAverage</text><line style="stroke:#181818;stroke-width:0.5;" x1="293.5" x2="638.5" y1="243.2422" y2="243.2422"/><line style="stroke:#181818;stroke-width:0.5;" x1="293.5" x2="638.5" y1="251.2422" y2="251.2422"/><ellipse cx="303.5" cy="275.3633" fill="#84BE84" rx="3" ry="3" style="stroke:#038048;stroke-width:1.0;"/><text fill="#000000" font-family="sans-serif" font-size="14" lengthAdjust="spacing" textLength="224" x="312.5" y="270.3496">getAveragePowerForSpecificPeriod</text><text fill="#000000" font-family="sans-serif" font-size="14" lengthAdjust="spacing" textLength="321" x="312.5" y="288.9707">(Timestamp startDate, Timestamp endDate): String</text></g><!--class Value--><g id="elem_Value"><rect codeLine="29" fill="#F1F1F1" height="66.6211" id="Value" rx="2.5" ry="2.5" style="stroke:#181818;stroke-width:0.5;" width="189" x="889.5" y="450.2422"/><ellipse cx="961.75" cy="466.2422" fill="#B4A7E5" rx="11" ry="11" style="stroke:#181818;stroke-width:1.0;"/><path d="M962.7031,462.8828 L962.7031,469.5391 L964.4219,469.5391 Q965.0313,469.5391 965.2969,469.7734 Q965.5625,470.0078 965.5625,470.3984 Q965.5625,470.7734 965.2969,471.0078 Q965.0313,471.2422 964.4219,471.2422 L959.2813,471.2422 Q958.6719,471.2422 958.4063,471.0078 Q958.1406,470.7734 958.1406,470.3828 Q958.1406,470.0078 958.4063,469.7734 Q958.6719,469.5391 959.2813,469.5391 L961,469.5391 L961,462.8828 L959.2813,462.8828 Q958.6719,462.8828 958.4063,462.6484 Q958.1406,462.4141 958.1406,462.0234 Q958.1406,461.6484 958.4063,461.4141 Q958.6719,461.1797 959.2813,461.1797 L964.4219,461.1797 Q965.0313,461.1797 965.2969,461.4141 Q965.5625,461.6484 965.5625,462.0234 Q965.5625,462.4141 965.2969,462.6484 Q965.0313,462.8828 964.4219,462.8828 L962.7031,462.8828 Z " fill="#000000"/><text fill="#000000" font-family="sans-serif" font-size="14" font-style="italic" lengthAdjust="spacing" textLength="36" x="982.25" y="472.0391">Value</text><line style="stroke:#181818;stroke-width:0.5;" x1="890.5" x2="1077.5" y1="482.2422" y2="482.2422"/><line style="stroke:#181818;stroke-width:0.5;" x1="890.5" x2="1077.5" y1="490.2422" y2="490.2422"/><ellipse cx="900.5" cy="505.0527" fill="#84BE84" rx="3" ry="3" style="stroke:#038048;stroke-width:1.0;"/><text fill="#000000" font-family="sans-serif" font-size="14" lengthAdjust="spacing" textLength="163" x="909.5" y="509.3496">getValueWithUnit(): String</text></g><!--class PowerAverageSensorValue--><g id="elem_PowerAverageSensorValue"><rect codeLine="33" fill="#F1F1F1" height="122.4844" id="PowerAverageSensorValue" rx="2.5" ry="2.5" style="stroke:#181818;stroke-width:0.5;" width="205" x="363.5" y="689.2422"/><ellipse cx="378.5" cy="705.2422" fill="#ADD1B2" rx="11" ry="11" style="stroke:#181818;stroke-width:1.0;"/><path d="M381.2656,701.1172 Q381.4219,700.8984 381.6094,700.7891 Q381.7969,700.6797 382.0156,700.6797 Q382.3906,700.6797 382.625,700.9453 Q382.8594,701.1953 382.8594,701.8047 L382.8594,703.2578 Q382.8594,703.8672 382.625,704.1328 Q382.3906,704.3984 382.0156,704.3984 Q381.6719,704.3984 381.4688,704.1953 Q381.2656,704.0078 381.1563,703.4922 Q381.1094,703.1328 380.9219,702.9453 Q380.5938,702.5703 379.9844,702.3516 Q379.375,702.1328 378.75,702.1328 Q377.9844,702.1328 377.3438,702.4609 Q376.7188,702.7891 376.2188,703.5391 Q375.7344,704.2891 375.7344,705.3203 L375.7344,706.4141 Q375.7344,707.6484 376.625,708.4766 Q377.5156,709.2891 379.1094,709.2891 Q380.0469,709.2891 380.7031,709.0391 Q381.0938,708.8828 381.5156,708.4453 Q381.7813,708.1797 381.9219,708.1016 Q382.0781,708.0234 382.2813,708.0234 Q382.6094,708.0234 382.8594,708.2891 Q383.125,708.5391 383.125,708.8828 Q383.125,709.2266 382.7813,709.6328 Q382.2813,710.2109 381.4844,710.5391 Q380.4063,710.9922 379.1094,710.9922 Q377.5938,710.9922 376.3906,710.3672 Q375.4063,709.8672 374.7188,708.8047 Q374.0313,707.7266 374.0313,706.4453 L374.0313,705.2891 Q374.0313,703.9609 374.6406,702.8203 Q375.2656,701.6641 376.3594,701.0547 Q377.4531,700.4297 378.6875,700.4297 Q379.4219,700.4297 380.0625,700.6016 Q380.7188,700.7578 381.2656,701.1172 Z " fill="#000000"/><text fill="#000000" font-family="sans-serif" font-size="14" lengthAdjust="spacing" textLength="173" x="392.5" y="711.0391">PowerAverageSensorValue</text><line style="stroke:#181818;stroke-width:0.5;" x1="364.5" x2="567.5" y1="721.2422" y2="721.2422"/><rect fill="none" height="6" style="stroke:#C82930;stroke-width:1.0;" width="6" x="371.5" y="733.0527"/><text fill="#000000" font-family="sans-serif" font-size="14" lengthAdjust="spacing" textLength="68" x="383.5" y="740.3496">unit: String</text><rect fill="none" height="6" style="stroke:#C82930;stroke-width:1.0;" width="6" x="371.5" y="751.6738"/><text fill="#000000" font-family="sans-serif" font-size="14" lengthAdjust="spacing" textLength="135" x="383.5" y="758.9707">startDate: Timestamp</text><rect fill="none" height="6" style="stroke:#C82930;stroke-width:1.0;" width="6" x="371.5" y="770.2949"/><text fill="#000000" font-family="sans-serif" font-size="14" lengthAdjust="spacing" textLength="131" x="383.5" y="777.5918">endDate: Timestamp</text><line style="stroke:#181818;stroke-width:0.5;" x1="364.5" x2="567.5" y1="785.1055" y2="785.1055"/><ellipse cx="374.5" cy="799.916" fill="#84BE84" rx="3" ry="3" style="stroke:#038048;stroke-width:1.0;"/><text fill="#000000" font-family="sans-serif" font-size="14" lengthAdjust="spacing" textLength="163" x="383.5" y="804.2129">getValueWithUnit(): String</text></g><!--class PowerAverageSensor--><g id="elem_PowerAverageSensor"><rect codeLine="42" fill="#F1F1F1" height="196.9688" id="PowerAverageSensor" rx="2.5" ry="2.5" style="stroke:#181818;stroke-width:0.5;" width="347" x="292.5" y="385.2422"/><ellipse cx="393.25" cy="401.2422" fill="#ADD1B2" rx="11" ry="11" style="stroke:#181818;stroke-width:1.0;"/><path d="M396.0156,397.1172 Q396.1719,396.8984 396.3594,396.7891 Q396.5469,396.6797 396.7656,396.6797 Q397.1406,396.6797 397.375,396.9453 Q397.6094,397.1953 397.6094,397.8047 L397.6094,399.2578 Q397.6094,399.8672 397.375,400.1328 Q397.1406,400.3984 396.7656,400.3984 Q396.4219,400.3984 396.2188,400.1953 Q396.0156,400.0078 395.9063,399.4922 Q395.8594,399.1328 395.6719,398.9453 Q395.3438,398.5703 394.7344,398.3516 Q394.125,398.1328 393.5,398.1328 Q392.7344,398.1328 392.0938,398.4609 Q391.4688,398.7891 390.9688,399.5391 Q390.4844,400.2891 390.4844,401.3203 L390.4844,402.4141 Q390.4844,403.6484 391.375,404.4766 Q392.2656,405.2891 393.8594,405.2891 Q394.7969,405.2891 395.4531,405.0391 Q395.8438,404.8828 396.2656,404.4453 Q396.5313,404.1797 396.6719,404.1016 Q396.8281,404.0234 397.0313,404.0234 Q397.3594,404.0234 397.6094,404.2891 Q397.875,404.5391 397.875,404.8828 Q397.875,405.2266 397.5313,405.6328 Q397.0313,406.2109 396.2344,406.5391 Q395.1563,406.9922 393.8594,406.9922 Q392.3438,406.9922 391.1406,406.3672 Q390.1563,405.8672 389.4688,404.8047 Q388.7813,403.7266 388.7813,402.4453 L388.7813,401.2891 Q388.7813,399.9609 389.3906,398.8203 Q390.0156,397.6641 391.1094,397.0547 Q392.2031,396.4297 393.4375,396.4297 Q394.1719,396.4297 394.8125,396.6016 Q395.4688,396.7578 396.0156,397.1172 Z " fill="#000000"/><text fill="#000000" font-family="sans-serif" font-size="14" lengthAdjust="spacing" textLength="137" x="413.75" y="407.0391">PowerAverageSensor</text><line style="stroke:#181818;stroke-width:0.5;" x1="293.5" x2="638.5" y1="417.2422" y2="417.2422"/><rect fill="none" height="6" style="stroke:#C82930;stroke-width:1.0;" width="6" x="300.5" y="429.0527"/><text fill="#000000" font-family="sans-serif" font-size="14" lengthAdjust="spacing" textLength="124" x="312.5" y="436.3496">sensorName: String</text><rect fill="none" height="6" style="stroke:#C82930;stroke-width:1.0;" width="6" x="300.5" y="447.6738"/><text fill="#000000" font-family="sans-serif" font-size="14" lengthAdjust="spacing" textLength="208" x="312.5" y="454.9707">functionality: SensorFunctionality</text><rect fill="none" height="6" style="stroke:#C82930;stroke-width:1.0;" width="6" x="300.5" y="466.2949"/><text fill="#000000" font-family="sans-serif" font-size="14" lengthAdjust="spacing" textLength="171" x="312.5" y="473.5918">factoryValue: FactoryValue</text><rect fill="none" height="6" style="stroke:#C82930;stroke-width:1.0;" width="6" x="300.5" y="484.916"/><text fill="#000000" font-family="sans-serif" font-size="14" lengthAdjust="spacing" textLength="78" x="312.5" y="492.2129">value: Value</text><line style="stroke:#181818;stroke-width:0.5;" x1="293.5" x2="638.5" y1="499.7266" y2="499.7266"/><ellipse cx="303.5" cy="514.5371" fill="#84BE84" rx="3" ry="3" style="stroke:#038048;stroke-width:1.0;"/><text fill="#000000" font-family="sans-serif" font-size="14" lengthAdjust="spacing" textLength="156" x="312.5" y="518.834">getSensorName(): String</text><ellipse cx="303.5" cy="533.1582" fill="#84BE84" rx="3" ry="3" style="stroke:#038048;stroke-width:1.0;"/><text fill="#000000" font-family="sans-serif" font-size="14" lengthAdjust="spacing" textLength="288" x="312.5" y="537.4551">getSensorFunctionality(): SensorFunctionality</text><ellipse cx="303.5" cy="561.0898" fill="#84BE84" rx="3" ry="3" style="stroke:#038048;stroke-width:1.0;"/><text fill="#000000" font-family="sans-serif" font-size="14" lengthAdjust="spacing" textLength="224" x="312.5" y="556.0762">getAveragePowerForSpecificPeriod</text><text fill="#000000" font-family="sans-serif" font-size="14" lengthAdjust="spacing" textLength="321" x="312.5" y="574.6973">(Timestamp startDate, Timestamp endDate): String</text></g><!--class FactoryValue--><g id="elem_FactoryValue"><rect codeLine="53" fill="#F1F1F1" height="66.6211" id="FactoryValue" rx="2.5" ry="2.5" style="stroke:#181818;stroke-width:0.5;" width="228" x="7" y="450.2422"/><ellipse cx="74.75" cy="466.2422" fill="#ADD1B2" rx="11" ry="11" style="stroke:#181818;stroke-width:1.0;"/><path d="M77.5156,462.1172 Q77.6719,461.8984 77.8594,461.7891 Q78.0469,461.6797 78.2656,461.6797 Q78.6406,461.6797 78.875,461.9453 Q79.1094,462.1953 79.1094,462.8047 L79.1094,464.2578 Q79.1094,464.8672 78.875,465.1328 Q78.6406,465.3984 78.2656,465.3984 Q77.9219,465.3984 77.7188,465.1953 Q77.5156,465.0078 77.4063,464.4922 Q77.3594,464.1328 77.1719,463.9453 Q76.8438,463.5703 76.2344,463.3516 Q75.625,463.1328 75,463.1328 Q74.2344,463.1328 73.5938,463.4609 Q72.9688,463.7891 72.4688,464.5391 Q71.9844,465.2891 71.9844,466.3203 L71.9844,467.4141 Q71.9844,468.6484 72.875,469.4766 Q73.7656,470.2891 75.3594,470.2891 Q76.2969,470.2891 76.9531,470.0391 Q77.3438,469.8828 77.7656,469.4453 Q78.0313,469.1797 78.1719,469.1016 Q78.3281,469.0234 78.5313,469.0234 Q78.8594,469.0234 79.1094,469.2891 Q79.375,469.5391 79.375,469.8828 Q79.375,470.2266 79.0313,470.6328 Q78.5313,471.2109 77.7344,471.5391 Q76.6563,471.9922 75.3594,471.9922 Q73.8438,471.9922 72.6406,471.3672 Q71.6563,470.8672 70.9688,469.8047 Q70.2813,468.7266 70.2813,467.4453 L70.2813,466.2891 Q70.2813,464.9609 70.8906,463.8203 Q71.5156,462.6641 72.6094,462.0547 Q73.7031,461.4297 74.9375,461.4297 Q75.6719,461.4297 76.3125,461.6016 Q76.9688,461.7578 77.5156,462.1172 Z " fill="#000000"/><text fill="#000000" font-family="sans-serif" font-size="14" lengthAdjust="spacing" textLength="84" x="95.25" y="472.0391">FactoryValue</text><line style="stroke:#181818;stroke-width:0.5;" x1="8" x2="234" y1="482.2422" y2="482.2422"/><line style="stroke:#181818;stroke-width:0.5;" x1="8" x2="234" y1="490.2422" y2="490.2422"/><ellipse cx="18" cy="505.0527" fill="#84BE84" rx="3" ry="3" style="stroke:#038048;stroke-width:1.0;"/><text fill="#000000" font-family="sans-serif" font-size="14" lengthAdjust="spacing" textLength="202" x="27" y="509.3496">createValuePeriodTime(): Value</text></g><!--reverse link Sensor to SensorPowerAverage--><g id="link_Sensor_SensorPowerAverage"><path d="M466,168.3922 C466,187.5022 466,192.0922 466,211.1822 " fill="none" id="Sensor-backto-SensorPowerAverage" style="stroke:#181818;stroke-width:1.0;"/><polygon fill="none" points="466,150.3922,460,168.3922,472,168.3922,466,150.3922" style="stroke:#181818;stroke-width:1.0;"/></g><!--reverse link Value to PowerAverageSensorValue--><g id="link_Value_PowerAverageSensorValue"><path d="M951.7546,531.9441 C931.4346,560.1341 909.23,585.5322 872,610.2422 C778.74,672.1522 655.09,709.2722 568.86,729.3722 " fill="none" id="Value-backto-PowerAverageSensorValue" style="stroke:#181818;stroke-width:1.0;stroke-dasharray:7.0,7.0;"/><polygon fill="none" points="962.28,517.3422,946.8873,528.4356,956.6219,535.4526,962.28,517.3422" style="stroke:#181818;stroke-width:1.0;"/></g><!--reverse link SensorPowerAverage to PowerAverageSensor--><g id="link_SensorPowerAverage_PowerAverageSensor"><path d="M466,314.2922 C466,339.2122 466,354.0122 466,385.1522 " fill="none" id="SensorPowerAverage-backto-PowerAverageSensor" style="stroke:#181818;stroke-width:1.0;stroke-dasharray:7.0,7.0;"/><polygon fill="none" points="466,296.2922,460,314.2922,472,314.2922,466,296.2922" style="stroke:#181818;stroke-width:1.0;"/></g><!--link FactoryValue to PowerAverageSensor--><g id="link_FactoryValue_PowerAverageSensor"><path codeLine="57" d="M235.4,483.7422 C253.74,483.7422 273.07,483.7422 292.42,483.7422 " fill="none" id="FactoryValue-PowerAverageSensor" style="stroke:#181818;stroke-width:1.0;"/><text fill="#000000" font-family="sans-serif" font-size="13" lengthAdjust="spacing" textLength="21" x="253.25" y="476.7705">has</text></g><!--link FactoryValue to PowerAverageSensorValue--><g id="link_FactoryValue_PowerAverageSensorValue"><path codeLine="58" d="M159.77,517.3222 C190.63,543.0122 235.11,579.5122 275,610.2422 C309.27,636.6522 342.8747,661.3809 376.2547,685.4709 " fill="none" id="FactoryValue-to-PowerAverageSensorValue" style="stroke:#181818;stroke-width:1.0;stroke-dasharray:7.0,7.0;"/><polygon fill="#181818" points="381.12,688.9822,376.1629,680.4718,377.0656,686.0562,371.4812,686.9589,381.12,688.9822" style="stroke:#181818;stroke-width:1.0;"/><text fill="#000000" font-family="sans-serif" font-size="13" lengthAdjust="spacing" textLength="57" x="339" y="655.2705">&#171;creates&#187;</text></g><!--link PowerAverageSensor to SensorFunctionality--><g id="link_PowerAverageSensor_SensorFunctionality"><path codeLine="59" d="M639.58,483.7422 C659.78,483.7422 679.55,483.7422 697.5,483.7422 " fill="none" id="PowerAverageSensor-SensorFunctionality" style="stroke:#181818;stroke-width:1.0;"/><text fill="#000000" font-family="sans-serif" font-size="13" lengthAdjust="spacing" textLength="21" x="658" y="476.7705">has</text></g><!--link PowerAverageSensor to PowerAverageSensorValue--><g id="link_PowerAverageSensor_PowerAverageSensorValue"><path codeLine="60" d="M466,582.4822 C466,618.2422 466,657.6222 466,689.1322 " fill="none" id="PowerAverageSensor-PowerAverageSensorValue" style="stroke:#181818;stroke-width:1.0;"/><text fill="#000000" font-family="sans-serif" font-size="13" lengthAdjust="spacing" textLength="21" x="467" y="655.2705">has</text></g><!--SRC=[jLJVYzf047xFNp7SIptEA1Jw4WuXhR4Dt4L9OaKuE9OuwaAo6tOdMYdztxl91asgGXzQ7sHdvfjlllb1Fko9IksDnsNE15L5FifaCSvofhMxuModME4un2b7U5Wc7pzvu6jOABcfCeBvKQ0QGWX7amkqHz0dJLW0ITYp0mA3Dm5qAX7a5ZGABPM1CO8TFw1kCWnCiHr2AO-e89D2LqL9N0gG9c8OIbHSRc2mUXmzE0wAge2aOPfL8gk1BETqWfyEc5yQl2w2s4-NSJ1i7D-Mh-4qJDVM-Xn6Vhn-JrA3IAmh-UA_1E-BUHAcuJoolbKOJTleCeh393WRIP3QzpHOcQGmQira_kB7xx4_3VqBpMA-2cBx3A8W_hfkdhySXmj2jMKPjfsqufzsIDOHiG87ZnuafBZO_H7izTsWhjsEgN9LPb6Fs6_dZJy8nKQteOk0DjvWPr8b9MPyoxD5iuKtCKXvWPfOKOBvLpHbX4EuE0rdxRfexxNxdUKLThfjx1Md_L9m6lIIcXE4hcIhr5BmeionG47QSbfAjp8qlQcvPv7UHQIDj4gx_h_HTLTOLzFrl5k1-hpUlinjTtctDsfnB2EfJeq-3sOToyOFDc0z__oe_kEDsAbs6p9dyfGfDC36jEGrIQtEDcZoUXdkZRLuvaka-x3HQ7Bli3nuVhP5zMJYt5YoUsimjiOjj7k_K9tY_0O0]--></g></svg>