<?xml version="1.0" encoding="us-ascii" standalone="no"?><svg xmlns="http://www.w3.org/2000/svg" xmlns:xlink="http://www.w3.org/1999/xlink" contentStyleType="text/css" height="288px" preserveAspectRatio="none" style="width:182px;height:288px;background:#FFFFFF;" version="1.1" viewBox="0 0 182 288" width="182px" zoomAndPan="magnify"><defs/><g><text fill="#000000" font-family="sans-serif" font-size="14" font-weight="bold" lengthAdjust="spacing" textLength="132" x="24" y="30.1074">UC03.2 - Edit Room</text><rect fill="#FFFFFF" height="31.291" style="stroke:#181818;stroke-width:1.0;" width="10" x="125.5" y="156.5332"/><line style="stroke:#181818;stroke-width:0.5;stroke-dasharray:5.0,5.0;" x1="22" x2="22" y1="123.2422" y2="205.8242"/><line style="stroke:#181818;stroke-width:0.5;stroke-dasharray:5.0,5.0;" x1="130" x2="130" y1="123.2422" y2="205.8242"/><text fill="#000000" font-family="sans-serif" font-size="14" lengthAdjust="spacing" textLength="29" x="5" y="119.7285">User</text><ellipse cx="22.5" cy="53.1211" fill="#E2E2F0" rx="8" ry="8" style="stroke:#181818;stroke-width:0.5;"/><path d="M22.5,61.1211 L22.5,88.1211 M9.5,69.1211 L35.5,69.1211 M22.5,88.1211 L9.5,103.1211 M22.5,88.1211 L35.5,103.1211 " fill="none" style="stroke:#181818;stroke-width:0.5;"/><text fill="#000000" font-family="sans-serif" font-size="14" lengthAdjust="spacing" textLength="29" x="5" y="219.9316">User</text><ellipse cx="22.5" cy="231.9453" fill="#E2E2F0" rx="8" ry="8" style="stroke:#181818;stroke-width:0.5;"/><path d="M22.5,239.9453 L22.5,266.9453 M9.5,247.9453 L35.5,247.9453 M22.5,266.9453 L9.5,281.9453 M22.5,266.9453 L35.5,281.9453 " fill="none" style="stroke:#181818;stroke-width:0.5;"/><rect fill="#E2E2F0" height="51.2422" rx="2.5" ry="2.5" style="stroke:#181818;stroke-width:0.5;" width="91" x="85" y="71"/><text fill="#000000" font-family="sans-serif" font-size="14" font-style="italic" lengthAdjust="spacing" textLength="62" x="99.5" y="93.1074">&#171;System&#187;</text><text fill="#000000" font-family="sans-serif" font-size="14" lengthAdjust="spacing" textLength="77" x="92" y="111.7285">:SmartHome</text><rect fill="#E2E2F0" height="51.2422" rx="2.5" ry="2.5" style="stroke:#181818;stroke-width:0.5;" width="91" x="85" y="204.8242"/><text fill="#000000" font-family="sans-serif" font-size="14" font-style="italic" lengthAdjust="spacing" textLength="62" x="99.5" y="226.9316">&#171;System&#187;</text><text fill="#000000" font-family="sans-serif" font-size="14" lengthAdjust="spacing" textLength="77" x="92" y="245.5527">:SmartHome</text><rect fill="#FFFFFF" height="31.291" style="stroke:#181818;stroke-width:1.0;" width="10" x="125.5" y="156.5332"/><polygon fill="#181818" points="113.5,152.5332,123.5,156.5332,113.5,160.5332,117.5,156.5332" style="stroke:#181818;stroke-width:1.0;"/><line style="stroke:#181818;stroke-width:1.0;" x1="22.5" x2="119.5" y1="156.5332" y2="156.5332"/><text fill="#000000" font-family="sans-serif" font-size="13" font-weight="bold" lengthAdjust="spacing" textLength="7" x="29.5" y="151.2705">1</text><text fill="#000000" font-family="sans-serif" font-size="13" lengthAdjust="spacing" textLength="59" x="40.5" y="151.2705">edit Room</text><polygon fill="#181818" points="33.5,183.8242,23.5,187.8242,33.5,191.8242,29.5,187.8242" style="stroke:#181818;stroke-width:1.0;"/><line style="stroke:#181818;stroke-width:1.0;stroke-dasharray:2.0,2.0;" x1="27.5" x2="129.5" y1="187.8242" y2="187.8242"/><text fill="#000000" font-family="sans-serif" font-size="13" font-weight="bold" lengthAdjust="spacing" textLength="7" x="39.5" y="182.5615">2</text><text fill="#000000" font-family="sans-serif" font-size="13" lengthAdjust="spacing" textLength="68" x="50.5" y="182.5615">room edited</text><!--SRC=[ROt12i8m44Jl-nL3xn7HMma14S6pfH-mDWi6J5EIhU3VcofO3zxcCVCO3NeNzCVjVhE3mSa7nIMbICIpfd6ELyb4Xq5JHbzgdZXh6CB4ew9fkrZndA8qu8AoqAqIhEsUHIKwHxHeC6vjMyZtXWSD3rPPsy_U6lChvBfzM-B9on_f1G00]--></g></svg>