<?xml version="1.0" encoding="us-ascii" standalone="no"?><svg xmlns="http://www.w3.org/2000/svg" xmlns:xlink="http://www.w3.org/1999/xlink" contentStyleType="text/css" height="960px" preserveAspectRatio="none" style="width:1049px;height:960px;background:#FFFFFF;" version="1.1" viewBox="0 0 1049 960" width="1049px" zoomAndPan="magnify"><defs/><g><!--cluster ddd--><g id="cluster_ddd"><path d="M292.5,6.0137 L320.5,6.0137 A3.75,3.75 0 0 1 323,8.5137 L330,30.6348 L559.5,30.6348 A2.5,2.5 0 0 1 562,33.1348 L562,695.5137 A2.5,2.5 0 0 1 559.5,698.0137 L292.5,698.0137 A2.5,2.5 0 0 1 290,695.5137 L290,8.5137 A2.5,2.5 0 0 1 292.5,6.0137 " fill="none" style="stroke:#000000;stroke-width:1.5;"/><line style="stroke:#000000;stroke-width:1.5;" x1="290" x2="330" y1="30.6348" y2="30.6348"/><text fill="#000000" font-family="sans-serif" font-size="14" font-weight="bold" lengthAdjust="spacing" textLength="27" x="294" y="23.1211">ddd</text></g><!--cluster domain--><g id="cluster_domain"><path d="M588.5,215.0137 L640.5,215.0137 A3.75,3.75 0 0 1 643,217.5137 L650,239.6348 L1039.5,239.6348 A2.5,2.5 0 0 1 1042,242.1348 L1042,946.5137 A2.5,2.5 0 0 1 1039.5,949.0137 L588.5,949.0137 A2.5,2.5 0 0 1 586,946.5137 L586,217.5137 A2.5,2.5 0 0 1 588.5,215.0137 " fill="none" style="stroke:#000000;stroke-width:1.5;"/><line style="stroke:#000000;stroke-width:1.5;" x1="586" x2="650" y1="239.6348" y2="239.6348"/><text fill="#000000" font-family="sans-serif" font-size="14" font-weight="bold" lengthAdjust="spacing" textLength="51" x="590" y="232.1211">domain</text></g><!--cluster valueobjects--><g id="cluster_valueobjects"><path d="M714.5,750.0137 L806.5,750.0137 A3.75,3.75 0 0 1 809,752.5137 L816,774.6348 L981.5,774.6348 A2.5,2.5 0 0 1 984,777.1348 L984,922.5137 A2.5,2.5 0 0 1 981.5,925.0137 L714.5,925.0137 A2.5,2.5 0 0 1 712,922.5137 L712,752.5137 A2.5,2.5 0 0 1 714.5,750.0137 " fill="none" style="stroke:#000000;stroke-width:1.5;"/><line style="stroke:#000000;stroke-width:1.5;" x1="712" x2="816" y1="774.6348" y2="774.6348"/><text fill="#000000" font-family="sans-serif" font-size="14" font-weight="bold" lengthAdjust="spacing" textLength="91" x="716" y="767.1211">valueobjects</text></g><!--cluster actuatorfunctionality--><g id="cluster_actuatorfunctionality"><path d="M612.5,260.0137 L757.5,260.0137 A3.75,3.75 0 0 1 760,262.5137 L767,284.6348 L1015.5,284.6348 A2.5,2.5 0 0 1 1018,287.1348 L1018,686.5137 A2.5,2.5 0 0 1 1015.5,689.0137 L612.5,689.0137 A2.5,2.5 0 0 1 610,686.5137 L610,262.5137 A2.5,2.5 0 0 1 612.5,260.0137 " fill="none" style="stroke:#000000;stroke-width:1.5;"/><line style="stroke:#000000;stroke-width:1.5;" x1="610" x2="767" y1="284.6348" y2="284.6348"/><text fill="#000000" font-family="sans-serif" font-size="14" font-weight="bold" lengthAdjust="spacing" textLength="144" x="614" y="277.1211">actuatorfunctionality</text></g><!--cluster repository--><g id="cluster_repository"><path d="M8.5,722.0137 L81.5,722.0137 A3.75,3.75 0 0 1 84,724.5137 L91,746.6348 L559.5,746.6348 A2.5,2.5 0 0 1 562,749.1348 L562,950.5137 A2.5,2.5 0 0 1 559.5,953.0137 L8.5,953.0137 A2.5,2.5 0 0 1 6,950.5137 L6,724.5137 A2.5,2.5 0 0 1 8.5,722.0137 " fill="none" style="stroke:#000000;stroke-width:1.5;"/><line style="stroke:#000000;stroke-width:1.5;" x1="6" x2="91" y1="746.6348" y2="746.6348"/><text fill="#000000" font-family="sans-serif" font-size="14" font-weight="bold" lengthAdjust="spacing" textLength="72" x="10" y="739.1211">repository</text></g><!--class ValueObject--><g id="elem_ValueObject"><rect codeLine="3" fill="#F1F1F1" height="48" id="ValueObject" rx="2.5" ry="2.5" style="stroke:#181818;stroke-width:0.5;" width="109" x="403.5" y="43.0137"/><ellipse cx="418.5" cy="59.0137" fill="#B4A7E5" rx="11" ry="11" style="stroke:#181818;stroke-width:1.0;"/><path d="M419.4531,55.6543 L419.4531,62.3105 L421.1719,62.3105 Q421.7813,62.3105 422.0469,62.5449 Q422.3125,62.7793 422.3125,63.1699 Q422.3125,63.5449 422.0469,63.7793 Q421.7813,64.0137 421.1719,64.0137 L416.0313,64.0137 Q415.4219,64.0137 415.1563,63.7793 Q414.8906,63.5449 414.8906,63.1543 Q414.8906,62.7793 415.1563,62.5449 Q415.4219,62.3105 416.0313,62.3105 L417.75,62.3105 L417.75,55.6543 L416.0313,55.6543 Q415.4219,55.6543 415.1563,55.4199 Q414.8906,55.1855 414.8906,54.7949 Q414.8906,54.4199 415.1563,54.1855 Q415.4219,53.9512 416.0313,53.9512 L421.1719,53.9512 Q421.7813,53.9512 422.0469,54.1855 Q422.3125,54.4199 422.3125,54.7949 Q422.3125,55.1855 422.0469,55.4199 Q421.7813,55.6543 421.1719,55.6543 L419.4531,55.6543 Z " fill="#000000"/><text fill="#000000" font-family="sans-serif" font-size="14" font-style="italic" lengthAdjust="spacing" textLength="77" x="432.5" y="64.8105">ValueObject</text><line style="stroke:#181818;stroke-width:0.5;" x1="404.5" x2="511.5" y1="75.0137" y2="75.0137"/><line style="stroke:#181818;stroke-width:0.5;" x1="404.5" x2="511.5" y1="83.0137" y2="83.0137"/></g><!--class DomainID--><g id="elem_DomainID"><rect codeLine="5" fill="#F1F1F1" height="48" id="DomainID" rx="2.5" ry="2.5" style="stroke:#181818;stroke-width:0.5;" width="94" x="411" y="151.0137"/><ellipse cx="426" cy="167.0137" fill="#B4A7E5" rx="11" ry="11" style="stroke:#181818;stroke-width:1.0;"/><path d="M426.9531,163.6543 L426.9531,170.3105 L428.6719,170.3105 Q429.2813,170.3105 429.5469,170.5449 Q429.8125,170.7793 429.8125,171.1699 Q429.8125,171.5449 429.5469,171.7793 Q429.2813,172.0137 428.6719,172.0137 L423.5313,172.0137 Q422.9219,172.0137 422.6563,171.7793 Q422.3906,171.5449 422.3906,171.1543 Q422.3906,170.7793 422.6563,170.5449 Q422.9219,170.3105 423.5313,170.3105 L425.25,170.3105 L425.25,163.6543 L423.5313,163.6543 Q422.9219,163.6543 422.6563,163.4199 Q422.3906,163.1855 422.3906,162.7949 Q422.3906,162.4199 422.6563,162.1855 Q422.9219,161.9512 423.5313,161.9512 L428.6719,161.9512 Q429.2813,161.9512 429.5469,162.1855 Q429.8125,162.4199 429.8125,162.7949 Q429.8125,163.1855 429.5469,163.4199 Q429.2813,163.6543 428.6719,163.6543 L426.9531,163.6543 Z " fill="#000000"/><text fill="#000000" font-family="sans-serif" font-size="14" font-style="italic" lengthAdjust="spacing" textLength="62" x="440" y="172.8105">DomainID</text><line style="stroke:#181818;stroke-width:0.5;" x1="412" x2="504" y1="183.0137" y2="183.0137"/><line style="stroke:#181818;stroke-width:0.5;" x1="412" x2="504" y1="191.0137" y2="191.0137"/></g><!--class DomainEntity--><g id="elem_DomainEntity"><rect codeLine="7" fill="#F1F1F1" height="85.2422" id="DomainEntity" rx="2.5" ry="2.5" style="stroke:#181818;stroke-width:0.5;" width="240" x="306" y="288.0137"/><ellipse cx="380.25" cy="304.0137" fill="#B4A7E5" rx="11" ry="11" style="stroke:#181818;stroke-width:1.0;"/><path d="M381.2031,300.6543 L381.2031,307.3105 L382.9219,307.3105 Q383.5313,307.3105 383.7969,307.5449 Q384.0625,307.7793 384.0625,308.1699 Q384.0625,308.5449 383.7969,308.7793 Q383.5313,309.0137 382.9219,309.0137 L377.7813,309.0137 Q377.1719,309.0137 376.9063,308.7793 Q376.6406,308.5449 376.6406,308.1543 Q376.6406,307.7793 376.9063,307.5449 Q377.1719,307.3105 377.7813,307.3105 L379.5,307.3105 L379.5,300.6543 L377.7813,300.6543 Q377.1719,300.6543 376.9063,300.4199 Q376.6406,300.1855 376.6406,299.7949 Q376.6406,299.4199 376.9063,299.1855 Q377.1719,298.9512 377.7813,298.9512 L382.9219,298.9512 Q383.5313,298.9512 383.7969,299.1855 Q384.0625,299.4199 384.0625,299.7949 Q384.0625,300.1855 383.7969,300.4199 Q383.5313,300.6543 382.9219,300.6543 L381.2031,300.6543 Z " fill="#000000"/><text fill="#000000" font-family="sans-serif" font-size="14" font-style="italic" lengthAdjust="spacing" textLength="83" x="400.75" y="309.8105">DomainEntity</text><line style="stroke:#181818;stroke-width:0.5;" x1="307" x2="545" y1="320.0137" y2="320.0137"/><line style="stroke:#181818;stroke-width:0.5;" x1="307" x2="545" y1="328.0137" y2="328.0137"/><ellipse cx="317" cy="342.8242" fill="#84BE84" rx="3" ry="3" style="stroke:#038048;stroke-width:1.0;"/><text fill="#000000" font-family="sans-serif" font-size="14" lengthAdjust="spacing" textLength="76" x="326" y="347.1211">identity(): ID</text><ellipse cx="317" cy="361.4453" fill="#84BE84" rx="3" ry="3" style="stroke:#038048;stroke-width:1.0;"/><text fill="#000000" font-family="sans-serif" font-size="14" lengthAdjust="spacing" textLength="214" x="326" y="365.7422">isSameAs(Object object): boolean</text></g><!--class AggregateRoot--><g id="elem_AggregateRoot"><rect codeLine="11" fill="#F1F1F1" height="48" id="AggregateRoot" rx="2.5" ry="2.5" style="stroke:#181818;stroke-width:0.5;" width="128" x="362" y="442.5137"/><ellipse cx="377" cy="458.5137" fill="#B4A7E5" rx="11" ry="11" style="stroke:#181818;stroke-width:1.0;"/><path d="M377.9531,455.1543 L377.9531,461.8105 L379.6719,461.8105 Q380.2813,461.8105 380.5469,462.0449 Q380.8125,462.2793 380.8125,462.6699 Q380.8125,463.0449 380.5469,463.2793 Q380.2813,463.5137 379.6719,463.5137 L374.5313,463.5137 Q373.9219,463.5137 373.6563,463.2793 Q373.3906,463.0449 373.3906,462.6543 Q373.3906,462.2793 373.6563,462.0449 Q373.9219,461.8105 374.5313,461.8105 L376.25,461.8105 L376.25,455.1543 L374.5313,455.1543 Q373.9219,455.1543 373.6563,454.9199 Q373.3906,454.6855 373.3906,454.2949 Q373.3906,453.9199 373.6563,453.6855 Q373.9219,453.4512 374.5313,453.4512 L379.6719,453.4512 Q380.2813,453.4512 380.5469,453.6855 Q380.8125,453.9199 380.8125,454.2949 Q380.8125,454.6855 380.5469,454.9199 Q380.2813,455.1543 379.6719,455.1543 L377.9531,455.1543 Z " fill="#000000"/><text fill="#000000" font-family="sans-serif" font-size="14" font-style="italic" lengthAdjust="spacing" textLength="96" x="391" y="464.3105">AggregateRoot</text><line style="stroke:#181818;stroke-width:0.5;" x1="363" x2="489" y1="474.5137" y2="474.5137"/><line style="stroke:#181818;stroke-width:0.5;" x1="363" x2="489" y1="482.5137" y2="482.5137"/></g><!--class Repository--><g id="elem_Repository"><rect codeLine="14" fill="#F1F1F1" height="122.4844" id="Repository" rx="2.5" ry="2.5" style="stroke:#181818;stroke-width:0.5;" width="238" x="307" y="560.0137"/><ellipse cx="387.75" cy="576.0137" fill="#B4A7E5" rx="11" ry="11" style="stroke:#181818;stroke-width:1.0;"/><path d="M388.7031,572.6543 L388.7031,579.3105 L390.4219,579.3105 Q391.0313,579.3105 391.2969,579.5449 Q391.5625,579.7793 391.5625,580.1699 Q391.5625,580.5449 391.2969,580.7793 Q391.0313,581.0137 390.4219,581.0137 L385.2813,581.0137 Q384.6719,581.0137 384.4063,580.7793 Q384.1406,580.5449 384.1406,580.1543 Q384.1406,579.7793 384.4063,579.5449 Q384.6719,579.3105 385.2813,579.3105 L387,579.3105 L387,572.6543 L385.2813,572.6543 Q384.6719,572.6543 384.4063,572.4199 Q384.1406,572.1855 384.1406,571.7949 Q384.1406,571.4199 384.4063,571.1855 Q384.6719,570.9512 385.2813,570.9512 L390.4219,570.9512 Q391.0313,570.9512 391.2969,571.1855 Q391.5625,571.4199 391.5625,571.7949 Q391.5625,572.1855 391.2969,572.4199 Q391.0313,572.6543 390.4219,572.6543 L388.7031,572.6543 Z " fill="#000000"/><text fill="#000000" font-family="sans-serif" font-size="14" font-style="italic" lengthAdjust="spacing" textLength="68" x="408.25" y="581.8105">Repository</text><line style="stroke:#181818;stroke-width:0.5;" x1="308" x2="544" y1="592.0137" y2="592.0137"/><line style="stroke:#181818;stroke-width:0.5;" x1="308" x2="544" y1="600.0137" y2="600.0137"/><ellipse cx="318" cy="614.8242" fill="#84BE84" rx="3" ry="3" style="stroke:#038048;stroke-width:1.0;"/><text fill="#000000" font-family="sans-serif" font-size="14" lengthAdjust="spacing" textLength="166" x="327" y="619.1211">updateOrSave(T entity): T</text><ellipse cx="318" cy="633.4453" fill="#84BE84" rx="3" ry="3" style="stroke:#038048;stroke-width:1.0;"/><text fill="#000000" font-family="sans-serif" font-size="14" lengthAdjust="spacing" textLength="174" x="327" y="637.7422">findAllEntities(): Iterable&lt;T&gt;</text><ellipse cx="318" cy="652.0664" fill="#84BE84" rx="3" ry="3" style="stroke:#038048;stroke-width:1.0;"/><text fill="#000000" font-family="sans-serif" font-size="14" lengthAdjust="spacing" textLength="209" x="327" y="656.3633">findEntityById(ID id): Optional&lt;T&gt;</text><ellipse cx="318" cy="670.6875" fill="#84BE84" rx="3" ry="3" style="stroke:#038048;stroke-width:1.0;"/><text fill="#000000" font-family="sans-serif" font-size="14" lengthAdjust="spacing" textLength="212" x="327" y="674.9844">containsEntityById(ID id): boolean</text></g><!--class ActuatorFunctionalityID--><g id="elem_ActuatorFunctionalityID"><rect codeLine="24" fill="#F1F1F1" height="122.4844" id="ActuatorFunctionalityID" rx="2.5" ry="2.5" style="stroke:#181818;stroke-width:0.5;" width="239" x="728.5" y="787.0137"/><ellipse cx="761.5" cy="803.0137" fill="#ADD1B2" rx="11" ry="11" style="stroke:#181818;stroke-width:1.0;"/><path d="M764.2656,798.8887 Q764.4219,798.6699 764.6094,798.5605 Q764.7969,798.4512 765.0156,798.4512 Q765.3906,798.4512 765.625,798.7168 Q765.8594,798.9668 765.8594,799.5762 L765.8594,801.0293 Q765.8594,801.6387 765.625,801.9043 Q765.3906,802.1699 765.0156,802.1699 Q764.6719,802.1699 764.4688,801.9668 Q764.2656,801.7793 764.1563,801.2637 Q764.1094,800.9043 763.9219,800.7168 Q763.5938,800.3418 762.9844,800.123 Q762.375,799.9043 761.75,799.9043 Q760.9844,799.9043 760.3438,800.2324 Q759.7188,800.5605 759.2188,801.3105 Q758.7344,802.0605 758.7344,803.0918 L758.7344,804.1855 Q758.7344,805.4199 759.625,806.248 Q760.5156,807.0605 762.1094,807.0605 Q763.0469,807.0605 763.7031,806.8105 Q764.0938,806.6543 764.5156,806.2168 Q764.7813,805.9512 764.9219,805.873 Q765.0781,805.7949 765.2813,805.7949 Q765.6094,805.7949 765.8594,806.0605 Q766.125,806.3105 766.125,806.6543 Q766.125,806.998 765.7813,807.4043 Q765.2813,807.9824 764.4844,808.3105 Q763.4063,808.7637 762.1094,808.7637 Q760.5938,808.7637 759.3906,808.1387 Q758.4063,807.6387 757.7188,806.5762 Q757.0313,805.498 757.0313,804.2168 L757.0313,803.0605 Q757.0313,801.7324 757.6406,800.5918 Q758.2656,799.4355 759.3594,798.8262 Q760.4531,798.2012 761.6875,798.2012 Q762.4219,798.2012 763.0625,798.373 Q763.7188,798.5293 764.2656,798.8887 Z " fill="#000000"/><text fill="#000000" font-family="sans-serif" font-size="14" lengthAdjust="spacing" textLength="146" x="779.5" y="808.8105">ActuatorFunctionalityID</text><rect fill="#FFFFFF" height="17.9609" style="stroke:#181818;stroke-width:1.0;stroke-dasharray:2.0,2.0;" width="19" x="951.5" y="784.0137"/><text fill="#000000" font-family="sans-serif" font-size="12" font-style="italic" lengthAdjust="spacing" textLength="17" x="952.5" y="797.9629">VO</text><line style="stroke:#181818;stroke-width:0.5;" x1="729.5" x2="966.5" y1="819.0137" y2="819.0137"/><rect fill="none" height="6" style="stroke:#C82930;stroke-width:1.0;" width="6" x="736.5" y="830.8242"/><text fill="#000000" font-family="sans-serif" font-size="14" lengthAdjust="spacing" textLength="213" x="748.5" y="838.1211">actuatorFunctionalityName: String</text><line style="stroke:#181818;stroke-width:0.5;" x1="729.5" x2="966.5" y1="845.6348" y2="845.6348"/><ellipse cx="739.5" cy="860.4453" fill="#84BE84" rx="3" ry="3" style="stroke:#038048;stroke-width:1.0;"/><text fill="#000000" font-family="sans-serif" font-size="14" lengthAdjust="spacing" textLength="194" x="748.5" y="864.7422">equals(Object object): boolean</text><ellipse cx="739.5" cy="879.0664" fill="#84BE84" rx="3" ry="3" style="stroke:#038048;stroke-width:1.0;"/><text fill="#000000" font-family="sans-serif" font-size="14" lengthAdjust="spacing" textLength="98" x="748.5" y="883.3633">hashCode(): int</text><ellipse cx="739.5" cy="897.6875" fill="#84BE84" rx="3" ry="3" style="stroke:#038048;stroke-width:1.0;"/><text fill="#000000" font-family="sans-serif" font-size="14" lengthAdjust="spacing" textLength="104" x="748.5" y="901.9844">toString(): String</text></g><!--class FactoryActuatorFunctionality--><g id="elem_FactoryActuatorFunctionality"><rect codeLine="33" fill="#F1F1F1" height="66.6211" id="FactoryActuatorFunctionality" rx="2.5" ry="2.5" style="stroke:#181818;stroke-width:0.5;" width="376" x="626" y="297.0137"/><ellipse cx="719.25" cy="313.0137" fill="#B4A7E5" rx="11" ry="11" style="stroke:#181818;stroke-width:1.0;"/><path d="M720.2031,309.6543 L720.2031,316.3105 L721.9219,316.3105 Q722.5313,316.3105 722.7969,316.5449 Q723.0625,316.7793 723.0625,317.1699 Q723.0625,317.5449 722.7969,317.7793 Q722.5313,318.0137 721.9219,318.0137 L716.7813,318.0137 Q716.1719,318.0137 715.9063,317.7793 Q715.6406,317.5449 715.6406,317.1543 Q715.6406,316.7793 715.9063,316.5449 Q716.1719,316.3105 716.7813,316.3105 L718.5,316.3105 L718.5,309.6543 L716.7813,309.6543 Q716.1719,309.6543 715.9063,309.4199 Q715.6406,309.1855 715.6406,308.7949 Q715.6406,308.4199 715.9063,308.1855 Q716.1719,307.9512 716.7813,307.9512 L721.9219,307.9512 Q722.5313,307.9512 722.7969,308.1855 Q723.0625,308.4199 723.0625,308.7949 Q723.0625,309.1855 722.7969,309.4199 Q722.5313,309.6543 721.9219,309.6543 L720.2031,309.6543 Z " fill="#000000"/><text fill="#000000" font-family="sans-serif" font-size="14" font-style="italic" lengthAdjust="spacing" textLength="181" x="739.75" y="318.8105">FactoryActuatorFunctionality</text><line style="stroke:#181818;stroke-width:0.5;" x1="627" x2="1001" y1="329.0137" y2="329.0137"/><line style="stroke:#181818;stroke-width:0.5;" x1="627" x2="1001" y1="337.0137" y2="337.0137"/><ellipse cx="637" cy="351.8242" fill="#84BE84" rx="3" ry="3" style="stroke:#038048;stroke-width:1.0;"/><text fill="#000000" font-family="sans-serif" font-size="14" lengthAdjust="spacing" textLength="350" x="646" y="356.1211">actuatorFunctionalities (String id): ActuatorFunctionality</text></g><!--class ImpFactoryActuatorFunctionality--><g id="elem_ImpFactoryActuatorFunctionality"><rect codeLine="36" fill="#F1F1F1" height="66.6211" id="ImpFactoryActuatorFunctionality" rx="2.5" ry="2.5" style="stroke:#181818;stroke-width:0.5;" width="376" x="626" y="433.0137"/><ellipse cx="708.25" cy="449.0137" fill="#ADD1B2" rx="11" ry="11" style="stroke:#181818;stroke-width:1.0;"/><path d="M711.0156,444.8887 Q711.1719,444.6699 711.3594,444.5605 Q711.5469,444.4512 711.7656,444.4512 Q712.1406,444.4512 712.375,444.7168 Q712.6094,444.9668 712.6094,445.5762 L712.6094,447.0293 Q712.6094,447.6387 712.375,447.9043 Q712.1406,448.1699 711.7656,448.1699 Q711.4219,448.1699 711.2188,447.9668 Q711.0156,447.7793 710.9063,447.2637 Q710.8594,446.9043 710.6719,446.7168 Q710.3438,446.3418 709.7344,446.123 Q709.125,445.9043 708.5,445.9043 Q707.7344,445.9043 707.0938,446.2324 Q706.4688,446.5605 705.9688,447.3105 Q705.4844,448.0605 705.4844,449.0918 L705.4844,450.1855 Q705.4844,451.4199 706.375,452.248 Q707.2656,453.0605 708.8594,453.0605 Q709.7969,453.0605 710.4531,452.8105 Q710.8438,452.6543 711.2656,452.2168 Q711.5313,451.9512 711.6719,451.873 Q711.8281,451.7949 712.0313,451.7949 Q712.3594,451.7949 712.6094,452.0605 Q712.875,452.3105 712.875,452.6543 Q712.875,452.998 712.5313,453.4043 Q712.0313,453.9824 711.2344,454.3105 Q710.1563,454.7637 708.8594,454.7637 Q707.3438,454.7637 706.1406,454.1387 Q705.1563,453.6387 704.4688,452.5762 Q703.7813,451.498 703.7813,450.2168 L703.7813,449.0605 Q703.7813,447.7324 704.3906,446.5918 Q705.0156,445.4355 706.1094,444.8262 Q707.2031,444.2012 708.4375,444.2012 Q709.1719,444.2012 709.8125,444.373 Q710.4688,444.5293 711.0156,444.8887 Z " fill="#000000"/><text fill="#000000" font-family="sans-serif" font-size="14" lengthAdjust="spacing" textLength="203" x="728.75" y="454.8105">ImpFactoryActuatorFunctionality</text><line style="stroke:#181818;stroke-width:0.5;" x1="627" x2="1001" y1="465.0137" y2="465.0137"/><line style="stroke:#181818;stroke-width:0.5;" x1="627" x2="1001" y1="473.0137" y2="473.0137"/><ellipse cx="637" cy="487.8242" fill="#84BE84" rx="3" ry="3" style="stroke:#038048;stroke-width:1.0;"/><text fill="#000000" font-family="sans-serif" font-size="14" lengthAdjust="spacing" textLength="350" x="646" y="492.1211">actuatorFunctionalities (String id): ActuatorFunctionality</text></g><!--class ActuatorFunctionality--><g id="elem_ActuatorFunctionality"><rect codeLine="42" fill="#F1F1F1" height="103.8633" id="ActuatorFunctionality" rx="2.5" ry="2.5" style="stroke:#181818;stroke-width:0.5;" width="325" x="651.5" y="569.0137"/><ellipse cx="730.75" cy="585.0137" fill="#ADD1B2" rx="11" ry="11" style="stroke:#181818;stroke-width:1.0;"/><path d="M733.5156,580.8887 Q733.6719,580.6699 733.8594,580.5605 Q734.0469,580.4512 734.2656,580.4512 Q734.6406,580.4512 734.875,580.7168 Q735.1094,580.9668 735.1094,581.5762 L735.1094,583.0293 Q735.1094,583.6387 734.875,583.9043 Q734.6406,584.1699 734.2656,584.1699 Q733.9219,584.1699 733.7188,583.9668 Q733.5156,583.7793 733.4063,583.2637 Q733.3594,582.9043 733.1719,582.7168 Q732.8438,582.3418 732.2344,582.123 Q731.625,581.9043 731,581.9043 Q730.2344,581.9043 729.5938,582.2324 Q728.9688,582.5605 728.4688,583.3105 Q727.9844,584.0605 727.9844,585.0918 L727.9844,586.1855 Q727.9844,587.4199 728.875,588.248 Q729.7656,589.0605 731.3594,589.0605 Q732.2969,589.0605 732.9531,588.8105 Q733.3438,588.6543 733.7656,588.2168 Q734.0313,587.9512 734.1719,587.873 Q734.3281,587.7949 734.5313,587.7949 Q734.8594,587.7949 735.1094,588.0605 Q735.375,588.3105 735.375,588.6543 Q735.375,588.998 735.0313,589.4043 Q734.5313,589.9824 733.7344,590.3105 Q732.6563,590.7637 731.3594,590.7637 Q729.8438,590.7637 728.6406,590.1387 Q727.6563,589.6387 726.9688,588.5762 Q726.2813,587.498 726.2813,586.2168 L726.2813,585.0605 Q726.2813,583.7324 726.8906,582.5918 Q727.5156,581.4355 728.6094,580.8262 Q729.7031,580.2012 730.9375,580.2012 Q731.6719,580.2012 732.3125,580.373 Q732.9688,580.5293 733.5156,580.8887 Z " fill="#000000"/><text fill="#000000" font-family="sans-serif" font-size="14" lengthAdjust="spacing" textLength="133" x="751.25" y="590.8105">ActuatorFunctionality</text><rect fill="#FFFFFF" height="17.9609" style="stroke:#181818;stroke-width:1.0;stroke-dasharray:2.0,2.0;" width="23" x="956.5" y="566.0137"/><text fill="#000000" font-family="sans-serif" font-size="12" font-style="italic" lengthAdjust="spacing" textLength="21" x="957.5" y="579.9629">root</text><line style="stroke:#181818;stroke-width:0.5;" x1="652.5" x2="975.5" y1="601.0137" y2="601.0137"/><rect fill="none" height="6" style="stroke:#C82930;stroke-width:1.0;" width="6" x="659.5" y="612.8242"/><text fill="#000000" font-family="sans-serif" font-size="14" lengthAdjust="spacing" textLength="299" x="671.5" y="620.1211">actuatorFunctionalityID: ActuatorFunctionalityID</text><line style="stroke:#181818;stroke-width:0.5;" x1="652.5" x2="975.5" y1="627.6348" y2="627.6348"/><ellipse cx="662.5" cy="642.4453" fill="#84BE84" rx="3" ry="3" style="stroke:#038048;stroke-width:1.0;"/><text fill="#000000" font-family="sans-serif" font-size="14" lengthAdjust="spacing" textLength="209" x="671.5" y="646.7422">identity(): ActuatorFunctionalityID</text><ellipse cx="662.5" cy="661.0664" fill="#84BE84" rx="3" ry="3" style="stroke:#038048;stroke-width:1.0;"/><text fill="#000000" font-family="sans-serif" font-size="14" lengthAdjust="spacing" textLength="214" x="671.5" y="665.3633">isSameAs(Object object): boolean</text></g><!--class ActuatorFunctionalityRepository--><g id="elem_ActuatorFunctionalityRepository"><rect codeLine="55" fill="#F1F1F1" height="178.3477" id="ActuatorFunctionalityRepository" rx="2.5" ry="2.5" style="stroke:#181818;stroke-width:0.5;" width="523" x="22.5" y="759.0137"/><ellipse cx="164.75" cy="775.0137" fill="#ADD1B2" rx="11" ry="11" style="stroke:#181818;stroke-width:1.0;"/><path d="M167.5156,770.8887 Q167.6719,770.6699 167.8594,770.5605 Q168.0469,770.4512 168.2656,770.4512 Q168.6406,770.4512 168.875,770.7168 Q169.1094,770.9668 169.1094,771.5762 L169.1094,773.0293 Q169.1094,773.6387 168.875,773.9043 Q168.6406,774.1699 168.2656,774.1699 Q167.9219,774.1699 167.7188,773.9668 Q167.5156,773.7793 167.4063,773.2637 Q167.3594,772.9043 167.1719,772.7168 Q166.8438,772.3418 166.2344,772.123 Q165.625,771.9043 165,771.9043 Q164.2344,771.9043 163.5938,772.2324 Q162.9688,772.5605 162.4688,773.3105 Q161.9844,774.0605 161.9844,775.0918 L161.9844,776.1855 Q161.9844,777.4199 162.875,778.248 Q163.7656,779.0605 165.3594,779.0605 Q166.2969,779.0605 166.9531,778.8105 Q167.3438,778.6543 167.7656,778.2168 Q168.0313,777.9512 168.1719,777.873 Q168.3281,777.7949 168.5313,777.7949 Q168.8594,777.7949 169.1094,778.0605 Q169.375,778.3105 169.375,778.6543 Q169.375,778.998 169.0313,779.4043 Q168.5313,779.9824 167.7344,780.3105 Q166.6563,780.7637 165.3594,780.7637 Q163.8438,780.7637 162.6406,780.1387 Q161.6563,779.6387 160.9688,778.5762 Q160.2813,777.498 160.2813,776.2168 L160.2813,775.0605 Q160.2813,773.7324 160.8906,772.5918 Q161.5156,771.4355 162.6094,770.8262 Q163.7031,770.2012 164.9375,770.2012 Q165.6719,770.2012 166.3125,770.373 Q166.9688,770.5293 167.5156,770.8887 Z " fill="#000000"/><text fill="#000000" font-family="sans-serif" font-size="14" lengthAdjust="spacing" textLength="201" x="185.25" y="780.8105">ActuatorFunctionalityRepository</text><rect fill="#FFFFFF" height="17.9609" style="stroke:#181818;stroke-width:1.0;stroke-dasharray:2.0,2.0;" width="27" x="521.5" y="756.0137"/><text fill="#000000" font-family="sans-serif" font-size="12" font-style="italic" lengthAdjust="spacing" textLength="25" x="522.5" y="769.9629">repo</text><line style="stroke:#181818;stroke-width:0.5;" x1="23.5" x2="544.5" y1="791.0137" y2="791.0137"/><rect fill="none" height="6" style="stroke:#C82930;stroke-width:1.0;" width="6" x="30.5" y="802.8242"/><text fill="#000000" font-family="sans-serif" font-size="14" lengthAdjust="spacing" textLength="228" x="42.5" y="810.1211">FactoryActuatorFunctionality factory</text><rect fill="none" height="6" style="stroke:#C82930;stroke-width:1.0;" width="6" x="30.5" y="821.4453"/><text fill="#000000" font-family="sans-serif" font-size="14" lengthAdjust="spacing" textLength="497" x="42.5" y="828.7422">Map &lt;ActuatorFunctionalityID, ActuatorFunctionality&gt; actuatorFunctionalityMap</text><line style="stroke:#181818;stroke-width:0.5;" x1="23.5" x2="544.5" y1="836.2559" y2="836.2559"/><rect fill="#F24D5C" height="6" style="stroke:#C82930;stroke-width:1.0;" width="6" x="30.5" y="848.0664"/><text fill="#000000" font-family="sans-serif" font-size="14" lengthAdjust="spacing" textLength="59" x="42.5" y="855.3633">loadfile():</text><ellipse cx="33.5" cy="869.6875" fill="#84BE84" rx="3" ry="3" style="stroke:#038048;stroke-width:1.0;"/><text fill="#000000" font-family="sans-serif" font-size="14" lengthAdjust="spacing" textLength="414" x="42.5" y="873.9844">updateOrSave(ActuatorFunctionality entity): ActuatorFunctionality</text><ellipse cx="33.5" cy="888.3086" fill="#84BE84" rx="3" ry="3" style="stroke:#038048;stroke-width:1.0;"/><text fill="#000000" font-family="sans-serif" font-size="14" lengthAdjust="spacing" textLength="298" x="42.5" y="892.6055">findAllEntities(): Iterable&lt;ActuatorFunctionality&gt;</text><ellipse cx="33.5" cy="906.9297" fill="#84BE84" rx="3" ry="3" style="stroke:#038048;stroke-width:1.0;"/><text fill="#000000" font-family="sans-serif" font-size="14" lengthAdjust="spacing" textLength="468" x="42.5" y="911.2266">findEntityByID(ActuatorFunctionalityID id): Optional&lt;ActuatorFunctionality&gt;</text><ellipse cx="33.5" cy="925.5508" fill="#84BE84" rx="3" ry="3" style="stroke:#038048;stroke-width:1.0;"/><text fill="#000000" font-family="sans-serif" font-size="14" lengthAdjust="spacing" textLength="347" x="42.5" y="929.8477">containsEntityByID(ActuatorFunctionalityID id): boolean</text></g><!--reverse link ValueObject to DomainID--><g id="link_ValueObject_DomainID"><path d="M458,109.2537 C458,127.0337 458,133.0937 458,150.8537 " fill="none" id="ValueObject-backto-DomainID" style="stroke:#181818;stroke-width:1.0;"/><polygon fill="none" points="458,91.2537,452,109.2537,464,109.2537,458,91.2537" style="stroke:#181818;stroke-width:1.0;"/></g><!--reverse link DomainID to DomainEntity--><g id="link_DomainID_DomainEntity"><path d="M458,217.3137 C458,240.9737 458,259.4337 458,287.9237 " fill="none" id="DomainID-backto-DomainEntity" style="stroke:#181818;stroke-width:1.0;"/><polygon fill="none" points="458,199.3137,452,217.3137,464,217.3137,458,199.3137" style="stroke:#181818;stroke-width:1.0;"/></g><!--reverse link DomainEntity to AggregateRoot--><g id="link_DomainEntity_AggregateRoot"><path d="M426,391.1737 C426,413.9137 426,423.0837 426,442.2237 " fill="none" id="DomainEntity-backto-AggregateRoot" style="stroke:#181818;stroke-width:1.0;"/><polygon fill="none" points="426,373.1737,420,391.1737,432,391.1737,426,373.1737" style="stroke:#181818;stroke-width:1.0;"/></g><!--reverse link AggregateRoot to Repository--><g id="link_AggregateRoot_Repository"><path d="M426,508.6537 C426,527.1537 426,535.5337 426,559.7337 " fill="none" id="AggregateRoot-backto-Repository" style="stroke:#181818;stroke-width:1.0;"/><polygon fill="none" points="426,490.6537,420,508.6537,432,508.6537,426,490.6537" style="stroke:#181818;stroke-width:1.0;"/></g><!--reverse link DomainID to ActuatorFunctionalityID--><g id="link_DomainID_ActuatorFunctionalityID"><path codeLine="30" d="M523.3,175.0137 C554.89,175.0137 572.67,175.0137 572.67,175.0137 C572.67,175.0137 572.67,848.0137 572.67,848.0137 C572.67,848.0137 654.13,848.0137 728.44,848.0137 " fill="none" id="DomainID-backto-ActuatorFunctionalityID" style="stroke:#181818;stroke-width:1.0;stroke-dasharray:7.0,7.0;"/><polygon fill="none" points="505.3,175.0137,523.3,181.0137,523.3,169.0137,505.3,175.0137" style="stroke:#181818;stroke-width:1.0;"/></g><!--reverse link FactoryActuatorFunctionality to ImpFactoryActuatorFunctionality--><g id="link_FactoryActuatorFunctionality_ImpFactoryActuatorFunctionality"><path d="M814,382.1337 C814,403.0537 814,411.8737 814,432.8137 " fill="none" id="FactoryActuatorFunctionality-backto-ImpFactoryActuatorFunctionality" style="stroke:#181818;stroke-width:1.0;stroke-dasharray:7.0,7.0;"/><polygon fill="none" points="814,364.1337,808,382.1337,820,382.1337,814,364.1337" style="stroke:#181818;stroke-width:1.0;"/></g><!--link ImpFactoryActuatorFunctionality to ActuatorFunctionality--><g id="link_ImpFactoryActuatorFunctionality_ActuatorFunctionality"><path codeLine="40" d="M814,500.0337 C814,520.0937 814,540.0137 814,562.7137 " fill="none" id="ImpFactoryActuatorFunctionality-to-ActuatorFunctionality" style="stroke:#181818;stroke-width:1.0;stroke-dasharray:7.0,7.0;"/><polygon fill="#181818" points="814,568.7137,818,559.7137,814,563.7137,810,559.7137,814,568.7137" style="stroke:#181818;stroke-width:1.0;"/><text fill="#000000" font-family="sans-serif" font-size="13" lengthAdjust="spacing" textLength="57" x="756" y="530.402">&#171;creates&#187;</text></g><!--reverse link AggregateRoot to ActuatorFunctionality--><g id="link_AggregateRoot_ActuatorFunctionality"><path codeLine="48" d="M508.05,467.0137 C557.43,467.0137 599.33,467.0137 599.33,467.0137 C599.33,467.0137 599.33,621.0137 599.33,621.0137 C599.33,621.0137 621.36,621.0137 651.3,621.0137 " fill="none" id="AggregateRoot-backto-ActuatorFunctionality" style="stroke:#181818;stroke-width:1.0;stroke-dasharray:7.0,7.0;"/><polygon fill="none" points="490.05,467.0137,508.05,473.0137,508.05,461.0137,490.05,467.0137" style="stroke:#181818;stroke-width:1.0;"/></g><!--link ActuatorFunctionality to ActuatorFunctionalityID--><g id="link_ActuatorFunctionality_ActuatorFunctionalityID"><path codeLine="49" d="M848,673.0937 C848,706.9937 848,745.3537 848,780.9237 " fill="none" id="ActuatorFunctionality-to-ActuatorFunctionalityID" style="stroke:#181818;stroke-width:1.0;"/><polygon fill="#181818" points="848,786.9237,852,777.9237,848,781.9237,844,777.9237,848,786.9237" style="stroke:#181818;stroke-width:1.0;"/></g><!--reverse link Repository to ActuatorFunctionalityRepository--><g id="link_Repository_ActuatorFunctionalityRepository"><path codeLine="64" d="M426,700.1437 C426,723.6537 426,732.9937 426,758.6137 " fill="none" id="Repository-backto-ActuatorFunctionalityRepository" style="stroke:#181818;stroke-width:1.0;stroke-dasharray:7.0,7.0;"/><polygon fill="none" points="426,682.1437,420,700.1437,432,700.1437,426,682.1437" style="stroke:#181818;stroke-width:1.0;"/></g><!--SRC=[nLN1Zfim4Btp5JwoIfCFY11IsdGb3jj8csZl3fuGTurDRMVLACs_Ty0RCAc1tCeba1c_UJFpU9XtBYkgQKa4bs3F5H2bxL555StVQG64CKOk4PSMz87cGDweEC5c_nDoUuckNc2jIifbjYRmsu9aPYhpkxJSdjlizlWbcd46JJ1-Mf9iZSzcIqjOcTYX4TNyO72lb00gU-Yhej1GK0klIjax-C-QDHtln2jKod2hTCUc1uACJXN3XutUqW-8TyJHGmAxQ7RWags4QA0vc8Op8jEzW6INkhYh-_MSiHWxv0npDfNbIbBHvEHAMgHd0dbTYyYvNKhJ3VP1yBhz-L7Fsut6V8RgAnVKO4EvFL5iyVaaSrSO2s6Dv6sJUidrDISqbFm3Lx0aMwkvB7hvCmA_JbGCRwUVVAJc-4qng0U5ExYBMkKgrD6xMjVshjLAycUn66ejwixS9dJhw-1dUjrtadZ6LDH34FfkNBFWk50997ODk3q6eGAzkNLbPJLAWPULW19bQFu3rVPsYkLYaOR1bYH9SWtuIfaqZHwHAaaqleaFIZLRBqTLqSt3Tve7JqnvKM2dVKiQ5crt83Y2-JoT4Bll4RfpDJUqaUbw3fZKv_mvpySLTd11B_s5LYGPuFabN3yDxn6HF5oXA3jmKHj7rEsZvynXYgrRZmzzHiQiFCpxxd3ht-juo73xvZ-9-i-NOGBPzrmdG7-tWyhhagBhNm00]--></g></svg>