<?xml version="1.0" encoding="us-ascii" standalone="no"?><svg xmlns="http://www.w3.org/2000/svg" xmlns:xlink="http://www.w3.org/1999/xlink" contentStyleType="text/css" height="1967px" preserveAspectRatio="none" style="width:2042px;height:1967px;background:#FFFFFF;" version="1.1" viewBox="0 0 2042 1967" width="2042px" zoomAndPan="magnify"><defs/><g><!--cluster ddd--><g id="cluster_ddd"><path d="M1765.5,6.0137 L1793.5,6.0137 A3.75,3.75 0 0 1 1796,8.5137 L1803,30.6348 L2032.5,30.6348 A2.5,2.5 0 0 1 2035,33.1348 L2035,647.5137 A2.5,2.5 0 0 1 2032.5,650.0137 L1765.5,650.0137 A2.5,2.5 0 0 1 1763,647.5137 L1763,8.5137 A2.5,2.5 0 0 1 1765.5,6.0137 " fill="none" style="stroke:#000000;stroke-width:1.5;"/><line style="stroke:#000000;stroke-width:1.5;" x1="1763" x2="1803" y1="30.6348" y2="30.6348"/><text fill="#000000" font-family="sans-serif" font-size="14" font-weight="bold" lengthAdjust="spacing" textLength="27" x="1767" y="23.1211">ddd</text></g><!--cluster domain--><g id="cluster_domain"><path d="M8.5,674.0137 L60.5,674.0137 A3.75,3.75 0 0 1 63,676.5137 L70,698.6348 L1624.5,698.6348 A2.5,2.5 0 0 1 1627,701.1348 L1627,1957.5137 A2.5,2.5 0 0 1 1624.5,1960.0137 L8.5,1960.0137 A2.5,2.5 0 0 1 6,1957.5137 L6,676.5137 A2.5,2.5 0 0 1 8.5,674.0137 " fill="none" style="stroke:#000000;stroke-width:1.5;"/><line style="stroke:#000000;stroke-width:1.5;" x1="6" x2="70" y1="698.6348" y2="698.6348"/><text fill="#000000" font-family="sans-serif" font-size="14" font-weight="bold" lengthAdjust="spacing" textLength="51" x="10" y="691.1211">domain</text></g><!--cluster actuator--><g id="cluster_actuator"><path d="M32.5,719.0137 L91.5,719.0137 A3.75,3.75 0 0 1 94,721.5137 L101,743.6348 L1600.5,743.6348 A2.5,2.5 0 0 1 1603,746.1348 L1603,1495.5137 A2.5,2.5 0 0 1 1600.5,1498.0137 L32.5,1498.0137 A2.5,2.5 0 0 1 30,1495.5137 L30,721.5137 A2.5,2.5 0 0 1 32.5,719.0137 " fill="none" style="stroke:#000000;stroke-width:1.5;"/><line style="stroke:#000000;stroke-width:1.5;" x1="30" x2="101" y1="743.6348" y2="743.6348"/><text fill="#000000" font-family="sans-serif" font-size="14" font-weight="bold" lengthAdjust="spacing" textLength="58" x="34" y="736.1211">actuator</text></g><!--cluster valueobject--><g id="cluster_valueobject"><path d="M115.5,1522.0137 L199.5,1522.0137 A3.75,3.75 0 0 1 202,1524.5137 L209,1546.6348 L1600.5,1546.6348 A2.5,2.5 0 0 1 1603,1549.1348 L1603,1933.5137 A2.5,2.5 0 0 1 1600.5,1936.0137 L115.5,1936.0137 A2.5,2.5 0 0 1 113,1933.5137 L113,1524.5137 A2.5,2.5 0 0 1 115.5,1522.0137 " fill="none" style="stroke:#000000;stroke-width:1.5;"/><line style="stroke:#000000;stroke-width:1.5;" x1="113" x2="209" y1="1546.6348" y2="1546.6348"/><text fill="#000000" font-family="sans-serif" font-size="14" font-weight="bold" lengthAdjust="spacing" textLength="83" x="117" y="1539.1211">valueobject</text></g><!--cluster repositories--><g id="cluster_repositories"><path d="M1653.5,682.0137 L1740.5,682.0137 A3.75,3.75 0 0 1 1743,684.5137 L1750,706.6348 L2030.5,706.6348 A2.5,2.5 0 0 1 2033,709.1348 L2033,873.5137 A2.5,2.5 0 0 1 2030.5,876.0137 L1653.5,876.0137 A2.5,2.5 0 0 1 1651,873.5137 L1651,684.5137 A2.5,2.5 0 0 1 1653.5,682.0137 " fill="none" style="stroke:#000000;stroke-width:1.5;"/><line style="stroke:#000000;stroke-width:1.5;" x1="1651" x2="1750" y1="706.6348" y2="706.6348"/><text fill="#000000" font-family="sans-serif" font-size="14" font-weight="bold" lengthAdjust="spacing" textLength="86" x="1655" y="699.1211">repositories</text></g><!--class ValueObject--><g id="elem_ValueObject"><rect codeLine="5" fill="#F1F1F1" height="48" id="ValueObject" rx="2.5" ry="2.5" style="stroke:#181818;stroke-width:0.5;" width="109" x="1909.5" y="43.0137"/><ellipse cx="1924.5" cy="59.0137" fill="#B4A7E5" rx="11" ry="11" style="stroke:#181818;stroke-width:1.0;"/><path d="M1925.4531,55.6543 L1925.4531,62.3105 L1927.1719,62.3105 Q1927.7813,62.3105 1928.0469,62.5449 Q1928.3125,62.7793 1928.3125,63.1699 Q1928.3125,63.5449 1928.0469,63.7793 Q1927.7813,64.0137 1927.1719,64.0137 L1922.0313,64.0137 Q1921.4219,64.0137 1921.1563,63.7793 Q1920.8906,63.5449 1920.8906,63.1543 Q1920.8906,62.7793 1921.1563,62.5449 Q1921.4219,62.3105 1922.0313,62.3105 L1923.75,62.3105 L1923.75,55.6543 L1922.0313,55.6543 Q1921.4219,55.6543 1921.1563,55.4199 Q1920.8906,55.1855 1920.8906,54.7949 Q1920.8906,54.4199 1921.1563,54.1855 Q1921.4219,53.9512 1922.0313,53.9512 L1927.1719,53.9512 Q1927.7813,53.9512 1928.0469,54.1855 Q1928.3125,54.4199 1928.3125,54.7949 Q1928.3125,55.1855 1928.0469,55.4199 Q1927.7813,55.6543 1927.1719,55.6543 L1925.4531,55.6543 Z " fill="#000000"/><text fill="#000000" font-family="sans-serif" font-size="14" font-style="italic" lengthAdjust="spacing" textLength="77" x="1938.5" y="64.8105">ValueObject</text><line style="stroke:#181818;stroke-width:0.5;" x1="1910.5" x2="2017.5" y1="75.0137" y2="75.0137"/><line style="stroke:#181818;stroke-width:0.5;" x1="1910.5" x2="2017.5" y1="83.0137" y2="83.0137"/></g><!--class DomainID--><g id="elem_DomainID"><rect codeLine="7" fill="#F1F1F1" height="48" id="DomainID" rx="2.5" ry="2.5" style="stroke:#181818;stroke-width:0.5;" width="94" x="1917" y="151.0137"/><ellipse cx="1932" cy="167.0137" fill="#B4A7E5" rx="11" ry="11" style="stroke:#181818;stroke-width:1.0;"/><path d="M1932.9531,163.6543 L1932.9531,170.3105 L1934.6719,170.3105 Q1935.2813,170.3105 1935.5469,170.5449 Q1935.8125,170.7793 1935.8125,171.1699 Q1935.8125,171.5449 1935.5469,171.7793 Q1935.2813,172.0137 1934.6719,172.0137 L1929.5313,172.0137 Q1928.9219,172.0137 1928.6563,171.7793 Q1928.3906,171.5449 1928.3906,171.1543 Q1928.3906,170.7793 1928.6563,170.5449 Q1928.9219,170.3105 1929.5313,170.3105 L1931.25,170.3105 L1931.25,163.6543 L1929.5313,163.6543 Q1928.9219,163.6543 1928.6563,163.4199 Q1928.3906,163.1855 1928.3906,162.7949 Q1928.3906,162.4199 1928.6563,162.1855 Q1928.9219,161.9512 1929.5313,161.9512 L1934.6719,161.9512 Q1935.2813,161.9512 1935.5469,162.1855 Q1935.8125,162.4199 1935.8125,162.7949 Q1935.8125,163.1855 1935.5469,163.4199 Q1935.2813,163.6543 1934.6719,163.6543 L1932.9531,163.6543 Z " fill="#000000"/><text fill="#000000" font-family="sans-serif" font-size="14" font-style="italic" lengthAdjust="spacing" textLength="62" x="1946" y="172.8105">DomainID</text><line style="stroke:#181818;stroke-width:0.5;" x1="1918" x2="2010" y1="183.0137" y2="183.0137"/><line style="stroke:#181818;stroke-width:0.5;" x1="1918" x2="2010" y1="191.0137" y2="191.0137"/></g><!--class DomainEntity--><g id="elem_DomainEntity"><rect codeLine="9" fill="#F1F1F1" height="85.2422" id="DomainEntity" rx="2.5" ry="2.5" style="stroke:#181818;stroke-width:0.5;" width="240" x="1779" y="259.0137"/><ellipse cx="1853.25" cy="275.0137" fill="#B4A7E5" rx="11" ry="11" style="stroke:#181818;stroke-width:1.0;"/><path d="M1854.2031,271.6543 L1854.2031,278.3105 L1855.9219,278.3105 Q1856.5313,278.3105 1856.7969,278.5449 Q1857.0625,278.7793 1857.0625,279.1699 Q1857.0625,279.5449 1856.7969,279.7793 Q1856.5313,280.0137 1855.9219,280.0137 L1850.7813,280.0137 Q1850.1719,280.0137 1849.9063,279.7793 Q1849.6406,279.5449 1849.6406,279.1543 Q1849.6406,278.7793 1849.9063,278.5449 Q1850.1719,278.3105 1850.7813,278.3105 L1852.5,278.3105 L1852.5,271.6543 L1850.7813,271.6543 Q1850.1719,271.6543 1849.9063,271.4199 Q1849.6406,271.1855 1849.6406,270.7949 Q1849.6406,270.4199 1849.9063,270.1855 Q1850.1719,269.9512 1850.7813,269.9512 L1855.9219,269.9512 Q1856.5313,269.9512 1856.7969,270.1855 Q1857.0625,270.4199 1857.0625,270.7949 Q1857.0625,271.1855 1856.7969,271.4199 Q1856.5313,271.6543 1855.9219,271.6543 L1854.2031,271.6543 Z " fill="#000000"/><text fill="#000000" font-family="sans-serif" font-size="14" font-style="italic" lengthAdjust="spacing" textLength="83" x="1873.75" y="280.8105">DomainEntity</text><line style="stroke:#181818;stroke-width:0.5;" x1="1780" x2="2018" y1="291.0137" y2="291.0137"/><line style="stroke:#181818;stroke-width:0.5;" x1="1780" x2="2018" y1="299.0137" y2="299.0137"/><ellipse cx="1790" cy="313.8242" fill="#84BE84" rx="3" ry="3" style="stroke:#038048;stroke-width:1.0;"/><text fill="#000000" font-family="sans-serif" font-size="14" lengthAdjust="spacing" textLength="76" x="1799" y="318.1211">identity(): ID</text><ellipse cx="1790" cy="332.4453" fill="#84BE84" rx="3" ry="3" style="stroke:#038048;stroke-width:1.0;"/><text fill="#000000" font-family="sans-serif" font-size="14" lengthAdjust="spacing" textLength="214" x="1799" y="336.7422">isSameAs(Object object): boolean</text></g><!--class AggregateRoot--><g id="elem_AggregateRoot"><rect codeLine="13" fill="#F1F1F1" height="48" id="AggregateRoot" rx="2.5" ry="2.5" style="stroke:#181818;stroke-width:0.5;" width="128" x="1835" y="404.0137"/><ellipse cx="1850" cy="420.0137" fill="#B4A7E5" rx="11" ry="11" style="stroke:#181818;stroke-width:1.0;"/><path d="M1850.9531,416.6543 L1850.9531,423.3105 L1852.6719,423.3105 Q1853.2813,423.3105 1853.5469,423.5449 Q1853.8125,423.7793 1853.8125,424.1699 Q1853.8125,424.5449 1853.5469,424.7793 Q1853.2813,425.0137 1852.6719,425.0137 L1847.5313,425.0137 Q1846.9219,425.0137 1846.6563,424.7793 Q1846.3906,424.5449 1846.3906,424.1543 Q1846.3906,423.7793 1846.6563,423.5449 Q1846.9219,423.3105 1847.5313,423.3105 L1849.25,423.3105 L1849.25,416.6543 L1847.5313,416.6543 Q1846.9219,416.6543 1846.6563,416.4199 Q1846.3906,416.1855 1846.3906,415.7949 Q1846.3906,415.4199 1846.6563,415.1855 Q1846.9219,414.9512 1847.5313,414.9512 L1852.6719,414.9512 Q1853.2813,414.9512 1853.5469,415.1855 Q1853.8125,415.4199 1853.8125,415.7949 Q1853.8125,416.1855 1853.5469,416.4199 Q1853.2813,416.6543 1852.6719,416.6543 L1850.9531,416.6543 Z " fill="#000000"/><text fill="#000000" font-family="sans-serif" font-size="14" font-style="italic" lengthAdjust="spacing" textLength="96" x="1864" y="425.8105">AggregateRoot</text><line style="stroke:#181818;stroke-width:0.5;" x1="1836" x2="1962" y1="436.0137" y2="436.0137"/><line style="stroke:#181818;stroke-width:0.5;" x1="1836" x2="1962" y1="444.0137" y2="444.0137"/></g><!--class RepositoryReadWrite--><g id="elem_RepositoryReadWrite"><rect codeLine="15" fill="#F1F1F1" height="122.4844" id="RepositoryReadWrite" rx="2.5" ry="2.5" style="stroke:#181818;stroke-width:0.5;" width="238" x="1779" y="512.0137"/><ellipse cx="1825.75" cy="528.0137" fill="#B4A7E5" rx="11" ry="11" style="stroke:#181818;stroke-width:1.0;"/><path d="M1826.7031,524.6543 L1826.7031,531.3105 L1828.4219,531.3105 Q1829.0313,531.3105 1829.2969,531.5449 Q1829.5625,531.7793 1829.5625,532.1699 Q1829.5625,532.5449 1829.2969,532.7793 Q1829.0313,533.0137 1828.4219,533.0137 L1823.2813,533.0137 Q1822.6719,533.0137 1822.4063,532.7793 Q1822.1406,532.5449 1822.1406,532.1543 Q1822.1406,531.7793 1822.4063,531.5449 Q1822.6719,531.3105 1823.2813,531.3105 L1825,531.3105 L1825,524.6543 L1823.2813,524.6543 Q1822.6719,524.6543 1822.4063,524.4199 Q1822.1406,524.1855 1822.1406,523.7949 Q1822.1406,523.4199 1822.4063,523.1855 Q1822.6719,522.9512 1823.2813,522.9512 L1828.4219,522.9512 Q1829.0313,522.9512 1829.2969,523.1855 Q1829.5625,523.4199 1829.5625,523.7949 Q1829.5625,524.1855 1829.2969,524.4199 Q1829.0313,524.6543 1828.4219,524.6543 L1826.7031,524.6543 Z " fill="#000000"/><text fill="#000000" font-family="sans-serif" font-size="14" font-style="italic" lengthAdjust="spacing" textLength="136" x="1846.25" y="533.8105">RepositoryReadWrite</text><line style="stroke:#181818;stroke-width:0.5;" x1="1780" x2="2016" y1="544.0137" y2="544.0137"/><line style="stroke:#181818;stroke-width:0.5;" x1="1780" x2="2016" y1="552.0137" y2="552.0137"/><ellipse cx="1790" cy="566.8242" fill="#84BE84" rx="3" ry="3" style="stroke:#038048;stroke-width:1.0;"/><text fill="#000000" font-family="sans-serif" font-size="14" lengthAdjust="spacing" textLength="166" x="1799" y="571.1211">updateOrSave(T entity): T</text><ellipse cx="1790" cy="585.4453" fill="#84BE84" rx="3" ry="3" style="stroke:#038048;stroke-width:1.0;"/><text fill="#000000" font-family="sans-serif" font-size="14" lengthAdjust="spacing" textLength="174" x="1799" y="589.7422">findAllEntities(): Iterable&lt;T&gt;</text><ellipse cx="1790" cy="604.0664" fill="#84BE84" rx="3" ry="3" style="stroke:#038048;stroke-width:1.0;"/><text fill="#000000" font-family="sans-serif" font-size="14" lengthAdjust="spacing" textLength="209" x="1799" y="608.3633">findEntityById(ID id): Optional&lt;T&gt;</text><ellipse cx="1790" cy="622.6875" fill="#84BE84" rx="3" ry="3" style="stroke:#038048;stroke-width:1.0;"/><text fill="#000000" font-family="sans-serif" font-size="14" lengthAdjust="spacing" textLength="212" x="1799" y="626.9844">containsEntityById(ID id): boolean</text></g><!--class Actuator--><g id="elem_Actuator"><rect codeLine="31" fill="#F1F1F1" height="103.8633" id="Actuator" rx="2.5" ry="2.5" style="stroke:#181818;stroke-width:0.5;" width="330" x="1253" y="920.0137"/><ellipse cx="1387.25" cy="936.0137" fill="#B4A7E5" rx="11" ry="11" style="stroke:#181818;stroke-width:1.0;"/><path d="M1388.2031,932.6543 L1388.2031,939.3105 L1389.9219,939.3105 Q1390.5313,939.3105 1390.7969,939.5449 Q1391.0625,939.7793 1391.0625,940.1699 Q1391.0625,940.5449 1390.7969,940.7793 Q1390.5313,941.0137 1389.9219,941.0137 L1384.7813,941.0137 Q1384.1719,941.0137 1383.9063,940.7793 Q1383.6406,940.5449 1383.6406,940.1543 Q1383.6406,939.7793 1383.9063,939.5449 Q1384.1719,939.3105 1384.7813,939.3105 L1386.5,939.3105 L1386.5,932.6543 L1384.7813,932.6543 Q1384.1719,932.6543 1383.9063,932.4199 Q1383.6406,932.1855 1383.6406,931.7949 Q1383.6406,931.4199 1383.9063,931.1855 Q1384.1719,930.9512 1384.7813,930.9512 L1389.9219,930.9512 Q1390.5313,930.9512 1390.7969,931.1855 Q1391.0625,931.4199 1391.0625,931.7949 Q1391.0625,932.1855 1390.7969,932.4199 Q1390.5313,932.6543 1389.9219,932.6543 L1388.2031,932.6543 Z " fill="#000000"/><text fill="#000000" font-family="sans-serif" font-size="14" font-style="italic" lengthAdjust="spacing" textLength="53" x="1407.75" y="941.8105">Actuator</text><line style="stroke:#181818;stroke-width:0.5;" x1="1254" x2="1582" y1="952.0137" y2="952.0137"/><line style="stroke:#181818;stroke-width:0.5;" x1="1254" x2="1582" y1="960.0137" y2="960.0137"/><ellipse cx="1264" cy="974.8242" fill="#84BE84" rx="3" ry="3" style="stroke:#038048;stroke-width:1.0;"/><text fill="#000000" font-family="sans-serif" font-size="14" lengthAdjust="spacing" textLength="164" x="1273" y="979.1211">getActuatorName(): String</text><ellipse cx="1264" cy="993.4453" fill="#84BE84" rx="3" ry="3" style="stroke:#038048;stroke-width:1.0;"/><text fill="#000000" font-family="sans-serif" font-size="14" lengthAdjust="spacing" textLength="304" x="1273" y="997.7422">getActuatorFunctionality(): ActuatorFunctionality</text><ellipse cx="1264" cy="1012.0664" fill="#84BE84" rx="3" ry="3" style="stroke:#038048;stroke-width:1.0;"/><text fill="#000000" font-family="sans-serif" font-size="14" lengthAdjust="spacing" textLength="173" x="1273" y="1016.3633">getDeviceName(): DeviceID</text></g><!--class ActuatorFactory--><g id="elem_ActuatorFactory"><rect codeLine="27" fill="#F1F1F1" height="66.6211" id="ActuatorFactory" rx="2.5" ry="2.5" style="stroke:#181818;stroke-width:0.5;" width="190" x="1323" y="756.0137"/><ellipse cx="1363.65" cy="772.0137" fill="#ADD1B2" rx="11" ry="11" style="stroke:#181818;stroke-width:1.0;"/><path d="M1366.4156,767.8887 Q1366.5719,767.6699 1366.7594,767.5605 Q1366.9469,767.4512 1367.1656,767.4512 Q1367.5406,767.4512 1367.775,767.7168 Q1368.0094,767.9668 1368.0094,768.5762 L1368.0094,770.0293 Q1368.0094,770.6387 1367.775,770.9043 Q1367.5406,771.1699 1367.1656,771.1699 Q1366.8219,771.1699 1366.6188,770.9668 Q1366.4156,770.7793 1366.3063,770.2637 Q1366.2594,769.9043 1366.0719,769.7168 Q1365.7438,769.3418 1365.1344,769.123 Q1364.525,768.9043 1363.9,768.9043 Q1363.1344,768.9043 1362.4938,769.2324 Q1361.8688,769.5605 1361.3688,770.3105 Q1360.8844,771.0605 1360.8844,772.0918 L1360.8844,773.1855 Q1360.8844,774.4199 1361.775,775.248 Q1362.6656,776.0605 1364.2594,776.0605 Q1365.1969,776.0605 1365.8531,775.8105 Q1366.2438,775.6543 1366.6656,775.2168 Q1366.9313,774.9512 1367.0719,774.873 Q1367.2281,774.7949 1367.4313,774.7949 Q1367.7594,774.7949 1368.0094,775.0605 Q1368.275,775.3105 1368.275,775.6543 Q1368.275,775.998 1367.9313,776.4043 Q1367.4313,776.9824 1366.6344,777.3105 Q1365.5563,777.7637 1364.2594,777.7637 Q1362.7438,777.7637 1361.5406,777.1387 Q1360.5563,776.6387 1359.8688,775.5762 Q1359.1813,774.498 1359.1813,773.2168 L1359.1813,772.0605 Q1359.1813,770.7324 1359.7906,769.5918 Q1360.4156,768.4355 1361.5094,767.8262 Q1362.6031,767.2012 1363.8375,767.2012 Q1364.5719,767.2012 1365.2125,767.373 Q1365.8688,767.5293 1366.4156,767.8887 Z " fill="#000000"/><text fill="#000000" font-family="sans-serif" font-size="14" lengthAdjust="spacing" textLength="101" x="1383.35" y="777.8105">ActuatorFactory</text><line style="stroke:#181818;stroke-width:0.5;" x1="1324" x2="1512" y1="788.0137" y2="788.0137"/><line style="stroke:#181818;stroke-width:0.5;" x1="1324" x2="1512" y1="796.0137" y2="796.0137"/><ellipse cx="1334" cy="810.8242" fill="#84BE84" rx="3" ry="3" style="stroke:#038048;stroke-width:1.0;"/><text fill="#000000" font-family="sans-serif" font-size="14" lengthAdjust="spacing" textLength="164" x="1343" y="815.1211">createActuator(): Actuator</text></g><!--class ActuatorSpecificDecimal--><g id="elem_ActuatorSpecificDecimal"><rect codeLine="37" fill="#F1F1F1" height="66.6211" id="ActuatorSpecificDecimal" rx="2.5" ry="2.5" style="stroke:#181818;stroke-width:0.5;" width="285" x="1272.5" y="1084.0137"/><ellipse cx="1334.75" cy="1100.0137" fill="#B4A7E5" rx="11" ry="11" style="stroke:#181818;stroke-width:1.0;"/><path d="M1335.7031,1096.6543 L1335.7031,1103.3105 L1337.4219,1103.3105 Q1338.0313,1103.3105 1338.2969,1103.5449 Q1338.5625,1103.7793 1338.5625,1104.1699 Q1338.5625,1104.5449 1338.2969,1104.7793 Q1338.0313,1105.0137 1337.4219,1105.0137 L1332.2813,1105.0137 Q1331.6719,1105.0137 1331.4063,1104.7793 Q1331.1406,1104.5449 1331.1406,1104.1543 Q1331.1406,1103.7793 1331.4063,1103.5449 Q1331.6719,1103.3105 1332.2813,1103.3105 L1334,1103.3105 L1334,1096.6543 L1332.2813,1096.6543 Q1331.6719,1096.6543 1331.4063,1096.4199 Q1331.1406,1096.1855 1331.1406,1095.7949 Q1331.1406,1095.4199 1331.4063,1095.1855 Q1331.6719,1094.9512 1332.2813,1094.9512 L1337.4219,1094.9512 Q1338.0313,1094.9512 1338.2969,1095.1855 Q1338.5625,1095.4199 1338.5625,1095.7949 Q1338.5625,1096.1855 1338.2969,1096.4199 Q1338.0313,1096.6543 1337.4219,1096.6543 L1335.7031,1096.6543 Z " fill="#000000"/><text fill="#000000" font-family="sans-serif" font-size="14" font-style="italic" lengthAdjust="spacing" textLength="152" x="1355.25" y="1105.8105">ActuatorSpecificDecimal</text><line style="stroke:#181818;stroke-width:0.5;" x1="1273.5" x2="1556.5" y1="1116.0137" y2="1116.0137"/><line style="stroke:#181818;stroke-width:0.5;" x1="1273.5" x2="1556.5" y1="1124.0137" y2="1124.0137"/><ellipse cx="1283.5" cy="1138.8242" fill="#84BE84" rx="3" ry="3" style="stroke:#038048;stroke-width:1.0;"/><text fill="#000000" font-family="sans-serif" font-size="14" lengthAdjust="spacing" textLength="259" x="1292.5" y="1143.1211">setDecimalValue(double value) : boolean</text></g><!--class ActuatorSpecificInteger--><g id="elem_ActuatorSpecificInteger"><rect codeLine="40" fill="#F1F1F1" height="66.6211" id="ActuatorSpecificInteger" rx="2.5" ry="2.5" style="stroke:#181818;stroke-width:0.5;" width="370" x="636" y="1084.0137"/><ellipse cx="743.25" cy="1100.0137" fill="#B4A7E5" rx="11" ry="11" style="stroke:#181818;stroke-width:1.0;"/><path d="M744.2031,1096.6543 L744.2031,1103.3105 L745.9219,1103.3105 Q746.5313,1103.3105 746.7969,1103.5449 Q747.0625,1103.7793 747.0625,1104.1699 Q747.0625,1104.5449 746.7969,1104.7793 Q746.5313,1105.0137 745.9219,1105.0137 L740.7813,1105.0137 Q740.1719,1105.0137 739.9063,1104.7793 Q739.6406,1104.5449 739.6406,1104.1543 Q739.6406,1103.7793 739.9063,1103.5449 Q740.1719,1103.3105 740.7813,1103.3105 L742.5,1103.3105 L742.5,1096.6543 L740.7813,1096.6543 Q740.1719,1096.6543 739.9063,1096.4199 Q739.6406,1096.1855 739.6406,1095.7949 Q739.6406,1095.4199 739.9063,1095.1855 Q740.1719,1094.9512 740.7813,1094.9512 L745.9219,1094.9512 Q746.5313,1094.9512 746.7969,1095.1855 Q747.0625,1095.4199 747.0625,1095.7949 Q747.0625,1096.1855 746.7969,1096.4199 Q746.5313,1096.6543 745.9219,1096.6543 L744.2031,1096.6543 Z " fill="#000000"/><text fill="#000000" font-family="sans-serif" font-size="14" font-style="italic" lengthAdjust="spacing" textLength="147" x="763.75" y="1105.8105">ActuatorSpecificInteger</text><line style="stroke:#181818;stroke-width:0.5;" x1="637" x2="1005" y1="1116.0137" y2="1116.0137"/><line style="stroke:#181818;stroke-width:0.5;" x1="637" x2="1005" y1="1124.0137" y2="1124.0137"/><ellipse cx="647" cy="1138.8242" fill="#84BE84" rx="3" ry="3" style="stroke:#038048;stroke-width:1.0;"/><text fill="#000000" font-family="sans-serif" font-size="14" lengthAdjust="spacing" textLength="344" x="656" y="1143.1211">setActuatorSpecificValue (int specificInteger) : boolean</text></g><!--class BlindSetterActuator--><g id="elem_BlindSetterActuator"><rect codeLine="44" fill="#F1F1F1" height="234.2109" id="BlindSetterActuator" rx="2.5" ry="2.5" style="stroke:#181818;stroke-width:0.5;" width="362" x="46" y="1229.5137"/><ellipse cx="161.75" cy="1245.5137" fill="#ADD1B2" rx="11" ry="11" style="stroke:#181818;stroke-width:1.0;"/><path d="M164.5156,1241.3887 Q164.6719,1241.1699 164.8594,1241.0605 Q165.0469,1240.9512 165.2656,1240.9512 Q165.6406,1240.9512 165.875,1241.2168 Q166.1094,1241.4668 166.1094,1242.0762 L166.1094,1243.5293 Q166.1094,1244.1387 165.875,1244.4043 Q165.6406,1244.6699 165.2656,1244.6699 Q164.9219,1244.6699 164.7188,1244.4668 Q164.5156,1244.2793 164.4063,1243.7637 Q164.3594,1243.4043 164.1719,1243.2168 Q163.8438,1242.8418 163.2344,1242.623 Q162.625,1242.4043 162,1242.4043 Q161.2344,1242.4043 160.5938,1242.7324 Q159.9688,1243.0605 159.4688,1243.8105 Q158.9844,1244.5605 158.9844,1245.5918 L158.9844,1246.6855 Q158.9844,1247.9199 159.875,1248.748 Q160.7656,1249.5605 162.3594,1249.5605 Q163.2969,1249.5605 163.9531,1249.3105 Q164.3438,1249.1543 164.7656,1248.7168 Q165.0313,1248.4512 165.1719,1248.373 Q165.3281,1248.2949 165.5313,1248.2949 Q165.8594,1248.2949 166.1094,1248.5605 Q166.375,1248.8105 166.375,1249.1543 Q166.375,1249.498 166.0313,1249.9043 Q165.5313,1250.4824 164.7344,1250.8105 Q163.6563,1251.2637 162.3594,1251.2637 Q160.8438,1251.2637 159.6406,1250.6387 Q158.6563,1250.1387 157.9688,1249.0762 Q157.2813,1247.998 157.2813,1246.7168 L157.2813,1245.5605 Q157.2813,1244.2324 157.8906,1243.0918 Q158.5156,1241.9355 159.6094,1241.3262 Q160.7031,1240.7012 161.9375,1240.7012 Q162.6719,1240.7012 163.3125,1240.873 Q163.9688,1241.0293 164.5156,1241.3887 Z " fill="#000000"/><text fill="#000000" font-family="sans-serif" font-size="14" lengthAdjust="spacing" textLength="122" x="182.25" y="1251.3105">BlindSetterActuator</text><line style="stroke:#181818;stroke-width:0.5;" x1="47" x2="407" y1="1261.5137" y2="1261.5137"/><rect fill="none" height="6" style="stroke:#C82930;stroke-width:1.0;" width="6" x="54" y="1273.3242"/><text fill="#000000" font-family="sans-serif" font-size="14" lengthAdjust="spacing" textLength="166" x="66" y="1280.6211">actuatorName : ActuatorID</text><rect fill="none" height="6" style="stroke:#C82930;stroke-width:1.0;" width="6" x="54" y="1291.9453"/><text fill="#000000" font-family="sans-serif" font-size="14" lengthAdjust="spacing" textLength="247" x="66" y="1299.2422">actuatorProperties : ActuatorProperties</text><rect fill="none" height="6" style="stroke:#C82930;stroke-width:1.0;" width="6" x="54" y="1310.5664"/><text fill="#000000" font-family="sans-serif" font-size="14" lengthAdjust="spacing" textLength="303" x="66" y="1317.8633">actuatorFunctionalityID : ActuatorFunctionalityID</text><rect fill="none" height="6" style="stroke:#C82930;stroke-width:1.0;" width="6" x="54" y="1329.1875"/><text fill="#000000" font-family="sans-serif" font-size="14" lengthAdjust="spacing" textLength="145" x="66" y="1336.4844">deviceName : DeviceID</text><line style="stroke:#181818;stroke-width:0.5;" x1="47" x2="407" y1="1343.998" y2="1343.998"/><ellipse cx="57" cy="1358.8086" fill="#84BE84" rx="3" ry="3" style="stroke:#038048;stroke-width:1.0;"/><text fill="#000000" font-family="sans-serif" font-size="14" lengthAdjust="spacing" textLength="164" x="66" y="1363.1055">getActuatorName(): String</text><ellipse cx="57" cy="1377.4297" fill="#84BE84" rx="3" ry="3" style="stroke:#038048;stroke-width:1.0;"/><text fill="#000000" font-family="sans-serif" font-size="14" lengthAdjust="spacing" textLength="330" x="66" y="1381.7266">getActuatorFunctionalityID(): ActuatorFunctionalityID</text><ellipse cx="57" cy="1396.0508" fill="#84BE84" rx="3" ry="3" style="stroke:#038048;stroke-width:1.0;"/><text fill="#000000" font-family="sans-serif" font-size="14" lengthAdjust="spacing" textLength="336" x="66" y="1400.3477">setActuatorSpecificValue(int specificInteger): boolean</text><ellipse cx="57" cy="1414.6719" fill="#84BE84" rx="3" ry="3" style="stroke:#038048;stroke-width:1.0;"/><text fill="#000000" font-family="sans-serif" font-size="14" lengthAdjust="spacing" textLength="173" x="66" y="1418.9688">getDeviceName(): DeviceID</text><ellipse cx="57" cy="1433.293" fill="#84BE84" rx="3" ry="3" style="stroke:#038048;stroke-width:1.0;"/><text fill="#000000" font-family="sans-serif" font-size="14" lengthAdjust="spacing" textLength="133" x="66" y="1437.5898">identity() : ActuatorID</text><ellipse cx="57" cy="1451.9141" fill="#84BE84" rx="3" ry="3" style="stroke:#038048;stroke-width:1.0;"/><text fill="#000000" font-family="sans-serif" font-size="14" lengthAdjust="spacing" textLength="214" x="66" y="1456.2109">isSameAs(Object object): boolean</text></g><!--class DecimalSetterActuator--><g id="elem_DecimalSetterActuator"><rect codeLine="56" fill="#F1F1F1" height="271.4531" id="DecimalSetterActuator" rx="2.5" ry="2.5" style="stroke:#181818;stroke-width:0.5;" width="356" x="1231" y="1211.0137"/><ellipse cx="1334.25" cy="1227.0137" fill="#ADD1B2" rx="11" ry="11" style="stroke:#181818;stroke-width:1.0;"/><path d="M1337.0156,1222.8887 Q1337.1719,1222.6699 1337.3594,1222.5605 Q1337.5469,1222.4512 1337.7656,1222.4512 Q1338.1406,1222.4512 1338.375,1222.7168 Q1338.6094,1222.9668 1338.6094,1223.5762 L1338.6094,1225.0293 Q1338.6094,1225.6387 1338.375,1225.9043 Q1338.1406,1226.1699 1337.7656,1226.1699 Q1337.4219,1226.1699 1337.2188,1225.9668 Q1337.0156,1225.7793 1336.9063,1225.2637 Q1336.8594,1224.9043 1336.6719,1224.7168 Q1336.3438,1224.3418 1335.7344,1224.123 Q1335.125,1223.9043 1334.5,1223.9043 Q1333.7344,1223.9043 1333.0938,1224.2324 Q1332.4688,1224.5605 1331.9688,1225.3105 Q1331.4844,1226.0605 1331.4844,1227.0918 L1331.4844,1228.1855 Q1331.4844,1229.4199 1332.375,1230.248 Q1333.2656,1231.0605 1334.8594,1231.0605 Q1335.7969,1231.0605 1336.4531,1230.8105 Q1336.8438,1230.6543 1337.2656,1230.2168 Q1337.5313,1229.9512 1337.6719,1229.873 Q1337.8281,1229.7949 1338.0313,1229.7949 Q1338.3594,1229.7949 1338.6094,1230.0605 Q1338.875,1230.3105 1338.875,1230.6543 Q1338.875,1230.998 1338.5313,1231.4043 Q1338.0313,1231.9824 1337.2344,1232.3105 Q1336.1563,1232.7637 1334.8594,1232.7637 Q1333.3438,1232.7637 1332.1406,1232.1387 Q1331.1563,1231.6387 1330.4688,1230.5762 Q1329.7813,1229.498 1329.7813,1228.2168 L1329.7813,1227.0605 Q1329.7813,1225.7324 1330.3906,1224.5918 Q1331.0156,1223.4355 1332.1094,1222.8262 Q1333.2031,1222.2012 1334.4375,1222.2012 Q1335.1719,1222.2012 1335.8125,1222.373 Q1336.4688,1222.5293 1337.0156,1222.8887 Z " fill="#000000"/><text fill="#000000" font-family="sans-serif" font-size="14" lengthAdjust="spacing" textLength="141" x="1354.75" y="1232.8105">DecimalSetterActuator</text><line style="stroke:#181818;stroke-width:0.5;" x1="1232" x2="1586" y1="1243.0137" y2="1243.0137"/><rect fill="none" height="6" style="stroke:#C82930;stroke-width:1.0;" width="6" x="1239" y="1254.8242"/><text fill="#000000" font-family="sans-serif" font-size="14" lengthAdjust="spacing" textLength="166" x="1251" y="1262.1211">actuatorName : ActuatorID</text><rect fill="none" height="6" style="stroke:#C82930;stroke-width:1.0;" width="6" x="1239" y="1273.4453"/><text fill="#000000" font-family="sans-serif" font-size="14" lengthAdjust="spacing" textLength="243" x="1251" y="1280.7422">actuatorProperties: ActuatorProperties</text><rect fill="none" height="6" style="stroke:#C82930;stroke-width:1.0;" width="6" x="1239" y="1292.0664"/><text fill="#000000" font-family="sans-serif" font-size="14" lengthAdjust="spacing" textLength="303" x="1251" y="1299.3633">actuatorFunctionalityID : ActuatorFunctionalityID</text><rect fill="none" height="6" style="stroke:#C82930;stroke-width:1.0;" width="6" x="1239" y="1310.6875"/><text fill="#000000" font-family="sans-serif" font-size="14" lengthAdjust="spacing" textLength="176" x="1251" y="1317.9844">targetValue: ActuatorTarget</text><rect fill="none" height="6" style="stroke:#C82930;stroke-width:1.0;" width="6" x="1239" y="1329.3086"/><text fill="#000000" font-family="sans-serif" font-size="14" lengthAdjust="spacing" textLength="145" x="1251" y="1336.6055">deviceName : DeviceID</text><line style="stroke:#181818;stroke-width:0.5;" x1="1232" x2="1586" y1="1344.1191" y2="1344.1191"/><ellipse cx="1242" cy="1358.9297" fill="#84BE84" rx="3" ry="3" style="stroke:#038048;stroke-width:1.0;"/><text fill="#000000" font-family="sans-serif" font-size="14" lengthAdjust="spacing" textLength="164" x="1251" y="1363.2266">getActuatorName(): String</text><ellipse cx="1242" cy="1377.5508" fill="#84BE84" rx="3" ry="3" style="stroke:#038048;stroke-width:1.0;"/><text fill="#000000" font-family="sans-serif" font-size="14" lengthAdjust="spacing" textLength="330" x="1251" y="1381.8477">getActuatorFunctionalityID(): ActuatorFunctionalityID</text><ellipse cx="1242" cy="1396.1719" fill="#84BE84" rx="3" ry="3" style="stroke:#038048;stroke-width:1.0;"/><text fill="#000000" font-family="sans-serif" font-size="14" lengthAdjust="spacing" textLength="211" x="1251" y="1400.4688">getTargetValue(): ActuatorTarget</text><ellipse cx="1242" cy="1414.793" fill="#84BE84" rx="3" ry="3" style="stroke:#038048;stroke-width:1.0;"/><text fill="#000000" font-family="sans-serif" font-size="14" lengthAdjust="spacing" textLength="282" x="1251" y="1419.0898">setDecimalValue(double newValue): boolean</text><ellipse cx="1242" cy="1433.4141" fill="#84BE84" rx="3" ry="3" style="stroke:#038048;stroke-width:1.0;"/><text fill="#000000" font-family="sans-serif" font-size="14" lengthAdjust="spacing" textLength="173" x="1251" y="1437.7109">getDeviceName(): DeviceID</text><ellipse cx="1242" cy="1452.0352" fill="#84BE84" rx="3" ry="3" style="stroke:#038048;stroke-width:1.0;"/><text fill="#000000" font-family="sans-serif" font-size="14" lengthAdjust="spacing" textLength="133" x="1251" y="1456.332">identity() : ActuatorID</text><ellipse cx="1242" cy="1470.6563" fill="#84BE84" rx="3" ry="3" style="stroke:#038048;stroke-width:1.0;"/><text fill="#000000" font-family="sans-serif" font-size="14" lengthAdjust="spacing" textLength="214" x="1251" y="1474.9531">isSameAs(Object object): boolean</text></g><!--class IntegerSetterActuator--><g id="elem_IntegerSetterActuator"><rect codeLine="71" fill="#F1F1F1" height="234.2109" id="IntegerSetterActuator" rx="2.5" ry="2.5" style="stroke:#181818;stroke-width:0.5;" width="362" x="443" y="1229.5137"/><ellipse cx="552.25" cy="1245.5137" fill="#ADD1B2" rx="11" ry="11" style="stroke:#181818;stroke-width:1.0;"/><path d="M555.0156,1241.3887 Q555.1719,1241.1699 555.3594,1241.0605 Q555.5469,1240.9512 555.7656,1240.9512 Q556.1406,1240.9512 556.375,1241.2168 Q556.6094,1241.4668 556.6094,1242.0762 L556.6094,1243.5293 Q556.6094,1244.1387 556.375,1244.4043 Q556.1406,1244.6699 555.7656,1244.6699 Q555.4219,1244.6699 555.2188,1244.4668 Q555.0156,1244.2793 554.9063,1243.7637 Q554.8594,1243.4043 554.6719,1243.2168 Q554.3438,1242.8418 553.7344,1242.623 Q553.125,1242.4043 552.5,1242.4043 Q551.7344,1242.4043 551.0938,1242.7324 Q550.4688,1243.0605 549.9688,1243.8105 Q549.4844,1244.5605 549.4844,1245.5918 L549.4844,1246.6855 Q549.4844,1247.9199 550.375,1248.748 Q551.2656,1249.5605 552.8594,1249.5605 Q553.7969,1249.5605 554.4531,1249.3105 Q554.8438,1249.1543 555.2656,1248.7168 Q555.5313,1248.4512 555.6719,1248.373 Q555.8281,1248.2949 556.0313,1248.2949 Q556.3594,1248.2949 556.6094,1248.5605 Q556.875,1248.8105 556.875,1249.1543 Q556.875,1249.498 556.5313,1249.9043 Q556.0313,1250.4824 555.2344,1250.8105 Q554.1563,1251.2637 552.8594,1251.2637 Q551.3438,1251.2637 550.1406,1250.6387 Q549.1563,1250.1387 548.4688,1249.0762 Q547.7813,1247.998 547.7813,1246.7168 L547.7813,1245.5605 Q547.7813,1244.2324 548.3906,1243.0918 Q549.0156,1241.9355 550.1094,1241.3262 Q551.2031,1240.7012 552.4375,1240.7012 Q553.1719,1240.7012 553.8125,1240.873 Q554.4688,1241.0293 555.0156,1241.3887 Z " fill="#000000"/><text fill="#000000" font-family="sans-serif" font-size="14" lengthAdjust="spacing" textLength="135" x="572.75" y="1251.3105">IntegerSetterActuator</text><line style="stroke:#181818;stroke-width:0.5;" x1="444" x2="804" y1="1261.5137" y2="1261.5137"/><rect fill="none" height="6" style="stroke:#C82930;stroke-width:1.0;" width="6" x="451" y="1273.3242"/><text fill="#000000" font-family="sans-serif" font-size="14" lengthAdjust="spacing" textLength="166" x="463" y="1280.6211">actuatorName : ActuatorID</text><rect fill="none" height="6" style="stroke:#C82930;stroke-width:1.0;" width="6" x="451" y="1291.9453"/><text fill="#000000" font-family="sans-serif" font-size="14" lengthAdjust="spacing" textLength="243" x="463" y="1299.2422">actuatorProperties: ActuatorProperties</text><rect fill="none" height="6" style="stroke:#C82930;stroke-width:1.0;" width="6" x="451" y="1310.5664"/><text fill="#000000" font-family="sans-serif" font-size="14" lengthAdjust="spacing" textLength="299" x="463" y="1317.8633">actuatorFunctionalityID: ActuatorFunctionalityID</text><rect fill="none" height="6" style="stroke:#C82930;stroke-width:1.0;" width="6" x="451" y="1329.1875"/><text fill="#000000" font-family="sans-serif" font-size="14" lengthAdjust="spacing" textLength="145" x="463" y="1336.4844">deviceName : DeviceID</text><line style="stroke:#181818;stroke-width:0.5;" x1="444" x2="804" y1="1343.998" y2="1343.998"/><ellipse cx="454" cy="1358.8086" fill="#84BE84" rx="3" ry="3" style="stroke:#038048;stroke-width:1.0;"/><text fill="#000000" font-family="sans-serif" font-size="14" lengthAdjust="spacing" textLength="164" x="463" y="1363.1055">getActuatorName(): String</text><ellipse cx="454" cy="1377.4297" fill="#84BE84" rx="3" ry="3" style="stroke:#038048;stroke-width:1.0;"/><text fill="#000000" font-family="sans-serif" font-size="14" lengthAdjust="spacing" textLength="330" x="463" y="1381.7266">getActuatorFunctionalityID(): ActuatorFunctionalityID</text><ellipse cx="454" cy="1396.0508" fill="#84BE84" rx="3" ry="3" style="stroke:#038048;stroke-width:1.0;"/><text fill="#000000" font-family="sans-serif" font-size="14" lengthAdjust="spacing" textLength="336" x="463" y="1400.3477">setActuatorSpecificValue(int specificInteger): boolean</text><ellipse cx="454" cy="1414.6719" fill="#84BE84" rx="3" ry="3" style="stroke:#038048;stroke-width:1.0;"/><text fill="#000000" font-family="sans-serif" font-size="14" lengthAdjust="spacing" textLength="173" x="463" y="1418.9688">getDeviceName(): DeviceID</text><ellipse cx="454" cy="1433.293" fill="#84BE84" rx="3" ry="3" style="stroke:#038048;stroke-width:1.0;"/><text fill="#000000" font-family="sans-serif" font-size="14" lengthAdjust="spacing" textLength="133" x="463" y="1437.5898">identity() : ActuatorID</text><ellipse cx="454" cy="1451.9141" fill="#84BE84" rx="3" ry="3" style="stroke:#038048;stroke-width:1.0;"/><text fill="#000000" font-family="sans-serif" font-size="14" lengthAdjust="spacing" textLength="214" x="463" y="1456.2109">isSameAs(Object object): boolean</text></g><!--class SwitchActuator--><g id="elem_SwitchActuator"><rect codeLine="84" fill="#F1F1F1" height="252.832" id="SwitchActuator" rx="2.5" ry="2.5" style="stroke:#181818;stroke-width:0.5;" width="356" x="840" y="1220.0137"/><ellipse cx="967.25" cy="1236.0137" fill="#ADD1B2" rx="11" ry="11" style="stroke:#181818;stroke-width:1.0;"/><path d="M970.0156,1231.8887 Q970.1719,1231.6699 970.3594,1231.5605 Q970.5469,1231.4512 970.7656,1231.4512 Q971.1406,1231.4512 971.375,1231.7168 Q971.6094,1231.9668 971.6094,1232.5762 L971.6094,1234.0293 Q971.6094,1234.6387 971.375,1234.9043 Q971.1406,1235.1699 970.7656,1235.1699 Q970.4219,1235.1699 970.2188,1234.9668 Q970.0156,1234.7793 969.9063,1234.2637 Q969.8594,1233.9043 969.6719,1233.7168 Q969.3438,1233.3418 968.7344,1233.123 Q968.125,1232.9043 967.5,1232.9043 Q966.7344,1232.9043 966.0938,1233.2324 Q965.4688,1233.5605 964.9688,1234.3105 Q964.4844,1235.0605 964.4844,1236.0918 L964.4844,1237.1855 Q964.4844,1238.4199 965.375,1239.248 Q966.2656,1240.0605 967.8594,1240.0605 Q968.7969,1240.0605 969.4531,1239.8105 Q969.8438,1239.6543 970.2656,1239.2168 Q970.5313,1238.9512 970.6719,1238.873 Q970.8281,1238.7949 971.0313,1238.7949 Q971.3594,1238.7949 971.6094,1239.0605 Q971.875,1239.3105 971.875,1239.6543 Q971.875,1239.998 971.5313,1240.4043 Q971.0313,1240.9824 970.2344,1241.3105 Q969.1563,1241.7637 967.8594,1241.7637 Q966.3438,1241.7637 965.1406,1241.1387 Q964.1563,1240.6387 963.4688,1239.5762 Q962.7813,1238.498 962.7813,1237.2168 L962.7813,1236.0605 Q962.7813,1234.7324 963.3906,1233.5918 Q964.0156,1232.4355 965.1094,1231.8262 Q966.2031,1231.2012 967.4375,1231.2012 Q968.1719,1231.2012 968.8125,1231.373 Q969.4688,1231.5293 970.0156,1231.8887 Z " fill="#000000"/><text fill="#000000" font-family="sans-serif" font-size="14" lengthAdjust="spacing" textLength="93" x="987.75" y="1241.8105">SwitchActuator</text><line style="stroke:#181818;stroke-width:0.5;" x1="841" x2="1195" y1="1252.0137" y2="1252.0137"/><rect fill="none" height="6" style="stroke:#C82930;stroke-width:1.0;" width="6" x="848" y="1263.8242"/><text fill="#000000" font-family="sans-serif" font-size="14" lengthAdjust="spacing" textLength="166" x="860" y="1271.1211">actuatorName : ActuatorID</text><rect fill="none" height="6" style="stroke:#C82930;stroke-width:1.0;" width="6" x="848" y="1282.4453"/><text fill="#000000" font-family="sans-serif" font-size="14" lengthAdjust="spacing" textLength="243" x="860" y="1289.7422">actuatorProperties: ActuatorProperties</text><rect fill="none" height="6" style="stroke:#C82930;stroke-width:1.0;" width="6" x="848" y="1301.0664"/><text fill="#000000" font-family="sans-serif" font-size="14" lengthAdjust="spacing" textLength="303" x="860" y="1308.3633">actuatorFunctionalityID : ActuatorFunctionalityID</text><rect fill="none" height="6" style="stroke:#C82930;stroke-width:1.0;" width="6" x="848" y="1319.6875"/><text fill="#000000" font-family="sans-serif" font-size="14" lengthAdjust="spacing" textLength="179" x="860" y="1326.9844">status: SwitchActuatorStatus</text><rect fill="none" height="6" style="stroke:#C82930;stroke-width:1.0;" width="6" x="848" y="1338.3086"/><text fill="#000000" font-family="sans-serif" font-size="14" lengthAdjust="spacing" textLength="145" x="860" y="1345.6055">deviceName : DeviceID</text><line style="stroke:#181818;stroke-width:0.5;" x1="841" x2="1195" y1="1353.1191" y2="1353.1191"/><ellipse cx="851" cy="1367.9297" fill="#84BE84" rx="3" ry="3" style="stroke:#038048;stroke-width:1.0;"/><text fill="#000000" font-family="sans-serif" font-size="14" lengthAdjust="spacing" textLength="164" x="860" y="1372.2266">getActuatorName(): String</text><ellipse cx="851" cy="1386.5508" fill="#84BE84" rx="3" ry="3" style="stroke:#038048;stroke-width:1.0;"/><text fill="#000000" font-family="sans-serif" font-size="14" lengthAdjust="spacing" textLength="330" x="860" y="1390.8477">getActuatorFunctionalityID(): ActuatorFunctionalityID</text><ellipse cx="851" cy="1405.1719" fill="#84BE84" rx="3" ry="3" style="stroke:#038048;stroke-width:1.0;"/><text fill="#000000" font-family="sans-serif" font-size="14" lengthAdjust="spacing" textLength="328" x="860" y="1409.4688">setActuatorSpecificValue(int specificValue): boolean</text><ellipse cx="851" cy="1423.793" fill="#84BE84" rx="3" ry="3" style="stroke:#038048;stroke-width:1.0;"/><text fill="#000000" font-family="sans-serif" font-size="14" lengthAdjust="spacing" textLength="173" x="860" y="1428.0898">getDeviceName(): DeviceID</text><ellipse cx="851" cy="1442.4141" fill="#84BE84" rx="3" ry="3" style="stroke:#038048;stroke-width:1.0;"/><text fill="#000000" font-family="sans-serif" font-size="14" lengthAdjust="spacing" textLength="133" x="860" y="1446.7109">identity() : ActuatorID</text><ellipse cx="851" cy="1461.0352" fill="#84BE84" rx="3" ry="3" style="stroke:#038048;stroke-width:1.0;"/><text fill="#000000" font-family="sans-serif" font-size="14" lengthAdjust="spacing" textLength="214" x="860" y="1465.332">isSameAs(Object object): boolean</text></g><!--class ActuatorID--><g id="elem_ActuatorID"><rect codeLine="103" fill="#F1F1F1" height="122.4844" id="ActuatorID" rx="2.5" ry="2.5" style="stroke:#181818;stroke-width:0.5;" width="220" x="384" y="1568.5137"/><ellipse cx="456.75" cy="1584.5137" fill="#ADD1B2" rx="11" ry="11" style="stroke:#181818;stroke-width:1.0;"/><path d="M459.5156,1580.3887 Q459.6719,1580.1699 459.8594,1580.0605 Q460.0469,1579.9512 460.2656,1579.9512 Q460.6406,1579.9512 460.875,1580.2168 Q461.1094,1580.4668 461.1094,1581.0762 L461.1094,1582.5293 Q461.1094,1583.1387 460.875,1583.4043 Q460.6406,1583.6699 460.2656,1583.6699 Q459.9219,1583.6699 459.7188,1583.4668 Q459.5156,1583.2793 459.4063,1582.7637 Q459.3594,1582.4043 459.1719,1582.2168 Q458.8438,1581.8418 458.2344,1581.623 Q457.625,1581.4043 457,1581.4043 Q456.2344,1581.4043 455.5938,1581.7324 Q454.9688,1582.0605 454.4688,1582.8105 Q453.9844,1583.5605 453.9844,1584.5918 L453.9844,1585.6855 Q453.9844,1586.9199 454.875,1587.748 Q455.7656,1588.5605 457.3594,1588.5605 Q458.2969,1588.5605 458.9531,1588.3105 Q459.3438,1588.1543 459.7656,1587.7168 Q460.0313,1587.4512 460.1719,1587.373 Q460.3281,1587.2949 460.5313,1587.2949 Q460.8594,1587.2949 461.1094,1587.5605 Q461.375,1587.8105 461.375,1588.1543 Q461.375,1588.498 461.0313,1588.9043 Q460.5313,1589.4824 459.7344,1589.8105 Q458.6563,1590.2637 457.3594,1590.2637 Q455.8438,1590.2637 454.6406,1589.6387 Q453.6563,1589.1387 452.9688,1588.0762 Q452.2813,1586.998 452.2813,1585.7168 L452.2813,1584.5605 Q452.2813,1583.2324 452.8906,1582.0918 Q453.5156,1580.9355 454.6094,1580.3262 Q455.7031,1579.7012 456.9375,1579.7012 Q457.6719,1579.7012 458.3125,1579.873 Q458.9688,1580.0293 459.5156,1580.3887 Z " fill="#000000"/><text fill="#000000" font-family="sans-serif" font-size="14" lengthAdjust="spacing" textLength="66" x="477.25" y="1590.3105">ActuatorID</text><line style="stroke:#181818;stroke-width:0.5;" x1="385" x2="603" y1="1600.5137" y2="1600.5137"/><rect fill="none" height="6" style="stroke:#C82930;stroke-width:1.0;" width="6" x="392" y="1612.3242"/><text fill="#000000" font-family="sans-serif" font-size="14" lengthAdjust="spacing" textLength="133" x="404" y="1619.6211">actuatorName: String</text><line style="stroke:#181818;stroke-width:0.5;" x1="385" x2="603" y1="1627.1348" y2="1627.1348"/><ellipse cx="395" cy="1641.9453" fill="#84BE84" rx="3" ry="3" style="stroke:#038048;stroke-width:1.0;"/><text fill="#000000" font-family="sans-serif" font-size="14" lengthAdjust="spacing" textLength="194" x="404" y="1646.2422">equals(Object object): boolean</text><ellipse cx="395" cy="1660.5664" fill="#84BE84" rx="3" ry="3" style="stroke:#038048;stroke-width:1.0;"/><text fill="#000000" font-family="sans-serif" font-size="14" lengthAdjust="spacing" textLength="98" x="404" y="1664.8633">hashCode(): int</text><ellipse cx="395" cy="1679.1875" fill="#84BE84" rx="3" ry="3" style="stroke:#038048;stroke-width:1.0;"/><text fill="#000000" font-family="sans-serif" font-size="14" lengthAdjust="spacing" textLength="104" x="404" y="1683.4844">toString(): String</text></g><!--class ActuatorProperties--><g id="elem_ActuatorProperties"><rect codeLine="109" fill="#F1F1F1" height="122.4844" id="ActuatorProperties" rx="2.5" ry="2.5" style="stroke:#181818;stroke-width:0.5;" width="248" x="918" y="1568.5137"/><ellipse cx="978.75" cy="1584.5137" fill="#ADD1B2" rx="11" ry="11" style="stroke:#181818;stroke-width:1.0;"/><path d="M981.5156,1580.3887 Q981.6719,1580.1699 981.8594,1580.0605 Q982.0469,1579.9512 982.2656,1579.9512 Q982.6406,1579.9512 982.875,1580.2168 Q983.1094,1580.4668 983.1094,1581.0762 L983.1094,1582.5293 Q983.1094,1583.1387 982.875,1583.4043 Q982.6406,1583.6699 982.2656,1583.6699 Q981.9219,1583.6699 981.7188,1583.4668 Q981.5156,1583.2793 981.4063,1582.7637 Q981.3594,1582.4043 981.1719,1582.2168 Q980.8438,1581.8418 980.2344,1581.623 Q979.625,1581.4043 979,1581.4043 Q978.2344,1581.4043 977.5938,1581.7324 Q976.9688,1582.0605 976.4688,1582.8105 Q975.9844,1583.5605 975.9844,1584.5918 L975.9844,1585.6855 Q975.9844,1586.9199 976.875,1587.748 Q977.7656,1588.5605 979.3594,1588.5605 Q980.2969,1588.5605 980.9531,1588.3105 Q981.3438,1588.1543 981.7656,1587.7168 Q982.0313,1587.4512 982.1719,1587.373 Q982.3281,1587.2949 982.5313,1587.2949 Q982.8594,1587.2949 983.1094,1587.5605 Q983.375,1587.8105 983.375,1588.1543 Q983.375,1588.498 983.0313,1588.9043 Q982.5313,1589.4824 981.7344,1589.8105 Q980.6563,1590.2637 979.3594,1590.2637 Q977.8438,1590.2637 976.6406,1589.6387 Q975.6563,1589.1387 974.9688,1588.0762 Q974.2813,1586.998 974.2813,1585.7168 L974.2813,1584.5605 Q974.2813,1583.2324 974.8906,1582.0918 Q975.5156,1580.9355 976.6094,1580.3262 Q977.7031,1579.7012 978.9375,1579.7012 Q979.6719,1579.7012 980.3125,1579.873 Q980.9688,1580.0293 981.5156,1580.3887 Z " fill="#000000"/><text fill="#000000" font-family="sans-serif" font-size="14" lengthAdjust="spacing" textLength="118" x="999.25" y="1590.3105">ActuatorProperties</text><line style="stroke:#181818;stroke-width:0.5;" x1="919" x2="1165" y1="1600.5137" y2="1600.5137"/><rect fill="none" height="6" style="stroke:#C82930;stroke-width:1.0;" width="6" x="926" y="1612.3242"/><text fill="#000000" font-family="sans-serif" font-size="14" lengthAdjust="spacing" textLength="117" x="938" y="1619.6211">rangeInt: RangeInt</text><rect fill="none" height="6" style="stroke:#C82930;stroke-width:1.0;" width="6" x="926" y="1630.9453"/><text fill="#000000" font-family="sans-serif" font-size="14" lengthAdjust="spacing" textLength="187" x="938" y="1638.2422">rangeDecimal: RangeDecimal</text><line style="stroke:#181818;stroke-width:0.5;" x1="919" x2="1165" y1="1645.7559" y2="1645.7559"/><ellipse cx="929" cy="1660.5664" fill="#84BE84" rx="3" ry="3" style="stroke:#038048;stroke-width:1.0;"/><text fill="#000000" font-family="sans-serif" font-size="14" lengthAdjust="spacing" textLength="152" x="938" y="1664.8633">getRangeInt(): RangeInt</text><ellipse cx="929" cy="1679.1875" fill="#84BE84" rx="3" ry="3" style="stroke:#038048;stroke-width:1.0;"/><text fill="#000000" font-family="sans-serif" font-size="14" lengthAdjust="spacing" textLength="222" x="938" y="1683.4844">getRangeDecimal(): RangeDecimal</text></g><!--class RangeInt--><g id="elem_RangeInt"><rect codeLine="116" fill="#F1F1F1" height="122.4844" id="RangeInt" rx="2.5" ry="2.5" style="stroke:#181818;stroke-width:0.5;" width="161" x="1012.5" y="1779.0137"/><ellipse cx="1060.25" cy="1795.0137" fill="#ADD1B2" rx="11" ry="11" style="stroke:#181818;stroke-width:1.0;"/><path d="M1063.0156,1790.8887 Q1063.1719,1790.6699 1063.3594,1790.5605 Q1063.5469,1790.4512 1063.7656,1790.4512 Q1064.1406,1790.4512 1064.375,1790.7168 Q1064.6094,1790.9668 1064.6094,1791.5762 L1064.6094,1793.0293 Q1064.6094,1793.6387 1064.375,1793.9043 Q1064.1406,1794.1699 1063.7656,1794.1699 Q1063.4219,1794.1699 1063.2188,1793.9668 Q1063.0156,1793.7793 1062.9063,1793.2637 Q1062.8594,1792.9043 1062.6719,1792.7168 Q1062.3438,1792.3418 1061.7344,1792.123 Q1061.125,1791.9043 1060.5,1791.9043 Q1059.7344,1791.9043 1059.0938,1792.2324 Q1058.4688,1792.5605 1057.9688,1793.3105 Q1057.4844,1794.0605 1057.4844,1795.0918 L1057.4844,1796.1855 Q1057.4844,1797.4199 1058.375,1798.248 Q1059.2656,1799.0605 1060.8594,1799.0605 Q1061.7969,1799.0605 1062.4531,1798.8105 Q1062.8438,1798.6543 1063.2656,1798.2168 Q1063.5313,1797.9512 1063.6719,1797.873 Q1063.8281,1797.7949 1064.0313,1797.7949 Q1064.3594,1797.7949 1064.6094,1798.0605 Q1064.875,1798.3105 1064.875,1798.6543 Q1064.875,1798.998 1064.5313,1799.4043 Q1064.0313,1799.9824 1063.2344,1800.3105 Q1062.1563,1800.7637 1060.8594,1800.7637 Q1059.3438,1800.7637 1058.1406,1800.1387 Q1057.1563,1799.6387 1056.4688,1798.5762 Q1055.7813,1797.498 1055.7813,1796.2168 L1055.7813,1795.0605 Q1055.7813,1793.7324 1056.3906,1792.5918 Q1057.0156,1791.4355 1058.1094,1790.8262 Q1059.2031,1790.2012 1060.4375,1790.2012 Q1061.1719,1790.2012 1061.8125,1790.373 Q1062.4688,1790.5293 1063.0156,1790.8887 Z " fill="#000000"/><text fill="#000000" font-family="sans-serif" font-size="14" lengthAdjust="spacing" textLength="57" x="1080.75" y="1800.8105">RangeInt</text><line style="stroke:#181818;stroke-width:0.5;" x1="1013.5" x2="1172.5" y1="1811.0137" y2="1811.0137"/><rect fill="none" height="6" style="stroke:#C82930;stroke-width:1.0;" width="6" x="1020.5" y="1822.8242"/><text fill="#000000" font-family="sans-serif" font-size="14" lengthAdjust="spacing" textLength="104" x="1032.5" y="1830.1211">upperLimitInt: int</text><rect fill="none" height="6" style="stroke:#C82930;stroke-width:1.0;" width="6" x="1020.5" y="1841.4453"/><text fill="#000000" font-family="sans-serif" font-size="14" lengthAdjust="spacing" textLength="100" x="1032.5" y="1848.7422">lowerLimitInt: int</text><line style="stroke:#181818;stroke-width:0.5;" x1="1013.5" x2="1172.5" y1="1856.2559" y2="1856.2559"/><ellipse cx="1023.5" cy="1871.0664" fill="#84BE84" rx="3" ry="3" style="stroke:#038048;stroke-width:1.0;"/><text fill="#000000" font-family="sans-serif" font-size="14" lengthAdjust="spacing" textLength="135" x="1032.5" y="1875.3633">getUpperLimitInt(): int</text><ellipse cx="1023.5" cy="1889.6875" fill="#84BE84" rx="3" ry="3" style="stroke:#038048;stroke-width:1.0;"/><text fill="#000000" font-family="sans-serif" font-size="14" lengthAdjust="spacing" textLength="135" x="1032.5" y="1893.9844">getLowerLimitInt(): int</text></g><!--class RangeDecimal--><g id="elem_RangeDecimal"><rect codeLine="123" fill="#F1F1F1" height="159.7266" id="RangeDecimal" rx="2.5" ry="2.5" style="stroke:#181818;stroke-width:0.5;" width="224" x="1311" y="1760.0137"/><ellipse cx="1372.75" cy="1776.0137" fill="#ADD1B2" rx="11" ry="11" style="stroke:#181818;stroke-width:1.0;"/><path d="M1375.5156,1771.8887 Q1375.6719,1771.6699 1375.8594,1771.5605 Q1376.0469,1771.4512 1376.2656,1771.4512 Q1376.6406,1771.4512 1376.875,1771.7168 Q1377.1094,1771.9668 1377.1094,1772.5762 L1377.1094,1774.0293 Q1377.1094,1774.6387 1376.875,1774.9043 Q1376.6406,1775.1699 1376.2656,1775.1699 Q1375.9219,1775.1699 1375.7188,1774.9668 Q1375.5156,1774.7793 1375.4063,1774.2637 Q1375.3594,1773.9043 1375.1719,1773.7168 Q1374.8438,1773.3418 1374.2344,1773.123 Q1373.625,1772.9043 1373,1772.9043 Q1372.2344,1772.9043 1371.5938,1773.2324 Q1370.9688,1773.5605 1370.4688,1774.3105 Q1369.9844,1775.0605 1369.9844,1776.0918 L1369.9844,1777.1855 Q1369.9844,1778.4199 1370.875,1779.248 Q1371.7656,1780.0605 1373.3594,1780.0605 Q1374.2969,1780.0605 1374.9531,1779.8105 Q1375.3438,1779.6543 1375.7656,1779.2168 Q1376.0313,1778.9512 1376.1719,1778.873 Q1376.3281,1778.7949 1376.5313,1778.7949 Q1376.8594,1778.7949 1377.1094,1779.0605 Q1377.375,1779.3105 1377.375,1779.6543 Q1377.375,1779.998 1377.0313,1780.4043 Q1376.5313,1780.9824 1375.7344,1781.3105 Q1374.6563,1781.7637 1373.3594,1781.7637 Q1371.8438,1781.7637 1370.6406,1781.1387 Q1369.6563,1780.6387 1368.9688,1779.5762 Q1368.2813,1778.498 1368.2813,1777.2168 L1368.2813,1776.0605 Q1368.2813,1774.7324 1368.8906,1773.5918 Q1369.5156,1772.4355 1370.6094,1771.8262 Q1371.7031,1771.2012 1372.9375,1771.2012 Q1373.6719,1771.2012 1374.3125,1771.373 Q1374.9688,1771.5293 1375.5156,1771.8887 Z " fill="#000000"/><text fill="#000000" font-family="sans-serif" font-size="14" lengthAdjust="spacing" textLength="92" x="1393.25" y="1781.8105">RangeDecimal</text><line style="stroke:#181818;stroke-width:0.5;" x1="1312" x2="1534" y1="1792.0137" y2="1792.0137"/><rect fill="none" height="6" style="stroke:#C82930;stroke-width:1.0;" width="6" x="1319" y="1803.8242"/><text fill="#000000" font-family="sans-serif" font-size="14" lengthAdjust="spacing" textLength="167" x="1331" y="1811.1211">upperLimitDecimal: double</text><rect fill="none" height="6" style="stroke:#C82930;stroke-width:1.0;" width="6" x="1319" y="1822.4453"/><text fill="#000000" font-family="sans-serif" font-size="14" lengthAdjust="spacing" textLength="163" x="1331" y="1829.7422">lowerLimitDecimal: double</text><rect fill="none" height="6" style="stroke:#C82930;stroke-width:1.0;" width="6" x="1319" y="1841.0664"/><text fill="#000000" font-family="sans-serif" font-size="14" lengthAdjust="spacing" textLength="80" x="1331" y="1848.3633">precision: int</text><line style="stroke:#181818;stroke-width:0.5;" x1="1312" x2="1534" y1="1855.877" y2="1855.877"/><ellipse cx="1322" cy="1870.6875" fill="#84BE84" rx="3" ry="3" style="stroke:#038048;stroke-width:1.0;"/><text fill="#000000" font-family="sans-serif" font-size="14" lengthAdjust="spacing" textLength="198" x="1331" y="1874.9844">getUpperLimitDecimal(): double</text><ellipse cx="1322" cy="1889.3086" fill="#84BE84" rx="3" ry="3" style="stroke:#038048;stroke-width:1.0;"/><text fill="#000000" font-family="sans-serif" font-size="14" lengthAdjust="spacing" textLength="198" x="1331" y="1893.6055">getLowerLimitDecimal(): double</text><ellipse cx="1322" cy="1907.9297" fill="#84BE84" rx="3" ry="3" style="stroke:#038048;stroke-width:1.0;"/><text fill="#000000" font-family="sans-serif" font-size="14" lengthAdjust="spacing" textLength="111" x="1331" y="1912.2266">getPrecision(): int</text></g><!--class SwitchActuatorStatus--><g id="elem_SwitchActuatorStatus"><rect codeLine="131" fill="#F1F1F1" height="85.2422" id="SwitchActuatorStatus" rx="2.5" ry="2.5" style="stroke:#181818;stroke-width:0.5;" width="165" x="1201.5" y="1587.0137"/><ellipse cx="1216.5" cy="1603.0137" fill="#EB937F" rx="11" ry="11" style="stroke:#181818;stroke-width:1.0;"/><path d="M1215.3594,1603.8105 L1215.3594,1606.3105 L1219.6875,1606.3105 L1219.6875,1605.3887 Q1219.6875,1604.7793 1219.9219,1604.5137 Q1220.1719,1604.248 1220.5469,1604.248 Q1220.9219,1604.248 1221.1563,1604.5137 Q1221.3906,1604.7793 1221.3906,1605.3887 L1221.3906,1608.0137 L1213.3906,1608.0137 Q1212.7656,1608.0137 1212.5,1607.7793 Q1212.25,1607.5449 1212.25,1607.1543 Q1212.25,1606.7793 1212.5156,1606.5449 Q1212.7813,1606.3105 1213.3906,1606.3105 L1213.6563,1606.3105 L1213.6563,1599.6543 L1213.3906,1599.6543 Q1212.7656,1599.6543 1212.5,1599.4199 Q1212.25,1599.1855 1212.25,1598.7949 Q1212.25,1598.4199 1212.5,1598.1855 Q1212.7656,1597.9512 1213.3906,1597.9512 L1221.0156,1597.9512 L1221.0156,1600.5449 Q1221.0156,1601.1543 1220.7813,1601.4199 Q1220.5625,1601.6699 1220.1719,1601.6699 Q1219.7969,1601.6699 1219.5625,1601.4199 Q1219.3281,1601.1543 1219.3281,1600.5449 L1219.3281,1599.6543 L1215.3594,1599.6543 L1215.3594,1602.1074 L1216.8438,1602.1074 Q1216.8438,1601.4512 1216.9688,1601.2637 Q1217.2344,1600.8574 1217.7031,1600.8574 Q1218.0781,1600.8574 1218.3125,1601.123 Q1218.5469,1601.373 1218.5469,1601.9824 L1218.5469,1603.9512 Q1218.5469,1604.498 1218.4219,1604.6855 Q1218.1563,1605.0762 1217.7031,1605.0762 Q1217.2344,1605.0762 1216.9688,1604.6699 Q1216.8438,1604.4824 1216.8438,1603.8105 L1215.3594,1603.8105 Z " fill="#000000"/><text fill="#000000" font-family="sans-serif" font-size="14" lengthAdjust="spacing" textLength="133" x="1230.5" y="1608.8105">SwitchActuatorStatus</text><line style="stroke:#181818;stroke-width:0.5;" x1="1202.5" x2="1365.5" y1="1619.0137" y2="1619.0137"/><text fill="#000000" font-family="sans-serif" font-size="14" lengthAdjust="spacing" textLength="24" x="1207.5" y="1638.1211">ON,</text><text fill="#000000" font-family="sans-serif" font-size="14" lengthAdjust="spacing" textLength="29" x="1207.5" y="1656.7422">OFF</text><line style="stroke:#181818;stroke-width:0.5;" x1="1202.5" x2="1365.5" y1="1664.2559" y2="1664.2559"/></g><!--class ActuatorFunctionalityID--><g id="elem_ActuatorFunctionalityID"><rect codeLine="137" fill="#F1F1F1" height="122.4844" id="ActuatorFunctionalityID" rx="2.5" ry="2.5" style="stroke:#181818;stroke-width:0.5;" width="243" x="639.5" y="1568.5137"/><ellipse cx="683.75" cy="1584.5137" fill="#ADD1B2" rx="11" ry="11" style="stroke:#181818;stroke-width:1.0;"/><path d="M686.5156,1580.3887 Q686.6719,1580.1699 686.8594,1580.0605 Q687.0469,1579.9512 687.2656,1579.9512 Q687.6406,1579.9512 687.875,1580.2168 Q688.1094,1580.4668 688.1094,1581.0762 L688.1094,1582.5293 Q688.1094,1583.1387 687.875,1583.4043 Q687.6406,1583.6699 687.2656,1583.6699 Q686.9219,1583.6699 686.7188,1583.4668 Q686.5156,1583.2793 686.4063,1582.7637 Q686.3594,1582.4043 686.1719,1582.2168 Q685.8438,1581.8418 685.2344,1581.623 Q684.625,1581.4043 684,1581.4043 Q683.2344,1581.4043 682.5938,1581.7324 Q681.9688,1582.0605 681.4688,1582.8105 Q680.9844,1583.5605 680.9844,1584.5918 L680.9844,1585.6855 Q680.9844,1586.9199 681.875,1587.748 Q682.7656,1588.5605 684.3594,1588.5605 Q685.2969,1588.5605 685.9531,1588.3105 Q686.3438,1588.1543 686.7656,1587.7168 Q687.0313,1587.4512 687.1719,1587.373 Q687.3281,1587.2949 687.5313,1587.2949 Q687.8594,1587.2949 688.1094,1587.5605 Q688.375,1587.8105 688.375,1588.1543 Q688.375,1588.498 688.0313,1588.9043 Q687.5313,1589.4824 686.7344,1589.8105 Q685.6563,1590.2637 684.3594,1590.2637 Q682.8438,1590.2637 681.6406,1589.6387 Q680.6563,1589.1387 679.9688,1588.0762 Q679.2813,1586.998 679.2813,1585.7168 L679.2813,1584.5605 Q679.2813,1583.2324 679.8906,1582.0918 Q680.5156,1580.9355 681.6094,1580.3262 Q682.7031,1579.7012 683.9375,1579.7012 Q684.6719,1579.7012 685.3125,1579.873 Q685.9688,1580.0293 686.5156,1580.3887 Z " fill="#000000"/><text fill="#000000" font-family="sans-serif" font-size="14" lengthAdjust="spacing" textLength="146" x="704.25" y="1590.3105">ActuatorFunctionalityID</text><line style="stroke:#181818;stroke-width:0.5;" x1="640.5" x2="881.5" y1="1600.5137" y2="1600.5137"/><rect fill="none" height="6" style="stroke:#C82930;stroke-width:1.0;" width="6" x="647.5" y="1612.3242"/><text fill="#000000" font-family="sans-serif" font-size="14" lengthAdjust="spacing" textLength="217" x="659.5" y="1619.6211">actuatorFunctionalityName : String</text><line style="stroke:#181818;stroke-width:0.5;" x1="640.5" x2="881.5" y1="1627.1348" y2="1627.1348"/><ellipse cx="650.5" cy="1641.9453" fill="#84BE84" rx="3" ry="3" style="stroke:#038048;stroke-width:1.0;"/><text fill="#000000" font-family="sans-serif" font-size="14" lengthAdjust="spacing" textLength="194" x="659.5" y="1646.2422">equals(Object object): boolean</text><ellipse cx="650.5" cy="1660.5664" fill="#84BE84" rx="3" ry="3" style="stroke:#038048;stroke-width:1.0;"/><text fill="#000000" font-family="sans-serif" font-size="14" lengthAdjust="spacing" textLength="98" x="659.5" y="1664.8633">hashCode(): int</text><ellipse cx="650.5" cy="1679.1875" fill="#84BE84" rx="3" ry="3" style="stroke:#038048;stroke-width:1.0;"/><text fill="#000000" font-family="sans-serif" font-size="14" lengthAdjust="spacing" textLength="104" x="659.5" y="1683.4844">toString(): String</text></g><!--class ActuatorTarget--><g id="elem_ActuatorTarget"><rect codeLine="145" fill="#F1F1F1" height="85.2422" id="ActuatorTarget" rx="2.5" ry="2.5" style="stroke:#181818;stroke-width:0.5;" width="185" x="1401.5" y="1587.0137"/><ellipse cx="1442.6" cy="1603.0137" fill="#ADD1B2" rx="11" ry="11" style="stroke:#181818;stroke-width:1.0;"/><path d="M1445.3656,1598.8887 Q1445.5219,1598.6699 1445.7094,1598.5605 Q1445.8969,1598.4512 1446.1156,1598.4512 Q1446.4906,1598.4512 1446.725,1598.7168 Q1446.9594,1598.9668 1446.9594,1599.5762 L1446.9594,1601.0293 Q1446.9594,1601.6387 1446.725,1601.9043 Q1446.4906,1602.1699 1446.1156,1602.1699 Q1445.7719,1602.1699 1445.5688,1601.9668 Q1445.3656,1601.7793 1445.2563,1601.2637 Q1445.2094,1600.9043 1445.0219,1600.7168 Q1444.6938,1600.3418 1444.0844,1600.123 Q1443.475,1599.9043 1442.85,1599.9043 Q1442.0844,1599.9043 1441.4438,1600.2324 Q1440.8188,1600.5605 1440.3188,1601.3105 Q1439.8344,1602.0605 1439.8344,1603.0918 L1439.8344,1604.1855 Q1439.8344,1605.4199 1440.725,1606.248 Q1441.6156,1607.0605 1443.2094,1607.0605 Q1444.1469,1607.0605 1444.8031,1606.8105 Q1445.1938,1606.6543 1445.6156,1606.2168 Q1445.8813,1605.9512 1446.0219,1605.873 Q1446.1781,1605.7949 1446.3813,1605.7949 Q1446.7094,1605.7949 1446.9594,1606.0605 Q1447.225,1606.3105 1447.225,1606.6543 Q1447.225,1606.998 1446.8813,1607.4043 Q1446.3813,1607.9824 1445.5844,1608.3105 Q1444.5063,1608.7637 1443.2094,1608.7637 Q1441.6938,1608.7637 1440.4906,1608.1387 Q1439.5063,1607.6387 1438.8188,1606.5762 Q1438.1313,1605.498 1438.1313,1604.2168 L1438.1313,1603.0605 Q1438.1313,1601.7324 1438.7406,1600.5918 Q1439.3656,1599.4355 1440.4594,1598.8262 Q1441.5531,1598.2012 1442.7875,1598.2012 Q1443.5219,1598.2012 1444.1625,1598.373 Q1444.8188,1598.5293 1445.3656,1598.8887 Z " fill="#000000"/><text fill="#000000" font-family="sans-serif" font-size="14" lengthAdjust="spacing" textLength="95" x="1462.4" y="1608.8105">ActuatorTarget</text><line style="stroke:#181818;stroke-width:0.5;" x1="1402.5" x2="1585.5" y1="1619.0137" y2="1619.0137"/><rect fill="none" height="6" style="stroke:#C82930;stroke-width:1.0;" width="6" x="1409.5" y="1630.8242"/><text fill="#000000" font-family="sans-serif" font-size="14" lengthAdjust="spacing" textLength="124" x="1421.5" y="1638.1211">targetValue: double</text><line style="stroke:#181818;stroke-width:0.5;" x1="1402.5" x2="1585.5" y1="1645.6348" y2="1645.6348"/><ellipse cx="1412.5" cy="1660.4453" fill="#84BE84" rx="3" ry="3" style="stroke:#038048;stroke-width:1.0;"/><text fill="#000000" font-family="sans-serif" font-size="14" lengthAdjust="spacing" textLength="159" x="1421.5" y="1664.7422">getTargetValue(): double</text></g><!--class DeviceID--><g id="elem_DeviceID"><rect codeLine="149" fill="#F1F1F1" height="141.1055" id="DeviceID" rx="2.5" ry="2.5" style="stroke:#181818;stroke-width:0.5;" width="220" x="129" y="1559.0137"/><ellipse cx="206.75" cy="1575.0137" fill="#ADD1B2" rx="11" ry="11" style="stroke:#181818;stroke-width:1.0;"/><path d="M209.5156,1570.8887 Q209.6719,1570.6699 209.8594,1570.5605 Q210.0469,1570.4512 210.2656,1570.4512 Q210.6406,1570.4512 210.875,1570.7168 Q211.1094,1570.9668 211.1094,1571.5762 L211.1094,1573.0293 Q211.1094,1573.6387 210.875,1573.9043 Q210.6406,1574.1699 210.2656,1574.1699 Q209.9219,1574.1699 209.7188,1573.9668 Q209.5156,1573.7793 209.4063,1573.2637 Q209.3594,1572.9043 209.1719,1572.7168 Q208.8438,1572.3418 208.2344,1572.123 Q207.625,1571.9043 207,1571.9043 Q206.2344,1571.9043 205.5938,1572.2324 Q204.9688,1572.5605 204.4688,1573.3105 Q203.9844,1574.0605 203.9844,1575.0918 L203.9844,1576.1855 Q203.9844,1577.4199 204.875,1578.248 Q205.7656,1579.0605 207.3594,1579.0605 Q208.2969,1579.0605 208.9531,1578.8105 Q209.3438,1578.6543 209.7656,1578.2168 Q210.0313,1577.9512 210.1719,1577.873 Q210.3281,1577.7949 210.5313,1577.7949 Q210.8594,1577.7949 211.1094,1578.0605 Q211.375,1578.3105 211.375,1578.6543 Q211.375,1578.998 211.0313,1579.4043 Q210.5313,1579.9824 209.7344,1580.3105 Q208.6563,1580.7637 207.3594,1580.7637 Q205.8438,1580.7637 204.6406,1580.1387 Q203.6563,1579.6387 202.9688,1578.5762 Q202.2813,1577.498 202.2813,1576.2168 L202.2813,1575.0605 Q202.2813,1573.7324 202.8906,1572.5918 Q203.5156,1571.4355 204.6094,1570.8262 Q205.7031,1570.2012 206.9375,1570.2012 Q207.6719,1570.2012 208.3125,1570.373 Q208.9688,1570.5293 209.5156,1570.8887 Z " fill="#000000"/><text fill="#000000" font-family="sans-serif" font-size="14" lengthAdjust="spacing" textLength="56" x="227.25" y="1580.8105">DeviceID</text><line style="stroke:#181818;stroke-width:0.5;" x1="130" x2="348" y1="1591.0137" y2="1591.0137"/><rect fill="none" height="6" style="stroke:#C82930;stroke-width:1.0;" width="6" x="137" y="1602.8242"/><text fill="#000000" font-family="sans-serif" font-size="14" lengthAdjust="spacing" textLength="122" x="149" y="1610.1211">deviceName: String</text><line style="stroke:#181818;stroke-width:0.5;" x1="130" x2="348" y1="1617.6348" y2="1617.6348"/><ellipse cx="140" cy="1632.4453" fill="#84BE84" rx="3" ry="3" style="stroke:#038048;stroke-width:1.0;"/><text fill="#000000" font-family="sans-serif" font-size="14" lengthAdjust="spacing" textLength="194" x="149" y="1636.7422">equals(Object object): boolean</text><ellipse cx="140" cy="1651.0664" fill="#84BE84" rx="3" ry="3" style="stroke:#038048;stroke-width:1.0;"/><text fill="#000000" font-family="sans-serif" font-size="14" lengthAdjust="spacing" textLength="98" x="149" y="1655.3633">hashCode(): int</text><ellipse cx="140" cy="1669.6875" fill="#84BE84" rx="3" ry="3" style="stroke:#038048;stroke-width:1.0;"/><text fill="#000000" font-family="sans-serif" font-size="14" lengthAdjust="spacing" textLength="104" x="149" y="1673.9844">toString(): String</text><ellipse cx="140" cy="1688.3086" fill="#84BE84" rx="3" ry="3" style="stroke:#038048;stroke-width:1.0;"/><text fill="#000000" font-family="sans-serif" font-size="14" lengthAdjust="spacing" textLength="154" x="149" y="1692.6055">getDeviceName(): String</text></g><!--class ActuatorRepository--><g id="elem_ActuatorRepository"><rect codeLine="185" fill="#F1F1F1" height="141.1055" id="ActuatorRepository" rx="2.5" ry="2.5" style="stroke:#181818;stroke-width:0.5;" width="350" x="1667" y="719.0137"/><ellipse cx="1777.25" cy="735.0137" fill="#ADD1B2" rx="11" ry="11" style="stroke:#181818;stroke-width:1.0;"/><path d="M1780.0156,730.8887 Q1780.1719,730.6699 1780.3594,730.5605 Q1780.5469,730.4512 1780.7656,730.4512 Q1781.1406,730.4512 1781.375,730.7168 Q1781.6094,730.9668 1781.6094,731.5762 L1781.6094,733.0293 Q1781.6094,733.6387 1781.375,733.9043 Q1781.1406,734.1699 1780.7656,734.1699 Q1780.4219,734.1699 1780.2188,733.9668 Q1780.0156,733.7793 1779.9063,733.2637 Q1779.8594,732.9043 1779.6719,732.7168 Q1779.3438,732.3418 1778.7344,732.123 Q1778.125,731.9043 1777.5,731.9043 Q1776.7344,731.9043 1776.0938,732.2324 Q1775.4688,732.5605 1774.9688,733.3105 Q1774.4844,734.0605 1774.4844,735.0918 L1774.4844,736.1855 Q1774.4844,737.4199 1775.375,738.248 Q1776.2656,739.0605 1777.8594,739.0605 Q1778.7969,739.0605 1779.4531,738.8105 Q1779.8438,738.6543 1780.2656,738.2168 Q1780.5313,737.9512 1780.6719,737.873 Q1780.8281,737.7949 1781.0313,737.7949 Q1781.3594,737.7949 1781.6094,738.0605 Q1781.875,738.3105 1781.875,738.6543 Q1781.875,738.998 1781.5313,739.4043 Q1781.0313,739.9824 1780.2344,740.3105 Q1779.1563,740.7637 1777.8594,740.7637 Q1776.3438,740.7637 1775.1406,740.1387 Q1774.1563,739.6387 1773.4688,738.5762 Q1772.7813,737.498 1772.7813,736.2168 L1772.7813,735.0605 Q1772.7813,733.7324 1773.3906,732.5918 Q1774.0156,731.4355 1775.1094,730.8262 Q1776.2031,730.2012 1777.4375,730.2012 Q1778.1719,730.2012 1778.8125,730.373 Q1779.4688,730.5293 1780.0156,730.8887 Z " fill="#000000"/><text fill="#000000" font-family="sans-serif" font-size="14" lengthAdjust="spacing" textLength="121" x="1797.75" y="740.8105">ActuatorRepository</text><line style="stroke:#181818;stroke-width:0.5;" x1="1668" x2="2016" y1="751.0137" y2="751.0137"/><rect fill="none" height="6" style="stroke:#C82930;stroke-width:1.0;" width="6" x="1675" y="762.8242"/><text fill="#000000" font-family="sans-serif" font-size="14" lengthAdjust="spacing" textLength="237" x="1687" y="770.1211">HashMap: Map&lt;ActuatorID, Actuator&gt;</text><line style="stroke:#181818;stroke-width:0.5;" x1="1668" x2="2016" y1="777.6348" y2="777.6348"/><ellipse cx="1678" cy="792.4453" fill="#84BE84" rx="3" ry="3" style="stroke:#038048;stroke-width:1.0;"/><text fill="#000000" font-family="sans-serif" font-size="14" lengthAdjust="spacing" textLength="296" x="1687" y="796.7422">addAndSaveActuator(Actuator entity): Actuator</text><ellipse cx="1678" cy="811.0664" fill="#84BE84" rx="3" ry="3" style="stroke:#038048;stroke-width:1.0;"/><text fill="#000000" font-family="sans-serif" font-size="14" lengthAdjust="spacing" textLength="232" x="1687" y="815.3633">findAllActuators(): Iterable&lt;Actuator&gt;</text><ellipse cx="1678" cy="829.6875" fill="#84BE84" rx="3" ry="3" style="stroke:#038048;stroke-width:1.0;"/><text fill="#000000" font-family="sans-serif" font-size="14" lengthAdjust="spacing" textLength="324" x="1687" y="833.9844">findActuatorById(ActuatorID id): Optional&lt;Actuator&gt;</text><ellipse cx="1678" cy="848.3086" fill="#84BE84" rx="3" ry="3" style="stroke:#038048;stroke-width:1.0;"/><text fill="#000000" font-family="sans-serif" font-size="14" lengthAdjust="spacing" textLength="283" x="1687" y="852.6055">containsActuatorById(ActuatorID id): boolean</text></g><!--reverse link ValueObject to DomainID--><g id="link_ValueObject_DomainID"><path d="M1964,109.2537 C1964,127.0337 1964,133.0937 1964,150.8537 " fill="none" id="ValueObject-backto-DomainID" style="stroke:#181818;stroke-width:1.0;"/><polygon fill="none" points="1964,91.2537,1958,109.2537,1970,109.2537,1964,91.2537" style="stroke:#181818;stroke-width:1.0;"/></g><!--reverse link DomainID to DomainEntity--><g id="link_DomainID_DomainEntity"><path d="M1964,217.1037 C1964,233.9537 1964,238.9037 1964,258.8137 " fill="none" id="DomainID-backto-DomainEntity" style="stroke:#181818;stroke-width:1.0;"/><polygon fill="none" points="1964,199.1037,1958,217.1037,1970,217.1037,1964,199.1037" style="stroke:#181818;stroke-width:1.0;"/></g><!--reverse link DomainEntity to AggregateRoot--><g id="link_DomainEntity_AggregateRoot"><path d="M1899,362.3437 C1899,382.1237 1899,386.8937 1899,403.6837 " fill="none" id="DomainEntity-backto-AggregateRoot" style="stroke:#181818;stroke-width:1.0;"/><polygon fill="none" points="1899,344.3437,1893,362.3437,1905,362.3437,1899,344.3437" style="stroke:#181818;stroke-width:1.0;"/></g><!--reverse link AggregateRoot to RepositoryReadWrite--><g id="link_AggregateRoot_RepositoryReadWrite"><path d="M1899,470.2837 C1899,486.5737 1899,490.7937 1899,511.7437 " fill="none" id="AggregateRoot-backto-RepositoryReadWrite" style="stroke:#181818;stroke-width:1.0;"/><polygon fill="none" points="1899,452.2837,1893,470.2837,1905,470.2837,1899,452.2837" style="stroke:#181818;stroke-width:1.0;"/></g><!--reverse link AggregateRoot to Actuator--><g id="link_AggregateRoot_Actuator"><path d="M1817,428.0137 C1712.88,428.0137 1536.33,428.0137 1536.33,428.0137 C1536.33,428.0137 1536.33,783.6937 1536.33,919.8537 " fill="none" id="AggregateRoot-backto-Actuator" style="stroke:#181818;stroke-width:1.0;"/><polygon fill="none" points="1835,428.0137,1817,422.0137,1817,434.0137,1835,428.0137" style="stroke:#181818;stroke-width:1.0;"/></g><!--reverse link Actuator to ActuatorSpecificDecimal--><g id="link_Actuator_ActuatorSpecificDecimal"><path d="M1415,1042.1337 C1415,1062.0237 1415,1066.1737 1415,1083.8937 " fill="none" id="Actuator-backto-ActuatorSpecificDecimal" style="stroke:#181818;stroke-width:1.0;"/><polygon fill="none" points="1415,1024.1337,1409,1042.1337,1421,1042.1337,1415,1024.1337" style="stroke:#181818;stroke-width:1.0;"/></g><!--reverse link Actuator to ActuatorSpecificInteger--><g id="link_Actuator_ActuatorSpecificInteger"><path d="M1262.75,1042.3137 C1262.75,1084.2037 1262.75,1118.0137 1262.75,1118.0137 C1262.75,1118.0137 1127.07,1118.0137 1006.1,1118.0137 " fill="none" id="Actuator-backto-ActuatorSpecificInteger" style="stroke:#181818;stroke-width:1.0;"/><polygon fill="none" points="1262.75,1024.3137,1256.75,1042.3137,1268.75,1042.3137,1262.75,1024.3137" style="stroke:#181818;stroke-width:1.0;"/></g><!--reverse link ActuatorSpecificInteger to BlindSetterActuator--><g id="link_ActuatorSpecificInteger_BlindSetterActuator"><path d="M617.9,1118.0137 C443.58,1118.0137 227,1118.0137 227,1118.0137 C227,1118.0137 227,1173.1437 227,1229.2537 " fill="none" id="ActuatorSpecificInteger-backto-BlindSetterActuator" style="stroke:#181818;stroke-width:1.0;stroke-dasharray:7.0,7.0;"/><polygon fill="none" points="635.9,1118.0137,617.9,1112.0137,617.9,1124.0137,635.9,1118.0137" style="stroke:#181818;stroke-width:1.0;"/></g><!--reverse link ActuatorSpecificDecimal to DecimalSetterActuator--><g id="link_ActuatorSpecificDecimal_DecimalSetterActuator"><path d="M1415,1169.3037 C1415,1185.7837 1415,1188.8137 1415,1210.9237 " fill="none" id="ActuatorSpecificDecimal-backto-DecimalSetterActuator" style="stroke:#181818;stroke-width:1.0;stroke-dasharray:7.0,7.0;"/><polygon fill="none" points="1415,1151.3037,1409,1169.3037,1421,1169.3037,1415,1151.3037" style="stroke:#181818;stroke-width:1.0;"/></g><!--reverse link ActuatorSpecificInteger to IntegerSetterActuator--><g id="link_ActuatorSpecificInteger_IntegerSetterActuator"><path d="M720.5,1169.3037 C720.5,1190.3337 720.5,1200.7437 720.5,1229.3737 " fill="none" id="ActuatorSpecificInteger-backto-IntegerSetterActuator" style="stroke:#181818;stroke-width:1.0;stroke-dasharray:7.0,7.0;"/><polygon fill="none" points="720.5,1151.3037,714.5,1169.3037,726.5,1169.3037,720.5,1151.3037" style="stroke:#181818;stroke-width:1.0;"/></g><!--reverse link ActuatorSpecificInteger to SwitchActuator--><g id="link_ActuatorSpecificInteger_SwitchActuator"><path d="M923,1169.3037 C923,1188.0237 923,1194.6137 923,1219.9937 " fill="none" id="ActuatorSpecificInteger-backto-SwitchActuator" style="stroke:#181818;stroke-width:1.0;stroke-dasharray:7.0,7.0;"/><polygon fill="none" points="923,1151.3037,917,1169.3037,929,1169.3037,923,1151.3037" style="stroke:#181818;stroke-width:1.0;"/></g><!--link ActuatorFactory to Actuator--><g id="link_ActuatorFactory_Actuator"><path codeLine="98" d="M1418,823.4137 C1418,850.5237 1418,882.9937 1418,913.9937 " fill="none" id="ActuatorFactory-to-Actuator" style="stroke:#181818;stroke-width:1.0;"/><polygon fill="#181818" points="1418,919.9937,1422,910.9937,1418,914.9937,1414,910.9937,1418,919.9937" style="stroke:#181818;stroke-width:1.0;"/><text fill="#000000" font-family="sans-serif" font-size="13" lengthAdjust="spacing" textLength="57" x="1360" y="867.732">&#171;creates&#187;</text></g><!--reverse link DomainID to ActuatorID--><g id="link_DomainID_ActuatorID"><path d="M1898.94,163.0137 C1640.12,163.0137 419.67,163.0137 419.67,163.0137 C419.67,163.0137 419.67,1290.8237 419.67,1568.3637 " fill="none" id="DomainID-backto-ActuatorID" style="stroke:#181818;stroke-width:1.0;stroke-dasharray:7.0,7.0;"/><polygon fill="none" points="1916.94,163.0137,1898.94,157.0137,1898.94,169.0137,1916.94,163.0137" style="stroke:#181818;stroke-width:1.0;"/></g><!--reverse link ValueObject to ActuatorProperties--><g id="link_ValueObject_ActuatorProperties"><path d="M1891.26,59.0137 C1792.73,59.0137 1613.67,59.0137 1613.67,59.0137 C1613.67,59.0137 1613.67,1581.0137 1613.67,1581.0137 C1613.67,1581.0137 1334.17,1581.0137 1166.04,1581.0137 " fill="none" id="ValueObject-backto-ActuatorProperties" style="stroke:#181818;stroke-width:1.0;stroke-dasharray:7.0,7.0;"/><polygon fill="none" points="1909.26,59.0137,1891.26,53.0137,1891.26,65.0137,1909.26,59.0137" style="stroke:#181818;stroke-width:1.0;"/></g><!--reverse link ValueObject to RangeInt--><g id="link_ValueObject_RangeInt"><path d="M1891.46,75.0137 C1799.22,75.0137 1640.33,75.0137 1640.33,75.0137 C1640.33,75.0137 1640.33,1696.0137 1640.33,1696.0137 C1640.33,1696.0137 1169.75,1696.0137 1169.75,1696.0137 C1169.75,1696.0137 1169.75,1739.6937 1169.75,1778.9437 " fill="none" id="ValueObject-backto-RangeInt" style="stroke:#181818;stroke-width:1.0;stroke-dasharray:7.0,7.0;"/><polygon fill="none" points="1909.46,75.0137,1891.46,69.0137,1891.46,81.0137,1909.46,75.0137" style="stroke:#181818;stroke-width:1.0;"/></g><!--reverse link ValueObject to RangeDecimal--><g id="link_ValueObject_RangeDecimal"><path d="M1891.23,83.0137 C1802.14,83.0137 1653.67,83.0137 1653.67,83.0137 C1653.67,83.0137 1653.67,1840.0137 1653.67,1840.0137 C1653.67,1840.0137 1593.95,1840.0137 1535.29,1840.0137 " fill="none" id="ValueObject-backto-RangeDecimal" style="stroke:#181818;stroke-width:1.0;stroke-dasharray:7.0,7.0;"/><polygon fill="none" points="1909.23,83.0137,1891.23,77.0137,1891.23,89.0137,1909.23,83.0137" style="stroke:#181818;stroke-width:1.0;"/></g><!--reverse link ValueObject to SwitchActuatorStatus--><g id="link_ValueObject_SwitchActuatorStatus"><path d="M1891.38,51.0137 C1719.83,51.0137 1221.17,51.0137 1221.17,51.0137 C1221.17,51.0137 1221.17,1334.8737 1221.17,1586.8837 " fill="none" id="ValueObject-backto-SwitchActuatorStatus" style="stroke:#181818;stroke-width:1.0;stroke-dasharray:7.0,7.0;"/><polygon fill="none" points="1909.38,51.0137,1891.38,45.0137,1891.38,57.0137,1909.38,51.0137" style="stroke:#181818;stroke-width:1.0;"/></g><!--reverse link DomainID to ActuatorFunctionalityID--><g id="link_DomainID_ActuatorFunctionalityID"><path d="M1898.83,187.0137 C1800.43,187.0137 1600.33,187.0137 1600.33,187.0137 C1600.33,187.0137 1600.33,1521.0137 1600.33,1521.0137 C1600.33,1521.0137 874,1521.0137 874,1521.0137 C874,1521.0137 874,1543.6737 874,1568.2837 " fill="none" id="DomainID-backto-ActuatorFunctionalityID" style="stroke:#181818;stroke-width:1.0;stroke-dasharray:7.0,7.0;"/><polygon fill="none" points="1916.83,187.0137,1898.83,181.0137,1898.83,193.0137,1916.83,187.0137" style="stroke:#181818;stroke-width:1.0;"/></g><!--reverse link ValueObject to ActuatorTarget--><g id="link_ValueObject_ActuatorTarget"><path d="M1891.48,67.0137 C1796.1,67.0137 1627,67.0137 1627,67.0137 C1627,67.0137 1627,1630.0137 1627,1630.0137 C1627,1630.0137 1609.26,1630.0137 1586.73,1630.0137 " fill="none" id="ValueObject-backto-ActuatorTarget" style="stroke:#181818;stroke-width:1.0;stroke-dasharray:7.0,7.0;"/><polygon fill="none" points="1909.48,67.0137,1891.48,61.0137,1891.48,73.0137,1909.48,67.0137" style="stroke:#181818;stroke-width:1.0;"/></g><!--reverse link DomainID to DeviceID--><g id="link_DomainID_DeviceID"><path d="M1898.92,175.0137 C1734.14,175.0137 1211.33,175.0137 1211.33,175.0137 C1211.33,175.0137 1211.33,1565.0137 1211.33,1565.0137 C1211.33,1565.0137 603.69,1565.0137 349.12,1565.0137 " fill="none" id="DomainID-backto-DeviceID" style="stroke:#181818;stroke-width:1.0;stroke-dasharray:7.0,7.0;"/><polygon fill="none" points="1916.92,175.0137,1898.92,169.0137,1898.92,181.0137,1916.92,175.0137" style="stroke:#181818;stroke-width:1.0;"/></g><!--link ActuatorProperties to RangeInt--><g id="link_ActuatorProperties_RangeInt"><path codeLine="158" d="M1089.25,1690.6837 C1089.25,1718.3537 1089.25,1744.9937 1089.25,1772.6937 " fill="none" id="ActuatorProperties-to-RangeInt" style="stroke:#181818;stroke-width:1.0;"/><polygon fill="#181818" points="1089.25,1778.6937,1093.25,1769.6937,1089.25,1773.6937,1085.25,1769.6937,1089.25,1778.6937" style="stroke:#181818;stroke-width:1.0;"/></g><!--link ActuatorProperties to RangeDecimal--><g id="link_ActuatorProperties_RangeDecimal"><path codeLine="159" d="M1166.13,1682.0137 C1247.45,1682.0137 1338.75,1682.0137 1338.75,1682.0137 C1338.75,1682.0137 1338.75,1714.5937 1338.75,1753.6237 " fill="none" id="ActuatorProperties-to-RangeDecimal" style="stroke:#181818;stroke-width:1.0;"/><polygon fill="#181818" points="1338.75,1759.6237,1342.75,1750.6237,1338.75,1754.6237,1334.75,1750.6237,1338.75,1759.6237" style="stroke:#181818;stroke-width:1.0;"/></g><!--link DecimalSetterActuator to ActuatorProperties--><g id="link_DecimalSetterActuator_ActuatorProperties"><path codeLine="161" d="M1321.33,1482.0737 C1321.33,1531.2737 1321.33,1575.0137 1321.33,1575.0137 C1321.33,1575.0137 1246.75,1575.0137 1172.15,1575.0137 " fill="none" id="DecimalSetterActuator-to-ActuatorProperties" style="stroke:#181818;stroke-width:1.0;"/><polygon fill="#181818" points="1166.15,1575.0137,1175.15,1579.0137,1171.15,1575.0137,1175.15,1571.0137,1166.15,1575.0137" style="stroke:#181818;stroke-width:1.0;"/></g><!--link DecimalSetterActuator to ActuatorID--><g id="link_DecimalSetterActuator_ActuatorID"><path codeLine="162" d="M1230.82,1475.0137 C948.83,1475.0137 431.33,1475.0137 431.33,1475.0137 C431.33,1475.0137 431.33,1519.2637 431.33,1562.4537 " fill="none" id="DecimalSetterActuator-to-ActuatorID" style="stroke:#181818;stroke-width:1.0;"/><polygon fill="#181818" points="431.33,1568.4537,435.33,1559.4537,431.33,1563.4537,427.33,1559.4537,431.33,1568.4537" style="stroke:#181818;stroke-width:1.0;"/></g><!--link DecimalSetterActuator to DeviceID--><g id="link_DecimalSetterActuator_DeviceID"><path codeLine="163" d="M1276.17,1482.0737 C1276.17,1527.5837 1276.17,1567.0137 1276.17,1567.0137 C1276.17,1567.0137 621.94,1567.0137 355.01,1567.0137 " fill="none" id="DecimalSetterActuator-to-DeviceID" style="stroke:#181818;stroke-width:1.0;"/><polygon fill="#181818" points="349.01,1567.0137,358.01,1571.0137,354.01,1567.0137,358.01,1563.0137,349.01,1567.0137" style="stroke:#181818;stroke-width:1.0;"/></g><!--link DecimalSetterActuator to ActuatorTarget--><g id="link_DecimalSetterActuator_ActuatorTarget"><path codeLine="164" d="M1494,1482.2137 C1494,1520.2337 1494,1552.8037 1494,1580.9437 " fill="none" id="DecimalSetterActuator-to-ActuatorTarget" style="stroke:#181818;stroke-width:1.0;"/><polygon fill="#181818" points="1494,1586.9437,1498,1577.9437,1494,1581.9437,1490,1577.9437,1494,1586.9437" style="stroke:#181818;stroke-width:1.0;"/></g><!--link DecimalSetterActuator to ActuatorFunctionalityID--><g id="link_DecimalSetterActuator_ActuatorFunctionalityID"><path codeLine="165" d="M1230.66,1477.0137 C1072.2,1477.0137 865.5,1477.0137 865.5,1477.0137 C865.5,1477.0137 865.5,1519.9337 865.5,1562.3637 " fill="none" id="DecimalSetterActuator-to-ActuatorFunctionalityID" style="stroke:#181818;stroke-width:1.0;"/><polygon fill="#181818" points="865.5,1568.3637,869.5,1559.3637,865.5,1563.3637,861.5,1559.3637,865.5,1568.3637" style="stroke:#181818;stroke-width:1.0;"/></g><!--link IntegerSetterActuator to ActuatorProperties--><g id="link_IntegerSetterActuator_ActuatorProperties"><path codeLine="167" d="M763.62,1463.5537 C763.62,1473.0037 763.62,1479.0137 763.62,1479.0137 C763.62,1479.0137 1042,1479.0137 1042,1479.0137 C1042,1479.0137 1042,1520.6337 1042,1562.3037 " fill="none" id="IntegerSetterActuator-to-ActuatorProperties" style="stroke:#181818;stroke-width:1.0;"/><polygon fill="#181818" points="1042,1568.3037,1046,1559.3037,1042,1563.3037,1038,1559.3037,1042,1568.3037" style="stroke:#181818;stroke-width:1.0;"/></g><!--link IntegerSetterActuator to ActuatorID--><g id="link_IntegerSetterActuator_ActuatorID"><path codeLine="168" d="M523.5,1463.6637 C523.5,1499.5537 523.5,1531.5937 523.5,1562.1737 " fill="none" id="IntegerSetterActuator-to-ActuatorID" style="stroke:#181818;stroke-width:1.0;"/><polygon fill="#181818" points="523.5,1568.1737,527.5,1559.1737,523.5,1563.1737,519.5,1559.1737,523.5,1568.1737" style="stroke:#181818;stroke-width:1.0;"/></g><!--link IntegerSetterActuator to DeviceID--><g id="link_IntegerSetterActuator_DeviceID"><path codeLine="169" d="M483.25,1463.8037 C483.25,1513.8837 483.25,1561.0137 483.25,1561.0137 C483.25,1561.0137 420.06,1561.0137 355.33,1561.0137 " fill="none" id="IntegerSetterActuator-to-DeviceID" style="stroke:#181818;stroke-width:1.0;"/><polygon fill="#181818" points="349.33,1561.0137,358.33,1565.0137,354.33,1561.0137,358.33,1557.0137,349.33,1561.0137" style="stroke:#181818;stroke-width:1.0;"/></g><!--link IntegerSetterActuator to ActuatorFunctionalityID--><g id="link_IntegerSetterActuator_ActuatorFunctionalityID"><path codeLine="170" d="M722.25,1463.6637 C722.25,1499.5537 722.25,1531.5937 722.25,1562.1737 " fill="none" id="IntegerSetterActuator-to-ActuatorFunctionalityID" style="stroke:#181818;stroke-width:1.0;"/><polygon fill="#181818" points="722.25,1568.1737,726.25,1559.1737,722.25,1563.1737,718.25,1559.1737,722.25,1568.1737" style="stroke:#181818;stroke-width:1.0;"/></g><!--link SwitchActuator to ActuatorProperties--><g id="link_SwitchActuator_ActuatorProperties"><path codeLine="172" d="M1104,1473.1137 C1104,1506.2237 1104,1534.4437 1104,1562.3937 " fill="none" id="SwitchActuator-to-ActuatorProperties" style="stroke:#181818;stroke-width:1.0;"/><polygon fill="#181818" points="1104,1568.3937,1108,1559.3937,1104,1563.3937,1100,1559.3937,1104,1568.3937" style="stroke:#181818;stroke-width:1.0;"/></g><!--link SwitchActuator to ActuatorID--><g id="link_SwitchActuator_ActuatorID"><path codeLine="173" d="M839.77,1470.0137 C712.51,1470.0137 563.75,1470.0137 563.75,1470.0137 C563.75,1470.0137 563.75,1517.3237 563.75,1562.3037 " fill="none" id="SwitchActuator-to-ActuatorID" style="stroke:#181818;stroke-width:1.0;"/><polygon fill="#181818" points="563.75,1568.3037,567.75,1559.3037,563.75,1563.3037,559.75,1559.3037,563.75,1568.3037" style="stroke:#181818;stroke-width:1.0;"/></g><!--link SwitchActuator to DeviceID--><g id="link_SwitchActuator_DeviceID"><path codeLine="174" d="M848.5,1473.0837 C848.5,1520.4537 848.5,1563.0137 848.5,1563.0137 C848.5,1563.0137 530.58,1563.0137 355.02,1563.0137 " fill="none" id="SwitchActuator-to-DeviceID" style="stroke:#181818;stroke-width:1.0;"/><polygon fill="#181818" points="349.02,1563.0137,358.02,1567.0137,354.02,1563.0137,358.02,1559.0137,349.02,1563.0137" style="stroke:#181818;stroke-width:1.0;"/></g><!--link SwitchActuator to SwitchActuatorStatus--><g id="link_SwitchActuator_SwitchActuatorStatus"><path codeLine="175" d="M1184.75,1473.3337 C1184.75,1548.8237 1184.75,1630.0137 1184.75,1630.0137 C1184.75,1630.0137 1185.35,1630.0137 1195.14,1630.0137 " fill="none" id="SwitchActuator-to-SwitchActuatorStatus" style="stroke:#181818;stroke-width:1.0;"/><polygon fill="#181818" points="1201.14,1630.0137,1192.14,1626.0137,1196.14,1630.0137,1192.14,1634.0137,1201.14,1630.0137" style="stroke:#181818;stroke-width:1.0;"/></g><!--link SwitchActuator to ActuatorFunctionalityID--><g id="link_SwitchActuator_ActuatorFunctionalityID"><path codeLine="176" d="M857,1473.1137 C857,1506.2237 857,1534.4437 857,1562.3937 " fill="none" id="SwitchActuator-to-ActuatorFunctionalityID" style="stroke:#181818;stroke-width:1.0;"/><polygon fill="#181818" points="857,1568.3937,861,1559.3937,857,1563.3937,853,1559.3937,857,1568.3937" style="stroke:#181818;stroke-width:1.0;"/></g><!--link BlindSetterActuator to ActuatorProperties--><g id="link_BlindSetterActuator_ActuatorProperties"><path codeLine="178" d="M396,1463.7037 C396,1474.2237 396,1481.0137 396,1481.0137 C396,1481.0137 980,1481.0137 980,1481.0137 C980,1481.0137 980,1521.3537 980,1562.2537 " fill="none" id="BlindSetterActuator-to-ActuatorProperties" style="stroke:#181818;stroke-width:1.0;"/><polygon fill="#181818" points="980,1568.2537,984,1559.2537,980,1563.2537,976,1559.2537,980,1568.2537" style="stroke:#181818;stroke-width:1.0;"/></g><!--link BlindSetterActuator to ActuatorID--><g id="link_BlindSetterActuator_ActuatorID"><path codeLine="179" d="M390,1463.6637 C390,1499.5537 390,1531.5937 390,1562.1737 " fill="none" id="BlindSetterActuator-to-ActuatorID" style="stroke:#181818;stroke-width:1.0;"/><polygon fill="#181818" points="390,1568.1737,394,1559.1737,390,1563.1737,386,1559.1737,390,1568.1737" style="stroke:#181818;stroke-width:1.0;"/></g><!--link BlindSetterActuator to DeviceID--><g id="link_BlindSetterActuator_DeviceID"><path codeLine="180" d="M239,1463.6637 C239,1495.9037 239,1523.8737 239,1552.6237 " fill="none" id="BlindSetterActuator-to-DeviceID" style="stroke:#181818;stroke-width:1.0;"/><polygon fill="#181818" points="239,1558.6237,243,1549.6237,239,1553.6237,235,1549.6237,239,1558.6237" style="stroke:#181818;stroke-width:1.0;"/></g><!--link BlindSetterActuator to ActuatorFunctionalityID--><g id="link_BlindSetterActuator_ActuatorFunctionalityID"><path codeLine="181" d="M402,1463.5337 C402,1465.7737 402,1467.0137 402,1467.0137 C402,1467.0137 680.88,1467.0137 680.88,1467.0137 C680.88,1467.0137 680.88,1516.0637 680.88,1562.0837 " fill="none" id="BlindSetterActuator-to-ActuatorFunctionalityID" style="stroke:#181818;stroke-width:1.0;"/><polygon fill="#181818" points="680.88,1568.0837,684.88,1559.0837,680.88,1563.0837,676.88,1559.0837,680.88,1568.0837" style="stroke:#181818;stroke-width:1.0;"/></g><!--reverse link RepositoryReadWrite to ActuatorRepository--><g id="link_RepositoryReadWrite_ActuatorRepository"><path d="M1898,652.1837 C1898,678.5737 1898,691.5837 1898,718.9437 " fill="none" id="RepositoryReadWrite-backto-ActuatorRepository" style="stroke:#181818;stroke-width:1.0;stroke-dasharray:7.0,7.0;"/><polygon fill="none" points="1898,634.1837,1892,652.1837,1904,652.1837,1898,634.1837" style="stroke:#181818;stroke-width:1.0;"/></g><!--link ActuatorRepository to Actuator--><g id="link_ActuatorRepository_Actuator"><path codeLine="192" d="M1666.81,842.0137 C1609.22,842.0137 1559.67,842.0137 1559.67,842.0137 C1559.67,842.0137 1559.67,877.7237 1559.67,913.8837 " fill="none" id="ActuatorRepository-to-Actuator" style="stroke:#181818;stroke-width:1.0;stroke-dasharray:7.0,7.0;"/><polygon fill="#181818" points="1559.67,919.8837,1563.67,910.8837,1559.67,914.8837,1555.67,910.8837,1559.67,919.8837" style="stroke:#181818;stroke-width:1.0;"/></g><!--SRC=[xLXRRzCm57xFh_0RHQNRUpLLAdGJbO2XjS2p5tkfMHA7sDcOglrtJXp7jpfPGJ3jWMbQQv-BltFrcL_jfAp4_FIqod4fco8_INbnckPOY1bXEAjnaOXRLbOOlg6SbLG-L1JnMkvuabGulSKPHOGGj4zOAMbzWrEAlkAyePVNtsagzycZGrZn0hDolKBqfwGb4KzndfUIoGV3RSJtoPGHgeYJrtEqNi5QR711bsBIQKDSVG3nclESujBJliooccPOqYlEPQ2-EzD7SqKhBfZazSCLnUHRpIGrKfuk0DPK11QNzGRVqSaMTIW1npQPth2IBFDSdS2eKD3X27oTqxFjegDtnxzzM9C96Ce8y5nMal4IvuedvQK4b2B2Pos5NnCRPTJUh74g6moMU05RwiqaKQ4twmlW1gF1ghIcO5M_to8tCd3SeIR4YYgd1LWlslGu2RsKKTcpVeAujGeticPbvf4kcZBjRDUHZXAKo8hUiPJskheLv4KKtAQYARjXwGe-2fpRK6ewu1EjHaLLAJeXl84eeRjsyHeDP5MWVWsKZDO3waDkTGwQW3eaV0N-UJf4Rw4OoOPAE3pcym4i-sI67RSZwr7mbI5zhdb5wpP57GQxQHczC40Q3WIerKrCV90JdZ_9W_LgC1DQZKEkZNhMEdOaXvnUuplicARJHKldql7nqWA_6w-_5Yw9Qt28SfpbsghDPumbY6qj49TLGncgqvBUg_Kp15X7M6VKFw_8tuhm_teS2jVcdibqzrBYD5Q9GcBPW3eVyKRjlhGmFbVDFIR1X89ciuLHCaTdPzsy8XQB9B5pghgzkPus_KcddQ7yYQKVDeF0MqSY-gF1-J3CATfXiNl7YJ8St0GxadVIJa0U0oJEvHj2ygRbMOtBZ49spj6L_gRtT4FK-tgbOj4pjiSR8KFGd8ROIvgYwKN6SJKLuF_02YOLkDRmMSxlmxtss2ykg_4I43wu_3t1nz4FR-DWa4LZtDBT4K2pg0vfLGrR0YeWXjRnb1RmGSVfdtkLrg3piYcYbJrg5OAVoqzlki-BYzOnuU0Uz9V1t0ODyQQaMufEKc1xCj-HOWfpljkDv7s27aFKtQN-H42zoSJnRZ0eQ8eTmBg-WqRAtFRIlrxaKtJG2KtvEztCgVssePaI7QFRAeqFcOepTXcDi3ljU8JBzF8ZDEbvxHY8uTMJn4UhGRj6s1sxHhYCNSSSV80sc2m6OSRu77mniW4MFICw88oYES0U-wToq811PiUAGHvZojD77g3ih_EwVvK1DFkmbzWdcx3YOuyvKFtleOu_ucgEuC-PDU6DqRX8ffYG9Q35T_Obn80s3ptcOQH_x-at_0SVHwtYqqlrekDE9TuBa2FKFmID2jgHAUANavE5yuhp2m00]--></g></svg>