<?xml version="1.0" encoding="us-ascii" standalone="no"?><svg xmlns="http://www.w3.org/2000/svg" xmlns:xlink="http://www.w3.org/1999/xlink" contentStyleType="text/css" height="1025px" preserveAspectRatio="none" style="width:2527px;height:1025px;background:#FFFFFF;" version="1.1" viewBox="0 0 2527 1025" width="2527px" zoomAndPan="magnify"><defs/><g><!--cluster domain--><g id="cluster_domain"><path d="M8.5,6.0137 L60.5,6.0137 A3.75,3.75 0 0 1 63,8.5137 L70,30.6348 L2111.5,30.6348 A2.5,2.5 0 0 1 2114,33.1348 L2114,1015.5137 A2.5,2.5 0 0 1 2111.5,1018.0137 L8.5,1018.0137 A2.5,2.5 0 0 1 6,1015.5137 L6,8.5137 A2.5,2.5 0 0 1 8.5,6.0137 " fill="none" style="stroke:#000000;stroke-width:1.5;"/><line style="stroke:#000000;stroke-width:1.5;" x1="6" x2="70" y1="30.6348" y2="30.6348"/><text fill="#000000" font-family="sans-serif" font-size="14" font-weight="bold" lengthAdjust="spacing" textLength="51" x="10" y="23.1211">domain</text></g><!--cluster actuator--><g id="cluster_actuator"><path d="M32.5,51.0137 L91.5,51.0137 A3.75,3.75 0 0 1 94,53.5137 L101,75.6348 L804.5,75.6348 A2.5,2.5 0 0 1 807,78.1348 L807,734.5137 A2.5,2.5 0 0 1 804.5,737.0137 L32.5,737.0137 A2.5,2.5 0 0 1 30,734.5137 L30,53.5137 A2.5,2.5 0 0 1 32.5,51.0137 " fill="none" style="stroke:#000000;stroke-width:1.5;"/><line style="stroke:#000000;stroke-width:1.5;" x1="30" x2="101" y1="75.6348" y2="75.6348"/><text fill="#000000" font-family="sans-serif" font-size="14" font-weight="bold" lengthAdjust="spacing" textLength="58" x="34" y="68.1211">actuator</text></g><!--cluster DecimalSetterActuatorAggregate--><g id="cluster_DecimalSetterActuatorAggregate"><path d="M397.5,232.0137 L628.5,232.0137 A3.75,3.75 0 0 1 631,234.5137 L638,256.6348 L780.5,256.6348 A2.5,2.5 0 0 1 783,259.1348 L783,553.5137 A2.5,2.5 0 0 1 780.5,556.0137 L397.5,556.0137 A2.5,2.5 0 0 1 395,553.5137 L395,234.5137 A2.5,2.5 0 0 1 397.5,232.0137 " fill="none" style="stroke:#000000;stroke-width:1.5;"/><line style="stroke:#000000;stroke-width:1.5;" x1="395" x2="638" y1="256.6348" y2="256.6348"/><text fill="#000000" font-family="sans-serif" font-size="14" font-weight="bold" lengthAdjust="spacing" textLength="230" x="399" y="249.1211">DecimalSetterActuatorAggregate</text></g><!--cluster valueobject--><g id="cluster_valueobject"><path d="M833.5,580.0137 L917.5,580.0137 A3.75,3.75 0 0 1 920,582.5137 L927,604.6348 L2087.5,604.6348 A2.5,2.5 0 0 1 2090,607.1348 L2090,991.5137 A2.5,2.5 0 0 1 2087.5,994.0137 L833.5,994.0137 A2.5,2.5 0 0 1 831,991.5137 L831,582.5137 A2.5,2.5 0 0 1 833.5,580.0137 " fill="none" style="stroke:#000000;stroke-width:1.5;"/><line style="stroke:#000000;stroke-width:1.5;" x1="831" x2="927" y1="604.6348" y2="604.6348"/><text fill="#000000" font-family="sans-serif" font-size="14" font-weight="bold" lengthAdjust="spacing" textLength="83" x="835" y="597.1211">valueobject</text></g><!--cluster repositories--><g id="cluster_repositories"><path d="M2140.5,14.0137 L2227.5,14.0137 A3.75,3.75 0 0 1 2230,16.5137 L2237,38.6348 L2517.5,38.6348 A2.5,2.5 0 0 1 2520,41.1348 L2520,205.5137 A2.5,2.5 0 0 1 2517.5,208.0137 L2140.5,208.0137 A2.5,2.5 0 0 1 2138,205.5137 L2138,16.5137 A2.5,2.5 0 0 1 2140.5,14.0137 " fill="none" style="stroke:#000000;stroke-width:1.5;"/><line style="stroke:#000000;stroke-width:1.5;" x1="2138" x2="2237" y1="38.6348" y2="38.6348"/><text fill="#000000" font-family="sans-serif" font-size="14" font-weight="bold" lengthAdjust="spacing" textLength="86" x="2142" y="31.1211">repositories</text></g><!--class Actuator--><g id="elem_Actuator"><rect codeLine="12" fill="#F1F1F1" height="85.2422" id="Actuator" rx="2.5" ry="2.5" style="stroke:#181818;stroke-width:0.5;" width="330" x="46" y="362.0137"/><ellipse cx="180.25" cy="378.0137" fill="#B4A7E5" rx="11" ry="11" style="stroke:#181818;stroke-width:1.0;"/><path d="M181.2031,374.6543 L181.2031,381.3105 L182.9219,381.3105 Q183.5313,381.3105 183.7969,381.5449 Q184.0625,381.7793 184.0625,382.1699 Q184.0625,382.5449 183.7969,382.7793 Q183.5313,383.0137 182.9219,383.0137 L177.7813,383.0137 Q177.1719,383.0137 176.9063,382.7793 Q176.6406,382.5449 176.6406,382.1543 Q176.6406,381.7793 176.9063,381.5449 Q177.1719,381.3105 177.7813,381.3105 L179.5,381.3105 L179.5,374.6543 L177.7813,374.6543 Q177.1719,374.6543 176.9063,374.4199 Q176.6406,374.1855 176.6406,373.7949 Q176.6406,373.4199 176.9063,373.1855 Q177.1719,372.9512 177.7813,372.9512 L182.9219,372.9512 Q183.5313,372.9512 183.7969,373.1855 Q184.0625,373.4199 184.0625,373.7949 Q184.0625,374.1855 183.7969,374.4199 Q183.5313,374.6543 182.9219,374.6543 L181.2031,374.6543 Z " fill="#000000"/><text fill="#000000" font-family="sans-serif" font-size="14" font-style="italic" lengthAdjust="spacing" textLength="53" x="200.75" y="383.8105">Actuator</text><line style="stroke:#181818;stroke-width:0.5;" x1="47" x2="375" y1="394.0137" y2="394.0137"/><line style="stroke:#181818;stroke-width:0.5;" x1="47" x2="375" y1="402.0137" y2="402.0137"/><ellipse cx="57" cy="416.8242" fill="#84BE84" rx="3" ry="3" style="stroke:#038048;stroke-width:1.0;"/><text fill="#000000" font-family="sans-serif" font-size="14" lengthAdjust="spacing" textLength="304" x="66" y="421.1211">getActuatorFunctionality(): ActuatorFunctionality</text><ellipse cx="57" cy="435.4453" fill="#84BE84" rx="3" ry="3" style="stroke:#038048;stroke-width:1.0;"/><text fill="#000000" font-family="sans-serif" font-size="14" lengthAdjust="spacing" textLength="173" x="66" y="439.7422">getDeviceName(): DeviceID</text></g><!--class ActuatorFactory--><g id="elem_ActuatorFactory"><rect codeLine="8" fill="#F1F1F1" height="66.6211" id="ActuatorFactory" rx="2.5" ry="2.5" style="stroke:#181818;stroke-width:0.5;" width="190" x="116" y="88.0137"/><ellipse cx="156.65" cy="104.0137" fill="#ADD1B2" rx="11" ry="11" style="stroke:#181818;stroke-width:1.0;"/><path d="M159.4156,99.8887 Q159.5719,99.6699 159.7594,99.5605 Q159.9469,99.4512 160.1656,99.4512 Q160.5406,99.4512 160.775,99.7168 Q161.0094,99.9668 161.0094,100.5762 L161.0094,102.0293 Q161.0094,102.6387 160.775,102.9043 Q160.5406,103.1699 160.1656,103.1699 Q159.8219,103.1699 159.6188,102.9668 Q159.4156,102.7793 159.3063,102.2637 Q159.2594,101.9043 159.0719,101.7168 Q158.7438,101.3418 158.1344,101.123 Q157.525,100.9043 156.9,100.9043 Q156.1344,100.9043 155.4938,101.2324 Q154.8688,101.5605 154.3688,102.3105 Q153.8844,103.0605 153.8844,104.0918 L153.8844,105.1855 Q153.8844,106.4199 154.775,107.248 Q155.6656,108.0605 157.2594,108.0605 Q158.1969,108.0605 158.8531,107.8105 Q159.2438,107.6543 159.6656,107.2168 Q159.9313,106.9512 160.0719,106.873 Q160.2281,106.7949 160.4313,106.7949 Q160.7594,106.7949 161.0094,107.0605 Q161.275,107.3105 161.275,107.6543 Q161.275,107.998 160.9313,108.4043 Q160.4313,108.9824 159.6344,109.3105 Q158.5563,109.7637 157.2594,109.7637 Q155.7438,109.7637 154.5406,109.1387 Q153.5563,108.6387 152.8688,107.5762 Q152.1813,106.498 152.1813,105.2168 L152.1813,104.0605 Q152.1813,102.7324 152.7906,101.5918 Q153.4156,100.4355 154.5094,99.8262 Q155.6031,99.2012 156.8375,99.2012 Q157.5719,99.2012 158.2125,99.373 Q158.8688,99.5293 159.4156,99.8887 Z " fill="#000000"/><text fill="#000000" font-family="sans-serif" font-size="14" lengthAdjust="spacing" textLength="101" x="176.35" y="109.8105">ActuatorFactory</text><line style="stroke:#181818;stroke-width:0.5;" x1="117" x2="305" y1="120.0137" y2="120.0137"/><line style="stroke:#181818;stroke-width:0.5;" x1="117" x2="305" y1="128.0137" y2="128.0137"/><ellipse cx="127" cy="142.8242" fill="#84BE84" rx="3" ry="3" style="stroke:#038048;stroke-width:1.0;"/><text fill="#000000" font-family="sans-serif" font-size="14" lengthAdjust="spacing" textLength="164" x="136" y="147.1211">createActuator(): Actuator</text></g><!--class ActuatorSpecificDecimal--><g id="elem_ActuatorSpecificDecimal"><rect codeLine="17" fill="#F1F1F1" height="66.6211" id="ActuatorSpecificDecimal" rx="2.5" ry="2.5" style="stroke:#181818;stroke-width:0.5;" width="285" x="257.5" y="654.0137"/><ellipse cx="319.75" cy="670.0137" fill="#B4A7E5" rx="11" ry="11" style="stroke:#181818;stroke-width:1.0;"/><path d="M320.7031,666.6543 L320.7031,673.3105 L322.4219,673.3105 Q323.0313,673.3105 323.2969,673.5449 Q323.5625,673.7793 323.5625,674.1699 Q323.5625,674.5449 323.2969,674.7793 Q323.0313,675.0137 322.4219,675.0137 L317.2813,675.0137 Q316.6719,675.0137 316.4063,674.7793 Q316.1406,674.5449 316.1406,674.1543 Q316.1406,673.7793 316.4063,673.5449 Q316.6719,673.3105 317.2813,673.3105 L319,673.3105 L319,666.6543 L317.2813,666.6543 Q316.6719,666.6543 316.4063,666.4199 Q316.1406,666.1855 316.1406,665.7949 Q316.1406,665.4199 316.4063,665.1855 Q316.6719,664.9512 317.2813,664.9512 L322.4219,664.9512 Q323.0313,664.9512 323.2969,665.1855 Q323.5625,665.4199 323.5625,665.7949 Q323.5625,666.1855 323.2969,666.4199 Q323.0313,666.6543 322.4219,666.6543 L320.7031,666.6543 Z " fill="#000000"/><text fill="#000000" font-family="sans-serif" font-size="14" font-style="italic" lengthAdjust="spacing" textLength="152" x="340.25" y="675.8105">ActuatorSpecificDecimal</text><line style="stroke:#181818;stroke-width:0.5;" x1="258.5" x2="541.5" y1="686.0137" y2="686.0137"/><line style="stroke:#181818;stroke-width:0.5;" x1="258.5" x2="541.5" y1="694.0137" y2="694.0137"/><ellipse cx="268.5" cy="708.8242" fill="#84BE84" rx="3" ry="3" style="stroke:#038048;stroke-width:1.0;"/><text fill="#000000" font-family="sans-serif" font-size="14" lengthAdjust="spacing" textLength="259" x="277.5" y="713.1211">setDecimalValue(double value) : boolean</text></g><!--class DecimalSetterActuator--><g id="elem_DecimalSetterActuator"><rect codeLine="22" fill="#F1F1F1" height="271.4531" id="DecimalSetterActuator" rx="2.5" ry="2.5" style="stroke:#181818;stroke-width:0.5;" width="356" x="411" y="269.0137"/><ellipse cx="499.25" cy="285.0137" fill="#ADD1B2" rx="11" ry="11" style="stroke:#181818;stroke-width:1.0;"/><path d="M502.0156,280.8887 Q502.1719,280.6699 502.3594,280.5605 Q502.5469,280.4512 502.7656,280.4512 Q503.1406,280.4512 503.375,280.7168 Q503.6094,280.9668 503.6094,281.5762 L503.6094,283.0293 Q503.6094,283.6387 503.375,283.9043 Q503.1406,284.1699 502.7656,284.1699 Q502.4219,284.1699 502.2188,283.9668 Q502.0156,283.7793 501.9063,283.2637 Q501.8594,282.9043 501.6719,282.7168 Q501.3438,282.3418 500.7344,282.123 Q500.125,281.9043 499.5,281.9043 Q498.7344,281.9043 498.0938,282.2324 Q497.4688,282.5605 496.9688,283.3105 Q496.4844,284.0605 496.4844,285.0918 L496.4844,286.1855 Q496.4844,287.4199 497.375,288.248 Q498.2656,289.0605 499.8594,289.0605 Q500.7969,289.0605 501.4531,288.8105 Q501.8438,288.6543 502.2656,288.2168 Q502.5313,287.9512 502.6719,287.873 Q502.8281,287.7949 503.0313,287.7949 Q503.3594,287.7949 503.6094,288.0605 Q503.875,288.3105 503.875,288.6543 Q503.875,288.998 503.5313,289.4043 Q503.0313,289.9824 502.2344,290.3105 Q501.1563,290.7637 499.8594,290.7637 Q498.3438,290.7637 497.1406,290.1387 Q496.1563,289.6387 495.4688,288.5762 Q494.7813,287.498 494.7813,286.2168 L494.7813,285.0605 Q494.7813,283.7324 495.3906,282.5918 Q496.0156,281.4355 497.1094,280.8262 Q498.2031,280.2012 499.4375,280.2012 Q500.1719,280.2012 500.8125,280.373 Q501.4688,280.5293 502.0156,280.8887 Z " fill="#000000"/><text fill="#000000" font-family="sans-serif" font-size="14" lengthAdjust="spacing" textLength="141" x="519.75" y="290.8105">DecimalSetterActuator</text><rect fill="#FFFFFF" height="17.9609" style="stroke:#181818;stroke-width:1.0;stroke-dasharray:2.0,2.0;" width="28" x="742" y="266.0137"/><text fill="#000000" font-family="sans-serif" font-size="12" font-style="italic" lengthAdjust="spacing" textLength="26" x="743" y="279.9629">Root</text><line style="stroke:#181818;stroke-width:0.5;" x1="412" x2="766" y1="301.0137" y2="301.0137"/><rect fill="none" height="6" style="stroke:#C82930;stroke-width:1.0;" width="6" x="419" y="312.8242"/><text fill="#000000" font-family="sans-serif" font-size="14" lengthAdjust="spacing" textLength="166" x="431" y="320.1211">actuatorName : ActuatorID</text><rect fill="none" height="6" style="stroke:#C82930;stroke-width:1.0;" width="6" x="419" y="331.4453"/><text fill="#000000" font-family="sans-serif" font-size="14" lengthAdjust="spacing" textLength="243" x="431" y="338.7422">actuatorProperties: ActuatorProperties</text><rect fill="none" height="6" style="stroke:#C82930;stroke-width:1.0;" width="6" x="419" y="350.0664"/><text fill="#000000" font-family="sans-serif" font-size="14" lengthAdjust="spacing" textLength="303" x="431" y="357.3633">actuatorFunctionalityID : ActuatorFunctionalityID</text><rect fill="none" height="6" style="stroke:#C82930;stroke-width:1.0;" width="6" x="419" y="368.6875"/><text fill="#000000" font-family="sans-serif" font-size="14" lengthAdjust="spacing" textLength="159" x="431" y="375.9844">targetValue: TargetValue</text><rect fill="none" height="6" style="stroke:#C82930;stroke-width:1.0;" width="6" x="419" y="387.3086"/><text fill="#000000" font-family="sans-serif" font-size="14" lengthAdjust="spacing" textLength="145" x="431" y="394.6055">deviceName : DeviceID</text><line style="stroke:#181818;stroke-width:0.5;" x1="412" x2="766" y1="402.1191" y2="402.1191"/><ellipse cx="422" cy="416.9297" fill="#84BE84" rx="3" ry="3" style="stroke:#038048;stroke-width:1.0;"/><text fill="#000000" font-family="sans-serif" font-size="14" lengthAdjust="spacing" textLength="164" x="431" y="421.2266">getActuatorName(): String</text><ellipse cx="422" cy="435.5508" fill="#84BE84" rx="3" ry="3" style="stroke:#038048;stroke-width:1.0;"/><text fill="#000000" font-family="sans-serif" font-size="14" lengthAdjust="spacing" textLength="330" x="431" y="439.8477">getActuatorFunctionalityID(): ActuatorFunctionalityID</text><ellipse cx="422" cy="454.1719" fill="#84BE84" rx="3" ry="3" style="stroke:#038048;stroke-width:1.0;"/><text fill="#000000" font-family="sans-serif" font-size="14" lengthAdjust="spacing" textLength="282" x="431" y="458.4688">setDecimalValue(double newValue): boolean</text><ellipse cx="422" cy="472.793" fill="#84BE84" rx="3" ry="3" style="stroke:#038048;stroke-width:1.0;"/><text fill="#000000" font-family="sans-serif" font-size="14" lengthAdjust="spacing" textLength="224" x="431" y="477.0898">getActuatorTarget():ActuatorTarget</text><ellipse cx="422" cy="491.4141" fill="#84BE84" rx="3" ry="3" style="stroke:#038048;stroke-width:1.0;"/><text fill="#000000" font-family="sans-serif" font-size="14" lengthAdjust="spacing" textLength="173" x="431" y="495.7109">getDeviceName(): DeviceID</text><ellipse cx="422" cy="510.0352" fill="#84BE84" rx="3" ry="3" style="stroke:#038048;stroke-width:1.0;"/><text fill="#000000" font-family="sans-serif" font-size="14" lengthAdjust="spacing" textLength="133" x="431" y="514.332">identity() : ActuatorID</text><ellipse cx="422" cy="528.6563" fill="#84BE84" rx="3" ry="3" style="stroke:#038048;stroke-width:1.0;"/><text fill="#000000" font-family="sans-serif" font-size="14" lengthAdjust="spacing" textLength="214" x="431" y="532.9531">isSameAs(Object object): boolean</text></g><!--class ActuatorID--><g id="elem_ActuatorID"><rect codeLine="43" fill="#F1F1F1" height="122.4844" id="ActuatorID" rx="2.5" ry="2.5" style="stroke:#181818;stroke-width:0.5;" width="220" x="1854" y="626.5137"/><ellipse cx="1916.25" cy="642.5137" fill="#ADD1B2" rx="11" ry="11" style="stroke:#181818;stroke-width:1.0;"/><path d="M1919.0156,638.3887 Q1919.1719,638.1699 1919.3594,638.0605 Q1919.5469,637.9512 1919.7656,637.9512 Q1920.1406,637.9512 1920.375,638.2168 Q1920.6094,638.4668 1920.6094,639.0762 L1920.6094,640.5293 Q1920.6094,641.1387 1920.375,641.4043 Q1920.1406,641.6699 1919.7656,641.6699 Q1919.4219,641.6699 1919.2188,641.4668 Q1919.0156,641.2793 1918.9063,640.7637 Q1918.8594,640.4043 1918.6719,640.2168 Q1918.3438,639.8418 1917.7344,639.623 Q1917.125,639.4043 1916.5,639.4043 Q1915.7344,639.4043 1915.0938,639.7324 Q1914.4688,640.0605 1913.9688,640.8105 Q1913.4844,641.5605 1913.4844,642.5918 L1913.4844,643.6855 Q1913.4844,644.9199 1914.375,645.748 Q1915.2656,646.5605 1916.8594,646.5605 Q1917.7969,646.5605 1918.4531,646.3105 Q1918.8438,646.1543 1919.2656,645.7168 Q1919.5313,645.4512 1919.6719,645.373 Q1919.8281,645.2949 1920.0313,645.2949 Q1920.3594,645.2949 1920.6094,645.5605 Q1920.875,645.8105 1920.875,646.1543 Q1920.875,646.498 1920.5313,646.9043 Q1920.0313,647.4824 1919.2344,647.8105 Q1918.1563,648.2637 1916.8594,648.2637 Q1915.3438,648.2637 1914.1406,647.6387 Q1913.1563,647.1387 1912.4688,646.0762 Q1911.7813,644.998 1911.7813,643.7168 L1911.7813,642.5605 Q1911.7813,641.2324 1912.3906,640.0918 Q1913.0156,638.9355 1914.1094,638.3262 Q1915.2031,637.7012 1916.4375,637.7012 Q1917.1719,637.7012 1917.8125,637.873 Q1918.4688,638.0293 1919.0156,638.3887 Z " fill="#000000"/><text fill="#000000" font-family="sans-serif" font-size="14" lengthAdjust="spacing" textLength="66" x="1936.75" y="648.3105">ActuatorID</text><rect fill="#FFFFFF" height="17.9609" style="stroke:#181818;stroke-width:1.0;stroke-dasharray:2.0,2.0;" width="19" x="2058" y="623.5137"/><text fill="#000000" font-family="sans-serif" font-size="12" font-style="italic" lengthAdjust="spacing" textLength="17" x="2059" y="637.4629">VO</text><line style="stroke:#181818;stroke-width:0.5;" x1="1855" x2="2073" y1="658.5137" y2="658.5137"/><rect fill="none" height="6" style="stroke:#C82930;stroke-width:1.0;" width="6" x="1862" y="670.3242"/><text fill="#000000" font-family="sans-serif" font-size="14" lengthAdjust="spacing" textLength="133" x="1874" y="677.6211">actuatorName: String</text><line style="stroke:#181818;stroke-width:0.5;" x1="1855" x2="2073" y1="685.1348" y2="685.1348"/><ellipse cx="1865" cy="699.9453" fill="#84BE84" rx="3" ry="3" style="stroke:#038048;stroke-width:1.0;"/><text fill="#000000" font-family="sans-serif" font-size="14" lengthAdjust="spacing" textLength="194" x="1874" y="704.2422">equals(Object object): boolean</text><ellipse cx="1865" cy="718.5664" fill="#84BE84" rx="3" ry="3" style="stroke:#038048;stroke-width:1.0;"/><text fill="#000000" font-family="sans-serif" font-size="14" lengthAdjust="spacing" textLength="98" x="1874" y="722.8633">hashCode(): int</text><ellipse cx="1865" cy="737.1875" fill="#84BE84" rx="3" ry="3" style="stroke:#038048;stroke-width:1.0;"/><text fill="#000000" font-family="sans-serif" font-size="14" lengthAdjust="spacing" textLength="104" x="1874" y="741.4844">toString(): String</text></g><!--class ActuatorProperties--><g id="elem_ActuatorProperties"><rect codeLine="50" fill="#F1F1F1" height="85.2422" id="ActuatorProperties" rx="2.5" ry="2.5" style="stroke:#181818;stroke-width:0.5;" width="248" x="1571" y="645.0137"/><ellipse cx="1621.25" cy="661.0137" fill="#ADD1B2" rx="11" ry="11" style="stroke:#181818;stroke-width:1.0;"/><path d="M1624.0156,656.8887 Q1624.1719,656.6699 1624.3594,656.5605 Q1624.5469,656.4512 1624.7656,656.4512 Q1625.1406,656.4512 1625.375,656.7168 Q1625.6094,656.9668 1625.6094,657.5762 L1625.6094,659.0293 Q1625.6094,659.6387 1625.375,659.9043 Q1625.1406,660.1699 1624.7656,660.1699 Q1624.4219,660.1699 1624.2188,659.9668 Q1624.0156,659.7793 1623.9063,659.2637 Q1623.8594,658.9043 1623.6719,658.7168 Q1623.3438,658.3418 1622.7344,658.123 Q1622.125,657.9043 1621.5,657.9043 Q1620.7344,657.9043 1620.0938,658.2324 Q1619.4688,658.5605 1618.9688,659.3105 Q1618.4844,660.0605 1618.4844,661.0918 L1618.4844,662.1855 Q1618.4844,663.4199 1619.375,664.248 Q1620.2656,665.0605 1621.8594,665.0605 Q1622.7969,665.0605 1623.4531,664.8105 Q1623.8438,664.6543 1624.2656,664.2168 Q1624.5313,663.9512 1624.6719,663.873 Q1624.8281,663.7949 1625.0313,663.7949 Q1625.3594,663.7949 1625.6094,664.0605 Q1625.875,664.3105 1625.875,664.6543 Q1625.875,664.998 1625.5313,665.4043 Q1625.0313,665.9824 1624.2344,666.3105 Q1623.1563,666.7637 1621.8594,666.7637 Q1620.3438,666.7637 1619.1406,666.1387 Q1618.1563,665.6387 1617.4688,664.5762 Q1616.7813,663.498 1616.7813,662.2168 L1616.7813,661.0605 Q1616.7813,659.7324 1617.3906,658.5918 Q1618.0156,657.4355 1619.1094,656.8262 Q1620.2031,656.2012 1621.4375,656.2012 Q1622.1719,656.2012 1622.8125,656.373 Q1623.4688,656.5293 1624.0156,656.8887 Z " fill="#000000"/><text fill="#000000" font-family="sans-serif" font-size="14" lengthAdjust="spacing" textLength="118" x="1641.75" y="666.8105">ActuatorProperties</text><rect fill="#FFFFFF" height="17.9609" style="stroke:#181818;stroke-width:1.0;stroke-dasharray:2.0,2.0;" width="19" x="1803" y="642.0137"/><text fill="#000000" font-family="sans-serif" font-size="12" font-style="italic" lengthAdjust="spacing" textLength="17" x="1804" y="655.9629">VO</text><line style="stroke:#181818;stroke-width:0.5;" x1="1572" x2="1818" y1="677.0137" y2="677.0137"/><rect fill="none" height="6" style="stroke:#C82930;stroke-width:1.0;" width="6" x="1579" y="688.8242"/><text fill="#000000" font-family="sans-serif" font-size="14" lengthAdjust="spacing" textLength="187" x="1591" y="696.1211">rangeDecimal: RangeDecimal</text><line style="stroke:#181818;stroke-width:0.5;" x1="1572" x2="1818" y1="703.6348" y2="703.6348"/><ellipse cx="1582" cy="718.4453" fill="#84BE84" rx="3" ry="3" style="stroke:#038048;stroke-width:1.0;"/><text fill="#000000" font-family="sans-serif" font-size="14" lengthAdjust="spacing" textLength="222" x="1591" y="722.7422">getRangeDecimal(): RangeDecimal</text></g><!--class RangeDecimal--><g id="elem_RangeDecimal"><rect codeLine="55" fill="#F1F1F1" height="159.7266" id="RangeDecimal" rx="2.5" ry="2.5" style="stroke:#181818;stroke-width:0.5;" width="224" x="1583" y="818.0137"/><ellipse cx="1634.25" cy="834.0137" fill="#ADD1B2" rx="11" ry="11" style="stroke:#181818;stroke-width:1.0;"/><path d="M1637.0156,829.8887 Q1637.1719,829.6699 1637.3594,829.5605 Q1637.5469,829.4512 1637.7656,829.4512 Q1638.1406,829.4512 1638.375,829.7168 Q1638.6094,829.9668 1638.6094,830.5762 L1638.6094,832.0293 Q1638.6094,832.6387 1638.375,832.9043 Q1638.1406,833.1699 1637.7656,833.1699 Q1637.4219,833.1699 1637.2188,832.9668 Q1637.0156,832.7793 1636.9063,832.2637 Q1636.8594,831.9043 1636.6719,831.7168 Q1636.3438,831.3418 1635.7344,831.123 Q1635.125,830.9043 1634.5,830.9043 Q1633.7344,830.9043 1633.0938,831.2324 Q1632.4688,831.5605 1631.9688,832.3105 Q1631.4844,833.0605 1631.4844,834.0918 L1631.4844,835.1855 Q1631.4844,836.4199 1632.375,837.248 Q1633.2656,838.0605 1634.8594,838.0605 Q1635.7969,838.0605 1636.4531,837.8105 Q1636.8438,837.6543 1637.2656,837.2168 Q1637.5313,836.9512 1637.6719,836.873 Q1637.8281,836.7949 1638.0313,836.7949 Q1638.3594,836.7949 1638.6094,837.0605 Q1638.875,837.3105 1638.875,837.6543 Q1638.875,837.998 1638.5313,838.4043 Q1638.0313,838.9824 1637.2344,839.3105 Q1636.1563,839.7637 1634.8594,839.7637 Q1633.3438,839.7637 1632.1406,839.1387 Q1631.1563,838.6387 1630.4688,837.5762 Q1629.7813,836.498 1629.7813,835.2168 L1629.7813,834.0605 Q1629.7813,832.7324 1630.3906,831.5918 Q1631.0156,830.4355 1632.1094,829.8262 Q1633.2031,829.2012 1634.4375,829.2012 Q1635.1719,829.2012 1635.8125,829.373 Q1636.4688,829.5293 1637.0156,829.8887 Z " fill="#000000"/><text fill="#000000" font-family="sans-serif" font-size="14" lengthAdjust="spacing" textLength="92" x="1654.75" y="839.8105">RangeDecimal</text><rect fill="#FFFFFF" height="17.9609" style="stroke:#181818;stroke-width:1.0;stroke-dasharray:2.0,2.0;" width="19" x="1791" y="815.0137"/><text fill="#000000" font-family="sans-serif" font-size="12" font-style="italic" lengthAdjust="spacing" textLength="17" x="1792" y="828.9629">VO</text><line style="stroke:#181818;stroke-width:0.5;" x1="1584" x2="1806" y1="850.0137" y2="850.0137"/><rect fill="none" height="6" style="stroke:#C82930;stroke-width:1.0;" width="6" x="1591" y="861.8242"/><text fill="#000000" font-family="sans-serif" font-size="14" lengthAdjust="spacing" textLength="167" x="1603" y="869.1211">upperLimitDecimal: double</text><rect fill="none" height="6" style="stroke:#C82930;stroke-width:1.0;" width="6" x="1591" y="880.4453"/><text fill="#000000" font-family="sans-serif" font-size="14" lengthAdjust="spacing" textLength="163" x="1603" y="887.7422">lowerLimitDecimal: double</text><rect fill="none" height="6" style="stroke:#C82930;stroke-width:1.0;" width="6" x="1591" y="899.0664"/><text fill="#000000" font-family="sans-serif" font-size="14" lengthAdjust="spacing" textLength="80" x="1603" y="906.3633">precision: int</text><line style="stroke:#181818;stroke-width:0.5;" x1="1584" x2="1806" y1="913.877" y2="913.877"/><ellipse cx="1594" cy="928.6875" fill="#84BE84" rx="3" ry="3" style="stroke:#038048;stroke-width:1.0;"/><text fill="#000000" font-family="sans-serif" font-size="14" lengthAdjust="spacing" textLength="198" x="1603" y="932.9844">getUpperLimitDecimal(): double</text><ellipse cx="1594" cy="947.3086" fill="#84BE84" rx="3" ry="3" style="stroke:#038048;stroke-width:1.0;"/><text fill="#000000" font-family="sans-serif" font-size="14" lengthAdjust="spacing" textLength="198" x="1603" y="951.6055">getLowerLimitDecimal(): double</text><ellipse cx="1594" cy="965.9297" fill="#84BE84" rx="3" ry="3" style="stroke:#038048;stroke-width:1.0;"/><text fill="#000000" font-family="sans-serif" font-size="14" lengthAdjust="spacing" textLength="111" x="1603" y="970.2266">getPrecision(): int</text></g><!--class ActuatorFunctionalityID--><g id="elem_ActuatorFunctionalityID"><rect codeLine="64" fill="#F1F1F1" height="122.4844" id="ActuatorFunctionalityID" rx="2.5" ry="2.5" style="stroke:#181818;stroke-width:0.5;" width="243" x="1292.5" y="626.5137"/><ellipse cx="1327.3" cy="642.5137" fill="#ADD1B2" rx="11" ry="11" style="stroke:#181818;stroke-width:1.0;"/><path d="M1330.0656,638.3887 Q1330.2219,638.1699 1330.4094,638.0605 Q1330.5969,637.9512 1330.8156,637.9512 Q1331.1906,637.9512 1331.425,638.2168 Q1331.6594,638.4668 1331.6594,639.0762 L1331.6594,640.5293 Q1331.6594,641.1387 1331.425,641.4043 Q1331.1906,641.6699 1330.8156,641.6699 Q1330.4719,641.6699 1330.2688,641.4668 Q1330.0656,641.2793 1329.9563,640.7637 Q1329.9094,640.4043 1329.7219,640.2168 Q1329.3938,639.8418 1328.7844,639.623 Q1328.175,639.4043 1327.55,639.4043 Q1326.7844,639.4043 1326.1438,639.7324 Q1325.5188,640.0605 1325.0188,640.8105 Q1324.5344,641.5605 1324.5344,642.5918 L1324.5344,643.6855 Q1324.5344,644.9199 1325.425,645.748 Q1326.3156,646.5605 1327.9094,646.5605 Q1328.8469,646.5605 1329.5031,646.3105 Q1329.8938,646.1543 1330.3156,645.7168 Q1330.5813,645.4512 1330.7219,645.373 Q1330.8781,645.2949 1331.0813,645.2949 Q1331.4094,645.2949 1331.6594,645.5605 Q1331.925,645.8105 1331.925,646.1543 Q1331.925,646.498 1331.5813,646.9043 Q1331.0813,647.4824 1330.2844,647.8105 Q1329.2063,648.2637 1327.9094,648.2637 Q1326.3938,648.2637 1325.1906,647.6387 Q1324.2063,647.1387 1323.5188,646.0762 Q1322.8313,644.998 1322.8313,643.7168 L1322.8313,642.5605 Q1322.8313,641.2324 1323.4406,640.0918 Q1324.0656,638.9355 1325.1594,638.3262 Q1326.2531,637.7012 1327.4875,637.7012 Q1328.2219,637.7012 1328.8625,637.873 Q1329.5188,638.0293 1330.0656,638.3887 Z " fill="#000000"/><text fill="#000000" font-family="sans-serif" font-size="14" lengthAdjust="spacing" textLength="146" x="1345.7" y="648.3105">ActuatorFunctionalityID</text><rect fill="#FFFFFF" height="17.9609" style="stroke:#181818;stroke-width:1.0;stroke-dasharray:2.0,2.0;" width="19" x="1519.5" y="623.5137"/><text fill="#000000" font-family="sans-serif" font-size="12" font-style="italic" lengthAdjust="spacing" textLength="17" x="1520.5" y="637.4629">VO</text><line style="stroke:#181818;stroke-width:0.5;" x1="1293.5" x2="1534.5" y1="658.5137" y2="658.5137"/><rect fill="none" height="6" style="stroke:#C82930;stroke-width:1.0;" width="6" x="1300.5" y="670.3242"/><text fill="#000000" font-family="sans-serif" font-size="14" lengthAdjust="spacing" textLength="217" x="1312.5" y="677.6211">actuatorFunctionalityName : String</text><line style="stroke:#181818;stroke-width:0.5;" x1="1293.5" x2="1534.5" y1="685.1348" y2="685.1348"/><ellipse cx="1303.5" cy="699.9453" fill="#84BE84" rx="3" ry="3" style="stroke:#038048;stroke-width:1.0;"/><text fill="#000000" font-family="sans-serif" font-size="14" lengthAdjust="spacing" textLength="194" x="1312.5" y="704.2422">equals(Object object): boolean</text><ellipse cx="1303.5" cy="718.5664" fill="#84BE84" rx="3" ry="3" style="stroke:#038048;stroke-width:1.0;"/><text fill="#000000" font-family="sans-serif" font-size="14" lengthAdjust="spacing" textLength="98" x="1312.5" y="722.8633">hashCode(): int</text><ellipse cx="1303.5" cy="737.1875" fill="#84BE84" rx="3" ry="3" style="stroke:#038048;stroke-width:1.0;"/><text fill="#000000" font-family="sans-serif" font-size="14" lengthAdjust="spacing" textLength="104" x="1312.5" y="741.4844">toString(): String</text></g><!--class ActuatorTarget--><g id="elem_ActuatorTarget"><rect codeLine="71" fill="#F1F1F1" height="85.2422" id="ActuatorTarget" rx="2.5" ry="2.5" style="stroke:#181818;stroke-width:0.5;" width="185" x="1072.5" y="645.0137"/><ellipse cx="1104.15" cy="661.0137" fill="#ADD1B2" rx="11" ry="11" style="stroke:#181818;stroke-width:1.0;"/><path d="M1106.9156,656.8887 Q1107.0719,656.6699 1107.2594,656.5605 Q1107.4469,656.4512 1107.6656,656.4512 Q1108.0406,656.4512 1108.275,656.7168 Q1108.5094,656.9668 1108.5094,657.5762 L1108.5094,659.0293 Q1108.5094,659.6387 1108.275,659.9043 Q1108.0406,660.1699 1107.6656,660.1699 Q1107.3219,660.1699 1107.1188,659.9668 Q1106.9156,659.7793 1106.8063,659.2637 Q1106.7594,658.9043 1106.5719,658.7168 Q1106.2438,658.3418 1105.6344,658.123 Q1105.025,657.9043 1104.4,657.9043 Q1103.6344,657.9043 1102.9938,658.2324 Q1102.3688,658.5605 1101.8688,659.3105 Q1101.3844,660.0605 1101.3844,661.0918 L1101.3844,662.1855 Q1101.3844,663.4199 1102.275,664.248 Q1103.1656,665.0605 1104.7594,665.0605 Q1105.6969,665.0605 1106.3531,664.8105 Q1106.7438,664.6543 1107.1656,664.2168 Q1107.4313,663.9512 1107.5719,663.873 Q1107.7281,663.7949 1107.9313,663.7949 Q1108.2594,663.7949 1108.5094,664.0605 Q1108.775,664.3105 1108.775,664.6543 Q1108.775,664.998 1108.4313,665.4043 Q1107.9313,665.9824 1107.1344,666.3105 Q1106.0563,666.7637 1104.7594,666.7637 Q1103.2438,666.7637 1102.0406,666.1387 Q1101.0563,665.6387 1100.3688,664.5762 Q1099.6813,663.498 1099.6813,662.2168 L1099.6813,661.0605 Q1099.6813,659.7324 1100.2906,658.5918 Q1100.9156,657.4355 1102.0094,656.8262 Q1103.1031,656.2012 1104.3375,656.2012 Q1105.0719,656.2012 1105.7125,656.373 Q1106.3688,656.5293 1106.9156,656.8887 Z " fill="#000000"/><text fill="#000000" font-family="sans-serif" font-size="14" lengthAdjust="spacing" textLength="95" x="1121.85" y="666.8105">ActuatorTarget</text><rect fill="#FFFFFF" height="17.9609" style="stroke:#181818;stroke-width:1.0;stroke-dasharray:2.0,2.0;" width="19" x="1241.5" y="642.0137"/><text fill="#000000" font-family="sans-serif" font-size="12" font-style="italic" lengthAdjust="spacing" textLength="17" x="1242.5" y="655.9629">VO</text><line style="stroke:#181818;stroke-width:0.5;" x1="1073.5" x2="1256.5" y1="677.0137" y2="677.0137"/><rect fill="none" height="6" style="stroke:#C82930;stroke-width:1.0;" width="6" x="1080.5" y="688.8242"/><text fill="#000000" font-family="sans-serif" font-size="14" lengthAdjust="spacing" textLength="141" x="1092.5" y="696.1211">targetActuator: double</text><line style="stroke:#181818;stroke-width:0.5;" x1="1073.5" x2="1256.5" y1="703.6348" y2="703.6348"/><ellipse cx="1083.5" cy="718.4453" fill="#84BE84" rx="3" ry="3" style="stroke:#038048;stroke-width:1.0;"/><text fill="#000000" font-family="sans-serif" font-size="14" lengthAdjust="spacing" textLength="159" x="1092.5" y="722.7422">getTargetValue(): double</text></g><!--class DeviceID--><g id="elem_DeviceID"><rect codeLine="76" fill="#F1F1F1" height="141.1055" id="DeviceID" rx="2.5" ry="2.5" style="stroke:#181818;stroke-width:0.5;" width="190" x="847" y="617.0137"/><ellipse cx="899.25" cy="633.0137" fill="#ADD1B2" rx="11" ry="11" style="stroke:#181818;stroke-width:1.0;"/><path d="M902.0156,628.8887 Q902.1719,628.6699 902.3594,628.5605 Q902.5469,628.4512 902.7656,628.4512 Q903.1406,628.4512 903.375,628.7168 Q903.6094,628.9668 903.6094,629.5762 L903.6094,631.0293 Q903.6094,631.6387 903.375,631.9043 Q903.1406,632.1699 902.7656,632.1699 Q902.4219,632.1699 902.2188,631.9668 Q902.0156,631.7793 901.9063,631.2637 Q901.8594,630.9043 901.6719,630.7168 Q901.3438,630.3418 900.7344,630.123 Q900.125,629.9043 899.5,629.9043 Q898.7344,629.9043 898.0938,630.2324 Q897.4688,630.5605 896.9688,631.3105 Q896.4844,632.0605 896.4844,633.0918 L896.4844,634.1855 Q896.4844,635.4199 897.375,636.248 Q898.2656,637.0605 899.8594,637.0605 Q900.7969,637.0605 901.4531,636.8105 Q901.8438,636.6543 902.2656,636.2168 Q902.5313,635.9512 902.6719,635.873 Q902.8281,635.7949 903.0313,635.7949 Q903.3594,635.7949 903.6094,636.0605 Q903.875,636.3105 903.875,636.6543 Q903.875,636.998 903.5313,637.4043 Q903.0313,637.9824 902.2344,638.3105 Q901.1563,638.7637 899.8594,638.7637 Q898.3438,638.7637 897.1406,638.1387 Q896.1563,637.6387 895.4688,636.5762 Q894.7813,635.498 894.7813,634.2168 L894.7813,633.0605 Q894.7813,631.7324 895.3906,630.5918 Q896.0156,629.4355 897.1094,628.8262 Q898.2031,628.2012 899.4375,628.2012 Q900.1719,628.2012 900.8125,628.373 Q901.4688,628.5293 902.0156,628.8887 Z " fill="#000000"/><text fill="#000000" font-family="sans-serif" font-size="14" lengthAdjust="spacing" textLength="56" x="919.75" y="638.8105">DeviceID</text><rect fill="#FFFFFF" height="17.9609" style="stroke:#181818;stroke-width:1.0;stroke-dasharray:2.0,2.0;" width="19" x="1021" y="614.0137"/><text fill="#000000" font-family="sans-serif" font-size="12" font-style="italic" lengthAdjust="spacing" textLength="17" x="1022" y="627.9629">VO</text><line style="stroke:#181818;stroke-width:0.5;" x1="848" x2="1036" y1="649.0137" y2="649.0137"/><rect fill="none" height="6" style="stroke:#C82930;stroke-width:1.0;" width="6" x="855" y="660.8242"/><text fill="#000000" font-family="sans-serif" font-size="14" lengthAdjust="spacing" textLength="122" x="867" y="668.1211">deviceName: String</text><line style="stroke:#181818;stroke-width:0.5;" x1="848" x2="1036" y1="675.6348" y2="675.6348"/><ellipse cx="858" cy="690.4453" fill="#84BE84" rx="3" ry="3" style="stroke:#038048;stroke-width:1.0;"/><text fill="#000000" font-family="sans-serif" font-size="14" lengthAdjust="spacing" textLength="164" x="867" y="694.7422">equals(Object o): boolean</text><ellipse cx="858" cy="709.0664" fill="#84BE84" rx="3" ry="3" style="stroke:#038048;stroke-width:1.0;"/><text fill="#000000" font-family="sans-serif" font-size="14" lengthAdjust="spacing" textLength="98" x="867" y="713.3633">hashCode(): int</text><ellipse cx="858" cy="727.6875" fill="#84BE84" rx="3" ry="3" style="stroke:#038048;stroke-width:1.0;"/><text fill="#000000" font-family="sans-serif" font-size="14" lengthAdjust="spacing" textLength="104" x="867" y="731.9844">toString(): String</text><ellipse cx="858" cy="746.3086" fill="#84BE84" rx="3" ry="3" style="stroke:#038048;stroke-width:1.0;"/><text fill="#000000" font-family="sans-serif" font-size="14" lengthAdjust="spacing" textLength="154" x="867" y="750.6055">getDeviceName(): String</text></g><!--class ActuatorRepository--><g id="elem_ActuatorRepository"><rect codeLine="94" fill="#F1F1F1" height="141.1055" id="ActuatorRepository" rx="2.5" ry="2.5" style="stroke:#181818;stroke-width:0.5;" width="350" x="2154" y="51.0137"/><ellipse cx="2264.25" cy="67.0137" fill="#ADD1B2" rx="11" ry="11" style="stroke:#181818;stroke-width:1.0;"/><path d="M2267.0156,62.8887 Q2267.1719,62.6699 2267.3594,62.5605 Q2267.5469,62.4512 2267.7656,62.4512 Q2268.1406,62.4512 2268.375,62.7168 Q2268.6094,62.9668 2268.6094,63.5762 L2268.6094,65.0293 Q2268.6094,65.6387 2268.375,65.9043 Q2268.1406,66.1699 2267.7656,66.1699 Q2267.4219,66.1699 2267.2188,65.9668 Q2267.0156,65.7793 2266.9063,65.2637 Q2266.8594,64.9043 2266.6719,64.7168 Q2266.3438,64.3418 2265.7344,64.123 Q2265.125,63.9043 2264.5,63.9043 Q2263.7344,63.9043 2263.0938,64.2324 Q2262.4688,64.5605 2261.9688,65.3105 Q2261.4844,66.0605 2261.4844,67.0918 L2261.4844,68.1855 Q2261.4844,69.4199 2262.375,70.248 Q2263.2656,71.0605 2264.8594,71.0605 Q2265.7969,71.0605 2266.4531,70.8105 Q2266.8438,70.6543 2267.2656,70.2168 Q2267.5313,69.9512 2267.6719,69.873 Q2267.8281,69.7949 2268.0313,69.7949 Q2268.3594,69.7949 2268.6094,70.0605 Q2268.875,70.3105 2268.875,70.6543 Q2268.875,70.998 2268.5313,71.4043 Q2268.0313,71.9824 2267.2344,72.3105 Q2266.1563,72.7637 2264.8594,72.7637 Q2263.3438,72.7637 2262.1406,72.1387 Q2261.1563,71.6387 2260.4688,70.5762 Q2259.7813,69.498 2259.7813,68.2168 L2259.7813,67.0605 Q2259.7813,65.7324 2260.3906,64.5918 Q2261.0156,63.4355 2262.1094,62.8262 Q2263.2031,62.2012 2264.4375,62.2012 Q2265.1719,62.2012 2265.8125,62.373 Q2266.4688,62.5293 2267.0156,62.8887 Z " fill="#000000"/><text fill="#000000" font-family="sans-serif" font-size="14" lengthAdjust="spacing" textLength="121" x="2284.75" y="72.8105">ActuatorRepository</text><line style="stroke:#181818;stroke-width:0.5;" x1="2155" x2="2503" y1="83.0137" y2="83.0137"/><rect fill="none" height="6" style="stroke:#C82930;stroke-width:1.0;" width="6" x="2162" y="94.8242"/><text fill="#000000" font-family="sans-serif" font-size="14" lengthAdjust="spacing" textLength="237" x="2174" y="102.1211">HashMap: Map&lt;ActuatorID, Actuator&gt;</text><line style="stroke:#181818;stroke-width:0.5;" x1="2155" x2="2503" y1="109.6348" y2="109.6348"/><ellipse cx="2165" cy="124.4453" fill="#84BE84" rx="3" ry="3" style="stroke:#038048;stroke-width:1.0;"/><text fill="#000000" font-family="sans-serif" font-size="14" lengthAdjust="spacing" textLength="296" x="2174" y="128.7422">addAndSaveActuator(Actuator entity): Actuator</text><ellipse cx="2165" cy="143.0664" fill="#84BE84" rx="3" ry="3" style="stroke:#038048;stroke-width:1.0;"/><text fill="#000000" font-family="sans-serif" font-size="14" lengthAdjust="spacing" textLength="232" x="2174" y="147.3633">findAllActuators(): Iterable&lt;Actuator&gt;</text><ellipse cx="2165" cy="161.6875" fill="#84BE84" rx="3" ry="3" style="stroke:#038048;stroke-width:1.0;"/><text fill="#000000" font-family="sans-serif" font-size="14" lengthAdjust="spacing" textLength="324" x="2174" y="165.9844">findActuatorById(ActuatorID id): Optional&lt;Actuator&gt;</text><ellipse cx="2165" cy="180.3086" fill="#84BE84" rx="3" ry="3" style="stroke:#038048;stroke-width:1.0;"/><text fill="#000000" font-family="sans-serif" font-size="14" lengthAdjust="spacing" textLength="283" x="2174" y="184.6055">containsActuatorById(ActuatorID id): boolean</text></g><!--reverse link Actuator to ActuatorSpecificDecimal--><g id="link_Actuator_ActuatorSpecificDecimal"><path d="M316.75,465.1837 C316.75,521.7037 316.75,602.2237 316.75,653.8237 " fill="none" id="Actuator-backto-ActuatorSpecificDecimal" style="stroke:#181818;stroke-width:1.0;"/><polygon fill="none" points="316.75,447.1837,310.75,465.1837,322.75,465.1837,316.75,447.1837" style="stroke:#181818;stroke-width:1.0;"/></g><!--link ActuatorFactory to Actuator--><g id="link_ActuatorFactory_Actuator"><path codeLine="37" d="M211,155.0937 C211,206.6237 211,299.1937 211,355.7637 " fill="none" id="ActuatorFactory-to-Actuator" style="stroke:#181818;stroke-width:1.0;"/><polygon fill="#181818" points="211,361.7637,215,352.7637,211,356.7637,207,352.7637,211,361.7637" style="stroke:#181818;stroke-width:1.0;"/><text fill="#000000" font-family="sans-serif" font-size="13" lengthAdjust="spacing" textLength="57" x="153" y="254.452">&#171;creates&#187;</text></g><!--link ActuatorProperties to RangeDecimal--><g id="link_ActuatorProperties_RangeDecimal"><path codeLine="84" d="M1695,730.1137 C1695,755.3437 1695,782.1237 1695,812.0137 " fill="none" id="ActuatorProperties-to-RangeDecimal" style="stroke:#181818;stroke-width:1.0;"/><polygon fill="#181818" points="1695,818.0137,1699,809.0137,1695,813.0137,1691,809.0137,1695,818.0137" style="stroke:#181818;stroke-width:1.0;"/></g><!--link DecimalSetterActuator to ActuatorProperties--><g id="link_DecimalSetterActuator_ActuatorProperties"><path codeLine="86" d="M767.01,378.0137 C1079.74,378.0137 1695,378.0137 1695,378.0137 C1695,378.0137 1695,553.9037 1695,638.8037 " fill="none" id="DecimalSetterActuator-to-ActuatorProperties" style="stroke:#181818;stroke-width:1.0;"/><polygon fill="#181818" points="1695,644.8037,1699,635.8037,1695,639.8037,1691,635.8037,1695,644.8037" style="stroke:#181818;stroke-width:1.0;"/></g><!--link DecimalSetterActuator to ActuatorID--><g id="link_DecimalSetterActuator_ActuatorID"><path codeLine="87" d="M767.07,324.0137 C1131.28,324.0137 1927.33,324.0137 1927.33,324.0137 C1927.33,324.0137 1927.33,516.6637 1927.33,620.2637 " fill="none" id="DecimalSetterActuator-to-ActuatorID" style="stroke:#181818;stroke-width:1.0;"/><polygon fill="#181818" points="1927.33,626.2637,1931.33,617.2637,1927.33,621.2637,1923.33,617.2637,1927.33,626.2637" style="stroke:#181818;stroke-width:1.0;"/></g><!--link DecimalSetterActuator to DeviceID--><g id="link_DecimalSetterActuator_DeviceID"><path codeLine="88" d="M654.75,540.1837 C654.75,590.7037 654.75,636.0137 654.75,636.0137 C654.75,636.0137 757.13,636.0137 840.75,636.0137 " fill="none" id="DecimalSetterActuator-to-DeviceID" style="stroke:#181818;stroke-width:1.0;"/><polygon fill="#181818" points="846.75,636.0137,837.75,632.0137,841.75,636.0137,837.75,640.0137,846.75,636.0137" style="stroke:#181818;stroke-width:1.0;"/></g><!--link DecimalSetterActuator to ActuatorTarget--><g id="link_DecimalSetterActuator_ActuatorTarget"><path codeLine="89" d="M767.31,486.0137 C936.47,486.0137 1165,486.0137 1165,486.0137 C1165,486.0137 1165,579.6337 1165,638.7837 " fill="none" id="DecimalSetterActuator-to-ActuatorTarget" style="stroke:#181818;stroke-width:1.0;"/><polygon fill="#181818" points="1165,644.7837,1169,635.7837,1165,639.7837,1161,635.7837,1165,644.7837" style="stroke:#181818;stroke-width:1.0;"/></g><!--link DecimalSetterActuator to ActuatorFunctionalityID--><g id="link_DecimalSetterActuator_ActuatorFunctionalityID"><path codeLine="90" d="M767.25,432.0137 C1009.81,432.0137 1414,432.0137 1414,432.0137 C1414,432.0137 1414,544.7237 1414,620.3137 " fill="none" id="DecimalSetterActuator-to-ActuatorFunctionalityID" style="stroke:#181818;stroke-width:1.0;"/><polygon fill="#181818" points="1414,626.3137,1418,617.3137,1414,621.3137,1410,617.3137,1414,626.3137" style="stroke:#181818;stroke-width:1.0;"/></g><!--link DecimalSetterActuator to ActuatorSpecificDecimal--><g id="link_DecimalSetterActuator_ActuatorSpecificDecimal"><path codeLine="91" d="M476.75,540.2137 C476.75,582.4837 476.75,607.4537 476.75,635.9837 " fill="none" id="DecimalSetterActuator-to-ActuatorSpecificDecimal" style="stroke:#181818;stroke-width:1.0;stroke-dasharray:7.0,7.0;"/><polygon fill="none" points="476.75,653.9837,482.75,635.9837,470.75,635.9837,476.75,653.9837" style="stroke:#181818;stroke-width:1.0;"/></g><!--link ActuatorRepository to ActuatorID--><g id="link_ActuatorRepository_ActuatorID"><path codeLine="101" d="M2153.78,180.0137 C2075.54,180.0137 2000.67,180.0137 2000.67,180.0137 C2000.67,180.0137 2000.67,485.3137 2000.67,620.2937 " fill="none" id="ActuatorRepository-to-ActuatorID" style="stroke:#181818;stroke-width:1.0;"/><polygon fill="#181818" points="2000.67,626.2937,2004.67,617.2937,2000.67,621.2937,1996.67,617.2937,2000.67,626.2937" style="stroke:#181818;stroke-width:1.0;"/></g><!--link ActuatorRepository to DecimalSetterActuator--><g id="link_ActuatorRepository_DecimalSetterActuator"><path codeLine="102" d="M2153.79,168.0137 C1712.27,168.0137 589,168.0137 589,168.0137 C589,168.0137 589,210.1537 589,262.9937 " fill="none" id="ActuatorRepository-to-DecimalSetterActuator" style="stroke:#181818;stroke-width:1.0;"/><polygon fill="#181818" points="589,268.9937,593,259.9937,589,263.9937,585,259.9937,589,268.9937" style="stroke:#181818;stroke-width:1.0;"/></g><!--SRC=[hLPRRvim57xdL_XjYLZQTnH5oXPDYzIjLRFjtOLJuXLiPfjs4Sj_tx41sr28EcalINmkdy_vpiLvTzIwKidrTLLGhkkok4f5UPqMLAbLncWkQHcf9yOhYhz8mJZeKmL4I7qKKLJHz8dcG39HKiORTwQfhgaMaZGHunha8qs1R3jX55buT_w4raAUcYXE9L0DlNonJ0AVymGIkkIW7KxDKyq4fmNJfz1veB0kEtXcANob9HYxzhJVuHqJbnmgIDaZItVuLTA2m6yDF5DX4CeWMkqFMjImo4JzK01vDeSbISY340LGRl1xXZhx0sYyhuVQvhc472beEeechTRtGkXD4wrwbaqUnAUBYJZLdHGLICr0URsNURi1HViTcI7FG6igaK6RQ4A- -KEqoXoh920rB57F-45BnlFvwkrti_KpY3DyStYnvwLdFBoXZHM1Xu9B3H6p3BYsxJGaE6RgWCPRjRXz-0cf9i9-BSDQdwDHXvFLQkD04h9Uj_skDfl8z7VV6hPjMhncF2jOclMFst7nFQ44VjMqc8yg9aUgZXz5PlF4PaU95grtK1YCPdYlxvdkUabv3bqH4d8Vd2oVeS3W3WpEVLQXjC-Br1NUTCDAfXryMr_K5U9bLbT952biaoulZEBx6Cg4qZaO_SqORgI_wo5xiiwlTjTeRaR56QYxmVZFfNeLKjlLZivsN7tN1Ua5mniaxW3xAR1Gn63v0PzFuzypYCch0NIv-Hdo7MZ7QDHGaukIMCkflNV1F1Zo2rPkGxm1gLipRmbnlEccVQwk_cpcdYV_maYeX69eWGatenwvxtKdKzVFMAKlj4e8Vgnz_k-T-IQAQPPjUNQWp_vvTl6qAp9yhUD7nhDjKVG2POgwnnmeTjWwWBLstV73QPyjWaN7CdIwhLe-GgTKS8r_DzH5Hx-79v8U5Nh6OfBzwFmN]--></g></svg>