<?xml version="1.0" encoding="us-ascii" standalone="no"?><svg xmlns="http://www.w3.org/2000/svg" xmlns:xlink="http://www.w3.org/1999/xlink" contentStyleType="text/css" height="1624px" preserveAspectRatio="none" style="width:1525px;height:1624px;background:#FFFFFF;" version="1.1" viewBox="0 0 1525 1624" width="1525px" zoomAndPan="magnify"><defs/><g><text fill="#000000" font-family="sans-serif" font-size="14" font-weight="bold" lengthAdjust="spacing" textLength="113" x="699" y="25.1074">DeviceAgregate</text><!--cluster ddd--><g id="cluster_ddd"><path d="M700.5,973.6348 L728.5,973.6348 A3.75,3.75 0 0 1 731,976.1348 L738,998.2559 L967.5,998.2559 A2.5,2.5 0 0 1 970,1000.7559 L970,1615.1348 A2.5,2.5 0 0 1 967.5,1617.6348 L700.5,1617.6348 A2.5,2.5 0 0 1 698,1615.1348 L698,976.1348 A2.5,2.5 0 0 1 700.5,973.6348 " fill="none" style="stroke:#000000;stroke-width:1.5;"/><line style="stroke:#000000;stroke-width:1.5;" x1="698" x2="738" y1="998.2559" y2="998.2559"/><text fill="#000000" font-family="sans-serif" font-size="14" font-weight="bold" lengthAdjust="spacing" textLength="27" x="702" y="990.7422">ddd</text></g><!--cluster repositories--><g id="cluster_repositories"><path d="M8.5,53.6348 L95.5,53.6348 A3.75,3.75 0 0 1 98,56.1348 L105,78.2559 L349.5,78.2559 A2.5,2.5 0 0 1 352,80.7559 L352,245.1348 A2.5,2.5 0 0 1 349.5,247.6348 L8.5,247.6348 A2.5,2.5 0 0 1 6,245.1348 L6,56.1348 A2.5,2.5 0 0 1 8.5,53.6348 " fill="none" style="stroke:#000000;stroke-width:1.5;"/><line style="stroke:#000000;stroke-width:1.5;" x1="6" x2="105" y1="78.2559" y2="78.2559"/><text fill="#000000" font-family="sans-serif" font-size="14" font-weight="bold" lengthAdjust="spacing" textLength="86" x="10" y="70.7422">repositories</text></g><!--cluster domain--><g id="cluster_domain"><path d="M378.5,45.6348 L430.5,45.6348 A3.75,3.75 0 0 1 433,48.1348 L440,70.2559 L1515.5,70.2559 A2.5,2.5 0 0 1 1518,72.7559 L1518,927.1348 A2.5,2.5 0 0 1 1515.5,929.6348 L378.5,929.6348 A2.5,2.5 0 0 1 376,927.1348 L376,48.1348 A2.5,2.5 0 0 1 378.5,45.6348 " fill="none" style="stroke:#000000;stroke-width:1.5;"/><line style="stroke:#000000;stroke-width:1.5;" x1="376" x2="440" y1="70.2559" y2="70.2559"/><text fill="#000000" font-family="sans-serif" font-size="14" font-weight="bold" lengthAdjust="spacing" textLength="51" x="380" y="62.7422">domain</text></g><!--cluster device--><g id="cluster_device"><path d="M402.5,90.6348 L451.5,90.6348 A3.75,3.75 0 0 1 454,93.1348 L461,115.2559 L1491.5,115.2559 A2.5,2.5 0 0 1 1494,117.7559 L1494,759.1348 A2.5,2.5 0 0 1 1491.5,761.6348 L402.5,761.6348 A2.5,2.5 0 0 1 400,759.1348 L400,93.1348 A2.5,2.5 0 0 1 402.5,90.6348 " fill="none" style="stroke:#000000;stroke-width:1.5;"/><line style="stroke:#000000;stroke-width:1.5;" x1="400" x2="461" y1="115.2559" y2="115.2559"/><text fill="#000000" font-family="sans-serif" font-size="14" font-weight="bold" lengthAdjust="spacing" textLength="48" x="404" y="107.7422">device</text></g><!--cluster valueobjects--><g id="cluster_valueobjects"><path d="M703.5,785.6348 L795.5,785.6348 A3.75,3.75 0 0 1 798,788.1348 L805,810.2559 L1151.5,810.2559 A2.5,2.5 0 0 1 1154,812.7559 L1154,903.1348 A2.5,2.5 0 0 1 1151.5,905.6348 L703.5,905.6348 A2.5,2.5 0 0 1 701,903.1348 L701,788.1348 A2.5,2.5 0 0 1 703.5,785.6348 " fill="none" style="stroke:#000000;stroke-width:1.5;"/><line style="stroke:#000000;stroke-width:1.5;" x1="701" x2="805" y1="810.2559" y2="810.2559"/><text fill="#000000" font-family="sans-serif" font-size="14" font-weight="bold" lengthAdjust="spacing" textLength="91" x="705" y="802.7422">valueobjects</text></g><!--class ValueObject--><g id="elem_ValueObject"><rect codeLine="5" fill="#F1F1F1" height="48" id="ValueObject" rx="2.5" ry="2.5" style="stroke:#181818;stroke-width:0.5;" width="109" x="844.5" y="1010.6348"/><ellipse cx="859.5" cy="1026.6348" fill="#B4A7E5" rx="11" ry="11" style="stroke:#181818;stroke-width:1.0;"/><path d="M860.4531,1023.2754 L860.4531,1029.9316 L862.1719,1029.9316 Q862.7813,1029.9316 863.0469,1030.166 Q863.3125,1030.4004 863.3125,1030.791 Q863.3125,1031.166 863.0469,1031.4004 Q862.7813,1031.6348 862.1719,1031.6348 L857.0313,1031.6348 Q856.4219,1031.6348 856.1563,1031.4004 Q855.8906,1031.166 855.8906,1030.7754 Q855.8906,1030.4004 856.1563,1030.166 Q856.4219,1029.9316 857.0313,1029.9316 L858.75,1029.9316 L858.75,1023.2754 L857.0313,1023.2754 Q856.4219,1023.2754 856.1563,1023.041 Q855.8906,1022.8066 855.8906,1022.416 Q855.8906,1022.041 856.1563,1021.8066 Q856.4219,1021.5723 857.0313,1021.5723 L862.1719,1021.5723 Q862.7813,1021.5723 863.0469,1021.8066 Q863.3125,1022.041 863.3125,1022.416 Q863.3125,1022.8066 863.0469,1023.041 Q862.7813,1023.2754 862.1719,1023.2754 L860.4531,1023.2754 Z " fill="#000000"/><text fill="#000000" font-family="sans-serif" font-size="14" font-style="italic" lengthAdjust="spacing" textLength="77" x="873.5" y="1032.4316">ValueObject</text><line style="stroke:#181818;stroke-width:0.5;" x1="845.5" x2="952.5" y1="1042.6348" y2="1042.6348"/><line style="stroke:#181818;stroke-width:0.5;" x1="845.5" x2="952.5" y1="1050.6348" y2="1050.6348"/></g><!--class DomainID--><g id="elem_DomainID"><rect codeLine="8" fill="#F1F1F1" height="48" id="DomainID" rx="2.5" ry="2.5" style="stroke:#181818;stroke-width:0.5;" width="94" x="788" y="1118.6348"/><ellipse cx="803" cy="1134.6348" fill="#B4A7E5" rx="11" ry="11" style="stroke:#181818;stroke-width:1.0;"/><path d="M803.9531,1131.2754 L803.9531,1137.9316 L805.6719,1137.9316 Q806.2813,1137.9316 806.5469,1138.166 Q806.8125,1138.4004 806.8125,1138.791 Q806.8125,1139.166 806.5469,1139.4004 Q806.2813,1139.6348 805.6719,1139.6348 L800.5313,1139.6348 Q799.9219,1139.6348 799.6563,1139.4004 Q799.3906,1139.166 799.3906,1138.7754 Q799.3906,1138.4004 799.6563,1138.166 Q799.9219,1137.9316 800.5313,1137.9316 L802.25,1137.9316 L802.25,1131.2754 L800.5313,1131.2754 Q799.9219,1131.2754 799.6563,1131.041 Q799.3906,1130.8066 799.3906,1130.416 Q799.3906,1130.041 799.6563,1129.8066 Q799.9219,1129.5723 800.5313,1129.5723 L805.6719,1129.5723 Q806.2813,1129.5723 806.5469,1129.8066 Q806.8125,1130.041 806.8125,1130.416 Q806.8125,1130.8066 806.5469,1131.041 Q806.2813,1131.2754 805.6719,1131.2754 L803.9531,1131.2754 Z " fill="#000000"/><text fill="#000000" font-family="sans-serif" font-size="14" font-style="italic" lengthAdjust="spacing" textLength="62" x="817" y="1140.4316">DomainID</text><line style="stroke:#181818;stroke-width:0.5;" x1="789" x2="881" y1="1150.6348" y2="1150.6348"/><line style="stroke:#181818;stroke-width:0.5;" x1="789" x2="881" y1="1158.6348" y2="1158.6348"/></g><!--class DomainEntity--><g id="elem_DomainEntity"><rect codeLine="11" fill="#F1F1F1" height="85.2422" id="DomainEntity" rx="2.5" ry="2.5" style="stroke:#181818;stroke-width:0.5;" width="236" x="717" y="1226.6348"/><ellipse cx="789.25" cy="1242.6348" fill="#B4A7E5" rx="11" ry="11" style="stroke:#181818;stroke-width:1.0;"/><path d="M790.2031,1239.2754 L790.2031,1245.9316 L791.9219,1245.9316 Q792.5313,1245.9316 792.7969,1246.166 Q793.0625,1246.4004 793.0625,1246.791 Q793.0625,1247.166 792.7969,1247.4004 Q792.5313,1247.6348 791.9219,1247.6348 L786.7813,1247.6348 Q786.1719,1247.6348 785.9063,1247.4004 Q785.6406,1247.166 785.6406,1246.7754 Q785.6406,1246.4004 785.9063,1246.166 Q786.1719,1245.9316 786.7813,1245.9316 L788.5,1245.9316 L788.5,1239.2754 L786.7813,1239.2754 Q786.1719,1239.2754 785.9063,1239.041 Q785.6406,1238.8066 785.6406,1238.416 Q785.6406,1238.041 785.9063,1237.8066 Q786.1719,1237.5723 786.7813,1237.5723 L791.9219,1237.5723 Q792.5313,1237.5723 792.7969,1237.8066 Q793.0625,1238.041 793.0625,1238.416 Q793.0625,1238.8066 792.7969,1239.041 Q792.5313,1239.2754 791.9219,1239.2754 L790.2031,1239.2754 Z " fill="#000000"/><text fill="#000000" font-family="sans-serif" font-size="14" font-style="italic" lengthAdjust="spacing" textLength="83" x="809.75" y="1248.4316">DomainEntity</text><line style="stroke:#181818;stroke-width:0.5;" x1="718" x2="952" y1="1258.6348" y2="1258.6348"/><line style="stroke:#181818;stroke-width:0.5;" x1="718" x2="952" y1="1266.6348" y2="1266.6348"/><ellipse cx="728" cy="1281.4453" fill="#84BE84" rx="3" ry="3" style="stroke:#038048;stroke-width:1.0;"/><text fill="#000000" font-family="sans-serif" font-size="14" lengthAdjust="spacing" textLength="72" x="737" y="1285.7422">identity():ID</text><ellipse cx="728" cy="1300.0664" fill="#84BE84" rx="3" ry="3" style="stroke:#038048;stroke-width:1.0;"/><text fill="#000000" font-family="sans-serif" font-size="14" lengthAdjust="spacing" textLength="210" x="737" y="1304.3633">isSameAs(Object object):boolean</text></g><!--class AgreggateRoot--><g id="elem_AgreggateRoot"><rect codeLine="16" fill="#F1F1F1" height="48" id="AgreggateRoot" rx="2.5" ry="2.5" style="stroke:#181818;stroke-width:0.5;" width="128" x="770" y="1371.6348"/><ellipse cx="785" cy="1387.6348" fill="#B4A7E5" rx="11" ry="11" style="stroke:#181818;stroke-width:1.0;"/><path d="M785.9531,1384.2754 L785.9531,1390.9316 L787.6719,1390.9316 Q788.2813,1390.9316 788.5469,1391.166 Q788.8125,1391.4004 788.8125,1391.791 Q788.8125,1392.166 788.5469,1392.4004 Q788.2813,1392.6348 787.6719,1392.6348 L782.5313,1392.6348 Q781.9219,1392.6348 781.6563,1392.4004 Q781.3906,1392.166 781.3906,1391.7754 Q781.3906,1391.4004 781.6563,1391.166 Q781.9219,1390.9316 782.5313,1390.9316 L784.25,1390.9316 L784.25,1384.2754 L782.5313,1384.2754 Q781.9219,1384.2754 781.6563,1384.041 Q781.3906,1383.8066 781.3906,1383.416 Q781.3906,1383.041 781.6563,1382.8066 Q781.9219,1382.5723 782.5313,1382.5723 L787.6719,1382.5723 Q788.2813,1382.5723 788.5469,1382.8066 Q788.8125,1383.041 788.8125,1383.416 Q788.8125,1383.8066 788.5469,1384.041 Q788.2813,1384.2754 787.6719,1384.2754 L785.9531,1384.2754 Z " fill="#000000"/><text fill="#000000" font-family="sans-serif" font-size="14" font-style="italic" lengthAdjust="spacing" textLength="96" x="799" y="1393.4316">AgreggateRoot</text><line style="stroke:#181818;stroke-width:0.5;" x1="771" x2="897" y1="1403.6348" y2="1403.6348"/><line style="stroke:#181818;stroke-width:0.5;" x1="771" x2="897" y1="1411.6348" y2="1411.6348"/></g><!--class Repository--><g id="elem_Repository"><rect codeLine="19" fill="#F1F1F1" height="122.4844" id="Repository" rx="2.5" ry="2.5" style="stroke:#181818;stroke-width:0.5;" width="240" x="714" y="1479.6348"/><ellipse cx="795.75" cy="1495.6348" fill="#B4A7E5" rx="11" ry="11" style="stroke:#181818;stroke-width:1.0;"/><path d="M796.7031,1492.2754 L796.7031,1498.9316 L798.4219,1498.9316 Q799.0313,1498.9316 799.2969,1499.166 Q799.5625,1499.4004 799.5625,1499.791 Q799.5625,1500.166 799.2969,1500.4004 Q799.0313,1500.6348 798.4219,1500.6348 L793.2813,1500.6348 Q792.6719,1500.6348 792.4063,1500.4004 Q792.1406,1500.166 792.1406,1499.7754 Q792.1406,1499.4004 792.4063,1499.166 Q792.6719,1498.9316 793.2813,1498.9316 L795,1498.9316 L795,1492.2754 L793.2813,1492.2754 Q792.6719,1492.2754 792.4063,1492.041 Q792.1406,1491.8066 792.1406,1491.416 Q792.1406,1491.041 792.4063,1490.8066 Q792.6719,1490.5723 793.2813,1490.5723 L798.4219,1490.5723 Q799.0313,1490.5723 799.2969,1490.8066 Q799.5625,1491.041 799.5625,1491.416 Q799.5625,1491.8066 799.2969,1492.041 Q799.0313,1492.2754 798.4219,1492.2754 L796.7031,1492.2754 Z " fill="#000000"/><text fill="#000000" font-family="sans-serif" font-size="14" font-style="italic" lengthAdjust="spacing" textLength="68" x="816.25" y="1501.4316">Repository</text><line style="stroke:#181818;stroke-width:0.5;" x1="715" x2="953" y1="1511.6348" y2="1511.6348"/><line style="stroke:#181818;stroke-width:0.5;" x1="715" x2="953" y1="1519.6348" y2="1519.6348"/><ellipse cx="725" cy="1534.4453" fill="#84BE84" rx="3" ry="3" style="stroke:#038048;stroke-width:1.0;"/><text fill="#000000" font-family="sans-serif" font-size="14" lengthAdjust="spacing" textLength="166" x="734" y="1538.7422">updateOrSave(T entity): T</text><ellipse cx="725" cy="1553.0664" fill="#84BE84" rx="3" ry="3" style="stroke:#038048;stroke-width:1.0;"/><text fill="#000000" font-family="sans-serif" font-size="14" lengthAdjust="spacing" textLength="174" x="734" y="1557.3633">findAllEntities(): Iterable&lt;T&gt;</text><ellipse cx="725" cy="1571.6875" fill="#84BE84" rx="3" ry="3" style="stroke:#038048;stroke-width:1.0;"/><text fill="#000000" font-family="sans-serif" font-size="14" lengthAdjust="spacing" textLength="211" x="734" y="1575.9844">findEntityByID(ID id): Optional&lt;T&gt;</text><ellipse cx="725" cy="1590.3086" fill="#84BE84" rx="3" ry="3" style="stroke:#038048;stroke-width:1.0;"/><text fill="#000000" font-family="sans-serif" font-size="14" lengthAdjust="spacing" textLength="214" x="734" y="1594.6055">containsEntityByID(ID id): boolean</text></g><!--class RepositoryDevice--><g id="elem_RepositoryDevice"><rect codeLine="27" fill="#F1F1F1" height="141.1055" id="RepositoryDevice" rx="2.5" ry="2.5" style="stroke:#181818;stroke-width:0.5;" width="314" x="22" y="90.6348"/><ellipse cx="104.75" cy="106.6348" fill="#ADD1B2" rx="11" ry="11" style="stroke:#181818;stroke-width:1.0;"/><path d="M107.5156,102.5098 Q107.6719,102.291 107.8594,102.1816 Q108.0469,102.0723 108.2656,102.0723 Q108.6406,102.0723 108.875,102.3379 Q109.1094,102.5879 109.1094,103.1973 L109.1094,104.6504 Q109.1094,105.2598 108.875,105.5254 Q108.6406,105.791 108.2656,105.791 Q107.9219,105.791 107.7188,105.5879 Q107.5156,105.4004 107.4063,104.8848 Q107.3594,104.5254 107.1719,104.3379 Q106.8438,103.9629 106.2344,103.7441 Q105.625,103.5254 105,103.5254 Q104.2344,103.5254 103.5938,103.8535 Q102.9688,104.1816 102.4688,104.9316 Q101.9844,105.6816 101.9844,106.7129 L101.9844,107.8066 Q101.9844,109.041 102.875,109.8691 Q103.7656,110.6816 105.3594,110.6816 Q106.2969,110.6816 106.9531,110.4316 Q107.3438,110.2754 107.7656,109.8379 Q108.0313,109.5723 108.1719,109.4941 Q108.3281,109.416 108.5313,109.416 Q108.8594,109.416 109.1094,109.6816 Q109.375,109.9316 109.375,110.2754 Q109.375,110.6191 109.0313,111.0254 Q108.5313,111.6035 107.7344,111.9316 Q106.6563,112.3848 105.3594,112.3848 Q103.8438,112.3848 102.6406,111.7598 Q101.6563,111.2598 100.9688,110.1973 Q100.2813,109.1191 100.2813,107.8379 L100.2813,106.6816 Q100.2813,105.3535 100.8906,104.2129 Q101.5156,103.0566 102.6094,102.4473 Q103.7031,101.8223 104.9375,101.8223 Q105.6719,101.8223 106.3125,101.9941 Q106.9688,102.1504 107.5156,102.5098 Z " fill="#000000"/><text fill="#000000" font-family="sans-serif" font-size="14" lengthAdjust="spacing" textLength="111" x="125.25" y="112.4316">RepositoryDevice</text><rect fill="#FFFFFF" height="17.9609" style="stroke:#181818;stroke-width:1.0;stroke-dasharray:2.0,2.0;" width="27" x="312" y="87.6348"/><text fill="#000000" font-family="sans-serif" font-size="12" font-style="italic" lengthAdjust="spacing" textLength="25" x="313" y="101.584">repo</text><line style="stroke:#181818;stroke-width:0.5;" x1="23" x2="335" y1="122.6348" y2="122.6348"/><rect fill="none" height="6" style="stroke:#C82930;stroke-width:1.0;" width="6" x="30" y="134.4453"/><text fill="#000000" font-family="sans-serif" font-size="14" lengthAdjust="spacing" textLength="195" x="42" y="141.7422">DATA: Map&lt;DeviceID, Device&gt;</text><line style="stroke:#181818;stroke-width:0.5;" x1="23" x2="335" y1="149.2559" y2="149.2559"/><ellipse cx="33" cy="164.0664" fill="#84BE84" rx="3" ry="3" style="stroke:#038048;stroke-width:1.0;"/><text fill="#000000" font-family="sans-serif" font-size="14" lengthAdjust="spacing" textLength="234" x="42" y="168.3633">updateOrSave(Device entity): Device</text><ellipse cx="33" cy="182.6875" fill="#84BE84" rx="3" ry="3" style="stroke:#038048;stroke-width:1.0;"/><text fill="#000000" font-family="sans-serif" font-size="14" lengthAdjust="spacing" textLength="208" x="42" y="186.9844">findAllEntities(): Iterable&lt;Device&gt;</text><ellipse cx="33" cy="201.3086" fill="#84BE84" rx="3" ry="3" style="stroke:#038048;stroke-width:1.0;"/><text fill="#000000" font-family="sans-serif" font-size="14" lengthAdjust="spacing" textLength="288" x="42" y="205.6055">findEntityByID(DeviceID id): Optional&lt;Device&gt;</text><ellipse cx="33" cy="219.9297" fill="#84BE84" rx="3" ry="3" style="stroke:#038048;stroke-width:1.0;"/><text fill="#000000" font-family="sans-serif" font-size="14" lengthAdjust="spacing" textLength="257" x="42" y="224.2266">containsEntityByID(DeviceID id): boolean</text></g><!--class Device--><g id="elem_Device"><rect codeLine="40" fill="#F1F1F1" height="327.3164" id="Device" rx="2.5" ry="2.5" style="stroke:#181818;stroke-width:0.5;" width="1061" x="416.5" y="418.6348"/><ellipse cx="908.75" cy="434.6348" fill="#ADD1B2" rx="11" ry="11" style="stroke:#181818;stroke-width:1.0;"/><path d="M911.5156,430.5098 Q911.6719,430.291 911.8594,430.1816 Q912.0469,430.0723 912.2656,430.0723 Q912.6406,430.0723 912.875,430.3379 Q913.1094,430.5879 913.1094,431.1973 L913.1094,432.6504 Q913.1094,433.2598 912.875,433.5254 Q912.6406,433.791 912.2656,433.791 Q911.9219,433.791 911.7188,433.5879 Q911.5156,433.4004 911.4063,432.8848 Q911.3594,432.5254 911.1719,432.3379 Q910.8438,431.9629 910.2344,431.7441 Q909.625,431.5254 909,431.5254 Q908.2344,431.5254 907.5938,431.8535 Q906.9688,432.1816 906.4688,432.9316 Q905.9844,433.6816 905.9844,434.7129 L905.9844,435.8066 Q905.9844,437.041 906.875,437.8691 Q907.7656,438.6816 909.3594,438.6816 Q910.2969,438.6816 910.9531,438.4316 Q911.3438,438.2754 911.7656,437.8379 Q912.0313,437.5723 912.1719,437.4941 Q912.3281,437.416 912.5313,437.416 Q912.8594,437.416 913.1094,437.6816 Q913.375,437.9316 913.375,438.2754 Q913.375,438.6191 913.0313,439.0254 Q912.5313,439.6035 911.7344,439.9316 Q910.6563,440.3848 909.3594,440.3848 Q907.8438,440.3848 906.6406,439.7598 Q905.6563,439.2598 904.9688,438.1973 Q904.2813,437.1191 904.2813,435.8379 L904.2813,434.6816 Q904.2813,433.3535 904.8906,432.2129 Q905.5156,431.0566 906.6094,430.4473 Q907.7031,429.8223 908.9375,429.8223 Q909.6719,429.8223 910.3125,429.9941 Q910.9688,430.1504 911.5156,430.5098 Z " fill="#000000"/><text fill="#000000" font-family="sans-serif" font-size="14" lengthAdjust="spacing" textLength="43" x="929.25" y="440.4316">Device</text><rect fill="#FFFFFF" height="17.9609" style="stroke:#181818;stroke-width:1.0;stroke-dasharray:2.0,2.0;" width="23" x="1457.5" y="415.6348"/><text fill="#000000" font-family="sans-serif" font-size="12" font-style="italic" lengthAdjust="spacing" textLength="21" x="1458.5" y="429.584">root</text><line style="stroke:#181818;stroke-width:0.5;" x1="417.5" x2="1476.5" y1="450.6348" y2="450.6348"/><rect fill="none" height="6" style="stroke:#C82930;stroke-width:1.0;" width="6" x="424.5" y="462.4453"/><text fill="#000000" font-family="sans-serif" font-size="14" lengthAdjust="spacing" textLength="118" x="436.5" y="469.7422">deviceID: DeviceID</text><rect fill="none" height="6" style="stroke:#C82930;stroke-width:1.0;" width="6" x="424.5" y="481.0664"/><text fill="#000000" font-family="sans-serif" font-size="14" lengthAdjust="spacing" textLength="84" x="436.5" y="488.3633">model: Model</text><rect fill="none" height="6" style="stroke:#C82930;stroke-width:1.0;" width="6" x="424.5" y="499.6875"/><text fill="#000000" font-family="sans-serif" font-size="14" lengthAdjust="spacing" textLength="86" x="436.5" y="506.9844">status: Status</text><line style="stroke:#181818;stroke-width:0.5;" x1="417.5" x2="1476.5" y1="514.498" y2="514.498"/><ellipse cx="427.5" cy="529.3086" fill="#84BE84" rx="3" ry="3" style="stroke:#038048;stroke-width:1.0;"/><text fill="#000000" font-family="sans-serif" font-size="14" lengthAdjust="spacing" textLength="146" x="436.5" y="533.6055">getDeviceID():DeviceID</text><ellipse cx="427.5" cy="547.9297" fill="#84BE84" rx="3" ry="3" style="stroke:#038048;stroke-width:1.0;"/><text fill="#000000" font-family="sans-serif" font-size="14" lengthAdjust="spacing" textLength="114" x="436.5" y="552.2266">getStatus():Status</text><ellipse cx="427.5" cy="566.5508" fill="#84BE84" rx="3" ry="3" style="stroke:#038048;stroke-width:1.0;"/><text fill="#000000" font-family="sans-serif" font-size="14" lengthAdjust="spacing" textLength="110" x="436.5" y="570.8477">getModel():Model</text><ellipse cx="427.5" cy="585.1719" fill="#84BE84" rx="3" ry="3" style="stroke:#038048;stroke-width:1.0;"/><text fill="#000000" font-family="sans-serif" font-size="14" lengthAdjust="spacing" textLength="1035" x="436.5" y="589.4688">createActuatorAndAddToDevice(ActuatorID actuatorID, ActuatorCatalogue actuatorCatalogue, String actuatorClass, ActuatorProperties actuatorProperties):Actuator</text><ellipse cx="427.5" cy="603.793" fill="#84BE84" rx="3" ry="3" style="stroke:#038048;stroke-width:1.0;"/><text fill="#000000" font-family="sans-serif" font-size="14" lengthAdjust="spacing" textLength="296" x="436.5" y="608.0898">isActuatorInList(ActuatorID actuatorID):boolean</text><ellipse cx="427.5" cy="622.4141" fill="#84BE84" rx="3" ry="3" style="stroke:#038048;stroke-width:1.0;"/><text fill="#000000" font-family="sans-serif" font-size="14" lengthAdjust="spacing" textLength="959" x="436.5" y="626.7109">createSensorAndAddToDevice(SensorID sensorID, SensorCatalogue sensorCatalogue, String sensorClass, SensorProperties sensorProperties):Sensor</text><ellipse cx="427.5" cy="641.0352" fill="#84BE84" rx="3" ry="3" style="stroke:#038048;stroke-width:1.0;"/><text fill="#000000" font-family="sans-serif" font-size="14" lengthAdjust="spacing" textLength="271" x="436.5" y="645.332">isSensorInList(SensorID sensorID):boolean</text><ellipse cx="427.5" cy="659.6563" fill="#84BE84" rx="3" ry="3" style="stroke:#038048;stroke-width:1.0;"/><text fill="#000000" font-family="sans-serif" font-size="14" lengthAdjust="spacing" textLength="619" x="436.5" y="663.9531">doesDeviceHaveSensorsOfSpecificFunctionality(SensorFunctionality sensorFunctionality):boolean</text><ellipse cx="427.5" cy="678.2773" fill="#84BE84" rx="3" ry="3" style="stroke:#038048;stroke-width:1.0;"/><text fill="#000000" font-family="sans-serif" font-size="14" lengthAdjust="spacing" textLength="134" x="436.5" y="682.5742">deactivate(): boolean</text><ellipse cx="427.5" cy="696.8984" fill="#84BE84" rx="3" ry="3" style="stroke:#038048;stroke-width:1.0;"/><text fill="#000000" font-family="sans-serif" font-size="14" lengthAdjust="spacing" textLength="117" x="436.5" y="701.1953">isActive(): boolean</text><ellipse cx="427.5" cy="715.5195" fill="#84BE84" rx="3" ry="3" style="stroke:#038048;stroke-width:1.0;"/><text fill="#000000" font-family="sans-serif" font-size="14" lengthAdjust="spacing" textLength="119" x="436.5" y="719.8164">identity(): DeviceID</text><ellipse cx="427.5" cy="734.1406" fill="#84BE84" rx="3" ry="3" style="stroke:#038048;stroke-width:1.0;"/><text fill="#000000" font-family="sans-serif" font-size="14" lengthAdjust="spacing" textLength="214" x="436.5" y="738.4375">isSameAs(Object object): boolean</text></g><!--class FactoryDevice--><g id="elem_FactoryDevice"><rect codeLine="58" fill="#F1F1F1" height="66.6211" id="FactoryDevice" rx="2.5" ry="2.5" style="stroke:#181818;stroke-width:0.5;" width="170" x="862" y="127.6348"/><ellipse cx="898.6" cy="143.6348" fill="#B4A7E5" rx="11" ry="11" style="stroke:#181818;stroke-width:1.0;"/><path d="M899.5531,140.2754 L899.5531,146.9316 L901.2719,146.9316 Q901.8813,146.9316 902.1469,147.166 Q902.4125,147.4004 902.4125,147.791 Q902.4125,148.166 902.1469,148.4004 Q901.8813,148.6348 901.2719,148.6348 L896.1313,148.6348 Q895.5219,148.6348 895.2563,148.4004 Q894.9906,148.166 894.9906,147.7754 Q894.9906,147.4004 895.2563,147.166 Q895.5219,146.9316 896.1313,146.9316 L897.85,146.9316 L897.85,140.2754 L896.1313,140.2754 Q895.5219,140.2754 895.2563,140.041 Q894.9906,139.8066 894.9906,139.416 Q894.9906,139.041 895.2563,138.8066 Q895.5219,138.5723 896.1313,138.5723 L901.2719,138.5723 Q901.8813,138.5723 902.1469,138.8066 Q902.4125,139.041 902.4125,139.416 Q902.4125,139.8066 902.1469,140.041 Q901.8813,140.2754 901.2719,140.2754 L899.5531,140.2754 Z " fill="#000000"/><text fill="#000000" font-family="sans-serif" font-size="14" font-style="italic" lengthAdjust="spacing" textLength="90" x="917.4" y="149.4316">FactoryDevice</text><line style="stroke:#181818;stroke-width:0.5;" x1="863" x2="1031" y1="159.6348" y2="159.6348"/><line style="stroke:#181818;stroke-width:0.5;" x1="863" x2="1031" y1="167.6348" y2="167.6348"/><ellipse cx="873" cy="182.4453" fill="#84BE84" rx="3" ry="3" style="stroke:#038048;stroke-width:1.0;"/><text fill="#000000" font-family="sans-serif" font-size="14" lengthAdjust="spacing" textLength="144" x="882" y="186.7422">createDevice(): Device</text></g><!--class ImpDeviceFactory--><g id="elem_ImpDeviceFactory"><rect codeLine="62" fill="#F1F1F1" height="66.6211" id="ImpDeviceFactory" rx="2.5" ry="2.5" style="stroke:#181818;stroke-width:0.5;" width="166" x="864" y="291.6348"/><ellipse cx="888.45" cy="307.6348" fill="#ADD1B2" rx="11" ry="11" style="stroke:#181818;stroke-width:1.0;"/><path d="M891.2156,303.5098 Q891.3719,303.291 891.5594,303.1816 Q891.7469,303.0723 891.9656,303.0723 Q892.3406,303.0723 892.575,303.3379 Q892.8094,303.5879 892.8094,304.1973 L892.8094,305.6504 Q892.8094,306.2598 892.575,306.5254 Q892.3406,306.791 891.9656,306.791 Q891.6219,306.791 891.4188,306.5879 Q891.2156,306.4004 891.1063,305.8848 Q891.0594,305.5254 890.8719,305.3379 Q890.5438,304.9629 889.9344,304.7441 Q889.325,304.5254 888.7,304.5254 Q887.9344,304.5254 887.2938,304.8535 Q886.6688,305.1816 886.1688,305.9316 Q885.6844,306.6816 885.6844,307.7129 L885.6844,308.8066 Q885.6844,310.041 886.575,310.8691 Q887.4656,311.6816 889.0594,311.6816 Q889.9969,311.6816 890.6531,311.4316 Q891.0438,311.2754 891.4656,310.8379 Q891.7313,310.5723 891.8719,310.4941 Q892.0281,310.416 892.2313,310.416 Q892.5594,310.416 892.8094,310.6816 Q893.075,310.9316 893.075,311.2754 Q893.075,311.6191 892.7313,312.0254 Q892.2313,312.6035 891.4344,312.9316 Q890.3563,313.3848 889.0594,313.3848 Q887.5438,313.3848 886.3406,312.7598 Q885.3563,312.2598 884.6688,311.1973 Q883.9813,310.1191 883.9813,308.8379 L883.9813,307.6816 Q883.9813,306.3535 884.5906,305.2129 Q885.2156,304.0566 886.3094,303.4473 Q887.4031,302.8223 888.6375,302.8223 Q889.3719,302.8223 890.0125,302.9941 Q890.6688,303.1504 891.2156,303.5098 Z " fill="#000000"/><text fill="#000000" font-family="sans-serif" font-size="14" lengthAdjust="spacing" textLength="113" x="904.55" y="313.4316">ImpDeviceFactory</text><line style="stroke:#181818;stroke-width:0.5;" x1="865" x2="1029" y1="323.6348" y2="323.6348"/><line style="stroke:#181818;stroke-width:0.5;" x1="865" x2="1029" y1="331.6348" y2="331.6348"/><ellipse cx="875" cy="346.4453" fill="#84BE84" rx="3" ry="3" style="stroke:#038048;stroke-width:1.0;"/><text fill="#000000" font-family="sans-serif" font-size="14" lengthAdjust="spacing" textLength="140" x="884" y="350.7422">createDevice():Device</text></g><!--class DeviceID--><g id="elem_DeviceID"><rect codeLine="69" fill="#F1F1F1" height="66.6211" id="DeviceID" rx="2.5" ry="2.5" style="stroke:#181818;stroke-width:0.5;" width="148" x="717" y="822.6348"/><ellipse cx="749.55" cy="838.6348" fill="#ADD1B2" rx="11" ry="11" style="stroke:#181818;stroke-width:1.0;"/><path d="M752.3156,834.5098 Q752.4719,834.291 752.6594,834.1816 Q752.8469,834.0723 753.0656,834.0723 Q753.4406,834.0723 753.675,834.3379 Q753.9094,834.5879 753.9094,835.1973 L753.9094,836.6504 Q753.9094,837.2598 753.675,837.5254 Q753.4406,837.791 753.0656,837.791 Q752.7219,837.791 752.5188,837.5879 Q752.3156,837.4004 752.2063,836.8848 Q752.1594,836.5254 751.9719,836.3379 Q751.6438,835.9629 751.0344,835.7441 Q750.425,835.5254 749.8,835.5254 Q749.0344,835.5254 748.3938,835.8535 Q747.7688,836.1816 747.2688,836.9316 Q746.7844,837.6816 746.7844,838.7129 L746.7844,839.8066 Q746.7844,841.041 747.675,841.8691 Q748.5656,842.6816 750.1594,842.6816 Q751.0969,842.6816 751.7531,842.4316 Q752.1438,842.2754 752.5656,841.8379 Q752.8313,841.5723 752.9719,841.4941 Q753.1281,841.416 753.3313,841.416 Q753.6594,841.416 753.9094,841.6816 Q754.175,841.9316 754.175,842.2754 Q754.175,842.6191 753.8313,843.0254 Q753.3313,843.6035 752.5344,843.9316 Q751.4563,844.3848 750.1594,844.3848 Q748.6438,844.3848 747.4406,843.7598 Q746.4563,843.2598 745.7688,842.1973 Q745.0813,841.1191 745.0813,839.8379 L745.0813,838.6816 Q745.0813,837.3535 745.6906,836.2129 Q746.3156,835.0566 747.4094,834.4473 Q748.5031,833.8223 749.7375,833.8223 Q750.4719,833.8223 751.1125,833.9941 Q751.7688,834.1504 752.3156,834.5098 Z " fill="#000000"/><text fill="#000000" font-family="sans-serif" font-size="14" lengthAdjust="spacing" textLength="56" x="767.45" y="844.4316">DeviceID</text><rect fill="#FFFFFF" height="17.9609" style="stroke:#181818;stroke-width:1.0;stroke-dasharray:2.0,2.0;" width="19" x="849" y="819.6348"/><text fill="#000000" font-family="sans-serif" font-size="12" font-style="italic" lengthAdjust="spacing" textLength="17" x="850" y="833.584">VO</text><line style="stroke:#181818;stroke-width:0.5;" x1="718" x2="864" y1="854.6348" y2="854.6348"/><rect fill="none" height="6" style="stroke:#C82930;stroke-width:1.0;" width="6" x="725" y="866.4453"/><text fill="#000000" font-family="sans-serif" font-size="14" lengthAdjust="spacing" textLength="122" x="737" y="873.7422">deviceName: String</text><line style="stroke:#181818;stroke-width:0.5;" x1="718" x2="864" y1="881.2559" y2="881.2559"/></g><!--class Model--><g id="elem_Model"><rect codeLine="72" fill="#F1F1F1" height="66.6211" id="Model" rx="2.5" ry="2.5" style="stroke:#181818;stroke-width:0.5;" width="109" x="1028.5" y="822.6348"/><ellipse cx="1051.6" cy="838.6348" fill="#ADD1B2" rx="11" ry="11" style="stroke:#181818;stroke-width:1.0;"/><path d="M1054.3656,834.5098 Q1054.5219,834.291 1054.7094,834.1816 Q1054.8969,834.0723 1055.1156,834.0723 Q1055.4906,834.0723 1055.725,834.3379 Q1055.9594,834.5879 1055.9594,835.1973 L1055.9594,836.6504 Q1055.9594,837.2598 1055.725,837.5254 Q1055.4906,837.791 1055.1156,837.791 Q1054.7719,837.791 1054.5688,837.5879 Q1054.3656,837.4004 1054.2563,836.8848 Q1054.2094,836.5254 1054.0219,836.3379 Q1053.6938,835.9629 1053.0844,835.7441 Q1052.475,835.5254 1051.85,835.5254 Q1051.0844,835.5254 1050.4438,835.8535 Q1049.8188,836.1816 1049.3188,836.9316 Q1048.8344,837.6816 1048.8344,838.7129 L1048.8344,839.8066 Q1048.8344,841.041 1049.725,841.8691 Q1050.6156,842.6816 1052.2094,842.6816 Q1053.1469,842.6816 1053.8031,842.4316 Q1054.1938,842.2754 1054.6156,841.8379 Q1054.8813,841.5723 1055.0219,841.4941 Q1055.1781,841.416 1055.3813,841.416 Q1055.7094,841.416 1055.9594,841.6816 Q1056.225,841.9316 1056.225,842.2754 Q1056.225,842.6191 1055.8813,843.0254 Q1055.3813,843.6035 1054.5844,843.9316 Q1053.5063,844.3848 1052.2094,844.3848 Q1050.6938,844.3848 1049.4906,843.7598 Q1048.5063,843.2598 1047.8188,842.1973 Q1047.1313,841.1191 1047.1313,839.8379 L1047.1313,838.6816 Q1047.1313,837.3535 1047.7406,836.2129 Q1048.3656,835.0566 1049.4594,834.4473 Q1050.5531,833.8223 1051.7875,833.8223 Q1052.5219,833.8223 1053.1625,833.9941 Q1053.8188,834.1504 1054.3656,834.5098 Z " fill="#000000"/><text fill="#000000" font-family="sans-serif" font-size="14" lengthAdjust="spacing" textLength="38" x="1067.4" y="844.4316">Model</text><rect fill="#FFFFFF" height="17.9609" style="stroke:#181818;stroke-width:1.0;stroke-dasharray:2.0,2.0;" width="19" x="1121.5" y="819.6348"/><text fill="#000000" font-family="sans-serif" font-size="12" font-style="italic" lengthAdjust="spacing" textLength="17" x="1122.5" y="833.584">VO</text><line style="stroke:#181818;stroke-width:0.5;" x1="1029.5" x2="1136.5" y1="854.6348" y2="854.6348"/><rect fill="none" height="6" style="stroke:#C82930;stroke-width:1.0;" width="6" x="1036.5" y="866.4453"/><text fill="#000000" font-family="sans-serif" font-size="14" lengthAdjust="spacing" textLength="83" x="1048.5" y="873.7422">model: String</text><line style="stroke:#181818;stroke-width:0.5;" x1="1029.5" x2="1136.5" y1="881.2559" y2="881.2559"/></g><!--class Status--><g id="elem_Status"><rect codeLine="75" fill="#F1F1F1" height="48" id="Status" rx="2.5" ry="2.5" style="stroke:#181818;stroke-width:0.5;" width="93" x="900.5" y="832.1348"/><ellipse cx="915.5" cy="848.1348" fill="#EB937F" rx="11" ry="11" style="stroke:#181818;stroke-width:1.0;"/><path d="M914.3594,848.9316 L914.3594,851.4316 L918.6875,851.4316 L918.6875,850.5098 Q918.6875,849.9004 918.9219,849.6348 Q919.1719,849.3691 919.5469,849.3691 Q919.9219,849.3691 920.1563,849.6348 Q920.3906,849.9004 920.3906,850.5098 L920.3906,853.1348 L912.3906,853.1348 Q911.7656,853.1348 911.5,852.9004 Q911.25,852.666 911.25,852.2754 Q911.25,851.9004 911.5156,851.666 Q911.7813,851.4316 912.3906,851.4316 L912.6563,851.4316 L912.6563,844.7754 L912.3906,844.7754 Q911.7656,844.7754 911.5,844.541 Q911.25,844.3066 911.25,843.916 Q911.25,843.541 911.5,843.3066 Q911.7656,843.0723 912.3906,843.0723 L920.0156,843.0723 L920.0156,845.666 Q920.0156,846.2754 919.7813,846.541 Q919.5625,846.791 919.1719,846.791 Q918.7969,846.791 918.5625,846.541 Q918.3281,846.2754 918.3281,845.666 L918.3281,844.7754 L914.3594,844.7754 L914.3594,847.2285 L915.8438,847.2285 Q915.8438,846.5723 915.9688,846.3848 Q916.2344,845.9785 916.7031,845.9785 Q917.0781,845.9785 917.3125,846.2441 Q917.5469,846.4941 917.5469,847.1035 L917.5469,849.0723 Q917.5469,849.6191 917.4219,849.8066 Q917.1563,850.1973 916.7031,850.1973 Q916.2344,850.1973 915.9688,849.791 Q915.8438,849.6035 915.8438,848.9316 L914.3594,848.9316 Z " fill="#000000"/><text fill="#000000" font-family="sans-serif" font-size="14" lengthAdjust="spacing" textLength="40" x="929.5" y="853.9316">Status</text><rect fill="#FFFFFF" height="17.9609" style="stroke:#181818;stroke-width:1.0;stroke-dasharray:2.0,2.0;" width="19" x="977.5" y="829.1348"/><text fill="#000000" font-family="sans-serif" font-size="12" font-style="italic" lengthAdjust="spacing" textLength="17" x="978.5" y="843.084">VO</text><line style="stroke:#181818;stroke-width:0.5;" x1="901.5" x2="992.5" y1="864.1348" y2="864.1348"/><line style="stroke:#181818;stroke-width:0.5;" x1="901.5" x2="992.5" y1="872.1348" y2="872.1348"/></g><!--reverse link ValueObject to DomainID--><g id="link_ValueObject_DomainID"><path d="M863.25,1076.8748 C863.25,1094.6548 863.25,1100.7148 863.25,1118.4748 " fill="none" id="ValueObject-backto-DomainID" style="stroke:#181818;stroke-width:1.0;"/><polygon fill="none" points="863.25,1058.8748,857.25,1076.8748,869.25,1076.8748,863.25,1058.8748" style="stroke:#181818;stroke-width:1.0;"/></g><!--reverse link DomainID to DomainEntity--><g id="link_DomainID_DomainEntity"><path d="M835,1184.7248 C835,1201.5748 835,1206.5248 835,1226.4348 " fill="none" id="DomainID-backto-DomainEntity" style="stroke:#181818;stroke-width:1.0;"/><polygon fill="none" points="835,1166.7248,829,1184.7248,841,1184.7248,835,1166.7248" style="stroke:#181818;stroke-width:1.0;"/></g><!--reverse link DomainEntity to AgreggateRoot--><g id="link_DomainEntity_AgreggateRoot"><path d="M834,1329.9648 C834,1349.7448 834,1354.5148 834,1371.3048 " fill="none" id="DomainEntity-backto-AgreggateRoot" style="stroke:#181818;stroke-width:1.0;"/><polygon fill="none" points="834,1311.9648,828,1329.9648,840,1329.9648,834,1311.9648" style="stroke:#181818;stroke-width:1.0;"/></g><!--reverse link AgreggateRoot to Repository--><g id="link_AgreggateRoot_Repository"><path d="M834,1437.9048 C834,1454.1948 834,1458.4148 834,1479.3648 " fill="none" id="AgreggateRoot-backto-Repository" style="stroke:#181818;stroke-width:1.0;"/><polygon fill="none" points="834,1419.9048,828,1437.9048,840,1437.9048,834,1419.9048" style="stroke:#181818;stroke-width:1.0;"/></g><!--link RepositoryDevice to Repository--><g id="link_RepositoryDevice_Repository"><path codeLine="34" d="M179,231.9148 C179,513.7148 179,1540.6348 179,1540.6348 C179,1540.6348 506.77,1540.6348 695.86,1540.6348 " fill="none" id="RepositoryDevice-to-Repository" style="stroke:#181818;stroke-width:1.0;stroke-dasharray:7.0,7.0;"/><polygon fill="none" points="713.86,1540.6348,695.86,1534.6348,695.86,1546.6348,713.86,1540.6348" style="stroke:#181818;stroke-width:1.0;"/></g><!--link RepositoryDevice to Device--><g id="link_RepositoryDevice_Device"><path codeLine="39" d="M336.1,213.6348 C469.44,213.6348 639.25,213.6348 639.25,213.6348 C639.25,213.6348 639.25,302.1348 639.25,400.6248 " fill="none" id="RepositoryDevice-to-Device" style="stroke:#181818;stroke-width:1.0;stroke-dasharray:7.0,7.0;"/><polygon fill="none" points="639.25,418.6248,645.25,400.6248,633.25,400.6248,639.25,418.6248" style="stroke:#181818;stroke-width:1.0;"/></g><!--reverse link FactoryDevice to ImpDeviceFactory--><g id="link_FactoryDevice_ImpDeviceFactory"><path d="M947,212.7148 C947,241.0148 947,263.3048 947,291.5948 " fill="none" id="FactoryDevice-backto-ImpDeviceFactory" style="stroke:#181818;stroke-width:1.0;stroke-dasharray:7.0,7.0;"/><polygon fill="none" points="947,194.7148,941,212.7148,953,212.7148,947,194.7148" style="stroke:#181818;stroke-width:1.0;"/></g><!--link ImpDeviceFactory to Device--><g id="link_ImpDeviceFactory_Device"><path codeLine="65" d="M947,358.7348 C947,375.0648 947,390.0048 947,412.5048 " fill="none" id="ImpDeviceFactory-to-Device" style="stroke:#181818;stroke-width:1.0;"/><polygon fill="#181818" points="947,418.5048,951,409.5048,947,413.5048,943,409.5048,947,418.5048" style="stroke:#181818;stroke-width:1.0;"/><text fill="#000000" font-family="sans-serif" font-size="13" lengthAdjust="spacing" textLength="57" x="889" y="384.6531">&#171;creates&#187;</text></g><!--link Device to DeviceID--><g id="link_Device_DeviceID"><path codeLine="78" d="M791,745.8748 C791,774.9048 791,796.2648 791,816.4748 " fill="none" id="Device-to-DeviceID" style="stroke:#181818;stroke-width:1.0;"/><polygon fill="#181818" points="791,822.4748,795,813.4748,791,817.4748,787,813.4748,791,822.4748" style="stroke:#181818;stroke-width:1.0;"/></g><!--link Device to Model--><g id="link_Device_Model"><path codeLine="79" d="M1083,745.8748 C1083,774.9048 1083,796.2648 1083,816.4748 " fill="none" id="Device-to-Model" style="stroke:#181818;stroke-width:1.0;"/><polygon fill="#181818" points="1083,822.4748,1087,813.4748,1083,817.4748,1079,813.4748,1083,822.4748" style="stroke:#181818;stroke-width:1.0;"/></g><!--link Device to Status--><g id="link_Device_Status"><path codeLine="80" d="M947,745.8748 C947,779.7048 947,805.2648 947,825.8848 " fill="none" id="Device-to-Status" style="stroke:#181818;stroke-width:1.0;"/><polygon fill="#181818" points="947,831.8848,951,822.8848,947,826.8848,943,822.8848,947,831.8848" style="stroke:#181818;stroke-width:1.0;"/></g><!--link Device to AgreggateRoot--><g id="link_Device_AgreggateRoot"><path codeLine="82" d="M1011,745.7848 C1011,983.3348 1011,1395.6348 1011,1395.6348 C1011,1395.6348 966.81,1395.6348 916.15,1395.6348 " fill="none" id="Device-to-AgreggateRoot" style="stroke:#181818;stroke-width:1.0;stroke-dasharray:7.0,7.0;"/><polygon fill="none" points="898.15,1395.6348,916.15,1401.6348,916.15,1389.6348,898.15,1395.6348" style="stroke:#181818;stroke-width:1.0;"/></g><!--link DeviceID to DomainID--><g id="link_DeviceID_DomainID"><path codeLine="83" d="M816.25,889.8448 C816.25,948.4148 816.25,1049.6048 816.25,1100.6048 " fill="none" id="DeviceID-to-DomainID" style="stroke:#181818;stroke-width:1.0;stroke-dasharray:7.0,7.0;"/><polygon fill="none" points="816.25,1118.6048,822.25,1100.6048,810.25,1100.6048,816.25,1118.6048" style="stroke:#181818;stroke-width:1.0;"/></g><!--link Model to ValueObject--><g id="link_Model_ValueObject"><path codeLine="84" d="M1028.2,885.6348 C986.36,885.6348 935.83,885.6348 935.83,885.6348 C935.83,885.6348 935.83,950.1448 935.83,992.3648 " fill="none" id="Model-to-ValueObject" style="stroke:#181818;stroke-width:1.0;stroke-dasharray:7.0,7.0;"/><polygon fill="none" points="935.83,1010.3648,941.83,992.3648,929.83,992.3648,935.83,1010.3648" style="stroke:#181818;stroke-width:1.0;"/></g><!--link Status to ValueObject--><g id="link_Status_ValueObject"><path codeLine="85" d="M918.17,880.2048 C918.17,914.2748 918.17,958.2048 918.17,992.3748 " fill="none" id="Status-to-ValueObject" style="stroke:#181818;stroke-width:1.0;stroke-dasharray:7.0,7.0;"/><polygon fill="none" points="918.17,1010.3748,924.17,992.3748,912.17,992.3748,918.17,1010.3748" style="stroke:#181818;stroke-width:1.0;"/></g><!--SRC=[ZLLDZvim4BtxL_ZMHDbaxoX2egMhHcgRQXFjtGkJhBjW8soYhcZ-UmUFCP1ajUK2VlFXzyOpnafR04_X93D8ZZKSXGNswSNQoaJtzrKXb6tAOfNfyZuhX37BN8fZBKfcNgMg17xnGYgmRnLmNTiNpIgHlOeZy3pFMoQLXVeWCk1FecXW-_mRCjkoCnjPKbqAgJOfXpyML6u-TFsghBHlmRsFRzb2vk1iitcqIN5fTgA4nCme6TVkDO-UjIv0g6bkfxwJ_wYrlKXEErwGUOHA6sbrFL2Pv6WPnsVHL3a2stedJZ3RSo8uZ_YUp0UfygGet0uI33Bd6zn1F1UmtiU33r7u_BP9PrWgcQFVjh9IAr44lqmhYspD3Tz1yZcSKDqBm7rRvevt98fwWgyxhxXbopJP9n7_8QerMJRfdU-R-8PG7ntKqlfZoPEC5xhxVI_KJq9kb60QDXJYIkfgjVeRZoh0HhNANH-qmzg5jEybyNAffg6Is1HT9Ntm9ktBWhswvANEeS02TozS6YjiOoA-Ss-sE8BjdR5W8Qx3oGNHaQzBWn2bMsGruDaacMq4Sasm_dc-rvHbriDO8X4-xtWFVn5M5FhOGB06v0xfrL8T1qidU0ZzLUiAwkwGWyS0pQFUhPlKG49zbyRUvZHChXUq0sMkv128WSP_84ltDGWnqtMGuN4IGK4Z2UO2m88xn5qqj1UHls8m8fvhC4Jq6yu9UPhjOLT19WyoUsXKHdtTNMDadc0-vmGRfmSibpnXRMQZPgVwojC5EDoMGoE-UsdocxVc0suNcj_VU7Gs_ZI6sSSuceTDMH7aWxaigm9A96F-9rz8TvLdkUmdB-BhDOMPEEvsxkVsrFrRI9AXzECPnIDRFsrZCYnfJ7zYDIBV80u_ZyBSUBaOxeFwERuA0DMKVffTW3SnVpiCtF4GHXWDy0ZmGtvcamjdykTXGOs_ZVmVaX5T0aT_MUPfNHiO-mS0]--></g></svg>