<?xml version="1.0" encoding="us-ascii" standalone="no"?><svg xmlns="http://www.w3.org/2000/svg" xmlns:xlink="http://www.w3.org/1999/xlink" contentStyleType="text/css" height="865px" preserveAspectRatio="none" style="width:2509px;height:865px;background:#FFFFFF;" version="1.1" viewBox="0 0 2509 865" width="2509px" zoomAndPan="magnify"><defs/><g><!--cluster repositories--><g id="cluster_repositories"><path d="M2156.5,23.0137 L2243.5,23.0137 A3.75,3.75 0 0 1 2246,25.5137 L2253,47.6348 L2499.5,47.6348 A2.5,2.5 0 0 1 2502,50.1348 L2502,214.5137 A2.5,2.5 0 0 1 2499.5,217.0137 L2156.5,217.0137 A2.5,2.5 0 0 1 2154,214.5137 L2154,25.5137 A2.5,2.5 0 0 1 2156.5,23.0137 " fill="none" style="stroke:#000000;stroke-width:1.5;"/><line style="stroke:#000000;stroke-width:1.5;" x1="2154" x2="2253" y1="47.6348" y2="47.6348"/><text fill="#000000" font-family="sans-serif" font-size="14" font-weight="bold" lengthAdjust="spacing" textLength="86" x="2158" y="40.1211">repositories</text></g><!--cluster domain--><g id="cluster_domain"><path d="M8.5,6.0137 L60.5,6.0137 A3.75,3.75 0 0 1 63,8.5137 L70,30.6348 L2127.5,30.6348 A2.5,2.5 0 0 1 2130,33.1348 L2130,855.5137 A2.5,2.5 0 0 1 2127.5,858.0137 L8.5,858.0137 A2.5,2.5 0 0 1 6,855.5137 L6,8.5137 A2.5,2.5 0 0 1 8.5,6.0137 " fill="none" style="stroke:#000000;stroke-width:1.5;"/><line style="stroke:#000000;stroke-width:1.5;" x1="6" x2="70" y1="30.6348" y2="30.6348"/><text fill="#000000" font-family="sans-serif" font-size="14" font-weight="bold" lengthAdjust="spacing" textLength="51" x="10" y="23.1211">domain</text></g><!--cluster sensor--><g id="cluster_sensor"><path d="M32.5,51.0137 L82.5,51.0137 A3.75,3.75 0 0 1 85,53.5137 L92,75.6348 L1074.5,75.6348 A2.5,2.5 0 0 1 1077,78.1348 L1077,770.0137 A2.5,2.5 0 0 1 1074.5,772.5137 L32.5,772.5137 A2.5,2.5 0 0 1 30,770.0137 L30,53.5137 A2.5,2.5 0 0 1 32.5,51.0137 " fill="none" style="stroke:#000000;stroke-width:1.5;"/><line style="stroke:#000000;stroke-width:1.5;" x1="30" x2="92" y1="75.6348" y2="75.6348"/><text fill="#000000" font-family="sans-serif" font-size="14" font-weight="bold" lengthAdjust="spacing" textLength="49" x="34" y="68.1211">sensor</text></g><!--cluster DewPointCelsiusSensorAggregate--><g id="cluster_DewPointCelsiusSensorAggregate"><path d="M609.5,241.0137 L851.5,241.0137 A3.75,3.75 0 0 1 854,243.5137 L861,265.6348 L1050.5,265.6348 A2.5,2.5 0 0 1 1053,268.1348 L1053,525.5137 A2.5,2.5 0 0 1 1050.5,528.0137 L609.5,528.0137 A2.5,2.5 0 0 1 607,525.5137 L607,243.5137 A2.5,2.5 0 0 1 609.5,241.0137 " fill="none" style="stroke:#000000;stroke-width:1.5;"/><line style="stroke:#000000;stroke-width:1.5;" x1="607" x2="861" y1="265.6348" y2="265.6348"/><text fill="#000000" font-family="sans-serif" font-size="14" font-weight="bold" lengthAdjust="spacing" textLength="241" x="611" y="258.1211">DewPointCelsiusSensorAggregate</text></g><!--cluster valueobjects--><g id="cluster_valueobjects"><path d="M1103.5,552.0137 L1195.5,552.0137 A3.75,3.75 0 0 1 1198,554.5137 L1205,576.6348 L2103.5,576.6348 A2.5,2.5 0 0 1 2106,579.1348 L2106,831.5137 A2.5,2.5 0 0 1 2103.5,834.0137 L1103.5,834.0137 A2.5,2.5 0 0 1 1101,831.5137 L1101,554.5137 A2.5,2.5 0 0 1 1103.5,552.0137 " fill="none" style="stroke:#000000;stroke-width:1.5;"/><line style="stroke:#000000;stroke-width:1.5;" x1="1101" x2="1205" y1="576.6348" y2="576.6348"/><text fill="#000000" font-family="sans-serif" font-size="14" font-weight="bold" lengthAdjust="spacing" textLength="91" x="1105" y="569.1211">valueobjects</text></g><!--cluster sensorvalues--><g id="cluster_sensorvalues"><path d="M1812.5,597.0137 L1909.5,597.0137 A3.75,3.75 0 0 1 1912,599.5137 L1919,621.6348 L2079.5,621.6348 A2.5,2.5 0 0 1 2082,624.1348 L2082,807.5137 A2.5,2.5 0 0 1 2079.5,810.0137 L1812.5,810.0137 A2.5,2.5 0 0 1 1810,807.5137 L1810,599.5137 A2.5,2.5 0 0 1 1812.5,597.0137 " fill="none" style="stroke:#000000;stroke-width:1.5;"/><line style="stroke:#000000;stroke-width:1.5;" x1="1810" x2="1919" y1="621.6348" y2="621.6348"/><text fill="#000000" font-family="sans-serif" font-size="14" font-weight="bold" lengthAdjust="spacing" textLength="96" x="1814" y="614.1211">sensorvalues</text></g><!--class SensorRepository--><g id="elem_SensorRepository"><rect codeLine="80" fill="#F1F1F1" height="141.1055" id="SensorRepository" rx="2.5" ry="2.5" style="stroke:#181818;stroke-width:0.5;" width="316" x="2170" y="60.0137"/><ellipse cx="2252.75" cy="76.0137" fill="#ADD1B2" rx="11" ry="11" style="stroke:#181818;stroke-width:1.0;"/><path d="M2255.5156,71.8887 Q2255.6719,71.6699 2255.8594,71.5605 Q2256.0469,71.4512 2256.2656,71.4512 Q2256.6406,71.4512 2256.875,71.7168 Q2257.1094,71.9668 2257.1094,72.5762 L2257.1094,74.0293 Q2257.1094,74.6387 2256.875,74.9043 Q2256.6406,75.1699 2256.2656,75.1699 Q2255.9219,75.1699 2255.7188,74.9668 Q2255.5156,74.7793 2255.4063,74.2637 Q2255.3594,73.9043 2255.1719,73.7168 Q2254.8438,73.3418 2254.2344,73.123 Q2253.625,72.9043 2253,72.9043 Q2252.2344,72.9043 2251.5938,73.2324 Q2250.9688,73.5605 2250.4688,74.3105 Q2249.9844,75.0605 2249.9844,76.0918 L2249.9844,77.1855 Q2249.9844,78.4199 2250.875,79.248 Q2251.7656,80.0605 2253.3594,80.0605 Q2254.2969,80.0605 2254.9531,79.8105 Q2255.3438,79.6543 2255.7656,79.2168 Q2256.0313,78.9512 2256.1719,78.873 Q2256.3281,78.7949 2256.5313,78.7949 Q2256.8594,78.7949 2257.1094,79.0605 Q2257.375,79.3105 2257.375,79.6543 Q2257.375,79.998 2257.0313,80.4043 Q2256.5313,80.9824 2255.7344,81.3105 Q2254.6563,81.7637 2253.3594,81.7637 Q2251.8438,81.7637 2250.6406,81.1387 Q2249.6563,80.6387 2248.9688,79.5762 Q2248.2813,78.498 2248.2813,77.2168 L2248.2813,76.0605 Q2248.2813,74.7324 2248.8906,73.5918 Q2249.5156,72.4355 2250.6094,71.8262 Q2251.7031,71.2012 2252.9375,71.2012 Q2253.6719,71.2012 2254.3125,71.373 Q2254.9688,71.5293 2255.5156,71.8887 Z " fill="#000000"/><text fill="#000000" font-family="sans-serif" font-size="14" lengthAdjust="spacing" textLength="113" x="2273.25" y="81.8105">SensorRepository</text><rect fill="#FFFFFF" height="17.9609" style="stroke:#181818;stroke-width:1.0;stroke-dasharray:2.0,2.0;" width="27" x="2462" y="57.0137"/><text fill="#000000" font-family="sans-serif" font-size="12" font-style="italic" lengthAdjust="spacing" textLength="25" x="2463" y="70.9629">repo</text><line style="stroke:#181818;stroke-width:0.5;" x1="2171" x2="2485" y1="92.0137" y2="92.0137"/><rect fill="none" height="6" style="stroke:#C82930;stroke-width:1.0;" width="6" x="2178" y="103.8242"/><text fill="#000000" font-family="sans-serif" font-size="14" lengthAdjust="spacing" textLength="213" x="2190" y="111.1211">Map&lt;SensorID, Sensor&gt; dataMap</text><line style="stroke:#181818;stroke-width:0.5;" x1="2171" x2="2485" y1="118.6348" y2="118.6348"/><ellipse cx="2181" cy="133.4453" fill="#84BE84" rx="3" ry="3" style="stroke:#038048;stroke-width:1.0;"/><text fill="#000000" font-family="sans-serif" font-size="14" lengthAdjust="spacing" textLength="238" x="2190" y="137.7422">updateOrSave(Sensor entity): Sensor</text><ellipse cx="2181" cy="152.0664" fill="#84BE84" rx="3" ry="3" style="stroke:#038048;stroke-width:1.0;"/><text fill="#000000" font-family="sans-serif" font-size="14" lengthAdjust="spacing" textLength="210" x="2190" y="156.3633">findAllEntities(): Iterable&lt;Sensor&gt;</text><ellipse cx="2181" cy="170.6875" fill="#84BE84" rx="3" ry="3" style="stroke:#038048;stroke-width:1.0;"/><text fill="#000000" font-family="sans-serif" font-size="14" lengthAdjust="spacing" textLength="290" x="2190" y="174.9844">findEntityById(SensorID id): Optional&lt;Sensor&gt;</text><ellipse cx="2181" cy="189.3086" fill="#84BE84" rx="3" ry="3" style="stroke:#038048;stroke-width:1.0;"/><text fill="#000000" font-family="sans-serif" font-size="14" lengthAdjust="spacing" textLength="259" x="2190" y="193.6055">containsEntityByID(SensorID id): boolean</text></g><!--class FactorySensor--><g id="elem_FactorySensor"><rect codeLine="7" fill="#F1F1F1" height="85.2422" id="FactorySensor" rx="2.5" ry="2.5" style="stroke:#181818;stroke-width:0.5;" width="436" x="400" y="88.0137"/><ellipse cx="567.25" cy="104.0137" fill="#ADD1B2" rx="11" ry="11" style="stroke:#181818;stroke-width:1.0;"/><path d="M570.0156,99.8887 Q570.1719,99.6699 570.3594,99.5605 Q570.5469,99.4512 570.7656,99.4512 Q571.1406,99.4512 571.375,99.7168 Q571.6094,99.9668 571.6094,100.5762 L571.6094,102.0293 Q571.6094,102.6387 571.375,102.9043 Q571.1406,103.1699 570.7656,103.1699 Q570.4219,103.1699 570.2188,102.9668 Q570.0156,102.7793 569.9063,102.2637 Q569.8594,101.9043 569.6719,101.7168 Q569.3438,101.3418 568.7344,101.123 Q568.125,100.9043 567.5,100.9043 Q566.7344,100.9043 566.0938,101.2324 Q565.4688,101.5605 564.9688,102.3105 Q564.4844,103.0605 564.4844,104.0918 L564.4844,105.1855 Q564.4844,106.4199 565.375,107.248 Q566.2656,108.0605 567.8594,108.0605 Q568.7969,108.0605 569.4531,107.8105 Q569.8438,107.6543 570.2656,107.2168 Q570.5313,106.9512 570.6719,106.873 Q570.8281,106.7949 571.0313,106.7949 Q571.3594,106.7949 571.6094,107.0605 Q571.875,107.3105 571.875,107.6543 Q571.875,107.998 571.5313,108.4043 Q571.0313,108.9824 570.2344,109.3105 Q569.1563,109.7637 567.8594,109.7637 Q566.3438,109.7637 565.1406,109.1387 Q564.1563,108.6387 563.4688,107.5762 Q562.7813,106.498 562.7813,105.2168 L562.7813,104.0605 Q562.7813,102.7324 563.3906,101.5918 Q564.0156,100.4355 565.1094,99.8262 Q566.2031,99.2012 567.4375,99.2012 Q568.1719,99.2012 568.8125,99.373 Q569.4688,99.5293 570.0156,99.8887 Z " fill="#000000"/><text fill="#000000" font-family="sans-serif" font-size="14" lengthAdjust="spacing" textLength="93" x="587.75" y="109.8105">FactorySensor</text><line style="stroke:#181818;stroke-width:0.5;" x1="401" x2="835" y1="120.0137" y2="120.0137"/><rect fill="none" height="6" style="stroke:#C82930;stroke-width:1.0;" width="6" x="408" y="131.8242"/><text fill="#000000" font-family="sans-serif" font-size="14" lengthAdjust="spacing" textLength="167" x="420" y="139.1211">FactoryValue factoryValue</text><line style="stroke:#181818;stroke-width:0.5;" x1="401" x2="835" y1="146.6348" y2="146.6348"/><ellipse cx="411" cy="161.4453" fill="#84BE84" rx="3" ry="3" style="stroke:#038048;stroke-width:1.0;"/><text fill="#000000" font-family="sans-serif" font-size="14" lengthAdjust="spacing" textLength="410" x="420" y="165.7422">createSensor(sensorID, sensorFunctionalityID, deviceID): Sensor</text></g><!--class Sensor--><g id="elem_Sensor"><rect codeLine="11" fill="#F1F1F1" height="103.8633" id="Sensor" rx="2.5" ry="2.5" style="stroke:#181818;stroke-width:0.5;" width="327" x="54.5" y="343.0137"/><ellipse cx="191.25" cy="359.0137" fill="#B4A7E5" rx="11" ry="11" style="stroke:#181818;stroke-width:1.0;"/><path d="M192.2031,355.6543 L192.2031,362.3105 L193.9219,362.3105 Q194.5313,362.3105 194.7969,362.5449 Q195.0625,362.7793 195.0625,363.1699 Q195.0625,363.5449 194.7969,363.7793 Q194.5313,364.0137 193.9219,364.0137 L188.7813,364.0137 Q188.1719,364.0137 187.9063,363.7793 Q187.6406,363.5449 187.6406,363.1543 Q187.6406,362.7793 187.9063,362.5449 Q188.1719,362.3105 188.7813,362.3105 L190.5,362.3105 L190.5,355.6543 L188.7813,355.6543 Q188.1719,355.6543 187.9063,355.4199 Q187.6406,355.1855 187.6406,354.7949 Q187.6406,354.4199 187.9063,354.1855 Q188.1719,353.9512 188.7813,353.9512 L193.9219,353.9512 Q194.5313,353.9512 194.7969,354.1855 Q195.0625,354.4199 195.0625,354.7949 Q195.0625,355.1855 194.7969,355.4199 Q194.5313,355.6543 193.9219,355.6543 L192.2031,355.6543 Z " fill="#000000"/><text fill="#000000" font-family="sans-serif" font-size="14" font-style="italic" lengthAdjust="spacing" textLength="45" x="211.75" y="364.8105">Sensor</text><line style="stroke:#181818;stroke-width:0.5;" x1="55.5" x2="380.5" y1="375.0137" y2="375.0137"/><line style="stroke:#181818;stroke-width:0.5;" x1="55.5" x2="380.5" y1="383.0137" y2="383.0137"/><ellipse cx="65.5" cy="397.8242" fill="#84BE84" rx="3" ry="3" style="stroke:#038048;stroke-width:1.0;"/><text fill="#000000" font-family="sans-serif" font-size="14" lengthAdjust="spacing" textLength="156" x="74.5" y="402.1211">getSensorName(): String</text><ellipse cx="65.5" cy="416.4453" fill="#84BE84" rx="3" ry="3" style="stroke:#038048;stroke-width:1.0;"/><text fill="#000000" font-family="sans-serif" font-size="14" lengthAdjust="spacing" textLength="301" x="74.5" y="420.7422">getSensorFunctionality(): SensorFunctionalityID</text><ellipse cx="65.5" cy="435.0664" fill="#84BE84" rx="3" ry="3" style="stroke:#038048;stroke-width:1.0;"/><text fill="#000000" font-family="sans-serif" font-size="14" lengthAdjust="spacing" textLength="173" x="74.5" y="439.3633">getDeviceName(): DeviceID</text></g><!--class Value--><g id="elem_Value"><rect codeLine="16" fill="#F1F1F1" height="66.6211" id="Value" rx="2.5" ry="2.5" style="stroke:#181818;stroke-width:0.5;" width="189" x="871.5" y="97.0137"/><ellipse cx="943.75" cy="113.0137" fill="#B4A7E5" rx="11" ry="11" style="stroke:#181818;stroke-width:1.0;"/><path d="M944.7031,109.6543 L944.7031,116.3105 L946.4219,116.3105 Q947.0313,116.3105 947.2969,116.5449 Q947.5625,116.7793 947.5625,117.1699 Q947.5625,117.5449 947.2969,117.7793 Q947.0313,118.0137 946.4219,118.0137 L941.2813,118.0137 Q940.6719,118.0137 940.4063,117.7793 Q940.1406,117.5449 940.1406,117.1543 Q940.1406,116.7793 940.4063,116.5449 Q940.6719,116.3105 941.2813,116.3105 L943,116.3105 L943,109.6543 L941.2813,109.6543 Q940.6719,109.6543 940.4063,109.4199 Q940.1406,109.1855 940.1406,108.7949 Q940.1406,108.4199 940.4063,108.1855 Q940.6719,107.9512 941.2813,107.9512 L946.4219,107.9512 Q947.0313,107.9512 947.2969,108.1855 Q947.5625,108.4199 947.5625,108.7949 Q947.5625,109.1855 947.2969,109.4199 Q947.0313,109.6543 946.4219,109.6543 L944.7031,109.6543 Z " fill="#000000"/><text fill="#000000" font-family="sans-serif" font-size="14" font-style="italic" lengthAdjust="spacing" textLength="36" x="964.25" y="118.8105">Value</text><line style="stroke:#181818;stroke-width:0.5;" x1="872.5" x2="1059.5" y1="129.0137" y2="129.0137"/><line style="stroke:#181818;stroke-width:0.5;" x1="872.5" x2="1059.5" y1="137.0137" y2="137.0137"/><ellipse cx="882.5" cy="151.8242" fill="#84BE84" rx="3" ry="3" style="stroke:#038048;stroke-width:1.0;"/><text fill="#000000" font-family="sans-serif" font-size="14" lengthAdjust="spacing" textLength="163" x="891.5" y="156.1211">getValueWithUnit(): String</text></g><!--class SensorSpecificTimeLocation--><g id="elem_SensorSpecificTimeLocation"><rect codeLine="19" fill="#F1F1F1" height="85.2422" id="SensorSpecificTimeLocation" rx="2.5" ry="2.5" style="stroke:#181818;stroke-width:0.5;" width="344" x="46" y="671.5137"/><ellipse cx="124.25" cy="687.5137" fill="#B4A7E5" rx="11" ry="11" style="stroke:#181818;stroke-width:1.0;"/><path d="M125.2031,684.1543 L125.2031,690.8105 L126.9219,690.8105 Q127.5313,690.8105 127.7969,691.0449 Q128.0625,691.2793 128.0625,691.6699 Q128.0625,692.0449 127.7969,692.2793 Q127.5313,692.5137 126.9219,692.5137 L121.7813,692.5137 Q121.1719,692.5137 120.9063,692.2793 Q120.6406,692.0449 120.6406,691.6543 Q120.6406,691.2793 120.9063,691.0449 Q121.1719,690.8105 121.7813,690.8105 L123.5,690.8105 L123.5,684.1543 L121.7813,684.1543 Q121.1719,684.1543 120.9063,683.9199 Q120.6406,683.6855 120.6406,683.2949 Q120.6406,682.9199 120.9063,682.6855 Q121.1719,682.4512 121.7813,682.4512 L126.9219,682.4512 Q127.5313,682.4512 127.7969,682.6855 Q128.0625,682.9199 128.0625,683.2949 Q128.0625,683.6855 127.7969,683.9199 Q127.5313,684.1543 126.9219,684.1543 L125.2031,684.1543 Z " fill="#000000"/><text fill="#000000" font-family="sans-serif" font-size="14" font-style="italic" lengthAdjust="spacing" textLength="179" x="144.75" y="693.3105">SensorSpecificTimeLocation</text><line style="stroke:#181818;stroke-width:0.5;" x1="47" x2="389" y1="703.5137" y2="703.5137"/><line style="stroke:#181818;stroke-width:0.5;" x1="47" x2="389" y1="711.5137" y2="711.5137"/><ellipse cx="57" cy="735.6348" fill="#84BE84" rx="3" ry="3" style="stroke:#038048;stroke-width:1.0;"/><text fill="#000000" font-family="sans-serif" font-size="14" lengthAdjust="spacing" textLength="318" x="66" y="730.6211">getValueForSpecificTime(Timestamp specificTime,</text><text fill="#000000" font-family="sans-serif" font-size="14" lengthAdjust="spacing" textLength="174" x="70" y="749.2422">GPSCode gpsCode): String</text></g><!--class FactoryValue--><g id="elem_FactoryValue"><rect codeLine="37" fill="#F1F1F1" height="66.6211" id="FactoryValue" rx="2.5" ry="2.5" style="stroke:#181818;stroke-width:0.5;" width="636" x="425" y="680.5137"/><ellipse cx="696.75" cy="696.5137" fill="#ADD1B2" rx="11" ry="11" style="stroke:#181818;stroke-width:1.0;"/><path d="M699.5156,692.3887 Q699.6719,692.1699 699.8594,692.0605 Q700.0469,691.9512 700.2656,691.9512 Q700.6406,691.9512 700.875,692.2168 Q701.1094,692.4668 701.1094,693.0762 L701.1094,694.5293 Q701.1094,695.1387 700.875,695.4043 Q700.6406,695.6699 700.2656,695.6699 Q699.9219,695.6699 699.7188,695.4668 Q699.5156,695.2793 699.4063,694.7637 Q699.3594,694.4043 699.1719,694.2168 Q698.8438,693.8418 698.2344,693.623 Q697.625,693.4043 697,693.4043 Q696.2344,693.4043 695.5938,693.7324 Q694.9688,694.0605 694.4688,694.8105 Q693.9844,695.5605 693.9844,696.5918 L693.9844,697.6855 Q693.9844,698.9199 694.875,699.748 Q695.7656,700.5605 697.3594,700.5605 Q698.2969,700.5605 698.9531,700.3105 Q699.3438,700.1543 699.7656,699.7168 Q700.0313,699.4512 700.1719,699.373 Q700.3281,699.2949 700.5313,699.2949 Q700.8594,699.2949 701.1094,699.5605 Q701.375,699.8105 701.375,700.1543 Q701.375,700.498 701.0313,700.9043 Q700.5313,701.4824 699.7344,701.8105 Q698.6563,702.2637 697.3594,702.2637 Q695.8438,702.2637 694.6406,701.6387 Q693.6563,701.1387 692.9688,700.0762 Q692.2813,698.998 692.2813,697.7168 L692.2813,696.5605 Q692.2813,695.2324 692.8906,694.0918 Q693.5156,692.9355 694.6094,692.3262 Q695.7031,691.7012 696.9375,691.7012 Q697.6719,691.7012 698.3125,691.873 Q698.9688,692.0293 699.5156,692.3887 Z " fill="#000000"/><text fill="#000000" font-family="sans-serif" font-size="14" lengthAdjust="spacing" textLength="84" x="717.25" y="702.3105">FactoryValue</text><line style="stroke:#181818;stroke-width:0.5;" x1="426" x2="1060" y1="712.5137" y2="712.5137"/><line style="stroke:#181818;stroke-width:0.5;" x1="426" x2="1060" y1="720.5137" y2="720.5137"/><polygon fill="#FFFF44" points="436,730.3242,440,734.3242,436,738.3242,432,734.3242" style="stroke:#B38D22;stroke-width:1.0;"/><text fill="#000000" font-family="sans-serif" font-size="14" lengthAdjust="spacing" textLength="610" x="445" y="739.6211">createValueSpecificTime(String className, Timestamp specificTime, GPSCode gpsCode): Value</text></g><!--class DewPointCelsiusSensor--><g id="elem_DewPointCelsiusSensor"><rect codeLine="23" fill="#F1F1F1" height="234.2109" id="DewPointCelsiusSensor" rx="2.5" ry="2.5" style="stroke:#181818;stroke-width:0.5;" width="414" x="623" y="278.0137"/><ellipse cx="735.75" cy="294.0137" fill="#ADD1B2" rx="11" ry="11" style="stroke:#181818;stroke-width:1.0;"/><path d="M738.5156,289.8887 Q738.6719,289.6699 738.8594,289.5605 Q739.0469,289.4512 739.2656,289.4512 Q739.6406,289.4512 739.875,289.7168 Q740.1094,289.9668 740.1094,290.5762 L740.1094,292.0293 Q740.1094,292.6387 739.875,292.9043 Q739.6406,293.1699 739.2656,293.1699 Q738.9219,293.1699 738.7188,292.9668 Q738.5156,292.7793 738.4063,292.2637 Q738.3594,291.9043 738.1719,291.7168 Q737.8438,291.3418 737.2344,291.123 Q736.625,290.9043 736,290.9043 Q735.2344,290.9043 734.5938,291.2324 Q733.9688,291.5605 733.4688,292.3105 Q732.9844,293.0605 732.9844,294.0918 L732.9844,295.1855 Q732.9844,296.4199 733.875,297.248 Q734.7656,298.0605 736.3594,298.0605 Q737.2969,298.0605 737.9531,297.8105 Q738.3438,297.6543 738.7656,297.2168 Q739.0313,296.9512 739.1719,296.873 Q739.3281,296.7949 739.5313,296.7949 Q739.8594,296.7949 740.1094,297.0605 Q740.375,297.3105 740.375,297.6543 Q740.375,297.998 740.0313,298.4043 Q739.5313,298.9824 738.7344,299.3105 Q737.6563,299.7637 736.3594,299.7637 Q734.8438,299.7637 733.6406,299.1387 Q732.6563,298.6387 731.9688,297.5762 Q731.2813,296.498 731.2813,295.2168 L731.2813,294.0605 Q731.2813,292.7324 731.8906,291.5918 Q732.5156,290.4355 733.6094,289.8262 Q734.7031,289.2012 735.9375,289.2012 Q736.6719,289.2012 737.3125,289.373 Q737.9688,289.5293 738.5156,289.8887 Z " fill="#000000"/><text fill="#000000" font-family="sans-serif" font-size="14" lengthAdjust="spacing" textLength="150" x="756.25" y="299.8105">DewPointCelsiusSensor</text><rect fill="#FFFFFF" height="17.9609" style="stroke:#181818;stroke-width:1.0;stroke-dasharray:2.0,2.0;" width="28" x="1012" y="275.0137"/><text fill="#000000" font-family="sans-serif" font-size="12" font-style="italic" lengthAdjust="spacing" textLength="26" x="1013" y="288.9629">Root</text><line style="stroke:#181818;stroke-width:0.5;" x1="624" x2="1036" y1="310.0137" y2="310.0137"/><rect fill="none" height="6" style="stroke:#C82930;stroke-width:1.0;" width="6" x="631" y="321.8242"/><text fill="#000000" font-family="sans-serif" font-size="14" lengthAdjust="spacing" textLength="118" x="643" y="329.1211">SensorID sensorID</text><rect fill="none" height="6" style="stroke:#C82930;stroke-width:1.0;" width="6" x="631" y="340.4453"/><text fill="#000000" font-family="sans-serif" font-size="14" lengthAdjust="spacing" textLength="278" x="643" y="347.7422">SensorFunctionalityID sensorFunctionalityID</text><rect fill="none" height="6" style="stroke:#C82930;stroke-width:1.0;" width="6" x="631" y="359.0664"/><text fill="#000000" font-family="sans-serif" font-size="14" lengthAdjust="spacing" textLength="114" x="643" y="366.3633">DeviceID deviceID</text><rect fill="none" height="6" style="stroke:#C82930;stroke-width:1.0;" width="6" x="631" y="377.6875"/><text fill="#000000" font-family="sans-serif" font-size="14" lengthAdjust="spacing" textLength="167" x="643" y="384.9844">FactoryValue factoryValue</text><line style="stroke:#181818;stroke-width:0.5;" x1="624" x2="1036" y1="392.498" y2="392.498"/><ellipse cx="634" cy="407.3086" fill="#84BE84" rx="3" ry="3" style="stroke:#038048;stroke-width:1.0;"/><text fill="#000000" font-family="sans-serif" font-size="14" lengthAdjust="spacing" textLength="156" x="643" y="411.6055">getSensorName(): String</text><ellipse cx="634" cy="425.9297" fill="#84BE84" rx="3" ry="3" style="stroke:#038048;stroke-width:1.0;"/><text fill="#000000" font-family="sans-serif" font-size="14" lengthAdjust="spacing" textLength="301" x="643" y="430.2266">getSensorFunctionality(): SensorFunctionalityID</text><ellipse cx="634" cy="444.5508" fill="#84BE84" rx="3" ry="3" style="stroke:#038048;stroke-width:1.0;"/><text fill="#000000" font-family="sans-serif" font-size="14" lengthAdjust="spacing" textLength="214" x="643" y="448.8477">isSameAs(Object object): boolean</text><ellipse cx="634" cy="463.1719" fill="#84BE84" rx="3" ry="3" style="stroke:#038048;stroke-width:1.0;"/><text fill="#000000" font-family="sans-serif" font-size="14" lengthAdjust="spacing" textLength="173" x="643" y="467.4688">getDeviceName(): DeviceID</text><ellipse cx="634" cy="491.1035" fill="#84BE84" rx="3" ry="3" style="stroke:#038048;stroke-width:1.0;"/><text fill="#000000" font-family="sans-serif" font-size="14" lengthAdjust="spacing" textLength="388" x="643" y="486.0898">getValueAtSpecificTimeAndLocation(Timestamp specificTime,</text><text fill="#000000" font-family="sans-serif" font-size="14" lengthAdjust="spacing" textLength="174" x="647" y="504.7109">GPSCode gpsCode): String</text></g><!--class SensorID--><g id="elem_SensorID"><rect codeLine="43" fill="#F1F1F1" height="103.8633" id="SensorID" rx="2.5" ry="2.5" style="stroke:#181818;stroke-width:0.5;" width="220" x="1571" y="662.0137"/><ellipse cx="1637.25" cy="678.0137" fill="#ADD1B2" rx="11" ry="11" style="stroke:#181818;stroke-width:1.0;"/><path d="M1640.0156,673.8887 Q1640.1719,673.6699 1640.3594,673.5605 Q1640.5469,673.4512 1640.7656,673.4512 Q1641.1406,673.4512 1641.375,673.7168 Q1641.6094,673.9668 1641.6094,674.5762 L1641.6094,676.0293 Q1641.6094,676.6387 1641.375,676.9043 Q1641.1406,677.1699 1640.7656,677.1699 Q1640.4219,677.1699 1640.2188,676.9668 Q1640.0156,676.7793 1639.9063,676.2637 Q1639.8594,675.9043 1639.6719,675.7168 Q1639.3438,675.3418 1638.7344,675.123 Q1638.125,674.9043 1637.5,674.9043 Q1636.7344,674.9043 1636.0938,675.2324 Q1635.4688,675.5605 1634.9688,676.3105 Q1634.4844,677.0605 1634.4844,678.0918 L1634.4844,679.1855 Q1634.4844,680.4199 1635.375,681.248 Q1636.2656,682.0605 1637.8594,682.0605 Q1638.7969,682.0605 1639.4531,681.8105 Q1639.8438,681.6543 1640.2656,681.2168 Q1640.5313,680.9512 1640.6719,680.873 Q1640.8281,680.7949 1641.0313,680.7949 Q1641.3594,680.7949 1641.6094,681.0605 Q1641.875,681.3105 1641.875,681.6543 Q1641.875,681.998 1641.5313,682.4043 Q1641.0313,682.9824 1640.2344,683.3105 Q1639.1563,683.7637 1637.8594,683.7637 Q1636.3438,683.7637 1635.1406,683.1387 Q1634.1563,682.6387 1633.4688,681.5762 Q1632.7813,680.498 1632.7813,679.2168 L1632.7813,678.0605 Q1632.7813,676.7324 1633.3906,675.5918 Q1634.0156,674.4355 1635.1094,673.8262 Q1636.2031,673.2012 1637.4375,673.2012 Q1638.1719,673.2012 1638.8125,673.373 Q1639.4688,673.5293 1640.0156,673.8887 Z " fill="#000000"/><text fill="#000000" font-family="sans-serif" font-size="14" lengthAdjust="spacing" textLength="58" x="1657.75" y="683.8105">SensorID</text><rect fill="#FFFFFF" height="17.9609" style="stroke:#181818;stroke-width:1.0;stroke-dasharray:2.0,2.0;" width="19" x="1775" y="659.0137"/><text fill="#000000" font-family="sans-serif" font-size="12" font-style="italic" lengthAdjust="spacing" textLength="17" x="1776" y="672.9629">VO</text><line style="stroke:#181818;stroke-width:0.5;" x1="1572" x2="1790" y1="694.0137" y2="694.0137"/><rect fill="none" height="6" style="stroke:#C82930;stroke-width:1.0;" width="6" x="1579" y="705.8242"/><text fill="#000000" font-family="sans-serif" font-size="14" lengthAdjust="spacing" textLength="124" x="1591" y="713.1211">sensorName: String</text><line style="stroke:#181818;stroke-width:0.5;" x1="1572" x2="1790" y1="720.6348" y2="720.6348"/><ellipse cx="1582" cy="735.4453" fill="#84BE84" rx="3" ry="3" style="stroke:#038048;stroke-width:1.0;"/><text fill="#000000" font-family="sans-serif" font-size="14" lengthAdjust="spacing" textLength="156" x="1591" y="739.7422">getSensorName(): String</text><ellipse cx="1582" cy="754.0664" fill="#84BE84" rx="3" ry="3" style="stroke:#038048;stroke-width:1.0;"/><text fill="#000000" font-family="sans-serif" font-size="14" lengthAdjust="spacing" textLength="194" x="1591" y="758.3633">equals(Object object): boolean</text></g><!--class SensorFunctionalityID--><g id="elem_SensorFunctionalityID"><rect codeLine="49" fill="#F1F1F1" height="103.8633" id="SensorFunctionalityID" rx="2.5" ry="2.5" style="stroke:#181818;stroke-width:0.5;" width="194" x="1342" y="662.0137"/><ellipse cx="1358.35" cy="678.0137" fill="#ADD1B2" rx="11" ry="11" style="stroke:#181818;stroke-width:1.0;"/><path d="M1361.1156,673.8887 Q1361.2719,673.6699 1361.4594,673.5605 Q1361.6469,673.4512 1361.8656,673.4512 Q1362.2406,673.4512 1362.475,673.7168 Q1362.7094,673.9668 1362.7094,674.5762 L1362.7094,676.0293 Q1362.7094,676.6387 1362.475,676.9043 Q1362.2406,677.1699 1361.8656,677.1699 Q1361.5219,677.1699 1361.3188,676.9668 Q1361.1156,676.7793 1361.0063,676.2637 Q1360.9594,675.9043 1360.7719,675.7168 Q1360.4438,675.3418 1359.8344,675.123 Q1359.225,674.9043 1358.6,674.9043 Q1357.8344,674.9043 1357.1938,675.2324 Q1356.5688,675.5605 1356.0688,676.3105 Q1355.5844,677.0605 1355.5844,678.0918 L1355.5844,679.1855 Q1355.5844,680.4199 1356.475,681.248 Q1357.3656,682.0605 1358.9594,682.0605 Q1359.8969,682.0605 1360.5531,681.8105 Q1360.9438,681.6543 1361.3656,681.2168 Q1361.6313,680.9512 1361.7719,680.873 Q1361.9281,680.7949 1362.1313,680.7949 Q1362.4594,680.7949 1362.7094,681.0605 Q1362.975,681.3105 1362.975,681.6543 Q1362.975,681.998 1362.6313,682.4043 Q1362.1313,682.9824 1361.3344,683.3105 Q1360.2563,683.7637 1358.9594,683.7637 Q1357.4438,683.7637 1356.2406,683.1387 Q1355.2563,682.6387 1354.5688,681.5762 Q1353.8813,680.498 1353.8813,679.2168 L1353.8813,678.0605 Q1353.8813,676.7324 1354.4906,675.5918 Q1355.1156,674.4355 1356.2094,673.8262 Q1357.3031,673.2012 1358.5375,673.2012 Q1359.2719,673.2012 1359.9125,673.373 Q1360.5688,673.5293 1361.1156,673.8887 Z " fill="#000000"/><text fill="#000000" font-family="sans-serif" font-size="14" lengthAdjust="spacing" textLength="138" x="1372.65" y="683.8105">SensorFunctionalityID</text><rect fill="#FFFFFF" height="17.9609" style="stroke:#181818;stroke-width:1.0;stroke-dasharray:2.0,2.0;" width="19" x="1520" y="659.0137"/><text fill="#000000" font-family="sans-serif" font-size="12" font-style="italic" lengthAdjust="spacing" textLength="17" x="1521" y="672.9629">VO</text><line style="stroke:#181818;stroke-width:0.5;" x1="1343" x2="1535" y1="694.0137" y2="694.0137"/><rect fill="none" height="6" style="stroke:#C82930;stroke-width:1.0;" width="6" x="1350" y="705.8242"/><text fill="#000000" font-family="sans-serif" font-size="14" lengthAdjust="spacing" textLength="168" x="1362" y="713.1211">sensorFunctionality: String</text><line style="stroke:#181818;stroke-width:0.5;" x1="1343" x2="1535" y1="720.6348" y2="720.6348"/><ellipse cx="1353" cy="735.4453" fill="#84BE84" rx="3" ry="3" style="stroke:#038048;stroke-width:1.0;"/><text fill="#000000" font-family="sans-serif" font-size="14" lengthAdjust="spacing" textLength="164" x="1362" y="739.7422">equals(Object o): boolean</text><ellipse cx="1353" cy="754.0664" fill="#84BE84" rx="3" ry="3" style="stroke:#038048;stroke-width:1.0;"/><text fill="#000000" font-family="sans-serif" font-size="14" lengthAdjust="spacing" textLength="104" x="1362" y="758.3633">toString(): String</text></g><!--class DeviceID--><g id="elem_DeviceID"><rect codeLine="55" fill="#F1F1F1" height="141.1055" id="DeviceID" rx="2.5" ry="2.5" style="stroke:#181818;stroke-width:0.5;" width="190" x="1117" y="643.5137"/><ellipse cx="1169.25" cy="659.5137" fill="#ADD1B2" rx="11" ry="11" style="stroke:#181818;stroke-width:1.0;"/><path d="M1172.0156,655.3887 Q1172.1719,655.1699 1172.3594,655.0605 Q1172.5469,654.9512 1172.7656,654.9512 Q1173.1406,654.9512 1173.375,655.2168 Q1173.6094,655.4668 1173.6094,656.0762 L1173.6094,657.5293 Q1173.6094,658.1387 1173.375,658.4043 Q1173.1406,658.6699 1172.7656,658.6699 Q1172.4219,658.6699 1172.2188,658.4668 Q1172.0156,658.2793 1171.9063,657.7637 Q1171.8594,657.4043 1171.6719,657.2168 Q1171.3438,656.8418 1170.7344,656.623 Q1170.125,656.4043 1169.5,656.4043 Q1168.7344,656.4043 1168.0938,656.7324 Q1167.4688,657.0605 1166.9688,657.8105 Q1166.4844,658.5605 1166.4844,659.5918 L1166.4844,660.6855 Q1166.4844,661.9199 1167.375,662.748 Q1168.2656,663.5605 1169.8594,663.5605 Q1170.7969,663.5605 1171.4531,663.3105 Q1171.8438,663.1543 1172.2656,662.7168 Q1172.5313,662.4512 1172.6719,662.373 Q1172.8281,662.2949 1173.0313,662.2949 Q1173.3594,662.2949 1173.6094,662.5605 Q1173.875,662.8105 1173.875,663.1543 Q1173.875,663.498 1173.5313,663.9043 Q1173.0313,664.4824 1172.2344,664.8105 Q1171.1563,665.2637 1169.8594,665.2637 Q1168.3438,665.2637 1167.1406,664.6387 Q1166.1563,664.1387 1165.4688,663.0762 Q1164.7813,661.998 1164.7813,660.7168 L1164.7813,659.5605 Q1164.7813,658.2324 1165.3906,657.0918 Q1166.0156,655.9355 1167.1094,655.3262 Q1168.2031,654.7012 1169.4375,654.7012 Q1170.1719,654.7012 1170.8125,654.873 Q1171.4688,655.0293 1172.0156,655.3887 Z " fill="#000000"/><text fill="#000000" font-family="sans-serif" font-size="14" lengthAdjust="spacing" textLength="56" x="1189.75" y="665.3105">DeviceID</text><rect fill="#FFFFFF" height="17.9609" style="stroke:#181818;stroke-width:1.0;stroke-dasharray:2.0,2.0;" width="19" x="1291" y="640.5137"/><text fill="#000000" font-family="sans-serif" font-size="12" font-style="italic" lengthAdjust="spacing" textLength="17" x="1292" y="654.4629">VO</text><line style="stroke:#181818;stroke-width:0.5;" x1="1118" x2="1306" y1="675.5137" y2="675.5137"/><rect fill="none" height="6" style="stroke:#C82930;stroke-width:1.0;" width="6" x="1125" y="687.3242"/><text fill="#000000" font-family="sans-serif" font-size="14" lengthAdjust="spacing" textLength="122" x="1137" y="694.6211">deviceName: String</text><line style="stroke:#181818;stroke-width:0.5;" x1="1118" x2="1306" y1="702.1348" y2="702.1348"/><ellipse cx="1128" cy="716.9453" fill="#84BE84" rx="3" ry="3" style="stroke:#038048;stroke-width:1.0;"/><text fill="#000000" font-family="sans-serif" font-size="14" lengthAdjust="spacing" textLength="164" x="1137" y="721.2422">equals(Object o): boolean</text><ellipse cx="1128" cy="735.5664" fill="#84BE84" rx="3" ry="3" style="stroke:#038048;stroke-width:1.0;"/><text fill="#000000" font-family="sans-serif" font-size="14" lengthAdjust="spacing" textLength="98" x="1137" y="739.8633">hashCode(): int</text><ellipse cx="1128" cy="754.1875" fill="#84BE84" rx="3" ry="3" style="stroke:#038048;stroke-width:1.0;"/><text fill="#000000" font-family="sans-serif" font-size="14" lengthAdjust="spacing" textLength="104" x="1137" y="758.4844">toString(): String</text><ellipse cx="1128" cy="772.8086" fill="#84BE84" rx="3" ry="3" style="stroke:#038048;stroke-width:1.0;"/><text fill="#000000" font-family="sans-serif" font-size="14" lengthAdjust="spacing" textLength="154" x="1137" y="777.1055">getDeviceName(): String</text></g><!--class DewPointCelsiusSensorValue--><g id="elem_DewPointCelsiusSensorValue"><rect codeLine="64" fill="#F1F1F1" height="159.7266" id="DewPointCelsiusSensorValue" rx="2.5" ry="2.5" style="stroke:#181818;stroke-width:0.5;" width="239" x="1826.5" y="634.0137"/><ellipse cx="1841.5" cy="650.0137" fill="#ADD1B2" rx="11" ry="11" style="stroke:#181818;stroke-width:1.0;"/><path d="M1844.2656,645.8887 Q1844.4219,645.6699 1844.6094,645.5605 Q1844.7969,645.4512 1845.0156,645.4512 Q1845.3906,645.4512 1845.625,645.7168 Q1845.8594,645.9668 1845.8594,646.5762 L1845.8594,648.0293 Q1845.8594,648.6387 1845.625,648.9043 Q1845.3906,649.1699 1845.0156,649.1699 Q1844.6719,649.1699 1844.4688,648.9668 Q1844.2656,648.7793 1844.1563,648.2637 Q1844.1094,647.9043 1843.9219,647.7168 Q1843.5938,647.3418 1842.9844,647.123 Q1842.375,646.9043 1841.75,646.9043 Q1840.9844,646.9043 1840.3438,647.2324 Q1839.7188,647.5605 1839.2188,648.3105 Q1838.7344,649.0605 1838.7344,650.0918 L1838.7344,651.1855 Q1838.7344,652.4199 1839.625,653.248 Q1840.5156,654.0605 1842.1094,654.0605 Q1843.0469,654.0605 1843.7031,653.8105 Q1844.0938,653.6543 1844.5156,653.2168 Q1844.7813,652.9512 1844.9219,652.873 Q1845.0781,652.7949 1845.2813,652.7949 Q1845.6094,652.7949 1845.8594,653.0605 Q1846.125,653.3105 1846.125,653.6543 Q1846.125,653.998 1845.7813,654.4043 Q1845.2813,654.9824 1844.4844,655.3105 Q1843.4063,655.7637 1842.1094,655.7637 Q1840.5938,655.7637 1839.3906,655.1387 Q1838.4063,654.6387 1837.7188,653.5762 Q1837.0313,652.498 1837.0313,651.2168 L1837.0313,650.0605 Q1837.0313,648.7324 1837.6406,647.5918 Q1838.2656,646.4355 1839.3594,645.8262 Q1840.4531,645.2012 1841.6875,645.2012 Q1842.4219,645.2012 1843.0625,645.373 Q1843.7188,645.5293 1844.2656,645.8887 Z " fill="#000000"/><text fill="#000000" font-family="sans-serif" font-size="14" lengthAdjust="spacing" textLength="186" x="1855.5" y="655.8105">DewPointCelsiusSensorValue</text><rect fill="#FFFFFF" height="17.9609" style="stroke:#181818;stroke-width:1.0;stroke-dasharray:2.0,2.0;" width="19" x="2049.5" y="631.0137"/><text fill="#000000" font-family="sans-serif" font-size="12" font-style="italic" lengthAdjust="spacing" textLength="17" x="2050.5" y="644.9629">VO</text><line style="stroke:#181818;stroke-width:0.5;" x1="1827.5" x2="2064.5" y1="666.0137" y2="666.0137"/><rect fill="none" height="6" style="stroke:#C82930;stroke-width:1.0;" width="6" x="1834.5" y="677.8242"/><text fill="#000000" font-family="sans-serif" font-size="14" lengthAdjust="spacing" textLength="68" x="1846.5" y="685.1211">unit: String</text><rect fill="none" height="6" style="stroke:#C82930;stroke-width:1.0;" width="6" x="1834.5" y="696.4453"/><text fill="#000000" font-family="sans-serif" font-size="14" lengthAdjust="spacing" textLength="167" x="1846.5" y="703.7422">readingInstant: Timestamp</text><rect fill="none" height="6" style="stroke:#C82930;stroke-width:1.0;" width="6" x="1834.5" y="715.0664"/><text fill="#000000" font-family="sans-serif" font-size="14" lengthAdjust="spacing" textLength="128" x="1846.5" y="722.3633">gpsCode: GPSCode</text><line style="stroke:#181818;stroke-width:0.5;" x1="1827.5" x2="2064.5" y1="729.877" y2="729.877"/><ellipse cx="1837.5" cy="744.6875" fill="#84BE84" rx="3" ry="3" style="stroke:#038048;stroke-width:1.0;"/><text fill="#000000" font-family="sans-serif" font-size="14" lengthAdjust="spacing" textLength="163" x="1846.5" y="748.9844">getValueWithUnit(): String</text><ellipse cx="1837.5" cy="763.3086" fill="#84BE84" rx="3" ry="3" style="stroke:#038048;stroke-width:1.0;"/><text fill="#000000" font-family="sans-serif" font-size="14" lengthAdjust="spacing" textLength="164" x="1846.5" y="767.6055">equals(Object o): boolean</text><ellipse cx="1837.5" cy="781.9297" fill="#84BE84" rx="3" ry="3" style="stroke:#038048;stroke-width:1.0;"/><text fill="#000000" font-family="sans-serif" font-size="14" lengthAdjust="spacing" textLength="104" x="1846.5" y="786.2266">toString(): String</text></g><!--reverse link Sensor to SensorSpecificTimeLocation--><g id="link_Sensor_SensorSpecificTimeLocation"><path d="M218,465.3337 C218,527.9037 218,613.4337 218,671.3737 " fill="none" id="Sensor-backto-SensorSpecificTimeLocation" style="stroke:#181818;stroke-width:1.0;"/><polygon fill="none" points="218,447.3337,212,465.3337,224,465.3337,218,447.3337" style="stroke:#181818;stroke-width:1.0;"/></g><!--link DewPointCelsiusSensor to SensorSpecificTimeLocation--><g id="link_DewPointCelsiusSensor_SensorSpecificTimeLocation"><path codeLine="34" d="M622.83,480.0137 C507.01,480.0137 385.75,480.0137 385.75,480.0137 C385.75,480.0137 385.75,585.8737 385.75,653.3637 " fill="none" id="DewPointCelsiusSensor-to-SensorSpecificTimeLocation" style="stroke:#181818;stroke-width:1.0;stroke-dasharray:7.0,7.0;"/><polygon fill="none" points="385.75,671.3637,391.75,653.3637,379.75,653.3637,385.75,671.3637" style="stroke:#181818;stroke-width:1.0;"/></g><!--link FactorySensor to DewPointCelsiusSensor--><g id="link_FactorySensor_DewPointCelsiusSensor"><path codeLine="36" d="M729.5,173.3037 C729.5,201.7437 729.5,234.5737 729.5,271.7837 " fill="none" id="FactorySensor-to-DewPointCelsiusSensor" style="stroke:#181818;stroke-width:1.0;stroke-dasharray:7.0,7.0;"/><polygon fill="#181818" points="729.5,277.7837,733.5,268.7837,729.5,272.7837,725.5,268.7837,729.5,277.7837" style="stroke:#181818;stroke-width:1.0;"/></g><!--link DewPointCelsiusSensor to FactoryValue--><g id="link_DewPointCelsiusSensor_FactoryValue"><path codeLine="40" d="M830,512.4337 C830,572.3037 830,634.6937 830,674.4437 " fill="none" id="DewPointCelsiusSensor-to-FactoryValue" style="stroke:#181818;stroke-width:1.0;"/><polygon fill="#181818" points="830,680.4437,834,671.4437,830,675.4437,826,671.4437,830,680.4437" style="stroke:#181818;stroke-width:1.0;"/></g><!--link DewPointCelsiusSensor to SensorID--><g id="link_DewPointCelsiusSensor_SensorID"><path codeLine="48" d="M1037.07,337.0137 C1278.33,337.0137 1644.33,337.0137 1644.33,337.0137 C1644.33,337.0137 1644.33,552.5637 1644.33,655.9937 " fill="none" id="DewPointCelsiusSensor-to-SensorID" style="stroke:#181818;stroke-width:1.0;"/><polygon fill="#181818" points="1644.33,661.9937,1648.33,652.9937,1644.33,656.9937,1640.33,652.9937,1644.33,661.9937" style="stroke:#181818;stroke-width:1.0;"/></g><!--link DewPointCelsiusSensor to SensorFunctionalityID--><g id="link_DewPointCelsiusSensor_SensorFunctionalityID"><path codeLine="54" d="M1037.03,395.0137 C1213.58,395.0137 1439,395.0137 1439,395.0137 C1439,395.0137 1439,565.1937 1439,655.6937 " fill="none" id="DewPointCelsiusSensor-to-SensorFunctionalityID" style="stroke:#181818;stroke-width:1.0;"/><polygon fill="#181818" points="1439,661.6937,1443,652.6937,1439,656.6937,1435,652.6937,1439,661.6937" style="stroke:#181818;stroke-width:1.0;"/></g><!--link DewPointCelsiusSensor to DeviceID--><g id="link_DewPointCelsiusSensor_DeviceID"><path codeLine="62" d="M1037.21,454.0137 C1127.01,454.0137 1212,454.0137 1212,454.0137 C1212,454.0137 1212,560.3237 1212,637.3137 " fill="none" id="DewPointCelsiusSensor-to-DeviceID" style="stroke:#181818;stroke-width:1.0;"/><polygon fill="#181818" points="1212,643.3137,1216,634.3137,1212,638.3137,1208,634.3137,1212,643.3137" style="stroke:#181818;stroke-width:1.0;"/></g><!--link FactoryValue to DewPointCelsiusSensorValue--><g id="link_FactoryValue_DewPointCelsiusSensorValue"><path codeLine="72" d="M1044.83,680.5037 C1044.83,661.3137 1044.83,641.0137 1044.83,641.0137 C1044.83,641.0137 1575.2,641.0137 1820.33,641.0137 " fill="none" id="FactoryValue-to-DewPointCelsiusSensorValue" style="stroke:#181818;stroke-width:1.0;stroke-dasharray:7.0,7.0;"/><polygon fill="#181818" points="1826.33,641.0137,1817.33,637.0137,1821.33,641.0137,1817.33,645.0137,1826.33,641.0137" style="stroke:#181818;stroke-width:1.0;"/><text fill="#000000" font-family="sans-serif" font-size="13" lengthAdjust="spacing" textLength="57" x="1357.84" y="637.042">&#171;creates&#187;</text></g><!--link DewPointCelsiusSensorValue to Value--><g id="link_DewPointCelsiusSensorValue_Value"><path codeLine="73" d="M1826.45,638.0137 C1583.02,638.0137 1052.67,638.0137 1052.67,638.0137 C1052.67,638.0137 1052.67,295.5537 1052.67,182.2037 " fill="none" id="DewPointCelsiusSensorValue-to-Value" style="stroke:#181818;stroke-width:1.0;stroke-dasharray:7.0,7.0;"/><polygon fill="none" points="1052.67,164.2037,1046.67,182.2037,1058.67,182.2037,1052.67,164.2037" style="stroke:#181818;stroke-width:1.0;"/></g><!--link SensorRepository to SensorID--><g id="link_SensorRepository_SensorID"><path codeLine="87" d="M2169.63,192.0137 C1988.79,192.0137 1717.67,192.0137 1717.67,192.0137 C1717.67,192.0137 1717.67,523.2037 1717.67,655.5737 " fill="none" id="SensorRepository-to-SensorID" style="stroke:#181818;stroke-width:1.0;stroke-dasharray:7.0,7.0;"/><polygon fill="#181818" points="1717.67,661.5737,1721.67,652.5737,1717.67,656.5737,1713.67,652.5737,1717.67,661.5737" style="stroke:#181818;stroke-width:1.0;"/></g><!--link SensorRepository to DewPointCelsiusSensor--><g id="link_SensorRepository_DewPointCelsiusSensor"><path codeLine="88" d="M2169.74,183.0137 C1808.52,183.0137 954.25,183.0137 954.25,183.0137 C954.25,183.0137 954.25,222.8237 954.25,271.8537 " fill="none" id="SensorRepository-to-DewPointCelsiusSensor" style="stroke:#181818;stroke-width:1.0;stroke-dasharray:7.0,7.0;"/><polygon fill="#181818" points="954.25,277.8537,958.25,268.8537,954.25,272.8537,950.25,268.8537,954.25,277.8537" style="stroke:#181818;stroke-width:1.0;"/></g><!--SRC=[fLRRZjem47tdAqRg2nMN3q0e4jsK2gajgqsxVTaNamp1tM2diQ55BVzUEqu2JfoGbZnmyLmyCpxdnEALifHaP0y9PIXFAGBFv8uFKXA-aXWXmvGBAdb6KS3lmNbGMIA-9vIfDL1FkIYG2PuLY_e94o84B4ceKfo2kbK_azBwJ983mlRgZ-KtWZ138j4a6PgTLlwus7DvOA6ad964ofDUZl18GrpvRsTWGgfiv-eNPH8pjIE2ixGHn2YDvJFPur2daXbbSPkNLSImshbMMpFQpsijz_2BoZiBDjDor9iRlb6v-ygeT9JStdsGOaYtDFn2z_YHXqIN3FXB8ej4nu3o3PTs-51_24dsAOYhvV4BWm-FmGEF4E9KwE-k0ajK-VZpaQjg7p0Hz21CAOiupZ1MWAZLP13d387v4-VIgmKO40O5dg04LgjFxJJT-7D4byTQ8TFXquyA_R5vFpvD1Ye2jSb23DURxnXAuFcNIh3XF472t9lUW7KJHGjv3Q85YqeOteCd6rFwSODZEltZTJ31WKzRrgPJpvtPBOOk0hyfD2wtMNmoFPaCUg1ZQ9c8OnusW2xbkySmcNXMYODBKCd7erut410DhQ-8D7zUUmsj5nLYRsbff-BYZmD9RgEnJwz1dU_NRTIvtj6JvTglx1R-Z41o4zuftxTQQcDrAP256ZbRYYhctjd9ZeYTXg7kHDNQlyyM4VcFQJHqnxwiv60M_LyYXhUEgPd97THRjrMA9-e-HI9bMJ55NQOSAnOxV0i6pqfATmXdn_l-Ny-irydOUcefMgiCvkOPpET6uuJdtHRbCgLIPfUAdVM5jEskMkVoKsa-mLoxNf_V13wHT1vKTqhpouE8IA8iWyjW3gbQmtKMaADIPOCoP59Hh7dH7C6MicYH9E-rWwfAJtEbBbraas2ncrVppbrFxqwhQ5WfAOrKt3erP7R4XPn9THSNLQnVYxq-PpEvnaZqiLbIwFHmlz_EWxy0]--></g></svg>