<?xml version="1.0" encoding="us-ascii" standalone="no"?><svg xmlns="http://www.w3.org/2000/svg" xmlns:xlink="http://www.w3.org/1999/xlink" contentStyleType="text/css" height="1894px" preserveAspectRatio="none" style="width:1013px;height:1894px;background:#FFFFFF;" version="1.1" viewBox="0 0 1013 1894" width="1013px" zoomAndPan="magnify"><defs/><g><!--cluster ddd--><g id="cluster_ddd"><path d="M29.5,6.0137 L57.5,6.0137 A3.75,3.75 0 0 1 60,8.5137 L67,30.6348 L296.5,30.6348 A2.5,2.5 0 0 1 299,33.1348 L299,812.5137 A2.5,2.5 0 0 1 296.5,815.0137 L29.5,815.0137 A2.5,2.5 0 0 1 27,812.5137 L27,8.5137 A2.5,2.5 0 0 1 29.5,6.0137 " fill="none" style="stroke:#000000;stroke-width:1.5;"/><line style="stroke:#000000;stroke-width:1.5;" x1="27" x2="67" y1="30.6348" y2="30.6348"/><text fill="#000000" font-family="sans-serif" font-size="14" font-weight="bold" lengthAdjust="spacing" textLength="27" x="31" y="23.1211">ddd</text></g><!--cluster domain--><g id="cluster_domain"><path d="M372.5,604.0137 L424.5,604.0137 A3.75,3.75 0 0 1 427,606.5137 L434,628.6348 L972.5,628.6348 A2.5,2.5 0 0 1 975,631.1348 L975,1884.5137 A2.5,2.5 0 0 1 972.5,1887.0137 L372.5,1887.0137 A2.5,2.5 0 0 1 370,1884.5137 L370,606.5137 A2.5,2.5 0 0 1 372.5,604.0137 " fill="none" style="stroke:#000000;stroke-width:1.5;"/><line style="stroke:#000000;stroke-width:1.5;" x1="370" x2="434" y1="628.6348" y2="628.6348"/><text fill="#000000" font-family="sans-serif" font-size="14" font-weight="bold" lengthAdjust="spacing" textLength="51" x="374" y="621.1211">domain</text></g><!--cluster house--><g id="cluster_house"><path d="M396.5,649.0137 L441.5,649.0137 A3.75,3.75 0 0 1 444,651.5137 L451,673.6348 L929.5,673.6348 A2.5,2.5 0 0 1 932,676.1348 L932,1231.5137 A2.5,2.5 0 0 1 929.5,1234.0137 L396.5,1234.0137 A2.5,2.5 0 0 1 394,1231.5137 L394,651.5137 A2.5,2.5 0 0 1 396.5,649.0137 " fill="none" style="stroke:#000000;stroke-width:1.5;"/><line style="stroke:#000000;stroke-width:1.5;" x1="394" x2="451" y1="673.6348" y2="673.6348"/><text fill="#000000" font-family="sans-serif" font-size="14" font-weight="bold" lengthAdjust="spacing" textLength="44" x="398" y="666.1211">house</text></g><!--cluster valueobjects--><g id="cluster_valueobjects"><path d="M446.5,1258.0137 L538.5,1258.0137 A3.75,3.75 0 0 1 541,1260.5137 L548,1282.6348 L948.5,1282.6348 A2.5,2.5 0 0 1 951,1285.1348 L951,1860.5137 A2.5,2.5 0 0 1 948.5,1863.0137 L446.5,1863.0137 A2.5,2.5 0 0 1 444,1860.5137 L444,1260.5137 A2.5,2.5 0 0 1 446.5,1258.0137 " fill="none" style="stroke:#000000;stroke-width:1.5;"/><line style="stroke:#000000;stroke-width:1.5;" x1="444" x2="548" y1="1282.6348" y2="1282.6348"/><text fill="#000000" font-family="sans-serif" font-size="14" font-weight="bold" lengthAdjust="spacing" textLength="91" x="448" y="1275.1211">valueobjects</text></g><!--cluster repositories--><g id="cluster_repositories"><path d="M8.5,839.0137 L95.5,839.0137 A3.75,3.75 0 0 1 98,841.5137 L105,863.6348 L343.5,863.6348 A2.5,2.5 0 0 1 346,866.1348 L346,1030.5137 A2.5,2.5 0 0 1 343.5,1033.0137 L8.5,1033.0137 A2.5,2.5 0 0 1 6,1030.5137 L6,841.5137 A2.5,2.5 0 0 1 8.5,839.0137 " fill="none" style="stroke:#000000;stroke-width:1.5;"/><line style="stroke:#000000;stroke-width:1.5;" x1="6" x2="105" y1="863.6348" y2="863.6348"/><text fill="#000000" font-family="sans-serif" font-size="14" font-weight="bold" lengthAdjust="spacing" textLength="86" x="10" y="856.1211">repositories</text></g><!--cluster service--><g id="cluster_service"><path d="M333.5,367.0137 L387.5,367.0137 A3.75,3.75 0 0 1 390,369.5137 L397,391.6348 L922.5,391.6348 A2.5,2.5 0 0 1 925,394.1348 L925,577.5137 A2.5,2.5 0 0 1 922.5,580.0137 L333.5,580.0137 A2.5,2.5 0 0 1 331,577.5137 L331,369.5137 A2.5,2.5 0 0 1 333.5,367.0137 " fill="none" style="stroke:#000000;stroke-width:1.5;"/><line style="stroke:#000000;stroke-width:1.5;" x1="331" x2="397" y1="391.6348" y2="391.6348"/><text fill="#000000" font-family="sans-serif" font-size="14" font-weight="bold" lengthAdjust="spacing" textLength="53" x="335" y="384.1211">service</text></g><!--class ValueObject--><g id="elem_ValueObject"><rect codeLine="5" fill="#F1F1F1" height="48" id="ValueObject" rx="2.5" ry="2.5" style="stroke:#181818;stroke-width:0.5;" width="109" x="173.5" y="43.0137"/><ellipse cx="188.5" cy="59.0137" fill="#B4A7E5" rx="11" ry="11" style="stroke:#181818;stroke-width:1.0;"/><path d="M189.4531,55.6543 L189.4531,62.3105 L191.1719,62.3105 Q191.7813,62.3105 192.0469,62.5449 Q192.3125,62.7793 192.3125,63.1699 Q192.3125,63.5449 192.0469,63.7793 Q191.7813,64.0137 191.1719,64.0137 L186.0313,64.0137 Q185.4219,64.0137 185.1563,63.7793 Q184.8906,63.5449 184.8906,63.1543 Q184.8906,62.7793 185.1563,62.5449 Q185.4219,62.3105 186.0313,62.3105 L187.75,62.3105 L187.75,55.6543 L186.0313,55.6543 Q185.4219,55.6543 185.1563,55.4199 Q184.8906,55.1855 184.8906,54.7949 Q184.8906,54.4199 185.1563,54.1855 Q185.4219,53.9512 186.0313,53.9512 L191.1719,53.9512 Q191.7813,53.9512 192.0469,54.1855 Q192.3125,54.4199 192.3125,54.7949 Q192.3125,55.1855 192.0469,55.4199 Q191.7813,55.6543 191.1719,55.6543 L189.4531,55.6543 Z " fill="#000000"/><text fill="#000000" font-family="sans-serif" font-size="14" font-style="italic" lengthAdjust="spacing" textLength="77" x="202.5" y="64.8105">ValueObject</text><line style="stroke:#181818;stroke-width:0.5;" x1="174.5" x2="281.5" y1="75.0137" y2="75.0137"/><line style="stroke:#181818;stroke-width:0.5;" x1="174.5" x2="281.5" y1="83.0137" y2="83.0137"/></g><!--class DomainID--><g id="elem_DomainID"><rect codeLine="7" fill="#F1F1F1" height="48" id="DomainID" rx="2.5" ry="2.5" style="stroke:#181818;stroke-width:0.5;" width="94" x="181" y="151.0137"/><ellipse cx="196" cy="167.0137" fill="#B4A7E5" rx="11" ry="11" style="stroke:#181818;stroke-width:1.0;"/><path d="M196.9531,163.6543 L196.9531,170.3105 L198.6719,170.3105 Q199.2813,170.3105 199.5469,170.5449 Q199.8125,170.7793 199.8125,171.1699 Q199.8125,171.5449 199.5469,171.7793 Q199.2813,172.0137 198.6719,172.0137 L193.5313,172.0137 Q192.9219,172.0137 192.6563,171.7793 Q192.3906,171.5449 192.3906,171.1543 Q192.3906,170.7793 192.6563,170.5449 Q192.9219,170.3105 193.5313,170.3105 L195.25,170.3105 L195.25,163.6543 L193.5313,163.6543 Q192.9219,163.6543 192.6563,163.4199 Q192.3906,163.1855 192.3906,162.7949 Q192.3906,162.4199 192.6563,162.1855 Q192.9219,161.9512 193.5313,161.9512 L198.6719,161.9512 Q199.2813,161.9512 199.5469,162.1855 Q199.8125,162.4199 199.8125,162.7949 Q199.8125,163.1855 199.5469,163.4199 Q199.2813,163.6543 198.6719,163.6543 L196.9531,163.6543 Z " fill="#000000"/><text fill="#000000" font-family="sans-serif" font-size="14" font-style="italic" lengthAdjust="spacing" textLength="62" x="210" y="172.8105">DomainID</text><line style="stroke:#181818;stroke-width:0.5;" x1="182" x2="274" y1="183.0137" y2="183.0137"/><line style="stroke:#181818;stroke-width:0.5;" x1="182" x2="274" y1="191.0137" y2="191.0137"/></g><!--class DomainEntity--><g id="elem_DomainEntity"><rect codeLine="9" fill="#F1F1F1" height="85.2422" id="DomainEntity" rx="2.5" ry="2.5" style="stroke:#181818;stroke-width:0.5;" width="240" x="43" y="259.0137"/><ellipse cx="117.25" cy="275.0137" fill="#B4A7E5" rx="11" ry="11" style="stroke:#181818;stroke-width:1.0;"/><path d="M118.2031,271.6543 L118.2031,278.3105 L119.9219,278.3105 Q120.5313,278.3105 120.7969,278.5449 Q121.0625,278.7793 121.0625,279.1699 Q121.0625,279.5449 120.7969,279.7793 Q120.5313,280.0137 119.9219,280.0137 L114.7813,280.0137 Q114.1719,280.0137 113.9063,279.7793 Q113.6406,279.5449 113.6406,279.1543 Q113.6406,278.7793 113.9063,278.5449 Q114.1719,278.3105 114.7813,278.3105 L116.5,278.3105 L116.5,271.6543 L114.7813,271.6543 Q114.1719,271.6543 113.9063,271.4199 Q113.6406,271.1855 113.6406,270.7949 Q113.6406,270.4199 113.9063,270.1855 Q114.1719,269.9512 114.7813,269.9512 L119.9219,269.9512 Q120.5313,269.9512 120.7969,270.1855 Q121.0625,270.4199 121.0625,270.7949 Q121.0625,271.1855 120.7969,271.4199 Q120.5313,271.6543 119.9219,271.6543 L118.2031,271.6543 Z " fill="#000000"/><text fill="#000000" font-family="sans-serif" font-size="14" font-style="italic" lengthAdjust="spacing" textLength="83" x="137.75" y="280.8105">DomainEntity</text><line style="stroke:#181818;stroke-width:0.5;" x1="44" x2="282" y1="291.0137" y2="291.0137"/><line style="stroke:#181818;stroke-width:0.5;" x1="44" x2="282" y1="299.0137" y2="299.0137"/><ellipse cx="54" cy="313.8242" fill="#84BE84" rx="3" ry="3" style="stroke:#038048;stroke-width:1.0;"/><text fill="#000000" font-family="sans-serif" font-size="14" lengthAdjust="spacing" textLength="76" x="63" y="318.1211">identity(): ID</text><ellipse cx="54" cy="332.4453" fill="#84BE84" rx="3" ry="3" style="stroke:#038048;stroke-width:1.0;"/><text fill="#000000" font-family="sans-serif" font-size="14" lengthAdjust="spacing" textLength="214" x="63" y="336.7422">isSameAs(Object object): boolean</text></g><!--class AggregateRoot--><g id="elem_AggregateRoot"><rect codeLine="13" fill="#F1F1F1" height="48" id="AggregateRoot" rx="2.5" ry="2.5" style="stroke:#181818;stroke-width:0.5;" width="128" x="99" y="460.0137"/><ellipse cx="114" cy="476.0137" fill="#B4A7E5" rx="11" ry="11" style="stroke:#181818;stroke-width:1.0;"/><path d="M114.9531,472.6543 L114.9531,479.3105 L116.6719,479.3105 Q117.2813,479.3105 117.5469,479.5449 Q117.8125,479.7793 117.8125,480.1699 Q117.8125,480.5449 117.5469,480.7793 Q117.2813,481.0137 116.6719,481.0137 L111.5313,481.0137 Q110.9219,481.0137 110.6563,480.7793 Q110.3906,480.5449 110.3906,480.1543 Q110.3906,479.7793 110.6563,479.5449 Q110.9219,479.3105 111.5313,479.3105 L113.25,479.3105 L113.25,472.6543 L111.5313,472.6543 Q110.9219,472.6543 110.6563,472.4199 Q110.3906,472.1855 110.3906,471.7949 Q110.3906,471.4199 110.6563,471.1855 Q110.9219,470.9512 111.5313,470.9512 L116.6719,470.9512 Q117.2813,470.9512 117.5469,471.1855 Q117.8125,471.4199 117.8125,471.7949 Q117.8125,472.1855 117.5469,472.4199 Q117.2813,472.6543 116.6719,472.6543 L114.9531,472.6543 Z " fill="#000000"/><text fill="#000000" font-family="sans-serif" font-size="14" font-style="italic" lengthAdjust="spacing" textLength="96" x="128" y="481.8105">AggregateRoot</text><line style="stroke:#181818;stroke-width:0.5;" x1="100" x2="226" y1="492.0137" y2="492.0137"/><line style="stroke:#181818;stroke-width:0.5;" x1="100" x2="226" y1="500.0137" y2="500.0137"/></g><!--class Repository--><g id="elem_Repository"><rect codeLine="16" fill="#F1F1F1" height="122.4844" id="Repository" rx="2.5" ry="2.5" style="stroke:#181818;stroke-width:0.5;" width="240" x="43" y="677.0137"/><ellipse cx="124.75" cy="693.0137" fill="#B4A7E5" rx="11" ry="11" style="stroke:#181818;stroke-width:1.0;"/><path d="M125.7031,689.6543 L125.7031,696.3105 L127.4219,696.3105 Q128.0313,696.3105 128.2969,696.5449 Q128.5625,696.7793 128.5625,697.1699 Q128.5625,697.5449 128.2969,697.7793 Q128.0313,698.0137 127.4219,698.0137 L122.2813,698.0137 Q121.6719,698.0137 121.4063,697.7793 Q121.1406,697.5449 121.1406,697.1543 Q121.1406,696.7793 121.4063,696.5449 Q121.6719,696.3105 122.2813,696.3105 L124,696.3105 L124,689.6543 L122.2813,689.6543 Q121.6719,689.6543 121.4063,689.4199 Q121.1406,689.1855 121.1406,688.7949 Q121.1406,688.4199 121.4063,688.1855 Q121.6719,687.9512 122.2813,687.9512 L127.4219,687.9512 Q128.0313,687.9512 128.2969,688.1855 Q128.5625,688.4199 128.5625,688.7949 Q128.5625,689.1855 128.2969,689.4199 Q128.0313,689.6543 127.4219,689.6543 L125.7031,689.6543 Z " fill="#000000"/><text fill="#000000" font-family="sans-serif" font-size="14" font-style="italic" lengthAdjust="spacing" textLength="68" x="145.25" y="698.8105">Repository</text><line style="stroke:#181818;stroke-width:0.5;" x1="44" x2="282" y1="709.0137" y2="709.0137"/><line style="stroke:#181818;stroke-width:0.5;" x1="44" x2="282" y1="717.0137" y2="717.0137"/><ellipse cx="54" cy="731.8242" fill="#84BE84" rx="3" ry="3" style="stroke:#038048;stroke-width:1.0;"/><text fill="#000000" font-family="sans-serif" font-size="14" lengthAdjust="spacing" textLength="166" x="63" y="736.1211">updateOrSave(T entity): T</text><ellipse cx="54" cy="750.4453" fill="#84BE84" rx="3" ry="3" style="stroke:#038048;stroke-width:1.0;"/><text fill="#000000" font-family="sans-serif" font-size="14" lengthAdjust="spacing" textLength="174" x="63" y="754.7422">findAllEntities(): Iterable&lt;T&gt;</text><ellipse cx="54" cy="769.0664" fill="#84BE84" rx="3" ry="3" style="stroke:#038048;stroke-width:1.0;"/><text fill="#000000" font-family="sans-serif" font-size="14" lengthAdjust="spacing" textLength="211" x="63" y="773.3633">findEntityByID(ID id): Optional&lt;T&gt;</text><ellipse cx="54" cy="787.6875" fill="#84BE84" rx="3" ry="3" style="stroke:#038048;stroke-width:1.0;"/><text fill="#000000" font-family="sans-serif" font-size="14" lengthAdjust="spacing" textLength="214" x="63" y="791.9844">containsEntityByID(ID id): boolean</text></g><!--class House--><g id="elem_House"><rect codeLine="38" fill="#F1F1F1" height="141.1055" id="House" rx="2.5" ry="2.5" style="stroke:#181818;stroke-width:0.5;" width="411" x="423.5" y="1077.0137"/><ellipse cx="592.25" cy="1093.0137" fill="#ADD1B2" rx="11" ry="11" style="stroke:#181818;stroke-width:1.0;"/><path d="M595.0156,1088.8887 Q595.1719,1088.6699 595.3594,1088.5605 Q595.5469,1088.4512 595.7656,1088.4512 Q596.1406,1088.4512 596.375,1088.7168 Q596.6094,1088.9668 596.6094,1089.5762 L596.6094,1091.0293 Q596.6094,1091.6387 596.375,1091.9043 Q596.1406,1092.1699 595.7656,1092.1699 Q595.4219,1092.1699 595.2188,1091.9668 Q595.0156,1091.7793 594.9063,1091.2637 Q594.8594,1090.9043 594.6719,1090.7168 Q594.3438,1090.3418 593.7344,1090.123 Q593.125,1089.9043 592.5,1089.9043 Q591.7344,1089.9043 591.0938,1090.2324 Q590.4688,1090.5605 589.9688,1091.3105 Q589.4844,1092.0605 589.4844,1093.0918 L589.4844,1094.1855 Q589.4844,1095.4199 590.375,1096.248 Q591.2656,1097.0605 592.8594,1097.0605 Q593.7969,1097.0605 594.4531,1096.8105 Q594.8438,1096.6543 595.2656,1096.2168 Q595.5313,1095.9512 595.6719,1095.873 Q595.8281,1095.7949 596.0313,1095.7949 Q596.3594,1095.7949 596.6094,1096.0605 Q596.875,1096.3105 596.875,1096.6543 Q596.875,1096.998 596.5313,1097.4043 Q596.0313,1097.9824 595.2344,1098.3105 Q594.1563,1098.7637 592.8594,1098.7637 Q591.3438,1098.7637 590.1406,1098.1387 Q589.1563,1097.6387 588.4688,1096.5762 Q587.7813,1095.498 587.7813,1094.2168 L587.7813,1093.0605 Q587.7813,1091.7324 588.3906,1090.5918 Q589.0156,1089.4355 590.1094,1088.8262 Q591.2031,1088.2012 592.4375,1088.2012 Q593.1719,1088.2012 593.8125,1088.373 Q594.4688,1088.5293 595.0156,1088.8887 Z " fill="#000000"/><text fill="#000000" font-family="sans-serif" font-size="14" lengthAdjust="spacing" textLength="40" x="612.75" y="1098.8105">House</text><rect fill="#FFFFFF" height="17.9609" style="stroke:#181818;stroke-width:1.0;stroke-dasharray:2.0,2.0;" width="23" x="814.5" y="1074.0137"/><text fill="#000000" font-family="sans-serif" font-size="12" font-style="italic" lengthAdjust="spacing" textLength="21" x="815.5" y="1087.9629">root</text><line style="stroke:#181818;stroke-width:0.5;" x1="424.5" x2="833.5" y1="1109.0137" y2="1109.0137"/><rect fill="none" height="6" style="stroke:#C82930;stroke-width:1.0;" width="6" x="431.5" y="1120.8242"/><text fill="#000000" font-family="sans-serif" font-size="14" lengthAdjust="spacing" textLength="113" x="443.5" y="1128.1211">houseID: HouseID</text><rect fill="none" height="6" style="stroke:#C82930;stroke-width:1.0;" width="6" x="431.5" y="1139.4453"/><text fill="#000000" font-family="sans-serif" font-size="14" lengthAdjust="spacing" textLength="155" x="443.5" y="1146.7422">houseLocation: Location</text><line style="stroke:#181818;stroke-width:0.5;" x1="424.5" x2="833.5" y1="1154.2559" y2="1154.2559"/><ellipse cx="434.5" cy="1169.0664" fill="#84BE84" rx="3" ry="3" style="stroke:#038048;stroke-width:1.0;"/><text fill="#000000" font-family="sans-serif" font-size="14" lengthAdjust="spacing" textLength="385" x="443.5" y="1173.3633">editLocation(Address address, GPSCode gpsCode): boolean</text><ellipse cx="434.5" cy="1187.6875" fill="#84BE84" rx="3" ry="3" style="stroke:#038048;stroke-width:1.0;"/><text fill="#000000" font-family="sans-serif" font-size="14" lengthAdjust="spacing" textLength="116" x="443.5" y="1191.9844">identity(): HouseID</text><ellipse cx="434.5" cy="1206.3086" fill="#84BE84" rx="3" ry="3" style="stroke:#038048;stroke-width:1.0;"/><text fill="#000000" font-family="sans-serif" font-size="14" lengthAdjust="spacing" textLength="214" x="443.5" y="1210.6055">isSameAs(Object object): boolean</text></g><!--class FactoryHouse--><g id="elem_FactoryHouse"><rect codeLine="28" fill="#F1F1F1" height="103.8633" id="FactoryHouse" rx="2.5" ry="2.5" style="stroke:#181818;stroke-width:0.5;" width="505" x="410.5" y="686.0137"/><ellipse cx="614.25" cy="702.0137" fill="#B4A7E5" rx="11" ry="11" style="stroke:#181818;stroke-width:1.0;"/><path d="M615.2031,698.6543 L615.2031,705.3105 L616.9219,705.3105 Q617.5313,705.3105 617.7969,705.5449 Q618.0625,705.7793 618.0625,706.1699 Q618.0625,706.5449 617.7969,706.7793 Q617.5313,707.0137 616.9219,707.0137 L611.7813,707.0137 Q611.1719,707.0137 610.9063,706.7793 Q610.6406,706.5449 610.6406,706.1543 Q610.6406,705.7793 610.9063,705.5449 Q611.1719,705.3105 611.7813,705.3105 L613.5,705.3105 L613.5,698.6543 L611.7813,698.6543 Q611.1719,698.6543 610.9063,698.4199 Q610.6406,698.1855 610.6406,697.7949 Q610.6406,697.4199 610.9063,697.1855 Q611.1719,696.9512 611.7813,696.9512 L616.9219,696.9512 Q617.5313,696.9512 617.7969,697.1855 Q618.0625,697.4199 618.0625,697.7949 Q618.0625,698.1855 617.7969,698.4199 Q617.5313,698.6543 616.9219,698.6543 L615.2031,698.6543 Z " fill="#000000"/><text fill="#000000" font-family="sans-serif" font-size="14" font-style="italic" lengthAdjust="spacing" textLength="89" x="634.75" y="707.8105">FactoryHouse</text><line style="stroke:#181818;stroke-width:0.5;" x1="411.5" x2="914.5" y1="718.0137" y2="718.0137"/><line style="stroke:#181818;stroke-width:0.5;" x1="411.5" x2="914.5" y1="726.0137" y2="726.0137"/><ellipse cx="421.5" cy="740.8242" fill="#84BE84" rx="3" ry="3" style="stroke:#038048;stroke-width:1.0;"/><text fill="#000000" font-family="sans-serif" font-size="14" lengthAdjust="spacing" textLength="243" x="430.5" y="745.1211">createHouseWithOutLocation(): House</text><ellipse cx="421.5" cy="768.7559" fill="#84BE84" rx="3" ry="3" style="stroke:#038048;stroke-width:1.0;"/><text fill="#000000" font-family="sans-serif" font-size="14" lengthAdjust="spacing" textLength="475" x="430.5" y="763.7422">createHouseWithLocation(String street, String doorNumber, String zipCode,</text><text fill="#000000" font-family="sans-serif" font-size="14" lengthAdjust="spacing" textLength="425" x="430.5" y="782.3633">String city, String country, double latitude, double longitude): House</text></g><!--class ImpFactoryHouse--><g id="elem_ImpFactoryHouse"><rect codeLine="33" fill="#F1F1F1" height="103.8633" id="ImpFactoryHouse" rx="2.5" ry="2.5" style="stroke:#181818;stroke-width:0.5;" width="505" x="410.5" y="894.5137"/><ellipse cx="603.75" cy="910.5137" fill="#ADD1B2" rx="11" ry="11" style="stroke:#181818;stroke-width:1.0;"/><path d="M606.5156,906.3887 Q606.6719,906.1699 606.8594,906.0605 Q607.0469,905.9512 607.2656,905.9512 Q607.6406,905.9512 607.875,906.2168 Q608.1094,906.4668 608.1094,907.0762 L608.1094,908.5293 Q608.1094,909.1387 607.875,909.4043 Q607.6406,909.6699 607.2656,909.6699 Q606.9219,909.6699 606.7188,909.4668 Q606.5156,909.2793 606.4063,908.7637 Q606.3594,908.4043 606.1719,908.2168 Q605.8438,907.8418 605.2344,907.623 Q604.625,907.4043 604,907.4043 Q603.2344,907.4043 602.5938,907.7324 Q601.9688,908.0605 601.4688,908.8105 Q600.9844,909.5605 600.9844,910.5918 L600.9844,911.6855 Q600.9844,912.9199 601.875,913.748 Q602.7656,914.5605 604.3594,914.5605 Q605.2969,914.5605 605.9531,914.3105 Q606.3438,914.1543 606.7656,913.7168 Q607.0313,913.4512 607.1719,913.373 Q607.3281,913.2949 607.5313,913.2949 Q607.8594,913.2949 608.1094,913.5605 Q608.375,913.8105 608.375,914.1543 Q608.375,914.498 608.0313,914.9043 Q607.5313,915.4824 606.7344,915.8105 Q605.6563,916.2637 604.3594,916.2637 Q602.8438,916.2637 601.6406,915.6387 Q600.6563,915.1387 599.9688,914.0762 Q599.2813,912.998 599.2813,911.7168 L599.2813,910.5605 Q599.2813,909.2324 599.8906,908.0918 Q600.5156,906.9355 601.6094,906.3262 Q602.7031,905.7012 603.9375,905.7012 Q604.6719,905.7012 605.3125,905.873 Q605.9688,906.0293 606.5156,906.3887 Z " fill="#000000"/><text fill="#000000" font-family="sans-serif" font-size="14" lengthAdjust="spacing" textLength="110" x="624.25" y="916.3105">ImpFactoryHouse</text><line style="stroke:#181818;stroke-width:0.5;" x1="411.5" x2="914.5" y1="926.5137" y2="926.5137"/><line style="stroke:#181818;stroke-width:0.5;" x1="411.5" x2="914.5" y1="934.5137" y2="934.5137"/><ellipse cx="421.5" cy="949.3242" fill="#84BE84" rx="3" ry="3" style="stroke:#038048;stroke-width:1.0;"/><text fill="#000000" font-family="sans-serif" font-size="14" lengthAdjust="spacing" textLength="243" x="430.5" y="953.6211">createHouseWithOutLocation(): House</text><ellipse cx="421.5" cy="977.2559" fill="#84BE84" rx="3" ry="3" style="stroke:#038048;stroke-width:1.0;"/><text fill="#000000" font-family="sans-serif" font-size="14" lengthAdjust="spacing" textLength="475" x="430.5" y="972.2422">createHouseWithLocation(String street, String doorNumber, String zipCode,</text><text fill="#000000" font-family="sans-serif" font-size="14" lengthAdjust="spacing" textLength="425" x="430.5" y="990.8633">String city, String country, double latitude, double longitude): House</text></g><!--class HouseID--><g id="elem_HouseID"><rect codeLine="50" fill="#F1F1F1" height="103.8633" id="HouseID" rx="2.5" ry="2.5" style="stroke:#181818;stroke-width:0.5;" width="220" x="460" y="1323.0137"/><ellipse cx="528.75" cy="1339.0137" fill="#ADD1B2" rx="11" ry="11" style="stroke:#181818;stroke-width:1.0;"/><path d="M531.5156,1334.8887 Q531.6719,1334.6699 531.8594,1334.5605 Q532.0469,1334.4512 532.2656,1334.4512 Q532.6406,1334.4512 532.875,1334.7168 Q533.1094,1334.9668 533.1094,1335.5762 L533.1094,1337.0293 Q533.1094,1337.6387 532.875,1337.9043 Q532.6406,1338.1699 532.2656,1338.1699 Q531.9219,1338.1699 531.7188,1337.9668 Q531.5156,1337.7793 531.4063,1337.2637 Q531.3594,1336.9043 531.1719,1336.7168 Q530.8438,1336.3418 530.2344,1336.123 Q529.625,1335.9043 529,1335.9043 Q528.2344,1335.9043 527.5938,1336.2324 Q526.9688,1336.5605 526.4688,1337.3105 Q525.9844,1338.0605 525.9844,1339.0918 L525.9844,1340.1855 Q525.9844,1341.4199 526.875,1342.248 Q527.7656,1343.0605 529.3594,1343.0605 Q530.2969,1343.0605 530.9531,1342.8105 Q531.3438,1342.6543 531.7656,1342.2168 Q532.0313,1341.9512 532.1719,1341.873 Q532.3281,1341.7949 532.5313,1341.7949 Q532.8594,1341.7949 533.1094,1342.0605 Q533.375,1342.3105 533.375,1342.6543 Q533.375,1342.998 533.0313,1343.4043 Q532.5313,1343.9824 531.7344,1344.3105 Q530.6563,1344.7637 529.3594,1344.7637 Q527.8438,1344.7637 526.6406,1344.1387 Q525.6563,1343.6387 524.9688,1342.5762 Q524.2813,1341.498 524.2813,1340.2168 L524.2813,1339.0605 Q524.2813,1337.7324 524.8906,1336.5918 Q525.5156,1335.4355 526.6094,1334.8262 Q527.7031,1334.2012 528.9375,1334.2012 Q529.6719,1334.2012 530.3125,1334.373 Q530.9688,1334.5293 531.5156,1334.8887 Z " fill="#000000"/><text fill="#000000" font-family="sans-serif" font-size="14" lengthAdjust="spacing" textLength="53" x="549.25" y="1344.8105">HouseID</text><rect fill="#FFFFFF" height="17.9609" style="stroke:#181818;stroke-width:1.0;stroke-dasharray:2.0,2.0;" width="19" x="664" y="1320.0137"/><text fill="#000000" font-family="sans-serif" font-size="12" font-style="italic" lengthAdjust="spacing" textLength="17" x="665" y="1333.9629">VO</text><line style="stroke:#181818;stroke-width:0.5;" x1="461" x2="679" y1="1355.0137" y2="1355.0137"/><rect fill="none" height="6" style="stroke:#C82930;stroke-width:1.0;" width="6" x="468" y="1366.8242"/><text fill="#000000" font-family="sans-serif" font-size="14" lengthAdjust="spacing" textLength="56" x="480" y="1374.1211">id: String</text><line style="stroke:#181818;stroke-width:0.5;" x1="461" x2="679" y1="1381.6348" y2="1381.6348"/><ellipse cx="471" cy="1396.4453" fill="#84BE84" rx="3" ry="3" style="stroke:#038048;stroke-width:1.0;"/><text fill="#000000" font-family="sans-serif" font-size="14" lengthAdjust="spacing" textLength="194" x="480" y="1400.7422">equals(Object object): boolean</text><ellipse cx="471" cy="1415.0664" fill="#84BE84" rx="3" ry="3" style="stroke:#038048;stroke-width:1.0;"/><text fill="#000000" font-family="sans-serif" font-size="14" lengthAdjust="spacing" textLength="104" x="480" y="1419.3633">toString(): String</text></g><!--class Location--><g id="elem_Location"><rect codeLine="55" fill="#F1F1F1" height="159.7266" id="Location" rx="2.5" ry="2.5" style="stroke:#181818;stroke-width:0.5;" width="220" x="715" y="1295.0137"/><ellipse cx="783.25" cy="1311.0137" fill="#ADD1B2" rx="11" ry="11" style="stroke:#181818;stroke-width:1.0;"/><path d="M786.0156,1306.8887 Q786.1719,1306.6699 786.3594,1306.5605 Q786.5469,1306.4512 786.7656,1306.4512 Q787.1406,1306.4512 787.375,1306.7168 Q787.6094,1306.9668 787.6094,1307.5762 L787.6094,1309.0293 Q787.6094,1309.6387 787.375,1309.9043 Q787.1406,1310.1699 786.7656,1310.1699 Q786.4219,1310.1699 786.2188,1309.9668 Q786.0156,1309.7793 785.9063,1309.2637 Q785.8594,1308.9043 785.6719,1308.7168 Q785.3438,1308.3418 784.7344,1308.123 Q784.125,1307.9043 783.5,1307.9043 Q782.7344,1307.9043 782.0938,1308.2324 Q781.4688,1308.5605 780.9688,1309.3105 Q780.4844,1310.0605 780.4844,1311.0918 L780.4844,1312.1855 Q780.4844,1313.4199 781.375,1314.248 Q782.2656,1315.0605 783.8594,1315.0605 Q784.7969,1315.0605 785.4531,1314.8105 Q785.8438,1314.6543 786.2656,1314.2168 Q786.5313,1313.9512 786.6719,1313.873 Q786.8281,1313.7949 787.0313,1313.7949 Q787.3594,1313.7949 787.6094,1314.0605 Q787.875,1314.3105 787.875,1314.6543 Q787.875,1314.998 787.5313,1315.4043 Q787.0313,1315.9824 786.2344,1316.3105 Q785.1563,1316.7637 783.8594,1316.7637 Q782.3438,1316.7637 781.1406,1316.1387 Q780.1563,1315.6387 779.4688,1314.5762 Q778.7813,1313.498 778.7813,1312.2168 L778.7813,1311.0605 Q778.7813,1309.7324 779.3906,1308.5918 Q780.0156,1307.4355 781.1094,1306.8262 Q782.2031,1306.2012 783.4375,1306.2012 Q784.1719,1306.2012 784.8125,1306.373 Q785.4688,1306.5293 786.0156,1306.8887 Z " fill="#000000"/><text fill="#000000" font-family="sans-serif" font-size="14" lengthAdjust="spacing" textLength="54" x="803.75" y="1316.8105">Location</text><rect fill="#FFFFFF" height="17.9609" style="stroke:#181818;stroke-width:1.0;stroke-dasharray:2.0,2.0;" width="19" x="919" y="1292.0137"/><text fill="#000000" font-family="sans-serif" font-size="12" font-style="italic" lengthAdjust="spacing" textLength="17" x="920" y="1305.9629">VO</text><line style="stroke:#181818;stroke-width:0.5;" x1="716" x2="934" y1="1327.0137" y2="1327.0137"/><rect fill="none" height="6" style="stroke:#C82930;stroke-width:1.0;" width="6" x="723" y="1338.8242"/><text fill="#000000" font-family="sans-serif" font-size="14" lengthAdjust="spacing" textLength="111" x="735" y="1346.1211">address: Address</text><rect fill="none" height="6" style="stroke:#C82930;stroke-width:1.0;" width="6" x="723" y="1357.4453"/><text fill="#000000" font-family="sans-serif" font-size="14" lengthAdjust="spacing" textLength="128" x="735" y="1364.7422">gpsCode: GPSCode</text><line style="stroke:#181818;stroke-width:0.5;" x1="716" x2="934" y1="1372.2559" y2="1372.2559"/><ellipse cx="726" cy="1387.0664" fill="#84BE84" rx="3" ry="3" style="stroke:#038048;stroke-width:1.0;"/><text fill="#000000" font-family="sans-serif" font-size="14" lengthAdjust="spacing" textLength="142" x="735" y="1391.3633">getAddress(): Address</text><ellipse cx="726" cy="1405.6875" fill="#84BE84" rx="3" ry="3" style="stroke:#038048;stroke-width:1.0;"/><text fill="#000000" font-family="sans-serif" font-size="14" lengthAdjust="spacing" textLength="164" x="735" y="1409.9844">getGPSCode(): GPSCode</text><ellipse cx="726" cy="1424.3086" fill="#84BE84" rx="3" ry="3" style="stroke:#038048;stroke-width:1.0;"/><text fill="#000000" font-family="sans-serif" font-size="14" lengthAdjust="spacing" textLength="194" x="735" y="1428.6055">equals(Object object): boolean</text><ellipse cx="726" cy="1442.9297" fill="#84BE84" rx="3" ry="3" style="stroke:#038048;stroke-width:1.0;"/><text fill="#000000" font-family="sans-serif" font-size="14" lengthAdjust="spacing" textLength="104" x="735" y="1447.2266">toString(): String</text></g><!--class Address--><g id="elem_Address"><rect codeLine="64" fill="#F1F1F1" height="271.4531" id="Address" rx="2.5" ry="2.5" style="stroke:#181818;stroke-width:0.5;" width="220" x="460" y="1576.0137"/><ellipse cx="529.25" cy="1592.0137" fill="#ADD1B2" rx="11" ry="11" style="stroke:#181818;stroke-width:1.0;"/><path d="M532.0156,1587.8887 Q532.1719,1587.6699 532.3594,1587.5605 Q532.5469,1587.4512 532.7656,1587.4512 Q533.1406,1587.4512 533.375,1587.7168 Q533.6094,1587.9668 533.6094,1588.5762 L533.6094,1590.0293 Q533.6094,1590.6387 533.375,1590.9043 Q533.1406,1591.1699 532.7656,1591.1699 Q532.4219,1591.1699 532.2188,1590.9668 Q532.0156,1590.7793 531.9063,1590.2637 Q531.8594,1589.9043 531.6719,1589.7168 Q531.3438,1589.3418 530.7344,1589.123 Q530.125,1588.9043 529.5,1588.9043 Q528.7344,1588.9043 528.0938,1589.2324 Q527.4688,1589.5605 526.9688,1590.3105 Q526.4844,1591.0605 526.4844,1592.0918 L526.4844,1593.1855 Q526.4844,1594.4199 527.375,1595.248 Q528.2656,1596.0605 529.8594,1596.0605 Q530.7969,1596.0605 531.4531,1595.8105 Q531.8438,1595.6543 532.2656,1595.2168 Q532.5313,1594.9512 532.6719,1594.873 Q532.8281,1594.7949 533.0313,1594.7949 Q533.3594,1594.7949 533.6094,1595.0605 Q533.875,1595.3105 533.875,1595.6543 Q533.875,1595.998 533.5313,1596.4043 Q533.0313,1596.9824 532.2344,1597.3105 Q531.1563,1597.7637 529.8594,1597.7637 Q528.3438,1597.7637 527.1406,1597.1387 Q526.1563,1596.6387 525.4688,1595.5762 Q524.7813,1594.498 524.7813,1593.2168 L524.7813,1592.0605 Q524.7813,1590.7324 525.3906,1589.5918 Q526.0156,1588.4355 527.1094,1587.8262 Q528.2031,1587.2012 529.4375,1587.2012 Q530.1719,1587.2012 530.8125,1587.373 Q531.4688,1587.5293 532.0156,1587.8887 Z " fill="#000000"/><text fill="#000000" font-family="sans-serif" font-size="14" lengthAdjust="spacing" textLength="52" x="549.75" y="1597.8105">Address</text><rect fill="#FFFFFF" height="17.9609" style="stroke:#181818;stroke-width:1.0;stroke-dasharray:2.0,2.0;" width="19" x="664" y="1573.0137"/><text fill="#000000" font-family="sans-serif" font-size="12" font-style="italic" lengthAdjust="spacing" textLength="17" x="665" y="1586.9629">VO</text><line style="stroke:#181818;stroke-width:0.5;" x1="461" x2="679" y1="1608.0137" y2="1608.0137"/><rect fill="none" height="6" style="stroke:#C82930;stroke-width:1.0;" width="6" x="468" y="1619.8242"/><text fill="#000000" font-family="sans-serif" font-size="14" lengthAdjust="spacing" textLength="81" x="480" y="1627.1211">street: String</text><rect fill="none" height="6" style="stroke:#C82930;stroke-width:1.0;" width="6" x="468" y="1638.4453"/><text fill="#000000" font-family="sans-serif" font-size="14" lengthAdjust="spacing" textLength="123" x="480" y="1645.7422">doorNumber: String</text><rect fill="none" height="6" style="stroke:#C82930;stroke-width:1.0;" width="6" x="468" y="1657.0664"/><text fill="#000000" font-family="sans-serif" font-size="14" lengthAdjust="spacing" textLength="117" x="480" y="1664.3633">postalCode: String</text><rect fill="none" height="6" style="stroke:#C82930;stroke-width:1.0;" width="6" x="468" y="1675.6875"/><text fill="#000000" font-family="sans-serif" font-size="14" lengthAdjust="spacing" textLength="66" x="480" y="1682.9844">city: String</text><rect fill="none" height="6" style="stroke:#C82930;stroke-width:1.0;" width="6" x="468" y="1694.3086"/><text fill="#000000" font-family="sans-serif" font-size="14" lengthAdjust="spacing" textLength="92" x="480" y="1701.6055">country: String</text><line style="stroke:#181818;stroke-width:0.5;" x1="461" x2="679" y1="1709.1191" y2="1709.1191"/><ellipse cx="471" cy="1723.9297" fill="#84BE84" rx="3" ry="3" style="stroke:#038048;stroke-width:1.0;"/><text fill="#000000" font-family="sans-serif" font-size="14" lengthAdjust="spacing" textLength="113" x="480" y="1728.2266">getStreet(): String</text><ellipse cx="471" cy="1742.5508" fill="#84BE84" rx="3" ry="3" style="stroke:#038048;stroke-width:1.0;"/><text fill="#000000" font-family="sans-serif" font-size="14" lengthAdjust="spacing" textLength="155" x="480" y="1746.8477">getDoorNumber(): String</text><ellipse cx="471" cy="1761.1719" fill="#84BE84" rx="3" ry="3" style="stroke:#038048;stroke-width:1.0;"/><text fill="#000000" font-family="sans-serif" font-size="14" lengthAdjust="spacing" textLength="148" x="480" y="1765.4688">getPostalCode(): String</text><ellipse cx="471" cy="1779.793" fill="#84BE84" rx="3" ry="3" style="stroke:#038048;stroke-width:1.0;"/><text fill="#000000" font-family="sans-serif" font-size="14" lengthAdjust="spacing" textLength="99" x="480" y="1784.0898">getCity(): String</text><ellipse cx="471" cy="1798.4141" fill="#84BE84" rx="3" ry="3" style="stroke:#038048;stroke-width:1.0;"/><text fill="#000000" font-family="sans-serif" font-size="14" lengthAdjust="spacing" textLength="125" x="480" y="1802.7109">getCountry(): String</text><ellipse cx="471" cy="1817.0352" fill="#84BE84" rx="3" ry="3" style="stroke:#038048;stroke-width:1.0;"/><text fill="#000000" font-family="sans-serif" font-size="14" lengthAdjust="spacing" textLength="194" x="480" y="1821.332">equals(Object object): boolean</text><ellipse cx="471" cy="1835.6563" fill="#84BE84" rx="3" ry="3" style="stroke:#038048;stroke-width:1.0;"/><text fill="#000000" font-family="sans-serif" font-size="14" lengthAdjust="spacing" textLength="104" x="480" y="1839.9531">toString(): String</text></g><!--class GPSCode--><g id="elem_GPSCode"><rect codeLine="79" fill="#F1F1F1" height="159.7266" id="GPSCode" rx="2.5" ry="2.5" style="stroke:#181818;stroke-width:0.5;" width="220" x="715" y="1631.5137"/><ellipse cx="778.75" cy="1647.5137" fill="#ADD1B2" rx="11" ry="11" style="stroke:#181818;stroke-width:1.0;"/><path d="M781.5156,1643.3887 Q781.6719,1643.1699 781.8594,1643.0605 Q782.0469,1642.9512 782.2656,1642.9512 Q782.6406,1642.9512 782.875,1643.2168 Q783.1094,1643.4668 783.1094,1644.0762 L783.1094,1645.5293 Q783.1094,1646.1387 782.875,1646.4043 Q782.6406,1646.6699 782.2656,1646.6699 Q781.9219,1646.6699 781.7188,1646.4668 Q781.5156,1646.2793 781.4063,1645.7637 Q781.3594,1645.4043 781.1719,1645.2168 Q780.8438,1644.8418 780.2344,1644.623 Q779.625,1644.4043 779,1644.4043 Q778.2344,1644.4043 777.5938,1644.7324 Q776.9688,1645.0605 776.4688,1645.8105 Q775.9844,1646.5605 775.9844,1647.5918 L775.9844,1648.6855 Q775.9844,1649.9199 776.875,1650.748 Q777.7656,1651.5605 779.3594,1651.5605 Q780.2969,1651.5605 780.9531,1651.3105 Q781.3438,1651.1543 781.7656,1650.7168 Q782.0313,1650.4512 782.1719,1650.373 Q782.3281,1650.2949 782.5313,1650.2949 Q782.8594,1650.2949 783.1094,1650.5605 Q783.375,1650.8105 783.375,1651.1543 Q783.375,1651.498 783.0313,1651.9043 Q782.5313,1652.4824 781.7344,1652.8105 Q780.6563,1653.2637 779.3594,1653.2637 Q777.8438,1653.2637 776.6406,1652.6387 Q775.6563,1652.1387 774.9688,1651.0762 Q774.2813,1649.998 774.2813,1648.7168 L774.2813,1647.5605 Q774.2813,1646.2324 774.8906,1645.0918 Q775.5156,1643.9355 776.6094,1643.3262 Q777.7031,1642.7012 778.9375,1642.7012 Q779.6719,1642.7012 780.3125,1642.873 Q780.9688,1643.0293 781.5156,1643.3887 Z " fill="#000000"/><text fill="#000000" font-family="sans-serif" font-size="14" lengthAdjust="spacing" textLength="63" x="799.25" y="1653.3105">GPSCode</text><rect fill="#FFFFFF" height="17.9609" style="stroke:#181818;stroke-width:1.0;stroke-dasharray:2.0,2.0;" width="19" x="919" y="1628.5137"/><text fill="#000000" font-family="sans-serif" font-size="12" font-style="italic" lengthAdjust="spacing" textLength="17" x="920" y="1642.4629">VO</text><line style="stroke:#181818;stroke-width:0.5;" x1="716" x2="934" y1="1663.5137" y2="1663.5137"/><rect fill="none" height="6" style="stroke:#C82930;stroke-width:1.0;" width="6" x="723" y="1675.3242"/><text fill="#000000" font-family="sans-serif" font-size="14" lengthAdjust="spacing" textLength="97" x="735" y="1682.6211">latitude: double</text><rect fill="none" height="6" style="stroke:#C82930;stroke-width:1.0;" width="6" x="723" y="1693.9453"/><text fill="#000000" font-family="sans-serif" font-size="14" lengthAdjust="spacing" textLength="109" x="735" y="1701.2422">longitude: double</text><line style="stroke:#181818;stroke-width:0.5;" x1="716" x2="934" y1="1708.7559" y2="1708.7559"/><ellipse cx="726" cy="1723.5664" fill="#84BE84" rx="3" ry="3" style="stroke:#038048;stroke-width:1.0;"/><text fill="#000000" font-family="sans-serif" font-size="14" lengthAdjust="spacing" textLength="132" x="735" y="1727.8633">getLatitude(): double</text><ellipse cx="726" cy="1742.1875" fill="#84BE84" rx="3" ry="3" style="stroke:#038048;stroke-width:1.0;"/><text fill="#000000" font-family="sans-serif" font-size="14" lengthAdjust="spacing" textLength="144" x="735" y="1746.4844">getLongitude(): double</text><ellipse cx="726" cy="1760.8086" fill="#84BE84" rx="3" ry="3" style="stroke:#038048;stroke-width:1.0;"/><text fill="#000000" font-family="sans-serif" font-size="14" lengthAdjust="spacing" textLength="194" x="735" y="1765.1055">equals(Object object): boolean</text><ellipse cx="726" cy="1779.4297" fill="#84BE84" rx="3" ry="3" style="stroke:#038048;stroke-width:1.0;"/><text fill="#000000" font-family="sans-serif" font-size="14" lengthAdjust="spacing" textLength="104" x="735" y="1783.7266">toString(): String</text></g><!--class HouseRepository--><g id="elem_HouseRepository"><rect codeLine="102" fill="#F1F1F1" height="141.1055" id="HouseRepository" rx="2.5" ry="2.5" style="stroke:#181818;stroke-width:0.5;" width="308" x="22" y="876.0137"/><ellipse cx="103.25" cy="892.0137" fill="#ADD1B2" rx="11" ry="11" style="stroke:#181818;stroke-width:1.0;"/><path d="M106.0156,887.8887 Q106.1719,887.6699 106.3594,887.5605 Q106.5469,887.4512 106.7656,887.4512 Q107.1406,887.4512 107.375,887.7168 Q107.6094,887.9668 107.6094,888.5762 L107.6094,890.0293 Q107.6094,890.6387 107.375,890.9043 Q107.1406,891.1699 106.7656,891.1699 Q106.4219,891.1699 106.2188,890.9668 Q106.0156,890.7793 105.9063,890.2637 Q105.8594,889.9043 105.6719,889.7168 Q105.3438,889.3418 104.7344,889.123 Q104.125,888.9043 103.5,888.9043 Q102.7344,888.9043 102.0938,889.2324 Q101.4688,889.5605 100.9688,890.3105 Q100.4844,891.0605 100.4844,892.0918 L100.4844,893.1855 Q100.4844,894.4199 101.375,895.248 Q102.2656,896.0605 103.8594,896.0605 Q104.7969,896.0605 105.4531,895.8105 Q105.8438,895.6543 106.2656,895.2168 Q106.5313,894.9512 106.6719,894.873 Q106.8281,894.7949 107.0313,894.7949 Q107.3594,894.7949 107.6094,895.0605 Q107.875,895.3105 107.875,895.6543 Q107.875,895.998 107.5313,896.4043 Q107.0313,896.9824 106.2344,897.3105 Q105.1563,897.7637 103.8594,897.7637 Q102.3438,897.7637 101.1406,897.1387 Q100.1563,896.6387 99.4688,895.5762 Q98.7813,894.498 98.7813,893.2168 L98.7813,892.0605 Q98.7813,890.7324 99.3906,889.5918 Q100.0156,888.4355 101.1094,887.8262 Q102.2031,887.2012 103.4375,887.2012 Q104.1719,887.2012 104.8125,887.373 Q105.4688,887.5293 106.0156,887.8887 Z " fill="#000000"/><text fill="#000000" font-family="sans-serif" font-size="14" lengthAdjust="spacing" textLength="108" x="123.75" y="897.8105">HouseRepository</text><rect fill="#FFFFFF" height="17.9609" style="stroke:#181818;stroke-width:1.0;stroke-dasharray:2.0,2.0;" width="27" x="306" y="873.0137"/><text fill="#000000" font-family="sans-serif" font-size="12" font-style="italic" lengthAdjust="spacing" textLength="25" x="307" y="886.9629">repo</text><line style="stroke:#181818;stroke-width:0.5;" x1="23" x2="329" y1="908.0137" y2="908.0137"/><rect fill="none" height="6" style="stroke:#C82930;stroke-width:1.0;" width="6" x="30" y="919.8242"/><text fill="#000000" font-family="sans-serif" font-size="14" lengthAdjust="spacing" textLength="180" x="42" y="927.1211">data: Map&lt;HouseID, House&gt;</text><line style="stroke:#181818;stroke-width:0.5;" x1="23" x2="329" y1="934.6348" y2="934.6348"/><ellipse cx="33" cy="949.4453" fill="#84BE84" rx="3" ry="3" style="stroke:#038048;stroke-width:1.0;"/><text fill="#000000" font-family="sans-serif" font-size="14" lengthAdjust="spacing" textLength="228" x="42" y="953.7422">updateOrSave(House entity): House</text><ellipse cx="33" cy="968.0664" fill="#84BE84" rx="3" ry="3" style="stroke:#038048;stroke-width:1.0;"/><text fill="#000000" font-family="sans-serif" font-size="14" lengthAdjust="spacing" textLength="278" x="42" y="972.3633">findAllEntities(HouseID id)): Iterable&lt;House&gt;</text><ellipse cx="33" cy="986.6875" fill="#84BE84" rx="3" ry="3" style="stroke:#038048;stroke-width:1.0;"/><text fill="#000000" font-family="sans-serif" font-size="14" lengthAdjust="spacing" textLength="282" x="42" y="990.9844">findEntityByID(HouseID id): Optional&lt;House&gt;</text><ellipse cx="33" cy="1005.3086" fill="#84BE84" rx="3" ry="3" style="stroke:#038048;stroke-width:1.0;"/><text fill="#000000" font-family="sans-serif" font-size="14" lengthAdjust="spacing" textLength="254" x="42" y="1009.6055">containsEntityByID(HouseID id): boolean</text></g><!--class HouseService--><g id="elem_HouseService"><rect codeLine="114" fill="#F1F1F1" height="159.7266" id="HouseService" rx="2.5" ry="2.5" style="stroke:#181818;stroke-width:0.5;" width="562" x="347" y="404.0137"/><ellipse cx="558.75" cy="420.0137" fill="#ADD1B2" rx="11" ry="11" style="stroke:#181818;stroke-width:1.0;"/><path d="M561.5156,415.8887 Q561.6719,415.6699 561.8594,415.5605 Q562.0469,415.4512 562.2656,415.4512 Q562.6406,415.4512 562.875,415.7168 Q563.1094,415.9668 563.1094,416.5762 L563.1094,418.0293 Q563.1094,418.6387 562.875,418.9043 Q562.6406,419.1699 562.2656,419.1699 Q561.9219,419.1699 561.7188,418.9668 Q561.5156,418.7793 561.4063,418.2637 Q561.3594,417.9043 561.1719,417.7168 Q560.8438,417.3418 560.2344,417.123 Q559.625,416.9043 559,416.9043 Q558.2344,416.9043 557.5938,417.2324 Q556.9688,417.5605 556.4688,418.3105 Q555.9844,419.0605 555.9844,420.0918 L555.9844,421.1855 Q555.9844,422.4199 556.875,423.248 Q557.7656,424.0605 559.3594,424.0605 Q560.2969,424.0605 560.9531,423.8105 Q561.3438,423.6543 561.7656,423.2168 Q562.0313,422.9512 562.1719,422.873 Q562.3281,422.7949 562.5313,422.7949 Q562.8594,422.7949 563.1094,423.0605 Q563.375,423.3105 563.375,423.6543 Q563.375,423.998 563.0313,424.4043 Q562.5313,424.9824 561.7344,425.3105 Q560.6563,425.7637 559.3594,425.7637 Q557.8438,425.7637 556.6406,425.1387 Q555.6563,424.6387 554.9688,423.5762 Q554.2813,422.498 554.2813,421.2168 L554.2813,420.0605 Q554.2813,418.7324 554.8906,417.5918 Q555.5156,416.4355 556.6094,415.8262 Q557.7031,415.2012 558.9375,415.2012 Q559.6719,415.2012 560.3125,415.373 Q560.9688,415.5293 561.5156,415.8887 Z " fill="#000000"/><text fill="#000000" font-family="sans-serif" font-size="14" lengthAdjust="spacing" textLength="87" x="579.25" y="425.8105">HouseService</text><rect fill="#FFFFFF" height="17.9609" style="stroke:#181818;stroke-width:1.0;stroke-dasharray:2.0,2.0;" width="41" x="871" y="401.0137"/><text fill="#000000" font-family="sans-serif" font-size="12" font-style="italic" lengthAdjust="spacing" textLength="39" x="872" y="414.9629">service</text><line style="stroke:#181818;stroke-width:0.5;" x1="348" x2="908" y1="436.0137" y2="436.0137"/><rect fill="none" height="6" style="stroke:#C82930;stroke-width:1.0;" width="6" x="355" y="447.8242"/><text fill="#000000" font-family="sans-serif" font-size="14" lengthAdjust="spacing" textLength="227" x="367" y="455.1211">houseRepository : HouseRepository</text><rect fill="none" height="6" style="stroke:#C82930;stroke-width:1.0;" width="6" x="355" y="466.4453"/><text fill="#000000" font-family="sans-serif" font-size="14" lengthAdjust="spacing" textLength="183" x="367" y="473.7422">factoryHouse : FactoryHouse</text><line style="stroke:#181818;stroke-width:0.5;" x1="348" x2="908" y1="481.2559" y2="481.2559"/><ellipse cx="358" cy="496.0664" fill="#84BE84" rx="3" ry="3" style="stroke:#038048;stroke-width:1.0;"/><text fill="#000000" font-family="sans-serif" font-size="14" lengthAdjust="spacing" textLength="297" x="367" y="500.3633">createAndSaveHouseWithoutLocation(): House</text><ellipse cx="358" cy="523.998" fill="#84BE84" rx="3" ry="3" style="stroke:#038048;stroke-width:1.0;"/><text fill="#000000" font-family="sans-serif" font-size="14" lengthAdjust="spacing" textLength="432" x="367" y="518.9844">createAndSaveHouseWithLocation(String street, String doorNumber,</text><text fill="#000000" font-family="sans-serif" font-size="14" lengthAdjust="spacing" textLength="536" x="367" y="537.6055">String zipCode, String city, String country, double latitude, double longitude): boolean</text><ellipse cx="358" cy="551.9297" fill="#84BE84" rx="3" ry="3" style="stroke:#038048;stroke-width:1.0;"/><text fill="#000000" font-family="sans-serif" font-size="14" lengthAdjust="spacing" textLength="313" x="367" y="556.2266">editLocation(LocationDTO locationDTO): boolean</text></g><!--reverse link ValueObject to DomainID--><g id="link_ValueObject_DomainID"><path d="M228,109.2537 C228,127.0337 228,133.0937 228,150.8537 " fill="none" id="ValueObject-backto-DomainID" style="stroke:#181818;stroke-width:1.0;"/><polygon fill="none" points="228,91.2537,222,109.2537,234,109.2537,228,91.2537" style="stroke:#181818;stroke-width:1.0;"/></g><!--reverse link DomainID to DomainEntity--><g id="link_DomainID_DomainEntity"><path d="M228,217.1037 C228,233.9537 228,238.9037 228,258.8137 " fill="none" id="DomainID-backto-DomainEntity" style="stroke:#181818;stroke-width:1.0;"/><polygon fill="none" points="228,199.1037,222,217.1037,234,217.1037,228,199.1037" style="stroke:#181818;stroke-width:1.0;"/></g><!--reverse link DomainEntity to AggregateRoot--><g id="link_DomainEntity_AggregateRoot"><path d="M163,362.3037 C163,398.3337 163,430.5637 163,459.9537 " fill="none" id="DomainEntity-backto-AggregateRoot" style="stroke:#181818;stroke-width:1.0;"/><polygon fill="none" points="163,344.3037,157,362.3037,169,362.3037,163,344.3037" style="stroke:#181818;stroke-width:1.0;"/></g><!--reverse link AggregateRoot to Repository--><g id="link_AggregateRoot_Repository"><path d="M163,526.3637 C163,564.8637 163,622.9237 163,676.9537 " fill="none" id="AggregateRoot-backto-Repository" style="stroke:#181818;stroke-width:1.0;"/><polygon fill="none" points="163,508.3637,157,526.3637,169,526.3637,163,508.3637" style="stroke:#181818;stroke-width:1.0;"/></g><!--reverse link FactoryHouse to ImpFactoryHouse--><g id="link_FactoryHouse_ImpFactoryHouse"><path d="M663,808.0937 C663,839.9337 663,862.5237 663,894.3837 " fill="none" id="FactoryHouse-backto-ImpFactoryHouse" style="stroke:#181818;stroke-width:1.0;stroke-dasharray:7.0,7.0;"/><polygon fill="none" points="663,790.0937,657,808.0937,669,808.0937,663,790.0937" style="stroke:#181818;stroke-width:1.0;"/></g><!--reverse link AggregateRoot to House--><g id="link_AggregateRoot_House"><path d="M245.13,484.0137 C296.75,484.0137 342.75,484.0137 342.75,484.0137 C342.75,484.0137 342.75,1148.0137 342.75,1148.0137 C342.75,1148.0137 377.74,1148.0137 423.25,1148.0137 " fill="none" id="AggregateRoot-backto-House" style="stroke:#181818;stroke-width:1.0;stroke-dasharray:7.0,7.0;"/><polygon fill="none" points="227.13,484.0137,245.13,490.0137,245.13,478.0137,227.13,484.0137" style="stroke:#181818;stroke-width:1.0;"/></g><!--link ImpFactoryHouse to House--><g id="link_ImpFactoryHouse_House"><path codeLine="45" d="M697.5,998.5337 C697.5,1022.3837 697.5,1045.0137 697.5,1070.7837 " fill="none" id="ImpFactoryHouse-to-House" style="stroke:#181818;stroke-width:1.0;"/><polygon fill="#181818" points="697.5,1076.7837,701.5,1067.7837,697.5,1071.7837,693.5,1067.7837,697.5,1076.7837" style="stroke:#181818;stroke-width:1.0;"/><text fill="#000000" font-family="sans-serif" font-size="13" lengthAdjust="spacing" textLength="57" x="639.5" y="1033.692">&#171;creates&#187;</text></g><!--reverse link DomainID to HouseID--><g id="link_DomainID_HouseID"><path d="M293.18,175.0137 C323.22,175.0137 338.5,175.0137 338.5,175.0137 C338.5,175.0137 338.5,1375.0137 338.5,1375.0137 C338.5,1375.0137 400.05,1375.0137 459.67,1375.0137 " fill="none" id="DomainID-backto-HouseID" style="stroke:#181818;stroke-width:1.0;stroke-dasharray:7.0,7.0;"/><polygon fill="none" points="275.18,175.0137,293.18,181.0137,293.18,169.0137,275.18,175.0137" style="stroke:#181818;stroke-width:1.0;"/></g><!--reverse link ValueObject to Location--><g id="link_ValueObject_Location"><path d="M300.71,67.0137 C465.08,67.0137 925.25,67.0137 925.25,67.0137 C925.25,67.0137 925.25,1010.0937 925.25,1294.6737 " fill="none" id="ValueObject-backto-Location" style="stroke:#181818;stroke-width:1.0;stroke-dasharray:7.0,7.0;"/><polygon fill="none" points="282.71,67.0137,300.71,73.0137,300.71,61.0137,282.71,67.0137" style="stroke:#181818;stroke-width:1.0;"/></g><!--reverse link ValueObject to Address--><g id="link_ValueObject_Address"><path d="M300.68,79.0137 C326.71,79.0137 334.25,79.0137 334.25,79.0137 C334.25,79.0137 334.25,1757.0137 334.25,1757.0137 C334.25,1757.0137 398.36,1757.0137 459.72,1757.0137 " fill="none" id="ValueObject-backto-Address" style="stroke:#181818;stroke-width:1.0;stroke-dasharray:7.0,7.0;"/><polygon fill="none" points="282.68,79.0137,300.68,85.0137,300.68,73.0137,282.68,79.0137" style="stroke:#181818;stroke-width:1.0;"/></g><!--reverse link ValueObject to GPSCode--><g id="link_ValueObject_GPSCode"><path d="M300.64,55.0137 C470.35,55.0137 959,55.0137 959,55.0137 C959,55.0137 959,1739.0137 959,1739.0137 C959,1739.0137 949.27,1739.0137 935.04,1739.0137 " fill="none" id="ValueObject-backto-GPSCode" style="stroke:#181818;stroke-width:1.0;stroke-dasharray:7.0,7.0;"/><polygon fill="none" points="282.64,55.0137,300.64,61.0137,300.64,49.0137,282.64,55.0137" style="stroke:#181818;stroke-width:1.0;"/></g><!--link ImpFactoryHouse to Location--><g id="link_ImpFactoryHouse_Location"><path codeLine="90" d="M875,998.6237 C875,1072.4537 875,1202.1337 875,1288.8337 " fill="none" id="ImpFactoryHouse-to-Location" style="stroke:#181818;stroke-width:1.0;"/><polygon fill="#181818" points="875,1294.8337,879,1285.8337,875,1289.8337,871,1285.8337,875,1294.8337" style="stroke:#181818;stroke-width:1.0;"/><text fill="#000000" font-family="sans-serif" font-size="13" lengthAdjust="spacing" textLength="57" x="876" y="1142.762">&#171;creates&#187;</text></g><!--link ImpFactoryHouse to Address--><g id="link_ImpFactoryHouse_Address"><path codeLine="91" d="M417,998.6237 C417,1164.1237 417,1667.0137 417,1667.0137 C417,1667.0137 429.49,1667.0137 453.62,1667.0137 " fill="none" id="ImpFactoryHouse-to-Address" style="stroke:#181818;stroke-width:1.0;"/><polygon fill="#181818" points="459.62,1667.0137,450.62,1663.0137,454.62,1667.0137,450.62,1671.0137,459.62,1667.0137" style="stroke:#181818;stroke-width:1.0;"/><text fill="#000000" font-family="sans-serif" font-size="13" lengthAdjust="spacing" textLength="57" x="359" y="1350.152">&#171;creates&#187;</text></g><!--link ImpFactoryHouse to GPSCode--><g id="link_ImpFactoryHouse_GPSCode"><path codeLine="92" d="M915.52,947.0137 C934.83,947.0137 947,947.0137 947,947.0137 C947,947.0137 947,1685.0137 947,1685.0137 C947,1685.0137 948.53,1685.0137 941.3,1685.0137 " fill="none" id="ImpFactoryHouse-to-GPSCode" style="stroke:#181818;stroke-width:1.0;"/><polygon fill="#181818" points="935.3,1685.0137,944.3,1689.0137,940.3,1685.0137,944.3,1681.0137,935.3,1685.0137" style="stroke:#181818;stroke-width:1.0;"/><text fill="#000000" font-family="sans-serif" font-size="13" lengthAdjust="spacing" textLength="57" x="948" y="1302.152">&#171;creates&#187;</text></g><!--link House to HouseID--><g id="link_House_HouseID"><path codeLine="94" d="M570,1218.2537 C570,1252.0337 570,1285.7537 570,1316.7537 " fill="none" id="House-to-HouseID" style="stroke:#181818;stroke-width:1.0;"/><polygon fill="#181818" points="570,1322.7537,574,1313.7537,570,1317.7537,566,1313.7537,570,1322.7537" style="stroke:#181818;stroke-width:1.0;"/></g><!--link House to Location--><g id="link_House_Location"><path codeLine="95" d="M774.75,1218.2537 C774.75,1242.5137 774.75,1263.8337 774.75,1288.7937 " fill="none" id="House-to-Location" style="stroke:#181818;stroke-width:1.0;"/><polygon fill="#181818" points="774.75,1294.7937,778.75,1285.7937,774.75,1289.7937,770.75,1285.7937,774.75,1294.7937" style="stroke:#181818;stroke-width:1.0;"/><text fill="#000000" font-family="sans-serif" font-size="13" lengthAdjust="spacing" textLength="7" x="781.7527" y="1240.0913">1</text><text fill="#000000" font-family="sans-serif" font-size="13" lengthAdjust="spacing" textLength="22" x="747.1035" y="1283.6691">0..1</text></g><!--link Location to Address--><g id="link_Location_Address"><path codeLine="96" d="M714.64,1441.0137 C645.72,1441.0137 570,1441.0137 570,1441.0137 C570,1441.0137 570,1502.3737 570,1569.8637 " fill="none" id="Location-to-Address" style="stroke:#181818;stroke-width:1.0;"/><polygon fill="#181818" points="570,1575.8637,574,1566.8637,570,1570.8637,566,1566.8637,570,1575.8637" style="stroke:#181818;stroke-width:1.0;"/><text fill="#000000" font-family="sans-serif" font-size="13" lengthAdjust="spacing" textLength="7" x="699.99" y="1441.9242">1</text><text fill="#000000" font-family="sans-serif" font-size="13" lengthAdjust="spacing" textLength="7" x="562.7977" y="1564.5536">1</text></g><!--link Location to GPSCode--><g id="link_Location_GPSCode"><path codeLine="97" d="M825,1455.1837 C825,1508.4537 825,1572.1137 825,1625.3737 " fill="none" id="Location-to-GPSCode" style="stroke:#181818;stroke-width:1.0;"/><polygon fill="#181818" points="825,1631.3737,829,1622.3737,825,1626.3737,821,1622.3737,825,1631.3737" style="stroke:#181818;stroke-width:1.0;"/><text fill="#000000" font-family="sans-serif" font-size="13" lengthAdjust="spacing" textLength="7" x="817.6992" y="1476.8563">1</text><text fill="#000000" font-family="sans-serif" font-size="13" lengthAdjust="spacing" textLength="7" x="817.6773" y="1620.2565">1</text></g><!--reverse link Repository to HouseRepository--><g id="link_Repository_HouseRepository"><path d="M163,817.1637 C163,841.1937 163,850.9337 163,875.8237 " fill="none" id="Repository-backto-HouseRepository" style="stroke:#181818;stroke-width:1.0;stroke-dasharray:7.0,7.0;"/><polygon fill="none" points="163,799.1637,157,817.1637,169,817.1637,163,799.1637" style="stroke:#181818;stroke-width:1.0;"/></g><!--link HouseRepository to House--><g id="link_HouseRepository_House"><path codeLine="110" d="M330.18,1008.0137 C437.15,1008.0137 560.5,1008.0137 560.5,1008.0137 C560.5,1008.0137 560.5,1036.3437 560.5,1070.9437 " fill="none" id="HouseRepository-to-House" style="stroke:#181818;stroke-width:1.0;stroke-dasharray:7.0,7.0;"/><polygon fill="#181818" points="560.5,1076.9437,564.5,1067.9437,560.5,1071.9437,556.5,1067.9437,560.5,1076.9437" style="stroke:#181818;stroke-width:1.0;"/></g><!--link HouseService to HouseRepository--><g id="link_HouseService_HouseRepository"><path codeLine="124" d="M378.75,564.3937 C378.75,681.7137 378.75,886.0137 378.75,886.0137 C378.75,886.0137 364.2,886.0137 336.19,886.0137 " fill="none" id="HouseService-to-HouseRepository" style="stroke:#181818;stroke-width:1.0;"/><polygon fill="#181818" points="330.19,886.0137,339.19,890.0137,335.19,886.0137,339.19,882.0137,330.19,886.0137" style="stroke:#181818;stroke-width:1.0;"/></g><!--link HouseService to FactoryHouse--><g id="link_HouseService_FactoryHouse"><path codeLine="125" d="M659.75,564.0337 C659.75,603.8737 659.75,644.9037 659.75,680.0137 " fill="none" id="HouseService-to-FactoryHouse" style="stroke:#181818;stroke-width:1.0;"/><polygon fill="#181818" points="659.75,686.0137,663.75,677.0137,659.75,681.0137,655.75,677.0137,659.75,686.0137" style="stroke:#181818;stroke-width:1.0;"/></g><!--SRC=[tLPBRzim3BxxLmYzh4CUtQv6O21hzWZGBSKIT9TT54jrjDgIPyd5kY3_VTJJifEXNNjRSh14VIBvKQIeLpkbQfbUNDGbvggjocakgekyn59E2CD5Wwj4tZ5UOnYXad6g7cgAHADs8abgdD_XWY922DedZ2lQtEASeXjSjdIr_K5pjKyEqS92L9ZnvGBHNufo8Xz3lkUAgOU03jltoOWHQXRFNwTekO2vNEEApkMvrOQ4-S3YLeYIOjxJFY-AXXPOqQz2g85wPrEx4-tuIciXcH9DvqrF2NZKrWGcgsQDx-dv1bdtm85DChfbdCpBqgXcL1gVGJFUbdIsoUowjVlkORau1uQC06PLAoOuBWqc5ro1U_84hgDuwCx4aDc7-KwqaW8hSxReavdD6l0yIsAU7t2kIPfru9Gt53YPsJUcTgjMNOaSQwyq1oC_0WN4MZMC5qYgXb8rHcvAX6Y-jDMMDa7qczMNWj0n-iwT90UAOJaNBLSDp8be8MAe1FMgrNWl4Bmmak0Jd9qbkgpgc19YLLtI2iv6_dTKZmX2MKu7IJenQR1SkCrGE5RYYQJ8Zv8H9QmBmPoGXe8HRBzZzF5whOcWefRw6sLXhpIzcQVKv_2i9fFCxa_HR6OZBxDC4mvPVQ_l3wjAzd8RIcDsiyg6uV0t24I2aTH57QZ-R77vTzT6IbYaPkJs79mr7w6JvdhNsyG7BqKkcY1ouKjzF9DHGPLRrjOyKeiTH8i3-bcUEzVzcJx1SvlOGSKaIkr825UamgNb4uGwl-EfpV0kza1iRRH7BchX8bWOB5m7AuE5IvTpiSXQYwKlYPXF-YT4p5TkwYfNYtpj1fbsySe1jRrOxC6n_5c-w__9sWgfsw-lKr2VAeyZVOZwoCG2kfA6Ay69pjwU6V7Pc-aKXk7-2TvPW4R0mDV3wLLV5jq5qVY-3Mrttxifeuu-qwYZ0uq0SA3Gst6AFkDwvlmVMpNPeF5RLg7vkxunV03uEmhQT_mMy1e7xu487JqAFFZ4mw2teRjWao7nwJJhkeWFcQJDFSlrMm71BuhOsYtC729p4FspRIHIdGwZt45luvn9UtquW5oddNEYeneQhZZLbH_PymzDEZJbqAPVtAHzz8EJlRRg1ulD2dQ5SRJFR3o4m_Dd40ef2l0He1VPG_87]--></g></svg>