<?xml version="1.0" encoding="us-ascii" standalone="no"?><svg xmlns="http://www.w3.org/2000/svg" xmlns:xlink="http://www.w3.org/1999/xlink" contentStyleType="text/css" height="865px" preserveAspectRatio="none" style="width:2480px;height:865px;background:#FFFFFF;" version="1.1" viewBox="0 0 2480 865" width="2480px" zoomAndPan="magnify"><defs/><g><!--cluster repositories--><g id="cluster_repositories"><path d="M2127.5,23.0137 L2214.5,23.0137 A3.75,3.75 0 0 1 2217,25.5137 L2224,47.6348 L2470.5,47.6348 A2.5,2.5 0 0 1 2473,50.1348 L2473,214.5137 A2.5,2.5 0 0 1 2470.5,217.0137 L2127.5,217.0137 A2.5,2.5 0 0 1 2125,214.5137 L2125,25.5137 A2.5,2.5 0 0 1 2127.5,23.0137 " fill="none" style="stroke:#000000;stroke-width:1.5;"/><line style="stroke:#000000;stroke-width:1.5;" x1="2125" x2="2224" y1="47.6348" y2="47.6348"/><text fill="#000000" font-family="sans-serif" font-size="14" font-weight="bold" lengthAdjust="spacing" textLength="86" x="2129" y="40.1211">repositories</text></g><!--cluster domain--><g id="cluster_domain"><path d="M8.5,6.0137 L60.5,6.0137 A3.75,3.75 0 0 1 63,8.5137 L70,30.6348 L2098.5,30.6348 A2.5,2.5 0 0 1 2101,33.1348 L2101,855.5137 A2.5,2.5 0 0 1 2098.5,858.0137 L8.5,858.0137 A2.5,2.5 0 0 1 6,855.5137 L6,8.5137 A2.5,2.5 0 0 1 8.5,6.0137 " fill="none" style="stroke:#000000;stroke-width:1.5;"/><line style="stroke:#000000;stroke-width:1.5;" x1="6" x2="70" y1="30.6348" y2="30.6348"/><text fill="#000000" font-family="sans-serif" font-size="14" font-weight="bold" lengthAdjust="spacing" textLength="51" x="10" y="23.1211">domain</text></g><!--cluster sensor--><g id="cluster_sensor"><path d="M32.5,51.0137 L82.5,51.0137 A3.75,3.75 0 0 1 85,53.5137 L92,75.6348 L1045.5,75.6348 A2.5,2.5 0 0 1 1048,78.1348 L1048,770.0137 A2.5,2.5 0 0 1 1045.5,772.5137 L32.5,772.5137 A2.5,2.5 0 0 1 30,770.0137 L30,53.5137 A2.5,2.5 0 0 1 32.5,51.0137 " fill="none" style="stroke:#000000;stroke-width:1.5;"/><line style="stroke:#000000;stroke-width:1.5;" x1="30" x2="92" y1="75.6348" y2="75.6348"/><text fill="#000000" font-family="sans-serif" font-size="14" font-weight="bold" lengthAdjust="spacing" textLength="49" x="34" y="68.1211">sensor</text></g><!--cluster DewPointCelsiusSensorAggregate--><g id="cluster_DewPointCelsiusSensorAggregate"><path d="M662.5,241.0137 L904.5,241.0137 A3.75,3.75 0 0 1 907,243.5137 L914,265.6348 L1021.5,265.6348 A2.5,2.5 0 0 1 1024,268.1348 L1024,525.5137 A2.5,2.5 0 0 1 1021.5,528.0137 L662.5,528.0137 A2.5,2.5 0 0 1 660,525.5137 L660,243.5137 A2.5,2.5 0 0 1 662.5,241.0137 " fill="none" style="stroke:#000000;stroke-width:1.5;"/><line style="stroke:#000000;stroke-width:1.5;" x1="660" x2="914" y1="265.6348" y2="265.6348"/><text fill="#000000" font-family="sans-serif" font-size="14" font-weight="bold" lengthAdjust="spacing" textLength="241" x="664" y="258.1211">DewPointCelsiusSensorAggregate</text></g><!--cluster valueobjects--><g id="cluster_valueobjects"><path d="M1074.5,552.0137 L1166.5,552.0137 A3.75,3.75 0 0 1 1169,554.5137 L1176,576.6348 L2074.5,576.6348 A2.5,2.5 0 0 1 2077,579.1348 L2077,831.5137 A2.5,2.5 0 0 1 2074.5,834.0137 L1074.5,834.0137 A2.5,2.5 0 0 1 1072,831.5137 L1072,554.5137 A2.5,2.5 0 0 1 1074.5,552.0137 " fill="none" style="stroke:#000000;stroke-width:1.5;"/><line style="stroke:#000000;stroke-width:1.5;" x1="1072" x2="1176" y1="576.6348" y2="576.6348"/><text fill="#000000" font-family="sans-serif" font-size="14" font-weight="bold" lengthAdjust="spacing" textLength="91" x="1076" y="569.1211">valueobjects</text></g><!--cluster sensorvalues--><g id="cluster_sensorvalues"><path d="M1783.5,597.0137 L1880.5,597.0137 A3.75,3.75 0 0 1 1883,599.5137 L1890,621.6348 L2050.5,621.6348 A2.5,2.5 0 0 1 2053,624.1348 L2053,807.5137 A2.5,2.5 0 0 1 2050.5,810.0137 L1783.5,810.0137 A2.5,2.5 0 0 1 1781,807.5137 L1781,599.5137 A2.5,2.5 0 0 1 1783.5,597.0137 " fill="none" style="stroke:#000000;stroke-width:1.5;"/><line style="stroke:#000000;stroke-width:1.5;" x1="1781" x2="1890" y1="621.6348" y2="621.6348"/><text fill="#000000" font-family="sans-serif" font-size="14" font-weight="bold" lengthAdjust="spacing" textLength="96" x="1785" y="614.1211">sensorvalues</text></g><!--class SensorRepository--><g id="elem_SensorRepository"><rect codeLine="80" fill="#F1F1F1" height="141.1055" id="SensorRepository" rx="2.5" ry="2.5" style="stroke:#181818;stroke-width:0.5;" width="316" x="2141" y="60.0137"/><ellipse cx="2223.75" cy="76.0137" fill="#ADD1B2" rx="11" ry="11" style="stroke:#181818;stroke-width:1.0;"/><path d="M2226.5156,71.8887 Q2226.6719,71.6699 2226.8594,71.5605 Q2227.0469,71.4512 2227.2656,71.4512 Q2227.6406,71.4512 2227.875,71.7168 Q2228.1094,71.9668 2228.1094,72.5762 L2228.1094,74.0293 Q2228.1094,74.6387 2227.875,74.9043 Q2227.6406,75.1699 2227.2656,75.1699 Q2226.9219,75.1699 2226.7188,74.9668 Q2226.5156,74.7793 2226.4063,74.2637 Q2226.3594,73.9043 2226.1719,73.7168 Q2225.8438,73.3418 2225.2344,73.123 Q2224.625,72.9043 2224,72.9043 Q2223.2344,72.9043 2222.5938,73.2324 Q2221.9688,73.5605 2221.4688,74.3105 Q2220.9844,75.0605 2220.9844,76.0918 L2220.9844,77.1855 Q2220.9844,78.4199 2221.875,79.248 Q2222.7656,80.0605 2224.3594,80.0605 Q2225.2969,80.0605 2225.9531,79.8105 Q2226.3438,79.6543 2226.7656,79.2168 Q2227.0313,78.9512 2227.1719,78.873 Q2227.3281,78.7949 2227.5313,78.7949 Q2227.8594,78.7949 2228.1094,79.0605 Q2228.375,79.3105 2228.375,79.6543 Q2228.375,79.998 2228.0313,80.4043 Q2227.5313,80.9824 2226.7344,81.3105 Q2225.6563,81.7637 2224.3594,81.7637 Q2222.8438,81.7637 2221.6406,81.1387 Q2220.6563,80.6387 2219.9688,79.5762 Q2219.2813,78.498 2219.2813,77.2168 L2219.2813,76.0605 Q2219.2813,74.7324 2219.8906,73.5918 Q2220.5156,72.4355 2221.6094,71.8262 Q2222.7031,71.2012 2223.9375,71.2012 Q2224.6719,71.2012 2225.3125,71.373 Q2225.9688,71.5293 2226.5156,71.8887 Z " fill="#000000"/><text fill="#000000" font-family="sans-serif" font-size="14" lengthAdjust="spacing" textLength="113" x="2244.25" y="81.8105">SensorRepository</text><rect fill="#FFFFFF" height="17.9609" style="stroke:#181818;stroke-width:1.0;stroke-dasharray:2.0,2.0;" width="27" x="2433" y="57.0137"/><text fill="#000000" font-family="sans-serif" font-size="12" font-style="italic" lengthAdjust="spacing" textLength="25" x="2434" y="70.9629">repo</text><line style="stroke:#181818;stroke-width:0.5;" x1="2142" x2="2456" y1="92.0137" y2="92.0137"/><rect fill="none" height="6" style="stroke:#C82930;stroke-width:1.0;" width="6" x="2149" y="103.8242"/><text fill="#000000" font-family="sans-serif" font-size="14" lengthAdjust="spacing" textLength="213" x="2161" y="111.1211">Map&lt;SensorID, Sensor&gt; dataMap</text><line style="stroke:#181818;stroke-width:0.5;" x1="2142" x2="2456" y1="118.6348" y2="118.6348"/><ellipse cx="2152" cy="133.4453" fill="#84BE84" rx="3" ry="3" style="stroke:#038048;stroke-width:1.0;"/><text fill="#000000" font-family="sans-serif" font-size="14" lengthAdjust="spacing" textLength="238" x="2161" y="137.7422">updateOrSave(Sensor entity): Sensor</text><ellipse cx="2152" cy="152.0664" fill="#84BE84" rx="3" ry="3" style="stroke:#038048;stroke-width:1.0;"/><text fill="#000000" font-family="sans-serif" font-size="14" lengthAdjust="spacing" textLength="210" x="2161" y="156.3633">findAllEntities(): Iterable&lt;Sensor&gt;</text><ellipse cx="2152" cy="170.6875" fill="#84BE84" rx="3" ry="3" style="stroke:#038048;stroke-width:1.0;"/><text fill="#000000" font-family="sans-serif" font-size="14" lengthAdjust="spacing" textLength="290" x="2161" y="174.9844">findEntityById(SensorID id): Optional&lt;Sensor&gt;</text><ellipse cx="2152" cy="189.3086" fill="#84BE84" rx="3" ry="3" style="stroke:#038048;stroke-width:1.0;"/><text fill="#000000" font-family="sans-serif" font-size="14" lengthAdjust="spacing" textLength="259" x="2161" y="193.6055">containsEntityByID(SensorID id): boolean</text></g><!--class FactorySensor--><g id="elem_FactorySensor"><rect codeLine="7" fill="#F1F1F1" height="85.2422" id="FactorySensor" rx="2.5" ry="2.5" style="stroke:#181818;stroke-width:0.5;" width="436" x="371" y="88.0137"/><ellipse cx="538.25" cy="104.0137" fill="#ADD1B2" rx="11" ry="11" style="stroke:#181818;stroke-width:1.0;"/><path d="M541.0156,99.8887 Q541.1719,99.6699 541.3594,99.5605 Q541.5469,99.4512 541.7656,99.4512 Q542.1406,99.4512 542.375,99.7168 Q542.6094,99.9668 542.6094,100.5762 L542.6094,102.0293 Q542.6094,102.6387 542.375,102.9043 Q542.1406,103.1699 541.7656,103.1699 Q541.4219,103.1699 541.2188,102.9668 Q541.0156,102.7793 540.9063,102.2637 Q540.8594,101.9043 540.6719,101.7168 Q540.3438,101.3418 539.7344,101.123 Q539.125,100.9043 538.5,100.9043 Q537.7344,100.9043 537.0938,101.2324 Q536.4688,101.5605 535.9688,102.3105 Q535.4844,103.0605 535.4844,104.0918 L535.4844,105.1855 Q535.4844,106.4199 536.375,107.248 Q537.2656,108.0605 538.8594,108.0605 Q539.7969,108.0605 540.4531,107.8105 Q540.8438,107.6543 541.2656,107.2168 Q541.5313,106.9512 541.6719,106.873 Q541.8281,106.7949 542.0313,106.7949 Q542.3594,106.7949 542.6094,107.0605 Q542.875,107.3105 542.875,107.6543 Q542.875,107.998 542.5313,108.4043 Q542.0313,108.9824 541.2344,109.3105 Q540.1563,109.7637 538.8594,109.7637 Q537.3438,109.7637 536.1406,109.1387 Q535.1563,108.6387 534.4688,107.5762 Q533.7813,106.498 533.7813,105.2168 L533.7813,104.0605 Q533.7813,102.7324 534.3906,101.5918 Q535.0156,100.4355 536.1094,99.8262 Q537.2031,99.2012 538.4375,99.2012 Q539.1719,99.2012 539.8125,99.373 Q540.4688,99.5293 541.0156,99.8887 Z " fill="#000000"/><text fill="#000000" font-family="sans-serif" font-size="14" lengthAdjust="spacing" textLength="93" x="558.75" y="109.8105">FactorySensor</text><line style="stroke:#181818;stroke-width:0.5;" x1="372" x2="806" y1="120.0137" y2="120.0137"/><rect fill="none" height="6" style="stroke:#C82930;stroke-width:1.0;" width="6" x="379" y="131.8242"/><text fill="#000000" font-family="sans-serif" font-size="14" lengthAdjust="spacing" textLength="167" x="391" y="139.1211">FactoryValue factoryValue</text><line style="stroke:#181818;stroke-width:0.5;" x1="372" x2="806" y1="146.6348" y2="146.6348"/><ellipse cx="382" cy="161.4453" fill="#84BE84" rx="3" ry="3" style="stroke:#038048;stroke-width:1.0;"/><text fill="#000000" font-family="sans-serif" font-size="14" lengthAdjust="spacing" textLength="410" x="391" y="165.7422">createSensor(sensorID, sensorFunctionalityID, deviceID): Sensor</text></g><!--class Sensor--><g id="elem_Sensor"><rect codeLine="11" fill="#F1F1F1" height="103.8633" id="Sensor" rx="2.5" ry="2.5" style="stroke:#181818;stroke-width:0.5;" width="327" x="48.5" y="343.0137"/><ellipse cx="185.25" cy="359.0137" fill="#B4A7E5" rx="11" ry="11" style="stroke:#181818;stroke-width:1.0;"/><path d="M186.2031,355.6543 L186.2031,362.3105 L187.9219,362.3105 Q188.5313,362.3105 188.7969,362.5449 Q189.0625,362.7793 189.0625,363.1699 Q189.0625,363.5449 188.7969,363.7793 Q188.5313,364.0137 187.9219,364.0137 L182.7813,364.0137 Q182.1719,364.0137 181.9063,363.7793 Q181.6406,363.5449 181.6406,363.1543 Q181.6406,362.7793 181.9063,362.5449 Q182.1719,362.3105 182.7813,362.3105 L184.5,362.3105 L184.5,355.6543 L182.7813,355.6543 Q182.1719,355.6543 181.9063,355.4199 Q181.6406,355.1855 181.6406,354.7949 Q181.6406,354.4199 181.9063,354.1855 Q182.1719,353.9512 182.7813,353.9512 L187.9219,353.9512 Q188.5313,353.9512 188.7969,354.1855 Q189.0625,354.4199 189.0625,354.7949 Q189.0625,355.1855 188.7969,355.4199 Q188.5313,355.6543 187.9219,355.6543 L186.2031,355.6543 Z " fill="#000000"/><text fill="#000000" font-family="sans-serif" font-size="14" font-style="italic" lengthAdjust="spacing" textLength="45" x="205.75" y="364.8105">Sensor</text><line style="stroke:#181818;stroke-width:0.5;" x1="49.5" x2="374.5" y1="375.0137" y2="375.0137"/><line style="stroke:#181818;stroke-width:0.5;" x1="49.5" x2="374.5" y1="383.0137" y2="383.0137"/><ellipse cx="59.5" cy="397.8242" fill="#84BE84" rx="3" ry="3" style="stroke:#038048;stroke-width:1.0;"/><text fill="#000000" font-family="sans-serif" font-size="14" lengthAdjust="spacing" textLength="156" x="68.5" y="402.1211">getSensorName(): String</text><ellipse cx="59.5" cy="416.4453" fill="#84BE84" rx="3" ry="3" style="stroke:#038048;stroke-width:1.0;"/><text fill="#000000" font-family="sans-serif" font-size="14" lengthAdjust="spacing" textLength="301" x="68.5" y="420.7422">getSensorFunctionality(): SensorFunctionalityID</text><ellipse cx="59.5" cy="435.0664" fill="#84BE84" rx="3" ry="3" style="stroke:#038048;stroke-width:1.0;"/><text fill="#000000" font-family="sans-serif" font-size="14" lengthAdjust="spacing" textLength="173" x="68.5" y="439.3633">getDeviceName(): DeviceID</text></g><!--class Value--><g id="elem_Value"><rect codeLine="16" fill="#F1F1F1" height="66.6211" id="Value" rx="2.5" ry="2.5" style="stroke:#181818;stroke-width:0.5;" width="189" x="842.5" y="97.0137"/><ellipse cx="914.75" cy="113.0137" fill="#B4A7E5" rx="11" ry="11" style="stroke:#181818;stroke-width:1.0;"/><path d="M915.7031,109.6543 L915.7031,116.3105 L917.4219,116.3105 Q918.0313,116.3105 918.2969,116.5449 Q918.5625,116.7793 918.5625,117.1699 Q918.5625,117.5449 918.2969,117.7793 Q918.0313,118.0137 917.4219,118.0137 L912.2813,118.0137 Q911.6719,118.0137 911.4063,117.7793 Q911.1406,117.5449 911.1406,117.1543 Q911.1406,116.7793 911.4063,116.5449 Q911.6719,116.3105 912.2813,116.3105 L914,116.3105 L914,109.6543 L912.2813,109.6543 Q911.6719,109.6543 911.4063,109.4199 Q911.1406,109.1855 911.1406,108.7949 Q911.1406,108.4199 911.4063,108.1855 Q911.6719,107.9512 912.2813,107.9512 L917.4219,107.9512 Q918.0313,107.9512 918.2969,108.1855 Q918.5625,108.4199 918.5625,108.7949 Q918.5625,109.1855 918.2969,109.4199 Q918.0313,109.6543 917.4219,109.6543 L915.7031,109.6543 Z " fill="#000000"/><text fill="#000000" font-family="sans-serif" font-size="14" font-style="italic" lengthAdjust="spacing" textLength="36" x="935.25" y="118.8105">Value</text><line style="stroke:#181818;stroke-width:0.5;" x1="843.5" x2="1030.5" y1="129.0137" y2="129.0137"/><line style="stroke:#181818;stroke-width:0.5;" x1="843.5" x2="1030.5" y1="137.0137" y2="137.0137"/><ellipse cx="853.5" cy="151.8242" fill="#84BE84" rx="3" ry="3" style="stroke:#038048;stroke-width:1.0;"/><text fill="#000000" font-family="sans-serif" font-size="14" lengthAdjust="spacing" textLength="163" x="862.5" y="156.1211">getValueWithUnit(): String</text></g><!--class SensorPeriodOfTime--><g id="elem_SensorPeriodOfTime"><rect codeLine="19" fill="#F1F1F1" height="85.2422" id="SensorPeriodOfTime" rx="2.5" ry="2.5" style="stroke:#181818;stroke-width:0.5;" width="331" x="46.5" y="671.5137"/><ellipse cx="141.75" cy="687.5137" fill="#B4A7E5" rx="11" ry="11" style="stroke:#181818;stroke-width:1.0;"/><path d="M142.7031,684.1543 L142.7031,690.8105 L144.4219,690.8105 Q145.0313,690.8105 145.2969,691.0449 Q145.5625,691.2793 145.5625,691.6699 Q145.5625,692.0449 145.2969,692.2793 Q145.0313,692.5137 144.4219,692.5137 L139.2813,692.5137 Q138.6719,692.5137 138.4063,692.2793 Q138.1406,692.0449 138.1406,691.6543 Q138.1406,691.2793 138.4063,691.0449 Q138.6719,690.8105 139.2813,690.8105 L141,690.8105 L141,684.1543 L139.2813,684.1543 Q138.6719,684.1543 138.4063,683.9199 Q138.1406,683.6855 138.1406,683.2949 Q138.1406,682.9199 138.4063,682.6855 Q138.6719,682.4512 139.2813,682.4512 L144.4219,682.4512 Q145.0313,682.4512 145.2969,682.6855 Q145.5625,682.9199 145.5625,683.2949 Q145.5625,683.6855 145.2969,683.9199 Q145.0313,684.1543 144.4219,684.1543 L142.7031,684.1543 Z " fill="#000000"/><text fill="#000000" font-family="sans-serif" font-size="14" font-style="italic" lengthAdjust="spacing" textLength="132" x="162.25" y="693.3105">SensorPeriodOfTime</text><line style="stroke:#181818;stroke-width:0.5;" x1="47.5" x2="376.5" y1="703.5137" y2="703.5137"/><line style="stroke:#181818;stroke-width:0.5;" x1="47.5" x2="376.5" y1="711.5137" y2="711.5137"/><ellipse cx="57.5" cy="735.6348" fill="#84BE84" rx="3" ry="3" style="stroke:#038048;stroke-width:1.0;"/><text fill="#000000" font-family="sans-serif" font-size="14" lengthAdjust="spacing" textLength="305" x="66.5" y="730.6211">getValueForPeriodOfTime(Timestamp startDate,</text><text fill="#000000" font-family="sans-serif" font-size="14" lengthAdjust="spacing" textLength="177" x="70.5" y="749.2422">Timestamp endDate): String</text></g><!--class FactoryValue--><g id="elem_FactoryValue"><rect codeLine="37" fill="#F1F1F1" height="66.6211" id="FactoryValue" rx="2.5" ry="2.5" style="stroke:#181818;stroke-width:0.5;" width="619" x="412.5" y="680.5137"/><ellipse cx="675.75" cy="696.5137" fill="#ADD1B2" rx="11" ry="11" style="stroke:#181818;stroke-width:1.0;"/><path d="M678.5156,692.3887 Q678.6719,692.1699 678.8594,692.0605 Q679.0469,691.9512 679.2656,691.9512 Q679.6406,691.9512 679.875,692.2168 Q680.1094,692.4668 680.1094,693.0762 L680.1094,694.5293 Q680.1094,695.1387 679.875,695.4043 Q679.6406,695.6699 679.2656,695.6699 Q678.9219,695.6699 678.7188,695.4668 Q678.5156,695.2793 678.4063,694.7637 Q678.3594,694.4043 678.1719,694.2168 Q677.8438,693.8418 677.2344,693.623 Q676.625,693.4043 676,693.4043 Q675.2344,693.4043 674.5938,693.7324 Q673.9688,694.0605 673.4688,694.8105 Q672.9844,695.5605 672.9844,696.5918 L672.9844,697.6855 Q672.9844,698.9199 673.875,699.748 Q674.7656,700.5605 676.3594,700.5605 Q677.2969,700.5605 677.9531,700.3105 Q678.3438,700.1543 678.7656,699.7168 Q679.0313,699.4512 679.1719,699.373 Q679.3281,699.2949 679.5313,699.2949 Q679.8594,699.2949 680.1094,699.5605 Q680.375,699.8105 680.375,700.1543 Q680.375,700.498 680.0313,700.9043 Q679.5313,701.4824 678.7344,701.8105 Q677.6563,702.2637 676.3594,702.2637 Q674.8438,702.2637 673.6406,701.6387 Q672.6563,701.1387 671.9688,700.0762 Q671.2813,698.998 671.2813,697.7168 L671.2813,696.5605 Q671.2813,695.2324 671.8906,694.0918 Q672.5156,692.9355 673.6094,692.3262 Q674.7031,691.7012 675.9375,691.7012 Q676.6719,691.7012 677.3125,691.873 Q677.9688,692.0293 678.5156,692.3887 Z " fill="#000000"/><text fill="#000000" font-family="sans-serif" font-size="14" lengthAdjust="spacing" textLength="84" x="696.25" y="702.3105">FactoryValue</text><line style="stroke:#181818;stroke-width:0.5;" x1="413.5" x2="1030.5" y1="712.5137" y2="712.5137"/><line style="stroke:#181818;stroke-width:0.5;" x1="413.5" x2="1030.5" y1="720.5137" y2="720.5137"/><polygon fill="#FFFF44" points="423.5,730.3242,427.5,734.3242,423.5,738.3242,419.5,734.3242" style="stroke:#B38D22;stroke-width:1.0;"/><text fill="#000000" font-family="sans-serif" font-size="14" lengthAdjust="spacing" textLength="593" x="432.5" y="739.6211">createValueSpecificTime(String className, Timestamp startDate, Timestamp endDate): Value</text></g><!--class PowerAverageSensor--><g id="elem_PowerAverageSensor"><rect codeLine="23" fill="#F1F1F1" height="234.2109" id="PowerAverageSensor" rx="2.5" ry="2.5" style="stroke:#181818;stroke-width:0.5;" width="331" x="676.5" y="278.0137"/><ellipse cx="754.25" cy="294.0137" fill="#ADD1B2" rx="11" ry="11" style="stroke:#181818;stroke-width:1.0;"/><path d="M757.0156,289.8887 Q757.1719,289.6699 757.3594,289.5605 Q757.5469,289.4512 757.7656,289.4512 Q758.1406,289.4512 758.375,289.7168 Q758.6094,289.9668 758.6094,290.5762 L758.6094,292.0293 Q758.6094,292.6387 758.375,292.9043 Q758.1406,293.1699 757.7656,293.1699 Q757.4219,293.1699 757.2188,292.9668 Q757.0156,292.7793 756.9063,292.2637 Q756.8594,291.9043 756.6719,291.7168 Q756.3438,291.3418 755.7344,291.123 Q755.125,290.9043 754.5,290.9043 Q753.7344,290.9043 753.0938,291.2324 Q752.4688,291.5605 751.9688,292.3105 Q751.4844,293.0605 751.4844,294.0918 L751.4844,295.1855 Q751.4844,296.4199 752.375,297.248 Q753.2656,298.0605 754.8594,298.0605 Q755.7969,298.0605 756.4531,297.8105 Q756.8438,297.6543 757.2656,297.2168 Q757.5313,296.9512 757.6719,296.873 Q757.8281,296.7949 758.0313,296.7949 Q758.3594,296.7949 758.6094,297.0605 Q758.875,297.3105 758.875,297.6543 Q758.875,297.998 758.5313,298.4043 Q758.0313,298.9824 757.2344,299.3105 Q756.1563,299.7637 754.8594,299.7637 Q753.3438,299.7637 752.1406,299.1387 Q751.1563,298.6387 750.4688,297.5762 Q749.7813,296.498 749.7813,295.2168 L749.7813,294.0605 Q749.7813,292.7324 750.3906,291.5918 Q751.0156,290.4355 752.1094,289.8262 Q753.2031,289.2012 754.4375,289.2012 Q755.1719,289.2012 755.8125,289.373 Q756.4688,289.5293 757.0156,289.8887 Z " fill="#000000"/><text fill="#000000" font-family="sans-serif" font-size="14" lengthAdjust="spacing" textLength="137" x="774.75" y="299.8105">PowerAverageSensor</text><rect fill="#FFFFFF" height="17.9609" style="stroke:#181818;stroke-width:1.0;stroke-dasharray:2.0,2.0;" width="28" x="982.5" y="275.0137"/><text fill="#000000" font-family="sans-serif" font-size="12" font-style="italic" lengthAdjust="spacing" textLength="26" x="983.5" y="288.9629">Root</text><line style="stroke:#181818;stroke-width:0.5;" x1="677.5" x2="1006.5" y1="310.0137" y2="310.0137"/><rect fill="none" height="6" style="stroke:#C82930;stroke-width:1.0;" width="6" x="684.5" y="321.8242"/><text fill="#000000" font-family="sans-serif" font-size="14" lengthAdjust="spacing" textLength="118" x="696.5" y="329.1211">SensorID sensorID</text><rect fill="none" height="6" style="stroke:#C82930;stroke-width:1.0;" width="6" x="684.5" y="340.4453"/><text fill="#000000" font-family="sans-serif" font-size="14" lengthAdjust="spacing" textLength="278" x="696.5" y="347.7422">SensorFunctionalityID sensorFunctionalityID</text><rect fill="none" height="6" style="stroke:#C82930;stroke-width:1.0;" width="6" x="684.5" y="359.0664"/><text fill="#000000" font-family="sans-serif" font-size="14" lengthAdjust="spacing" textLength="114" x="696.5" y="366.3633">DeviceID deviceID</text><rect fill="none" height="6" style="stroke:#C82930;stroke-width:1.0;" width="6" x="684.5" y="377.6875"/><text fill="#000000" font-family="sans-serif" font-size="14" lengthAdjust="spacing" textLength="167" x="696.5" y="384.9844">FactoryValue factoryValue</text><line style="stroke:#181818;stroke-width:0.5;" x1="677.5" x2="1006.5" y1="392.498" y2="392.498"/><ellipse cx="687.5" cy="407.3086" fill="#84BE84" rx="3" ry="3" style="stroke:#038048;stroke-width:1.0;"/><text fill="#000000" font-family="sans-serif" font-size="14" lengthAdjust="spacing" textLength="156" x="696.5" y="411.6055">getSensorName(): String</text><ellipse cx="687.5" cy="425.9297" fill="#84BE84" rx="3" ry="3" style="stroke:#038048;stroke-width:1.0;"/><text fill="#000000" font-family="sans-serif" font-size="14" lengthAdjust="spacing" textLength="301" x="696.5" y="430.2266">getSensorFunctionality(): SensorFunctionalityID</text><ellipse cx="687.5" cy="444.5508" fill="#84BE84" rx="3" ry="3" style="stroke:#038048;stroke-width:1.0;"/><text fill="#000000" font-family="sans-serif" font-size="14" lengthAdjust="spacing" textLength="214" x="696.5" y="448.8477">isSameAs(Object object): boolean</text><ellipse cx="687.5" cy="463.1719" fill="#84BE84" rx="3" ry="3" style="stroke:#038048;stroke-width:1.0;"/><text fill="#000000" font-family="sans-serif" font-size="14" lengthAdjust="spacing" textLength="173" x="696.5" y="467.4688">getDeviceName(): DeviceID</text><ellipse cx="687.5" cy="491.1035" fill="#84BE84" rx="3" ry="3" style="stroke:#038048;stroke-width:1.0;"/><text fill="#000000" font-family="sans-serif" font-size="14" lengthAdjust="spacing" textLength="305" x="696.5" y="486.0898">getValueForPeriodOfTime(Timestamp startDate,</text><text fill="#000000" font-family="sans-serif" font-size="14" lengthAdjust="spacing" textLength="177" x="700.5" y="504.7109">Timestamp endDate): String</text></g><!--class SensorID--><g id="elem_SensorID"><rect codeLine="43" fill="#F1F1F1" height="103.8633" id="SensorID" rx="2.5" ry="2.5" style="stroke:#181818;stroke-width:0.5;" width="220" x="1542" y="662.0137"/><ellipse cx="1608.25" cy="678.0137" fill="#ADD1B2" rx="11" ry="11" style="stroke:#181818;stroke-width:1.0;"/><path d="M1611.0156,673.8887 Q1611.1719,673.6699 1611.3594,673.5605 Q1611.5469,673.4512 1611.7656,673.4512 Q1612.1406,673.4512 1612.375,673.7168 Q1612.6094,673.9668 1612.6094,674.5762 L1612.6094,676.0293 Q1612.6094,676.6387 1612.375,676.9043 Q1612.1406,677.1699 1611.7656,677.1699 Q1611.4219,677.1699 1611.2188,676.9668 Q1611.0156,676.7793 1610.9063,676.2637 Q1610.8594,675.9043 1610.6719,675.7168 Q1610.3438,675.3418 1609.7344,675.123 Q1609.125,674.9043 1608.5,674.9043 Q1607.7344,674.9043 1607.0938,675.2324 Q1606.4688,675.5605 1605.9688,676.3105 Q1605.4844,677.0605 1605.4844,678.0918 L1605.4844,679.1855 Q1605.4844,680.4199 1606.375,681.248 Q1607.2656,682.0605 1608.8594,682.0605 Q1609.7969,682.0605 1610.4531,681.8105 Q1610.8438,681.6543 1611.2656,681.2168 Q1611.5313,680.9512 1611.6719,680.873 Q1611.8281,680.7949 1612.0313,680.7949 Q1612.3594,680.7949 1612.6094,681.0605 Q1612.875,681.3105 1612.875,681.6543 Q1612.875,681.998 1612.5313,682.4043 Q1612.0313,682.9824 1611.2344,683.3105 Q1610.1563,683.7637 1608.8594,683.7637 Q1607.3438,683.7637 1606.1406,683.1387 Q1605.1563,682.6387 1604.4688,681.5762 Q1603.7813,680.498 1603.7813,679.2168 L1603.7813,678.0605 Q1603.7813,676.7324 1604.3906,675.5918 Q1605.0156,674.4355 1606.1094,673.8262 Q1607.2031,673.2012 1608.4375,673.2012 Q1609.1719,673.2012 1609.8125,673.373 Q1610.4688,673.5293 1611.0156,673.8887 Z " fill="#000000"/><text fill="#000000" font-family="sans-serif" font-size="14" lengthAdjust="spacing" textLength="58" x="1628.75" y="683.8105">SensorID</text><rect fill="#FFFFFF" height="17.9609" style="stroke:#181818;stroke-width:1.0;stroke-dasharray:2.0,2.0;" width="19" x="1746" y="659.0137"/><text fill="#000000" font-family="sans-serif" font-size="12" font-style="italic" lengthAdjust="spacing" textLength="17" x="1747" y="672.9629">VO</text><line style="stroke:#181818;stroke-width:0.5;" x1="1543" x2="1761" y1="694.0137" y2="694.0137"/><rect fill="none" height="6" style="stroke:#C82930;stroke-width:1.0;" width="6" x="1550" y="705.8242"/><text fill="#000000" font-family="sans-serif" font-size="14" lengthAdjust="spacing" textLength="124" x="1562" y="713.1211">sensorName: String</text><line style="stroke:#181818;stroke-width:0.5;" x1="1543" x2="1761" y1="720.6348" y2="720.6348"/><ellipse cx="1553" cy="735.4453" fill="#84BE84" rx="3" ry="3" style="stroke:#038048;stroke-width:1.0;"/><text fill="#000000" font-family="sans-serif" font-size="14" lengthAdjust="spacing" textLength="156" x="1562" y="739.7422">getSensorName(): String</text><ellipse cx="1553" cy="754.0664" fill="#84BE84" rx="3" ry="3" style="stroke:#038048;stroke-width:1.0;"/><text fill="#000000" font-family="sans-serif" font-size="14" lengthAdjust="spacing" textLength="194" x="1562" y="758.3633">equals(Object object): boolean</text></g><!--class SensorFunctionalityID--><g id="elem_SensorFunctionalityID"><rect codeLine="49" fill="#F1F1F1" height="103.8633" id="SensorFunctionalityID" rx="2.5" ry="2.5" style="stroke:#181818;stroke-width:0.5;" width="194" x="1313" y="662.0137"/><ellipse cx="1329.35" cy="678.0137" fill="#ADD1B2" rx="11" ry="11" style="stroke:#181818;stroke-width:1.0;"/><path d="M1332.1156,673.8887 Q1332.2719,673.6699 1332.4594,673.5605 Q1332.6469,673.4512 1332.8656,673.4512 Q1333.2406,673.4512 1333.475,673.7168 Q1333.7094,673.9668 1333.7094,674.5762 L1333.7094,676.0293 Q1333.7094,676.6387 1333.475,676.9043 Q1333.2406,677.1699 1332.8656,677.1699 Q1332.5219,677.1699 1332.3188,676.9668 Q1332.1156,676.7793 1332.0063,676.2637 Q1331.9594,675.9043 1331.7719,675.7168 Q1331.4438,675.3418 1330.8344,675.123 Q1330.225,674.9043 1329.6,674.9043 Q1328.8344,674.9043 1328.1938,675.2324 Q1327.5688,675.5605 1327.0688,676.3105 Q1326.5844,677.0605 1326.5844,678.0918 L1326.5844,679.1855 Q1326.5844,680.4199 1327.475,681.248 Q1328.3656,682.0605 1329.9594,682.0605 Q1330.8969,682.0605 1331.5531,681.8105 Q1331.9438,681.6543 1332.3656,681.2168 Q1332.6313,680.9512 1332.7719,680.873 Q1332.9281,680.7949 1333.1313,680.7949 Q1333.4594,680.7949 1333.7094,681.0605 Q1333.975,681.3105 1333.975,681.6543 Q1333.975,681.998 1333.6313,682.4043 Q1333.1313,682.9824 1332.3344,683.3105 Q1331.2563,683.7637 1329.9594,683.7637 Q1328.4438,683.7637 1327.2406,683.1387 Q1326.2563,682.6387 1325.5688,681.5762 Q1324.8813,680.498 1324.8813,679.2168 L1324.8813,678.0605 Q1324.8813,676.7324 1325.4906,675.5918 Q1326.1156,674.4355 1327.2094,673.8262 Q1328.3031,673.2012 1329.5375,673.2012 Q1330.2719,673.2012 1330.9125,673.373 Q1331.5688,673.5293 1332.1156,673.8887 Z " fill="#000000"/><text fill="#000000" font-family="sans-serif" font-size="14" lengthAdjust="spacing" textLength="138" x="1343.65" y="683.8105">SensorFunctionalityID</text><rect fill="#FFFFFF" height="17.9609" style="stroke:#181818;stroke-width:1.0;stroke-dasharray:2.0,2.0;" width="19" x="1491" y="659.0137"/><text fill="#000000" font-family="sans-serif" font-size="12" font-style="italic" lengthAdjust="spacing" textLength="17" x="1492" y="672.9629">VO</text><line style="stroke:#181818;stroke-width:0.5;" x1="1314" x2="1506" y1="694.0137" y2="694.0137"/><rect fill="none" height="6" style="stroke:#C82930;stroke-width:1.0;" width="6" x="1321" y="705.8242"/><text fill="#000000" font-family="sans-serif" font-size="14" lengthAdjust="spacing" textLength="168" x="1333" y="713.1211">sensorFunctionality: String</text><line style="stroke:#181818;stroke-width:0.5;" x1="1314" x2="1506" y1="720.6348" y2="720.6348"/><ellipse cx="1324" cy="735.4453" fill="#84BE84" rx="3" ry="3" style="stroke:#038048;stroke-width:1.0;"/><text fill="#000000" font-family="sans-serif" font-size="14" lengthAdjust="spacing" textLength="164" x="1333" y="739.7422">equals(Object o): boolean</text><ellipse cx="1324" cy="754.0664" fill="#84BE84" rx="3" ry="3" style="stroke:#038048;stroke-width:1.0;"/><text fill="#000000" font-family="sans-serif" font-size="14" lengthAdjust="spacing" textLength="104" x="1333" y="758.3633">toString(): String</text></g><!--class DeviceID--><g id="elem_DeviceID"><rect codeLine="55" fill="#F1F1F1" height="141.1055" id="DeviceID" rx="2.5" ry="2.5" style="stroke:#181818;stroke-width:0.5;" width="190" x="1088" y="643.5137"/><ellipse cx="1140.25" cy="659.5137" fill="#ADD1B2" rx="11" ry="11" style="stroke:#181818;stroke-width:1.0;"/><path d="M1143.0156,655.3887 Q1143.1719,655.1699 1143.3594,655.0605 Q1143.5469,654.9512 1143.7656,654.9512 Q1144.1406,654.9512 1144.375,655.2168 Q1144.6094,655.4668 1144.6094,656.0762 L1144.6094,657.5293 Q1144.6094,658.1387 1144.375,658.4043 Q1144.1406,658.6699 1143.7656,658.6699 Q1143.4219,658.6699 1143.2188,658.4668 Q1143.0156,658.2793 1142.9063,657.7637 Q1142.8594,657.4043 1142.6719,657.2168 Q1142.3438,656.8418 1141.7344,656.623 Q1141.125,656.4043 1140.5,656.4043 Q1139.7344,656.4043 1139.0938,656.7324 Q1138.4688,657.0605 1137.9688,657.8105 Q1137.4844,658.5605 1137.4844,659.5918 L1137.4844,660.6855 Q1137.4844,661.9199 1138.375,662.748 Q1139.2656,663.5605 1140.8594,663.5605 Q1141.7969,663.5605 1142.4531,663.3105 Q1142.8438,663.1543 1143.2656,662.7168 Q1143.5313,662.4512 1143.6719,662.373 Q1143.8281,662.2949 1144.0313,662.2949 Q1144.3594,662.2949 1144.6094,662.5605 Q1144.875,662.8105 1144.875,663.1543 Q1144.875,663.498 1144.5313,663.9043 Q1144.0313,664.4824 1143.2344,664.8105 Q1142.1563,665.2637 1140.8594,665.2637 Q1139.3438,665.2637 1138.1406,664.6387 Q1137.1563,664.1387 1136.4688,663.0762 Q1135.7813,661.998 1135.7813,660.7168 L1135.7813,659.5605 Q1135.7813,658.2324 1136.3906,657.0918 Q1137.0156,655.9355 1138.1094,655.3262 Q1139.2031,654.7012 1140.4375,654.7012 Q1141.1719,654.7012 1141.8125,654.873 Q1142.4688,655.0293 1143.0156,655.3887 Z " fill="#000000"/><text fill="#000000" font-family="sans-serif" font-size="14" lengthAdjust="spacing" textLength="56" x="1160.75" y="665.3105">DeviceID</text><rect fill="#FFFFFF" height="17.9609" style="stroke:#181818;stroke-width:1.0;stroke-dasharray:2.0,2.0;" width="19" x="1262" y="640.5137"/><text fill="#000000" font-family="sans-serif" font-size="12" font-style="italic" lengthAdjust="spacing" textLength="17" x="1263" y="654.4629">VO</text><line style="stroke:#181818;stroke-width:0.5;" x1="1089" x2="1277" y1="675.5137" y2="675.5137"/><rect fill="none" height="6" style="stroke:#C82930;stroke-width:1.0;" width="6" x="1096" y="687.3242"/><text fill="#000000" font-family="sans-serif" font-size="14" lengthAdjust="spacing" textLength="122" x="1108" y="694.6211">deviceName: String</text><line style="stroke:#181818;stroke-width:0.5;" x1="1089" x2="1277" y1="702.1348" y2="702.1348"/><ellipse cx="1099" cy="716.9453" fill="#84BE84" rx="3" ry="3" style="stroke:#038048;stroke-width:1.0;"/><text fill="#000000" font-family="sans-serif" font-size="14" lengthAdjust="spacing" textLength="164" x="1108" y="721.2422">equals(Object o): boolean</text><ellipse cx="1099" cy="735.5664" fill="#84BE84" rx="3" ry="3" style="stroke:#038048;stroke-width:1.0;"/><text fill="#000000" font-family="sans-serif" font-size="14" lengthAdjust="spacing" textLength="98" x="1108" y="739.8633">hashCode(): int</text><ellipse cx="1099" cy="754.1875" fill="#84BE84" rx="3" ry="3" style="stroke:#038048;stroke-width:1.0;"/><text fill="#000000" font-family="sans-serif" font-size="14" lengthAdjust="spacing" textLength="104" x="1108" y="758.4844">toString(): String</text><ellipse cx="1099" cy="772.8086" fill="#84BE84" rx="3" ry="3" style="stroke:#038048;stroke-width:1.0;"/><text fill="#000000" font-family="sans-serif" font-size="14" lengthAdjust="spacing" textLength="154" x="1108" y="777.1055">getDeviceName(): String</text></g><!--class DewPointCelsiusSensorValue--><g id="elem_DewPointCelsiusSensorValue"><rect codeLine="64" fill="#F1F1F1" height="159.7266" id="DewPointCelsiusSensorValue" rx="2.5" ry="2.5" style="stroke:#181818;stroke-width:0.5;" width="239" x="1797.5" y="634.0137"/><ellipse cx="1812.5" cy="650.0137" fill="#ADD1B2" rx="11" ry="11" style="stroke:#181818;stroke-width:1.0;"/><path d="M1815.2656,645.8887 Q1815.4219,645.6699 1815.6094,645.5605 Q1815.7969,645.4512 1816.0156,645.4512 Q1816.3906,645.4512 1816.625,645.7168 Q1816.8594,645.9668 1816.8594,646.5762 L1816.8594,648.0293 Q1816.8594,648.6387 1816.625,648.9043 Q1816.3906,649.1699 1816.0156,649.1699 Q1815.6719,649.1699 1815.4688,648.9668 Q1815.2656,648.7793 1815.1563,648.2637 Q1815.1094,647.9043 1814.9219,647.7168 Q1814.5938,647.3418 1813.9844,647.123 Q1813.375,646.9043 1812.75,646.9043 Q1811.9844,646.9043 1811.3438,647.2324 Q1810.7188,647.5605 1810.2188,648.3105 Q1809.7344,649.0605 1809.7344,650.0918 L1809.7344,651.1855 Q1809.7344,652.4199 1810.625,653.248 Q1811.5156,654.0605 1813.1094,654.0605 Q1814.0469,654.0605 1814.7031,653.8105 Q1815.0938,653.6543 1815.5156,653.2168 Q1815.7813,652.9512 1815.9219,652.873 Q1816.0781,652.7949 1816.2813,652.7949 Q1816.6094,652.7949 1816.8594,653.0605 Q1817.125,653.3105 1817.125,653.6543 Q1817.125,653.998 1816.7813,654.4043 Q1816.2813,654.9824 1815.4844,655.3105 Q1814.4063,655.7637 1813.1094,655.7637 Q1811.5938,655.7637 1810.3906,655.1387 Q1809.4063,654.6387 1808.7188,653.5762 Q1808.0313,652.498 1808.0313,651.2168 L1808.0313,650.0605 Q1808.0313,648.7324 1808.6406,647.5918 Q1809.2656,646.4355 1810.3594,645.8262 Q1811.4531,645.2012 1812.6875,645.2012 Q1813.4219,645.2012 1814.0625,645.373 Q1814.7188,645.5293 1815.2656,645.8887 Z " fill="#000000"/><text fill="#000000" font-family="sans-serif" font-size="14" lengthAdjust="spacing" textLength="186" x="1826.5" y="655.8105">DewPointCelsiusSensorValue</text><rect fill="#FFFFFF" height="17.9609" style="stroke:#181818;stroke-width:1.0;stroke-dasharray:2.0,2.0;" width="19" x="2020.5" y="631.0137"/><text fill="#000000" font-family="sans-serif" font-size="12" font-style="italic" lengthAdjust="spacing" textLength="17" x="2021.5" y="644.9629">VO</text><line style="stroke:#181818;stroke-width:0.5;" x1="1798.5" x2="2035.5" y1="666.0137" y2="666.0137"/><rect fill="none" height="6" style="stroke:#C82930;stroke-width:1.0;" width="6" x="1805.5" y="677.8242"/><text fill="#000000" font-family="sans-serif" font-size="14" lengthAdjust="spacing" textLength="68" x="1817.5" y="685.1211">unit: String</text><rect fill="none" height="6" style="stroke:#C82930;stroke-width:1.0;" width="6" x="1805.5" y="696.4453"/><text fill="#000000" font-family="sans-serif" font-size="14" lengthAdjust="spacing" textLength="135" x="1817.5" y="703.7422">startDate: Timestamp</text><rect fill="none" height="6" style="stroke:#C82930;stroke-width:1.0;" width="6" x="1805.5" y="715.0664"/><text fill="#000000" font-family="sans-serif" font-size="14" lengthAdjust="spacing" textLength="131" x="1817.5" y="722.3633">endDate: Timestamp</text><line style="stroke:#181818;stroke-width:0.5;" x1="1798.5" x2="2035.5" y1="729.877" y2="729.877"/><ellipse cx="1808.5" cy="744.6875" fill="#84BE84" rx="3" ry="3" style="stroke:#038048;stroke-width:1.0;"/><text fill="#000000" font-family="sans-serif" font-size="14" lengthAdjust="spacing" textLength="163" x="1817.5" y="748.9844">getValueWithUnit(): String</text><ellipse cx="1808.5" cy="763.3086" fill="#84BE84" rx="3" ry="3" style="stroke:#038048;stroke-width:1.0;"/><text fill="#000000" font-family="sans-serif" font-size="14" lengthAdjust="spacing" textLength="164" x="1817.5" y="767.6055">equals(Object o): boolean</text><ellipse cx="1808.5" cy="781.9297" fill="#84BE84" rx="3" ry="3" style="stroke:#038048;stroke-width:1.0;"/><text fill="#000000" font-family="sans-serif" font-size="14" lengthAdjust="spacing" textLength="104" x="1817.5" y="786.2266">toString(): String</text></g><!--reverse link Sensor to SensorPeriodOfTime--><g id="link_Sensor_SensorPeriodOfTime"><path d="M212,465.3337 C212,527.9037 212,613.4337 212,671.3737 " fill="none" id="Sensor-backto-SensorPeriodOfTime" style="stroke:#181818;stroke-width:1.0;"/><polygon fill="none" points="212,447.3337,206,465.3337,218,465.3337,212,447.3337" style="stroke:#181818;stroke-width:1.0;"/></g><!--link PowerAverageSensor to SensorPeriodOfTime--><g id="link_PowerAverageSensor_SensorPeriodOfTime"><path codeLine="34" d="M759.25,512.1437 C759.25,589.2537 759.25,676.0137 759.25,676.0137 C759.25,676.0137 556.75,676.0137 395.68,676.0137 " fill="none" id="PowerAverageSensor-to-SensorPeriodOfTime" style="stroke:#181818;stroke-width:1.0;stroke-dasharray:7.0,7.0;"/><polygon fill="none" points="377.68,676.0137,395.68,682.0137,395.68,670.0137,377.68,676.0137" style="stroke:#181818;stroke-width:1.0;"/></g><!--link FactorySensor to PowerAverageSensor--><g id="link_FactorySensor_PowerAverageSensor"><path codeLine="36" d="M741.75,173.3037 C741.75,201.7437 741.75,234.5737 741.75,271.7837 " fill="none" id="FactorySensor-to-PowerAverageSensor" style="stroke:#181818;stroke-width:1.0;stroke-dasharray:7.0,7.0;"/><polygon fill="#181818" points="741.75,277.7837,745.75,268.7837,741.75,272.7837,737.75,268.7837,741.75,277.7837" style="stroke:#181818;stroke-width:1.0;"/></g><!--link PowerAverageSensor to FactoryValue--><g id="link_PowerAverageSensor_FactoryValue"><path codeLine="40" d="M842,512.4337 C842,572.3037 842,634.6937 842,674.4437 " fill="none" id="PowerAverageSensor-to-FactoryValue" style="stroke:#181818;stroke-width:1.0;"/><polygon fill="#181818" points="842,680.4437,846,671.4437,842,675.4437,838,671.4437,842,680.4437" style="stroke:#181818;stroke-width:1.0;"/></g><!--link PowerAverageSensor to SensorID--><g id="link_PowerAverageSensor_SensorID"><path codeLine="48" d="M1007.9,356.0137 C1235.13,356.0137 1615.33,356.0137 1615.33,356.0137 C1615.33,356.0137 1615.33,556.6637 1615.33,655.9537 " fill="none" id="PowerAverageSensor-to-SensorID" style="stroke:#181818;stroke-width:1.0;"/><polygon fill="#181818" points="1615.33,661.9537,1619.33,652.9537,1615.33,656.9537,1611.33,652.9537,1615.33,661.9537" style="stroke:#181818;stroke-width:1.0;"/></g><!--link PowerAverageSensor to SensorFunctionalityID--><g id="link_PowerAverageSensor_SensorFunctionalityID"><path codeLine="54" d="M1007.82,434.0137 C1175.47,434.0137 1410,434.0137 1410,434.0137 C1410,434.0137 1410,575.0337 1410,656.0037 " fill="none" id="PowerAverageSensor-to-SensorFunctionalityID" style="stroke:#181818;stroke-width:1.0;"/><polygon fill="#181818" points="1410,662.0037,1414,653.0037,1410,657.0037,1406,653.0037,1410,662.0037" style="stroke:#181818;stroke-width:1.0;"/></g><!--link PowerAverageSensor to DeviceID--><g id="link_PowerAverageSensor_DeviceID"><path codeLine="62" d="M924.75,512.2837 C924.75,582.4137 924.75,658.0137 924.75,658.0137 C924.75,658.0137 1008.3,658.0137 1081.94,658.0137 " fill="none" id="PowerAverageSensor-to-DeviceID" style="stroke:#181818;stroke-width:1.0;"/><polygon fill="#181818" points="1087.94,658.0137,1078.94,654.0137,1082.94,658.0137,1078.94,662.0137,1087.94,658.0137" style="stroke:#181818;stroke-width:1.0;"/></g><!--link FactoryValue to DewPointCelsiusSensorValue--><g id="link_FactoryValue_DewPointCelsiusSensorValue"><path codeLine="72" d="M1015.5,680.5037 C1015.5,661.3137 1015.5,641.0137 1015.5,641.0137 C1015.5,641.0137 1546.06,641.0137 1791.29,641.0137 " fill="none" id="FactoryValue-to-DewPointCelsiusSensorValue" style="stroke:#181818;stroke-width:1.0;stroke-dasharray:7.0,7.0;"/><polygon fill="#181818" points="1797.29,641.0137,1788.29,637.0137,1792.29,641.0137,1788.29,645.0137,1797.29,641.0137" style="stroke:#181818;stroke-width:1.0;"/><text fill="#000000" font-family="sans-serif" font-size="13" lengthAdjust="spacing" textLength="57" x="1328.65" y="637.042">&#171;creates&#187;</text></g><!--link DewPointCelsiusSensorValue to Value--><g id="link_DewPointCelsiusSensorValue_Value"><path codeLine="73" d="M1797.43,638.0137 C1553.96,638.0137 1023.5,638.0137 1023.5,638.0137 C1023.5,638.0137 1023.5,295.5537 1023.5,182.2037 " fill="none" id="DewPointCelsiusSensorValue-to-Value" style="stroke:#181818;stroke-width:1.0;stroke-dasharray:7.0,7.0;"/><polygon fill="none" points="1023.5,164.2037,1017.5,182.2037,1029.5,182.2037,1023.5,164.2037" style="stroke:#181818;stroke-width:1.0;"/></g><!--link SensorRepository to SensorID--><g id="link_SensorRepository_SensorID"><path codeLine="87" d="M2140.63,192.0137 C1959.79,192.0137 1688.67,192.0137 1688.67,192.0137 C1688.67,192.0137 1688.67,523.2037 1688.67,655.5737 " fill="none" id="SensorRepository-to-SensorID" style="stroke:#181818;stroke-width:1.0;stroke-dasharray:7.0,7.0;"/><polygon fill="#181818" points="1688.67,661.5737,1692.67,652.5737,1688.67,656.5737,1684.67,652.5737,1688.67,661.5737" style="stroke:#181818;stroke-width:1.0;"/></g><!--link SensorRepository to PowerAverageSensor--><g id="link_SensorRepository_PowerAverageSensor"><path codeLine="88" d="M2140.71,183.0137 C1779.42,183.0137 925,183.0137 925,183.0137 C925,183.0137 925,222.8237 925,271.8537 " fill="none" id="SensorRepository-to-PowerAverageSensor" style="stroke:#181818;stroke-width:1.0;stroke-dasharray:7.0,7.0;"/><polygon fill="#181818" points="925,277.8537,929,268.8537,925,272.8537,921,268.8537,925,277.8537" style="stroke:#181818;stroke-width:1.0;"/></g><!--SRC=[jLRBZjem5Dtp5PQweUBn0GX5efD1Oj629krqqur9Bk1Ei5FRC4Kj_ruxpWE7cy1er2n2iE_xddjizS9uHYNTavHnqASCY91w9tePZL_e5eY4J2YcXMIWo9_UkLVj969F6JThn3pbeWAkX2mMxHEdL2aofx4nSOgQk_OPbRlFD3q0sLpyyUG699P0DJWZVUTf4GuBd_C3ZpKJdAPCd-no0aSMmoByE25EfR9shhuOro2DHo1eQ0Eo1Urslj0zzAqfBHdVjabvGVGhputOhhN3FDRIHrX4tXcmgnOIRxxndUdTDyuq4d9xzYkGJ2JBpLUs1mA_DV14THGcTpJtrVhsfJJTPyIyfGvDmuO_EAcNZL6xs1LN2QOGNbV21Fa0gM87vIAPRRSIjiP28oG7j9Lu1JaxWZJwHUJJ9o5qq91sm8iA394IJAqoZGxYc4EqorPMQ4HaxeF__NXyFoQT1QOYusIc-ilrJuWr4VcFCR0M8WNASQSteFm_4UIZo3u87CRZlm62TmI6FccDnm5Y3kSvR3O_5FILxqKPn6p3uZnXbuMpOEis95W9q0BuCAb3H_8UZG8ll5wjKSxRqQwxBgih2gzcPVgy3AueN5MWl4MHdKGAlmuqlGsucub6pNc-pA4vonq9UQBtnTmo7mEYXLFlfEJEVDf6rYLNKGsQJrADvJlJs56rUn19taF3pVSdsS8GRot55QFuLuySmmez6z3Zn8qgKZ9NjeCvGrj9TbIFvwGUJqIi6DWkeRkExhTswwwU-8pfCPZblFQgJSXqwZXD1O5dfAFIEVrYj7MsTyksQsTpX9_AxHEPMj7Bvet8PvfDe-fwwBu2ab1DpKwlBimXCskmb14z6XPs40EkpN1Ttna7PCDuCalJHojWehBLN9Zx4rsdK7WB6jAvwEdJQP7qA_PaYT5RPcwC4RrOS6skrQhI3HkwbtrsbRigYMsRnu2e17AOdNl_0000]--></g></svg>