<?xml version="1.0" encoding="us-ascii" standalone="no"?><svg xmlns="http://www.w3.org/2000/svg" xmlns:xlink="http://www.w3.org/1999/xlink" contentStyleType="text/css" height="695.4px" preserveAspectRatio="none" style="width:1045px;height:695px;background:#FFFFFF;" version="1.1" viewBox="0 0 1045 695" width="1045.2px" zoomAndPan="magnify"><defs/><g><!--cluster ddd--><g id="cluster_ddd"><path d="M879.3,3.6082 L896.1,3.6082 A2.25,2.25 0 0 1 897.6,5.1082 L901.8,18.3809 L1039.5,18.3809 A1.5,1.5 0 0 1 1041,19.8809 L1041,478.5082 A1.5,1.5 0 0 1 1039.5,480.0082 L879.3,480.0082 A1.5,1.5 0 0 1 877.8,478.5082 L877.8,5.1082 A1.5,1.5 0 0 1 879.3,3.6082 " fill="none" style="stroke:#000000;stroke-width:0.8999999999999999;"/><line style="stroke:#000000;stroke-width:0.8999999999999999;" x1="877.8" x2="901.8" y1="18.3809" y2="18.3809"/><text fill="#000000" font-family="sans-serif" font-size="8.4" font-weight="bold" lengthAdjust="spacing" textLength="16.2" x="880.2" y="13.8727">ddd</text></g><!--cluster services--><g id="cluster_services"><path d="M450.3,346.8082 L487.5,346.8082 A2.25,2.25 0 0 1 489,348.3082 L493.2,361.5809 L640.5,361.5809 A1.5,1.5 0 0 1 642,363.0809 L642,506.7082 A1.5,1.5 0 0 1 640.5,508.2082 L450.3,508.2082 A1.5,1.5 0 0 1 448.8,506.7082 L448.8,348.3082 A1.5,1.5 0 0 1 450.3,346.8082 " fill="none" style="stroke:#000000;stroke-width:0.8999999999999999;"/><line style="stroke:#000000;stroke-width:0.8999999999999999;" x1="448.8" x2="493.2" y1="361.5809" y2="361.5809"/><text fill="#000000" font-family="sans-serif" font-size="8.4" font-weight="bold" lengthAdjust="spacing" textLength="36.6" x="451.2" y="357.0727">services</text></g><!--cluster repositories--><g id="cluster_repositories"><path d="M431.1,139.2082 L483.3,139.2082 A2.25,2.25 0 0 1 484.8,140.7082 L489,153.9809 L861.9,153.9809 A1.5,1.5 0 0 1 863.4,155.4809 L863.4,254.1082 A1.5,1.5 0 0 1 861.9,255.6082 L431.1,255.6082 A1.5,1.5 0 0 1 429.6,254.1082 L429.6,140.7082 A1.5,1.5 0 0 1 431.1,139.2082 " fill="none" style="stroke:#000000;stroke-width:0.8999999999999999;"/><line style="stroke:#000000;stroke-width:0.8999999999999999;" x1="429.6" x2="489" y1="153.9809" y2="153.9809"/><text fill="#000000" font-family="sans-serif" font-size="8.4" font-weight="bold" lengthAdjust="spacing" textLength="51.6" x="432" y="149.4727">repositories</text></g><!--cluster domain--><g id="cluster_domain"><path d="M5.1,129.0082 L36.3,129.0082 A2.25,2.25 0 0 1 37.8,130.5082 L42,143.7809 L413.7,143.7809 A1.5,1.5 0 0 1 415.2,145.2809 L415.2,689.7082 A1.5,1.5 0 0 1 413.7,691.2082 L5.1,691.2082 A1.5,1.5 0 0 1 3.6,689.7082 L3.6,130.5082 A1.5,1.5 0 0 1 5.1,129.0082 " fill="none" style="stroke:#000000;stroke-width:0.8999999999999999;"/><line style="stroke:#000000;stroke-width:0.8999999999999999;" x1="3.6" x2="42" y1="143.7809" y2="143.7809"/><text fill="#000000" font-family="sans-serif" font-size="8.4" font-weight="bold" lengthAdjust="spacing" textLength="30.6" x="6" y="139.2727">domain</text></g><!--cluster roomAggregate--><g id="cluster_roomAggregate"><path d="M19.5,156.0082 L85.5,156.0082 A2.25,2.25 0 0 1 87,157.5082 L91.2,170.7809 L399.3,170.7809 A1.5,1.5 0 0 1 400.8,172.2809 L400.8,501.0082 A1.5,1.5 0 0 1 399.3,502.5082 L19.5,502.5082 A1.5,1.5 0 0 1 18,501.0082 L18,157.5082 A1.5,1.5 0 0 1 19.5,156.0082 " fill="none" style="stroke:#000000;stroke-width:0.8999999999999999;"/><line style="stroke:#000000;stroke-width:0.8999999999999999;" x1="18" x2="91.2" y1="170.7809" y2="170.7809"/><text fill="#000000" font-family="sans-serif" font-size="8.4" font-weight="bold" lengthAdjust="spacing" textLength="65.4" x="20.4" y="166.2727">roomAggregate</text></g><!--cluster valueobject--><g id="cluster_valueobject"><path d="M41.7,549.0082 L92.1,549.0082 A2.25,2.25 0 0 1 93.6,550.5082 L97.8,563.7809 L399.3,563.7809 A1.5,1.5 0 0 1 400.8,565.2809 L400.8,675.3082 A1.5,1.5 0 0 1 399.3,676.8082 L41.7,676.8082 A1.5,1.5 0 0 1 40.2,675.3082 L40.2,550.5082 A1.5,1.5 0 0 1 41.7,549.0082 " fill="none" style="stroke:#000000;stroke-width:0.8999999999999999;"/><line style="stroke:#000000;stroke-width:0.8999999999999999;" x1="40.2" x2="97.8" y1="563.7809" y2="563.7809"/><text fill="#000000" font-family="sans-serif" font-size="8.4" font-weight="bold" lengthAdjust="spacing" textLength="49.8" x="42.6" y="559.2727">valueobject</text></g><!--class valueObject--><g id="elem_valueObject"><rect codeLine="6" fill="#F1F1F1" height="28.8" id="valueObject" rx="1.5" ry="1.5" style="stroke:#181818;stroke-width:0.3;" width="63.6" x="967.8" y="25.8082"/><ellipse cx="976.8" cy="35.4082" fill="#B4A7E5" rx="6.6" ry="6.6" style="stroke:#181818;stroke-width:0.6;"/><path d="M977.3719,33.3926 L977.3719,37.3863 L978.4031,37.3863 Q978.7688,37.3863 978.9281,37.527 Q979.0875,37.6676 979.0875,37.902 Q979.0875,38.127 978.9281,38.2676 Q978.7688,38.4082 978.4031,38.4082 L975.3187,38.4082 Q974.9531,38.4082 974.7937,38.2676 Q974.6344,38.127 974.6344,37.8926 Q974.6344,37.6676 974.7937,37.527 Q974.9531,37.3863 975.3187,37.3863 L976.35,37.3863 L976.35,33.3926 L975.3187,33.3926 Q974.9531,33.3926 974.7937,33.252 Q974.6344,33.1113 974.6344,32.877 Q974.6344,32.652 974.7937,32.5113 Q974.9531,32.3707 975.3187,32.3707 L978.4031,32.3707 Q978.7688,32.3707 978.9281,32.5113 Q979.0875,32.652 979.0875,32.877 Q979.0875,33.1113 978.9281,33.252 Q978.7688,33.3926 978.4031,33.3926 L977.3719,33.3926 Z " fill="#000000"/><text fill="#000000" font-family="sans-serif" font-size="8.4" font-style="italic" lengthAdjust="spacing" textLength="44.4" x="985.2" y="38.8863">valueObject</text><line style="stroke:#181818;stroke-width:0.3;" x1="968.4" x2="1030.8" y1="45.0082" y2="45.0082"/><line style="stroke:#181818;stroke-width:0.3;" x1="968.4" x2="1030.8" y1="49.8082" y2="49.8082"/></g><!--class DomainID--><g id="elem_DomainID"><rect codeLine="7" fill="#F1F1F1" height="28.8" id="DomainID" rx="1.5" ry="1.5" style="stroke:#181818;stroke-width:0.3;" width="56.4" x="971.4" y="90.6082"/><ellipse cx="980.4" cy="100.2082" fill="#B4A7E5" rx="6.6" ry="6.6" style="stroke:#181818;stroke-width:0.6;"/><path d="M980.9719,98.1926 L980.9719,102.1863 L982.0031,102.1863 Q982.3688,102.1863 982.5281,102.327 Q982.6875,102.4676 982.6875,102.702 Q982.6875,102.927 982.5281,103.0676 Q982.3688,103.2082 982.0031,103.2082 L978.9187,103.2082 Q978.5531,103.2082 978.3938,103.0676 Q978.2344,102.927 978.2344,102.6926 Q978.2344,102.4676 978.3938,102.327 Q978.5531,102.1863 978.9187,102.1863 L979.95,102.1863 L979.95,98.1926 L978.9187,98.1926 Q978.5531,98.1926 978.3938,98.052 Q978.2344,97.9113 978.2344,97.677 Q978.2344,97.452 978.3938,97.3113 Q978.5531,97.1707 978.9187,97.1707 L982.0031,97.1707 Q982.3688,97.1707 982.5281,97.3113 Q982.6875,97.452 982.6875,97.677 Q982.6875,97.9113 982.5281,98.052 Q982.3688,98.1926 982.0031,98.1926 L980.9719,98.1926 Z " fill="#000000"/><text fill="#000000" font-family="sans-serif" font-size="8.4" font-style="italic" lengthAdjust="spacing" textLength="37.2" x="988.8" y="103.6863">DomainID</text><line style="stroke:#181818;stroke-width:0.3;" x1="972" x2="1027.2" y1="109.8082" y2="109.8082"/><line style="stroke:#181818;stroke-width:0.3;" x1="972" x2="1027.2" y1="114.6082" y2="114.6082"/></g><!--class DomainEntity--><g id="elem_DomainEntity"><rect codeLine="12" fill="#F1F1F1" height="51.1453" id="DomainEntity" rx="1.5" ry="1.5" style="stroke:#181818;stroke-width:0.3;" width="144" x="887.4" y="178.2082"/><ellipse cx="931.95" cy="187.8082" fill="#B4A7E5" rx="6.6" ry="6.6" style="stroke:#181818;stroke-width:0.6;"/><path d="M932.5219,185.7926 L932.5219,189.7863 L933.5531,189.7863 Q933.9187,189.7863 934.0781,189.927 Q934.2375,190.0676 934.2375,190.302 Q934.2375,190.527 934.0781,190.6676 Q933.9187,190.8082 933.5531,190.8082 L930.4688,190.8082 Q930.1031,190.8082 929.9437,190.6676 Q929.7844,190.527 929.7844,190.2926 Q929.7844,190.0676 929.9437,189.927 Q930.1031,189.7863 930.4688,189.7863 L931.5,189.7863 L931.5,185.7926 L930.4688,185.7926 Q930.1031,185.7926 929.9437,185.652 Q929.7844,185.5113 929.7844,185.277 Q929.7844,185.052 929.9437,184.9113 Q930.1031,184.7707 930.4688,184.7707 L933.5531,184.7707 Q933.9187,184.7707 934.0781,184.9113 Q934.2375,185.052 934.2375,185.277 Q934.2375,185.5113 934.0781,185.652 Q933.9187,185.7926 933.5531,185.7926 L932.5219,185.7926 Z " fill="#000000"/><text fill="#000000" font-family="sans-serif" font-size="8.4" font-style="italic" lengthAdjust="spacing" textLength="49.8" x="944.25" y="191.2863">DomainEntity</text><line style="stroke:#181818;stroke-width:0.3;" x1="888" x2="1030.8" y1="197.4082" y2="197.4082"/><line style="stroke:#181818;stroke-width:0.3;" x1="888" x2="1030.8" y1="202.2082" y2="202.2082"/><ellipse cx="894" cy="211.0945" fill="#84BE84" rx="1.8" ry="1.8" style="stroke:#038048;stroke-width:0.6;"/><text fill="#000000" font-family="sans-serif" font-size="8.4" lengthAdjust="spacing" textLength="43.2" x="899.4" y="213.6727">identity():ID</text><ellipse cx="894" cy="222.2672" fill="#84BE84" rx="1.8" ry="1.8" style="stroke:#038048;stroke-width:0.6;"/><text fill="#000000" font-family="sans-serif" font-size="8.4" lengthAdjust="spacing" textLength="128.4" x="899.4" y="224.8453">isSameAs(Object object): boolean</text></g><!--class AggregateRoot--><g id="elem_AggregateRoot"><rect codeLine="9" fill="#F1F1F1" height="28.8" id="AggregateRoot" rx="1.5" ry="1.5" style="stroke:#181818;stroke-width:0.3;" width="76.8" x="921" y="293.1082"/><ellipse cx="930" cy="302.7082" fill="#B4A7E5" rx="6.6" ry="6.6" style="stroke:#181818;stroke-width:0.6;"/><path d="M930.5719,300.6926 L930.5719,304.6863 L931.6031,304.6863 Q931.9688,304.6863 932.1281,304.827 Q932.2875,304.9676 932.2875,305.202 Q932.2875,305.427 932.1281,305.5676 Q931.9688,305.7082 931.6031,305.7082 L928.5188,305.7082 Q928.1531,305.7082 927.9938,305.5676 Q927.8344,305.427 927.8344,305.1926 Q927.8344,304.9676 927.9938,304.827 Q928.1531,304.6863 928.5188,304.6863 L929.55,304.6863 L929.55,300.6926 L928.5188,300.6926 Q928.1531,300.6926 927.9938,300.552 Q927.8344,300.4113 927.8344,300.177 Q927.8344,299.952 927.9938,299.8113 Q928.1531,299.6707 928.5188,299.6707 L931.6031,299.6707 Q931.9688,299.6707 932.1281,299.8113 Q932.2875,299.952 932.2875,300.177 Q932.2875,300.4113 932.1281,300.552 Q931.9688,300.6926 931.6031,300.6926 L930.5719,300.6926 Z " fill="#000000"/><text fill="#000000" font-family="sans-serif" font-size="8.4" font-style="italic" lengthAdjust="spacing" textLength="57.6" x="938.4" y="306.1863">AggregateRoot</text><line style="stroke:#181818;stroke-width:0.3;" x1="921.6" x2="997.2" y1="312.3082" y2="312.3082"/><line style="stroke:#181818;stroke-width:0.3;" x1="921.6" x2="997.2" y1="317.1082" y2="317.1082"/></g><!--class Repository--><g id="elem_Repository"><rect codeLine="17" fill="#F1F1F1" height="73.4906" id="Repository" rx="1.5" ry="1.5" style="stroke:#181818;stroke-width:0.3;" width="144" x="887.4" y="397.2082"/><ellipse cx="936.45" cy="406.8082" fill="#B4A7E5" rx="6.6" ry="6.6" style="stroke:#181818;stroke-width:0.6;"/><path d="M937.0219,404.7926 L937.0219,408.7863 L938.0531,408.7863 Q938.4187,408.7863 938.5781,408.927 Q938.7375,409.0676 938.7375,409.302 Q938.7375,409.527 938.5781,409.6676 Q938.4187,409.8082 938.0531,409.8082 L934.9688,409.8082 Q934.6031,409.8082 934.4437,409.6676 Q934.2844,409.527 934.2844,409.2926 Q934.2844,409.0676 934.4437,408.927 Q934.6031,408.7863 934.9688,408.7863 L936,408.7863 L936,404.7926 L934.9688,404.7926 Q934.6031,404.7926 934.4437,404.652 Q934.2844,404.5113 934.2844,404.277 Q934.2844,404.052 934.4437,403.9113 Q934.6031,403.7707 934.9688,403.7707 L938.0531,403.7707 Q938.4187,403.7707 938.5781,403.9113 Q938.7375,404.052 938.7375,404.277 Q938.7375,404.5113 938.5781,404.652 Q938.4187,404.7926 938.0531,404.7926 L937.0219,404.7926 Z " fill="#000000"/><text fill="#000000" font-family="sans-serif" font-size="8.4" font-style="italic" lengthAdjust="spacing" textLength="40.8" x="948.75" y="410.2863">Repository</text><line style="stroke:#181818;stroke-width:0.3;" x1="888" x2="1030.8" y1="416.4082" y2="416.4082"/><line style="stroke:#181818;stroke-width:0.3;" x1="888" x2="1030.8" y1="421.2082" y2="421.2082"/><ellipse cx="894" cy="430.0945" fill="#84BE84" rx="1.8" ry="1.8" style="stroke:#038048;stroke-width:0.6;"/><text fill="#000000" font-family="sans-serif" font-size="8.4" lengthAdjust="spacing" textLength="99.6" x="899.4" y="432.6727">updateOrSave(T entity): T</text><ellipse cx="894" cy="441.2672" fill="#84BE84" rx="1.8" ry="1.8" style="stroke:#038048;stroke-width:0.6;"/><text fill="#000000" font-family="sans-serif" font-size="8.4" lengthAdjust="spacing" textLength="104.4" x="899.4" y="443.8453">findAllEntities(): Iterable&lt;T&gt;</text><ellipse cx="894" cy="452.4398" fill="#84BE84" rx="1.8" ry="1.8" style="stroke:#038048;stroke-width:0.6;"/><text fill="#000000" font-family="sans-serif" font-size="8.4" lengthAdjust="spacing" textLength="126.6" x="899.4" y="455.018">findEntityByID(ID id): Optional&lt;T&gt;</text><ellipse cx="894" cy="463.6125" fill="#84BE84" rx="1.8" ry="1.8" style="stroke:#038048;stroke-width:0.6;"/><text fill="#000000" font-family="sans-serif" font-size="8.4" lengthAdjust="spacing" textLength="128.4" x="899.4" y="466.1906">containsEntityByID(ID id): boolean</text></g><!--class RoomService--><g id="elem_RoomService"><rect codeLine="26" fill="#F1F1F1" height="129.3539" id="RoomService" rx="1.5" ry="1.5" style="stroke:#181818;stroke-width:0.3;" width="173.4" x="458.7" y="369.0082"/><ellipse cx="517.65" cy="378.6082" fill="#ADD1B2" rx="6.6" ry="6.6" style="stroke:#181818;stroke-width:0.6;"/><path d="M519.3094,376.1332 Q519.4031,376.002 519.5156,375.9363 Q519.6281,375.8707 519.7594,375.8707 Q519.9844,375.8707 520.125,376.0301 Q520.2656,376.1801 520.2656,376.5457 L520.2656,377.4176 Q520.2656,377.7832 520.125,377.9426 Q519.9844,378.102 519.7594,378.102 Q519.5531,378.102 519.4313,377.9801 Q519.3094,377.8676 519.2438,377.5582 Q519.2156,377.3426 519.1031,377.2301 Q518.9063,377.0051 518.5406,376.8738 Q518.175,376.7426 517.8,376.7426 Q517.3406,376.7426 516.9563,376.9395 Q516.5813,377.1363 516.2813,377.5863 Q515.9906,378.0363 515.9906,378.6551 L515.9906,379.3113 Q515.9906,380.052 516.525,380.5488 Q517.0594,381.0363 518.0156,381.0363 Q518.5781,381.0363 518.9719,380.8863 Q519.2063,380.7926 519.4594,380.5301 Q519.6188,380.3707 519.7031,380.3238 Q519.7969,380.277 519.9187,380.277 Q520.1156,380.277 520.2656,380.4363 Q520.425,380.5863 520.425,380.7926 Q520.425,380.9988 520.2188,381.2426 Q519.9187,381.5895 519.4406,381.7863 Q518.7937,382.0582 518.0156,382.0582 Q517.1062,382.0582 516.3844,381.6832 Q515.7937,381.3832 515.3813,380.7457 Q514.9688,380.0988 514.9688,379.3301 L514.9688,378.6363 Q514.9688,377.8395 515.3344,377.1551 Q515.7094,376.4613 516.3656,376.0957 Q517.0219,375.7207 517.7625,375.7207 Q518.2031,375.7207 518.5875,375.8238 Q518.9812,375.9176 519.3094,376.1332 Z " fill="#000000"/><text fill="#000000" font-family="sans-serif" font-size="8.4" lengthAdjust="spacing" textLength="50.4" x="529.95" y="382.0863">RoomService</text><line style="stroke:#181818;stroke-width:0.3;" x1="459.3" x2="631.5" y1="388.2082" y2="388.2082"/><rect fill="none" height="3.6" style="stroke:#C82930;stroke-width:0.6;" width="3.6" x="463.5" y="395.2945"/><text fill="#000000" font-family="sans-serif" font-size="8.4" lengthAdjust="spacing" textLength="127.8" x="470.7" y="399.6727">roomRepository: RoomRepository</text><rect fill="none" height="3.6" style="stroke:#C82930;stroke-width:0.6;" width="3.6" x="463.5" y="406.4672"/><text fill="#000000" font-family="sans-serif" font-size="8.4" lengthAdjust="spacing" textLength="103.8" x="470.7" y="410.8453">roomFactory: FactoryRoom</text><rect fill="none" height="3.6" style="stroke:#C82930;stroke-width:0.6;" width="3.6" x="463.5" y="417.6398"/><text fill="#000000" font-family="sans-serif" font-size="8.4" lengthAdjust="spacing" textLength="133.8" x="470.7" y="422.018">houseRepository: HouseRepository</text><line style="stroke:#181818;stroke-width:0.3;" x1="459.3" x2="631.5" y1="426.5262" y2="426.5262"/><ellipse cx="465.3" cy="446.5852" fill="#84BE84" rx="1.8" ry="1.8" style="stroke:#038048;stroke-width:0.6;"/><text fill="#000000" font-family="sans-serif" font-size="8.4" lengthAdjust="spacing" textLength="136.2" x="470.7" y="437.9906">createAndSaveRoom(String roomId,</text><text fill="#000000" font-family="sans-serif" font-size="8.4" lengthAdjust="spacing" textLength="116.4" x="473.1" y="449.1633">int floorNumber, double length,</text><text fill="#000000" font-family="sans-serif" font-size="8.4" lengthAdjust="spacing" textLength="142.2" x="473.1" y="460.3359">double width, double height): boolean</text><ellipse cx="465.3" cy="474.5168" fill="#84BE84" rx="1.8" ry="1.8" style="stroke:#038048;stroke-width:0.6;"/><text fill="#000000" font-family="sans-serif" font-size="8.4" lengthAdjust="spacing" textLength="157.8" x="470.7" y="471.5086">filterRoomsByHouseID(HouseID houseID):</text><text fill="#000000" font-family="sans-serif" font-size="8.4" lengthAdjust="spacing" textLength="93" x="473.1" y="482.6813">Map&lt;RoomDTO, Room&gt;</text><ellipse cx="465.3" cy="491.2758" fill="#84BE84" rx="1.8" ry="1.8" style="stroke:#038048;stroke-width:0.6;"/><text fill="#000000" font-family="sans-serif" font-size="8.4" lengthAdjust="spacing" textLength="117.6" x="470.7" y="493.8539">editRoom(RoomDTO): boolean</text></g><!--class RepositoryRoom--><g id="elem_RepositoryRoom"><rect codeLine="40" fill="#F1F1F1" height="84.6633" id="RepositoryRoom" rx="1.5" ry="1.5" style="stroke:#181818;stroke-width:0.3;" width="181.2" x="672.6" y="161.4082"/><ellipse cx="720.45" cy="171.0082" fill="#ADD1B2" rx="6.6" ry="6.6" style="stroke:#181818;stroke-width:0.6;"/><path d="M722.1094,168.5332 Q722.2031,168.402 722.3156,168.3363 Q722.4281,168.2707 722.5594,168.2707 Q722.7844,168.2707 722.925,168.4301 Q723.0656,168.5801 723.0656,168.9457 L723.0656,169.8176 Q723.0656,170.1832 722.925,170.3426 Q722.7844,170.502 722.5594,170.502 Q722.3531,170.502 722.2312,170.3801 Q722.1094,170.2676 722.0437,169.9582 Q722.0156,169.7426 721.9031,169.6301 Q721.7063,169.4051 721.3406,169.2738 Q720.975,169.1426 720.6,169.1426 Q720.1406,169.1426 719.7563,169.3395 Q719.3813,169.5363 719.0813,169.9863 Q718.7906,170.4363 718.7906,171.0551 L718.7906,171.7113 Q718.7906,172.452 719.325,172.9488 Q719.8594,173.4363 720.8156,173.4363 Q721.3781,173.4363 721.7719,173.2863 Q722.0063,173.1926 722.2594,172.9301 Q722.4187,172.7707 722.5031,172.7238 Q722.5969,172.677 722.7188,172.677 Q722.9156,172.677 723.0656,172.8363 Q723.225,172.9863 723.225,173.1926 Q723.225,173.3988 723.0188,173.6426 Q722.7188,173.9895 722.2406,174.1863 Q721.5938,174.4582 720.8156,174.4582 Q719.9063,174.4582 719.1844,174.0832 Q718.5938,173.7832 718.1813,173.1457 Q717.7688,172.4988 717.7688,171.7301 L717.7688,171.0363 Q717.7688,170.2395 718.1344,169.5551 Q718.5094,168.8613 719.1656,168.4957 Q719.8219,168.1207 720.5625,168.1207 Q721.0031,168.1207 721.3875,168.2238 Q721.7813,168.3176 722.1094,168.5332 Z " fill="#000000"/><text fill="#000000" font-family="sans-serif" font-size="8.4" lengthAdjust="spacing" textLength="63" x="732.75" y="174.4863">RepositoryRoom</text><rect fill="#FFFFFF" height="10.7766" style="stroke:#181818;stroke-width:0.6;stroke-dasharray:2.0,2.0;" width="16.2" x="839.4" y="159.6082"/><text fill="#000000" font-family="sans-serif" font-size="7.2" font-style="italic" lengthAdjust="spacing" textLength="15" x="840" y="167.9777">repo</text><line style="stroke:#181818;stroke-width:0.3;" x1="673.2" x2="853.2" y1="180.6082" y2="180.6082"/><rect fill="none" height="3.6" style="stroke:#C82930;stroke-width:0.6;" width="3.6" x="677.4" y="187.6945"/><text fill="#000000" font-family="sans-serif" font-size="8.4" lengthAdjust="spacing" textLength="109.8" x="684.6" y="192.0727">DATA: Map&lt;RoomID, Room&gt;</text><line style="stroke:#181818;stroke-width:0.3;" x1="673.2" x2="853.2" y1="196.5809" y2="196.5809"/><ellipse cx="679.2" cy="205.4672" fill="#84BE84" rx="1.8" ry="1.8" style="stroke:#038048;stroke-width:0.6;"/><text fill="#000000" font-family="sans-serif" font-size="8.4" lengthAdjust="spacing" textLength="133.2" x="684.6" y="208.0453">updateOrSave(Room entity): Room</text><ellipse cx="679.2" cy="216.6398" fill="#84BE84" rx="1.8" ry="1.8" style="stroke:#038048;stroke-width:0.6;"/><text fill="#000000" font-family="sans-serif" font-size="8.4" lengthAdjust="spacing" textLength="121.2" x="684.6" y="219.218">findAllEntities(): Iterable&lt;Room&gt;</text><ellipse cx="679.2" cy="227.8125" fill="#84BE84" rx="1.8" ry="1.8" style="stroke:#038048;stroke-width:0.6;"/><text fill="#000000" font-family="sans-serif" font-size="8.4" lengthAdjust="spacing" textLength="165.6" x="684.6" y="230.3906">findEntityByID(RoomID id): Optional&lt;Room&gt;</text><ellipse cx="679.2" cy="238.9852" fill="#84BE84" rx="1.8" ry="1.8" style="stroke:#038048;stroke-width:0.6;"/><text fill="#000000" font-family="sans-serif" font-size="8.4" lengthAdjust="spacing" textLength="150.6" x="684.6" y="241.5633">containsEntityByID(RoomID id): boolean</text></g><!--class HouseRepository--><g id="elem_HouseRepository"><rect codeLine="48" fill="#F1F1F1" height="84.6633" id="HouseRepository" rx="1.5" ry="1.5" style="stroke:#181818;stroke-width:0.3;" width="212.4" x="439.2" y="161.4082"/><ellipse cx="501.75" cy="171.0082" fill="#ADD1B2" rx="6.6" ry="6.6" style="stroke:#181818;stroke-width:0.6;"/><path d="M501.0656,171.4863 L501.0656,172.9863 L503.6625,172.9863 L503.6625,172.4332 Q503.6625,172.0676 503.8031,171.9082 Q503.9531,171.7488 504.1781,171.7488 Q504.4031,171.7488 504.5438,171.9082 Q504.6844,172.0676 504.6844,172.4332 L504.6844,174.0082 L499.8844,174.0082 Q499.5094,174.0082 499.35,173.8676 Q499.2,173.727 499.2,173.4926 Q499.2,173.2676 499.3594,173.127 Q499.5187,172.9863 499.8844,172.9863 L500.0438,172.9863 L500.0438,168.9926 L499.8844,168.9926 Q499.5094,168.9926 499.35,168.852 Q499.2,168.7113 499.2,168.477 Q499.2,168.252 499.35,168.1113 Q499.5094,167.9707 499.8844,167.9707 L504.4594,167.9707 L504.4594,169.527 Q504.4594,169.8926 504.3187,170.052 Q504.1875,170.202 503.9531,170.202 Q503.7281,170.202 503.5875,170.052 Q503.4469,169.8926 503.4469,169.527 L503.4469,168.9926 L501.0656,168.9926 L501.0656,170.4645 L501.9562,170.4645 Q501.9562,170.0707 502.0313,169.9582 Q502.1906,169.7145 502.4719,169.7145 Q502.6969,169.7145 502.8375,169.8738 Q502.9781,170.0238 502.9781,170.3895 L502.9781,171.5707 Q502.9781,171.8988 502.9031,172.0113 Q502.7438,172.2457 502.4719,172.2457 Q502.1906,172.2457 502.0313,172.002 Q501.9562,171.8895 501.9562,171.4863 L501.0656,171.4863 Z " fill="#000000"/><text fill="#000000" font-family="sans-serif" font-size="8.4" lengthAdjust="spacing" textLength="64.8" x="514.05" y="174.4863">HouseRepository</text><rect fill="#FFFFFF" height="10.7766" style="stroke:#181818;stroke-width:0.6;stroke-dasharray:2.0,2.0;" width="16.2" x="637.2" y="159.6082"/><text fill="#000000" font-family="sans-serif" font-size="7.2" font-style="italic" lengthAdjust="spacing" textLength="15" x="637.8" y="167.9777">repo</text><line style="stroke:#181818;stroke-width:0.3;" x1="439.8" x2="651" y1="180.6082" y2="180.6082"/><rect fill="none" height="3.6" style="stroke:#C82930;stroke-width:0.6;" width="3.6" x="444" y="187.6945"/><text fill="#000000" font-family="sans-serif" font-size="8.4" lengthAdjust="spacing" textLength="108" x="451.2" y="192.0727">data: Map&lt;HouseID, House&gt;</text><line style="stroke:#181818;stroke-width:0.3;" x1="439.8" x2="651" y1="196.5809" y2="196.5809"/><ellipse cx="445.8" cy="205.4672" fill="#84BE84" rx="1.8" ry="1.8" style="stroke:#038048;stroke-width:0.6;"/><text fill="#000000" font-family="sans-serif" font-size="8.4" lengthAdjust="spacing" textLength="136.8" x="451.2" y="208.0453">updateOrSave(House entity): House</text><ellipse cx="445.8" cy="216.6398" fill="#84BE84" rx="1.8" ry="1.8" style="stroke:#038048;stroke-width:0.6;"/><text fill="#000000" font-family="sans-serif" font-size="8.4" lengthAdjust="spacing" textLength="123" x="451.2" y="219.218">findAllEntities(): Iterable&lt;House&gt;</text><ellipse cx="445.8" cy="227.8125" fill="#84BE84" rx="1.8" ry="1.8" style="stroke:#038048;stroke-width:0.6;"/><text fill="#000000" font-family="sans-serif" font-size="8.4" lengthAdjust="spacing" textLength="196.8" x="451.2" y="230.3906">findEntityByID(HouseID houseID)): Optional&lt;House&gt;</text><ellipse cx="445.8" cy="238.9852" fill="#84BE84" rx="1.8" ry="1.8" style="stroke:#038048;stroke-width:0.6;"/><text fill="#000000" font-family="sans-serif" font-size="8.4" lengthAdjust="spacing" textLength="177" x="451.2" y="241.5633">containsEntityByID(HouseID houseID): boolean</text></g><!--class Room--><g id="elem_Room"><rect codeLine="71" fill="#F1F1F1" height="118.1812" id="Room" rx="1.5" ry="1.5" style="stroke:#181818;stroke-width:0.3;" width="363.6" x="27.6" y="374.7082"/><ellipse cx="188.25" cy="384.3082" fill="#ADD1B2" rx="6.6" ry="6.6" style="stroke:#181818;stroke-width:0.6;"/><path d="M187.5656,384.7863 L187.5656,386.2863 L190.1625,386.2863 L190.1625,385.7332 Q190.1625,385.3676 190.3031,385.2082 Q190.4531,385.0488 190.6781,385.0488 Q190.9031,385.0488 191.0438,385.2082 Q191.1844,385.3676 191.1844,385.7332 L191.1844,387.3082 L186.3844,387.3082 Q186.0094,387.3082 185.85,387.1676 Q185.7,387.027 185.7,386.7926 Q185.7,386.5676 185.8594,386.427 Q186.0187,386.2863 186.3844,386.2863 L186.5438,386.2863 L186.5438,382.2926 L186.3844,382.2926 Q186.0094,382.2926 185.85,382.152 Q185.7,382.0113 185.7,381.777 Q185.7,381.552 185.85,381.4113 Q186.0094,381.2707 186.3844,381.2707 L190.9594,381.2707 L190.9594,382.827 Q190.9594,383.1926 190.8188,383.352 Q190.6875,383.502 190.4531,383.502 Q190.2281,383.502 190.0875,383.352 Q189.9469,383.1926 189.9469,382.827 L189.9469,382.2926 L187.5656,382.2926 L187.5656,383.7645 L188.4562,383.7645 Q188.4562,383.3707 188.5313,383.2582 Q188.6906,383.0145 188.9719,383.0145 Q189.1969,383.0145 189.3375,383.1738 Q189.4781,383.3238 189.4781,383.6895 L189.4781,384.8707 Q189.4781,385.1988 189.4031,385.3113 Q189.2438,385.5457 188.9719,385.5457 Q188.6906,385.5457 188.5313,385.302 Q188.4562,385.1895 188.4562,384.7863 L187.5656,384.7863 Z " fill="#000000"/><text fill="#000000" font-family="sans-serif" font-size="8.4" lengthAdjust="spacing" textLength="22.2" x="200.55" y="387.7863">Room</text><rect fill="#FFFFFF" height="10.7766" style="stroke:#181818;stroke-width:0.6;stroke-dasharray:2.0,2.0;" width="13.8" x="379.2" y="372.9082"/><text fill="#000000" font-family="sans-serif" font-size="7.2" font-style="italic" lengthAdjust="spacing" textLength="12.6" x="379.8" y="381.2777">root</text><line style="stroke:#181818;stroke-width:0.3;" x1="28.2" x2="390.6" y1="393.9082" y2="393.9082"/><rect fill="none" height="3.6" style="stroke:#C82930;stroke-width:0.6;" width="3.6" x="32.4" y="400.9945"/><text fill="#000000" font-family="sans-serif" font-size="8.4" lengthAdjust="spacing" textLength="74.4" x="39.6" y="405.3727">roomName: RoomId</text><rect fill="none" height="3.6" style="stroke:#C82930;stroke-width:0.6;" width="3.6" x="32.4" y="412.1672"/><text fill="#000000" font-family="sans-serif" font-size="8.4" lengthAdjust="spacing" textLength="100.2" x="39.6" y="416.5453">floorNumber: FloorNumber</text><rect fill="none" height="3.6" style="stroke:#C82930;stroke-width:0.6;" width="3.6" x="32.4" y="423.3398"/><text fill="#000000" font-family="sans-serif" font-size="8.4" lengthAdjust="spacing" textLength="91.2" x="39.6" y="427.718">dimensions: Dimensions</text><line style="stroke:#181818;stroke-width:0.3;" x1="28.2" x2="390.6" y1="432.2262" y2="432.2262"/><ellipse cx="34.2" cy="441.1125" fill="#84BE84" rx="1.8" ry="1.8" style="stroke:#038048;stroke-width:0.6;"/><text fill="#000000" font-family="sans-serif" font-size="8.4" lengthAdjust="spacing" textLength="348" x="39.6" y="443.6906">editRoomConfiguration(RoomFloor roomFloor, RoomDimensions roomDimensions): boolean</text><ellipse cx="34.2" cy="452.2852" fill="#84BE84" rx="1.8" ry="1.8" style="stroke:#038048;stroke-width:0.6;"/><text fill="#000000" font-family="sans-serif" font-size="8.4" lengthAdjust="spacing" textLength="114" x="39.6" y="454.8633">getRoomFloor(): FloorNumber</text><ellipse cx="34.2" cy="463.4578" fill="#84BE84" rx="1.8" ry="1.8" style="stroke:#038048;stroke-width:0.6;"/><text fill="#000000" font-family="sans-serif" font-size="8.4" lengthAdjust="spacing" textLength="132.6" x="39.6" y="466.0359">getRoomDimensions(): Dimensions</text><ellipse cx="34.2" cy="474.6305" fill="#84BE84" rx="1.8" ry="1.8" style="stroke:#038048;stroke-width:0.6;"/><text fill="#000000" font-family="sans-serif" font-size="8.4" lengthAdjust="spacing" textLength="66.6" x="39.6" y="477.2086">identity(): RoomId</text><ellipse cx="34.2" cy="485.8031" fill="#84BE84" rx="1.8" ry="1.8" style="stroke:#038048;stroke-width:0.6;"/><text fill="#000000" font-family="sans-serif" font-size="8.4" lengthAdjust="spacing" textLength="128.4" x="39.6" y="488.3812">isSameAs(Object object): boolean</text></g><!--class FactoryRoom--><g id="elem_FactoryRoom"><rect codeLine="64" fill="#F1F1F1" height="51.1453" id="FactoryRoom" rx="1.5" ry="1.5" style="stroke:#181818;stroke-width:0.3;" width="278.4" x="102" y="178.2082"/><ellipse cx="213.15" cy="187.8082" fill="#B4A7E5" rx="6.6" ry="6.6" style="stroke:#181818;stroke-width:0.6;"/><path d="M213.7219,185.7926 L213.7219,189.7863 L214.7531,189.7863 Q215.1188,189.7863 215.2781,189.927 Q215.4375,190.0676 215.4375,190.302 Q215.4375,190.527 215.2781,190.6676 Q215.1188,190.8082 214.7531,190.8082 L211.6688,190.8082 Q211.3031,190.8082 211.1437,190.6676 Q210.9844,190.527 210.9844,190.2926 Q210.9844,190.0676 211.1437,189.927 Q211.3031,189.7863 211.6688,189.7863 L212.7,189.7863 L212.7,185.7926 L211.6688,185.7926 Q211.3031,185.7926 211.1437,185.652 Q210.9844,185.5113 210.9844,185.277 Q210.9844,185.052 211.1437,184.9113 Q211.3031,184.7707 211.6688,184.7707 L214.7531,184.7707 Q215.1188,184.7707 215.2781,184.9113 Q215.4375,185.052 215.4375,185.277 Q215.4375,185.5113 215.2781,185.652 Q215.1188,185.7926 214.7531,185.7926 L213.7219,185.7926 Z " fill="#000000"/><text fill="#000000" font-family="sans-serif" font-size="8.4" font-style="italic" lengthAdjust="spacing" textLength="51" x="225.45" y="191.2863">FactoryRoom</text><line style="stroke:#181818;stroke-width:0.3;" x1="102.6" x2="379.8" y1="197.4082" y2="197.4082"/><line style="stroke:#181818;stroke-width:0.3;" x1="102.6" x2="379.8" y1="202.2082" y2="202.2082"/><ellipse cx="108.6" cy="216.6809" fill="#84BE84" rx="1.8" ry="1.8" style="stroke:#038048;stroke-width:0.6;"/><text fill="#000000" font-family="sans-serif" font-size="8.4" lengthAdjust="spacing" textLength="179.4" x="114" y="213.6727">createRoom(String roomName, int floorNumber,</text><text fill="#000000" font-family="sans-serif" font-size="8.4" lengthAdjust="spacing" textLength="260.4" x="116.4" y="224.8453">double length, double width, double length, HouseID houseID): Room</text></g><!--class ImplFactoryRoom--><g id="elem_ImplFactoryRoom"><rect codeLine="67" fill="#F1F1F1" height="51.1453" id="ImplFactoryRoom" rx="1.5" ry="1.5" style="stroke:#181818;stroke-width:0.3;" width="278.4" x="91.2" y="282.0082"/><ellipse cx="194.85" cy="291.6082" fill="#ADD1B2" rx="6.6" ry="6.6" style="stroke:#181818;stroke-width:0.6;"/><path d="M196.5094,289.1332 Q196.6031,289.002 196.7156,288.9363 Q196.8281,288.8707 196.9594,288.8707 Q197.1844,288.8707 197.325,289.0301 Q197.4656,289.1801 197.4656,289.5457 L197.4656,290.4176 Q197.4656,290.7832 197.325,290.9426 Q197.1844,291.102 196.9594,291.102 Q196.7531,291.102 196.6313,290.9801 Q196.5094,290.8676 196.4438,290.5582 Q196.4156,290.3426 196.3031,290.2301 Q196.1063,290.0051 195.7406,289.8738 Q195.375,289.7426 195,289.7426 Q194.5406,289.7426 194.1563,289.9395 Q193.7813,290.1363 193.4813,290.5863 Q193.1906,291.0363 193.1906,291.6551 L193.1906,292.3113 Q193.1906,293.052 193.725,293.5488 Q194.2594,294.0363 195.2156,294.0363 Q195.7781,294.0363 196.1719,293.8863 Q196.4063,293.7926 196.6594,293.5301 Q196.8188,293.3707 196.9031,293.3238 Q196.9969,293.277 197.1188,293.277 Q197.3156,293.277 197.4656,293.4363 Q197.625,293.5863 197.625,293.7926 Q197.625,293.9988 197.4188,294.2426 Q197.1188,294.5895 196.6406,294.7863 Q195.9938,295.0582 195.2156,295.0582 Q194.3063,295.0582 193.5844,294.6832 Q192.9938,294.3832 192.5812,293.7457 Q192.1688,293.0988 192.1688,292.3301 L192.1688,291.6363 Q192.1688,290.8395 192.5344,290.1551 Q192.9094,289.4613 193.5656,289.0957 Q194.2219,288.7207 194.9625,288.7207 Q195.4031,288.7207 195.7875,288.8238 Q196.1813,288.9176 196.5094,289.1332 Z " fill="#000000"/><text fill="#000000" font-family="sans-serif" font-size="8.4" lengthAdjust="spacing" textLength="66" x="207.15" y="295.0863">ImplFactoryRoom</text><line style="stroke:#181818;stroke-width:0.3;" x1="91.8" x2="369" y1="301.2082" y2="301.2082"/><line style="stroke:#181818;stroke-width:0.3;" x1="91.8" x2="369" y1="306.0082" y2="306.0082"/><ellipse cx="97.8" cy="320.4809" fill="#84BE84" rx="1.8" ry="1.8" style="stroke:#038048;stroke-width:0.6;"/><text fill="#000000" font-family="sans-serif" font-size="8.4" lengthAdjust="spacing" textLength="179.4" x="103.2" y="317.4727">createRoom(String roomName, int floorNumber,</text><text fill="#000000" font-family="sans-serif" font-size="8.4" lengthAdjust="spacing" textLength="260.4" x="105.6" y="328.6453">double length, double width, double length, HouseID houseID): Room</text></g><!--class RoomId--><g id="elem_RoomId"><rect codeLine="86" fill="#F1F1F1" height="51.1453" id="RoomId" rx="1.5" ry="1.5" style="stroke:#181818;stroke-width:0.3;" width="104.4" x="49.8" y="593.7082"/><ellipse cx="78.75" cy="603.3082" fill="#ADD1B2" rx="6.6" ry="6.6" style="stroke:#181818;stroke-width:0.6;"/><path d="M80.4094,600.8332 Q80.5031,600.702 80.6156,600.6363 Q80.7281,600.5707 80.8594,600.5707 Q81.0844,600.5707 81.225,600.7301 Q81.3656,600.8801 81.3656,601.2457 L81.3656,602.1176 Q81.3656,602.4832 81.225,602.6426 Q81.0844,602.802 80.8594,602.802 Q80.6531,602.802 80.5313,602.6801 Q80.4094,602.5676 80.3438,602.2582 Q80.3156,602.0426 80.2031,601.9301 Q80.0063,601.7051 79.6406,601.5738 Q79.275,601.4426 78.9,601.4426 Q78.4406,601.4426 78.0562,601.6395 Q77.6812,601.8363 77.3813,602.2863 Q77.0906,602.7363 77.0906,603.3551 L77.0906,604.0113 Q77.0906,604.752 77.625,605.2488 Q78.1594,605.7363 79.1156,605.7363 Q79.6781,605.7363 80.0719,605.5863 Q80.3062,605.4926 80.5594,605.2301 Q80.7188,605.0707 80.8031,605.0238 Q80.8969,604.977 81.0188,604.977 Q81.2156,604.977 81.3656,605.1363 Q81.525,605.2863 81.525,605.4926 Q81.525,605.6988 81.3188,605.9426 Q81.0188,606.2895 80.5406,606.4863 Q79.8938,606.7582 79.1156,606.7582 Q78.2063,606.7582 77.4844,606.3832 Q76.8938,606.0832 76.4813,605.4457 Q76.0688,604.7988 76.0688,604.0301 L76.0688,603.3363 Q76.0688,602.5395 76.4344,601.8551 Q76.8094,601.1613 77.4656,600.7957 Q78.1219,600.4207 78.8625,600.4207 Q79.3031,600.4207 79.6875,600.5238 Q80.0813,600.6176 80.4094,600.8332 Z " fill="#000000"/><text fill="#000000" font-family="sans-serif" font-size="8.4" lengthAdjust="spacing" textLength="28.8" x="91.05" y="606.7863">RoomId</text><rect fill="#FFFFFF" height="10.7766" style="stroke:#181818;stroke-width:0.6;stroke-dasharray:2.0,2.0;" width="11.4" x="144.6" y="591.9082"/><text fill="#000000" font-family="sans-serif" font-size="7.2" font-style="italic" lengthAdjust="spacing" textLength="10.2" x="145.2" y="600.2777">VO</text><line style="stroke:#181818;stroke-width:0.3;" x1="50.4" x2="153.6" y1="612.9082" y2="612.9082"/><rect fill="none" height="3.6" style="stroke:#C82930;stroke-width:0.6;" width="3.6" x="54.6" y="619.9945"/><text fill="#000000" font-family="sans-serif" font-size="8.4" lengthAdjust="spacing" textLength="67.8" x="61.8" y="624.3727">roomName: String</text><line style="stroke:#181818;stroke-width:0.3;" x1="50.4" x2="153.6" y1="628.8809" y2="628.8809"/><ellipse cx="56.4" cy="637.7672" fill="#84BE84" rx="1.8" ry="1.8" style="stroke:#038048;stroke-width:0.6;"/><text fill="#000000" font-family="sans-serif" font-size="8.4" lengthAdjust="spacing" textLength="88.8" x="61.8" y="640.3453">getRoomName(): String</text></g><!--class RoomFloor--><g id="elem_RoomFloor"><rect codeLine="90" fill="#F1F1F1" height="51.1453" id="RoomFloor" rx="1.5" ry="1.5" style="stroke:#181818;stroke-width:0.3;" width="96.6" x="175.5" y="593.7082"/><ellipse cx="194.76" cy="603.3082" fill="#ADD1B2" rx="6.6" ry="6.6" style="stroke:#181818;stroke-width:0.6;"/><path d="M196.4194,600.8332 Q196.5131,600.702 196.6256,600.6363 Q196.7381,600.5707 196.8694,600.5707 Q197.0944,600.5707 197.235,600.7301 Q197.3756,600.8801 197.3756,601.2457 L197.3756,602.1176 Q197.3756,602.4832 197.235,602.6426 Q197.0944,602.802 196.8694,602.802 Q196.6631,602.802 196.5413,602.6801 Q196.4194,602.5676 196.3538,602.2582 Q196.3256,602.0426 196.2131,601.9301 Q196.0163,601.7051 195.6506,601.5738 Q195.285,601.4426 194.91,601.4426 Q194.4506,601.4426 194.0663,601.6395 Q193.6913,601.8363 193.3913,602.2863 Q193.1006,602.7363 193.1006,603.3551 L193.1006,604.0113 Q193.1006,604.752 193.635,605.2488 Q194.1694,605.7363 195.1256,605.7363 Q195.6881,605.7363 196.0819,605.5863 Q196.3163,605.4926 196.5694,605.2301 Q196.7288,605.0707 196.8131,605.0238 Q196.9069,604.977 197.0288,604.977 Q197.2256,604.977 197.3756,605.1363 Q197.535,605.2863 197.535,605.4926 Q197.535,605.6988 197.3288,605.9426 Q197.0288,606.2895 196.5506,606.4863 Q195.9038,606.7582 195.1256,606.7582 Q194.2163,606.7582 193.4944,606.3832 Q192.9038,606.0832 192.4913,605.4457 Q192.0788,604.7988 192.0788,604.0301 L192.0788,603.3363 Q192.0788,602.5395 192.4444,601.8551 Q192.8194,601.1613 193.4756,600.7957 Q194.1319,600.4207 194.8725,600.4207 Q195.3131,600.4207 195.6975,600.5238 Q196.0913,600.6176 196.4194,600.8332 Z " fill="#000000"/><text fill="#000000" font-family="sans-serif" font-size="8.4" lengthAdjust="spacing" textLength="42" x="205.44" y="606.7863">RoomFloor</text><rect fill="#FFFFFF" height="10.7766" style="stroke:#181818;stroke-width:0.6;stroke-dasharray:2.0,2.0;" width="11.4" x="262.5" y="591.9082"/><text fill="#000000" font-family="sans-serif" font-size="7.2" font-style="italic" lengthAdjust="spacing" textLength="10.2" x="263.1" y="600.2777">VO</text><line style="stroke:#181818;stroke-width:0.3;" x1="176.1" x2="271.5" y1="612.9082" y2="612.9082"/><rect fill="none" height="3.6" style="stroke:#C82930;stroke-width:0.6;" width="3.6" x="180.3" y="619.9945"/><text fill="#000000" font-family="sans-serif" font-size="8.4" lengthAdjust="spacing" textLength="60" x="187.5" y="624.3727">floorNumber: int</text><line style="stroke:#181818;stroke-width:0.3;" x1="176.1" x2="271.5" y1="628.8809" y2="628.8809"/><ellipse cx="182.1" cy="637.7672" fill="#84BE84" rx="1.8" ry="1.8" style="stroke:#038048;stroke-width:0.6;"/><text fill="#000000" font-family="sans-serif" font-size="8.4" lengthAdjust="spacing" textLength="81" x="187.5" y="640.3453">getFloorNumber(): int</text></g><!--class RoomDimensions--><g id="elem_RoomDimensions"><rect codeLine="94" fill="#F1F1F1" height="95.8359" id="RoomDimensions" rx="1.5" ry="1.5" style="stroke:#181818;stroke-width:0.3;" width="97.8" x="293.1" y="571.2082"/><ellipse cx="302.1" cy="580.8082" fill="#ADD1B2" rx="6.6" ry="6.6" style="stroke:#181818;stroke-width:0.6;"/><path d="M303.7594,578.3332 Q303.8531,578.202 303.9656,578.1363 Q304.0781,578.0707 304.2094,578.0707 Q304.4344,578.0707 304.575,578.2301 Q304.7156,578.3801 304.7156,578.7457 L304.7156,579.6176 Q304.7156,579.9832 304.575,580.1426 Q304.4344,580.302 304.2094,580.302 Q304.0031,580.302 303.8812,580.1801 Q303.7594,580.0676 303.6937,579.7582 Q303.6656,579.5426 303.5531,579.4301 Q303.3563,579.2051 302.9906,579.0738 Q302.625,578.9426 302.25,578.9426 Q301.7906,578.9426 301.4063,579.1395 Q301.0313,579.3363 300.7313,579.7863 Q300.4406,580.2363 300.4406,580.8551 L300.4406,581.5113 Q300.4406,582.252 300.975,582.7488 Q301.5094,583.2363 302.4656,583.2363 Q303.0281,583.2363 303.4219,583.0863 Q303.6563,582.9926 303.9094,582.7301 Q304.0687,582.5707 304.1531,582.5238 Q304.2469,582.477 304.3688,582.477 Q304.5656,582.477 304.7156,582.6363 Q304.875,582.7863 304.875,582.9926 Q304.875,583.1988 304.6688,583.4426 Q304.3688,583.7895 303.8906,583.9863 Q303.2438,584.2582 302.4656,584.2582 Q301.5563,584.2582 300.8344,583.8832 Q300.2438,583.5832 299.8313,582.9457 Q299.4188,582.2988 299.4188,581.5301 L299.4188,580.8363 Q299.4188,580.0395 299.7844,579.3551 Q300.1594,578.6613 300.8156,578.2957 Q301.4719,577.9207 302.2125,577.9207 Q302.6531,577.9207 303.0375,578.0238 Q303.4313,578.1176 303.7594,578.3332 Z " fill="#000000"/><text fill="#000000" font-family="sans-serif" font-size="8.4" lengthAdjust="spacing" textLength="66" x="310.5" y="584.2863">RoomDimensions</text><rect fill="#FFFFFF" height="10.7766" style="stroke:#181818;stroke-width:0.6;stroke-dasharray:2.0,2.0;" width="11.4" x="381.3" y="569.4082"/><text fill="#000000" font-family="sans-serif" font-size="7.2" font-style="italic" lengthAdjust="spacing" textLength="10.2" x="381.9" y="577.7777">VO</text><line style="stroke:#181818;stroke-width:0.3;" x1="293.7" x2="390.3" y1="590.4082" y2="590.4082"/><rect fill="none" height="3.6" style="stroke:#C82930;stroke-width:0.6;" width="3.6" x="297.9" y="597.4945"/><text fill="#000000" font-family="sans-serif" font-size="8.4" lengthAdjust="spacing" textLength="54" x="305.1" y="601.8727">length: double</text><rect fill="none" height="3.6" style="stroke:#C82930;stroke-width:0.6;" width="3.6" x="297.9" y="608.6672"/><text fill="#000000" font-family="sans-serif" font-size="8.4" lengthAdjust="spacing" textLength="49.8" x="305.1" y="613.0453">width: double</text><rect fill="none" height="3.6" style="stroke:#C82930;stroke-width:0.6;" width="3.6" x="297.9" y="619.8398"/><text fill="#000000" font-family="sans-serif" font-size="8.4" lengthAdjust="spacing" textLength="54" x="305.1" y="624.218">height: double</text><line style="stroke:#181818;stroke-width:0.3;" x1="293.7" x2="390.3" y1="628.7262" y2="628.7262"/><ellipse cx="299.7" cy="637.6125" fill="#84BE84" rx="1.8" ry="1.8" style="stroke:#038048;stroke-width:0.6;"/><text fill="#000000" font-family="sans-serif" font-size="8.4" lengthAdjust="spacing" textLength="75" x="305.1" y="640.1906">getLength(): double</text><ellipse cx="299.7" cy="648.7852" fill="#84BE84" rx="1.8" ry="1.8" style="stroke:#038048;stroke-width:0.6;"/><text fill="#000000" font-family="sans-serif" font-size="8.4" lengthAdjust="spacing" textLength="70.2" x="305.1" y="651.3633">getWidth(): double</text><ellipse cx="299.7" cy="659.9578" fill="#84BE84" rx="1.8" ry="1.8" style="stroke:#038048;stroke-width:0.6;"/><text fill="#000000" font-family="sans-serif" font-size="8.4" lengthAdjust="spacing" textLength="72.6" x="305.1" y="662.5359">getHeight(): double</text></g><!--reverse link valueObject to DomainID--><g id="link_valueObject_DomainID"><path d="M999.6,65.5522 C999.6,76.2202 999.6,79.8562 999.6,90.5122 " fill="none" id="valueObject-backto-DomainID" style="stroke:#181818;stroke-width:0.6;"/><polygon fill="none" points="999.6,54.7522,996,65.5522,1003.2,65.5522,999.6,54.7522" style="stroke:#181818;stroke-width:0.6;"/></g><!--reverse link DomainEntity to AggregateRoot--><g id="link_DomainEntity_AggregateRoot"><path d="M959.4,240.1642 C959.4,260.2162 959.4,276.5602 959.4,293.0122 " fill="none" id="DomainEntity-backto-AggregateRoot" style="stroke:#181818;stroke-width:0.6;"/><polygon fill="none" points="959.4,229.3642,955.8,240.1642,963,240.1642,959.4,229.3642" style="stroke:#181818;stroke-width:0.6;"/></g><!--reverse link DomainID to DomainEntity--><g id="link_DomainID_DomainEntity"><path d="M999.6,130.3702 C999.6,145.7602 999.6,159.5362 999.6,178.1602 " fill="none" id="DomainID-backto-DomainEntity" style="stroke:#181818;stroke-width:0.6;"/><polygon fill="none" points="999.6,119.5702,996,130.3702,1003.2,130.3702,999.6,119.5702" style="stroke:#181818;stroke-width:0.6;"/></g><!--reverse link AggregateRoot to Repository--><g id="link_AggregateRoot_Repository"><path d="M959.4,332.7982 C959.4,351.0022 959.4,372.1042 959.4,397.1842 " fill="none" id="AggregateRoot-backto-Repository" style="stroke:#181818;stroke-width:0.6;"/><polygon fill="none" points="959.4,321.9982,955.8,332.7982,963,332.7982,959.4,321.9982" style="stroke:#181818;stroke-width:0.6;"/></g><!--link RepositoryRoom to Repository--><g id="link_RepositoryRoom_Repository"><path codeLine="39" d="M853.89,237.6082 C881.262,237.6082 904.2,237.6082 904.2,237.6082 C904.2,237.6082 904.2,329.5462 904.2,386.3362 " fill="none" id="RepositoryRoom-to-Repository" style="stroke:#181818;stroke-width:0.6;stroke-dasharray:7.0,7.0;"/><polygon fill="none" points="904.2,397.1362,907.8,386.3362,900.6,386.3362,904.2,397.1362" style="stroke:#181818;stroke-width:0.6;"/></g><!--reverse link AggregateRoot to Room--><g id="link_AggregateRoot_Room"><path d="M910.194,307.8082 C781.992,307.8082 387.6,307.8082 387.6,307.8082 C387.6,307.8082 387.6,341.9422 387.6,374.6842 " fill="none" id="AggregateRoot-backto-Room" style="stroke:#181818;stroke-width:0.6;stroke-dasharray:7.0,7.0;"/><polygon fill="none" points="920.994,307.8082,910.194,304.2082,910.194,311.4082,920.994,307.8082" style="stroke:#181818;stroke-width:0.6;"/></g><!--reverse link DomainID to RoomId--><g id="link_DomainID_RoomId"><path d="M960.444,105.0082 C799.308,105.0082 16.8,105.0082 16.8,105.0082 C16.8,105.0082 16.8,619.2082 16.8,619.2082 C16.8,619.2082 32.106,619.2082 49.74,619.2082 " fill="none" id="DomainID-backto-RoomId" style="stroke:#181818;stroke-width:0.6;stroke-dasharray:7.0,7.0;"/><polygon fill="none" points="971.244,105.0082,960.444,101.4082,960.444,108.6082,971.244,105.0082" style="stroke:#181818;stroke-width:0.6;"/></g><!--reverse link valueObject to RoomFloor--><g id="link_valueObject_RoomFloor"><path d="M956.91,45.0082 C918.714,45.0082 870.6,45.0082 870.6,45.0082 C870.6,45.0082 870.6,535.2082 870.6,535.2082 C870.6,535.2082 239.898,535.2082 239.898,535.2082 C239.898,535.2082 239.898,568.8442 239.898,593.5462 " fill="none" id="valueObject-backto-RoomFloor" style="stroke:#181818;stroke-width:0.6;stroke-dasharray:7.0,7.0;"/><polygon fill="none" points="967.71,45.0082,956.91,41.4082,956.91,48.6082,967.71,45.0082" style="stroke:#181818;stroke-width:0.6;"/></g><!--reverse link valueObject to RoomDimensions--><g id="link_valueObject_RoomDimensions"><path d="M956.898,35.4082 C872.766,35.4082 662.1,35.4082 662.1,35.4082 C662.1,35.4082 662.1,619.2082 662.1,619.2082 C662.1,619.2082 480.636,619.2082 390.966,619.2082 " fill="none" id="valueObject-backto-RoomDimensions" style="stroke:#181818;stroke-width:0.6;stroke-dasharray:7.0,7.0;"/><polygon fill="none" points="967.698,35.4082,956.898,31.8082,956.898,39.0082,967.698,35.4082" style="stroke:#181818;stroke-width:0.6;"/></g><!--reverse link FactoryRoom to ImplFactoryRoom--><g id="link_FactoryRoom_ImplFactoryRoom"><path d="M235.8,240.1642 C235.8,256.1962 235.8,265.9582 235.8,281.9662 " fill="none" id="FactoryRoom-backto-ImplFactoryRoom" style="stroke:#181818;stroke-width:0.6;stroke-dasharray:7.0,7.0;"/><polygon fill="none" points="235.8,229.3642,232.2,240.1642,239.4,240.1642,235.8,229.3642" style="stroke:#181818;stroke-width:0.6;"/></g><!--link ImplFactoryRoom to Room--><g id="link_ImplFactoryRoom_Room"><path codeLine="82" d="M230.4,333.0682 C230.4,345.1042 230.4,356.4082 230.4,371.0242 " fill="none" id="ImplFactoryRoom-to-Room" style="stroke:#181818;stroke-width:0.6;"/><polygon fill="#181818" points="230.4,374.6242,232.8,369.2242,230.4,371.6242,228,369.2242,230.4,374.6242" style="stroke:#181818;stroke-width:0.6;"/><text fill="#000000" font-family="sans-serif" font-size="7.8" lengthAdjust="spacing" textLength="34.2" x="195.6" y="351.4632">&#171;creates&#187;</text></g><!--link Room to RoomDimensions--><g id="link_Room_RoomDimensions"><path codeLine="103" d="M342,492.9802 C342,518.2042 342,543.6502 342,567.5182 " fill="none" id="Room-to-RoomDimensions" style="stroke:#181818;stroke-width:0.6;"/><polygon fill="#181818" points="342,571.1182,344.4,565.7182,342,568.1182,339.6,565.7182,342,571.1182" style="stroke:#181818;stroke-width:0.6;"/></g><!--link Room to RoomFloor--><g id="link_Room_RoomFloor"><path codeLine="104" d="M207.702,492.9802 C207.702,526.8922 207.702,564.1222 207.702,589.9762 " fill="none" id="Room-to-RoomFloor" style="stroke:#181818;stroke-width:0.6;"/><polygon fill="#181818" points="207.702,593.5762,210.102,588.1762,207.702,590.5762,205.302,588.1762,207.702,593.5762" style="stroke:#181818;stroke-width:0.6;"/></g><!--link Room to RoomId--><g id="link_Room_RoomId"><path codeLine="105" d="M102,492.9802 C102,526.8922 102,564.1222 102,589.9762 " fill="none" id="Room-to-RoomId" style="stroke:#181818;stroke-width:0.6;"/><polygon fill="#181818" points="102,593.5762,104.4,588.1762,102,590.5762,99.6,588.1762,102,593.5762" style="stroke:#181818;stroke-width:0.6;"/></g><!--link RepositoryRoom to Room--><g id="link_RepositoryRoom_Room"><path codeLine="106" d="M733.002,246.0802 C733.002,256.1362 733.002,264.0082 733.002,264.0082 C733.002,264.0082 384,264.0082 384,264.0082 C384,264.0082 384,322.0522 384,371.0602 " fill="none" id="RepositoryRoom-to-Room" style="stroke:#181818;stroke-width:0.6;stroke-dasharray:7.0,7.0;"/><polygon fill="#181818" points="384,374.6602,386.4,369.2602,384,371.6602,381.6,369.2602,384,374.6602" style="stroke:#181818;stroke-width:0.6;"/></g><!--reverse link RepositoryRoom to RoomService--><g id="link_RepositoryRoom_RoomService"><path codeLine="107" d="M793.398,249.6682 C793.398,302.7922 793.398,383.4082 793.398,383.4082 C793.398,383.4082 703.656,383.4082 632.136,383.4082 " fill="none" id="RepositoryRoom-backto-RoomService" style="stroke:#181818;stroke-width:0.6;stroke-dasharray:7.0,7.0;"/><polygon fill="#181818" points="793.398,246.0682,790.998,251.4682,793.398,249.0682,795.798,251.4682,793.398,246.0682" style="stroke:#181818;stroke-width:0.6;"/><text fill="#000000" font-family="sans-serif" font-size="7.8" lengthAdjust="spacing" textLength="25.2" x="755.64" y="381.0252">&#171;uses&#187;</text></g><!--reverse link FactoryRoom to RoomService--><g id="link_FactoryRoom_RoomService"><path codeLine="108" d="M375,232.8682 C375,279.9502 375,372.0082 375,372.0082 C375,372.0082 416.442,372.0082 458.454,372.0082 " fill="none" id="FactoryRoom-backto-RoomService" style="stroke:#181818;stroke-width:0.6;stroke-dasharray:7.0,7.0;"/><polygon fill="#181818" points="375,229.2682,372.6,234.6682,375,232.2682,377.4,234.6682,375,229.2682" style="stroke:#181818;stroke-width:0.6;"/><text fill="#000000" font-family="sans-serif" font-size="7.8" lengthAdjust="spacing" textLength="25.2" x="349.2" y="351.3792">&#171;uses&#187;</text></g><!--link RoomService to HouseRepository--><g id="link_RoomService_HouseRepository"><path codeLine="111" d="M545.4,368.9482 C545.4,329.6062 545.4,284.1262 545.4,249.7162 " fill="none" id="RoomService-to-HouseRepository" style="stroke:#181818;stroke-width:0.6;stroke-dasharray:7.0,7.0;"/><polygon fill="#181818" points="545.4,246.1162,543,251.5162,545.4,249.1162,547.8,251.5162,545.4,246.1162" style="stroke:#181818;stroke-width:0.6;"/><text fill="#000000" font-family="sans-serif" font-size="7.8" lengthAdjust="spacing" textLength="25.2" x="519.6" y="305.1492">&#171;uses&#187;</text></g><!--SRC=[pLPTRvim57tdL_XjgPgaxoX2IiUg8csDr4JRoruSx1AlW15skaLR_lkkFm3Ra7IFYoeLVC_zEZw- -CD1oaR4TtTDYMjvhCfbpgkxlCH2B0Z3HOkhA1Alh6umFAAIrLIU6efuAmyyYXgSl-A28a88-XqX-B5QqlO5vnIzuV98D_iVD9U19UKLPdMM8lfBqfg8Tw6VQidaAJ2jYwAb1PRqcNFPXxhYy4mRBfZaxIcwaYM815MQnX2wPOHgoEmcpj9-KMnnHTTYPkf7NF-xYT6UyvBYMkFEqSLQ-dn-FrrIo71i2AnksYr-exCTCZL0Wjq0UM4rMPUbxe1H0GMY35BXVKbNkyJ7cJRlJrawW-OO0UocaOpNkFImEQyb420cy7vhvq47WhPlBAV2bgzrXA2VQciCTds1MbWRE8WrnjcV0VI0SuEm3mfepGT-5DGDykWlHAQDbW9xwvee-fJtR2jRLXSwUaRctskrBUYbvBnzEbPxsiuHuKTW3fMqBkH18Up2JqRWlNixK5OSmfq6YajWNYKIzoTT4H1d_vkIi_GcXfXVSBDIi7ItcUl-3VUtb32fwxJ6iPJWhsUyxTfbFUi30oe2MYwNVn8Kq69tnaUkLB34aTuYNU_MSLzfbhg5ZhMfW_Jox7VgNOK6CGEHcio1K0EN2QswRXD7qTOPQcRC0GWDMiI61RkFS-Cs581kaSU4DWzKw5SNV8sDSUY0a51CBY_66RdU4zoCvEWnv1zfeiUW9SIIfevEFwwMUjjPrPIq0hjG7uEbDymSnUb9RqQazij8wDcDtIjE3-giXdxXDsJQDMNW8O0hSSrV1-XFcDki8unXc3kZoHNEC7t2iVC4NupvQEmCSyOEdkcnqnd7c-YTk7F_P9Z8e5stKATzl_x_hm6hEZkZG519GFEYgyc4o8XlTMg4xyZmugD8BuqO3JBnsUXcyqTUlx3Ys69rx6Q39jlkoGnAHssjzngUk2v-GMKVJ0s5IyLsm26YGb-gshctJF7pRrSOTtR2BvJJOf7es35QhOncH9Au0xSxJiw9T7Pnk2d0H5XztOns60rRR7Jeju0i8GgXsWmmvub4PiScStc20PMFSpaRezAvcAbSZX0c4veZ4TiJ4XZrwRbWCtUGIQEkyxCEh4gyXFYceby3FEeK4uXpvBPhLM1bC9AYRzRqJLfwROvlCSjbuaw8yF82TlUggOG8SwLJ8VAct1MmagjxOuMauHt1GVy5]--></g></svg>