<?xml version="1.0" encoding="us-ascii" standalone="no"?><svg xmlns="http://www.w3.org/2000/svg" xmlns:xlink="http://www.w3.org/1999/xlink" contentStyleType="text/css" height="819px" preserveAspectRatio="none" style="width:2503px;height:819px;background:#FFFFFF;" version="1.1" viewBox="0 0 2503 819" width="2503px" zoomAndPan="magnify"><defs/><g><!--cluster domain--><g id="cluster_domain"><path d="M8.5,6.0137 L60.5,6.0137 A3.75,3.75 0 0 1 63,8.5137 L70,30.6348 L2087.5,30.6348 A2.5,2.5 0 0 1 2090,33.1348 L2090,809.5137 A2.5,2.5 0 0 1 2087.5,812.0137 L8.5,812.0137 A2.5,2.5 0 0 1 6,809.5137 L6,8.5137 A2.5,2.5 0 0 1 8.5,6.0137 " fill="none" style="stroke:#000000;stroke-width:1.5;"/><line style="stroke:#000000;stroke-width:1.5;" x1="6" x2="70" y1="30.6348" y2="30.6348"/><text fill="#000000" font-family="sans-serif" font-size="14" font-weight="bold" lengthAdjust="spacing" textLength="51" x="10" y="23.1211">domain</text></g><!--cluster actuator--><g id="cluster_actuator"><path d="M32.5,51.0137 L91.5,51.0137 A3.75,3.75 0 0 1 94,53.5137 L101,75.6348 L855.5,75.6348 A2.5,2.5 0 0 1 858,78.1348 L858,748.5137 A2.5,2.5 0 0 1 855.5,751.0137 L32.5,751.0137 A2.5,2.5 0 0 1 30,748.5137 L30,53.5137 A2.5,2.5 0 0 1 32.5,51.0137 " fill="none" style="stroke:#000000;stroke-width:1.5;"/><line style="stroke:#000000;stroke-width:1.5;" x1="30" x2="101" y1="75.6348" y2="75.6348"/><text fill="#000000" font-family="sans-serif" font-size="14" font-weight="bold" lengthAdjust="spacing" textLength="58" x="34" y="68.1211">actuator</text></g><!--cluster SwitchActuatorAggregate--><g id="cluster_SwitchActuatorAggregate"><path d="M405.5,240.0137 L584.5,240.0137 A3.75,3.75 0 0 1 587,242.5137 L594,264.6348 L823.5,264.6348 A2.5,2.5 0 0 1 826,267.1348 L826,559.5137 A2.5,2.5 0 0 1 823.5,562.0137 L405.5,562.0137 A2.5,2.5 0 0 1 403,559.5137 L403,242.5137 A2.5,2.5 0 0 1 405.5,240.0137 " fill="none" style="stroke:#000000;stroke-width:1.5;"/><line style="stroke:#000000;stroke-width:1.5;" x1="403" x2="594" y1="264.6348" y2="264.6348"/><text fill="#000000" font-family="sans-serif" font-size="14" font-weight="bold" lengthAdjust="spacing" textLength="178" x="407" y="257.1211">SwitchActuatorAggregate</text></g><!--cluster valueobject--><g id="cluster_valueobject"><path d="M884.5,594.0137 L968.5,594.0137 A3.75,3.75 0 0 1 971,596.5137 L978,618.6348 L2063.5,618.6348 A2.5,2.5 0 0 1 2066,621.1348 L2066,785.5137 A2.5,2.5 0 0 1 2063.5,788.0137 L884.5,788.0137 A2.5,2.5 0 0 1 882,785.5137 L882,596.5137 A2.5,2.5 0 0 1 884.5,594.0137 " fill="none" style="stroke:#000000;stroke-width:1.5;"/><line style="stroke:#000000;stroke-width:1.5;" x1="882" x2="978" y1="618.6348" y2="618.6348"/><text fill="#000000" font-family="sans-serif" font-size="14" font-weight="bold" lengthAdjust="spacing" textLength="83" x="886" y="611.1211">valueobject</text></g><!--cluster repositories--><g id="cluster_repositories"><path d="M2116.5,14.0137 L2203.5,14.0137 A3.75,3.75 0 0 1 2206,16.5137 L2213,38.6348 L2493.5,38.6348 A2.5,2.5 0 0 1 2496,41.1348 L2496,205.5137 A2.5,2.5 0 0 1 2493.5,208.0137 L2116.5,208.0137 A2.5,2.5 0 0 1 2114,205.5137 L2114,16.5137 A2.5,2.5 0 0 1 2116.5,14.0137 " fill="none" style="stroke:#000000;stroke-width:1.5;"/><line style="stroke:#000000;stroke-width:1.5;" x1="2114" x2="2213" y1="38.6348" y2="38.6348"/><text fill="#000000" font-family="sans-serif" font-size="14" font-weight="bold" lengthAdjust="spacing" textLength="86" x="2118" y="31.1211">repositories</text></g><!--class Actuator--><g id="elem_Actuator"><rect codeLine="11" fill="#F1F1F1" height="85.2422" id="Actuator" rx="2.5" ry="2.5" style="stroke:#181818;stroke-width:0.5;" width="330" x="46" y="369.0137"/><ellipse cx="180.25" cy="385.0137" fill="#B4A7E5" rx="11" ry="11" style="stroke:#181818;stroke-width:1.0;"/><path d="M181.2031,381.6543 L181.2031,388.3105 L182.9219,388.3105 Q183.5313,388.3105 183.7969,388.5449 Q184.0625,388.7793 184.0625,389.1699 Q184.0625,389.5449 183.7969,389.7793 Q183.5313,390.0137 182.9219,390.0137 L177.7813,390.0137 Q177.1719,390.0137 176.9063,389.7793 Q176.6406,389.5449 176.6406,389.1543 Q176.6406,388.7793 176.9063,388.5449 Q177.1719,388.3105 177.7813,388.3105 L179.5,388.3105 L179.5,381.6543 L177.7813,381.6543 Q177.1719,381.6543 176.9063,381.4199 Q176.6406,381.1855 176.6406,380.7949 Q176.6406,380.4199 176.9063,380.1855 Q177.1719,379.9512 177.7813,379.9512 L182.9219,379.9512 Q183.5313,379.9512 183.7969,380.1855 Q184.0625,380.4199 184.0625,380.7949 Q184.0625,381.1855 183.7969,381.4199 Q183.5313,381.6543 182.9219,381.6543 L181.2031,381.6543 Z " fill="#000000"/><text fill="#000000" font-family="sans-serif" font-size="14" font-style="italic" lengthAdjust="spacing" textLength="53" x="200.75" y="390.8105">Actuator</text><line style="stroke:#181818;stroke-width:0.5;" x1="47" x2="375" y1="401.0137" y2="401.0137"/><line style="stroke:#181818;stroke-width:0.5;" x1="47" x2="375" y1="409.0137" y2="409.0137"/><ellipse cx="57" cy="423.8242" fill="#84BE84" rx="3" ry="3" style="stroke:#038048;stroke-width:1.0;"/><text fill="#000000" font-family="sans-serif" font-size="14" lengthAdjust="spacing" textLength="304" x="66" y="428.1211">getActuatorFunctionality(): ActuatorFunctionality</text><ellipse cx="57" cy="442.4453" fill="#84BE84" rx="3" ry="3" style="stroke:#038048;stroke-width:1.0;"/><text fill="#000000" font-family="sans-serif" font-size="14" lengthAdjust="spacing" textLength="173" x="66" y="446.7422">getDeviceName(): DeviceID</text></g><!--class ActuatorFactory--><g id="elem_ActuatorFactory"><rect codeLine="7" fill="#F1F1F1" height="66.6211" id="ActuatorFactory" rx="2.5" ry="2.5" style="stroke:#181818;stroke-width:0.5;" width="190" x="116" y="88.0137"/><ellipse cx="156.65" cy="104.0137" fill="#ADD1B2" rx="11" ry="11" style="stroke:#181818;stroke-width:1.0;"/><path d="M159.4156,99.8887 Q159.5719,99.6699 159.7594,99.5605 Q159.9469,99.4512 160.1656,99.4512 Q160.5406,99.4512 160.775,99.7168 Q161.0094,99.9668 161.0094,100.5762 L161.0094,102.0293 Q161.0094,102.6387 160.775,102.9043 Q160.5406,103.1699 160.1656,103.1699 Q159.8219,103.1699 159.6188,102.9668 Q159.4156,102.7793 159.3063,102.2637 Q159.2594,101.9043 159.0719,101.7168 Q158.7438,101.3418 158.1344,101.123 Q157.525,100.9043 156.9,100.9043 Q156.1344,100.9043 155.4938,101.2324 Q154.8688,101.5605 154.3688,102.3105 Q153.8844,103.0605 153.8844,104.0918 L153.8844,105.1855 Q153.8844,106.4199 154.775,107.248 Q155.6656,108.0605 157.2594,108.0605 Q158.1969,108.0605 158.8531,107.8105 Q159.2438,107.6543 159.6656,107.2168 Q159.9313,106.9512 160.0719,106.873 Q160.2281,106.7949 160.4313,106.7949 Q160.7594,106.7949 161.0094,107.0605 Q161.275,107.3105 161.275,107.6543 Q161.275,107.998 160.9313,108.4043 Q160.4313,108.9824 159.6344,109.3105 Q158.5563,109.7637 157.2594,109.7637 Q155.7438,109.7637 154.5406,109.1387 Q153.5563,108.6387 152.8688,107.5762 Q152.1813,106.498 152.1813,105.2168 L152.1813,104.0605 Q152.1813,102.7324 152.7906,101.5918 Q153.4156,100.4355 154.5094,99.8262 Q155.6031,99.2012 156.8375,99.2012 Q157.5719,99.2012 158.2125,99.373 Q158.8688,99.5293 159.4156,99.8887 Z " fill="#000000"/><text fill="#000000" font-family="sans-serif" font-size="14" lengthAdjust="spacing" textLength="101" x="176.35" y="109.8105">ActuatorFactory</text><line style="stroke:#181818;stroke-width:0.5;" x1="117" x2="305" y1="120.0137" y2="120.0137"/><line style="stroke:#181818;stroke-width:0.5;" x1="117" x2="305" y1="128.0137" y2="128.0137"/><ellipse cx="127" cy="142.8242" fill="#84BE84" rx="3" ry="3" style="stroke:#038048;stroke-width:1.0;"/><text fill="#000000" font-family="sans-serif" font-size="14" lengthAdjust="spacing" textLength="164" x="136" y="147.1211">createActuator(): Actuator</text></g><!--class ActuatorSpecificInteger--><g id="elem_ActuatorSpecificInteger"><rect codeLine="16" fill="#F1F1F1" height="66.6211" id="ActuatorSpecificInteger" rx="2.5" ry="2.5" style="stroke:#181818;stroke-width:0.5;" width="370" x="242" y="668.0137"/><ellipse cx="349.25" cy="684.0137" fill="#B4A7E5" rx="11" ry="11" style="stroke:#181818;stroke-width:1.0;"/><path d="M350.2031,680.6543 L350.2031,687.3105 L351.9219,687.3105 Q352.5313,687.3105 352.7969,687.5449 Q353.0625,687.7793 353.0625,688.1699 Q353.0625,688.5449 352.7969,688.7793 Q352.5313,689.0137 351.9219,689.0137 L346.7813,689.0137 Q346.1719,689.0137 345.9063,688.7793 Q345.6406,688.5449 345.6406,688.1543 Q345.6406,687.7793 345.9063,687.5449 Q346.1719,687.3105 346.7813,687.3105 L348.5,687.3105 L348.5,680.6543 L346.7813,680.6543 Q346.1719,680.6543 345.9063,680.4199 Q345.6406,680.1855 345.6406,679.7949 Q345.6406,679.4199 345.9063,679.1855 Q346.1719,678.9512 346.7813,678.9512 L351.9219,678.9512 Q352.5313,678.9512 352.7969,679.1855 Q353.0625,679.4199 353.0625,679.7949 Q353.0625,680.1855 352.7969,680.4199 Q352.5313,680.6543 351.9219,680.6543 L350.2031,680.6543 Z " fill="#000000"/><text fill="#000000" font-family="sans-serif" font-size="14" font-style="italic" lengthAdjust="spacing" textLength="147" x="369.75" y="689.8105">ActuatorSpecificInteger</text><line style="stroke:#181818;stroke-width:0.5;" x1="243" x2="611" y1="700.0137" y2="700.0137"/><line style="stroke:#181818;stroke-width:0.5;" x1="243" x2="611" y1="708.0137" y2="708.0137"/><ellipse cx="253" cy="722.8242" fill="#84BE84" rx="3" ry="3" style="stroke:#038048;stroke-width:1.0;"/><text fill="#000000" font-family="sans-serif" font-size="14" lengthAdjust="spacing" textLength="344" x="262" y="727.1211">setActuatorSpecificValue (int specificInteger) : boolean</text></g><!--class SwitchActuator--><g id="elem_SwitchActuator"><rect codeLine="20" fill="#F1F1F1" height="252.832" id="SwitchActuator" rx="2.5" ry="2.5" style="stroke:#181818;stroke-width:0.5;" width="356" x="446" y="285.0137"/><ellipse cx="573.25" cy="301.0137" fill="#ADD1B2" rx="11" ry="11" style="stroke:#181818;stroke-width:1.0;"/><path d="M576.0156,296.8887 Q576.1719,296.6699 576.3594,296.5605 Q576.5469,296.4512 576.7656,296.4512 Q577.1406,296.4512 577.375,296.7168 Q577.6094,296.9668 577.6094,297.5762 L577.6094,299.0293 Q577.6094,299.6387 577.375,299.9043 Q577.1406,300.1699 576.7656,300.1699 Q576.4219,300.1699 576.2188,299.9668 Q576.0156,299.7793 575.9063,299.2637 Q575.8594,298.9043 575.6719,298.7168 Q575.3438,298.3418 574.7344,298.123 Q574.125,297.9043 573.5,297.9043 Q572.7344,297.9043 572.0938,298.2324 Q571.4688,298.5605 570.9688,299.3105 Q570.4844,300.0605 570.4844,301.0918 L570.4844,302.1855 Q570.4844,303.4199 571.375,304.248 Q572.2656,305.0605 573.8594,305.0605 Q574.7969,305.0605 575.4531,304.8105 Q575.8438,304.6543 576.2656,304.2168 Q576.5313,303.9512 576.6719,303.873 Q576.8281,303.7949 577.0313,303.7949 Q577.3594,303.7949 577.6094,304.0605 Q577.875,304.3105 577.875,304.6543 Q577.875,304.998 577.5313,305.4043 Q577.0313,305.9824 576.2344,306.3105 Q575.1563,306.7637 573.8594,306.7637 Q572.3438,306.7637 571.1406,306.1387 Q570.1563,305.6387 569.4688,304.5762 Q568.7813,303.498 568.7813,302.2168 L568.7813,301.0605 Q568.7813,299.7324 569.3906,298.5918 Q570.0156,297.4355 571.1094,296.8262 Q572.2031,296.2012 573.4375,296.2012 Q574.1719,296.2012 574.8125,296.373 Q575.4688,296.5293 576.0156,296.8887 Z " fill="#000000"/><text fill="#000000" font-family="sans-serif" font-size="14" lengthAdjust="spacing" textLength="93" x="593.75" y="306.8105">SwitchActuator</text><line style="stroke:#181818;stroke-width:0.5;" x1="447" x2="801" y1="317.0137" y2="317.0137"/><rect fill="none" height="6" style="stroke:#C82930;stroke-width:1.0;" width="6" x="454" y="328.8242"/><text fill="#000000" font-family="sans-serif" font-size="14" lengthAdjust="spacing" textLength="166" x="466" y="336.1211">actuatorName : ActuatorID</text><rect fill="none" height="6" style="stroke:#C82930;stroke-width:1.0;" width="6" x="454" y="347.4453"/><text fill="#000000" font-family="sans-serif" font-size="14" lengthAdjust="spacing" textLength="243" x="466" y="354.7422">actuatorProperties: ActuatorProperties</text><rect fill="none" height="6" style="stroke:#C82930;stroke-width:1.0;" width="6" x="454" y="366.0664"/><text fill="#000000" font-family="sans-serif" font-size="14" lengthAdjust="spacing" textLength="303" x="466" y="373.3633">actuatorFunctionalityID : ActuatorFunctionalityID</text><rect fill="none" height="6" style="stroke:#C82930;stroke-width:1.0;" width="6" x="454" y="384.6875"/><text fill="#000000" font-family="sans-serif" font-size="14" lengthAdjust="spacing" textLength="179" x="466" y="391.9844">status: SwitchActuatorStatus</text><rect fill="none" height="6" style="stroke:#C82930;stroke-width:1.0;" width="6" x="454" y="403.3086"/><text fill="#000000" font-family="sans-serif" font-size="14" lengthAdjust="spacing" textLength="145" x="466" y="410.6055">deviceName : DeviceID</text><line style="stroke:#181818;stroke-width:0.5;" x1="447" x2="801" y1="418.1191" y2="418.1191"/><ellipse cx="457" cy="432.9297" fill="#84BE84" rx="3" ry="3" style="stroke:#038048;stroke-width:1.0;"/><text fill="#000000" font-family="sans-serif" font-size="14" lengthAdjust="spacing" textLength="164" x="466" y="437.2266">getActuatorName(): String</text><ellipse cx="457" cy="451.5508" fill="#84BE84" rx="3" ry="3" style="stroke:#038048;stroke-width:1.0;"/><text fill="#000000" font-family="sans-serif" font-size="14" lengthAdjust="spacing" textLength="330" x="466" y="455.8477">getActuatorFunctionalityID(): ActuatorFunctionalityID</text><ellipse cx="457" cy="470.1719" fill="#84BE84" rx="3" ry="3" style="stroke:#038048;stroke-width:1.0;"/><text fill="#000000" font-family="sans-serif" font-size="14" lengthAdjust="spacing" textLength="173" x="466" y="474.4688">getDeviceName(): DeviceID</text><ellipse cx="457" cy="488.793" fill="#84BE84" rx="3" ry="3" style="stroke:#038048;stroke-width:1.0;"/><text fill="#000000" font-family="sans-serif" font-size="14" lengthAdjust="spacing" textLength="328" x="466" y="493.0898">setActuatorSpecificValue(int specificValue): boolean</text><ellipse cx="457" cy="507.4141" fill="#84BE84" rx="3" ry="3" style="stroke:#038048;stroke-width:1.0;"/><text fill="#000000" font-family="sans-serif" font-size="14" lengthAdjust="spacing" textLength="133" x="466" y="511.7109">identity() : ActuatorID</text><ellipse cx="457" cy="526.0352" fill="#84BE84" rx="3" ry="3" style="stroke:#038048;stroke-width:1.0;"/><text fill="#000000" font-family="sans-serif" font-size="14" lengthAdjust="spacing" textLength="214" x="466" y="530.332">isSameAs(Object object): boolean</text></g><!--class ActuatorID--><g id="elem_ActuatorID"><rect codeLine="38" fill="#F1F1F1" height="122.4844" id="ActuatorID" rx="2.5" ry="2.5" style="stroke:#181818;stroke-width:0.5;" width="220" x="1830" y="640.5137"/><ellipse cx="1892.25" cy="656.5137" fill="#ADD1B2" rx="11" ry="11" style="stroke:#181818;stroke-width:1.0;"/><path d="M1895.0156,652.3887 Q1895.1719,652.1699 1895.3594,652.0605 Q1895.5469,651.9512 1895.7656,651.9512 Q1896.1406,651.9512 1896.375,652.2168 Q1896.6094,652.4668 1896.6094,653.0762 L1896.6094,654.5293 Q1896.6094,655.1387 1896.375,655.4043 Q1896.1406,655.6699 1895.7656,655.6699 Q1895.4219,655.6699 1895.2188,655.4668 Q1895.0156,655.2793 1894.9063,654.7637 Q1894.8594,654.4043 1894.6719,654.2168 Q1894.3438,653.8418 1893.7344,653.623 Q1893.125,653.4043 1892.5,653.4043 Q1891.7344,653.4043 1891.0938,653.7324 Q1890.4688,654.0605 1889.9688,654.8105 Q1889.4844,655.5605 1889.4844,656.5918 L1889.4844,657.6855 Q1889.4844,658.9199 1890.375,659.748 Q1891.2656,660.5605 1892.8594,660.5605 Q1893.7969,660.5605 1894.4531,660.3105 Q1894.8438,660.1543 1895.2656,659.7168 Q1895.5313,659.4512 1895.6719,659.373 Q1895.8281,659.2949 1896.0313,659.2949 Q1896.3594,659.2949 1896.6094,659.5605 Q1896.875,659.8105 1896.875,660.1543 Q1896.875,660.498 1896.5313,660.9043 Q1896.0313,661.4824 1895.2344,661.8105 Q1894.1563,662.2637 1892.8594,662.2637 Q1891.3438,662.2637 1890.1406,661.6387 Q1889.1563,661.1387 1888.4688,660.0762 Q1887.7813,658.998 1887.7813,657.7168 L1887.7813,656.5605 Q1887.7813,655.2324 1888.3906,654.0918 Q1889.0156,652.9355 1890.1094,652.3262 Q1891.2031,651.7012 1892.4375,651.7012 Q1893.1719,651.7012 1893.8125,651.873 Q1894.4688,652.0293 1895.0156,652.3887 Z " fill="#000000"/><text fill="#000000" font-family="sans-serif" font-size="14" lengthAdjust="spacing" textLength="66" x="1912.75" y="662.3105">ActuatorID</text><rect fill="#FFFFFF" height="17.9609" style="stroke:#181818;stroke-width:1.0;stroke-dasharray:2.0,2.0;" width="19" x="2034" y="637.5137"/><text fill="#000000" font-family="sans-serif" font-size="12" font-style="italic" lengthAdjust="spacing" textLength="17" x="2035" y="651.4629">VO</text><line style="stroke:#181818;stroke-width:0.5;" x1="1831" x2="2049" y1="672.5137" y2="672.5137"/><rect fill="none" height="6" style="stroke:#C82930;stroke-width:1.0;" width="6" x="1838" y="684.3242"/><text fill="#000000" font-family="sans-serif" font-size="14" lengthAdjust="spacing" textLength="133" x="1850" y="691.6211">actuatorName: String</text><line style="stroke:#181818;stroke-width:0.5;" x1="1831" x2="2049" y1="699.1348" y2="699.1348"/><ellipse cx="1841" cy="713.9453" fill="#84BE84" rx="3" ry="3" style="stroke:#038048;stroke-width:1.0;"/><text fill="#000000" font-family="sans-serif" font-size="14" lengthAdjust="spacing" textLength="194" x="1850" y="718.2422">equals(Object object): boolean</text><ellipse cx="1841" cy="732.5664" fill="#84BE84" rx="3" ry="3" style="stroke:#038048;stroke-width:1.0;"/><text fill="#000000" font-family="sans-serif" font-size="14" lengthAdjust="spacing" textLength="98" x="1850" y="736.8633">hashCode(): int</text><ellipse cx="1841" cy="751.1875" fill="#84BE84" rx="3" ry="3" style="stroke:#038048;stroke-width:1.0;"/><text fill="#000000" font-family="sans-serif" font-size="14" lengthAdjust="spacing" textLength="104" x="1850" y="755.4844">toString(): String</text></g><!--class ActuatorProperties--><g id="elem_ActuatorProperties"><rect codeLine="45" fill="#F1F1F1" height="48" id="ActuatorProperties" rx="2.5" ry="2.5" style="stroke:#181818;stroke-width:0.5;" width="171" x="1623.5" y="677.5137"/><ellipse cx="1638.5" cy="693.5137" fill="#ADD1B2" rx="11" ry="11" style="stroke:#181818;stroke-width:1.0;"/><path d="M1641.2656,689.3887 Q1641.4219,689.1699 1641.6094,689.0605 Q1641.7969,688.9512 1642.0156,688.9512 Q1642.3906,688.9512 1642.625,689.2168 Q1642.8594,689.4668 1642.8594,690.0762 L1642.8594,691.5293 Q1642.8594,692.1387 1642.625,692.4043 Q1642.3906,692.6699 1642.0156,692.6699 Q1641.6719,692.6699 1641.4688,692.4668 Q1641.2656,692.2793 1641.1563,691.7637 Q1641.1094,691.4043 1640.9219,691.2168 Q1640.5938,690.8418 1639.9844,690.623 Q1639.375,690.4043 1638.75,690.4043 Q1637.9844,690.4043 1637.3438,690.7324 Q1636.7188,691.0605 1636.2188,691.8105 Q1635.7344,692.5605 1635.7344,693.5918 L1635.7344,694.6855 Q1635.7344,695.9199 1636.625,696.748 Q1637.5156,697.5605 1639.1094,697.5605 Q1640.0469,697.5605 1640.7031,697.3105 Q1641.0938,697.1543 1641.5156,696.7168 Q1641.7813,696.4512 1641.9219,696.373 Q1642.0781,696.2949 1642.2813,696.2949 Q1642.6094,696.2949 1642.8594,696.5605 Q1643.125,696.8105 1643.125,697.1543 Q1643.125,697.498 1642.7813,697.9043 Q1642.2813,698.4824 1641.4844,698.8105 Q1640.4063,699.2637 1639.1094,699.2637 Q1637.5938,699.2637 1636.3906,698.6387 Q1635.4063,698.1387 1634.7188,697.0762 Q1634.0313,695.998 1634.0313,694.7168 L1634.0313,693.5605 Q1634.0313,692.2324 1634.6406,691.0918 Q1635.2656,689.9355 1636.3594,689.3262 Q1637.4531,688.7012 1638.6875,688.7012 Q1639.4219,688.7012 1640.0625,688.873 Q1640.7188,689.0293 1641.2656,689.3887 Z " fill="#000000"/><text fill="#000000" font-family="sans-serif" font-size="14" lengthAdjust="spacing" textLength="118" x="1652.5" y="699.3105">ActuatorProperties</text><rect fill="#FFFFFF" height="17.9609" style="stroke:#181818;stroke-width:1.0;stroke-dasharray:2.0,2.0;" width="19" x="1778.5" y="674.5137"/><text fill="#000000" font-family="sans-serif" font-size="12" font-style="italic" lengthAdjust="spacing" textLength="17" x="1779.5" y="688.4629">VO</text><line style="stroke:#181818;stroke-width:0.5;" x1="1624.5" x2="1793.5" y1="709.5137" y2="709.5137"/><line style="stroke:#181818;stroke-width:0.5;" x1="1624.5" x2="1793.5" y1="717.5137" y2="717.5137"/></g><!--class SwitchActuatorStatus--><g id="elem_SwitchActuatorStatus"><rect codeLine="47" fill="#F1F1F1" height="85.2422" id="SwitchActuatorStatus" rx="2.5" ry="2.5" style="stroke:#181818;stroke-width:0.5;" width="186" x="1402" y="659.0137"/><ellipse cx="1417" cy="675.0137" fill="#EB937F" rx="11" ry="11" style="stroke:#181818;stroke-width:1.0;"/><path d="M1415.8594,675.8105 L1415.8594,678.3105 L1420.1875,678.3105 L1420.1875,677.3887 Q1420.1875,676.7793 1420.4219,676.5137 Q1420.6719,676.248 1421.0469,676.248 Q1421.4219,676.248 1421.6563,676.5137 Q1421.8906,676.7793 1421.8906,677.3887 L1421.8906,680.0137 L1413.8906,680.0137 Q1413.2656,680.0137 1413,679.7793 Q1412.75,679.5449 1412.75,679.1543 Q1412.75,678.7793 1413.0156,678.5449 Q1413.2813,678.3105 1413.8906,678.3105 L1414.1563,678.3105 L1414.1563,671.6543 L1413.8906,671.6543 Q1413.2656,671.6543 1413,671.4199 Q1412.75,671.1855 1412.75,670.7949 Q1412.75,670.4199 1413,670.1855 Q1413.2656,669.9512 1413.8906,669.9512 L1421.5156,669.9512 L1421.5156,672.5449 Q1421.5156,673.1543 1421.2813,673.4199 Q1421.0625,673.6699 1420.6719,673.6699 Q1420.2969,673.6699 1420.0625,673.4199 Q1419.8281,673.1543 1419.8281,672.5449 L1419.8281,671.6543 L1415.8594,671.6543 L1415.8594,674.1074 L1417.3438,674.1074 Q1417.3438,673.4512 1417.4688,673.2637 Q1417.7344,672.8574 1418.2031,672.8574 Q1418.5781,672.8574 1418.8125,673.123 Q1419.0469,673.373 1419.0469,673.9824 L1419.0469,675.9512 Q1419.0469,676.498 1418.9219,676.6855 Q1418.6563,677.0762 1418.2031,677.0762 Q1417.7344,677.0762 1417.4688,676.6699 Q1417.3438,676.4824 1417.3438,675.8105 L1415.8594,675.8105 Z " fill="#000000"/><text fill="#000000" font-family="sans-serif" font-size="14" lengthAdjust="spacing" textLength="133" x="1431" y="680.8105">SwitchActuatorStatus</text><rect fill="#FFFFFF" height="17.9609" style="stroke:#181818;stroke-width:1.0;stroke-dasharray:2.0,2.0;" width="19" x="1572" y="656.0137"/><text fill="#000000" font-family="sans-serif" font-size="12" font-style="italic" lengthAdjust="spacing" textLength="17" x="1573" y="669.9629">VO</text><line style="stroke:#181818;stroke-width:0.5;" x1="1403" x2="1587" y1="691.0137" y2="691.0137"/><text fill="#000000" font-family="sans-serif" font-size="14" lengthAdjust="spacing" textLength="24" x="1408" y="710.1211">ON,</text><text fill="#000000" font-family="sans-serif" font-size="14" lengthAdjust="spacing" textLength="29" x="1408" y="728.7422">OFF</text><line style="stroke:#181818;stroke-width:0.5;" x1="1403" x2="1587" y1="736.2559" y2="736.2559"/></g><!--class ActuatorFunctionalityID--><g id="elem_ActuatorFunctionalityID"><rect codeLine="52" fill="#F1F1F1" height="122.4844" id="ActuatorFunctionalityID" rx="2.5" ry="2.5" style="stroke:#181818;stroke-width:0.5;" width="243" x="1123.5" y="640.5137"/><ellipse cx="1158.3" cy="656.5137" fill="#ADD1B2" rx="11" ry="11" style="stroke:#181818;stroke-width:1.0;"/><path d="M1161.0656,652.3887 Q1161.2219,652.1699 1161.4094,652.0605 Q1161.5969,651.9512 1161.8156,651.9512 Q1162.1906,651.9512 1162.425,652.2168 Q1162.6594,652.4668 1162.6594,653.0762 L1162.6594,654.5293 Q1162.6594,655.1387 1162.425,655.4043 Q1162.1906,655.6699 1161.8156,655.6699 Q1161.4719,655.6699 1161.2688,655.4668 Q1161.0656,655.2793 1160.9563,654.7637 Q1160.9094,654.4043 1160.7219,654.2168 Q1160.3938,653.8418 1159.7844,653.623 Q1159.175,653.4043 1158.55,653.4043 Q1157.7844,653.4043 1157.1438,653.7324 Q1156.5188,654.0605 1156.0188,654.8105 Q1155.5344,655.5605 1155.5344,656.5918 L1155.5344,657.6855 Q1155.5344,658.9199 1156.425,659.748 Q1157.3156,660.5605 1158.9094,660.5605 Q1159.8469,660.5605 1160.5031,660.3105 Q1160.8938,660.1543 1161.3156,659.7168 Q1161.5813,659.4512 1161.7219,659.373 Q1161.8781,659.2949 1162.0813,659.2949 Q1162.4094,659.2949 1162.6594,659.5605 Q1162.925,659.8105 1162.925,660.1543 Q1162.925,660.498 1162.5813,660.9043 Q1162.0813,661.4824 1161.2844,661.8105 Q1160.2063,662.2637 1158.9094,662.2637 Q1157.3938,662.2637 1156.1906,661.6387 Q1155.2063,661.1387 1154.5188,660.0762 Q1153.8313,658.998 1153.8313,657.7168 L1153.8313,656.5605 Q1153.8313,655.2324 1154.4406,654.0918 Q1155.0656,652.9355 1156.1594,652.3262 Q1157.2531,651.7012 1158.4875,651.7012 Q1159.2219,651.7012 1159.8625,651.873 Q1160.5188,652.0293 1161.0656,652.3887 Z " fill="#000000"/><text fill="#000000" font-family="sans-serif" font-size="14" lengthAdjust="spacing" textLength="146" x="1176.7" y="662.3105">ActuatorFunctionalityID</text><rect fill="#FFFFFF" height="17.9609" style="stroke:#181818;stroke-width:1.0;stroke-dasharray:2.0,2.0;" width="19" x="1350.5" y="637.5137"/><text fill="#000000" font-family="sans-serif" font-size="12" font-style="italic" lengthAdjust="spacing" textLength="17" x="1351.5" y="651.4629">VO</text><line style="stroke:#181818;stroke-width:0.5;" x1="1124.5" x2="1365.5" y1="672.5137" y2="672.5137"/><rect fill="none" height="6" style="stroke:#C82930;stroke-width:1.0;" width="6" x="1131.5" y="684.3242"/><text fill="#000000" font-family="sans-serif" font-size="14" lengthAdjust="spacing" textLength="217" x="1143.5" y="691.6211">actuatorFunctionalityName : String</text><line style="stroke:#181818;stroke-width:0.5;" x1="1124.5" x2="1365.5" y1="699.1348" y2="699.1348"/><ellipse cx="1134.5" cy="713.9453" fill="#84BE84" rx="3" ry="3" style="stroke:#038048;stroke-width:1.0;"/><text fill="#000000" font-family="sans-serif" font-size="14" lengthAdjust="spacing" textLength="194" x="1143.5" y="718.2422">equals(Object object): boolean</text><ellipse cx="1134.5" cy="732.5664" fill="#84BE84" rx="3" ry="3" style="stroke:#038048;stroke-width:1.0;"/><text fill="#000000" font-family="sans-serif" font-size="14" lengthAdjust="spacing" textLength="98" x="1143.5" y="736.8633">hashCode(): int</text><ellipse cx="1134.5" cy="751.1875" fill="#84BE84" rx="3" ry="3" style="stroke:#038048;stroke-width:1.0;"/><text fill="#000000" font-family="sans-serif" font-size="14" lengthAdjust="spacing" textLength="104" x="1143.5" y="755.4844">toString(): String</text></g><!--class DeviceID--><g id="elem_DeviceID"><rect codeLine="59" fill="#F1F1F1" height="141.1055" id="DeviceID" rx="2.5" ry="2.5" style="stroke:#181818;stroke-width:0.5;" width="190" x="898" y="631.0137"/><ellipse cx="950.25" cy="647.0137" fill="#ADD1B2" rx="11" ry="11" style="stroke:#181818;stroke-width:1.0;"/><path d="M953.0156,642.8887 Q953.1719,642.6699 953.3594,642.5605 Q953.5469,642.4512 953.7656,642.4512 Q954.1406,642.4512 954.375,642.7168 Q954.6094,642.9668 954.6094,643.5762 L954.6094,645.0293 Q954.6094,645.6387 954.375,645.9043 Q954.1406,646.1699 953.7656,646.1699 Q953.4219,646.1699 953.2188,645.9668 Q953.0156,645.7793 952.9063,645.2637 Q952.8594,644.9043 952.6719,644.7168 Q952.3438,644.3418 951.7344,644.123 Q951.125,643.9043 950.5,643.9043 Q949.7344,643.9043 949.0938,644.2324 Q948.4688,644.5605 947.9688,645.3105 Q947.4844,646.0605 947.4844,647.0918 L947.4844,648.1855 Q947.4844,649.4199 948.375,650.248 Q949.2656,651.0605 950.8594,651.0605 Q951.7969,651.0605 952.4531,650.8105 Q952.8438,650.6543 953.2656,650.2168 Q953.5313,649.9512 953.6719,649.873 Q953.8281,649.7949 954.0313,649.7949 Q954.3594,649.7949 954.6094,650.0605 Q954.875,650.3105 954.875,650.6543 Q954.875,650.998 954.5313,651.4043 Q954.0313,651.9824 953.2344,652.3105 Q952.1563,652.7637 950.8594,652.7637 Q949.3438,652.7637 948.1406,652.1387 Q947.1563,651.6387 946.4688,650.5762 Q945.7813,649.498 945.7813,648.2168 L945.7813,647.0605 Q945.7813,645.7324 946.3906,644.5918 Q947.0156,643.4355 948.1094,642.8262 Q949.2031,642.2012 950.4375,642.2012 Q951.1719,642.2012 951.8125,642.373 Q952.4688,642.5293 953.0156,642.8887 Z " fill="#000000"/><text fill="#000000" font-family="sans-serif" font-size="14" lengthAdjust="spacing" textLength="56" x="970.75" y="652.8105">DeviceID</text><rect fill="#FFFFFF" height="17.9609" style="stroke:#181818;stroke-width:1.0;stroke-dasharray:2.0,2.0;" width="19" x="1072" y="628.0137"/><text fill="#000000" font-family="sans-serif" font-size="12" font-style="italic" lengthAdjust="spacing" textLength="17" x="1073" y="641.9629">VO</text><line style="stroke:#181818;stroke-width:0.5;" x1="899" x2="1087" y1="663.0137" y2="663.0137"/><rect fill="none" height="6" style="stroke:#C82930;stroke-width:1.0;" width="6" x="906" y="674.8242"/><text fill="#000000" font-family="sans-serif" font-size="14" lengthAdjust="spacing" textLength="122" x="918" y="682.1211">deviceName: String</text><line style="stroke:#181818;stroke-width:0.5;" x1="899" x2="1087" y1="689.6348" y2="689.6348"/><ellipse cx="909" cy="704.4453" fill="#84BE84" rx="3" ry="3" style="stroke:#038048;stroke-width:1.0;"/><text fill="#000000" font-family="sans-serif" font-size="14" lengthAdjust="spacing" textLength="164" x="918" y="708.7422">equals(Object o): boolean</text><ellipse cx="909" cy="723.0664" fill="#84BE84" rx="3" ry="3" style="stroke:#038048;stroke-width:1.0;"/><text fill="#000000" font-family="sans-serif" font-size="14" lengthAdjust="spacing" textLength="98" x="918" y="727.3633">hashCode(): int</text><ellipse cx="909" cy="741.6875" fill="#84BE84" rx="3" ry="3" style="stroke:#038048;stroke-width:1.0;"/><text fill="#000000" font-family="sans-serif" font-size="14" lengthAdjust="spacing" textLength="104" x="918" y="745.9844">toString(): String</text><ellipse cx="909" cy="760.3086" fill="#84BE84" rx="3" ry="3" style="stroke:#038048;stroke-width:1.0;"/><text fill="#000000" font-family="sans-serif" font-size="14" lengthAdjust="spacing" textLength="154" x="918" y="764.6055">getDeviceName(): String</text></g><!--class ActuatorRepository--><g id="elem_ActuatorRepository"><rect codeLine="77" fill="#F1F1F1" height="141.1055" id="ActuatorRepository" rx="2.5" ry="2.5" style="stroke:#181818;stroke-width:0.5;" width="350" x="2130" y="51.0137"/><ellipse cx="2240.25" cy="67.0137" fill="#ADD1B2" rx="11" ry="11" style="stroke:#181818;stroke-width:1.0;"/><path d="M2243.0156,62.8887 Q2243.1719,62.6699 2243.3594,62.5605 Q2243.5469,62.4512 2243.7656,62.4512 Q2244.1406,62.4512 2244.375,62.7168 Q2244.6094,62.9668 2244.6094,63.5762 L2244.6094,65.0293 Q2244.6094,65.6387 2244.375,65.9043 Q2244.1406,66.1699 2243.7656,66.1699 Q2243.4219,66.1699 2243.2188,65.9668 Q2243.0156,65.7793 2242.9063,65.2637 Q2242.8594,64.9043 2242.6719,64.7168 Q2242.3438,64.3418 2241.7344,64.123 Q2241.125,63.9043 2240.5,63.9043 Q2239.7344,63.9043 2239.0938,64.2324 Q2238.4688,64.5605 2237.9688,65.3105 Q2237.4844,66.0605 2237.4844,67.0918 L2237.4844,68.1855 Q2237.4844,69.4199 2238.375,70.248 Q2239.2656,71.0605 2240.8594,71.0605 Q2241.7969,71.0605 2242.4531,70.8105 Q2242.8438,70.6543 2243.2656,70.2168 Q2243.5313,69.9512 2243.6719,69.873 Q2243.8281,69.7949 2244.0313,69.7949 Q2244.3594,69.7949 2244.6094,70.0605 Q2244.875,70.3105 2244.875,70.6543 Q2244.875,70.998 2244.5313,71.4043 Q2244.0313,71.9824 2243.2344,72.3105 Q2242.1563,72.7637 2240.8594,72.7637 Q2239.3438,72.7637 2238.1406,72.1387 Q2237.1563,71.6387 2236.4688,70.5762 Q2235.7813,69.498 2235.7813,68.2168 L2235.7813,67.0605 Q2235.7813,65.7324 2236.3906,64.5918 Q2237.0156,63.4355 2238.1094,62.8262 Q2239.2031,62.2012 2240.4375,62.2012 Q2241.1719,62.2012 2241.8125,62.373 Q2242.4688,62.5293 2243.0156,62.8887 Z " fill="#000000"/><text fill="#000000" font-family="sans-serif" font-size="14" lengthAdjust="spacing" textLength="121" x="2260.75" y="72.8105">ActuatorRepository</text><line style="stroke:#181818;stroke-width:0.5;" x1="2131" x2="2479" y1="83.0137" y2="83.0137"/><rect fill="none" height="6" style="stroke:#C82930;stroke-width:1.0;" width="6" x="2138" y="94.8242"/><text fill="#000000" font-family="sans-serif" font-size="14" lengthAdjust="spacing" textLength="237" x="2150" y="102.1211">HashMap: Map&lt;ActuatorID, Actuator&gt;</text><line style="stroke:#181818;stroke-width:0.5;" x1="2131" x2="2479" y1="109.6348" y2="109.6348"/><ellipse cx="2141" cy="124.4453" fill="#84BE84" rx="3" ry="3" style="stroke:#038048;stroke-width:1.0;"/><text fill="#000000" font-family="sans-serif" font-size="14" lengthAdjust="spacing" textLength="296" x="2150" y="128.7422">addAndSaveActuator(Actuator entity): Actuator</text><ellipse cx="2141" cy="143.0664" fill="#84BE84" rx="3" ry="3" style="stroke:#038048;stroke-width:1.0;"/><text fill="#000000" font-family="sans-serif" font-size="14" lengthAdjust="spacing" textLength="232" x="2150" y="147.3633">findAllActuators(): Iterable&lt;Actuator&gt;</text><ellipse cx="2141" cy="161.6875" fill="#84BE84" rx="3" ry="3" style="stroke:#038048;stroke-width:1.0;"/><text fill="#000000" font-family="sans-serif" font-size="14" lengthAdjust="spacing" textLength="324" x="2150" y="165.9844">findActuatorById(ActuatorID id): Optional&lt;Actuator&gt;</text><ellipse cx="2141" cy="180.3086" fill="#84BE84" rx="3" ry="3" style="stroke:#038048;stroke-width:1.0;"/><text fill="#000000" font-family="sans-serif" font-size="14" lengthAdjust="spacing" textLength="283" x="2150" y="184.6055">containsActuatorById(ActuatorID id): boolean</text></g><!--reverse link Actuator to ActuatorSpecificInteger--><g id="link_Actuator_ActuatorSpecificInteger"><path d="M309,472.3037 C309,530.2837 309,614.6237 309,667.6037 " fill="none" id="Actuator-backto-ActuatorSpecificInteger" style="stroke:#181818;stroke-width:1.0;"/><polygon fill="none" points="309,454.3037,303,472.3037,315,472.3037,309,454.3037" style="stroke:#181818;stroke-width:1.0;"/></g><!--link ActuatorFactory to Actuator--><g id="link_ActuatorFactory_Actuator"><path codeLine="34" d="M211,155.0637 C211,207.9937 211,304.8137 211,362.8937 " fill="none" id="ActuatorFactory-to-Actuator" style="stroke:#181818;stroke-width:1.0;"/><polygon fill="#181818" points="211,368.8937,215,359.8937,211,363.8937,207,359.8937,211,368.8937" style="stroke:#181818;stroke-width:1.0;"/><text fill="#000000" font-family="sans-serif" font-size="13" lengthAdjust="spacing" textLength="57" x="153" y="258.002">&#171;creates&#187;</text></g><!--link SwitchActuator to ActuatorProperties--><g id="link_SwitchActuator_ActuatorProperties"><path codeLine="68" d="M802.25,387.0137 C1110.16,387.0137 1709,387.0137 1709,387.0137 C1709,387.0137 1709,597.7137 1709,671.3537 " fill="none" id="SwitchActuator-to-ActuatorProperties" style="stroke:#181818;stroke-width:1.0;"/><polygon fill="#181818" points="1709,677.3537,1713,668.3537,1709,672.3537,1705,668.3537,1709,677.3537" style="stroke:#181818;stroke-width:1.0;"/></g><!--link SwitchActuator to ActuatorID--><g id="link_SwitchActuator_ActuatorID"><path codeLine="69" d="M802.22,336.0137 C1153.89,336.0137 1903.33,336.0137 1903.33,336.0137 C1903.33,336.0137 1903.33,530.2837 1903.33,634.3337 " fill="none" id="SwitchActuator-to-ActuatorID" style="stroke:#181818;stroke-width:1.0;"/><polygon fill="#181818" points="1903.33,640.3337,1907.33,631.3337,1903.33,635.3337,1899.33,631.3337,1903.33,640.3337" style="stroke:#181818;stroke-width:1.0;"/></g><!--link SwitchActuator to DeviceID--><g id="link_SwitchActuator_DeviceID"><path codeLine="70" d="M707,538.0937 C707,595.1837 707,650.0137 707,650.0137 C707,650.0137 808.57,650.0137 891.77,650.0137 " fill="none" id="SwitchActuator-to-DeviceID" style="stroke:#181818;stroke-width:1.0;"/><polygon fill="#181818" points="897.77,650.0137,888.77,646.0137,892.77,650.0137,888.77,654.0137,897.77,650.0137" style="stroke:#181818;stroke-width:1.0;"/></g><!--link SwitchActuator to SwitchActuatorStatus--><g id="link_SwitchActuator_SwitchActuatorStatus"><path codeLine="71" d="M802.1,437.0137 C1056.88,437.0137 1495,437.0137 1495,437.0137 C1495,437.0137 1495,577.8637 1495,652.7237 " fill="none" id="SwitchActuator-to-SwitchActuatorStatus" style="stroke:#181818;stroke-width:1.0;"/><polygon fill="#181818" points="1495,658.7237,1499,649.7237,1495,653.7237,1491,649.7237,1495,658.7237" style="stroke:#181818;stroke-width:1.0;"/></g><!--link SwitchActuator to ActuatorFunctionalityID--><g id="link_SwitchActuator_ActuatorFunctionalityID"><path codeLine="72" d="M802.37,488.0137 C985.85,488.0137 1245,488.0137 1245,488.0137 C1245,488.0137 1245,571.2437 1245,634.3337 " fill="none" id="SwitchActuator-to-ActuatorFunctionalityID" style="stroke:#181818;stroke-width:1.0;"/><polygon fill="#181818" points="1245,640.3337,1249,631.3337,1245,635.3337,1241,631.3337,1245,640.3337" style="stroke:#181818;stroke-width:1.0;"/></g><!--link SwitchActuator to ActuatorSpecificInteger--><g id="link_SwitchActuator_ActuatorSpecificInteger"><path codeLine="73" d="M529,538.2937 C529,585.6937 529,617.7337 529,649.7137 " fill="none" id="SwitchActuator-to-ActuatorSpecificInteger" style="stroke:#181818;stroke-width:1.0;stroke-dasharray:7.0,7.0;"/><polygon fill="none" points="529,667.7137,535,649.7137,523,649.7137,529,667.7137" style="stroke:#181818;stroke-width:1.0;"/></g><!--link ActuatorRepository to ActuatorID--><g id="link_ActuatorRepository_ActuatorID"><path codeLine="84" d="M2129.78,180.0137 C2051.54,180.0137 1976.67,180.0137 1976.67,180.0137 C1976.67,180.0137 1976.67,496.7037 1976.67,634.4137 " fill="none" id="ActuatorRepository-to-ActuatorID" style="stroke:#181818;stroke-width:1.0;stroke-dasharray:7.0,7.0;"/><polygon fill="#181818" points="1976.67,640.4137,1980.67,631.4137,1976.67,635.4137,1972.67,631.4137,1976.67,640.4137" style="stroke:#181818;stroke-width:1.0;"/></g><!--link ActuatorRepository to SwitchActuatorAggregate--><g id="link_ActuatorRepository_SwitchActuatorAggregate"><path codeLine="85" d="M2129.79,168.0137 C1660.58,168.0137 411,168.0137 411,168.0137 C411,168.0137 411,182.5274 411,204.468 C411,209.9532 411,215.9025 411,222.2053 C411,225.3567 411,228.5965 411,231.9107 C411,233.5679 411,235.2436 411,236.9363 C411,237.7826 411,232.6332 411,233.4878 " fill="none" id="ActuatorRepository-to-SwitchActuatorAggregate" style="stroke:#181818;stroke-width:1.0;stroke-dasharray:7.0,7.0;"/><polygon fill="#181818" points="411,239.4878,415,230.4878,411,234.4878,407,230.4878,411,239.4878" style="stroke:#181818;stroke-width:1.0;"/></g><!--SRC=[hLLBZzem4BxxL_XMK1Qu8nI9bgBcqALgfBqRUmZk9dPgExGevR_NUTh99YjLAWSIptk-RoR-S3KcrzlD9a-9C4MMhgdCDZGbMgyO9uaY6TAlNEJ4lk6K2p3t7B1KvYfHJkWhIG0pcH4kolvCg2c8aGgNY0i3wa8eu7qhHAYEtf-FrbggUua2ge0OwEIBvTRvFD149EkIWEdZ588QBWL9kRdxpWD5xNA06wVmJ3Aex9fJT40soziaSGwKNpYDh2O1XU6t0S6qNuHsHNJMBoGj02ziEAo70PPuYyzIfa24pTSX5l_YXbwxAFiaKP1OBCeMgw7Qmhhg8AwQmAvNsqMl-gPa3ifmq4xlPCvkW4zqm3F8LQ6r8QQmuORrnBKKhLWFA_PGzJdg88-DuYAPfoywp1BOHfoXS9QB0HMrPEbu23W3OUgn6M8PS1tR57kzE9r_03LOre-bJ-43ZIOPhrPX7sIBTxjchdKO8e_nMrL34wuSROJbOFTo2aSiEzGm_2n8EbzJWAz4Npz9LcDZ6xSI8njl3trRp32l6uuc_GDz5aKsINPR8BQ_q_DJypmUgpKTBVTejaPz3TJjuFpdBd5VKpSaTH7L3c4tiFDf_prZWD_CPwkfXWMDThcUbgdzdBBpHdDAtQ_1P8x9fNstcl7YZOtNwp_Xt8VI6tK5kTJScjYsol64VE-KzugIBnRWhoJVOlktSzq-zUOX2WXZUy5YSdDNHLzIiyR-pH5Sk63xDEq4kk8ZibzvSavXvuMjxThZntl45juwScQTJdc3XUz4fJ3swjFlEhflnKJJw_M0rXcBcVi1FVu2]--></g></svg>