<?xml version="1.0" encoding="us-ascii" standalone="no"?><svg xmlns="http://www.w3.org/2000/svg" xmlns:xlink="http://www.w3.org/1999/xlink" contentStyleType="text/css" height="790px" preserveAspectRatio="none" style="width:2445px;height:790px;background:#FFFFFF;" version="1.1" viewBox="0 0 2445 790" width="2445px" zoomAndPan="magnify"><defs/><g><!--cluster repositories--><g id="cluster_repositories"><path d="M2092.5,23.0137 L2179.5,23.0137 A3.75,3.75 0 0 1 2182,25.5137 L2189,47.6348 L2435.5,47.6348 A2.5,2.5 0 0 1 2438,50.1348 L2438,214.5137 A2.5,2.5 0 0 1 2435.5,217.0137 L2092.5,217.0137 A2.5,2.5 0 0 1 2090,214.5137 L2090,25.5137 A2.5,2.5 0 0 1 2092.5,23.0137 " fill="none" style="stroke:#000000;stroke-width:1.5;"/><line style="stroke:#000000;stroke-width:1.5;" x1="2090" x2="2189" y1="47.6348" y2="47.6348"/><text fill="#000000" font-family="sans-serif" font-size="14" font-weight="bold" lengthAdjust="spacing" textLength="86" x="2094" y="40.1211">repositories</text></g><!--cluster domain--><g id="cluster_domain"><path d="M8.5,6.0137 L60.5,6.0137 A3.75,3.75 0 0 1 63,8.5137 L70,30.6348 L2063.5,30.6348 A2.5,2.5 0 0 1 2066,33.1348 L2066,780.5137 A2.5,2.5 0 0 1 2063.5,783.0137 L8.5,783.0137 A2.5,2.5 0 0 1 6,780.5137 L6,8.5137 A2.5,2.5 0 0 1 8.5,6.0137 " fill="none" style="stroke:#000000;stroke-width:1.5;"/><line style="stroke:#000000;stroke-width:1.5;" x1="6" x2="70" y1="30.6348" y2="30.6348"/><text fill="#000000" font-family="sans-serif" font-size="14" font-weight="bold" lengthAdjust="spacing" textLength="51" x="10" y="23.1211">domain</text></g><!--cluster sensor--><g id="cluster_sensor"><path d="M32.5,51.0137 L82.5,51.0137 A3.75,3.75 0 0 1 85,53.5137 L92,75.6348 L988.5,75.6348 A2.5,2.5 0 0 1 991,78.1348 L991,695.5137 A2.5,2.5 0 0 1 988.5,698.0137 L32.5,698.0137 A2.5,2.5 0 0 1 30,695.5137 L30,53.5137 A2.5,2.5 0 0 1 32.5,51.0137 " fill="none" style="stroke:#000000;stroke-width:1.5;"/><line style="stroke:#000000;stroke-width:1.5;" x1="30" x2="92" y1="75.6348" y2="75.6348"/><text fill="#000000" font-family="sans-serif" font-size="14" font-weight="bold" lengthAdjust="spacing" textLength="49" x="34" y="68.1211">sensor</text></g><!--cluster TemperatureCelsiusAggregate--><g id="cluster_TemperatureCelsiusAggregate"><path d="M547.5,241.0137 L763.5,241.0137 A3.75,3.75 0 0 1 766,243.5137 L773,265.6348 L964.5,265.6348 A2.5,2.5 0 0 1 967,268.1348 L967,469.5137 A2.5,2.5 0 0 1 964.5,472.0137 L547.5,472.0137 A2.5,2.5 0 0 1 545,469.5137 L545,243.5137 A2.5,2.5 0 0 1 547.5,241.0137 " fill="none" style="stroke:#000000;stroke-width:1.5;"/><line style="stroke:#000000;stroke-width:1.5;" x1="545" x2="773" y1="265.6348" y2="265.6348"/><text fill="#000000" font-family="sans-serif" font-size="14" font-weight="bold" lengthAdjust="spacing" textLength="215" x="549" y="258.1211">TemperatureCelsiusAggregate</text></g><!--cluster valueobjects--><g id="cluster_valueobjects"><path d="M1017.5,496.0137 L1109.5,496.0137 A3.75,3.75 0 0 1 1112,498.5137 L1119,520.6348 L2039.5,520.6348 A2.5,2.5 0 0 1 2042,523.1348 L2042,756.5137 A2.5,2.5 0 0 1 2039.5,759.0137 L1017.5,759.0137 A2.5,2.5 0 0 1 1015,756.5137 L1015,498.5137 A2.5,2.5 0 0 1 1017.5,496.0137 " fill="none" style="stroke:#000000;stroke-width:1.5;"/><line style="stroke:#000000;stroke-width:1.5;" x1="1015" x2="1119" y1="520.6348" y2="520.6348"/><text fill="#000000" font-family="sans-serif" font-size="14" font-weight="bold" lengthAdjust="spacing" textLength="91" x="1019" y="513.1211">valueobjects</text></g><!--cluster sensorvalues--><g id="cluster_sensorvalues"><path d="M1726.5,541.0137 L1823.5,541.0137 A3.75,3.75 0 0 1 1826,543.5137 L1833,565.6348 L2015.5,565.6348 A2.5,2.5 0 0 1 2018,568.1348 L2018,732.5137 A2.5,2.5 0 0 1 2015.5,735.0137 L1726.5,735.0137 A2.5,2.5 0 0 1 1724,732.5137 L1724,543.5137 A2.5,2.5 0 0 1 1726.5,541.0137 " fill="none" style="stroke:#000000;stroke-width:1.5;"/><line style="stroke:#000000;stroke-width:1.5;" x1="1724" x2="1833" y1="565.6348" y2="565.6348"/><text fill="#000000" font-family="sans-serif" font-size="14" font-weight="bold" lengthAdjust="spacing" textLength="96" x="1728" y="558.1211">sensorvalues</text></g><!--class SensorRepository--><g id="elem_SensorRepository"><rect codeLine="77" fill="#F1F1F1" height="141.1055" id="SensorRepository" rx="2.5" ry="2.5" style="stroke:#181818;stroke-width:0.5;" width="316" x="2106" y="60.0137"/><ellipse cx="2188.75" cy="76.0137" fill="#ADD1B2" rx="11" ry="11" style="stroke:#181818;stroke-width:1.0;"/><path d="M2191.5156,71.8887 Q2191.6719,71.6699 2191.8594,71.5605 Q2192.0469,71.4512 2192.2656,71.4512 Q2192.6406,71.4512 2192.875,71.7168 Q2193.1094,71.9668 2193.1094,72.5762 L2193.1094,74.0293 Q2193.1094,74.6387 2192.875,74.9043 Q2192.6406,75.1699 2192.2656,75.1699 Q2191.9219,75.1699 2191.7188,74.9668 Q2191.5156,74.7793 2191.4063,74.2637 Q2191.3594,73.9043 2191.1719,73.7168 Q2190.8438,73.3418 2190.2344,73.123 Q2189.625,72.9043 2189,72.9043 Q2188.2344,72.9043 2187.5938,73.2324 Q2186.9688,73.5605 2186.4688,74.3105 Q2185.9844,75.0605 2185.9844,76.0918 L2185.9844,77.1855 Q2185.9844,78.4199 2186.875,79.248 Q2187.7656,80.0605 2189.3594,80.0605 Q2190.2969,80.0605 2190.9531,79.8105 Q2191.3438,79.6543 2191.7656,79.2168 Q2192.0313,78.9512 2192.1719,78.873 Q2192.3281,78.7949 2192.5313,78.7949 Q2192.8594,78.7949 2193.1094,79.0605 Q2193.375,79.3105 2193.375,79.6543 Q2193.375,79.998 2193.0313,80.4043 Q2192.5313,80.9824 2191.7344,81.3105 Q2190.6563,81.7637 2189.3594,81.7637 Q2187.8438,81.7637 2186.6406,81.1387 Q2185.6563,80.6387 2184.9688,79.5762 Q2184.2813,78.498 2184.2813,77.2168 L2184.2813,76.0605 Q2184.2813,74.7324 2184.8906,73.5918 Q2185.5156,72.4355 2186.6094,71.8262 Q2187.7031,71.2012 2188.9375,71.2012 Q2189.6719,71.2012 2190.3125,71.373 Q2190.9688,71.5293 2191.5156,71.8887 Z " fill="#000000"/><text fill="#000000" font-family="sans-serif" font-size="14" lengthAdjust="spacing" textLength="113" x="2209.25" y="81.8105">SensorRepository</text><rect fill="#FFFFFF" height="17.9609" style="stroke:#181818;stroke-width:1.0;stroke-dasharray:2.0,2.0;" width="27" x="2398" y="57.0137"/><text fill="#000000" font-family="sans-serif" font-size="12" font-style="italic" lengthAdjust="spacing" textLength="25" x="2399" y="70.9629">repo</text><line style="stroke:#181818;stroke-width:0.5;" x1="2107" x2="2421" y1="92.0137" y2="92.0137"/><rect fill="none" height="6" style="stroke:#C82930;stroke-width:1.0;" width="6" x="2114" y="103.8242"/><text fill="#000000" font-family="sans-serif" font-size="14" lengthAdjust="spacing" textLength="213" x="2126" y="111.1211">Map&lt;SensorID, Sensor&gt; dataMap</text><line style="stroke:#181818;stroke-width:0.5;" x1="2107" x2="2421" y1="118.6348" y2="118.6348"/><ellipse cx="2117" cy="133.4453" fill="#84BE84" rx="3" ry="3" style="stroke:#038048;stroke-width:1.0;"/><text fill="#000000" font-family="sans-serif" font-size="14" lengthAdjust="spacing" textLength="238" x="2126" y="137.7422">updateOrSave(Sensor entity): Sensor</text><ellipse cx="2117" cy="152.0664" fill="#84BE84" rx="3" ry="3" style="stroke:#038048;stroke-width:1.0;"/><text fill="#000000" font-family="sans-serif" font-size="14" lengthAdjust="spacing" textLength="210" x="2126" y="156.3633">findAllEntities(): Iterable&lt;Sensor&gt;</text><ellipse cx="2117" cy="170.6875" fill="#84BE84" rx="3" ry="3" style="stroke:#038048;stroke-width:1.0;"/><text fill="#000000" font-family="sans-serif" font-size="14" lengthAdjust="spacing" textLength="290" x="2126" y="174.9844">findEntityById(SensorID id): Optional&lt;Sensor&gt;</text><ellipse cx="2117" cy="189.3086" fill="#84BE84" rx="3" ry="3" style="stroke:#038048;stroke-width:1.0;"/><text fill="#000000" font-family="sans-serif" font-size="14" lengthAdjust="spacing" textLength="259" x="2126" y="193.6055">containsEntityByID(SensorID id): boolean</text></g><!--class FactorySensor--><g id="elem_FactorySensor"><rect codeLine="7" fill="#F1F1F1" height="85.2422" id="FactorySensor" rx="2.5" ry="2.5" style="stroke:#181818;stroke-width:0.5;" width="436" x="314" y="88.0137"/><ellipse cx="481.25" cy="104.0137" fill="#ADD1B2" rx="11" ry="11" style="stroke:#181818;stroke-width:1.0;"/><path d="M484.0156,99.8887 Q484.1719,99.6699 484.3594,99.5605 Q484.5469,99.4512 484.7656,99.4512 Q485.1406,99.4512 485.375,99.7168 Q485.6094,99.9668 485.6094,100.5762 L485.6094,102.0293 Q485.6094,102.6387 485.375,102.9043 Q485.1406,103.1699 484.7656,103.1699 Q484.4219,103.1699 484.2188,102.9668 Q484.0156,102.7793 483.9063,102.2637 Q483.8594,101.9043 483.6719,101.7168 Q483.3438,101.3418 482.7344,101.123 Q482.125,100.9043 481.5,100.9043 Q480.7344,100.9043 480.0938,101.2324 Q479.4688,101.5605 478.9688,102.3105 Q478.4844,103.0605 478.4844,104.0918 L478.4844,105.1855 Q478.4844,106.4199 479.375,107.248 Q480.2656,108.0605 481.8594,108.0605 Q482.7969,108.0605 483.4531,107.8105 Q483.8438,107.6543 484.2656,107.2168 Q484.5313,106.9512 484.6719,106.873 Q484.8281,106.7949 485.0313,106.7949 Q485.3594,106.7949 485.6094,107.0605 Q485.875,107.3105 485.875,107.6543 Q485.875,107.998 485.5313,108.4043 Q485.0313,108.9824 484.2344,109.3105 Q483.1563,109.7637 481.8594,109.7637 Q480.3438,109.7637 479.1406,109.1387 Q478.1563,108.6387 477.4688,107.5762 Q476.7813,106.498 476.7813,105.2168 L476.7813,104.0605 Q476.7813,102.7324 477.3906,101.5918 Q478.0156,100.4355 479.1094,99.8262 Q480.2031,99.2012 481.4375,99.2012 Q482.1719,99.2012 482.8125,99.373 Q483.4688,99.5293 484.0156,99.8887 Z " fill="#000000"/><text fill="#000000" font-family="sans-serif" font-size="14" lengthAdjust="spacing" textLength="93" x="501.75" y="109.8105">FactorySensor</text><line style="stroke:#181818;stroke-width:0.5;" x1="315" x2="749" y1="120.0137" y2="120.0137"/><rect fill="none" height="6" style="stroke:#C82930;stroke-width:1.0;" width="6" x="322" y="131.8242"/><text fill="#000000" font-family="sans-serif" font-size="14" lengthAdjust="spacing" textLength="167" x="334" y="139.1211">FactoryValue factoryValue</text><line style="stroke:#181818;stroke-width:0.5;" x1="315" x2="749" y1="146.6348" y2="146.6348"/><ellipse cx="325" cy="161.4453" fill="#84BE84" rx="3" ry="3" style="stroke:#038048;stroke-width:1.0;"/><text fill="#000000" font-family="sans-serif" font-size="14" lengthAdjust="spacing" textLength="410" x="334" y="165.7422">createSensor(sensorID, sensorFunctionalityID, deviceID): Sensor</text></g><!--class Sensor--><g id="elem_Sensor"><rect codeLine="11" fill="#F1F1F1" height="103.8633" id="Sensor" rx="2.5" ry="2.5" style="stroke:#181818;stroke-width:0.5;" width="327" x="77.5" y="315.0137"/><ellipse cx="214.25" cy="331.0137" fill="#B4A7E5" rx="11" ry="11" style="stroke:#181818;stroke-width:1.0;"/><path d="M215.2031,327.6543 L215.2031,334.3105 L216.9219,334.3105 Q217.5313,334.3105 217.7969,334.5449 Q218.0625,334.7793 218.0625,335.1699 Q218.0625,335.5449 217.7969,335.7793 Q217.5313,336.0137 216.9219,336.0137 L211.7813,336.0137 Q211.1719,336.0137 210.9063,335.7793 Q210.6406,335.5449 210.6406,335.1543 Q210.6406,334.7793 210.9063,334.5449 Q211.1719,334.3105 211.7813,334.3105 L213.5,334.3105 L213.5,327.6543 L211.7813,327.6543 Q211.1719,327.6543 210.9063,327.4199 Q210.6406,327.1855 210.6406,326.7949 Q210.6406,326.4199 210.9063,326.1855 Q211.1719,325.9512 211.7813,325.9512 L216.9219,325.9512 Q217.5313,325.9512 217.7969,326.1855 Q218.0625,326.4199 218.0625,326.7949 Q218.0625,327.1855 217.7969,327.4199 Q217.5313,327.6543 216.9219,327.6543 L215.2031,327.6543 Z " fill="#000000"/><text fill="#000000" font-family="sans-serif" font-size="14" font-style="italic" lengthAdjust="spacing" textLength="45" x="234.75" y="336.8105">Sensor</text><line style="stroke:#181818;stroke-width:0.5;" x1="78.5" x2="403.5" y1="347.0137" y2="347.0137"/><line style="stroke:#181818;stroke-width:0.5;" x1="78.5" x2="403.5" y1="355.0137" y2="355.0137"/><ellipse cx="88.5" cy="369.8242" fill="#84BE84" rx="3" ry="3" style="stroke:#038048;stroke-width:1.0;"/><text fill="#000000" font-family="sans-serif" font-size="14" lengthAdjust="spacing" textLength="156" x="97.5" y="374.1211">getSensorName(): String</text><ellipse cx="88.5" cy="388.4453" fill="#84BE84" rx="3" ry="3" style="stroke:#038048;stroke-width:1.0;"/><text fill="#000000" font-family="sans-serif" font-size="14" lengthAdjust="spacing" textLength="301" x="97.5" y="392.7422">getSensorFunctionality(): SensorFunctionalityID</text><ellipse cx="88.5" cy="407.0664" fill="#84BE84" rx="3" ry="3" style="stroke:#038048;stroke-width:1.0;"/><text fill="#000000" font-family="sans-serif" font-size="14" lengthAdjust="spacing" textLength="173" x="97.5" y="411.3633">getDeviceName(): DeviceID</text></g><!--class Value--><g id="elem_Value"><rect codeLine="16" fill="#F1F1F1" height="66.6211" id="Value" rx="2.5" ry="2.5" style="stroke:#181818;stroke-width:0.5;" width="189" x="785.5" y="97.0137"/><ellipse cx="857.75" cy="113.0137" fill="#B4A7E5" rx="11" ry="11" style="stroke:#181818;stroke-width:1.0;"/><path d="M858.7031,109.6543 L858.7031,116.3105 L860.4219,116.3105 Q861.0313,116.3105 861.2969,116.5449 Q861.5625,116.7793 861.5625,117.1699 Q861.5625,117.5449 861.2969,117.7793 Q861.0313,118.0137 860.4219,118.0137 L855.2813,118.0137 Q854.6719,118.0137 854.4063,117.7793 Q854.1406,117.5449 854.1406,117.1543 Q854.1406,116.7793 854.4063,116.5449 Q854.6719,116.3105 855.2813,116.3105 L857,116.3105 L857,109.6543 L855.2813,109.6543 Q854.6719,109.6543 854.4063,109.4199 Q854.1406,109.1855 854.1406,108.7949 Q854.1406,108.4199 854.4063,108.1855 Q854.6719,107.9512 855.2813,107.9512 L860.4219,107.9512 Q861.0313,107.9512 861.2969,108.1855 Q861.5625,108.4199 861.5625,108.7949 Q861.5625,109.1855 861.2969,109.4199 Q861.0313,109.6543 860.4219,109.6543 L858.7031,109.6543 Z " fill="#000000"/><text fill="#000000" font-family="sans-serif" font-size="14" font-style="italic" lengthAdjust="spacing" textLength="36" x="878.25" y="118.8105">Value</text><line style="stroke:#181818;stroke-width:0.5;" x1="786.5" x2="973.5" y1="129.0137" y2="129.0137"/><line style="stroke:#181818;stroke-width:0.5;" x1="786.5" x2="973.5" y1="137.0137" y2="137.0137"/><ellipse cx="796.5" cy="151.8242" fill="#84BE84" rx="3" ry="3" style="stroke:#038048;stroke-width:1.0;"/><text fill="#000000" font-family="sans-serif" font-size="14" lengthAdjust="spacing" textLength="163" x="805.5" y="156.1211">getValueWithUnit(): String</text></g><!--class SensorSpecificTime--><g id="elem_SensorSpecificTime"><rect codeLine="19" fill="#F1F1F1" height="66.6211" id="SensorSpecificTime" rx="2.5" ry="2.5" style="stroke:#181818;stroke-width:0.5;" width="390" x="46" y="615.0137"/><ellipse cx="174.25" cy="631.0137" fill="#B4A7E5" rx="11" ry="11" style="stroke:#181818;stroke-width:1.0;"/><path d="M175.2031,627.6543 L175.2031,634.3105 L176.9219,634.3105 Q177.5313,634.3105 177.7969,634.5449 Q178.0625,634.7793 178.0625,635.1699 Q178.0625,635.5449 177.7969,635.7793 Q177.5313,636.0137 176.9219,636.0137 L171.7813,636.0137 Q171.1719,636.0137 170.9063,635.7793 Q170.6406,635.5449 170.6406,635.1543 Q170.6406,634.7793 170.9063,634.5449 Q171.1719,634.3105 171.7813,634.3105 L173.5,634.3105 L173.5,627.6543 L171.7813,627.6543 Q171.1719,627.6543 170.9063,627.4199 Q170.6406,627.1855 170.6406,626.7949 Q170.6406,626.4199 170.9063,626.1855 Q171.1719,625.9512 171.7813,625.9512 L176.9219,625.9512 Q177.5313,625.9512 177.7969,626.1855 Q178.0625,626.4199 178.0625,626.7949 Q178.0625,627.1855 177.7969,627.4199 Q177.5313,627.6543 176.9219,627.6543 L175.2031,627.6543 Z " fill="#000000"/><text fill="#000000" font-family="sans-serif" font-size="14" font-style="italic" lengthAdjust="spacing" textLength="125" x="194.75" y="636.8105">SensorSpecificTime</text><line style="stroke:#181818;stroke-width:0.5;" x1="47" x2="435" y1="647.0137" y2="647.0137"/><line style="stroke:#181818;stroke-width:0.5;" x1="47" x2="435" y1="655.0137" y2="655.0137"/><ellipse cx="57" cy="669.8242" fill="#84BE84" rx="3" ry="3" style="stroke:#038048;stroke-width:1.0;"/><text fill="#000000" font-family="sans-serif" font-size="14" lengthAdjust="spacing" textLength="364" x="66" y="674.1211">getValueForSpecificTime(Timestamp specificTime): String</text></g><!--class FactoryValue--><g id="elem_FactoryValue"><rect codeLine="35" fill="#F1F1F1" height="66.6211" id="FactoryValue" rx="2.5" ry="2.5" style="stroke:#181818;stroke-width:0.5;" width="504" x="471" y="615.0137"/><ellipse cx="676.75" cy="631.0137" fill="#ADD1B2" rx="11" ry="11" style="stroke:#181818;stroke-width:1.0;"/><path d="M679.5156,626.8887 Q679.6719,626.6699 679.8594,626.5605 Q680.0469,626.4512 680.2656,626.4512 Q680.6406,626.4512 680.875,626.7168 Q681.1094,626.9668 681.1094,627.5762 L681.1094,629.0293 Q681.1094,629.6387 680.875,629.9043 Q680.6406,630.1699 680.2656,630.1699 Q679.9219,630.1699 679.7188,629.9668 Q679.5156,629.7793 679.4063,629.2637 Q679.3594,628.9043 679.1719,628.7168 Q678.8438,628.3418 678.2344,628.123 Q677.625,627.9043 677,627.9043 Q676.2344,627.9043 675.5938,628.2324 Q674.9688,628.5605 674.4688,629.3105 Q673.9844,630.0605 673.9844,631.0918 L673.9844,632.1855 Q673.9844,633.4199 674.875,634.248 Q675.7656,635.0605 677.3594,635.0605 Q678.2969,635.0605 678.9531,634.8105 Q679.3438,634.6543 679.7656,634.2168 Q680.0313,633.9512 680.1719,633.873 Q680.3281,633.7949 680.5313,633.7949 Q680.8594,633.7949 681.1094,634.0605 Q681.375,634.3105 681.375,634.6543 Q681.375,634.998 681.0313,635.4043 Q680.5313,635.9824 679.7344,636.3105 Q678.6563,636.7637 677.3594,636.7637 Q675.8438,636.7637 674.6406,636.1387 Q673.6563,635.6387 672.9688,634.5762 Q672.2813,633.498 672.2813,632.2168 L672.2813,631.0605 Q672.2813,629.7324 672.8906,628.5918 Q673.5156,627.4355 674.6094,626.8262 Q675.7031,626.2012 676.9375,626.2012 Q677.6719,626.2012 678.3125,626.373 Q678.9688,626.5293 679.5156,626.8887 Z " fill="#000000"/><text fill="#000000" font-family="sans-serif" font-size="14" lengthAdjust="spacing" textLength="84" x="697.25" y="636.8105">FactoryValue</text><line style="stroke:#181818;stroke-width:0.5;" x1="472" x2="974" y1="647.0137" y2="647.0137"/><line style="stroke:#181818;stroke-width:0.5;" x1="472" x2="974" y1="655.0137" y2="655.0137"/><polygon fill="#FFFF44" points="482,664.8242,486,668.8242,482,672.8242,478,668.8242" style="stroke:#B38D22;stroke-width:1.0;"/><text fill="#000000" font-family="sans-serif" font-size="14" lengthAdjust="spacing" textLength="478" x="491" y="674.1211">createValueSpecificTime(String className, Timestamp specificTime): Value</text></g><!--class TemperatureCelsiusSensor--><g id="elem_TemperatureCelsiusSensor"><rect codeLine="23" fill="#F1F1F1" height="178.3477" id="TemperatureCelsiusSensor" rx="2.5" ry="2.5" style="stroke:#181818;stroke-width:0.5;" width="390" x="561" y="278.0137"/><ellipse cx="650.25" cy="294.0137" fill="#ADD1B2" rx="11" ry="11" style="stroke:#181818;stroke-width:1.0;"/><path d="M653.0156,289.8887 Q653.1719,289.6699 653.3594,289.5605 Q653.5469,289.4512 653.7656,289.4512 Q654.1406,289.4512 654.375,289.7168 Q654.6094,289.9668 654.6094,290.5762 L654.6094,292.0293 Q654.6094,292.6387 654.375,292.9043 Q654.1406,293.1699 653.7656,293.1699 Q653.4219,293.1699 653.2188,292.9668 Q653.0156,292.7793 652.9063,292.2637 Q652.8594,291.9043 652.6719,291.7168 Q652.3438,291.3418 651.7344,291.123 Q651.125,290.9043 650.5,290.9043 Q649.7344,290.9043 649.0938,291.2324 Q648.4688,291.5605 647.9688,292.3105 Q647.4844,293.0605 647.4844,294.0918 L647.4844,295.1855 Q647.4844,296.4199 648.375,297.248 Q649.2656,298.0605 650.8594,298.0605 Q651.7969,298.0605 652.4531,297.8105 Q652.8438,297.6543 653.2656,297.2168 Q653.5313,296.9512 653.6719,296.873 Q653.8281,296.7949 654.0313,296.7949 Q654.3594,296.7949 654.6094,297.0605 Q654.875,297.3105 654.875,297.6543 Q654.875,297.998 654.5313,298.4043 Q654.0313,298.9824 653.2344,299.3105 Q652.1563,299.7637 650.8594,299.7637 Q649.3438,299.7637 648.1406,299.1387 Q647.1563,298.6387 646.4688,297.5762 Q645.7813,296.498 645.7813,295.2168 L645.7813,294.0605 Q645.7813,292.7324 646.3906,291.5918 Q647.0156,290.4355 648.1094,289.8262 Q649.2031,289.2012 650.4375,289.2012 Q651.1719,289.2012 651.8125,289.373 Q652.4688,289.5293 653.0156,289.8887 Z " fill="#000000"/><text fill="#000000" font-family="sans-serif" font-size="14" lengthAdjust="spacing" textLength="173" x="670.75" y="299.8105">TemperatureCelsiusSensor</text><rect fill="#FFFFFF" height="17.9609" style="stroke:#181818;stroke-width:1.0;stroke-dasharray:2.0,2.0;" width="28" x="926" y="275.0137"/><text fill="#000000" font-family="sans-serif" font-size="12" font-style="italic" lengthAdjust="spacing" textLength="26" x="927" y="288.9629">Root</text><line style="stroke:#181818;stroke-width:0.5;" x1="562" x2="950" y1="310.0137" y2="310.0137"/><rect fill="none" height="6" style="stroke:#C82930;stroke-width:1.0;" width="6" x="569" y="321.8242"/><text fill="#000000" font-family="sans-serif" font-size="14" lengthAdjust="spacing" textLength="118" x="581" y="329.1211">SensorID sensorID</text><rect fill="none" height="6" style="stroke:#C82930;stroke-width:1.0;" width="6" x="569" y="340.4453"/><text fill="#000000" font-family="sans-serif" font-size="14" lengthAdjust="spacing" textLength="278" x="581" y="347.7422">SensorFunctionalityID sensorFunctionalityID</text><rect fill="none" height="6" style="stroke:#C82930;stroke-width:1.0;" width="6" x="569" y="359.0664"/><text fill="#000000" font-family="sans-serif" font-size="14" lengthAdjust="spacing" textLength="114" x="581" y="366.3633">DeviceID deviceID</text><rect fill="none" height="6" style="stroke:#C82930;stroke-width:1.0;" width="6" x="569" y="377.6875"/><text fill="#000000" font-family="sans-serif" font-size="14" lengthAdjust="spacing" textLength="167" x="581" y="384.9844">FactoryValue factoryValue</text><line style="stroke:#181818;stroke-width:0.5;" x1="562" x2="950" y1="392.498" y2="392.498"/><ellipse cx="572" cy="407.3086" fill="#84BE84" rx="3" ry="3" style="stroke:#038048;stroke-width:1.0;"/><text fill="#000000" font-family="sans-serif" font-size="14" lengthAdjust="spacing" textLength="156" x="581" y="411.6055">getSensorName(): String</text><ellipse cx="572" cy="425.9297" fill="#84BE84" rx="3" ry="3" style="stroke:#038048;stroke-width:1.0;"/><text fill="#000000" font-family="sans-serif" font-size="14" lengthAdjust="spacing" textLength="301" x="581" y="430.2266">getSensorFunctionality(): SensorFunctionalityID</text><ellipse cx="572" cy="444.5508" fill="#84BE84" rx="3" ry="3" style="stroke:#038048;stroke-width:1.0;"/><text fill="#000000" font-family="sans-serif" font-size="14" lengthAdjust="spacing" textLength="364" x="581" y="448.8477">getValueForSpecificTime(Timestamp specificTime): String</text></g><!--class SensorID--><g id="elem_SensorID"><rect codeLine="41" fill="#F1F1F1" height="103.8633" id="SensorID" rx="2.5" ry="2.5" style="stroke:#181818;stroke-width:0.5;" width="220" x="1485" y="596.5137"/><ellipse cx="1551.25" cy="612.5137" fill="#ADD1B2" rx="11" ry="11" style="stroke:#181818;stroke-width:1.0;"/><path d="M1554.0156,608.3887 Q1554.1719,608.1699 1554.3594,608.0605 Q1554.5469,607.9512 1554.7656,607.9512 Q1555.1406,607.9512 1555.375,608.2168 Q1555.6094,608.4668 1555.6094,609.0762 L1555.6094,610.5293 Q1555.6094,611.1387 1555.375,611.4043 Q1555.1406,611.6699 1554.7656,611.6699 Q1554.4219,611.6699 1554.2188,611.4668 Q1554.0156,611.2793 1553.9063,610.7637 Q1553.8594,610.4043 1553.6719,610.2168 Q1553.3438,609.8418 1552.7344,609.623 Q1552.125,609.4043 1551.5,609.4043 Q1550.7344,609.4043 1550.0938,609.7324 Q1549.4688,610.0605 1548.9688,610.8105 Q1548.4844,611.5605 1548.4844,612.5918 L1548.4844,613.6855 Q1548.4844,614.9199 1549.375,615.748 Q1550.2656,616.5605 1551.8594,616.5605 Q1552.7969,616.5605 1553.4531,616.3105 Q1553.8438,616.1543 1554.2656,615.7168 Q1554.5313,615.4512 1554.6719,615.373 Q1554.8281,615.2949 1555.0313,615.2949 Q1555.3594,615.2949 1555.6094,615.5605 Q1555.875,615.8105 1555.875,616.1543 Q1555.875,616.498 1555.5313,616.9043 Q1555.0313,617.4824 1554.2344,617.8105 Q1553.1563,618.2637 1551.8594,618.2637 Q1550.3438,618.2637 1549.1406,617.6387 Q1548.1563,617.1387 1547.4688,616.0762 Q1546.7813,614.998 1546.7813,613.7168 L1546.7813,612.5605 Q1546.7813,611.2324 1547.3906,610.0918 Q1548.0156,608.9355 1549.1094,608.3262 Q1550.2031,607.7012 1551.4375,607.7012 Q1552.1719,607.7012 1552.8125,607.873 Q1553.4688,608.0293 1554.0156,608.3887 Z " fill="#000000"/><text fill="#000000" font-family="sans-serif" font-size="14" lengthAdjust="spacing" textLength="58" x="1571.75" y="618.3105">SensorID</text><rect fill="#FFFFFF" height="17.9609" style="stroke:#181818;stroke-width:1.0;stroke-dasharray:2.0,2.0;" width="19" x="1689" y="593.5137"/><text fill="#000000" font-family="sans-serif" font-size="12" font-style="italic" lengthAdjust="spacing" textLength="17" x="1690" y="607.4629">VO</text><line style="stroke:#181818;stroke-width:0.5;" x1="1486" x2="1704" y1="628.5137" y2="628.5137"/><rect fill="none" height="6" style="stroke:#C82930;stroke-width:1.0;" width="6" x="1493" y="640.3242"/><text fill="#000000" font-family="sans-serif" font-size="14" lengthAdjust="spacing" textLength="124" x="1505" y="647.6211">sensorName: String</text><line style="stroke:#181818;stroke-width:0.5;" x1="1486" x2="1704" y1="655.1348" y2="655.1348"/><ellipse cx="1496" cy="669.9453" fill="#84BE84" rx="3" ry="3" style="stroke:#038048;stroke-width:1.0;"/><text fill="#000000" font-family="sans-serif" font-size="14" lengthAdjust="spacing" textLength="156" x="1505" y="674.2422">getSensorName(): String</text><ellipse cx="1496" cy="688.5664" fill="#84BE84" rx="3" ry="3" style="stroke:#038048;stroke-width:1.0;"/><text fill="#000000" font-family="sans-serif" font-size="14" lengthAdjust="spacing" textLength="194" x="1505" y="692.8633">equals(Object object): boolean</text></g><!--class SensorFunctionalityID--><g id="elem_SensorFunctionalityID"><rect codeLine="47" fill="#F1F1F1" height="103.8633" id="SensorFunctionalityID" rx="2.5" ry="2.5" style="stroke:#181818;stroke-width:0.5;" width="194" x="1256" y="596.5137"/><ellipse cx="1272.35" cy="612.5137" fill="#ADD1B2" rx="11" ry="11" style="stroke:#181818;stroke-width:1.0;"/><path d="M1275.1156,608.3887 Q1275.2719,608.1699 1275.4594,608.0605 Q1275.6469,607.9512 1275.8656,607.9512 Q1276.2406,607.9512 1276.475,608.2168 Q1276.7094,608.4668 1276.7094,609.0762 L1276.7094,610.5293 Q1276.7094,611.1387 1276.475,611.4043 Q1276.2406,611.6699 1275.8656,611.6699 Q1275.5219,611.6699 1275.3188,611.4668 Q1275.1156,611.2793 1275.0063,610.7637 Q1274.9594,610.4043 1274.7719,610.2168 Q1274.4438,609.8418 1273.8344,609.623 Q1273.225,609.4043 1272.6,609.4043 Q1271.8344,609.4043 1271.1938,609.7324 Q1270.5688,610.0605 1270.0688,610.8105 Q1269.5844,611.5605 1269.5844,612.5918 L1269.5844,613.6855 Q1269.5844,614.9199 1270.475,615.748 Q1271.3656,616.5605 1272.9594,616.5605 Q1273.8969,616.5605 1274.5531,616.3105 Q1274.9438,616.1543 1275.3656,615.7168 Q1275.6313,615.4512 1275.7719,615.373 Q1275.9281,615.2949 1276.1313,615.2949 Q1276.4594,615.2949 1276.7094,615.5605 Q1276.975,615.8105 1276.975,616.1543 Q1276.975,616.498 1276.6313,616.9043 Q1276.1313,617.4824 1275.3344,617.8105 Q1274.2563,618.2637 1272.9594,618.2637 Q1271.4438,618.2637 1270.2406,617.6387 Q1269.2563,617.1387 1268.5688,616.0762 Q1267.8813,614.998 1267.8813,613.7168 L1267.8813,612.5605 Q1267.8813,611.2324 1268.4906,610.0918 Q1269.1156,608.9355 1270.2094,608.3262 Q1271.3031,607.7012 1272.5375,607.7012 Q1273.2719,607.7012 1273.9125,607.873 Q1274.5688,608.0293 1275.1156,608.3887 Z " fill="#000000"/><text fill="#000000" font-family="sans-serif" font-size="14" lengthAdjust="spacing" textLength="138" x="1286.65" y="618.3105">SensorFunctionalityID</text><rect fill="#FFFFFF" height="17.9609" style="stroke:#181818;stroke-width:1.0;stroke-dasharray:2.0,2.0;" width="19" x="1434" y="593.5137"/><text fill="#000000" font-family="sans-serif" font-size="12" font-style="italic" lengthAdjust="spacing" textLength="17" x="1435" y="607.4629">VO</text><line style="stroke:#181818;stroke-width:0.5;" x1="1257" x2="1449" y1="628.5137" y2="628.5137"/><rect fill="none" height="6" style="stroke:#C82930;stroke-width:1.0;" width="6" x="1264" y="640.3242"/><text fill="#000000" font-family="sans-serif" font-size="14" lengthAdjust="spacing" textLength="168" x="1276" y="647.6211">sensorFunctionality: String</text><line style="stroke:#181818;stroke-width:0.5;" x1="1257" x2="1449" y1="655.1348" y2="655.1348"/><ellipse cx="1267" cy="669.9453" fill="#84BE84" rx="3" ry="3" style="stroke:#038048;stroke-width:1.0;"/><text fill="#000000" font-family="sans-serif" font-size="14" lengthAdjust="spacing" textLength="164" x="1276" y="674.2422">equals(Object o): boolean</text><ellipse cx="1267" cy="688.5664" fill="#84BE84" rx="3" ry="3" style="stroke:#038048;stroke-width:1.0;"/><text fill="#000000" font-family="sans-serif" font-size="14" lengthAdjust="spacing" textLength="104" x="1276" y="692.8633">toString(): String</text></g><!--class DeviceID--><g id="elem_DeviceID"><rect codeLine="53" fill="#F1F1F1" height="141.1055" id="DeviceID" rx="2.5" ry="2.5" style="stroke:#181818;stroke-width:0.5;" width="190" x="1031" y="578.0137"/><ellipse cx="1083.25" cy="594.0137" fill="#ADD1B2" rx="11" ry="11" style="stroke:#181818;stroke-width:1.0;"/><path d="M1086.0156,589.8887 Q1086.1719,589.6699 1086.3594,589.5605 Q1086.5469,589.4512 1086.7656,589.4512 Q1087.1406,589.4512 1087.375,589.7168 Q1087.6094,589.9668 1087.6094,590.5762 L1087.6094,592.0293 Q1087.6094,592.6387 1087.375,592.9043 Q1087.1406,593.1699 1086.7656,593.1699 Q1086.4219,593.1699 1086.2188,592.9668 Q1086.0156,592.7793 1085.9063,592.2637 Q1085.8594,591.9043 1085.6719,591.7168 Q1085.3438,591.3418 1084.7344,591.123 Q1084.125,590.9043 1083.5,590.9043 Q1082.7344,590.9043 1082.0938,591.2324 Q1081.4688,591.5605 1080.9688,592.3105 Q1080.4844,593.0605 1080.4844,594.0918 L1080.4844,595.1855 Q1080.4844,596.4199 1081.375,597.248 Q1082.2656,598.0605 1083.8594,598.0605 Q1084.7969,598.0605 1085.4531,597.8105 Q1085.8438,597.6543 1086.2656,597.2168 Q1086.5313,596.9512 1086.6719,596.873 Q1086.8281,596.7949 1087.0313,596.7949 Q1087.3594,596.7949 1087.6094,597.0605 Q1087.875,597.3105 1087.875,597.6543 Q1087.875,597.998 1087.5313,598.4043 Q1087.0313,598.9824 1086.2344,599.3105 Q1085.1563,599.7637 1083.8594,599.7637 Q1082.3438,599.7637 1081.1406,599.1387 Q1080.1563,598.6387 1079.4688,597.5762 Q1078.7813,596.498 1078.7813,595.2168 L1078.7813,594.0605 Q1078.7813,592.7324 1079.3906,591.5918 Q1080.0156,590.4355 1081.1094,589.8262 Q1082.2031,589.2012 1083.4375,589.2012 Q1084.1719,589.2012 1084.8125,589.373 Q1085.4688,589.5293 1086.0156,589.8887 Z " fill="#000000"/><text fill="#000000" font-family="sans-serif" font-size="14" lengthAdjust="spacing" textLength="56" x="1103.75" y="599.8105">DeviceID</text><rect fill="#FFFFFF" height="17.9609" style="stroke:#181818;stroke-width:1.0;stroke-dasharray:2.0,2.0;" width="19" x="1205" y="575.0137"/><text fill="#000000" font-family="sans-serif" font-size="12" font-style="italic" lengthAdjust="spacing" textLength="17" x="1206" y="588.9629">VO</text><line style="stroke:#181818;stroke-width:0.5;" x1="1032" x2="1220" y1="610.0137" y2="610.0137"/><rect fill="none" height="6" style="stroke:#C82930;stroke-width:1.0;" width="6" x="1039" y="621.8242"/><text fill="#000000" font-family="sans-serif" font-size="14" lengthAdjust="spacing" textLength="122" x="1051" y="629.1211">deviceName: String</text><line style="stroke:#181818;stroke-width:0.5;" x1="1032" x2="1220" y1="636.6348" y2="636.6348"/><ellipse cx="1042" cy="651.4453" fill="#84BE84" rx="3" ry="3" style="stroke:#038048;stroke-width:1.0;"/><text fill="#000000" font-family="sans-serif" font-size="14" lengthAdjust="spacing" textLength="164" x="1051" y="655.7422">equals(Object o): boolean</text><ellipse cx="1042" cy="670.0664" fill="#84BE84" rx="3" ry="3" style="stroke:#038048;stroke-width:1.0;"/><text fill="#000000" font-family="sans-serif" font-size="14" lengthAdjust="spacing" textLength="98" x="1051" y="674.3633">hashCode(): int</text><ellipse cx="1042" cy="688.6875" fill="#84BE84" rx="3" ry="3" style="stroke:#038048;stroke-width:1.0;"/><text fill="#000000" font-family="sans-serif" font-size="14" lengthAdjust="spacing" textLength="104" x="1051" y="692.9844">toString(): String</text><ellipse cx="1042" cy="707.3086" fill="#84BE84" rx="3" ry="3" style="stroke:#038048;stroke-width:1.0;"/><text fill="#000000" font-family="sans-serif" font-size="14" lengthAdjust="spacing" textLength="154" x="1051" y="711.6055">getDeviceName(): String</text></g><!--class TemperatureCelsiusSensorValue--><g id="elem_TemperatureCelsiusSensorValue"><rect codeLine="62" fill="#F1F1F1" height="141.1055" id="TemperatureCelsiusSensorValue" rx="2.5" ry="2.5" style="stroke:#181818;stroke-width:0.5;" width="262" x="1740" y="578.0137"/><ellipse cx="1755" cy="594.0137" fill="#ADD1B2" rx="11" ry="11" style="stroke:#181818;stroke-width:1.0;"/><path d="M1757.7656,589.8887 Q1757.9219,589.6699 1758.1094,589.5605 Q1758.2969,589.4512 1758.5156,589.4512 Q1758.8906,589.4512 1759.125,589.7168 Q1759.3594,589.9668 1759.3594,590.5762 L1759.3594,592.0293 Q1759.3594,592.6387 1759.125,592.9043 Q1758.8906,593.1699 1758.5156,593.1699 Q1758.1719,593.1699 1757.9688,592.9668 Q1757.7656,592.7793 1757.6563,592.2637 Q1757.6094,591.9043 1757.4219,591.7168 Q1757.0938,591.3418 1756.4844,591.123 Q1755.875,590.9043 1755.25,590.9043 Q1754.4844,590.9043 1753.8438,591.2324 Q1753.2188,591.5605 1752.7188,592.3105 Q1752.2344,593.0605 1752.2344,594.0918 L1752.2344,595.1855 Q1752.2344,596.4199 1753.125,597.248 Q1754.0156,598.0605 1755.6094,598.0605 Q1756.5469,598.0605 1757.2031,597.8105 Q1757.5938,597.6543 1758.0156,597.2168 Q1758.2813,596.9512 1758.4219,596.873 Q1758.5781,596.7949 1758.7813,596.7949 Q1759.1094,596.7949 1759.3594,597.0605 Q1759.625,597.3105 1759.625,597.6543 Q1759.625,597.998 1759.2813,598.4043 Q1758.7813,598.9824 1757.9844,599.3105 Q1756.9063,599.7637 1755.6094,599.7637 Q1754.0938,599.7637 1752.8906,599.1387 Q1751.9063,598.6387 1751.2188,597.5762 Q1750.5313,596.498 1750.5313,595.2168 L1750.5313,594.0605 Q1750.5313,592.7324 1751.1406,591.5918 Q1751.7656,590.4355 1752.8594,589.8262 Q1753.9531,589.2012 1755.1875,589.2012 Q1755.9219,589.2012 1756.5625,589.373 Q1757.2188,589.5293 1757.7656,589.8887 Z " fill="#000000"/><text fill="#000000" font-family="sans-serif" font-size="14" lengthAdjust="spacing" textLength="209" x="1769" y="599.8105">TemperatureCelsiusSensorValue</text><rect fill="#FFFFFF" height="17.9609" style="stroke:#181818;stroke-width:1.0;stroke-dasharray:2.0,2.0;" width="19" x="1986" y="575.0137"/><text fill="#000000" font-family="sans-serif" font-size="12" font-style="italic" lengthAdjust="spacing" textLength="17" x="1987" y="588.9629">VO</text><line style="stroke:#181818;stroke-width:0.5;" x1="1741" x2="2001" y1="610.0137" y2="610.0137"/><rect fill="none" height="6" style="stroke:#C82930;stroke-width:1.0;" width="6" x="1748" y="621.8242"/><text fill="#000000" font-family="sans-serif" font-size="14" lengthAdjust="spacing" textLength="68" x="1760" y="629.1211">unit: String</text><rect fill="none" height="6" style="stroke:#C82930;stroke-width:1.0;" width="6" x="1748" y="640.4453"/><text fill="#000000" font-family="sans-serif" font-size="14" lengthAdjust="spacing" textLength="167" x="1760" y="647.7422">readingInstant: Timestamp</text><line style="stroke:#181818;stroke-width:0.5;" x1="1741" x2="2001" y1="655.2559" y2="655.2559"/><ellipse cx="1751" cy="670.0664" fill="#84BE84" rx="3" ry="3" style="stroke:#038048;stroke-width:1.0;"/><text fill="#000000" font-family="sans-serif" font-size="14" lengthAdjust="spacing" textLength="163" x="1760" y="674.3633">getValueWithUnit(): String</text><ellipse cx="1751" cy="688.6875" fill="#84BE84" rx="3" ry="3" style="stroke:#038048;stroke-width:1.0;"/><text fill="#000000" font-family="sans-serif" font-size="14" lengthAdjust="spacing" textLength="164" x="1760" y="692.9844">equals(Object o): boolean</text><ellipse cx="1751" cy="707.3086" fill="#84BE84" rx="3" ry="3" style="stroke:#038048;stroke-width:1.0;"/><text fill="#000000" font-family="sans-serif" font-size="14" lengthAdjust="spacing" textLength="104" x="1760" y="711.6055">toString(): String</text></g><!--reverse link Sensor to SensorSpecificTime--><g id="link_Sensor_SensorSpecificTime"><path d="M241,437.3037 C241,494.3837 241,566.1037 241,614.6337 " fill="none" id="Sensor-backto-SensorSpecificTime" style="stroke:#181818;stroke-width:1.0;"/><polygon fill="none" points="241,419.3037,235,437.3037,247,437.3037,241,419.3037" style="stroke:#181818;stroke-width:1.0;"/></g><!--link TemperatureCelsiusSensor to SensorSpecificTime--><g id="link_TemperatureCelsiusSensor_SensorSpecificTime"><path codeLine="32" d="M560.69,438.0137 C486.83,438.0137 420.25,438.0137 420.25,438.0137 C420.25,438.0137 420.25,537.1937 420.25,596.6937 " fill="none" id="TemperatureCelsiusSensor-to-SensorSpecificTime" style="stroke:#181818;stroke-width:1.0;stroke-dasharray:7.0,7.0;"/><polygon fill="none" points="420.25,614.6937,426.25,596.6937,414.25,596.6937,420.25,614.6937" style="stroke:#181818;stroke-width:1.0;"/></g><!--link FactorySensor to TemperatureCelsiusSensor--><g id="link_FactorySensor_TemperatureCelsiusSensor"><path codeLine="34" d="M655.5,173.0637 C655.5,202.1937 655.5,235.8837 655.5,271.7737 " fill="none" id="FactorySensor-to-TemperatureCelsiusSensor" style="stroke:#181818;stroke-width:1.0;stroke-dasharray:7.0,7.0;"/><polygon fill="#181818" points="655.5,277.7737,659.5,268.7737,655.5,272.7737,651.5,268.7737,655.5,277.7737" style="stroke:#181818;stroke-width:1.0;"/></g><!--link TemperatureCelsiusSensor to FactoryValue--><g id="link_TemperatureCelsiusSensor_FactoryValue"><path codeLine="38" d="M756,456.0837 C756,510.0437 756,569.7737 756,608.7637 " fill="none" id="TemperatureCelsiusSensor-to-FactoryValue" style="stroke:#181818;stroke-width:1.0;"/><polygon fill="#181818" points="756,614.7637,760,605.7637,756,609.7637,752,605.7637,756,614.7637" style="stroke:#181818;stroke-width:1.0;"/></g><!--link TemperatureCelsiusSensor to SensorID--><g id="link_TemperatureCelsiusSensor_SensorID"><path codeLine="46" d="M951.25,323.0137 C1188.74,323.0137 1558.33,323.0137 1558.33,323.0137 C1558.33,323.0137 1558.33,498.2037 1558.33,590.2137 " fill="none" id="TemperatureCelsiusSensor-to-SensorID" style="stroke:#181818;stroke-width:1.0;"/><polygon fill="#181818" points="1558.33,596.2137,1562.33,587.2137,1558.33,591.2137,1554.33,587.2137,1558.33,596.2137" style="stroke:#181818;stroke-width:1.0;"/></g><!--link TemperatureCelsiusSensor to SensorFunctionalityID--><g id="link_TemperatureCelsiusSensor_SensorFunctionalityID"><path codeLine="52" d="M951.07,367.0137 C1125.23,367.0137 1353,367.0137 1353,367.0137 C1353,367.0137 1353,508.8137 1353,590.2237 " fill="none" id="TemperatureCelsiusSensor-to-SensorFunctionalityID" style="stroke:#181818;stroke-width:1.0;"/><polygon fill="#181818" points="1353,596.2237,1357,587.2237,1353,591.2237,1349,587.2237,1353,596.2237" style="stroke:#181818;stroke-width:1.0;"/></g><!--link TemperatureCelsiusSensor to DeviceID--><g id="link_TemperatureCelsiusSensor_DeviceID"><path codeLine="60" d="M951.02,412.0137 C1040.06,412.0137 1126,412.0137 1126,412.0137 C1126,412.0137 1126,502.1837 1126,571.8737 " fill="none" id="TemperatureCelsiusSensor-to-DeviceID" style="stroke:#181818;stroke-width:1.0;"/><polygon fill="#181818" points="1126,577.8737,1130,568.8737,1126,572.8737,1122,568.8737,1126,577.8737" style="stroke:#181818;stroke-width:1.0;"/></g><!--link FactoryValue to TemperatureCelsiusSensorValue--><g id="link_FactoryValue_TemperatureCelsiusSensorValue"><path codeLine="69" d="M962.75,614.9937 C962.75,576.0337 962.75,517.0137 962.75,517.0137 C962.75,517.0137 1827.33,517.0137 1827.33,517.0137 C1827.33,517.0137 1827.33,540.6337 1827.33,571.7637 " fill="none" id="FactoryValue-to-TemperatureCelsiusSensorValue" style="stroke:#181818;stroke-width:1.0;stroke-dasharray:7.0,7.0;"/><polygon fill="#181818" points="1827.33,577.7637,1831.33,568.7637,1827.33,572.7637,1823.33,568.7637,1827.33,577.7637" style="stroke:#181818;stroke-width:1.0;"/><text fill="#000000" font-family="sans-serif" font-size="13" lengthAdjust="spacing" textLength="57" x="1318.43" y="513.042">&#171;creates&#187;</text></g><!--link TemperatureCelsiusSensorValue to Value--><g id="link_TemperatureCelsiusSensorValue_Value"><path codeLine="70" d="M1914.67,577.9137 C1914.67,436.3037 1914.67,131.0137 1914.67,131.0137 C1914.67,131.0137 1247.98,131.0137 992.56,131.0137 " fill="none" id="TemperatureCelsiusSensorValue-to-Value" style="stroke:#181818;stroke-width:1.0;stroke-dasharray:7.0,7.0;"/><polygon fill="none" points="974.56,131.0137,992.56,137.0137,992.56,125.0137,974.56,131.0137" style="stroke:#181818;stroke-width:1.0;"/></g><!--link SensorRepository to SensorID--><g id="link_SensorRepository_SensorID"><path codeLine="84" d="M2105.66,192.0137 C1918.36,192.0137 1631.67,192.0137 1631.67,192.0137 C1631.67,192.0137 1631.67,470.2437 1631.67,590.1437 " fill="none" id="SensorRepository-to-SensorID" style="stroke:#181818;stroke-width:1.0;stroke-dasharray:7.0,7.0;"/><polygon fill="#181818" points="1631.67,596.1437,1635.67,587.1437,1631.67,591.1437,1627.67,587.1437,1631.67,596.1437" style="stroke:#181818;stroke-width:1.0;"/></g><!--link SensorRepository to TemperatureCelsiusSensor--><g id="link_SensorRepository_TemperatureCelsiusSensor"><path codeLine="85" d="M2105.93,183.0137 C1740.5,183.0137 868.25,183.0137 868.25,183.0137 C868.25,183.0137 868.25,225.0137 868.25,271.9737 " fill="none" id="SensorRepository-to-TemperatureCelsiusSensor" style="stroke:#181818;stroke-width:1.0;stroke-dasharray:7.0,7.0;"/><polygon fill="#181818" points="868.25,277.9737,872.25,268.9737,868.25,272.9737,864.25,268.9737,868.25,277.9737" style="stroke:#181818;stroke-width:1.0;"/></g><!--SRC=[hLRDZfim4Bxp59PweSec3x12IDlDHigXZRHijsS79iHTi2asKL6RTw-DmOd1KDAj3n7np7Y- -Vji_aPeWKkSeunG47K1Y9NYoBm2nsyu1LH2mJWHh2J0qI_lx1b9md9CgDn3SdMR72XdPRkfLfnXpj46n_A8EkfBrLfsqbUSLO0ELtyilGMAIy02z26-zhHTtxK-DnMD1M4KPqJKQZk14ubXk_vuZxI9EUrilWWLK4gFW9pG5YW5eILVS0w-EagKXAPZMXO8ttZkOHjQhnkidOzrYtmIiCwM0syZ-4R4yIibmW5vFFgeW9WSIFn2Sa3mKm1D-4HY6aSRsynNFrpWl43yQdiAHTSwBv0NK69HbV086ISLVqZJ4b9PyfvttLD3_HPgyCoO27iskjEYjcbGrpsZEhsIkPlCOTtLphIVGsTUlyzlmFStuV-fgLrNjKPhj5hz3XrTvsWFcpfMgt3qK3VdkERaWsQIHcH5gWFI1wY4tw7HsEs2NV2EXhnSXXOcxsBNZS19xRFzTuW57t2ewTtWTHSEE9IR9laRHqqo6VoeSCRzNOC1QIXITyzO1fZU6cxKdxBhIFeJDX6MfJeFkGEqrXDCcqyouuoeniP9XsXem1bLOkZ-dS4SCJy-igIffsJp-Q6Et3p_bf31VMM_1fgkvZTnk1vQH-vq_YfviuqouLA-MN0Y9Lig1vTAHJF34vmtSM7UMfPPoRTvqkAgAOvhDEvH46W6us4uYs-xWoNfkdZhhDvrOq- -_jm-T-8Q1KhrkaHBz1aNGMIUPlehH0aMM4gyItggGkx1hepmITAkxYMWGixIyBssG0T2auSiUr8A4fNAwLQ-NV0-WzPRsDDkLEjFzJRn3N6IHDhj2Zsr3hkOKI6VjDpOhdksrzNMcHkaH1NFeZsdnkWLTlR-0000]--></g></svg>