<?xml version="1.0" encoding="us-ascii" standalone="no"?><svg xmlns="http://www.w3.org/2000/svg" xmlns:xlink="http://www.w3.org/1999/xlink" contentStyleType="text/css" height="909px" preserveAspectRatio="none" style="width:846px;height:909px;background:#FFFFFF;" version="1.1" viewBox="0 0 846 909" width="846px" zoomAndPan="magnify"><defs/><g><text fill="#000000" font-family="sans-serif" font-size="14" font-weight="bold" lengthAdjust="spacing" textLength="818" x="10" y="25.1074">US17: As Product Owner, I want the system to have a type of sensor that gives the status of a binary switch (ON/OFF).</text><!--class BinaryStatusSensor--><g id="elem_BinaryStatusSensor"><rect codeLine="5" fill="#F1F1F1" height="178.3477" id="BinaryStatusSensor" rx="2.5" ry="2.5" style="stroke:#181818;stroke-width:0.5;" width="314" x="285" y="358.1211"/><ellipse cx="375.25" cy="374.1211" fill="#ADD1B2" rx="11" ry="11" style="stroke:#181818;stroke-width:1.0;"/><path d="M378.0156,369.9961 Q378.1719,369.7773 378.3594,369.668 Q378.5469,369.5586 378.7656,369.5586 Q379.1406,369.5586 379.375,369.8242 Q379.6094,370.0742 379.6094,370.6836 L379.6094,372.1367 Q379.6094,372.7461 379.375,373.0117 Q379.1406,373.2773 378.7656,373.2773 Q378.4219,373.2773 378.2188,373.0742 Q378.0156,372.8867 377.9063,372.3711 Q377.8594,372.0117 377.6719,371.8242 Q377.3438,371.4492 376.7344,371.2305 Q376.125,371.0117 375.5,371.0117 Q374.7344,371.0117 374.0938,371.3398 Q373.4688,371.668 372.9688,372.418 Q372.4844,373.168 372.4844,374.1992 L372.4844,375.293 Q372.4844,376.5273 373.375,377.3555 Q374.2656,378.168 375.8594,378.168 Q376.7969,378.168 377.4531,377.918 Q377.8438,377.7617 378.2656,377.3242 Q378.5313,377.0586 378.6719,376.9805 Q378.8281,376.9023 379.0313,376.9023 Q379.3594,376.9023 379.6094,377.168 Q379.875,377.418 379.875,377.7617 Q379.875,378.1055 379.5313,378.5117 Q379.0313,379.0898 378.2344,379.418 Q377.1563,379.8711 375.8594,379.8711 Q374.3438,379.8711 373.1406,379.2461 Q372.1563,378.7461 371.4688,377.6836 Q370.7813,376.6055 370.7813,375.3242 L370.7813,374.168 Q370.7813,372.8398 371.3906,371.6992 Q372.0156,370.543 373.1094,369.9336 Q374.2031,369.3086 375.4375,369.3086 Q376.1719,369.3086 376.8125,369.4805 Q377.4688,369.6367 378.0156,369.9961 Z " fill="#000000"/><text fill="#000000" font-family="sans-serif" font-size="14" lengthAdjust="spacing" textLength="125" x="395.75" y="379.918">BinaryStatusSensor</text><line style="stroke:#181818;stroke-width:0.5;" x1="286" x2="598" y1="390.1211" y2="390.1211"/><rect fill="none" height="6" style="stroke:#C82930;stroke-width:1.0;" width="6" x="293" y="401.9316"/><text fill="#000000" font-family="sans-serif" font-size="14" lengthAdjust="spacing" textLength="124" x="305" y="409.2285">sensorName: String</text><rect fill="none" height="6" style="stroke:#C82930;stroke-width:1.0;" width="6" x="293" y="420.5527"/><text fill="#000000" font-family="sans-serif" font-size="14" lengthAdjust="spacing" textLength="208" x="305" y="427.8496">functionality: SensorFunctionality</text><rect fill="none" height="6" style="stroke:#C82930;stroke-width:1.0;" width="6" x="293" y="439.1738"/><text fill="#000000" font-family="sans-serif" font-size="14" lengthAdjust="spacing" textLength="171" x="305" y="446.4707">factoryValue: FactoryValue</text><rect fill="none" height="6" style="stroke:#C82930;stroke-width:1.0;" width="6" x="293" y="457.7949"/><text fill="#000000" font-family="sans-serif" font-size="14" lengthAdjust="spacing" textLength="78" x="305" y="465.0918">value: Value</text><line style="stroke:#181818;stroke-width:0.5;" x1="286" x2="598" y1="472.6055" y2="472.6055"/><ellipse cx="296" cy="487.416" fill="#84BE84" rx="3" ry="3" style="stroke:#038048;stroke-width:1.0;"/><text fill="#000000" font-family="sans-serif" font-size="14" lengthAdjust="spacing" textLength="156" x="305" y="491.7129">getSensorName(): String</text><ellipse cx="296" cy="506.0371" fill="#84BE84" rx="3" ry="3" style="stroke:#038048;stroke-width:1.0;"/><text fill="#000000" font-family="sans-serif" font-size="14" lengthAdjust="spacing" textLength="288" x="305" y="510.334">getSensorFunctionality(): SensorFunctionality</text><ellipse cx="296" cy="524.6582" fill="#84BE84" rx="3" ry="3" style="stroke:#038048;stroke-width:1.0;"/><text fill="#000000" font-family="sans-serif" font-size="14" lengthAdjust="spacing" textLength="213" x="305" y="528.9551">getValueForSpecificTime(): String</text></g><!--class SensorSpecificTime--><g id="elem_SensorSpecificTime"><rect codeLine="44" fill="#F1F1F1" height="66.6211" id="SensorSpecificTime" rx="2.5" ry="2.5" style="stroke:#181818;stroke-width:0.5;" width="239" x="322.5" y="192.6211"/><ellipse cx="375.25" cy="208.6211" fill="#B4A7E5" rx="11" ry="11" style="stroke:#181818;stroke-width:1.0;"/><path d="M376.2031,205.2617 L376.2031,211.918 L377.9219,211.918 Q378.5313,211.918 378.7969,212.1523 Q379.0625,212.3867 379.0625,212.7773 Q379.0625,213.1523 378.7969,213.3867 Q378.5313,213.6211 377.9219,213.6211 L372.7813,213.6211 Q372.1719,213.6211 371.9063,213.3867 Q371.6406,213.1523 371.6406,212.7617 Q371.6406,212.3867 371.9063,212.1523 Q372.1719,211.918 372.7813,211.918 L374.5,211.918 L374.5,205.2617 L372.7813,205.2617 Q372.1719,205.2617 371.9063,205.0273 Q371.6406,204.793 371.6406,204.4023 Q371.6406,204.0273 371.9063,203.793 Q372.1719,203.5586 372.7813,203.5586 L377.9219,203.5586 Q378.5313,203.5586 378.7969,203.793 Q379.0625,204.0273 379.0625,204.4023 Q379.0625,204.793 378.7969,205.0273 Q378.5313,205.2617 377.9219,205.2617 L376.2031,205.2617 Z " fill="#000000"/><text fill="#000000" font-family="sans-serif" font-size="14" font-style="italic" lengthAdjust="spacing" textLength="125" x="395.75" y="214.418">SensorSpecificTime</text><line style="stroke:#181818;stroke-width:0.5;" x1="323.5" x2="560.5" y1="224.6211" y2="224.6211"/><line style="stroke:#181818;stroke-width:0.5;" x1="323.5" x2="560.5" y1="232.6211" y2="232.6211"/><ellipse cx="333.5" cy="247.4316" fill="#84BE84" rx="3" ry="3" style="stroke:#038048;stroke-width:1.0;"/><text fill="#000000" font-family="sans-serif" font-size="14" lengthAdjust="spacing" textLength="213" x="342.5" y="251.7285">getValueForSpecificTime(): String</text></g><!--class FactoryValue--><g id="elem_FactoryValue"><rect codeLine="15" fill="#F1F1F1" height="66.6211" id="FactoryValue" rx="2.5" ry="2.5" style="stroke:#181818;stroke-width:0.5;" width="192" x="263" y="652.6211"/><ellipse cx="312.75" cy="668.6211" fill="#ADD1B2" rx="11" ry="11" style="stroke:#181818;stroke-width:1.0;"/><path d="M315.5156,664.4961 Q315.6719,664.2773 315.8594,664.168 Q316.0469,664.0586 316.2656,664.0586 Q316.6406,664.0586 316.875,664.3242 Q317.1094,664.5742 317.1094,665.1836 L317.1094,666.6367 Q317.1094,667.2461 316.875,667.5117 Q316.6406,667.7773 316.2656,667.7773 Q315.9219,667.7773 315.7188,667.5742 Q315.5156,667.3867 315.4063,666.8711 Q315.3594,666.5117 315.1719,666.3242 Q314.8438,665.9492 314.2344,665.7305 Q313.625,665.5117 313,665.5117 Q312.2344,665.5117 311.5938,665.8398 Q310.9688,666.168 310.4688,666.918 Q309.9844,667.668 309.9844,668.6992 L309.9844,669.793 Q309.9844,671.0273 310.875,671.8555 Q311.7656,672.668 313.3594,672.668 Q314.2969,672.668 314.9531,672.418 Q315.3438,672.2617 315.7656,671.8242 Q316.0313,671.5586 316.1719,671.4805 Q316.3281,671.4023 316.5313,671.4023 Q316.8594,671.4023 317.1094,671.668 Q317.375,671.918 317.375,672.2617 Q317.375,672.6055 317.0313,673.0117 Q316.5313,673.5898 315.7344,673.918 Q314.6563,674.3711 313.3594,674.3711 Q311.8438,674.3711 310.6406,673.7461 Q309.6563,673.2461 308.9688,672.1836 Q308.2813,671.1055 308.2813,669.8242 L308.2813,668.668 Q308.2813,667.3398 308.8906,666.1992 Q309.5156,665.043 310.6094,664.4336 Q311.7031,663.8086 312.9375,663.8086 Q313.6719,663.8086 314.3125,663.9805 Q314.9688,664.1367 315.5156,664.4961 Z " fill="#000000"/><text fill="#000000" font-family="sans-serif" font-size="14" lengthAdjust="spacing" textLength="84" x="333.25" y="674.418">FactoryValue</text><line style="stroke:#181818;stroke-width:0.5;" x1="264" x2="454" y1="684.6211" y2="684.6211"/><line style="stroke:#181818;stroke-width:0.5;" x1="264" x2="454" y1="692.6211" y2="692.6211"/><ellipse cx="274" cy="707.4316" fill="#84BE84" rx="3" ry="3" style="stroke:#038048;stroke-width:1.0;"/><text fill="#000000" font-family="sans-serif" font-size="14" lengthAdjust="spacing" textLength="166" x="283" y="711.7285">createValueSpecificTime()</text></g><!--class SensorFunctionality--><g id="elem_SensorFunctionality"><rect codeLine="19" fill="#F1F1F1" height="252.832" id="SensorFunctionality" rx="2.5" ry="2.5" style="stroke:#181818;stroke-width:0.5;" width="157" x="656.5" y="320.6211"/><ellipse cx="671.5" cy="336.6211" fill="#EB937F" rx="11" ry="11" style="stroke:#181818;stroke-width:1.0;"/><path d="M670.3594,337.418 L670.3594,339.918 L674.6875,339.918 L674.6875,338.9961 Q674.6875,338.3867 674.9219,338.1211 Q675.1719,337.8555 675.5469,337.8555 Q675.9219,337.8555 676.1563,338.1211 Q676.3906,338.3867 676.3906,338.9961 L676.3906,341.6211 L668.3906,341.6211 Q667.7656,341.6211 667.5,341.3867 Q667.25,341.1523 667.25,340.7617 Q667.25,340.3867 667.5156,340.1523 Q667.7813,339.918 668.3906,339.918 L668.6563,339.918 L668.6563,333.2617 L668.3906,333.2617 Q667.7656,333.2617 667.5,333.0273 Q667.25,332.793 667.25,332.4023 Q667.25,332.0273 667.5,331.793 Q667.7656,331.5586 668.3906,331.5586 L676.0156,331.5586 L676.0156,334.1523 Q676.0156,334.7617 675.7813,335.0273 Q675.5625,335.2773 675.1719,335.2773 Q674.7969,335.2773 674.5625,335.0273 Q674.3281,334.7617 674.3281,334.1523 L674.3281,333.2617 L670.3594,333.2617 L670.3594,335.7148 L671.8438,335.7148 Q671.8438,335.0586 671.9688,334.8711 Q672.2344,334.4648 672.7031,334.4648 Q673.0781,334.4648 673.3125,334.7305 Q673.5469,334.9805 673.5469,335.5898 L673.5469,337.5586 Q673.5469,338.1055 673.4219,338.293 Q673.1563,338.6836 672.7031,338.6836 Q672.2344,338.6836 671.9688,338.2773 Q671.8438,338.0898 671.8438,337.418 L670.3594,337.418 Z " fill="#000000"/><text fill="#000000" font-family="sans-serif" font-size="14" lengthAdjust="spacing" textLength="125" x="685.5" y="342.418">SensorFunctionality</text><line style="stroke:#181818;stroke-width:0.5;" x1="657.5" x2="812.5" y1="352.6211" y2="352.6211"/><text fill="#000000" font-family="sans-serif" font-size="14" lengthAdjust="spacing" textLength="107" x="662.5" y="371.7285">TEMPERATURE,</text><text fill="#000000" font-family="sans-serif" font-size="14" lengthAdjust="spacing" textLength="67" x="662.5" y="390.3496">HUMIDITY,</text><text fill="#000000" font-family="sans-serif" font-size="14" lengthAdjust="spacing" textLength="115" x="662.5" y="408.9707">BINARY_STATUS,</text><text fill="#000000" font-family="sans-serif" font-size="14" lengthAdjust="spacing" textLength="121" x="662.5" y="427.5918">SCALE_POSITION,</text><text fill="#000000" font-family="sans-serif" font-size="14" lengthAdjust="spacing" textLength="39" x="662.5" y="446.2129">WIND,</text><text fill="#000000" font-family="sans-serif" font-size="14" lengthAdjust="spacing" textLength="62" x="662.5" y="464.834">SUNRISE,</text><text fill="#000000" font-family="sans-serif" font-size="14" lengthAdjust="spacing" textLength="58" x="662.5" y="483.4551">SUNSET,</text><text fill="#000000" font-family="sans-serif" font-size="14" lengthAdjust="spacing" textLength="85" x="662.5" y="502.0762">DEW_POINT,</text><text fill="#000000" font-family="sans-serif" font-size="14" lengthAdjust="spacing" textLength="132" x="662.5" y="520.6973">SOLAR_RADIATION,</text><text fill="#000000" font-family="sans-serif" font-size="14" lengthAdjust="spacing" textLength="56" x="662.5" y="539.3184">POWER,</text><text fill="#000000" font-family="sans-serif" font-size="14" lengthAdjust="spacing" textLength="57" x="662.5" y="557.9395">ENERGY</text><line style="stroke:#181818;stroke-width:0.5;" x1="657.5" x2="812.5" y1="565.4531" y2="565.4531"/></g><!--class BinaryStatusValue--><g id="elem_BinaryStatusValue"><rect codeLine="33" fill="#F1F1F1" height="103.8633" id="BinaryStatusValue" rx="2.5" ry="2.5" style="stroke:#181818;stroke-width:0.5;" width="189" x="264.5" y="798.6211"/><ellipse cx="297.95" cy="814.6211" fill="#ADD1B2" rx="11" ry="11" style="stroke:#181818;stroke-width:1.0;"/><path d="M300.7156,810.4961 Q300.8719,810.2773 301.0594,810.168 Q301.2469,810.0586 301.4656,810.0586 Q301.8406,810.0586 302.075,810.3242 Q302.3094,810.5742 302.3094,811.1836 L302.3094,812.6367 Q302.3094,813.2461 302.075,813.5117 Q301.8406,813.7773 301.4656,813.7773 Q301.1219,813.7773 300.9188,813.5742 Q300.7156,813.3867 300.6063,812.8711 Q300.5594,812.5117 300.3719,812.3242 Q300.0438,811.9492 299.4344,811.7305 Q298.825,811.5117 298.2,811.5117 Q297.4344,811.5117 296.7938,811.8398 Q296.1688,812.168 295.6688,812.918 Q295.1844,813.668 295.1844,814.6992 L295.1844,815.793 Q295.1844,817.0273 296.075,817.8555 Q296.9656,818.668 298.5594,818.668 Q299.4969,818.668 300.1531,818.418 Q300.5438,818.2617 300.9656,817.8242 Q301.2313,817.5586 301.3719,817.4805 Q301.5281,817.4023 301.7313,817.4023 Q302.0594,817.4023 302.3094,817.668 Q302.575,817.918 302.575,818.2617 Q302.575,818.6055 302.2313,819.0117 Q301.7313,819.5898 300.9344,819.918 Q299.8563,820.3711 298.5594,820.3711 Q297.0438,820.3711 295.8406,819.7461 Q294.8563,819.2461 294.1688,818.1836 Q293.4813,817.1055 293.4813,815.8242 L293.4813,814.668 Q293.4813,813.3398 294.0906,812.1992 Q294.7156,811.043 295.8094,810.4336 Q296.9031,809.8086 298.1375,809.8086 Q298.8719,809.8086 299.5125,809.9805 Q300.1688,810.1367 300.7156,810.4961 Z " fill="#000000"/><text fill="#000000" font-family="sans-serif" font-size="14" lengthAdjust="spacing" textLength="116" x="316.05" y="820.418">BinaryStatusValue</text><line style="stroke:#181818;stroke-width:0.5;" x1="265.5" x2="452.5" y1="830.6211" y2="830.6211"/><rect fill="none" height="6" style="stroke:#C82930;stroke-width:1.0;" width="6" x="272.5" y="842.4316"/><text fill="#000000" font-family="sans-serif" font-size="14" lengthAdjust="spacing" textLength="105" x="284.5" y="849.7285">date: Timestamp</text><rect fill="none" height="6" style="stroke:#C82930;stroke-width:1.0;" width="6" x="272.5" y="861.0527"/><text fill="#000000" font-family="sans-serif" font-size="14" lengthAdjust="spacing" textLength="68" x="284.5" y="868.3496">unit: String</text><line style="stroke:#181818;stroke-width:0.5;" x1="265.5" x2="452.5" y1="875.8633" y2="875.8633"/><ellipse cx="275.5" cy="890.6738" fill="#84BE84" rx="3" ry="3" style="stroke:#038048;stroke-width:1.0;"/><text fill="#000000" font-family="sans-serif" font-size="14" lengthAdjust="spacing" textLength="163" x="284.5" y="894.9707">getValueWithUnit(): String</text></g><!--class Value--><g id="elem_Value"><rect codeLine="48" fill="#F1F1F1" height="66.6211" id="Value" rx="2.5" ry="2.5" style="stroke:#181818;stroke-width:0.5;" width="189" x="38.5" y="652.6211"/><ellipse cx="110.75" cy="668.6211" fill="#B4A7E5" rx="11" ry="11" style="stroke:#181818;stroke-width:1.0;"/><path d="M111.7031,665.2617 L111.7031,671.918 L113.4219,671.918 Q114.0313,671.918 114.2969,672.1523 Q114.5625,672.3867 114.5625,672.7773 Q114.5625,673.1523 114.2969,673.3867 Q114.0313,673.6211 113.4219,673.6211 L108.2813,673.6211 Q107.6719,673.6211 107.4063,673.3867 Q107.1406,673.1523 107.1406,672.7617 Q107.1406,672.3867 107.4063,672.1523 Q107.6719,671.918 108.2813,671.918 L110,671.918 L110,665.2617 L108.2813,665.2617 Q107.6719,665.2617 107.4063,665.0273 Q107.1406,664.793 107.1406,664.4023 Q107.1406,664.0273 107.4063,663.793 Q107.6719,663.5586 108.2813,663.5586 L113.4219,663.5586 Q114.0313,663.5586 114.2969,663.793 Q114.5625,664.0273 114.5625,664.4023 Q114.5625,664.793 114.2969,665.0273 Q114.0313,665.2617 113.4219,665.2617 L111.7031,665.2617 Z " fill="#000000"/><text fill="#000000" font-family="sans-serif" font-size="14" font-style="italic" lengthAdjust="spacing" textLength="36" x="131.25" y="674.418">Value</text><line style="stroke:#181818;stroke-width:0.5;" x1="39.5" x2="226.5" y1="684.6211" y2="684.6211"/><line style="stroke:#181818;stroke-width:0.5;" x1="39.5" x2="226.5" y1="692.6211" y2="692.6211"/><ellipse cx="49.5" cy="707.4316" fill="#84BE84" rx="3" ry="3" style="stroke:#038048;stroke-width:1.0;"/><text fill="#000000" font-family="sans-serif" font-size="14" lengthAdjust="spacing" textLength="163" x="58.5" y="711.7285">getValueWithUnit(): String</text></g><!--class Sensor--><g id="elem_Sensor"><rect codeLine="39" fill="#F1F1F1" height="85.2422" id="Sensor" rx="2.5" ry="2.5" style="stroke:#181818;stroke-width:0.5;" width="314" x="285" y="46.6211"/><ellipse cx="415.25" cy="62.6211" fill="#B4A7E5" rx="11" ry="11" style="stroke:#181818;stroke-width:1.0;"/><path d="M416.2031,59.2617 L416.2031,65.918 L417.9219,65.918 Q418.5313,65.918 418.7969,66.1523 Q419.0625,66.3867 419.0625,66.7773 Q419.0625,67.1523 418.7969,67.3867 Q418.5313,67.6211 417.9219,67.6211 L412.7813,67.6211 Q412.1719,67.6211 411.9063,67.3867 Q411.6406,67.1523 411.6406,66.7617 Q411.6406,66.3867 411.9063,66.1523 Q412.1719,65.918 412.7813,65.918 L414.5,65.918 L414.5,59.2617 L412.7813,59.2617 Q412.1719,59.2617 411.9063,59.0273 Q411.6406,58.793 411.6406,58.4023 Q411.6406,58.0273 411.9063,57.793 Q412.1719,57.5586 412.7813,57.5586 L417.9219,57.5586 Q418.5313,57.5586 418.7969,57.793 Q419.0625,58.0273 419.0625,58.4023 Q419.0625,58.793 418.7969,59.0273 Q418.5313,59.2617 417.9219,59.2617 L416.2031,59.2617 Z " fill="#000000"/><text fill="#000000" font-family="sans-serif" font-size="14" font-style="italic" lengthAdjust="spacing" textLength="45" x="435.75" y="68.418">Sensor</text><line style="stroke:#181818;stroke-width:0.5;" x1="286" x2="598" y1="78.6211" y2="78.6211"/><line style="stroke:#181818;stroke-width:0.5;" x1="286" x2="598" y1="86.6211" y2="86.6211"/><ellipse cx="296" cy="101.4316" fill="#84BE84" rx="3" ry="3" style="stroke:#038048;stroke-width:1.0;"/><text fill="#000000" font-family="sans-serif" font-size="14" lengthAdjust="spacing" textLength="156" x="305" y="105.7285">getSensorName(): String</text><ellipse cx="296" cy="120.0527" fill="#84BE84" rx="3" ry="3" style="stroke:#038048;stroke-width:1.0;"/><text fill="#000000" font-family="sans-serif" font-size="14" lengthAdjust="spacing" textLength="288" x="305" y="124.3496">getSensorFunctionality(): SensorFunctionality</text></g><!--reverse link SensorSpecificTime to BinaryStatusSensor--><g id="link_SensorSpecificTime_BinaryStatusSensor"><path d="M442,277.9111 C442,303.8011 442,323.1911 442,357.6911 " fill="none" id="SensorSpecificTime-backto-BinaryStatusSensor" style="stroke:#181818;stroke-width:1.0;stroke-dasharray:7.0,7.0;"/><polygon fill="none" points="442,259.9111,436,277.9111,448,277.9111,442,259.9111" style="stroke:#181818;stroke-width:1.0;"/></g><!--reverse link Value to BinaryStatusValue--><g id="link_Value_BinaryStatusValue"><path d="M193.0743,730.3192 C224.3943,752.8392 252.04,772.7111 287.8,798.4211 " fill="none" id="Value-backto-BinaryStatusValue" style="stroke:#181818;stroke-width:1.0;stroke-dasharray:7.0,7.0;"/><polygon fill="none" points="178.46,719.8111,189.5716,735.1907,196.5771,725.4478,178.46,719.8111" style="stroke:#181818;stroke-width:1.0;"/></g><!--reverse link Sensor to SensorSpecificTime--><g id="link_Sensor_SensorSpecificTime"><path d="M442,149.7311 C442,169.2511 442,174.1811 442,192.4311 " fill="none" id="Sensor-backto-SensorSpecificTime" style="stroke:#181818;stroke-width:1.0;"/><polygon fill="none" points="442,131.7311,436,149.7311,448,149.7311,442,131.7311" style="stroke:#181818;stroke-width:1.0;"/></g><!--link FactoryValue to BinaryStatusValue--><g id="link_FactoryValue_BinaryStatusValue"><path codeLine="52" d="M359,720.0011 C359,742.5411 359,766.8811 359,792.5411 " fill="none" id="FactoryValue-to-BinaryStatusValue" style="stroke:#181818;stroke-width:1.0;stroke-dasharray:7.0,7.0;"/><polygon fill="#181818" points="359,798.5411,363,789.5411,359,793.5411,355,789.5411,359,798.5411" style="stroke:#181818;stroke-width:1.0;"/><text fill="#000000" font-family="sans-serif" font-size="13" lengthAdjust="spacing" textLength="57" x="360" y="764.6494">&#171;creates&#187;</text></g><!--link BinaryStatusSensor to FactoryValue--><g id="link_BinaryStatusSensor_FactoryValue"><path codeLine="53" d="M411.09,536.3711 C396.9,576.9011 380.93,622.5011 370.46,652.4011 " fill="none" id="BinaryStatusSensor-FactoryValue" style="stroke:#181818;stroke-width:1.0;"/><text fill="#000000" font-family="sans-serif" font-size="13" lengthAdjust="spacing" textLength="21" x="386" y="618.6494">has</text></g><!--link BinaryStatusSensor to SensorFunctionality--><g id="link_BinaryStatusSensor_SensorFunctionality"><path codeLine="54" d="M599.22,447.1211 C619.04,447.1211 638.6,447.1211 656.43,447.1211 " fill="none" id="BinaryStatusSensor-SensorFunctionality" style="stroke:#181818;stroke-width:1.0;"/><text fill="#000000" font-family="sans-serif" font-size="13" lengthAdjust="spacing" textLength="21" x="617.25" y="440.1494">has</text></g><!--link BinaryStatusValue to BinaryStatusSensor--><g id="link_BinaryStatusValue_BinaryStatusSensor"><path codeLine="55" d="M419.31,798.3911 C440.52,776.5511 461.84,749.2611 473,719.6211 C495.06,661.0111 486.13,590.6611 472.3,536.2611 " fill="none" id="BinaryStatusValue-BinaryStatusSensor" style="stroke:#181818;stroke-width:1.0;"/><text fill="#000000" font-family="sans-serif" font-size="13" lengthAdjust="spacing" textLength="21" x="486" y="691.6494">has</text></g><!--SRC=[hLDDRvj04BtlhvXR4mLizLG9HPP8ZHEa12mMr_B9skAnlH8iY1tiMbR_UzTiOeE2gXvwsvbvy_NUB4dA4HRywpSFV0tpkjmq6K5yL5Wx4C9HA0BQ8-YJ9Yo0IjYB0u80EbK8vHOqAbtM1YC8TlA0si99KAClSG4_fHBr2VHHKhQ7kpWQnxFP_OXzsHDLsXkFgznqQOfyb9N5ECk5rkv6Ybqj2iPOQyDJMuEtLRdjA8ignm8LQR0UNc4cjp9BPO5dvjh18b6W1vnggNRCtJOg8ragaKiwUUzviwxJO4H6PNtw8VB6PCuw5dCFrccjXnqIlpQvkx-skGLwfLl4GCSBlAquw-_GgVZxWuVkE71c3rcDWh0r-wcN55HDCTJH9AR1spn8_7IH10vxMRo5qp1TEUmfZFnajUQfYN27yU_-Qx2UnpnCmpXos3ACfiQxY9AG1-s31wd3fi7IWCB8F7dywYVhn9-6lasPnyiWSLWG1SdpwhP7Lq-xJ4VErc4Kt9ZLFBZiOywfg9ZRA4azbblaKj9-OI9zlgGYh8sM-Cx0XQt_9DX0zIxvWBy8rURZBC__AF2jv5NTls_OkuNHQFAPL0yU7-s5wCc43VmXr-rTb6S-jnx43V7m6Mr7SOT-gmN_0G00]--></g></svg>