<?xml version="1.0" encoding="us-ascii" standalone="no"?><svg xmlns="http://www.w3.org/2000/svg" xmlns:xlink="http://www.w3.org/1999/xlink" contentStyleType="text/css" height="928px" preserveAspectRatio="none" style="width:870px;height:928px;background:#FFFFFF;" version="1.1" viewBox="0 0 870 928" width="870px" zoomAndPan="magnify"><defs/><g><text fill="#000000" font-family="sans-serif" font-size="14" font-weight="bold" lengthAdjust="spacing" textLength="502" x="177" y="25.1074">US01: As an Administrator, I want to configure the location of the house.</text><!--class ConfigureHouseLocationController--><g id="elem_ConfigureHouseLocationController"><rect codeLine="4" fill="#F1F1F1" height="85.2422" id="ConfigureHouseLocationController" rx="2.5" ry="2.5" style="stroke:#181818;stroke-width:0.5;" width="415" x="227.5" y="158.6211"/><ellipse cx="321.75" cy="174.6211" fill="#ADD1B2" rx="11" ry="11" style="stroke:#181818;stroke-width:1.0;"/><path d="M324.5156,170.4961 Q324.6719,170.2773 324.8594,170.168 Q325.0469,170.0586 325.2656,170.0586 Q325.6406,170.0586 325.875,170.3242 Q326.1094,170.5742 326.1094,171.1836 L326.1094,172.6367 Q326.1094,173.2461 325.875,173.5117 Q325.6406,173.7773 325.2656,173.7773 Q324.9219,173.7773 324.7188,173.5742 Q324.5156,173.3867 324.4063,172.8711 Q324.3594,172.5117 324.1719,172.3242 Q323.8438,171.9492 323.2344,171.7305 Q322.625,171.5117 322,171.5117 Q321.2344,171.5117 320.5938,171.8398 Q319.9688,172.168 319.4688,172.918 Q318.9844,173.668 318.9844,174.6992 L318.9844,175.793 Q318.9844,177.0273 319.875,177.8555 Q320.7656,178.668 322.3594,178.668 Q323.2969,178.668 323.9531,178.418 Q324.3438,178.2617 324.7656,177.8242 Q325.0313,177.5586 325.1719,177.4805 Q325.3281,177.4023 325.5313,177.4023 Q325.8594,177.4023 326.1094,177.668 Q326.375,177.918 326.375,178.2617 Q326.375,178.6055 326.0313,179.0117 Q325.5313,179.5898 324.7344,179.918 Q323.6563,180.3711 322.3594,180.3711 Q320.8438,180.3711 319.6406,179.7461 Q318.6563,179.2461 317.9688,178.1836 Q317.2813,177.1055 317.2813,175.8242 L317.2813,174.668 Q317.2813,173.3398 317.8906,172.1992 Q318.5156,171.043 319.6094,170.4336 Q320.7031,169.8086 321.9375,169.8086 Q322.6719,169.8086 323.3125,169.9805 Q323.9688,170.1367 324.5156,170.4961 Z " fill="#000000"/><text fill="#000000" font-family="sans-serif" font-size="14" lengthAdjust="spacing" textLength="218" x="342.25" y="180.418">ConfigureHouseLocationController</text><line style="stroke:#181818;stroke-width:0.5;" x1="228.5" x2="641.5" y1="190.6211" y2="190.6211"/><rect fill="none" height="6" style="stroke:#C82930;stroke-width:1.0;" width="6" x="235.5" y="202.4316"/><text fill="#000000" font-family="sans-serif" font-size="14" lengthAdjust="spacing" textLength="87" x="247.5" y="209.7285">house: House</text><line style="stroke:#181818;stroke-width:0.5;" x1="228.5" x2="641.5" y1="217.2422" y2="217.2422"/><ellipse cx="238.5" cy="232.0527" fill="#84BE84" rx="3" ry="3" style="stroke:#038048;stroke-width:1.0;"/><text fill="#000000" font-family="sans-serif" font-size="14" lengthAdjust="spacing" textLength="389" x="247.5" y="236.3496">configureHouseLocation(LocationDTO locationDTO): boolean</text></g><!--class LocationDTO--><g id="elem_LocationDTO"><rect codeLine="9" fill="#F1F1F1" height="308.6953" id="LocationDTO" rx="2.5" ry="2.5" style="stroke:#181818;stroke-width:0.5;" width="181" x="677.5" y="46.6211"/><ellipse cx="721.75" cy="62.6211" fill="#ADD1B2" rx="11" ry="11" style="stroke:#181818;stroke-width:1.0;"/><path d="M724.5156,58.4961 Q724.6719,58.2773 724.8594,58.168 Q725.0469,58.0586 725.2656,58.0586 Q725.6406,58.0586 725.875,58.3242 Q726.1094,58.5742 726.1094,59.1836 L726.1094,60.6367 Q726.1094,61.2461 725.875,61.5117 Q725.6406,61.7773 725.2656,61.7773 Q724.9219,61.7773 724.7188,61.5742 Q724.5156,61.3867 724.4063,60.8711 Q724.3594,60.5117 724.1719,60.3242 Q723.8438,59.9492 723.2344,59.7305 Q722.625,59.5117 722,59.5117 Q721.2344,59.5117 720.5938,59.8398 Q719.9688,60.168 719.4688,60.918 Q718.9844,61.668 718.9844,62.6992 L718.9844,63.793 Q718.9844,65.0273 719.875,65.8555 Q720.7656,66.668 722.3594,66.668 Q723.2969,66.668 723.9531,66.418 Q724.3438,66.2617 724.7656,65.8242 Q725.0313,65.5586 725.1719,65.4805 Q725.3281,65.4023 725.5313,65.4023 Q725.8594,65.4023 726.1094,65.668 Q726.375,65.918 726.375,66.2617 Q726.375,66.6055 726.0313,67.0117 Q725.5313,67.5898 724.7344,67.918 Q723.6563,68.3711 722.3594,68.3711 Q720.8438,68.3711 719.6406,67.7461 Q718.6563,67.2461 717.9688,66.1836 Q717.2813,65.1055 717.2813,63.8242 L717.2813,62.668 Q717.2813,61.3398 717.8906,60.1992 Q718.5156,59.043 719.6094,58.4336 Q720.7031,57.8086 721.9375,57.8086 Q722.6719,57.8086 723.3125,57.9805 Q723.9688,58.1367 724.5156,58.4961 Z " fill="#000000"/><text fill="#000000" font-family="sans-serif" font-size="14" lengthAdjust="spacing" textLength="84" x="742.25" y="68.418">LocationDTO</text><line style="stroke:#181818;stroke-width:0.5;" x1="678.5" x2="857.5" y1="78.6211" y2="78.6211"/><rect fill="none" height="6" style="stroke:#C82930;stroke-width:1.0;" width="6" x="685.5" y="90.4316"/><text fill="#000000" font-family="sans-serif" font-size="14" lengthAdjust="spacing" textLength="81" x="697.5" y="97.7285">street: String</text><rect fill="none" height="6" style="stroke:#C82930;stroke-width:1.0;" width="6" x="685.5" y="109.0527"/><text fill="#000000" font-family="sans-serif" font-size="14" lengthAdjust="spacing" textLength="123" x="697.5" y="116.3496">doorNumber: String</text><rect fill="none" height="6" style="stroke:#C82930;stroke-width:1.0;" width="6" x="685.5" y="127.6738"/><text fill="#000000" font-family="sans-serif" font-size="14" lengthAdjust="spacing" textLength="96" x="697.5" y="134.9707">zipCode: String</text><rect fill="none" height="6" style="stroke:#C82930;stroke-width:1.0;" width="6" x="685.5" y="146.2949"/><text fill="#000000" font-family="sans-serif" font-size="14" lengthAdjust="spacing" textLength="66" x="697.5" y="153.5918">city: String</text><rect fill="none" height="6" style="stroke:#C82930;stroke-width:1.0;" width="6" x="685.5" y="164.916"/><text fill="#000000" font-family="sans-serif" font-size="14" lengthAdjust="spacing" textLength="92" x="697.5" y="172.2129">country: String</text><rect fill="none" height="6" style="stroke:#C82930;stroke-width:1.0;" width="6" x="685.5" y="183.5371"/><text fill="#000000" font-family="sans-serif" font-size="14" lengthAdjust="spacing" textLength="97" x="697.5" y="190.834">latitude: double</text><rect fill="none" height="6" style="stroke:#C82930;stroke-width:1.0;" width="6" x="685.5" y="202.1582"/><text fill="#000000" font-family="sans-serif" font-size="14" lengthAdjust="spacing" textLength="109" x="697.5" y="209.4551">longitude: double</text><line style="stroke:#181818;stroke-width:0.5;" x1="678.5" x2="857.5" y1="216.9688" y2="216.9688"/><ellipse cx="688.5" cy="231.7793" fill="#84BE84" rx="3" ry="3" style="stroke:#038048;stroke-width:1.0;"/><text fill="#000000" font-family="sans-serif" font-size="14" lengthAdjust="spacing" textLength="113" x="697.5" y="236.0762">getStreet(): String</text><ellipse cx="688.5" cy="250.4004" fill="#84BE84" rx="3" ry="3" style="stroke:#038048;stroke-width:1.0;"/><text fill="#000000" font-family="sans-serif" font-size="14" lengthAdjust="spacing" textLength="155" x="697.5" y="254.6973">getDoorNumber(): String</text><ellipse cx="688.5" cy="269.0215" fill="#84BE84" rx="3" ry="3" style="stroke:#038048;stroke-width:1.0;"/><text fill="#000000" font-family="sans-serif" font-size="14" lengthAdjust="spacing" textLength="128" x="697.5" y="273.3184">getZipCode(): String</text><ellipse cx="688.5" cy="287.6426" fill="#84BE84" rx="3" ry="3" style="stroke:#038048;stroke-width:1.0;"/><text fill="#000000" font-family="sans-serif" font-size="14" lengthAdjust="spacing" textLength="99" x="697.5" y="291.9395">getCity(): String</text><ellipse cx="688.5" cy="306.2637" fill="#84BE84" rx="3" ry="3" style="stroke:#038048;stroke-width:1.0;"/><text fill="#000000" font-family="sans-serif" font-size="14" lengthAdjust="spacing" textLength="125" x="697.5" y="310.5605">getCountry(): String</text><ellipse cx="688.5" cy="324.8848" fill="#84BE84" rx="3" ry="3" style="stroke:#038048;stroke-width:1.0;"/><text fill="#000000" font-family="sans-serif" font-size="14" lengthAdjust="spacing" textLength="132" x="697.5" y="329.1816">getLatitude(): double</text><ellipse cx="688.5" cy="343.5059" fill="#84BE84" rx="3" ry="3" style="stroke:#038048;stroke-width:1.0;"/><text fill="#000000" font-family="sans-serif" font-size="14" lengthAdjust="spacing" textLength="144" x="697.5" y="347.8027">getLongitude(): double</text></g><!--class House--><g id="elem_House"><rect codeLine="26" fill="#F1F1F1" height="103.8633" id="House" rx="2.5" ry="2.5" style="stroke:#181818;stroke-width:0.5;" width="856" x="7" y="415.6211"/><ellipse cx="410.75" cy="431.6211" fill="#ADD1B2" rx="11" ry="11" style="stroke:#181818;stroke-width:1.0;"/><path d="M413.5156,427.4961 Q413.6719,427.2773 413.8594,427.168 Q414.0469,427.0586 414.2656,427.0586 Q414.6406,427.0586 414.875,427.3242 Q415.1094,427.5742 415.1094,428.1836 L415.1094,429.6367 Q415.1094,430.2461 414.875,430.5117 Q414.6406,430.7773 414.2656,430.7773 Q413.9219,430.7773 413.7188,430.5742 Q413.5156,430.3867 413.4063,429.8711 Q413.3594,429.5117 413.1719,429.3242 Q412.8438,428.9492 412.2344,428.7305 Q411.625,428.5117 411,428.5117 Q410.2344,428.5117 409.5938,428.8398 Q408.9688,429.168 408.4688,429.918 Q407.9844,430.668 407.9844,431.6992 L407.9844,432.793 Q407.9844,434.0273 408.875,434.8555 Q409.7656,435.668 411.3594,435.668 Q412.2969,435.668 412.9531,435.418 Q413.3438,435.2617 413.7656,434.8242 Q414.0313,434.5586 414.1719,434.4805 Q414.3281,434.4023 414.5313,434.4023 Q414.8594,434.4023 415.1094,434.668 Q415.375,434.918 415.375,435.2617 Q415.375,435.6055 415.0313,436.0117 Q414.5313,436.5898 413.7344,436.918 Q412.6563,437.3711 411.3594,437.3711 Q409.8438,437.3711 408.6406,436.7461 Q407.6563,436.2461 406.9688,435.1836 Q406.2813,434.1055 406.2813,432.8242 L406.2813,431.668 Q406.2813,430.3398 406.8906,429.1992 Q407.5156,428.043 408.6094,427.4336 Q409.7031,426.8086 410.9375,426.8086 Q411.6719,426.8086 412.3125,426.9805 Q412.9688,427.1367 413.5156,427.4961 Z " fill="#000000"/><text fill="#000000" font-family="sans-serif" font-size="14" lengthAdjust="spacing" textLength="40" x="431.25" y="437.418">House</text><line style="stroke:#181818;stroke-width:0.5;" x1="8" x2="862" y1="447.6211" y2="447.6211"/><rect fill="none" height="6" style="stroke:#C82930;stroke-width:1.0;" width="6" x="15" y="459.4316"/><text fill="#000000" font-family="sans-serif" font-size="14" lengthAdjust="spacing" textLength="111" x="27" y="466.7285">location: Location</text><rect fill="none" height="6" style="stroke:#C82930;stroke-width:1.0;" width="6" x="15" y="478.0527"/><text fill="#000000" font-family="sans-serif" font-size="14" lengthAdjust="spacing" textLength="121" x="27" y="485.3496">roomList: RoomList</text><line style="stroke:#181818;stroke-width:0.5;" x1="8" x2="862" y1="492.8633" y2="492.8633"/><ellipse cx="18" cy="507.6738" fill="#84BE84" rx="3" ry="3" style="stroke:#038048;stroke-width:1.0;"/><text fill="#000000" font-family="sans-serif" font-size="14" lengthAdjust="spacing" textLength="830" x="27" y="511.9707">editLocation(String street, String doorNumber, String zipCode, String city, String country, double latitude, double longitude): boolean</text></g><!--class Location--><g id="elem_Location"><rect codeLine="32" fill="#F1F1F1" height="178.3477" id="Location" rx="2.5" ry="2.5" style="stroke:#181818;stroke-width:0.5;" width="246" x="312" y="579.6211"/><ellipse cx="403.75" cy="595.6211" fill="#ADD1B2" rx="11" ry="11" style="stroke:#181818;stroke-width:1.0;"/><path d="M406.5156,591.4961 Q406.6719,591.2773 406.8594,591.168 Q407.0469,591.0586 407.2656,591.0586 Q407.6406,591.0586 407.875,591.3242 Q408.1094,591.5742 408.1094,592.1836 L408.1094,593.6367 Q408.1094,594.2461 407.875,594.5117 Q407.6406,594.7773 407.2656,594.7773 Q406.9219,594.7773 406.7188,594.5742 Q406.5156,594.3867 406.4063,593.8711 Q406.3594,593.5117 406.1719,593.3242 Q405.8438,592.9492 405.2344,592.7305 Q404.625,592.5117 404,592.5117 Q403.2344,592.5117 402.5938,592.8398 Q401.9688,593.168 401.4688,593.918 Q400.9844,594.668 400.9844,595.6992 L400.9844,596.793 Q400.9844,598.0273 401.875,598.8555 Q402.7656,599.668 404.3594,599.668 Q405.2969,599.668 405.9531,599.418 Q406.3438,599.2617 406.7656,598.8242 Q407.0313,598.5586 407.1719,598.4805 Q407.3281,598.4023 407.5313,598.4023 Q407.8594,598.4023 408.1094,598.668 Q408.375,598.918 408.375,599.2617 Q408.375,599.6055 408.0313,600.0117 Q407.5313,600.5898 406.7344,600.918 Q405.6563,601.3711 404.3594,601.3711 Q402.8438,601.3711 401.6406,600.7461 Q400.6563,600.2461 399.9688,599.1836 Q399.2813,598.1055 399.2813,596.8242 L399.2813,595.668 Q399.2813,594.3398 399.8906,593.1992 Q400.5156,592.043 401.6094,591.4336 Q402.7031,590.8086 403.9375,590.8086 Q404.6719,590.8086 405.3125,590.9805 Q405.9688,591.1367 406.5156,591.4961 Z " fill="#000000"/><text fill="#000000" font-family="sans-serif" font-size="14" lengthAdjust="spacing" textLength="54" x="424.25" y="601.418">Location</text><line style="stroke:#181818;stroke-width:0.5;" x1="313" x2="557" y1="611.6211" y2="611.6211"/><rect fill="none" height="6" style="stroke:#C82930;stroke-width:1.0;" width="6" x="320" y="623.4316"/><text fill="#000000" font-family="sans-serif" font-size="14" lengthAdjust="spacing" textLength="81" x="332" y="630.7285">street: String</text><rect fill="none" height="6" style="stroke:#C82930;stroke-width:1.0;" width="6" x="320" y="642.0527"/><text fill="#000000" font-family="sans-serif" font-size="14" lengthAdjust="spacing" textLength="123" x="332" y="649.3496">doorNumber: String</text><rect fill="none" height="6" style="stroke:#C82930;stroke-width:1.0;" width="6" x="320" y="660.6738"/><text fill="#000000" font-family="sans-serif" font-size="14" lengthAdjust="spacing" textLength="96" x="332" y="667.9707">zipCode: String</text><rect fill="none" height="6" style="stroke:#C82930;stroke-width:1.0;" width="6" x="320" y="679.2949"/><text fill="#000000" font-family="sans-serif" font-size="14" lengthAdjust="spacing" textLength="66" x="332" y="686.5918">city: String</text><rect fill="none" height="6" style="stroke:#C82930;stroke-width:1.0;" width="6" x="320" y="697.916"/><text fill="#000000" font-family="sans-serif" font-size="14" lengthAdjust="spacing" textLength="92" x="332" y="705.2129">country: String</text><rect fill="none" height="6" style="stroke:#C82930;stroke-width:1.0;" width="6" x="320" y="716.5371"/><text fill="#000000" font-family="sans-serif" font-size="14" lengthAdjust="spacing" textLength="128" x="332" y="723.834">gpsCode: GPSCode</text><line style="stroke:#181818;stroke-width:0.5;" x1="313" x2="557" y1="731.3477" y2="731.3477"/><rect fill="#F24D5C" height="6" style="stroke:#C82930;stroke-width:1.0;" width="6" x="320" y="743.1582"/><text fill="#000000" font-family="sans-serif" font-size="14" lengthAdjust="spacing" textLength="220" x="332" y="750.4551">validLocationArguments(): boolean</text></g><!--class GPSCode--><g id="elem_GPSCode"><rect codeLine="42" fill="#F1F1F1" height="103.8633" id="GPSCode" rx="2.5" ry="2.5" style="stroke:#181818;stroke-width:0.5;" width="255" x="307.5" y="817.6211"/><ellipse cx="399.25" cy="833.6211" fill="#ADD1B2" rx="11" ry="11" style="stroke:#181818;stroke-width:1.0;"/><path d="M402.0156,829.4961 Q402.1719,829.2773 402.3594,829.168 Q402.5469,829.0586 402.7656,829.0586 Q403.1406,829.0586 403.375,829.3242 Q403.6094,829.5742 403.6094,830.1836 L403.6094,831.6367 Q403.6094,832.2461 403.375,832.5117 Q403.1406,832.7773 402.7656,832.7773 Q402.4219,832.7773 402.2188,832.5742 Q402.0156,832.3867 401.9063,831.8711 Q401.8594,831.5117 401.6719,831.3242 Q401.3438,830.9492 400.7344,830.7305 Q400.125,830.5117 399.5,830.5117 Q398.7344,830.5117 398.0938,830.8398 Q397.4688,831.168 396.9688,831.918 Q396.4844,832.668 396.4844,833.6992 L396.4844,834.793 Q396.4844,836.0273 397.375,836.8555 Q398.2656,837.668 399.8594,837.668 Q400.7969,837.668 401.4531,837.418 Q401.8438,837.2617 402.2656,836.8242 Q402.5313,836.5586 402.6719,836.4805 Q402.8281,836.4023 403.0313,836.4023 Q403.3594,836.4023 403.6094,836.668 Q403.875,836.918 403.875,837.2617 Q403.875,837.6055 403.5313,838.0117 Q403.0313,838.5898 402.2344,838.918 Q401.1563,839.3711 399.8594,839.3711 Q398.3438,839.3711 397.1406,838.7461 Q396.1563,838.2461 395.4688,837.1836 Q394.7813,836.1055 394.7813,834.8242 L394.7813,833.668 Q394.7813,832.3398 395.3906,831.1992 Q396.0156,830.043 397.1094,829.4336 Q398.2031,828.8086 399.4375,828.8086 Q400.1719,828.8086 400.8125,828.9805 Q401.4688,829.1367 402.0156,829.4961 Z " fill="#000000"/><text fill="#000000" font-family="sans-serif" font-size="14" lengthAdjust="spacing" textLength="63" x="419.75" y="839.418">GPSCode</text><line style="stroke:#181818;stroke-width:0.5;" x1="308.5" x2="561.5" y1="849.6211" y2="849.6211"/><rect fill="none" height="6" style="stroke:#C82930;stroke-width:1.0;" width="6" x="315.5" y="861.4316"/><text fill="#000000" font-family="sans-serif" font-size="14" lengthAdjust="spacing" textLength="97" x="327.5" y="868.7285">latitude: double</text><rect fill="none" height="6" style="stroke:#C82930;stroke-width:1.0;" width="6" x="315.5" y="880.0527"/><text fill="#000000" font-family="sans-serif" font-size="14" lengthAdjust="spacing" textLength="109" x="327.5" y="887.3496">longitude: double</text><line style="stroke:#181818;stroke-width:0.5;" x1="308.5" x2="561.5" y1="894.8633" y2="894.8633"/><rect fill="#F24D5C" height="6" style="stroke:#C82930;stroke-width:1.0;" width="6" x="315.5" y="906.6738"/><text fill="#000000" font-family="sans-serif" font-size="14" lengthAdjust="spacing" textLength="229" x="327.5" y="913.9707">validGPSCodeArguments(): boolean</text></g><!--link ConfigureHouseLocationController to House--><g id="link_ConfigureHouseLocationController_House"><path codeLine="48" d="M435,243.7411 C435,290.1511 435,365.2511 435,415.2711 " fill="none" id="ConfigureHouseLocationController-House" style="stroke:#181818;stroke-width:1.0;"/></g><!--link ConfigureHouseLocationController to LocationDTO--><g id="link_ConfigureHouseLocationController_LocationDTO"><path codeLine="49" d="M642.8,201.1211 C654.21,201.1211 665.62,201.1211 677.03,201.1211 " fill="none" id="ConfigureHouseLocationController-LocationDTO" style="stroke:#181818;stroke-width:1.0;"/></g><!--reverse link House to Location--><g id="link_House_Location"><path codeLine="50" d="M435,531.8711 C435,550.0611 435,559.1011 435,579.4911 " fill="none" id="House-backto-Location" style="stroke:#181818;stroke-width:1.0;"/><polygon fill="none" points="435,519.8711,431,525.8711,435,531.8711,439,525.8711,435,519.8711" style="stroke:#181818;stroke-width:1.0;"/><text fill="#000000" font-family="sans-serif" font-size="13" lengthAdjust="spacing" textLength="7" x="427.5734" y="541.3294">1</text><text fill="#000000" font-family="sans-serif" font-size="13" lengthAdjust="spacing" textLength="22" x="412.0891" y="568.4321">0..1</text></g><!--reverse link Location to GPSCode--><g id="link_Location_GPSCode"><path codeLine="51" d="M435,769.7711 C435,790.1511 435,799.1711 435,817.3511 " fill="none" id="Location-backto-GPSCode" style="stroke:#181818;stroke-width:1.0;"/><polygon fill="#181818" points="435,757.7711,431,763.7711,435,769.7711,439,763.7711,435,757.7711" style="stroke:#181818;stroke-width:1.0;"/><text fill="#000000" font-family="sans-serif" font-size="13" lengthAdjust="spacing" textLength="7" x="427.7102" y="779.8837">1</text><text fill="#000000" font-family="sans-serif" font-size="13" lengthAdjust="spacing" textLength="7" x="427.5297" y="806.2422">1</text></g><!--SRC=[jLF1JiCm3BtdAwnTsDYwZMjlqoO1qWI8mOLRreOkKXfFgGi2nB-Jj4bQfi6uSAhzQZ-_l3WaIGbutCmlKbXKm3Kiyb9gMP7XX6O2r_3ADG4XPAYVPL4R0RGJe33Z9543FZVv3kjAJDdPZcXVfRFPNjcskbJJ3CjPfdXL9RdaXU4bOqqAoy1tvLhNdi-YP50fOU239Grh2aq56sT7EuOXM3tSHbas7gMmHLI2Q_OPPlPBBRqzfH2KmeQCr0LBSaHpKvTROJhiNUwNc8iEo2IzzJAihU0UeEm0gbr3ZlLM2OkWBhv3uqBGffaz7CLE1wwYW8CVJwsA0tHffHn2hPu3TEr5ERYdOHsKzV3eLMEoSobucaRxM68GoxNTaXJkVSJ68fSKBwKT3gt34wy5EeCZvFsDkREtIzhJJBmu2EPsG3Z1RxVzNrTTxAks_l9kumAMl70byp1sOOgw59gguJ5nlgSn-0yhqrBxff-OJpwf9F5lwNHb_wsmTXS65mD0Ip6OJwSsZDiGVNO5vwx0VeCdNm00]--></g></svg>