<?xml version="1.0" encoding="us-ascii" standalone="no"?><svg xmlns="http://www.w3.org/2000/svg" xmlns:xlink="http://www.w3.org/1999/xlink" contentStyleType="text/css" height="574px" preserveAspectRatio="none" style="width:1243px;height:574px;background:#FFFFFF;" version="1.1" viewBox="0 0 1243 574" width="1243px" zoomAndPan="magnify"><defs/><g><text fill="#000000" font-family="sans-serif" font-size="14" font-weight="bold" lengthAdjust="spacing" textLength="507" x="369" y="30.1074">US01 - As an Administrator, I want to configure the location of the house.</text><rect fill="#FFFFFF" height="416.4141" style="stroke:#181818;stroke-width:1.0;" width="10" x="333" y="111.5332"/><rect fill="#FFFFFF" height="334.541" style="stroke:#181818;stroke-width:1.0;" width="10" x="925" y="177.4063"/><rect fill="none" height="327.541" style="stroke:#000000;stroke-width:1.5;" width="1233" x="3" y="192.4063"/><line style="stroke:#181818;stroke-width:0.5;stroke-dasharray:5.0,5.0;" x1="338" x2="338" y1="78.2422" y2="536.9473"/><line style="stroke:#181818;stroke-width:0.5;stroke-dasharray:5.0,5.0;" x1="930" x2="930" y1="78.2422" y2="536.9473"/><line style="stroke:#181818;stroke-width:0.5;stroke-dasharray:5.0,5.0;" x1="1103" x2="1103" y1="243.5078" y2="536.9473"/><line style="stroke:#181818;stroke-width:0.5;stroke-dasharray:5.0,5.0;" x1="1190" x2="1190" y1="366.3418" y2="536.9473"/><rect fill="#E2E2F0" height="32.6211" rx="2.5" ry="2.5" style="stroke:#181818;stroke-width:0.5;" width="236" x="220" y="44.6211"/><text fill="#000000" font-family="sans-serif" font-size="14" lengthAdjust="spacing" textLength="222" x="227" y="66.7285">:ConfigureHouseLocationController</text><rect fill="#E2E2F0" height="32.6211" rx="2.5" ry="2.5" style="stroke:#181818;stroke-width:0.5;" width="236" x="220" y="535.9473"/><text fill="#000000" font-family="sans-serif" font-size="14" lengthAdjust="spacing" textLength="222" x="227" y="558.0547">:ConfigureHouseLocationController</text><rect fill="#E2E2F0" height="32.6211" rx="2.5" ry="2.5" style="stroke:#181818;stroke-width:0.5;" width="58" x="901" y="44.6211"/><text fill="#000000" font-family="sans-serif" font-size="14" lengthAdjust="spacing" textLength="44" x="908" y="66.7285">:House</text><rect fill="#E2E2F0" height="32.6211" rx="2.5" ry="2.5" style="stroke:#181818;stroke-width:0.5;" width="58" x="901" y="535.9473"/><text fill="#000000" font-family="sans-serif" font-size="14" lengthAdjust="spacing" textLength="44" x="908" y="558.0547">:House</text><rect fill="#E2E2F0" height="32.6211" rx="2.5" ry="2.5" style="stroke:#181818;stroke-width:0.5;" width="81" x="1063" y="535.9473"/><text fill="#000000" font-family="sans-serif" font-size="14" lengthAdjust="spacing" textLength="67" x="1070" y="558.0547">:GPSCode</text><rect fill="#E2E2F0" height="32.6211" rx="2.5" ry="2.5" style="stroke:#181818;stroke-width:0.5;" width="72" x="1154" y="535.9473"/><text fill="#000000" font-family="sans-serif" font-size="14" lengthAdjust="spacing" textLength="58" x="1161" y="558.0547">:Location</text><rect fill="#FFFFFF" height="416.4141" style="stroke:#181818;stroke-width:1.0;" width="10" x="333" y="111.5332"/><rect fill="#FFFFFF" height="334.541" style="stroke:#181818;stroke-width:1.0;" width="10" x="925" y="177.4063"/><polygon fill="#181818" points="321,107.5332,331,111.5332,321,115.5332,325,111.5332" style="stroke:#181818;stroke-width:1.0;"/><line style="stroke:#181818;stroke-width:1.0;" x1="0" x2="327" y1="111.5332" y2="111.5332"/><text fill="#000000" font-family="sans-serif" font-size="13" font-weight="bold" lengthAdjust="spacing" textLength="7" x="7" y="106.2705">1</text><text fill="#000000" font-family="sans-serif" font-size="13" lengthAdjust="spacing" textLength="296" x="18" y="106.2705">configureHouseLocation(LocationDTO locationDTO)</text><polygon fill="#181818" points="913,173.4063,923,177.4063,913,181.4063,917,177.4063" style="stroke:#181818;stroke-width:1.0;"/><line style="stroke:#181818;stroke-width:1.0;" x1="343" x2="919" y1="177.4063" y2="177.4063"/><text fill="#000000" font-family="sans-serif" font-size="13" font-weight="bold" lengthAdjust="spacing" textLength="7" x="350" y="154.8525">2</text><text fill="#000000" font-family="sans-serif" font-size="13" lengthAdjust="spacing" textLength="471" x="361" y="137.5615">editLocation(String locationDTO.getStreet(), String locationDTO.getDoorNumber(),</text><text fill="#000000" font-family="sans-serif" font-size="13" lengthAdjust="spacing" textLength="544" x="365" y="154.8525">String locationDTO.getZipCode(), String locationDTO.getCity, String locationDTO.getCountry(),</text><text fill="#000000" font-family="sans-serif" font-size="13" lengthAdjust="spacing" textLength="400" x="365" y="172.1436">double locationDTO.getLatitude(), double locationDTO.getLongitude())</text><path d="M3,192.4063 L64,192.4063 L64,201.6973 L54,211.6973 L3,211.6973 L3,192.4063 " fill="#EEEEEE" style="stroke:#000000;stroke-width:1.5;"/><rect fill="none" height="327.541" style="stroke:#000000;stroke-width:1.5;" width="1233" x="3" y="192.4063"/><text fill="#000000" font-family="sans-serif" font-size="13" font-weight="bold" lengthAdjust="spacing" textLength="16" x="18" y="207.4346">alt</text><text fill="#000000" font-family="sans-serif" font-size="11" font-weight="bold" lengthAdjust="spacing" textLength="175" x="79" y="206.2764">[GPSCode attributes are invalid]</text><polygon fill="#181818" points="1051,230.9883,1061,234.9883,1051,238.9883,1055,234.9883" style="stroke:#181818;stroke-width:1.0;"/><line style="stroke:#181818;stroke-width:1.0;stroke-dasharray:2.0,2.0;" x1="935" x2="1057" y1="234.9883" y2="234.9883"/><text fill="#000000" font-family="sans-serif" font-size="13" font-weight="bold" lengthAdjust="spacing" textLength="7" x="942" y="229.7256">3</text><text fill="#000000" font-family="sans-serif" font-size="13" lengthAdjust="spacing" textLength="93" x="953" y="229.7256">request creation</text><rect fill="#E2E2F0" height="32.6211" rx="2.5" ry="2.5" style="stroke:#181818;stroke-width:0.5;" width="81" x="1063" y="211.6973"/><text fill="#000000" font-family="sans-serif" font-size="14" lengthAdjust="spacing" textLength="67" x="1070" y="233.8047">:GPSCode</text><polygon fill="#181818" points="354,274.6094,344,278.6094,354,282.6094,350,278.6094" style="stroke:#181818;stroke-width:1.0;"/><line style="stroke:#181818;stroke-width:1.0;stroke-dasharray:2.0,2.0;" x1="348" x2="924" y1="278.6094" y2="278.6094"/><text fill="#000000" font-family="sans-serif" font-size="13" font-weight="bold" lengthAdjust="spacing" textLength="7" x="360" y="273.3467">4</text><text fill="#000000" font-family="sans-serif" font-size="13" lengthAdjust="spacing" textLength="64" x="371" y="273.3467">return false</text><polygon fill="#181818" points="11,305.9004,1,309.9004,11,313.9004,7,309.9004" style="stroke:#181818;stroke-width:1.0;"/><line style="stroke:#181818;stroke-width:1.0;stroke-dasharray:2.0,2.0;" x1="5" x2="332" y1="309.9004" y2="309.9004"/><text fill="#000000" font-family="sans-serif" font-size="13" font-weight="bold" lengthAdjust="spacing" textLength="7" x="17" y="304.6377">5</text><text fill="#000000" font-family="sans-serif" font-size="13" lengthAdjust="spacing" textLength="64" x="28" y="304.6377">return false</text><line style="stroke:#000000;stroke-width:1.0;stroke-dasharray:2.0,2.0;" x1="3" x2="1236" y1="318.9004" y2="318.9004"/><text fill="#000000" font-family="sans-serif" font-size="11" font-weight="bold" lengthAdjust="spacing" textLength="171" x="8" y="330.7705">[Location attributes are invalid]</text><polygon fill="#181818" points="1142,353.8223,1152,357.8223,1142,361.8223,1146,357.8223" style="stroke:#181818;stroke-width:1.0;"/><line style="stroke:#181818;stroke-width:1.0;stroke-dasharray:2.0,2.0;" x1="935" x2="1148" y1="357.8223" y2="357.8223"/><text fill="#000000" font-family="sans-serif" font-size="13" font-weight="bold" lengthAdjust="spacing" textLength="7" x="942" y="352.5596">6</text><text fill="#000000" font-family="sans-serif" font-size="13" lengthAdjust="spacing" textLength="93" x="953" y="352.5596">request creation</text><rect fill="#E2E2F0" height="32.6211" rx="2.5" ry="2.5" style="stroke:#181818;stroke-width:0.5;" width="72" x="1154" y="334.5313"/><text fill="#000000" font-family="sans-serif" font-size="14" lengthAdjust="spacing" textLength="58" x="1161" y="356.6387">:Location</text><polygon fill="#181818" points="354,397.4434,344,401.4434,354,405.4434,350,401.4434" style="stroke:#181818;stroke-width:1.0;"/><line style="stroke:#181818;stroke-width:1.0;stroke-dasharray:2.0,2.0;" x1="348" x2="924" y1="401.4434" y2="401.4434"/><text fill="#000000" font-family="sans-serif" font-size="13" font-weight="bold" lengthAdjust="spacing" textLength="7" x="360" y="396.1807">7</text><text fill="#000000" font-family="sans-serif" font-size="13" lengthAdjust="spacing" textLength="64" x="371" y="396.1807">return false</text><polygon fill="#181818" points="11,428.7344,1,432.7344,11,436.7344,7,432.7344" style="stroke:#181818;stroke-width:1.0;"/><line style="stroke:#181818;stroke-width:1.0;stroke-dasharray:2.0,2.0;" x1="5" x2="332" y1="432.7344" y2="432.7344"/><text fill="#000000" font-family="sans-serif" font-size="13" font-weight="bold" lengthAdjust="spacing" textLength="7" x="17" y="427.4717">8</text><text fill="#000000" font-family="sans-serif" font-size="13" lengthAdjust="spacing" textLength="64" x="28" y="427.4717">return false</text><line style="stroke:#000000;stroke-width:1.0;stroke-dasharray:2.0,2.0;" x1="3" x2="1236" y1="441.7344" y2="441.7344"/><text fill="#000000" font-family="sans-serif" font-size="11" font-weight="bold" lengthAdjust="spacing" textLength="238" x="8" y="453.6045">[GPSCode and Location attributes are valid]</text><polygon fill="#181818" points="354,476.6563,344,480.6563,354,484.6563,350,480.6563" style="stroke:#181818;stroke-width:1.0;"/><line style="stroke:#181818;stroke-width:1.0;stroke-dasharray:2.0,2.0;" x1="348" x2="924" y1="480.6563" y2="480.6563"/><text fill="#000000" font-family="sans-serif" font-size="13" font-weight="bold" lengthAdjust="spacing" textLength="7" x="360" y="475.3936">9</text><text fill="#000000" font-family="sans-serif" font-size="13" lengthAdjust="spacing" textLength="59" x="371" y="475.3936">return true</text><polygon fill="#181818" points="11,507.9473,1,511.9473,11,515.9473,7,511.9473" style="stroke:#181818;stroke-width:1.0;"/><line style="stroke:#181818;stroke-width:1.0;stroke-dasharray:2.0,2.0;" x1="5" x2="332" y1="511.9473" y2="511.9473"/><text fill="#000000" font-family="sans-serif" font-size="13" font-weight="bold" lengthAdjust="spacing" textLength="14" x="17" y="506.6846">10</text><text fill="#000000" font-family="sans-serif" font-size="13" lengthAdjust="spacing" textLength="59" x="35" y="506.6846">return true</text><!--SRC=[jL9DIyD04BtlhnXwiIrDgzSWWgIWGb6XUX4lssIQBcnsusQsqd_lPfDiQcYyUGcpcJVllVcuEX2LLRnQbP8hieLSfhfOLVXbKQKOPOBdXXUCaI29yBwzle48xYlW2kwpGYXHaU6apGAUuDin06b8jTgBt1e4EY18dN8IMe7U-_T1smgNZ75BMjbYXuQnaXiIgIXhWacSTFMFDNJJrhk_PBIKQ2R0Asyb8IC7jRx40tmqo3wyRXETDVas7Y0wDG_f7en5Tq4mxllxvM_Q1Uktbz2qYsUCfoIEdB3tt0NWU3r9382PeC2r9IDKVawpp97SNqIQpXPmER_MsZpxaTQOJpK2-n1btVauJoBeD9hJrktXr0faskua3Z4Rzo3RA8mWjCfRo8onVaBDqhYaRZt0oTdOMK9tS-wYX3foAJBcWH2v-NN0-Jm6KzzjHP0QR1RNm_hr6IHh5EovT5AtKJIMOkY-uGR6Z9n91EW_MGaZKTcehSPKXc6YuOR_q2TZdSPb0pvtnjTi29Nh_0S0]--></g></svg>