<?xml version="1.0" encoding="us-ascii" standalone="no"?><svg xmlns="http://www.w3.org/2000/svg" xmlns:xlink="http://www.w3.org/1999/xlink" contentStyleType="text/css" height="401px" preserveAspectRatio="none" style="width:648px;height:401px;background:#FFFFFF;" version="1.1" viewBox="0 0 648 401" width="648px" zoomAndPan="magnify"><defs/><g><g id="elem_User"><rect fill="#F1F1F1" height="61.4648" style="stroke:#181818;stroke-width:0.5;" width="50" x="160" y="170.2"/><text fill="#000000" font-family="sans-serif" font-size="14" lengthAdjust="spacing" textLength="31" x="169.5" y="185.7352">User</text><line style="stroke:#181818;stroke-width:0.5;" x1="161" x2="209" y1="190.6883" y2="190.6883"/><text fill="#000000" font-family="sans-serif" font-size="14" lengthAdjust="spacing" textLength="38" x="166" y="208.2234">name</text><text fill="#000000" font-family="sans-serif" font-size="14" lengthAdjust="spacing" textLength="27" x="166" y="224.7117">role</text></g><g id="elem_GPSCode"><rect fill="#F1F1F1" height="61.4648" style="stroke:#181818;stroke-width:0.5;" width="78" x="18" y="333.4"/><text fill="#000000" font-family="sans-serif" font-size="14" lengthAdjust="spacing" textLength="62" x="26" y="348.9352">GPSCode</text><line style="stroke:#181818;stroke-width:0.5;" x1="19" x2="95" y1="353.8883" y2="353.8883"/><text fill="#000000" font-family="sans-serif" font-size="14" lengthAdjust="spacing" textLength="52" x="24" y="371.4234">latitude</text><text fill="#000000" font-family="sans-serif" font-size="14" lengthAdjust="spacing" textLength="66" x="24" y="387.9117">longitude</text></g><g id="elem_Location"><rect fill="#F1F1F1" height="110.9297" style="stroke:#181818;stroke-width:0.5;" width="100" x="7" y="145.47"/><text fill="#000000" font-family="sans-serif" font-size="14" lengthAdjust="spacing" textLength="58" x="28" y="161.0052">Location</text><line style="stroke:#181818;stroke-width:0.5;" x1="8" x2="106" y1="165.9583" y2="165.9583"/><text fill="#000000" font-family="sans-serif" font-size="14" lengthAdjust="spacing" textLength="39" x="13" y="183.4934">street</text><text fill="#000000" font-family="sans-serif" font-size="14" lengthAdjust="spacing" textLength="88" x="13" y="199.9817">doorNumber</text><text fill="#000000" font-family="sans-serif" font-size="14" lengthAdjust="spacing" textLength="57" x="13" y="216.47">zipCode</text><text fill="#000000" font-family="sans-serif" font-size="14" lengthAdjust="spacing" textLength="23" x="13" y="232.9583">city</text><text fill="#000000" font-family="sans-serif" font-size="14" lengthAdjust="spacing" textLength="52" x="13" y="249.4466">country</text></g><g id="elem_House"><rect fill="#F1F1F1" height="36.4883" style="stroke:#181818;stroke-width:0.5;" width="57" x="33.5" y="19.49"/><text fill="#000000" font-family="sans-serif" font-size="14" lengthAdjust="spacing" textLength="43" x="40.5" y="35.0252">House</text><line style="stroke:#181818;stroke-width:0.5;" x1="34.5" x2="89.5" y1="39.9783" y2="39.9783"/></g><g id="elem_Floor"><rect fill="#F1F1F1" height="36.4883" style="stroke:#181818;stroke-width:0.5;" width="50" x="162" y="19.49"/><text fill="#000000" font-family="sans-serif" font-size="14" lengthAdjust="spacing" textLength="36" x="169" y="35.0252">Floor</text><line style="stroke:#181818;stroke-width:0.5;" x1="163" x2="211" y1="39.9783" y2="39.9783"/></g><g id="elem_Room"><rect fill="#F1F1F1" height="44.9766" style="stroke:#181818;stroke-width:0.5;" width="54" x="283" y="15.24"/><text fill="#000000" font-family="sans-serif" font-size="14" lengthAdjust="spacing" textLength="40" x="290" y="30.7752">Room</text><line style="stroke:#181818;stroke-width:0.5;" x1="284" x2="336" y1="35.7283" y2="35.7283"/><text fill="#000000" font-family="sans-serif" font-size="14" lengthAdjust="spacing" textLength="38" x="289" y="53.2634">name</text></g><g id="elem_Dimensions"><rect fill="#F1F1F1" height="77.9531" style="stroke:#181818;stroke-width:0.5;" width="94" x="263" y="161.95"/><text fill="#000000" font-family="sans-serif" font-size="14" lengthAdjust="spacing" textLength="80" x="270" y="177.4852">Dimensions</text><line style="stroke:#181818;stroke-width:0.5;" x1="264" x2="356" y1="182.4383" y2="182.4383"/><text fill="#000000" font-family="sans-serif" font-size="14" lengthAdjust="spacing" textLength="38" x="269" y="199.9734">width</text><text fill="#000000" font-family="sans-serif" font-size="14" lengthAdjust="spacing" textLength="44" x="269" y="216.4617">length</text><text fill="#000000" font-family="sans-serif" font-size="14" lengthAdjust="spacing" textLength="44" x="269" y="232.95">height</text></g><g id="elem_Device"><rect fill="#F1F1F1" height="61.4648" style="stroke:#181818;stroke-width:0.5;" width="58" x="425" y="7"/><text fill="#000000" font-family="sans-serif" font-size="14" lengthAdjust="spacing" textLength="44" x="432" y="22.5352">Device</text><line style="stroke:#181818;stroke-width:0.5;" x1="426" x2="482" y1="27.4883" y2="27.4883"/><text fill="#000000" font-family="sans-serif" font-size="14" lengthAdjust="spacing" textLength="38" x="431" y="45.0234">name</text><text fill="#000000" font-family="sans-serif" font-size="14" lengthAdjust="spacing" textLength="41" x="431" y="61.5117">status</text></g><g id="elem_Sensor"><rect fill="#F1F1F1" height="94.4414" style="stroke:#181818;stroke-width:0.5;" width="155" x="392.5" y="153.71"/><text fill="#000000" font-family="sans-serif" font-size="14" lengthAdjust="spacing" textLength="47" x="446.5" y="169.2452">Sensor</text><line style="stroke:#181818;stroke-width:0.5;" x1="393.5" x2="546.5" y1="174.1983" y2="174.1983"/><text fill="#000000" font-family="sans-serif" font-size="14" lengthAdjust="spacing" textLength="38" x="398.5" y="191.7334">name</text><text fill="#000000" font-family="sans-serif" font-size="14" lengthAdjust="spacing" textLength="29" x="398.5" y="208.2217">type</text><text fill="#000000" font-family="sans-serif" font-size="14" lengthAdjust="spacing" textLength="27" x="398.5" y="224.71">unit</text><text fill="#000000" font-family="sans-serif" font-size="14" lengthAdjust="spacing" textLength="143" x="398.5" y="241.1983">currentMeasurement</text></g><g id="elem_Actuator"><rect fill="#F1F1F1" height="36.4883" style="stroke:#181818;stroke-width:0.5;" width="73" x="569.5" y="19.49"/><text fill="#000000" font-family="sans-serif" font-size="14" lengthAdjust="spacing" textLength="59" x="576.5" y="35.0252">Actuator</text><line style="stroke:#181818;stroke-width:0.5;" x1="570.5" x2="641.5" y1="39.9783" y2="39.9783"/></g><!--link House to Floor--><g id="link_House_Floor"><path codeLine="52" d="M90.99,37.73 C112.34,37.73 141.09,37.73 161.55,37.73 " fill="none" id="House-Floor" style="stroke:#181818;stroke-width:1.0;"/><polygon fill="#000000" points="117.75,26.3853,108.7049,23.4463,108.7049,29.3242,117.75,26.3853" style="stroke:#000000;stroke-width:1.0;"/><text fill="#000000" font-family="sans-serif" font-size="13" lengthAdjust="spacing" textLength="22" x="121.75" y="31.2984">has</text><text fill="#000000" font-family="sans-serif" font-size="13" lengthAdjust="spacing" textLength="8" x="98.6189" y="33.5989">1</text><text fill="#000000" font-family="sans-serif" font-size="13" lengthAdjust="spacing" textLength="22" x="132.0322" y="51.8764">0..*</text></g><!--link House to Location--><g id="link_House_Location"><path codeLine="53" d="M59,56.44 C57.15,68.3 54.95,84.27 54,98.47 C52.99,113.59 53,130 53.45,145.13 " fill="none" id="House-Location" style="stroke:#181818;stroke-width:1.0;"/><polygon fill="#000000" points="58.6877,112.1155,62.1858,103.2716,56.3194,102.9045,58.6877,112.1155" style="stroke:#000000;stroke-width:1.0;"/><text fill="#000000" font-family="sans-serif" font-size="13" lengthAdjust="spacing" textLength="22" x="68" y="112.0384">has</text><text fill="#000000" font-family="sans-serif" font-size="13" lengthAdjust="spacing" textLength="8" x="49.0313" y="76.4224">1</text><text fill="#000000" font-family="sans-serif" font-size="13" lengthAdjust="spacing" textLength="24" x="27.4577" y="134.6073">0..1</text></g><!--link Location to GPSCode--><g id="link_Location_GPSCode"><path codeLine="54" d="M57,256.5 C57,282.08 57,311.57 57,333.04 " fill="none" id="Location-GPSCode" style="stroke:#181818;stroke-width:1.0;"/><polygon fill="#000000" points="62,300.0553,64.9389,291.0102,59.0611,291.0102,62,300.0553" style="stroke:#000000;stroke-width:1.0;"/><text fill="#000000" font-family="sans-serif" font-size="13" lengthAdjust="spacing" textLength="22" x="71" y="299.9684">has</text><text fill="#000000" font-family="sans-serif" font-size="13" lengthAdjust="spacing" textLength="8" x="48.5125" y="276.7733">1</text><text fill="#000000" font-family="sans-serif" font-size="13" lengthAdjust="spacing" textLength="8" x="48.175" y="322.6807">1</text></g><!--link Floor to Room--><g id="link_Floor_Room"><path codeLine="55" d="M212.49,37.73 C233.03,37.73 261.86,37.73 282.84,37.73 " fill="none" id="Floor-Room" style="stroke:#181818;stroke-width:1.0;"/><polygon fill="#000000" points="239,26.3853,229.9549,23.4463,229.9549,29.3242,239,26.3853" style="stroke:#000000;stroke-width:1.0;"/><text fill="#000000" font-family="sans-serif" font-size="13" lengthAdjust="spacing" textLength="22" x="243" y="31.2984">has</text><text fill="#000000" font-family="sans-serif" font-size="13" lengthAdjust="spacing" textLength="8" x="220.0468" y="33.4152">1</text><text fill="#000000" font-family="sans-serif" font-size="13" lengthAdjust="spacing" textLength="22" x="252.9695" y="51.8776">0..*</text></g><!--link User to House--><g id="link_User_House"><path codeLine="56" d="M162.01,169.8 C136.5,136.37 96.19,83.55 75.4,56.29 " fill="none" id="User-House" style="stroke:#181818;stroke-width:1.0;"/><polygon fill="#000000" points="121.967,103.1502,125.1173,112.1239,129.7902,108.5584,121.967,103.1502" style="stroke:#000000;stroke-width:1.0;"/><text fill="#000000" font-family="sans-serif" font-size="13" lengthAdjust="spacing" textLength="33" x="134" y="112.0384">owns</text><text fill="#000000" font-family="sans-serif" font-size="13" lengthAdjust="spacing" textLength="8" x="148.4433" y="159.4324">1</text><text fill="#000000" font-family="sans-serif" font-size="13" lengthAdjust="spacing" textLength="24" x="82.8613" y="76.5579">0..1</text></g><!--link Room to User--><g id="link_Room_User"><path codeLine="57" d="M287.87,60.68 C277.2,71.66 264.48,85.37 254,98.47 C235.63,121.41 217.01,149.1 203.75,169.76 " fill="none" id="Room-User" style="stroke:#181818;stroke-width:1.0;"/><polygon fill="#000000" points="262.0534,103.1659,254.2025,108.5338,258.857,112.1232,262.0534,103.1659" style="stroke:#000000;stroke-width:1.0;"/><text fill="#000000" font-family="sans-serif" font-size="13" lengthAdjust="spacing" textLength="33" x="268" y="112.0384">owns</text><text fill="#000000" font-family="sans-serif" font-size="13" lengthAdjust="spacing" textLength="8" x="273.5008" y="80.7088">1</text><text fill="#000000" font-family="sans-serif" font-size="13" lengthAdjust="spacing" textLength="22" x="183.3484" y="159.3842">0..*</text></g><!--link Room to Dimensions--><g id="link_Room_Dimensions"><path codeLine="58" d="M310,60.47 C310,86.34 310,129.99 310,161.58 " fill="none" id="Room-Dimensions" style="stroke:#181818;stroke-width:1.0;"/><polygon fill="#000000" points="315,112.1253,317.9389,103.0802,312.0611,103.0802,315,112.1253" style="stroke:#000000;stroke-width:1.0;"/><text fill="#000000" font-family="sans-serif" font-size="13" lengthAdjust="spacing" textLength="22" x="324" y="112.0384">has</text><text fill="#000000" font-family="sans-serif" font-size="13" lengthAdjust="spacing" textLength="8" x="300.975" y="80.8276">1</text><text fill="#000000" font-family="sans-serif" font-size="13" lengthAdjust="spacing" textLength="8" x="301.3125" y="151.1233">1</text></g><!--link Room to Device--><g id="link_Room_Device"><path codeLine="59" d="M337.42,37.73 C362.39,37.73 399.16,37.73 424.7,37.73 " fill="none" id="Room-Device" style="stroke:#181818;stroke-width:1.0;"/><polygon fill="#000000" points="372.5,26.3853,363.4549,23.4463,363.4549,29.3242,372.5,26.3853" style="stroke:#000000;stroke-width:1.0;"/><text fill="#000000" font-family="sans-serif" font-size="13" lengthAdjust="spacing" textLength="22" x="376.5" y="31.2984">has</text><text fill="#000000" font-family="sans-serif" font-size="13" lengthAdjust="spacing" textLength="8" x="345.0786" y="33.5085">1</text><text fill="#000000" font-family="sans-serif" font-size="13" lengthAdjust="spacing" textLength="22" x="395.0178" y="33.8978">0..*</text></g><!--link Device to Sensor--><g id="link_Device_Sensor"><path codeLine="60" d="M456.97,68.68 C459.33,92.44 462.67,126.08 465.38,153.36 " fill="none" id="Device-Sensor" style="stroke:#181818;stroke-width:1.0;"/><polygon fill="#000000" points="467.4941,112.1008,469.5248,102.8095,463.6757,103.3904,467.4941,112.1008" style="stroke:#000000;stroke-width:1.0;"/><text fill="#000000" font-family="sans-serif" font-size="13" lengthAdjust="spacing" textLength="37" x="476" y="112.0384">act as</text><text fill="#000000" font-family="sans-serif" font-size="13" lengthAdjust="spacing" textLength="8" x="448.7576" y="89.2102">1</text><text fill="#000000" font-family="sans-serif" font-size="13" lengthAdjust="spacing" textLength="22" x="441.0858" y="142.8627">0..*</text></g><!--link Device to Actuator--><g id="link_Device_Actuator"><path codeLine="61" d="M483.31,37.73 C507.81,37.73 542.88,37.73 569.25,37.73 " fill="none" id="Device-Actuator" style="stroke:#181818;stroke-width:1.0;"/><polygon fill="#000000" points="510.25,26.3853,501.2049,23.4463,501.2049,29.3242,510.25,26.3853" style="stroke:#000000;stroke-width:1.0;"/><text fill="#000000" font-family="sans-serif" font-size="13" lengthAdjust="spacing" textLength="37" x="514.25" y="31.2984">act as</text><text fill="#000000" font-family="sans-serif" font-size="13" lengthAdjust="spacing" textLength="8" x="491.0129" y="33.5993">1</text><text fill="#000000" font-family="sans-serif" font-size="13" lengthAdjust="spacing" textLength="22" x="539.6398" y="51.5178">0..*</text></g><!--SRC=[PP71IiGm48RlUOhGYo3ihbwB2AAe1nLnyG5YEhIH95EIYSiglhkpRTEcU9favil_9t_EEg8-rhjTRvMdvEnMezlXnoTesZH6jK4v8SQzV8yGv8_moe48Q47ypgE7r_qjDi1JgyXGQa1OzEsuMh0dr3n6proa042YGGmloNr04D-cFsa8RUWeD2PFuLYSVSGKJmPBvzxouLNd3T7b6oxTE-F0HxQDF3kOXZfXmRTSEZ1jHoKANqP3beYaACLYl6STd3EWOmyYUKD2fn30qpEec0AmMwbveoafoZSTdr5TLd8ZguljzhoQtb7BJaLvNG8ZmQivjmpDZSnnoN-GcL5svJJaa-V3TwvzHkzQui6VY04l25OO3at0rHhWKYITNHOaIqmPPs3Qhcsce6kfEC1_MARcP0lk3m00]--></g></svg>