<?xml version="1.0" encoding="us-ascii" standalone="no"?><svg xmlns="http://www.w3.org/2000/svg" xmlns:xlink="http://www.w3.org/1999/xlink" contentStyleType="text/css" height="489px" preserveAspectRatio="none" style="width:1133px;height:489px;background:#FFFFFF;" version="1.1" viewBox="0 0 1133 489" width="1133px" zoomAndPan="magnify"><defs/><g><text fill="#000000" font-family="sans-serif" font-size="14" font-weight="bold" lengthAdjust="spacing" textLength="135" x="492.3112" y="23.5352">Sprint 2 Use Cases</text><!--entity Admin--><g id="elem_Admin"><ellipse cx="53.5" cy="149.9783" fill="#F1F1F1" rx="8" ry="8" style="stroke:#181818;stroke-width:0.5;"/><path d="M53.5,157.9783 L53.5,184.9783 M40.5,165.9783 L66.5,165.9783 M53.5,184.9783 L40.5,199.9783 M53.5,184.9783 L66.5,199.9783 " fill="none" style="stroke:#181818;stroke-width:0.5;"/><text fill="#000000" font-family="sans-serif" font-size="14" lengthAdjust="spacing" textLength="95" x="6" y="215.0134">Administrator</text></g><!--entity PU--><g id="elem_PU"><ellipse cx="53.5" cy="333.9783" fill="#F1F1F1" rx="8" ry="8" style="stroke:#181818;stroke-width:0.5;"/><path d="M53.5,341.9783 L53.5,368.9783 M40.5,349.9783 L66.5,349.9783 M53.5,368.9783 L40.5,383.9783 M53.5,368.9783 L66.5,383.9783 " fill="none" style="stroke:#181818;stroke-width:0.5;"/><text fill="#000000" font-family="sans-serif" font-size="14" lengthAdjust="spacing" textLength="77" x="15" y="399.0134">Power User</text></g><!--entity RO--><g id="elem_RO"><ellipse cx="1039.92" cy="111.9783" fill="#F1F1F1" rx="8" ry="8" style="stroke:#181818;stroke-width:0.5;"/><path d="M1039.92,119.9783 L1039.92,146.9783 M1026.92,127.9783 L1052.92,127.9783 M1039.92,146.9783 L1026.92,161.9783 M1039.92,146.9783 L1052.92,161.9783 " fill="none" style="stroke:#181818;stroke-width:0.5;"/><text fill="#000000" font-family="sans-serif" font-size="14" lengthAdjust="spacing" textLength="89" x="995.42" y="177.0134">Room Owner</text></g><g id="elem_UC3.1"><ellipse cx="1039.9162" cy="273.7195" fill="#F1F1F1" rx="87.7062" ry="19.9412" style="stroke:#181818;stroke-width:0.5;"/><text fill="#000000" font-family="sans-serif" font-size="14" lengthAdjust="spacing" textLength="136" x="971.9162" y="277.0105">Access list of rooms</text></g><g id="elem_UC5.1V2"><ellipse cx="322.0123" cy="460.7148" fill="#F1F1F1" rx="101.0823" ry="22.6165" style="stroke:#181818;stroke-width:0.5;"/><text fill="#000000" font-family="sans-serif" font-size="14" lengthAdjust="spacing" textLength="166" x="239.0123" y="464.0058">Add new device to room</text></g><g id="elem_UC6.1"><ellipse cx="717.109" cy="206.7181" fill="#F1F1F1" rx="106.099" ry="23.6198" style="stroke:#181818;stroke-width:0.5;"/><text fill="#000000" font-family="sans-serif" font-size="14" lengthAdjust="spacing" textLength="177" x="628.609" y="210.0091">Get list of devices in room</text></g><g id="elem_UC6.2"><ellipse cx="322.0059" cy="61.7135" fill="#F1F1F1" rx="79.1259" ry="18.2252" style="stroke:#181818;stroke-width:0.5;"/><text fill="#000000" font-family="sans-serif" font-size="14" lengthAdjust="spacing" textLength="116" x="264.0059" y="65.0045">Configure device</text></g><g id="elem_UC7"><ellipse cx="322.0104" cy="206.7144" fill="#F1F1F1" rx="90.7804" ry="20.5561" style="stroke:#181818;stroke-width:0.5;"/><text fill="#000000" font-family="sans-serif" font-size="14" lengthAdjust="spacing" textLength="143" x="250.5104" y="210.0054">Add sensor to device</text></g><g id="elem_UC8"><ellipse cx="322.0067" cy="384.7176" fill="#F1F1F1" rx="79.5467" ry="18.3093" style="stroke:#181818;stroke-width:0.5;"/><text fill="#000000" font-family="sans-serif" font-size="14" lengthAdjust="spacing" textLength="117" x="263.5067" y="388.0086">Deactivate device</text></g><g id="elem_UC9"><ellipse cx="322.0076" cy="296.7198" fill="#F1F1F1" rx="160.0076" ry="34.4015" style="stroke:#181818;stroke-width:0.5;"/><text fill="#000000" font-family="sans-serif" font-size="14" lengthAdjust="spacing" textLength="291" x="176.5076" y="300.0108">Get list of devices in house by functionality</text></g><!--link Admin to UC5.1V2--><g id="link_Admin_UC5.1V2"><path d="M69.53,218.2583 C95,282.7283 145.47,406.8283 162,420.7183 C180.63,436.3783 198.7403,444.5784 222.3403,450.4984 " fill="none" id="Admin-to-UC5.1V2" style="stroke:#181818;stroke-width:1.0;"/><polygon fill="#181818" points="228.16,451.9583,220.4037,445.8887,223.3103,450.7417,218.4572,453.6483,228.16,451.9583" style="stroke:#181818;stroke-width:1.0;"/></g><!--link UC5.1V2 to UC3.1--><g id="link_UC5.1V2_UC3.1"><path d="M390.75,443.8683 C418.99,436.7883 452.11,428.4283 482.02,420.7183 C665.03,373.5483 875.5638,317.4589 976.2638,290.5189 " fill="none" id="UC5.1V2-to-UC3.1" style="stroke:#181818;stroke-width:1.0;stroke-dasharray:7.0,7.0;"/><polygon fill="#181818" points="982.06,288.9683,972.332,287.4301,977.2299,290.2605,974.3995,295.1583,982.06,288.9683" style="stroke:#181818;stroke-width:1.0;"/><text fill="#000000" font-family="sans-serif" font-size="13" lengthAdjust="spacing" textLength="67" x="683.61" y="330.2866">&#171;includes&#187;</text></g><!--link Admin to UC6.1--><g id="link_Admin_UC6.1"><path d="M101.23,165.1283 C111.28,163.0383 121.92,161.6183 132,161.7183 C331.75,163.7183 383.7,150.5283 581.02,181.7183 C598.8,184.5383 611.9481,186.7775 629.9681,190.0775 " fill="none" id="Admin-to-UC6.1" style="stroke:#181818;stroke-width:1.0;"/><polygon fill="#181818" points="635.87,191.1583,627.7378,185.6025,630.9518,190.2576,626.2967,193.4716,635.87,191.1583" style="stroke:#181818;stroke-width:1.0;"/></g><!--link UC6.1 to UC3.1--><g id="link_UC6.1_UC3.1"><path d="M795.77,222.9383 C850.38,234.3483 916.7468,248.2014 968.2568,258.9614 " fill="none" id="UC6.1-to-UC3.1" style="stroke:#181818;stroke-width:1.0;stroke-dasharray:7.0,7.0;"/><polygon fill="#181818" points="974.13,260.1883,966.1381,254.4325,969.2356,259.1659,964.5022,262.2635,974.13,260.1883" style="stroke:#181818;stroke-width:1.0;"/><text fill="#000000" font-family="sans-serif" font-size="13" lengthAdjust="spacing" textLength="67" x="854.21" y="233.2866">&#171;includes&#187;</text></g><!--link Admin to UC6.2--><g id="link_Admin_UC6.2"><path d="M87.13,141.1883 C99.66,128.5383 114.87,115.4783 131,106.7183 C167.5,86.9083 206.6534,76.7553 243.7434,70.5053 " fill="none" id="Admin-to-UC6.2" style="stroke:#181818;stroke-width:1.0;"/><polygon fill="#181818" points="249.66,69.5083,240.1205,67.0594,244.7295,70.3391,241.4498,74.9482,249.66,69.5083" style="stroke:#181818;stroke-width:1.0;"/></g><!--link UC6.2 to UC6.1--><g id="link_UC6.2_UC6.1"><path d="M395.95,68.4783 C448.94,75.2683 521.48,88.4883 581.02,113.7183 C622.18,131.1683 659.03,158.3822 684.97,179.7622 " fill="none" id="UC6.2-to-UC6.1" style="stroke:#181818;stroke-width:1.0;stroke-dasharray:7.0,7.0;"/><polygon fill="#181818" points="689.6,183.5783,685.199,174.7674,685.7416,180.3982,680.1109,180.9408,689.6,183.5783" style="stroke:#181818;stroke-width:1.0;"/><text fill="#000000" font-family="sans-serif" font-size="13" lengthAdjust="spacing" textLength="67" x="513.02" y="88.2866">&#171;includes&#187;</text></g><!--link Admin to UC7--><g id="link_Admin_UC7"><path d="M101.23,184.4583 C139.07,188.2883 187.3505,193.1838 232.4805,197.7538 " fill="none" id="Admin-to-UC7" style="stroke:#181818;stroke-width:1.0;"/><polygon fill="#181818" points="238.45,198.3583,229.8988,193.4719,233.4754,197.8545,229.0928,201.4312,238.45,198.3583" style="stroke:#181818;stroke-width:1.0;"/></g><!--link UC7 to UC6.1--><g id="link_UC7_UC6.1"><path d="M413.19,206.7183 C472.02,206.7183 543.03,206.7183 604.68,206.7183 " fill="none" id="UC7-to-UC6.1" style="stroke:#181818;stroke-width:1.0;stroke-dasharray:7.0,7.0;"/><polygon fill="#181818" points="610.68,206.7183,601.68,202.7183,605.68,206.7183,601.68,210.7183,610.68,206.7183" style="stroke:#181818;stroke-width:1.0;"/><text fill="#000000" font-family="sans-serif" font-size="13" lengthAdjust="spacing" textLength="67" x="513.02" y="203.2866">&#171;includes&#187;</text></g><!--link Admin to UC9--><g id="link_Admin_UC9"><path d="M101.38,211.2583 C119.77,222.7683 141.38,235.2683 162,244.7183 C181.8,253.7983 197.9647,260.1106 218.9547,267.1906 " fill="none" id="Admin-to-UC9" style="stroke:#181818;stroke-width:1.0;"/><polygon fill="#181818" points="224.64,269.1083,217.3905,262.4416,219.9023,267.5102,214.8336,270.022,224.64,269.1083" style="stroke:#181818;stroke-width:1.0;"/></g><!--link UC9 to UC6.1--><g id="link_UC9_UC6.1"><path d="M433.03,271.5283 C499.7,256.2683 577.1013,238.5474 636.0213,225.0574 " fill="none" id="UC9-to-UC6.1" style="stroke:#181818;stroke-width:1.0;stroke-dasharray:7.0,7.0;"/><polygon fill="#181818" points="641.87,223.7183,632.2043,221.8278,636.9961,224.8342,633.9897,229.626,641.87,223.7183" style="stroke:#181818;stroke-width:1.0;"/><text fill="#000000" font-family="sans-serif" font-size="13" lengthAdjust="spacing" textLength="67" x="513.02" y="235.2866">&#171;includes&#187;</text></g><!--link PU to UC5.1V2--><g id="link_PU_UC5.1V2"><path d="M92.25,386.6283 C112.4,398.0983 137.94,411.4783 162,420.7183 C188.57,430.9383 212.8023,437.8924 239.5923,444.2524 " fill="none" id="PU-to-UC5.1V2" style="stroke:#181818;stroke-width:1.0;"/><polygon fill="#181818" points="245.43,445.6383,237.5973,439.6676,240.5652,444.4834,235.7494,447.4513,245.43,445.6383" style="stroke:#181818;stroke-width:1.0;"/></g><!--link PU to UC7--><g id="link_PU_UC7"><path d="M79.86,325.0983 C99.26,298.5683 128.36,264.6783 162,244.7183 C185.68,230.6783 208.3702,223.0613 234.7202,217.4813 " fill="none" id="PU-to-UC7" style="stroke:#181818;stroke-width:1.0;"/><polygon fill="#181818" points="240.59,216.2383,230.9566,214.1896,235.6985,217.2741,232.6139,222.016,240.59,216.2383" style="stroke:#181818;stroke-width:1.0;"/></g><!--link PU to UC8--><g id="link_PU_UC8"><path d="M92.4,366.7083 C132.28,369.8483 190.0986,374.4066 240.1886,378.3566 " fill="none" id="PU-to-UC8" style="stroke:#181818;stroke-width:1.0;"/><polygon fill="#181818" points="246.17,378.8283,237.5123,374.1331,241.1855,378.4352,236.8834,382.1084,246.17,378.8283" style="stroke:#181818;stroke-width:1.0;"/></g><!--link UC8 to UC6.1--><g id="link_UC8_UC6.1"><path d="M389.44,374.6383 C418.51,368.9683 452.62,360.5983 482.02,348.7183 C560.25,317.1183 637.6896,264.6001 680.7996,233.2101 " fill="none" id="UC8-to-UC6.1" style="stroke:#181818;stroke-width:1.0;stroke-dasharray:7.0,7.0;"/><polygon fill="#181818" points="685.65,229.6783,676.0199,231.7423,681.608,232.6214,680.7289,238.2096,685.65,229.6783" style="stroke:#181818;stroke-width:1.0;"/><text fill="#000000" font-family="sans-serif" font-size="13" lengthAdjust="spacing" textLength="67" x="513.02" y="298.2866">&#171;includes&#187;</text></g><!--link PU to UC9--><g id="link_PU_UC9"><path d="M92.4,354.1983 C124.74,346.0683 166.981,335.441 210.701,324.451 " fill="none" id="PU-to-UC9" style="stroke:#181818;stroke-width:1.0;"/><polygon fill="#181818" points="216.52,322.9883,206.8164,321.3031,211.6709,324.2072,208.7667,329.0617,216.52,322.9883" style="stroke:#181818;stroke-width:1.0;"/></g><!--reverse link UC6.1 to RO--><g id="link_UC6.1_RO"><path d="M802.4706,189.6273 C864.9806,176.9673 944.31,160.8883 995.25,150.5683 " fill="none" id="UC6.1-backto-RO" style="stroke:#181818;stroke-width:1.0;"/><polygon fill="#181818" points="796.59,190.8183,806.2049,192.9522,801.4905,189.8258,804.6169,185.1114,796.59,190.8183" style="stroke:#181818;stroke-width:1.0;"/></g><!--reverse link UC6.2 to RO--><g id="link_UC6.2_RO"><path d="M407.36,60.316 C458.58,60.126 520.89,61.2483 581.02,66.7183 C734.24,80.6783 913.72,115.5583 994.98,132.3683 " fill="none" id="UC6.2-backto-RO" style="stroke:#181818;stroke-width:1.0;"/><polygon fill="#181818" points="401.36,60.3383,410.3748,64.3049,406.36,60.3197,410.3451,56.3049,401.36,60.3383" style="stroke:#181818;stroke-width:1.0;"/></g><!--SRC=[ZPBDRi8m48JlVegzjHmI15M1H0W9KQb745LwTvqDM79iP6z0l7rjn-Bd0EtDk_jvrZCoIL88NmShDS4OAeUmuWuTOozxeeChXyE3ufgwLkN2jCFEOIOyaDMIxonl6LFO4901AtTxWbfQ52IDPgnSrgtKqf7bP6m9t47ii79ZJcZ3hhwxgLYvDQQ5zKcdrdRDMBLwoqUXU5qAWSw1ybfW6h2UTGC_Vyz7t-EUg6lGU88QZr9WV8w70ZD96fz85u6USY3r3TOBhOnkvAwpcA0mcrvMEDJEs21_dSxYz0EvjttaT7knUBPvRtoMy7E6fjCnCQuadGUCnP0WonQG75wSvdde-LHAcC-b5gghqIqMzrUyuMJx4NvFZvFxdfuy5v_6EFw55Z60X-YckhDuhQStvrdCzs-DWYNByomBVwTt58fG_G80]--></g></svg>