<?xml version="1.0" encoding="us-ascii" standalone="no"?><svg xmlns="http://www.w3.org/2000/svg" xmlns:xlink="http://www.w3.org/1999/xlink" contentStyleType="text/css" height="782px" preserveAspectRatio="none" style="width:1136px;height:782px;background:#FFFFFF;" version="1.1" viewBox="0 0 1136 782" width="1136px" zoomAndPan="magnify"><defs/><g><text fill="#000000" font-family="sans-serif" font-size="14" font-weight="bold" lengthAdjust="spacing" textLength="367" x="375.75" y="25.1074">US24: As Product Owner, I want the system to have a</text><text fill="#000000" font-family="sans-serif" font-size="14" font-weight="bold" lengthAdjust="spacing" textLength="537" x="294.75" y="43.7285">type of sensor that gives the average power consumption over a period (W).</text><!--class SensorFunctionality--><g id="elem_SensorFunctionality"><rect codeLine="5" fill="#F1F1F1" height="252.832" id="SensorFunctionality" rx="2.5" ry="2.5" style="stroke:#181818;stroke-width:0.5;" width="157" x="748.5" y="339.2422"/><ellipse cx="763.5" cy="355.2422" fill="#EB937F" rx="11" ry="11" style="stroke:#181818;stroke-width:1.0;"/><path d="M762.3594,356.0391 L762.3594,358.5391 L766.6875,358.5391 L766.6875,357.6172 Q766.6875,357.0078 766.9219,356.7422 Q767.1719,356.4766 767.5469,356.4766 Q767.9219,356.4766 768.1563,356.7422 Q768.3906,357.0078 768.3906,357.6172 L768.3906,360.2422 L760.3906,360.2422 Q759.7656,360.2422 759.5,360.0078 Q759.25,359.7734 759.25,359.3828 Q759.25,359.0078 759.5156,358.7734 Q759.7813,358.5391 760.3906,358.5391 L760.6563,358.5391 L760.6563,351.8828 L760.3906,351.8828 Q759.7656,351.8828 759.5,351.6484 Q759.25,351.4141 759.25,351.0234 Q759.25,350.6484 759.5,350.4141 Q759.7656,350.1797 760.3906,350.1797 L768.0156,350.1797 L768.0156,352.7734 Q768.0156,353.3828 767.7813,353.6484 Q767.5625,353.8984 767.1719,353.8984 Q766.7969,353.8984 766.5625,353.6484 Q766.3281,353.3828 766.3281,352.7734 L766.3281,351.8828 L762.3594,351.8828 L762.3594,354.3359 L763.8438,354.3359 Q763.8438,353.6797 763.9688,353.4922 Q764.2344,353.0859 764.7031,353.0859 Q765.0781,353.0859 765.3125,353.3516 Q765.5469,353.6016 765.5469,354.2109 L765.5469,356.1797 Q765.5469,356.7266 765.4219,356.9141 Q765.1563,357.3047 764.7031,357.3047 Q764.2344,357.3047 763.9688,356.8984 Q763.8438,356.7109 763.8438,356.0391 L762.3594,356.0391 Z " fill="#000000"/><text fill="#000000" font-family="sans-serif" font-size="14" lengthAdjust="spacing" textLength="125" x="777.5" y="361.0391">SensorFunctionality</text><line style="stroke:#181818;stroke-width:0.5;" x1="749.5" x2="904.5" y1="371.2422" y2="371.2422"/><text fill="#000000" font-family="sans-serif" font-size="14" lengthAdjust="spacing" textLength="107" x="754.5" y="390.3496">TEMPERATURE,</text><text fill="#000000" font-family="sans-serif" font-size="14" lengthAdjust="spacing" textLength="67" x="754.5" y="408.9707">HUMIDITY,</text><text fill="#000000" font-family="sans-serif" font-size="14" lengthAdjust="spacing" textLength="115" x="754.5" y="427.5918">BINARY_STATUS,</text><text fill="#000000" font-family="sans-serif" font-size="14" lengthAdjust="spacing" textLength="121" x="754.5" y="446.2129">SCALE_POSITION,</text><text fill="#000000" font-family="sans-serif" font-size="14" lengthAdjust="spacing" textLength="39" x="754.5" y="464.834">WIND,</text><text fill="#000000" font-family="sans-serif" font-size="14" lengthAdjust="spacing" textLength="62" x="754.5" y="483.4551">SUNRISE,</text><text fill="#000000" font-family="sans-serif" font-size="14" lengthAdjust="spacing" textLength="58" x="754.5" y="502.0762">SUNSET,</text><text fill="#000000" font-family="sans-serif" font-size="14" lengthAdjust="spacing" textLength="85" x="754.5" y="520.6973">DEW_POINT,</text><text fill="#000000" font-family="sans-serif" font-size="14" lengthAdjust="spacing" textLength="132" x="754.5" y="539.3184">SOLAR_RADIATION,</text><text fill="#000000" font-family="sans-serif" font-size="14" lengthAdjust="spacing" textLength="56" x="754.5" y="557.9395">POWER,</text><text fill="#000000" font-family="sans-serif" font-size="14" lengthAdjust="spacing" textLength="57" x="754.5" y="576.5605">ENERGY</text><line style="stroke:#181818;stroke-width:0.5;" x1="749.5" x2="904.5" y1="584.0742" y2="584.0742"/></g><!--class Sensor--><g id="elem_Sensor"><rect codeLine="19" fill="#F1F1F1" height="85.2422" id="Sensor" rx="2.5" ry="2.5" style="stroke:#181818;stroke-width:0.5;" width="314" x="339" y="65.2422"/><ellipse cx="469.25" cy="81.2422" fill="#B4A7E5" rx="11" ry="11" style="stroke:#181818;stroke-width:1.0;"/><path d="M470.2031,77.8828 L470.2031,84.5391 L471.9219,84.5391 Q472.5313,84.5391 472.7969,84.7734 Q473.0625,85.0078 473.0625,85.3984 Q473.0625,85.7734 472.7969,86.0078 Q472.5313,86.2422 471.9219,86.2422 L466.7813,86.2422 Q466.1719,86.2422 465.9063,86.0078 Q465.6406,85.7734 465.6406,85.3828 Q465.6406,85.0078 465.9063,84.7734 Q466.1719,84.5391 466.7813,84.5391 L468.5,84.5391 L468.5,77.8828 L466.7813,77.8828 Q466.1719,77.8828 465.9063,77.6484 Q465.6406,77.4141 465.6406,77.0234 Q465.6406,76.6484 465.9063,76.4141 Q466.1719,76.1797 466.7813,76.1797 L471.9219,76.1797 Q472.5313,76.1797 472.7969,76.4141 Q473.0625,76.6484 473.0625,77.0234 Q473.0625,77.4141 472.7969,77.6484 Q472.5313,77.8828 471.9219,77.8828 L470.2031,77.8828 Z " fill="#000000"/><text fill="#000000" font-family="sans-serif" font-size="14" font-style="italic" lengthAdjust="spacing" textLength="45" x="489.75" y="87.0391">Sensor</text><line style="stroke:#181818;stroke-width:0.5;" x1="340" x2="652" y1="97.2422" y2="97.2422"/><line style="stroke:#181818;stroke-width:0.5;" x1="340" x2="652" y1="105.2422" y2="105.2422"/><ellipse cx="350" cy="120.0527" fill="#84BE84" rx="3" ry="3" style="stroke:#038048;stroke-width:1.0;"/><text fill="#000000" font-family="sans-serif" font-size="14" lengthAdjust="spacing" textLength="156" x="359" y="124.3496">getSensorName(): String</text><ellipse cx="350" cy="138.6738" fill="#84BE84" rx="3" ry="3" style="stroke:#038048;stroke-width:1.0;"/><text fill="#000000" font-family="sans-serif" font-size="14" lengthAdjust="spacing" textLength="288" x="359" y="142.9707">getSensorFunctionality(): SensorFunctionality</text></g><!--class SensorSpecificTime--><g id="elem_SensorSpecificTime"><rect codeLine="24" fill="#F1F1F1" height="66.6211" id="SensorSpecificTime" rx="2.5" ry="2.5" style="stroke:#181818;stroke-width:0.5;" width="390" x="301" y="211.2422"/><ellipse cx="429.25" cy="227.2422" fill="#B4A7E5" rx="11" ry="11" style="stroke:#181818;stroke-width:1.0;"/><path d="M430.2031,223.8828 L430.2031,230.5391 L431.9219,230.5391 Q432.5313,230.5391 432.7969,230.7734 Q433.0625,231.0078 433.0625,231.3984 Q433.0625,231.7734 432.7969,232.0078 Q432.5313,232.2422 431.9219,232.2422 L426.7813,232.2422 Q426.1719,232.2422 425.9063,232.0078 Q425.6406,231.7734 425.6406,231.3828 Q425.6406,231.0078 425.9063,230.7734 Q426.1719,230.5391 426.7813,230.5391 L428.5,230.5391 L428.5,223.8828 L426.7813,223.8828 Q426.1719,223.8828 425.9063,223.6484 Q425.6406,223.4141 425.6406,223.0234 Q425.6406,222.6484 425.9063,222.4141 Q426.1719,222.1797 426.7813,222.1797 L431.9219,222.1797 Q432.5313,222.1797 432.7969,222.4141 Q433.0625,222.6484 433.0625,223.0234 Q433.0625,223.4141 432.7969,223.6484 Q432.5313,223.8828 431.9219,223.8828 L430.2031,223.8828 Z " fill="#000000"/><text fill="#000000" font-family="sans-serif" font-size="14" font-style="italic" lengthAdjust="spacing" textLength="125" x="449.75" y="233.0391">SensorSpecificTime</text><line style="stroke:#181818;stroke-width:0.5;" x1="302" x2="690" y1="243.2422" y2="243.2422"/><line style="stroke:#181818;stroke-width:0.5;" x1="302" x2="690" y1="251.2422" y2="251.2422"/><ellipse cx="312" cy="266.0527" fill="#84BE84" rx="3" ry="3" style="stroke:#038048;stroke-width:1.0;"/><text fill="#000000" font-family="sans-serif" font-size="14" lengthAdjust="spacing" textLength="364" x="321" y="270.3496">getValueForSpecificTime(Timestamp specificTime): String</text></g><!--class Value--><g id="elem_Value"><rect codeLine="29" fill="#F1F1F1" height="66.6211" id="Value" rx="2.5" ry="2.5" style="stroke:#181818;stroke-width:0.5;" width="189" x="940.5" y="432.2422"/><ellipse cx="1012.75" cy="448.2422" fill="#B4A7E5" rx="11" ry="11" style="stroke:#181818;stroke-width:1.0;"/><path d="M1013.7031,444.8828 L1013.7031,451.5391 L1015.4219,451.5391 Q1016.0313,451.5391 1016.2969,451.7734 Q1016.5625,452.0078 1016.5625,452.3984 Q1016.5625,452.7734 1016.2969,453.0078 Q1016.0313,453.2422 1015.4219,453.2422 L1010.2813,453.2422 Q1009.6719,453.2422 1009.4063,453.0078 Q1009.1406,452.7734 1009.1406,452.3828 Q1009.1406,452.0078 1009.4063,451.7734 Q1009.6719,451.5391 1010.2813,451.5391 L1012,451.5391 L1012,444.8828 L1010.2813,444.8828 Q1009.6719,444.8828 1009.4063,444.6484 Q1009.1406,444.4141 1009.1406,444.0234 Q1009.1406,443.6484 1009.4063,443.4141 Q1009.6719,443.1797 1010.2813,443.1797 L1015.4219,443.1797 Q1016.0313,443.1797 1016.2969,443.4141 Q1016.5625,443.6484 1016.5625,444.0234 Q1016.5625,444.4141 1016.2969,444.6484 Q1016.0313,444.8828 1015.4219,444.8828 L1013.7031,444.8828 Z " fill="#000000"/><text fill="#000000" font-family="sans-serif" font-size="14" font-style="italic" lengthAdjust="spacing" textLength="36" x="1033.25" y="454.0391">Value</text><line style="stroke:#181818;stroke-width:0.5;" x1="941.5" x2="1128.5" y1="464.2422" y2="464.2422"/><line style="stroke:#181818;stroke-width:0.5;" x1="941.5" x2="1128.5" y1="472.2422" y2="472.2422"/><ellipse cx="951.5" cy="487.0527" fill="#84BE84" rx="3" ry="3" style="stroke:#038048;stroke-width:1.0;"/><text fill="#000000" font-family="sans-serif" font-size="14" lengthAdjust="spacing" textLength="163" x="960.5" y="491.3496">getValueWithUnit(): String</text></g><!--class SpecificTimePowerConsumptionSensorValue--><g id="elem_SpecificTimePowerConsumptionSensorValue"><rect codeLine="33" fill="#F1F1F1" height="103.8633" id="SpecificTimePowerConsumptionSensorValue" rx="2.5" ry="2.5" style="stroke:#181818;stroke-width:0.5;" width="315" x="338.5" y="671.2422"/><ellipse cx="353.5" cy="687.2422" fill="#ADD1B2" rx="11" ry="11" style="stroke:#181818;stroke-width:1.0;"/><path d="M356.2656,683.1172 Q356.4219,682.8984 356.6094,682.7891 Q356.7969,682.6797 357.0156,682.6797 Q357.3906,682.6797 357.625,682.9453 Q357.8594,683.1953 357.8594,683.8047 L357.8594,685.2578 Q357.8594,685.8672 357.625,686.1328 Q357.3906,686.3984 357.0156,686.3984 Q356.6719,686.3984 356.4688,686.1953 Q356.2656,686.0078 356.1563,685.4922 Q356.1094,685.1328 355.9219,684.9453 Q355.5938,684.5703 354.9844,684.3516 Q354.375,684.1328 353.75,684.1328 Q352.9844,684.1328 352.3438,684.4609 Q351.7188,684.7891 351.2188,685.5391 Q350.7344,686.2891 350.7344,687.3203 L350.7344,688.4141 Q350.7344,689.6484 351.625,690.4766 Q352.5156,691.2891 354.1094,691.2891 Q355.0469,691.2891 355.7031,691.0391 Q356.0938,690.8828 356.5156,690.4453 Q356.7813,690.1797 356.9219,690.1016 Q357.0781,690.0234 357.2813,690.0234 Q357.6094,690.0234 357.8594,690.2891 Q358.125,690.5391 358.125,690.8828 Q358.125,691.2266 357.7813,691.6328 Q357.2813,692.2109 356.4844,692.5391 Q355.4063,692.9922 354.1094,692.9922 Q352.5938,692.9922 351.3906,692.3672 Q350.4063,691.8672 349.7188,690.8047 Q349.0313,689.7266 349.0313,688.4453 L349.0313,687.2891 Q349.0313,685.9609 349.6406,684.8203 Q350.2656,683.6641 351.3594,683.0547 Q352.4531,682.4297 353.6875,682.4297 Q354.4219,682.4297 355.0625,682.6016 Q355.7188,682.7578 356.2656,683.1172 Z " fill="#000000"/><text fill="#000000" font-family="sans-serif" font-size="14" lengthAdjust="spacing" textLength="283" x="367.5" y="693.0391">SpecificTimePowerConsumptionSensorValue</text><line style="stroke:#181818;stroke-width:0.5;" x1="339.5" x2="652.5" y1="703.2422" y2="703.2422"/><rect fill="none" height="6" style="stroke:#C82930;stroke-width:1.0;" width="6" x="346.5" y="715.0527"/><text fill="#000000" font-family="sans-serif" font-size="14" lengthAdjust="spacing" textLength="68" x="358.5" y="722.3496">unit: String</text><rect fill="none" height="6" style="stroke:#C82930;stroke-width:1.0;" width="6" x="346.5" y="733.6738"/><text fill="#000000" font-family="sans-serif" font-size="14" lengthAdjust="spacing" textLength="105" x="358.5" y="740.9707">date: Timestamp</text><line style="stroke:#181818;stroke-width:0.5;" x1="339.5" x2="652.5" y1="748.4844" y2="748.4844"/><ellipse cx="349.5" cy="763.2949" fill="#84BE84" rx="3" ry="3" style="stroke:#038048;stroke-width:1.0;"/><text fill="#000000" font-family="sans-serif" font-size="14" lengthAdjust="spacing" textLength="163" x="358.5" y="767.5918">getValueWithUnit(): String</text></g><!--class SpecificTimePowerConsumptionSensor--><g id="elem_SpecificTimePowerConsumptionSensor"><rect codeLine="40" fill="#F1F1F1" height="178.3477" id="SpecificTimePowerConsumptionSensor" rx="2.5" ry="2.5" style="stroke:#181818;stroke-width:0.5;" width="390" x="301" y="376.7422"/><ellipse cx="368.25" cy="392.7422" fill="#ADD1B2" rx="11" ry="11" style="stroke:#181818;stroke-width:1.0;"/><path d="M371.0156,388.6172 Q371.1719,388.3984 371.3594,388.2891 Q371.5469,388.1797 371.7656,388.1797 Q372.1406,388.1797 372.375,388.4453 Q372.6094,388.6953 372.6094,389.3047 L372.6094,390.7578 Q372.6094,391.3672 372.375,391.6328 Q372.1406,391.8984 371.7656,391.8984 Q371.4219,391.8984 371.2188,391.6953 Q371.0156,391.5078 370.9063,390.9922 Q370.8594,390.6328 370.6719,390.4453 Q370.3438,390.0703 369.7344,389.8516 Q369.125,389.6328 368.5,389.6328 Q367.7344,389.6328 367.0938,389.9609 Q366.4688,390.2891 365.9688,391.0391 Q365.4844,391.7891 365.4844,392.8203 L365.4844,393.9141 Q365.4844,395.1484 366.375,395.9766 Q367.2656,396.7891 368.8594,396.7891 Q369.7969,396.7891 370.4531,396.5391 Q370.8438,396.3828 371.2656,395.9453 Q371.5313,395.6797 371.6719,395.6016 Q371.8281,395.5234 372.0313,395.5234 Q372.3594,395.5234 372.6094,395.7891 Q372.875,396.0391 372.875,396.3828 Q372.875,396.7266 372.5313,397.1328 Q372.0313,397.7109 371.2344,398.0391 Q370.1563,398.4922 368.8594,398.4922 Q367.3438,398.4922 366.1406,397.8672 Q365.1563,397.3672 364.4688,396.3047 Q363.7813,395.2266 363.7813,393.9453 L363.7813,392.7891 Q363.7813,391.4609 364.3906,390.3203 Q365.0156,389.1641 366.1094,388.5547 Q367.2031,387.9297 368.4375,387.9297 Q369.1719,387.9297 369.8125,388.1016 Q370.4688,388.2578 371.0156,388.6172 Z " fill="#000000"/><text fill="#000000" font-family="sans-serif" font-size="14" lengthAdjust="spacing" textLength="247" x="388.75" y="398.5391">SpecificTimePowerConsumptionSensor</text><line style="stroke:#181818;stroke-width:0.5;" x1="302" x2="690" y1="408.7422" y2="408.7422"/><rect fill="none" height="6" style="stroke:#C82930;stroke-width:1.0;" width="6" x="309" y="420.5527"/><text fill="#000000" font-family="sans-serif" font-size="14" lengthAdjust="spacing" textLength="124" x="321" y="427.8496">sensorName: String</text><rect fill="none" height="6" style="stroke:#C82930;stroke-width:1.0;" width="6" x="309" y="439.1738"/><text fill="#000000" font-family="sans-serif" font-size="14" lengthAdjust="spacing" textLength="208" x="321" y="446.4707">functionality: SensorFunctionality</text><rect fill="none" height="6" style="stroke:#C82930;stroke-width:1.0;" width="6" x="309" y="457.7949"/><text fill="#000000" font-family="sans-serif" font-size="14" lengthAdjust="spacing" textLength="171" x="321" y="465.0918">factoryValue: FactoryValue</text><rect fill="none" height="6" style="stroke:#C82930;stroke-width:1.0;" width="6" x="309" y="476.416"/><text fill="#000000" font-family="sans-serif" font-size="14" lengthAdjust="spacing" textLength="78" x="321" y="483.7129">value: Value</text><line style="stroke:#181818;stroke-width:0.5;" x1="302" x2="690" y1="491.2266" y2="491.2266"/><ellipse cx="312" cy="506.0371" fill="#84BE84" rx="3" ry="3" style="stroke:#038048;stroke-width:1.0;"/><text fill="#000000" font-family="sans-serif" font-size="14" lengthAdjust="spacing" textLength="156" x="321" y="510.334">getSensorName(): String</text><ellipse cx="312" cy="524.6582" fill="#84BE84" rx="3" ry="3" style="stroke:#038048;stroke-width:1.0;"/><text fill="#000000" font-family="sans-serif" font-size="14" lengthAdjust="spacing" textLength="288" x="321" y="528.9551">getSensorFunctionality(): SensorFunctionality</text><ellipse cx="312" cy="543.2793" fill="#84BE84" rx="3" ry="3" style="stroke:#038048;stroke-width:1.0;"/><text fill="#000000" font-family="sans-serif" font-size="14" lengthAdjust="spacing" textLength="364" x="321" y="547.5762">getValueForSpecificTime(Timestamp specificTime): String</text></g><!--class FactoryValue--><g id="elem_FactoryValue"><rect codeLine="51" fill="#F1F1F1" height="66.6211" id="FactoryValue" rx="2.5" ry="2.5" style="stroke:#181818;stroke-width:0.5;" width="236" x="7" y="432.2422"/><ellipse cx="78.75" cy="448.2422" fill="#ADD1B2" rx="11" ry="11" style="stroke:#181818;stroke-width:1.0;"/><path d="M81.5156,444.1172 Q81.6719,443.8984 81.8594,443.7891 Q82.0469,443.6797 82.2656,443.6797 Q82.6406,443.6797 82.875,443.9453 Q83.1094,444.1953 83.1094,444.8047 L83.1094,446.2578 Q83.1094,446.8672 82.875,447.1328 Q82.6406,447.3984 82.2656,447.3984 Q81.9219,447.3984 81.7188,447.1953 Q81.5156,447.0078 81.4063,446.4922 Q81.3594,446.1328 81.1719,445.9453 Q80.8438,445.5703 80.2344,445.3516 Q79.625,445.1328 79,445.1328 Q78.2344,445.1328 77.5938,445.4609 Q76.9688,445.7891 76.4688,446.5391 Q75.9844,447.2891 75.9844,448.3203 L75.9844,449.4141 Q75.9844,450.6484 76.875,451.4766 Q77.7656,452.2891 79.3594,452.2891 Q80.2969,452.2891 80.9531,452.0391 Q81.3438,451.8828 81.7656,451.4453 Q82.0313,451.1797 82.1719,451.1016 Q82.3281,451.0234 82.5313,451.0234 Q82.8594,451.0234 83.1094,451.2891 Q83.375,451.5391 83.375,451.8828 Q83.375,452.2266 83.0313,452.6328 Q82.5313,453.2109 81.7344,453.5391 Q80.6563,453.9922 79.3594,453.9922 Q77.8438,453.9922 76.6406,453.3672 Q75.6563,452.8672 74.9688,451.8047 Q74.2813,450.7266 74.2813,449.4453 L74.2813,448.2891 Q74.2813,446.9609 74.8906,445.8203 Q75.5156,444.6641 76.6094,444.0547 Q77.7031,443.4297 78.9375,443.4297 Q79.6719,443.4297 80.3125,443.6016 Q80.9688,443.7578 81.5156,444.1172 Z " fill="#000000"/><text fill="#000000" font-family="sans-serif" font-size="14" lengthAdjust="spacing" textLength="84" x="99.25" y="454.0391">FactoryValue</text><line style="stroke:#181818;stroke-width:0.5;" x1="8" x2="242" y1="464.2422" y2="464.2422"/><line style="stroke:#181818;stroke-width:0.5;" x1="8" x2="242" y1="472.2422" y2="472.2422"/><ellipse cx="18" cy="487.0527" fill="#84BE84" rx="3" ry="3" style="stroke:#038048;stroke-width:1.0;"/><text fill="#000000" font-family="sans-serif" font-size="14" lengthAdjust="spacing" textLength="210" x="27" y="491.3496">createValueSpecificTime(): Value</text></g><!--reverse link Sensor to SensorSpecificTime--><g id="link_Sensor_SensorSpecificTime"><path d="M496,168.3522 C496,187.8722 496,192.8022 496,211.0522 " fill="none" id="Sensor-backto-SensorSpecificTime" style="stroke:#181818;stroke-width:1.0;"/><polygon fill="none" points="496,150.3522,490,168.3522,502,168.3522,496,150.3522" style="stroke:#181818;stroke-width:1.0;"/></g><!--reverse link Value to SpecificTimePowerConsumptionSensorValue--><g id="link_Value_SpecificTimePowerConsumptionSensorValue"><path d="M1003.2598,514.0493 C983.0898,542.4593 960.77,568.0922 923,592.2422 C841.63,644.2622 738.29,676.4422 653.66,695.7722 " fill="none" id="Value-backto-SpecificTimePowerConsumptionSensorValue" style="stroke:#181818;stroke-width:1.0;stroke-dasharray:7.0,7.0;"/><polygon fill="none" points="1013.68,499.3722,998.3674,510.5759,1008.1522,517.5228,1013.68,499.3722" style="stroke:#181818;stroke-width:1.0;"/></g><!--reverse link SensorSpecificTime to SpecificTimePowerConsumptionSensor--><g id="link_SensorSpecificTime_SpecificTimePowerConsumptionSensor"><path d="M496,296.5322 C496,322.4222 496,341.8122 496,376.3122 " fill="none" id="SensorSpecificTime-backto-SpecificTimePowerConsumptionSensor" style="stroke:#181818;stroke-width:1.0;stroke-dasharray:7.0,7.0;"/><polygon fill="none" points="496,278.5322,490,296.5322,502,296.5322,496,278.5322" style="stroke:#181818;stroke-width:1.0;"/></g><!--link FactoryValue to SpecificTimePowerConsumptionSensor--><g id="link_FactoryValue_SpecificTimePowerConsumptionSensor"><path codeLine="55" d="M243.15,465.7422 C261.61,465.7422 281.09,465.7422 300.72,465.7422 " fill="none" id="FactoryValue-SpecificTimePowerConsumptionSensor" style="stroke:#181818;stroke-width:1.0;"/><text fill="#000000" font-family="sans-serif" font-size="13" lengthAdjust="spacing" textLength="21" x="261.5" y="458.7705">has</text></g><!--link FactoryValue to SpecificTimePowerConsumptionSensorValue--><g id="link_FactoryValue_SpecificTimePowerConsumptionSensorValue"><path codeLine="56" d="M163.26,499.3222 C194.64,525.5022 240.64,562.6622 283,592.2422 C322.6,619.9022 362.9536,645.0544 401.7136,668.1144 " fill="none" id="FactoryValue-to-SpecificTimePowerConsumptionSensorValue" style="stroke:#181818;stroke-width:1.0;stroke-dasharray:7.0,7.0;"/><polygon fill="#181818" points="406.87,671.1822,401.1805,663.1429,402.573,668.6257,397.0902,670.0181,406.87,671.1822" style="stroke:#181818;stroke-width:1.0;"/><text fill="#000000" font-family="sans-serif" font-size="13" lengthAdjust="spacing" textLength="57" x="359" y="637.2705">&#171;creates&#187;</text></g><!--link SpecificTimePowerConsumptionSensor to SensorFunctionality--><g id="link_SpecificTimePowerConsumptionSensor_SensorFunctionality"><path codeLine="57" d="M691.41,465.7422 C711.43,465.7422 730.84,465.7422 748.42,465.7422 " fill="none" id="SpecificTimePowerConsumptionSensor-SensorFunctionality" style="stroke:#181818;stroke-width:1.0;"/><text fill="#000000" font-family="sans-serif" font-size="13" lengthAdjust="spacing" textLength="21" x="709.25" y="458.7705">has</text></g><!--link SpecificTimePowerConsumptionSensor to SpecificTimePowerConsumptionSensorValue--><g id="link_SpecificTimePowerConsumptionSensor_SpecificTimePowerConsumptionSensorValue"><path codeLine="58" d="M496,555.0322 C496,593.8322 496,638.0122 496,671.2222 " fill="none" id="SpecificTimePowerConsumptionSensor-SpecificTimePowerConsumptionSensorValue" style="stroke:#181818;stroke-width:1.0;"/><text fill="#000000" font-family="sans-serif" font-size="13" lengthAdjust="spacing" textLength="21" x="497" y="637.2705">has</text></g><!--SRC=[hLJVYzf047xFNp7SIvMxA9G-XKF8dR4Dt4L9OaKua2MEkf3iXjs9Lah_zwxPd2PN7uHU7iBEZ- -RRsU6_R8ZAhKt79Ov4rGL-I2JnJ3BcTRkchEjOeNZ4ASSuMwUVFtcWQzXfkIwoWYc1u7g0K8u62pG3a4VDM419677zWWCtWJGiKIG6z0ej5GcZH5i-HvrZJ1fYcqHIdb01PaKkYfAubA0D173KABYSWszHNzmvpWegWAIccbIYUoKo79EH_ZjWFdIu7KMn7uwZuE7sl5Z_XgEmtHfhQSmykFbAabDHc9ToRF_4gncqoHCmsbaVOim6ZVHUHI7IN0saY2rvt6mCA0mQina-kB7gzWVX_w5PZPT1B4z1b4GVr_Mnp-EmmMXsh0Ccviquk-tIDOHiG9xVGyIKbniFmGxzwwp_dKxLwea9MPymxEK5mZuYr2iTHEwrF_9yWedtUJUwQU95INeblkYpnHhLQifu0FbWjDkBZZrEgXwpw1TQtPQW-VB5bXzbf8NPOu52jAT6cvbU3kzSjUCq8EpRESpjRHbN6bieqcVvzXLjcbFwVheR1xBIAfZhTU3ISkoyRqDMC-dRy__ReFjPLkrwSjzfj3CfJOxXFttUnXa1-FUC0xFl3Iw2niCHd3hKddm-6XrwT78kM7wxhM6MH6teDtRXPqe_m80]--></g></svg>