<?xml version="1.0" encoding="us-ascii" standalone="no"?><svg xmlns="http://www.w3.org/2000/svg" xmlns:xlink="http://www.w3.org/1999/xlink" contentStyleType="text/css" height="887px" preserveAspectRatio="none" style="width:1315px;height:887px;background:#FFFFFF;" version="1.1" viewBox="0 0 1315 887" width="1315px" zoomAndPan="magnify"><defs/><g><text fill="#000000" font-family="sans-serif" font-size="14" font-weight="bold" lengthAdjust="spacing" textLength="249" x="526" y="25.1074">UC02: Add a new room to the house</text><!--cluster server--><g id="cluster_server"><path d="M8.5,45.6348 L56.5,45.6348 A3.75,3.75 0 0 1 59,48.1348 L66,70.2559 L1305.5,70.2559 A2.5,2.5 0 0 1 1308,72.7559 L1308,878.1348 A2.5,2.5 0 0 1 1305.5,880.6348 L8.5,880.6348 A2.5,2.5 0 0 1 6,878.1348 L6,48.1348 A2.5,2.5 0 0 1 8.5,45.6348 " fill="#D3D3D3" style="stroke:#000000;stroke-width:1.5;"/><line style="stroke:#000000;stroke-width:1.5;" x1="6" x2="66" y1="70.2559" y2="70.2559"/><text fill="#000000" font-family="sans-serif" font-size="14" font-weight="bold" lengthAdjust="spacing" textLength="47" x="10" y="62.7422">server</text></g><!--class RoomControllerWeb--><g id="elem_RoomControllerWeb"><rect codeLine="6" fill="#F1F1F1" height="159.7266" id="RoomControllerWeb" rx="2.5" ry="2.5" style="stroke:#181818;stroke-width:0.5;" width="425" x="229.5" y="82.6348"/><ellipse cx="373.75" cy="98.6348" fill="#ADD1B2" rx="11" ry="11" style="stroke:#181818;stroke-width:1.0;"/><path d="M376.5156,94.5098 Q376.6719,94.291 376.8594,94.1816 Q377.0469,94.0723 377.2656,94.0723 Q377.6406,94.0723 377.875,94.3379 Q378.1094,94.5879 378.1094,95.1973 L378.1094,96.6504 Q378.1094,97.2598 377.875,97.5254 Q377.6406,97.791 377.2656,97.791 Q376.9219,97.791 376.7188,97.5879 Q376.5156,97.4004 376.4063,96.8848 Q376.3594,96.5254 376.1719,96.3379 Q375.8438,95.9629 375.2344,95.7441 Q374.625,95.5254 374,95.5254 Q373.2344,95.5254 372.5938,95.8535 Q371.9688,96.1816 371.4688,96.9316 Q370.9844,97.6816 370.9844,98.7129 L370.9844,99.8066 Q370.9844,101.041 371.875,101.8691 Q372.7656,102.6816 374.3594,102.6816 Q375.2969,102.6816 375.9531,102.4316 Q376.3438,102.2754 376.7656,101.8379 Q377.0313,101.5723 377.1719,101.4941 Q377.3281,101.416 377.5313,101.416 Q377.8594,101.416 378.1094,101.6816 Q378.375,101.9316 378.375,102.2754 Q378.375,102.6191 378.0313,103.0254 Q377.5313,103.6035 376.7344,103.9316 Q375.6563,104.3848 374.3594,104.3848 Q372.8438,104.3848 371.6406,103.7598 Q370.6563,103.2598 369.9688,102.1973 Q369.2813,101.1191 369.2813,99.8379 L369.2813,98.6816 Q369.2813,97.3535 369.8906,96.2129 Q370.5156,95.0566 371.6094,94.4473 Q372.7031,93.8223 373.9375,93.8223 Q374.6719,93.8223 375.3125,93.9941 Q375.9688,94.1504 376.5156,94.5098 Z " fill="#000000"/><text fill="#000000" font-family="sans-serif" font-size="14" lengthAdjust="spacing" textLength="128" x="394.25" y="104.4316">RoomControllerWeb</text><line style="stroke:#181818;stroke-width:0.5;" x1="230.5" x2="653.5" y1="114.6348" y2="114.6348"/><rect fill="none" height="6" style="stroke:#C82930;stroke-width:1.0;" width="6" x="237.5" y="126.4453"/><text fill="#000000" font-family="sans-serif" font-size="14" lengthAdjust="spacing" textLength="181" x="249.5" y="133.7422">houseService: HouseService</text><rect fill="none" height="6" style="stroke:#C82930;stroke-width:1.0;" width="6" x="237.5" y="145.0664"/><text fill="#000000" font-family="sans-serif" font-size="14" lengthAdjust="spacing" textLength="171" x="249.5" y="152.3633">roomService: RoomService</text><rect fill="none" height="6" style="stroke:#C82930;stroke-width:1.0;" width="6" x="237.5" y="163.6875"/><text fill="#000000" font-family="sans-serif" font-size="14" lengthAdjust="spacing" textLength="186" x="249.5" y="170.9844">deviceService: DeviceService</text><rect fill="none" height="6" style="stroke:#C82930;stroke-width:1.0;" width="6" x="237.5" y="182.3086"/><text fill="#000000" font-family="sans-serif" font-size="14" lengthAdjust="spacing" textLength="248" x="249.5" y="189.6055">deviceMapperDTO: DeviceMapperDTO</text><line style="stroke:#181818;stroke-width:0.5;" x1="230.5" x2="653.5" y1="197.1191" y2="197.1191"/><ellipse cx="240.5" cy="221.2402" fill="#84BE84" rx="3" ry="3" style="stroke:#038048;stroke-width:1.0;"/><text fill="#000000" font-family="sans-serif" font-size="14" lengthAdjust="spacing" textLength="369" x="249.5" y="216.2266">POST createRoom(@RequestBody RoomDTO roomDTO):</text><text fill="#000000" font-family="sans-serif" font-size="14" lengthAdjust="spacing" textLength="395" x="253.5" y="234.8477">ResponseEntity&lt;Object&gt; newRoomDTO, HttpStatus.CREATED</text></g><!--class HouseID--><g id="elem_HouseID"><rect codeLine="14" fill="#F1F1F1" height="66.6211" id="HouseID" rx="2.5" ry="2.5" style="stroke:#181818;stroke-width:0.5;" width="164" x="22" y="349.1348"/><ellipse cx="63.1" cy="365.1348" fill="#ADD1B2" rx="11" ry="11" style="stroke:#181818;stroke-width:1.0;"/><path d="M65.8656,361.0098 Q66.0219,360.791 66.2094,360.6816 Q66.3969,360.5723 66.6156,360.5723 Q66.9906,360.5723 67.225,360.8379 Q67.4594,361.0879 67.4594,361.6973 L67.4594,363.1504 Q67.4594,363.7598 67.225,364.0254 Q66.9906,364.291 66.6156,364.291 Q66.2719,364.291 66.0688,364.0879 Q65.8656,363.9004 65.7563,363.3848 Q65.7094,363.0254 65.5219,362.8379 Q65.1938,362.4629 64.5844,362.2441 Q63.975,362.0254 63.35,362.0254 Q62.5844,362.0254 61.9438,362.3535 Q61.3188,362.6816 60.8188,363.4316 Q60.3344,364.1816 60.3344,365.2129 L60.3344,366.3066 Q60.3344,367.541 61.225,368.3691 Q62.1156,369.1816 63.7094,369.1816 Q64.6469,369.1816 65.3031,368.9316 Q65.6938,368.7754 66.1156,368.3379 Q66.3813,368.0723 66.5219,367.9941 Q66.6781,367.916 66.8813,367.916 Q67.2094,367.916 67.4594,368.1816 Q67.725,368.4316 67.725,368.7754 Q67.725,369.1191 67.3813,369.5254 Q66.8813,370.1035 66.0844,370.4316 Q65.0063,370.8848 63.7094,370.8848 Q62.1938,370.8848 60.9906,370.2598 Q60.0063,369.7598 59.3188,368.6973 Q58.6313,367.6191 58.6313,366.3379 L58.6313,365.1816 Q58.6313,363.8535 59.2406,362.7129 Q59.8656,361.5566 60.9594,360.9473 Q62.0531,360.3223 63.2875,360.3223 Q64.0219,360.3223 64.6625,360.4941 Q65.3188,360.6504 65.8656,361.0098 Z " fill="#000000"/><text fill="#000000" font-family="sans-serif" font-size="14" lengthAdjust="spacing" textLength="53" x="82.9" y="370.9316">HouseID</text><rect fill="#FFFFFF" height="17.9609" style="stroke:#181818;stroke-width:1.0;stroke-dasharray:2.0,2.0;" width="19" x="170" y="346.1348"/><text fill="#000000" font-family="sans-serif" font-size="12" font-style="italic" lengthAdjust="spacing" textLength="17" x="171" y="360.084">VO</text><line style="stroke:#181818;stroke-width:0.5;" x1="23" x2="185" y1="381.1348" y2="381.1348"/><rect fill="none" height="6" style="stroke:#C82930;stroke-width:1.0;" width="6" x="30" y="392.9453"/><text fill="#000000" font-family="sans-serif" font-size="14" lengthAdjust="spacing" textLength="138" x="42" y="400.2422">houseIdentifier: String</text><line style="stroke:#181818;stroke-width:0.5;" x1="23" x2="185" y1="407.7559" y2="407.7559"/></g><!--class RoomDTO--><g id="elem_RoomDTO"><rect codeLine="18" fill="#F1F1F1" height="141.1055" id="RoomDTO" rx="2.5" ry="2.5" style="stroke:#181818;stroke-width:0.5;" width="139" x="28.5" y="522.6348"/><ellipse cx="61.5" cy="538.6348" fill="#ADD1B2" rx="11" ry="11" style="stroke:#181818;stroke-width:1.0;"/><path d="M64.2656,534.5098 Q64.4219,534.291 64.6094,534.1816 Q64.7969,534.0723 65.0156,534.0723 Q65.3906,534.0723 65.625,534.3379 Q65.8594,534.5879 65.8594,535.1973 L65.8594,536.6504 Q65.8594,537.2598 65.625,537.5254 Q65.3906,537.791 65.0156,537.791 Q64.6719,537.791 64.4688,537.5879 Q64.2656,537.4004 64.1563,536.8848 Q64.1094,536.5254 63.9219,536.3379 Q63.5938,535.9629 62.9844,535.7441 Q62.375,535.5254 61.75,535.5254 Q60.9844,535.5254 60.3438,535.8535 Q59.7188,536.1816 59.2188,536.9316 Q58.7344,537.6816 58.7344,538.7129 L58.7344,539.8066 Q58.7344,541.041 59.625,541.8691 Q60.5156,542.6816 62.1094,542.6816 Q63.0469,542.6816 63.7031,542.4316 Q64.0938,542.2754 64.5156,541.8379 Q64.7813,541.5723 64.9219,541.4941 Q65.0781,541.416 65.2813,541.416 Q65.6094,541.416 65.8594,541.6816 Q66.125,541.9316 66.125,542.2754 Q66.125,542.6191 65.7813,543.0254 Q65.2813,543.6035 64.4844,543.9316 Q63.4063,544.3848 62.1094,544.3848 Q60.5938,544.3848 59.3906,543.7598 Q58.4063,543.2598 57.7188,542.1973 Q57.0313,541.1191 57.0313,539.8379 L57.0313,538.6816 Q57.0313,537.3535 57.6406,536.2129 Q58.2656,535.0566 59.3594,534.4473 Q60.4531,533.8223 61.6875,533.8223 Q62.4219,533.8223 63.0625,533.9941 Q63.7188,534.1504 64.2656,534.5098 Z " fill="#000000"/><text fill="#000000" font-family="sans-serif" font-size="14" lengthAdjust="spacing" textLength="67" x="79.5" y="544.4316">RoomDTO</text><line style="stroke:#181818;stroke-width:0.5;" x1="29.5" x2="166.5" y1="554.6348" y2="554.6348"/><ellipse cx="39.5" cy="569.4453" fill="none" rx="3" ry="3" style="stroke:#038048;stroke-width:1.0;"/><text fill="#000000" font-family="sans-serif" font-size="14" lengthAdjust="spacing" textLength="113" x="48.5" y="573.7422">roomName: String</text><ellipse cx="39.5" cy="588.0664" fill="none" rx="3" ry="3" style="stroke:#038048;stroke-width:1.0;"/><text fill="#000000" font-family="sans-serif" font-size="14" lengthAdjust="spacing" textLength="100" x="48.5" y="592.3633">floorNumber: int</text><ellipse cx="39.5" cy="606.6875" fill="none" rx="3" ry="3" style="stroke:#038048;stroke-width:1.0;"/><text fill="#000000" font-family="sans-serif" font-size="14" lengthAdjust="spacing" textLength="90" x="48.5" y="610.9844">length: double</text><ellipse cx="39.5" cy="625.3086" fill="none" rx="3" ry="3" style="stroke:#038048;stroke-width:1.0;"/><text fill="#000000" font-family="sans-serif" font-size="14" lengthAdjust="spacing" textLength="83" x="48.5" y="629.6055">width: double</text><ellipse cx="39.5" cy="643.9297" fill="none" rx="3" ry="3" style="stroke:#038048;stroke-width:1.0;"/><text fill="#000000" font-family="sans-serif" font-size="14" lengthAdjust="spacing" textLength="90" x="48.5" y="648.2266">height: double</text><line style="stroke:#181818;stroke-width:0.5;" x1="29.5" x2="166.5" y1="655.7402" y2="655.7402"/></g><!--class RoomRepository--><g id="elem_RoomRepository"><rect codeLine="26" fill="#F1F1F1" height="85.2422" id="RoomRepository" rx="2.5" ry="2.5" style="stroke:#181818;stroke-width:0.5;" width="281" x="202.5" y="550.6348"/><ellipse cx="271.75" cy="566.6348" fill="#B4A7E5" rx="11" ry="11" style="stroke:#181818;stroke-width:1.0;"/><path d="M272.7031,563.2754 L272.7031,569.9316 L274.4219,569.9316 Q275.0313,569.9316 275.2969,570.166 Q275.5625,570.4004 275.5625,570.791 Q275.5625,571.166 275.2969,571.4004 Q275.0313,571.6348 274.4219,571.6348 L269.2813,571.6348 Q268.6719,571.6348 268.4063,571.4004 Q268.1406,571.166 268.1406,570.7754 Q268.1406,570.4004 268.4063,570.166 Q268.6719,569.9316 269.2813,569.9316 L271,569.9316 L271,563.2754 L269.2813,563.2754 Q268.6719,563.2754 268.4063,563.041 Q268.1406,562.8066 268.1406,562.416 Q268.1406,562.041 268.4063,561.8066 Q268.6719,561.5723 269.2813,561.5723 L274.4219,561.5723 Q275.0313,561.5723 275.2969,561.8066 Q275.5625,562.041 275.5625,562.416 Q275.5625,562.8066 275.2969,563.041 Q275.0313,563.2754 274.4219,563.2754 L272.7031,563.2754 Z " fill="#000000"/><text fill="#000000" font-family="sans-serif" font-size="14" font-style="italic" lengthAdjust="spacing" textLength="105" x="292.25" y="572.4316">RoomRepository</text><rect fill="#FFFFFF" height="17.9609" style="stroke:#181818;stroke-width:1.0;stroke-dasharray:2.0,2.0;" width="27" x="459.5" y="547.6348"/><text fill="#000000" font-family="sans-serif" font-size="12" font-style="italic" lengthAdjust="spacing" textLength="25" x="460.5" y="561.584">repo</text><line style="stroke:#181818;stroke-width:0.5;" x1="203.5" x2="482.5" y1="582.6348" y2="582.6348"/><line style="stroke:#181818;stroke-width:0.5;" x1="203.5" x2="482.5" y1="590.6348" y2="590.6348"/><ellipse cx="213.5" cy="605.4453" fill="#84BE84" rx="3" ry="3" style="stroke:#038048;stroke-width:1.0;"/><text fill="#000000" font-family="sans-serif" font-size="14" lengthAdjust="spacing" textLength="255" x="222.5" y="609.7422">containsEntityByID (RoomID id): boolean</text><ellipse cx="213.5" cy="624.0664" fill="#84BE84" rx="3" ry="3" style="stroke:#038048;stroke-width:1.0;"/><text fill="#000000" font-family="sans-serif" font-size="14" lengthAdjust="spacing" textLength="162" x="222.5" y="628.3633">save (Room room): Room</text></g><!--class Room--><g id="elem_Room"><rect codeLine="31" fill="#F1F1F1" height="141.1055" id="Room" rx="2.5" ry="2.5" style="stroke:#181818;stroke-width:0.5;" width="249" x="602.5" y="723.6348"/><ellipse cx="691.75" cy="739.6348" fill="#ADD1B2" rx="11" ry="11" style="stroke:#181818;stroke-width:1.0;"/><path d="M694.5156,735.5098 Q694.6719,735.291 694.8594,735.1816 Q695.0469,735.0723 695.2656,735.0723 Q695.6406,735.0723 695.875,735.3379 Q696.1094,735.5879 696.1094,736.1973 L696.1094,737.6504 Q696.1094,738.2598 695.875,738.5254 Q695.6406,738.791 695.2656,738.791 Q694.9219,738.791 694.7188,738.5879 Q694.5156,738.4004 694.4063,737.8848 Q694.3594,737.5254 694.1719,737.3379 Q693.8438,736.9629 693.2344,736.7441 Q692.625,736.5254 692,736.5254 Q691.2344,736.5254 690.5938,736.8535 Q689.9688,737.1816 689.4688,737.9316 Q688.9844,738.6816 688.9844,739.7129 L688.9844,740.8066 Q688.9844,742.041 689.875,742.8691 Q690.7656,743.6816 692.3594,743.6816 Q693.2969,743.6816 693.9531,743.4316 Q694.3438,743.2754 694.7656,742.8379 Q695.0313,742.5723 695.1719,742.4941 Q695.3281,742.416 695.5313,742.416 Q695.8594,742.416 696.1094,742.6816 Q696.375,742.9316 696.375,743.2754 Q696.375,743.6191 696.0313,744.0254 Q695.5313,744.6035 694.7344,744.9316 Q693.6563,745.3848 692.3594,745.3848 Q690.8438,745.3848 689.6406,744.7598 Q688.6563,744.2598 687.9688,743.1973 Q687.2813,742.1191 687.2813,740.8379 L687.2813,739.6816 Q687.2813,738.3535 687.8906,737.2129 Q688.5156,736.0566 689.6094,735.4473 Q690.7031,734.8223 691.9375,734.8223 Q692.6719,734.8223 693.3125,734.9941 Q693.9688,735.1504 694.5156,735.5098 Z " fill="#000000"/><text fill="#000000" font-family="sans-serif" font-size="14" lengthAdjust="spacing" textLength="37" x="712.25" y="745.4316">Room</text><rect fill="#FFFFFF" height="17.9609" style="stroke:#181818;stroke-width:1.0;stroke-dasharray:2.0,2.0;" width="23" x="831.5" y="720.6348"/><text fill="#000000" font-family="sans-serif" font-size="12" font-style="italic" lengthAdjust="spacing" textLength="21" x="832.5" y="734.584">root</text><line style="stroke:#181818;stroke-width:0.5;" x1="603.5" x2="850.5" y1="755.6348" y2="755.6348"/><rect fill="none" height="6" style="stroke:#C82930;stroke-width:1.0;" width="6" x="610.5" y="767.4453"/><text fill="#000000" font-family="sans-serif" font-size="14" lengthAdjust="spacing" textLength="113" x="622.5" y="774.7422">houseID: HouseID</text><rect fill="none" height="6" style="stroke:#C82930;stroke-width:1.0;" width="6" x="610.5" y="786.0664"/><text fill="#000000" font-family="sans-serif" font-size="14" lengthAdjust="spacing" textLength="103" x="622.5" y="793.3633">roomID: RoomID</text><rect fill="none" height="6" style="stroke:#C82930;stroke-width:1.0;" width="6" x="610.5" y="804.6875"/><text fill="#000000" font-family="sans-serif" font-size="14" lengthAdjust="spacing" textLength="143" x="622.5" y="811.9844">roomFloor: RoomFloor</text><rect fill="none" height="6" style="stroke:#C82930;stroke-width:1.0;" width="6" x="610.5" y="823.3086"/><text fill="#000000" font-family="sans-serif" font-size="14" lengthAdjust="spacing" textLength="223" x="622.5" y="830.6055">roomDimensions: RoomDimensions</text><line style="stroke:#181818;stroke-width:0.5;" x1="603.5" x2="850.5" y1="838.1191" y2="838.1191"/><ellipse cx="613.5" cy="852.9297" fill="#84BE84" rx="3" ry="3" style="stroke:#038048;stroke-width:1.0;"/><text fill="#000000" font-family="sans-serif" font-size="14" lengthAdjust="spacing" textLength="113" x="622.5" y="857.2266">identity(): RoomID</text></g><!--class RoomDimensions--><g id="elem_RoomDimensions"><rect codeLine="39" fill="#F1F1F1" height="159.7266" id="RoomDimensions" rx="2.5" ry="2.5" style="stroke:#181818;stroke-width:0.5;" width="163" x="258.5" y="302.6348"/><ellipse cx="273.5" cy="318.6348" fill="#ADD1B2" rx="11" ry="11" style="stroke:#181818;stroke-width:1.0;"/><path d="M276.2656,314.5098 Q276.4219,314.291 276.6094,314.1816 Q276.7969,314.0723 277.0156,314.0723 Q277.3906,314.0723 277.625,314.3379 Q277.8594,314.5879 277.8594,315.1973 L277.8594,316.6504 Q277.8594,317.2598 277.625,317.5254 Q277.3906,317.791 277.0156,317.791 Q276.6719,317.791 276.4688,317.5879 Q276.2656,317.4004 276.1563,316.8848 Q276.1094,316.5254 275.9219,316.3379 Q275.5938,315.9629 274.9844,315.7441 Q274.375,315.5254 273.75,315.5254 Q272.9844,315.5254 272.3438,315.8535 Q271.7188,316.1816 271.2188,316.9316 Q270.7344,317.6816 270.7344,318.7129 L270.7344,319.8066 Q270.7344,321.041 271.625,321.8691 Q272.5156,322.6816 274.1094,322.6816 Q275.0469,322.6816 275.7031,322.4316 Q276.0938,322.2754 276.5156,321.8379 Q276.7813,321.5723 276.9219,321.4941 Q277.0781,321.416 277.2813,321.416 Q277.6094,321.416 277.8594,321.6816 Q278.125,321.9316 278.125,322.2754 Q278.125,322.6191 277.7813,323.0254 Q277.2813,323.6035 276.4844,323.9316 Q275.4063,324.3848 274.1094,324.3848 Q272.5938,324.3848 271.3906,323.7598 Q270.4063,323.2598 269.7188,322.1973 Q269.0313,321.1191 269.0313,319.8379 L269.0313,318.6816 Q269.0313,317.3535 269.6406,316.2129 Q270.2656,315.0566 271.3594,314.4473 Q272.4531,313.8223 273.6875,313.8223 Q274.4219,313.8223 275.0625,313.9941 Q275.7188,314.1504 276.2656,314.5098 Z " fill="#000000"/><text fill="#000000" font-family="sans-serif" font-size="14" lengthAdjust="spacing" textLength="110" x="287.5" y="324.4316">RoomDimensions</text><rect fill="#FFFFFF" height="17.9609" style="stroke:#181818;stroke-width:1.0;stroke-dasharray:2.0,2.0;" width="19" x="405.5" y="299.6348"/><text fill="#000000" font-family="sans-serif" font-size="12" font-style="italic" lengthAdjust="spacing" textLength="17" x="406.5" y="313.584">VO</text><line style="stroke:#181818;stroke-width:0.5;" x1="259.5" x2="420.5" y1="334.6348" y2="334.6348"/><rect fill="none" height="6" style="stroke:#C82930;stroke-width:1.0;" width="6" x="266.5" y="346.4453"/><text fill="#000000" font-family="sans-serif" font-size="14" lengthAdjust="spacing" textLength="90" x="278.5" y="353.7422">length: double</text><rect fill="none" height="6" style="stroke:#C82930;stroke-width:1.0;" width="6" x="266.5" y="365.0664"/><text fill="#000000" font-family="sans-serif" font-size="14" lengthAdjust="spacing" textLength="83" x="278.5" y="372.3633">width: double</text><rect fill="none" height="6" style="stroke:#C82930;stroke-width:1.0;" width="6" x="266.5" y="383.6875"/><text fill="#000000" font-family="sans-serif" font-size="14" lengthAdjust="spacing" textLength="90" x="278.5" y="390.9844">height: double</text><line style="stroke:#181818;stroke-width:0.5;" x1="259.5" x2="420.5" y1="398.498" y2="398.498"/><ellipse cx="269.5" cy="413.3086" fill="#84BE84" rx="3" ry="3" style="stroke:#038048;stroke-width:1.0;"/><text fill="#000000" font-family="sans-serif" font-size="14" lengthAdjust="spacing" textLength="125" x="278.5" y="417.6055">getLength(): double</text><ellipse cx="269.5" cy="431.9297" fill="#84BE84" rx="3" ry="3" style="stroke:#038048;stroke-width:1.0;"/><text fill="#000000" font-family="sans-serif" font-size="14" lengthAdjust="spacing" textLength="117" x="278.5" y="436.2266">getWidth(): double</text><ellipse cx="269.5" cy="450.5508" fill="#84BE84" rx="3" ry="3" style="stroke:#038048;stroke-width:1.0;"/><text fill="#000000" font-family="sans-serif" font-size="14" lengthAdjust="spacing" textLength="121" x="278.5" y="454.8477">getHeight(): double</text></g><!--class RoomID--><g id="elem_RoomID"><rect codeLine="48" fill="#F1F1F1" height="85.2422" id="RoomID" rx="2.5" ry="2.5" style="stroke:#181818;stroke-width:0.5;" width="174" x="457" y="340.1348"/><ellipse cx="504.25" cy="356.1348" fill="#ADD1B2" rx="11" ry="11" style="stroke:#181818;stroke-width:1.0;"/><path d="M507.0156,352.0098 Q507.1719,351.791 507.3594,351.6816 Q507.5469,351.5723 507.7656,351.5723 Q508.1406,351.5723 508.375,351.8379 Q508.6094,352.0879 508.6094,352.6973 L508.6094,354.1504 Q508.6094,354.7598 508.375,355.0254 Q508.1406,355.291 507.7656,355.291 Q507.4219,355.291 507.2188,355.0879 Q507.0156,354.9004 506.9063,354.3848 Q506.8594,354.0254 506.6719,353.8379 Q506.3438,353.4629 505.7344,353.2441 Q505.125,353.0254 504.5,353.0254 Q503.7344,353.0254 503.0938,353.3535 Q502.4688,353.6816 501.9688,354.4316 Q501.4844,355.1816 501.4844,356.2129 L501.4844,357.3066 Q501.4844,358.541 502.375,359.3691 Q503.2656,360.1816 504.8594,360.1816 Q505.7969,360.1816 506.4531,359.9316 Q506.8438,359.7754 507.2656,359.3379 Q507.5313,359.0723 507.6719,358.9941 Q507.8281,358.916 508.0313,358.916 Q508.3594,358.916 508.6094,359.1816 Q508.875,359.4316 508.875,359.7754 Q508.875,360.1191 508.5313,360.5254 Q508.0313,361.1035 507.2344,361.4316 Q506.1563,361.8848 504.8594,361.8848 Q503.3438,361.8848 502.1406,361.2598 Q501.1563,360.7598 500.4688,359.6973 Q499.7813,358.6191 499.7813,357.3379 L499.7813,356.1816 Q499.7813,354.8535 500.3906,353.7129 Q501.0156,352.5566 502.1094,351.9473 Q503.2031,351.3223 504.4375,351.3223 Q505.1719,351.3223 505.8125,351.4941 Q506.4688,351.6504 507.0156,352.0098 Z " fill="#000000"/><text fill="#000000" font-family="sans-serif" font-size="14" lengthAdjust="spacing" textLength="50" x="524.75" y="361.9316">RoomID</text><rect fill="#FFFFFF" height="17.9609" style="stroke:#181818;stroke-width:1.0;stroke-dasharray:2.0,2.0;" width="19" x="615" y="337.1348"/><text fill="#000000" font-family="sans-serif" font-size="12" font-style="italic" lengthAdjust="spacing" textLength="17" x="616" y="351.084">VO</text><line style="stroke:#181818;stroke-width:0.5;" x1="458" x2="630" y1="372.1348" y2="372.1348"/><rect fill="none" height="6" style="stroke:#C82930;stroke-width:1.0;" width="6" x="465" y="383.9453"/><text fill="#000000" font-family="sans-serif" font-size="14" lengthAdjust="spacing" textLength="113" x="477" y="391.2422">roomName: String</text><line style="stroke:#181818;stroke-width:0.5;" x1="458" x2="630" y1="398.7559" y2="398.7559"/><ellipse cx="468" cy="413.5664" fill="#84BE84" rx="3" ry="3" style="stroke:#038048;stroke-width:1.0;"/><text fill="#000000" font-family="sans-serif" font-size="14" lengthAdjust="spacing" textLength="148" x="477" y="417.8633">getRoomName(): String</text></g><!--class RoomFloor--><g id="elem_RoomFloor"><rect codeLine="53" fill="#F1F1F1" height="85.2422" id="RoomFloor" rx="2.5" ry="2.5" style="stroke:#181818;stroke-width:0.5;" width="161" x="666.5" y="340.1348"/><ellipse cx="698.6" cy="356.1348" fill="#ADD1B2" rx="11" ry="11" style="stroke:#181818;stroke-width:1.0;"/><path d="M701.3656,352.0098 Q701.5219,351.791 701.7094,351.6816 Q701.8969,351.5723 702.1156,351.5723 Q702.4906,351.5723 702.725,351.8379 Q702.9594,352.0879 702.9594,352.6973 L702.9594,354.1504 Q702.9594,354.7598 702.725,355.0254 Q702.4906,355.291 702.1156,355.291 Q701.7719,355.291 701.5688,355.0879 Q701.3656,354.9004 701.2563,354.3848 Q701.2094,354.0254 701.0219,353.8379 Q700.6938,353.4629 700.0844,353.2441 Q699.475,353.0254 698.85,353.0254 Q698.0844,353.0254 697.4438,353.3535 Q696.8188,353.6816 696.3188,354.4316 Q695.8344,355.1816 695.8344,356.2129 L695.8344,357.3066 Q695.8344,358.541 696.725,359.3691 Q697.6156,360.1816 699.2094,360.1816 Q700.1469,360.1816 700.8031,359.9316 Q701.1938,359.7754 701.6156,359.3379 Q701.8813,359.0723 702.0219,358.9941 Q702.1781,358.916 702.3813,358.916 Q702.7094,358.916 702.9594,359.1816 Q703.225,359.4316 703.225,359.7754 Q703.225,360.1191 702.8813,360.5254 Q702.3813,361.1035 701.5844,361.4316 Q700.5063,361.8848 699.2094,361.8848 Q697.6938,361.8848 696.4906,361.2598 Q695.5063,360.7598 694.8188,359.6973 Q694.1313,358.6191 694.1313,357.3379 L694.1313,356.1816 Q694.1313,354.8535 694.7406,353.7129 Q695.3656,352.5566 696.4594,351.9473 Q697.5531,351.3223 698.7875,351.3223 Q699.5219,351.3223 700.1625,351.4941 Q700.8188,351.6504 701.3656,352.0098 Z " fill="#000000"/><text fill="#000000" font-family="sans-serif" font-size="14" lengthAdjust="spacing" textLength="70" x="716.4" y="361.9316">RoomFloor</text><rect fill="#FFFFFF" height="17.9609" style="stroke:#181818;stroke-width:1.0;stroke-dasharray:2.0,2.0;" width="19" x="811.5" y="337.1348"/><text fill="#000000" font-family="sans-serif" font-size="12" font-style="italic" lengthAdjust="spacing" textLength="17" x="812.5" y="351.084">VO</text><line style="stroke:#181818;stroke-width:0.5;" x1="667.5" x2="826.5" y1="372.1348" y2="372.1348"/><rect fill="none" height="6" style="stroke:#C82930;stroke-width:1.0;" width="6" x="674.5" y="383.9453"/><text fill="#000000" font-family="sans-serif" font-size="14" lengthAdjust="spacing" textLength="100" x="686.5" y="391.2422">floorNumber: int</text><line style="stroke:#181818;stroke-width:0.5;" x1="667.5" x2="826.5" y1="398.7559" y2="398.7559"/><ellipse cx="677.5" cy="413.5664" fill="#84BE84" rx="3" ry="3" style="stroke:#038048;stroke-width:1.0;"/><text fill="#000000" font-family="sans-serif" font-size="14" lengthAdjust="spacing" textLength="135" x="686.5" y="417.8633">getFloorNumber(): int</text></g><!--class RoomService--><g id="elem_RoomService"><rect codeLine="58" fill="#F1F1F1" height="141.1055" id="RoomService" rx="2.5" ry="2.5" style="stroke:#181818;stroke-width:0.5;" width="429" x="862.5" y="312.1348"/><ellipse cx="1030.75" cy="328.1348" fill="#ADD1B2" rx="11" ry="11" style="stroke:#181818;stroke-width:1.0;"/><path d="M1033.5156,324.0098 Q1033.6719,323.791 1033.8594,323.6816 Q1034.0469,323.5723 1034.2656,323.5723 Q1034.6406,323.5723 1034.875,323.8379 Q1035.1094,324.0879 1035.1094,324.6973 L1035.1094,326.1504 Q1035.1094,326.7598 1034.875,327.0254 Q1034.6406,327.291 1034.2656,327.291 Q1033.9219,327.291 1033.7188,327.0879 Q1033.5156,326.9004 1033.4063,326.3848 Q1033.3594,326.0254 1033.1719,325.8379 Q1032.8438,325.4629 1032.2344,325.2441 Q1031.625,325.0254 1031,325.0254 Q1030.2344,325.0254 1029.5938,325.3535 Q1028.9688,325.6816 1028.4688,326.4316 Q1027.9844,327.1816 1027.9844,328.2129 L1027.9844,329.3066 Q1027.9844,330.541 1028.875,331.3691 Q1029.7656,332.1816 1031.3594,332.1816 Q1032.2969,332.1816 1032.9531,331.9316 Q1033.3438,331.7754 1033.7656,331.3379 Q1034.0313,331.0723 1034.1719,330.9941 Q1034.3281,330.916 1034.5313,330.916 Q1034.8594,330.916 1035.1094,331.1816 Q1035.375,331.4316 1035.375,331.7754 Q1035.375,332.1191 1035.0313,332.5254 Q1034.5313,333.1035 1033.7344,333.4316 Q1032.6563,333.8848 1031.3594,333.8848 Q1029.8438,333.8848 1028.6406,333.2598 Q1027.6563,332.7598 1026.9688,331.6973 Q1026.2813,330.6191 1026.2813,329.3379 L1026.2813,328.1816 Q1026.2813,326.8535 1026.8906,325.7129 Q1027.5156,324.5566 1028.6094,323.9473 Q1029.7031,323.3223 1030.9375,323.3223 Q1031.6719,323.3223 1032.3125,323.4941 Q1032.9688,323.6504 1033.5156,324.0098 Z " fill="#000000"/><text fill="#000000" font-family="sans-serif" font-size="14" lengthAdjust="spacing" textLength="84" x="1051.25" y="333.9316">RoomService</text><line style="stroke:#181818;stroke-width:0.5;" x1="863.5" x2="1290.5" y1="344.1348" y2="344.1348"/><rect fill="none" height="6" style="stroke:#C82930;stroke-width:1.0;" width="6" x="870.5" y="355.9453"/><text fill="#000000" font-family="sans-serif" font-size="14" lengthAdjust="spacing" textLength="213" x="882.5" y="363.2422">roomRepository: RoomRepository</text><rect fill="none" height="6" style="stroke:#C82930;stroke-width:1.0;" width="6" x="870.5" y="374.5664"/><text fill="#000000" font-family="sans-serif" font-size="14" lengthAdjust="spacing" textLength="173" x="882.5" y="381.8633">factoryRoom: FactoryRoom</text><rect fill="none" height="6" style="stroke:#C82930;stroke-width:1.0;" width="6" x="870.5" y="393.1875"/><text fill="#000000" font-family="sans-serif" font-size="14" lengthAdjust="spacing" textLength="223" x="882.5" y="400.4844">houseRepository: HouseRepository</text><line style="stroke:#181818;stroke-width:0.5;" x1="863.5" x2="1290.5" y1="407.998" y2="407.998"/><ellipse cx="873.5" cy="432.1191" fill="#84BE84" rx="3" ry="3" style="stroke:#038048;stroke-width:1.0;"/><text fill="#000000" font-family="sans-serif" font-size="14" lengthAdjust="spacing" textLength="389" x="882.5" y="427.1055">createRoomAndSave(RoomID roomID, RoomFloor roomFloor,</text><text fill="#000000" font-family="sans-serif" font-size="14" lengthAdjust="spacing" textLength="399" x="886.5" y="445.7266">RoomDimensions roomDimensions, HouseID houseID): RoomID</text></g><!--class FactoryRoom--><g id="elem_FactoryRoom"><rect codeLine="66" fill="#F1F1F1" height="85.2422" id="FactoryRoom" rx="2.5" ry="2.5" style="stroke:#181818;stroke-width:0.5;" width="416" x="519" y="550.6348"/><ellipse cx="660.25" cy="566.6348" fill="#B4A7E5" rx="11" ry="11" style="stroke:#181818;stroke-width:1.0;"/><path d="M661.2031,563.2754 L661.2031,569.9316 L662.9219,569.9316 Q663.5313,569.9316 663.7969,570.166 Q664.0625,570.4004 664.0625,570.791 Q664.0625,571.166 663.7969,571.4004 Q663.5313,571.6348 662.9219,571.6348 L657.7813,571.6348 Q657.1719,571.6348 656.9063,571.4004 Q656.6406,571.166 656.6406,570.7754 Q656.6406,570.4004 656.9063,570.166 Q657.1719,569.9316 657.7813,569.9316 L659.5,569.9316 L659.5,563.2754 L657.7813,563.2754 Q657.1719,563.2754 656.9063,563.041 Q656.6406,562.8066 656.6406,562.416 Q656.6406,562.041 656.9063,561.8066 Q657.1719,561.5723 657.7813,561.5723 L662.9219,561.5723 Q663.5313,561.5723 663.7969,561.8066 Q664.0625,562.041 664.0625,562.416 Q664.0625,562.8066 663.7969,563.041 Q663.5313,563.2754 662.9219,563.2754 L661.2031,563.2754 Z " fill="#000000"/><text fill="#000000" font-family="sans-serif" font-size="14" font-style="italic" lengthAdjust="spacing" textLength="85" x="680.75" y="572.4316">FactoryRoom</text><rect fill="#FFFFFF" height="17.9609" style="stroke:#181818;stroke-width:1.0;stroke-dasharray:2.0,2.0;" width="38" x="900" y="547.6348"/><text fill="#000000" font-family="sans-serif" font-size="12" font-style="italic" lengthAdjust="spacing" textLength="36" x="901" y="561.584">factory</text><line style="stroke:#181818;stroke-width:0.5;" x1="520" x2="934" y1="582.6348" y2="582.6348"/><line style="stroke:#181818;stroke-width:0.5;" x1="520" x2="934" y1="590.6348" y2="590.6348"/><ellipse cx="530" cy="614.7559" fill="#84BE84" rx="3" ry="3" style="stroke:#038048;stroke-width:1.0;"/><text fill="#000000" font-family="sans-serif" font-size="14" lengthAdjust="spacing" textLength="344" x="539" y="609.7422">createRoom(RoomID roomID, RoomFloor floorNumber,</text><text fill="#000000" font-family="sans-serif" font-size="14" lengthAdjust="spacing" textLength="386" x="543" y="628.3633">RoomDimensions roomDimensions, HouseID houseID): Room</text></g><!--class HouseRepository--><g id="elem_HouseRepository"><rect codeLine="70" fill="#F1F1F1" height="66.6211" id="HouseRepository" rx="2.5" ry="2.5" style="stroke:#181818;stroke-width:0.5;" width="321" x="970.5" y="559.6348"/><ellipse cx="1057.75" cy="575.6348" fill="#B4A7E5" rx="11" ry="11" style="stroke:#181818;stroke-width:1.0;"/><path d="M1058.7031,572.2754 L1058.7031,578.9316 L1060.4219,578.9316 Q1061.0313,578.9316 1061.2969,579.166 Q1061.5625,579.4004 1061.5625,579.791 Q1061.5625,580.166 1061.2969,580.4004 Q1061.0313,580.6348 1060.4219,580.6348 L1055.2813,580.6348 Q1054.6719,580.6348 1054.4063,580.4004 Q1054.1406,580.166 1054.1406,579.7754 Q1054.1406,579.4004 1054.4063,579.166 Q1054.6719,578.9316 1055.2813,578.9316 L1057,578.9316 L1057,572.2754 L1055.2813,572.2754 Q1054.6719,572.2754 1054.4063,572.041 Q1054.1406,571.8066 1054.1406,571.416 Q1054.1406,571.041 1054.4063,570.8066 Q1054.6719,570.5723 1055.2813,570.5723 L1060.4219,570.5723 Q1061.0313,570.5723 1061.2969,570.8066 Q1061.5625,571.041 1061.5625,571.416 Q1061.5625,571.8066 1061.2969,572.041 Q1061.0313,572.2754 1060.4219,572.2754 L1058.7031,572.2754 Z " fill="#000000"/><text fill="#000000" font-family="sans-serif" font-size="14" font-style="italic" lengthAdjust="spacing" textLength="109" x="1078.25" y="581.4316">HouseRepository</text><rect fill="#FFFFFF" height="17.9609" style="stroke:#181818;stroke-width:1.0;stroke-dasharray:2.0,2.0;" width="27" x="1267.5" y="556.6348"/><text fill="#000000" font-family="sans-serif" font-size="12" font-style="italic" lengthAdjust="spacing" textLength="25" x="1268.5" y="570.584">repo</text><line style="stroke:#181818;stroke-width:0.5;" x1="971.5" x2="1290.5" y1="591.6348" y2="591.6348"/><line style="stroke:#181818;stroke-width:0.5;" x1="971.5" x2="1290.5" y1="599.6348" y2="599.6348"/><ellipse cx="981.5" cy="614.4453" fill="#84BE84" rx="3" ry="3" style="stroke:#038048;stroke-width:1.0;"/><text fill="#000000" font-family="sans-serif" font-size="14" lengthAdjust="spacing" textLength="295" x="990.5" y="618.7422">containsEntityByID(HouseID houseID): boolean</text></g><!--link RoomControllerWeb to HouseID--><g id="link_RoomControllerWeb_HouseID"><path codeLine="76" d="M239.17,242.6848 C239.17,305.5848 239.17,382.6348 239.17,382.6348 C239.17,382.6348 220.44,382.6348 192.13,382.6348 " fill="none" id="RoomControllerWeb-to-HouseID" style="stroke:#181818;stroke-width:1.0;stroke-dasharray:7.0,7.0;"/><polygon fill="#181818" points="186.13,382.6348,195.13,386.6348,191.13,382.6348,195.13,378.6348,186.13,382.6348" style="stroke:#181818;stroke-width:1.0;"/><text fill="#000000" font-family="sans-serif" font-size="13" lengthAdjust="spacing" textLength="57" x="181.17" y="335.2031">&#171;creates&#187;</text></g><!--link RoomControllerWeb to RoomID--><g id="link_RoomControllerWeb_RoomID"><path codeLine="77" d="M544,242.6848 C544,275.6048 544,306.4148 544,334.0048 " fill="none" id="RoomControllerWeb-to-RoomID" style="stroke:#181818;stroke-width:1.0;stroke-dasharray:7.0,7.0;"/><polygon fill="#181818" points="544,340.0048,548,331.0048,544,335.0048,540,331.0048,544,340.0048" style="stroke:#181818;stroke-width:1.0;"/><text fill="#000000" font-family="sans-serif" font-size="13" lengthAdjust="spacing" textLength="57" x="486" y="287.3731">&#171;creates&#187;</text></g><!--link RoomControllerWeb to RoomFloor--><g id="link_RoomControllerWeb_RoomFloor"><path codeLine="78" d="M638.83,242.6848 C638.83,305.5848 638.83,382.6348 638.83,382.6348 C638.83,382.6348 644.62,382.6348 660.41,382.6348 " fill="none" id="RoomControllerWeb-to-RoomFloor" style="stroke:#181818;stroke-width:1.0;stroke-dasharray:7.0,7.0;"/><polygon fill="#181818" points="666.41,382.6348,657.41,378.6348,661.41,382.6348,657.41,386.6348,666.41,382.6348" style="stroke:#181818;stroke-width:1.0;"/><text fill="#000000" font-family="sans-serif" font-size="13" lengthAdjust="spacing" textLength="57" x="580.83" y="322.4731">&#171;creates&#187;</text></g><!--link RoomControllerWeb to RoomDimensions--><g id="link_RoomControllerWeb_RoomDimensions"><path codeLine="79" d="M340,242.6848 C340,262.0948 340,276.8548 340,296.2748 " fill="none" id="RoomControllerWeb-to-RoomDimensions" style="stroke:#181818;stroke-width:1.0;stroke-dasharray:7.0,7.0;"/><polygon fill="#181818" points="340,302.2748,344,293.2748,340,297.2748,336,293.2748,340,302.2748" style="stroke:#181818;stroke-width:1.0;"/><text fill="#000000" font-family="sans-serif" font-size="13" lengthAdjust="spacing" textLength="57" x="282" y="268.5131">&#171;creates&#187;</text></g><!--link RoomControllerWeb to RoomDTO--><g id="link_RoomControllerWeb_RoomDTO"><path codeLine="80" d="M248.83,242.8648 C248.83,352.7648 248.83,536.6348 248.83,536.6348 C248.83,536.6348 213.2,536.6348 173.68,536.6348 " fill="none" id="RoomControllerWeb-to-RoomDTO" style="stroke:#181818;stroke-width:1.0;stroke-dasharray:7.0,7.0;"/><polygon fill="#181818" points="167.68,536.6348,176.68,540.6348,172.68,536.6348,176.68,532.6348,167.68,536.6348" style="stroke:#181818;stroke-width:1.0;"/><text fill="#000000" font-family="sans-serif" font-size="13" lengthAdjust="spacing" textLength="57" x="190.83" y="426.3531">&#171;creates&#187;</text></g><!--link RoomControllerWeb to RoomService--><g id="link_RoomControllerWeb_RoomService"><path codeLine="81" d="M646.67,242.7148 C646.67,284.3448 646.67,326.6348 646.67,326.6348 C646.67,326.6348 754.67,326.6348 862.46,326.6348 " fill="none" id="RoomControllerWeb-RoomService" style="stroke:#181818;stroke-width:1.0;"/></g><!--link RoomService to RoomRepository--><g id="link_RoomService_RoomRepository"><path codeLine="82" d="M862.23,439.6348 C687.69,439.6348 470.25,439.6348 470.25,439.6348 C470.25,439.6348 470.25,504.9548 470.25,550.3748 " fill="none" id="RoomService-RoomRepository" style="stroke:#181818;stroke-width:1.0;"/></g><!--link RoomService to HouseRepository--><g id="link_RoomService_HouseRepository"><path codeLine="83" d="M1131,453.3148 C1131,489.1448 1131,530.9948 1131,559.5048 " fill="none" id="RoomService-HouseRepository" style="stroke:#181818;stroke-width:1.0;"/></g><!--link RoomService to FactoryRoom--><g id="link_RoomService_FactoryRoom"><path codeLine="84" d="M898.75,453.3148 C898.75,485.5648 898.75,522.6848 898.75,550.5648 " fill="none" id="RoomService-FactoryRoom" style="stroke:#181818;stroke-width:1.0;"/></g><!--link FactoryRoom to Room--><g id="link_FactoryRoom_Room"><path codeLine="85" d="M727,635.7648 C727,661.2248 727,688.2148 727,717.4948 " fill="none" id="FactoryRoom-to-Room" style="stroke:#181818;stroke-width:1.0;stroke-dasharray:7.0,7.0;"/><polygon fill="#181818" points="727,723.4948,731,714.4948,727,718.4948,723,714.4948,727,723.4948" style="stroke:#181818;stroke-width:1.0;"/><text fill="#000000" font-family="sans-serif" font-size="13" lengthAdjust="spacing" textLength="57" x="669" y="675.6531">&#171;creates&#187;</text></g><!--SRC=[dLNBRjim4BphAnReeJPiEKMFWc4qYPCwG1eNSjfSUg6bZSL68bMIJY0K-VVoeGSbsstG8839dUNiSZXhAwfoX6-N7pv6S9wcG83X2mZE2r0SL8QGyRt4u7scL2cZixCo9qpjYtoMyE8ioOcKOKh9Jf0Ya4-KbKIl8ASCLLKYSA4o7WGbIPx83a6YU4O1xsxfBbEV1QdWTs0v8DOLBpbJWkSvYWVSQWJqNsZBR_Gvcc04As_dSDDg2yVTng4fcdMBB_sjd_65b2MAvVswoMa3DcloTRsvXqGWKMXgZ3x5-6kFKbtmjB9LTQPLJN-EenyCOfGbPnAlcAAgcg-tFp5H2oDkdJs5bLPqeuZQozbbV7L-VxKCNeDQ3dlFcoNClwyNlX0tAMh2HueYWeqIbEswCpMnIv-OPkv8WMsUZJxcd8kxVR4r19Gf5ysHxLGMGShtszpfCdcXwJ2KeNcsDgOBQmOKZoH1Mpp6aakgkAXWBlIwxdoIw7Sbb4cdnKMbxpKo-VgJfkC8jfpdI9XBbkGP7Mpr7Bj7xTzIqtEk-i8ieqQqpXScw0friMkZW0lRPOSiQO5CKlrg3kxshZDgjLVLQDoozhLly_rdEw9jUAXjED3M5joXkhMdJSK1y60eZiHNbiS3UYts7NNS8feahW53SynbLZYVwRYjDDDr1nWo0_MOwb7KmswxwHmK3HmLXDfcPc724Lntcy0Pm3-wwWU2IJUvvopTQ8Sr_dCkcNgtQZqo1JF6_NVjssJQZcbjmPunlE7mkeLvVOzsEBelbPCzUV9E_xUf_hWE5Ahd5KuExEYGj9bQpQl_3x-_PxD5qqe4yxcxfrmiJgJ6zRo-BREUuhSb-uFzhnFD4VDByFVSCEpztFXkhY7FWGDqQD01xBlRzqxJNR-rFm00]--></g></svg>