<?xml version="1.0" encoding="us-ascii" standalone="no"?><svg xmlns="http://www.w3.org/2000/svg" xmlns:xlink="http://www.w3.org/1999/xlink" contentStyleType="text/css" height="648px" preserveAspectRatio="none" style="width:1463px;height:648px;background:#FFFFFF;" version="1.1" viewBox="0 0 1463 648" width="1463px" zoomAndPan="magnify"><defs/><g><text fill="#000000" font-family="sans-serif" font-size="14" font-weight="bold" lengthAdjust="spacing" textLength="196" x="626.5" y="25.1074">UC03.1 List Rooms of House</text><!--cluster server--><g id="cluster_server"><path d="M8.5,45.6348 L56.5,45.6348 A3.75,3.75 0 0 1 59,48.1348 L66,70.2559 L1453.5,70.2559 A2.5,2.5 0 0 1 1456,72.7559 L1456,639.1348 A2.5,2.5 0 0 1 1453.5,641.6348 L8.5,641.6348 A2.5,2.5 0 0 1 6,639.1348 L6,48.1348 A2.5,2.5 0 0 1 8.5,45.6348 " fill="#D3D3D3" style="stroke:#000000;stroke-width:1.5;"/><line style="stroke:#000000;stroke-width:1.5;" x1="6" x2="66" y1="70.2559" y2="70.2559"/><text fill="#000000" font-family="sans-serif" font-size="14" font-weight="bold" lengthAdjust="spacing" textLength="47" x="10" y="62.7422">server</text></g><!--class HouseControllerWeb--><g id="elem_HouseControllerWeb"><rect codeLine="7" fill="#F1F1F1" height="159.7266" id="HouseControllerWeb" rx="2.5" ry="2.5" style="stroke:#181818;stroke-width:0.5;" width="464" x="517" y="82.6348"/><ellipse cx="679.25" cy="98.6348" fill="#ADD1B2" rx="11" ry="11" style="stroke:#181818;stroke-width:1.0;"/><path d="M682.0156,94.5098 Q682.1719,94.291 682.3594,94.1816 Q682.5469,94.0723 682.7656,94.0723 Q683.1406,94.0723 683.375,94.3379 Q683.6094,94.5879 683.6094,95.1973 L683.6094,96.6504 Q683.6094,97.2598 683.375,97.5254 Q683.1406,97.791 682.7656,97.791 Q682.4219,97.791 682.2188,97.5879 Q682.0156,97.4004 681.9063,96.8848 Q681.8594,96.5254 681.6719,96.3379 Q681.3438,95.9629 680.7344,95.7441 Q680.125,95.5254 679.5,95.5254 Q678.7344,95.5254 678.0938,95.8535 Q677.4688,96.1816 676.9688,96.9316 Q676.4844,97.6816 676.4844,98.7129 L676.4844,99.8066 Q676.4844,101.041 677.375,101.8691 Q678.2656,102.6816 679.8594,102.6816 Q680.7969,102.6816 681.4531,102.4316 Q681.8438,102.2754 682.2656,101.8379 Q682.5313,101.5723 682.6719,101.4941 Q682.8281,101.416 683.0313,101.416 Q683.3594,101.416 683.6094,101.6816 Q683.875,101.9316 683.875,102.2754 Q683.875,102.6191 683.5313,103.0254 Q683.0313,103.6035 682.2344,103.9316 Q681.1563,104.3848 679.8594,104.3848 Q678.3438,104.3848 677.1406,103.7598 Q676.1563,103.2598 675.4688,102.1973 Q674.7813,101.1191 674.7813,99.8379 L674.7813,98.6816 Q674.7813,97.3535 675.3906,96.2129 Q676.0156,95.0566 677.1094,94.4473 Q678.2031,93.8223 679.4375,93.8223 Q680.1719,93.8223 680.8125,93.9941 Q681.4688,94.1504 682.0156,94.5098 Z " fill="#000000"/><text fill="#000000" font-family="sans-serif" font-size="14" lengthAdjust="spacing" textLength="131" x="699.75" y="104.4316">HouseControllerWeb</text><line style="stroke:#181818;stroke-width:0.5;" x1="518" x2="980" y1="114.6348" y2="114.6348"/><rect fill="none" height="6" style="stroke:#C82930;stroke-width:1.0;" width="6" x="525" y="126.4453"/><text fill="#000000" font-family="sans-serif" font-size="14" lengthAdjust="spacing" textLength="181" x="537" y="133.7422">houseService: HouseService</text><rect fill="none" height="6" style="stroke:#C82930;stroke-width:1.0;" width="6" x="525" y="145.0664"/><text fill="#000000" font-family="sans-serif" font-size="14" lengthAdjust="spacing" textLength="113" x="537" y="152.3633">houseID: HouseID</text><rect fill="none" height="6" style="stroke:#C82930;stroke-width:1.0;" width="6" x="525" y="163.6875"/><text fill="#000000" font-family="sans-serif" font-size="14" lengthAdjust="spacing" textLength="171" x="537" y="170.9844">roomService: RoomService</text><rect fill="none" height="6" style="stroke:#C82930;stroke-width:1.0;" width="6" x="525" y="182.3086"/><text fill="#000000" font-family="sans-serif" font-size="14" lengthAdjust="spacing" textLength="233" x="537" y="189.6055">roomMapperDTO: RoomMapperDTO</text><line style="stroke:#181818;stroke-width:0.5;" x1="518" x2="980" y1="197.1191" y2="197.1191"/><ellipse cx="528" cy="221.2402" fill="#84BE84" rx="3" ry="3" style="stroke:#038048;stroke-width:1.0;"/><text fill="#000000" font-family="sans-serif" font-size="14" lengthAdjust="spacing" textLength="438" x="537" y="216.2266">GET getListOfRoomsInHouse(@PathVariable("id") String houseIDstr):</text><text fill="#000000" font-family="sans-serif" font-size="14" lengthAdjust="spacing" textLength="306" x="537" y="234.8477">ResponseEntity&lt;&gt;(roomDTOList, HttpStatus.OK)</text></g><!--class HouseService--><g id="elem_HouseService"><rect codeLine="15" fill="#F1F1F1" height="103.8633" id="HouseService" rx="2.5" ry="2.5" style="stroke:#181818;stroke-width:0.5;" width="271" x="450.5" y="311.6348"/><ellipse cx="538.25" cy="327.6348" fill="#ADD1B2" rx="11" ry="11" style="stroke:#181818;stroke-width:1.0;"/><path d="M541.0156,323.5098 Q541.1719,323.291 541.3594,323.1816 Q541.5469,323.0723 541.7656,323.0723 Q542.1406,323.0723 542.375,323.3379 Q542.6094,323.5879 542.6094,324.1973 L542.6094,325.6504 Q542.6094,326.2598 542.375,326.5254 Q542.1406,326.791 541.7656,326.791 Q541.4219,326.791 541.2188,326.5879 Q541.0156,326.4004 540.9063,325.8848 Q540.8594,325.5254 540.6719,325.3379 Q540.3438,324.9629 539.7344,324.7441 Q539.125,324.5254 538.5,324.5254 Q537.7344,324.5254 537.0938,324.8535 Q536.4688,325.1816 535.9688,325.9316 Q535.4844,326.6816 535.4844,327.7129 L535.4844,328.8066 Q535.4844,330.041 536.375,330.8691 Q537.2656,331.6816 538.8594,331.6816 Q539.7969,331.6816 540.4531,331.4316 Q540.8438,331.2754 541.2656,330.8379 Q541.5313,330.5723 541.6719,330.4941 Q541.8281,330.416 542.0313,330.416 Q542.3594,330.416 542.6094,330.6816 Q542.875,330.9316 542.875,331.2754 Q542.875,331.6191 542.5313,332.0254 Q542.0313,332.6035 541.2344,332.9316 Q540.1563,333.3848 538.8594,333.3848 Q537.3438,333.3848 536.1406,332.7598 Q535.1563,332.2598 534.4688,331.1973 Q533.7813,330.1191 533.7813,328.8379 L533.7813,327.6816 Q533.7813,326.3535 534.3906,325.2129 Q535.0156,324.0566 536.1094,323.4473 Q537.2031,322.8223 538.4375,322.8223 Q539.1719,322.8223 539.8125,322.9941 Q540.4688,323.1504 541.0156,323.5098 Z " fill="#000000"/><text fill="#000000" font-family="sans-serif" font-size="14" lengthAdjust="spacing" textLength="87" x="558.75" y="333.4316">HouseService</text><line style="stroke:#181818;stroke-width:0.5;" x1="451.5" x2="720.5" y1="343.6348" y2="343.6348"/><rect fill="none" height="6" style="stroke:#C82930;stroke-width:1.0;" width="6" x="458.5" y="355.4453"/><text fill="#000000" font-family="sans-serif" font-size="14" lengthAdjust="spacing" textLength="223" x="470.5" y="362.7422">houseRepository: HouseRepository</text><rect fill="none" height="6" style="stroke:#C82930;stroke-width:1.0;" width="6" x="458.5" y="374.0664"/><text fill="#000000" font-family="sans-serif" font-size="14" lengthAdjust="spacing" textLength="179" x="470.5" y="381.3633">factoryHouse: FactoryHouse</text><line style="stroke:#181818;stroke-width:0.5;" x1="451.5" x2="720.5" y1="388.877" y2="388.877"/><ellipse cx="461.5" cy="403.6875" fill="#84BE84" rx="3" ry="3" style="stroke:#038048;stroke-width:1.0;"/><text fill="#000000" font-family="sans-serif" font-size="14" lengthAdjust="spacing" textLength="245" x="470.5" y="407.9844">getHouseIDFromRepository(): HouseID</text></g><!--class HouseRepository--><g id="elem_HouseRepository"><rect codeLine="21" fill="#F1F1F1" height="103.8633" id="HouseRepository" rx="2.5" ry="2.5" style="stroke:#181818;stroke-width:0.5;" width="349" x="257.5" y="503.1348"/><ellipse cx="358.75" cy="519.1348" fill="#B4A7E5" rx="11" ry="11" style="stroke:#181818;stroke-width:1.0;"/><path d="M359.7031,515.7754 L359.7031,522.4316 L361.4219,522.4316 Q362.0313,522.4316 362.2969,522.666 Q362.5625,522.9004 362.5625,523.291 Q362.5625,523.666 362.2969,523.9004 Q362.0313,524.1348 361.4219,524.1348 L356.2813,524.1348 Q355.6719,524.1348 355.4063,523.9004 Q355.1406,523.666 355.1406,523.2754 Q355.1406,522.9004 355.4063,522.666 Q355.6719,522.4316 356.2813,522.4316 L358,522.4316 L358,515.7754 L356.2813,515.7754 Q355.6719,515.7754 355.4063,515.541 Q355.1406,515.3066 355.1406,514.916 Q355.1406,514.541 355.4063,514.3066 Q355.6719,514.0723 356.2813,514.0723 L361.4219,514.0723 Q362.0313,514.0723 362.2969,514.3066 Q362.5625,514.541 362.5625,514.916 Q362.5625,515.3066 362.2969,515.541 Q362.0313,515.7754 361.4219,515.7754 L359.7031,515.7754 Z " fill="#000000"/><text fill="#000000" font-family="sans-serif" font-size="14" font-style="italic" lengthAdjust="spacing" textLength="109" x="379.25" y="524.9316">HouseRepository</text><rect fill="#FFFFFF" height="17.9609" style="stroke:#181818;stroke-width:1.0;stroke-dasharray:2.0,2.0;" width="27" x="582.5" y="500.1348"/><text fill="#000000" font-family="sans-serif" font-size="12" font-style="italic" lengthAdjust="spacing" textLength="25" x="583.5" y="514.084">repo</text><line style="stroke:#181818;stroke-width:0.5;" x1="258.5" x2="605.5" y1="535.1348" y2="535.1348"/><line style="stroke:#181818;stroke-width:0.5;" x1="258.5" x2="605.5" y1="543.1348" y2="543.1348"/><ellipse cx="268.5" cy="557.9453" fill="#84BE84" rx="3" ry="3" style="stroke:#038048;stroke-width:1.0;"/><text fill="#000000" font-family="sans-serif" font-size="14" lengthAdjust="spacing" textLength="205" x="277.5" y="562.2422">findAllEntities(): Iterable&lt;House&gt;</text><ellipse cx="268.5" cy="576.5664" fill="#84BE84" rx="3" ry="3" style="stroke:#038048;stroke-width:1.0;"/><text fill="#000000" font-family="sans-serif" font-size="14" lengthAdjust="spacing" textLength="142" x="277.5" y="580.8633">update(House): House</text><ellipse cx="268.5" cy="595.1875" fill="#84BE84" rx="3" ry="3" style="stroke:#038048;stroke-width:1.0;"/><text fill="#000000" font-family="sans-serif" font-size="14" lengthAdjust="spacing" textLength="323" x="277.5" y="599.4844">findEntityByID(HouseID houseID): Optional&lt;House&gt;</text></g><!--class House--><g id="elem_House"><rect codeLine="27" fill="#F1F1F1" height="66.6211" id="House" rx="2.5" ry="2.5" style="stroke:#181818;stroke-width:0.5;" width="195" x="641.5" y="521.6348"/><ellipse cx="702.25" cy="537.6348" fill="#ADD1B2" rx="11" ry="11" style="stroke:#181818;stroke-width:1.0;"/><path d="M705.0156,533.5098 Q705.1719,533.291 705.3594,533.1816 Q705.5469,533.0723 705.7656,533.0723 Q706.1406,533.0723 706.375,533.3379 Q706.6094,533.5879 706.6094,534.1973 L706.6094,535.6504 Q706.6094,536.2598 706.375,536.5254 Q706.1406,536.791 705.7656,536.791 Q705.4219,536.791 705.2188,536.5879 Q705.0156,536.4004 704.9063,535.8848 Q704.8594,535.5254 704.6719,535.3379 Q704.3438,534.9629 703.7344,534.7441 Q703.125,534.5254 702.5,534.5254 Q701.7344,534.5254 701.0938,534.8535 Q700.4688,535.1816 699.9688,535.9316 Q699.4844,536.6816 699.4844,537.7129 L699.4844,538.8066 Q699.4844,540.041 700.375,540.8691 Q701.2656,541.6816 702.8594,541.6816 Q703.7969,541.6816 704.4531,541.4316 Q704.8438,541.2754 705.2656,540.8379 Q705.5313,540.5723 705.6719,540.4941 Q705.8281,540.416 706.0313,540.416 Q706.3594,540.416 706.6094,540.6816 Q706.875,540.9316 706.875,541.2754 Q706.875,541.6191 706.5313,542.0254 Q706.0313,542.6035 705.2344,542.9316 Q704.1563,543.3848 702.8594,543.3848 Q701.3438,543.3848 700.1406,542.7598 Q699.1563,542.2598 698.4688,541.1973 Q697.7813,540.1191 697.7813,538.8379 L697.7813,537.6816 Q697.7813,536.3535 698.3906,535.2129 Q699.0156,534.0566 700.1094,533.4473 Q701.2031,532.8223 702.4375,532.8223 Q703.1719,532.8223 703.8125,532.9941 Q704.4688,533.1504 705.0156,533.5098 Z " fill="#000000"/><text fill="#000000" font-family="sans-serif" font-size="14" lengthAdjust="spacing" textLength="40" x="722.75" y="543.4316">House</text><rect fill="#FFFFFF" height="17.9609" style="stroke:#181818;stroke-width:1.0;stroke-dasharray:2.0,2.0;" width="23" x="816.5" y="518.6348"/><text fill="#000000" font-family="sans-serif" font-size="12" font-style="italic" lengthAdjust="spacing" textLength="21" x="817.5" y="532.584">root</text><line style="stroke:#181818;stroke-width:0.5;" x1="642.5" x2="835.5" y1="553.6348" y2="553.6348"/><rect fill="none" height="6" style="stroke:#C82930;stroke-width:1.0;" width="6" x="649.5" y="565.4453"/><text fill="#000000" font-family="sans-serif" font-size="14" lengthAdjust="spacing" textLength="169" x="661.5" y="572.7422">houseID: HouseID houseID</text><line style="stroke:#181818;stroke-width:0.5;" x1="642.5" x2="835.5" y1="580.2559" y2="580.2559"/></g><!--class HouseID--><g id="elem_HouseID"><rect codeLine="31" fill="#F1F1F1" height="66.6211" id="HouseID" rx="2.5" ry="2.5" style="stroke:#181818;stroke-width:0.5;" width="164" x="757" y="330.1348"/><ellipse cx="798.1" cy="346.1348" fill="#ADD1B2" rx="11" ry="11" style="stroke:#181818;stroke-width:1.0;"/><path d="M800.8656,342.0098 Q801.0219,341.791 801.2094,341.6816 Q801.3969,341.5723 801.6156,341.5723 Q801.9906,341.5723 802.225,341.8379 Q802.4594,342.0879 802.4594,342.6973 L802.4594,344.1504 Q802.4594,344.7598 802.225,345.0254 Q801.9906,345.291 801.6156,345.291 Q801.2719,345.291 801.0688,345.0879 Q800.8656,344.9004 800.7563,344.3848 Q800.7094,344.0254 800.5219,343.8379 Q800.1938,343.4629 799.5844,343.2441 Q798.975,343.0254 798.35,343.0254 Q797.5844,343.0254 796.9438,343.3535 Q796.3188,343.6816 795.8188,344.4316 Q795.3344,345.1816 795.3344,346.2129 L795.3344,347.3066 Q795.3344,348.541 796.225,349.3691 Q797.1156,350.1816 798.7094,350.1816 Q799.6469,350.1816 800.3031,349.9316 Q800.6938,349.7754 801.1156,349.3379 Q801.3813,349.0723 801.5219,348.9941 Q801.6781,348.916 801.8813,348.916 Q802.2094,348.916 802.4594,349.1816 Q802.725,349.4316 802.725,349.7754 Q802.725,350.1191 802.3813,350.5254 Q801.8813,351.1035 801.0844,351.4316 Q800.0063,351.8848 798.7094,351.8848 Q797.1938,351.8848 795.9906,351.2598 Q795.0063,350.7598 794.3188,349.6973 Q793.6313,348.6191 793.6313,347.3379 L793.6313,346.1816 Q793.6313,344.8535 794.2406,343.7129 Q794.8656,342.5566 795.9594,341.9473 Q797.0531,341.3223 798.2875,341.3223 Q799.0219,341.3223 799.6625,341.4941 Q800.3188,341.6504 800.8656,342.0098 Z " fill="#000000"/><text fill="#000000" font-family="sans-serif" font-size="14" lengthAdjust="spacing" textLength="53" x="817.9" y="351.9316">HouseID</text><rect fill="#FFFFFF" height="17.9609" style="stroke:#181818;stroke-width:1.0;stroke-dasharray:2.0,2.0;" width="19" x="905" y="327.1348"/><text fill="#000000" font-family="sans-serif" font-size="12" font-style="italic" lengthAdjust="spacing" textLength="17" x="906" y="341.084">VO</text><line style="stroke:#181818;stroke-width:0.5;" x1="758" x2="920" y1="362.1348" y2="362.1348"/><ellipse cx="768" cy="376.9453" fill="none" rx="3" ry="3" style="stroke:#038048;stroke-width:1.0;"/><text fill="#000000" font-family="sans-serif" font-size="14" lengthAdjust="spacing" textLength="138" x="777" y="381.2422">houseIdentifier: String</text><line style="stroke:#181818;stroke-width:0.5;" x1="758" x2="920" y1="388.7559" y2="388.7559"/></g><!--class RoomMapperDTO--><g id="elem_RoomMapperDTO"><rect codeLine="35" fill="#F1F1F1" height="85.2422" id="RoomMapperDTO" rx="2.5" ry="2.5" style="stroke:#181818;stroke-width:0.5;" width="483" x="956.5" y="321.1348"/><ellipse cx="1136.25" cy="337.1348" fill="#ADD1B2" rx="11" ry="11" style="stroke:#181818;stroke-width:1.0;"/><path d="M1139.0156,333.0098 Q1139.1719,332.791 1139.3594,332.6816 Q1139.5469,332.5723 1139.7656,332.5723 Q1140.1406,332.5723 1140.375,332.8379 Q1140.6094,333.0879 1140.6094,333.6973 L1140.6094,335.1504 Q1140.6094,335.7598 1140.375,336.0254 Q1140.1406,336.291 1139.7656,336.291 Q1139.4219,336.291 1139.2188,336.0879 Q1139.0156,335.9004 1138.9063,335.3848 Q1138.8594,335.0254 1138.6719,334.8379 Q1138.3438,334.4629 1137.7344,334.2441 Q1137.125,334.0254 1136.5,334.0254 Q1135.7344,334.0254 1135.0938,334.3535 Q1134.4688,334.6816 1133.9688,335.4316 Q1133.4844,336.1816 1133.4844,337.2129 L1133.4844,338.3066 Q1133.4844,339.541 1134.375,340.3691 Q1135.2656,341.1816 1136.8594,341.1816 Q1137.7969,341.1816 1138.4531,340.9316 Q1138.8438,340.7754 1139.2656,340.3379 Q1139.5313,340.0723 1139.6719,339.9941 Q1139.8281,339.916 1140.0313,339.916 Q1140.3594,339.916 1140.6094,340.1816 Q1140.875,340.4316 1140.875,340.7754 Q1140.875,341.1191 1140.5313,341.5254 Q1140.0313,342.1035 1139.2344,342.4316 Q1138.1563,342.8848 1136.8594,342.8848 Q1135.3438,342.8848 1134.1406,342.2598 Q1133.1563,341.7598 1132.4688,340.6973 Q1131.7813,339.6191 1131.7813,338.3379 L1131.7813,337.1816 Q1131.7813,335.8535 1132.3906,334.7129 Q1133.0156,333.5566 1134.1094,332.9473 Q1135.2031,332.3223 1136.4375,332.3223 Q1137.1719,332.3223 1137.8125,332.4941 Q1138.4688,332.6504 1139.0156,333.0098 Z " fill="#000000"/><text fill="#000000" font-family="sans-serif" font-size="14" lengthAdjust="spacing" textLength="115" x="1156.75" y="342.9316">RoomMapperDTO</text><line style="stroke:#181818;stroke-width:0.5;" x1="957.5" x2="1438.5" y1="353.1348" y2="353.1348"/><line style="stroke:#181818;stroke-width:0.5;" x1="957.5" x2="1438.5" y1="361.1348" y2="361.1348"/><ellipse cx="967.5" cy="375.9453" fill="#84BE84" rx="3" ry="3" style="stroke:#038048;stroke-width:1.0;"/><text fill="#000000" font-family="sans-serif" font-size="14" lengthAdjust="spacing" textLength="263" x="976.5" y="380.2422">roomToDTO(RoomID roomID): RoomDTO</text><ellipse cx="967.5" cy="394.5664" fill="#84BE84" rx="3" ry="3" style="stroke:#038048;stroke-width:1.0;"/><text fill="#000000" font-family="sans-serif" font-size="14" lengthAdjust="spacing" textLength="457" x="976.5" y="398.8633">roomIDsToDTOList(Iterable&lt;RoomID&gt; listOfRoomsIDs): List&lt;RoomDTO&gt;</text></g><!--class RoomDTO--><g id="elem_RoomDTO"><rect codeLine="40" fill="#F1F1F1" height="141.1055" id="RoomDTO" rx="2.5" ry="2.5" style="stroke:#181818;stroke-width:0.5;" width="139" x="1128.5" y="484.6348"/><ellipse cx="1161.5" cy="500.6348" fill="#ADD1B2" rx="11" ry="11" style="stroke:#181818;stroke-width:1.0;"/><path d="M1164.2656,496.5098 Q1164.4219,496.291 1164.6094,496.1816 Q1164.7969,496.0723 1165.0156,496.0723 Q1165.3906,496.0723 1165.625,496.3379 Q1165.8594,496.5879 1165.8594,497.1973 L1165.8594,498.6504 Q1165.8594,499.2598 1165.625,499.5254 Q1165.3906,499.791 1165.0156,499.791 Q1164.6719,499.791 1164.4688,499.5879 Q1164.2656,499.4004 1164.1563,498.8848 Q1164.1094,498.5254 1163.9219,498.3379 Q1163.5938,497.9629 1162.9844,497.7441 Q1162.375,497.5254 1161.75,497.5254 Q1160.9844,497.5254 1160.3438,497.8535 Q1159.7188,498.1816 1159.2188,498.9316 Q1158.7344,499.6816 1158.7344,500.7129 L1158.7344,501.8066 Q1158.7344,503.041 1159.625,503.8691 Q1160.5156,504.6816 1162.1094,504.6816 Q1163.0469,504.6816 1163.7031,504.4316 Q1164.0938,504.2754 1164.5156,503.8379 Q1164.7813,503.5723 1164.9219,503.4941 Q1165.0781,503.416 1165.2813,503.416 Q1165.6094,503.416 1165.8594,503.6816 Q1166.125,503.9316 1166.125,504.2754 Q1166.125,504.6191 1165.7813,505.0254 Q1165.2813,505.6035 1164.4844,505.9316 Q1163.4063,506.3848 1162.1094,506.3848 Q1160.5938,506.3848 1159.3906,505.7598 Q1158.4063,505.2598 1157.7188,504.1973 Q1157.0313,503.1191 1157.0313,501.8379 L1157.0313,500.6816 Q1157.0313,499.3535 1157.6406,498.2129 Q1158.2656,497.0566 1159.3594,496.4473 Q1160.4531,495.8223 1161.6875,495.8223 Q1162.4219,495.8223 1163.0625,495.9941 Q1163.7188,496.1504 1164.2656,496.5098 Z " fill="#000000"/><text fill="#000000" font-family="sans-serif" font-size="14" lengthAdjust="spacing" textLength="67" x="1179.5" y="506.4316">RoomDTO</text><line style="stroke:#181818;stroke-width:0.5;" x1="1129.5" x2="1266.5" y1="516.6348" y2="516.6348"/><ellipse cx="1139.5" cy="531.4453" fill="none" rx="3" ry="3" style="stroke:#038048;stroke-width:1.0;"/><text fill="#000000" font-family="sans-serif" font-size="14" lengthAdjust="spacing" textLength="113" x="1148.5" y="535.7422">roomName: String</text><ellipse cx="1139.5" cy="550.0664" fill="none" rx="3" ry="3" style="stroke:#038048;stroke-width:1.0;"/><text fill="#000000" font-family="sans-serif" font-size="14" lengthAdjust="spacing" textLength="100" x="1148.5" y="554.3633">floorNumber: int</text><ellipse cx="1139.5" cy="568.6875" fill="none" rx="3" ry="3" style="stroke:#038048;stroke-width:1.0;"/><text fill="#000000" font-family="sans-serif" font-size="14" lengthAdjust="spacing" textLength="83" x="1148.5" y="572.9844">width: double</text><ellipse cx="1139.5" cy="587.3086" fill="none" rx="3" ry="3" style="stroke:#038048;stroke-width:1.0;"/><text fill="#000000" font-family="sans-serif" font-size="14" lengthAdjust="spacing" textLength="90" x="1148.5" y="591.6055">length: double</text><ellipse cx="1139.5" cy="605.9297" fill="none" rx="3" ry="3" style="stroke:#038048;stroke-width:1.0;"/><text fill="#000000" font-family="sans-serif" font-size="14" lengthAdjust="spacing" textLength="90" x="1148.5" y="610.2266">height: double</text><line style="stroke:#181818;stroke-width:0.5;" x1="1129.5" x2="1266.5" y1="617.7402" y2="617.7402"/></g><!--class RoomRepository--><g id="elem_RoomRepository"><rect codeLine="48" fill="#F1F1F1" height="66.6211" id="RoomRepository" rx="2.5" ry="2.5" style="stroke:#181818;stroke-width:0.5;" width="345" x="46.5" y="129.1348"/><ellipse cx="162.25" cy="145.1348" fill="#ADD1B2" rx="11" ry="11" style="stroke:#181818;stroke-width:1.0;"/><path d="M165.0156,141.0098 Q165.1719,140.791 165.3594,140.6816 Q165.5469,140.5723 165.7656,140.5723 Q166.1406,140.5723 166.375,140.8379 Q166.6094,141.0879 166.6094,141.6973 L166.6094,143.1504 Q166.6094,143.7598 166.375,144.0254 Q166.1406,144.291 165.7656,144.291 Q165.4219,144.291 165.2188,144.0879 Q165.0156,143.9004 164.9063,143.3848 Q164.8594,143.0254 164.6719,142.8379 Q164.3438,142.4629 163.7344,142.2441 Q163.125,142.0254 162.5,142.0254 Q161.7344,142.0254 161.0938,142.3535 Q160.4688,142.6816 159.9688,143.4316 Q159.4844,144.1816 159.4844,145.2129 L159.4844,146.3066 Q159.4844,147.541 160.375,148.3691 Q161.2656,149.1816 162.8594,149.1816 Q163.7969,149.1816 164.4531,148.9316 Q164.8438,148.7754 165.2656,148.3379 Q165.5313,148.0723 165.6719,147.9941 Q165.8281,147.916 166.0313,147.916 Q166.3594,147.916 166.6094,148.1816 Q166.875,148.4316 166.875,148.7754 Q166.875,149.1191 166.5313,149.5254 Q166.0313,150.1035 165.2344,150.4316 Q164.1563,150.8848 162.8594,150.8848 Q161.3438,150.8848 160.1406,150.2598 Q159.1563,149.7598 158.4688,148.6973 Q157.7813,147.6191 157.7813,146.3379 L157.7813,145.1816 Q157.7813,143.8535 158.3906,142.7129 Q159.0156,141.5566 160.1094,140.9473 Q161.2031,140.3223 162.4375,140.3223 Q163.1719,140.3223 163.8125,140.4941 Q164.4688,140.6504 165.0156,141.0098 Z " fill="#000000"/><text fill="#000000" font-family="sans-serif" font-size="14" lengthAdjust="spacing" textLength="105" x="182.75" y="150.9316">RoomRepository</text><line style="stroke:#181818;stroke-width:0.5;" x1="47.5" x2="390.5" y1="161.1348" y2="161.1348"/><line style="stroke:#181818;stroke-width:0.5;" x1="47.5" x2="390.5" y1="169.1348" y2="169.1348"/><ellipse cx="57.5" cy="183.9453" fill="#84BE84" rx="3" ry="3" style="stroke:#038048;stroke-width:1.0;"/><text fill="#000000" font-family="sans-serif" font-size="14" lengthAdjust="spacing" textLength="319" x="66.5" y="188.2422">findByHouseID(HouseID houseID): Iterable&lt;Room&gt;</text></g><!--class RoomService--><g id="elem_RoomService"><rect codeLine="53" fill="#F1F1F1" height="122.4844" id="RoomService" rx="2.5" ry="2.5" style="stroke:#181818;stroke-width:0.5;" width="393" x="22.5" y="302.6348"/><ellipse cx="172.75" cy="318.6348" fill="#ADD1B2" rx="11" ry="11" style="stroke:#181818;stroke-width:1.0;"/><path d="M175.5156,314.5098 Q175.6719,314.291 175.8594,314.1816 Q176.0469,314.0723 176.2656,314.0723 Q176.6406,314.0723 176.875,314.3379 Q177.1094,314.5879 177.1094,315.1973 L177.1094,316.6504 Q177.1094,317.2598 176.875,317.5254 Q176.6406,317.791 176.2656,317.791 Q175.9219,317.791 175.7188,317.5879 Q175.5156,317.4004 175.4063,316.8848 Q175.3594,316.5254 175.1719,316.3379 Q174.8438,315.9629 174.2344,315.7441 Q173.625,315.5254 173,315.5254 Q172.2344,315.5254 171.5938,315.8535 Q170.9688,316.1816 170.4688,316.9316 Q169.9844,317.6816 169.9844,318.7129 L169.9844,319.8066 Q169.9844,321.041 170.875,321.8691 Q171.7656,322.6816 173.3594,322.6816 Q174.2969,322.6816 174.9531,322.4316 Q175.3438,322.2754 175.7656,321.8379 Q176.0313,321.5723 176.1719,321.4941 Q176.3281,321.416 176.5313,321.416 Q176.8594,321.416 177.1094,321.6816 Q177.375,321.9316 177.375,322.2754 Q177.375,322.6191 177.0313,323.0254 Q176.5313,323.6035 175.7344,323.9316 Q174.6563,324.3848 173.3594,324.3848 Q171.8438,324.3848 170.6406,323.7598 Q169.6563,323.2598 168.9688,322.1973 Q168.2813,321.1191 168.2813,319.8379 L168.2813,318.6816 Q168.2813,317.3535 168.8906,316.2129 Q169.5156,315.0566 170.6094,314.4473 Q171.7031,313.8223 172.9375,313.8223 Q173.6719,313.8223 174.3125,313.9941 Q174.9688,314.1504 175.5156,314.5098 Z " fill="#000000"/><text fill="#000000" font-family="sans-serif" font-size="14" lengthAdjust="spacing" textLength="84" x="193.25" y="324.4316">RoomService</text><line style="stroke:#181818;stroke-width:0.5;" x1="23.5" x2="414.5" y1="334.6348" y2="334.6348"/><rect fill="none" height="6" style="stroke:#C82930;stroke-width:1.0;" width="6" x="30.5" y="346.4453"/><text fill="#000000" font-family="sans-serif" font-size="14" lengthAdjust="spacing" textLength="213" x="42.5" y="353.7422">roomRepository: RoomRepository</text><rect fill="none" height="6" style="stroke:#C82930;stroke-width:1.0;" width="6" x="30.5" y="365.0664"/><text fill="#000000" font-family="sans-serif" font-size="14" lengthAdjust="spacing" textLength="173" x="42.5" y="372.3633">factoryRoom: FactoryRoom</text><rect fill="none" height="6" style="stroke:#C82930;stroke-width:1.0;" width="6" x="30.5" y="383.6875"/><text fill="#000000" font-family="sans-serif" font-size="14" lengthAdjust="spacing" textLength="223" x="42.5" y="390.9844">houseRepository: HouseRepository</text><line style="stroke:#181818;stroke-width:0.5;" x1="23.5" x2="414.5" y1="398.498" y2="398.498"/><ellipse cx="33.5" cy="413.3086" fill="#84BE84" rx="3" ry="3" style="stroke:#038048;stroke-width:1.0;"/><text fill="#000000" font-family="sans-serif" font-size="14" lengthAdjust="spacing" textLength="367" x="42.5" y="417.6055">getListOfRoomsInHouse(HouseID houseID): List&lt;RoomID&gt;</text></g><!--link HouseControllerWeb to HouseService--><g id="link_HouseControllerWeb_HouseService"><path codeLine="60" d="M619.25,242.6548 C619.25,265.8648 619.25,290.5948 619.25,311.6048 " fill="none" id="HouseControllerWeb-HouseService" style="stroke:#181818;stroke-width:1.0;"/></g><!--link HouseControllerWeb to HouseID--><g id="link_HouseControllerWeb_HouseID"><path codeLine="61" d="M839,242.6548 C839,273.0848 839,300.1348 839,323.9948 " fill="none" id="HouseControllerWeb-to-HouseID" style="stroke:#181818;stroke-width:1.0;stroke-dasharray:7.0,7.0;"/><polygon fill="#181818" points="839,329.9948,843,320.9948,839,324.9948,835,320.9948,839,329.9948" style="stroke:#181818;stroke-width:1.0;"/><text fill="#000000" font-family="sans-serif" font-size="13" lengthAdjust="spacing" textLength="57" x="781" y="282.3531">&#171;creates&#187;</text></g><!--link HouseControllerWeb to RoomService--><g id="link_HouseControllerWeb_RoomService"><path codeLine="62" d="M516.63,219.6348 C454.13,219.6348 403.5,219.6348 403.5,219.6348 C403.5,219.6348 403.5,263.3148 403.5,302.5648 " fill="none" id="HouseControllerWeb-RoomService" style="stroke:#181818;stroke-width:1.0;"/></g><!--link HouseControllerWeb to RoomMapperDTO--><g id="link_HouseControllerWeb_RoomMapperDTO"><path codeLine="63" d="M968.75,242.6548 C968.75,269.4748 968.75,298.3248 968.75,321.1248 " fill="none" id="HouseControllerWeb-RoomMapperDTO" style="stroke:#181818;stroke-width:1.0;"/></g><!--link HouseService to HouseRepository--><g id="link_HouseService_HouseRepository"><path codeLine="64" d="M528.5,415.7148 C528.5,442.8448 528.5,475.9348 528.5,503.0748 " fill="none" id="HouseService-HouseRepository" style="stroke:#181818;stroke-width:1.0;"/></g><!--link HouseService to House--><g id="link_HouseService_House"><path codeLine="65" d="M681.5,415.7148 C681.5,449.3848 681.5,486.2148 681.5,515.4648 " fill="none" id="HouseService-to-House" style="stroke:#181818;stroke-width:1.0;stroke-dasharray:7.0,7.0;"/><polygon fill="#181818" points="681.5,521.4648,685.5,512.4648,681.5,516.4648,677.5,512.4648,681.5,521.4648" style="stroke:#181818;stroke-width:1.0;"/><text fill="#000000" font-family="sans-serif" font-size="13" lengthAdjust="spacing" textLength="42" x="638.5" y="464.6231">&#171;uses&#187;</text></g><!--link RoomRepository to RoomService--><g id="link_RoomRepository_RoomService"><path codeLine="66" d="M219,196.2748 C219,225.2248 219,267.7048 219,302.6348 " fill="none" id="RoomRepository-RoomService" style="stroke:#181818;stroke-width:1.0;"/></g><!--link RoomMapperDTO to RoomDTO--><g id="link_RoomMapperDTO_RoomDTO"><path codeLine="67" d="M1198,406.1348 C1198,429.1648 1198,458.2248 1198,484.5448 " fill="none" id="RoomMapperDTO-RoomDTO" style="stroke:#181818;stroke-width:1.0;"/><text fill="#000000" font-family="sans-serif" font-size="13" lengthAdjust="spacing" textLength="57" x="1140" y="441.3731">&#171;creates&#187;</text></g><!--SRC=[XLHDRzim3BtxLmZTnO7NOCDkWM5iRVeHh6k69EikkoWn7Gjr94DYDXZ5_dj9VojBiPDDaNny99-42WiGFwu_V9f-50_AeLWPSt32PEBU71q4WNjMkfHM7aIXD61LWZ0MSnC4fTmzopq81_OtMF7kGUrplBEo4Yz1i2kaSmt6jT5eJL60_GbRyWbncVFvclBK3cPDL6lrtiMyTIpcV6Q9Lf-m6epEzqsM9TZvPjbuUvFyqTtDHkm1kRrbLlUtq3Lq-FcxnFn9MYMt1OGNAhsOY3LQfVUY9U7GJcQ_z0fSQRI36uqAgpW9kIR1C-PxSOzOhb7YqKsNNoV1Nw_zbkYeyHMKnYaqjcfR70uu9fCx_gqzCt4xihWPQgGTowqrXo4pd0pp8W9A8rX2WjCA8hRqdp2RA5Cw_L8KTLCA74CiA8s74TTf2KSTorGYXFL1LwJBRkPnLItcOLky6nn5BajKHikYm_BdGaICmUJbtCOxa9CKSiHFopg5wZSnAH25J86TjPiRSZmXqFmZNjh6a16oYz1i_Paqcc6rHCs9gwDukM4_a2ObeMimo6ZkA9V3uXOWyQkFwZxA0_GKewmmnZuU3rlcJRiAeZygnNmcKdEaOa5KWDwFxHpuTlMsLsMqN2h6QxcgsdcTsOhNKCrt13M8jRvLOwNwbO9EfdpSgvIDuFyYZyxVnd-vzgEbmJFJC-_9vQN_Vfm9cKwJJZyp4SSx2wHdboHlm8rVbxSZXXV6k-KTdL6tdh_dmapempHETdX2mLSnEJjbURsy0W00]--></g></svg>