<?xml version="1.0" encoding="us-ascii" standalone="no"?><svg xmlns="http://www.w3.org/2000/svg" xmlns:xlink="http://www.w3.org/1999/xlink" contentStyleType="text/css" height="686px" preserveAspectRatio="none" style="width:1152px;height:686px;background:#FFFFFF;" version="1.1" viewBox="0 0 1152 686" width="1152px" zoomAndPan="magnify"><defs/><g><text fill="#000000" font-family="sans-serif" font-size="14" font-weight="bold" lengthAdjust="spacing" textLength="123" x="507.5" y="25.1074">UC03.2 Edit Room</text><!--cluster server--><g id="cluster_server"><path d="M8.5,45.6348 L56.5,45.6348 A3.75,3.75 0 0 1 59,48.1348 L66,70.2559 L1142.5,70.2559 A2.5,2.5 0 0 1 1145,72.7559 L1145,677.1348 A2.5,2.5 0 0 1 1142.5,679.6348 L8.5,679.6348 A2.5,2.5 0 0 1 6,677.1348 L6,48.1348 A2.5,2.5 0 0 1 8.5,45.6348 " fill="#D3D3D3" style="stroke:#000000;stroke-width:1.5;"/><line style="stroke:#000000;stroke-width:1.5;" x1="6" x2="66" y1="70.2559" y2="70.2559"/><text fill="#000000" font-family="sans-serif" font-size="14" font-weight="bold" lengthAdjust="spacing" textLength="47" x="10" y="62.7422">server</text></g><!--class RoomControllerWeb--><g id="elem_RoomControllerWeb"><rect codeLine="7" fill="#F1F1F1" height="159.7266" id="RoomControllerWeb" rx="2.5" ry="2.5" style="stroke:#181818;stroke-width:0.5;" width="545" x="161.5" y="82.6348"/><ellipse cx="365.75" cy="98.6348" fill="#ADD1B2" rx="11" ry="11" style="stroke:#181818;stroke-width:1.0;"/><path d="M368.5156,94.5098 Q368.6719,94.291 368.8594,94.1816 Q369.0469,94.0723 369.2656,94.0723 Q369.6406,94.0723 369.875,94.3379 Q370.1094,94.5879 370.1094,95.1973 L370.1094,96.6504 Q370.1094,97.2598 369.875,97.5254 Q369.6406,97.791 369.2656,97.791 Q368.9219,97.791 368.7188,97.5879 Q368.5156,97.4004 368.4063,96.8848 Q368.3594,96.5254 368.1719,96.3379 Q367.8438,95.9629 367.2344,95.7441 Q366.625,95.5254 366,95.5254 Q365.2344,95.5254 364.5938,95.8535 Q363.9688,96.1816 363.4688,96.9316 Q362.9844,97.6816 362.9844,98.7129 L362.9844,99.8066 Q362.9844,101.041 363.875,101.8691 Q364.7656,102.6816 366.3594,102.6816 Q367.2969,102.6816 367.9531,102.4316 Q368.3438,102.2754 368.7656,101.8379 Q369.0313,101.5723 369.1719,101.4941 Q369.3281,101.416 369.5313,101.416 Q369.8594,101.416 370.1094,101.6816 Q370.375,101.9316 370.375,102.2754 Q370.375,102.6191 370.0313,103.0254 Q369.5313,103.6035 368.7344,103.9316 Q367.6563,104.3848 366.3594,104.3848 Q364.8438,104.3848 363.6406,103.7598 Q362.6563,103.2598 361.9688,102.1973 Q361.2813,101.1191 361.2813,99.8379 L361.2813,98.6816 Q361.2813,97.3535 361.8906,96.2129 Q362.5156,95.0566 363.6094,94.4473 Q364.7031,93.8223 365.9375,93.8223 Q366.6719,93.8223 367.3125,93.9941 Q367.9688,94.1504 368.5156,94.5098 Z " fill="#000000"/><text fill="#000000" font-family="sans-serif" font-size="14" lengthAdjust="spacing" textLength="128" x="386.25" y="104.4316">RoomControllerWeb</text><line style="stroke:#181818;stroke-width:0.5;" x1="162.5" x2="705.5" y1="114.6348" y2="114.6348"/><rect fill="none" height="6" style="stroke:#C82930;stroke-width:1.0;" width="6" x="169.5" y="126.4453"/><text fill="#000000" font-family="sans-serif" font-size="14" lengthAdjust="spacing" textLength="181" x="181.5" y="133.7422">houseService: HouseService</text><rect fill="none" height="6" style="stroke:#C82930;stroke-width:1.0;" width="6" x="169.5" y="145.0664"/><text fill="#000000" font-family="sans-serif" font-size="14" lengthAdjust="spacing" textLength="171" x="181.5" y="152.3633">roomService: RoomService</text><rect fill="none" height="6" style="stroke:#C82930;stroke-width:1.0;" width="6" x="169.5" y="163.6875"/><text fill="#000000" font-family="sans-serif" font-size="14" lengthAdjust="spacing" textLength="186" x="181.5" y="170.9844">deviceService: DeviceService</text><rect fill="none" height="6" style="stroke:#C82930;stroke-width:1.0;" width="6" x="169.5" y="182.3086"/><text fill="#000000" font-family="sans-serif" font-size="14" lengthAdjust="spacing" textLength="248" x="181.5" y="189.6055">deviceMapperDTO: DeviceMapperDTO</text><line style="stroke:#181818;stroke-width:0.5;" x1="162.5" x2="705.5" y1="197.1191" y2="197.1191"/><ellipse cx="172.5" cy="221.2402" fill="#84BE84" rx="3" ry="3" style="stroke:#038048;stroke-width:1.0;"/><text fill="#000000" font-family="sans-serif" font-size="14" lengthAdjust="spacing" textLength="519" x="181.5" y="216.2266">PATCH editRoom(@PathVariable String id, @RequestBody RoomDTO roomDTO):</text><text fill="#000000" font-family="sans-serif" font-size="14" lengthAdjust="spacing" textLength="327" x="185.5" y="234.8477">ResponseEntity&lt;&gt; editedRoomDTO, HttpStatus.OK)</text></g><!--class RoomDTO--><g id="elem_RoomDTO"><rect codeLine="15" fill="#F1F1F1" height="141.1055" id="RoomDTO" rx="2.5" ry="2.5" style="stroke:#181818;stroke-width:0.5;" width="139" x="22.5" y="302.6348"/><ellipse cx="55.5" cy="318.6348" fill="#ADD1B2" rx="11" ry="11" style="stroke:#181818;stroke-width:1.0;"/><path d="M58.2656,314.5098 Q58.4219,314.291 58.6094,314.1816 Q58.7969,314.0723 59.0156,314.0723 Q59.3906,314.0723 59.625,314.3379 Q59.8594,314.5879 59.8594,315.1973 L59.8594,316.6504 Q59.8594,317.2598 59.625,317.5254 Q59.3906,317.791 59.0156,317.791 Q58.6719,317.791 58.4688,317.5879 Q58.2656,317.4004 58.1563,316.8848 Q58.1094,316.5254 57.9219,316.3379 Q57.5938,315.9629 56.9844,315.7441 Q56.375,315.5254 55.75,315.5254 Q54.9844,315.5254 54.3438,315.8535 Q53.7188,316.1816 53.2188,316.9316 Q52.7344,317.6816 52.7344,318.7129 L52.7344,319.8066 Q52.7344,321.041 53.625,321.8691 Q54.5156,322.6816 56.1094,322.6816 Q57.0469,322.6816 57.7031,322.4316 Q58.0938,322.2754 58.5156,321.8379 Q58.7813,321.5723 58.9219,321.4941 Q59.0781,321.416 59.2813,321.416 Q59.6094,321.416 59.8594,321.6816 Q60.125,321.9316 60.125,322.2754 Q60.125,322.6191 59.7813,323.0254 Q59.2813,323.6035 58.4844,323.9316 Q57.4063,324.3848 56.1094,324.3848 Q54.5938,324.3848 53.3906,323.7598 Q52.4063,323.2598 51.7188,322.1973 Q51.0313,321.1191 51.0313,319.8379 L51.0313,318.6816 Q51.0313,317.3535 51.6406,316.2129 Q52.2656,315.0566 53.3594,314.4473 Q54.4531,313.8223 55.6875,313.8223 Q56.4219,313.8223 57.0625,313.9941 Q57.7188,314.1504 58.2656,314.5098 Z " fill="#000000"/><text fill="#000000" font-family="sans-serif" font-size="14" lengthAdjust="spacing" textLength="67" x="73.5" y="324.4316">RoomDTO</text><line style="stroke:#181818;stroke-width:0.5;" x1="23.5" x2="160.5" y1="334.6348" y2="334.6348"/><ellipse cx="33.5" cy="349.4453" fill="none" rx="3" ry="3" style="stroke:#038048;stroke-width:1.0;"/><text fill="#000000" font-family="sans-serif" font-size="14" lengthAdjust="spacing" textLength="113" x="42.5" y="353.7422">roomName: String</text><ellipse cx="33.5" cy="368.0664" fill="none" rx="3" ry="3" style="stroke:#038048;stroke-width:1.0;"/><text fill="#000000" font-family="sans-serif" font-size="14" lengthAdjust="spacing" textLength="100" x="42.5" y="372.3633">floorNumber: int</text><ellipse cx="33.5" cy="386.6875" fill="none" rx="3" ry="3" style="stroke:#038048;stroke-width:1.0;"/><text fill="#000000" font-family="sans-serif" font-size="14" lengthAdjust="spacing" textLength="83" x="42.5" y="390.9844">width: double</text><ellipse cx="33.5" cy="405.3086" fill="none" rx="3" ry="3" style="stroke:#038048;stroke-width:1.0;"/><text fill="#000000" font-family="sans-serif" font-size="14" lengthAdjust="spacing" textLength="90" x="42.5" y="409.6055">length: double</text><ellipse cx="33.5" cy="423.9297" fill="none" rx="3" ry="3" style="stroke:#038048;stroke-width:1.0;"/><text fill="#000000" font-family="sans-serif" font-size="14" lengthAdjust="spacing" textLength="90" x="42.5" y="428.2266">height: double</text><line style="stroke:#181818;stroke-width:0.5;" x1="23.5" x2="160.5" y1="435.7402" y2="435.7402"/></g><!--class RoomRepository--><g id="elem_RoomRepository"><rect codeLine="23" fill="#F1F1F1" height="85.2422" id="RoomRepository" rx="2.5" ry="2.5" style="stroke:#181818;stroke-width:0.5;" width="336" x="411" y="541.1348"/><ellipse cx="502.25" cy="557.1348" fill="#B4A7E5" rx="11" ry="11" style="stroke:#181818;stroke-width:1.0;"/><path d="M503.2031,553.7754 L503.2031,560.4316 L504.9219,560.4316 Q505.5313,560.4316 505.7969,560.666 Q506.0625,560.9004 506.0625,561.291 Q506.0625,561.666 505.7969,561.9004 Q505.5313,562.1348 504.9219,562.1348 L499.7813,562.1348 Q499.1719,562.1348 498.9063,561.9004 Q498.6406,561.666 498.6406,561.2754 Q498.6406,560.9004 498.9063,560.666 Q499.1719,560.4316 499.7813,560.4316 L501.5,560.4316 L501.5,553.7754 L499.7813,553.7754 Q499.1719,553.7754 498.9063,553.541 Q498.6406,553.3066 498.6406,552.916 Q498.6406,552.541 498.9063,552.3066 Q499.1719,552.0723 499.7813,552.0723 L504.9219,552.0723 Q505.5313,552.0723 505.7969,552.3066 Q506.0625,552.541 506.0625,552.916 Q506.0625,553.3066 505.7969,553.541 Q505.5313,553.7754 504.9219,553.7754 L503.2031,553.7754 Z " fill="#000000"/><text fill="#000000" font-family="sans-serif" font-size="14" font-style="italic" lengthAdjust="spacing" textLength="105" x="522.75" y="562.9316">RoomRepository</text><rect fill="#FFFFFF" height="17.9609" style="stroke:#181818;stroke-width:1.0;stroke-dasharray:2.0,2.0;" width="38" x="712" y="538.1348"/><text fill="#000000" font-family="sans-serif" font-size="12" font-style="italic" lengthAdjust="spacing" textLength="36" x="713" y="552.084">factory</text><line style="stroke:#181818;stroke-width:0.5;" x1="412" x2="746" y1="573.1348" y2="573.1348"/><line style="stroke:#181818;stroke-width:0.5;" x1="412" x2="746" y1="581.1348" y2="581.1348"/><ellipse cx="422" cy="595.9453" fill="#84BE84" rx="3" ry="3" style="stroke:#038048;stroke-width:1.0;"/><text fill="#000000" font-family="sans-serif" font-size="14" lengthAdjust="spacing" textLength="310" x="431" y="600.2422">findEntityByID(RoomID roomID): Optional&lt;Room&gt;</text><ellipse cx="422" cy="614.5664" fill="#84BE84" rx="3" ry="3" style="stroke:#038048;stroke-width:1.0;"/><text fill="#000000" font-family="sans-serif" font-size="14" lengthAdjust="spacing" textLength="122" x="431" y="618.8633">save(Room): Room</text></g><!--class Room--><g id="elem_Room"><rect codeLine="28" fill="#F1F1F1" height="159.7266" id="Room" rx="2.5" ry="2.5" style="stroke:#181818;stroke-width:0.5;" width="329" x="782.5" y="503.6348"/><ellipse cx="911.75" cy="519.6348" fill="#ADD1B2" rx="11" ry="11" style="stroke:#181818;stroke-width:1.0;"/><path d="M914.5156,515.5098 Q914.6719,515.291 914.8594,515.1816 Q915.0469,515.0723 915.2656,515.0723 Q915.6406,515.0723 915.875,515.3379 Q916.1094,515.5879 916.1094,516.1973 L916.1094,517.6504 Q916.1094,518.2598 915.875,518.5254 Q915.6406,518.791 915.2656,518.791 Q914.9219,518.791 914.7188,518.5879 Q914.5156,518.4004 914.4063,517.8848 Q914.3594,517.5254 914.1719,517.3379 Q913.8438,516.9629 913.2344,516.7441 Q912.625,516.5254 912,516.5254 Q911.2344,516.5254 910.5938,516.8535 Q909.9688,517.1816 909.4688,517.9316 Q908.9844,518.6816 908.9844,519.7129 L908.9844,520.8066 Q908.9844,522.041 909.875,522.8691 Q910.7656,523.6816 912.3594,523.6816 Q913.2969,523.6816 913.9531,523.4316 Q914.3438,523.2754 914.7656,522.8379 Q915.0313,522.5723 915.1719,522.4941 Q915.3281,522.416 915.5313,522.416 Q915.8594,522.416 916.1094,522.6816 Q916.375,522.9316 916.375,523.2754 Q916.375,523.6191 916.0313,524.0254 Q915.5313,524.6035 914.7344,524.9316 Q913.6563,525.3848 912.3594,525.3848 Q910.8438,525.3848 909.6406,524.7598 Q908.6563,524.2598 907.9688,523.1973 Q907.2813,522.1191 907.2813,520.8379 L907.2813,519.6816 Q907.2813,518.3535 907.8906,517.2129 Q908.5156,516.0566 909.6094,515.4473 Q910.7031,514.8223 911.9375,514.8223 Q912.6719,514.8223 913.3125,514.9941 Q913.9688,515.1504 914.5156,515.5098 Z " fill="#000000"/><text fill="#000000" font-family="sans-serif" font-size="14" lengthAdjust="spacing" textLength="37" x="932.25" y="525.4316">Room</text><rect fill="#FFFFFF" height="17.9609" style="stroke:#181818;stroke-width:1.0;stroke-dasharray:2.0,2.0;" width="23" x="1091.5" y="500.6348"/><text fill="#000000" font-family="sans-serif" font-size="12" font-style="italic" lengthAdjust="spacing" textLength="21" x="1092.5" y="514.584">root</text><line style="stroke:#181818;stroke-width:0.5;" x1="783.5" x2="1110.5" y1="535.6348" y2="535.6348"/><rect fill="none" height="6" style="stroke:#C82930;stroke-width:1.0;" width="6" x="790.5" y="547.4453"/><text fill="#000000" font-family="sans-serif" font-size="14" lengthAdjust="spacing" textLength="113" x="802.5" y="554.7422">houseID: HouseID</text><rect fill="none" height="6" style="stroke:#C82930;stroke-width:1.0;" width="6" x="790.5" y="566.0664"/><text fill="#000000" font-family="sans-serif" font-size="14" lengthAdjust="spacing" textLength="126" x="802.5" y="573.3633">roomName: RoomID</text><rect fill="none" height="6" style="stroke:#C82930;stroke-width:1.0;" width="6" x="790.5" y="584.6875"/><text fill="#000000" font-family="sans-serif" font-size="14" lengthAdjust="spacing" textLength="155" x="802.5" y="591.9844">floorNumber: RoomFloor</text><rect fill="none" height="6" style="stroke:#C82930;stroke-width:1.0;" width="6" x="790.5" y="603.3086"/><text fill="#000000" font-family="sans-serif" font-size="14" lengthAdjust="spacing" textLength="189" x="802.5" y="610.6055">dimensions: RoomDimensions</text><line style="stroke:#181818;stroke-width:0.5;" x1="783.5" x2="1110.5" y1="618.1191" y2="618.1191"/><ellipse cx="793.5" cy="632.9297" fill="#84BE84" rx="3" ry="3" style="stroke:#038048;stroke-width:1.0;"/><text fill="#000000" font-family="sans-serif" font-size="14" lengthAdjust="spacing" textLength="303" x="802.5" y="637.2266">editRoom(RoomFloor, RoomDimensions): Room</text><ellipse cx="793.5" cy="651.5508" fill="#84BE84" rx="3" ry="3" style="stroke:#038048;stroke-width:1.0;"/><text fill="#000000" font-family="sans-serif" font-size="14" lengthAdjust="spacing" textLength="113" x="802.5" y="655.8477">identity(): RoomID</text></g><!--class RoomID--><g id="elem_RoomID"><rect codeLine="37" fill="#F1F1F1" height="66.6211" id="RoomID" rx="2.5" ry="2.5" style="stroke:#181818;stroke-width:0.5;" width="139" x="196.5" y="339.6348"/><ellipse cx="227.7" cy="355.6348" fill="#ADD1B2" rx="11" ry="11" style="stroke:#181818;stroke-width:1.0;"/><path d="M230.4656,351.5098 Q230.6219,351.291 230.8094,351.1816 Q230.9969,351.0723 231.2156,351.0723 Q231.5906,351.0723 231.825,351.3379 Q232.0594,351.5879 232.0594,352.1973 L232.0594,353.6504 Q232.0594,354.2598 231.825,354.5254 Q231.5906,354.791 231.2156,354.791 Q230.8719,354.791 230.6688,354.5879 Q230.4656,354.4004 230.3563,353.8848 Q230.3094,353.5254 230.1219,353.3379 Q229.7938,352.9629 229.1844,352.7441 Q228.575,352.5254 227.95,352.5254 Q227.1844,352.5254 226.5438,352.8535 Q225.9188,353.1816 225.4188,353.9316 Q224.9344,354.6816 224.9344,355.7129 L224.9344,356.8066 Q224.9344,358.041 225.825,358.8691 Q226.7156,359.6816 228.3094,359.6816 Q229.2469,359.6816 229.9031,359.4316 Q230.2938,359.2754 230.7156,358.8379 Q230.9813,358.5723 231.1219,358.4941 Q231.2781,358.416 231.4813,358.416 Q231.8094,358.416 232.0594,358.6816 Q232.325,358.9316 232.325,359.2754 Q232.325,359.6191 231.9813,360.0254 Q231.4813,360.6035 230.6844,360.9316 Q229.6063,361.3848 228.3094,361.3848 Q226.7938,361.3848 225.5906,360.7598 Q224.6063,360.2598 223.9188,359.1973 Q223.2313,358.1191 223.2313,356.8379 L223.2313,355.6816 Q223.2313,354.3535 223.8406,353.2129 Q224.4656,352.0566 225.5594,351.4473 Q226.6531,350.8223 227.8875,350.8223 Q228.6219,350.8223 229.2625,350.9941 Q229.9188,351.1504 230.4656,351.5098 Z " fill="#000000"/><text fill="#000000" font-family="sans-serif" font-size="14" lengthAdjust="spacing" textLength="50" x="245.3" y="361.4316">RoomID</text><rect fill="#FFFFFF" height="17.9609" style="stroke:#181818;stroke-width:1.0;stroke-dasharray:2.0,2.0;" width="19" x="319.5" y="336.6348"/><text fill="#000000" font-family="sans-serif" font-size="12" font-style="italic" lengthAdjust="spacing" textLength="17" x="320.5" y="350.584">VO</text><line style="stroke:#181818;stroke-width:0.5;" x1="197.5" x2="334.5" y1="371.6348" y2="371.6348"/><rect fill="none" height="6" style="stroke:#C82930;stroke-width:1.0;" width="6" x="204.5" y="383.4453"/><text fill="#000000" font-family="sans-serif" font-size="14" lengthAdjust="spacing" textLength="113" x="216.5" y="390.7422">roomName: String</text><line style="stroke:#181818;stroke-width:0.5;" x1="197.5" x2="334.5" y1="398.2559" y2="398.2559"/></g><!--class RoomFloor--><g id="elem_RoomFloor"><rect codeLine="41" fill="#F1F1F1" height="66.6211" id="RoomFloor" rx="2.5" ry="2.5" style="stroke:#181818;stroke-width:0.5;" width="126" x="371" y="339.6348"/><ellipse cx="387.35" cy="355.6348" fill="#ADD1B2" rx="11" ry="11" style="stroke:#181818;stroke-width:1.0;"/><path d="M390.1156,351.5098 Q390.2719,351.291 390.4594,351.1816 Q390.6469,351.0723 390.8656,351.0723 Q391.2406,351.0723 391.475,351.3379 Q391.7094,351.5879 391.7094,352.1973 L391.7094,353.6504 Q391.7094,354.2598 391.475,354.5254 Q391.2406,354.791 390.8656,354.791 Q390.5219,354.791 390.3188,354.5879 Q390.1156,354.4004 390.0063,353.8848 Q389.9594,353.5254 389.7719,353.3379 Q389.4438,352.9629 388.8344,352.7441 Q388.225,352.5254 387.6,352.5254 Q386.8344,352.5254 386.1938,352.8535 Q385.5688,353.1816 385.0688,353.9316 Q384.5844,354.6816 384.5844,355.7129 L384.5844,356.8066 Q384.5844,358.041 385.475,358.8691 Q386.3656,359.6816 387.9594,359.6816 Q388.8969,359.6816 389.5531,359.4316 Q389.9438,359.2754 390.3656,358.8379 Q390.6313,358.5723 390.7719,358.4941 Q390.9281,358.416 391.1313,358.416 Q391.4594,358.416 391.7094,358.6816 Q391.975,358.9316 391.975,359.2754 Q391.975,359.6191 391.6313,360.0254 Q391.1313,360.6035 390.3344,360.9316 Q389.2563,361.3848 387.9594,361.3848 Q386.4438,361.3848 385.2406,360.7598 Q384.2563,360.2598 383.5688,359.1973 Q382.8813,358.1191 382.8813,356.8379 L382.8813,355.6816 Q382.8813,354.3535 383.4906,353.2129 Q384.1156,352.0566 385.2094,351.4473 Q386.3031,350.8223 387.5375,350.8223 Q388.2719,350.8223 388.9125,350.9941 Q389.5688,351.1504 390.1156,351.5098 Z " fill="#000000"/><text fill="#000000" font-family="sans-serif" font-size="14" lengthAdjust="spacing" textLength="70" x="401.65" y="361.4316">RoomFloor</text><rect fill="#FFFFFF" height="17.9609" style="stroke:#181818;stroke-width:1.0;stroke-dasharray:2.0,2.0;" width="19" x="481" y="336.6348"/><text fill="#000000" font-family="sans-serif" font-size="12" font-style="italic" lengthAdjust="spacing" textLength="17" x="482" y="350.584">VO</text><line style="stroke:#181818;stroke-width:0.5;" x1="372" x2="496" y1="371.6348" y2="371.6348"/><rect fill="none" height="6" style="stroke:#C82930;stroke-width:1.0;" width="6" x="379" y="383.4453"/><text fill="#000000" font-family="sans-serif" font-size="14" lengthAdjust="spacing" textLength="100" x="391" y="390.7422">floorNumber: int</text><line style="stroke:#181818;stroke-width:0.5;" x1="372" x2="496" y1="398.2559" y2="398.2559"/></g><!--class RoomDimensions--><g id="elem_RoomDimensions"><rect codeLine="45" fill="#F1F1F1" height="103.8633" id="RoomDimensions" rx="2.5" ry="2.5" style="stroke:#181818;stroke-width:0.5;" width="163" x="532.5" y="321.1348"/><ellipse cx="547.5" cy="337.1348" fill="#ADD1B2" rx="11" ry="11" style="stroke:#181818;stroke-width:1.0;"/><path d="M550.2656,333.0098 Q550.4219,332.791 550.6094,332.6816 Q550.7969,332.5723 551.0156,332.5723 Q551.3906,332.5723 551.625,332.8379 Q551.8594,333.0879 551.8594,333.6973 L551.8594,335.1504 Q551.8594,335.7598 551.625,336.0254 Q551.3906,336.291 551.0156,336.291 Q550.6719,336.291 550.4688,336.0879 Q550.2656,335.9004 550.1563,335.3848 Q550.1094,335.0254 549.9219,334.8379 Q549.5938,334.4629 548.9844,334.2441 Q548.375,334.0254 547.75,334.0254 Q546.9844,334.0254 546.3438,334.3535 Q545.7188,334.6816 545.2188,335.4316 Q544.7344,336.1816 544.7344,337.2129 L544.7344,338.3066 Q544.7344,339.541 545.625,340.3691 Q546.5156,341.1816 548.1094,341.1816 Q549.0469,341.1816 549.7031,340.9316 Q550.0938,340.7754 550.5156,340.3379 Q550.7813,340.0723 550.9219,339.9941 Q551.0781,339.916 551.2813,339.916 Q551.6094,339.916 551.8594,340.1816 Q552.125,340.4316 552.125,340.7754 Q552.125,341.1191 551.7813,341.5254 Q551.2813,342.1035 550.4844,342.4316 Q549.4063,342.8848 548.1094,342.8848 Q546.5938,342.8848 545.3906,342.2598 Q544.4063,341.7598 543.7188,340.6973 Q543.0313,339.6191 543.0313,338.3379 L543.0313,337.1816 Q543.0313,335.8535 543.6406,334.7129 Q544.2656,333.5566 545.3594,332.9473 Q546.4531,332.3223 547.6875,332.3223 Q548.4219,332.3223 549.0625,332.4941 Q549.7188,332.6504 550.2656,333.0098 Z " fill="#000000"/><text fill="#000000" font-family="sans-serif" font-size="14" lengthAdjust="spacing" textLength="110" x="561.5" y="342.9316">RoomDimensions</text><rect fill="#FFFFFF" height="17.9609" style="stroke:#181818;stroke-width:1.0;stroke-dasharray:2.0,2.0;" width="19" x="679.5" y="318.1348"/><text fill="#000000" font-family="sans-serif" font-size="12" font-style="italic" lengthAdjust="spacing" textLength="17" x="680.5" y="332.084">VO</text><line style="stroke:#181818;stroke-width:0.5;" x1="533.5" x2="694.5" y1="353.1348" y2="353.1348"/><rect fill="none" height="6" style="stroke:#C82930;stroke-width:1.0;" width="6" x="540.5" y="364.9453"/><text fill="#000000" font-family="sans-serif" font-size="14" lengthAdjust="spacing" textLength="90" x="552.5" y="372.2422">length: double</text><rect fill="none" height="6" style="stroke:#C82930;stroke-width:1.0;" width="6" x="540.5" y="383.5664"/><text fill="#000000" font-family="sans-serif" font-size="14" lengthAdjust="spacing" textLength="83" x="552.5" y="390.8633">width: double</text><rect fill="none" height="6" style="stroke:#C82930;stroke-width:1.0;" width="6" x="540.5" y="402.1875"/><text fill="#000000" font-family="sans-serif" font-size="14" lengthAdjust="spacing" textLength="90" x="552.5" y="409.4844">height: double</text><line style="stroke:#181818;stroke-width:0.5;" x1="533.5" x2="694.5" y1="416.998" y2="416.998"/></g><!--class RoomService--><g id="elem_RoomService"><rect codeLine="52" fill="#F1F1F1" height="141.1055" id="RoomService" rx="2.5" ry="2.5" style="stroke:#181818;stroke-width:0.5;" width="398" x="731" y="302.6348"/><ellipse cx="883.75" cy="318.6348" fill="#ADD1B2" rx="11" ry="11" style="stroke:#181818;stroke-width:1.0;"/><path d="M886.5156,314.5098 Q886.6719,314.291 886.8594,314.1816 Q887.0469,314.0723 887.2656,314.0723 Q887.6406,314.0723 887.875,314.3379 Q888.1094,314.5879 888.1094,315.1973 L888.1094,316.6504 Q888.1094,317.2598 887.875,317.5254 Q887.6406,317.791 887.2656,317.791 Q886.9219,317.791 886.7188,317.5879 Q886.5156,317.4004 886.4063,316.8848 Q886.3594,316.5254 886.1719,316.3379 Q885.8438,315.9629 885.2344,315.7441 Q884.625,315.5254 884,315.5254 Q883.2344,315.5254 882.5938,315.8535 Q881.9688,316.1816 881.4688,316.9316 Q880.9844,317.6816 880.9844,318.7129 L880.9844,319.8066 Q880.9844,321.041 881.875,321.8691 Q882.7656,322.6816 884.3594,322.6816 Q885.2969,322.6816 885.9531,322.4316 Q886.3438,322.2754 886.7656,321.8379 Q887.0313,321.5723 887.1719,321.4941 Q887.3281,321.416 887.5313,321.416 Q887.8594,321.416 888.1094,321.6816 Q888.375,321.9316 888.375,322.2754 Q888.375,322.6191 888.0313,323.0254 Q887.5313,323.6035 886.7344,323.9316 Q885.6563,324.3848 884.3594,324.3848 Q882.8438,324.3848 881.6406,323.7598 Q880.6563,323.2598 879.9688,322.1973 Q879.2813,321.1191 879.2813,319.8379 L879.2813,318.6816 Q879.2813,317.3535 879.8906,316.2129 Q880.5156,315.0566 881.6094,314.4473 Q882.7031,313.8223 883.9375,313.8223 Q884.6719,313.8223 885.3125,313.9941 Q885.9688,314.1504 886.5156,314.5098 Z " fill="#000000"/><text fill="#000000" font-family="sans-serif" font-size="14" lengthAdjust="spacing" textLength="84" x="904.25" y="324.4316">RoomService</text><line style="stroke:#181818;stroke-width:0.5;" x1="732" x2="1128" y1="334.6348" y2="334.6348"/><rect fill="none" height="6" style="stroke:#C82930;stroke-width:1.0;" width="6" x="739" y="346.4453"/><text fill="#000000" font-family="sans-serif" font-size="14" lengthAdjust="spacing" textLength="213" x="751" y="353.7422">roomRepository: RoomRepository</text><rect fill="none" height="6" style="stroke:#C82930;stroke-width:1.0;" width="6" x="739" y="365.0664"/><text fill="#000000" font-family="sans-serif" font-size="14" lengthAdjust="spacing" textLength="173" x="751" y="372.3633">factoryRoom: FactoryRoom</text><rect fill="none" height="6" style="stroke:#C82930;stroke-width:1.0;" width="6" x="739" y="383.6875"/><text fill="#000000" font-family="sans-serif" font-size="14" lengthAdjust="spacing" textLength="223" x="751" y="390.9844">houseRepository: HouseRepository</text><line style="stroke:#181818;stroke-width:0.5;" x1="732" x2="1128" y1="398.498" y2="398.498"/><ellipse cx="742" cy="422.6191" fill="#84BE84" rx="3" ry="3" style="stroke:#038048;stroke-width:1.0;"/><text fill="#000000" font-family="sans-serif" font-size="14" lengthAdjust="spacing" textLength="372" x="751" y="417.6055">editRoomAndSave(RoomID roomID, RoomFloor roomFloor,</text><text fill="#000000" font-family="sans-serif" font-size="14" lengthAdjust="spacing" textLength="282" x="755" y="436.2266">RoomDimensions roomDimensions): RoomID</text></g><!--link RoomControllerWeb to RoomService--><g id="link_RoomControllerWeb_RoomService"><path codeLine="61" d="M701,243.0148 C701,277.3348 701,309.6348 701,309.6348 C701,309.6348 712.75,309.6348 730.94,309.6348 " fill="none" id="RoomControllerWeb-RoomService" style="stroke:#181818;stroke-width:1.0;"/></g><!--link RoomControllerWeb to RoomDTO--><g id="link_RoomControllerWeb_RoomDTO"><path codeLine="62" d="M179,242.7148 C179,279.7348 179,315.6348 179,315.6348 C179,315.6348 177.93,315.6348 167.81,315.6348 " fill="none" id="RoomControllerWeb-to-RoomDTO" style="stroke:#181818;stroke-width:1.0;stroke-dasharray:7.0,7.0;"/><polygon fill="#181818" points="161.81,315.6348,170.81,319.6348,166.81,315.6348,170.81,311.6348,161.81,315.6348" style="stroke:#181818;stroke-width:1.0;"/><text fill="#000000" font-family="sans-serif" font-size="13" lengthAdjust="spacing" textLength="57" x="121" y="283.8031">&#171;creates&#187;</text></g><!--link RoomControllerWeb to RoomID--><g id="link_RoomControllerWeb_RoomID"><path codeLine="63" d="M266,242.8148 C266,276.3948 266,307.5848 266,333.6148 " fill="none" id="RoomControllerWeb-to-RoomID" style="stroke:#181818;stroke-width:1.0;stroke-dasharray:7.0,7.0;"/><polygon fill="#181818" points="266,339.6148,270,330.6148,266,334.6148,262,330.6148,266,339.6148" style="stroke:#181818;stroke-width:1.0;"/><text fill="#000000" font-family="sans-serif" font-size="13" lengthAdjust="spacing" textLength="57" x="208" y="287.2431">&#171;creates&#187;</text></g><!--link RoomControllerWeb to RoomFloor--><g id="link_RoomControllerWeb_RoomFloor"><path codeLine="64" d="M434,242.8148 C434,276.3948 434,307.5848 434,333.6148 " fill="none" id="RoomControllerWeb-to-RoomFloor" style="stroke:#181818;stroke-width:1.0;stroke-dasharray:7.0,7.0;"/><polygon fill="#181818" points="434,339.6148,438,330.6148,434,334.6148,430,330.6148,434,339.6148" style="stroke:#181818;stroke-width:1.0;"/><text fill="#000000" font-family="sans-serif" font-size="13" lengthAdjust="spacing" textLength="57" x="376" y="287.2431">&#171;creates&#187;</text></g><!--link RoomControllerWeb to RoomDimensions--><g id="link_RoomControllerWeb_RoomDimensions"><path codeLine="65" d="M614,242.8148 C614,268.9548 614,291.2948 614,314.8448 " fill="none" id="RoomControllerWeb-to-RoomDimensions" style="stroke:#181818;stroke-width:1.0;stroke-dasharray:7.0,7.0;"/><polygon fill="#181818" points="614,320.8448,618,311.8448,614,315.8448,610,311.8448,614,320.8448" style="stroke:#181818;stroke-width:1.0;"/><text fill="#000000" font-family="sans-serif" font-size="13" lengthAdjust="spacing" textLength="57" x="556" y="277.8531">&#171;creates&#187;</text></g><!--link RoomService to RoomRepository--><g id="link_RoomService_RoomRepository"><path codeLine="66" d="M739,443.8148 C739,476.0648 739,513.1848 739,541.0648 " fill="none" id="RoomService-RoomRepository" style="stroke:#181818;stroke-width:1.0;"/></g><!--link RoomService to Room--><g id="link_RoomService_Room"><path codeLine="67" d="M947,443.8148 C947,462.9248 947,477.7448 947,497.3448 " fill="none" id="RoomService-to-Room" style="stroke:#181818;stroke-width:1.0;stroke-dasharray:7.0,7.0;"/><polygon fill="#181818" points="947,503.3448,951,494.3448,947,498.3448,943,494.3448,947,503.3448" style="stroke:#181818;stroke-width:1.0;"/><text fill="#000000" font-family="sans-serif" font-size="13" lengthAdjust="spacing" textLength="42" x="904" y="469.6031">&#171;uses&#187;</text></g><!--SRC=[ZLJVRvim47xtNt7INX8HecbxGmYr3UqIRMigqdKlUt7YIx1AR6OxdL2r_xss2GuaqrI417VttO_lFWFePovggkWUAYxGD3M2LAQKX1XkAeGViu-Vfv_Wbd43XPHxGcgwUQOx18tg1HLy-CPtfVcYQ0ElX6mgghK7pgGmIbOLgf-ujg6ub0UDAvl4DvZ0l6SHi5UiR5885oUZZJ9qxo6Uzyq-uZkjQrJvuxB318T7HG_NZxCveANZMeok7gWfdwZYT6t9hepYOWUSJU2gmDy7rEP6iiPFOok0Qf_Zv9U00dKjXSPROHVLf9clYUm8dS3Sc7fbg3dewVBhcFpjxyRLUYMHAtTFzvPEsvX4sqfATN_Ohr4bm8KXqH_EJ9a0amSx88ag5Bk-NQBRVh1j5vk5Qaitw3iLM4lDZLGDfDRfNZBRUSi5QmU_QHRvo24NkQUtoCS9B6l3fQ1LwW8PYJHzGGyQjyeCsK1g4qtMIRp8Z-ekSXAVABOzI3oWw9ntpa5YnlSej6shMtSUR185kG9-SeRf1eiuGyzhD0uj1yDQckdJCdC7ycBz0w1l4x0NmWpr37Fu18i_qoaUoXYVoJQiTZpLtOWd2PCpIUrOhQJEdS3ToJXAqK-T3nsdfLuBjkhq3OTWqjk12ajtntv8L_rBXNRdzhxy3yJnuDE-14odMVX44aZJZK9gK6VPVx1swlT2MqRlHVU8NgPqCXqfzLRRZtQbV06hWCj-0m00]--></g></svg>