<?xml version="1.0" encoding="us-ascii" standalone="no"?><svg xmlns="http://www.w3.org/2000/svg" xmlns:xlink="http://www.w3.org/1999/xlink" contentStyleType="text/css" height="943px" preserveAspectRatio="none" style="width:1748px;height:943px;background:#FFFFFF;" version="1.1" viewBox="0 0 1748 943" width="1748px" zoomAndPan="magnify"><defs/><g><text fill="#000000" font-family="sans-serif" font-size="14" font-weight="bold" lengthAdjust="spacing" textLength="223" x="755.5" y="25.1074">UC05 - Add new device to room.</text><!--cluster server--><g id="cluster_server"><path d="M8.5,45.6348 L56.5,45.6348 A3.75,3.75 0 0 1 59,48.1348 L66,70.2559 L1738.5,70.2559 A2.5,2.5 0 0 1 1741,72.7559 L1741,934.1348 A2.5,2.5 0 0 1 1738.5,936.6348 L8.5,936.6348 A2.5,2.5 0 0 1 6,934.1348 L6,48.1348 A2.5,2.5 0 0 1 8.5,45.6348 " fill="#D3D3D3" style="stroke:#000000;stroke-width:1.5;"/><line style="stroke:#000000;stroke-width:1.5;" x1="6" x2="66" y1="70.2559" y2="70.2559"/><text fill="#000000" font-family="sans-serif" font-size="14" font-weight="bold" lengthAdjust="spacing" textLength="47" x="10" y="62.7422">server</text></g><!--class DeviceControllerWeb--><g id="elem_DeviceControllerWeb"><rect codeLine="6" fill="#F1F1F1" height="103.8633" id="DeviceControllerWeb" rx="2.5" ry="2.5" style="stroke:#181818;stroke-width:0.5;" width="558" x="827" y="82.6348"/><ellipse cx="1034.75" cy="98.6348" fill="#ADD1B2" rx="11" ry="11" style="stroke:#181818;stroke-width:1.0;"/><path d="M1037.5156,94.5098 Q1037.6719,94.291 1037.8594,94.1816 Q1038.0469,94.0723 1038.2656,94.0723 Q1038.6406,94.0723 1038.875,94.3379 Q1039.1094,94.5879 1039.1094,95.1973 L1039.1094,96.6504 Q1039.1094,97.2598 1038.875,97.5254 Q1038.6406,97.791 1038.2656,97.791 Q1037.9219,97.791 1037.7188,97.5879 Q1037.5156,97.4004 1037.4063,96.8848 Q1037.3594,96.5254 1037.1719,96.3379 Q1036.8438,95.9629 1036.2344,95.7441 Q1035.625,95.5254 1035,95.5254 Q1034.2344,95.5254 1033.5938,95.8535 Q1032.9688,96.1816 1032.4688,96.9316 Q1031.9844,97.6816 1031.9844,98.7129 L1031.9844,99.8066 Q1031.9844,101.041 1032.875,101.8691 Q1033.7656,102.6816 1035.3594,102.6816 Q1036.2969,102.6816 1036.9531,102.4316 Q1037.3438,102.2754 1037.7656,101.8379 Q1038.0313,101.5723 1038.1719,101.4941 Q1038.3281,101.416 1038.5313,101.416 Q1038.8594,101.416 1039.1094,101.6816 Q1039.375,101.9316 1039.375,102.2754 Q1039.375,102.6191 1039.0313,103.0254 Q1038.5313,103.6035 1037.7344,103.9316 Q1036.6563,104.3848 1035.3594,104.3848 Q1033.8438,104.3848 1032.6406,103.7598 Q1031.6563,103.2598 1030.9688,102.1973 Q1030.2813,101.1191 1030.2813,99.8379 L1030.2813,98.6816 Q1030.2813,97.3535 1030.8906,96.2129 Q1031.5156,95.0566 1032.6094,94.4473 Q1033.7031,93.8223 1034.9375,93.8223 Q1035.6719,93.8223 1036.3125,93.9941 Q1036.9688,94.1504 1037.5156,94.5098 Z " fill="#000000"/><text fill="#000000" font-family="sans-serif" font-size="14" lengthAdjust="spacing" textLength="134" x="1055.25" y="104.4316">DeviceControllerWeb</text><line style="stroke:#181818;stroke-width:0.5;" x1="828" x2="1384" y1="114.6348" y2="114.6348"/><rect fill="none" height="6" style="stroke:#C82930;stroke-width:1.0;" width="6" x="835" y="126.4453"/><text fill="#000000" font-family="sans-serif" font-size="14" lengthAdjust="spacing" textLength="186" x="847" y="133.7422">deviceService: DeviceService</text><line style="stroke:#181818;stroke-width:0.5;" x1="828" x2="1384" y1="141.2559" y2="141.2559"/><ellipse cx="838" cy="165.377" fill="#84BE84" rx="3" ry="3" style="stroke:#038048;stroke-width:1.0;"/><text fill="#000000" font-family="sans-serif" font-size="14" lengthAdjust="spacing" textLength="532" x="847" y="160.3633">POST createDeviceAndSaveToRepository(@RequestBody DeviceDTO deviceDTO):</text><text fill="#000000" font-family="sans-serif" font-size="14" lengthAdjust="spacing" textLength="414" x="847" y="178.9844">ResponseEntity&lt;Object&gt; savedDeviceDTO, HttpStatus.CREATED</text></g><!--class DeviceService--><g id="elem_DeviceService"><rect codeLine="11" fill="#F1F1F1" height="122.4844" id="DeviceService" rx="2.5" ry="2.5" style="stroke:#181818;stroke-width:0.5;" width="519" x="662.5" y="246.6348"/><ellipse cx="872.75" cy="262.6348" fill="#ADD1B2" rx="11" ry="11" style="stroke:#181818;stroke-width:1.0;"/><path d="M875.5156,258.5098 Q875.6719,258.291 875.8594,258.1816 Q876.0469,258.0723 876.2656,258.0723 Q876.6406,258.0723 876.875,258.3379 Q877.1094,258.5879 877.1094,259.1973 L877.1094,260.6504 Q877.1094,261.2598 876.875,261.5254 Q876.6406,261.791 876.2656,261.791 Q875.9219,261.791 875.7188,261.5879 Q875.5156,261.4004 875.4063,260.8848 Q875.3594,260.5254 875.1719,260.3379 Q874.8438,259.9629 874.2344,259.7441 Q873.625,259.5254 873,259.5254 Q872.2344,259.5254 871.5938,259.8535 Q870.9688,260.1816 870.4688,260.9316 Q869.9844,261.6816 869.9844,262.7129 L869.9844,263.8066 Q869.9844,265.041 870.875,265.8691 Q871.7656,266.6816 873.3594,266.6816 Q874.2969,266.6816 874.9531,266.4316 Q875.3438,266.2754 875.7656,265.8379 Q876.0313,265.5723 876.1719,265.4941 Q876.3281,265.416 876.5313,265.416 Q876.8594,265.416 877.1094,265.6816 Q877.375,265.9316 877.375,266.2754 Q877.375,266.6191 877.0313,267.0254 Q876.5313,267.6035 875.7344,267.9316 Q874.6563,268.3848 873.3594,268.3848 Q871.8438,268.3848 870.6406,267.7598 Q869.6563,267.2598 868.9688,266.1973 Q868.2813,265.1191 868.2813,263.8379 L868.2813,262.6816 Q868.2813,261.3535 868.8906,260.2129 Q869.5156,259.0566 870.6094,258.4473 Q871.7031,257.8223 872.9375,257.8223 Q873.6719,257.8223 874.3125,257.9941 Q874.9688,258.1504 875.5156,258.5098 Z " fill="#000000"/><text fill="#000000" font-family="sans-serif" font-size="14" lengthAdjust="spacing" textLength="90" x="893.25" y="268.4316">DeviceService</text><line style="stroke:#181818;stroke-width:0.5;" x1="663.5" x2="1180.5" y1="278.6348" y2="278.6348"/><rect fill="none" height="6" style="stroke:#C82930;stroke-width:1.0;" width="6" x="670.5" y="290.4453"/><text fill="#000000" font-family="sans-serif" font-size="14" lengthAdjust="spacing" textLength="228" x="682.5" y="297.7422">deviceRepository: DeviceRepository</text><rect fill="none" height="6" style="stroke:#C82930;stroke-width:1.0;" width="6" x="670.5" y="309.0664"/><text fill="#000000" font-family="sans-serif" font-size="14" lengthAdjust="spacing" textLength="213" x="682.5" y="316.3633">roomRepository: RoomRepository</text><rect fill="none" height="6" style="stroke:#C82930;stroke-width:1.0;" width="6" x="670.5" y="327.6875"/><text fill="#000000" font-family="sans-serif" font-size="14" lengthAdjust="spacing" textLength="185" x="682.5" y="334.9844">factoryDevice: FactoryDevice</text><line style="stroke:#181818;stroke-width:0.5;" x1="663.5" x2="1180.5" y1="342.498" y2="342.498"/><ellipse cx="673.5" cy="357.3086" fill="#84BE84" rx="3" ry="3" style="stroke:#038048;stroke-width:1.0;"/><text fill="#000000" font-family="sans-serif" font-size="14" lengthAdjust="spacing" textLength="493" x="682.5" y="361.6055">createDeviceAndSaveToRepository(deviceID, deviceModel, roomID): DeviceID</text></g><!--class Repository--><g id="elem_Repository"><rect codeLine="18" fill="#F1F1F1" height="66.6211" id="Repository" rx="2.5" ry="2.5" style="stroke:#181818;stroke-width:0.5;" width="244" x="22" y="274.1348"/><ellipse cx="105.75" cy="290.1348" fill="#B4A7E5" rx="11" ry="11" style="stroke:#181818;stroke-width:1.0;"/><path d="M106.7031,286.7754 L106.7031,293.4316 L108.4219,293.4316 Q109.0313,293.4316 109.2969,293.666 Q109.5625,293.9004 109.5625,294.291 Q109.5625,294.666 109.2969,294.9004 Q109.0313,295.1348 108.4219,295.1348 L103.2813,295.1348 Q102.6719,295.1348 102.4063,294.9004 Q102.1406,294.666 102.1406,294.2754 Q102.1406,293.9004 102.4063,293.666 Q102.6719,293.4316 103.2813,293.4316 L105,293.4316 L105,286.7754 L103.2813,286.7754 Q102.6719,286.7754 102.4063,286.541 Q102.1406,286.3066 102.1406,285.916 Q102.1406,285.541 102.4063,285.3066 Q102.6719,285.0723 103.2813,285.0723 L108.4219,285.0723 Q109.0313,285.0723 109.2969,285.3066 Q109.5625,285.541 109.5625,285.916 Q109.5625,286.3066 109.2969,286.541 Q109.0313,286.7754 108.4219,286.7754 L106.7031,286.7754 Z " fill="#000000"/><text fill="#000000" font-family="sans-serif" font-size="14" font-style="italic" lengthAdjust="spacing" textLength="68" x="126.25" y="295.9316">Repository</text><line style="stroke:#181818;stroke-width:0.5;" x1="23" x2="265" y1="306.1348" y2="306.1348"/><line style="stroke:#181818;stroke-width:0.5;" x1="23" x2="265" y1="314.1348" y2="314.1348"/><ellipse cx="33" cy="328.9453" fill="#84BE84" rx="3" ry="3" style="stroke:#038048;stroke-width:1.0;"/><text fill="#000000" font-family="sans-serif" font-size="14" lengthAdjust="spacing" textLength="218" x="42" y="333.2422">containsEntityByID(ID id) : boolean</text></g><!--class DeviceRepository--><g id="elem_DeviceRepository"><rect codeLine="22" fill="#F1F1F1" height="66.6211" id="DeviceRepository" rx="2.5" ry="2.5" style="stroke:#181818;stroke-width:0.5;" width="158" x="137" y="437.6348"/><ellipse cx="159.2" cy="453.6348" fill="#B4A7E5" rx="11" ry="11" style="stroke:#181818;stroke-width:1.0;"/><path d="M160.1531,450.2754 L160.1531,456.9316 L161.8719,456.9316 Q162.4813,456.9316 162.7469,457.166 Q163.0125,457.4004 163.0125,457.791 Q163.0125,458.166 162.7469,458.4004 Q162.4813,458.6348 161.8719,458.6348 L156.7313,458.6348 Q156.1219,458.6348 155.8563,458.4004 Q155.5906,458.166 155.5906,457.7754 Q155.5906,457.4004 155.8563,457.166 Q156.1219,456.9316 156.7313,456.9316 L158.45,456.9316 L158.45,450.2754 L156.7313,450.2754 Q156.1219,450.2754 155.8563,450.041 Q155.5906,449.8066 155.5906,449.416 Q155.5906,449.041 155.8563,448.8066 Q156.1219,448.5723 156.7313,448.5723 L161.8719,448.5723 Q162.4813,448.5723 162.7469,448.8066 Q163.0125,449.041 163.0125,449.416 Q163.0125,449.8066 162.7469,450.041 Q162.4813,450.2754 161.8719,450.2754 L160.1531,450.2754 Z " fill="#000000"/><text fill="#000000" font-family="sans-serif" font-size="14" font-style="italic" lengthAdjust="spacing" textLength="110" x="174.8" y="459.4316">DeviceRepository</text><line style="stroke:#181818;stroke-width:0.5;" x1="138" x2="294" y1="469.6348" y2="469.6348"/><line style="stroke:#181818;stroke-width:0.5;" x1="138" x2="294" y1="477.6348" y2="477.6348"/><ellipse cx="148" cy="492.4453" fill="#84BE84" rx="3" ry="3" style="stroke:#038048;stroke-width:1.0;"/><text fill="#000000" font-family="sans-serif" font-size="14" lengthAdjust="spacing" textLength="132" x="157" y="496.7422">save(device): Device</text></g><!--class RoomRepository--><g id="elem_RoomRepository"><rect codeLine="26" fill="#F1F1F1" height="48" id="RoomRepository" rx="2.5" ry="2.5" style="stroke:#181818;stroke-width:0.5;" width="137" x="402.5" y="447.1348"/><ellipse cx="417.5" cy="463.1348" fill="#B4A7E5" rx="11" ry="11" style="stroke:#181818;stroke-width:1.0;"/><path d="M418.4531,459.7754 L418.4531,466.4316 L420.1719,466.4316 Q420.7813,466.4316 421.0469,466.666 Q421.3125,466.9004 421.3125,467.291 Q421.3125,467.666 421.0469,467.9004 Q420.7813,468.1348 420.1719,468.1348 L415.0313,468.1348 Q414.4219,468.1348 414.1563,467.9004 Q413.8906,467.666 413.8906,467.2754 Q413.8906,466.9004 414.1563,466.666 Q414.4219,466.4316 415.0313,466.4316 L416.75,466.4316 L416.75,459.7754 L415.0313,459.7754 Q414.4219,459.7754 414.1563,459.541 Q413.8906,459.3066 413.8906,458.916 Q413.8906,458.541 414.1563,458.3066 Q414.4219,458.0723 415.0313,458.0723 L420.1719,458.0723 Q420.7813,458.0723 421.0469,458.3066 Q421.3125,458.541 421.3125,458.916 Q421.3125,459.3066 421.0469,459.541 Q420.7813,459.7754 420.1719,459.7754 L418.4531,459.7754 Z " fill="#000000"/><text fill="#000000" font-family="sans-serif" font-size="14" font-style="italic" lengthAdjust="spacing" textLength="105" x="431.5" y="468.9316">RoomRepository</text><line style="stroke:#181818;stroke-width:0.5;" x1="403.5" x2="538.5" y1="479.1348" y2="479.1348"/><line style="stroke:#181818;stroke-width:0.5;" x1="403.5" x2="538.5" y1="487.1348" y2="487.1348"/></g><!--class FactoryDevice--><g id="elem_FactoryDevice"><rect codeLine="29" fill="#F1F1F1" height="85.2422" id="FactoryDevice" rx="2.5" ry="2.5" style="stroke:#181818;stroke-width:0.5;" width="408" x="718" y="428.6348"/><ellipse cx="872.75" cy="444.6348" fill="#B4A7E5" rx="11" ry="11" style="stroke:#181818;stroke-width:1.0;"/><path d="M873.7031,441.2754 L873.7031,447.9316 L875.4219,447.9316 Q876.0313,447.9316 876.2969,448.166 Q876.5625,448.4004 876.5625,448.791 Q876.5625,449.166 876.2969,449.4004 Q876.0313,449.6348 875.4219,449.6348 L870.2813,449.6348 Q869.6719,449.6348 869.4063,449.4004 Q869.1406,449.166 869.1406,448.7754 Q869.1406,448.4004 869.4063,448.166 Q869.6719,447.9316 870.2813,447.9316 L872,447.9316 L872,441.2754 L870.2813,441.2754 Q869.6719,441.2754 869.4063,441.041 Q869.1406,440.8066 869.1406,440.416 Q869.1406,440.041 869.4063,439.8066 Q869.6719,439.5723 870.2813,439.5723 L875.4219,439.5723 Q876.0313,439.5723 876.2969,439.8066 Q876.5625,440.041 876.5625,440.416 Q876.5625,440.8066 876.2969,441.041 Q876.0313,441.2754 875.4219,441.2754 L873.7031,441.2754 Z " fill="#000000"/><text fill="#000000" font-family="sans-serif" font-size="14" font-style="italic" lengthAdjust="spacing" textLength="90" x="893.25" y="450.4316">FactoryDevice</text><line style="stroke:#181818;stroke-width:0.5;" x1="719" x2="1125" y1="460.6348" y2="460.6348"/><line style="stroke:#181818;stroke-width:0.5;" x1="719" x2="1125" y1="468.6348" y2="468.6348"/><ellipse cx="729" cy="492.7559" fill="#84BE84" rx="3" ry="3" style="stroke:#038048;stroke-width:1.0;"/><text fill="#000000" font-family="sans-serif" font-size="14" lengthAdjust="spacing" textLength="382" x="738" y="487.7422">createDevice(DeviceID deviceID, DeviceModel  deviceModel,</text><text fill="#000000" font-family="sans-serif" font-size="14" lengthAdjust="spacing" textLength="159" x="742" y="506.3633">RoomID roomID) : Device</text></g><!--class ImpFactoryDevice--><g id="elem_ImpFactoryDevice"><rect codeLine="33" fill="#F1F1F1" height="85.2422" id="ImpFactoryDevice" rx="2.5" ry="2.5" style="stroke:#181818;stroke-width:0.5;" width="404" x="720" y="573.6348"/><ellipse cx="861.25" cy="589.6348" fill="#ADD1B2" rx="11" ry="11" style="stroke:#181818;stroke-width:1.0;"/><path d="M864.0156,585.5098 Q864.1719,585.291 864.3594,585.1816 Q864.5469,585.0723 864.7656,585.0723 Q865.1406,585.0723 865.375,585.3379 Q865.6094,585.5879 865.6094,586.1973 L865.6094,587.6504 Q865.6094,588.2598 865.375,588.5254 Q865.1406,588.791 864.7656,588.791 Q864.4219,588.791 864.2188,588.5879 Q864.0156,588.4004 863.9063,587.8848 Q863.8594,587.5254 863.6719,587.3379 Q863.3438,586.9629 862.7344,586.7441 Q862.125,586.5254 861.5,586.5254 Q860.7344,586.5254 860.0938,586.8535 Q859.4688,587.1816 858.9688,587.9316 Q858.4844,588.6816 858.4844,589.7129 L858.4844,590.8066 Q858.4844,592.041 859.375,592.8691 Q860.2656,593.6816 861.8594,593.6816 Q862.7969,593.6816 863.4531,593.4316 Q863.8438,593.2754 864.2656,592.8379 Q864.5313,592.5723 864.6719,592.4941 Q864.8281,592.416 865.0313,592.416 Q865.3594,592.416 865.6094,592.6816 Q865.875,592.9316 865.875,593.2754 Q865.875,593.6191 865.5313,594.0254 Q865.0313,594.6035 864.2344,594.9316 Q863.1563,595.3848 861.8594,595.3848 Q860.3438,595.3848 859.1406,594.7598 Q858.1563,594.2598 857.4688,593.1973 Q856.7813,592.1191 856.7813,590.8379 L856.7813,589.6816 Q856.7813,588.3535 857.3906,587.2129 Q858.0156,586.0566 859.1094,585.4473 Q860.2031,584.8223 861.4375,584.8223 Q862.1719,584.8223 862.8125,584.9941 Q863.4688,585.1504 864.0156,585.5098 Z " fill="#000000"/><text fill="#000000" font-family="sans-serif" font-size="14" lengthAdjust="spacing" textLength="113" x="881.75" y="595.4316">ImpFactoryDevice</text><line style="stroke:#181818;stroke-width:0.5;" x1="721" x2="1123" y1="605.6348" y2="605.6348"/><line style="stroke:#181818;stroke-width:0.5;" x1="721" x2="1123" y1="613.6348" y2="613.6348"/><ellipse cx="731" cy="637.7559" fill="#84BE84" rx="3" ry="3" style="stroke:#038048;stroke-width:1.0;"/><text fill="#000000" font-family="sans-serif" font-size="14" lengthAdjust="spacing" textLength="378" x="740" y="632.7422">createDevice(DeviceID deviceID, DeviceModel deviceModel,</text><text fill="#000000" font-family="sans-serif" font-size="14" lengthAdjust="spacing" textLength="159" x="744" y="651.3633">RoomID roomID) : Device</text></g><!--class DeviceID--><g id="elem_DeviceID"><rect codeLine="38" fill="#F1F1F1" height="66.6211" id="DeviceID" rx="2.5" ry="2.5" style="stroke:#181818;stroke-width:0.5;" width="148" x="1217" y="274.1348"/><ellipse cx="1249.55" cy="290.1348" fill="#ADD1B2" rx="11" ry="11" style="stroke:#181818;stroke-width:1.0;"/><path d="M1252.3156,286.0098 Q1252.4719,285.791 1252.6594,285.6816 Q1252.8469,285.5723 1253.0656,285.5723 Q1253.4406,285.5723 1253.675,285.8379 Q1253.9094,286.0879 1253.9094,286.6973 L1253.9094,288.1504 Q1253.9094,288.7598 1253.675,289.0254 Q1253.4406,289.291 1253.0656,289.291 Q1252.7219,289.291 1252.5188,289.0879 Q1252.3156,288.9004 1252.2063,288.3848 Q1252.1594,288.0254 1251.9719,287.8379 Q1251.6438,287.4629 1251.0344,287.2441 Q1250.425,287.0254 1249.8,287.0254 Q1249.0344,287.0254 1248.3938,287.3535 Q1247.7688,287.6816 1247.2688,288.4316 Q1246.7844,289.1816 1246.7844,290.2129 L1246.7844,291.3066 Q1246.7844,292.541 1247.675,293.3691 Q1248.5656,294.1816 1250.1594,294.1816 Q1251.0969,294.1816 1251.7531,293.9316 Q1252.1438,293.7754 1252.5656,293.3379 Q1252.8313,293.0723 1252.9719,292.9941 Q1253.1281,292.916 1253.3313,292.916 Q1253.6594,292.916 1253.9094,293.1816 Q1254.175,293.4316 1254.175,293.7754 Q1254.175,294.1191 1253.8313,294.5254 Q1253.3313,295.1035 1252.5344,295.4316 Q1251.4563,295.8848 1250.1594,295.8848 Q1248.6438,295.8848 1247.4406,295.2598 Q1246.4563,294.7598 1245.7688,293.6973 Q1245.0813,292.6191 1245.0813,291.3379 L1245.0813,290.1816 Q1245.0813,288.8535 1245.6906,287.7129 Q1246.3156,286.5566 1247.4094,285.9473 Q1248.5031,285.3223 1249.7375,285.3223 Q1250.4719,285.3223 1251.1125,285.4941 Q1251.7688,285.6504 1252.3156,286.0098 Z " fill="#000000"/><text fill="#000000" font-family="sans-serif" font-size="14" lengthAdjust="spacing" textLength="56" x="1267.45" y="295.9316">DeviceID</text><rect fill="#FFFFFF" height="17.9609" style="stroke:#181818;stroke-width:1.0;stroke-dasharray:2.0,2.0;" width="19" x="1349" y="271.1348"/><text fill="#000000" font-family="sans-serif" font-size="12" font-style="italic" lengthAdjust="spacing" textLength="17" x="1350" y="285.084">VO</text><line style="stroke:#181818;stroke-width:0.5;" x1="1218" x2="1364" y1="306.1348" y2="306.1348"/><rect fill="none" height="6" style="stroke:#C82930;stroke-width:1.0;" width="6" x="1225" y="317.9453"/><text fill="#000000" font-family="sans-serif" font-size="14" lengthAdjust="spacing" textLength="122" x="1237" y="325.2422">deviceName: String</text><line style="stroke:#181818;stroke-width:0.5;" x1="1218" x2="1364" y1="332.7559" y2="332.7559"/></g><!--class DeviceModel--><g id="elem_DeviceModel"><rect codeLine="42" fill="#F1F1F1" height="66.6211" id="DeviceModel" rx="2.5" ry="2.5" style="stroke:#181818;stroke-width:0.5;" width="150" x="1400" y="274.1348"/><ellipse cx="1422.2" cy="290.1348" fill="#ADD1B2" rx="11" ry="11" style="stroke:#181818;stroke-width:1.0;"/><path d="M1424.9656,286.0098 Q1425.1219,285.791 1425.3094,285.6816 Q1425.4969,285.5723 1425.7156,285.5723 Q1426.0906,285.5723 1426.325,285.8379 Q1426.5594,286.0879 1426.5594,286.6973 L1426.5594,288.1504 Q1426.5594,288.7598 1426.325,289.0254 Q1426.0906,289.291 1425.7156,289.291 Q1425.3719,289.291 1425.1688,289.0879 Q1424.9656,288.9004 1424.8563,288.3848 Q1424.8094,288.0254 1424.6219,287.8379 Q1424.2938,287.4629 1423.6844,287.2441 Q1423.075,287.0254 1422.45,287.0254 Q1421.6844,287.0254 1421.0438,287.3535 Q1420.4188,287.6816 1419.9188,288.4316 Q1419.4344,289.1816 1419.4344,290.2129 L1419.4344,291.3066 Q1419.4344,292.541 1420.325,293.3691 Q1421.2156,294.1816 1422.8094,294.1816 Q1423.7469,294.1816 1424.4031,293.9316 Q1424.7938,293.7754 1425.2156,293.3379 Q1425.4813,293.0723 1425.6219,292.9941 Q1425.7781,292.916 1425.9813,292.916 Q1426.3094,292.916 1426.5594,293.1816 Q1426.825,293.4316 1426.825,293.7754 Q1426.825,294.1191 1426.4813,294.5254 Q1425.9813,295.1035 1425.1844,295.4316 Q1424.1063,295.8848 1422.8094,295.8848 Q1421.2938,295.8848 1420.0906,295.2598 Q1419.1063,294.7598 1418.4188,293.6973 Q1417.7313,292.6191 1417.7313,291.3379 L1417.7313,290.1816 Q1417.7313,288.8535 1418.3406,287.7129 Q1418.9656,286.5566 1420.0594,285.9473 Q1421.1531,285.3223 1422.3875,285.3223 Q1423.1219,285.3223 1423.7625,285.4941 Q1424.4188,285.6504 1424.9656,286.0098 Z " fill="#000000"/><text fill="#000000" font-family="sans-serif" font-size="14" lengthAdjust="spacing" textLength="81" x="1437.8" y="295.9316">DeviceModel</text><rect fill="#FFFFFF" height="17.9609" style="stroke:#181818;stroke-width:1.0;stroke-dasharray:2.0,2.0;" width="19" x="1534" y="271.1348"/><text fill="#000000" font-family="sans-serif" font-size="12" font-style="italic" lengthAdjust="spacing" textLength="17" x="1535" y="285.084">VO</text><line style="stroke:#181818;stroke-width:0.5;" x1="1401" x2="1549" y1="306.1348" y2="306.1348"/><rect fill="none" height="6" style="stroke:#C82930;stroke-width:1.0;" width="6" x="1408" y="317.9453"/><text fill="#000000" font-family="sans-serif" font-size="14" lengthAdjust="spacing" textLength="124" x="1420" y="325.2422">deviceModel: String</text><line style="stroke:#181818;stroke-width:0.5;" x1="1401" x2="1549" y1="332.7559" y2="332.7559"/></g><!--class RoomID--><g id="elem_RoomID"><rect codeLine="46" fill="#F1F1F1" height="66.6211" id="RoomID" rx="2.5" ry="2.5" style="stroke:#181818;stroke-width:0.5;" width="139" x="1585.5" y="274.1348"/><ellipse cx="1616.7" cy="290.1348" fill="#ADD1B2" rx="11" ry="11" style="stroke:#181818;stroke-width:1.0;"/><path d="M1619.4656,286.0098 Q1619.6219,285.791 1619.8094,285.6816 Q1619.9969,285.5723 1620.2156,285.5723 Q1620.5906,285.5723 1620.825,285.8379 Q1621.0594,286.0879 1621.0594,286.6973 L1621.0594,288.1504 Q1621.0594,288.7598 1620.825,289.0254 Q1620.5906,289.291 1620.2156,289.291 Q1619.8719,289.291 1619.6688,289.0879 Q1619.4656,288.9004 1619.3563,288.3848 Q1619.3094,288.0254 1619.1219,287.8379 Q1618.7938,287.4629 1618.1844,287.2441 Q1617.575,287.0254 1616.95,287.0254 Q1616.1844,287.0254 1615.5438,287.3535 Q1614.9188,287.6816 1614.4188,288.4316 Q1613.9344,289.1816 1613.9344,290.2129 L1613.9344,291.3066 Q1613.9344,292.541 1614.825,293.3691 Q1615.7156,294.1816 1617.3094,294.1816 Q1618.2469,294.1816 1618.9031,293.9316 Q1619.2938,293.7754 1619.7156,293.3379 Q1619.9813,293.0723 1620.1219,292.9941 Q1620.2781,292.916 1620.4813,292.916 Q1620.8094,292.916 1621.0594,293.1816 Q1621.325,293.4316 1621.325,293.7754 Q1621.325,294.1191 1620.9813,294.5254 Q1620.4813,295.1035 1619.6844,295.4316 Q1618.6063,295.8848 1617.3094,295.8848 Q1615.7938,295.8848 1614.5906,295.2598 Q1613.6063,294.7598 1612.9188,293.6973 Q1612.2313,292.6191 1612.2313,291.3379 L1612.2313,290.1816 Q1612.2313,288.8535 1612.8406,287.7129 Q1613.4656,286.5566 1614.5594,285.9473 Q1615.6531,285.3223 1616.8875,285.3223 Q1617.6219,285.3223 1618.2625,285.4941 Q1618.9188,285.6504 1619.4656,286.0098 Z " fill="#000000"/><text fill="#000000" font-family="sans-serif" font-size="14" lengthAdjust="spacing" textLength="50" x="1634.3" y="295.9316">RoomID</text><rect fill="#FFFFFF" height="17.9609" style="stroke:#181818;stroke-width:1.0;stroke-dasharray:2.0,2.0;" width="19" x="1708.5" y="271.1348"/><text fill="#000000" font-family="sans-serif" font-size="12" font-style="italic" lengthAdjust="spacing" textLength="17" x="1709.5" y="285.084">VO</text><line style="stroke:#181818;stroke-width:0.5;" x1="1586.5" x2="1723.5" y1="306.1348" y2="306.1348"/><rect fill="none" height="6" style="stroke:#C82930;stroke-width:1.0;" width="6" x="1593.5" y="317.9453"/><text fill="#000000" font-family="sans-serif" font-size="14" lengthAdjust="spacing" textLength="113" x="1605.5" y="325.2422">roomName: String</text><line style="stroke:#181818;stroke-width:0.5;" x1="1586.5" x2="1723.5" y1="332.7559" y2="332.7559"/></g><!--class DeviceDTO--><g id="elem_DeviceDTO"><rect codeLine="50" fill="#F1F1F1" height="122.4844" id="DeviceDTO" rx="2.5" ry="2.5" style="stroke:#181818;stroke-width:0.5;" width="152" x="301" y="246.6348"/><ellipse cx="337.15" cy="262.6348" fill="#ADD1B2" rx="11" ry="11" style="stroke:#181818;stroke-width:1.0;"/><path d="M339.9156,258.5098 Q340.0719,258.291 340.2594,258.1816 Q340.4469,258.0723 340.6656,258.0723 Q341.0406,258.0723 341.275,258.3379 Q341.5094,258.5879 341.5094,259.1973 L341.5094,260.6504 Q341.5094,261.2598 341.275,261.5254 Q341.0406,261.791 340.6656,261.791 Q340.3219,261.791 340.1188,261.5879 Q339.9156,261.4004 339.8063,260.8848 Q339.7594,260.5254 339.5719,260.3379 Q339.2438,259.9629 338.6344,259.7441 Q338.025,259.5254 337.4,259.5254 Q336.6344,259.5254 335.9938,259.8535 Q335.3688,260.1816 334.8688,260.9316 Q334.3844,261.6816 334.3844,262.7129 L334.3844,263.8066 Q334.3844,265.041 335.275,265.8691 Q336.1656,266.6816 337.7594,266.6816 Q338.6969,266.6816 339.3531,266.4316 Q339.7438,266.2754 340.1656,265.8379 Q340.4313,265.5723 340.5719,265.4941 Q340.7281,265.416 340.9313,265.416 Q341.2594,265.416 341.5094,265.6816 Q341.775,265.9316 341.775,266.2754 Q341.775,266.6191 341.4313,267.0254 Q340.9313,267.6035 340.1344,267.9316 Q339.0563,268.3848 337.7594,268.3848 Q336.2438,268.3848 335.0406,267.7598 Q334.0563,267.2598 333.3688,266.1973 Q332.6813,265.1191 332.6813,263.8379 L332.6813,262.6816 Q332.6813,261.3535 333.2906,260.2129 Q333.9156,259.0566 335.0094,258.4473 Q336.1031,257.8223 337.3375,257.8223 Q338.0719,257.8223 338.7125,257.9941 Q339.3688,258.1504 339.9156,258.5098 Z " fill="#000000"/><text fill="#000000" font-family="sans-serif" font-size="14" lengthAdjust="spacing" textLength="73" x="355.85" y="268.4316">DeviceDTO</text><line style="stroke:#181818;stroke-width:0.5;" x1="302" x2="452" y1="278.6348" y2="278.6348"/><ellipse cx="312" cy="293.4453" fill="none" rx="3" ry="3" style="stroke:#038048;stroke-width:1.0;"/><text fill="#000000" font-family="sans-serif" font-size="14" lengthAdjust="spacing" textLength="122" x="321" y="297.7422">deviceName: String</text><ellipse cx="312" cy="312.0664" fill="none" rx="3" ry="3" style="stroke:#038048;stroke-width:1.0;"/><text fill="#000000" font-family="sans-serif" font-size="14" lengthAdjust="spacing" textLength="124" x="321" y="316.3633">deviceModel: String</text><ellipse cx="312" cy="330.6875" fill="none" rx="3" ry="3" style="stroke:#038048;stroke-width:1.0;"/><text fill="#000000" font-family="sans-serif" font-size="14" lengthAdjust="spacing" textLength="126" x="321" y="334.9844">deviceStatus: String</text><ellipse cx="312" cy="349.3086" fill="none" rx="3" ry="3" style="stroke:#038048;stroke-width:1.0;"/><text fill="#000000" font-family="sans-serif" font-size="14" lengthAdjust="spacing" textLength="113" x="321" y="353.6055">roomName: String</text><line style="stroke:#181818;stroke-width:0.5;" x1="302" x2="452" y1="361.1191" y2="361.1191"/></g><!--class RoomDTO--><g id="elem_RoomDTO"><rect codeLine="57" fill="#F1F1F1" height="66.6211" id="RoomDTO" rx="2.5" ry="2.5" style="stroke:#181818;stroke-width:0.5;" width="139" x="488.5" y="274.1348"/><ellipse cx="521.5" cy="290.1348" fill="#ADD1B2" rx="11" ry="11" style="stroke:#181818;stroke-width:1.0;"/><path d="M524.2656,286.0098 Q524.4219,285.791 524.6094,285.6816 Q524.7969,285.5723 525.0156,285.5723 Q525.3906,285.5723 525.625,285.8379 Q525.8594,286.0879 525.8594,286.6973 L525.8594,288.1504 Q525.8594,288.7598 525.625,289.0254 Q525.3906,289.291 525.0156,289.291 Q524.6719,289.291 524.4688,289.0879 Q524.2656,288.9004 524.1563,288.3848 Q524.1094,288.0254 523.9219,287.8379 Q523.5938,287.4629 522.9844,287.2441 Q522.375,287.0254 521.75,287.0254 Q520.9844,287.0254 520.3438,287.3535 Q519.7188,287.6816 519.2188,288.4316 Q518.7344,289.1816 518.7344,290.2129 L518.7344,291.3066 Q518.7344,292.541 519.625,293.3691 Q520.5156,294.1816 522.1094,294.1816 Q523.0469,294.1816 523.7031,293.9316 Q524.0938,293.7754 524.5156,293.3379 Q524.7813,293.0723 524.9219,292.9941 Q525.0781,292.916 525.2813,292.916 Q525.6094,292.916 525.8594,293.1816 Q526.125,293.4316 526.125,293.7754 Q526.125,294.1191 525.7813,294.5254 Q525.2813,295.1035 524.4844,295.4316 Q523.4063,295.8848 522.1094,295.8848 Q520.5938,295.8848 519.3906,295.2598 Q518.4063,294.7598 517.7188,293.6973 Q517.0313,292.6191 517.0313,291.3379 L517.0313,290.1816 Q517.0313,288.8535 517.6406,287.7129 Q518.2656,286.5566 519.3594,285.9473 Q520.4531,285.3223 521.6875,285.3223 Q522.4219,285.3223 523.0625,285.4941 Q523.7188,285.6504 524.2656,286.0098 Z " fill="#000000"/><text fill="#000000" font-family="sans-serif" font-size="14" lengthAdjust="spacing" textLength="67" x="539.5" y="295.9316">RoomDTO</text><line style="stroke:#181818;stroke-width:0.5;" x1="489.5" x2="626.5" y1="306.1348" y2="306.1348"/><ellipse cx="499.5" cy="320.9453" fill="none" rx="3" ry="3" style="stroke:#038048;stroke-width:1.0;"/><text fill="#000000" font-family="sans-serif" font-size="14" lengthAdjust="spacing" textLength="113" x="508.5" y="325.2422">roomName: String</text><line style="stroke:#181818;stroke-width:0.5;" x1="489.5" x2="626.5" y1="332.7559" y2="332.7559"/></g><!--class Device--><g id="elem_Device"><rect codeLine="61" fill="#F1F1F1" height="141.1055" id="Device" rx="2.5" ry="2.5" style="stroke:#181818;stroke-width:0.5;" width="198" x="823" y="779.6348"/><ellipse cx="877.25" cy="795.6348" fill="#ADD1B2" rx="11" ry="11" style="stroke:#181818;stroke-width:1.0;"/><path d="M880.0156,791.5098 Q880.1719,791.291 880.3594,791.1816 Q880.5469,791.0723 880.7656,791.0723 Q881.1406,791.0723 881.375,791.3379 Q881.6094,791.5879 881.6094,792.1973 L881.6094,793.6504 Q881.6094,794.2598 881.375,794.5254 Q881.1406,794.791 880.7656,794.791 Q880.4219,794.791 880.2188,794.5879 Q880.0156,794.4004 879.9063,793.8848 Q879.8594,793.5254 879.6719,793.3379 Q879.3438,792.9629 878.7344,792.7441 Q878.125,792.5254 877.5,792.5254 Q876.7344,792.5254 876.0938,792.8535 Q875.4688,793.1816 874.9688,793.9316 Q874.4844,794.6816 874.4844,795.7129 L874.4844,796.8066 Q874.4844,798.041 875.375,798.8691 Q876.2656,799.6816 877.8594,799.6816 Q878.7969,799.6816 879.4531,799.4316 Q879.8438,799.2754 880.2656,798.8379 Q880.5313,798.5723 880.6719,798.4941 Q880.8281,798.416 881.0313,798.416 Q881.3594,798.416 881.6094,798.6816 Q881.875,798.9316 881.875,799.2754 Q881.875,799.6191 881.5313,800.0254 Q881.0313,800.6035 880.2344,800.9316 Q879.1563,801.3848 877.8594,801.3848 Q876.3438,801.3848 875.1406,800.7598 Q874.1563,800.2598 873.4688,799.1973 Q872.7813,798.1191 872.7813,796.8379 L872.7813,795.6816 Q872.7813,794.3535 873.3906,793.2129 Q874.0156,792.0566 875.1094,791.4473 Q876.2031,790.8223 877.4375,790.8223 Q878.1719,790.8223 878.8125,790.9941 Q879.4688,791.1504 880.0156,791.5098 Z " fill="#000000"/><text fill="#000000" font-family="sans-serif" font-size="14" lengthAdjust="spacing" textLength="43" x="897.75" y="801.4316">Device</text><rect fill="#FFFFFF" height="17.9609" style="stroke:#181818;stroke-width:1.0;stroke-dasharray:2.0,2.0;" width="36" x="988" y="776.6348"/><text fill="#000000" font-family="sans-serif" font-size="12" font-style="italic" lengthAdjust="spacing" textLength="34" x="989" y="790.584">ROOT</text><line style="stroke:#181818;stroke-width:0.5;" x1="824" x2="1020" y1="811.6348" y2="811.6348"/><rect fill="none" height="6" style="stroke:#C82930;stroke-width:1.0;" width="6" x="831" y="823.4453"/><text fill="#000000" font-family="sans-serif" font-size="14" lengthAdjust="spacing" textLength="141" x="843" y="830.7422">deviceName: DeviceID</text><rect fill="none" height="6" style="stroke:#C82930;stroke-width:1.0;" width="6" x="831" y="842.0664"/><text fill="#000000" font-family="sans-serif" font-size="14" lengthAdjust="spacing" textLength="168" x="843" y="849.3633">deviceModel: DeviceModel</text><rect fill="none" height="6" style="stroke:#C82930;stroke-width:1.0;" width="6" x="831" y="860.6875"/><text fill="#000000" font-family="sans-serif" font-size="14" lengthAdjust="spacing" textLength="172" x="843" y="867.9844">deviceStatus: DeviceStatus</text><rect fill="none" height="6" style="stroke:#C82930;stroke-width:1.0;" width="6" x="831" y="879.3086"/><text fill="#000000" font-family="sans-serif" font-size="14" lengthAdjust="spacing" textLength="103" x="843" y="886.6055">roomID: RoomID</text><line style="stroke:#181818;stroke-width:0.5;" x1="824" x2="1020" y1="894.1191" y2="894.1191"/><ellipse cx="834" cy="908.9297" fill="#84BE84" rx="3" ry="3" style="stroke:#038048;stroke-width:1.0;"/><text fill="#000000" font-family="sans-serif" font-size="14" lengthAdjust="spacing" textLength="119" x="843" y="913.2266">identity(): DeviceID</text></g><!--reverse link Repository to DeviceRepository--><g id="link_Repository_DeviceRepository"><path d="M180,359.5148 C180,387.6648 180,409.5148 180,437.5848 " fill="none" id="Repository-backto-DeviceRepository" style="stroke:#181818;stroke-width:1.0;"/><polygon fill="none" points="180,341.5148,174,359.5148,186,359.5148,180,341.5148" style="stroke:#181818;stroke-width:1.0;"/></g><!--reverse link Repository to RoomRepository--><g id="link_Repository_RoomRepository"><path d="M223,359.2648 C223,385.1848 223,398.6348 223,398.6348 C223,398.6348 427.75,398.6348 427.75,398.6348 C427.75,398.6348 427.75,425.9048 427.75,446.9948 " fill="none" id="Repository-backto-RoomRepository" style="stroke:#181818;stroke-width:1.0;"/><polygon fill="none" points="223,341.2648,217,359.2648,229,359.2648,223,341.2648" style="stroke:#181818;stroke-width:1.0;"/></g><!--reverse link FactoryDevice to ImpFactoryDevice--><g id="link_FactoryDevice_ImpFactoryDevice"><path d="M922,531.8548 C922,550.5648 922,554.4848 922,573.2148 " fill="none" id="FactoryDevice-backto-ImpFactoryDevice" style="stroke:#181818;stroke-width:1.0;stroke-dasharray:7.0,7.0;"/><polygon fill="none" points="922,513.8548,916,531.8548,928,531.8548,922,513.8548" style="stroke:#181818;stroke-width:1.0;"/></g><!--link DeviceControllerWeb to DeviceID--><g id="link_DeviceControllerWeb_DeviceID"><path codeLine="70" d="M1291,187.0148 C1291,215.2548 1291,243.2748 1291,267.9848 " fill="none" id="DeviceControllerWeb-to-DeviceID" style="stroke:#181818;stroke-width:1.0;stroke-dasharray:7.0,7.0;"/><polygon fill="#181818" points="1291,273.9848,1295,264.9848,1291,268.9848,1287,264.9848,1291,273.9848" style="stroke:#181818;stroke-width:1.0;"/><text fill="#000000" font-family="sans-serif" font-size="13" lengthAdjust="spacing" textLength="57" x="1233" y="226.5231">&#171;creates&#187;</text></g><!--link DeviceControllerWeb to DeviceModel--><g id="link_DeviceControllerWeb_DeviceModel"><path codeLine="71" d="M1375,187.0148 C1375,237.9248 1375,307.6348 1375,307.6348 C1375,307.6348 1379.64,307.6348 1393.98,307.6348 " fill="none" id="DeviceControllerWeb-to-DeviceModel" style="stroke:#181818;stroke-width:1.0;stroke-dasharray:7.0,7.0;"/><polygon fill="#181818" points="1399.98,307.6348,1390.98,303.6348,1394.98,307.6348,1390.98,311.6348,1399.98,307.6348" style="stroke:#181818;stroke-width:1.0;"/><text fill="#000000" font-family="sans-serif" font-size="13" lengthAdjust="spacing" textLength="57" x="1317" y="255.8431">&#171;creates&#187;</text></g><!--link DeviceControllerWeb to RoomID--><g id="link_DeviceControllerWeb_RoomID"><path codeLine="72" d="M1385.32,134.6348 C1520.95,134.6348 1655,134.6348 1655,134.6348 C1655,134.6348 1655,217.5248 1655,267.8648 " fill="none" id="DeviceControllerWeb-to-RoomID" style="stroke:#181818;stroke-width:1.0;stroke-dasharray:7.0,7.0;"/><polygon fill="#181818" points="1655,273.8648,1659,264.8648,1655,268.8648,1651,264.8648,1655,273.8648" style="stroke:#181818;stroke-width:1.0;"/><text fill="#000000" font-family="sans-serif" font-size="13" lengthAdjust="spacing" textLength="57" x="1531.78" y="130.6631">&#171;creates&#187;</text></g><!--link DeviceControllerWeb to DeviceDTO--><g id="link_DeviceControllerWeb_DeviceDTO"><path codeLine="73" d="M826.76,117.6348 C621.06,117.6348 377,117.6348 377,117.6348 C377,117.6348 377,184.9248 377,240.4748 " fill="none" id="DeviceControllerWeb-to-DeviceDTO" style="stroke:#181818;stroke-width:1.0;stroke-dasharray:7.0,7.0;"/><polygon fill="#181818" points="377,246.4748,381,237.4748,377,241.4748,373,237.4748,377,246.4748" style="stroke:#181818;stroke-width:1.0;"/><text fill="#000000" font-family="sans-serif" font-size="13" lengthAdjust="spacing" textLength="57" x="479.46" y="113.6631">&#171;creates&#187;</text></g><!--link DeviceControllerWeb to RoomDTO--><g id="link_DeviceControllerWeb_RoomDTO"><path codeLine="74" d="M826.78,152.6348 C691.54,152.6348 558,152.6348 558,152.6348 C558,152.6348 558,222.4148 558,268.0048 " fill="none" id="DeviceControllerWeb-to-RoomDTO" style="stroke:#181818;stroke-width:1.0;stroke-dasharray:7.0,7.0;"/><polygon fill="#181818" points="558,274.0048,562,265.0048,558,269.0048,554,265.0048,558,274.0048" style="stroke:#181818;stroke-width:1.0;"/><text fill="#000000" font-family="sans-serif" font-size="13" lengthAdjust="spacing" textLength="42" x="588.71" y="148.6631">&#171;uses&#187;</text></g><!--link DeviceControllerWeb to DeviceService--><g id="link_DeviceControllerWeb_DeviceService"><path codeLine="75" d="M1004.25,187.0148 C1004.25,205.8048 1004.25,227.1648 1004.25,246.6248 " fill="none" id="DeviceControllerWeb-DeviceService" style="stroke:#181818;stroke-width:1.0;"/></g><!--link DeviceService to DeviceRepository--><g id="link_DeviceService_DeviceRepository"><path codeLine="77" d="M690.25,368.8148 C690.25,404.5348 690.25,442.6348 690.25,442.6348 C690.25,442.6348 430.04,442.6348 295.11,442.6348 " fill="none" id="DeviceService-DeviceRepository" style="stroke:#181818;stroke-width:1.0;"/></g><!--link DeviceService to RoomRepository--><g id="link_DeviceService_RoomRepository"><path codeLine="78" d="M662.45,355.6348 C581.98,355.6348 514,355.6348 514,355.6348 C514,355.6348 514,413.0548 514,446.9248 " fill="none" id="DeviceService-RoomRepository" style="stroke:#181818;stroke-width:1.0;"/></g><!--link DeviceService to FactoryDevice--><g id="link_DeviceService_FactoryDevice"><path codeLine="79" d="M922,368.9848 C922,388.7348 922,410.1848 922,428.3048 " fill="none" id="DeviceService-FactoryDevice" style="stroke:#181818;stroke-width:1.0;"/></g><!--link ImpFactoryDevice to Device--><g id="link_ImpFactoryDevice_Device"><path codeLine="80" d="M922,658.7848 C922,692.3948 922,733.9948 922,773.3048 " fill="none" id="ImpFactoryDevice-to-Device" style="stroke:#181818;stroke-width:1.0;stroke-dasharray:7.0,7.0;"/><polygon fill="#181818" points="922,779.3048,926,770.3048,922,774.3048,918,770.3048,922,779.3048" style="stroke:#181818;stroke-width:1.0;"/><text fill="#000000" font-family="sans-serif" font-size="13" lengthAdjust="spacing" textLength="57" x="864" y="715.0731">&#171;creates&#187;</text></g><!--SRC=[bPHDZzCm48Rl_XKZSMdLfkB29Qegkas1I41GMk2o5pSPkcOJEzXk8KByTvp4JUAqk-sU4dk-ddbjZtfalA2Ivf0nZhei48JK3u9efZE4hwlNRy23PPe2nz-Guf4b25g052AV4LBGv97k4HJA8qfuzP7j7_HxIKluIvACAWL17R8IN4kHPIY_uyxOl2RJneIPZs-zx99ClaIRBIGIgSR6ikJfXXvnAs8iX69Qo7BqDiPV1rJwJgIbJH1i8yje_iR-FOzH5O8hN7FJJpcFTZynqGjG9bVQXapXWzR5HbDzKBDLl5vkrm7vHvm6B5g7te6SwBiTubNoz3rYPqsy7pIfVff07zxrbsHohVE680ocjjbF8iLiMfz968nFF67T1ECQfIc7q2KmNKmISoAKSTKeSrU6mIWCWALZy64dH8QKk-739W7_QEIfwkKrQIjbBLyBCi1mfBYGnT0v0OuunWW0ZaAZKxlGwH9qke0ZqZsl0OopLGlwbCs9XtdXrcHvaM6ENAjBC2-ZkH5cUF-Cp_nRjEZktsUQcukpqPBn_T2vgUJwrtld0RR-oRVYU2vpzS3CALz0c5mgOpURfzNjFbsbmh4rhg70F8wYxPaYxTrt- -u9qmuVInNqLeq2OU1ROSY4fLY_a97xhWpCfSascorQBn_cy-PcgCNYYhUbl2KWje2t9pU2tfxQEX_KavwUDnZNn1sHhRqtyCuy1WFnpEvEnBCNEUkwSrlx3m00]--></g></svg>