<svg xmlns="http://www.w3.org/2000/svg" xmlns:xlink="http://www.w3.org/1999/xlink" contentStyleType="text/css" height="717px" preserveAspectRatio="none" style="width:1624px;height:717px;background:#FFFFFF;" version="1.1" viewBox="0 0 1624 717" width="1624px" zoomAndPan="magnify"><defs/><g><text fill="#000000" font-family="sans-serif" font-size="14" font-weight="bold" lengthAdjust="spacing" textLength="1047" x="281.5" y="22.9951">US06 - As a Room Owner [or Power User, or Administrator], I want to get a list of all devices in a room, so that I can configure them.</text><!--cluster server--><g id="cluster_server"><path d="M8.5,43.2969 L61.5,43.2969 A3.75,3.75 0 0 1 64,45.7969 L71,65.5938 L1614.5,65.5938 A2.5,2.5 0 0 1 1617,68.0938 L1617,708.2469 A2.5,2.5 0 0 1 1614.5,710.7469 L8.5,710.7469 A2.5,2.5 0 0 1 6,708.2469 L6,45.7969 A2.5,2.5 0 0 1 8.5,43.2969 " fill="#D3D3D3" style="stroke:#000000;stroke-width:1.5;"/><line style="stroke:#000000;stroke-width:1.5;" x1="6" x2="71" y1="65.5938" y2="65.5938"/><text fill="#000000" font-family="sans-serif" font-size="14" font-weight="bold" lengthAdjust="spacing" textLength="52" x="10" y="58.292">server</text></g><!--class RoomControllerWeb--><g id="elem_RoomControllerWeb"><rect codeLine="6" fill="#F1F1F1" height="129.4844" id="RoomControllerWeb" rx="2.5" ry="2.5" style="stroke:#181818;stroke-width:0.5;" width="572" x="170" y="78.2969"/><ellipse cx="382.25" cy="94.2969" fill="#ADD1B2" rx="11" ry="11" style="stroke:#181818;stroke-width:1.0;"/><path d="M385.2188,99.9375 Q384.6406,100.2344 384,100.375 Q383.3594,100.5313 382.6563,100.5313 Q380.1563,100.5313 378.8281,98.8906 Q377.5156,97.2344 377.5156,94.1094 Q377.5156,90.9844 378.8281,89.3281 Q380.1563,87.6719 382.6563,87.6719 Q383.3594,87.6719 384,87.8281 Q384.6563,87.9844 385.2188,88.2813 L385.2188,91 Q384.5938,90.4219 384,90.1563 Q383.4063,89.875 382.7813,89.875 Q381.4375,89.875 380.75,90.9531 Q380.0625,92.0156 380.0625,94.1094 Q380.0625,96.2031 380.75,97.2813 Q381.4375,98.3438 382.7813,98.3438 Q383.4063,98.3438 384,98.0781 Q384.5938,97.7969 385.2188,97.2188 L385.2188,99.9375 Z " fill="#000000"/><text fill="#000000" font-family="sans-serif" font-size="14" lengthAdjust="spacing" textLength="139" x="402.75" y="99.1436">RoomControllerWeb</text><line style="stroke:#181818;stroke-width:0.5;" x1="171" x2="741" y1="110.2969" y2="110.2969"/><rect fill="none" height="6" style="stroke:#C82930;stroke-width:1.0;" width="6" x="178" y="120.9453"/><text fill="#000000" font-family="sans-serif" font-size="14" lengthAdjust="spacing" textLength="186" x="190" y="127.292">roomService: RoomService</text><rect fill="none" height="6" style="stroke:#C82930;stroke-width:1.0;" width="6" x="178" y="137.2422"/><text fill="#000000" font-family="sans-serif" font-size="14" lengthAdjust="spacing" textLength="201" x="190" y="143.5889">deviceService: DeviceService</text><rect fill="none" height="6" style="stroke:#C82930;stroke-width:1.0;" width="6" x="178" y="153.5391"/><text fill="#000000" font-family="sans-serif" font-size="14" lengthAdjust="spacing" textLength="267" x="190" y="159.8857">deviceMapperDTO: DeviceMapperDTO</text><line style="stroke:#181818;stroke-width:0.5;" x1="171" x2="741" y1="167.1875" y2="167.1875"/><ellipse cx="181" cy="188.9844" fill="#84BE84" rx="3" ry="3" style="stroke:#038048;stroke-width:1.0;"/><text fill="#000000" font-family="sans-serif" font-size="14" lengthAdjust="spacing" textLength="507" x="190" y="184.1826">GET getListOfDevicesDTOInRoom (@PathVariable("id") String roomName):</text><text fill="#000000" font-family="sans-serif" font-size="14" lengthAdjust="spacing" textLength="542" x="194" y="200.4795">ResponseEntity&lt;CollectionModel&lt;EntityModel&lt;DeviceDTO&gt;&gt;, HttpStatus.OK</text></g><!--class DeviceService--><g id="elem_DeviceService"><rect codeLine="13" fill="#F1F1F1" height="113.1875" id="DeviceService" rx="2.5" ry="2.5" style="stroke:#181818;stroke-width:0.5;" width="431" x="851.5" y="267.7769"/><ellipse cx="1014.25" cy="283.7769" fill="#ADD1B2" rx="11" ry="11" style="stroke:#181818;stroke-width:1.0;"/><path d="M1017.2188,289.4175 Q1016.6406,289.7144 1016,289.855 Q1015.3594,290.0113 1014.6563,290.0113 Q1012.1563,290.0113 1010.8281,288.3706 Q1009.5156,286.7144 1009.5156,283.5894 Q1009.5156,280.4644 1010.8281,278.8081 Q1012.1563,277.1519 1014.6563,277.1519 Q1015.3594,277.1519 1016,277.3081 Q1016.6563,277.4644 1017.2188,277.7613 L1017.2188,280.48 Q1016.5938,279.9019 1016,279.6363 Q1015.4063,279.355 1014.7813,279.355 Q1013.4375,279.355 1012.75,280.4331 Q1012.0625,281.4956 1012.0625,283.5894 Q1012.0625,285.6831 1012.75,286.7613 Q1013.4375,287.8238 1014.7813,287.8238 Q1015.4063,287.8238 1016,287.5581 Q1016.5938,287.2769 1017.2188,286.6988 L1017.2188,289.4175 Z " fill="#000000"/><text fill="#000000" font-family="sans-serif" font-size="14" lengthAdjust="spacing" textLength="97" x="1034.75" y="288.6236">DeviceService</text><line style="stroke:#181818;stroke-width:0.5;" x1="852.5" x2="1281.5" y1="299.7769" y2="299.7769"/><rect fill="none" height="6" style="stroke:#C82930;stroke-width:1.0;" width="6" x="859.5" y="310.4253"/><text fill="#000000" font-family="sans-serif" font-size="14" lengthAdjust="spacing" textLength="249" x="871.5" y="316.772">deviceRepository: DeviceRepository</text><rect fill="none" height="6" style="stroke:#C82930;stroke-width:1.0;" width="6" x="859.5" y="326.7222"/><text fill="#000000" font-family="sans-serif" font-size="14" lengthAdjust="spacing" textLength="234" x="871.5" y="333.0689">roomRepository: RoomRepository</text><rect fill="none" height="6" style="stroke:#C82930;stroke-width:1.0;" width="6" x="859.5" y="343.0191"/><text fill="#000000" font-family="sans-serif" font-size="14" lengthAdjust="spacing" textLength="199" x="871.5" y="349.3657">factoryDevice: FactoryDevice</text><line style="stroke:#181818;stroke-width:0.5;" x1="852.5" x2="1281.5" y1="356.6675" y2="356.6675"/><ellipse cx="862.5" cy="370.3159" fill="#84BE84" rx="3" ry="3" style="stroke:#038048;stroke-width:1.0;"/><text fill="#000000" font-family="sans-serif" font-size="14" lengthAdjust="spacing" textLength="405" x="871.5" y="373.6626">getListOfDevicesInRoom(RoomID roomID): List&lt;DeviceID&gt;</text></g><!--class Repository--><g id="elem_Repository"><rect codeLine="20" fill="#F1F1F1" height="64.2969" id="Repository" rx="2.5" ry="2.5" style="stroke:#181818;stroke-width:0.5;" width="284" x="1317" y="292.2269"/><ellipse cx="1417.75" cy="308.2269" fill="#B4A7E5" rx="11" ry="11" style="stroke:#181818;stroke-width:1.0;"/><path d="M1413.6719,303.9925 L1413.6719,301.8363 L1421.0625,301.8363 L1421.0625,303.9925 L1418.5938,303.9925 L1418.5938,312.0706 L1421.0625,312.0706 L1421.0625,314.2269 L1413.6719,314.2269 L1413.6719,312.0706 L1416.1406,312.0706 L1416.1406,303.9925 L1413.6719,303.9925 Z " fill="#000000"/><text fill="#000000" font-family="sans-serif" font-size="14" font-style="italic" lengthAdjust="spacing" textLength="74" x="1438.25" y="313.0736">Repository</text><line style="stroke:#181818;stroke-width:0.5;" x1="1318" x2="1600" y1="324.2269" y2="324.2269"/><line style="stroke:#181818;stroke-width:0.5;" x1="1318" x2="1600" y1="332.2269" y2="332.2269"/><ellipse cx="1328" cy="345.8753" fill="#84BE84" rx="3" ry="3" style="stroke:#038048;stroke-width:1.0;"/><text fill="#000000" font-family="sans-serif" font-size="14" lengthAdjust="spacing" textLength="258" x="1337" y="349.222">containsEntityByID(RoomID): boolean</text></g><!--class DeviceRepository--><g id="elem_DeviceRepository"><rect codeLine="24" fill="#F1F1F1" height="64.2969" id="DeviceRepository" rx="2.5" ry="2.5" style="stroke:#181818;stroke-width:0.5;" width="314" x="941" y="440.9669"/><ellipse cx="1033.25" cy="456.9669" fill="#B4A7E5" rx="11" ry="11" style="stroke:#181818;stroke-width:1.0;"/><path d="M1029.1719,452.7325 L1029.1719,450.5763 L1036.5625,450.5763 L1036.5625,452.7325 L1034.0938,452.7325 L1034.0938,460.8106 L1036.5625,460.8106 L1036.5625,462.9669 L1029.1719,462.9669 L1029.1719,460.8106 L1031.6406,460.8106 L1031.6406,452.7325 L1029.1719,452.7325 Z " fill="#000000"/><text fill="#000000" font-family="sans-serif" font-size="14" font-style="italic" lengthAdjust="spacing" textLength="121" x="1053.75" y="461.8136">DeviceRepository</text><line style="stroke:#181818;stroke-width:0.5;" x1="942" x2="1254" y1="472.9669" y2="472.9669"/><line style="stroke:#181818;stroke-width:0.5;" x1="942" x2="1254" y1="480.9669" y2="480.9669"/><ellipse cx="952" cy="494.6153" fill="#84BE84" rx="3" ry="3" style="stroke:#038048;stroke-width:1.0;"/><text fill="#000000" font-family="sans-serif" font-size="14" lengthAdjust="spacing" textLength="288" x="961" y="497.962">findByRoomID(roomID): Iterable&lt;Device&gt;</text></g><!--class RoomRepository--><g id="elem_RoomRepository"><rect codeLine="28" fill="#F1F1F1" height="48" id="RoomRepository" rx="2.5" ry="2.5" style="stroke:#181818;stroke-width:0.5;" width="147" x="1353.5" y="449.1169"/><ellipse cx="1368.5" cy="465.1169" fill="#B4A7E5" rx="11" ry="11" style="stroke:#181818;stroke-width:1.0;"/><path d="M1364.4219,460.8825 L1364.4219,458.7263 L1371.8125,458.7263 L1371.8125,460.8825 L1369.3438,460.8825 L1369.3438,468.9606 L1371.8125,468.9606 L1371.8125,471.1169 L1364.4219,471.1169 L1364.4219,468.9606 L1366.8906,468.9606 L1366.8906,460.8825 L1364.4219,460.8825 Z " fill="#000000"/><text fill="#000000" font-family="sans-serif" font-size="14" font-style="italic" lengthAdjust="spacing" textLength="115" x="1382.5" y="469.9636">RoomRepository</text><line style="stroke:#181818;stroke-width:0.5;" x1="1354.5" x2="1499.5" y1="481.1169" y2="481.1169"/><line style="stroke:#181818;stroke-width:0.5;" x1="1354.5" x2="1499.5" y1="489.1169" y2="489.1169"/></g><!--class RoomDTO--><g id="elem_RoomDTO"><rect codeLine="31" fill="#F1F1F1" height="64.2969" id="RoomDTO" rx="2.5" ry="2.5" style="stroke:#181818;stroke-width:0.5;" width="151" x="21.5" y="292.2269"/><ellipse cx="57.65" cy="308.2269" fill="#ADD1B2" rx="11" ry="11" style="stroke:#181818;stroke-width:1.0;"/><path d="M60.6188,313.8675 Q60.0406,314.1644 59.4,314.305 Q58.7594,314.4613 58.0563,314.4613 Q55.5563,314.4613 54.2281,312.8206 Q52.9156,311.1644 52.9156,308.0394 Q52.9156,304.9144 54.2281,303.2581 Q55.5563,301.6019 58.0563,301.6019 Q58.7594,301.6019 59.4,301.7581 Q60.0563,301.9144 60.6188,302.2113 L60.6188,304.93 Q59.9938,304.3519 59.4,304.0863 Q58.8063,303.805 58.1813,303.805 Q56.8375,303.805 56.15,304.8831 Q55.4625,305.9456 55.4625,308.0394 Q55.4625,310.1331 56.15,311.2113 Q56.8375,312.2738 58.1813,312.2738 Q58.8063,312.2738 59.4,312.0081 Q59.9938,311.7269 60.6188,311.1488 L60.6188,313.8675 Z " fill="#000000"/><text fill="#000000" font-family="sans-serif" font-size="14" lengthAdjust="spacing" textLength="72" x="76.35" y="313.0736">RoomDTO</text><line style="stroke:#181818;stroke-width:0.5;" x1="22.5" x2="171.5" y1="324.2269" y2="324.2269"/><ellipse cx="32.5" cy="337.8753" fill="none" rx="3" ry="3" style="stroke:#038048;stroke-width:1.0;"/><text fill="#000000" font-family="sans-serif" font-size="14" lengthAdjust="spacing" textLength="125" x="41.5" y="341.222">roomName: String</text><line style="stroke:#181818;stroke-width:0.5;" x1="22.5" x2="171.5" y1="348.5238" y2="348.5238"/></g><!--class DeviceDTO--><g id="elem_DeviceDTO"><rect codeLine="35" fill="#F1F1F1" height="64.2969" id="DeviceDTO" rx="2.5" ry="2.5" style="stroke:#181818;stroke-width:0.5;" width="160" x="525" y="440.9669"/><ellipse cx="562.5" cy="456.9669" fill="#ADD1B2" rx="11" ry="11" style="stroke:#181818;stroke-width:1.0;"/><path d="M565.4688,462.6075 Q564.8906,462.9044 564.25,463.045 Q563.6094,463.2013 562.9063,463.2013 Q560.4063,463.2013 559.0781,461.5606 Q557.7656,459.9044 557.7656,456.7794 Q557.7656,453.6544 559.0781,451.9981 Q560.4063,450.3419 562.9063,450.3419 Q563.6094,450.3419 564.25,450.4981 Q564.9063,450.6544 565.4688,450.9513 L565.4688,453.67 Q564.8438,453.0919 564.25,452.8263 Q563.6563,452.545 563.0313,452.545 Q561.6875,452.545 561,453.6231 Q560.3125,454.6856 560.3125,456.7794 Q560.3125,458.8731 561,459.9513 Q561.6875,461.0138 563.0313,461.0138 Q563.6563,461.0138 564.25,460.7481 Q564.8438,460.4669 565.4688,459.8888 L565.4688,462.6075 Z " fill="#000000"/><text fill="#000000" font-family="sans-serif" font-size="14" lengthAdjust="spacing" textLength="78" x="581.5" y="461.8136">DeviceDTO</text><line style="stroke:#181818;stroke-width:0.5;" x1="526" x2="684" y1="472.9669" y2="472.9669"/><ellipse cx="536" cy="486.6153" fill="none" rx="3" ry="3" style="stroke:#038048;stroke-width:1.0;"/><text fill="#000000" font-family="sans-serif" font-size="14" lengthAdjust="spacing" textLength="134" x="545" y="489.962">deviceName: String</text><line style="stroke:#181818;stroke-width:0.5;" x1="526" x2="684" y1="497.2638" y2="497.2638"/></g><!--class RoomID--><g id="elem_RoomID"><rect codeLine="39" fill="#F1F1F1" height="64.2969" id="RoomID" rx="2.5" ry="2.5" style="stroke:#181818;stroke-width:0.5;" width="151" x="207.5" y="292.2269"/><ellipse cx="241.85" cy="308.2269" fill="#ADD1B2" rx="11" ry="11" style="stroke:#181818;stroke-width:1.0;"/><path d="M244.8188,313.8675 Q244.2406,314.1644 243.6,314.305 Q242.9594,314.4613 242.2563,314.4613 Q239.7563,314.4613 238.4281,312.8206 Q237.1156,311.1644 237.1156,308.0394 Q237.1156,304.9144 238.4281,303.2581 Q239.7563,301.6019 242.2563,301.6019 Q242.9594,301.6019 243.6,301.7581 Q244.2563,301.9144 244.8188,302.2113 L244.8188,304.93 Q244.1938,304.3519 243.6,304.0863 Q243.0063,303.805 242.3813,303.805 Q241.0375,303.805 240.35,304.8831 Q239.6625,305.9456 239.6625,308.0394 Q239.6625,310.1331 240.35,311.2113 Q241.0375,312.2738 242.3813,312.2738 Q243.0063,312.2738 243.6,312.0081 Q244.1938,311.7269 244.8188,311.1488 L244.8188,313.8675 Z " fill="#000000"/><text fill="#000000" font-family="sans-serif" font-size="14" lengthAdjust="spacing" textLength="55" x="260.15" y="313.0736">RoomID</text><rect fill="#FFFFFF" height="15.9688" style="stroke:#181818;stroke-width:1.0;stroke-dasharray:2.0,2.0;" width="19" x="342.5" y="289.2269"/><text fill="#000000" font-family="sans-serif" font-size="12" font-style="italic" lengthAdjust="spacing" textLength="17" x="343.5" y="301.3655">VO</text><line style="stroke:#181818;stroke-width:0.5;" x1="208.5" x2="357.5" y1="324.2269" y2="324.2269"/><rect fill="none" height="6" style="stroke:#C82930;stroke-width:1.0;" width="6" x="215.5" y="334.8753"/><text fill="#000000" font-family="sans-serif" font-size="14" lengthAdjust="spacing" textLength="125" x="227.5" y="341.222">roomName: String</text><line style="stroke:#181818;stroke-width:0.5;" x1="208.5" x2="357.5" y1="348.5238" y2="348.5238"/></g><!--class Device--><g id="elem_Device"><rect codeLine="43" fill="#F1F1F1" height="129.4844" id="Device" rx="2.5" ry="2.5" style="stroke:#181818;stroke-width:0.5;" width="215" x="797.5" y="565.2669"/><ellipse cx="858.75" cy="581.2669" fill="#ADD1B2" rx="11" ry="11" style="stroke:#181818;stroke-width:1.0;"/><path d="M861.7188,586.9075 Q861.1406,587.2044 860.5,587.345 Q859.8594,587.5013 859.1563,587.5013 Q856.6563,587.5013 855.3281,585.8606 Q854.0156,584.2044 854.0156,581.0794 Q854.0156,577.9544 855.3281,576.2981 Q856.6563,574.6419 859.1563,574.6419 Q859.8594,574.6419 860.5,574.7981 Q861.1563,574.9544 861.7188,575.2513 L861.7188,577.97 Q861.0938,577.3919 860.5,577.1263 Q859.9063,576.845 859.2813,576.845 Q857.9375,576.845 857.25,577.9231 Q856.5625,578.9856 856.5625,581.0794 Q856.5625,583.1731 857.25,584.2513 Q857.9375,585.3138 859.2813,585.3138 Q859.9063,585.3138 860.5,585.0481 Q861.0938,584.7669 861.7188,584.1888 L861.7188,586.9075 Z " fill="#000000"/><text fill="#000000" font-family="sans-serif" font-size="14" lengthAdjust="spacing" textLength="47" x="879.25" y="586.1136">Device</text><rect fill="#FFFFFF" height="15.9688" style="stroke:#181818;stroke-width:1.0;stroke-dasharray:2.0,2.0;" width="35" x="980.5" y="562.2669"/><text fill="#000000" font-family="sans-serif" font-size="12" font-style="italic" lengthAdjust="spacing" textLength="33" x="981.5" y="574.4055">ROOT</text><line style="stroke:#181818;stroke-width:0.5;" x1="798.5" x2="1011.5" y1="597.2669" y2="597.2669"/><rect fill="none" height="6" style="stroke:#C82930;stroke-width:1.0;" width="6" x="805.5" y="607.9153"/><text fill="#000000" font-family="sans-serif" font-size="14" lengthAdjust="spacing" textLength="155" x="817.5" y="614.262">deviceName: DeviceID</text><rect fill="none" height="6" style="stroke:#C82930;stroke-width:1.0;" width="6" x="805.5" y="624.2122"/><text fill="#000000" font-family="sans-serif" font-size="14" lengthAdjust="spacing" textLength="185" x="817.5" y="630.5589">deviceModel: DeviceModel</text><rect fill="none" height="6" style="stroke:#C82930;stroke-width:1.0;" width="6" x="805.5" y="640.5091"/><text fill="#000000" font-family="sans-serif" font-size="14" lengthAdjust="spacing" textLength="189" x="817.5" y="646.8557">deviceStatus: DeviceStatus</text><rect fill="none" height="6" style="stroke:#C82930;stroke-width:1.0;" width="6" x="805.5" y="656.8059"/><text fill="#000000" font-family="sans-serif" font-size="14" lengthAdjust="spacing" textLength="114" x="817.5" y="663.1526">roomID: RoomID</text><line style="stroke:#181818;stroke-width:0.5;" x1="798.5" x2="1011.5" y1="670.4544" y2="670.4544"/><ellipse cx="808.5" cy="684.1028" fill="#84BE84" rx="3" ry="3" style="stroke:#038048;stroke-width:1.0;"/><text fill="#000000" font-family="sans-serif" font-size="14" lengthAdjust="spacing" textLength="130" x="817.5" y="687.4495">identity(): DeviceID</text></g><!--class DeviceMapperDTO--><g id="elem_DeviceMapperDTO"><rect codeLine="51" fill="#F1F1F1" height="80.5938" id="DeviceMapperDTO" rx="2.5" ry="2.5" style="stroke:#181818;stroke-width:0.5;" width="423" x="393.5" y="284.0769"/><ellipse cx="535.75" cy="300.0769" fill="#ADD1B2" rx="11" ry="11" style="stroke:#181818;stroke-width:1.0;"/><path d="M538.7188,305.7175 Q538.1406,306.0144 537.5,306.155 Q536.8594,306.3113 536.1563,306.3113 Q533.6563,306.3113 532.3281,304.6706 Q531.0156,303.0144 531.0156,299.8894 Q531.0156,296.7644 532.3281,295.1081 Q533.6563,293.4519 536.1563,293.4519 Q536.8594,293.4519 537.5,293.6081 Q538.1563,293.7644 538.7188,294.0613 L538.7188,296.78 Q538.0938,296.2019 537.5,295.9363 Q536.9063,295.655 536.2813,295.655 Q534.9375,295.655 534.25,296.7331 Q533.5625,297.7956 533.5625,299.8894 Q533.5625,301.9831 534.25,303.0613 Q534.9375,304.1238 536.2813,304.1238 Q536.9063,304.1238 537.5,303.8581 Q538.0938,303.5769 538.7188,302.9988 L538.7188,305.7175 Z " fill="#000000"/><text fill="#000000" font-family="sans-serif" font-size="14" lengthAdjust="spacing" textLength="130" x="556.25" y="304.9236">DeviceMapperDTO</text><line style="stroke:#181818;stroke-width:0.5;" x1="394.5" x2="815.5" y1="316.0769" y2="316.0769"/><line style="stroke:#181818;stroke-width:0.5;" x1="394.5" x2="815.5" y1="324.0769" y2="324.0769"/><ellipse cx="404.5" cy="337.7253" fill="#84BE84" rx="3" ry="3" style="stroke:#038048;stroke-width:1.0;"/><text fill="#000000" font-family="sans-serif" font-size="14" lengthAdjust="spacing" textLength="397" x="413.5" y="341.072">deviceListToDTO(Iterable&lt;DeviceID&gt;): List&lt;DeviceDTO&gt;</text><ellipse cx="404.5" cy="354.0222" fill="#84BE84" rx="3" ry="3" style="stroke:#038048;stroke-width:1.0;"/><text fill="#000000" font-family="sans-serif" font-size="14" lengthAdjust="spacing" textLength="252" x="413.5" y="357.3689">deviceToDTO(DeviceID): DeviceDTO</text></g><!--reverse link Repository to RoomRepository--><g id="link_Repository_RoomRepository"><path d="M1427,375.0169 C1427,402.7169 1427,423.8569 1427,448.8569 " fill="none" id="Repository-backto-RoomRepository" style="stroke:#181818;stroke-width:1.0;"/><polygon fill="none" points="1427,357.0169,1421,375.0169,1433,375.0169,1427,357.0169" style="stroke:#181818;stroke-width:1.0;"/></g><!--link RoomControllerWeb to DeviceService--><g id="link_RoomControllerWeb_DeviceService"><path codeLine="56" d="M625.83,207.9369 C625.83,241.9969 625.83,276.7469 625.83,276.7469 C625.83,276.7469 739.38,276.7469 851.26,276.7469 " fill="none" id="RoomControllerWeb-DeviceService" style="stroke:#181818;stroke-width:1.0;"/></g><!--link RoomControllerWeb to RoomDTO--><g id="link_RoomControllerWeb_RoomDTO"><path codeLine="57" d="M190,208.1269 C190,260.2669 190,324.7469 190,324.7469 C190,324.7469 189.05,324.7469 178.94,324.7469 " fill="none" id="RoomControllerWeb-to-RoomDTO" style="stroke:#181818;stroke-width:1.0;stroke-dasharray:7.0,7.0;"/><polygon fill="#181818" points="172.94,324.7469,181.94,328.7469,177.94,324.7469,181.94,320.7469,172.94,324.7469" style="stroke:#181818;stroke-width:1.0;"/><text fill="#000000" font-family="sans-serif" font-size="13" lengthAdjust="spacing" textLength="46" x="143" y="271.0338">&#171;uses&#187;</text></g><!--link RoomControllerWeb to RoomID--><g id="link_RoomControllerWeb_RoomID"><path codeLine="58" d="M283,208.2469 C283,236.6769 283,262.7369 283,285.9669 " fill="none" id="RoomControllerWeb-to-RoomID" style="stroke:#181818;stroke-width:1.0;stroke-dasharray:7.0,7.0;"/><polygon fill="#181818" points="283,291.9669,287,282.9669,283,286.9669,279,282.9669,283,291.9669" style="stroke:#181818;stroke-width:1.0;"/><text fill="#000000" font-family="sans-serif" font-size="13" lengthAdjust="spacing" textLength="64" x="218" y="246.1738">&#171;creates&#187;</text></g><!--link RoomControllerWeb to DeviceMapperDTO--><g id="link_RoomControllerWeb_DeviceMapperDTO"><path codeLine="59" d="M509.67,208.2469 C509.67,233.4269 509.67,255.4569 509.67,277.6769 " fill="none" id="RoomControllerWeb-to-DeviceMapperDTO" style="stroke:#181818;stroke-width:1.0;stroke-dasharray:7.0,7.0;"/><polygon fill="#181818" points="509.67,283.6769,513.67,274.6769,509.67,278.6769,505.67,274.6769,509.67,283.6769" style="stroke:#181818;stroke-width:1.0;"/><text fill="#000000" font-family="sans-serif" font-size="13" lengthAdjust="spacing" textLength="46" x="462.67" y="242.0238">&#171;uses&#187;</text></g><!--link DeviceMapperDTO to DeviceDTO--><g id="link_DeviceMapperDTO_DeviceDTO"><path codeLine="60" d="M605,365.0169 C605,388.7569 605,412.3169 605,434.5169 " fill="none" id="DeviceMapperDTO-to-DeviceDTO" style="stroke:#181818;stroke-width:1.0;stroke-dasharray:7.0,7.0;"/><polygon fill="#181818" points="605,440.5169,609,431.5169,605,435.5169,601,431.5169,605,440.5169" style="stroke:#181818;stroke-width:1.0;"/><text fill="#000000" font-family="sans-serif" font-size="13" lengthAdjust="spacing" textLength="64" x="540" y="398.8338">&#171;creates&#187;</text></g><!--link DeviceService to DeviceRepository--><g id="link_DeviceService_DeviceRepository"><path codeLine="61" d="M1098,381.4569 C1098,401.4469 1098,423.1969 1098,440.4969 " fill="none" id="DeviceService-DeviceRepository" style="stroke:#181818;stroke-width:1.0;"/></g><!--link DeviceService to RoomRepository--><g id="link_DeviceService_RoomRepository"><path codeLine="62" d="M1268.75,381.2669 C1268.75,423.4869 1268.75,473.7469 1268.75,473.7469 C1268.75,473.7469 1312.11,473.7469 1353.43,473.7469 " fill="none" id="DeviceService-RoomRepository" style="stroke:#181818;stroke-width:1.0;"/></g><!--link DeviceService to Device--><g id="link_DeviceService_Device"><path codeLine="63" d="M896.25,381.1469 C896.25,433.1869 896.25,504.2369 896.25,558.7869 " fill="none" id="DeviceService-to-Device" style="stroke:#181818;stroke-width:1.0;stroke-dasharray:7.0,7.0;"/><polygon fill="#181818" points="896.25,564.7869,900.25,555.7869,896.25,559.7869,892.25,555.7869,896.25,564.7869" style="stroke:#181818;stroke-width:1.0;"/><text fill="#000000" font-family="sans-serif" font-size="13" lengthAdjust="spacing" textLength="46" x="849.25" y="469.0338">&#171;uses&#187;</text></g><!--SRC=[VLHBRzim3BxxLn3T9K4Us6a7mp3Mrbrdh9sB9EqEsmwApIH27ScGb7R1aFy-ol8xGow1ANvyVFp8w5Sk2gRO7d8kq1mB1AdCJdg6cnpXUVdn4ypWMWE3XPHxIDu5AlWf5Jp9T_fwrgYc50BNsPuBherYHghVKuZXdGa3Hi8M3KNdv0Ev0PRdaE4RJr435-HGb7OAMeBPCKDXAHEGIh7XsuD2UiJztFCAbhwoBG9LUwEg7nxuTcVk5Jl2NyzBSwPrsTwj54R9F4Vr0zVacjdaIugXSdw9g0nlvdfeV57NhBsFh2XGHQkazZSFtkJ-RcMPFH2jPEEycXonACSq-lp4pEw5ASxMEOwkU7OrXgLHN6nBmj_P7iV-Bm4Br8KK6ky43VmOtDhcKyEbU9GPve5xTj-k2DK8mobyDQPO6cOEUfvyyqxr47eqx00SaGKMKdCIvbWpQL_SaBg8HS_sPXkMsWyNwCENhkbDXaDm4nZPdpWgoSRHs0UBgIZ4KMWxviAWejm8RJ5gUKBY6yQ5TjnlZd5K9QCiQobpPA8VFcHaasouo6wEBcxKD15JY1MaQcJOHeytu1-38jFzxaxTTICjRArQKBzIU2X71NDI_1zOJIjuIS9wRIzbX62H9Akm5TY1w_4s-sltfjbTQpHxNwvEi_QbvSh6aLzruqruXgK6et4dzw2LvYHQYbRgbQIdqM3U97n_4-morr4keWOs5UsnKSdpwvxD1aTx3fdFmred7uBWe567uGMSvHu4gK9cBY2ZuNz3atauaHPTuThK_KDjk7JExWmnECk-VzxMwZHq-WS0]--></g></svg>