<?xml version="1.0" encoding="us-ascii" standalone="no"?><svg xmlns="http://www.w3.org/2000/svg" xmlns:xlink="http://www.w3.org/1999/xlink" contentStyleType="text/css" height="536px" preserveAspectRatio="none" style="width:990px;height:536px;background:#FFFFFF;" version="1.1" viewBox="0 0 990 536" width="990px" zoomAndPan="magnify"><defs/><g><text fill="#000000" font-family="sans-serif" font-size="14" font-weight="bold" lengthAdjust="spacing" textLength="257" x="359.5" y="25.1074">UC07.1 List of Sensor Functionalities</text><!--cluster server--><g id="cluster_server"><path d="M8.5,45.6348 L56.5,45.6348 A3.75,3.75 0 0 1 59,48.1348 L66,70.2559 L980.5,70.2559 A2.5,2.5 0 0 1 983,72.7559 L983,527.1348 A2.5,2.5 0 0 1 980.5,529.6348 L8.5,529.6348 A2.5,2.5 0 0 1 6,527.1348 L6,48.1348 A2.5,2.5 0 0 1 8.5,45.6348 " fill="#D3D3D3" style="stroke:#000000;stroke-width:1.5;"/><line style="stroke:#000000;stroke-width:1.5;" x1="6" x2="66" y1="70.2559" y2="70.2559"/><text fill="#000000" font-family="sans-serif" font-size="14" font-weight="bold" lengthAdjust="spacing" textLength="47" x="10" y="62.7422">server</text></g><!--class SensorFunctionalityControllerWeb--><g id="elem_SensorFunctionalityControllerWeb"><rect codeLine="7" fill="#F1F1F1" height="103.8633" id="SensorFunctionalityControllerWeb" rx="2.5" ry="2.5" style="stroke:#181818;stroke-width:0.5;" width="492" x="248" y="82.6348"/><ellipse cx="381.75" cy="98.6348" fill="#ADD1B2" rx="11" ry="11" style="stroke:#181818;stroke-width:1.0;"/><path d="M384.5156,94.5098 Q384.6719,94.291 384.8594,94.1816 Q385.0469,94.0723 385.2656,94.0723 Q385.6406,94.0723 385.875,94.3379 Q386.1094,94.5879 386.1094,95.1973 L386.1094,96.6504 Q386.1094,97.2598 385.875,97.5254 Q385.6406,97.791 385.2656,97.791 Q384.9219,97.791 384.7188,97.5879 Q384.5156,97.4004 384.4063,96.8848 Q384.3594,96.5254 384.1719,96.3379 Q383.8438,95.9629 383.2344,95.7441 Q382.625,95.5254 382,95.5254 Q381.2344,95.5254 380.5938,95.8535 Q379.9688,96.1816 379.4688,96.9316 Q378.9844,97.6816 378.9844,98.7129 L378.9844,99.8066 Q378.9844,101.041 379.875,101.8691 Q380.7656,102.6816 382.3594,102.6816 Q383.2969,102.6816 383.9531,102.4316 Q384.3438,102.2754 384.7656,101.8379 Q385.0313,101.5723 385.1719,101.4941 Q385.3281,101.416 385.5313,101.416 Q385.8594,101.416 386.1094,101.6816 Q386.375,101.9316 386.375,102.2754 Q386.375,102.6191 386.0313,103.0254 Q385.5313,103.6035 384.7344,103.9316 Q383.6563,104.3848 382.3594,104.3848 Q380.8438,104.3848 379.6406,103.7598 Q378.6563,103.2598 377.9688,102.1973 Q377.2813,101.1191 377.2813,99.8379 L377.2813,98.6816 Q377.2813,97.3535 377.8906,96.2129 Q378.5156,95.0566 379.6094,94.4473 Q380.7031,93.8223 381.9375,93.8223 Q382.6719,93.8223 383.3125,93.9941 Q383.9688,94.1504 384.5156,94.5098 Z " fill="#000000"/><text fill="#000000" font-family="sans-serif" font-size="14" lengthAdjust="spacing" textLength="216" x="402.25" y="104.4316">SensorFunctionalityControllerWeb</text><line style="stroke:#181818;stroke-width:0.5;" x1="249" x2="739" y1="114.6348" y2="114.6348"/><rect fill="none" height="6" style="stroke:#C82930;stroke-width:1.0;" width="6" x="256" y="126.4453"/><text fill="#000000" font-family="sans-serif" font-size="14" lengthAdjust="spacing" textLength="350" x="268" y="133.7422">sensorFunctionalityService: SensorFunctionalityService</text><line style="stroke:#181818;stroke-width:0.5;" x1="249" x2="739" y1="141.2559" y2="141.2559"/><ellipse cx="259" cy="165.377" fill="#84BE84" rx="3" ry="3" style="stroke:#038048;stroke-width:1.0;"/><text fill="#000000" font-family="sans-serif" font-size="14" lengthAdjust="spacing" textLength="418" x="268" y="160.3633">getListOfSensorFunctionalities(): ResponseEntity&lt;CollectionModel</text><text fill="#000000" font-family="sans-serif" font-size="14" lengthAdjust="spacing" textLength="466" x="268" y="178.9844">&lt;EntityModel&lt;SensorFunctionalityDTO&gt;&gt;&gt; collectionModel, HttpStatus.OK</text></g><!--class SensorFunctionalityService--><g id="elem_SensorFunctionalityService"><rect codeLine="12" fill="#F1F1F1" height="85.2422" id="SensorFunctionalityService" rx="2.5" ry="2.5" style="stroke:#181818;stroke-width:0.5;" width="418" x="22" y="265.1348"/><ellipse cx="140.75" cy="281.1348" fill="#ADD1B2" rx="11" ry="11" style="stroke:#181818;stroke-width:1.0;"/><path d="M143.5156,277.0098 Q143.6719,276.791 143.8594,276.6816 Q144.0469,276.5723 144.2656,276.5723 Q144.6406,276.5723 144.875,276.8379 Q145.1094,277.0879 145.1094,277.6973 L145.1094,279.1504 Q145.1094,279.7598 144.875,280.0254 Q144.6406,280.291 144.2656,280.291 Q143.9219,280.291 143.7188,280.0879 Q143.5156,279.9004 143.4063,279.3848 Q143.3594,279.0254 143.1719,278.8379 Q142.8438,278.4629 142.2344,278.2441 Q141.625,278.0254 141,278.0254 Q140.2344,278.0254 139.5938,278.3535 Q138.9688,278.6816 138.4688,279.4316 Q137.9844,280.1816 137.9844,281.2129 L137.9844,282.3066 Q137.9844,283.541 138.875,284.3691 Q139.7656,285.1816 141.3594,285.1816 Q142.2969,285.1816 142.9531,284.9316 Q143.3438,284.7754 143.7656,284.3379 Q144.0313,284.0723 144.1719,283.9941 Q144.3281,283.916 144.5313,283.916 Q144.8594,283.916 145.1094,284.1816 Q145.375,284.4316 145.375,284.7754 Q145.375,285.1191 145.0313,285.5254 Q144.5313,286.1035 143.7344,286.4316 Q142.6563,286.8848 141.3594,286.8848 Q139.8438,286.8848 138.6406,286.2598 Q137.6563,285.7598 136.9688,284.6973 Q136.2813,283.6191 136.2813,282.3379 L136.2813,281.1816 Q136.2813,279.8535 136.8906,278.7129 Q137.5156,277.5566 138.6094,276.9473 Q139.7031,276.3223 140.9375,276.3223 Q141.6719,276.3223 142.3125,276.4941 Q142.9688,276.6504 143.5156,277.0098 Z " fill="#000000"/><text fill="#000000" font-family="sans-serif" font-size="14" lengthAdjust="spacing" textLength="172" x="161.25" y="286.9316">SensorFunctionalityService</text><line style="stroke:#181818;stroke-width:0.5;" x1="23" x2="439" y1="297.1348" y2="297.1348"/><rect fill="none" height="6" style="stroke:#C82930;stroke-width:1.0;" width="6" x="30" y="308.9453"/><text fill="#000000" font-family="sans-serif" font-size="14" lengthAdjust="spacing" textLength="392" x="42" y="316.2422">sensorFunctionalityRepository: SensorFunctionalityRepository</text><line style="stroke:#181818;stroke-width:0.5;" x1="23" x2="439" y1="323.7559" y2="323.7559"/><ellipse cx="33" cy="338.5664" fill="#84BE84" rx="3" ry="3" style="stroke:#038048;stroke-width:1.0;"/><text fill="#000000" font-family="sans-serif" font-size="14" lengthAdjust="spacing" textLength="387" x="42" y="342.8633">getListOfSensorFunctionalities(): List&lt;SensorFunctionalityID&gt;</text></g><!--class SensorFunctionality--><g id="elem_SensorFunctionality"><rect codeLine="17" fill="#F1F1F1" height="85.2422" id="SensorFunctionality" rx="2.5" ry="2.5" style="stroke:#181818;stroke-width:0.5;" width="227" x="22.5" y="428.6348"/><ellipse cx="57.75" cy="444.6348" fill="#ADD1B2" rx="11" ry="11" style="stroke:#181818;stroke-width:1.0;"/><path d="M60.5156,440.5098 Q60.6719,440.291 60.8594,440.1816 Q61.0469,440.0723 61.2656,440.0723 Q61.6406,440.0723 61.875,440.3379 Q62.1094,440.5879 62.1094,441.1973 L62.1094,442.6504 Q62.1094,443.2598 61.875,443.5254 Q61.6406,443.791 61.2656,443.791 Q60.9219,443.791 60.7188,443.5879 Q60.5156,443.4004 60.4063,442.8848 Q60.3594,442.5254 60.1719,442.3379 Q59.8438,441.9629 59.2344,441.7441 Q58.625,441.5254 58,441.5254 Q57.2344,441.5254 56.5938,441.8535 Q55.9688,442.1816 55.4688,442.9316 Q54.9844,443.6816 54.9844,444.7129 L54.9844,445.8066 Q54.9844,447.041 55.875,447.8691 Q56.7656,448.6816 58.3594,448.6816 Q59.2969,448.6816 59.9531,448.4316 Q60.3438,448.2754 60.7656,447.8379 Q61.0313,447.5723 61.1719,447.4941 Q61.3281,447.416 61.5313,447.416 Q61.8594,447.416 62.1094,447.6816 Q62.375,447.9316 62.375,448.2754 Q62.375,448.6191 62.0313,449.0254 Q61.5313,449.6035 60.7344,449.9316 Q59.6563,450.3848 58.3594,450.3848 Q56.8438,450.3848 55.6406,449.7598 Q54.6563,449.2598 53.9688,448.1973 Q53.2813,447.1191 53.2813,445.8379 L53.2813,444.6816 Q53.2813,443.3535 53.8906,442.2129 Q54.5156,441.0566 55.6094,440.4473 Q56.7031,439.8223 57.9375,439.8223 Q58.6719,439.8223 59.3125,439.9941 Q59.9688,440.1504 60.5156,440.5098 Z " fill="#000000"/><text fill="#000000" font-family="sans-serif" font-size="14" lengthAdjust="spacing" textLength="125" x="76.25" y="450.4316">SensorFunctionality</text><rect fill="#FFFFFF" height="17.9609" style="stroke:#181818;stroke-width:1.0;stroke-dasharray:2.0,2.0;" width="23" x="229.5" y="425.6348"/><text fill="#000000" font-family="sans-serif" font-size="12" font-style="italic" lengthAdjust="spacing" textLength="21" x="230.5" y="439.584">root</text><line style="stroke:#181818;stroke-width:0.5;" x1="23.5" x2="248.5" y1="460.6348" y2="460.6348"/><rect fill="none" height="6" style="stroke:#C82930;stroke-width:1.0;" width="6" x="30.5" y="472.4453"/><text fill="#000000" font-family="sans-serif" font-size="14" lengthAdjust="spacing" textLength="157" x="42.5" y="479.7422">id: SensorFunctionalityID</text><line style="stroke:#181818;stroke-width:0.5;" x1="23.5" x2="248.5" y1="487.2559" y2="487.2559"/><ellipse cx="33.5" cy="502.0664" fill="#84BE84" rx="3" ry="3" style="stroke:#038048;stroke-width:1.0;"/><text fill="#000000" font-family="sans-serif" font-size="14" lengthAdjust="spacing" textLength="201" x="42.5" y="506.3633">identity(): SensorFunctionalityID</text></g><!--class SensorFunctionalityRepository--><g id="elem_SensorFunctionalityRepository"><rect codeLine="22" fill="#F1F1F1" height="66.6211" id="SensorFunctionalityRepository" rx="2.5" ry="2.5" style="stroke:#181818;stroke-width:0.5;" width="316" x="285" y="437.6348"/><ellipse cx="327.9" cy="453.6348" fill="#B4A7E5" rx="11" ry="11" style="stroke:#181818;stroke-width:1.0;"/><path d="M328.8531,450.2754 L328.8531,456.9316 L330.5719,456.9316 Q331.1813,456.9316 331.4469,457.166 Q331.7125,457.4004 331.7125,457.791 Q331.7125,458.166 331.4469,458.4004 Q331.1813,458.6348 330.5719,458.6348 L325.4313,458.6348 Q324.8219,458.6348 324.5563,458.4004 Q324.2906,458.166 324.2906,457.7754 Q324.2906,457.4004 324.5563,457.166 Q324.8219,456.9316 325.4313,456.9316 L327.15,456.9316 L327.15,450.2754 L325.4313,450.2754 Q324.8219,450.2754 324.5563,450.041 Q324.2906,449.8066 324.2906,449.416 Q324.2906,449.041 324.5563,448.8066 Q324.8219,448.5723 325.4313,448.5723 L330.5719,448.5723 Q331.1813,448.5723 331.4469,448.8066 Q331.7125,449.041 331.7125,449.416 Q331.7125,449.8066 331.4469,450.041 Q331.1813,450.2754 330.5719,450.2754 L328.8531,450.2754 Z " fill="#000000"/><text fill="#000000" font-family="sans-serif" font-size="14" font-style="italic" lengthAdjust="spacing" textLength="193" x="348.1" y="459.4316">SensorFunctionalityRepository</text><rect fill="#FFFFFF" height="17.9609" style="stroke:#181818;stroke-width:1.0;stroke-dasharray:2.0,2.0;" width="27" x="577" y="434.6348"/><text fill="#000000" font-family="sans-serif" font-size="12" font-style="italic" lengthAdjust="spacing" textLength="25" x="578" y="448.584">repo</text><line style="stroke:#181818;stroke-width:0.5;" x1="286" x2="600" y1="469.6348" y2="469.6348"/><line style="stroke:#181818;stroke-width:0.5;" x1="286" x2="600" y1="477.6348" y2="477.6348"/><ellipse cx="296" cy="492.4453" fill="#84BE84" rx="3" ry="3" style="stroke:#038048;stroke-width:1.0;"/><text fill="#000000" font-family="sans-serif" font-size="14" lengthAdjust="spacing" textLength="290" x="305" y="496.7422">findAllEntities(): Iterable&lt;SensorFunctionality&gt;</text></g><!--class SensorFunctionalityMapperDTO--><g id="elem_SensorFunctionalityMapperDTO"><rect codeLine="26" fill="#F1F1F1" height="122.4844" id="SensorFunctionalityMapperDTO" rx="2.5" ry="2.5" style="stroke:#181818;stroke-width:0.5;" width="492" x="475" y="246.6348"/><ellipse cx="615.25" cy="262.6348" fill="#ADD1B2" rx="11" ry="11" style="stroke:#181818;stroke-width:1.0;"/><path d="M618.0156,258.5098 Q618.1719,258.291 618.3594,258.1816 Q618.5469,258.0723 618.7656,258.0723 Q619.1406,258.0723 619.375,258.3379 Q619.6094,258.5879 619.6094,259.1973 L619.6094,260.6504 Q619.6094,261.2598 619.375,261.5254 Q619.1406,261.791 618.7656,261.791 Q618.4219,261.791 618.2188,261.5879 Q618.0156,261.4004 617.9063,260.8848 Q617.8594,260.5254 617.6719,260.3379 Q617.3438,259.9629 616.7344,259.7441 Q616.125,259.5254 615.5,259.5254 Q614.7344,259.5254 614.0938,259.8535 Q613.4688,260.1816 612.9688,260.9316 Q612.4844,261.6816 612.4844,262.7129 L612.4844,263.8066 Q612.4844,265.041 613.375,265.8691 Q614.2656,266.6816 615.8594,266.6816 Q616.7969,266.6816 617.4531,266.4316 Q617.8438,266.2754 618.2656,265.8379 Q618.5313,265.5723 618.6719,265.4941 Q618.8281,265.416 619.0313,265.416 Q619.3594,265.416 619.6094,265.6816 Q619.875,265.9316 619.875,266.2754 Q619.875,266.6191 619.5313,267.0254 Q619.0313,267.6035 618.2344,267.9316 Q617.1563,268.3848 615.8594,268.3848 Q614.3438,268.3848 613.1406,267.7598 Q612.1563,267.2598 611.4688,266.1973 Q610.7813,265.1191 610.7813,263.8379 L610.7813,262.6816 Q610.7813,261.3535 611.3906,260.2129 Q612.0156,259.0566 613.1094,258.4473 Q614.2031,257.8223 615.4375,257.8223 Q616.1719,257.8223 616.8125,257.9941 Q617.4688,258.1504 618.0156,258.5098 Z " fill="#000000"/><text fill="#000000" font-family="sans-serif" font-size="14" lengthAdjust="spacing" textLength="203" x="635.75" y="268.4316">SensorFunctionalityMapperDTO</text><line style="stroke:#181818;stroke-width:0.5;" x1="476" x2="966" y1="278.6348" y2="278.6348"/><line style="stroke:#181818;stroke-width:0.5;" x1="476" x2="966" y1="286.6348" y2="286.6348"/><ellipse cx="486" cy="310.7559" fill="#84BE84" rx="3" ry="3" style="stroke:#038048;stroke-width:1.0;"/><text fill="#000000" font-family="sans-serif" font-size="14" lengthAdjust="spacing" textLength="462" x="495" y="305.7422">sensorFunctionalityToDTO(SensorFunctionalityID sensorFunctionalityID):</text><text fill="#000000" font-family="sans-serif" font-size="14" lengthAdjust="spacing" textLength="155" x="495" y="324.3633">SensorFunctionalityDTO</text><ellipse cx="486" cy="347.998" fill="#84BE84" rx="3" ry="3" style="stroke:#038048;stroke-width:1.0;"/><text fill="#000000" font-family="sans-serif" font-size="14" lengthAdjust="spacing" textLength="373" x="495" y="342.9844">sensorFunctionalityToDTOList(List&lt;SensorFunctionalityID&gt;</text><text fill="#000000" font-family="sans-serif" font-size="14" lengthAdjust="spacing" textLength="360" x="495" y="361.6055">sensorFunctionalitiesIDs): List&lt;SensorFunctionalityDTO&gt;</text></g><!--class SensorFunctionalityDTO--><g id="elem_SensorFunctionalityDTO"><rect codeLine="30" fill="#F1F1F1" height="66.6211" id="SensorFunctionalityDTO" rx="2.5" ry="2.5" style="stroke:#181818;stroke-width:0.5;" width="234" x="636" y="437.6348"/><ellipse cx="672.15" cy="453.6348" fill="#ADD1B2" rx="11" ry="11" style="stroke:#181818;stroke-width:1.0;"/><path d="M674.9156,449.5098 Q675.0719,449.291 675.2594,449.1816 Q675.4469,449.0723 675.6656,449.0723 Q676.0406,449.0723 676.275,449.3379 Q676.5094,449.5879 676.5094,450.1973 L676.5094,451.6504 Q676.5094,452.2598 676.275,452.5254 Q676.0406,452.791 675.6656,452.791 Q675.3219,452.791 675.1188,452.5879 Q674.9156,452.4004 674.8063,451.8848 Q674.7594,451.5254 674.5719,451.3379 Q674.2438,450.9629 673.6344,450.7441 Q673.025,450.5254 672.4,450.5254 Q671.6344,450.5254 670.9938,450.8535 Q670.3688,451.1816 669.8688,451.9316 Q669.3844,452.6816 669.3844,453.7129 L669.3844,454.8066 Q669.3844,456.041 670.275,456.8691 Q671.1656,457.6816 672.7594,457.6816 Q673.6969,457.6816 674.3531,457.4316 Q674.7438,457.2754 675.1656,456.8379 Q675.4313,456.5723 675.5719,456.4941 Q675.7281,456.416 675.9313,456.416 Q676.2594,456.416 676.5094,456.6816 Q676.775,456.9316 676.775,457.2754 Q676.775,457.6191 676.4313,458.0254 Q675.9313,458.6035 675.1344,458.9316 Q674.0563,459.3848 672.7594,459.3848 Q671.2438,459.3848 670.0406,458.7598 Q669.0563,458.2598 668.3688,457.1973 Q667.6813,456.1191 667.6813,454.8379 L667.6813,453.6816 Q667.6813,452.3535 668.2906,451.2129 Q668.9156,450.0566 670.0094,449.4473 Q671.1031,448.8223 672.3375,448.8223 Q673.0719,448.8223 673.7125,448.9941 Q674.3688,449.1504 674.9156,449.5098 Z " fill="#000000"/><text fill="#000000" font-family="sans-serif" font-size="14" lengthAdjust="spacing" textLength="155" x="690.85" y="459.4316">SensorFunctionalityDTO</text><line style="stroke:#181818;stroke-width:0.5;" x1="637" x2="869" y1="469.6348" y2="469.6348"/><ellipse cx="647" cy="484.4453" fill="none" rx="3" ry="3" style="stroke:#038048;stroke-width:1.0;"/><text fill="#000000" font-family="sans-serif" font-size="14" lengthAdjust="spacing" textLength="208" x="656" y="488.7422">sensorFunctionalityName : String</text><line style="stroke:#181818;stroke-width:0.5;" x1="637" x2="869" y1="496.2559" y2="496.2559"/></g><!--link SensorFunctionalityControllerWeb to SensorFunctionalityService--><g id="link_SensorFunctionalityControllerWeb_SensorFunctionalityService"><path codeLine="35" d="M344,187.0148 C344,211.9748 344,241.4448 344,265.0148 " fill="none" id="SensorFunctionalityControllerWeb-SensorFunctionalityService" style="stroke:#181818;stroke-width:1.0;"/></g><!--link SensorFunctionalityService to SensorFunctionalityRepository--><g id="link_SensorFunctionalityService_SensorFunctionalityRepository"><path codeLine="36" d="M362.5,350.1648 C362.5,377.4148 362.5,412.2848 362.5,437.5748 " fill="none" id="SensorFunctionalityService-SensorFunctionalityRepository" style="stroke:#181818;stroke-width:1.0;"/></g><!--link SensorFunctionalityService to SensorFunctionality--><g id="link_SensorFunctionalityService_SensorFunctionality"><path codeLine="37" d="M136,350.1648 C136,374.2948 136,398.3948 136,422.5348 " fill="none" id="SensorFunctionalityService-to-SensorFunctionality" style="stroke:#181818;stroke-width:1.0;stroke-dasharray:7.0,7.0;"/><polygon fill="#181818" points="136,428.5348,140,419.5348,136,423.5348,132,419.5348,136,428.5348" style="stroke:#181818;stroke-width:1.0;"/><text fill="#000000" font-family="sans-serif" font-size="13" lengthAdjust="spacing" textLength="42" x="93" y="385.3731">&#171;uses&#187;</text></g><!--link SensorFunctionalityControllerWeb to SensorFunctionalityMapperDTO--><g id="link_SensorFunctionalityControllerWeb_SensorFunctionalityMapperDTO"><path codeLine="38" d="M607.5,187.0148 C607.5,205.8048 607.5,221.1648 607.5,240.6248 " fill="none" id="SensorFunctionalityControllerWeb-to-SensorFunctionalityMapperDTO" style="stroke:#181818;stroke-width:1.0;stroke-dasharray:7.0,7.0;"/><polygon fill="#181818" points="607.5,246.6248,611.5,237.6248,607.5,241.6248,603.5,237.6248,607.5,246.6248" style="stroke:#181818;stroke-width:1.0;"/><text fill="#000000" font-family="sans-serif" font-size="13" lengthAdjust="spacing" textLength="57" x="549.5" y="212.8431">&#171;creates&#187;</text></g><!--link SensorFunctionalityMapperDTO to SensorFunctionalityDTO--><g id="link_SensorFunctionalityMapperDTO_SensorFunctionalityDTO"><path codeLine="39" d="M753,368.9848 C753,392.1748 753,411.7148 753,431.4548 " fill="none" id="SensorFunctionalityMapperDTO-to-SensorFunctionalityDTO" style="stroke:#181818;stroke-width:1.0;stroke-dasharray:7.0,7.0;"/><polygon fill="#181818" points="753,437.4548,757,428.4548,753,432.4548,749,428.4548,753,437.4548" style="stroke:#181818;stroke-width:1.0;"/><text fill="#000000" font-family="sans-serif" font-size="13" lengthAdjust="spacing" textLength="57" x="695" y="399.2431">&#171;creates&#187;</text></g><!--SRC=[ZLDDJy904BttLqpmWa68dan8qyI07qIHH31Ul2pj01lNtMPdC6aC_zrfXO1nMUsfxSoyUM_U3BrfMoglti5eYroL2CxpoYK9QpO8hUV1-MNl0XuqCRW5JD6Iyt2pjZbhPvNHh95QILAg_4qj4GZz1teuUT3B5TzwLS5dakH64Mrh3qkhWRFidJ7eNt0kcI1FbtxdJGLLvzWFOMnZJMrdYLnJdIn-9mhFzcaVdf1APmclhIYiqa7TlSaPkmBDgqs_0yrN6cWtd4soB8FyPzqPt36NKrQyfjxaFjb4H6y9H-G-OUb8i_DLKF4-_5_HTJWaPZJCebGXzSvnjgEgYo2VqV2RXowmcLtTCPmclRHbz0ib-gFAfBEyxpft5jeMLyOqtcmrZGH7pGs6TCLLZLLPeXSZT-W12sPEuksW2g3GNs7qQiFx4czIUzEE62Im5F9rDAI8i_MQoX2Epa3Y8Zv4wb6z8uY1xBLT9h2fH_ddwNQxiTEC746uy6338xMzNXPSsZwawPgGiknluaSmzYlIeEKU5Hy3tESU0Gl0V040]--></g></svg>