<?xml version="1.0" encoding="us-ascii" standalone="no"?><svg xmlns="http://www.w3.org/2000/svg" xmlns:xlink="http://www.w3.org/1999/xlink" contentStyleType="text/css" height="576px" preserveAspectRatio="none" style="width:1317px;height:576px;background:#FFFFFF;" version="1.1" viewBox="0 0 1317 576" width="1317.6px" zoomAndPan="magnify"><defs/><g><text fill="#000000" font-family="sans-serif" font-size="11.2" font-weight="bold" lengthAdjust="spacing" textLength="202.4" x="552" y="18.8281">UC7.2 - Add New Sensor To Device</text><!--cluster server--><g id="cluster_server"><path d="M6.8,34.7906 L42.8,34.7906 A3,3 0 0 1 44.8,36.7906 L50.4,52.7813 L1310,52.7813 A2,2 0 0 1 1312,54.7813 L1312,569.0466 A2,2 0 0 1 1310,571.0466 L6.8,571.0466 A2,2 0 0 1 4.8,569.0466 L4.8,36.7906 A2,2 0 0 1 6.8,34.7906 " fill="#D3D3D3" style="stroke:#000000;stroke-width:1.2000000000000002;"/><line style="stroke:#000000;stroke-width:1.2000000000000002;" x1="4.8" x2="50.4" y1="52.7813" y2="52.7813"/><text fill="#000000" font-family="sans-serif" font-size="11.2" font-weight="bold" lengthAdjust="spacing" textLength="35.2" x="8" y="47.2188">server</text></g><!--class SensorControllerWeb--><g id="elem_SensorControllerWeb"><rect codeLine="6" fill="#F1F1F1" height="77.9719" id="SensorControllerWeb" rx="2" ry="2" style="stroke:#181818;stroke-width:0.4000000000000001;" width="378.4" x="26" y="82.5746"/><ellipse cx="153.4" cy="95.3746" fill="#ADD1B2" rx="8.8" ry="8.8" style="stroke:#181818;stroke-width:0.8000000000000002;"/><path d="M155.7785,99.8891 Q155.3137,100.1281 154.8023,100.2477 Q154.291,100.3672 153.7266,100.3672 Q151.7211,100.3672 150.6652,99.0457 Q149.6094,97.7242 149.6094,95.2274 Q149.6094,92.7238 150.6652,91.4024 Q151.7211,90.0809 153.7266,90.0809 Q154.291,90.0809 154.809,90.2004 Q155.327,90.3199 155.7785,90.559 L155.7785,92.7371 Q155.2738,92.2723 154.799,92.0565 Q154.3242,91.8406 153.8195,91.8406 Q152.7438,91.8406 152.1959,92.694 Q151.648,93.5473 151.648,95.2274 Q151.648,96.9008 152.1959,97.7541 Q152.7438,98.6074 153.8195,98.6074 Q154.3242,98.6074 154.799,98.3916 Q155.2738,98.1758 155.7785,97.711 Z " fill="#000000"/><text fill="#000000" font-family="sans-serif" font-size="11.2" lengthAdjust="spacing" textLength="116.8" x="169.8" y="99.6074">SensorControllerWeb</text><line style="stroke:#181818;stroke-width:0.4000000000000001;" x1="26.8" x2="403.6" y1="108.1746" y2="108.1746"/><rect fill="none" height="4.8" style="stroke:#C82930;stroke-width:0.8000000000000002;" width="4.8" x="32.4" y="116.7699"/><text fill="#000000" font-family="sans-serif" font-size="11.2" lengthAdjust="spacing" textLength="157.6" x="42" y="122.2028">sensorService: SensorService</text><line style="stroke:#181818;stroke-width:0.4000000000000001;" x1="26.8" x2="403.6" y1="127.7653" y2="127.7653"/><ellipse cx="34.8" cy="145.3559" fill="#84BE84" rx="2.4" ry="2.4" style="stroke:#038048;stroke-width:0.8000000000000002;"/><text fill="#000000" font-family="sans-serif" font-size="11.2" lengthAdjust="spacing" textLength="357.6" x="42" y="141.7934">POST addSensorToDevice(@RequestBody SensorDTO sensorInfo):</text><text fill="#000000" font-family="sans-serif" font-size="11.2" lengthAdjust="spacing" textLength="340.8" x="45.2" y="154.984">ResponseEntity&lt;Object&gt; newSensorDTO, HttpStatus.CREATED</text></g><!--class SensorDTO--><g id="elem_SensorDTO"><rect codeLine="11" fill="#F1F1F1" height="77.9719" id="SensorDTO" rx="2" ry="2" style="stroke:#181818;stroke-width:0.4000000000000001;" width="139.2" x="17.6" y="228.3346"/><ellipse cx="53" cy="241.1346" fill="#ADD1B2" rx="8.8" ry="8.8" style="stroke:#181818;stroke-width:0.8000000000000002;"/><path d="M55.3785,245.6491 Q54.9137,245.8881 54.4023,246.0077 Q53.891,246.1272 53.3266,246.1272 Q51.3211,246.1272 50.2652,244.8057 Q49.2094,243.4842 49.2094,240.9874 Q49.2094,238.4838 50.2652,237.1624 Q51.3211,235.8409 53.3266,235.8409 Q53.891,235.8409 54.409,235.9604 Q54.927,236.0799 55.3785,236.319 L55.3785,238.4971 Q54.8738,238.0323 54.399,237.8165 Q53.9242,237.6006 53.4195,237.6006 Q52.3438,237.6006 51.7959,238.454 Q51.248,239.3073 51.248,240.9874 Q51.248,242.6608 51.7959,243.5141 Q52.3438,244.3674 53.4195,244.3674 Q53.9242,244.3674 54.399,244.1516 Q54.8738,243.9358 55.3785,243.471 Z " fill="#000000"/><text fill="#000000" font-family="sans-serif" font-size="11.2" lengthAdjust="spacing" textLength="61.6" x="69.4" y="245.3674">SensorDTO</text><line style="stroke:#181818;stroke-width:0.4000000000000001;" x1="18.4" x2="156" y1="253.9346" y2="253.9346"/><ellipse cx="26.4" cy="264.9299" fill="none" rx="2.4" ry="2.4" style="stroke:#038048;stroke-width:0.8000000000000002;"/><text fill="#000000" font-family="sans-serif" font-size="11.2" lengthAdjust="spacing" textLength="107.2" x="33.6" y="267.9628">sensorName: String</text><ellipse cx="26.4" cy="278.1206" fill="none" rx="2.4" ry="2.4" style="stroke:#038048;stroke-width:0.8000000000000002;"/><text fill="#000000" font-family="sans-serif" font-size="11.2" lengthAdjust="spacing" textLength="84.8" x="33.6" y="281.1534">deviceID: String</text><ellipse cx="26.4" cy="291.3112" fill="none" rx="2.4" ry="2.4" style="stroke:#038048;stroke-width:0.8000000000000002;"/><text fill="#000000" font-family="sans-serif" font-size="11.2" lengthAdjust="spacing" textLength="118.4" x="33.6" y="294.344">functionalityID: String</text><line style="stroke:#181818;stroke-width:0.4000000000000001;" x1="18.4" x2="156" y1="299.9065" y2="299.9065"/></g><!--class SensorRepository--><g id="elem_SensorRepository"><rect codeLine="17" fill="#F1F1F1" height="64.7813" id="SensorRepository" rx="2" ry="2" style="stroke:#181818;stroke-width:0.4000000000000001;" width="245.6" x="1053.2" y="234.9266"/><ellipse cx="1112.2" cy="247.7266" fill="#B4A7E5" rx="8.8" ry="8.8" style="stroke:#181818;stroke-width:0.8000000000000002;"/><path d="M1108.9422,244.3387 L1108.9422,242.6122 L1114.8457,242.6122 L1114.8457,244.3387 L1112.8734,244.3387 L1112.8734,250.8001 L1114.8457,250.8001 L1114.8457,252.5266 L1108.9422,252.5266 L1108.9422,250.8001 L1110.9145,250.8001 L1110.9145,244.3387 Z " fill="#000000"/><text fill="#000000" font-family="sans-serif" font-size="11.2" font-style="italic" lengthAdjust="spacing" textLength="96" x="1128.6" y="251.9594">SensorRepository</text><rect fill="#FFFFFF" height="12.9063" style="stroke:#181818;stroke-width:0.8000000000000002;stroke-dasharray:2.0,2.0;" width="23.2" x="1278" y="232.5266"/><text fill="#000000" font-family="sans-serif" font-size="9.6" font-style="italic" lengthAdjust="spacing" textLength="21.6" x="1278.8" y="242.6079">repo</text><line style="stroke:#181818;stroke-width:0.4000000000000001;" x1="1054" x2="1298" y1="260.5266" y2="260.5266"/><line style="stroke:#181818;stroke-width:0.4000000000000001;" x1="1054" x2="1298" y1="266.9266" y2="266.9266"/><ellipse cx="1062" cy="277.9219" fill="#84BE84" rx="2.4" ry="2.4" style="stroke:#038048;stroke-width:0.8000000000000002;"/><text fill="#000000" font-family="sans-serif" font-size="11.2" lengthAdjust="spacing" textLength="224.8" x="1069.2" y="280.9548">containsEntityByID (SensorID id): boolean</text><ellipse cx="1062" cy="291.1126" fill="#84BE84" rx="2.4" ry="2.4" style="stroke:#038048;stroke-width:0.8000000000000002;"/><text fill="#000000" font-family="sans-serif" font-size="11.2" lengthAdjust="spacing" textLength="156.8" x="1069.2" y="294.1454">save (Sensor sensor): Sensor</text></g><!--class SensorFunctionalityRepository--><g id="elem_SensorFunctionalityRepository"><rect codeLine="22" fill="#F1F1F1" height="64.7813" id="SensorFunctionalityRepository" rx="2" ry="2" style="stroke:#181818;stroke-width:0.4000000000000001;" width="239.2" x="946" y="89.1666"/><ellipse cx="968.08" cy="101.9666" fill="#B4A7E5" rx="8.8" ry="8.8" style="stroke:#181818;stroke-width:0.8000000000000002;"/><path d="M964.8222,98.5787 L964.8222,96.8522 L970.7257,96.8522 L970.7257,98.5787 L968.7534,98.5787 L968.7534,105.0401 L970.7257,105.0401 L970.7257,106.7666 L964.8222,106.7666 L964.8222,105.0401 L966.7945,105.0401 L966.7945,98.5787 Z " fill="#000000"/><text fill="#000000" font-family="sans-serif" font-size="11.2" font-style="italic" lengthAdjust="spacing" textLength="166.4" x="981.52" y="106.1994">SensorFunctionalityRepository</text><rect fill="#FFFFFF" height="12.9063" style="stroke:#181818;stroke-width:0.8000000000000002;stroke-dasharray:2.0,2.0;" width="23.2" x="1164.4" y="86.7666"/><text fill="#000000" font-family="sans-serif" font-size="9.6" font-style="italic" lengthAdjust="spacing" textLength="21.6" x="1165.2" y="96.8479">repo</text><line style="stroke:#181818;stroke-width:0.4000000000000001;" x1="946.8" x2="1184.4" y1="114.7666" y2="114.7666"/><line style="stroke:#181818;stroke-width:0.4000000000000001;" x1="946.8" x2="1184.4" y1="121.1666" y2="121.1666"/><ellipse cx="954.8" cy="138.7573" fill="#84BE84" rx="2.4" ry="2.4" style="stroke:#038048;stroke-width:0.8000000000000002;"/><text fill="#000000" font-family="sans-serif" font-size="11.2" lengthAdjust="spacing" textLength="215.2" x="962" y="135.1948">getClassNameForSensorFunctionalityID</text><text fill="#000000" font-family="sans-serif" font-size="11.2" lengthAdjust="spacing" textLength="165.6" x="962" y="148.3854">(sensorFunctionalityID): String</text></g><!--class Sensor--><g id="elem_Sensor"><rect codeLine="26" fill="#F1F1F1" height="91.1625" id="Sensor" rx="2" ry="2" style="stroke:#181818;stroke-width:0.4000000000000001;" width="268" x="244.4" y="354.3026"/><ellipse cx="345.4" cy="367.1026" fill="#A9DCDF" rx="8.8" ry="8.8" style="stroke:#181818;stroke-width:0.8000000000000002;"/><path d="M345.4906,363.3811 L344.5676,367.4386 L346.4203,367.4386 Z M344.2953,361.5882 L346.6926,361.5882 L349.3688,371.5026 L347.4098,371.5026 L346.7988,369.0522 L344.1758,369.0522 L343.5781,371.5026 L341.6191,371.5026 Z " fill="#000000"/><text fill="#000000" font-family="sans-serif" font-size="11.2" font-style="italic" lengthAdjust="spacing" textLength="37.6" x="361.8" y="371.3354">Sensor</text><rect fill="#FFFFFF" height="12.9063" style="stroke:#181818;stroke-width:0.8000000000000002;stroke-dasharray:2.0,2.0;" width="20" x="494.8" y="351.9026"/><text fill="#000000" font-family="sans-serif" font-size="9.6" font-style="italic" lengthAdjust="spacing" textLength="18.4" x="495.6" y="361.9839">root</text><line style="stroke:#181818;stroke-width:0.4000000000000001;" x1="245.2" x2="511.6" y1="379.9026" y2="379.9026"/><rect fill="none" height="4.8" style="stroke:#C82930;stroke-width:0.8000000000000002;" width="4.8" x="250.8" y="388.4979"/><text fill="#000000" font-family="sans-serif" font-size="11.2" lengthAdjust="spacing" textLength="106.4" x="260.4" y="393.9308">sensorID : SensorID</text><rect fill="none" height="4.8" style="stroke:#C82930;stroke-width:0.8000000000000002;" width="4.8" x="250.8" y="401.6886"/><text fill="#000000" font-family="sans-serif" font-size="11.2" lengthAdjust="spacing" textLength="101.6" x="260.4" y="407.1214">deviceID : DeviceID</text><rect fill="none" height="4.8" style="stroke:#C82930;stroke-width:0.8000000000000002;" width="4.8" x="250.8" y="414.8792"/><text fill="#000000" font-family="sans-serif" font-size="11.2" lengthAdjust="spacing" textLength="247.2" x="260.4" y="420.312">sensorFunctionalityID : SensorFunctionalityID</text><line style="stroke:#181818;stroke-width:0.4000000000000001;" x1="245.2" x2="511.6" y1="425.8745" y2="425.8745"/><ellipse cx="253.2" cy="436.8698" fill="#84BE84" rx="2.4" ry="2.4" style="stroke:#038048;stroke-width:0.8000000000000002;"/><text fill="#000000" font-family="sans-serif" font-size="11.2" lengthAdjust="spacing" textLength="104" x="260.4" y="439.9026">identity(): SensorID</text></g><!--class SensorFunctionalityID--><g id="elem_SensorFunctionalityID"><rect codeLine="46" fill="#F1F1F1" height="51.5906" id="SensorFunctionalityID" rx="2" ry="2" style="stroke:#181818;stroke-width:0.4000000000000001;" width="181.6" x="99.6" y="500.0626"/><ellipse cx="120.6" cy="512.8626" fill="#ADD1B2" rx="8.8" ry="8.8" style="stroke:#181818;stroke-width:0.8000000000000002;"/><path d="M122.9785,517.3771 Q122.5137,517.6161 122.0023,517.7357 Q121.491,517.8552 120.9266,517.8552 Q118.9211,517.8552 117.8652,516.5337 Q116.8094,515.2122 116.8094,512.7154 Q116.8094,510.2118 117.8652,508.8904 Q118.9211,507.5689 120.9266,507.5689 Q121.491,507.5689 122.009,507.6884 Q122.527,507.8079 122.9785,508.047 L122.9785,510.2251 Q122.4738,509.7603 121.999,509.5445 Q121.5242,509.3286 121.0195,509.3286 Q119.9438,509.3286 119.3959,510.182 Q118.848,511.0353 118.848,512.7154 Q118.848,514.3888 119.3959,515.2421 Q119.9438,516.0954 121.0195,516.0954 Q121.5242,516.0954 121.999,515.8796 Q122.4738,515.6638 122.9785,515.199 Z " fill="#000000"/><text fill="#000000" font-family="sans-serif" font-size="11.2" lengthAdjust="spacing" textLength="119.2" x="133.8" y="517.0954">SensorFunctionalityID</text><rect fill="#FFFFFF" height="12.9063" style="stroke:#181818;stroke-width:0.8000000000000002;stroke-dasharray:2.0,2.0;" width="15.2" x="268.4" y="497.6626"/><text fill="#000000" font-family="sans-serif" font-size="9.6" font-style="italic" lengthAdjust="spacing" textLength="13.6" x="269.2" y="507.7439">VO</text><line style="stroke:#181818;stroke-width:0.4000000000000001;" x1="100.4" x2="280.4" y1="525.6626" y2="525.6626"/><rect fill="none" height="4.8" style="stroke:#C82930;stroke-width:0.8000000000000002;" width="4.8" x="106" y="534.2579"/><text fill="#000000" font-family="sans-serif" font-size="11.2" lengthAdjust="spacing" textLength="160.8" x="115.6" y="539.6908">sensorFunctionalityID : String</text><line style="stroke:#181818;stroke-width:0.4000000000000001;" x1="100.4" x2="280.4" y1="545.2533" y2="545.2533"/></g><!--class DeviceID--><g id="elem_DeviceID"><rect codeLine="42" fill="#F1F1F1" height="51.5906" id="DeviceID" rx="2" ry="2" style="stroke:#181818;stroke-width:0.4000000000000001;" width="108.8" x="319.2" y="500.0626"/><ellipse cx="340.2" cy="512.8626" fill="#ADD1B2" rx="8.8" ry="8.8" style="stroke:#181818;stroke-width:0.8000000000000002;"/><path d="M342.5785,517.3771 Q342.1137,517.6161 341.6023,517.7357 Q341.091,517.8552 340.5266,517.8552 Q338.5211,517.8552 337.4652,516.5337 Q336.4094,515.2122 336.4094,512.7154 Q336.4094,510.2118 337.4652,508.8904 Q338.5211,507.5689 340.5266,507.5689 Q341.091,507.5689 341.609,507.6884 Q342.127,507.8079 342.5785,508.047 L342.5785,510.2251 Q342.0738,509.7603 341.599,509.5445 Q341.1242,509.3286 340.6195,509.3286 Q339.5438,509.3286 338.9959,510.182 Q338.448,511.0353 338.448,512.7154 Q338.448,514.3888 338.9959,515.2421 Q339.5438,516.0954 340.6195,516.0954 Q341.1242,516.0954 341.599,515.8796 Q342.0738,515.6638 342.5785,515.199 Z " fill="#000000"/><text fill="#000000" font-family="sans-serif" font-size="11.2" lengthAdjust="spacing" textLength="46.4" x="353.4" y="517.0954">DeviceID</text><rect fill="#FFFFFF" height="12.9063" style="stroke:#181818;stroke-width:0.8000000000000002;stroke-dasharray:2.0,2.0;" width="15.2" x="415.2" y="497.6626"/><text fill="#000000" font-family="sans-serif" font-size="9.6" font-style="italic" lengthAdjust="spacing" textLength="13.6" x="416" y="507.7439">VO</text><line style="stroke:#181818;stroke-width:0.4000000000000001;" x1="320" x2="427.2" y1="525.6626" y2="525.6626"/><rect fill="none" height="4.8" style="stroke:#C82930;stroke-width:0.8000000000000002;" width="4.8" x="325.6" y="534.2579"/><text fill="#000000" font-family="sans-serif" font-size="11.2" lengthAdjust="spacing" textLength="88" x="335.2" y="539.6908">deviceID : String</text><line style="stroke:#181818;stroke-width:0.4000000000000001;" x1="320" x2="427.2" y1="545.2533" y2="545.2533"/></g><!--class SensorID--><g id="elem_SensorID"><rect codeLine="37" fill="#F1F1F1" height="64.7813" id="SensorID" rx="2" ry="2" style="stroke:#181818;stroke-width:0.4000000000000001;" width="154.4" x="462.8" y="493.4626"/><ellipse cx="503.8" cy="506.2626" fill="#ADD1B2" rx="8.8" ry="8.8" style="stroke:#181818;stroke-width:0.8000000000000002;"/><path d="M506.1785,510.7771 Q505.7137,511.0161 505.2023,511.1357 Q504.691,511.2552 504.1266,511.2552 Q502.1211,511.2552 501.0652,509.9337 Q500.0094,508.6122 500.0094,506.1154 Q500.0094,503.6118 501.0652,502.2904 Q502.1211,500.9689 504.1266,500.9689 Q504.691,500.9689 505.209,501.0884 Q505.727,501.2079 506.1785,501.447 L506.1785,503.6251 Q505.6738,503.1603 505.199,502.9445 Q504.7242,502.7286 504.2195,502.7286 Q503.1438,502.7286 502.5959,503.582 Q502.048,504.4353 502.048,506.1154 Q502.048,507.7888 502.5959,508.6421 Q503.1438,509.4954 504.2195,509.4954 Q504.7242,509.4954 505.199,509.2796 Q505.6738,509.0638 506.1785,508.599 Z " fill="#000000"/><text fill="#000000" font-family="sans-serif" font-size="11.2" lengthAdjust="spacing" textLength="48.8" x="520.2" y="510.4954">SensorID</text><rect fill="#FFFFFF" height="12.9063" style="stroke:#181818;stroke-width:0.8000000000000002;stroke-dasharray:2.0,2.0;" width="15.2" x="604.4" y="491.0626"/><text fill="#000000" font-family="sans-serif" font-size="9.6" font-style="italic" lengthAdjust="spacing" textLength="13.6" x="605.2" y="501.1439">VO</text><line style="stroke:#181818;stroke-width:0.4000000000000001;" x1="463.6" x2="616.4" y1="519.0626" y2="519.0626"/><rect fill="none" height="4.8" style="stroke:#C82930;stroke-width:0.8000000000000002;" width="4.8" x="469.2" y="527.6579"/><text fill="#000000" font-family="sans-serif" font-size="11.2" lengthAdjust="spacing" textLength="107.2" x="478.8" y="533.0908">sensorName: String</text><line style="stroke:#181818;stroke-width:0.4000000000000001;" x1="463.6" x2="616.4" y1="538.6533" y2="538.6533"/><ellipse cx="471.6" cy="549.6486" fill="#84BE84" rx="2.4" ry="2.4" style="stroke:#038048;stroke-width:0.8000000000000002;"/><text fill="#000000" font-family="sans-serif" font-size="11.2" lengthAdjust="spacing" textLength="133.6" x="478.8" y="552.6814">getSensorName(): String</text></g><!--class SensorService--><g id="elem_SensorService"><rect codeLine="50" fill="#F1F1F1" height="117.5438" id="SensorService" rx="2" ry="2" style="stroke:#181818;stroke-width:0.4000000000000001;" width="372" x="546" y="62.7906"/><ellipse cx="690.6" cy="75.5906" fill="#ADD1B2" rx="8.8" ry="8.8" style="stroke:#181818;stroke-width:0.8000000000000002;"/><path d="M692.9785,80.1051 Q692.5137,80.3441 692.0023,80.4637 Q691.491,80.5832 690.9266,80.5832 Q688.9211,80.5832 687.8652,79.2617 Q686.8094,77.9402 686.8094,75.4434 Q686.8094,72.9398 687.8652,71.6184 Q688.9211,70.2969 690.9266,70.2969 Q691.491,70.2969 692.009,70.4164 Q692.527,70.5359 692.9785,70.775 L692.9785,72.9531 Q692.4738,72.4883 691.999,72.2725 Q691.5242,72.0566 691.0195,72.0566 Q689.9438,72.0566 689.3959,72.91 Q688.848,73.7633 688.848,75.4434 Q688.848,77.1168 689.3959,77.9701 Q689.9438,78.8234 691.0195,78.8234 Q691.5242,78.8234 691.999,78.6076 Q692.4738,78.3918 692.9785,77.927 Z " fill="#000000"/><text fill="#000000" font-family="sans-serif" font-size="11.2" lengthAdjust="spacing" textLength="76" x="707" y="79.8234">SensorService</text><line style="stroke:#181818;stroke-width:0.4000000000000001;" x1="546.8" x2="917.2" y1="88.3906" y2="88.3906"/><rect fill="none" height="4.8" style="stroke:#C82930;stroke-width:0.8000000000000002;" width="4.8" x="552.4" y="96.9859"/><text fill="#000000" font-family="sans-serif" font-size="11.2" lengthAdjust="spacing" textLength="164" x="562" y="102.4188">sensorFactory : SensorFactory</text><rect fill="none" height="4.8" style="stroke:#C82930;stroke-width:0.8000000000000002;" width="4.8" x="552.4" y="110.1766"/><text fill="#000000" font-family="sans-serif" font-size="11.2" lengthAdjust="spacing" textLength="200.8" x="562" y="115.6094">sensorRepository : SensorRepository</text><rect fill="none" height="4.8" style="stroke:#C82930;stroke-width:0.8000000000000002;" width="4.8" x="552.4" y="123.3672"/><text fill="#000000" font-family="sans-serif" font-size="11.2" lengthAdjust="spacing" textLength="196" x="562" y="128.8">deviceRepository : DeviceRepository</text><rect fill="none" height="4.8" style="stroke:#C82930;stroke-width:0.8000000000000002;" width="4.8" x="552.4" y="136.5578"/><text fill="#000000" font-family="sans-serif" font-size="11.2" lengthAdjust="spacing" textLength="341.6" x="562" y="141.9906">sensorFunctionalityRepository : SensorFunctionalityRepository</text><line style="stroke:#181818;stroke-width:0.4000000000000001;" x1="546.8" x2="917.2" y1="147.5531" y2="147.5531"/><ellipse cx="554.8" cy="165.1438" fill="#84BE84" rx="2.4" ry="2.4" style="stroke:#038048;stroke-width:0.8000000000000002;"/><text fill="#000000" font-family="sans-serif" font-size="11.2" lengthAdjust="spacing" textLength="220.8" x="562" y="161.5813">createSensorAndSave(DeviceID deviceID,</text><text fill="#000000" font-family="sans-serif" font-size="11.2" lengthAdjust="spacing" textLength="351.2" x="562" y="174.7719">SensorFunctionalityID sensorFunctionalityID, SensorID sensorID)</text></g><!--class FactorySensor--><g id="elem_FactorySensor"><rect codeLine="58" fill="#F1F1F1" height="64.7813" id="FactorySensor" rx="2" ry="2" style="stroke:#181818;stroke-width:0.4000000000000001;" width="417.6" x="273.6" y="234.9266"/><ellipse cx="423" cy="247.7266" fill="#ADD1B2" rx="8.8" ry="8.8" style="stroke:#181818;stroke-width:0.8000000000000002;"/><path d="M425.3785,252.2411 Q424.9137,252.4801 424.4023,252.5997 Q423.891,252.7192 423.3266,252.7192 Q421.3211,252.7192 420.2652,251.3977 Q419.2094,250.0762 419.2094,247.5794 Q419.2094,245.0758 420.2652,243.7544 Q421.3211,242.4329 423.3266,242.4329 Q423.891,242.4329 424.409,242.5524 Q424.927,242.6719 425.3785,242.911 L425.3785,245.0891 Q424.8738,244.6243 424.399,244.4085 Q423.9242,244.1926 423.4195,244.1926 Q422.3438,244.1926 421.7959,245.046 Q421.248,245.8993 421.248,247.5794 Q421.248,249.2528 421.7959,250.1061 Q422.3438,250.9594 423.4195,250.9594 Q423.9242,250.9594 424.399,250.7436 Q424.8738,250.5278 425.3785,250.063 Z " fill="#000000"/><text fill="#000000" font-family="sans-serif" font-size="11.2" lengthAdjust="spacing" textLength="77.6" x="439.4" y="251.9594">FactorySensor</text><rect fill="#FFFFFF" height="12.9063" style="stroke:#181818;stroke-width:0.8000000000000002;stroke-dasharray:2.0,2.0;" width="32.8" x="660.8" y="232.5266"/><text fill="#000000" font-family="sans-serif" font-size="9.6" font-style="italic" lengthAdjust="spacing" textLength="31.2" x="661.6" y="242.6079">factory</text><line style="stroke:#181818;stroke-width:0.4000000000000001;" x1="274.4" x2="690.4" y1="260.5266" y2="260.5266"/><line style="stroke:#181818;stroke-width:0.4000000000000001;" x1="274.4" x2="690.4" y1="266.9266" y2="266.9266"/><ellipse cx="282.4" cy="284.5173" fill="#84BE84" rx="2.4" ry="2.4" style="stroke:#038048;stroke-width:0.8000000000000002;"/><text fill="#000000" font-family="sans-serif" font-size="11.2" lengthAdjust="spacing" textLength="280" x="289.6" y="280.9548">createSensor(SensorID sensorID, DeviceID deviceID,</text><text fill="#000000" font-family="sans-serif" font-size="11.2" lengthAdjust="spacing" textLength="396.8" x="289.6" y="294.1454">SensorFunctionalityID sensorFunctionalityID, String sensorClass): Sensor</text></g><!--class DeviceRepository--><g id="elem_DeviceRepository"><rect codeLine="62" fill="#F1F1F1" height="51.5906" id="DeviceRepository" rx="2" ry="2" style="stroke:#181818;stroke-width:0.4000000000000001;" width="305.6" x="719.2" y="241.5186"/><ellipse cx="809.4" cy="254.3186" fill="#B4A7E5" rx="8.8" ry="8.8" style="stroke:#181818;stroke-width:0.8000000000000002;"/><path d="M806.1422,250.9307 L806.1422,249.2042 L812.0457,249.2042 L812.0457,250.9307 L810.0734,250.9307 L810.0734,257.3921 L812.0457,257.3921 L812.0457,259.1186 L806.1422,259.1186 L806.1422,257.3921 L808.1145,257.3921 L808.1145,250.9307 Z " fill="#000000"/><text fill="#000000" font-family="sans-serif" font-size="11.2" font-style="italic" lengthAdjust="spacing" textLength="93.6" x="825.8" y="258.5514">DeviceRepository</text><rect fill="#FFFFFF" height="12.9063" style="stroke:#181818;stroke-width:0.8000000000000002;stroke-dasharray:2.0,2.0;" width="23.2" x="1004" y="239.1186"/><text fill="#000000" font-family="sans-serif" font-size="9.6" font-style="italic" lengthAdjust="spacing" textLength="21.6" x="1004.8" y="249.1999">repo</text><line style="stroke:#181818;stroke-width:0.4000000000000001;" x1="720" x2="1024" y1="267.1186" y2="267.1186"/><line style="stroke:#181818;stroke-width:0.4000000000000001;" x1="720" x2="1024" y1="273.5186" y2="273.5186"/><ellipse cx="728" cy="284.5139" fill="#84BE84" rx="2.4" ry="2.4" style="stroke:#038048;stroke-width:0.8000000000000002;"/><text fill="#000000" font-family="sans-serif" font-size="11.2" lengthAdjust="spacing" textLength="284.8" x="735.2" y="287.5468">findEntityByID(DeviceID deviceID): Optional&lt;Device&gt;</text></g><!--link Sensor to SensorFunctionalityID--><g id="link_Sensor_SensorFunctionalityID"><path codeLine="33" d="M262.8,445.7186 C262.8,464.0066 262.8,484.3906 262.8,500.0226 " fill="none" id="Sensor-SensorFunctionalityID" style="stroke:#181818;stroke-width:0.8000000000000002;"/></g><!--link Sensor to DeviceID--><g id="link_Sensor_DeviceID"><path codeLine="34" d="M391.736,445.7186 C391.736,464.0066 391.736,484.3906 391.736,500.0226 " fill="none" id="Sensor-DeviceID" style="stroke:#181818;stroke-width:0.8000000000000002;"/></g><!--link Sensor to SensorID--><g id="link_Sensor_SensorID"><path codeLine="35" d="M487.6,445.7186 C487.6,461.4786 487.6,478.7826 487.6,493.2706 " fill="none" id="Sensor-SensorID" style="stroke:#181818;stroke-width:0.8000000000000002;"/></g><!--link SensorControllerWeb to SensorID--><g id="link_SensorControllerWeb_SensorID"><path codeLine="66" d="M200.6,160.7186 C200.6,256.9986 200.6,497.4466 200.6,497.4466 C200.6,497.4466 357.592,497.4466 457.76,497.4466 " fill="none" id="SensorControllerWeb-to-SensorID" style="stroke:#181818;stroke-width:0.8000000000000002;stroke-dasharray:7.0,7.0;"/><polygon fill="#181818" points="462.56,497.4466,455.36,494.2466,458.56,497.4466,455.36,500.6466,462.56,497.4466" style="stroke:#181818;stroke-width:0.8000000000000002;"/><text fill="#000000" font-family="sans-serif" font-size="10.4" lengthAdjust="spacing" textLength="47.2" x="152.6" y="457.3173">&#171;creates&#187;</text></g><!--link SensorControllerWeb to SensorFunctionalityID--><g id="link_SensorControllerWeb_SensorFunctionalityID"><path codeLine="67" d="M178.704,160.6946 C178.704,242.7346 178.704,426.0546 178.704,495.0626 " fill="none" id="SensorControllerWeb-to-SensorFunctionalityID" style="stroke:#181818;stroke-width:0.8000000000000002;stroke-dasharray:7.0,7.0;"/><polygon fill="#181818" points="178.704,499.8626,181.904,492.6626,178.704,495.8626,175.504,492.6626,178.704,499.8626" style="stroke:#181818;stroke-width:0.8000000000000002;"/><text fill="#000000" font-family="sans-serif" font-size="10.4" lengthAdjust="spacing" textLength="47.2" x="130.704" y="327.5333">&#171;creates&#187;</text></g><!--link SensorControllerWeb to DeviceID--><g id="link_SensorControllerWeb_DeviceID"><path codeLine="68" d="M222.496,160.8786 C222.496,252.0706 222.496,470.2466 222.496,470.2466 C222.496,470.2466 355.464,470.2466 355.464,470.2466 C355.464,470.2466 355.464,480.4546 355.464,494.8786 " fill="none" id="SensorControllerWeb-to-DeviceID" style="stroke:#181818;stroke-width:0.8000000000000002;stroke-dasharray:7.0,7.0;"/><polygon fill="#181818" points="355.464,499.6786,358.664,492.4786,355.464,495.6786,352.264,492.4786,355.464,499.6786" style="stroke:#181818;stroke-width:0.8000000000000002;"/><text fill="#000000" font-family="sans-serif" font-size="10.4" lengthAdjust="spacing" textLength="47.2" x="174.496" y="394.0213">&#171;creates&#187;</text></g><!--link SensorControllerWeb to SensorDTO--><g id="link_SensorControllerWeb_SensorDTO"><path codeLine="69" d="M91.4,160.6226 C91.4,181.5346 91.4,202.4226 91.4,223.3506 " fill="none" id="SensorControllerWeb-to-SensorDTO" style="stroke:#181818;stroke-width:0.8000000000000002;stroke-dasharray:7.0,7.0;"/><polygon fill="#181818" points="91.4,228.1506,94.6,220.9506,91.4,224.1506,88.2,220.9506,91.4,228.1506" style="stroke:#181818;stroke-width:0.8000000000000002;"/><text fill="#000000" font-family="sans-serif" font-size="10.4" lengthAdjust="spacing" textLength="76" x="14.6" y="191.6373">&#171;uses/creates&#187;</text></g><!--link SensorControllerWeb to SensorService--><g id="link_SensorControllerWeb_SensorService"><path codeLine="70" d="M404.704,122.2466 C450.72,122.2466 499.888,122.2466 545.752,122.2466 " fill="none" id="SensorControllerWeb-SensorService" style="stroke:#181818;stroke-width:0.8000000000000002;"/></g><!--link SensorService to SensorRepository--><g id="link_SensorService_SensorRepository"><path codeLine="71" d="M918.232,167.8466 C1017.424,167.8466 1119.2,167.8466 1119.2,167.8466 C1119.2,167.8466 1119.2,205.7346 1119.2,234.7506 " fill="none" id="SensorService-SensorRepository" style="stroke:#181818;stroke-width:0.8000000000000002;"/></g><!--link SensorService to DeviceRepository--><g id="link_SensorService_DeviceRepository"><path codeLine="72" d="M818.6,180.6306 C818.6,201.7826 818.6,224.5426 818.6,241.4306 " fill="none" id="SensorService-DeviceRepository" style="stroke:#181818;stroke-width:0.8000000000000002;"/></g><!--link SensorService to FactorySensor--><g id="link_SensorService_FactorySensor"><path codeLine="73" d="M618.6,180.6306 C618.6,199.0226 618.6,218.6226 618.6,234.5266 " fill="none" id="SensorService-FactorySensor" style="stroke:#181818;stroke-width:0.8000000000000002;"/></g><!--link SensorService to SensorFunctionalityRepository--><g id="link_SensorService_SensorFunctionalityRepository"><path codeLine="74" d="M918.304,122.2466 C927.56,122.2466 936.736,122.2466 945.704,122.2466 " fill="none" id="SensorService-SensorFunctionalityRepository" style="stroke:#181818;stroke-width:0.8000000000000002;"/></g><!--link FactorySensor to Sensor--><g id="link_FactorySensor_Sensor"><path codeLine="75" d="M393,300.0866 C393,316.3426 393,331.4466 393,349.1906 " fill="none" id="FactorySensor-to-Sensor" style="stroke:#181818;stroke-width:0.8000000000000002;stroke-dasharray:7.0,7.0;"/><polygon fill="#181818" points="393,353.9906,396.2,346.7906,393,349.9906,389.8,346.7906,393,353.9906" style="stroke:#181818;stroke-width:0.8000000000000002;"/><text fill="#000000" font-family="sans-serif" font-size="10.4" lengthAdjust="spacing" textLength="47.2" x="345" y="324.2933">&#171;creates&#187;</text></g><!--SRC=[hLLDZzem4BtdLupKGuDAGEgbKeHGTydIhbGj5T3siXUJ3AoxmKvjiojKzRztY9qG9w6xXt9oF5_FRzuCXfiSuTlim-WzH72LPN27px12eQM2jOG4dtYAmTi7OmeTZyT5peGvxFDHAlVZD6TQHnbdEyNsWNxaec1qWfmBDCS2GIhp88EWOEaZso5eL4-euCqNldimdnGxmk-WpE4ApgGmIkOvgX-u8HlGBzAbQKMX12Hsdkwpz7ZtTR5Q0yioQrfBYpdykCHV1zJcMcP75vQi5s3ptOgj7CJt0fQe2oaqtWZ3pN6osFp4r4n1u7CTCeJFzFgLOUQWHxFbpTNw9Wd-11vqShDutzdyTsn_0ciK5pjxdvMeRXF_TdiGgU5Ii9ogDuoKdWk3QijIT2MMM4ZDZLH7c2WwJrt1b5XZN6ZxWclA0g6De1FF1Z5ifCoH2OUFFM7buCWOLBJsbPqt4Lx2i4CpEx5nUlRyr9vE966v5w7kCmoQhsORRHHB3JJPfM9Icgcd24fOmRvDhA6Yc0o9EpOZsdXYwCLfNyGpBFaC1uqgXCy1Yg8BmMTx3Q4TGbUUTWZAvFl2VrrNFqJngZQ57cSsMLNF9OkWGKVRjxz1LU15kdgpk5dqvtLEBJoffEROVZTT6bgAEn9lDjHpJ5fN5nlSa_w2tOsHGcRGEbw9R4LZ4jQKLbGEISJztFLoDZntk1Bju4oVuwII-DP-rcFTm1DsqWpXFs0hs-civVXUM0HjpltPttAHdNTFbpDAkYXiuOarJi-3vA_yqMXQCnR3P68vqDFf2zxpzXPzJMXIB-JN5w8rVt8_QDJZVyT4hNygVrPe5tGbttNfYBthueceRNz1zxu0pw_q6Q5c_GK0]--></g></svg>