<svg xmlns="http://www.w3.org/2000/svg" xmlns:xlink="http://www.w3.org/1999/xlink" contentStyleType="text/css" height="864px" preserveAspectRatio="none" style="width:1045px;height:864px;background:#FFFFFF;" version="1.1" viewBox="0 0 1045 864" width="1045px" zoomAndPan="magnify"><defs/><g><text fill="#000000" font-family="sans-serif" font-size="14" font-weight="bold" lengthAdjust="spacing" textLength="201" x="415" y="22.9951">UC08 Deactivate a device</text><!--cluster server--><g id="cluster_server"><path d="M8.5,43.2969 L61.5,43.2969 A3.75,3.75 0 0 1 64,45.7969 L71,65.5938 L1035.5,65.5938 A2.5,2.5 0 0 1 1038,68.0938 L1038,854.9169 A2.5,2.5 0 0 1 1035.5,857.4169 L8.5,857.4169 A2.5,2.5 0 0 1 6,854.9169 L6,45.7969 A2.5,2.5 0 0 1 8.5,43.2969 " fill="#D3D3D3" style="stroke:#000000;stroke-width:1.5;"/><line style="stroke:#000000;stroke-width:1.5;" x1="6" x2="71" y1="65.5938" y2="65.5938"/><text fill="#000000" font-family="sans-serif" font-size="14" font-weight="bold" lengthAdjust="spacing" textLength="52" x="10" y="58.292">server</text></g><!--class DeviceControllerWeb--><g id="elem_DeviceControllerWeb"><rect codeLine="6" fill="#F1F1F1" height="259.8594" id="DeviceControllerWeb" rx="2.5" ry="2.5" style="stroke:#181818;stroke-width:0.5;" width="847" x="48.5" y="78.2969"/><ellipse cx="395.25" cy="94.2969" fill="#ADD1B2" rx="11" ry="11" style="stroke:#181818;stroke-width:1.0;"/><path d="M398.2188,99.9375 Q397.6406,100.2344 397,100.375 Q396.3594,100.5313 395.6563,100.5313 Q393.1563,100.5313 391.8281,98.8906 Q390.5156,97.2344 390.5156,94.1094 Q390.5156,90.9844 391.8281,89.3281 Q393.1563,87.6719 395.6563,87.6719 Q396.3594,87.6719 397,87.8281 Q397.6563,87.9844 398.2188,88.2813 L398.2188,91 Q397.5938,90.4219 397,90.1563 Q396.4063,89.875 395.7813,89.875 Q394.4375,89.875 393.75,90.9531 Q393.0625,92.0156 393.0625,94.1094 Q393.0625,96.2031 393.75,97.2813 Q394.4375,98.3438 395.7813,98.3438 Q396.4063,98.3438 397,98.0781 Q397.5938,97.7969 398.2188,97.2188 L398.2188,99.9375 Z " fill="#000000"/><text fill="#000000" font-family="sans-serif" font-size="14" lengthAdjust="spacing" textLength="145" x="415.75" y="99.1436">DeviceControllerWeb</text><line style="stroke:#181818;stroke-width:0.5;" x1="49.5" x2="894.5" y1="110.2969" y2="110.2969"/><rect fill="none" height="6" style="stroke:#C82930;stroke-width:1.0;" width="6" x="56.5" y="120.9453"/><text fill="#000000" font-family="sans-serif" font-size="14" lengthAdjust="spacing" textLength="201" x="68.5" y="127.292">deviceService: DeviceService</text><rect fill="none" height="6" style="stroke:#C82930;stroke-width:1.0;" width="6" x="56.5" y="137.2422"/><text fill="#000000" font-family="sans-serif" font-size="14" lengthAdjust="spacing" textLength="326" x="68.5" y="143.5889">closeBlindRollerSevice: CloseBlindRollerService</text><rect fill="none" height="6" style="stroke:#C82930;stroke-width:1.0;" width="6" x="56.5" y="153.5391"/><text fill="#000000" font-family="sans-serif" font-size="14" lengthAdjust="spacing" textLength="206" x="68.5" y="159.8857">sensorService: SensorService</text><rect fill="none" height="6" style="stroke:#C82930;stroke-width:1.0;" width="6" x="56.5" y="169.8359"/><text fill="#000000" font-family="sans-serif" font-size="14" lengthAdjust="spacing" textLength="272" x="68.5" y="176.1826">sensorMapperDTO: SensorMapperDTO</text><rect fill="none" height="6" style="stroke:#C82930;stroke-width:1.0;" width="6" x="56.5" y="186.1328"/><text fill="#000000" font-family="sans-serif" font-size="14" lengthAdjust="spacing" textLength="224" x="68.5" y="192.4795">actuatorService: ActuatorService</text><rect fill="none" height="6" style="stroke:#C82930;stroke-width:1.0;" width="6" x="56.5" y="202.4297"/><text fill="#000000" font-family="sans-serif" font-size="14" lengthAdjust="spacing" textLength="290" x="68.5" y="208.7764">actuatorMapperDTO: ActuatorMapperDTO</text><rect fill="none" height="6" style="stroke:#C82930;stroke-width:1.0;" width="6" x="56.5" y="218.7266"/><text fill="#000000" font-family="sans-serif" font-size="14" lengthAdjust="spacing" textLength="183" x="68.5" y="225.0732">valueService: ValueService</text><rect fill="none" height="6" style="stroke:#C82930;stroke-width:1.0;" width="6" x="56.5" y="235.0234"/><text fill="#000000" font-family="sans-serif" font-size="14" lengthAdjust="spacing" textLength="415" x="68.5" y="241.3701">mapperSensorFunctionality: SensorFunctionalityMapperDTO</text><rect fill="none" height="6" style="stroke:#C82930;stroke-width:1.0;" width="6" x="56.5" y="251.3203"/><text fill="#000000" font-family="sans-serif" font-size="14" lengthAdjust="spacing" textLength="259" x="68.5" y="257.667">mapperReading: ReadingMapperDTO</text><line style="stroke:#181818;stroke-width:0.5;" x1="49.5" x2="894.5" y1="264.9688" y2="264.9688"/><ellipse cx="59.5" cy="286.7656" fill="#84BE84" rx="3" ry="3" style="stroke:#038048;stroke-width:1.0;"/><text fill="#000000" font-family="sans-serif" font-size="14" lengthAdjust="spacing" textLength="821" x="68.5" y="281.9639">PATCH editDevice(@PathVariable("id") String deviceName, @RequestParam(required = false) Integer closePercentage):</text><text fill="#000000" font-family="sans-serif" font-size="14" lengthAdjust="spacing" textLength="329" x="72.5" y="298.2607">ResponseEntity&lt;Object&gt; response, HttpStatus</text><rect fill="#F24D5C" height="6" style="stroke:#C82930;stroke-width:1.0;" width="6" x="56.5" y="316.3594"/><text fill="#000000" font-family="sans-serif" font-size="14" lengthAdjust="spacing" textLength="262" x="68.5" y="314.5576">deactivateDevice(String deviceName):</text><text fill="#000000" font-family="sans-serif" font-size="14" lengthAdjust="spacing" textLength="248" x="72.5" y="330.8545">ResponseEntity&lt;Object&gt; response</text></g><!--class DeviceID--><g id="elem_DeviceID"><rect codeLine="20" fill="#F1F1F1" height="80.5938" id="DeviceID" rx="2.5" ry="2.5" style="stroke:#181818;stroke-width:0.5;" width="195" x="400.5" y="422.5969"/><ellipse cx="452.75" cy="438.5969" fill="#ADD1B2" rx="11" ry="11" style="stroke:#181818;stroke-width:1.0;"/><path d="M455.7188,444.2375 Q455.1406,444.5344 454.5,444.675 Q453.8594,444.8313 453.1563,444.8313 Q450.6563,444.8313 449.3281,443.1906 Q448.0156,441.5344 448.0156,438.4094 Q448.0156,435.2844 449.3281,433.6281 Q450.6563,431.9719 453.1563,431.9719 Q453.8594,431.9719 454.5,432.1281 Q455.1563,432.2844 455.7188,432.5813 L455.7188,435.3 Q455.0938,434.7219 454.5,434.4563 Q453.9063,434.175 453.2813,434.175 Q451.9375,434.175 451.25,435.2531 Q450.5625,436.3156 450.5625,438.4094 Q450.5625,440.5031 451.25,441.5813 Q451.9375,442.6438 453.2813,442.6438 Q453.9063,442.6438 454.5,442.3781 Q455.0938,442.0969 455.7188,441.5188 L455.7188,444.2375 Z " fill="#000000"/><text fill="#000000" font-family="sans-serif" font-size="14" lengthAdjust="spacing" textLength="61" x="473.25" y="443.4436">DeviceID</text><rect fill="#FFFFFF" height="15.9688" style="stroke:#181818;stroke-width:1.0;stroke-dasharray:2.0,2.0;" width="19" x="579.5" y="419.5969"/><text fill="#000000" font-family="sans-serif" font-size="12" font-style="italic" lengthAdjust="spacing" textLength="17" x="580.5" y="431.7355">VO</text><line style="stroke:#181818;stroke-width:0.5;" x1="401.5" x2="594.5" y1="454.5969" y2="454.5969"/><rect fill="none" height="6" style="stroke:#C82930;stroke-width:1.0;" width="6" x="408.5" y="465.2453"/><text fill="#000000" font-family="sans-serif" font-size="14" lengthAdjust="spacing" textLength="134" x="420.5" y="471.592">deviceName: String</text><line style="stroke:#181818;stroke-width:0.5;" x1="401.5" x2="594.5" y1="478.8938" y2="478.8938"/><ellipse cx="411.5" cy="492.5422" fill="#84BE84" rx="3" ry="3" style="stroke:#038048;stroke-width:1.0;"/><text fill="#000000" font-family="sans-serif" font-size="14" lengthAdjust="spacing" textLength="169" x="420.5" y="495.8889">getDeviceName(): String</text></g><!--class DeviceRepository--><g id="elem_DeviceRepository"><rect codeLine="25" fill="#F1F1F1" height="64.2969" id="DeviceRepository" rx="2.5" ry="2.5" style="stroke:#181818;stroke-width:0.5;" width="237" x="522.5" y="603.9369"/><ellipse cx="576.25" cy="619.9369" fill="#B4A7E5" rx="11" ry="11" style="stroke:#181818;stroke-width:1.0;"/><path d="M572.1719,615.7025 L572.1719,613.5463 L579.5625,613.5463 L579.5625,615.7025 L577.0938,615.7025 L577.0938,623.7806 L579.5625,623.7806 L579.5625,625.9369 L572.1719,625.9369 L572.1719,623.7806 L574.6406,623.7806 L574.6406,615.7025 L572.1719,615.7025 Z " fill="#000000"/><text fill="#000000" font-family="sans-serif" font-size="14" font-style="italic" lengthAdjust="spacing" textLength="121" x="596.75" y="624.7836">DeviceRepository</text><line style="stroke:#181818;stroke-width:0.5;" x1="523.5" x2="758.5" y1="635.9369" y2="635.9369"/><line style="stroke:#181818;stroke-width:0.5;" x1="523.5" x2="758.5" y1="643.9369" y2="643.9369"/><ellipse cx="533.5" cy="657.5853" fill="#84BE84" rx="3" ry="3" style="stroke:#038048;stroke-width:1.0;"/><text fill="#000000" font-family="sans-serif" font-size="14" lengthAdjust="spacing" textLength="211" x="542.5" y="660.932">update(Device device): Device</text></g><!--class Repository--><g id="elem_Repository"><rect codeLine="29" fill="#F1F1F1" height="64.2969" id="Repository" rx="2.5" ry="2.5" style="stroke:#181818;stroke-width:0.5;" width="391" x="630.5" y="430.7469"/><ellipse cx="784.75" cy="446.7469" fill="#B4A7E5" rx="11" ry="11" style="stroke:#181818;stroke-width:1.0;"/><path d="M780.6719,442.5125 L780.6719,440.3563 L788.0625,440.3563 L788.0625,442.5125 L785.5938,442.5125 L785.5938,450.5906 L788.0625,450.5906 L788.0625,452.7469 L780.6719,452.7469 L780.6719,450.5906 L783.1406,450.5906 L783.1406,442.5125 L780.6719,442.5125 Z " fill="#000000"/><text fill="#000000" font-family="sans-serif" font-size="14" font-style="italic" lengthAdjust="spacing" textLength="74" x="805.25" y="451.5936">Repository</text><line style="stroke:#181818;stroke-width:0.5;" x1="631.5" x2="1020.5" y1="462.7469" y2="462.7469"/><line style="stroke:#181818;stroke-width:0.5;" x1="631.5" x2="1020.5" y1="470.7469" y2="470.7469"/><ellipse cx="641.5" cy="484.3953" fill="#84BE84" rx="3" ry="3" style="stroke:#038048;stroke-width:1.0;"/><text fill="#000000" font-family="sans-serif" font-size="14" lengthAdjust="spacing" textLength="365" x="650.5" y="487.742">findEntityByID(DeviceID deviceID): Optional&lt;Device&gt;</text></g><!--class Device--><g id="elem_Device"><rect codeLine="33" fill="#F1F1F1" height="96.8906" id="Device" rx="2.5" ry="2.5" style="stroke:#181818;stroke-width:0.5;" width="219" x="84.5" y="587.6369"/><ellipse cx="149.75" cy="603.6369" fill="#ADD1B2" rx="11" ry="11" style="stroke:#181818;stroke-width:1.0;"/><path d="M152.7188,609.2775 Q152.1406,609.5744 151.5,609.715 Q150.8594,609.8713 150.1563,609.8713 Q147.6563,609.8713 146.3281,608.2306 Q145.0156,606.5744 145.0156,603.4494 Q145.0156,600.3244 146.3281,598.6681 Q147.6563,597.0119 150.1563,597.0119 Q150.8594,597.0119 151.5,597.1681 Q152.1563,597.3244 152.7188,597.6213 L152.7188,600.34 Q152.0938,599.7619 151.5,599.4963 Q150.9063,599.215 150.2813,599.215 Q148.9375,599.215 148.25,600.2931 Q147.5625,601.3556 147.5625,603.4494 Q147.5625,605.5431 148.25,606.6213 Q148.9375,607.6838 150.2813,607.6838 Q150.9063,607.6838 151.5,607.4181 Q152.0938,607.1369 152.7188,606.5588 L152.7188,609.2775 Z " fill="#000000"/><text fill="#000000" font-family="sans-serif" font-size="14" lengthAdjust="spacing" textLength="47" x="170.25" y="608.4836">Device</text><rect fill="#FFFFFF" height="15.9688" style="stroke:#181818;stroke-width:1.0;stroke-dasharray:2.0,2.0;" width="31" x="275.5" y="584.6369"/><text fill="#000000" font-family="sans-serif" font-size="12" font-style="italic" lengthAdjust="spacing" textLength="29" x="276.5" y="596.7755">Root</text><line style="stroke:#181818;stroke-width:0.5;" x1="85.5" x2="302.5" y1="619.6369" y2="619.6369"/><rect fill="none" height="6" style="stroke:#C82930;stroke-width:1.0;" width="6" x="92.5" y="630.2853"/><text fill="#000000" font-family="sans-serif" font-size="14" lengthAdjust="spacing" textLength="129" x="104.5" y="636.632">deviceID: DeviceID</text><rect fill="none" height="6" style="stroke:#C82930;stroke-width:1.0;" width="6" x="92.5" y="646.5822"/><text fill="#000000" font-family="sans-serif" font-size="14" lengthAdjust="spacing" textLength="189" x="104.5" y="652.9289">deviceStatus: DeviceStatus</text><line style="stroke:#181818;stroke-width:0.5;" x1="85.5" x2="302.5" y1="660.2306" y2="660.2306"/><ellipse cx="95.5" cy="673.8791" fill="#84BE84" rx="3" ry="3" style="stroke:#038048;stroke-width:1.0;"/><text fill="#000000" font-family="sans-serif" font-size="14" lengthAdjust="spacing" textLength="193" x="104.5" y="677.2257">deactivateDevice(): boolean</text></g><!--class DeviceStatus--><g id="elem_DeviceStatus"><rect codeLine="39" fill="#F1F1F1" height="96.8906" id="DeviceStatus" rx="2.5" ry="2.5" style="stroke:#181818;stroke-width:0.5;" width="242" x="73" y="744.5269"/><ellipse cx="133.75" cy="760.5269" fill="#EB937F" rx="11" ry="11" style="stroke:#181818;stroke-width:1.0;"/><path d="M137.8594,766.5269 L130.1406,766.5269 L130.1406,754.1363 L137.8594,754.1363 L137.8594,756.2925 L132.5938,756.2925 L132.5938,758.9644 L137.3594,758.9644 L137.3594,761.1206 L132.5938,761.1206 L132.5938,764.3706 L137.8594,764.3706 L137.8594,766.5269 Z " fill="#000000"/><text fill="#000000" font-family="sans-serif" font-size="14" lengthAdjust="spacing" textLength="91" x="154.25" y="765.3736">DeviceStatus</text><rect fill="#FFFFFF" height="15.9688" style="stroke:#181818;stroke-width:1.0;stroke-dasharray:2.0,2.0;" width="19" x="299" y="741.5269"/><text fill="#000000" font-family="sans-serif" font-size="12" font-style="italic" lengthAdjust="spacing" textLength="17" x="300" y="753.6655">VO</text><line style="stroke:#181818;stroke-width:0.5;" x1="74" x2="314" y1="776.5269" y2="776.5269"/><rect fill="none" height="6" style="stroke:#C82930;stroke-width:1.0;" width="6" x="81" y="787.1753"/><text fill="#000000" font-family="sans-serif" font-size="14" lengthAdjust="spacing" textLength="108" x="93" y="793.522">status: boolean</text><line style="stroke:#181818;stroke-width:0.5;" x1="74" x2="314" y1="800.8238" y2="800.8238"/><ellipse cx="84" cy="814.4722" fill="#84BE84" rx="3" ry="3" style="stroke:#038048;stroke-width:1.0;"/><text fill="#000000" font-family="sans-serif" font-size="14" lengthAdjust="spacing" textLength="142" x="93" y="817.8189">getStatus(): boolean</text><ellipse cx="84" cy="830.7691" fill="#84BE84" rx="3" ry="3" style="stroke:#038048;stroke-width:1.0;"/><text fill="#000000" font-family="sans-serif" font-size="14" lengthAdjust="spacing" textLength="216" x="93" y="834.1157">setStatus(boolean status): void</text></g><!--class DeviceService--><g id="elem_DeviceService"><rect codeLine="45" fill="#F1F1F1" height="129.4844" id="DeviceService" rx="2.5" ry="2.5" style="stroke:#181818;stroke-width:0.5;" width="343" x="22.5" y="398.1469"/><ellipse cx="141.25" cy="414.1469" fill="#ADD1B2" rx="11" ry="11" style="stroke:#181818;stroke-width:1.0;"/><path d="M144.2188,419.7875 Q143.6406,420.0844 143,420.225 Q142.3594,420.3813 141.6563,420.3813 Q139.1563,420.3813 137.8281,418.7406 Q136.5156,417.0844 136.5156,413.9594 Q136.5156,410.8344 137.8281,409.1781 Q139.1563,407.5219 141.6563,407.5219 Q142.3594,407.5219 143,407.6781 Q143.6563,407.8344 144.2188,408.1313 L144.2188,410.85 Q143.5938,410.2719 143,410.0063 Q142.4063,409.725 141.7813,409.725 Q140.4375,409.725 139.75,410.8031 Q139.0625,411.8656 139.0625,413.9594 Q139.0625,416.0531 139.75,417.1313 Q140.4375,418.1938 141.7813,418.1938 Q142.4063,418.1938 143,417.9281 Q143.5938,417.6469 144.2188,417.0688 L144.2188,419.7875 Z " fill="#000000"/><text fill="#000000" font-family="sans-serif" font-size="14" lengthAdjust="spacing" textLength="97" x="161.75" y="418.9936">DeviceService</text><line style="stroke:#181818;stroke-width:0.5;" x1="23.5" x2="364.5" y1="430.1469" y2="430.1469"/><rect fill="none" height="6" style="stroke:#C82930;stroke-width:1.0;" width="6" x="30.5" y="440.7953"/><text fill="#000000" font-family="sans-serif" font-size="14" lengthAdjust="spacing" textLength="199" x="42.5" y="447.142">factoryDevice: FactoryDevice</text><rect fill="none" height="6" style="stroke:#C82930;stroke-width:1.0;" width="6" x="30.5" y="457.0922"/><text fill="#000000" font-family="sans-serif" font-size="14" lengthAdjust="spacing" textLength="249" x="42.5" y="463.4389">deviceRepository: DeviceRepository</text><rect fill="none" height="6" style="stroke:#C82930;stroke-width:1.0;" width="6" x="30.5" y="473.3891"/><text fill="#000000" font-family="sans-serif" font-size="14" lengthAdjust="spacing" textLength="234" x="42.5" y="479.7357">roomRepository: RoomRepository</text><rect fill="none" height="6" style="stroke:#C82930;stroke-width:1.0;" width="6" x="30.5" y="489.6859"/><text fill="#000000" font-family="sans-serif" font-size="14" lengthAdjust="spacing" textLength="246" x="42.5" y="496.0326">houseRepository: HouseRepository</text><line style="stroke:#181818;stroke-width:0.5;" x1="23.5" x2="364.5" y1="503.3344" y2="503.3344"/><ellipse cx="33.5" cy="516.9828" fill="#84BE84" rx="3" ry="3" style="stroke:#038048;stroke-width:1.0;"/><text fill="#000000" font-family="sans-serif" font-size="14" lengthAdjust="spacing" textLength="317" x="42.5" y="520.3295">deactivateDevice(DeviceID deviceID): boolean</text></g><!--reverse link Repository to DeviceRepository--><g id="link_Repository_DeviceRepository"><path d="M695,513.4669 C695,544.4369 695,572.7369 695,603.6469 " fill="none" id="Repository-backto-DeviceRepository" style="stroke:#181818;stroke-width:1.0;"/><polygon fill="none" points="695,495.4669,689,513.4669,701,513.4669,695,495.4669" style="stroke:#181818;stroke-width:1.0;"/></g><!--link DeviceControllerWeb to DeviceID--><g id="link_DeviceControllerWeb_DeviceID"><path codeLine="53" d="M498,338.5369 C498,369.0169 498,393.2569 498,416.2869 " fill="none" id="DeviceControllerWeb-to-DeviceID" style="stroke:#181818;stroke-width:1.0;stroke-dasharray:7.0,7.0;"/><polygon fill="#181818" points="498,422.2869,502,413.2869,498,417.2869,494,413.2869,498,422.2869" style="stroke:#181818;stroke-width:1.0;"/><text fill="#000000" font-family="sans-serif" font-size="13" lengthAdjust="spacing" textLength="64" x="433" y="376.4838">&#171;creates&#187;</text></g><!--link DeviceControllerWeb to DeviceService--><g id="link_DeviceControllerWeb_DeviceService"><path codeLine="54" d="M207,338.5369 C207,359.0969 207,379.5569 207,397.7669 " fill="none" id="DeviceControllerWeb-DeviceService" style="stroke:#181818;stroke-width:1.0;"/></g><!--link DeviceService to DeviceRepository--><g id="link_DeviceService_DeviceRepository"><path codeLine="55" d="M365.81,515.4169 C460.48,515.4169 559,515.4169 559,515.4169 C559,515.4169 559,568.0069 559,603.7469 " fill="none" id="DeviceService-DeviceRepository" style="stroke:#181818;stroke-width:1.0;"/></g><!--link DeviceService to Device--><g id="link_DeviceService_Device"><path codeLine="56" d="M194,527.8769 C194,547.5469 194,562.8169 194,581.2469 " fill="none" id="DeviceService-to-Device" style="stroke:#181818;stroke-width:1.0;stroke-dasharray:7.0,7.0;"/><polygon fill="#181818" points="194,587.2469,198,578.2469,194,582.2469,190,578.2469,194,587.2469" style="stroke:#181818;stroke-width:1.0;"/><text fill="#000000" font-family="sans-serif" font-size="13" lengthAdjust="spacing" textLength="46" x="147" y="553.6238">&#171;uses&#187;</text></g><!--link Device to DeviceStatus--><g id="link_Device_DeviceStatus"><path codeLine="57" d="M194,684.8669 C194,703.7569 194,719.3369 194,738.2169 " fill="none" id="Device-to-DeviceStatus" style="stroke:#181818;stroke-width:1.0;"/><polygon fill="#181818" points="194,744.2169,198,735.2169,194,739.2169,190,735.2169,194,744.2169" style="stroke:#181818;stroke-width:1.0;"/><text fill="#000000" font-family="sans-serif" font-size="13" lengthAdjust="spacing" textLength="39" x="154" y="710.6038">&#171;has&#187;</text></g><!--SRC=[ZLJ1Zjem4BtdAqRR2sYNLOzLHADbIRSWjGN1bbvwCSa0xWOxjHrKLEs_xmGxYGrKAXSoCs_U-CsCRRWf4BwFtt-055bc-84P10Ov7dY6aNxXecIAxQ7W0isnH93Ax6GKbInxOLi4ZUg02jvzuTkT-QpO4Vv6KLOmhOcmvXXBOPGi2bG_S4r1eD_0qYyfb_vYXtIcHMI5rFX8LVF5ANc95Zg-y7j96eMMggLT-gQF-ChA4bNwF6imhSEYg14LCnxJA7I4A8zjTEwoo0ChgaxjohDiV7-2swCyLOB680Khk3asvmkSP-GsUO4ivs8RW_i8GRVpqVDu0fXpOtlTUvWpirinnTcwmDuDps_wi3IACjtilx4zti730dzNgCsyNeAU8eChpE4ZR5YXiGzJON1Byp-DQuugGs5eBVhnJq4dqQKK6Zy9GwSUpjQ_C3C9AEU-WuanvT8mK-bcAveDT8UyED3_y4QluG9EKnYkPacmUJLNxFJQ1ctHTQOEzVfjaCWuQLGRbg4ZN60fDQSf7m7_61IvXivboznMPKuoUZR12UWtYnwIUdGkUKFRRSKz7gTfhvMHkmyYcfLs7OOsc9oBXk52IXEAdgPnsvBW6fv6qDx2RY2t5mEXocif2sIYBeYYsWTPVgErOstmJPSjqcSwHNGRSMwm18GxI9wVwtFNftbFg95r0rFtI3pvfY-rwtLyCKoBKrBkVTGYi2rc9oiTK4r2np-QTssENZUlFPVtzqaxiXY6mqmXyUaakOeU3CvUqh1N5BuK7KAwUdKr4jMLelGa67QDsB4QyFe6]--></g></svg>