<?xml version="1.0" encoding="us-ascii" standalone="no"?><svg xmlns="http://www.w3.org/2000/svg" xmlns:xlink="http://www.w3.org/1999/xlink" contentStyleType="text/css" height="844px" preserveAspectRatio="none" style="width:1878px;height:844px;background:#FFFFFF;" version="1.1" viewBox="0 0 1878 844" width="1878px" zoomAndPan="magnify"><defs/><g><text fill="#000000" font-family="sans-serif" font-size="14" font-weight="bold" lengthAdjust="spacing" textLength="768" x="548" y="25.1074">UC09: Get list of all devices in a house, grouped by device functionality types. It must include device location.</text><!--cluster server--><g id="cluster_server"><path d="M8.5,45.6348 L56.5,45.6348 A3.75,3.75 0 0 1 59,48.1348 L66,70.2559 L1868.5,70.2559 A2.5,2.5 0 0 1 1871,72.7559 L1871,835.1348 A2.5,2.5 0 0 1 1868.5,837.6348 L8.5,837.6348 A2.5,2.5 0 0 1 6,835.1348 L6,48.1348 A2.5,2.5 0 0 1 8.5,45.6348 " fill="#D3D3D3" style="stroke:#000000;stroke-width:1.5;"/><line style="stroke:#000000;stroke-width:1.5;" x1="6" x2="66" y1="70.2559" y2="70.2559"/><text fill="#000000" font-family="sans-serif" font-size="14" font-weight="bold" lengthAdjust="spacing" textLength="47" x="10" y="62.7422">server</text></g><!--class HouseControllerWeb--><g id="elem_HouseControllerWeb"><rect codeLine="5" fill="#F1F1F1" height="85.2422" id="HouseControllerWeb" rx="2.5" ry="2.5" style="stroke:#181818;stroke-width:0.5;" width="591" x="673.5" y="82.6348"/><ellipse cx="899.25" cy="98.6348" fill="#ADD1B2" rx="11" ry="11" style="stroke:#181818;stroke-width:1.0;"/><path d="M902.0156,94.5098 Q902.1719,94.291 902.3594,94.1816 Q902.5469,94.0723 902.7656,94.0723 Q903.1406,94.0723 903.375,94.3379 Q903.6094,94.5879 903.6094,95.1973 L903.6094,96.6504 Q903.6094,97.2598 903.375,97.5254 Q903.1406,97.791 902.7656,97.791 Q902.4219,97.791 902.2188,97.5879 Q902.0156,97.4004 901.9063,96.8848 Q901.8594,96.5254 901.6719,96.3379 Q901.3438,95.9629 900.7344,95.7441 Q900.125,95.5254 899.5,95.5254 Q898.7344,95.5254 898.0938,95.8535 Q897.4688,96.1816 896.9688,96.9316 Q896.4844,97.6816 896.4844,98.7129 L896.4844,99.8066 Q896.4844,101.041 897.375,101.8691 Q898.2656,102.6816 899.8594,102.6816 Q900.7969,102.6816 901.4531,102.4316 Q901.8438,102.2754 902.2656,101.8379 Q902.5313,101.5723 902.6719,101.4941 Q902.8281,101.416 903.0313,101.416 Q903.3594,101.416 903.6094,101.6816 Q903.875,101.9316 903.875,102.2754 Q903.875,102.6191 903.5313,103.0254 Q903.0313,103.6035 902.2344,103.9316 Q901.1563,104.3848 899.8594,104.3848 Q898.3438,104.3848 897.1406,103.7598 Q896.1563,103.2598 895.4688,102.1973 Q894.7813,101.1191 894.7813,99.8379 L894.7813,98.6816 Q894.7813,97.3535 895.3906,96.2129 Q896.0156,95.0566 897.1094,94.4473 Q898.2031,93.8223 899.4375,93.8223 Q900.1719,93.8223 900.8125,93.9941 Q901.4688,94.1504 902.0156,94.5098 Z " fill="#000000"/><text fill="#000000" font-family="sans-serif" font-size="14" lengthAdjust="spacing" textLength="131" x="919.75" y="104.4316">HouseControllerWeb</text><line style="stroke:#181818;stroke-width:0.5;" x1="674.5" x2="1263.5" y1="114.6348" y2="114.6348"/><rect fill="none" height="6" style="stroke:#C82930;stroke-width:1.0;" width="6" x="681.5" y="126.4453"/><text fill="#000000" font-family="sans-serif" font-size="14" lengthAdjust="spacing" textLength="565" x="693.5" y="133.7422">listAllDevicesInHouseByFunctionalityService: ListAllDevicesInHouseByFunctionalityService</text><line style="stroke:#181818;stroke-width:0.5;" x1="674.5" x2="1263.5" y1="141.2559" y2="141.2559"/><ellipse cx="684.5" cy="156.0664" fill="#84BE84" rx="3" ry="3" style="stroke:#038048;stroke-width:1.0;"/><text fill="#000000" font-family="sans-serif" font-size="14" lengthAdjust="spacing" textLength="508" x="693.5" y="160.3633">getListOfDevicesByFunctionality(): Map&lt;Object,  Map&lt;RoomDTO, DeviceDTO&gt;&gt;</text></g><!--class ListAllDevicesInHouseByFunctionalityService--><g id="elem_ListAllDevicesInHouseByFunctionalityService"><rect codeLine="16" fill="#F1F1F1" height="159.7266" id="ListAllDevicesInHouseByFunctionalityService" rx="2.5" ry="2.5" style="stroke:#181818;stroke-width:0.5;" width="609" x="22.5" y="227.6348"/><ellipse cx="182.25" cy="243.6348" fill="#ADD1B2" rx="11" ry="11" style="stroke:#181818;stroke-width:1.0;"/><path d="M185.0156,239.5098 Q185.1719,239.291 185.3594,239.1816 Q185.5469,239.0723 185.7656,239.0723 Q186.1406,239.0723 186.375,239.3379 Q186.6094,239.5879 186.6094,240.1973 L186.6094,241.6504 Q186.6094,242.2598 186.375,242.5254 Q186.1406,242.791 185.7656,242.791 Q185.4219,242.791 185.2188,242.5879 Q185.0156,242.4004 184.9063,241.8848 Q184.8594,241.5254 184.6719,241.3379 Q184.3438,240.9629 183.7344,240.7441 Q183.125,240.5254 182.5,240.5254 Q181.7344,240.5254 181.0938,240.8535 Q180.4688,241.1816 179.9688,241.9316 Q179.4844,242.6816 179.4844,243.7129 L179.4844,244.8066 Q179.4844,246.041 180.375,246.8691 Q181.2656,247.6816 182.8594,247.6816 Q183.7969,247.6816 184.4531,247.4316 Q184.8438,247.2754 185.2656,246.8379 Q185.5313,246.5723 185.6719,246.4941 Q185.8281,246.416 186.0313,246.416 Q186.3594,246.416 186.6094,246.6816 Q186.875,246.9316 186.875,247.2754 Q186.875,247.6191 186.5313,248.0254 Q186.0313,248.6035 185.2344,248.9316 Q184.1563,249.3848 182.8594,249.3848 Q181.3438,249.3848 180.1406,248.7598 Q179.1563,248.2598 178.4688,247.1973 Q177.7813,246.1191 177.7813,244.8379 L177.7813,243.6816 Q177.7813,242.3535 178.3906,241.2129 Q179.0156,240.0566 180.1094,239.4473 Q181.2031,238.8223 182.4375,238.8223 Q183.1719,238.8223 183.8125,238.9941 Q184.4688,239.1504 185.0156,239.5098 Z " fill="#000000"/><text fill="#000000" font-family="sans-serif" font-size="14" lengthAdjust="spacing" textLength="281" x="202.75" y="249.4316">ListAllDevicesInHouseByFunctionalityService</text><line style="stroke:#181818;stroke-width:0.5;" x1="23.5" x2="630.5" y1="259.6348" y2="259.6348"/><rect fill="none" height="6" style="stroke:#C82930;stroke-width:1.0;" width="6" x="30.5" y="271.4453"/><text fill="#000000" font-family="sans-serif" font-size="14" lengthAdjust="spacing" textLength="228" x="42.5" y="278.7422">deviceRepository: DeviceRepository</text><rect fill="none" height="6" style="stroke:#C82930;stroke-width:1.0;" width="6" x="30.5" y="290.0664"/><text fill="#000000" font-family="sans-serif" font-size="14" lengthAdjust="spacing" textLength="249" x="42.5" y="297.3633">actuatorRepository: ActuatorRepository</text><rect fill="none" height="6" style="stroke:#C82930;stroke-width:1.0;" width="6" x="30.5" y="308.6875"/><text fill="#000000" font-family="sans-serif" font-size="14" lengthAdjust="spacing" textLength="232" x="42.5" y="315.9844">sensorRepository: SensorRepository</text><line style="stroke:#181818;stroke-width:0.5;" x1="23.5" x2="630.5" y1="323.498" y2="323.498"/><ellipse cx="33.5" cy="338.3086" fill="#84BE84" rx="3" ry="3" style="stroke:#038048;stroke-width:1.0;"/><text fill="#000000" font-family="sans-serif" font-size="14" lengthAdjust="spacing" textLength="583" x="42.5" y="342.6055">devicesGroupedByFunctionalityAndLocation(): Map&lt;Object, Map&lt;RoomID, Set&lt;DeviceID&gt;&gt;&gt;</text><rect fill="#F24D5C" height="6" style="stroke:#C82930;stroke-width:1.0;" width="6" x="30.5" y="353.9297"/><text fill="#000000" font-family="sans-serif" font-size="14" lengthAdjust="spacing" textLength="551" x="42.5" y="361.2266">sensorFunctionalityMap(): Map&lt;SensorFunctionalityID, Map&lt;RoomID, Set&lt;DeviceID&gt;&gt;&gt;</text><rect fill="#F24D5C" height="6" style="stroke:#C82930;stroke-width:1.0;" width="6" x="30.5" y="372.5508"/><text fill="#000000" font-family="sans-serif" font-size="14" lengthAdjust="spacing" textLength="568" x="42.5" y="379.8477">actuatorFunctionalityMap(): Map&lt;ActuatorFunctionalityID, Map&lt;RoomID, Set&lt;DeviceID&gt;&gt;&gt;</text></g><!--class RoomMapper--><g id="elem_RoomMapper"><rect codeLine="76" fill="#F1F1F1" height="85.2422" id="RoomMapper" rx="2.5" ry="2.5" style="stroke:#181818;stroke-width:0.5;" width="173" x="666.5" y="265.1348"/><ellipse cx="706.7" cy="281.1348" fill="#ADD1B2" rx="11" ry="11" style="stroke:#181818;stroke-width:1.0;"/><path d="M709.4656,277.0098 Q709.6219,276.791 709.8094,276.6816 Q709.9969,276.5723 710.2156,276.5723 Q710.5906,276.5723 710.825,276.8379 Q711.0594,277.0879 711.0594,277.6973 L711.0594,279.1504 Q711.0594,279.7598 710.825,280.0254 Q710.5906,280.291 710.2156,280.291 Q709.8719,280.291 709.6688,280.0879 Q709.4656,279.9004 709.3563,279.3848 Q709.3094,279.0254 709.1219,278.8379 Q708.7938,278.4629 708.1844,278.2441 Q707.575,278.0254 706.95,278.0254 Q706.1844,278.0254 705.5438,278.3535 Q704.9188,278.6816 704.4188,279.4316 Q703.9344,280.1816 703.9344,281.2129 L703.9344,282.3066 Q703.9344,283.541 704.825,284.3691 Q705.7156,285.1816 707.3094,285.1816 Q708.2469,285.1816 708.9031,284.9316 Q709.2938,284.7754 709.7156,284.3379 Q709.9813,284.0723 710.1219,283.9941 Q710.2781,283.916 710.4813,283.916 Q710.8094,283.916 711.0594,284.1816 Q711.325,284.4316 711.325,284.7754 Q711.325,285.1191 710.9813,285.5254 Q710.4813,286.1035 709.6844,286.4316 Q708.6063,286.8848 707.3094,286.8848 Q705.7938,286.8848 704.5906,286.2598 Q703.6063,285.7598 702.9188,284.6973 Q702.2313,283.6191 702.2313,282.3379 L702.2313,281.1816 Q702.2313,279.8535 702.8406,278.7129 Q703.4656,277.5566 704.5594,276.9473 Q705.6531,276.3223 706.8875,276.3223 Q707.6219,276.3223 708.2625,276.4941 Q708.9188,276.6504 709.4656,277.0098 Z " fill="#000000"/><text fill="#000000" font-family="sans-serif" font-size="14" lengthAdjust="spacing" textLength="85" x="726.3" y="286.9316">RoomMapper</text><line style="stroke:#181818;stroke-width:0.5;" x1="667.5" x2="838.5" y1="297.1348" y2="297.1348"/><line style="stroke:#181818;stroke-width:0.5;" x1="667.5" x2="838.5" y1="305.1348" y2="305.1348"/><ellipse cx="677.5" cy="329.2559" fill="#84BE84" rx="3" ry="3" style="stroke:#038048;stroke-width:1.0;"/><text fill="#000000" font-family="sans-serif" font-size="14" lengthAdjust="spacing" textLength="143" x="686.5" y="324.2422">roomToDTO(RoomID):</text><text fill="#000000" font-family="sans-serif" font-size="14" lengthAdjust="spacing" textLength="67" x="686.5" y="342.8633">RoomDTO</text></g><!--class DeviceMapper--><g id="elem_DeviceMapper"><rect codeLine="72" fill="#F1F1F1" height="85.2422" id="DeviceMapper" rx="2.5" ry="2.5" style="stroke:#181818;stroke-width:0.5;" width="188" x="875" y="265.1348"/><ellipse cx="919.25" cy="281.1348" fill="#ADD1B2" rx="11" ry="11" style="stroke:#181818;stroke-width:1.0;"/><path d="M922.0156,277.0098 Q922.1719,276.791 922.3594,276.6816 Q922.5469,276.5723 922.7656,276.5723 Q923.1406,276.5723 923.375,276.8379 Q923.6094,277.0879 923.6094,277.6973 L923.6094,279.1504 Q923.6094,279.7598 923.375,280.0254 Q923.1406,280.291 922.7656,280.291 Q922.4219,280.291 922.2188,280.0879 Q922.0156,279.9004 921.9063,279.3848 Q921.8594,279.0254 921.6719,278.8379 Q921.3438,278.4629 920.7344,278.2441 Q920.125,278.0254 919.5,278.0254 Q918.7344,278.0254 918.0938,278.3535 Q917.4688,278.6816 916.9688,279.4316 Q916.4844,280.1816 916.4844,281.2129 L916.4844,282.3066 Q916.4844,283.541 917.375,284.3691 Q918.2656,285.1816 919.8594,285.1816 Q920.7969,285.1816 921.4531,284.9316 Q921.8438,284.7754 922.2656,284.3379 Q922.5313,284.0723 922.6719,283.9941 Q922.8281,283.916 923.0313,283.916 Q923.3594,283.916 923.6094,284.1816 Q923.875,284.4316 923.875,284.7754 Q923.875,285.1191 923.5313,285.5254 Q923.0313,286.1035 922.2344,286.4316 Q921.1563,286.8848 919.8594,286.8848 Q918.3438,286.8848 917.1406,286.2598 Q916.1563,285.7598 915.4688,284.6973 Q914.7813,283.6191 914.7813,282.3379 L914.7813,281.1816 Q914.7813,279.8535 915.3906,278.7129 Q916.0156,277.5566 917.1094,276.9473 Q918.2031,276.3223 919.4375,276.3223 Q920.1719,276.3223 920.8125,276.4941 Q921.4688,276.6504 922.0156,277.0098 Z " fill="#000000"/><text fill="#000000" font-family="sans-serif" font-size="14" lengthAdjust="spacing" textLength="91" x="939.75" y="286.9316">DeviceMapper</text><line style="stroke:#181818;stroke-width:0.5;" x1="876" x2="1062" y1="297.1348" y2="297.1348"/><line style="stroke:#181818;stroke-width:0.5;" x1="876" x2="1062" y1="305.1348" y2="305.1348"/><ellipse cx="886" cy="329.2559" fill="#84BE84" rx="3" ry="3" style="stroke:#038048;stroke-width:1.0;"/><text fill="#000000" font-family="sans-serif" font-size="14" lengthAdjust="spacing" textLength="158" x="895" y="324.2422">deviceToDTO(DeviceID):</text><text fill="#000000" font-family="sans-serif" font-size="14" lengthAdjust="spacing" textLength="73" x="895" y="342.8633">DeviceDTO</text></g><!--class SensorFunctionalityMapper--><g id="elem_SensorFunctionalityMapper"><rect codeLine="80" fill="#F1F1F1" height="85.2422" id="SensorFunctionalityMapper" rx="2.5" ry="2.5" style="stroke:#181818;stroke-width:0.5;" width="352" x="1098" y="265.1348"/><ellipse cx="1183.25" cy="281.1348" fill="#ADD1B2" rx="11" ry="11" style="stroke:#181818;stroke-width:1.0;"/><path d="M1186.0156,277.0098 Q1186.1719,276.791 1186.3594,276.6816 Q1186.5469,276.5723 1186.7656,276.5723 Q1187.1406,276.5723 1187.375,276.8379 Q1187.6094,277.0879 1187.6094,277.6973 L1187.6094,279.1504 Q1187.6094,279.7598 1187.375,280.0254 Q1187.1406,280.291 1186.7656,280.291 Q1186.4219,280.291 1186.2188,280.0879 Q1186.0156,279.9004 1185.9063,279.3848 Q1185.8594,279.0254 1185.6719,278.8379 Q1185.3438,278.4629 1184.7344,278.2441 Q1184.125,278.0254 1183.5,278.0254 Q1182.7344,278.0254 1182.0938,278.3535 Q1181.4688,278.6816 1180.9688,279.4316 Q1180.4844,280.1816 1180.4844,281.2129 L1180.4844,282.3066 Q1180.4844,283.541 1181.375,284.3691 Q1182.2656,285.1816 1183.8594,285.1816 Q1184.7969,285.1816 1185.4531,284.9316 Q1185.8438,284.7754 1186.2656,284.3379 Q1186.5313,284.0723 1186.6719,283.9941 Q1186.8281,283.916 1187.0313,283.916 Q1187.3594,283.916 1187.6094,284.1816 Q1187.875,284.4316 1187.875,284.7754 Q1187.875,285.1191 1187.5313,285.5254 Q1187.0313,286.1035 1186.2344,286.4316 Q1185.1563,286.8848 1183.8594,286.8848 Q1182.3438,286.8848 1181.1406,286.2598 Q1180.1563,285.7598 1179.4688,284.6973 Q1178.7813,283.6191 1178.7813,282.3379 L1178.7813,281.1816 Q1178.7813,279.8535 1179.3906,278.7129 Q1180.0156,277.5566 1181.1094,276.9473 Q1182.2031,276.3223 1183.4375,276.3223 Q1184.1719,276.3223 1184.8125,276.4941 Q1185.4688,276.6504 1186.0156,277.0098 Z " fill="#000000"/><text fill="#000000" font-family="sans-serif" font-size="14" lengthAdjust="spacing" textLength="173" x="1203.75" y="286.9316">SensorFunctionalityMapper</text><line style="stroke:#181818;stroke-width:0.5;" x1="1099" x2="1449" y1="297.1348" y2="297.1348"/><line style="stroke:#181818;stroke-width:0.5;" x1="1099" x2="1449" y1="305.1348" y2="305.1348"/><ellipse cx="1109" cy="329.2559" fill="#84BE84" rx="3" ry="3" style="stroke:#038048;stroke-width:1.0;"/><text fill="#000000" font-family="sans-serif" font-size="14" lengthAdjust="spacing" textLength="322" x="1118" y="324.2422">sensorFunctionalityToDTO(SensorFunctionalityID):</text><text fill="#000000" font-family="sans-serif" font-size="14" lengthAdjust="spacing" textLength="155" x="1118" y="342.8633">SensorFunctionalityDTO</text></g><!--class ActuatorFunctionalityMapper--><g id="elem_ActuatorFunctionalityMapper"><rect codeLine="84" fill="#F1F1F1" height="85.2422" id="ActuatorFunctionalityMapper" rx="2.5" ry="2.5" style="stroke:#181818;stroke-width:0.5;" width="369" x="1485.5" y="265.1348"/><ellipse cx="1575.25" cy="281.1348" fill="#ADD1B2" rx="11" ry="11" style="stroke:#181818;stroke-width:1.0;"/><path d="M1578.0156,277.0098 Q1578.1719,276.791 1578.3594,276.6816 Q1578.5469,276.5723 1578.7656,276.5723 Q1579.1406,276.5723 1579.375,276.8379 Q1579.6094,277.0879 1579.6094,277.6973 L1579.6094,279.1504 Q1579.6094,279.7598 1579.375,280.0254 Q1579.1406,280.291 1578.7656,280.291 Q1578.4219,280.291 1578.2188,280.0879 Q1578.0156,279.9004 1577.9063,279.3848 Q1577.8594,279.0254 1577.6719,278.8379 Q1577.3438,278.4629 1576.7344,278.2441 Q1576.125,278.0254 1575.5,278.0254 Q1574.7344,278.0254 1574.0938,278.3535 Q1573.4688,278.6816 1572.9688,279.4316 Q1572.4844,280.1816 1572.4844,281.2129 L1572.4844,282.3066 Q1572.4844,283.541 1573.375,284.3691 Q1574.2656,285.1816 1575.8594,285.1816 Q1576.7969,285.1816 1577.4531,284.9316 Q1577.8438,284.7754 1578.2656,284.3379 Q1578.5313,284.0723 1578.6719,283.9941 Q1578.8281,283.916 1579.0313,283.916 Q1579.3594,283.916 1579.6094,284.1816 Q1579.875,284.4316 1579.875,284.7754 Q1579.875,285.1191 1579.5313,285.5254 Q1579.0313,286.1035 1578.2344,286.4316 Q1577.1563,286.8848 1575.8594,286.8848 Q1574.3438,286.8848 1573.1406,286.2598 Q1572.1563,285.7598 1571.4688,284.6973 Q1570.7813,283.6191 1570.7813,282.3379 L1570.7813,281.1816 Q1570.7813,279.8535 1571.3906,278.7129 Q1572.0156,277.5566 1573.1094,276.9473 Q1574.2031,276.3223 1575.4375,276.3223 Q1576.1719,276.3223 1576.8125,276.4941 Q1577.4688,276.6504 1578.0156,277.0098 Z " fill="#000000"/><text fill="#000000" font-family="sans-serif" font-size="14" lengthAdjust="spacing" textLength="181" x="1595.75" y="286.9316">ActuatorFunctionalityMapper</text><line style="stroke:#181818;stroke-width:0.5;" x1="1486.5" x2="1853.5" y1="297.1348" y2="297.1348"/><line style="stroke:#181818;stroke-width:0.5;" x1="1486.5" x2="1853.5" y1="305.1348" y2="305.1348"/><ellipse cx="1496.5" cy="329.2559" fill="#84BE84" rx="3" ry="3" style="stroke:#038048;stroke-width:1.0;"/><text fill="#000000" font-family="sans-serif" font-size="14" lengthAdjust="spacing" textLength="339" x="1505.5" y="324.2422">actuatorFunctionalityToDTO(ActuatorFunctionalityID):</text><text fill="#000000" font-family="sans-serif" font-size="14" lengthAdjust="spacing" textLength="163" x="1505.5" y="342.8633">ActuatorFunctionalityDTO</text></g><!--class DeviceRepository--><g id="elem_DeviceRepository"><rect codeLine="33" fill="#F1F1F1" height="48" id="DeviceRepository" rx="2.5" ry="2.5" style="stroke:#181818;stroke-width:0.5;" width="171" x="22.5" y="630.6348"/><ellipse cx="37.5" cy="646.6348" fill="#B4A7E5" rx="11" ry="11" style="stroke:#181818;stroke-width:1.0;"/><path d="M38.4531,643.2754 L38.4531,649.9316 L40.1719,649.9316 Q40.7813,649.9316 41.0469,650.166 Q41.3125,650.4004 41.3125,650.791 Q41.3125,651.166 41.0469,651.4004 Q40.7813,651.6348 40.1719,651.6348 L35.0313,651.6348 Q34.4219,651.6348 34.1563,651.4004 Q33.8906,651.166 33.8906,650.7754 Q33.8906,650.4004 34.1563,650.166 Q34.4219,649.9316 35.0313,649.9316 L36.75,649.9316 L36.75,643.2754 L35.0313,643.2754 Q34.4219,643.2754 34.1563,643.041 Q33.8906,642.8066 33.8906,642.416 Q33.8906,642.041 34.1563,641.8066 Q34.4219,641.5723 35.0313,641.5723 L40.1719,641.5723 Q40.7813,641.5723 41.0469,641.8066 Q41.3125,642.041 41.3125,642.416 Q41.3125,642.8066 41.0469,643.041 Q40.7813,643.2754 40.1719,643.2754 L38.4531,643.2754 Z " fill="#000000"/><text fill="#000000" font-family="sans-serif" font-size="14" font-style="italic" lengthAdjust="spacing" textLength="110" x="51.5" y="652.4316">DeviceRepository</text><rect fill="#FFFFFF" height="17.9609" style="stroke:#181818;stroke-width:1.0;stroke-dasharray:2.0,2.0;" width="27" x="169.5" y="627.6348"/><text fill="#000000" font-family="sans-serif" font-size="12" font-style="italic" lengthAdjust="spacing" textLength="25" x="170.5" y="641.584">repo</text><line style="stroke:#181818;stroke-width:0.5;" x1="23.5" x2="192.5" y1="662.6348" y2="662.6348"/><line style="stroke:#181818;stroke-width:0.5;" x1="23.5" x2="192.5" y1="670.6348" y2="670.6348"/></g><!--class ActuatorRepository--><g id="elem_ActuatorRepository"><rect codeLine="39" fill="#F1F1F1" height="48" id="ActuatorRepository" rx="2.5" ry="2.5" style="stroke:#181818;stroke-width:0.5;" width="182" x="229" y="630.6348"/><ellipse cx="244" cy="646.6348" fill="#B4A7E5" rx="11" ry="11" style="stroke:#181818;stroke-width:1.0;"/><path d="M244.9531,643.2754 L244.9531,649.9316 L246.6719,649.9316 Q247.2813,649.9316 247.5469,650.166 Q247.8125,650.4004 247.8125,650.791 Q247.8125,651.166 247.5469,651.4004 Q247.2813,651.6348 246.6719,651.6348 L241.5313,651.6348 Q240.9219,651.6348 240.6563,651.4004 Q240.3906,651.166 240.3906,650.7754 Q240.3906,650.4004 240.6563,650.166 Q240.9219,649.9316 241.5313,649.9316 L243.25,649.9316 L243.25,643.2754 L241.5313,643.2754 Q240.9219,643.2754 240.6563,643.041 Q240.3906,642.8066 240.3906,642.416 Q240.3906,642.041 240.6563,641.8066 Q240.9219,641.5723 241.5313,641.5723 L246.6719,641.5723 Q247.2813,641.5723 247.5469,641.8066 Q247.8125,642.041 247.8125,642.416 Q247.8125,642.8066 247.5469,643.041 Q247.2813,643.2754 246.6719,643.2754 L244.9531,643.2754 Z " fill="#000000"/><text fill="#000000" font-family="sans-serif" font-size="14" font-style="italic" lengthAdjust="spacing" textLength="121" x="258" y="652.4316">ActuatorRepository</text><rect fill="#FFFFFF" height="17.9609" style="stroke:#181818;stroke-width:1.0;stroke-dasharray:2.0,2.0;" width="27" x="387" y="627.6348"/><text fill="#000000" font-family="sans-serif" font-size="12" font-style="italic" lengthAdjust="spacing" textLength="25" x="388" y="641.584">repo</text><line style="stroke:#181818;stroke-width:0.5;" x1="230" x2="410" y1="662.6348" y2="662.6348"/><line style="stroke:#181818;stroke-width:0.5;" x1="230" x2="410" y1="670.6348" y2="670.6348"/></g><!--class SensorRepository--><g id="elem_SensorRepository"><rect codeLine="36" fill="#F1F1F1" height="48" id="SensorRepository" rx="2.5" ry="2.5" style="stroke:#181818;stroke-width:0.5;" width="174" x="358" y="457.1348"/><ellipse cx="373" cy="473.1348" fill="#B4A7E5" rx="11" ry="11" style="stroke:#181818;stroke-width:1.0;"/><path d="M373.9531,469.7754 L373.9531,476.4316 L375.6719,476.4316 Q376.2813,476.4316 376.5469,476.666 Q376.8125,476.9004 376.8125,477.291 Q376.8125,477.666 376.5469,477.9004 Q376.2813,478.1348 375.6719,478.1348 L370.5313,478.1348 Q369.9219,478.1348 369.6563,477.9004 Q369.3906,477.666 369.3906,477.2754 Q369.3906,476.9004 369.6563,476.666 Q369.9219,476.4316 370.5313,476.4316 L372.25,476.4316 L372.25,469.7754 L370.5313,469.7754 Q369.9219,469.7754 369.6563,469.541 Q369.3906,469.3066 369.3906,468.916 Q369.3906,468.541 369.6563,468.3066 Q369.9219,468.0723 370.5313,468.0723 L375.6719,468.0723 Q376.2813,468.0723 376.5469,468.3066 Q376.8125,468.541 376.8125,468.916 Q376.8125,469.3066 376.5469,469.541 Q376.2813,469.7754 375.6719,469.7754 L373.9531,469.7754 Z " fill="#000000"/><text fill="#000000" font-family="sans-serif" font-size="14" font-style="italic" lengthAdjust="spacing" textLength="113" x="387" y="478.9316">SensorRepository</text><rect fill="#FFFFFF" height="17.9609" style="stroke:#181818;stroke-width:1.0;stroke-dasharray:2.0,2.0;" width="27" x="508" y="454.1348"/><text fill="#000000" font-family="sans-serif" font-size="12" font-style="italic" lengthAdjust="spacing" textLength="25" x="509" y="468.084">repo</text><line style="stroke:#181818;stroke-width:0.5;" x1="359" x2="531" y1="489.1348" y2="489.1348"/><line style="stroke:#181818;stroke-width:0.5;" x1="359" x2="531" y1="497.1348" y2="497.1348"/></g><!--class Device--><g id="elem_Device"><rect codeLine="55" fill="#F1F1F1" height="141.1055" id="Device" rx="2.5" ry="2.5" style="stroke:#181818;stroke-width:0.5;" width="198" x="483" y="584.1348"/><ellipse cx="543.75" cy="600.1348" fill="#ADD1B2" rx="11" ry="11" style="stroke:#181818;stroke-width:1.0;"/><path d="M546.5156,596.0098 Q546.6719,595.791 546.8594,595.6816 Q547.0469,595.5723 547.2656,595.5723 Q547.6406,595.5723 547.875,595.8379 Q548.1094,596.0879 548.1094,596.6973 L548.1094,598.1504 Q548.1094,598.7598 547.875,599.0254 Q547.6406,599.291 547.2656,599.291 Q546.9219,599.291 546.7188,599.0879 Q546.5156,598.9004 546.4063,598.3848 Q546.3594,598.0254 546.1719,597.8379 Q545.8438,597.4629 545.2344,597.2441 Q544.625,597.0254 544,597.0254 Q543.2344,597.0254 542.5938,597.3535 Q541.9688,597.6816 541.4688,598.4316 Q540.9844,599.1816 540.9844,600.2129 L540.9844,601.3066 Q540.9844,602.541 541.875,603.3691 Q542.7656,604.1816 544.3594,604.1816 Q545.2969,604.1816 545.9531,603.9316 Q546.3438,603.7754 546.7656,603.3379 Q547.0313,603.0723 547.1719,602.9941 Q547.3281,602.916 547.5313,602.916 Q547.8594,602.916 548.1094,603.1816 Q548.375,603.4316 548.375,603.7754 Q548.375,604.1191 548.0313,604.5254 Q547.5313,605.1035 546.7344,605.4316 Q545.6563,605.8848 544.3594,605.8848 Q542.8438,605.8848 541.6406,605.2598 Q540.6563,604.7598 539.9688,603.6973 Q539.2813,602.6191 539.2813,601.3379 L539.2813,600.1816 Q539.2813,598.8535 539.8906,597.7129 Q540.5156,596.5566 541.6094,595.9473 Q542.7031,595.3223 543.9375,595.3223 Q544.6719,595.3223 545.3125,595.4941 Q545.9688,595.6504 546.5156,596.0098 Z " fill="#000000"/><text fill="#000000" font-family="sans-serif" font-size="14" lengthAdjust="spacing" textLength="43" x="564.25" y="605.9316">Device</text><rect fill="#FFFFFF" height="17.9609" style="stroke:#181818;stroke-width:1.0;stroke-dasharray:2.0,2.0;" width="23" x="661" y="581.1348"/><text fill="#000000" font-family="sans-serif" font-size="12" font-style="italic" lengthAdjust="spacing" textLength="21" x="662" y="595.084">root</text><line style="stroke:#181818;stroke-width:0.5;" x1="484" x2="680" y1="616.1348" y2="616.1348"/><rect fill="none" height="6" style="stroke:#C82930;stroke-width:1.0;" width="6" x="491" y="627.9453"/><text fill="#000000" font-family="sans-serif" font-size="14" lengthAdjust="spacing" textLength="141" x="503" y="635.2422">deviceName: DeviceID</text><rect fill="none" height="6" style="stroke:#C82930;stroke-width:1.0;" width="6" x="491" y="646.5664"/><text fill="#000000" font-family="sans-serif" font-size="14" lengthAdjust="spacing" textLength="168" x="503" y="653.8633">deviceModel: DeviceModel</text><rect fill="none" height="6" style="stroke:#C82930;stroke-width:1.0;" width="6" x="491" y="665.1875"/><text fill="#000000" font-family="sans-serif" font-size="14" lengthAdjust="spacing" textLength="172" x="503" y="672.4844">deviceStatus: DeviceStatus</text><rect fill="none" height="6" style="stroke:#C82930;stroke-width:1.0;" width="6" x="491" y="683.8086"/><text fill="#000000" font-family="sans-serif" font-size="14" lengthAdjust="spacing" textLength="103" x="503" y="691.1055">roomID: RoomID</text><line style="stroke:#181818;stroke-width:0.5;" x1="484" x2="680" y1="698.6191" y2="698.6191"/><ellipse cx="494" cy="713.4297" fill="#84BE84" rx="3" ry="3" style="stroke:#038048;stroke-width:1.0;"/><text fill="#000000" font-family="sans-serif" font-size="14" lengthAdjust="spacing" textLength="138" x="503" y="717.7266">getRoomID(): RoomID</text></g><!--class Actuator--><g id="elem_Actuator"><rect codeLine="63" fill="#F1F1F1" height="159.7266" id="Actuator" rx="2.5" ry="2.5" style="stroke:#181818;stroke-width:0.5;" width="356" x="716" y="574.6348"/><ellipse cx="850.75" cy="590.6348" fill="#ADD1B2" rx="11" ry="11" style="stroke:#181818;stroke-width:1.0;"/><path d="M853.5156,586.5098 Q853.6719,586.291 853.8594,586.1816 Q854.0469,586.0723 854.2656,586.0723 Q854.6406,586.0723 854.875,586.3379 Q855.1094,586.5879 855.1094,587.1973 L855.1094,588.6504 Q855.1094,589.2598 854.875,589.5254 Q854.6406,589.791 854.2656,589.791 Q853.9219,589.791 853.7188,589.5879 Q853.5156,589.4004 853.4063,588.8848 Q853.3594,588.5254 853.1719,588.3379 Q852.8438,587.9629 852.2344,587.7441 Q851.625,587.5254 851,587.5254 Q850.2344,587.5254 849.5938,587.8535 Q848.9688,588.1816 848.4688,588.9316 Q847.9844,589.6816 847.9844,590.7129 L847.9844,591.8066 Q847.9844,593.041 848.875,593.8691 Q849.7656,594.6816 851.3594,594.6816 Q852.2969,594.6816 852.9531,594.4316 Q853.3438,594.2754 853.7656,593.8379 Q854.0313,593.5723 854.1719,593.4941 Q854.3281,593.416 854.5313,593.416 Q854.8594,593.416 855.1094,593.6816 Q855.375,593.9316 855.375,594.2754 Q855.375,594.6191 855.0313,595.0254 Q854.5313,595.6035 853.7344,595.9316 Q852.6563,596.3848 851.3594,596.3848 Q849.8438,596.3848 848.6406,595.7598 Q847.6563,595.2598 846.9688,594.1973 Q846.2813,593.1191 846.2813,591.8379 L846.2813,590.6816 Q846.2813,589.3535 846.8906,588.2129 Q847.5156,587.0566 848.6094,586.4473 Q849.7031,585.8223 850.9375,585.8223 Q851.6719,585.8223 852.3125,585.9941 Q852.9688,586.1504 853.5156,586.5098 Z " fill="#000000"/><text fill="#000000" font-family="sans-serif" font-size="14" lengthAdjust="spacing" textLength="53" x="871.25" y="596.4316">Actuator</text><rect fill="#FFFFFF" height="17.9609" style="stroke:#181818;stroke-width:1.0;stroke-dasharray:2.0,2.0;" width="23" x="1052" y="571.6348"/><text fill="#000000" font-family="sans-serif" font-size="12" font-style="italic" lengthAdjust="spacing" textLength="21" x="1053" y="585.584">root</text><line style="stroke:#181818;stroke-width:0.5;" x1="717" x2="1071" y1="606.6348" y2="606.6348"/><rect fill="none" height="6" style="stroke:#C82930;stroke-width:1.0;" width="6" x="724" y="618.4453"/><text fill="#000000" font-family="sans-serif" font-size="14" lengthAdjust="spacing" textLength="162" x="736" y="625.7422">actuatorName: ActuatorID</text><rect fill="none" height="6" style="stroke:#C82930;stroke-width:1.0;" width="6" x="724" y="637.0664"/><text fill="#000000" font-family="sans-serif" font-size="14" lengthAdjust="spacing" textLength="299" x="736" y="644.3633">actuatorFunctionalityID: ActuatorFunctionalityID</text><rect fill="none" height="6" style="stroke:#C82930;stroke-width:1.0;" width="6" x="724" y="655.6875"/><text fill="#000000" font-family="sans-serif" font-size="14" lengthAdjust="spacing" textLength="243" x="736" y="662.9844">actuatorProperties: ActuatorProperties</text><rect fill="none" height="6" style="stroke:#C82930;stroke-width:1.0;" width="6" x="724" y="674.3086"/><text fill="#000000" font-family="sans-serif" font-size="14" lengthAdjust="spacing" textLength="118" x="736" y="681.6055">deviceID: DeviceID</text><line style="stroke:#181818;stroke-width:0.5;" x1="717" x2="1071" y1="689.1191" y2="689.1191"/><ellipse cx="727" cy="703.9297" fill="#84BE84" rx="3" ry="3" style="stroke:#038048;stroke-width:1.0;"/><text fill="#000000" font-family="sans-serif" font-size="14" lengthAdjust="spacing" textLength="330" x="736" y="708.2266">getActuatorFunctionalityID(): ActuatorFunctionalityID</text><ellipse cx="727" cy="722.5508" fill="#84BE84" rx="3" ry="3" style="stroke:#038048;stroke-width:1.0;"/><text fill="#000000" font-family="sans-serif" font-size="14" lengthAdjust="spacing" textLength="150" x="736" y="726.8477">getDeviceID(): DeviceID</text></g><!--class Sensor--><g id="elem_Sensor"><rect codeLine="47" fill="#F1F1F1" height="141.1055" id="Sensor" rx="2.5" ry="2.5" style="stroke:#181818;stroke-width:0.5;" width="340" x="1107" y="584.1348"/><ellipse cx="1237.75" cy="600.1348" fill="#ADD1B2" rx="11" ry="11" style="stroke:#181818;stroke-width:1.0;"/><path d="M1240.5156,596.0098 Q1240.6719,595.791 1240.8594,595.6816 Q1241.0469,595.5723 1241.2656,595.5723 Q1241.6406,595.5723 1241.875,595.8379 Q1242.1094,596.0879 1242.1094,596.6973 L1242.1094,598.1504 Q1242.1094,598.7598 1241.875,599.0254 Q1241.6406,599.291 1241.2656,599.291 Q1240.9219,599.291 1240.7188,599.0879 Q1240.5156,598.9004 1240.4063,598.3848 Q1240.3594,598.0254 1240.1719,597.8379 Q1239.8438,597.4629 1239.2344,597.2441 Q1238.625,597.0254 1238,597.0254 Q1237.2344,597.0254 1236.5938,597.3535 Q1235.9688,597.6816 1235.4688,598.4316 Q1234.9844,599.1816 1234.9844,600.2129 L1234.9844,601.3066 Q1234.9844,602.541 1235.875,603.3691 Q1236.7656,604.1816 1238.3594,604.1816 Q1239.2969,604.1816 1239.9531,603.9316 Q1240.3438,603.7754 1240.7656,603.3379 Q1241.0313,603.0723 1241.1719,602.9941 Q1241.3281,602.916 1241.5313,602.916 Q1241.8594,602.916 1242.1094,603.1816 Q1242.375,603.4316 1242.375,603.7754 Q1242.375,604.1191 1242.0313,604.5254 Q1241.5313,605.1035 1240.7344,605.4316 Q1239.6563,605.8848 1238.3594,605.8848 Q1236.8438,605.8848 1235.6406,605.2598 Q1234.6563,604.7598 1233.9688,603.6973 Q1233.2813,602.6191 1233.2813,601.3379 L1233.2813,600.1816 Q1233.2813,598.8535 1233.8906,597.7129 Q1234.5156,596.5566 1235.6094,595.9473 Q1236.7031,595.3223 1237.9375,595.3223 Q1238.6719,595.3223 1239.3125,595.4941 Q1239.9688,595.6504 1240.5156,596.0098 Z " fill="#000000"/><text fill="#000000" font-family="sans-serif" font-size="14" lengthAdjust="spacing" textLength="45" x="1258.25" y="605.9316">Sensor</text><rect fill="#FFFFFF" height="17.9609" style="stroke:#181818;stroke-width:1.0;stroke-dasharray:2.0,2.0;" width="23" x="1427" y="581.1348"/><text fill="#000000" font-family="sans-serif" font-size="12" font-style="italic" lengthAdjust="spacing" textLength="21" x="1428" y="595.084">root</text><line style="stroke:#181818;stroke-width:0.5;" x1="1108" x2="1446" y1="616.1348" y2="616.1348"/><rect fill="none" height="6" style="stroke:#C82930;stroke-width:1.0;" width="6" x="1115" y="627.9453"/><text fill="#000000" font-family="sans-serif" font-size="14" lengthAdjust="spacing" textLength="145" x="1127" y="635.2422">sensorName: SensorID</text><rect fill="none" height="6" style="stroke:#C82930;stroke-width:1.0;" width="6" x="1115" y="646.5664"/><text fill="#000000" font-family="sans-serif" font-size="14" lengthAdjust="spacing" textLength="282" x="1127" y="653.8633">sensorFunctionalityID: SensorFunctionalityID</text><rect fill="none" height="6" style="stroke:#C82930;stroke-width:1.0;" width="6" x="1115" y="665.1875"/><text fill="#000000" font-family="sans-serif" font-size="14" lengthAdjust="spacing" textLength="118" x="1127" y="672.4844">deviceID: DeviceID</text><line style="stroke:#181818;stroke-width:0.5;" x1="1108" x2="1446" y1="679.998" y2="679.998"/><ellipse cx="1118" cy="694.8086" fill="#84BE84" rx="3" ry="3" style="stroke:#038048;stroke-width:1.0;"/><text fill="#000000" font-family="sans-serif" font-size="14" lengthAdjust="spacing" textLength="314" x="1127" y="699.1055">getSensorFunctionalityID(): SensorFunctionalityID</text><ellipse cx="1118" cy="713.4297" fill="#84BE84" rx="3" ry="3" style="stroke:#038048;stroke-width:1.0;"/><text fill="#000000" font-family="sans-serif" font-size="14" lengthAdjust="spacing" textLength="150" x="1127" y="717.7266">getDeviceID(): DeviceID</text></g><g id="elem_N1"><path d="M198.5,794.6348 L198.5,821.9258 L441.5,821.9258 L441.5,804.6348 L431.5,794.6348 L198.5,794.6348 " fill="#FEFFDD" style="stroke:#181818;stroke-width:0.5;"/><path d="M431.5,794.6348 L431.5,804.6348 L441.5,804.6348 L431.5,794.6348 " fill="#FEFFDD" style="stroke:#181818;stroke-width:1.0;"/><text fill="#000000" font-family="sans-serif" font-size="13" lengthAdjust="spacing" textLength="222" x="204.5" y="813.6631">Continues in UC09ClassDiagramREF1</text></g><!--class ActuatorFunctionalityDTO--><g id="elem_ActuatorFunctionalityDTO"><rect codeLine="88" fill="#F1F1F1" height="66.6211" id="ActuatorFunctionalityDTO" rx="2.5" ry="2.5" style="stroke:#181818;stroke-width:0.5;" width="203" x="1568.5" y="447.6348"/><ellipse cx="1587.1" cy="463.6348" fill="#ADD1B2" rx="11" ry="11" style="stroke:#181818;stroke-width:1.0;"/><path d="M1589.8656,459.5098 Q1590.0219,459.291 1590.2094,459.1816 Q1590.3969,459.0723 1590.6156,459.0723 Q1590.9906,459.0723 1591.225,459.3379 Q1591.4594,459.5879 1591.4594,460.1973 L1591.4594,461.6504 Q1591.4594,462.2598 1591.225,462.5254 Q1590.9906,462.791 1590.6156,462.791 Q1590.2719,462.791 1590.0688,462.5879 Q1589.8656,462.4004 1589.7563,461.8848 Q1589.7094,461.5254 1589.5219,461.3379 Q1589.1938,460.9629 1588.5844,460.7441 Q1587.975,460.5254 1587.35,460.5254 Q1586.5844,460.5254 1585.9438,460.8535 Q1585.3188,461.1816 1584.8188,461.9316 Q1584.3344,462.6816 1584.3344,463.7129 L1584.3344,464.8066 Q1584.3344,466.041 1585.225,466.8691 Q1586.1156,467.6816 1587.7094,467.6816 Q1588.6469,467.6816 1589.3031,467.4316 Q1589.6938,467.2754 1590.1156,466.8379 Q1590.3813,466.5723 1590.5219,466.4941 Q1590.6781,466.416 1590.8813,466.416 Q1591.2094,466.416 1591.4594,466.6816 Q1591.725,466.9316 1591.725,467.2754 Q1591.725,467.6191 1591.3813,468.0254 Q1590.8813,468.6035 1590.0844,468.9316 Q1589.0063,469.3848 1587.7094,469.3848 Q1586.1938,469.3848 1584.9906,468.7598 Q1584.0063,468.2598 1583.3188,467.1973 Q1582.6313,466.1191 1582.6313,464.8379 L1582.6313,463.6816 Q1582.6313,462.3535 1583.2406,461.2129 Q1583.8656,460.0566 1584.9594,459.4473 Q1586.0531,458.8223 1587.2875,458.8223 Q1588.0219,458.8223 1588.6625,458.9941 Q1589.3188,459.1504 1589.8656,459.5098 Z " fill="#000000"/><text fill="#000000" font-family="sans-serif" font-size="14" lengthAdjust="spacing" textLength="163" x="1601.9" y="469.4316">ActuatorFunctionalityDTO</text><line style="stroke:#181818;stroke-width:0.5;" x1="1569.5" x2="1770.5" y1="479.6348" y2="479.6348"/><ellipse cx="1579.5" cy="494.4453" fill="none" rx="3" ry="3" style="stroke:#038048;stroke-width:1.0;"/><text fill="#000000" font-family="sans-serif" font-size="14" lengthAdjust="spacing" textLength="177" x="1588.5" y="498.7422">actuatorFunctionality: String</text><line style="stroke:#181818;stroke-width:0.5;" x1="1569.5" x2="1770.5" y1="506.2559" y2="506.2559"/></g><!--class SensorFunctionalityDTO--><g id="elem_SensorFunctionalityDTO"><rect codeLine="92" fill="#F1F1F1" height="66.6211" id="SensorFunctionalityDTO" rx="2.5" ry="2.5" style="stroke:#181818;stroke-width:0.5;" width="194" x="1177" y="447.6348"/><ellipse cx="1195.15" cy="463.6348" fill="#ADD1B2" rx="11" ry="11" style="stroke:#181818;stroke-width:1.0;"/><path d="M1197.9156,459.5098 Q1198.0719,459.291 1198.2594,459.1816 Q1198.4469,459.0723 1198.6656,459.0723 Q1199.0406,459.0723 1199.275,459.3379 Q1199.5094,459.5879 1199.5094,460.1973 L1199.5094,461.6504 Q1199.5094,462.2598 1199.275,462.5254 Q1199.0406,462.791 1198.6656,462.791 Q1198.3219,462.791 1198.1188,462.5879 Q1197.9156,462.4004 1197.8063,461.8848 Q1197.7594,461.5254 1197.5719,461.3379 Q1197.2438,460.9629 1196.6344,460.7441 Q1196.025,460.5254 1195.4,460.5254 Q1194.6344,460.5254 1193.9938,460.8535 Q1193.3688,461.1816 1192.8688,461.9316 Q1192.3844,462.6816 1192.3844,463.7129 L1192.3844,464.8066 Q1192.3844,466.041 1193.275,466.8691 Q1194.1656,467.6816 1195.7594,467.6816 Q1196.6969,467.6816 1197.3531,467.4316 Q1197.7438,467.2754 1198.1656,466.8379 Q1198.4313,466.5723 1198.5719,466.4941 Q1198.7281,466.416 1198.9313,466.416 Q1199.2594,466.416 1199.5094,466.6816 Q1199.775,466.9316 1199.775,467.2754 Q1199.775,467.6191 1199.4313,468.0254 Q1198.9313,468.6035 1198.1344,468.9316 Q1197.0563,469.3848 1195.7594,469.3848 Q1194.2438,469.3848 1193.0406,468.7598 Q1192.0563,468.2598 1191.3688,467.1973 Q1190.6813,466.1191 1190.6813,464.8379 L1190.6813,463.6816 Q1190.6813,462.3535 1191.2906,461.2129 Q1191.9156,460.0566 1193.0094,459.4473 Q1194.1031,458.8223 1195.3375,458.8223 Q1196.0719,458.8223 1196.7125,458.9941 Q1197.3688,459.1504 1197.9156,459.5098 Z " fill="#000000"/><text fill="#000000" font-family="sans-serif" font-size="14" lengthAdjust="spacing" textLength="155" x="1209.85" y="469.4316">SensorFunctionalityDTO</text><line style="stroke:#181818;stroke-width:0.5;" x1="1178" x2="1370" y1="479.6348" y2="479.6348"/><ellipse cx="1188" cy="494.4453" fill="none" rx="3" ry="3" style="stroke:#038048;stroke-width:1.0;"/><text fill="#000000" font-family="sans-serif" font-size="14" lengthAdjust="spacing" textLength="168" x="1197" y="498.7422">sensorFunctionality: String</text><line style="stroke:#181818;stroke-width:0.5;" x1="1178" x2="1370" y1="506.2559" y2="506.2559"/></g><!--class DeviceDTO--><g id="elem_DeviceDTO"><rect codeLine="96" fill="#F1F1F1" height="66.6211" id="DeviceDTO" rx="2.5" ry="2.5" style="stroke:#181818;stroke-width:0.5;" width="148" x="895" y="447.6348"/><ellipse cx="929.35" cy="463.6348" fill="#ADD1B2" rx="11" ry="11" style="stroke:#181818;stroke-width:1.0;"/><path d="M932.1156,459.5098 Q932.2719,459.291 932.4594,459.1816 Q932.6469,459.0723 932.8656,459.0723 Q933.2406,459.0723 933.475,459.3379 Q933.7094,459.5879 933.7094,460.1973 L933.7094,461.6504 Q933.7094,462.2598 933.475,462.5254 Q933.2406,462.791 932.8656,462.791 Q932.5219,462.791 932.3188,462.5879 Q932.1156,462.4004 932.0063,461.8848 Q931.9594,461.5254 931.7719,461.3379 Q931.4438,460.9629 930.8344,460.7441 Q930.225,460.5254 929.6,460.5254 Q928.8344,460.5254 928.1938,460.8535 Q927.5688,461.1816 927.0688,461.9316 Q926.5844,462.6816 926.5844,463.7129 L926.5844,464.8066 Q926.5844,466.041 927.475,466.8691 Q928.3656,467.6816 929.9594,467.6816 Q930.8969,467.6816 931.5531,467.4316 Q931.9438,467.2754 932.3656,466.8379 Q932.6313,466.5723 932.7719,466.4941 Q932.9281,466.416 933.1313,466.416 Q933.4594,466.416 933.7094,466.6816 Q933.975,466.9316 933.975,467.2754 Q933.975,467.6191 933.6313,468.0254 Q933.1313,468.6035 932.3344,468.9316 Q931.2563,469.3848 929.9594,469.3848 Q928.4438,469.3848 927.2406,468.7598 Q926.2563,468.2598 925.5688,467.1973 Q924.8813,466.1191 924.8813,464.8379 L924.8813,463.6816 Q924.8813,462.3535 925.4906,461.2129 Q926.1156,460.0566 927.2094,459.4473 Q928.3031,458.8223 929.5375,458.8223 Q930.2719,458.8223 930.9125,458.9941 Q931.5688,459.1504 932.1156,459.5098 Z " fill="#000000"/><text fill="#000000" font-family="sans-serif" font-size="14" lengthAdjust="spacing" textLength="73" x="947.65" y="469.4316">DeviceDTO</text><line style="stroke:#181818;stroke-width:0.5;" x1="896" x2="1042" y1="479.6348" y2="479.6348"/><ellipse cx="906" cy="494.4453" fill="none" rx="3" ry="3" style="stroke:#038048;stroke-width:1.0;"/><text fill="#000000" font-family="sans-serif" font-size="14" lengthAdjust="spacing" textLength="122" x="915" y="498.7422">deviceName: String</text><line style="stroke:#181818;stroke-width:0.5;" x1="896" x2="1042" y1="506.2559" y2="506.2559"/></g><!--class RoomDTO--><g id="elem_RoomDTO"><rect codeLine="100" fill="#F1F1F1" height="66.6211" id="RoomDTO" rx="2.5" ry="2.5" style="stroke:#181818;stroke-width:0.5;" width="139" x="683.5" y="447.6348"/><ellipse cx="716.5" cy="463.6348" fill="#ADD1B2" rx="11" ry="11" style="stroke:#181818;stroke-width:1.0;"/><path d="M719.2656,459.5098 Q719.4219,459.291 719.6094,459.1816 Q719.7969,459.0723 720.0156,459.0723 Q720.3906,459.0723 720.625,459.3379 Q720.8594,459.5879 720.8594,460.1973 L720.8594,461.6504 Q720.8594,462.2598 720.625,462.5254 Q720.3906,462.791 720.0156,462.791 Q719.6719,462.791 719.4688,462.5879 Q719.2656,462.4004 719.1563,461.8848 Q719.1094,461.5254 718.9219,461.3379 Q718.5938,460.9629 717.9844,460.7441 Q717.375,460.5254 716.75,460.5254 Q715.9844,460.5254 715.3438,460.8535 Q714.7188,461.1816 714.2188,461.9316 Q713.7344,462.6816 713.7344,463.7129 L713.7344,464.8066 Q713.7344,466.041 714.625,466.8691 Q715.5156,467.6816 717.1094,467.6816 Q718.0469,467.6816 718.7031,467.4316 Q719.0938,467.2754 719.5156,466.8379 Q719.7813,466.5723 719.9219,466.4941 Q720.0781,466.416 720.2813,466.416 Q720.6094,466.416 720.8594,466.6816 Q721.125,466.9316 721.125,467.2754 Q721.125,467.6191 720.7813,468.0254 Q720.2813,468.6035 719.4844,468.9316 Q718.4063,469.3848 717.1094,469.3848 Q715.5938,469.3848 714.3906,468.7598 Q713.4063,468.2598 712.7188,467.1973 Q712.0313,466.1191 712.0313,464.8379 L712.0313,463.6816 Q712.0313,462.3535 712.6406,461.2129 Q713.2656,460.0566 714.3594,459.4473 Q715.4531,458.8223 716.6875,458.8223 Q717.4219,458.8223 718.0625,458.9941 Q718.7188,459.1504 719.2656,459.5098 Z " fill="#000000"/><text fill="#000000" font-family="sans-serif" font-size="14" lengthAdjust="spacing" textLength="67" x="734.5" y="469.4316">RoomDTO</text><line style="stroke:#181818;stroke-width:0.5;" x1="684.5" x2="821.5" y1="479.6348" y2="479.6348"/><ellipse cx="694.5" cy="494.4453" fill="none" rx="3" ry="3" style="stroke:#038048;stroke-width:1.0;"/><text fill="#000000" font-family="sans-serif" font-size="14" lengthAdjust="spacing" textLength="113" x="703.5" y="498.7422">roomName: String</text><line style="stroke:#181818;stroke-width:0.5;" x1="684.5" x2="821.5" y1="506.2559" y2="506.2559"/></g><!--link HouseControllerWeb to ListAllDevicesInHouseByFunctionalityService--><g id="link_HouseControllerWeb_ListAllDevicesInHouseByFunctionalityService"><path codeLine="10" d="M728.83,167.9748 C728.83,202.9548 728.83,246.6348 728.83,246.6348 C728.83,246.6348 687.61,246.6348 631.56,246.6348 " fill="none" id="HouseControllerWeb-ListAllDevicesInHouseByFunctionalityService" style="stroke:#181818;stroke-width:1.0;"/></g><!--link HouseControllerWeb to RoomMapper--><g id="link_HouseControllerWeb_RoomMapper"><path codeLine="11" d="M784.17,167.9248 C784.17,197.2148 784.17,229.8848 784.17,259.1148 " fill="none" id="HouseControllerWeb-to-RoomMapper" style="stroke:#181818;stroke-width:1.0;stroke-dasharray:7.0,7.0;"/><polygon fill="#181818" points="784.17,265.1148,788.17,256.1148,784.17,260.1148,780.17,256.1148,784.17,265.1148" style="stroke:#181818;stroke-width:1.0;"/><text fill="#000000" font-family="sans-serif" font-size="13" lengthAdjust="spacing" textLength="57" x="726.17" y="212.5431">&#171;creates&#187;</text></g><!--link HouseControllerWeb to DeviceMapper--><g id="link_HouseControllerWeb_DeviceMapper"><path codeLine="12" d="M969,167.9248 C969,197.2148 969,229.8848 969,259.1148 " fill="none" id="HouseControllerWeb-to-DeviceMapper" style="stroke:#181818;stroke-width:1.0;stroke-dasharray:7.0,7.0;"/><polygon fill="#181818" points="969,265.1148,973,256.1148,969,260.1148,965,256.1148,969,265.1148" style="stroke:#181818;stroke-width:1.0;"/><text fill="#000000" font-family="sans-serif" font-size="13" lengthAdjust="spacing" textLength="57" x="911" y="212.5431">&#171;creates&#187;</text></g><!--link HouseControllerWeb to SensorFunctionalityMapper--><g id="link_HouseControllerWeb_SensorFunctionalityMapper"><path codeLine="13" d="M1181.25,167.9248 C1181.25,197.2148 1181.25,229.8848 1181.25,259.1148 " fill="none" id="HouseControllerWeb-to-SensorFunctionalityMapper" style="stroke:#181818;stroke-width:1.0;stroke-dasharray:7.0,7.0;"/><polygon fill="#181818" points="1181.25,265.1148,1185.25,256.1148,1181.25,260.1148,1177.25,256.1148,1181.25,265.1148" style="stroke:#181818;stroke-width:1.0;"/><text fill="#000000" font-family="sans-serif" font-size="13" lengthAdjust="spacing" textLength="57" x="1123.25" y="212.5431">&#171;creates&#187;</text></g><!--link HouseControllerWeb to ActuatorFunctionalityMapper--><g id="link_HouseControllerWeb_ActuatorFunctionalityMapper"><path codeLine="14" d="M1264.51,125.6348 C1456.02,125.6348 1670,125.6348 1670,125.6348 C1670,125.6348 1670,205.1748 1670,258.9648 " fill="none" id="HouseControllerWeb-to-ActuatorFunctionalityMapper" style="stroke:#181818;stroke-width:1.0;stroke-dasharray:7.0,7.0;"/><polygon fill="#181818" points="1670,264.9648,1674,255.9648,1670,259.9648,1666,255.9648,1670,264.9648" style="stroke:#181818;stroke-width:1.0;"/><text fill="#000000" font-family="sans-serif" font-size="13" lengthAdjust="spacing" textLength="57" x="1478.92" y="121.6631">&#171;creates&#187;</text></g><!--link ListAllDevicesInHouseByFunctionalityService to DeviceRepository--><g id="link_ListAllDevicesInHouseByFunctionalityService_DeviceRepository"><path codeLine="25" d="M108,387.6748 C108,466.1348 108,580.9448 108,630.4448 " fill="none" id="ListAllDevicesInHouseByFunctionalityService-DeviceRepository" style="stroke:#181818;stroke-width:1.0;"/></g><!--link ListAllDevicesInHouseByFunctionalityService to ActuatorRepository--><g id="link_ListAllDevicesInHouseByFunctionalityService_ActuatorRepository"><path codeLine="26" d="M293.5,387.6748 C293.5,466.1348 293.5,580.9448 293.5,630.4448 " fill="none" id="ListAllDevicesInHouseByFunctionalityService-ActuatorRepository" style="stroke:#181818;stroke-width:1.0;"/></g><!--link ListAllDevicesInHouseByFunctionalityService to SensorRepository--><g id="link_ListAllDevicesInHouseByFunctionalityService_SensorRepository"><path codeLine="27" d="M445,387.7848 C445,412.9948 445,438.9648 445,457.0848 " fill="none" id="ListAllDevicesInHouseByFunctionalityService-SensorRepository" style="stroke:#181818;stroke-width:1.0;"/></g><!--link ListAllDevicesInHouseByFunctionalityService to Device--><g id="link_ListAllDevicesInHouseByFunctionalityService_Device"><path codeLine="28" d="M565.17,387.6748 C565.17,447.0248 565.17,521.1648 565.17,578.1048 " fill="none" id="ListAllDevicesInHouseByFunctionalityService-to-Device" style="stroke:#181818;stroke-width:1.0;stroke-dasharray:7.0,7.0;"/><polygon fill="#181818" points="565.17,584.1048,569.17,575.1048,565.17,579.1048,561.17,575.1048,565.17,584.1048" style="stroke:#181818;stroke-width:1.0;"/><text fill="#000000" font-family="sans-serif" font-size="13" lengthAdjust="spacing" textLength="28" x="536.17" y="481.9231">uses</text></g><!--link ListAllDevicesInHouseByFunctionalityService to Actuator--><g id="link_ListAllDevicesInHouseByFunctionalityService_Actuator"><path codeLine="29" d="M598.33,387.7748 C598.33,468.0048 598.33,579.6348 598.33,579.6348 C598.33,579.6348 647.17,579.6348 709.61,579.6348 " fill="none" id="ListAllDevicesInHouseByFunctionalityService-to-Actuator" style="stroke:#181818;stroke-width:1.0;stroke-dasharray:7.0,7.0;"/><polygon fill="#181818" points="715.61,579.6348,706.61,575.6348,710.61,579.6348,706.61,583.6348,715.61,579.6348" style="stroke:#181818;stroke-width:1.0;"/><text fill="#000000" font-family="sans-serif" font-size="13" lengthAdjust="spacing" textLength="28" x="569.33" y="538.3731">uses</text></g><!--link ListAllDevicesInHouseByFunctionalityService to Sensor--><g id="link_ListAllDevicesInHouseByFunctionalityService_Sensor"><path codeLine="30" d="M631.63,369.6348 C863.12,369.6348 1142,369.6348 1142,369.6348 C1142,369.6348 1142,493.4148 1142,577.8148 " fill="none" id="ListAllDevicesInHouseByFunctionalityService-to-Sensor" style="stroke:#181818;stroke-width:1.0;stroke-dasharray:7.0,7.0;"/><polygon fill="#181818" points="1142,583.8148,1146,574.8148,1142,578.8148,1138,574.8148,1142,583.8148" style="stroke:#181818;stroke-width:1.0;"/><text fill="#000000" font-family="sans-serif" font-size="13" lengthAdjust="spacing" textLength="28" x="964.91" y="365.6631">uses</text></g><!--link DeviceRepository to N1--><g id="link_DeviceRepository_N1"><path codeLine="43" d="M193.86,654.6348 C205.62,654.6348 213.75,654.6348 213.75,654.6348 C213.75,654.6348 213.75,756.9448 213.75,794.5148 " fill="none" id="DeviceRepository-N1" style="stroke:#181818;stroke-width:1.0;"/></g><!--link SensorRepository to N1--><g id="link_SensorRepository_N1"><path codeLine="44" d="M426.25,505.1848 C426.25,569.4848 426.25,743.9648 426.25,794.3448 " fill="none" id="SensorRepository-N1" style="stroke:#181818;stroke-width:1.0;"/></g><!--link ActuatorRepository to N1--><g id="link_ActuatorRepository_N1"><path codeLine="45" d="M320,678.9548 C320,711.5848 320,768.4348 320,794.4448 " fill="none" id="ActuatorRepository-N1" style="stroke:#181818;stroke-width:1.0;"/></g><!--link RoomMapper to RoomDTO--><g id="link_RoomMapper_RoomDTO"><path codeLine="105" d="M753,350.5248 C753,380.4248 753,413.7648 753,441.4248 " fill="none" id="RoomMapper-to-RoomDTO" style="stroke:#181818;stroke-width:1.0;stroke-dasharray:7.0,7.0;"/><polygon fill="#181818" points="753,447.4248,757,438.4248,753,442.4248,749,438.4248,753,447.4248" style="stroke:#181818;stroke-width:1.0;"/><text fill="#000000" font-family="sans-serif" font-size="13" lengthAdjust="spacing" textLength="57" x="695" y="395.0031">&#171;creates&#187;</text></g><!--link DeviceMapper to DeviceDTO--><g id="link_DeviceMapper_DeviceDTO"><path codeLine="106" d="M969,350.5248 C969,380.4248 969,413.7648 969,441.4248 " fill="none" id="DeviceMapper-to-DeviceDTO" style="stroke:#181818;stroke-width:1.0;stroke-dasharray:7.0,7.0;"/><polygon fill="#181818" points="969,447.4248,973,438.4248,969,442.4248,965,438.4248,969,447.4248" style="stroke:#181818;stroke-width:1.0;"/><text fill="#000000" font-family="sans-serif" font-size="13" lengthAdjust="spacing" textLength="57" x="911" y="395.0031">&#171;creates&#187;</text></g><!--link SensorFunctionalityMapper to SensorFunctionalityDTO--><g id="link_SensorFunctionalityMapper_SensorFunctionalityDTO"><path codeLine="107" d="M1274,350.5248 C1274,380.4248 1274,413.7648 1274,441.4248 " fill="none" id="SensorFunctionalityMapper-to-SensorFunctionalityDTO" style="stroke:#181818;stroke-width:1.0;stroke-dasharray:7.0,7.0;"/><polygon fill="#181818" points="1274,447.4248,1278,438.4248,1274,442.4248,1270,438.4248,1274,447.4248" style="stroke:#181818;stroke-width:1.0;"/><text fill="#000000" font-family="sans-serif" font-size="13" lengthAdjust="spacing" textLength="57" x="1216" y="395.0031">&#171;creates&#187;</text></g><!--link ActuatorFunctionalityMapper to ActuatorFunctionalityDTO--><g id="link_ActuatorFunctionalityMapper_ActuatorFunctionalityDTO"><path codeLine="108" d="M1670,350.5248 C1670,380.4248 1670,413.7648 1670,441.4248 " fill="none" id="ActuatorFunctionalityMapper-to-ActuatorFunctionalityDTO" style="stroke:#181818;stroke-width:1.0;stroke-dasharray:7.0,7.0;"/><polygon fill="#181818" points="1670,447.4248,1674,438.4248,1670,442.4248,1666,438.4248,1670,447.4248" style="stroke:#181818;stroke-width:1.0;"/><text fill="#000000" font-family="sans-serif" font-size="13" lengthAdjust="spacing" textLength="57" x="1612" y="395.0031">&#171;creates&#187;</text></g><!--SRC=[dLPDRzim3BthLn3TfKEJO3tE209apTe5wCVGTDXb5yLHKgsE54XoXw3eVnzbIL5YosdTcoq-FZwHeYZ3JS7WryMNhnbSCGC5rmRa4cXHm88zyvnfu08eFCfIinwib2mtR07phJV3iXIvuLBGWfijcEs6wG5C3QnBPE8YBye52zX2vjHY1qG_SR6XYgunec3M2wGoZvAG3SsVw8g1PkgPAVXqpLUFvahHBRoGlA1QmmyhvK8AesHHCFMRpT7Kjyh7HJ5negUYGdtRNkxBco4dMZEuVZ-OdAsOiVYxfOVNSAUVCxYXc-7T_2_BJG-gdtifrvE7knuu7_mSZSWh8Gdj_NudEGc6mM04DY06tZ2LmN2OAqODqnYp1Uv2TN2OCQ6bEb3KmNkScvAQT_Zx4dT8YAszErxtR2CrnoZRpEylhf0-zHBsKUF66kdhQgFxg5bjXPpvphXopL3JDHQBQt_EwqSZd8pff8UiPkXKJYSZtBaFNCzGe4Zatx8SPQGjMG-SoQgynOg7k4jr-WlvJ-0HRnIaEqcgN1zWQPIp2ySWDay62DFTlSCkFkhlz7jlGhWmJ2qfMkifXg72xz6BBLb4rRUVHZLJlOyJqZ0uiMtEHUacX1qX5xPt9voky5w__tvvVW9Km-qvQGZpbK1JGqqq9IH4exydd3jAazAWDDz3jtJDGjjE9ydEcauoIBPKk4mi81pxQWGaqRQJqZJM9VXRr8xhDMXtAr6xY-kqxz1-zKOkM16MgvzWcHbgIXrCxe_qLTMy6RWchiIuJol5B-w4X4H7AU7YS6A2tSgXwIiZWvQx97hyL19lUyEPZk2urfhs5bwxZxQGxqszcpyuF_nz_Y1nJ9y6D3h-4Rlf7NtZeBMUDj7EpsMrylB3F_gq3azBaJYTZZ5viAe02Sj1l2FZraPC5j75RCbf5JLfUpik8bg3OlSOnSNgQAeyGI9FJVTTmM9P_MrG0_eQXHhMG0ZRgtDuNo7-yBLoS8xYP6ZWsklVyhHgC1ohQEi3gy52_WC0]--></g></svg>