<?xml version="1.0" encoding="us-ascii" standalone="no"?><svg xmlns="http://www.w3.org/2000/svg" xmlns:xlink="http://www.w3.org/1999/xlink" contentStyleType="text/css" height="625.8px" preserveAspectRatio="none" style="width:1057px;height:625px;background:#FFFFFF;" version="1.1" viewBox="0 0 1057 625" width="1057.2px" zoomAndPan="magnify"><defs/><g><text fill="#000000" font-family="sans-serif" font-size="8.4" font-weight="bold" lengthAdjust="spacing" textLength="161.4" x="443.7" y="14.1211">UC12.2 - Add new Actuator to Device</text><!--cluster server--><g id="cluster_server"><path d="M5.1,26.093 L32.1,26.093 A2.25,2.25 0 0 1 33.6,27.593 L37.8,39.5859 L1051.5,39.5859 A1.5,1.5 0 0 1 1053,41.0859 L1053,620.195 A1.5,1.5 0 0 1 1051.5,621.695 L5.1,621.695 A1.5,1.5 0 0 1 3.6,620.195 L3.6,27.593 A1.5,1.5 0 0 1 5.1,26.093 " fill="#D3D3D3" style="stroke:#000000;stroke-width:0.8999999999999999;"/><line style="stroke:#000000;stroke-width:0.8999999999999999;" x1="3.6" x2="37.8" y1="39.5859" y2="39.5859"/><text fill="#000000" font-family="sans-serif" font-size="8.4" font-weight="bold" lengthAdjust="spacing" textLength="26.4" x="6" y="35.4141">server</text></g><!--class DeviceRepository--><g id="elem_DeviceRepository"><rect codeLine="7" fill="#F1F1F1" height="38.693" id="DeviceRepository" rx="1.5" ry="1.5" style="stroke:#181818;stroke-width:0.3;" width="229.2" x="739.2" y="86.663"/><ellipse cx="806.85" cy="96.263" fill="#B4A7E5" rx="6.6" ry="6.6" style="stroke:#181818;stroke-width:0.6;"/><path d="M804.4066,93.7221 L804.4066,92.4271 L808.8343,92.4271 L808.8343,93.7221 L807.3551,93.7221 L807.3551,98.568 L808.8343,98.568 L808.8343,99.863 L804.4066,99.863 L804.4066,98.568 L805.8858,98.568 L805.8858,93.7221 Z " fill="#000000"/><text fill="#000000" font-family="sans-serif" font-size="8.4" font-style="italic" lengthAdjust="spacing" textLength="70.2" x="819.15" y="99.4376">DeviceRepository</text><rect fill="#FFFFFF" height="9.6797" style="stroke:#181818;stroke-width:0.6;stroke-dasharray:2.0,2.0;" width="17.4" x="952.8" y="84.863"/><text fill="#000000" font-family="sans-serif" font-size="7.2" font-style="italic" lengthAdjust="spacing" textLength="16.2" x="953.4" y="92.4239">repo</text><line style="stroke:#181818;stroke-width:0.3;" x1="739.8" x2="967.8" y1="105.863" y2="105.863"/><line style="stroke:#181818;stroke-width:0.3;" x1="739.8" x2="967.8" y1="110.663" y2="110.663"/><ellipse cx="745.8" cy="118.9095" fill="#84BE84" rx="1.8" ry="1.8" style="stroke:#038048;stroke-width:0.6;"/><text fill="#000000" font-family="sans-serif" font-size="8.4" lengthAdjust="spacing" textLength="213.6" x="751.2" y="121.1841">findEntityByID(DeviceID deviceID): Optional&lt;Device&gt;</text></g><!--class ActuatorControllerWeb--><g id="elem_ActuatorControllerWeb"><rect codeLine="11" fill="#F1F1F1" height="68.3719" id="ActuatorControllerWeb" rx="1.5" ry="1.5" style="stroke:#181818;stroke-width:0.3;" width="326.4" x="13.2" y="71.825"/><ellipse cx="126.45" cy="81.425" fill="#ADD1B2" rx="6.6" ry="6.6" style="stroke:#181818;stroke-width:0.6;"/><path d="M128.2339,84.8108 Q127.8853,84.9901 127.5018,85.0798 Q127.1183,85.1694 126.6949,85.1694 Q125.1908,85.1694 124.3989,84.1783 Q123.607,83.1872 123.607,81.3145 Q123.607,79.4369 124.3989,78.4458 Q125.1908,77.4547 126.6949,77.4547 Q127.1183,77.4547 127.5067,77.5443 Q127.8952,77.634 128.2339,77.8132 L128.2339,79.4468 Q127.8554,79.0982 127.4993,78.9363 Q127.1432,78.7745 126.7646,78.7745 Q125.9578,78.7745 125.5469,79.4145 Q125.136,80.0545 125.136,81.3145 Q125.136,82.5696 125.5469,83.2096 Q125.9578,83.8496 126.7646,83.8496 Q127.1432,83.8496 127.4993,83.6877 Q127.8554,83.5258 128.2339,83.1772 Z " fill="#000000"/><text fill="#000000" font-family="sans-serif" font-size="8.4" lengthAdjust="spacing" textLength="94.8" x="138.75" y="84.5996">ActuatorControllerWeb</text><line style="stroke:#181818;stroke-width:0.3;" x1="13.8" x2="339" y1="91.025" y2="91.025"/><rect fill="none" height="3.6" style="stroke:#C82930;stroke-width:0.6;" width="3.6" x="18" y="97.4715"/><text fill="#000000" font-family="sans-serif" font-size="8.4" lengthAdjust="spacing" textLength="132" x="25.2" y="101.5461">actuatorService: ActuatorService</text><rect fill="none" height="3.6" style="stroke:#C82930;stroke-width:0.6;" width="3.6" x="18" y="107.3644"/><text fill="#000000" font-family="sans-serif" font-size="8.4" lengthAdjust="spacing" textLength="242.4" x="25.2" y="111.439">assemblerActuatorProperties:AssemblerActuatorProperties</text><line style="stroke:#181818;stroke-width:0.3;" x1="13.8" x2="339" y1="115.6109" y2="115.6109"/><ellipse cx="19.8" cy="128.8039" fill="#84BE84" rx="1.8" ry="1.8" style="stroke:#038048;stroke-width:0.6;"/><text fill="#000000" font-family="sans-serif" font-size="8.4" lengthAdjust="spacing" textLength="310.8" x="25.2" y="126.132">POST addNewActuatorToDevice (@RequestBody ActuatorDTO actuatorDTO):</text><text fill="#000000" font-family="sans-serif" font-size="8.4" lengthAdjust="spacing" textLength="262.8" x="27.6" y="136.025">ResponseEntity&lt;Object&gt; newActuatorDTO, HttpStatus.CREATED</text></g><!--class AssemblerActuatorProperties--><g id="elem_AssemblerActuatorProperties"><rect codeLine="17" fill="#F1F1F1" height="48.5859" id="AssemblerActuatorProperties" rx="1.5" ry="1.5" style="stroke:#181818;stroke-width:0.3;" width="312" x="13.2" y="354.767"/><ellipse cx="106.35" cy="364.367" fill="#ADD1B2" rx="6.6" ry="6.6" style="stroke:#181818;stroke-width:0.6;"/><path d="M108.1339,367.7528 Q107.7853,367.9321 107.4018,368.0218 Q107.0183,368.1114 106.5949,368.1114 Q105.0908,368.1114 104.2989,367.1203 Q103.507,366.1292 103.507,364.2565 Q103.507,362.3789 104.2989,361.3878 Q105.0908,360.3967 106.5949,360.3967 Q107.0183,360.3967 107.4067,360.4863 Q107.7952,360.576 108.1339,360.7553 L108.1339,362.3888 Q107.7554,362.0402 107.3993,361.8783 Q107.0432,361.7165 106.6646,361.7165 Q105.8578,361.7165 105.4469,362.3565 Q105.036,362.9965 105.036,364.2565 Q105.036,365.5116 105.4469,366.1516 Q105.8578,366.7916 106.6646,366.7916 Q107.0432,366.7916 107.3993,366.6297 Q107.7554,366.4678 108.1339,366.1192 Z " fill="#000000"/><text fill="#000000" font-family="sans-serif" font-size="8.4" lengthAdjust="spacing" textLength="120.6" x="118.65" y="367.5416">AssemblerActuatorProperties</text><line style="stroke:#181818;stroke-width:0.3;" x1="13.8" x2="324.6" y1="373.967" y2="373.967"/><line style="stroke:#181818;stroke-width:0.3;" x1="13.8" x2="324.6" y1="378.767" y2="378.767"/><ellipse cx="19.8" cy="391.9599" fill="#84BE84" rx="1.8" ry="1.8" style="stroke:#038048;stroke-width:0.6;"/><text fill="#000000" font-family="sans-serif" font-size="8.4" lengthAdjust="spacing" textLength="294" x="25.2" y="389.2881">createActuatorPropertiesFromActuatorDTO(ActuatorDTO actuatorDTO):</text><text fill="#000000" font-family="sans-serif" font-size="8.4" lengthAdjust="spacing" textLength="156" x="27.6" y="399.181">ActuatorProperties actuatorProperties</text></g><!--class ActuatorService--><g id="elem_ActuatorService"><rect codeLine="21" fill="#F1F1F1" height="117.8367" id="ActuatorService" rx="1.5" ry="1.5" style="stroke:#181818;stroke-width:0.3;" width="283.2" x="435" y="47.093"/><ellipse cx="541.95" cy="56.693" fill="#ADD1B2" rx="6.6" ry="6.6" style="stroke:#181818;stroke-width:0.6;"/><path d="M543.7339,60.0788 Q543.3853,60.2581 543.0018,60.3478 Q542.6183,60.4374 542.1949,60.4374 Q540.6908,60.4374 539.8989,59.4463 Q539.107,58.4552 539.107,56.5825 Q539.107,54.7049 539.8989,53.7138 Q540.6908,52.7227 542.1949,52.7227 Q542.6183,52.7227 543.0067,52.8123 Q543.3952,52.902 543.7339,53.0813 L543.7339,54.7148 Q543.3554,54.3662 542.9993,54.2043 Q542.6432,54.0425 542.2646,54.0425 Q541.4578,54.0425 541.0469,54.6825 Q540.636,55.3225 540.636,56.5825 Q540.636,57.8376 541.0469,58.4776 Q541.4578,59.1176 542.2646,59.1176 Q542.6432,59.1176 542.9993,58.9557 Q543.3554,58.7938 543.7339,58.4452 Z " fill="#000000"/><text fill="#000000" font-family="sans-serif" font-size="8.4" lengthAdjust="spacing" textLength="64.2" x="554.25" y="59.8676">ActuatorService</text><line style="stroke:#181818;stroke-width:0.3;" x1="435.6" x2="717.6" y1="66.293" y2="66.293"/><rect fill="none" height="3.6" style="stroke:#C82930;stroke-width:0.6;" width="3.6" x="439.8" y="72.7395"/><text fill="#000000" font-family="sans-serif" font-size="8.4" lengthAdjust="spacing" textLength="133.8" x="447" y="76.8141">factoryActuator: FactoryActuator</text><rect fill="none" height="3.6" style="stroke:#C82930;stroke-width:0.6;" width="3.6" x="439.8" y="82.6324"/><text fill="#000000" font-family="sans-serif" font-size="8.4" lengthAdjust="spacing" textLength="162" x="447" y="86.707">actuatorRepository: ActuatorRepository</text><rect fill="none" height="3.6" style="stroke:#C82930;stroke-width:0.6;" width="3.6" x="439.8" y="92.5254"/><text fill="#000000" font-family="sans-serif" font-size="8.4" lengthAdjust="spacing" textLength="121.8" x="447" y="96.6">deviceRepository: DeviceRepo</text><rect fill="none" height="3.6" style="stroke:#C82930;stroke-width:0.6;" width="3.6" x="439.8" y="102.4184"/><text fill="#000000" font-family="sans-serif" font-size="8.4" lengthAdjust="spacing" textLength="267.6" x="447" y="106.493">actuatorFunctionalityRepository: ActuatorFunctionalityRepository</text><line style="stroke:#181818;stroke-width:0.3;" x1="435.6" x2="717.6" y1="110.6648" y2="110.6648"/><ellipse cx="441.6" cy="138.6973" fill="#84BE84" rx="1.8" ry="1.8" style="stroke:#038048;stroke-width:0.6;"/><text fill="#000000" font-family="sans-serif" font-size="8.4" lengthAdjust="spacing" textLength="96" x="447" y="121.1859">createActuatorAndSave</text><text fill="#000000" font-family="sans-serif" font-size="8.4" lengthAdjust="spacing" textLength="199.8" x="447" y="131.0789">(ActuatorFunctionalityID actuatorFunctionalityID,</text><text fill="#000000" font-family="sans-serif" font-size="8.4" lengthAdjust="spacing" textLength="91.2" x="449.4" y="140.9719">ActuatorID actuatorID,</text><text fill="#000000" font-family="sans-serif" font-size="8.4" lengthAdjust="spacing" textLength="158.4" x="449.4" y="150.8648">ActuatorProperties actuatorProperties,</text><text fill="#000000" font-family="sans-serif" font-size="8.4" lengthAdjust="spacing" textLength="123" x="449.4" y="160.7578">DeviceID deviceID): ActuatorID</text></g><!--class FactoryActuator--><g id="elem_FactoryActuator"><rect codeLine="29" fill="#F1F1F1" height="58.4789" id="FactoryActuator" rx="1.5" ry="1.5" style="stroke:#181818;stroke-width:0.3;" width="278.4" x="277.8" y="225.659"/><ellipse cx="368.85" cy="235.259" fill="#ADD1B2" rx="6.6" ry="6.6" style="stroke:#181818;stroke-width:0.6;"/><path d="M370.6339,238.6448 Q370.2853,238.8241 369.9018,238.9138 Q369.5183,239.0034 369.0949,239.0034 Q367.5908,239.0034 366.7989,238.0123 Q366.007,237.0212 366.007,235.1485 Q366.007,233.2709 366.7989,232.2798 Q367.5908,231.2887 369.0949,231.2887 Q369.5183,231.2887 369.9067,231.3783 Q370.2952,231.468 370.6339,231.6472 L370.6339,233.2808 Q370.2554,232.9322 369.8993,232.7703 Q369.5432,232.6085 369.1646,232.6085 Q368.3578,232.6085 367.9469,233.2485 Q367.536,233.8885 367.536,235.1485 Q367.536,236.4036 367.9469,237.0436 Q368.3578,237.6836 369.1646,237.6836 Q369.5432,237.6836 369.8993,237.5217 Q370.2554,237.3598 370.6339,237.0112 Z " fill="#000000"/><text fill="#000000" font-family="sans-serif" font-size="8.4" lengthAdjust="spacing" textLength="65.4" x="381.15" y="238.4336">FactoryActuator</text><rect fill="#FFFFFF" height="9.6797" style="stroke:#181818;stroke-width:0.6;stroke-dasharray:2.0,2.0;" width="24.6" x="533.4" y="223.859"/><text fill="#000000" font-family="sans-serif" font-size="7.2" font-style="italic" lengthAdjust="spacing" textLength="23.4" x="534" y="231.4199">factory</text><line style="stroke:#181818;stroke-width:0.3;" x1="278.4" x2="555.6" y1="244.859" y2="244.859"/><line style="stroke:#181818;stroke-width:0.3;" x1="278.4" x2="555.6" y1="249.659" y2="249.659"/><ellipse cx="284.4" cy="267.7984" fill="#84BE84" rx="1.8" ry="1.8" style="stroke:#038048;stroke-width:0.6;"/><text fill="#000000" font-family="sans-serif" font-size="8.4" lengthAdjust="spacing" textLength="260.4" x="289.8" y="260.1801">createActuator(ActuatorFunctionalityID actuatorFunctionalityID,</text><text fill="#000000" font-family="sans-serif" font-size="8.4" lengthAdjust="spacing" textLength="252" x="292.2" y="270.073">ActuatorID actuatorID, ActuatorProperties actuatorProperties,</text><text fill="#000000" font-family="sans-serif" font-size="8.4" lengthAdjust="spacing" textLength="202.2" x="292.2" y="279.966">DeviceID deviceID, String actuatorClass): Actuator</text></g><!--class Actuator--><g id="elem_Actuator"><rect codeLine="33" fill="#F1F1F1" height="68.3719" id="Actuator" rx="1.5" ry="1.5" style="stroke:#181818;stroke-width:0.3;" width="212.4" x="532.2" y="344.873"/><ellipse cx="610.05" cy="354.473" fill="#A9DCDF" rx="6.6" ry="6.6" style="stroke:#181818;stroke-width:0.6;"/><path d="M610.118,351.6819 L609.4257,354.7249 L610.8152,354.7249 Z M609.2215,350.3371 L611.0194,350.3371 L613.0266,357.773 L611.5573,357.773 L611.0991,355.9352 L609.1318,355.9352 L608.6836,357.773 L607.2144,357.773 Z " fill="#000000"/><text fill="#000000" font-family="sans-serif" font-size="8.4" font-style="italic" lengthAdjust="spacing" textLength="35.4" x="622.35" y="357.6476">Actuator</text><rect fill="#FFFFFF" height="9.6797" style="stroke:#181818;stroke-width:0.6;stroke-dasharray:2.0,2.0;" width="15" x="731.4" y="343.073"/><text fill="#000000" font-family="sans-serif" font-size="7.2" font-style="italic" lengthAdjust="spacing" textLength="13.8" x="732" y="350.6339">root</text><line style="stroke:#181818;stroke-width:0.3;" x1="532.8" x2="744" y1="364.073" y2="364.073"/><rect fill="none" height="3.6" style="stroke:#C82930;stroke-width:0.6;" width="3.6" x="537" y="370.5195"/><text fill="#000000" font-family="sans-serif" font-size="8.4" lengthAdjust="spacing" textLength="106.2" x="544.2" y="374.5941">actuatorName: ActuatorID</text><rect fill="none" height="3.6" style="stroke:#C82930;stroke-width:0.6;" width="3.6" x="537" y="380.4124"/><text fill="#000000" font-family="sans-serif" font-size="8.4" lengthAdjust="spacing" textLength="196.8" x="544.2" y="384.487">actuatorFunctionalityID: ActuatorFunctionalityID</text><rect fill="none" height="3.6" style="stroke:#C82930;stroke-width:0.6;" width="3.6" x="537" y="390.3054"/><text fill="#000000" font-family="sans-serif" font-size="8.4" lengthAdjust="spacing" textLength="158.4" x="544.2" y="394.38">actuatorProperties: ActuatorProperties</text><rect fill="none" height="3.6" style="stroke:#C82930;stroke-width:0.6;" width="3.6" x="537" y="400.1984"/><text fill="#000000" font-family="sans-serif" font-size="8.4" lengthAdjust="spacing" textLength="88.8" x="544.2" y="404.273">deviceName: DeviceID</text><line style="stroke:#181818;stroke-width:0.3;" x1="532.8" x2="744" y1="408.4448" y2="408.4448"/></g><!--class ActuatorRepository--><g id="elem_ActuatorRepository"><rect codeLine="40" fill="#F1F1F1" height="48.5859" id="ActuatorRepository" rx="1.5" ry="1.5" style="stroke:#181818;stroke-width:0.3;" width="223.8" x="577.5" y="230.609"/><ellipse cx="647.25" cy="240.209" fill="#B4A7E5" rx="6.6" ry="6.6" style="stroke:#181818;stroke-width:0.6;"/><path d="M644.8066,237.6681 L644.8066,236.3731 L649.2343,236.3731 L649.2343,237.6681 L647.7551,237.6681 L647.7551,242.514 L649.2343,242.514 L649.2343,243.809 L644.8066,243.809 L644.8066,242.514 L646.2858,242.514 L646.2858,237.6681 Z " fill="#000000"/><text fill="#000000" font-family="sans-serif" font-size="8.4" font-style="italic" lengthAdjust="spacing" textLength="79.2" x="659.55" y="243.3836">ActuatorRepository</text><line style="stroke:#181818;stroke-width:0.3;" x1="578.1" x2="800.7" y1="249.809" y2="249.809"/><line style="stroke:#181818;stroke-width:0.3;" x1="578.1" x2="800.7" y1="254.609" y2="254.609"/><ellipse cx="584.1" cy="262.8555" fill="#84BE84" rx="1.8" ry="1.8" style="stroke:#038048;stroke-width:0.6;"/><text fill="#000000" font-family="sans-serif" font-size="8.4" lengthAdjust="spacing" textLength="208.2" x="589.5" y="265.1301">containsEntityByID(ActuatorID actuatorID): boolean</text><ellipse cx="584.1" cy="272.7484" fill="#84BE84" rx="1.8" ry="1.8" style="stroke:#038048;stroke-width:0.6;"/><text fill="#000000" font-family="sans-serif" font-size="8.4" lengthAdjust="spacing" textLength="136.2" x="589.5" y="275.023">save(Actuator actuator): Actuator</text></g><!--class ActuatorFunctionalityRepository--><g id="elem_ActuatorFunctionalityRepository"><rect codeLine="45" fill="#F1F1F1" height="58.4789" id="ActuatorFunctionalityRepository" rx="1.5" ry="1.5" style="stroke:#181818;stroke-width:0.3;" width="220.8" x="822.6" y="225.659"/><ellipse cx="855.15" cy="235.259" fill="#B4A7E5" rx="6.6" ry="6.6" style="stroke:#181818;stroke-width:0.6;"/><path d="M852.7066,232.7181 L852.7066,231.4231 L857.1343,231.4231 L857.1343,232.7181 L855.6551,232.7181 L855.6551,237.564 L857.1343,237.564 L857.1343,238.859 L852.7066,238.859 L852.7066,237.564 L854.1858,237.564 L854.1858,232.7181 Z " fill="#000000"/><text fill="#000000" font-family="sans-serif" font-size="8.4" font-style="italic" lengthAdjust="spacing" textLength="132" x="867.45" y="238.4336">ActuatorFunctionalityRepository</text><rect fill="#FFFFFF" height="9.6797" style="stroke:#181818;stroke-width:0.6;stroke-dasharray:2.0,2.0;" width="17.4" x="1027.8" y="223.859"/><text fill="#000000" font-family="sans-serif" font-size="7.2" font-style="italic" lengthAdjust="spacing" textLength="16.2" x="1028.4" y="231.4199">repo</text><line style="stroke:#181818;stroke-width:0.3;" x1="823.2" x2="1042.8" y1="244.859" y2="244.859"/><line style="stroke:#181818;stroke-width:0.3;" x1="823.2" x2="1042.8" y1="249.659" y2="249.659"/><ellipse cx="829.2" cy="267.7984" fill="#84BE84" rx="1.8" ry="1.8" style="stroke:#038048;stroke-width:0.6;"/><text fill="#000000" font-family="sans-serif" font-size="8.4" lengthAdjust="spacing" textLength="168.6" x="834.6" y="260.1801">getClassNameForActuatorFunctionalityID</text><text fill="#000000" font-family="sans-serif" font-size="8.4" lengthAdjust="spacing" textLength="202.8" x="834.6" y="270.073">(ActuatorFunctionalityID actuatorFunctionalityID):</text><text fill="#000000" font-family="sans-serif" font-size="8.4" lengthAdjust="spacing" textLength="46.8" x="834.6" y="279.966">String class</text></g><!--class ActuatorID--><g id="elem_ActuatorID"><rect codeLine="49" fill="#F1F1F1" height="38.693" id="ActuatorID" rx="1.5" ry="1.5" style="stroke:#181818;stroke-width:0.3;" width="90" x="657" y="464.081"/><ellipse cx="672.48" cy="473.681" fill="#ADD1B2" rx="6.6" ry="6.6" style="stroke:#181818;stroke-width:0.6;"/><path d="M674.2639,477.0668 Q673.9153,477.2461 673.5318,477.3358 Q673.1483,477.4254 672.7249,477.4254 Q671.2208,477.4254 670.4289,476.4343 Q669.637,475.4432 669.637,473.5705 Q669.637,471.6929 670.4289,470.7018 Q671.2208,469.7107 672.7249,469.7107 Q673.1483,469.7107 673.5367,469.8003 Q673.9252,469.89 674.2639,470.0692 L674.2639,471.7028 Q673.8854,471.3542 673.5293,471.1923 Q673.1732,471.0305 672.7946,471.0305 Q671.9878,471.0305 671.5769,471.6705 Q671.166,472.3105 671.166,473.5705 Q671.166,474.8256 671.5769,475.4656 Q671.9878,476.1056 672.7946,476.1056 Q673.1732,476.1056 673.5293,475.9437 Q673.8854,475.7818 674.2639,475.4332 Z " fill="#000000"/><text fill="#000000" font-family="sans-serif" font-size="8.4" lengthAdjust="spacing" textLength="43.8" x="682.32" y="476.8556">ActuatorID</text><rect fill="#FFFFFF" height="9.6797" style="stroke:#181818;stroke-width:0.6;stroke-dasharray:2.0,2.0;" width="11.4" x="737.4" y="462.281"/><text fill="#000000" font-family="sans-serif" font-size="7.2" font-style="italic" lengthAdjust="spacing" textLength="10.2" x="738" y="469.8419">VO</text><line style="stroke:#181818;stroke-width:0.3;" x1="657.6" x2="746.4" y1="483.281" y2="483.281"/><rect fill="none" height="3.6" style="stroke:#C82930;stroke-width:0.6;" width="3.6" x="661.8" y="489.7275"/><text fill="#000000" font-family="sans-serif" font-size="8.4" lengthAdjust="spacing" textLength="74.4" x="669" y="493.8021">actuatorID : String</text><line style="stroke:#181818;stroke-width:0.3;" x1="657.6" x2="746.4" y1="497.9739" y2="497.9739"/></g><!--class DeviceID--><g id="elem_DeviceID"><rect codeLine="53" fill="#F1F1F1" height="38.693" id="DeviceID" rx="1.5" ry="1.5" style="stroke:#181818;stroke-width:0.3;" width="81.6" x="398.4" y="464.081"/><ellipse cx="414.15" cy="473.681" fill="#ADD1B2" rx="6.6" ry="6.6" style="stroke:#181818;stroke-width:0.6;"/><path d="M415.9339,477.0668 Q415.5853,477.2461 415.2018,477.3358 Q414.8183,477.4254 414.3949,477.4254 Q412.8908,477.4254 412.0989,476.4343 Q411.307,475.4432 411.307,473.5705 Q411.307,471.6929 412.0989,470.7018 Q412.8908,469.7107 414.3949,469.7107 Q414.8183,469.7107 415.2067,469.8003 Q415.5952,469.89 415.9339,470.0692 L415.9339,471.7028 Q415.5554,471.3542 415.1993,471.1923 Q414.8432,471.0305 414.4646,471.0305 Q413.6578,471.0305 413.2469,471.6705 Q412.836,472.3105 412.836,473.5705 Q412.836,474.8256 413.2469,475.4656 Q413.6578,476.1056 414.4646,476.1056 Q414.8432,476.1056 415.1993,475.9437 Q415.5554,475.7818 415.9339,475.4332 Z " fill="#000000"/><text fill="#000000" font-family="sans-serif" font-size="8.4" lengthAdjust="spacing" textLength="34.8" x="424.05" y="476.8556">DeviceID</text><rect fill="#FFFFFF" height="9.6797" style="stroke:#181818;stroke-width:0.6;stroke-dasharray:2.0,2.0;" width="11.4" x="470.4" y="462.281"/><text fill="#000000" font-family="sans-serif" font-size="7.2" font-style="italic" lengthAdjust="spacing" textLength="10.2" x="471" y="469.8419">VO</text><line style="stroke:#181818;stroke-width:0.3;" x1="399" x2="479.4" y1="483.281" y2="483.281"/><rect fill="none" height="3.6" style="stroke:#C82930;stroke-width:0.6;" width="3.6" x="403.2" y="489.7275"/><text fill="#000000" font-family="sans-serif" font-size="8.4" lengthAdjust="spacing" textLength="66" x="410.4" y="493.8021">deviceID : String</text><line style="stroke:#181818;stroke-width:0.3;" x1="399" x2="479.4" y1="497.9739" y2="497.9739"/></g><!--class ActuatorFunctionalityID--><g id="elem_ActuatorFunctionalityID"><rect codeLine="57" fill="#F1F1F1" height="38.693" id="ActuatorFunctionalityID" rx="1.5" ry="1.5" style="stroke:#181818;stroke-width:0.3;" width="142.8" x="368.4" y="359.711"/><ellipse cx="383.88" cy="369.311" fill="#ADD1B2" rx="6.6" ry="6.6" style="stroke:#181818;stroke-width:0.6;"/><path d="M385.6639,372.6968 Q385.3153,372.8761 384.9318,372.9658 Q384.5483,373.0554 384.1249,373.0554 Q382.6208,373.0554 381.8289,372.0643 Q381.037,371.0732 381.037,369.2005 Q381.037,367.3229 381.8289,366.3318 Q382.6208,365.3407 384.1249,365.3407 Q384.5483,365.3407 384.9367,365.4303 Q385.3252,365.52 385.6639,365.6992 L385.6639,367.3328 Q385.2854,366.9842 384.9293,366.8223 Q384.5732,366.6605 384.1946,366.6605 Q383.3878,366.6605 382.9769,367.3005 Q382.566,367.9405 382.566,369.2005 Q382.566,370.4556 382.9769,371.0956 Q383.3878,371.7356 384.1946,371.7356 Q384.5732,371.7356 384.9293,371.5737 Q385.2854,371.4118 385.6639,371.0632 Z " fill="#000000"/><text fill="#000000" font-family="sans-serif" font-size="8.4" lengthAdjust="spacing" textLength="96.6" x="393.72" y="372.4856">ActuatorFunctionalityID</text><rect fill="#FFFFFF" height="9.6797" style="stroke:#181818;stroke-width:0.6;stroke-dasharray:2.0,2.0;" width="11.4" x="501.6" y="357.911"/><text fill="#000000" font-family="sans-serif" font-size="7.2" font-style="italic" lengthAdjust="spacing" textLength="10.2" x="502.2" y="365.4719">VO</text><line style="stroke:#181818;stroke-width:0.3;" x1="369" x2="510.6" y1="378.911" y2="378.911"/><rect fill="none" height="3.6" style="stroke:#C82930;stroke-width:0.6;" width="3.6" x="373.2" y="385.3575"/><text fill="#000000" font-family="sans-serif" font-size="8.4" lengthAdjust="spacing" textLength="127.2" x="380.4" y="389.4321">actuatorFunctionalityID : String</text><line style="stroke:#181818;stroke-width:0.3;" x1="369" x2="510.6" y1="393.6039" y2="393.6039"/></g><!--class ActuatorProperties--><g id="elem_ActuatorProperties"><rect codeLine="61" fill="#F1F1F1" height="68.3719" id="ActuatorProperties" rx="1.5" ry="1.5" style="stroke:#181818;stroke-width:0.3;" width="156" x="126.6" y="449.243"/><ellipse cx="157.05" cy="458.843" fill="#ADD1B2" rx="6.6" ry="6.6" style="stroke:#181818;stroke-width:0.6;"/><path d="M158.8339,462.2288 Q158.4853,462.4081 158.1018,462.4978 Q157.7183,462.5874 157.2949,462.5874 Q155.7908,462.5874 154.9989,461.5963 Q154.207,460.6052 154.207,458.7325 Q154.207,456.8549 154.9989,455.8638 Q155.7908,454.8727 157.2949,454.8727 Q157.7183,454.8727 158.1067,454.9623 Q158.4952,455.052 158.8339,455.2312 L158.8339,456.8648 Q158.4554,456.5162 158.0993,456.3543 Q157.7432,456.1925 157.3646,456.1925 Q156.5578,456.1925 156.1469,456.8325 Q155.736,457.4725 155.736,458.7325 Q155.736,459.9876 156.1469,460.6276 Q156.5578,461.2676 157.3646,461.2676 Q157.7432,461.2676 158.0993,461.1057 Q158.4554,460.9438 158.8339,460.5952 Z " fill="#000000"/><text fill="#000000" font-family="sans-serif" font-size="8.4" lengthAdjust="spacing" textLength="77.4" x="169.35" y="462.0176">ActuatorProperties</text><rect fill="#FFFFFF" height="9.6797" style="stroke:#181818;stroke-width:0.6;stroke-dasharray:2.0,2.0;" width="11.4" x="273" y="447.443"/><text fill="#000000" font-family="sans-serif" font-size="7.2" font-style="italic" lengthAdjust="spacing" textLength="10.2" x="273.6" y="455.0039">VO</text><line style="stroke:#181818;stroke-width:0.3;" x1="127.2" x2="282" y1="468.443" y2="468.443"/><rect fill="none" height="3.6" style="stroke:#C82930;stroke-width:0.6;" width="3.6" x="131.4" y="474.8895"/><text fill="#000000" font-family="sans-serif" font-size="8.4" lengthAdjust="spacing" textLength="76.2" x="138.6" y="478.9641">rangeInt: RangeInt</text><rect fill="none" height="3.6" style="stroke:#C82930;stroke-width:0.6;" width="3.6" x="131.4" y="484.7824"/><text fill="#000000" font-family="sans-serif" font-size="8.4" lengthAdjust="spacing" textLength="119.4" x="138.6" y="488.857">rangeDecimal: RangeDecimal</text><line style="stroke:#181818;stroke-width:0.3;" x1="127.2" x2="282" y1="493.0289" y2="493.0289"/><ellipse cx="133.2" cy="501.2754" fill="#84BE84" rx="1.8" ry="1.8" style="stroke:#038048;stroke-width:0.6;"/><text fill="#000000" font-family="sans-serif" font-size="8.4" lengthAdjust="spacing" textLength="97.2" x="138.6" y="503.55">getRangeInt(): RangeInt</text><ellipse cx="133.2" cy="511.1684" fill="#84BE84" rx="1.8" ry="1.8" style="stroke:#038048;stroke-width:0.6;"/><text fill="#000000" font-family="sans-serif" font-size="8.4" lengthAdjust="spacing" textLength="140.4" x="138.6" y="513.443">getRangeDecimal(): RangeDecimal</text></g><!--class RangeInt--><g id="elem_RangeInt"><rect codeLine="68" fill="#F1F1F1" height="48.5859" id="RangeInt" rx="1.5" ry="1.5" style="stroke:#181818;stroke-width:0.3;" width="86.4" x="69.6" y="558.563"/><ellipse cx="86.7" cy="568.163" fill="#ADD1B2" rx="6.6" ry="6.6" style="stroke:#181818;stroke-width:0.6;"/><path d="M88.4839,571.5488 Q88.1353,571.7281 87.7518,571.8178 Q87.3683,571.9074 86.9449,571.9074 Q85.4408,571.9074 84.6489,570.9163 Q83.857,569.9252 83.857,568.0525 Q83.857,566.1749 84.6489,565.1838 Q85.4408,564.1927 86.9449,564.1927 Q87.3683,564.1927 87.7567,564.2823 Q88.1452,564.372 88.4839,564.5513 L88.4839,566.1848 Q88.1054,565.8362 87.7493,565.6743 Q87.3932,565.5125 87.0146,565.5125 Q86.2078,565.5125 85.7969,566.1525 Q85.386,566.7925 85.386,568.0525 Q85.386,569.3076 85.7969,569.9476 Q86.2078,570.5876 87.0146,570.5876 Q87.3932,570.5876 87.7493,570.4257 Q88.1054,570.2638 88.4839,569.9152 Z " fill="#000000"/><text fill="#000000" font-family="sans-serif" font-size="8.4" lengthAdjust="spacing" textLength="36.6" x="96.9" y="571.3376">RangeInt</text><rect fill="#FFFFFF" height="9.6797" style="stroke:#181818;stroke-width:0.6;stroke-dasharray:2.0,2.0;" width="11.4" x="146.4" y="556.763"/><text fill="#000000" font-family="sans-serif" font-size="7.2" font-style="italic" lengthAdjust="spacing" textLength="10.2" x="147" y="564.3239">VO</text><line style="stroke:#181818;stroke-width:0.3;" x1="70.2" x2="155.4" y1="577.763" y2="577.763"/><rect fill="none" height="3.6" style="stroke:#C82930;stroke-width:0.6;" width="3.6" x="74.4" y="584.2095"/><text fill="#000000" font-family="sans-serif" font-size="8.4" lengthAdjust="spacing" textLength="70.8" x="81.6" y="588.2841">upperLimitInt: int</text><rect fill="none" height="3.6" style="stroke:#C82930;stroke-width:0.6;" width="3.6" x="74.4" y="594.1024"/><text fill="#000000" font-family="sans-serif" font-size="8.4" lengthAdjust="spacing" textLength="69" x="81.6" y="598.177">lowerLimitInt: int</text><line style="stroke:#181818;stroke-width:0.3;" x1="70.2" x2="155.4" y1="602.3489" y2="602.3489"/></g><!--class RangeDecimal--><g id="elem_RangeDecimal"><rect codeLine="73" fill="#F1F1F1" height="58.4789" id="RangeDecimal" rx="1.5" ry="1.5" style="stroke:#181818;stroke-width:0.3;" width="126" x="177" y="553.619"/><ellipse cx="202.2" cy="563.219" fill="#ADD1B2" rx="6.6" ry="6.6" style="stroke:#181818;stroke-width:0.6;"/><path d="M203.9839,566.6048 Q203.6353,566.7841 203.2518,566.8738 Q202.8683,566.9634 202.4449,566.9634 Q200.9408,566.9634 200.1489,565.9723 Q199.357,564.9812 199.357,563.1085 Q199.357,561.2309 200.1489,560.2398 Q200.9408,559.2487 202.4449,559.2487 Q202.8683,559.2487 203.2567,559.3383 Q203.6452,559.428 203.9839,559.6072 L203.9839,561.2408 Q203.6054,560.8922 203.2493,560.7303 Q202.8932,560.5685 202.5146,560.5685 Q201.7078,560.5685 201.2969,561.2085 Q200.886,561.8485 200.886,563.1085 Q200.886,564.3636 201.2969,565.0036 Q201.7078,565.6436 202.5146,565.6436 Q202.8932,565.6436 203.2493,565.4817 Q203.6054,565.3198 203.9839,564.9712 Z " fill="#000000"/><text fill="#000000" font-family="sans-serif" font-size="8.4" lengthAdjust="spacing" textLength="58.2" x="214.2" y="566.3936">RangeDecimal</text><rect fill="#FFFFFF" height="9.6797" style="stroke:#181818;stroke-width:0.6;stroke-dasharray:2.0,2.0;" width="11.4" x="293.4" y="551.819"/><text fill="#000000" font-family="sans-serif" font-size="7.2" font-style="italic" lengthAdjust="spacing" textLength="10.2" x="294" y="559.3799">VO</text><line style="stroke:#181818;stroke-width:0.3;" x1="177.6" x2="302.4" y1="572.819" y2="572.819"/><rect fill="none" height="3.6" style="stroke:#C82930;stroke-width:0.6;" width="3.6" x="181.8" y="579.2655"/><text fill="#000000" font-family="sans-serif" font-size="8.4" lengthAdjust="spacing" textLength="110.4" x="189" y="583.3401">upperLimitDecimal: double</text><rect fill="none" height="3.6" style="stroke:#C82930;stroke-width:0.6;" width="3.6" x="181.8" y="589.1584"/><text fill="#000000" font-family="sans-serif" font-size="8.4" lengthAdjust="spacing" textLength="108.6" x="189" y="593.233">lowerLimitDecimal: double</text><rect fill="none" height="3.6" style="stroke:#C82930;stroke-width:0.6;" width="3.6" x="181.8" y="599.0514"/><text fill="#000000" font-family="sans-serif" font-size="8.4" lengthAdjust="spacing" textLength="53.4" x="189" y="603.126">precision: int</text><line style="stroke:#181818;stroke-width:0.3;" x1="177.6" x2="302.4" y1="607.2979" y2="607.2979"/></g><!--class ActuatorDTO--><g id="elem_ActuatorDTO"><rect codeLine="79" fill="#F1F1F1" height="107.9438" id="ActuatorDTO" rx="1.5" ry="1.5" style="stroke:#181818;stroke-width:0.3;" width="155.4" x="79.5" y="200.927"/><ellipse cx="127.95" cy="210.527" fill="#ADD1B2" rx="6.6" ry="6.6" style="stroke:#181818;stroke-width:0.6;"/><path d="M129.7339,213.9128 Q129.3853,214.0921 129.0018,214.1818 Q128.6183,214.2714 128.1949,214.2714 Q126.6908,214.2714 125.8989,213.2803 Q125.107,212.2892 125.107,210.4165 Q125.107,208.5389 125.8989,207.5478 Q126.6908,206.5567 128.1949,206.5567 Q128.6183,206.5567 129.0067,206.6463 Q129.3952,206.736 129.7339,206.9153 L129.7339,208.5488 Q129.3554,208.2002 128.9993,208.0383 Q128.6432,207.8765 128.2646,207.8765 Q127.4578,207.8765 127.0469,208.5165 Q126.636,209.1565 126.636,210.4165 Q126.636,211.6716 127.0469,212.3116 Q127.4578,212.9516 128.2646,212.9516 Q128.6432,212.9516 128.9993,212.7897 Q129.3554,212.6278 129.7339,212.2792 Z " fill="#000000"/><text fill="#000000" font-family="sans-serif" font-size="8.4" lengthAdjust="spacing" textLength="53.4" x="140.25" y="213.7016">ActuatorDTO</text><line style="stroke:#181818;stroke-width:0.3;" x1="80.1" x2="234.3" y1="220.127" y2="220.127"/><rect fill="none" height="3.6" style="stroke:#C82930;stroke-width:0.6;" width="3.6" x="84.3" y="226.5735"/><text fill="#000000" font-family="sans-serif" font-size="8.4" lengthAdjust="spacing" textLength="87" x="91.5" y="230.6481">actuatorName: String</text><rect fill="none" height="3.6" style="stroke:#C82930;stroke-width:0.6;" width="3.6" x="84.3" y="236.4664"/><text fill="#000000" font-family="sans-serif" font-size="8.4" lengthAdjust="spacing" textLength="139.8" x="91.5" y="240.541">actuatorFunctionalityName: String</text><rect fill="none" height="3.6" style="stroke:#C82930;stroke-width:0.6;" width="3.6" x="84.3" y="246.3594"/><text fill="#000000" font-family="sans-serif" font-size="8.4" lengthAdjust="spacing" textLength="78.6" x="91.5" y="250.434">deviceName: String</text><rect fill="none" height="3.6" style="stroke:#C82930;stroke-width:0.6;" width="3.6" x="84.3" y="256.2524"/><text fill="#000000" font-family="sans-serif" font-size="8.4" lengthAdjust="spacing" textLength="70.8" x="91.5" y="260.327">upperLimitInt: int</text><rect fill="none" height="3.6" style="stroke:#C82930;stroke-width:0.6;" width="3.6" x="84.3" y="266.1453"/><text fill="#000000" font-family="sans-serif" font-size="8.4" lengthAdjust="spacing" textLength="69" x="91.5" y="270.2199">lowerLimitInt: int</text><rect fill="none" height="3.6" style="stroke:#C82930;stroke-width:0.6;" width="3.6" x="84.3" y="276.0383"/><text fill="#000000" font-family="sans-serif" font-size="8.4" lengthAdjust="spacing" textLength="110.4" x="91.5" y="280.1129">upperLimitDecimal: double</text><rect fill="none" height="3.6" style="stroke:#C82930;stroke-width:0.6;" width="3.6" x="84.3" y="285.9313"/><text fill="#000000" font-family="sans-serif" font-size="8.4" lengthAdjust="spacing" textLength="108.6" x="91.5" y="290.0059">lowerLimitDecimal: double</text><rect fill="none" height="3.6" style="stroke:#C82930;stroke-width:0.6;" width="3.6" x="84.3" y="295.8242"/><text fill="#000000" font-family="sans-serif" font-size="8.4" lengthAdjust="spacing" textLength="53.4" x="91.5" y="299.8988">precision: int</text><line style="stroke:#181818;stroke-width:0.3;" x1="80.1" x2="234.3" y1="304.0707" y2="304.0707"/></g><!--link ActuatorControllerWeb to ActuatorID--><g id="link_ActuatorControllerWeb_ActuatorID"><path codeLine="90" d="M256.35,140.327 C256.35,201.053 256.35,321.095 256.35,321.095 C256.35,321.095 521.7,321.095 521.7,321.095 C521.7,321.095 521.7,483.695 521.7,483.695 C521.7,483.695 599.73,483.695 653.136,483.695 " fill="none" id="ActuatorControllerWeb-to-ActuatorID" style="stroke:#181818;stroke-width:0.6;stroke-dasharray:7.0,7.0;"/><polygon fill="#181818" points="656.736,483.695,651.336,481.295,653.736,483.695,651.336,486.095,656.736,483.695" style="stroke:#181818;stroke-width:0.6;"/><text fill="#000000" font-family="sans-serif" font-size="7.8" lengthAdjust="spacing" textLength="35.4" x="411.462" y="319.036">&#171;creates&#187;</text></g><!--link ActuatorControllerWeb to ActuatorFunctionalityID--><g id="link_ActuatorControllerWeb_ActuatorFunctionalityID"><path codeLine="91" d="M267.078,140.393 C267.078,195.407 267.078,297.095 267.078,297.095 C267.078,297.095 439.8,297.095 439.8,297.095 C439.8,297.095 439.8,331.577 439.8,355.829 " fill="none" id="ActuatorControllerWeb-to-ActuatorFunctionalityID" style="stroke:#181818;stroke-width:0.6;stroke-dasharray:7.0,7.0;"/><polygon fill="#181818" points="439.8,359.429,442.2,354.029,439.8,356.429,437.4,354.029,439.8,359.429" style="stroke:#181818;stroke-width:0.6;"/><text fill="#000000" font-family="sans-serif" font-size="7.8" lengthAdjust="spacing" textLength="35.4" x="270.252" y="295.036">&#171;creates&#187;</text></g><!--link ActuatorControllerWeb to DeviceID--><g id="link_ActuatorControllerWeb_DeviceID"><path codeLine="92" d="M245.622,140.255 C245.622,203.693 245.622,333.095 245.622,333.095 C245.622,333.095 346.8,333.095 346.8,333.095 C346.8,333.095 346.8,483.695 346.8,483.695 C346.8,483.695 369.858,483.695 394.536,483.695 " fill="none" id="ActuatorControllerWeb-to-DeviceID" style="stroke:#181818;stroke-width:0.6;stroke-dasharray:7.0,7.0;"/><polygon fill="#181818" points="398.136,483.695,392.736,481.295,395.136,483.695,392.736,486.095,398.136,483.695" style="stroke:#181818;stroke-width:0.6;"/><text fill="#000000" font-family="sans-serif" font-size="7.8" lengthAdjust="spacing" textLength="35.4" x="264.756" y="331.036">&#171;creates&#187;</text></g><!--link ActuatorControllerWeb to AssemblerActuatorProperties--><g id="link_ActuatorControllerWeb_AssemblerActuatorProperties"><path codeLine="93" d="M46.35,140.315 C46.35,196.247 46.35,302.141 46.35,350.957 " fill="none" id="ActuatorControllerWeb-to-AssemblerActuatorProperties" style="stroke:#181818;stroke-width:0.6;stroke-dasharray:7.0,7.0;"/><polygon fill="#181818" points="46.35,354.557,48.75,349.157,46.35,351.557,43.95,349.157,46.35,354.557" style="stroke:#181818;stroke-width:0.6;"/><text fill="#000000" font-family="sans-serif" font-size="7.8" lengthAdjust="spacing" textLength="25.8" x="19.95" y="245.374">&#171;uses&#187;</text></g><!--link ActuatorControllerWeb to ActuatorService--><g id="link_ActuatorControllerWeb_ActuatorService"><path codeLine="94" d="M339.756,106.295 C371.256,106.295 404.016,106.295 434.766,106.295 " fill="none" id="ActuatorControllerWeb-ActuatorService" style="stroke:#181818;stroke-width:0.6;"/></g><!--link ActuatorControllerWeb to ActuatorDTO--><g id="link_ActuatorControllerWeb_ActuatorDTO"><path codeLine="95" d="M157.2,140.357 C157.2,158.303 157.2,177.089 157.2,197.291 " fill="none" id="ActuatorControllerWeb-to-ActuatorDTO" style="stroke:#181818;stroke-width:0.6;stroke-dasharray:7.0,7.0;"/><polygon fill="#181818" points="157.2,200.891,159.6,195.491,157.2,197.891,154.8,195.491,157.2,200.891" style="stroke:#181818;stroke-width:0.6;"/><text fill="#000000" font-family="sans-serif" font-size="7.8" lengthAdjust="spacing" textLength="57" x="99.6" y="168.562">&#171;uses/creates&#187;</text></g><!--link AssemblerActuatorProperties to ActuatorProperties--><g id="link_AssemblerActuatorProperties_ActuatorProperties"><path codeLine="97" d="M204.6,403.529 C204.6,417.083 204.6,430.559 204.6,445.439 " fill="none" id="AssemblerActuatorProperties-to-ActuatorProperties" style="stroke:#181818;stroke-width:0.6;stroke-dasharray:7.0,7.0;"/><polygon fill="#181818" points="204.6,449.039,207,443.639,204.6,446.039,202.2,443.639,204.6,449.039" style="stroke:#181818;stroke-width:0.6;"/><text fill="#000000" font-family="sans-serif" font-size="7.8" lengthAdjust="spacing" textLength="35.4" x="168.6" y="424.222">&#171;creates&#187;</text></g><!--link ActuatorService to FactoryActuator--><g id="link_ActuatorService_FactoryActuator"><path codeLine="99" d="M495.6,165.071 C495.6,185.771 495.6,208.139 495.6,225.371 " fill="none" id="ActuatorService-FactoryActuator" style="stroke:#181818;stroke-width:0.6;"/></g><!--link ActuatorService to ActuatorRepository--><g id="link_ActuatorService_ActuatorRepository"><path codeLine="100" d="M624.402,165.071 C624.402,187.883 624.402,212.717 624.402,230.477 " fill="none" id="ActuatorService-ActuatorRepository" style="stroke:#181818;stroke-width:0.6;"/></g><!--link ActuatorService to DeviceRepository--><g id="link_ActuatorService_DeviceRepository"><path codeLine="101" d="M718.446,106.295 C725.31,106.295 732.156,106.295 738.93,106.295 " fill="none" id="ActuatorService-DeviceRepository" style="stroke:#181818;stroke-width:0.6;"/></g><!--link ActuatorService to ActuatorFunctionalityRepository--><g id="link_ActuatorService_ActuatorFunctionalityRepository"><path codeLine="102" d="M671.298,165.197 C671.298,196.571 671.298,228.695 671.298,228.695 C671.298,228.695 750.972,228.695 822.396,228.695 " fill="none" id="ActuatorService-ActuatorFunctionalityRepository" style="stroke:#181818;stroke-width:0.6;"/></g><!--link FactoryActuator to Actuator--><g id="link_FactoryActuator_Actuator"><path codeLine="104" d="M544.2,284.327 C544.2,302.465 544.2,322.211 544.2,341.189 " fill="none" id="FactoryActuator-to-Actuator" style="stroke:#181818;stroke-width:0.6;stroke-dasharray:7.0,7.0;"/><polygon fill="#181818" points="544.2,344.789,546.6,339.389,544.2,341.789,541.8,339.389,544.2,344.789" style="stroke:#181818;stroke-width:0.6;"/><text fill="#000000" font-family="sans-serif" font-size="7.8" lengthAdjust="spacing" textLength="35.4" x="508.2" y="312.496">&#171;creates&#187;</text></g><!--link Actuator to ActuatorID--><g id="link_Actuator_ActuatorID"><path codeLine="106" d="M700.8,413.525 C700.8,430.265 700.8,449.771 700.8,463.919 " fill="none" id="Actuator-ActuatorID" style="stroke:#181818;stroke-width:0.6;"/></g><!--link Actuator to ActuatorFunctionalityID--><g id="link_Actuator_ActuatorFunctionalityID"><path codeLine="107" d="M532.122,379.295 C525.114,379.295 518.154,379.295 511.374,379.295 " fill="none" id="Actuator-ActuatorFunctionalityID" style="stroke:#181818;stroke-width:0.6;"/></g><!--link Actuator to DeviceID--><g id="link_Actuator_DeviceID"><path codeLine="108" d="M532.092,408.695 C484.626,408.695 439.2,408.695 439.2,408.695 C439.2,408.695 439.2,441.653 439.2,463.793 " fill="none" id="Actuator-DeviceID" style="stroke:#181818;stroke-width:0.6;"/></g><!--link ActuatorProperties to RangeInt--><g id="link_ActuatorProperties_RangeInt"><path codeLine="110" d="M141.3,517.649 C141.3,531.017 141.3,542.447 141.3,554.705 " fill="none" id="ActuatorProperties-to-RangeInt" style="stroke:#181818;stroke-width:0.6;"/><polygon fill="#181818" points="141.3,558.305,143.7,552.905,141.3,555.305,138.9,552.905,141.3,558.305" style="stroke:#181818;stroke-width:0.6;"/></g><!--link ActuatorProperties to RangeDecimal--><g id="link_ActuatorProperties_RangeDecimal"><path codeLine="111" d="M229.8,517.649 C229.8,529.277 229.8,538.559 229.8,549.785 " fill="none" id="ActuatorProperties-to-RangeDecimal" style="stroke:#181818;stroke-width:0.6;"/><polygon fill="#181818" points="229.8,553.385,232.2,547.985,229.8,550.385,227.4,547.985,229.8,553.385" style="stroke:#181818;stroke-width:0.6;"/></g><!--link Actuator to ActuatorProperties--><g id="link_Actuator_ActuatorProperties"><path codeLine="113" d="M594.6,413.339 C594.6,434.135 594.6,456.695 594.6,456.695 C594.6,456.695 396.666,456.695 282.816,456.695 " fill="none" id="Actuator-ActuatorProperties" style="stroke:#181818;stroke-width:0.6;"/></g><!--SRC=[jLPHRzem47xFhpXfBrHjcDR724MZKBPALQc0RIzxCScLUWrsPfjMgDf_dqFin4aSHhMDf-2xx_FTT-UpvHDbEH5a2nbbgFOv0XVgaGU1eYf3-3BvS3cyX136QGeCNs2Sg1rHN83YCCLdcc0Gv2Hv8Xi4YU8P1RoxfPj7zKcGFRm60MKAnGD9qBWlCEUIQeOzZ8J-Zby3qB_p1yhIQwPttL_jRwQ3qlbc2gdvE8jWdYlA6Sb6fJ4EVWL1aX4fgwWcd2d1imp5Drn3oHmIOrpgy3GighpDWl6I4hThZRJMUy5p58gYZCRzjZBu-_bo1IHDx_35kgnu6IKCFYxmvmwbkkBfljfxkfe3gR_FekyC5YXppYIMCepcwn-OgBYGtK5Tm6UbygKYQYU7ayNrU7KzBOG0eqH_g4OFE4y44eLTXvdWMsUdGM-ie8Fry1EVEfqQ6TLjTNHh5CrWhH7CcWlD6jRTKvUnNYjzqrQVHKxdDTbcEvQKBQNrzb7tE0GU6SSiNP9drD8Cl6ZToiI_Vk7AwRYrB4U5FdZwpapDMv-Mbi8mCZMmHx6PsBzCvozokO2b4fHjAi2aoCN9iCYFhAKIsW6QBQSd3UTAfrTL_eviiI5Es9DDJo-u26TGU18CJ3-MEzgqYc3hoTZjPB2bq0EDK2QToUYLLkkmvZn3magSrArOULP-BRMw0VJqUtDIRr0Tj2yocd7HrnvlFmY7mMAgV2XWTy1hyEZhF6vDThqQcVQe8LK7EG3RJ1xtlbWTT5_SHzYSHdU8164Rl64gWeNvSjQdcD0joOpD_AkKju31MGjS6GsYSh0CLMmMvaQqotMOjtHBrI4iQYFA-4jxlSbZsC5FLkMIyfs-bDgSNdCkzAhKwhQsSs-ZLltBisLgq3_XksxkqNJNto37VydO_vuP3cFd84Gm6fMJMiRn2OZEO3iDRe_HoTiTUKTfYfqyWWyxJxC_fwNRmVA-h-CBZhs3N7WpEfUWzLm9myxBnEFYUPDql3eFuMD4VI-Ge7s9kqdrfEBowYkeNkwzurnaTNK57ad3CAx7qJ6xdKOrTS7jkpT_0m00]--></g></svg>