<?xml version="1.0" encoding="us-ascii" standalone="no"?><svg xmlns="http://www.w3.org/2000/svg" xmlns:xlink="http://www.w3.org/1999/xlink" contentStyleType="text/css" height="536px" preserveAspectRatio="none" style="width:1116px;height:536px;background:#FFFFFF;" version="1.1" viewBox="0 0 1116 536" width="1116px" zoomAndPan="magnify"><defs/><g><text fill="#000000" font-family="sans-serif" font-size="14" font-weight="bold" lengthAdjust="spacing" textLength="260" x="421" y="25.1074">UC12.1: List Actuators Functionalities</text><!--cluster server--><g id="cluster_server"><path d="M8.5,45.6348 L56.5,45.6348 A3.75,3.75 0 0 1 59,48.1348 L66,70.2559 L1106.5,70.2559 A2.5,2.5 0 0 1 1109,72.7559 L1109,527.1348 A2.5,2.5 0 0 1 1106.5,529.6348 L8.5,529.6348 A2.5,2.5 0 0 1 6,527.1348 L6,48.1348 A2.5,2.5 0 0 1 8.5,45.6348 " fill="#D3D3D3" style="stroke:#000000;stroke-width:1.5;"/><line style="stroke:#000000;stroke-width:1.5;" x1="6" x2="66" y1="70.2559" y2="70.2559"/><text fill="#000000" font-family="sans-serif" font-size="14" font-weight="bold" lengthAdjust="spacing" textLength="47" x="10" y="62.7422">server</text></g><!--class ActuatorFunctionalityControllerWeb--><g id="elem_ActuatorFunctionalityControllerWeb"><rect codeLine="7" fill="#F1F1F1" height="103.8633" id="ActuatorFunctionalityControllerWeb" rx="2.5" ry="2.5" style="stroke:#181818;stroke-width:0.5;" width="500" x="282" y="82.6348"/><ellipse cx="415.75" cy="98.6348" fill="#ADD1B2" rx="11" ry="11" style="stroke:#181818;stroke-width:1.0;"/><path d="M418.5156,94.5098 Q418.6719,94.291 418.8594,94.1816 Q419.0469,94.0723 419.2656,94.0723 Q419.6406,94.0723 419.875,94.3379 Q420.1094,94.5879 420.1094,95.1973 L420.1094,96.6504 Q420.1094,97.2598 419.875,97.5254 Q419.6406,97.791 419.2656,97.791 Q418.9219,97.791 418.7188,97.5879 Q418.5156,97.4004 418.4063,96.8848 Q418.3594,96.5254 418.1719,96.3379 Q417.8438,95.9629 417.2344,95.7441 Q416.625,95.5254 416,95.5254 Q415.2344,95.5254 414.5938,95.8535 Q413.9688,96.1816 413.4688,96.9316 Q412.9844,97.6816 412.9844,98.7129 L412.9844,99.8066 Q412.9844,101.041 413.875,101.8691 Q414.7656,102.6816 416.3594,102.6816 Q417.2969,102.6816 417.9531,102.4316 Q418.3438,102.2754 418.7656,101.8379 Q419.0313,101.5723 419.1719,101.4941 Q419.3281,101.416 419.5313,101.416 Q419.8594,101.416 420.1094,101.6816 Q420.375,101.9316 420.375,102.2754 Q420.375,102.6191 420.0313,103.0254 Q419.5313,103.6035 418.7344,103.9316 Q417.6563,104.3848 416.3594,104.3848 Q414.8438,104.3848 413.6406,103.7598 Q412.6563,103.2598 411.9688,102.1973 Q411.2813,101.1191 411.2813,99.8379 L411.2813,98.6816 Q411.2813,97.3535 411.8906,96.2129 Q412.5156,95.0566 413.6094,94.4473 Q414.7031,93.8223 415.9375,93.8223 Q416.6719,93.8223 417.3125,93.9941 Q417.9688,94.1504 418.5156,94.5098 Z " fill="#000000"/><text fill="#000000" font-family="sans-serif" font-size="14" lengthAdjust="spacing" textLength="224" x="436.25" y="104.4316">ActuatorFunctionalityControllerWeb</text><line style="stroke:#181818;stroke-width:0.5;" x1="283" x2="781" y1="114.6348" y2="114.6348"/><rect fill="none" height="6" style="stroke:#C82930;stroke-width:1.0;" width="6" x="290" y="126.4453"/><text fill="#000000" font-family="sans-serif" font-size="14" lengthAdjust="spacing" textLength="367" x="302" y="133.7422">actuatorFunctionalityService: ActuatorFunctionalityService</text><ellipse cx="293" cy="157.377" fill="none" rx="3" ry="3" style="stroke:#038048;stroke-width:1.0;"/><text fill="#000000" font-family="sans-serif" font-size="14" lengthAdjust="spacing" textLength="416" x="302" y="152.3633">getListOfActuatorFunctionalities: ResponseEntity&lt;CollectionModel</text><text fill="#000000" font-family="sans-serif" font-size="14" lengthAdjust="spacing" textLength="474" x="302" y="170.9844">&lt;EntityModel&lt;ActuatorFunctionalityDTO&gt;&gt;&gt; collectionModel, HttpStatus.OK</text><line style="stroke:#181818;stroke-width:0.5;" x1="283" x2="781" y1="178.498" y2="178.498"/></g><!--class ActuatorFunctionalityService--><g id="elem_ActuatorFunctionalityService"><rect codeLine="12" fill="#F1F1F1" height="85.2422" id="ActuatorFunctionalityService" rx="2.5" ry="2.5" style="stroke:#181818;stroke-width:0.5;" width="435" x="22.5" y="265.1348"/><ellipse cx="145.75" cy="281.1348" fill="#ADD1B2" rx="11" ry="11" style="stroke:#181818;stroke-width:1.0;"/><path d="M148.5156,277.0098 Q148.6719,276.791 148.8594,276.6816 Q149.0469,276.5723 149.2656,276.5723 Q149.6406,276.5723 149.875,276.8379 Q150.1094,277.0879 150.1094,277.6973 L150.1094,279.1504 Q150.1094,279.7598 149.875,280.0254 Q149.6406,280.291 149.2656,280.291 Q148.9219,280.291 148.7188,280.0879 Q148.5156,279.9004 148.4063,279.3848 Q148.3594,279.0254 148.1719,278.8379 Q147.8438,278.4629 147.2344,278.2441 Q146.625,278.0254 146,278.0254 Q145.2344,278.0254 144.5938,278.3535 Q143.9688,278.6816 143.4688,279.4316 Q142.9844,280.1816 142.9844,281.2129 L142.9844,282.3066 Q142.9844,283.541 143.875,284.3691 Q144.7656,285.1816 146.3594,285.1816 Q147.2969,285.1816 147.9531,284.9316 Q148.3438,284.7754 148.7656,284.3379 Q149.0313,284.0723 149.1719,283.9941 Q149.3281,283.916 149.5313,283.916 Q149.8594,283.916 150.1094,284.1816 Q150.375,284.4316 150.375,284.7754 Q150.375,285.1191 150.0313,285.5254 Q149.5313,286.1035 148.7344,286.4316 Q147.6563,286.8848 146.3594,286.8848 Q144.8438,286.8848 143.6406,286.2598 Q142.6563,285.7598 141.9688,284.6973 Q141.2813,283.6191 141.2813,282.3379 L141.2813,281.1816 Q141.2813,279.8535 141.8906,278.7129 Q142.5156,277.5566 143.6094,276.9473 Q144.7031,276.3223 145.9375,276.3223 Q146.6719,276.3223 147.3125,276.4941 Q147.9688,276.6504 148.5156,277.0098 Z " fill="#000000"/><text fill="#000000" font-family="sans-serif" font-size="14" lengthAdjust="spacing" textLength="180" x="166.25" y="286.9316">ActuatorFunctionalityService</text><line style="stroke:#181818;stroke-width:0.5;" x1="23.5" x2="456.5" y1="297.1348" y2="297.1348"/><rect fill="none" height="6" style="stroke:#C82930;stroke-width:1.0;" width="6" x="30.5" y="308.9453"/><text fill="#000000" font-family="sans-serif" font-size="14" lengthAdjust="spacing" textLength="409" x="42.5" y="316.2422">actuatorFunctionalityRepository: ActuatorFunctionalityRepository</text><ellipse cx="33.5" cy="330.5664" fill="none" rx="3" ry="3" style="stroke:#038048;stroke-width:1.0;"/><text fill="#000000" font-family="sans-serif" font-size="14" lengthAdjust="spacing" textLength="393" x="42.5" y="334.8633">getListOfActuatorFunctionalities: List&lt;ActuatorFunctionalityID&gt;</text><line style="stroke:#181818;stroke-width:0.5;" x1="23.5" x2="456.5" y1="342.377" y2="342.377"/></g><!--class ActuatorFunctionality--><g id="elem_ActuatorFunctionality"><rect codeLine="17" fill="#F1F1F1" height="85.2422" id="ActuatorFunctionality" rx="2.5" ry="2.5" style="stroke:#181818;stroke-width:0.5;" width="325" x="22.5" y="428.6348"/><ellipse cx="101.75" cy="444.6348" fill="#ADD1B2" rx="11" ry="11" style="stroke:#181818;stroke-width:1.0;"/><path d="M104.5156,440.5098 Q104.6719,440.291 104.8594,440.1816 Q105.0469,440.0723 105.2656,440.0723 Q105.6406,440.0723 105.875,440.3379 Q106.1094,440.5879 106.1094,441.1973 L106.1094,442.6504 Q106.1094,443.2598 105.875,443.5254 Q105.6406,443.791 105.2656,443.791 Q104.9219,443.791 104.7188,443.5879 Q104.5156,443.4004 104.4063,442.8848 Q104.3594,442.5254 104.1719,442.3379 Q103.8438,441.9629 103.2344,441.7441 Q102.625,441.5254 102,441.5254 Q101.2344,441.5254 100.5938,441.8535 Q99.9688,442.1816 99.4688,442.9316 Q98.9844,443.6816 98.9844,444.7129 L98.9844,445.8066 Q98.9844,447.041 99.875,447.8691 Q100.7656,448.6816 102.3594,448.6816 Q103.2969,448.6816 103.9531,448.4316 Q104.3438,448.2754 104.7656,447.8379 Q105.0313,447.5723 105.1719,447.4941 Q105.3281,447.416 105.5313,447.416 Q105.8594,447.416 106.1094,447.6816 Q106.375,447.9316 106.375,448.2754 Q106.375,448.6191 106.0313,449.0254 Q105.5313,449.6035 104.7344,449.9316 Q103.6563,450.3848 102.3594,450.3848 Q100.8438,450.3848 99.6406,449.7598 Q98.6563,449.2598 97.9688,448.1973 Q97.2813,447.1191 97.2813,445.8379 L97.2813,444.6816 Q97.2813,443.3535 97.8906,442.2129 Q98.5156,441.0566 99.6094,440.4473 Q100.7031,439.8223 101.9375,439.8223 Q102.6719,439.8223 103.3125,439.9941 Q103.9688,440.1504 104.5156,440.5098 Z " fill="#000000"/><text fill="#000000" font-family="sans-serif" font-size="14" lengthAdjust="spacing" textLength="133" x="122.25" y="450.4316">ActuatorFunctionality</text><rect fill="#FFFFFF" height="17.9609" style="stroke:#181818;stroke-width:1.0;stroke-dasharray:2.0,2.0;" width="23" x="327.5" y="425.6348"/><text fill="#000000" font-family="sans-serif" font-size="12" font-style="italic" lengthAdjust="spacing" textLength="21" x="328.5" y="439.584">root</text><line style="stroke:#181818;stroke-width:0.5;" x1="23.5" x2="346.5" y1="460.6348" y2="460.6348"/><rect fill="none" height="6" style="stroke:#C82930;stroke-width:1.0;" width="6" x="30.5" y="472.4453"/><text fill="#000000" font-family="sans-serif" font-size="14" lengthAdjust="spacing" textLength="299" x="42.5" y="479.7422">actuatorFunctionalityID: ActuatorFunctionalityID</text><line style="stroke:#181818;stroke-width:0.5;" x1="23.5" x2="346.5" y1="487.2559" y2="487.2559"/><ellipse cx="33.5" cy="502.0664" fill="#84BE84" rx="3" ry="3" style="stroke:#038048;stroke-width:1.0;"/><text fill="#000000" font-family="sans-serif" font-size="14" lengthAdjust="spacing" textLength="209" x="42.5" y="506.3633">identity(): ActuatorFunctionalityID</text></g><!--class ActuatorFunctionalityRepository--><g id="elem_ActuatorFunctionalityRepository"><rect codeLine="22" fill="#F1F1F1" height="66.6211" id="ActuatorFunctionalityRepository" rx="2.5" ry="2.5" style="stroke:#181818;stroke-width:0.5;" width="324" x="383" y="437.6348"/><ellipse cx="425.9" cy="453.6348" fill="#ADD1B2" rx="11" ry="11" style="stroke:#181818;stroke-width:1.0;"/><path d="M428.6656,449.5098 Q428.8219,449.291 429.0094,449.1816 Q429.1969,449.0723 429.4156,449.0723 Q429.7906,449.0723 430.025,449.3379 Q430.2594,449.5879 430.2594,450.1973 L430.2594,451.6504 Q430.2594,452.2598 430.025,452.5254 Q429.7906,452.791 429.4156,452.791 Q429.0719,452.791 428.8688,452.5879 Q428.6656,452.4004 428.5563,451.8848 Q428.5094,451.5254 428.3219,451.3379 Q427.9938,450.9629 427.3844,450.7441 Q426.775,450.5254 426.15,450.5254 Q425.3844,450.5254 424.7438,450.8535 Q424.1188,451.1816 423.6188,451.9316 Q423.1344,452.6816 423.1344,453.7129 L423.1344,454.8066 Q423.1344,456.041 424.025,456.8691 Q424.9156,457.6816 426.5094,457.6816 Q427.4469,457.6816 428.1031,457.4316 Q428.4938,457.2754 428.9156,456.8379 Q429.1813,456.5723 429.3219,456.4941 Q429.4781,456.416 429.6813,456.416 Q430.0094,456.416 430.2594,456.6816 Q430.525,456.9316 430.525,457.2754 Q430.525,457.6191 430.1813,458.0254 Q429.6813,458.6035 428.8844,458.9316 Q427.8063,459.3848 426.5094,459.3848 Q424.9938,459.3848 423.7906,458.7598 Q422.8063,458.2598 422.1188,457.1973 Q421.4313,456.1191 421.4313,454.8379 L421.4313,453.6816 Q421.4313,452.3535 422.0406,451.2129 Q422.6656,450.0566 423.7594,449.4473 Q424.8531,448.8223 426.0875,448.8223 Q426.8219,448.8223 427.4625,448.9941 Q428.1188,449.1504 428.6656,449.5098 Z " fill="#000000"/><text fill="#000000" font-family="sans-serif" font-size="14" lengthAdjust="spacing" textLength="201" x="446.1" y="459.4316">ActuatorFunctionalityRepository</text><rect fill="#FFFFFF" height="17.9609" style="stroke:#181818;stroke-width:1.0;stroke-dasharray:2.0,2.0;" width="27" x="683" y="434.6348"/><text fill="#000000" font-family="sans-serif" font-size="12" font-style="italic" lengthAdjust="spacing" textLength="25" x="684" y="448.584">repo</text><line style="stroke:#181818;stroke-width:0.5;" x1="384" x2="706" y1="469.6348" y2="469.6348"/><line style="stroke:#181818;stroke-width:0.5;" x1="384" x2="706" y1="477.6348" y2="477.6348"/><ellipse cx="394" cy="492.4453" fill="#84BE84" rx="3" ry="3" style="stroke:#038048;stroke-width:1.0;"/><text fill="#000000" font-family="sans-serif" font-size="14" lengthAdjust="spacing" textLength="298" x="403" y="496.7422">findAllEntities(): Iterable&lt;ActuatorFunctionality&gt;</text></g><!--class ActuatorFunctionalityMapperDTO--><g id="elem_ActuatorFunctionalityMapperDTO"><rect codeLine="26" fill="#F1F1F1" height="122.4844" id="ActuatorFunctionalityMapperDTO" rx="2.5" ry="2.5" style="stroke:#181818;stroke-width:0.5;" width="600" x="493" y="246.6348"/><ellipse cx="683.25" cy="262.6348" fill="#ADD1B2" rx="11" ry="11" style="stroke:#181818;stroke-width:1.0;"/><path d="M686.0156,258.5098 Q686.1719,258.291 686.3594,258.1816 Q686.5469,258.0723 686.7656,258.0723 Q687.1406,258.0723 687.375,258.3379 Q687.6094,258.5879 687.6094,259.1973 L687.6094,260.6504 Q687.6094,261.2598 687.375,261.5254 Q687.1406,261.791 686.7656,261.791 Q686.4219,261.791 686.2188,261.5879 Q686.0156,261.4004 685.9063,260.8848 Q685.8594,260.5254 685.6719,260.3379 Q685.3438,259.9629 684.7344,259.7441 Q684.125,259.5254 683.5,259.5254 Q682.7344,259.5254 682.0938,259.8535 Q681.4688,260.1816 680.9688,260.9316 Q680.4844,261.6816 680.4844,262.7129 L680.4844,263.8066 Q680.4844,265.041 681.375,265.8691 Q682.2656,266.6816 683.8594,266.6816 Q684.7969,266.6816 685.4531,266.4316 Q685.8438,266.2754 686.2656,265.8379 Q686.5313,265.5723 686.6719,265.4941 Q686.8281,265.416 687.0313,265.416 Q687.3594,265.416 687.6094,265.6816 Q687.875,265.9316 687.875,266.2754 Q687.875,266.6191 687.5313,267.0254 Q687.0313,267.6035 686.2344,267.9316 Q685.1563,268.3848 683.8594,268.3848 Q682.3438,268.3848 681.1406,267.7598 Q680.1563,267.2598 679.4688,266.1973 Q678.7813,265.1191 678.7813,263.8379 L678.7813,262.6816 Q678.7813,261.3535 679.3906,260.2129 Q680.0156,259.0566 681.1094,258.4473 Q682.2031,257.8223 683.4375,257.8223 Q684.1719,257.8223 684.8125,257.9941 Q685.4688,258.1504 686.0156,258.5098 Z " fill="#000000"/><text fill="#000000" font-family="sans-serif" font-size="14" lengthAdjust="spacing" textLength="211" x="703.75" y="268.4316">ActuatorFunctionalityMapperDTO</text><line style="stroke:#181818;stroke-width:0.5;" x1="494" x2="1092" y1="278.6348" y2="278.6348"/><line style="stroke:#181818;stroke-width:0.5;" x1="494" x2="1092" y1="286.6348" y2="286.6348"/><ellipse cx="504" cy="310.7559" fill="#84BE84" rx="3" ry="3" style="stroke:#038048;stroke-width:1.0;"/><text fill="#000000" font-family="sans-serif" font-size="14" lengthAdjust="spacing" textLength="488" x="513" y="305.7422">actuatorFunctionalityToDTO(ActuatorFunctionalityID actuatorFunctionalityID):</text><text fill="#000000" font-family="sans-serif" font-size="14" lengthAdjust="spacing" textLength="163" x="517" y="324.3633">ActuatorFunctionalityDTO</text><ellipse cx="504" cy="347.998" fill="#84BE84" rx="3" ry="3" style="stroke:#038048;stroke-width:1.0;"/><text fill="#000000" font-family="sans-serif" font-size="14" lengthAdjust="spacing" textLength="570" x="513" y="342.9844">actuatorFunctionalityToDTOList (List&lt;ActuatorFunctionalityID&gt; actuatorFunctionalitiesIDs):</text><text fill="#000000" font-family="sans-serif" font-size="14" lengthAdjust="spacing" textLength="201" x="517" y="361.6055">List&lt;ActuatorFunctionalityDTO&gt;</text></g><!--class ActuatorFunctionalityDTO--><g id="elem_ActuatorFunctionalityDTO"><rect codeLine="31" fill="#F1F1F1" height="66.6211" id="ActuatorFunctionalityDTO" rx="2.5" ry="2.5" style="stroke:#181818;stroke-width:0.5;" width="243" x="742.5" y="437.6348"/><ellipse cx="779.1" cy="453.6348" fill="#ADD1B2" rx="11" ry="11" style="stroke:#181818;stroke-width:1.0;"/><path d="M781.8656,449.5098 Q782.0219,449.291 782.2094,449.1816 Q782.3969,449.0723 782.6156,449.0723 Q782.9906,449.0723 783.225,449.3379 Q783.4594,449.5879 783.4594,450.1973 L783.4594,451.6504 Q783.4594,452.2598 783.225,452.5254 Q782.9906,452.791 782.6156,452.791 Q782.2719,452.791 782.0688,452.5879 Q781.8656,452.4004 781.7563,451.8848 Q781.7094,451.5254 781.5219,451.3379 Q781.1938,450.9629 780.5844,450.7441 Q779.975,450.5254 779.35,450.5254 Q778.5844,450.5254 777.9438,450.8535 Q777.3188,451.1816 776.8188,451.9316 Q776.3344,452.6816 776.3344,453.7129 L776.3344,454.8066 Q776.3344,456.041 777.225,456.8691 Q778.1156,457.6816 779.7094,457.6816 Q780.6469,457.6816 781.3031,457.4316 Q781.6938,457.2754 782.1156,456.8379 Q782.3813,456.5723 782.5219,456.4941 Q782.6781,456.416 782.8813,456.416 Q783.2094,456.416 783.4594,456.6816 Q783.725,456.9316 783.725,457.2754 Q783.725,457.6191 783.3813,458.0254 Q782.8813,458.6035 782.0844,458.9316 Q781.0063,459.3848 779.7094,459.3848 Q778.1938,459.3848 776.9906,458.7598 Q776.0063,458.2598 775.3188,457.1973 Q774.6313,456.1191 774.6313,454.8379 L774.6313,453.6816 Q774.6313,452.3535 775.2406,451.2129 Q775.8656,450.0566 776.9594,449.4473 Q778.0531,448.8223 779.2875,448.8223 Q780.0219,448.8223 780.6625,448.9941 Q781.3188,449.1504 781.8656,449.5098 Z " fill="#000000"/><text fill="#000000" font-family="sans-serif" font-size="14" lengthAdjust="spacing" textLength="163" x="797.9" y="459.4316">ActuatorFunctionalityDTO</text><line style="stroke:#181818;stroke-width:0.5;" x1="743.5" x2="984.5" y1="469.6348" y2="469.6348"/><ellipse cx="753.5" cy="484.4453" fill="none" rx="3" ry="3" style="stroke:#038048;stroke-width:1.0;"/><text fill="#000000" font-family="sans-serif" font-size="14" lengthAdjust="spacing" textLength="217" x="762.5" y="488.7422">actuatorFunctionalityName : String</text><line style="stroke:#181818;stroke-width:0.5;" x1="743.5" x2="984.5" y1="496.2559" y2="496.2559"/></g><!--link ActuatorFunctionalityControllerWeb to ActuatorFunctionalityService--><g id="link_ActuatorFunctionalityControllerWeb_ActuatorFunctionalityService"><path codeLine="35" d="M369.75,187.0148 C369.75,211.9748 369.75,241.4448 369.75,265.0148 " fill="none" id="ActuatorFunctionalityControllerWeb-ActuatorFunctionalityService" style="stroke:#181818;stroke-width:1.0;"/></g><!--link ActuatorFunctionalityService to ActuatorFunctionalityRepository--><g id="link_ActuatorFunctionalityService_ActuatorFunctionalityRepository"><path codeLine="36" d="M420.25,350.1648 C420.25,377.4148 420.25,412.2848 420.25,437.5748 " fill="none" id="ActuatorFunctionalityService-ActuatorFunctionalityRepository" style="stroke:#181818;stroke-width:1.0;"/></g><!--link ActuatorFunctionalityService to ActuatorFunctionality--><g id="link_ActuatorFunctionalityService_ActuatorFunctionality"><path codeLine="37" d="M185,350.1648 C185,374.2948 185,398.3948 185,422.5348 " fill="none" id="ActuatorFunctionalityService-to-ActuatorFunctionality" style="stroke:#181818;stroke-width:1.0;stroke-dasharray:7.0,7.0;"/><polygon fill="#181818" points="185,428.5348,189,419.5348,185,423.5348,181,419.5348,185,428.5348" style="stroke:#181818;stroke-width:1.0;"/><text fill="#000000" font-family="sans-serif" font-size="13" lengthAdjust="spacing" textLength="35" x="149" y="385.3731">&#171;use&#187;</text></g><!--link ActuatorFunctionalityControllerWeb to ActuatorFunctionalityMapperDTO--><g id="link_ActuatorFunctionalityControllerWeb_ActuatorFunctionalityMapperDTO"><path codeLine="38" d="M637.5,187.0148 C637.5,205.8048 637.5,221.1648 637.5,240.6248 " fill="none" id="ActuatorFunctionalityControllerWeb-to-ActuatorFunctionalityMapperDTO" style="stroke:#181818;stroke-width:1.0;stroke-dasharray:7.0,7.0;"/><polygon fill="#181818" points="637.5,246.6248,641.5,237.6248,637.5,241.6248,633.5,237.6248,637.5,246.6248" style="stroke:#181818;stroke-width:1.0;"/><text fill="#000000" font-family="sans-serif" font-size="13" lengthAdjust="spacing" textLength="57" x="579.5" y="212.8431">&#171;creates&#187;</text></g><!--link ActuatorFunctionalityMapperDTO to ActuatorFunctionalityDTO--><g id="link_ActuatorFunctionalityMapperDTO_ActuatorFunctionalityDTO"><path codeLine="39" d="M864,368.9848 C864,392.1748 864,411.7148 864,431.4548 " fill="none" id="ActuatorFunctionalityMapperDTO-to-ActuatorFunctionalityDTO" style="stroke:#181818;stroke-width:1.0;stroke-dasharray:7.0,7.0;"/><polygon fill="#181818" points="864,437.4548,868,428.4548,864,432.4548,860,428.4548,864,437.4548" style="stroke:#181818;stroke-width:1.0;"/><text fill="#000000" font-family="sans-serif" font-size="13" lengthAdjust="spacing" textLength="57" x="806" y="399.2431">&#171;creates&#187;</text></g><!--SRC=[ZLHDQyCm3BtxLmXswUXQw8uX14QpZx2FGjknoovUggMchXriPL16__kSj5qtiDtwb4HFJ-_9KaYGH7WTZww7emIUX2MuAQdXf8s5kqQL9BJYKf10ovXT2LLpmzSWXKBQr0ZQq58pLlDonIi4Y-OB3LmyYMf9zuPlu9knKd9hVtd_icx6Mf7HKg9vmm-71NS6t8USEMPHOkBdsKUx_7w5r3gPVFgWpaW2KxIrLXPl5RdaTDmgw13FUe7oNQMxGFUMUWlcyqcMPL3-pxo21w9wHfmQEvmyictK_5vqrFOKQss5-xe9E3y2pZNVXlscYZmx8HbIepLbKSb57f1Qv3k9Oe5TUtkNOM1Snj6q4-IU3uBwdq8jRgJihi-PRIiKX8P_IFHRFcNucTSr6dVRXmfUotFj4Bs05mXqoMbxLn2QhgxQYOhTllQYz-ajxZfJv7PNFvpTZlY9xZX8h2qlV8sGm8oCK1K3ntN6Js0mYAzuT9L2oN-s99e_76Q1mKyWJHkBMNQEXo3DSPmwmj8W9xGXqYCwIEYXScVBVW00]--></g></svg>