<?xml version="1.0" encoding="us-ascii" standalone="no"?><svg xmlns="http://www.w3.org/2000/svg" xmlns:xlink="http://www.w3.org/1999/xlink" contentStyleType="text/css" height="998px" preserveAspectRatio="none" style="width:1271px;height:998px;background:#FFFFFF;" version="1.1" viewBox="0 0 1271 998" width="1271px" zoomAndPan="magnify"><defs/><g><text fill="#000000" font-family="sans-serif" font-size="14" font-weight="bold" lengthAdjust="spacing" textLength="306" x="475.625" y="25.1074">UC34.2: List temperature sensors in device.</text><!--cluster server--><g id="cluster_server"><path d="M30.75,45.6348 L78.75,45.6348 A3.75,3.75 0 0 1 81.25,48.1348 L88.25,70.2559 L1261.75,70.2559 A2.5,2.5 0 0 1 1264.25,72.7559 L1264.25,989.1348 A2.5,2.5 0 0 1 1261.75,991.6348 L30.75,991.6348 A2.5,2.5 0 0 1 28.25,989.1348 L28.25,48.1348 A2.5,2.5 0 0 1 30.75,45.6348 " fill="#D3D3D3" style="stroke:#000000;stroke-width:1.5;"/><line style="stroke:#000000;stroke-width:1.5;" x1="28.25" x2="88.25" y1="70.2559" y2="70.2559"/><text fill="#000000" font-family="sans-serif" font-size="14" font-weight="bold" lengthAdjust="spacing" textLength="47" x="32.25" y="62.7422">server</text></g><!--class DeviceControllerWeb--><g id="elem_DeviceControllerWeb"><rect codeLine="7" fill="#F1F1F1" height="327.3164" id="DeviceControllerWeb" rx="2.5" ry="2.5" style="stroke:#181818;stroke-width:0.5;" width="433" x="360.75" y="82.6348"/><ellipse cx="506" cy="98.6348" fill="#ADD1B2" rx="11" ry="11" style="stroke:#181818;stroke-width:1.0;"/><path d="M508.7656,94.5098 Q508.9219,94.291 509.1094,94.1816 Q509.2969,94.0723 509.5156,94.0723 Q509.8906,94.0723 510.125,94.3379 Q510.3594,94.5879 510.3594,95.1973 L510.3594,96.6504 Q510.3594,97.2598 510.125,97.5254 Q509.8906,97.791 509.5156,97.791 Q509.1719,97.791 508.9688,97.5879 Q508.7656,97.4004 508.6563,96.8848 Q508.6094,96.5254 508.4219,96.3379 Q508.0938,95.9629 507.4844,95.7441 Q506.875,95.5254 506.25,95.5254 Q505.4844,95.5254 504.8438,95.8535 Q504.2188,96.1816 503.7188,96.9316 Q503.2344,97.6816 503.2344,98.7129 L503.2344,99.8066 Q503.2344,101.041 504.125,101.8691 Q505.0156,102.6816 506.6094,102.6816 Q507.5469,102.6816 508.2031,102.4316 Q508.5938,102.2754 509.0156,101.8379 Q509.2813,101.5723 509.4219,101.4941 Q509.5781,101.416 509.7813,101.416 Q510.1094,101.416 510.3594,101.6816 Q510.625,101.9316 510.625,102.2754 Q510.625,102.6191 510.2813,103.0254 Q509.7813,103.6035 508.9844,103.9316 Q507.9063,104.3848 506.6094,104.3848 Q505.0938,104.3848 503.8906,103.7598 Q502.9063,103.2598 502.2188,102.1973 Q501.5313,101.1191 501.5313,99.8379 L501.5313,98.6816 Q501.5313,97.3535 502.1406,96.2129 Q502.7656,95.0566 503.8594,94.4473 Q504.9531,93.8223 506.1875,93.8223 Q506.9219,93.8223 507.5625,93.9941 Q508.2188,94.1504 508.7656,94.5098 Z " fill="#000000"/><text fill="#000000" font-family="sans-serif" font-size="14" lengthAdjust="spacing" textLength="134" x="526.5" y="104.4316">DeviceControllerWeb</text><line style="stroke:#181818;stroke-width:0.5;" x1="361.75" x2="792.75" y1="114.6348" y2="114.6348"/><rect fill="none" height="6" style="stroke:#C82930;stroke-width:1.0;" width="6" x="368.75" y="126.4453"/><text fill="#000000" font-family="sans-serif" font-size="14" lengthAdjust="spacing" textLength="186" x="380.75" y="133.7422">deviceService: DeviceService</text><rect fill="none" height="6" style="stroke:#C82930;stroke-width:1.0;" width="6" x="368.75" y="145.0664"/><text fill="#000000" font-family="sans-serif" font-size="14" lengthAdjust="spacing" textLength="307" x="380.75" y="152.3633">closeBlindRollerService: CloseBlindRollerService</text><rect fill="none" height="6" style="stroke:#C82930;stroke-width:1.0;" width="6" x="368.75" y="163.6875"/><text fill="#000000" font-family="sans-serif" font-size="14" lengthAdjust="spacing" textLength="190" x="380.75" y="170.9844">sensorService: SensorService</text><rect fill="none" height="6" style="stroke:#C82930;stroke-width:1.0;" width="6" x="368.75" y="182.3086"/><text fill="#000000" font-family="sans-serif" font-size="14" lengthAdjust="spacing" textLength="252" x="380.75" y="189.6055">sensorMapperDTO: SensorMapperDTO</text><rect fill="none" height="6" style="stroke:#C82930;stroke-width:1.0;" width="6" x="368.75" y="200.9297"/><text fill="#000000" font-family="sans-serif" font-size="14" lengthAdjust="spacing" textLength="207" x="380.75" y="208.2266">actuatorService: ActuatorService</text><rect fill="none" height="6" style="stroke:#C82930;stroke-width:1.0;" width="6" x="368.75" y="219.5508"/><text fill="#000000" font-family="sans-serif" font-size="14" lengthAdjust="spacing" textLength="269" x="380.75" y="226.8477">actuatorMapperDTO: ActuatorMapperDTO</text><rect fill="none" height="6" style="stroke:#C82930;stroke-width:1.0;" width="6" x="368.75" y="238.1719"/><text fill="#000000" font-family="sans-serif" font-size="14" lengthAdjust="spacing" textLength="172" x="380.75" y="245.4688">valueService: ValueService</text><rect fill="none" height="6" style="stroke:#C82930;stroke-width:1.0;" width="6" x="368.75" y="256.793"/><text fill="#000000" font-family="sans-serif" font-size="14" lengthAdjust="spacing" textLength="354" x="380.75" y="264.0898">mapperSensorFunctionality: MapperSensorFunctionality</text><rect fill="none" height="6" style="stroke:#C82930;stroke-width:1.0;" width="6" x="368.75" y="275.4141"/><text fill="#000000" font-family="sans-serif" font-size="14" lengthAdjust="spacing" textLength="210" x="380.75" y="282.7109">mapperReading: MapperReading</text><line style="stroke:#181818;stroke-width:0.5;" x1="361.75" x2="792.75" y1="290.2246" y2="290.2246"/><rect fill="#F24D5C" height="6" style="stroke:#C82930;stroke-width:1.0;" width="6" x="368.75" y="320.6563"/><text fill="#000000" font-family="sans-serif" font-size="14" lengthAdjust="spacing" textLength="285" x="380.75" y="309.332">listSensorsOfDeviceWithSensorFunctionality(</text><text fill="#000000" font-family="sans-serif" font-size="14" lengthAdjust="spacing" textLength="308" x="380.75" y="327.9531">String deviceName, String sensorFunctionalityID)</text><text fill="#000000" font-family="sans-serif" font-size="14" lengthAdjust="spacing" textLength="100" x="380.75" y="346.5742">:List&lt;SensorID&gt;</text><ellipse cx="371.75" cy="379.5195" fill="#84BE84" rx="3" ry="3" style="stroke:#038048;stroke-width:1.0;"/><text fill="#000000" font-family="sans-serif" font-size="14" lengthAdjust="spacing" textLength="399" x="380.75" y="365.1953">GET getListOfSensors(@PathVariable("id") String deviceName,</text><text fill="#000000" font-family="sans-serif" font-size="14" lengthAdjust="spacing" textLength="403" x="380.75" y="383.8164">@RequestParam(required = false) String sensorFunctionalityID)</text><text fill="#000000" font-family="sans-serif" font-size="14" lengthAdjust="spacing" textLength="349" x="384.75" y="402.4375">ResponseEntity&lt;Object&gt; listSensorDTO, HttpStatus.OK</text></g><!--class DeviceID--><g id="elem_DeviceID"><rect codeLine="21" fill="#F1F1F1" height="66.6211" id="DeviceID" rx="2.5" ry="2.5" style="stroke:#181818;stroke-width:0.5;" width="109" x="48.75" y="899.6348"/><ellipse cx="63.75" cy="915.6348" fill="#ADD1B2" rx="11" ry="11" style="stroke:#181818;stroke-width:1.0;"/><path d="M66.5156,911.5098 Q66.6719,911.291 66.8594,911.1816 Q67.0469,911.0723 67.2656,911.0723 Q67.6406,911.0723 67.875,911.3379 Q68.1094,911.5879 68.1094,912.1973 L68.1094,913.6504 Q68.1094,914.2598 67.875,914.5254 Q67.6406,914.791 67.2656,914.791 Q66.9219,914.791 66.7188,914.5879 Q66.5156,914.4004 66.4063,913.8848 Q66.3594,913.5254 66.1719,913.3379 Q65.8438,912.9629 65.2344,912.7441 Q64.625,912.5254 64,912.5254 Q63.2344,912.5254 62.5938,912.8535 Q61.9688,913.1816 61.4688,913.9316 Q60.9844,914.6816 60.9844,915.7129 L60.9844,916.8066 Q60.9844,918.041 61.875,918.8691 Q62.7656,919.6816 64.3594,919.6816 Q65.2969,919.6816 65.9531,919.4316 Q66.3438,919.2754 66.7656,918.8379 Q67.0313,918.5723 67.1719,918.4941 Q67.3281,918.416 67.5313,918.416 Q67.8594,918.416 68.1094,918.6816 Q68.375,918.9316 68.375,919.2754 Q68.375,919.6191 68.0313,920.0254 Q67.5313,920.6035 66.7344,920.9316 Q65.6563,921.3848 64.3594,921.3848 Q62.8438,921.3848 61.6406,920.7598 Q60.6563,920.2598 59.9688,919.1973 Q59.2813,918.1191 59.2813,916.8379 L59.2813,915.6816 Q59.2813,914.3535 59.8906,913.2129 Q60.5156,912.0566 61.6094,911.4473 Q62.7031,910.8223 63.9375,910.8223 Q64.6719,910.8223 65.3125,910.9941 Q65.9688,911.1504 66.5156,911.5098 Z " fill="#000000"/><text fill="#000000" font-family="sans-serif" font-size="14" lengthAdjust="spacing" textLength="56" x="77.75" y="921.4316">DeviceID</text><rect fill="#FFFFFF" height="17.9609" style="stroke:#181818;stroke-width:1.0;stroke-dasharray:2.0,2.0;" width="19" x="141.75" y="896.6348"/><text fill="#000000" font-family="sans-serif" font-size="12" font-style="italic" lengthAdjust="spacing" textLength="17" x="142.75" y="910.584">VO</text><line style="stroke:#181818;stroke-width:0.5;" x1="49.75" x2="156.75" y1="931.6348" y2="931.6348"/><rect fill="none" height="6" style="stroke:#C82930;stroke-width:1.0;" width="6" x="56.75" y="943.4453"/><text fill="#000000" font-family="sans-serif" font-size="14" lengthAdjust="spacing" textLength="56" x="68.75" y="950.7422">id: String</text><line style="stroke:#181818;stroke-width:0.5;" x1="49.75" x2="156.75" y1="958.2559" y2="958.2559"/></g><!--class SensorFunctionalityID--><g id="elem_SensorFunctionalityID"><rect codeLine="55" fill="#F1F1F1" height="85.2422" id="SensorFunctionalityID" rx="2.5" ry="2.5" style="stroke:#181818;stroke-width:0.5;" width="191" x="653.75" y="890.6348"/><ellipse cx="668.75" cy="906.6348" fill="#ADD1B2" rx="11" ry="11" style="stroke:#181818;stroke-width:1.0;"/><path d="M671.5156,902.5098 Q671.6719,902.291 671.8594,902.1816 Q672.0469,902.0723 672.2656,902.0723 Q672.6406,902.0723 672.875,902.3379 Q673.1094,902.5879 673.1094,903.1973 L673.1094,904.6504 Q673.1094,905.2598 672.875,905.5254 Q672.6406,905.791 672.2656,905.791 Q671.9219,905.791 671.7188,905.5879 Q671.5156,905.4004 671.4063,904.8848 Q671.3594,904.5254 671.1719,904.3379 Q670.8438,903.9629 670.2344,903.7441 Q669.625,903.5254 669,903.5254 Q668.2344,903.5254 667.5938,903.8535 Q666.9688,904.1816 666.4688,904.9316 Q665.9844,905.6816 665.9844,906.7129 L665.9844,907.8066 Q665.9844,909.041 666.875,909.8691 Q667.7656,910.6816 669.3594,910.6816 Q670.2969,910.6816 670.9531,910.4316 Q671.3438,910.2754 671.7656,909.8379 Q672.0313,909.5723 672.1719,909.4941 Q672.3281,909.416 672.5313,909.416 Q672.8594,909.416 673.1094,909.6816 Q673.375,909.9316 673.375,910.2754 Q673.375,910.6191 673.0313,911.0254 Q672.5313,911.6035 671.7344,911.9316 Q670.6563,912.3848 669.3594,912.3848 Q667.8438,912.3848 666.6406,911.7598 Q665.6563,911.2598 664.9688,910.1973 Q664.2813,909.1191 664.2813,907.8379 L664.2813,906.6816 Q664.2813,905.3535 664.8906,904.2129 Q665.5156,903.0566 666.6094,902.4473 Q667.7031,901.8223 668.9375,901.8223 Q669.6719,901.8223 670.3125,901.9941 Q670.9688,902.1504 671.5156,902.5098 Z " fill="#000000"/><text fill="#000000" font-family="sans-serif" font-size="14" lengthAdjust="spacing" textLength="138" x="682.75" y="912.4316">SensorFunctionalityID</text><rect fill="#FFFFFF" height="17.9609" style="stroke:#181818;stroke-width:1.0;stroke-dasharray:2.0,2.0;" width="19" x="828.75" y="887.6348"/><text fill="#000000" font-family="sans-serif" font-size="12" font-style="italic" lengthAdjust="spacing" textLength="17" x="829.75" y="901.584">VO</text><line style="stroke:#181818;stroke-width:0.5;" x1="654.75" x2="843.75" y1="922.6348" y2="922.6348"/><rect fill="none" height="6" style="stroke:#C82930;stroke-width:1.0;" width="6" x="661.75" y="934.4453"/><text fill="#000000" font-family="sans-serif" font-size="14" lengthAdjust="spacing" textLength="56" x="673.75" y="941.7422">id: String</text><rect fill="none" height="6" style="stroke:#C82930;stroke-width:1.0;" width="6" x="661.75" y="953.0664"/><text fill="#000000" font-family="sans-serif" font-size="14" lengthAdjust="spacing" textLength="56" x="673.75" y="960.3633">id: String</text><line style="stroke:#181818;stroke-width:0.5;" x1="654.75" x2="843.75" y1="967.877" y2="967.877"/></g><!--class SensorService--><g id="elem_SensorService"><rect codeLine="29" fill="#F1F1F1" height="159.7266" id="SensorService" rx="2.5" ry="2.5" style="stroke:#181818;stroke-width:0.5;" width="418" x="246.25" y="469.6348"/><ellipse cx="405" cy="485.6348" fill="#ADD1B2" rx="11" ry="11" style="stroke:#181818;stroke-width:1.0;"/><path d="M407.7656,481.5098 Q407.9219,481.291 408.1094,481.1816 Q408.2969,481.0723 408.5156,481.0723 Q408.8906,481.0723 409.125,481.3379 Q409.3594,481.5879 409.3594,482.1973 L409.3594,483.6504 Q409.3594,484.2598 409.125,484.5254 Q408.8906,484.791 408.5156,484.791 Q408.1719,484.791 407.9688,484.5879 Q407.7656,484.4004 407.6563,483.8848 Q407.6094,483.5254 407.4219,483.3379 Q407.0938,482.9629 406.4844,482.7441 Q405.875,482.5254 405.25,482.5254 Q404.4844,482.5254 403.8438,482.8535 Q403.2188,483.1816 402.7188,483.9316 Q402.2344,484.6816 402.2344,485.7129 L402.2344,486.8066 Q402.2344,488.041 403.125,488.8691 Q404.0156,489.6816 405.6094,489.6816 Q406.5469,489.6816 407.2031,489.4316 Q407.5938,489.2754 408.0156,488.8379 Q408.2813,488.5723 408.4219,488.4941 Q408.5781,488.416 408.7813,488.416 Q409.1094,488.416 409.3594,488.6816 Q409.625,488.9316 409.625,489.2754 Q409.625,489.6191 409.2813,490.0254 Q408.7813,490.6035 407.9844,490.9316 Q406.9063,491.3848 405.6094,491.3848 Q404.0938,491.3848 402.8906,490.7598 Q401.9063,490.2598 401.2188,489.1973 Q400.5313,488.1191 400.5313,486.8379 L400.5313,485.6816 Q400.5313,484.3535 401.1406,483.2129 Q401.7656,482.0566 402.8594,481.4473 Q403.9531,480.8223 405.1875,480.8223 Q405.9219,480.8223 406.5625,480.9941 Q407.2188,481.1504 407.7656,481.5098 Z " fill="#000000"/><text fill="#000000" font-family="sans-serif" font-size="14" lengthAdjust="spacing" textLength="92" x="425.5" y="491.4316">SensorService</text><line style="stroke:#181818;stroke-width:0.5;" x1="247.25" x2="663.25" y1="501.6348" y2="501.6348"/><rect fill="none" height="6" style="stroke:#C82930;stroke-width:1.0;" width="6" x="254.25" y="513.4453"/><text fill="#000000" font-family="sans-serif" font-size="14" lengthAdjust="spacing" textLength="189" x="266.25" y="520.7422">factorySensor: FactorySensor</text><rect fill="none" height="6" style="stroke:#C82930;stroke-width:1.0;" width="6" x="254.25" y="532.0664"/><text fill="#000000" font-family="sans-serif" font-size="14" lengthAdjust="spacing" textLength="198" x="266.25" y="539.3633">sensorRepo: SensorRepository</text><rect fill="none" height="6" style="stroke:#C82930;stroke-width:1.0;" width="6" x="254.25" y="550.6875"/><text fill="#000000" font-family="sans-serif" font-size="14" lengthAdjust="spacing" textLength="228" x="266.25" y="557.9844">deviceRepository: DeviceRepository</text><rect fill="none" height="6" style="stroke:#C82930;stroke-width:1.0;" width="6" x="254.25" y="569.3086"/><text fill="#000000" font-family="sans-serif" font-size="14" lengthAdjust="spacing" textLength="392" x="266.25" y="576.6055">sensorFunctionalityRepository: SensorFunctionalityRepository</text><line style="stroke:#181818;stroke-width:0.5;" x1="247.25" x2="663.25" y1="584.1191" y2="584.1191"/><ellipse cx="257.25" cy="608.2402" fill="#84BE84" rx="3" ry="3" style="stroke:#038048;stroke-width:1.0;"/><text fill="#000000" font-family="sans-serif" font-size="14" lengthAdjust="spacing" textLength="296" x="266.25" y="603.2266">findSensorsIDOfADeviceBySensorFunctionality</text><text fill="#000000" font-family="sans-serif" font-size="14" lengthAdjust="spacing" textLength="312" x="266.25" y="621.8477">(deviceID, sensorFunctionalityID): List&lt;SensorID&gt;</text></g><!--class SensorRepository--><g id="elem_SensorRepository"><rect codeLine="37" fill="#F1F1F1" height="122.4844" id="SensorRepository" rx="2.5" ry="2.5" style="stroke:#181818;stroke-width:0.5;" width="570" x="456.25" y="699.1348"/><ellipse cx="680.5" cy="715.1348" fill="#B4A7E5" rx="11" ry="11" style="stroke:#181818;stroke-width:1.0;"/><path d="M681.4531,711.7754 L681.4531,718.4316 L683.1719,718.4316 Q683.7813,718.4316 684.0469,718.666 Q684.3125,718.9004 684.3125,719.291 Q684.3125,719.666 684.0469,719.9004 Q683.7813,720.1348 683.1719,720.1348 L678.0313,720.1348 Q677.4219,720.1348 677.1563,719.9004 Q676.8906,719.666 676.8906,719.2754 Q676.8906,718.9004 677.1563,718.666 Q677.4219,718.4316 678.0313,718.4316 L679.75,718.4316 L679.75,711.7754 L678.0313,711.7754 Q677.4219,711.7754 677.1563,711.541 Q676.8906,711.3066 676.8906,710.916 Q676.8906,710.541 677.1563,710.3066 Q677.4219,710.0723 678.0313,710.0723 L683.1719,710.0723 Q683.7813,710.0723 684.0469,710.3066 Q684.3125,710.541 684.3125,710.916 Q684.3125,711.3066 684.0469,711.541 Q683.7813,711.7754 683.1719,711.7754 L681.4531,711.7754 Z " fill="#000000"/><text fill="#000000" font-family="sans-serif" font-size="14" font-style="italic" lengthAdjust="spacing" textLength="113" x="701" y="720.9316">SensorRepository</text><line style="stroke:#181818;stroke-width:0.5;" x1="457.25" x2="1025.25" y1="731.1348" y2="731.1348"/><rect fill="none" height="6" style="stroke:#C82930;stroke-width:1.0;" width="6" x="464.25" y="742.9453"/><text fill="#000000" font-family="sans-serif" font-size="14" lengthAdjust="spacing" textLength="374" x="476.25" y="750.2422">sensorRepositorySpringData: SensorRepositorySpringData</text><rect fill="none" height="6" style="stroke:#C82930;stroke-width:1.0;" width="6" x="464.25" y="761.5664"/><text fill="#000000" font-family="sans-serif" font-size="14" lengthAdjust="spacing" textLength="189" x="476.25" y="768.8633">factorySensor: FactorySensor</text><rect fill="none" height="6" style="stroke:#C82930;stroke-width:1.0;" width="6" x="464.25" y="780.1875"/><text fill="#000000" font-family="sans-serif" font-size="14" lengthAdjust="spacing" textLength="330" x="476.25" y="787.4844">mapperSensorDataModel: MapperSensorDataModel</text><line style="stroke:#181818;stroke-width:0.5;" x1="457.25" x2="1025.25" y1="794.998" y2="794.998"/><ellipse cx="467.25" cy="809.8086" fill="#84BE84" rx="3" ry="3" style="stroke:#038048;stroke-width:1.0;"/><text fill="#000000" font-family="sans-serif" font-size="14" lengthAdjust="spacing" textLength="544" x="476.25" y="814.1055">findByDeviceIDAndSensorFunctionality(deviceID, sensorFunctionalityID): List&lt;Sensor&gt;</text></g><!--class Sensor--><g id="elem_Sensor"><rect codeLine="44" fill="#F1F1F1" height="141.1055" id="Sensor" rx="2.5" ry="2.5" style="stroke:#181818;stroke-width:0.5;" width="340" x="81.25" y="689.6348"/><ellipse cx="205.5" cy="705.6348" fill="#A9DCDF" rx="11" ry="11" style="stroke:#181818;stroke-width:1.0;"/><path d="M207.6875,707.4004 L203.5469,707.4004 L203.125,708.4316 L203.5469,708.4316 Q204.1563,708.4316 204.4219,708.666 Q204.6875,708.9004 204.6875,709.291 Q204.6875,709.666 204.4219,709.9004 Q204.1563,710.1348 203.5469,710.1348 L201.25,710.1348 Q200.6406,710.1348 200.3906,709.9004 Q200.125,709.666 200.125,709.2754 Q200.125,708.9004 200.4063,708.666 Q200.6719,708.416 201.2969,708.4316 L203.9688,701.7754 L202.8594,701.7754 Q202.25,701.7754 201.9844,701.541 Q201.7188,701.3066 201.7188,700.916 Q201.7188,700.541 201.9844,700.3066 Q202.25,700.0723 202.8594,700.0723 L206.5313,700.0723 L209.9219,708.4316 Q210.5156,708.4316 210.7031,708.5723 Q211.0938,708.8379 211.0938,709.291 Q211.0938,709.666 210.8281,709.9004 Q210.5781,710.1348 209.9688,710.1348 L207.6719,710.1348 Q207.0625,710.1348 206.7969,709.9004 Q206.5313,709.666 206.5313,709.2754 Q206.5313,708.9004 206.7969,708.666 Q207.0625,708.4316 207.6719,708.4316 L208.0938,708.4316 L207.6875,707.4004 Z M206.9688,705.6973 L205.6094,702.3223 L204.2344,705.6973 L206.9688,705.6973 Z " fill="#000000"/><text fill="#000000" font-family="sans-serif" font-size="14" font-style="italic" lengthAdjust="spacing" textLength="45" x="226" y="711.4316">Sensor</text><rect fill="#FFFFFF" height="17.9609" style="stroke:#181818;stroke-width:1.0;stroke-dasharray:2.0,2.0;" width="36" x="388.25" y="686.6348"/><text fill="#000000" font-family="sans-serif" font-size="12" font-style="italic" lengthAdjust="spacing" textLength="34" x="389.25" y="700.584">ROOT</text><line style="stroke:#181818;stroke-width:0.5;" x1="82.25" x2="420.25" y1="721.6348" y2="721.6348"/><rect fill="none" height="6" style="stroke:#C82930;stroke-width:1.0;" width="6" x="89.25" y="733.4453"/><text fill="#000000" font-family="sans-serif" font-size="14" lengthAdjust="spacing" textLength="122" x="101.25" y="740.7422">sensorID: SensorID</text><rect fill="none" height="6" style="stroke:#C82930;stroke-width:1.0;" width="6" x="89.25" y="752.0664"/><text fill="#000000" font-family="sans-serif" font-size="14" lengthAdjust="spacing" textLength="124" x="101.25" y="759.3633">sensorName: String</text><rect fill="none" height="6" style="stroke:#C82930;stroke-width:1.0;" width="6" x="89.25" y="770.6875"/><text fill="#000000" font-family="sans-serif" font-size="14" lengthAdjust="spacing" textLength="282" x="101.25" y="777.9844">sensorFunctionalityID: SensorFunctionalityID</text><line style="stroke:#181818;stroke-width:0.5;" x1="82.25" x2="420.25" y1="785.498" y2="785.498"/><ellipse cx="92.25" cy="800.3086" fill="#84BE84" rx="3" ry="3" style="stroke:#038048;stroke-width:1.0;"/><text fill="#000000" font-family="sans-serif" font-size="14" lengthAdjust="spacing" textLength="314" x="101.25" y="804.6055">getSensorFunctionalityID(): SensorFunctionalityID</text><ellipse cx="92.25" cy="818.9297" fill="#84BE84" rx="3" ry="3" style="stroke:#038048;stroke-width:1.0;"/><text fill="#000000" font-family="sans-serif" font-size="14" lengthAdjust="spacing" textLength="121" x="101.25" y="823.2266">identity(): SensorID</text></g><!--class SensorID--><g id="elem_SensorID"><rect codeLine="51" fill="#F1F1F1" height="66.6211" id="SensorID" rx="2.5" ry="2.5" style="stroke:#181818;stroke-width:0.5;" width="111" x="195.75" y="899.6348"/><ellipse cx="210.75" cy="915.6348" fill="#ADD1B2" rx="11" ry="11" style="stroke:#181818;stroke-width:1.0;"/><path d="M213.5156,911.5098 Q213.6719,911.291 213.8594,911.1816 Q214.0469,911.0723 214.2656,911.0723 Q214.6406,911.0723 214.875,911.3379 Q215.1094,911.5879 215.1094,912.1973 L215.1094,913.6504 Q215.1094,914.2598 214.875,914.5254 Q214.6406,914.791 214.2656,914.791 Q213.9219,914.791 213.7188,914.5879 Q213.5156,914.4004 213.4063,913.8848 Q213.3594,913.5254 213.1719,913.3379 Q212.8438,912.9629 212.2344,912.7441 Q211.625,912.5254 211,912.5254 Q210.2344,912.5254 209.5938,912.8535 Q208.9688,913.1816 208.4688,913.9316 Q207.9844,914.6816 207.9844,915.7129 L207.9844,916.8066 Q207.9844,918.041 208.875,918.8691 Q209.7656,919.6816 211.3594,919.6816 Q212.2969,919.6816 212.9531,919.4316 Q213.3438,919.2754 213.7656,918.8379 Q214.0313,918.5723 214.1719,918.4941 Q214.3281,918.416 214.5313,918.416 Q214.8594,918.416 215.1094,918.6816 Q215.375,918.9316 215.375,919.2754 Q215.375,919.6191 215.0313,920.0254 Q214.5313,920.6035 213.7344,920.9316 Q212.6563,921.3848 211.3594,921.3848 Q209.8438,921.3848 208.6406,920.7598 Q207.6563,920.2598 206.9688,919.1973 Q206.2813,918.1191 206.2813,916.8379 L206.2813,915.6816 Q206.2813,914.3535 206.8906,913.2129 Q207.5156,912.0566 208.6094,911.4473 Q209.7031,910.8223 210.9375,910.8223 Q211.6719,910.8223 212.3125,910.9941 Q212.9688,911.1504 213.5156,911.5098 Z " fill="#000000"/><text fill="#000000" font-family="sans-serif" font-size="14" lengthAdjust="spacing" textLength="58" x="224.75" y="921.4316">SensorID</text><rect fill="#FFFFFF" height="17.9609" style="stroke:#181818;stroke-width:1.0;stroke-dasharray:2.0,2.0;" width="19" x="290.75" y="896.6348"/><text fill="#000000" font-family="sans-serif" font-size="12" font-style="italic" lengthAdjust="spacing" textLength="17" x="291.75" y="910.584">VO</text><line style="stroke:#181818;stroke-width:0.5;" x1="196.75" x2="305.75" y1="931.6348" y2="931.6348"/><rect fill="none" height="6" style="stroke:#C82930;stroke-width:1.0;" width="6" x="203.75" y="943.4453"/><text fill="#000000" font-family="sans-serif" font-size="14" lengthAdjust="spacing" textLength="56" x="215.75" y="950.7422">id: String</text><line style="stroke:#181818;stroke-width:0.5;" x1="196.75" x2="305.75" y1="958.2559" y2="958.2559"/></g><!--class SensorMapperDTO--><g id="elem_SensorMapperDTO"><rect codeLine="59" fill="#F1F1F1" height="66.6211" id="SensorMapperDTO" rx="2.5" ry="2.5" style="stroke:#181818;stroke-width:0.5;" width="511" x="736.75" y="516.1348"/><ellipse cx="926.5" cy="532.1348" fill="#ADD1B2" rx="11" ry="11" style="stroke:#181818;stroke-width:1.0;"/><path d="M929.2656,528.0098 Q929.4219,527.791 929.6094,527.6816 Q929.7969,527.5723 930.0156,527.5723 Q930.3906,527.5723 930.625,527.8379 Q930.8594,528.0879 930.8594,528.6973 L930.8594,530.1504 Q930.8594,530.7598 930.625,531.0254 Q930.3906,531.291 930.0156,531.291 Q929.6719,531.291 929.4688,531.0879 Q929.2656,530.9004 929.1563,530.3848 Q929.1094,530.0254 928.9219,529.8379 Q928.5938,529.4629 927.9844,529.2441 Q927.375,529.0254 926.75,529.0254 Q925.9844,529.0254 925.3438,529.3535 Q924.7188,529.6816 924.2188,530.4316 Q923.7344,531.1816 923.7344,532.2129 L923.7344,533.3066 Q923.7344,534.541 924.625,535.3691 Q925.5156,536.1816 927.1094,536.1816 Q928.0469,536.1816 928.7031,535.9316 Q929.0938,535.7754 929.5156,535.3379 Q929.7813,535.0723 929.9219,534.9941 Q930.0781,534.916 930.2813,534.916 Q930.6094,534.916 930.8594,535.1816 Q931.125,535.4316 931.125,535.7754 Q931.125,536.1191 930.7813,536.5254 Q930.2813,537.1035 929.4844,537.4316 Q928.4063,537.8848 927.1094,537.8848 Q925.5938,537.8848 924.3906,537.2598 Q923.4063,536.7598 922.7188,535.6973 Q922.0313,534.6191 922.0313,533.3379 L922.0313,532.1816 Q922.0313,530.8535 922.6406,529.7129 Q923.2656,528.5566 924.3594,527.9473 Q925.4531,527.3223 926.6875,527.3223 Q927.4219,527.3223 928.0625,527.4941 Q928.7188,527.6504 929.2656,528.0098 Z " fill="#000000"/><text fill="#000000" font-family="sans-serif" font-size="14" lengthAdjust="spacing" textLength="123" x="947" y="537.9316">SensorMapperDTO</text><line style="stroke:#181818;stroke-width:0.5;" x1="737.75" x2="1246.75" y1="548.1348" y2="548.1348"/><line style="stroke:#181818;stroke-width:0.5;" x1="737.75" x2="1246.75" y1="556.1348" y2="556.1348"/><ellipse cx="747.75" cy="570.9453" fill="#84BE84" rx="3" ry="3" style="stroke:#038048;stroke-width:1.0;"/><text fill="#000000" font-family="sans-serif" font-size="14" lengthAdjust="spacing" textLength="485" x="756.75" y="575.2422">sensorIDsToDTOList(Iterable&lt;SensorID&gt; listOfSensorIDs): List&lt;SensorDTO&gt;</text></g><!--class SensorDTO--><g id="elem_SensorDTO"><rect codeLine="63" fill="#F1F1F1" height="66.6211" id="SensorDTO" rx="2.5" ry="2.5" style="stroke:#181818;stroke-width:0.5;" width="150" x="1098.25" y="726.6348"/><ellipse cx="1132.6" cy="742.6348" fill="#ADD1B2" rx="11" ry="11" style="stroke:#181818;stroke-width:1.0;"/><path d="M1135.3656,738.5098 Q1135.5219,738.291 1135.7094,738.1816 Q1135.8969,738.0723 1136.1156,738.0723 Q1136.4906,738.0723 1136.725,738.3379 Q1136.9594,738.5879 1136.9594,739.1973 L1136.9594,740.6504 Q1136.9594,741.2598 1136.725,741.5254 Q1136.4906,741.791 1136.1156,741.791 Q1135.7719,741.791 1135.5688,741.5879 Q1135.3656,741.4004 1135.2563,740.8848 Q1135.2094,740.5254 1135.0219,740.3379 Q1134.6938,739.9629 1134.0844,739.7441 Q1133.475,739.5254 1132.85,739.5254 Q1132.0844,739.5254 1131.4438,739.8535 Q1130.8188,740.1816 1130.3188,740.9316 Q1129.8344,741.6816 1129.8344,742.7129 L1129.8344,743.8066 Q1129.8344,745.041 1130.725,745.8691 Q1131.6156,746.6816 1133.2094,746.6816 Q1134.1469,746.6816 1134.8031,746.4316 Q1135.1938,746.2754 1135.6156,745.8379 Q1135.8813,745.5723 1136.0219,745.4941 Q1136.1781,745.416 1136.3813,745.416 Q1136.7094,745.416 1136.9594,745.6816 Q1137.225,745.9316 1137.225,746.2754 Q1137.225,746.6191 1136.8813,747.0254 Q1136.3813,747.6035 1135.5844,747.9316 Q1134.5063,748.3848 1133.2094,748.3848 Q1131.6938,748.3848 1130.4906,747.7598 Q1129.5063,747.2598 1128.8188,746.1973 Q1128.1313,745.1191 1128.1313,743.8379 L1128.1313,742.6816 Q1128.1313,741.3535 1128.7406,740.2129 Q1129.3656,739.0566 1130.4594,738.4473 Q1131.5531,737.8223 1132.7875,737.8223 Q1133.5219,737.8223 1134.1625,737.9941 Q1134.8188,738.1504 1135.3656,738.5098 Z " fill="#000000"/><text fill="#000000" font-family="sans-serif" font-size="14" lengthAdjust="spacing" textLength="75" x="1150.9" y="748.4316">SensorDTO</text><line style="stroke:#181818;stroke-width:0.5;" x1="1099.25" x2="1247.25" y1="758.6348" y2="758.6348"/><ellipse cx="1109.25" cy="773.4453" fill="none" rx="3" ry="3" style="stroke:#038048;stroke-width:1.0;"/><text fill="#000000" font-family="sans-serif" font-size="14" lengthAdjust="spacing" textLength="124" x="1118.25" y="777.7422">sensorName: String</text><line style="stroke:#181818;stroke-width:0.5;" x1="1099.25" x2="1247.25" y1="785.2559" y2="785.2559"/></g><!--link DeviceControllerWeb to SensorMapperDTO--><g id="link_DeviceControllerWeb_SensorMapperDTO"><path codeLine="67" d="M765.25,409.8748 C765.25,450.1948 765.25,483.3748 765.25,509.9448 " fill="none" id="DeviceControllerWeb-to-SensorMapperDTO" style="stroke:#181818;stroke-width:1.0;stroke-dasharray:7.0,7.0;"/><polygon fill="#181818" points="765.25,515.9448,769.25,506.9448,765.25,510.9448,761.25,506.9448,765.25,515.9448" style="stroke:#181818;stroke-width:1.0;"/><text fill="#000000" font-family="sans-serif" font-size="13" lengthAdjust="spacing" textLength="42" x="722.25" y="458.9331">&#171;uses&#187;</text></g><!--link DeviceControllerWeb to SensorService--><g id="link_DeviceControllerWeb_SensorService"><path codeLine="68" d="M512.5,409.8748 C512.5,430.5948 512.5,451.0148 512.5,469.5748 " fill="none" id="DeviceControllerWeb-SensorService" style="stroke:#181818;stroke-width:1.0;"/></g><!--link DeviceControllerWeb to DeviceID--><g id="link_DeviceControllerWeb_DeviceID"><path codeLine="69" d="M360.38,246.6348 C220.67,246.6348 65,246.6348 65,246.6348 C65,246.6348 65,755.7348 65,893.5548 " fill="none" id="DeviceControllerWeb-to-DeviceID" style="stroke:#181818;stroke-width:1.0;stroke-dasharray:7.0,7.0;"/><polygon fill="#181818" points="65,899.5548,69,890.5548,65,894.5548,61,890.5548,65,899.5548" style="stroke:#181818;stroke-width:1.0;"/><text fill="#000000" font-family="sans-serif" font-size="13" lengthAdjust="spacing" textLength="57" x="7" y="421.4331">&#171;creates&#187;</text></g><!--link DeviceControllerWeb to SensorFunctionalityID--><g id="link_DeviceControllerWeb_SensorFunctionalityID"><path codeLine="70" d="M700.5,409.8548 C700.5,525.3748 700.5,659.6348 700.5,659.6348 C700.5,659.6348 438.75,659.6348 438.75,659.6348 C438.75,659.6348 438.75,893.6348 438.75,893.6348 C438.75,893.6348 556.32,893.6348 647.56,893.6348 " fill="none" id="DeviceControllerWeb-to-SensorFunctionalityID" style="stroke:#181818;stroke-width:1.0;stroke-dasharray:7.0,7.0;"/><polygon fill="#181818" points="653.56,893.6348,644.56,889.6348,648.56,893.6348,644.56,897.6348,653.56,893.6348" style="stroke:#181818;stroke-width:1.0;"/><text fill="#000000" font-family="sans-serif" font-size="13" lengthAdjust="spacing" textLength="57" x="412.11" y="655.6631">&#171;creates&#187;</text></g><!--link SensorService to SensorRepository--><g id="link_SensorService_SensorRepository"><path codeLine="71" d="M560.25,629.8148 C560.25,652.7048 560.25,677.2748 560.25,698.8348 " fill="none" id="SensorService-SensorRepository" style="stroke:#181818;stroke-width:1.0;"/></g><!--link SensorService to Sensor--><g id="link_SensorService_Sensor"><path codeLine="72" d="M333.75,629.8148 C333.75,649.4548 333.75,664.3248 333.75,683.4748 " fill="none" id="SensorService-to-Sensor" style="stroke:#181818;stroke-width:1.0;stroke-dasharray:7.0,7.0;"/><polygon fill="#181818" points="333.75,689.4748,337.75,680.4748,333.75,684.4748,329.75,680.4748,333.75,689.4748" style="stroke:#181818;stroke-width:1.0;"/><text fill="#000000" font-family="sans-serif" font-size="13" lengthAdjust="spacing" textLength="42" x="290.75" y="655.6731">&#171;uses&#187;</text></g><!--link SensorMapperDTO to SensorDTO--><g id="link_SensorMapperDTO_SensorDTO"><path codeLine="73" d="M1173,583.4548 C1173,622.7348 1173,681.1548 1173,720.3948 " fill="none" id="SensorMapperDTO-to-SensorDTO" style="stroke:#181818;stroke-width:1.0;stroke-dasharray:7.0,7.0;"/><polygon fill="#181818" points="1173,726.3948,1177,717.3948,1173,721.3948,1169,717.3948,1173,726.3948" style="stroke:#181818;stroke-width:1.0;"/><text fill="#000000" font-family="sans-serif" font-size="13" lengthAdjust="spacing" textLength="57" x="1115" y="650.9531">&#171;creates&#187;</text></g><!--link Sensor to SensorID--><g id="link_Sensor_SensorID"><path codeLine="75" d="M251.25,830.9948 C251.25,854.7048 251.25,868.0248 251.25,887.5248 " fill="none" id="Sensor-to-SensorID" style="stroke:#181818;stroke-width:1.0;"/><polygon fill="#181818" points="251.25,899.5248,255.25,893.5248,251.25,887.5248,247.25,893.5248,251.25,899.5248" style="stroke:#181818;stroke-width:1.0;"/><text fill="#000000" font-family="sans-serif" font-size="13" lengthAdjust="spacing" textLength="7" x="243.9055" y="852.8442">1</text><text fill="#000000" font-family="sans-serif" font-size="13" lengthAdjust="spacing" textLength="7" x="243.5609" y="888.3286">1</text></g><!--link Sensor to SensorFunctionalityID--><g id="link_Sensor_SensorFunctionalityID"><path codeLine="76" d="M364,830.7848 C364,864.0948 364,896.6348 364,896.6348 C364,896.6348 527.43,896.6348 641.52,896.6348 " fill="none" id="Sensor-to-SensorFunctionalityID" style="stroke:#181818;stroke-width:1.0;"/><polygon fill="#181818" points="653.52,896.6348,647.52,892.6348,641.52,896.6348,647.52,900.6348,653.52,896.6348" style="stroke:#181818;stroke-width:1.0;"/><text fill="#000000" font-family="sans-serif" font-size="13" lengthAdjust="spacing" textLength="7" x="368.2664" y="852.985">1</text><text fill="#000000" font-family="sans-serif" font-size="13" lengthAdjust="spacing" textLength="7" x="638.6126" y="890.0791">1</text></g><!--link Sensor to DeviceID--><g id="link_Sensor_DeviceID"><path codeLine="77" d="M119.5,830.9948 C119.5,854.7048 119.5,868.0248 119.5,887.5248 " fill="none" id="Sensor-to-DeviceID" style="stroke:#181818;stroke-width:1.0;"/><polygon fill="#181818" points="119.5,899.5248,123.5,893.5248,119.5,887.5248,115.5,893.5248,119.5,899.5248" style="stroke:#181818;stroke-width:1.0;"/><text fill="#000000" font-family="sans-serif" font-size="13" lengthAdjust="spacing" textLength="7" x="99.1863" y="852.8442">1</text><text fill="#000000" font-family="sans-serif" font-size="13" lengthAdjust="spacing" textLength="7" x="115.0102" y="888.3286">1</text></g><!--SRC=[jLLDSzem4BtxL-oaXqA9oVJZvA5CI9oqJ9CwWsbouIBi1TGOsPL4PfXC_djN_hOnQNke3s3jljtLFhsLtswqJfHpTfP4JEZTDXe6yVOiY9XITiZPMhAjPQb7BX96hn1nWNgV8CHIRs9BSnqX_BZy-6dumO4RhZHet2OecTv918L2nL815n3Y4mzmQ2KiU6Hhuv9FAE7D3Lzlz1V9zl1iMMbPS5FePIoqZAC8vGCkdoqxp-1J7FqvEIfVaZk8OeKNjBzmbaQLmCjk1uLasok1VdrPkczPGlsuSwy0b0Q2i43lcAxbc3GDDKWjpwHj8jWJYtPLS_Ur5JctAJ0hVxqJWUQnO17NUmTkZxdAi1coa8jr0SsNbXtHQMLnobjbR3vmlUb8rLi8NqiAoi_WEzlYAUGcTOYVkls5S8mQHbcsgJks1b-kvh16RSpUAY_SExzZUdFF96VB27idF3pfGqUjXJYVuQyTAdrdPDYJjE0IG_WCAnOfxB- -6ug76Qea5Wgl18bsF_AMFp7GOwXOe7CuXQyq3RuczQgXzyrwQKfowiBetXk3KICFdRncXVAxYlzDI7xIAMf5WedbFdCuS5rVbgASOH8NUZJlYXjGEIILgPYJ1gY3f7g4_vhR6gnealBZcxhUQf8LkDXtX2r4ByoPEproDDcjKTC9KSE5Haayu467AKEgPVGJmwdBD3kafFBzcThwb9c8spZ4g3bXfJcZuM9V26DISD8Sd7_gFksTBPMMj36ewmD6Cy-R6nK1FRRAoIhQdRfrkvcOKcWrUwksqotND690SzhfxVLV3UCXfjDLmSZpqf3wVvkXyZ8rB0qAYjGy9fCXkJSbKPbRfj9QElp5NKJOvd5GtBXT94zlUZr2DWLqVBzWE1n3UwCEZ4OxXMeyxWonxTONwLZUGeCcNo2HwQCf3Thl5aCzj7afbVkeNG9DH9KMQZsrZwL2vRrN1NCidBm_iUrtz5kAf-quehu3MC69HSzl]--></g></svg>