<?xml version="1.0" encoding="us-ascii" standalone="no"?><svg xmlns="http://www.w3.org/2000/svg" xmlns:xlink="http://www.w3.org/1999/xlink" contentStyleType="text/css" height="1054px" preserveAspectRatio="none" style="width:1981px;height:1054px;background:#FFFFFF;" version="1.1" viewBox="0 0 1981 1054" width="1981px" zoomAndPan="magnify"><defs/><g><text fill="#000000" font-family="sans-serif" font-size="14" font-weight="bold" lengthAdjust="spacing" textLength="696" x="633.5" y="25.1074">UC34: As a Room Owner [or Power User, or Administrator], I want to get the maximum instantaneous</text><text fill="#000000" font-family="sans-serif" font-size="14" font-weight="bold" lengthAdjust="spacing" textLength="622" x="674.5" y="43.7285">temperature difference between a device in the room and the outside, in a given period.</text><!--cluster server--><g id="cluster_server"><path d="M8.5,64.2559 L56.5,64.2559 A3.75,3.75 0 0 1 59,66.7559 L66,88.877 L1971.5,88.877 A2.5,2.5 0 0 1 1974,91.377 L1974,1044.7559 A2.5,2.5 0 0 1 1971.5,1047.2559 L8.5,1047.2559 A2.5,2.5 0 0 1 6,1044.7559 L6,66.7559 A2.5,2.5 0 0 1 8.5,64.2559 " fill="#D3D3D3" style="stroke:#000000;stroke-width:1.5;"/><line style="stroke:#000000;stroke-width:1.5;" x1="6" x2="66" y1="88.877" y2="88.877"/><text fill="#000000" font-family="sans-serif" font-size="14" font-weight="bold" lengthAdjust="spacing" textLength="47" x="10" y="81.3633">server</text></g><!--class HouseControllerWeb--><g id="elem_HouseControllerWeb"><rect codeLine="8" fill="#F1F1F1" height="271.4531" id="HouseControllerWeb" rx="2.5" ry="2.5" style="stroke:#181818;stroke-width:0.5;" width="745" x="1042.5" y="101.2559"/><ellipse cx="1345.25" cy="117.2559" fill="#ADD1B2" rx="11" ry="11" style="stroke:#181818;stroke-width:1.0;"/><path d="M1348.0156,113.1309 Q1348.1719,112.9121 1348.3594,112.8027 Q1348.5469,112.6934 1348.7656,112.6934 Q1349.1406,112.6934 1349.375,112.959 Q1349.6094,113.209 1349.6094,113.8184 L1349.6094,115.2715 Q1349.6094,115.8809 1349.375,116.1465 Q1349.1406,116.4121 1348.7656,116.4121 Q1348.4219,116.4121 1348.2188,116.209 Q1348.0156,116.0215 1347.9063,115.5059 Q1347.8594,115.1465 1347.6719,114.959 Q1347.3438,114.584 1346.7344,114.3652 Q1346.125,114.1465 1345.5,114.1465 Q1344.7344,114.1465 1344.0938,114.4746 Q1343.4688,114.8027 1342.9688,115.5527 Q1342.4844,116.3027 1342.4844,117.334 L1342.4844,118.4277 Q1342.4844,119.6621 1343.375,120.4902 Q1344.2656,121.3027 1345.8594,121.3027 Q1346.7969,121.3027 1347.4531,121.0527 Q1347.8438,120.8965 1348.2656,120.459 Q1348.5313,120.1934 1348.6719,120.1152 Q1348.8281,120.0371 1349.0313,120.0371 Q1349.3594,120.0371 1349.6094,120.3027 Q1349.875,120.5527 1349.875,120.8965 Q1349.875,121.2402 1349.5313,121.6465 Q1349.0313,122.2246 1348.2344,122.5527 Q1347.1563,123.0059 1345.8594,123.0059 Q1344.3438,123.0059 1343.1406,122.3809 Q1342.1563,121.8809 1341.4688,120.8184 Q1340.7813,119.7402 1340.7813,118.459 L1340.7813,117.3027 Q1340.7813,115.9746 1341.3906,114.834 Q1342.0156,113.6777 1343.1094,113.0684 Q1344.2031,112.4434 1345.4375,112.4434 Q1346.1719,112.4434 1346.8125,112.6152 Q1347.4688,112.7715 1348.0156,113.1309 Z " fill="#000000"/><text fill="#000000" font-family="sans-serif" font-size="14" lengthAdjust="spacing" textLength="131" x="1365.75" y="123.0527">HouseControllerWeb</text><line style="stroke:#181818;stroke-width:0.5;" x1="1043.5" x2="1786.5" y1="133.2559" y2="133.2559"/><rect fill="none" height="6" style="stroke:#C82930;stroke-width:1.0;" width="6" x="1050.5" y="145.0664"/><text fill="#000000" font-family="sans-serif" font-size="14" lengthAdjust="spacing" textLength="181" x="1062.5" y="152.3633">houseService: HouseService</text><rect fill="none" height="6" style="stroke:#C82930;stroke-width:1.0;" width="6" x="1050.5" y="163.6875"/><text fill="#000000" font-family="sans-serif" font-size="14" lengthAdjust="spacing" textLength="113" x="1062.5" y="170.9844">houseID: HouseID</text><rect fill="none" height="6" style="stroke:#C82930;stroke-width:1.0;" width="6" x="1050.5" y="182.3086"/><text fill="#000000" font-family="sans-serif" font-size="14" lengthAdjust="spacing" textLength="171" x="1062.5" y="189.6055">roomService: RoomService</text><rect fill="none" height="6" style="stroke:#C82930;stroke-width:1.0;" width="6" x="1050.5" y="200.9297"/><text fill="#000000" font-family="sans-serif" font-size="14" lengthAdjust="spacing" textLength="499" x="1062.5" y="208.2266">listDevicesByFunctionalityService: ListAllDevicesInHouseByFunctionalityService</text><rect fill="none" height="6" style="stroke:#C82930;stroke-width:1.0;" width="6" x="1050.5" y="219.5508"/><text fill="#000000" font-family="sans-serif" font-size="14" lengthAdjust="spacing" textLength="233" x="1062.5" y="226.8477">roomMapperDTO: RoomMapperDTO</text><rect fill="none" height="6" style="stroke:#C82930;stroke-width:1.0;" width="6" x="1050.5" y="238.1719"/><text fill="#000000" font-family="sans-serif" font-size="14" lengthAdjust="spacing" textLength="248" x="1062.5" y="245.4688">deviceMapperDTO: DeviceMapperDTO</text><rect fill="none" height="6" style="stroke:#C82930;stroke-width:1.0;" width="6" x="1050.5" y="256.793"/><text fill="#000000" font-family="sans-serif" font-size="14" lengthAdjust="spacing" textLength="429" x="1062.5" y="264.0898">actuatorFunctionalityMapperDTO: ActuatorFunctionalityMapperDTO</text><rect fill="none" height="6" style="stroke:#C82930;stroke-width:1.0;" width="6" x="1050.5" y="275.4141"/><text fill="#000000" font-family="sans-serif" font-size="14" lengthAdjust="spacing" textLength="412" x="1062.5" y="282.7109">sensorFunctionalityMapperDTO: SensorFunctionalityMapperDTO</text><line style="stroke:#181818;stroke-width:0.5;" x1="1043.5" x2="1786.5" y1="290.2246" y2="290.2246"/><ellipse cx="1053.5" cy="314.3457" fill="#84BE84" rx="3" ry="3" style="stroke:#038048;stroke-width:1.0;"/><text fill="#000000" font-family="sans-serif" font-size="14" lengthAdjust="spacing" textLength="719" x="1062.5" y="309.332">GET handleHouseQuery(@PathVariable String insideSensorIDString, @RequestParam LocalDateTime givenStart,</text><text fill="#000000" font-family="sans-serif" font-size="14" lengthAdjust="spacing" textLength="583" x="1062.5" y="327.9531">@RequestParam LocalDateTime givenEnd): ResponseEntity&lt;&gt;(maxTempDif, HttpStatus.OK)</text><rect fill="#F24D5C" height="6" style="stroke:#C82930;stroke-width:1.0;" width="6" x="1050.5" y="348.5879"/><text fill="#000000" font-family="sans-serif" font-size="14" lengthAdjust="spacing" textLength="468" x="1062.5" y="346.5742">maxTempDifOutsideInsideWeatherServiceAPI(String insideSensorIDString,</text><text fill="#000000" font-family="sans-serif" font-size="14" lengthAdjust="spacing" textLength="330" x="1062.5" y="365.1953">LocalDateTime givenStar, LocalDateTime givenEnd)</text></g><!--class WeatherAPIService--><g id="elem_WeatherAPIService"><rect codeLine="21" fill="#F1F1F1" height="196.9688" id="WeatherAPIService" rx="2.5" ry="2.5" style="stroke:#181818;stroke-width:0.5;" width="313" x="1392.5" y="432.2559"/><ellipse cx="1483.75" cy="448.2559" fill="#ADD1B2" rx="11" ry="11" style="stroke:#181818;stroke-width:1.0;"/><path d="M1486.5156,444.1309 Q1486.6719,443.9121 1486.8594,443.8027 Q1487.0469,443.6934 1487.2656,443.6934 Q1487.6406,443.6934 1487.875,443.959 Q1488.1094,444.209 1488.1094,444.8184 L1488.1094,446.2715 Q1488.1094,446.8809 1487.875,447.1465 Q1487.6406,447.4121 1487.2656,447.4121 Q1486.9219,447.4121 1486.7188,447.209 Q1486.5156,447.0215 1486.4063,446.5059 Q1486.3594,446.1465 1486.1719,445.959 Q1485.8438,445.584 1485.2344,445.3652 Q1484.625,445.1465 1484,445.1465 Q1483.2344,445.1465 1482.5938,445.4746 Q1481.9688,445.8027 1481.4688,446.5527 Q1480.9844,447.3027 1480.9844,448.334 L1480.9844,449.4277 Q1480.9844,450.6621 1481.875,451.4902 Q1482.7656,452.3027 1484.3594,452.3027 Q1485.2969,452.3027 1485.9531,452.0527 Q1486.3438,451.8965 1486.7656,451.459 Q1487.0313,451.1934 1487.1719,451.1152 Q1487.3281,451.0371 1487.5313,451.0371 Q1487.8594,451.0371 1488.1094,451.3027 Q1488.375,451.5527 1488.375,451.8965 Q1488.375,452.2402 1488.0313,452.6465 Q1487.5313,453.2246 1486.7344,453.5527 Q1485.6563,454.0059 1484.3594,454.0059 Q1482.8438,454.0059 1481.6406,453.3809 Q1480.6563,452.8809 1479.9688,451.8184 Q1479.2813,450.7402 1479.2813,449.459 L1479.2813,448.3027 Q1479.2813,446.9746 1479.8906,445.834 Q1480.5156,444.6777 1481.6094,444.0684 Q1482.7031,443.4434 1483.9375,443.4434 Q1484.6719,443.4434 1485.3125,443.6152 Q1485.9688,443.7715 1486.5156,444.1309 Z " fill="#000000"/><text fill="#000000" font-family="sans-serif" font-size="14" lengthAdjust="spacing" textLength="122" x="1504.25" y="454.0527">WeatherAPIService</text><line style="stroke:#181818;stroke-width:0.5;" x1="1393.5" x2="1704.5" y1="464.2559" y2="464.2559"/><rect fill="none" height="6" style="stroke:#C82930;stroke-width:1.0;" width="6" x="1400.5" y="476.0664"/><text fill="#000000" font-family="sans-serif" font-size="14" lengthAdjust="spacing" textLength="264" x="1412.5" y="483.3633">weatherAPIGateway: WeatherAPIGateway</text><rect fill="none" height="6" style="stroke:#C82930;stroke-width:1.0;" width="6" x="1400.5" y="494.6875"/><text fill="#000000" font-family="sans-serif" font-size="14" lengthAdjust="spacing" textLength="203" x="1412.5" y="501.9844">configScrapper: ConfigScrapper</text><rect fill="none" height="6" style="stroke:#C82930;stroke-width:1.0;" width="6" x="1400.5" y="513.3086"/><text fill="#000000" font-family="sans-serif" font-size="14" lengthAdjust="spacing" textLength="223" x="1412.5" y="520.6055">houseRepository: HouseRepository</text><rect fill="none" height="6" style="stroke:#C82930;stroke-width:1.0;" width="6" x="1400.5" y="531.9297"/><text fill="#000000" font-family="sans-serif" font-size="14" lengthAdjust="spacing" textLength="287" x="1412.5" y="539.2266">valueRepository: InstantTimeValueRepository</text><rect fill="none" height="6" style="stroke:#C82930;stroke-width:1.0;" width="6" x="1400.5" y="550.5508"/><text fill="#000000" font-family="sans-serif" font-size="14" lengthAdjust="spacing" textLength="97" x="1412.5" y="557.8477">latitude: double</text><rect fill="none" height="6" style="stroke:#C82930;stroke-width:1.0;" width="6" x="1400.5" y="569.1719"/><text fill="#000000" font-family="sans-serif" font-size="14" lengthAdjust="spacing" textLength="109" x="1412.5" y="576.4688">longitude: double</text><line style="stroke:#181818;stroke-width:0.5;" x1="1393.5" x2="1704.5" y1="583.9824" y2="583.9824"/><rect fill="#F24D5C" height="6" style="stroke:#C82930;stroke-width:1.0;" width="6" x="1400.5" y="595.793"/><text fill="#000000" font-family="sans-serif" font-size="14" lengthAdjust="spacing" textLength="206" x="1412.5" y="603.0898">defineGroupHouseLocation(): int</text><ellipse cx="1403.5" cy="617.4141" fill="#84BE84" rx="3" ry="3" style="stroke:#038048;stroke-width:1.0;"/><text fill="#000000" font-family="sans-serif" font-size="14" lengthAdjust="spacing" textLength="283" x="1412.5" y="621.7109">getSunriseSunsetHour(String option): double</text></g><!--class HouseRepository--><g id="elem_HouseRepository"><rect codeLine="32" fill="#F1F1F1" height="66.6211" id="HouseRepository" rx="2.5" ry="2.5" style="stroke:#181818;stroke-width:0.5;" width="217" x="1740.5" y="497.2559"/><ellipse cx="1776.65" cy="513.2559" fill="#B4A7E5" rx="11" ry="11" style="stroke:#181818;stroke-width:1.0;"/><path d="M1777.6031,509.8965 L1777.6031,516.5527 L1779.3219,516.5527 Q1779.9313,516.5527 1780.1969,516.7871 Q1780.4625,517.0215 1780.4625,517.4121 Q1780.4625,517.7871 1780.1969,518.0215 Q1779.9313,518.2559 1779.3219,518.2559 L1774.1813,518.2559 Q1773.5719,518.2559 1773.3063,518.0215 Q1773.0406,517.7871 1773.0406,517.3965 Q1773.0406,517.0215 1773.3063,516.7871 Q1773.5719,516.5527 1774.1813,516.5527 L1775.9,516.5527 L1775.9,509.8965 L1774.1813,509.8965 Q1773.5719,509.8965 1773.3063,509.6621 Q1773.0406,509.4277 1773.0406,509.0371 Q1773.0406,508.6621 1773.3063,508.4277 Q1773.5719,508.1934 1774.1813,508.1934 L1779.3219,508.1934 Q1779.9313,508.1934 1780.1969,508.4277 Q1780.4625,508.6621 1780.4625,509.0371 Q1780.4625,509.4277 1780.1969,509.6621 Q1779.9313,509.8965 1779.3219,509.8965 L1777.6031,509.8965 Z " fill="#000000"/><text fill="#000000" font-family="sans-serif" font-size="14" font-style="italic" lengthAdjust="spacing" textLength="109" x="1795.35" y="519.0527">HouseRepository</text><rect fill="#FFFFFF" height="17.9609" style="stroke:#181818;stroke-width:1.0;stroke-dasharray:2.0,2.0;" width="27" x="1933.5" y="494.2559"/><text fill="#000000" font-family="sans-serif" font-size="12" font-style="italic" lengthAdjust="spacing" textLength="25" x="1934.5" y="508.2051">repo</text><line style="stroke:#181818;stroke-width:0.5;" x1="1741.5" x2="1956.5" y1="529.2559" y2="529.2559"/><line style="stroke:#181818;stroke-width:0.5;" x1="1741.5" x2="1956.5" y1="537.2559" y2="537.2559"/><text fill="#000000" font-family="sans-serif" font-size="14" lengthAdjust="spacing" textLength="205" x="1746.5" y="556.3633">findAllEntities(): Iterable&lt;House&gt;</text></g><!--class House--><g id="elem_House"><rect codeLine="36" fill="#F1F1F1" height="85.2422" id="House" rx="2.5" ry="2.5" style="stroke:#181818;stroke-width:0.5;" width="195" x="1465.5" y="735.7559"/><ellipse cx="1526.25" cy="751.7559" fill="#ADD1B2" rx="11" ry="11" style="stroke:#181818;stroke-width:1.0;"/><path d="M1529.0156,747.6309 Q1529.1719,747.4121 1529.3594,747.3027 Q1529.5469,747.1934 1529.7656,747.1934 Q1530.1406,747.1934 1530.375,747.459 Q1530.6094,747.709 1530.6094,748.3184 L1530.6094,749.7715 Q1530.6094,750.3809 1530.375,750.6465 Q1530.1406,750.9121 1529.7656,750.9121 Q1529.4219,750.9121 1529.2188,750.709 Q1529.0156,750.5215 1528.9063,750.0059 Q1528.8594,749.6465 1528.6719,749.459 Q1528.3438,749.084 1527.7344,748.8652 Q1527.125,748.6465 1526.5,748.6465 Q1525.7344,748.6465 1525.0938,748.9746 Q1524.4688,749.3027 1523.9688,750.0527 Q1523.4844,750.8027 1523.4844,751.834 L1523.4844,752.9277 Q1523.4844,754.1621 1524.375,754.9902 Q1525.2656,755.8027 1526.8594,755.8027 Q1527.7969,755.8027 1528.4531,755.5527 Q1528.8438,755.3965 1529.2656,754.959 Q1529.5313,754.6934 1529.6719,754.6152 Q1529.8281,754.5371 1530.0313,754.5371 Q1530.3594,754.5371 1530.6094,754.8027 Q1530.875,755.0527 1530.875,755.3965 Q1530.875,755.7402 1530.5313,756.1465 Q1530.0313,756.7246 1529.2344,757.0527 Q1528.1563,757.5059 1526.8594,757.5059 Q1525.3438,757.5059 1524.1406,756.8809 Q1523.1563,756.3809 1522.4688,755.3184 Q1521.7813,754.2402 1521.7813,752.959 L1521.7813,751.8027 Q1521.7813,750.4746 1522.3906,749.334 Q1523.0156,748.1777 1524.1094,747.5684 Q1525.2031,746.9434 1526.4375,746.9434 Q1527.1719,746.9434 1527.8125,747.1152 Q1528.4688,747.2715 1529.0156,747.6309 Z " fill="#000000"/><text fill="#000000" font-family="sans-serif" font-size="14" lengthAdjust="spacing" textLength="40" x="1546.75" y="757.5527">House</text><rect fill="#FFFFFF" height="17.9609" style="stroke:#181818;stroke-width:1.0;stroke-dasharray:2.0,2.0;" width="23" x="1640.5" y="732.7559"/><text fill="#000000" font-family="sans-serif" font-size="12" font-style="italic" lengthAdjust="spacing" textLength="21" x="1641.5" y="746.7051">root</text><line style="stroke:#181818;stroke-width:0.5;" x1="1466.5" x2="1659.5" y1="767.7559" y2="767.7559"/><rect fill="none" height="6" style="stroke:#C82930;stroke-width:1.0;" width="6" x="1473.5" y="779.5664"/><text fill="#000000" font-family="sans-serif" font-size="14" lengthAdjust="spacing" textLength="169" x="1485.5" y="786.8633">houseID: HouseID houseID</text><rect fill="none" height="6" style="stroke:#C82930;stroke-width:1.0;" width="6" x="1473.5" y="798.1875"/><text fill="#000000" font-family="sans-serif" font-size="14" lengthAdjust="spacing" textLength="111" x="1485.5" y="805.4844">location: Location</text><line style="stroke:#181818;stroke-width:0.5;" x1="1466.5" x2="1659.5" y1="812.998" y2="812.998"/></g><!--class Location--><g id="elem_Location"><rect codeLine="41" fill="#F1F1F1" height="85.2422" id="Location" rx="2.5" ry="2.5" style="stroke:#181818;stroke-width:0.5;" width="154" x="1486" y="936.7559"/><ellipse cx="1522.15" cy="952.7559" fill="#ADD1B2" rx="11" ry="11" style="stroke:#181818;stroke-width:1.0;"/><path d="M1524.9156,948.6309 Q1525.0719,948.4121 1525.2594,948.3027 Q1525.4469,948.1934 1525.6656,948.1934 Q1526.0406,948.1934 1526.275,948.459 Q1526.5094,948.709 1526.5094,949.3184 L1526.5094,950.7715 Q1526.5094,951.3809 1526.275,951.6465 Q1526.0406,951.9121 1525.6656,951.9121 Q1525.3219,951.9121 1525.1188,951.709 Q1524.9156,951.5215 1524.8063,951.0059 Q1524.7594,950.6465 1524.5719,950.459 Q1524.2438,950.084 1523.6344,949.8652 Q1523.025,949.6465 1522.4,949.6465 Q1521.6344,949.6465 1520.9938,949.9746 Q1520.3688,950.3027 1519.8688,951.0527 Q1519.3844,951.8027 1519.3844,952.834 L1519.3844,953.9277 Q1519.3844,955.1621 1520.275,955.9902 Q1521.1656,956.8027 1522.7594,956.8027 Q1523.6969,956.8027 1524.3531,956.5527 Q1524.7438,956.3965 1525.1656,955.959 Q1525.4313,955.6934 1525.5719,955.6152 Q1525.7281,955.5371 1525.9313,955.5371 Q1526.2594,955.5371 1526.5094,955.8027 Q1526.775,956.0527 1526.775,956.3965 Q1526.775,956.7402 1526.4313,957.1465 Q1525.9313,957.7246 1525.1344,958.0527 Q1524.0563,958.5059 1522.7594,958.5059 Q1521.2438,958.5059 1520.0406,957.8809 Q1519.0563,957.3809 1518.3688,956.3184 Q1517.6813,955.2402 1517.6813,953.959 L1517.6813,952.8027 Q1517.6813,951.4746 1518.2906,950.334 Q1518.9156,949.1777 1520.0094,948.5684 Q1521.1031,947.9434 1522.3375,947.9434 Q1523.0719,947.9434 1523.7125,948.1152 Q1524.3688,948.2715 1524.9156,948.6309 Z " fill="#000000"/><text fill="#000000" font-family="sans-serif" font-size="14" lengthAdjust="spacing" textLength="54" x="1540.85" y="958.5527">Location</text><rect fill="#FFFFFF" height="17.9609" style="stroke:#181818;stroke-width:1.0;stroke-dasharray:2.0,2.0;" width="19" x="1624" y="933.7559"/><text fill="#000000" font-family="sans-serif" font-size="12" font-style="italic" lengthAdjust="spacing" textLength="17" x="1625" y="947.7051">VO</text><line style="stroke:#181818;stroke-width:0.5;" x1="1487" x2="1639" y1="968.7559" y2="968.7559"/><rect fill="none" height="6" style="stroke:#C82930;stroke-width:1.0;" width="6" x="1494" y="980.5664"/><text fill="#000000" font-family="sans-serif" font-size="14" lengthAdjust="spacing" textLength="128" x="1506" y="987.8633">gpsCode: GPSCode</text><rect fill="none" height="6" style="stroke:#C82930;stroke-width:1.0;" width="6" x="1494" y="999.1875"/><text fill="#000000" font-family="sans-serif" font-size="14" lengthAdjust="spacing" textLength="111" x="1506" y="1006.4844">address: Address</text><line style="stroke:#181818;stroke-width:0.5;" x1="1487" x2="1639" y1="1013.998" y2="1013.998"/></g><!--class GPSCode--><g id="elem_GPSCode"><rect codeLine="46" fill="#F1F1F1" height="85.2422" id="GPSCode" rx="2.5" ry="2.5" style="stroke:#181818;stroke-width:0.5;" width="135" x="1675.5" y="936.7559"/><ellipse cx="1699.05" cy="952.7559" fill="#ADD1B2" rx="11" ry="11" style="stroke:#181818;stroke-width:1.0;"/><path d="M1701.8156,948.6309 Q1701.9719,948.4121 1702.1594,948.3027 Q1702.3469,948.1934 1702.5656,948.1934 Q1702.9406,948.1934 1703.175,948.459 Q1703.4094,948.709 1703.4094,949.3184 L1703.4094,950.7715 Q1703.4094,951.3809 1703.175,951.6465 Q1702.9406,951.9121 1702.5656,951.9121 Q1702.2219,951.9121 1702.0188,951.709 Q1701.8156,951.5215 1701.7063,951.0059 Q1701.6594,950.6465 1701.4719,950.459 Q1701.1438,950.084 1700.5344,949.8652 Q1699.925,949.6465 1699.3,949.6465 Q1698.5344,949.6465 1697.8938,949.9746 Q1697.2688,950.3027 1696.7688,951.0527 Q1696.2844,951.8027 1696.2844,952.834 L1696.2844,953.9277 Q1696.2844,955.1621 1697.175,955.9902 Q1698.0656,956.8027 1699.6594,956.8027 Q1700.5969,956.8027 1701.2531,956.5527 Q1701.6438,956.3965 1702.0656,955.959 Q1702.3313,955.6934 1702.4719,955.6152 Q1702.6281,955.5371 1702.8313,955.5371 Q1703.1594,955.5371 1703.4094,955.8027 Q1703.675,956.0527 1703.675,956.3965 Q1703.675,956.7402 1703.3313,957.1465 Q1702.8313,957.7246 1702.0344,958.0527 Q1700.9563,958.5059 1699.6594,958.5059 Q1698.1438,958.5059 1696.9406,957.8809 Q1695.9563,957.3809 1695.2688,956.3184 Q1694.5813,955.2402 1694.5813,953.959 L1694.5813,952.8027 Q1694.5813,951.4746 1695.1906,950.334 Q1695.8156,949.1777 1696.9094,948.5684 Q1698.0031,947.9434 1699.2375,947.9434 Q1699.9719,947.9434 1700.6125,948.1152 Q1701.2688,948.2715 1701.8156,948.6309 Z " fill="#000000"/><text fill="#000000" font-family="sans-serif" font-size="14" lengthAdjust="spacing" textLength="63" x="1714.95" y="958.5527">GPSCode</text><rect fill="#FFFFFF" height="17.9609" style="stroke:#181818;stroke-width:1.0;stroke-dasharray:2.0,2.0;" width="19" x="1794.5" y="933.7559"/><text fill="#000000" font-family="sans-serif" font-size="12" font-style="italic" lengthAdjust="spacing" textLength="17" x="1795.5" y="947.7051">VO</text><line style="stroke:#181818;stroke-width:0.5;" x1="1676.5" x2="1809.5" y1="968.7559" y2="968.7559"/><rect fill="none" height="6" style="stroke:#C82930;stroke-width:1.0;" width="6" x="1683.5" y="980.5664"/><text fill="#000000" font-family="sans-serif" font-size="14" lengthAdjust="spacing" textLength="97" x="1695.5" y="987.8633">latitude: double</text><rect fill="none" height="6" style="stroke:#C82930;stroke-width:1.0;" width="6" x="1683.5" y="999.1875"/><text fill="#000000" font-family="sans-serif" font-size="14" lengthAdjust="spacing" textLength="109" x="1695.5" y="1006.4844">longitude: double</text><line style="stroke:#181818;stroke-width:0.5;" x1="1676.5" x2="1809.5" y1="1013.998" y2="1013.998"/></g><!--class SensorID--><g id="elem_SensorID"><rect codeLine="51" fill="#F1F1F1" height="66.6211" id="SensorID" rx="2.5" ry="2.5" style="stroke:#181818;stroke-width:0.5;" width="150" x="1207" y="497.2559"/><ellipse cx="1239.55" cy="513.2559" fill="#ADD1B2" rx="11" ry="11" style="stroke:#181818;stroke-width:1.0;"/><path d="M1242.3156,509.1309 Q1242.4719,508.9121 1242.6594,508.8027 Q1242.8469,508.6934 1243.0656,508.6934 Q1243.4406,508.6934 1243.675,508.959 Q1243.9094,509.209 1243.9094,509.8184 L1243.9094,511.2715 Q1243.9094,511.8809 1243.675,512.1465 Q1243.4406,512.4121 1243.0656,512.4121 Q1242.7219,512.4121 1242.5188,512.209 Q1242.3156,512.0215 1242.2063,511.5059 Q1242.1594,511.1465 1241.9719,510.959 Q1241.6438,510.584 1241.0344,510.3652 Q1240.425,510.1465 1239.8,510.1465 Q1239.0344,510.1465 1238.3938,510.4746 Q1237.7688,510.8027 1237.2688,511.5527 Q1236.7844,512.3027 1236.7844,513.334 L1236.7844,514.4277 Q1236.7844,515.6621 1237.675,516.4902 Q1238.5656,517.3027 1240.1594,517.3027 Q1241.0969,517.3027 1241.7531,517.0527 Q1242.1438,516.8965 1242.5656,516.459 Q1242.8313,516.1934 1242.9719,516.1152 Q1243.1281,516.0371 1243.3313,516.0371 Q1243.6594,516.0371 1243.9094,516.3027 Q1244.175,516.5527 1244.175,516.8965 Q1244.175,517.2402 1243.8313,517.6465 Q1243.3313,518.2246 1242.5344,518.5527 Q1241.4563,519.0059 1240.1594,519.0059 Q1238.6438,519.0059 1237.4406,518.3809 Q1236.4563,517.8809 1235.7688,516.8184 Q1235.0813,515.7402 1235.0813,514.459 L1235.0813,513.3027 Q1235.0813,511.9746 1235.6906,510.834 Q1236.3156,509.6777 1237.4094,509.0684 Q1238.5031,508.4434 1239.7375,508.4434 Q1240.4719,508.4434 1241.1125,508.6152 Q1241.7688,508.7715 1242.3156,509.1309 Z " fill="#000000"/><text fill="#000000" font-family="sans-serif" font-size="14" lengthAdjust="spacing" textLength="58" x="1257.45" y="519.0527">SensorID</text><rect fill="#FFFFFF" height="17.9609" style="stroke:#181818;stroke-width:1.0;stroke-dasharray:2.0,2.0;" width="19" x="1341" y="494.2559"/><text fill="#000000" font-family="sans-serif" font-size="12" font-style="italic" lengthAdjust="spacing" textLength="17" x="1342" y="508.2051">VO</text><line style="stroke:#181818;stroke-width:0.5;" x1="1208" x2="1356" y1="529.2559" y2="529.2559"/><rect fill="none" height="6" style="stroke:#C82930;stroke-width:1.0;" width="6" x="1215" y="541.0664"/><text fill="#000000" font-family="sans-serif" font-size="14" lengthAdjust="spacing" textLength="124" x="1227" y="548.3633">sensorName: String</text><line style="stroke:#181818;stroke-width:0.5;" x1="1208" x2="1356" y1="555.877" y2="555.877"/></g><!--class InstantTimeValueRepository--><g id="elem_InstantTimeValueRepository"><rect codeLine="55" fill="#F1F1F1" height="85.2422" id="InstantTimeValueRepository" rx="2.5" ry="2.5" style="stroke:#181818;stroke-width:0.5;" width="335" x="1095.5" y="735.7559"/><ellipse cx="1155.25" cy="751.7559" fill="#B4A7E5" rx="11" ry="11" style="stroke:#181818;stroke-width:1.0;"/><path d="M1156.2031,748.3965 L1156.2031,755.0527 L1157.9219,755.0527 Q1158.5313,755.0527 1158.7969,755.2871 Q1159.0625,755.5215 1159.0625,755.9121 Q1159.0625,756.2871 1158.7969,756.5215 Q1158.5313,756.7559 1157.9219,756.7559 L1152.7813,756.7559 Q1152.1719,756.7559 1151.9063,756.5215 Q1151.6406,756.2871 1151.6406,755.8965 Q1151.6406,755.5215 1151.9063,755.2871 Q1152.1719,755.0527 1152.7813,755.0527 L1154.5,755.0527 L1154.5,748.3965 L1152.7813,748.3965 Q1152.1719,748.3965 1151.9063,748.1621 Q1151.6406,747.9277 1151.6406,747.5371 Q1151.6406,747.1621 1151.9063,746.9277 Q1152.1719,746.6934 1152.7813,746.6934 L1157.9219,746.6934 Q1158.5313,746.6934 1158.7969,746.9277 Q1159.0625,747.1621 1159.0625,747.5371 Q1159.0625,747.9277 1158.7969,748.1621 Q1158.5313,748.3965 1157.9219,748.3965 L1156.2031,748.3965 Z " fill="#000000"/><text fill="#000000" font-family="sans-serif" font-size="14" font-style="italic" lengthAdjust="spacing" textLength="178" x="1175.75" y="757.5527">InstantTimeValueRepository</text><rect fill="#FFFFFF" height="17.9609" style="stroke:#181818;stroke-width:1.0;stroke-dasharray:2.0,2.0;" width="27" x="1406.5" y="732.7559"/><text fill="#000000" font-family="sans-serif" font-size="12" font-style="italic" lengthAdjust="spacing" textLength="25" x="1407.5" y="746.7051">repo</text><line style="stroke:#181818;stroke-width:0.5;" x1="1096.5" x2="1429.5" y1="767.7559" y2="767.7559"/><line style="stroke:#181818;stroke-width:0.5;" x1="1096.5" x2="1429.5" y1="775.7559" y2="775.7559"/><ellipse cx="1106.5" cy="790.5664" fill="#84BE84" rx="3" ry="3" style="stroke:#038048;stroke-width:1.0;"/><text fill="#000000" font-family="sans-serif" font-size="14" lengthAdjust="spacing" textLength="309" x="1115.5" y="794.8633">findBySensorId (SensorID sensorID): List&lt;Value&gt;</text><ellipse cx="1106.5" cy="809.1875" fill="#84BE84" rx="3" ry="3" style="stroke:#038048;stroke-width:1.0;"/><text fill="#000000" font-family="sans-serif" font-size="14" lengthAdjust="spacing" textLength="201" x="1115.5" y="813.4844">findAllEntities(): Iterable&lt;Value&gt;</text></g><!--class ValueRepository--><g id="elem_ValueRepository"><rect codeLine="60" fill="#F1F1F1" height="48" id="ValueRepository" rx="2.5" ry="2.5" style="stroke:#181818;stroke-width:0.5;" width="165" x="1006.5" y="506.7559"/><ellipse cx="1021.5" cy="522.7559" fill="#B4A7E5" rx="11" ry="11" style="stroke:#181818;stroke-width:1.0;"/><path d="M1022.4531,519.3965 L1022.4531,526.0527 L1024.1719,526.0527 Q1024.7813,526.0527 1025.0469,526.2871 Q1025.3125,526.5215 1025.3125,526.9121 Q1025.3125,527.2871 1025.0469,527.5215 Q1024.7813,527.7559 1024.1719,527.7559 L1019.0313,527.7559 Q1018.4219,527.7559 1018.1563,527.5215 Q1017.8906,527.2871 1017.8906,526.8965 Q1017.8906,526.5215 1018.1563,526.2871 Q1018.4219,526.0527 1019.0313,526.0527 L1020.75,526.0527 L1020.75,519.3965 L1019.0313,519.3965 Q1018.4219,519.3965 1018.1563,519.1621 Q1017.8906,518.9277 1017.8906,518.5371 Q1017.8906,518.1621 1018.1563,517.9277 Q1018.4219,517.6934 1019.0313,517.6934 L1024.1719,517.6934 Q1024.7813,517.6934 1025.0469,517.9277 Q1025.3125,518.1621 1025.3125,518.5371 Q1025.3125,518.9277 1025.0469,519.1621 Q1024.7813,519.3965 1024.1719,519.3965 L1022.4531,519.3965 Z " fill="#000000"/><text fill="#000000" font-family="sans-serif" font-size="14" font-style="italic" lengthAdjust="spacing" textLength="104" x="1035.5" y="528.5527">ValueRepository</text><rect fill="#FFFFFF" height="17.9609" style="stroke:#181818;stroke-width:1.0;stroke-dasharray:2.0,2.0;" width="27" x="1147.5" y="503.7559"/><text fill="#000000" font-family="sans-serif" font-size="12" font-style="italic" lengthAdjust="spacing" textLength="25" x="1148.5" y="517.7051">repo</text><line style="stroke:#181818;stroke-width:0.5;" x1="1007.5" x2="1170.5" y1="538.7559" y2="538.7559"/><line style="stroke:#181818;stroke-width:0.5;" x1="1007.5" x2="1170.5" y1="546.7559" y2="546.7559"/></g><!--class Value--><g id="elem_Value"><rect codeLine="63" fill="#F1F1F1" height="66.6211" id="Value" rx="2.5" ry="2.5" style="stroke:#181818;stroke-width:0.5;" width="170" x="801" y="497.2559"/><ellipse cx="851.25" cy="513.2559" fill="#B4A7E5" rx="11" ry="11" style="stroke:#181818;stroke-width:1.0;"/><path d="M852.2031,509.8965 L852.2031,516.5527 L853.9219,516.5527 Q854.5313,516.5527 854.7969,516.7871 Q855.0625,517.0215 855.0625,517.4121 Q855.0625,517.7871 854.7969,518.0215 Q854.5313,518.2559 853.9219,518.2559 L848.7813,518.2559 Q848.1719,518.2559 847.9063,518.0215 Q847.6406,517.7871 847.6406,517.3965 Q847.6406,517.0215 847.9063,516.7871 Q848.1719,516.5527 848.7813,516.5527 L850.5,516.5527 L850.5,509.8965 L848.7813,509.8965 Q848.1719,509.8965 847.9063,509.6621 Q847.6406,509.4277 847.6406,509.0371 Q847.6406,508.6621 847.9063,508.4277 Q848.1719,508.1934 848.7813,508.1934 L853.9219,508.1934 Q854.5313,508.1934 854.7969,508.4277 Q855.0625,508.6621 855.0625,509.0371 Q855.0625,509.4277 854.7969,509.6621 Q854.5313,509.8965 853.9219,509.8965 L852.2031,509.8965 Z " fill="#000000"/><text fill="#000000" font-family="sans-serif" font-size="14" font-style="italic" lengthAdjust="spacing" textLength="36" x="871.75" y="519.0527">Value</text><rect fill="#FFFFFF" height="17.9609" style="stroke:#181818;stroke-width:1.0;stroke-dasharray:2.0,2.0;" width="23" x="951" y="494.2559"/><text fill="#000000" font-family="sans-serif" font-size="12" font-style="italic" lengthAdjust="spacing" textLength="21" x="952" y="508.2051">root</text><line style="stroke:#181818;stroke-width:0.5;" x1="802" x2="970" y1="529.2559" y2="529.2559"/><line style="stroke:#181818;stroke-width:0.5;" x1="802" x2="970" y1="537.2559" y2="537.2559"/><ellipse cx="812" cy="552.0664" fill="#84BE84" rx="3" ry="3" style="stroke:#038048;stroke-width:1.0;"/><text fill="#000000" font-family="sans-serif" font-size="14" lengthAdjust="spacing" textLength="144" x="821" y="556.3633">getReading(): Reading</text></g><!--class InstantTimeValue--><g id="elem_InstantTimeValue"><rect codeLine="67" fill="#F1F1F1" height="141.1055" id="InstantTimeValue" rx="2.5" ry="2.5" style="stroke:#181818;stroke-width:0.5;" width="259" x="801.5" y="707.7559"/><ellipse cx="859.75" cy="723.7559" fill="#ADD1B2" rx="11" ry="11" style="stroke:#181818;stroke-width:1.0;"/><path d="M862.5156,719.6309 Q862.6719,719.4121 862.8594,719.3027 Q863.0469,719.1934 863.2656,719.1934 Q863.6406,719.1934 863.875,719.459 Q864.1094,719.709 864.1094,720.3184 L864.1094,721.7715 Q864.1094,722.3809 863.875,722.6465 Q863.6406,722.9121 863.2656,722.9121 Q862.9219,722.9121 862.7188,722.709 Q862.5156,722.5215 862.4063,722.0059 Q862.3594,721.6465 862.1719,721.459 Q861.8438,721.084 861.2344,720.8652 Q860.625,720.6465 860,720.6465 Q859.2344,720.6465 858.5938,720.9746 Q857.9688,721.3027 857.4688,722.0527 Q856.9844,722.8027 856.9844,723.834 L856.9844,724.9277 Q856.9844,726.1621 857.875,726.9902 Q858.7656,727.8027 860.3594,727.8027 Q861.2969,727.8027 861.9531,727.5527 Q862.3438,727.3965 862.7656,726.959 Q863.0313,726.6934 863.1719,726.6152 Q863.3281,726.5371 863.5313,726.5371 Q863.8594,726.5371 864.1094,726.8027 Q864.375,727.0527 864.375,727.3965 Q864.375,727.7402 864.0313,728.1465 Q863.5313,728.7246 862.7344,729.0527 Q861.6563,729.5059 860.3594,729.5059 Q858.8438,729.5059 857.6406,728.8809 Q856.6563,728.3809 855.9688,727.3184 Q855.2813,726.2402 855.2813,724.959 L855.2813,723.8027 Q855.2813,722.4746 855.8906,721.334 Q856.5156,720.1777 857.6094,719.5684 Q858.7031,718.9434 859.9375,718.9434 Q860.6719,718.9434 861.3125,719.1152 Q861.9688,719.2715 862.5156,719.6309 Z " fill="#000000"/><text fill="#000000" font-family="sans-serif" font-size="14" lengthAdjust="spacing" textLength="109" x="880.25" y="729.5527">InstantTimeValue</text><rect fill="#FFFFFF" height="17.9609" style="stroke:#181818;stroke-width:1.0;stroke-dasharray:2.0,2.0;" width="23" x="1040.5" y="704.7559"/><text fill="#000000" font-family="sans-serif" font-size="12" font-style="italic" lengthAdjust="spacing" textLength="21" x="1041.5" y="718.7051">root</text><line style="stroke:#181818;stroke-width:0.5;" x1="802.5" x2="1059.5" y1="739.7559" y2="739.7559"/><rect fill="none" height="6" style="stroke:#C82930;stroke-width:1.0;" width="6" x="809.5" y="751.5664"/><text fill="#000000" font-family="sans-serif" font-size="14" lengthAdjust="spacing" textLength="104" x="821.5" y="758.8633">valueID: ValueID</text><rect fill="none" height="6" style="stroke:#C82930;stroke-width:1.0;" width="6" x="809.5" y="770.1875"/><text fill="#000000" font-family="sans-serif" font-size="14" lengthAdjust="spacing" textLength="109" x="821.5" y="777.4844">reading: Reading</text><rect fill="none" height="6" style="stroke:#C82930;stroke-width:1.0;" width="6" x="809.5" y="788.8086"/><text fill="#000000" font-family="sans-serif" font-size="14" lengthAdjust="spacing" textLength="122" x="821.5" y="796.1055">sensorID: SensorID</text><rect fill="none" height="6" style="stroke:#C82930;stroke-width:1.0;" width="6" x="809.5" y="807.4297"/><text fill="#000000" font-family="sans-serif" font-size="14" lengthAdjust="spacing" textLength="203" x="821.5" y="814.7266">instantTimeReading: Timestamp</text><line style="stroke:#181818;stroke-width:0.5;" x1="802.5" x2="1059.5" y1="822.2402" y2="822.2402"/><ellipse cx="812.5" cy="837.0508" fill="#84BE84" rx="3" ry="3" style="stroke:#038048;stroke-width:1.0;"/><text fill="#000000" font-family="sans-serif" font-size="14" lengthAdjust="spacing" textLength="233" x="821.5" y="841.3477">getInstantTimeReading(): Timestamp</text></g><!--class Reading--><g id="elem_Reading"><rect codeLine="75" fill="#F1F1F1" height="103.8633" id="Reading" rx="2.5" ry="2.5" style="stroke:#181818;stroke-width:0.5;" width="137" x="862.5" y="927.2559"/><ellipse cx="891.45" cy="943.2559" fill="#ADD1B2" rx="11" ry="11" style="stroke:#181818;stroke-width:1.0;"/><path d="M894.2156,939.1309 Q894.3719,938.9121 894.5594,938.8027 Q894.7469,938.6934 894.9656,938.6934 Q895.3406,938.6934 895.575,938.959 Q895.8094,939.209 895.8094,939.8184 L895.8094,941.2715 Q895.8094,941.8809 895.575,942.1465 Q895.3406,942.4121 894.9656,942.4121 Q894.6219,942.4121 894.4188,942.209 Q894.2156,942.0215 894.1063,941.5059 Q894.0594,941.1465 893.8719,940.959 Q893.5438,940.584 892.9344,940.3652 Q892.325,940.1465 891.7,940.1465 Q890.9344,940.1465 890.2938,940.4746 Q889.6688,940.8027 889.1688,941.5527 Q888.6844,942.3027 888.6844,943.334 L888.6844,944.4277 Q888.6844,945.6621 889.575,946.4902 Q890.4656,947.3027 892.0594,947.3027 Q892.9969,947.3027 893.6531,947.0527 Q894.0438,946.8965 894.4656,946.459 Q894.7313,946.1934 894.8719,946.1152 Q895.0281,946.0371 895.2313,946.0371 Q895.5594,946.0371 895.8094,946.3027 Q896.075,946.5527 896.075,946.8965 Q896.075,947.2402 895.7313,947.6465 Q895.2313,948.2246 894.4344,948.5527 Q893.3563,949.0059 892.0594,949.0059 Q890.5438,949.0059 889.3406,948.3809 Q888.3563,947.8809 887.6688,946.8184 Q886.9813,945.7402 886.9813,944.459 L886.9813,943.3027 Q886.9813,941.9746 887.5906,940.834 Q888.2156,939.6777 889.3094,939.0684 Q890.4031,938.4434 891.6375,938.4434 Q892.3719,938.4434 893.0125,938.6152 Q893.6688,938.7715 894.2156,939.1309 Z " fill="#000000"/><text fill="#000000" font-family="sans-serif" font-size="14" lengthAdjust="spacing" textLength="53" x="908.55" y="949.0527">Reading</text><rect fill="#FFFFFF" height="17.9609" style="stroke:#181818;stroke-width:1.0;stroke-dasharray:2.0,2.0;" width="19" x="983.5" y="924.2559"/><text fill="#000000" font-family="sans-serif" font-size="12" font-style="italic" lengthAdjust="spacing" textLength="17" x="984.5" y="938.2051">VO</text><line style="stroke:#181818;stroke-width:0.5;" x1="863.5" x2="998.5" y1="959.2559" y2="959.2559"/><rect fill="none" height="6" style="stroke:#C82930;stroke-width:1.0;" width="6" x="870.5" y="971.0664"/><text fill="#000000" font-family="sans-serif" font-size="14" lengthAdjust="spacing" textLength="79" x="882.5" y="978.3633">value: String</text><rect fill="none" height="6" style="stroke:#C82930;stroke-width:1.0;" width="6" x="870.5" y="989.6875"/><text fill="#000000" font-family="sans-serif" font-size="14" lengthAdjust="spacing" textLength="68" x="882.5" y="996.9844">unit: String</text><line style="stroke:#181818;stroke-width:0.5;" x1="863.5" x2="998.5" y1="1004.498" y2="1004.498"/><ellipse cx="873.5" cy="1019.3086" fill="#84BE84" rx="3" ry="3" style="stroke:#038048;stroke-width:1.0;"/><text fill="#000000" font-family="sans-serif" font-size="14" lengthAdjust="spacing" textLength="111" x="882.5" y="1023.6055">getValue(): String</text></g><!--class ConfigScraper--><g id="elem_ConfigScraper"><rect codeLine="82" fill="#F1F1F1" height="178.3477" id="ConfigScraper" rx="2.5" ry="2.5" style="stroke:#181818;stroke-width:0.5;" width="211" x="1695.5" y="689.2559"/><ellipse cx="1751.25" cy="705.2559" fill="#ADD1B2" rx="11" ry="11" style="stroke:#181818;stroke-width:1.0;"/><path d="M1754.0156,701.1309 Q1754.1719,700.9121 1754.3594,700.8027 Q1754.5469,700.6934 1754.7656,700.6934 Q1755.1406,700.6934 1755.375,700.959 Q1755.6094,701.209 1755.6094,701.8184 L1755.6094,703.2715 Q1755.6094,703.8809 1755.375,704.1465 Q1755.1406,704.4121 1754.7656,704.4121 Q1754.4219,704.4121 1754.2188,704.209 Q1754.0156,704.0215 1753.9063,703.5059 Q1753.8594,703.1465 1753.6719,702.959 Q1753.3438,702.584 1752.7344,702.3652 Q1752.125,702.1465 1751.5,702.1465 Q1750.7344,702.1465 1750.0938,702.4746 Q1749.4688,702.8027 1748.9688,703.5527 Q1748.4844,704.3027 1748.4844,705.334 L1748.4844,706.4277 Q1748.4844,707.6621 1749.375,708.4902 Q1750.2656,709.3027 1751.8594,709.3027 Q1752.7969,709.3027 1753.4531,709.0527 Q1753.8438,708.8965 1754.2656,708.459 Q1754.5313,708.1934 1754.6719,708.1152 Q1754.8281,708.0371 1755.0313,708.0371 Q1755.3594,708.0371 1755.6094,708.3027 Q1755.875,708.5527 1755.875,708.8965 Q1755.875,709.2402 1755.5313,709.6465 Q1755.0313,710.2246 1754.2344,710.5527 Q1753.1563,711.0059 1751.8594,711.0059 Q1750.3438,711.0059 1749.1406,710.3809 Q1748.1563,709.8809 1747.4688,708.8184 Q1746.7813,707.7402 1746.7813,706.459 L1746.7813,705.3027 Q1746.7813,703.9746 1747.3906,702.834 Q1748.0156,701.6777 1749.1094,701.0684 Q1750.2031,700.4434 1751.4375,700.4434 Q1752.1719,700.4434 1752.8125,700.6152 Q1753.4688,700.7715 1754.0156,701.1309 Z " fill="#000000"/><text fill="#000000" font-family="sans-serif" font-size="14" lengthAdjust="spacing" textLength="91" x="1771.75" y="711.0527">ConfigScraper</text><line style="stroke:#181818;stroke-width:0.5;" x1="1696.5" x2="1905.5" y1="721.2559" y2="721.2559"/><rect fill="none" height="6" style="stroke:#C82930;stroke-width:1.0;" width="6" x="1703.5" y="733.0664"/><text fill="#000000" font-family="sans-serif" font-size="14" lengthAdjust="spacing" textLength="92" x="1715.5" y="740.3633">filePath: String</text><rect fill="none" height="6" style="stroke:#C82930;stroke-width:1.0;" width="6" x="1703.5" y="751.6875"/><text fill="#000000" font-family="sans-serif" font-size="14" lengthAdjust="spacing" textLength="185" x="1715.5" y="758.9844">openingMainBlockTag: String</text><rect fill="none" height="6" style="stroke:#C82930;stroke-width:1.0;" width="6" x="1703.5" y="770.3086"/><text fill="#000000" font-family="sans-serif" font-size="14" lengthAdjust="spacing" textLength="178" x="1715.5" y="777.6055">closingMainBlockTag: String</text><rect fill="none" height="6" style="stroke:#C82930;stroke-width:1.0;" width="6" x="1703.5" y="788.9297"/><text fill="#000000" font-family="sans-serif" font-size="14" lengthAdjust="spacing" textLength="142" x="1715.5" y="796.2266">propertySplitter: String</text><rect fill="none" height="6" style="stroke:#C82930;stroke-width:1.0;" width="6" x="1703.5" y="807.5508"/><text fill="#000000" font-family="sans-serif" font-size="14" lengthAdjust="spacing" textLength="174" x="1715.5" y="814.8477">functionalityProperty: String</text><line style="stroke:#181818;stroke-width:0.5;" x1="1696.5" x2="1905.5" y1="822.3613" y2="822.3613"/><ellipse cx="1706.5" cy="837.1719" fill="#84BE84" rx="3" ry="3" style="stroke:#038048;stroke-width:1.0;"/><text fill="#000000" font-family="sans-serif" font-size="14" lengthAdjust="spacing" textLength="146" x="1715.5" y="841.4688">loadTolerance(): String</text><ellipse cx="1706.5" cy="855.793" fill="#84BE84" rx="3" ry="3" style="stroke:#038048;stroke-width:1.0;"/><text fill="#000000" font-family="sans-serif" font-size="14" lengthAdjust="spacing" textLength="171" x="1715.5" y="860.0898">loadGroupNumber(): String</text></g><!--class WeatherAPIGateway--><g id="elem_WeatherAPIGateway"><rect codeLine="92" fill="#F1F1F1" height="66.6211" id="WeatherAPIGateway" rx="2.5" ry="2.5" style="stroke:#181818;stroke-width:0.5;" width="744" x="22" y="497.2559"/><ellipse cx="323.75" cy="513.2559" fill="#B4A7E5" rx="11" ry="11" style="stroke:#181818;stroke-width:1.0;"/><path d="M324.7031,509.8965 L324.7031,516.5527 L326.4219,516.5527 Q327.0313,516.5527 327.2969,516.7871 Q327.5625,517.0215 327.5625,517.4121 Q327.5625,517.7871 327.2969,518.0215 Q327.0313,518.2559 326.4219,518.2559 L321.2813,518.2559 Q320.6719,518.2559 320.4063,518.0215 Q320.1406,517.7871 320.1406,517.3965 Q320.1406,517.0215 320.4063,516.7871 Q320.6719,516.5527 321.2813,516.5527 L323,516.5527 L323,509.8965 L321.2813,509.8965 Q320.6719,509.8965 320.4063,509.6621 Q320.1406,509.4277 320.1406,509.0371 Q320.1406,508.6621 320.4063,508.4277 Q320.6719,508.1934 321.2813,508.1934 L326.4219,508.1934 Q327.0313,508.1934 327.2969,508.4277 Q327.5625,508.6621 327.5625,509.0371 Q327.5625,509.4277 327.2969,509.6621 Q327.0313,509.8965 326.4219,509.8965 L324.7031,509.8965 Z " fill="#000000"/><text fill="#000000" font-family="sans-serif" font-size="14" font-style="italic" lengthAdjust="spacing" textLength="132" x="344.25" y="519.0527">WeatherAPIGateway</text><line style="stroke:#181818;stroke-width:0.5;" x1="23" x2="765" y1="529.2559" y2="529.2559"/><line style="stroke:#181818;stroke-width:0.5;" x1="23" x2="765" y1="537.2559" y2="537.2559"/><ellipse cx="33" cy="552.0664" fill="#84BE84" rx="3" ry="3" style="stroke:#038048;stroke-width:1.0;"/><text fill="#000000" font-family="sans-serif" font-size="14" lengthAdjust="spacing" textLength="718" x="42" y="556.3633">getInstantaneousTemperature(int groupNumber, double latitude, double longitude, int hour): InstTemperatureDTO</text></g><!--class WeatherAPIGatewayHttpImpl--><g id="elem_WeatherAPIGatewayHttpImpl"><rect codeLine="96" fill="#F1F1F1" height="103.8633" id="WeatherAPIGatewayHttpImpl" rx="2.5" ry="2.5" style="stroke:#181818;stroke-width:0.5;" width="744" x="22" y="726.2559"/><ellipse cx="299.75" cy="742.2559" fill="#ADD1B2" rx="11" ry="11" style="stroke:#181818;stroke-width:1.0;"/><path d="M302.5156,738.1309 Q302.6719,737.9121 302.8594,737.8027 Q303.0469,737.6934 303.2656,737.6934 Q303.6406,737.6934 303.875,737.959 Q304.1094,738.209 304.1094,738.8184 L304.1094,740.2715 Q304.1094,740.8809 303.875,741.1465 Q303.6406,741.4121 303.2656,741.4121 Q302.9219,741.4121 302.7188,741.209 Q302.5156,741.0215 302.4063,740.5059 Q302.3594,740.1465 302.1719,739.959 Q301.8438,739.584 301.2344,739.3652 Q300.625,739.1465 300,739.1465 Q299.2344,739.1465 298.5938,739.4746 Q297.9688,739.8027 297.4688,740.5527 Q296.9844,741.3027 296.9844,742.334 L296.9844,743.4277 Q296.9844,744.6621 297.875,745.4902 Q298.7656,746.3027 300.3594,746.3027 Q301.2969,746.3027 301.9531,746.0527 Q302.3438,745.8965 302.7656,745.459 Q303.0313,745.1934 303.1719,745.1152 Q303.3281,745.0371 303.5313,745.0371 Q303.8594,745.0371 304.1094,745.3027 Q304.375,745.5527 304.375,745.8965 Q304.375,746.2402 304.0313,746.6465 Q303.5313,747.2246 302.7344,747.5527 Q301.6563,748.0059 300.3594,748.0059 Q298.8438,748.0059 297.6406,747.3809 Q296.6563,746.8809 295.9688,745.8184 Q295.2813,744.7402 295.2813,743.459 L295.2813,742.3027 Q295.2813,740.9746 295.8906,739.834 Q296.5156,738.6777 297.6094,738.0684 Q298.7031,737.4434 299.9375,737.4434 Q300.6719,737.4434 301.3125,737.6152 Q301.9688,737.7715 302.5156,738.1309 Z " fill="#000000"/><text fill="#000000" font-family="sans-serif" font-size="14" lengthAdjust="spacing" textLength="180" x="320.25" y="748.0527">WeatherAPIGatewayHttpImpl</text><line style="stroke:#181818;stroke-width:0.5;" x1="23" x2="765" y1="758.2559" y2="758.2559"/><rect fill="none" height="6" style="stroke:#C82930;stroke-width:1.0;" width="6" x="30" y="770.0664"/><text fill="#000000" font-family="sans-serif" font-size="14" lengthAdjust="spacing" textLength="116" x="42" y="777.3633">BASE_URL: String</text><rect fill="none" height="6" style="stroke:#C82930;stroke-width:1.0;" width="6" x="30" y="788.6875"/><text fill="#000000" font-family="sans-serif" font-size="14" lengthAdjust="spacing" textLength="179" x="42" y="795.9844">restTemplate: RestTemplate</text><line style="stroke:#181818;stroke-width:0.5;" x1="23" x2="765" y1="803.498" y2="803.498"/><ellipse cx="33" cy="818.3086" fill="#84BE84" rx="3" ry="3" style="stroke:#038048;stroke-width:1.0;"/><text fill="#000000" font-family="sans-serif" font-size="14" lengthAdjust="spacing" textLength="718" x="42" y="822.6055">getInstantaneousTemperature(int groupNumber, double latitude, double longitude, int hour): InstTemperatureDTO</text></g><!--class InstTemperatureDTO--><g id="elem_InstTemperatureDTO"><rect codeLine="102" fill="#F1F1F1" height="103.8633" id="InstTemperatureDTO" rx="2.5" ry="2.5" style="stroke:#181818;stroke-width:0.5;" width="166" x="311" y="927.2559"/><ellipse cx="326" cy="943.2559" fill="#ADD1B2" rx="11" ry="11" style="stroke:#181818;stroke-width:1.0;"/><path d="M328.7656,939.1309 Q328.9219,938.9121 329.1094,938.8027 Q329.2969,938.6934 329.5156,938.6934 Q329.8906,938.6934 330.125,938.959 Q330.3594,939.209 330.3594,939.8184 L330.3594,941.2715 Q330.3594,941.8809 330.125,942.1465 Q329.8906,942.4121 329.5156,942.4121 Q329.1719,942.4121 328.9688,942.209 Q328.7656,942.0215 328.6563,941.5059 Q328.6094,941.1465 328.4219,940.959 Q328.0938,940.584 327.4844,940.3652 Q326.875,940.1465 326.25,940.1465 Q325.4844,940.1465 324.8438,940.4746 Q324.2188,940.8027 323.7188,941.5527 Q323.2344,942.3027 323.2344,943.334 L323.2344,944.4277 Q323.2344,945.6621 324.125,946.4902 Q325.0156,947.3027 326.6094,947.3027 Q327.5469,947.3027 328.2031,947.0527 Q328.5938,946.8965 329.0156,946.459 Q329.2813,946.1934 329.4219,946.1152 Q329.5781,946.0371 329.7813,946.0371 Q330.1094,946.0371 330.3594,946.3027 Q330.625,946.5527 330.625,946.8965 Q330.625,947.2402 330.2813,947.6465 Q329.7813,948.2246 328.9844,948.5527 Q327.9063,949.0059 326.6094,949.0059 Q325.0938,949.0059 323.8906,948.3809 Q322.9063,947.8809 322.2188,946.8184 Q321.5313,945.7402 321.5313,944.459 L321.5313,943.3027 Q321.5313,941.9746 322.1406,940.834 Q322.7656,939.6777 323.8594,939.0684 Q324.9531,938.4434 326.1875,938.4434 Q326.9219,938.4434 327.5625,938.6152 Q328.2188,938.7715 328.7656,939.1309 Z " fill="#000000"/><text fill="#000000" font-family="sans-serif" font-size="14" lengthAdjust="spacing" textLength="134" x="340" y="949.0527">InstTemperatureDTO</text><line style="stroke:#181818;stroke-width:0.5;" x1="312" x2="476" y1="959.2559" y2="959.2559"/><ellipse cx="322" cy="974.0664" fill="none" rx="3" ry="3" style="stroke:#038048;stroke-width:1.0;"/><text fill="#000000" font-family="sans-serif" font-size="14" lengthAdjust="spacing" textLength="137" x="331" y="978.3633">measurement: double</text><ellipse cx="322" cy="992.6875" fill="none" rx="3" ry="3" style="stroke:#038048;stroke-width:1.0;"/><text fill="#000000" font-family="sans-serif" font-size="14" lengthAdjust="spacing" textLength="68" x="331" y="996.9844">unit: String</text><ellipse cx="322" cy="1011.3086" fill="none" rx="3" ry="3" style="stroke:#038048;stroke-width:1.0;"/><text fill="#000000" font-family="sans-serif" font-size="14" lengthAdjust="spacing" textLength="68" x="331" y="1015.6055">info: String</text><line style="stroke:#181818;stroke-width:0.5;" x1="312" x2="476" y1="1023.1191" y2="1023.1191"/></g><!--reverse link ValueRepository to InstantTimeValueRepository--><g id="link_ValueRepository_InstantTimeValueRepository"><path d="M1133.5,572.9359 C1133.5,614.7759 1133.5,683.2059 1133.5,735.4159 " fill="none" id="ValueRepository-backto-InstantTimeValueRepository" style="stroke:#181818;stroke-width:1.0;"/><polygon fill="none" points="1133.5,554.9359,1127.5,572.9359,1139.5,572.9359,1133.5,554.9359" style="stroke:#181818;stroke-width:1.0;"/></g><!--reverse link Value to InstantTimeValue--><g id="link_Value_InstantTimeValue"><path d="M886.25,582.3959 C886.25,619.0059 886.25,660.5959 886.25,707.5859 " fill="none" id="Value-backto-InstantTimeValue" style="stroke:#181818;stroke-width:1.0;stroke-dasharray:7.0,7.0;"/><polygon fill="none" points="886.25,564.3959,880.25,582.3959,892.25,582.3959,886.25,564.3959" style="stroke:#181818;stroke-width:1.0;"/></g><!--reverse link WeatherAPIGateway to WeatherAPIGatewayHttpImpl--><g id="link_WeatherAPIGateway_WeatherAPIGatewayHttpImpl"><path d="M270,582.3959 C270,624.0259 270,677.3859 270,726.1259 " fill="none" id="WeatherAPIGateway-backto-WeatherAPIGatewayHttpImpl" style="stroke:#181818;stroke-width:1.0;"/><polygon fill="none" points="270,564.3959,264,582.3959,276,582.3959,270,564.3959" style="stroke:#181818;stroke-width:1.0;"/></g><!--link HouseControllerWeb to WeatherAPIService--><g id="link_HouseControllerWeb_WeatherAPIService"><path codeLine="108" d="M1549,372.5659 C1549,392.5759 1549,412.8659 1549,431.9359 " fill="none" id="HouseControllerWeb-WeatherAPIService" style="stroke:#181818;stroke-width:1.0;"/></g><!--link HouseControllerWeb to SensorID--><g id="link_HouseControllerWeb_SensorID"><path codeLine="109" d="M1282,372.5659 C1282,418.7559 1282,460.4259 1282,491.1959 " fill="none" id="HouseControllerWeb-to-SensorID" style="stroke:#181818;stroke-width:1.0;"/><polygon fill="#181818" points="1282,497.1959,1286,488.1959,1282,492.1959,1278,488.1959,1282,497.1959" style="stroke:#181818;stroke-width:1.0;"/><text fill="#000000" font-family="sans-serif" font-size="13" lengthAdjust="spacing" textLength="57" x="1224" y="430.9142">&#171;creates&#187;</text></g><!--link WeatherAPIService to InstantTimeValue--><g id="link_WeatherAPIService_InstantTimeValue"><path codeLine="110" d="M1405.17,629.3059 C1405.17,676.2359 1405.17,722.2559 1405.17,722.2559 C1405.17,722.2559 1206.96,722.2559 1066.57,722.2559 " fill="none" id="WeatherAPIService-to-InstantTimeValue" style="stroke:#181818;stroke-width:1.0;stroke-dasharray:7.0,7.0;"/><polygon fill="#181818" points="1060.57,722.2559,1069.57,726.2559,1065.57,722.2559,1069.57,718.2559,1060.57,722.2559" style="stroke:#181818;stroke-width:1.0;"/><text fill="#000000" font-family="sans-serif" font-size="13" lengthAdjust="spacing" textLength="42" x="1236.34" y="718.2842">&#171;uses&#187;</text></g><!--link WeatherAPIService to InstantTimeValueRepository--><g id="link_WeatherAPIService_InstantTimeValueRepository"><path codeLine="111" d="M1417.83,629.2859 C1417.83,666.2259 1417.83,700.2859 1417.83,729.5559 " fill="none" id="WeatherAPIService-to-InstantTimeValueRepository" style="stroke:#181818;stroke-width:1.0;stroke-dasharray:7.0,7.0;"/><polygon fill="#181818" points="1417.83,735.5559,1421.83,726.5559,1417.83,730.5559,1413.83,726.5559,1417.83,735.5559" style="stroke:#181818;stroke-width:1.0;"/></g><!--link WeatherAPIService to ConfigScraper--><g id="link_WeatherAPIService_ConfigScraper"><path codeLine="112" d="M1700.5,629.2859 C1700.5,648.9659 1700.5,669.5359 1700.5,688.8859 " fill="none" id="WeatherAPIService-ConfigScraper" style="stroke:#181818;stroke-width:1.0;"/></g><!--link WeatherAPIService to WeatherAPIGatewayHttpImpl--><g id="link_WeatherAPIService_WeatherAPIGatewayHttpImpl"><path codeLine="113" d="M1392.41,597.2559 C1103.99,597.2559 518,597.2559 518,597.2559 C518,597.2559 518,672.4459 518,725.9059 " fill="none" id="WeatherAPIService-WeatherAPIGatewayHttpImpl" style="stroke:#181818;stroke-width:1.0;"/></g><!--link WeatherAPIService to HouseRepository--><g id="link_WeatherAPIService_HouseRepository"><path codeLine="114" d="M1705.59,531.2559 C1717.24,531.2559 1728.84,531.2559 1740.1,531.2559 " fill="none" id="WeatherAPIService-HouseRepository" style="stroke:#181818;stroke-width:1.0;"/></g><!--link WeatherAPIService to House--><g id="link_WeatherAPIService_House"><path codeLine="115" d="M1563,629.2859 C1563,666.2259 1563,706.2859 1563,735.5559 " fill="none" id="WeatherAPIService-House" style="stroke:#181818;stroke-width:1.0;"/><text fill="#000000" font-family="sans-serif" font-size="13" lengthAdjust="spacing" textLength="42" x="1520" y="678.4542">&#171;uses&#187;</text></g><!--link House to Location--><g id="link_House_Location"><path codeLine="116" d="M1563,820.8859 C1563,854.9959 1563,902.5959 1563,936.6859 " fill="none" id="House-Location" style="stroke:#181818;stroke-width:1.0;"/></g><!--link Location to GPSCode--><g id="link_Location_GPSCode"><path codeLine="117" d="M1640.12,979.2559 C1651.86,979.2559 1663.89,979.2559 1675.4,979.2559 " fill="none" id="Location-GPSCode" style="stroke:#181818;stroke-width:1.0;"/></g><!--link WeatherAPIGatewayHttpImpl to InstTemperatureDTO--><g id="link_WeatherAPIGatewayHttpImpl_InstTemperatureDTO"><path codeLine="118" d="M394,830.2759 C394,860.0559 394,897.3059 394,927.1059 " fill="none" id="WeatherAPIGatewayHttpImpl-InstTemperatureDTO" style="stroke:#181818;stroke-width:1.0;"/><text fill="#000000" font-family="sans-serif" font-size="13" lengthAdjust="spacing" textLength="57" x="336" y="874.7142">&#171;creates&#187;</text></g><!--link InstantTimeValue to Reading--><g id="link_InstantTimeValue_Reading"><path codeLine="119" d="M931,848.8359 C931,874.6259 931,903.3159 931,927.1959 " fill="none" id="InstantTimeValue-Reading" style="stroke:#181818;stroke-width:1.0;"/></g><!--SRC=[nLPBR-Cs4BxxLmpGGntOIWxjoJ2CTU8qApIxTcqdUzWi2aOQoqGaKYMfU8r5_tk75FMAxBIt-c9o-CtxfP_tnkHwSdMLfqoO8ail8vbTHIdJEeWvInJB1lg5YvpH2L8kq1np1AdCNWu6EOjUM8AWKRsYWf_kUR8tTueTuSTWOBX94HvkVlbr0dCD3DPIPh0y249-bGfMya2d1-8TapoOnnaNN1l5Z5JVnX32WIm28o51-jiZPEmxpueCkD26dfX0MMXu4c0mov7u2eKGyzqE5Oe8uHdD0L6GvXXVEH6uS7AKjOE9s5raOJIFSMmV6IJybHX869VnvM3WuW0VIGtUI66KJ5DKN_2Pt0Fx2_RsQKFUa_X92VItDY1S-BTmuSdMX9fjtLpySqfnM3YRzVNnjq94Xal1KcwEDTCzGUPfwb6XSF9FWriwFx6Sd5jibwNM-keXPPnQe4MNu64iCeNDKaTPYsl-xhiNeb7eyo8sxxmw0QExsotiAOifEjV_A50TXnzMpEmVcUBicMflOnGNYQqNod0fCLoKn35yMEDV1MgpSfLzBoEMBfZ1BS-mB8EDOSgCdyI_0cz5V47nH9rBeV5MKE4VfxCXbUkM2dF1TsFuI5r6yaoXBvU_NpW7WkPzMTPWwEpyWkG2Af-x-IeSlkl6apXZ-lYSgOE_gyBsgaY7rqPr7S2XfjuHxu4T9osW9n4iacB7aqsaN5ecSDEv4y2L_XfpgJdLmj6tG4CWo2jBYmuaB5lR6lpOVIDqoYYoHKp57yk2ycj9KYHlQJ7kQ4pTALdaJgCDWosY8IM92pCOsO6oAOJYrAm5PSmGJ5LHbhd5NjJoA5Z4X6h7A3nlF82felECeaOQO-f6btkEsgeAYSbMuTGnpPgekpknIcbcTexqPWJiwraHfDxu2LHkD88g2amVbwMa9DStqWRZRhMn1qjZSQnGQ-hAyj3mUr33tWkmC-1jX6l-gXIT03yIVLj_PXanb27jXl1yXgjeudU38jRmzjbh6DbONn-zyXY6jHdQ7oxAwJXr0cODqxa4ULp7p3Es_JY1ygcipAFYMYEBoV6Xcmhks0JjhVyLDy_o53CKnZjUnTErY2sEn_9GKbKfjf7VYhq5Lp4fwRpHkQuOxOMeMLvR7VPGre46LxlWNpjfTsRM6NUaGd3JeLWbpWihjwaDBxKrFr1vgJkUefteNS4oHq6NJuoBQ-gFborBke0efRIz1yWLoL2q87DQBCPEh_RhhhrrLXxQzIILBDvA-XXWzA7HSWVypm7S2FfSPC-ekXut1TGRh1HFDv_2zZVEjlc-6H8l98tWiU_AUZWsXAfnxQUDiJD5NPG3jYNERjCJwy0ROxTMI7LPj-GfSmEudczk_tnOtzSk1a23ngaXgz2jnlhs_xdNVtF1pf1fkjhMgqVS23h5Eo8LEzdEu8bFmY3exzFJk5dTdXEOJYFgPODwDXlqr_7bvQmtC2mF2Vtl3AqTscSWgpkDTnfojZ9EmNjx_gH81shvKcv5UgZtNBtUWdgTdQzGOkpdjnlUtkGbdcfy_WC0]--></g></svg>