<?xml version="1.0" encoding="us-ascii" standalone="no"?><svg xmlns="http://www.w3.org/2000/svg" xmlns:xlink="http://www.w3.org/1999/xlink" contentStyleType="text/css" height="1092px" preserveAspectRatio="none" style="width:833px;height:1092px;background:#FFFFFF;" version="1.1" viewBox="0 0 833 1092" width="833px" zoomAndPan="magnify"><defs/><g><text fill="#000000" font-family="sans-serif" font-size="14" font-weight="bold" lengthAdjust="spacing" textLength="696" x="59.5" y="25.1074">UC34: As a Room Owner [or Power User, or Administrator], I want to get the maximum instantaneous</text><text fill="#000000" font-family="sans-serif" font-size="14" font-weight="bold" lengthAdjust="spacing" textLength="622" x="100.5" y="43.7285">temperature difference between a device in the room and the outside, in a given period.</text><!--cluster server--><g id="cluster_server"><path d="M8.5,64.2559 L56.5,64.2559 A3.75,3.75 0 0 1 59,66.7559 L66,88.877 L823.5,88.877 A2.5,2.5 0 0 1 826,91.377 L826,1082.7559 A2.5,2.5 0 0 1 823.5,1085.2559 L8.5,1085.2559 A2.5,2.5 0 0 1 6,1082.7559 L6,66.7559 A2.5,2.5 0 0 1 8.5,64.2559 " fill="#D3D3D3" style="stroke:#000000;stroke-width:1.5;"/><line style="stroke:#000000;stroke-width:1.5;" x1="6" x2="66" y1="88.877" y2="88.877"/><text fill="#000000" font-family="sans-serif" font-size="14" font-weight="bold" lengthAdjust="spacing" textLength="47" x="10" y="81.3633">server</text></g><!--class HouseControllerWeb--><g id="elem_HouseControllerWeb"><rect codeLine="8" fill="#F1F1F1" height="290.0742" id="HouseControllerWeb" rx="2.5" ry="2.5" style="stroke:#181818;stroke-width:0.5;" width="609" x="161.5" y="101.2559"/><ellipse cx="354.75" cy="117.2559" fill="#ADD1B2" rx="11" ry="11" style="stroke:#181818;stroke-width:1.0;"/><path d="M357.5156,113.1309 Q357.6719,112.9121 357.8594,112.8027 Q358.0469,112.6934 358.2656,112.6934 Q358.6406,112.6934 358.875,112.959 Q359.1094,113.209 359.1094,113.8184 L359.1094,115.2715 Q359.1094,115.8809 358.875,116.1465 Q358.6406,116.4121 358.2656,116.4121 Q357.9219,116.4121 357.7188,116.209 Q357.5156,116.0215 357.4063,115.5059 Q357.3594,115.1465 357.1719,114.959 Q356.8438,114.584 356.2344,114.3652 Q355.625,114.1465 355,114.1465 Q354.2344,114.1465 353.5938,114.4746 Q352.9688,114.8027 352.4688,115.5527 Q351.9844,116.3027 351.9844,117.334 L351.9844,118.4277 Q351.9844,119.6621 352.875,120.4902 Q353.7656,121.3027 355.3594,121.3027 Q356.2969,121.3027 356.9531,121.0527 Q357.3438,120.8965 357.7656,120.459 Q358.0313,120.1934 358.1719,120.1152 Q358.3281,120.0371 358.5313,120.0371 Q358.8594,120.0371 359.1094,120.3027 Q359.375,120.5527 359.375,120.8965 Q359.375,121.2402 359.0313,121.6465 Q358.5313,122.2246 357.7344,122.5527 Q356.6563,123.0059 355.3594,123.0059 Q353.8438,123.0059 352.6406,122.3809 Q351.6563,121.8809 350.9688,120.8184 Q350.2813,119.7402 350.2813,118.459 L350.2813,117.3027 Q350.2813,115.9746 350.8906,114.834 Q351.5156,113.6777 352.6094,113.0684 Q353.7031,112.4434 354.9375,112.4434 Q355.6719,112.4434 356.3125,112.6152 Q356.9688,112.7715 357.5156,113.1309 Z " fill="#000000"/><text fill="#000000" font-family="sans-serif" font-size="14" lengthAdjust="spacing" textLength="131" x="375.25" y="123.0527">HouseControllerWeb</text><rect fill="#FFFFFF" height="17.9609" style="stroke:#181818;stroke-width:1.0;stroke-dasharray:2.0,2.0;" width="81" x="692.5" y="98.2559"/><text fill="#000000" font-family="sans-serif" font-size="12" font-style="italic" lengthAdjust="spacing" textLength="79" x="693.5" y="112.2051">RestController</text><line style="stroke:#181818;stroke-width:0.5;" x1="162.5" x2="769.5" y1="133.2559" y2="133.2559"/><rect fill="none" height="6" style="stroke:#C82930;stroke-width:1.0;" width="6" x="169.5" y="145.0664"/><text fill="#000000" font-family="sans-serif" font-size="14" lengthAdjust="spacing" textLength="181" x="181.5" y="152.3633">houseService: HouseService</text><rect fill="none" height="6" style="stroke:#C82930;stroke-width:1.0;" width="6" x="169.5" y="163.6875"/><text fill="#000000" font-family="sans-serif" font-size="14" lengthAdjust="spacing" textLength="113" x="181.5" y="170.9844">houseID: HouseID</text><rect fill="none" height="6" style="stroke:#C82930;stroke-width:1.0;" width="6" x="169.5" y="182.3086"/><text fill="#000000" font-family="sans-serif" font-size="14" lengthAdjust="spacing" textLength="171" x="181.5" y="189.6055">roomService: RoomService</text><rect fill="none" height="6" style="stroke:#C82930;stroke-width:1.0;" width="6" x="169.5" y="200.9297"/><text fill="#000000" font-family="sans-serif" font-size="14" lengthAdjust="spacing" textLength="499" x="181.5" y="208.2266">listDevicesByFunctionalityService: ListAllDevicesInHouseByFunctionalityService</text><rect fill="none" height="6" style="stroke:#C82930;stroke-width:1.0;" width="6" x="169.5" y="219.5508"/><text fill="#000000" font-family="sans-serif" font-size="14" lengthAdjust="spacing" textLength="233" x="181.5" y="226.8477">roomMapperDTO: RoomMapperDTO</text><rect fill="none" height="6" style="stroke:#C82930;stroke-width:1.0;" width="6" x="169.5" y="238.1719"/><text fill="#000000" font-family="sans-serif" font-size="14" lengthAdjust="spacing" textLength="248" x="181.5" y="245.4688">deviceMapperDTO: DeviceMapperDTO</text><rect fill="none" height="6" style="stroke:#C82930;stroke-width:1.0;" width="6" x="169.5" y="256.793"/><text fill="#000000" font-family="sans-serif" font-size="14" lengthAdjust="spacing" textLength="429" x="181.5" y="264.0898">actuatorFunctionalityMapperDTO: ActuatorFunctionalityMapperDTO</text><rect fill="none" height="6" style="stroke:#C82930;stroke-width:1.0;" width="6" x="169.5" y="275.4141"/><text fill="#000000" font-family="sans-serif" font-size="14" lengthAdjust="spacing" textLength="412" x="181.5" y="282.7109">sensorFunctionalityMapperDTO: SensorFunctionalityMapperDTO</text><line style="stroke:#181818;stroke-width:0.5;" x1="162.5" x2="769.5" y1="290.2246" y2="290.2246"/><ellipse cx="172.5" cy="323.6563" fill="#84BE84" rx="3" ry="3" style="stroke:#038048;stroke-width:1.0;"/><text fill="#000000" font-family="sans-serif" font-size="14" lengthAdjust="spacing" textLength="436" x="181.5" y="309.332">GET handleHouseQuery(@PathVariable String insideSensorIDString,</text><text fill="#000000" font-family="sans-serif" font-size="14" lengthAdjust="spacing" textLength="568" x="181.5" y="327.9531">@PathVariable String outsideSensorIDString, @RequestParam LocalDateTime givenStart,</text><text fill="#000000" font-family="sans-serif" font-size="14" lengthAdjust="spacing" textLength="583" x="181.5" y="346.5742">@RequestParam LocalDateTime givenEnd): ResponseEntity&lt;&gt;(maxTempDif, HttpStatus.OK)</text><rect fill="#F24D5C" height="6" style="stroke:#C82930;stroke-width:1.0;" width="6" x="169.5" y="367.209"/><text fill="#000000" font-family="sans-serif" font-size="14" lengthAdjust="spacing" textLength="536" x="181.5" y="365.1953">maxTempDifOutsideInside(String insideSensorIDString, String outsideSensorIDString,</text><text fill="#000000" font-family="sans-serif" font-size="14" lengthAdjust="spacing" textLength="330" x="181.5" y="383.8164">LocalDateTime givenStar, LocalDateTime givenEnd)</text></g><!--class MaxTempDifOutsideInsideService--><g id="elem_MaxTempDifOutsideInsideService"><rect codeLine="21" fill="#F1F1F1" height="196.9688" id="MaxTempDifOutsideInsideService" rx="2.5" ry="2.5" style="stroke:#181818;stroke-width:0.5;" width="394" x="231" y="451.2559"/><ellipse cx="295.75" cy="467.2559" fill="#ADD1B2" rx="11" ry="11" style="stroke:#181818;stroke-width:1.0;"/><path d="M298.5156,463.1309 Q298.6719,462.9121 298.8594,462.8027 Q299.0469,462.6934 299.2656,462.6934 Q299.6406,462.6934 299.875,462.959 Q300.1094,463.209 300.1094,463.8184 L300.1094,465.2715 Q300.1094,465.8809 299.875,466.1465 Q299.6406,466.4121 299.2656,466.4121 Q298.9219,466.4121 298.7188,466.209 Q298.5156,466.0215 298.4063,465.5059 Q298.3594,465.1465 298.1719,464.959 Q297.8438,464.584 297.2344,464.3652 Q296.625,464.1465 296,464.1465 Q295.2344,464.1465 294.5938,464.4746 Q293.9688,464.8027 293.4688,465.5527 Q292.9844,466.3027 292.9844,467.334 L292.9844,468.4277 Q292.9844,469.6621 293.875,470.4902 Q294.7656,471.3027 296.3594,471.3027 Q297.2969,471.3027 297.9531,471.0527 Q298.3438,470.8965 298.7656,470.459 Q299.0313,470.1934 299.1719,470.1152 Q299.3281,470.0371 299.5313,470.0371 Q299.8594,470.0371 300.1094,470.3027 Q300.375,470.5527 300.375,470.8965 Q300.375,471.2402 300.0313,471.6465 Q299.5313,472.2246 298.7344,472.5527 Q297.6563,473.0059 296.3594,473.0059 Q294.8438,473.0059 293.6406,472.3809 Q292.6563,471.8809 291.9688,470.8184 Q291.2813,469.7402 291.2813,468.459 L291.2813,467.3027 Q291.2813,465.9746 291.8906,464.834 Q292.5156,463.6777 293.6094,463.0684 Q294.7031,462.4434 295.9375,462.4434 Q296.6719,462.4434 297.3125,462.6152 Q297.9688,462.7715 298.5156,463.1309 Z " fill="#000000"/><text fill="#000000" font-family="sans-serif" font-size="14" lengthAdjust="spacing" textLength="211" x="316.25" y="473.0527">MaxTempDifOutsideInsideService</text><rect fill="#FFFFFF" height="17.9609" style="stroke:#181818;stroke-width:1.0;stroke-dasharray:2.0,2.0;" width="43" x="585" y="448.2559"/><text fill="#000000" font-family="sans-serif" font-size="12" font-style="italic" lengthAdjust="spacing" textLength="41" x="586" y="462.2051">Service</text><line style="stroke:#181818;stroke-width:0.5;" x1="232" x2="624" y1="483.2559" y2="483.2559"/><rect fill="none" height="6" style="stroke:#C82930;stroke-width:1.0;" width="6" x="239" y="495.0664"/><text fill="#000000" font-family="sans-serif" font-size="14" lengthAdjust="spacing" textLength="287" x="251" y="502.3633">valueRepository: InstantTimeValueRepository</text><rect fill="none" height="6" style="stroke:#C82930;stroke-width:1.0;" width="6" x="239" y="513.6875"/><text fill="#000000" font-family="sans-serif" font-size="14" lengthAdjust="spacing" textLength="187" x="251" y="520.9844">configScraper: ConfigScraper</text><rect fill="none" height="6" style="stroke:#C82930;stroke-width:1.0;" width="6" x="239" y="532.3086"/><text fill="#000000" font-family="sans-serif" font-size="14" lengthAdjust="spacing" textLength="368" x="251" y="539.6055">CONFIG_PROPERTIES = "config/config.properties": String</text><line style="stroke:#181818;stroke-width:0.5;" x1="232" x2="624" y1="547.1191" y2="547.1191"/><ellipse cx="242" cy="580.5508" fill="#84BE84" rx="3" ry="3" style="stroke:#038048;stroke-width:1.0;"/><text fill="#000000" font-family="sans-serif" font-size="14" lengthAdjust="spacing" textLength="358" x="251" y="566.2266">getMaxTemperatureDifference(SensorID insideSensorID,</text><text fill="#000000" font-family="sans-serif" font-size="14" lengthAdjust="spacing" textLength="310" x="255" y="584.8477">SensorID outsideSensorID, Timestamp startTime,</text><text fill="#000000" font-family="sans-serif" font-size="14" lengthAdjust="spacing" textLength="188" x="255" y="603.4688">Timestamp  endTime): double</text><rect fill="#F24D5C" height="6" style="stroke:#C82930;stroke-width:1.0;" width="6" x="239" y="624.1035"/><text fill="#000000" font-family="sans-serif" font-size="14" lengthAdjust="spacing" textLength="353" x="251" y="622.0898">findClosestTemperature(List&lt;InstantTimeValue&gt; values,</text><text fill="#000000" font-family="sans-serif" font-size="14" lengthAdjust="spacing" textLength="151" x="255" y="640.7109">long timestamp): double</text></g><!--class SensorID--><g id="elem_SensorID"><rect codeLine="29" fill="#F1F1F1" height="66.6211" id="SensorID" rx="2.5" ry="2.5" style="stroke:#181818;stroke-width:0.5;" width="150" x="660" y="516.2559"/><ellipse cx="692.55" cy="532.2559" fill="#ADD1B2" rx="11" ry="11" style="stroke:#181818;stroke-width:1.0;"/><path d="M695.3156,528.1309 Q695.4719,527.9121 695.6594,527.8027 Q695.8469,527.6934 696.0656,527.6934 Q696.4406,527.6934 696.675,527.959 Q696.9094,528.209 696.9094,528.8184 L696.9094,530.2715 Q696.9094,530.8809 696.675,531.1465 Q696.4406,531.4121 696.0656,531.4121 Q695.7219,531.4121 695.5188,531.209 Q695.3156,531.0215 695.2063,530.5059 Q695.1594,530.1465 694.9719,529.959 Q694.6438,529.584 694.0344,529.3652 Q693.425,529.1465 692.8,529.1465 Q692.0344,529.1465 691.3938,529.4746 Q690.7688,529.8027 690.2688,530.5527 Q689.7844,531.3027 689.7844,532.334 L689.7844,533.4277 Q689.7844,534.6621 690.675,535.4902 Q691.5656,536.3027 693.1594,536.3027 Q694.0969,536.3027 694.7531,536.0527 Q695.1438,535.8965 695.5656,535.459 Q695.8313,535.1934 695.9719,535.1152 Q696.1281,535.0371 696.3313,535.0371 Q696.6594,535.0371 696.9094,535.3027 Q697.175,535.5527 697.175,535.8965 Q697.175,536.2402 696.8313,536.6465 Q696.3313,537.2246 695.5344,537.5527 Q694.4563,538.0059 693.1594,538.0059 Q691.6438,538.0059 690.4406,537.3809 Q689.4563,536.8809 688.7688,535.8184 Q688.0813,534.7402 688.0813,533.459 L688.0813,532.3027 Q688.0813,530.9746 688.6906,529.834 Q689.3156,528.6777 690.4094,528.0684 Q691.5031,527.4434 692.7375,527.4434 Q693.4719,527.4434 694.1125,527.6152 Q694.7688,527.7715 695.3156,528.1309 Z " fill="#000000"/><text fill="#000000" font-family="sans-serif" font-size="14" lengthAdjust="spacing" textLength="58" x="710.45" y="538.0527">SensorID</text><rect fill="#FFFFFF" height="17.9609" style="stroke:#181818;stroke-width:1.0;stroke-dasharray:2.0,2.0;" width="19" x="794" y="513.2559"/><text fill="#000000" font-family="sans-serif" font-size="12" font-style="italic" lengthAdjust="spacing" textLength="17" x="795" y="527.2051">VO</text><line style="stroke:#181818;stroke-width:0.5;" x1="661" x2="809" y1="548.2559" y2="548.2559"/><rect fill="none" height="6" style="stroke:#C82930;stroke-width:1.0;" width="6" x="668" y="560.0664"/><text fill="#000000" font-family="sans-serif" font-size="14" lengthAdjust="spacing" textLength="124" x="680" y="567.3633">sensorName: String</text><line style="stroke:#181818;stroke-width:0.5;" x1="661" x2="809" y1="574.877" y2="574.877"/></g><!--class InstantTimeValueRepository--><g id="elem_InstantTimeValueRepository"><rect codeLine="33" fill="#F1F1F1" height="85.2422" id="InstantTimeValueRepository" rx="2.5" ry="2.5" style="stroke:#181818;stroke-width:0.5;" width="335" x="22.5" y="745.7559"/><ellipse cx="65.4" cy="761.7559" fill="#B4A7E5" rx="11" ry="11" style="stroke:#181818;stroke-width:1.0;"/><path d="M66.3531,758.3965 L66.3531,765.0527 L68.0719,765.0527 Q68.6813,765.0527 68.9469,765.2871 Q69.2125,765.5215 69.2125,765.9121 Q69.2125,766.2871 68.9469,766.5215 Q68.6813,766.7559 68.0719,766.7559 L62.9313,766.7559 Q62.3219,766.7559 62.0563,766.5215 Q61.7906,766.2871 61.7906,765.8965 Q61.7906,765.5215 62.0563,765.2871 Q62.3219,765.0527 62.9313,765.0527 L64.65,765.0527 L64.65,758.3965 L62.9313,758.3965 Q62.3219,758.3965 62.0563,758.1621 Q61.7906,757.9277 61.7906,757.5371 Q61.7906,757.1621 62.0563,756.9277 Q62.3219,756.6934 62.9313,756.6934 L68.0719,756.6934 Q68.6813,756.6934 68.9469,756.9277 Q69.2125,757.1621 69.2125,757.5371 Q69.2125,757.9277 68.9469,758.1621 Q68.6813,758.3965 68.0719,758.3965 L66.3531,758.3965 Z " fill="#000000"/><text fill="#000000" font-family="sans-serif" font-size="14" font-style="italic" lengthAdjust="spacing" textLength="178" x="85.6" y="767.5527">InstantTimeValueRepository</text><rect fill="#FFFFFF" height="17.9609" style="stroke:#181818;stroke-width:1.0;stroke-dasharray:2.0,2.0;" width="61" x="299.5" y="742.7559"/><text fill="#000000" font-family="sans-serif" font-size="12" font-style="italic" lengthAdjust="spacing" textLength="59" x="300.5" y="756.7051">Repository</text><line style="stroke:#181818;stroke-width:0.5;" x1="23.5" x2="356.5" y1="777.7559" y2="777.7559"/><line style="stroke:#181818;stroke-width:0.5;" x1="23.5" x2="356.5" y1="785.7559" y2="785.7559"/><ellipse cx="33.5" cy="800.5664" fill="#84BE84" rx="3" ry="3" style="stroke:#038048;stroke-width:1.0;"/><text fill="#000000" font-family="sans-serif" font-size="14" lengthAdjust="spacing" textLength="309" x="42.5" y="804.8633">findBySensorId (SensorID sensorID): List&lt;Value&gt;</text><ellipse cx="33.5" cy="819.1875" fill="#84BE84" rx="3" ry="3" style="stroke:#038048;stroke-width:1.0;"/><text fill="#000000" font-family="sans-serif" font-size="14" lengthAdjust="spacing" textLength="201" x="42.5" y="823.4844">findAllEntities(): Iterable&lt;Value&gt;</text></g><!--class ValueRepository--><g id="elem_ValueRepository"><rect fill="#F1F1F1" height="48" id="ValueRepository" rx="2.5" ry="2.5" style="stroke:#181818;stroke-width:0.5;" width="136" x="60" y="525.7559"/><ellipse cx="75" cy="541.7559" fill="#B4A7E5" rx="11" ry="11" style="stroke:#181818;stroke-width:1.0;"/><path d="M75.9531,538.3965 L75.9531,545.0527 L77.6719,545.0527 Q78.2813,545.0527 78.5469,545.2871 Q78.8125,545.5215 78.8125,545.9121 Q78.8125,546.2871 78.5469,546.5215 Q78.2813,546.7559 77.6719,546.7559 L72.5313,546.7559 Q71.9219,546.7559 71.6563,546.5215 Q71.3906,546.2871 71.3906,545.8965 Q71.3906,545.5215 71.6563,545.2871 Q71.9219,545.0527 72.5313,545.0527 L74.25,545.0527 L74.25,538.3965 L72.5313,538.3965 Q71.9219,538.3965 71.6563,538.1621 Q71.3906,537.9277 71.3906,537.5371 Q71.3906,537.1621 71.6563,536.9277 Q71.9219,536.6934 72.5313,536.6934 L77.6719,536.6934 Q78.2813,536.6934 78.5469,536.9277 Q78.8125,537.1621 78.8125,537.5371 Q78.8125,537.9277 78.5469,538.1621 Q78.2813,538.3965 77.6719,538.3965 L75.9531,538.3965 Z " fill="#000000"/><text fill="#000000" font-family="sans-serif" font-size="14" font-style="italic" lengthAdjust="spacing" textLength="104" x="89" y="547.5527">ValueRepository</text><line style="stroke:#181818;stroke-width:0.5;" x1="61" x2="195" y1="557.7559" y2="557.7559"/><line style="stroke:#181818;stroke-width:0.5;" x1="61" x2="195" y1="565.7559" y2="565.7559"/></g><!--class Value--><g id="elem_Value"><rect codeLine="38" fill="#F1F1F1" height="66.6211" id="Value" rx="2.5" ry="2.5" style="stroke:#181818;stroke-width:0.5;" width="170" x="393" y="754.7559"/><ellipse cx="455.75" cy="770.7559" fill="#B4A7E5" rx="11" ry="11" style="stroke:#181818;stroke-width:1.0;"/><path d="M456.7031,767.3965 L456.7031,774.0527 L458.4219,774.0527 Q459.0313,774.0527 459.2969,774.2871 Q459.5625,774.5215 459.5625,774.9121 Q459.5625,775.2871 459.2969,775.5215 Q459.0313,775.7559 458.4219,775.7559 L453.2813,775.7559 Q452.6719,775.7559 452.4063,775.5215 Q452.1406,775.2871 452.1406,774.8965 Q452.1406,774.5215 452.4063,774.2871 Q452.6719,774.0527 453.2813,774.0527 L455,774.0527 L455,767.3965 L453.2813,767.3965 Q452.6719,767.3965 452.4063,767.1621 Q452.1406,766.9277 452.1406,766.5371 Q452.1406,766.1621 452.4063,765.9277 Q452.6719,765.6934 453.2813,765.6934 L458.4219,765.6934 Q459.0313,765.6934 459.2969,765.9277 Q459.5625,766.1621 459.5625,766.5371 Q459.5625,766.9277 459.2969,767.1621 Q459.0313,767.3965 458.4219,767.3965 L456.7031,767.3965 Z " fill="#000000"/><text fill="#000000" font-family="sans-serif" font-size="14" font-style="italic" lengthAdjust="spacing" textLength="36" x="476.25" y="776.5527">Value</text><line style="stroke:#181818;stroke-width:0.5;" x1="394" x2="562" y1="786.7559" y2="786.7559"/><line style="stroke:#181818;stroke-width:0.5;" x1="394" x2="562" y1="794.7559" y2="794.7559"/><ellipse cx="404" cy="809.5664" fill="#84BE84" rx="3" ry="3" style="stroke:#038048;stroke-width:1.0;"/><text fill="#000000" font-family="sans-serif" font-size="14" lengthAdjust="spacing" textLength="144" x="413" y="813.8633">getReading(): Reading</text></g><!--class InstantTimeValue--><g id="elem_InstantTimeValue"><rect codeLine="42" fill="#F1F1F1" height="141.1055" id="InstantTimeValue" rx="2.5" ry="2.5" style="stroke:#181818;stroke-width:0.5;" width="259" x="348.5" y="928.2559"/><ellipse cx="419.25" cy="944.2559" fill="#ADD1B2" rx="11" ry="11" style="stroke:#181818;stroke-width:1.0;"/><path d="M422.0156,940.1309 Q422.1719,939.9121 422.3594,939.8027 Q422.5469,939.6934 422.7656,939.6934 Q423.1406,939.6934 423.375,939.959 Q423.6094,940.209 423.6094,940.8184 L423.6094,942.2715 Q423.6094,942.8809 423.375,943.1465 Q423.1406,943.4121 422.7656,943.4121 Q422.4219,943.4121 422.2188,943.209 Q422.0156,943.0215 421.9063,942.5059 Q421.8594,942.1465 421.6719,941.959 Q421.3438,941.584 420.7344,941.3652 Q420.125,941.1465 419.5,941.1465 Q418.7344,941.1465 418.0938,941.4746 Q417.4688,941.8027 416.9688,942.5527 Q416.4844,943.3027 416.4844,944.334 L416.4844,945.4277 Q416.4844,946.6621 417.375,947.4902 Q418.2656,948.3027 419.8594,948.3027 Q420.7969,948.3027 421.4531,948.0527 Q421.8438,947.8965 422.2656,947.459 Q422.5313,947.1934 422.6719,947.1152 Q422.8281,947.0371 423.0313,947.0371 Q423.3594,947.0371 423.6094,947.3027 Q423.875,947.5527 423.875,947.8965 Q423.875,948.2402 423.5313,948.6465 Q423.0313,949.2246 422.2344,949.5527 Q421.1563,950.0059 419.8594,950.0059 Q418.3438,950.0059 417.1406,949.3809 Q416.1563,948.8809 415.4688,947.8184 Q414.7813,946.7402 414.7813,945.459 L414.7813,944.3027 Q414.7813,942.9746 415.3906,941.834 Q416.0156,940.6777 417.1094,940.0684 Q418.2031,939.4434 419.4375,939.4434 Q420.1719,939.4434 420.8125,939.6152 Q421.4688,939.7715 422.0156,940.1309 Z " fill="#000000"/><text fill="#000000" font-family="sans-serif" font-size="14" lengthAdjust="spacing" textLength="109" x="439.75" y="950.0527">InstantTimeValue</text><line style="stroke:#181818;stroke-width:0.5;" x1="349.5" x2="606.5" y1="960.2559" y2="960.2559"/><rect fill="none" height="6" style="stroke:#C82930;stroke-width:1.0;" width="6" x="356.5" y="972.0664"/><text fill="#000000" font-family="sans-serif" font-size="14" lengthAdjust="spacing" textLength="104" x="368.5" y="979.3633">valueID: ValueID</text><rect fill="none" height="6" style="stroke:#C82930;stroke-width:1.0;" width="6" x="356.5" y="990.6875"/><text fill="#000000" font-family="sans-serif" font-size="14" lengthAdjust="spacing" textLength="109" x="368.5" y="997.9844">reading: Reading</text><rect fill="none" height="6" style="stroke:#C82930;stroke-width:1.0;" width="6" x="356.5" y="1009.3086"/><text fill="#000000" font-family="sans-serif" font-size="14" lengthAdjust="spacing" textLength="122" x="368.5" y="1016.6055">sensorID: SensorID</text><rect fill="none" height="6" style="stroke:#C82930;stroke-width:1.0;" width="6" x="356.5" y="1027.9297"/><text fill="#000000" font-family="sans-serif" font-size="14" lengthAdjust="spacing" textLength="203" x="368.5" y="1035.2266">instantTimeReading: Timestamp</text><line style="stroke:#181818;stroke-width:0.5;" x1="349.5" x2="606.5" y1="1042.7402" y2="1042.7402"/><ellipse cx="359.5" cy="1057.5508" fill="#84BE84" rx="3" ry="3" style="stroke:#038048;stroke-width:1.0;"/><text fill="#000000" font-family="sans-serif" font-size="14" lengthAdjust="spacing" textLength="233" x="368.5" y="1061.8477">getInstantTimeReading(): Timestamp</text></g><!--class Reading--><g id="elem_Reading"><rect codeLine="50" fill="#F1F1F1" height="103.8633" id="Reading" rx="2.5" ry="2.5" style="stroke:#181818;stroke-width:0.5;" width="137" x="642.5" y="946.7559"/><ellipse cx="671.45" cy="962.7559" fill="#ADD1B2" rx="11" ry="11" style="stroke:#181818;stroke-width:1.0;"/><path d="M674.2156,958.6309 Q674.3719,958.4121 674.5594,958.3027 Q674.7469,958.1934 674.9656,958.1934 Q675.3406,958.1934 675.575,958.459 Q675.8094,958.709 675.8094,959.3184 L675.8094,960.7715 Q675.8094,961.3809 675.575,961.6465 Q675.3406,961.9121 674.9656,961.9121 Q674.6219,961.9121 674.4188,961.709 Q674.2156,961.5215 674.1063,961.0059 Q674.0594,960.6465 673.8719,960.459 Q673.5438,960.084 672.9344,959.8652 Q672.325,959.6465 671.7,959.6465 Q670.9344,959.6465 670.2938,959.9746 Q669.6688,960.3027 669.1688,961.0527 Q668.6844,961.8027 668.6844,962.834 L668.6844,963.9277 Q668.6844,965.1621 669.575,965.9902 Q670.4656,966.8027 672.0594,966.8027 Q672.9969,966.8027 673.6531,966.5527 Q674.0438,966.3965 674.4656,965.959 Q674.7313,965.6934 674.8719,965.6152 Q675.0281,965.5371 675.2313,965.5371 Q675.5594,965.5371 675.8094,965.8027 Q676.075,966.0527 676.075,966.3965 Q676.075,966.7402 675.7313,967.1465 Q675.2313,967.7246 674.4344,968.0527 Q673.3563,968.5059 672.0594,968.5059 Q670.5438,968.5059 669.3406,967.8809 Q668.3563,967.3809 667.6688,966.3184 Q666.9813,965.2402 666.9813,963.959 L666.9813,962.8027 Q666.9813,961.4746 667.5906,960.334 Q668.2156,959.1777 669.3094,958.5684 Q670.4031,957.9434 671.6375,957.9434 Q672.3719,957.9434 673.0125,958.1152 Q673.6688,958.2715 674.2156,958.6309 Z " fill="#000000"/><text fill="#000000" font-family="sans-serif" font-size="14" lengthAdjust="spacing" textLength="53" x="688.55" y="968.5527">Reading</text><rect fill="#FFFFFF" height="17.9609" style="stroke:#181818;stroke-width:1.0;stroke-dasharray:2.0,2.0;" width="19" x="763.5" y="943.7559"/><text fill="#000000" font-family="sans-serif" font-size="12" font-style="italic" lengthAdjust="spacing" textLength="17" x="764.5" y="957.7051">VO</text><line style="stroke:#181818;stroke-width:0.5;" x1="643.5" x2="778.5" y1="978.7559" y2="978.7559"/><rect fill="none" height="6" style="stroke:#C82930;stroke-width:1.0;" width="6" x="650.5" y="990.5664"/><text fill="#000000" font-family="sans-serif" font-size="14" lengthAdjust="spacing" textLength="79" x="662.5" y="997.8633">value: String</text><rect fill="none" height="6" style="stroke:#C82930;stroke-width:1.0;" width="6" x="650.5" y="1009.1875"/><text fill="#000000" font-family="sans-serif" font-size="14" lengthAdjust="spacing" textLength="68" x="662.5" y="1016.4844">unit: String</text><line style="stroke:#181818;stroke-width:0.5;" x1="643.5" x2="778.5" y1="1023.998" y2="1023.998"/><ellipse cx="653.5" cy="1038.8086" fill="#84BE84" rx="3" ry="3" style="stroke:#038048;stroke-width:1.0;"/><text fill="#000000" font-family="sans-serif" font-size="14" lengthAdjust="spacing" textLength="111" x="662.5" y="1043.1055">getValue(): String</text></g><!--class ConfigScraper--><g id="elem_ConfigScraper"><rect codeLine="57" fill="#F1F1F1" height="159.7266" id="ConfigScraper" rx="2.5" ry="2.5" style="stroke:#181818;stroke-width:0.5;" width="211" x="598.5" y="708.2559"/><ellipse cx="654.25" cy="724.2559" fill="#ADD1B2" rx="11" ry="11" style="stroke:#181818;stroke-width:1.0;"/><path d="M657.0156,720.1309 Q657.1719,719.9121 657.3594,719.8027 Q657.5469,719.6934 657.7656,719.6934 Q658.1406,719.6934 658.375,719.959 Q658.6094,720.209 658.6094,720.8184 L658.6094,722.2715 Q658.6094,722.8809 658.375,723.1465 Q658.1406,723.4121 657.7656,723.4121 Q657.4219,723.4121 657.2188,723.209 Q657.0156,723.0215 656.9063,722.5059 Q656.8594,722.1465 656.6719,721.959 Q656.3438,721.584 655.7344,721.3652 Q655.125,721.1465 654.5,721.1465 Q653.7344,721.1465 653.0938,721.4746 Q652.4688,721.8027 651.9688,722.5527 Q651.4844,723.3027 651.4844,724.334 L651.4844,725.4277 Q651.4844,726.6621 652.375,727.4902 Q653.2656,728.3027 654.8594,728.3027 Q655.7969,728.3027 656.4531,728.0527 Q656.8438,727.8965 657.2656,727.459 Q657.5313,727.1934 657.6719,727.1152 Q657.8281,727.0371 658.0313,727.0371 Q658.3594,727.0371 658.6094,727.3027 Q658.875,727.5527 658.875,727.8965 Q658.875,728.2402 658.5313,728.6465 Q658.0313,729.2246 657.2344,729.5527 Q656.1563,730.0059 654.8594,730.0059 Q653.3438,730.0059 652.1406,729.3809 Q651.1563,728.8809 650.4688,727.8184 Q649.7813,726.7402 649.7813,725.459 L649.7813,724.3027 Q649.7813,722.9746 650.3906,721.834 Q651.0156,720.6777 652.1094,720.0684 Q653.2031,719.4434 654.4375,719.4434 Q655.1719,719.4434 655.8125,719.6152 Q656.4688,719.7715 657.0156,720.1309 Z " fill="#000000"/><text fill="#000000" font-family="sans-serif" font-size="14" lengthAdjust="spacing" textLength="91" x="674.75" y="730.0527">ConfigScraper</text><line style="stroke:#181818;stroke-width:0.5;" x1="599.5" x2="808.5" y1="740.2559" y2="740.2559"/><rect fill="none" height="6" style="stroke:#C82930;stroke-width:1.0;" width="6" x="606.5" y="752.0664"/><text fill="#000000" font-family="sans-serif" font-size="14" lengthAdjust="spacing" textLength="92" x="618.5" y="759.3633">filePath: String</text><rect fill="none" height="6" style="stroke:#C82930;stroke-width:1.0;" width="6" x="606.5" y="770.6875"/><text fill="#000000" font-family="sans-serif" font-size="14" lengthAdjust="spacing" textLength="185" x="618.5" y="777.9844">openingMainBlockTag: String</text><rect fill="none" height="6" style="stroke:#C82930;stroke-width:1.0;" width="6" x="606.5" y="789.3086"/><text fill="#000000" font-family="sans-serif" font-size="14" lengthAdjust="spacing" textLength="178" x="618.5" y="796.6055">closingMainBlockTag: String</text><rect fill="none" height="6" style="stroke:#C82930;stroke-width:1.0;" width="6" x="606.5" y="807.9297"/><text fill="#000000" font-family="sans-serif" font-size="14" lengthAdjust="spacing" textLength="142" x="618.5" y="815.2266">propertySplitter: String</text><rect fill="none" height="6" style="stroke:#C82930;stroke-width:1.0;" width="6" x="606.5" y="826.5508"/><text fill="#000000" font-family="sans-serif" font-size="14" lengthAdjust="spacing" textLength="174" x="618.5" y="833.8477">functionalityProperty: String</text><line style="stroke:#181818;stroke-width:0.5;" x1="599.5" x2="808.5" y1="841.3613" y2="841.3613"/><ellipse cx="609.5" cy="856.1719" fill="#84BE84" rx="3" ry="3" style="stroke:#038048;stroke-width:1.0;"/><text fill="#000000" font-family="sans-serif" font-size="14" lengthAdjust="spacing" textLength="146" x="618.5" y="860.4688">loadTolerance(): String</text></g><!--reverse link ValueRepository to InstantTimeValueRepository--><g id="link_ValueRepository_InstantTimeValueRepository"><path d="M128,591.9359 C128,632.2059 128,695.4959 128,745.5759 " fill="none" id="ValueRepository-backto-InstantTimeValueRepository" style="stroke:#181818;stroke-width:1.0;"/><polygon fill="none" points="128,573.9359,122,591.9359,134,591.9359,128,573.9359" style="stroke:#181818;stroke-width:1.0;"/></g><!--reverse link Value to InstantTimeValue--><g id="link_Value_InstantTimeValue"><path d="M478,840.0759 C478,868.5459 478,892.2259 478,927.9559 " fill="none" id="Value-backto-InstantTimeValue" style="stroke:#181818;stroke-width:1.0;stroke-dasharray:7.0,7.0;"/><polygon fill="none" points="478,822.0759,472,840.0759,484,840.0759,478,822.0759" style="stroke:#181818;stroke-width:1.0;"/></g><!--link HouseControllerWeb to MaxTempDifOutsideInsideService--><g id="link_HouseControllerWeb_MaxTempDifOutsideInsideService"><path codeLine="66" d="M428,391.3359 C428,411.6059 428,432.0359 428,451.1759 " fill="none" id="HouseControllerWeb-MaxTempDifOutsideInsideService" style="stroke:#181818;stroke-width:1.0;"/></g><!--link HouseControllerWeb to SensorID--><g id="link_HouseControllerWeb_SensorID"><path codeLine="67" d="M715.25,391.3359 C715.25,437.9759 715.25,479.4559 715.25,510.1059 " fill="none" id="HouseControllerWeb-to-SensorID" style="stroke:#181818;stroke-width:1.0;"/><polygon fill="#181818" points="715.25,516.1059,719.25,507.1059,715.25,511.1059,711.25,507.1059,715.25,516.1059" style="stroke:#181818;stroke-width:1.0;"/><text fill="#000000" font-family="sans-serif" font-size="13" lengthAdjust="spacing" textLength="57" x="657.25" y="449.7542">&#171;creates&#187;</text></g><!--link MaxTempDifOutsideInsideService to Value--><g id="link_MaxTempDifOutsideInsideService_Value"><path codeLine="68" d="M478,648.4859 C478,686.2859 478,720.9259 478,748.5859 " fill="none" id="MaxTempDifOutsideInsideService-to-Value" style="stroke:#181818;stroke-width:1.0;stroke-dasharray:7.0,7.0;"/><polygon fill="#181818" points="478,754.5859,482,745.5859,478,749.5859,474,745.5859,478,754.5859" style="stroke:#181818;stroke-width:1.0;"/><text fill="#000000" font-family="sans-serif" font-size="13" lengthAdjust="spacing" textLength="42" x="435" y="697.5642">&#171;uses&#187;</text></g><!--link MaxTempDifOutsideInsideService to InstantTimeValueRepository--><g id="link_MaxTempDifOutsideInsideService_InstantTimeValueRepository"><path codeLine="69" d="M294.25,648.4859 C294.25,682.3159 294.25,712.4159 294.25,739.4559 " fill="none" id="MaxTempDifOutsideInsideService-to-InstantTimeValueRepository" style="stroke:#181818;stroke-width:1.0;stroke-dasharray:7.0,7.0;"/><polygon fill="#181818" points="294.25,745.4559,298.25,736.4559,294.25,740.4559,290.25,736.4559,294.25,745.4559" style="stroke:#181818;stroke-width:1.0;"/><text fill="#000000" font-family="sans-serif" font-size="13" lengthAdjust="spacing" textLength="42" x="251.25" y="693.0042">&#171;uses&#187;</text></g><!--link MaxTempDifOutsideInsideService to ConfigScraper--><g id="link_MaxTempDifOutsideInsideService_ConfigScraper"><path codeLine="70" d="M611.75,648.4859 C611.75,668.3459 611.75,688.9959 611.75,708.1259 " fill="none" id="MaxTempDifOutsideInsideService-ConfigScraper" style="stroke:#181818;stroke-width:1.0;"/></g><!--link InstantTimeValue to Reading--><g id="link_InstantTimeValue_Reading"><path codeLine="71" d="M607.79,999.2559 C619.7,999.2559 631.42,999.2559 642.45,999.2559 " fill="none" id="InstantTimeValue-Reading" style="stroke:#181818;stroke-width:1.0;"/></g><!--SRC=[ZLLDSo8t4BtFh-ZQ789h0H-I4qMejO7rJiLU2B3E8Kwbv9a6LDP84qbZB-NAVqzh9EO30rukwEDrgr_twvwVjzRcPd1vcGicRP69VgAooqGmOtefPnlDiiWySPapMe7W4kqkHr3QRbKKvInvOXi4W_ePDVnqopTRUwFP3bwZo78h4BwDV_br05S662oKoc3s8Wdvbz8mLo-q-aQsNV87Lsd69JTMCwlqtrs8uOKY0gjWW_ItHSZOTvuL6N1fB5qnYQemy231OfOZsHKQ8UNhDMgK2S8ZsXT4II-d-CpfWClIZtPnC9cM6rLOmrFikai66_vC1kICgxGVHMKUu0izWsCbhLP2eFuJ7s6uG6Fhez5h1ExNspheah91pmsyOTWr0V4atCMJSEn2gimMzIPS2yhBfEHWhdUV2vbOhYGJtEugerk2N0aHKB4i_Hy7DzwyOpcHdQnc_jLg6o0-RmtGf7qGO2onXQjQwx66rTNP- -34e3IdNIpFt9OEFjvCLx2bgWeigVzHeDvrFisPtTuppTaZQN5fDPSRfn-gkFSOJ_nXzq4UnGPv783XqmB_BKW2yx8jRbN2n8HPNF4ClOQMbcdhdBu7dChqWfAF9bVIu5HIr-o6emvfVKMgdl1r5xvGYv8_MvZ-xFUBacsllf_v2EEILESSnNSuFSWJFBgduex-sxV8tV5mWk1W61QXJthFJ1Ium5mPJhBO3I3sBUtStxVll46Yv9flbebcLF81Z9jRZnZFldwER_wPBsRpwM8LJvVm6tpmPfV-hvzhHN3BqNmOX5nuwT202GJ259bKGwIppz91IbsweBexo6WN715YbELWd13SjhIepm5bwdPK_5GLf3XFOyrbEXRA4AeHJyTrz_0mIICeysXApq9HPUtUVUsrAb4LxF1-De9G2DzqNrc6LKR8W4kBUiseSAVhuaRWVZq2_6w9Zu6p8F_cHqVnUXV2IQ7Ei0cB2p_DXfvaRKJZhUmFAc27C345wLfrZsi5NfwzLkLT84k9NATijN9P9-QG8_0i5vYXj84FD5NhPlUzN_XJxVtLZXk9TU0zFN_EwySMUyDA55MuyHkKYxp6LR67srPDop1R0kyLajitaYzPEBzruOFNLdkzxeKfq0t8jcDgA4cREyRbjL39qufjse24j7mM49fojynffblNtCtRTNFWpmEqpKGebguKVOIPQzSMdICVxbxldLbrt6XKbN40ms52DRTeHgFedRdNxu-yM9mLkVr1azDTz-D-Y6XxIhwHUQzIxFy0]--></g></svg>