<?xml version="1.0" encoding="us-ascii" standalone="no"?><svg xmlns="http://www.w3.org/2000/svg" xmlns:xlink="http://www.w3.org/1999/xlink" contentStyleType="text/css" height="1017px" preserveAspectRatio="none" style="width:1226px;height:1017px;background:#FFFFFF;" version="1.1" viewBox="0 0 1226 1017" width="1226px" zoomAndPan="magnify"><defs/><g><text fill="#000000" font-family="sans-serif" font-size="14" font-weight="bold" lengthAdjust="spacing" textLength="339" x="436.5" y="25.1074">UC34.1 List of Rooms Inside or Outside of House</text><!--cluster server--><g id="cluster_server"><path d="M8.5,45.6348 L56.5,45.6348 A3.75,3.75 0 0 1 59,48.1348 L66,70.2559 L1216.5,70.2559 A2.5,2.5 0 0 1 1219,72.7559 L1219,1008.1348 A2.5,2.5 0 0 1 1216.5,1010.6348 L8.5,1010.6348 A2.5,2.5 0 0 1 6,1008.1348 L6,48.1348 A2.5,2.5 0 0 1 8.5,45.6348 " fill="#D3D3D3" style="stroke:#000000;stroke-width:1.5;"/><line style="stroke:#000000;stroke-width:1.5;" x1="6" x2="66" y1="70.2559" y2="70.2559"/><text fill="#000000" font-family="sans-serif" font-size="14" font-weight="bold" lengthAdjust="spacing" textLength="47" x="10" y="62.7422">server</text></g><!--class HouseControllerWeb--><g id="elem_HouseControllerWeb"><rect codeLine="7" fill="#F1F1F1" height="308.6953" id="HouseControllerWeb" rx="2.5" ry="2.5" style="stroke:#181818;stroke-width:0.5;" width="676" x="340" y="82.6348"/><ellipse cx="580.75" cy="98.6348" fill="#ADD1B2" rx="11" ry="11" style="stroke:#181818;stroke-width:1.0;"/><path d="M583.5156,94.5098 Q583.6719,94.291 583.8594,94.1816 Q584.0469,94.0723 584.2656,94.0723 Q584.6406,94.0723 584.875,94.3379 Q585.1094,94.5879 585.1094,95.1973 L585.1094,96.6504 Q585.1094,97.2598 584.875,97.5254 Q584.6406,97.791 584.2656,97.791 Q583.9219,97.791 583.7188,97.5879 Q583.5156,97.4004 583.4063,96.8848 Q583.3594,96.5254 583.1719,96.3379 Q582.8438,95.9629 582.2344,95.7441 Q581.625,95.5254 581,95.5254 Q580.2344,95.5254 579.5938,95.8535 Q578.9688,96.1816 578.4688,96.9316 Q577.9844,97.6816 577.9844,98.7129 L577.9844,99.8066 Q577.9844,101.041 578.875,101.8691 Q579.7656,102.6816 581.3594,102.6816 Q582.2969,102.6816 582.9531,102.4316 Q583.3438,102.2754 583.7656,101.8379 Q584.0313,101.5723 584.1719,101.4941 Q584.3281,101.416 584.5313,101.416 Q584.8594,101.416 585.1094,101.6816 Q585.375,101.9316 585.375,102.2754 Q585.375,102.6191 585.0313,103.0254 Q584.5313,103.6035 583.7344,103.9316 Q582.6563,104.3848 581.3594,104.3848 Q579.8438,104.3848 578.6406,103.7598 Q577.6563,103.2598 576.9688,102.1973 Q576.2813,101.1191 576.2813,99.8379 L576.2813,98.6816 Q576.2813,97.3535 576.8906,96.2129 Q577.5156,95.0566 578.6094,94.4473 Q579.7031,93.8223 580.9375,93.8223 Q581.6719,93.8223 582.3125,93.9941 Q582.9688,94.1504 583.5156,94.5098 Z " fill="#000000"/><text fill="#000000" font-family="sans-serif" font-size="14" lengthAdjust="spacing" textLength="131" x="601.25" y="104.4316">HouseControllerWeb</text><rect fill="#FFFFFF" height="17.9609" style="stroke:#181818;stroke-width:1.0;stroke-dasharray:2.0,2.0;" width="53" x="966" y="79.6348"/><text fill="#000000" font-family="sans-serif" font-size="12" font-style="italic" lengthAdjust="spacing" textLength="51" x="967" y="93.584">controller</text><line style="stroke:#181818;stroke-width:0.5;" x1="341" x2="1015" y1="114.6348" y2="114.6348"/><rect fill="none" height="6" style="stroke:#C82930;stroke-width:1.0;" width="6" x="348" y="126.4453"/><text fill="#000000" font-family="sans-serif" font-size="14" lengthAdjust="spacing" textLength="181" x="360" y="133.7422">houseService: HouseService</text><rect fill="none" height="6" style="stroke:#C82930;stroke-width:1.0;" width="6" x="348" y="145.0664"/><text fill="#000000" font-family="sans-serif" font-size="14" lengthAdjust="spacing" textLength="171" x="360" y="152.3633">roomService: RoomService</text><rect fill="none" height="6" style="stroke:#C82930;stroke-width:1.0;" width="6" x="348" y="163.6875"/><text fill="#000000" font-family="sans-serif" font-size="14" lengthAdjust="spacing" textLength="186" x="360" y="170.9844">deviceService: DeviceService</text><rect fill="none" height="6" style="stroke:#C82930;stroke-width:1.0;" width="6" x="348" y="182.3086"/><text fill="#000000" font-family="sans-serif" font-size="14" lengthAdjust="spacing" textLength="499" x="360" y="189.6055">listDevicesByFunctionalityService: ListAllDevicesInHouseByFunctionalityService</text><rect fill="none" height="6" style="stroke:#C82930;stroke-width:1.0;" width="6" x="348" y="200.9297"/><text fill="#000000" font-family="sans-serif" font-size="14" lengthAdjust="spacing" textLength="430" x="360" y="208.2266">maxTempDifOutsideInsideService: MaxTempDifOutsideInsideService</text><rect fill="none" height="6" style="stroke:#C82930;stroke-width:1.0;" width="6" x="348" y="219.5508"/><text fill="#000000" font-family="sans-serif" font-size="14" lengthAdjust="spacing" textLength="233" x="360" y="226.8477">roomMapperDTO: RoomMapperDTO</text><rect fill="none" height="6" style="stroke:#C82930;stroke-width:1.0;" width="6" x="348" y="238.1719"/><text fill="#000000" font-family="sans-serif" font-size="14" lengthAdjust="spacing" textLength="248" x="360" y="245.4688">deviceMapperDTO: DeviceMapperDTO</text><rect fill="none" height="6" style="stroke:#C82930;stroke-width:1.0;" width="6" x="348" y="256.793"/><text fill="#000000" font-family="sans-serif" font-size="14" lengthAdjust="spacing" textLength="429" x="360" y="264.0898">actuatorFunctionalityMapperDTO: ActuatorFunctionalityMapperDTO</text><rect fill="none" height="6" style="stroke:#C82930;stroke-width:1.0;" width="6" x="348" y="275.4141"/><text fill="#000000" font-family="sans-serif" font-size="14" lengthAdjust="spacing" textLength="412" x="360" y="282.7109">sensorFunctionalityMapperDTO: SensorFunctionalityMapperDTO</text><rect fill="none" height="6" style="stroke:#C82930;stroke-width:1.0;" width="6" x="348" y="294.0352"/><text fill="#000000" font-family="sans-serif" font-size="14" lengthAdjust="spacing" textLength="172" x="360" y="301.332">valueService: ValueService</text><rect fill="none" height="6" style="stroke:#C82930;stroke-width:1.0;" width="6" x="348" y="312.6563"/><text fill="#000000" font-family="sans-serif" font-size="14" lengthAdjust="spacing" textLength="248" x="360" y="319.9531">weatherAPIService: WeatherAPIService</text><line style="stroke:#181818;stroke-width:0.5;" x1="341" x2="1015" y1="327.4668" y2="327.4668"/><ellipse cx="351" cy="351.5879" fill="#84BE84" rx="3" ry="3" style="stroke:#038048;stroke-width:1.0;"/><text fill="#000000" font-family="sans-serif" font-size="14" lengthAdjust="spacing" textLength="650" x="360" y="346.5742">GET getListOfRoomsInHouse(@PathVariable("id") String houseIDstr,@RequestParam(required = false)</text><text fill="#000000" font-family="sans-serif" font-size="14" lengthAdjust="spacing" textLength="512" x="364" y="365.1953">Boolean areRoomsInside): ResponseEntity&lt;Object&gt; roomDTOList, HttpStatus.OK</text><rect fill="#F24D5C" height="6" style="stroke:#C82930;stroke-width:1.0;" width="6" x="348" y="376.5195"/><text fill="#000000" font-family="sans-serif" font-size="14" lengthAdjust="spacing" textLength="640" x="360" y="383.8164">getListOfRoomsInsideOrOutsideHouse(String houseIDstr, boolean areRoomsInside): List&lt;RoomDTO&gt;</text></g><!--class Repository--><g id="elem_Repository"><rect codeLine="24" fill="#F1F1F1" height="66.6211" id="Repository" rx="2.5" ry="2.5" style="stroke:#181818;stroke-width:0.5;" width="240" x="22" y="488.6348"/><ellipse cx="89.25" cy="504.6348" fill="#B4A7E5" rx="11" ry="11" style="stroke:#181818;stroke-width:1.0;"/><path d="M90.2031,501.2754 L90.2031,507.9316 L91.9219,507.9316 Q92.5313,507.9316 92.7969,508.166 Q93.0625,508.4004 93.0625,508.791 Q93.0625,509.166 92.7969,509.4004 Q92.5313,509.6348 91.9219,509.6348 L86.7813,509.6348 Q86.1719,509.6348 85.9063,509.4004 Q85.6406,509.166 85.6406,508.7754 Q85.6406,508.4004 85.9063,508.166 Q86.1719,507.9316 86.7813,507.9316 L88.5,507.9316 L88.5,501.2754 L86.7813,501.2754 Q86.1719,501.2754 85.9063,501.041 Q85.6406,500.8066 85.6406,500.416 Q85.6406,500.041 85.9063,499.8066 Q86.1719,499.5723 86.7813,499.5723 L91.9219,499.5723 Q92.5313,499.5723 92.7969,499.8066 Q93.0625,500.041 93.0625,500.416 Q93.0625,500.8066 92.7969,501.041 Q92.5313,501.2754 91.9219,501.2754 L90.2031,501.2754 Z " fill="#000000"/><text fill="#000000" font-family="sans-serif" font-size="14" font-style="italic" lengthAdjust="spacing" textLength="68" x="109.75" y="510.4316">Repository</text><rect fill="#FFFFFF" height="17.9609" style="stroke:#181818;stroke-width:1.0;stroke-dasharray:2.0,2.0;" width="27" x="238" y="485.6348"/><text fill="#000000" font-family="sans-serif" font-size="12" font-style="italic" lengthAdjust="spacing" textLength="25" x="239" y="499.584">repo</text><line style="stroke:#181818;stroke-width:0.5;" x1="23" x2="261" y1="520.6348" y2="520.6348"/><line style="stroke:#181818;stroke-width:0.5;" x1="23" x2="261" y1="528.6348" y2="528.6348"/><ellipse cx="33" cy="543.4453" fill="#84BE84" rx="3" ry="3" style="stroke:#038048;stroke-width:1.0;"/><text fill="#000000" font-family="sans-serif" font-size="14" lengthAdjust="spacing" textLength="214" x="42" y="547.7422">containsEntityByID(ID id): boolean</text></g><!--class HouseRepository--><g id="elem_HouseRepository"><rect codeLine="27" fill="#F1F1F1" height="48" id="HouseRepository" rx="2.5" ry="2.5" style="stroke:#181818;stroke-width:0.5;" width="170" x="57" y="708.6348"/><ellipse cx="72" cy="724.6348" fill="#B4A7E5" rx="11" ry="11" style="stroke:#181818;stroke-width:1.0;"/><path d="M72.9531,721.2754 L72.9531,727.9316 L74.6719,727.9316 Q75.2813,727.9316 75.5469,728.166 Q75.8125,728.4004 75.8125,728.791 Q75.8125,729.166 75.5469,729.4004 Q75.2813,729.6348 74.6719,729.6348 L69.5313,729.6348 Q68.9219,729.6348 68.6563,729.4004 Q68.3906,729.166 68.3906,728.7754 Q68.3906,728.4004 68.6563,728.166 Q68.9219,727.9316 69.5313,727.9316 L71.25,727.9316 L71.25,721.2754 L69.5313,721.2754 Q68.9219,721.2754 68.6563,721.041 Q68.3906,720.8066 68.3906,720.416 Q68.3906,720.041 68.6563,719.8066 Q68.9219,719.5723 69.5313,719.5723 L74.6719,719.5723 Q75.2813,719.5723 75.5469,719.8066 Q75.8125,720.041 75.8125,720.416 Q75.8125,720.8066 75.5469,721.041 Q75.2813,721.2754 74.6719,721.2754 L72.9531,721.2754 Z " fill="#000000"/><text fill="#000000" font-family="sans-serif" font-size="14" font-style="italic" lengthAdjust="spacing" textLength="109" x="86" y="730.4316">HouseRepository</text><rect fill="#FFFFFF" height="17.9609" style="stroke:#181818;stroke-width:1.0;stroke-dasharray:2.0,2.0;" width="27" x="203" y="705.6348"/><text fill="#000000" font-family="sans-serif" font-size="12" font-style="italic" lengthAdjust="spacing" textLength="25" x="204" y="719.584">repo</text><line style="stroke:#181818;stroke-width:0.5;" x1="58" x2="226" y1="740.6348" y2="740.6348"/><line style="stroke:#181818;stroke-width:0.5;" x1="58" x2="226" y1="748.6348" y2="748.6348"/></g><!--class RoomService--><g id="elem_RoomService"><rect codeLine="31" fill="#F1F1F1" height="141.1055" id="RoomService" rx="2.5" ry="2.5" style="stroke:#181818;stroke-width:0.5;" width="387" x="297.5" y="451.6348"/><ellipse cx="423.25" cy="467.6348" fill="#ADD1B2" rx="11" ry="11" style="stroke:#181818;stroke-width:1.0;"/><path d="M426.0156,463.5098 Q426.1719,463.291 426.3594,463.1816 Q426.5469,463.0723 426.7656,463.0723 Q427.1406,463.0723 427.375,463.3379 Q427.6094,463.5879 427.6094,464.1973 L427.6094,465.6504 Q427.6094,466.2598 427.375,466.5254 Q427.1406,466.791 426.7656,466.791 Q426.4219,466.791 426.2188,466.5879 Q426.0156,466.4004 425.9063,465.8848 Q425.8594,465.5254 425.6719,465.3379 Q425.3438,464.9629 424.7344,464.7441 Q424.125,464.5254 423.5,464.5254 Q422.7344,464.5254 422.0938,464.8535 Q421.4688,465.1816 420.9688,465.9316 Q420.4844,466.6816 420.4844,467.7129 L420.4844,468.8066 Q420.4844,470.041 421.375,470.8691 Q422.2656,471.6816 423.8594,471.6816 Q424.7969,471.6816 425.4531,471.4316 Q425.8438,471.2754 426.2656,470.8379 Q426.5313,470.5723 426.6719,470.4941 Q426.8281,470.416 427.0313,470.416 Q427.3594,470.416 427.6094,470.6816 Q427.875,470.9316 427.875,471.2754 Q427.875,471.6191 427.5313,472.0254 Q427.0313,472.6035 426.2344,472.9316 Q425.1563,473.3848 423.8594,473.3848 Q422.3438,473.3848 421.1406,472.7598 Q420.1563,472.2598 419.4688,471.1973 Q418.7813,470.1191 418.7813,468.8379 L418.7813,467.6816 Q418.7813,466.3535 419.3906,465.2129 Q420.0156,464.0566 421.1094,463.4473 Q422.2031,462.8223 423.4375,462.8223 Q424.1719,462.8223 424.8125,462.9941 Q425.4688,463.1504 426.0156,463.5098 Z " fill="#000000"/><text fill="#000000" font-family="sans-serif" font-size="14" lengthAdjust="spacing" textLength="84" x="443.75" y="473.4316">RoomService</text><rect fill="#FFFFFF" height="17.9609" style="stroke:#181818;stroke-width:1.0;stroke-dasharray:2.0,2.0;" width="41" x="646.5" y="448.6348"/><text fill="#000000" font-family="sans-serif" font-size="12" font-style="italic" lengthAdjust="spacing" textLength="39" x="647.5" y="462.584">service</text><line style="stroke:#181818;stroke-width:0.5;" x1="298.5" x2="683.5" y1="483.6348" y2="483.6348"/><rect fill="none" height="6" style="stroke:#C82930;stroke-width:1.0;" width="6" x="305.5" y="495.4453"/><text fill="#000000" font-family="sans-serif" font-size="14" lengthAdjust="spacing" textLength="223" x="317.5" y="502.7422">houseRepository: HouseRepository</text><rect fill="none" height="6" style="stroke:#C82930;stroke-width:1.0;" width="6" x="305.5" y="514.0664"/><text fill="#000000" font-family="sans-serif" font-size="14" lengthAdjust="spacing" textLength="213" x="317.5" y="521.3633">roomRepository: RoomRepository</text><rect fill="none" height="6" style="stroke:#C82930;stroke-width:1.0;" width="6" x="305.5" y="532.6875"/><text fill="#000000" font-family="sans-serif" font-size="14" lengthAdjust="spacing" textLength="136" x="317.5" y="539.9844">factory: RoomFactory</text><line style="stroke:#181818;stroke-width:0.5;" x1="298.5" x2="683.5" y1="547.498" y2="547.498"/><ellipse cx="308.5" cy="571.6191" fill="#84BE84" rx="3" ry="3" style="stroke:#038048;stroke-width:1.0;"/><text fill="#000000" font-family="sans-serif" font-size="14" lengthAdjust="spacing" textLength="361" x="317.5" y="566.6055">getListOfRoomsInsideOrOutsideHouse(HouseID houseID,</text><text fill="#000000" font-family="sans-serif" font-size="14" lengthAdjust="spacing" textLength="258" x="321.5" y="585.2266">boolean areRoomsInside): List&lt;RoomID&gt;</text></g><!--class RoomRepository--><g id="elem_RoomRepository"><rect codeLine="38" fill="#F1F1F1" height="66.6211" id="RoomRepository" rx="2.5" ry="2.5" style="stroke:#181818;stroke-width:0.5;" width="345" x="262.5" y="699.1348"/><ellipse cx="363.75" cy="715.1348" fill="#B4A7E5" rx="11" ry="11" style="stroke:#181818;stroke-width:1.0;"/><path d="M364.7031,711.7754 L364.7031,718.4316 L366.4219,718.4316 Q367.0313,718.4316 367.2969,718.666 Q367.5625,718.9004 367.5625,719.291 Q367.5625,719.666 367.2969,719.9004 Q367.0313,720.1348 366.4219,720.1348 L361.2813,720.1348 Q360.6719,720.1348 360.4063,719.9004 Q360.1406,719.666 360.1406,719.2754 Q360.1406,718.9004 360.4063,718.666 Q360.6719,718.4316 361.2813,718.4316 L363,718.4316 L363,711.7754 L361.2813,711.7754 Q360.6719,711.7754 360.4063,711.541 Q360.1406,711.3066 360.1406,710.916 Q360.1406,710.541 360.4063,710.3066 Q360.6719,710.0723 361.2813,710.0723 L366.4219,710.0723 Q367.0313,710.0723 367.2969,710.3066 Q367.5625,710.541 367.5625,710.916 Q367.5625,711.3066 367.2969,711.541 Q367.0313,711.7754 366.4219,711.7754 L364.7031,711.7754 Z " fill="#000000"/><text fill="#000000" font-family="sans-serif" font-size="14" font-style="italic" lengthAdjust="spacing" textLength="105" x="384.25" y="720.9316">RoomRepository</text><rect fill="#FFFFFF" height="17.9609" style="stroke:#181818;stroke-width:1.0;stroke-dasharray:2.0,2.0;" width="27" x="583.5" y="696.1348"/><text fill="#000000" font-family="sans-serif" font-size="12" font-style="italic" lengthAdjust="spacing" textLength="25" x="584.5" y="710.084">repo</text><line style="stroke:#181818;stroke-width:0.5;" x1="263.5" x2="606.5" y1="731.1348" y2="731.1348"/><line style="stroke:#181818;stroke-width:0.5;" x1="263.5" x2="606.5" y1="739.1348" y2="739.1348"/><ellipse cx="273.5" cy="753.9453" fill="#84BE84" rx="3" ry="3" style="stroke:#038048;stroke-width:1.0;"/><text fill="#000000" font-family="sans-serif" font-size="14" lengthAdjust="spacing" textLength="319" x="282.5" y="758.2422">findByHouseID(HouseID houseID): Iterable&lt;Room&gt;</text></g><!--class RoomMapperDTO--><g id="elem_RoomMapperDTO"><rect codeLine="42" fill="#F1F1F1" height="66.6211" id="RoomMapperDTO" rx="2.5" ry="2.5" style="stroke:#181818;stroke-width:0.5;" width="483" x="719.5" y="488.6348"/><ellipse cx="899.25" cy="504.6348" fill="#ADD1B2" rx="11" ry="11" style="stroke:#181818;stroke-width:1.0;"/><path d="M902.0156,500.5098 Q902.1719,500.291 902.3594,500.1816 Q902.5469,500.0723 902.7656,500.0723 Q903.1406,500.0723 903.375,500.3379 Q903.6094,500.5879 903.6094,501.1973 L903.6094,502.6504 Q903.6094,503.2598 903.375,503.5254 Q903.1406,503.791 902.7656,503.791 Q902.4219,503.791 902.2188,503.5879 Q902.0156,503.4004 901.9063,502.8848 Q901.8594,502.5254 901.6719,502.3379 Q901.3438,501.9629 900.7344,501.7441 Q900.125,501.5254 899.5,501.5254 Q898.7344,501.5254 898.0938,501.8535 Q897.4688,502.1816 896.9688,502.9316 Q896.4844,503.6816 896.4844,504.7129 L896.4844,505.8066 Q896.4844,507.041 897.375,507.8691 Q898.2656,508.6816 899.8594,508.6816 Q900.7969,508.6816 901.4531,508.4316 Q901.8438,508.2754 902.2656,507.8379 Q902.5313,507.5723 902.6719,507.4941 Q902.8281,507.416 903.0313,507.416 Q903.3594,507.416 903.6094,507.6816 Q903.875,507.9316 903.875,508.2754 Q903.875,508.6191 903.5313,509.0254 Q903.0313,509.6035 902.2344,509.9316 Q901.1563,510.3848 899.8594,510.3848 Q898.3438,510.3848 897.1406,509.7598 Q896.1563,509.2598 895.4688,508.1973 Q894.7813,507.1191 894.7813,505.8379 L894.7813,504.6816 Q894.7813,503.3535 895.3906,502.2129 Q896.0156,501.0566 897.1094,500.4473 Q898.2031,499.8223 899.4375,499.8223 Q900.1719,499.8223 900.8125,499.9941 Q901.4688,500.1504 902.0156,500.5098 Z " fill="#000000"/><text fill="#000000" font-family="sans-serif" font-size="14" lengthAdjust="spacing" textLength="115" x="919.75" y="510.4316">RoomMapperDTO</text><line style="stroke:#181818;stroke-width:0.5;" x1="720.5" x2="1201.5" y1="520.6348" y2="520.6348"/><line style="stroke:#181818;stroke-width:0.5;" x1="720.5" x2="1201.5" y1="528.6348" y2="528.6348"/><ellipse cx="730.5" cy="543.4453" fill="#84BE84" rx="3" ry="3" style="stroke:#038048;stroke-width:1.0;"/><text fill="#000000" font-family="sans-serif" font-size="14" lengthAdjust="spacing" textLength="457" x="739.5" y="547.7422">roomIDsToDTOList(Iterable&lt;RoomID&gt; listOfRoomsIDs): List&lt;RoomDTO&gt;</text></g><!--class RoomDTO--><g id="elem_RoomDTO"><rect codeLine="46" fill="#F1F1F1" height="141.1055" id="RoomDTO" rx="2.5" ry="2.5" style="stroke:#181818;stroke-width:0.5;" width="139" x="962.5" y="662.1348"/><ellipse cx="995.5" cy="678.1348" fill="#ADD1B2" rx="11" ry="11" style="stroke:#181818;stroke-width:1.0;"/><path d="M998.2656,674.0098 Q998.4219,673.791 998.6094,673.6816 Q998.7969,673.5723 999.0156,673.5723 Q999.3906,673.5723 999.625,673.8379 Q999.8594,674.0879 999.8594,674.6973 L999.8594,676.1504 Q999.8594,676.7598 999.625,677.0254 Q999.3906,677.291 999.0156,677.291 Q998.6719,677.291 998.4688,677.0879 Q998.2656,676.9004 998.1563,676.3848 Q998.1094,676.0254 997.9219,675.8379 Q997.5938,675.4629 996.9844,675.2441 Q996.375,675.0254 995.75,675.0254 Q994.9844,675.0254 994.3438,675.3535 Q993.7188,675.6816 993.2188,676.4316 Q992.7344,677.1816 992.7344,678.2129 L992.7344,679.3066 Q992.7344,680.541 993.625,681.3691 Q994.5156,682.1816 996.1094,682.1816 Q997.0469,682.1816 997.7031,681.9316 Q998.0938,681.7754 998.5156,681.3379 Q998.7813,681.0723 998.9219,680.9941 Q999.0781,680.916 999.2813,680.916 Q999.6094,680.916 999.8594,681.1816 Q1000.125,681.4316 1000.125,681.7754 Q1000.125,682.1191 999.7813,682.5254 Q999.2813,683.1035 998.4844,683.4316 Q997.4063,683.8848 996.1094,683.8848 Q994.5938,683.8848 993.3906,683.2598 Q992.4063,682.7598 991.7188,681.6973 Q991.0313,680.6191 991.0313,679.3379 L991.0313,678.1816 Q991.0313,676.8535 991.6406,675.7129 Q992.2656,674.5566 993.3594,673.9473 Q994.4531,673.3223 995.6875,673.3223 Q996.4219,673.3223 997.0625,673.4941 Q997.7188,673.6504 998.2656,674.0098 Z " fill="#000000"/><text fill="#000000" font-family="sans-serif" font-size="14" lengthAdjust="spacing" textLength="67" x="1013.5" y="683.9316">RoomDTO</text><line style="stroke:#181818;stroke-width:0.5;" x1="963.5" x2="1100.5" y1="694.1348" y2="694.1348"/><ellipse cx="973.5" cy="708.9453" fill="none" rx="3" ry="3" style="stroke:#038048;stroke-width:1.0;"/><text fill="#000000" font-family="sans-serif" font-size="14" lengthAdjust="spacing" textLength="113" x="982.5" y="713.2422">roomName: String</text><ellipse cx="973.5" cy="727.5664" fill="none" rx="3" ry="3" style="stroke:#038048;stroke-width:1.0;"/><text fill="#000000" font-family="sans-serif" font-size="14" lengthAdjust="spacing" textLength="100" x="982.5" y="731.8633">floorNumber: int</text><ellipse cx="973.5" cy="746.1875" fill="none" rx="3" ry="3" style="stroke:#038048;stroke-width:1.0;"/><text fill="#000000" font-family="sans-serif" font-size="14" lengthAdjust="spacing" textLength="83" x="982.5" y="750.4844">width: double</text><ellipse cx="973.5" cy="764.8086" fill="none" rx="3" ry="3" style="stroke:#038048;stroke-width:1.0;"/><text fill="#000000" font-family="sans-serif" font-size="14" lengthAdjust="spacing" textLength="90" x="982.5" y="769.1055">length: double</text><ellipse cx="973.5" cy="783.4297" fill="none" rx="3" ry="3" style="stroke:#038048;stroke-width:1.0;"/><text fill="#000000" font-family="sans-serif" font-size="14" lengthAdjust="spacing" textLength="90" x="982.5" y="787.7266">height: double</text><line style="stroke:#181818;stroke-width:0.5;" x1="963.5" x2="1100.5" y1="795.2402" y2="795.2402"/></g><!--class Room--><g id="elem_Room"><rect codeLine="54" fill="#F1F1F1" height="159.7266" id="Room" rx="2.5" ry="2.5" style="stroke:#181818;stroke-width:0.5;" width="284" x="643" y="652.6348"/><ellipse cx="749.75" cy="668.6348" fill="#ADD1B2" rx="11" ry="11" style="stroke:#181818;stroke-width:1.0;"/><path d="M752.5156,664.5098 Q752.6719,664.291 752.8594,664.1816 Q753.0469,664.0723 753.2656,664.0723 Q753.6406,664.0723 753.875,664.3379 Q754.1094,664.5879 754.1094,665.1973 L754.1094,666.6504 Q754.1094,667.2598 753.875,667.5254 Q753.6406,667.791 753.2656,667.791 Q752.9219,667.791 752.7188,667.5879 Q752.5156,667.4004 752.4063,666.8848 Q752.3594,666.5254 752.1719,666.3379 Q751.8438,665.9629 751.2344,665.7441 Q750.625,665.5254 750,665.5254 Q749.2344,665.5254 748.5938,665.8535 Q747.9688,666.1816 747.4688,666.9316 Q746.9844,667.6816 746.9844,668.7129 L746.9844,669.8066 Q746.9844,671.041 747.875,671.8691 Q748.7656,672.6816 750.3594,672.6816 Q751.2969,672.6816 751.9531,672.4316 Q752.3438,672.2754 752.7656,671.8379 Q753.0313,671.5723 753.1719,671.4941 Q753.3281,671.416 753.5313,671.416 Q753.8594,671.416 754.1094,671.6816 Q754.375,671.9316 754.375,672.2754 Q754.375,672.6191 754.0313,673.0254 Q753.5313,673.6035 752.7344,673.9316 Q751.6563,674.3848 750.3594,674.3848 Q748.8438,674.3848 747.6406,673.7598 Q746.6563,673.2598 745.9688,672.1973 Q745.2813,671.1191 745.2813,669.8379 L745.2813,668.6816 Q745.2813,667.3535 745.8906,666.2129 Q746.5156,665.0566 747.6094,664.4473 Q748.7031,663.8223 749.9375,663.8223 Q750.6719,663.8223 751.3125,663.9941 Q751.9688,664.1504 752.5156,664.5098 Z " fill="#000000"/><text fill="#000000" font-family="sans-serif" font-size="14" lengthAdjust="spacing" textLength="37" x="770.25" y="674.4316">Room</text><rect fill="#FFFFFF" height="17.9609" style="stroke:#181818;stroke-width:1.0;stroke-dasharray:2.0,2.0;" width="23" x="907" y="649.6348"/><text fill="#000000" font-family="sans-serif" font-size="12" font-style="italic" lengthAdjust="spacing" textLength="21" x="908" y="663.584">root</text><line style="stroke:#181818;stroke-width:0.5;" x1="644" x2="926" y1="684.6348" y2="684.6348"/><rect fill="none" height="6" style="stroke:#C82930;stroke-width:1.0;" width="6" x="651" y="696.4453"/><text fill="#000000" font-family="sans-serif" font-size="14" lengthAdjust="spacing" textLength="126" x="663" y="703.7422">roomName: RoomID</text><rect fill="none" height="6" style="stroke:#C82930;stroke-width:1.0;" width="6" x="651" y="715.0664"/><text fill="#000000" font-family="sans-serif" font-size="14" lengthAdjust="spacing" textLength="155" x="663" y="722.3633">floorNumber: RoomFloor</text><rect fill="none" height="6" style="stroke:#C82930;stroke-width:1.0;" width="6" x="651" y="733.6875"/><text fill="#000000" font-family="sans-serif" font-size="14" lengthAdjust="spacing" textLength="189" x="663" y="740.9844">dimensions: RoomDimensions</text><rect fill="none" height="6" style="stroke:#C82930;stroke-width:1.0;" width="6" x="651" y="752.3086"/><text fill="#000000" font-family="sans-serif" font-size="14" lengthAdjust="spacing" textLength="113" x="663" y="759.6055">houseID: HouseID</text><line style="stroke:#181818;stroke-width:0.5;" x1="644" x2="926" y1="767.1191" y2="767.1191"/><ellipse cx="654" cy="781.9297" fill="#84BE84" rx="3" ry="3" style="stroke:#038048;stroke-width:1.0;"/><text fill="#000000" font-family="sans-serif" font-size="14" lengthAdjust="spacing" textLength="113" x="663" y="786.2266">identity(): RoomID</text><ellipse cx="654" cy="800.5508" fill="#84BE84" rx="3" ry="3" style="stroke:#038048;stroke-width:1.0;"/><text fill="#000000" font-family="sans-serif" font-size="14" lengthAdjust="spacing" textLength="258" x="663" y="804.8477">getRoomDimensions(): RoomDimensions</text></g><!--class RoomDimensions--><g id="elem_RoomDimensions"><rect codeLine="63" fill="#F1F1F1" height="122.4844" id="RoomDimensions" rx="2.5" ry="2.5" style="stroke:#181818;stroke-width:0.5;" width="163" x="619.5" y="872.6348"/><ellipse cx="634.5" cy="888.6348" fill="#ADD1B2" rx="11" ry="11" style="stroke:#181818;stroke-width:1.0;"/><path d="M637.2656,884.5098 Q637.4219,884.291 637.6094,884.1816 Q637.7969,884.0723 638.0156,884.0723 Q638.3906,884.0723 638.625,884.3379 Q638.8594,884.5879 638.8594,885.1973 L638.8594,886.6504 Q638.8594,887.2598 638.625,887.5254 Q638.3906,887.791 638.0156,887.791 Q637.6719,887.791 637.4688,887.5879 Q637.2656,887.4004 637.1563,886.8848 Q637.1094,886.5254 636.9219,886.3379 Q636.5938,885.9629 635.9844,885.7441 Q635.375,885.5254 634.75,885.5254 Q633.9844,885.5254 633.3438,885.8535 Q632.7188,886.1816 632.2188,886.9316 Q631.7344,887.6816 631.7344,888.7129 L631.7344,889.8066 Q631.7344,891.041 632.625,891.8691 Q633.5156,892.6816 635.1094,892.6816 Q636.0469,892.6816 636.7031,892.4316 Q637.0938,892.2754 637.5156,891.8379 Q637.7813,891.5723 637.9219,891.4941 Q638.0781,891.416 638.2813,891.416 Q638.6094,891.416 638.8594,891.6816 Q639.125,891.9316 639.125,892.2754 Q639.125,892.6191 638.7813,893.0254 Q638.2813,893.6035 637.4844,893.9316 Q636.4063,894.3848 635.1094,894.3848 Q633.5938,894.3848 632.3906,893.7598 Q631.4063,893.2598 630.7188,892.1973 Q630.0313,891.1191 630.0313,889.8379 L630.0313,888.6816 Q630.0313,887.3535 630.6406,886.2129 Q631.2656,885.0566 632.3594,884.4473 Q633.4531,883.8223 634.6875,883.8223 Q635.4219,883.8223 636.0625,883.9941 Q636.7188,884.1504 637.2656,884.5098 Z " fill="#000000"/><text fill="#000000" font-family="sans-serif" font-size="14" lengthAdjust="spacing" textLength="110" x="648.5" y="894.4316">RoomDimensions</text><rect fill="#FFFFFF" height="17.9609" style="stroke:#181818;stroke-width:1.0;stroke-dasharray:2.0,2.0;" width="19" x="766.5" y="869.6348"/><text fill="#000000" font-family="sans-serif" font-size="12" font-style="italic" lengthAdjust="spacing" textLength="17" x="767.5" y="883.584">VO</text><line style="stroke:#181818;stroke-width:0.5;" x1="620.5" x2="781.5" y1="904.6348" y2="904.6348"/><rect fill="none" height="6" style="stroke:#C82930;stroke-width:1.0;" width="6" x="627.5" y="916.4453"/><text fill="#000000" font-family="sans-serif" font-size="14" lengthAdjust="spacing" textLength="83" x="639.5" y="923.7422">width: double</text><rect fill="none" height="6" style="stroke:#C82930;stroke-width:1.0;" width="6" x="627.5" y="935.0664"/><text fill="#000000" font-family="sans-serif" font-size="14" lengthAdjust="spacing" textLength="90" x="639.5" y="942.3633">length: double</text><rect fill="none" height="6" style="stroke:#C82930;stroke-width:1.0;" width="6" x="627.5" y="953.6875"/><text fill="#000000" font-family="sans-serif" font-size="14" lengthAdjust="spacing" textLength="90" x="639.5" y="960.9844">height: double</text><line style="stroke:#181818;stroke-width:0.5;" x1="620.5" x2="781.5" y1="968.498" y2="968.498"/><ellipse cx="630.5" cy="983.3086" fill="#84BE84" rx="3" ry="3" style="stroke:#038048;stroke-width:1.0;"/><text fill="#000000" font-family="sans-serif" font-size="14" lengthAdjust="spacing" textLength="121" x="639.5" y="987.6055">getHeight(): double</text></g><!--class RoomID--><g id="elem_RoomID"><rect codeLine="70" fill="#F1F1F1" height="66.6211" id="RoomID" rx="2.5" ry="2.5" style="stroke:#181818;stroke-width:0.5;" width="103" x="817.5" y="900.1348"/><ellipse cx="832.5" cy="916.1348" fill="#ADD1B2" rx="11" ry="11" style="stroke:#181818;stroke-width:1.0;"/><path d="M835.2656,912.0098 Q835.4219,911.791 835.6094,911.6816 Q835.7969,911.5723 836.0156,911.5723 Q836.3906,911.5723 836.625,911.8379 Q836.8594,912.0879 836.8594,912.6973 L836.8594,914.1504 Q836.8594,914.7598 836.625,915.0254 Q836.3906,915.291 836.0156,915.291 Q835.6719,915.291 835.4688,915.0879 Q835.2656,914.9004 835.1563,914.3848 Q835.1094,914.0254 834.9219,913.8379 Q834.5938,913.4629 833.9844,913.2441 Q833.375,913.0254 832.75,913.0254 Q831.9844,913.0254 831.3438,913.3535 Q830.7188,913.6816 830.2188,914.4316 Q829.7344,915.1816 829.7344,916.2129 L829.7344,917.3066 Q829.7344,918.541 830.625,919.3691 Q831.5156,920.1816 833.1094,920.1816 Q834.0469,920.1816 834.7031,919.9316 Q835.0938,919.7754 835.5156,919.3379 Q835.7813,919.0723 835.9219,918.9941 Q836.0781,918.916 836.2813,918.916 Q836.6094,918.916 836.8594,919.1816 Q837.125,919.4316 837.125,919.7754 Q837.125,920.1191 836.7813,920.5254 Q836.2813,921.1035 835.4844,921.4316 Q834.4063,921.8848 833.1094,921.8848 Q831.5938,921.8848 830.3906,921.2598 Q829.4063,920.7598 828.7188,919.6973 Q828.0313,918.6191 828.0313,917.3379 L828.0313,916.1816 Q828.0313,914.8535 828.6406,913.7129 Q829.2656,912.5566 830.3594,911.9473 Q831.4531,911.3223 832.6875,911.3223 Q833.4219,911.3223 834.0625,911.4941 Q834.7188,911.6504 835.2656,912.0098 Z " fill="#000000"/><text fill="#000000" font-family="sans-serif" font-size="14" lengthAdjust="spacing" textLength="50" x="846.5" y="921.9316">RoomID</text><rect fill="#FFFFFF" height="17.9609" style="stroke:#181818;stroke-width:1.0;stroke-dasharray:2.0,2.0;" width="19" x="904.5" y="897.1348"/><text fill="#000000" font-family="sans-serif" font-size="12" font-style="italic" lengthAdjust="spacing" textLength="17" x="905.5" y="911.084">VO</text><line style="stroke:#181818;stroke-width:0.5;" x1="818.5" x2="919.5" y1="932.1348" y2="932.1348"/><rect fill="none" height="6" style="stroke:#C82930;stroke-width:1.0;" width="6" x="825.5" y="943.9453"/><text fill="#000000" font-family="sans-serif" font-size="14" lengthAdjust="spacing" textLength="56" x="837.5" y="951.2422">id: String</text><line style="stroke:#181818;stroke-width:0.5;" x1="818.5" x2="919.5" y1="958.7559" y2="958.7559"/></g><!--reverse link Repository to HouseRepository--><g id="link_Repository_HouseRepository"><path d="M113.67,573.9548 C113.67,616.6048 113.67,670.8948 113.67,708.4148 " fill="none" id="Repository-backto-HouseRepository" style="stroke:#181818;stroke-width:1.0;"/><polygon fill="none" points="113.67,555.9548,107.67,573.9548,119.67,573.9548,113.67,555.9548" style="stroke:#181818;stroke-width:1.0;"/></g><!--link RoomService to HouseRepository--><g id="link_RoomService_HouseRepository"><path codeLine="76" d="M297.07,574.6348 C229.54,574.6348 170.33,574.6348 170.33,574.6348 C170.33,574.6348 170.33,663.9748 170.33,708.2948 " fill="none" id="RoomService-HouseRepository" style="stroke:#181818;stroke-width:1.0;"/></g><!--link HouseControllerWeb to RoomService--><g id="link_HouseControllerWeb_RoomService"><path codeLine="77" d="M512.25,391.7248 C512.25,412.5348 512.25,432.9948 512.25,451.3148 " fill="none" id="HouseControllerWeb-RoomService" style="stroke:#181818;stroke-width:1.0;"/></g><!--link RoomService to RoomRepository--><g id="link_RoomService_RoomRepository"><path codeLine="78" d="M452.5,592.8148 C452.5,628.6448 452.5,670.4948 452.5,699.0048 " fill="none" id="RoomService-RoomRepository" style="stroke:#181818;stroke-width:1.0;"/></g><!--link RoomService to Room--><g id="link_RoomService_Room"><path codeLine="79" d="M663.75,592.8148 C663.75,611.9248 663.75,626.7448 663.75,646.3448 " fill="none" id="RoomService-to-Room" style="stroke:#181818;stroke-width:1.0;stroke-dasharray:7.0,7.0;"/><polygon fill="#181818" points="663.75,652.3448,667.75,643.3448,663.75,647.3448,659.75,643.3448,663.75,652.3448" style="stroke:#181818;stroke-width:1.0;"/><text fill="#000000" font-family="sans-serif" font-size="13" lengthAdjust="spacing" textLength="42" x="620.75" y="618.6031">&#171;uses&#187;</text></g><!--link Room to RoomDimensions--><g id="link_Room_RoomDimensions"><path codeLine="80" d="M712.75,812.6548 C712.75,832.5748 712.75,841.6248 712.75,860.4748 " fill="none" id="Room-to-RoomDimensions" style="stroke:#181818;stroke-width:1.0;"/><polygon fill="#181818" points="712.75,872.4748,716.75,866.4748,712.75,860.4748,708.75,866.4748,712.75,872.4748" style="stroke:#181818;stroke-width:1.0;"/><text fill="#000000" font-family="sans-serif" font-size="13" lengthAdjust="spacing" textLength="7" x="699.2402" y="834.3145">1</text><text fill="#000000" font-family="sans-serif" font-size="13" lengthAdjust="spacing" textLength="7" x="706.7039" y="861.4375">1</text></g><!--link HouseControllerWeb to RoomMapperDTO--><g id="link_HouseControllerWeb_RoomMapperDTO"><path codeLine="81" d="M867.75,391.7248 C867.75,428.2348 867.75,457.6848 867.75,482.3748 " fill="none" id="HouseControllerWeb-to-RoomMapperDTO" style="stroke:#181818;stroke-width:1.0;stroke-dasharray:7.0,7.0;"/><polygon fill="#181818" points="867.75,488.3748,871.75,479.3748,867.75,483.3748,863.75,479.3748,867.75,488.3748" style="stroke:#181818;stroke-width:1.0;"/><text fill="#000000" font-family="sans-serif" font-size="13" lengthAdjust="spacing" textLength="42" x="824.75" y="436.0831">&#171;uses&#187;</text></g><!--link RoomMapperDTO to RoomDTO--><g id="link_RoomMapperDTO_RoomDTO"><path codeLine="82" d="M1032,555.9548 C1032,584.4248 1032,620.1048 1032,655.8348 " fill="none" id="RoomMapperDTO-to-RoomDTO" style="stroke:#181818;stroke-width:1.0;stroke-dasharray:7.0,7.0;"/><polygon fill="#181818" points="1032,661.8348,1036,652.8348,1032,656.8348,1028,652.8348,1032,661.8348" style="stroke:#181818;stroke-width:1.0;"/><text fill="#000000" font-family="sans-serif" font-size="13" lengthAdjust="spacing" textLength="57" x="974" y="604.9231">&#171;creates&#187;</text></g><!--link Room to RoomID--><g id="link_Room_RoomID"><path codeLine="83" d="M869,812.6548 C869,843.0848 869,864.1348 869,887.9948 " fill="none" id="Room-to-RoomID" style="stroke:#181818;stroke-width:1.0;"/><polygon fill="#181818" points="869,899.9948,873,893.9948,869,887.9948,865,893.9948,869,899.9948" style="stroke:#181818;stroke-width:1.0;"/><text fill="#000000" font-family="sans-serif" font-size="13" lengthAdjust="spacing" textLength="7" x="868.918" y="834.3145">1</text><text fill="#000000" font-family="sans-serif" font-size="13" lengthAdjust="spacing" textLength="7" x="861.3109" y="888.7927">1</text></g><!--SRC=[ZLLBRzim3BxxLn3T9LsR0iDs2h9WRRsrnjgbIBlsiejYCuasH_8akLimzB-FjFoGtSTsCSo7Ff8VISb9boDyFNtxxkWDN4ZhGAzWeVNMGgAip12qWNdf_EyApdLfCOhi3waAOSGMSgdGxGhsSniTHOL8VuWrWaLpZmPUNSZrnfqPiOC_KPJcmbgFSQgLCphFqTpX4gPfAyx84M2yOQTh0f4fJloHMcAheGnRuw8Js0OPyczhZaEH7N8gqoljoUvJgL8djHAvTBls33DndEUrLwAg-4yxC-9M_Bx1RH7BLKsLvww5ktpHtXHqAOe2JNmpzoMr8jjzJO57t5UmZqXTAPmslIo38ySlsXd1ehBFdxz-mSgdxqLUTZNV1X9RVw5m6pJ7LqdhSZTKHH4Sd7syWJKwxi1yLKrYJV_emnMvtmeZnJB7qPxCzlRXsXcfrb1DIn9RPmu_BF1dYTPTyNYE30dIO0RlOILoY_lV59nedQDG80pM-DoCVM8TRQ6LnO_AKMtJ-V8xfcu6t1igaJCwX7FdYcidN6cFvfyZchPXhemrDtMVVUAFauJbSpamrdJX8yuYU8WYgHoQbKYHyYkqbTJ17KmD_SzuKmvuTOHKrcTzialYKHA3p0YiZX8za5y7KoNr20lmjqELsI0ARInm1W1-SOD5WwdrF-6wTYSdmo3DZ8SkYvxC7fHUP_ha1IxnFpW-z-Gs91zId__DSHBFcWe3bdjfDUnKLA-aoavsTQXXI09E28E7im9le3lkscrXj0DJ9M1lT3rRezvfIWtoeEROFZaS0Ng8-qLiQR_yt95gbMjjlfJR9Pe9LqggNp9pcmbakgI89EUerZt51ldcxXJzO4IBrgwYPTm5z8cJgXUmQYOho939BTqYT7rOhuzREQg7A8dhuM6W0sfODTQZ_GwTnw5_jh66Q0DoMWjCR-U-dNmfzLbWrP08rWsv03-JvvMQWzU6X-Q9ywbMeUf8CclxyS1-KRXCu_6ZVNdYaIIlyAaR00osARGU7SryqoOmdHAidSqgE-ozsHkFNzDtoDuJqHkGu47eWNN3tNZMFgcXQ_wvcDJFlm00]--></g></svg>