<?xml version="1.0" encoding="us-ascii" standalone="no"?><svg xmlns="http://www.w3.org/2000/svg" xmlns:xlink="http://www.w3.org/1999/xlink" contentStyleType="text/css" height="942px" preserveAspectRatio="none" style="width:2169px;height:942px;background:#FFFFFF;" version="1.1" viewBox="0 0 2169 942" width="2169px" zoomAndPan="magnify"><defs/><g><text fill="#000000" font-family="sans-serif" font-size="14" font-weight="bold" lengthAdjust="spacing" textLength="486" x="832.5" y="25.1074">US36 - As a Power User or Administrator, I want to get the peak power</text><text fill="#000000" font-family="sans-serif" font-size="14" font-weight="bold" lengthAdjust="spacing" textLength="612" x="771.5" y="43.7285">consumption of the house, in a given period. The house has a device acting as the grid</text><text fill="#000000" font-family="sans-serif" font-size="14" font-weight="bold" lengthAdjust="spacing" textLength="647" x="756" y="62.3496">power meter and may have several devices metering power sources (e.g. solar panel array).</text><!--cluster server--><g id="cluster_server"><path d="M8.5,82.877 L56.5,82.877 A3.75,3.75 0 0 1 59,85.377 L66,107.498 L2159.5,107.498 A2.5,2.5 0 0 1 2162,109.998 L2162,933.377 A2.5,2.5 0 0 1 2159.5,935.877 L8.5,935.877 A2.5,2.5 0 0 1 6,933.377 L6,85.377 A2.5,2.5 0 0 1 8.5,82.877 " fill="#D3D3D3" style="stroke:#000000;stroke-width:1.5;"/><line style="stroke:#000000;stroke-width:1.5;" x1="6" x2="66" y1="107.498" y2="107.498"/><text fill="#000000" font-family="sans-serif" font-size="14" font-weight="bold" lengthAdjust="spacing" textLength="47" x="10" y="99.9844">server</text></g><!--class ValueRepository--><g id="elem_ValueRepository"><rect codeLine="5" fill="#F1F1F1" height="66.6211" id="ValueRepository" rx="2.5" ry="2.5" style="stroke:#181818;stroke-width:0.5;" width="698" x="1448" y="488.377"/><ellipse cx="1740.75" cy="504.377" fill="#B4A7E5" rx="11" ry="11" style="stroke:#181818;stroke-width:1.0;"/><path d="M1741.7031,501.0176 L1741.7031,507.6738 L1743.4219,507.6738 Q1744.0313,507.6738 1744.2969,507.9082 Q1744.5625,508.1426 1744.5625,508.5332 Q1744.5625,508.9082 1744.2969,509.1426 Q1744.0313,509.377 1743.4219,509.377 L1738.2813,509.377 Q1737.6719,509.377 1737.4063,509.1426 Q1737.1406,508.9082 1737.1406,508.5176 Q1737.1406,508.1426 1737.4063,507.9082 Q1737.6719,507.6738 1738.2813,507.6738 L1740,507.6738 L1740,501.0176 L1738.2813,501.0176 Q1737.6719,501.0176 1737.4063,500.7832 Q1737.1406,500.5488 1737.1406,500.1582 Q1737.1406,499.7832 1737.4063,499.5488 Q1737.6719,499.3145 1738.2813,499.3145 L1743.4219,499.3145 Q1744.0313,499.3145 1744.2969,499.5488 Q1744.5625,499.7832 1744.5625,500.1582 Q1744.5625,500.5488 1744.2969,500.7832 Q1744.0313,501.0176 1743.4219,501.0176 L1741.7031,501.0176 Z " fill="#000000"/><text fill="#000000" font-family="sans-serif" font-size="14" font-style="italic" lengthAdjust="spacing" textLength="104" x="1761.25" y="510.1738">ValueRepository</text><line style="stroke:#181818;stroke-width:0.5;" x1="1449" x2="2145" y1="520.377" y2="520.377"/><line style="stroke:#181818;stroke-width:0.5;" x1="1449" x2="2145" y1="528.377" y2="528.377"/><ellipse cx="1459" cy="543.1875" fill="#84BE84" rx="3" ry="3" style="stroke:#038048;stroke-width:1.0;"/><text fill="#000000" font-family="sans-serif" font-size="14" lengthAdjust="spacing" textLength="672" x="1468" y="547.4844">findBySensorIdBetweenPeriodOfTime(sensorID: SensorID, start: Timestamp, end: Timestamp): List&lt;Value&gt;</text></g><!--class InstantTimeValueRepository--><g id="elem_InstantTimeValueRepository"><rect codeLine="9" fill="#F1F1F1" height="48" id="InstantTimeValueRepository" rx="2.5" ry="2.5" style="stroke:#181818;stroke-width:0.5;" width="210" x="1310" y="708.377"/><ellipse cx="1325" cy="724.377" fill="#B4A7E5" rx="11" ry="11" style="stroke:#181818;stroke-width:1.0;"/><path d="M1325.9531,721.0176 L1325.9531,727.6738 L1327.6719,727.6738 Q1328.2813,727.6738 1328.5469,727.9082 Q1328.8125,728.1426 1328.8125,728.5332 Q1328.8125,728.9082 1328.5469,729.1426 Q1328.2813,729.377 1327.6719,729.377 L1322.5313,729.377 Q1321.9219,729.377 1321.6563,729.1426 Q1321.3906,728.9082 1321.3906,728.5176 Q1321.3906,728.1426 1321.6563,727.9082 Q1321.9219,727.6738 1322.5313,727.6738 L1324.25,727.6738 L1324.25,721.0176 L1322.5313,721.0176 Q1321.9219,721.0176 1321.6563,720.7832 Q1321.3906,720.5488 1321.3906,720.1582 Q1321.3906,719.7832 1321.6563,719.5488 Q1321.9219,719.3145 1322.5313,719.3145 L1327.6719,719.3145 Q1328.2813,719.3145 1328.5469,719.5488 Q1328.8125,719.7832 1328.8125,720.1582 Q1328.8125,720.5488 1328.5469,720.7832 Q1328.2813,721.0176 1327.6719,721.0176 L1325.9531,721.0176 Z " fill="#000000"/><text fill="#000000" font-family="sans-serif" font-size="14" font-style="italic" lengthAdjust="spacing" textLength="178" x="1339" y="730.1738">InstantTimeValueRepository</text><line style="stroke:#181818;stroke-width:0.5;" x1="1311" x2="1519" y1="740.377" y2="740.377"/><line style="stroke:#181818;stroke-width:0.5;" x1="1311" x2="1519" y1="748.377" y2="748.377"/></g><!--class PeriodTimeValueRepository--><g id="elem_PeriodTimeValueRepository"><rect codeLine="12" fill="#F1F1F1" height="48" id="PeriodTimeValueRepository" rx="2.5" ry="2.5" style="stroke:#181818;stroke-width:0.5;" width="208" x="1693" y="708.377"/><ellipse cx="1708" cy="724.377" fill="#B4A7E5" rx="11" ry="11" style="stroke:#181818;stroke-width:1.0;"/><path d="M1708.9531,721.0176 L1708.9531,727.6738 L1710.6719,727.6738 Q1711.2813,727.6738 1711.5469,727.9082 Q1711.8125,728.1426 1711.8125,728.5332 Q1711.8125,728.9082 1711.5469,729.1426 Q1711.2813,729.377 1710.6719,729.377 L1705.5313,729.377 Q1704.9219,729.377 1704.6563,729.1426 Q1704.3906,728.9082 1704.3906,728.5176 Q1704.3906,728.1426 1704.6563,727.9082 Q1704.9219,727.6738 1705.5313,727.6738 L1707.25,727.6738 L1707.25,721.0176 L1705.5313,721.0176 Q1704.9219,721.0176 1704.6563,720.7832 Q1704.3906,720.5488 1704.3906,720.1582 Q1704.3906,719.7832 1704.6563,719.5488 Q1704.9219,719.3145 1705.5313,719.3145 L1710.6719,719.3145 Q1711.2813,719.3145 1711.5469,719.5488 Q1711.8125,719.7832 1711.8125,720.1582 Q1711.8125,720.5488 1711.5469,720.7832 Q1711.2813,721.0176 1710.6719,721.0176 L1708.9531,721.0176 Z " fill="#000000"/><text fill="#000000" font-family="sans-serif" font-size="14" font-style="italic" lengthAdjust="spacing" textLength="176" x="1722" y="730.1738">PeriodTimeValueRepository</text><line style="stroke:#181818;stroke-width:0.5;" x1="1694" x2="1900" y1="740.377" y2="740.377"/><line style="stroke:#181818;stroke-width:0.5;" x1="1694" x2="1900" y1="748.377" y2="748.377"/></g><!--class InstantValueRepositoryMem--><g id="elem_InstantValueRepositoryMem"><rect codeLine="15" fill="#F1F1F1" height="85.2422" id="InstantValueRepositoryMem" rx="2.5" ry="2.5" style="stroke:#181818;stroke-width:0.5;" width="698" x="715" y="834.877"/><ellipse cx="971.75" cy="850.877" fill="#ADD1B2" rx="11" ry="11" style="stroke:#181818;stroke-width:1.0;"/><path d="M974.5156,846.752 Q974.6719,846.5332 974.8594,846.4238 Q975.0469,846.3145 975.2656,846.3145 Q975.6406,846.3145 975.875,846.5801 Q976.1094,846.8301 976.1094,847.4395 L976.1094,848.8926 Q976.1094,849.502 975.875,849.7676 Q975.6406,850.0332 975.2656,850.0332 Q974.9219,850.0332 974.7188,849.8301 Q974.5156,849.6426 974.4063,849.127 Q974.3594,848.7676 974.1719,848.5801 Q973.8438,848.2051 973.2344,847.9863 Q972.625,847.7676 972,847.7676 Q971.2344,847.7676 970.5938,848.0957 Q969.9688,848.4238 969.4688,849.1738 Q968.9844,849.9238 968.9844,850.9551 L968.9844,852.0488 Q968.9844,853.2832 969.875,854.1113 Q970.7656,854.9238 972.3594,854.9238 Q973.2969,854.9238 973.9531,854.6738 Q974.3438,854.5176 974.7656,854.0801 Q975.0313,853.8145 975.1719,853.7363 Q975.3281,853.6582 975.5313,853.6582 Q975.8594,853.6582 976.1094,853.9238 Q976.375,854.1738 976.375,854.5176 Q976.375,854.8613 976.0313,855.2676 Q975.5313,855.8457 974.7344,856.1738 Q973.6563,856.627 972.3594,856.627 Q970.8438,856.627 969.6406,856.002 Q968.6563,855.502 967.9688,854.4395 Q967.2813,853.3613 967.2813,852.0801 L967.2813,850.9238 Q967.2813,849.5957 967.8906,848.4551 Q968.5156,847.2988 969.6094,846.6895 Q970.7031,846.0645 971.9375,846.0645 Q972.6719,846.0645 973.3125,846.2363 Q973.9688,846.3926 974.5156,846.752 Z " fill="#000000"/><text fill="#000000" font-family="sans-serif" font-size="14" lengthAdjust="spacing" textLength="176" x="992.25" y="856.6738">InstantValueRepositoryMem</text><line style="stroke:#181818;stroke-width:0.5;" x1="716" x2="1412" y1="866.877" y2="866.877"/><rect fill="none" height="6" style="stroke:#C82930;stroke-width:1.0;" width="6" x="723" y="878.6875"/><text fill="#000000" font-family="sans-serif" font-size="14" lengthAdjust="spacing" textLength="201" x="735" y="885.9844">Map&lt;ValueID, Value&gt; valueMap</text><line style="stroke:#181818;stroke-width:0.5;" x1="716" x2="1412" y1="893.498" y2="893.498"/><ellipse cx="726" cy="908.3086" fill="#84BE84" rx="3" ry="3" style="stroke:#038048;stroke-width:1.0;"/><text fill="#000000" font-family="sans-serif" font-size="14" lengthAdjust="spacing" textLength="672" x="735" y="912.6055">findBySensorIdBetweenPeriodOfTime(sensorID: SensorID, start: Timestamp, end: Timestamp): List&lt;Value&gt;</text></g><!--class PeriodTimeValueRepositoryMem--><g id="elem_PeriodTimeValueRepositoryMem"><rect codeLine="20" fill="#F1F1F1" height="85.2422" id="PeriodTimeValueRepositoryMem" rx="2.5" ry="2.5" style="stroke:#181818;stroke-width:0.5;" width="698" x="1448" y="834.877"/><ellipse cx="1689.75" cy="850.877" fill="#ADD1B2" rx="11" ry="11" style="stroke:#181818;stroke-width:1.0;"/><path d="M1692.5156,846.752 Q1692.6719,846.5332 1692.8594,846.4238 Q1693.0469,846.3145 1693.2656,846.3145 Q1693.6406,846.3145 1693.875,846.5801 Q1694.1094,846.8301 1694.1094,847.4395 L1694.1094,848.8926 Q1694.1094,849.502 1693.875,849.7676 Q1693.6406,850.0332 1693.2656,850.0332 Q1692.9219,850.0332 1692.7188,849.8301 Q1692.5156,849.6426 1692.4063,849.127 Q1692.3594,848.7676 1692.1719,848.5801 Q1691.8438,848.2051 1691.2344,847.9863 Q1690.625,847.7676 1690,847.7676 Q1689.2344,847.7676 1688.5938,848.0957 Q1687.9688,848.4238 1687.4688,849.1738 Q1686.9844,849.9238 1686.9844,850.9551 L1686.9844,852.0488 Q1686.9844,853.2832 1687.875,854.1113 Q1688.7656,854.9238 1690.3594,854.9238 Q1691.2969,854.9238 1691.9531,854.6738 Q1692.3438,854.5176 1692.7656,854.0801 Q1693.0313,853.8145 1693.1719,853.7363 Q1693.3281,853.6582 1693.5313,853.6582 Q1693.8594,853.6582 1694.1094,853.9238 Q1694.375,854.1738 1694.375,854.5176 Q1694.375,854.8613 1694.0313,855.2676 Q1693.5313,855.8457 1692.7344,856.1738 Q1691.6563,856.627 1690.3594,856.627 Q1688.8438,856.627 1687.6406,856.002 Q1686.6563,855.502 1685.9688,854.4395 Q1685.2813,853.3613 1685.2813,852.0801 L1685.2813,850.9238 Q1685.2813,849.5957 1685.8906,848.4551 Q1686.5156,847.2988 1687.6094,846.6895 Q1688.7031,846.0645 1689.9375,846.0645 Q1690.6719,846.0645 1691.3125,846.2363 Q1691.9688,846.3926 1692.5156,846.752 Z " fill="#000000"/><text fill="#000000" font-family="sans-serif" font-size="14" lengthAdjust="spacing" textLength="206" x="1710.25" y="856.6738">PeriodTimeValueRepositoryMem</text><line style="stroke:#181818;stroke-width:0.5;" x1="1449" x2="2145" y1="866.877" y2="866.877"/><rect fill="none" height="6" style="stroke:#C82930;stroke-width:1.0;" width="6" x="1456" y="878.6875"/><text fill="#000000" font-family="sans-serif" font-size="14" lengthAdjust="spacing" textLength="201" x="1468" y="885.9844">Map&lt;ValueID, Value&gt; valueMap</text><line style="stroke:#181818;stroke-width:0.5;" x1="1449" x2="2145" y1="893.498" y2="893.498"/><ellipse cx="1459" cy="908.3086" fill="#84BE84" rx="3" ry="3" style="stroke:#038048;stroke-width:1.0;"/><text fill="#000000" font-family="sans-serif" font-size="14" lengthAdjust="spacing" textLength="672" x="1468" y="912.6055">findBySensorIdBetweenPeriodOfTime(sensorID: SensorID, start: Timestamp, end: Timestamp): List&lt;Value&gt;</text></g><!--class HouseControllerWeb--><g id="elem_HouseControllerWeb"><rect codeLine="25" fill="#F1F1F1" height="234.2109" id="HouseControllerWeb" rx="2.5" ry="2.5" style="stroke:#181818;stroke-width:0.5;" width="542" x="618" y="119.877"/><ellipse cx="819.25" cy="135.877" fill="#ADD1B2" rx="11" ry="11" style="stroke:#181818;stroke-width:1.0;"/><path d="M822.0156,131.752 Q822.1719,131.5332 822.3594,131.4238 Q822.5469,131.3145 822.7656,131.3145 Q823.1406,131.3145 823.375,131.5801 Q823.6094,131.8301 823.6094,132.4395 L823.6094,133.8926 Q823.6094,134.502 823.375,134.7676 Q823.1406,135.0332 822.7656,135.0332 Q822.4219,135.0332 822.2188,134.8301 Q822.0156,134.6426 821.9063,134.127 Q821.8594,133.7676 821.6719,133.5801 Q821.3438,133.2051 820.7344,132.9863 Q820.125,132.7676 819.5,132.7676 Q818.7344,132.7676 818.0938,133.0957 Q817.4688,133.4238 816.9688,134.1738 Q816.4844,134.9238 816.4844,135.9551 L816.4844,137.0488 Q816.4844,138.2832 817.375,139.1113 Q818.2656,139.9238 819.8594,139.9238 Q820.7969,139.9238 821.4531,139.6738 Q821.8438,139.5176 822.2656,139.0801 Q822.5313,138.8145 822.6719,138.7363 Q822.8281,138.6582 823.0313,138.6582 Q823.3594,138.6582 823.6094,138.9238 Q823.875,139.1738 823.875,139.5176 Q823.875,139.8613 823.5313,140.2676 Q823.0313,140.8457 822.2344,141.1738 Q821.1563,141.627 819.8594,141.627 Q818.3438,141.627 817.1406,141.002 Q816.1563,140.502 815.4688,139.4395 Q814.7813,138.3613 814.7813,137.0801 L814.7813,135.9238 Q814.7813,134.5957 815.3906,133.4551 Q816.0156,132.2988 817.1094,131.6895 Q818.2031,131.0645 819.4375,131.0645 Q820.1719,131.0645 820.8125,131.2363 Q821.4688,131.3926 822.0156,131.752 Z " fill="#000000"/><text fill="#000000" font-family="sans-serif" font-size="14" lengthAdjust="spacing" textLength="131" x="839.75" y="141.6738">HouseControllerWeb</text><line style="stroke:#181818;stroke-width:0.5;" x1="619" x2="1159" y1="151.877" y2="151.877"/><rect fill="none" height="6" style="stroke:#C82930;stroke-width:1.0;" width="6" x="626" y="163.6875"/><text fill="#000000" font-family="sans-serif" font-size="14" lengthAdjust="spacing" textLength="181" x="638" y="170.9844">houseService: HouseService</text><rect fill="none" height="6" style="stroke:#C82930;stroke-width:1.0;" width="6" x="626" y="182.3086"/><text fill="#000000" font-family="sans-serif" font-size="14" lengthAdjust="spacing" textLength="113" x="638" y="189.6055">houseID: HouseID</text><rect fill="none" height="6" style="stroke:#C82930;stroke-width:1.0;" width="6" x="626" y="200.9297"/><text fill="#000000" font-family="sans-serif" font-size="14" lengthAdjust="spacing" textLength="171" x="638" y="208.2266">roomService: RoomService</text><rect fill="none" height="6" style="stroke:#C82930;stroke-width:1.0;" width="6" x="626" y="219.5508"/><text fill="#000000" font-family="sans-serif" font-size="14" lengthAdjust="spacing" textLength="499" x="638" y="226.8477">listDevicesByFunctionalityService: ListAllDevicesInHouseByFunctionalityService</text><rect fill="none" height="6" style="stroke:#C82930;stroke-width:1.0;" width="6" x="626" y="238.1719"/><text fill="#000000" font-family="sans-serif" font-size="14" lengthAdjust="spacing" textLength="233" x="638" y="245.4688">roomMapperDTO: RoomMapperDTO</text><rect fill="none" height="6" style="stroke:#C82930;stroke-width:1.0;" width="6" x="626" y="256.793"/><text fill="#000000" font-family="sans-serif" font-size="14" lengthAdjust="spacing" textLength="248" x="638" y="264.0898">deviceMapperDTO: DeviceMapperDTO</text><rect fill="none" height="6" style="stroke:#C82930;stroke-width:1.0;" width="6" x="626" y="275.4141"/><text fill="#000000" font-family="sans-serif" font-size="14" lengthAdjust="spacing" textLength="429" x="638" y="282.7109">actuatorFunctionalityMapperDTO: ActuatorFunctionalityMapperDTO</text><rect fill="none" height="6" style="stroke:#C82930;stroke-width:1.0;" width="6" x="626" y="294.0352"/><text fill="#000000" font-family="sans-serif" font-size="14" lengthAdjust="spacing" textLength="412" x="638" y="301.332">sensorFunctionalityMapperDTO: SensorFunctionalityMapperDTO</text><rect fill="none" height="6" style="stroke:#C82930;stroke-width:1.0;" width="6" x="626" y="312.6563"/><text fill="#000000" font-family="sans-serif" font-size="14" lengthAdjust="spacing" textLength="172" x="638" y="319.9531">valueService: ValueService</text><line style="stroke:#181818;stroke-width:0.5;" x1="619" x2="1159" y1="327.4668" y2="327.4668"/><ellipse cx="629" cy="342.2773" fill="#84BE84" rx="3" ry="3" style="stroke:#038048;stroke-width:1.0;"/><text fill="#000000" font-family="sans-serif" font-size="14" lengthAdjust="spacing" textLength="516" x="638" y="346.5742">GET getPeakPower(start: Timestamp, end: Timestamp): ResponseEntity&lt;Double&gt;</text></g><!--class ValueService--><g id="elem_ValueService"><rect codeLine="38" fill="#F1F1F1" height="215.5898" id="ValueService" rx="2.5" ry="2.5" style="stroke:#181818;stroke-width:0.5;" width="1048" x="365" y="413.877"/><ellipse cx="843.25" cy="429.877" fill="#ADD1B2" rx="11" ry="11" style="stroke:#181818;stroke-width:1.0;"/><path d="M846.0156,425.752 Q846.1719,425.5332 846.3594,425.4238 Q846.5469,425.3145 846.7656,425.3145 Q847.1406,425.3145 847.375,425.5801 Q847.6094,425.8301 847.6094,426.4395 L847.6094,427.8926 Q847.6094,428.502 847.375,428.7676 Q847.1406,429.0332 846.7656,429.0332 Q846.4219,429.0332 846.2188,428.8301 Q846.0156,428.6426 845.9063,428.127 Q845.8594,427.7676 845.6719,427.5801 Q845.3438,427.2051 844.7344,426.9863 Q844.125,426.7676 843.5,426.7676 Q842.7344,426.7676 842.0938,427.0957 Q841.4688,427.4238 840.9688,428.1738 Q840.4844,428.9238 840.4844,429.9551 L840.4844,431.0488 Q840.4844,432.2832 841.375,433.1113 Q842.2656,433.9238 843.8594,433.9238 Q844.7969,433.9238 845.4531,433.6738 Q845.8438,433.5176 846.2656,433.0801 Q846.5313,432.8145 846.6719,432.7363 Q846.8281,432.6582 847.0313,432.6582 Q847.3594,432.6582 847.6094,432.9238 Q847.875,433.1738 847.875,433.5176 Q847.875,433.8613 847.5313,434.2676 Q847.0313,434.8457 846.2344,435.1738 Q845.1563,435.627 843.8594,435.627 Q842.3438,435.627 841.1406,435.002 Q840.1563,434.502 839.4688,433.4395 Q838.7813,432.3613 838.7813,431.0801 L838.7813,429.9238 Q838.7813,428.5957 839.3906,427.4551 Q840.0156,426.2988 841.1094,425.6895 Q842.2031,425.0645 843.4375,425.0645 Q844.1719,425.0645 844.8125,425.2363 Q845.4688,425.3926 846.0156,425.752 Z " fill="#000000"/><text fill="#000000" font-family="sans-serif" font-size="14" lengthAdjust="spacing" textLength="83" x="863.75" y="435.6738">ValueService</text><line style="stroke:#181818;stroke-width:0.5;" x1="366" x2="1412" y1="445.877" y2="445.877"/><text fill="#000000" font-family="sans-serif" font-size="14" lengthAdjust="spacing" textLength="232" x="385" y="464.9844">SensorRepository sensorRepository,</text><rect fill="none" height="6" style="stroke:#C82930;stroke-width:1.0;" width="6" x="373" y="476.3086"/><text fill="#000000" font-family="sans-serif" font-size="14" lengthAdjust="spacing" textLength="396" x="385" y="483.6055">sensorFunctionalityRepository : SensorFunctionalityRepository</text><rect fill="none" height="6" style="stroke:#C82930;stroke-width:1.0;" width="6" x="373" y="494.9297"/><text fill="#000000" font-family="sans-serif" font-size="14" lengthAdjust="spacing" textLength="366" x="385" y="502.2266">instantTimeValueRepository : InstantTimeValueRepository</text><rect fill="none" height="6" style="stroke:#C82930;stroke-width:1.0;" width="6" x="373" y="513.5508"/><text fill="#000000" font-family="sans-serif" font-size="14" lengthAdjust="spacing" textLength="363" x="385" y="520.8477">periodTimeValueRepository : PeriodTimeValueRepository</text><rect fill="none" height="6" style="stroke:#C82930;stroke-width:1.0;" width="6" x="373" y="532.1719"/><text fill="#000000" font-family="sans-serif" font-size="14" lengthAdjust="spacing" textLength="478" x="385" y="539.4688">instantTimeLocationValueRepository :  InstantTimeLocationValueRepository</text><rect fill="none" height="6" style="stroke:#C82930;stroke-width:1.0;" width="6" x="373" y="550.793"/><text fill="#000000" font-family="sans-serif" font-size="14" lengthAdjust="spacing" textLength="191" x="385" y="558.0898">configScraper : ConfigScraper</text><rect fill="none" height="6" style="stroke:#C82930;stroke-width:1.0;" width="6" x="373" y="569.4141"/><text fill="#000000" font-family="sans-serif" font-size="14" lengthAdjust="spacing" textLength="198" x="385" y="576.7109">CONFIG_PROPERTIES : String</text><line style="stroke:#181818;stroke-width:0.5;" x1="366" x2="1412" y1="584.2246" y2="584.2246"/><ellipse cx="376" cy="599.0352" fill="#84BE84" rx="3" ry="3" style="stroke:#038048;stroke-width:1.0;"/><text fill="#000000" font-family="sans-serif" font-size="14" lengthAdjust="spacing" textLength="757" x="385" y="603.332">getPeakPowerConsumption(startPeriod: Timestamp, endPeriod: Timestamp): ResponseEntity&lt;&gt;(double, HttpStatus.OK);</text><rect fill="#F24D5C" height="6" style="stroke:#C82930;stroke-width:1.0;" width="6" x="373" y="614.6563"/><text fill="#000000" font-family="sans-serif" font-size="14" lengthAdjust="spacing" textLength="1022" x="385" y="621.9531">calculatePeakPowerConsumption(listOfPowerGridValues: List&lt;Value&gt;, mapOfPowerSourcesValues: Map&lt;DeviceID, Map&lt;Timestamp, InstantTimeValue&gt;&gt;): double</text></g><!--class SensorRepository--><g id="elem_SensorRepository"><rect codeLine="50" fill="#F1F1F1" height="85.2422" id="SensorRepository" rx="2.5" ry="2.5" style="stroke:#181818;stroke-width:0.5;" width="573" x="443.5" y="689.877"/><ellipse cx="669.25" cy="705.877" fill="#ADD1B2" rx="11" ry="11" style="stroke:#181818;stroke-width:1.0;"/><path d="M672.0156,701.752 Q672.1719,701.5332 672.3594,701.4238 Q672.5469,701.3145 672.7656,701.3145 Q673.1406,701.3145 673.375,701.5801 Q673.6094,701.8301 673.6094,702.4395 L673.6094,703.8926 Q673.6094,704.502 673.375,704.7676 Q673.1406,705.0332 672.7656,705.0332 Q672.4219,705.0332 672.2188,704.8301 Q672.0156,704.6426 671.9063,704.127 Q671.8594,703.7676 671.6719,703.5801 Q671.3438,703.2051 670.7344,702.9863 Q670.125,702.7676 669.5,702.7676 Q668.7344,702.7676 668.0938,703.0957 Q667.4688,703.4238 666.9688,704.1738 Q666.4844,704.9238 666.4844,705.9551 L666.4844,707.0488 Q666.4844,708.2832 667.375,709.1113 Q668.2656,709.9238 669.8594,709.9238 Q670.7969,709.9238 671.4531,709.6738 Q671.8438,709.5176 672.2656,709.0801 Q672.5313,708.8145 672.6719,708.7363 Q672.8281,708.6582 673.0313,708.6582 Q673.3594,708.6582 673.6094,708.9238 Q673.875,709.1738 673.875,709.5176 Q673.875,709.8613 673.5313,710.2676 Q673.0313,710.8457 672.2344,711.1738 Q671.1563,711.627 669.8594,711.627 Q668.3438,711.627 667.1406,711.002 Q666.1563,710.502 665.4688,709.4395 Q664.7813,708.3613 664.7813,707.0801 L664.7813,705.9238 Q664.7813,704.5957 665.3906,703.4551 Q666.0156,702.2988 667.1094,701.6895 Q668.2031,701.0645 669.4375,701.0645 Q670.1719,701.0645 670.8125,701.2363 Q671.4688,701.3926 672.0156,701.752 Z " fill="#000000"/><text fill="#000000" font-family="sans-serif" font-size="14" lengthAdjust="spacing" textLength="113" x="689.75" y="711.6738">SensorRepository</text><line style="stroke:#181818;stroke-width:0.5;" x1="444.5" x2="1015.5" y1="721.877" y2="721.877"/><line style="stroke:#181818;stroke-width:0.5;" x1="444.5" x2="1015.5" y1="729.877" y2="729.877"/><ellipse cx="454.5" cy="744.6875" fill="#84BE84" rx="3" ry="3" style="stroke:#038048;stroke-width:1.0;"/><text fill="#000000" font-family="sans-serif" font-size="14" lengthAdjust="spacing" textLength="314" x="463.5" y="748.9844">findByDeviceID(deviceID: DeviceID): List&lt;Sensor&gt;</text><ellipse cx="454.5" cy="763.3086" fill="#84BE84" rx="3" ry="3" style="stroke:#038048;stroke-width:1.0;"/><text fill="#000000" font-family="sans-serif" font-size="14" lengthAdjust="spacing" textLength="547" x="463.5" y="767.6055">findBySensorFunctionality(sensorFunctionalityID: SensorFunctionalityID): List&lt;Sensor&gt;</text></g><!--class ValueID--><g id="elem_ValueID"><rect codeLine="55" fill="#F1F1F1" height="141.1055" id="ValueID" rx="2.5" ry="2.5" style="stroke:#181818;stroke-width:0.5;" width="170" x="91" y="166.377"/><ellipse cx="147.25" cy="182.377" fill="#ADD1B2" rx="11" ry="11" style="stroke:#181818;stroke-width:1.0;"/><path d="M150.0156,178.252 Q150.1719,178.0332 150.3594,177.9238 Q150.5469,177.8145 150.7656,177.8145 Q151.1406,177.8145 151.375,178.0801 Q151.6094,178.3301 151.6094,178.9395 L151.6094,180.3926 Q151.6094,181.002 151.375,181.2676 Q151.1406,181.5332 150.7656,181.5332 Q150.4219,181.5332 150.2188,181.3301 Q150.0156,181.1426 149.9063,180.627 Q149.8594,180.2676 149.6719,180.0801 Q149.3438,179.7051 148.7344,179.4863 Q148.125,179.2676 147.5,179.2676 Q146.7344,179.2676 146.0938,179.5957 Q145.4688,179.9238 144.9688,180.6738 Q144.4844,181.4238 144.4844,182.4551 L144.4844,183.5488 Q144.4844,184.7832 145.375,185.6113 Q146.2656,186.4238 147.8594,186.4238 Q148.7969,186.4238 149.4531,186.1738 Q149.8438,186.0176 150.2656,185.5801 Q150.5313,185.3145 150.6719,185.2363 Q150.8281,185.1582 151.0313,185.1582 Q151.3594,185.1582 151.6094,185.4238 Q151.875,185.6738 151.875,186.0176 Q151.875,186.3613 151.5313,186.7676 Q151.0313,187.3457 150.2344,187.6738 Q149.1563,188.127 147.8594,188.127 Q146.3438,188.127 145.1406,187.502 Q144.1563,187.002 143.4688,185.9395 Q142.7813,184.8613 142.7813,183.5801 L142.7813,182.4238 Q142.7813,181.0957 143.3906,179.9551 Q144.0156,178.7988 145.1094,178.1895 Q146.2031,177.5645 147.4375,177.5645 Q148.1719,177.5645 148.8125,177.7363 Q149.4688,177.8926 150.0156,178.252 Z " fill="#000000"/><text fill="#000000" font-family="sans-serif" font-size="14" lengthAdjust="spacing" textLength="49" x="167.75" y="188.1738">ValueID</text><line style="stroke:#181818;stroke-width:0.5;" x1="92" x2="260" y1="198.377" y2="198.377"/><rect fill="none" height="6" style="stroke:#C82930;stroke-width:1.0;" width="6" x="99" y="210.1875"/><text fill="#000000" font-family="sans-serif" font-size="14" lengthAdjust="spacing" textLength="68" x="111" y="217.4844">id: ValueID</text><rect fill="none" height="6" style="stroke:#C82930;stroke-width:1.0;" width="6" x="99" y="228.8086"/><text fill="#000000" font-family="sans-serif" font-size="14" lengthAdjust="spacing" textLength="122" x="111" y="236.1055">sensorID: SensorID</text><rect fill="none" height="6" style="stroke:#C82930;stroke-width:1.0;" width="6" x="99" y="247.4297"/><text fill="#000000" font-family="sans-serif" font-size="14" lengthAdjust="spacing" textLength="141" x="111" y="254.7266">timestamp: Timestamp</text><rect fill="none" height="6" style="stroke:#C82930;stroke-width:1.0;" width="6" x="99" y="266.0508"/><text fill="#000000" font-family="sans-serif" font-size="14" lengthAdjust="spacing" textLength="85" x="111" y="273.3477">value: double</text><line style="stroke:#181818;stroke-width:0.5;" x1="92" x2="260" y1="280.8613" y2="280.8613"/><ellipse cx="102" cy="295.6719" fill="#84BE84" rx="3" ry="3" style="stroke:#038048;stroke-width:1.0;"/><text fill="#000000" font-family="sans-serif" font-size="14" lengthAdjust="spacing" textLength="144" x="111" y="299.9688">getReading(): Reading</text></g><!--class Sensor--><g id="elem_Sensor"><rect codeLine="63" fill="#F1F1F1" height="103.8633" id="Sensor" rx="2.5" ry="2.5" style="stroke:#181818;stroke-width:0.5;" width="308" x="22" y="469.877"/><ellipse cx="149.25" cy="485.877" fill="#ADD1B2" rx="11" ry="11" style="stroke:#181818;stroke-width:1.0;"/><path d="M152.0156,481.752 Q152.1719,481.5332 152.3594,481.4238 Q152.5469,481.3145 152.7656,481.3145 Q153.1406,481.3145 153.375,481.5801 Q153.6094,481.8301 153.6094,482.4395 L153.6094,483.8926 Q153.6094,484.502 153.375,484.7676 Q153.1406,485.0332 152.7656,485.0332 Q152.4219,485.0332 152.2188,484.8301 Q152.0156,484.6426 151.9063,484.127 Q151.8594,483.7676 151.6719,483.5801 Q151.3438,483.2051 150.7344,482.9863 Q150.125,482.7676 149.5,482.7676 Q148.7344,482.7676 148.0938,483.0957 Q147.4688,483.4238 146.9688,484.1738 Q146.4844,484.9238 146.4844,485.9551 L146.4844,487.0488 Q146.4844,488.2832 147.375,489.1113 Q148.2656,489.9238 149.8594,489.9238 Q150.7969,489.9238 151.4531,489.6738 Q151.8438,489.5176 152.2656,489.0801 Q152.5313,488.8145 152.6719,488.7363 Q152.8281,488.6582 153.0313,488.6582 Q153.3594,488.6582 153.6094,488.9238 Q153.875,489.1738 153.875,489.5176 Q153.875,489.8613 153.5313,490.2676 Q153.0313,490.8457 152.2344,491.1738 Q151.1563,491.627 149.8594,491.627 Q148.3438,491.627 147.1406,491.002 Q146.1563,490.502 145.4688,489.4395 Q144.7813,488.3613 144.7813,487.0801 L144.7813,485.9238 Q144.7813,484.5957 145.3906,483.4551 Q146.0156,482.2988 147.1094,481.6895 Q148.2031,481.0645 149.4375,481.0645 Q150.1719,481.0645 150.8125,481.2363 Q151.4688,481.3926 152.0156,481.752 Z " fill="#000000"/><text fill="#000000" font-family="sans-serif" font-size="14" lengthAdjust="spacing" textLength="45" x="169.75" y="491.6738">Sensor</text><line style="stroke:#181818;stroke-width:0.5;" x1="23" x2="329" y1="501.877" y2="501.877"/><rect fill="none" height="6" style="stroke:#C82930;stroke-width:1.0;" width="6" x="30" y="513.6875"/><text fill="#000000" font-family="sans-serif" font-size="14" lengthAdjust="spacing" textLength="77" x="42" y="520.9844">id: SensorID</text><rect fill="none" height="6" style="stroke:#C82930;stroke-width:1.0;" width="6" x="30" y="532.3086"/><text fill="#000000" font-family="sans-serif" font-size="14" lengthAdjust="spacing" textLength="118" x="42" y="539.6055">deviceID: DeviceID</text><rect fill="none" height="6" style="stroke:#C82930;stroke-width:1.0;" width="6" x="30" y="550.9297"/><text fill="#000000" font-family="sans-serif" font-size="14" lengthAdjust="spacing" textLength="282" x="42" y="558.2266">sensorFunctionalityID: SensorFunctionalityID</text><line style="stroke:#181818;stroke-width:0.5;" x1="23" x2="329" y1="565.7402" y2="565.7402"/></g><!--class ConfigScraper--><g id="elem_ConfigScraper"><rect codeLine="69" fill="#F1F1F1" height="66.6211" id="ConfigScraper" rx="2.5" ry="2.5" style="stroke:#181818;stroke-width:0.5;" width="223" x="1051.5" y="698.877"/><ellipse cx="1113.25" cy="714.877" fill="#ADD1B2" rx="11" ry="11" style="stroke:#181818;stroke-width:1.0;"/><path d="M1116.0156,710.752 Q1116.1719,710.5332 1116.3594,710.4238 Q1116.5469,710.3145 1116.7656,710.3145 Q1117.1406,710.3145 1117.375,710.5801 Q1117.6094,710.8301 1117.6094,711.4395 L1117.6094,712.8926 Q1117.6094,713.502 1117.375,713.7676 Q1117.1406,714.0332 1116.7656,714.0332 Q1116.4219,714.0332 1116.2188,713.8301 Q1116.0156,713.6426 1115.9063,713.127 Q1115.8594,712.7676 1115.6719,712.5801 Q1115.3438,712.2051 1114.7344,711.9863 Q1114.125,711.7676 1113.5,711.7676 Q1112.7344,711.7676 1112.0938,712.0957 Q1111.4688,712.4238 1110.9688,713.1738 Q1110.4844,713.9238 1110.4844,714.9551 L1110.4844,716.0488 Q1110.4844,717.2832 1111.375,718.1113 Q1112.2656,718.9238 1113.8594,718.9238 Q1114.7969,718.9238 1115.4531,718.6738 Q1115.8438,718.5176 1116.2656,718.0801 Q1116.5313,717.8145 1116.6719,717.7363 Q1116.8281,717.6582 1117.0313,717.6582 Q1117.3594,717.6582 1117.6094,717.9238 Q1117.875,718.1738 1117.875,718.5176 Q1117.875,718.8613 1117.5313,719.2676 Q1117.0313,719.8457 1116.2344,720.1738 Q1115.1563,720.627 1113.8594,720.627 Q1112.3438,720.627 1111.1406,720.002 Q1110.1563,719.502 1109.4688,718.4395 Q1108.7813,717.3613 1108.7813,716.0801 L1108.7813,714.9238 Q1108.7813,713.5957 1109.3906,712.4551 Q1110.0156,711.2988 1111.1094,710.6895 Q1112.2031,710.0645 1113.4375,710.0645 Q1114.1719,710.0645 1114.8125,710.2363 Q1115.4688,710.3926 1116.0156,710.752 Z " fill="#000000"/><text fill="#000000" font-family="sans-serif" font-size="14" lengthAdjust="spacing" textLength="91" x="1133.75" y="720.6738">ConfigScraper</text><line style="stroke:#181818;stroke-width:0.5;" x1="1052.5" x2="1273.5" y1="730.877" y2="730.877"/><line style="stroke:#181818;stroke-width:0.5;" x1="1052.5" x2="1273.5" y1="738.877" y2="738.877"/><ellipse cx="1062.5" cy="753.6875" fill="#84BE84" rx="3" ry="3" style="stroke:#038048;stroke-width:1.0;"/><text fill="#000000" font-family="sans-serif" font-size="14" lengthAdjust="spacing" textLength="197" x="1071.5" y="757.9844">loadGridPowerMeterID(): String</text></g><!--class SensorFunctionalityID--><g id="elem_SensorFunctionalityID"><rect codeLine="73" fill="#F1F1F1" height="85.2422" id="SensorFunctionalityID" rx="2.5" ry="2.5" style="stroke:#181818;stroke-width:0.5;" width="170" x="91" y="689.877"/><ellipse cx="106" cy="705.877" fill="#ADD1B2" rx="11" ry="11" style="stroke:#181818;stroke-width:1.0;"/><path d="M108.7656,701.752 Q108.9219,701.5332 109.1094,701.4238 Q109.2969,701.3145 109.5156,701.3145 Q109.8906,701.3145 110.125,701.5801 Q110.3594,701.8301 110.3594,702.4395 L110.3594,703.8926 Q110.3594,704.502 110.125,704.7676 Q109.8906,705.0332 109.5156,705.0332 Q109.1719,705.0332 108.9688,704.8301 Q108.7656,704.6426 108.6563,704.127 Q108.6094,703.7676 108.4219,703.5801 Q108.0938,703.2051 107.4844,702.9863 Q106.875,702.7676 106.25,702.7676 Q105.4844,702.7676 104.8438,703.0957 Q104.2188,703.4238 103.7188,704.1738 Q103.2344,704.9238 103.2344,705.9551 L103.2344,707.0488 Q103.2344,708.2832 104.125,709.1113 Q105.0156,709.9238 106.6094,709.9238 Q107.5469,709.9238 108.2031,709.6738 Q108.5938,709.5176 109.0156,709.0801 Q109.2813,708.8145 109.4219,708.7363 Q109.5781,708.6582 109.7813,708.6582 Q110.1094,708.6582 110.3594,708.9238 Q110.625,709.1738 110.625,709.5176 Q110.625,709.8613 110.2813,710.2676 Q109.7813,710.8457 108.9844,711.1738 Q107.9063,711.627 106.6094,711.627 Q105.0938,711.627 103.8906,711.002 Q102.9063,710.502 102.2188,709.4395 Q101.5313,708.3613 101.5313,707.0801 L101.5313,705.9238 Q101.5313,704.5957 102.1406,703.4551 Q102.7656,702.2988 103.8594,701.6895 Q104.9531,701.0645 106.1875,701.0645 Q106.9219,701.0645 107.5625,701.2363 Q108.2188,701.3926 108.7656,701.752 Z " fill="#000000"/><text fill="#000000" font-family="sans-serif" font-size="14" lengthAdjust="spacing" textLength="138" x="120" y="711.6738">SensorFunctionalityID</text><line style="stroke:#181818;stroke-width:0.5;" x1="92" x2="260" y1="721.877" y2="721.877"/><rect fill="none" height="6" style="stroke:#C82930;stroke-width:1.0;" width="6" x="99" y="733.6875"/><text fill="#000000" font-family="sans-serif" font-size="14" lengthAdjust="spacing" textLength="56" x="111" y="740.9844">id: String</text><line style="stroke:#181818;stroke-width:0.5;" x1="92" x2="260" y1="748.498" y2="748.498"/><ellipse cx="102" cy="763.3086" fill="#84BE84" rx="3" ry="3" style="stroke:#038048;stroke-width:1.0;"/><text fill="#000000" font-family="sans-serif" font-size="14" lengthAdjust="spacing" textLength="86" x="111" y="767.6055">getId(): String</text></g><!--class DeviceID--><g id="elem_DeviceID"><rect codeLine="78" fill="#F1F1F1" height="85.2422" id="DeviceID" rx="2.5" ry="2.5" style="stroke:#181818;stroke-width:0.5;" width="112" x="296" y="689.877"/><ellipse cx="321.8" cy="705.877" fill="#ADD1B2" rx="11" ry="11" style="stroke:#181818;stroke-width:1.0;"/><path d="M324.5656,701.752 Q324.7219,701.5332 324.9094,701.4238 Q325.0969,701.3145 325.3156,701.3145 Q325.6906,701.3145 325.925,701.5801 Q326.1594,701.8301 326.1594,702.4395 L326.1594,703.8926 Q326.1594,704.502 325.925,704.7676 Q325.6906,705.0332 325.3156,705.0332 Q324.9719,705.0332 324.7688,704.8301 Q324.5656,704.6426 324.4563,704.127 Q324.4094,703.7676 324.2219,703.5801 Q323.8938,703.2051 323.2844,702.9863 Q322.675,702.7676 322.05,702.7676 Q321.2844,702.7676 320.6438,703.0957 Q320.0188,703.4238 319.5188,704.1738 Q319.0344,704.9238 319.0344,705.9551 L319.0344,707.0488 Q319.0344,708.2832 319.925,709.1113 Q320.8156,709.9238 322.4094,709.9238 Q323.3469,709.9238 324.0031,709.6738 Q324.3938,709.5176 324.8156,709.0801 Q325.0813,708.8145 325.2219,708.7363 Q325.3781,708.6582 325.5813,708.6582 Q325.9094,708.6582 326.1594,708.9238 Q326.425,709.1738 326.425,709.5176 Q326.425,709.8613 326.0813,710.2676 Q325.5813,710.8457 324.7844,711.1738 Q323.7063,711.627 322.4094,711.627 Q320.8938,711.627 319.6906,711.002 Q318.7063,710.502 318.0188,709.4395 Q317.3313,708.3613 317.3313,707.0801 L317.3313,705.9238 Q317.3313,704.5957 317.9406,703.4551 Q318.5656,702.2988 319.6594,701.6895 Q320.7531,701.0645 321.9875,701.0645 Q322.7219,701.0645 323.3625,701.2363 Q324.0188,701.3926 324.5656,701.752 Z " fill="#000000"/><text fill="#000000" font-family="sans-serif" font-size="14" lengthAdjust="spacing" textLength="56" x="338.2" y="711.6738">DeviceID</text><line style="stroke:#181818;stroke-width:0.5;" x1="297" x2="407" y1="721.877" y2="721.877"/><rect fill="none" height="6" style="stroke:#C82930;stroke-width:1.0;" width="6" x="304" y="733.6875"/><text fill="#000000" font-family="sans-serif" font-size="14" lengthAdjust="spacing" textLength="56" x="316" y="740.9844">id: String</text><line style="stroke:#181818;stroke-width:0.5;" x1="297" x2="407" y1="748.498" y2="748.498"/><ellipse cx="307" cy="763.3086" fill="#84BE84" rx="3" ry="3" style="stroke:#038048;stroke-width:1.0;"/><text fill="#000000" font-family="sans-serif" font-size="14" lengthAdjust="spacing" textLength="86" x="316" y="767.6055">getId(): String</text></g><!--reverse link ValueRepository to InstantTimeValueRepository--><g id="link_ValueRepository_InstantTimeValueRepository"><path d="M1484,573.697 C1484,616.347 1484,670.637 1484,708.157 " fill="none" id="ValueRepository-backto-InstantTimeValueRepository" style="stroke:#181818;stroke-width:1.0;"/><polygon fill="none" points="1484,555.697,1478,573.697,1490,573.697,1484,555.697" style="stroke:#181818;stroke-width:1.0;"/></g><!--reverse link ValueRepository to PeriodTimeValueRepository--><g id="link_ValueRepository_PeriodTimeValueRepository"><path d="M1831.67,573.697 C1831.67,616.347 1831.67,670.637 1831.67,708.157 " fill="none" id="ValueRepository-backto-PeriodTimeValueRepository" style="stroke:#181818;stroke-width:1.0;"/><polygon fill="none" points="1831.67,555.697,1825.67,573.697,1837.67,573.697,1831.67,555.697" style="stroke:#181818;stroke-width:1.0;"/></g><!--reverse link InstantTimeValueRepository to InstantValueRepositoryMem--><g id="link_InstantTimeValueRepository_InstantValueRepositoryMem"><path d="M1361.5,774.647 C1361.5,795.927 1361.5,809.367 1361.5,834.817 " fill="none" id="InstantTimeValueRepository-backto-InstantValueRepositoryMem" style="stroke:#181818;stroke-width:1.0;stroke-dasharray:7.0,7.0;"/><polygon fill="none" points="1361.5,756.647,1355.5,774.647,1367.5,774.647,1361.5,756.647" style="stroke:#181818;stroke-width:1.0;"/></g><!--reverse link PeriodTimeValueRepository to PeriodTimeValueRepositoryMem--><g id="link_PeriodTimeValueRepository_PeriodTimeValueRepositoryMem"><path d="M1797,774.647 C1797,795.927 1797,809.367 1797,834.817 " fill="none" id="PeriodTimeValueRepository-backto-PeriodTimeValueRepositoryMem" style="stroke:#181818;stroke-width:1.0;stroke-dasharray:7.0,7.0;"/><polygon fill="none" points="1797,756.647,1791,774.647,1803,774.647,1797,756.647" style="stroke:#181818;stroke-width:1.0;"/></g><!--link HouseControllerWeb to ValueService--><g id="link_HouseControllerWeb_ValueService"><path codeLine="84" d="M889,354.027 C889,373.837 889,394.317 889,413.877 " fill="none" id="HouseControllerWeb-ValueService" style="stroke:#181818;stroke-width:1.0;"/></g><!--link ValueService to SensorRepository--><g id="link_ValueService_SensorRepository"><path codeLine="85" d="M730,629.897 C730,651.097 730,666.147 730,683.607 " fill="none" id="ValueService-to-SensorRepository" style="stroke:#181818;stroke-width:1.0;stroke-dasharray:7.0,7.0;"/><polygon fill="#181818" points="730,689.607,734,680.607,730,684.607,726,680.607,730,689.607" style="stroke:#181818;stroke-width:1.0;"/><text fill="#000000" font-family="sans-serif" font-size="13" lengthAdjust="spacing" textLength="42" x="687" y="655.7853">&#171;uses&#187;</text></g><!--link ValueService to PeriodTimeValueRepository--><g id="link_ValueService_PeriodTimeValueRepository"><path codeLine="86" d="M1413.09,592.877 C1598.7,592.877 1762.33,592.877 1762.33,592.877 C1762.33,592.877 1762.33,662.107 1762.33,702.077 " fill="none" id="ValueService-to-PeriodTimeValueRepository" style="stroke:#181818;stroke-width:1.0;stroke-dasharray:7.0,7.0;"/><polygon fill="#181818" points="1762.33,708.077,1766.33,699.077,1762.33,703.077,1758.33,699.077,1762.33,708.077" style="stroke:#181818;stroke-width:1.0;"/><text fill="#000000" font-family="sans-serif" font-size="13" lengthAdjust="spacing" textLength="42" x="1602.31" y="588.9053">&#171;uses&#187;</text></g><!--link ValueService to InstantTimeValueRepository--><g id="link_ValueService_InstantTimeValueRepository"><path codeLine="87" d="M1361.5,629.897 C1361.5,659.377 1361.5,682.567 1361.5,702.207 " fill="none" id="ValueService-to-InstantTimeValueRepository" style="stroke:#181818;stroke-width:1.0;stroke-dasharray:7.0,7.0;"/><polygon fill="#181818" points="1361.5,708.207,1365.5,699.207,1361.5,703.207,1357.5,699.207,1361.5,708.207" style="stroke:#181818;stroke-width:1.0;"/><text fill="#000000" font-family="sans-serif" font-size="13" lengthAdjust="spacing" textLength="42" x="1318.5" y="665.0853">&#171;uses&#187;</text></g><!--link ValueService to ConfigScraper--><g id="link_ValueService_ConfigScraper"><path codeLine="88" d="M1163,629.897 C1163,654.937 1163,673.757 1163,692.707 " fill="none" id="ValueService-to-ConfigScraper" style="stroke:#181818;stroke-width:1.0;stroke-dasharray:7.0,7.0;"/><polygon fill="#181818" points="1163,698.707,1167,689.707,1163,693.707,1159,689.707,1163,698.707" style="stroke:#181818;stroke-width:1.0;"/><text fill="#000000" font-family="sans-serif" font-size="13" lengthAdjust="spacing" textLength="42" x="1120" y="660.3353">&#171;uses&#187;</text></g><!--link ValueService to DeviceID--><g id="link_ValueService_DeviceID"><path codeLine="89" d="M386.5,629.897 C386.5,651.097 386.5,666.147 386.5,683.607 " fill="none" id="ValueService-to-DeviceID" style="stroke:#181818;stroke-width:1.0;stroke-dasharray:7.0,7.0;"/><polygon fill="#181818" points="386.5,689.607,390.5,680.607,386.5,684.607,382.5,680.607,386.5,689.607" style="stroke:#181818;stroke-width:1.0;"/><text fill="#000000" font-family="sans-serif" font-size="13" lengthAdjust="spacing" textLength="42" x="343.5" y="655.7853">&#171;uses&#187;</text></g><!--link ValueService to SensorFunctionalityID--><g id="link_ValueService_SensorFunctionalityID"><path codeLine="90" d="M364.86,601.877 C272.03,601.877 204.33,601.877 204.33,601.877 C204.33,601.877 204.33,645.587 204.33,683.647 " fill="none" id="ValueService-to-SensorFunctionalityID" style="stroke:#181818;stroke-width:1.0;stroke-dasharray:7.0,7.0;"/><polygon fill="#181818" points="204.33,689.647,208.33,680.647,204.33,684.647,200.33,680.647,204.33,689.647" style="stroke:#181818;stroke-width:1.0;"/><text fill="#000000" font-family="sans-serif" font-size="13" lengthAdjust="spacing" textLength="42" x="197.71" y="597.9053">&#171;uses&#187;</text></g><!--link ValueID to Sensor--><g id="link_ValueID_Sensor"><path codeLine="92" d="M176,307.697 C176,357.977 176,418.357 176,463.817 " fill="none" id="ValueID-to-Sensor" style="stroke:#181818;stroke-width:1.0;"/><polygon fill="#181818" points="176,469.817,180,460.817,176,464.817,172,460.817,176,469.817" style="stroke:#181818;stroke-width:1.0;"/></g><!--link Sensor to DeviceID--><g id="link_Sensor_DeviceID"><path codeLine="94" d="M313,573.907 C313,609.587 313,656.327 313,689.777 " fill="none" id="Sensor-DeviceID" style="stroke:#181818;stroke-width:1.0;"/></g><!--link Sensor to SensorFunctionalityID--><g id="link_Sensor_SensorFunctionalityID"><path codeLine="95" d="M147.67,573.907 C147.67,609.587 147.67,656.327 147.67,689.777 " fill="none" id="Sensor-SensorFunctionalityID" style="stroke:#181818;stroke-width:1.0;"/></g><!--SRC=[pLRDR-8u5B_pLpnfBrG5BYlDWQsGMkYqqRGB0cRcCjBAanYmwjYHxT15g_tVvpqx2Kb8qCnbjHoI-7r__emJJdBulFdz0upXtWA3bNxd1ZvRV6W3zqagbB3ECAVD229uPyg1qx3d-3fmo3XxWyphV5CGQsNpD7D2Az0xBt3GkUKZ40fjxyMHArGnGYSJs9PSE33odF2ZY3cms0cr1oIH-jw8X2m75obt-6GgWPITKEt8mV8ZDqmMsZQ8a86WONLkY3paa_q4Jv8Po9ZY4fWnx7Gp6TWteJ9cM0fIAEvE6SV4tK4FCXQ_iJrvCEW2VdiH-uDxGYNuPo0KUjan3FSBapbVyqnRWIKY7k3lTYTKyd3QS6MrYP87xjuvLokV-NAt5IaVsi1RJA6GMep0EcRS58YFdsas0gwIslbc2Y_OZJllT3RuTr0B958eeXp9jcFYVpkqOpjYRLW8uVsoWLWoQqltBObNde98CybJhfoz5cEesnXUMHRIetg4FE58BsJyjwKDUVKMfPLQV_7-hvazq-xDjN96IydDL_wTGXtxbTpWpECwJODGSS8W0vVyFuSFeXcjqqfXVJuGJwBdHLZDXzF7NCM43KmATweqABXxAGkfI7dBtSAbDwmOeiXYkmp-gYFn0n3K91PD0iaWnkI4Q0qVDPNxgtoo41hHfx-vmYLjt_Qg05zg9-JUFZrk2LzN2AqUZOS_qU4rjnc2BtzK3ftTBNJ-NTQRNVU1RGu1reRKjWWZciYkB6iwdNcU-Tw2wD_uwHKuyBfPxqfD-zUjxVL5nuo2kpHHTzyZvOtXfROJ-qri60Q4UlFwsKlCbtz-Z9x-MgsNgyVrDdhSK6aStKB4lcqqStw-8aDVGoRjxbvGBtiy6oQ-ooDuTYxREEPoErb-kld3nmGnat4kcUEThcalbpjFVi8hrkTj6q0nmZisAqGsuHOjfGZ9mbOH_j2f5doxgRCPXXuYFO_ZnVmLroO422oD3vFYezpYQ56YMR0mQwXrZEEmOuJFyDaYjsqtjoTQL50kacb9AoYNm5mmN5cPMYyBbaU1gZPGZigQimH7P-WxxZ_RTMl4qV9tMR56X3zNYBF3nh1NNPAQ9JGsVZXUwHyNzkgc6lfMk2tZpUYhDGd9HqcNdJALNr55vOuRRZnkmcq35oUJsULaJk7k3itOsUnIU7K5eVgreckOsAysR-5GlsHLhcj2tRsfQGpAgH-FI-b1SN5G6QlnEfEwP-a7]--></g></svg>