<?xml version="1.0" encoding="us-ascii" standalone="no"?><svg xmlns="http://www.w3.org/2000/svg" xmlns:xlink="http://www.w3.org/1999/xlink" contentStyleType="text/css" height="1106px" preserveAspectRatio="none" style="width:1889px;height:1106px;background:#FFFFFF;" version="1.1" viewBox="0 0 1889 1106" width="1889px" zoomAndPan="magnify"><defs/><g><text fill="#000000" font-family="sans-serif" font-size="14" font-weight="bold" lengthAdjust="spacing" textLength="235" x="820" y="25.1074">UC37.2: Close Blind Roller Device</text><!--cluster server--><g id="cluster_server"><path d="M8.5,45.6348 L56.5,45.6348 A3.75,3.75 0 0 1 59,48.1348 L66,70.2559 L1879.5,70.2559 A2.5,2.5 0 0 1 1882,72.7559 L1882,1097.1348 A2.5,2.5 0 0 1 1879.5,1099.6348 L8.5,1099.6348 A2.5,2.5 0 0 1 6,1097.1348 L6,48.1348 A2.5,2.5 0 0 1 8.5,45.6348 " fill="#D3D3D3" style="stroke:#000000;stroke-width:1.5;"/><line style="stroke:#000000;stroke-width:1.5;" x1="6" x2="66" y1="70.2559" y2="70.2559"/><text fill="#000000" font-family="sans-serif" font-size="14" font-weight="bold" lengthAdjust="spacing" textLength="47" x="10" y="62.7422">server</text></g><!--class DeviceControllerWeb--><g id="elem_DeviceControllerWeb"><rect codeLine="8" fill="#F1F1F1" height="252.832" id="DeviceControllerWeb" rx="2.5" ry="2.5" style="stroke:#181818;stroke-width:0.5;" width="908" x="958" y="82.6348"/><ellipse cx="1340.75" cy="98.6348" fill="#ADD1B2" rx="11" ry="11" style="stroke:#181818;stroke-width:1.0;"/><path d="M1343.5156,94.5098 Q1343.6719,94.291 1343.8594,94.1816 Q1344.0469,94.0723 1344.2656,94.0723 Q1344.6406,94.0723 1344.875,94.3379 Q1345.1094,94.5879 1345.1094,95.1973 L1345.1094,96.6504 Q1345.1094,97.2598 1344.875,97.5254 Q1344.6406,97.791 1344.2656,97.791 Q1343.9219,97.791 1343.7188,97.5879 Q1343.5156,97.4004 1343.4063,96.8848 Q1343.3594,96.5254 1343.1719,96.3379 Q1342.8438,95.9629 1342.2344,95.7441 Q1341.625,95.5254 1341,95.5254 Q1340.2344,95.5254 1339.5938,95.8535 Q1338.9688,96.1816 1338.4688,96.9316 Q1337.9844,97.6816 1337.9844,98.7129 L1337.9844,99.8066 Q1337.9844,101.041 1338.875,101.8691 Q1339.7656,102.6816 1341.3594,102.6816 Q1342.2969,102.6816 1342.9531,102.4316 Q1343.3438,102.2754 1343.7656,101.8379 Q1344.0313,101.5723 1344.1719,101.4941 Q1344.3281,101.416 1344.5313,101.416 Q1344.8594,101.416 1345.1094,101.6816 Q1345.375,101.9316 1345.375,102.2754 Q1345.375,102.6191 1345.0313,103.0254 Q1344.5313,103.6035 1343.7344,103.9316 Q1342.6563,104.3848 1341.3594,104.3848 Q1339.8438,104.3848 1338.6406,103.7598 Q1337.6563,103.2598 1336.9688,102.1973 Q1336.2813,101.1191 1336.2813,99.8379 L1336.2813,98.6816 Q1336.2813,97.3535 1336.8906,96.2129 Q1337.5156,95.0566 1338.6094,94.4473 Q1339.7031,93.8223 1340.9375,93.8223 Q1341.6719,93.8223 1342.3125,93.9941 Q1342.9688,94.1504 1343.5156,94.5098 Z " fill="#000000"/><text fill="#000000" font-family="sans-serif" font-size="14" lengthAdjust="spacing" textLength="134" x="1361.25" y="104.4316">DeviceControllerWeb</text><line style="stroke:#181818;stroke-width:0.5;" x1="959" x2="1865" y1="114.6348" y2="114.6348"/><rect fill="none" height="6" style="stroke:#C82930;stroke-width:1.0;" width="6" x="966" y="126.4453"/><text fill="#000000" font-family="sans-serif" font-size="14" lengthAdjust="spacing" textLength="190" x="978" y="133.7422">sensorService: SensorService</text><rect fill="none" height="6" style="stroke:#C82930;stroke-width:1.0;" width="6" x="966" y="145.0664"/><text fill="#000000" font-family="sans-serif" font-size="14" lengthAdjust="spacing" textLength="248" x="978" y="152.3633">sensorMapperDTO:SensorMapperDTO</text><rect fill="none" height="6" style="stroke:#C82930;stroke-width:1.0;" width="6" x="966" y="163.6875"/><text fill="#000000" font-family="sans-serif" font-size="14" lengthAdjust="spacing" textLength="207" x="978" y="170.9844">actuatorService: ActuatorService</text><rect fill="none" height="6" style="stroke:#C82930;stroke-width:1.0;" width="6" x="966" y="182.3086"/><text fill="#000000" font-family="sans-serif" font-size="14" lengthAdjust="spacing" textLength="265" x="978" y="189.6055">actuatorMapperDTO:ActuatorMapperDTO</text><rect fill="none" height="6" style="stroke:#C82930;stroke-width:1.0;" width="6" x="966" y="200.9297"/><text fill="#000000" font-family="sans-serif" font-size="14" lengthAdjust="spacing" textLength="172" x="978" y="208.2266">valueService: ValueService</text><rect fill="none" height="6" style="stroke:#C82930;stroke-width:1.0;" width="6" x="966" y="219.5508"/><text fill="#000000" font-family="sans-serif" font-size="14" lengthAdjust="spacing" textLength="388" x="978" y="226.8477">mapperSensorFunctionality : SensorFunctionalityMapperDTO</text><rect fill="none" height="6" style="stroke:#C82930;stroke-width:1.0;" width="6" x="966" y="238.1719"/><text fill="#000000" font-family="sans-serif" font-size="14" lengthAdjust="spacing" textLength="244" x="978" y="245.4688">mapperReading : ReadingMapperDTO</text><rect fill="none" height="6" style="stroke:#C82930;stroke-width:1.0;" width="6" x="966" y="256.793"/><text fill="#000000" font-family="sans-serif" font-size="14" lengthAdjust="spacing" textLength="307" x="978" y="264.0898">closeBlindRollerService: CloseBlindRollerService</text><rect fill="none" height="6" style="stroke:#C82930;stroke-width:1.0;" width="6" x="966" y="275.4141"/><text fill="#000000" font-family="sans-serif" font-size="14" lengthAdjust="spacing" textLength="186" x="978" y="282.7109">deviceService: DeviceService</text><line style="stroke:#181818;stroke-width:0.5;" x1="959" x2="1865" y1="290.2246" y2="290.2246"/><ellipse cx="969" cy="305.0352" fill="#84BE84" rx="3" ry="3" style="stroke:#038048;stroke-width:1.0;"/><text fill="#000000" font-family="sans-serif" font-size="14" lengthAdjust="spacing" textLength="882" x="978" y="309.332">PATCH editDevice(@PathVariable("id") String deviceName, @RequestParam(required = false) Integer percentage: ResponseEntity&lt;Object&gt;</text><rect fill="#F24D5C" height="6" style="stroke:#C82930;stroke-width:1.0;" width="6" x="966" y="320.6563"/><text fill="#000000" font-family="sans-serif" font-size="14" lengthAdjust="spacing" textLength="407" x="978" y="327.9531">closeBlindRollerDevice(String deviceID, int percentage): boolean</text></g><!--class DeviceID--><g id="elem_DeviceID"><rect codeLine="22" fill="#F1F1F1" height="66.6211" id="DeviceID" rx="2.5" ry="2.5" style="stroke:#181818;stroke-width:0.5;" width="125" x="1489.5" y="432.6348"/><ellipse cx="1511.7" cy="448.6348" fill="#ADD1B2" rx="11" ry="11" style="stroke:#181818;stroke-width:1.0;"/><path d="M1514.4656,444.5098 Q1514.6219,444.291 1514.8094,444.1816 Q1514.9969,444.0723 1515.2156,444.0723 Q1515.5906,444.0723 1515.825,444.3379 Q1516.0594,444.5879 1516.0594,445.1973 L1516.0594,446.6504 Q1516.0594,447.2598 1515.825,447.5254 Q1515.5906,447.791 1515.2156,447.791 Q1514.8719,447.791 1514.6688,447.5879 Q1514.4656,447.4004 1514.3563,446.8848 Q1514.3094,446.5254 1514.1219,446.3379 Q1513.7938,445.9629 1513.1844,445.7441 Q1512.575,445.5254 1511.95,445.5254 Q1511.1844,445.5254 1510.5438,445.8535 Q1509.9188,446.1816 1509.4188,446.9316 Q1508.9344,447.6816 1508.9344,448.7129 L1508.9344,449.8066 Q1508.9344,451.041 1509.825,451.8691 Q1510.7156,452.6816 1512.3094,452.6816 Q1513.2469,452.6816 1513.9031,452.4316 Q1514.2938,452.2754 1514.7156,451.8379 Q1514.9813,451.5723 1515.1219,451.4941 Q1515.2781,451.416 1515.4813,451.416 Q1515.8094,451.416 1516.0594,451.6816 Q1516.325,451.9316 1516.325,452.2754 Q1516.325,452.6191 1515.9813,453.0254 Q1515.4813,453.6035 1514.6844,453.9316 Q1513.6063,454.3848 1512.3094,454.3848 Q1510.7938,454.3848 1509.5906,453.7598 Q1508.6063,453.2598 1507.9188,452.1973 Q1507.2313,451.1191 1507.2313,449.8379 L1507.2313,448.6816 Q1507.2313,447.3535 1507.8406,446.2129 Q1508.4656,445.0566 1509.5594,444.4473 Q1510.6531,443.8223 1511.8875,443.8223 Q1512.6219,443.8223 1513.2625,443.9941 Q1513.9188,444.1504 1514.4656,444.5098 Z " fill="#000000"/><text fill="#000000" font-family="sans-serif" font-size="14" lengthAdjust="spacing" textLength="56" x="1527.3" y="454.4316">DeviceID</text><rect fill="#FFFFFF" height="17.9609" style="stroke:#181818;stroke-width:1.0;stroke-dasharray:2.0,2.0;" width="19" x="1598.5" y="429.6348"/><text fill="#000000" font-family="sans-serif" font-size="12" font-style="italic" lengthAdjust="spacing" textLength="17" x="1599.5" y="443.584">VO</text><line style="stroke:#181818;stroke-width:0.5;" x1="1490.5" x2="1613.5" y1="464.6348" y2="464.6348"/><rect fill="none" height="6" style="stroke:#C82930;stroke-width:1.0;" width="6" x="1497.5" y="476.4453"/><text fill="#000000" font-family="sans-serif" font-size="14" lengthAdjust="spacing" textLength="99" x="1509.5" y="483.7422">deviceID: String</text><line style="stroke:#181818;stroke-width:0.5;" x1="1490.5" x2="1613.5" y1="491.2559" y2="491.2559"/></g><!--class ActuatorFunctionalityID--><g id="elem_ActuatorFunctionalityID"><rect codeLine="26" fill="#F1F1F1" height="66.6211" id="ActuatorFunctionalityID" rx="2.5" ry="2.5" style="stroke:#181818;stroke-width:0.5;" width="216" x="1650" y="432.6348"/><ellipse cx="1672.65" cy="448.6348" fill="#ADD1B2" rx="11" ry="11" style="stroke:#181818;stroke-width:1.0;"/><path d="M1675.4156,444.5098 Q1675.5719,444.291 1675.7594,444.1816 Q1675.9469,444.0723 1676.1656,444.0723 Q1676.5406,444.0723 1676.775,444.3379 Q1677.0094,444.5879 1677.0094,445.1973 L1677.0094,446.6504 Q1677.0094,447.2598 1676.775,447.5254 Q1676.5406,447.791 1676.1656,447.791 Q1675.8219,447.791 1675.6188,447.5879 Q1675.4156,447.4004 1675.3063,446.8848 Q1675.2594,446.5254 1675.0719,446.3379 Q1674.7438,445.9629 1674.1344,445.7441 Q1673.525,445.5254 1672.9,445.5254 Q1672.1344,445.5254 1671.4938,445.8535 Q1670.8688,446.1816 1670.3688,446.9316 Q1669.8844,447.6816 1669.8844,448.7129 L1669.8844,449.8066 Q1669.8844,451.041 1670.775,451.8691 Q1671.6656,452.6816 1673.2594,452.6816 Q1674.1969,452.6816 1674.8531,452.4316 Q1675.2438,452.2754 1675.6656,451.8379 Q1675.9313,451.5723 1676.0719,451.4941 Q1676.2281,451.416 1676.4313,451.416 Q1676.7594,451.416 1677.0094,451.6816 Q1677.275,451.9316 1677.275,452.2754 Q1677.275,452.6191 1676.9313,453.0254 Q1676.4313,453.6035 1675.6344,453.9316 Q1674.5563,454.3848 1673.2594,454.3848 Q1671.7438,454.3848 1670.5406,453.7598 Q1669.5563,453.2598 1668.8688,452.1973 Q1668.1813,451.1191 1668.1813,449.8379 L1668.1813,448.6816 Q1668.1813,447.3535 1668.7906,446.2129 Q1669.4156,445.0566 1670.5094,444.4473 Q1671.6031,443.8223 1672.8375,443.8223 Q1673.5719,443.8223 1674.2125,443.9941 Q1674.8688,444.1504 1675.4156,444.5098 Z " fill="#000000"/><text fill="#000000" font-family="sans-serif" font-size="14" lengthAdjust="spacing" textLength="146" x="1688.35" y="454.4316">ActuatorFunctionalityID</text><rect fill="#FFFFFF" height="17.9609" style="stroke:#181818;stroke-width:1.0;stroke-dasharray:2.0,2.0;" width="19" x="1850" y="429.6348"/><text fill="#000000" font-family="sans-serif" font-size="12" font-style="italic" lengthAdjust="spacing" textLength="17" x="1851" y="443.584">VO</text><line style="stroke:#181818;stroke-width:0.5;" x1="1651" x2="1865" y1="464.6348" y2="464.6348"/><rect fill="none" height="6" style="stroke:#C82930;stroke-width:1.0;" width="6" x="1658" y="476.4453"/><text fill="#000000" font-family="sans-serif" font-size="14" lengthAdjust="spacing" textLength="190" x="1670" y="483.7422">actuatorFunctionalityID: String</text><line style="stroke:#181818;stroke-width:0.5;" x1="1651" x2="1865" y1="491.2559" y2="491.2559"/></g><!--class CloseBlindRollerService--><g id="elem_CloseBlindRollerService"><rect codeLine="30" fill="#F1F1F1" height="122.4844" id="CloseBlindRollerService" rx="2.5" ry="2.5" style="stroke:#181818;stroke-width:0.5;" width="806" x="415" y="405.1348"/><ellipse cx="738.25" cy="421.1348" fill="#ADD1B2" rx="11" ry="11" style="stroke:#181818;stroke-width:1.0;"/><path d="M741.0156,417.0098 Q741.1719,416.791 741.3594,416.6816 Q741.5469,416.5723 741.7656,416.5723 Q742.1406,416.5723 742.375,416.8379 Q742.6094,417.0879 742.6094,417.6973 L742.6094,419.1504 Q742.6094,419.7598 742.375,420.0254 Q742.1406,420.291 741.7656,420.291 Q741.4219,420.291 741.2188,420.0879 Q741.0156,419.9004 740.9063,419.3848 Q740.8594,419.0254 740.6719,418.8379 Q740.3438,418.4629 739.7344,418.2441 Q739.125,418.0254 738.5,418.0254 Q737.7344,418.0254 737.0938,418.3535 Q736.4688,418.6816 735.9688,419.4316 Q735.4844,420.1816 735.4844,421.2129 L735.4844,422.3066 Q735.4844,423.541 736.375,424.3691 Q737.2656,425.1816 738.8594,425.1816 Q739.7969,425.1816 740.4531,424.9316 Q740.8438,424.7754 741.2656,424.3379 Q741.5313,424.0723 741.6719,423.9941 Q741.8281,423.916 742.0313,423.916 Q742.3594,423.916 742.6094,424.1816 Q742.875,424.4316 742.875,424.7754 Q742.875,425.1191 742.5313,425.5254 Q742.0313,426.1035 741.2344,426.4316 Q740.1563,426.8848 738.8594,426.8848 Q737.3438,426.8848 736.1406,426.2598 Q735.1563,425.7598 734.4688,424.6973 Q733.7813,423.6191 733.7813,422.3379 L733.7813,421.1816 Q733.7813,419.8535 734.3906,418.7129 Q735.0156,417.5566 736.1094,416.9473 Q737.2031,416.3223 738.4375,416.3223 Q739.1719,416.3223 739.8125,416.4941 Q740.4688,416.6504 741.0156,417.0098 Z " fill="#000000"/><text fill="#000000" font-family="sans-serif" font-size="14" lengthAdjust="spacing" textLength="151" x="758.75" y="426.9316">CloseBlindRollerService</text><line style="stroke:#181818;stroke-width:0.5;" x1="416" x2="1220" y1="437.1348" y2="437.1348"/><rect fill="none" height="6" style="stroke:#C82930;stroke-width:1.0;" width="6" x="423" y="448.9453"/><text fill="#000000" font-family="sans-serif" font-size="14" lengthAdjust="spacing" textLength="249" x="435" y="456.2422">actuatorRepository: ActuatorRepository</text><rect fill="none" height="6" style="stroke:#C82930;stroke-width:1.0;" width="6" x="423" y="467.5664"/><text fill="#000000" font-family="sans-serif" font-size="14" lengthAdjust="spacing" textLength="228" x="435" y="474.8633">deviceRepository: DeviceRepository</text><line style="stroke:#181818;stroke-width:0.5;" x1="416" x2="1220" y1="482.377" y2="482.377"/><rect fill="#F24D5C" height="6" style="stroke:#C82930;stroke-width:1.0;" width="6" x="423" y="494.1875"/><text fill="#000000" font-family="sans-serif" font-size="14" lengthAdjust="spacing" textLength="318" x="435" y="501.4844">checkIfDeviceIsActive(DeviceID deviceID): boolean</text><ellipse cx="426" cy="515.8086" fill="#84BE84" rx="3" ry="3" style="stroke:#038048;stroke-width:1.0;"/><text fill="#000000" font-family="sans-serif" font-size="14" lengthAdjust="spacing" textLength="780" x="435" y="520.1055">setActuatorStateOfBlindRollers(DeviceID deviceID, ActuatorFunctionalityID actuatorFunctionalityID, int percentage): boolean</text></g><!--class Repository--><g id="elem_Repository"><rect codeLine="37" fill="#F1F1F1" height="66.6211" id="Repository" rx="2.5" ry="2.5" style="stroke:#181818;stroke-width:0.5;" width="357" x="22.5" y="432.6348"/><ellipse cx="148.25" cy="448.6348" fill="#B4A7E5" rx="11" ry="11" style="stroke:#181818;stroke-width:1.0;"/><path d="M149.2031,445.2754 L149.2031,451.9316 L150.9219,451.9316 Q151.5313,451.9316 151.7969,452.166 Q152.0625,452.4004 152.0625,452.791 Q152.0625,453.166 151.7969,453.4004 Q151.5313,453.6348 150.9219,453.6348 L145.7813,453.6348 Q145.1719,453.6348 144.9063,453.4004 Q144.6406,453.166 144.6406,452.7754 Q144.6406,452.4004 144.9063,452.166 Q145.1719,451.9316 145.7813,451.9316 L147.5,451.9316 L147.5,445.2754 L145.7813,445.2754 Q145.1719,445.2754 144.9063,445.041 Q144.6406,444.8066 144.6406,444.416 Q144.6406,444.041 144.9063,443.8066 Q145.1719,443.5723 145.7813,443.5723 L150.9219,443.5723 Q151.5313,443.5723 151.7969,443.8066 Q152.0625,444.041 152.0625,444.416 Q152.0625,444.8066 151.7969,445.041 Q151.5313,445.2754 150.9219,445.2754 L149.2031,445.2754 Z " fill="#000000"/><text fill="#000000" font-family="sans-serif" font-size="14" font-style="italic" lengthAdjust="spacing" textLength="68" x="168.75" y="454.4316">Repository</text><rect fill="#FFFFFF" height="17.9609" style="stroke:#181818;stroke-width:1.0;stroke-dasharray:2.0,2.0;" width="27" x="355.5" y="429.6348"/><text fill="#000000" font-family="sans-serif" font-size="12" font-style="italic" lengthAdjust="spacing" textLength="25" x="356.5" y="443.584">repo</text><line style="stroke:#181818;stroke-width:0.5;" x1="23.5" x2="378.5" y1="464.6348" y2="464.6348"/><line style="stroke:#181818;stroke-width:0.5;" x1="23.5" x2="378.5" y1="472.6348" y2="472.6348"/><ellipse cx="33.5" cy="487.4453" fill="#84BE84" rx="3" ry="3" style="stroke:#038048;stroke-width:1.0;"/><text fill="#000000" font-family="sans-serif" font-size="14" lengthAdjust="spacing" textLength="331" x="42.5" y="491.7422">findEntityByID(DeviceID deviceID): Optional&lt;Device&gt;</text></g><!--class DeviceRepository--><g id="elem_DeviceRepository"><rect codeLine="41" fill="#F1F1F1" height="48" id="DeviceRepository" rx="2.5" ry="2.5" style="stroke:#181818;stroke-width:0.5;" width="142" x="275" y="615.1348"/><ellipse cx="290" cy="631.1348" fill="#B4A7E5" rx="11" ry="11" style="stroke:#181818;stroke-width:1.0;"/><path d="M290.9531,627.7754 L290.9531,634.4316 L292.6719,634.4316 Q293.2813,634.4316 293.5469,634.666 Q293.8125,634.9004 293.8125,635.291 Q293.8125,635.666 293.5469,635.9004 Q293.2813,636.1348 292.6719,636.1348 L287.5313,636.1348 Q286.9219,636.1348 286.6563,635.9004 Q286.3906,635.666 286.3906,635.2754 Q286.3906,634.9004 286.6563,634.666 Q286.9219,634.4316 287.5313,634.4316 L289.25,634.4316 L289.25,627.7754 L287.5313,627.7754 Q286.9219,627.7754 286.6563,627.541 Q286.3906,627.3066 286.3906,626.916 Q286.3906,626.541 286.6563,626.3066 Q286.9219,626.0723 287.5313,626.0723 L292.6719,626.0723 Q293.2813,626.0723 293.5469,626.3066 Q293.8125,626.541 293.8125,626.916 Q293.8125,627.3066 293.5469,627.541 Q293.2813,627.7754 292.6719,627.7754 L290.9531,627.7754 Z " fill="#000000"/><text fill="#000000" font-family="sans-serif" font-size="14" font-style="italic" lengthAdjust="spacing" textLength="110" x="304" y="636.9316">DeviceRepository</text><line style="stroke:#181818;stroke-width:0.5;" x1="276" x2="416" y1="647.1348" y2="647.1348"/><line style="stroke:#181818;stroke-width:0.5;" x1="276" x2="416" y1="655.1348" y2="655.1348"/></g><!--class Device--><g id="elem_Device"><rect codeLine="44" fill="#F1F1F1" height="141.1055" id="Device" rx="2.5" ry="2.5" style="stroke:#181818;stroke-width:0.5;" width="198" x="1256" y="395.6348"/><ellipse cx="1329.25" cy="411.6348" fill="#ADD1B2" rx="11" ry="11" style="stroke:#181818;stroke-width:1.0;"/><path d="M1332.0156,407.5098 Q1332.1719,407.291 1332.3594,407.1816 Q1332.5469,407.0723 1332.7656,407.0723 Q1333.1406,407.0723 1333.375,407.3379 Q1333.6094,407.5879 1333.6094,408.1973 L1333.6094,409.6504 Q1333.6094,410.2598 1333.375,410.5254 Q1333.1406,410.791 1332.7656,410.791 Q1332.4219,410.791 1332.2188,410.5879 Q1332.0156,410.4004 1331.9063,409.8848 Q1331.8594,409.5254 1331.6719,409.3379 Q1331.3438,408.9629 1330.7344,408.7441 Q1330.125,408.5254 1329.5,408.5254 Q1328.7344,408.5254 1328.0938,408.8535 Q1327.4688,409.1816 1326.9688,409.9316 Q1326.4844,410.6816 1326.4844,411.7129 L1326.4844,412.8066 Q1326.4844,414.041 1327.375,414.8691 Q1328.2656,415.6816 1329.8594,415.6816 Q1330.7969,415.6816 1331.4531,415.4316 Q1331.8438,415.2754 1332.2656,414.8379 Q1332.5313,414.5723 1332.6719,414.4941 Q1332.8281,414.416 1333.0313,414.416 Q1333.3594,414.416 1333.6094,414.6816 Q1333.875,414.9316 1333.875,415.2754 Q1333.875,415.6191 1333.5313,416.0254 Q1333.0313,416.6035 1332.2344,416.9316 Q1331.1563,417.3848 1329.8594,417.3848 Q1328.3438,417.3848 1327.1406,416.7598 Q1326.1563,416.2598 1325.4688,415.1973 Q1324.7813,414.1191 1324.7813,412.8379 L1324.7813,411.6816 Q1324.7813,410.3535 1325.3906,409.2129 Q1326.0156,408.0566 1327.1094,407.4473 Q1328.2031,406.8223 1329.4375,406.8223 Q1330.1719,406.8223 1330.8125,406.9941 Q1331.4688,407.1504 1332.0156,407.5098 Z " fill="#000000"/><text fill="#000000" font-family="sans-serif" font-size="14" lengthAdjust="spacing" textLength="43" x="1349.75" y="417.4316">Device</text><line style="stroke:#181818;stroke-width:0.5;" x1="1257" x2="1453" y1="427.6348" y2="427.6348"/><rect fill="none" height="6" style="stroke:#C82930;stroke-width:1.0;" width="6" x="1264" y="439.4453"/><text fill="#000000" font-family="sans-serif" font-size="14" lengthAdjust="spacing" textLength="118" x="1276" y="446.7422">deviceID: DeviceID</text><rect fill="none" height="6" style="stroke:#C82930;stroke-width:1.0;" width="6" x="1264" y="458.0664"/><text fill="#000000" font-family="sans-serif" font-size="14" lengthAdjust="spacing" textLength="168" x="1276" y="465.3633">deviceModel: DeviceModel</text><rect fill="none" height="6" style="stroke:#C82930;stroke-width:1.0;" width="6" x="1264" y="476.6875"/><text fill="#000000" font-family="sans-serif" font-size="14" lengthAdjust="spacing" textLength="172" x="1276" y="483.9844">deviceStatus: DeviceStatus</text><rect fill="none" height="6" style="stroke:#C82930;stroke-width:1.0;" width="6" x="1264" y="495.3086"/><text fill="#000000" font-family="sans-serif" font-size="14" lengthAdjust="spacing" textLength="103" x="1276" y="502.6055">roomID: RoomID</text><line style="stroke:#181818;stroke-width:0.5;" x1="1257" x2="1453" y1="510.1191" y2="510.1191"/><ellipse cx="1267" cy="524.9297" fill="#84BE84" rx="3" ry="3" style="stroke:#038048;stroke-width:1.0;"/><text fill="#000000" font-family="sans-serif" font-size="14" lengthAdjust="spacing" textLength="117" x="1276" y="529.2266">isActive(): boolean</text></g><!--class ActuatorRepository--><g id="elem_ActuatorRepository"><rect codeLine="53" fill="#F1F1F1" height="85.2422" id="ActuatorRepository" rx="2.5" ry="2.5" style="stroke:#181818;stroke-width:0.5;" width="441" x="597.5" y="596.6348"/><ellipse cx="738.75" cy="612.6348" fill="#B4A7E5" rx="11" ry="11" style="stroke:#181818;stroke-width:1.0;"/><path d="M739.7031,609.2754 L739.7031,615.9316 L741.4219,615.9316 Q742.0313,615.9316 742.2969,616.166 Q742.5625,616.4004 742.5625,616.791 Q742.5625,617.166 742.2969,617.4004 Q742.0313,617.6348 741.4219,617.6348 L736.2813,617.6348 Q735.6719,617.6348 735.4063,617.4004 Q735.1406,617.166 735.1406,616.7754 Q735.1406,616.4004 735.4063,616.166 Q735.6719,615.9316 736.2813,615.9316 L738,615.9316 L738,609.2754 L736.2813,609.2754 Q735.6719,609.2754 735.4063,609.041 Q735.1406,608.8066 735.1406,608.416 Q735.1406,608.041 735.4063,607.8066 Q735.6719,607.5723 736.2813,607.5723 L741.4219,607.5723 Q742.0313,607.5723 742.2969,607.8066 Q742.5625,608.041 742.5625,608.416 Q742.5625,608.8066 742.2969,609.041 Q742.0313,609.2754 741.4219,609.2754 L739.7031,609.2754 Z " fill="#000000"/><text fill="#000000" font-family="sans-serif" font-size="14" font-style="italic" lengthAdjust="spacing" textLength="121" x="759.25" y="618.4316">ActuatorRepository</text><rect fill="#FFFFFF" height="17.9609" style="stroke:#181818;stroke-width:1.0;stroke-dasharray:2.0,2.0;" width="27" x="1014.5" y="593.6348"/><text fill="#000000" font-family="sans-serif" font-size="12" font-style="italic" lengthAdjust="spacing" textLength="25" x="1015.5" y="607.584">repo</text><line style="stroke:#181818;stroke-width:0.5;" x1="598.5" x2="1037.5" y1="628.6348" y2="628.6348"/><line style="stroke:#181818;stroke-width:0.5;" x1="598.5" x2="1037.5" y1="636.6348" y2="636.6348"/><ellipse cx="608.5" cy="660.7559" fill="#84BE84" rx="3" ry="3" style="stroke:#038048;stroke-width:1.0;"/><text fill="#000000" font-family="sans-serif" font-size="14" lengthAdjust="spacing" textLength="389" x="617.5" y="655.7422">findByDeviceIDAndActuatorFunctionalityID(DeviceID deviceID,</text><text fill="#000000" font-family="sans-serif" font-size="14" lengthAdjust="spacing" textLength="411" x="621.5" y="674.3633">ActuatorFunctionality actuatorFunctionalityID): Iterable&lt;Actuator&gt;</text></g><!--class Actuator--><g id="elem_Actuator"><rect codeLine="57" fill="#F1F1F1" height="141.1055" id="Actuator" rx="2.5" ry="2.5" style="stroke:#181818;stroke-width:0.5;" width="343" x="646.5" y="741.6348"/><ellipse cx="774.75" cy="757.6348" fill="#A9DCDF" rx="11" ry="11" style="stroke:#181818;stroke-width:1.0;"/><path d="M776.9375,759.4004 L772.7969,759.4004 L772.375,760.4316 L772.7969,760.4316 Q773.4063,760.4316 773.6719,760.666 Q773.9375,760.9004 773.9375,761.291 Q773.9375,761.666 773.6719,761.9004 Q773.4063,762.1348 772.7969,762.1348 L770.5,762.1348 Q769.8906,762.1348 769.6406,761.9004 Q769.375,761.666 769.375,761.2754 Q769.375,760.9004 769.6563,760.666 Q769.9219,760.416 770.5469,760.4316 L773.2188,753.7754 L772.1094,753.7754 Q771.5,753.7754 771.2344,753.541 Q770.9688,753.3066 770.9688,752.916 Q770.9688,752.541 771.2344,752.3066 Q771.5,752.0723 772.1094,752.0723 L775.7813,752.0723 L779.1719,760.4316 Q779.7656,760.4316 779.9531,760.5723 Q780.3438,760.8379 780.3438,761.291 Q780.3438,761.666 780.0781,761.9004 Q779.8281,762.1348 779.2188,762.1348 L776.9219,762.1348 Q776.3125,762.1348 776.0469,761.9004 Q775.7813,761.666 775.7813,761.2754 Q775.7813,760.9004 776.0469,760.666 Q776.3125,760.4316 776.9219,760.4316 L777.3438,760.4316 L776.9375,759.4004 Z M776.2188,757.6973 L774.8594,754.3223 L773.4844,757.6973 L776.2188,757.6973 Z " fill="#000000"/><text fill="#000000" font-family="sans-serif" font-size="14" font-style="italic" lengthAdjust="spacing" textLength="53" x="795.25" y="763.4316">Actuator</text><rect fill="#FFFFFF" height="17.9609" style="stroke:#181818;stroke-width:1.0;stroke-dasharray:2.0,2.0;" width="23" x="969.5" y="738.6348"/><text fill="#000000" font-family="sans-serif" font-size="12" font-style="italic" lengthAdjust="spacing" textLength="21" x="970.5" y="752.584">root</text><line style="stroke:#181818;stroke-width:0.5;" x1="647.5" x2="988.5" y1="773.6348" y2="773.6348"/><rect fill="none" height="6" style="stroke:#C82930;stroke-width:1.0;" width="6" x="654.5" y="785.4453"/><text fill="#000000" font-family="sans-serif" font-size="14" lengthAdjust="spacing" textLength="139" x="666.5" y="792.7422">actuatorID: ActuatorID</text><rect fill="none" height="6" style="stroke:#C82930;stroke-width:1.0;" width="6" x="654.5" y="804.0664"/><text fill="#000000" font-family="sans-serif" font-size="14" lengthAdjust="spacing" textLength="243" x="666.5" y="811.3633">actuatorProperties: ActuatorProperties</text><rect fill="none" height="6" style="stroke:#C82930;stroke-width:1.0;" width="6" x="654.5" y="822.6875"/><text fill="#000000" font-family="sans-serif" font-size="14" lengthAdjust="spacing" textLength="141" x="666.5" y="829.9844">deviceName: DeviceID</text><rect fill="none" height="6" style="stroke:#C82930;stroke-width:1.0;" width="6" x="654.5" y="841.3086"/><text fill="#000000" font-family="sans-serif" font-size="14" lengthAdjust="spacing" textLength="299" x="666.5" y="848.6055">actuatorFunctionalityID: ActuatorFunctionalityID</text><line style="stroke:#181818;stroke-width:0.5;" x1="647.5" x2="988.5" y1="856.1191" y2="856.1191"/><ellipse cx="657.5" cy="870.9297" fill="#84BE84" rx="3" ry="3" style="stroke:#038048;stroke-width:1.0;"/><text fill="#000000" font-family="sans-serif" font-size="14" lengthAdjust="spacing" textLength="317" x="666.5" y="875.2266">getActuatorFunctionality(): ActuatorFunctionalityID</text></g><!--class BlindSetterActuator--><g id="elem_BlindSetterActuator"><rect codeLine="65" fill="#F1F1F1" height="141.1055" id="BlindSetterActuator" rx="2.5" ry="2.5" style="stroke:#181818;stroke-width:0.5;" width="343" x="646.5" y="942.6348"/><ellipse cx="752.75" cy="958.6348" fill="#ADD1B2" rx="11" ry="11" style="stroke:#181818;stroke-width:1.0;"/><path d="M755.5156,954.5098 Q755.6719,954.291 755.8594,954.1816 Q756.0469,954.0723 756.2656,954.0723 Q756.6406,954.0723 756.875,954.3379 Q757.1094,954.5879 757.1094,955.1973 L757.1094,956.6504 Q757.1094,957.2598 756.875,957.5254 Q756.6406,957.791 756.2656,957.791 Q755.9219,957.791 755.7188,957.5879 Q755.5156,957.4004 755.4063,956.8848 Q755.3594,956.5254 755.1719,956.3379 Q754.8438,955.9629 754.2344,955.7441 Q753.625,955.5254 753,955.5254 Q752.2344,955.5254 751.5938,955.8535 Q750.9688,956.1816 750.4688,956.9316 Q749.9844,957.6816 749.9844,958.7129 L749.9844,959.8066 Q749.9844,961.041 750.875,961.8691 Q751.7656,962.6816 753.3594,962.6816 Q754.2969,962.6816 754.9531,962.4316 Q755.3438,962.2754 755.7656,961.8379 Q756.0313,961.5723 756.1719,961.4941 Q756.3281,961.416 756.5313,961.416 Q756.8594,961.416 757.1094,961.6816 Q757.375,961.9316 757.375,962.2754 Q757.375,962.6191 757.0313,963.0254 Q756.5313,963.6035 755.7344,963.9316 Q754.6563,964.3848 753.3594,964.3848 Q751.8438,964.3848 750.6406,963.7598 Q749.6563,963.2598 748.9688,962.1973 Q748.2813,961.1191 748.2813,959.8379 L748.2813,958.6816 Q748.2813,957.3535 748.8906,956.2129 Q749.5156,955.0566 750.6094,954.4473 Q751.7031,953.8223 752.9375,953.8223 Q753.6719,953.8223 754.3125,953.9941 Q754.9688,954.1504 755.5156,954.5098 Z " fill="#000000"/><text fill="#000000" font-family="sans-serif" font-size="14" lengthAdjust="spacing" textLength="122" x="773.25" y="964.4316">BlindSetterActuator</text><line style="stroke:#181818;stroke-width:0.5;" x1="647.5" x2="988.5" y1="974.6348" y2="974.6348"/><rect fill="none" height="6" style="stroke:#C82930;stroke-width:1.0;" width="6" x="654.5" y="986.4453"/><text fill="#000000" font-family="sans-serif" font-size="14" lengthAdjust="spacing" textLength="162" x="666.5" y="993.7422">actuatorName: ActuatorID</text><rect fill="none" height="6" style="stroke:#C82930;stroke-width:1.0;" width="6" x="654.5" y="1005.0664"/><text fill="#000000" font-family="sans-serif" font-size="14" lengthAdjust="spacing" textLength="243" x="666.5" y="1012.3633">actuatorProperties: ActuatorProperties</text><rect fill="none" height="6" style="stroke:#C82930;stroke-width:1.0;" width="6" x="654.5" y="1023.6875"/><text fill="#000000" font-family="sans-serif" font-size="14" lengthAdjust="spacing" textLength="141" x="666.5" y="1030.9844">deviceName: DeviceID</text><rect fill="none" height="6" style="stroke:#C82930;stroke-width:1.0;" width="6" x="654.5" y="1042.3086"/><text fill="#000000" font-family="sans-serif" font-size="14" lengthAdjust="spacing" textLength="299" x="666.5" y="1049.6055">actuatorFunctionalityID: ActuatorFunctionalityID</text><line style="stroke:#181818;stroke-width:0.5;" x1="647.5" x2="988.5" y1="1057.1191" y2="1057.1191"/><ellipse cx="657.5" cy="1071.9297" fill="#84BE84" rx="3" ry="3" style="stroke:#038048;stroke-width:1.0;"/><text fill="#000000" font-family="sans-serif" font-size="14" lengthAdjust="spacing" textLength="317" x="666.5" y="1076.2266">setActuatorSpecificValue(int percentage): boolean</text></g><!--reverse link Repository to DeviceRepository--><g id="link_Repository_DeviceRepository"><path d="M327.25,517.9048 C327.25,551.7248 327.25,584.9548 327.25,614.9248 " fill="none" id="Repository-backto-DeviceRepository" style="stroke:#181818;stroke-width:1.0;"/><polygon fill="none" points="327.25,499.9048,321.25,517.9048,333.25,517.9048,327.25,499.9048" style="stroke:#181818;stroke-width:1.0;"/></g><!--reverse link Actuator to BlindSetterActuator--><g id="link_Actuator_BlindSetterActuator"><path d="M818,900.7148 C818,920.0648 818,923.0348 818,942.3848 " fill="none" id="Actuator-backto-BlindSetterActuator" style="stroke:#181818;stroke-width:1.0;"/><polygon fill="none" points="818,882.7148,812,900.7148,824,900.7148,818,882.7148" style="stroke:#181818;stroke-width:1.0;"/></g><!--link DeviceControllerWeb to ActuatorFunctionalityID--><g id="link_DeviceControllerWeb_ActuatorFunctionalityID"><path codeLine="74" d="M1758,335.7548 C1758,371.4848 1758,401.4048 1758,426.4748 " fill="none" id="DeviceControllerWeb-to-ActuatorFunctionalityID" style="stroke:#181818;stroke-width:1.0;stroke-dasharray:7.0,7.0;"/><polygon fill="#181818" points="1758,432.4748,1762,423.4748,1758,427.4748,1754,423.4748,1758,432.4748" style="stroke:#181818;stroke-width:1.0;"/><text fill="#000000" font-family="sans-serif" font-size="13" lengthAdjust="spacing" textLength="57" x="1700" y="380.1431">&#171;creates&#187;</text></g><!--link DeviceControllerWeb to DeviceID--><g id="link_DeviceControllerWeb_DeviceID"><path codeLine="75" d="M1552,335.7548 C1552,371.4848 1552,401.4048 1552,426.4748 " fill="none" id="DeviceControllerWeb-to-DeviceID" style="stroke:#181818;stroke-width:1.0;stroke-dasharray:7.0,7.0;"/><polygon fill="#181818" points="1552,432.4748,1556,423.4748,1552,427.4748,1548,423.4748,1552,432.4748" style="stroke:#181818;stroke-width:1.0;"/><text fill="#000000" font-family="sans-serif" font-size="13" lengthAdjust="spacing" textLength="57" x="1494" y="380.1431">&#171;creates&#187;</text></g><!--link DeviceControllerWeb to CloseBlindRollerService--><g id="link_DeviceControllerWeb_CloseBlindRollerService"><path codeLine="76" d="M1089.5,335.7548 C1089.5,359.8248 1089.5,383.9848 1089.5,404.8548 " fill="none" id="DeviceControllerWeb-CloseBlindRollerService" style="stroke:#181818;stroke-width:1.0;"/></g><!--link CloseBlindRollerService to DeviceRepository--><g id="link_CloseBlindRollerService_DeviceRepository"><path codeLine="77" d="M414.79,513.6348 C403.62,513.6348 397.25,513.6348 397.25,513.6348 C397.25,513.6348 397.25,578.4648 397.25,614.9348 " fill="none" id="CloseBlindRollerService-DeviceRepository" style="stroke:#181818;stroke-width:1.0;"/></g><!--link CloseBlindRollerService to ActuatorRepository--><g id="link_CloseBlindRollerService_ActuatorRepository"><path codeLine="78" d="M818,527.6148 C818,550.4348 818,575.8048 818,596.5748 " fill="none" id="CloseBlindRollerService-ActuatorRepository" style="stroke:#181818;stroke-width:1.0;"/></g><!--link ActuatorRepository to Actuator--><g id="link_ActuatorRepository_Actuator"><path codeLine="79" d="M818,681.8948 C818,699.9048 818,721.3548 818,741.5848 " fill="none" id="ActuatorRepository-Actuator" style="stroke:#181818;stroke-width:1.0;"/></g><!--link CloseBlindRollerService to Device--><g id="link_CloseBlindRollerService_Device"><path codeLine="80" d="M1221.22,466.6348 C1233.23,466.6348 1244.74,466.6348 1255.64,466.6348 " fill="none" id="CloseBlindRollerService-Device" style="stroke:#181818;stroke-width:1.0;"/></g><!--SRC=[dLPBZzem4BxdLupQGrdjmahjeH9AqRAa3wHkGR3TNdenpW3k1Zkr1rI4-j_hn7cJqAfxMNlcc_7CDu_mQaiKc-7jRHmnIVjTDE1gTyiZPam_56oZsSuppqB6p9uW4XBf62CeJLlbUIGeGlWwUVDsy7e8aqWPX7iB2c6XeWWr17WG73qlPloPRH0CweCLl_miDblwgDaHJfwNlfP19qgIJcs_uUhaWVthMojfb5vQMuiOmh9whK4UM1oZ3XvdmsNzdg4OfpsZYgjnNT20bUx6JOb37bYqnyBPK-MMUTgbU1VCXxta99HaaQ0Zv6dKf0ttpdg1B1HoOosoKmF54zfJrXtfHJoJTeMp2bEw2snGlQQ8w_duSV89C1JabBsxEQFj4zE2hIBilH3XYojOaavYSzw-i1tUmDq2V-xHq3nfcPws5w4nX7UmPf71AvXAmerj0fi3HqcsBPBCJAoamVVIjjJHdwr-8ATHUtvPDBMNfy4D24aLdrT3M2aL8PFUxtgBJGFmdsQZKvM7QJ3CKYdHUSrh5QeRitR8kQ-EKfmQ3RV0M1bX3yUoDKjP1dOHLw51Gv81-HRvytITPMsiGt70Na52ddc5gRJk1gaO2sA4itKbS7DkVzF9L0SzbqjbTQZNZ2EK2O6lxJbZ_Nfjet6DSc-zjIOqYzrxlbEEwewRV07-8fIXgRvuQhODd3LC_d1L_g12Z79LUgcDc-LpRuffIszEhvNQ9JuNwN-NfyXBLYUeaiXvZvmpTN_CunpBiADIBKNzBjlBsbLK6-FKXfMi1ZytJ6bdAqFQ6a5zgcoWIb4MQ3b92GVZujnGphMoNKC2JGagPHcuN4MD2bqOrmvQdDdrfXo86Y2fooNBee7I-LaYMNwAzFEMomNDLU0IQ51Hgl-1YZvqKj67_wAYjXfYv68jUFhHwrqOQCj2owST1eDHrrj3y7skqQuUCnfr6WV57FuDtUztVWexv8d9sLAzW6tPrIsZMG5sEyj_Clq1]--></g></svg>