<?xml version="1.0" encoding="us-ascii" standalone="no"?><svg xmlns="http://www.w3.org/2000/svg" xmlns:xlink="http://www.w3.org/1999/xlink" contentStyleType="text/css" height="753px" preserveAspectRatio="none" style="width:1480px;height:753px;background:#FFFFFF;" version="1.1" viewBox="0 0 1480 753" width="1480px" zoomAndPan="magnify"><defs/><g><text fill="#000000" font-family="sans-serif" font-size="14" font-weight="bold" lengthAdjust="spacing" textLength="462" x="502" y="23.5352">UC37.1: Get list of Devices with Actuator Functionality by Room</text><!--cluster server--><g id="cluster_server"><path d="M8.5,43.4883 L53.5,43.4883 A3.75,3.75 0 0 1 56,45.9883 L63,65.9766 L1470.5,65.9766 A2.5,2.5 0 0 1 1473,68.4766 L1473,744.2883 A2.5,2.5 0 0 1 1470.5,746.7883 L8.5,746.7883 A2.5,2.5 0 0 1 6,744.2883 L6,45.9883 A2.5,2.5 0 0 1 8.5,43.4883 " fill="#D3D3D3" style="stroke:#000000;stroke-width:1.5;"/><line style="stroke:#000000;stroke-width:1.5;" x1="6" x2="63" y1="65.9766" y2="65.9766"/><text fill="#000000" font-family="sans-serif" font-size="14" font-weight="bold" lengthAdjust="spacing" textLength="44" x="10" y="59.0234">server</text></g><!--class ActuatorFunctionalityControllerWeb--><g id="elem_ActuatorFunctionalityControllerWeb"><rect codeLine="7" fill="#F1F1F1" height="113.9531" id="ActuatorFunctionalityControllerWeb" rx="2.5" ry="2.5" style="stroke:#181818;stroke-width:0.5;" width="1416" x="22" y="78.4883"/><ellipse cx="602.75" cy="94.4883" fill="#ADD1B2" rx="11" ry="11" style="stroke:#181818;stroke-width:1.0;"/><path d="M605.7231,100.1313 Q605.1421,100.4302 604.5029,100.5796 Q603.8638,100.729 603.1582,100.729 Q600.6514,100.729 599.3315,99.0771 Q598.0117,97.4253 598.0117,94.3042 Q598.0117,91.1748 599.3315,89.5229 Q600.6514,87.8711 603.1582,87.8711 Q603.8638,87.8711 604.5112,88.0205 Q605.1587,88.1699 605.7231,88.4688 L605.7231,91.1914 Q605.0923,90.6104 604.4988,90.3406 Q603.9053,90.0708 603.2744,90.0708 Q601.9297,90.0708 601.2449,91.1375 Q600.5601,92.2041 600.5601,94.3042 Q600.5601,96.396 601.2449,97.4626 Q601.9297,98.5293 603.2744,98.5293 Q603.9053,98.5293 604.4988,98.2595 Q605.0923,97.9897 605.7231,97.4087 Z " fill="#000000"/><text fill="#000000" font-family="sans-serif" font-size="14" lengthAdjust="spacing" textLength="246" x="623.25" y="99.7793">ActuatorFunctionalityControllerWeb</text><line style="stroke:#181818;stroke-width:0.5;" x1="23" x2="1437" y1="110.4883" y2="110.4883"/><rect fill="none" height="6" style="stroke:#C82930;stroke-width:1.0;" width="6" x="30" y="121.2324"/><text fill="#000000" font-family="sans-serif" font-size="14" lengthAdjust="spacing" textLength="396" x="42" y="128.0234">actuatorFunctionalityService: ActuatorFunctionalityService</text><rect fill="none" height="6" style="stroke:#C82930;stroke-width:1.0;" width="6" x="30" y="137.7207"/><text fill="#000000" font-family="sans-serif" font-size="14" lengthAdjust="spacing" textLength="325" x="42" y="144.5117">closeBlindRollerService: CloseBlindRollerService</text><line style="stroke:#181818;stroke-width:0.5;" x1="23" x2="1437" y1="151.4648" y2="151.4648"/><ellipse cx="33" cy="165.209" fill="#84BE84" rx="3" ry="3" style="stroke:#038048;stroke-width:1.0;"/><text fill="#000000" font-family="sans-serif" font-size="14" lengthAdjust="spacing" textLength="1390" x="42" y="169">GET getObjectByActuatorFunctionalityID(@PathVariable("id") String id, @RequestParam(value = "type", required = false) String type) : ResponseEntity&lt;Object&gt;(Collection.of(BlindRollerDTO), HttpStatus.OK)</text><rect fill="#F24D5C" height="6" style="stroke:#C82930;stroke-width:1.0;" width="6" x="30" y="178.6973"/><text fill="#000000" font-family="sans-serif" font-size="14" lengthAdjust="spacing" textLength="895" x="42" y="185.4883">getMapOfDeviceIDAndRoomIDAccordingToFunctionality(String id) : ResponseEntity&lt;Object&gt;(List&lt;BlindRollerDTO&gt;, HttpStatus.OK)</text></g><!--class ActuatorFunctionalityID--><g id="elem_ActuatorFunctionalityID"><rect codeLine="14" fill="#F1F1F1" height="64.4883" id="ActuatorFunctionalityID" rx="2.5" ry="2.5" style="stroke:#181818;stroke-width:0.5;" width="234" x="174" y="285.4183"/><ellipse cx="198" cy="301.4183" fill="#ADD1B2" rx="11" ry="11" style="stroke:#181818;stroke-width:1.0;"/><path d="M200.9731,307.0613 Q200.3921,307.3602 199.7529,307.5096 Q199.1138,307.659 198.4082,307.659 Q195.9014,307.659 194.5815,306.0071 Q193.2617,304.3553 193.2617,301.2342 Q193.2617,298.1048 194.5815,296.4529 Q195.9014,294.8011 198.4082,294.8011 Q199.1138,294.8011 199.7612,294.9505 Q200.4087,295.0999 200.9731,295.3987 L200.9731,298.1214 Q200.3423,297.5404 199.7488,297.2706 Q199.1553,297.0008 198.5244,297.0008 Q197.1797,297.0008 196.4949,298.0675 Q195.8101,299.1341 195.8101,301.2342 Q195.8101,303.326 196.4949,304.3926 Q197.1797,305.4593 198.5244,305.4593 Q199.1553,305.4593 199.7488,305.1895 Q200.3423,304.9197 200.9731,304.3387 Z " fill="#000000"/><text fill="#000000" font-family="sans-serif" font-size="14" lengthAdjust="spacing" textLength="161" x="214" y="306.7093">ActuatorFunctionalityID</text><rect fill="#FFFFFF" height="16.1328" style="stroke:#181818;stroke-width:1.0;stroke-dasharray:2.0,2.0;" width="19" x="392" y="282.4183"/><text fill="#000000" font-family="sans-serif" font-size="12" font-style="italic" lengthAdjust="spacing" textLength="17" x="393" y="295.0198">VO</text><line style="stroke:#181818;stroke-width:0.5;" x1="175" x2="407" y1="317.4183" y2="317.4183"/><rect fill="none" height="6" style="stroke:#C82930;stroke-width:1.0;" width="6" x="182" y="328.1624"/><text fill="#000000" font-family="sans-serif" font-size="14" lengthAdjust="spacing" textLength="208" x="194" y="334.9534">actuatorFunctionalityID: String</text><line style="stroke:#181818;stroke-width:0.5;" x1="175" x2="407" y1="341.9066" y2="341.9066"/></g><!--class CloseBlindRollerService--><g id="elem_CloseBlindRollerService"><rect codeLine="18" fill="#F1F1F1" height="130.4414" id="CloseBlindRollerService" rx="2.5" ry="2.5" style="stroke:#181818;stroke-width:0.5;" width="539" x="442.5" y="252.4383"/><ellipse cx="627.75" cy="268.4383" fill="#ADD1B2" rx="11" ry="11" style="stroke:#181818;stroke-width:1.0;"/><path d="M630.7231,274.0813 Q630.1421,274.3802 629.5029,274.5296 Q628.8638,274.679 628.1582,274.679 Q625.6514,274.679 624.3315,273.0271 Q623.0117,271.3753 623.0117,268.2542 Q623.0117,265.1248 624.3315,263.4729 Q625.6514,261.8211 628.1582,261.8211 Q628.8638,261.8211 629.5112,261.9705 Q630.1587,262.1199 630.7231,262.4187 L630.7231,265.1414 Q630.0923,264.5604 629.4988,264.2906 Q628.9053,264.0208 628.2744,264.0208 Q626.9297,264.0208 626.2449,265.0875 Q625.5601,266.1541 625.5601,268.2542 Q625.5601,270.346 626.2449,271.4126 Q626.9297,272.4793 628.2744,272.4793 Q628.9053,272.4793 629.4988,272.2095 Q630.0923,271.9397 630.7231,271.3587 Z " fill="#000000"/><text fill="#000000" font-family="sans-serif" font-size="14" lengthAdjust="spacing" textLength="160" x="648.25" y="273.7293">CloseBlindRollerService</text><line style="stroke:#181818;stroke-width:0.5;" x1="443.5" x2="980.5" y1="284.4383" y2="284.4383"/><rect fill="none" height="6" style="stroke:#C82930;stroke-width:1.0;" width="6" x="450.5" y="295.1824"/><text fill="#000000" font-family="sans-serif" font-size="14" lengthAdjust="spacing" textLength="241" x="462.5" y="301.9734">deviceRepository: DeviceRepository</text><rect fill="none" height="6" style="stroke:#C82930;stroke-width:1.0;" width="6" x="450.5" y="311.6707"/><text fill="#000000" font-family="sans-serif" font-size="14" lengthAdjust="spacing" textLength="270" x="462.5" y="318.4617">actuatorRepository: ActuatorRepository</text><line style="stroke:#181818;stroke-width:0.5;" x1="443.5" x2="980.5" y1="325.4148" y2="325.4148"/><ellipse cx="453.5" cy="347.4031" fill="#84BE84" rx="3" ry="3" style="stroke:#038048;stroke-width:1.0;"/><text fill="#000000" font-family="sans-serif" font-size="14" lengthAdjust="spacing" textLength="383" x="462.5" y="342.95">getMapOfDeviceIDAndRoomIDAccordingToFunctionality</text><text fill="#000000" font-family="sans-serif" font-size="14" lengthAdjust="spacing" textLength="513" x="462.5" y="359.4383">(ActuatorFunctionalityID actuatorFunctionalityID): Map&lt;DeviceID, RoomID&gt;</text><rect fill="#F24D5C" height="6" style="stroke:#C82930;stroke-width:1.0;" width="6" x="450.5" y="369.1355"/><text fill="#000000" font-family="sans-serif" font-size="14" lengthAdjust="spacing" textLength="273" x="462.5" y="375.9266">checkIfDeviceIsActive(DeviceID deviceID)</text></g><!--class DeviceID--><g id="elem_DeviceID"><rect codeLine="25" fill="#F1F1F1" height="64.4883" id="DeviceID" rx="2.5" ry="2.5" style="stroke:#181818;stroke-width:0.5;" width="132" x="22" y="442.8783"/><ellipse cx="46.45" cy="458.8783" fill="#ADD1B2" rx="11" ry="11" style="stroke:#181818;stroke-width:1.0;"/><path d="M49.4231,464.5213 Q48.8421,464.8202 48.2029,464.9696 Q47.5638,465.119 46.8582,465.119 Q44.3514,465.119 43.0315,463.4671 Q41.7117,461.8153 41.7117,458.6942 Q41.7117,455.5648 43.0315,453.9129 Q44.3514,452.2611 46.8582,452.2611 Q47.5638,452.2611 48.2112,452.4105 Q48.8587,452.5599 49.4231,452.8587 L49.4231,455.5814 Q48.7923,455.0004 48.1988,454.7306 Q47.6053,454.4608 46.9744,454.4608 Q45.6297,454.4608 44.9449,455.5275 Q44.2601,456.5941 44.2601,458.6942 Q44.2601,460.786 44.9449,461.8526 Q45.6297,462.9193 46.9744,462.9193 Q47.6053,462.9193 48.1988,462.6495 Q48.7923,462.3797 49.4231,461.7987 Z " fill="#000000"/><text fill="#000000" font-family="sans-serif" font-size="14" lengthAdjust="spacing" textLength="58" x="62.55" y="464.1693">DeviceID</text><rect fill="#FFFFFF" height="16.1328" style="stroke:#181818;stroke-width:1.0;stroke-dasharray:2.0,2.0;" width="19" x="138" y="439.8783"/><text fill="#000000" font-family="sans-serif" font-size="12" font-style="italic" lengthAdjust="spacing" textLength="17" x="139" y="452.4798">VO</text><line style="stroke:#181818;stroke-width:0.5;" x1="23" x2="153" y1="474.8783" y2="474.8783"/><rect fill="none" height="6" style="stroke:#C82930;stroke-width:1.0;" width="6" x="30" y="485.6224"/><text fill="#000000" font-family="sans-serif" font-size="14" lengthAdjust="spacing" textLength="106" x="42" y="492.4134">deviceID: String</text><line style="stroke:#181818;stroke-width:0.5;" x1="23" x2="153" y1="499.3666" y2="499.3666"/></g><!--class RoomID--><g id="elem_RoomID"><rect codeLine="29" fill="#F1F1F1" height="64.4883" id="RoomID" rx="2.5" ry="2.5" style="stroke:#181818;stroke-width:0.5;" width="126" x="189" y="442.8783"/><ellipse cx="212.55" cy="458.8783" fill="#ADD1B2" rx="11" ry="11" style="stroke:#181818;stroke-width:1.0;"/><path d="M215.5231,464.5213 Q214.9421,464.8202 214.3029,464.9696 Q213.6638,465.119 212.9582,465.119 Q210.4514,465.119 209.1315,463.4671 Q207.8117,461.8153 207.8117,458.6942 Q207.8117,455.5648 209.1315,453.9129 Q210.4514,452.2611 212.9582,452.2611 Q213.6638,452.2611 214.3112,452.4105 Q214.9587,452.5599 215.5231,452.8587 L215.5231,455.5814 Q214.8923,455.0004 214.2988,454.7306 Q213.7053,454.4608 213.0744,454.4608 Q211.7297,454.4608 211.0449,455.5275 Q210.3601,456.5941 210.3601,458.6942 Q210.3601,460.786 211.0449,461.8526 Q211.7297,462.9193 213.0744,462.9193 Q213.7053,462.9193 214.2988,462.6495 Q214.8923,462.3797 215.5231,461.7987 Z " fill="#000000"/><text fill="#000000" font-family="sans-serif" font-size="14" lengthAdjust="spacing" textLength="54" x="228.45" y="464.1693">RoomID</text><rect fill="#FFFFFF" height="16.1328" style="stroke:#181818;stroke-width:1.0;stroke-dasharray:2.0,2.0;" width="19" x="299" y="439.8783"/><text fill="#000000" font-family="sans-serif" font-size="12" font-style="italic" lengthAdjust="spacing" textLength="17" x="300" y="452.4798">VO</text><line style="stroke:#181818;stroke-width:0.5;" x1="190" x2="314" y1="474.8783" y2="474.8783"/><rect fill="none" height="6" style="stroke:#C82930;stroke-width:1.0;" width="6" x="197" y="485.6224"/><text fill="#000000" font-family="sans-serif" font-size="14" lengthAdjust="spacing" textLength="100" x="209" y="492.4134">roomID: String</text><line style="stroke:#181818;stroke-width:0.5;" x1="190" x2="314" y1="499.3666" y2="499.3666"/></g><!--class ActuatorRepository--><g id="elem_ActuatorRepository"><rect codeLine="33" fill="#F1F1F1" height="64.4883" id="ActuatorRepository" rx="2.5" ry="2.5" style="stroke:#181818;stroke-width:0.5;" width="690" x="350" y="442.8783"/><ellipse cx="609.25" cy="458.8783" fill="#B4A7E5" rx="11" ry="11" style="stroke:#181818;stroke-width:1.0;"/><path d="M605.1777,454.6434 L605.1777,452.4852 L612.5571,452.4852 L612.5571,454.6434 L610.0918,454.6434 L610.0918,462.7201 L612.5571,462.7201 L612.5571,464.8783 L605.1777,464.8783 L605.1777,462.7201 L607.6431,462.7201 L607.6431,454.6434 Z " fill="#000000"/><text fill="#000000" font-family="sans-serif" font-size="14" font-style="italic" lengthAdjust="spacing" textLength="132" x="629.75" y="464.1693">ActuatorRepository</text><rect fill="#FFFFFF" height="16.1328" style="stroke:#181818;stroke-width:1.0;stroke-dasharray:2.0,2.0;" width="29" x="1014" y="439.8783"/><text fill="#000000" font-family="sans-serif" font-size="12" font-style="italic" lengthAdjust="spacing" textLength="27" x="1015" y="452.4798">repo</text><line style="stroke:#181818;stroke-width:0.5;" x1="351" x2="1039" y1="474.8783" y2="474.8783"/><line style="stroke:#181818;stroke-width:0.5;" x1="351" x2="1039" y1="482.8783" y2="482.8783"/><ellipse cx="361" cy="496.6224" fill="#84BE84" rx="3" ry="3" style="stroke:#038048;stroke-width:1.0;"/><text fill="#000000" font-family="sans-serif" font-size="14" lengthAdjust="spacing" textLength="664" x="370" y="500.4134">findByActuatorFunctionality(ActuatorFunctionalityID actuatorFunctionalityID): Iterable&lt;Actuator&gt;</text></g><!--class Actuator--><g id="elem_Actuator"><rect codeLine="37" fill="#F1F1F1" height="130.4414" id="Actuator" rx="2.5" ry="2.5" style="stroke:#181818;stroke-width:0.5;" width="354" x="518" y="583.8583"/><ellipse cx="647.75" cy="599.8583" fill="#ADD1B2" rx="11" ry="11" style="stroke:#181818;stroke-width:1.0;"/><path d="M650.7231,605.5013 Q650.1421,605.8002 649.5029,605.9496 Q648.8638,606.099 648.1582,606.099 Q645.6514,606.099 644.3315,604.4471 Q643.0117,602.7953 643.0117,599.6742 Q643.0117,596.5448 644.3315,594.8929 Q645.6514,593.2411 648.1582,593.2411 Q648.8638,593.2411 649.5112,593.3905 Q650.1587,593.5399 650.7231,593.8387 L650.7231,596.5614 Q650.0923,595.9804 649.4988,595.7106 Q648.9053,595.4408 648.2744,595.4408 Q646.9297,595.4408 646.2449,596.5075 Q645.5601,597.5741 645.5601,599.6742 Q645.5601,601.766 646.2449,602.8326 Q646.9297,603.8993 648.2744,603.8993 Q648.9053,603.8993 649.4988,603.6295 Q650.0923,603.3597 650.7231,602.7787 Z " fill="#000000"/><text fill="#000000" font-family="sans-serif" font-size="14" lengthAdjust="spacing" textLength="59" x="668.25" y="605.1493">Actuator</text><rect fill="#FFFFFF" height="16.1328" style="stroke:#181818;stroke-width:1.0;stroke-dasharray:2.0,2.0;" width="25" x="850" y="580.8583"/><text fill="#000000" font-family="sans-serif" font-size="12" font-style="italic" lengthAdjust="spacing" textLength="23" x="851" y="593.4598">root</text><line style="stroke:#181818;stroke-width:0.5;" x1="519" x2="871" y1="615.8583" y2="615.8583"/><rect fill="none" height="6" style="stroke:#C82930;stroke-width:1.0;" width="6" x="526" y="626.6024"/><text fill="#000000" font-family="sans-serif" font-size="14" lengthAdjust="spacing" textLength="152" x="538" y="633.3934">actuatorID: ActuatorID</text><rect fill="none" height="6" style="stroke:#C82930;stroke-width:1.0;" width="6" x="526" y="643.0907"/><text fill="#000000" font-family="sans-serif" font-size="14" lengthAdjust="spacing" textLength="264" x="538" y="649.8817">actuatorProperties: ActuatorProperties</text><rect fill="none" height="6" style="stroke:#C82930;stroke-width:1.0;" width="6" x="526" y="659.579"/><text fill="#000000" font-family="sans-serif" font-size="14" lengthAdjust="spacing" textLength="148" x="538" y="666.37">deviceName: DeviceID</text><rect fill="none" height="6" style="stroke:#C82930;stroke-width:1.0;" width="6" x="526" y="676.0673"/><text fill="#000000" font-family="sans-serif" font-size="14" lengthAdjust="spacing" textLength="328" x="538" y="682.8583">actuatorFunctionalityID: ActuatorFunctionalityID</text><line style="stroke:#181818;stroke-width:0.5;" x1="519" x2="871" y1="689.8114" y2="689.8114"/><ellipse cx="529" cy="703.5555" fill="#84BE84" rx="3" ry="3" style="stroke:#038048;stroke-width:1.0;"/><text fill="#000000" font-family="sans-serif" font-size="14" lengthAdjust="spacing" textLength="181" x="538" y="707.3466">getDeviceName(): DeviceID</text></g><!--class DeviceRepository--><g id="elem_DeviceRepository"><rect codeLine="45" fill="#F1F1F1" height="64.4883" id="DeviceRepository" rx="2.5" ry="2.5" style="stroke:#181818;stroke-width:0.5;" width="382" x="1075" y="442.8783"/><ellipse cx="1187.75" cy="458.8783" fill="#B4A7E5" rx="11" ry="11" style="stroke:#181818;stroke-width:1.0;"/><path d="M1183.6777,454.6434 L1183.6777,452.4852 L1191.0571,452.4852 L1191.0571,454.6434 L1188.5918,454.6434 L1188.5918,462.7201 L1191.0571,462.7201 L1191.0571,464.8783 L1183.6777,464.8783 L1183.6777,462.7201 L1186.1431,462.7201 L1186.1431,454.6434 Z " fill="#000000"/><text fill="#000000" font-family="sans-serif" font-size="14" font-style="italic" lengthAdjust="spacing" textLength="117" x="1208.25" y="464.1693">DeviceRepository</text><rect fill="#FFFFFF" height="16.1328" style="stroke:#181818;stroke-width:1.0;stroke-dasharray:2.0,2.0;" width="29" x="1431" y="439.8783"/><text fill="#000000" font-family="sans-serif" font-size="12" font-style="italic" lengthAdjust="spacing" textLength="27" x="1432" y="452.4798">repo</text><line style="stroke:#181818;stroke-width:0.5;" x1="1076" x2="1456" y1="474.8783" y2="474.8783"/><line style="stroke:#181818;stroke-width:0.5;" x1="1076" x2="1456" y1="482.8783" y2="482.8783"/><ellipse cx="1086" cy="496.6224" fill="#84BE84" rx="3" ry="3" style="stroke:#038048;stroke-width:1.0;"/><text fill="#000000" font-family="sans-serif" font-size="14" lengthAdjust="spacing" textLength="356" x="1095" y="500.4134">findEntityByID(DeviceID deviceID): Optional&lt;Device&gt;</text></g><!--class Device--><g id="elem_Device"><rect codeLine="49" fill="#F1F1F1" height="163.418" id="Device" rx="2.5" ry="2.5" style="stroke:#181818;stroke-width:0.5;" width="205" x="1163.5" y="567.3683"/><ellipse cx="1226.25" cy="583.3683" fill="#ADD1B2" rx="11" ry="11" style="stroke:#181818;stroke-width:1.0;"/><path d="M1229.2231,589.0113 Q1228.6421,589.3102 1228.0029,589.4596 Q1227.3638,589.609 1226.6582,589.609 Q1224.1514,589.609 1222.8315,587.9571 Q1221.5117,586.3053 1221.5117,583.1842 Q1221.5117,580.0548 1222.8315,578.4029 Q1224.1514,576.7511 1226.6582,576.7511 Q1227.3638,576.7511 1228.0112,576.9005 Q1228.6587,577.0499 1229.2231,577.3488 L1229.2231,580.0714 Q1228.5923,579.4904 1227.9988,579.2206 Q1227.4053,578.9508 1226.7744,578.9508 Q1225.4297,578.9508 1224.7449,580.0175 Q1224.0601,581.0841 1224.0601,583.1842 Q1224.0601,585.276 1224.7449,586.3426 Q1225.4297,587.4093 1226.7744,587.4093 Q1227.4053,587.4093 1227.9988,587.1395 Q1228.5923,586.8697 1229.2231,586.2887 Z " fill="#000000"/><text fill="#000000" font-family="sans-serif" font-size="14" lengthAdjust="spacing" textLength="44" x="1246.75" y="588.6593">Device</text><rect fill="#FFFFFF" height="16.1328" style="stroke:#181818;stroke-width:1.0;stroke-dasharray:2.0,2.0;" width="25" x="1346.5" y="564.3683"/><text fill="#000000" font-family="sans-serif" font-size="12" font-style="italic" lengthAdjust="spacing" textLength="23" x="1347.5" y="576.9698">root</text><line style="stroke:#181818;stroke-width:0.5;" x1="1164.5" x2="1367.5" y1="599.3683" y2="599.3683"/><rect fill="none" height="6" style="stroke:#C82930;stroke-width:1.0;" width="6" x="1171.5" y="610.1124"/><text fill="#000000" font-family="sans-serif" font-size="14" lengthAdjust="spacing" textLength="123" x="1183.5" y="616.9034">deviceID: DeviceID</text><rect fill="none" height="6" style="stroke:#C82930;stroke-width:1.0;" width="6" x="1171.5" y="626.6007"/><text fill="#000000" font-family="sans-serif" font-size="14" lengthAdjust="spacing" textLength="179" x="1183.5" y="633.3917">deviceModel: DeviceModel</text><rect fill="none" height="6" style="stroke:#C82930;stroke-width:1.0;" width="6" x="1171.5" y="643.089"/><text fill="#000000" font-family="sans-serif" font-size="14" lengthAdjust="spacing" textLength="179" x="1183.5" y="649.88">deviceStatus: DeviceStatus</text><rect fill="none" height="6" style="stroke:#C82930;stroke-width:1.0;" width="6" x="1171.5" y="659.5773"/><text fill="#000000" font-family="sans-serif" font-size="14" lengthAdjust="spacing" textLength="113" x="1183.5" y="666.3683">roomID: RoomID</text><line style="stroke:#181818;stroke-width:0.5;" x1="1164.5" x2="1367.5" y1="673.3214" y2="673.3214"/><ellipse cx="1174.5" cy="687.0655" fill="#84BE84" rx="3" ry="3" style="stroke:#038048;stroke-width:1.0;"/><text fill="#000000" font-family="sans-serif" font-size="14" lengthAdjust="spacing" textLength="127" x="1183.5" y="690.8566">identity(): DeviceID</text><ellipse cx="1174.5" cy="703.5538" fill="#84BE84" rx="3" ry="3" style="stroke:#038048;stroke-width:1.0;"/><text fill="#000000" font-family="sans-serif" font-size="14" lengthAdjust="spacing" textLength="148" x="1183.5" y="707.3448">getRoomID(): RoomID</text><ellipse cx="1174.5" cy="720.0421" fill="#84BE84" rx="3" ry="3" style="stroke:#038048;stroke-width:1.0;"/><text fill="#000000" font-family="sans-serif" font-size="14" lengthAdjust="spacing" textLength="126" x="1183.5" y="723.8331">isActive(): boolean</text></g><!--link ActuatorFunctionalityControllerWeb to ActuatorFunctionalityID--><g id="link_ActuatorFunctionalityControllerWeb_ActuatorFunctionalityID"><path codeLine="61" d="M291,192.6083 C291,223.0883 291,253.4783 291,279.1183 " fill="none" id="ActuatorFunctionalityControllerWeb-to-ActuatorFunctionalityID" style="stroke:#181818;stroke-width:1.0;stroke-dasharray:7.0,7.0;"/><polygon fill="#181818" points="291,285.1183,295,276.1183,291,280.1183,287,276.1183,291,285.1183" style="stroke:#181818;stroke-width:1.0;"/><text fill="#000000" font-family="sans-serif" font-size="13" lengthAdjust="spacing" textLength="59" x="231" y="235.4366">&#171;creates&#187;</text></g><!--link ActuatorFunctionalityControllerWeb to CloseBlindRollerService--><g id="link_ActuatorFunctionalityControllerWeb_CloseBlindRollerService"><path codeLine="62" d="M712,192.6083 C712,211.4983 712,232.6683 712,252.1283 " fill="none" id="ActuatorFunctionalityControllerWeb-CloseBlindRollerService" style="stroke:#181818;stroke-width:1.0;"/></g><!--link CloseBlindRollerService to ActuatorRepository--><g id="link_CloseBlindRollerService_ActuatorRepository"><path codeLine="63" d="M712,383.0683 C712,403.5183 712,425.2083 712,442.3883 " fill="none" id="CloseBlindRollerService-ActuatorRepository" style="stroke:#181818;stroke-width:1.0;"/></g><!--link CloseBlindRollerService to DeviceRepository--><g id="link_CloseBlindRollerService_DeviceRepository"><path codeLine="64" d="M981.86,317.7883 C1118.78,317.7883 1256.5,317.7883 1256.5,317.7883 C1256.5,317.7883 1256.5,396.4383 1256.5,442.5283 " fill="none" id="CloseBlindRollerService-DeviceRepository" style="stroke:#181818;stroke-width:1.0;"/></g><!--link CloseBlindRollerService to RoomID--><g id="link_CloseBlindRollerService_RoomID"><path codeLine="65" d="M442.09,372.7883 C341.82,372.7883 252,372.7883 252,372.7883 C252,372.7883 252,406.5183 252,436.4683 " fill="none" id="CloseBlindRollerService-to-RoomID" style="stroke:#181818;stroke-width:1.0;stroke-dasharray:7.0,7.0;"/><polygon fill="#181818" points="252,442.4683,256,433.4683,252,437.4683,248,433.4683,252,442.4683" style="stroke:#181818;stroke-width:1.0;"/><text fill="#000000" font-family="sans-serif" font-size="13" lengthAdjust="spacing" textLength="43" x="268.21" y="369.3566">&#171;uses&#187;</text></g><!--link CloseBlindRollerService to DeviceID--><g id="link_CloseBlindRollerService_DeviceID"><path codeLine="66" d="M442.39,361.7883 C273.62,361.7883 88,361.7883 88,361.7883 C88,361.7883 88,403.1583 88,436.6483 " fill="none" id="CloseBlindRollerService-to-DeviceID" style="stroke:#181818;stroke-width:1.0;stroke-dasharray:7.0,7.0;"/><polygon fill="#181818" points="88,442.6483,92,433.6483,88,437.6483,84,433.6483,88,442.6483" style="stroke:#181818;stroke-width:1.0;"/><text fill="#000000" font-family="sans-serif" font-size="13" lengthAdjust="spacing" textLength="43" x="180.76" y="375.3566">&#171;uses&#187;</text></g><!--link ActuatorRepository to Actuator--><g id="link_ActuatorRepository_Actuator"><path codeLine="67" d="M695,507.8483 C695,529.1083 695,557.5583 695,583.3583 " fill="none" id="ActuatorRepository-Actuator" style="stroke:#181818;stroke-width:1.0;"/></g><!--link DeviceRepository to Device--><g id="link_DeviceRepository_Device"><path codeLine="68" d="M1266,507.8483 C1266,524.6783 1266,546.0183 1266,566.9783 " fill="none" id="DeviceRepository-Device" style="stroke:#181818;stroke-width:1.0;"/></g><!--SRC=[dLLTRvim57tdLrnb3oDgachQmoJ4KDFGTT7MfKgxxcKl3jmaNXtCR9C9JVllip4G227gbYVYU-x7EVSONc-LIgLtUPaoagXinoOHtrr6Z4WvZYdP2B9pv3DDKgAVWD44LPuYSA6st74KLGpXw-pjkyaR3svHQOHKmDSGufv6AE4NLLkOHYeZYWlua2MHeZmXZAeSLZaiETyvJagYPx91a2ZsAE3LPxhPgbj1SlZj5AFK5Le5PZnHWZE6uXkkD1JqRqnE8HzqOJsETxfE6RNv4UCIhpNHU5cKhbDdfmCcw-BsvX4sg1Qh7nYfw_nabtdeNjqJjNqYWf8LGtT0uy4G7fIWoGPeF8Ah9VxCKAfxexMx9on3U0y38_XW1487gS1O7wq9arYdclWGF5YYJ7aYyIRHQybzEqpWpioqnHWJldOR1CB7nN047_N-7nHHcPmiFWqDcx5cSaVInThkS1vEJGRVwOSeuYBMFHzvYvfRapWpnsVj3B_TFkYq_-ESM_Wy1Fzf4PpRz3pqIbqEjNesLpa6ueBd4bCkgQwNUwLx3oSbiEhOX4uxPmNuufz5_9wuVQHxc0uzq2tygiC8R8EWDF8Me-TvrL_gsdIFRWKkIUiY1vtgM4Fa2jPLrJPhOaLnqaJIHA5O4wrrLoRmXNukSo_MUZiz5-S_P9dhjkQE-LLgq7MMxi-vAliVt6G8JElde-2zu2aAHL4UG8Up4cmb-q9swDMI7jNfMBQ7eaqpNWhhekxmg6nBvsFdTbMsr_BQl8-wPl1WaTh-fQs2OtkqP6lOepLIUNx7OsHLgFZJZDfhNuNjlxQHhCNiw3J6Ol0EVQEE1PfGAwKolJvVSSwG99gDvkEyu7CocGHzM_70zoE1HA4CWfVK6ezxlnvzxoQTSkBDSWRTUMNrOGsnPIcmxsUo874E7DOxhk4dRdDZOATZmdg-lm00]--></g></svg>