<?xml version="1.0" encoding="us-ascii" standalone="no"?><svg xmlns="http://www.w3.org/2000/svg" xmlns:xlink="http://www.w3.org/1999/xlink" contentStyleType="text/css" height="1038px" preserveAspectRatio="none" style="width:1361px;height:1038px;background:#FFFFFF;" version="1.1" viewBox="0 0 1361 1038" width="1361px" zoomAndPan="magnify"><defs/><g><text fill="#000000" font-family="sans-serif" font-size="14" font-weight="bold" lengthAdjust="spacing" textLength="146" x="600.5" y="25.1074">UC38: List Sun Hours</text><!--cluster server--><g id="cluster_server"><path d="M8.5,45.6348 L56.5,45.6348 A3.75,3.75 0 0 1 59,48.1348 L66,70.2559 L1351.5,70.2559 A2.5,2.5 0 0 1 1354,72.7559 L1354,1029.1348 A2.5,2.5 0 0 1 1351.5,1031.6348 L8.5,1031.6348 A2.5,2.5 0 0 1 6,1029.1348 L6,48.1348 A2.5,2.5 0 0 1 8.5,45.6348 " fill="#D3D3D3" style="stroke:#000000;stroke-width:1.5;"/><line style="stroke:#000000;stroke-width:1.5;" x1="6" x2="66" y1="70.2559" y2="70.2559"/><text fill="#000000" font-family="sans-serif" font-size="14" font-weight="bold" lengthAdjust="spacing" textLength="47" x="10" y="62.7422">server</text></g><!--class HouseControllerWeb--><g id="elem_HouseControllerWeb"><rect codeLine="7" fill="#F1F1F1" height="252.832" id="HouseControllerWeb" rx="2.5" ry="2.5" style="stroke:#181818;stroke-width:0.5;" width="526" x="666" y="82.6348"/><ellipse cx="859.25" cy="98.6348" fill="#ADD1B2" rx="11" ry="11" style="stroke:#181818;stroke-width:1.0;"/><path d="M862.0156,94.5098 Q862.1719,94.291 862.3594,94.1816 Q862.5469,94.0723 862.7656,94.0723 Q863.1406,94.0723 863.375,94.3379 Q863.6094,94.5879 863.6094,95.1973 L863.6094,96.6504 Q863.6094,97.2598 863.375,97.5254 Q863.1406,97.791 862.7656,97.791 Q862.4219,97.791 862.2188,97.5879 Q862.0156,97.4004 861.9063,96.8848 Q861.8594,96.5254 861.6719,96.3379 Q861.3438,95.9629 860.7344,95.7441 Q860.125,95.5254 859.5,95.5254 Q858.7344,95.5254 858.0938,95.8535 Q857.4688,96.1816 856.9688,96.9316 Q856.4844,97.6816 856.4844,98.7129 L856.4844,99.8066 Q856.4844,101.041 857.375,101.8691 Q858.2656,102.6816 859.8594,102.6816 Q860.7969,102.6816 861.4531,102.4316 Q861.8438,102.2754 862.2656,101.8379 Q862.5313,101.5723 862.6719,101.4941 Q862.8281,101.416 863.0313,101.416 Q863.3594,101.416 863.6094,101.6816 Q863.875,101.9316 863.875,102.2754 Q863.875,102.6191 863.5313,103.0254 Q863.0313,103.6035 862.2344,103.9316 Q861.1563,104.3848 859.8594,104.3848 Q858.3438,104.3848 857.1406,103.7598 Q856.1563,103.2598 855.4688,102.1973 Q854.7813,101.1191 854.7813,99.8379 L854.7813,98.6816 Q854.7813,97.3535 855.3906,96.2129 Q856.0156,95.0566 857.1094,94.4473 Q858.2031,93.8223 859.4375,93.8223 Q860.1719,93.8223 860.8125,93.9941 Q861.4688,94.1504 862.0156,94.5098 Z " fill="#000000"/><text fill="#000000" font-family="sans-serif" font-size="14" lengthAdjust="spacing" textLength="131" x="879.75" y="104.4316">HouseControllerWeb</text><line style="stroke:#181818;stroke-width:0.5;" x1="667" x2="1191" y1="114.6348" y2="114.6348"/><rect fill="none" height="6" style="stroke:#C82930;stroke-width:1.0;" width="6" x="674" y="126.4453"/><text fill="#000000" font-family="sans-serif" font-size="14" lengthAdjust="spacing" textLength="181" x="686" y="133.7422">houseService: HouseService</text><rect fill="none" height="6" style="stroke:#C82930;stroke-width:1.0;" width="6" x="674" y="145.0664"/><text fill="#000000" font-family="sans-serif" font-size="14" lengthAdjust="spacing" textLength="113" x="686" y="152.3633">houseID: HouseID</text><rect fill="none" height="6" style="stroke:#C82930;stroke-width:1.0;" width="6" x="674" y="163.6875"/><text fill="#000000" font-family="sans-serif" font-size="14" lengthAdjust="spacing" textLength="171" x="686" y="170.9844">roomService: RoomService</text><rect fill="none" height="6" style="stroke:#C82930;stroke-width:1.0;" width="6" x="674" y="182.3086"/><text fill="#000000" font-family="sans-serif" font-size="14" lengthAdjust="spacing" textLength="499" x="686" y="189.6055">listDevicesByFunctionalityService: ListAllDevicesInHouseByFunctionalityService</text><rect fill="none" height="6" style="stroke:#C82930;stroke-width:1.0;" width="6" x="674" y="200.9297"/><text fill="#000000" font-family="sans-serif" font-size="14" lengthAdjust="spacing" textLength="233" x="686" y="208.2266">roomMapperDTO: RoomMapperDTO</text><rect fill="none" height="6" style="stroke:#C82930;stroke-width:1.0;" width="6" x="674" y="219.5508"/><text fill="#000000" font-family="sans-serif" font-size="14" lengthAdjust="spacing" textLength="248" x="686" y="226.8477">deviceMapperDTO: DeviceMapperDTO</text><rect fill="none" height="6" style="stroke:#C82930;stroke-width:1.0;" width="6" x="674" y="238.1719"/><text fill="#000000" font-family="sans-serif" font-size="14" lengthAdjust="spacing" textLength="429" x="686" y="245.4688">actuatorFunctionalityMapperDTO: ActuatorFunctionalityMapperDTO</text><rect fill="none" height="6" style="stroke:#C82930;stroke-width:1.0;" width="6" x="674" y="256.793"/><text fill="#000000" font-family="sans-serif" font-size="14" lengthAdjust="spacing" textLength="412" x="686" y="264.0898">sensorFunctionalityMapperDTO: SensorFunctionalityMapperDTO</text><rect fill="none" height="6" style="stroke:#C82930;stroke-width:1.0;" width="6" x="674" y="275.4141"/><text fill="#000000" font-family="sans-serif" font-size="14" lengthAdjust="spacing" textLength="172" x="686" y="282.7109">valueService: ValueService</text><rect fill="none" height="6" style="stroke:#C82930;stroke-width:1.0;" width="6" x="674" y="294.0352"/><text fill="#000000" font-family="sans-serif" font-size="14" lengthAdjust="spacing" textLength="248" x="686" y="301.332">weatherAPIService: WeatherAPIService</text><line style="stroke:#181818;stroke-width:0.5;" x1="667" x2="1191" y1="308.8457" y2="308.8457"/><ellipse cx="677" cy="323.6563" fill="#84BE84" rx="3" ry="3" style="stroke:#038048;stroke-width:1.0;"/><text fill="#000000" font-family="sans-serif" font-size="14" lengthAdjust="spacing" textLength="500" x="686" y="327.9531">GET getWeatherInfo(@RequestParam String option): ResponseEntity&lt;Double&gt;</text></g><!--class WeatherAPIService--><g id="elem_WeatherAPIService"><rect codeLine="21" fill="#F1F1F1" height="196.9688" id="WeatherAPIService" rx="2.5" ry="2.5" style="stroke:#181818;stroke-width:0.5;" width="313" x="772.5" y="396.6348"/><ellipse cx="863.75" cy="412.6348" fill="#ADD1B2" rx="11" ry="11" style="stroke:#181818;stroke-width:1.0;"/><path d="M866.5156,408.5098 Q866.6719,408.291 866.8594,408.1816 Q867.0469,408.0723 867.2656,408.0723 Q867.6406,408.0723 867.875,408.3379 Q868.1094,408.5879 868.1094,409.1973 L868.1094,410.6504 Q868.1094,411.2598 867.875,411.5254 Q867.6406,411.791 867.2656,411.791 Q866.9219,411.791 866.7188,411.5879 Q866.5156,411.4004 866.4063,410.8848 Q866.3594,410.5254 866.1719,410.3379 Q865.8438,409.9629 865.2344,409.7441 Q864.625,409.5254 864,409.5254 Q863.2344,409.5254 862.5938,409.8535 Q861.9688,410.1816 861.4688,410.9316 Q860.9844,411.6816 860.9844,412.7129 L860.9844,413.8066 Q860.9844,415.041 861.875,415.8691 Q862.7656,416.6816 864.3594,416.6816 Q865.2969,416.6816 865.9531,416.4316 Q866.3438,416.2754 866.7656,415.8379 Q867.0313,415.5723 867.1719,415.4941 Q867.3281,415.416 867.5313,415.416 Q867.8594,415.416 868.1094,415.6816 Q868.375,415.9316 868.375,416.2754 Q868.375,416.6191 868.0313,417.0254 Q867.5313,417.6035 866.7344,417.9316 Q865.6563,418.3848 864.3594,418.3848 Q862.8438,418.3848 861.6406,417.7598 Q860.6563,417.2598 859.9688,416.1973 Q859.2813,415.1191 859.2813,413.8379 L859.2813,412.6816 Q859.2813,411.3535 859.8906,410.2129 Q860.5156,409.0566 861.6094,408.4473 Q862.7031,407.8223 863.9375,407.8223 Q864.6719,407.8223 865.3125,407.9941 Q865.9688,408.1504 866.5156,408.5098 Z " fill="#000000"/><text fill="#000000" font-family="sans-serif" font-size="14" lengthAdjust="spacing" textLength="122" x="884.25" y="418.4316">WeatherAPIService</text><line style="stroke:#181818;stroke-width:0.5;" x1="773.5" x2="1084.5" y1="428.6348" y2="428.6348"/><rect fill="none" height="6" style="stroke:#C82930;stroke-width:1.0;" width="6" x="780.5" y="440.4453"/><text fill="#000000" font-family="sans-serif" font-size="14" lengthAdjust="spacing" textLength="264" x="792.5" y="447.7422">weatherAPIGateway: WeatherAPIGateway</text><rect fill="none" height="6" style="stroke:#C82930;stroke-width:1.0;" width="6" x="780.5" y="459.0664"/><text fill="#000000" font-family="sans-serif" font-size="14" lengthAdjust="spacing" textLength="203" x="792.5" y="466.3633">configScrapper: ConfigScrapper</text><rect fill="none" height="6" style="stroke:#C82930;stroke-width:1.0;" width="6" x="780.5" y="477.6875"/><text fill="#000000" font-family="sans-serif" font-size="14" lengthAdjust="spacing" textLength="223" x="792.5" y="484.9844">houseRepository: HouseRepository</text><rect fill="none" height="6" style="stroke:#C82930;stroke-width:1.0;" width="6" x="780.5" y="496.3086"/><text fill="#000000" font-family="sans-serif" font-size="14" lengthAdjust="spacing" textLength="287" x="792.5" y="503.6055">valueRepository: InstantTimeValueRepository</text><rect fill="none" height="6" style="stroke:#C82930;stroke-width:1.0;" width="6" x="780.5" y="514.9297"/><text fill="#000000" font-family="sans-serif" font-size="14" lengthAdjust="spacing" textLength="97" x="792.5" y="522.2266">latitude: double</text><rect fill="none" height="6" style="stroke:#C82930;stroke-width:1.0;" width="6" x="780.5" y="533.5508"/><text fill="#000000" font-family="sans-serif" font-size="14" lengthAdjust="spacing" textLength="109" x="792.5" y="540.8477">longitude: double</text><line style="stroke:#181818;stroke-width:0.5;" x1="773.5" x2="1084.5" y1="548.3613" y2="548.3613"/><rect fill="#F24D5C" height="6" style="stroke:#C82930;stroke-width:1.0;" width="6" x="780.5" y="560.1719"/><text fill="#000000" font-family="sans-serif" font-size="14" lengthAdjust="spacing" textLength="206" x="792.5" y="567.4688">defineGroupHouseLocation(): int</text><ellipse cx="783.5" cy="581.793" fill="#84BE84" rx="3" ry="3" style="stroke:#038048;stroke-width:1.0;"/><text fill="#000000" font-family="sans-serif" font-size="14" lengthAdjust="spacing" textLength="283" x="792.5" y="586.0898">getSunriseSunsetHour(String option): double</text></g><!--class ConfigScraper--><g id="elem_ConfigScraper"><rect codeLine="32" fill="#F1F1F1" height="159.7266" id="ConfigScraper" rx="2.5" ry="2.5" style="stroke:#181818;stroke-width:0.5;" width="211" x="1008.5" y="672.6348"/><ellipse cx="1064.25" cy="688.6348" fill="#ADD1B2" rx="11" ry="11" style="stroke:#181818;stroke-width:1.0;"/><path d="M1067.0156,684.5098 Q1067.1719,684.291 1067.3594,684.1816 Q1067.5469,684.0723 1067.7656,684.0723 Q1068.1406,684.0723 1068.375,684.3379 Q1068.6094,684.5879 1068.6094,685.1973 L1068.6094,686.6504 Q1068.6094,687.2598 1068.375,687.5254 Q1068.1406,687.791 1067.7656,687.791 Q1067.4219,687.791 1067.2188,687.5879 Q1067.0156,687.4004 1066.9063,686.8848 Q1066.8594,686.5254 1066.6719,686.3379 Q1066.3438,685.9629 1065.7344,685.7441 Q1065.125,685.5254 1064.5,685.5254 Q1063.7344,685.5254 1063.0938,685.8535 Q1062.4688,686.1816 1061.9688,686.9316 Q1061.4844,687.6816 1061.4844,688.7129 L1061.4844,689.8066 Q1061.4844,691.041 1062.375,691.8691 Q1063.2656,692.6816 1064.8594,692.6816 Q1065.7969,692.6816 1066.4531,692.4316 Q1066.8438,692.2754 1067.2656,691.8379 Q1067.5313,691.5723 1067.6719,691.4941 Q1067.8281,691.416 1068.0313,691.416 Q1068.3594,691.416 1068.6094,691.6816 Q1068.875,691.9316 1068.875,692.2754 Q1068.875,692.6191 1068.5313,693.0254 Q1068.0313,693.6035 1067.2344,693.9316 Q1066.1563,694.3848 1064.8594,694.3848 Q1063.3438,694.3848 1062.1406,693.7598 Q1061.1563,693.2598 1060.4688,692.1973 Q1059.7813,691.1191 1059.7813,689.8379 L1059.7813,688.6816 Q1059.7813,687.3535 1060.3906,686.2129 Q1061.0156,685.0566 1062.1094,684.4473 Q1063.2031,683.8223 1064.4375,683.8223 Q1065.1719,683.8223 1065.8125,683.9941 Q1066.4688,684.1504 1067.0156,684.5098 Z " fill="#000000"/><text fill="#000000" font-family="sans-serif" font-size="14" lengthAdjust="spacing" textLength="91" x="1084.75" y="694.4316">ConfigScraper</text><line style="stroke:#181818;stroke-width:0.5;" x1="1009.5" x2="1218.5" y1="704.6348" y2="704.6348"/><rect fill="none" height="6" style="stroke:#C82930;stroke-width:1.0;" width="6" x="1016.5" y="716.4453"/><text fill="#000000" font-family="sans-serif" font-size="14" lengthAdjust="spacing" textLength="92" x="1028.5" y="723.7422">filePath: String</text><rect fill="none" height="6" style="stroke:#C82930;stroke-width:1.0;" width="6" x="1016.5" y="735.0664"/><text fill="#000000" font-family="sans-serif" font-size="14" lengthAdjust="spacing" textLength="185" x="1028.5" y="742.3633">openingMainBlockTag: String</text><rect fill="none" height="6" style="stroke:#C82930;stroke-width:1.0;" width="6" x="1016.5" y="753.6875"/><text fill="#000000" font-family="sans-serif" font-size="14" lengthAdjust="spacing" textLength="178" x="1028.5" y="760.9844">closingMainBlockTag: String</text><rect fill="none" height="6" style="stroke:#C82930;stroke-width:1.0;" width="6" x="1016.5" y="772.3086"/><text fill="#000000" font-family="sans-serif" font-size="14" lengthAdjust="spacing" textLength="142" x="1028.5" y="779.6055">propertySplitter: String</text><rect fill="none" height="6" style="stroke:#C82930;stroke-width:1.0;" width="6" x="1016.5" y="790.9297"/><text fill="#000000" font-family="sans-serif" font-size="14" lengthAdjust="spacing" textLength="174" x="1028.5" y="798.2266">functionalityProperty: String</text><line style="stroke:#181818;stroke-width:0.5;" x1="1009.5" x2="1218.5" y1="805.7402" y2="805.7402"/><ellipse cx="1019.5" cy="820.5508" fill="#84BE84" rx="3" ry="3" style="stroke:#038048;stroke-width:1.0;"/><text fill="#000000" font-family="sans-serif" font-size="14" lengthAdjust="spacing" textLength="171" x="1028.5" y="824.8477">loadGroupNumber(): String</text></g><!--class HouseRepository--><g id="elem_HouseRepository"><rect codeLine="41" fill="#F1F1F1" height="66.6211" id="HouseRepository" rx="2.5" ry="2.5" style="stroke:#181818;stroke-width:0.5;" width="217" x="1120.5" y="461.6348"/><ellipse cx="1170.25" cy="477.6348" fill="#B4A7E5" rx="11" ry="11" style="stroke:#181818;stroke-width:1.0;"/><path d="M1171.2031,474.2754 L1171.2031,480.9316 L1172.9219,480.9316 Q1173.5313,480.9316 1173.7969,481.166 Q1174.0625,481.4004 1174.0625,481.791 Q1174.0625,482.166 1173.7969,482.4004 Q1173.5313,482.6348 1172.9219,482.6348 L1167.7813,482.6348 Q1167.1719,482.6348 1166.9063,482.4004 Q1166.6406,482.166 1166.6406,481.7754 Q1166.6406,481.4004 1166.9063,481.166 Q1167.1719,480.9316 1167.7813,480.9316 L1169.5,480.9316 L1169.5,474.2754 L1167.7813,474.2754 Q1167.1719,474.2754 1166.9063,474.041 Q1166.6406,473.8066 1166.6406,473.416 Q1166.6406,473.041 1166.9063,472.8066 Q1167.1719,472.5723 1167.7813,472.5723 L1172.9219,472.5723 Q1173.5313,472.5723 1173.7969,472.8066 Q1174.0625,473.041 1174.0625,473.416 Q1174.0625,473.8066 1173.7969,474.041 Q1173.5313,474.2754 1172.9219,474.2754 L1171.2031,474.2754 Z " fill="#000000"/><text fill="#000000" font-family="sans-serif" font-size="14" font-style="italic" lengthAdjust="spacing" textLength="109" x="1190.75" y="483.4316">HouseRepository</text><line style="stroke:#181818;stroke-width:0.5;" x1="1121.5" x2="1336.5" y1="493.6348" y2="493.6348"/><line style="stroke:#181818;stroke-width:0.5;" x1="1121.5" x2="1336.5" y1="501.6348" y2="501.6348"/><text fill="#000000" font-family="sans-serif" font-size="14" lengthAdjust="spacing" textLength="205" x="1126.5" y="520.7422">findAllEntities(): Iterable&lt;House&gt;</text></g><!--class House--><g id="elem_House"><rect codeLine="45" fill="#F1F1F1" height="85.2422" id="House" rx="2.5" ry="2.5" style="stroke:#181818;stroke-width:0.5;" width="195" x="778.5" y="710.1348"/><ellipse cx="839.25" cy="726.1348" fill="#ADD1B2" rx="11" ry="11" style="stroke:#181818;stroke-width:1.0;"/><path d="M842.0156,722.0098 Q842.1719,721.791 842.3594,721.6816 Q842.5469,721.5723 842.7656,721.5723 Q843.1406,721.5723 843.375,721.8379 Q843.6094,722.0879 843.6094,722.6973 L843.6094,724.1504 Q843.6094,724.7598 843.375,725.0254 Q843.1406,725.291 842.7656,725.291 Q842.4219,725.291 842.2188,725.0879 Q842.0156,724.9004 841.9063,724.3848 Q841.8594,724.0254 841.6719,723.8379 Q841.3438,723.4629 840.7344,723.2441 Q840.125,723.0254 839.5,723.0254 Q838.7344,723.0254 838.0938,723.3535 Q837.4688,723.6816 836.9688,724.4316 Q836.4844,725.1816 836.4844,726.2129 L836.4844,727.3066 Q836.4844,728.541 837.375,729.3691 Q838.2656,730.1816 839.8594,730.1816 Q840.7969,730.1816 841.4531,729.9316 Q841.8438,729.7754 842.2656,729.3379 Q842.5313,729.0723 842.6719,728.9941 Q842.8281,728.916 843.0313,728.916 Q843.3594,728.916 843.6094,729.1816 Q843.875,729.4316 843.875,729.7754 Q843.875,730.1191 843.5313,730.5254 Q843.0313,731.1035 842.2344,731.4316 Q841.1563,731.8848 839.8594,731.8848 Q838.3438,731.8848 837.1406,731.2598 Q836.1563,730.7598 835.4688,729.6973 Q834.7813,728.6191 834.7813,727.3379 L834.7813,726.1816 Q834.7813,724.8535 835.3906,723.7129 Q836.0156,722.5566 837.1094,721.9473 Q838.2031,721.3223 839.4375,721.3223 Q840.1719,721.3223 840.8125,721.4941 Q841.4688,721.6504 842.0156,722.0098 Z " fill="#000000"/><text fill="#000000" font-family="sans-serif" font-size="14" lengthAdjust="spacing" textLength="40" x="859.75" y="731.9316">House</text><rect fill="#FFFFFF" height="17.9609" style="stroke:#181818;stroke-width:1.0;stroke-dasharray:2.0,2.0;" width="23" x="953.5" y="707.1348"/><text fill="#000000" font-family="sans-serif" font-size="12" font-style="italic" lengthAdjust="spacing" textLength="21" x="954.5" y="721.084">root</text><line style="stroke:#181818;stroke-width:0.5;" x1="779.5" x2="972.5" y1="742.1348" y2="742.1348"/><rect fill="none" height="6" style="stroke:#C82930;stroke-width:1.0;" width="6" x="786.5" y="753.9453"/><text fill="#000000" font-family="sans-serif" font-size="14" lengthAdjust="spacing" textLength="169" x="798.5" y="761.2422">houseID: HouseID houseID</text><rect fill="none" height="6" style="stroke:#C82930;stroke-width:1.0;" width="6" x="786.5" y="772.5664"/><text fill="#000000" font-family="sans-serif" font-size="14" lengthAdjust="spacing" textLength="111" x="798.5" y="779.8633">location: Location</text><line style="stroke:#181818;stroke-width:0.5;" x1="779.5" x2="972.5" y1="787.377" y2="787.377"/></g><!--class Location--><g id="elem_Location"><rect codeLine="50" fill="#F1F1F1" height="85.2422" id="Location" rx="2.5" ry="2.5" style="stroke:#181818;stroke-width:0.5;" width="154" x="799" y="921.1348"/><ellipse cx="835.15" cy="937.1348" fill="#ADD1B2" rx="11" ry="11" style="stroke:#181818;stroke-width:1.0;"/><path d="M837.9156,933.0098 Q838.0719,932.791 838.2594,932.6816 Q838.4469,932.5723 838.6656,932.5723 Q839.0406,932.5723 839.275,932.8379 Q839.5094,933.0879 839.5094,933.6973 L839.5094,935.1504 Q839.5094,935.7598 839.275,936.0254 Q839.0406,936.291 838.6656,936.291 Q838.3219,936.291 838.1188,936.0879 Q837.9156,935.9004 837.8063,935.3848 Q837.7594,935.0254 837.5719,934.8379 Q837.2438,934.4629 836.6344,934.2441 Q836.025,934.0254 835.4,934.0254 Q834.6344,934.0254 833.9938,934.3535 Q833.3688,934.6816 832.8688,935.4316 Q832.3844,936.1816 832.3844,937.2129 L832.3844,938.3066 Q832.3844,939.541 833.275,940.3691 Q834.1656,941.1816 835.7594,941.1816 Q836.6969,941.1816 837.3531,940.9316 Q837.7438,940.7754 838.1656,940.3379 Q838.4313,940.0723 838.5719,939.9941 Q838.7281,939.916 838.9313,939.916 Q839.2594,939.916 839.5094,940.1816 Q839.775,940.4316 839.775,940.7754 Q839.775,941.1191 839.4313,941.5254 Q838.9313,942.1035 838.1344,942.4316 Q837.0563,942.8848 835.7594,942.8848 Q834.2438,942.8848 833.0406,942.2598 Q832.0563,941.7598 831.3688,940.6973 Q830.6813,939.6191 830.6813,938.3379 L830.6813,937.1816 Q830.6813,935.8535 831.2906,934.7129 Q831.9156,933.5566 833.0094,932.9473 Q834.1031,932.3223 835.3375,932.3223 Q836.0719,932.3223 836.7125,932.4941 Q837.3688,932.6504 837.9156,933.0098 Z " fill="#000000"/><text fill="#000000" font-family="sans-serif" font-size="14" lengthAdjust="spacing" textLength="54" x="853.85" y="942.9316">Location</text><rect fill="#FFFFFF" height="17.9609" style="stroke:#181818;stroke-width:1.0;stroke-dasharray:2.0,2.0;" width="19" x="937" y="918.1348"/><text fill="#000000" font-family="sans-serif" font-size="12" font-style="italic" lengthAdjust="spacing" textLength="17" x="938" y="932.084">VO</text><line style="stroke:#181818;stroke-width:0.5;" x1="800" x2="952" y1="953.1348" y2="953.1348"/><rect fill="none" height="6" style="stroke:#C82930;stroke-width:1.0;" width="6" x="807" y="964.9453"/><text fill="#000000" font-family="sans-serif" font-size="14" lengthAdjust="spacing" textLength="128" x="819" y="972.2422">gpsCode: GPSCode</text><rect fill="none" height="6" style="stroke:#C82930;stroke-width:1.0;" width="6" x="807" y="983.5664"/><text fill="#000000" font-family="sans-serif" font-size="14" lengthAdjust="spacing" textLength="111" x="819" y="990.8633">address: Address</text><line style="stroke:#181818;stroke-width:0.5;" x1="800" x2="952" y1="998.377" y2="998.377"/></g><!--class GPSCode--><g id="elem_GPSCode"><rect codeLine="55" fill="#F1F1F1" height="85.2422" id="GPSCode" rx="2.5" ry="2.5" style="stroke:#181818;stroke-width:0.5;" width="135" x="988.5" y="921.1348"/><ellipse cx="1012.05" cy="937.1348" fill="#ADD1B2" rx="11" ry="11" style="stroke:#181818;stroke-width:1.0;"/><path d="M1014.8156,933.0098 Q1014.9719,932.791 1015.1594,932.6816 Q1015.3469,932.5723 1015.5656,932.5723 Q1015.9406,932.5723 1016.175,932.8379 Q1016.4094,933.0879 1016.4094,933.6973 L1016.4094,935.1504 Q1016.4094,935.7598 1016.175,936.0254 Q1015.9406,936.291 1015.5656,936.291 Q1015.2219,936.291 1015.0188,936.0879 Q1014.8156,935.9004 1014.7063,935.3848 Q1014.6594,935.0254 1014.4719,934.8379 Q1014.1438,934.4629 1013.5344,934.2441 Q1012.925,934.0254 1012.3,934.0254 Q1011.5344,934.0254 1010.8938,934.3535 Q1010.2688,934.6816 1009.7688,935.4316 Q1009.2844,936.1816 1009.2844,937.2129 L1009.2844,938.3066 Q1009.2844,939.541 1010.175,940.3691 Q1011.0656,941.1816 1012.6594,941.1816 Q1013.5969,941.1816 1014.2531,940.9316 Q1014.6438,940.7754 1015.0656,940.3379 Q1015.3313,940.0723 1015.4719,939.9941 Q1015.6281,939.916 1015.8313,939.916 Q1016.1594,939.916 1016.4094,940.1816 Q1016.675,940.4316 1016.675,940.7754 Q1016.675,941.1191 1016.3313,941.5254 Q1015.8313,942.1035 1015.0344,942.4316 Q1013.9563,942.8848 1012.6594,942.8848 Q1011.1438,942.8848 1009.9406,942.2598 Q1008.9563,941.7598 1008.2688,940.6973 Q1007.5813,939.6191 1007.5813,938.3379 L1007.5813,937.1816 Q1007.5813,935.8535 1008.1906,934.7129 Q1008.8156,933.5566 1009.9094,932.9473 Q1011.0031,932.3223 1012.2375,932.3223 Q1012.9719,932.3223 1013.6125,932.4941 Q1014.2688,932.6504 1014.8156,933.0098 Z " fill="#000000"/><text fill="#000000" font-family="sans-serif" font-size="14" lengthAdjust="spacing" textLength="63" x="1027.95" y="942.9316">GPSCode</text><rect fill="#FFFFFF" height="17.9609" style="stroke:#181818;stroke-width:1.0;stroke-dasharray:2.0,2.0;" width="19" x="1107.5" y="918.1348"/><text fill="#000000" font-family="sans-serif" font-size="12" font-style="italic" lengthAdjust="spacing" textLength="17" x="1108.5" y="932.084">VO</text><line style="stroke:#181818;stroke-width:0.5;" x1="989.5" x2="1122.5" y1="953.1348" y2="953.1348"/><rect fill="none" height="6" style="stroke:#C82930;stroke-width:1.0;" width="6" x="996.5" y="964.9453"/><text fill="#000000" font-family="sans-serif" font-size="14" lengthAdjust="spacing" textLength="97" x="1008.5" y="972.2422">latitude: double</text><rect fill="none" height="6" style="stroke:#C82930;stroke-width:1.0;" width="6" x="996.5" y="983.5664"/><text fill="#000000" font-family="sans-serif" font-size="14" lengthAdjust="spacing" textLength="109" x="1008.5" y="990.8633">longitude: double</text><line style="stroke:#181818;stroke-width:0.5;" x1="989.5" x2="1122.5" y1="998.377" y2="998.377"/></g><!--class WeatherAPIGateway--><g id="elem_WeatherAPIGateway"><rect codeLine="60" fill="#F1F1F1" height="66.6211" id="WeatherAPIGateway" rx="2.5" ry="2.5" style="stroke:#181818;stroke-width:0.5;" width="715" x="22.5" y="461.6348"/><ellipse cx="309.75" cy="477.6348" fill="#B4A7E5" rx="11" ry="11" style="stroke:#181818;stroke-width:1.0;"/><path d="M310.7031,474.2754 L310.7031,480.9316 L312.4219,480.9316 Q313.0313,480.9316 313.2969,481.166 Q313.5625,481.4004 313.5625,481.791 Q313.5625,482.166 313.2969,482.4004 Q313.0313,482.6348 312.4219,482.6348 L307.2813,482.6348 Q306.6719,482.6348 306.4063,482.4004 Q306.1406,482.166 306.1406,481.7754 Q306.1406,481.4004 306.4063,481.166 Q306.6719,480.9316 307.2813,480.9316 L309,480.9316 L309,474.2754 L307.2813,474.2754 Q306.6719,474.2754 306.4063,474.041 Q306.1406,473.8066 306.1406,473.416 Q306.1406,473.041 306.4063,472.8066 Q306.6719,472.5723 307.2813,472.5723 L312.4219,472.5723 Q313.0313,472.5723 313.2969,472.8066 Q313.5625,473.041 313.5625,473.416 Q313.5625,473.8066 313.2969,474.041 Q313.0313,474.2754 312.4219,474.2754 L310.7031,474.2754 Z " fill="#000000"/><text fill="#000000" font-family="sans-serif" font-size="14" font-style="italic" lengthAdjust="spacing" textLength="132" x="330.25" y="483.4316">WeatherAPIGateway</text><line style="stroke:#181818;stroke-width:0.5;" x1="23.5" x2="736.5" y1="493.6348" y2="493.6348"/><line style="stroke:#181818;stroke-width:0.5;" x1="23.5" x2="736.5" y1="501.6348" y2="501.6348"/><ellipse cx="33.5" cy="516.4453" fill="#84BE84" rx="3" ry="3" style="stroke:#038048;stroke-width:1.0;"/><text fill="#000000" font-family="sans-serif" font-size="14" lengthAdjust="spacing" textLength="689" x="42.5" y="520.7422">getSunriseSunsetHour(int groupNumber, double latitude, double longitude, String option): SunriseSunsetDTO</text></g><!--class WeatherAPIGatewayHttpImpl--><g id="elem_WeatherAPIGatewayHttpImpl"><rect codeLine="64" fill="#F1F1F1" height="103.8633" id="WeatherAPIGatewayHttpImpl" rx="2.5" ry="2.5" style="stroke:#181818;stroke-width:0.5;" width="715" x="26.5" y="700.6348"/><ellipse cx="289.75" cy="716.6348" fill="#ADD1B2" rx="11" ry="11" style="stroke:#181818;stroke-width:1.0;"/><path d="M292.5156,712.5098 Q292.6719,712.291 292.8594,712.1816 Q293.0469,712.0723 293.2656,712.0723 Q293.6406,712.0723 293.875,712.3379 Q294.1094,712.5879 294.1094,713.1973 L294.1094,714.6504 Q294.1094,715.2598 293.875,715.5254 Q293.6406,715.791 293.2656,715.791 Q292.9219,715.791 292.7188,715.5879 Q292.5156,715.4004 292.4063,714.8848 Q292.3594,714.5254 292.1719,714.3379 Q291.8438,713.9629 291.2344,713.7441 Q290.625,713.5254 290,713.5254 Q289.2344,713.5254 288.5938,713.8535 Q287.9688,714.1816 287.4688,714.9316 Q286.9844,715.6816 286.9844,716.7129 L286.9844,717.8066 Q286.9844,719.041 287.875,719.8691 Q288.7656,720.6816 290.3594,720.6816 Q291.2969,720.6816 291.9531,720.4316 Q292.3438,720.2754 292.7656,719.8379 Q293.0313,719.5723 293.1719,719.4941 Q293.3281,719.416 293.5313,719.416 Q293.8594,719.416 294.1094,719.6816 Q294.375,719.9316 294.375,720.2754 Q294.375,720.6191 294.0313,721.0254 Q293.5313,721.6035 292.7344,721.9316 Q291.6563,722.3848 290.3594,722.3848 Q288.8438,722.3848 287.6406,721.7598 Q286.6563,721.2598 285.9688,720.1973 Q285.2813,719.1191 285.2813,717.8379 L285.2813,716.6816 Q285.2813,715.3535 285.8906,714.2129 Q286.5156,713.0566 287.6094,712.4473 Q288.7031,711.8223 289.9375,711.8223 Q290.6719,711.8223 291.3125,711.9941 Q291.9688,712.1504 292.5156,712.5098 Z " fill="#000000"/><text fill="#000000" font-family="sans-serif" font-size="14" lengthAdjust="spacing" textLength="180" x="310.25" y="722.4316">WeatherAPIGatewayHttpImpl</text><line style="stroke:#181818;stroke-width:0.5;" x1="27.5" x2="740.5" y1="732.6348" y2="732.6348"/><rect fill="none" height="6" style="stroke:#C82930;stroke-width:1.0;" width="6" x="34.5" y="744.4453"/><text fill="#000000" font-family="sans-serif" font-size="14" lengthAdjust="spacing" textLength="116" x="46.5" y="751.7422">BASE_URL: String</text><rect fill="none" height="6" style="stroke:#C82930;stroke-width:1.0;" width="6" x="34.5" y="763.0664"/><text fill="#000000" font-family="sans-serif" font-size="14" lengthAdjust="spacing" textLength="179" x="46.5" y="770.3633">restTemplate: RestTemplate</text><line style="stroke:#181818;stroke-width:0.5;" x1="27.5" x2="740.5" y1="777.877" y2="777.877"/><ellipse cx="37.5" cy="792.6875" fill="#84BE84" rx="3" ry="3" style="stroke:#038048;stroke-width:1.0;"/><text fill="#000000" font-family="sans-serif" font-size="14" lengthAdjust="spacing" textLength="689" x="46.5" y="796.9844">getSunriseSunsetHour(int groupNumber, double latitude, double longitude, String option): SunriseSunsetDTO</text></g><!--class SunriseSunsetDTO--><g id="elem_SunriseSunsetDTO"><rect codeLine="70" fill="#F1F1F1" height="103.8633" id="SunriseSunsetDTO" rx="2.5" ry="2.5" style="stroke:#181818;stroke-width:0.5;" width="163" x="302.5" y="911.6348"/><ellipse cx="321.55" cy="927.6348" fill="#ADD1B2" rx="11" ry="11" style="stroke:#181818;stroke-width:1.0;"/><path d="M324.3156,923.5098 Q324.4719,923.291 324.6594,923.1816 Q324.8469,923.0723 325.0656,923.0723 Q325.4406,923.0723 325.675,923.3379 Q325.9094,923.5879 325.9094,924.1973 L325.9094,925.6504 Q325.9094,926.2598 325.675,926.5254 Q325.4406,926.791 325.0656,926.791 Q324.7219,926.791 324.5188,926.5879 Q324.3156,926.4004 324.2063,925.8848 Q324.1594,925.5254 323.9719,925.3379 Q323.6438,924.9629 323.0344,924.7441 Q322.425,924.5254 321.8,924.5254 Q321.0344,924.5254 320.3938,924.8535 Q319.7688,925.1816 319.2688,925.9316 Q318.7844,926.6816 318.7844,927.7129 L318.7844,928.8066 Q318.7844,930.041 319.675,930.8691 Q320.5656,931.6816 322.1594,931.6816 Q323.0969,931.6816 323.7531,931.4316 Q324.1438,931.2754 324.5656,930.8379 Q324.8313,930.5723 324.9719,930.4941 Q325.1281,930.416 325.3313,930.416 Q325.6594,930.416 325.9094,930.6816 Q326.175,930.9316 326.175,931.2754 Q326.175,931.6191 325.8313,932.0254 Q325.3313,932.6035 324.5344,932.9316 Q323.4563,933.3848 322.1594,933.3848 Q320.6438,933.3848 319.4406,932.7598 Q318.4563,932.2598 317.7688,931.1973 Q317.0813,930.1191 317.0813,928.8379 L317.0813,927.6816 Q317.0813,926.3535 317.6906,925.2129 Q318.3156,924.0566 319.4094,923.4473 Q320.5031,922.8223 321.7375,922.8223 Q322.4719,922.8223 323.1125,922.9941 Q323.7688,923.1504 324.3156,923.5098 Z " fill="#000000"/><text fill="#000000" font-family="sans-serif" font-size="14" lengthAdjust="spacing" textLength="122" x="336.45" y="933.4316">SunriseSunsetDTO</text><line style="stroke:#181818;stroke-width:0.5;" x1="303.5" x2="464.5" y1="943.6348" y2="943.6348"/><ellipse cx="313.5" cy="958.4453" fill="none" rx="3" ry="3" style="stroke:#038048;stroke-width:1.0;"/><text fill="#000000" font-family="sans-serif" font-size="14" lengthAdjust="spacing" textLength="137" x="322.5" y="962.7422">measurement: double</text><ellipse cx="313.5" cy="977.0664" fill="none" rx="3" ry="3" style="stroke:#038048;stroke-width:1.0;"/><text fill="#000000" font-family="sans-serif" font-size="14" lengthAdjust="spacing" textLength="68" x="322.5" y="981.3633">unit: String</text><ellipse cx="313.5" cy="995.6875" fill="none" rx="3" ry="3" style="stroke:#038048;stroke-width:1.0;"/><text fill="#000000" font-family="sans-serif" font-size="14" lengthAdjust="spacing" textLength="68" x="322.5" y="999.9844">info: String</text><line style="stroke:#181818;stroke-width:0.5;" x1="303.5" x2="464.5" y1="1007.498" y2="1007.498"/></g><!--link HouseControllerWeb to WeatherAPIService--><g id="link_HouseControllerWeb_WeatherAPIService"><path codeLine="76" d="M929,335.9448 C929,356.2648 929,377.0448 929,396.5748 " fill="none" id="HouseControllerWeb-WeatherAPIService" style="stroke:#181818;stroke-width:1.0;"/></g><!--link WeatherAPIService to WeatherAPIGatewayHttpImpl--><g id="link_WeatherAPIService_WeatherAPIGatewayHttpImpl"><path codeLine="77" d="M772.44,584.8848 C766.58,587.8848 760.75,590.8148 755,593.6348 C676.14,632.3748 585.44,671.1048 513.46,700.5248 " fill="none" id="WeatherAPIService-WeatherAPIGatewayHttpImpl" style="stroke:#181818;stroke-width:1.0;"/></g><!--link WeatherAPIService to HouseRepository--><g id="link_WeatherAPIService_HouseRepository"><path codeLine="78" d="M1085.74,495.1348 C1097.3,495.1348 1108.87,495.1348 1120.43,495.1348 " fill="none" id="WeatherAPIService-HouseRepository" style="stroke:#181818;stroke-width:1.0;"/></g><!--link WeatherAPIService to ConfigScraper--><g id="link_WeatherAPIService_ConfigScraper"><path codeLine="79" d="M999.73,593.8248 C1018.5,619.7448 1038.54,647.4148 1056.51,672.2348 " fill="none" id="WeatherAPIService-ConfigScraper" style="stroke:#181818;stroke-width:1.0;"/></g><!--link WeatherAPIGateway to WeatherAPIGatewayHttpImpl--><g id="link_WeatherAPIGateway_WeatherAPIGatewayHttpImpl"><path codeLine="80" d="M380.51,528.7548 C381.19,572.0748 382.39,649.0548 383.2,700.2348 " fill="none" id="WeatherAPIGateway-WeatherAPIGatewayHttpImpl" style="stroke:#181818;stroke-width:1.0;"/></g><!--link WeatherAPIService to House--><g id="link_WeatherAPIService_House"><path codeLine="81" d="M908.74,593.8248 C900.38,634.1148 891.14,678.6348 884.62,710.0848 " fill="none" id="WeatherAPIService-House" style="stroke:#181818;stroke-width:1.0;"/><text fill="#000000" font-family="sans-serif" font-size="13" lengthAdjust="spacing" textLength="42" x="903" y="638.6631">&#171;uses&#187;</text></g><!--link House to Location--><g id="link_House_Location"><path codeLine="82" d="M876,795.1748 C876,831.6048 876,884.3048 876,920.8148 " fill="none" id="House-Location" style="stroke:#181818;stroke-width:1.0;"/></g><!--link Location to GPSCode--><g id="link_Location_GPSCode"><path codeLine="83" d="M953.34,963.6348 C964.97,963.6348 976.6,963.6348 988.23,963.6348 " fill="none" id="Location-GPSCode" style="stroke:#181818;stroke-width:1.0;"/></g><!--link WeatherAPIGatewayHttpImpl to SunriseSunsetDTO--><g id="link_WeatherAPIGatewayHttpImpl_SunriseSunsetDTO"><path codeLine="84" d="M384,804.7648 C384,837.1448 384,878.8848 384,911.3148 " fill="none" id="WeatherAPIGatewayHttpImpl-SunriseSunsetDTO" style="stroke:#181818;stroke-width:1.0;"/><text fill="#000000" font-family="sans-serif" font-size="13" lengthAdjust="spacing" textLength="57" x="385" y="877.6631">&#171;creates&#187;</text></g><!--SRC=[nLLDRzim3BtxLmZOOHtId7OPWY1OcdIfWNGDahGz3gfDEq9bIPFa5aQn_pvALloLjC1EEyKa7qdnwL7vR9wPK5JJWd0cm5OAYDJs8AF8Cik1t2- -VfkGDJEMx4f1RcIfJHGfcZpJ78W1_GAQV5gp_61NcbRaBOeIJernI0CBAQoMd8D-X2UCZG_EkyCibi2anWGh8gIEniiGY9VEfwKiceHjQxWOnsCjmLdcglfHYiGoAIXdjceotCddd0TKB7pby-1Zjrkg5EZb_gxkrvWkdlew7SIoxt0OcjYIMgbxFJefym_Zhe81OTxFttqGTTalb9SjnmyTAngJLw3s07g-YHl4uz0LZSZgUazoi24KYqnUVD_2xnACtNYrxAnc8YTIkJDyGQR0A2aCN0lKJJLTolA9mopwSvJ3IHEdXivfLjJ2AwswfmakX2LIP2pV9TgFEI6Bdeq0BvmjA6aO4bi50RKEX7XMkf1O64k5tRC27lenH7EAOvGfifFwIPnBYdpeIo73hLbfMIhVSIqJwWYvG4QOi4WaaeXxendgl4Hwh5kWYo5veLv3LcS-q6zuftYh6UEmGMecWVhQAnK8D6uf4rTS9izxclS12SUXFW8eZJKqBe528Ld7RZUQTLMs2T0UPCGbJJq3FylY2RGRFOHn7YG1T4RnkWStWjUFrAMucbun38nBZ15DaOgfHtVausqonVMqixTpJmKvj4y63xU0sn- -sa973va-tDMLScKMqjtgQhDp7tw5qrI3CRYhzKUR7q1j-ebI_066KkbHSI9n9ECTfM0IoLjoBqEzHf-juzZoycGrUrNT6t5cASD1RgnLSQ6uNywh-Uxwr_rstTpdc20NTWy8GBZV-SRwFmCC8vx80gWfDHGWRCF_Y9I2sMQI4Mvd9hj2FVDtDHwVUHfFtx4URC3ZEVZ9stIsPEy9Y4uLywzTGzi9cKxnnynczSGkq2n9inlZPXVULmWc3jbtnHED6Rx-d-Wl]--></g></svg>