<?xml version="1.0" encoding="us-ascii" standalone="no"?><svg xmlns="http://www.w3.org/2000/svg" xmlns:xlink="http://www.w3.org/1999/xlink" contentStyleType="text/css" height="993px" preserveAspectRatio="none" style="width:2400px;height:993px;background:#FFFFFF;" version="1.1" viewBox="0 0 2400 993" width="2400px" zoomAndPan="magnify"><defs/><g><text fill="#000000" font-family="sans-serif" font-size="14" font-weight="bold" lengthAdjust="spacing" textLength="886" x="758" y="30.1074">US02 - As an Administrator, I want to add a new room to the house, in order to configure it (name, house floor and dimensions).</text><rect fill="#FFFFFF" height="811.877" style="stroke:#181818;stroke-width:1.0;" width="10" x="297" y="111.5332"/><rect fill="#FFFFFF" height="763.2949" style="stroke:#181818;stroke-width:1.0;" width="10" x="886" y="160.1152"/><rect fill="#FFFFFF" height="714.7129" style="stroke:#181818;stroke-width:1.0;" width="10" x="1271" y="208.6973"/><rect fill="#FFFFFF" height="492.3359" style="stroke:#181818;stroke-width:1.0;" width="10" x="1558" y="431.0742"/><rect fill="#FFFFFF" height="267.6289" style="stroke:#181818;stroke-width:1.0;" width="10" x="1877" y="655.7813"/><rect fill="none" height="670.4219" style="stroke:#000000;stroke-width:1.5;" width="2390" x="3" y="267.9883"/><rect fill="none" height="438.7148" style="stroke:#000000;stroke-width:1.5;" width="2380" x="3" y="492.6953"/><line style="stroke:#181818;stroke-width:0.5;stroke-dasharray:5.0,5.0;" x1="301.5" x2="301.5" y1="78.2422" y2="955.4102"/><line style="stroke:#181818;stroke-width:0.5;stroke-dasharray:5.0,5.0;" x1="891" x2="891" y1="78.2422" y2="955.4102"/><line style="stroke:#181818;stroke-width:0.5;stroke-dasharray:5.0,5.0;" x1="1275.5" x2="1275.5" y1="78.2422" y2="955.4102"/><line style="stroke:#181818;stroke-width:0.5;stroke-dasharray:5.0,5.0;" x1="1562.5" x2="1562.5" y1="429.5938" y2="955.4102"/><line style="stroke:#181818;stroke-width:0.5;stroke-dasharray:5.0,5.0;" x1="1881.5" x2="1881.5" y1="654.3008" y2="955.4102"/><rect fill="#E2E2F0" height="32.6211" rx="2.5" ry="2.5" style="stroke:#181818;stroke-width:0.5;" width="225" x="189.5" y="44.6211"/><text fill="#000000" font-family="sans-serif" font-size="14" lengthAdjust="spacing" textLength="211" x="196.5" y="66.7285">:AddNewRoomToHouseController</text><rect fill="#E2E2F0" height="32.6211" rx="2.5" ry="2.5" style="stroke:#181818;stroke-width:0.5;" width="225" x="189.5" y="954.4102"/><text fill="#000000" font-family="sans-serif" font-size="14" lengthAdjust="spacing" textLength="211" x="196.5" y="976.5176">:AddNewRoomToHouseController</text><rect fill="#E2E2F0" height="32.6211" rx="2.5" ry="2.5" style="stroke:#181818;stroke-width:0.5;" width="58" x="862" y="44.6211"/><text fill="#000000" font-family="sans-serif" font-size="14" lengthAdjust="spacing" textLength="44" x="869" y="66.7285">:House</text><rect fill="#E2E2F0" height="32.6211" rx="2.5" ry="2.5" style="stroke:#181818;stroke-width:0.5;" width="58" x="862" y="954.4102"/><text fill="#000000" font-family="sans-serif" font-size="14" lengthAdjust="spacing" textLength="44" x="869" y="976.5176">:House</text><rect fill="#E2E2F0" height="32.6211" rx="2.5" ry="2.5" style="stroke:#181818;stroke-width:0.5;" width="77" x="1237.5" y="44.6211"/><text fill="#000000" font-family="sans-serif" font-size="14" lengthAdjust="spacing" textLength="63" x="1244.5" y="66.7285">:RoomList</text><rect fill="#E2E2F0" height="32.6211" rx="2.5" ry="2.5" style="stroke:#181818;stroke-width:0.5;" width="77" x="1237.5" y="954.4102"/><text fill="#000000" font-family="sans-serif" font-size="14" lengthAdjust="spacing" textLength="63" x="1244.5" y="976.5176">:RoomList</text><rect fill="#E2E2F0" height="32.6211" rx="2.5" ry="2.5" style="stroke:#181818;stroke-width:0.5;" width="55" x="1535.5" y="954.4102"/><text fill="#000000" font-family="sans-serif" font-size="14" lengthAdjust="spacing" textLength="41" x="1542.5" y="976.5176">:Room</text><rect fill="#E2E2F0" height="32.6211" rx="2.5" ry="2.5" style="stroke:#181818;stroke-width:0.5;" width="91" x="1836.5" y="954.4102"/><text fill="#000000" font-family="sans-serif" font-size="14" lengthAdjust="spacing" textLength="77" x="1843.5" y="976.5176">:Dimensions</text><rect fill="#FFFFFF" height="811.877" style="stroke:#181818;stroke-width:1.0;" width="10" x="297" y="111.5332"/><rect fill="#FFFFFF" height="763.2949" style="stroke:#181818;stroke-width:1.0;" width="10" x="886" y="160.1152"/><rect fill="#FFFFFF" height="714.7129" style="stroke:#181818;stroke-width:1.0;" width="10" x="1271" y="208.6973"/><rect fill="#FFFFFF" height="492.3359" style="stroke:#181818;stroke-width:1.0;" width="10" x="1558" y="431.0742"/><rect fill="#FFFFFF" height="267.6289" style="stroke:#181818;stroke-width:1.0;" width="10" x="1877" y="655.7813"/><polygon fill="#181818" points="285,107.5332,295,111.5332,285,115.5332,289,111.5332" style="stroke:#181818;stroke-width:1.0;"/><line style="stroke:#181818;stroke-width:1.0;" x1="0" x2="291" y1="111.5332" y2="111.5332"/><text fill="#000000" font-family="sans-serif" font-size="13" font-weight="bold" lengthAdjust="spacing" textLength="7" x="7" y="106.2705">1</text><text fill="#000000" font-family="sans-serif" font-size="13" lengthAdjust="spacing" textLength="260" x="18" y="106.2705">createAndAddNewRoomToHouse(RoomDTO)</text><polygon fill="#181818" points="874,156.1152,884,160.1152,874,164.1152,878,160.1152" style="stroke:#181818;stroke-width:1.0;"/><line style="stroke:#181818;stroke-width:1.0;" x1="307" x2="880" y1="160.1152" y2="160.1152"/><text fill="#000000" font-family="sans-serif" font-size="13" font-weight="bold" lengthAdjust="spacing" textLength="7" x="314" y="146.207">2</text><text fill="#000000" font-family="sans-serif" font-size="13" lengthAdjust="spacing" textLength="545" x="325" y="137.5615">createAndAddRoomToHouse(String RoomDTO.getRoomName, int RoomDTO.getFloorNumber,</text><text fill="#000000" font-family="sans-serif" font-size="13" lengthAdjust="spacing" textLength="476" x="329" y="154.8525">double RoomDTO.getLength, double RoomDTO.getWidth, double Room.getHeight)</text><polygon fill="#181818" points="1259,204.6973,1269,208.6973,1259,212.6973,1263,208.6973" style="stroke:#181818;stroke-width:1.0;"/><line style="stroke:#181818;stroke-width:1.0;" x1="896" x2="1265" y1="208.6973" y2="208.6973"/><text fill="#000000" font-family="sans-serif" font-size="13" font-weight="bold" lengthAdjust="spacing" textLength="7" x="903" y="194.7891">3</text><text fill="#000000" font-family="sans-serif" font-size="13" lengthAdjust="spacing" textLength="301" x="914" y="186.1436">createAndAddNewRoomToHouse(String roomName,</text><text fill="#000000" font-family="sans-serif" font-size="13" lengthAdjust="spacing" textLength="341" x="918" y="203.4346">int floorNumber, double length, double width, double height)</text><line style="stroke:#181818;stroke-width:1.0;" x1="1281" x2="1323" y1="239.9883" y2="239.9883"/><line style="stroke:#181818;stroke-width:1.0;" x1="1323" x2="1323" y1="239.9883" y2="252.9883"/><line style="stroke:#181818;stroke-width:1.0;" x1="1282" x2="1323" y1="252.9883" y2="252.9883"/><polygon fill="#181818" points="1292,248.9883,1282,252.9883,1292,256.9883,1288,252.9883" style="stroke:#181818;stroke-width:1.0;"/><text fill="#000000" font-family="sans-serif" font-size="13" font-weight="bold" lengthAdjust="spacing" textLength="7" x="1288" y="234.7256">4</text><text fill="#000000" font-family="sans-serif" font-size="13" lengthAdjust="spacing" textLength="252" x="1299" y="234.7256">isRoomNameInRoomList(String roomName)</text><path d="M3,267.9883 L64,267.9883 L64,277.2793 L54,287.2793 L3,287.2793 L3,267.9883 " fill="#EEEEEE" style="stroke:#000000;stroke-width:1.5;"/><rect fill="none" height="670.4219" style="stroke:#000000;stroke-width:1.5;" width="2390" x="3" y="267.9883"/><text fill="#000000" font-family="sans-serif" font-size="13" font-weight="bold" lengthAdjust="spacing" textLength="16" x="18" y="283.0166">alt</text><text fill="#000000" font-family="sans-serif" font-size="11" font-weight="bold" lengthAdjust="spacing" textLength="122" x="79" y="281.8584">[Room is in RoomList]</text><polygon fill="#181818" points="907,306.5703,897,310.5703,907,314.5703,903,310.5703" style="stroke:#181818;stroke-width:1.0;"/><line style="stroke:#181818;stroke-width:1.0;stroke-dasharray:2.0,2.0;" x1="901" x2="1270" y1="310.5703" y2="310.5703"/><text fill="#000000" font-family="sans-serif" font-size="13" font-weight="bold" lengthAdjust="spacing" textLength="7" x="913" y="305.3076">5</text><text fill="#000000" font-family="sans-serif" font-size="13" lengthAdjust="spacing" textLength="64" x="924" y="305.3076">return false</text><polygon fill="#181818" points="318,337.8613,308,341.8613,318,345.8613,314,341.8613" style="stroke:#181818;stroke-width:1.0;"/><line style="stroke:#181818;stroke-width:1.0;stroke-dasharray:2.0,2.0;" x1="312" x2="885" y1="341.8613" y2="341.8613"/><text fill="#000000" font-family="sans-serif" font-size="13" font-weight="bold" lengthAdjust="spacing" textLength="7" x="324" y="336.5986">6</text><text fill="#000000" font-family="sans-serif" font-size="13" lengthAdjust="spacing" textLength="64" x="335" y="336.5986">return false</text><polygon fill="#181818" points="11,369.1523,1,373.1523,11,377.1523,7,373.1523" style="stroke:#181818;stroke-width:1.0;"/><line style="stroke:#181818;stroke-width:1.0;stroke-dasharray:2.0,2.0;" x1="5" x2="296" y1="373.1523" y2="373.1523"/><text fill="#000000" font-family="sans-serif" font-size="13" font-weight="bold" lengthAdjust="spacing" textLength="7" x="17" y="367.8896">7</text><text fill="#000000" font-family="sans-serif" font-size="13" lengthAdjust="spacing" textLength="64" x="28" y="367.8896">return false</text><line style="stroke:#000000;stroke-width:1.0;stroke-dasharray:2.0,2.0;" x1="3" x2="2393" y1="382.1523" y2="382.1523"/><text fill="#000000" font-family="sans-serif" font-size="11" font-weight="bold" lengthAdjust="spacing" textLength="143" x="8" y="394.0225">[Room is not in RoomList]</text><polygon fill="#181818" points="1523.5,417.0742,1533.5,421.0742,1523.5,425.0742,1527.5,421.0742" style="stroke:#181818;stroke-width:1.0;"/><line style="stroke:#181818;stroke-width:1.0;stroke-dasharray:2.0,2.0;" x1="1281" x2="1529.5" y1="421.0742" y2="421.0742"/><text fill="#000000" font-family="sans-serif" font-size="13" font-weight="bold" lengthAdjust="spacing" textLength="7" x="1288" y="415.8115">8</text><text fill="#000000" font-family="sans-serif" font-size="13" lengthAdjust="spacing" textLength="93" x="1299" y="415.8115">request creation</text><rect fill="#E2E2F0" height="32.6211" rx="2.5" ry="2.5" style="stroke:#181818;stroke-width:0.5;" width="55" x="1535.5" y="397.7832"/><text fill="#000000" font-family="sans-serif" font-size="14" lengthAdjust="spacing" textLength="41" x="1542.5" y="419.8906">:Room</text><line style="stroke:#181818;stroke-width:1.0;" x1="1568" x2="1610" y1="464.6953" y2="464.6953"/><line style="stroke:#181818;stroke-width:1.0;" x1="1610" x2="1610" y1="464.6953" y2="477.6953"/><line style="stroke:#181818;stroke-width:1.0;" x1="1569" x2="1610" y1="477.6953" y2="477.6953"/><polygon fill="#181818" points="1579,473.6953,1569,477.6953,1579,481.6953,1575,477.6953" style="stroke:#181818;stroke-width:1.0;"/><text fill="#000000" font-family="sans-serif" font-size="13" font-weight="bold" lengthAdjust="spacing" textLength="7" x="1575" y="459.4326">9</text><text fill="#000000" font-family="sans-serif" font-size="13" lengthAdjust="spacing" textLength="284" x="1586" y="459.4326">validRoomArguments(String roomName): boolean</text><path d="M3,492.6953 L64,492.6953 L64,501.9863 L54,511.9863 L3,511.9863 L3,492.6953 " fill="#EEEEEE" style="stroke:#000000;stroke-width:1.5;"/><rect fill="none" height="438.7148" style="stroke:#000000;stroke-width:1.5;" width="2380" x="3" y="492.6953"/><text fill="#000000" font-family="sans-serif" font-size="13" font-weight="bold" lengthAdjust="spacing" textLength="16" x="18" y="507.7236">alt</text><text fill="#000000" font-family="sans-serif" font-size="11" font-weight="bold" lengthAdjust="spacing" textLength="156" x="79" y="506.5654">[Room attributes are invalid]</text><polygon fill="#181818" points="907,531.2773,897,535.2773,907,539.2773,903,535.2773" style="stroke:#181818;stroke-width:1.0;"/><line style="stroke:#181818;stroke-width:1.0;stroke-dasharray:2.0,2.0;" x1="901" x2="1270" y1="535.2773" y2="535.2773"/><text fill="#000000" font-family="sans-serif" font-size="13" font-weight="bold" lengthAdjust="spacing" textLength="14" x="913" y="530.0146">10</text><text fill="#000000" font-family="sans-serif" font-size="13" lengthAdjust="spacing" textLength="64" x="931" y="530.0146">return false</text><polygon fill="#181818" points="318,562.5684,308,566.5684,318,570.5684,314,566.5684" style="stroke:#181818;stroke-width:1.0;"/><line style="stroke:#181818;stroke-width:1.0;stroke-dasharray:2.0,2.0;" x1="312" x2="885" y1="566.5684" y2="566.5684"/><text fill="#000000" font-family="sans-serif" font-size="13" font-weight="bold" lengthAdjust="spacing" textLength="14" x="324" y="561.3057">11</text><text fill="#000000" font-family="sans-serif" font-size="13" lengthAdjust="spacing" textLength="64" x="342" y="561.3057">return false</text><polygon fill="#181818" points="11,593.8594,1,597.8594,11,601.8594,7,597.8594" style="stroke:#181818;stroke-width:1.0;"/><line style="stroke:#181818;stroke-width:1.0;stroke-dasharray:2.0,2.0;" x1="5" x2="296" y1="597.8594" y2="597.8594"/><text fill="#000000" font-family="sans-serif" font-size="13" font-weight="bold" lengthAdjust="spacing" textLength="14" x="17" y="592.5967">12</text><text fill="#000000" font-family="sans-serif" font-size="13" lengthAdjust="spacing" textLength="64" x="35" y="592.5967">return false</text><line style="stroke:#000000;stroke-width:1.0;stroke-dasharray:2.0,2.0;" x1="3" x2="2383" y1="606.8594" y2="606.8594"/><text fill="#000000" font-family="sans-serif" font-size="11" font-weight="bold" lengthAdjust="spacing" textLength="146" x="8" y="618.7295">[Room attributes are valid]</text><polygon fill="#181818" points="1824.5,641.7813,1834.5,645.7813,1824.5,649.7813,1828.5,645.7813" style="stroke:#181818;stroke-width:1.0;"/><line style="stroke:#181818;stroke-width:1.0;stroke-dasharray:2.0,2.0;" x1="1568" x2="1830.5" y1="645.7813" y2="645.7813"/><text fill="#000000" font-family="sans-serif" font-size="13" font-weight="bold" lengthAdjust="spacing" textLength="14" x="1575" y="640.5186">13</text><text fill="#000000" font-family="sans-serif" font-size="13" lengthAdjust="spacing" textLength="93" x="1593" y="640.5186">request creation</text><rect fill="#E2E2F0" height="32.6211" rx="2.5" ry="2.5" style="stroke:#181818;stroke-width:0.5;" width="91" x="1836.5" y="622.4902"/><text fill="#000000" font-family="sans-serif" font-size="14" lengthAdjust="spacing" textLength="77" x="1843.5" y="644.5977">:Dimensions</text><line style="stroke:#181818;stroke-width:1.0;" x1="1887" x2="1929" y1="689.4023" y2="689.4023"/><line style="stroke:#181818;stroke-width:1.0;" x1="1929" x2="1929" y1="689.4023" y2="702.4023"/><line style="stroke:#181818;stroke-width:1.0;" x1="1888" x2="1929" y1="702.4023" y2="702.4023"/><polygon fill="#181818" points="1898,698.4023,1888,702.4023,1898,706.4023,1894,702.4023" style="stroke:#181818;stroke-width:1.0;"/><text fill="#000000" font-family="sans-serif" font-size="13" font-weight="bold" lengthAdjust="spacing" textLength="14" x="1894" y="684.1396">14</text><text fill="#000000" font-family="sans-serif" font-size="13" lengthAdjust="spacing" textLength="459" x="1912" y="684.1396">validDimensionsArguments(double length, double width, double height): boolean</text><line style="stroke:#000000;stroke-width:1.0;stroke-dasharray:2.0,2.0;" x1="3" x2="2383" y1="711.4023" y2="711.4023"/><text fill="#000000" font-family="sans-serif" font-size="11" font-weight="bold" lengthAdjust="spacing" textLength="133" x="8" y="723.2725">[Dimensions are invalid]</text><polygon fill="#181818" points="907,746.3242,897,750.3242,907,754.3242,903,750.3242" style="stroke:#181818;stroke-width:1.0;"/><line style="stroke:#181818;stroke-width:1.0;stroke-dasharray:2.0,2.0;" x1="901" x2="1270" y1="750.3242" y2="750.3242"/><text fill="#000000" font-family="sans-serif" font-size="13" font-weight="bold" lengthAdjust="spacing" textLength="14" x="913" y="745.0615">15</text><text fill="#000000" font-family="sans-serif" font-size="13" lengthAdjust="spacing" textLength="64" x="931" y="745.0615">return false</text><polygon fill="#181818" points="318,777.6152,308,781.6152,318,785.6152,314,781.6152" style="stroke:#181818;stroke-width:1.0;"/><line style="stroke:#181818;stroke-width:1.0;stroke-dasharray:2.0,2.0;" x1="312" x2="885" y1="781.6152" y2="781.6152"/><text fill="#000000" font-family="sans-serif" font-size="13" font-weight="bold" lengthAdjust="spacing" textLength="14" x="324" y="776.3525">16</text><text fill="#000000" font-family="sans-serif" font-size="13" lengthAdjust="spacing" textLength="64" x="342" y="776.3525">return false</text><polygon fill="#181818" points="11,808.9063,1,812.9063,11,816.9063,7,812.9063" style="stroke:#181818;stroke-width:1.0;"/><line style="stroke:#181818;stroke-width:1.0;stroke-dasharray:2.0,2.0;" x1="5" x2="296" y1="812.9063" y2="812.9063"/><text fill="#000000" font-family="sans-serif" font-size="13" font-weight="bold" lengthAdjust="spacing" textLength="14" x="17" y="807.6436">17</text><text fill="#000000" font-family="sans-serif" font-size="13" lengthAdjust="spacing" textLength="64" x="35" y="807.6436">return false</text><line style="stroke:#000000;stroke-width:1.0;stroke-dasharray:2.0,2.0;" x1="3" x2="2383" y1="821.9063" y2="821.9063"/><text fill="#000000" font-family="sans-serif" font-size="11" font-weight="bold" lengthAdjust="spacing" textLength="238" x="8" y="833.7764">[Room attributes and Dimensions are valid]</text><polygon fill="#181818" points="907,856.8281,897,860.8281,907,864.8281,903,860.8281" style="stroke:#181818;stroke-width:1.0;"/><line style="stroke:#181818;stroke-width:1.0;stroke-dasharray:2.0,2.0;" x1="901" x2="1270" y1="860.8281" y2="860.8281"/><text fill="#000000" font-family="sans-serif" font-size="13" font-weight="bold" lengthAdjust="spacing" textLength="14" x="913" y="855.5654">18</text><text fill="#000000" font-family="sans-serif" font-size="13" lengthAdjust="spacing" textLength="59" x="931" y="855.5654">return true</text><polygon fill="#181818" points="318,888.1191,308,892.1191,318,896.1191,314,892.1191" style="stroke:#181818;stroke-width:1.0;"/><line style="stroke:#181818;stroke-width:1.0;stroke-dasharray:2.0,2.0;" x1="312" x2="885" y1="892.1191" y2="892.1191"/><text fill="#000000" font-family="sans-serif" font-size="13" font-weight="bold" lengthAdjust="spacing" textLength="14" x="324" y="886.8564">19</text><text fill="#000000" font-family="sans-serif" font-size="13" lengthAdjust="spacing" textLength="59" x="342" y="886.8564">return true</text><polygon fill="#181818" points="11,919.4102,1,923.4102,11,927.4102,7,923.4102" style="stroke:#181818;stroke-width:1.0;"/><line style="stroke:#181818;stroke-width:1.0;stroke-dasharray:2.0,2.0;" x1="5" x2="301" y1="923.4102" y2="923.4102"/><text fill="#000000" font-family="sans-serif" font-size="13" font-weight="bold" lengthAdjust="spacing" textLength="14" x="17" y="918.1475">20</text><text fill="#000000" font-family="sans-serif" font-size="13" lengthAdjust="spacing" textLength="59" x="35" y="918.1475">return true</text><!--SRC=[bLLDQ-Cm4BtxLmmzjIKfonx3ic2sB2sK5BPTzh8N9PhO0dlKogFcxw-a-4EMusmTY95cdf-UtenaLbmX_7xvyXNMa3SW279PAr8D6y7QhE0HZe8OM8EG4WGG7i5eNVi8bmYbjWskG15e8z7uy5xJGHNM82Y6QnAromSO72gjZLj4WbGrKgCqDJTtMIOiQxBr3asMlGd3Qg_U_AfNcrpABHv_kGLVzOFd-A69ZQugD5SW6XYcoOi1721Xb6GzuPFRP01qapEOFf_axdlv0J5CispzFHArWRr1mPYJdEpase_lNvzlCh5dzU5GyMw68JZ6yCAOB6PwOQEeW9Rmha3smsrmNZd1KUAdBy4sUBs2lmHIsvrhWGZnX5HmkJgJ-QDaal3H1rH5oT4kJeQ7fzVUsNlHYtO7ffFjb7dXXrXjksurrdSSYIfJCNrnky5OacewfnwfYwPY75jryj31VQVtdE1-0-zG9uDi3S51LCu83shDI7fZ0lksNiy3q3rw5QJviX8_kRtr5EyMNInuxpeq84VkzEzspcpWGrGgD5Xk2kjQcvk99nlOQLsXQ0axWmGxtCuokhl4Nm0Kg0BcqsOjCEo_fdd0O5oYRgejh3YSvba3HoP6fx_B3I4O4RRM3e71u0NTFVQ-tsAqw3dl5_c_i0QVgiDyBTm78H6_I3eRkq3v13qZV8AJUAda2Q8_MJEv_jIUoPykq9baz8q8XfBC_3_x1m00]--></g></svg>