<?xml version="1.0" encoding="us-ascii" standalone="no"?><svg xmlns="http://www.w3.org/2000/svg" xmlns:xlink="http://www.w3.org/1999/xlink" contentStyleType="text/css" height="980px" preserveAspectRatio="none" style="width:967px;height:980px;background:#FFFFFF;" version="1.1" viewBox="0 0 967 980" width="967px" zoomAndPan="magnify"><defs/><g><text fill="#000000" font-family="sans-serif" font-size="14" font-weight="bold" lengthAdjust="spacing" textLength="881" x="36" y="25.1074">US02: As an Administrator, I want to add a new room to the house, in order to configure it (name, house floor and dimensions).</text><!--class AddNewRoomToHouseController--><g id="elem_AddNewRoomToHouseController"><rect codeLine="4" fill="#F1F1F1" height="85.2422" id="AddNewRoomToHouseController" rx="2.5" ry="2.5" style="stroke:#181818;stroke-width:0.5;" width="346" x="156.5" y="46.6211"/><ellipse cx="221.75" cy="62.6211" fill="#ADD1B2" rx="11" ry="11" style="stroke:#181818;stroke-width:1.0;"/><path d="M224.5156,58.4961 Q224.6719,58.2773 224.8594,58.168 Q225.0469,58.0586 225.2656,58.0586 Q225.6406,58.0586 225.875,58.3242 Q226.1094,58.5742 226.1094,59.1836 L226.1094,60.6367 Q226.1094,61.2461 225.875,61.5117 Q225.6406,61.7773 225.2656,61.7773 Q224.9219,61.7773 224.7188,61.5742 Q224.5156,61.3867 224.4063,60.8711 Q224.3594,60.5117 224.1719,60.3242 Q223.8438,59.9492 223.2344,59.7305 Q222.625,59.5117 222,59.5117 Q221.2344,59.5117 220.5938,59.8398 Q219.9688,60.168 219.4688,60.918 Q218.9844,61.668 218.9844,62.6992 L218.9844,63.793 Q218.9844,65.0273 219.875,65.8555 Q220.7656,66.668 222.3594,66.668 Q223.2969,66.668 223.9531,66.418 Q224.3438,66.2617 224.7656,65.8242 Q225.0313,65.5586 225.1719,65.4805 Q225.3281,65.4023 225.5313,65.4023 Q225.8594,65.4023 226.1094,65.668 Q226.375,65.918 226.375,66.2617 Q226.375,66.6055 226.0313,67.0117 Q225.5313,67.5898 224.7344,67.918 Q223.6563,68.3711 222.3594,68.3711 Q220.8438,68.3711 219.6406,67.7461 Q218.6563,67.2461 217.9688,66.1836 Q217.2813,65.1055 217.2813,63.8242 L217.2813,62.668 Q217.2813,61.3398 217.8906,60.1992 Q218.5156,59.043 219.6094,58.4336 Q220.7031,57.8086 221.9375,57.8086 Q222.6719,57.8086 223.3125,57.9805 Q223.9688,58.1367 224.5156,58.4961 Z " fill="#000000"/><text fill="#000000" font-family="sans-serif" font-size="14" lengthAdjust="spacing" textLength="207" x="242.25" y="68.418">AddNewRoomToHouseController</text><line style="stroke:#181818;stroke-width:0.5;" x1="157.5" x2="501.5" y1="78.6211" y2="78.6211"/><rect fill="none" height="6" style="stroke:#C82930;stroke-width:1.0;" width="6" x="164.5" y="90.4316"/><text fill="#000000" font-family="sans-serif" font-size="14" lengthAdjust="spacing" textLength="87" x="176.5" y="97.7285">house: House</text><line style="stroke:#181818;stroke-width:0.5;" x1="157.5" x2="501.5" y1="105.2422" y2="105.2422"/><ellipse cx="167.5" cy="120.0527" fill="#84BE84" rx="3" ry="3" style="stroke:#038048;stroke-width:1.0;"/><text fill="#000000" font-family="sans-serif" font-size="14" lengthAdjust="spacing" textLength="320" x="176.5" y="124.3496">addRoomToHouse(RoomDTO roomDTO): boolean</text></g><!--class RoomDTO--><g id="elem_RoomDTO"><rect codeLine="9" fill="#F1F1F1" height="234.2109" id="RoomDTO" rx="2.5" ry="2.5" style="stroke:#181818;stroke-width:0.5;" width="151" x="7" y="191.6211"/><ellipse cx="45.4" cy="207.6211" fill="#ADD1B2" rx="11" ry="11" style="stroke:#181818;stroke-width:1.0;"/><path d="M48.1656,203.4961 Q48.3219,203.2773 48.5094,203.168 Q48.6969,203.0586 48.9156,203.0586 Q49.2906,203.0586 49.525,203.3242 Q49.7594,203.5742 49.7594,204.1836 L49.7594,205.6367 Q49.7594,206.2461 49.525,206.5117 Q49.2906,206.7773 48.9156,206.7773 Q48.5719,206.7773 48.3688,206.5742 Q48.1656,206.3867 48.0563,205.8711 Q48.0094,205.5117 47.8219,205.3242 Q47.4938,204.9492 46.8844,204.7305 Q46.275,204.5117 45.65,204.5117 Q44.8844,204.5117 44.2438,204.8398 Q43.6188,205.168 43.1188,205.918 Q42.6344,206.668 42.6344,207.6992 L42.6344,208.793 Q42.6344,210.0273 43.525,210.8555 Q44.4156,211.668 46.0094,211.668 Q46.9469,211.668 47.6031,211.418 Q47.9938,211.2617 48.4156,210.8242 Q48.6813,210.5586 48.8219,210.4805 Q48.9781,210.4023 49.1813,210.4023 Q49.5094,210.4023 49.7594,210.668 Q50.025,210.918 50.025,211.2617 Q50.025,211.6055 49.6813,212.0117 Q49.1813,212.5898 48.3844,212.918 Q47.3063,213.3711 46.0094,213.3711 Q44.4938,213.3711 43.2906,212.7461 Q42.3063,212.2461 41.6188,211.1836 Q40.9313,210.1055 40.9313,208.8242 L40.9313,207.668 Q40.9313,206.3398 41.5406,205.1992 Q42.1656,204.043 43.2594,203.4336 Q44.3531,202.8086 45.5875,202.8086 Q46.3219,202.8086 46.9625,202.9805 Q47.6188,203.1367 48.1656,203.4961 Z " fill="#000000"/><text fill="#000000" font-family="sans-serif" font-size="14" lengthAdjust="spacing" textLength="67" x="64.6" y="213.418">RoomDTO</text><line style="stroke:#181818;stroke-width:0.5;" x1="8" x2="157" y1="223.6211" y2="223.6211"/><rect fill="none" height="6" style="stroke:#C82930;stroke-width:1.0;" width="6" x="15" y="235.4316"/><text fill="#000000" font-family="sans-serif" font-size="14" lengthAdjust="spacing" textLength="113" x="27" y="242.7285">roomName: String</text><rect fill="none" height="6" style="stroke:#C82930;stroke-width:1.0;" width="6" x="15" y="254.0527"/><text fill="#000000" font-family="sans-serif" font-size="14" lengthAdjust="spacing" textLength="51" x="27" y="261.3496">floor: int</text><rect fill="none" height="6" style="stroke:#C82930;stroke-width:1.0;" width="6" x="15" y="272.6738"/><text fill="#000000" font-family="sans-serif" font-size="14" lengthAdjust="spacing" textLength="90" x="27" y="279.9707">length: double</text><rect fill="none" height="6" style="stroke:#C82930;stroke-width:1.0;" width="6" x="15" y="291.2949"/><text fill="#000000" font-family="sans-serif" font-size="14" lengthAdjust="spacing" textLength="83" x="27" y="298.5918">width: double</text><rect fill="none" height="6" style="stroke:#C82930;stroke-width:1.0;" width="6" x="15" y="309.916"/><text fill="#000000" font-family="sans-serif" font-size="14" lengthAdjust="spacing" textLength="90" x="27" y="317.2129">height: double</text><line style="stroke:#181818;stroke-width:0.5;" x1="8" x2="157" y1="324.7266" y2="324.7266"/><ellipse cx="18" cy="339.5371" fill="#84BE84" rx="3" ry="3" style="stroke:#038048;stroke-width:1.0;"/><text fill="#000000" font-family="sans-serif" font-size="14" lengthAdjust="spacing" textLength="111" x="27" y="343.834">getName(): String</text><ellipse cx="18" cy="358.1582" fill="#84BE84" rx="3" ry="3" style="stroke:#038048;stroke-width:1.0;"/><text fill="#000000" font-family="sans-serif" font-size="14" lengthAdjust="spacing" textLength="86" x="27" y="362.4551">getFloor(): int</text><ellipse cx="18" cy="376.7793" fill="#84BE84" rx="3" ry="3" style="stroke:#038048;stroke-width:1.0;"/><text fill="#000000" font-family="sans-serif" font-size="14" lengthAdjust="spacing" textLength="125" x="27" y="381.0762">getLength(): double</text><ellipse cx="18" cy="395.4004" fill="#84BE84" rx="3" ry="3" style="stroke:#038048;stroke-width:1.0;"/><text fill="#000000" font-family="sans-serif" font-size="14" lengthAdjust="spacing" textLength="117" x="27" y="399.6973">getWidth(): double</text><ellipse cx="18" cy="414.0215" fill="#84BE84" rx="3" ry="3" style="stroke:#038048;stroke-width:1.0;"/><text fill="#000000" font-family="sans-serif" font-size="14" lengthAdjust="spacing" textLength="121" x="27" y="418.3184">getHeight(): double</text></g><!--class House--><g id="elem_House"><rect codeLine="22" fill="#F1F1F1" height="103.8633" id="House" rx="2.5" ry="2.5" style="stroke:#181818;stroke-width:0.5;" width="767" x="193" y="256.6211"/><ellipse cx="552.25" cy="272.6211" fill="#ADD1B2" rx="11" ry="11" style="stroke:#181818;stroke-width:1.0;"/><path d="M555.0156,268.4961 Q555.1719,268.2773 555.3594,268.168 Q555.5469,268.0586 555.7656,268.0586 Q556.1406,268.0586 556.375,268.3242 Q556.6094,268.5742 556.6094,269.1836 L556.6094,270.6367 Q556.6094,271.2461 556.375,271.5117 Q556.1406,271.7773 555.7656,271.7773 Q555.4219,271.7773 555.2188,271.5742 Q555.0156,271.3867 554.9063,270.8711 Q554.8594,270.5117 554.6719,270.3242 Q554.3438,269.9492 553.7344,269.7305 Q553.125,269.5117 552.5,269.5117 Q551.7344,269.5117 551.0938,269.8398 Q550.4688,270.168 549.9688,270.918 Q549.4844,271.668 549.4844,272.6992 L549.4844,273.793 Q549.4844,275.0273 550.375,275.8555 Q551.2656,276.668 552.8594,276.668 Q553.7969,276.668 554.4531,276.418 Q554.8438,276.2617 555.2656,275.8242 Q555.5313,275.5586 555.6719,275.4805 Q555.8281,275.4023 556.0313,275.4023 Q556.3594,275.4023 556.6094,275.668 Q556.875,275.918 556.875,276.2617 Q556.875,276.6055 556.5313,277.0117 Q556.0313,277.5898 555.2344,277.918 Q554.1563,278.3711 552.8594,278.3711 Q551.3438,278.3711 550.1406,277.7461 Q549.1563,277.2461 548.4688,276.1836 Q547.7813,275.1055 547.7813,273.8242 L547.7813,272.668 Q547.7813,271.3398 548.3906,270.1992 Q549.0156,269.043 550.1094,268.4336 Q551.2031,267.8086 552.4375,267.8086 Q553.1719,267.8086 553.8125,267.9805 Q554.4688,268.1367 555.0156,268.4961 Z " fill="#000000"/><text fill="#000000" font-family="sans-serif" font-size="14" lengthAdjust="spacing" textLength="40" x="572.75" y="278.418">House</text><line style="stroke:#181818;stroke-width:0.5;" x1="194" x2="959" y1="288.6211" y2="288.6211"/><rect fill="none" height="6" style="stroke:#C82930;stroke-width:1.0;" width="6" x="201" y="300.4316"/><text fill="#000000" font-family="sans-serif" font-size="14" lengthAdjust="spacing" textLength="111" x="213" y="307.7285">location: Location</text><rect fill="none" height="6" style="stroke:#C82930;stroke-width:1.0;" width="6" x="201" y="319.0527"/><text fill="#000000" font-family="sans-serif" font-size="14" lengthAdjust="spacing" textLength="121" x="213" y="326.3496">roomList: RoomList</text><line style="stroke:#181818;stroke-width:0.5;" x1="194" x2="959" y1="333.8633" y2="333.8633"/><ellipse cx="204" cy="348.6738" fill="#84BE84" rx="3" ry="3" style="stroke:#038048;stroke-width:1.0;"/><text fill="#000000" font-family="sans-serif" font-size="14" lengthAdjust="spacing" textLength="741" x="213" y="352.9707">createAndAddRoomToHouse(String roomName, int floorNumber, double width, double length, double height): boolean</text></g><!--class RoomList--><g id="elem_RoomList"><rect codeLine="28" fill="#F1F1F1" height="103.8633" id="RoomList" rx="2.5" ry="2.5" style="stroke:#181818;stroke-width:0.5;" width="767" x="193" y="485.6211"/><ellipse cx="542.75" cy="501.6211" fill="#ADD1B2" rx="11" ry="11" style="stroke:#181818;stroke-width:1.0;"/><path d="M545.5156,497.4961 Q545.6719,497.2773 545.8594,497.168 Q546.0469,497.0586 546.2656,497.0586 Q546.6406,497.0586 546.875,497.3242 Q547.1094,497.5742 547.1094,498.1836 L547.1094,499.6367 Q547.1094,500.2461 546.875,500.5117 Q546.6406,500.7773 546.2656,500.7773 Q545.9219,500.7773 545.7188,500.5742 Q545.5156,500.3867 545.4063,499.8711 Q545.3594,499.5117 545.1719,499.3242 Q544.8438,498.9492 544.2344,498.7305 Q543.625,498.5117 543,498.5117 Q542.2344,498.5117 541.5938,498.8398 Q540.9688,499.168 540.4688,499.918 Q539.9844,500.668 539.9844,501.6992 L539.9844,502.793 Q539.9844,504.0273 540.875,504.8555 Q541.7656,505.668 543.3594,505.668 Q544.2969,505.668 544.9531,505.418 Q545.3438,505.2617 545.7656,504.8242 Q546.0313,504.5586 546.1719,504.4805 Q546.3281,504.4023 546.5313,504.4023 Q546.8594,504.4023 547.1094,504.668 Q547.375,504.918 547.375,505.2617 Q547.375,505.6055 547.0313,506.0117 Q546.5313,506.5898 545.7344,506.918 Q544.6563,507.3711 543.3594,507.3711 Q541.8438,507.3711 540.6406,506.7461 Q539.6563,506.2461 538.9688,505.1836 Q538.2813,504.1055 538.2813,502.8242 L538.2813,501.668 Q538.2813,500.3398 538.8906,499.1992 Q539.5156,498.043 540.6094,497.4336 Q541.7031,496.8086 542.9375,496.8086 Q543.6719,496.8086 544.3125,496.9805 Q544.9688,497.1367 545.5156,497.4961 Z " fill="#000000"/><text fill="#000000" font-family="sans-serif" font-size="14" lengthAdjust="spacing" textLength="59" x="563.25" y="507.418">RoomList</text><line style="stroke:#181818;stroke-width:0.5;" x1="194" x2="959" y1="517.6211" y2="517.6211"/><rect fill="none" height="6" style="stroke:#C82930;stroke-width:1.0;" width="6" x="201" y="529.4316"/><text fill="#000000" font-family="sans-serif" font-size="14" lengthAdjust="spacing" textLength="137" x="213" y="536.7285">roomList: List&lt;Room&gt;</text><line style="stroke:#181818;stroke-width:0.5;" x1="194" x2="959" y1="544.2422" y2="544.2422"/><ellipse cx="204" cy="559.0527" fill="#84BE84" rx="3" ry="3" style="stroke:#038048;stroke-width:1.0;"/><text fill="#000000" font-family="sans-serif" font-size="14" lengthAdjust="spacing" textLength="741" x="213" y="563.3496">createAndAddRoomToHouse(String roomName, int floorNumber, double width, double length, double height): boolean</text><ellipse cx="204" cy="577.6738" fill="#84BE84" rx="3" ry="3" style="stroke:#038048;stroke-width:1.0;"/><text fill="#000000" font-family="sans-serif" font-size="14" lengthAdjust="spacing" textLength="331" x="213" y="581.9707">isRoomNameInRoomList(String roomName): boolean</text></g><!--class Room--><g id="elem_Room"><rect codeLine="34" fill="#F1F1F1" height="141.1055" id="Room" rx="2.5" ry="2.5" style="stroke:#181818;stroke-width:0.5;" width="229" x="462" y="649.6211"/><ellipse cx="553.75" cy="665.6211" fill="#ADD1B2" rx="11" ry="11" style="stroke:#181818;stroke-width:1.0;"/><path d="M556.5156,661.4961 Q556.6719,661.2773 556.8594,661.168 Q557.0469,661.0586 557.2656,661.0586 Q557.6406,661.0586 557.875,661.3242 Q558.1094,661.5742 558.1094,662.1836 L558.1094,663.6367 Q558.1094,664.2461 557.875,664.5117 Q557.6406,664.7773 557.2656,664.7773 Q556.9219,664.7773 556.7188,664.5742 Q556.5156,664.3867 556.4063,663.8711 Q556.3594,663.5117 556.1719,663.3242 Q555.8438,662.9492 555.2344,662.7305 Q554.625,662.5117 554,662.5117 Q553.2344,662.5117 552.5938,662.8398 Q551.9688,663.168 551.4688,663.918 Q550.9844,664.668 550.9844,665.6992 L550.9844,666.793 Q550.9844,668.0273 551.875,668.8555 Q552.7656,669.668 554.3594,669.668 Q555.2969,669.668 555.9531,669.418 Q556.3438,669.2617 556.7656,668.8242 Q557.0313,668.5586 557.1719,668.4805 Q557.3281,668.4023 557.5313,668.4023 Q557.8594,668.4023 558.1094,668.668 Q558.375,668.918 558.375,669.2617 Q558.375,669.6055 558.0313,670.0117 Q557.5313,670.5898 556.7344,670.918 Q555.6563,671.3711 554.3594,671.3711 Q552.8438,671.3711 551.6406,670.7461 Q550.6563,670.2461 549.9688,669.1836 Q549.2813,668.1055 549.2813,666.8242 L549.2813,665.668 Q549.2813,664.3398 549.8906,663.1992 Q550.5156,662.043 551.6094,661.4336 Q552.7031,660.8086 553.9375,660.8086 Q554.6719,660.8086 555.3125,660.9805 Q555.9688,661.1367 556.5156,661.4961 Z " fill="#000000"/><text fill="#000000" font-family="sans-serif" font-size="14" lengthAdjust="spacing" textLength="37" x="574.25" y="671.418">Room</text><line style="stroke:#181818;stroke-width:0.5;" x1="463" x2="690" y1="681.6211" y2="681.6211"/><rect fill="none" height="6" style="stroke:#C82930;stroke-width:1.0;" width="6" x="470" y="693.4316"/><text fill="#000000" font-family="sans-serif" font-size="14" lengthAdjust="spacing" textLength="113" x="482" y="700.7285">roomName: String</text><rect fill="none" height="6" style="stroke:#C82930;stroke-width:1.0;" width="6" x="470" y="712.0527"/><text fill="#000000" font-family="sans-serif" font-size="14" lengthAdjust="spacing" textLength="100" x="482" y="719.3496">floorNumber: int</text><rect fill="none" height="6" style="stroke:#C82930;stroke-width:1.0;" width="6" x="470" y="730.6738"/><text fill="#000000" font-family="sans-serif" font-size="14" lengthAdjust="spacing" textLength="152" x="482" y="737.9707">dimensions: Dimensions</text><rect fill="none" height="6" style="stroke:#C82930;stroke-width:1.0;" width="6" x="470" y="749.2949"/><text fill="#000000" font-family="sans-serif" font-size="14" lengthAdjust="spacing" textLength="136" x="482" y="756.5918">deviceList: DeviceList</text><line style="stroke:#181818;stroke-width:0.5;" x1="463" x2="690" y1="764.1055" y2="764.1055"/><rect fill="#F24D5C" height="6" style="stroke:#C82930;stroke-width:1.0;" width="6" x="470" y="775.916"/><text fill="#000000" font-family="sans-serif" font-size="14" lengthAdjust="spacing" textLength="203" x="482" y="783.2129">validRoomArguments(): boolean</text></g><!--class Dimensions--><g id="elem_Dimensions"><rect codeLine="42" fill="#F1F1F1" height="122.4844" id="Dimensions" rx="2.5" ry="2.5" style="stroke:#181818;stroke-width:0.5;" width="265" x="444" y="850.6211"/><ellipse cx="535.75" cy="866.6211" fill="#ADD1B2" rx="11" ry="11" style="stroke:#181818;stroke-width:1.0;"/><path d="M538.5156,862.4961 Q538.6719,862.2773 538.8594,862.168 Q539.0469,862.0586 539.2656,862.0586 Q539.6406,862.0586 539.875,862.3242 Q540.1094,862.5742 540.1094,863.1836 L540.1094,864.6367 Q540.1094,865.2461 539.875,865.5117 Q539.6406,865.7773 539.2656,865.7773 Q538.9219,865.7773 538.7188,865.5742 Q538.5156,865.3867 538.4063,864.8711 Q538.3594,864.5117 538.1719,864.3242 Q537.8438,863.9492 537.2344,863.7305 Q536.625,863.5117 536,863.5117 Q535.2344,863.5117 534.5938,863.8398 Q533.9688,864.168 533.4688,864.918 Q532.9844,865.668 532.9844,866.6992 L532.9844,867.793 Q532.9844,869.0273 533.875,869.8555 Q534.7656,870.668 536.3594,870.668 Q537.2969,870.668 537.9531,870.418 Q538.3438,870.2617 538.7656,869.8242 Q539.0313,869.5586 539.1719,869.4805 Q539.3281,869.4023 539.5313,869.4023 Q539.8594,869.4023 540.1094,869.668 Q540.375,869.918 540.375,870.2617 Q540.375,870.6055 540.0313,871.0117 Q539.5313,871.5898 538.7344,871.918 Q537.6563,872.3711 536.3594,872.3711 Q534.8438,872.3711 533.6406,871.7461 Q532.6563,871.2461 531.9688,870.1836 Q531.2813,869.1055 531.2813,867.8242 L531.2813,866.668 Q531.2813,865.3398 531.8906,864.1992 Q532.5156,863.043 533.6094,862.4336 Q534.7031,861.8086 535.9375,861.8086 Q536.6719,861.8086 537.3125,861.9805 Q537.9688,862.1367 538.5156,862.4961 Z " fill="#000000"/><text fill="#000000" font-family="sans-serif" font-size="14" lengthAdjust="spacing" textLength="73" x="556.25" y="872.418">Dimensions</text><line style="stroke:#181818;stroke-width:0.5;" x1="445" x2="708" y1="882.6211" y2="882.6211"/><rect fill="none" height="6" style="stroke:#C82930;stroke-width:1.0;" width="6" x="452" y="894.4316"/><text fill="#000000" font-family="sans-serif" font-size="14" lengthAdjust="spacing" textLength="90" x="464" y="901.7285">length: double</text><rect fill="none" height="6" style="stroke:#C82930;stroke-width:1.0;" width="6" x="452" y="913.0527"/><text fill="#000000" font-family="sans-serif" font-size="14" lengthAdjust="spacing" textLength="83" x="464" y="920.3496">width: double</text><rect fill="none" height="6" style="stroke:#C82930;stroke-width:1.0;" width="6" x="452" y="931.6738"/><text fill="#000000" font-family="sans-serif" font-size="14" lengthAdjust="spacing" textLength="90" x="464" y="938.9707">height: double</text><line style="stroke:#181818;stroke-width:0.5;" x1="445" x2="708" y1="946.4844" y2="946.4844"/><rect fill="#F24D5C" height="6" style="stroke:#C82930;stroke-width:1.0;" width="6" x="452" y="958.2949"/><text fill="#000000" font-family="sans-serif" font-size="14" lengthAdjust="spacing" textLength="239" x="464" y="965.5918">validDimensionsArguments(): boolean</text></g><!--link AddNewRoomToHouseController to House--><g id="link_AddNewRoomToHouseController_House"><path codeLine="49" d="M376.83,131.8011 C417.17,167.3211 475.31,218.5111 518.45,256.5111 " fill="none" id="AddNewRoomToHouseController-House" style="stroke:#181818;stroke-width:1.0;"/></g><!--link AddNewRoomToHouseController to RoomDTO--><g id="link_AddNewRoomToHouseController_RoomDTO"><path codeLine="50" d="M256.35,131.7511 C229.57,148.6411 199.88,169.4111 175.5,191.6211 C169.58,197.0111 163.74,202.7911 158.03,208.8011 " fill="none" id="AddNewRoomToHouseController-RoomDTO" style="stroke:#181818;stroke-width:1.0;"/></g><!--reverse link House to RoomList--><g id="link_House_RoomList"><path codeLine="51" d="M576.5,372.8511 C576.5,410.1111 576.5,448.3611 576.5,485.5811 " fill="none" id="House-backto-RoomList" style="stroke:#181818;stroke-width:1.0;"/><polygon fill="#181818" points="576.5,360.8511,572.5,366.8511,576.5,372.8511,580.5,366.8511,576.5,360.8511" style="stroke:#181818;stroke-width:1.0;"/><text fill="#000000" font-family="sans-serif" font-size="13" lengthAdjust="spacing" textLength="7" x="569.0516" y="382.6878">1</text><text fill="#000000" font-family="sans-serif" font-size="13" lengthAdjust="spacing" textLength="7" x="569.0297" y="474.5031">1</text></g><!--reverse link RoomList to Room--><g id="link_RoomList_Room"><path codeLine="52" d="M576.5,601.8611 C576.5,620.4111 576.5,629.6911 576.5,649.5511 " fill="none" id="RoomList-backto-Room" style="stroke:#181818;stroke-width:1.0;"/><polygon fill="#181818" points="576.5,589.8611,572.5,595.8611,576.5,601.8611,580.5,595.8611,576.5,589.8611" style="stroke:#181818;stroke-width:1.0;"/><text fill="#000000" font-family="sans-serif" font-size="13" lengthAdjust="spacing" textLength="7" x="569.0516" y="611.6991">1</text><text fill="#000000" font-family="sans-serif" font-size="13" lengthAdjust="spacing" textLength="20" x="555.4688" y="638.4349">0..*</text></g><!--reverse link Room to Dimensions--><g id="link_Room_Dimensions"><path codeLine="53" d="M576.5,802.8811 C576.5,822.4011 576.5,831.4511 576.5,850.3711 " fill="none" id="Room-backto-Dimensions" style="stroke:#181818;stroke-width:1.0;"/><polygon fill="#181818" points="576.5,790.8811,572.5,796.8811,576.5,802.8811,580.5,796.8811,576.5,790.8811" style="stroke:#181818;stroke-width:1.0;"/><text fill="#000000" font-family="sans-serif" font-size="13" lengthAdjust="spacing" textLength="7" x="569.1555" y="812.7207">1</text><text fill="#000000" font-family="sans-serif" font-size="13" lengthAdjust="spacing" textLength="7" x="569.0953" y="839.3234">1</text></g><!--SRC=[lLF1Rjim3BthAuXUbZHrqkqe30EC1KCB11dGTkXPiLHRW2mL4jqSXltxHCbMt6BfiCikDlb8FJvI56eq2dxSNt_YK0SG5chPQwi3Ue7ENy4j78L5G0T2IX1WrH6ySpqXs2det13K5MWBpalb2MwSVTBju1LeX8KLVOodD7WoplbOH8BKlR91EnkMQ_QXGtmEVBDvDh7Mq9jru_fDOqG8bTIYzQ9dBBbHdTohurqKyE1kYFEhi-YTCR7qJrQbCXnIXAsYubdcWkpjm_SaF_wN70xE6IKi-pNHJocHYhBsKJk7U_JQjgnAwdbi5Lbbb6snuo3TS32ALKSjvswdTDjXyLUjGk9QB0iRGT-8a32Y962NM0cP7NmawZVOJUAVWQM3r2hfDwuH60VCOJTQkQTTl5kU6YMBhHgl1AhQolhrjB9EcCP0Lupv0lT3Vr1nDN9fIAqNBm-ck7aGvqPD2gPPPrtq_KoXB_zTsKg7kv7oraxgtXOxryax6vD5ZNjpsdiEss97NBteHkKPR8lDgXTXT6g-zkqGqp4i_YJXH9Mk_f-MCzSuCPohzDxJgwhnpVqbQNnVB6_fnSSBk8me_Sj2bhqeqUlr-Z8dfE2hOxCPijy0]--></g></svg>