<?xml version="1.0" encoding="us-ascii" standalone="no"?><svg xmlns="http://www.w3.org/2000/svg" xmlns:xlink="http://www.w3.org/1999/xlink" contentStyleType="text/css" height="722px" preserveAspectRatio="none" style="width:1767px;height:722px;background:#FFFFFF;" version="1.1" viewBox="0 0 1767 722" width="1767px" zoomAndPan="magnify"><defs/><g><text fill="#000000" font-family="sans-serif" font-size="14" font-weight="bold" lengthAdjust="spacing" textLength="1258" x="253.5" y="30.1074">As a Power User [or Administrator], I want to add an actuator to an existing device in a room. The actuator must be of a model of an existing type of actuator. Main Success Scenario</text><rect fill="#FFFFFF" height="564.5293" style="stroke:#181818;stroke-width:1.0;" width="10" x="416" y="111.5332"/><rect fill="#FFFFFF" height="195.0762" style="stroke:#181818;stroke-width:1.0;" width="10" x="965" y="480.9863"/><rect fill="#FFFFFF" height="31.291" style="stroke:#181818;stroke-width:1.0;" width="10" x="1536" y="253.6582"/><rect fill="#FFFFFF" height="146.4941" style="stroke:#181818;stroke-width:1.0;" width="10" x="1536" y="529.5684"/><line style="stroke:#181818;stroke-width:0.5;stroke-dasharray:5.0,5.0;" x1="421" x2="421" y1="78.2422" y2="685.0625"/><line style="stroke:#181818;stroke-width:0.5;stroke-dasharray:5.0,5.0;" x1="969.5" x2="969.5" y1="78.2422" y2="685.0625"/><line style="stroke:#181818;stroke-width:0.5;stroke-dasharray:5.0,5.0;" x1="1541" x2="1541" y1="78.2422" y2="685.0625"/><line style="stroke:#181818;stroke-width:0.5;stroke-dasharray:5.0,5.0;" x1="1699" x2="1699" y1="569.3789" y2="685.0625"/><rect fill="#E2E2F0" height="32.6211" rx="2.5" ry="2.5" style="stroke:#181818;stroke-width:0.5;" width="244" x="299" y="44.6211"/><text fill="#000000" font-family="sans-serif" font-size="14" lengthAdjust="spacing" textLength="230" x="306" y="66.7285">:AddNewActuatorToDeviceController</text><rect fill="#E2E2F0" height="32.6211" rx="2.5" ry="2.5" style="stroke:#181818;stroke-width:0.5;" width="244" x="299" y="684.0625"/><text fill="#000000" font-family="sans-serif" font-size="14" lengthAdjust="spacing" textLength="230" x="306" y="706.1699">:AddNewActuatorToDeviceController</text><rect fill="#E2E2F0" height="32.6211" rx="2.5" ry="2.5" style="stroke:#181818;stroke-width:0.5;" width="61" x="939.5" y="44.6211"/><text fill="#000000" font-family="sans-serif" font-size="14" lengthAdjust="spacing" textLength="47" x="946.5" y="66.7285">:Device</text><rect fill="#E2E2F0" height="32.6211" rx="2.5" ry="2.5" style="stroke:#181818;stroke-width:0.5;" width="61" x="939.5" y="684.0625"/><text fill="#000000" font-family="sans-serif" font-size="14" lengthAdjust="spacing" textLength="47" x="946.5" y="706.1699">:Device</text><rect fill="#E2E2F0" height="32.6211" rx="2.5" ry="2.5" style="stroke:#181818;stroke-width:0.5;" width="136" x="1473" y="44.6211"/><text fill="#000000" font-family="sans-serif" font-size="14" lengthAdjust="spacing" textLength="122" x="1480" y="66.7285">:ActuatorCatalogue</text><rect fill="#E2E2F0" height="32.6211" rx="2.5" ry="2.5" style="stroke:#181818;stroke-width:0.5;" width="136" x="1473" y="684.0625"/><text fill="#000000" font-family="sans-serif" font-size="14" lengthAdjust="spacing" textLength="122" x="1480" y="706.1699">:ActuatorCatalogue</text><rect fill="#E2E2F0" height="32.6211" rx="2.5" ry="2.5" style="stroke:#181818;stroke-width:0.5;" width="123" x="1638" y="684.0625"/><text fill="#000000" font-family="sans-serif" font-size="14" lengthAdjust="spacing" textLength="109" x="1645" y="706.1699">actuator:Actuator</text><rect fill="#FFFFFF" height="564.5293" style="stroke:#181818;stroke-width:1.0;" width="10" x="416" y="111.5332"/><rect fill="#FFFFFF" height="195.0762" style="stroke:#181818;stroke-width:1.0;" width="10" x="965" y="480.9863"/><rect fill="#FFFFFF" height="31.291" style="stroke:#181818;stroke-width:1.0;" width="10" x="1536" y="253.6582"/><rect fill="#FFFFFF" height="146.4941" style="stroke:#181818;stroke-width:1.0;" width="10" x="1536" y="529.5684"/><polygon fill="#181818" points="404,107.5332,414,111.5332,404,115.5332,408,111.5332" style="stroke:#181818;stroke-width:1.0;"/><line style="stroke:#181818;stroke-width:1.0;" x1="0" x2="410" y1="111.5332" y2="111.5332"/><text fill="#000000" font-family="sans-serif" font-size="13" font-weight="bold" lengthAdjust="spacing" textLength="7" x="7" y="106.2705">1</text><text fill="#000000" font-family="sans-serif" font-size="13" lengthAdjust="spacing" textLength="81" x="18" y="106.2705">getRoomList()</text><rect fill="none" height="43.252" style="stroke:#000000;stroke-width:1.5;" width="250" x="296" y="119.5332"/><path d="M296,119.5332 L358,119.5332 L358,128.5332 L348,138.5332 L296,138.5332 L296,119.5332 " fill="#EEEEEE" style="stroke:#000000;stroke-width:2.0;"/><text fill="#000000" font-family="sans-serif" font-size="13" font-weight="bold" lengthAdjust="spacing" textLength="17" x="309" y="135.5615">ref</text><text fill="#000000" font-family="sans-serif" font-size="12" lengthAdjust="spacing" textLength="135" x="353.5" y="155.4824">US06SequenceDiagram</text><polygon fill="#181818" points="11,187.0762,1,191.0762,11,195.0762,7,191.0762" style="stroke:#181818;stroke-width:1.0;"/><line style="stroke:#181818;stroke-width:1.0;stroke-dasharray:2.0,2.0;" x1="5" x2="415" y1="191.0762" y2="191.0762"/><text fill="#000000" font-family="sans-serif" font-size="13" font-weight="bold" lengthAdjust="spacing" textLength="7" x="17" y="185.8135">2</text><text fill="#000000" font-family="sans-serif" font-size="13" lengthAdjust="spacing" textLength="101" x="28" y="185.8135">List&lt;DeviceDTO&gt;</text><polygon fill="#181818" points="404,218.3672,414,222.3672,404,226.3672,408,222.3672" style="stroke:#181818;stroke-width:1.0;"/><line style="stroke:#181818;stroke-width:1.0;" x1="0" x2="410" y1="222.3672" y2="222.3672"/><text fill="#000000" font-family="sans-serif" font-size="13" font-weight="bold" lengthAdjust="spacing" textLength="7" x="7" y="217.1045">3</text><text fill="#000000" font-family="sans-serif" font-size="13" lengthAdjust="spacing" textLength="244" x="18" y="217.1045">getCatalogueOfAvailableActuatorClasses()</text><polygon fill="#181818" points="1524,249.6582,1534,253.6582,1524,257.6582,1528,253.6582" style="stroke:#181818;stroke-width:1.0;"/><line style="stroke:#181818;stroke-width:1.0;" x1="426" x2="1530" y1="253.6582" y2="253.6582"/><text fill="#000000" font-family="sans-serif" font-size="13" font-weight="bold" lengthAdjust="spacing" textLength="7" x="433" y="248.3955">4</text><text fill="#000000" font-family="sans-serif" font-size="13" lengthAdjust="spacing" textLength="122" x="444" y="248.3955">getActuatorClasses()</text><polygon fill="#181818" points="437,280.9492,427,284.9492,437,288.9492,433,284.9492" style="stroke:#181818;stroke-width:1.0;"/><line style="stroke:#181818;stroke-width:1.0;stroke-dasharray:2.0,2.0;" x1="431" x2="1540" y1="284.9492" y2="284.9492"/><text fill="#000000" font-family="sans-serif" font-size="13" font-weight="bold" lengthAdjust="spacing" textLength="7" x="443" y="279.6865">5</text><text fill="#000000" font-family="sans-serif" font-size="13" lengthAdjust="spacing" textLength="71" x="454" y="279.6865">List&lt;String&gt;</text><polygon fill="#181818" points="11,312.2402,1,316.2402,11,320.2402,7,316.2402" style="stroke:#181818;stroke-width:1.0;"/><line style="stroke:#181818;stroke-width:1.0;stroke-dasharray:2.0,2.0;" x1="5" x2="415" y1="316.2402" y2="316.2402"/><text fill="#000000" font-family="sans-serif" font-size="13" font-weight="bold" lengthAdjust="spacing" textLength="7" x="17" y="310.9775">6</text><text fill="#000000" font-family="sans-serif" font-size="13" lengthAdjust="spacing" textLength="71" x="28" y="310.9775">List&lt;String&gt;</text><polygon fill="#181818" points="404,372.4678,414,376.4678,404,380.4678,408,376.4678" style="stroke:#181818;stroke-width:1.0;"/><line style="stroke:#181818;stroke-width:1.0;" x1="0" x2="410" y1="376.4678" y2="376.4678"/><text fill="#000000" font-family="sans-serif" font-size="13" font-weight="bold" lengthAdjust="spacing" textLength="7" x="7" y="362.5596">7</text><text fill="#000000" font-family="sans-serif" font-size="13" lengthAdjust="spacing" textLength="386" x="18" y="353.9141">addActuatorToDevice(DeviceDTO deviceDTO, String actuatorClass,</text><text fill="#000000" font-family="sans-serif" font-size="13" lengthAdjust="spacing" textLength="351" x="22" y="371.2051">String actuatorName, ActuatorProperties actuator properties)</text><path d="M431,329.2402 L431,390.2402 L780,390.2402 L780,339.2402 L770,329.2402 L431,329.2402 " fill="#FEFFDD" style="stroke:#181818;stroke-width:0.5;"/><path d="M770,329.2402 L770,339.2402 L780,339.2402 L770,329.2402 " fill="#FEFFDD" style="stroke:#181818;stroke-width:0.5;"/><text fill="#000000" font-family="sans-serif" font-size="13" lengthAdjust="spacing" textLength="328" x="437" y="348.2686">it is necessary to follow all the steps in the correct order,</text><text fill="#000000" font-family="sans-serif" font-size="13" lengthAdjust="spacing" textLength="308" x="441" y="365.5596">otherwise the hashmap will be empty and the method</text><text fill="#000000" font-family="sans-serif" font-size="13" lengthAdjust="spacing" textLength="219" x="441" y="382.8506">to add a new actuator will return false;</text><line style="stroke:#181818;stroke-width:1.0;" x1="426" x2="468" y1="419.4043" y2="419.4043"/><line style="stroke:#181818;stroke-width:1.0;" x1="468" x2="468" y1="419.4043" y2="432.4043"/><line style="stroke:#181818;stroke-width:1.0;" x1="427" x2="468" y1="432.4043" y2="432.4043"/><polygon fill="#181818" points="437,428.4043,427,432.4043,437,436.4043,433,432.4043" style="stroke:#181818;stroke-width:1.0;"/><text fill="#000000" font-family="sans-serif" font-size="13" font-weight="bold" lengthAdjust="spacing" textLength="7" x="433" y="414.1416">8</text><text fill="#000000" font-family="sans-serif" font-size="13" lengthAdjust="spacing" textLength="160" x="444" y="414.1416">get.(DeviceDTO deviceDTO)</text><polygon fill="#181818" points="953,476.9863,963,480.9863,953,484.9863,957,480.9863" style="stroke:#181818;stroke-width:1.0;"/><line style="stroke:#181818;stroke-width:1.0;" x1="426" x2="959" y1="480.9863" y2="480.9863"/><text fill="#000000" font-family="sans-serif" font-size="13" font-weight="bold" lengthAdjust="spacing" textLength="7" x="433" y="467.0781">9</text><text fill="#000000" font-family="sans-serif" font-size="13" lengthAdjust="spacing" textLength="509" x="444" y="458.4326">createActuatorAndAddToDevice(String actuatorName, ActuatorCatalogue actuatorClass,</text><text fill="#000000" font-family="sans-serif" font-size="13" lengthAdjust="spacing" textLength="348" x="448" y="475.7236">String actuatorClass, ActuatorProperties actuatorProperties)</text><polygon fill="#181818" points="1524,525.5684,1534,529.5684,1524,533.5684,1528,529.5684" style="stroke:#181818;stroke-width:1.0;"/><line style="stroke:#181818;stroke-width:1.0;" x1="975" x2="1530" y1="529.5684" y2="529.5684"/><text fill="#000000" font-family="sans-serif" font-size="13" font-weight="bold" lengthAdjust="spacing" textLength="14" x="982" y="515.6602">10</text><text fill="#000000" font-family="sans-serif" font-size="13" lengthAdjust="spacing" textLength="524" x="1000" y="507.0146">createActuatorFromCatalogue(String actuatorName, ActuatorCatalogue actuatorCatalogue,</text><text fill="#000000" font-family="sans-serif" font-size="13" lengthAdjust="spacing" textLength="348" x="1004" y="524.3057">String actuatorClass, ActuatorProperties actuatorProperties)</text><polygon fill="#181818" points="1626,556.8594,1636,560.8594,1626,564.8594,1630,560.8594" style="stroke:#181818;stroke-width:1.0;"/><line style="stroke:#181818;stroke-width:1.0;stroke-dasharray:2.0,2.0;" x1="1546" x2="1632" y1="560.8594" y2="560.8594"/><text fill="#000000" font-family="sans-serif" font-size="13" font-weight="bold" lengthAdjust="spacing" textLength="14" x="1553" y="555.5967">11</text><text fill="#000000" font-family="sans-serif" font-size="13" lengthAdjust="spacing" textLength="50" x="1571" y="555.5967">&#171;create&#187;</text><rect fill="#E2E2F0" height="32.6211" rx="2.5" ry="2.5" style="stroke:#181818;stroke-width:0.5;" width="123" x="1638" y="537.5684"/><text fill="#000000" font-family="sans-serif" font-size="14" lengthAdjust="spacing" textLength="109" x="1645" y="559.6758">actuator:Actuator</text><polygon fill="#181818" points="986,600.4805,976,604.4805,986,608.4805,982,604.4805" style="stroke:#181818;stroke-width:1.0;"/><line style="stroke:#181818;stroke-width:1.0;stroke-dasharray:2.0,2.0;" x1="980" x2="1535" y1="604.4805" y2="604.4805"/><text fill="#000000" font-family="sans-serif" font-size="13" font-weight="bold" lengthAdjust="spacing" textLength="14" x="992" y="599.2178">12</text><text fill="#000000" font-family="sans-serif" font-size="13" lengthAdjust="spacing" textLength="86" x="1010" y="599.2178">return Actuator</text><polygon fill="#181818" points="437,631.7715,427,635.7715,437,639.7715,433,635.7715" style="stroke:#181818;stroke-width:1.0;"/><line style="stroke:#181818;stroke-width:1.0;stroke-dasharray:2.0,2.0;" x1="431" x2="964" y1="635.7715" y2="635.7715"/><text fill="#000000" font-family="sans-serif" font-size="13" font-weight="bold" lengthAdjust="spacing" textLength="14" x="443" y="630.5088">13</text><text fill="#000000" font-family="sans-serif" font-size="13" lengthAdjust="spacing" textLength="86" x="461" y="630.5088">return Actuator</text><polygon fill="#181818" points="11,663.0625,1,667.0625,11,671.0625,7,667.0625" style="stroke:#181818;stroke-width:1.0;"/><line style="stroke:#181818;stroke-width:1.0;stroke-dasharray:2.0,2.0;" x1="5" x2="415" y1="667.0625" y2="667.0625"/><text fill="#000000" font-family="sans-serif" font-size="13" font-weight="bold" lengthAdjust="spacing" textLength="14" x="17" y="661.7998">14</text><text fill="#000000" font-family="sans-serif" font-size="13" lengthAdjust="spacing" textLength="22" x="35" y="661.7998">true</text><!--SRC=[hLHBRzD04BxlhnZbGblb0HmuX2XIr0e92TgAf2VWiFLEafNsONR7CVttZ5-RndMAaCZ1MSzhlvdl6x_P4-LnFflbHZegh9bctiuY_YhGPJXHMkw2j4B8Whmhx2C68KYJGHYj8aYuzoK6U8Zy-Eu3h9JLJaSAadpuEORFK79P80zIAP0EP4P5vQjD3l0t1skt0uK7dI5eZe3WlPt2Pe_7Q5j4WaS4lsM_zGfDVNnMW9xonjscJE6hv6hh8iimHbXdw6JGVYHo6KXdEgzmZUOhfMwnNBL96tzJuxZsZe8t1iC8P8I7zRltHrElGfDHnpN7_WrjxMj9qlXTqOIcjzFe3dtAgeEx5y6_oR87Pmuxf6yyiYyyYOjBmINqGHBsKGVSWZzKP9tQ7zPlFwnRlczQkj4fu7WX5fF9Y-kgUnPDgpURk-KvIAd3k-tg8BMHZmRJB8oC4IEZFKq4BfNowYelCr9_nn6c4qm6iDHurnHO9KkXS23_R9TTrc2FhEY-RYxIM5f1ysaCJPMapBgLyG_NjzzAY-F4zNtmER8oC1wt84-sI-4yjn3qRay2D86EuB1IkWnFrMvj6QGlGHe3n8iK2VDORLVralaGC2FmGM4O2m3Frb3gYBLxB-FUoXnApScySsXpUk9TKxNN8kszugHkf_dUyWYnJWf8HN2mbIRYnrfC5Te1hWTaCnsQuP1Ech0vP06PpMviAwTufHCVhuxuA9k_KTFON-Fc_XarIM7jzw3vwsdx5FQdu6ro_ZFgplB_a9_RhQxErTKS5ekcX-Mo5zGnqyeWVRswEGmGtmyTsaWA3ESF]--></g></svg>