<?xml version="1.0" encoding="us-ascii" standalone="no"?><svg xmlns="http://www.w3.org/2000/svg" xmlns:xlink="http://www.w3.org/1999/xlink" contentStyleType="text/css" height="1207px" preserveAspectRatio="none" style="width:3622px;height:1207px;background:#FFFFFF;" version="1.1" viewBox="0 0 3622 1207" width="3622px" zoomAndPan="magnify"><defs/><g><!--class RoomService--><g id="elem_RoomService"><rect codeLine="3" fill="#F1F1F1" height="66.6211" id="RoomService" rx="2.5" ry="2.5" style="stroke:#181818;stroke-width:0.5;" width="116" x="409" y="189"/><ellipse cx="424" cy="205" fill="#ADD1B2" rx="11" ry="11" style="stroke:#181818;stroke-width:1.0;"/><path d="M426.7656,200.875 Q426.9219,200.6563 427.1094,200.5469 Q427.2969,200.4375 427.5156,200.4375 Q427.8906,200.4375 428.125,200.7031 Q428.3594,200.9531 428.3594,201.5625 L428.3594,203.0156 Q428.3594,203.625 428.125,203.8906 Q427.8906,204.1563 427.5156,204.1563 Q427.1719,204.1563 426.9688,203.9531 Q426.7656,203.7656 426.6563,203.25 Q426.6094,202.8906 426.4219,202.7031 Q426.0938,202.3281 425.4844,202.1094 Q424.875,201.8906 424.25,201.8906 Q423.4844,201.8906 422.8438,202.2188 Q422.2188,202.5469 421.7188,203.2969 Q421.2344,204.0469 421.2344,205.0781 L421.2344,206.1719 Q421.2344,207.4063 422.125,208.2344 Q423.0156,209.0469 424.6094,209.0469 Q425.5469,209.0469 426.2031,208.7969 Q426.5938,208.6406 427.0156,208.2031 Q427.2813,207.9375 427.4219,207.8594 Q427.5781,207.7813 427.7813,207.7813 Q428.1094,207.7813 428.3594,208.0469 Q428.625,208.2969 428.625,208.6406 Q428.625,208.9844 428.2813,209.3906 Q427.7813,209.9688 426.9844,210.2969 Q425.9063,210.75 424.6094,210.75 Q423.0938,210.75 421.8906,210.125 Q420.9063,209.625 420.2188,208.5625 Q419.5313,207.4844 419.5313,206.2031 L419.5313,205.0469 Q419.5313,203.7188 420.1406,202.5781 Q420.7656,201.4219 421.8594,200.8125 Q422.9531,200.1875 424.1875,200.1875 Q424.9219,200.1875 425.5625,200.3594 Q426.2188,200.5156 426.7656,200.875 Z " fill="#000000"/><text fill="#000000" font-family="sans-serif" font-size="14" lengthAdjust="spacing" textLength="84" x="438" y="210.7969">RoomService</text><line style="stroke:#181818;stroke-width:0.5;" x1="410" x2="524" y1="221" y2="221"/><line style="stroke:#181818;stroke-width:0.5;" x1="410" x2="524" y1="229" y2="229"/><ellipse cx="420" cy="243.8105" fill="#84BE84" rx="3" ry="3" style="stroke:#038048;stroke-width:1.0;"/><text fill="#000000" font-family="sans-serif" font-size="14" lengthAdjust="spacing" textLength="89" x="429" y="248.1074">getRoomList()</text></g><!--class RoomRepository--><g id="elem_RoomRepository"><rect codeLine="7" fill="#F1F1F1" height="66.6211" id="RoomRepository" rx="2.5" ry="2.5" style="stroke:#181818;stroke-width:0.5;" width="228" x="7" y="325"/><ellipse cx="64.25" cy="341" fill="#ADD1B2" rx="11" ry="11" style="stroke:#181818;stroke-width:1.0;"/><path d="M67.0156,336.875 Q67.1719,336.6563 67.3594,336.5469 Q67.5469,336.4375 67.7656,336.4375 Q68.1406,336.4375 68.375,336.7031 Q68.6094,336.9531 68.6094,337.5625 L68.6094,339.0156 Q68.6094,339.625 68.375,339.8906 Q68.1406,340.1563 67.7656,340.1563 Q67.4219,340.1563 67.2188,339.9531 Q67.0156,339.7656 66.9063,339.25 Q66.8594,338.8906 66.6719,338.7031 Q66.3438,338.3281 65.7344,338.1094 Q65.125,337.8906 64.5,337.8906 Q63.7344,337.8906 63.0938,338.2188 Q62.4688,338.5469 61.9688,339.2969 Q61.4844,340.0469 61.4844,341.0781 L61.4844,342.1719 Q61.4844,343.4063 62.375,344.2344 Q63.2656,345.0469 64.8594,345.0469 Q65.7969,345.0469 66.4531,344.7969 Q66.8438,344.6406 67.2656,344.2031 Q67.5313,343.9375 67.6719,343.8594 Q67.8281,343.7813 68.0313,343.7813 Q68.3594,343.7813 68.6094,344.0469 Q68.875,344.2969 68.875,344.6406 Q68.875,344.9844 68.5313,345.3906 Q68.0313,345.9688 67.2344,346.2969 Q66.1563,346.75 64.8594,346.75 Q63.3438,346.75 62.1406,346.125 Q61.1563,345.625 60.4688,344.5625 Q59.7813,343.4844 59.7813,342.2031 L59.7813,341.0469 Q59.7813,339.7188 60.3906,338.5781 Q61.0156,337.4219 62.1094,336.8125 Q63.2031,336.1875 64.4375,336.1875 Q65.1719,336.1875 65.8125,336.3594 Q66.4688,336.5156 67.0156,336.875 Z " fill="#000000"/><text fill="#000000" font-family="sans-serif" font-size="14" lengthAdjust="spacing" textLength="105" x="84.75" y="346.7969">RoomRepository</text><line style="stroke:#181818;stroke-width:0.5;" x1="8" x2="234" y1="357" y2="357"/><line style="stroke:#181818;stroke-width:0.5;" x1="8" x2="234" y1="365" y2="365"/><ellipse cx="18" cy="379.8105" fill="#84BE84" rx="3" ry="3" style="stroke:#038048;stroke-width:1.0;"/><text fill="#000000" font-family="sans-serif" font-size="14" lengthAdjust="spacing" textLength="202" x="27" y="384.1074">findAllEntities(): Iterable&lt;Room&gt;</text></g><!--class RoomMapper--><g id="elem_RoomMapper"><rect codeLine="11" fill="#F1F1F1" height="66.6211" id="RoomMapper" rx="2.5" ry="2.5" style="stroke:#181818;stroke-width:0.5;" width="394" x="270" y="325"/><ellipse cx="420.25" cy="341" fill="#ADD1B2" rx="11" ry="11" style="stroke:#181818;stroke-width:1.0;"/><path d="M423.0156,336.875 Q423.1719,336.6563 423.3594,336.5469 Q423.5469,336.4375 423.7656,336.4375 Q424.1406,336.4375 424.375,336.7031 Q424.6094,336.9531 424.6094,337.5625 L424.6094,339.0156 Q424.6094,339.625 424.375,339.8906 Q424.1406,340.1563 423.7656,340.1563 Q423.4219,340.1563 423.2188,339.9531 Q423.0156,339.7656 422.9063,339.25 Q422.8594,338.8906 422.6719,338.7031 Q422.3438,338.3281 421.7344,338.1094 Q421.125,337.8906 420.5,337.8906 Q419.7344,337.8906 419.0938,338.2188 Q418.4688,338.5469 417.9688,339.2969 Q417.4844,340.0469 417.4844,341.0781 L417.4844,342.1719 Q417.4844,343.4063 418.375,344.2344 Q419.2656,345.0469 420.8594,345.0469 Q421.7969,345.0469 422.4531,344.7969 Q422.8438,344.6406 423.2656,344.2031 Q423.5313,343.9375 423.6719,343.8594 Q423.8281,343.7813 424.0313,343.7813 Q424.3594,343.7813 424.6094,344.0469 Q424.875,344.2969 424.875,344.6406 Q424.875,344.9844 424.5313,345.3906 Q424.0313,345.9688 423.2344,346.2969 Q422.1563,346.75 420.8594,346.75 Q419.3438,346.75 418.1406,346.125 Q417.1563,345.625 416.4688,344.5625 Q415.7813,343.4844 415.7813,342.2031 L415.7813,341.0469 Q415.7813,339.7188 416.3906,338.5781 Q417.0156,337.4219 418.1094,336.8125 Q419.2031,336.1875 420.4375,336.1875 Q421.1719,336.1875 421.8125,336.3594 Q422.4688,336.5156 423.0156,336.875 Z " fill="#000000"/><text fill="#000000" font-family="sans-serif" font-size="14" lengthAdjust="spacing" textLength="85" x="440.75" y="346.7969">RoomMapper</text><line style="stroke:#181818;stroke-width:0.5;" x1="271" x2="663" y1="357" y2="357"/><line style="stroke:#181818;stroke-width:0.5;" x1="271" x2="663" y1="365" y2="365"/><ellipse cx="281" cy="379.8105" fill="#84BE84" rx="3" ry="3" style="stroke:#038048;stroke-width:1.0;"/><text fill="#000000" font-family="sans-serif" font-size="14" lengthAdjust="spacing" textLength="368" x="290" y="384.1074">convertObjects(Iterable&lt;Room&gt;): Map&lt;RoomDTO, Room&gt;</text></g><!--class RoomDTO--><g id="elem_RoomDTO"><rect codeLine="14" fill="#F1F1F1" height="85.2422" id="RoomDTO" rx="2.5" ry="2.5" style="stroke:#181818;stroke-width:0.5;" width="143" x="395.5" y="461"/><ellipse cx="430.3" cy="477" fill="#ADD1B2" rx="11" ry="11" style="stroke:#181818;stroke-width:1.0;"/><path d="M433.0656,472.875 Q433.2219,472.6563 433.4094,472.5469 Q433.5969,472.4375 433.8156,472.4375 Q434.1906,472.4375 434.425,472.7031 Q434.6594,472.9531 434.6594,473.5625 L434.6594,475.0156 Q434.6594,475.625 434.425,475.8906 Q434.1906,476.1563 433.8156,476.1563 Q433.4719,476.1563 433.2688,475.9531 Q433.0656,475.7656 432.9563,475.25 Q432.9094,474.8906 432.7219,474.7031 Q432.3938,474.3281 431.7844,474.1094 Q431.175,473.8906 430.55,473.8906 Q429.7844,473.8906 429.1438,474.2188 Q428.5188,474.5469 428.0188,475.2969 Q427.5344,476.0469 427.5344,477.0781 L427.5344,478.1719 Q427.5344,479.4063 428.425,480.2344 Q429.3156,481.0469 430.9094,481.0469 Q431.8469,481.0469 432.5031,480.7969 Q432.8938,480.6406 433.3156,480.2031 Q433.5813,479.9375 433.7219,479.8594 Q433.8781,479.7813 434.0813,479.7813 Q434.4094,479.7813 434.6594,480.0469 Q434.925,480.2969 434.925,480.6406 Q434.925,480.9844 434.5813,481.3906 Q434.0813,481.9688 433.2844,482.2969 Q432.2063,482.75 430.9094,482.75 Q429.3938,482.75 428.1906,482.125 Q427.2063,481.625 426.5188,480.5625 Q425.8313,479.4844 425.8313,478.2031 L425.8313,477.0469 Q425.8313,475.7188 426.4406,474.5781 Q427.0656,473.4219 428.1594,472.8125 Q429.2531,472.1875 430.4875,472.1875 Q431.2219,472.1875 431.8625,472.3594 Q432.5188,472.5156 433.0656,472.875 Z " fill="#000000"/><text fill="#000000" font-family="sans-serif" font-size="14" lengthAdjust="spacing" textLength="67" x="448.7" y="482.7969">RoomDTO</text><line style="stroke:#181818;stroke-width:0.5;" x1="396.5" x2="537.5" y1="493" y2="493"/><rect fill="none" height="6" style="stroke:#C82930;stroke-width:1.0;" width="6" x="403.5" y="504.8105"/><text fill="#000000" font-family="sans-serif" font-size="14" lengthAdjust="spacing" textLength="117" x="415.5" y="512.1074">roomName : String</text><line style="stroke:#181818;stroke-width:0.5;" x1="396.5" x2="537.5" y1="519.6211" y2="519.6211"/><ellipse cx="406.5" cy="534.4316" fill="#84BE84" rx="3" ry="3" style="stroke:#038048;stroke-width:1.0;"/><text fill="#000000" font-family="sans-serif" font-size="14" lengthAdjust="spacing" textLength="103" x="415.5" y="538.7285">getRoomName()</text></g><!--class DeviceService--><g id="elem_DeviceService"><rect codeLine="19" fill="#F1F1F1" height="66.6211" id="DeviceService" rx="2.5" ry="2.5" style="stroke:#181818;stroke-width:0.5;" width="122" x="1113" y="189"/><ellipse cx="1128" cy="205" fill="#ADD1B2" rx="11" ry="11" style="stroke:#181818;stroke-width:1.0;"/><path d="M1130.7656,200.875 Q1130.9219,200.6563 1131.1094,200.5469 Q1131.2969,200.4375 1131.5156,200.4375 Q1131.8906,200.4375 1132.125,200.7031 Q1132.3594,200.9531 1132.3594,201.5625 L1132.3594,203.0156 Q1132.3594,203.625 1132.125,203.8906 Q1131.8906,204.1563 1131.5156,204.1563 Q1131.1719,204.1563 1130.9688,203.9531 Q1130.7656,203.7656 1130.6563,203.25 Q1130.6094,202.8906 1130.4219,202.7031 Q1130.0938,202.3281 1129.4844,202.1094 Q1128.875,201.8906 1128.25,201.8906 Q1127.4844,201.8906 1126.8438,202.2188 Q1126.2188,202.5469 1125.7188,203.2969 Q1125.2344,204.0469 1125.2344,205.0781 L1125.2344,206.1719 Q1125.2344,207.4063 1126.125,208.2344 Q1127.0156,209.0469 1128.6094,209.0469 Q1129.5469,209.0469 1130.2031,208.7969 Q1130.5938,208.6406 1131.0156,208.2031 Q1131.2813,207.9375 1131.4219,207.8594 Q1131.5781,207.7813 1131.7813,207.7813 Q1132.1094,207.7813 1132.3594,208.0469 Q1132.625,208.2969 1132.625,208.6406 Q1132.625,208.9844 1132.2813,209.3906 Q1131.7813,209.9688 1130.9844,210.2969 Q1129.9063,210.75 1128.6094,210.75 Q1127.0938,210.75 1125.8906,210.125 Q1124.9063,209.625 1124.2188,208.5625 Q1123.5313,207.4844 1123.5313,206.2031 L1123.5313,205.0469 Q1123.5313,203.7188 1124.1406,202.5781 Q1124.7656,201.4219 1125.8594,200.8125 Q1126.9531,200.1875 1128.1875,200.1875 Q1128.9219,200.1875 1129.5625,200.3594 Q1130.2188,200.5156 1130.7656,200.875 Z " fill="#000000"/><text fill="#000000" font-family="sans-serif" font-size="14" lengthAdjust="spacing" textLength="90" x="1142" y="210.7969">DeviceService</text><line style="stroke:#181818;stroke-width:0.5;" x1="1114" x2="1234" y1="221" y2="221"/><line style="stroke:#181818;stroke-width:0.5;" x1="1114" x2="1234" y1="229" y2="229"/><ellipse cx="1124" cy="243.8105" fill="#84BE84" rx="3" ry="3" style="stroke:#038048;stroke-width:1.0;"/><text fill="#000000" font-family="sans-serif" font-size="14" lengthAdjust="spacing" textLength="95" x="1133" y="248.1074">getDeviceList()</text></g><!--class DeviceRepository--><g id="elem_DeviceRepository"><rect codeLine="22" fill="#F1F1F1" height="66.6211" id="DeviceRepository" rx="2.5" ry="2.5" style="stroke:#181818;stroke-width:0.5;" width="234" x="699" y="325"/><ellipse cx="756.25" cy="341" fill="#ADD1B2" rx="11" ry="11" style="stroke:#181818;stroke-width:1.0;"/><path d="M759.0156,336.875 Q759.1719,336.6563 759.3594,336.5469 Q759.5469,336.4375 759.7656,336.4375 Q760.1406,336.4375 760.375,336.7031 Q760.6094,336.9531 760.6094,337.5625 L760.6094,339.0156 Q760.6094,339.625 760.375,339.8906 Q760.1406,340.1563 759.7656,340.1563 Q759.4219,340.1563 759.2188,339.9531 Q759.0156,339.7656 758.9063,339.25 Q758.8594,338.8906 758.6719,338.7031 Q758.3438,338.3281 757.7344,338.1094 Q757.125,337.8906 756.5,337.8906 Q755.7344,337.8906 755.0938,338.2188 Q754.4688,338.5469 753.9688,339.2969 Q753.4844,340.0469 753.4844,341.0781 L753.4844,342.1719 Q753.4844,343.4063 754.375,344.2344 Q755.2656,345.0469 756.8594,345.0469 Q757.7969,345.0469 758.4531,344.7969 Q758.8438,344.6406 759.2656,344.2031 Q759.5313,343.9375 759.6719,343.8594 Q759.8281,343.7813 760.0313,343.7813 Q760.3594,343.7813 760.6094,344.0469 Q760.875,344.2969 760.875,344.6406 Q760.875,344.9844 760.5313,345.3906 Q760.0313,345.9688 759.2344,346.2969 Q758.1563,346.75 756.8594,346.75 Q755.3438,346.75 754.1406,346.125 Q753.1563,345.625 752.4688,344.5625 Q751.7813,343.4844 751.7813,342.2031 L751.7813,341.0469 Q751.7813,339.7188 752.3906,338.5781 Q753.0156,337.4219 754.1094,336.8125 Q755.2031,336.1875 756.4375,336.1875 Q757.1719,336.1875 757.8125,336.3594 Q758.4688,336.5156 759.0156,336.875 Z " fill="#000000"/><text fill="#000000" font-family="sans-serif" font-size="14" lengthAdjust="spacing" textLength="111" x="776.75" y="346.7969">DeviceRepository</text><line style="stroke:#181818;stroke-width:0.5;" x1="700" x2="932" y1="357" y2="357"/><line style="stroke:#181818;stroke-width:0.5;" x1="700" x2="932" y1="365" y2="365"/><ellipse cx="710" cy="379.8105" fill="#84BE84" rx="3" ry="3" style="stroke:#038048;stroke-width:1.0;"/><text fill="#000000" font-family="sans-serif" font-size="14" lengthAdjust="spacing" textLength="208" x="719" y="384.1074">findAllEntities(): Iterable&lt;Device&gt;</text></g><!--class DeviceMapper--><g id="elem_DeviceMapper"><rect codeLine="26" fill="#F1F1F1" height="66.6211" id="DeviceMapper" rx="2.5" ry="2.5" style="stroke:#181818;stroke-width:0.5;" width="412" x="968" y="325"/><ellipse cx="1124.25" cy="341" fill="#ADD1B2" rx="11" ry="11" style="stroke:#181818;stroke-width:1.0;"/><path d="M1127.0156,336.875 Q1127.1719,336.6563 1127.3594,336.5469 Q1127.5469,336.4375 1127.7656,336.4375 Q1128.1406,336.4375 1128.375,336.7031 Q1128.6094,336.9531 1128.6094,337.5625 L1128.6094,339.0156 Q1128.6094,339.625 1128.375,339.8906 Q1128.1406,340.1563 1127.7656,340.1563 Q1127.4219,340.1563 1127.2188,339.9531 Q1127.0156,339.7656 1126.9063,339.25 Q1126.8594,338.8906 1126.6719,338.7031 Q1126.3438,338.3281 1125.7344,338.1094 Q1125.125,337.8906 1124.5,337.8906 Q1123.7344,337.8906 1123.0938,338.2188 Q1122.4688,338.5469 1121.9688,339.2969 Q1121.4844,340.0469 1121.4844,341.0781 L1121.4844,342.1719 Q1121.4844,343.4063 1122.375,344.2344 Q1123.2656,345.0469 1124.8594,345.0469 Q1125.7969,345.0469 1126.4531,344.7969 Q1126.8438,344.6406 1127.2656,344.2031 Q1127.5313,343.9375 1127.6719,343.8594 Q1127.8281,343.7813 1128.0313,343.7813 Q1128.3594,343.7813 1128.6094,344.0469 Q1128.875,344.2969 1128.875,344.6406 Q1128.875,344.9844 1128.5313,345.3906 Q1128.0313,345.9688 1127.2344,346.2969 Q1126.1563,346.75 1124.8594,346.75 Q1123.3438,346.75 1122.1406,346.125 Q1121.1563,345.625 1120.4688,344.5625 Q1119.7813,343.4844 1119.7813,342.2031 L1119.7813,341.0469 Q1119.7813,339.7188 1120.3906,338.5781 Q1121.0156,337.4219 1122.1094,336.8125 Q1123.2031,336.1875 1124.4375,336.1875 Q1125.1719,336.1875 1125.8125,336.3594 Q1126.4688,336.5156 1127.0156,336.875 Z " fill="#000000"/><text fill="#000000" font-family="sans-serif" font-size="14" lengthAdjust="spacing" textLength="91" x="1144.75" y="346.7969">DeviceMapper</text><line style="stroke:#181818;stroke-width:0.5;" x1="969" x2="1379" y1="357" y2="357"/><line style="stroke:#181818;stroke-width:0.5;" x1="969" x2="1379" y1="365" y2="365"/><ellipse cx="979" cy="379.8105" fill="#84BE84" rx="3" ry="3" style="stroke:#038048;stroke-width:1.0;"/><text fill="#000000" font-family="sans-serif" font-size="14" lengthAdjust="spacing" textLength="386" x="988" y="384.1074">convertObjects(Iterable&lt;Device&gt;): Map&lt;DeviceDTO, Device&gt;</text></g><!--class DeviceDTO--><g id="elem_DeviceDTO"><rect codeLine="29" fill="#F1F1F1" height="85.2422" id="DeviceDTO" rx="2.5" ry="2.5" style="stroke:#181818;stroke-width:0.5;" width="152" x="1098" y="461"/><ellipse cx="1134.15" cy="477" fill="#ADD1B2" rx="11" ry="11" style="stroke:#181818;stroke-width:1.0;"/><path d="M1136.9156,472.875 Q1137.0719,472.6563 1137.2594,472.5469 Q1137.4469,472.4375 1137.6656,472.4375 Q1138.0406,472.4375 1138.275,472.7031 Q1138.5094,472.9531 1138.5094,473.5625 L1138.5094,475.0156 Q1138.5094,475.625 1138.275,475.8906 Q1138.0406,476.1563 1137.6656,476.1563 Q1137.3219,476.1563 1137.1188,475.9531 Q1136.9156,475.7656 1136.8063,475.25 Q1136.7594,474.8906 1136.5719,474.7031 Q1136.2438,474.3281 1135.6344,474.1094 Q1135.025,473.8906 1134.4,473.8906 Q1133.6344,473.8906 1132.9938,474.2188 Q1132.3688,474.5469 1131.8688,475.2969 Q1131.3844,476.0469 1131.3844,477.0781 L1131.3844,478.1719 Q1131.3844,479.4063 1132.275,480.2344 Q1133.1656,481.0469 1134.7594,481.0469 Q1135.6969,481.0469 1136.3531,480.7969 Q1136.7438,480.6406 1137.1656,480.2031 Q1137.4313,479.9375 1137.5719,479.8594 Q1137.7281,479.7813 1137.9313,479.7813 Q1138.2594,479.7813 1138.5094,480.0469 Q1138.775,480.2969 1138.775,480.6406 Q1138.775,480.9844 1138.4313,481.3906 Q1137.9313,481.9688 1137.1344,482.2969 Q1136.0563,482.75 1134.7594,482.75 Q1133.2438,482.75 1132.0406,482.125 Q1131.0563,481.625 1130.3688,480.5625 Q1129.6813,479.4844 1129.6813,478.2031 L1129.6813,477.0469 Q1129.6813,475.7188 1130.2906,474.5781 Q1130.9156,473.4219 1132.0094,472.8125 Q1133.1031,472.1875 1134.3375,472.1875 Q1135.0719,472.1875 1135.7125,472.3594 Q1136.3688,472.5156 1136.9156,472.875 Z " fill="#000000"/><text fill="#000000" font-family="sans-serif" font-size="14" lengthAdjust="spacing" textLength="73" x="1152.85" y="482.7969">DeviceDTO</text><line style="stroke:#181818;stroke-width:0.5;" x1="1099" x2="1249" y1="493" y2="493"/><rect fill="none" height="6" style="stroke:#C82930;stroke-width:1.0;" width="6" x="1106" y="504.8105"/><text fill="#000000" font-family="sans-serif" font-size="14" lengthAdjust="spacing" textLength="126" x="1118" y="512.1074">deviceName : String</text><line style="stroke:#181818;stroke-width:0.5;" x1="1099" x2="1249" y1="519.6211" y2="519.6211"/><ellipse cx="1109" cy="534.4316" fill="#84BE84" rx="3" ry="3" style="stroke:#038048;stroke-width:1.0;"/><text fill="#000000" font-family="sans-serif" font-size="14" lengthAdjust="spacing" textLength="109" x="1118" y="538.7285">getDeviceName()</text></g><!--class AddNewActuatorToDeviceController--><g id="elem_AddNewActuatorToDeviceController"><rect codeLine="34" fill="#F1F1F1" height="122.4844" id="AddNewActuatorToDeviceController" rx="2.5" ry="2.5" style="stroke:#181818;stroke-width:0.5;" width="620" x="1065" y="7"/><ellipse cx="1257.75" cy="23" fill="#ADD1B2" rx="11" ry="11" style="stroke:#181818;stroke-width:1.0;"/><path d="M1260.5156,18.875 Q1260.6719,18.6563 1260.8594,18.5469 Q1261.0469,18.4375 1261.2656,18.4375 Q1261.6406,18.4375 1261.875,18.7031 Q1262.1094,18.9531 1262.1094,19.5625 L1262.1094,21.0156 Q1262.1094,21.625 1261.875,21.8906 Q1261.6406,22.1563 1261.2656,22.1563 Q1260.9219,22.1563 1260.7188,21.9531 Q1260.5156,21.7656 1260.4063,21.25 Q1260.3594,20.8906 1260.1719,20.7031 Q1259.8438,20.3281 1259.2344,20.1094 Q1258.625,19.8906 1258,19.8906 Q1257.2344,19.8906 1256.5938,20.2188 Q1255.9688,20.5469 1255.4688,21.2969 Q1254.9844,22.0469 1254.9844,23.0781 L1254.9844,24.1719 Q1254.9844,25.4063 1255.875,26.2344 Q1256.7656,27.0469 1258.3594,27.0469 Q1259.2969,27.0469 1259.9531,26.7969 Q1260.3438,26.6406 1260.7656,26.2031 Q1261.0313,25.9375 1261.1719,25.8594 Q1261.3281,25.7813 1261.5313,25.7813 Q1261.8594,25.7813 1262.1094,26.0469 Q1262.375,26.2969 1262.375,26.6406 Q1262.375,26.9844 1262.0313,27.3906 Q1261.5313,27.9688 1260.7344,28.2969 Q1259.6563,28.75 1258.3594,28.75 Q1256.8438,28.75 1255.6406,28.125 Q1254.6563,27.625 1253.9688,26.5625 Q1253.2813,25.4844 1253.2813,24.2031 L1253.2813,23.0469 Q1253.2813,21.7188 1253.8906,20.5781 Q1254.5156,19.4219 1255.6094,18.8125 Q1256.7031,18.1875 1257.9375,18.1875 Q1258.6719,18.1875 1259.3125,18.3594 Q1259.9688,18.5156 1260.5156,18.875 Z " fill="#000000"/><text fill="#000000" font-family="sans-serif" font-size="14" lengthAdjust="spacing" textLength="226" x="1278.25" y="28.7969">AddNewActuatorToDeviceController</text><line style="stroke:#181818;stroke-width:0.5;" x1="1066" x2="1684" y1="39" y2="39"/><line style="stroke:#181818;stroke-width:0.5;" x1="1066" x2="1684" y1="47" y2="47"/><ellipse cx="1076" cy="61.8105" fill="#84BE84" rx="3" ry="3" style="stroke:#038048;stroke-width:1.0;"/><text fill="#000000" font-family="sans-serif" font-size="14" lengthAdjust="spacing" textLength="89" x="1085" y="66.1074">getRoomList()</text><ellipse cx="1076" cy="80.4316" fill="#84BE84" rx="3" ry="3" style="stroke:#038048;stroke-width:1.0;"/><text fill="#000000" font-family="sans-serif" font-size="14" lengthAdjust="spacing" textLength="95" x="1085" y="84.7285">getDeviceList()</text><ellipse cx="1076" cy="99.0527" fill="#84BE84" rx="3" ry="3" style="stroke:#038048;stroke-width:1.0;"/><text fill="#000000" font-family="sans-serif" font-size="14" lengthAdjust="spacing" textLength="257" x="1085" y="103.3496">getListOfAvailableActuatorFunctionality()</text><ellipse cx="1076" cy="117.6738" fill="#84BE84" rx="3" ry="3" style="stroke:#038048;stroke-width:1.0;"/><text fill="#000000" font-family="sans-serif" font-size="14" lengthAdjust="spacing" textLength="594" x="1085" y="121.9707">createActuatorAndAddToDevice(DeviceDTO, ActuatorFunctionalityDTO, String actuatorName)</text></g><!--class ActuatorFunctionalityService--><g id="elem_ActuatorFunctionalityService"><rect codeLine="41" fill="#F1F1F1" height="66.6211" id="ActuatorFunctionalityService" rx="2.5" ry="2.5" style="stroke:#181818;stroke-width:0.5;" width="212" x="1471" y="189"/><ellipse cx="1486" cy="205" fill="#ADD1B2" rx="11" ry="11" style="stroke:#181818;stroke-width:1.0;"/><path d="M1488.7656,200.875 Q1488.9219,200.6563 1489.1094,200.5469 Q1489.2969,200.4375 1489.5156,200.4375 Q1489.8906,200.4375 1490.125,200.7031 Q1490.3594,200.9531 1490.3594,201.5625 L1490.3594,203.0156 Q1490.3594,203.625 1490.125,203.8906 Q1489.8906,204.1563 1489.5156,204.1563 Q1489.1719,204.1563 1488.9688,203.9531 Q1488.7656,203.7656 1488.6563,203.25 Q1488.6094,202.8906 1488.4219,202.7031 Q1488.0938,202.3281 1487.4844,202.1094 Q1486.875,201.8906 1486.25,201.8906 Q1485.4844,201.8906 1484.8438,202.2188 Q1484.2188,202.5469 1483.7188,203.2969 Q1483.2344,204.0469 1483.2344,205.0781 L1483.2344,206.1719 Q1483.2344,207.4063 1484.125,208.2344 Q1485.0156,209.0469 1486.6094,209.0469 Q1487.5469,209.0469 1488.2031,208.7969 Q1488.5938,208.6406 1489.0156,208.2031 Q1489.2813,207.9375 1489.4219,207.8594 Q1489.5781,207.7813 1489.7813,207.7813 Q1490.1094,207.7813 1490.3594,208.0469 Q1490.625,208.2969 1490.625,208.6406 Q1490.625,208.9844 1490.2813,209.3906 Q1489.7813,209.9688 1488.9844,210.2969 Q1487.9063,210.75 1486.6094,210.75 Q1485.0938,210.75 1483.8906,210.125 Q1482.9063,209.625 1482.2188,208.5625 Q1481.5313,207.4844 1481.5313,206.2031 L1481.5313,205.0469 Q1481.5313,203.7188 1482.1406,202.5781 Q1482.7656,201.4219 1483.8594,200.8125 Q1484.9531,200.1875 1486.1875,200.1875 Q1486.9219,200.1875 1487.5625,200.3594 Q1488.2188,200.5156 1488.7656,200.875 Z " fill="#000000"/><text fill="#000000" font-family="sans-serif" font-size="14" lengthAdjust="spacing" textLength="180" x="1500" y="210.7969">ActuatorFunctionalityService</text><line style="stroke:#181818;stroke-width:0.5;" x1="1472" x2="1682" y1="221" y2="221"/><line style="stroke:#181818;stroke-width:0.5;" x1="1472" x2="1682" y1="229" y2="229"/><ellipse cx="1482" cy="243.8105" fill="#84BE84" rx="3" ry="3" style="stroke:#038048;stroke-width:1.0;"/><text fill="#000000" font-family="sans-serif" font-size="14" lengthAdjust="spacing" textLength="185" x="1491" y="248.1074">getActuatorFunctionalityList()</text></g><!--class ActuatorFunctionalityRepository--><g id="elem_ActuatorFunctionalityRepository"><rect codeLine="45" fill="#F1F1F1" height="66.6211" id="ActuatorFunctionalityRepository" rx="2.5" ry="2.5" style="stroke:#181818;stroke-width:0.5;" width="324" x="1415" y="325"/><ellipse cx="1472.25" cy="341" fill="#ADD1B2" rx="11" ry="11" style="stroke:#181818;stroke-width:1.0;"/><path d="M1475.0156,336.875 Q1475.1719,336.6563 1475.3594,336.5469 Q1475.5469,336.4375 1475.7656,336.4375 Q1476.1406,336.4375 1476.375,336.7031 Q1476.6094,336.9531 1476.6094,337.5625 L1476.6094,339.0156 Q1476.6094,339.625 1476.375,339.8906 Q1476.1406,340.1563 1475.7656,340.1563 Q1475.4219,340.1563 1475.2188,339.9531 Q1475.0156,339.7656 1474.9063,339.25 Q1474.8594,338.8906 1474.6719,338.7031 Q1474.3438,338.3281 1473.7344,338.1094 Q1473.125,337.8906 1472.5,337.8906 Q1471.7344,337.8906 1471.0938,338.2188 Q1470.4688,338.5469 1469.9688,339.2969 Q1469.4844,340.0469 1469.4844,341.0781 L1469.4844,342.1719 Q1469.4844,343.4063 1470.375,344.2344 Q1471.2656,345.0469 1472.8594,345.0469 Q1473.7969,345.0469 1474.4531,344.7969 Q1474.8438,344.6406 1475.2656,344.2031 Q1475.5313,343.9375 1475.6719,343.8594 Q1475.8281,343.7813 1476.0313,343.7813 Q1476.3594,343.7813 1476.6094,344.0469 Q1476.875,344.2969 1476.875,344.6406 Q1476.875,344.9844 1476.5313,345.3906 Q1476.0313,345.9688 1475.2344,346.2969 Q1474.1563,346.75 1472.8594,346.75 Q1471.3438,346.75 1470.1406,346.125 Q1469.1563,345.625 1468.4688,344.5625 Q1467.7813,343.4844 1467.7813,342.2031 L1467.7813,341.0469 Q1467.7813,339.7188 1468.3906,338.5781 Q1469.0156,337.4219 1470.1094,336.8125 Q1471.2031,336.1875 1472.4375,336.1875 Q1473.1719,336.1875 1473.8125,336.3594 Q1474.4688,336.5156 1475.0156,336.875 Z " fill="#000000"/><text fill="#000000" font-family="sans-serif" font-size="14" lengthAdjust="spacing" textLength="201" x="1492.75" y="346.7969">ActuatorFunctionalityRepository</text><line style="stroke:#181818;stroke-width:0.5;" x1="1416" x2="1738" y1="357" y2="357"/><line style="stroke:#181818;stroke-width:0.5;" x1="1416" x2="1738" y1="365" y2="365"/><ellipse cx="1426" cy="379.8105" fill="#84BE84" rx="3" ry="3" style="stroke:#038048;stroke-width:1.0;"/><text fill="#000000" font-family="sans-serif" font-size="14" lengthAdjust="spacing" textLength="298" x="1435" y="384.1074">findAllEntities(): Iterable&lt;ActuatorFunctionality&gt;</text></g><!--class ActuatorFunctionalityMapper--><g id="elem_ActuatorFunctionalityMapper"><rect codeLine="49" fill="#F1F1F1" height="66.6211" id="ActuatorFunctionalityMapper" rx="2.5" ry="2.5" style="stroke:#181818;stroke-width:0.5;" width="682" x="1774" y="325"/><ellipse cx="2020.25" cy="341" fill="#ADD1B2" rx="11" ry="11" style="stroke:#181818;stroke-width:1.0;"/><path d="M2023.0156,336.875 Q2023.1719,336.6563 2023.3594,336.5469 Q2023.5469,336.4375 2023.7656,336.4375 Q2024.1406,336.4375 2024.375,336.7031 Q2024.6094,336.9531 2024.6094,337.5625 L2024.6094,339.0156 Q2024.6094,339.625 2024.375,339.8906 Q2024.1406,340.1563 2023.7656,340.1563 Q2023.4219,340.1563 2023.2188,339.9531 Q2023.0156,339.7656 2022.9063,339.25 Q2022.8594,338.8906 2022.6719,338.7031 Q2022.3438,338.3281 2021.7344,338.1094 Q2021.125,337.8906 2020.5,337.8906 Q2019.7344,337.8906 2019.0938,338.2188 Q2018.4688,338.5469 2017.9688,339.2969 Q2017.4844,340.0469 2017.4844,341.0781 L2017.4844,342.1719 Q2017.4844,343.4063 2018.375,344.2344 Q2019.2656,345.0469 2020.8594,345.0469 Q2021.7969,345.0469 2022.4531,344.7969 Q2022.8438,344.6406 2023.2656,344.2031 Q2023.5313,343.9375 2023.6719,343.8594 Q2023.8281,343.7813 2024.0313,343.7813 Q2024.3594,343.7813 2024.6094,344.0469 Q2024.875,344.2969 2024.875,344.6406 Q2024.875,344.9844 2024.5313,345.3906 Q2024.0313,345.9688 2023.2344,346.2969 Q2022.1563,346.75 2020.8594,346.75 Q2019.3438,346.75 2018.1406,346.125 Q2017.1563,345.625 2016.4688,344.5625 Q2015.7813,343.4844 2015.7813,342.2031 L2015.7813,341.0469 Q2015.7813,339.7188 2016.3906,338.5781 Q2017.0156,337.4219 2018.1094,336.8125 Q2019.2031,336.1875 2020.4375,336.1875 Q2021.1719,336.1875 2021.8125,336.3594 Q2022.4688,336.5156 2023.0156,336.875 Z " fill="#000000"/><text fill="#000000" font-family="sans-serif" font-size="14" lengthAdjust="spacing" textLength="181" x="2040.75" y="346.7969">ActuatorFunctionalityMapper</text><line style="stroke:#181818;stroke-width:0.5;" x1="1775" x2="2455" y1="357" y2="357"/><line style="stroke:#181818;stroke-width:0.5;" x1="1775" x2="2455" y1="365" y2="365"/><ellipse cx="1785" cy="379.8105" fill="#84BE84" rx="3" ry="3" style="stroke:#038048;stroke-width:1.0;"/><text fill="#000000" font-family="sans-serif" font-size="14" lengthAdjust="spacing" textLength="656" x="1794" y="384.1074">convertObjects(Iterable&lt;ActuatorFunctionality&gt;): Map&lt;ActuatorFunctionalityDTO, ActuatorFunctionality&gt;</text></g><!--class ActuatorFunctionalityDTO--><g id="elem_ActuatorFunctionalityDTO"><rect codeLine="108" fill="#F1F1F1" height="85.2422" id="ActuatorFunctionalityDTO" rx="2.5" ry="2.5" style="stroke:#181818;stroke-width:0.5;" width="243" x="1993.5" y="461"/><ellipse cx="2030.1" cy="477" fill="#ADD1B2" rx="11" ry="11" style="stroke:#181818;stroke-width:1.0;"/><path d="M2032.8656,472.875 Q2033.0219,472.6563 2033.2094,472.5469 Q2033.3969,472.4375 2033.6156,472.4375 Q2033.9906,472.4375 2034.225,472.7031 Q2034.4594,472.9531 2034.4594,473.5625 L2034.4594,475.0156 Q2034.4594,475.625 2034.225,475.8906 Q2033.9906,476.1563 2033.6156,476.1563 Q2033.2719,476.1563 2033.0688,475.9531 Q2032.8656,475.7656 2032.7563,475.25 Q2032.7094,474.8906 2032.5219,474.7031 Q2032.1938,474.3281 2031.5844,474.1094 Q2030.975,473.8906 2030.35,473.8906 Q2029.5844,473.8906 2028.9438,474.2188 Q2028.3188,474.5469 2027.8188,475.2969 Q2027.3344,476.0469 2027.3344,477.0781 L2027.3344,478.1719 Q2027.3344,479.4063 2028.225,480.2344 Q2029.1156,481.0469 2030.7094,481.0469 Q2031.6469,481.0469 2032.3031,480.7969 Q2032.6938,480.6406 2033.1156,480.2031 Q2033.3813,479.9375 2033.5219,479.8594 Q2033.6781,479.7813 2033.8813,479.7813 Q2034.2094,479.7813 2034.4594,480.0469 Q2034.725,480.2969 2034.725,480.6406 Q2034.725,480.9844 2034.3813,481.3906 Q2033.8813,481.9688 2033.0844,482.2969 Q2032.0063,482.75 2030.7094,482.75 Q2029.1938,482.75 2027.9906,482.125 Q2027.0063,481.625 2026.3188,480.5625 Q2025.6313,479.4844 2025.6313,478.2031 L2025.6313,477.0469 Q2025.6313,475.7188 2026.2406,474.5781 Q2026.8656,473.4219 2027.9594,472.8125 Q2029.0531,472.1875 2030.2875,472.1875 Q2031.0219,472.1875 2031.6625,472.3594 Q2032.3188,472.5156 2032.8656,472.875 Z " fill="#000000"/><text fill="#000000" font-family="sans-serif" font-size="14" lengthAdjust="spacing" textLength="163" x="2048.9" y="482.7969">ActuatorFunctionalityDTO</text><line style="stroke:#181818;stroke-width:0.5;" x1="1994.5" x2="2235.5" y1="493" y2="493"/><rect fill="none" height="6" style="stroke:#C82930;stroke-width:1.0;" width="6" x="2001.5" y="504.8105"/><text fill="#000000" font-family="sans-serif" font-size="14" lengthAdjust="spacing" textLength="217" x="2013.5" y="512.1074">actuatorFunctionalityName : String</text><line style="stroke:#181818;stroke-width:0.5;" x1="1994.5" x2="2235.5" y1="519.6211" y2="519.6211"/><ellipse cx="2004.5" cy="534.4316" fill="#84BE84" rx="3" ry="3" style="stroke:#038048;stroke-width:1.0;"/><text fill="#000000" font-family="sans-serif" font-size="14" lengthAdjust="spacing" textLength="199" x="2013.5" y="538.7285">getActuatorFunctionalityName()</text></g><!--class ActuatorService--><g id="elem_ActuatorService"><rect codeLine="57" fill="#F1F1F1" height="66.6211" id="ActuatorService" rx="2.5" ry="2.5" style="stroke:#181818;stroke-width:0.5;" width="560" x="2480" y="189"/><ellipse cx="2705.75" cy="205" fill="#ADD1B2" rx="11" ry="11" style="stroke:#181818;stroke-width:1.0;"/><path d="M2708.5156,200.875 Q2708.6719,200.6563 2708.8594,200.5469 Q2709.0469,200.4375 2709.2656,200.4375 Q2709.6406,200.4375 2709.875,200.7031 Q2710.1094,200.9531 2710.1094,201.5625 L2710.1094,203.0156 Q2710.1094,203.625 2709.875,203.8906 Q2709.6406,204.1563 2709.2656,204.1563 Q2708.9219,204.1563 2708.7188,203.9531 Q2708.5156,203.7656 2708.4063,203.25 Q2708.3594,202.8906 2708.1719,202.7031 Q2707.8438,202.3281 2707.2344,202.1094 Q2706.625,201.8906 2706,201.8906 Q2705.2344,201.8906 2704.5938,202.2188 Q2703.9688,202.5469 2703.4688,203.2969 Q2702.9844,204.0469 2702.9844,205.0781 L2702.9844,206.1719 Q2702.9844,207.4063 2703.875,208.2344 Q2704.7656,209.0469 2706.3594,209.0469 Q2707.2969,209.0469 2707.9531,208.7969 Q2708.3438,208.6406 2708.7656,208.2031 Q2709.0313,207.9375 2709.1719,207.8594 Q2709.3281,207.7813 2709.5313,207.7813 Q2709.8594,207.7813 2710.1094,208.0469 Q2710.375,208.2969 2710.375,208.6406 Q2710.375,208.9844 2710.0313,209.3906 Q2709.5313,209.9688 2708.7344,210.2969 Q2707.6563,210.75 2706.3594,210.75 Q2704.8438,210.75 2703.6406,210.125 Q2702.6563,209.625 2701.9688,208.5625 Q2701.2813,207.4844 2701.2813,206.2031 L2701.2813,205.0469 Q2701.2813,203.7188 2701.8906,202.5781 Q2702.5156,201.4219 2703.6094,200.8125 Q2704.7031,200.1875 2705.9375,200.1875 Q2706.6719,200.1875 2707.3125,200.3594 Q2707.9688,200.5156 2708.5156,200.875 Z " fill="#000000"/><text fill="#000000" font-family="sans-serif" font-size="14" lengthAdjust="spacing" textLength="100" x="2726.25" y="210.7969">ActuatorService</text><line style="stroke:#181818;stroke-width:0.5;" x1="2481" x2="3039" y1="221" y2="221"/><line style="stroke:#181818;stroke-width:0.5;" x1="2481" x2="3039" y1="229" y2="229"/><ellipse cx="2491" cy="243.8105" fill="#84BE84" rx="3" ry="3" style="stroke:#038048;stroke-width:1.0;"/><text fill="#000000" font-family="sans-serif" font-size="14" lengthAdjust="spacing" textLength="534" x="2500" y="248.1074">createActuatorAndAddToDevice(Device, ActuatorFunctionality, String actuatorName)</text></g><!--class ActuatorFactory--><g id="elem_ActuatorFactory"><rect codeLine="61" fill="#F1F1F1" height="66.6211" id="ActuatorFactory" rx="2.5" ry="2.5" style="stroke:#181818;stroke-width:0.5;" width="537" x="2491.5" y="325"/><ellipse cx="2705.25" cy="341" fill="#ADD1B2" rx="11" ry="11" style="stroke:#181818;stroke-width:1.0;"/><path d="M2708.0156,336.875 Q2708.1719,336.6563 2708.3594,336.5469 Q2708.5469,336.4375 2708.7656,336.4375 Q2709.1406,336.4375 2709.375,336.7031 Q2709.6094,336.9531 2709.6094,337.5625 L2709.6094,339.0156 Q2709.6094,339.625 2709.375,339.8906 Q2709.1406,340.1563 2708.7656,340.1563 Q2708.4219,340.1563 2708.2188,339.9531 Q2708.0156,339.7656 2707.9063,339.25 Q2707.8594,338.8906 2707.6719,338.7031 Q2707.3438,338.3281 2706.7344,338.1094 Q2706.125,337.8906 2705.5,337.8906 Q2704.7344,337.8906 2704.0938,338.2188 Q2703.4688,338.5469 2702.9688,339.2969 Q2702.4844,340.0469 2702.4844,341.0781 L2702.4844,342.1719 Q2702.4844,343.4063 2703.375,344.2344 Q2704.2656,345.0469 2705.8594,345.0469 Q2706.7969,345.0469 2707.4531,344.7969 Q2707.8438,344.6406 2708.2656,344.2031 Q2708.5313,343.9375 2708.6719,343.8594 Q2708.8281,343.7813 2709.0313,343.7813 Q2709.3594,343.7813 2709.6094,344.0469 Q2709.875,344.2969 2709.875,344.6406 Q2709.875,344.9844 2709.5313,345.3906 Q2709.0313,345.9688 2708.2344,346.2969 Q2707.1563,346.75 2705.8594,346.75 Q2704.3438,346.75 2703.1406,346.125 Q2702.1563,345.625 2701.4688,344.5625 Q2700.7813,343.4844 2700.7813,342.2031 L2700.7813,341.0469 Q2700.7813,339.7188 2701.3906,338.5781 Q2702.0156,337.4219 2703.1094,336.8125 Q2704.2031,336.1875 2705.4375,336.1875 Q2706.1719,336.1875 2706.8125,336.3594 Q2707.4688,336.5156 2708.0156,336.875 Z " fill="#000000"/><text fill="#000000" font-family="sans-serif" font-size="14" lengthAdjust="spacing" textLength="101" x="2725.75" y="346.7969">ActuatorFactory</text><line style="stroke:#181818;stroke-width:0.5;" x1="2492.5" x2="3027.5" y1="357" y2="357"/><line style="stroke:#181818;stroke-width:0.5;" x1="2492.5" x2="3027.5" y1="365" y2="365"/><ellipse cx="2502.5" cy="379.8105" fill="#84BE84" rx="3" ry="3" style="stroke:#038048;stroke-width:1.0;"/><text fill="#000000" font-family="sans-serif" font-size="14" lengthAdjust="spacing" textLength="511" x="2511.5" y="384.1074">createActuator(DeviceID, ActuatorFunctionalityID, String actuatorName): Actuator</text></g><!--class Actuator--><g id="elem_Actuator"><rect codeLine="65" fill="#F1F1F1" height="48" id="Actuator" rx="2.5" ry="2.5" style="stroke:#181818;stroke-width:0.5;" width="85" x="2717.5" y="479.5"/><ellipse cx="2732.5" cy="495.5" fill="#B4A7E5" rx="11" ry="11" style="stroke:#181818;stroke-width:1.0;"/><path d="M2733.4531,492.1406 L2733.4531,498.7969 L2735.1719,498.7969 Q2735.7813,498.7969 2736.0469,499.0313 Q2736.3125,499.2656 2736.3125,499.6563 Q2736.3125,500.0313 2736.0469,500.2656 Q2735.7813,500.5 2735.1719,500.5 L2730.0313,500.5 Q2729.4219,500.5 2729.1563,500.2656 Q2728.8906,500.0313 2728.8906,499.6406 Q2728.8906,499.2656 2729.1563,499.0313 Q2729.4219,498.7969 2730.0313,498.7969 L2731.75,498.7969 L2731.75,492.1406 L2730.0313,492.1406 Q2729.4219,492.1406 2729.1563,491.9063 Q2728.8906,491.6719 2728.8906,491.2813 Q2728.8906,490.9063 2729.1563,490.6719 Q2729.4219,490.4375 2730.0313,490.4375 L2735.1719,490.4375 Q2735.7813,490.4375 2736.0469,490.6719 Q2736.3125,490.9063 2736.3125,491.2813 Q2736.3125,491.6719 2736.0469,491.9063 Q2735.7813,492.1406 2735.1719,492.1406 L2733.4531,492.1406 Z " fill="#000000"/><text fill="#000000" font-family="sans-serif" font-size="14" font-style="italic" lengthAdjust="spacing" textLength="53" x="2746.5" y="501.2969">Actuator</text><line style="stroke:#181818;stroke-width:0.5;" x1="2718.5" x2="2801.5" y1="511.5" y2="511.5"/><line style="stroke:#181818;stroke-width:0.5;" x1="2718.5" x2="2801.5" y1="519.5" y2="519.5"/></g><!--class ActuatorSpecificInteger--><g id="elem_ActuatorSpecificInteger"><rect codeLine="68" fill="#F1F1F1" height="48" id="ActuatorSpecificInteger" rx="2.5" ry="2.5" style="stroke:#181818;stroke-width:0.5;" width="179" x="2815.5" y="606"/><ellipse cx="2830.5" cy="622" fill="#B4A7E5" rx="11" ry="11" style="stroke:#181818;stroke-width:1.0;"/><path d="M2831.4531,618.6406 L2831.4531,625.2969 L2833.1719,625.2969 Q2833.7813,625.2969 2834.0469,625.5313 Q2834.3125,625.7656 2834.3125,626.1563 Q2834.3125,626.5313 2834.0469,626.7656 Q2833.7813,627 2833.1719,627 L2828.0313,627 Q2827.4219,627 2827.1563,626.7656 Q2826.8906,626.5313 2826.8906,626.1406 Q2826.8906,625.7656 2827.1563,625.5313 Q2827.4219,625.2969 2828.0313,625.2969 L2829.75,625.2969 L2829.75,618.6406 L2828.0313,618.6406 Q2827.4219,618.6406 2827.1563,618.4063 Q2826.8906,618.1719 2826.8906,617.7813 Q2826.8906,617.4063 2827.1563,617.1719 Q2827.4219,616.9375 2828.0313,616.9375 L2833.1719,616.9375 Q2833.7813,616.9375 2834.0469,617.1719 Q2834.3125,617.4063 2834.3125,617.7813 Q2834.3125,618.1719 2834.0469,618.4063 Q2833.7813,618.6406 2833.1719,618.6406 L2831.4531,618.6406 Z " fill="#000000"/><text fill="#000000" font-family="sans-serif" font-size="14" font-style="italic" lengthAdjust="spacing" textLength="147" x="2844.5" y="627.7969">ActuatorSpecificInteger</text><line style="stroke:#181818;stroke-width:0.5;" x1="2816.5" x2="2993.5" y1="638" y2="638"/><line style="stroke:#181818;stroke-width:0.5;" x1="2816.5" x2="2993.5" y1="646" y2="646"/></g><!--class ActuatorSpecificDecimal--><g id="elem_ActuatorSpecificDecimal"><rect codeLine="71" fill="#F1F1F1" height="48" id="ActuatorSpecificDecimal" rx="2.5" ry="2.5" style="stroke:#181818;stroke-width:0.5;" width="184" x="2523" y="606"/><ellipse cx="2538" cy="622" fill="#B4A7E5" rx="11" ry="11" style="stroke:#181818;stroke-width:1.0;"/><path d="M2538.9531,618.6406 L2538.9531,625.2969 L2540.6719,625.2969 Q2541.2813,625.2969 2541.5469,625.5313 Q2541.8125,625.7656 2541.8125,626.1563 Q2541.8125,626.5313 2541.5469,626.7656 Q2541.2813,627 2540.6719,627 L2535.5313,627 Q2534.9219,627 2534.6563,626.7656 Q2534.3906,626.5313 2534.3906,626.1406 Q2534.3906,625.7656 2534.6563,625.5313 Q2534.9219,625.2969 2535.5313,625.2969 L2537.25,625.2969 L2537.25,618.6406 L2535.5313,618.6406 Q2534.9219,618.6406 2534.6563,618.4063 Q2534.3906,618.1719 2534.3906,617.7813 Q2534.3906,617.4063 2534.6563,617.1719 Q2534.9219,616.9375 2535.5313,616.9375 L2540.6719,616.9375 Q2541.2813,616.9375 2541.5469,617.1719 Q2541.8125,617.4063 2541.8125,617.7813 Q2541.8125,618.1719 2541.5469,618.4063 Q2541.2813,618.6406 2540.6719,618.6406 L2538.9531,618.6406 Z " fill="#000000"/><text fill="#000000" font-family="sans-serif" font-size="14" font-style="italic" lengthAdjust="spacing" textLength="152" x="2552" y="627.7969">ActuatorSpecificDecimal</text><line style="stroke:#181818;stroke-width:0.5;" x1="2524" x2="2706" y1="638" y2="638"/><line style="stroke:#181818;stroke-width:0.5;" x1="2524" x2="2706" y1="646" y2="646"/></g><!--class BlindSetterActuator--><g id="elem_BlindSetterActuator"><rect codeLine="73" fill="#F1F1F1" height="122.4844" id="BlindSetterActuator" rx="2.5" ry="2.5" style="stroke:#181818;stroke-width:0.5;" width="329" x="2558.5" y="723.5"/><ellipse cx="2657.75" cy="739.5" fill="#ADD1B2" rx="11" ry="11" style="stroke:#181818;stroke-width:1.0;"/><path d="M2660.5156,735.375 Q2660.6719,735.1563 2660.8594,735.0469 Q2661.0469,734.9375 2661.2656,734.9375 Q2661.6406,734.9375 2661.875,735.2031 Q2662.1094,735.4531 2662.1094,736.0625 L2662.1094,737.5156 Q2662.1094,738.125 2661.875,738.3906 Q2661.6406,738.6563 2661.2656,738.6563 Q2660.9219,738.6563 2660.7188,738.4531 Q2660.5156,738.2656 2660.4063,737.75 Q2660.3594,737.3906 2660.1719,737.2031 Q2659.8438,736.8281 2659.2344,736.6094 Q2658.625,736.3906 2658,736.3906 Q2657.2344,736.3906 2656.5938,736.7188 Q2655.9688,737.0469 2655.4688,737.7969 Q2654.9844,738.5469 2654.9844,739.5781 L2654.9844,740.6719 Q2654.9844,741.9063 2655.875,742.7344 Q2656.7656,743.5469 2658.3594,743.5469 Q2659.2969,743.5469 2659.9531,743.2969 Q2660.3438,743.1406 2660.7656,742.7031 Q2661.0313,742.4375 2661.1719,742.3594 Q2661.3281,742.2813 2661.5313,742.2813 Q2661.8594,742.2813 2662.1094,742.5469 Q2662.375,742.7969 2662.375,743.1406 Q2662.375,743.4844 2662.0313,743.8906 Q2661.5313,744.4688 2660.7344,744.7969 Q2659.6563,745.25 2658.3594,745.25 Q2656.8438,745.25 2655.6406,744.625 Q2654.6563,744.125 2653.9688,743.0625 Q2653.2813,741.9844 2653.2813,740.7031 L2653.2813,739.5469 Q2653.2813,738.2188 2653.8906,737.0781 Q2654.5156,735.9219 2655.6094,735.3125 Q2656.7031,734.6875 2657.9375,734.6875 Q2658.6719,734.6875 2659.3125,734.8594 Q2659.9688,735.0156 2660.5156,735.375 Z " fill="#000000"/><text fill="#000000" font-family="sans-serif" font-size="14" lengthAdjust="spacing" textLength="122" x="2678.25" y="745.2969">BlindSetterActuator</text><line style="stroke:#181818;stroke-width:0.5;" x1="2559.5" x2="2886.5" y1="755.5" y2="755.5"/><rect fill="none" height="6" style="stroke:#C82930;stroke-width:1.0;" width="6" x="2566.5" y="767.3105"/><text fill="#000000" font-family="sans-serif" font-size="14" lengthAdjust="spacing" textLength="166" x="2578.5" y="774.6074">actuatorName : ActuatorID</text><rect fill="none" height="6" style="stroke:#C82930;stroke-width:1.0;" width="6" x="2566.5" y="785.9316"/><text fill="#000000" font-family="sans-serif" font-size="14" lengthAdjust="spacing" textLength="303" x="2578.5" y="793.2285">actuatorFunctionalityID : ActuatorFunctionalityID</text><rect fill="none" height="6" style="stroke:#C82930;stroke-width:1.0;" width="6" x="2566.5" y="804.5527"/><text fill="#000000" font-family="sans-serif" font-size="14" lengthAdjust="spacing" textLength="243" x="2578.5" y="811.8496">actuatorProperties: ActuatorProperties</text><rect fill="none" height="6" style="stroke:#C82930;stroke-width:1.0;" width="6" x="2566.5" y="823.1738"/><text fill="#000000" font-family="sans-serif" font-size="14" lengthAdjust="spacing" textLength="145" x="2578.5" y="830.4707">deviceName : DeviceID</text><line style="stroke:#181818;stroke-width:0.5;" x1="2559.5" x2="2886.5" y1="837.9844" y2="837.9844"/></g><!--class DecimalSetterActuator--><g id="elem_DecimalSetterActuator"><rect codeLine="79" fill="#F1F1F1" height="141.1055" id="DecimalSetterActuator" rx="2.5" ry="2.5" style="stroke:#181818;stroke-width:0.5;" width="329" x="2194.5" y="714"/><ellipse cx="2284.25" cy="730" fill="#ADD1B2" rx="11" ry="11" style="stroke:#181818;stroke-width:1.0;"/><path d="M2287.0156,725.875 Q2287.1719,725.6563 2287.3594,725.5469 Q2287.5469,725.4375 2287.7656,725.4375 Q2288.1406,725.4375 2288.375,725.7031 Q2288.6094,725.9531 2288.6094,726.5625 L2288.6094,728.0156 Q2288.6094,728.625 2288.375,728.8906 Q2288.1406,729.1563 2287.7656,729.1563 Q2287.4219,729.1563 2287.2188,728.9531 Q2287.0156,728.7656 2286.9063,728.25 Q2286.8594,727.8906 2286.6719,727.7031 Q2286.3438,727.3281 2285.7344,727.1094 Q2285.125,726.8906 2284.5,726.8906 Q2283.7344,726.8906 2283.0938,727.2188 Q2282.4688,727.5469 2281.9688,728.2969 Q2281.4844,729.0469 2281.4844,730.0781 L2281.4844,731.1719 Q2281.4844,732.4063 2282.375,733.2344 Q2283.2656,734.0469 2284.8594,734.0469 Q2285.7969,734.0469 2286.4531,733.7969 Q2286.8438,733.6406 2287.2656,733.2031 Q2287.5313,732.9375 2287.6719,732.8594 Q2287.8281,732.7813 2288.0313,732.7813 Q2288.3594,732.7813 2288.6094,733.0469 Q2288.875,733.2969 2288.875,733.6406 Q2288.875,733.9844 2288.5313,734.3906 Q2288.0313,734.9688 2287.2344,735.2969 Q2286.1563,735.75 2284.8594,735.75 Q2283.3438,735.75 2282.1406,735.125 Q2281.1563,734.625 2280.4688,733.5625 Q2279.7813,732.4844 2279.7813,731.2031 L2279.7813,730.0469 Q2279.7813,728.7188 2280.3906,727.5781 Q2281.0156,726.4219 2282.1094,725.8125 Q2283.2031,725.1875 2284.4375,725.1875 Q2285.1719,725.1875 2285.8125,725.3594 Q2286.4688,725.5156 2287.0156,725.875 Z " fill="#000000"/><text fill="#000000" font-family="sans-serif" font-size="14" lengthAdjust="spacing" textLength="141" x="2304.75" y="735.7969">DecimalSetterActuator</text><line style="stroke:#181818;stroke-width:0.5;" x1="2195.5" x2="2522.5" y1="746" y2="746"/><rect fill="none" height="6" style="stroke:#C82930;stroke-width:1.0;" width="6" x="2202.5" y="757.8105"/><text fill="#000000" font-family="sans-serif" font-size="14" lengthAdjust="spacing" textLength="166" x="2214.5" y="765.1074">actuatorName : ActuatorID</text><rect fill="none" height="6" style="stroke:#C82930;stroke-width:1.0;" width="6" x="2202.5" y="776.4316"/><text fill="#000000" font-family="sans-serif" font-size="14" lengthAdjust="spacing" textLength="303" x="2214.5" y="783.7285">actuatorFunctionalityID : ActuatorFunctionalityID</text><rect fill="none" height="6" style="stroke:#C82930;stroke-width:1.0;" width="6" x="2202.5" y="795.0527"/><text fill="#000000" font-family="sans-serif" font-size="14" lengthAdjust="spacing" textLength="243" x="2214.5" y="802.3496">actuatorProperties: ActuatorProperties</text><rect fill="none" height="6" style="stroke:#C82930;stroke-width:1.0;" width="6" x="2202.5" y="813.6738"/><text fill="#000000" font-family="sans-serif" font-size="14" lengthAdjust="spacing" textLength="197" x="2214.5" y="820.9707">actuatorTarget: ActuatorTarget</text><rect fill="none" height="6" style="stroke:#C82930;stroke-width:1.0;" width="6" x="2202.5" y="832.2949"/><text fill="#000000" font-family="sans-serif" font-size="14" lengthAdjust="spacing" textLength="145" x="2214.5" y="839.5918">deviceName : DeviceID</text><line style="stroke:#181818;stroke-width:0.5;" x1="2195.5" x2="2522.5" y1="847.1055" y2="847.1055"/></g><!--class IntegerSetterActuator--><g id="elem_IntegerSetterActuator"><rect codeLine="87" fill="#F1F1F1" height="122.4844" id="IntegerSetterActuator" rx="2.5" ry="2.5" style="stroke:#181818;stroke-width:0.5;" width="329" x="2922.5" y="723.5"/><ellipse cx="3015.25" cy="739.5" fill="#ADD1B2" rx="11" ry="11" style="stroke:#181818;stroke-width:1.0;"/><path d="M3018.0156,735.375 Q3018.1719,735.1563 3018.3594,735.0469 Q3018.5469,734.9375 3018.7656,734.9375 Q3019.1406,734.9375 3019.375,735.2031 Q3019.6094,735.4531 3019.6094,736.0625 L3019.6094,737.5156 Q3019.6094,738.125 3019.375,738.3906 Q3019.1406,738.6563 3018.7656,738.6563 Q3018.4219,738.6563 3018.2188,738.4531 Q3018.0156,738.2656 3017.9063,737.75 Q3017.8594,737.3906 3017.6719,737.2031 Q3017.3438,736.8281 3016.7344,736.6094 Q3016.125,736.3906 3015.5,736.3906 Q3014.7344,736.3906 3014.0938,736.7188 Q3013.4688,737.0469 3012.9688,737.7969 Q3012.4844,738.5469 3012.4844,739.5781 L3012.4844,740.6719 Q3012.4844,741.9063 3013.375,742.7344 Q3014.2656,743.5469 3015.8594,743.5469 Q3016.7969,743.5469 3017.4531,743.2969 Q3017.8438,743.1406 3018.2656,742.7031 Q3018.5313,742.4375 3018.6719,742.3594 Q3018.8281,742.2813 3019.0313,742.2813 Q3019.3594,742.2813 3019.6094,742.5469 Q3019.875,742.7969 3019.875,743.1406 Q3019.875,743.4844 3019.5313,743.8906 Q3019.0313,744.4688 3018.2344,744.7969 Q3017.1563,745.25 3015.8594,745.25 Q3014.3438,745.25 3013.1406,744.625 Q3012.1563,744.125 3011.4688,743.0625 Q3010.7813,741.9844 3010.7813,740.7031 L3010.7813,739.5469 Q3010.7813,738.2188 3011.3906,737.0781 Q3012.0156,735.9219 3013.1094,735.3125 Q3014.2031,734.6875 3015.4375,734.6875 Q3016.1719,734.6875 3016.8125,734.8594 Q3017.4688,735.0156 3018.0156,735.375 Z " fill="#000000"/><text fill="#000000" font-family="sans-serif" font-size="14" lengthAdjust="spacing" textLength="135" x="3035.75" y="745.2969">IntegerSetterActuator</text><line style="stroke:#181818;stroke-width:0.5;" x1="2923.5" x2="3250.5" y1="755.5" y2="755.5"/><rect fill="none" height="6" style="stroke:#C82930;stroke-width:1.0;" width="6" x="2930.5" y="767.3105"/><text fill="#000000" font-family="sans-serif" font-size="14" lengthAdjust="spacing" textLength="166" x="2942.5" y="774.6074">actuatorName : ActuatorID</text><rect fill="none" height="6" style="stroke:#C82930;stroke-width:1.0;" width="6" x="2930.5" y="785.9316"/><text fill="#000000" font-family="sans-serif" font-size="14" lengthAdjust="spacing" textLength="303" x="2942.5" y="793.2285">actuatorFunctionalityID : ActuatorFunctionalityID</text><rect fill="none" height="6" style="stroke:#C82930;stroke-width:1.0;" width="6" x="2930.5" y="804.5527"/><text fill="#000000" font-family="sans-serif" font-size="14" lengthAdjust="spacing" textLength="243" x="2942.5" y="811.8496">actuatorProperties: ActuatorProperties</text><rect fill="none" height="6" style="stroke:#C82930;stroke-width:1.0;" width="6" x="2930.5" y="823.1738"/><text fill="#000000" font-family="sans-serif" font-size="14" lengthAdjust="spacing" textLength="145" x="2942.5" y="830.4707">deviceName : DeviceID</text><line style="stroke:#181818;stroke-width:0.5;" x1="2923.5" x2="3250.5" y1="837.9844" y2="837.9844"/></g><!--class SwitchActuator--><g id="elem_SwitchActuator"><rect codeLine="94" fill="#F1F1F1" height="141.1055" id="SwitchActuator" rx="2.5" ry="2.5" style="stroke:#181818;stroke-width:0.5;" width="329" x="3286.5" y="714"/><ellipse cx="3400.25" cy="730" fill="#ADD1B2" rx="11" ry="11" style="stroke:#181818;stroke-width:1.0;"/><path d="M3403.0156,725.875 Q3403.1719,725.6563 3403.3594,725.5469 Q3403.5469,725.4375 3403.7656,725.4375 Q3404.1406,725.4375 3404.375,725.7031 Q3404.6094,725.9531 3404.6094,726.5625 L3404.6094,728.0156 Q3404.6094,728.625 3404.375,728.8906 Q3404.1406,729.1563 3403.7656,729.1563 Q3403.4219,729.1563 3403.2188,728.9531 Q3403.0156,728.7656 3402.9063,728.25 Q3402.8594,727.8906 3402.6719,727.7031 Q3402.3438,727.3281 3401.7344,727.1094 Q3401.125,726.8906 3400.5,726.8906 Q3399.7344,726.8906 3399.0938,727.2188 Q3398.4688,727.5469 3397.9688,728.2969 Q3397.4844,729.0469 3397.4844,730.0781 L3397.4844,731.1719 Q3397.4844,732.4063 3398.375,733.2344 Q3399.2656,734.0469 3400.8594,734.0469 Q3401.7969,734.0469 3402.4531,733.7969 Q3402.8438,733.6406 3403.2656,733.2031 Q3403.5313,732.9375 3403.6719,732.8594 Q3403.8281,732.7813 3404.0313,732.7813 Q3404.3594,732.7813 3404.6094,733.0469 Q3404.875,733.2969 3404.875,733.6406 Q3404.875,733.9844 3404.5313,734.3906 Q3404.0313,734.9688 3403.2344,735.2969 Q3402.1563,735.75 3400.8594,735.75 Q3399.3438,735.75 3398.1406,735.125 Q3397.1563,734.625 3396.4688,733.5625 Q3395.7813,732.4844 3395.7813,731.2031 L3395.7813,730.0469 Q3395.7813,728.7188 3396.3906,727.5781 Q3397.0156,726.4219 3398.1094,725.8125 Q3399.2031,725.1875 3400.4375,725.1875 Q3401.1719,725.1875 3401.8125,725.3594 Q3402.4688,725.5156 3403.0156,725.875 Z " fill="#000000"/><text fill="#000000" font-family="sans-serif" font-size="14" lengthAdjust="spacing" textLength="93" x="3420.75" y="735.7969">SwitchActuator</text><line style="stroke:#181818;stroke-width:0.5;" x1="3287.5" x2="3614.5" y1="746" y2="746"/><rect fill="none" height="6" style="stroke:#C82930;stroke-width:1.0;" width="6" x="3294.5" y="757.8105"/><text fill="#000000" font-family="sans-serif" font-size="14" lengthAdjust="spacing" textLength="166" x="3306.5" y="765.1074">actuatorName : ActuatorID</text><rect fill="none" height="6" style="stroke:#C82930;stroke-width:1.0;" width="6" x="3294.5" y="776.4316"/><text fill="#000000" font-family="sans-serif" font-size="14" lengthAdjust="spacing" textLength="179" x="3306.5" y="783.7285">status: SwitchActuatorStatus</text><rect fill="none" height="6" style="stroke:#C82930;stroke-width:1.0;" width="6" x="3294.5" y="795.0527"/><text fill="#000000" font-family="sans-serif" font-size="14" lengthAdjust="spacing" textLength="303" x="3306.5" y="802.3496">actuatorFunctionalityID : ActuatorFunctionalityID</text><rect fill="none" height="6" style="stroke:#C82930;stroke-width:1.0;" width="6" x="3294.5" y="813.6738"/><text fill="#000000" font-family="sans-serif" font-size="14" lengthAdjust="spacing" textLength="243" x="3306.5" y="820.9707">actuatorProperties: ActuatorProperties</text><rect fill="none" height="6" style="stroke:#C82930;stroke-width:1.0;" width="6" x="3294.5" y="832.2949"/><text fill="#000000" font-family="sans-serif" font-size="14" lengthAdjust="spacing" textLength="145" x="3306.5" y="839.5918">deviceName : DeviceID</text><line style="stroke:#181818;stroke-width:0.5;" x1="3287.5" x2="3614.5" y1="847.1055" y2="847.1055"/></g><!--class ActuatorRepository--><g id="elem_ActuatorRepository"><rect codeLine="103" fill="#F1F1F1" height="85.2422" id="ActuatorRepository" rx="2.5" ry="2.5" style="stroke:#181818;stroke-width:0.5;" width="278" x="3064" y="316"/><ellipse cx="3138.25" cy="332" fill="#ADD1B2" rx="11" ry="11" style="stroke:#181818;stroke-width:1.0;"/><path d="M3141.0156,327.875 Q3141.1719,327.6563 3141.3594,327.5469 Q3141.5469,327.4375 3141.7656,327.4375 Q3142.1406,327.4375 3142.375,327.7031 Q3142.6094,327.9531 3142.6094,328.5625 L3142.6094,330.0156 Q3142.6094,330.625 3142.375,330.8906 Q3142.1406,331.1563 3141.7656,331.1563 Q3141.4219,331.1563 3141.2188,330.9531 Q3141.0156,330.7656 3140.9063,330.25 Q3140.8594,329.8906 3140.6719,329.7031 Q3140.3438,329.3281 3139.7344,329.1094 Q3139.125,328.8906 3138.5,328.8906 Q3137.7344,328.8906 3137.0938,329.2188 Q3136.4688,329.5469 3135.9688,330.2969 Q3135.4844,331.0469 3135.4844,332.0781 L3135.4844,333.1719 Q3135.4844,334.4063 3136.375,335.2344 Q3137.2656,336.0469 3138.8594,336.0469 Q3139.7969,336.0469 3140.4531,335.7969 Q3140.8438,335.6406 3141.2656,335.2031 Q3141.5313,334.9375 3141.6719,334.8594 Q3141.8281,334.7813 3142.0313,334.7813 Q3142.3594,334.7813 3142.6094,335.0469 Q3142.875,335.2969 3142.875,335.6406 Q3142.875,335.9844 3142.5313,336.3906 Q3142.0313,336.9688 3141.2344,337.2969 Q3140.1563,337.75 3138.8594,337.75 Q3137.3438,337.75 3136.1406,337.125 Q3135.1563,336.625 3134.4688,335.5625 Q3133.7813,334.4844 3133.7813,333.2031 L3133.7813,332.0469 Q3133.7813,330.7188 3134.3906,329.5781 Q3135.0156,328.4219 3136.1094,327.8125 Q3137.2031,327.1875 3138.4375,327.1875 Q3139.1719,327.1875 3139.8125,327.3594 Q3140.4688,327.5156 3141.0156,327.875 Z " fill="#000000"/><text fill="#000000" font-family="sans-serif" font-size="14" lengthAdjust="spacing" textLength="121" x="3158.75" y="337.7969">ActuatorRepository</text><line style="stroke:#181818;stroke-width:0.5;" x1="3065" x2="3341" y1="348" y2="348"/><line style="stroke:#181818;stroke-width:0.5;" x1="3065" x2="3341" y1="356" y2="356"/><ellipse cx="3075" cy="370.8105" fill="#84BE84" rx="3" ry="3" style="stroke:#038048;stroke-width:1.0;"/><text fill="#000000" font-family="sans-serif" font-size="14" lengthAdjust="spacing" textLength="252" x="3084" y="375.1074">containsEntityByID(ActuatorID): boolean</text><ellipse cx="3075" cy="389.4316" fill="#84BE84" rx="3" ry="3" style="stroke:#038048;stroke-width:1.0;"/><text fill="#000000" font-family="sans-serif" font-size="14" lengthAdjust="spacing" textLength="216" x="3084" y="393.7285">updateOrSave(Actuator): Actuator</text></g><!--class ActuatorID--><g id="elem_ActuatorID"><rect codeLine="110" fill="#F1F1F1" height="66.6211" id="ActuatorID" rx="2.5" ry="2.5" style="stroke:#181818;stroke-width:0.5;" width="140" x="2949" y="942.5"/><ellipse cx="2982.9" cy="958.5" fill="#ADD1B2" rx="11" ry="11" style="stroke:#181818;stroke-width:1.0;"/><path d="M2985.6656,954.375 Q2985.8219,954.1563 2986.0094,954.0469 Q2986.1969,953.9375 2986.4156,953.9375 Q2986.7906,953.9375 2987.025,954.2031 Q2987.2594,954.4531 2987.2594,955.0625 L2987.2594,956.5156 Q2987.2594,957.125 2987.025,957.3906 Q2986.7906,957.6563 2986.4156,957.6563 Q2986.0719,957.6563 2985.8688,957.4531 Q2985.6656,957.2656 2985.5563,956.75 Q2985.5094,956.3906 2985.3219,956.2031 Q2984.9938,955.8281 2984.3844,955.6094 Q2983.775,955.3906 2983.15,955.3906 Q2982.3844,955.3906 2981.7438,955.7188 Q2981.1188,956.0469 2980.6188,956.7969 Q2980.1344,957.5469 2980.1344,958.5781 L2980.1344,959.6719 Q2980.1344,960.9063 2981.025,961.7344 Q2981.9156,962.5469 2983.5094,962.5469 Q2984.4469,962.5469 2985.1031,962.2969 Q2985.4938,962.1406 2985.9156,961.7031 Q2986.1813,961.4375 2986.3219,961.3594 Q2986.4781,961.2813 2986.6813,961.2813 Q2987.0094,961.2813 2987.2594,961.5469 Q2987.525,961.7969 2987.525,962.1406 Q2987.525,962.4844 2987.1813,962.8906 Q2986.6813,963.4688 2985.8844,963.7969 Q2984.8063,964.25 2983.5094,964.25 Q2981.9938,964.25 2980.7906,963.625 Q2979.8063,963.125 2979.1188,962.0625 Q2978.4313,960.9844 2978.4313,959.7031 L2978.4313,958.5469 Q2978.4313,957.2188 2979.0406,956.0781 Q2979.6656,954.9219 2980.7594,954.3125 Q2981.8531,953.6875 2983.0875,953.6875 Q2983.8219,953.6875 2984.4625,953.8594 Q2985.1188,954.0156 2985.6656,954.375 Z " fill="#000000"/><text fill="#000000" font-family="sans-serif" font-size="14" lengthAdjust="spacing" textLength="66" x="3001.1" y="964.2969">ActuatorID</text><line style="stroke:#181818;stroke-width:0.5;" x1="2950" x2="3088" y1="974.5" y2="974.5"/><rect fill="none" height="6" style="stroke:#C82930;stroke-width:1.0;" width="6" x="2957" y="986.3105"/><text fill="#000000" font-family="sans-serif" font-size="14" lengthAdjust="spacing" textLength="114" x="2969" y="993.6074">actuatorID : String</text><line style="stroke:#181818;stroke-width:0.5;" x1="2950" x2="3088" y1="1001.1211" y2="1001.1211"/></g><!--class DeviceID--><g id="elem_DeviceID"><rect codeLine="113" fill="#F1F1F1" height="66.6211" id="DeviceID" rx="2.5" ry="2.5" style="stroke:#181818;stroke-width:0.5;" width="129" x="3124.5" y="942.5"/><ellipse cx="3157.95" cy="958.5" fill="#ADD1B2" rx="11" ry="11" style="stroke:#181818;stroke-width:1.0;"/><path d="M3160.7156,954.375 Q3160.8719,954.1563 3161.0594,954.0469 Q3161.2469,953.9375 3161.4656,953.9375 Q3161.8406,953.9375 3162.075,954.2031 Q3162.3094,954.4531 3162.3094,955.0625 L3162.3094,956.5156 Q3162.3094,957.125 3162.075,957.3906 Q3161.8406,957.6563 3161.4656,957.6563 Q3161.1219,957.6563 3160.9188,957.4531 Q3160.7156,957.2656 3160.6063,956.75 Q3160.5594,956.3906 3160.3719,956.2031 Q3160.0438,955.8281 3159.4344,955.6094 Q3158.825,955.3906 3158.2,955.3906 Q3157.4344,955.3906 3156.7938,955.7188 Q3156.1688,956.0469 3155.6688,956.7969 Q3155.1844,957.5469 3155.1844,958.5781 L3155.1844,959.6719 Q3155.1844,960.9063 3156.075,961.7344 Q3156.9656,962.5469 3158.5594,962.5469 Q3159.4969,962.5469 3160.1531,962.2969 Q3160.5438,962.1406 3160.9656,961.7031 Q3161.2313,961.4375 3161.3719,961.3594 Q3161.5281,961.2813 3161.7313,961.2813 Q3162.0594,961.2813 3162.3094,961.5469 Q3162.575,961.7969 3162.575,962.1406 Q3162.575,962.4844 3162.2313,962.8906 Q3161.7313,963.4688 3160.9344,963.7969 Q3159.8563,964.25 3158.5594,964.25 Q3157.0438,964.25 3155.8406,963.625 Q3154.8563,963.125 3154.1688,962.0625 Q3153.4813,960.9844 3153.4813,959.7031 L3153.4813,958.5469 Q3153.4813,957.2188 3154.0906,956.0781 Q3154.7156,954.9219 3155.8094,954.3125 Q3156.9031,953.6875 3158.1375,953.6875 Q3158.8719,953.6875 3159.5125,953.8594 Q3160.1688,954.0156 3160.7156,954.375 Z " fill="#000000"/><text fill="#000000" font-family="sans-serif" font-size="14" lengthAdjust="spacing" textLength="56" x="3176.05" y="964.2969">DeviceID</text><line style="stroke:#181818;stroke-width:0.5;" x1="3125.5" x2="3252.5" y1="974.5" y2="974.5"/><rect fill="none" height="6" style="stroke:#C82930;stroke-width:1.0;" width="6" x="3132.5" y="986.3105"/><text fill="#000000" font-family="sans-serif" font-size="14" lengthAdjust="spacing" textLength="103" x="3144.5" y="993.6074">deviceID : String</text><line style="stroke:#181818;stroke-width:0.5;" x1="3125.5" x2="3252.5" y1="1001.1211" y2="1001.1211"/></g><!--class ActuatorFunctionalityID--><g id="elem_ActuatorFunctionalityID"><rect codeLine="116" fill="#F1F1F1" height="66.6211" id="ActuatorFunctionalityID" rx="2.5" ry="2.5" style="stroke:#181818;stroke-width:0.5;" width="220" x="2411" y="942.5"/><ellipse cx="2444.9" cy="958.5" fill="#ADD1B2" rx="11" ry="11" style="stroke:#181818;stroke-width:1.0;"/><path d="M2447.6656,954.375 Q2447.8219,954.1563 2448.0094,954.0469 Q2448.1969,953.9375 2448.4156,953.9375 Q2448.7906,953.9375 2449.025,954.2031 Q2449.2594,954.4531 2449.2594,955.0625 L2449.2594,956.5156 Q2449.2594,957.125 2449.025,957.3906 Q2448.7906,957.6563 2448.4156,957.6563 Q2448.0719,957.6563 2447.8688,957.4531 Q2447.6656,957.2656 2447.5563,956.75 Q2447.5094,956.3906 2447.3219,956.2031 Q2446.9938,955.8281 2446.3844,955.6094 Q2445.775,955.3906 2445.15,955.3906 Q2444.3844,955.3906 2443.7438,955.7188 Q2443.1188,956.0469 2442.6188,956.7969 Q2442.1344,957.5469 2442.1344,958.5781 L2442.1344,959.6719 Q2442.1344,960.9063 2443.025,961.7344 Q2443.9156,962.5469 2445.5094,962.5469 Q2446.4469,962.5469 2447.1031,962.2969 Q2447.4938,962.1406 2447.9156,961.7031 Q2448.1813,961.4375 2448.3219,961.3594 Q2448.4781,961.2813 2448.6813,961.2813 Q2449.0094,961.2813 2449.2594,961.5469 Q2449.525,961.7969 2449.525,962.1406 Q2449.525,962.4844 2449.1813,962.8906 Q2448.6813,963.4688 2447.8844,963.7969 Q2446.8063,964.25 2445.5094,964.25 Q2443.9938,964.25 2442.7906,963.625 Q2441.8063,963.125 2441.1188,962.0625 Q2440.4313,960.9844 2440.4313,959.7031 L2440.4313,958.5469 Q2440.4313,957.2188 2441.0406,956.0781 Q2441.6656,954.9219 2442.7594,954.3125 Q2443.8531,953.6875 2445.0875,953.6875 Q2445.8219,953.6875 2446.4625,953.8594 Q2447.1188,954.0156 2447.6656,954.375 Z " fill="#000000"/><text fill="#000000" font-family="sans-serif" font-size="14" lengthAdjust="spacing" textLength="146" x="2463.1" y="964.2969">ActuatorFunctionalityID</text><line style="stroke:#181818;stroke-width:0.5;" x1="2412" x2="2630" y1="974.5" y2="974.5"/><rect fill="none" height="6" style="stroke:#C82930;stroke-width:1.0;" width="6" x="2419" y="986.3105"/><text fill="#000000" font-family="sans-serif" font-size="14" lengthAdjust="spacing" textLength="194" x="2431" y="993.6074">actuatorFunctionalityID : String</text><line style="stroke:#181818;stroke-width:0.5;" x1="2412" x2="2630" y1="1001.1211" y2="1001.1211"/></g><!--class ActuatorProperties--><g id="elem_ActuatorProperties"><rect codeLine="119" fill="#F1F1F1" height="122.4844" id="ActuatorProperties" rx="2.5" ry="2.5" style="stroke:#181818;stroke-width:0.5;" width="248" x="2666" y="915"/><ellipse cx="2726.75" cy="931" fill="#ADD1B2" rx="11" ry="11" style="stroke:#181818;stroke-width:1.0;"/><path d="M2729.5156,926.875 Q2729.6719,926.6563 2729.8594,926.5469 Q2730.0469,926.4375 2730.2656,926.4375 Q2730.6406,926.4375 2730.875,926.7031 Q2731.1094,926.9531 2731.1094,927.5625 L2731.1094,929.0156 Q2731.1094,929.625 2730.875,929.8906 Q2730.6406,930.1563 2730.2656,930.1563 Q2729.9219,930.1563 2729.7188,929.9531 Q2729.5156,929.7656 2729.4063,929.25 Q2729.3594,928.8906 2729.1719,928.7031 Q2728.8438,928.3281 2728.2344,928.1094 Q2727.625,927.8906 2727,927.8906 Q2726.2344,927.8906 2725.5938,928.2188 Q2724.9688,928.5469 2724.4688,929.2969 Q2723.9844,930.0469 2723.9844,931.0781 L2723.9844,932.1719 Q2723.9844,933.4063 2724.875,934.2344 Q2725.7656,935.0469 2727.3594,935.0469 Q2728.2969,935.0469 2728.9531,934.7969 Q2729.3438,934.6406 2729.7656,934.2031 Q2730.0313,933.9375 2730.1719,933.8594 Q2730.3281,933.7813 2730.5313,933.7813 Q2730.8594,933.7813 2731.1094,934.0469 Q2731.375,934.2969 2731.375,934.6406 Q2731.375,934.9844 2731.0313,935.3906 Q2730.5313,935.9688 2729.7344,936.2969 Q2728.6563,936.75 2727.3594,936.75 Q2725.8438,936.75 2724.6406,936.125 Q2723.6563,935.625 2722.9688,934.5625 Q2722.2813,933.4844 2722.2813,932.2031 L2722.2813,931.0469 Q2722.2813,929.7188 2722.8906,928.5781 Q2723.5156,927.4219 2724.6094,926.8125 Q2725.7031,926.1875 2726.9375,926.1875 Q2727.6719,926.1875 2728.3125,926.3594 Q2728.9688,926.5156 2729.5156,926.875 Z " fill="#000000"/><text fill="#000000" font-family="sans-serif" font-size="14" lengthAdjust="spacing" textLength="118" x="2747.25" y="936.7969">ActuatorProperties</text><line style="stroke:#181818;stroke-width:0.5;" x1="2667" x2="2913" y1="947" y2="947"/><rect fill="none" height="6" style="stroke:#C82930;stroke-width:1.0;" width="6" x="2674" y="958.8105"/><text fill="#000000" font-family="sans-serif" font-size="14" lengthAdjust="spacing" textLength="117" x="2686" y="966.1074">rangeInt: RangeInt</text><rect fill="none" height="6" style="stroke:#C82930;stroke-width:1.0;" width="6" x="2674" y="977.4316"/><text fill="#000000" font-family="sans-serif" font-size="14" lengthAdjust="spacing" textLength="187" x="2686" y="984.7285">rangeDecimal: RangeDecimal</text><line style="stroke:#181818;stroke-width:0.5;" x1="2667" x2="2913" y1="992.2422" y2="992.2422"/><ellipse cx="2677" cy="1007.0527" fill="#84BE84" rx="3" ry="3" style="stroke:#038048;stroke-width:1.0;"/><text fill="#000000" font-family="sans-serif" font-size="14" lengthAdjust="spacing" textLength="152" x="2686" y="1011.3496">getRangeInt(): RangeInt</text><ellipse cx="2677" cy="1025.6738" fill="#84BE84" rx="3" ry="3" style="stroke:#038048;stroke-width:1.0;"/><text fill="#000000" font-family="sans-serif" font-size="14" lengthAdjust="spacing" textLength="222" x="2686" y="1029.9707">getRangeDecimal(): RangeDecimal</text></g><!--class RangeInt--><g id="elem_RangeInt"><rect codeLine="126" fill="#F1F1F1" height="85.2422" id="RangeInt" rx="2.5" ry="2.5" style="stroke:#181818;stroke-width:0.5;" width="130" x="2627" y="1106.5"/><ellipse cx="2660.45" cy="1122.5" fill="#ADD1B2" rx="11" ry="11" style="stroke:#181818;stroke-width:1.0;"/><path d="M2663.2156,1118.375 Q2663.3719,1118.1563 2663.5594,1118.0469 Q2663.7469,1117.9375 2663.9656,1117.9375 Q2664.3406,1117.9375 2664.575,1118.2031 Q2664.8094,1118.4531 2664.8094,1119.0625 L2664.8094,1120.5156 Q2664.8094,1121.125 2664.575,1121.3906 Q2664.3406,1121.6563 2663.9656,1121.6563 Q2663.6219,1121.6563 2663.4188,1121.4531 Q2663.2156,1121.2656 2663.1063,1120.75 Q2663.0594,1120.3906 2662.8719,1120.2031 Q2662.5438,1119.8281 2661.9344,1119.6094 Q2661.325,1119.3906 2660.7,1119.3906 Q2659.9344,1119.3906 2659.2938,1119.7188 Q2658.6688,1120.0469 2658.1688,1120.7969 Q2657.6844,1121.5469 2657.6844,1122.5781 L2657.6844,1123.6719 Q2657.6844,1124.9063 2658.575,1125.7344 Q2659.4656,1126.5469 2661.0594,1126.5469 Q2661.9969,1126.5469 2662.6531,1126.2969 Q2663.0438,1126.1406 2663.4656,1125.7031 Q2663.7313,1125.4375 2663.8719,1125.3594 Q2664.0281,1125.2813 2664.2313,1125.2813 Q2664.5594,1125.2813 2664.8094,1125.5469 Q2665.075,1125.7969 2665.075,1126.1406 Q2665.075,1126.4844 2664.7313,1126.8906 Q2664.2313,1127.4688 2663.4344,1127.7969 Q2662.3563,1128.25 2661.0594,1128.25 Q2659.5438,1128.25 2658.3406,1127.625 Q2657.3563,1127.125 2656.6688,1126.0625 Q2655.9813,1124.9844 2655.9813,1123.7031 L2655.9813,1122.5469 Q2655.9813,1121.2188 2656.5906,1120.0781 Q2657.2156,1118.9219 2658.3094,1118.3125 Q2659.4031,1117.6875 2660.6375,1117.6875 Q2661.3719,1117.6875 2662.0125,1117.8594 Q2662.6688,1118.0156 2663.2156,1118.375 Z " fill="#000000"/><text fill="#000000" font-family="sans-serif" font-size="14" lengthAdjust="spacing" textLength="57" x="2678.55" y="1128.2969">RangeInt</text><line style="stroke:#181818;stroke-width:0.5;" x1="2628" x2="2756" y1="1138.5" y2="1138.5"/><rect fill="none" height="6" style="stroke:#C82930;stroke-width:1.0;" width="6" x="2635" y="1150.3105"/><text fill="#000000" font-family="sans-serif" font-size="14" lengthAdjust="spacing" textLength="104" x="2647" y="1157.6074">upperLimitInt: int</text><rect fill="none" height="6" style="stroke:#C82930;stroke-width:1.0;" width="6" x="2635" y="1168.9316"/><text fill="#000000" font-family="sans-serif" font-size="14" lengthAdjust="spacing" textLength="100" x="2647" y="1176.2285">lowerLimitInt: int</text><line style="stroke:#181818;stroke-width:0.5;" x1="2628" x2="2756" y1="1183.7422" y2="1183.7422"/></g><!--class RangeDecimal--><g id="elem_RangeDecimal"><rect codeLine="131" fill="#F1F1F1" height="103.8633" id="RangeDecimal" rx="2.5" ry="2.5" style="stroke:#181818;stroke-width:0.5;" width="193" x="2792.5" y="1097"/><ellipse cx="2838.75" cy="1113" fill="#ADD1B2" rx="11" ry="11" style="stroke:#181818;stroke-width:1.0;"/><path d="M2841.5156,1108.875 Q2841.6719,1108.6563 2841.8594,1108.5469 Q2842.0469,1108.4375 2842.2656,1108.4375 Q2842.6406,1108.4375 2842.875,1108.7031 Q2843.1094,1108.9531 2843.1094,1109.5625 L2843.1094,1111.0156 Q2843.1094,1111.625 2842.875,1111.8906 Q2842.6406,1112.1563 2842.2656,1112.1563 Q2841.9219,1112.1563 2841.7188,1111.9531 Q2841.5156,1111.7656 2841.4063,1111.25 Q2841.3594,1110.8906 2841.1719,1110.7031 Q2840.8438,1110.3281 2840.2344,1110.1094 Q2839.625,1109.8906 2839,1109.8906 Q2838.2344,1109.8906 2837.5938,1110.2188 Q2836.9688,1110.5469 2836.4688,1111.2969 Q2835.9844,1112.0469 2835.9844,1113.0781 L2835.9844,1114.1719 Q2835.9844,1115.4063 2836.875,1116.2344 Q2837.7656,1117.0469 2839.3594,1117.0469 Q2840.2969,1117.0469 2840.9531,1116.7969 Q2841.3438,1116.6406 2841.7656,1116.2031 Q2842.0313,1115.9375 2842.1719,1115.8594 Q2842.3281,1115.7813 2842.5313,1115.7813 Q2842.8594,1115.7813 2843.1094,1116.0469 Q2843.375,1116.2969 2843.375,1116.6406 Q2843.375,1116.9844 2843.0313,1117.3906 Q2842.5313,1117.9688 2841.7344,1118.2969 Q2840.6563,1118.75 2839.3594,1118.75 Q2837.8438,1118.75 2836.6406,1118.125 Q2835.6563,1117.625 2834.9688,1116.5625 Q2834.2813,1115.4844 2834.2813,1114.2031 L2834.2813,1113.0469 Q2834.2813,1111.7188 2834.8906,1110.5781 Q2835.5156,1109.4219 2836.6094,1108.8125 Q2837.7031,1108.1875 2838.9375,1108.1875 Q2839.6719,1108.1875 2840.3125,1108.3594 Q2840.9688,1108.5156 2841.5156,1108.875 Z " fill="#000000"/><text fill="#000000" font-family="sans-serif" font-size="14" lengthAdjust="spacing" textLength="92" x="2859.25" y="1118.7969">RangeDecimal</text><line style="stroke:#181818;stroke-width:0.5;" x1="2793.5" x2="2984.5" y1="1129" y2="1129"/><rect fill="none" height="6" style="stroke:#C82930;stroke-width:1.0;" width="6" x="2800.5" y="1140.8105"/><text fill="#000000" font-family="sans-serif" font-size="14" lengthAdjust="spacing" textLength="167" x="2812.5" y="1148.1074">upperLimitDecimal: double</text><rect fill="none" height="6" style="stroke:#C82930;stroke-width:1.0;" width="6" x="2800.5" y="1159.4316"/><text fill="#000000" font-family="sans-serif" font-size="14" lengthAdjust="spacing" textLength="163" x="2812.5" y="1166.7285">lowerLimitDecimal: double</text><rect fill="none" height="6" style="stroke:#C82930;stroke-width:1.0;" width="6" x="2800.5" y="1178.0527"/><text fill="#000000" font-family="sans-serif" font-size="14" lengthAdjust="spacing" textLength="80" x="2812.5" y="1185.3496">precision: int</text><line style="stroke:#181818;stroke-width:0.5;" x1="2793.5" x2="2984.5" y1="1192.8633" y2="1192.8633"/></g><!--reverse link Actuator to ActuatorSpecificInteger--><g id="link_Actuator_ActuatorSpecificInteger"><path d="M2774.17,545.77 C2774.17,580.43 2774.17,622 2774.17,622 C2774.17,622 2792.37,622 2815.2,622 " fill="none" id="Actuator-backto-ActuatorSpecificInteger" style="stroke:#181818;stroke-width:1.0;"/><polygon fill="none" points="2774.17,527.77,2768.17,545.77,2780.17,545.77,2774.17,527.77" style="stroke:#181818;stroke-width:1.0;"/></g><!--reverse link Actuator to ActuatorSpecificDecimal--><g id="link_Actuator_ActuatorSpecificDecimal"><path d="M2745.83,545.55 C2745.83,584.23 2745.83,638 2745.83,638 C2745.83,638 2728.94,638 2707.29,638 " fill="none" id="Actuator-backto-ActuatorSpecificDecimal" style="stroke:#181818;stroke-width:1.0;"/><polygon fill="none" points="2745.83,527.55,2739.83,545.55,2751.83,545.55,2745.83,527.55" style="stroke:#181818;stroke-width:1.0;"/></g><!--reverse link ActuatorSpecificInteger to BlindSetterActuator--><g id="link_ActuatorSpecificInteger_BlindSetterActuator"><path d="M2851.5,672.14 C2851.5,690.64 2851.5,699.02 2851.5,723.22 " fill="none" id="ActuatorSpecificInteger-backto-BlindSetterActuator" style="stroke:#181818;stroke-width:1.0;stroke-dasharray:7.0,7.0;"/><polygon fill="none" points="2851.5,654.14,2845.5,672.14,2857.5,672.14,2851.5,654.14" style="stroke:#181818;stroke-width:1.0;"/></g><!--reverse link ActuatorSpecificDecimal to DecimalSetterActuator--><g id="link_ActuatorSpecificDecimal_DecimalSetterActuator"><path d="M2541,672.39 C2541,699.34 2541,721 2541,721 C2541,721 2534.33,721 2523.55,721 " fill="none" id="ActuatorSpecificDecimal-backto-DecimalSetterActuator" style="stroke:#181818;stroke-width:1.0;stroke-dasharray:7.0,7.0;"/><polygon fill="none" points="2541,654.39,2535,672.39,2547,672.39,2541,654.39" style="stroke:#181818;stroke-width:1.0;"/></g><!--reverse link ActuatorSpecificInteger to IntegerSetterActuator--><g id="link_ActuatorSpecificInteger_IntegerSetterActuator"><path d="M2946.5,672.14 C2946.5,690.64 2946.5,699.02 2946.5,723.22 " fill="none" id="ActuatorSpecificInteger-backto-IntegerSetterActuator" style="stroke:#181818;stroke-width:1.0;stroke-dasharray:7.0,7.0;"/><polygon fill="none" points="2946.5,654.14,2940.5,672.14,2952.5,672.14,2946.5,654.14" style="stroke:#181818;stroke-width:1.0;"/></g><!--reverse link ActuatorSpecificInteger to SwitchActuator--><g id="link_ActuatorSpecificInteger_SwitchActuator"><path d="M2970.5,672.05 C2970.5,698.1 2970.5,718 2970.5,718 C2970.5,718 3147.22,718 3286.31,718 " fill="none" id="ActuatorSpecificInteger-backto-SwitchActuator" style="stroke:#181818;stroke-width:1.0;stroke-dasharray:7.0,7.0;"/><polygon fill="none" points="2970.5,654.05,2964.5,672.05,2976.5,672.05,2970.5,654.05" style="stroke:#181818;stroke-width:1.0;"/></g><!--link RoomService to RoomRepository--><g id="link_RoomService_RoomRepository"><path codeLine="137" d="M408.7,223 C310.09,223 121,223 121,223 C121,223 121,284.52 121,324.66 " fill="none" id="RoomService-RoomRepository" style="stroke:#181818;stroke-width:1.0;"/></g><!--link RoomService to RoomMapper--><g id="link_RoomService_RoomMapper"><path codeLine="138" d="M467,256.12 C467,277.04 467,297.86 467,318.8 " fill="none" id="RoomService-to-RoomMapper" style="stroke:#181818;stroke-width:1.0;stroke-dasharray:7.0,7.0;"/><polygon fill="#181818" points="467,324.8,471,315.8,467,319.8,463,315.8,467,324.8" style="stroke:#181818;stroke-width:1.0;"/><text fill="#000000" font-family="sans-serif" font-size="13" lengthAdjust="spacing" textLength="42" x="424" y="286.4883">&#171;uses&#187;</text></g><!--link RoomMapper to RoomDTO--><g id="link_RoomMapper_RoomDTO"><path codeLine="139" d="M467,392.13 C467,412.63 467,433.01 467,454.95 " fill="none" id="RoomMapper-to-RoomDTO" style="stroke:#181818;stroke-width:1.0;stroke-dasharray:7.0,7.0;"/><polygon fill="#181818" points="467,460.95,471,451.95,467,455.95,463,451.95,467,460.95" style="stroke:#181818;stroke-width:1.0;"/><text fill="#000000" font-family="sans-serif" font-size="13" lengthAdjust="spacing" textLength="42" x="424" y="422.5683">&#171;uses&#187;</text></g><!--link DeviceService to DeviceRepository--><g id="link_DeviceService_DeviceRepository"><path codeLine="140" d="M1112.86,234 C1010.62,234 816,234 816,234 C816,234 816,287.94 816,324.81 " fill="none" id="DeviceService-DeviceRepository" style="stroke:#181818;stroke-width:1.0;"/></g><!--link DeviceService to DeviceMapper--><g id="link_DeviceService_DeviceMapper"><path codeLine="141" d="M1174,256.12 C1174,277.04 1174,297.86 1174,318.8 " fill="none" id="DeviceService-to-DeviceMapper" style="stroke:#181818;stroke-width:1.0;stroke-dasharray:7.0,7.0;"/><polygon fill="#181818" points="1174,324.8,1178,315.8,1174,319.8,1170,315.8,1174,324.8" style="stroke:#181818;stroke-width:1.0;"/><text fill="#000000" font-family="sans-serif" font-size="13" lengthAdjust="spacing" textLength="42" x="1131" y="286.4883">&#171;uses&#187;</text></g><!--link DeviceMapper to DeviceDTO--><g id="link_DeviceMapper_DeviceDTO"><path codeLine="142" d="M1174,392.13 C1174,412.63 1174,433.01 1174,454.95 " fill="none" id="DeviceMapper-to-DeviceDTO" style="stroke:#181818;stroke-width:1.0;stroke-dasharray:7.0,7.0;"/><polygon fill="#181818" points="1174,460.95,1178,451.95,1174,455.95,1170,451.95,1174,460.95" style="stroke:#181818;stroke-width:1.0;"/><text fill="#000000" font-family="sans-serif" font-size="13" lengthAdjust="spacing" textLength="42" x="1131" y="422.5683">&#171;uses&#187;</text></g><!--link AddNewActuatorToDeviceController to RoomService--><g id="link_AddNewActuatorToDeviceController_RoomService"><path codeLine="143" d="M1089,129.07 C1089,168.32 1089,212 1089,212 C1089,212 679.86,212 525.24,212 " fill="none" id="AddNewActuatorToDeviceController-RoomService" style="stroke:#181818;stroke-width:1.0;"/></g><!--link AddNewActuatorToDeviceController to DeviceService--><g id="link_AddNewActuatorToDeviceController_DeviceService"><path codeLine="144" d="M1174,129.06 C1174,149.47 1174,171.46 1174,188.98 " fill="none" id="AddNewActuatorToDeviceController-DeviceService" style="stroke:#181818;stroke-width:1.0;"/></g><!--link AddNewActuatorToDeviceController to ActuatorFunctionalityService--><g id="link_AddNewActuatorToDeviceController_ActuatorFunctionalityService"><path codeLine="145" d="M1577,129.06 C1577,149.47 1577,171.46 1577,188.98 " fill="none" id="AddNewActuatorToDeviceController-ActuatorFunctionalityService" style="stroke:#181818;stroke-width:1.0;"/></g><!--link AddNewActuatorToDeviceController to ActuatorService--><g id="link_AddNewActuatorToDeviceController_ActuatorService"><path codeLine="146" d="M1685.39,68 C2093.7,68 2760,68 2760,68 C2760,68 2760,143.54 2760,188.98 " fill="none" id="AddNewActuatorToDeviceController-ActuatorService" style="stroke:#181818;stroke-width:1.0;"/></g><!--link ActuatorFunctionalityService to ActuatorFunctionalityRepository--><g id="link_ActuatorFunctionalityService_ActuatorFunctionalityRepository"><path codeLine="148" d="M1577,256.12 C1577,277.04 1577,303.86 1577,324.8 " fill="none" id="ActuatorFunctionalityService-ActuatorFunctionalityRepository" style="stroke:#181818;stroke-width:1.0;"/></g><!--link ActuatorFunctionalityService to ActuatorFunctionalityMapper--><g id="link_ActuatorFunctionalityService_ActuatorFunctionalityMapper"><path codeLine="149" d="M1683.29,223 C1840.08,223 2115,223 2115,223 C2115,223 2115,278.52 2115,318.66 " fill="none" id="ActuatorFunctionalityService-to-ActuatorFunctionalityMapper" style="stroke:#181818;stroke-width:1.0;stroke-dasharray:7.0,7.0;"/><polygon fill="#181818" points="2115,324.66,2119,315.66,2115,319.66,2111,315.66,2115,324.66" style="stroke:#181818;stroke-width:1.0;"/><text fill="#000000" font-family="sans-serif" font-size="13" lengthAdjust="spacing" textLength="42" x="1906.97" y="219.0283">&#171;uses&#187;</text></g><!--link ActuatorFunctionalityMapper to ActuatorFunctionalityDTO--><g id="link_ActuatorFunctionalityMapper_ActuatorFunctionalityDTO"><path codeLine="150" d="M2115,392.13 C2115,412.63 2115,433.01 2115,454.95 " fill="none" id="ActuatorFunctionalityMapper-to-ActuatorFunctionalityDTO" style="stroke:#181818;stroke-width:1.0;stroke-dasharray:7.0,7.0;"/><polygon fill="#181818" points="2115,460.95,2119,451.95,2115,455.95,2111,451.95,2115,460.95" style="stroke:#181818;stroke-width:1.0;"/><text fill="#000000" font-family="sans-serif" font-size="13" lengthAdjust="spacing" textLength="42" x="2072" y="422.5683">&#171;uses&#187;</text></g><!--link ActuatorService to ActuatorFactory--><g id="link_ActuatorService_ActuatorFactory"><path codeLine="152" d="M2760,256.12 C2760,277.04 2760,303.86 2760,324.8 " fill="none" id="ActuatorService-ActuatorFactory" style="stroke:#181818;stroke-width:1.0;"/></g><!--link ActuatorService to ActuatorRepository--><g id="link_ActuatorService_ActuatorRepository"><path codeLine="153" d="M3034.25,256.12 C3034.25,284.66 3034.25,321 3034.25,321 C3034.25,321 3046.16,321 3063.64,321 " fill="none" id="ActuatorService-ActuatorRepository" style="stroke:#181818;stroke-width:1.0;"/></g><!--link ActuatorFactory to Actuator--><g id="link_ActuatorFactory_Actuator"><path codeLine="154" d="M2760,392.13 C2760,418.73 2760,449.25 2760,473.11 " fill="none" id="ActuatorFactory-to-Actuator" style="stroke:#181818;stroke-width:1.0;"/><polygon fill="#181818" points="2760,479.11,2764,470.11,2760,474.11,2756,470.11,2760,479.11" style="stroke:#181818;stroke-width:1.0;"/><text fill="#000000" font-family="sans-serif" font-size="13" lengthAdjust="spacing" textLength="57" x="2702" y="431.6483">&#171;creates&#187;</text></g><!--link ActuatorProperties to RangeInt--><g id="link_ActuatorProperties_RangeInt"><path codeLine="157" d="M2711.5,1037.48 C2711.5,1060.3 2711.5,1079.67 2711.5,1100.44 " fill="none" id="ActuatorProperties-to-RangeInt" style="stroke:#181818;stroke-width:1.0;"/><polygon fill="#181818" points="2711.5,1106.44,2715.5,1097.44,2711.5,1101.44,2707.5,1097.44,2711.5,1106.44" style="stroke:#181818;stroke-width:1.0;"/></g><!--link ActuatorProperties to RangeDecimal--><g id="link_ActuatorProperties_RangeDecimal"><path codeLine="158" d="M2853.25,1037.48 C2853.25,1056.9 2853.25,1072.17 2853.25,1090.87 " fill="none" id="ActuatorProperties-to-RangeDecimal" style="stroke:#181818;stroke-width:1.0;"/><polygon fill="#181818" points="2853.25,1096.87,2857.25,1087.87,2853.25,1091.87,2849.25,1087.87,2853.25,1096.87" style="stroke:#181818;stroke-width:1.0;"/></g><!--link DecimalSetterActuator to ActuatorProperties--><g id="link_DecimalSetterActuator_ActuatorProperties"><path codeLine="160" d="M2486,855.06 C2486,891.74 2486,929 2486,929 C2486,929 2575.85,929 2659.91,929 " fill="none" id="DecimalSetterActuator-to-ActuatorProperties" style="stroke:#181818;stroke-width:1.0;"/><polygon fill="#181818" points="2665.91,929,2656.91,925,2660.91,929,2656.91,933,2665.91,929" style="stroke:#181818;stroke-width:1.0;"/></g><!--link DecimalSetterActuator to ActuatorID--><g id="link_DecimalSetterActuator_ActuatorID"><path codeLine="161" d="M2523.62,851 C2708.79,851 2984,851 2984,851 C2984,851 2984,899.15 2984,936.17 " fill="none" id="DecimalSetterActuator-to-ActuatorID" style="stroke:#181818;stroke-width:1.0;"/><polygon fill="#181818" points="2984,942.17,2988,933.17,2984,937.17,2980,933.17,2984,942.17" style="stroke:#181818;stroke-width:1.0;"/></g><!--link DecimalSetterActuator to DeviceID--><g id="link_DecimalSetterActuator_DeviceID"><path codeLine="162" d="M2523.56,849 C2743.72,849 3106.75,849 3106.75,849 C3106.75,849 3106.75,976 3106.75,976 C3106.75,976 3108,976 3118.19,976 " fill="none" id="DecimalSetterActuator-to-DeviceID" style="stroke:#181818;stroke-width:1.0;"/><polygon fill="#181818" points="3124.19,976,3115.19,972,3119.19,976,3115.19,980,3124.19,976" style="stroke:#181818;stroke-width:1.0;"/></g><!--link DecimalSetterActuator to ActuatorFunctionalityID--><g id="link_DecimalSetterActuator_ActuatorFunctionalityID"><path codeLine="163" d="M2448.5,855.26 C2448.5,885.1 2448.5,912.41 2448.5,936.47 " fill="none" id="DecimalSetterActuator-to-ActuatorFunctionalityID" style="stroke:#181818;stroke-width:1.0;"/><polygon fill="#181818" points="2448.5,942.47,2452.5,933.47,2448.5,937.47,2444.5,933.47,2448.5,942.47" style="stroke:#181818;stroke-width:1.0;"/></g><!--link IntegerSetterActuator to ActuatorProperties--><g id="link_IntegerSetterActuator_ActuatorProperties"><path codeLine="165" d="M2940.17,845.78 C2940.17,885.16 2940.17,929 2940.17,929 C2940.17,929 2935.57,929 2920.01,929 " fill="none" id="IntegerSetterActuator-to-ActuatorProperties" style="stroke:#181818;stroke-width:1.0;"/><polygon fill="#181818" points="2914.01,929,2923.01,933,2919.01,929,2923.01,925,2914.01,929" style="stroke:#181818;stroke-width:1.0;"/></g><!--link IntegerSetterActuator to ActuatorID--><g id="link_IntegerSetterActuator_ActuatorID"><path codeLine="166" d="M3019,845.62 C3019,877.69 3019,909.75 3019,936.45 " fill="none" id="IntegerSetterActuator-to-ActuatorID" style="stroke:#181818;stroke-width:1.0;"/><polygon fill="#181818" points="3019,942.45,3023,933.45,3019,937.45,3015,933.45,3019,942.45" style="stroke:#181818;stroke-width:1.0;"/></g><!--link IntegerSetterActuator to DeviceID--><g id="link_IntegerSetterActuator_DeviceID"><path codeLine="167" d="M3188,845.62 C3188,877.69 3188,909.75 3188,936.45 " fill="none" id="IntegerSetterActuator-to-DeviceID" style="stroke:#181818;stroke-width:1.0;"/><polygon fill="#181818" points="3188,942.45,3192,933.45,3188,937.45,3184,933.45,3188,942.45" style="stroke:#181818;stroke-width:1.0;"/></g><!--link IntegerSetterActuator to ActuatorFunctionalityID--><g id="link_IntegerSetterActuator_ActuatorFunctionalityID"><path codeLine="168" d="M2931.33,845.62 C2931.33,861.87 2931.33,875 2931.33,875 C2931.33,875 2612.88,875 2612.88,875 C2612.88,875 2612.88,906.99 2612.88,936.37 " fill="none" id="IntegerSetterActuator-to-ActuatorFunctionalityID" style="stroke:#181818;stroke-width:1.0;"/><polygon fill="#181818" points="2612.88,942.37,2616.88,933.37,2612.88,937.37,2608.88,933.37,2612.88,942.37" style="stroke:#181818;stroke-width:1.0;"/></g><!--link SwitchActuator to ActuatorProperties--><g id="link_SwitchActuator_ActuatorProperties"><path codeLine="170" d="M3286.28,850 C3124.17,850 2900.75,850 2900.75,850 C2900.75,850 2900.75,876.74 2900.75,908.85 " fill="none" id="SwitchActuator-to-ActuatorProperties" style="stroke:#181818;stroke-width:1.0;"/><polygon fill="#181818" points="2900.75,914.85,2904.75,905.85,2900.75,909.85,2896.75,905.85,2900.75,914.85" style="stroke:#181818;stroke-width:1.0;"/></g><!--link SwitchActuator to ActuatorID--><g id="link_SwitchActuator_ActuatorID"><path codeLine="171" d="M3286.37,853 C3177.23,853 3054,853 3054,853 C3054,853 3054,899.97 3054,936.39 " fill="none" id="SwitchActuator-to-ActuatorID" style="stroke:#181818;stroke-width:1.0;"/><polygon fill="#181818" points="3054,942.39,3058,933.39,3054,937.39,3050,933.39,3054,942.39" style="stroke:#181818;stroke-width:1.0;"/></g><!--link SwitchActuator to DeviceID--><g id="link_SwitchActuator_DeviceID"><path codeLine="172" d="M3286.33,854 C3248.81,854 3219.75,854 3219.75,854 C3219.75,854 3219.75,900.23 3219.75,936.34 " fill="none" id="SwitchActuator-to-DeviceID" style="stroke:#181818;stroke-width:1.0;"/><polygon fill="#181818" points="3219.75,942.34,3223.75,933.34,3219.75,937.34,3215.75,933.34,3219.75,942.34" style="stroke:#181818;stroke-width:1.0;"/></g><!--link SwitchActuator to ActuatorFunctionalityID--><g id="link_SwitchActuator_ActuatorFunctionalityID"><path codeLine="173" d="M3286.41,847 C3037.69,847 2594.75,847 2594.75,847 C2594.75,847 2594.75,898.22 2594.75,936.44 " fill="none" id="SwitchActuator-to-ActuatorFunctionalityID" style="stroke:#181818;stroke-width:1.0;"/><polygon fill="#181818" points="2594.75,942.44,2598.75,933.44,2594.75,937.44,2590.75,933.44,2594.75,942.44" style="stroke:#181818;stroke-width:1.0;"/></g><!--link BlindSetterActuator to ActuatorProperties--><g id="link_BlindSetterActuator_ActuatorProperties"><path codeLine="175" d="M2739.83,845.62 C2739.83,867.73 2739.83,886.69 2739.83,908.81 " fill="none" id="BlindSetterActuator-to-ActuatorProperties" style="stroke:#181818;stroke-width:1.0;"/><polygon fill="#181818" points="2739.83,914.81,2743.83,905.81,2739.83,909.81,2735.83,905.81,2739.83,914.81" style="stroke:#181818;stroke-width:1.0;"/></g><!--link BlindSetterActuator to ActuatorID--><g id="link_BlindSetterActuator_ActuatorID"><path codeLine="176" d="M2887.74,785 C2906.05,785 2918.25,785 2918.25,785 C2918.25,785 2918.25,976 2918.25,976 C2918.25,976 2925.69,976 2942.75,976 " fill="none" id="BlindSetterActuator-to-ActuatorID" style="stroke:#181818;stroke-width:1.0;"/><polygon fill="#181818" points="2948.75,976,2939.75,972,2943.75,976,2939.75,980,2948.75,976" style="stroke:#181818;stroke-width:1.0;"/></g><!--link BlindSetterActuator to DeviceID--><g id="link_BlindSetterActuator_DeviceID"><path codeLine="177" d="M2813.67,845.57 C2813.67,871.12 2813.67,895 2813.67,895 C2813.67,895 3156.25,895 3156.25,895 C3156.25,895 3156.25,913.92 3156.25,936.12 " fill="none" id="BlindSetterActuator-to-DeviceID" style="stroke:#181818;stroke-width:1.0;"/><polygon fill="#181818" points="3156.25,942.12,3160.25,933.12,3156.25,937.12,3152.25,933.12,3156.25,942.12" style="stroke:#181818;stroke-width:1.0;"/></g><!--link BlindSetterActuator to ActuatorFunctionalityID--><g id="link_BlindSetterActuator_ActuatorFunctionalityID"><path codeLine="178" d="M2576.62,845.62 C2576.62,877.69 2576.62,909.75 2576.62,936.45 " fill="none" id="BlindSetterActuator-to-ActuatorFunctionalityID" style="stroke:#181818;stroke-width:1.0;"/><polygon fill="#181818" points="2576.62,942.45,2580.62,933.45,2576.62,937.45,2572.62,933.45,2576.62,942.45" style="stroke:#181818;stroke-width:1.0;"/></g><!--SRC=[rLRlRjiW4F_kf-1ZgYvzW2YAbCwR5AbhfgOlG6sIiZbWOP8kglRkEsoC0GFnf4dLFeNS_UxFxmuVr_oahCO27r556P6NcY0kv2lFigB2JOEUE3_kY3ZJWg3txFP0f98yq4RERhBVDkg9rBoXaeiBuFQKbUkg-i8abPGqivi5saWYy4j5bWgyScs_uRec0kmApiv4oEtB3rB8PkRQW1C0jkVyUVi9zOu6Fo1-p-O2Je_uID02xQIWx63oLbB86vdWEL7CN8ATp52qWPCvTd2BPIUuobFRQQRTlvRhuD3sr_4js_EOSMxa3kTrMJwIjtKXJnYOFFCEzfapANXL4J7kywWgIg2Es_twZ6cbKk_zVJsnGbBES4NbHK4BGR0qwZNKh2pxe3EBOT11g-ae8Qm1Yf1rzu9sRaU34FyE1q53mz6LZWVDLrVST_S19Iv4sAs-7_6IHRD99DDT9XnIZU_MEWPphvf6MUsOS1qYwK- -2A3N3NE3QVURF190AK8X5WQkWb46lTbZODDB8L9Glgj9GVUqs83c06qcloHXvP3e5RCSVewu6fcruJhAzp2qonsHuC9ewR6ko94msSGIiRgi6zi3Dtda0cno2-Lf1fFlWiDrLf_601vatg3gcs6Dj9RlT3hQuCFezBXdBE2B633T_pXTpLTtu_zld-QpUwEoUFrdH1g9vGaoSTtkMkd7qFJcZFism02NcBAcVHmkzn1nDh214VB2UKKmosvFTGapQIjs-4mCn9inwIdjwpUvLScs1dfGkyi2QCoo44952WSsA5xjY8-XdaW55PWT27HzWPxqISlq9wpb-b-tVcYWUcIDaL5ef57sbiDMgKrKz9DwP1_eaSes1QgYL_pDbxcs_VHr7PXyItw2vzdsCrBL0YGDLCkujvVf-TpRcXtjtTtAMeoXpilbgI7DQfLPqXu4LmBP47UfXK3-ykeXb1zxFmquioAQbSs1NLqgDLyTSnBUoNAIHMeN_2i7lKsMt2vZ4QrA9-rLELDxeLFW12xgn-zIvYzaDeDkRKf1GhpqiZMV3oceWDtcrSRC0aD1mSrNdTBt7tOMtWvQO6YA9-3M8vD0cS4_9R3_rcJXjpsQRG9kPPj0cMod11vbwxtSqJH3E2k_aDeabemnoYYqs4RJYeAjtA8Oa-3ra5wMVm00]--></g></svg>