<?xml version="1.0" encoding="us-ascii" standalone="no"?><svg xmlns="http://www.w3.org/2000/svg" xmlns:xlink="http://www.w3.org/1999/xlink" contentStyleType="text/css" height="1600px" preserveAspectRatio="none" style="width:3512px;height:1600px;background:#FFFFFF;" version="1.1" viewBox="0 0 3512 1600" width="3512px" zoomAndPan="magnify"><defs/><g><text fill="#000000" font-family="sans-serif" font-size="14" font-weight="bold" lengthAdjust="spacing" textLength="1073" x="1215.75" y="30.1074">As a Power User [or Administrator], I want to add a actuator to an existing device in a room. The sensor must be of a model of an existing type of actuator.</text><rect fill="#FFFFFF" height="1405.5039" style="stroke:#181818;stroke-width:1.0;" width="10" x="564" y="130.1543"/><rect fill="#FFFFFF" height="406.7734" style="stroke:#181818;stroke-width:1.0;" width="10" x="569" y="286.2793"/><rect fill="#FFFFFF" height="747.7324" style="stroke:#181818;stroke-width:1.0;" width="10" x="569" y="786.9258"/><rect fill="#FFFFFF" height="344.1914" style="stroke:#181818;stroke-width:1.0;" width="10" x="867" y="317.5703"/><rect fill="#FFFFFF" height="281.6094" style="stroke:#181818;stroke-width:1.0;" width="10" x="1165" y="348.8613"/><rect fill="#FFFFFF" height="31.291" style="stroke:#181818;stroke-width:1.0;" width="10" x="1391" y="380.1523"/><rect fill="#FFFFFF" height="139.4453" style="stroke:#181818;stroke-width:1.0;" width="10" x="1707" y="452.7344"/><rect fill="#FFFFFF" height="31.291" style="stroke:#181818;stroke-width:1.0;" width="10" x="1707" y="880.7988"/><rect fill="#FFFFFF" height="31.291" style="stroke:#181818;stroke-width:1.0;" width="10" x="2289.5" y="818.2168"/><rect fill="#FFFFFF" height="527.6953" style="stroke:#181818;stroke-width:1.0;" width="10" x="2661.5" y="960.6719"/><rect fill="#FFFFFF" height="74.9121" style="stroke:#181818;stroke-width:1.0;" width="10" x="3171.5" y="1186.418"/><rect fill="#FFFFFF" height="93.873" style="stroke:#181818;stroke-width:1.0;" width="10" x="3426" y="1336.9121"/><rect fill="none" height="111.4941" style="stroke:#000000;stroke-width:1.5;" width="1049" x="1060.5" y="488.6855"/><rect fill="none" height="81.873" style="stroke:#000000;stroke-width:1.5;" width="2732.5" x="3" y="1445.7852"/><line style="stroke:#181818;stroke-width:0.5;stroke-dasharray:5.0,5.0;" x1="569" x2="569" y1="96.8633" y2="1544.6582"/><line style="stroke:#181818;stroke-width:0.5;stroke-dasharray:5.0,5.0;" x1="872" x2="872" y1="96.8633" y2="1544.6582"/><line style="stroke:#181818;stroke-width:0.5;stroke-dasharray:5.0,5.0;" x1="1169.5" x2="1169.5" y1="96.8633" y2="1544.6582"/><line style="stroke:#181818;stroke-width:0.5;stroke-dasharray:5.0,5.0;" x1="1395.5" x2="1395.5" y1="96.8633" y2="1544.6582"/><line style="stroke:#181818;stroke-width:0.5;stroke-dasharray:5.0,5.0;" x1="1711.5" x2="1711.5" y1="460.5645" y2="1544.6582"/><line style="stroke:#181818;stroke-width:0.5;stroke-dasharray:5.0,5.0;" x1="2008.5" x2="2008.5" y1="539.7871" y2="1544.6582"/><line style="stroke:#181818;stroke-width:0.5;stroke-dasharray:5.0,5.0;" x1="2294.5" x2="2294.5" y1="96.8633" y2="1544.6582"/><line style="stroke:#181818;stroke-width:0.5;stroke-dasharray:5.0,5.0;" x1="2543.5" x2="2543.5" y1="96.8633" y2="1544.6582"/><line style="stroke:#181818;stroke-width:0.5;stroke-dasharray:5.0,5.0;" x1="2666.5" x2="2666.5" y1="96.8633" y2="1544.6582"/><line style="stroke:#181818;stroke-width:0.5;stroke-dasharray:5.0,5.0;" x1="3176" x2="3176" y1="96.8633" y2="1544.6582"/><line style="stroke:#181818;stroke-width:0.5;stroke-dasharray:5.0,5.0;" x1="3315.5" x2="3315.5" y1="1226.2285" y2="1544.6582"/><line style="stroke:#181818;stroke-width:0.5;stroke-dasharray:5.0,5.0;" x1="3430.5" x2="3430.5" y1="96.8633" y2="1544.6582"/><rect fill="#E2E2F0" height="32.6211" rx="2.5" ry="2.5" style="stroke:#181818;stroke-width:0.5;" width="244" x="447" y="63.2422"/><text fill="#000000" font-family="sans-serif" font-size="14" lengthAdjust="spacing" textLength="230" x="454" y="85.3496">:AddNewActuatorToDeviceController</text><rect fill="#E2E2F0" height="32.6211" rx="2.5" ry="2.5" style="stroke:#181818;stroke-width:0.5;" width="244" x="447" y="1543.6582"/><text fill="#000000" font-family="sans-serif" font-size="14" lengthAdjust="spacing" textLength="230" x="454" y="1565.7656">:AddNewActuatorToDeviceController</text><rect fill="#E2E2F0" height="32.6211" rx="2.5" ry="2.5" style="stroke:#181818;stroke-width:0.5;" width="198" x="773" y="63.2422"/><text fill="#000000" font-family="sans-serif" font-size="14" lengthAdjust="spacing" textLength="184" x="780" y="85.3496">:ActuatorFunctionalityService</text><rect fill="#E2E2F0" height="32.6211" rx="2.5" ry="2.5" style="stroke:#181818;stroke-width:0.5;" width="198" x="773" y="1543.6582"/><text fill="#000000" font-family="sans-serif" font-size="14" lengthAdjust="spacing" textLength="184" x="780" y="1565.7656">:ActuatorFunctionalityService</text><rect fill="#E2E2F0" height="32.6211" rx="2.5" ry="2.5" style="stroke:#181818;stroke-width:0.5;" width="199" x="1070.5" y="63.2422"/><text fill="#000000" font-family="sans-serif" font-size="14" lengthAdjust="spacing" textLength="185" x="1077.5" y="85.3496">:ActuatorFunctionalityMapper</text><rect fill="#E2E2F0" height="32.6211" rx="2.5" ry="2.5" style="stroke:#181818;stroke-width:0.5;" width="199" x="1070.5" y="1543.6582"/><text fill="#000000" font-family="sans-serif" font-size="14" lengthAdjust="spacing" textLength="185" x="1077.5" y="1565.7656">:ActuatorFunctionalityMapper</text><rect fill="#E2E2F0" height="32.6211" rx="2.5" ry="2.5" style="stroke:#181818;stroke-width:0.5;" width="219" x="1286.5" y="63.2422"/><text fill="#000000" font-family="sans-serif" font-size="14" lengthAdjust="spacing" textLength="205" x="1293.5" y="85.3496">:ActuatorFunctionalityRepository</text><rect fill="#E2E2F0" height="32.6211" rx="2.5" ry="2.5" style="stroke:#181818;stroke-width:0.5;" width="219" x="1286.5" y="1543.6582"/><text fill="#000000" font-family="sans-serif" font-size="14" lengthAdjust="spacing" textLength="205" x="1293.5" y="1565.7656">:ActuatorFunctionalityRepository</text><rect fill="#E2E2F0" height="51.2422" rx="2.5" ry="2.5" style="stroke:#181818;stroke-width:0.5;" width="393" x="1515.5" y="1543.6582"/><text fill="#000000" font-family="sans-serif" font-size="14" lengthAdjust="spacing" textLength="273" x="1575.5" y="1565.7656">hashmapActuatorFunctionalityDTODomain:</text><text fill="#000000" font-family="sans-serif" font-size="14" lengthAdjust="spacing" textLength="379" x="1522.5" y="1584.3867">HashMap&lt;ActuatorFunctionalityDTO, ActuatorFunctionality&gt;</text><rect fill="#E2E2F0" height="32.6211" rx="2.5" ry="2.5" style="stroke:#181818;stroke-width:0.5;" width="181" x="1918.5" y="1543.6582"/><text fill="#000000" font-family="sans-serif" font-size="14" lengthAdjust="spacing" textLength="167" x="1925.5" y="1565.7656">:ActuatorFunctionalityDTO</text><rect fill="#E2E2F0" height="32.6211" rx="2.5" ry="2.5" style="stroke:#181818;stroke-width:0.5;" width="370" x="2109.5" y="63.2422"/><text fill="#000000" font-family="sans-serif" font-size="14" lengthAdjust="spacing" textLength="356" x="2116.5" y="85.3496">devicesDTOAndDevices:HashMap&lt;DeviceDTO, Device&gt;</text><rect fill="#E2E2F0" height="32.6211" rx="2.5" ry="2.5" style="stroke:#181818;stroke-width:0.5;" width="370" x="2109.5" y="1543.6582"/><text fill="#000000" font-family="sans-serif" font-size="14" lengthAdjust="spacing" textLength="356" x="2116.5" y="1565.7656">devicesDTOAndDevices:HashMap&lt;DeviceDTO, Device&gt;</text><rect fill="#E2E2F0" height="32.6211" rx="2.5" ry="2.5" style="stroke:#181818;stroke-width:0.5;" width="108" x="2489.5" y="63.2422"/><text fill="#000000" font-family="sans-serif" font-size="14" lengthAdjust="spacing" textLength="94" x="2496.5" y="85.3496">:DeviceService</text><rect fill="#E2E2F0" height="32.6211" rx="2.5" ry="2.5" style="stroke:#181818;stroke-width:0.5;" width="108" x="2489.5" y="1543.6582"/><text fill="#000000" font-family="sans-serif" font-size="14" lengthAdjust="spacing" textLength="94" x="2496.5" y="1565.7656">:DeviceService</text><rect fill="#E2E2F0" height="32.6211" rx="2.5" ry="2.5" style="stroke:#181818;stroke-width:0.5;" width="118" x="2607.5" y="63.2422"/><text fill="#000000" font-family="sans-serif" font-size="14" lengthAdjust="spacing" textLength="104" x="2614.5" y="85.3496">:ActuatorService</text><rect fill="#E2E2F0" height="32.6211" rx="2.5" ry="2.5" style="stroke:#181818;stroke-width:0.5;" width="118" x="2607.5" y="1543.6582"/><text fill="#000000" font-family="sans-serif" font-size="14" lengthAdjust="spacing" textLength="104" x="2614.5" y="1565.7656">:ActuatorService</text><rect fill="#E2E2F0" height="32.6211" rx="2.5" ry="2.5" style="stroke:#181818;stroke-width:0.5;" width="119" x="3117" y="63.2422"/><text fill="#000000" font-family="sans-serif" font-size="14" lengthAdjust="spacing" textLength="105" x="3124" y="85.3496">:FactoryActuator</text><rect fill="#E2E2F0" height="32.6211" rx="2.5" ry="2.5" style="stroke:#181818;stroke-width:0.5;" width="119" x="3117" y="1543.6582"/><text fill="#000000" font-family="sans-serif" font-size="14" lengthAdjust="spacing" textLength="105" x="3124" y="1565.7656">:FactoryActuator</text><rect fill="#E2E2F0" height="32.6211" rx="2.5" ry="2.5" style="stroke:#181818;stroke-width:0.5;" width="71" x="3280.5" y="1543.6582"/><text fill="#000000" font-family="sans-serif" font-size="14" lengthAdjust="spacing" textLength="57" x="3287.5" y="1565.7656">:Actuator</text><rect fill="#E2E2F0" height="32.6211" rx="2.5" ry="2.5" style="stroke:#181818;stroke-width:0.5;" width="139" x="3361.5" y="63.2422"/><text fill="#000000" font-family="sans-serif" font-size="14" lengthAdjust="spacing" textLength="125" x="3368.5" y="85.3496">:ActuatorRepository</text><rect fill="#E2E2F0" height="32.6211" rx="2.5" ry="2.5" style="stroke:#181818;stroke-width:0.5;" width="139" x="3361.5" y="1543.6582"/><text fill="#000000" font-family="sans-serif" font-size="14" lengthAdjust="spacing" textLength="125" x="3368.5" y="1565.7656">:ActuatorRepository</text><rect fill="#FFFFFF" height="1405.5039" style="stroke:#181818;stroke-width:1.0;" width="10" x="564" y="130.1543"/><rect fill="#FFFFFF" height="406.7734" style="stroke:#181818;stroke-width:1.0;" width="10" x="569" y="286.2793"/><rect fill="#FFFFFF" height="747.7324" style="stroke:#181818;stroke-width:1.0;" width="10" x="569" y="786.9258"/><rect fill="#FFFFFF" height="344.1914" style="stroke:#181818;stroke-width:1.0;" width="10" x="867" y="317.5703"/><rect fill="#FFFFFF" height="281.6094" style="stroke:#181818;stroke-width:1.0;" width="10" x="1165" y="348.8613"/><rect fill="#FFFFFF" height="31.291" style="stroke:#181818;stroke-width:1.0;" width="10" x="1391" y="380.1523"/><rect fill="#FFFFFF" height="139.4453" style="stroke:#181818;stroke-width:1.0;" width="10" x="1707" y="452.7344"/><rect fill="#FFFFFF" height="31.291" style="stroke:#181818;stroke-width:1.0;" width="10" x="1707" y="880.7988"/><rect fill="#FFFFFF" height="31.291" style="stroke:#181818;stroke-width:1.0;" width="10" x="2289.5" y="818.2168"/><rect fill="#FFFFFF" height="527.6953" style="stroke:#181818;stroke-width:1.0;" width="10" x="2661.5" y="960.6719"/><rect fill="#FFFFFF" height="74.9121" style="stroke:#181818;stroke-width:1.0;" width="10" x="3171.5" y="1186.418"/><rect fill="#FFFFFF" height="93.873" style="stroke:#181818;stroke-width:1.0;" width="10" x="3426" y="1336.9121"/><polygon fill="#181818" points="552,126.1543,562,130.1543,552,134.1543,556,130.1543" style="stroke:#181818;stroke-width:1.0;"/><line style="stroke:#181818;stroke-width:1.0;" x1="0" x2="558" y1="130.1543" y2="130.1543"/><text fill="#000000" font-family="sans-serif" font-size="13" font-weight="bold" lengthAdjust="spacing" textLength="7" x="7" y="124.8916">1</text><text fill="#000000" font-family="sans-serif" font-size="13" lengthAdjust="spacing" textLength="81" x="18" y="124.8916">getRoomList()</text><rect fill="none" height="43.252" style="stroke:#000000;stroke-width:1.5;" width="250" x="444" y="138.1543"/><path d="M444,138.1543 L506,138.1543 L506,147.1543 L496,157.1543 L444,157.1543 L444,138.1543 " fill="#EEEEEE" style="stroke:#000000;stroke-width:2.0;"/><text fill="#000000" font-family="sans-serif" font-size="13" font-weight="bold" lengthAdjust="spacing" textLength="17" x="457" y="154.1826">ref</text><text fill="#000000" font-family="sans-serif" font-size="12" lengthAdjust="spacing" textLength="135" x="501.5" y="174.1035">US06SequenceDiagram</text><polygon fill="#181818" points="11,205.6973,1,209.6973,11,213.6973,7,209.6973" style="stroke:#181818;stroke-width:1.0;"/><line style="stroke:#181818;stroke-width:1.0;stroke-dasharray:2.0,2.0;" x1="5" x2="563" y1="209.6973" y2="209.6973"/><text fill="#000000" font-family="sans-serif" font-size="13" font-weight="bold" lengthAdjust="spacing" textLength="7" x="17" y="204.4346">2</text><text fill="#000000" font-family="sans-serif" font-size="13" lengthAdjust="spacing" textLength="101" x="28" y="204.4346">List&lt;DeviceDTO&gt;</text><rect fill="#EEEEEE" height="3" style="stroke:#EEEEEE;stroke-width:1.0;" width="3505.5" x="0" y="239.3428"/><line style="stroke:#000000;stroke-width:1.0;" x1="0" x2="3505.5" y1="239.3428" y2="239.3428"/><line style="stroke:#000000;stroke-width:1.0;" x1="0" x2="3505.5" y1="242.3428" y2="242.3428"/><rect fill="#EEEEEE" height="25.291" style="stroke:#000000;stroke-width:2.0;" width="368" x="1568.75" y="227.6973"/><text fill="#000000" font-family="sans-serif" font-size="13" font-weight="bold" lengthAdjust="spacing" textLength="350" x="1574.75" y="245.7256">Retrieve and externalize list of actuators functionalities</text><polygon fill="#181818" points="552,282.2793,562,286.2793,552,290.2793,556,286.2793" style="stroke:#181818;stroke-width:1.0;"/><line style="stroke:#181818;stroke-width:1.0;" x1="0" x2="558" y1="286.2793" y2="286.2793"/><text fill="#000000" font-family="sans-serif" font-size="13" font-weight="bold" lengthAdjust="spacing" textLength="7" x="7" y="281.0166">3</text><text fill="#000000" font-family="sans-serif" font-size="13" lengthAdjust="spacing" textLength="160" x="18" y="281.0166">getListOfAvailableActuator()</text><polygon fill="#181818" points="855,313.5703,865,317.5703,855,321.5703,859,317.5703" style="stroke:#181818;stroke-width:1.0;"/><line style="stroke:#181818;stroke-width:1.0;" x1="579" x2="861" y1="317.5703" y2="317.5703"/><text fill="#000000" font-family="sans-serif" font-size="13" font-weight="bold" lengthAdjust="spacing" textLength="7" x="586" y="312.3076">4</text><text fill="#000000" font-family="sans-serif" font-size="13" lengthAdjust="spacing" textLength="170" x="597" y="312.3076">getActuatorFunctionalityList()</text><polygon fill="#181818" points="1153,344.8613,1163,348.8613,1153,352.8613,1157,348.8613" style="stroke:#181818;stroke-width:1.0;"/><line style="stroke:#181818;stroke-width:1.0;" x1="877" x2="1159" y1="348.8613" y2="348.8613"/><text fill="#000000" font-family="sans-serif" font-size="13" font-weight="bold" lengthAdjust="spacing" textLength="7" x="884" y="343.5986">5</text><text fill="#000000" font-family="sans-serif" font-size="13" lengthAdjust="spacing" textLength="174" x="895" y="343.5986">getActuatorFunctionalityMap()</text><polygon fill="#181818" points="1379,376.1523,1389,380.1523,1379,384.1523,1383,380.1523" style="stroke:#181818;stroke-width:1.0;"/><line style="stroke:#181818;stroke-width:1.0;" x1="1175" x2="1385" y1="380.1523" y2="380.1523"/><text fill="#000000" font-family="sans-serif" font-size="13" font-weight="bold" lengthAdjust="spacing" textLength="7" x="1182" y="374.8896">6</text><text fill="#000000" font-family="sans-serif" font-size="13" lengthAdjust="spacing" textLength="87" x="1193" y="374.8896">findAllEntities()</text><polygon fill="#181818" points="1186,407.4434,1176,411.4434,1186,415.4434,1182,411.4434" style="stroke:#181818;stroke-width:1.0;"/><line style="stroke:#181818;stroke-width:1.0;stroke-dasharray:2.0,2.0;" x1="1180" x2="1395" y1="411.4434" y2="411.4434"/><text fill="#000000" font-family="sans-serif" font-size="13" font-weight="bold" lengthAdjust="spacing" textLength="7" x="1192" y="406.1807">7</text><text fill="#000000" font-family="sans-serif" font-size="13" lengthAdjust="spacing" textLength="181" x="1203" y="406.1807">Iterable&lt;ActuatorFunctionality&gt;</text><polygon fill="#181818" points="1503.5,438.7344,1513.5,442.7344,1503.5,446.7344,1507.5,442.7344" style="stroke:#181818;stroke-width:1.0;"/><line style="stroke:#181818;stroke-width:1.0;stroke-dasharray:2.0,2.0;" x1="1175" x2="1509.5" y1="442.7344" y2="442.7344"/><text fill="#000000" font-family="sans-serif" font-size="13" font-weight="bold" lengthAdjust="spacing" textLength="7" x="1182" y="437.4717">8</text><text fill="#000000" font-family="sans-serif" font-size="13" lengthAdjust="spacing" textLength="57" x="1193" y="437.4717">&#171;creates&#187;</text><rect fill="#E2E2F0" height="51.2422" rx="2.5" ry="2.5" style="stroke:#181818;stroke-width:0.5;" width="393" x="1515.5" y="419.4434"/><text fill="#000000" font-family="sans-serif" font-size="14" lengthAdjust="spacing" textLength="273" x="1575.5" y="441.5508">hashmapActuatorFunctionalityDTODomain:</text><text fill="#000000" font-family="sans-serif" font-size="14" lengthAdjust="spacing" textLength="379" x="1522.5" y="460.1719">HashMap&lt;ActuatorFunctionalityDTO, ActuatorFunctionality&gt;</text><path d="M1060.5,488.6855 L1133.5,488.6855 L1133.5,497.9766 L1123.5,507.9766 L1060.5,507.9766 L1060.5,488.6855 " fill="#EEEEEE" style="stroke:#000000;stroke-width:1.5;"/><rect fill="none" height="111.4941" style="stroke:#000000;stroke-width:1.5;" width="1049" x="1060.5" y="488.6855"/><text fill="#000000" font-family="sans-serif" font-size="13" font-weight="bold" lengthAdjust="spacing" textLength="28" x="1075.5" y="503.7139">loop</text><text fill="#000000" font-family="sans-serif" font-size="11" font-weight="bold" lengthAdjust="spacing" textLength="233" x="1148.5" y="502.5557">[for each Actuator Functionality in Iterable]</text><polygon fill="#181818" points="1906.5,527.2676,1916.5,531.2676,1906.5,535.2676,1910.5,531.2676" style="stroke:#181818;stroke-width:1.0;"/><line style="stroke:#181818;stroke-width:1.0;" x1="1175" x2="1912.5" y1="531.2676" y2="531.2676"/><text fill="#000000" font-family="sans-serif" font-size="13" font-weight="bold" lengthAdjust="spacing" textLength="7" x="1182" y="526.0049">9</text><text fill="#000000" font-family="sans-serif" font-size="13" lengthAdjust="spacing" textLength="57" x="1193" y="526.0049">&#171;creates&#187;</text><rect fill="#E2E2F0" height="32.6211" rx="2.5" ry="2.5" style="stroke:#181818;stroke-width:0.5;" width="181" x="1918.5" y="507.9766"/><text fill="#000000" font-family="sans-serif" font-size="14" lengthAdjust="spacing" textLength="167" x="1925.5" y="530.084">:ActuatorFunctionalityDTO</text><polygon fill="#181818" points="1700,588.1797,1710,592.1797,1700,596.1797,1704,592.1797" style="stroke:#181818;stroke-width:1.0;"/><line style="stroke:#181818;stroke-width:1.0;" x1="1175" x2="1706" y1="592.1797" y2="592.1797"/><text fill="#000000" font-family="sans-serif" font-size="13" font-weight="bold" lengthAdjust="spacing" textLength="14" x="1182" y="578.2715">10</text><text fill="#000000" font-family="sans-serif" font-size="13" lengthAdjust="spacing" textLength="326" x="1200" y="569.626">put(ActuatorFunctionalityDTO actuatorFunctionalityDTO,</text><text fill="#000000" font-family="sans-serif" font-size="13" lengthAdjust="spacing" textLength="252" x="1204" y="586.917">ActuatorFunctionality actuatorFunctionality)</text><polygon fill="#181818" points="888,626.4707,878,630.4707,888,634.4707,884,630.4707" style="stroke:#181818;stroke-width:1.0;"/><line style="stroke:#181818;stroke-width:1.0;stroke-dasharray:2.0,2.0;" x1="882" x2="1169" y1="630.4707" y2="630.4707"/><text fill="#000000" font-family="sans-serif" font-size="13" font-weight="bold" lengthAdjust="spacing" textLength="14" x="894" y="625.208">11</text><text fill="#000000" font-family="sans-serif" font-size="13" lengthAdjust="spacing" textLength="246" x="912" y="625.208">hashmapActuatorFunctionalityDTODomain</text><polygon fill="#181818" points="590,657.7617,580,661.7617,590,665.7617,586,661.7617" style="stroke:#181818;stroke-width:1.0;"/><line style="stroke:#181818;stroke-width:1.0;stroke-dasharray:2.0,2.0;" x1="584" x2="871" y1="661.7617" y2="661.7617"/><text fill="#000000" font-family="sans-serif" font-size="13" font-weight="bold" lengthAdjust="spacing" textLength="14" x="596" y="656.499">12</text><text fill="#000000" font-family="sans-serif" font-size="13" lengthAdjust="spacing" textLength="246" x="614" y="656.499">hashmapActuatorFunctionalityDTODomain</text><polygon fill="#181818" points="11,689.0527,1,693.0527,11,697.0527,7,693.0527" style="stroke:#181818;stroke-width:1.0;"/><line style="stroke:#181818;stroke-width:1.0;stroke-dasharray:2.0,2.0;" x1="5" x2="563" y1="693.0527" y2="693.0527"/><text fill="#000000" font-family="sans-serif" font-size="13" font-weight="bold" lengthAdjust="spacing" textLength="14" x="17" y="687.79">13</text><text fill="#000000" font-family="sans-serif" font-size="13" lengthAdjust="spacing" textLength="190" x="35" y="687.79">List &lt;ActuatorFunctionalityDTO&gt;</text><rect fill="#EEEEEE" height="3" style="stroke:#EEEEEE;stroke-width:1.0;" width="3505.5" x="0" y="722.6982"/><line style="stroke:#000000;stroke-width:1.0;" x1="0" x2="3505.5" y1="722.6982" y2="722.6982"/><line style="stroke:#000000;stroke-width:1.0;" x1="0" x2="3505.5" y1="725.6982" y2="725.6982"/><rect fill="#EEEEEE" height="25.291" style="stroke:#000000;stroke-width:2.0;" width="279" x="1613.25" y="711.0527"/><text fill="#000000" font-family="sans-serif" font-size="13" font-weight="bold" lengthAdjust="spacing" textLength="261" x="1619.25" y="729.0811">Create Actuator object for a given Device</text><polygon fill="#181818" points="552,782.9258,562,786.9258,552,790.9258,556,786.9258" style="stroke:#181818;stroke-width:1.0;"/><line style="stroke:#181818;stroke-width:1.0;" x1="0" x2="558" y1="786.9258" y2="786.9258"/><text fill="#000000" font-family="sans-serif" font-size="13" font-weight="bold" lengthAdjust="spacing" textLength="14" x="7" y="773.0176">14</text><text fill="#000000" font-family="sans-serif" font-size="13" lengthAdjust="spacing" textLength="516" x="25" y="764.3721">createActuatorAndSaveInRepository(ActuatorFunctionalityDTO actuatorFunctionalityDTO,</text><text fill="#000000" font-family="sans-serif" font-size="13" lengthAdjust="spacing" textLength="487" x="29" y="781.6631">String actuatorName, ActuatorProperties actuatorProperties, DeviceDTO deviceDTO)</text><polygon fill="#181818" points="2277.5,814.2168,2287.5,818.2168,2277.5,822.2168,2281.5,818.2168" style="stroke:#181818;stroke-width:1.0;"/><line style="stroke:#181818;stroke-width:1.0;" x1="579" x2="2283.5" y1="818.2168" y2="818.2168"/><text fill="#000000" font-family="sans-serif" font-size="13" font-weight="bold" lengthAdjust="spacing" textLength="14" x="586" y="812.9541">15</text><text fill="#000000" font-family="sans-serif" font-size="13" lengthAdjust="spacing" textLength="156" x="604" y="812.9541">get(DeviceDTO deviceDTO)</text><polygon fill="#181818" points="590,845.5078,580,849.5078,590,853.5078,586,849.5078" style="stroke:#181818;stroke-width:1.0;"/><line style="stroke:#181818;stroke-width:1.0;stroke-dasharray:2.0,2.0;" x1="584" x2="2293.5" y1="849.5078" y2="849.5078"/><text fill="#000000" font-family="sans-serif" font-size="13" font-weight="bold" lengthAdjust="spacing" textLength="14" x="596" y="844.2451">16</text><text fill="#000000" font-family="sans-serif" font-size="13" lengthAdjust="spacing" textLength="38" x="614" y="844.2451">Device</text><polygon fill="#181818" points="1695,876.7988,1705,880.7988,1695,884.7988,1699,880.7988" style="stroke:#181818;stroke-width:1.0;"/><line style="stroke:#181818;stroke-width:1.0;" x1="579" x2="1701" y1="880.7988" y2="880.7988"/><text fill="#000000" font-family="sans-serif" font-size="13" font-weight="bold" lengthAdjust="spacing" textLength="14" x="586" y="875.5361">17</text><text fill="#000000" font-family="sans-serif" font-size="13" lengthAdjust="spacing" textLength="326" x="604" y="875.5361">get(ActuatorFunctionalityDTO actuatorFunctionalityDTO)</text><polygon fill="#181818" points="590,908.0898,580,912.0898,590,916.0898,586,912.0898" style="stroke:#181818;stroke-width:1.0;"/><line style="stroke:#181818;stroke-width:1.0;stroke-dasharray:2.0,2.0;" x1="584" x2="1711" y1="912.0898" y2="912.0898"/><text fill="#000000" font-family="sans-serif" font-size="13" font-weight="bold" lengthAdjust="spacing" textLength="14" x="596" y="906.8271">18</text><text fill="#000000" font-family="sans-serif" font-size="13" lengthAdjust="spacing" textLength="123" x="614" y="906.8271">ActuatorFunctionality</text><polygon fill="#181818" points="2649.5,956.6719,2659.5,960.6719,2649.5,964.6719,2653.5,960.6719" style="stroke:#181818;stroke-width:1.0;"/><line style="stroke:#181818;stroke-width:1.0;" x1="579" x2="2655.5" y1="960.6719" y2="960.6719"/><text fill="#000000" font-family="sans-serif" font-size="13" font-weight="bold" lengthAdjust="spacing" textLength="14" x="586" y="946.7637">19</text><text fill="#000000" font-family="sans-serif" font-size="13" lengthAdjust="spacing" textLength="392" x="604" y="938.1182">createActuatorAndSave(ActuatorFunctionality actuatorFunctionality,</text><text fill="#000000" font-family="sans-serif" font-size="13" lengthAdjust="spacing" textLength="435" x="608" y="955.4092">String actuatorName, ActuatorProperties actuatorProperties, Device device)</text><line style="stroke:#181818;stroke-width:1.0;" x1="2671.5" x2="2713.5" y1="991.9629" y2="991.9629"/><line style="stroke:#181818;stroke-width:1.0;" x1="2713.5" x2="2713.5" y1="991.9629" y2="1004.9629"/><line style="stroke:#181818;stroke-width:1.0;" x1="2672.5" x2="2713.5" y1="1004.9629" y2="1004.9629"/><polygon fill="#181818" points="2682.5,1000.9629,2672.5,1004.9629,2682.5,1008.9629,2678.5,1004.9629" style="stroke:#181818;stroke-width:1.0;"/><text fill="#000000" font-family="sans-serif" font-size="13" font-weight="bold" lengthAdjust="spacing" textLength="14" x="2678.5" y="986.7002">20</text><text fill="#000000" font-family="sans-serif" font-size="13" lengthAdjust="spacing" textLength="93" x="2696.5" y="986.7002">device.isActive()</text><line style="stroke:#181818;stroke-width:1.0;" x1="2671.5" x2="2713.5" y1="1036.2539" y2="1036.2539"/><line style="stroke:#181818;stroke-width:1.0;" x1="2713.5" x2="2713.5" y1="1036.2539" y2="1049.2539"/><line style="stroke:#181818;stroke-width:1.0;" x1="2672.5" x2="2713.5" y1="1049.2539" y2="1049.2539"/><polygon fill="#181818" points="2682.5,1045.2539,2672.5,1049.2539,2682.5,1053.2539,2678.5,1049.2539" style="stroke:#181818;stroke-width:1.0;"/><text fill="#000000" font-family="sans-serif" font-size="13" font-weight="bold" lengthAdjust="spacing" textLength="14" x="2678.5" y="1030.9912">21</text><text fill="#000000" font-family="sans-serif" font-size="13" lengthAdjust="spacing" textLength="90" x="2696.5" y="1030.9912">device.identity()</text><line style="stroke:#181818;stroke-width:1.0;" x1="2671.5" x2="2713.5" y1="1080.5449" y2="1080.5449"/><line style="stroke:#181818;stroke-width:1.0;" x1="2713.5" x2="2713.5" y1="1080.5449" y2="1093.5449"/><line style="stroke:#181818;stroke-width:1.0;" x1="2672.5" x2="2713.5" y1="1093.5449" y2="1093.5449"/><polygon fill="#181818" points="2682.5,1089.5449,2672.5,1093.5449,2682.5,1097.5449,2678.5,1093.5449" style="stroke:#181818;stroke-width:1.0;"/><text fill="#000000" font-family="sans-serif" font-size="13" font-weight="bold" lengthAdjust="spacing" textLength="14" x="2678.5" y="1075.2822">22</text><text fill="#000000" font-family="sans-serif" font-size="13" lengthAdjust="spacing" textLength="323" x="2696.5" y="1075.2822">deviceRepository.containsEntityByID(DeviceID deviceID)</text><line style="stroke:#181818;stroke-width:1.0;" x1="2671.5" x2="2713.5" y1="1124.8359" y2="1124.8359"/><line style="stroke:#181818;stroke-width:1.0;" x1="2713.5" x2="2713.5" y1="1124.8359" y2="1137.8359"/><line style="stroke:#181818;stroke-width:1.0;" x1="2672.5" x2="2713.5" y1="1137.8359" y2="1137.8359"/><polygon fill="#181818" points="2682.5,1133.8359,2672.5,1137.8359,2682.5,1141.8359,2678.5,1137.8359" style="stroke:#181818;stroke-width:1.0;"/><text fill="#000000" font-family="sans-serif" font-size="13" font-weight="bold" lengthAdjust="spacing" textLength="14" x="2678.5" y="1119.5732">23</text><text fill="#000000" font-family="sans-serif" font-size="13" lengthAdjust="spacing" textLength="175" x="2696.5" y="1119.5732">actuatorFunctionality.identity()</text><polygon fill="#181818" points="3159.5,1182.418,3169.5,1186.418,3159.5,1190.418,3163.5,1186.418" style="stroke:#181818;stroke-width:1.0;"/><line style="stroke:#181818;stroke-width:1.0;" x1="2671.5" x2="3165.5" y1="1186.418" y2="1186.418"/><text fill="#000000" font-family="sans-serif" font-size="13" font-weight="bold" lengthAdjust="spacing" textLength="14" x="2678.5" y="1172.5098">24</text><text fill="#000000" font-family="sans-serif" font-size="13" lengthAdjust="spacing" textLength="365" x="2696.5" y="1163.8643">createActuator(ActuatorFunctionalityID actuatorFunctionalityID,</text><text fill="#000000" font-family="sans-serif" font-size="13" lengthAdjust="spacing" textLength="459" x="2700.5" y="1181.1553">String actuatorName, ActuatorProperties actuatorProperties, DeviceID deviceID)</text><polygon fill="#181818" points="3268.5,1213.709,3278.5,1217.709,3268.5,1221.709,3272.5,1217.709" style="stroke:#181818;stroke-width:1.0;"/><line style="stroke:#181818;stroke-width:1.0;" x1="3181.5" x2="3274.5" y1="1217.709" y2="1217.709"/><text fill="#000000" font-family="sans-serif" font-size="13" font-weight="bold" lengthAdjust="spacing" textLength="14" x="3188.5" y="1212.4463">25</text><text fill="#000000" font-family="sans-serif" font-size="13" lengthAdjust="spacing" textLength="57" x="3206.5" y="1212.4463">&#171;creates&#187;</text><rect fill="#E2E2F0" height="32.6211" rx="2.5" ry="2.5" style="stroke:#181818;stroke-width:0.5;" width="71" x="3280.5" y="1194.418"/><text fill="#000000" font-family="sans-serif" font-size="14" lengthAdjust="spacing" textLength="57" x="3287.5" y="1216.5254">:Actuator</text><polygon fill="#181818" points="2682.5,1257.3301,2672.5,1261.3301,2682.5,1265.3301,2678.5,1261.3301" style="stroke:#181818;stroke-width:1.0;"/><line style="stroke:#181818;stroke-width:1.0;stroke-dasharray:2.0,2.0;" x1="2676.5" x2="3175.5" y1="1261.3301" y2="1261.3301"/><text fill="#000000" font-family="sans-serif" font-size="13" font-weight="bold" lengthAdjust="spacing" textLength="14" x="2688.5" y="1256.0674">26</text><text fill="#000000" font-family="sans-serif" font-size="13" lengthAdjust="spacing" textLength="49" x="2706.5" y="1256.0674">Actuator</text><line style="stroke:#181818;stroke-width:1.0;" x1="2671.5" x2="2713.5" y1="1292.6211" y2="1292.6211"/><line style="stroke:#181818;stroke-width:1.0;" x1="2713.5" x2="2713.5" y1="1292.6211" y2="1305.6211"/><line style="stroke:#181818;stroke-width:1.0;" x1="2672.5" x2="2713.5" y1="1305.6211" y2="1305.6211"/><polygon fill="#181818" points="2682.5,1301.6211,2672.5,1305.6211,2682.5,1309.6211,2678.5,1305.6211" style="stroke:#181818;stroke-width:1.0;"/><text fill="#000000" font-family="sans-serif" font-size="13" font-weight="bold" lengthAdjust="spacing" textLength="14" x="2678.5" y="1287.3584">27</text><text fill="#000000" font-family="sans-serif" font-size="13" lengthAdjust="spacing" textLength="101" x="2696.5" y="1287.3584">actuator.identity()</text><polygon fill="#181818" points="3414,1332.9121,3424,1336.9121,3414,1340.9121,3418,1336.9121" style="stroke:#181818;stroke-width:1.0;"/><line style="stroke:#181818;stroke-width:1.0;" x1="2671.5" x2="3420" y1="1336.9121" y2="1336.9121"/><text fill="#000000" font-family="sans-serif" font-size="13" font-weight="bold" lengthAdjust="spacing" textLength="14" x="2678.5" y="1331.6494">28</text><text fill="#000000" font-family="sans-serif" font-size="13" lengthAdjust="spacing" textLength="243" x="2696.5" y="1331.6494">containsEntityByID(ActuatorID actuatorID)</text><polygon fill="#181818" points="2682.5,1364.2031,2672.5,1368.2031,2682.5,1372.2031,2678.5,1368.2031" style="stroke:#181818;stroke-width:1.0;"/><line style="stroke:#181818;stroke-width:1.0;stroke-dasharray:2.0,2.0;" x1="2676.5" x2="3425" y1="1368.2031" y2="1368.2031"/><text fill="#000000" font-family="sans-serif" font-size="13" font-weight="bold" lengthAdjust="spacing" textLength="14" x="2688.5" y="1362.9404">29</text><text fill="#000000" font-family="sans-serif" font-size="13" lengthAdjust="spacing" textLength="27" x="2706.5" y="1362.9404">false</text><polygon fill="#181818" points="3414,1395.4941,3424,1399.4941,3414,1403.4941,3418,1399.4941" style="stroke:#181818;stroke-width:1.0;"/><line style="stroke:#181818;stroke-width:1.0;" x1="2671.5" x2="3420" y1="1399.4941" y2="1399.4941"/><text fill="#000000" font-family="sans-serif" font-size="13" font-weight="bold" lengthAdjust="spacing" textLength="14" x="2678.5" y="1394.2314">30</text><text fill="#000000" font-family="sans-serif" font-size="13" lengthAdjust="spacing" textLength="189" x="2696.5" y="1394.2314">updateOrSave(Actuator actuator)</text><polygon fill="#181818" points="2682.5,1426.7852,2672.5,1430.7852,2682.5,1434.7852,2678.5,1430.7852" style="stroke:#181818;stroke-width:1.0;"/><line style="stroke:#181818;stroke-width:1.0;stroke-dasharray:2.0,2.0;" x1="2676.5" x2="3430" y1="1430.7852" y2="1430.7852"/><text fill="#000000" font-family="sans-serif" font-size="13" font-weight="bold" lengthAdjust="spacing" textLength="14" x="2688.5" y="1425.5225">31</text><text fill="#000000" font-family="sans-serif" font-size="13" lengthAdjust="spacing" textLength="49" x="2706.5" y="1425.5225">Actuator</text><path d="M3,1445.7852 L64,1445.7852 L64,1455.0762 L54,1465.0762 L3,1465.0762 L3,1445.7852 " fill="#EEEEEE" style="stroke:#000000;stroke-width:1.5;"/><rect fill="none" height="81.873" style="stroke:#000000;stroke-width:1.5;" width="2732.5" x="3" y="1445.7852"/><text fill="#000000" font-family="sans-serif" font-size="13" font-weight="bold" lengthAdjust="spacing" textLength="16" x="18" y="1460.8135">alt</text><text fill="#000000" font-family="sans-serif" font-size="11" font-weight="bold" lengthAdjust="spacing" textLength="210" x="79" y="1459.6553">[if Actuator was sucessufully created]</text><polygon fill="#181818" points="590,1484.3672,580,1488.3672,590,1492.3672,586,1488.3672" style="stroke:#181818;stroke-width:1.0;"/><line style="stroke:#181818;stroke-width:1.0;stroke-dasharray:2.0,2.0;" x1="584" x2="2665.5" y1="1488.3672" y2="1488.3672"/><text fill="#000000" font-family="sans-serif" font-size="13" font-weight="bold" lengthAdjust="spacing" textLength="14" x="596" y="1483.1045">32</text><text fill="#000000" font-family="sans-serif" font-size="13" lengthAdjust="spacing" textLength="22" x="614" y="1483.1045">true</text><polygon fill="#181818" points="11,1515.6582,1,1519.6582,11,1523.6582,7,1519.6582" style="stroke:#181818;stroke-width:1.0;"/><line style="stroke:#181818;stroke-width:1.0;stroke-dasharray:2.0,2.0;" x1="5" x2="563" y1="1519.6582" y2="1519.6582"/><text fill="#000000" font-family="sans-serif" font-size="13" font-weight="bold" lengthAdjust="spacing" textLength="14" x="17" y="1514.3955">33</text><text fill="#000000" font-family="sans-serif" font-size="13" lengthAdjust="spacing" textLength="22" x="35" y="1514.3955">true</text><!--SRC=[hLTBR-Cs4BxhLmnosMIn2NhgmKWCgBQy4P2r0aak-jWU68jEMCYaAb9EtL_VeKHPByehjtj9nE5mvkCylg59eGGlzYyqTnp5L4hXofL0u5cyqnms4l_yBd9maptZJAgSA97_yGbyU2TSWH90aWJLoLOLUgkKSA1_eoxZhv3G0zjIO1nrSY7sTn2_KP2KIzJT5rB12mMnmzszI6XQVhQEgsDMRHlpTrUEav5SiItBjF-hcPiaQ_hkclrOB4k72y5LBjAKvbT093JB_cbpRbNmhMA2avIfOqHpRQCyQTkOOkCBoJBZt2AVOY6acP0CfSUX5RtNjV56vDkUP5PBopXOYZrXVFQLFw8UOhWVK_m4rfrvYG4TTAHJhe4sX_XHs3rRbOb4kSkJAeLoLcEjrYMuwlE4fbhsO5J2TX8xaX7GRVsUh7TYXSM8MQcLgjjLiX7R7QCZEhrqjyMEyo7o5h4Vh64LXF3PYsD__HdYHm-U_2Y6O0LX47o9m5-32u_19lB0NIzXwVtiBpmZrXhExRpL2ZDufIh4ddp2Phk-SV0Ax40KRNTBJdSW3iW1BTac-k77YFvLK8v9OUGr9tk7yWHGrxc_lUruqAQR_CsT3nxYCfVfNIlquj17n7Wp3Txx9VR2jVla_wObzJrNctLv0kMnxqNEmmE4LEMC7YZoHeB4eMYkQ-mV2YdwRdE7X5sh1XcLyF1WYOY67EpS0s4fUKbfdOYH03MVWAPiR54QjRP6F-vMhh491wugLXdtXFkZZWmZMMG3DxeOPx1ZF77JrEEgZEAeuR9q1nAu7GFlO-fqnEtSD7SIEjLF3HyzzIdhuySPtDzlSufcv7pUG1zmcvCAaS4EnnJwVJirPDUt7cmrxaaXn2xeGx0Sim2VGLQewp6AFHNvaC-_SZkbsu_SjCCyY8bkSnsMqN1R6s3IR1fDhwq-JttGQz__vwbkEHk9mUZ4x1HcYndEKDqYzDoImbrm5_76ZODGCzcYB8ccqiJBdtIhoX8ayCeEb9j9PY6kgfpgepX48tAWFc-codyidGZ95TzXjSwQx6dpH7ZE1QQcf58o4DN3Mhj8wgyf97gQwoMVNP-tqZm2Jb-3gZ0AtS8sme7hNjDf11T7xkOChVG50xHMRsUxidk7tkDbf3IkB-24xrG89d-juFJVMRsrzJQLaJicNMs5ulIvv5H2zTGwNdIgwQ6xBKOQ6KIMi-_uqz5VclBqbqRPNqupRGtqD_2PHsO_e_PK8Y9Ybt-dT7Qkt12gUGYR_-sx3-PUhMABp-crt2PhO_iCiqPkzO0qhAgVlg7t74G-BdwzA34JQwLw4bdgebPevQ4JgCu3lxsmnsD7Kac_3QJ84ZGUv9qMFm6ucU385lWELf8gOBjcIhtZhnLPuEyrMUoAD3sQwao6O7j4f_A2shoCZU5I7ryWK-Rjlm00]--></g></svg>