<?xml version="1.0" encoding="us-ascii" standalone="no"?><svg xmlns="http://www.w3.org/2000/svg" xmlns:xlink="http://www.w3.org/1999/xlink" contentStyleType="text/css" height="1632px" preserveAspectRatio="none" style="width:2363px;height:1632px;background:#FFFFFF;" version="1.1" viewBox="0 0 2363 1632" width="2363px" zoomAndPan="magnify"><defs/><g><text fill="#000000" font-family="sans-serif" font-size="14" font-weight="bold" lengthAdjust="spacing" textLength="1125" x="612.25" y="25.1074">US12: As a Power User [or Administrator], I want to add an actuator to an existing device in a room. The sensor must be of a model of an existing type of actuator.</text><!--class AddNewActuatorToDeviceController--><g id="elem_AddNewActuatorToDeviceController"><rect codeLine="4" fill="#F1F1F1" height="215.5898" id="AddNewActuatorToDeviceController" rx="2.5" ry="2.5" style="stroke:#181818;stroke-width:0.5;" width="470" x="542" y="55.6211"/><ellipse cx="659.75" cy="71.6211" fill="#ADD1B2" rx="11" ry="11" style="stroke:#181818;stroke-width:1.0;"/><path d="M662.5156,67.4961 Q662.6719,67.2773 662.8594,67.168 Q663.0469,67.0586 663.2656,67.0586 Q663.6406,67.0586 663.875,67.3242 Q664.1094,67.5742 664.1094,68.1836 L664.1094,69.6367 Q664.1094,70.2461 663.875,70.5117 Q663.6406,70.7773 663.2656,70.7773 Q662.9219,70.7773 662.7188,70.5742 Q662.5156,70.3867 662.4063,69.8711 Q662.3594,69.5117 662.1719,69.3242 Q661.8438,68.9492 661.2344,68.7305 Q660.625,68.5117 660,68.5117 Q659.2344,68.5117 658.5938,68.8398 Q657.9688,69.168 657.4688,69.918 Q656.9844,70.668 656.9844,71.6992 L656.9844,72.793 Q656.9844,74.0273 657.875,74.8555 Q658.7656,75.668 660.3594,75.668 Q661.2969,75.668 661.9531,75.418 Q662.3438,75.2617 662.7656,74.8242 Q663.0313,74.5586 663.1719,74.4805 Q663.3281,74.4023 663.5313,74.4023 Q663.8594,74.4023 664.1094,74.668 Q664.375,74.918 664.375,75.2617 Q664.375,75.6055 664.0313,76.0117 Q663.5313,76.5898 662.7344,76.918 Q661.6563,77.3711 660.3594,77.3711 Q658.8438,77.3711 657.6406,76.7461 Q656.6563,76.2461 655.9688,75.1836 Q655.2813,74.1055 655.2813,72.8242 L655.2813,71.668 Q655.2813,70.3398 655.8906,69.1992 Q656.5156,68.043 657.6094,67.4336 Q658.7031,66.8086 659.9375,66.8086 Q660.6719,66.8086 661.3125,66.9805 Q661.9688,67.1367 662.5156,67.4961 Z " fill="#000000"/><text fill="#000000" font-family="sans-serif" font-size="14" lengthAdjust="spacing" textLength="226" x="680.25" y="77.418">AddNewActuatorToDeviceController</text><line style="stroke:#181818;stroke-width:0.5;" x1="543" x2="1011" y1="87.6211" y2="87.6211"/><rect fill="none" height="6" style="stroke:#C82930;stroke-width:1.0;" width="6" x="550" y="99.4316"/><text fill="#000000" font-family="sans-serif" font-size="14" lengthAdjust="spacing" textLength="87" x="562" y="106.7285">house: House</text><rect fill="none" height="6" style="stroke:#C82930;stroke-width:1.0;" width="6" x="550" y="118.0527"/><text fill="#000000" font-family="sans-serif" font-size="14" lengthAdjust="spacing" textLength="243" x="562" y="125.3496">actuatorCatalogue: ActuatorCatalogue</text><rect fill="none" height="6" style="stroke:#C82930;stroke-width:1.0;" width="6" x="550" y="136.6738"/><text fill="#000000" font-family="sans-serif" font-size="14" lengthAdjust="spacing" textLength="301" x="562" y="143.9707">Map&lt;RoomDTO, Room&gt; roomsDTOAndRooms;</text><rect fill="none" height="6" style="stroke:#C82930;stroke-width:1.0;" width="6" x="550" y="155.2949"/><text fill="#000000" font-family="sans-serif" font-size="14" lengthAdjust="spacing" textLength="328" x="562" y="162.5918">Map&lt;DeviceDTO, Device&gt; devicesDTOAndDevices;</text><line style="stroke:#181818;stroke-width:0.5;" x1="543" x2="1011" y1="170.1055" y2="170.1055"/><ellipse cx="553" cy="184.916" fill="#84BE84" rx="3" ry="3" style="stroke:#038048;stroke-width:1.0;"/><text fill="#000000" font-family="sans-serif" font-size="14" lengthAdjust="spacing" textLength="232" x="562" y="189.2129">getRoomListDTO(): List&lt;RoomDTO&gt;</text><ellipse cx="553" cy="203.5371" fill="#84BE84" rx="3" ry="3" style="stroke:#038048;stroke-width:1.0;"/><text fill="#000000" font-family="sans-serif" font-size="14" lengthAdjust="spacing" textLength="377" x="562" y="207.834">getDeviceListDTO(RoomDTO roomDTO): List&lt;DeviceDTO&gt;</text><ellipse cx="553" cy="222.1582" fill="#84BE84" rx="3" ry="3" style="stroke:#038048;stroke-width:1.0;"/><text fill="#000000" font-family="sans-serif" font-size="14" lengthAdjust="spacing" textLength="345" x="562" y="226.4551">getCatalogueOfAvailableSensorClasses(): List&lt;String&gt;</text><ellipse cx="553" cy="250.0898" fill="#84BE84" rx="3" ry="3" style="stroke:#038048;stroke-width:1.0;"/><text fill="#000000" font-family="sans-serif" font-size="14" lengthAdjust="spacing" textLength="426" x="562" y="245.0762">addActuatorToDevice(DeviceDTO deviceDTO,String actuatorClass,</text><text fill="#000000" font-family="sans-serif" font-size="14" lengthAdjust="spacing" textLength="440" x="566" y="263.6973">String actuatorName, ActuatorProperties actuatorProperties): boolean</text></g><!--class DeviceDTO--><g id="elem_DeviceDTO"><rect codeLine="15" fill="#F1F1F1" height="85.2422" id="DeviceDTO" rx="2.5" ry="2.5" style="stroke:#181818;stroke-width:0.5;" width="180" x="293" y="636.1211"/><ellipse cx="342.25" cy="652.1211" fill="#ADD1B2" rx="11" ry="11" style="stroke:#181818;stroke-width:1.0;"/><path d="M345.0156,647.9961 Q345.1719,647.7773 345.3594,647.668 Q345.5469,647.5586 345.7656,647.5586 Q346.1406,647.5586 346.375,647.8242 Q346.6094,648.0742 346.6094,648.6836 L346.6094,650.1367 Q346.6094,650.7461 346.375,651.0117 Q346.1406,651.2773 345.7656,651.2773 Q345.4219,651.2773 345.2188,651.0742 Q345.0156,650.8867 344.9063,650.3711 Q344.8594,650.0117 344.6719,649.8242 Q344.3438,649.4492 343.7344,649.2305 Q343.125,649.0117 342.5,649.0117 Q341.7344,649.0117 341.0938,649.3398 Q340.4688,649.668 339.9688,650.418 Q339.4844,651.168 339.4844,652.1992 L339.4844,653.293 Q339.4844,654.5273 340.375,655.3555 Q341.2656,656.168 342.8594,656.168 Q343.7969,656.168 344.4531,655.918 Q344.8438,655.7617 345.2656,655.3242 Q345.5313,655.0586 345.6719,654.9805 Q345.8281,654.9023 346.0313,654.9023 Q346.3594,654.9023 346.6094,655.168 Q346.875,655.418 346.875,655.7617 Q346.875,656.1055 346.5313,656.5117 Q346.0313,657.0898 345.2344,657.418 Q344.1563,657.8711 342.8594,657.8711 Q341.3438,657.8711 340.1406,657.2461 Q339.1563,656.7461 338.4688,655.6836 Q337.7813,654.6055 337.7813,653.3242 L337.7813,652.168 Q337.7813,650.8398 338.3906,649.6992 Q339.0156,648.543 340.1094,647.9336 Q341.2031,647.3086 342.4375,647.3086 Q343.1719,647.3086 343.8125,647.4805 Q344.4688,647.6367 345.0156,647.9961 Z " fill="#000000"/><text fill="#000000" font-family="sans-serif" font-size="14" lengthAdjust="spacing" textLength="73" x="362.75" y="657.918">DeviceDTO</text><line style="stroke:#181818;stroke-width:0.5;" x1="294" x2="472" y1="668.1211" y2="668.1211"/><rect fill="none" height="6" style="stroke:#C82930;stroke-width:1.0;" width="6" x="301" y="679.9316"/><text fill="#000000" font-family="sans-serif" font-size="14" lengthAdjust="spacing" textLength="122" x="313" y="687.2285">deviceName: String</text><line style="stroke:#181818;stroke-width:0.5;" x1="294" x2="472" y1="694.7422" y2="694.7422"/><ellipse cx="304" cy="709.5527" fill="#84BE84" rx="3" ry="3" style="stroke:#038048;stroke-width:1.0;"/><text fill="#000000" font-family="sans-serif" font-size="14" lengthAdjust="spacing" textLength="154" x="313" y="713.8496">getDeviceName(): String</text></g><!--class House--><g id="elem_House"><rect codeLine="20" fill="#F1F1F1" height="103.8633" id="House" rx="2.5" ry="2.5" style="stroke:#181818;stroke-width:0.5;" width="182" x="863" y="387.6211"/><ellipse cx="929.75" cy="403.6211" fill="#ADD1B2" rx="11" ry="11" style="stroke:#181818;stroke-width:1.0;"/><path d="M932.5156,399.4961 Q932.6719,399.2773 932.8594,399.168 Q933.0469,399.0586 933.2656,399.0586 Q933.6406,399.0586 933.875,399.3242 Q934.1094,399.5742 934.1094,400.1836 L934.1094,401.6367 Q934.1094,402.2461 933.875,402.5117 Q933.6406,402.7773 933.2656,402.7773 Q932.9219,402.7773 932.7188,402.5742 Q932.5156,402.3867 932.4063,401.8711 Q932.3594,401.5117 932.1719,401.3242 Q931.8438,400.9492 931.2344,400.7305 Q930.625,400.5117 930,400.5117 Q929.2344,400.5117 928.5938,400.8398 Q927.9688,401.168 927.4688,401.918 Q926.9844,402.668 926.9844,403.6992 L926.9844,404.793 Q926.9844,406.0273 927.875,406.8555 Q928.7656,407.668 930.3594,407.668 Q931.2969,407.668 931.9531,407.418 Q932.3438,407.2617 932.7656,406.8242 Q933.0313,406.5586 933.1719,406.4805 Q933.3281,406.4023 933.5313,406.4023 Q933.8594,406.4023 934.1094,406.668 Q934.375,406.918 934.375,407.2617 Q934.375,407.6055 934.0313,408.0117 Q933.5313,408.5898 932.7344,408.918 Q931.6563,409.3711 930.3594,409.3711 Q928.8438,409.3711 927.6406,408.7461 Q926.6563,408.2461 925.9688,407.1836 Q925.2813,406.1055 925.2813,404.8242 L925.2813,403.668 Q925.2813,402.3398 925.8906,401.1992 Q926.5156,400.043 927.6094,399.4336 Q928.7031,398.8086 929.9375,398.8086 Q930.6719,398.8086 931.3125,398.9805 Q931.9688,399.1367 932.5156,399.4961 Z " fill="#000000"/><text fill="#000000" font-family="sans-serif" font-size="14" lengthAdjust="spacing" textLength="40" x="950.25" y="409.418">House</text><line style="stroke:#181818;stroke-width:0.5;" x1="864" x2="1044" y1="419.6211" y2="419.6211"/><rect fill="none" height="6" style="stroke:#C82930;stroke-width:1.0;" width="6" x="871" y="431.4316"/><text fill="#000000" font-family="sans-serif" font-size="14" lengthAdjust="spacing" textLength="111" x="883" y="438.7285">location: Location</text><rect fill="none" height="6" style="stroke:#C82930;stroke-width:1.0;" width="6" x="871" y="450.0527"/><text fill="#000000" font-family="sans-serif" font-size="14" lengthAdjust="spacing" textLength="121" x="883" y="457.3496">roomList: RoomList</text><line style="stroke:#181818;stroke-width:0.5;" x1="864" x2="1044" y1="464.8633" y2="464.8633"/><ellipse cx="874" cy="479.6738" fill="#84BE84" rx="3" ry="3" style="stroke:#038048;stroke-width:1.0;"/><text fill="#000000" font-family="sans-serif" font-size="14" lengthAdjust="spacing" textLength="156" x="883" y="483.9707">getRoomList(): RoomList</text></g><!--class Room--><g id="elem_Room"><rect codeLine="26" fill="#F1F1F1" height="141.1055" id="Room" rx="2.5" ry="2.5" style="stroke:#181818;stroke-width:0.5;" width="194" x="7" y="369.1211"/><ellipse cx="81.25" cy="385.1211" fill="#ADD1B2" rx="11" ry="11" style="stroke:#181818;stroke-width:1.0;"/><path d="M84.0156,380.9961 Q84.1719,380.7773 84.3594,380.668 Q84.5469,380.5586 84.7656,380.5586 Q85.1406,380.5586 85.375,380.8242 Q85.6094,381.0742 85.6094,381.6836 L85.6094,383.1367 Q85.6094,383.7461 85.375,384.0117 Q85.1406,384.2773 84.7656,384.2773 Q84.4219,384.2773 84.2188,384.0742 Q84.0156,383.8867 83.9063,383.3711 Q83.8594,383.0117 83.6719,382.8242 Q83.3438,382.4492 82.7344,382.2305 Q82.125,382.0117 81.5,382.0117 Q80.7344,382.0117 80.0938,382.3398 Q79.4688,382.668 78.9688,383.418 Q78.4844,384.168 78.4844,385.1992 L78.4844,386.293 Q78.4844,387.5273 79.375,388.3555 Q80.2656,389.168 81.8594,389.168 Q82.7969,389.168 83.4531,388.918 Q83.8438,388.7617 84.2656,388.3242 Q84.5313,388.0586 84.6719,387.9805 Q84.8281,387.9023 85.0313,387.9023 Q85.3594,387.9023 85.6094,388.168 Q85.875,388.418 85.875,388.7617 Q85.875,389.1055 85.5313,389.5117 Q85.0313,390.0898 84.2344,390.418 Q83.1563,390.8711 81.8594,390.8711 Q80.3438,390.8711 79.1406,390.2461 Q78.1563,389.7461 77.4688,388.6836 Q76.7813,387.6055 76.7813,386.3242 L76.7813,385.168 Q76.7813,383.8398 77.3906,382.6992 Q78.0156,381.543 79.1094,380.9336 Q80.2031,380.3086 81.4375,380.3086 Q82.1719,380.3086 82.8125,380.4805 Q83.4688,380.6367 84.0156,380.9961 Z " fill="#000000"/><text fill="#000000" font-family="sans-serif" font-size="14" lengthAdjust="spacing" textLength="37" x="101.75" y="390.918">Room</text><line style="stroke:#181818;stroke-width:0.5;" x1="8" x2="200" y1="401.1211" y2="401.1211"/><rect fill="none" height="6" style="stroke:#C82930;stroke-width:1.0;" width="6" x="15" y="412.9316"/><text fill="#000000" font-family="sans-serif" font-size="14" lengthAdjust="spacing" textLength="113" x="27" y="420.2285">roomName: String</text><rect fill="none" height="6" style="stroke:#C82930;stroke-width:1.0;" width="6" x="15" y="431.5527"/><text fill="#000000" font-family="sans-serif" font-size="14" lengthAdjust="spacing" textLength="100" x="27" y="438.8496">floorNumber: int</text><rect fill="none" height="6" style="stroke:#C82930;stroke-width:1.0;" width="6" x="15" y="450.1738"/><text fill="#000000" font-family="sans-serif" font-size="14" lengthAdjust="spacing" textLength="152" x="27" y="457.4707">dimensions: Dimensions</text><rect fill="none" height="6" style="stroke:#C82930;stroke-width:1.0;" width="6" x="15" y="468.7949"/><text fill="#000000" font-family="sans-serif" font-size="14" lengthAdjust="spacing" textLength="136" x="27" y="476.0918">deviceList: DeviceList</text><line style="stroke:#181818;stroke-width:0.5;" x1="8" x2="200" y1="483.6055" y2="483.6055"/><ellipse cx="18" cy="498.416" fill="#84BE84" rx="3" ry="3" style="stroke:#038048;stroke-width:1.0;"/><text fill="#000000" font-family="sans-serif" font-size="14" lengthAdjust="spacing" textLength="168" x="27" y="502.7129">getDeviceList(): DeviceList</text></g><!--class Device--><g id="elem_Device"><rect codeLine="34" fill="#F1F1F1" height="234.2109" id="Device" rx="2.5" ry="2.5" style="stroke:#181818;stroke-width:0.5;" width="371" x="1128.5" y="46.6211"/><ellipse cx="1288.25" cy="62.6211" fill="#ADD1B2" rx="11" ry="11" style="stroke:#181818;stroke-width:1.0;"/><path d="M1291.0156,58.4961 Q1291.1719,58.2773 1291.3594,58.168 Q1291.5469,58.0586 1291.7656,58.0586 Q1292.1406,58.0586 1292.375,58.3242 Q1292.6094,58.5742 1292.6094,59.1836 L1292.6094,60.6367 Q1292.6094,61.2461 1292.375,61.5117 Q1292.1406,61.7773 1291.7656,61.7773 Q1291.4219,61.7773 1291.2188,61.5742 Q1291.0156,61.3867 1290.9063,60.8711 Q1290.8594,60.5117 1290.6719,60.3242 Q1290.3438,59.9492 1289.7344,59.7305 Q1289.125,59.5117 1288.5,59.5117 Q1287.7344,59.5117 1287.0938,59.8398 Q1286.4688,60.168 1285.9688,60.918 Q1285.4844,61.668 1285.4844,62.6992 L1285.4844,63.793 Q1285.4844,65.0273 1286.375,65.8555 Q1287.2656,66.668 1288.8594,66.668 Q1289.7969,66.668 1290.4531,66.418 Q1290.8438,66.2617 1291.2656,65.8242 Q1291.5313,65.5586 1291.6719,65.4805 Q1291.8281,65.4023 1292.0313,65.4023 Q1292.3594,65.4023 1292.6094,65.668 Q1292.875,65.918 1292.875,66.2617 Q1292.875,66.6055 1292.5313,67.0117 Q1292.0313,67.5898 1291.2344,67.918 Q1290.1563,68.3711 1288.8594,68.3711 Q1287.3438,68.3711 1286.1406,67.7461 Q1285.1563,67.2461 1284.4688,66.1836 Q1283.7813,65.1055 1283.7813,63.8242 L1283.7813,62.668 Q1283.7813,61.3398 1284.3906,60.1992 Q1285.0156,59.043 1286.1094,58.4336 Q1287.2031,57.8086 1288.4375,57.8086 Q1289.1719,57.8086 1289.8125,57.9805 Q1290.4688,58.1367 1291.0156,58.4961 Z " fill="#000000"/><text fill="#000000" font-family="sans-serif" font-size="14" lengthAdjust="spacing" textLength="43" x="1308.75" y="68.418">Device</text><line style="stroke:#181818;stroke-width:0.5;" x1="1129.5" x2="1498.5" y1="78.6211" y2="78.6211"/><rect fill="none" height="6" style="stroke:#C82930;stroke-width:1.0;" width="6" x="1136.5" y="90.4316"/><text fill="#000000" font-family="sans-serif" font-size="14" lengthAdjust="spacing" textLength="122" x="1148.5" y="97.7285">deviceName: String</text><rect fill="none" height="6" style="stroke:#C82930;stroke-width:1.0;" width="6" x="1136.5" y="109.0527"/><text fill="#000000" font-family="sans-serif" font-size="14" lengthAdjust="spacing" textLength="124" x="1148.5" y="116.3496">deviceModel: String</text><rect fill="none" height="6" style="stroke:#C82930;stroke-width:1.0;" width="6" x="1136.5" y="127.6738"/><text fill="#000000" font-family="sans-serif" font-size="14" lengthAdjust="spacing" textLength="156" x="1148.5" y="134.9707">sensorList: List&lt;Sensor&gt;</text><rect fill="none" height="6" style="stroke:#C82930;stroke-width:1.0;" width="6" x="1136.5" y="146.2949"/><text fill="#000000" font-family="sans-serif" font-size="14" lengthAdjust="spacing" textLength="173" x="1148.5" y="153.5918">actuatorList: List&lt;Actuator&gt;</text><rect fill="none" height="6" style="stroke:#C82930;stroke-width:1.0;" width="6" x="1136.5" y="164.916"/><text fill="#000000" font-family="sans-serif" font-size="14" lengthAdjust="spacing" textLength="86" x="1148.5" y="172.2129">status: Status</text><line style="stroke:#181818;stroke-width:0.5;" x1="1129.5" x2="1498.5" y1="179.7266" y2="179.7266"/><ellipse cx="1139.5" cy="194.5371" fill="#84BE84" rx="3" ry="3" style="stroke:#038048;stroke-width:1.0;"/><text fill="#000000" font-family="sans-serif" font-size="14" lengthAdjust="spacing" textLength="204" x="1148.5" y="198.834">getActuatorList(): List&lt;Actuator&gt;</text><ellipse cx="1139.5" cy="231.7793" fill="#84BE84" rx="3" ry="3" style="stroke:#038048;stroke-width:1.0;"/><text fill="#000000" font-family="sans-serif" font-size="14" lengthAdjust="spacing" textLength="341" x="1148.5" y="217.4551">createActuatorAndAddToDevice(String actuatorName,</text><text fill="#000000" font-family="sans-serif" font-size="14" lengthAdjust="spacing" textLength="243" x="1148.5" y="236.0762">ActuatorCatalogue actuatorCatalogue,</text><text fill="#000000" font-family="sans-serif" font-size="14" lengthAdjust="spacing" textLength="305" x="1148.5" y="254.6973">ActuatorProperties actuatorProperties): Actuator</text><rect fill="#F24D5C" height="6" style="stroke:#C82930;stroke-width:1.0;" width="6" x="1136.5" y="266.0215"/><text fill="#000000" font-family="sans-serif" font-size="14" lengthAdjust="spacing" textLength="294" x="1148.5" y="273.3184">isActuatorInList(String actuatorName): boolean</text></g><!--class Actuator--><g id="elem_Actuator"><rect codeLine="45" fill="#F1F1F1" height="85.2422" id="Actuator" rx="2.5" ry="2.5" style="stroke:#181818;stroke-width:0.5;" width="330" x="1583" y="397.1211"/><ellipse cx="1717.25" cy="413.1211" fill="#B4A7E5" rx="11" ry="11" style="stroke:#181818;stroke-width:1.0;"/><path d="M1718.2031,409.7617 L1718.2031,416.418 L1719.9219,416.418 Q1720.5313,416.418 1720.7969,416.6523 Q1721.0625,416.8867 1721.0625,417.2773 Q1721.0625,417.6523 1720.7969,417.8867 Q1720.5313,418.1211 1719.9219,418.1211 L1714.7813,418.1211 Q1714.1719,418.1211 1713.9063,417.8867 Q1713.6406,417.6523 1713.6406,417.2617 Q1713.6406,416.8867 1713.9063,416.6523 Q1714.1719,416.418 1714.7813,416.418 L1716.5,416.418 L1716.5,409.7617 L1714.7813,409.7617 Q1714.1719,409.7617 1713.9063,409.5273 Q1713.6406,409.293 1713.6406,408.9023 Q1713.6406,408.5273 1713.9063,408.293 Q1714.1719,408.0586 1714.7813,408.0586 L1719.9219,408.0586 Q1720.5313,408.0586 1720.7969,408.293 Q1721.0625,408.5273 1721.0625,408.9023 Q1721.0625,409.293 1720.7969,409.5273 Q1720.5313,409.7617 1719.9219,409.7617 L1718.2031,409.7617 Z " fill="#000000"/><text fill="#000000" font-family="sans-serif" font-size="14" font-style="italic" lengthAdjust="spacing" textLength="53" x="1737.75" y="418.918">Actuator</text><line style="stroke:#181818;stroke-width:0.5;" x1="1584" x2="1912" y1="429.1211" y2="429.1211"/><line style="stroke:#181818;stroke-width:0.5;" x1="1584" x2="1912" y1="437.1211" y2="437.1211"/><ellipse cx="1594" cy="451.9316" fill="#84BE84" rx="3" ry="3" style="stroke:#038048;stroke-width:1.0;"/><text fill="#000000" font-family="sans-serif" font-size="14" lengthAdjust="spacing" textLength="164" x="1603" y="456.2285">getActuatorName(): String</text><ellipse cx="1594" cy="470.5527" fill="#84BE84" rx="3" ry="3" style="stroke:#038048;stroke-width:1.0;"/><text fill="#000000" font-family="sans-serif" font-size="14" lengthAdjust="spacing" textLength="304" x="1603" y="474.8496">getActuatorFunctionality(): ActuatorFunctionality</text></g><!--class ActuatorFunctionality--><g id="elem_ActuatorFunctionality"><rect codeLine="50" fill="#F1F1F1" height="122.4844" id="ActuatorFunctionality" rx="2.5" ry="2.5" style="stroke:#181818;stroke-width:0.5;" width="173" x="1468.5" y="1502.6211"/><ellipse cx="1487.1" cy="1518.6211" fill="#EB937F" rx="11" ry="11" style="stroke:#181818;stroke-width:1.0;"/><path d="M1485.9594,1519.418 L1485.9594,1521.918 L1490.2875,1521.918 L1490.2875,1520.9961 Q1490.2875,1520.3867 1490.5219,1520.1211 Q1490.7719,1519.8555 1491.1469,1519.8555 Q1491.5219,1519.8555 1491.7563,1520.1211 Q1491.9906,1520.3867 1491.9906,1520.9961 L1491.9906,1523.6211 L1483.9906,1523.6211 Q1483.3656,1523.6211 1483.1,1523.3867 Q1482.85,1523.1523 1482.85,1522.7617 Q1482.85,1522.3867 1483.1156,1522.1523 Q1483.3813,1521.918 1483.9906,1521.918 L1484.2563,1521.918 L1484.2563,1515.2617 L1483.9906,1515.2617 Q1483.3656,1515.2617 1483.1,1515.0273 Q1482.85,1514.793 1482.85,1514.4023 Q1482.85,1514.0273 1483.1,1513.793 Q1483.3656,1513.5586 1483.9906,1513.5586 L1491.6156,1513.5586 L1491.6156,1516.1523 Q1491.6156,1516.7617 1491.3813,1517.0273 Q1491.1625,1517.2773 1490.7719,1517.2773 Q1490.3969,1517.2773 1490.1625,1517.0273 Q1489.9281,1516.7617 1489.9281,1516.1523 L1489.9281,1515.2617 L1485.9594,1515.2617 L1485.9594,1517.7148 L1487.4438,1517.7148 Q1487.4438,1517.0586 1487.5688,1516.8711 Q1487.8344,1516.4648 1488.3031,1516.4648 Q1488.6781,1516.4648 1488.9125,1516.7305 Q1489.1469,1516.9805 1489.1469,1517.5898 L1489.1469,1519.5586 Q1489.1469,1520.1055 1489.0219,1520.293 Q1488.7563,1520.6836 1488.3031,1520.6836 Q1487.8344,1520.6836 1487.5688,1520.2773 Q1487.4438,1520.0898 1487.4438,1519.418 L1485.9594,1519.418 Z " fill="#000000"/><text fill="#000000" font-family="sans-serif" font-size="14" lengthAdjust="spacing" textLength="133" x="1501.9" y="1524.418">ActuatorFunctionality</text><line style="stroke:#181818;stroke-width:0.5;" x1="1469.5" x2="1640.5" y1="1534.6211" y2="1534.6211"/><text fill="#000000" font-family="sans-serif" font-size="14" lengthAdjust="spacing" textLength="114" x="1474.5" y="1553.7285">BINARY_SWITCH,</text><text fill="#000000" font-family="sans-serif" font-size="14" lengthAdjust="spacing" textLength="161" x="1474.5" y="1572.3496">PERCENTAGE_SETTER,</text><text fill="#000000" font-family="sans-serif" font-size="14" lengthAdjust="spacing" textLength="127" x="1474.5" y="1590.9707">INTEGER_SETTER,</text><text fill="#000000" font-family="sans-serif" font-size="14" lengthAdjust="spacing" textLength="123" x="1474.5" y="1609.5918">DECIMAL_SETTER</text><line style="stroke:#181818;stroke-width:0.5;" x1="1469.5" x2="1640.5" y1="1617.1055" y2="1617.1055"/></g><!--class ActuatorCatalogue--><g id="elem_ActuatorCatalogue"><rect codeLine="57" fill="#F1F1F1" height="159.7266" id="ActuatorCatalogue" rx="2.5" ry="2.5" style="stroke:#181818;stroke-width:0.5;" width="468" x="1080" y="359.6211"/><ellipse cx="1250.75" cy="375.6211" fill="#ADD1B2" rx="11" ry="11" style="stroke:#181818;stroke-width:1.0;"/><path d="M1253.5156,371.4961 Q1253.6719,371.2773 1253.8594,371.168 Q1254.0469,371.0586 1254.2656,371.0586 Q1254.6406,371.0586 1254.875,371.3242 Q1255.1094,371.5742 1255.1094,372.1836 L1255.1094,373.6367 Q1255.1094,374.2461 1254.875,374.5117 Q1254.6406,374.7773 1254.2656,374.7773 Q1253.9219,374.7773 1253.7188,374.5742 Q1253.5156,374.3867 1253.4063,373.8711 Q1253.3594,373.5117 1253.1719,373.3242 Q1252.8438,372.9492 1252.2344,372.7305 Q1251.625,372.5117 1251,372.5117 Q1250.2344,372.5117 1249.5938,372.8398 Q1248.9688,373.168 1248.4688,373.918 Q1247.9844,374.668 1247.9844,375.6992 L1247.9844,376.793 Q1247.9844,378.0273 1248.875,378.8555 Q1249.7656,379.668 1251.3594,379.668 Q1252.2969,379.668 1252.9531,379.418 Q1253.3438,379.2617 1253.7656,378.8242 Q1254.0313,378.5586 1254.1719,378.4805 Q1254.3281,378.4023 1254.5313,378.4023 Q1254.8594,378.4023 1255.1094,378.668 Q1255.375,378.918 1255.375,379.2617 Q1255.375,379.6055 1255.0313,380.0117 Q1254.5313,380.5898 1253.7344,380.918 Q1252.6563,381.3711 1251.3594,381.3711 Q1249.8438,381.3711 1248.6406,380.7461 Q1247.6563,380.2461 1246.9688,379.1836 Q1246.2813,378.1055 1246.2813,376.8242 L1246.2813,375.668 Q1246.2813,374.3398 1246.8906,373.1992 Q1247.5156,372.043 1248.6094,371.4336 Q1249.7031,370.8086 1250.9375,370.8086 Q1251.6719,370.8086 1252.3125,370.9805 Q1252.9688,371.1367 1253.5156,371.4961 Z " fill="#000000"/><text fill="#000000" font-family="sans-serif" font-size="14" lengthAdjust="spacing" textLength="118" x="1271.25" y="381.418">ActuatorCatalogue</text><line style="stroke:#181818;stroke-width:0.5;" x1="1081" x2="1547" y1="391.6211" y2="391.6211"/><rect fill="none" height="6" style="stroke:#C82930;stroke-width:1.0;" width="6" x="1088" y="403.4316"/><text fill="#000000" font-family="sans-serif" font-size="14" lengthAdjust="spacing" textLength="185" x="1100" y="410.7285">actuatorClasses: List&lt;String&gt;</text><line style="stroke:#181818;stroke-width:0.5;" x1="1081" x2="1547" y1="418.2422" y2="418.2422"/><rect fill="#F24D5C" height="6" style="stroke:#C82930;stroke-width:1.0;" width="6" x="1088" y="430.0527"/><text fill="#000000" font-family="sans-serif" font-size="14" lengthAdjust="spacing" textLength="200" x="1100" y="437.3496">loadConfig(String filePath): void</text><ellipse cx="1091" cy="460.9844" fill="#84BE84" rx="3" ry="3" style="stroke:#038048;stroke-width:1.0;"/><text fill="#000000" font-family="sans-serif" font-size="14" lengthAdjust="spacing" textLength="328" x="1100" y="455.9707">createActuatorFromCatalogue(String actuatorClass,</text><text fill="#000000" font-family="sans-serif" font-size="14" lengthAdjust="spacing" textLength="442" x="1100" y="474.5918">String actuatorName, ActuatorProperties actuatorProperties): Actuator</text><rect fill="#F24D5C" height="6" style="stroke:#C82930;stroke-width:1.0;" width="6" x="1088" y="485.916"/><text fill="#000000" font-family="sans-serif" font-size="14" lengthAdjust="spacing" textLength="294" x="1100" y="493.2129">isActuatorInList(String actuatorName): boolean</text><ellipse cx="1091" cy="507.5371" fill="#84BE84" rx="3" ry="3" style="stroke:#038048;stroke-width:1.0;"/><text fill="#000000" font-family="sans-serif" font-size="14" lengthAdjust="spacing" textLength="216" x="1100" y="511.834">getActuatorClasses(): List&lt;String&gt;</text></g><!--class DeviceMapper--><g id="elem_DeviceMapper"><rect codeLine="65" fill="#F1F1F1" height="103.8633" id="DeviceMapper" rx="2.5" ry="2.5" style="stroke:#181818;stroke-width:0.5;" width="293" x="236.5" y="387.6211"/><ellipse cx="333.25" cy="403.6211" fill="#ADD1B2" rx="11" ry="11" style="stroke:#181818;stroke-width:1.0;"/><path d="M336.0156,399.4961 Q336.1719,399.2773 336.3594,399.168 Q336.5469,399.0586 336.7656,399.0586 Q337.1406,399.0586 337.375,399.3242 Q337.6094,399.5742 337.6094,400.1836 L337.6094,401.6367 Q337.6094,402.2461 337.375,402.5117 Q337.1406,402.7773 336.7656,402.7773 Q336.4219,402.7773 336.2188,402.5742 Q336.0156,402.3867 335.9063,401.8711 Q335.8594,401.5117 335.6719,401.3242 Q335.3438,400.9492 334.7344,400.7305 Q334.125,400.5117 333.5,400.5117 Q332.7344,400.5117 332.0938,400.8398 Q331.4688,401.168 330.9688,401.918 Q330.4844,402.668 330.4844,403.6992 L330.4844,404.793 Q330.4844,406.0273 331.375,406.8555 Q332.2656,407.668 333.8594,407.668 Q334.7969,407.668 335.4531,407.418 Q335.8438,407.2617 336.2656,406.8242 Q336.5313,406.5586 336.6719,406.4805 Q336.8281,406.4023 337.0313,406.4023 Q337.3594,406.4023 337.6094,406.668 Q337.875,406.918 337.875,407.2617 Q337.875,407.6055 337.5313,408.0117 Q337.0313,408.5898 336.2344,408.918 Q335.1563,409.3711 333.8594,409.3711 Q332.3438,409.3711 331.1406,408.7461 Q330.1563,408.2461 329.4688,407.1836 Q328.7813,406.1055 328.7813,404.8242 L328.7813,403.668 Q328.7813,402.3398 329.3906,401.1992 Q330.0156,400.043 331.1094,399.4336 Q332.2031,398.8086 333.4375,398.8086 Q334.1719,398.8086 334.8125,398.9805 Q335.4688,399.1367 336.0156,399.4961 Z " fill="#000000"/><text fill="#000000" font-family="sans-serif" font-size="14" lengthAdjust="spacing" textLength="91" x="353.75" y="409.418">DeviceMapper</text><line style="stroke:#181818;stroke-width:0.5;" x1="237.5" x2="528.5" y1="419.6211" y2="419.6211"/><line style="stroke:#181818;stroke-width:0.5;" x1="237.5" x2="528.5" y1="427.6211" y2="427.6211"/><ellipse cx="247.5" cy="442.4316" fill="#84BE84" rx="3" ry="3" style="stroke:#038048;stroke-width:1.0;"/><text fill="#000000" font-family="sans-serif" font-size="14" lengthAdjust="spacing" textLength="267" x="256.5" y="446.7285">deviceToDTO(Device device): DeviceDTO</text><ellipse cx="247.5" cy="470.3633" fill="#84BE84" rx="3" ry="3" style="stroke:#038048;stroke-width:1.0;"/><text fill="#000000" font-family="sans-serif" font-size="14" lengthAdjust="spacing" textLength="239" x="256.5" y="465.3496">deviceDTOList(DeviceList deviceList):</text><text fill="#000000" font-family="sans-serif" font-size="14" lengthAdjust="spacing" textLength="167" x="256.5" y="483.9707">Map&lt;DeviceDTO, Device&gt;</text></g><!--class RoomMapper--><g id="elem_RoomMapper"><rect codeLine="70" fill="#F1F1F1" height="103.8633" id="RoomMapper" rx="2.5" ry="2.5" style="stroke:#181818;stroke-width:0.5;" width="263" x="564.5" y="387.6211"/><ellipse cx="649.25" cy="403.6211" fill="#ADD1B2" rx="11" ry="11" style="stroke:#181818;stroke-width:1.0;"/><path d="M652.0156,399.4961 Q652.1719,399.2773 652.3594,399.168 Q652.5469,399.0586 652.7656,399.0586 Q653.1406,399.0586 653.375,399.3242 Q653.6094,399.5742 653.6094,400.1836 L653.6094,401.6367 Q653.6094,402.2461 653.375,402.5117 Q653.1406,402.7773 652.7656,402.7773 Q652.4219,402.7773 652.2188,402.5742 Q652.0156,402.3867 651.9063,401.8711 Q651.8594,401.5117 651.6719,401.3242 Q651.3438,400.9492 650.7344,400.7305 Q650.125,400.5117 649.5,400.5117 Q648.7344,400.5117 648.0938,400.8398 Q647.4688,401.168 646.9688,401.918 Q646.4844,402.668 646.4844,403.6992 L646.4844,404.793 Q646.4844,406.0273 647.375,406.8555 Q648.2656,407.668 649.8594,407.668 Q650.7969,407.668 651.4531,407.418 Q651.8438,407.2617 652.2656,406.8242 Q652.5313,406.5586 652.6719,406.4805 Q652.8281,406.4023 653.0313,406.4023 Q653.3594,406.4023 653.6094,406.668 Q653.875,406.918 653.875,407.2617 Q653.875,407.6055 653.5313,408.0117 Q653.0313,408.5898 652.2344,408.918 Q651.1563,409.3711 649.8594,409.3711 Q648.3438,409.3711 647.1406,408.7461 Q646.1563,408.2461 645.4688,407.1836 Q644.7813,406.1055 644.7813,404.8242 L644.7813,403.668 Q644.7813,402.3398 645.3906,401.1992 Q646.0156,400.043 647.1094,399.4336 Q648.2031,398.8086 649.4375,398.8086 Q650.1719,398.8086 650.8125,398.9805 Q651.4688,399.1367 652.0156,399.4961 Z " fill="#000000"/><text fill="#000000" font-family="sans-serif" font-size="14" lengthAdjust="spacing" textLength="85" x="669.75" y="409.418">RoomMapper</text><line style="stroke:#181818;stroke-width:0.5;" x1="565.5" x2="826.5" y1="419.6211" y2="419.6211"/><line style="stroke:#181818;stroke-width:0.5;" x1="565.5" x2="826.5" y1="427.6211" y2="427.6211"/><ellipse cx="575.5" cy="442.4316" fill="#84BE84" rx="3" ry="3" style="stroke:#038048;stroke-width:1.0;"/><text fill="#000000" font-family="sans-serif" font-size="14" lengthAdjust="spacing" textLength="237" x="584.5" y="446.7285">roomToDTO(Room room): RoomDTO</text><ellipse cx="575.5" cy="470.3633" fill="#84BE84" rx="3" ry="3" style="stroke:#038048;stroke-width:1.0;"/><text fill="#000000" font-family="sans-serif" font-size="14" lengthAdjust="spacing" textLength="200" x="584.5" y="465.3496">roomToDTO(Roomlist roomlist):</text><text fill="#000000" font-family="sans-serif" font-size="14" lengthAdjust="spacing" textLength="155" x="584.5" y="483.9707">Map&lt;RoomDTO, Room&gt;</text></g><!--class RoomDTO--><g id="elem_RoomDTO"><rect codeLine="75" fill="#F1F1F1" height="159.7266" id="RoomDTO" rx="2.5" ry="2.5" style="stroke:#181818;stroke-width:0.5;" width="139" x="626.5" y="598.6211"/><ellipse cx="659.5" cy="614.6211" fill="#ADD1B2" rx="11" ry="11" style="stroke:#181818;stroke-width:1.0;"/><path d="M662.2656,610.4961 Q662.4219,610.2773 662.6094,610.168 Q662.7969,610.0586 663.0156,610.0586 Q663.3906,610.0586 663.625,610.3242 Q663.8594,610.5742 663.8594,611.1836 L663.8594,612.6367 Q663.8594,613.2461 663.625,613.5117 Q663.3906,613.7773 663.0156,613.7773 Q662.6719,613.7773 662.4688,613.5742 Q662.2656,613.3867 662.1563,612.8711 Q662.1094,612.5117 661.9219,612.3242 Q661.5938,611.9492 660.9844,611.7305 Q660.375,611.5117 659.75,611.5117 Q658.9844,611.5117 658.3438,611.8398 Q657.7188,612.168 657.2188,612.918 Q656.7344,613.668 656.7344,614.6992 L656.7344,615.793 Q656.7344,617.0273 657.625,617.8555 Q658.5156,618.668 660.1094,618.668 Q661.0469,618.668 661.7031,618.418 Q662.0938,618.2617 662.5156,617.8242 Q662.7813,617.5586 662.9219,617.4805 Q663.0781,617.4023 663.2813,617.4023 Q663.6094,617.4023 663.8594,617.668 Q664.125,617.918 664.125,618.2617 Q664.125,618.6055 663.7813,619.0117 Q663.2813,619.5898 662.4844,619.918 Q661.4063,620.3711 660.1094,620.3711 Q658.5938,620.3711 657.3906,619.7461 Q656.4063,619.2461 655.7188,618.1836 Q655.0313,617.1055 655.0313,615.8242 L655.0313,614.668 Q655.0313,613.3398 655.6406,612.1992 Q656.2656,611.043 657.3594,610.4336 Q658.4531,609.8086 659.6875,609.8086 Q660.4219,609.8086 661.0625,609.9805 Q661.7188,610.1367 662.2656,610.4961 Z " fill="#000000"/><text fill="#000000" font-family="sans-serif" font-size="14" lengthAdjust="spacing" textLength="67" x="677.5" y="620.418">RoomDTO</text><line style="stroke:#181818;stroke-width:0.5;" x1="627.5" x2="764.5" y1="630.6211" y2="630.6211"/><rect fill="none" height="6" style="stroke:#C82930;stroke-width:1.0;" width="6" x="634.5" y="642.4316"/><text fill="#000000" font-family="sans-serif" font-size="14" lengthAdjust="spacing" textLength="113" x="646.5" y="649.7285">roomName: String</text><rect fill="none" height="6" style="stroke:#C82930;stroke-width:1.0;" width="6" x="634.5" y="661.0527"/><text fill="#000000" font-family="sans-serif" font-size="14" lengthAdjust="spacing" textLength="51" x="646.5" y="668.3496">floor: int</text><rect fill="none" height="6" style="stroke:#C82930;stroke-width:1.0;" width="6" x="634.5" y="679.6738"/><text fill="#000000" font-family="sans-serif" font-size="14" lengthAdjust="spacing" textLength="90" x="646.5" y="686.9707">length: double</text><rect fill="none" height="6" style="stroke:#C82930;stroke-width:1.0;" width="6" x="634.5" y="698.2949"/><text fill="#000000" font-family="sans-serif" font-size="14" lengthAdjust="spacing" textLength="83" x="646.5" y="705.5918">width: double</text><rect fill="none" height="6" style="stroke:#C82930;stroke-width:1.0;" width="6" x="634.5" y="716.916"/><text fill="#000000" font-family="sans-serif" font-size="14" lengthAdjust="spacing" textLength="90" x="646.5" y="724.2129">height: double</text><line style="stroke:#181818;stroke-width:0.5;" x1="627.5" x2="764.5" y1="731.7266" y2="731.7266"/><ellipse cx="637.5" cy="746.5371" fill="#84BE84" rx="3" ry="3" style="stroke:#038048;stroke-width:1.0;"/><text fill="#000000" font-family="sans-serif" font-size="14" lengthAdjust="spacing" textLength="111" x="646.5" y="750.834">getName(): String</text></g><!--class ActuatorSpecificInteger--><g id="elem_ActuatorSpecificInteger"><rect codeLine="84" fill="#F1F1F1" height="66.6211" id="ActuatorSpecificInteger" rx="2.5" ry="2.5" style="stroke:#181818;stroke-width:0.5;" width="362" x="1370" y="645.1211"/><ellipse cx="1473.25" cy="661.1211" fill="#B4A7E5" rx="11" ry="11" style="stroke:#181818;stroke-width:1.0;"/><path d="M1474.2031,657.7617 L1474.2031,664.418 L1475.9219,664.418 Q1476.5313,664.418 1476.7969,664.6523 Q1477.0625,664.8867 1477.0625,665.2773 Q1477.0625,665.6523 1476.7969,665.8867 Q1476.5313,666.1211 1475.9219,666.1211 L1470.7813,666.1211 Q1470.1719,666.1211 1469.9063,665.8867 Q1469.6406,665.6523 1469.6406,665.2617 Q1469.6406,664.8867 1469.9063,664.6523 Q1470.1719,664.418 1470.7813,664.418 L1472.5,664.418 L1472.5,657.7617 L1470.7813,657.7617 Q1470.1719,657.7617 1469.9063,657.5273 Q1469.6406,657.293 1469.6406,656.9023 Q1469.6406,656.5273 1469.9063,656.293 Q1470.1719,656.0586 1470.7813,656.0586 L1475.9219,656.0586 Q1476.5313,656.0586 1476.7969,656.293 Q1477.0625,656.5273 1477.0625,656.9023 Q1477.0625,657.293 1476.7969,657.5273 Q1476.5313,657.7617 1475.9219,657.7617 L1474.2031,657.7617 Z " fill="#000000"/><text fill="#000000" font-family="sans-serif" font-size="14" font-style="italic" lengthAdjust="spacing" textLength="147" x="1493.75" y="666.918">ActuatorSpecificInteger</text><line style="stroke:#181818;stroke-width:0.5;" x1="1371" x2="1731" y1="677.1211" y2="677.1211"/><line style="stroke:#181818;stroke-width:0.5;" x1="1371" x2="1731" y1="685.1211" y2="685.1211"/><ellipse cx="1381" cy="699.9316" fill="#84BE84" rx="3" ry="3" style="stroke:#038048;stroke-width:1.0;"/><text fill="#000000" font-family="sans-serif" font-size="14" lengthAdjust="spacing" textLength="336" x="1390" y="704.2285">setActuatorSpecificValue(int specificInteger): boolean</text></g><!--class ActuatorSpecificDecimal--><g id="elem_ActuatorSpecificDecimal"><rect codeLine="88" fill="#F1F1F1" height="66.6211" id="ActuatorSpecificDecimal" rx="2.5" ry="2.5" style="stroke:#181818;stroke-width:0.5;" width="281" x="1962.5" y="645.1211"/><ellipse cx="2022.75" cy="661.1211" fill="#B4A7E5" rx="11" ry="11" style="stroke:#181818;stroke-width:1.0;"/><path d="M2023.7031,657.7617 L2023.7031,664.418 L2025.4219,664.418 Q2026.0313,664.418 2026.2969,664.6523 Q2026.5625,664.8867 2026.5625,665.2773 Q2026.5625,665.6523 2026.2969,665.8867 Q2026.0313,666.1211 2025.4219,666.1211 L2020.2813,666.1211 Q2019.6719,666.1211 2019.4063,665.8867 Q2019.1406,665.6523 2019.1406,665.2617 Q2019.1406,664.8867 2019.4063,664.6523 Q2019.6719,664.418 2020.2813,664.418 L2022,664.418 L2022,657.7617 L2020.2813,657.7617 Q2019.6719,657.7617 2019.4063,657.5273 Q2019.1406,657.293 2019.1406,656.9023 Q2019.1406,656.5273 2019.4063,656.293 Q2019.6719,656.0586 2020.2813,656.0586 L2025.4219,656.0586 Q2026.0313,656.0586 2026.2969,656.293 Q2026.5625,656.5273 2026.5625,656.9023 Q2026.5625,657.293 2026.2969,657.5273 Q2026.0313,657.7617 2025.4219,657.7617 L2023.7031,657.7617 Z " fill="#000000"/><text fill="#000000" font-family="sans-serif" font-size="14" font-style="italic" lengthAdjust="spacing" textLength="152" x="2043.25" y="666.918">ActuatorSpecificDecimal</text><line style="stroke:#181818;stroke-width:0.5;" x1="1963.5" x2="2242.5" y1="677.1211" y2="677.1211"/><line style="stroke:#181818;stroke-width:0.5;" x1="1963.5" x2="2242.5" y1="685.1211" y2="685.1211"/><ellipse cx="1973.5" cy="699.9316" fill="#84BE84" rx="3" ry="3" style="stroke:#038048;stroke-width:1.0;"/><text fill="#000000" font-family="sans-serif" font-size="14" lengthAdjust="spacing" textLength="255" x="1982.5" y="704.2285">setDecimalValue(double value): boolean</text></g><!--class SwitchActuator--><g id="elem_SwitchActuator"><rect codeLine="92" fill="#F1F1F1" height="178.3477" id="SwitchActuator" rx="2.5" ry="2.5" style="stroke:#181818;stroke-width:0.5;" width="366" x="1616" y="847.6211"/><ellipse cx="1748.25" cy="863.6211" fill="#ADD1B2" rx="11" ry="11" style="stroke:#181818;stroke-width:1.0;"/><path d="M1751.0156,859.4961 Q1751.1719,859.2773 1751.3594,859.168 Q1751.5469,859.0586 1751.7656,859.0586 Q1752.1406,859.0586 1752.375,859.3242 Q1752.6094,859.5742 1752.6094,860.1836 L1752.6094,861.6367 Q1752.6094,862.2461 1752.375,862.5117 Q1752.1406,862.7773 1751.7656,862.7773 Q1751.4219,862.7773 1751.2188,862.5742 Q1751.0156,862.3867 1750.9063,861.8711 Q1750.8594,861.5117 1750.6719,861.3242 Q1750.3438,860.9492 1749.7344,860.7305 Q1749.125,860.5117 1748.5,860.5117 Q1747.7344,860.5117 1747.0938,860.8398 Q1746.4688,861.168 1745.9688,861.918 Q1745.4844,862.668 1745.4844,863.6992 L1745.4844,864.793 Q1745.4844,866.0273 1746.375,866.8555 Q1747.2656,867.668 1748.8594,867.668 Q1749.7969,867.668 1750.4531,867.418 Q1750.8438,867.2617 1751.2656,866.8242 Q1751.5313,866.5586 1751.6719,866.4805 Q1751.8281,866.4023 1752.0313,866.4023 Q1752.3594,866.4023 1752.6094,866.668 Q1752.875,866.918 1752.875,867.2617 Q1752.875,867.6055 1752.5313,868.0117 Q1752.0313,868.5898 1751.2344,868.918 Q1750.1563,869.3711 1748.8594,869.3711 Q1747.3438,869.3711 1746.1406,868.7461 Q1745.1563,868.2461 1744.4688,867.1836 Q1743.7813,866.1055 1743.7813,864.8242 L1743.7813,863.668 Q1743.7813,862.3398 1744.3906,861.1992 Q1745.0156,860.043 1746.1094,859.4336 Q1747.2031,858.8086 1748.4375,858.8086 Q1749.1719,858.8086 1749.8125,858.9805 Q1750.4688,859.1367 1751.0156,859.4961 Z " fill="#000000"/><text fill="#000000" font-family="sans-serif" font-size="14" lengthAdjust="spacing" textLength="93" x="1768.75" y="869.418">SwitchActuator</text><line style="stroke:#181818;stroke-width:0.5;" x1="1617" x2="1981" y1="879.6211" y2="879.6211"/><rect fill="none" height="6" style="stroke:#C82930;stroke-width:1.0;" width="6" x="1624" y="891.4316"/><text fill="#000000" font-family="sans-serif" font-size="14" lengthAdjust="spacing" textLength="133" x="1636" y="898.7285">actuatorName: String</text><rect fill="none" height="6" style="stroke:#C82930;stroke-width:1.0;" width="6" x="1624" y="910.0527"/><text fill="#000000" font-family="sans-serif" font-size="14" lengthAdjust="spacing" textLength="225" x="1636" y="917.3496">actuatorType: ActuatorFunctionality</text><rect fill="none" height="6" style="stroke:#C82930;stroke-width:1.0;" width="6" x="1624" y="928.6738"/><text fill="#000000" font-family="sans-serif" font-size="14" lengthAdjust="spacing" textLength="86" x="1636" y="935.9707">status: Status</text><rect fill="none" height="6" style="stroke:#C82930;stroke-width:1.0;" width="6" x="1624" y="947.2949"/><text fill="#000000" font-family="sans-serif" font-size="14" lengthAdjust="spacing" textLength="243" x="1636" y="954.5918">actuatorProperties: ActuatorProperties</text><line style="stroke:#181818;stroke-width:0.5;" x1="1617" x2="1981" y1="962.1055" y2="962.1055"/><ellipse cx="1627" cy="976.916" fill="#84BE84" rx="3" ry="3" style="stroke:#038048;stroke-width:1.0;"/><text fill="#000000" font-family="sans-serif" font-size="14" lengthAdjust="spacing" textLength="168" x="1636" y="981.2129">getActuatorName() : String</text><ellipse cx="1627" cy="995.5371" fill="#84BE84" rx="3" ry="3" style="stroke:#038048;stroke-width:1.0;"/><text fill="#000000" font-family="sans-serif" font-size="14" lengthAdjust="spacing" textLength="308" x="1636" y="999.834">getActuatorFunctionality() : ActuatorFunctionality</text><ellipse cx="1627" cy="1014.1582" fill="#84BE84" rx="3" ry="3" style="stroke:#038048;stroke-width:1.0;"/><text fill="#000000" font-family="sans-serif" font-size="14" lengthAdjust="spacing" textLength="340" x="1636" y="1018.4551">setActuatorSpecificValue(int specificInteger) : boolean</text></g><!--class BlindSetterActuator--><g id="elem_BlindSetterActuator"><rect codeLine="102" fill="#F1F1F1" height="178.3477" id="BlindSetterActuator" rx="2.5" ry="2.5" style="stroke:#181818;stroke-width:0.5;" width="366" x="1215" y="847.6211"/><ellipse cx="1332.75" cy="863.6211" fill="#ADD1B2" rx="11" ry="11" style="stroke:#181818;stroke-width:1.0;"/><path d="M1335.5156,859.4961 Q1335.6719,859.2773 1335.8594,859.168 Q1336.0469,859.0586 1336.2656,859.0586 Q1336.6406,859.0586 1336.875,859.3242 Q1337.1094,859.5742 1337.1094,860.1836 L1337.1094,861.6367 Q1337.1094,862.2461 1336.875,862.5117 Q1336.6406,862.7773 1336.2656,862.7773 Q1335.9219,862.7773 1335.7188,862.5742 Q1335.5156,862.3867 1335.4063,861.8711 Q1335.3594,861.5117 1335.1719,861.3242 Q1334.8438,860.9492 1334.2344,860.7305 Q1333.625,860.5117 1333,860.5117 Q1332.2344,860.5117 1331.5938,860.8398 Q1330.9688,861.168 1330.4688,861.918 Q1329.9844,862.668 1329.9844,863.6992 L1329.9844,864.793 Q1329.9844,866.0273 1330.875,866.8555 Q1331.7656,867.668 1333.3594,867.668 Q1334.2969,867.668 1334.9531,867.418 Q1335.3438,867.2617 1335.7656,866.8242 Q1336.0313,866.5586 1336.1719,866.4805 Q1336.3281,866.4023 1336.5313,866.4023 Q1336.8594,866.4023 1337.1094,866.668 Q1337.375,866.918 1337.375,867.2617 Q1337.375,867.6055 1337.0313,868.0117 Q1336.5313,868.5898 1335.7344,868.918 Q1334.6563,869.3711 1333.3594,869.3711 Q1331.8438,869.3711 1330.6406,868.7461 Q1329.6563,868.2461 1328.9688,867.1836 Q1328.2813,866.1055 1328.2813,864.8242 L1328.2813,863.668 Q1328.2813,862.3398 1328.8906,861.1992 Q1329.5156,860.043 1330.6094,859.4336 Q1331.7031,858.8086 1332.9375,858.8086 Q1333.6719,858.8086 1334.3125,858.9805 Q1334.9688,859.1367 1335.5156,859.4961 Z " fill="#000000"/><text fill="#000000" font-family="sans-serif" font-size="14" lengthAdjust="spacing" textLength="122" x="1353.25" y="869.418">BlindSetterActuator</text><line style="stroke:#181818;stroke-width:0.5;" x1="1216" x2="1580" y1="879.6211" y2="879.6211"/><rect fill="none" height="6" style="stroke:#C82930;stroke-width:1.0;" width="6" x="1223" y="891.4316"/><text fill="#000000" font-family="sans-serif" font-size="14" lengthAdjust="spacing" textLength="133" x="1235" y="898.7285">actuatorName: String</text><rect fill="none" height="6" style="stroke:#C82930;stroke-width:1.0;" width="6" x="1223" y="910.0527"/><text fill="#000000" font-family="sans-serif" font-size="14" lengthAdjust="spacing" textLength="272" x="1235" y="917.3496">actuatorFunctionality: actuatorFunctionality</text><rect fill="none" height="6" style="stroke:#C82930;stroke-width:1.0;" width="6" x="1223" y="928.6738"/><text fill="#000000" font-family="sans-serif" font-size="14" lengthAdjust="spacing" textLength="106" x="1235" y="935.9707">specificValue: int</text><rect fill="none" height="6" style="stroke:#C82930;stroke-width:1.0;" width="6" x="1223" y="947.2949"/><text fill="#000000" font-family="sans-serif" font-size="14" lengthAdjust="spacing" textLength="243" x="1235" y="954.5918">actuatorProperties: ActuatorProperties</text><line style="stroke:#181818;stroke-width:0.5;" x1="1216" x2="1580" y1="962.1055" y2="962.1055"/><ellipse cx="1226" cy="976.916" fill="#84BE84" rx="3" ry="3" style="stroke:#038048;stroke-width:1.0;"/><text fill="#000000" font-family="sans-serif" font-size="14" lengthAdjust="spacing" textLength="164" x="1235" y="981.2129">getActuatorName(): String</text><ellipse cx="1226" cy="995.5371" fill="#84BE84" rx="3" ry="3" style="stroke:#038048;stroke-width:1.0;"/><text fill="#000000" font-family="sans-serif" font-size="14" lengthAdjust="spacing" textLength="256" x="1235" y="999.834">getActuatorFunctionality(): ActuatorType</text><ellipse cx="1226" cy="1014.1582" fill="#84BE84" rx="3" ry="3" style="stroke:#038048;stroke-width:1.0;"/><text fill="#000000" font-family="sans-serif" font-size="14" lengthAdjust="spacing" textLength="340" x="1235" y="1018.4551">setActuatorSpecificInteger (int specificValue): boolean</text></g><!--class IntegerSetterActuator--><g id="elem_IntegerSetterActuator"><rect codeLine="112" fill="#F1F1F1" height="196.9688" id="IntegerSetterActuator" rx="2.5" ry="2.5" style="stroke:#181818;stroke-width:0.5;" width="362" x="818" y="838.1211"/><ellipse cx="927.25" cy="854.1211" fill="#ADD1B2" rx="11" ry="11" style="stroke:#181818;stroke-width:1.0;"/><path d="M930.0156,849.9961 Q930.1719,849.7773 930.3594,849.668 Q930.5469,849.5586 930.7656,849.5586 Q931.1406,849.5586 931.375,849.8242 Q931.6094,850.0742 931.6094,850.6836 L931.6094,852.1367 Q931.6094,852.7461 931.375,853.0117 Q931.1406,853.2773 930.7656,853.2773 Q930.4219,853.2773 930.2188,853.0742 Q930.0156,852.8867 929.9063,852.3711 Q929.8594,852.0117 929.6719,851.8242 Q929.3438,851.4492 928.7344,851.2305 Q928.125,851.0117 927.5,851.0117 Q926.7344,851.0117 926.0938,851.3398 Q925.4688,851.668 924.9688,852.418 Q924.4844,853.168 924.4844,854.1992 L924.4844,855.293 Q924.4844,856.5273 925.375,857.3555 Q926.2656,858.168 927.8594,858.168 Q928.7969,858.168 929.4531,857.918 Q929.8438,857.7617 930.2656,857.3242 Q930.5313,857.0586 930.6719,856.9805 Q930.8281,856.9023 931.0313,856.9023 Q931.3594,856.9023 931.6094,857.168 Q931.875,857.418 931.875,857.7617 Q931.875,858.1055 931.5313,858.5117 Q931.0313,859.0898 930.2344,859.418 Q929.1563,859.8711 927.8594,859.8711 Q926.3438,859.8711 925.1406,859.2461 Q924.1563,858.7461 923.4688,857.6836 Q922.7813,856.6055 922.7813,855.3242 L922.7813,854.168 Q922.7813,852.8398 923.3906,851.6992 Q924.0156,850.543 925.1094,849.9336 Q926.2031,849.3086 927.4375,849.3086 Q928.1719,849.3086 928.8125,849.4805 Q929.4688,849.6367 930.0156,849.9961 Z " fill="#000000"/><text fill="#000000" font-family="sans-serif" font-size="14" lengthAdjust="spacing" textLength="135" x="947.75" y="859.918">IntegerSetterActuator</text><line style="stroke:#181818;stroke-width:0.5;" x1="819" x2="1179" y1="870.1211" y2="870.1211"/><rect fill="none" height="6" style="stroke:#C82930;stroke-width:1.0;" width="6" x="826" y="881.9316"/><text fill="#000000" font-family="sans-serif" font-size="14" lengthAdjust="spacing" textLength="133" x="838" y="889.2285">actuatorName: String</text><rect fill="none" height="6" style="stroke:#C82930;stroke-width:1.0;" width="6" x="826" y="900.5527"/><text fill="#000000" font-family="sans-serif" font-size="14" lengthAdjust="spacing" textLength="273" x="838" y="907.8496">actuatorFunctionality: ActuatorFunctionality</text><rect fill="none" height="6" style="stroke:#C82930;stroke-width:1.0;" width="6" x="826" y="919.1738"/><text fill="#000000" font-family="sans-serif" font-size="14" lengthAdjust="spacing" textLength="243" x="838" y="926.4707">actuatorProperties: ActuatorProperties</text><line style="stroke:#181818;stroke-width:0.5;" x1="819" x2="1179" y1="933.9844" y2="933.9844"/><rect fill="#F24D5C" height="6" style="stroke:#C82930;stroke-width:1.0;" width="6" x="826" y="955.1055"/><text fill="#000000" font-family="sans-serif" font-size="14" lengthAdjust="spacing" textLength="309" x="838" y="953.0918">validConstructorArguments(String actuatorName,</text><text fill="#000000" font-family="sans-serif" font-size="14" lengthAdjust="spacing" textLength="303" x="838" y="971.7129">ActuatorProperties actuatorProperties): boolean</text><ellipse cx="829" cy="986.0371" fill="#84BE84" rx="3" ry="3" style="stroke:#038048;stroke-width:1.0;"/><text fill="#000000" font-family="sans-serif" font-size="14" lengthAdjust="spacing" textLength="164" x="838" y="990.334">getActuatorName(): String</text><ellipse cx="829" cy="1004.6582" fill="#84BE84" rx="3" ry="3" style="stroke:#038048;stroke-width:1.0;"/><text fill="#000000" font-family="sans-serif" font-size="14" lengthAdjust="spacing" textLength="304" x="838" y="1008.9551">getActuatorFunctionality(): ActuatorFunctionality</text><ellipse cx="829" cy="1023.2793" fill="#84BE84" rx="3" ry="3" style="stroke:#038048;stroke-width:1.0;"/><text fill="#000000" font-family="sans-serif" font-size="14" lengthAdjust="spacing" textLength="336" x="838" y="1027.5762">setActuatorSpecificValue(int specificInteger): boolean</text></g><!--class DecimalSetterActuator--><g id="elem_DecimalSetterActuator"><rect codeLine="122" fill="#F1F1F1" height="234.2109" id="DecimalSetterActuator" rx="2.5" ry="2.5" style="stroke:#181818;stroke-width:0.5;" width="339" x="2017.5" y="819.6211"/><ellipse cx="2112.25" cy="835.6211" fill="#ADD1B2" rx="11" ry="11" style="stroke:#181818;stroke-width:1.0;"/><path d="M2115.0156,831.4961 Q2115.1719,831.2773 2115.3594,831.168 Q2115.5469,831.0586 2115.7656,831.0586 Q2116.1406,831.0586 2116.375,831.3242 Q2116.6094,831.5742 2116.6094,832.1836 L2116.6094,833.6367 Q2116.6094,834.2461 2116.375,834.5117 Q2116.1406,834.7773 2115.7656,834.7773 Q2115.4219,834.7773 2115.2188,834.5742 Q2115.0156,834.3867 2114.9063,833.8711 Q2114.8594,833.5117 2114.6719,833.3242 Q2114.3438,832.9492 2113.7344,832.7305 Q2113.125,832.5117 2112.5,832.5117 Q2111.7344,832.5117 2111.0938,832.8398 Q2110.4688,833.168 2109.9688,833.918 Q2109.4844,834.668 2109.4844,835.6992 L2109.4844,836.793 Q2109.4844,838.0273 2110.375,838.8555 Q2111.2656,839.668 2112.8594,839.668 Q2113.7969,839.668 2114.4531,839.418 Q2114.8438,839.2617 2115.2656,838.8242 Q2115.5313,838.5586 2115.6719,838.4805 Q2115.8281,838.4023 2116.0313,838.4023 Q2116.3594,838.4023 2116.6094,838.668 Q2116.875,838.918 2116.875,839.2617 Q2116.875,839.6055 2116.5313,840.0117 Q2116.0313,840.5898 2115.2344,840.918 Q2114.1563,841.3711 2112.8594,841.3711 Q2111.3438,841.3711 2110.1406,840.7461 Q2109.1563,840.2461 2108.4688,839.1836 Q2107.7813,838.1055 2107.7813,836.8242 L2107.7813,835.668 Q2107.7813,834.3398 2108.3906,833.1992 Q2109.0156,832.043 2110.1094,831.4336 Q2111.2031,830.8086 2112.4375,830.8086 Q2113.1719,830.8086 2113.8125,830.9805 Q2114.4688,831.1367 2115.0156,831.4961 Z " fill="#000000"/><text fill="#000000" font-family="sans-serif" font-size="14" lengthAdjust="spacing" textLength="141" x="2132.75" y="841.418">DecimalSetterActuator</text><line style="stroke:#181818;stroke-width:0.5;" x1="2018.5" x2="2355.5" y1="851.6211" y2="851.6211"/><rect fill="none" height="6" style="stroke:#C82930;stroke-width:1.0;" width="6" x="2025.5" y="863.4316"/><text fill="#000000" font-family="sans-serif" font-size="14" lengthAdjust="spacing" textLength="133" x="2037.5" y="870.7285">actuatorName: String</text><rect fill="none" height="6" style="stroke:#C82930;stroke-width:1.0;" width="6" x="2025.5" y="882.0527"/><text fill="#000000" font-family="sans-serif" font-size="14" lengthAdjust="spacing" textLength="273" x="2037.5" y="889.3496">actuatorFunctionality: ActuatorFunctionality</text><rect fill="none" height="6" style="stroke:#C82930;stroke-width:1.0;" width="6" x="2025.5" y="900.6738"/><text fill="#000000" font-family="sans-serif" font-size="14" lengthAdjust="spacing" textLength="243" x="2037.5" y="907.9707">actuatorProperties: ActuatorProperties</text><rect fill="none" height="6" style="stroke:#C82930;stroke-width:1.0;" width="6" x="2025.5" y="919.2949"/><text fill="#000000" font-family="sans-serif" font-size="14" lengthAdjust="spacing" textLength="124" x="2037.5" y="926.5918">targetValue: double</text><line style="stroke:#181818;stroke-width:0.5;" x1="2018.5" x2="2355.5" y1="934.1055" y2="934.1055"/><rect fill="#F24D5C" height="6" style="stroke:#C82930;stroke-width:1.0;" width="6" x="2025.5" y="955.2266"/><text fill="#000000" font-family="sans-serif" font-size="14" lengthAdjust="spacing" textLength="309" x="2037.5" y="953.2129">validConstructorArguments(String actuatorName,</text><text fill="#000000" font-family="sans-serif" font-size="14" lengthAdjust="spacing" textLength="303" x="2037.5" y="971.834">ActuatorProperties actuatorProperties): boolean</text><ellipse cx="2028.5" cy="986.1582" fill="#84BE84" rx="3" ry="3" style="stroke:#038048;stroke-width:1.0;"/><text fill="#000000" font-family="sans-serif" font-size="14" lengthAdjust="spacing" textLength="159" x="2037.5" y="990.4551">getTargetValue(): double</text><ellipse cx="2028.5" cy="1004.7793" fill="#84BE84" rx="3" ry="3" style="stroke:#038048;stroke-width:1.0;"/><text fill="#000000" font-family="sans-serif" font-size="14" lengthAdjust="spacing" textLength="164" x="2037.5" y="1009.0762">getActuatorName(): String</text><ellipse cx="2028.5" cy="1023.4004" fill="#84BE84" rx="3" ry="3" style="stroke:#038048;stroke-width:1.0;"/><text fill="#000000" font-family="sans-serif" font-size="14" lengthAdjust="spacing" textLength="304" x="2037.5" y="1027.6973">getActuatorFunctionality(): ActuatorFunctionality</text><ellipse cx="2028.5" cy="1042.0215" fill="#84BE84" rx="3" ry="3" style="stroke:#038048;stroke-width:1.0;"/><text fill="#000000" font-family="sans-serif" font-size="14" lengthAdjust="spacing" textLength="282" x="2037.5" y="1046.3184">setDecimalValue(double newValue): boolean</text></g><!--class ActuatorProperties--><g id="elem_ActuatorProperties"><rect codeLine="134" fill="#F1F1F1" height="308.6953" id="ActuatorProperties" rx="2.5" ry="2.5" style="stroke:#181818;stroke-width:0.5;" width="430" x="1334" y="1132.6211"/><ellipse cx="1485.75" cy="1148.6211" fill="#ADD1B2" rx="11" ry="11" style="stroke:#181818;stroke-width:1.0;"/><path d="M1488.5156,1144.4961 Q1488.6719,1144.2773 1488.8594,1144.168 Q1489.0469,1144.0586 1489.2656,1144.0586 Q1489.6406,1144.0586 1489.875,1144.3242 Q1490.1094,1144.5742 1490.1094,1145.1836 L1490.1094,1146.6367 Q1490.1094,1147.2461 1489.875,1147.5117 Q1489.6406,1147.7773 1489.2656,1147.7773 Q1488.9219,1147.7773 1488.7188,1147.5742 Q1488.5156,1147.3867 1488.4063,1146.8711 Q1488.3594,1146.5117 1488.1719,1146.3242 Q1487.8438,1145.9492 1487.2344,1145.7305 Q1486.625,1145.5117 1486,1145.5117 Q1485.2344,1145.5117 1484.5938,1145.8398 Q1483.9688,1146.168 1483.4688,1146.918 Q1482.9844,1147.668 1482.9844,1148.6992 L1482.9844,1149.793 Q1482.9844,1151.0273 1483.875,1151.8555 Q1484.7656,1152.668 1486.3594,1152.668 Q1487.2969,1152.668 1487.9531,1152.418 Q1488.3438,1152.2617 1488.7656,1151.8242 Q1489.0313,1151.5586 1489.1719,1151.4805 Q1489.3281,1151.4023 1489.5313,1151.4023 Q1489.8594,1151.4023 1490.1094,1151.668 Q1490.375,1151.918 1490.375,1152.2617 Q1490.375,1152.6055 1490.0313,1153.0117 Q1489.5313,1153.5898 1488.7344,1153.918 Q1487.6563,1154.3711 1486.3594,1154.3711 Q1484.8438,1154.3711 1483.6406,1153.7461 Q1482.6563,1153.2461 1481.9688,1152.1836 Q1481.2813,1151.1055 1481.2813,1149.8242 L1481.2813,1148.668 Q1481.2813,1147.3398 1481.8906,1146.1992 Q1482.5156,1145.043 1483.6094,1144.4336 Q1484.7031,1143.8086 1485.9375,1143.8086 Q1486.6719,1143.8086 1487.3125,1143.9805 Q1487.9688,1144.1367 1488.5156,1144.4961 Z " fill="#000000"/><text fill="#000000" font-family="sans-serif" font-size="14" lengthAdjust="spacing" textLength="118" x="1506.25" y="1154.418">ActuatorProperties</text><line style="stroke:#181818;stroke-width:0.5;" x1="1335" x2="1763" y1="1164.6211" y2="1164.6211"/><rect fill="none" height="6" style="stroke:#C82930;stroke-width:1.0;" width="6" x="1342" y="1176.4316"/><text fill="#000000" font-family="sans-serif" font-size="14" lengthAdjust="spacing" textLength="104" x="1354" y="1183.7285">upperLimitInt: int</text><rect fill="none" height="6" style="stroke:#C82930;stroke-width:1.0;" width="6" x="1342" y="1195.0527"/><text fill="#000000" font-family="sans-serif" font-size="14" lengthAdjust="spacing" textLength="100" x="1354" y="1202.3496">lowerLimitInt: int</text><rect fill="none" height="6" style="stroke:#C82930;stroke-width:1.0;" width="6" x="1342" y="1213.6738"/><text fill="#000000" font-family="sans-serif" font-size="14" lengthAdjust="spacing" textLength="167" x="1354" y="1220.9707">upperLimitDecimal: double</text><rect fill="none" height="6" style="stroke:#C82930;stroke-width:1.0;" width="6" x="1342" y="1232.2949"/><text fill="#000000" font-family="sans-serif" font-size="14" lengthAdjust="spacing" textLength="163" x="1354" y="1239.5918">lowerLimitDecimal: double</text><rect fill="none" height="6" style="stroke:#C82930;stroke-width:1.0;" width="6" x="1342" y="1250.916"/><text fill="#000000" font-family="sans-serif" font-size="14" lengthAdjust="spacing" textLength="80" x="1354" y="1258.2129">precision: int</text><line style="stroke:#181818;stroke-width:0.5;" x1="1335" x2="1763" y1="1265.7266" y2="1265.7266"/><rect fill="#F24D5C" height="6" style="stroke:#C82930;stroke-width:1.0;" width="6" x="1342" y="1286.8477"/><text fill="#000000" font-family="sans-serif" font-size="14" lengthAdjust="spacing" textLength="280" x="1354" y="1284.834">validConstructorArguments(int upperLimitInt,</text><text fill="#000000" font-family="sans-serif" font-size="14" lengthAdjust="spacing" textLength="160" x="1354" y="1303.4551">int lowerLimitInt): boolean</text><rect fill="#F24D5C" height="6" style="stroke:#C82930;stroke-width:1.0;" width="6" x="1342" y="1324.0898"/><text fill="#000000" font-family="sans-serif" font-size="14" lengthAdjust="spacing" textLength="400" x="1354" y="1322.0762">validConstructorsArgumentsDecimal(double upperLimitDecimal,</text><text fill="#000000" font-family="sans-serif" font-size="14" lengthAdjust="spacing" textLength="307" x="1354" y="1340.6973">double lowerLimitDecimal, int precision): boolean</text><ellipse cx="1345" cy="1355.0215" fill="#84BE84" rx="3" ry="3" style="stroke:#038048;stroke-width:1.0;"/><text fill="#000000" font-family="sans-serif" font-size="14" lengthAdjust="spacing" textLength="135" x="1354" y="1359.3184">getUpperLimitInt(): int</text><ellipse cx="1345" cy="1373.6426" fill="#84BE84" rx="3" ry="3" style="stroke:#038048;stroke-width:1.0;"/><text fill="#000000" font-family="sans-serif" font-size="14" lengthAdjust="spacing" textLength="135" x="1354" y="1377.9395">getLowerLimitInt(): int</text><ellipse cx="1345" cy="1392.2637" fill="#84BE84" rx="3" ry="3" style="stroke:#038048;stroke-width:1.0;"/><text fill="#000000" font-family="sans-serif" font-size="14" lengthAdjust="spacing" textLength="198" x="1354" y="1396.5605">getUpperLimitDecimal(): double</text><ellipse cx="1345" cy="1410.8848" fill="#84BE84" rx="3" ry="3" style="stroke:#038048;stroke-width:1.0;"/><text fill="#000000" font-family="sans-serif" font-size="14" lengthAdjust="spacing" textLength="198" x="1354" y="1415.1816">getLowerLimitDecimal(): double</text><ellipse cx="1345" cy="1429.5059" fill="#84BE84" rx="3" ry="3" style="stroke:#038048;stroke-width:1.0;"/><text fill="#000000" font-family="sans-serif" font-size="14" lengthAdjust="spacing" textLength="111" x="1354" y="1433.8027">getPrecision(): int</text></g><!--reverse link Actuator to ActuatorSpecificInteger--><g id="link_Actuator_ActuatorSpecificInteger"><path d="M1701.954,496.0135 C1663.444,542.3435 1613.45,602.4811 1578.2,644.8911 " fill="none" id="Actuator-backto-ActuatorSpecificInteger" style="stroke:#181818;stroke-width:1.0;"/><polygon fill="none" points="1713.46,482.1711,1697.3399,492.1782,1706.5682,499.8488,1713.46,482.1711" style="stroke:#181818;stroke-width:1.0;"/></g><!--reverse link Actuator to ActuatorSpecificDecimal--><g id="link_Actuator_ActuatorSpecificDecimal"><path d="M1825.2103,492.1656 C1894.7103,538.5656 1990.77,602.7011 2054.25,645.0811 " fill="none" id="Actuator-backto-ActuatorSpecificDecimal" style="stroke:#181818;stroke-width:1.0;"/><polygon fill="none" points="1810.24,482.1711,1821.8788,497.1557,1828.5418,487.1755,1810.24,482.1711" style="stroke:#181818;stroke-width:1.0;"/></g><!--reverse link ActuatorSpecificInteger to SwitchActuator--><g id="link_ActuatorSpecificInteger_SwitchActuator"><path d="M1595.1842,725.2295 C1628.0242,759.1295 1668.28,800.6811 1713.48,847.3411 " fill="none" id="ActuatorSpecificInteger-backto-SwitchActuator" style="stroke:#181818;stroke-width:1.0;stroke-dasharray:7.0,7.0;"/><polygon fill="none" points="1582.66,712.3011,1590.8747,729.4043,1599.4937,721.0548,1582.66,712.3011" style="stroke:#181818;stroke-width:1.0;"/></g><!--reverse link ActuatorSpecificInteger to BlindSetterActuator--><g id="link_ActuatorSpecificInteger_BlindSetterActuator"><path d="M1522.2359,727.752 C1501.9759,761.652 1478.65,800.6811 1450.76,847.3411 " fill="none" id="ActuatorSpecificInteger-backto-BlindSetterActuator" style="stroke:#181818;stroke-width:1.0;stroke-dasharray:7.0,7.0;"/><polygon fill="none" points="1531.47,712.3011,1517.0856,724.674,1527.3862,730.8301,1531.47,712.3011" style="stroke:#181818;stroke-width:1.0;"/></g><!--reverse link ActuatorSpecificInteger to IntegerSetterActuator--><g id="link_ActuatorSpecificInteger_IntegerSetterActuator"><path d="M1441.0265,718.3402 C1368.8865,744.6102 1283.97,777.8111 1198,819.6211 C1186.13,825.3911 1174.02,831.6011 1161.92,838.0411 " fill="none" id="ActuatorSpecificInteger-backto-IntegerSetterActuator" style="stroke:#181818;stroke-width:1.0;stroke-dasharray:7.0,7.0;"/><polygon fill="none" points="1457.94,712.1811,1438.9735,712.7024,1443.0796,723.978,1457.94,712.1811" style="stroke:#181818;stroke-width:1.0;"/></g><!--reverse link ActuatorSpecificDecimal to DecimalSetterActuator--><g id="link_ActuatorSpecificDecimal_DecimalSetterActuator"><path d="M2119.3331,729.4035 C2128.2931,756.7035 2136.01,780.2411 2148.86,819.3911 " fill="none" id="ActuatorSpecificDecimal-backto-DecimalSetterActuator" style="stroke:#181818;stroke-width:1.0;stroke-dasharray:7.0,7.0;"/><polygon fill="none" points="2113.72,712.3011,2113.6323,731.2746,2125.0339,727.5325,2113.72,712.3011" style="stroke:#181818;stroke-width:1.0;"/></g><!--link AddNewActuatorToDeviceController to House--><g id="link_AddNewActuatorToDeviceController_House"><path codeLine="150" d="M846.19,271.7311 C871.89,311.5111 899.86,354.8211 920.88,387.3511 " fill="none" id="AddNewActuatorToDeviceController-House" style="stroke:#181818;stroke-width:1.0;"/></g><!--link AddNewActuatorToDeviceController to Room--><g id="link_AddNewActuatorToDeviceController_Room"><path codeLine="151" d="M541.91,231.4311 C440.07,264.2411 321.06,307.9011 219,359.6211 C213.06,362.6311 207.07,365.9111 201.1,369.3611 " fill="none" id="AddNewActuatorToDeviceController-Room" style="stroke:#181818;stroke-width:1.0;"/></g><!--link AddNewActuatorToDeviceController to Device--><g id="link_AddNewActuatorToDeviceController_Device"><path codeLine="152" d="M1012.2,163.6211 C1050.91,163.6211 1089.61,163.6211 1128.32,163.6211 " fill="none" id="AddNewActuatorToDeviceController-Device" style="stroke:#181818;stroke-width:1.0;"/></g><!--link AddNewActuatorToDeviceController to DeviceMapper--><g id="link_AddNewActuatorToDeviceController_DeviceMapper"><path codeLine="153" d="M622.98,271.7311 C565.67,311.5811 508.1958,351.5552 461.3958,384.1052 " fill="none" id="AddNewActuatorToDeviceController-to-DeviceMapper" style="stroke:#181818;stroke-width:1.0;stroke-dasharray:7.0,7.0;"/><polygon fill="#181818" points="456.47,387.5311,466.1426,385.676,460.5748,384.6762,461.5747,379.1084,456.47,387.5311" style="stroke:#181818;stroke-width:1.0;"/><text fill="#000000" font-family="sans-serif" font-size="13" lengthAdjust="spacing" textLength="42" x="558" y="325.6494">&#171;uses&#187;</text></g><!--link DeviceMapper to DeviceDTO--><g id="link_DeviceMapper_DeviceDTO"><path codeLine="154" d="M383,491.7511 C383,534.8911 383,589.8611 383,630.0511 " fill="none" id="DeviceMapper-to-DeviceDTO" style="stroke:#181818;stroke-width:1.0;stroke-dasharray:7.0,7.0;"/><polygon fill="#181818" points="383,636.0511,387,627.0511,383,631.0511,379,627.0511,383,636.0511" style="stroke:#181818;stroke-width:1.0;"/><text fill="#000000" font-family="sans-serif" font-size="13" lengthAdjust="spacing" textLength="42" x="384" y="564.6494">&#171;uses&#187;</text></g><!--link AddNewActuatorToDeviceController to RoomMapper--><g id="link_AddNewActuatorToDeviceController_RoomMapper"><path codeLine="155" d="M745.34,271.7311 C733.58,311.5111 722.4699,349.0669 712.8599,381.5969 " fill="none" id="AddNewActuatorToDeviceController-to-RoomMapper" style="stroke:#181818;stroke-width:1.0;stroke-dasharray:7.0,7.0;"/><polygon fill="#181818" points="711.16,387.3511,717.5459,379.8531,712.5766,382.556,709.8737,377.5866,711.16,387.3511" style="stroke:#181818;stroke-width:1.0;"/><text fill="#000000" font-family="sans-serif" font-size="13" lengthAdjust="spacing" textLength="42" x="732" y="325.6494">&#171;uses&#187;</text></g><!--link RoomMapper to RoomDTO--><g id="link_RoomMapper_RoomDTO"><path codeLine="156" d="M696,491.7511 C696,522.9211 696,557.3811 696,592.6011 " fill="none" id="RoomMapper-to-RoomDTO" style="stroke:#181818;stroke-width:1.0;stroke-dasharray:7.0,7.0;"/><polygon fill="#181818" points="696,598.6011,700,589.6011,696,593.6011,692,589.6011,696,598.6011" style="stroke:#181818;stroke-width:1.0;"/><text fill="#000000" font-family="sans-serif" font-size="13" lengthAdjust="spacing" textLength="42" x="697" y="564.6494">&#171;uses&#187;</text></g><!--link AddNewActuatorToDeviceController to ActuatorCatalogue--><g id="link_AddNewActuatorToDeviceController_ActuatorCatalogue"><path codeLine="157" d="M986.93,271.7311 C1044.29,301.0011 1105.4,332.1811 1159.08,359.5811 " fill="none" id="AddNewActuatorToDeviceController-ActuatorCatalogue" style="stroke:#181818;stroke-width:1.0;"/></g><!--link Device to Actuator--><g id="link_Device_Actuator"><path codeLine="158" d="M1497.74,280.6211 C1563.28,322.0011 1632.97,366.0011 1682.12,397.0311 " fill="none" id="Device-Actuator" style="stroke:#181818;stroke-width:1.0;"/><text fill="#000000" font-family="sans-serif" font-size="13" lengthAdjust="spacing" textLength="167" x="1570" y="325.6494">has classes that implements</text><text fill="#000000" font-family="sans-serif" font-size="13" lengthAdjust="spacing" textLength="7" x="1502.2866" y="302.6918">1</text><text fill="#000000" font-family="sans-serif" font-size="13" lengthAdjust="spacing" textLength="20" x="1650.0266" y="385.9208">0..*</text></g><!--link Device to ActuatorCatalogue--><g id="link_Device_ActuatorCatalogue"><path codeLine="159" d="M1314,280.8211 C1314,307.3711 1314,328.9811 1314,353.5511 " fill="none" id="Device-to-ActuatorCatalogue" style="stroke:#181818;stroke-width:1.0;stroke-dasharray:7.0,7.0;"/><polygon fill="#181818" points="1314,359.5511,1318,350.5511,1314,354.5511,1310,350.5511,1314,359.5511" style="stroke:#181818;stroke-width:1.0;"/><text fill="#000000" font-family="sans-serif" font-size="13" lengthAdjust="spacing" textLength="42" x="1315" y="325.6494">&#171;uses&#187;</text></g><!--link SwitchActuator to ActuatorFunctionality--><g id="link_SwitchActuator_ActuatorFunctionality"><path codeLine="160" d="M1820.91,1025.8611 C1842.23,1132.9111 1861.08,1314.7611 1782,1441.6211 C1750.88,1491.5511 1691.66,1522.1411 1641.52,1540.0611 " fill="none" id="SwitchActuator-ActuatorFunctionality" style="stroke:#181818;stroke-width:1.0;"/><text fill="#000000" font-family="sans-serif" font-size="13" lengthAdjust="spacing" textLength="21" x="1840" y="1292.6494">has</text></g><!--link BlindSetterActuator to ActuatorFunctionality--><g id="link_BlindSetterActuator_ActuatorFunctionality"><path codeLine="161" d="M1343.51,1025.7611 C1285.37,1132.3011 1212.01,1313.2411 1294,1441.6211 C1332.11,1501.2911 1408.03,1531.9811 1468.22,1547.4811 " fill="none" id="BlindSetterActuator-ActuatorFunctionality" style="stroke:#181818;stroke-width:1.0;"/><text fill="#000000" font-family="sans-serif" font-size="13" lengthAdjust="spacing" textLength="21" x="1295" y="1292.6494">has</text></g><!--link IntegerSetterActuator to ActuatorFunctionality--><g id="link_IntegerSetterActuator_ActuatorFunctionality"><path codeLine="162" d="M1018.99,1035.3611 C1046.82,1147.8811 1107.75,1331.3311 1226,1441.6211 C1293.2,1504.3011 1395.59,1535.1311 1468.28,1549.8811 " fill="none" id="IntegerSetterActuator-ActuatorFunctionality" style="stroke:#181818;stroke-width:1.0;"/><text fill="#000000" font-family="sans-serif" font-size="13" lengthAdjust="spacing" textLength="21" x="1227" y="1292.6494">has</text></g><!--link DecimalSetterActuator to ActuatorFunctionality--><g id="link_DecimalSetterActuator_ActuatorFunctionality"><path codeLine="163" d="M2140.12,1053.8411 C2089.07,1167.0411 1997.36,1336.9211 1870,1441.6211 C1803.48,1496.3111 1709.49,1528.0911 1641.51,1545.2311 " fill="none" id="DecimalSetterActuator-ActuatorFunctionality" style="stroke:#181818;stroke-width:1.0;"/><text fill="#000000" font-family="sans-serif" font-size="13" lengthAdjust="spacing" textLength="21" x="2102" y="1292.6494">has</text></g><!--link SwitchActuator to ActuatorProperties--><g id="link_SwitchActuator_ActuatorProperties"><path codeLine="164" d="M1735.59,1026.0111 C1712.37,1058.3811 1685.38,1096.0111 1659.25,1132.4311 " fill="none" id="SwitchActuator-ActuatorProperties" style="stroke:#181818;stroke-width:1.0;"/><text fill="#000000" font-family="sans-serif" font-size="13" lengthAdjust="spacing" textLength="21" x="1689" y="1098.6494">has</text></g><!--link BlindSetterActuator to ActuatorProperties--><g id="link_BlindSetterActuator_ActuatorProperties"><path codeLine="165" d="M1436.3,1026.0111 C1450.32,1058.3811 1466.63,1096.0111 1482.41,1132.4311 " fill="none" id="BlindSetterActuator-ActuatorProperties" style="stroke:#181818;stroke-width:1.0;"/><text fill="#000000" font-family="sans-serif" font-size="13" lengthAdjust="spacing" textLength="21" x="1469" y="1098.6494">has</text></g><!--link IntegerSetterActuator to ActuatorProperties--><g id="link_IntegerSetterActuator_ActuatorProperties"><path codeLine="166" d="M1153.34,1035.3011 C1202.46,1066.4011 1257.02,1100.9511 1307,1132.6211 C1315.83,1138.2111 1324.83,1143.9211 1333.93,1149.6911 " fill="none" id="IntegerSetterActuator-ActuatorProperties" style="stroke:#181818;stroke-width:1.0;"/><text fill="#000000" font-family="sans-serif" font-size="13" lengthAdjust="spacing" textLength="21" x="1257" y="1098.6494">has</text></g><!--link DecimalSetterActuator to ActuatorProperties--><g id="link_DecimalSetterActuator_ActuatorProperties"><path codeLine="167" d="M2017.33,1044.7811 C2011.53,1047.8311 2005.74,1050.7911 2000,1053.6211 C1910.94,1097.5511 1879.83,1088.2411 1791,1132.6211 C1782.1,1137.0711 1773.11,1141.7611 1764.1,1146.6211 " fill="none" id="DecimalSetterActuator-ActuatorProperties" style="stroke:#181818;stroke-width:1.0;"/><text fill="#000000" font-family="sans-serif" font-size="13" lengthAdjust="spacing" textLength="21" x="1925" y="1098.6494">has</text></g><!--SRC=[lHZRRjisz5rVGUHbsM8vwnwrm83hkAs190rYfyEm30KZqJO1IJH4AcvHzDzt3YyITPljjcWU8khSxpoMuYfbv77vwe-8J2MXv5xiMK4U9VpxHnHaccGyvr8LL8dYtn5Pa3tD5L62q2GXD2SqLYNYD2Wdx1CGytn34lR2OqOuK912Y6nCLbj69Cibq6QbLEIP4R46R2OIbkgZnwu-xmpQYXy7lsoLsideydANWWLbbevZaLt6APKoJ3ZT53GB0lqAHYTtR3-rh2jnhMsPYLmL8at1ioz1k1MbP15vXuyWT6fcLD5KR4h0JDkW8Bobkwi7yELwzNv4y33Hhabud-O90kIVXifer7JcEB41iRG62DGN6wQGyGRy1jJvhn71erCpqGI6sf5Ob5ODJyTHgJGybTdlrzCNobFwdBAbZluCOyHafMgf2eWuS456sp4xhwHQ-z4bmr2bHiiRFUMa1R-Z6HjLORmln8uLYZDP4TGWCELPY9JHFFZgabXhXcmPvIWnicgym20OlR68IeBEBNAd8gQAYnmSjgSWB6pG8-B2tyW5ogiGbKI4e41aRXWJhbC17fVPCoiYA7e59lCCmWswP4IkgxDpnQYk4zlACwhtaAsW34J4mcwndsgWQJcZp-HR0oPrqNiubot0IaLLAL4EFhLzKu-XAf-QvI8k65NC0Q3CeH6hIkgjZgUyqsQaqui-sQ4oSdH1oAKxBt9jS8y1pRg3jB5YJI6-ZXC2xVlTAZGVzQRCOomicdBr-Tmpf850BImlituiQ2FmztfnDttu- -FohyLgzcwaGVVpXzdyRZLzE_-udAzMymS3Njojvc_d3mtOzNosk9tUM5XTETquV_76dXa9hO40VKCJc9fhld71M_EKtLEr1GTV14_QANzJYAnISDux9o2NtpKdlZd1VhQ6Hc2hps2Ix_HjSM4w2sePvg_jGGEg-XGmZWoEsfwwWKdTzC3mbFTV4SqvKoadv0BdZL6k9n2-slc4QZi4AQeixA5IsBovcihCc2MaEza0fcURcMhmbh9yexOHIKG9Lmf2zZnf0hQCRxRAWs3ikrEwss_B7OlvciSBm6p0UVP9iJofYnSo8UiiEkeFD8Lg0sb4DlaFjRSJS0sFZAOTTPXvM5cKnHiznYdoWYzzzzPoprMyhKJmR9SocFvA3dhfDM9pdZle2fQXeOdIdjDXjskYdkRgcMlacC56XkmuBJ6a9t2lKvudIwOWIoT4xs3m6cP6X0v4qJVPtk3V7CdJRWZCRc_uN7qq8lXXgEuizSa19AT6SA0EZunM28t3yLQ1tnHbZ6j2iIcrWOSsX6Cto1zxOt_7m75NYHuUn-V5JQEVd1T52uYEhNyxkNzEibQrPio3rVtZqzWtndEs7-oe7byW9oLUopSyumgIRYT5YZ-QMx2QpkgjergJTr2x0Y1I_rRHKeOJWENNi0N3Zy26CPvV7Lco4cRDS47fc8wYBQvZ-mWD9PNThTm- -XPYUj0hHDpuLlg8nxRoLatSj0reuU-T9Kuev3Cu-4KW3EsdW6CeSMCwWj3kTOSfn-D9O-ECoDKLs28daw2nYDPqiAzvH4Sfg7TAZzDRD1tDYQB3dWybTaC-UtM6qJhxVJp-xQmYYyYMIXAR3PoeBLNUC7IiQCoq-qscCgkrP8LXVzjhNK7VOX7-Fql_PNg0gN_I7s0QziGVsCDk398FkJ38C6J-8CD_]--></g></svg>