<?xml version="1.0" encoding="us-ascii" standalone="no"?><svg xmlns="http://www.w3.org/2000/svg" xmlns:xlink="http://www.w3.org/1999/xlink" contentStyleType="text/css" height="671px" preserveAspectRatio="none" style="width:808px;height:671px;background:#FFFFFF;" version="1.1" viewBox="0 0 808 671" width="808px" zoomAndPan="magnify"><defs/><g><text fill="#000000" font-family="sans-serif" font-size="14" font-weight="bold" lengthAdjust="spacing" textLength="100" x="351" y="30.1074">Update Object</text><rect fill="#D3D3D3" height="522.5977" style="stroke:#181818;stroke-width:0.5;" width="719" x="83" y="45.6211"/><text fill="#000000" font-family="sans-serif" font-size="13" font-weight="bold" lengthAdjust="spacing" textLength="76" x="404.5" y="59.6494">&#171;Container&#187;</text><text fill="#000000" font-family="sans-serif" font-size="13" font-weight="bold" lengthAdjust="spacing" textLength="46" x="404.5" y="76.9404">:Server</text><line style="stroke:#181818;stroke-width:0.5;stroke-dasharray:5.0,5.0;" x1="142" x2="142" y1="136.4453" y2="512.9766"/><line style="stroke:#181818;stroke-width:0.5;stroke-dasharray:5.0,5.0;" x1="379" x2="379" y1="209.5469" y2="512.9766"/><line style="stroke:#181818;stroke-width:0.5;stroke-dasharray:5.0,5.0;" x1="499" x2="499" y1="136.4453" y2="512.9766"/><line style="stroke:#181818;stroke-width:0.5;stroke-dasharray:5.0,5.0;" x1="622" x2="622" y1="136.4453" y2="512.9766"/><line style="stroke:#181818;stroke-width:0.5;stroke-dasharray:5.0,5.0;" x1="743" x2="743" y1="136.4453" y2="512.9766"/><rect fill="#FFFFFF" height="51.2422" rx="2.5" ry="2.5" style="stroke:#181818;stroke-width:0.5;" width="110" x="87" y="84.2031"/><text fill="#000000" font-family="sans-serif" font-size="14" font-style="italic" lengthAdjust="spacing" textLength="96" x="94" y="106.3105">&#171;Components&#187;</text><text fill="#000000" font-family="sans-serif" font-size="14" lengthAdjust="spacing" textLength="66" x="109" y="124.9316">:Controller</text><rect fill="#FFFFFF" height="51.2422" rx="2.5" ry="2.5" style="stroke:#181818;stroke-width:0.5;" width="110" x="87" y="511.9766"/><text fill="#000000" font-family="sans-serif" font-size="14" font-style="italic" lengthAdjust="spacing" textLength="96" x="94" y="534.084">&#171;Components&#187;</text><text fill="#000000" font-family="sans-serif" font-size="14" lengthAdjust="spacing" textLength="66" x="109" y="552.7051">:Controller</text><rect fill="#FFFFFF" height="32.6211" rx="2.5" ry="2.5" style="stroke:#181818;stroke-width:0.5;" width="110" x="324" y="511.9766"/><text fill="#000000" font-family="sans-serif" font-size="14" lengthAdjust="spacing" textLength="96" x="331" y="534.084">vo:ValueObject</text><rect fill="#FFFFFF" height="51.2422" rx="2.5" ry="2.5" style="stroke:#181818;stroke-width:0.5;" width="110" x="444" y="84.2031"/><text fill="#000000" font-family="sans-serif" font-size="14" font-style="italic" lengthAdjust="spacing" textLength="96" x="451" y="106.3105">&#171;Components&#187;</text><text fill="#000000" font-family="sans-serif" font-size="14" lengthAdjust="spacing" textLength="51" x="473.5" y="124.9316">:Service</text><rect fill="#FFFFFF" height="51.2422" rx="2.5" ry="2.5" style="stroke:#181818;stroke-width:0.5;" width="110" x="444" y="511.9766"/><text fill="#000000" font-family="sans-serif" font-size="14" font-style="italic" lengthAdjust="spacing" textLength="96" x="451" y="534.084">&#171;Components&#187;</text><text fill="#000000" font-family="sans-serif" font-size="14" lengthAdjust="spacing" textLength="51" x="473.5" y="552.7051">:Service</text><rect fill="#FFFFFF" height="51.2422" rx="2.5" ry="2.5" style="stroke:#181818;stroke-width:0.5;" width="112" x="566" y="84.2031"/><text fill="#000000" font-family="sans-serif" font-size="14" font-style="italic" lengthAdjust="spacing" textLength="96" x="574" y="106.3105">&#171;Components&#187;</text><text fill="#000000" font-family="sans-serif" font-size="14" lengthAdjust="spacing" textLength="98" x="573" y="124.9316">domain:Domain</text><rect fill="#FFFFFF" height="51.2422" rx="2.5" ry="2.5" style="stroke:#181818;stroke-width:0.5;" width="112" x="566" y="511.9766"/><text fill="#000000" font-family="sans-serif" font-size="14" font-style="italic" lengthAdjust="spacing" textLength="96" x="574" y="534.084">&#171;Components&#187;</text><text fill="#000000" font-family="sans-serif" font-size="14" lengthAdjust="spacing" textLength="98" x="573" y="552.7051">domain:Domain</text><rect fill="#FFFFFF" height="51.2422" rx="2.5" ry="2.5" style="stroke:#181818;stroke-width:0.5;" width="110" x="688" y="84.2031"/><text fill="#000000" font-family="sans-serif" font-size="14" font-style="italic" lengthAdjust="spacing" textLength="96" x="695" y="106.3105">&#171;Components&#187;</text><text fill="#000000" font-family="sans-serif" font-size="14" lengthAdjust="spacing" textLength="72" x="707" y="124.9316">:Repository</text><rect fill="#FFFFFF" height="51.2422" rx="2.5" ry="2.5" style="stroke:#181818;stroke-width:0.5;" width="110" x="688" y="511.9766"/><text fill="#000000" font-family="sans-serif" font-size="14" font-style="italic" lengthAdjust="spacing" textLength="96" x="695" y="534.084">&#171;Components&#187;</text><text fill="#000000" font-family="sans-serif" font-size="14" lengthAdjust="spacing" textLength="72" x="707" y="552.7051">:Repository</text><ellipse cx="7.5" cy="168.9863" fill="none" rx="4" ry="4" style="stroke:#181818;stroke-width:1.5;"/><polygon fill="#181818" points="130,165.7363,140,169.7363,130,173.7363,134,169.7363" style="stroke:#181818;stroke-width:1.0;"/><line style="stroke:#181818;stroke-width:1.0;" x1="12" x2="136" y1="169.7363" y2="169.7363"/><text fill="#000000" font-family="sans-serif" font-size="13" font-weight="bold" lengthAdjust="spacing" textLength="7" x="20" y="164.4736">1</text><text fill="#000000" font-family="sans-serif" font-size="13" lengthAdjust="spacing" textLength="99" x="31" y="164.4736">update an Object</text><polygon fill="#181818" points="312,197.0273,322,201.0273,312,205.0273,316,201.0273" style="stroke:#181818;stroke-width:1.0;"/><line style="stroke:#181818;stroke-width:1.0;" x1="142" x2="318" y1="201.0273" y2="201.0273"/><text fill="#000000" font-family="sans-serif" font-size="13" font-weight="bold" lengthAdjust="spacing" textLength="7" x="154" y="195.7646">2</text><text fill="#000000" font-family="sans-serif" font-size="13" lengthAdjust="spacing" textLength="147" x="165" y="195.7646">create VOs from Request</text><rect fill="#FFFFFF" height="32.6211" rx="2.5" ry="2.5" style="stroke:#181818;stroke-width:0.5;" width="110" x="324" y="177.7363"/><text fill="#000000" font-family="sans-serif" font-size="14" lengthAdjust="spacing" textLength="96" x="331" y="199.8438">vo:ValueObject</text><polygon fill="#181818" points="487,240.6484,497,244.6484,487,248.6484,491,244.6484" style="stroke:#181818;stroke-width:1.0;"/><line style="stroke:#181818;stroke-width:1.0;" x1="142" x2="493" y1="244.6484" y2="244.6484"/><text fill="#000000" font-family="sans-serif" font-size="13" font-weight="bold" lengthAdjust="spacing" textLength="7" x="269.5" y="239.3857">3</text><text fill="#000000" font-family="sans-serif" font-size="13" lengthAdjust="spacing" textLength="91" x="280.5" y="239.3857">update(VOs,int)</text><polygon fill="#181818" points="731,271.9395,741,275.9395,731,279.9395,735,275.9395" style="stroke:#181818;stroke-width:1.0;"/><line style="stroke:#181818;stroke-width:1.0;" x1="499" x2="737" y1="275.9395" y2="275.9395"/><text fill="#000000" font-family="sans-serif" font-size="13" font-weight="bold" lengthAdjust="spacing" textLength="7" x="583.5" y="270.6768">4</text><text fill="#000000" font-family="sans-serif" font-size="13" lengthAdjust="spacing" textLength="64" x="594.5" y="270.6768">findById(id)</text><polygon fill="#181818" points="510,303.2305,500,307.2305,510,311.2305,506,307.2305" style="stroke:#181818;stroke-width:1.0;"/><line style="stroke:#181818;stroke-width:1.0;stroke-dasharray:2.0,2.0;" x1="504" x2="742" y1="307.2305" y2="307.2305"/><text fill="#000000" font-family="sans-serif" font-size="13" font-weight="bold" lengthAdjust="spacing" textLength="7" x="578" y="301.9678">5</text><text fill="#000000" font-family="sans-serif" font-size="13" lengthAdjust="spacing" textLength="75" x="589" y="301.9678">return Object</text><polygon fill="#181818" points="610,334.5215,620,338.5215,610,342.5215,614,338.5215" style="stroke:#181818;stroke-width:1.0;"/><line style="stroke:#181818;stroke-width:1.0;" x1="499" x2="616" y1="338.5215" y2="338.5215"/><text fill="#000000" font-family="sans-serif" font-size="13" font-weight="bold" lengthAdjust="spacing" textLength="7" x="512.5" y="333.2588">6</text><text fill="#000000" font-family="sans-serif" font-size="13" lengthAdjust="spacing" textLength="85" x="523.5" y="333.2588">update(Object)</text><polygon fill="#181818" points="510,365.8125,500,369.8125,510,373.8125,506,369.8125" style="stroke:#181818;stroke-width:1.0;"/><line style="stroke:#181818;stroke-width:1.0;stroke-dasharray:2.0,2.0;" x1="504" x2="621" y1="369.8125" y2="369.8125"/><text fill="#000000" font-family="sans-serif" font-size="13" font-weight="bold" lengthAdjust="spacing" textLength="7" x="511" y="364.5498">7</text><text fill="#000000" font-family="sans-serif" font-size="13" lengthAdjust="spacing" textLength="88" x="522" y="364.5498">updated Object</text><polygon fill="#181818" points="731,397.1035,741,401.1035,731,405.1035,735,401.1035" style="stroke:#181818;stroke-width:1.0;"/><line style="stroke:#181818;stroke-width:1.0;" x1="499" x2="737" y1="401.1035" y2="401.1035"/><text fill="#000000" font-family="sans-serif" font-size="13" font-weight="bold" lengthAdjust="spacing" textLength="7" x="556.5" y="395.8408">8</text><text fill="#000000" font-family="sans-serif" font-size="13" lengthAdjust="spacing" textLength="118" x="567.5" y="395.8408">save updated Object</text><polygon fill="#181818" points="510,428.3945,500,432.3945,510,436.3945,506,432.3945" style="stroke:#181818;stroke-width:1.0;"/><line style="stroke:#181818;stroke-width:1.0;stroke-dasharray:2.0,2.0;" x1="504" x2="742" y1="432.3945" y2="432.3945"/><text fill="#000000" font-family="sans-serif" font-size="13" font-weight="bold" lengthAdjust="spacing" textLength="7" x="593" y="427.1318">9</text><text fill="#000000" font-family="sans-serif" font-size="13" lengthAdjust="spacing" textLength="45" x="604" y="427.1318">boolean</text><polygon fill="#181818" points="153,459.6855,143,463.6855,153,467.6855,149,463.6855" style="stroke:#181818;stroke-width:1.0;"/><line style="stroke:#181818;stroke-width:1.0;stroke-dasharray:2.0,2.0;" x1="147" x2="498" y1="463.6855" y2="463.6855"/><text fill="#000000" font-family="sans-serif" font-size="13" font-weight="bold" lengthAdjust="spacing" textLength="14" x="289" y="458.4229">10</text><text fill="#000000" font-family="sans-serif" font-size="13" lengthAdjust="spacing" textLength="45" x="307" y="458.4229">boolean</text><ellipse cx="7.5" cy="494.2266" fill="none" rx="4" ry="4" style="stroke:#181818;stroke-width:1.5;"/><polygon fill="#181818" points="24.5,490.9766,14.5,494.9766,24.5,498.9766,20.5,494.9766" style="stroke:#181818;stroke-width:1.0;"/><line style="stroke:#181818;stroke-width:1.0;stroke-dasharray:2.0,2.0;" x1="22.5" x2="141" y1="494.9766" y2="494.9766"/><text fill="#000000" font-family="sans-serif" font-size="13" font-weight="bold" lengthAdjust="spacing" textLength="14" x="43.5" y="489.7139">11</text><text fill="#000000" font-family="sans-serif" font-size="13" lengthAdjust="spacing" textLength="45" x="61.5" y="489.7139">boolean</text><rect fill="#DDDDDD" height="69.8633" id="_legend" rx="7.5" ry="7.5" style="stroke:#000000;stroke-width:1.0;" width="284" x="259" y="581.2188"/><text fill="#000000" font-family="sans-serif" font-size="14" font-weight="bold" lengthAdjust="spacing" textLength="225" x="264" y="601.3262">This request can be included in:</text><text fill="#000000" font-family="sans-serif" font-size="14" font-weight="bold" lengthAdjust="spacing" textLength="162" x="268" y="621.9473">Request update Object</text><text fill="#000000" font-family="sans-serif" font-size="14" font-weight="bold" lengthAdjust="spacing" textLength="71" x="463" y="621.9473">Response</text><text fill="#000000" font-family="sans-serif" font-size="14" font-weight="bold" lengthAdjust="spacing" textLength="187" x="268" y="640.5684">Close blind roller  (UC37.2)</text><text fill="#000000" font-family="sans-serif" font-size="14" font-weight="bold" lengthAdjust="spacing" textLength="57" x="467" y="640.5684">boolean</text><line style="stroke:#000000;stroke-width:1.0;" x1="264" x2="538" y1="606.8398" y2="606.8398"/><line style="stroke:#000000;stroke-width:1.0;" x1="264" x2="538" y1="625.4609" y2="625.4609"/><line style="stroke:#000000;stroke-width:1.0;" x1="264" x2="538" y1="644.082" y2="644.082"/><line style="stroke:#000000;stroke-width:1.0;" x1="264" x2="264" y1="606.8398" y2="644.082"/><line style="stroke:#000000;stroke-width:1.0;" x1="459" x2="459" y1="606.8398" y2="644.082"/><line style="stroke:#000000;stroke-width:1.0;" x1="538" x2="538" y1="606.8398" y2="644.082"/><!--SRC=[bLBBRjim4BppAnRknHQg7Df30S4La3X0Mg150BV99RrGv5fcGt5Lab9h81zVKhGKnysh5udap2o7i-kLrmXNhUGUuRBwYS8pvcwLQRdb3JZyrQ4H-1MTupMUQbKR46WysWCM5vxi6HUtjQNEo1Lfil1xgpmUaCBNAw5QRlnBrF7MDMxGniL_2puXbsXVAxi8dFPnCcCL_O7PShaYuxaoQCloXoc-eUtHpk3D5rLl_ON57Jju7yoAIBUaTIHn1sBQGYpLj6H2YAui7yfwAgwvxZ0rOb3sT5GvNgq43g1BwsThIcg2x-9y-0sgTFAig5XZIqw5jku6YGtROm4Q2I4SndZdoNHD5MQ2tL1U7ZosW2wD5ZVZTDsZUTbJbWMEi1WvrvSEDfOQMCU-k8VKyQbZnNbWlrN6BzWUoSl1P04RPUJPxhESApc1iCppFMpHTtPoCudteKpb4xvWwJp_ru0yAW6J0STxV89qRwCYqiZDPE0ejX4EWGRDuv36ElN0UseOPDdthOgj6i834IAl49GHkfF1I9Y1B6Dmzt6CTsnDSfW05zhh4Eu6tafJM5Swv0dxss5-jNh_uUJT8kAZaq2FFf8Tnlu2]--></g></svg>