<?xml version="1.0" encoding="us-ascii" standalone="no"?><svg xmlns="http://www.w3.org/2000/svg" xmlns:xlink="http://www.w3.org/1999/xlink" contentStyleType="text/css" height="770px" preserveAspectRatio="none" style="width:987px;height:770px;background:#FFFFFF;" version="1.1" viewBox="0 0 987 770" width="987px" zoomAndPan="magnify"><defs/><g><text fill="#000000" font-family="sans-serif" font-size="14" font-weight="bold" lengthAdjust="spacing" textLength="100" x="440.5" y="30.1074">Update Object</text><rect fill="#D3D3D3" height="584.8398" style="stroke:#181818;stroke-width:0.5;" width="827" x="154" y="45.6211"/><text fill="#000000" font-family="sans-serif" font-size="13" font-weight="bold" lengthAdjust="spacing" textLength="76" x="529.5" y="59.6494">&#171;Container&#187;</text><text fill="#000000" font-family="sans-serif" font-size="13" font-weight="bold" lengthAdjust="spacing" textLength="46" x="529.5" y="76.9404">:Server</text><line style="stroke:#181818;stroke-width:0.5;stroke-dasharray:5.0,5.0;" x1="213" x2="213" y1="136.4453" y2="575.2188"/><line style="stroke:#181818;stroke-width:0.5;stroke-dasharray:5.0,5.0;" x1="438" x2="438" y1="512.8066" y2="575.2188"/><line style="stroke:#181818;stroke-width:0.5;stroke-dasharray:5.0,5.0;" x1="558" x2="558" y1="209.5469" y2="575.2188"/><line style="stroke:#181818;stroke-width:0.5;stroke-dasharray:5.0,5.0;" x1="678" x2="678" y1="136.4453" y2="575.2188"/><line style="stroke:#181818;stroke-width:0.5;stroke-dasharray:5.0,5.0;" x1="801" x2="801" y1="136.4453" y2="575.2188"/><line style="stroke:#181818;stroke-width:0.5;stroke-dasharray:5.0,5.0;" x1="922" x2="922" y1="136.4453" y2="575.2188"/><rect fill="#FFFFFF" height="51.2422" rx="2.5" ry="2.5" style="stroke:#181818;stroke-width:0.5;" width="110" x="158" y="84.2031"/><text fill="#000000" font-family="sans-serif" font-size="14" font-style="italic" lengthAdjust="spacing" textLength="96" x="165" y="106.3105">&#171;Components&#187;</text><text fill="#000000" font-family="sans-serif" font-size="14" lengthAdjust="spacing" textLength="66" x="180" y="124.9316">:Controller</text><rect fill="#FFFFFF" height="51.2422" rx="2.5" ry="2.5" style="stroke:#181818;stroke-width:0.5;" width="110" x="158" y="574.2188"/><text fill="#000000" font-family="sans-serif" font-size="14" font-style="italic" lengthAdjust="spacing" textLength="96" x="165" y="596.3262">&#171;Components&#187;</text><text fill="#000000" font-family="sans-serif" font-size="14" lengthAdjust="spacing" textLength="66" x="180" y="614.9473">:Controller</text><rect fill="#FFFFFF" height="51.2422" rx="2.5" ry="2.5" style="stroke:#181818;stroke-width:0.5;" width="110" x="383" y="574.2188"/><text fill="#000000" font-family="sans-serif" font-size="14" font-style="italic" lengthAdjust="spacing" textLength="96" x="390" y="596.3262">&#171;Components&#187;</text><text fill="#000000" font-family="sans-serif" font-size="14" lengthAdjust="spacing" textLength="34" x="421" y="614.9473">:DTO</text><rect fill="#FFFFFF" height="32.6211" rx="2.5" ry="2.5" style="stroke:#181818;stroke-width:0.5;" width="110" x="503" y="574.2188"/><text fill="#000000" font-family="sans-serif" font-size="14" lengthAdjust="spacing" textLength="96" x="510" y="596.3262">vo:ValueObject</text><rect fill="#FFFFFF" height="51.2422" rx="2.5" ry="2.5" style="stroke:#181818;stroke-width:0.5;" width="110" x="623" y="84.2031"/><text fill="#000000" font-family="sans-serif" font-size="14" font-style="italic" lengthAdjust="spacing" textLength="96" x="630" y="106.3105">&#171;Components&#187;</text><text fill="#000000" font-family="sans-serif" font-size="14" lengthAdjust="spacing" textLength="51" x="652.5" y="124.9316">:Service</text><rect fill="#FFFFFF" height="51.2422" rx="2.5" ry="2.5" style="stroke:#181818;stroke-width:0.5;" width="110" x="623" y="574.2188"/><text fill="#000000" font-family="sans-serif" font-size="14" font-style="italic" lengthAdjust="spacing" textLength="96" x="630" y="596.3262">&#171;Components&#187;</text><text fill="#000000" font-family="sans-serif" font-size="14" lengthAdjust="spacing" textLength="51" x="652.5" y="614.9473">:Service</text><rect fill="#FFFFFF" height="51.2422" rx="2.5" ry="2.5" style="stroke:#181818;stroke-width:0.5;" width="112" x="745" y="84.2031"/><text fill="#000000" font-family="sans-serif" font-size="14" font-style="italic" lengthAdjust="spacing" textLength="96" x="753" y="106.3105">&#171;Components&#187;</text><text fill="#000000" font-family="sans-serif" font-size="14" lengthAdjust="spacing" textLength="98" x="752" y="124.9316">domain:Domain</text><rect fill="#FFFFFF" height="51.2422" rx="2.5" ry="2.5" style="stroke:#181818;stroke-width:0.5;" width="112" x="745" y="574.2188"/><text fill="#000000" font-family="sans-serif" font-size="14" font-style="italic" lengthAdjust="spacing" textLength="96" x="753" y="596.3262">&#171;Components&#187;</text><text fill="#000000" font-family="sans-serif" font-size="14" lengthAdjust="spacing" textLength="98" x="752" y="614.9473">domain:Domain</text><rect fill="#FFFFFF" height="51.2422" rx="2.5" ry="2.5" style="stroke:#181818;stroke-width:0.5;" width="110" x="867" y="84.2031"/><text fill="#000000" font-family="sans-serif" font-size="14" font-style="italic" lengthAdjust="spacing" textLength="96" x="874" y="106.3105">&#171;Components&#187;</text><text fill="#000000" font-family="sans-serif" font-size="14" lengthAdjust="spacing" textLength="72" x="886" y="124.9316">:Repository</text><rect fill="#FFFFFF" height="51.2422" rx="2.5" ry="2.5" style="stroke:#181818;stroke-width:0.5;" width="110" x="867" y="574.2188"/><text fill="#000000" font-family="sans-serif" font-size="14" font-style="italic" lengthAdjust="spacing" textLength="96" x="874" y="596.3262">&#171;Components&#187;</text><text fill="#000000" font-family="sans-serif" font-size="14" lengthAdjust="spacing" textLength="72" x="886" y="614.9473">:Repository</text><ellipse cx="7.5" cy="168.9863" fill="none" rx="4" ry="4" style="stroke:#181818;stroke-width:1.5;"/><polygon fill="#181818" points="201,165.7363,211,169.7363,201,173.7363,205,169.7363" style="stroke:#181818;stroke-width:1.0;"/><line style="stroke:#181818;stroke-width:1.0;" x1="12" x2="207" y1="169.7363" y2="169.7363"/><text fill="#000000" font-family="sans-serif" font-size="13" font-weight="bold" lengthAdjust="spacing" textLength="7" x="64.5" y="164.4736">1</text><text fill="#000000" font-family="sans-serif" font-size="13" lengthAdjust="spacing" textLength="81" x="75.5" y="164.4736">update Object</text><polygon fill="#181818" points="491,197.0273,501,201.0273,491,205.0273,495,201.0273" style="stroke:#181818;stroke-width:1.0;"/><line style="stroke:#181818;stroke-width:1.0;" x1="213" x2="497" y1="201.0273" y2="201.0273"/><text fill="#000000" font-family="sans-serif" font-size="13" font-weight="bold" lengthAdjust="spacing" textLength="7" x="279" y="195.7646">2</text><text fill="#000000" font-family="sans-serif" font-size="13" lengthAdjust="spacing" textLength="147" x="290" y="195.7646">create VOs from Request</text><rect fill="#FFFFFF" height="32.6211" rx="2.5" ry="2.5" style="stroke:#181818;stroke-width:0.5;" width="110" x="503" y="177.7363"/><text fill="#000000" font-family="sans-serif" font-size="14" lengthAdjust="spacing" textLength="96" x="510" y="199.8438">vo:ValueObject</text><polygon fill="#181818" points="666,240.6484,676,244.6484,666,248.6484,670,244.6484" style="stroke:#181818;stroke-width:1.0;"/><line style="stroke:#181818;stroke-width:1.0;" x1="213" x2="672" y1="244.6484" y2="244.6484"/><text fill="#000000" font-family="sans-serif" font-size="13" font-weight="bold" lengthAdjust="spacing" textLength="7" x="403.5" y="239.3857">3</text><text fill="#000000" font-family="sans-serif" font-size="13" lengthAdjust="spacing" textLength="73" x="414.5" y="239.3857">update(VOs)</text><polygon fill="#181818" points="910,271.9395,920,275.9395,910,279.9395,914,275.9395" style="stroke:#181818;stroke-width:1.0;"/><line style="stroke:#181818;stroke-width:1.0;" x1="678" x2="916" y1="275.9395" y2="275.9395"/><text fill="#000000" font-family="sans-serif" font-size="13" font-weight="bold" lengthAdjust="spacing" textLength="7" x="762.5" y="270.6768">4</text><text fill="#000000" font-family="sans-serif" font-size="13" lengthAdjust="spacing" textLength="64" x="773.5" y="270.6768">findById(id)</text><polygon fill="#181818" points="689,303.2305,679,307.2305,689,311.2305,685,307.2305" style="stroke:#181818;stroke-width:1.0;"/><line style="stroke:#181818;stroke-width:1.0;stroke-dasharray:2.0,2.0;" x1="683" x2="921" y1="307.2305" y2="307.2305"/><text fill="#000000" font-family="sans-serif" font-size="13" font-weight="bold" lengthAdjust="spacing" textLength="7" x="757" y="301.9678">5</text><text fill="#000000" font-family="sans-serif" font-size="13" lengthAdjust="spacing" textLength="75" x="768" y="301.9678">return Object</text><polygon fill="#181818" points="789,334.5215,799,338.5215,789,342.5215,793,338.5215" style="stroke:#181818;stroke-width:1.0;"/><line style="stroke:#181818;stroke-width:1.0;" x1="678" x2="795" y1="338.5215" y2="338.5215"/><text fill="#000000" font-family="sans-serif" font-size="13" font-weight="bold" lengthAdjust="spacing" textLength="7" x="691.5" y="333.2588">6</text><text fill="#000000" font-family="sans-serif" font-size="13" lengthAdjust="spacing" textLength="85" x="702.5" y="333.2588">update(Object)</text><polygon fill="#181818" points="689,365.8125,679,369.8125,689,373.8125,685,369.8125" style="stroke:#181818;stroke-width:1.0;"/><line style="stroke:#181818;stroke-width:1.0;stroke-dasharray:2.0,2.0;" x1="683" x2="800" y1="369.8125" y2="369.8125"/><text fill="#000000" font-family="sans-serif" font-size="13" font-weight="bold" lengthAdjust="spacing" textLength="7" x="690" y="364.5498">7</text><text fill="#000000" font-family="sans-serif" font-size="13" lengthAdjust="spacing" textLength="88" x="701" y="364.5498">updated Object</text><polygon fill="#181818" points="910,397.1035,920,401.1035,910,405.1035,914,401.1035" style="stroke:#181818;stroke-width:1.0;"/><line style="stroke:#181818;stroke-width:1.0;" x1="678" x2="916" y1="401.1035" y2="401.1035"/><text fill="#000000" font-family="sans-serif" font-size="13" font-weight="bold" lengthAdjust="spacing" textLength="7" x="735.5" y="395.8408">8</text><text fill="#000000" font-family="sans-serif" font-size="13" lengthAdjust="spacing" textLength="118" x="746.5" y="395.8408">save updated Object</text><polygon fill="#181818" points="689,428.3945,679,432.3945,689,436.3945,685,432.3945" style="stroke:#181818;stroke-width:1.0;"/><line style="stroke:#181818;stroke-width:1.0;stroke-dasharray:2.0,2.0;" x1="683" x2="921" y1="432.3945" y2="432.3945"/><text fill="#000000" font-family="sans-serif" font-size="13" font-weight="bold" lengthAdjust="spacing" textLength="7" x="750.5" y="427.1318">9</text><text fill="#000000" font-family="sans-serif" font-size="13" lengthAdjust="spacing" textLength="88" x="761.5" y="427.1318">updated Object</text><polygon fill="#181818" points="224,459.6855,214,463.6855,224,467.6855,220,463.6855" style="stroke:#181818;stroke-width:1.0;"/><line style="stroke:#181818;stroke-width:1.0;stroke-dasharray:2.0,2.0;" x1="218" x2="677" y1="463.6855" y2="463.6855"/><text fill="#000000" font-family="sans-serif" font-size="13" font-weight="bold" lengthAdjust="spacing" textLength="14" x="366" y="458.4229">10</text><text fill="#000000" font-family="sans-serif" font-size="13" lengthAdjust="spacing" textLength="141" x="384" y="458.4229">updated Object/ boolean</text><polygon fill="#181818" points="371,490.9766,381,494.9766,371,498.9766,375,494.9766" style="stroke:#181818;stroke-width:1.0;"/><line style="stroke:#181818;stroke-width:1.0;" x1="213" x2="377" y1="494.9766" y2="494.9766"/><text fill="#000000" font-family="sans-serif" font-size="13" font-weight="bold" lengthAdjust="spacing" textLength="14" x="225" y="489.7139">11</text><text fill="#000000" font-family="sans-serif" font-size="13" lengthAdjust="spacing" textLength="128" x="243" y="489.7139">convert Object to DTO</text><rect fill="#FFFFFF" height="51.2422" rx="2.5" ry="2.5" style="stroke:#181818;stroke-width:0.5;" width="110" x="383" y="471.6855"/><text fill="#000000" font-family="sans-serif" font-size="14" font-style="italic" lengthAdjust="spacing" textLength="96" x="390" y="493.793">&#171;Components&#187;</text><text fill="#000000" font-family="sans-serif" font-size="14" lengthAdjust="spacing" textLength="34" x="421" y="512.4141">:DTO</text><ellipse cx="7.5" cy="556.4688" fill="none" rx="4" ry="4" style="stroke:#181818;stroke-width:1.5;"/><polygon fill="#181818" points="24.5,553.2188,14.5,557.2188,24.5,561.2188,20.5,557.2188" style="stroke:#181818;stroke-width:1.0;"/><line style="stroke:#181818;stroke-width:1.0;stroke-dasharray:2.0,2.0;" x1="22.5" x2="212" y1="557.2188" y2="557.2188"/><text fill="#000000" font-family="sans-serif" font-size="13" font-weight="bold" lengthAdjust="spacing" textLength="14" x="20" y="551.9561">12</text><text fill="#000000" font-family="sans-serif" font-size="13" lengthAdjust="spacing" textLength="163" x="38" y="551.9561">updated ObjectDTO/boolean</text><rect fill="#DDDDDD" height="107.1055" id="_legend" rx="7.5" ry="7.5" style="stroke:#000000;stroke-width:1.0;" width="337" x="322" y="643.4609"/><text fill="#000000" font-family="sans-serif" font-size="14" font-weight="bold" lengthAdjust="spacing" textLength="225" x="327" y="663.5684">This request can be included in:</text><text fill="#000000" font-family="sans-serif" font-size="14" font-weight="bold" lengthAdjust="spacing" textLength="162" x="331" y="684.1895">Request update Object</text><text fill="#000000" font-family="sans-serif" font-size="14" font-weight="bold" lengthAdjust="spacing" textLength="71" x="572" y="684.1895">Response</text><text fill="#000000" font-family="sans-serif" font-size="14" font-weight="bold" lengthAdjust="spacing" textLength="233" x="331" y="702.8105">Configure House Location (UC01)</text><text fill="#000000" font-family="sans-serif" font-size="14" font-weight="bold" lengthAdjust="spacing" textLength="74" x="572" y="702.8105">HouseDTO</text><text fill="#000000" font-family="sans-serif" font-size="14" font-weight="bold" lengthAdjust="spacing" textLength="133" x="331" y="721.4316">Edit Room (UC03.2)</text><text fill="#000000" font-family="sans-serif" font-size="14" font-weight="bold" lengthAdjust="spacing" textLength="69" x="572" y="721.4316">RoomDTO</text><text fill="#000000" font-family="sans-serif" font-size="14" font-weight="bold" lengthAdjust="spacing" textLength="178" x="331" y="740.0527">Deactivate Device (UC08)</text><text fill="#000000" font-family="sans-serif" font-size="14" font-weight="bold" lengthAdjust="spacing" textLength="57" x="572" y="740.0527">boolean</text><line style="stroke:#000000;stroke-width:1.0;" x1="327" x2="654" y1="669.082" y2="669.082"/><line style="stroke:#000000;stroke-width:1.0;" x1="327" x2="654" y1="687.7031" y2="687.7031"/><line style="stroke:#000000;stroke-width:1.0;" x1="327" x2="654" y1="706.3242" y2="706.3242"/><line style="stroke:#000000;stroke-width:1.0;" x1="327" x2="654" y1="724.9453" y2="724.9453"/><line style="stroke:#000000;stroke-width:1.0;" x1="327" x2="654" y1="743.5664" y2="743.5664"/><line style="stroke:#000000;stroke-width:1.0;" x1="327" x2="327" y1="669.082" y2="743.5664"/><line style="stroke:#000000;stroke-width:1.0;" x1="568" x2="568" y1="669.082" y2="743.5664"/><line style="stroke:#000000;stroke-width:1.0;" x1="654" x2="654" y1="669.082" y2="743.5664"/><!--SRC=[bPHDZzCm48Rl_XMZScaZXUNZWg8IYMtHBjAYIcLtBt1nusbgDlK4smbKsX_Fs4bAMrPbkIIsvvdNyvLuxIk4krf9Zx1OVSV22-4UjAcbbLjm-AD1K-1dT4wM-A7IfO42ZKTxGCd2axsKnKDfgJ5gHXLP-BdH7WyWVdfTw5eQ_ozqk7M9QxHXyTyEroWLskUwNJ5JFmsB5Vs2qNGw8-EbDcZp_9l9lg1jqOxWnOqkD_xAuauSf0UZBE2MgYf0qa6ntqAGsjPak8Okpq_SvhUBo2jFPy6MidjPDTWrBBgqTA8LOjG5HgFhrcSr5MqvmMmUNrqKSNa-uYNMv3ItVnTTB6zF7T0eu2eAsNWopNR5e_ELqloW9XaqHmFunvJcBIK90uN50Dml7AmjRM4PMkUEqI7BGMxCz4JqfsaUOyjWhOswt7rIOwtsHfYcQM-sw1jhXaZspdqjzjATVIAwy_JlozM91Em3SBB5KoYOdY6IFbcsWRhWCbE5qXnLXMUfgo0PdbdViy0JnjF6dU3KpsWoSp6e2b5XsNNJUzeAI9BRZGvDZxs0GXfO8MXJL8rY1Pwc917m-7xerd6REuFZGN48Zv7ZpsQjoyOYN5F3fpTKIA_9mFXkzkhr923Hm551x_9HQGzBuf48pDkNRo8L3XZga3do3qgtuUOvnle6z5q4-znOB2JMvIV4Rm00]--></g></svg>