<?xml version="1.0" encoding="us-ascii" standalone="no"?><svg xmlns="http://www.w3.org/2000/svg" xmlns:xlink="http://www.w3.org/1999/xlink" contentStyleType="text/css" height="671px" preserveAspectRatio="none" style="width:790px;height:671px;background:#FFFFFF;" version="1.1" viewBox="0 0 790 671" width="790px" zoomAndPan="magnify"><defs/><g><text fill="#000000" font-family="sans-serif" font-size="14" font-weight="bold" lengthAdjust="spacing" textLength="90" x="347" y="30.1074">PUT Request</text><rect fill="#D3D3D3" height="522.5977" style="stroke:#181818;stroke-width:0.5;" width="719" x="65" y="45.6211"/><text fill="#000000" font-family="sans-serif" font-size="13" font-weight="bold" lengthAdjust="spacing" textLength="76" x="386.5" y="59.6494">&#171;Container&#187;</text><text fill="#000000" font-family="sans-serif" font-size="13" font-weight="bold" lengthAdjust="spacing" textLength="46" x="386.5" y="76.9404">:Server</text><line style="stroke:#181818;stroke-width:0.5;stroke-dasharray:5.0,5.0;" x1="124" x2="124" y1="136.4453" y2="512.9766"/><line style="stroke:#181818;stroke-width:0.5;stroke-dasharray:5.0,5.0;" x1="361" x2="361" y1="209.5469" y2="512.9766"/><line style="stroke:#181818;stroke-width:0.5;stroke-dasharray:5.0,5.0;" x1="481" x2="481" y1="136.4453" y2="512.9766"/><line style="stroke:#181818;stroke-width:0.5;stroke-dasharray:5.0,5.0;" x1="604" x2="604" y1="136.4453" y2="512.9766"/><line style="stroke:#181818;stroke-width:0.5;stroke-dasharray:5.0,5.0;" x1="725" x2="725" y1="136.4453" y2="512.9766"/><rect fill="#FFFFFF" height="51.2422" rx="2.5" ry="2.5" style="stroke:#181818;stroke-width:0.5;" width="110" x="69" y="84.2031"/><text fill="#000000" font-family="sans-serif" font-size="14" font-style="italic" lengthAdjust="spacing" textLength="96" x="76" y="106.3105">&#171;Components&#187;</text><text fill="#000000" font-family="sans-serif" font-size="14" lengthAdjust="spacing" textLength="66" x="91" y="124.9316">:Controller</text><rect fill="#FFFFFF" height="51.2422" rx="2.5" ry="2.5" style="stroke:#181818;stroke-width:0.5;" width="110" x="69" y="511.9766"/><text fill="#000000" font-family="sans-serif" font-size="14" font-style="italic" lengthAdjust="spacing" textLength="96" x="76" y="534.084">&#171;Components&#187;</text><text fill="#000000" font-family="sans-serif" font-size="14" lengthAdjust="spacing" textLength="66" x="91" y="552.7051">:Controller</text><rect fill="#FFFFFF" height="32.6211" rx="2.5" ry="2.5" style="stroke:#181818;stroke-width:0.5;" width="110" x="306" y="511.9766"/><text fill="#000000" font-family="sans-serif" font-size="14" lengthAdjust="spacing" textLength="96" x="313" y="534.084">vo:ValueObject</text><rect fill="#FFFFFF" height="51.2422" rx="2.5" ry="2.5" style="stroke:#181818;stroke-width:0.5;" width="110" x="426" y="84.2031"/><text fill="#000000" font-family="sans-serif" font-size="14" font-style="italic" lengthAdjust="spacing" textLength="96" x="433" y="106.3105">&#171;Components&#187;</text><text fill="#000000" font-family="sans-serif" font-size="14" lengthAdjust="spacing" textLength="51" x="455.5" y="124.9316">:Service</text><rect fill="#FFFFFF" height="51.2422" rx="2.5" ry="2.5" style="stroke:#181818;stroke-width:0.5;" width="110" x="426" y="511.9766"/><text fill="#000000" font-family="sans-serif" font-size="14" font-style="italic" lengthAdjust="spacing" textLength="96" x="433" y="534.084">&#171;Components&#187;</text><text fill="#000000" font-family="sans-serif" font-size="14" lengthAdjust="spacing" textLength="51" x="455.5" y="552.7051">:Service</text><rect fill="#FFFFFF" height="51.2422" rx="2.5" ry="2.5" style="stroke:#181818;stroke-width:0.5;" width="112" x="548" y="84.2031"/><text fill="#000000" font-family="sans-serif" font-size="14" font-style="italic" lengthAdjust="spacing" textLength="96" x="556" y="106.3105">&#171;Components&#187;</text><text fill="#000000" font-family="sans-serif" font-size="14" lengthAdjust="spacing" textLength="98" x="555" y="124.9316">domain:Domain</text><rect fill="#FFFFFF" height="51.2422" rx="2.5" ry="2.5" style="stroke:#181818;stroke-width:0.5;" width="112" x="548" y="511.9766"/><text fill="#000000" font-family="sans-serif" font-size="14" font-style="italic" lengthAdjust="spacing" textLength="96" x="556" y="534.084">&#171;Components&#187;</text><text fill="#000000" font-family="sans-serif" font-size="14" lengthAdjust="spacing" textLength="98" x="555" y="552.7051">domain:Domain</text><rect fill="#FFFFFF" height="51.2422" rx="2.5" ry="2.5" style="stroke:#181818;stroke-width:0.5;" width="110" x="670" y="84.2031"/><text fill="#000000" font-family="sans-serif" font-size="14" font-style="italic" lengthAdjust="spacing" textLength="96" x="677" y="106.3105">&#171;Components&#187;</text><text fill="#000000" font-family="sans-serif" font-size="14" lengthAdjust="spacing" textLength="72" x="689" y="124.9316">:Repository</text><rect fill="#FFFFFF" height="51.2422" rx="2.5" ry="2.5" style="stroke:#181818;stroke-width:0.5;" width="110" x="670" y="511.9766"/><text fill="#000000" font-family="sans-serif" font-size="14" font-style="italic" lengthAdjust="spacing" textLength="96" x="677" y="534.084">&#171;Components&#187;</text><text fill="#000000" font-family="sans-serif" font-size="14" lengthAdjust="spacing" textLength="72" x="689" y="552.7051">:Repository</text><ellipse cx="7.5" cy="168.9863" fill="none" rx="4" ry="4" style="stroke:#181818;stroke-width:1.5;"/><polygon fill="#181818" points="112,165.7363,122,169.7363,112,173.7363,116,169.7363" style="stroke:#181818;stroke-width:1.0;"/><line style="stroke:#181818;stroke-width:1.0;" x1="12" x2="118" y1="169.7363" y2="169.7363"/><text fill="#000000" font-family="sans-serif" font-size="13" font-weight="bold" lengthAdjust="spacing" textLength="7" x="20" y="164.4736">1</text><text fill="#000000" font-family="sans-serif" font-size="13" lengthAdjust="spacing" textLength="81" x="31" y="164.4736">PUT /Request</text><polygon fill="#181818" points="294,197.0273,304,201.0273,294,205.0273,298,201.0273" style="stroke:#181818;stroke-width:1.0;"/><line style="stroke:#181818;stroke-width:1.0;" x1="124" x2="300" y1="201.0273" y2="201.0273"/><text fill="#000000" font-family="sans-serif" font-size="13" font-weight="bold" lengthAdjust="spacing" textLength="7" x="136" y="195.7646">2</text><text fill="#000000" font-family="sans-serif" font-size="13" lengthAdjust="spacing" textLength="147" x="147" y="195.7646">create VOs from Request</text><rect fill="#FFFFFF" height="32.6211" rx="2.5" ry="2.5" style="stroke:#181818;stroke-width:0.5;" width="110" x="306" y="177.7363"/><text fill="#000000" font-family="sans-serif" font-size="14" lengthAdjust="spacing" textLength="96" x="313" y="199.8438">vo:ValueObject</text><polygon fill="#181818" points="469,240.6484,479,244.6484,469,248.6484,473,244.6484" style="stroke:#181818;stroke-width:1.0;"/><line style="stroke:#181818;stroke-width:1.0;" x1="124" x2="475" y1="244.6484" y2="244.6484"/><text fill="#000000" font-family="sans-serif" font-size="13" font-weight="bold" lengthAdjust="spacing" textLength="7" x="251.5" y="239.3857">3</text><text fill="#000000" font-family="sans-serif" font-size="13" lengthAdjust="spacing" textLength="91" x="262.5" y="239.3857">update(VOs,int)</text><polygon fill="#181818" points="713,271.9395,723,275.9395,713,279.9395,717,275.9395" style="stroke:#181818;stroke-width:1.0;"/><line style="stroke:#181818;stroke-width:1.0;" x1="481" x2="719" y1="275.9395" y2="275.9395"/><text fill="#000000" font-family="sans-serif" font-size="13" font-weight="bold" lengthAdjust="spacing" textLength="7" x="565.5" y="270.6768">4</text><text fill="#000000" font-family="sans-serif" font-size="13" lengthAdjust="spacing" textLength="64" x="576.5" y="270.6768">findById(id)</text><polygon fill="#181818" points="492,303.2305,482,307.2305,492,311.2305,488,307.2305" style="stroke:#181818;stroke-width:1.0;"/><line style="stroke:#181818;stroke-width:1.0;stroke-dasharray:2.0,2.0;" x1="486" x2="724" y1="307.2305" y2="307.2305"/><text fill="#000000" font-family="sans-serif" font-size="13" font-weight="bold" lengthAdjust="spacing" textLength="7" x="560" y="301.9678">5</text><text fill="#000000" font-family="sans-serif" font-size="13" lengthAdjust="spacing" textLength="75" x="571" y="301.9678">return Object</text><polygon fill="#181818" points="592,334.5215,602,338.5215,592,342.5215,596,338.5215" style="stroke:#181818;stroke-width:1.0;"/><line style="stroke:#181818;stroke-width:1.0;" x1="481" x2="598" y1="338.5215" y2="338.5215"/><text fill="#000000" font-family="sans-serif" font-size="13" font-weight="bold" lengthAdjust="spacing" textLength="7" x="494.5" y="333.2588">6</text><text fill="#000000" font-family="sans-serif" font-size="13" lengthAdjust="spacing" textLength="85" x="505.5" y="333.2588">update(Object)</text><polygon fill="#181818" points="492,365.8125,482,369.8125,492,373.8125,488,369.8125" style="stroke:#181818;stroke-width:1.0;"/><line style="stroke:#181818;stroke-width:1.0;stroke-dasharray:2.0,2.0;" x1="486" x2="603" y1="369.8125" y2="369.8125"/><text fill="#000000" font-family="sans-serif" font-size="13" font-weight="bold" lengthAdjust="spacing" textLength="7" x="493" y="364.5498">7</text><text fill="#000000" font-family="sans-serif" font-size="13" lengthAdjust="spacing" textLength="88" x="504" y="364.5498">updated Object</text><polygon fill="#181818" points="713,397.1035,723,401.1035,713,405.1035,717,401.1035" style="stroke:#181818;stroke-width:1.0;"/><line style="stroke:#181818;stroke-width:1.0;" x1="481" x2="719" y1="401.1035" y2="401.1035"/><text fill="#000000" font-family="sans-serif" font-size="13" font-weight="bold" lengthAdjust="spacing" textLength="7" x="538.5" y="395.8408">8</text><text fill="#000000" font-family="sans-serif" font-size="13" lengthAdjust="spacing" textLength="118" x="549.5" y="395.8408">save updated Object</text><polygon fill="#181818" points="492,428.3945,482,432.3945,492,436.3945,488,432.3945" style="stroke:#181818;stroke-width:1.0;"/><line style="stroke:#181818;stroke-width:1.0;stroke-dasharray:2.0,2.0;" x1="486" x2="724" y1="432.3945" y2="432.3945"/><text fill="#000000" font-family="sans-serif" font-size="13" font-weight="bold" lengthAdjust="spacing" textLength="7" x="575" y="427.1318">9</text><text fill="#000000" font-family="sans-serif" font-size="13" lengthAdjust="spacing" textLength="45" x="586" y="427.1318">boolean</text><polygon fill="#181818" points="135,459.6855,125,463.6855,135,467.6855,131,463.6855" style="stroke:#181818;stroke-width:1.0;"/><line style="stroke:#181818;stroke-width:1.0;stroke-dasharray:2.0,2.0;" x1="129" x2="480" y1="463.6855" y2="463.6855"/><text fill="#000000" font-family="sans-serif" font-size="13" font-weight="bold" lengthAdjust="spacing" textLength="14" x="271" y="458.4229">10</text><text fill="#000000" font-family="sans-serif" font-size="13" lengthAdjust="spacing" textLength="45" x="289" y="458.4229">boolean</text><ellipse cx="7.5" cy="494.2266" fill="none" rx="4" ry="4" style="stroke:#181818;stroke-width:1.5;"/><polygon fill="#181818" points="24.5,490.9766,14.5,494.9766,24.5,498.9766,20.5,494.9766" style="stroke:#181818;stroke-width:1.0;"/><line style="stroke:#181818;stroke-width:1.0;stroke-dasharray:2.0,2.0;" x1="22.5" x2="123" y1="494.9766" y2="494.9766"/><text fill="#000000" font-family="sans-serif" font-size="13" font-weight="bold" lengthAdjust="spacing" textLength="14" x="34.5" y="489.7139">11</text><text fill="#000000" font-family="sans-serif" font-size="13" lengthAdjust="spacing" textLength="45" x="52.5" y="489.7139">boolean</text><rect fill="#DDDDDD" height="69.8633" id="_legend" rx="7.5" ry="7.5" style="stroke:#000000;stroke-width:1.0;" width="263" x="260.5" y="581.2188"/><text fill="#000000" font-family="sans-serif" font-size="14" font-weight="bold" lengthAdjust="spacing" textLength="225" x="265.5" y="601.3262">This request can be included in:</text><text fill="#000000" font-family="sans-serif" font-size="14" font-weight="bold" lengthAdjust="spacing" textLength="90" x="269.5" y="621.9473">Request PUT</text><text fill="#000000" font-family="sans-serif" font-size="14" font-weight="bold" lengthAdjust="spacing" textLength="71" x="443.5" y="621.9473">Response</text><text fill="#000000" font-family="sans-serif" font-size="14" font-weight="bold" lengthAdjust="spacing" textLength="166" x="269.5" y="640.5684">/api/device/{id} (UC37.2)</text><text fill="#000000" font-family="sans-serif" font-size="14" font-weight="bold" lengthAdjust="spacing" textLength="57" x="447.5" y="640.5684">boolean</text><line style="stroke:#000000;stroke-width:1.0;" x1="265.5" x2="518.5" y1="606.8398" y2="606.8398"/><line style="stroke:#000000;stroke-width:1.0;" x1="265.5" x2="518.5" y1="625.4609" y2="625.4609"/><line style="stroke:#000000;stroke-width:1.0;" x1="265.5" x2="518.5" y1="644.082" y2="644.082"/><line style="stroke:#000000;stroke-width:1.0;" x1="265.5" x2="265.5" y1="606.8398" y2="644.082"/><line style="stroke:#000000;stroke-width:1.0;" x1="439.5" x2="439.5" y1="606.8398" y2="644.082"/><line style="stroke:#000000;stroke-width:1.0;" x1="518.5" x2="518.5" y1="606.8398" y2="644.082"/><!--SRC=[bLBHRjCm57ttLroLbpOYL887fAX4OaKQIA2Xiks5lJZsRMgM-0RR2LHi_uxjD6dNbG4lYUrppht7vzefLo5ylhg45NvlqJh6MqUwhGiqpDugtN33Qx01r08_eRMynBULAZK8rEu1Ymj7veoBsz9Gg-MIAZBmOwCS7f3yrocX6gxTtwX3rnMkqOJ5VmlU8vTe_bLsxZdDQJ9Z1Vs4oMAn9EsuqcZo_4PdNz1qQ2RmxACgD-xSu9OTt0ycMQ0Rggf0uXR4k8LGgcv8-n1jdZ-KTPHTywh5Y-8R2XUL7HrL3gsLm0ZQVlraJKcrzvszYx-ewa-U56KhRCWgFzPjb1Y_FHQWbk33OOSlXtsbD3-uR1QVs7nuOtiapJjA4eyBWzmXN5zOM1kguHHrk6O6RICzU-hPpvLsCxP3qZmQp62jj3pRVf1J9KSG5ccwWmswrcZeuzsBTu6CvNjynlhpzB41ULG2HWEMT_W7qjv6GLGXrwE1eyW6s8VfDQUX2ii-V-UePf0abniLnXJ30y4r50XAYwgLteYVVv8mk7ipn1l74hVM3zGYt4LqpXirbnXCpNyfUG_Jg-MhrozUpW8uDFVSqBftmDXl]--></g></svg>