<?xml version="1.0" encoding="us-ascii" standalone="no"?><svg xmlns="http://www.w3.org/2000/svg" xmlns:xlink="http://www.w3.org/1999/xlink" contentStyleType="text/css" height="597px" preserveAspectRatio="none" style="width:1665px;height:597px;background:#FFFFFF;" version="1.1" viewBox="0 0 1665 597" width="1665px" zoomAndPan="magnify"><defs/><g><text fill="#000000" font-family="sans-serif" font-size="14" font-weight="bold" lengthAdjust="spacing" textLength="736" x="457.5" y="25.1074">US05v2: As a Power User [or Administrator], I want to add a new device to a room, in order to configure it.</text><!--class AddNewDeviceToRoomController--><g id="elem_AddNewDeviceToRoomController"><rect codeLine="4" fill="#F1F1F1" height="85.2422" id="AddNewDeviceToRoomController" rx="2.5" ry="2.5" style="stroke:#181818;stroke-width:0.5;" width="567" x="307.5" y="84.1211"/><ellipse cx="481.75" cy="100.1211" fill="#ADD1B2" rx="11" ry="11" style="stroke:#181818;stroke-width:1.0;"/><path d="M484.5156,95.9961 Q484.6719,95.7773 484.8594,95.668 Q485.0469,95.5586 485.2656,95.5586 Q485.6406,95.5586 485.875,95.8242 Q486.1094,96.0742 486.1094,96.6836 L486.1094,98.1367 Q486.1094,98.7461 485.875,99.0117 Q485.6406,99.2773 485.2656,99.2773 Q484.9219,99.2773 484.7188,99.0742 Q484.5156,98.8867 484.4063,98.3711 Q484.3594,98.0117 484.1719,97.8242 Q483.8438,97.4492 483.2344,97.2305 Q482.625,97.0117 482,97.0117 Q481.2344,97.0117 480.5938,97.3398 Q479.9688,97.668 479.4688,98.418 Q478.9844,99.168 478.9844,100.1992 L478.9844,101.293 Q478.9844,102.5273 479.875,103.3555 Q480.7656,104.168 482.3594,104.168 Q483.2969,104.168 483.9531,103.918 Q484.3438,103.7617 484.7656,103.3242 Q485.0313,103.0586 485.1719,102.9805 Q485.3281,102.9023 485.5313,102.9023 Q485.8594,102.9023 486.1094,103.168 Q486.375,103.418 486.375,103.7617 Q486.375,104.1055 486.0313,104.5117 Q485.5313,105.0898 484.7344,105.418 Q483.6563,105.8711 482.3594,105.8711 Q480.8438,105.8711 479.6406,105.2461 Q478.6563,104.7461 477.9688,103.6836 Q477.2813,102.6055 477.2813,101.3242 L477.2813,100.168 Q477.2813,98.8398 477.8906,97.6992 Q478.5156,96.543 479.6094,95.9336 Q480.7031,95.3086 481.9375,95.3086 Q482.6719,95.3086 483.3125,95.4805 Q483.9688,95.6367 484.5156,95.9961 Z " fill="#000000"/><text fill="#000000" font-family="sans-serif" font-size="14" lengthAdjust="spacing" textLength="210" x="502.25" y="105.918">AddNewDeviceToRoomController</text><line style="stroke:#181818;stroke-width:0.5;" x1="308.5" x2="873.5" y1="116.1211" y2="116.1211"/><rect fill="none" height="6" style="stroke:#C82930;stroke-width:1.0;" width="6" x="315.5" y="127.9316"/><text fill="#000000" font-family="sans-serif" font-size="14" lengthAdjust="spacing" textLength="87" x="327.5" y="135.2285">house: House</text><line style="stroke:#181818;stroke-width:0.5;" x1="308.5" x2="873.5" y1="142.7422" y2="142.7422"/><ellipse cx="318.5" cy="157.5527" fill="#84BE84" rx="3" ry="3" style="stroke:#038048;stroke-width:1.0;"/><text fill="#000000" font-family="sans-serif" font-size="14" lengthAdjust="spacing" textLength="541" x="327.5" y="161.8496">createNewDeviceAndAddToRoom(RoomDTO roomDTO, String deviceName): boolean</text></g><!--class RoomMapper--><g id="elem_RoomMapper"><rect codeLine="8" fill="#F1F1F1" height="85.2422" id="RoomMapper" rx="2.5" ry="2.5" style="stroke:#181818;stroke-width:0.5;" width="537" x="909.5" y="84.1211"/><ellipse cx="1131.25" cy="100.1211" fill="#ADD1B2" rx="11" ry="11" style="stroke:#181818;stroke-width:1.0;"/><path d="M1134.0156,95.9961 Q1134.1719,95.7773 1134.3594,95.668 Q1134.5469,95.5586 1134.7656,95.5586 Q1135.1406,95.5586 1135.375,95.8242 Q1135.6094,96.0742 1135.6094,96.6836 L1135.6094,98.1367 Q1135.6094,98.7461 1135.375,99.0117 Q1135.1406,99.2773 1134.7656,99.2773 Q1134.4219,99.2773 1134.2188,99.0742 Q1134.0156,98.8867 1133.9063,98.3711 Q1133.8594,98.0117 1133.6719,97.8242 Q1133.3438,97.4492 1132.7344,97.2305 Q1132.125,97.0117 1131.5,97.0117 Q1130.7344,97.0117 1130.0938,97.3398 Q1129.4688,97.668 1128.9688,98.418 Q1128.4844,99.168 1128.4844,100.1992 L1128.4844,101.293 Q1128.4844,102.5273 1129.375,103.3555 Q1130.2656,104.168 1131.8594,104.168 Q1132.7969,104.168 1133.4531,103.918 Q1133.8438,103.7617 1134.2656,103.3242 Q1134.5313,103.0586 1134.6719,102.9805 Q1134.8281,102.9023 1135.0313,102.9023 Q1135.3594,102.9023 1135.6094,103.168 Q1135.875,103.418 1135.875,103.7617 Q1135.875,104.1055 1135.5313,104.5117 Q1135.0313,105.0898 1134.2344,105.418 Q1133.1563,105.8711 1131.8594,105.8711 Q1130.3438,105.8711 1129.1406,105.2461 Q1128.1563,104.7461 1127.4688,103.6836 Q1126.7813,102.6055 1126.7813,101.3242 L1126.7813,100.168 Q1126.7813,98.8398 1127.3906,97.6992 Q1128.0156,96.543 1129.1094,95.9336 Q1130.2031,95.3086 1131.4375,95.3086 Q1132.1719,95.3086 1132.8125,95.4805 Q1133.4688,95.6367 1134.0156,95.9961 Z " fill="#000000"/><text fill="#000000" font-family="sans-serif" font-size="14" lengthAdjust="spacing" textLength="85" x="1151.75" y="105.918">RoomMapper</text><line style="stroke:#181818;stroke-width:0.5;" x1="910.5" x2="1445.5" y1="116.1211" y2="116.1211"/><line style="stroke:#181818;stroke-width:0.5;" x1="910.5" x2="1445.5" y1="124.1211" y2="124.1211"/><ellipse cx="920.5" cy="138.9316" fill="#84BE84" rx="3" ry="3" style="stroke:#038048;stroke-width:1.0;"/><text fill="#000000" font-family="sans-serif" font-size="14" lengthAdjust="spacing" textLength="511" x="929.5" y="143.2285">Map&lt;RoomDTO, Room&gt; roomToDTO(RoomList roomlist): RoomsDTOAndRooms</text><ellipse cx="920.5" cy="157.5527" fill="#84BE84" rx="3" ry="3" style="stroke:#038048;stroke-width:1.0;"/><text fill="#000000" font-family="sans-serif" font-size="14" lengthAdjust="spacing" textLength="237" x="929.5" y="161.8496">roomToDTO(Room room): RoomDTO</text></g><!--class RoomDTO--><g id="elem_RoomDTO"><rect codeLine="13" fill="#F1F1F1" height="159.7266" id="RoomDTO" rx="2.5" ry="2.5" style="stroke:#181818;stroke-width:0.5;" width="176" x="1482" y="46.6211"/><ellipse cx="1532.25" cy="62.6211" fill="#ADD1B2" rx="11" ry="11" style="stroke:#181818;stroke-width:1.0;"/><path d="M1535.0156,58.4961 Q1535.1719,58.2773 1535.3594,58.168 Q1535.5469,58.0586 1535.7656,58.0586 Q1536.1406,58.0586 1536.375,58.3242 Q1536.6094,58.5742 1536.6094,59.1836 L1536.6094,60.6367 Q1536.6094,61.2461 1536.375,61.5117 Q1536.1406,61.7773 1535.7656,61.7773 Q1535.4219,61.7773 1535.2188,61.5742 Q1535.0156,61.3867 1534.9063,60.8711 Q1534.8594,60.5117 1534.6719,60.3242 Q1534.3438,59.9492 1533.7344,59.7305 Q1533.125,59.5117 1532.5,59.5117 Q1531.7344,59.5117 1531.0938,59.8398 Q1530.4688,60.168 1529.9688,60.918 Q1529.4844,61.668 1529.4844,62.6992 L1529.4844,63.793 Q1529.4844,65.0273 1530.375,65.8555 Q1531.2656,66.668 1532.8594,66.668 Q1533.7969,66.668 1534.4531,66.418 Q1534.8438,66.2617 1535.2656,65.8242 Q1535.5313,65.5586 1535.6719,65.4805 Q1535.8281,65.4023 1536.0313,65.4023 Q1536.3594,65.4023 1536.6094,65.668 Q1536.875,65.918 1536.875,66.2617 Q1536.875,66.6055 1536.5313,67.0117 Q1536.0313,67.5898 1535.2344,67.918 Q1534.1563,68.3711 1532.8594,68.3711 Q1531.3438,68.3711 1530.1406,67.7461 Q1529.1563,67.2461 1528.4688,66.1836 Q1527.7813,65.1055 1527.7813,63.8242 L1527.7813,62.668 Q1527.7813,61.3398 1528.3906,60.1992 Q1529.0156,59.043 1530.1094,58.4336 Q1531.2031,57.8086 1532.4375,57.8086 Q1533.1719,57.8086 1533.8125,57.9805 Q1534.4688,58.1367 1535.0156,58.4961 Z " fill="#000000"/><text fill="#000000" font-family="sans-serif" font-size="14" lengthAdjust="spacing" textLength="67" x="1552.75" y="68.418">RoomDTO</text><line style="stroke:#181818;stroke-width:0.5;" x1="1483" x2="1657" y1="78.6211" y2="78.6211"/><rect fill="none" height="6" style="stroke:#C82930;stroke-width:1.0;" width="6" x="1490" y="90.4316"/><text fill="#000000" font-family="sans-serif" font-size="14" lengthAdjust="spacing" textLength="113" x="1502" y="97.7285">roomName: String</text><rect fill="none" height="6" style="stroke:#C82930;stroke-width:1.0;" width="6" x="1490" y="109.0527"/><text fill="#000000" font-family="sans-serif" font-size="14" lengthAdjust="spacing" textLength="100" x="1502" y="116.3496">floorNumber: int</text><rect fill="none" height="6" style="stroke:#C82930;stroke-width:1.0;" width="6" x="1490" y="127.6738"/><text fill="#000000" font-family="sans-serif" font-size="14" lengthAdjust="spacing" textLength="83" x="1502" y="134.9707">width: double</text><rect fill="none" height="6" style="stroke:#C82930;stroke-width:1.0;" width="6" x="1490" y="146.2949"/><text fill="#000000" font-family="sans-serif" font-size="14" lengthAdjust="spacing" textLength="90" x="1502" y="153.5918">length: double</text><rect fill="none" height="6" style="stroke:#C82930;stroke-width:1.0;" width="6" x="1490" y="164.916"/><text fill="#000000" font-family="sans-serif" font-size="14" lengthAdjust="spacing" textLength="90" x="1502" y="172.2129">height: double</text><line style="stroke:#181818;stroke-width:0.5;" x1="1483" x2="1657" y1="179.7266" y2="179.7266"/><ellipse cx="1493" cy="194.5371" fill="#84BE84" rx="3" ry="3" style="stroke:#038048;stroke-width:1.0;"/><text fill="#000000" font-family="sans-serif" font-size="14" lengthAdjust="spacing" textLength="150" x="1502" y="198.834">RoomDTO(Room room)</text></g><!--class House--><g id="elem_House"><rect codeLine="22" fill="#F1F1F1" height="103.8633" id="House" rx="2.5" ry="2.5" style="stroke:#181818;stroke-width:0.5;" width="182" x="889" y="285.1211"/><ellipse cx="955.75" cy="301.1211" fill="#ADD1B2" rx="11" ry="11" style="stroke:#181818;stroke-width:1.0;"/><path d="M958.5156,296.9961 Q958.6719,296.7773 958.8594,296.668 Q959.0469,296.5586 959.2656,296.5586 Q959.6406,296.5586 959.875,296.8242 Q960.1094,297.0742 960.1094,297.6836 L960.1094,299.1367 Q960.1094,299.7461 959.875,300.0117 Q959.6406,300.2773 959.2656,300.2773 Q958.9219,300.2773 958.7188,300.0742 Q958.5156,299.8867 958.4063,299.3711 Q958.3594,299.0117 958.1719,298.8242 Q957.8438,298.4492 957.2344,298.2305 Q956.625,298.0117 956,298.0117 Q955.2344,298.0117 954.5938,298.3398 Q953.9688,298.668 953.4688,299.418 Q952.9844,300.168 952.9844,301.1992 L952.9844,302.293 Q952.9844,303.5273 953.875,304.3555 Q954.7656,305.168 956.3594,305.168 Q957.2969,305.168 957.9531,304.918 Q958.3438,304.7617 958.7656,304.3242 Q959.0313,304.0586 959.1719,303.9805 Q959.3281,303.9023 959.5313,303.9023 Q959.8594,303.9023 960.1094,304.168 Q960.375,304.418 960.375,304.7617 Q960.375,305.1055 960.0313,305.5117 Q959.5313,306.0898 958.7344,306.418 Q957.6563,306.8711 956.3594,306.8711 Q954.8438,306.8711 953.6406,306.2461 Q952.6563,305.7461 951.9688,304.6836 Q951.2813,303.6055 951.2813,302.3242 L951.2813,301.168 Q951.2813,299.8398 951.8906,298.6992 Q952.5156,297.543 953.6094,296.9336 Q954.7031,296.3086 955.9375,296.3086 Q956.6719,296.3086 957.3125,296.4805 Q957.9688,296.6367 958.5156,296.9961 Z " fill="#000000"/><text fill="#000000" font-family="sans-serif" font-size="14" lengthAdjust="spacing" textLength="40" x="976.25" y="306.918">House</text><line style="stroke:#181818;stroke-width:0.5;" x1="890" x2="1070" y1="317.1211" y2="317.1211"/><rect fill="none" height="6" style="stroke:#C82930;stroke-width:1.0;" width="6" x="897" y="328.9316"/><text fill="#000000" font-family="sans-serif" font-size="14" lengthAdjust="spacing" textLength="111" x="909" y="336.2285">location: Location</text><rect fill="none" height="6" style="stroke:#C82930;stroke-width:1.0;" width="6" x="897" y="347.5527"/><text fill="#000000" font-family="sans-serif" font-size="14" lengthAdjust="spacing" textLength="121" x="909" y="354.8496">roomList: RoomList</text><line style="stroke:#181818;stroke-width:0.5;" x1="890" x2="1070" y1="362.3633" y2="362.3633"/><ellipse cx="900" cy="377.1738" fill="#84BE84" rx="3" ry="3" style="stroke:#038048;stroke-width:1.0;"/><text fill="#000000" font-family="sans-serif" font-size="14" lengthAdjust="spacing" textLength="156" x="909" y="381.4707">getRoomList(): RoomList</text></g><!--class Room--><g id="elem_Room"><rect codeLine="28" fill="#F1F1F1" height="141.1055" id="Room" rx="2.5" ry="2.5" style="stroke:#181818;stroke-width:0.5;" width="392" x="7" y="266.6211"/><ellipse cx="180.25" cy="282.6211" fill="#ADD1B2" rx="11" ry="11" style="stroke:#181818;stroke-width:1.0;"/><path d="M183.0156,278.4961 Q183.1719,278.2773 183.3594,278.168 Q183.5469,278.0586 183.7656,278.0586 Q184.1406,278.0586 184.375,278.3242 Q184.6094,278.5742 184.6094,279.1836 L184.6094,280.6367 Q184.6094,281.2461 184.375,281.5117 Q184.1406,281.7773 183.7656,281.7773 Q183.4219,281.7773 183.2188,281.5742 Q183.0156,281.3867 182.9063,280.8711 Q182.8594,280.5117 182.6719,280.3242 Q182.3438,279.9492 181.7344,279.7305 Q181.125,279.5117 180.5,279.5117 Q179.7344,279.5117 179.0938,279.8398 Q178.4688,280.168 177.9688,280.918 Q177.4844,281.668 177.4844,282.6992 L177.4844,283.793 Q177.4844,285.0273 178.375,285.8555 Q179.2656,286.668 180.8594,286.668 Q181.7969,286.668 182.4531,286.418 Q182.8438,286.2617 183.2656,285.8242 Q183.5313,285.5586 183.6719,285.4805 Q183.8281,285.4023 184.0313,285.4023 Q184.3594,285.4023 184.6094,285.668 Q184.875,285.918 184.875,286.2617 Q184.875,286.6055 184.5313,287.0117 Q184.0313,287.5898 183.2344,287.918 Q182.1563,288.3711 180.8594,288.3711 Q179.3438,288.3711 178.1406,287.7461 Q177.1563,287.2461 176.4688,286.1836 Q175.7813,285.1055 175.7813,283.8242 L175.7813,282.668 Q175.7813,281.3398 176.3906,280.1992 Q177.0156,279.043 178.1094,278.4336 Q179.2031,277.8086 180.4375,277.8086 Q181.1719,277.8086 181.8125,277.9805 Q182.4688,278.1367 183.0156,278.4961 Z " fill="#000000"/><text fill="#000000" font-family="sans-serif" font-size="14" lengthAdjust="spacing" textLength="37" x="200.75" y="288.418">Room</text><line style="stroke:#181818;stroke-width:0.5;" x1="8" x2="398" y1="298.6211" y2="298.6211"/><rect fill="none" height="6" style="stroke:#C82930;stroke-width:1.0;" width="6" x="15" y="310.4316"/><text fill="#000000" font-family="sans-serif" font-size="14" lengthAdjust="spacing" textLength="113" x="27" y="317.7285">roomName: String</text><rect fill="none" height="6" style="stroke:#C82930;stroke-width:1.0;" width="6" x="15" y="329.0527"/><text fill="#000000" font-family="sans-serif" font-size="14" lengthAdjust="spacing" textLength="100" x="27" y="336.3496">floorNumber: int</text><rect fill="none" height="6" style="stroke:#C82930;stroke-width:1.0;" width="6" x="15" y="347.6738"/><text fill="#000000" font-family="sans-serif" font-size="14" lengthAdjust="spacing" textLength="152" x="27" y="354.9707">dimensions: Dimensions</text><rect fill="none" height="6" style="stroke:#C82930;stroke-width:1.0;" width="6" x="15" y="366.2949"/><text fill="#000000" font-family="sans-serif" font-size="14" lengthAdjust="spacing" textLength="136" x="27" y="373.5918">deviceList: DeviceList</text><line style="stroke:#181818;stroke-width:0.5;" x1="8" x2="398" y1="381.1055" y2="381.1055"/><ellipse cx="18" cy="395.916" fill="#84BE84" rx="3" ry="3" style="stroke:#038048;stroke-width:1.0;"/><text fill="#000000" font-family="sans-serif" font-size="14" lengthAdjust="spacing" textLength="366" x="27" y="400.2129">createDeviceAndAddToRoom(String deviceName): Device</text></g><!--class DeviceList--><g id="elem_DeviceList"><rect codeLine="36" fill="#F1F1F1" height="103.8633" id="DeviceList" rx="2.5" ry="2.5" style="stroke:#181818;stroke-width:0.5;" width="420" x="434" y="285.1211"/><ellipse cx="607.25" cy="301.1211" fill="#ADD1B2" rx="11" ry="11" style="stroke:#181818;stroke-width:1.0;"/><path d="M610.0156,296.9961 Q610.1719,296.7773 610.3594,296.668 Q610.5469,296.5586 610.7656,296.5586 Q611.1406,296.5586 611.375,296.8242 Q611.6094,297.0742 611.6094,297.6836 L611.6094,299.1367 Q611.6094,299.7461 611.375,300.0117 Q611.1406,300.2773 610.7656,300.2773 Q610.4219,300.2773 610.2188,300.0742 Q610.0156,299.8867 609.9063,299.3711 Q609.8594,299.0117 609.6719,298.8242 Q609.3438,298.4492 608.7344,298.2305 Q608.125,298.0117 607.5,298.0117 Q606.7344,298.0117 606.0938,298.3398 Q605.4688,298.668 604.9688,299.418 Q604.4844,300.168 604.4844,301.1992 L604.4844,302.293 Q604.4844,303.5273 605.375,304.3555 Q606.2656,305.168 607.8594,305.168 Q608.7969,305.168 609.4531,304.918 Q609.8438,304.7617 610.2656,304.3242 Q610.5313,304.0586 610.6719,303.9805 Q610.8281,303.9023 611.0313,303.9023 Q611.3594,303.9023 611.6094,304.168 Q611.875,304.418 611.875,304.7617 Q611.875,305.1055 611.5313,305.5117 Q611.0313,306.0898 610.2344,306.418 Q609.1563,306.8711 607.8594,306.8711 Q606.3438,306.8711 605.1406,306.2461 Q604.1563,305.7461 603.4688,304.6836 Q602.7813,303.6055 602.7813,302.3242 L602.7813,301.168 Q602.7813,299.8398 603.3906,298.6992 Q604.0156,297.543 605.1094,296.9336 Q606.2031,296.3086 607.4375,296.3086 Q608.1719,296.3086 608.8125,296.4805 Q609.4688,296.6367 610.0156,296.9961 Z " fill="#000000"/><text fill="#000000" font-family="sans-serif" font-size="14" lengthAdjust="spacing" textLength="65" x="627.75" y="306.918">DeviceList</text><line style="stroke:#181818;stroke-width:0.5;" x1="435" x2="853" y1="317.1211" y2="317.1211"/><rect fill="none" height="6" style="stroke:#C82930;stroke-width:1.0;" width="6" x="442" y="328.9316"/><text fill="#000000" font-family="sans-serif" font-size="14" lengthAdjust="spacing" textLength="152" x="454" y="336.2285">deviceList: List&lt;Device&gt;</text><line style="stroke:#181818;stroke-width:0.5;" x1="435" x2="853" y1="343.7422" y2="343.7422"/><ellipse cx="445" cy="358.5527" fill="#84BE84" rx="3" ry="3" style="stroke:#038048;stroke-width:1.0;"/><text fill="#000000" font-family="sans-serif" font-size="14" lengthAdjust="spacing" textLength="394" x="454" y="362.8496">createDeviceAndAddToDeviceList(String deviceName): Device</text><ellipse cx="445" cy="377.1738" fill="#84BE84" rx="3" ry="3" style="stroke:#038048;stroke-width:1.0;"/><text fill="#000000" font-family="sans-serif" font-size="14" lengthAdjust="spacing" textLength="352" x="454" y="381.4707">isDeviceNameInDeviceList(String deviceName): boolean</text></g><!--class Device--><g id="elem_Device"><rect codeLine="42" fill="#F1F1F1" height="122.4844" id="Device" rx="2.5" ry="2.5" style="stroke:#181818;stroke-width:0.5;" width="235" x="526.5" y="467.6211"/><ellipse cx="618.25" cy="483.6211" fill="#ADD1B2" rx="11" ry="11" style="stroke:#181818;stroke-width:1.0;"/><path d="M621.0156,479.4961 Q621.1719,479.2773 621.3594,479.168 Q621.5469,479.0586 621.7656,479.0586 Q622.1406,479.0586 622.375,479.3242 Q622.6094,479.5742 622.6094,480.1836 L622.6094,481.6367 Q622.6094,482.2461 622.375,482.5117 Q622.1406,482.7773 621.7656,482.7773 Q621.4219,482.7773 621.2188,482.5742 Q621.0156,482.3867 620.9063,481.8711 Q620.8594,481.5117 620.6719,481.3242 Q620.3438,480.9492 619.7344,480.7305 Q619.125,480.5117 618.5,480.5117 Q617.7344,480.5117 617.0938,480.8398 Q616.4688,481.168 615.9688,481.918 Q615.4844,482.668 615.4844,483.6992 L615.4844,484.793 Q615.4844,486.0273 616.375,486.8555 Q617.2656,487.668 618.8594,487.668 Q619.7969,487.668 620.4531,487.418 Q620.8438,487.2617 621.2656,486.8242 Q621.5313,486.5586 621.6719,486.4805 Q621.8281,486.4023 622.0313,486.4023 Q622.3594,486.4023 622.6094,486.668 Q622.875,486.918 622.875,487.2617 Q622.875,487.6055 622.5313,488.0117 Q622.0313,488.5898 621.2344,488.918 Q620.1563,489.3711 618.8594,489.3711 Q617.3438,489.3711 616.1406,488.7461 Q615.1563,488.2461 614.4688,487.1836 Q613.7813,486.1055 613.7813,484.8242 L613.7813,483.668 Q613.7813,482.3398 614.3906,481.1992 Q615.0156,480.043 616.1094,479.4336 Q617.2031,478.8086 618.4375,478.8086 Q619.1719,478.8086 619.8125,478.9805 Q620.4688,479.1367 621.0156,479.4961 Z " fill="#000000"/><text fill="#000000" font-family="sans-serif" font-size="14" lengthAdjust="spacing" textLength="43" x="638.75" y="489.418">Device</text><line style="stroke:#181818;stroke-width:0.5;" x1="527.5" x2="760.5" y1="499.6211" y2="499.6211"/><rect fill="none" height="6" style="stroke:#C82930;stroke-width:1.0;" width="6" x="534.5" y="511.4316"/><text fill="#000000" font-family="sans-serif" font-size="14" lengthAdjust="spacing" textLength="122" x="546.5" y="518.7285">deviceName: String</text><rect fill="none" height="6" style="stroke:#C82930;stroke-width:1.0;" width="6" x="534.5" y="530.0527"/><text fill="#000000" font-family="sans-serif" font-size="14" lengthAdjust="spacing" textLength="156" x="546.5" y="537.3496">sensorList: List&lt;Sensor&gt;</text><rect fill="none" height="6" style="stroke:#C82930;stroke-width:1.0;" width="6" x="534.5" y="548.6738"/><text fill="#000000" font-family="sans-serif" font-size="14" lengthAdjust="spacing" textLength="86" x="546.5" y="555.9707">status: Status</text><line style="stroke:#181818;stroke-width:0.5;" x1="527.5" x2="760.5" y1="563.4844" y2="563.4844"/><rect fill="#F24D5C" height="6" style="stroke:#C82930;stroke-width:1.0;" width="6" x="534.5" y="575.2949"/><text fill="#000000" font-family="sans-serif" font-size="14" lengthAdjust="spacing" textLength="209" x="546.5" y="582.5918">validDeviceArguments(): boolean</text></g><!--link AddNewDeviceToRoomController to RoomMapper--><g id="link_AddNewDeviceToRoomController_RoomMapper"><path codeLine="49" d="M874.75,126.6211 C886.3,126.6211 897.85,126.6211 909.4,126.6211 " fill="none" id="AddNewDeviceToRoomController-RoomMapper" style="stroke:#181818;stroke-width:1.0;"/></g><!--link RoomMapper to RoomDTO--><g id="link_RoomMapper_RoomDTO"><path codeLine="50" d="M1446.73,126.6211 C1458.45,126.6211 1470.17,126.6211 1481.88,126.6211 " fill="none" id="RoomMapper-RoomDTO" style="stroke:#181818;stroke-width:1.0;"/></g><!--link AddNewDeviceToRoomController to House--><g id="link_AddNewDeviceToRoomController_House"><path codeLine="51" d="M681.56,169.2311 C737.29,195.6211 809.73,231.3311 872,266.6211 C882.09,272.3411 892.53,278.6011 902.77,284.9511 " fill="none" id="AddNewDeviceToRoomController-House" style="stroke:#181818;stroke-width:1.0;"/></g><!--link AddNewDeviceToRoomController to Room--><g id="link_AddNewDeviceToRoomController_Room"><path codeLine="52" d="M513.41,169.3111 C461.67,197.1211 392.38,234.3511 332.4,266.5911 " fill="none" id="AddNewDeviceToRoomController-Room" style="stroke:#181818;stroke-width:1.0;"/></g><!--reverse link Room to DeviceList--><g id="link_Room_DeviceList"><path codeLine="54" d="M411.38,337.1211 C422.85,337.1211 422.32,337.1211 433.78,337.1211 " fill="none" id="Room-backto-DeviceList" style="stroke:#181818;stroke-width:1.0;"/><polygon fill="#181818" points="399.38,337.1211,405.38,341.1211,411.38,337.1211,405.38,333.1211,399.38,337.1211" style="stroke:#181818;stroke-width:1.0;"/><text fill="#000000" font-family="sans-serif" font-size="13" lengthAdjust="spacing" textLength="7" x="407.1878" y="333.821">1</text><text fill="#000000" font-family="sans-serif" font-size="13" lengthAdjust="spacing" textLength="7" x="419.0994" y="333.8516">1</text></g><!--reverse link DeviceList to Device--><g id="link_DeviceList_Device"><path codeLine="55" d="M644,401.4011 C644,425.5211 644,442.4311 644,467.5611 " fill="none" id="DeviceList-backto-Device" style="stroke:#181818;stroke-width:1.0;"/><polygon fill="#181818" points="644,389.4011,640,395.4011,644,401.4011,648,395.4011,644,389.4011" style="stroke:#181818;stroke-width:1.0;"/><text fill="#000000" font-family="sans-serif" font-size="13" lengthAdjust="spacing" textLength="7" x="636.5734" y="410.863">1</text><text fill="#000000" font-family="sans-serif" font-size="13" lengthAdjust="spacing" textLength="20" x="622.8438" y="456.5354">0..*</text></g><!--SRC=[ZLEnRjim4Dtv5GSlTIBBJWjq4G83HZKqGEeMiJCL7MYHaGXGF8Eah27el_T8oPO464uNyVZuxjxZdUYLrn9UTmzVJryos3ZWy0jRQU7LqUStMjY8MXdblEKUxPy5F47BZGUFm8KWkf4j27bIXOmOMCHw0Se0Ma4b22lGlAcoiHAKNx9FbVT7bwrMHqrrcbel2wnNXUREfKBnqlAQiRWbQR6LRHwBx_652dz3uorgJONVMLfXusG6tyF2ai9AxkKbOMC4vNTfy_39zp-ZELeNiFDMcR8tlkMrlClWWAWbD-nlBn-IVl3ZKTftbb3m-7BE3i4w5jiZ0R7yC_KeGfe2gXOmHuVa8uOicV8Zj-SHHgeZsU2LBXWemLpM-sNfcqQqswO-I9jHaprBMoLybO70vg0bIxKqvNXVILLM_h9F-keZ2uDoR6JGrLXmhz1ayDn7dPTmnyvnY5XIId_UpEz61vEx_Ez5XAgbSQJbCiWlCU5nHfrqVedFyxuox6kpxMY3iQ5Gi3UM2D_7xdXzNMJ8lIMLA9TVu2VpGTBmxqqC3kQctNFK7RGZmxi8hEd4Sz-um0mhIqzSAz7xjsL3RVLkFXMy-SpIqJDWGzZZuSUzdPxsp_CZLa1O583PvndSft4PpNiqiOv0Z8VbydxMz_iV]--></g></svg>