<?xml version="1.0" encoding="us-ascii" standalone="no"?><svg xmlns="http://www.w3.org/2000/svg" xmlns:xlink="http://www.w3.org/1999/xlink" contentStyleType="text/css" height="872px" preserveAspectRatio="none" style="width:1037px;height:872px;background:#FFFFFF;" version="1.1" viewBox="0 0 1037 872" width="1037px" zoomAndPan="magnify"><defs/><g><text fill="#000000" font-family="sans-serif" font-size="14" font-weight="bold" lengthAdjust="spacing" textLength="741" x="149.25" y="30.1074">US05v2 - As a Power User [or Administrator], I want to add a new device to a room, in order to configure it.</text><rect fill="#FFFFFF" height="698.6641" style="stroke:#181818;stroke-width:1.0;" width="10" x="280" y="111.5332"/><rect fill="#FFFFFF" height="493.666" style="stroke:#181818;stroke-width:1.0;" width="10" x="488" y="332.5313"/><rect fill="#FFFFFF" height="366.502" style="stroke:#181818;stroke-width:1.0;" width="10" x="721" y="381.1133"/><rect fill="none" height="377.793" style="stroke:#000000;stroke-width:1.5;" width="1027.5" x="3" y="440.4043"/><line style="stroke:#181818;stroke-width:0.5;stroke-dasharray:5.0,5.0;" x1="285" x2="285" y1="78.2422" y2="835.1973"/><line style="stroke:#181818;stroke-width:0.5;stroke-dasharray:5.0,5.0;" x1="492.5" x2="492.5" y1="78.2422" y2="835.1973"/><line style="stroke:#181818;stroke-width:0.5;stroke-dasharray:5.0,5.0;" x1="725.5" x2="725.5" y1="78.2422" y2="835.1973"/><line style="stroke:#181818;stroke-width:0.5;stroke-dasharray:5.0,5.0;" x1="989.5" x2="989.5" y1="602.0098" y2="835.1973"/><rect fill="#E2E2F0" height="32.6211" rx="2.5" ry="2.5" style="stroke:#181818;stroke-width:0.5;" width="228" x="171" y="44.6211"/><text fill="#000000" font-family="sans-serif" font-size="14" lengthAdjust="spacing" textLength="214" x="178" y="66.7285">:AddNewDeviceToRoomController</text><rect fill="#E2E2F0" height="32.6211" rx="2.5" ry="2.5" style="stroke:#181818;stroke-width:0.5;" width="228" x="171" y="834.1973"/><text fill="#000000" font-family="sans-serif" font-size="14" lengthAdjust="spacing" textLength="214" x="178" y="856.3047">:AddNewDeviceToRoomController</text><rect fill="#E2E2F0" height="32.6211" rx="2.5" ry="2.5" style="stroke:#181818;stroke-width:0.5;" width="55" x="465.5" y="44.6211"/><text fill="#000000" font-family="sans-serif" font-size="14" lengthAdjust="spacing" textLength="41" x="472.5" y="66.7285">:Room</text><rect fill="#E2E2F0" height="32.6211" rx="2.5" ry="2.5" style="stroke:#181818;stroke-width:0.5;" width="55" x="465.5" y="834.1973"/><text fill="#000000" font-family="sans-serif" font-size="14" lengthAdjust="spacing" textLength="41" x="472.5" y="856.3047">:Room</text><rect fill="#E2E2F0" height="32.6211" rx="2.5" ry="2.5" style="stroke:#181818;stroke-width:0.5;" width="83" x="684.5" y="44.6211"/><text fill="#000000" font-family="sans-serif" font-size="14" lengthAdjust="spacing" textLength="69" x="691.5" y="66.7285">:DeviceList</text><rect fill="#E2E2F0" height="32.6211" rx="2.5" ry="2.5" style="stroke:#181818;stroke-width:0.5;" width="83" x="684.5" y="834.1973"/><text fill="#000000" font-family="sans-serif" font-size="14" lengthAdjust="spacing" textLength="69" x="691.5" y="856.3047">:DeviceList</text><rect fill="#E2E2F0" height="32.6211" rx="2.5" ry="2.5" style="stroke:#181818;stroke-width:0.5;" width="61" x="959.5" y="834.1973"/><text fill="#000000" font-family="sans-serif" font-size="14" lengthAdjust="spacing" textLength="47" x="966.5" y="856.3047">:Device</text><rect fill="#FFFFFF" height="698.6641" style="stroke:#181818;stroke-width:1.0;" width="10" x="280" y="111.5332"/><rect fill="#FFFFFF" height="493.666" style="stroke:#181818;stroke-width:1.0;" width="10" x="488" y="332.5313"/><rect fill="#FFFFFF" height="366.502" style="stroke:#181818;stroke-width:1.0;" width="10" x="721" y="381.1133"/><polygon fill="#181818" points="268,107.5332,278,111.5332,268,115.5332,272,111.5332" style="stroke:#181818;stroke-width:1.0;"/><line style="stroke:#181818;stroke-width:1.0;" x1="0" x2="274" y1="111.5332" y2="111.5332"/><text fill="#000000" font-family="sans-serif" font-size="13" font-weight="bold" lengthAdjust="spacing" textLength="7" x="7" y="106.2705">1</text><text fill="#000000" font-family="sans-serif" font-size="13" lengthAdjust="spacing" textLength="81" x="18" y="106.2705">getRoomList()</text><rect fill="none" height="43.252" style="stroke:#000000;stroke-width:1.5;" width="234" x="168" y="119.5332"/><path d="M168,119.5332 L230,119.5332 L230,128.5332 L220,138.5332 L168,138.5332 L168,119.5332 " fill="#EEEEEE" style="stroke:#000000;stroke-width:2.0;"/><text fill="#000000" font-family="sans-serif" font-size="13" font-weight="bold" lengthAdjust="spacing" textLength="17" x="181" y="135.5615">ref</text><text fill="#000000" font-family="sans-serif" font-size="12" lengthAdjust="spacing" textLength="145" x="212.5" y="155.4824">US03.1SequenceDiagram</text><polygon fill="#181818" points="11,187.0762,1,191.0762,11,195.0762,7,191.0762" style="stroke:#181818;stroke-width:1.0;"/><line style="stroke:#181818;stroke-width:1.0;stroke-dasharray:2.0,2.0;" x1="5" x2="279" y1="191.0762" y2="191.0762"/><text fill="#000000" font-family="sans-serif" font-size="13" font-weight="bold" lengthAdjust="spacing" textLength="7" x="17" y="185.8135">2</text><text fill="#000000" font-family="sans-serif" font-size="13" lengthAdjust="spacing" textLength="97" x="28" y="185.8135">List&lt;RoomDTO&gt;</text><polygon fill="#181818" points="268,235.6582,278,239.6582,268,243.6582,272,239.6582" style="stroke:#181818;stroke-width:1.0;"/><line style="stroke:#181818;stroke-width:1.0;" x1="0" x2="274" y1="239.6582" y2="239.6582"/><text fill="#000000" font-family="sans-serif" font-size="13" font-weight="bold" lengthAdjust="spacing" textLength="7" x="7" y="225.75">3</text><text fill="#000000" font-family="sans-serif" font-size="13" lengthAdjust="spacing" textLength="168" x="18" y="217.1045">createDeviceAndAddToRoom</text><text fill="#000000" font-family="sans-serif" font-size="13" lengthAdjust="spacing" textLength="243" x="18" y="234.3955">(RoomDTO roomDTO, String deviceName)</text><line style="stroke:#181818;stroke-width:1.0;" x1="290" x2="332" y1="270.9492" y2="270.9492"/><line style="stroke:#181818;stroke-width:1.0;" x1="332" x2="332" y1="270.9492" y2="283.9492"/><line style="stroke:#181818;stroke-width:1.0;" x1="291" x2="332" y1="283.9492" y2="283.9492"/><polygon fill="#181818" points="301,279.9492,291,283.9492,301,287.9492,297,283.9492" style="stroke:#181818;stroke-width:1.0;"/><text fill="#000000" font-family="sans-serif" font-size="13" font-weight="bold" lengthAdjust="spacing" textLength="7" x="297" y="265.6865">4</text><text fill="#000000" font-family="sans-serif" font-size="13" lengthAdjust="spacing" textLength="149" x="308" y="265.6865">get.(RoomDTO roomDTO)</text><polygon fill="#181818" points="476,328.5313,486,332.5313,476,336.5313,480,332.5313" style="stroke:#181818;stroke-width:1.0;"/><line style="stroke:#181818;stroke-width:1.0;" x1="290" x2="482" y1="332.5313" y2="332.5313"/><text fill="#000000" font-family="sans-serif" font-size="13" font-weight="bold" lengthAdjust="spacing" textLength="7" x="297" y="318.623">5</text><text fill="#000000" font-family="sans-serif" font-size="13" lengthAdjust="spacing" textLength="168" x="308" y="309.9775">createDeviceAndAddToRoom</text><text fill="#000000" font-family="sans-serif" font-size="13" lengthAdjust="spacing" textLength="116" x="308" y="327.2686">(String deviceName)</text><polygon fill="#181818" points="709,377.1133,719,381.1133,709,385.1133,713,381.1133" style="stroke:#181818;stroke-width:1.0;"/><line style="stroke:#181818;stroke-width:1.0;" x1="498" x2="715" y1="381.1133" y2="381.1133"/><text fill="#000000" font-family="sans-serif" font-size="13" font-weight="bold" lengthAdjust="spacing" textLength="7" x="505" y="367.2051">6</text><text fill="#000000" font-family="sans-serif" font-size="13" lengthAdjust="spacing" textLength="193" x="516" y="358.5596">createDeviceAndAddToDeviceList</text><text fill="#000000" font-family="sans-serif" font-size="13" lengthAdjust="spacing" textLength="116" x="516" y="375.8506">(String deviceName)</text><line style="stroke:#181818;stroke-width:1.0;" x1="731" x2="773" y1="412.4043" y2="412.4043"/><line style="stroke:#181818;stroke-width:1.0;" x1="773" x2="773" y1="412.4043" y2="425.4043"/><line style="stroke:#181818;stroke-width:1.0;" x1="732" x2="773" y1="425.4043" y2="425.4043"/><polygon fill="#181818" points="742,421.4043,732,425.4043,742,429.4043,738,425.4043" style="stroke:#181818;stroke-width:1.0;"/><text fill="#000000" font-family="sans-serif" font-size="13" font-weight="bold" lengthAdjust="spacing" textLength="7" x="738" y="407.1416">7</text><text fill="#000000" font-family="sans-serif" font-size="13" lengthAdjust="spacing" textLength="229" x="749" y="407.1416">isDeviceNameInDeviceList(deviceName)</text><path d="M3,440.4043 L64,440.4043 L64,449.6953 L54,459.6953 L3,459.6953 L3,440.4043 " fill="#EEEEEE" style="stroke:#000000;stroke-width:1.5;"/><rect fill="none" height="377.793" style="stroke:#000000;stroke-width:1.5;" width="1027.5" x="3" y="440.4043"/><text fill="#000000" font-family="sans-serif" font-size="13" font-weight="bold" lengthAdjust="spacing" textLength="16" x="18" y="455.4326">alt</text><text fill="#000000" font-family="sans-serif" font-size="11" font-weight="bold" lengthAdjust="spacing" textLength="154" x="79" y="454.2744">[device name already in list]</text><polygon fill="#181818" points="509,478.9863,499,482.9863,509,486.9863,505,482.9863" style="stroke:#181818;stroke-width:1.0;"/><line style="stroke:#181818;stroke-width:1.0;stroke-dasharray:2.0,2.0;" x1="503" x2="720" y1="482.9863" y2="482.9863"/><text fill="#000000" font-family="sans-serif" font-size="13" font-weight="bold" lengthAdjust="spacing" textLength="7" x="515" y="477.7236">8</text><text fill="#000000" font-family="sans-serif" font-size="13" lengthAdjust="spacing" textLength="57" x="526" y="477.7236">return null</text><polygon fill="#181818" points="301,510.2773,291,514.2773,301,518.2773,297,514.2773" style="stroke:#181818;stroke-width:1.0;"/><line style="stroke:#181818;stroke-width:1.0;stroke-dasharray:2.0,2.0;" x1="295" x2="487" y1="514.2773" y2="514.2773"/><text fill="#000000" font-family="sans-serif" font-size="13" font-weight="bold" lengthAdjust="spacing" textLength="7" x="307" y="509.0146">9</text><text fill="#000000" font-family="sans-serif" font-size="13" lengthAdjust="spacing" textLength="57" x="318" y="509.0146">return null</text><polygon fill="#181818" points="11,541.5684,1,545.5684,11,549.5684,7,545.5684" style="stroke:#181818;stroke-width:1.0;"/><line style="stroke:#181818;stroke-width:1.0;stroke-dasharray:2.0,2.0;" x1="5" x2="279" y1="545.5684" y2="545.5684"/><text fill="#000000" font-family="sans-serif" font-size="13" font-weight="bold" lengthAdjust="spacing" textLength="14" x="17" y="540.3057">10</text><text fill="#000000" font-family="sans-serif" font-size="13" lengthAdjust="spacing" textLength="64" x="35" y="540.3057">return false</text><line style="stroke:#000000;stroke-width:1.0;stroke-dasharray:2.0,2.0;" x1="3" x2="1030.5" y1="554.5684" y2="554.5684"/><text fill="#000000" font-family="sans-serif" font-size="11" font-weight="bold" lengthAdjust="spacing" textLength="160" x="8" y="566.4385">[device attributes are invalid]</text><polygon fill="#181818" points="947.5,589.4902,957.5,593.4902,947.5,597.4902,951.5,593.4902" style="stroke:#181818;stroke-width:1.0;"/><line style="stroke:#181818;stroke-width:1.0;stroke-dasharray:2.0,2.0;" x1="731" x2="953.5" y1="593.4902" y2="593.4902"/><text fill="#000000" font-family="sans-serif" font-size="13" font-weight="bold" lengthAdjust="spacing" textLength="14" x="738" y="588.2275">11</text><text fill="#000000" font-family="sans-serif" font-size="13" lengthAdjust="spacing" textLength="57" x="756" y="588.2275">&#171;creates&#187;</text><rect fill="#E2E2F0" height="32.6211" rx="2.5" ry="2.5" style="stroke:#181818;stroke-width:0.5;" width="61" x="959.5" y="570.1992"/><text fill="#000000" font-family="sans-serif" font-size="14" lengthAdjust="spacing" textLength="47" x="966.5" y="592.3066">:Device</text><polygon fill="#181818" points="509,633.1113,499,637.1113,509,641.1113,505,637.1113" style="stroke:#181818;stroke-width:1.0;"/><line style="stroke:#181818;stroke-width:1.0;stroke-dasharray:2.0,2.0;" x1="503" x2="720" y1="637.1113" y2="637.1113"/><text fill="#000000" font-family="sans-serif" font-size="13" font-weight="bold" lengthAdjust="spacing" textLength="14" x="515" y="631.8486">12</text><text fill="#000000" font-family="sans-serif" font-size="13" lengthAdjust="spacing" textLength="57" x="533" y="631.8486">return null</text><polygon fill="#181818" points="301,664.4023,291,668.4023,301,672.4023,297,668.4023" style="stroke:#181818;stroke-width:1.0;"/><line style="stroke:#181818;stroke-width:1.0;stroke-dasharray:2.0,2.0;" x1="295" x2="487" y1="668.4023" y2="668.4023"/><text fill="#000000" font-family="sans-serif" font-size="13" font-weight="bold" lengthAdjust="spacing" textLength="14" x="307" y="663.1396">13</text><text fill="#000000" font-family="sans-serif" font-size="13" lengthAdjust="spacing" textLength="57" x="325" y="663.1396">return null</text><polygon fill="#181818" points="11,695.6934,1,699.6934,11,703.6934,7,699.6934" style="stroke:#181818;stroke-width:1.0;"/><line style="stroke:#181818;stroke-width:1.0;stroke-dasharray:2.0,2.0;" x1="5" x2="279" y1="699.6934" y2="699.6934"/><text fill="#000000" font-family="sans-serif" font-size="13" font-weight="bold" lengthAdjust="spacing" textLength="14" x="17" y="694.4307">14</text><text fill="#000000" font-family="sans-serif" font-size="13" lengthAdjust="spacing" textLength="64" x="35" y="694.4307">return false</text><line style="stroke:#000000;stroke-width:1.0;stroke-dasharray:2.0,2.0;" x1="3" x2="1030.5" y1="708.6934" y2="708.6934"/><text fill="#000000" font-family="sans-serif" font-size="11" font-weight="bold" lengthAdjust="spacing" textLength="150" x="8" y="720.5635">[device attributes are valid]</text><polygon fill="#181818" points="509,743.6152,499,747.6152,509,751.6152,505,747.6152" style="stroke:#181818;stroke-width:1.0;"/><line style="stroke:#181818;stroke-width:1.0;stroke-dasharray:2.0,2.0;" x1="503" x2="725" y1="747.6152" y2="747.6152"/><text fill="#000000" font-family="sans-serif" font-size="13" font-weight="bold" lengthAdjust="spacing" textLength="14" x="515" y="742.3525">15</text><text fill="#000000" font-family="sans-serif" font-size="13" lengthAdjust="spacing" textLength="75" x="533" y="742.3525">return Device</text><polygon fill="#181818" points="301,774.9063,291,778.9063,301,782.9063,297,778.9063" style="stroke:#181818;stroke-width:1.0;"/><line style="stroke:#181818;stroke-width:1.0;stroke-dasharray:2.0,2.0;" x1="295" x2="487" y1="778.9063" y2="778.9063"/><text fill="#000000" font-family="sans-serif" font-size="13" font-weight="bold" lengthAdjust="spacing" textLength="14" x="307" y="773.6436">16</text><text fill="#000000" font-family="sans-serif" font-size="13" lengthAdjust="spacing" textLength="75" x="325" y="773.6436">return Device</text><polygon fill="#181818" points="11,806.1973,1,810.1973,11,814.1973,7,810.1973" style="stroke:#181818;stroke-width:1.0;"/><line style="stroke:#181818;stroke-width:1.0;stroke-dasharray:2.0,2.0;" x1="5" x2="284" y1="810.1973" y2="810.1973"/><text fill="#000000" font-family="sans-serif" font-size="13" font-weight="bold" lengthAdjust="spacing" textLength="14" x="17" y="804.9346">17</text><text fill="#000000" font-family="sans-serif" font-size="13" lengthAdjust="spacing" textLength="59" x="35" y="804.9346">return true</text><!--SRC=[xLTHRzem47xthpZrPL0L2hHCMeJGMEccjhH5XNOFsnxS-A2M4Zjp753__Sv981H2gZxi3JyG-tpt-Rix-qu0kF7fnTeezavFeu0hcuH1qzVXQOn_4rG-DeJaSyD3nW2ij072uwJLNNIW0OCOE8pr4WqynlJpIniOY50g6Ll3hJP_Jk0AbWGALWCNWjGLBa7WGlgOoi1e7Pw0LA2D80YI-LhDv3mn2D8sMSeGU6ArIi9dD2oNHDnOwSl8WHzv0o7kS3bCSQVwWJ0ljB961m6Q8-1nphaGbg8ukrJRJKeriXD6v5-gLomhj3SqL-GR_Hr27ipHkdCTMgtk5BblvO9RB2LlS0PwuI9ViacoisPxacTmc2UGDb09PqdJNgDHmi4TtdCiXjFxVYLRto1HozmQA449oEB-MzLo-pIrz3s1YJLIpVEqt_4GwsmRS6z8cjjmQMYWpDufLX8huG6RSTv8kviwp2B3vSZ5_ZxyDVhEPIa4soV9UBZ6k5B5JcsREi47TlMU58bfJIp5gtjHGN7KnjWyTHqqWpOn2bGI18pjscJHA4tHEvPqpNPIjJQQyI1sRmBfitA2MmhYSsAHQeih0Mh10odOVWUo9HmVUz3hPIcA-_qtNDvt-UEkVj35T5JucNd9jaDOnJmlAM_q1Uw_Rkyv29N8bLvQa-mdigVqKYbQEVkLvjHssA7575hCeSKSMioXnHnQpFzgCMFt7-VnTWHKs6Af5RIRdLRdl7bMcxuay1sVeTs5zXVllEMrkl3pSWfkkyvgFyOZY7LYAB32DHyNMRAlisk-uF2GA2j3zE0-GdKzl5a9u58jfD4gH6NPzTDjeV3vlF5DMfYWSINswPODSSOJUcgNojU27ha75r6xq-sm4LVpXCy9FBBiGXEmUVLWFFq7]--></g></svg>