<?xml version="1.0" encoding="us-ascii" standalone="no"?><svg xmlns="http://www.w3.org/2000/svg" xmlns:xlink="http://www.w3.org/1999/xlink" contentStyleType="text/css" height="250px" preserveAspectRatio="none" style="width:723px;height:250px;background:#FFFFFF;" version="1.1" viewBox="0 0 723 250" width="723px" zoomAndPan="magnify"><defs/><g><text fill="#000000" font-family="sans-serif" font-size="14" font-weight="bold" lengthAdjust="spacing" textLength="695" x="10" y="25.1074">US10: As Product Owner, I want the system to have a type of sensor that measures temperature (C).</text><!--class Sensor--><g id="elem_Sensor"><rect codeLine="4" fill="#F1F1F1" height="122.4844" id="Sensor" rx="2.5" ry="2.5" style="stroke:#181818;stroke-width:0.5;" width="190" x="72.75" y="84.1211"/><ellipse cx="141" cy="100.1211" fill="#B4A7E5" rx="11" ry="11" style="stroke:#181818;stroke-width:1.0;"/><path d="M141.9531,96.7617 L141.9531,103.418 L143.6719,103.418 Q144.2813,103.418 144.5469,103.6523 Q144.8125,103.8867 144.8125,104.2773 Q144.8125,104.6523 144.5469,104.8867 Q144.2813,105.1211 143.6719,105.1211 L138.5313,105.1211 Q137.9219,105.1211 137.6563,104.8867 Q137.3906,104.6523 137.3906,104.2617 Q137.3906,103.8867 137.6563,103.6523 Q137.9219,103.418 138.5313,103.418 L140.25,103.418 L140.25,96.7617 L138.5313,96.7617 Q137.9219,96.7617 137.6563,96.5273 Q137.3906,96.293 137.3906,95.9023 Q137.3906,95.5273 137.6563,95.293 Q137.9219,95.0586 138.5313,95.0586 L143.6719,95.0586 Q144.2813,95.0586 144.5469,95.293 Q144.8125,95.5273 144.8125,95.9023 Q144.8125,96.293 144.5469,96.5273 Q144.2813,96.7617 143.6719,96.7617 L141.9531,96.7617 Z " fill="#000000"/><text fill="#000000" font-family="sans-serif" font-size="14" font-style="italic" lengthAdjust="spacing" textLength="45" x="161.5" y="105.918">Sensor</text><line style="stroke:#181818;stroke-width:0.5;" x1="73.75" x2="261.75" y1="116.1211" y2="116.1211"/><line style="stroke:#181818;stroke-width:0.5;" x1="73.75" x2="261.75" y1="124.1211" y2="124.1211"/><ellipse cx="83.75" cy="138.9316" fill="#84BE84" rx="3" ry="3" style="stroke:#038048;stroke-width:1.0;"/><text fill="#000000" font-family="sans-serif" font-size="14" lengthAdjust="spacing" textLength="111" x="92.75" y="143.2285">getSensorName()</text><ellipse cx="83.75" cy="157.5527" fill="#84BE84" rx="3" ry="3" style="stroke:#038048;stroke-width:1.0;"/><text fill="#000000" font-family="sans-serif" font-size="14" lengthAdjust="spacing" textLength="107" x="92.75" y="161.8496">getSensorType()</text><ellipse cx="83.75" cy="176.1738" fill="#84BE84" rx="3" ry="3" style="stroke:#038048;stroke-width:1.0;"/><text fill="#000000" font-family="sans-serif" font-size="14" lengthAdjust="spacing" textLength="54" x="92.75" y="180.4707">getUnit()</text><ellipse cx="83.75" cy="194.7949" fill="#84BE84" rx="3" ry="3" style="stroke:#038048;stroke-width:1.0;"/><text fill="#000000" font-family="sans-serif" font-size="14" lengthAdjust="spacing" textLength="164" x="92.75" y="199.0918">getCurrentMeasurement()</text></g><!--class TemperatureSensor--><g id="elem_TemperatureSensor"><rect codeLine="11" fill="#F1F1F1" height="196.9688" id="TemperatureSensor" rx="2.5" ry="2.5" style="stroke:#181818;stroke-width:0.5;" width="208" x="297.75" y="46.6211"/><ellipse cx="334.8" cy="62.6211" fill="#ADD1B2" rx="11" ry="11" style="stroke:#181818;stroke-width:1.0;"/><path d="M337.5656,58.4961 Q337.7219,58.2773 337.9094,58.168 Q338.0969,58.0586 338.3156,58.0586 Q338.6906,58.0586 338.925,58.3242 Q339.1594,58.5742 339.1594,59.1836 L339.1594,60.6367 Q339.1594,61.2461 338.925,61.5117 Q338.6906,61.7773 338.3156,61.7773 Q337.9719,61.7773 337.7688,61.5742 Q337.5656,61.3867 337.4563,60.8711 Q337.4094,60.5117 337.2219,60.3242 Q336.8938,59.9492 336.2844,59.7305 Q335.675,59.5117 335.05,59.5117 Q334.2844,59.5117 333.6438,59.8398 Q333.0188,60.168 332.5188,60.918 Q332.0344,61.668 332.0344,62.6992 L332.0344,63.793 Q332.0344,65.0273 332.925,65.8555 Q333.8156,66.668 335.4094,66.668 Q336.3469,66.668 337.0031,66.418 Q337.3938,66.2617 337.8156,65.8242 Q338.0813,65.5586 338.2219,65.4805 Q338.3781,65.4023 338.5813,65.4023 Q338.9094,65.4023 339.1594,65.668 Q339.425,65.918 339.425,66.2617 Q339.425,66.6055 339.0813,67.0117 Q338.5813,67.5898 337.7844,67.918 Q336.7063,68.3711 335.4094,68.3711 Q333.8938,68.3711 332.6906,67.7461 Q331.7063,67.2461 331.0188,66.1836 Q330.3313,65.1055 330.3313,63.8242 L330.3313,62.668 Q330.3313,61.3398 330.9406,60.1992 Q331.5656,59.043 332.6594,58.4336 Q333.7531,57.8086 334.9875,57.8086 Q335.7219,57.8086 336.3625,57.9805 Q337.0188,58.1367 337.5656,58.4961 Z " fill="#000000"/><text fill="#000000" font-family="sans-serif" font-size="14" lengthAdjust="spacing" textLength="127" x="353.7" y="68.418">TemperatureSensor</text><line style="stroke:#181818;stroke-width:0.5;" x1="298.75" x2="504.75" y1="78.6211" y2="78.6211"/><rect fill="none" height="6" style="stroke:#C82930;stroke-width:1.0;" width="6" x="305.75" y="90.4316"/><text fill="#000000" font-family="sans-serif" font-size="14" lengthAdjust="spacing" textLength="124" x="317.75" y="97.7285">sensorName: String</text><rect fill="none" height="6" style="stroke:#C82930;stroke-width:1.0;" width="6" x="305.75" y="109.0527"/><text fill="#000000" font-family="sans-serif" font-size="14" lengthAdjust="spacing" textLength="160" x="317.75" y="116.3496">sensorType: SensorType</text><rect fill="none" height="6" style="stroke:#C82930;stroke-width:1.0;" width="6" x="305.75" y="127.6738"/><text fill="#000000" font-family="sans-serif" font-size="14" lengthAdjust="spacing" textLength="68" x="317.75" y="134.9707">unit: String</text><rect fill="none" height="6" style="stroke:#C82930;stroke-width:1.0;" width="6" x="305.75" y="146.2949"/><text fill="#000000" font-family="sans-serif" font-size="14" lengthAdjust="spacing" textLength="182" x="317.75" y="153.5918">currentMeasurement: double</text><line style="stroke:#181818;stroke-width:0.5;" x1="298.75" x2="504.75" y1="161.1055" y2="161.1055"/><ellipse cx="308.75" cy="175.916" fill="#84BE84" rx="3" ry="3" style="stroke:#038048;stroke-width:1.0;"/><text fill="#000000" font-family="sans-serif" font-size="14" lengthAdjust="spacing" textLength="111" x="317.75" y="180.2129">getSensorName()</text><ellipse cx="308.75" cy="194.5371" fill="#84BE84" rx="3" ry="3" style="stroke:#038048;stroke-width:1.0;"/><text fill="#000000" font-family="sans-serif" font-size="14" lengthAdjust="spacing" textLength="107" x="317.75" y="198.834">getSensorType()</text><ellipse cx="308.75" cy="213.1582" fill="#84BE84" rx="3" ry="3" style="stroke:#038048;stroke-width:1.0;"/><text fill="#000000" font-family="sans-serif" font-size="14" lengthAdjust="spacing" textLength="54" x="317.75" y="217.4551">getUnit()</text><ellipse cx="308.75" cy="231.7793" fill="#84BE84" rx="3" ry="3" style="stroke:#038048;stroke-width:1.0;"/><text fill="#000000" font-family="sans-serif" font-size="14" lengthAdjust="spacing" textLength="164" x="317.75" y="236.0762">getCurrentMeasurement()</text></g><!--class SensorType--><g id="elem_SensorType"><rect codeLine="22" fill="#F1F1F1" height="85.2422" id="SensorType" rx="2.5" ry="2.5" style="stroke:#181818;stroke-width:0.5;" width="115" x="541.25" y="102.6211"/><ellipse cx="558.95" cy="118.6211" fill="#EB937F" rx="11" ry="11" style="stroke:#181818;stroke-width:1.0;"/><path d="M557.8094,119.418 L557.8094,121.918 L562.1375,121.918 L562.1375,120.9961 Q562.1375,120.3867 562.3719,120.1211 Q562.6219,119.8555 562.9969,119.8555 Q563.3719,119.8555 563.6063,120.1211 Q563.8406,120.3867 563.8406,120.9961 L563.8406,123.6211 L555.8406,123.6211 Q555.2156,123.6211 554.95,123.3867 Q554.7,123.1523 554.7,122.7617 Q554.7,122.3867 554.9656,122.1523 Q555.2313,121.918 555.8406,121.918 L556.1063,121.918 L556.1063,115.2617 L555.8406,115.2617 Q555.2156,115.2617 554.95,115.0273 Q554.7,114.793 554.7,114.4023 Q554.7,114.0273 554.95,113.793 Q555.2156,113.5586 555.8406,113.5586 L563.4656,113.5586 L563.4656,116.1523 Q563.4656,116.7617 563.2313,117.0273 Q563.0125,117.2773 562.6219,117.2773 Q562.2469,117.2773 562.0125,117.0273 Q561.7781,116.7617 561.7781,116.1523 L561.7781,115.2617 L557.8094,115.2617 L557.8094,117.7148 L559.2938,117.7148 Q559.2938,117.0586 559.4188,116.8711 Q559.6844,116.4648 560.1531,116.4648 Q560.5281,116.4648 560.7625,116.7305 Q560.9969,116.9805 560.9969,117.5898 L560.9969,119.5586 Q560.9969,120.1055 560.8719,120.293 Q560.6063,120.6836 560.1531,120.6836 Q559.6844,120.6836 559.4188,120.2773 Q559.2938,120.0898 559.2938,119.418 L557.8094,119.418 Z " fill="#000000"/><text fill="#000000" font-family="sans-serif" font-size="14" lengthAdjust="spacing" textLength="77" x="573.55" y="124.418">SensorType</text><line style="stroke:#181818;stroke-width:0.5;" x1="542.25" x2="655.25" y1="134.6211" y2="134.6211"/><text fill="#000000" font-family="sans-serif" font-size="14" lengthAdjust="spacing" textLength="63" x="547.25" y="153.7285">HUMIDITY</text><text fill="#000000" font-family="sans-serif" font-size="14" lengthAdjust="spacing" textLength="103" x="547.25" y="172.3496">TEMPERATURE</text><line style="stroke:#181818;stroke-width:0.5;" x1="542.25" x2="655.25" y1="179.8633" y2="179.8633"/></g><!--link Sensor to TemperatureSensor--><g id="link_Sensor_TemperatureSensor"><path codeLine="27" d="M262.81,145.1211 C274.39,145.1211 285.97,145.1211 297.55,145.1211 " fill="none" id="Sensor-TemperatureSensor" style="stroke:#181818;stroke-width:1.0;"/></g><!--link TemperatureSensor to SensorType--><g id="link_TemperatureSensor_SensorType"><path codeLine="28" d="M506.02,145.1211 C517.73,145.1211 529.45,145.1211 541.16,145.1211 " fill="none" id="TemperatureSensor-SensorType" style="stroke:#181818;stroke-width:1.0;"/></g><!--SRC=[hO-zReD048JxUuhjOYl192sTvI250jioKAJSm1gGk3jqjnVBYlBkEGTYa6ZJxSzevXjkkICeifVd2BOMZaPNhcGuN1IP9qZWWeg16m9xjKmIM4E3dmG8VEq9z1aiAQkDro239BJEa0KlxSaW-mLMk_L6F3JClOt2iE-yevFTfjGoB3kqDgXQh0rA8Lh5PCvO4cI3wPTuh8c7PO-ILklP8VS0uw5GBO_ZpXb3YjE1HFhHFxw5-8s2VEAwHmJsxXz1ngPLzT_j5X7152S2vvCcLRa8Yw3IxgEZ_mCdvUGCmGE_5MdockJl8e_JOtpQviKflYd7Hi6ofLZs3kQrVW00]--></g></svg>