<?xml version="1.0" encoding="us-ascii" standalone="no"?><svg xmlns="http://www.w3.org/2000/svg" xmlns:xlink="http://www.w3.org/1999/xlink" contentStyleType="text/css" height="689px" preserveAspectRatio="none" style="width:2327px;height:689px;background:#FFFFFF;" version="1.1" viewBox="0 0 2327 689" width="2327px" zoomAndPan="magnify"><defs/><g><text fill="#000000" font-family="sans-serif" font-size="14" font-weight="bold" lengthAdjust="spacing" textLength="486" x="911.5" y="25.1074">US36 - As a Power User or Administrator, I want to get the peak power</text><text fill="#000000" font-family="sans-serif" font-size="14" font-weight="bold" lengthAdjust="spacing" textLength="612" x="850.5" y="43.7285">consumption of the house, in a given period. The house has a device acting as the grid</text><text fill="#000000" font-family="sans-serif" font-size="14" font-weight="bold" lengthAdjust="spacing" textLength="647" x="835" y="62.3496">power meter and may have several devices metering power sources (e.g. solar panel array).</text><!--class ValueRepository--><g id="elem_ValueRepository"><rect codeLine="6" fill="#F1F1F1" height="66.6211" id="ValueRepository" rx="2.5" ry="2.5" style="stroke:#181818;stroke-width:0.5;" width="698" x="196" y="306.3633"/><ellipse cx="488.75" cy="322.3633" fill="#B4A7E5" rx="11" ry="11" style="stroke:#181818;stroke-width:1.0;"/><path d="M489.7031,319.0039 L489.7031,325.6602 L491.4219,325.6602 Q492.0313,325.6602 492.2969,325.8945 Q492.5625,326.1289 492.5625,326.5195 Q492.5625,326.8945 492.2969,327.1289 Q492.0313,327.3633 491.4219,327.3633 L486.2813,327.3633 Q485.6719,327.3633 485.4063,327.1289 Q485.1406,326.8945 485.1406,326.5039 Q485.1406,326.1289 485.4063,325.8945 Q485.6719,325.6602 486.2813,325.6602 L488,325.6602 L488,319.0039 L486.2813,319.0039 Q485.6719,319.0039 485.4063,318.7695 Q485.1406,318.5352 485.1406,318.1445 Q485.1406,317.7695 485.4063,317.5352 Q485.6719,317.3008 486.2813,317.3008 L491.4219,317.3008 Q492.0313,317.3008 492.2969,317.5352 Q492.5625,317.7695 492.5625,318.1445 Q492.5625,318.5352 492.2969,318.7695 Q492.0313,319.0039 491.4219,319.0039 L489.7031,319.0039 Z " fill="#000000"/><text fill="#000000" font-family="sans-serif" font-size="14" font-style="italic" lengthAdjust="spacing" textLength="104" x="509.25" y="328.1602">ValueRepository</text><line style="stroke:#181818;stroke-width:0.5;" x1="197" x2="893" y1="338.3633" y2="338.3633"/><line style="stroke:#181818;stroke-width:0.5;" x1="197" x2="893" y1="346.3633" y2="346.3633"/><ellipse cx="207" cy="361.1738" fill="#84BE84" rx="3" ry="3" style="stroke:#038048;stroke-width:1.0;"/><text fill="#000000" font-family="sans-serif" font-size="14" lengthAdjust="spacing" textLength="672" x="216" y="365.4707">findBySensorIdBetweenPeriodOfTime(sensorID: SensorID, start: Timestamp, end: Timestamp): List&lt;Value&gt;</text></g><!--class InstantTimeValueRepository--><g id="elem_InstantTimeValueRepository"><rect codeLine="10" fill="#F1F1F1" height="48" id="InstantTimeValueRepository" rx="2.5" ry="2.5" style="stroke:#181818;stroke-width:0.5;" width="210" x="440" y="470.3633"/><ellipse cx="455" cy="486.3633" fill="#B4A7E5" rx="11" ry="11" style="stroke:#181818;stroke-width:1.0;"/><path d="M455.9531,483.0039 L455.9531,489.6602 L457.6719,489.6602 Q458.2813,489.6602 458.5469,489.8945 Q458.8125,490.1289 458.8125,490.5195 Q458.8125,490.8945 458.5469,491.1289 Q458.2813,491.3633 457.6719,491.3633 L452.5313,491.3633 Q451.9219,491.3633 451.6563,491.1289 Q451.3906,490.8945 451.3906,490.5039 Q451.3906,490.1289 451.6563,489.8945 Q451.9219,489.6602 452.5313,489.6602 L454.25,489.6602 L454.25,483.0039 L452.5313,483.0039 Q451.9219,483.0039 451.6563,482.7695 Q451.3906,482.5352 451.3906,482.1445 Q451.3906,481.7695 451.6563,481.5352 Q451.9219,481.3008 452.5313,481.3008 L457.6719,481.3008 Q458.2813,481.3008 458.5469,481.5352 Q458.8125,481.7695 458.8125,482.1445 Q458.8125,482.5352 458.5469,482.7695 Q458.2813,483.0039 457.6719,483.0039 L455.9531,483.0039 Z " fill="#000000"/><text fill="#000000" font-family="sans-serif" font-size="14" font-style="italic" lengthAdjust="spacing" textLength="178" x="469" y="492.1602">InstantTimeValueRepository</text><line style="stroke:#181818;stroke-width:0.5;" x1="441" x2="649" y1="502.3633" y2="502.3633"/><line style="stroke:#181818;stroke-width:0.5;" x1="441" x2="649" y1="510.3633" y2="510.3633"/></g><!--class PeriodTimeValueRepository--><g id="elem_PeriodTimeValueRepository"><rect codeLine="13" fill="#F1F1F1" height="48" id="PeriodTimeValueRepository" rx="2.5" ry="2.5" style="stroke:#181818;stroke-width:0.5;" width="208" x="883" y="470.3633"/><ellipse cx="898" cy="486.3633" fill="#B4A7E5" rx="11" ry="11" style="stroke:#181818;stroke-width:1.0;"/><path d="M898.9531,483.0039 L898.9531,489.6602 L900.6719,489.6602 Q901.2813,489.6602 901.5469,489.8945 Q901.8125,490.1289 901.8125,490.5195 Q901.8125,490.8945 901.5469,491.1289 Q901.2813,491.3633 900.6719,491.3633 L895.5313,491.3633 Q894.9219,491.3633 894.6563,491.1289 Q894.3906,490.8945 894.3906,490.5039 Q894.3906,490.1289 894.6563,489.8945 Q894.9219,489.6602 895.5313,489.6602 L897.25,489.6602 L897.25,483.0039 L895.5313,483.0039 Q894.9219,483.0039 894.6563,482.7695 Q894.3906,482.5352 894.3906,482.1445 Q894.3906,481.7695 894.6563,481.5352 Q894.9219,481.3008 895.5313,481.3008 L900.6719,481.3008 Q901.2813,481.3008 901.5469,481.5352 Q901.8125,481.7695 901.8125,482.1445 Q901.8125,482.5352 901.5469,482.7695 Q901.2813,483.0039 900.6719,483.0039 L898.9531,483.0039 Z " fill="#000000"/><text fill="#000000" font-family="sans-serif" font-size="14" font-style="italic" lengthAdjust="spacing" textLength="176" x="912" y="492.1602">PeriodTimeValueRepository</text><line style="stroke:#181818;stroke-width:0.5;" x1="884" x2="1090" y1="502.3633" y2="502.3633"/><line style="stroke:#181818;stroke-width:0.5;" x1="884" x2="1090" y1="510.3633" y2="510.3633"/></g><!--class InstantValueRepositoryMem--><g id="elem_InstantValueRepositoryMem"><rect codeLine="16" fill="#F1F1F1" height="85.2422" id="InstantValueRepositoryMem" rx="2.5" ry="2.5" style="stroke:#181818;stroke-width:0.5;" width="698" x="7" y="596.8633"/><ellipse cx="263.75" cy="612.8633" fill="#ADD1B2" rx="11" ry="11" style="stroke:#181818;stroke-width:1.0;"/><path d="M266.5156,608.7383 Q266.6719,608.5195 266.8594,608.4102 Q267.0469,608.3008 267.2656,608.3008 Q267.6406,608.3008 267.875,608.5664 Q268.1094,608.8164 268.1094,609.4258 L268.1094,610.8789 Q268.1094,611.4883 267.875,611.7539 Q267.6406,612.0195 267.2656,612.0195 Q266.9219,612.0195 266.7188,611.8164 Q266.5156,611.6289 266.4063,611.1133 Q266.3594,610.7539 266.1719,610.5664 Q265.8438,610.1914 265.2344,609.9727 Q264.625,609.7539 264,609.7539 Q263.2344,609.7539 262.5938,610.082 Q261.9688,610.4102 261.4688,611.1602 Q260.9844,611.9102 260.9844,612.9414 L260.9844,614.0352 Q260.9844,615.2695 261.875,616.0977 Q262.7656,616.9102 264.3594,616.9102 Q265.2969,616.9102 265.9531,616.6602 Q266.3438,616.5039 266.7656,616.0664 Q267.0313,615.8008 267.1719,615.7227 Q267.3281,615.6445 267.5313,615.6445 Q267.8594,615.6445 268.1094,615.9102 Q268.375,616.1602 268.375,616.5039 Q268.375,616.8477 268.0313,617.2539 Q267.5313,617.832 266.7344,618.1602 Q265.6563,618.6133 264.3594,618.6133 Q262.8438,618.6133 261.6406,617.9883 Q260.6563,617.4883 259.9688,616.4258 Q259.2813,615.3477 259.2813,614.0664 L259.2813,612.9102 Q259.2813,611.582 259.8906,610.4414 Q260.5156,609.2852 261.6094,608.6758 Q262.7031,608.0508 263.9375,608.0508 Q264.6719,608.0508 265.3125,608.2227 Q265.9688,608.3789 266.5156,608.7383 Z " fill="#000000"/><text fill="#000000" font-family="sans-serif" font-size="14" lengthAdjust="spacing" textLength="176" x="284.25" y="618.6602">InstantValueRepositoryMem</text><line style="stroke:#181818;stroke-width:0.5;" x1="8" x2="704" y1="628.8633" y2="628.8633"/><rect fill="none" height="6" style="stroke:#C82930;stroke-width:1.0;" width="6" x="15" y="640.6738"/><text fill="#000000" font-family="sans-serif" font-size="14" lengthAdjust="spacing" textLength="201" x="27" y="647.9707">Map&lt;ValueID, Value&gt; valueMap</text><line style="stroke:#181818;stroke-width:0.5;" x1="8" x2="704" y1="655.4844" y2="655.4844"/><ellipse cx="18" cy="670.2949" fill="#84BE84" rx="3" ry="3" style="stroke:#038048;stroke-width:1.0;"/><text fill="#000000" font-family="sans-serif" font-size="14" lengthAdjust="spacing" textLength="672" x="27" y="674.5918">findBySensorIdBetweenPeriodOfTime(sensorID: SensorID, start: Timestamp, end: Timestamp): List&lt;Value&gt;</text></g><!--class PeriodTimeValueRepositoryMem--><g id="elem_PeriodTimeValueRepositoryMem"><rect codeLine="21" fill="#F1F1F1" height="85.2422" id="PeriodTimeValueRepositoryMem" rx="2.5" ry="2.5" style="stroke:#181818;stroke-width:0.5;" width="698" x="740" y="596.8633"/><ellipse cx="981.75" cy="612.8633" fill="#ADD1B2" rx="11" ry="11" style="stroke:#181818;stroke-width:1.0;"/><path d="M984.5156,608.7383 Q984.6719,608.5195 984.8594,608.4102 Q985.0469,608.3008 985.2656,608.3008 Q985.6406,608.3008 985.875,608.5664 Q986.1094,608.8164 986.1094,609.4258 L986.1094,610.8789 Q986.1094,611.4883 985.875,611.7539 Q985.6406,612.0195 985.2656,612.0195 Q984.9219,612.0195 984.7188,611.8164 Q984.5156,611.6289 984.4063,611.1133 Q984.3594,610.7539 984.1719,610.5664 Q983.8438,610.1914 983.2344,609.9727 Q982.625,609.7539 982,609.7539 Q981.2344,609.7539 980.5938,610.082 Q979.9688,610.4102 979.4688,611.1602 Q978.9844,611.9102 978.9844,612.9414 L978.9844,614.0352 Q978.9844,615.2695 979.875,616.0977 Q980.7656,616.9102 982.3594,616.9102 Q983.2969,616.9102 983.9531,616.6602 Q984.3438,616.5039 984.7656,616.0664 Q985.0313,615.8008 985.1719,615.7227 Q985.3281,615.6445 985.5313,615.6445 Q985.8594,615.6445 986.1094,615.9102 Q986.375,616.1602 986.375,616.5039 Q986.375,616.8477 986.0313,617.2539 Q985.5313,617.832 984.7344,618.1602 Q983.6563,618.6133 982.3594,618.6133 Q980.8438,618.6133 979.6406,617.9883 Q978.6563,617.4883 977.9688,616.4258 Q977.2813,615.3477 977.2813,614.0664 L977.2813,612.9102 Q977.2813,611.582 977.8906,610.4414 Q978.5156,609.2852 979.6094,608.6758 Q980.7031,608.0508 981.9375,608.0508 Q982.6719,608.0508 983.3125,608.2227 Q983.9688,608.3789 984.5156,608.7383 Z " fill="#000000"/><text fill="#000000" font-family="sans-serif" font-size="14" lengthAdjust="spacing" textLength="206" x="1002.25" y="618.6602">PeriodTimeValueRepositoryMem</text><line style="stroke:#181818;stroke-width:0.5;" x1="741" x2="1437" y1="628.8633" y2="628.8633"/><rect fill="none" height="6" style="stroke:#C82930;stroke-width:1.0;" width="6" x="748" y="640.6738"/><text fill="#000000" font-family="sans-serif" font-size="14" lengthAdjust="spacing" textLength="201" x="760" y="647.9707">Map&lt;ValueID, Value&gt; valueMap</text><line style="stroke:#181818;stroke-width:0.5;" x1="741" x2="1437" y1="655.4844" y2="655.4844"/><ellipse cx="751" cy="670.2949" fill="#84BE84" rx="3" ry="3" style="stroke:#038048;stroke-width:1.0;"/><text fill="#000000" font-family="sans-serif" font-size="14" lengthAdjust="spacing" textLength="672" x="760" y="674.5918">findBySensorIdBetweenPeriodOfTime(sensorID: SensorID, start: Timestamp, end: Timestamp): List&lt;Value&gt;</text></g><!--class ValueControllerWeb--><g id="elem_ValueControllerWeb"><rect codeLine="26" fill="#F1F1F1" height="66.6211" id="ValueControllerWeb" rx="2.5" ry="2.5" style="stroke:#181818;stroke-width:0.5;" width="509" x="1198.5" y="123.8633"/><ellipse cx="1385.25" cy="139.8633" fill="#ADD1B2" rx="11" ry="11" style="stroke:#181818;stroke-width:1.0;"/><path d="M1388.0156,135.7383 Q1388.1719,135.5195 1388.3594,135.4102 Q1388.5469,135.3008 1388.7656,135.3008 Q1389.1406,135.3008 1389.375,135.5664 Q1389.6094,135.8164 1389.6094,136.4258 L1389.6094,137.8789 Q1389.6094,138.4883 1389.375,138.7539 Q1389.1406,139.0195 1388.7656,139.0195 Q1388.4219,139.0195 1388.2188,138.8164 Q1388.0156,138.6289 1387.9063,138.1133 Q1387.8594,137.7539 1387.6719,137.5664 Q1387.3438,137.1914 1386.7344,136.9727 Q1386.125,136.7539 1385.5,136.7539 Q1384.7344,136.7539 1384.0938,137.082 Q1383.4688,137.4102 1382.9688,138.1602 Q1382.4844,138.9102 1382.4844,139.9414 L1382.4844,141.0352 Q1382.4844,142.2695 1383.375,143.0977 Q1384.2656,143.9102 1385.8594,143.9102 Q1386.7969,143.9102 1387.4531,143.6602 Q1387.8438,143.5039 1388.2656,143.0664 Q1388.5313,142.8008 1388.6719,142.7227 Q1388.8281,142.6445 1389.0313,142.6445 Q1389.3594,142.6445 1389.6094,142.9102 Q1389.875,143.1602 1389.875,143.5039 Q1389.875,143.8477 1389.5313,144.2539 Q1389.0313,144.832 1388.2344,145.1602 Q1387.1563,145.6133 1385.8594,145.6133 Q1384.3438,145.6133 1383.1406,144.9883 Q1382.1563,144.4883 1381.4688,143.4258 Q1380.7813,142.3477 1380.7813,141.0664 L1380.7813,139.9102 Q1380.7813,138.582 1381.3906,137.4414 Q1382.0156,136.2852 1383.1094,135.6758 Q1384.2031,135.0508 1385.4375,135.0508 Q1386.1719,135.0508 1386.8125,135.2227 Q1387.4688,135.3789 1388.0156,135.7383 Z " fill="#000000"/><text fill="#000000" font-family="sans-serif" font-size="14" lengthAdjust="spacing" textLength="127" x="1405.75" y="145.6602">ValueControllerWeb</text><line style="stroke:#181818;stroke-width:0.5;" x1="1199.5" x2="1706.5" y1="155.8633" y2="155.8633"/><line style="stroke:#181818;stroke-width:0.5;" x1="1199.5" x2="1706.5" y1="163.8633" y2="163.8633"/><ellipse cx="1209.5" cy="178.6738" fill="#84BE84" rx="3" ry="3" style="stroke:#038048;stroke-width:1.0;"/><text fill="#000000" font-family="sans-serif" font-size="14" lengthAdjust="spacing" textLength="483" x="1218.5" y="182.9707">getPeakPower(start: Timestamp, end: Timestamp): ResponseEntity&lt;Double&gt;</text></g><!--class ValueService--><g id="elem_ValueService"><rect codeLine="30" fill="#F1F1F1" height="85.2422" id="ValueService" rx="2.5" ry="2.5" style="stroke:#181818;stroke-width:0.5;" width="1048" x="929" y="297.3633"/><ellipse cx="1407.25" cy="313.3633" fill="#ADD1B2" rx="11" ry="11" style="stroke:#181818;stroke-width:1.0;"/><path d="M1410.0156,309.2383 Q1410.1719,309.0195 1410.3594,308.9102 Q1410.5469,308.8008 1410.7656,308.8008 Q1411.1406,308.8008 1411.375,309.0664 Q1411.6094,309.3164 1411.6094,309.9258 L1411.6094,311.3789 Q1411.6094,311.9883 1411.375,312.2539 Q1411.1406,312.5195 1410.7656,312.5195 Q1410.4219,312.5195 1410.2188,312.3164 Q1410.0156,312.1289 1409.9063,311.6133 Q1409.8594,311.2539 1409.6719,311.0664 Q1409.3438,310.6914 1408.7344,310.4727 Q1408.125,310.2539 1407.5,310.2539 Q1406.7344,310.2539 1406.0938,310.582 Q1405.4688,310.9102 1404.9688,311.6602 Q1404.4844,312.4102 1404.4844,313.4414 L1404.4844,314.5352 Q1404.4844,315.7695 1405.375,316.5977 Q1406.2656,317.4102 1407.8594,317.4102 Q1408.7969,317.4102 1409.4531,317.1602 Q1409.8438,317.0039 1410.2656,316.5664 Q1410.5313,316.3008 1410.6719,316.2227 Q1410.8281,316.1445 1411.0313,316.1445 Q1411.3594,316.1445 1411.6094,316.4102 Q1411.875,316.6602 1411.875,317.0039 Q1411.875,317.3477 1411.5313,317.7539 Q1411.0313,318.332 1410.2344,318.6602 Q1409.1563,319.1133 1407.8594,319.1133 Q1406.3438,319.1133 1405.1406,318.4883 Q1404.1563,317.9883 1403.4688,316.9258 Q1402.7813,315.8477 1402.7813,314.5664 L1402.7813,313.4102 Q1402.7813,312.082 1403.3906,310.9414 Q1404.0156,309.7852 1405.1094,309.1758 Q1406.2031,308.5508 1407.4375,308.5508 Q1408.1719,308.5508 1408.8125,308.7227 Q1409.4688,308.8789 1410.0156,309.2383 Z " fill="#000000"/><text fill="#000000" font-family="sans-serif" font-size="14" lengthAdjust="spacing" textLength="83" x="1427.75" y="319.1602">ValueService</text><line style="stroke:#181818;stroke-width:0.5;" x1="930" x2="1976" y1="329.3633" y2="329.3633"/><line style="stroke:#181818;stroke-width:0.5;" x1="930" x2="1976" y1="337.3633" y2="337.3633"/><ellipse cx="940" cy="352.1738" fill="#84BE84" rx="3" ry="3" style="stroke:#038048;stroke-width:1.0;"/><text fill="#000000" font-family="sans-serif" font-size="14" lengthAdjust="spacing" textLength="531" x="949" y="356.4707">getPeakPowerConsumption(startPeriod: Timestamp, endPeriod: Timestamp): double</text><rect fill="#F24D5C" height="6" style="stroke:#C82930;stroke-width:1.0;" width="6" x="937" y="367.7949"/><text fill="#000000" font-family="sans-serif" font-size="14" lengthAdjust="spacing" textLength="1022" x="949" y="375.0918">calculatePeakPowerConsumption(listOfPowerGridValues: List&lt;Value&gt;, mapOfPowerSourcesValues: Map&lt;DeviceID, Map&lt;Timestamp, InstantTimeValue&gt;&gt;): double</text></g><!--class SensorRepository--><g id="elem_SensorRepository"><rect codeLine="35" fill="#F1F1F1" height="85.2422" id="SensorRepository" rx="2.5" ry="2.5" style="stroke:#181818;stroke-width:0.5;" width="573" x="1384.5" y="451.8633"/><ellipse cx="1610.25" cy="467.8633" fill="#ADD1B2" rx="11" ry="11" style="stroke:#181818;stroke-width:1.0;"/><path d="M1613.0156,463.7383 Q1613.1719,463.5195 1613.3594,463.4102 Q1613.5469,463.3008 1613.7656,463.3008 Q1614.1406,463.3008 1614.375,463.5664 Q1614.6094,463.8164 1614.6094,464.4258 L1614.6094,465.8789 Q1614.6094,466.4883 1614.375,466.7539 Q1614.1406,467.0195 1613.7656,467.0195 Q1613.4219,467.0195 1613.2188,466.8164 Q1613.0156,466.6289 1612.9063,466.1133 Q1612.8594,465.7539 1612.6719,465.5664 Q1612.3438,465.1914 1611.7344,464.9727 Q1611.125,464.7539 1610.5,464.7539 Q1609.7344,464.7539 1609.0938,465.082 Q1608.4688,465.4102 1607.9688,466.1602 Q1607.4844,466.9102 1607.4844,467.9414 L1607.4844,469.0352 Q1607.4844,470.2695 1608.375,471.0977 Q1609.2656,471.9102 1610.8594,471.9102 Q1611.7969,471.9102 1612.4531,471.6602 Q1612.8438,471.5039 1613.2656,471.0664 Q1613.5313,470.8008 1613.6719,470.7227 Q1613.8281,470.6445 1614.0313,470.6445 Q1614.3594,470.6445 1614.6094,470.9102 Q1614.875,471.1602 1614.875,471.5039 Q1614.875,471.8477 1614.5313,472.2539 Q1614.0313,472.832 1613.2344,473.1602 Q1612.1563,473.6133 1610.8594,473.6133 Q1609.3438,473.6133 1608.1406,472.9883 Q1607.1563,472.4883 1606.4688,471.4258 Q1605.7813,470.3477 1605.7813,469.0664 L1605.7813,467.9102 Q1605.7813,466.582 1606.3906,465.4414 Q1607.0156,464.2852 1608.1094,463.6758 Q1609.2031,463.0508 1610.4375,463.0508 Q1611.1719,463.0508 1611.8125,463.2227 Q1612.4688,463.3789 1613.0156,463.7383 Z " fill="#000000"/><text fill="#000000" font-family="sans-serif" font-size="14" lengthAdjust="spacing" textLength="113" x="1630.75" y="473.6602">SensorRepository</text><line style="stroke:#181818;stroke-width:0.5;" x1="1385.5" x2="1956.5" y1="483.8633" y2="483.8633"/><line style="stroke:#181818;stroke-width:0.5;" x1="1385.5" x2="1956.5" y1="491.8633" y2="491.8633"/><ellipse cx="1395.5" cy="506.6738" fill="#84BE84" rx="3" ry="3" style="stroke:#038048;stroke-width:1.0;"/><text fill="#000000" font-family="sans-serif" font-size="14" lengthAdjust="spacing" textLength="314" x="1404.5" y="510.9707">findByDeviceID(deviceID: DeviceID): List&lt;Sensor&gt;</text><ellipse cx="1395.5" cy="525.2949" fill="#84BE84" rx="3" ry="3" style="stroke:#038048;stroke-width:1.0;"/><text fill="#000000" font-family="sans-serif" font-size="14" lengthAdjust="spacing" textLength="547" x="1404.5" y="529.5918">findBySensorFunctionality(sensorFunctionalityID: SensorFunctionalityID): List&lt;Sensor&gt;</text></g><!--class ValueID--><g id="elem_ValueID"><rect codeLine="40" fill="#F1F1F1" height="141.1055" id="ValueID" rx="2.5" ry="2.5" style="stroke:#181818;stroke-width:0.5;" width="170" x="2081" y="86.8633"/><ellipse cx="2126.75" cy="102.8633" fill="#ADD1B2" rx="11" ry="11" style="stroke:#181818;stroke-width:1.0;"/><path d="M2129.5156,98.7383 Q2129.6719,98.5195 2129.8594,98.4102 Q2130.0469,98.3008 2130.2656,98.3008 Q2130.6406,98.3008 2130.875,98.5664 Q2131.1094,98.8164 2131.1094,99.4258 L2131.1094,100.8789 Q2131.1094,101.4883 2130.875,101.7539 Q2130.6406,102.0195 2130.2656,102.0195 Q2129.9219,102.0195 2129.7188,101.8164 Q2129.5156,101.6289 2129.4063,101.1133 Q2129.3594,100.7539 2129.1719,100.5664 Q2128.8438,100.1914 2128.2344,99.9727 Q2127.625,99.7539 2127,99.7539 Q2126.2344,99.7539 2125.5938,100.082 Q2124.9688,100.4102 2124.4688,101.1602 Q2123.9844,101.9102 2123.9844,102.9414 L2123.9844,104.0352 Q2123.9844,105.2695 2124.875,106.0977 Q2125.7656,106.9102 2127.3594,106.9102 Q2128.2969,106.9102 2128.9531,106.6602 Q2129.3438,106.5039 2129.7656,106.0664 Q2130.0313,105.8008 2130.1719,105.7227 Q2130.3281,105.6445 2130.5313,105.6445 Q2130.8594,105.6445 2131.1094,105.9102 Q2131.375,106.1602 2131.375,106.5039 Q2131.375,106.8477 2131.0313,107.2539 Q2130.5313,107.832 2129.7344,108.1602 Q2128.6563,108.6133 2127.3594,108.6133 Q2125.8438,108.6133 2124.6406,107.9883 Q2123.6563,107.4883 2122.9688,106.4258 Q2122.2813,105.3477 2122.2813,104.0664 L2122.2813,102.9102 Q2122.2813,101.582 2122.8906,100.4414 Q2123.5156,99.2852 2124.6094,98.6758 Q2125.7031,98.0508 2126.9375,98.0508 Q2127.6719,98.0508 2128.3125,98.2227 Q2128.9688,98.3789 2129.5156,98.7383 Z " fill="#000000"/><text fill="#000000" font-family="sans-serif" font-size="14" lengthAdjust="spacing" textLength="49" x="2147.25" y="108.6602">ValueID</text><rect fill="#FFFFFF" height="17.9609" style="stroke:#181818;stroke-width:1.0;stroke-dasharray:2.0,2.0;" width="19" x="2235" y="83.8633"/><text fill="#000000" font-family="sans-serif" font-size="12" font-style="italic" lengthAdjust="spacing" textLength="17" x="2236" y="97.8125">VO</text><line style="stroke:#181818;stroke-width:0.5;" x1="2082" x2="2250" y1="118.8633" y2="118.8633"/><rect fill="none" height="6" style="stroke:#C82930;stroke-width:1.0;" width="6" x="2089" y="130.6738"/><text fill="#000000" font-family="sans-serif" font-size="14" lengthAdjust="spacing" textLength="68" x="2101" y="137.9707">id: ValueID</text><rect fill="none" height="6" style="stroke:#C82930;stroke-width:1.0;" width="6" x="2089" y="149.2949"/><text fill="#000000" font-family="sans-serif" font-size="14" lengthAdjust="spacing" textLength="122" x="2101" y="156.5918">sensorID: SensorID</text><rect fill="none" height="6" style="stroke:#C82930;stroke-width:1.0;" width="6" x="2089" y="167.916"/><text fill="#000000" font-family="sans-serif" font-size="14" lengthAdjust="spacing" textLength="141" x="2101" y="175.2129">timestamp: Timestamp</text><rect fill="none" height="6" style="stroke:#C82930;stroke-width:1.0;" width="6" x="2089" y="186.5371"/><text fill="#000000" font-family="sans-serif" font-size="14" lengthAdjust="spacing" textLength="85" x="2101" y="193.834">value: double</text><line style="stroke:#181818;stroke-width:0.5;" x1="2082" x2="2250" y1="201.3477" y2="201.3477"/><ellipse cx="2092" cy="216.1582" fill="#84BE84" rx="3" ry="3" style="stroke:#038048;stroke-width:1.0;"/><text fill="#000000" font-family="sans-serif" font-size="14" lengthAdjust="spacing" textLength="144" x="2101" y="220.4551">getReading(): Reading</text></g><!--class Sensor--><g id="elem_Sensor"><rect codeLine="48" fill="#F1F1F1" height="103.8633" id="Sensor" rx="2.5" ry="2.5" style="stroke:#181818;stroke-width:0.5;" width="308" x="2012" y="287.8633"/><ellipse cx="2139.25" cy="303.8633" fill="#ADD1B2" rx="11" ry="11" style="stroke:#181818;stroke-width:1.0;"/><path d="M2142.0156,299.7383 Q2142.1719,299.5195 2142.3594,299.4102 Q2142.5469,299.3008 2142.7656,299.3008 Q2143.1406,299.3008 2143.375,299.5664 Q2143.6094,299.8164 2143.6094,300.4258 L2143.6094,301.8789 Q2143.6094,302.4883 2143.375,302.7539 Q2143.1406,303.0195 2142.7656,303.0195 Q2142.4219,303.0195 2142.2188,302.8164 Q2142.0156,302.6289 2141.9063,302.1133 Q2141.8594,301.7539 2141.6719,301.5664 Q2141.3438,301.1914 2140.7344,300.9727 Q2140.125,300.7539 2139.5,300.7539 Q2138.7344,300.7539 2138.0938,301.082 Q2137.4688,301.4102 2136.9688,302.1602 Q2136.4844,302.9102 2136.4844,303.9414 L2136.4844,305.0352 Q2136.4844,306.2695 2137.375,307.0977 Q2138.2656,307.9102 2139.8594,307.9102 Q2140.7969,307.9102 2141.4531,307.6602 Q2141.8438,307.5039 2142.2656,307.0664 Q2142.5313,306.8008 2142.6719,306.7227 Q2142.8281,306.6445 2143.0313,306.6445 Q2143.3594,306.6445 2143.6094,306.9102 Q2143.875,307.1602 2143.875,307.5039 Q2143.875,307.8477 2143.5313,308.2539 Q2143.0313,308.832 2142.2344,309.1602 Q2141.1563,309.6133 2139.8594,309.6133 Q2138.3438,309.6133 2137.1406,308.9883 Q2136.1563,308.4883 2135.4688,307.4258 Q2134.7813,306.3477 2134.7813,305.0664 L2134.7813,303.9102 Q2134.7813,302.582 2135.3906,301.4414 Q2136.0156,300.2852 2137.1094,299.6758 Q2138.2031,299.0508 2139.4375,299.0508 Q2140.1719,299.0508 2140.8125,299.2227 Q2141.4688,299.3789 2142.0156,299.7383 Z " fill="#000000"/><text fill="#000000" font-family="sans-serif" font-size="14" lengthAdjust="spacing" textLength="45" x="2159.75" y="309.6602">Sensor</text><line style="stroke:#181818;stroke-width:0.5;" x1="2013" x2="2319" y1="319.8633" y2="319.8633"/><rect fill="none" height="6" style="stroke:#C82930;stroke-width:1.0;" width="6" x="2020" y="331.6738"/><text fill="#000000" font-family="sans-serif" font-size="14" lengthAdjust="spacing" textLength="77" x="2032" y="338.9707">id: SensorID</text><rect fill="none" height="6" style="stroke:#C82930;stroke-width:1.0;" width="6" x="2020" y="350.2949"/><text fill="#000000" font-family="sans-serif" font-size="14" lengthAdjust="spacing" textLength="118" x="2032" y="357.5918">deviceID: DeviceID</text><rect fill="none" height="6" style="stroke:#C82930;stroke-width:1.0;" width="6" x="2020" y="368.916"/><text fill="#000000" font-family="sans-serif" font-size="14" lengthAdjust="spacing" textLength="282" x="2032" y="376.2129">sensorFunctionalityID: SensorFunctionalityID</text><line style="stroke:#181818;stroke-width:0.5;" x1="2013" x2="2319" y1="383.7266" y2="383.7266"/></g><!--class ConfigScraper--><g id="elem_ConfigScraper"><rect codeLine="54" fill="#F1F1F1" height="66.6211" id="ConfigScraper" rx="2.5" ry="2.5" style="stroke:#181818;stroke-width:0.5;" width="223" x="1126.5" y="460.8633"/><ellipse cx="1188.25" cy="476.8633" fill="#ADD1B2" rx="11" ry="11" style="stroke:#181818;stroke-width:1.0;"/><path d="M1191.0156,472.7383 Q1191.1719,472.5195 1191.3594,472.4102 Q1191.5469,472.3008 1191.7656,472.3008 Q1192.1406,472.3008 1192.375,472.5664 Q1192.6094,472.8164 1192.6094,473.4258 L1192.6094,474.8789 Q1192.6094,475.4883 1192.375,475.7539 Q1192.1406,476.0195 1191.7656,476.0195 Q1191.4219,476.0195 1191.2188,475.8164 Q1191.0156,475.6289 1190.9063,475.1133 Q1190.8594,474.7539 1190.6719,474.5664 Q1190.3438,474.1914 1189.7344,473.9727 Q1189.125,473.7539 1188.5,473.7539 Q1187.7344,473.7539 1187.0938,474.082 Q1186.4688,474.4102 1185.9688,475.1602 Q1185.4844,475.9102 1185.4844,476.9414 L1185.4844,478.0352 Q1185.4844,479.2695 1186.375,480.0977 Q1187.2656,480.9102 1188.8594,480.9102 Q1189.7969,480.9102 1190.4531,480.6602 Q1190.8438,480.5039 1191.2656,480.0664 Q1191.5313,479.8008 1191.6719,479.7227 Q1191.8281,479.6445 1192.0313,479.6445 Q1192.3594,479.6445 1192.6094,479.9102 Q1192.875,480.1602 1192.875,480.5039 Q1192.875,480.8477 1192.5313,481.2539 Q1192.0313,481.832 1191.2344,482.1602 Q1190.1563,482.6133 1188.8594,482.6133 Q1187.3438,482.6133 1186.1406,481.9883 Q1185.1563,481.4883 1184.4688,480.4258 Q1183.7813,479.3477 1183.7813,478.0664 L1183.7813,476.9102 Q1183.7813,475.582 1184.3906,474.4414 Q1185.0156,473.2852 1186.1094,472.6758 Q1187.2031,472.0508 1188.4375,472.0508 Q1189.1719,472.0508 1189.8125,472.2227 Q1190.4688,472.3789 1191.0156,472.7383 Z " fill="#000000"/><text fill="#000000" font-family="sans-serif" font-size="14" lengthAdjust="spacing" textLength="91" x="1208.75" y="482.6602">ConfigScraper</text><line style="stroke:#181818;stroke-width:0.5;" x1="1127.5" x2="1348.5" y1="492.8633" y2="492.8633"/><line style="stroke:#181818;stroke-width:0.5;" x1="1127.5" x2="1348.5" y1="500.8633" y2="500.8633"/><ellipse cx="1137.5" cy="515.6738" fill="#84BE84" rx="3" ry="3" style="stroke:#038048;stroke-width:1.0;"/><text fill="#000000" font-family="sans-serif" font-size="14" lengthAdjust="spacing" textLength="197" x="1146.5" y="519.9707">loadGridPowerMeterID(): String</text></g><!--class SensorFunctionalityID--><g id="elem_SensorFunctionalityID"><rect codeLine="58" fill="#F1F1F1" height="85.2422" id="SensorFunctionalityID" rx="2.5" ry="2.5" style="stroke:#181818;stroke-width:0.5;" width="170" x="1993" y="451.8633"/><ellipse cx="2008" cy="467.8633" fill="#ADD1B2" rx="11" ry="11" style="stroke:#181818;stroke-width:1.0;"/><path d="M2010.7656,463.7383 Q2010.9219,463.5195 2011.1094,463.4102 Q2011.2969,463.3008 2011.5156,463.3008 Q2011.8906,463.3008 2012.125,463.5664 Q2012.3594,463.8164 2012.3594,464.4258 L2012.3594,465.8789 Q2012.3594,466.4883 2012.125,466.7539 Q2011.8906,467.0195 2011.5156,467.0195 Q2011.1719,467.0195 2010.9688,466.8164 Q2010.7656,466.6289 2010.6563,466.1133 Q2010.6094,465.7539 2010.4219,465.5664 Q2010.0938,465.1914 2009.4844,464.9727 Q2008.875,464.7539 2008.25,464.7539 Q2007.4844,464.7539 2006.8438,465.082 Q2006.2188,465.4102 2005.7188,466.1602 Q2005.2344,466.9102 2005.2344,467.9414 L2005.2344,469.0352 Q2005.2344,470.2695 2006.125,471.0977 Q2007.0156,471.9102 2008.6094,471.9102 Q2009.5469,471.9102 2010.2031,471.6602 Q2010.5938,471.5039 2011.0156,471.0664 Q2011.2813,470.8008 2011.4219,470.7227 Q2011.5781,470.6445 2011.7813,470.6445 Q2012.1094,470.6445 2012.3594,470.9102 Q2012.625,471.1602 2012.625,471.5039 Q2012.625,471.8477 2012.2813,472.2539 Q2011.7813,472.832 2010.9844,473.1602 Q2009.9063,473.6133 2008.6094,473.6133 Q2007.0938,473.6133 2005.8906,472.9883 Q2004.9063,472.4883 2004.2188,471.4258 Q2003.5313,470.3477 2003.5313,469.0664 L2003.5313,467.9102 Q2003.5313,466.582 2004.1406,465.4414 Q2004.7656,464.2852 2005.8594,463.6758 Q2006.9531,463.0508 2008.1875,463.0508 Q2008.9219,463.0508 2009.5625,463.2227 Q2010.2188,463.3789 2010.7656,463.7383 Z " fill="#000000"/><text fill="#000000" font-family="sans-serif" font-size="14" lengthAdjust="spacing" textLength="138" x="2022" y="473.6602">SensorFunctionalityID</text><line style="stroke:#181818;stroke-width:0.5;" x1="1994" x2="2162" y1="483.8633" y2="483.8633"/><rect fill="none" height="6" style="stroke:#C82930;stroke-width:1.0;" width="6" x="2001" y="495.6738"/><text fill="#000000" font-family="sans-serif" font-size="14" lengthAdjust="spacing" textLength="56" x="2013" y="502.9707">id: String</text><line style="stroke:#181818;stroke-width:0.5;" x1="1994" x2="2162" y1="510.4844" y2="510.4844"/><ellipse cx="2004" cy="525.2949" fill="#84BE84" rx="3" ry="3" style="stroke:#038048;stroke-width:1.0;"/><text fill="#000000" font-family="sans-serif" font-size="14" lengthAdjust="spacing" textLength="86" x="2013" y="529.5918">getId(): String</text></g><!--class DeviceID--><g id="elem_DeviceID"><rect codeLine="63" fill="#F1F1F1" height="85.2422" id="DeviceID" rx="2.5" ry="2.5" style="stroke:#181818;stroke-width:0.5;" width="112" x="2198" y="451.8633"/><ellipse cx="2223.8" cy="467.8633" fill="#ADD1B2" rx="11" ry="11" style="stroke:#181818;stroke-width:1.0;"/><path d="M2226.5656,463.7383 Q2226.7219,463.5195 2226.9094,463.4102 Q2227.0969,463.3008 2227.3156,463.3008 Q2227.6906,463.3008 2227.925,463.5664 Q2228.1594,463.8164 2228.1594,464.4258 L2228.1594,465.8789 Q2228.1594,466.4883 2227.925,466.7539 Q2227.6906,467.0195 2227.3156,467.0195 Q2226.9719,467.0195 2226.7688,466.8164 Q2226.5656,466.6289 2226.4563,466.1133 Q2226.4094,465.7539 2226.2219,465.5664 Q2225.8938,465.1914 2225.2844,464.9727 Q2224.675,464.7539 2224.05,464.7539 Q2223.2844,464.7539 2222.6438,465.082 Q2222.0188,465.4102 2221.5188,466.1602 Q2221.0344,466.9102 2221.0344,467.9414 L2221.0344,469.0352 Q2221.0344,470.2695 2221.925,471.0977 Q2222.8156,471.9102 2224.4094,471.9102 Q2225.3469,471.9102 2226.0031,471.6602 Q2226.3938,471.5039 2226.8156,471.0664 Q2227.0813,470.8008 2227.2219,470.7227 Q2227.3781,470.6445 2227.5813,470.6445 Q2227.9094,470.6445 2228.1594,470.9102 Q2228.425,471.1602 2228.425,471.5039 Q2228.425,471.8477 2228.0813,472.2539 Q2227.5813,472.832 2226.7844,473.1602 Q2225.7063,473.6133 2224.4094,473.6133 Q2222.8938,473.6133 2221.6906,472.9883 Q2220.7063,472.4883 2220.0188,471.4258 Q2219.3313,470.3477 2219.3313,469.0664 L2219.3313,467.9102 Q2219.3313,466.582 2219.9406,465.4414 Q2220.5656,464.2852 2221.6594,463.6758 Q2222.7531,463.0508 2223.9875,463.0508 Q2224.7219,463.0508 2225.3625,463.2227 Q2226.0188,463.3789 2226.5656,463.7383 Z " fill="#000000"/><text fill="#000000" font-family="sans-serif" font-size="14" lengthAdjust="spacing" textLength="56" x="2240.2" y="473.6602">DeviceID</text><line style="stroke:#181818;stroke-width:0.5;" x1="2199" x2="2309" y1="483.8633" y2="483.8633"/><rect fill="none" height="6" style="stroke:#C82930;stroke-width:1.0;" width="6" x="2206" y="495.6738"/><text fill="#000000" font-family="sans-serif" font-size="14" lengthAdjust="spacing" textLength="56" x="2218" y="502.9707">id: String</text><line style="stroke:#181818;stroke-width:0.5;" x1="2199" x2="2309" y1="510.4844" y2="510.4844"/><ellipse cx="2209" cy="525.2949" fill="#84BE84" rx="3" ry="3" style="stroke:#038048;stroke-width:1.0;"/><text fill="#000000" font-family="sans-serif" font-size="14" lengthAdjust="spacing" textLength="86" x="2218" y="529.5918">getId(): String</text></g><!--reverse link ValueRepository to InstantTimeValueRepository--><g id="link_ValueRepository_InstantTimeValueRepository"><path d="M510,391.3833 C510,420.4933 510,443.9633 510,470.0033 " fill="none" id="ValueRepository-backto-InstantTimeValueRepository" style="stroke:#181818;stroke-width:1.0;"/><polygon fill="none" points="510,373.3833,504,391.3833,516,391.3833,510,373.3833" style="stroke:#181818;stroke-width:1.0;"/></g><!--reverse link ValueRepository to PeriodTimeValueRepository--><g id="link_ValueRepository_PeriodTimeValueRepository"><path d="M888.5,391.3833 C888.5,420.4933 888.5,443.9633 888.5,470.0033 " fill="none" id="ValueRepository-backto-PeriodTimeValueRepository" style="stroke:#181818;stroke-width:1.0;"/><polygon fill="none" points="888.5,373.3833,882.5,391.3833,894.5,391.3833,888.5,373.3833" style="stroke:#181818;stroke-width:1.0;"/></g><!--reverse link InstantTimeValueRepository to InstantValueRepositoryMem--><g id="link_InstantTimeValueRepository_InstantValueRepositoryMem"><path d="M545,536.6333 C545,557.9133 545,571.3533 545,596.8033 " fill="none" id="InstantTimeValueRepository-backto-InstantValueRepositoryMem" style="stroke:#181818;stroke-width:1.0;stroke-dasharray:7.0,7.0;"/><polygon fill="none" points="545,518.6333,539,536.6333,551,536.6333,545,518.6333" style="stroke:#181818;stroke-width:1.0;"/></g><!--reverse link PeriodTimeValueRepository to PeriodTimeValueRepositoryMem--><g id="link_PeriodTimeValueRepository_PeriodTimeValueRepositoryMem"><path d="M987,536.6333 C987,557.9133 987,571.3533 987,596.8033 " fill="none" id="PeriodTimeValueRepository-backto-PeriodTimeValueRepositoryMem" style="stroke:#181818;stroke-width:1.0;stroke-dasharray:7.0,7.0;"/><polygon fill="none" points="987,518.6333,981,536.6333,993,536.6333,987,518.6333" style="stroke:#181818;stroke-width:1.0;"/></g><!--link ValueControllerWeb to ValueService--><g id="link_ValueControllerWeb_ValueService"><path codeLine="68" d="M1453,191.2633 C1453,221.1533 1453,258.8633 1453,291.1333 " fill="none" id="ValueControllerWeb-to-ValueService" style="stroke:#181818;stroke-width:1.0;"/><polygon fill="#181818" points="1453,297.1333,1457,288.1333,1453,292.1333,1449,288.1333,1453,297.1333" style="stroke:#181818;stroke-width:1.0;"/></g><!--link ValueService to SensorRepository--><g id="link_ValueService_SensorRepository"><path codeLine="69" d="M1575.5,382.4933 C1575.5,404.0133 1575.5,424.0633 1575.5,445.6033 " fill="none" id="ValueService-to-SensorRepository" style="stroke:#181818;stroke-width:1.0;"/><polygon fill="#181818" points="1575.5,451.6033,1579.5,442.6033,1575.5,446.6033,1571.5,442.6033,1575.5,451.6033" style="stroke:#181818;stroke-width:1.0;"/><text fill="#000000" font-family="sans-serif" font-size="13" lengthAdjust="spacing" textLength="42" x="1532.5" y="413.0816">&#171;uses&#187;</text></g><!--link ValueService to PeriodTimeValueRepository--><g id="link_ValueService_PeriodTimeValueRepository"><path codeLine="70" d="M1010,382.4933 C1010,410.7133 1010,440.7133 1010,464.1433 " fill="none" id="ValueService-to-PeriodTimeValueRepository" style="stroke:#181818;stroke-width:1.0;"/><polygon fill="#181818" points="1010,470.1433,1014,461.1433,1010,465.1433,1006,461.1433,1010,470.1433" style="stroke:#181818;stroke-width:1.0;"/><text fill="#000000" font-family="sans-serif" font-size="13" lengthAdjust="spacing" textLength="42" x="967" y="422.3416">&#171;uses&#187;</text></g><!--link ValueService to InstantTimeValueRepository--><g id="link_ValueService_InstantTimeValueRepository"><path codeLine="71" d="M928.8,377.8633 C743.39,377.8633 580,377.8633 580,377.8633 C580,377.8633 580,430.1033 580,464.2233 " fill="none" id="ValueService-to-InstantTimeValueRepository" style="stroke:#181818;stroke-width:1.0;"/><polygon fill="#181818" points="580,470.2233,584,461.2233,580,465.2233,576,461.2233,580,470.2233" style="stroke:#181818;stroke-width:1.0;"/><text fill="#000000" font-family="sans-serif" font-size="13" lengthAdjust="spacing" textLength="42" x="665.22" y="392.8916">&#171;uses&#187;</text></g><!--link ValueService to ConfigScraper--><g id="link_ValueService_ConfigScraper"><path codeLine="72" d="M1238,382.4933 C1238,407.1433 1238,431.7233 1238,454.6833 " fill="none" id="ValueService-to-ConfigScraper" style="stroke:#181818;stroke-width:1.0;"/><polygon fill="#181818" points="1238,460.6833,1242,451.6833,1238,455.6833,1234,451.6833,1238,460.6833" style="stroke:#181818;stroke-width:1.0;"/><text fill="#000000" font-family="sans-serif" font-size="13" lengthAdjust="spacing" textLength="42" x="1195" y="417.6116">&#171;uses&#187;</text></g><!--link ValueService to DeviceID--><g id="link_ValueService_DeviceID"><path codeLine="73" d="M1967.25,382.7833 C1967.25,402.6233 1967.25,421.8633 1967.25,421.8633 C1967.25,421.8633 2235.33,421.8633 2235.33,421.8633 C2235.33,421.8633 2235.33,429.9933 2235.33,445.7733 " fill="none" id="ValueService-to-DeviceID" style="stroke:#181818;stroke-width:1.0;"/><polygon fill="#181818" points="2235.33,451.7733,2239.33,442.7733,2235.33,446.7733,2231.33,442.7733,2235.33,451.7733" style="stroke:#181818;stroke-width:1.0;"/><text fill="#000000" font-family="sans-serif" font-size="13" lengthAdjust="spacing" textLength="42" x="2053.71" y="417.8916">&#171;uses&#187;</text></g><!--link ValueService to SensorFunctionalityID--><g id="link_ValueService_SensorFunctionalityID"><path codeLine="74" d="M1977.1,339.8633 C1993.23,339.8633 2002.5,339.8633 2002.5,339.8633 C2002.5,339.8633 2002.5,400.0033 2002.5,445.7333 " fill="none" id="ValueService-to-SensorFunctionalityID" style="stroke:#181818;stroke-width:1.0;"/><polygon fill="#181818" points="2002.5,451.7333,2006.5,442.7333,2002.5,446.7333,1998.5,442.7333,2002.5,451.7333" style="stroke:#181818;stroke-width:1.0;"/><text fill="#000000" font-family="sans-serif" font-size="13" lengthAdjust="spacing" textLength="42" x="1959.5" y="398.1316">&#171;uses&#187;</text></g><!--link ValueID to Sensor--><g id="link_ValueID_Sensor"><path codeLine="76" d="M2166,227.9233 C2166,247.7833 2166,263.0233 2166,281.6033 " fill="none" id="ValueID-to-Sensor" style="stroke:#181818;stroke-width:1.0;"/><polygon fill="#181818" points="2166,287.6033,2170,278.6033,2166,282.6033,2162,278.6033,2166,287.6033" style="stroke:#181818;stroke-width:1.0;"/></g><!--link Sensor to DeviceID--><g id="link_Sensor_DeviceID"><path codeLine="78" d="M2272.67,392.1733 C2272.67,411.6033 2272.67,427.3933 2272.67,445.8533 " fill="none" id="Sensor-to-DeviceID" style="stroke:#181818;stroke-width:1.0;"/><polygon fill="#181818" points="2272.67,451.8533,2276.67,442.8533,2272.67,446.8533,2268.67,442.8533,2272.67,451.8533" style="stroke:#181818;stroke-width:1.0;"/></g><!--link Sensor to SensorFunctionalityID--><g id="link_Sensor_SensorFunctionalityID"><path codeLine="79" d="M2087.5,392.1733 C2087.5,411.6033 2087.5,427.3933 2087.5,445.8533 " fill="none" id="Sensor-to-SensorFunctionalityID" style="stroke:#181818;stroke-width:1.0;"/><polygon fill="#181818" points="2087.5,451.8533,2091.5,442.8533,2087.5,446.8533,2083.5,442.8533,2087.5,451.8533" style="stroke:#181818;stroke-width:1.0;"/></g><!--link Sensor to SensorRepository--><g id="link_Sensor_SensorRepository"><path codeLine="80" d="M2011.83,387.8633 C1899.35,387.8633 1766.5,387.8633 1766.5,387.8633 C1766.5,387.8633 1766.5,416.0333 1766.5,445.6633 " fill="none" id="Sensor-to-SensorRepository" style="stroke:#181818;stroke-width:1.0;"/><polygon fill="#181818" points="1766.5,451.6633,1770.5,442.6633,1766.5,446.6633,1762.5,442.6633,1766.5,451.6633" style="stroke:#181818;stroke-width:1.0;"/></g><!--SRC=[pLKxRzim4DxrAsvqKDjBWGw68I29sy90WmHnaYvP6F5i4w58WQIS6aN_Uu-aPEjb8rcAUf35ups_- -vaNuKgc64vIA7GxGi4RTnM9uaJJY8yhZv_WGbSMc1mfz_GmAEbXpPmoNEXX7M6EMt6i8GtfXmu3Hkalor2WUmLYc3ph23JofPvuOHMeDT1OQjBYsCGYdnln0uLcHYX-HGUwblOCX-Puqva22npGcs0HDvyOmJtdcE871qzcUAGipsPxH0ixj0mMLdRgE8TH0khI-F58vnkfdIIp43154fWnh3znJH9X2ABDQFGJqoMU8-5jeBAtSFl1EZtQIqKlzglK5bjblmAtHkYkWjLtAuVH8uZ6-yMCwYq5cEmZXat0tzFhtan1bIySRwOmGz2TXw2ficVPY9BHIhAUTrkJlZBaHyxa6lBGqplmmuooQojmtSqRZ07aHSISrJEdiinuZQ16rR4yZmUiKxO-J-w-BVGnhfEWj8fxJHu_sjbuNojbJDQIZG_yQKchv_KEnhICDUZT_Y_HrlG6EDNHSjXFr_eyaNsGgtGX64T2d9zN08nNgow6xKdfTWy1AimpfZCIiaS3dgM1CFjEeY_quu8MTaMEcDQ4aMbiefheDRoxLk4XU51zwT6RbrYf-animCAiMNzNG6nxxNp4QzUPb2BwXP63sdBBCg-bIhpDJ993QXeqf8TETCHTtstcxPSmFpfDZsGM13wrKKbwLEokd0rF8r-LLU1zgtM1JhS8-EqXaU1KU6r2ruhZqwyFcoj3D-7nZ4W4MSjDglCCFhu75ebDUEUEu4XD_wxGGsZV5VE3AJRSTxEFbeSYb_o8JzrAHyo7PZioIHjJM7I6ab_ssFd3EPp-jBQDEqhdzvsvwpEhFzpPkrEdDCye7LEQRWr3OkaPlvHEqag_ZMZD6N3PEef72jE_W80]--></g></svg>