<?xml version="1.0" encoding="us-ascii" standalone="no"?><svg xmlns="http://www.w3.org/2000/svg" xmlns:xlink="http://www.w3.org/1999/xlink" contentStyleType="text/css" height="1344px" preserveAspectRatio="none" style="width:2615px;height:1344px;background:#FFFFFF;" version="1.1" viewBox="0 0 2615 1344" width="2615px" zoomAndPan="magnify"><defs/><g><text fill="#000000" font-family="sans-serif" font-size="14" font-weight="bold" lengthAdjust="spacing" textLength="472" x="1073.25" y="30.1074">UC36 - Get Peak Power consumption of the House in a given period</text><rect fill="#FFFFFF" height="1140.0879" style="stroke:#181818;stroke-width:1.0;" width="10" x="207" y="130.1543"/><rect fill="#FFFFFF" height="1042.9238" style="stroke:#181818;stroke-width:1.0;" width="10" x="411" y="196.0273"/><rect fill="#FFFFFF" height="90.543" style="stroke:#181818;stroke-width:1.0;" width="10" x="416" y="1110.1172"/><rect fill="#FFFFFF" height="156.4551" style="stroke:#181818;stroke-width:1.0;" width="10" x="729" y="227.3184"/><rect fill="#FFFFFF" height="31.291" style="stroke:#181818;stroke-width:1.0;" width="10" x="1282" y="519.5977"/><rect fill="#FFFFFF" height="31.291" style="stroke:#181818;stroke-width:1.0;" width="10" x="1282" y="688.3828"/><rect fill="#FFFFFF" height="31.291" style="stroke:#181818;stroke-width:1.0;" width="10" x="1454.5" y="582.1797"/><rect fill="#FFFFFF" height="74.873" style="stroke:#181818;stroke-width:1.0;" width="10" x="2015.5" y="964.6621"/><rect fill="#FFFFFF" height="31.291" style="stroke:#181818;stroke-width:1.0;" width="10" x="2294" y="839.498"/><rect fill="#FFFFFF" height="31.291" style="stroke:#181818;stroke-width:1.0;" width="10" x="2497" y="902.0801"/><rect fill="none" height="257.6191" style="stroke:#000000;stroke-width:1.5;" width="2281.5" x="328" y="796.916"/><rect fill="none" height="67.873" style="stroke:#000000;stroke-width:1.5;" width="1865.5" x="338" y="979.6621"/><line style="stroke:#181818;stroke-width:0.5;stroke-dasharray:5.0,5.0;" x1="212" x2="212" y1="96.8633" y2="1288.2422"/><line style="stroke:#181818;stroke-width:0.5;stroke-dasharray:5.0,5.0;" x1="416" x2="416" y1="96.8633" y2="1288.2422"/><line style="stroke:#181818;stroke-width:0.5;stroke-dasharray:5.0,5.0;" x1="733.5" x2="733.5" y1="96.8633" y2="1288.2422"/><line style="stroke:#181818;stroke-width:0.5;stroke-dasharray:5.0,5.0;" x1="875.5" x2="875.5" y1="423.584" y2="1288.2422"/><line style="stroke:#181818;stroke-width:0.5;stroke-dasharray:5.0,5.0;" x1="1085.5" x2="1085.5" y1="467.2051" y2="1288.2422"/><line style="stroke:#181818;stroke-width:0.5;stroke-dasharray:5.0,5.0;" x1="1286.5" x2="1286.5" y1="96.8633" y2="1288.2422"/><line style="stroke:#181818;stroke-width:0.5;stroke-dasharray:5.0,5.0;" x1="1459.5" x2="1459.5" y1="96.8633" y2="1288.2422"/><line style="stroke:#181818;stroke-width:0.5;stroke-dasharray:5.0,5.0;" x1="1701.5" x2="1701.5" y1="653.2813" y2="1288.2422"/><line style="stroke:#181818;stroke-width:0.5;stroke-dasharray:5.0,5.0;" x1="2020.5" x2="2020.5" y1="768.7949" y2="1288.2422"/><line style="stroke:#181818;stroke-width:0.5;stroke-dasharray:5.0,5.0;" x1="2298.5" x2="2298.5" y1="96.8633" y2="1288.2422"/><line style="stroke:#181818;stroke-width:0.5;stroke-dasharray:5.0,5.0;" x1="2501.5" x2="2501.5" y1="96.8633" y2="1288.2422"/><rect fill="#E2E2F0" height="32.6211" rx="2.5" ry="2.5" style="stroke:#181818;stroke-width:0.5;" width="116" x="154" y="63.2422"/><text fill="#000000" font-family="sans-serif" font-size="14" lengthAdjust="spacing" textLength="102" x="161" y="85.3496">:ValueController</text><rect fill="#E2E2F0" height="32.6211" rx="2.5" ry="2.5" style="stroke:#181818;stroke-width:0.5;" width="116" x="154" y="1287.2422"/><text fill="#000000" font-family="sans-serif" font-size="14" lengthAdjust="spacing" textLength="102" x="161" y="1309.3496">:ValueController</text><rect fill="#E2E2F0" height="32.6211" rx="2.5" ry="2.5" style="stroke:#181818;stroke-width:0.5;" width="136" x="348" y="63.2422"/><text fill="#000000" font-family="sans-serif" font-size="14" lengthAdjust="spacing" textLength="122" x="355" y="85.3496">:PeakPowerService</text><rect fill="#E2E2F0" height="32.6211" rx="2.5" ry="2.5" style="stroke:#181818;stroke-width:0.5;" width="136" x="348" y="1287.2422"/><text fill="#000000" font-family="sans-serif" font-size="14" lengthAdjust="spacing" textLength="122" x="355" y="1309.3496">:PeakPowerService</text><rect fill="#E2E2F0" height="32.6211" rx="2.5" ry="2.5" style="stroke:#181818;stroke-width:0.5;" width="113" x="677.5" y="63.2422"/><text fill="#000000" font-family="sans-serif" font-size="14" lengthAdjust="spacing" textLength="99" x="684.5" y="85.3496">:Config Scraper</text><rect fill="#E2E2F0" height="32.6211" rx="2.5" ry="2.5" style="stroke:#181818;stroke-width:0.5;" width="113" x="677.5" y="1287.2422"/><text fill="#000000" font-family="sans-serif" font-size="14" lengthAdjust="spacing" textLength="99" x="684.5" y="1309.3496">:Config Scraper</text><rect fill="#E2E2F0" height="32.6211" rx="2.5" ry="2.5" style="stroke:#181818;stroke-width:0.5;" width="150" x="800.5" y="1287.2422"/><text fill="#000000" font-family="sans-serif" font-size="14" lengthAdjust="spacing" textLength="136" x="807.5" y="1309.3496">gridPowerID:DeviceID</text><rect fill="#E2E2F0" height="32.6211" rx="2.5" ry="2.5" style="stroke:#181818;stroke-width:0.5;" width="251" x="960.5" y="1287.2422"/><text fill="#000000" font-family="sans-serif" font-size="14" lengthAdjust="spacing" textLength="237" x="967.5" y="1309.3496">gridPowerFunc:SensorFunctionalityID</text><rect fill="#E2E2F0" height="32.6211" rx="2.5" ry="2.5" style="stroke:#181818;stroke-width:0.5;" width="131" x="1221.5" y="63.2422"/><text fill="#000000" font-family="sans-serif" font-size="14" lengthAdjust="spacing" textLength="117" x="1228.5" y="85.3496">:SensorRepository</text><rect fill="#E2E2F0" height="32.6211" rx="2.5" ry="2.5" style="stroke:#181818;stroke-width:0.5;" width="131" x="1221.5" y="1287.2422"/><text fill="#000000" font-family="sans-serif" font-size="14" lengthAdjust="spacing" textLength="117" x="1228.5" y="1309.3496">:SensorRepository</text><rect fill="#E2E2F0" height="32.6211" rx="2.5" ry="2.5" style="stroke:#181818;stroke-width:0.5;" width="194" x="1362.5" y="63.2422"/><text fill="#000000" font-family="sans-serif" font-size="14" lengthAdjust="spacing" textLength="180" x="1369.5" y="85.3496">:PeriodTimeValueRepository</text><rect fill="#E2E2F0" height="32.6211" rx="2.5" ry="2.5" style="stroke:#181818;stroke-width:0.5;" width="194" x="1362.5" y="1287.2422"/><text fill="#000000" font-family="sans-serif" font-size="14" lengthAdjust="spacing" textLength="180" x="1369.5" y="1309.3496">:PeriodTimeValueRepository</text><rect fill="#E2E2F0" height="32.6211" rx="2.5" ry="2.5" style="stroke:#181818;stroke-width:0.5;" width="271" x="1566.5" y="1287.2422"/><text fill="#000000" font-family="sans-serif" font-size="14" lengthAdjust="spacing" textLength="257" x="1573.5" y="1309.3496">powerSourceFunc:SensorFunctionalityID</text><rect fill="#E2E2F0" height="51.2422" rx="2.5" ry="2.5" style="stroke:#181818;stroke-width:0.5;" width="346" x="1847.5" y="1287.2422"/><text fill="#000000" font-family="sans-serif" font-size="14" lengthAdjust="spacing" textLength="180" x="1930.5" y="1309.3496">mapOfPowerSourcesValues:</text><text fill="#000000" font-family="sans-serif" font-size="14" lengthAdjust="spacing" textLength="332" x="1854.5" y="1327.9707">Map&lt;DeviceID,Map&lt;Timestamp, InstantTimeValue&gt;&gt;</text><rect fill="#E2E2F0" height="32.6211" rx="2.5" ry="2.5" style="stroke:#181818;stroke-width:0.5;" width="191" x="2203.5" y="63.2422"/><text fill="#000000" font-family="sans-serif" font-size="14" lengthAdjust="spacing" textLength="177" x="2210.5" y="85.3496">powerSourceSensor:Sensor</text><rect fill="#E2E2F0" height="32.6211" rx="2.5" ry="2.5" style="stroke:#181818;stroke-width:0.5;" width="191" x="2203.5" y="1287.2422"/><text fill="#000000" font-family="sans-serif" font-size="14" lengthAdjust="spacing" textLength="177" x="2210.5" y="1309.3496">powerSourceSensor:Sensor</text><rect fill="#E2E2F0" height="32.6211" rx="2.5" ry="2.5" style="stroke:#181818;stroke-width:0.5;" width="195" x="2404.5" y="63.2422"/><text fill="#000000" font-family="sans-serif" font-size="14" lengthAdjust="spacing" textLength="181" x="2411.5" y="85.3496">:InstantTimeValueRepository</text><rect fill="#E2E2F0" height="32.6211" rx="2.5" ry="2.5" style="stroke:#181818;stroke-width:0.5;" width="195" x="2404.5" y="1287.2422"/><text fill="#000000" font-family="sans-serif" font-size="14" lengthAdjust="spacing" textLength="181" x="2411.5" y="1309.3496">:InstantTimeValueRepository</text><rect fill="#FFFFFF" height="1140.0879" style="stroke:#181818;stroke-width:1.0;" width="10" x="207" y="130.1543"/><rect fill="#FFFFFF" height="1042.9238" style="stroke:#181818;stroke-width:1.0;" width="10" x="411" y="196.0273"/><rect fill="#FFFFFF" height="90.543" style="stroke:#181818;stroke-width:1.0;" width="10" x="416" y="1110.1172"/><rect fill="#FFFFFF" height="156.4551" style="stroke:#181818;stroke-width:1.0;" width="10" x="729" y="227.3184"/><rect fill="#FFFFFF" height="31.291" style="stroke:#181818;stroke-width:1.0;" width="10" x="1282" y="519.5977"/><rect fill="#FFFFFF" height="31.291" style="stroke:#181818;stroke-width:1.0;" width="10" x="1282" y="688.3828"/><rect fill="#FFFFFF" height="31.291" style="stroke:#181818;stroke-width:1.0;" width="10" x="1454.5" y="582.1797"/><rect fill="#FFFFFF" height="74.873" style="stroke:#181818;stroke-width:1.0;" width="10" x="2015.5" y="964.6621"/><rect fill="#FFFFFF" height="31.291" style="stroke:#181818;stroke-width:1.0;" width="10" x="2294" y="839.498"/><rect fill="#FFFFFF" height="31.291" style="stroke:#181818;stroke-width:1.0;" width="10" x="2497" y="902.0801"/><ellipse cx="7.5" cy="129.4043" fill="none" rx="4" ry="4" style="stroke:#181818;stroke-width:1.5;"/><polygon fill="#181818" points="195,126.1543,205,130.1543,195,134.1543,199,130.1543" style="stroke:#181818;stroke-width:1.0;"/><line style="stroke:#181818;stroke-width:1.0;" x1="12" x2="201" y1="130.1543" y2="130.1543"/><text fill="#000000" font-family="sans-serif" font-size="13" font-weight="bold" lengthAdjust="spacing" textLength="7" x="15" y="124.8916">1</text><text fill="#000000" font-family="sans-serif" font-size="13" lengthAdjust="spacing" textLength="169" x="26" y="124.8916">GET /peakPower/{start}/{end}</text><polygon fill="#181818" points="399,192.0273,409,196.0273,399,200.0273,403,196.0273" style="stroke:#181818;stroke-width:1.0;"/><line style="stroke:#181818;stroke-width:1.0;" x1="217" x2="405" y1="196.0273" y2="196.0273"/><text fill="#000000" font-family="sans-serif" font-size="13" font-weight="bold" lengthAdjust="spacing" textLength="7" x="224" y="173.4736">2</text><text fill="#000000" font-family="sans-serif" font-size="13" lengthAdjust="spacing" textLength="164" x="235" y="156.1826">getPeakPowerConsumption(</text><text fill="#000000" font-family="sans-serif" font-size="13" lengthAdjust="spacing" textLength="98" x="235" y="173.4736">Timestamp start,</text><text fill="#000000" font-family="sans-serif" font-size="13" lengthAdjust="spacing" textLength="93" x="239" y="190.7646">Timestamp end)</text><polygon fill="#181818" points="717,223.3184,727,227.3184,717,231.3184,721,227.3184" style="stroke:#181818;stroke-width:1.0;"/><line style="stroke:#181818;stroke-width:1.0;" x1="421" x2="723" y1="227.3184" y2="227.3184"/><text fill="#000000" font-family="sans-serif" font-size="13" font-weight="bold" lengthAdjust="spacing" textLength="7" x="428" y="222.0557">3</text><text fill="#000000" font-family="sans-serif" font-size="13" lengthAdjust="spacing" textLength="137" x="439" y="222.0557">loadGridPowerMeterID()</text><polygon fill="#181818" points="432,254.6094,422,258.6094,432,262.6094,428,258.6094" style="stroke:#181818;stroke-width:1.0;"/><line style="stroke:#181818;stroke-width:1.0;stroke-dasharray:2.0,2.0;" x1="426" x2="728" y1="258.6094" y2="258.6094"/><text fill="#000000" font-family="sans-serif" font-size="13" font-weight="bold" lengthAdjust="spacing" textLength="7" x="438" y="253.3467">4</text><text fill="#000000" font-family="sans-serif" font-size="13" lengthAdjust="spacing" textLength="168" x="449" y="253.3467">String devicePowerGridName</text><polygon fill="#181818" points="717,285.9004,727,289.9004,717,293.9004,721,289.9004" style="stroke:#181818;stroke-width:1.0;"/><line style="stroke:#181818;stroke-width:1.0;" x1="421" x2="723" y1="289.9004" y2="289.9004"/><text fill="#000000" font-family="sans-serif" font-size="13" font-weight="bold" lengthAdjust="spacing" textLength="7" x="428" y="284.6377">5</text><text fill="#000000" font-family="sans-serif" font-size="13" lengthAdjust="spacing" textLength="240" x="439" y="284.6377">loadGridPowerMeterSensorFunctionality()</text><polygon fill="#181818" points="432,317.1914,422,321.1914,432,325.1914,428,321.1914" style="stroke:#181818;stroke-width:1.0;"/><line style="stroke:#181818;stroke-width:1.0;stroke-dasharray:2.0,2.0;" x1="426" x2="728" y1="321.1914" y2="321.1914"/><text fill="#000000" font-family="sans-serif" font-size="13" font-weight="bold" lengthAdjust="spacing" textLength="7" x="438" y="315.9287">6</text><text fill="#000000" font-family="sans-serif" font-size="13" lengthAdjust="spacing" textLength="208" x="449" y="315.9287">String devicePowerGridFunctionality</text><polygon fill="#181818" points="717,348.4824,727,352.4824,717,356.4824,721,352.4824" style="stroke:#181818;stroke-width:1.0;"/><line style="stroke:#181818;stroke-width:1.0;" x1="421" x2="723" y1="352.4824" y2="352.4824"/><text fill="#000000" font-family="sans-serif" font-size="13" font-weight="bold" lengthAdjust="spacing" textLength="7" x="428" y="347.2197">7</text><text fill="#000000" font-family="sans-serif" font-size="13" lengthAdjust="spacing" textLength="224" x="439" y="347.2197">loadPowerSourceSensorFunctionality()</text><polygon fill="#181818" points="432,379.7734,422,383.7734,432,387.7734,428,383.7734" style="stroke:#181818;stroke-width:1.0;"/><line style="stroke:#181818;stroke-width:1.0;stroke-dasharray:2.0,2.0;" x1="426" x2="733" y1="383.7734" y2="383.7734"/><text fill="#000000" font-family="sans-serif" font-size="13" font-weight="bold" lengthAdjust="spacing" textLength="7" x="438" y="378.5107">8</text><text fill="#000000" font-family="sans-serif" font-size="13" lengthAdjust="spacing" textLength="187" x="449" y="378.5107">String powerSourceFunctionality</text><polygon fill="#181818" points="788.5,411.0645,798.5,415.0645,788.5,419.0645,792.5,415.0645" style="stroke:#181818;stroke-width:1.0;"/><line style="stroke:#181818;stroke-width:1.0;stroke-dasharray:2.0,2.0;" x1="421" x2="794.5" y1="415.0645" y2="415.0645"/><text fill="#000000" font-family="sans-serif" font-size="13" font-weight="bold" lengthAdjust="spacing" textLength="7" x="428" y="409.8018">9</text><text fill="#000000" font-family="sans-serif" font-size="13" lengthAdjust="spacing" textLength="50" x="439" y="409.8018">&#171;create&#187;</text><rect fill="#E2E2F0" height="32.6211" rx="2.5" ry="2.5" style="stroke:#181818;stroke-width:0.5;" width="150" x="800.5" y="391.7734"/><text fill="#000000" font-family="sans-serif" font-size="14" lengthAdjust="spacing" textLength="136" x="807.5" y="413.8809">gridPowerID:DeviceID</text><polygon fill="#181818" points="948.5,454.6855,958.5,458.6855,948.5,462.6855,952.5,458.6855" style="stroke:#181818;stroke-width:1.0;"/><line style="stroke:#181818;stroke-width:1.0;stroke-dasharray:2.0,2.0;" x1="421" x2="954.5" y1="458.6855" y2="458.6855"/><text fill="#000000" font-family="sans-serif" font-size="13" font-weight="bold" lengthAdjust="spacing" textLength="14" x="428" y="453.4229">10</text><text fill="#000000" font-family="sans-serif" font-size="13" lengthAdjust="spacing" textLength="50" x="446" y="453.4229">&#171;create&#187;</text><rect fill="#E2E2F0" height="32.6211" rx="2.5" ry="2.5" style="stroke:#181818;stroke-width:0.5;" width="251" x="960.5" y="435.3945"/><text fill="#000000" font-family="sans-serif" font-size="14" lengthAdjust="spacing" textLength="237" x="967.5" y="457.502">gridPowerFunc:SensorFunctionalityID</text><polygon fill="#181818" points="1270,515.5977,1280,519.5977,1270,523.5977,1274,519.5977" style="stroke:#181818;stroke-width:1.0;"/><line style="stroke:#181818;stroke-width:1.0;" x1="421" x2="1276" y1="519.5977" y2="519.5977"/><text fill="#000000" font-family="sans-serif" font-size="13" font-weight="bold" lengthAdjust="spacing" textLength="14" x="428" y="505.6895">11</text><text fill="#000000" font-family="sans-serif" font-size="13" lengthAdjust="spacing" textLength="224" x="446" y="497.0439">findByDeviceIDAndSensorFunctionality</text><text fill="#000000" font-family="sans-serif" font-size="13" lengthAdjust="spacing" textLength="171" x="446" y="514.335">(gridPowerID, gridPowerFunc)</text><polygon fill="#181818" points="432,546.8887,422,550.8887,432,554.8887,428,550.8887" style="stroke:#181818;stroke-width:1.0;"/><line style="stroke:#181818;stroke-width:1.0;stroke-dasharray:2.0,2.0;" x1="426" x2="1286" y1="550.8887" y2="550.8887"/><text fill="#000000" font-family="sans-serif" font-size="13" font-weight="bold" lengthAdjust="spacing" textLength="14" x="438" y="545.626">12</text><text fill="#000000" font-family="sans-serif" font-size="13" lengthAdjust="spacing" textLength="84" x="456" y="545.626">Sensor sensor</text><polygon fill="#181818" points="1442.5,578.1797,1452.5,582.1797,1442.5,586.1797,1446.5,582.1797" style="stroke:#181818;stroke-width:1.0;"/><line style="stroke:#181818;stroke-width:1.0;" x1="421" x2="1448.5" y1="582.1797" y2="582.1797"/><text fill="#000000" font-family="sans-serif" font-size="13" font-weight="bold" lengthAdjust="spacing" textLength="14" x="428" y="576.917">13</text><text fill="#000000" font-family="sans-serif" font-size="13" lengthAdjust="spacing" textLength="379" x="446" y="576.917">findBySensorIdBetweenPeriodOfTime(sensor.identity(), start, end)</text><polygon fill="#181818" points="432,609.4707,422,613.4707,432,617.4707,428,613.4707" style="stroke:#181818;stroke-width:1.0;"/><line style="stroke:#181818;stroke-width:1.0;stroke-dasharray:2.0,2.0;" x1="426" x2="1458.5" y1="613.4707" y2="613.4707"/><text fill="#000000" font-family="sans-serif" font-size="13" font-weight="bold" lengthAdjust="spacing" textLength="14" x="438" y="608.208">14</text><text fill="#000000" font-family="sans-serif" font-size="13" lengthAdjust="spacing" textLength="172" x="456" y="608.208">List&lt;Value&gt; powerGridValues</text><polygon fill="#181818" points="1554.5,640.7617,1564.5,644.7617,1554.5,648.7617,1558.5,644.7617" style="stroke:#181818;stroke-width:1.0;"/><line style="stroke:#181818;stroke-width:1.0;stroke-dasharray:2.0,2.0;" x1="421" x2="1560.5" y1="644.7617" y2="644.7617"/><text fill="#000000" font-family="sans-serif" font-size="13" font-weight="bold" lengthAdjust="spacing" textLength="14" x="428" y="639.499">15</text><text fill="#000000" font-family="sans-serif" font-size="13" lengthAdjust="spacing" textLength="50" x="446" y="639.499">&#171;create&#187;</text><rect fill="#E2E2F0" height="32.6211" rx="2.5" ry="2.5" style="stroke:#181818;stroke-width:0.5;" width="271" x="1566.5" y="621.4707"/><text fill="#000000" font-family="sans-serif" font-size="14" lengthAdjust="spacing" textLength="257" x="1573.5" y="643.5781">powerSourceFunc:SensorFunctionalityID</text><polygon fill="#181818" points="1270,684.3828,1280,688.3828,1270,692.3828,1274,688.3828" style="stroke:#181818;stroke-width:1.0;"/><line style="stroke:#181818;stroke-width:1.0;" x1="421" x2="1276" y1="688.3828" y2="688.3828"/><text fill="#000000" font-family="sans-serif" font-size="13" font-weight="bold" lengthAdjust="spacing" textLength="14" x="428" y="683.1201">16</text><text fill="#000000" font-family="sans-serif" font-size="13" lengthAdjust="spacing" textLength="263" x="446" y="683.1201">findBySensorFunctionality(powerSourceFunc)</text><polygon fill="#181818" points="432,715.6738,422,719.6738,432,723.6738,428,719.6738" style="stroke:#181818;stroke-width:1.0;"/><line style="stroke:#181818;stroke-width:1.0;stroke-dasharray:2.0,2.0;" x1="426" x2="1286" y1="719.6738" y2="719.6738"/><text fill="#000000" font-family="sans-serif" font-size="13" font-weight="bold" lengthAdjust="spacing" textLength="14" x="438" y="714.4111">17</text><text fill="#000000" font-family="sans-serif" font-size="13" lengthAdjust="spacing" textLength="295" x="456" y="714.4111">Iterable&lt;Sensor&gt; listOfSensorsFromPowerSources</text><polygon fill="#181818" points="1835.5,746.9648,1845.5,750.9648,1835.5,754.9648,1839.5,750.9648" style="stroke:#181818;stroke-width:1.0;"/><line style="stroke:#181818;stroke-width:1.0;stroke-dasharray:2.0,2.0;" x1="421" x2="1841.5" y1="750.9648" y2="750.9648"/><text fill="#000000" font-family="sans-serif" font-size="13" font-weight="bold" lengthAdjust="spacing" textLength="14" x="428" y="745.7021">18</text><text fill="#000000" font-family="sans-serif" font-size="13" lengthAdjust="spacing" textLength="50" x="446" y="745.7021">&#171;create&#187;</text><rect fill="#E2E2F0" height="51.2422" rx="2.5" ry="2.5" style="stroke:#181818;stroke-width:0.5;" width="346" x="1847.5" y="727.6738"/><text fill="#000000" font-family="sans-serif" font-size="14" lengthAdjust="spacing" textLength="180" x="1930.5" y="749.7813">mapOfPowerSourcesValues:</text><text fill="#000000" font-family="sans-serif" font-size="14" lengthAdjust="spacing" textLength="332" x="1854.5" y="768.4023">Map&lt;DeviceID,Map&lt;Timestamp, InstantTimeValue&gt;&gt;</text><path d="M328,796.916 L401,796.916 L401,806.207 L391,816.207 L328,816.207 L328,796.916 " fill="#EEEEEE" style="stroke:#000000;stroke-width:1.5;"/><rect fill="none" height="257.6191" style="stroke:#000000;stroke-width:1.5;" width="2281.5" x="328" y="796.916"/><text fill="#000000" font-family="sans-serif" font-size="13" font-weight="bold" lengthAdjust="spacing" textLength="28" x="343" y="811.9443">loop</text><text fill="#000000" font-family="sans-serif" font-size="11" font-weight="bold" lengthAdjust="spacing" textLength="299" x="416" y="810.7861">[for each Sensor in listOfSensorsFromPowerSources]</text><polygon fill="#181818" points="2282,835.498,2292,839.498,2282,843.498,2286,839.498" style="stroke:#181818;stroke-width:1.0;"/><line style="stroke:#181818;stroke-width:1.0;" x1="421" x2="2288" y1="839.498" y2="839.498"/><text fill="#000000" font-family="sans-serif" font-size="13" font-weight="bold" lengthAdjust="spacing" textLength="14" x="428" y="834.2354">19</text><text fill="#000000" font-family="sans-serif" font-size="13" lengthAdjust="spacing" textLength="76" x="446" y="834.2354">getDeviceID()</text><polygon fill="#181818" points="432,866.7891,422,870.7891,432,874.7891,428,870.7891" style="stroke:#181818;stroke-width:1.0;"/><line style="stroke:#181818;stroke-width:1.0;stroke-dasharray:2.0,2.0;" x1="426" x2="2298" y1="870.7891" y2="870.7891"/><text fill="#000000" font-family="sans-serif" font-size="13" font-weight="bold" lengthAdjust="spacing" textLength="14" x="438" y="865.5264">20</text><text fill="#000000" font-family="sans-serif" font-size="13" lengthAdjust="spacing" textLength="192" x="456" y="865.5264">DeviceID deviceIDOfPowerSource</text><polygon fill="#181818" points="2485,898.0801,2495,902.0801,2485,906.0801,2489,902.0801" style="stroke:#181818;stroke-width:1.0;"/><line style="stroke:#181818;stroke-width:1.0;" x1="421" x2="2491" y1="902.0801" y2="902.0801"/><text fill="#000000" font-family="sans-serif" font-size="13" font-weight="bold" lengthAdjust="spacing" textLength="14" x="428" y="896.8174">21</text><text fill="#000000" font-family="sans-serif" font-size="13" lengthAdjust="spacing" textLength="381" x="446" y="896.8174">findBySensorIDBetweenPeriodOfTime(sensor.identity(), start, end)</text><polygon fill="#181818" points="432,929.3711,422,933.3711,432,937.3711,428,933.3711" style="stroke:#181818;stroke-width:1.0;"/><line style="stroke:#181818;stroke-width:1.0;stroke-dasharray:2.0,2.0;" x1="426" x2="2501" y1="933.3711" y2="933.3711"/><text fill="#000000" font-family="sans-serif" font-size="13" font-weight="bold" lengthAdjust="spacing" textLength="14" x="438" y="928.1084">22</text><text fill="#000000" font-family="sans-serif" font-size="13" lengthAdjust="spacing" textLength="189" x="456" y="928.1084">List&lt;Value&gt; powerSourceValues</text><polygon fill="#181818" points="2003.5,960.6621,2013.5,964.6621,2003.5,968.6621,2007.5,964.6621" style="stroke:#181818;stroke-width:1.0;"/><line style="stroke:#181818;stroke-width:1.0;" x1="421" x2="2009.5" y1="964.6621" y2="964.6621"/><text fill="#000000" font-family="sans-serif" font-size="13" font-weight="bold" lengthAdjust="spacing" textLength="14" x="428" y="959.3994">23</text><text fill="#000000" font-family="sans-serif" font-size="13" lengthAdjust="spacing" textLength="388" x="446" y="959.3994">computeIfAbsent (deviceIDOfPowerSource, k -&gt; new Hashmap&lt;&gt;())</text><path d="M338,979.6621 L411,979.6621 L411,988.9531 L401,998.9531 L338,998.9531 L338,979.6621 " fill="#EEEEEE" style="stroke:#000000;stroke-width:1.5;"/><rect fill="none" height="67.873" style="stroke:#000000;stroke-width:1.5;" width="1865.5" x="338" y="979.6621"/><text fill="#000000" font-family="sans-serif" font-size="13" font-weight="bold" lengthAdjust="spacing" textLength="28" x="353" y="994.6904">loop</text><text fill="#000000" font-family="sans-serif" font-size="11" font-weight="bold" lengthAdjust="spacing" textLength="216" x="426" y="993.5322">[for each Value in powerSourceValues]</text><polygon fill="#181818" points="2008.5,1035.5352,2018.5,1039.5352,2008.5,1043.5352,2012.5,1039.5352" style="stroke:#181818;stroke-width:1.0;"/><line style="stroke:#181818;stroke-width:1.0;" x1="421" x2="2014.5" y1="1039.5352" y2="1039.5352"/><text fill="#000000" font-family="sans-serif" font-size="13" font-weight="bold" lengthAdjust="spacing" textLength="14" x="428" y="1025.627">24</text><text fill="#000000" font-family="sans-serif" font-size="13" lengthAdjust="spacing" textLength="164" x="446" y="1016.9814">put(deviceIDOfPowerSource,</text><text fill="#000000" font-family="sans-serif" font-size="13" lengthAdjust="spacing" textLength="222" x="450" y="1034.2725">Value.getInstantTimeReading(), Value)</text><line style="stroke:#181818;stroke-width:1.0;" x1="421" x2="468" y1="1097.1172" y2="1097.1172"/><line style="stroke:#181818;stroke-width:1.0;" x1="468" x2="468" y1="1097.1172" y2="1110.1172"/><line style="stroke:#181818;stroke-width:1.0;" x1="427" x2="468" y1="1110.1172" y2="1110.1172"/><polygon fill="#181818" points="437,1106.1172,427,1110.1172,437,1114.1172,433,1110.1172" style="stroke:#181818;stroke-width:1.0;"/><text fill="#000000" font-family="sans-serif" font-size="13" font-weight="bold" lengthAdjust="spacing" textLength="14" x="433" y="1083.209">25</text><text fill="#000000" font-family="sans-serif" font-size="13" lengthAdjust="spacing" textLength="194" x="451" y="1074.5635">calculatePeakPowerConsumption</text><text fill="#000000" font-family="sans-serif" font-size="13" lengthAdjust="spacing" textLength="276" x="451" y="1091.8545">(powerGridValues, mapOfPowerSourcesValues)</text><rect fill="none" height="43.252" style="stroke:#000000;stroke-width:1.5;" width="258" x="345" y="1123.1172"/><path d="M345,1123.1172 L407,1123.1172 L407,1132.1172 L397,1142.1172 L345,1142.1172 L345,1123.1172 " fill="#EEEEEE" style="stroke:#000000;stroke-width:2.0;"/><text fill="#000000" font-family="sans-serif" font-size="13" font-weight="bold" lengthAdjust="spacing" textLength="17" x="358" y="1139.1455">ref</text><text fill="#000000" font-family="sans-serif" font-size="12" lengthAdjust="spacing" textLength="250" x="349" y="1159.0664">UC36-SD_Part2-GetPeakPowerConsumption</text><line style="stroke:#181818;stroke-width:1.0;stroke-dasharray:2.0,2.0;" x1="426" x2="468" y1="1199.6602" y2="1199.6602"/><line style="stroke:#181818;stroke-width:1.0;stroke-dasharray:2.0,2.0;" x1="468" x2="468" y1="1199.6602" y2="1212.6602"/><line style="stroke:#181818;stroke-width:1.0;stroke-dasharray:2.0,2.0;" x1="421" x2="468" y1="1212.6602" y2="1212.6602"/><polygon fill="#181818" points="431,1208.6602,421,1212.6602,431,1216.6602,427,1212.6602" style="stroke:#181818;stroke-width:1.0;"/><text fill="#000000" font-family="sans-serif" font-size="13" font-weight="bold" lengthAdjust="spacing" textLength="14" x="433" y="1194.3975">26</text><text fill="#000000" font-family="sans-serif" font-size="13" lengthAdjust="spacing" textLength="182" x="451" y="1194.3975">double peakPowerConsumption</text><polygon fill="#181818" points="228,1234.9512,218,1238.9512,228,1242.9512,224,1238.9512" style="stroke:#181818;stroke-width:1.0;"/><line style="stroke:#181818;stroke-width:1.0;stroke-dasharray:2.0,2.0;" x1="222" x2="415" y1="1238.9512" y2="1238.9512"/><text fill="#000000" font-family="sans-serif" font-size="13" font-weight="bold" lengthAdjust="spacing" textLength="14" x="234" y="1233.6885">27</text><text fill="#000000" font-family="sans-serif" font-size="13" lengthAdjust="spacing" textLength="25" x="252" y="1233.6885">max</text><ellipse cx="7.5" cy="1269.4922" fill="none" rx="4" ry="4" style="stroke:#181818;stroke-width:1.5;"/><polygon fill="#181818" points="24.5,1266.2422,14.5,1270.2422,24.5,1274.2422,20.5,1270.2422" style="stroke:#181818;stroke-width:1.0;"/><line style="stroke:#181818;stroke-width:1.0;stroke-dasharray:2.0,2.0;" x1="22.5" x2="211" y1="1270.2422" y2="1270.2422"/><text fill="#000000" font-family="sans-serif" font-size="13" font-weight="bold" lengthAdjust="spacing" textLength="14" x="25" y="1264.9795">28</text><text fill="#000000" font-family="sans-serif" font-size="13" lengthAdjust="spacing" textLength="113" x="43" y="1264.9795">max, HTTP 200 OK</text><!--SRC=[dLTRRvj857xthpZgYvF8JhjfjvKion8nOtks65Z0gQf6Mb4pJb5jG83JhQh-zpqpmsM6GBkjdpotS_dETowKSNbai5k-V0rJMBCIN1P-1ZVzmdBOfqbnFcLbd2QG7g3yn62JdWi6SG8XFCIFB86CvN4QZKRXkKoJy-aZoqUZBCpBU1zdOLB2izbTU3opPPgKUNeyilmPX0MNN2qxbxbseTnd-MEyP-9s8VzthgB8G_m0_ZuFirOiRbKx-lM7F8w4O6hEJCR5KLEyUSWYQWxSNPsJ_SndIP6Alno8y1YNNvkdguvDygx7ihI8opJ_Agxbk9G7Jvpbs0NnYGcCEiyaidnJVvO9UD9plcS_iIyhElQTmimvkEtxGkWjPlV9DipcDImJlk1M5MLuoYP04_oJb8sTYuMGFY1iq5XfPsLkPLylB5rz7LnYUIo0mT_O9yk0EZRyCODD4BYm9W5uvEyTyGC87B5qYV4MNESTyS2mJLWwTk0vbeNBfM5Pr5w3JxmxkYJZqOTqkb3e2JCXu7bMy_BvDzIUbz-VVsD9z7qK8kYFOSbKHYklKLP5NXJqmCg6tiisjIxkamPi4C8dzmcqMwZdijLJvyAOe2EDwsC5XvjPxOtmpkVkhYYwkFGCbxji6RxFaV58u55oHs3bETlwrefQ188D0Mg2inB_971h3tTC8b4QSnWvCFpS9xRlUB3QsS80mwB1-_fjTKRjGKbBZnW1gTP2w-rVw0dS6Zx11Nze1E2ZgHWcGpZTemxVDG_atV6eHbu6j2qC68fZ6aRhEikthEHbuU9IYwPIIFJNKoseVfd7oGD48dU4E2xN3a_ir_JtP34QzEkQDGa_Cy7jPkTlwE-KerPtn0RWRAr2UQByNbsXlFbydpEylLXqBgownnhtRrJklvm9pjSSyOZh-3HmlFUSxolQikVslSAu8LPnTd9fc3NKCU7Ei7P4oDIoXzyGHpwiK4AmeNujxHt5bQJ-cjuHkvAaKRFj3kZa8KwYswzr8JQIg2Sizyc5qimce7KhXSDAsr5qT68eDmjvJOcOybWrjkr9ZR7o5erkMVc5iKJsDEV0wzU5b7iTHomf1Q4cLO7h53MrrRKQT5Ejk2Zdilz8pd6sLor7CLmHfT7afKgJLqWJMNPaHVATdOTKU59IH9KJqLO8nNUH6MlFk8MMQxu8jYnM7HAfRCQMF4ZsNYxqvMKdvNunvXIhJVZnoERoT057HDOvo5MnojEJsjG7IA5X-qh5ziy6surZcRneRmrNP8PCE4xPW6wnEnjR5uSB6__OV4Fa409hEOwBE7hERhq1OYmtIXEX0K7OhJgTSAUnGGQB1mNJZNfrXCIYpiyg7wjyvWzSnzrPt5WqSgnNfe7vvkfAYzxecAOP711bnEbJdL0u8FyOLS2VcbT54tQS4khynmBCxxNShkSbljiyqQDRlwtw0ZKr7yHBDLjgYLs3b26hc-dcRsIwveOwmF43LTTFSbvwKMLznnTjBkHdBIMlSJOKr0b8mwoA4aW7Y-Aa-9GC7KI6PcTiRgViN39wC3uY2YLSz28_WSzSIiA-m2OiFg6q-UBYieFCq4ZDB-ay4mUSPlsm_3_R4M6qVC1Ud475hMiaf3AHUooCiEtp08lZoqQV4eeV-O5yaD5HAmX6Q3pY9_gkMbTUYzQ-v07YIvmlbQdUjOmb3dyOJ9ky0vCQcFjRhSssfDg7n_tvY6Rs3UFON3lDPJBaJSzGdhC3f8yiLxJnB-kfR_xZOZBSJDVzdm1QtMdVHkaPwpHaVIyKj7i_2LwhsBsPyN5bvzagPjZLsWyXlKkrNp0pzFxVFcKVqlbqgdyeuSs9_0IxUV42dBUT2R3-FDBCV3CU_GS0]--></g></svg>