<?xml version="1.0" encoding="us-ascii" standalone="no"?><svg xmlns="http://www.w3.org/2000/svg" xmlns:xlink="http://www.w3.org/1999/xlink" contentStyleType="text/css" height="2533px" preserveAspectRatio="none" style="width:1597px;height:2533px;background:#FFFFFF;" version="1.1" viewBox="0 0 1597 2533" width="1597px" zoomAndPan="magnify"><defs/><g><text fill="#000000" font-family="sans-serif" font-size="14" font-weight="bold" lengthAdjust="spacing" textLength="472" x="564.25" y="30.1074">UC36 - Get Peak Power consumption of the House in a given period</text><rect fill="#FFFFFF" height="2366.7266" style="stroke:#181818;stroke-width:1.0;" width="10" x="207" y="111.5332"/><rect fill="#FFFFFF" height="2269.5625" style="stroke:#181818;stroke-width:1.0;" width="10" x="345" y="177.4063"/><rect fill="#FFFFFF" height="42.291" style="stroke:#181818;stroke-width:1.0;" width="10" x="350" y="457.6074"/><rect fill="#FFFFFF" height="161.1641" style="stroke:#181818;stroke-width:1.0;" width="10" x="350" y="2262.5137"/><rect fill="#FFFFFF" height="31.291" style="stroke:#181818;stroke-width:1.0;" width="10" x="720" y="315.1523"/><rect fill="#FFFFFF" height="31.291" style="stroke:#181818;stroke-width:1.0;" width="10" x="720" y="918.5938"/><rect fill="#FFFFFF" height="30" style="stroke:#181818;stroke-width:1.0;" width="10" x="894.5" y="768.1387"/><rect fill="#FFFFFF" height="31.291" style="stroke:#181818;stroke-width:1.0;" width="10" x="1064.5" y="705.5566"/><rect fill="#FFFFFF" height="48.582" style="stroke:#181818;stroke-width:1.0;" width="10" x="1064.5" y="1122.9609"/><rect fill="#FFFFFF" height="30" style="stroke:#181818;stroke-width:1.0;" width="10" x="1244.5" y="1202.834"/><rect fill="#FFFFFF" height="30" style="stroke:#181818;stroke-width:1.0;" width="10" x="1471" y="1973.3125"/><rect fill="none" height="177.7461" style="stroke:#000000;stroke-width:1.5;" width="1096.5" x="274" y="1063.0879"/><rect fill="none" height="485.3652" style="stroke:#000000;stroke-width:1.5;" width="1395.5" x="196" y="1525.9473"/><rect fill="none" height="240.0371" style="stroke:#000000;stroke-width:1.5;" width="722" x="206" y="1702.9844"/><rect fill="none" height="63.582" style="stroke:#000000;stroke-width:1.5;" width="644" x="274" y="1828.1484"/><rect fill="none" height="96.873" style="stroke:#000000;stroke-width:1.5;" width="477" x="264" y="2319.8047"/><rect fill="none" height="63.582" style="stroke:#000000;stroke-width:1.5;" width="352" x="274" y="2346.0957"/><line style="stroke:#181818;stroke-width:0.5;stroke-dasharray:5.0,5.0;" x1="212" x2="212" y1="78.2422" y2="2496.2598"/><line style="stroke:#181818;stroke-width:0.5;stroke-dasharray:5.0,5.0;" x1="350" x2="350" y1="78.2422" y2="2496.2598"/><line style="stroke:#181818;stroke-width:0.5;stroke-dasharray:5.0,5.0;" x1="724.5" x2="724.5" y1="78.2422" y2="2496.2598"/><line style="stroke:#181818;stroke-width:0.5;stroke-dasharray:5.0,5.0;" x1="899.5" x2="899.5" y1="653.1641" y2="2496.2598"/><line style="stroke:#181818;stroke-width:0.5;stroke-dasharray:5.0,5.0;" x1="1069.5" x2="1069.5" y1="78.2422" y2="2496.2598"/><line style="stroke:#181818;stroke-width:0.5;stroke-dasharray:5.0,5.0;" x1="1249.5" x2="1249.5" y1="1044.2773" y2="2496.2598"/><line style="stroke:#181818;stroke-width:0.5;stroke-dasharray:5.0,5.0;" x1="1475.5" x2="1475.5" y1="1507.1367" y2="2496.2598"/><rect fill="#E2E2F0" height="32.6211" rx="2.5" ry="2.5" style="stroke:#181818;stroke-width:0.5;" width="112" x="156" y="44.6211"/><text fill="#000000" font-family="sans-serif" font-size="14" lengthAdjust="spacing" textLength="98" x="163" y="66.7285">ValueController</text><rect fill="#E2E2F0" height="32.6211" rx="2.5" ry="2.5" style="stroke:#181818;stroke-width:0.5;" width="112" x="156" y="2495.2598"/><text fill="#000000" font-family="sans-serif" font-size="14" lengthAdjust="spacing" textLength="98" x="163" y="2517.3672">ValueController</text><rect fill="#E2E2F0" height="32.6211" rx="2.5" ry="2.5" style="stroke:#181818;stroke-width:0.5;" width="132" x="284" y="44.6211"/><text fill="#000000" font-family="sans-serif" font-size="14" lengthAdjust="spacing" textLength="118" x="291" y="66.7285">PeakPowerService</text><rect fill="#E2E2F0" height="32.6211" rx="2.5" ry="2.5" style="stroke:#181818;stroke-width:0.5;" width="132" x="284" y="2495.2598"/><text fill="#000000" font-family="sans-serif" font-size="14" lengthAdjust="spacing" textLength="118" x="291" y="2517.3672">PeakPowerService</text><rect fill="#E2E2F0" height="32.6211" rx="2.5" ry="2.5" style="stroke:#181818;stroke-width:0.5;" width="127" x="661.5" y="44.6211"/><text fill="#000000" font-family="sans-serif" font-size="14" lengthAdjust="spacing" textLength="113" x="668.5" y="66.7285">SensorRepository</text><rect fill="#E2E2F0" height="32.6211" rx="2.5" ry="2.5" style="stroke:#181818;stroke-width:0.5;" width="127" x="661.5" y="2495.2598"/><text fill="#000000" font-family="sans-serif" font-size="14" lengthAdjust="spacing" textLength="113" x="668.5" y="2517.3672">SensorRepository</text><rect fill="#E2E2F0" height="32.6211" rx="2.5" ry="2.5" style="stroke:#181818;stroke-width:0.5;" width="202" x="798.5" y="2495.2598"/><text fill="#000000" font-family="sans-serif" font-size="14" lengthAdjust="spacing" textLength="188" x="805.5" y="2517.3672">gridPowerValues: List&lt;Value&gt;</text><rect fill="#E2E2F0" height="32.6211" rx="2.5" ry="2.5" style="stroke:#181818;stroke-width:0.5;" width="118" x="1010.5" y="44.6211"/><text fill="#000000" font-family="sans-serif" font-size="14" lengthAdjust="spacing" textLength="104" x="1017.5" y="66.7285">ValueRepository</text><rect fill="#E2E2F0" height="32.6211" rx="2.5" ry="2.5" style="stroke:#181818;stroke-width:0.5;" width="118" x="1010.5" y="2495.2598"/><text fill="#000000" font-family="sans-serif" font-size="14" lengthAdjust="spacing" textLength="104" x="1017.5" y="2517.3672">ValueRepository</text><rect fill="#E2E2F0" height="32.6211" rx="2.5" ry="2.5" style="stroke:#181818;stroke-width:0.5;" width="222" x="1138.5" y="2495.2598"/><text fill="#000000" font-family="sans-serif" font-size="14" lengthAdjust="spacing" textLength="208" x="1145.5" y="2517.3672">powerSourceValues: List&lt;Value&gt;</text><rect fill="#E2E2F0" height="32.6211" rx="2.5" ry="2.5" style="stroke:#181818;stroke-width:0.5;" width="211" x="1370.5" y="2495.2598"/><text fill="#000000" font-family="sans-serif" font-size="14" lengthAdjust="spacing" textLength="197" x="1377.5" y="2517.3672">deltaPeriodValues: List&lt;Value&gt;</text><rect fill="#FFFFFF" height="2366.7266" style="stroke:#181818;stroke-width:1.0;" width="10" x="207" y="111.5332"/><rect fill="#FFFFFF" height="2269.5625" style="stroke:#181818;stroke-width:1.0;" width="10" x="345" y="177.4063"/><rect fill="#FFFFFF" height="42.291" style="stroke:#181818;stroke-width:1.0;" width="10" x="350" y="457.6074"/><rect fill="#FFFFFF" height="161.1641" style="stroke:#181818;stroke-width:1.0;" width="10" x="350" y="2262.5137"/><rect fill="#FFFFFF" height="31.291" style="stroke:#181818;stroke-width:1.0;" width="10" x="720" y="315.1523"/><rect fill="#FFFFFF" height="31.291" style="stroke:#181818;stroke-width:1.0;" width="10" x="720" y="918.5938"/><rect fill="#FFFFFF" height="30" style="stroke:#181818;stroke-width:1.0;" width="10" x="894.5" y="768.1387"/><rect fill="#FFFFFF" height="31.291" style="stroke:#181818;stroke-width:1.0;" width="10" x="1064.5" y="705.5566"/><rect fill="#FFFFFF" height="48.582" style="stroke:#181818;stroke-width:1.0;" width="10" x="1064.5" y="1122.9609"/><rect fill="#FFFFFF" height="30" style="stroke:#181818;stroke-width:1.0;" width="10" x="1244.5" y="1202.834"/><rect fill="#FFFFFF" height="30" style="stroke:#181818;stroke-width:1.0;" width="10" x="1471" y="1973.3125"/><ellipse cx="7.5" cy="110.7832" fill="none" rx="4" ry="4" style="stroke:#181818;stroke-width:1.5;"/><polygon fill="#181818" points="195,107.5332,205,111.5332,195,115.5332,199,111.5332" style="stroke:#181818;stroke-width:1.0;"/><line style="stroke:#181818;stroke-width:1.0;" x1="12" x2="201" y1="111.5332" y2="111.5332"/><text fill="#000000" font-family="sans-serif" font-size="13" font-weight="bold" lengthAdjust="spacing" textLength="7" x="15" y="106.2705">1</text><text fill="#000000" font-family="sans-serif" font-size="13" lengthAdjust="spacing" textLength="169" x="26" y="106.2705">GET /peakPower/{start}/{end}</text><polygon fill="#181818" points="333,173.4063,343,177.4063,333,181.4063,337,177.4063" style="stroke:#181818;stroke-width:1.0;"/><line style="stroke:#181818;stroke-width:1.0;" x1="217" x2="339" y1="177.4063" y2="177.4063"/><text fill="#000000" font-family="sans-serif" font-size="13" font-weight="bold" lengthAdjust="spacing" textLength="7" x="224" y="154.8525">2</text><text fill="#000000" font-family="sans-serif" font-size="13" lengthAdjust="spacing" textLength="88" x="235" y="137.5615">getPeakPower(</text><text fill="#000000" font-family="sans-serif" font-size="13" lengthAdjust="spacing" textLength="98" x="235" y="154.8525">Timestamp start,</text><text fill="#000000" font-family="sans-serif" font-size="13" lengthAdjust="spacing" textLength="93" x="239" y="172.1436">Timestamp end)</text><path d="M198,190.4063 L198,269.4063 L502,269.4063 L502,200.4063 L492,190.4063 L198,190.4063 " fill="#FEFFDD" style="stroke:#181818;stroke-width:0.5;"/><path d="M492,190.4063 L492,200.4063 L502,200.4063 L492,190.4063 " fill="#FEFFDD" style="stroke:#181818;stroke-width:0.5;"/><text fill="#000000" font-family="sans-serif" font-size="13" lengthAdjust="spacing" textLength="186" x="204" y="209.4346">Here we will find all sensors that</text><text fill="#000000" font-family="sans-serif" font-size="13" lengthAdjust="spacing" textLength="279" x="208" y="226.7256">belong to the device ID "POWER GRID METER"</text><text fill="#000000" font-family="sans-serif" font-size="13" lengthAdjust="spacing" textLength="219" x="208" y="244.0166">Of all that may be there, we only want</text><text fill="#000000" font-family="sans-serif" font-size="13" lengthAdjust="spacing" textLength="256" x="208" y="261.3076">the ones that have a functionality ID of US25</text><polygon fill="#181818" points="708,311.1523,718,315.1523,708,319.1523,712,315.1523" style="stroke:#181818;stroke-width:1.0;"/><line style="stroke:#181818;stroke-width:1.0;" x1="355" x2="714" y1="315.1523" y2="315.1523"/><text fill="#000000" font-family="sans-serif" font-size="13" font-weight="bold" lengthAdjust="spacing" textLength="7" x="362" y="301.2441">3</text><text fill="#000000" font-family="sans-serif" font-size="13" lengthAdjust="spacing" textLength="86" x="373" y="292.5986">findByDeviceID</text><text fill="#000000" font-family="sans-serif" font-size="13" lengthAdjust="spacing" textLength="58" x="373" y="309.8896">(DeviceID)</text><polygon fill="#181818" points="366,342.4434,356,346.4434,366,350.4434,362,346.4434" style="stroke:#181818;stroke-width:1.0;"/><line style="stroke:#181818;stroke-width:1.0;stroke-dasharray:2.0,2.0;" x1="360" x2="724" y1="346.4434" y2="346.4434"/><text fill="#000000" font-family="sans-serif" font-size="13" font-weight="bold" lengthAdjust="spacing" textLength="7" x="372" y="341.1807">4</text><text fill="#000000" font-family="sans-serif" font-size="13" lengthAdjust="spacing" textLength="188" x="383" y="341.1807">powerGridSensors List&lt;Sensor&gt;</text><path d="M227,359.4434 L227,420.4434 L473,420.4434 L473,369.4434 L463,359.4434 L227,359.4434 " fill="#FEFFDD" style="stroke:#181818;stroke-width:0.5;"/><path d="M463,359.4434 L463,369.4434 L473,369.4434 L463,359.4434 " fill="#FEFFDD" style="stroke:#181818;stroke-width:0.5;"/><text fill="#000000" font-family="sans-serif" font-size="13" lengthAdjust="spacing" textLength="225" x="233" y="378.4717">We call a modularized (private) method</text><text fill="#000000" font-family="sans-serif" font-size="13" lengthAdjust="spacing" textLength="224" x="233" y="395.7627">in class that will retrieve only the US25</text><text fill="#000000" font-family="sans-serif" font-size="13" lengthAdjust="spacing" textLength="175" x="233" y="413.0537">sensor from the list of sensors</text><line style="stroke:#181818;stroke-width:1.0;" x1="355" x2="402" y1="444.6074" y2="444.6074"/><line style="stroke:#181818;stroke-width:1.0;" x1="402" x2="402" y1="444.6074" y2="457.6074"/><line style="stroke:#181818;stroke-width:1.0;" x1="361" x2="402" y1="457.6074" y2="457.6074"/><polygon fill="#181818" points="371,453.6074,361,457.6074,371,461.6074,367,457.6074" style="stroke:#181818;stroke-width:1.0;"/><text fill="#000000" font-family="sans-serif" font-size="13" font-weight="bold" lengthAdjust="spacing" textLength="7" x="367" y="439.3447">5</text><text fill="#000000" font-family="sans-serif" font-size="13" lengthAdjust="spacing" textLength="256" x="378" y="439.3447">getUS25SensorFromList(powerGridSensors)</text><line style="stroke:#181818;stroke-width:1.0;stroke-dasharray:2.0,2.0;" x1="360" x2="402" y1="498.8984" y2="498.8984"/><line style="stroke:#181818;stroke-width:1.0;stroke-dasharray:2.0,2.0;" x1="402" x2="402" y1="498.8984" y2="511.8984"/><line style="stroke:#181818;stroke-width:1.0;stroke-dasharray:2.0,2.0;" x1="355" x2="402" y1="511.8984" y2="511.8984"/><polygon fill="#181818" points="365,507.8984,355,511.8984,365,515.8984,361,511.8984" style="stroke:#181818;stroke-width:1.0;"/><text fill="#000000" font-family="sans-serif" font-size="13" font-weight="bold" lengthAdjust="spacing" textLength="7" x="367" y="493.6357">6</text><text fill="#000000" font-family="sans-serif" font-size="13" lengthAdjust="spacing" textLength="159" x="378" y="493.6357">us25SensorFromPowerGrid</text><path d="M232,519.8984 L232,615.8984 L468,615.8984 L468,529.8984 L458,519.8984 L232,519.8984 " fill="#FEFFDD" style="stroke:#181818;stroke-width:0.5;"/><path d="M458,519.8984 L458,529.8984 L468,529.8984 L458,519.8984 " fill="#FEFFDD" style="stroke:#181818;stroke-width:0.5;"/><text fill="#000000" font-family="sans-serif" font-size="13" lengthAdjust="spacing" textLength="192" x="238" y="538.9268">We create a list to hold all values</text><text fill="#000000" font-family="sans-serif" font-size="13" lengthAdjust="spacing" textLength="205" x="238" y="556.2178">from the power grid sensor. Each of</text><text fill="#000000" font-family="sans-serif" font-size="13" lengthAdjust="spacing" textLength="215" x="238" y="573.5088">these values will be the jump off point</text><text fill="#000000" font-family="sans-serif" font-size="13" lengthAdjust="spacing" textLength="212" x="238" y="590.7998">for the comparison of values from the</text><text fill="#000000" font-family="sans-serif" font-size="13" lengthAdjust="spacing" textLength="88" x="238" y="608.0908">Power Sources</text><polygon fill="#181818" points="786.5,640.6445,796.5,644.6445,786.5,648.6445,790.5,644.6445" style="stroke:#181818;stroke-width:1.0;"/><line style="stroke:#181818;stroke-width:1.0;stroke-dasharray:2.0,2.0;" x1="355" x2="792.5" y1="644.6445" y2="644.6445"/><text fill="#000000" font-family="sans-serif" font-size="13" font-weight="bold" lengthAdjust="spacing" textLength="7" x="362" y="639.3818">7</text><text fill="#000000" font-family="sans-serif" font-size="13" lengthAdjust="spacing" textLength="57" x="373" y="639.3818">&#171;creates&#187;</text><rect fill="#E2E2F0" height="32.6211" rx="2.5" ry="2.5" style="stroke:#181818;stroke-width:0.5;" width="202" x="798.5" y="621.3535"/><text fill="#000000" font-family="sans-serif" font-size="14" lengthAdjust="spacing" textLength="188" x="805.5" y="643.4609">gridPowerValues: List&lt;Value&gt;</text><polygon fill="#181818" points="1052.5,701.5566,1062.5,705.5566,1052.5,709.5566,1056.5,705.5566" style="stroke:#181818;stroke-width:1.0;"/><line style="stroke:#181818;stroke-width:1.0;" x1="355" x2="1058.5" y1="705.5566" y2="705.5566"/><text fill="#000000" font-family="sans-serif" font-size="13" font-weight="bold" lengthAdjust="spacing" textLength="7" x="362" y="691.6484">8</text><text fill="#000000" font-family="sans-serif" font-size="13" lengthAdjust="spacing" textLength="217" x="373" y="683.0029">findBySensorIDBetweenPeriodOfTime</text><text fill="#000000" font-family="sans-serif" font-size="13" lengthAdjust="spacing" textLength="122" x="373" y="700.2939">(sensorID, start, end)</text><polygon fill="#181818" points="366,732.8477,356,736.8477,366,740.8477,362,736.8477" style="stroke:#181818;stroke-width:1.0;"/><line style="stroke:#181818;stroke-width:1.0;stroke-dasharray:2.0,2.0;" x1="360" x2="1068.5" y1="736.8477" y2="736.8477"/><text fill="#000000" font-family="sans-serif" font-size="13" font-weight="bold" lengthAdjust="spacing" textLength="7" x="372" y="731.585">9</text><text fill="#000000" font-family="sans-serif" font-size="13" lengthAdjust="spacing" textLength="70" x="383" y="731.585">List&lt;Value&gt;</text><polygon fill="#181818" points="882.5,764.1387,892.5,768.1387,882.5,772.1387,886.5,768.1387" style="stroke:#181818;stroke-width:1.0;"/><line style="stroke:#181818;stroke-width:1.0;" x1="355" x2="888.5" y1="768.1387" y2="768.1387"/><text fill="#000000" font-family="sans-serif" font-size="13" font-weight="bold" lengthAdjust="spacing" textLength="14" x="362" y="762.876">10</text><text fill="#000000" font-family="sans-serif" font-size="13" lengthAdjust="spacing" textLength="114" x="380" y="762.876">addAll(List&lt;Value&gt;)</text><path d="M193,811.1387 L193,872.1387 L506,872.1387 L506,821.1387 L496,811.1387 L193,811.1387 " fill="#FEFFDD" style="stroke:#181818;stroke-width:0.5;"/><path d="M496,811.1387 L496,821.1387 L506,821.1387 L496,811.1387 " fill="#FEFFDD" style="stroke:#181818;stroke-width:0.5;"/><text fill="#000000" font-family="sans-serif" font-size="13" lengthAdjust="spacing" textLength="261" x="199" y="830.167">We find all sensors with functionality of US24</text><text fill="#000000" font-family="sans-serif" font-size="13" lengthAdjust="spacing" textLength="247" x="199" y="847.458">and then for each find all values read within</text><text fill="#000000" font-family="sans-serif" font-size="13" lengthAdjust="spacing" textLength="292" x="199" y="864.749">the given period and post all to a main list (or map)</text><polygon fill="#181818" points="708,914.5938,718,918.5938,708,922.5938,712,918.5938" style="stroke:#181818;stroke-width:1.0;"/><line style="stroke:#181818;stroke-width:1.0;" x1="355" x2="714" y1="918.5938" y2="918.5938"/><text fill="#000000" font-family="sans-serif" font-size="13" font-weight="bold" lengthAdjust="spacing" textLength="14" x="362" y="904.6855">11</text><text fill="#000000" font-family="sans-serif" font-size="13" lengthAdjust="spacing" textLength="163" x="380" y="896.04">findBySensorFunctionalityID</text><text fill="#000000" font-family="sans-serif" font-size="13" lengthAdjust="spacing" textLength="135" x="380" y="913.3311">(SensorFunctionalityID)</text><polygon fill="#181818" points="366,945.8848,356,949.8848,366,953.8848,362,949.8848" style="stroke:#181818;stroke-width:1.0;"/><line style="stroke:#181818;stroke-width:1.0;stroke-dasharray:2.0,2.0;" x1="360" x2="724" y1="949.8848" y2="949.8848"/><text fill="#000000" font-family="sans-serif" font-size="13" font-weight="bold" lengthAdjust="spacing" textLength="14" x="372" y="944.6221">12</text><text fill="#000000" font-family="sans-serif" font-size="13" lengthAdjust="spacing" textLength="78" x="390" y="944.6221">List&lt;Sensor&gt;</text><path d="M227,962.8848 L227,1006.8848 L473,1006.8848 L473,972.8848 L463,962.8848 L227,962.8848 " fill="#FEFFDD" style="stroke:#181818;stroke-width:0.5;"/><path d="M463,962.8848 L463,972.8848 L473,972.8848 L463,962.8848 " fill="#FEFFDD" style="stroke:#181818;stroke-width:0.5;"/><text fill="#000000" font-family="sans-serif" font-size="13" lengthAdjust="spacing" textLength="203" x="233" y="981.9131">powerSourceList will hold all values</text><text fill="#000000" font-family="sans-serif" font-size="13" lengthAdjust="spacing" textLength="225" x="233" y="999.2041">from sensors with functionality of US24</text><polygon fill="#181818" points="1126.5,1031.7578,1136.5,1035.7578,1126.5,1039.7578,1130.5,1035.7578" style="stroke:#181818;stroke-width:1.0;"/><line style="stroke:#181818;stroke-width:1.0;stroke-dasharray:2.0,2.0;" x1="355" x2="1132.5" y1="1035.7578" y2="1035.7578"/><text fill="#000000" font-family="sans-serif" font-size="13" font-weight="bold" lengthAdjust="spacing" textLength="14" x="362" y="1030.4951">13</text><text fill="#000000" font-family="sans-serif" font-size="13" lengthAdjust="spacing" textLength="57" x="380" y="1030.4951">&#171;creates&#187;</text><rect fill="#E2E2F0" height="32.6211" rx="2.5" ry="2.5" style="stroke:#181818;stroke-width:0.5;" width="222" x="1138.5" y="1012.4668"/><text fill="#000000" font-family="sans-serif" font-size="14" lengthAdjust="spacing" textLength="208" x="1145.5" y="1034.5742">powerSourceValues: List&lt;Value&gt;</text><path d="M274,1063.0879 L347,1063.0879 L347,1072.3789 L337,1082.3789 L274,1082.3789 L274,1063.0879 " fill="#EEEEEE" style="stroke:#000000;stroke-width:1.5;"/><rect fill="none" height="177.7461" style="stroke:#000000;stroke-width:1.5;" width="1096.5" x="274" y="1063.0879"/><text fill="#000000" font-family="sans-serif" font-size="13" font-weight="bold" lengthAdjust="spacing" textLength="28" x="289" y="1078.1162">loop</text><text fill="#000000" font-family="sans-serif" font-size="11" font-weight="bold" lengthAdjust="spacing" textLength="185" x="362" y="1076.958">[for each Sensor in List&lt;Sensor&gt;]</text><polygon fill="#181818" points="1052.5,1118.9609,1062.5,1122.9609,1052.5,1126.9609,1056.5,1122.9609" style="stroke:#181818;stroke-width:1.0;"/><line style="stroke:#181818;stroke-width:1.0;" x1="355" x2="1058.5" y1="1122.9609" y2="1122.9609"/><text fill="#000000" font-family="sans-serif" font-size="13" font-weight="bold" lengthAdjust="spacing" textLength="14" x="362" y="1109.0527">14</text><text fill="#000000" font-family="sans-serif" font-size="13" lengthAdjust="spacing" textLength="217" x="380" y="1100.4072">findBySensorIDBetweenPeriodOfTime</text><text fill="#000000" font-family="sans-serif" font-size="13" lengthAdjust="spacing" textLength="122" x="380" y="1117.6982">(sensorID, start, end)</text><polygon fill="#181818" points="366,1167.543,356,1171.543,366,1175.543,362,1171.543" style="stroke:#181818;stroke-width:1.0;"/><line style="stroke:#181818;stroke-width:1.0;stroke-dasharray:2.0,2.0;" x1="360" x2="1068.5" y1="1171.543" y2="1171.543"/><text fill="#000000" font-family="sans-serif" font-size="13" font-weight="bold" lengthAdjust="spacing" textLength="14" x="372" y="1157.6348">15</text><text fill="#000000" font-family="sans-serif" font-size="13" lengthAdjust="spacing" textLength="124" x="390" y="1148.9893">listOfValuesOfSensor</text><text fill="#000000" font-family="sans-serif" font-size="13" lengthAdjust="spacing" textLength="70" x="390" y="1166.2803">List&lt;Value&gt;</text><polygon fill="#181818" points="1232.5,1198.834,1242.5,1202.834,1232.5,1206.834,1236.5,1202.834" style="stroke:#181818;stroke-width:1.0;"/><line style="stroke:#181818;stroke-width:1.0;" x1="355" x2="1238.5" y1="1202.834" y2="1202.834"/><text fill="#000000" font-family="sans-serif" font-size="13" font-weight="bold" lengthAdjust="spacing" textLength="14" x="362" y="1197.5713">16</text><text fill="#000000" font-family="sans-serif" font-size="13" lengthAdjust="spacing" textLength="168" x="380" y="1197.5713">addAll(listOfValuesOfSensor)</text><path d="M198,1252.834 L198,1469.834 L502,1469.834 L502,1262.834 L492,1252.834 L198,1252.834 " fill="#FEFFDD" style="stroke:#181818;stroke-width:0.5;"/><path d="M492,1252.834 L492,1262.834 L502,1262.834 L492,1252.834 " fill="#FEFFDD" style="stroke:#181818;stroke-width:0.5;"/><text fill="#000000" font-family="sans-serif" font-size="13" lengthAdjust="spacing" textLength="230" x="204" y="1271.8623">We will iteraterate through each value in</text><text fill="#000000" font-family="sans-serif" font-size="13" lengthAdjust="spacing" textLength="241" x="204" y="1289.1533">gridPowerValues. For each we will search</text><text fill="#000000" font-family="sans-serif" font-size="13" lengthAdjust="spacing" textLength="242" x="204" y="1306.4443">the powerSourceValues list for values that</text><text fill="#000000" font-family="sans-serif" font-size="13" lengthAdjust="spacing" textLength="213" x="204" y="1323.7354">are within the delta of the value being</text><text fill="#000000" font-family="sans-serif" font-size="13" lengthAdjust="spacing" textLength="187" x="204" y="1341.0264">analyzed. (Can be modularized).</text><text fill="#000000" font-family="sans-serif" font-size="13" lengthAdjust="spacing" textLength="254" x="204" y="1358.3174">We will then sum all the obtained PSValues</text><text fill="#000000" font-family="sans-serif" font-size="13" lengthAdjust="spacing" textLength="233" x="204" y="1375.6084">wiht the current GPValue and put that to</text><text fill="#000000" font-family="sans-serif" font-size="13" lengthAdjust="spacing" textLength="259" x="204" y="1392.8994">a new map that will have as key the endTime</text><text fill="#000000" font-family="sans-serif" font-size="13" lengthAdjust="spacing" textLength="272" x="204" y="1410.1904">Timestamp of the ValueGP being analyzed and</text><text fill="#000000" font-family="sans-serif" font-size="13" lengthAdjust="spacing" textLength="283" x="204" y="1427.4814">as value the sum of the measurements belonging</text><text fill="#000000" font-family="sans-serif" font-size="13" lengthAdjust="spacing" textLength="264" x="204" y="1444.7725">to the ValueGP and all possible ValuePS that</text><text fill="#000000" font-family="sans-serif" font-size="13" lengthAdjust="spacing" textLength="236" x="204" y="1462.0635">may be within the "delta" of the ValueGP</text><polygon fill="#181818" points="1358.5,1494.6172,1368.5,1498.6172,1358.5,1502.6172,1362.5,1498.6172" style="stroke:#181818;stroke-width:1.0;"/><line style="stroke:#181818;stroke-width:1.0;stroke-dasharray:2.0,2.0;" x1="355" x2="1364.5" y1="1498.6172" y2="1498.6172"/><text fill="#000000" font-family="sans-serif" font-size="13" font-weight="bold" lengthAdjust="spacing" textLength="14" x="362" y="1493.3545">17</text><text fill="#000000" font-family="sans-serif" font-size="13" lengthAdjust="spacing" textLength="57" x="380" y="1493.3545">&#171;creates&#187;</text><rect fill="#E2E2F0" height="32.6211" rx="2.5" ry="2.5" style="stroke:#181818;stroke-width:0.5;" width="211" x="1370.5" y="1475.3262"/><text fill="#000000" font-family="sans-serif" font-size="14" lengthAdjust="spacing" textLength="197" x="1377.5" y="1497.4336">deltaPeriodValues: List&lt;Value&gt;</text><path d="M196,1525.9473 L269,1525.9473 L269,1535.2383 L259,1545.2383 L196,1545.2383 L196,1525.9473 " fill="#EEEEEE" style="stroke:#000000;stroke-width:1.5;"/><rect fill="none" height="485.3652" style="stroke:#000000;stroke-width:1.5;" width="1395.5" x="196" y="1525.9473"/><text fill="#000000" font-family="sans-serif" font-size="13" font-weight="bold" lengthAdjust="spacing" textLength="28" x="211" y="1540.9756">loop</text><text fill="#000000" font-family="sans-serif" font-size="11" font-weight="bold" lengthAdjust="spacing" textLength="214" x="284" y="1539.8174">[for each ValueGP in gridPowerValues]</text><line style="stroke:#181818;stroke-width:1.0;" x1="355" x2="397" y1="1568.5293" y2="1568.5293"/><line style="stroke:#181818;stroke-width:1.0;" x1="397" x2="397" y1="1568.5293" y2="1581.5293"/><line style="stroke:#181818;stroke-width:1.0;" x1="356" x2="397" y1="1581.5293" y2="1581.5293"/><polygon fill="#181818" points="366,1577.5293,356,1581.5293,366,1585.5293,362,1581.5293" style="stroke:#181818;stroke-width:1.0;"/><text fill="#000000" font-family="sans-serif" font-size="13" font-weight="bold" lengthAdjust="spacing" textLength="14" x="362" y="1563.2666">18</text><text fill="#000000" font-family="sans-serif" font-size="13" lengthAdjust="spacing" textLength="169" x="380" y="1563.2666">ValueGP.getEndTimestamp()</text><path d="M213,1594.5293 L213,1690.5293 L486,1690.5293 L486,1604.5293 L476,1594.5293 L213,1594.5293 " fill="#FEFFDD" style="stroke:#181818;stroke-width:0.5;"/><path d="M476,1594.5293 L476,1604.5293 L486,1604.5293 L476,1594.5293 " fill="#FEFFDD" style="stroke:#181818;stroke-width:0.5;"/><text fill="#000000" font-family="sans-serif" font-size="13" lengthAdjust="spacing" textLength="252" x="219" y="1613.5576">Over here we must initialize an accumulator</text><text fill="#000000" font-family="sans-serif" font-size="13" lengthAdjust="spacing" textLength="207" x="219" y="1630.8486">variable that gets reset to 0 for each</text><text fill="#000000" font-family="sans-serif" font-size="13" lengthAdjust="spacing" textLength="230" x="219" y="1648.1396">ValuePS search. This variable holds the</text><text fill="#000000" font-family="sans-serif" font-size="13" lengthAdjust="spacing" textLength="218" x="219" y="1665.4307">sum of the ValueGP with the possible</text><text fill="#000000" font-family="sans-serif" font-size="13" lengthAdjust="spacing" textLength="225" x="219" y="1682.7217">ValuePS that are found within the delta</text><path d="M206,1702.9844 L279,1702.9844 L279,1712.2754 L269,1722.2754 L206,1722.2754 L206,1702.9844 " fill="#EEEEEE" style="stroke:#000000;stroke-width:1.5;"/><rect fill="none" height="240.0371" style="stroke:#000000;stroke-width:1.5;" width="722" x="206" y="1702.9844"/><text fill="#000000" font-family="sans-serif" font-size="13" font-weight="bold" lengthAdjust="spacing" textLength="28" x="221" y="1718.0127">loop</text><text fill="#000000" font-family="sans-serif" font-size="11" font-weight="bold" lengthAdjust="spacing" textLength="213" x="294" y="1716.8545">[for each ValuePS in powerSourceList]</text><line style="stroke:#181818;stroke-width:1.0;" x1="355" x2="397" y1="1745.5664" y2="1745.5664"/><line style="stroke:#181818;stroke-width:1.0;" x1="397" x2="397" y1="1745.5664" y2="1758.5664"/><line style="stroke:#181818;stroke-width:1.0;" x1="356" x2="397" y1="1758.5664" y2="1758.5664"/><polygon fill="#181818" points="366,1754.5664,356,1758.5664,366,1762.5664,362,1758.5664" style="stroke:#181818;stroke-width:1.0;"/><text fill="#000000" font-family="sans-serif" font-size="13" font-weight="bold" lengthAdjust="spacing" textLength="14" x="362" y="1740.3037">19</text><text fill="#000000" font-family="sans-serif" font-size="13" lengthAdjust="spacing" textLength="145" x="380" y="1740.3037">ValuePS.getTimestamp()</text><path d="M216,1771.5664 L216,1815.5664 L483,1815.5664 L483,1781.5664 L473,1771.5664 L216,1771.5664 " fill="#FEFFDD" style="stroke:#181818;stroke-width:0.5;"/><path d="M473,1771.5664 L473,1781.5664 L483,1781.5664 L473,1771.5664 " fill="#FEFFDD" style="stroke:#181818;stroke-width:0.5;"/><text fill="#000000" font-family="sans-serif" font-size="13" lengthAdjust="spacing" textLength="246" x="222" y="1790.5947">Compare the timestamps of the two values</text><text fill="#000000" font-family="sans-serif" font-size="13" lengthAdjust="spacing" textLength="188" x="222" y="1807.8857">to see if they are within the delta</text><path d="M274,1828.1484 L339,1828.1484 L339,1837.4395 L329,1847.4395 L274,1847.4395 L274,1828.1484 " fill="#EEEEEE" style="stroke:#000000;stroke-width:1.5;"/><rect fill="none" height="63.582" style="stroke:#000000;stroke-width:1.5;" width="644" x="274" y="1828.1484"/><text fill="#000000" font-family="sans-serif" font-size="13" font-weight="bold" lengthAdjust="spacing" textLength="20" x="289" y="1843.1768">opt</text><text fill="#000000" font-family="sans-serif" font-size="11" font-weight="bold" lengthAdjust="spacing" textLength="559" x="354" y="1842.0186">[if ValuePS.getTimestamp() &lt;= (ValueGP.getTimestamp() - delta) &amp;&amp; ValuePS.getTimestamp() &gt;= start]</text><line style="stroke:#181818;stroke-width:1.0;" x1="355" x2="397" y1="1870.7305" y2="1870.7305"/><line style="stroke:#181818;stroke-width:1.0;" x1="397" x2="397" y1="1870.7305" y2="1883.7305"/><line style="stroke:#181818;stroke-width:1.0;" x1="356" x2="397" y1="1883.7305" y2="1883.7305"/><polygon fill="#181818" points="366,1879.7305,356,1883.7305,366,1887.7305,362,1883.7305" style="stroke:#181818;stroke-width:1.0;"/><text fill="#000000" font-family="sans-serif" font-size="13" font-weight="bold" lengthAdjust="spacing" textLength="14" x="362" y="1865.4678">20</text><text fill="#000000" font-family="sans-serif" font-size="13" lengthAdjust="spacing" textLength="332" x="380" y="1865.4678">accumulator += ValuePS.getReading().getMeasurement()</text><line style="stroke:#181818;stroke-width:1.0;" x1="355" x2="397" y1="1922.0215" y2="1922.0215"/><line style="stroke:#181818;stroke-width:1.0;" x1="397" x2="397" y1="1922.0215" y2="1935.0215"/><line style="stroke:#181818;stroke-width:1.0;" x1="356" x2="397" y1="1935.0215" y2="1935.0215"/><polygon fill="#181818" points="366,1931.0215,356,1935.0215,366,1939.0215,362,1935.0215" style="stroke:#181818;stroke-width:1.0;"/><text fill="#000000" font-family="sans-serif" font-size="13" font-weight="bold" lengthAdjust="spacing" textLength="14" x="362" y="1916.7588">21</text><text fill="#000000" font-family="sans-serif" font-size="13" lengthAdjust="spacing" textLength="333" x="380" y="1916.7588">accumulator += ValueGP.getReading().getMeasurement()</text><polygon fill="#181818" points="1459,1969.3125,1469,1973.3125,1459,1977.3125,1463,1973.3125" style="stroke:#181818;stroke-width:1.0;"/><line style="stroke:#181818;stroke-width:1.0;" x1="355" x2="1465" y1="1973.3125" y2="1973.3125"/><text fill="#000000" font-family="sans-serif" font-size="13" font-weight="bold" lengthAdjust="spacing" textLength="14" x="362" y="1968.0498">22</text><text fill="#000000" font-family="sans-serif" font-size="13" lengthAdjust="spacing" textLength="251" x="380" y="1968.0498">put(ValueGP.getTimestamp(), accumulator)</text><path d="M123,2023.3125 L123,2119.3125 L576,2119.3125 L576,2033.3125 L566,2023.3125 L123,2023.3125 " fill="#FEFFDD" style="stroke:#181818;stroke-width:0.5;"/><path d="M566,2023.3125 L566,2033.3125 L576,2033.3125 L566,2023.3125 " fill="#FEFFDD" style="stroke:#181818;stroke-width:0.5;"/><text fill="#000000" font-family="sans-serif" font-size="13" lengthAdjust="spacing" textLength="41" x="129" y="2042.3408">Check:</text><text fill="#000000" font-family="sans-serif" font-size="13" lengthAdjust="spacing" textLength="392" x="145" y="2059.6318">Optional&lt;Entry&lt;Timestamp, Reading&gt;&gt; maxEntry = map.entrySet()</text><text fill="#000000" font-family="sans-serif" font-size="13" lengthAdjust="spacing" textLength="52" x="177" y="2076.9229">.stream()</text><text fill="#000000" font-family="sans-serif" font-size="13" lengthAdjust="spacing" textLength="384" x="177" y="2094.2139">.max(Comparator.comparing(entry -&gt; entry.getValue().getValue()));</text><text fill="#000000" font-family="sans-serif" font-size="13" lengthAdjust="spacing" textLength="340" x="129" y="2111.5049">To find highest entry in map based on value content of Map</text><path d="M221,2129.7676 L221,2225.7676 L479,2225.7676 L479,2139.7676 L469,2129.7676 L221,2129.7676 " fill="#FEFFDD" style="stroke:#181818;stroke-width:0.5;"/><path d="M469,2129.7676 L469,2139.7676 L479,2139.7676 L469,2129.7676 " fill="#FEFFDD" style="stroke:#181818;stroke-width:0.5;"/><text fill="#000000" font-family="sans-serif" font-size="13" lengthAdjust="spacing" textLength="180" x="227" y="2148.7959">Search the final map/list for the</text><text fill="#000000" font-family="sans-serif" font-size="13" lengthAdjust="spacing" textLength="222" x="227" y="2166.0869">max value (measurement) and return it</text><text fill="#000000" font-family="sans-serif" font-size="13" lengthAdjust="spacing" textLength="195" x="227" y="2183.3779">to controller (Can be modularized)</text><text fill="#000000" font-family="sans-serif" font-size="13" lengthAdjust="spacing" textLength="237" x="227" y="2200.6689">We have a map but lets assume its a list</text><text fill="#000000" font-family="sans-serif" font-size="13" lengthAdjust="spacing" textLength="225" x="227" y="2217.96">of measurements (ints) since its easier</text><line style="stroke:#181818;stroke-width:1.0;" x1="355" x2="402" y1="2249.5137" y2="2249.5137"/><line style="stroke:#181818;stroke-width:1.0;" x1="402" x2="402" y1="2249.5137" y2="2262.5137"/><line style="stroke:#181818;stroke-width:1.0;" x1="361" x2="402" y1="2262.5137" y2="2262.5137"/><polygon fill="#181818" points="371,2258.5137,361,2262.5137,371,2266.5137,367,2262.5137" style="stroke:#181818;stroke-width:1.0;"/><text fill="#000000" font-family="sans-serif" font-size="13" font-weight="bold" lengthAdjust="spacing" textLength="14" x="367" y="2244.251">23</text><text fill="#000000" font-family="sans-serif" font-size="13" lengthAdjust="spacing" textLength="226" x="385" y="2244.251">findMaxValueInMap(deltaPeriodValues)</text><path d="M264,2280.5137 L264,2307.5137 L436,2307.5137 L436,2290.5137 L426,2280.5137 L264,2280.5137 " fill="#FEFFDD" style="stroke:#181818;stroke-width:0.5;"/><path d="M426,2280.5137 L426,2290.5137 L436,2290.5137 L426,2280.5137 " fill="#FEFFDD" style="stroke:#181818;stroke-width:0.5;"/><text fill="#000000" font-family="sans-serif" font-size="13" lengthAdjust="spacing" textLength="151" x="270" y="2299.542">Start an max variable as 0</text><path d="M264,2319.8047 L337,2319.8047 L337,2329.0957 L327,2339.0957 L264,2339.0957 L264,2319.8047 " fill="#EEEEEE" style="stroke:#000000;stroke-width:1.5;"/><rect fill="none" height="96.873" style="stroke:#000000;stroke-width:1.5;" width="477" x="264" y="2319.8047"/><text fill="#000000" font-family="sans-serif" font-size="13" font-weight="bold" lengthAdjust="spacing" textLength="28" x="279" y="2334.833">loop</text><text fill="#000000" font-family="sans-serif" font-size="11" font-weight="bold" lengthAdjust="spacing" textLength="384" x="352" y="2333.6748">[for each Value.getReading().getMeasurement() in deltaPeriodValues]</text><path d="M274,2346.0957 L339,2346.0957 L339,2355.3867 L329,2365.3867 L274,2365.3867 L274,2346.0957 " fill="#EEEEEE" style="stroke:#000000;stroke-width:1.5;"/><rect fill="none" height="63.582" style="stroke:#000000;stroke-width:1.5;" width="352" x="274" y="2346.0957"/><text fill="#000000" font-family="sans-serif" font-size="13" font-weight="bold" lengthAdjust="spacing" textLength="20" x="289" y="2361.124">opt</text><text fill="#000000" font-family="sans-serif" font-size="11" font-weight="bold" lengthAdjust="spacing" textLength="132" x="354" y="2359.9658">[if measurement &gt; max]</text><line style="stroke:#181818;stroke-width:1.0;" x1="360" x2="402" y1="2388.6777" y2="2388.6777"/><line style="stroke:#181818;stroke-width:1.0;" x1="402" x2="402" y1="2388.6777" y2="2401.6777"/><line style="stroke:#181818;stroke-width:1.0;" x1="361" x2="402" y1="2401.6777" y2="2401.6777"/><polygon fill="#181818" points="371,2397.6777,361,2401.6777,371,2405.6777,367,2401.6777" style="stroke:#181818;stroke-width:1.0;"/><text fill="#000000" font-family="sans-serif" font-size="13" font-weight="bold" lengthAdjust="spacing" textLength="14" x="367" y="2383.415">24</text><text fill="#000000" font-family="sans-serif" font-size="13" lengthAdjust="spacing" textLength="229" x="385" y="2383.415">max = deltaPeriodValues.measurement</text><polygon fill="#181818" points="228,2442.9688,218,2446.9688,228,2450.9688,224,2446.9688" style="stroke:#181818;stroke-width:1.0;"/><line style="stroke:#181818;stroke-width:1.0;stroke-dasharray:2.0,2.0;" x1="222" x2="349" y1="2446.9688" y2="2446.9688"/><text fill="#000000" font-family="sans-serif" font-size="13" font-weight="bold" lengthAdjust="spacing" textLength="14" x="234" y="2441.7061">25</text><text fill="#000000" font-family="sans-serif" font-size="13" lengthAdjust="spacing" textLength="25" x="252" y="2441.7061">max</text><ellipse cx="7.5" cy="2477.5098" fill="none" rx="4" ry="4" style="stroke:#181818;stroke-width:1.5;"/><polygon fill="#181818" points="24.5,2474.2598,14.5,2478.2598,24.5,2482.2598,20.5,2478.2598" style="stroke:#181818;stroke-width:1.0;"/><line style="stroke:#181818;stroke-width:1.0;stroke-dasharray:2.0,2.0;" x1="22.5" x2="211" y1="2478.2598" y2="2478.2598"/><text fill="#000000" font-family="sans-serif" font-size="13" font-weight="bold" lengthAdjust="spacing" textLength="14" x="25" y="2472.9971">26</text><text fill="#000000" font-family="sans-serif" font-size="13" lengthAdjust="spacing" textLength="113" x="43" y="2472.9971">max, HTTP 200 OK</text><!--SRC=[hLZVSzis4dxNNx6JXrhgsKekIVkWipsZIBJ4YIIg8krCfdc19SZYXI8r96JNxVH_lzq5G88qvLxdJcFFaCJY0_RNjmkeM2KIRaSVVeOBc4W5Ioc-mp9xaZciixGuxWygpbB8jg1s4gRPiP0Gfo3W8NwKAHna7cURJaSSLPOUz_SoxtGE8bVnEZw8LC6REv4SvIXBLPubYSpVW2W8sBpMPMbjNZgK-MEybYnSwEUwP2ZJ8ijNyf0LiShoPvRCyLKFDFRmaCSRnkND50EOnOMwv9ThdbaAq42dJOEMfVXxNVJ0cy-E-LgUMieHqOlL03OoKMB9DZq5u8XeWBFG6qL-i81_3c0QHKkOU16il5zklJ22AE3NfJVy3ClWYxU2uM8Ces0HhOBP35z7mzdCNqmWz5Pt_iWxw_oQNLmx7e810xmzMD-y_QDGkEK_t_uXqysV7R5MyQDGqdMgCnknZ0CHw46gqiNTRsaKxoLYxG_0YEVVKgW-8NYl0hT1SERXxajzpnpbtm-i2gLAAsyPX7uKhBvQCuJU8WnMyCcR1Oi9YU3tiSUJ_3767njeilB7RyuwPvyzRmd1OeQpfvwT-iMFfd1pk-15XpC_-aepQu2tuVkVsCgq8asT-UY8u0RkXZFq2KFu2tJ9oW_6PvqqG_soHxILLHBmDvMvX2VyYvC4jd6w0O4F1KTtWQae58l1lKooz05KnkcvaMpfkYumzo9lzKRB1ri68W3OYsUSJnDpUKwBPMdo34yOY5gM4BDKwkLW9nubfltscAw94KGIgsTQ2Pc1DEwWmu1qwLX_e-khZ4JlanQVdiUyHN_yBUtQHyVFJWexSozgKSGPDC6C3OqrE4FqotLd8zl0JbZv2uOjcKF0FjiS4v77lyiDT0yv0_HWBzKEsOr4aVFMYIYCCTWjkLHvB1-DtSXQR0YIrew2RPxjUI31BPAbZ0DRZMKUEKq8I6_z1Y58mMvJxPRiAC5Sj6FXGYqjYcieE_yLA-MI18LM1ADjboKw91-PfbYkr9QtogHg5Ew39zOxD437n1KM4JrHMr978VmRgmqARH4WDa6uHIlIq3hR8r76XIv5PgvTa2LrpTBCscPWj4cDvd_ySG2Nbrgnulgw6RRCk6NKQWFwuqzIFKcPQleDjaHN6CY56JqtHDOWhwfOLC3ra7OulXd0UgApkPeI0n2RpJ19kWw2itAzhZd8zO4QgxvtMVN305aqMldUdGV8gfR2ekamWkdmpj9YdH2RRFWHoPJuq4mUhZpBWHF_phDC2DqljCRA6uw_QcmK2OcyfZY8maJdlRFJCVg29PzYjMlmbIQhZpn5e3W6Jyen9Ya-ImGJNnWR6qQ9KnkujRQ78R0lK9fJC-8HWKJ1IT95rBquzFw26EiHTkFkbacozVlVOSp1_y2FZMP59-l9rFylxDwQberLced92rGHsSSsvmOhiJSSJMrLRejH4sAHF_TiX54G3iTOSnaHI_ES8fHAzDoR37MT3ld3LsmY5XZ8C1j6r2G5yoM6hPcPPDcX2XfZSNHxpSvWVlztMh70BInXXqxH3CLbiDMDPR3LYtzBNVAn2AqarA9ImtKb7RMjrBBrPZFSidoR2Df1kz3bBGoCipgJVN2PxEC0V7GbkXFzkmfk9zEIZt3AZL_namcSiJUBXjYs4IY5cjDGcQXZ-LS8YRCbLZ8N-X_v8y-E3piTDvmzO9YbSKBfmuqDBzi35bBawrr9GozE6ffqA2eDUPKzeg1EaadCz8XuVh3dERs9Uncd3uOJHVACFL0VkYEHKbrs6gDUlwOPSoSU44r3YJQuLyX-s40jmxkA6fxYdT8b_9Zd4WyvawMEJIRFez8DbShq-f3A9w9DfytIZMS1twLkij3xb20iNvqNZ48CFLbgbKfrQ2sDNnYLIPRsRgRjfIYEkTpZ_WhJKrkJcDRQ0WjJ8f3sY_W-CGFBiBAtQQiTa-jZtPl67YiohB5XutptWWthx6EtXIirOgZJIDMo79WfVMmpFMrAjc1NvsTxDFFHWJxkpBbaVyHeYzDOnKZmlvCpCQlNnpt62XwIopcF63c2hCJkn1Mfg1QIMyXtfHQbkBMb3lO-HBkug32ey1HblyVgLHwqXk3YepD4E-W5E6-5acAR7TFDYzIm36DSyvBmBGvEEiLV9ys-3CdiJPk_RdVwZRZzrM6hxEp2wgwUChSOsn_Qk918CIpqtCe3fNofiFsG7HJDRDyrN5v1ruaZT-X28_VWXnzEpRw-qXMjjjiscpaX1V-uSk5Ms9fXXdPxz3AlijUngAqIVmTSg_CNu1RO0MqaxO28xOI1pjs5DM1Px9ftEurQs1ocZTGgtaUtult4lVljQg4xdE6IxY2e7GgZuNp9PI-ydJiN4sKX9FcfFvcYvAdoDjh9zVT1nGq7tUjTUgdAdozBTS_1sFBw6ddnDnw5AoBulgJdKBeUixz-eP3lzcqZ2DBLoK3cwvjZ8VgAuSWL_40sP_Dh7vh7NkzVkcfakjNVnGzu55Lw2kKp5PvxKM31m7EcBXHqbqLL2rDjBWuLPxUR9MJYulp25KH2Y6_Bocof2vKmw5sdyFIujkHI7VCKsmPRV9pBjBQQR4kokPvX3R2e9aIrea22H0AWH-uFM1WrgPMxBfwrYnuKSRhMiZWOo_prEmgotrpyneRrKxHCzyNLPSi5nGcZ4HTG1T5sCMoFfVfTjOSM2duzKycTBxRKSPZDiG5mSBvA5hIrgvU0VGUbv0RwRxbTSOjyvLI6RXF_DRkykAXVnABakRxYVV_k7GIVtMdEzUj_0000]--></g></svg>