<?xml version="1.0" encoding="us-ascii" standalone="no"?><svg xmlns="http://www.w3.org/2000/svg" xmlns:xlink="http://www.w3.org/1999/xlink" contentStyleType="text/css" height="1480px" preserveAspectRatio="none" style="width:2698px;height:1480px;background:#FFFFFF;" version="1.1" viewBox="0 0 2698 1480" width="2698px" zoomAndPan="magnify"><defs/><g><text fill="#000000" font-family="sans-serif" font-size="14" font-weight="bold" lengthAdjust="spacing" textLength="240" x="1230.5" y="30.1074">UC37.2 - Close Blind Roller Device</text><rect fill="#FFFFFF" height="1224.3496" style="stroke:#181818;stroke-width:1.0;" width="10" x="304" y="182.0273"/><rect fill="#FFFFFF" height="187.4063" style="stroke:#181818;stroke-width:1.0;" width="10" x="830" y="319.1816"/><rect fill="#FFFFFF" height="441.7246" style="stroke:#181818;stroke-width:1.0;" width="10" x="978.5" y="555.1699"/><rect fill="#FFFFFF" height="331.9004" style="stroke:#181818;stroke-width:1.0;" width="10" x="978.5" y="1043.1855"/><rect fill="#FFFFFF" height="31.291" style="stroke:#181818;stroke-width:1.0;" width="10" x="1319.5" y="350.4727"/><rect fill="#FFFFFF" height="52.2422" style="stroke:#181818;stroke-width:1.0;" width="10" x="1458" y="423.0547"/><rect fill="#FFFFFF" height="31.291" style="stroke:#181818;stroke-width:1.0;" width="10" x="1597.5" y="603.752"/><rect fill="#FFFFFF" height="33.6211" style="stroke:#181818;stroke-width:1.0;" width="10" x="1807" y="676.334"/><rect fill="#FFFFFF" height="31.291" style="stroke:#181818;stroke-width:1.0;" width="10" x="2048.5" y="741.2461"/><rect fill="#FFFFFF" height="52.2422" style="stroke:#181818;stroke-width:1.0;" width="10" x="2194" y="813.8281"/><rect fill="#FFFFFF" height="52.2422" style="stroke:#181818;stroke-width:1.0;" width="10" x="2288.5" y="907.3613"/><rect fill="#FFFFFF" height="31.291" style="stroke:#181818;stroke-width:1.0;" width="10" x="2397.5" y="1079.4766"/><rect fill="#FFFFFF" height="33.6211" style="stroke:#181818;stroke-width:1.0;" width="10" x="2495.5" y="1178.3496"/><rect fill="#FFFFFF" height="31.291" style="stroke:#181818;stroke-width:1.0;" width="10" x="2609" y="1312.5039"/><rect fill="none" height="156.4453" style="stroke:#000000;stroke-width:1.5;" width="1803" x="889" y="1125.7676"/><line style="stroke:#181818;stroke-width:0.5;stroke-dasharray:5.0,5.0;" x1="309" x2="309" y1="96.8633" y2="1424.377"/><line style="stroke:#181818;stroke-width:0.5;stroke-dasharray:5.0,5.0;" x1="490" x2="490" y1="221.8379" y2="1424.377"/><line style="stroke:#181818;stroke-width:0.5;stroke-dasharray:5.0,5.0;" x1="676" x2="676" y1="274.7695" y2="1424.377"/><line style="stroke:#181818;stroke-width:0.5;stroke-dasharray:5.0,5.0;" x1="835" x2="835" y1="96.8633" y2="1424.377"/><line style="stroke:#181818;stroke-width:0.5;stroke-dasharray:5.0,5.0;" x1="983" x2="983" y1="96.8633" y2="1424.377"/><line style="stroke:#181818;stroke-width:0.5;stroke-dasharray:5.0,5.0;" x1="1324" x2="1324" y1="96.8633" y2="1424.377"/><line style="stroke:#181818;stroke-width:0.5;stroke-dasharray:5.0,5.0;" x1="1463" x2="1463" y1="430.8848" y2="1424.377"/><line style="stroke:#181818;stroke-width:0.5;stroke-dasharray:5.0,5.0;" x1="1602" x2="1602" y1="96.8633" y2="1424.377"/><line style="stroke:#181818;stroke-width:0.5;stroke-dasharray:5.0,5.0;" x1="1812" x2="1812" y1="674.8535" y2="1424.377"/><line style="stroke:#181818;stroke-width:0.5;stroke-dasharray:5.0,5.0;" x1="2053" x2="2053" y1="96.8633" y2="1424.377"/><line style="stroke:#181818;stroke-width:0.5;stroke-dasharray:5.0,5.0;" x1="2199" x2="2199" y1="821.6582" y2="1424.377"/><line style="stroke:#181818;stroke-width:0.5;stroke-dasharray:5.0,5.0;" x1="2293" x2="2293" y1="915.1914" y2="1424.377"/><line style="stroke:#181818;stroke-width:0.5;stroke-dasharray:5.0,5.0;" x1="2402" x2="2402" y1="96.8633" y2="1424.377"/><line style="stroke:#181818;stroke-width:0.5;stroke-dasharray:5.0,5.0;" x1="2500" x2="2500" y1="1176.8691" y2="1424.377"/><line style="stroke:#181818;stroke-width:0.5;stroke-dasharray:5.0,5.0;" x1="2614" x2="2614" y1="1261.0918" y2="1424.377"/><rect fill="#E2E2F0" height="32.6211" rx="2.5" ry="2.5" style="stroke:#181818;stroke-width:0.5;" width="152" x="233" y="63.2422"/><text fill="#000000" font-family="sans-serif" font-size="14" lengthAdjust="spacing" textLength="138" x="240" y="85.3496">:DeviceControllerWeb</text><rect fill="#E2E2F0" height="32.6211" rx="2.5" ry="2.5" style="stroke:#181818;stroke-width:0.5;" width="152" x="233" y="1423.377"/><text fill="#000000" font-family="sans-serif" font-size="14" lengthAdjust="spacing" textLength="138" x="240" y="1445.4844">:DeviceControllerWeb</text><rect fill="#E2E2F0" height="32.6211" rx="2.5" ry="2.5" style="stroke:#181818;stroke-width:0.5;" width="163" x="409" y="1423.377"/><text fill="#000000" font-family="sans-serif" font-size="14" lengthAdjust="spacing" textLength="149" x="416" y="1445.4844">chosenDevice:DeviceID</text><rect fill="#E2E2F0" height="51.2422" rx="2.5" ry="2.5" style="stroke:#181818;stroke-width:0.5;" width="189" x="582" y="1423.377"/><text fill="#000000" font-family="sans-serif" font-size="14" lengthAdjust="spacing" textLength="175" x="589" y="1445.4844">chosenSensorFunctionality:</text><text fill="#000000" font-family="sans-serif" font-size="14" lengthAdjust="spacing" textLength="138" x="607.5" y="1464.1055">SensorFunctionalityID</text><rect fill="#E2E2F0" height="32.6211" rx="2.5" ry="2.5" style="stroke:#181818;stroke-width:0.5;" width="108" x="781" y="63.2422"/><text fill="#000000" font-family="sans-serif" font-size="14" lengthAdjust="spacing" textLength="94" x="788" y="85.3496">:DeviceService</text><rect fill="#E2E2F0" height="32.6211" rx="2.5" ry="2.5" style="stroke:#181818;stroke-width:0.5;" width="108" x="781" y="1423.377"/><text fill="#000000" font-family="sans-serif" font-size="14" lengthAdjust="spacing" textLength="94" x="788" y="1445.4844">:DeviceService</text><rect fill="#E2E2F0" height="32.6211" rx="2.5" ry="2.5" style="stroke:#181818;stroke-width:0.5;" width="169" x="899" y="63.2422"/><text fill="#000000" font-family="sans-serif" font-size="14" lengthAdjust="spacing" textLength="155" x="906" y="85.3496">:CloseBlindRollerService</text><rect fill="#E2E2F0" height="32.6211" rx="2.5" ry="2.5" style="stroke:#181818;stroke-width:0.5;" width="169" x="899" y="1423.377"/><text fill="#000000" font-family="sans-serif" font-size="14" lengthAdjust="spacing" textLength="155" x="906" y="1445.4844">:CloseBlindRollerService</text><rect fill="#E2E2F0" height="32.6211" rx="2.5" ry="2.5" style="stroke:#181818;stroke-width:0.5;" width="129" x="1260" y="63.2422"/><text fill="#000000" font-family="sans-serif" font-size="14" lengthAdjust="spacing" textLength="115" x="1267" y="85.3496">:DeviceRepository</text><rect fill="#E2E2F0" height="32.6211" rx="2.5" ry="2.5" style="stroke:#181818;stroke-width:0.5;" width="129" x="1260" y="1423.377"/><text fill="#000000" font-family="sans-serif" font-size="14" lengthAdjust="spacing" textLength="115" x="1267" y="1445.4844">:DeviceRepository</text><rect fill="#E2E2F0" height="51.2422" rx="2.5" ry="2.5" style="stroke:#181818;stroke-width:0.5;" width="128" x="1399" y="1423.377"/><text fill="#000000" font-family="sans-serif" font-size="14" lengthAdjust="spacing" textLength="114" x="1406" y="1445.4844">blindRollerDevice:</text><text fill="#000000" font-family="sans-serif" font-size="14" lengthAdjust="spacing" textLength="43" x="1441.5" y="1464.1055">Device</text><rect fill="#E2E2F0" height="32.6211" rx="2.5" ry="2.5" style="stroke:#181818;stroke-width:0.5;" width="131" x="1537" y="63.2422"/><text fill="#000000" font-family="sans-serif" font-size="14" lengthAdjust="spacing" textLength="117" x="1544" y="85.3496">:SensorRepository</text><rect fill="#E2E2F0" height="32.6211" rx="2.5" ry="2.5" style="stroke:#181818;stroke-width:0.5;" width="131" x="1537" y="1423.377"/><text fill="#000000" font-family="sans-serif" font-size="14" lengthAdjust="spacing" textLength="117" x="1544" y="1445.4844">:SensorRepository</text><rect fill="#E2E2F0" height="32.6211" rx="2.5" ry="2.5" style="stroke:#181818;stroke-width:0.5;" width="268" x="1678" y="1423.377"/><text fill="#000000" font-family="sans-serif" font-size="14" lengthAdjust="spacing" textLength="254" x="1685" y="1445.4844">listOfSensorsOfDevice:Iterable&lt;Sensor&gt;</text><rect fill="#E2E2F0" height="32.6211" rx="2.5" ry="2.5" style="stroke:#181818;stroke-width:0.5;" width="195" x="1956" y="63.2422"/><text fill="#000000" font-family="sans-serif" font-size="14" lengthAdjust="spacing" textLength="181" x="1963" y="85.3496">:InstantTimeValueRepository</text><rect fill="#E2E2F0" height="32.6211" rx="2.5" ry="2.5" style="stroke:#181818;stroke-width:0.5;" width="195" x="1956" y="1423.377"/><text fill="#000000" font-family="sans-serif" font-size="14" lengthAdjust="spacing" textLength="181" x="1963" y="1445.4844">:InstantTimeValueRepository</text><rect fill="#E2E2F0" height="51.2422" rx="2.5" ry="2.5" style="stroke:#181818;stroke-width:0.5;" width="76" x="2161" y="1423.377"/><text fill="#000000" font-family="sans-serif" font-size="14" lengthAdjust="spacing" textLength="62" x="2168" y="1445.4844">lastValue:</text><text fill="#000000" font-family="sans-serif" font-size="14" lengthAdjust="spacing" textLength="36" x="2181" y="1464.1055">Value</text><rect fill="#E2E2F0" height="51.2422" rx="2.5" ry="2.5" style="stroke:#181818;stroke-width:0.5;" width="93" x="2247" y="1423.377"/><text fill="#000000" font-family="sans-serif" font-size="14" lengthAdjust="spacing" textLength="79" x="2254" y="1445.4844">lastReading:</text><text fill="#000000" font-family="sans-serif" font-size="14" lengthAdjust="spacing" textLength="53" x="2267" y="1464.1055">Reading</text><rect fill="#E2E2F0" height="32.6211" rx="2.5" ry="2.5" style="stroke:#181818;stroke-width:0.5;" width="105" x="2350" y="63.2422"/><text fill="#000000" font-family="sans-serif" font-size="14" lengthAdjust="spacing" textLength="91" x="2357" y="85.3496">:ActuatorRepo</text><rect fill="#E2E2F0" height="32.6211" rx="2.5" ry="2.5" style="stroke:#181818;stroke-width:0.5;" width="105" x="2350" y="1423.377"/><text fill="#000000" font-family="sans-serif" font-size="14" lengthAdjust="spacing" textLength="91" x="2357" y="1445.4844">:ActuatorRepo</text><rect fill="#E2E2F0" height="32.6211" rx="2.5" ry="2.5" style="stroke:#181818;stroke-width:0.5;" width="71" x="2465" y="1423.377"/><text fill="#000000" font-family="sans-serif" font-size="14" lengthAdjust="spacing" textLength="57" x="2472" y="1445.4844">:Actuator</text><rect fill="#E2E2F0" height="51.2422" rx="2.5" ry="2.5" style="stroke:#181818;stroke-width:0.5;" width="136" x="2546" y="1423.377"/><text fill="#000000" font-family="sans-serif" font-size="14" lengthAdjust="spacing" textLength="103" x="2562.5" y="1445.4844">chosenActuator:</text><text fill="#000000" font-family="sans-serif" font-size="14" lengthAdjust="spacing" textLength="122" x="2553" y="1464.1055">BlindSetterActuator</text><rect fill="#FFFFFF" height="1224.3496" style="stroke:#181818;stroke-width:1.0;" width="10" x="304" y="182.0273"/><rect fill="#FFFFFF" height="187.4063" style="stroke:#181818;stroke-width:1.0;" width="10" x="830" y="319.1816"/><rect fill="#FFFFFF" height="441.7246" style="stroke:#181818;stroke-width:1.0;" width="10" x="978.5" y="555.1699"/><rect fill="#FFFFFF" height="331.9004" style="stroke:#181818;stroke-width:1.0;" width="10" x="978.5" y="1043.1855"/><rect fill="#FFFFFF" height="31.291" style="stroke:#181818;stroke-width:1.0;" width="10" x="1319.5" y="350.4727"/><rect fill="#FFFFFF" height="52.2422" style="stroke:#181818;stroke-width:1.0;" width="10" x="1458" y="423.0547"/><rect fill="#FFFFFF" height="31.291" style="stroke:#181818;stroke-width:1.0;" width="10" x="1597.5" y="603.752"/><rect fill="#FFFFFF" height="33.6211" style="stroke:#181818;stroke-width:1.0;" width="10" x="1807" y="676.334"/><rect fill="#FFFFFF" height="31.291" style="stroke:#181818;stroke-width:1.0;" width="10" x="2048.5" y="741.2461"/><rect fill="#FFFFFF" height="52.2422" style="stroke:#181818;stroke-width:1.0;" width="10" x="2194" y="813.8281"/><rect fill="#FFFFFF" height="52.2422" style="stroke:#181818;stroke-width:1.0;" width="10" x="2288.5" y="907.3613"/><rect fill="#FFFFFF" height="31.291" style="stroke:#181818;stroke-width:1.0;" width="10" x="2397.5" y="1079.4766"/><rect fill="#FFFFFF" height="33.6211" style="stroke:#181818;stroke-width:1.0;" width="10" x="2495.5" y="1178.3496"/><rect fill="#FFFFFF" height="31.291" style="stroke:#181818;stroke-width:1.0;" width="10" x="2609" y="1312.5039"/><polygon fill="#181818" points="292,178.0273,302,182.0273,292,186.0273,296,182.0273" style="stroke:#181818;stroke-width:1.0;"/><line style="stroke:#181818;stroke-width:1.0;" x1="0" x2="298" y1="182.0273" y2="182.0273"/><text fill="#000000" font-family="sans-serif" font-size="13" font-weight="bold" lengthAdjust="spacing" textLength="7" x="7" y="150.8281">1</text><text fill="#000000" font-family="sans-serif" font-size="13" lengthAdjust="spacing" textLength="131" x="18" y="124.8916">closeBlindRollerDevice</text><text fill="#000000" font-family="sans-serif" font-size="13" lengthAdjust="spacing" textLength="213" x="18" y="142.1826">(@PathVariable("id") String deviceID,</text><text fill="#000000" font-family="sans-serif" font-size="13" lengthAdjust="spacing" textLength="270" x="18" y="159.4736">@RequestParam String sensorFunctionalityID,</text><text fill="#000000" font-family="sans-serif" font-size="13" lengthAdjust="spacing" textLength="226" x="18" y="176.7646">@RequestParam int closePercentage )</text><polygon fill="#181818" points="397,209.3184,407,213.3184,397,217.3184,401,213.3184" style="stroke:#181818;stroke-width:1.0;"/><line style="stroke:#181818;stroke-width:1.0;" x1="314" x2="403" y1="213.3184" y2="213.3184"/><text fill="#000000" font-family="sans-serif" font-size="13" font-weight="bold" lengthAdjust="spacing" textLength="7" x="321" y="208.0557">2</text><text fill="#000000" font-family="sans-serif" font-size="13" lengthAdjust="spacing" textLength="60" x="332" y="208.0557">&lt;&lt;create&gt;</text><rect fill="#E2E2F0" height="32.6211" rx="2.5" ry="2.5" style="stroke:#181818;stroke-width:0.5;" width="163" x="409" y="190.0273"/><text fill="#000000" font-family="sans-serif" font-size="14" lengthAdjust="spacing" textLength="149" x="416" y="212.1348">chosenDevice:DeviceID</text><polygon fill="#181818" points="570,252.9395,580,256.9395,570,260.9395,574,256.9395" style="stroke:#181818;stroke-width:1.0;"/><line style="stroke:#181818;stroke-width:1.0;" x1="314" x2="576" y1="256.9395" y2="256.9395"/><text fill="#000000" font-family="sans-serif" font-size="13" font-weight="bold" lengthAdjust="spacing" textLength="7" x="321" y="251.6768">3</text><text fill="#000000" font-family="sans-serif" font-size="13" lengthAdjust="spacing" textLength="60" x="332" y="251.6768">&lt;&lt;create&gt;</text><rect fill="#E2E2F0" height="51.2422" rx="2.5" ry="2.5" style="stroke:#181818;stroke-width:0.5;" width="189" x="582" y="233.6484"/><text fill="#000000" font-family="sans-serif" font-size="14" lengthAdjust="spacing" textLength="175" x="589" y="255.7559">chosenSensorFunctionality:</text><text fill="#000000" font-family="sans-serif" font-size="14" lengthAdjust="spacing" textLength="138" x="607.5" y="274.377">SensorFunctionalityID</text><polygon fill="#181818" points="818,315.1816,828,319.1816,818,323.1816,822,319.1816" style="stroke:#181818;stroke-width:1.0;"/><line style="stroke:#181818;stroke-width:1.0;" x1="314" x2="824" y1="319.1816" y2="319.1816"/><text fill="#000000" font-family="sans-serif" font-size="13" font-weight="bold" lengthAdjust="spacing" textLength="7" x="321" y="313.9189">4</text><text fill="#000000" font-family="sans-serif" font-size="13" lengthAdjust="spacing" textLength="212" x="332" y="313.9189">checkIfDeviceIsActive(chosenDevice)</text><polygon fill="#181818" points="1307.5,346.4727,1317.5,350.4727,1307.5,354.4727,1311.5,350.4727" style="stroke:#181818;stroke-width:1.0;"/><line style="stroke:#181818;stroke-width:1.0;" x1="840" x2="1313.5" y1="350.4727" y2="350.4727"/><text fill="#000000" font-family="sans-serif" font-size="13" font-weight="bold" lengthAdjust="spacing" textLength="7" x="847" y="345.21">5</text><text fill="#000000" font-family="sans-serif" font-size="13" lengthAdjust="spacing" textLength="170" x="858" y="345.21">findEntityByID(chosenDevice)</text><polygon fill="#181818" points="851,377.7637,841,381.7637,851,385.7637,847,381.7637" style="stroke:#181818;stroke-width:1.0;"/><line style="stroke:#181818;stroke-width:1.0;stroke-dasharray:2.0,2.0;" x1="845" x2="1323.5" y1="381.7637" y2="381.7637"/><text fill="#000000" font-family="sans-serif" font-size="13" font-weight="bold" lengthAdjust="spacing" textLength="7" x="857" y="376.501">6</text><text fill="#000000" font-family="sans-serif" font-size="13" lengthAdjust="spacing" textLength="204" x="868" y="376.501">blindRollerDevice:Optional&lt;Device&gt;</text><polygon fill="#181818" points="1387,409.0547,1397,413.0547,1387,417.0547,1391,413.0547" style="stroke:#181818;stroke-width:1.0;"/><line style="stroke:#181818;stroke-width:1.0;" x1="840" x2="1393" y1="413.0547" y2="413.0547"/><text fill="#000000" font-family="sans-serif" font-size="13" font-weight="bold" lengthAdjust="spacing" textLength="7" x="847" y="407.792">7</text><text fill="#000000" font-family="sans-serif" font-size="13" lengthAdjust="spacing" textLength="102" x="858" y="407.792">getDeviceStatus()</text><rect fill="#E2E2F0" height="51.2422" rx="2.5" ry="2.5" style="stroke:#181818;stroke-width:0.5;" width="128" x="1399" y="389.7637"/><text fill="#000000" font-family="sans-serif" font-size="14" lengthAdjust="spacing" textLength="114" x="1406" y="411.8711">blindRollerDevice:</text><text fill="#000000" font-family="sans-serif" font-size="14" lengthAdjust="spacing" textLength="43" x="1441.5" y="430.4922">Device</text><polygon fill="#181818" points="851,471.2969,841,475.2969,851,479.2969,847,475.2969" style="stroke:#181818;stroke-width:1.0;"/><line style="stroke:#181818;stroke-width:1.0;stroke-dasharray:2.0,2.0;" x1="845" x2="1462" y1="475.2969" y2="475.2969"/><text fill="#000000" font-family="sans-serif" font-size="13" font-weight="bold" lengthAdjust="spacing" textLength="7" x="857" y="470.0342">8</text><text fill="#000000" font-family="sans-serif" font-size="13" lengthAdjust="spacing" textLength="103" x="868" y="470.0342">ACTIVE : boolean</text><polygon fill="#181818" points="325,502.5879,315,506.5879,325,510.5879,321,506.5879" style="stroke:#181818;stroke-width:1.0;"/><line style="stroke:#181818;stroke-width:1.0;stroke-dasharray:2.0,2.0;" x1="319" x2="834" y1="506.5879" y2="506.5879"/><text fill="#000000" font-family="sans-serif" font-size="13" font-weight="bold" lengthAdjust="spacing" textLength="7" x="331" y="501.3252">9</text><text fill="#000000" font-family="sans-serif" font-size="13" lengthAdjust="spacing" textLength="22" x="342" y="501.3252">true</text><polygon fill="#181818" points="966.5,551.1699,976.5,555.1699,966.5,559.1699,970.5,555.1699" style="stroke:#181818;stroke-width:1.0;"/><line style="stroke:#181818;stroke-width:1.0;" x1="314" x2="972.5" y1="555.1699" y2="555.1699"/><text fill="#000000" font-family="sans-serif" font-size="13" font-weight="bold" lengthAdjust="spacing" textLength="14" x="321" y="541.2617">10</text><text fill="#000000" font-family="sans-serif" font-size="13" lengthAdjust="spacing" textLength="557" x="339" y="532.6162">getBlindSetterActuatorFromDeviceAndChangeStatus (chosenDevice, chosenSensorFunctionality</text><text fill="#000000" font-family="sans-serif" font-size="13" lengthAdjust="spacing" textLength="109" x="339" y="549.9072">, closePercentage)</text><polygon fill="#181818" points="1585.5,599.752,1595.5,603.752,1585.5,607.752,1589.5,603.752" style="stroke:#181818;stroke-width:1.0;"/><line style="stroke:#181818;stroke-width:1.0;" x1="988.5" x2="1591.5" y1="603.752" y2="603.752"/><text fill="#000000" font-family="sans-serif" font-size="13" font-weight="bold" lengthAdjust="spacing" textLength="14" x="995.5" y="589.8438">11</text><text fill="#000000" font-family="sans-serif" font-size="13" lengthAdjust="spacing" textLength="224" x="1013.5" y="581.1982">findByDeviceIDAndSensorFunctionality</text><text fill="#000000" font-family="sans-serif" font-size="13" lengthAdjust="spacing" textLength="253" x="1013.5" y="598.4893">(chosenDevice, chosenSensorFunctionality)</text><polygon fill="#181818" points="999.5,631.043,989.5,635.043,999.5,639.043,995.5,635.043" style="stroke:#181818;stroke-width:1.0;"/><line style="stroke:#181818;stroke-width:1.0;stroke-dasharray:2.0,2.0;" x1="993.5" x2="1601.5" y1="635.043" y2="635.043"/><text fill="#000000" font-family="sans-serif" font-size="13" font-weight="bold" lengthAdjust="spacing" textLength="14" x="1005.5" y="629.7803">12</text><text fill="#000000" font-family="sans-serif" font-size="13" lengthAdjust="spacing" textLength="232" x="1023.5" y="629.7803">listOfSensorsOfDevice:Iterable&lt;Sensor&gt;</text><polygon fill="#181818" points="1666,662.334,1676,666.334,1666,670.334,1670,666.334" style="stroke:#181818;stroke-width:1.0;"/><line style="stroke:#181818;stroke-width:1.0;" x1="988.5" x2="1672" y1="666.334" y2="666.334"/><text fill="#000000" font-family="sans-serif" font-size="13" font-weight="bold" lengthAdjust="spacing" textLength="14" x="995.5" y="661.0713">13</text><text fill="#000000" font-family="sans-serif" font-size="13" lengthAdjust="spacing" textLength="139" x="1013.5" y="661.0713">iterator().next().identity()</text><rect fill="#E2E2F0" height="32.6211" rx="2.5" ry="2.5" style="stroke:#181818;stroke-width:0.5;" width="268" x="1678" y="643.043"/><text fill="#000000" font-family="sans-serif" font-size="14" lengthAdjust="spacing" textLength="254" x="1685" y="665.1504">listOfSensorsOfDevice:Iterable&lt;Sensor&gt;</text><polygon fill="#181818" points="999.5,705.9551,989.5,709.9551,999.5,713.9551,995.5,709.9551" style="stroke:#181818;stroke-width:1.0;"/><line style="stroke:#181818;stroke-width:1.0;stroke-dasharray:2.0,2.0;" x1="993.5" x2="1811" y1="709.9551" y2="709.9551"/><text fill="#000000" font-family="sans-serif" font-size="13" font-weight="bold" lengthAdjust="spacing" textLength="14" x="1005.5" y="704.6924">14</text><text fill="#000000" font-family="sans-serif" font-size="13" lengthAdjust="spacing" textLength="139" x="1023.5" y="704.6924">scaleSensorID:sensorID</text><polygon fill="#181818" points="2036.5,737.2461,2046.5,741.2461,2036.5,745.2461,2040.5,741.2461" style="stroke:#181818;stroke-width:1.0;"/><line style="stroke:#181818;stroke-width:1.0;" x1="988.5" x2="2042.5" y1="741.2461" y2="741.2461"/><text fill="#000000" font-family="sans-serif" font-size="13" font-weight="bold" lengthAdjust="spacing" textLength="14" x="995.5" y="735.9834">15</text><text fill="#000000" font-family="sans-serif" font-size="13" lengthAdjust="spacing" textLength="225" x="1013.5" y="735.9834">findLastValueRecorded(scaleSensorID)</text><polygon fill="#181818" points="999.5,768.5371,989.5,772.5371,999.5,776.5371,995.5,772.5371" style="stroke:#181818;stroke-width:1.0;"/><line style="stroke:#181818;stroke-width:1.0;" x1="993.5" x2="2052.5" y1="772.5371" y2="772.5371"/><text fill="#000000" font-family="sans-serif" font-size="13" font-weight="bold" lengthAdjust="spacing" textLength="14" x="1005.5" y="767.2744">16</text><text fill="#000000" font-family="sans-serif" font-size="13" lengthAdjust="spacing" textLength="95" x="1023.5" y="767.2744">lastValue: Value</text><polygon fill="#181818" points="2149,799.8281,2159,803.8281,2149,807.8281,2153,803.8281" style="stroke:#181818;stroke-width:1.0;"/><line style="stroke:#181818;stroke-width:1.0;" x1="988.5" x2="2155" y1="803.8281" y2="803.8281"/><text fill="#000000" font-family="sans-serif" font-size="13" font-weight="bold" lengthAdjust="spacing" textLength="14" x="995.5" y="798.5654">17</text><text fill="#000000" font-family="sans-serif" font-size="13" lengthAdjust="spacing" textLength="73" x="1013.5" y="798.5654">getReading()</text><rect fill="#E2E2F0" height="51.2422" rx="2.5" ry="2.5" style="stroke:#181818;stroke-width:0.5;" width="76" x="2161" y="780.5371"/><text fill="#000000" font-family="sans-serif" font-size="14" lengthAdjust="spacing" textLength="62" x="2168" y="802.6445">lastValue:</text><text fill="#000000" font-family="sans-serif" font-size="14" lengthAdjust="spacing" textLength="36" x="2181" y="821.2656">Value</text><polygon fill="#181818" points="999.5,862.0703,989.5,866.0703,999.5,870.0703,995.5,866.0703" style="stroke:#181818;stroke-width:1.0;"/><line style="stroke:#181818;stroke-width:1.0;stroke-dasharray:2.0,2.0;" x1="993.5" x2="2198" y1="866.0703" y2="866.0703"/><text fill="#000000" font-family="sans-serif" font-size="13" font-weight="bold" lengthAdjust="spacing" textLength="14" x="1005.5" y="860.8076">18</text><text fill="#000000" font-family="sans-serif" font-size="13" lengthAdjust="spacing" textLength="119" x="1023.5" y="860.8076">lastReading:Reading</text><polygon fill="#181818" points="2235,893.3613,2245,897.3613,2235,901.3613,2239,897.3613" style="stroke:#181818;stroke-width:1.0;"/><line style="stroke:#181818;stroke-width:1.0;" x1="988.5" x2="2241" y1="897.3613" y2="897.3613"/><text fill="#000000" font-family="sans-serif" font-size="13" font-weight="bold" lengthAdjust="spacing" textLength="14" x="995.5" y="892.0986">19</text><text fill="#000000" font-family="sans-serif" font-size="13" lengthAdjust="spacing" textLength="105" x="1013.5" y="892.0986">getMeasurement()</text><rect fill="#E2E2F0" height="51.2422" rx="2.5" ry="2.5" style="stroke:#181818;stroke-width:0.5;" width="93" x="2247" y="874.0703"/><text fill="#000000" font-family="sans-serif" font-size="14" lengthAdjust="spacing" textLength="79" x="2254" y="896.1777">lastReading:</text><text fill="#000000" font-family="sans-serif" font-size="14" lengthAdjust="spacing" textLength="53" x="2267" y="914.7988">Reading</text><polygon fill="#181818" points="999.5,955.6035,989.5,959.6035,999.5,963.6035,995.5,959.6035" style="stroke:#181818;stroke-width:1.0;"/><line style="stroke:#181818;stroke-width:1.0;stroke-dasharray:2.0,2.0;" x1="993.5" x2="2292.5" y1="959.6035" y2="959.6035"/><text fill="#000000" font-family="sans-serif" font-size="13" font-weight="bold" lengthAdjust="spacing" textLength="14" x="1005.5" y="954.3408">20</text><text fill="#000000" font-family="sans-serif" font-size="13" lengthAdjust="spacing" textLength="117" x="1023.5" y="954.3408">measurement:String</text><line style="stroke:#181818;stroke-width:1.0;" x1="988.5" x2="1030.5" y1="995.8945" y2="995.8945"/><line style="stroke:#181818;stroke-width:1.0;" x1="1030.5" x2="1030.5" y1="995.8945" y2="1008.8945"/><line style="stroke:#181818;stroke-width:1.0;" x1="983.5" x2="1030.5" y1="1008.8945" y2="1008.8945"/><polygon fill="#181818" points="993.5,1004.8945,983.5,1008.8945,993.5,1012.8945,989.5,1008.8945" style="stroke:#181818;stroke-width:1.0;"/><text fill="#000000" font-family="sans-serif" font-size="13" font-weight="bold" lengthAdjust="spacing" textLength="14" x="995.5" y="990.6318">21</text><text fill="#000000" font-family="sans-serif" font-size="13" lengthAdjust="spacing" textLength="299" x="1013.5" y="990.6318">parseInt(measurement) &lt; closePercentage: boolean</text><line style="stroke:#181818;stroke-width:1.0;" x1="983.5" x2="1030.5" y1="1030.1855" y2="1030.1855"/><line style="stroke:#181818;stroke-width:1.0;" x1="1030.5" x2="1030.5" y1="1030.1855" y2="1043.1855"/><line style="stroke:#181818;stroke-width:1.0;" x1="989.5" x2="1030.5" y1="1043.1855" y2="1043.1855"/><polygon fill="#181818" points="999.5,1039.1855,989.5,1043.1855,999.5,1047.1855,995.5,1043.1855" style="stroke:#181818;stroke-width:1.0;"/><text fill="#000000" font-family="sans-serif" font-size="13" font-weight="bold" lengthAdjust="spacing" textLength="14" x="995.5" y="1024.9229">22</text><text fill="#000000" font-family="sans-serif" font-size="13" lengthAdjust="spacing" textLength="287" x="1013.5" y="1024.9229">getBlindSetterActuatorFromDevice(chosenDevice)</text><polygon fill="#181818" points="2385.5,1075.4766,2395.5,1079.4766,2385.5,1083.4766,2389.5,1079.4766" style="stroke:#181818;stroke-width:1.0;"/><line style="stroke:#181818;stroke-width:1.0;" x1="988.5" x2="2391.5" y1="1079.4766" y2="1079.4766"/><text fill="#000000" font-family="sans-serif" font-size="13" font-weight="bold" lengthAdjust="spacing" textLength="14" x="995.5" y="1074.2139">23</text><text fill="#000000" font-family="sans-serif" font-size="13" lengthAdjust="spacing" textLength="174" x="1013.5" y="1074.2139">findByDeviceID(chosenDevice)</text><polygon fill="#181818" points="999.5,1106.7676,989.5,1110.7676,999.5,1114.7676,995.5,1110.7676" style="stroke:#181818;stroke-width:1.0;"/><line style="stroke:#181818;stroke-width:1.0;stroke-dasharray:2.0,2.0;" x1="993.5" x2="2401.5" y1="1110.7676" y2="1110.7676"/><text fill="#000000" font-family="sans-serif" font-size="13" font-weight="bold" lengthAdjust="spacing" textLength="14" x="1005.5" y="1105.5049">24</text><text fill="#000000" font-family="sans-serif" font-size="13" lengthAdjust="spacing" textLength="209" x="1023.5" y="1105.5049">actuatorOfDevice:Iterable&lt;Actuator&gt;</text><path d="M889,1125.7676 L962,1125.7676 L962,1135.0586 L952,1145.0586 L889,1145.0586 L889,1125.7676 " fill="#EEEEEE" style="stroke:#000000;stroke-width:1.5;"/><rect fill="none" height="156.4453" style="stroke:#000000;stroke-width:1.5;" width="1803" x="889" y="1125.7676"/><text fill="#000000" font-family="sans-serif" font-size="13" font-weight="bold" lengthAdjust="spacing" textLength="28" x="904" y="1140.7959">loop</text><text fill="#000000" font-family="sans-serif" font-size="11" font-weight="bold" lengthAdjust="spacing" textLength="103" x="977" y="1139.6377">[For each actuator]</text><polygon fill="#181818" points="2453,1164.3496,2463,1168.3496,2453,1172.3496,2457,1168.3496" style="stroke:#181818;stroke-width:1.0;"/><line style="stroke:#181818;stroke-width:1.0;" x1="988.5" x2="2459" y1="1168.3496" y2="1168.3496"/><text fill="#000000" font-family="sans-serif" font-size="13" font-weight="bold" lengthAdjust="spacing" textLength="14" x="995.5" y="1163.0869">25</text><text fill="#000000" font-family="sans-serif" font-size="13" lengthAdjust="spacing" textLength="149" x="1013.5" y="1163.0869">getActuatorFunctionality()</text><rect fill="#E2E2F0" height="32.6211" rx="2.5" ry="2.5" style="stroke:#181818;stroke-width:0.5;" width="71" x="2465" y="1145.0586"/><text fill="#000000" font-family="sans-serif" font-size="14" lengthAdjust="spacing" textLength="57" x="2472" y="1167.166">:Actuator</text><polygon fill="#181818" points="999.5,1207.9707,989.5,1211.9707,999.5,1215.9707,995.5,1211.9707" style="stroke:#181818;stroke-width:1.0;"/><line style="stroke:#181818;stroke-width:1.0;stroke-dasharray:2.0,2.0;" x1="993.5" x2="2499.5" y1="1211.9707" y2="1211.9707"/><text fill="#000000" font-family="sans-serif" font-size="13" font-weight="bold" lengthAdjust="spacing" textLength="14" x="1005.5" y="1206.708">26</text><text fill="#000000" font-family="sans-serif" font-size="13" lengthAdjust="spacing" textLength="135" x="1023.5" y="1206.708">ActuatorFunctionalityID</text><polygon fill="#181818" points="2534,1239.2617,2544,1243.2617,2534,1247.2617,2538,1243.2617" style="stroke:#181818;stroke-width:1.0;"/><line style="stroke:#181818;stroke-width:1.0;" x1="988.5" x2="2540" y1="1243.2617" y2="1243.2617"/><text fill="#000000" font-family="sans-serif" font-size="13" font-weight="bold" lengthAdjust="spacing" textLength="14" x="995.5" y="1237.999">27</text><text fill="#000000" font-family="sans-serif" font-size="13" lengthAdjust="spacing" textLength="380" x="1013.5" y="1237.999">ActuatorFunctionalityID.equals("BlindSetter"): BlindSetterActuator</text><rect fill="#E2E2F0" height="51.2422" rx="2.5" ry="2.5" style="stroke:#181818;stroke-width:0.5;" width="136" x="2546" y="1219.9707"/><text fill="#000000" font-family="sans-serif" font-size="14" lengthAdjust="spacing" textLength="103" x="2562.5" y="1242.0781">chosenActuator:</text><text fill="#000000" font-family="sans-serif" font-size="14" lengthAdjust="spacing" textLength="122" x="2553" y="1260.6992">BlindSetterActuator</text><polygon fill="#181818" points="2597,1308.5039,2607,1312.5039,2597,1316.5039,2601,1312.5039" style="stroke:#181818;stroke-width:1.0;"/><line style="stroke:#181818;stroke-width:1.0;" x1="988.5" x2="2603" y1="1312.5039" y2="1312.5039"/><text fill="#000000" font-family="sans-serif" font-size="13" font-weight="bold" lengthAdjust="spacing" textLength="14" x="995.5" y="1307.2412">28</text><text fill="#000000" font-family="sans-serif" font-size="13" lengthAdjust="spacing" textLength="251" x="1013.5" y="1307.2412">setActuatorSpecificValue(closePercentage)</text><polygon fill="#181818" points="999.5,1339.7949,989.5,1343.7949,999.5,1347.7949,995.5,1343.7949" style="stroke:#181818;stroke-width:1.0;"/><line style="stroke:#181818;stroke-width:1.0;stroke-dasharray:2.0,2.0;" x1="993.5" x2="2613" y1="1343.7949" y2="1343.7949"/><text fill="#000000" font-family="sans-serif" font-size="13" font-weight="bold" lengthAdjust="spacing" textLength="14" x="1005.5" y="1338.5322">29</text><text fill="#000000" font-family="sans-serif" font-size="13" lengthAdjust="spacing" textLength="71" x="1023.5" y="1338.5322">boolean true</text><polygon fill="#181818" points="325,1371.0859,315,1375.0859,325,1379.0859,321,1375.0859" style="stroke:#181818;stroke-width:1.0;"/><line style="stroke:#181818;stroke-width:1.0;stroke-dasharray:2.0,2.0;" x1="319" x2="982.5" y1="1375.0859" y2="1375.0859"/><text fill="#000000" font-family="sans-serif" font-size="13" font-weight="bold" lengthAdjust="spacing" textLength="14" x="331" y="1369.8232">30</text><text fill="#000000" font-family="sans-serif" font-size="13" lengthAdjust="spacing" textLength="71" x="349" y="1369.8232">boolean true</text><polygon fill="#181818" points="11,1402.377,1,1406.377,11,1410.377,7,1406.377" style="stroke:#181818;stroke-width:1.0;"/><line style="stroke:#181818;stroke-width:1.0;stroke-dasharray:2.0,2.0;" x1="5" x2="308" y1="1406.377" y2="1406.377"/><text fill="#000000" font-family="sans-serif" font-size="13" font-weight="bold" lengthAdjust="spacing" textLength="14" x="17" y="1401.1143">31</text><text fill="#000000" font-family="sans-serif" font-size="13" lengthAdjust="spacing" textLength="194" x="35" y="1401.1143">boolean true, ResponseEntity.OK</text><!--SRC=[dLTRRzem57xFhx1u2XNmi3rCYb1L2gqKhHCLTDqBBoOvWBVWCDkfrdy_ntOIsxaKzScEEPVlV3uN8uZ80FrSVlqs-uAcQ9db7D1zHcYADdcM0KChU2C9104kH4wBynvO45mm4oGX5qm56aLQOfbJmPJABzYF4EOerUSlcoTN8Jb99rHh6ULuPMbqIM-1yfmz5ZGH9ASu8-8zsdMT6ai7-wmJxnPOkLX-pOadhIXHZ6X2RBsa-xTEVnkuv9o8dBrRBij3LthVM3CCxGnLbjfw_niIuRdHP7XkU7teIcU4Y_L1g_3rmRYA1J2yps2kVxXL9eWvzDp5b0kvUo5dUCLPuSVtLfrvVZ4NIbo6fTP6k2su0PmIUfIYPgU4cTvxS1Q9AB3GeIenR1tqo3foNLbN2Ke4wfQt82GPZheh60JJMollerQ6QA9tDBnxnkBqYXafgGr791sDqLOm6PZHZrUJ7RtRmDy2k7Z639-httbNra-GBqra7ChzCx04gC17GED0XalUi02xEfijgk7VtA08pUU9P5l0hIVYLDUWf5DPaeuJ97zYasunNvHW8BGRGWjXLLFELsEwl5xf_o0PVg12mhcNP0nRL1bXQKzzdD9UkmpN5ntnN7-NWVRRRS7K5QkeEe8m7KXWKV2mXSzKj_tHYN6nV8bV7qgmUPu1fcr4ZgKQavEYKbsm0jgw5U_UXVQqF1rNHv4yiloimrtGT7d2z6ZYHiubJL1ldz_HYP_75cLzBRWFfmoXwOawR-xVgo6qAD5t0BWMgeNBQhpDLd7VWon2r_La-wOi9mFnLWrSPP_waFSIZcSK_Wcva1HKuTY9MFVyQZECd2Su0uqlNaNSR6oajS41dFN8qDVoL8sA3IGvIo4D7JSMscRMr3iqI7GzX91QRA2DhO-GLiLiPbFe0z9WXeX36aervipQGZE4n0p3cni5vGTWNZ0uomkruLGJqwp3TtbkR4HwuDY0AbC3a7ejom7B8PRGB1TZDFUBkxEVVQBCUt5yrAZwfiSdCDYF4B_PzBbn7Yxsn_2zLPBjnb55wBGEnqkMvnVqc3CaVpyrBw8h0gkAe6RHReTXHrHrHCFHTDfpMyerCDtNcGBROtacdquuu-78IetHE48TcH848FyUbPnTxrhso8QaxGKISY29QZxXm6nptvRkvp1_feHQizr_hlO6uBrZU-trrCHyEktLdw0Dy4jEEUWNsspzlVtyK0_Ju3y0]--></g></svg>