<?xml version="1.0" encoding="us-ascii" standalone="no"?><svg xmlns="http://www.w3.org/2000/svg" xmlns:xlink="http://www.w3.org/1999/xlink" contentStyleType="text/css" height="901px" preserveAspectRatio="none" style="width:1426px;height:901px;background:#FFFFFF;" version="1.1" viewBox="0 0 1426 901" width="1426px" zoomAndPan="magnify"><defs/><g><text fill="#000000" font-family="sans-serif" font-size="14" font-weight="bold" lengthAdjust="spacing" textLength="444" x="492.5" y="30.1074">UC37.1 - Get list of Devices with Actuator Functionality by Room</text><rect fill="#FFFFFF" height="716.6836" style="stroke:#181818;stroke-width:1.0;" width="10" x="328" y="128.8242"/><rect fill="#FFFFFF" height="586.1895" style="stroke:#181818;stroke-width:1.0;" width="10" x="812.5" y="221.0273"/><rect fill="#FFFFFF" height="31.291" style="stroke:#181818;stroke-width:1.0;" width="10" x="1044.5" y="269.6094"/><rect fill="#FFFFFF" height="33.6211" style="stroke:#181818;stroke-width:1.0;" width="10" x="1159.5" y="368.4824"/><rect fill="#FFFFFF" height="31.291" style="stroke:#181818;stroke-width:1.0;" width="10" x="1269.5" y="528.2676"/><rect fill="#FFFFFF" height="96.2031" style="stroke:#181818;stroke-width:1.0;" width="10" x="1374.5" y="600.8496"/><rect fill="none" height="155.7852" style="stroke:#000000;stroke-width:1.5;" width="487" x="723" y="315.9004"/><rect fill="none" height="329.5313" style="stroke:#000000;stroke-width:1.5;" width="1173" x="247" y="485.6855"/><line style="stroke:#181818;stroke-width:0.5;stroke-dasharray:5.0,5.0;" x1="333" x2="333" y1="78.2422" y2="863.5078"/><line style="stroke:#181818;stroke-width:0.5;stroke-dasharray:5.0,5.0;" x1="578" x2="578" y1="168.6348" y2="863.5078"/><line style="stroke:#181818;stroke-width:0.5;stroke-dasharray:5.0,5.0;" x1="817" x2="817" y1="78.2422" y2="863.5078"/><line style="stroke:#181818;stroke-width:0.5;stroke-dasharray:5.0,5.0;" x1="1049" x2="1049" y1="78.2422" y2="863.5078"/><line style="stroke:#181818;stroke-width:0.5;stroke-dasharray:5.0,5.0;" x1="1164" x2="1164" y1="367.002" y2="863.5078"/><line style="stroke:#181818;stroke-width:0.5;stroke-dasharray:5.0,5.0;" x1="1274" x2="1274" y1="78.2422" y2="863.5078"/><line style="stroke:#181818;stroke-width:0.5;stroke-dasharray:5.0,5.0;" x1="1379" x2="1379" y1="599.3691" y2="863.5078"/><rect fill="#E2E2F0" height="32.6211" rx="2.5" ry="2.5" style="stroke:#181818;stroke-width:0.5;" width="152" x="257" y="44.6211"/><text fill="#000000" font-family="sans-serif" font-size="14" lengthAdjust="spacing" textLength="138" x="264" y="66.7285">:DeviceControllerWeb</text><rect fill="#E2E2F0" height="32.6211" rx="2.5" ry="2.5" style="stroke:#181818;stroke-width:0.5;" width="152" x="257" y="862.5078"/><text fill="#000000" font-family="sans-serif" font-size="14" lengthAdjust="spacing" textLength="138" x="264" y="884.6152">:DeviceControllerWeb</text><rect fill="#E2E2F0" height="32.6211" rx="2.5" ry="2.5" style="stroke:#181818;stroke-width:0.5;" width="290" x="433" y="862.5078"/><text fill="#000000" font-family="sans-serif" font-size="14" lengthAdjust="spacing" textLength="276" x="440" y="884.6152">chosenFunctionality:ActuatorFunctionalityID</text><rect fill="#E2E2F0" height="32.6211" rx="2.5" ry="2.5" style="stroke:#181818;stroke-width:0.5;" width="169" x="733" y="44.6211"/><text fill="#000000" font-family="sans-serif" font-size="14" lengthAdjust="spacing" textLength="155" x="740" y="66.7285">:CloseBlindRollerService</text><rect fill="#E2E2F0" height="32.6211" rx="2.5" ry="2.5" style="stroke:#181818;stroke-width:0.5;" width="169" x="733" y="862.5078"/><text fill="#000000" font-family="sans-serif" font-size="14" lengthAdjust="spacing" textLength="155" x="740" y="884.6152">:CloseBlindRollerService</text><rect fill="#E2E2F0" height="32.6211" rx="2.5" ry="2.5" style="stroke:#181818;stroke-width:0.5;" width="139" x="980" y="44.6211"/><text fill="#000000" font-family="sans-serif" font-size="14" lengthAdjust="spacing" textLength="125" x="987" y="66.7285">:ActuatorRepository</text><rect fill="#E2E2F0" height="32.6211" rx="2.5" ry="2.5" style="stroke:#181818;stroke-width:0.5;" width="139" x="980" y="862.5078"/><text fill="#000000" font-family="sans-serif" font-size="14" lengthAdjust="spacing" textLength="125" x="987" y="884.6152">:ActuatorRepository</text><rect fill="#E2E2F0" height="32.6211" rx="2.5" ry="2.5" style="stroke:#181818;stroke-width:0.5;" width="71" x="1129" y="862.5078"/><text fill="#000000" font-family="sans-serif" font-size="14" lengthAdjust="spacing" textLength="57" x="1136" y="884.6152">:Actuator</text><rect fill="#E2E2F0" height="32.6211" rx="2.5" ry="2.5" style="stroke:#181818;stroke-width:0.5;" width="129" x="1210" y="44.6211"/><text fill="#000000" font-family="sans-serif" font-size="14" lengthAdjust="spacing" textLength="115" x="1217" y="66.7285">:DeviceRepository</text><rect fill="#E2E2F0" height="32.6211" rx="2.5" ry="2.5" style="stroke:#181818;stroke-width:0.5;" width="129" x="1210" y="862.5078"/><text fill="#000000" font-family="sans-serif" font-size="14" lengthAdjust="spacing" textLength="115" x="1217" y="884.6152">:DeviceRepository</text><rect fill="#E2E2F0" height="32.6211" rx="2.5" ry="2.5" style="stroke:#181818;stroke-width:0.5;" width="61" x="1349" y="862.5078"/><text fill="#000000" font-family="sans-serif" font-size="14" lengthAdjust="spacing" textLength="47" x="1356" y="884.6152">:Device</text><rect fill="#FFFFFF" height="716.6836" style="stroke:#181818;stroke-width:1.0;" width="10" x="328" y="128.8242"/><rect fill="#FFFFFF" height="586.1895" style="stroke:#181818;stroke-width:1.0;" width="10" x="812.5" y="221.0273"/><rect fill="#FFFFFF" height="31.291" style="stroke:#181818;stroke-width:1.0;" width="10" x="1044.5" y="269.6094"/><rect fill="#FFFFFF" height="33.6211" style="stroke:#181818;stroke-width:1.0;" width="10" x="1159.5" y="368.4824"/><rect fill="#FFFFFF" height="31.291" style="stroke:#181818;stroke-width:1.0;" width="10" x="1269.5" y="528.2676"/><rect fill="#FFFFFF" height="96.2031" style="stroke:#181818;stroke-width:1.0;" width="10" x="1374.5" y="600.8496"/><polygon fill="#181818" points="316,124.8242,326,128.8242,316,132.8242,320,128.8242" style="stroke:#181818;stroke-width:1.0;"/><line style="stroke:#181818;stroke-width:1.0;" x1="0" x2="322" y1="128.8242" y2="128.8242"/><text fill="#000000" font-family="sans-serif" font-size="13" font-weight="bold" lengthAdjust="spacing" textLength="7" x="7" y="114.916">1</text><text fill="#000000" font-family="sans-serif" font-size="13" lengthAdjust="spacing" textLength="275" x="18" y="106.2705">listOfDevicesWithActuatorFunctionalityByRoom</text><text fill="#000000" font-family="sans-serif" font-size="13" lengthAdjust="spacing" textLength="298" x="18" y="123.5615">(@PathVariable("id") String actuatorFunctionalityID)</text><polygon fill="#181818" points="421,156.1152,431,160.1152,421,164.1152,425,160.1152" style="stroke:#181818;stroke-width:1.0;"/><line style="stroke:#181818;stroke-width:1.0;" x1="338" x2="427" y1="160.1152" y2="160.1152"/><text fill="#000000" font-family="sans-serif" font-size="13" font-weight="bold" lengthAdjust="spacing" textLength="7" x="345" y="154.8525">2</text><text fill="#000000" font-family="sans-serif" font-size="13" lengthAdjust="spacing" textLength="60" x="356" y="154.8525">&lt;&lt;create&gt;</text><rect fill="#E2E2F0" height="32.6211" rx="2.5" ry="2.5" style="stroke:#181818;stroke-width:0.5;" width="290" x="433" y="136.8242"/><text fill="#000000" font-family="sans-serif" font-size="14" lengthAdjust="spacing" textLength="276" x="440" y="158.9316">chosenFunctionality:ActuatorFunctionalityID</text><polygon fill="#181818" points="800.5,217.0273,810.5,221.0273,800.5,225.0273,804.5,221.0273" style="stroke:#181818;stroke-width:1.0;"/><line style="stroke:#181818;stroke-width:1.0;" x1="338" x2="806.5" y1="221.0273" y2="221.0273"/><text fill="#000000" font-family="sans-serif" font-size="13" font-weight="bold" lengthAdjust="spacing" textLength="7" x="345" y="207.1191">3</text><text fill="#000000" font-family="sans-serif" font-size="13" lengthAdjust="spacing" textLength="275" x="356" y="198.4736">listOfDevicesWithActuatorFunctionalityByRoom</text><text fill="#000000" font-family="sans-serif" font-size="13" lengthAdjust="spacing" textLength="124" x="356" y="215.7646">(chosenFunctionality)</text><polygon fill="#181818" points="1032.5,265.6094,1042.5,269.6094,1032.5,273.6094,1036.5,269.6094" style="stroke:#181818;stroke-width:1.0;"/><line style="stroke:#181818;stroke-width:1.0;" x1="822.5" x2="1038.5" y1="269.6094" y2="269.6094"/><text fill="#000000" font-family="sans-serif" font-size="13" font-weight="bold" lengthAdjust="spacing" textLength="7" x="829.5" y="255.7012">4</text><text fill="#000000" font-family="sans-serif" font-size="13" lengthAdjust="spacing" textLength="159" x="840.5" y="247.0557">findByActuatorFunctionality</text><text fill="#000000" font-family="sans-serif" font-size="13" lengthAdjust="spacing" textLength="124" x="840.5" y="264.3467">(chosenFunctionality)</text><polygon fill="#181818" points="833.5,296.9004,823.5,300.9004,833.5,304.9004,829.5,300.9004" style="stroke:#181818;stroke-width:1.0;"/><line style="stroke:#181818;stroke-width:1.0;stroke-dasharray:2.0,2.0;" x1="827.5" x2="1048.5" y1="300.9004" y2="300.9004"/><text fill="#000000" font-family="sans-serif" font-size="13" font-weight="bold" lengthAdjust="spacing" textLength="7" x="839.5" y="295.6377">5</text><text fill="#000000" font-family="sans-serif" font-size="13" lengthAdjust="spacing" textLength="107" x="850.5" y="295.6377">Iterable&lt;Actuator&gt;</text><path d="M723,315.9004 L796,315.9004 L796,325.1914 L786,335.1914 L723,335.1914 L723,315.9004 " fill="#EEEEEE" style="stroke:#000000;stroke-width:1.5;"/><rect fill="none" height="155.7852" style="stroke:#000000;stroke-width:1.5;" width="487" x="723" y="315.9004"/><text fill="#000000" font-family="sans-serif" font-size="13" font-weight="bold" lengthAdjust="spacing" textLength="28" x="738" y="330.9287">loop</text><text fill="#000000" font-family="sans-serif" font-size="11" font-weight="bold" lengthAdjust="spacing" textLength="140" x="811" y="329.7705">[for each Actuator in List]</text><polygon fill="#181818" points="1117,354.4824,1127,358.4824,1117,362.4824,1121,358.4824" style="stroke:#181818;stroke-width:1.0;"/><line style="stroke:#181818;stroke-width:1.0;" x1="822.5" x2="1123" y1="358.4824" y2="358.4824"/><text fill="#000000" font-family="sans-serif" font-size="13" font-weight="bold" lengthAdjust="spacing" textLength="7" x="829.5" y="353.2197">6</text><text fill="#000000" font-family="sans-serif" font-size="13" lengthAdjust="spacing" textLength="98" x="840.5" y="353.2197">getDeviceName()</text><rect fill="#E2E2F0" height="32.6211" rx="2.5" ry="2.5" style="stroke:#181818;stroke-width:0.5;" width="71" x="1129" y="335.1914"/><text fill="#000000" font-family="sans-serif" font-size="14" lengthAdjust="spacing" textLength="57" x="1136" y="357.2988">:Actuator</text><polygon fill="#181818" points="833.5,398.1035,823.5,402.1035,833.5,406.1035,829.5,402.1035" style="stroke:#181818;stroke-width:1.0;"/><line style="stroke:#181818;stroke-width:1.0;stroke-dasharray:2.0,2.0;" x1="827.5" x2="1163.5" y1="402.1035" y2="402.1035"/><text fill="#000000" font-family="sans-serif" font-size="13" font-weight="bold" lengthAdjust="spacing" textLength="7" x="839.5" y="396.8408">7</text><text fill="#000000" font-family="sans-serif" font-size="13" lengthAdjust="spacing" textLength="50" x="850.5" y="396.8408">DeviceID</text><line style="stroke:#181818;stroke-width:1.0;" x1="822.5" x2="864.5" y1="450.6855" y2="450.6855"/><line style="stroke:#181818;stroke-width:1.0;" x1="864.5" x2="864.5" y1="450.6855" y2="463.6855"/><line style="stroke:#181818;stroke-width:1.0;" x1="823.5" x2="864.5" y1="463.6855" y2="463.6855"/><polygon fill="#181818" points="833.5,459.6855,823.5,463.6855,833.5,467.6855,829.5,463.6855" style="stroke:#181818;stroke-width:1.0;"/><text fill="#000000" font-family="sans-serif" font-size="13" font-weight="bold" lengthAdjust="spacing" textLength="7" x="829.5" y="436.7773">8</text><text fill="#000000" font-family="sans-serif" font-size="13" lengthAdjust="spacing" textLength="197" x="840.5" y="428.1318">devicesWithActuatorFunctionality:</text><text fill="#000000" font-family="sans-serif" font-size="13" lengthAdjust="spacing" textLength="87" x="840.5" y="445.4229">List&lt;DeviceID&gt;</text><path d="M247,485.6855 L320,485.6855 L320,494.9766 L310,504.9766 L247,504.9766 L247,485.6855 " fill="#EEEEEE" style="stroke:#000000;stroke-width:1.5;"/><rect fill="none" height="329.5313" style="stroke:#000000;stroke-width:1.5;" width="1173" x="247" y="485.6855"/><text fill="#000000" font-family="sans-serif" font-size="13" font-weight="bold" lengthAdjust="spacing" textLength="28" x="262" y="500.7139">loop</text><text fill="#000000" font-family="sans-serif" font-size="11" font-weight="bold" lengthAdjust="spacing" textLength="139" x="335" y="499.5557">[for each DeviceID in List]</text><polygon fill="#181818" points="1257.5,524.2676,1267.5,528.2676,1257.5,532.2676,1261.5,528.2676" style="stroke:#181818;stroke-width:1.0;"/><line style="stroke:#181818;stroke-width:1.0;" x1="822.5" x2="1263.5" y1="528.2676" y2="528.2676"/><text fill="#000000" font-family="sans-serif" font-size="13" font-weight="bold" lengthAdjust="spacing" textLength="7" x="829.5" y="523.0049">9</text><text fill="#000000" font-family="sans-serif" font-size="13" lengthAdjust="spacing" textLength="138" x="840.5" y="523.0049">findEntityByID(deviceID)</text><polygon fill="#181818" points="833.5,555.5586,823.5,559.5586,833.5,563.5586,829.5,559.5586" style="stroke:#181818;stroke-width:1.0;"/><line style="stroke:#181818;stroke-width:1.0;stroke-dasharray:2.0,2.0;" x1="827.5" x2="1273.5" y1="559.5586" y2="559.5586"/><text fill="#000000" font-family="sans-serif" font-size="13" font-weight="bold" lengthAdjust="spacing" textLength="14" x="839.5" y="554.2959">10</text><text fill="#000000" font-family="sans-serif" font-size="13" lengthAdjust="spacing" textLength="75" x="857.5" y="554.2959">List&lt;Device&gt;</text><polygon fill="#181818" points="1337,586.8496,1347,590.8496,1337,594.8496,1341,590.8496" style="stroke:#181818;stroke-width:1.0;"/><line style="stroke:#181818;stroke-width:1.0;" x1="822.5" x2="1343" y1="590.8496" y2="590.8496"/><text fill="#000000" font-family="sans-serif" font-size="13" font-weight="bold" lengthAdjust="spacing" textLength="14" x="829.5" y="585.5869">11</text><text fill="#000000" font-family="sans-serif" font-size="13" lengthAdjust="spacing" textLength="98" x="847.5" y="585.5869">getDeviceName()</text><rect fill="#E2E2F0" height="32.6211" rx="2.5" ry="2.5" style="stroke:#181818;stroke-width:0.5;" width="61" x="1349" y="567.5586"/><text fill="#000000" font-family="sans-serif" font-size="14" lengthAdjust="spacing" textLength="47" x="1356" y="589.666">:Device</text><polygon fill="#181818" points="833.5,630.4707,823.5,634.4707,833.5,638.4707,829.5,634.4707" style="stroke:#181818;stroke-width:1.0;"/><line style="stroke:#181818;stroke-width:1.0;stroke-dasharray:2.0,2.0;" x1="827.5" x2="1373.5" y1="634.4707" y2="634.4707"/><text fill="#000000" font-family="sans-serif" font-size="13" font-weight="bold" lengthAdjust="spacing" textLength="14" x="839.5" y="629.208">12</text><text fill="#000000" font-family="sans-serif" font-size="13" lengthAdjust="spacing" textLength="50" x="857.5" y="629.208">DeviceID</text><polygon fill="#181818" points="1362.5,661.7617,1372.5,665.7617,1362.5,669.7617,1366.5,665.7617" style="stroke:#181818;stroke-width:1.0;"/><line style="stroke:#181818;stroke-width:1.0;" x1="822.5" x2="1368.5" y1="665.7617" y2="665.7617"/><text fill="#000000" font-family="sans-serif" font-size="13" font-weight="bold" lengthAdjust="spacing" textLength="14" x="829.5" y="660.499">13</text><text fill="#000000" font-family="sans-serif" font-size="13" lengthAdjust="spacing" textLength="72" x="847.5" y="660.499">getRoomID()</text><polygon fill="#181818" points="833.5,693.0527,823.5,697.0527,833.5,701.0527,829.5,697.0527" style="stroke:#181818;stroke-width:1.0;"/><line style="stroke:#181818;stroke-width:1.0;stroke-dasharray:2.0,2.0;" x1="827.5" x2="1378.5" y1="697.0527" y2="697.0527"/><text fill="#000000" font-family="sans-serif" font-size="13" font-weight="bold" lengthAdjust="spacing" textLength="14" x="839.5" y="691.79">14</text><text fill="#000000" font-family="sans-serif" font-size="13" lengthAdjust="spacing" textLength="46" x="857.5" y="691.79">RoomID</text><line style="stroke:#181818;stroke-width:1.0;" x1="822.5" x2="864.5" y1="745.6348" y2="745.6348"/><line style="stroke:#181818;stroke-width:1.0;" x1="864.5" x2="864.5" y1="745.6348" y2="758.6348"/><line style="stroke:#181818;stroke-width:1.0;" x1="823.5" x2="864.5" y1="758.6348" y2="758.6348"/><polygon fill="#181818" points="833.5,754.6348,823.5,758.6348,833.5,762.6348,829.5,758.6348" style="stroke:#181818;stroke-width:1.0;"/><text fill="#000000" font-family="sans-serif" font-size="13" font-weight="bold" lengthAdjust="spacing" textLength="14" x="829.5" y="731.7266">15</text><text fill="#000000" font-family="sans-serif" font-size="13" lengthAdjust="spacing" textLength="123" x="847.5" y="723.0811">deviceIDRoomIDMap:</text><text fill="#000000" font-family="sans-serif" font-size="13" lengthAdjust="spacing" textLength="145" x="847.5" y="740.3721">Map&lt;DeviceID, RoomID&gt;</text><polygon fill="#181818" points="349,803.2168,339,807.2168,349,811.2168,345,807.2168" style="stroke:#181818;stroke-width:1.0;"/><line style="stroke:#181818;stroke-width:1.0;stroke-dasharray:2.0,2.0;" x1="343" x2="816.5" y1="807.2168" y2="807.2168"/><text fill="#000000" font-family="sans-serif" font-size="13" font-weight="bold" lengthAdjust="spacing" textLength="14" x="355" y="793.3086">16</text><text fill="#000000" font-family="sans-serif" font-size="13" lengthAdjust="spacing" textLength="123" x="373" y="784.6631">deviceIDRoomIDMap:</text><text fill="#000000" font-family="sans-serif" font-size="13" lengthAdjust="spacing" textLength="145" x="373" y="801.9541">Map&lt;DeviceID, RoomID&gt;</text><polygon fill="#181818" points="11,841.5078,1,845.5078,11,849.5078,7,845.5078" style="stroke:#181818;stroke-width:1.0;"/><line style="stroke:#181818;stroke-width:1.0;stroke-dasharray:2.0,2.0;" x1="5" x2="332" y1="845.5078" y2="845.5078"/><text fill="#000000" font-family="sans-serif" font-size="13" font-weight="bold" lengthAdjust="spacing" textLength="14" x="17" y="840.2451">17</text><text fill="#000000" font-family="sans-serif" font-size="13" lengthAdjust="spacing" textLength="268" x="35" y="840.2451">Map&lt;DeviceID, RoomID&gt;, ResponseEntity.OK</text><!--SRC=[fLHHRvim47xthpZbAQb6fQeFan2AreIrGklMATtMbxuuO1fBn4Rcqeb_FuC3CSGGghqavdp-lhllEnivPWn-hsy_Nz-01myC8UC5WamXPEyyPWNyvRY3knWF5AM2-uE8aKj1CuubR4lOIBadX1vGYiD-onGXELN8OvvJWJ3p3SnQ2bGoovXwOTiPq08I4_-rUUmUY7UoOA93upVidMWKrZYf7UjnhpEDjSguI3OrzpDJ5MbzBdRlzH0QvWtBPS7regmFKoiySAAJvzIaXvcqGMUsbKE8jxJqyslBdjAZOI_QBwTWgxBowbNCl_oakFj35QVRZCrdF9aju1aL5szjmJsb5qHly7UApFRjj0HTKCU8golm8GXYnVIPPIzpGFeFz-4O5QlG8OC7ubLXjgq-f3fbLJfBk4ZU6H3x0xmn0I9agZ8bQ5WhwToWcPGvfFf6wdthVd81Zrh5ALtM7hqnD7h_e7isTtJGLZzUkG69GbUzOyKC0YONfi1_5LMZGKEy94maKAdIawP9c2BDwGuQ-xyAh0Sk2kV94URiAjHkd9RZCbabTwore2wMD-xRyOamVnCzkqXf2AjhfvLOJ08toUSz_iSmHA41_KvpxRx-RSt_TAHR3gFtdipfY5O7GqzAEtc419xNuN5YwWKhSYaAPWRi-kdRkL3r4ql-0G00]--></g></svg>