<?xml version="1.0" encoding="us-ascii" standalone="no"?><svg xmlns="http://www.w3.org/2000/svg" xmlns:xlink="http://www.w3.org/1999/xlink" contentStyleType="text/css" height="1046px" preserveAspectRatio="none" style="width:2150px;height:1046px;background:#FFFFFF;" version="1.1" viewBox="0 0 2150 1046" width="2150px" zoomAndPan="magnify"><defs/><g><text fill="#000000" font-family="sans-serif" font-size="14" font-weight="bold" lengthAdjust="spacing" textLength="263" x="936.75" y="22.9951">UC37.2: Close Blind Roller Device</text><!--class ActuatorControllerWeb--><g id="elem_ActuatorControllerWeb"><rect codeLine="6" fill="#F1F1F1" height="96.8906" id="ActuatorControllerWeb" rx="2.5" ry="2.5" style="stroke:#181818;stroke-width:0.5;" width="707" x="215.5" y="44.2969"/><ellipse cx="486.75" cy="60.2969" fill="#ADD1B2" rx="11" ry="11" style="stroke:#181818;stroke-width:1.0;"/><path d="M489.7188,65.9375 Q489.1406,66.2344 488.5,66.375 Q487.8594,66.5313 487.1563,66.5313 Q484.6563,66.5313 483.3281,64.8906 Q482.0156,63.2344 482.0156,60.1094 Q482.0156,56.9844 483.3281,55.3281 Q484.6563,53.6719 487.1563,53.6719 Q487.8594,53.6719 488.5,53.8281 Q489.1563,53.9844 489.7188,54.2813 L489.7188,57 Q489.0938,56.4219 488.5,56.1563 Q487.9063,55.875 487.2813,55.875 Q485.9375,55.875 485.25,56.9531 Q484.5625,58.0156 484.5625,60.1094 Q484.5625,62.2031 485.25,63.2813 Q485.9375,64.3438 487.2813,64.3438 Q487.9063,64.3438 488.5,64.0781 Q489.0938,63.7969 489.7188,63.2188 L489.7188,65.9375 Z " fill="#000000"/><text fill="#000000" font-family="sans-serif" font-size="14" lengthAdjust="spacing" textLength="156" x="507.25" y="65.1436">ActuatorControllerWeb</text><line style="stroke:#181818;stroke-width:0.5;" x1="216.5" x2="921.5" y1="76.2969" y2="76.2969"/><rect fill="none" height="6" style="stroke:#C82930;stroke-width:1.0;" width="6" x="223.5" y="86.9453"/><text fill="#000000" font-family="sans-serif" font-size="14" lengthAdjust="spacing" textLength="331" x="235.5" y="93.292">closeBlindRollerService: CloseBlindRollerService</text><rect fill="none" height="6" style="stroke:#C82930;stroke-width:1.0;" width="6" x="223.5" y="103.2422"/><text fill="#000000" font-family="sans-serif" font-size="14" lengthAdjust="spacing" textLength="201" x="235.5" y="109.5889">deviceService: DeviceService</text><line style="stroke:#181818;stroke-width:0.5;" x1="216.5" x2="921.5" y1="116.8906" y2="116.8906"/><ellipse cx="226.5" cy="130.5391" fill="#84BE84" rx="3" ry="3" style="stroke:#038048;stroke-width:1.0;"/><text fill="#000000" font-family="sans-serif" font-size="14" lengthAdjust="spacing" textLength="681" x="235.5" y="133.8857">closeBlindRollerDevice(String deviceID, String sensorFunctionalityID, int closePercentage): boolean</text></g><!--class DeviceID--><g id="elem_DeviceID"><rect codeLine="12" fill="#F1F1F1" height="64.2969" id="DeviceID" rx="2.5" ry="2.5" style="stroke:#181818;stroke-width:0.5;" width="134" x="7" y="233.7769"/><ellipse cx="31" cy="249.7769" fill="#ADD1B2" rx="11" ry="11" style="stroke:#181818;stroke-width:1.0;"/><path d="M33.9688,255.4175 Q33.3906,255.7144 32.75,255.855 Q32.1094,256.0112 31.4063,256.0112 Q28.9063,256.0112 27.5781,254.3706 Q26.2656,252.7144 26.2656,249.5894 Q26.2656,246.4644 27.5781,244.8081 Q28.9063,243.1519 31.4063,243.1519 Q32.1094,243.1519 32.75,243.3081 Q33.4063,243.4644 33.9688,243.7612 L33.9688,246.48 Q33.3438,245.9019 32.75,245.6362 Q32.1563,245.355 31.5313,245.355 Q30.1875,245.355 29.5,246.4331 Q28.8125,247.4956 28.8125,249.5894 Q28.8125,251.6831 29.5,252.7612 Q30.1875,253.8237 31.5313,253.8237 Q32.1563,253.8237 32.75,253.5581 Q33.3438,253.2769 33.9688,252.6987 L33.9688,255.4175 Z " fill="#000000"/><text fill="#000000" font-family="sans-serif" font-size="14" lengthAdjust="spacing" textLength="61" x="47" y="254.6236">DeviceID</text><rect fill="#FFFFFF" height="15.9688" style="stroke:#181818;stroke-width:1.0;stroke-dasharray:2.0,2.0;" width="19" x="125" y="230.7769"/><text fill="#000000" font-family="sans-serif" font-size="12" font-style="italic" lengthAdjust="spacing" textLength="17" x="126" y="242.9155">VO</text><line style="stroke:#181818;stroke-width:0.5;" x1="8" x2="140" y1="265.7769" y2="265.7769"/><rect fill="none" height="6" style="stroke:#C82930;stroke-width:1.0;" width="6" x="15" y="276.4253"/><text fill="#000000" font-family="sans-serif" font-size="14" lengthAdjust="spacing" textLength="108" x="27" y="282.772">deviceID: String</text><line style="stroke:#181818;stroke-width:0.5;" x1="8" x2="140" y1="290.0737" y2="290.0737"/></g><!--class SensorFunctionalityID--><g id="elem_SensorFunctionalityID"><rect codeLine="16" fill="#F1F1F1" height="64.2969" id="SensorFunctionalityID" rx="2.5" ry="2.5" style="stroke:#181818;stroke-width:0.5;" width="202" x="176" y="233.7769"/><ellipse cx="191" cy="249.7769" fill="#ADD1B2" rx="11" ry="11" style="stroke:#181818;stroke-width:1.0;"/><path d="M193.9688,255.4175 Q193.3906,255.7144 192.75,255.855 Q192.1094,256.0112 191.4063,256.0112 Q188.9063,256.0112 187.5781,254.3706 Q186.2656,252.7144 186.2656,249.5894 Q186.2656,246.4644 187.5781,244.8081 Q188.9063,243.1519 191.4063,243.1519 Q192.1094,243.1519 192.75,243.3081 Q193.4063,243.4644 193.9688,243.7612 L193.9688,246.48 Q193.3438,245.9019 192.75,245.6362 Q192.1563,245.355 191.5313,245.355 Q190.1875,245.355 189.5,246.4331 Q188.8125,247.4956 188.8125,249.5894 Q188.8125,251.6831 189.5,252.7612 Q190.1875,253.8237 191.5313,253.8237 Q192.1563,253.8237 192.75,253.5581 Q193.3438,253.2769 193.9688,252.6987 L193.9688,255.4175 Z " fill="#000000"/><text fill="#000000" font-family="sans-serif" font-size="14" lengthAdjust="spacing" textLength="149" x="205" y="254.6236">SensorFunctionalityID</text><rect fill="#FFFFFF" height="15.9688" style="stroke:#181818;stroke-width:1.0;stroke-dasharray:2.0,2.0;" width="19" x="362" y="230.7769"/><text fill="#000000" font-family="sans-serif" font-size="12" font-style="italic" lengthAdjust="spacing" textLength="17" x="363" y="242.9155">VO</text><line style="stroke:#181818;stroke-width:0.5;" x1="177" x2="377" y1="265.7769" y2="265.7769"/><rect fill="none" height="6" style="stroke:#C82930;stroke-width:1.0;" width="6" x="184" y="276.4253"/><text fill="#000000" font-family="sans-serif" font-size="14" lengthAdjust="spacing" textLength="108" x="196" y="282.772">deviceID: String</text><line style="stroke:#181818;stroke-width:0.5;" x1="177" x2="377" y1="290.0737" y2="290.0737"/></g><!--class CloseBlindRollerService--><g id="elem_CloseBlindRollerService"><rect codeLine="20" fill="#F1F1F1" height="129.4844" id="CloseBlindRollerService" rx="2.5" ry="2.5" style="stroke:#181818;stroke-width:0.5;" width="896" x="413" y="201.1869"/><ellipse cx="775.75" cy="217.1869" fill="#ADD1B2" rx="11" ry="11" style="stroke:#181818;stroke-width:1.0;"/><path d="M778.7188,222.8275 Q778.1406,223.1244 777.5,223.265 Q776.8594,223.4213 776.1563,223.4213 Q773.6563,223.4213 772.3281,221.7806 Q771.0156,220.1244 771.0156,216.9994 Q771.0156,213.8744 772.3281,212.2181 Q773.6563,210.5619 776.1563,210.5619 Q776.8594,210.5619 777.5,210.7181 Q778.1563,210.8744 778.7188,211.1713 L778.7188,213.89 Q778.0938,213.3119 777.5,213.0463 Q776.9063,212.765 776.2813,212.765 Q774.9375,212.765 774.25,213.8431 Q773.5625,214.9056 773.5625,216.9994 Q773.5625,219.0931 774.25,220.1713 Q774.9375,221.2338 776.2813,221.2338 Q776.9063,221.2338 777.5,220.9681 Q778.0938,220.6869 778.7188,220.1088 L778.7188,222.8275 Z " fill="#000000"/><text fill="#000000" font-family="sans-serif" font-size="14" lengthAdjust="spacing" textLength="162" x="796.25" y="222.0336">CloseBlindRollerService</text><line style="stroke:#181818;stroke-width:0.5;" x1="414" x2="1308" y1="233.1869" y2="233.1869"/><rect fill="none" height="6" style="stroke:#C82930;stroke-width:1.0;" width="6" x="421" y="243.8353"/><text fill="#000000" font-family="sans-serif" font-size="14" lengthAdjust="spacing" textLength="254" x="433" y="250.182">sensorRepository: SensorRepository</text><rect fill="none" height="6" style="stroke:#C82930;stroke-width:1.0;" width="6" x="421" y="260.1322"/><text fill="#000000" font-family="sans-serif" font-size="14" lengthAdjust="spacing" textLength="272" x="433" y="266.4789">actuatorRepository: ActuatorRepository</text><rect fill="none" height="6" style="stroke:#C82930;stroke-width:1.0;" width="6" x="421" y="276.4291"/><text fill="#000000" font-family="sans-serif" font-size="14" lengthAdjust="spacing" textLength="395" x="433" y="282.7757">instantTimeValueRepository: InstantTimeValueRepository</text><line style="stroke:#181818;stroke-width:0.5;" x1="414" x2="1308" y1="290.0775" y2="290.0775"/><ellipse cx="424" cy="303.7259" fill="#84BE84" rx="3" ry="3" style="stroke:#038048;stroke-width:1.0;"/><text fill="#000000" font-family="sans-serif" font-size="14" lengthAdjust="spacing" textLength="870" x="433" y="307.0726">verifyIfClosingPercentageIsValid(DeviceID deviceID, SensorFunctionalityID sensorFunctionalityID, int closePercentage): boolean</text><ellipse cx="424" cy="320.0228" fill="#84BE84" rx="3" ry="3" style="stroke:#038048;stroke-width:1.0;"/><text fill="#000000" font-family="sans-serif" font-size="14" lengthAdjust="spacing" textLength="866" x="433" y="323.3695">getBlindSetterActuatorFromDeviceAndChangeStatus(DeviceID deviceID, SensorFunctionalityID, int closePercentage): boolean</text></g><!--class DeviceService--><g id="elem_DeviceService"><rect codeLine="28" fill="#F1F1F1" height="80.5938" id="DeviceService" rx="2.5" ry="2.5" style="stroke:#181818;stroke-width:0.5;" width="373" x="1344.5" y="225.6269"/><ellipse cx="1478.25" cy="241.6269" fill="#ADD1B2" rx="11" ry="11" style="stroke:#181818;stroke-width:1.0;"/><path d="M1481.2188,247.2675 Q1480.6406,247.5644 1480,247.705 Q1479.3594,247.8612 1478.6563,247.8612 Q1476.1563,247.8612 1474.8281,246.2206 Q1473.5156,244.5644 1473.5156,241.4394 Q1473.5156,238.3144 1474.8281,236.6581 Q1476.1563,235.0019 1478.6563,235.0019 Q1479.3594,235.0019 1480,235.1581 Q1480.6563,235.3144 1481.2188,235.6112 L1481.2188,238.33 Q1480.5938,237.7519 1480,237.4862 Q1479.4063,237.205 1478.7813,237.205 Q1477.4375,237.205 1476.75,238.2831 Q1476.0625,239.3456 1476.0625,241.4394 Q1476.0625,243.5331 1476.75,244.6112 Q1477.4375,245.6737 1478.7813,245.6737 Q1479.4063,245.6737 1480,245.4081 Q1480.5938,245.1269 1481.2188,244.5487 L1481.2188,247.2675 Z " fill="#000000"/><text fill="#000000" font-family="sans-serif" font-size="14" lengthAdjust="spacing" textLength="97" x="1498.75" y="246.4736">DeviceService</text><line style="stroke:#181818;stroke-width:0.5;" x1="1345.5" x2="1716.5" y1="257.6269" y2="257.6269"/><rect fill="none" height="6" style="stroke:#C82930;stroke-width:1.0;" width="6" x="1352.5" y="268.2753"/><text fill="#000000" font-family="sans-serif" font-size="14" lengthAdjust="spacing" textLength="249" x="1364.5" y="274.622">deviceRepository: DeviceRepository</text><line style="stroke:#181818;stroke-width:0.5;" x1="1345.5" x2="1716.5" y1="281.9237" y2="281.9237"/><ellipse cx="1355.5" cy="295.5722" fill="#84BE84" rx="3" ry="3" style="stroke:#038048;stroke-width:1.0;"/><text fill="#000000" font-family="sans-serif" font-size="14" lengthAdjust="spacing" textLength="347" x="1364.5" y="298.9189">checkIfDeviceIsActive(DeviceID deviceID): boolean</text></g><!--class Repository--><g id="elem_Repository"><rect codeLine="33" fill="#F1F1F1" height="64.2969" id="Repository" rx="2.5" ry="2.5" style="stroke:#181818;stroke-width:0.5;" width="391" x="1752.5" y="233.7769"/><ellipse cx="1906.75" cy="249.7769" fill="#B4A7E5" rx="11" ry="11" style="stroke:#181818;stroke-width:1.0;"/><path d="M1902.6719,245.5425 L1902.6719,243.3862 L1910.0625,243.3862 L1910.0625,245.5425 L1907.5938,245.5425 L1907.5938,253.6206 L1910.0625,253.6206 L1910.0625,255.7769 L1902.6719,255.7769 L1902.6719,253.6206 L1905.1406,253.6206 L1905.1406,245.5425 L1902.6719,245.5425 Z " fill="#000000"/><text fill="#000000" font-family="sans-serif" font-size="14" font-style="italic" lengthAdjust="spacing" textLength="74" x="1927.25" y="254.6236">Repository</text><line style="stroke:#181818;stroke-width:0.5;" x1="1753.5" x2="2142.5" y1="265.7769" y2="265.7769"/><line style="stroke:#181818;stroke-width:0.5;" x1="1753.5" x2="2142.5" y1="273.7769" y2="273.7769"/><ellipse cx="1763.5" cy="287.4253" fill="#84BE84" rx="3" ry="3" style="stroke:#038048;stroke-width:1.0;"/><text fill="#000000" font-family="sans-serif" font-size="14" lengthAdjust="spacing" textLength="365" x="1772.5" y="290.772">findEntityByID(DeviceID deviceID): Optional&lt;Device&gt;</text></g><!--class DeviceRepository--><g id="elem_DeviceRepository"><rect codeLine="37" fill="#F1F1F1" height="48" id="DeviceRepository" rx="2.5" ry="2.5" style="stroke:#181818;stroke-width:0.5;" width="153" x="1662.5" y="406.9669"/><ellipse cx="1677.5" cy="422.9669" fill="#B4A7E5" rx="11" ry="11" style="stroke:#181818;stroke-width:1.0;"/><path d="M1673.4219,418.7325 L1673.4219,416.5762 L1680.8125,416.5762 L1680.8125,418.7325 L1678.3438,418.7325 L1678.3438,426.8106 L1680.8125,426.8106 L1680.8125,428.9669 L1673.4219,428.9669 L1673.4219,426.8106 L1675.8906,426.8106 L1675.8906,418.7325 L1673.4219,418.7325 Z " fill="#000000"/><text fill="#000000" font-family="sans-serif" font-size="14" font-style="italic" lengthAdjust="spacing" textLength="121" x="1691.5" y="427.8136">DeviceRepository</text><line style="stroke:#181818;stroke-width:0.5;" x1="1663.5" x2="1814.5" y1="438.9669" y2="438.9669"/><line style="stroke:#181818;stroke-width:0.5;" x1="1663.5" x2="1814.5" y1="446.9669" y2="446.9669"/></g><!--class Device--><g id="elem_Device"><rect codeLine="40" fill="#F1F1F1" height="129.4844" id="Device" rx="2.5" ry="2.5" style="stroke:#181818;stroke-width:0.5;" width="215" x="1631.5" y="531.2669"/><ellipse cx="1711.25" cy="547.2669" fill="#ADD1B2" rx="11" ry="11" style="stroke:#181818;stroke-width:1.0;"/><path d="M1714.2188,552.9075 Q1713.6406,553.2044 1713,553.345 Q1712.3594,553.5013 1711.6563,553.5013 Q1709.1563,553.5013 1707.8281,551.8606 Q1706.5156,550.2044 1706.5156,547.0794 Q1706.5156,543.9544 1707.8281,542.2981 Q1709.1563,540.6419 1711.6563,540.6419 Q1712.3594,540.6419 1713,540.7981 Q1713.6563,540.9544 1714.2188,541.2513 L1714.2188,543.97 Q1713.5938,543.3919 1713,543.1263 Q1712.4063,542.845 1711.7813,542.845 Q1710.4375,542.845 1709.75,543.9231 Q1709.0625,544.9856 1709.0625,547.0794 Q1709.0625,549.1731 1709.75,550.2513 Q1710.4375,551.3138 1711.7813,551.3138 Q1712.4063,551.3138 1713,551.0481 Q1713.5938,550.7669 1714.2188,550.1888 L1714.2188,552.9075 Z " fill="#000000"/><text fill="#000000" font-family="sans-serif" font-size="14" lengthAdjust="spacing" textLength="47" x="1731.75" y="552.1136">Device</text><line style="stroke:#181818;stroke-width:0.5;" x1="1632.5" x2="1845.5" y1="563.2669" y2="563.2669"/><rect fill="none" height="6" style="stroke:#C82930;stroke-width:1.0;" width="6" x="1639.5" y="573.9153"/><text fill="#000000" font-family="sans-serif" font-size="14" lengthAdjust="spacing" textLength="129" x="1651.5" y="580.262">deviceID: DeviceID</text><rect fill="none" height="6" style="stroke:#C82930;stroke-width:1.0;" width="6" x="1639.5" y="590.2122"/><text fill="#000000" font-family="sans-serif" font-size="14" lengthAdjust="spacing" textLength="185" x="1651.5" y="596.5589">deviceModel: DeviceModel</text><rect fill="none" height="6" style="stroke:#C82930;stroke-width:1.0;" width="6" x="1639.5" y="606.5091"/><text fill="#000000" font-family="sans-serif" font-size="14" lengthAdjust="spacing" textLength="189" x="1651.5" y="612.8557">deviceStatus: DeviceStatus</text><rect fill="none" height="6" style="stroke:#C82930;stroke-width:1.0;" width="6" x="1639.5" y="622.8059"/><text fill="#000000" font-family="sans-serif" font-size="14" lengthAdjust="spacing" textLength="114" x="1651.5" y="629.1526">roomID: RoomID</text><line style="stroke:#181818;stroke-width:0.5;" x1="1632.5" x2="1845.5" y1="636.4544" y2="636.4544"/><ellipse cx="1642.5" cy="650.1028" fill="#84BE84" rx="3" ry="3" style="stroke:#038048;stroke-width:1.0;"/><text fill="#000000" font-family="sans-serif" font-size="14" lengthAdjust="spacing" textLength="189" x="1651.5" y="653.4495">getDeviceStatus(): boolean</text></g><!--class SensorRepository--><g id="elem_SensorRepository"><rect codeLine="48" fill="#F1F1F1" height="80.5938" id="SensorRepository" rx="2.5" ry="2.5" style="stroke:#181818;stroke-width:0.5;" width="468" x="286" y="390.6669"/><ellipse cx="454.25" cy="406.6669" fill="#B4A7E5" rx="11" ry="11" style="stroke:#181818;stroke-width:1.0;"/><path d="M450.1719,402.4325 L450.1719,400.2763 L457.5625,400.2763 L457.5625,402.4325 L455.0938,402.4325 L455.0938,410.5106 L457.5625,410.5106 L457.5625,412.6669 L450.1719,412.6669 L450.1719,410.5106 L452.6406,410.5106 L452.6406,402.4325 L450.1719,402.4325 Z " fill="#000000"/><text fill="#000000" font-family="sans-serif" font-size="14" font-style="italic" lengthAdjust="spacing" textLength="123" x="474.75" y="411.5136">SensorRepository</text><line style="stroke:#181818;stroke-width:0.5;" x1="287" x2="753" y1="422.6669" y2="422.6669"/><line style="stroke:#181818;stroke-width:0.5;" x1="287" x2="753" y1="430.6669" y2="430.6669"/><ellipse cx="297" cy="452.4638" fill="#84BE84" rx="3" ry="3" style="stroke:#038048;stroke-width:1.0;"/><text fill="#000000" font-family="sans-serif" font-size="14" lengthAdjust="spacing" textLength="438" x="306" y="447.662">findByDeviceIDAndSensorFunctionality(DeviceID chosenDevice,</text><text fill="#000000" font-family="sans-serif" font-size="14" lengthAdjust="spacing" textLength="345" x="310" y="463.9589">SensorFunctionalityID chosenSensorFunctionality)</text></g><!--class ValueRepository--><g id="elem_ValueRepository"><rect codeLine="52" fill="#F1F1F1" height="48" id="ValueRepository" rx="2.5" ry="2.5" style="stroke:#181818;stroke-width:0.5;" width="144" x="789" y="406.9669"/><ellipse cx="804" cy="422.9669" fill="#B4A7E5" rx="11" ry="11" style="stroke:#181818;stroke-width:1.0;"/><path d="M799.9219,418.7325 L799.9219,416.5762 L807.3125,416.5762 L807.3125,418.7325 L804.8438,418.7325 L804.8438,426.8106 L807.3125,426.8106 L807.3125,428.9669 L799.9219,428.9669 L799.9219,426.8106 L802.3906,426.8106 L802.3906,418.7325 L799.9219,418.7325 Z " fill="#000000"/><text fill="#000000" font-family="sans-serif" font-size="14" font-style="italic" lengthAdjust="spacing" textLength="112" x="818" y="427.8136">ValueRepository</text><line style="stroke:#181818;stroke-width:0.5;" x1="790" x2="932" y1="438.9669" y2="438.9669"/><line style="stroke:#181818;stroke-width:0.5;" x1="790" x2="932" y1="446.9669" y2="446.9669"/></g><!--class InstantTimeValueRepository--><g id="elem_InstantTimeValueRepository"><rect codeLine="55" fill="#F1F1F1" height="64.2969" id="InstantTimeValueRepository" rx="2.5" ry="2.5" style="stroke:#181818;stroke-width:0.5;" width="371" x="600.5" y="563.8569"/><ellipse cx="685.25" cy="579.8569" fill="#B4A7E5" rx="11" ry="11" style="stroke:#181818;stroke-width:1.0;"/><path d="M681.1719,575.6225 L681.1719,573.4663 L688.5625,573.4663 L688.5625,575.6225 L686.0938,575.6225 L686.0938,583.7006 L688.5625,583.7006 L688.5625,585.8569 L681.1719,585.8569 L681.1719,583.7006 L683.6406,583.7006 L683.6406,575.6225 L681.1719,575.6225 Z " fill="#000000"/><text fill="#000000" font-family="sans-serif" font-size="14" font-style="italic" lengthAdjust="spacing" textLength="193" x="705.75" y="584.7036">InstantTimeValueRepository</text><line style="stroke:#181818;stroke-width:0.5;" x1="601.5" x2="970.5" y1="595.8569" y2="595.8569"/><line style="stroke:#181818;stroke-width:0.5;" x1="601.5" x2="970.5" y1="603.8569" y2="603.8569"/><ellipse cx="611.5" cy="617.5053" fill="#84BE84" rx="3" ry="3" style="stroke:#038048;stroke-width:1.0;"/><text fill="#000000" font-family="sans-serif" font-size="14" lengthAdjust="spacing" textLength="345" x="620.5" y="620.852">findLastValueRecorded(SensorID sensorID): Value</text></g><!--class Value--><g id="elem_Value"><rect codeLine="59" fill="#F1F1F1" height="64.2969" id="Value" rx="2.5" ry="2.5" style="stroke:#181818;stroke-width:0.5;" width="142" x="762" y="753.3469"/><ellipse cx="809.75" cy="769.3469" fill="#B4A7E5" rx="11" ry="11" style="stroke:#181818;stroke-width:1.0;"/><path d="M805.6719,765.1125 L805.6719,762.9563 L813.0625,762.9563 L813.0625,765.1125 L810.5938,765.1125 L810.5938,773.1906 L813.0625,773.1906 L813.0625,775.3469 L805.6719,775.3469 L805.6719,773.1906 L808.1406,773.1906 L808.1406,765.1125 L805.6719,765.1125 Z " fill="#000000"/><text fill="#000000" font-family="sans-serif" font-size="14" font-style="italic" lengthAdjust="spacing" textLength="38" x="830.25" y="774.1936">Value</text><line style="stroke:#181818;stroke-width:0.5;" x1="763" x2="903" y1="785.3469" y2="785.3469"/><line style="stroke:#181818;stroke-width:0.5;" x1="763" x2="903" y1="793.3469" y2="793.3469"/><ellipse cx="773" cy="806.9953" fill="#84BE84" rx="3" ry="3" style="stroke:#038048;stroke-width:1.0;"/><text fill="#000000" font-family="sans-serif" font-size="14" lengthAdjust="spacing" textLength="116" x="782" y="810.342">getReading(): int</text></g><!--class InstantTimeValue--><g id="elem_InstantTimeValue"><rect codeLine="63" fill="#F1F1F1" height="129.4844" id="InstantTimeValue" rx="2.5" ry="2.5" style="stroke:#181818;stroke-width:0.5;" width="193" x="1062.5" y="910.2369"/><ellipse cx="1096.4" cy="926.2369" fill="#ADD1B2" rx="11" ry="11" style="stroke:#181818;stroke-width:1.0;"/><path d="M1099.3688,931.8775 Q1098.7906,932.1744 1098.15,932.315 Q1097.5094,932.4712 1096.8063,932.4712 Q1094.3063,932.4712 1092.9781,930.8306 Q1091.6656,929.1744 1091.6656,926.0494 Q1091.6656,922.9244 1092.9781,921.2681 Q1094.3063,919.6119 1096.8063,919.6119 Q1097.5094,919.6119 1098.15,919.7681 Q1098.8063,919.9244 1099.3688,920.2212 L1099.3688,922.94 Q1098.7438,922.3619 1098.15,922.0962 Q1097.5563,921.815 1096.9313,921.815 Q1095.5875,921.815 1094.9,922.8931 Q1094.2125,923.9556 1094.2125,926.0494 Q1094.2125,928.1431 1094.9,929.2212 Q1095.5875,930.2837 1096.9313,930.2837 Q1097.5563,930.2837 1098.15,930.0181 Q1098.7438,929.7369 1099.3688,929.1587 L1099.3688,931.8775 Z " fill="#000000"/><text fill="#000000" font-family="sans-serif" font-size="14" lengthAdjust="spacing" textLength="119" x="1114.6" y="931.0836">InstantTimeValue</text><line style="stroke:#181818;stroke-width:0.5;" x1="1063.5" x2="1254.5" y1="942.2369" y2="942.2369"/><rect fill="none" height="6" style="stroke:#C82930;stroke-width:1.0;" width="6" x="1070.5" y="952.8853"/><text fill="#000000" font-family="sans-serif" font-size="14" lengthAdjust="spacing" textLength="111" x="1082.5" y="959.232">valueID: ValueID</text><rect fill="none" height="6" style="stroke:#C82930;stroke-width:1.0;" width="6" x="1070.5" y="969.1822"/><text fill="#000000" font-family="sans-serif" font-size="14" lengthAdjust="spacing" textLength="118" x="1082.5" y="975.5289">reading: Reading</text><rect fill="none" height="6" style="stroke:#C82930;stroke-width:1.0;" width="6" x="1070.5" y="985.4791"/><text fill="#000000" font-family="sans-serif" font-size="14" lengthAdjust="spacing" textLength="134" x="1082.5" y="991.8257">sensorID: SensorID</text><rect fill="none" height="6" style="stroke:#C82930;stroke-width:1.0;" width="6" x="1070.5" y="1001.7759"/><text fill="#000000" font-family="sans-serif" font-size="14" lengthAdjust="spacing" textLength="167" x="1082.5" y="1008.1226">instantTime: Timestamp</text><line style="stroke:#181818;stroke-width:0.5;" x1="1063.5" x2="1254.5" y1="1015.4244" y2="1015.4244"/><ellipse cx="1073.5" cy="1029.0728" fill="#84BE84" rx="3" ry="3" style="stroke:#038048;stroke-width:1.0;"/><text fill="#000000" font-family="sans-serif" font-size="14" lengthAdjust="spacing" textLength="156" x="1082.5" y="1032.4195">getReading(): Reading</text></g><!--class Reading--><g id="elem_Reading"><rect codeLine="71" fill="#F1F1F1" height="96.8906" id="Reading" rx="2.5" ry="2.5" style="stroke:#181818;stroke-width:0.5;" width="204" x="1408" y="737.0469"/><ellipse cx="1466.75" cy="753.0469" fill="#ADD1B2" rx="11" ry="11" style="stroke:#181818;stroke-width:1.0;"/><path d="M1469.7188,758.6875 Q1469.1406,758.9844 1468.5,759.125 Q1467.8594,759.2812 1467.1563,759.2812 Q1464.6563,759.2812 1463.3281,757.6406 Q1462.0156,755.9844 1462.0156,752.8594 Q1462.0156,749.7344 1463.3281,748.0781 Q1464.6563,746.4219 1467.1563,746.4219 Q1467.8594,746.4219 1468.5,746.5781 Q1469.1563,746.7344 1469.7188,747.0312 L1469.7188,749.75 Q1469.0938,749.1719 1468.5,748.9062 Q1467.9063,748.625 1467.2813,748.625 Q1465.9375,748.625 1465.25,749.7031 Q1464.5625,750.7656 1464.5625,752.8594 Q1464.5625,754.9531 1465.25,756.0312 Q1465.9375,757.0937 1467.2813,757.0937 Q1467.9063,757.0937 1468.5,756.8281 Q1469.0938,756.5469 1469.7188,755.9687 L1469.7188,758.6875 Z " fill="#000000"/><text fill="#000000" font-family="sans-serif" font-size="14" lengthAdjust="spacing" textLength="57" x="1487.25" y="757.8936">Reading</text><rect fill="#FFFFFF" height="15.9688" style="stroke:#181818;stroke-width:1.0;stroke-dasharray:2.0,2.0;" width="19" x="1596" y="734.0469"/><text fill="#000000" font-family="sans-serif" font-size="12" font-style="italic" lengthAdjust="spacing" textLength="17" x="1597" y="746.1855">VO</text><line style="stroke:#181818;stroke-width:0.5;" x1="1409" x2="1611" y1="769.0469" y2="769.0469"/><rect fill="none" height="6" style="stroke:#C82930;stroke-width:1.0;" width="6" x="1416" y="779.6953"/><text fill="#000000" font-family="sans-serif" font-size="14" lengthAdjust="spacing" textLength="146" x="1428" y="786.042">measurement: String</text><rect fill="none" height="6" style="stroke:#C82930;stroke-width:1.0;" width="6" x="1416" y="795.9922"/><text fill="#000000" font-family="sans-serif" font-size="14" lengthAdjust="spacing" textLength="75" x="1428" y="802.3389">unit: String</text><line style="stroke:#181818;stroke-width:0.5;" x1="1409" x2="1611" y1="809.6406" y2="809.6406"/><ellipse cx="1419" cy="823.2891" fill="#84BE84" rx="3" ry="3" style="stroke:#038048;stroke-width:1.0;"/><text fill="#000000" font-family="sans-serif" font-size="14" lengthAdjust="spacing" textLength="178" x="1428" y="826.6357">getMeasurement(): String</text></g><!--class ActuatorRepository--><g id="elem_ActuatorRepository"><rect codeLine="77" fill="#F1F1F1" height="64.2969" id="ActuatorRepository" rx="2.5" ry="2.5" style="stroke:#181818;stroke-width:0.5;" width="384" x="989" y="398.8169"/><ellipse cx="1110.75" cy="414.8169" fill="#B4A7E5" rx="11" ry="11" style="stroke:#181818;stroke-width:1.0;"/><path d="M1106.6719,410.5825 L1106.6719,408.4263 L1114.0625,408.4263 L1114.0625,410.5825 L1111.5938,410.5825 L1111.5938,418.6606 L1114.0625,418.6606 L1114.0625,420.8169 L1106.6719,420.8169 L1106.6719,418.6606 L1109.1406,418.6606 L1109.1406,410.5825 L1106.6719,410.5825 Z " fill="#000000"/><text fill="#000000" font-family="sans-serif" font-size="14" font-style="italic" lengthAdjust="spacing" textLength="132" x="1131.25" y="419.6636">ActuatorRepository</text><line style="stroke:#181818;stroke-width:0.5;" x1="990" x2="1372" y1="430.8169" y2="430.8169"/><line style="stroke:#181818;stroke-width:0.5;" x1="990" x2="1372" y1="438.8169" y2="438.8169"/><ellipse cx="1000" cy="452.4653" fill="#84BE84" rx="3" ry="3" style="stroke:#038048;stroke-width:1.0;"/><text fill="#000000" font-family="sans-serif" font-size="14" lengthAdjust="spacing" textLength="358" x="1009" y="455.812">findByDeviceID(String deviceID): Iterable&lt;Actuator&gt;</text></g><!--class Actuator--><g id="elem_Actuator"><rect codeLine="81" fill="#F1F1F1" height="129.4844" id="Actuator" rx="2.5" ry="2.5" style="stroke:#181818;stroke-width:0.5;" width="370" x="1007" y="531.2669"/><ellipse cx="1158.75" cy="547.2669" fill="#A9DCDF" rx="11" ry="11" style="stroke:#181818;stroke-width:1.0;"/><path d="M1158.8594,542.6106 L1157.7031,547.6888 L1160.0313,547.6888 L1158.8594,542.6106 Z M1157.375,540.3763 L1160.3594,540.3763 L1163.7188,552.7669 L1161.2656,552.7669 L1160.5,549.7044 L1157.2188,549.7044 L1156.4688,552.7669 L1154.0313,552.7669 L1157.375,540.3763 Z " fill="#000000"/><text fill="#000000" font-family="sans-serif" font-size="14" font-style="italic" lengthAdjust="spacing" textLength="58" x="1179.25" y="552.1136">Actuator</text><line style="stroke:#181818;stroke-width:0.5;" x1="1008" x2="1376" y1="563.2669" y2="563.2669"/><rect fill="none" height="6" style="stroke:#C82930;stroke-width:1.0;" width="6" x="1015" y="573.9153"/><text fill="#000000" font-family="sans-serif" font-size="14" lengthAdjust="spacing" textLength="152" x="1027" y="580.262">actuatorID: ActuatorID</text><rect fill="none" height="6" style="stroke:#C82930;stroke-width:1.0;" width="6" x="1015" y="590.2122"/><text fill="#000000" font-family="sans-serif" font-size="14" lengthAdjust="spacing" textLength="266" x="1027" y="596.5589">actuatorProperties: ActuatorProperties</text><rect fill="none" height="6" style="stroke:#C82930;stroke-width:1.0;" width="6" x="1015" y="606.5091"/><text fill="#000000" font-family="sans-serif" font-size="14" lengthAdjust="spacing" textLength="155" x="1027" y="612.8557">deviceName: DeviceID</text><rect fill="none" height="6" style="stroke:#C82930;stroke-width:1.0;" width="6" x="1015" y="622.8059"/><text fill="#000000" font-family="sans-serif" font-size="14" lengthAdjust="spacing" textLength="324" x="1027" y="629.1526">actuatorFunctionalityID: ActuatorFunctionalityID</text><line style="stroke:#181818;stroke-width:0.5;" x1="1008" x2="1376" y1="636.4544" y2="636.4544"/><ellipse cx="1018" cy="650.1028" fill="#84BE84" rx="3" ry="3" style="stroke:#038048;stroke-width:1.0;"/><text fill="#000000" font-family="sans-serif" font-size="14" lengthAdjust="spacing" textLength="344" x="1027" y="653.4495">getActuatorFunctionality(): ActuatorFunctionalityID</text></g><!--class BlindSetterActuator--><g id="elem_BlindSetterActuator"><rect codeLine="89" fill="#F1F1F1" height="129.4844" id="BlindSetterActuator" rx="2.5" ry="2.5" style="stroke:#181818;stroke-width:0.5;" width="410" x="963" y="720.7469"/><ellipse cx="1096.75" cy="736.7469" fill="#ADD1B2" rx="11" ry="11" style="stroke:#181818;stroke-width:1.0;"/><path d="M1099.7188,742.3875 Q1099.1406,742.6844 1098.5,742.825 Q1097.8594,742.9812 1097.1563,742.9812 Q1094.6563,742.9812 1093.3281,741.3406 Q1092.0156,739.6844 1092.0156,736.5594 Q1092.0156,733.4344 1093.3281,731.7781 Q1094.6563,730.1219 1097.1563,730.1219 Q1097.8594,730.1219 1098.5,730.2781 Q1099.1563,730.4344 1099.7188,730.7312 L1099.7188,733.45 Q1099.0938,732.8719 1098.5,732.6062 Q1097.9063,732.325 1097.2813,732.325 Q1095.9375,732.325 1095.25,733.4031 Q1094.5625,734.4656 1094.5625,736.5594 Q1094.5625,738.6531 1095.25,739.7312 Q1095.9375,740.7937 1097.2813,740.7937 Q1097.9063,740.7937 1098.5,740.5281 Q1099.0938,740.2469 1099.7188,739.6687 L1099.7188,742.3875 Z " fill="#000000"/><text fill="#000000" font-family="sans-serif" font-size="14" lengthAdjust="spacing" textLength="134" x="1117.25" y="741.5936">BlindSetterActuator</text><line style="stroke:#181818;stroke-width:0.5;" x1="964" x2="1372" y1="752.7469" y2="752.7469"/><rect fill="none" height="6" style="stroke:#C82930;stroke-width:1.0;" width="6" x="971" y="763.3953"/><text fill="#000000" font-family="sans-serif" font-size="14" lengthAdjust="spacing" textLength="178" x="983" y="769.742">actuatorName: ActuatorID</text><rect fill="none" height="6" style="stroke:#C82930;stroke-width:1.0;" width="6" x="971" y="779.6922"/><text fill="#000000" font-family="sans-serif" font-size="14" lengthAdjust="spacing" textLength="266" x="983" y="786.0389">actuatorProperties: ActuatorProperties</text><rect fill="none" height="6" style="stroke:#C82930;stroke-width:1.0;" width="6" x="971" y="795.9891"/><text fill="#000000" font-family="sans-serif" font-size="14" lengthAdjust="spacing" textLength="155" x="983" y="802.3357">deviceName: DeviceID</text><rect fill="none" height="6" style="stroke:#C82930;stroke-width:1.0;" width="6" x="971" y="812.2859"/><text fill="#000000" font-family="sans-serif" font-size="14" lengthAdjust="spacing" textLength="324" x="983" y="818.6326">actuatorFunctionalityID: ActuatorFunctionalityID</text><line style="stroke:#181818;stroke-width:0.5;" x1="964" x2="1372" y1="825.9344" y2="825.9344"/><ellipse cx="974" cy="839.5828" fill="#84BE84" rx="3" ry="3" style="stroke:#038048;stroke-width:1.0;"/><text fill="#000000" font-family="sans-serif" font-size="14" lengthAdjust="spacing" textLength="384" x="983" y="842.9295">setActuatorSpecificValue(int closePercentage): boolean</text></g><!--reverse link Repository to DeviceRepository--><g id="link_Repository_DeviceRepository"><path d="M1784,316.5369 C1784,348.2869 1784,377.8269 1784,406.4769 " fill="none" id="Repository-backto-DeviceRepository" style="stroke:#181818;stroke-width:1.0;"/><polygon fill="none" points="1784,298.5369,1778,316.5369,1790,316.5369,1784,298.5369" style="stroke:#181818;stroke-width:1.0;"/></g><!--reverse link ValueRepository to InstantTimeValueRepository--><g id="link_ValueRepository_InstantTimeValueRepository"><path d="M861,473.3169 C861,502.0069 861,531.7969 861,563.5969 " fill="none" id="ValueRepository-backto-InstantTimeValueRepository" style="stroke:#181818;stroke-width:1.0;"/><polygon fill="none" points="861,455.3169,855,473.3169,867,473.3169,861,455.3169" style="stroke:#181818;stroke-width:1.0;"/></g><!--reverse link Value to InstantTimeValue--><g id="link_Value_InstantTimeValue"><path d="M833,835.7569 C833,890.0369 833,975.7169 833,975.7169 C833,975.7169 965.98,975.7169 1062.07,975.7169 " fill="none" id="Value-backto-InstantTimeValue" style="stroke:#181818;stroke-width:1.0;stroke-dasharray:7.0,7.0;"/><polygon fill="none" points="833,817.7569,827,835.7569,839,835.7569,833,817.7569" style="stroke:#181818;stroke-width:1.0;"/></g><!--reverse link Actuator to BlindSetterActuator--><g id="link_Actuator_BlindSetterActuator"><path d="M1190,679.2169 C1190,698.3769 1190,701.3269 1190,720.4769 " fill="none" id="Actuator-backto-BlindSetterActuator" style="stroke:#181818;stroke-width:1.0;"/><polygon fill="none" points="1190,661.2169,1184,679.2169,1196,679.2169,1190,661.2169" style="stroke:#181818;stroke-width:1.0;"/></g><!--link ActuatorControllerWeb to DeviceService--><g id="link_ActuatorControllerWeb_DeviceService"><path codeLine="97" d="M922.77,93.7169 C1197.14,93.7169 1531,93.7169 1531,93.7169 C1531,93.7169 1531,174.6469 1531,225.5569 " fill="none" id="ActuatorControllerWeb-DeviceService" style="stroke:#181818;stroke-width:1.0;"/></g><!--link ActuatorControllerWeb to SensorFunctionalityID--><g id="link_ActuatorControllerWeb_SensorFunctionalityID"><path codeLine="98" d="M296.75,141.4469 C296.75,170.8569 296.75,201.5369 296.75,227.4369 " fill="none" id="ActuatorControllerWeb-to-SensorFunctionalityID" style="stroke:#181818;stroke-width:1.0;"/><polygon fill="#181818" points="296.75,233.4369,300.75,224.4369,296.75,228.4369,292.75,224.4369,296.75,233.4369" style="stroke:#181818;stroke-width:1.0;"/><text fill="#000000" font-family="sans-serif" font-size="13" lengthAdjust="spacing" textLength="64" x="231.75" y="183.5038">&#171;creates&#187;</text></g><!--link ActuatorControllerWeb to DeviceID--><g id="link_ActuatorControllerWeb_DeviceID"><path codeLine="99" d="M215.18,93.7169 C135.52,93.7169 74,93.7169 74,93.7169 C74,93.7169 74,177.6469 74,227.5369 " fill="none" id="ActuatorControllerWeb-to-DeviceID" style="stroke:#181818;stroke-width:1.0;"/><polygon fill="#181818" points="74,233.5369,78,224.5369,74,228.5369,70,224.5369,74,233.5369" style="stroke:#181818;stroke-width:1.0;"/><text fill="#000000" font-family="sans-serif" font-size="13" lengthAdjust="spacing" textLength="64" x="9.68" y="89.7838">&#171;creates&#187;</text></g><!--link ActuatorControllerWeb to CloseBlindRollerService--><g id="link_ActuatorControllerWeb_CloseBlindRollerService"><path codeLine="100" d="M667.75,141.4469 C667.75,159.8569 667.75,181.1069 667.75,200.7869 " fill="none" id="ActuatorControllerWeb-CloseBlindRollerService" style="stroke:#181818;stroke-width:1.0;"/></g><!--link DeviceService to DeviceRepository--><g id="link_DeviceService_DeviceRepository"><path codeLine="101" d="M1690,306.7269 C1690,338.0369 1690,380.2169 1690,406.4969 " fill="none" id="DeviceService-DeviceRepository" style="stroke:#181818;stroke-width:1.0;"/></g><!--link CloseBlindRollerService to SensorRepository--><g id="link_CloseBlindRollerService_SensorRepository"><path codeLine="102" d="M583.5,331.1569 C583.5,351.1569 583.5,372.5769 583.5,390.4269 " fill="none" id="CloseBlindRollerService-SensorRepository" style="stroke:#181818;stroke-width:1.0;"/></g><!--link CloseBlindRollerService to ActuatorRepository--><g id="link_CloseBlindRollerService_ActuatorRepository"><path codeLine="103" d="M1149,331.1569 C1149,354.2169 1149,379.1769 1149,398.3569 " fill="none" id="CloseBlindRollerService-ActuatorRepository" style="stroke:#181818;stroke-width:1.0;"/></g><!--link CloseBlindRollerService to ValueRepository--><g id="link_CloseBlindRollerService_ValueRepository"><path codeLine="104" d="M861,331.1569 C861,357.6469 861,386.6269 861,406.4969 " fill="none" id="CloseBlindRollerService-ValueRepository" style="stroke:#181818;stroke-width:1.0;"/></g><!--link ActuatorRepository to Actuator--><g id="link_ActuatorRepository_Actuator"><path codeLine="105" d="M1190,463.5769 C1190,482.8269 1190,507.8969 1190,531.0369 " fill="none" id="ActuatorRepository-Actuator" style="stroke:#181818;stroke-width:1.0;"/></g><!--link DeviceRepository to Device--><g id="link_DeviceRepository_Device"><path codeLine="106" d="M1739,455.3169 C1739,475.2269 1739,504.3169 1739,530.8869 " fill="none" id="DeviceRepository-Device" style="stroke:#181818;stroke-width:1.0;"/></g><!--link InstantTimeValueRepository to Value--><g id="link_InstantTimeValueRepository_Value"><path codeLine="107" d="M833,628.5769 C833,663.3969 833,718.2569 833,753.0269 " fill="none" id="InstantTimeValueRepository-Value" style="stroke:#181818;stroke-width:1.0;"/></g><!--link Reading to InstantTimeValue--><g id="link_Reading_InstantTimeValue"><path codeLine="108" d="M1510,833.9869 C1510,890.3469 1510,975.7169 1510,975.7169 C1510,975.7169 1359.74,975.7169 1255.84,975.7169 " fill="none" id="Reading-InstantTimeValue" style="stroke:#181818;stroke-width:1.0;"/></g><!--SRC=[dLRVRzem47xFN-6tKRMqqlOm2I4a2gk4jAuLREnbByOvm6fYHxP1GsZ_-_mhSU8aZAuFDFPzz_dydU_i3tkb2ZbwU2WopDGXp-u9pnz8XgKSfXJl1CuJ-KPPWVKNoYW3TIe0SQ7sF4aKLHcW7xDFd-y_Zj0iunBGemQbQCcp30IQmv4II19BYAP47R3YOiQP4XRm4pRd1Ec_8J7ErjUvha0OLy_QDZYlrF9Ns7bzQ16tCQ-335PAKBP3pdynlqD-GWAJN3mT656KCvnHTJ9MoXIoJAyW2325Tt0pGXlECy0i-LDkSExfq7ZzCa7dUeoB-SYl4U2hhiMkzEsHnVlvVIoXu99gnKyZlrYOyK3iSrA7Jbjp7aoPLFgOVASvh75sWBhJejVc4d44GRUdnTO4hdSIX5n8ZQVfe1AlbfHEWVuhHpQ67IWhsGgK0b5kyqdmt2q-PUbiZzaELWghWxmwf7SUa2XNZhokvJoQST4ZiWVojjZwgAIEdnwX7MHpOHqPY2qcW0AVM_bsgwNumdGHdnxr9Zg9NWgtpR4pJfgCSPm8VYjWgMmi5Ms-VRJBTUlpppo5h3JPGQFWRNggUhSZPnUSvuPpQVzNMQy31ttwn1LIK-dnL0OvDQUdTGI2TcIl3m5pmplqY_MSOGVhiDqqOufAwToqzjTSbOaMGRMdhrWgRoLSf90EN3XLXTa3O14TCVaq6d6NW5DTqKPN3GhvZgD3D2yoo7Lro0R7y6W69cjhz-5JwMXrBjs7cor3AnjQYQwrfX4oltgO5rqnbdHLd7x2DbuVKGvO7eIDjMgzrd1Wj3bZo9y3sYmGMdNGhDrIEqzNV2zfjeMcm9iCnYM5hK6yaKhetesQDwjN50tBjcw4cbRVaV5Ly0A4eY03ACnvi0lb6yuXgjJ04ntkG1OPd9jHh1DWjBlaMIMieuTNvxsSE4Vtczj094KmNo55sQWxf0WyxvBYLWObLWKGkgN4bi3WdzT9vrCA3OVH4wWFDkbkIoCq7XDTTmhaP7B1ULxrxclmlK-uHgmX-Dgzr-DfiAttp0LinuFc0Zf-lhIzwvn9wnAiDf9SwC_bEadPVVH43FyB]--></g></svg>