<?xml version="1.0" encoding="us-ascii" standalone="no"?><svg xmlns="http://www.w3.org/2000/svg" xmlns:xlink="http://www.w3.org/1999/xlink" contentStyleType="text/css" height="684px" preserveAspectRatio="none" style="width:1631px;height:684px;background:#FFFFFF;" version="1.1" viewBox="0 0 1631 684" width="1631px" zoomAndPan="magnify"><defs/><g><text fill="#000000" font-family="sans-serif" font-size="14" font-weight="bold" lengthAdjust="spacing" textLength="502" x="557.75" y="22.9951">UC37.1: Get list of Devices with Actuator Functionality by Room</text><!--class DeviceControllerWeb--><g id="elem_DeviceControllerWeb"><rect codeLine="6" fill="#F1F1F1" height="129.4844" id="DeviceControllerWeb" rx="2.5" ry="2.5" style="stroke:#181818;stroke-width:0.5;" width="840" x="7" y="44.2969"/><ellipse cx="350.25" cy="60.2969" fill="#ADD1B2" rx="11" ry="11" style="stroke:#181818;stroke-width:1.0;"/><path d="M353.2188,65.9375 Q352.6406,66.2344 352,66.375 Q351.3594,66.5313 350.6563,66.5313 Q348.1563,66.5313 346.8281,64.8906 Q345.5156,63.2344 345.5156,60.1094 Q345.5156,56.9844 346.8281,55.3281 Q348.1563,53.6719 350.6563,53.6719 Q351.3594,53.6719 352,53.8281 Q352.6563,53.9844 353.2188,54.2813 L353.2188,57 Q352.5938,56.4219 352,56.1563 Q351.4063,55.875 350.7813,55.875 Q349.4375,55.875 348.75,56.9531 Q348.0625,58.0156 348.0625,60.1094 Q348.0625,62.2031 348.75,63.2813 Q349.4375,64.3438 350.7813,64.3438 Q351.4063,64.3438 352,64.0781 Q352.5938,63.7969 353.2188,63.2188 L353.2188,65.9375 Z " fill="#000000"/><text fill="#000000" font-family="sans-serif" font-size="14" lengthAdjust="spacing" textLength="145" x="370.75" y="65.1436">DeviceControllerWeb</text><line style="stroke:#181818;stroke-width:0.5;" x1="8" x2="846" y1="76.2969" y2="76.2969"/><rect fill="none" height="6" style="stroke:#C82930;stroke-width:1.0;" width="6" x="15" y="86.9453"/><text fill="#000000" font-family="sans-serif" font-size="14" lengthAdjust="spacing" textLength="331" x="27" y="93.292">closeBlindRollerService: CloseBlindRollerService</text><rect fill="none" height="6" style="stroke:#C82930;stroke-width:1.0;" width="6" x="15" y="103.2422"/><text fill="#000000" font-family="sans-serif" font-size="14" lengthAdjust="spacing" textLength="190" x="27" y="109.5889">roomMapper: RoomMapper</text><rect fill="none" height="6" style="stroke:#C82930;stroke-width:1.0;" width="6" x="15" y="119.5391"/><text fill="#000000" font-family="sans-serif" font-size="14" lengthAdjust="spacing" textLength="205" x="27" y="125.8857">deviceMapper: DeviceMapper</text><line style="stroke:#181818;stroke-width:0.5;" x1="8" x2="846" y1="133.1875" y2="133.1875"/><ellipse cx="18" cy="146.8359" fill="#84BE84" rx="3" ry="3" style="stroke:#038048;stroke-width:1.0;"/><text fill="#000000" font-family="sans-serif" font-size="14" lengthAdjust="spacing" textLength="814" x="27" y="150.1826">getMapOfDeviceIDAndRoomIDAccordingToFunctionality(String actuatorFunctionalityID): Map&lt;DeviceDTO, RoomDTO&gt;</text><rect fill="#F24D5C" height="6" style="stroke:#C82930;stroke-width:1.0;" width="6" x="15" y="160.1328"/><text fill="#000000" font-family="sans-serif" font-size="14" lengthAdjust="spacing" textLength="700" x="27" y="166.4795">convertToDTO(Map&lt;DeviceID, RoomID&gt; mapOfDeviceIDAndRoomID): Map&lt;DeviceDTO, RoomDTO&gt;</text></g><!--class ActuatorFunctionalityID--><g id="elem_ActuatorFunctionalityID"><rect codeLine="14" fill="#F1F1F1" height="64.2969" id="ActuatorFunctionalityID" rx="2.5" ry="2.5" style="stroke:#181818;stroke-width:0.5;" width="232" x="101" y="258.2269"/><ellipse cx="125.45" cy="274.2269" fill="#ADD1B2" rx="11" ry="11" style="stroke:#181818;stroke-width:1.0;"/><path d="M128.4188,279.8675 Q127.8406,280.1644 127.2,280.305 Q126.5594,280.4613 125.8563,280.4613 Q123.3563,280.4613 122.0281,278.8206 Q120.7156,277.1644 120.7156,274.0394 Q120.7156,270.9144 122.0281,269.2581 Q123.3563,267.6019 125.8563,267.6019 Q126.5594,267.6019 127.2,267.7581 Q127.8563,267.9144 128.4188,268.2113 L128.4188,270.93 Q127.7938,270.3519 127.2,270.0863 Q126.6063,269.805 125.9813,269.805 Q124.6375,269.805 123.95,270.8831 Q123.2625,271.9456 123.2625,274.0394 Q123.2625,276.1331 123.95,277.2113 Q124.6375,278.2738 125.9813,278.2738 Q126.6063,278.2738 127.2,278.0081 Q127.7938,277.7269 128.4188,277.1488 L128.4188,279.8675 Z " fill="#000000"/><text fill="#000000" font-family="sans-serif" font-size="14" lengthAdjust="spacing" textLength="158" x="141.55" y="279.0736">ActuatorFunctionalityID</text><rect fill="#FFFFFF" height="15.9688" style="stroke:#181818;stroke-width:1.0;stroke-dasharray:2.0,2.0;" width="19" x="317" y="255.2269"/><text fill="#000000" font-family="sans-serif" font-size="12" font-style="italic" lengthAdjust="spacing" textLength="17" x="318" y="267.3655">VO</text><line style="stroke:#181818;stroke-width:0.5;" x1="102" x2="332" y1="290.2269" y2="290.2269"/><rect fill="none" height="6" style="stroke:#C82930;stroke-width:1.0;" width="6" x="109" y="300.8753"/><text fill="#000000" font-family="sans-serif" font-size="14" lengthAdjust="spacing" textLength="206" x="121" y="307.222">actuatorFunctionalityID: String</text><line style="stroke:#181818;stroke-width:0.5;" x1="102" x2="332" y1="314.5238" y2="314.5238"/></g><!--class CloseBlindRollerService--><g id="elem_CloseBlindRollerService"><rect codeLine="18" fill="#F1F1F1" height="113.1875" id="CloseBlindRollerService" rx="2.5" ry="2.5" style="stroke:#181818;stroke-width:0.5;" width="541" x="367.5" y="233.7769"/><ellipse cx="552.75" cy="249.7769" fill="#ADD1B2" rx="11" ry="11" style="stroke:#181818;stroke-width:1.0;"/><path d="M555.7188,255.4175 Q555.1406,255.7144 554.5,255.855 Q553.8594,256.0113 553.1563,256.0113 Q550.6563,256.0113 549.3281,254.3706 Q548.0156,252.7144 548.0156,249.5894 Q548.0156,246.4644 549.3281,244.8081 Q550.6563,243.1519 553.1563,243.1519 Q553.8594,243.1519 554.5,243.3081 Q555.1563,243.4644 555.7188,243.7613 L555.7188,246.48 Q555.0938,245.9019 554.5,245.6363 Q553.9063,245.355 553.2813,245.355 Q551.9375,245.355 551.25,246.4331 Q550.5625,247.4956 550.5625,249.5894 Q550.5625,251.6831 551.25,252.7613 Q551.9375,253.8238 553.2813,253.8238 Q553.9063,253.8238 554.5,253.5581 Q555.0938,253.2769 555.7188,252.6988 L555.7188,255.4175 Z " fill="#000000"/><text fill="#000000" font-family="sans-serif" font-size="14" lengthAdjust="spacing" textLength="162" x="573.25" y="254.6236">CloseBlindRollerService</text><line style="stroke:#181818;stroke-width:0.5;" x1="368.5" x2="907.5" y1="265.7769" y2="265.7769"/><rect fill="none" height="6" style="stroke:#C82930;stroke-width:1.0;" width="6" x="375.5" y="276.4253"/><text fill="#000000" font-family="sans-serif" font-size="14" lengthAdjust="spacing" textLength="256" x="387.5" y="282.772">deviceRepository: DeviceRepository&#180;</text><rect fill="none" height="6" style="stroke:#C82930;stroke-width:1.0;" width="6" x="375.5" y="292.7222"/><text fill="#000000" font-family="sans-serif" font-size="14" lengthAdjust="spacing" textLength="272" x="387.5" y="299.0689">actuatorRepository: ActuatorRepository</text><line style="stroke:#181818;stroke-width:0.5;" x1="368.5" x2="907.5" y1="306.3706" y2="306.3706"/><ellipse cx="378.5" cy="328.1675" fill="#84BE84" rx="3" ry="3" style="stroke:#038048;stroke-width:1.0;"/><text fill="#000000" font-family="sans-serif" font-size="14" lengthAdjust="spacing" textLength="383" x="387.5" y="323.3657">getMapOfDeviceIDAndRoomIDAccordingToFunctionality</text><text fill="#000000" font-family="sans-serif" font-size="14" lengthAdjust="spacing" textLength="515" x="387.5" y="339.6626">(ActuatorFunctionalityID actuatorFunctionalityID): Map&lt;DeviceID, RoomID&gt;</text></g><!--class DeviceID--><g id="elem_DeviceID"><rect codeLine="24" fill="#F1F1F1" height="64.2969" id="DeviceID" rx="2.5" ry="2.5" style="stroke:#181818;stroke-width:0.5;" width="134" x="187" y="406.9669"/><ellipse cx="211" cy="422.9669" fill="#ADD1B2" rx="11" ry="11" style="stroke:#181818;stroke-width:1.0;"/><path d="M213.9688,428.6075 Q213.3906,428.9044 212.75,429.045 Q212.1094,429.2013 211.4063,429.2013 Q208.9063,429.2013 207.5781,427.5606 Q206.2656,425.9044 206.2656,422.7794 Q206.2656,419.6544 207.5781,417.9981 Q208.9063,416.3419 211.4063,416.3419 Q212.1094,416.3419 212.75,416.4981 Q213.4063,416.6544 213.9688,416.9513 L213.9688,419.67 Q213.3438,419.0919 212.75,418.8263 Q212.1563,418.545 211.5313,418.545 Q210.1875,418.545 209.5,419.6231 Q208.8125,420.6856 208.8125,422.7794 Q208.8125,424.8731 209.5,425.9513 Q210.1875,427.0138 211.5313,427.0138 Q212.1563,427.0138 212.75,426.7481 Q213.3438,426.4669 213.9688,425.8888 L213.9688,428.6075 Z " fill="#000000"/><text fill="#000000" font-family="sans-serif" font-size="14" lengthAdjust="spacing" textLength="61" x="227" y="427.8136">DeviceID</text><rect fill="#FFFFFF" height="15.9688" style="stroke:#181818;stroke-width:1.0;stroke-dasharray:2.0,2.0;" width="19" x="305" y="403.9669"/><text fill="#000000" font-family="sans-serif" font-size="12" font-style="italic" lengthAdjust="spacing" textLength="17" x="306" y="416.1055">VO</text><line style="stroke:#181818;stroke-width:0.5;" x1="188" x2="320" y1="438.9669" y2="438.9669"/><rect fill="none" height="6" style="stroke:#C82930;stroke-width:1.0;" width="6" x="195" y="449.6153"/><text fill="#000000" font-family="sans-serif" font-size="14" lengthAdjust="spacing" textLength="108" x="207" y="455.962">deviceID: String</text><line style="stroke:#181818;stroke-width:0.5;" x1="188" x2="320" y1="463.2638" y2="463.2638"/></g><!--class RoomID--><g id="elem_RoomID"><rect codeLine="28" fill="#F1F1F1" height="64.2969" id="RoomID" rx="2.5" ry="2.5" style="stroke:#181818;stroke-width:0.5;" width="125" x="355.5" y="406.9669"/><ellipse cx="378.15" cy="422.9669" fill="#ADD1B2" rx="11" ry="11" style="stroke:#181818;stroke-width:1.0;"/><path d="M381.1188,428.6075 Q380.5406,428.9044 379.9,429.045 Q379.2594,429.2013 378.5563,429.2013 Q376.0563,429.2013 374.7281,427.5606 Q373.4156,425.9044 373.4156,422.7794 Q373.4156,419.6544 374.7281,417.9981 Q376.0563,416.3419 378.5563,416.3419 Q379.2594,416.3419 379.9,416.4981 Q380.5563,416.6544 381.1188,416.9513 L381.1188,419.67 Q380.4938,419.0919 379.9,418.8263 Q379.3063,418.545 378.6813,418.545 Q377.3375,418.545 376.65,419.6231 Q375.9625,420.6856 375.9625,422.7794 Q375.9625,424.8731 376.65,425.9513 Q377.3375,427.0138 378.6813,427.0138 Q379.3063,427.0138 379.9,426.7481 Q380.4938,426.4669 381.1188,425.8888 L381.1188,428.6075 Z " fill="#000000"/><text fill="#000000" font-family="sans-serif" font-size="14" lengthAdjust="spacing" textLength="55" x="393.85" y="427.8136">RoomID</text><rect fill="#FFFFFF" height="15.9688" style="stroke:#181818;stroke-width:1.0;stroke-dasharray:2.0,2.0;" width="19" x="464.5" y="403.9669"/><text fill="#000000" font-family="sans-serif" font-size="12" font-style="italic" lengthAdjust="spacing" textLength="17" x="465.5" y="416.1055">VO</text><line style="stroke:#181818;stroke-width:0.5;" x1="356.5" x2="479.5" y1="438.9669" y2="438.9669"/><rect fill="none" height="6" style="stroke:#C82930;stroke-width:1.0;" width="6" x="363.5" y="449.6153"/><text fill="#000000" font-family="sans-serif" font-size="14" lengthAdjust="spacing" textLength="99" x="375.5" y="455.962">roomID: String</text><line style="stroke:#181818;stroke-width:0.5;" x1="356.5" x2="479.5" y1="463.2638" y2="463.2638"/></g><!--class ActuatorRepository--><g id="elem_ActuatorRepository"><rect codeLine="32" fill="#F1F1F1" height="64.2969" id="ActuatorRepository" rx="2.5" ry="2.5" style="stroke:#181818;stroke-width:0.5;" width="683" x="515.5" y="406.9669"/><ellipse cx="786.75" cy="422.9669" fill="#B4A7E5" rx="11" ry="11" style="stroke:#181818;stroke-width:1.0;"/><path d="M782.6719,418.7325 L782.6719,416.5763 L790.0625,416.5763 L790.0625,418.7325 L787.5938,418.7325 L787.5938,426.8106 L790.0625,426.8106 L790.0625,428.9669 L782.6719,428.9669 L782.6719,426.8106 L785.1406,426.8106 L785.1406,418.7325 L782.6719,418.7325 Z " fill="#000000"/><text fill="#000000" font-family="sans-serif" font-size="14" font-style="italic" lengthAdjust="spacing" textLength="132" x="807.25" y="427.8136">ActuatorRepository</text><line style="stroke:#181818;stroke-width:0.5;" x1="516.5" x2="1197.5" y1="438.9669" y2="438.9669"/><line style="stroke:#181818;stroke-width:0.5;" x1="516.5" x2="1197.5" y1="446.9669" y2="446.9669"/><ellipse cx="526.5" cy="460.6153" fill="#84BE84" rx="3" ry="3" style="stroke:#038048;stroke-width:1.0;"/><text fill="#000000" font-family="sans-serif" font-size="14" lengthAdjust="spacing" textLength="657" x="535.5" y="463.962">findByActuatorFunctionality(ActuatorFunctionalityID actuatorFunctionalityID): Iterable&lt;Actuator&gt;</text></g><!--class Actuator--><g id="elem_Actuator"><rect codeLine="36" fill="#F1F1F1" height="129.4844" id="Actuator" rx="2.5" ry="2.5" style="stroke:#181818;stroke-width:0.5;" width="350" x="682" y="539.4169"/><ellipse cx="823.75" cy="555.4169" fill="#ADD1B2" rx="11" ry="11" style="stroke:#181818;stroke-width:1.0;"/><path d="M826.7188,561.0575 Q826.1406,561.3544 825.5,561.495 Q824.8594,561.6513 824.1563,561.6513 Q821.6563,561.6513 820.3281,560.0106 Q819.0156,558.3544 819.0156,555.2294 Q819.0156,552.1044 820.3281,550.4481 Q821.6563,548.7919 824.1563,548.7919 Q824.8594,548.7919 825.5,548.9481 Q826.1563,549.1044 826.7188,549.4013 L826.7188,552.12 Q826.0938,551.5419 825.5,551.2763 Q824.9063,550.995 824.2813,550.995 Q822.9375,550.995 822.25,552.0731 Q821.5625,553.1356 821.5625,555.2294 Q821.5625,557.3231 822.25,558.4013 Q822.9375,559.4638 824.2813,559.4638 Q824.9063,559.4638 825.5,559.1981 Q826.0938,558.9169 826.7188,558.3388 L826.7188,561.0575 Z " fill="#000000"/><text fill="#000000" font-family="sans-serif" font-size="14" lengthAdjust="spacing" textLength="58" x="844.25" y="560.2636">Actuator</text><line style="stroke:#181818;stroke-width:0.5;" x1="683" x2="1031" y1="571.4169" y2="571.4169"/><rect fill="none" height="6" style="stroke:#C82930;stroke-width:1.0;" width="6" x="690" y="582.0653"/><text fill="#000000" font-family="sans-serif" font-size="14" lengthAdjust="spacing" textLength="152" x="702" y="588.412">actuatorID: ActuatorID</text><rect fill="none" height="6" style="stroke:#C82930;stroke-width:1.0;" width="6" x="690" y="598.3622"/><text fill="#000000" font-family="sans-serif" font-size="14" lengthAdjust="spacing" textLength="266" x="702" y="604.7089">actuatorProperties: ActuatorProperties</text><rect fill="none" height="6" style="stroke:#C82930;stroke-width:1.0;" width="6" x="690" y="614.6591"/><text fill="#000000" font-family="sans-serif" font-size="14" lengthAdjust="spacing" textLength="155" x="702" y="621.0057">deviceName: DeviceID</text><rect fill="none" height="6" style="stroke:#C82930;stroke-width:1.0;" width="6" x="690" y="630.9559"/><text fill="#000000" font-family="sans-serif" font-size="14" lengthAdjust="spacing" textLength="324" x="702" y="637.3026">actuatorFunctionalityID: ActuatorFunctionalityID</text><line style="stroke:#181818;stroke-width:0.5;" x1="683" x2="1031" y1="644.6044" y2="644.6044"/><ellipse cx="693" cy="658.2528" fill="#84BE84" rx="3" ry="3" style="stroke:#038048;stroke-width:1.0;"/><text fill="#000000" font-family="sans-serif" font-size="14" lengthAdjust="spacing" textLength="190" x="702" y="661.5995">getDeviceName(): DeviceID</text></g><!--class DeviceRepository--><g id="elem_DeviceRepository"><rect codeLine="44" fill="#F1F1F1" height="64.2969" id="DeviceRepository" rx="2.5" ry="2.5" style="stroke:#181818;stroke-width:0.5;" width="391" x="1233.5" y="406.9669"/><ellipse cx="1364.25" cy="422.9669" fill="#B4A7E5" rx="11" ry="11" style="stroke:#181818;stroke-width:1.0;"/><path d="M1360.1719,418.7325 L1360.1719,416.5763 L1367.5625,416.5763 L1367.5625,418.7325 L1365.0938,418.7325 L1365.0938,426.8106 L1367.5625,426.8106 L1367.5625,428.9669 L1360.1719,428.9669 L1360.1719,426.8106 L1362.6406,426.8106 L1362.6406,418.7325 L1360.1719,418.7325 Z " fill="#000000"/><text fill="#000000" font-family="sans-serif" font-size="14" font-style="italic" lengthAdjust="spacing" textLength="121" x="1384.75" y="427.8136">DeviceRepository</text><line style="stroke:#181818;stroke-width:0.5;" x1="1234.5" x2="1623.5" y1="438.9669" y2="438.9669"/><line style="stroke:#181818;stroke-width:0.5;" x1="1234.5" x2="1623.5" y1="446.9669" y2="446.9669"/><ellipse cx="1244.5" cy="460.6153" fill="#84BE84" rx="3" ry="3" style="stroke:#038048;stroke-width:1.0;"/><text fill="#000000" font-family="sans-serif" font-size="14" lengthAdjust="spacing" textLength="365" x="1253.5" y="463.962">findEntityByID(DeviceID deviceID): Optional&lt;Device&gt;</text></g><!--class Device--><g id="elem_Device"><rect codeLine="48" fill="#F1F1F1" height="145.7813" id="Device" rx="2.5" ry="2.5" style="stroke:#181818;stroke-width:0.5;" width="215" x="1321.5" y="531.2669"/><ellipse cx="1401.25" cy="547.2669" fill="#ADD1B2" rx="11" ry="11" style="stroke:#181818;stroke-width:1.0;"/><path d="M1404.2188,552.9075 Q1403.6406,553.2044 1403,553.345 Q1402.3594,553.5013 1401.6563,553.5013 Q1399.1563,553.5013 1397.8281,551.8606 Q1396.5156,550.2044 1396.5156,547.0794 Q1396.5156,543.9544 1397.8281,542.2981 Q1399.1563,540.6419 1401.6563,540.6419 Q1402.3594,540.6419 1403,540.7981 Q1403.6563,540.9544 1404.2188,541.2513 L1404.2188,543.97 Q1403.5938,543.3919 1403,543.1263 Q1402.4063,542.845 1401.7813,542.845 Q1400.4375,542.845 1399.75,543.9231 Q1399.0625,544.9856 1399.0625,547.0794 Q1399.0625,549.1731 1399.75,550.2513 Q1400.4375,551.3138 1401.7813,551.3138 Q1402.4063,551.3138 1403,551.0481 Q1403.5938,550.7669 1404.2188,550.1888 L1404.2188,552.9075 Z " fill="#000000"/><text fill="#000000" font-family="sans-serif" font-size="14" lengthAdjust="spacing" textLength="47" x="1421.75" y="552.1136">Device</text><line style="stroke:#181818;stroke-width:0.5;" x1="1322.5" x2="1535.5" y1="563.2669" y2="563.2669"/><rect fill="none" height="6" style="stroke:#C82930;stroke-width:1.0;" width="6" x="1329.5" y="573.9153"/><text fill="#000000" font-family="sans-serif" font-size="14" lengthAdjust="spacing" textLength="129" x="1341.5" y="580.262">deviceID: DeviceID</text><rect fill="none" height="6" style="stroke:#C82930;stroke-width:1.0;" width="6" x="1329.5" y="590.2122"/><text fill="#000000" font-family="sans-serif" font-size="14" lengthAdjust="spacing" textLength="185" x="1341.5" y="596.5589">deviceModel: DeviceModel</text><rect fill="none" height="6" style="stroke:#C82930;stroke-width:1.0;" width="6" x="1329.5" y="606.5091"/><text fill="#000000" font-family="sans-serif" font-size="14" lengthAdjust="spacing" textLength="189" x="1341.5" y="612.8557">deviceStatus: DeviceStatus</text><rect fill="none" height="6" style="stroke:#C82930;stroke-width:1.0;" width="6" x="1329.5" y="622.8059"/><text fill="#000000" font-family="sans-serif" font-size="14" lengthAdjust="spacing" textLength="114" x="1341.5" y="629.1526">roomID: RoomID</text><line style="stroke:#181818;stroke-width:0.5;" x1="1322.5" x2="1535.5" y1="636.4544" y2="636.4544"/><ellipse cx="1332.5" cy="650.1028" fill="#84BE84" rx="3" ry="3" style="stroke:#038048;stroke-width:1.0;"/><text fill="#000000" font-family="sans-serif" font-size="14" lengthAdjust="spacing" textLength="130" x="1341.5" y="653.4495">identity(): DeviceID</text><ellipse cx="1332.5" cy="666.3997" fill="#84BE84" rx="3" ry="3" style="stroke:#038048;stroke-width:1.0;"/><text fill="#000000" font-family="sans-serif" font-size="14" lengthAdjust="spacing" textLength="152" x="1341.5" y="669.7464">getRoomID(): RoomID</text></g><!--link DeviceControllerWeb to ActuatorFunctionalityID--><g id="link_DeviceControllerWeb_ActuatorFunctionalityID"><path codeLine="58" d="M217,174.2469 C217,202.6769 217,228.7469 217,251.9669 " fill="none" id="DeviceControllerWeb-to-ActuatorFunctionalityID" style="stroke:#181818;stroke-width:1.0;"/><polygon fill="#181818" points="217,257.9669,221,248.9669,217,252.9669,213,248.9669,217,257.9669" style="stroke:#181818;stroke-width:1.0;"/><text fill="#000000" font-family="sans-serif" font-size="13" lengthAdjust="spacing" textLength="64" x="152" y="212.1738">&#171;creates&#187;</text></g><!--link DeviceControllerWeb to CloseBlindRollerService--><g id="link_DeviceControllerWeb_CloseBlindRollerService"><path codeLine="59" d="M607.25,174.2469 C607.25,193.6469 607.25,214.7269 607.25,233.5469 " fill="none" id="DeviceControllerWeb-CloseBlindRollerService" style="stroke:#181818;stroke-width:1.0;"/></g><!--link CloseBlindRollerService to ActuatorRepository--><g id="link_CloseBlindRollerService_ActuatorRepository"><path codeLine="60" d="M712,347.4569 C712,367.4469 712,389.1969 712,406.4969 " fill="none" id="CloseBlindRollerService-ActuatorRepository" style="stroke:#181818;stroke-width:1.0;"/></g><!--link CloseBlindRollerService to DeviceRepository--><g id="link_CloseBlindRollerService_DeviceRepository"><path codeLine="61" d="M908.83,291.0469 C1137.85,291.0469 1429,291.0469 1429,291.0469 C1429,291.0469 1429,363.0369 1429,406.6269 " fill="none" id="CloseBlindRollerService-DeviceRepository" style="stroke:#181818;stroke-width:1.0;"/></g><!--link CloseBlindRollerService to RoomID--><g id="link_CloseBlindRollerService_RoomID"><path codeLine="62" d="M424,347.4569 C424,367.4469 424,383.1969 424,400.4969 " fill="none" id="CloseBlindRollerService-to-RoomID" style="stroke:#181818;stroke-width:1.0;"/><polygon fill="#181818" points="424,406.4969,428,397.4969,424,401.4969,420,397.4969,424,406.4969" style="stroke:#181818;stroke-width:1.0;"/><text fill="#000000" font-family="sans-serif" font-size="13" lengthAdjust="spacing" textLength="46" x="377" y="373.0438">&#171;uses&#187;</text></g><!--link CloseBlindRollerService to DeviceID--><g id="link_CloseBlindRollerService_DeviceID"><path codeLine="63" d="M367.14,335.0469 C303.59,335.0469 254,335.0469 254,335.0469 C254,335.0469 254,369.9569 254,400.4769 " fill="none" id="CloseBlindRollerService-to-DeviceID" style="stroke:#181818;stroke-width:1.0;"/><polygon fill="#181818" points="254,406.4769,258,397.4769,254,401.4769,250,397.4769,254,406.4769" style="stroke:#181818;stroke-width:1.0;"/><text fill="#000000" font-family="sans-serif" font-size="13" lengthAdjust="spacing" textLength="46" x="227.85" y="348.1138">&#171;uses&#187;</text></g><!--link ActuatorRepository to Actuator--><g id="link_ActuatorRepository_Actuator"><path codeLine="64" d="M857,471.7269 C857,490.9769 857,516.0469 857,539.1869 " fill="none" id="ActuatorRepository-Actuator" style="stroke:#181818;stroke-width:1.0;"/></g><!--link DeviceRepository to Device--><g id="link_DeviceRepository_Device"><path codeLine="65" d="M1429,471.7269 C1429,488.7269 1429,510.2569 1429,530.9969 " fill="none" id="DeviceRepository-Device" style="stroke:#181818;stroke-width:1.0;"/></g><!--SRC=[dLJDZjCm4BxdAUP6LqktGXoGeYfIsm3g0OhQNRXmSPDfQ-74aJrT527UYYVWoN1Yvp-fqEPaptmpyyqt4x-w46NQNomomLAw9k8XaiaY4aphUSpPMR74qpzucZ5p0i5Jf3n3a8ekqlE8aq1ushnzz_36Xuz81g49v0b2VEOHQlZ9wGAhYAwCf88FrpGYBbCcEELmp64lPU9vPJaNif4fAIa4gczu_EM1-UQHa1hNfdYyBpq7L0NKXysumqOfa_iJop9KVbd7dgqlBcjLth1rA_ttPoHptPsiPnkkYWeoCOSeaYhcwVbHTfgP7KWPAp3NQiUv3UzyCFcMDbtuk7jTCZA7m7KeqsTKz2YDQTOWjw45RiC0ab4-DnB_heHTZNE2vTTT04xY2Tu-sBwQP1EIkpHWXTrZ9ZKtwV9AtCRozu-3LYNRuDN0zi9vV4zdKst_puXQmZUjLwwESB4p3fMoyHsmAarjA4y9rOb5EDAw3Re_6QtN-MWtB-XnQ-gney1b5JgoA8vkinK5vrLzxZc_A6d-6-Ae6r1ZSs0hqsUMe5_hsCipMBs9vcnOiH9XdNHsrqlRaRQ_WYrXtwVc3SlN9ksi7cyrKfDpbzd2RYq6op3SWWwBwfsHCOhwcIakRU-165rrvRQtxhhOJRAaUOmbvK77XI0MMBXSYA7hZRohC9y7K_Bwi5n62XcX3eA9uCc7Ty9UX8pysZVG_P7Tm0QksOBuLPUiRu73UbGrV4YjJTZhSsdu_GC0]--></g></svg>