<?xml version="1.0" encoding="us-ascii" standalone="no"?><svg xmlns="http://www.w3.org/2000/svg" xmlns:xlink="http://www.w3.org/1999/xlink" contentStyleType="text/css" height="976px" preserveAspectRatio="none" style="width:1135px;height:976px;background:#FFFFFF;" version="1.1" viewBox="0 0 1135 976" width="1135px" zoomAndPan="magnify"><defs/><g><text fill="#000000" font-family="sans-serif" font-size="14" font-weight="bold" lengthAdjust="spacing" textLength="249" x="436" y="25.1074">UC02: Add a new room to the house</text><!--cluster server--><g id="cluster_server"><path d="M8.5,45.6348 L56.5,45.6348 A3.75,3.75 0 0 1 59,48.1348 L66,70.2559 L1125.5,70.2559 A2.5,2.5 0 0 1 1128,72.7559 L1128,967.1348 A2.5,2.5 0 0 1 1125.5,969.6348 L8.5,969.6348 A2.5,2.5 0 0 1 6,967.1348 L6,48.1348 A2.5,2.5 0 0 1 8.5,45.6348 " fill="#D3D3D3" style="stroke:#000000;stroke-width:1.5;"/><line style="stroke:#000000;stroke-width:1.5;" x1="6" x2="66" y1="70.2559" y2="70.2559"/><text fill="#000000" font-family="sans-serif" font-size="14" font-weight="bold" lengthAdjust="spacing" textLength="47" x="10" y="62.7422">server</text></g><!--class AddNewRoomToHouseController--><g id="elem_AddNewRoomToHouseController"><rect codeLine="6" fill="#F1F1F1" height="103.8633" id="AddNewRoomToHouseController" rx="2.5" ry="2.5" style="stroke:#181818;stroke-width:0.5;" width="457" x="350.5" y="82.6348"/><ellipse cx="471.25" cy="98.6348" fill="#ADD1B2" rx="11" ry="11" style="stroke:#181818;stroke-width:1.0;"/><path d="M474.0156,94.5098 Q474.1719,94.291 474.3594,94.1816 Q474.5469,94.0723 474.7656,94.0723 Q475.1406,94.0723 475.375,94.3379 Q475.6094,94.5879 475.6094,95.1973 L475.6094,96.6504 Q475.6094,97.2598 475.375,97.5254 Q475.1406,97.791 474.7656,97.791 Q474.4219,97.791 474.2188,97.5879 Q474.0156,97.4004 473.9063,96.8848 Q473.8594,96.5254 473.6719,96.3379 Q473.3438,95.9629 472.7344,95.7441 Q472.125,95.5254 471.5,95.5254 Q470.7344,95.5254 470.0938,95.8535 Q469.4688,96.1816 468.9688,96.9316 Q468.4844,97.6816 468.4844,98.7129 L468.4844,99.8066 Q468.4844,101.041 469.375,101.8691 Q470.2656,102.6816 471.8594,102.6816 Q472.7969,102.6816 473.4531,102.4316 Q473.8438,102.2754 474.2656,101.8379 Q474.5313,101.5723 474.6719,101.4941 Q474.8281,101.416 475.0313,101.416 Q475.3594,101.416 475.6094,101.6816 Q475.875,101.9316 475.875,102.2754 Q475.875,102.6191 475.5313,103.0254 Q475.0313,103.6035 474.2344,103.9316 Q473.1563,104.3848 471.8594,104.3848 Q470.3438,104.3848 469.1406,103.7598 Q468.1563,103.2598 467.4688,102.1973 Q466.7813,101.1191 466.7813,99.8379 L466.7813,98.6816 Q466.7813,97.3535 467.3906,96.2129 Q468.0156,95.0566 469.1094,94.4473 Q470.2031,93.8223 471.4375,93.8223 Q472.1719,93.8223 472.8125,93.9941 Q473.4688,94.1504 474.0156,94.5098 Z " fill="#000000"/><text fill="#000000" font-family="sans-serif" font-size="14" lengthAdjust="spacing" textLength="207" x="491.75" y="104.4316">AddNewRoomToHouseController</text><line style="stroke:#181818;stroke-width:0.5;" x1="351.5" x2="806.5" y1="114.6348" y2="114.6348"/><rect fill="none" height="6" style="stroke:#C82930;stroke-width:1.0;" width="6" x="358.5" y="126.4453"/><text fill="#000000" font-family="sans-serif" font-size="14" lengthAdjust="spacing" textLength="171" x="370.5" y="133.7422">roomService: RoomService</text><rect fill="none" height="6" style="stroke:#C82930;stroke-width:1.0;" width="6" x="358.5" y="145.0664"/><text fill="#000000" font-family="sans-serif" font-size="14" lengthAdjust="spacing" textLength="113" x="370.5" y="152.3633">houseID: HouseID</text><line style="stroke:#181818;stroke-width:0.5;" x1="351.5" x2="806.5" y1="159.877" y2="159.877"/><ellipse cx="361.5" cy="174.6875" fill="#84BE84" rx="3" ry="3" style="stroke:#038048;stroke-width:1.0;"/><text fill="#000000" font-family="sans-serif" font-size="14" lengthAdjust="spacing" textLength="431" x="370.5" y="178.9844">createRoomAndSaveInRepository(RoomDTO roomDTO): RoomDTO</text></g><!--class HouseID--><g id="elem_HouseID"><rect codeLine="12" fill="#F1F1F1" height="66.6211" id="HouseID" rx="2.5" ry="2.5" style="stroke:#181818;stroke-width:0.5;" width="164" x="22" y="293.1348"/><ellipse cx="63.1" cy="309.1348" fill="#ADD1B2" rx="11" ry="11" style="stroke:#181818;stroke-width:1.0;"/><path d="M65.8656,305.0098 Q66.0219,304.791 66.2094,304.6816 Q66.3969,304.5723 66.6156,304.5723 Q66.9906,304.5723 67.225,304.8379 Q67.4594,305.0879 67.4594,305.6973 L67.4594,307.1504 Q67.4594,307.7598 67.225,308.0254 Q66.9906,308.291 66.6156,308.291 Q66.2719,308.291 66.0688,308.0879 Q65.8656,307.9004 65.7563,307.3848 Q65.7094,307.0254 65.5219,306.8379 Q65.1938,306.4629 64.5844,306.2441 Q63.975,306.0254 63.35,306.0254 Q62.5844,306.0254 61.9438,306.3535 Q61.3188,306.6816 60.8188,307.4316 Q60.3344,308.1816 60.3344,309.2129 L60.3344,310.3066 Q60.3344,311.541 61.225,312.3691 Q62.1156,313.1816 63.7094,313.1816 Q64.6469,313.1816 65.3031,312.9316 Q65.6938,312.7754 66.1156,312.3379 Q66.3813,312.0723 66.5219,311.9941 Q66.6781,311.916 66.8813,311.916 Q67.2094,311.916 67.4594,312.1816 Q67.725,312.4316 67.725,312.7754 Q67.725,313.1191 67.3813,313.5254 Q66.8813,314.1035 66.0844,314.4316 Q65.0063,314.8848 63.7094,314.8848 Q62.1938,314.8848 60.9906,314.2598 Q60.0063,313.7598 59.3188,312.6973 Q58.6313,311.6191 58.6313,310.3379 L58.6313,309.1816 Q58.6313,307.8535 59.2406,306.7129 Q59.8656,305.5566 60.9594,304.9473 Q62.0531,304.3223 63.2875,304.3223 Q64.0219,304.3223 64.6625,304.4941 Q65.3188,304.6504 65.8656,305.0098 Z " fill="#000000"/><text fill="#000000" font-family="sans-serif" font-size="14" lengthAdjust="spacing" textLength="53" x="82.9" y="314.9316">HouseID</text><rect fill="#FFFFFF" height="17.9609" style="stroke:#181818;stroke-width:1.0;stroke-dasharray:2.0,2.0;" width="19" x="170" y="290.1348"/><text fill="#000000" font-family="sans-serif" font-size="12" font-style="italic" lengthAdjust="spacing" textLength="17" x="171" y="304.084">VO</text><line style="stroke:#181818;stroke-width:0.5;" x1="23" x2="185" y1="325.1348" y2="325.1348"/><rect fill="none" height="6" style="stroke:#C82930;stroke-width:1.0;" width="6" x="30" y="336.9453"/><text fill="#000000" font-family="sans-serif" font-size="14" lengthAdjust="spacing" textLength="138" x="42" y="344.2422">houseIdentifier: String</text><line style="stroke:#181818;stroke-width:0.5;" x1="23" x2="185" y1="351.7559" y2="351.7559"/></g><!--class RoomDTO--><g id="elem_RoomDTO"><rect codeLine="16" fill="#F1F1F1" height="141.1055" id="RoomDTO" rx="2.5" ry="2.5" style="stroke:#181818;stroke-width:0.5;" width="139" x="221.5" y="256.1348"/><ellipse cx="254.5" cy="272.1348" fill="#ADD1B2" rx="11" ry="11" style="stroke:#181818;stroke-width:1.0;"/><path d="M257.2656,268.0098 Q257.4219,267.791 257.6094,267.6816 Q257.7969,267.5723 258.0156,267.5723 Q258.3906,267.5723 258.625,267.8379 Q258.8594,268.0879 258.8594,268.6973 L258.8594,270.1504 Q258.8594,270.7598 258.625,271.0254 Q258.3906,271.291 258.0156,271.291 Q257.6719,271.291 257.4688,271.0879 Q257.2656,270.9004 257.1563,270.3848 Q257.1094,270.0254 256.9219,269.8379 Q256.5938,269.4629 255.9844,269.2441 Q255.375,269.0254 254.75,269.0254 Q253.9844,269.0254 253.3438,269.3535 Q252.7188,269.6816 252.2188,270.4316 Q251.7344,271.1816 251.7344,272.2129 L251.7344,273.3066 Q251.7344,274.541 252.625,275.3691 Q253.5156,276.1816 255.1094,276.1816 Q256.0469,276.1816 256.7031,275.9316 Q257.0938,275.7754 257.5156,275.3379 Q257.7813,275.0723 257.9219,274.9941 Q258.0781,274.916 258.2813,274.916 Q258.6094,274.916 258.8594,275.1816 Q259.125,275.4316 259.125,275.7754 Q259.125,276.1191 258.7813,276.5254 Q258.2813,277.1035 257.4844,277.4316 Q256.4063,277.8848 255.1094,277.8848 Q253.5938,277.8848 252.3906,277.2598 Q251.4063,276.7598 250.7188,275.6973 Q250.0313,274.6191 250.0313,273.3379 L250.0313,272.1816 Q250.0313,270.8535 250.6406,269.7129 Q251.2656,268.5566 252.3594,267.9473 Q253.4531,267.3223 254.6875,267.3223 Q255.4219,267.3223 256.0625,267.4941 Q256.7188,267.6504 257.2656,268.0098 Z " fill="#000000"/><text fill="#000000" font-family="sans-serif" font-size="14" lengthAdjust="spacing" textLength="67" x="272.5" y="277.9316">RoomDTO</text><line style="stroke:#181818;stroke-width:0.5;" x1="222.5" x2="359.5" y1="288.1348" y2="288.1348"/><ellipse cx="232.5" cy="302.9453" fill="none" rx="3" ry="3" style="stroke:#038048;stroke-width:1.0;"/><text fill="#000000" font-family="sans-serif" font-size="14" lengthAdjust="spacing" textLength="113" x="241.5" y="307.2422">roomName: String</text><ellipse cx="232.5" cy="321.5664" fill="none" rx="3" ry="3" style="stroke:#038048;stroke-width:1.0;"/><text fill="#000000" font-family="sans-serif" font-size="14" lengthAdjust="spacing" textLength="100" x="241.5" y="325.8633">floorNumber: int</text><ellipse cx="232.5" cy="340.1875" fill="none" rx="3" ry="3" style="stroke:#038048;stroke-width:1.0;"/><text fill="#000000" font-family="sans-serif" font-size="14" lengthAdjust="spacing" textLength="90" x="241.5" y="344.4844">length: double</text><ellipse cx="232.5" cy="358.8086" fill="none" rx="3" ry="3" style="stroke:#038048;stroke-width:1.0;"/><text fill="#000000" font-family="sans-serif" font-size="14" lengthAdjust="spacing" textLength="83" x="241.5" y="363.1055">width: double</text><ellipse cx="232.5" cy="377.4297" fill="none" rx="3" ry="3" style="stroke:#038048;stroke-width:1.0;"/><text fill="#000000" font-family="sans-serif" font-size="14" lengthAdjust="spacing" textLength="90" x="241.5" y="381.7266">height: double</text><line style="stroke:#181818;stroke-width:0.5;" x1="222.5" x2="359.5" y1="389.2402" y2="389.2402"/></g><!--class RoomRepository--><g id="elem_RoomRepository"><rect codeLine="24" fill="#F1F1F1" height="85.2422" id="RoomRepository" rx="2.5" ry="2.5" style="stroke:#181818;stroke-width:0.5;" width="281" x="22.5" y="667.6348"/><ellipse cx="91.75" cy="683.6348" fill="#B4A7E5" rx="11" ry="11" style="stroke:#181818;stroke-width:1.0;"/><path d="M92.7031,680.2754 L92.7031,686.9316 L94.4219,686.9316 Q95.0313,686.9316 95.2969,687.166 Q95.5625,687.4004 95.5625,687.791 Q95.5625,688.166 95.2969,688.4004 Q95.0313,688.6348 94.4219,688.6348 L89.2813,688.6348 Q88.6719,688.6348 88.4063,688.4004 Q88.1406,688.166 88.1406,687.7754 Q88.1406,687.4004 88.4063,687.166 Q88.6719,686.9316 89.2813,686.9316 L91,686.9316 L91,680.2754 L89.2813,680.2754 Q88.6719,680.2754 88.4063,680.041 Q88.1406,679.8066 88.1406,679.416 Q88.1406,679.041 88.4063,678.8066 Q88.6719,678.5723 89.2813,678.5723 L94.4219,678.5723 Q95.0313,678.5723 95.2969,678.8066 Q95.5625,679.041 95.5625,679.416 Q95.5625,679.8066 95.2969,680.041 Q95.0313,680.2754 94.4219,680.2754 L92.7031,680.2754 Z " fill="#000000"/><text fill="#000000" font-family="sans-serif" font-size="14" font-style="italic" lengthAdjust="spacing" textLength="105" x="112.25" y="689.4316">RoomRepository</text><rect fill="#FFFFFF" height="17.9609" style="stroke:#181818;stroke-width:1.0;stroke-dasharray:2.0,2.0;" width="27" x="279.5" y="664.6348"/><text fill="#000000" font-family="sans-serif" font-size="12" font-style="italic" lengthAdjust="spacing" textLength="25" x="280.5" y="678.584">repo</text><line style="stroke:#181818;stroke-width:0.5;" x1="23.5" x2="302.5" y1="699.6348" y2="699.6348"/><line style="stroke:#181818;stroke-width:0.5;" x1="23.5" x2="302.5" y1="707.6348" y2="707.6348"/><ellipse cx="33.5" cy="722.4453" fill="#84BE84" rx="3" ry="3" style="stroke:#038048;stroke-width:1.0;"/><text fill="#000000" font-family="sans-serif" font-size="14" lengthAdjust="spacing" textLength="255" x="42.5" y="726.7422">containsEntityByID (RoomID id): boolean</text><ellipse cx="33.5" cy="741.0664" fill="#84BE84" rx="3" ry="3" style="stroke:#038048;stroke-width:1.0;"/><text fill="#000000" font-family="sans-serif" font-size="14" lengthAdjust="spacing" textLength="162" x="42.5" y="745.3633">save (Room room): Room</text></g><!--class Room--><g id="elem_Room"><rect codeLine="29" fill="#F1F1F1" height="141.1055" id="Room" rx="2.5" ry="2.5" style="stroke:#181818;stroke-width:0.5;" width="249" x="422.5" y="812.6348"/><ellipse cx="511.75" cy="828.6348" fill="#ADD1B2" rx="11" ry="11" style="stroke:#181818;stroke-width:1.0;"/><path d="M514.5156,824.5098 Q514.6719,824.291 514.8594,824.1816 Q515.0469,824.0723 515.2656,824.0723 Q515.6406,824.0723 515.875,824.3379 Q516.1094,824.5879 516.1094,825.1973 L516.1094,826.6504 Q516.1094,827.2598 515.875,827.5254 Q515.6406,827.791 515.2656,827.791 Q514.9219,827.791 514.7188,827.5879 Q514.5156,827.4004 514.4063,826.8848 Q514.3594,826.5254 514.1719,826.3379 Q513.8438,825.9629 513.2344,825.7441 Q512.625,825.5254 512,825.5254 Q511.2344,825.5254 510.5938,825.8535 Q509.9688,826.1816 509.4688,826.9316 Q508.9844,827.6816 508.9844,828.7129 L508.9844,829.8066 Q508.9844,831.041 509.875,831.8691 Q510.7656,832.6816 512.3594,832.6816 Q513.2969,832.6816 513.9531,832.4316 Q514.3438,832.2754 514.7656,831.8379 Q515.0313,831.5723 515.1719,831.4941 Q515.3281,831.416 515.5313,831.416 Q515.8594,831.416 516.1094,831.6816 Q516.375,831.9316 516.375,832.2754 Q516.375,832.6191 516.0313,833.0254 Q515.5313,833.6035 514.7344,833.9316 Q513.6563,834.3848 512.3594,834.3848 Q510.8438,834.3848 509.6406,833.7598 Q508.6563,833.2598 507.9688,832.1973 Q507.2813,831.1191 507.2813,829.8379 L507.2813,828.6816 Q507.2813,827.3535 507.8906,826.2129 Q508.5156,825.0566 509.6094,824.4473 Q510.7031,823.8223 511.9375,823.8223 Q512.6719,823.8223 513.3125,823.9941 Q513.9688,824.1504 514.5156,824.5098 Z " fill="#000000"/><text fill="#000000" font-family="sans-serif" font-size="14" lengthAdjust="spacing" textLength="37" x="532.25" y="834.4316">Room</text><rect fill="#FFFFFF" height="17.9609" style="stroke:#181818;stroke-width:1.0;stroke-dasharray:2.0,2.0;" width="23" x="651.5" y="809.6348"/><text fill="#000000" font-family="sans-serif" font-size="12" font-style="italic" lengthAdjust="spacing" textLength="21" x="652.5" y="823.584">root</text><line style="stroke:#181818;stroke-width:0.5;" x1="423.5" x2="670.5" y1="844.6348" y2="844.6348"/><rect fill="none" height="6" style="stroke:#C82930;stroke-width:1.0;" width="6" x="430.5" y="856.4453"/><text fill="#000000" font-family="sans-serif" font-size="14" lengthAdjust="spacing" textLength="113" x="442.5" y="863.7422">houseID: HouseID</text><rect fill="none" height="6" style="stroke:#C82930;stroke-width:1.0;" width="6" x="430.5" y="875.0664"/><text fill="#000000" font-family="sans-serif" font-size="14" lengthAdjust="spacing" textLength="103" x="442.5" y="882.3633">roomID: RoomID</text><rect fill="none" height="6" style="stroke:#C82930;stroke-width:1.0;" width="6" x="430.5" y="893.6875"/><text fill="#000000" font-family="sans-serif" font-size="14" lengthAdjust="spacing" textLength="143" x="442.5" y="900.9844">roomFloor: RoomFloor</text><rect fill="none" height="6" style="stroke:#C82930;stroke-width:1.0;" width="6" x="430.5" y="912.3086"/><text fill="#000000" font-family="sans-serif" font-size="14" lengthAdjust="spacing" textLength="223" x="442.5" y="919.6055">roomDimensions: RoomDimensions</text><line style="stroke:#181818;stroke-width:0.5;" x1="423.5" x2="670.5" y1="927.1191" y2="927.1191"/><ellipse cx="433.5" cy="941.9297" fill="#84BE84" rx="3" ry="3" style="stroke:#038048;stroke-width:1.0;"/><text fill="#000000" font-family="sans-serif" font-size="14" lengthAdjust="spacing" textLength="113" x="442.5" y="946.2266">identity(): RoomID</text></g><!--class RoomDimensions--><g id="elem_RoomDimensions"><rect codeLine="37" fill="#F1F1F1" height="159.7266" id="RoomDimensions" rx="2.5" ry="2.5" style="stroke:#181818;stroke-width:0.5;" width="163" x="395.5" y="246.6348"/><ellipse cx="410.5" cy="262.6348" fill="#ADD1B2" rx="11" ry="11" style="stroke:#181818;stroke-width:1.0;"/><path d="M413.2656,258.5098 Q413.4219,258.291 413.6094,258.1816 Q413.7969,258.0723 414.0156,258.0723 Q414.3906,258.0723 414.625,258.3379 Q414.8594,258.5879 414.8594,259.1973 L414.8594,260.6504 Q414.8594,261.2598 414.625,261.5254 Q414.3906,261.791 414.0156,261.791 Q413.6719,261.791 413.4688,261.5879 Q413.2656,261.4004 413.1563,260.8848 Q413.1094,260.5254 412.9219,260.3379 Q412.5938,259.9629 411.9844,259.7441 Q411.375,259.5254 410.75,259.5254 Q409.9844,259.5254 409.3438,259.8535 Q408.7188,260.1816 408.2188,260.9316 Q407.7344,261.6816 407.7344,262.7129 L407.7344,263.8066 Q407.7344,265.041 408.625,265.8691 Q409.5156,266.6816 411.1094,266.6816 Q412.0469,266.6816 412.7031,266.4316 Q413.0938,266.2754 413.5156,265.8379 Q413.7813,265.5723 413.9219,265.4941 Q414.0781,265.416 414.2813,265.416 Q414.6094,265.416 414.8594,265.6816 Q415.125,265.9316 415.125,266.2754 Q415.125,266.6191 414.7813,267.0254 Q414.2813,267.6035 413.4844,267.9316 Q412.4063,268.3848 411.1094,268.3848 Q409.5938,268.3848 408.3906,267.7598 Q407.4063,267.2598 406.7188,266.1973 Q406.0313,265.1191 406.0313,263.8379 L406.0313,262.6816 Q406.0313,261.3535 406.6406,260.2129 Q407.2656,259.0566 408.3594,258.4473 Q409.4531,257.8223 410.6875,257.8223 Q411.4219,257.8223 412.0625,257.9941 Q412.7188,258.1504 413.2656,258.5098 Z " fill="#000000"/><text fill="#000000" font-family="sans-serif" font-size="14" lengthAdjust="spacing" textLength="110" x="424.5" y="268.4316">RoomDimensions</text><rect fill="#FFFFFF" height="17.9609" style="stroke:#181818;stroke-width:1.0;stroke-dasharray:2.0,2.0;" width="19" x="542.5" y="243.6348"/><text fill="#000000" font-family="sans-serif" font-size="12" font-style="italic" lengthAdjust="spacing" textLength="17" x="543.5" y="257.584">VO</text><line style="stroke:#181818;stroke-width:0.5;" x1="396.5" x2="557.5" y1="278.6348" y2="278.6348"/><rect fill="none" height="6" style="stroke:#C82930;stroke-width:1.0;" width="6" x="403.5" y="290.4453"/><text fill="#000000" font-family="sans-serif" font-size="14" lengthAdjust="spacing" textLength="90" x="415.5" y="297.7422">length: double</text><rect fill="none" height="6" style="stroke:#C82930;stroke-width:1.0;" width="6" x="403.5" y="309.0664"/><text fill="#000000" font-family="sans-serif" font-size="14" lengthAdjust="spacing" textLength="83" x="415.5" y="316.3633">width: double</text><rect fill="none" height="6" style="stroke:#C82930;stroke-width:1.0;" width="6" x="403.5" y="327.6875"/><text fill="#000000" font-family="sans-serif" font-size="14" lengthAdjust="spacing" textLength="90" x="415.5" y="334.9844">height: double</text><line style="stroke:#181818;stroke-width:0.5;" x1="396.5" x2="557.5" y1="342.498" y2="342.498"/><ellipse cx="406.5" cy="357.3086" fill="#84BE84" rx="3" ry="3" style="stroke:#038048;stroke-width:1.0;"/><text fill="#000000" font-family="sans-serif" font-size="14" lengthAdjust="spacing" textLength="125" x="415.5" y="361.6055">getLength(): double</text><ellipse cx="406.5" cy="375.9297" fill="#84BE84" rx="3" ry="3" style="stroke:#038048;stroke-width:1.0;"/><text fill="#000000" font-family="sans-serif" font-size="14" lengthAdjust="spacing" textLength="117" x="415.5" y="380.2266">getWidth(): double</text><ellipse cx="406.5" cy="394.5508" fill="#84BE84" rx="3" ry="3" style="stroke:#038048;stroke-width:1.0;"/><text fill="#000000" font-family="sans-serif" font-size="14" lengthAdjust="spacing" textLength="121" x="415.5" y="398.8477">getHeight(): double</text></g><!--class RoomID--><g id="elem_RoomID"><rect codeLine="46" fill="#F1F1F1" height="85.2422" id="RoomID" rx="2.5" ry="2.5" style="stroke:#181818;stroke-width:0.5;" width="174" x="594" y="284.1348"/><ellipse cx="641.25" cy="300.1348" fill="#ADD1B2" rx="11" ry="11" style="stroke:#181818;stroke-width:1.0;"/><path d="M644.0156,296.0098 Q644.1719,295.791 644.3594,295.6816 Q644.5469,295.5723 644.7656,295.5723 Q645.1406,295.5723 645.375,295.8379 Q645.6094,296.0879 645.6094,296.6973 L645.6094,298.1504 Q645.6094,298.7598 645.375,299.0254 Q645.1406,299.291 644.7656,299.291 Q644.4219,299.291 644.2188,299.0879 Q644.0156,298.9004 643.9063,298.3848 Q643.8594,298.0254 643.6719,297.8379 Q643.3438,297.4629 642.7344,297.2441 Q642.125,297.0254 641.5,297.0254 Q640.7344,297.0254 640.0938,297.3535 Q639.4688,297.6816 638.9688,298.4316 Q638.4844,299.1816 638.4844,300.2129 L638.4844,301.3066 Q638.4844,302.541 639.375,303.3691 Q640.2656,304.1816 641.8594,304.1816 Q642.7969,304.1816 643.4531,303.9316 Q643.8438,303.7754 644.2656,303.3379 Q644.5313,303.0723 644.6719,302.9941 Q644.8281,302.916 645.0313,302.916 Q645.3594,302.916 645.6094,303.1816 Q645.875,303.4316 645.875,303.7754 Q645.875,304.1191 645.5313,304.5254 Q645.0313,305.1035 644.2344,305.4316 Q643.1563,305.8848 641.8594,305.8848 Q640.3438,305.8848 639.1406,305.2598 Q638.1563,304.7598 637.4688,303.6973 Q636.7813,302.6191 636.7813,301.3379 L636.7813,300.1816 Q636.7813,298.8535 637.3906,297.7129 Q638.0156,296.5566 639.1094,295.9473 Q640.2031,295.3223 641.4375,295.3223 Q642.1719,295.3223 642.8125,295.4941 Q643.4688,295.6504 644.0156,296.0098 Z " fill="#000000"/><text fill="#000000" font-family="sans-serif" font-size="14" lengthAdjust="spacing" textLength="50" x="661.75" y="305.9316">RoomID</text><rect fill="#FFFFFF" height="17.9609" style="stroke:#181818;stroke-width:1.0;stroke-dasharray:2.0,2.0;" width="19" x="752" y="281.1348"/><text fill="#000000" font-family="sans-serif" font-size="12" font-style="italic" lengthAdjust="spacing" textLength="17" x="753" y="295.084">VO</text><line style="stroke:#181818;stroke-width:0.5;" x1="595" x2="767" y1="316.1348" y2="316.1348"/><rect fill="none" height="6" style="stroke:#C82930;stroke-width:1.0;" width="6" x="602" y="327.9453"/><text fill="#000000" font-family="sans-serif" font-size="14" lengthAdjust="spacing" textLength="113" x="614" y="335.2422">roomName: String</text><line style="stroke:#181818;stroke-width:0.5;" x1="595" x2="767" y1="342.7559" y2="342.7559"/><ellipse cx="605" cy="357.5664" fill="#84BE84" rx="3" ry="3" style="stroke:#038048;stroke-width:1.0;"/><text fill="#000000" font-family="sans-serif" font-size="14" lengthAdjust="spacing" textLength="148" x="614" y="361.8633">getRoomName(): String</text></g><!--class RoomFloor--><g id="elem_RoomFloor"><rect codeLine="51" fill="#F1F1F1" height="85.2422" id="RoomFloor" rx="2.5" ry="2.5" style="stroke:#181818;stroke-width:0.5;" width="161" x="803.5" y="284.1348"/><ellipse cx="835.6" cy="300.1348" fill="#ADD1B2" rx="11" ry="11" style="stroke:#181818;stroke-width:1.0;"/><path d="M838.3656,296.0098 Q838.5219,295.791 838.7094,295.6816 Q838.8969,295.5723 839.1156,295.5723 Q839.4906,295.5723 839.725,295.8379 Q839.9594,296.0879 839.9594,296.6973 L839.9594,298.1504 Q839.9594,298.7598 839.725,299.0254 Q839.4906,299.291 839.1156,299.291 Q838.7719,299.291 838.5688,299.0879 Q838.3656,298.9004 838.2563,298.3848 Q838.2094,298.0254 838.0219,297.8379 Q837.6938,297.4629 837.0844,297.2441 Q836.475,297.0254 835.85,297.0254 Q835.0844,297.0254 834.4438,297.3535 Q833.8188,297.6816 833.3188,298.4316 Q832.8344,299.1816 832.8344,300.2129 L832.8344,301.3066 Q832.8344,302.541 833.725,303.3691 Q834.6156,304.1816 836.2094,304.1816 Q837.1469,304.1816 837.8031,303.9316 Q838.1938,303.7754 838.6156,303.3379 Q838.8813,303.0723 839.0219,302.9941 Q839.1781,302.916 839.3813,302.916 Q839.7094,302.916 839.9594,303.1816 Q840.225,303.4316 840.225,303.7754 Q840.225,304.1191 839.8813,304.5254 Q839.3813,305.1035 838.5844,305.4316 Q837.5063,305.8848 836.2094,305.8848 Q834.6938,305.8848 833.4906,305.2598 Q832.5063,304.7598 831.8188,303.6973 Q831.1313,302.6191 831.1313,301.3379 L831.1313,300.1816 Q831.1313,298.8535 831.7406,297.7129 Q832.3656,296.5566 833.4594,295.9473 Q834.5531,295.3223 835.7875,295.3223 Q836.5219,295.3223 837.1625,295.4941 Q837.8188,295.6504 838.3656,296.0098 Z " fill="#000000"/><text fill="#000000" font-family="sans-serif" font-size="14" lengthAdjust="spacing" textLength="70" x="853.4" y="305.9316">RoomFloor</text><rect fill="#FFFFFF" height="17.9609" style="stroke:#181818;stroke-width:1.0;stroke-dasharray:2.0,2.0;" width="19" x="948.5" y="281.1348"/><text fill="#000000" font-family="sans-serif" font-size="12" font-style="italic" lengthAdjust="spacing" textLength="17" x="949.5" y="295.084">VO</text><line style="stroke:#181818;stroke-width:0.5;" x1="804.5" x2="963.5" y1="316.1348" y2="316.1348"/><rect fill="none" height="6" style="stroke:#C82930;stroke-width:1.0;" width="6" x="811.5" y="327.9453"/><text fill="#000000" font-family="sans-serif" font-size="14" lengthAdjust="spacing" textLength="100" x="823.5" y="335.2422">floorNumber: int</text><line style="stroke:#181818;stroke-width:0.5;" x1="804.5" x2="963.5" y1="342.7559" y2="342.7559"/><ellipse cx="814.5" cy="357.5664" fill="#84BE84" rx="3" ry="3" style="stroke:#038048;stroke-width:1.0;"/><text fill="#000000" font-family="sans-serif" font-size="14" lengthAdjust="spacing" textLength="135" x="823.5" y="361.8633">getFloorNumber(): int</text></g><!--class RoomService--><g id="elem_RoomService"><rect codeLine="56" fill="#F1F1F1" height="141.1055" id="RoomService" rx="2.5" ry="2.5" style="stroke:#181818;stroke-width:0.5;" width="429" x="507.5" y="466.6348"/><ellipse cx="675.75" cy="482.6348" fill="#ADD1B2" rx="11" ry="11" style="stroke:#181818;stroke-width:1.0;"/><path d="M678.5156,478.5098 Q678.6719,478.291 678.8594,478.1816 Q679.0469,478.0723 679.2656,478.0723 Q679.6406,478.0723 679.875,478.3379 Q680.1094,478.5879 680.1094,479.1973 L680.1094,480.6504 Q680.1094,481.2598 679.875,481.5254 Q679.6406,481.791 679.2656,481.791 Q678.9219,481.791 678.7188,481.5879 Q678.5156,481.4004 678.4063,480.8848 Q678.3594,480.5254 678.1719,480.3379 Q677.8438,479.9629 677.2344,479.7441 Q676.625,479.5254 676,479.5254 Q675.2344,479.5254 674.5938,479.8535 Q673.9688,480.1816 673.4688,480.9316 Q672.9844,481.6816 672.9844,482.7129 L672.9844,483.8066 Q672.9844,485.041 673.875,485.8691 Q674.7656,486.6816 676.3594,486.6816 Q677.2969,486.6816 677.9531,486.4316 Q678.3438,486.2754 678.7656,485.8379 Q679.0313,485.5723 679.1719,485.4941 Q679.3281,485.416 679.5313,485.416 Q679.8594,485.416 680.1094,485.6816 Q680.375,485.9316 680.375,486.2754 Q680.375,486.6191 680.0313,487.0254 Q679.5313,487.6035 678.7344,487.9316 Q677.6563,488.3848 676.3594,488.3848 Q674.8438,488.3848 673.6406,487.7598 Q672.6563,487.2598 671.9688,486.1973 Q671.2813,485.1191 671.2813,483.8379 L671.2813,482.6816 Q671.2813,481.3535 671.8906,480.2129 Q672.5156,479.0566 673.6094,478.4473 Q674.7031,477.8223 675.9375,477.8223 Q676.6719,477.8223 677.3125,477.9941 Q677.9688,478.1504 678.5156,478.5098 Z " fill="#000000"/><text fill="#000000" font-family="sans-serif" font-size="14" lengthAdjust="spacing" textLength="84" x="696.25" y="488.4316">RoomService</text><line style="stroke:#181818;stroke-width:0.5;" x1="508.5" x2="935.5" y1="498.6348" y2="498.6348"/><rect fill="none" height="6" style="stroke:#C82930;stroke-width:1.0;" width="6" x="515.5" y="510.4453"/><text fill="#000000" font-family="sans-serif" font-size="14" lengthAdjust="spacing" textLength="213" x="527.5" y="517.7422">roomRepository: RoomRepository</text><rect fill="none" height="6" style="stroke:#C82930;stroke-width:1.0;" width="6" x="515.5" y="529.0664"/><text fill="#000000" font-family="sans-serif" font-size="14" lengthAdjust="spacing" textLength="173" x="527.5" y="536.3633">factoryRoom: FactoryRoom</text><rect fill="none" height="6" style="stroke:#C82930;stroke-width:1.0;" width="6" x="515.5" y="547.6875"/><text fill="#000000" font-family="sans-serif" font-size="14" lengthAdjust="spacing" textLength="223" x="527.5" y="554.9844">houseRepository: HouseRepository</text><line style="stroke:#181818;stroke-width:0.5;" x1="508.5" x2="935.5" y1="562.498" y2="562.498"/><ellipse cx="518.5" cy="586.6191" fill="#84BE84" rx="3" ry="3" style="stroke:#038048;stroke-width:1.0;"/><text fill="#000000" font-family="sans-serif" font-size="14" lengthAdjust="spacing" textLength="389" x="527.5" y="581.6055">createRoomAndSave(RoomID roomID, RoomFloor roomFloor,</text><text fill="#000000" font-family="sans-serif" font-size="14" lengthAdjust="spacing" textLength="399" x="531.5" y="600.2266">RoomDimensions roomDimensions, HouseID houseID): RoomID</text></g><!--class FactoryRoom--><g id="elem_FactoryRoom"><rect codeLine="64" fill="#F1F1F1" height="85.2422" id="FactoryRoom" rx="2.5" ry="2.5" style="stroke:#181818;stroke-width:0.5;" width="416" x="339" y="667.6348"/><ellipse cx="480.25" cy="683.6348" fill="#B4A7E5" rx="11" ry="11" style="stroke:#181818;stroke-width:1.0;"/><path d="M481.2031,680.2754 L481.2031,686.9316 L482.9219,686.9316 Q483.5313,686.9316 483.7969,687.166 Q484.0625,687.4004 484.0625,687.791 Q484.0625,688.166 483.7969,688.4004 Q483.5313,688.6348 482.9219,688.6348 L477.7813,688.6348 Q477.1719,688.6348 476.9063,688.4004 Q476.6406,688.166 476.6406,687.7754 Q476.6406,687.4004 476.9063,687.166 Q477.1719,686.9316 477.7813,686.9316 L479.5,686.9316 L479.5,680.2754 L477.7813,680.2754 Q477.1719,680.2754 476.9063,680.041 Q476.6406,679.8066 476.6406,679.416 Q476.6406,679.041 476.9063,678.8066 Q477.1719,678.5723 477.7813,678.5723 L482.9219,678.5723 Q483.5313,678.5723 483.7969,678.8066 Q484.0625,679.041 484.0625,679.416 Q484.0625,679.8066 483.7969,680.041 Q483.5313,680.2754 482.9219,680.2754 L481.2031,680.2754 Z " fill="#000000"/><text fill="#000000" font-family="sans-serif" font-size="14" font-style="italic" lengthAdjust="spacing" textLength="85" x="500.75" y="689.4316">FactoryRoom</text><rect fill="#FFFFFF" height="17.9609" style="stroke:#181818;stroke-width:1.0;stroke-dasharray:2.0,2.0;" width="38" x="720" y="664.6348"/><text fill="#000000" font-family="sans-serif" font-size="12" font-style="italic" lengthAdjust="spacing" textLength="36" x="721" y="678.584">factory</text><line style="stroke:#181818;stroke-width:0.5;" x1="340" x2="754" y1="699.6348" y2="699.6348"/><line style="stroke:#181818;stroke-width:0.5;" x1="340" x2="754" y1="707.6348" y2="707.6348"/><ellipse cx="350" cy="731.7559" fill="#84BE84" rx="3" ry="3" style="stroke:#038048;stroke-width:1.0;"/><text fill="#000000" font-family="sans-serif" font-size="14" lengthAdjust="spacing" textLength="344" x="359" y="726.7422">createRoom(RoomID roomID, RoomFloor floorNumber,</text><text fill="#000000" font-family="sans-serif" font-size="14" lengthAdjust="spacing" textLength="386" x="363" y="745.3633">RoomDimensions roomDimensions, HouseID houseID): Room</text></g><!--class HouseRepository--><g id="elem_HouseRepository"><rect codeLine="68" fill="#F1F1F1" height="66.6211" id="HouseRepository" rx="2.5" ry="2.5" style="stroke:#181818;stroke-width:0.5;" width="321" x="790.5" y="676.6348"/><ellipse cx="877.75" cy="692.6348" fill="#B4A7E5" rx="11" ry="11" style="stroke:#181818;stroke-width:1.0;"/><path d="M878.7031,689.2754 L878.7031,695.9316 L880.4219,695.9316 Q881.0313,695.9316 881.2969,696.166 Q881.5625,696.4004 881.5625,696.791 Q881.5625,697.166 881.2969,697.4004 Q881.0313,697.6348 880.4219,697.6348 L875.2813,697.6348 Q874.6719,697.6348 874.4063,697.4004 Q874.1406,697.166 874.1406,696.7754 Q874.1406,696.4004 874.4063,696.166 Q874.6719,695.9316 875.2813,695.9316 L877,695.9316 L877,689.2754 L875.2813,689.2754 Q874.6719,689.2754 874.4063,689.041 Q874.1406,688.8066 874.1406,688.416 Q874.1406,688.041 874.4063,687.8066 Q874.6719,687.5723 875.2813,687.5723 L880.4219,687.5723 Q881.0313,687.5723 881.2969,687.8066 Q881.5625,688.041 881.5625,688.416 Q881.5625,688.8066 881.2969,689.041 Q881.0313,689.2754 880.4219,689.2754 L878.7031,689.2754 Z " fill="#000000"/><text fill="#000000" font-family="sans-serif" font-size="14" font-style="italic" lengthAdjust="spacing" textLength="109" x="898.25" y="698.4316">HouseRepository</text><rect fill="#FFFFFF" height="17.9609" style="stroke:#181818;stroke-width:1.0;stroke-dasharray:2.0,2.0;" width="27" x="1087.5" y="673.6348"/><text fill="#000000" font-family="sans-serif" font-size="12" font-style="italic" lengthAdjust="spacing" textLength="25" x="1088.5" y="687.584">repo</text><line style="stroke:#181818;stroke-width:0.5;" x1="791.5" x2="1110.5" y1="708.6348" y2="708.6348"/><line style="stroke:#181818;stroke-width:0.5;" x1="791.5" x2="1110.5" y1="716.6348" y2="716.6348"/><ellipse cx="801.5" cy="731.4453" fill="#84BE84" rx="3" ry="3" style="stroke:#038048;stroke-width:1.0;"/><text fill="#000000" font-family="sans-serif" font-size="14" lengthAdjust="spacing" textLength="295" x="810.5" y="735.7422">containsEntityByID(HouseID houseID): boolean</text></g><!--link AddNewRoomToHouseController to HouseID--><g id="link_AddNewRoomToHouseController_HouseID"><path codeLine="74" d="M350.2,134.6348 C228.62,134.6348 104,134.6348 104,134.6348 C104,134.6348 104,231.6348 104,286.7548 " fill="none" id="AddNewRoomToHouseController-to-HouseID" style="stroke:#181818;stroke-width:1.0;stroke-dasharray:7.0,7.0;"/><polygon fill="#181818" points="104,292.7548,108,283.7548,104,287.7548,100,283.7548,104,292.7548" style="stroke:#181818;stroke-width:1.0;"/><text fill="#000000" font-family="sans-serif" font-size="13" lengthAdjust="spacing" textLength="57" x="90.04" y="130.6631">&#171;creates&#187;</text></g><!--link AddNewRoomToHouseController to RoomID--><g id="link_AddNewRoomToHouseController_RoomID"><path codeLine="75" d="M681,186.8448 C681,217.2748 681,249.1648 681,277.8248 " fill="none" id="AddNewRoomToHouseController-to-RoomID" style="stroke:#181818;stroke-width:1.0;stroke-dasharray:7.0,7.0;"/><polygon fill="#181818" points="681,283.8248,685,274.8248,681,278.8248,677,274.8248,681,283.8248" style="stroke:#181818;stroke-width:1.0;"/><text fill="#000000" font-family="sans-serif" font-size="13" lengthAdjust="spacing" textLength="57" x="623" y="231.3631">&#171;creates&#187;</text></g><!--link AddNewRoomToHouseController to RoomFloor--><g id="link_AddNewRoomToHouseController_RoomFloor"><path codeLine="76" d="M791.67,186.8448 C791.67,243.7048 791.67,326.6348 791.67,326.6348 C791.67,326.6348 790.24,326.6348 797.36,326.6348 " fill="none" id="AddNewRoomToHouseController-to-RoomFloor" style="stroke:#181818;stroke-width:1.0;stroke-dasharray:7.0,7.0;"/><polygon fill="#181818" points="803.36,326.6348,794.36,322.6348,798.36,326.6348,794.36,330.6348,803.36,326.6348" style="stroke:#181818;stroke-width:1.0;"/><text fill="#000000" font-family="sans-serif" font-size="13" lengthAdjust="spacing" textLength="57" x="733.67" y="258.6131">&#171;creates&#187;</text></g><!--link AddNewRoomToHouseController to RoomDimensions--><g id="link_AddNewRoomToHouseController_RoomDimensions"><path codeLine="77" d="M477,186.8448 C477,205.1648 477,220.1948 477,240.2948 " fill="none" id="AddNewRoomToHouseController-to-RoomDimensions" style="stroke:#181818;stroke-width:1.0;stroke-dasharray:7.0,7.0;"/><polygon fill="#181818" points="477,246.2948,481,237.2948,477,241.2948,473,237.2948,477,246.2948" style="stroke:#181818;stroke-width:1.0;"/><text fill="#000000" font-family="sans-serif" font-size="13" lengthAdjust="spacing" textLength="57" x="419" y="212.5931">&#171;creates&#187;</text></g><!--link AddNewRoomToHouseController to RoomDTO--><g id="link_AddNewRoomToHouseController_RoomDTO"><path codeLine="78" d="M355.5,186.8448 C355.5,208.1648 355.5,227.1548 355.5,250.0648 " fill="none" id="AddNewRoomToHouseController-to-RoomDTO" style="stroke:#181818;stroke-width:1.0;stroke-dasharray:7.0,7.0;"/><polygon fill="#181818" points="355.5,256.0648,359.5,247.0648,355.5,251.0648,351.5,247.0648,355.5,256.0648" style="stroke:#181818;stroke-width:1.0;"/><text fill="#000000" font-family="sans-serif" font-size="13" lengthAdjust="spacing" textLength="57" x="297.5" y="217.4831">&#171;creates&#187;</text></g><!--link AddNewRoomToHouseController to RoomService--><g id="link_AddNewRoomToHouseController_RoomService"><path codeLine="79" d="M779.83,186.8448 C779.83,258.2048 779.83,386.4548 779.83,466.3948 " fill="none" id="AddNewRoomToHouseController-RoomService" style="stroke:#181818;stroke-width:1.0;"/></g><!--link RoomService to RoomRepository--><g id="link_RoomService_RoomRepository"><path codeLine="80" d="M507.38,537.6348 C387.69,537.6348 262.5,537.6348 262.5,537.6348 C262.5,537.6348 262.5,616.4148 262.5,667.4948 " fill="none" id="RoomService-RoomRepository" style="stroke:#181818;stroke-width:1.0;"/></g><!--link RoomService to HouseRepository--><g id="link_RoomService_HouseRepository"><path codeLine="81" d="M863.5,607.9948 C863.5,631.7048 863.5,657.0248 863.5,676.5248 " fill="none" id="RoomService-HouseRepository" style="stroke:#181818;stroke-width:1.0;"/></g><!--link RoomService to FactoryRoom--><g id="link_RoomService_FactoryRoom"><path codeLine="82" d="M631.25,607.9948 C631.25,628.1548 631.25,649.4848 631.25,667.4048 " fill="none" id="RoomService-FactoryRoom" style="stroke:#181818;stroke-width:1.0;"/></g><!--link FactoryRoom to Room--><g id="link_FactoryRoom_Room"><path codeLine="83" d="M547,752.8948 C547,770.9048 547,786.3548 547,806.5848 " fill="none" id="FactoryRoom-to-Room" style="stroke:#181818;stroke-width:1.0;stroke-dasharray:7.0,7.0;"/><polygon fill="#181818" points="547,812.5848,551,803.5848,547,807.5848,543,803.5848,547,812.5848" style="stroke:#181818;stroke-width:1.0;"/><text fill="#000000" font-family="sans-serif" font-size="13" lengthAdjust="spacing" textLength="57" x="489" y="778.7731">&#171;creates&#187;</text></g><!--SRC=[dLLDZzem4BtdLrZgeQmWKFKO8QJjKifAAv1WjxtqOf8XiJQn8ziiYb3_U_r5OWVQBKL8SMRiDs-Utu0aiWJqyl3fSuBkimnXHE68E6CLaWp90b313WAYZuMKjKWcaxh4L1wgSfooQfAMM8Wu8pZdk8h4Aw4rLYjK4WgogG4nBWiMHJLENt4EI01_0uu-F96yaDyuRj0fCXYwzWgE6rNtcIrrnGT69MTbgRQV8gG-iIQrLG0aXGHjkXURDJGVvmbQseM93bCEM8BUV4-pBNw3Hxg1cWaY6My6EZv_NfjsrVFEmgfLz2jol1mQcdvVpqv-fGoe97i2F45RoGdDkpCEn6uVQl0Lhg3TPwBxaZ6-EbGx3K2ejD4IQ2wB16Nii2jjOyCZoVgX0hH-RKmLLWZ0zpW5Kxnh4KsvMZlcmrHfYWaLNnLrsNnfL5z60_KacUf-nrW9cDhDGgbbqqOV9qxOfO9dJ8R2zAx0N9iEsa9TRA4Li66px39pKW4LX57XBgHzjyo8qLusWxiMDTI-tUzVsnLjuqjjuvwsfc0EyicSrXLxYHyQuafyQN2yH40nTDHrYoYGZKjec6ikCyBvIDTjfP0MNKA3wLI0v6P9pPfXqpaewJagYfNDz4A74xJeNY9h0F_eCWn4b_DuzfzroSZhglN82Fsa_NiDRJ9gnzHPC326DnmUMpHrVRJ3qLBxCoTFtj7_aWh7jQVGU_CwkCGy3ws2LT-__OwEnxCpfmHDfxPXCPkzUsZZHlZMCsx4Rptcp__DPv_N_tueZkFWZyGV19VopDlBzhtTI_k3uTlkJ3Ha-Hi0]--></g></svg>