<svg xmlns="http://www.w3.org/2000/svg" xmlns:xlink="http://www.w3.org/1999/xlink" contentStyleType="text/css" height="668px" preserveAspectRatio="none" style="width:1223px;height:668px;background:#FFFFFF;" version="1.1" viewBox="0 0 1223 668" width="1223px" zoomAndPan="magnify"><defs/><g><text fill="#000000" font-family="sans-serif" font-size="14" font-weight="bold" lengthAdjust="spacing" textLength="246" x="481.5" y="22.9951">UC05 Add new device to room.</text><!--cluster server--><g id="cluster_server"><path d="M8.5,43.2969 L61.5,43.2969 A3.75,3.75 0 0 1 64,45.7969 L71,65.5938 L1213.5,65.5938 A2.5,2.5 0 0 1 1216,68.0938 L1216,659.3569 A2.5,2.5 0 0 1 1213.5,661.8569 L8.5,661.8569 A2.5,2.5 0 0 1 6,659.3569 L6,45.7969 A2.5,2.5 0 0 1 8.5,43.2969 " fill="#D3D3D3" style="stroke:#000000;stroke-width:1.5;"/><line style="stroke:#000000;stroke-width:1.5;" x1="6" x2="71" y1="65.5938" y2="65.5938"/><text fill="#000000" font-family="sans-serif" font-size="14" font-weight="bold" lengthAdjust="spacing" textLength="52" x="10" y="58.292">server</text></g><!--class AddNewDeviceToRoomController--><g id="elem_AddNewDeviceToRoomController"><rect codeLine="5" fill="#F1F1F1" height="96.8906" id="AddNewDeviceToRoomController" rx="2.5" ry="2.5" style="stroke:#181818;stroke-width:0.5;" width="421" x="467.5" y="416.5169"/><ellipse cx="558.75" cy="432.5169" fill="#ADD1B2" rx="11" ry="11" style="stroke:#181818;stroke-width:1.0;"/><path d="M561.7188,438.1575 Q561.1406,438.4544 560.5,438.595 Q559.8594,438.7512 559.1563,438.7512 Q556.6563,438.7512 555.3281,437.1106 Q554.0156,435.4544 554.0156,432.3294 Q554.0156,429.2044 555.3281,427.5481 Q556.6563,425.8919 559.1563,425.8919 Q559.8594,425.8919 560.5,426.0481 Q561.1563,426.2044 561.7188,426.5012 L561.7188,429.22 Q561.0938,428.6419 560.5,428.3762 Q559.9063,428.095 559.2813,428.095 Q557.9375,428.095 557.25,429.1731 Q556.5625,430.2356 556.5625,432.3294 Q556.5625,434.4231 557.25,435.5012 Q557.9375,436.5637 559.2813,436.5637 Q559.9063,436.5637 560.5,436.2981 Q561.0938,436.0169 561.7188,435.4387 L561.7188,438.1575 Z " fill="#000000"/><text fill="#000000" font-family="sans-serif" font-size="14" lengthAdjust="spacing" textLength="230" x="579.25" y="437.3636">AddNewDeviceToRoomController</text><line style="stroke:#181818;stroke-width:0.5;" x1="468.5" x2="887.5" y1="448.5169" y2="448.5169"/><rect fill="none" height="6" style="stroke:#C82930;stroke-width:1.0;" width="6" x="475.5" y="459.1653"/><text fill="#000000" font-family="sans-serif" font-size="14" lengthAdjust="spacing" textLength="201" x="487.5" y="465.512">deviceService: DeviceService</text><line style="stroke:#181818;stroke-width:0.5;" x1="468.5" x2="887.5" y1="472.8137" y2="472.8137"/><ellipse cx="478.5" cy="494.6106" fill="#84BE84" rx="3" ry="3" style="stroke:#038048;stroke-width:1.0;"/><text fill="#000000" font-family="sans-serif" font-size="14" lengthAdjust="spacing" textLength="395" x="487.5" y="489.8089">createDeviceAndSaveToRepository(RoomDTO roomDTO,</text><text fill="#000000" font-family="sans-serif" font-size="14" lengthAdjust="spacing" textLength="320" x="491.5" y="506.1057">String deviceName, String model) : DeviceDTO</text></g><!--class RoomDTO--><g id="elem_RoomDTO"><rect codeLine="9" fill="#F1F1F1" height="64.2969" id="RoomDTO" rx="2.5" ry="2.5" style="stroke:#181818;stroke-width:0.5;" width="155" x="206.5" y="581.5569"/><ellipse cx="244.45" cy="597.5569" fill="#ADD1B2" rx="11" ry="11" style="stroke:#181818;stroke-width:1.0;"/><path d="M247.4188,603.1975 Q246.8406,603.4944 246.2,603.635 Q245.5594,603.7913 244.8563,603.7913 Q242.3563,603.7913 241.0281,602.1506 Q239.7156,600.4944 239.7156,597.3694 Q239.7156,594.2444 241.0281,592.5881 Q242.3563,590.9319 244.8563,590.9319 Q245.5594,590.9319 246.2,591.0881 Q246.8563,591.2444 247.4188,591.5413 L247.4188,594.26 Q246.7938,593.6819 246.2,593.4163 Q245.6063,593.135 244.9813,593.135 Q243.6375,593.135 242.95,594.2131 Q242.2625,595.2756 242.2625,597.3694 Q242.2625,599.4631 242.95,600.5413 Q243.6375,601.6038 244.9813,601.6038 Q245.6063,601.6038 246.2,601.3381 Q246.7938,601.0569 247.4188,600.4788 L247.4188,603.1975 Z " fill="#000000"/><text fill="#000000" font-family="sans-serif" font-size="14" lengthAdjust="spacing" textLength="72" x="263.55" y="602.4036">RoomDTO</text><line style="stroke:#181818;stroke-width:0.5;" x1="207.5" x2="360.5" y1="613.5569" y2="613.5569"/><ellipse cx="217.5" cy="627.2053" fill="none" rx="3" ry="3" style="stroke:#038048;stroke-width:1.0;"/><text fill="#000000" font-family="sans-serif" font-size="14" lengthAdjust="spacing" textLength="129" x="226.5" y="630.552">roomName : String</text><line style="stroke:#181818;stroke-width:0.5;" x1="207.5" x2="360.5" y1="637.8538" y2="637.8538"/></g><!--class DeviceDTO--><g id="elem_DeviceDTO"><rect codeLine="12" fill="#F1F1F1" height="64.2969" id="DeviceDTO" rx="2.5" ry="2.5" style="stroke:#181818;stroke-width:0.5;" width="164" x="397" y="581.5569"/><ellipse cx="436.3" cy="597.5569" fill="#ADD1B2" rx="11" ry="11" style="stroke:#181818;stroke-width:1.0;"/><path d="M439.2688,603.1975 Q438.6906,603.4944 438.05,603.635 Q437.4094,603.7913 436.7063,603.7913 Q434.2063,603.7913 432.8781,602.1506 Q431.5656,600.4944 431.5656,597.3694 Q431.5656,594.2444 432.8781,592.5881 Q434.2063,590.9319 436.7063,590.9319 Q437.4094,590.9319 438.05,591.0881 Q438.7063,591.2444 439.2688,591.5413 L439.2688,594.26 Q438.6438,593.6819 438.05,593.4163 Q437.4563,593.135 436.8313,593.135 Q435.4875,593.135 434.8,594.2131 Q434.1125,595.2756 434.1125,597.3694 Q434.1125,599.4631 434.8,600.5413 Q435.4875,601.6038 436.8313,601.6038 Q437.4563,601.6038 438.05,601.3381 Q438.6438,601.0569 439.2688,600.4788 L439.2688,603.1975 Z " fill="#000000"/><text fill="#000000" font-family="sans-serif" font-size="14" lengthAdjust="spacing" textLength="78" x="455.7" y="602.4036">DeviceDTO</text><line style="stroke:#181818;stroke-width:0.5;" x1="398" x2="560" y1="613.5569" y2="613.5569"/><ellipse cx="408" cy="627.2053" fill="none" rx="3" ry="3" style="stroke:#038048;stroke-width:1.0;"/><text fill="#000000" font-family="sans-serif" font-size="14" lengthAdjust="spacing" textLength="138" x="417" y="630.552">deviceName : String</text><line style="stroke:#181818;stroke-width:0.5;" x1="398" x2="560" y1="637.8538" y2="637.8538"/></g><!--class DeviceID--><g id="elem_DeviceID"><rect codeLine="15" fill="#F1F1F1" height="64.2969" id="DeviceID" rx="2.5" ry="2.5" style="stroke:#181818;stroke-width:0.5;" width="164" x="596" y="581.5569"/><ellipse cx="633.5" cy="597.5569" fill="#ADD1B2" rx="11" ry="11" style="stroke:#181818;stroke-width:1.0;"/><path d="M636.4688,603.1975 Q635.8906,603.4944 635.25,603.635 Q634.6094,603.7913 633.9063,603.7913 Q631.4063,603.7913 630.0781,602.1506 Q628.7656,600.4944 628.7656,597.3694 Q628.7656,594.2444 630.0781,592.5881 Q631.4063,590.9319 633.9063,590.9319 Q634.6094,590.9319 635.25,591.0881 Q635.9063,591.2444 636.4688,591.5413 L636.4688,594.26 Q635.8438,593.6819 635.25,593.4163 Q634.6563,593.135 634.0313,593.135 Q632.6875,593.135 632,594.2131 Q631.3125,595.2756 631.3125,597.3694 Q631.3125,599.4631 632,600.5413 Q632.6875,601.6038 634.0313,601.6038 Q634.6563,601.6038 635.25,601.3381 Q635.8438,601.0569 636.4688,600.4788 L636.4688,603.1975 Z " fill="#000000"/><text fill="#000000" font-family="sans-serif" font-size="14" lengthAdjust="spacing" textLength="61" x="652.5" y="602.4036">DeviceID</text><rect fill="#FFFFFF" height="15.9688" style="stroke:#181818;stroke-width:1.0;stroke-dasharray:2.0,2.0;" width="19" x="744" y="578.5569"/><text fill="#000000" font-family="sans-serif" font-size="12" font-style="italic" lengthAdjust="spacing" textLength="17" x="745" y="590.6955">VO</text><line style="stroke:#181818;stroke-width:0.5;" x1="597" x2="759" y1="613.5569" y2="613.5569"/><rect fill="none" height="6" style="stroke:#C82930;stroke-width:1.0;" width="6" x="604" y="624.2053"/><text fill="#000000" font-family="sans-serif" font-size="14" lengthAdjust="spacing" textLength="138" x="616" y="630.552">deviceName : String</text><line style="stroke:#181818;stroke-width:0.5;" x1="597" x2="759" y1="637.8538" y2="637.8538"/></g><!--class DeviceModel--><g id="elem_DeviceModel"><rect codeLine="18" fill="#F1F1F1" height="64.2969" id="DeviceModel" rx="2.5" ry="2.5" style="stroke:#181818;stroke-width:0.5;" width="142" x="795" y="581.5569"/><ellipse cx="810" cy="597.5569" fill="#ADD1B2" rx="11" ry="11" style="stroke:#181818;stroke-width:1.0;"/><path d="M812.9688,603.1975 Q812.3906,603.4944 811.75,603.635 Q811.1094,603.7913 810.4063,603.7913 Q807.9063,603.7913 806.5781,602.1506 Q805.2656,600.4944 805.2656,597.3694 Q805.2656,594.2444 806.5781,592.5881 Q807.9063,590.9319 810.4063,590.9319 Q811.1094,590.9319 811.75,591.0881 Q812.4063,591.2444 812.9688,591.5413 L812.9688,594.26 Q812.3438,593.6819 811.75,593.4163 Q811.1563,593.135 810.5313,593.135 Q809.1875,593.135 808.5,594.2131 Q807.8125,595.2756 807.8125,597.3694 Q807.8125,599.4631 808.5,600.5413 Q809.1875,601.6038 810.5313,601.6038 Q811.1563,601.6038 811.75,601.3381 Q812.3438,601.0569 812.9688,600.4788 L812.9688,603.1975 Z " fill="#000000"/><text fill="#000000" font-family="sans-serif" font-size="14" lengthAdjust="spacing" textLength="89" x="824" y="602.4036">DeviceModel</text><rect fill="#FFFFFF" height="15.9688" style="stroke:#181818;stroke-width:1.0;stroke-dasharray:2.0,2.0;" width="19" x="921" y="578.5569"/><text fill="#000000" font-family="sans-serif" font-size="12" font-style="italic" lengthAdjust="spacing" textLength="17" x="922" y="590.6955">VO</text><line style="stroke:#181818;stroke-width:0.5;" x1="796" x2="936" y1="613.5569" y2="613.5569"/><rect fill="none" height="6" style="stroke:#C82930;stroke-width:1.0;" width="6" x="803" y="624.2053"/><text fill="#000000" font-family="sans-serif" font-size="14" lengthAdjust="spacing" textLength="96" x="815" y="630.552">model : String</text><line style="stroke:#181818;stroke-width:0.5;" x1="796" x2="936" y1="637.8538" y2="637.8538"/></g><!--class RoomID--><g id="elem_RoomID"><rect codeLine="21" fill="#F1F1F1" height="64.2969" id="RoomID" rx="2.5" ry="2.5" style="stroke:#181818;stroke-width:0.5;" width="164" x="972" y="581.5569"/><ellipse cx="1012.2" cy="597.5569" fill="#ADD1B2" rx="11" ry="11" style="stroke:#181818;stroke-width:1.0;"/><path d="M1015.1688,603.1975 Q1014.5906,603.4944 1013.95,603.635 Q1013.3094,603.7913 1012.6063,603.7913 Q1010.1063,603.7913 1008.7781,602.1506 Q1007.4656,600.4944 1007.4656,597.3694 Q1007.4656,594.2444 1008.7781,592.5881 Q1010.1063,590.9319 1012.6063,590.9319 Q1013.3094,590.9319 1013.95,591.0881 Q1014.6063,591.2444 1015.1688,591.5413 L1015.1688,594.26 Q1014.5438,593.6819 1013.95,593.4163 Q1013.3563,593.135 1012.7313,593.135 Q1011.3875,593.135 1010.7,594.2131 Q1010.0125,595.2756 1010.0125,597.3694 Q1010.0125,599.4631 1010.7,600.5413 Q1011.3875,601.6038 1012.7313,601.6038 Q1013.3563,601.6038 1013.95,601.3381 Q1014.5438,601.0569 1015.1688,600.4788 L1015.1688,603.1975 Z " fill="#000000"/><text fill="#000000" font-family="sans-serif" font-size="14" lengthAdjust="spacing" textLength="55" x="1031.8" y="602.4036">RoomID</text><rect fill="#FFFFFF" height="15.9688" style="stroke:#181818;stroke-width:1.0;stroke-dasharray:2.0,2.0;" width="19" x="1120" y="578.5569"/><text fill="#000000" font-family="sans-serif" font-size="12" font-style="italic" lengthAdjust="spacing" textLength="17" x="1121" y="590.6955">VO</text><line style="stroke:#181818;stroke-width:0.5;" x1="973" x2="1135" y1="613.5569" y2="613.5569"/><rect fill="none" height="6" style="stroke:#C82930;stroke-width:1.0;" width="6" x="980" y="624.2053"/><text fill="#000000" font-family="sans-serif" font-size="14" lengthAdjust="spacing" textLength="138" x="992" y="630.552">deviceName : String</text><line style="stroke:#181818;stroke-width:0.5;" x1="973" x2="1135" y1="637.8538" y2="637.8538"/></g><!--class DeviceService--><g id="elem_DeviceService"><rect codeLine="24" fill="#F1F1F1" height="129.4844" id="DeviceService" rx="2.5" ry="2.5" style="stroke:#181818;stroke-width:0.5;" width="406" x="321" y="218.8869"/><ellipse cx="471.25" cy="234.8869" fill="#ADD1B2" rx="11" ry="11" style="stroke:#181818;stroke-width:1.0;"/><path d="M474.2188,240.5275 Q473.6406,240.8244 473,240.965 Q472.3594,241.1212 471.6563,241.1212 Q469.1563,241.1212 467.8281,239.4806 Q466.5156,237.8244 466.5156,234.6994 Q466.5156,231.5744 467.8281,229.9181 Q469.1563,228.2619 471.6563,228.2619 Q472.3594,228.2619 473,228.4181 Q473.6563,228.5744 474.2188,228.8712 L474.2188,231.59 Q473.5938,231.0119 473,230.7462 Q472.4063,230.465 471.7813,230.465 Q470.4375,230.465 469.75,231.5431 Q469.0625,232.6056 469.0625,234.6994 Q469.0625,236.7931 469.75,237.8712 Q470.4375,238.9337 471.7813,238.9337 Q472.4063,238.9337 473,238.6681 Q473.5938,238.3869 474.2188,237.8087 L474.2188,240.5275 Z " fill="#000000"/><text fill="#000000" font-family="sans-serif" font-size="14" lengthAdjust="spacing" textLength="97" x="491.75" y="239.7336">DeviceService</text><line style="stroke:#181818;stroke-width:0.5;" x1="322" x2="726" y1="250.8869" y2="250.8869"/><rect fill="none" height="6" style="stroke:#C82930;stroke-width:1.0;" width="6" x="329" y="261.5353"/><text fill="#000000" font-family="sans-serif" font-size="14" lengthAdjust="spacing" textLength="203" x="341" y="267.882">factoryDevice : FactoryDevice</text><rect fill="none" height="6" style="stroke:#C82930;stroke-width:1.0;" width="6" x="329" y="277.8322"/><text fill="#000000" font-family="sans-serif" font-size="14" lengthAdjust="spacing" textLength="238" x="341" y="284.1789">roomRepository : RoomRepository</text><rect fill="none" height="6" style="stroke:#C82930;stroke-width:1.0;" width="6" x="329" y="294.1291"/><text fill="#000000" font-family="sans-serif" font-size="14" lengthAdjust="spacing" textLength="253" x="341" y="300.4757">deviceRepository : DeviceRepository</text><line style="stroke:#181818;stroke-width:0.5;" x1="322" x2="726" y1="307.7775" y2="307.7775"/><ellipse cx="332" cy="329.5744" fill="#84BE84" rx="3" ry="3" style="stroke:#038048;stroke-width:1.0;"/><text fill="#000000" font-family="sans-serif" font-size="14" lengthAdjust="spacing" textLength="376" x="341" y="324.7726">createDeviceAndSaveToRepository(DeviceID deviceID,</text><text fill="#000000" font-family="sans-serif" font-size="14" lengthAdjust="spacing" textLength="376" x="345" y="341.0695">DeviceModel deviceModel, RoomID roomID) : DeviceID</text></g><!--class Repository--><g id="elem_Repository"><rect codeLine="31" fill="#F1F1F1" height="64.2969" id="Repository" rx="2.5" ry="2.5" style="stroke:#181818;stroke-width:0.5;" width="263" x="22.5" y="251.4769"/><ellipse cx="112.75" cy="267.4769" fill="#B4A7E5" rx="11" ry="11" style="stroke:#181818;stroke-width:1.0;"/><path d="M108.6719,263.2425 L108.6719,261.0862 L116.0625,261.0862 L116.0625,263.2425 L113.5938,263.2425 L113.5938,271.3206 L116.0625,271.3206 L116.0625,273.4769 L108.6719,273.4769 L108.6719,271.3206 L111.1406,271.3206 L111.1406,263.2425 L108.6719,263.2425 Z " fill="#000000"/><text fill="#000000" font-family="sans-serif" font-size="14" font-style="italic" lengthAdjust="spacing" textLength="74" x="133.25" y="272.3236">Repository</text><line style="stroke:#181818;stroke-width:0.5;" x1="23.5" x2="284.5" y1="283.4769" y2="283.4769"/><line style="stroke:#181818;stroke-width:0.5;" x1="23.5" x2="284.5" y1="291.4769" y2="291.4769"/><ellipse cx="33.5" cy="305.1253" fill="#84BE84" rx="3" ry="3" style="stroke:#038048;stroke-width:1.0;"/><text fill="#000000" font-family="sans-serif" font-size="14" lengthAdjust="spacing" textLength="237" x="42.5" y="308.472">containsEntityByID(ID id) : boolean</text></g><!--class DeviceRepository--><g id="elem_DeviceRepository"><rect codeLine="35" fill="#F1F1F1" height="64.2969" id="DeviceRepository" rx="2.5" ry="2.5" style="stroke:#181818;stroke-width:0.5;" width="217" x="33.5" y="432.8169"/><ellipse cx="77.3" cy="448.8169" fill="#B4A7E5" rx="11" ry="11" style="stroke:#181818;stroke-width:1.0;"/><path d="M73.2219,444.5825 L73.2219,442.4263 L80.6125,442.4263 L80.6125,444.5825 L78.1438,444.5825 L78.1438,452.6606 L80.6125,452.6606 L80.6125,454.8169 L73.2219,454.8169 L73.2219,452.6606 L75.6906,452.6606 L75.6906,444.5825 L73.2219,444.5825 Z " fill="#000000"/><text fill="#000000" font-family="sans-serif" font-size="14" font-style="italic" lengthAdjust="spacing" textLength="121" x="97.7" y="453.6636">DeviceRepository</text><line style="stroke:#181818;stroke-width:0.5;" x1="34.5" x2="249.5" y1="464.8169" y2="464.8169"/><line style="stroke:#181818;stroke-width:0.5;" x1="34.5" x2="249.5" y1="472.8169" y2="472.8169"/><ellipse cx="44.5" cy="486.4653" fill="#84BE84" rx="3" ry="3" style="stroke:#038048;stroke-width:1.0;"/><text fill="#000000" font-family="sans-serif" font-size="14" lengthAdjust="spacing" textLength="191" x="53.5" y="489.812">save(Device entity) : Device</text></g><!--class RoomRepository--><g id="elem_RoomRepository"><rect codeLine="39" fill="#F1F1F1" height="48" id="RoomRepository" rx="2.5" ry="2.5" style="stroke:#181818;stroke-width:0.5;" width="147" x="285.5" y="440.9669"/><ellipse cx="300.5" cy="456.9669" fill="#B4A7E5" rx="11" ry="11" style="stroke:#181818;stroke-width:1.0;"/><path d="M296.4219,452.7325 L296.4219,450.5762 L303.8125,450.5762 L303.8125,452.7325 L301.3438,452.7325 L301.3438,460.8106 L303.8125,460.8106 L303.8125,462.9669 L296.4219,462.9669 L296.4219,460.8106 L298.8906,460.8106 L298.8906,452.7325 L296.4219,452.7325 Z " fill="#000000"/><text fill="#000000" font-family="sans-serif" font-size="14" font-style="italic" lengthAdjust="spacing" textLength="115" x="314.5" y="461.8136">RoomRepository</text><line style="stroke:#181818;stroke-width:0.5;" x1="286.5" x2="431.5" y1="472.9669" y2="472.9669"/><line style="stroke:#181818;stroke-width:0.5;" x1="286.5" x2="431.5" y1="480.9669" y2="480.9669"/></g><!--class Device--><g id="elem_Device"><rect codeLine="43" fill="#F1F1F1" height="113.1875" id="Device" rx="2.5" ry="2.5" style="stroke:#181818;stroke-width:0.5;" width="219" x="923.5" y="408.3769"/><ellipse cx="986.75" cy="424.3769" fill="#ADD1B2" rx="11" ry="11" style="stroke:#181818;stroke-width:1.0;"/><path d="M989.7188,430.0175 Q989.1406,430.3144 988.5,430.455 Q987.8594,430.6112 987.1563,430.6112 Q984.6563,430.6112 983.3281,428.9706 Q982.0156,427.3144 982.0156,424.1894 Q982.0156,421.0644 983.3281,419.4081 Q984.6563,417.7519 987.1563,417.7519 Q987.8594,417.7519 988.5,417.9081 Q989.1563,418.0644 989.7188,418.3612 L989.7188,421.08 Q989.0938,420.5019 988.5,420.2362 Q987.9063,419.955 987.2813,419.955 Q985.9375,419.955 985.25,421.0331 Q984.5625,422.0956 984.5625,424.1894 Q984.5625,426.2831 985.25,427.3612 Q985.9375,428.4237 987.2813,428.4237 Q987.9063,428.4237 988.5,428.1581 Q989.0938,427.8769 989.7188,427.2987 L989.7188,430.0175 Z " fill="#000000"/><text fill="#000000" font-family="sans-serif" font-size="14" lengthAdjust="spacing" textLength="47" x="1007.25" y="429.2236">Device</text><rect fill="#FFFFFF" height="15.9688" style="stroke:#181818;stroke-width:1.0;stroke-dasharray:2.0,2.0;" width="35" x="1110.5" y="405.3769"/><text fill="#000000" font-family="sans-serif" font-size="12" font-style="italic" lengthAdjust="spacing" textLength="33" x="1111.5" y="417.5155">ROOT</text><line style="stroke:#181818;stroke-width:0.5;" x1="924.5" x2="1141.5" y1="440.3769" y2="440.3769"/><rect fill="none" height="6" style="stroke:#C82930;stroke-width:1.0;" width="6" x="931.5" y="451.0253"/><text fill="#000000" font-family="sans-serif" font-size="14" lengthAdjust="spacing" textLength="92" x="943.5" y="457.372">name : String</text><rect fill="none" height="6" style="stroke:#C82930;stroke-width:1.0;" width="6" x="931.5" y="467.3222"/><text fill="#000000" font-family="sans-serif" font-size="14" lengthAdjust="spacing" textLength="189" x="943.5" y="473.6689">deviceModel : DeviceModel</text><rect fill="none" height="6" style="stroke:#C82930;stroke-width:1.0;" width="6" x="931.5" y="483.6191"/><text fill="#000000" font-family="sans-serif" font-size="14" lengthAdjust="spacing" textLength="193" x="943.5" y="489.9657">deviceStatus : DeviceStatus</text><rect fill="none" height="6" style="stroke:#C82930;stroke-width:1.0;" width="6" x="931.5" y="499.9159"/><text fill="#000000" font-family="sans-serif" font-size="14" lengthAdjust="spacing" textLength="116" x="943.5" y="506.2626">roomId : RoomID</text><line style="stroke:#181818;stroke-width:0.5;" x1="924.5" x2="1141.5" y1="513.5644" y2="513.5644"/></g><!--class FactoryDevice--><g id="elem_FactoryDevice"><rect codeLine="50" fill="#F1F1F1" height="80.5938" id="FactoryDevice" rx="2.5" ry="2.5" style="stroke:#181818;stroke-width:0.5;" width="442" x="530" y="78.2969"/><ellipse cx="698.25" cy="94.2969" fill="#B4A7E5" rx="11" ry="11" style="stroke:#181818;stroke-width:1.0;"/><path d="M694.1719,90.0625 L694.1719,87.9063 L701.5625,87.9063 L701.5625,90.0625 L699.0938,90.0625 L699.0938,98.1406 L701.5625,98.1406 L701.5625,100.2969 L694.1719,100.2969 L694.1719,98.1406 L696.6406,98.1406 L696.6406,90.0625 L694.1719,90.0625 Z " fill="#000000"/><text fill="#000000" font-family="sans-serif" font-size="14" font-style="italic" lengthAdjust="spacing" textLength="97" x="718.75" y="99.1436">FactoryDevice</text><line style="stroke:#181818;stroke-width:0.5;" x1="531" x2="971" y1="110.2969" y2="110.2969"/><line style="stroke:#181818;stroke-width:0.5;" x1="531" x2="971" y1="118.2969" y2="118.2969"/><ellipse cx="541" cy="140.0938" fill="#84BE84" rx="3" ry="3" style="stroke:#038048;stroke-width:1.0;"/><text fill="#000000" font-family="sans-serif" font-size="14" lengthAdjust="spacing" textLength="416" x="550" y="135.292">createDevice(DeviceID deviceID, DeviceModel  deviceModel,</text><text fill="#000000" font-family="sans-serif" font-size="14" lengthAdjust="spacing" textLength="174" x="554" y="151.5889">RoomID roomID) : Device</text></g><!--class ImpFactoryDevice--><g id="elem_ImpFactoryDevice"><rect codeLine="54" fill="#F1F1F1" height="80.5938" id="ImpFactoryDevice" rx="2.5" ry="2.5" style="stroke:#181818;stroke-width:0.5;" width="438" x="762" y="243.3369"/><ellipse cx="915.75" cy="259.3369" fill="#ADD1B2" rx="11" ry="11" style="stroke:#181818;stroke-width:1.0;"/><path d="M918.7188,264.9775 Q918.1406,265.2744 917.5,265.415 Q916.8594,265.5712 916.1563,265.5712 Q913.6563,265.5712 912.3281,263.9306 Q911.0156,262.2744 911.0156,259.1494 Q911.0156,256.0244 912.3281,254.3681 Q913.6563,252.7119 916.1563,252.7119 Q916.8594,252.7119 917.5,252.8681 Q918.1563,253.0244 918.7188,253.3212 L918.7188,256.04 Q918.0938,255.4619 917.5,255.1962 Q916.9063,254.915 916.2813,254.915 Q914.9375,254.915 914.25,255.9931 Q913.5625,257.0556 913.5625,259.1494 Q913.5625,261.2431 914.25,262.3212 Q914.9375,263.3837 916.2813,263.3837 Q916.9063,263.3837 917.5,263.1181 Q918.0938,262.8369 918.7188,262.2587 L918.7188,264.9775 Z " fill="#000000"/><text fill="#000000" font-family="sans-serif" font-size="14" lengthAdjust="spacing" textLength="122" x="936.25" y="264.1836">ImpFactoryDevice</text><line style="stroke:#181818;stroke-width:0.5;" x1="763" x2="1199" y1="275.3369" y2="275.3369"/><line style="stroke:#181818;stroke-width:0.5;" x1="763" x2="1199" y1="283.3369" y2="283.3369"/><ellipse cx="773" cy="305.1337" fill="#84BE84" rx="3" ry="3" style="stroke:#038048;stroke-width:1.0;"/><text fill="#000000" font-family="sans-serif" font-size="14" lengthAdjust="spacing" textLength="412" x="782" y="300.332">createDevice(DeviceID deviceID, DeviceModel deviceModel,</text><text fill="#000000" font-family="sans-serif" font-size="14" lengthAdjust="spacing" textLength="174" x="786" y="316.6289">RoomID roomID) : Device</text></g><!--reverse link Repository to DeviceRepository--><g id="link_Repository_DeviceRepository"><path d="M142,334.0469 C142,366.9569 142,399.6069 142,432.5269 " fill="none" id="Repository-backto-DeviceRepository" style="stroke:#181818;stroke-width:1.0;"/><polygon fill="none" points="142,316.0469,136,334.0469,148,334.0469,142,316.0469" style="stroke:#181818;stroke-width:1.0;"/></g><!--reverse link Repository to RoomRepository--><g id="link_Repository_RoomRepository"><path d="M268,334.2069 C268,386.6269 268,465.8569 268,465.8569 C268,465.8569 275,465.8569 285.12,465.8569 " fill="none" id="Repository-backto-RoomRepository" style="stroke:#181818;stroke-width:1.0;"/><polygon fill="none" points="268,316.2069,262,334.2069,274,334.2069,268,316.2069" style="stroke:#181818;stroke-width:1.0;"/></g><!--reverse link FactoryDevice to ImpFactoryDevice--><g id="link_FactoryDevice_ImpFactoryDevice"><path d="M867,177.3869 C867,202.8769 867,217.5669 867,243.0169 " fill="none" id="FactoryDevice-backto-ImpFactoryDevice" style="stroke:#181818;stroke-width:1.0;stroke-dasharray:7.0,7.0;"/><polygon fill="none" points="867,159.3869,861,177.3869,873,177.3869,867,159.3869" style="stroke:#181818;stroke-width:1.0;"/></g><!--link DeviceService to AddNewDeviceToRoomController--><g id="link_DeviceService_AddNewDeviceToRoomController"><path codeLine="59" d="M597.25,348.8369 C597.25,371.0769 597.25,395.5369 597.25,416.2469 " fill="none" id="DeviceService-AddNewDeviceToRoomController" style="stroke:#181818;stroke-width:1.0;"/></g><!--link AddNewDeviceToRoomController to RoomDTO--><g id="link_AddNewDeviceToRoomController_RoomDTO"><path codeLine="60" d="M467.18,505.8569 C391.05,505.8569 323.5,505.8569 323.5,505.8569 C323.5,505.8569 323.5,543.5769 323.5,575.3469 " fill="none" id="AddNewDeviceToRoomController-to-RoomDTO" style="stroke:#181818;stroke-width:1.0;stroke-dasharray:7.0,7.0;"/><polygon fill="#181818" points="323.5,581.3469,327.5,572.3469,323.5,576.3469,319.5,572.3469,323.5,581.3469" style="stroke:#181818;stroke-width:1.0;"/><text fill="#000000" font-family="sans-serif" font-size="13" lengthAdjust="spacing" textLength="46" x="310.59" y="518.9238">&#171;uses&#187;</text></g><!--link AddNewDeviceToRoomController to DeviceDTO--><g id="link_AddNewDeviceToRoomController_DeviceDTO"><path codeLine="61" d="M514.25,513.6669 C514.25,535.8669 514.25,555.5469 514.25,575.3269 " fill="none" id="AddNewDeviceToRoomController-to-DeviceDTO" style="stroke:#181818;stroke-width:1.0;stroke-dasharray:7.0,7.0;"/><polygon fill="#181818" points="514.25,581.3269,518.25,572.3269,514.25,576.3269,510.25,572.3269,514.25,581.3269" style="stroke:#181818;stroke-width:1.0;"/><text fill="#000000" font-family="sans-serif" font-size="13" lengthAdjust="spacing" textLength="64" x="449.25" y="543.5638">&#171;creates&#187;</text></g><!--link AddNewDeviceToRoomController to DeviceID--><g id="link_AddNewDeviceToRoomController_DeviceID"><path codeLine="62" d="M678,513.6669 C678,535.8669 678,555.5469 678,575.3269 " fill="none" id="AddNewDeviceToRoomController-to-DeviceID" style="stroke:#181818;stroke-width:1.0;stroke-dasharray:7.0,7.0;"/><polygon fill="#181818" points="678,581.3269,682,572.3269,678,576.3269,674,572.3269,678,581.3269" style="stroke:#181818;stroke-width:1.0;"/><text fill="#000000" font-family="sans-serif" font-size="13" lengthAdjust="spacing" textLength="64" x="613" y="543.5638">&#171;creates&#187;</text></g><!--link AddNewDeviceToRoomController to DeviceModel--><g id="link_AddNewDeviceToRoomController_DeviceModel"><path codeLine="63" d="M826.17,513.6669 C826.17,535.8669 826.17,555.5469 826.17,575.3269 " fill="none" id="AddNewDeviceToRoomController-to-DeviceModel" style="stroke:#181818;stroke-width:1.0;stroke-dasharray:7.0,7.0;"/><polygon fill="#181818" points="826.17,581.3269,830.17,572.3269,826.17,576.3269,822.17,572.3269,826.17,581.3269" style="stroke:#181818;stroke-width:1.0;"/><text fill="#000000" font-family="sans-serif" font-size="13" lengthAdjust="spacing" textLength="64" x="761.17" y="543.5638">&#171;creates&#187;</text></g><!--link AddNewDeviceToRoomController to RoomID--><g id="link_AddNewDeviceToRoomController_RoomID"><path codeLine="64" d="M857.33,513.7469 C857.33,533.5569 857.33,551.8569 857.33,551.8569 C857.33,551.8569 1054,551.8569 1054,551.8569 C1054,551.8569 1054,560.3669 1054,575.3369 " fill="none" id="AddNewDeviceToRoomController-to-RoomID" style="stroke:#181818;stroke-width:1.0;stroke-dasharray:7.0,7.0;"/><polygon fill="#181818" points="1054,581.3369,1058,572.3369,1054,576.3369,1050,572.3369,1054,581.3369" style="stroke:#181818;stroke-width:1.0;"/><text fill="#000000" font-family="sans-serif" font-size="13" lengthAdjust="spacing" textLength="64" x="886.35" y="547.9238">&#171;creates&#187;</text></g><!--link DeviceService to DeviceRepository--><g id="link_DeviceService_DeviceRepository"><path codeLine="65" d="M358.17,348.5869 C358.17,390.7369 358.17,437.8569 358.17,437.8569 C358.17,437.8569 304.55,437.8569 250.72,437.8569 " fill="none" id="DeviceService-DeviceRepository" style="stroke:#181818;stroke-width:1.0;"/></g><!--link DeviceService to RoomRepository--><g id="link_DeviceService_RoomRepository"><path codeLine="66" d="M395.33,348.8369 C395.33,380.7269 395.33,417.1769 395.33,440.6069 " fill="none" id="DeviceService-RoomRepository" style="stroke:#181818;stroke-width:1.0;"/></g><!--link ImpFactoryDevice to Device--><g id="link_ImpFactoryDevice_Device"><path codeLine="67" d="M1033,324.3269 C1033,348.9669 1033,374.7769 1033,401.9069 " fill="none" id="ImpFactoryDevice-to-Device" style="stroke:#181818;stroke-width:1.0;stroke-dasharray:7.0,7.0;"/><polygon fill="#181818" points="1033,407.9069,1037,398.9069,1033,402.9069,1029,398.9069,1033,407.9069" style="stroke:#181818;stroke-width:1.0;"/><text fill="#000000" font-family="sans-serif" font-size="13" lengthAdjust="spacing" textLength="64" x="968" y="362.1838">&#171;creates&#187;</text></g><!--link FactoryDevice to DeviceService--><g id="link_FactoryDevice_DeviceService"><path codeLine="68" d="M628.5,159.3869 C628.5,177.2369 628.5,198.6269 628.5,218.5769 " fill="none" id="FactoryDevice-DeviceService" style="stroke:#181818;stroke-width:1.0;"/></g><!--SRC=[dLLDRzim3BthLn3OfKFYO9TTXY10Ls-3WRK1acodNZIRIuNQaY6fwOoW_tsKBN_8JjDbkTYM-1uV-IJ62fiZ_BZvy16kimmaFaE61v4YM0LQgMB1pAEG9TUyW5n8j5M9eBHzK8oLF7taUmI3-e0QtdqN-mVxJVCAZYpDkJ6EymwVuvfnfpR4TwEarIhFAVx8W7wHJxWb4dfyWdZuMOVC8DN8BJOxrpBRyeEZmr8POPMkhXnpl5lNYkavlvUmjLh8lIU_umNEswL2PPY_XpOJnRCNhzVp7DdCCJaKXJMmBgP3KLJF_bfS4iFovteLrdeESElK1PXQxpJSQKtYoyXzLuyi-irJrxbccSA_3hzPvChl-qlxcs21HKsk82GUBR7PMxPrBShyYpDks8QiVv_xWckFaxZtBucfI2QaHKr58VJyP51AnuqBQRv8AsprkKhYAw8GcOF_KYf7BaFqk0Z0FnPbPWQqT71dXahnyW5hxbxGI4xOoPDq10XiWkLclTvrlih0qQ7Nj_ve37hMxFixPRbzCjr-y-a9wZPctjbn3uFJq5pKmCmJpWM-1SQHfwzOvv8sTIT56UOKHPbZGQqrfyHSfkOVnJWrmJM1A3exmTZPyRPOhDfvGZcMooU3PhLw6zFDbnhLr7a1a2hxBrnxb2w2-bQ6g4aF9uDX4Z6QBfFJqCiSvGh3kbpjlyVBNm00]--></g></svg>