<svg xmlns="http://www.w3.org/2000/svg" xmlns:xlink="http://www.w3.org/1999/xlink" contentStyleType="text/css" height="685px" preserveAspectRatio="none" style="width:1646px;height:685px;background:#FFFFFF;" version="1.1" viewBox="0 0 1646 685" width="1646px" zoomAndPan="magnify"><defs/><g><text fill="#000000" font-family="sans-serif" font-size="14" font-weight="bold" lengthAdjust="spacing" textLength="1042" x="295" y="22.9951">US06: As a Room Owner [or Power User, or Administrator], I want to get a list of all devices in a room, so that I can configure them.</text><!--cluster server--><g id="cluster_server"><path d="M8.5,43.2969 L61.5,43.2969 A3.75,3.75 0 0 1 64,45.7969 L71,65.5938 L1636.5,65.5938 A2.5,2.5 0 0 1 1639,68.0938 L1639,675.6569 A2.5,2.5 0 0 1 1636.5,678.1569 L8.5,678.1569 A2.5,2.5 0 0 1 6,675.6569 L6,45.7969 A2.5,2.5 0 0 1 8.5,43.2969 " fill="#D3D3D3" style="stroke:#000000;stroke-width:1.5;"/><line style="stroke:#000000;stroke-width:1.5;" x1="6" x2="71" y1="65.5938" y2="65.5938"/><text fill="#000000" font-family="sans-serif" font-size="14" font-weight="bold" lengthAdjust="spacing" textLength="52" x="10" y="58.292">server</text></g><!--class ListAllDevicesInRoomController--><g id="elem_ListAllDevicesInRoomController"><rect codeLine="6" fill="#F1F1F1" height="80.5938" id="ListAllDevicesInRoomController" rx="2.5" ry="2.5" style="stroke:#181818;stroke-width:0.5;" width="513" x="192.5" y="78.2969"/><ellipse cx="338.25" cy="94.2969" fill="#ADD1B2" rx="11" ry="11" style="stroke:#181818;stroke-width:1.0;"/><path d="M341.2188,99.9375 Q340.6406,100.2344 340,100.375 Q339.3594,100.5313 338.6563,100.5313 Q336.1563,100.5313 334.8281,98.8906 Q333.5156,97.2344 333.5156,94.1094 Q333.5156,90.9844 334.8281,89.3281 Q336.1563,87.6719 338.6563,87.6719 Q339.3594,87.6719 340,87.8281 Q340.6563,87.9844 341.2188,88.2813 L341.2188,91 Q340.5938,90.4219 340,90.1563 Q339.4063,89.875 338.7813,89.875 Q337.4375,89.875 336.75,90.9531 Q336.0625,92.0156 336.0625,94.1094 Q336.0625,96.2031 336.75,97.2813 Q337.4375,98.3438 338.7813,98.3438 Q339.4063,98.3438 340,98.0781 Q340.5938,97.7969 341.2188,97.2188 L341.2188,99.9375 Z " fill="#000000"/><text fill="#000000" font-family="sans-serif" font-size="14" lengthAdjust="spacing" textLength="213" x="358.75" y="99.1436">ListAllDevicesInRoomController</text><line style="stroke:#181818;stroke-width:0.5;" x1="193.5" x2="704.5" y1="110.2969" y2="110.2969"/><rect fill="none" height="6" style="stroke:#C82930;stroke-width:1.0;" width="6" x="200.5" y="120.9453"/><text fill="#000000" font-family="sans-serif" font-size="14" lengthAdjust="spacing" textLength="201" x="212.5" y="127.292">deviceService: DeviceService</text><line style="stroke:#181818;stroke-width:0.5;" x1="193.5" x2="704.5" y1="134.5938" y2="134.5938"/><ellipse cx="203.5" cy="148.2422" fill="#84BE84" rx="3" ry="3" style="stroke:#038048;stroke-width:1.0;"/><text fill="#000000" font-family="sans-serif" font-size="14" lengthAdjust="spacing" textLength="487" x="212.5" y="151.5889">getListOfDevicesDTOInRoom(RoomDTO roomDTO): List&lt;DeviceDTO&gt;</text></g><!--class DeviceService--><g id="elem_DeviceService"><rect codeLine="11" fill="#F1F1F1" height="129.4844" id="DeviceService" rx="2.5" ry="2.5" style="stroke:#181818;stroke-width:0.5;" width="431" x="873.5" y="218.8869"/><ellipse cx="1036.25" cy="234.8869" fill="#ADD1B2" rx="11" ry="11" style="stroke:#181818;stroke-width:1.0;"/><path d="M1039.2188,240.5275 Q1038.6406,240.8244 1038,240.965 Q1037.3594,241.1213 1036.6563,241.1213 Q1034.1563,241.1213 1032.8281,239.4806 Q1031.5156,237.8244 1031.5156,234.6994 Q1031.5156,231.5744 1032.8281,229.9181 Q1034.1563,228.2619 1036.6563,228.2619 Q1037.3594,228.2619 1038,228.4181 Q1038.6563,228.5744 1039.2188,228.8713 L1039.2188,231.59 Q1038.5938,231.0119 1038,230.7463 Q1037.4063,230.465 1036.7813,230.465 Q1035.4375,230.465 1034.75,231.5431 Q1034.0625,232.6056 1034.0625,234.6994 Q1034.0625,236.7931 1034.75,237.8713 Q1035.4375,238.9338 1036.7813,238.9338 Q1037.4063,238.9338 1038,238.6681 Q1038.5938,238.3869 1039.2188,237.8088 L1039.2188,240.5275 Z " fill="#000000"/><text fill="#000000" font-family="sans-serif" font-size="14" lengthAdjust="spacing" textLength="97" x="1056.75" y="239.7336">DeviceService</text><line style="stroke:#181818;stroke-width:0.5;" x1="874.5" x2="1303.5" y1="250.8869" y2="250.8869"/><rect fill="none" height="6" style="stroke:#C82930;stroke-width:1.0;" width="6" x="881.5" y="261.5353"/><text fill="#000000" font-family="sans-serif" font-size="14" lengthAdjust="spacing" textLength="199" x="893.5" y="267.882">factoryDevice: FactoryDevice</text><rect fill="none" height="6" style="stroke:#C82930;stroke-width:1.0;" width="6" x="881.5" y="277.8322"/><text fill="#000000" font-family="sans-serif" font-size="14" lengthAdjust="spacing" textLength="249" x="893.5" y="284.1789">deviceRepository: DeviceRepository</text><rect fill="none" height="6" style="stroke:#C82930;stroke-width:1.0;" width="6" x="881.5" y="294.1291"/><text fill="#000000" font-family="sans-serif" font-size="14" lengthAdjust="spacing" textLength="234" x="893.5" y="300.4757">roomRepository: RoomRepository</text><rect fill="none" height="6" style="stroke:#C82930;stroke-width:1.0;" width="6" x="881.5" y="310.4259"/><text fill="#000000" font-family="sans-serif" font-size="14" lengthAdjust="spacing" textLength="246" x="893.5" y="316.7726">houseRepository: HouseRepository</text><line style="stroke:#181818;stroke-width:0.5;" x1="874.5" x2="1303.5" y1="324.0744" y2="324.0744"/><ellipse cx="884.5" cy="337.7228" fill="#84BE84" rx="3" ry="3" style="stroke:#038048;stroke-width:1.0;"/><text fill="#000000" font-family="sans-serif" font-size="14" lengthAdjust="spacing" textLength="405" x="893.5" y="341.0695">getListOfDevicesInRoom(RoomID roomID): List&lt;DeviceID&gt;</text></g><!--class RoomDTO--><g id="elem_RoomDTO"><rect codeLine="19" fill="#F1F1F1" height="64.2969" id="RoomDTO" rx="2.5" ry="2.5" style="stroke:#181818;stroke-width:0.5;" width="151" x="21.5" y="251.4869"/><ellipse cx="57.65" cy="267.4869" fill="#ADD1B2" rx="11" ry="11" style="stroke:#181818;stroke-width:1.0;"/><path d="M60.6188,273.1275 Q60.0406,273.4244 59.4,273.565 Q58.7594,273.7213 58.0563,273.7213 Q55.5563,273.7213 54.2281,272.0806 Q52.9156,270.4244 52.9156,267.2994 Q52.9156,264.1744 54.2281,262.5181 Q55.5563,260.8619 58.0563,260.8619 Q58.7594,260.8619 59.4,261.0181 Q60.0563,261.1744 60.6188,261.4713 L60.6188,264.19 Q59.9938,263.6119 59.4,263.3463 Q58.8063,263.065 58.1813,263.065 Q56.8375,263.065 56.15,264.1431 Q55.4625,265.2056 55.4625,267.2994 Q55.4625,269.3931 56.15,270.4713 Q56.8375,271.5338 58.1813,271.5338 Q58.8063,271.5338 59.4,271.2681 Q59.9938,270.9869 60.6188,270.4088 L60.6188,273.1275 Z " fill="#000000"/><text fill="#000000" font-family="sans-serif" font-size="14" lengthAdjust="spacing" textLength="72" x="76.35" y="272.3336">RoomDTO</text><line style="stroke:#181818;stroke-width:0.5;" x1="22.5" x2="171.5" y1="283.4869" y2="283.4869"/><ellipse cx="32.5" cy="297.1353" fill="none" rx="3" ry="3" style="stroke:#038048;stroke-width:1.0;"/><text fill="#000000" font-family="sans-serif" font-size="14" lengthAdjust="spacing" textLength="125" x="41.5" y="300.482">roomName: String</text><line style="stroke:#181818;stroke-width:0.5;" x1="22.5" x2="171.5" y1="307.7838" y2="307.7838"/></g><!--class DeviceDTO--><g id="elem_DeviceDTO"><rect codeLine="23" fill="#F1F1F1" height="64.2969" id="DeviceDTO" rx="2.5" ry="2.5" style="stroke:#181818;stroke-width:0.5;" width="160" x="536" y="408.3769"/><ellipse cx="573.5" cy="424.3769" fill="#ADD1B2" rx="11" ry="11" style="stroke:#181818;stroke-width:1.0;"/><path d="M576.4688,430.0175 Q575.8906,430.3144 575.25,430.455 Q574.6094,430.6113 573.9063,430.6113 Q571.4063,430.6113 570.0781,428.9706 Q568.7656,427.3144 568.7656,424.1894 Q568.7656,421.0644 570.0781,419.4081 Q571.4063,417.7519 573.9063,417.7519 Q574.6094,417.7519 575.25,417.9081 Q575.9063,418.0644 576.4688,418.3613 L576.4688,421.08 Q575.8438,420.5019 575.25,420.2363 Q574.6563,419.955 574.0313,419.955 Q572.6875,419.955 572,421.0331 Q571.3125,422.0956 571.3125,424.1894 Q571.3125,426.2831 572,427.3613 Q572.6875,428.4238 574.0313,428.4238 Q574.6563,428.4238 575.25,428.1581 Q575.8438,427.8769 576.4688,427.2988 L576.4688,430.0175 Z " fill="#000000"/><text fill="#000000" font-family="sans-serif" font-size="14" lengthAdjust="spacing" textLength="78" x="592.5" y="429.2236">DeviceDTO</text><line style="stroke:#181818;stroke-width:0.5;" x1="537" x2="695" y1="440.3769" y2="440.3769"/><ellipse cx="547" cy="454.0253" fill="none" rx="3" ry="3" style="stroke:#038048;stroke-width:1.0;"/><text fill="#000000" font-family="sans-serif" font-size="14" lengthAdjust="spacing" textLength="134" x="556" y="457.372">deviceName: String</text><line style="stroke:#181818;stroke-width:0.5;" x1="537" x2="695" y1="464.6738" y2="464.6738"/></g><!--class RoomID--><g id="elem_RoomID"><rect codeLine="27" fill="#F1F1F1" height="64.2969" id="RoomID" rx="2.5" ry="2.5" style="stroke:#181818;stroke-width:0.5;" width="151" x="207.5" y="251.4869"/><ellipse cx="241.85" cy="267.4869" fill="#ADD1B2" rx="11" ry="11" style="stroke:#181818;stroke-width:1.0;"/><path d="M244.8188,273.1275 Q244.2406,273.4244 243.6,273.565 Q242.9594,273.7213 242.2563,273.7213 Q239.7563,273.7213 238.4281,272.0806 Q237.1156,270.4244 237.1156,267.2994 Q237.1156,264.1744 238.4281,262.5181 Q239.7563,260.8619 242.2563,260.8619 Q242.9594,260.8619 243.6,261.0181 Q244.2563,261.1744 244.8188,261.4713 L244.8188,264.19 Q244.1938,263.6119 243.6,263.3463 Q243.0063,263.065 242.3813,263.065 Q241.0375,263.065 240.35,264.1431 Q239.6625,265.2056 239.6625,267.2994 Q239.6625,269.3931 240.35,270.4713 Q241.0375,271.5338 242.3813,271.5338 Q243.0063,271.5338 243.6,271.2681 Q244.1938,270.9869 244.8188,270.4088 L244.8188,273.1275 Z " fill="#000000"/><text fill="#000000" font-family="sans-serif" font-size="14" lengthAdjust="spacing" textLength="55" x="260.15" y="272.3336">RoomID</text><rect fill="#FFFFFF" height="15.9688" style="stroke:#181818;stroke-width:1.0;stroke-dasharray:2.0,2.0;" width="19" x="342.5" y="248.4869"/><text fill="#000000" font-family="sans-serif" font-size="12" font-style="italic" lengthAdjust="spacing" textLength="17" x="343.5" y="260.6255">VO</text><line style="stroke:#181818;stroke-width:0.5;" x1="208.5" x2="357.5" y1="283.4869" y2="283.4869"/><rect fill="none" height="6" style="stroke:#C82930;stroke-width:1.0;" width="6" x="215.5" y="294.1353"/><text fill="#000000" font-family="sans-serif" font-size="14" lengthAdjust="spacing" textLength="125" x="227.5" y="300.482">roomName: String</text><line style="stroke:#181818;stroke-width:0.5;" x1="208.5" x2="357.5" y1="307.7838" y2="307.7838"/></g><!--class Device--><g id="elem_Device"><rect codeLine="31" fill="#F1F1F1" height="129.4844" id="Device" rx="2.5" ry="2.5" style="stroke:#181818;stroke-width:0.5;" width="215" x="819.5" y="532.6769"/><ellipse cx="880.75" cy="548.6769" fill="#ADD1B2" rx="11" ry="11" style="stroke:#181818;stroke-width:1.0;"/><path d="M883.7188,554.3175 Q883.1406,554.6144 882.5,554.755 Q881.8594,554.9113 881.1563,554.9113 Q878.6563,554.9113 877.3281,553.2706 Q876.0156,551.6144 876.0156,548.4894 Q876.0156,545.3644 877.3281,543.7081 Q878.6563,542.0519 881.1563,542.0519 Q881.8594,542.0519 882.5,542.2081 Q883.1563,542.3644 883.7188,542.6613 L883.7188,545.38 Q883.0938,544.8019 882.5,544.5363 Q881.9063,544.255 881.2813,544.255 Q879.9375,544.255 879.25,545.3331 Q878.5625,546.3956 878.5625,548.4894 Q878.5625,550.5831 879.25,551.6613 Q879.9375,552.7238 881.2813,552.7238 Q881.9063,552.7238 882.5,552.4581 Q883.0938,552.1769 883.7188,551.5988 L883.7188,554.3175 Z " fill="#000000"/><text fill="#000000" font-family="sans-serif" font-size="14" lengthAdjust="spacing" textLength="47" x="901.25" y="553.5236">Device</text><rect fill="#FFFFFF" height="15.9688" style="stroke:#181818;stroke-width:1.0;stroke-dasharray:2.0,2.0;" width="35" x="1002.5" y="529.6769"/><text fill="#000000" font-family="sans-serif" font-size="12" font-style="italic" lengthAdjust="spacing" textLength="33" x="1003.5" y="541.8155">ROOT</text><line style="stroke:#181818;stroke-width:0.5;" x1="820.5" x2="1033.5" y1="564.6769" y2="564.6769"/><rect fill="none" height="6" style="stroke:#C82930;stroke-width:1.0;" width="6" x="827.5" y="575.3253"/><text fill="#000000" font-family="sans-serif" font-size="14" lengthAdjust="spacing" textLength="155" x="839.5" y="581.672">deviceName: DeviceID</text><rect fill="none" height="6" style="stroke:#C82930;stroke-width:1.0;" width="6" x="827.5" y="591.6222"/><text fill="#000000" font-family="sans-serif" font-size="14" lengthAdjust="spacing" textLength="185" x="839.5" y="597.9689">deviceModel: DeviceModel</text><rect fill="none" height="6" style="stroke:#C82930;stroke-width:1.0;" width="6" x="827.5" y="607.9191"/><text fill="#000000" font-family="sans-serif" font-size="14" lengthAdjust="spacing" textLength="189" x="839.5" y="614.2657">deviceStatus: DeviceStatus</text><rect fill="none" height="6" style="stroke:#C82930;stroke-width:1.0;" width="6" x="827.5" y="624.2159"/><text fill="#000000" font-family="sans-serif" font-size="14" lengthAdjust="spacing" textLength="114" x="839.5" y="630.5626">roomID: RoomID</text><line style="stroke:#181818;stroke-width:0.5;" x1="820.5" x2="1033.5" y1="637.8644" y2="637.8644"/><ellipse cx="830.5" cy="651.5128" fill="#84BE84" rx="3" ry="3" style="stroke:#038048;stroke-width:1.0;"/><text fill="#000000" font-family="sans-serif" font-size="14" lengthAdjust="spacing" textLength="130" x="839.5" y="654.8595">identity(): DeviceID</text></g><!--class DeviceMapperDTO--><g id="elem_DeviceMapperDTO"><rect codeLine="40" fill="#F1F1F1" height="80.5938" id="DeviceMapperDTO" rx="2.5" ry="2.5" style="stroke:#181818;stroke-width:0.5;" width="445" x="393.5" y="243.3369"/><ellipse cx="546.75" cy="259.3369" fill="#ADD1B2" rx="11" ry="11" style="stroke:#181818;stroke-width:1.0;"/><path d="M549.7188,264.9775 Q549.1406,265.2744 548.5,265.415 Q547.8594,265.5713 547.1563,265.5713 Q544.6563,265.5713 543.3281,263.9306 Q542.0156,262.2744 542.0156,259.1494 Q542.0156,256.0244 543.3281,254.3681 Q544.6563,252.7119 547.1563,252.7119 Q547.8594,252.7119 548.5,252.8681 Q549.1563,253.0244 549.7188,253.3213 L549.7188,256.04 Q549.0938,255.4619 548.5,255.1963 Q547.9063,254.915 547.2813,254.915 Q545.9375,254.915 545.25,255.9931 Q544.5625,257.0556 544.5625,259.1494 Q544.5625,261.2431 545.25,262.3213 Q545.9375,263.3838 547.2813,263.3838 Q547.9063,263.3838 548.5,263.1181 Q549.0938,262.8369 549.7188,262.2588 L549.7188,264.9775 Z " fill="#000000"/><text fill="#000000" font-family="sans-serif" font-size="14" lengthAdjust="spacing" textLength="130" x="567.25" y="264.1836">DeviceMapperDTO</text><line style="stroke:#181818;stroke-width:0.5;" x1="394.5" x2="837.5" y1="275.3369" y2="275.3369"/><line style="stroke:#181818;stroke-width:0.5;" x1="394.5" x2="837.5" y1="283.3369" y2="283.3369"/><ellipse cx="404.5" cy="296.9853" fill="#84BE84" rx="3" ry="3" style="stroke:#038048;stroke-width:1.0;"/><text fill="#000000" font-family="sans-serif" font-size="14" lengthAdjust="spacing" textLength="419" x="413.5" y="300.332">deviceIDsToDTOList(Iterable&lt;DeviceID&gt;): List&lt;DeviceDTO&gt;</text><ellipse cx="404.5" cy="313.2822" fill="#84BE84" rx="3" ry="3" style="stroke:#038048;stroke-width:1.0;"/><text fill="#000000" font-family="sans-serif" font-size="14" lengthAdjust="spacing" textLength="252" x="413.5" y="316.6289">deviceToDTO(DeviceID): DeviceDTO</text></g><!--class Repository--><g id="elem_Repository"><rect codeLine="46" fill="#F1F1F1" height="64.2969" id="Repository" rx="2.5" ry="2.5" style="stroke:#181818;stroke-width:0.5;" width="284" x="1339" y="251.4869"/><ellipse cx="1439.75" cy="267.4869" fill="#B4A7E5" rx="11" ry="11" style="stroke:#181818;stroke-width:1.0;"/><path d="M1435.6719,263.2525 L1435.6719,261.0963 L1443.0625,261.0963 L1443.0625,263.2525 L1440.5938,263.2525 L1440.5938,271.3306 L1443.0625,271.3306 L1443.0625,273.4869 L1435.6719,273.4869 L1435.6719,271.3306 L1438.1406,271.3306 L1438.1406,263.2525 L1435.6719,263.2525 Z " fill="#000000"/><text fill="#000000" font-family="sans-serif" font-size="14" font-style="italic" lengthAdjust="spacing" textLength="74" x="1460.25" y="272.3336">Repository</text><line style="stroke:#181818;stroke-width:0.5;" x1="1340" x2="1622" y1="283.4869" y2="283.4869"/><line style="stroke:#181818;stroke-width:0.5;" x1="1340" x2="1622" y1="291.4869" y2="291.4869"/><ellipse cx="1350" cy="305.1353" fill="#84BE84" rx="3" ry="3" style="stroke:#038048;stroke-width:1.0;"/><text fill="#000000" font-family="sans-serif" font-size="14" lengthAdjust="spacing" textLength="258" x="1359" y="308.482">containsEntityByID(RoomID): boolean</text></g><!--class DeviceRepository--><g id="elem_DeviceRepository"><rect codeLine="50" fill="#F1F1F1" height="64.2969" id="DeviceRepository" rx="2.5" ry="2.5" style="stroke:#181818;stroke-width:0.5;" width="314" x="963" y="408.3769"/><ellipse cx="1055.25" cy="424.3769" fill="#B4A7E5" rx="11" ry="11" style="stroke:#181818;stroke-width:1.0;"/><path d="M1051.1719,420.1425 L1051.1719,417.9863 L1058.5625,417.9863 L1058.5625,420.1425 L1056.0938,420.1425 L1056.0938,428.2206 L1058.5625,428.2206 L1058.5625,430.3769 L1051.1719,430.3769 L1051.1719,428.2206 L1053.6406,428.2206 L1053.6406,420.1425 L1051.1719,420.1425 Z " fill="#000000"/><text fill="#000000" font-family="sans-serif" font-size="14" font-style="italic" lengthAdjust="spacing" textLength="121" x="1075.75" y="429.2236">DeviceRepository</text><line style="stroke:#181818;stroke-width:0.5;" x1="964" x2="1276" y1="440.3769" y2="440.3769"/><line style="stroke:#181818;stroke-width:0.5;" x1="964" x2="1276" y1="448.3769" y2="448.3769"/><ellipse cx="974" cy="462.0253" fill="#84BE84" rx="3" ry="3" style="stroke:#038048;stroke-width:1.0;"/><text fill="#000000" font-family="sans-serif" font-size="14" lengthAdjust="spacing" textLength="288" x="983" y="465.372">findByRoomID(roomID): Iterable&lt;Device&gt;</text></g><!--class RoomRepository--><g id="elem_RoomRepository"><rect codeLine="54" fill="#F1F1F1" height="48" id="RoomRepository" rx="2.5" ry="2.5" style="stroke:#181818;stroke-width:0.5;" width="147" x="1375.5" y="416.5269"/><ellipse cx="1390.5" cy="432.5269" fill="#B4A7E5" rx="11" ry="11" style="stroke:#181818;stroke-width:1.0;"/><path d="M1386.4219,428.2925 L1386.4219,426.1363 L1393.8125,426.1363 L1393.8125,428.2925 L1391.3438,428.2925 L1391.3438,436.3706 L1393.8125,436.3706 L1393.8125,438.5269 L1386.4219,438.5269 L1386.4219,436.3706 L1388.8906,436.3706 L1388.8906,428.2925 L1386.4219,428.2925 Z " fill="#000000"/><text fill="#000000" font-family="sans-serif" font-size="14" font-style="italic" lengthAdjust="spacing" textLength="115" x="1404.5" y="437.3736">RoomRepository</text><line style="stroke:#181818;stroke-width:0.5;" x1="1376.5" x2="1521.5" y1="448.5269" y2="448.5269"/><line style="stroke:#181818;stroke-width:0.5;" x1="1376.5" x2="1521.5" y1="456.5269" y2="456.5269"/></g><!--reverse link Repository to RoomRepository--><g id="link_Repository_RoomRepository"><path d="M1449,334.1369 C1449,363.9369 1449,389.3969 1449,416.2669 " fill="none" id="Repository-backto-RoomRepository" style="stroke:#181818;stroke-width:1.0;"/><polygon fill="none" points="1449,316.1369,1443,334.1369,1455,334.1369,1449,316.1369" style="stroke:#181818;stroke-width:1.0;"/></g><!--link ListAllDevicesInRoomController to DeviceService--><g id="link_ListAllDevicesInRoomController_DeviceService"><path codeLine="57" d="M601.5,159.2369 C601.5,191.4769 601.5,231.1569 601.5,231.1569 C601.5,231.1569 742.65,231.1569 873.05,231.1569 " fill="none" id="ListAllDevicesInRoomController-DeviceService" style="stroke:#181818;stroke-width:1.0;"/></g><!--link ListAllDevicesInRoomController to RoomDTO--><g id="link_ListAllDevicesInRoomController_RoomDTO"><path codeLine="58" d="M200,159.0969 C200,208.1069 200,284.1569 200,284.1569 C200,284.1569 194.38,284.1569 178.94,284.1569 " fill="none" id="ListAllDevicesInRoomController-to-RoomDTO" style="stroke:#181818;stroke-width:1.0;stroke-dasharray:7.0,7.0;"/><polygon fill="#181818" points="172.94,284.1569,181.94,288.1569,177.94,284.1569,181.94,280.1569,172.94,284.1569" style="stroke:#181818;stroke-width:1.0;"/><text fill="#000000" font-family="sans-serif" font-size="13" lengthAdjust="spacing" textLength="46" x="153" y="231.2238">&#171;uses&#187;</text></g><!--link ListAllDevicesInRoomController to RoomID--><g id="link_ListAllDevicesInRoomController_RoomID"><path codeLine="59" d="M283,159.3869 C283,187.6469 283,218.7569 283,245.0369 " fill="none" id="ListAllDevicesInRoomController-to-RoomID" style="stroke:#181818;stroke-width:1.0;stroke-dasharray:7.0,7.0;"/><polygon fill="#181818" points="283,251.0369,287,242.0369,283,246.0369,279,242.0369,283,251.0369" style="stroke:#181818;stroke-width:1.0;"/><text fill="#000000" font-family="sans-serif" font-size="13" lengthAdjust="spacing" textLength="64" x="218" y="201.2838">&#171;creates&#187;</text></g><!--link ListAllDevicesInRoomController to DeviceMapperDTO--><g id="link_ListAllDevicesInRoomController_DeviceMapperDTO"><path codeLine="60" d="M497.5,159.3869 C497.5,184.8769 497.5,211.5669 497.5,237.0169 " fill="none" id="ListAllDevicesInRoomController-to-DeviceMapperDTO" style="stroke:#181818;stroke-width:1.0;stroke-dasharray:7.0,7.0;"/><polygon fill="#181818" points="497.5,243.0169,501.5,234.0169,497.5,238.0169,493.5,234.0169,497.5,243.0169" style="stroke:#181818;stroke-width:1.0;"/><text fill="#000000" font-family="sans-serif" font-size="13" lengthAdjust="spacing" textLength="46" x="450.5" y="197.2738">&#171;uses&#187;</text></g><!--link DeviceMapperDTO to DeviceDTO--><g id="link_DeviceMapperDTO_DeviceDTO"><path codeLine="61" d="M616,324.0369 C616,350.0969 616,377.5369 616,401.9069 " fill="none" id="DeviceMapperDTO-to-DeviceDTO" style="stroke:#181818;stroke-width:1.0;stroke-dasharray:7.0,7.0;"/><polygon fill="#181818" points="616,407.9069,620,398.9069,616,402.9069,612,398.9069,616,407.9069" style="stroke:#181818;stroke-width:1.0;"/><text fill="#000000" font-family="sans-serif" font-size="13" lengthAdjust="spacing" textLength="64" x="551" y="362.0338">&#171;creates&#187;</text></g><!--link DeviceService to DeviceRepository--><g id="link_DeviceService_DeviceRepository"><path codeLine="62" d="M1120,348.8069 C1120,369.1769 1120,390.7869 1120,407.9069 " fill="none" id="DeviceService-DeviceRepository" style="stroke:#181818;stroke-width:1.0;"/></g><!--link DeviceService to RoomRepository--><g id="link_DeviceService_RoomRepository"><path codeLine="63" d="M1290.75,348.6169 C1290.75,392.0069 1290.75,441.1569 1290.75,441.1569 C1290.75,441.1569 1334.11,441.1569 1375.43,441.1569 " fill="none" id="DeviceService-RoomRepository" style="stroke:#181818;stroke-width:1.0;"/></g><!--link DeviceService to Device--><g id="link_DeviceService_Device"><path codeLine="64" d="M918.25,348.6469 C918.25,402.4169 918.25,472.3969 918.25,526.2169 " fill="none" id="DeviceService-to-Device" style="stroke:#181818;stroke-width:1.0;stroke-dasharray:7.0,7.0;"/><polygon fill="#181818" points="918.25,532.2169,922.25,523.2169,918.25,527.2169,914.25,523.2169,918.25,532.2169" style="stroke:#181818;stroke-width:1.0;"/><text fill="#000000" font-family="sans-serif" font-size="13" lengthAdjust="spacing" textLength="46" x="871.25" y="436.4938">&#171;uses&#187;</text></g><!--SRC=[ZLHBRzim3BxhLn3O9KKUs6a7mp2GpdiOQESXINiPTb1jnH4gIuQaD3E2_lTHViIMMo2zn27Dxq6HiddcigAQbY2uPBQk62Xj3ufORWM3X-tdBm6i3L3OA5L2Uf9Cmn-buRSwuRy7m_G24R3EIowviPfQfVyk884JbHQiWe9PH0jy1seFL0Z8sGlFc04kyOL6sWKO1VP0BS8oAY5JSi-BesQOPEMAa8fcpxHWW6elgFhfZXS7-qFJ6iw4P88Q0tSei1OYRhaJwUn-LT9g9GH2pcJPocwH0Xy1nEEGpD6ceqZt7KEyIrkIcVl1g76ApvkWqGhREan4vBKtuN4wpJtDy3pgDX_0zt7OEzgmIXdkyhsf8KEMJdLSiV5YiZoee_4eVlg9jvsDsahYfgiazfjAub5FVVjdCdUrlsY9ZMojvhAODjwLjMszNzYfXezfvCxd6YE4cpJTHSFuskBUPf-zLpaJVRe9BkEsr1xDPTfDrCecST2v8NEUCuaBNyzkHjnenVDoJwkAQQ_793OxXHbtThF4CasV11iEyPrLwO0DQjONNbGnsSXoYLouEmo6GJfLl1YMScc-DMvlwoJkneWCJqe9HgN33_3fFZcIFPVvRTtYPfVnJzn7Fe-_TS3-MIPpuxj3m9LBk5nERjsL-jKgwjSlW334lJPHz56GcsyOPffH-r7OPCuZpUa63DLTtQ3ZVmCkBOzkv9kAoPtstwy6hP6Xr_y0]--></g></svg>