<?xml version="1.0" encoding="us-ascii" standalone="no"?><svg xmlns="http://www.w3.org/2000/svg" xmlns:xlink="http://www.w3.org/1999/xlink" contentStyleType="text/css" height="432px" preserveAspectRatio="none" style="width:1095px;height:432px;background:#FFFFFF;" version="1.1" viewBox="0 0 1095 432" width="1095px" zoomAndPan="magnify"><defs/><g><text fill="#000000" font-family="sans-serif" font-size="8.4" font-weight="bold" lengthAdjust="spacing" textLength="148.2" x="469.449" y="14.1211">UC7.2 - Add new Sensor to Device</text><!--cluster server--><g id="cluster_server"><path d="M16.998,26.093 L43.998,26.093 A2.25,2.25 0 0 1 45.498,27.593 L49.698,39.5859 L1089.798,39.5859 A1.5,1.5 0 0 1 1091.298,41.0859 L1091.298,426.785 A1.5,1.5 0 0 1 1089.798,428.285 L16.998,428.285 A1.5,1.5 0 0 1 15.498,426.785 L15.498,27.593 A1.5,1.5 0 0 1 16.998,26.093 " fill="#D3D3D3" style="stroke:#000000;stroke-width:0.8999999999999999;"/><line style="stroke:#000000;stroke-width:0.8999999999999999;" x1="15.498" x2="49.698" y1="39.5859" y2="39.5859"/><text fill="#000000" font-family="sans-serif" font-size="8.4" font-weight="bold" lengthAdjust="spacing" textLength="26.4" x="17.898" y="35.4141">server</text></g><!--class DeviceRepository--><g id="elem_DeviceRepository"><rect codeLine="7" fill="#F1F1F1" height="38.693" id="DeviceRepository" rx="1.5" ry="1.5" style="stroke:#181818;stroke-width:0.3;" width="229.2" x="752.898" y="71.825"/><ellipse cx="820.548" cy="81.425" fill="#B4A7E5" rx="6.6" ry="6.6" style="stroke:#181818;stroke-width:0.6;"/><path d="M818.1046,78.8841 L818.1046,77.5891 L822.5323,77.5891 L822.5323,78.8841 L821.0531,78.8841 L821.0531,83.73 L822.5323,83.73 L822.5323,85.025 L818.1046,85.025 L818.1046,83.73 L819.5838,83.73 L819.5838,78.8841 Z " fill="#000000"/><text fill="#000000" font-family="sans-serif" font-size="8.4" font-style="italic" lengthAdjust="spacing" textLength="70.2" x="832.848" y="84.5996">DeviceRepository</text><rect fill="#FFFFFF" height="9.6797" style="stroke:#181818;stroke-width:0.6;stroke-dasharray:2.0,2.0;" width="17.4" x="966.498" y="70.025"/><text fill="#000000" font-family="sans-serif" font-size="7.2" font-style="italic" lengthAdjust="spacing" textLength="16.2" x="967.098" y="77.5859">repo</text><line style="stroke:#181818;stroke-width:0.3;" x1="753.498" x2="981.498" y1="91.025" y2="91.025"/><line style="stroke:#181818;stroke-width:0.3;" x1="753.498" x2="981.498" y1="95.825" y2="95.825"/><ellipse cx="759.498" cy="104.0715" fill="#84BE84" rx="1.8" ry="1.8" style="stroke:#038048;stroke-width:0.6;"/><text fill="#000000" font-family="sans-serif" font-size="8.4" lengthAdjust="spacing" textLength="213.6" x="764.898" y="106.3461">findEntityByID(DeviceID deviceID): Optional&lt;Device&gt;</text></g><!--class DeviceDTO--><g id="elem_DeviceDTO"><rect codeLine="11" fill="#F1F1F1" height="68.3719" id="DeviceDTO" rx="1.5" ry="1.5" style="stroke:#181818;stroke-width:0.3;" width="98.4" x="91.698" y="171.251"/><ellipse cx="116.358" cy="180.851" fill="#ADD1B2" rx="6.6" ry="6.6" style="stroke:#181818;stroke-width:0.6;"/><path d="M118.1419,184.2368 Q117.7933,184.4161 117.4098,184.5058 Q117.0263,184.5954 116.6029,184.5954 Q115.0988,184.5954 114.3069,183.6043 Q113.515,182.6132 113.515,180.7405 Q113.515,178.8629 114.3069,177.8718 Q115.0988,176.8807 116.6029,176.8807 Q117.0263,176.8807 117.4147,176.9703 Q117.8032,177.06 118.1419,177.2393 L118.1419,178.8728 Q117.7634,178.5242 117.4073,178.3623 Q117.0512,178.2005 116.6726,178.2005 Q115.8658,178.2005 115.4549,178.8405 Q115.044,179.4805 115.044,180.7405 Q115.044,181.9956 115.4549,182.6356 Q115.8658,183.2756 116.6726,183.2756 Q117.0512,183.2756 117.4073,183.1137 Q117.7634,182.9518 118.1419,182.6032 Z " fill="#000000"/><text fill="#000000" font-family="sans-serif" font-size="8.4" lengthAdjust="spacing" textLength="44.4" x="128.238" y="184.0256">DeviceDTO</text><line style="stroke:#181818;stroke-width:0.3;" x1="92.298" x2="189.498" y1="190.451" y2="190.451"/><ellipse cx="98.298" cy="198.6975" fill="none" rx="1.8" ry="1.8" style="stroke:#038048;stroke-width:0.6;"/><text fill="#000000" font-family="sans-serif" font-size="8.4" lengthAdjust="spacing" textLength="81" x="103.698" y="200.9721">deviceName : String</text><ellipse cx="98.298" cy="208.5904" fill="none" rx="1.8" ry="1.8" style="stroke:#038048;stroke-width:0.6;"/><text fill="#000000" font-family="sans-serif" font-size="8.4" lengthAdjust="spacing" textLength="57.6" x="103.698" y="210.865">model : String</text><ellipse cx="98.298" cy="218.4834" fill="none" rx="1.8" ry="1.8" style="stroke:#038048;stroke-width:0.6;"/><text fill="#000000" font-family="sans-serif" font-size="8.4" lengthAdjust="spacing" textLength="82.8" x="103.698" y="220.758">deviceStatus : String</text><ellipse cx="98.298" cy="228.3764" fill="none" rx="1.8" ry="1.8" style="stroke:#038048;stroke-width:0.6;"/><text fill="#000000" font-family="sans-serif" font-size="8.4" lengthAdjust="spacing" textLength="77.4" x="103.698" y="230.651">roomName : String</text><line style="stroke:#181818;stroke-width:0.3;" x1="92.298" x2="189.498" y1="234.8228" y2="234.8228"/></g><!--class SensorDTO--><g id="elem_SensorDTO"><rect codeLine="18" fill="#F1F1F1" height="58.4789" id="SensorDTO" rx="1.5" ry="1.5" style="stroke:#181818;stroke-width:0.3;" width="104.4" x="211.098" y="176.195"/><ellipse cx="237.648" cy="185.795" fill="#ADD1B2" rx="6.6" ry="6.6" style="stroke:#181818;stroke-width:0.6;"/><path d="M239.4319,189.1808 Q239.0833,189.3601 238.6998,189.4498 Q238.3163,189.5394 237.8929,189.5394 Q236.3888,189.5394 235.5969,188.5483 Q234.805,187.5572 234.805,185.6845 Q234.805,183.8069 235.5969,182.8158 Q236.3888,181.8247 237.8929,181.8247 Q238.3163,181.8247 238.7047,181.9143 Q239.0932,182.004 239.4319,182.1833 L239.4319,183.8168 Q239.0534,183.4682 238.6973,183.3063 Q238.3412,183.1445 237.9626,183.1445 Q237.1558,183.1445 236.7449,183.7845 Q236.334,184.4245 236.334,185.6845 Q236.334,186.9396 236.7449,187.5796 Q237.1558,188.2196 237.9626,188.2196 Q238.3412,188.2196 238.6973,188.0577 Q239.0534,187.8958 239.4319,187.5472 Z " fill="#000000"/><text fill="#000000" font-family="sans-serif" font-size="8.4" lengthAdjust="spacing" textLength="46.2" x="249.948" y="188.9696">SensorDTO</text><line style="stroke:#181818;stroke-width:0.3;" x1="211.698" x2="314.898" y1="195.395" y2="195.395"/><ellipse cx="217.698" cy="203.6415" fill="none" rx="1.8" ry="1.8" style="stroke:#038048;stroke-width:0.6;"/><text fill="#000000" font-family="sans-serif" font-size="8.4" lengthAdjust="spacing" textLength="80.4" x="223.098" y="205.9161">sensorName: String</text><ellipse cx="217.698" cy="213.5344" fill="none" rx="1.8" ry="1.8" style="stroke:#038048;stroke-width:0.6;"/><text fill="#000000" font-family="sans-serif" font-size="8.4" lengthAdjust="spacing" textLength="63.6" x="223.098" y="215.809">deviceID: String</text><ellipse cx="217.698" cy="223.4274" fill="none" rx="1.8" ry="1.8" style="stroke:#038048;stroke-width:0.6;"/><text fill="#000000" font-family="sans-serif" font-size="8.4" lengthAdjust="spacing" textLength="88.8" x="223.098" y="225.702">functionalityID: String</text><line style="stroke:#181818;stroke-width:0.3;" x1="211.698" x2="314.898" y1="229.8739" y2="229.8739"/></g><!--class AddNewSensorToDeviceController--><g id="elem_AddNewSensorToDeviceController"><rect codeLine="24" fill="#F1F1F1" height="58.4789" id="AddNewSensorToDeviceController" rx="1.5" ry="1.5" style="stroke:#181818;stroke-width:0.3;" width="259.8" x="25.398" y="61.931"/><ellipse cx="81.948" cy="71.531" fill="#ADD1B2" rx="6.6" ry="6.6" style="stroke:#181818;stroke-width:0.6;"/><path d="M83.7319,74.9168 Q83.3833,75.0961 82.9998,75.1858 Q82.6163,75.2754 82.1929,75.2754 Q80.6888,75.2754 79.8969,74.2843 Q79.105,73.2932 79.105,71.4205 Q79.105,69.5429 79.8969,68.5518 Q80.6888,67.5607 82.1929,67.5607 Q82.6163,67.5607 83.0047,67.6503 Q83.3932,67.74 83.7319,67.9193 L83.7319,69.5528 Q83.3534,69.2042 82.9973,69.0423 Q82.6412,68.8805 82.2626,68.8805 Q81.4558,68.8805 81.0449,69.5205 Q80.634,70.1605 80.634,71.4205 Q80.634,72.6756 81.0449,73.3156 Q81.4558,73.9556 82.2626,73.9556 Q82.6412,73.9556 82.9973,73.7937 Q83.3534,73.6318 83.7319,73.2832 Z " fill="#000000"/><text fill="#000000" font-family="sans-serif" font-size="8.4" lengthAdjust="spacing" textLength="141.6" x="94.248" y="74.7056">AddNewSensorToDeviceController</text><line style="stroke:#181818;stroke-width:0.3;" x1="25.998" x2="284.598" y1="81.131" y2="81.131"/><rect fill="none" height="3.6" style="stroke:#C82930;stroke-width:0.6;" width="3.6" x="30.198" y="87.5775"/><text fill="#000000" font-family="sans-serif" font-size="8.4" lengthAdjust="spacing" textLength="120.6" x="37.398" y="91.6521">sensorService : SensorService</text><line style="stroke:#181818;stroke-width:0.3;" x1="25.998" x2="284.598" y1="95.8239" y2="95.8239"/><ellipse cx="31.998" cy="109.0169" fill="#84BE84" rx="1.8" ry="1.8" style="stroke:#038048;stroke-width:0.6;"/><text fill="#000000" font-family="sans-serif" font-size="8.4" lengthAdjust="spacing" textLength="239.4" x="37.398" y="106.345">createSensorAndSaveToRepository(DeviceDTO deviceDTO,</text><text fill="#000000" font-family="sans-serif" font-size="8.4" lengthAdjust="spacing" textLength="244.2" x="37.398" y="116.238">String sensorName, String sensorFunctionality): SensorDTO</text></g><!--class SensorFunctionalityRepository--><g id="elem_SensorFunctionalityRepository"><rect codeLine="29" fill="#F1F1F1" height="48.5859" id="SensorFunctionalityRepository" rx="1.5" ry="1.5" style="stroke:#181818;stroke-width:0.3;" width="179.4" x="670.998" y="181.139"/><ellipse cx="687.558" cy="190.739" fill="#B4A7E5" rx="6.6" ry="6.6" style="stroke:#181818;stroke-width:0.6;"/><path d="M685.1146,188.1981 L685.1146,186.9031 L689.5423,186.9031 L689.5423,188.1981 L688.0631,188.1981 L688.0631,193.044 L689.5423,193.044 L689.5423,194.339 L685.1146,194.339 L685.1146,193.044 L686.5938,193.044 L686.5938,188.1981 Z " fill="#000000"/><text fill="#000000" font-family="sans-serif" font-size="8.4" font-style="italic" lengthAdjust="spacing" textLength="124.8" x="697.638" y="193.9136">SensorFunctionalityRepository</text><rect fill="#FFFFFF" height="9.6797" style="stroke:#181818;stroke-width:0.6;stroke-dasharray:2.0,2.0;" width="17.4" x="834.798" y="179.339"/><text fill="#000000" font-family="sans-serif" font-size="7.2" font-style="italic" lengthAdjust="spacing" textLength="16.2" x="835.398" y="186.8999">repo</text><line style="stroke:#181818;stroke-width:0.3;" x1="671.598" x2="849.798" y1="200.339" y2="200.339"/><line style="stroke:#181818;stroke-width:0.3;" x1="671.598" x2="849.798" y1="205.139" y2="205.139"/><ellipse cx="677.598" cy="218.3319" fill="#84BE84" rx="1.8" ry="1.8" style="stroke:#038048;stroke-width:0.6;"/><text fill="#000000" font-family="sans-serif" font-size="8.4" lengthAdjust="spacing" textLength="161.4" x="682.998" y="215.6601">getClassNameForSensorFunctionalityID</text><text fill="#000000" font-family="sans-serif" font-size="8.4" lengthAdjust="spacing" textLength="124.2" x="682.998" y="225.553">(sensorFunctionalityID): String</text></g><!--class SensorService--><g id="elem_SensorService"><rect codeLine="33" fill="#F1F1F1" height="88.1578" id="SensorService" rx="1.5" ry="1.5" style="stroke:#181818;stroke-width:0.3;" width="279" x="452.598" y="47.093"/><ellipse cx="561.048" cy="56.693" fill="#ADD1B2" rx="6.6" ry="6.6" style="stroke:#181818;stroke-width:0.6;"/><path d="M562.8319,60.0788 Q562.4833,60.2581 562.0998,60.3478 Q561.7163,60.4374 561.2929,60.4374 Q559.7888,60.4374 558.9969,59.4463 Q558.205,58.4552 558.205,56.5825 Q558.205,54.7049 558.9969,53.7138 Q559.7888,52.7227 561.2929,52.7227 Q561.7163,52.7227 562.1047,52.8123 Q562.4932,52.902 562.8319,53.0813 L562.8319,54.7148 Q562.4534,54.3662 562.0973,54.2043 Q561.7412,54.0425 561.3626,54.0425 Q560.5558,54.0425 560.1449,54.6825 Q559.734,55.3225 559.734,56.5825 Q559.734,57.8376 560.1449,58.4776 Q560.5558,59.1176 561.3626,59.1176 Q561.7412,59.1176 562.0973,58.9557 Q562.4534,58.7938 562.8319,58.4452 Z " fill="#000000"/><text fill="#000000" font-family="sans-serif" font-size="8.4" lengthAdjust="spacing" textLength="57" x="573.348" y="59.8676">SensorService</text><line style="stroke:#181818;stroke-width:0.3;" x1="453.198" x2="730.998" y1="66.293" y2="66.293"/><rect fill="none" height="3.6" style="stroke:#C82930;stroke-width:0.6;" width="3.6" x="457.398" y="72.7395"/><text fill="#000000" font-family="sans-serif" font-size="8.4" lengthAdjust="spacing" textLength="123" x="464.598" y="76.8141">sensorFactory : SensorFactory</text><rect fill="none" height="3.6" style="stroke:#C82930;stroke-width:0.6;" width="3.6" x="457.398" y="82.6324"/><text fill="#000000" font-family="sans-serif" font-size="8.4" lengthAdjust="spacing" textLength="150.6" x="464.598" y="86.707">sensorRepository : SensorRepository</text><rect fill="none" height="3.6" style="stroke:#C82930;stroke-width:0.6;" width="3.6" x="457.398" y="92.5254"/><text fill="#000000" font-family="sans-serif" font-size="8.4" lengthAdjust="spacing" textLength="147" x="464.598" y="96.6">deviceRepository : DeviceRepository</text><rect fill="none" height="3.6" style="stroke:#C82930;stroke-width:0.6;" width="3.6" x="457.398" y="102.4184"/><text fill="#000000" font-family="sans-serif" font-size="8.4" lengthAdjust="spacing" textLength="256.2" x="464.598" y="106.493">sensorFunctionalityRepository : SensorFunctionalityRepository</text><line style="stroke:#181818;stroke-width:0.3;" x1="453.198" x2="730.998" y1="110.6648" y2="110.6648"/><ellipse cx="459.198" cy="123.8578" fill="#84BE84" rx="1.8" ry="1.8" style="stroke:#038048;stroke-width:0.6;"/><text fill="#000000" font-family="sans-serif" font-size="8.4" lengthAdjust="spacing" textLength="165.6" x="464.598" y="121.1859">createSensorAndSave(DeviceID deviceID,</text><text fill="#000000" font-family="sans-serif" font-size="8.4" lengthAdjust="spacing" textLength="263.4" x="464.598" y="131.0789">SensorFunctionalityID sensorFunctionalityID, SensorID sensorID)</text></g><!--class FactorySensor--><g id="elem_FactorySensor"><rect codeLine="41" fill="#F1F1F1" height="48.5859" id="FactorySensor" rx="1.5" ry="1.5" style="stroke:#181818;stroke-width:0.3;" width="313.2" x="336.498" y="181.139"/><ellipse cx="448.548" cy="190.739" fill="#ADD1B2" rx="6.6" ry="6.6" style="stroke:#181818;stroke-width:0.6;"/><path d="M450.3319,194.1248 Q449.9833,194.3041 449.5998,194.3938 Q449.2163,194.4834 448.7929,194.4834 Q447.2888,194.4834 446.4969,193.4923 Q445.705,192.5012 445.705,190.6285 Q445.705,188.7509 446.4969,187.7598 Q447.2888,186.7687 448.7929,186.7687 Q449.2163,186.7687 449.6047,186.8583 Q449.9932,186.948 450.3319,187.1273 L450.3319,188.7608 Q449.9534,188.4122 449.5973,188.2503 Q449.2412,188.0885 448.8626,188.0885 Q448.0558,188.0885 447.6449,188.7285 Q447.234,189.3685 447.234,190.6285 Q447.234,191.8836 447.6449,192.5236 Q448.0558,193.1636 448.8626,193.1636 Q449.2412,193.1636 449.5973,193.0017 Q449.9534,192.8398 450.3319,192.4912 Z " fill="#000000"/><text fill="#000000" font-family="sans-serif" font-size="8.4" lengthAdjust="spacing" textLength="58.2" x="460.848" y="193.9136">FactorySensor</text><rect fill="#FFFFFF" height="9.6797" style="stroke:#181818;stroke-width:0.6;stroke-dasharray:2.0,2.0;" width="24.6" x="626.898" y="179.339"/><text fill="#000000" font-family="sans-serif" font-size="7.2" font-style="italic" lengthAdjust="spacing" textLength="23.4" x="627.498" y="186.8999">factory</text><line style="stroke:#181818;stroke-width:0.3;" x1="337.098" x2="649.098" y1="200.339" y2="200.339"/><line style="stroke:#181818;stroke-width:0.3;" x1="337.098" x2="649.098" y1="205.139" y2="205.139"/><ellipse cx="343.098" cy="218.3319" fill="#84BE84" rx="1.8" ry="1.8" style="stroke:#038048;stroke-width:0.6;"/><text fill="#000000" font-family="sans-serif" font-size="8.4" lengthAdjust="spacing" textLength="210" x="348.498" y="215.6601">createSensor(SensorID sensorID, DeviceID deviceID,</text><text fill="#000000" font-family="sans-serif" font-size="8.4" lengthAdjust="spacing" textLength="297.6" x="348.498" y="225.553">SensorFunctionalityID sensorFunctionalityID, String sensorClass): Sensor</text></g><!--class Sensor--><g id="elem_Sensor"><rect codeLine="45" fill="#F1F1F1" height="68.3719" id="Sensor" rx="1.5" ry="1.5" style="stroke:#181818;stroke-width:0.3;" width="201" x="69.798" y="275.621"/><ellipse cx="145.548" cy="285.221" fill="#A9DCDF" rx="6.6" ry="6.6" style="stroke:#181818;stroke-width:0.6;"/><path d="M145.616,282.4299 L144.9237,285.4729 L146.3132,285.4729 Z M144.7195,281.0851 L146.5174,281.0851 L148.5246,288.521 L147.0553,288.521 L146.5971,286.6832 L144.6298,286.6832 L144.1816,288.521 L142.7124,288.521 Z " fill="#000000"/><text fill="#000000" font-family="sans-serif" font-size="8.4" font-style="italic" lengthAdjust="spacing" textLength="28.2" x="157.848" y="288.3956">Sensor</text><rect fill="#FFFFFF" height="9.6797" style="stroke:#181818;stroke-width:0.6;stroke-dasharray:2.0,2.0;" width="15" x="257.598" y="273.821"/><text fill="#000000" font-family="sans-serif" font-size="7.2" font-style="italic" lengthAdjust="spacing" textLength="13.8" x="258.198" y="281.3819">root</text><line style="stroke:#181818;stroke-width:0.3;" x1="70.398" x2="270.198" y1="294.821" y2="294.821"/><rect fill="none" height="3.6" style="stroke:#C82930;stroke-width:0.6;" width="3.6" x="74.598" y="301.2675"/><text fill="#000000" font-family="sans-serif" font-size="8.4" lengthAdjust="spacing" textLength="79.8" x="81.798" y="305.3421">sensorID : SensorID</text><rect fill="none" height="3.6" style="stroke:#C82930;stroke-width:0.6;" width="3.6" x="74.598" y="311.1604"/><text fill="#000000" font-family="sans-serif" font-size="8.4" lengthAdjust="spacing" textLength="76.2" x="81.798" y="315.235">deviceID : DeviceID</text><rect fill="none" height="3.6" style="stroke:#C82930;stroke-width:0.6;" width="3.6" x="74.598" y="321.0534"/><text fill="#000000" font-family="sans-serif" font-size="8.4" lengthAdjust="spacing" textLength="185.4" x="81.798" y="325.128">sensorFunctionalityID : SensorFunctionalityID</text><line style="stroke:#181818;stroke-width:0.3;" x1="70.398" x2="270.198" y1="329.2999" y2="329.2999"/><ellipse cx="76.398" cy="337.5464" fill="#84BE84" rx="1.8" ry="1.8" style="stroke:#038048;stroke-width:0.6;"/><text fill="#000000" font-family="sans-serif" font-size="8.4" lengthAdjust="spacing" textLength="78" x="81.798" y="339.821">identity(): SensorID</text></g><!--class SensorFunctionalityID--><g id="elem_SensorFunctionalityID"><rect codeLine="69" fill="#F1F1F1" height="38.693" id="SensorFunctionalityID" rx="1.5" ry="1.5" style="stroke:#181818;stroke-width:0.3;" width="136.2" x="25.398" y="379.991"/><ellipse cx="41.148" cy="389.591" fill="#ADD1B2" rx="6.6" ry="6.6" style="stroke:#181818;stroke-width:0.6;"/><path d="M42.9319,392.9768 Q42.5833,393.1561 42.1998,393.2458 Q41.8163,393.3354 41.3929,393.3354 Q39.8888,393.3354 39.0969,392.3443 Q38.305,391.3532 38.305,389.4805 Q38.305,387.6029 39.0969,386.6118 Q39.8888,385.6207 41.3929,385.6207 Q41.8163,385.6207 42.2047,385.7103 Q42.5932,385.8 42.9319,385.9793 L42.9319,387.6128 Q42.5534,387.2642 42.1973,387.1023 Q41.8412,386.9405 41.4626,386.9405 Q40.6558,386.9405 40.2449,387.5805 Q39.834,388.2205 39.834,389.4805 Q39.834,390.7356 40.2449,391.3756 Q40.6558,392.0156 41.4626,392.0156 Q41.8412,392.0156 42.1973,391.8537 Q42.5534,391.6918 42.9319,391.3432 Z " fill="#000000"/><text fill="#000000" font-family="sans-serif" font-size="8.4" lengthAdjust="spacing" textLength="89.4" x="51.048" y="392.7656">SensorFunctionalityID</text><rect fill="#FFFFFF" height="9.6797" style="stroke:#181818;stroke-width:0.6;stroke-dasharray:2.0,2.0;" width="11.4" x="151.998" y="378.191"/><text fill="#000000" font-family="sans-serif" font-size="7.2" font-style="italic" lengthAdjust="spacing" textLength="10.2" x="152.598" y="385.7519">VO</text><line style="stroke:#181818;stroke-width:0.3;" x1="25.998" x2="160.998" y1="399.191" y2="399.191"/><rect fill="none" height="3.6" style="stroke:#C82930;stroke-width:0.6;" width="3.6" x="30.198" y="405.6375"/><text fill="#000000" font-family="sans-serif" font-size="8.4" lengthAdjust="spacing" textLength="120.6" x="37.398" y="409.7121">sensorFunctionalityID : String</text><line style="stroke:#181818;stroke-width:0.3;" x1="25.998" x2="160.998" y1="413.8839" y2="413.8839"/></g><!--class DeviceID--><g id="elem_DeviceID"><rect codeLine="65" fill="#F1F1F1" height="38.693" id="DeviceID" rx="1.5" ry="1.5" style="stroke:#181818;stroke-width:0.3;" width="81.6" x="182.898" y="379.991"/><ellipse cx="198.648" cy="389.591" fill="#ADD1B2" rx="6.6" ry="6.6" style="stroke:#181818;stroke-width:0.6;"/><path d="M200.4319,392.9768 Q200.0833,393.1561 199.6998,393.2458 Q199.3163,393.3354 198.8929,393.3354 Q197.3888,393.3354 196.5969,392.3443 Q195.805,391.3532 195.805,389.4805 Q195.805,387.6029 196.5969,386.6118 Q197.3888,385.6207 198.8929,385.6207 Q199.3163,385.6207 199.7047,385.7103 Q200.0932,385.8 200.4319,385.9793 L200.4319,387.6128 Q200.0534,387.2642 199.6973,387.1023 Q199.3412,386.9405 198.9626,386.9405 Q198.1558,386.9405 197.7449,387.5805 Q197.334,388.2205 197.334,389.4805 Q197.334,390.7356 197.7449,391.3756 Q198.1558,392.0156 198.9626,392.0156 Q199.3412,392.0156 199.6973,391.8537 Q200.0534,391.6918 200.4319,391.3432 Z " fill="#000000"/><text fill="#000000" font-family="sans-serif" font-size="8.4" lengthAdjust="spacing" textLength="34.8" x="208.548" y="392.7656">DeviceID</text><rect fill="#FFFFFF" height="9.6797" style="stroke:#181818;stroke-width:0.6;stroke-dasharray:2.0,2.0;" width="11.4" x="254.898" y="378.191"/><text fill="#000000" font-family="sans-serif" font-size="7.2" font-style="italic" lengthAdjust="spacing" textLength="10.2" x="255.498" y="385.7519">VO</text><line style="stroke:#181818;stroke-width:0.3;" x1="183.498" x2="263.898" y1="399.191" y2="399.191"/><rect fill="none" height="3.6" style="stroke:#C82930;stroke-width:0.6;" width="3.6" x="187.698" y="405.6375"/><text fill="#000000" font-family="sans-serif" font-size="8.4" lengthAdjust="spacing" textLength="66" x="194.898" y="409.7121">deviceID : String</text><line style="stroke:#181818;stroke-width:0.3;" x1="183.498" x2="263.898" y1="413.8839" y2="413.8839"/></g><!--class SensorID--><g id="elem_SensorID"><rect codeLine="61" fill="#F1F1F1" height="38.693" id="SensorID" rx="1.5" ry="1.5" style="stroke:#181818;stroke-width:0.3;" width="83.4" x="285.798" y="379.991"/><ellipse cx="301.548" cy="389.591" fill="#ADD1B2" rx="6.6" ry="6.6" style="stroke:#181818;stroke-width:0.6;"/><path d="M303.3319,392.9768 Q302.9833,393.1561 302.5998,393.2458 Q302.2163,393.3354 301.7929,393.3354 Q300.2888,393.3354 299.4969,392.3443 Q298.705,391.3532 298.705,389.4805 Q298.705,387.6029 299.4969,386.6118 Q300.2888,385.6207 301.7929,385.6207 Q302.2163,385.6207 302.6047,385.7103 Q302.9932,385.8 303.3319,385.9793 L303.3319,387.6128 Q302.9534,387.2642 302.5973,387.1023 Q302.2412,386.9405 301.8626,386.9405 Q301.0558,386.9405 300.6449,387.5805 Q300.234,388.2205 300.234,389.4805 Q300.234,390.7356 300.6449,391.3756 Q301.0558,392.0156 301.8626,392.0156 Q302.2412,392.0156 302.5973,391.8537 Q302.9534,391.6918 303.3319,391.3432 Z " fill="#000000"/><text fill="#000000" font-family="sans-serif" font-size="8.4" lengthAdjust="spacing" textLength="36.6" x="311.448" y="392.7656">SensorID</text><rect fill="#FFFFFF" height="9.6797" style="stroke:#181818;stroke-width:0.6;stroke-dasharray:2.0,2.0;" width="11.4" x="359.598" y="378.191"/><text fill="#000000" font-family="sans-serif" font-size="7.2" font-style="italic" lengthAdjust="spacing" textLength="10.2" x="360.198" y="385.7519">VO</text><line style="stroke:#181818;stroke-width:0.3;" x1="286.398" x2="368.598" y1="399.191" y2="399.191"/><rect fill="none" height="3.6" style="stroke:#C82930;stroke-width:0.6;" width="3.6" x="290.598" y="405.6375"/><text fill="#000000" font-family="sans-serif" font-size="8.4" lengthAdjust="spacing" textLength="67.8" x="297.798" y="409.7121">sensorID : String</text><line style="stroke:#181818;stroke-width:0.3;" x1="286.398" x2="368.598" y1="413.8839" y2="413.8839"/></g><!--class SensorRepository--><g id="elem_SensorRepository"><rect codeLine="56" fill="#F1F1F1" height="48.5859" id="SensorRepository" rx="1.5" ry="1.5" style="stroke:#181818;stroke-width:0.3;" width="210" x="871.698" y="181.139"/><ellipse cx="928.848" cy="190.739" fill="#B4A7E5" rx="6.6" ry="6.6" style="stroke:#181818;stroke-width:0.6;"/><path d="M926.4046,188.1981 L926.4046,186.9031 L930.8323,186.9031 L930.8323,188.1981 L929.3531,188.1981 L929.3531,193.044 L930.8323,193.044 L930.8323,194.339 L926.4046,194.339 L926.4046,193.044 L927.8838,193.044 L927.8838,188.1981 Z " fill="#000000"/><text fill="#000000" font-family="sans-serif" font-size="8.4" font-style="italic" lengthAdjust="spacing" textLength="72" x="941.148" y="193.9136">SensorRepository</text><rect fill="#FFFFFF" height="9.6797" style="stroke:#181818;stroke-width:0.6;stroke-dasharray:2.0,2.0;" width="17.4" x="1066.098" y="179.339"/><text fill="#000000" font-family="sans-serif" font-size="7.2" font-style="italic" lengthAdjust="spacing" textLength="16.2" x="1066.698" y="186.8999">repo</text><line style="stroke:#181818;stroke-width:0.3;" x1="872.298" x2="1081.098" y1="200.339" y2="200.339"/><line style="stroke:#181818;stroke-width:0.3;" x1="872.298" x2="1081.098" y1="205.139" y2="205.139"/><ellipse cx="878.298" cy="213.3855" fill="#84BE84" rx="1.8" ry="1.8" style="stroke:#038048;stroke-width:0.6;"/><text fill="#000000" font-family="sans-serif" font-size="8.4" lengthAdjust="spacing" textLength="194.4" x="883.698" y="215.6601">containsEntityByID(SensorID sensorID): boolean</text><ellipse cx="878.298" cy="223.2784" fill="#84BE84" rx="1.8" ry="1.8" style="stroke:#038048;stroke-width:0.6;"/><text fill="#000000" font-family="sans-serif" font-size="8.4" lengthAdjust="spacing" textLength="115.2" x="883.698" y="225.553">save(Sensor sensor): Sensor</text></g><!--link Sensor to SensorFunctionalityID--><g id="link_Sensor_SensorFunctionalityID"><path codeLine="52" d="M115.698,344.165 C115.698,356.201 115.698,369.293 115.698,379.703 " fill="none" id="Sensor-SensorFunctionalityID" style="stroke:#181818;stroke-width:0.6;"/></g><!--link Sensor to DeviceID--><g id="link_Sensor_DeviceID"><path codeLine="53" d="M237.3,344.165 C237.3,356.201 237.3,369.293 237.3,379.703 " fill="none" id="Sensor-DeviceID" style="stroke:#181818;stroke-width:0.6;"/></g><!--link Sensor to SensorID--><g id="link_Sensor_SensorID"><path codeLine="54" d="M267.648,344.219 C267.648,369.509 267.648,399.485 267.648,399.485 C267.648,399.485 275.55,399.485 285.606,399.485 " fill="none" id="Sensor-SensorID" style="stroke:#181818;stroke-width:0.6;"/></g><!--link AddNewSensorToDeviceController to DeviceDTO--><g id="link_AddNewSensorToDeviceController_DeviceDTO"><path codeLine="74" d="M140.898,120.593 C140.898,136.001 140.898,151.355 140.898,167.441 " fill="none" id="AddNewSensorToDeviceController-to-DeviceDTO" style="stroke:#181818;stroke-width:0.6;stroke-dasharray:7.0,7.0;"/><polygon fill="#181818" points="140.898,171.041,143.298,165.641,140.898,168.041,138.498,165.641,140.898,171.041" style="stroke:#181818;stroke-width:0.6;"/><text fill="#000000" font-family="sans-serif" font-size="7.8" lengthAdjust="spacing" textLength="25.8" x="114.498" y="143.758">&#171;uses&#187;</text></g><!--link AddNewSensorToDeviceController to SensorDTO--><g id="link_AddNewSensorToDeviceController_SensorDTO"><path codeLine="75" d="M248.148,120.593 C248.148,137.591 248.148,155.297 248.148,172.307 " fill="none" id="AddNewSensorToDeviceController-to-SensorDTO" style="stroke:#181818;stroke-width:0.6;stroke-dasharray:7.0,7.0;"/><polygon fill="#181818" points="248.148,175.907,250.548,170.507,248.148,172.907,245.748,170.507,248.148,175.907" style="stroke:#181818;stroke-width:0.6;"/><text fill="#000000" font-family="sans-serif" font-size="7.8" lengthAdjust="spacing" textLength="35.4" x="212.148" y="146.194">&#171;creates&#187;</text></g><!--link AddNewSensorToDeviceController to SensorID--><g id="link_AddNewSensorToDeviceController_SensorID"><path codeLine="76" d="M285.33,101.285 C308.808,101.285 325.998,101.285 325.998,101.285 C325.998,101.285 325.998,309.875 325.998,376.181 " fill="none" id="AddNewSensorToDeviceController-to-SensorID" style="stroke:#181818;stroke-width:0.6;stroke-dasharray:7.0,7.0;"/><polygon fill="#181818" points="325.998,379.781,328.398,374.381,325.998,376.781,323.598,374.381,325.998,379.781" style="stroke:#181818;stroke-width:0.6;"/><text fill="#000000" font-family="sans-serif" font-size="7.8" lengthAdjust="spacing" textLength="35.4" x="308.298" y="228.34">&#171;creates&#187;</text></g><!--link AddNewSensorToDeviceController to SensorFunctionalityID--><g id="link_AddNewSensorToDeviceController_SensorFunctionalityID"><path codeLine="77" d="M40.2,120.437 C40.2,182.789 40.2,323.699 40.2,376.217 " fill="none" id="AddNewSensorToDeviceController-to-SensorFunctionalityID" style="stroke:#181818;stroke-width:0.6;stroke-dasharray:7.0,7.0;"/><polygon fill="#181818" points="40.2,379.817,42.6,374.417,40.2,376.817,37.8,374.417,40.2,379.817" style="stroke:#181818;stroke-width:0.6;"/><text fill="#000000" font-family="sans-serif" font-size="7.8" lengthAdjust="spacing" textLength="35.4" x="4.2" y="248.068">&#171;creates&#187;</text></g><!--link AddNewSensorToDeviceController to DeviceID--><g id="link_AddNewSensorToDeviceController_DeviceID"><path codeLine="78" d="M55.002,120.701 C55.002,190.967 55.002,362.285 55.002,362.285 C55.002,362.285 210.102,362.285 210.102,362.285 C210.102,362.285 210.102,367.241 210.102,376.127 " fill="none" id="AddNewSensorToDeviceController-to-DeviceID" style="stroke:#181818;stroke-width:0.6;stroke-dasharray:7.0,7.0;"/><polygon fill="#181818" points="210.102,379.727,212.502,374.327,210.102,376.727,207.702,374.327,210.102,379.727" style="stroke:#181818;stroke-width:0.6;"/><text fill="#000000" font-family="sans-serif" font-size="7.8" lengthAdjust="spacing" textLength="35.4" x="19.002" y="325.702">&#171;creates&#187;</text></g><!--link AddNewSensorToDeviceController to SensorService--><g id="link_AddNewSensorToDeviceController_SensorService"><path codeLine="79" d="M285.468,81.485 C338.082,81.485 398.904,81.485 452.442,81.485 " fill="none" id="AddNewSensorToDeviceController-SensorService" style="stroke:#181818;stroke-width:0.6;"/></g><!--link SensorService to DeviceRepository--><g id="link_SensorService_DeviceRepository"><path codeLine="80" d="M731.82,91.685 C738.81,91.685 745.788,91.685 752.694,91.685 " fill="none" id="SensorService-DeviceRepository" style="stroke:#181818;stroke-width:0.6;"/></g><!--link SensorService to SensorFunctionalityRepository--><g id="link_SensorService_SensorFunctionalityRepository"><path codeLine="81" d="M701.298,135.509 C701.298,150.941 701.298,167.687 701.298,180.923 " fill="none" id="SensorService-SensorFunctionalityRepository" style="stroke:#181818;stroke-width:0.6;"/></g><!--link SensorService to FactorySensor--><g id="link_SensorService_FactorySensor"><path codeLine="82" d="M551.148,135.509 C551.148,150.941 551.148,167.687 551.148,180.923 " fill="none" id="SensorService-FactorySensor" style="stroke:#181818;stroke-width:0.6;"/></g><!--link SensorService to SensorRepository--><g id="link_SensorService_SensorRepository"><path codeLine="83" d="M731.664,122.885 C823.524,122.885 926.898,122.885 926.898,122.885 C926.898,122.885 926.898,156.557 926.898,180.893 " fill="none" id="SensorService-SensorRepository" style="stroke:#181818;stroke-width:0.6;"/></g><!--link FactorySensor to Sensor--><g id="link_FactorySensor_Sensor"><path codeLine="84" d="M352.848,229.973 C352.848,260.903 352.848,310.085 352.848,310.085 C352.848,310.085 316.836,310.085 274.518,310.085 " fill="none" id="FactorySensor-to-Sensor" style="stroke:#181818;stroke-width:0.6;stroke-dasharray:7.0,7.0;"/><polygon fill="#181818" points="270.918,310.085,276.318,312.485,273.918,310.085,276.318,307.685,270.918,310.085" style="stroke:#181818;stroke-width:0.6;"/><text fill="#000000" font-family="sans-serif" font-size="7.8" lengthAdjust="spacing" textLength="35.4" x="315.942" y="308.026">&#171;creates&#187;</text></g><!--SRC=[hLLBYzim4BxhLmpquf0uXruAnXXsuwO4oWRgjAUzQEr9LgmZ1Kd94fRzxvKjF-HNjodDoPhdDzyyebuOFr59Zv0pZlfwGX1IFmj2DDCvmi_Lb-LdyE4kou3ZAoJ8bP2W1SHuOIaISgBf2pqWA9GNbF3fEpiyws-INk6D4COroZrDiJB_WIUXc1Ro2g4qtz4R0VERxndFldAJydf_tSIUDTx4a5KVim2s9yq4ftbebH5v9oJDgL9Lw7YtDHbXRbqUw14XW4HBnWz6UXGPvgx0cYMQwhDovLA8OzUvoMDhh_EeybMO3g9kOaUqF_FK8ZVLEPechA7s0Lzjy9smnQm4rrBakI7KCkJRT8aXsQWBSExRafXAf1gjuevd2RtWJhICUorFMVsrW4TkyK1Rpm8wehLRm2neQIXAQ1kS38sdkdr0lIfABvAjYo86dgRrZznJOuhPL6DgRZg4hMbQvgzXLs_Nn45PMxKYQvZrXpSOp7CdwGG9mPz9ckpYS1_AletIDihPeahSw0sDBNqL9zLgXtlxh9lbul46OHRm7x2vqrOEHZDb1KZwfBGqcC1jjXae8RJ1wDT86dOtCV5hB4sZ2k5e-l6c6FCvox2yIDxCYMpmL01yVyAnrJUf-ov6DDYSgML9pIcWZ2ldF0wR6S2J43bIRdrKCJHLKclJOTGbqaG9VssZpj9OLdfBrlJPcllWS3o-a7scQyV9FZHHo0StSRcCdAjlNCFmh515qTyujcUyTBJpVPElGVklhlsgRu_JzE4sLx_tZz6zcVxmdlKC_0zkry2ySrMceZa1kbUePQnRvVjl]--></g></svg>