<?xml version="1.0" encoding="us-ascii" standalone="no"?><svg xmlns="http://www.w3.org/2000/svg" xmlns:xlink="http://www.w3.org/1999/xlink" contentStyleType="text/css" height="517px" preserveAspectRatio="none" style="width:990px;height:517px;background:#FFFFFF;" version="1.1" viewBox="0 0 990 517" width="990px" zoomAndPan="magnify"><defs/><g><text fill="#000000" font-family="sans-serif" font-size="14" font-weight="bold" lengthAdjust="spacing" textLength="239" x="368.5" y="25.1074">UC07.1 List Sensor Functionalities</text><!--cluster server--><g id="cluster_server"><path d="M8.5,45.6348 L56.5,45.6348 A3.75,3.75 0 0 1 59,48.1348 L66,70.2559 L980.5,70.2559 A2.5,2.5 0 0 1 983,72.7559 L983,508.1348 A2.5,2.5 0 0 1 980.5,510.6348 L8.5,510.6348 A2.5,2.5 0 0 1 6,508.1348 L6,48.1348 A2.5,2.5 0 0 1 8.5,45.6348 " fill="#D3D3D3" style="stroke:#000000;stroke-width:1.5;"/><line style="stroke:#000000;stroke-width:1.5;" x1="6" x2="66" y1="70.2559" y2="70.2559"/><text fill="#000000" font-family="sans-serif" font-size="14" font-weight="bold" lengthAdjust="spacing" textLength="47" x="10" y="62.7422">server</text></g><!--class ListSensorFunctionalitiesController--><g id="elem_ListSensorFunctionalitiesController"><rect codeLine="6" fill="#F1F1F1" height="85.2422" id="ListSensorFunctionalitiesController" rx="2.5" ry="2.5" style="stroke:#181818;stroke-width:0.5;" width="376" x="288" y="82.6348"/><ellipse cx="361.75" cy="98.6348" fill="#ADD1B2" rx="11" ry="11" style="stroke:#181818;stroke-width:1.0;"/><path d="M364.5156,94.5098 Q364.6719,94.291 364.8594,94.1816 Q365.0469,94.0723 365.2656,94.0723 Q365.6406,94.0723 365.875,94.3379 Q366.1094,94.5879 366.1094,95.1973 L366.1094,96.6504 Q366.1094,97.2598 365.875,97.5254 Q365.6406,97.791 365.2656,97.791 Q364.9219,97.791 364.7188,97.5879 Q364.5156,97.4004 364.4063,96.8848 Q364.3594,96.5254 364.1719,96.3379 Q363.8438,95.9629 363.2344,95.7441 Q362.625,95.5254 362,95.5254 Q361.2344,95.5254 360.5938,95.8535 Q359.9688,96.1816 359.4688,96.9316 Q358.9844,97.6816 358.9844,98.7129 L358.9844,99.8066 Q358.9844,101.041 359.875,101.8691 Q360.7656,102.6816 362.3594,102.6816 Q363.2969,102.6816 363.9531,102.4316 Q364.3438,102.2754 364.7656,101.8379 Q365.0313,101.5723 365.1719,101.4941 Q365.3281,101.416 365.5313,101.416 Q365.8594,101.416 366.1094,101.6816 Q366.375,101.9316 366.375,102.2754 Q366.375,102.6191 366.0313,103.0254 Q365.5313,103.6035 364.7344,103.9316 Q363.6563,104.3848 362.3594,104.3848 Q360.8438,104.3848 359.6406,103.7598 Q358.6563,103.2598 357.9688,102.1973 Q357.2813,101.1191 357.2813,99.8379 L357.2813,98.6816 Q357.2813,97.3535 357.8906,96.2129 Q358.5156,95.0566 359.6094,94.4473 Q360.7031,93.8223 361.9375,93.8223 Q362.6719,93.8223 363.3125,93.9941 Q363.9688,94.1504 364.5156,94.5098 Z " fill="#000000"/><text fill="#000000" font-family="sans-serif" font-size="14" lengthAdjust="spacing" textLength="220" x="382.25" y="104.4316">ListSensorFunctionalitiesController</text><line style="stroke:#181818;stroke-width:0.5;" x1="289" x2="663" y1="114.6348" y2="114.6348"/><rect fill="none" height="6" style="stroke:#C82930;stroke-width:1.0;" width="6" x="296" y="126.4453"/><text fill="#000000" font-family="sans-serif" font-size="14" lengthAdjust="spacing" textLength="350" x="308" y="133.7422">sensorFunctionalityService: SensorFunctionalityService</text><line style="stroke:#181818;stroke-width:0.5;" x1="289" x2="663" y1="141.2559" y2="141.2559"/><ellipse cx="299" cy="156.0664" fill="#84BE84" rx="3" ry="3" style="stroke:#038048;stroke-width:1.0;"/><text fill="#000000" font-family="sans-serif" font-size="14" lengthAdjust="spacing" textLength="203" x="308" y="160.3633">getListOfSensorFunctionalities()</text></g><!--class SensorFunctionalityService--><g id="elem_SensorFunctionalityService"><rect codeLine="11" fill="#F1F1F1" height="85.2422" id="SensorFunctionalityService" rx="2.5" ry="2.5" style="stroke:#181818;stroke-width:0.5;" width="418" x="22" y="246.1348"/><ellipse cx="140.75" cy="262.1348" fill="#ADD1B2" rx="11" ry="11" style="stroke:#181818;stroke-width:1.0;"/><path d="M143.5156,258.0098 Q143.6719,257.791 143.8594,257.6816 Q144.0469,257.5723 144.2656,257.5723 Q144.6406,257.5723 144.875,257.8379 Q145.1094,258.0879 145.1094,258.6973 L145.1094,260.1504 Q145.1094,260.7598 144.875,261.0254 Q144.6406,261.291 144.2656,261.291 Q143.9219,261.291 143.7188,261.0879 Q143.5156,260.9004 143.4063,260.3848 Q143.3594,260.0254 143.1719,259.8379 Q142.8438,259.4629 142.2344,259.2441 Q141.625,259.0254 141,259.0254 Q140.2344,259.0254 139.5938,259.3535 Q138.9688,259.6816 138.4688,260.4316 Q137.9844,261.1816 137.9844,262.2129 L137.9844,263.3066 Q137.9844,264.541 138.875,265.3691 Q139.7656,266.1816 141.3594,266.1816 Q142.2969,266.1816 142.9531,265.9316 Q143.3438,265.7754 143.7656,265.3379 Q144.0313,265.0723 144.1719,264.9941 Q144.3281,264.916 144.5313,264.916 Q144.8594,264.916 145.1094,265.1816 Q145.375,265.4316 145.375,265.7754 Q145.375,266.1191 145.0313,266.5254 Q144.5313,267.1035 143.7344,267.4316 Q142.6563,267.8848 141.3594,267.8848 Q139.8438,267.8848 138.6406,267.2598 Q137.6563,266.7598 136.9688,265.6973 Q136.2813,264.6191 136.2813,263.3379 L136.2813,262.1816 Q136.2813,260.8535 136.8906,259.7129 Q137.5156,258.5566 138.6094,257.9473 Q139.7031,257.3223 140.9375,257.3223 Q141.6719,257.3223 142.3125,257.4941 Q142.9688,257.6504 143.5156,258.0098 Z " fill="#000000"/><text fill="#000000" font-family="sans-serif" font-size="14" lengthAdjust="spacing" textLength="172" x="161.25" y="267.9316">SensorFunctionalityService</text><line style="stroke:#181818;stroke-width:0.5;" x1="23" x2="439" y1="278.1348" y2="278.1348"/><rect fill="none" height="6" style="stroke:#C82930;stroke-width:1.0;" width="6" x="30" y="289.9453"/><text fill="#000000" font-family="sans-serif" font-size="14" lengthAdjust="spacing" textLength="392" x="42" y="297.2422">sensorFunctionalityRepository: SensorFunctionalityRepository</text><line style="stroke:#181818;stroke-width:0.5;" x1="23" x2="439" y1="304.7559" y2="304.7559"/><ellipse cx="33" cy="319.5664" fill="#84BE84" rx="3" ry="3" style="stroke:#038048;stroke-width:1.0;"/><text fill="#000000" font-family="sans-serif" font-size="14" lengthAdjust="spacing" textLength="387" x="42" y="323.8633">getListOfSensorFunctionalities(): List&lt;SensorFunctionalityID&gt;</text></g><!--class SensorFunctionality--><g id="elem_SensorFunctionality"><rect codeLine="16" fill="#F1F1F1" height="85.2422" id="SensorFunctionality" rx="2.5" ry="2.5" style="stroke:#181818;stroke-width:0.5;" width="227" x="22.5" y="409.6348"/><ellipse cx="57.75" cy="425.6348" fill="#ADD1B2" rx="11" ry="11" style="stroke:#181818;stroke-width:1.0;"/><path d="M60.5156,421.5098 Q60.6719,421.291 60.8594,421.1816 Q61.0469,421.0723 61.2656,421.0723 Q61.6406,421.0723 61.875,421.3379 Q62.1094,421.5879 62.1094,422.1973 L62.1094,423.6504 Q62.1094,424.2598 61.875,424.5254 Q61.6406,424.791 61.2656,424.791 Q60.9219,424.791 60.7188,424.5879 Q60.5156,424.4004 60.4063,423.8848 Q60.3594,423.5254 60.1719,423.3379 Q59.8438,422.9629 59.2344,422.7441 Q58.625,422.5254 58,422.5254 Q57.2344,422.5254 56.5938,422.8535 Q55.9688,423.1816 55.4688,423.9316 Q54.9844,424.6816 54.9844,425.7129 L54.9844,426.8066 Q54.9844,428.041 55.875,428.8691 Q56.7656,429.6816 58.3594,429.6816 Q59.2969,429.6816 59.9531,429.4316 Q60.3438,429.2754 60.7656,428.8379 Q61.0313,428.5723 61.1719,428.4941 Q61.3281,428.416 61.5313,428.416 Q61.8594,428.416 62.1094,428.6816 Q62.375,428.9316 62.375,429.2754 Q62.375,429.6191 62.0313,430.0254 Q61.5313,430.6035 60.7344,430.9316 Q59.6563,431.3848 58.3594,431.3848 Q56.8438,431.3848 55.6406,430.7598 Q54.6563,430.2598 53.9688,429.1973 Q53.2813,428.1191 53.2813,426.8379 L53.2813,425.6816 Q53.2813,424.3535 53.8906,423.2129 Q54.5156,422.0566 55.6094,421.4473 Q56.7031,420.8223 57.9375,420.8223 Q58.6719,420.8223 59.3125,420.9941 Q59.9688,421.1504 60.5156,421.5098 Z " fill="#000000"/><text fill="#000000" font-family="sans-serif" font-size="14" lengthAdjust="spacing" textLength="125" x="76.25" y="431.4316">SensorFunctionality</text><rect fill="#FFFFFF" height="17.9609" style="stroke:#181818;stroke-width:1.0;stroke-dasharray:2.0,2.0;" width="23" x="229.5" y="406.6348"/><text fill="#000000" font-family="sans-serif" font-size="12" font-style="italic" lengthAdjust="spacing" textLength="21" x="230.5" y="420.584">root</text><line style="stroke:#181818;stroke-width:0.5;" x1="23.5" x2="248.5" y1="441.6348" y2="441.6348"/><rect fill="none" height="6" style="stroke:#C82930;stroke-width:1.0;" width="6" x="30.5" y="453.4453"/><text fill="#000000" font-family="sans-serif" font-size="14" lengthAdjust="spacing" textLength="157" x="42.5" y="460.7422">id: SensorFunctionalityID</text><line style="stroke:#181818;stroke-width:0.5;" x1="23.5" x2="248.5" y1="468.2559" y2="468.2559"/><ellipse cx="33.5" cy="483.0664" fill="#84BE84" rx="3" ry="3" style="stroke:#038048;stroke-width:1.0;"/><text fill="#000000" font-family="sans-serif" font-size="14" lengthAdjust="spacing" textLength="201" x="42.5" y="487.3633">identity(): SensorFunctionalityID</text></g><!--class SensorFunctionalityRepository--><g id="elem_SensorFunctionalityRepository"><rect codeLine="21" fill="#F1F1F1" height="66.6211" id="SensorFunctionalityRepository" rx="2.5" ry="2.5" style="stroke:#181818;stroke-width:0.5;" width="316" x="285" y="418.6348"/><ellipse cx="327.9" cy="434.6348" fill="#B4A7E5" rx="11" ry="11" style="stroke:#181818;stroke-width:1.0;"/><path d="M328.8531,431.2754 L328.8531,437.9316 L330.5719,437.9316 Q331.1813,437.9316 331.4469,438.166 Q331.7125,438.4004 331.7125,438.791 Q331.7125,439.166 331.4469,439.4004 Q331.1813,439.6348 330.5719,439.6348 L325.4313,439.6348 Q324.8219,439.6348 324.5563,439.4004 Q324.2906,439.166 324.2906,438.7754 Q324.2906,438.4004 324.5563,438.166 Q324.8219,437.9316 325.4313,437.9316 L327.15,437.9316 L327.15,431.2754 L325.4313,431.2754 Q324.8219,431.2754 324.5563,431.041 Q324.2906,430.8066 324.2906,430.416 Q324.2906,430.041 324.5563,429.8066 Q324.8219,429.5723 325.4313,429.5723 L330.5719,429.5723 Q331.1813,429.5723 331.4469,429.8066 Q331.7125,430.041 331.7125,430.416 Q331.7125,430.8066 331.4469,431.041 Q331.1813,431.2754 330.5719,431.2754 L328.8531,431.2754 Z " fill="#000000"/><text fill="#000000" font-family="sans-serif" font-size="14" font-style="italic" lengthAdjust="spacing" textLength="193" x="348.1" y="440.4316">SensorFunctionalityRepository</text><rect fill="#FFFFFF" height="17.9609" style="stroke:#181818;stroke-width:1.0;stroke-dasharray:2.0,2.0;" width="27" x="577" y="415.6348"/><text fill="#000000" font-family="sans-serif" font-size="12" font-style="italic" lengthAdjust="spacing" textLength="25" x="578" y="429.584">repo</text><line style="stroke:#181818;stroke-width:0.5;" x1="286" x2="600" y1="450.6348" y2="450.6348"/><line style="stroke:#181818;stroke-width:0.5;" x1="286" x2="600" y1="458.6348" y2="458.6348"/><ellipse cx="296" cy="473.4453" fill="#84BE84" rx="3" ry="3" style="stroke:#038048;stroke-width:1.0;"/><text fill="#000000" font-family="sans-serif" font-size="14" lengthAdjust="spacing" textLength="290" x="305" y="477.7422">findAllEntities(): Iterable&lt;SensorFunctionality&gt;</text></g><!--class SensorFunctionalityMapperDTO--><g id="elem_SensorFunctionalityMapperDTO"><rect codeLine="25" fill="#F1F1F1" height="122.4844" id="SensorFunctionalityMapperDTO" rx="2.5" ry="2.5" style="stroke:#181818;stroke-width:0.5;" width="492" x="475" y="227.6348"/><ellipse cx="615.25" cy="243.6348" fill="#ADD1B2" rx="11" ry="11" style="stroke:#181818;stroke-width:1.0;"/><path d="M618.0156,239.5098 Q618.1719,239.291 618.3594,239.1816 Q618.5469,239.0723 618.7656,239.0723 Q619.1406,239.0723 619.375,239.3379 Q619.6094,239.5879 619.6094,240.1973 L619.6094,241.6504 Q619.6094,242.2598 619.375,242.5254 Q619.1406,242.791 618.7656,242.791 Q618.4219,242.791 618.2188,242.5879 Q618.0156,242.4004 617.9063,241.8848 Q617.8594,241.5254 617.6719,241.3379 Q617.3438,240.9629 616.7344,240.7441 Q616.125,240.5254 615.5,240.5254 Q614.7344,240.5254 614.0938,240.8535 Q613.4688,241.1816 612.9688,241.9316 Q612.4844,242.6816 612.4844,243.7129 L612.4844,244.8066 Q612.4844,246.041 613.375,246.8691 Q614.2656,247.6816 615.8594,247.6816 Q616.7969,247.6816 617.4531,247.4316 Q617.8438,247.2754 618.2656,246.8379 Q618.5313,246.5723 618.6719,246.4941 Q618.8281,246.416 619.0313,246.416 Q619.3594,246.416 619.6094,246.6816 Q619.875,246.9316 619.875,247.2754 Q619.875,247.6191 619.5313,248.0254 Q619.0313,248.6035 618.2344,248.9316 Q617.1563,249.3848 615.8594,249.3848 Q614.3438,249.3848 613.1406,248.7598 Q612.1563,248.2598 611.4688,247.1973 Q610.7813,246.1191 610.7813,244.8379 L610.7813,243.6816 Q610.7813,242.3535 611.3906,241.2129 Q612.0156,240.0566 613.1094,239.4473 Q614.2031,238.8223 615.4375,238.8223 Q616.1719,238.8223 616.8125,238.9941 Q617.4688,239.1504 618.0156,239.5098 Z " fill="#000000"/><text fill="#000000" font-family="sans-serif" font-size="14" lengthAdjust="spacing" textLength="203" x="635.75" y="249.4316">SensorFunctionalityMapperDTO</text><line style="stroke:#181818;stroke-width:0.5;" x1="476" x2="966" y1="259.6348" y2="259.6348"/><line style="stroke:#181818;stroke-width:0.5;" x1="476" x2="966" y1="267.6348" y2="267.6348"/><ellipse cx="486" cy="291.7559" fill="#84BE84" rx="3" ry="3" style="stroke:#038048;stroke-width:1.0;"/><text fill="#000000" font-family="sans-serif" font-size="14" lengthAdjust="spacing" textLength="462" x="495" y="286.7422">sensorFunctionalityToDTO(SensorFunctionalityID sensorFunctionalityID):</text><text fill="#000000" font-family="sans-serif" font-size="14" lengthAdjust="spacing" textLength="155" x="495" y="305.3633">SensorFunctionalityDTO</text><ellipse cx="486" cy="328.998" fill="#84BE84" rx="3" ry="3" style="stroke:#038048;stroke-width:1.0;"/><text fill="#000000" font-family="sans-serif" font-size="14" lengthAdjust="spacing" textLength="373" x="495" y="323.9844">sensorFunctionalityToDTOList(List&lt;SensorFunctionalityID&gt;</text><text fill="#000000" font-family="sans-serif" font-size="14" lengthAdjust="spacing" textLength="360" x="495" y="342.6055">sensorFunctionalitiesIDs): List&lt;SensorFunctionalityDTO&gt;</text></g><!--class SensorFunctionalityDTO--><g id="elem_SensorFunctionalityDTO"><rect codeLine="30" fill="#F1F1F1" height="66.6211" id="SensorFunctionalityDTO" rx="2.5" ry="2.5" style="stroke:#181818;stroke-width:0.5;" width="234" x="636" y="418.6348"/><ellipse cx="672.15" cy="434.6348" fill="#ADD1B2" rx="11" ry="11" style="stroke:#181818;stroke-width:1.0;"/><path d="M674.9156,430.5098 Q675.0719,430.291 675.2594,430.1816 Q675.4469,430.0723 675.6656,430.0723 Q676.0406,430.0723 676.275,430.3379 Q676.5094,430.5879 676.5094,431.1973 L676.5094,432.6504 Q676.5094,433.2598 676.275,433.5254 Q676.0406,433.791 675.6656,433.791 Q675.3219,433.791 675.1188,433.5879 Q674.9156,433.4004 674.8063,432.8848 Q674.7594,432.5254 674.5719,432.3379 Q674.2438,431.9629 673.6344,431.7441 Q673.025,431.5254 672.4,431.5254 Q671.6344,431.5254 670.9938,431.8535 Q670.3688,432.1816 669.8688,432.9316 Q669.3844,433.6816 669.3844,434.7129 L669.3844,435.8066 Q669.3844,437.041 670.275,437.8691 Q671.1656,438.6816 672.7594,438.6816 Q673.6969,438.6816 674.3531,438.4316 Q674.7438,438.2754 675.1656,437.8379 Q675.4313,437.5723 675.5719,437.4941 Q675.7281,437.416 675.9313,437.416 Q676.2594,437.416 676.5094,437.6816 Q676.775,437.9316 676.775,438.2754 Q676.775,438.6191 676.4313,439.0254 Q675.9313,439.6035 675.1344,439.9316 Q674.0563,440.3848 672.7594,440.3848 Q671.2438,440.3848 670.0406,439.7598 Q669.0563,439.2598 668.3688,438.1973 Q667.6813,437.1191 667.6813,435.8379 L667.6813,434.6816 Q667.6813,433.3535 668.2906,432.2129 Q668.9156,431.0566 670.0094,430.4473 Q671.1031,429.8223 672.3375,429.8223 Q673.0719,429.8223 673.7125,429.9941 Q674.3688,430.1504 674.9156,430.5098 Z " fill="#000000"/><text fill="#000000" font-family="sans-serif" font-size="14" lengthAdjust="spacing" textLength="155" x="690.85" y="440.4316">SensorFunctionalityDTO</text><line style="stroke:#181818;stroke-width:0.5;" x1="637" x2="869" y1="450.6348" y2="450.6348"/><ellipse cx="647" cy="465.4453" fill="none" rx="3" ry="3" style="stroke:#038048;stroke-width:1.0;"/><text fill="#000000" font-family="sans-serif" font-size="14" lengthAdjust="spacing" textLength="208" x="656" y="469.7422">sensorFunctionalityName : String</text><line style="stroke:#181818;stroke-width:0.5;" x1="637" x2="869" y1="477.2559" y2="477.2559"/></g><!--link ListSensorFunctionalitiesController to SensorFunctionalityService--><g id="link_ListSensorFunctionalitiesController_SensorFunctionalityService"><path codeLine="35" d="M364,167.6648 C364,191.7948 364,221.8948 364,246.0348 " fill="none" id="ListSensorFunctionalitiesController-SensorFunctionalityService" style="stroke:#181818;stroke-width:1.0;"/></g><!--link SensorFunctionalityService to SensorFunctionalityRepository--><g id="link_SensorFunctionalityService_SensorFunctionalityRepository"><path codeLine="36" d="M362.5,331.1648 C362.5,358.4148 362.5,393.2848 362.5,418.5748 " fill="none" id="SensorFunctionalityService-SensorFunctionalityRepository" style="stroke:#181818;stroke-width:1.0;"/></g><!--link SensorFunctionalityService to SensorFunctionality--><g id="link_SensorFunctionalityService_SensorFunctionality"><path codeLine="37" d="M136,331.1648 C136,355.2948 136,379.3948 136,403.5348 " fill="none" id="SensorFunctionalityService-to-SensorFunctionality" style="stroke:#181818;stroke-width:1.0;stroke-dasharray:7.0,7.0;"/><polygon fill="#181818" points="136,409.5348,140,400.5348,136,404.5348,132,400.5348,136,409.5348" style="stroke:#181818;stroke-width:1.0;"/><text fill="#000000" font-family="sans-serif" font-size="13" lengthAdjust="spacing" textLength="42" x="93" y="366.3731">&#171;uses&#187;</text></g><!--link ListSensorFunctionalitiesController to SensorFunctionalityMapperDTO--><g id="link_ListSensorFunctionalitiesController_SensorFunctionalityMapperDTO"><path codeLine="38" d="M569.5,167.6648 C569.5,185.9248 569.5,201.6148 569.5,221.5448 " fill="none" id="ListSensorFunctionalitiesController-to-SensorFunctionalityMapperDTO" style="stroke:#181818;stroke-width:1.0;stroke-dasharray:7.0,7.0;"/><polygon fill="#181818" points="569.5,227.5448,573.5,218.5448,569.5,222.5448,565.5,218.5448,569.5,227.5448" style="stroke:#181818;stroke-width:1.0;"/><text fill="#000000" font-family="sans-serif" font-size="13" lengthAdjust="spacing" textLength="57" x="511.5" y="193.6331">&#171;creates&#187;</text></g><!--link SensorFunctionalityMapperDTO to SensorFunctionalityDTO--><g id="link_SensorFunctionalityMapperDTO_SensorFunctionalityDTO"><path codeLine="39" d="M753,349.9848 C753,373.1748 753,392.7148 753,412.4548 " fill="none" id="SensorFunctionalityMapperDTO-to-SensorFunctionalityDTO" style="stroke:#181818;stroke-width:1.0;stroke-dasharray:7.0,7.0;"/><polygon fill="#181818" points="753,418.4548,757,409.4548,753,413.4548,749,409.4548,753,418.4548" style="stroke:#181818;stroke-width:1.0;"/><text fill="#000000" font-family="sans-serif" font-size="13" lengthAdjust="spacing" textLength="57" x="695" y="380.2431">&#171;creates&#187;</text></g><!--SRC=[ZLFFQy8m5BxdhtYuYqEKxJIGKXXs6mKtORhRBbbzreSnAKaS5F5_tsjL75iQz5JC-twzBt4RqfMqSWkADFgwGZ3MhuqGdhn2w7rCxXv6zp0bvs6EsXaBppjTU39QAlA4hYT49OkDB14Ssc-qS3EbSkrVhAnXBmebdMlnH_WVzCHeRurI3DiBuD_G_HkhvynB1OvXtddMOWSb-aPfjWfgzM_5GPmCTJD5VBnZPHnvO-kWbSlnTMx6xLgI05EUfL6ha5XZV7gsIikWdpmx-g0bQgwpRXJ3Own5sgDTISuVJSRA_7rM7gn8Bn-LUchuJvbovf5V2aEvugbUPLMXpHQpCtkWWeNXytum1RZGl-peKmVccIOkqdJJZnJ4j2xKQvwvIBDCd0hUGkSIU83JXrozoIq2D-WjwLB0eTdbDUzgE8ozcyX320D_tV88TZHAWnTt34coS-ZIz2hl7JINcz8I5XQbRpcZinra0PeV]--></g></svg>