<svg xmlns="http://www.w3.org/2000/svg" xmlns:xlink="http://www.w3.org/1999/xlink" contentStyleType="text/css" height="560px" preserveAspectRatio="none" style="width:1258px;height:560px;background:#FFFFFF;" version="1.1" viewBox="0 0 1258 560" width="1258px" zoomAndPan="magnify"><defs/><g><text fill="#000000" font-family="sans-serif" font-size="14" font-weight="bold" lengthAdjust="spacing" textLength="199" x="522.5" y="22.9951">UC08 - Deactivate Device</text><!--cluster server--><g id="cluster_server"><path d="M8.5,43.2969 L61.5,43.2969 A3.75,3.75 0 0 1 64,45.7969 L71,65.5938 L1248.5,65.5938 A2.5,2.5 0 0 1 1251,68.0938 L1251,551.3569 A2.5,2.5 0 0 1 1248.5,553.8569 L8.5,553.8569 A2.5,2.5 0 0 1 6,551.3569 L6,45.7969 A2.5,2.5 0 0 1 8.5,43.2969 " fill="#D3D3D3" style="stroke:#000000;stroke-width:1.5;"/><line style="stroke:#000000;stroke-width:1.5;" x1="6" x2="71" y1="65.5938" y2="65.5938"/><text fill="#000000" font-family="sans-serif" font-size="14" font-weight="bold" lengthAdjust="spacing" textLength="52" x="10" y="58.292">server</text></g><!--class DeactivateDeviceController--><g id="elem_DeactivateDeviceController"><rect codeLine="6" fill="#F1F1F1" height="80.5938" id="DeactivateDeviceController" rx="2.5" ry="2.5" style="stroke:#181818;stroke-width:0.5;" width="377" x="409.5" y="78.2969"/><ellipse cx="500.25" cy="94.2969" fill="#ADD1B2" rx="11" ry="11" style="stroke:#181818;stroke-width:1.0;"/><path d="M503.2188,99.9375 Q502.6406,100.2344 502,100.375 Q501.3594,100.5312 500.6563,100.5312 Q498.1563,100.5312 496.8281,98.8906 Q495.5156,97.2344 495.5156,94.1094 Q495.5156,90.9844 496.8281,89.3281 Q498.1563,87.6719 500.6563,87.6719 Q501.3594,87.6719 502,87.8281 Q502.6563,87.9844 503.2188,88.2812 L503.2188,91 Q502.5938,90.4219 502,90.1562 Q501.4063,89.875 500.7813,89.875 Q499.4375,89.875 498.75,90.9531 Q498.0625,92.0156 498.0625,94.1094 Q498.0625,96.2031 498.75,97.2812 Q499.4375,98.3437 500.7813,98.3437 Q501.4063,98.3437 502,98.0781 Q502.5938,97.7969 503.2188,97.2187 L503.2188,99.9375 Z " fill="#000000"/><text fill="#000000" font-family="sans-serif" font-size="14" lengthAdjust="spacing" textLength="187" x="520.75" y="99.1436">DeactivateDeviceController</text><line style="stroke:#181818;stroke-width:0.5;" x1="410.5" x2="785.5" y1="110.2969" y2="110.2969"/><rect fill="none" height="6" style="stroke:#C82930;stroke-width:1.0;" width="6" x="417.5" y="120.9453"/><text fill="#000000" font-family="sans-serif" font-size="14" lengthAdjust="spacing" textLength="201" x="429.5" y="127.292">deviceService: DeviceService</text><line style="stroke:#181818;stroke-width:0.5;" x1="410.5" x2="785.5" y1="134.5937" y2="134.5937"/><ellipse cx="420.5" cy="148.2422" fill="#84BE84" rx="3" ry="3" style="stroke:#038048;stroke-width:1.0;"/><text fill="#000000" font-family="sans-serif" font-size="14" lengthAdjust="spacing" textLength="351" x="429.5" y="151.5889">deactivateDevice(DeviceDTO deviceDTO): boolean</text></g><!--class DeviceService--><g id="elem_DeviceService"><rect codeLine="11" fill="#F1F1F1" height="129.4844" id="DeviceService" rx="2.5" ry="2.5" style="stroke:#181818;stroke-width:0.5;" width="343" x="712.5" y="218.8869"/><ellipse cx="831.25" cy="234.8869" fill="#ADD1B2" rx="11" ry="11" style="stroke:#181818;stroke-width:1.0;"/><path d="M834.2188,240.5275 Q833.6406,240.8244 833,240.965 Q832.3594,241.1212 831.6563,241.1212 Q829.1563,241.1212 827.8281,239.4806 Q826.5156,237.8244 826.5156,234.6994 Q826.5156,231.5744 827.8281,229.9181 Q829.1563,228.2619 831.6563,228.2619 Q832.3594,228.2619 833,228.4181 Q833.6563,228.5744 834.2188,228.8712 L834.2188,231.59 Q833.5938,231.0119 833,230.7462 Q832.4063,230.465 831.7813,230.465 Q830.4375,230.465 829.75,231.5431 Q829.0625,232.6056 829.0625,234.6994 Q829.0625,236.7931 829.75,237.8712 Q830.4375,238.9337 831.7813,238.9337 Q832.4063,238.9337 833,238.6681 Q833.5938,238.3869 834.2188,237.8087 L834.2188,240.5275 Z " fill="#000000"/><text fill="#000000" font-family="sans-serif" font-size="14" lengthAdjust="spacing" textLength="97" x="851.75" y="239.7336">DeviceService</text><line style="stroke:#181818;stroke-width:0.5;" x1="713.5" x2="1054.5" y1="250.8869" y2="250.8869"/><rect fill="none" height="6" style="stroke:#C82930;stroke-width:1.0;" width="6" x="720.5" y="261.5353"/><text fill="#000000" font-family="sans-serif" font-size="14" lengthAdjust="spacing" textLength="199" x="732.5" y="267.882">factoryDevice: FactoryDevice</text><rect fill="none" height="6" style="stroke:#C82930;stroke-width:1.0;" width="6" x="720.5" y="277.8322"/><text fill="#000000" font-family="sans-serif" font-size="14" lengthAdjust="spacing" textLength="249" x="732.5" y="284.1789">deviceRepository: DeviceRepository</text><rect fill="none" height="6" style="stroke:#C82930;stroke-width:1.0;" width="6" x="720.5" y="294.1291"/><text fill="#000000" font-family="sans-serif" font-size="14" lengthAdjust="spacing" textLength="234" x="732.5" y="300.4757">roomRepository: RoomRepository</text><rect fill="none" height="6" style="stroke:#C82930;stroke-width:1.0;" width="6" x="720.5" y="310.4259"/><text fill="#000000" font-family="sans-serif" font-size="14" lengthAdjust="spacing" textLength="246" x="732.5" y="316.7726">houseRepository: HouseRepository</text><line style="stroke:#181818;stroke-width:0.5;" x1="713.5" x2="1054.5" y1="324.0744" y2="324.0744"/><ellipse cx="723.5" cy="337.7228" fill="#84BE84" rx="3" ry="3" style="stroke:#038048;stroke-width:1.0;"/><text fill="#000000" font-family="sans-serif" font-size="14" lengthAdjust="spacing" textLength="317" x="732.5" y="341.0695">deactivateDevice(DeviceID deviceID): boolean</text></g><!--class DeviceRepository--><g id="elem_DeviceRepository"><rect codeLine="19" fill="#F1F1F1" height="64.2969" id="DeviceRepository" rx="2.5" ry="2.5" style="stroke:#181818;stroke-width:0.5;" width="237" x="367.5" y="440.9669"/><ellipse cx="421.25" cy="456.9669" fill="#B4A7E5" rx="11" ry="11" style="stroke:#181818;stroke-width:1.0;"/><path d="M417.1719,452.7325 L417.1719,450.5762 L424.5625,450.5762 L424.5625,452.7325 L422.0938,452.7325 L422.0938,460.8106 L424.5625,460.8106 L424.5625,462.9669 L417.1719,462.9669 L417.1719,460.8106 L419.6406,460.8106 L419.6406,452.7325 L417.1719,452.7325 Z " fill="#000000"/><text fill="#000000" font-family="sans-serif" font-size="14" font-style="italic" lengthAdjust="spacing" textLength="121" x="441.75" y="461.8136">DeviceRepository</text><line style="stroke:#181818;stroke-width:0.5;" x1="368.5" x2="603.5" y1="472.9669" y2="472.9669"/><line style="stroke:#181818;stroke-width:0.5;" x1="368.5" x2="603.5" y1="480.9669" y2="480.9669"/><ellipse cx="378.5" cy="494.6153" fill="#84BE84" rx="3" ry="3" style="stroke:#038048;stroke-width:1.0;"/><text fill="#000000" font-family="sans-serif" font-size="14" lengthAdjust="spacing" textLength="211" x="387.5" y="497.962">update(Device device): Device</text></g><!--class Repository--><g id="elem_Repository"><rect codeLine="23" fill="#F1F1F1" height="64.2969" id="Repository" rx="2.5" ry="2.5" style="stroke:#181818;stroke-width:0.5;" width="267" x="216.5" y="251.4869"/><ellipse cx="308.75" cy="267.4869" fill="#B4A7E5" rx="11" ry="11" style="stroke:#181818;stroke-width:1.0;"/><path d="M304.6719,263.2525 L304.6719,261.0962 L312.0625,261.0962 L312.0625,263.2525 L309.5938,263.2525 L309.5938,271.3306 L312.0625,271.3306 L312.0625,273.4869 L304.6719,273.4869 L304.6719,271.3306 L307.1406,271.3306 L307.1406,263.2525 L304.6719,263.2525 Z " fill="#000000"/><text fill="#000000" font-family="sans-serif" font-size="14" font-style="italic" lengthAdjust="spacing" textLength="74" x="329.25" y="272.3336">Repository</text><line style="stroke:#181818;stroke-width:0.5;" x1="217.5" x2="482.5" y1="283.4869" y2="283.4869"/><line style="stroke:#181818;stroke-width:0.5;" x1="217.5" x2="482.5" y1="291.4869" y2="291.4869"/><ellipse cx="227.5" cy="305.1353" fill="#84BE84" rx="3" ry="3" style="stroke:#038048;stroke-width:1.0;"/><text fill="#000000" font-family="sans-serif" font-size="14" lengthAdjust="spacing" textLength="241" x="236.5" y="308.482">findEntityByID (ID id): Optional &lt;T&gt;</text></g><!--class Device--><g id="elem_Device"><rect codeLine="27" fill="#F1F1F1" height="129.4844" id="Device" rx="2.5" ry="2.5" style="stroke:#181818;stroke-width:0.5;" width="215" x="898.5" y="408.3769"/><ellipse cx="961.75" cy="424.3769" fill="#ADD1B2" rx="11" ry="11" style="stroke:#181818;stroke-width:1.0;"/><path d="M964.7188,430.0175 Q964.1406,430.3144 963.5,430.455 Q962.8594,430.6112 962.1563,430.6112 Q959.6563,430.6112 958.3281,428.9706 Q957.0156,427.3144 957.0156,424.1894 Q957.0156,421.0644 958.3281,419.4081 Q959.6563,417.7519 962.1563,417.7519 Q962.8594,417.7519 963.5,417.9081 Q964.1563,418.0644 964.7188,418.3612 L964.7188,421.08 Q964.0938,420.5019 963.5,420.2362 Q962.9063,419.955 962.2813,419.955 Q960.9375,419.955 960.25,421.0331 Q959.5625,422.0956 959.5625,424.1894 Q959.5625,426.2831 960.25,427.3612 Q960.9375,428.4237 962.2813,428.4237 Q962.9063,428.4237 963.5,428.1581 Q964.0938,427.8769 964.7188,427.2987 L964.7188,430.0175 Z " fill="#000000"/><text fill="#000000" font-family="sans-serif" font-size="14" lengthAdjust="spacing" textLength="47" x="982.25" y="429.2236">Device</text><rect fill="#FFFFFF" height="15.9688" style="stroke:#181818;stroke-width:1.0;stroke-dasharray:2.0,2.0;" width="31" x="1085.5" y="405.3769"/><text fill="#000000" font-family="sans-serif" font-size="12" font-style="italic" lengthAdjust="spacing" textLength="29" x="1086.5" y="417.5155">Root</text><line style="stroke:#181818;stroke-width:0.5;" x1="899.5" x2="1112.5" y1="440.3769" y2="440.3769"/><rect fill="none" height="6" style="stroke:#C82930;stroke-width:1.0;" width="6" x="906.5" y="451.0253"/><text fill="#000000" font-family="sans-serif" font-size="14" lengthAdjust="spacing" textLength="129" x="918.5" y="457.372">deviceID: DeviceID</text><rect fill="none" height="6" style="stroke:#C82930;stroke-width:1.0;" width="6" x="906.5" y="467.3222"/><text fill="#000000" font-family="sans-serif" font-size="14" lengthAdjust="spacing" textLength="185" x="918.5" y="473.6689">deviceModel: DeviceModel</text><rect fill="none" height="6" style="stroke:#C82930;stroke-width:1.0;" width="6" x="906.5" y="483.6191"/><text fill="#000000" font-family="sans-serif" font-size="14" lengthAdjust="spacing" textLength="189" x="918.5" y="489.9657">deviceStatus: DeviceStatus</text><rect fill="none" height="6" style="stroke:#C82930;stroke-width:1.0;" width="6" x="906.5" y="499.9159"/><text fill="#000000" font-family="sans-serif" font-size="14" lengthAdjust="spacing" textLength="114" x="918.5" y="506.2626">roomID: RoomID</text><line style="stroke:#181818;stroke-width:0.5;" x1="899.5" x2="1112.5" y1="513.5644" y2="513.5644"/><ellipse cx="909.5" cy="527.2128" fill="#84BE84" rx="3" ry="3" style="stroke:#038048;stroke-width:1.0;"/><text fill="#000000" font-family="sans-serif" font-size="14" lengthAdjust="spacing" textLength="146" x="918.5" y="530.5595">deactivate(): boolean</text></g><!--class DeviceStatus--><g id="elem_DeviceStatus"><rect codeLine="35" fill="#F1F1F1" height="80.5938" id="DeviceStatus" rx="2.5" ry="2.5" style="stroke:#181818;stroke-width:0.5;" width="144" x="1091" y="243.3369"/><ellipse cx="1106" cy="259.3369" fill="#EB937F" rx="11" ry="11" style="stroke:#181818;stroke-width:1.0;"/><path d="M1110.1094,265.3369 L1102.3906,265.3369 L1102.3906,252.9462 L1110.1094,252.9462 L1110.1094,255.1025 L1104.8438,255.1025 L1104.8438,257.7744 L1109.6094,257.7744 L1109.6094,259.9306 L1104.8438,259.9306 L1104.8438,263.1806 L1110.1094,263.1806 L1110.1094,265.3369 Z " fill="#000000"/><text fill="#000000" font-family="sans-serif" font-size="14" lengthAdjust="spacing" textLength="91" x="1120" y="264.1836">DeviceStatus</text><rect fill="#FFFFFF" height="15.9688" style="stroke:#181818;stroke-width:1.0;stroke-dasharray:2.0,2.0;" width="19" x="1219" y="240.3369"/><text fill="#000000" font-family="sans-serif" font-size="12" font-style="italic" lengthAdjust="spacing" textLength="17" x="1220" y="252.4755">VO</text><line style="stroke:#181818;stroke-width:0.5;" x1="1092" x2="1234" y1="275.3369" y2="275.3369"/><rect fill="none" height="6" style="stroke:#C82930;stroke-width:1.0;" width="6" x="1099" y="285.9853"/><text fill="#000000" font-family="sans-serif" font-size="14" lengthAdjust="spacing" textLength="49" x="1111" y="292.332">ACTIVE</text><rect fill="none" height="6" style="stroke:#C82930;stroke-width:1.0;" width="6" x="1099" y="302.2822"/><text fill="#000000" font-family="sans-serif" font-size="14" lengthAdjust="spacing" textLength="98" x="1111" y="308.6289">DEACTIVATED</text><line style="stroke:#181818;stroke-width:0.5;" x1="1092" x2="1234" y1="315.9306" y2="315.9306"/></g><!--class DeviceDTO--><g id="elem_DeviceDTO"><rect codeLine="40" fill="#F1F1F1" height="64.2969" id="DeviceDTO" rx="2.5" ry="2.5" style="stroke:#181818;stroke-width:0.5;" width="160" x="518" y="251.4869"/><ellipse cx="555.5" cy="267.4869" fill="#ADD1B2" rx="11" ry="11" style="stroke:#181818;stroke-width:1.0;"/><path d="M558.4688,273.1275 Q557.8906,273.4244 557.25,273.565 Q556.6094,273.7212 555.9063,273.7212 Q553.4063,273.7212 552.0781,272.0806 Q550.7656,270.4244 550.7656,267.2994 Q550.7656,264.1744 552.0781,262.5181 Q553.4063,260.8619 555.9063,260.8619 Q556.6094,260.8619 557.25,261.0181 Q557.9063,261.1744 558.4688,261.4712 L558.4688,264.19 Q557.8438,263.6119 557.25,263.3462 Q556.6563,263.065 556.0313,263.065 Q554.6875,263.065 554,264.1431 Q553.3125,265.2056 553.3125,267.2994 Q553.3125,269.3931 554,270.4712 Q554.6875,271.5337 556.0313,271.5337 Q556.6563,271.5337 557.25,271.2681 Q557.8438,270.9869 558.4688,270.4087 L558.4688,273.1275 Z " fill="#000000"/><text fill="#000000" font-family="sans-serif" font-size="14" lengthAdjust="spacing" textLength="78" x="574.5" y="272.3336">DeviceDTO</text><line style="stroke:#181818;stroke-width:0.5;" x1="519" x2="677" y1="283.4869" y2="283.4869"/><ellipse cx="529" cy="297.1353" fill="none" rx="3" ry="3" style="stroke:#038048;stroke-width:1.0;"/><text fill="#000000" font-family="sans-serif" font-size="14" lengthAdjust="spacing" textLength="134" x="538" y="300.482">deviceName: String</text><line style="stroke:#181818;stroke-width:0.5;" x1="519" x2="677" y1="307.7837" y2="307.7837"/></g><!--class DeviceID--><g id="elem_DeviceID"><rect codeLine="44" fill="#F1F1F1" height="64.2969" id="DeviceID" rx="2.5" ry="2.5" style="stroke:#181818;stroke-width:0.5;" width="160" x="22" y="251.4869"/><ellipse cx="57.7" cy="267.4869" fill="#ADD1B2" rx="11" ry="11" style="stroke:#181818;stroke-width:1.0;"/><path d="M60.6688,273.1275 Q60.0906,273.4244 59.45,273.565 Q58.8094,273.7212 58.1063,273.7212 Q55.6063,273.7212 54.2781,272.0806 Q52.9656,270.4244 52.9656,267.2994 Q52.9656,264.1744 54.2781,262.5181 Q55.6063,260.8619 58.1063,260.8619 Q58.8094,260.8619 59.45,261.0181 Q60.1063,261.1744 60.6688,261.4712 L60.6688,264.19 Q60.0438,263.6119 59.45,263.3462 Q58.8563,263.065 58.2313,263.065 Q56.8875,263.065 56.2,264.1431 Q55.5125,265.2056 55.5125,267.2994 Q55.5125,269.3931 56.2,270.4712 Q56.8875,271.5337 58.2313,271.5337 Q58.8563,271.5337 59.45,271.2681 Q60.0438,270.9869 60.6688,270.4087 L60.6688,273.1275 Z " fill="#000000"/><text fill="#000000" font-family="sans-serif" font-size="14" lengthAdjust="spacing" textLength="61" x="76.3" y="272.3336">DeviceID</text><rect fill="#FFFFFF" height="15.9688" style="stroke:#181818;stroke-width:1.0;stroke-dasharray:2.0,2.0;" width="19" x="166" y="248.4869"/><text fill="#000000" font-family="sans-serif" font-size="12" font-style="italic" lengthAdjust="spacing" textLength="17" x="167" y="260.6255">VO</text><line style="stroke:#181818;stroke-width:0.5;" x1="23" x2="181" y1="283.4869" y2="283.4869"/><rect fill="none" height="6" style="stroke:#C82930;stroke-width:1.0;" width="6" x="30" y="294.1353"/><text fill="#000000" font-family="sans-serif" font-size="14" lengthAdjust="spacing" textLength="134" x="42" y="300.482">deviceName: String</text><line style="stroke:#181818;stroke-width:0.5;" x1="23" x2="181" y1="307.7837" y2="307.7837"/></g><!--reverse link Repository to DeviceRepository--><g id="link_Repository_DeviceRepository"><path d="M425.5,334.2069 C425.5,369.0169 425.5,405.8769 425.5,440.6469 " fill="none" id="Repository-backto-DeviceRepository" style="stroke:#181818;stroke-width:1.0;"/><polygon fill="none" points="425.5,316.2069,419.5,334.2069,431.5,334.2069,425.5,316.2069" style="stroke:#181818;stroke-width:1.0;"/></g><!--link DeactivateDeviceController to DeviceService--><g id="link_DeactivateDeviceController_DeviceService"><path codeLine="48" d="M749.5,159.3869 C749.5,177.2369 749.5,198.6269 749.5,218.5769 " fill="none" id="DeactivateDeviceController-DeviceService" style="stroke:#181818;stroke-width:1.0;"/></g><!--link DeactivateDeviceController to DeviceID--><g id="link_DeactivateDeviceController_DeviceID"><path codeLine="49" d="M409.07,118.8569 C268.9,118.8569 102,118.8569 102,118.8569 C102,118.8569 102,197.0569 102,245.0769 " fill="none" id="DeactivateDeviceController-to-DeviceID" style="stroke:#181818;stroke-width:1.0;stroke-dasharray:7.0,7.0;"/><polygon fill="#181818" points="102,251.0769,106,242.0769,102,246.0769,98,242.0769,102,251.0769" style="stroke:#181818;stroke-width:1.0;"/><text fill="#000000" font-family="sans-serif" font-size="13" lengthAdjust="spacing" textLength="64" x="124.42" y="114.9238">&#171;creates&#187;</text></g><!--link DeactivateDeviceController to DeviceDTO--><g id="link_DeactivateDeviceController_DeviceDTO"><path codeLine="50" d="M598,159.3869 C598,187.6469 598,218.7569 598,245.0369 " fill="none" id="DeactivateDeviceController-to-DeviceDTO" style="stroke:#181818;stroke-width:1.0;stroke-dasharray:7.0,7.0;"/><polygon fill="#181818" points="598,251.0369,602,242.0369,598,246.0369,594,242.0369,598,251.0369" style="stroke:#181818;stroke-width:1.0;"/><text fill="#000000" font-family="sans-serif" font-size="13" lengthAdjust="spacing" textLength="46" x="551" y="201.2738">&#171;uses&#187;</text></g><!--link DeviceService to Device--><g id="link_DeviceService_Device"><path codeLine="51" d="M977,348.8369 C977,368.0069 977,382.9569 977,402.1069 " fill="none" id="DeviceService-to-Device" style="stroke:#181818;stroke-width:1.0;stroke-dasharray:7.0,7.0;"/><polygon fill="#181818" points="977,408.1069,981,399.1069,977,403.1069,973,399.1069,977,408.1069" style="stroke:#181818;stroke-width:1.0;"/><text fill="#000000" font-family="sans-serif" font-size="13" lengthAdjust="spacing" textLength="46" x="930" y="374.5438">&#171;uses&#187;</text></g><!--link DeviceService to DeviceRepository--><g id="link_DeviceService_DeviceRepository"><path codeLine="52" d="M712.23,332.8569 C635.15,332.8569 561.25,332.8569 561.25,332.8569 C561.25,332.8569 561.25,399.1469 561.25,440.5869 " fill="none" id="DeviceService-DeviceRepository" style="stroke:#181818;stroke-width:1.0;"/></g><!--link DeviceStatus to Device--><g id="link_DeviceStatus_Device"><path codeLine="53" d="M1102.25,324.2769 C1102.25,348.6369 1102.25,380.1669 1102.25,407.9369 " fill="none" id="DeviceStatus-Device" style="stroke:#181818;stroke-width:1.0;"/></g><!--SRC=[ZLFVQy8m47xlNt6m5sKeUnnI2iwwhR1DKBVth3qrM9EIH5aH__TTQsmJTR92IIxtVT_zo4MlkIYOOXl8kK1J5WXIcPKC33SvmkVeuH5w42DB3TynWxJTyHI3e63fcYqHDAeTAhXxuykLUL6iX7qGf3dJsc4TIICfZ99vJl1z0FJr8AiTCzAWPM35hLb3xWdYgtIEIpoVM3RjkWFubZ979e936ztHQW8kI4ogykWSmBDhUZbDiP2QLyvJMks91IefDoviwjaMj99RxOcz-WUtgqnYcquI-pLoOL1HCNYH7E2FGP5fS8xsDigso2Y2rRRAtLDzlkmLzeABR2neCCgdaXBhqCypeayAmwLWEOJpwBp_459NJEJVTnAVOYQnvtYN6UOdNstuSsAOsUfcJ6hBkOjATbgl5qtj-Dr3iTruAX1-JPeaXwDvyZMsHZokpU5y79_NLetWlWbLdNom3GtLp2WkbkTewfORv3hXnfFfzSwUnmriln-rKGSGXgb2mkae-X-hggoYqQGUEUvJQc5_GffSdJdtsjq0WiCl]--></g></svg>