<?xml version="1.0" encoding="us-ascii" standalone="no"?><svg xmlns="http://www.w3.org/2000/svg" xmlns:xlink="http://www.w3.org/1999/xlink" contentStyleType="text/css" height="717px" preserveAspectRatio="none" style="width:2116px;height:717px;background:#FFFFFF;" version="1.1" viewBox="0 0 2116 717" width="2116px" zoomAndPan="magnify"><defs/><g><text fill="#000000" font-family="sans-serif" font-size="14" font-weight="bold" lengthAdjust="spacing" textLength="768" x="667" y="25.1074">UC09: Get list of all devices in a house, grouped by device functionality types. It must include device location.</text><!--cluster server--><g id="cluster_server"><path d="M8.5,45.6348 L56.5,45.6348 A3.75,3.75 0 0 1 59,48.1348 L66,70.2559 L2106.5,70.2559 A2.5,2.5 0 0 1 2109,72.7559 L2109,708.1348 A2.5,2.5 0 0 1 2106.5,710.6348 L8.5,710.6348 A2.5,2.5 0 0 1 6,708.1348 L6,48.1348 A2.5,2.5 0 0 1 8.5,45.6348 " fill="#D3D3D3" style="stroke:#000000;stroke-width:1.5;"/><line style="stroke:#000000;stroke-width:1.5;" x1="6" x2="66" y1="70.2559" y2="70.2559"/><text fill="#000000" font-family="sans-serif" font-size="14" font-weight="bold" lengthAdjust="spacing" textLength="47" x="10" y="62.7422">server</text></g><!--class ListAllDevicesInHouseByFunctionalityController--><g id="elem_ListAllDevicesInHouseByFunctionalityController"><rect codeLine="5" fill="#F1F1F1" height="85.2422" id="ListAllDevicesInHouseByFunctionalityController" rx="2.5" ry="2.5" style="stroke:#181818;stroke-width:0.5;" width="591" x="334.5" y="120.1348"/><ellipse cx="477.75" cy="136.1348" fill="#ADD1B2" rx="11" ry="11" style="stroke:#181818;stroke-width:1.0;"/><path d="M480.5156,132.0098 Q480.6719,131.791 480.8594,131.6816 Q481.0469,131.5723 481.2656,131.5723 Q481.6406,131.5723 481.875,131.8379 Q482.1094,132.0879 482.1094,132.6973 L482.1094,134.1504 Q482.1094,134.7598 481.875,135.0254 Q481.6406,135.291 481.2656,135.291 Q480.9219,135.291 480.7188,135.0879 Q480.5156,134.9004 480.4063,134.3848 Q480.3594,134.0254 480.1719,133.8379 Q479.8438,133.4629 479.2344,133.2441 Q478.625,133.0254 478,133.0254 Q477.2344,133.0254 476.5938,133.3535 Q475.9688,133.6816 475.4688,134.4316 Q474.9844,135.1816 474.9844,136.2129 L474.9844,137.3066 Q474.9844,138.541 475.875,139.3691 Q476.7656,140.1816 478.3594,140.1816 Q479.2969,140.1816 479.9531,139.9316 Q480.3438,139.7754 480.7656,139.3379 Q481.0313,139.0723 481.1719,138.9941 Q481.3281,138.916 481.5313,138.916 Q481.8594,138.916 482.1094,139.1816 Q482.375,139.4316 482.375,139.7754 Q482.375,140.1191 482.0313,140.5254 Q481.5313,141.1035 480.7344,141.4316 Q479.6563,141.8848 478.3594,141.8848 Q476.8438,141.8848 475.6406,141.2598 Q474.6563,140.7598 473.9688,139.6973 Q473.2813,138.6191 473.2813,137.3379 L473.2813,136.1816 Q473.2813,134.8535 473.8906,133.7129 Q474.5156,132.5566 475.6094,131.9473 Q476.7031,131.3223 477.9375,131.3223 Q478.6719,131.3223 479.3125,131.4941 Q479.9688,131.6504 480.5156,132.0098 Z " fill="#000000"/><text fill="#000000" font-family="sans-serif" font-size="14" lengthAdjust="spacing" textLength="296" x="498.25" y="141.9316">ListAllDevicesInHouseByFunctionalityController</text><line style="stroke:#181818;stroke-width:0.5;" x1="335.5" x2="924.5" y1="152.1348" y2="152.1348"/><rect fill="none" height="6" style="stroke:#C82930;stroke-width:1.0;" width="6" x="342.5" y="163.9453"/><text fill="#000000" font-family="sans-serif" font-size="14" lengthAdjust="spacing" textLength="565" x="354.5" y="171.2422">listAllDevicesInHouseByFunctionalityService: ListAllDevicesInHouseByFunctionalityService</text><line style="stroke:#181818;stroke-width:0.5;" x1="335.5" x2="924.5" y1="178.7559" y2="178.7559"/><ellipse cx="345.5" cy="193.5664" fill="#84BE84" rx="3" ry="3" style="stroke:#038048;stroke-width:1.0;"/><text fill="#000000" font-family="sans-serif" font-size="14" lengthAdjust="spacing" textLength="541" x="354.5" y="197.8633">getListOfDevicesByFunctionality(): Map&lt;Object, Map&lt;RoomDTO, Set&lt;DeviceDTO&gt;&gt;&gt;</text></g><!--class ListAllDevicesInHouseByFunctionalityService--><g id="elem_ListAllDevicesInHouseByFunctionalityService"><rect codeLine="16" fill="#F1F1F1" height="159.7266" id="ListAllDevicesInHouseByFunctionalityService" rx="2.5" ry="2.5" style="stroke:#181818;stroke-width:0.5;" width="609" x="1214.5" y="82.6348"/><ellipse cx="1374.25" cy="98.6348" fill="#ADD1B2" rx="11" ry="11" style="stroke:#181818;stroke-width:1.0;"/><path d="M1377.0156,94.5098 Q1377.1719,94.291 1377.3594,94.1816 Q1377.5469,94.0723 1377.7656,94.0723 Q1378.1406,94.0723 1378.375,94.3379 Q1378.6094,94.5879 1378.6094,95.1973 L1378.6094,96.6504 Q1378.6094,97.2598 1378.375,97.5254 Q1378.1406,97.791 1377.7656,97.791 Q1377.4219,97.791 1377.2188,97.5879 Q1377.0156,97.4004 1376.9063,96.8848 Q1376.8594,96.5254 1376.6719,96.3379 Q1376.3438,95.9629 1375.7344,95.7441 Q1375.125,95.5254 1374.5,95.5254 Q1373.7344,95.5254 1373.0938,95.8535 Q1372.4688,96.1816 1371.9688,96.9316 Q1371.4844,97.6816 1371.4844,98.7129 L1371.4844,99.8066 Q1371.4844,101.041 1372.375,101.8691 Q1373.2656,102.6816 1374.8594,102.6816 Q1375.7969,102.6816 1376.4531,102.4316 Q1376.8438,102.2754 1377.2656,101.8379 Q1377.5313,101.5723 1377.6719,101.4941 Q1377.8281,101.416 1378.0313,101.416 Q1378.3594,101.416 1378.6094,101.6816 Q1378.875,101.9316 1378.875,102.2754 Q1378.875,102.6191 1378.5313,103.0254 Q1378.0313,103.6035 1377.2344,103.9316 Q1376.1563,104.3848 1374.8594,104.3848 Q1373.3438,104.3848 1372.1406,103.7598 Q1371.1563,103.2598 1370.4688,102.1973 Q1369.7813,101.1191 1369.7813,99.8379 L1369.7813,98.6816 Q1369.7813,97.3535 1370.3906,96.2129 Q1371.0156,95.0566 1372.1094,94.4473 Q1373.2031,93.8223 1374.4375,93.8223 Q1375.1719,93.8223 1375.8125,93.9941 Q1376.4688,94.1504 1377.0156,94.5098 Z " fill="#000000"/><text fill="#000000" font-family="sans-serif" font-size="14" lengthAdjust="spacing" textLength="281" x="1394.75" y="104.4316">ListAllDevicesInHouseByFunctionalityService</text><line style="stroke:#181818;stroke-width:0.5;" x1="1215.5" x2="1822.5" y1="114.6348" y2="114.6348"/><rect fill="none" height="6" style="stroke:#C82930;stroke-width:1.0;" width="6" x="1222.5" y="126.4453"/><text fill="#000000" font-family="sans-serif" font-size="14" lengthAdjust="spacing" textLength="228" x="1234.5" y="133.7422">deviceRepository: DeviceRepository</text><rect fill="none" height="6" style="stroke:#C82930;stroke-width:1.0;" width="6" x="1222.5" y="145.0664"/><text fill="#000000" font-family="sans-serif" font-size="14" lengthAdjust="spacing" textLength="249" x="1234.5" y="152.3633">actuatorRepository: ActuatorRepository</text><rect fill="none" height="6" style="stroke:#C82930;stroke-width:1.0;" width="6" x="1222.5" y="163.6875"/><text fill="#000000" font-family="sans-serif" font-size="14" lengthAdjust="spacing" textLength="232" x="1234.5" y="170.9844">sensorRepository: SensorRepository</text><line style="stroke:#181818;stroke-width:0.5;" x1="1215.5" x2="1822.5" y1="178.498" y2="178.498"/><ellipse cx="1225.5" cy="193.3086" fill="#84BE84" rx="3" ry="3" style="stroke:#038048;stroke-width:1.0;"/><text fill="#000000" font-family="sans-serif" font-size="14" lengthAdjust="spacing" textLength="583" x="1234.5" y="197.6055">devicesGroupedByFunctionalityAndLocation(): Map&lt;Object, Map&lt;RoomID, Set&lt;DeviceID&gt;&gt;&gt;</text><rect fill="#F24D5C" height="6" style="stroke:#C82930;stroke-width:1.0;" width="6" x="1222.5" y="208.9297"/><text fill="#000000" font-family="sans-serif" font-size="14" lengthAdjust="spacing" textLength="551" x="1234.5" y="216.2266">sensorFunctionalityMap(): Map&lt;SensorFunctionalityID, Map&lt;RoomID, Set&lt;DeviceID&gt;&gt;&gt;</text><rect fill="#F24D5C" height="6" style="stroke:#C82930;stroke-width:1.0;" width="6" x="1222.5" y="227.5508"/><text fill="#000000" font-family="sans-serif" font-size="14" lengthAdjust="spacing" textLength="568" x="1234.5" y="234.8477">actuatorFunctionalityMap(): Map&lt;ActuatorFunctionalityID, Map&lt;RoomID, Set&lt;DeviceID&gt;&gt;&gt;</text></g><!--class RoomMapper--><g id="elem_RoomMapper"><rect codeLine="76" fill="#F1F1F1" height="85.2422" id="RoomMapper" rx="2.5" ry="2.5" style="stroke:#181818;stroke-width:0.5;" width="173" x="22.5" y="302.6348"/><ellipse cx="62.7" cy="318.6348" fill="#ADD1B2" rx="11" ry="11" style="stroke:#181818;stroke-width:1.0;"/><path d="M65.4656,314.5098 Q65.6219,314.291 65.8094,314.1816 Q65.9969,314.0723 66.2156,314.0723 Q66.5906,314.0723 66.825,314.3379 Q67.0594,314.5879 67.0594,315.1973 L67.0594,316.6504 Q67.0594,317.2598 66.825,317.5254 Q66.5906,317.791 66.2156,317.791 Q65.8719,317.791 65.6688,317.5879 Q65.4656,317.4004 65.3563,316.8848 Q65.3094,316.5254 65.1219,316.3379 Q64.7938,315.9629 64.1844,315.7441 Q63.575,315.5254 62.95,315.5254 Q62.1844,315.5254 61.5438,315.8535 Q60.9188,316.1816 60.4188,316.9316 Q59.9344,317.6816 59.9344,318.7129 L59.9344,319.8066 Q59.9344,321.041 60.825,321.8691 Q61.7156,322.6816 63.3094,322.6816 Q64.2469,322.6816 64.9031,322.4316 Q65.2938,322.2754 65.7156,321.8379 Q65.9813,321.5723 66.1219,321.4941 Q66.2781,321.416 66.4813,321.416 Q66.8094,321.416 67.0594,321.6816 Q67.325,321.9316 67.325,322.2754 Q67.325,322.6191 66.9813,323.0254 Q66.4813,323.6035 65.6844,323.9316 Q64.6063,324.3848 63.3094,324.3848 Q61.7938,324.3848 60.5906,323.7598 Q59.6063,323.2598 58.9188,322.1973 Q58.2313,321.1191 58.2313,319.8379 L58.2313,318.6816 Q58.2313,317.3535 58.8406,316.2129 Q59.4656,315.0566 60.5594,314.4473 Q61.6531,313.8223 62.8875,313.8223 Q63.6219,313.8223 64.2625,313.9941 Q64.9188,314.1504 65.4656,314.5098 Z " fill="#000000"/><text fill="#000000" font-family="sans-serif" font-size="14" lengthAdjust="spacing" textLength="85" x="82.3" y="324.4316">RoomMapper</text><line style="stroke:#181818;stroke-width:0.5;" x1="23.5" x2="194.5" y1="334.6348" y2="334.6348"/><line style="stroke:#181818;stroke-width:0.5;" x1="23.5" x2="194.5" y1="342.6348" y2="342.6348"/><ellipse cx="33.5" cy="366.7559" fill="#84BE84" rx="3" ry="3" style="stroke:#038048;stroke-width:1.0;"/><text fill="#000000" font-family="sans-serif" font-size="14" lengthAdjust="spacing" textLength="143" x="42.5" y="361.7422">roomToDTO(RoomID):</text><text fill="#000000" font-family="sans-serif" font-size="14" lengthAdjust="spacing" textLength="67" x="42.5" y="380.3633">RoomDTO</text></g><!--class DeviceMapper--><g id="elem_DeviceMapper"><rect codeLine="72" fill="#F1F1F1" height="85.2422" id="DeviceMapper" rx="2.5" ry="2.5" style="stroke:#181818;stroke-width:0.5;" width="188" x="231" y="302.6348"/><ellipse cx="275.25" cy="318.6348" fill="#ADD1B2" rx="11" ry="11" style="stroke:#181818;stroke-width:1.0;"/><path d="M278.0156,314.5098 Q278.1719,314.291 278.3594,314.1816 Q278.5469,314.0723 278.7656,314.0723 Q279.1406,314.0723 279.375,314.3379 Q279.6094,314.5879 279.6094,315.1973 L279.6094,316.6504 Q279.6094,317.2598 279.375,317.5254 Q279.1406,317.791 278.7656,317.791 Q278.4219,317.791 278.2188,317.5879 Q278.0156,317.4004 277.9063,316.8848 Q277.8594,316.5254 277.6719,316.3379 Q277.3438,315.9629 276.7344,315.7441 Q276.125,315.5254 275.5,315.5254 Q274.7344,315.5254 274.0938,315.8535 Q273.4688,316.1816 272.9688,316.9316 Q272.4844,317.6816 272.4844,318.7129 L272.4844,319.8066 Q272.4844,321.041 273.375,321.8691 Q274.2656,322.6816 275.8594,322.6816 Q276.7969,322.6816 277.4531,322.4316 Q277.8438,322.2754 278.2656,321.8379 Q278.5313,321.5723 278.6719,321.4941 Q278.8281,321.416 279.0313,321.416 Q279.3594,321.416 279.6094,321.6816 Q279.875,321.9316 279.875,322.2754 Q279.875,322.6191 279.5313,323.0254 Q279.0313,323.6035 278.2344,323.9316 Q277.1563,324.3848 275.8594,324.3848 Q274.3438,324.3848 273.1406,323.7598 Q272.1563,323.2598 271.4688,322.1973 Q270.7813,321.1191 270.7813,319.8379 L270.7813,318.6816 Q270.7813,317.3535 271.3906,316.2129 Q272.0156,315.0566 273.1094,314.4473 Q274.2031,313.8223 275.4375,313.8223 Q276.1719,313.8223 276.8125,313.9941 Q277.4688,314.1504 278.0156,314.5098 Z " fill="#000000"/><text fill="#000000" font-family="sans-serif" font-size="14" lengthAdjust="spacing" textLength="91" x="295.75" y="324.4316">DeviceMapper</text><line style="stroke:#181818;stroke-width:0.5;" x1="232" x2="418" y1="334.6348" y2="334.6348"/><line style="stroke:#181818;stroke-width:0.5;" x1="232" x2="418" y1="342.6348" y2="342.6348"/><ellipse cx="242" cy="366.7559" fill="#84BE84" rx="3" ry="3" style="stroke:#038048;stroke-width:1.0;"/><text fill="#000000" font-family="sans-serif" font-size="14" lengthAdjust="spacing" textLength="158" x="251" y="361.7422">deviceToDTO(DeviceID):</text><text fill="#000000" font-family="sans-serif" font-size="14" lengthAdjust="spacing" textLength="73" x="251" y="380.3633">DeviceDTO</text></g><!--class SensorFunctionalityMapper--><g id="elem_SensorFunctionalityMapper"><rect codeLine="80" fill="#F1F1F1" height="85.2422" id="SensorFunctionalityMapper" rx="2.5" ry="2.5" style="stroke:#181818;stroke-width:0.5;" width="352" x="454" y="302.6348"/><ellipse cx="539.25" cy="318.6348" fill="#ADD1B2" rx="11" ry="11" style="stroke:#181818;stroke-width:1.0;"/><path d="M542.0156,314.5098 Q542.1719,314.291 542.3594,314.1816 Q542.5469,314.0723 542.7656,314.0723 Q543.1406,314.0723 543.375,314.3379 Q543.6094,314.5879 543.6094,315.1973 L543.6094,316.6504 Q543.6094,317.2598 543.375,317.5254 Q543.1406,317.791 542.7656,317.791 Q542.4219,317.791 542.2188,317.5879 Q542.0156,317.4004 541.9063,316.8848 Q541.8594,316.5254 541.6719,316.3379 Q541.3438,315.9629 540.7344,315.7441 Q540.125,315.5254 539.5,315.5254 Q538.7344,315.5254 538.0938,315.8535 Q537.4688,316.1816 536.9688,316.9316 Q536.4844,317.6816 536.4844,318.7129 L536.4844,319.8066 Q536.4844,321.041 537.375,321.8691 Q538.2656,322.6816 539.8594,322.6816 Q540.7969,322.6816 541.4531,322.4316 Q541.8438,322.2754 542.2656,321.8379 Q542.5313,321.5723 542.6719,321.4941 Q542.8281,321.416 543.0313,321.416 Q543.3594,321.416 543.6094,321.6816 Q543.875,321.9316 543.875,322.2754 Q543.875,322.6191 543.5313,323.0254 Q543.0313,323.6035 542.2344,323.9316 Q541.1563,324.3848 539.8594,324.3848 Q538.3438,324.3848 537.1406,323.7598 Q536.1563,323.2598 535.4688,322.1973 Q534.7813,321.1191 534.7813,319.8379 L534.7813,318.6816 Q534.7813,317.3535 535.3906,316.2129 Q536.0156,315.0566 537.1094,314.4473 Q538.2031,313.8223 539.4375,313.8223 Q540.1719,313.8223 540.8125,313.9941 Q541.4688,314.1504 542.0156,314.5098 Z " fill="#000000"/><text fill="#000000" font-family="sans-serif" font-size="14" lengthAdjust="spacing" textLength="173" x="559.75" y="324.4316">SensorFunctionalityMapper</text><line style="stroke:#181818;stroke-width:0.5;" x1="455" x2="805" y1="334.6348" y2="334.6348"/><line style="stroke:#181818;stroke-width:0.5;" x1="455" x2="805" y1="342.6348" y2="342.6348"/><ellipse cx="465" cy="366.7559" fill="#84BE84" rx="3" ry="3" style="stroke:#038048;stroke-width:1.0;"/><text fill="#000000" font-family="sans-serif" font-size="14" lengthAdjust="spacing" textLength="322" x="474" y="361.7422">sensorFunctionalityToDTO(SensorFunctionalityID):</text><text fill="#000000" font-family="sans-serif" font-size="14" lengthAdjust="spacing" textLength="155" x="474" y="380.3633">SensorFunctionalityDTO</text></g><!--class ActuatorFunctionalityMapper--><g id="elem_ActuatorFunctionalityMapper"><rect codeLine="84" fill="#F1F1F1" height="85.2422" id="ActuatorFunctionalityMapper" rx="2.5" ry="2.5" style="stroke:#181818;stroke-width:0.5;" width="369" x="841.5" y="302.6348"/><ellipse cx="931.25" cy="318.6348" fill="#ADD1B2" rx="11" ry="11" style="stroke:#181818;stroke-width:1.0;"/><path d="M934.0156,314.5098 Q934.1719,314.291 934.3594,314.1816 Q934.5469,314.0723 934.7656,314.0723 Q935.1406,314.0723 935.375,314.3379 Q935.6094,314.5879 935.6094,315.1973 L935.6094,316.6504 Q935.6094,317.2598 935.375,317.5254 Q935.1406,317.791 934.7656,317.791 Q934.4219,317.791 934.2188,317.5879 Q934.0156,317.4004 933.9063,316.8848 Q933.8594,316.5254 933.6719,316.3379 Q933.3438,315.9629 932.7344,315.7441 Q932.125,315.5254 931.5,315.5254 Q930.7344,315.5254 930.0938,315.8535 Q929.4688,316.1816 928.9688,316.9316 Q928.4844,317.6816 928.4844,318.7129 L928.4844,319.8066 Q928.4844,321.041 929.375,321.8691 Q930.2656,322.6816 931.8594,322.6816 Q932.7969,322.6816 933.4531,322.4316 Q933.8438,322.2754 934.2656,321.8379 Q934.5313,321.5723 934.6719,321.4941 Q934.8281,321.416 935.0313,321.416 Q935.3594,321.416 935.6094,321.6816 Q935.875,321.9316 935.875,322.2754 Q935.875,322.6191 935.5313,323.0254 Q935.0313,323.6035 934.2344,323.9316 Q933.1563,324.3848 931.8594,324.3848 Q930.3438,324.3848 929.1406,323.7598 Q928.1563,323.2598 927.4688,322.1973 Q926.7813,321.1191 926.7813,319.8379 L926.7813,318.6816 Q926.7813,317.3535 927.3906,316.2129 Q928.0156,315.0566 929.1094,314.4473 Q930.2031,313.8223 931.4375,313.8223 Q932.1719,313.8223 932.8125,313.9941 Q933.4688,314.1504 934.0156,314.5098 Z " fill="#000000"/><text fill="#000000" font-family="sans-serif" font-size="14" lengthAdjust="spacing" textLength="181" x="951.75" y="324.4316">ActuatorFunctionalityMapper</text><line style="stroke:#181818;stroke-width:0.5;" x1="842.5" x2="1209.5" y1="334.6348" y2="334.6348"/><line style="stroke:#181818;stroke-width:0.5;" x1="842.5" x2="1209.5" y1="342.6348" y2="342.6348"/><ellipse cx="852.5" cy="366.7559" fill="#84BE84" rx="3" ry="3" style="stroke:#038048;stroke-width:1.0;"/><text fill="#000000" font-family="sans-serif" font-size="14" lengthAdjust="spacing" textLength="339" x="861.5" y="361.7422">actuatorFunctionalityToDTO(ActuatorFunctionalityID):</text><text fill="#000000" font-family="sans-serif" font-size="14" lengthAdjust="spacing" textLength="163" x="861.5" y="380.3633">ActuatorFunctionalityDTO</text></g><!--class DeviceRepository--><g id="elem_DeviceRepository"><rect codeLine="33" fill="#F1F1F1" height="48" id="DeviceRepository" rx="2.5" ry="2.5" style="stroke:#181818;stroke-width:0.5;" width="171" x="1614.5" y="503.6348"/><ellipse cx="1629.5" cy="519.6348" fill="#B4A7E5" rx="11" ry="11" style="stroke:#181818;stroke-width:1.0;"/><path d="M1630.4531,516.2754 L1630.4531,522.9316 L1632.1719,522.9316 Q1632.7813,522.9316 1633.0469,523.166 Q1633.3125,523.4004 1633.3125,523.791 Q1633.3125,524.166 1633.0469,524.4004 Q1632.7813,524.6348 1632.1719,524.6348 L1627.0313,524.6348 Q1626.4219,524.6348 1626.1563,524.4004 Q1625.8906,524.166 1625.8906,523.7754 Q1625.8906,523.4004 1626.1563,523.166 Q1626.4219,522.9316 1627.0313,522.9316 L1628.75,522.9316 L1628.75,516.2754 L1627.0313,516.2754 Q1626.4219,516.2754 1626.1563,516.041 Q1625.8906,515.8066 1625.8906,515.416 Q1625.8906,515.041 1626.1563,514.8066 Q1626.4219,514.5723 1627.0313,514.5723 L1632.1719,514.5723 Q1632.7813,514.5723 1633.0469,514.8066 Q1633.3125,515.041 1633.3125,515.416 Q1633.3125,515.8066 1633.0469,516.041 Q1632.7813,516.2754 1632.1719,516.2754 L1630.4531,516.2754 Z " fill="#000000"/><text fill="#000000" font-family="sans-serif" font-size="14" font-style="italic" lengthAdjust="spacing" textLength="110" x="1643.5" y="525.4316">DeviceRepository</text><rect fill="#FFFFFF" height="17.9609" style="stroke:#181818;stroke-width:1.0;stroke-dasharray:2.0,2.0;" width="27" x="1761.5" y="500.6348"/><text fill="#000000" font-family="sans-serif" font-size="12" font-style="italic" lengthAdjust="spacing" textLength="25" x="1762.5" y="514.584">repo</text><line style="stroke:#181818;stroke-width:0.5;" x1="1615.5" x2="1784.5" y1="535.6348" y2="535.6348"/><line style="stroke:#181818;stroke-width:0.5;" x1="1615.5" x2="1784.5" y1="543.6348" y2="543.6348"/></g><!--class ActuatorRepository--><g id="elem_ActuatorRepository"><rect codeLine="39" fill="#F1F1F1" height="48" id="ActuatorRepository" rx="2.5" ry="2.5" style="stroke:#181818;stroke-width:0.5;" width="182" x="1555" y="321.1348"/><ellipse cx="1570" cy="337.1348" fill="#B4A7E5" rx="11" ry="11" style="stroke:#181818;stroke-width:1.0;"/><path d="M1570.9531,333.7754 L1570.9531,340.4316 L1572.6719,340.4316 Q1573.2813,340.4316 1573.5469,340.666 Q1573.8125,340.9004 1573.8125,341.291 Q1573.8125,341.666 1573.5469,341.9004 Q1573.2813,342.1348 1572.6719,342.1348 L1567.5313,342.1348 Q1566.9219,342.1348 1566.6563,341.9004 Q1566.3906,341.666 1566.3906,341.2754 Q1566.3906,340.9004 1566.6563,340.666 Q1566.9219,340.4316 1567.5313,340.4316 L1569.25,340.4316 L1569.25,333.7754 L1567.5313,333.7754 Q1566.9219,333.7754 1566.6563,333.541 Q1566.3906,333.3066 1566.3906,332.916 Q1566.3906,332.541 1566.6563,332.3066 Q1566.9219,332.0723 1567.5313,332.0723 L1572.6719,332.0723 Q1573.2813,332.0723 1573.5469,332.3066 Q1573.8125,332.541 1573.8125,332.916 Q1573.8125,333.3066 1573.5469,333.541 Q1573.2813,333.7754 1572.6719,333.7754 L1570.9531,333.7754 Z " fill="#000000"/><text fill="#000000" font-family="sans-serif" font-size="14" font-style="italic" lengthAdjust="spacing" textLength="121" x="1584" y="342.9316">ActuatorRepository</text><rect fill="#FFFFFF" height="17.9609" style="stroke:#181818;stroke-width:1.0;stroke-dasharray:2.0,2.0;" width="27" x="1713" y="318.1348"/><text fill="#000000" font-family="sans-serif" font-size="12" font-style="italic" lengthAdjust="spacing" textLength="25" x="1714" y="332.084">repo</text><line style="stroke:#181818;stroke-width:0.5;" x1="1556" x2="1736" y1="353.1348" y2="353.1348"/><line style="stroke:#181818;stroke-width:0.5;" x1="1556" x2="1736" y1="361.1348" y2="361.1348"/></g><!--class SensorRepository--><g id="elem_SensorRepository"><rect codeLine="36" fill="#F1F1F1" height="48" id="SensorRepository" rx="2.5" ry="2.5" style="stroke:#181818;stroke-width:0.5;" width="174" x="1772" y="321.1348"/><ellipse cx="1787" cy="337.1348" fill="#B4A7E5" rx="11" ry="11" style="stroke:#181818;stroke-width:1.0;"/><path d="M1787.9531,333.7754 L1787.9531,340.4316 L1789.6719,340.4316 Q1790.2813,340.4316 1790.5469,340.666 Q1790.8125,340.9004 1790.8125,341.291 Q1790.8125,341.666 1790.5469,341.9004 Q1790.2813,342.1348 1789.6719,342.1348 L1784.5313,342.1348 Q1783.9219,342.1348 1783.6563,341.9004 Q1783.3906,341.666 1783.3906,341.2754 Q1783.3906,340.9004 1783.6563,340.666 Q1783.9219,340.4316 1784.5313,340.4316 L1786.25,340.4316 L1786.25,333.7754 L1784.5313,333.7754 Q1783.9219,333.7754 1783.6563,333.541 Q1783.3906,333.3066 1783.3906,332.916 Q1783.3906,332.541 1783.6563,332.3066 Q1783.9219,332.0723 1784.5313,332.0723 L1789.6719,332.0723 Q1790.2813,332.0723 1790.5469,332.3066 Q1790.8125,332.541 1790.8125,332.916 Q1790.8125,333.3066 1790.5469,333.541 Q1790.2813,333.7754 1789.6719,333.7754 L1787.9531,333.7754 Z " fill="#000000"/><text fill="#000000" font-family="sans-serif" font-size="14" font-style="italic" lengthAdjust="spacing" textLength="113" x="1801" y="342.9316">SensorRepository</text><rect fill="#FFFFFF" height="17.9609" style="stroke:#181818;stroke-width:1.0;stroke-dasharray:2.0,2.0;" width="27" x="1922" y="318.1348"/><text fill="#000000" font-family="sans-serif" font-size="12" font-style="italic" lengthAdjust="spacing" textLength="25" x="1923" y="332.084">repo</text><line style="stroke:#181818;stroke-width:0.5;" x1="1773" x2="1945" y1="353.1348" y2="353.1348"/><line style="stroke:#181818;stroke-width:0.5;" x1="1773" x2="1945" y1="361.1348" y2="361.1348"/></g><!--class Device--><g id="elem_Device"><rect codeLine="55" fill="#F1F1F1" height="141.1055" id="Device" rx="2.5" ry="2.5" style="stroke:#181818;stroke-width:0.5;" width="198" x="1895" y="457.1348"/><ellipse cx="1955.75" cy="473.1348" fill="#ADD1B2" rx="11" ry="11" style="stroke:#181818;stroke-width:1.0;"/><path d="M1958.5156,469.0098 Q1958.6719,468.791 1958.8594,468.6816 Q1959.0469,468.5723 1959.2656,468.5723 Q1959.6406,468.5723 1959.875,468.8379 Q1960.1094,469.0879 1960.1094,469.6973 L1960.1094,471.1504 Q1960.1094,471.7598 1959.875,472.0254 Q1959.6406,472.291 1959.2656,472.291 Q1958.9219,472.291 1958.7188,472.0879 Q1958.5156,471.9004 1958.4063,471.3848 Q1958.3594,471.0254 1958.1719,470.8379 Q1957.8438,470.4629 1957.2344,470.2441 Q1956.625,470.0254 1956,470.0254 Q1955.2344,470.0254 1954.5938,470.3535 Q1953.9688,470.6816 1953.4688,471.4316 Q1952.9844,472.1816 1952.9844,473.2129 L1952.9844,474.3066 Q1952.9844,475.541 1953.875,476.3691 Q1954.7656,477.1816 1956.3594,477.1816 Q1957.2969,477.1816 1957.9531,476.9316 Q1958.3438,476.7754 1958.7656,476.3379 Q1959.0313,476.0723 1959.1719,475.9941 Q1959.3281,475.916 1959.5313,475.916 Q1959.8594,475.916 1960.1094,476.1816 Q1960.375,476.4316 1960.375,476.7754 Q1960.375,477.1191 1960.0313,477.5254 Q1959.5313,478.1035 1958.7344,478.4316 Q1957.6563,478.8848 1956.3594,478.8848 Q1954.8438,478.8848 1953.6406,478.2598 Q1952.6563,477.7598 1951.9688,476.6973 Q1951.2813,475.6191 1951.2813,474.3379 L1951.2813,473.1816 Q1951.2813,471.8535 1951.8906,470.7129 Q1952.5156,469.5566 1953.6094,468.9473 Q1954.7031,468.3223 1955.9375,468.3223 Q1956.6719,468.3223 1957.3125,468.4941 Q1957.9688,468.6504 1958.5156,469.0098 Z " fill="#000000"/><text fill="#000000" font-family="sans-serif" font-size="14" lengthAdjust="spacing" textLength="43" x="1976.25" y="478.9316">Device</text><rect fill="#FFFFFF" height="17.9609" style="stroke:#181818;stroke-width:1.0;stroke-dasharray:2.0,2.0;" width="23" x="2073" y="454.1348"/><text fill="#000000" font-family="sans-serif" font-size="12" font-style="italic" lengthAdjust="spacing" textLength="21" x="2074" y="468.084">root</text><line style="stroke:#181818;stroke-width:0.5;" x1="1896" x2="2092" y1="489.1348" y2="489.1348"/><rect fill="none" height="6" style="stroke:#C82930;stroke-width:1.0;" width="6" x="1903" y="500.9453"/><text fill="#000000" font-family="sans-serif" font-size="14" lengthAdjust="spacing" textLength="141" x="1915" y="508.2422">deviceName: DeviceID</text><rect fill="none" height="6" style="stroke:#C82930;stroke-width:1.0;" width="6" x="1903" y="519.5664"/><text fill="#000000" font-family="sans-serif" font-size="14" lengthAdjust="spacing" textLength="168" x="1915" y="526.8633">deviceModel: DeviceModel</text><rect fill="none" height="6" style="stroke:#C82930;stroke-width:1.0;" width="6" x="1903" y="538.1875"/><text fill="#000000" font-family="sans-serif" font-size="14" lengthAdjust="spacing" textLength="172" x="1915" y="545.4844">deviceStatus: DeviceStatus</text><rect fill="none" height="6" style="stroke:#C82930;stroke-width:1.0;" width="6" x="1903" y="556.8086"/><text fill="#000000" font-family="sans-serif" font-size="14" lengthAdjust="spacing" textLength="103" x="1915" y="564.1055">roomID: RoomID</text><line style="stroke:#181818;stroke-width:0.5;" x1="1896" x2="2092" y1="571.6191" y2="571.6191"/><ellipse cx="1906" cy="586.4297" fill="#84BE84" rx="3" ry="3" style="stroke:#038048;stroke-width:1.0;"/><text fill="#000000" font-family="sans-serif" font-size="14" lengthAdjust="spacing" textLength="138" x="1915" y="590.7266">getRoomID(): RoomID</text></g><!--class Actuator--><g id="elem_Actuator"><rect codeLine="63" fill="#F1F1F1" height="159.7266" id="Actuator" rx="2.5" ry="2.5" style="stroke:#181818;stroke-width:0.5;" width="356" x="848" y="447.6348"/><ellipse cx="982.75" cy="463.6348" fill="#ADD1B2" rx="11" ry="11" style="stroke:#181818;stroke-width:1.0;"/><path d="M985.5156,459.5098 Q985.6719,459.291 985.8594,459.1816 Q986.0469,459.0723 986.2656,459.0723 Q986.6406,459.0723 986.875,459.3379 Q987.1094,459.5879 987.1094,460.1973 L987.1094,461.6504 Q987.1094,462.2598 986.875,462.5254 Q986.6406,462.791 986.2656,462.791 Q985.9219,462.791 985.7188,462.5879 Q985.5156,462.4004 985.4063,461.8848 Q985.3594,461.5254 985.1719,461.3379 Q984.8438,460.9629 984.2344,460.7441 Q983.625,460.5254 983,460.5254 Q982.2344,460.5254 981.5938,460.8535 Q980.9688,461.1816 980.4688,461.9316 Q979.9844,462.6816 979.9844,463.7129 L979.9844,464.8066 Q979.9844,466.041 980.875,466.8691 Q981.7656,467.6816 983.3594,467.6816 Q984.2969,467.6816 984.9531,467.4316 Q985.3438,467.2754 985.7656,466.8379 Q986.0313,466.5723 986.1719,466.4941 Q986.3281,466.416 986.5313,466.416 Q986.8594,466.416 987.1094,466.6816 Q987.375,466.9316 987.375,467.2754 Q987.375,467.6191 987.0313,468.0254 Q986.5313,468.6035 985.7344,468.9316 Q984.6563,469.3848 983.3594,469.3848 Q981.8438,469.3848 980.6406,468.7598 Q979.6563,468.2598 978.9688,467.1973 Q978.2813,466.1191 978.2813,464.8379 L978.2813,463.6816 Q978.2813,462.3535 978.8906,461.2129 Q979.5156,460.0566 980.6094,459.4473 Q981.7031,458.8223 982.9375,458.8223 Q983.6719,458.8223 984.3125,458.9941 Q984.9688,459.1504 985.5156,459.5098 Z " fill="#000000"/><text fill="#000000" font-family="sans-serif" font-size="14" lengthAdjust="spacing" textLength="53" x="1003.25" y="469.4316">Actuator</text><rect fill="#FFFFFF" height="17.9609" style="stroke:#181818;stroke-width:1.0;stroke-dasharray:2.0,2.0;" width="23" x="1184" y="444.6348"/><text fill="#000000" font-family="sans-serif" font-size="12" font-style="italic" lengthAdjust="spacing" textLength="21" x="1185" y="458.584">root</text><line style="stroke:#181818;stroke-width:0.5;" x1="849" x2="1203" y1="479.6348" y2="479.6348"/><rect fill="none" height="6" style="stroke:#C82930;stroke-width:1.0;" width="6" x="856" y="491.4453"/><text fill="#000000" font-family="sans-serif" font-size="14" lengthAdjust="spacing" textLength="162" x="868" y="498.7422">actuatorName: ActuatorID</text><rect fill="none" height="6" style="stroke:#C82930;stroke-width:1.0;" width="6" x="856" y="510.0664"/><text fill="#000000" font-family="sans-serif" font-size="14" lengthAdjust="spacing" textLength="299" x="868" y="517.3633">actuatorFunctionalityID: ActuatorFunctionalityID</text><rect fill="none" height="6" style="stroke:#C82930;stroke-width:1.0;" width="6" x="856" y="528.6875"/><text fill="#000000" font-family="sans-serif" font-size="14" lengthAdjust="spacing" textLength="243" x="868" y="535.9844">actuatorProperties: ActuatorProperties</text><rect fill="none" height="6" style="stroke:#C82930;stroke-width:1.0;" width="6" x="856" y="547.3086"/><text fill="#000000" font-family="sans-serif" font-size="14" lengthAdjust="spacing" textLength="118" x="868" y="554.6055">deviceID: DeviceID</text><line style="stroke:#181818;stroke-width:0.5;" x1="849" x2="1203" y1="562.1191" y2="562.1191"/><ellipse cx="859" cy="576.9297" fill="#84BE84" rx="3" ry="3" style="stroke:#038048;stroke-width:1.0;"/><text fill="#000000" font-family="sans-serif" font-size="14" lengthAdjust="spacing" textLength="330" x="868" y="581.2266">getActuatorFunctionalityID(): ActuatorFunctionalityID</text><ellipse cx="859" cy="595.5508" fill="#84BE84" rx="3" ry="3" style="stroke:#038048;stroke-width:1.0;"/><text fill="#000000" font-family="sans-serif" font-size="14" lengthAdjust="spacing" textLength="150" x="868" y="599.8477">getDeviceID(): DeviceID</text></g><!--class Sensor--><g id="elem_Sensor"><rect codeLine="47" fill="#F1F1F1" height="141.1055" id="Sensor" rx="2.5" ry="2.5" style="stroke:#181818;stroke-width:0.5;" width="340" x="1239" y="457.1348"/><ellipse cx="1369.75" cy="473.1348" fill="#ADD1B2" rx="11" ry="11" style="stroke:#181818;stroke-width:1.0;"/><path d="M1372.5156,469.0098 Q1372.6719,468.791 1372.8594,468.6816 Q1373.0469,468.5723 1373.2656,468.5723 Q1373.6406,468.5723 1373.875,468.8379 Q1374.1094,469.0879 1374.1094,469.6973 L1374.1094,471.1504 Q1374.1094,471.7598 1373.875,472.0254 Q1373.6406,472.291 1373.2656,472.291 Q1372.9219,472.291 1372.7188,472.0879 Q1372.5156,471.9004 1372.4063,471.3848 Q1372.3594,471.0254 1372.1719,470.8379 Q1371.8438,470.4629 1371.2344,470.2441 Q1370.625,470.0254 1370,470.0254 Q1369.2344,470.0254 1368.5938,470.3535 Q1367.9688,470.6816 1367.4688,471.4316 Q1366.9844,472.1816 1366.9844,473.2129 L1366.9844,474.3066 Q1366.9844,475.541 1367.875,476.3691 Q1368.7656,477.1816 1370.3594,477.1816 Q1371.2969,477.1816 1371.9531,476.9316 Q1372.3438,476.7754 1372.7656,476.3379 Q1373.0313,476.0723 1373.1719,475.9941 Q1373.3281,475.916 1373.5313,475.916 Q1373.8594,475.916 1374.1094,476.1816 Q1374.375,476.4316 1374.375,476.7754 Q1374.375,477.1191 1374.0313,477.5254 Q1373.5313,478.1035 1372.7344,478.4316 Q1371.6563,478.8848 1370.3594,478.8848 Q1368.8438,478.8848 1367.6406,478.2598 Q1366.6563,477.7598 1365.9688,476.6973 Q1365.2813,475.6191 1365.2813,474.3379 L1365.2813,473.1816 Q1365.2813,471.8535 1365.8906,470.7129 Q1366.5156,469.5566 1367.6094,468.9473 Q1368.7031,468.3223 1369.9375,468.3223 Q1370.6719,468.3223 1371.3125,468.4941 Q1371.9688,468.6504 1372.5156,469.0098 Z " fill="#000000"/><text fill="#000000" font-family="sans-serif" font-size="14" lengthAdjust="spacing" textLength="45" x="1390.25" y="478.9316">Sensor</text><rect fill="#FFFFFF" height="17.9609" style="stroke:#181818;stroke-width:1.0;stroke-dasharray:2.0,2.0;" width="23" x="1559" y="454.1348"/><text fill="#000000" font-family="sans-serif" font-size="12" font-style="italic" lengthAdjust="spacing" textLength="21" x="1560" y="468.084">root</text><line style="stroke:#181818;stroke-width:0.5;" x1="1240" x2="1578" y1="489.1348" y2="489.1348"/><rect fill="none" height="6" style="stroke:#C82930;stroke-width:1.0;" width="6" x="1247" y="500.9453"/><text fill="#000000" font-family="sans-serif" font-size="14" lengthAdjust="spacing" textLength="145" x="1259" y="508.2422">sensorName: SensorID</text><rect fill="none" height="6" style="stroke:#C82930;stroke-width:1.0;" width="6" x="1247" y="519.5664"/><text fill="#000000" font-family="sans-serif" font-size="14" lengthAdjust="spacing" textLength="282" x="1259" y="526.8633">sensorFunctionalityID: SensorFunctionalityID</text><rect fill="none" height="6" style="stroke:#C82930;stroke-width:1.0;" width="6" x="1247" y="538.1875"/><text fill="#000000" font-family="sans-serif" font-size="14" lengthAdjust="spacing" textLength="118" x="1259" y="545.4844">deviceID: DeviceID</text><line style="stroke:#181818;stroke-width:0.5;" x1="1240" x2="1578" y1="552.998" y2="552.998"/><ellipse cx="1250" cy="567.8086" fill="#84BE84" rx="3" ry="3" style="stroke:#038048;stroke-width:1.0;"/><text fill="#000000" font-family="sans-serif" font-size="14" lengthAdjust="spacing" textLength="314" x="1259" y="572.1055">getSensorFunctionalityID(): SensorFunctionalityID</text><ellipse cx="1250" cy="586.4297" fill="#84BE84" rx="3" ry="3" style="stroke:#038048;stroke-width:1.0;"/><text fill="#000000" font-family="sans-serif" font-size="14" lengthAdjust="spacing" textLength="150" x="1259" y="590.7266">getDeviceID(): DeviceID</text></g><g id="elem_N1"><path d="M1700.5,667.6348 L1700.5,694.9258 L1943.5,694.9258 L1943.5,677.6348 L1933.5,667.6348 L1700.5,667.6348 " fill="#FEFFDD" style="stroke:#181818;stroke-width:0.5;"/><path d="M1933.5,667.6348 L1933.5,677.6348 L1943.5,677.6348 L1933.5,667.6348 " fill="#FEFFDD" style="stroke:#181818;stroke-width:1.0;"/><text fill="#000000" font-family="sans-serif" font-size="13" lengthAdjust="spacing" textLength="222" x="1706.5" y="686.6631">Continues in UC09ClassDiagramREF1</text></g><!--class ActuatorFunctionalityDTO--><g id="elem_ActuatorFunctionalityDTO"><rect codeLine="88" fill="#F1F1F1" height="66.6211" id="ActuatorFunctionalityDTO" rx="2.5" ry="2.5" style="stroke:#181818;stroke-width:0.5;" width="203" x="609.5" y="494.1348"/><ellipse cx="628.1" cy="510.1348" fill="#ADD1B2" rx="11" ry="11" style="stroke:#181818;stroke-width:1.0;"/><path d="M630.8656,506.0098 Q631.0219,505.791 631.2094,505.6816 Q631.3969,505.5723 631.6156,505.5723 Q631.9906,505.5723 632.225,505.8379 Q632.4594,506.0879 632.4594,506.6973 L632.4594,508.1504 Q632.4594,508.7598 632.225,509.0254 Q631.9906,509.291 631.6156,509.291 Q631.2719,509.291 631.0688,509.0879 Q630.8656,508.9004 630.7563,508.3848 Q630.7094,508.0254 630.5219,507.8379 Q630.1938,507.4629 629.5844,507.2441 Q628.975,507.0254 628.35,507.0254 Q627.5844,507.0254 626.9438,507.3535 Q626.3188,507.6816 625.8188,508.4316 Q625.3344,509.1816 625.3344,510.2129 L625.3344,511.3066 Q625.3344,512.541 626.225,513.3691 Q627.1156,514.1816 628.7094,514.1816 Q629.6469,514.1816 630.3031,513.9316 Q630.6938,513.7754 631.1156,513.3379 Q631.3813,513.0723 631.5219,512.9941 Q631.6781,512.916 631.8813,512.916 Q632.2094,512.916 632.4594,513.1816 Q632.725,513.4316 632.725,513.7754 Q632.725,514.1191 632.3813,514.5254 Q631.8813,515.1035 631.0844,515.4316 Q630.0063,515.8848 628.7094,515.8848 Q627.1938,515.8848 625.9906,515.2598 Q625.0063,514.7598 624.3188,513.6973 Q623.6313,512.6191 623.6313,511.3379 L623.6313,510.1816 Q623.6313,508.8535 624.2406,507.7129 Q624.8656,506.5566 625.9594,505.9473 Q627.0531,505.3223 628.2875,505.3223 Q629.0219,505.3223 629.6625,505.4941 Q630.3188,505.6504 630.8656,506.0098 Z " fill="#000000"/><text fill="#000000" font-family="sans-serif" font-size="14" lengthAdjust="spacing" textLength="163" x="642.9" y="515.9316">ActuatorFunctionalityDTO</text><line style="stroke:#181818;stroke-width:0.5;" x1="610.5" x2="811.5" y1="526.1348" y2="526.1348"/><ellipse cx="620.5" cy="540.9453" fill="none" rx="3" ry="3" style="stroke:#038048;stroke-width:1.0;"/><text fill="#000000" font-family="sans-serif" font-size="14" lengthAdjust="spacing" textLength="177" x="629.5" y="545.2422">actuatorFunctionality: String</text><line style="stroke:#181818;stroke-width:0.5;" x1="610.5" x2="811.5" y1="552.7559" y2="552.7559"/></g><!--class SensorFunctionalityDTO--><g id="elem_SensorFunctionalityDTO"><rect codeLine="92" fill="#F1F1F1" height="66.6211" id="SensorFunctionalityDTO" rx="2.5" ry="2.5" style="stroke:#181818;stroke-width:0.5;" width="194" x="380" y="494.1348"/><ellipse cx="398.15" cy="510.1348" fill="#ADD1B2" rx="11" ry="11" style="stroke:#181818;stroke-width:1.0;"/><path d="M400.9156,506.0098 Q401.0719,505.791 401.2594,505.6816 Q401.4469,505.5723 401.6656,505.5723 Q402.0406,505.5723 402.275,505.8379 Q402.5094,506.0879 402.5094,506.6973 L402.5094,508.1504 Q402.5094,508.7598 402.275,509.0254 Q402.0406,509.291 401.6656,509.291 Q401.3219,509.291 401.1188,509.0879 Q400.9156,508.9004 400.8063,508.3848 Q400.7594,508.0254 400.5719,507.8379 Q400.2438,507.4629 399.6344,507.2441 Q399.025,507.0254 398.4,507.0254 Q397.6344,507.0254 396.9938,507.3535 Q396.3688,507.6816 395.8688,508.4316 Q395.3844,509.1816 395.3844,510.2129 L395.3844,511.3066 Q395.3844,512.541 396.275,513.3691 Q397.1656,514.1816 398.7594,514.1816 Q399.6969,514.1816 400.3531,513.9316 Q400.7438,513.7754 401.1656,513.3379 Q401.4313,513.0723 401.5719,512.9941 Q401.7281,512.916 401.9313,512.916 Q402.2594,512.916 402.5094,513.1816 Q402.775,513.4316 402.775,513.7754 Q402.775,514.1191 402.4313,514.5254 Q401.9313,515.1035 401.1344,515.4316 Q400.0563,515.8848 398.7594,515.8848 Q397.2438,515.8848 396.0406,515.2598 Q395.0563,514.7598 394.3688,513.6973 Q393.6813,512.6191 393.6813,511.3379 L393.6813,510.1816 Q393.6813,508.8535 394.2906,507.7129 Q394.9156,506.5566 396.0094,505.9473 Q397.1031,505.3223 398.3375,505.3223 Q399.0719,505.3223 399.7125,505.4941 Q400.3688,505.6504 400.9156,506.0098 Z " fill="#000000"/><text fill="#000000" font-family="sans-serif" font-size="14" lengthAdjust="spacing" textLength="155" x="412.85" y="515.9316">SensorFunctionalityDTO</text><line style="stroke:#181818;stroke-width:0.5;" x1="381" x2="573" y1="526.1348" y2="526.1348"/><ellipse cx="391" cy="540.9453" fill="none" rx="3" ry="3" style="stroke:#038048;stroke-width:1.0;"/><text fill="#000000" font-family="sans-serif" font-size="14" lengthAdjust="spacing" textLength="168" x="400" y="545.2422">sensorFunctionality: String</text><line style="stroke:#181818;stroke-width:0.5;" x1="381" x2="573" y1="552.7559" y2="552.7559"/></g><!--class DeviceDTO--><g id="elem_DeviceDTO"><rect codeLine="96" fill="#F1F1F1" height="66.6211" id="DeviceDTO" rx="2.5" ry="2.5" style="stroke:#181818;stroke-width:0.5;" width="148" x="197" y="494.1348"/><ellipse cx="231.35" cy="510.1348" fill="#ADD1B2" rx="11" ry="11" style="stroke:#181818;stroke-width:1.0;"/><path d="M234.1156,506.0098 Q234.2719,505.791 234.4594,505.6816 Q234.6469,505.5723 234.8656,505.5723 Q235.2406,505.5723 235.475,505.8379 Q235.7094,506.0879 235.7094,506.6973 L235.7094,508.1504 Q235.7094,508.7598 235.475,509.0254 Q235.2406,509.291 234.8656,509.291 Q234.5219,509.291 234.3188,509.0879 Q234.1156,508.9004 234.0063,508.3848 Q233.9594,508.0254 233.7719,507.8379 Q233.4438,507.4629 232.8344,507.2441 Q232.225,507.0254 231.6,507.0254 Q230.8344,507.0254 230.1938,507.3535 Q229.5688,507.6816 229.0688,508.4316 Q228.5844,509.1816 228.5844,510.2129 L228.5844,511.3066 Q228.5844,512.541 229.475,513.3691 Q230.3656,514.1816 231.9594,514.1816 Q232.8969,514.1816 233.5531,513.9316 Q233.9438,513.7754 234.3656,513.3379 Q234.6313,513.0723 234.7719,512.9941 Q234.9281,512.916 235.1313,512.916 Q235.4594,512.916 235.7094,513.1816 Q235.975,513.4316 235.975,513.7754 Q235.975,514.1191 235.6313,514.5254 Q235.1313,515.1035 234.3344,515.4316 Q233.2563,515.8848 231.9594,515.8848 Q230.4438,515.8848 229.2406,515.2598 Q228.2563,514.7598 227.5688,513.6973 Q226.8813,512.6191 226.8813,511.3379 L226.8813,510.1816 Q226.8813,508.8535 227.4906,507.7129 Q228.1156,506.5566 229.2094,505.9473 Q230.3031,505.3223 231.5375,505.3223 Q232.2719,505.3223 232.9125,505.4941 Q233.5688,505.6504 234.1156,506.0098 Z " fill="#000000"/><text fill="#000000" font-family="sans-serif" font-size="14" lengthAdjust="spacing" textLength="73" x="249.65" y="515.9316">DeviceDTO</text><line style="stroke:#181818;stroke-width:0.5;" x1="198" x2="344" y1="526.1348" y2="526.1348"/><ellipse cx="208" cy="540.9453" fill="none" rx="3" ry="3" style="stroke:#038048;stroke-width:1.0;"/><text fill="#000000" font-family="sans-serif" font-size="14" lengthAdjust="spacing" textLength="122" x="217" y="545.2422">deviceName: String</text><line style="stroke:#181818;stroke-width:0.5;" x1="198" x2="344" y1="552.7559" y2="552.7559"/></g><!--class RoomDTO--><g id="elem_RoomDTO"><rect codeLine="100" fill="#F1F1F1" height="66.6211" id="RoomDTO" rx="2.5" ry="2.5" style="stroke:#181818;stroke-width:0.5;" width="139" x="22.5" y="494.1348"/><ellipse cx="55.5" cy="510.1348" fill="#ADD1B2" rx="11" ry="11" style="stroke:#181818;stroke-width:1.0;"/><path d="M58.2656,506.0098 Q58.4219,505.791 58.6094,505.6816 Q58.7969,505.5723 59.0156,505.5723 Q59.3906,505.5723 59.625,505.8379 Q59.8594,506.0879 59.8594,506.6973 L59.8594,508.1504 Q59.8594,508.7598 59.625,509.0254 Q59.3906,509.291 59.0156,509.291 Q58.6719,509.291 58.4688,509.0879 Q58.2656,508.9004 58.1563,508.3848 Q58.1094,508.0254 57.9219,507.8379 Q57.5938,507.4629 56.9844,507.2441 Q56.375,507.0254 55.75,507.0254 Q54.9844,507.0254 54.3438,507.3535 Q53.7188,507.6816 53.2188,508.4316 Q52.7344,509.1816 52.7344,510.2129 L52.7344,511.3066 Q52.7344,512.541 53.625,513.3691 Q54.5156,514.1816 56.1094,514.1816 Q57.0469,514.1816 57.7031,513.9316 Q58.0938,513.7754 58.5156,513.3379 Q58.7813,513.0723 58.9219,512.9941 Q59.0781,512.916 59.2813,512.916 Q59.6094,512.916 59.8594,513.1816 Q60.125,513.4316 60.125,513.7754 Q60.125,514.1191 59.7813,514.5254 Q59.2813,515.1035 58.4844,515.4316 Q57.4063,515.8848 56.1094,515.8848 Q54.5938,515.8848 53.3906,515.2598 Q52.4063,514.7598 51.7188,513.6973 Q51.0313,512.6191 51.0313,511.3379 L51.0313,510.1816 Q51.0313,508.8535 51.6406,507.7129 Q52.2656,506.5566 53.3594,505.9473 Q54.4531,505.3223 55.6875,505.3223 Q56.4219,505.3223 57.0625,505.4941 Q57.7188,505.6504 58.2656,506.0098 Z " fill="#000000"/><text fill="#000000" font-family="sans-serif" font-size="14" lengthAdjust="spacing" textLength="67" x="73.5" y="515.9316">RoomDTO</text><line style="stroke:#181818;stroke-width:0.5;" x1="23.5" x2="160.5" y1="526.1348" y2="526.1348"/><ellipse cx="33.5" cy="540.9453" fill="none" rx="3" ry="3" style="stroke:#038048;stroke-width:1.0;"/><text fill="#000000" font-family="sans-serif" font-size="14" lengthAdjust="spacing" textLength="113" x="42.5" y="545.2422">roomName: String</text><line style="stroke:#181818;stroke-width:0.5;" x1="23.5" x2="160.5" y1="552.7559" y2="552.7559"/></g><!--link ListAllDevicesInHouseByFunctionalityController to ListAllDevicesInHouseByFunctionalityService--><g id="link_ListAllDevicesInHouseByFunctionalityController_ListAllDevicesInHouseByFunctionalityService"><path codeLine="10" d="M925.72,162.6348 C1018.42,162.6348 1120.88,162.6348 1214.19,162.6348 " fill="none" id="ListAllDevicesInHouseByFunctionalityController-ListAllDevicesInHouseByFunctionalityService" style="stroke:#181818;stroke-width:1.0;"/></g><!--link ListAllDevicesInHouseByFunctionalityController to RoomMapper--><g id="link_ListAllDevicesInHouseByFunctionalityController_RoomMapper"><path codeLine="11" d="M334.49,162.6348 C216.9,162.6348 109,162.6348 109,162.6348 C109,162.6348 109,242.4048 109,296.3448 " fill="none" id="ListAllDevicesInHouseByFunctionalityController-to-RoomMapper" style="stroke:#181818;stroke-width:1.0;stroke-dasharray:7.0,7.0;"/><polygon fill="#181818" points="109,302.3448,113,293.3448,109,297.3448,105,293.3448,109,302.3448" style="stroke:#181818;stroke-width:1.0;"/><text fill="#000000" font-family="sans-serif" font-size="13" lengthAdjust="spacing" textLength="57" x="93.89" y="158.6631">&#171;creates&#187;</text></g><!--link ListAllDevicesInHouseByFunctionalityController to DeviceMapper--><g id="link_ListAllDevicesInHouseByFunctionalityController_DeviceMapper"><path codeLine="12" d="M376.75,205.4248 C376.75,234.7148 376.75,267.3848 376.75,296.6148 " fill="none" id="ListAllDevicesInHouseByFunctionalityController-to-DeviceMapper" style="stroke:#181818;stroke-width:1.0;stroke-dasharray:7.0,7.0;"/><polygon fill="#181818" points="376.75,302.6148,380.75,293.6148,376.75,297.6148,372.75,293.6148,376.75,302.6148" style="stroke:#181818;stroke-width:1.0;"/><text fill="#000000" font-family="sans-serif" font-size="13" lengthAdjust="spacing" textLength="57" x="318.75" y="250.0431">&#171;creates&#187;</text></g><!--link ListAllDevicesInHouseByFunctionalityController to SensorFunctionalityMapper--><g id="link_ListAllDevicesInHouseByFunctionalityController_SensorFunctionalityMapper"><path codeLine="13" d="M630,205.4248 C630,234.7148 630,267.3848 630,296.6148 " fill="none" id="ListAllDevicesInHouseByFunctionalityController-to-SensorFunctionalityMapper" style="stroke:#181818;stroke-width:1.0;stroke-dasharray:7.0,7.0;"/><polygon fill="#181818" points="630,302.6148,634,293.6148,630,297.6148,626,293.6148,630,302.6148" style="stroke:#181818;stroke-width:1.0;"/><text fill="#000000" font-family="sans-serif" font-size="13" lengthAdjust="spacing" textLength="57" x="572" y="250.0431">&#171;creates&#187;</text></g><!--link ListAllDevicesInHouseByFunctionalityController to ActuatorFunctionalityMapper--><g id="link_ListAllDevicesInHouseByFunctionalityController_ActuatorFunctionalityMapper"><path codeLine="14" d="M883.5,205.4248 C883.5,234.7148 883.5,267.3848 883.5,296.6148 " fill="none" id="ListAllDevicesInHouseByFunctionalityController-to-ActuatorFunctionalityMapper" style="stroke:#181818;stroke-width:1.0;stroke-dasharray:7.0,7.0;"/><polygon fill="#181818" points="883.5,302.6148,887.5,293.6148,883.5,297.6148,879.5,293.6148,883.5,302.6148" style="stroke:#181818;stroke-width:1.0;"/><text fill="#000000" font-family="sans-serif" font-size="13" lengthAdjust="spacing" textLength="57" x="825.5" y="250.0431">&#171;creates&#187;</text></g><!--link ListAllDevicesInHouseByFunctionalityService to DeviceRepository--><g id="link_ListAllDevicesInHouseByFunctionalityService_DeviceRepository"><path codeLine="25" d="M1748.67,242.7348 C1748.67,326.0448 1748.67,451.4548 1748.67,503.5848 " fill="none" id="ListAllDevicesInHouseByFunctionalityService-DeviceRepository" style="stroke:#181818;stroke-width:1.0;"/></g><!--link ListAllDevicesInHouseByFunctionalityService to ActuatorRepository--><g id="link_ListAllDevicesInHouseByFunctionalityService_ActuatorRepository"><path codeLine="26" d="M1646,242.6848 C1646,271.0348 1646,300.8448 1646,320.9548 " fill="none" id="ListAllDevicesInHouseByFunctionalityService-ActuatorRepository" style="stroke:#181818;stroke-width:1.0;"/></g><!--link ListAllDevicesInHouseByFunctionalityService to SensorRepository--><g id="link_ListAllDevicesInHouseByFunctionalityService_SensorRepository"><path codeLine="27" d="M1797.75,242.6848 C1797.75,271.0348 1797.75,300.8448 1797.75,320.9548 " fill="none" id="ListAllDevicesInHouseByFunctionalityService-SensorRepository" style="stroke:#181818;stroke-width:1.0;"/></g><!--link ListAllDevicesInHouseByFunctionalityService to Device--><g id="link_ListAllDevicesInHouseByFunctionalityService_Device"><path codeLine="28" d="M1760.33,242.8748 C1760.33,337.0848 1760.33,480.6348 1760.33,480.6348 C1760.33,480.6348 1825.22,480.6348 1888.9,480.6348 " fill="none" id="ListAllDevicesInHouseByFunctionalityService-to-Device" style="stroke:#181818;stroke-width:1.0;stroke-dasharray:7.0,7.0;"/><polygon fill="#181818" points="1894.9,480.6348,1885.9,476.6348,1889.9,480.6348,1885.9,484.6348,1894.9,480.6348" style="stroke:#181818;stroke-width:1.0;"/><text fill="#000000" font-family="sans-serif" font-size="13" lengthAdjust="spacing" textLength="28" x="1731.33" y="425.0731">uses</text></g><!--link ListAllDevicesInHouseByFunctionalityService to Actuator--><g id="link_ListAllDevicesInHouseByFunctionalityService_Actuator"><path codeLine="29" d="M1226.75,242.6448 C1226.75,328.4848 1226.75,452.6348 1226.75,452.6348 C1226.75,452.6348 1223.98,452.6348 1210.11,452.6348 " fill="none" id="ListAllDevicesInHouseByFunctionalityService-to-Actuator" style="stroke:#181818;stroke-width:1.0;stroke-dasharray:7.0,7.0;"/><polygon fill="#181818" points="1204.11,452.6348,1213.11,456.6348,1209.11,452.6348,1213.11,448.6348,1204.11,452.6348" style="stroke:#181818;stroke-width:1.0;"/><text fill="#000000" font-family="sans-serif" font-size="13" lengthAdjust="spacing" textLength="28" x="1227.75" y="354.9831">uses</text></g><!--link ListAllDevicesInHouseByFunctionalityService to Sensor--><g id="link_ListAllDevicesInHouseByFunctionalityService_Sensor"><path codeLine="30" d="M1397,242.7348 C1397,306.7448 1397,389.5848 1397,450.9748 " fill="none" id="ListAllDevicesInHouseByFunctionalityService-to-Sensor" style="stroke:#181818;stroke-width:1.0;stroke-dasharray:7.0,7.0;"/><polygon fill="#181818" points="1397,456.9748,1401,447.9748,1397,451.9748,1393,447.9748,1397,456.9748" style="stroke:#181818;stroke-width:1.0;"/><text fill="#000000" font-family="sans-serif" font-size="13" lengthAdjust="spacing" textLength="28" x="1368" y="345.8831">uses</text></g><!--link DeviceRepository to N1--><g id="link_DeviceRepository_N1"><path codeLine="43" d="M1743,551.9548 C1743,584.5848 1743,641.4348 1743,667.4448 " fill="none" id="DeviceRepository-N1" style="stroke:#181818;stroke-width:1.0;"/></g><!--link SensorRepository to N1--><g id="link_SensorRepository_N1"><path codeLine="44" d="M1840.25,369.2948 C1840.25,435.2048 1840.25,616.5648 1840.25,667.6048 " fill="none" id="SensorRepository-N1" style="stroke:#181818;stroke-width:1.0;"/></g><!--link ActuatorRepository to N1--><g id="link_ActuatorRepository_N1"><path codeLine="45" d="M1596.75,369.3348 C1596.75,446.4948 1596.75,681.6348 1596.75,681.6348 C1596.75,681.6348 1647.28,681.6348 1700.47,681.6348 " fill="none" id="ActuatorRepository-N1" style="stroke:#181818;stroke-width:1.0;"/></g><!--link RoomMapper to RoomDTO--><g id="link_RoomMapper_RoomDTO"><path codeLine="105" d="M92,387.9248 C92,420.2648 92,458.0548 92,487.9348 " fill="none" id="RoomMapper-to-RoomDTO" style="stroke:#181818;stroke-width:1.0;stroke-dasharray:7.0,7.0;"/><polygon fill="#181818" points="92,493.9348,96,484.9348,92,488.9348,88,484.9348,92,493.9348" style="stroke:#181818;stroke-width:1.0;"/><text fill="#000000" font-family="sans-serif" font-size="13" lengthAdjust="spacing" textLength="57" x="34" y="436.9531">&#171;creates&#187;</text></g><!--link DeviceMapper to DeviceDTO--><g id="link_DeviceMapper_DeviceDTO"><path codeLine="106" d="M288,387.9248 C288,420.2648 288,458.0548 288,487.9348 " fill="none" id="DeviceMapper-to-DeviceDTO" style="stroke:#181818;stroke-width:1.0;stroke-dasharray:7.0,7.0;"/><polygon fill="#181818" points="288,493.9348,292,484.9348,288,488.9348,284,484.9348,288,493.9348" style="stroke:#181818;stroke-width:1.0;"/><text fill="#000000" font-family="sans-serif" font-size="13" lengthAdjust="spacing" textLength="57" x="230" y="436.9531">&#171;creates&#187;</text></g><!--link SensorFunctionalityMapper to SensorFunctionalityDTO--><g id="link_SensorFunctionalityMapper_SensorFunctionalityDTO"><path codeLine="107" d="M514,387.9248 C514,420.2648 514,458.0548 514,487.9348 " fill="none" id="SensorFunctionalityMapper-to-SensorFunctionalityDTO" style="stroke:#181818;stroke-width:1.0;stroke-dasharray:7.0,7.0;"/><polygon fill="#181818" points="514,493.9348,518,484.9348,514,488.9348,510,484.9348,514,493.9348" style="stroke:#181818;stroke-width:1.0;"/><text fill="#000000" font-family="sans-serif" font-size="13" lengthAdjust="spacing" textLength="57" x="456" y="436.9531">&#171;creates&#187;</text></g><!--link ActuatorFunctionalityMapper to ActuatorFunctionalityDTO--><g id="link_ActuatorFunctionalityMapper_ActuatorFunctionalityDTO"><path codeLine="108" d="M841.31,345.6348 C832.36,345.6348 827,345.6348 827,345.6348 C827,345.6348 827,527.6348 827,527.6348 C827,527.6348 827.45,527.6348 818.78,527.6348 " fill="none" id="ActuatorFunctionalityMapper-to-ActuatorFunctionalityDTO" style="stroke:#181818;stroke-width:1.0;stroke-dasharray:7.0,7.0;"/><polygon fill="#181818" points="812.78,527.6348,821.78,531.6348,817.78,527.6348,821.78,523.6348,812.78,527.6348" style="stroke:#181818;stroke-width:1.0;"/><text fill="#000000" font-family="sans-serif" font-size="13" lengthAdjust="spacing" textLength="57" x="769" y="432.6231">&#171;creates&#187;</text></g><!--SRC=[hLRVRziW47xdhpXjBvrQH-lZh2XILgzTfFwOckvjBzGXAQi35k1EKTJ_VM0WE3PEuwflDlVTTnzt78UYgY3m- -BhjnIkY8A2IWLy2RWeO45UQ4uaK0OOddWboHci1AzAie37ZJF3icAvefpXWgeDg4r9v0Xc2jQLPg8iBwe5yTY2vzXWHqW-KrPYWTSw8YF62xXGJnoX4kVFU4L04l5217o-fgidTINm1hOeBx2KSAqrJeiYi_9cxAUHzdrpsHHomPaIl2WqmnObnH4USnrFMzEZw1qOdQw8ClYxfOEtS2TVKhZ1vVZkyI_9rLdzVS_vEdkuEuCvKMFhfdydambwHMZWtf91QWUIZqOJC6Arw9A85CRZN12iYDHItq5biHz4DYTCSh67-23cQQugh8xW7d0QNG7CKRITS4zABgcEiabTNi8AIh2Jq4HDEsieaNKIcgXvQmMTkYQ-idtRqZLbYslNadqdTPOr3-eiC-VK1Mvdo5D4QcDO3ZBYdgnxpcXLtc8zifzyTP85_yUIf5kGuIInShs3fLFE8HoZq7GfQ9WSxkrtyLv_gzzv8qIP8cA9jRMTOXWB_JtPcf85L7lxSLGtrKqSuuh09zFZb5Lsc9bfTs5wDwDufKVG_O_Byq-09ToUeuumLmbjwgW9feY4O7JtX7NNqZXN4tCJs2QwnMlY-tQMHLjhbgKGxIb_cnY0F_VrI8gYJIl5QOoBzpUe7TUh5szN6k9jO2j-1tUhDtn12hzS_tZBN65LIM-oVoWHTVkcODkuLcC_ZHQtk5FYK-sqRCFLOSLukv63uvT62ZstIV3u9RY-xnKbCe33Mc_UUtZDFlf27fjxEu5qwjsD_i3re-74exNZ7xPxImJVCBwDfqcqzRDPhRtSSoJuz8vMGn4vdfOnUhBg017BNhm30zT4Z1RHnkp9QHqrQdixhaRq1jNjemHbguEfSWIHF7NTTmKBPNNNGGleQkHhs09fMAFE_jMcyVllbRrp56P31zTV_vw7LuVXK4LxdrWT5lGV]--></g></svg>