<?xml version="1.0" encoding="us-ascii" standalone="no"?><svg xmlns="http://www.w3.org/2000/svg" xmlns:xlink="http://www.w3.org/1999/xlink" contentStyleType="text/css" height="517px" preserveAspectRatio="none" style="width:1116px;height:517px;background:#FFFFFF;" version="1.1" viewBox="0 0 1116 517" width="1116px" zoomAndPan="magnify"><defs/><g><text fill="#000000" font-family="sans-serif" font-size="14" font-weight="bold" lengthAdjust="spacing" textLength="252" x="425" y="25.1074">UC12.1 List Actuator Functionalities.</text><!--cluster server--><g id="cluster_server"><path d="M8.5,45.6348 L56.5,45.6348 A3.75,3.75 0 0 1 59,48.1348 L66,70.2559 L1106.5,70.2559 A2.5,2.5 0 0 1 1109,72.7559 L1109,508.1348 A2.5,2.5 0 0 1 1106.5,510.6348 L8.5,510.6348 A2.5,2.5 0 0 1 6,508.1348 L6,48.1348 A2.5,2.5 0 0 1 8.5,45.6348 " fill="#D3D3D3" style="stroke:#000000;stroke-width:1.5;"/><line style="stroke:#000000;stroke-width:1.5;" x1="6" x2="66" y1="70.2559" y2="70.2559"/><text fill="#000000" font-family="sans-serif" font-size="14" font-weight="bold" lengthAdjust="spacing" textLength="47" x="10" y="62.7422">server</text></g><!--class ListActuatorFunctionalitiesController--><g id="elem_ListActuatorFunctionalitiesController"><rect codeLine="8" fill="#F1F1F1" height="85.2422" id="ListActuatorFunctionalitiesController" rx="2.5" ry="2.5" style="stroke:#181818;stroke-width:0.5;" width="393" x="319.5" y="82.6348"/><ellipse cx="397.75" cy="98.6348" fill="#ADD1B2" rx="11" ry="11" style="stroke:#181818;stroke-width:1.0;"/><path d="M400.5156,94.5098 Q400.6719,94.291 400.8594,94.1816 Q401.0469,94.0723 401.2656,94.0723 Q401.6406,94.0723 401.875,94.3379 Q402.1094,94.5879 402.1094,95.1973 L402.1094,96.6504 Q402.1094,97.2598 401.875,97.5254 Q401.6406,97.791 401.2656,97.791 Q400.9219,97.791 400.7188,97.5879 Q400.5156,97.4004 400.4063,96.8848 Q400.3594,96.5254 400.1719,96.3379 Q399.8438,95.9629 399.2344,95.7441 Q398.625,95.5254 398,95.5254 Q397.2344,95.5254 396.5938,95.8535 Q395.9688,96.1816 395.4688,96.9316 Q394.9844,97.6816 394.9844,98.7129 L394.9844,99.8066 Q394.9844,101.041 395.875,101.8691 Q396.7656,102.6816 398.3594,102.6816 Q399.2969,102.6816 399.9531,102.4316 Q400.3438,102.2754 400.7656,101.8379 Q401.0313,101.5723 401.1719,101.4941 Q401.3281,101.416 401.5313,101.416 Q401.8594,101.416 402.1094,101.6816 Q402.375,101.9316 402.375,102.2754 Q402.375,102.6191 402.0313,103.0254 Q401.5313,103.6035 400.7344,103.9316 Q399.6563,104.3848 398.3594,104.3848 Q396.8438,104.3848 395.6406,103.7598 Q394.6563,103.2598 393.9688,102.1973 Q393.2813,101.1191 393.2813,99.8379 L393.2813,98.6816 Q393.2813,97.3535 393.8906,96.2129 Q394.5156,95.0566 395.6094,94.4473 Q396.7031,93.8223 397.9375,93.8223 Q398.6719,93.8223 399.3125,93.9941 Q399.9688,94.1504 400.5156,94.5098 Z " fill="#000000"/><text fill="#000000" font-family="sans-serif" font-size="14" lengthAdjust="spacing" textLength="228" x="418.25" y="104.4316">ListActuatorFunctionalitiesController</text><line style="stroke:#181818;stroke-width:0.5;" x1="320.5" x2="711.5" y1="114.6348" y2="114.6348"/><rect fill="none" height="6" style="stroke:#C82930;stroke-width:1.0;" width="6" x="327.5" y="126.4453"/><text fill="#000000" font-family="sans-serif" font-size="14" lengthAdjust="spacing" textLength="367" x="339.5" y="133.7422">actuatorFunctionalityService: ActuatorFunctionalityService</text><line style="stroke:#181818;stroke-width:0.5;" x1="320.5" x2="711.5" y1="141.2559" y2="141.2559"/><ellipse cx="330.5" cy="156.0664" fill="#84BE84" rx="3" ry="3" style="stroke:#038048;stroke-width:1.0;"/><text fill="#000000" font-family="sans-serif" font-size="14" lengthAdjust="spacing" textLength="211" x="339.5" y="160.3633">getListOfActuatorFunctionalities()</text></g><!--class ActuatorFunctionalityService--><g id="elem_ActuatorFunctionalityService"><rect codeLine="13" fill="#F1F1F1" height="85.2422" id="ActuatorFunctionalityService" rx="2.5" ry="2.5" style="stroke:#181818;stroke-width:0.5;" width="435" x="22.5" y="246.1348"/><ellipse cx="145.75" cy="262.1348" fill="#ADD1B2" rx="11" ry="11" style="stroke:#181818;stroke-width:1.0;"/><path d="M148.5156,258.0098 Q148.6719,257.791 148.8594,257.6816 Q149.0469,257.5723 149.2656,257.5723 Q149.6406,257.5723 149.875,257.8379 Q150.1094,258.0879 150.1094,258.6973 L150.1094,260.1504 Q150.1094,260.7598 149.875,261.0254 Q149.6406,261.291 149.2656,261.291 Q148.9219,261.291 148.7188,261.0879 Q148.5156,260.9004 148.4063,260.3848 Q148.3594,260.0254 148.1719,259.8379 Q147.8438,259.4629 147.2344,259.2441 Q146.625,259.0254 146,259.0254 Q145.2344,259.0254 144.5938,259.3535 Q143.9688,259.6816 143.4688,260.4316 Q142.9844,261.1816 142.9844,262.2129 L142.9844,263.3066 Q142.9844,264.541 143.875,265.3691 Q144.7656,266.1816 146.3594,266.1816 Q147.2969,266.1816 147.9531,265.9316 Q148.3438,265.7754 148.7656,265.3379 Q149.0313,265.0723 149.1719,264.9941 Q149.3281,264.916 149.5313,264.916 Q149.8594,264.916 150.1094,265.1816 Q150.375,265.4316 150.375,265.7754 Q150.375,266.1191 150.0313,266.5254 Q149.5313,267.1035 148.7344,267.4316 Q147.6563,267.8848 146.3594,267.8848 Q144.8438,267.8848 143.6406,267.2598 Q142.6563,266.7598 141.9688,265.6973 Q141.2813,264.6191 141.2813,263.3379 L141.2813,262.1816 Q141.2813,260.8535 141.8906,259.7129 Q142.5156,258.5566 143.6094,257.9473 Q144.7031,257.3223 145.9375,257.3223 Q146.6719,257.3223 147.3125,257.4941 Q147.9688,257.6504 148.5156,258.0098 Z " fill="#000000"/><text fill="#000000" font-family="sans-serif" font-size="14" lengthAdjust="spacing" textLength="180" x="166.25" y="267.9316">ActuatorFunctionalityService</text><line style="stroke:#181818;stroke-width:0.5;" x1="23.5" x2="456.5" y1="278.1348" y2="278.1348"/><rect fill="none" height="6" style="stroke:#C82930;stroke-width:1.0;" width="6" x="30.5" y="289.9453"/><text fill="#000000" font-family="sans-serif" font-size="14" lengthAdjust="spacing" textLength="409" x="42.5" y="297.2422">actuatorFunctionalityRepository: ActuatorFunctionalityRepository</text><line style="stroke:#181818;stroke-width:0.5;" x1="23.5" x2="456.5" y1="304.7559" y2="304.7559"/><ellipse cx="33.5" cy="319.5664" fill="#84BE84" rx="3" ry="3" style="stroke:#038048;stroke-width:1.0;"/><text fill="#000000" font-family="sans-serif" font-size="14" lengthAdjust="spacing" textLength="395" x="42.5" y="323.8633">getListOfActuatorFunctionalities(): List&lt;SensorFunctionalityID&gt;</text></g><!--class ActuatorFunctionality--><g id="elem_ActuatorFunctionality"><rect codeLine="18" fill="#F1F1F1" height="85.2422" id="ActuatorFunctionality" rx="2.5" ry="2.5" style="stroke:#181818;stroke-width:0.5;" width="325" x="22.5" y="409.6348"/><ellipse cx="101.75" cy="425.6348" fill="#ADD1B2" rx="11" ry="11" style="stroke:#181818;stroke-width:1.0;"/><path d="M104.5156,421.5098 Q104.6719,421.291 104.8594,421.1816 Q105.0469,421.0723 105.2656,421.0723 Q105.6406,421.0723 105.875,421.3379 Q106.1094,421.5879 106.1094,422.1973 L106.1094,423.6504 Q106.1094,424.2598 105.875,424.5254 Q105.6406,424.791 105.2656,424.791 Q104.9219,424.791 104.7188,424.5879 Q104.5156,424.4004 104.4063,423.8848 Q104.3594,423.5254 104.1719,423.3379 Q103.8438,422.9629 103.2344,422.7441 Q102.625,422.5254 102,422.5254 Q101.2344,422.5254 100.5938,422.8535 Q99.9688,423.1816 99.4688,423.9316 Q98.9844,424.6816 98.9844,425.7129 L98.9844,426.8066 Q98.9844,428.041 99.875,428.8691 Q100.7656,429.6816 102.3594,429.6816 Q103.2969,429.6816 103.9531,429.4316 Q104.3438,429.2754 104.7656,428.8379 Q105.0313,428.5723 105.1719,428.4941 Q105.3281,428.416 105.5313,428.416 Q105.8594,428.416 106.1094,428.6816 Q106.375,428.9316 106.375,429.2754 Q106.375,429.6191 106.0313,430.0254 Q105.5313,430.6035 104.7344,430.9316 Q103.6563,431.3848 102.3594,431.3848 Q100.8438,431.3848 99.6406,430.7598 Q98.6563,430.2598 97.9688,429.1973 Q97.2813,428.1191 97.2813,426.8379 L97.2813,425.6816 Q97.2813,424.3535 97.8906,423.2129 Q98.5156,422.0566 99.6094,421.4473 Q100.7031,420.8223 101.9375,420.8223 Q102.6719,420.8223 103.3125,420.9941 Q103.9688,421.1504 104.5156,421.5098 Z " fill="#000000"/><text fill="#000000" font-family="sans-serif" font-size="14" lengthAdjust="spacing" textLength="133" x="122.25" y="431.4316">ActuatorFunctionality</text><rect fill="#FFFFFF" height="17.9609" style="stroke:#181818;stroke-width:1.0;stroke-dasharray:2.0,2.0;" width="23" x="327.5" y="406.6348"/><text fill="#000000" font-family="sans-serif" font-size="12" font-style="italic" lengthAdjust="spacing" textLength="21" x="328.5" y="420.584">root</text><line style="stroke:#181818;stroke-width:0.5;" x1="23.5" x2="346.5" y1="441.6348" y2="441.6348"/><rect fill="none" height="6" style="stroke:#C82930;stroke-width:1.0;" width="6" x="30.5" y="453.4453"/><text fill="#000000" font-family="sans-serif" font-size="14" lengthAdjust="spacing" textLength="299" x="42.5" y="460.7422">actuatorFunctionalityID: ActuatorFunctionalityID</text><line style="stroke:#181818;stroke-width:0.5;" x1="23.5" x2="346.5" y1="468.2559" y2="468.2559"/><ellipse cx="33.5" cy="483.0664" fill="#84BE84" rx="3" ry="3" style="stroke:#038048;stroke-width:1.0;"/><text fill="#000000" font-family="sans-serif" font-size="14" lengthAdjust="spacing" textLength="209" x="42.5" y="487.3633">identity(): ActuatorFunctionalityID</text></g><!--class ActuatorFunctionalityRepository--><g id="elem_ActuatorFunctionalityRepository"><rect codeLine="23" fill="#F1F1F1" height="66.6211" id="ActuatorFunctionalityRepository" rx="2.5" ry="2.5" style="stroke:#181818;stroke-width:0.5;" width="324" x="383" y="418.6348"/><ellipse cx="425.9" cy="434.6348" fill="#ADD1B2" rx="11" ry="11" style="stroke:#181818;stroke-width:1.0;"/><path d="M428.6656,430.5098 Q428.8219,430.291 429.0094,430.1816 Q429.1969,430.0723 429.4156,430.0723 Q429.7906,430.0723 430.025,430.3379 Q430.2594,430.5879 430.2594,431.1973 L430.2594,432.6504 Q430.2594,433.2598 430.025,433.5254 Q429.7906,433.791 429.4156,433.791 Q429.0719,433.791 428.8688,433.5879 Q428.6656,433.4004 428.5563,432.8848 Q428.5094,432.5254 428.3219,432.3379 Q427.9938,431.9629 427.3844,431.7441 Q426.775,431.5254 426.15,431.5254 Q425.3844,431.5254 424.7438,431.8535 Q424.1188,432.1816 423.6188,432.9316 Q423.1344,433.6816 423.1344,434.7129 L423.1344,435.8066 Q423.1344,437.041 424.025,437.8691 Q424.9156,438.6816 426.5094,438.6816 Q427.4469,438.6816 428.1031,438.4316 Q428.4938,438.2754 428.9156,437.8379 Q429.1813,437.5723 429.3219,437.4941 Q429.4781,437.416 429.6813,437.416 Q430.0094,437.416 430.2594,437.6816 Q430.525,437.9316 430.525,438.2754 Q430.525,438.6191 430.1813,439.0254 Q429.6813,439.6035 428.8844,439.9316 Q427.8063,440.3848 426.5094,440.3848 Q424.9938,440.3848 423.7906,439.7598 Q422.8063,439.2598 422.1188,438.1973 Q421.4313,437.1191 421.4313,435.8379 L421.4313,434.6816 Q421.4313,433.3535 422.0406,432.2129 Q422.6656,431.0566 423.7594,430.4473 Q424.8531,429.8223 426.0875,429.8223 Q426.8219,429.8223 427.4625,429.9941 Q428.1188,430.1504 428.6656,430.5098 Z " fill="#000000"/><text fill="#000000" font-family="sans-serif" font-size="14" lengthAdjust="spacing" textLength="201" x="446.1" y="440.4316">ActuatorFunctionalityRepository</text><rect fill="#FFFFFF" height="17.9609" style="stroke:#181818;stroke-width:1.0;stroke-dasharray:2.0,2.0;" width="27" x="683" y="415.6348"/><text fill="#000000" font-family="sans-serif" font-size="12" font-style="italic" lengthAdjust="spacing" textLength="25" x="684" y="429.584">repo</text><line style="stroke:#181818;stroke-width:0.5;" x1="384" x2="706" y1="450.6348" y2="450.6348"/><line style="stroke:#181818;stroke-width:0.5;" x1="384" x2="706" y1="458.6348" y2="458.6348"/><ellipse cx="394" cy="473.4453" fill="#84BE84" rx="3" ry="3" style="stroke:#038048;stroke-width:1.0;"/><text fill="#000000" font-family="sans-serif" font-size="14" lengthAdjust="spacing" textLength="298" x="403" y="477.7422">findAllEntities(): Iterable&lt;ActuatorFunctionality&gt;</text></g><!--class ActuatorFunctionalityMapperDTO--><g id="elem_ActuatorFunctionalityMapperDTO"><rect codeLine="27" fill="#F1F1F1" height="122.4844" id="ActuatorFunctionalityMapperDTO" rx="2.5" ry="2.5" style="stroke:#181818;stroke-width:0.5;" width="600" x="493" y="227.6348"/><ellipse cx="683.25" cy="243.6348" fill="#ADD1B2" rx="11" ry="11" style="stroke:#181818;stroke-width:1.0;"/><path d="M686.0156,239.5098 Q686.1719,239.291 686.3594,239.1816 Q686.5469,239.0723 686.7656,239.0723 Q687.1406,239.0723 687.375,239.3379 Q687.6094,239.5879 687.6094,240.1973 L687.6094,241.6504 Q687.6094,242.2598 687.375,242.5254 Q687.1406,242.791 686.7656,242.791 Q686.4219,242.791 686.2188,242.5879 Q686.0156,242.4004 685.9063,241.8848 Q685.8594,241.5254 685.6719,241.3379 Q685.3438,240.9629 684.7344,240.7441 Q684.125,240.5254 683.5,240.5254 Q682.7344,240.5254 682.0938,240.8535 Q681.4688,241.1816 680.9688,241.9316 Q680.4844,242.6816 680.4844,243.7129 L680.4844,244.8066 Q680.4844,246.041 681.375,246.8691 Q682.2656,247.6816 683.8594,247.6816 Q684.7969,247.6816 685.4531,247.4316 Q685.8438,247.2754 686.2656,246.8379 Q686.5313,246.5723 686.6719,246.4941 Q686.8281,246.416 687.0313,246.416 Q687.3594,246.416 687.6094,246.6816 Q687.875,246.9316 687.875,247.2754 Q687.875,247.6191 687.5313,248.0254 Q687.0313,248.6035 686.2344,248.9316 Q685.1563,249.3848 683.8594,249.3848 Q682.3438,249.3848 681.1406,248.7598 Q680.1563,248.2598 679.4688,247.1973 Q678.7813,246.1191 678.7813,244.8379 L678.7813,243.6816 Q678.7813,242.3535 679.3906,241.2129 Q680.0156,240.0566 681.1094,239.4473 Q682.2031,238.8223 683.4375,238.8223 Q684.1719,238.8223 684.8125,238.9941 Q685.4688,239.1504 686.0156,239.5098 Z " fill="#000000"/><text fill="#000000" font-family="sans-serif" font-size="14" lengthAdjust="spacing" textLength="211" x="703.75" y="249.4316">ActuatorFunctionalityMapperDTO</text><line style="stroke:#181818;stroke-width:0.5;" x1="494" x2="1092" y1="259.6348" y2="259.6348"/><line style="stroke:#181818;stroke-width:0.5;" x1="494" x2="1092" y1="267.6348" y2="267.6348"/><ellipse cx="504" cy="291.7559" fill="#84BE84" rx="3" ry="3" style="stroke:#038048;stroke-width:1.0;"/><text fill="#000000" font-family="sans-serif" font-size="14" lengthAdjust="spacing" textLength="488" x="513" y="286.7422">actuatorFunctionalityToDTO(ActuatorFunctionalityID actuatorFunctionalityID):</text><text fill="#000000" font-family="sans-serif" font-size="14" lengthAdjust="spacing" textLength="163" x="517" y="305.3633">ActuatorFunctionalityDTO</text><ellipse cx="504" cy="328.998" fill="#84BE84" rx="3" ry="3" style="stroke:#038048;stroke-width:1.0;"/><text fill="#000000" font-family="sans-serif" font-size="14" lengthAdjust="spacing" textLength="570" x="513" y="323.9844">actuatorFunctionalityToDTOList (List&lt;ActuatorFunctionalityID&gt; actuatorFunctionalitiesIDs):</text><text fill="#000000" font-family="sans-serif" font-size="14" lengthAdjust="spacing" textLength="201" x="517" y="342.6055">List&lt;ActuatorFunctionalityDTO&gt;</text></g><!--class ActuatorFunctionalityDTO--><g id="elem_ActuatorFunctionalityDTO"><rect codeLine="32" fill="#F1F1F1" height="66.6211" id="ActuatorFunctionalityDTO" rx="2.5" ry="2.5" style="stroke:#181818;stroke-width:0.5;" width="243" x="742.5" y="418.6348"/><ellipse cx="779.1" cy="434.6348" fill="#ADD1B2" rx="11" ry="11" style="stroke:#181818;stroke-width:1.0;"/><path d="M781.8656,430.5098 Q782.0219,430.291 782.2094,430.1816 Q782.3969,430.0723 782.6156,430.0723 Q782.9906,430.0723 783.225,430.3379 Q783.4594,430.5879 783.4594,431.1973 L783.4594,432.6504 Q783.4594,433.2598 783.225,433.5254 Q782.9906,433.791 782.6156,433.791 Q782.2719,433.791 782.0688,433.5879 Q781.8656,433.4004 781.7563,432.8848 Q781.7094,432.5254 781.5219,432.3379 Q781.1938,431.9629 780.5844,431.7441 Q779.975,431.5254 779.35,431.5254 Q778.5844,431.5254 777.9438,431.8535 Q777.3188,432.1816 776.8188,432.9316 Q776.3344,433.6816 776.3344,434.7129 L776.3344,435.8066 Q776.3344,437.041 777.225,437.8691 Q778.1156,438.6816 779.7094,438.6816 Q780.6469,438.6816 781.3031,438.4316 Q781.6938,438.2754 782.1156,437.8379 Q782.3813,437.5723 782.5219,437.4941 Q782.6781,437.416 782.8813,437.416 Q783.2094,437.416 783.4594,437.6816 Q783.725,437.9316 783.725,438.2754 Q783.725,438.6191 783.3813,439.0254 Q782.8813,439.6035 782.0844,439.9316 Q781.0063,440.3848 779.7094,440.3848 Q778.1938,440.3848 776.9906,439.7598 Q776.0063,439.2598 775.3188,438.1973 Q774.6313,437.1191 774.6313,435.8379 L774.6313,434.6816 Q774.6313,433.3535 775.2406,432.2129 Q775.8656,431.0566 776.9594,430.4473 Q778.0531,429.8223 779.2875,429.8223 Q780.0219,429.8223 780.6625,429.9941 Q781.3188,430.1504 781.8656,430.5098 Z " fill="#000000"/><text fill="#000000" font-family="sans-serif" font-size="14" lengthAdjust="spacing" textLength="163" x="797.9" y="440.4316">ActuatorFunctionalityDTO</text><line style="stroke:#181818;stroke-width:0.5;" x1="743.5" x2="984.5" y1="450.6348" y2="450.6348"/><ellipse cx="753.5" cy="465.4453" fill="none" rx="3" ry="3" style="stroke:#038048;stroke-width:1.0;"/><text fill="#000000" font-family="sans-serif" font-size="14" lengthAdjust="spacing" textLength="217" x="762.5" y="469.7422">actuatorFunctionalityName : String</text><line style="stroke:#181818;stroke-width:0.5;" x1="743.5" x2="984.5" y1="477.2559" y2="477.2559"/></g><!--link ListActuatorFunctionalitiesController to ActuatorFunctionalityService--><g id="link_ListActuatorFunctionalitiesController_ActuatorFunctionalityService"><path codeLine="37" d="M388.5,167.6648 C388.5,191.7948 388.5,221.8948 388.5,246.0348 " fill="none" id="ListActuatorFunctionalitiesController-ActuatorFunctionalityService" style="stroke:#181818;stroke-width:1.0;"/></g><!--link ListActuatorFunctionalitiesController to ActuatorFunctionalityMapperDTO--><g id="link_ListActuatorFunctionalitiesController_ActuatorFunctionalityMapperDTO"><path codeLine="38" d="M602.75,167.6648 C602.75,185.9248 602.75,201.6148 602.75,221.5448 " fill="none" id="ListActuatorFunctionalitiesController-to-ActuatorFunctionalityMapperDTO" style="stroke:#181818;stroke-width:1.0;stroke-dasharray:7.0,7.0;"/><polygon fill="#181818" points="602.75,227.5448,606.75,218.5448,602.75,222.5448,598.75,218.5448,602.75,227.5448" style="stroke:#181818;stroke-width:1.0;"/><text fill="#000000" font-family="sans-serif" font-size="13" lengthAdjust="spacing" textLength="57" x="544.75" y="193.6331">&#171;creates&#187;</text></g><!--link ActuatorFunctionalityService to ActuatorFunctionalityRepository--><g id="link_ActuatorFunctionalityService_ActuatorFunctionalityRepository"><path codeLine="39" d="M420.25,331.1648 C420.25,358.4148 420.25,393.2848 420.25,418.5748 " fill="none" id="ActuatorFunctionalityService-ActuatorFunctionalityRepository" style="stroke:#181818;stroke-width:1.0;"/></g><!--link ActuatorFunctionalityService to ActuatorFunctionality--><g id="link_ActuatorFunctionalityService_ActuatorFunctionality"><path codeLine="40" d="M185,331.1648 C185,355.2948 185,379.3948 185,403.5348 " fill="none" id="ActuatorFunctionalityService-to-ActuatorFunctionality" style="stroke:#181818;stroke-width:1.0;stroke-dasharray:7.0,7.0;"/><polygon fill="#181818" points="185,409.5348,189,400.5348,185,404.5348,181,400.5348,185,409.5348" style="stroke:#181818;stroke-width:1.0;"/><text fill="#000000" font-family="sans-serif" font-size="13" lengthAdjust="spacing" textLength="35" x="149" y="366.3731">&#171;use&#187;</text></g><!--link ActuatorFunctionalityMapperDTO to ActuatorFunctionalityDTO--><g id="link_ActuatorFunctionalityMapperDTO_ActuatorFunctionalityDTO"><path codeLine="41" d="M864,349.9848 C864,373.1748 864,392.7148 864,412.4548 " fill="none" id="ActuatorFunctionalityMapperDTO-to-ActuatorFunctionalityDTO" style="stroke:#181818;stroke-width:1.0;stroke-dasharray:7.0,7.0;"/><polygon fill="#181818" points="864,418.4548,868,409.4548,864,413.4548,860,409.4548,864,418.4548" style="stroke:#181818;stroke-width:1.0;"/><text fill="#000000" font-family="sans-serif" font-size="13" lengthAdjust="spacing" textLength="57" x="806" y="380.2431">&#171;creates&#187;</text></g><!--SRC=[ZPDHQy8m58NVyok2UvX3Md6FfHJ4RgFW9aptjfUiNcimJKfoEoZYVr-iYaEQr3w5vjvpldF3VTmYLYOQZol19DQb27DLZdF1Z0dMd1MQbOIO7PSLiqSgk0HiAg1AurOHWXm5qC7NRF8SJkYS6wJJ76k6IjFNMkR8bMI28mSJ3WYfMBvZ1L03-XSqVPZpOejlcZLqJrhFLkAYS2CmKnAr4i8sxWcrNy0w2fkbrUOvH7JgkMtxHmNWqM-nSJWEdyY1dC5yQbwUJwYKuVPluq2w5jnB5RLZYfSWpOrMbYOzo3JMIc7YHSvI1sgMdX3v6gHz-kQ8uYhqOrn3Mo1xlW2DDbokfqAy7FNFOJC4pNu4n9rAVO7VMLM1JbUBYqDdv9Mo5KD75kgOacNxbjskLgtFhTsMOVkI3j-aqzXE9KlDoTlTRGtw9cDBV2FvO2NGY2vHSraGUZYgtRUUGU1VlljKmZ3fUr6B5yUv1ePWaeHuTzG5zM_zlFrEd1QYDk02kE8w9Jgo_040]--></g></svg>