<?xml version="1.0" encoding="us-ascii" standalone="no"?><svg xmlns="http://www.w3.org/2000/svg" xmlns:xlink="http://www.w3.org/1999/xlink" contentStyleType="text/css" height="625.8px" preserveAspectRatio="none" style="width:1062px;height:625px;background:#FFFFFF;" version="1.1" viewBox="0 0 1062 625" width="1062px" zoomAndPan="magnify"><defs/><g><text fill="#000000" font-family="sans-serif" font-size="8.4" font-weight="bold" lengthAdjust="spacing" textLength="161.4" x="446.175" y="14.1211">UC12.2 - Add new Actuator to Device</text><!--cluster server--><g id="cluster_server"><path d="M10.05,26.093 L37.05,26.093 A2.25,2.25 0 0 1 38.55,27.593 L42.75,39.5859 L1056.45,39.5859 A1.5,1.5 0 0 1 1057.95,41.0859 L1057.95,620.195 A1.5,1.5 0 0 1 1056.45,621.695 L10.05,621.695 A1.5,1.5 0 0 1 8.55,620.195 L8.55,27.593 A1.5,1.5 0 0 1 10.05,26.093 " fill="#D3D3D3" style="stroke:#000000;stroke-width:0.8999999999999999;"/><line style="stroke:#000000;stroke-width:0.8999999999999999;" x1="8.55" x2="42.75" y1="39.5859" y2="39.5859"/><text fill="#000000" font-family="sans-serif" font-size="8.4" font-weight="bold" lengthAdjust="spacing" textLength="26.4" x="10.95" y="35.4141">server</text></g><!--class DeviceRepository--><g id="elem_DeviceRepository"><rect codeLine="7" fill="#F1F1F1" height="38.693" id="DeviceRepository" rx="1.5" ry="1.5" style="stroke:#181818;stroke-width:0.3;" width="229.2" x="729.15" y="86.663"/><ellipse cx="796.8" cy="96.263" fill="#B4A7E5" rx="6.6" ry="6.6" style="stroke:#181818;stroke-width:0.6;"/><path d="M794.3566,93.7221 L794.3566,92.4271 L798.7843,92.4271 L798.7843,93.7221 L797.3051,93.7221 L797.3051,98.568 L798.7843,98.568 L798.7843,99.863 L794.3566,99.863 L794.3566,98.568 L795.8358,98.568 L795.8358,93.7221 Z " fill="#000000"/><text fill="#000000" font-family="sans-serif" font-size="8.4" font-style="italic" lengthAdjust="spacing" textLength="70.2" x="809.1" y="99.4376">DeviceRepository</text><rect fill="#FFFFFF" height="9.6797" style="stroke:#181818;stroke-width:0.6;stroke-dasharray:2.0,2.0;" width="17.4" x="942.75" y="84.863"/><text fill="#000000" font-family="sans-serif" font-size="7.2" font-style="italic" lengthAdjust="spacing" textLength="16.2" x="943.35" y="92.4239">repo</text><line style="stroke:#181818;stroke-width:0.3;" x1="729.75" x2="957.75" y1="105.863" y2="105.863"/><line style="stroke:#181818;stroke-width:0.3;" x1="729.75" x2="957.75" y1="110.663" y2="110.663"/><ellipse cx="735.75" cy="118.9095" fill="#84BE84" rx="1.8" ry="1.8" style="stroke:#038048;stroke-width:0.6;"/><text fill="#000000" font-family="sans-serif" font-size="8.4" lengthAdjust="spacing" textLength="213.6" x="741.15" y="121.1841">findEntityByID(DeviceID deviceID): Optional&lt;Device&gt;</text></g><!--class AddNewActuatorToDeviceController--><g id="elem_AddNewActuatorToDeviceController"><rect codeLine="11" fill="#F1F1F1" height="58.4789" id="AddNewActuatorToDeviceController" rx="1.5" ry="1.5" style="stroke:#181818;stroke-width:0.3;" width="190.2" x="94.05" y="76.769"/><ellipse cx="113.04" cy="86.369" fill="#ADD1B2" rx="6.6" ry="6.6" style="stroke:#181818;stroke-width:0.6;"/><path d="M114.8239,89.7548 Q114.4753,89.9341 114.0918,90.0238 Q113.7083,90.1134 113.2849,90.1134 Q111.7808,90.1134 110.9889,89.1223 Q110.197,88.1312 110.197,86.2585 Q110.197,84.3809 110.9889,83.3898 Q111.7808,82.3987 113.2849,82.3987 Q113.7083,82.3987 114.0967,82.4883 Q114.4852,82.578 114.8239,82.7572 L114.8239,84.3908 Q114.4454,84.0422 114.0893,83.8803 Q113.7332,83.7185 113.3546,83.7185 Q112.5478,83.7185 112.1369,84.3585 Q111.726,84.9985 111.726,86.2585 Q111.726,87.5136 112.1369,88.1536 Q112.5478,88.7936 113.3546,88.7936 Q113.7332,88.7936 114.0893,88.6317 Q114.4454,88.4698 114.8239,88.1212 Z " fill="#000000"/><text fill="#000000" font-family="sans-serif" font-size="8.4" lengthAdjust="spacing" textLength="148.8" x="123.66" y="89.5436">AddNewActuatorToDeviceController</text><line style="stroke:#181818;stroke-width:0.3;" x1="94.65" x2="283.65" y1="95.969" y2="95.969"/><rect fill="none" height="3.6" style="stroke:#C82930;stroke-width:0.6;" width="3.6" x="98.85" y="102.4155"/><text fill="#000000" font-family="sans-serif" font-size="8.4" lengthAdjust="spacing" textLength="132" x="106.05" y="106.4901">actuatorService: ActuatorService</text><line style="stroke:#181818;stroke-width:0.3;" x1="94.65" x2="283.65" y1="110.6619" y2="110.6619"/><ellipse cx="100.65" cy="123.8549" fill="#84BE84" rx="1.8" ry="1.8" style="stroke:#038048;stroke-width:0.6;"/><text fill="#000000" font-family="sans-serif" font-size="8.4" lengthAdjust="spacing" textLength="150.6" x="106.05" y="121.183">createActuatorAndSaveToRepository</text><text fill="#000000" font-family="sans-serif" font-size="8.4" lengthAdjust="spacing" textLength="172.2" x="108.45" y="131.076">(ActuatorDTO actuatorDTO): ActuatorDTO</text></g><!--class ActuatorDTO--><g id="elem_ActuatorDTO"><rect codeLine="16" fill="#F1F1F1" height="107.9438" id="ActuatorDTO" rx="1.5" ry="1.5" style="stroke:#181818;stroke-width:0.3;" width="155.4" x="62.25" y="200.927"/><ellipse cx="110.7" cy="210.527" fill="#ADD1B2" rx="6.6" ry="6.6" style="stroke:#181818;stroke-width:0.6;"/><path d="M112.4839,213.9128 Q112.1353,214.0921 111.7518,214.1818 Q111.3683,214.2714 110.9449,214.2714 Q109.4408,214.2714 108.6489,213.2803 Q107.857,212.2892 107.857,210.4165 Q107.857,208.5389 108.6489,207.5478 Q109.4408,206.5567 110.9449,206.5567 Q111.3683,206.5567 111.7567,206.6463 Q112.1452,206.736 112.4839,206.9153 L112.4839,208.5488 Q112.1054,208.2002 111.7493,208.0383 Q111.3932,207.8765 111.0146,207.8765 Q110.2078,207.8765 109.7969,208.5165 Q109.386,209.1565 109.386,210.4165 Q109.386,211.6716 109.7969,212.3116 Q110.2078,212.9516 111.0146,212.9516 Q111.3932,212.9516 111.7493,212.7897 Q112.1054,212.6278 112.4839,212.2792 Z " fill="#000000"/><text fill="#000000" font-family="sans-serif" font-size="8.4" lengthAdjust="spacing" textLength="53.4" x="123" y="213.7016">ActuatorDTO</text><line style="stroke:#181818;stroke-width:0.3;" x1="62.85" x2="217.05" y1="220.127" y2="220.127"/><ellipse cx="68.85" cy="228.3735" fill="none" rx="1.8" ry="1.8" style="stroke:#038048;stroke-width:0.6;"/><text fill="#000000" font-family="sans-serif" font-size="8.4" lengthAdjust="spacing" textLength="87" x="74.25" y="230.6481">actuatorName: String</text><ellipse cx="68.85" cy="238.2664" fill="none" rx="1.8" ry="1.8" style="stroke:#038048;stroke-width:0.6;"/><text fill="#000000" font-family="sans-serif" font-size="8.4" lengthAdjust="spacing" textLength="139.8" x="74.25" y="240.541">actuatorFunctionalityName: String</text><ellipse cx="68.85" cy="248.1594" fill="none" rx="1.8" ry="1.8" style="stroke:#038048;stroke-width:0.6;"/><text fill="#000000" font-family="sans-serif" font-size="8.4" lengthAdjust="spacing" textLength="78.6" x="74.25" y="250.434">deviceName: String</text><ellipse cx="68.85" cy="258.0524" fill="none" rx="1.8" ry="1.8" style="stroke:#038048;stroke-width:0.6;"/><text fill="#000000" font-family="sans-serif" font-size="8.4" lengthAdjust="spacing" textLength="70.8" x="74.25" y="260.327">upperLimitInt: int</text><ellipse cx="68.85" cy="267.9453" fill="none" rx="1.8" ry="1.8" style="stroke:#038048;stroke-width:0.6;"/><text fill="#000000" font-family="sans-serif" font-size="8.4" lengthAdjust="spacing" textLength="69" x="74.25" y="270.2199">lowerLimitInt: int</text><ellipse cx="68.85" cy="277.8383" fill="none" rx="1.8" ry="1.8" style="stroke:#038048;stroke-width:0.6;"/><text fill="#000000" font-family="sans-serif" font-size="8.4" lengthAdjust="spacing" textLength="110.4" x="74.25" y="280.1129">upperLimitDecimal: double</text><ellipse cx="68.85" cy="287.7313" fill="none" rx="1.8" ry="1.8" style="stroke:#038048;stroke-width:0.6;"/><text fill="#000000" font-family="sans-serif" font-size="8.4" lengthAdjust="spacing" textLength="108.6" x="74.25" y="290.0059">lowerLimitDecimal: double</text><ellipse cx="68.85" cy="297.6242" fill="none" rx="1.8" ry="1.8" style="stroke:#038048;stroke-width:0.6;"/><text fill="#000000" font-family="sans-serif" font-size="8.4" lengthAdjust="spacing" textLength="53.4" x="74.25" y="299.8988">precision: int</text><line style="stroke:#181818;stroke-width:0.3;" x1="62.85" x2="217.05" y1="304.0707" y2="304.0707"/></g><!--class AssemblerActuatorProperties--><g id="elem_AssemblerActuatorProperties"><rect codeLine="27" fill="#F1F1F1" height="48.5859" id="AssemblerActuatorProperties" rx="1.5" ry="1.5" style="stroke:#181818;stroke-width:0.3;" width="312" x="181.95" y="354.767"/><ellipse cx="275.1" cy="364.367" fill="#ADD1B2" rx="6.6" ry="6.6" style="stroke:#181818;stroke-width:0.6;"/><path d="M276.8839,367.7528 Q276.5353,367.9321 276.1518,368.0218 Q275.7683,368.1114 275.3449,368.1114 Q273.8408,368.1114 273.0489,367.1203 Q272.257,366.1292 272.257,364.2565 Q272.257,362.3789 273.0489,361.3878 Q273.8408,360.3967 275.3449,360.3967 Q275.7683,360.3967 276.1567,360.4863 Q276.5452,360.576 276.8839,360.7553 L276.8839,362.3888 Q276.5054,362.0402 276.1493,361.8783 Q275.7932,361.7165 275.4146,361.7165 Q274.6078,361.7165 274.1969,362.3565 Q273.786,362.9965 273.786,364.2565 Q273.786,365.5116 274.1969,366.1516 Q274.6078,366.7916 275.4146,366.7916 Q275.7932,366.7916 276.1493,366.6297 Q276.5054,366.4678 276.8839,366.1192 Z " fill="#000000"/><text fill="#000000" font-family="sans-serif" font-size="8.4" lengthAdjust="spacing" textLength="120.6" x="287.4" y="367.5416">AssemblerActuatorProperties</text><line style="stroke:#181818;stroke-width:0.3;" x1="182.55" x2="493.35" y1="373.967" y2="373.967"/><line style="stroke:#181818;stroke-width:0.3;" x1="182.55" x2="493.35" y1="378.767" y2="378.767"/><ellipse cx="188.55" cy="391.9599" fill="#84BE84" rx="1.8" ry="1.8" style="stroke:#038048;stroke-width:0.6;"/><text fill="#000000" font-family="sans-serif" font-size="8.4" lengthAdjust="spacing" textLength="294" x="193.95" y="389.2881">createActuatorPropertiesFromActuatorDTO(ActuatorDTO actuatorDTO):</text><text fill="#000000" font-family="sans-serif" font-size="8.4" lengthAdjust="spacing" textLength="77.4" x="196.35" y="399.181">ActuatorProperties</text></g><!--class ActuatorService--><g id="elem_ActuatorService"><rect codeLine="31" fill="#F1F1F1" height="117.8367" id="ActuatorService" rx="1.5" ry="1.5" style="stroke:#181818;stroke-width:0.3;" width="283.2" x="424.95" y="47.093"/><ellipse cx="531.9" cy="56.693" fill="#ADD1B2" rx="6.6" ry="6.6" style="stroke:#181818;stroke-width:0.6;"/><path d="M533.6839,60.0788 Q533.3353,60.2581 532.9518,60.3478 Q532.5683,60.4374 532.1449,60.4374 Q530.6408,60.4374 529.8489,59.4463 Q529.057,58.4552 529.057,56.5825 Q529.057,54.7049 529.8489,53.7138 Q530.6408,52.7227 532.1449,52.7227 Q532.5683,52.7227 532.9567,52.8123 Q533.3452,52.902 533.6839,53.0813 L533.6839,54.7148 Q533.3054,54.3662 532.9493,54.2043 Q532.5932,54.0425 532.2146,54.0425 Q531.4078,54.0425 530.9969,54.6825 Q530.586,55.3225 530.586,56.5825 Q530.586,57.8376 530.9969,58.4776 Q531.4078,59.1176 532.2146,59.1176 Q532.5932,59.1176 532.9493,58.9557 Q533.3054,58.7938 533.6839,58.4452 Z " fill="#000000"/><text fill="#000000" font-family="sans-serif" font-size="8.4" lengthAdjust="spacing" textLength="64.2" x="544.2" y="59.8676">ActuatorService</text><line style="stroke:#181818;stroke-width:0.3;" x1="425.55" x2="707.55" y1="66.293" y2="66.293"/><rect fill="none" height="3.6" style="stroke:#C82930;stroke-width:0.6;" width="3.6" x="429.75" y="72.7395"/><text fill="#000000" font-family="sans-serif" font-size="8.4" lengthAdjust="spacing" textLength="133.8" x="436.95" y="76.8141">factoryActuator: FactoryActuator</text><rect fill="none" height="3.6" style="stroke:#C82930;stroke-width:0.6;" width="3.6" x="429.75" y="82.6324"/><text fill="#000000" font-family="sans-serif" font-size="8.4" lengthAdjust="spacing" textLength="162" x="436.95" y="86.707">actuatorRepository: ActuatorRepository</text><rect fill="none" height="3.6" style="stroke:#C82930;stroke-width:0.6;" width="3.6" x="429.75" y="92.5254"/><text fill="#000000" font-family="sans-serif" font-size="8.4" lengthAdjust="spacing" textLength="121.8" x="436.95" y="96.6">deviceRepository: DeviceRepo</text><rect fill="none" height="3.6" style="stroke:#C82930;stroke-width:0.6;" width="3.6" x="429.75" y="102.4184"/><text fill="#000000" font-family="sans-serif" font-size="8.4" lengthAdjust="spacing" textLength="267.6" x="436.95" y="106.493">actuatorFunctionalityRepository: ActuatorFunctionalityRepository</text><line style="stroke:#181818;stroke-width:0.3;" x1="425.55" x2="707.55" y1="110.6648" y2="110.6648"/><ellipse cx="431.55" cy="138.6973" fill="#84BE84" rx="1.8" ry="1.8" style="stroke:#038048;stroke-width:0.6;"/><text fill="#000000" font-family="sans-serif" font-size="8.4" lengthAdjust="spacing" textLength="96" x="436.95" y="121.1859">createActuatorAndSave</text><text fill="#000000" font-family="sans-serif" font-size="8.4" lengthAdjust="spacing" textLength="199.8" x="436.95" y="131.0789">(ActuatorFunctionalityID actuatorFunctionalityID,</text><text fill="#000000" font-family="sans-serif" font-size="8.4" lengthAdjust="spacing" textLength="91.2" x="439.35" y="140.9719">ActuatorID actuatorID,</text><text fill="#000000" font-family="sans-serif" font-size="8.4" lengthAdjust="spacing" textLength="158.4" x="439.35" y="150.8648">ActuatorProperties actuatorProperties,</text><text fill="#000000" font-family="sans-serif" font-size="8.4" lengthAdjust="spacing" textLength="123" x="439.35" y="160.7578">DeviceID deviceID): ActuatorID</text></g><!--class FactoryActuator--><g id="elem_FactoryActuator"><rect codeLine="39" fill="#F1F1F1" height="58.4789" id="FactoryActuator" rx="1.5" ry="1.5" style="stroke:#181818;stroke-width:0.3;" width="278.4" x="769.95" y="225.659"/><ellipse cx="861" cy="235.259" fill="#ADD1B2" rx="6.6" ry="6.6" style="stroke:#181818;stroke-width:0.6;"/><path d="M862.7839,238.6448 Q862.4353,238.8241 862.0518,238.9138 Q861.6683,239.0034 861.2449,239.0034 Q859.7408,239.0034 858.9489,238.0123 Q858.157,237.0212 858.157,235.1485 Q858.157,233.2709 858.9489,232.2798 Q859.7408,231.2887 861.2449,231.2887 Q861.6683,231.2887 862.0567,231.3783 Q862.4452,231.468 862.7839,231.6472 L862.7839,233.2808 Q862.4054,232.9322 862.0493,232.7703 Q861.6932,232.6085 861.3146,232.6085 Q860.5078,232.6085 860.0969,233.2485 Q859.686,233.8885 859.686,235.1485 Q859.686,236.4036 860.0969,237.0436 Q860.5078,237.6836 861.3146,237.6836 Q861.6932,237.6836 862.0493,237.5217 Q862.4054,237.3598 862.7839,237.0112 Z " fill="#000000"/><text fill="#000000" font-family="sans-serif" font-size="8.4" lengthAdjust="spacing" textLength="65.4" x="873.3" y="238.4336">FactoryActuator</text><rect fill="#FFFFFF" height="9.6797" style="stroke:#181818;stroke-width:0.6;stroke-dasharray:2.0,2.0;" width="24.6" x="1025.55" y="223.859"/><text fill="#000000" font-family="sans-serif" font-size="7.2" font-style="italic" lengthAdjust="spacing" textLength="23.4" x="1026.15" y="231.4199">factory</text><line style="stroke:#181818;stroke-width:0.3;" x1="770.55" x2="1047.75" y1="244.859" y2="244.859"/><line style="stroke:#181818;stroke-width:0.3;" x1="770.55" x2="1047.75" y1="249.659" y2="249.659"/><ellipse cx="776.55" cy="267.7984" fill="#84BE84" rx="1.8" ry="1.8" style="stroke:#038048;stroke-width:0.6;"/><text fill="#000000" font-family="sans-serif" font-size="8.4" lengthAdjust="spacing" textLength="260.4" x="781.95" y="260.1801">createActuator(ActuatorFunctionalityID actuatorFunctionalityID,</text><text fill="#000000" font-family="sans-serif" font-size="8.4" lengthAdjust="spacing" textLength="252" x="784.35" y="270.073">ActuatorID actuatorID, ActuatorProperties actuatorProperties,</text><text fill="#000000" font-family="sans-serif" font-size="8.4" lengthAdjust="spacing" textLength="202.2" x="784.35" y="279.966">DeviceID deviceID, String actuatorClass): Actuator</text></g><!--class Actuator--><g id="elem_Actuator"><rect codeLine="43" fill="#F1F1F1" height="68.3719" id="Actuator" rx="1.5" ry="1.5" style="stroke:#181818;stroke-width:0.3;" width="212.4" x="537.15" y="344.873"/><ellipse cx="615" cy="354.473" fill="#A9DCDF" rx="6.6" ry="6.6" style="stroke:#181818;stroke-width:0.6;"/><path d="M615.068,351.6819 L614.3757,354.7249 L615.7652,354.7249 Z M614.1715,350.3371 L615.9694,350.3371 L617.9766,357.773 L616.5073,357.773 L616.0491,355.9352 L614.0818,355.9352 L613.6336,357.773 L612.1644,357.773 Z " fill="#000000"/><text fill="#000000" font-family="sans-serif" font-size="8.4" font-style="italic" lengthAdjust="spacing" textLength="35.4" x="627.3" y="357.6476">Actuator</text><rect fill="#FFFFFF" height="9.6797" style="stroke:#181818;stroke-width:0.6;stroke-dasharray:2.0,2.0;" width="15" x="736.35" y="343.073"/><text fill="#000000" font-family="sans-serif" font-size="7.2" font-style="italic" lengthAdjust="spacing" textLength="13.8" x="736.95" y="350.6339">root</text><line style="stroke:#181818;stroke-width:0.3;" x1="537.75" x2="748.95" y1="364.073" y2="364.073"/><rect fill="none" height="3.6" style="stroke:#C82930;stroke-width:0.6;" width="3.6" x="541.95" y="370.5195"/><text fill="#000000" font-family="sans-serif" font-size="8.4" lengthAdjust="spacing" textLength="106.2" x="549.15" y="374.5941">actuatorName: ActuatorID</text><rect fill="none" height="3.6" style="stroke:#C82930;stroke-width:0.6;" width="3.6" x="541.95" y="380.4124"/><text fill="#000000" font-family="sans-serif" font-size="8.4" lengthAdjust="spacing" textLength="196.8" x="549.15" y="384.487">actuatorFunctionalityID: ActuatorFunctionalityID</text><rect fill="none" height="3.6" style="stroke:#C82930;stroke-width:0.6;" width="3.6" x="541.95" y="390.3054"/><text fill="#000000" font-family="sans-serif" font-size="8.4" lengthAdjust="spacing" textLength="158.4" x="549.15" y="394.38">actuatorProperties: ActuatorProperties</text><rect fill="none" height="3.6" style="stroke:#C82930;stroke-width:0.6;" width="3.6" x="541.95" y="400.1984"/><text fill="#000000" font-family="sans-serif" font-size="8.4" lengthAdjust="spacing" textLength="88.8" x="549.15" y="404.273">deviceName: DeviceID</text><line style="stroke:#181818;stroke-width:0.3;" x1="537.75" x2="748.95" y1="408.4448" y2="408.4448"/></g><!--class ActuatorRepository--><g id="elem_ActuatorRepository"><rect codeLine="50" fill="#F1F1F1" height="48.5859" id="ActuatorRepository" rx="1.5" ry="1.5" style="stroke:#181818;stroke-width:0.3;" width="223.8" x="524.85" y="230.609"/><ellipse cx="585.3" cy="240.209" fill="#B4A7E5" rx="6.6" ry="6.6" style="stroke:#181818;stroke-width:0.6;"/><path d="M582.8566,237.6681 L582.8566,236.3731 L587.2843,236.3731 L587.2843,237.6681 L585.8051,237.6681 L585.8051,242.514 L587.2843,242.514 L587.2843,243.809 L582.8566,243.809 L582.8566,242.514 L584.3358,242.514 L584.3358,237.6681 Z " fill="#000000"/><text fill="#000000" font-family="sans-serif" font-size="8.4" font-style="italic" lengthAdjust="spacing" textLength="79.2" x="597.6" y="243.3836">ActuatorRepository</text><rect fill="#FFFFFF" height="9.6797" style="stroke:#181818;stroke-width:0.6;stroke-dasharray:2.0,2.0;" width="17.4" x="733.05" y="228.809"/><text fill="#000000" font-family="sans-serif" font-size="7.2" font-style="italic" lengthAdjust="spacing" textLength="16.2" x="733.65" y="236.3699">repo</text><line style="stroke:#181818;stroke-width:0.3;" x1="525.45" x2="748.05" y1="249.809" y2="249.809"/><line style="stroke:#181818;stroke-width:0.3;" x1="525.45" x2="748.05" y1="254.609" y2="254.609"/><ellipse cx="531.45" cy="262.8555" fill="#84BE84" rx="1.8" ry="1.8" style="stroke:#038048;stroke-width:0.6;"/><text fill="#000000" font-family="sans-serif" font-size="8.4" lengthAdjust="spacing" textLength="208.2" x="536.85" y="265.1301">containsEntityByID(ActuatorID actuatorID): boolean</text><ellipse cx="531.45" cy="272.7484" fill="#84BE84" rx="1.8" ry="1.8" style="stroke:#038048;stroke-width:0.6;"/><text fill="#000000" font-family="sans-serif" font-size="8.4" lengthAdjust="spacing" textLength="136.2" x="536.85" y="275.023">save(Actuator actuator): Actuator</text></g><!--class ActuatorFunctionalityRepository--><g id="elem_ActuatorFunctionalityRepository"><rect codeLine="55" fill="#F1F1F1" height="58.4789" id="ActuatorFunctionalityRepository" rx="1.5" ry="1.5" style="stroke:#181818;stroke-width:0.3;" width="220.8" x="282.75" y="225.659"/><ellipse cx="315.3" cy="235.259" fill="#B4A7E5" rx="6.6" ry="6.6" style="stroke:#181818;stroke-width:0.6;"/><path d="M312.8566,232.7181 L312.8566,231.4231 L317.2843,231.4231 L317.2843,232.7181 L315.8051,232.7181 L315.8051,237.564 L317.2843,237.564 L317.2843,238.859 L312.8566,238.859 L312.8566,237.564 L314.3358,237.564 L314.3358,232.7181 Z " fill="#000000"/><text fill="#000000" font-family="sans-serif" font-size="8.4" font-style="italic" lengthAdjust="spacing" textLength="132" x="327.6" y="238.4336">ActuatorFunctionalityRepository</text><rect fill="#FFFFFF" height="9.6797" style="stroke:#181818;stroke-width:0.6;stroke-dasharray:2.0,2.0;" width="17.4" x="487.95" y="223.859"/><text fill="#000000" font-family="sans-serif" font-size="7.2" font-style="italic" lengthAdjust="spacing" textLength="16.2" x="488.55" y="231.4199">repo</text><line style="stroke:#181818;stroke-width:0.3;" x1="283.35" x2="502.95" y1="244.859" y2="244.859"/><line style="stroke:#181818;stroke-width:0.3;" x1="283.35" x2="502.95" y1="249.659" y2="249.659"/><ellipse cx="289.35" cy="267.7984" fill="#84BE84" rx="1.8" ry="1.8" style="stroke:#038048;stroke-width:0.6;"/><text fill="#000000" font-family="sans-serif" font-size="8.4" lengthAdjust="spacing" textLength="168.6" x="294.75" y="260.1801">getClassNameForActuatorFunctionalityID</text><text fill="#000000" font-family="sans-serif" font-size="8.4" lengthAdjust="spacing" textLength="202.8" x="294.75" y="270.073">(ActuatorFunctionalityID actuatorFunctionalityID):</text><text fill="#000000" font-family="sans-serif" font-size="8.4" lengthAdjust="spacing" textLength="46.8" x="294.75" y="279.966">String class</text></g><!--class ActuatorID--><g id="elem_ActuatorID"><rect codeLine="59" fill="#F1F1F1" height="38.693" id="ActuatorID" rx="1.5" ry="1.5" style="stroke:#181818;stroke-width:0.3;" width="90" x="480.75" y="464.081"/><ellipse cx="496.23" cy="473.681" fill="#ADD1B2" rx="6.6" ry="6.6" style="stroke:#181818;stroke-width:0.6;"/><path d="M498.0139,477.0668 Q497.6653,477.2461 497.2818,477.3358 Q496.8983,477.4254 496.4749,477.4254 Q494.9708,477.4254 494.1789,476.4343 Q493.387,475.4432 493.387,473.5705 Q493.387,471.6929 494.1789,470.7018 Q494.9708,469.7107 496.4749,469.7107 Q496.8983,469.7107 497.2867,469.8003 Q497.6752,469.89 498.0139,470.0692 L498.0139,471.7028 Q497.6354,471.3542 497.2793,471.1923 Q496.9232,471.0305 496.5446,471.0305 Q495.7378,471.0305 495.3269,471.6705 Q494.916,472.3105 494.916,473.5705 Q494.916,474.8256 495.3269,475.4656 Q495.7378,476.1056 496.5446,476.1056 Q496.9232,476.1056 497.2793,475.9437 Q497.6354,475.7818 498.0139,475.4332 Z " fill="#000000"/><text fill="#000000" font-family="sans-serif" font-size="8.4" lengthAdjust="spacing" textLength="43.8" x="506.07" y="476.8556">ActuatorID</text><rect fill="#FFFFFF" height="9.6797" style="stroke:#181818;stroke-width:0.6;stroke-dasharray:2.0,2.0;" width="11.4" x="561.15" y="462.281"/><text fill="#000000" font-family="sans-serif" font-size="7.2" font-style="italic" lengthAdjust="spacing" textLength="10.2" x="561.75" y="469.8419">VO</text><line style="stroke:#181818;stroke-width:0.3;" x1="481.35" x2="570.15" y1="483.281" y2="483.281"/><rect fill="none" height="3.6" style="stroke:#C82930;stroke-width:0.6;" width="3.6" x="485.55" y="489.7275"/><text fill="#000000" font-family="sans-serif" font-size="8.4" lengthAdjust="spacing" textLength="74.4" x="492.75" y="493.8021">actuatorID : String</text><line style="stroke:#181818;stroke-width:0.3;" x1="481.35" x2="570.15" y1="497.9739" y2="497.9739"/></g><!--class DeviceID--><g id="elem_DeviceID"><rect codeLine="63" fill="#F1F1F1" height="38.693" id="DeviceID" rx="1.5" ry="1.5" style="stroke:#181818;stroke-width:0.3;" width="81.6" x="666.15" y="464.081"/><ellipse cx="681.9" cy="473.681" fill="#ADD1B2" rx="6.6" ry="6.6" style="stroke:#181818;stroke-width:0.6;"/><path d="M683.6839,477.0668 Q683.3353,477.2461 682.9518,477.3358 Q682.5683,477.4254 682.1449,477.4254 Q680.6408,477.4254 679.8489,476.4343 Q679.057,475.4432 679.057,473.5705 Q679.057,471.6929 679.8489,470.7018 Q680.6408,469.7107 682.1449,469.7107 Q682.5683,469.7107 682.9567,469.8003 Q683.3452,469.89 683.6839,470.0692 L683.6839,471.7028 Q683.3054,471.3542 682.9493,471.1923 Q682.5932,471.0305 682.2146,471.0305 Q681.4078,471.0305 680.9969,471.6705 Q680.586,472.3105 680.586,473.5705 Q680.586,474.8256 680.9969,475.4656 Q681.4078,476.1056 682.2146,476.1056 Q682.5932,476.1056 682.9493,475.9437 Q683.3054,475.7818 683.6839,475.4332 Z " fill="#000000"/><text fill="#000000" font-family="sans-serif" font-size="8.4" lengthAdjust="spacing" textLength="34.8" x="691.8" y="476.8556">DeviceID</text><rect fill="#FFFFFF" height="9.6797" style="stroke:#181818;stroke-width:0.6;stroke-dasharray:2.0,2.0;" width="11.4" x="738.15" y="462.281"/><text fill="#000000" font-family="sans-serif" font-size="7.2" font-style="italic" lengthAdjust="spacing" textLength="10.2" x="738.75" y="469.8419">VO</text><line style="stroke:#181818;stroke-width:0.3;" x1="666.75" x2="747.15" y1="483.281" y2="483.281"/><rect fill="none" height="3.6" style="stroke:#C82930;stroke-width:0.6;" width="3.6" x="670.95" y="489.7275"/><text fill="#000000" font-family="sans-serif" font-size="8.4" lengthAdjust="spacing" textLength="66" x="678.15" y="493.8021">deviceID : String</text><line style="stroke:#181818;stroke-width:0.3;" x1="666.75" x2="747.15" y1="497.9739" y2="497.9739"/></g><!--class ActuatorFunctionalityID--><g id="elem_ActuatorFunctionalityID"><rect codeLine="67" fill="#F1F1F1" height="38.693" id="ActuatorFunctionalityID" rx="1.5" ry="1.5" style="stroke:#181818;stroke-width:0.3;" width="142.8" x="18.15" y="359.711"/><ellipse cx="33.63" cy="369.311" fill="#ADD1B2" rx="6.6" ry="6.6" style="stroke:#181818;stroke-width:0.6;"/><path d="M35.4139,372.6968 Q35.0653,372.8761 34.6818,372.9658 Q34.2983,373.0554 33.8749,373.0554 Q32.3708,373.0554 31.5789,372.0643 Q30.787,371.0732 30.787,369.2005 Q30.787,367.3229 31.5789,366.3318 Q32.3708,365.3407 33.8749,365.3407 Q34.2983,365.3407 34.6867,365.4303 Q35.0752,365.52 35.4139,365.6992 L35.4139,367.3328 Q35.0354,366.9842 34.6793,366.8223 Q34.3232,366.6605 33.9446,366.6605 Q33.1378,366.6605 32.7269,367.3005 Q32.316,367.9405 32.316,369.2005 Q32.316,370.4556 32.7269,371.0956 Q33.1378,371.7356 33.9446,371.7356 Q34.3232,371.7356 34.6793,371.5737 Q35.0354,371.4118 35.4139,371.0632 Z " fill="#000000"/><text fill="#000000" font-family="sans-serif" font-size="8.4" lengthAdjust="spacing" textLength="96.6" x="43.47" y="372.4856">ActuatorFunctionalityID</text><rect fill="#FFFFFF" height="9.6797" style="stroke:#181818;stroke-width:0.6;stroke-dasharray:2.0,2.0;" width="11.4" x="151.35" y="357.911"/><text fill="#000000" font-family="sans-serif" font-size="7.2" font-style="italic" lengthAdjust="spacing" textLength="10.2" x="151.95" y="365.4719">VO</text><line style="stroke:#181818;stroke-width:0.3;" x1="18.75" x2="160.35" y1="378.911" y2="378.911"/><rect fill="none" height="3.6" style="stroke:#C82930;stroke-width:0.6;" width="3.6" x="22.95" y="385.3575"/><text fill="#000000" font-family="sans-serif" font-size="8.4" lengthAdjust="spacing" textLength="127.2" x="30.15" y="389.4321">actuatorFunctionalityID : String</text><line style="stroke:#181818;stroke-width:0.3;" x1="18.75" x2="160.35" y1="393.6039" y2="393.6039"/></g><!--class ActuatorProperties--><g id="elem_ActuatorProperties"><rect codeLine="71" fill="#F1F1F1" height="68.3719" id="ActuatorProperties" rx="1.5" ry="1.5" style="stroke:#181818;stroke-width:0.3;" width="156" x="281.55" y="449.243"/><ellipse cx="312" cy="458.843" fill="#ADD1B2" rx="6.6" ry="6.6" style="stroke:#181818;stroke-width:0.6;"/><path d="M313.7839,462.2288 Q313.4353,462.4081 313.0518,462.4978 Q312.6683,462.5874 312.2449,462.5874 Q310.7408,462.5874 309.9489,461.5963 Q309.157,460.6052 309.157,458.7325 Q309.157,456.8549 309.9489,455.8638 Q310.7408,454.8727 312.2449,454.8727 Q312.6683,454.8727 313.0567,454.9623 Q313.4452,455.052 313.7839,455.2312 L313.7839,456.8648 Q313.4054,456.5162 313.0493,456.3543 Q312.6932,456.1925 312.3146,456.1925 Q311.5078,456.1925 311.0969,456.8325 Q310.686,457.4725 310.686,458.7325 Q310.686,459.9876 311.0969,460.6276 Q311.5078,461.2676 312.3146,461.2676 Q312.6932,461.2676 313.0493,461.1057 Q313.4054,460.9438 313.7839,460.5952 Z " fill="#000000"/><text fill="#000000" font-family="sans-serif" font-size="8.4" lengthAdjust="spacing" textLength="77.4" x="324.3" y="462.0176">ActuatorProperties</text><rect fill="#FFFFFF" height="9.6797" style="stroke:#181818;stroke-width:0.6;stroke-dasharray:2.0,2.0;" width="11.4" x="427.95" y="447.443"/><text fill="#000000" font-family="sans-serif" font-size="7.2" font-style="italic" lengthAdjust="spacing" textLength="10.2" x="428.55" y="455.0039">VO</text><line style="stroke:#181818;stroke-width:0.3;" x1="282.15" x2="436.95" y1="468.443" y2="468.443"/><rect fill="none" height="3.6" style="stroke:#C82930;stroke-width:0.6;" width="3.6" x="286.35" y="474.8895"/><text fill="#000000" font-family="sans-serif" font-size="8.4" lengthAdjust="spacing" textLength="76.2" x="293.55" y="478.9641">rangeInt: RangeInt</text><rect fill="none" height="3.6" style="stroke:#C82930;stroke-width:0.6;" width="3.6" x="286.35" y="484.7824"/><text fill="#000000" font-family="sans-serif" font-size="8.4" lengthAdjust="spacing" textLength="119.4" x="293.55" y="488.857">rangeDecimal: RangeDecimal</text><line style="stroke:#181818;stroke-width:0.3;" x1="282.15" x2="436.95" y1="493.0289" y2="493.0289"/><ellipse cx="288.15" cy="501.2754" fill="#84BE84" rx="1.8" ry="1.8" style="stroke:#038048;stroke-width:0.6;"/><text fill="#000000" font-family="sans-serif" font-size="8.4" lengthAdjust="spacing" textLength="97.2" x="293.55" y="503.55">getRangeInt(): RangeInt</text><ellipse cx="288.15" cy="511.1684" fill="#84BE84" rx="1.8" ry="1.8" style="stroke:#038048;stroke-width:0.6;"/><text fill="#000000" font-family="sans-serif" font-size="8.4" lengthAdjust="spacing" textLength="140.4" x="293.55" y="513.443">getRangeDecimal(): RangeDecimal</text></g><!--class RangeInt--><g id="elem_RangeInt"><rect codeLine="78" fill="#F1F1F1" height="48.5859" id="RangeInt" rx="1.5" ry="1.5" style="stroke:#181818;stroke-width:0.3;" width="86.4" x="252.75" y="558.563"/><ellipse cx="269.85" cy="568.163" fill="#ADD1B2" rx="6.6" ry="6.6" style="stroke:#181818;stroke-width:0.6;"/><path d="M271.6339,571.5488 Q271.2853,571.7281 270.9018,571.8178 Q270.5183,571.9074 270.0949,571.9074 Q268.5908,571.9074 267.7989,570.9163 Q267.007,569.9252 267.007,568.0525 Q267.007,566.1749 267.7989,565.1838 Q268.5908,564.1927 270.0949,564.1927 Q270.5183,564.1927 270.9067,564.2823 Q271.2952,564.372 271.6339,564.5513 L271.6339,566.1848 Q271.2554,565.8362 270.8993,565.6743 Q270.5432,565.5125 270.1646,565.5125 Q269.3578,565.5125 268.9469,566.1525 Q268.536,566.7925 268.536,568.0525 Q268.536,569.3076 268.9469,569.9476 Q269.3578,570.5876 270.1646,570.5876 Q270.5432,570.5876 270.8993,570.4257 Q271.2554,570.2638 271.6339,569.9152 Z " fill="#000000"/><text fill="#000000" font-family="sans-serif" font-size="8.4" lengthAdjust="spacing" textLength="36.6" x="280.05" y="571.3376">RangeInt</text><rect fill="#FFFFFF" height="9.6797" style="stroke:#181818;stroke-width:0.6;stroke-dasharray:2.0,2.0;" width="11.4" x="329.55" y="556.763"/><text fill="#000000" font-family="sans-serif" font-size="7.2" font-style="italic" lengthAdjust="spacing" textLength="10.2" x="330.15" y="564.3239">VO</text><line style="stroke:#181818;stroke-width:0.3;" x1="253.35" x2="338.55" y1="577.763" y2="577.763"/><rect fill="none" height="3.6" style="stroke:#C82930;stroke-width:0.6;" width="3.6" x="257.55" y="584.2095"/><text fill="#000000" font-family="sans-serif" font-size="8.4" lengthAdjust="spacing" textLength="70.8" x="264.75" y="588.2841">upperLimitInt: int</text><rect fill="none" height="3.6" style="stroke:#C82930;stroke-width:0.6;" width="3.6" x="257.55" y="594.1024"/><text fill="#000000" font-family="sans-serif" font-size="8.4" lengthAdjust="spacing" textLength="69" x="264.75" y="598.177">lowerLimitInt: int</text><line style="stroke:#181818;stroke-width:0.3;" x1="253.35" x2="338.55" y1="602.3489" y2="602.3489"/></g><!--class RangeDecimal--><g id="elem_RangeDecimal"><rect codeLine="83" fill="#F1F1F1" height="58.4789" id="RangeDecimal" rx="1.5" ry="1.5" style="stroke:#181818;stroke-width:0.3;" width="126" x="360.15" y="553.619"/><ellipse cx="385.35" cy="563.219" fill="#ADD1B2" rx="6.6" ry="6.6" style="stroke:#181818;stroke-width:0.6;"/><path d="M387.1339,566.6048 Q386.7853,566.7841 386.4018,566.8738 Q386.0183,566.9634 385.5949,566.9634 Q384.0908,566.9634 383.2989,565.9723 Q382.507,564.9812 382.507,563.1085 Q382.507,561.2309 383.2989,560.2398 Q384.0908,559.2487 385.5949,559.2487 Q386.0183,559.2487 386.4067,559.3383 Q386.7952,559.428 387.1339,559.6072 L387.1339,561.2408 Q386.7554,560.8922 386.3993,560.7303 Q386.0432,560.5685 385.6646,560.5685 Q384.8578,560.5685 384.4469,561.2085 Q384.036,561.8485 384.036,563.1085 Q384.036,564.3636 384.4469,565.0036 Q384.8578,565.6436 385.6646,565.6436 Q386.0432,565.6436 386.3993,565.4817 Q386.7554,565.3198 387.1339,564.9712 Z " fill="#000000"/><text fill="#000000" font-family="sans-serif" font-size="8.4" lengthAdjust="spacing" textLength="58.2" x="397.35" y="566.3936">RangeDecimal</text><rect fill="#FFFFFF" height="9.6797" style="stroke:#181818;stroke-width:0.6;stroke-dasharray:2.0,2.0;" width="11.4" x="476.55" y="551.819"/><text fill="#000000" font-family="sans-serif" font-size="7.2" font-style="italic" lengthAdjust="spacing" textLength="10.2" x="477.15" y="559.3799">VO</text><line style="stroke:#181818;stroke-width:0.3;" x1="360.75" x2="485.55" y1="572.819" y2="572.819"/><rect fill="none" height="3.6" style="stroke:#C82930;stroke-width:0.6;" width="3.6" x="364.95" y="579.2655"/><text fill="#000000" font-family="sans-serif" font-size="8.4" lengthAdjust="spacing" textLength="110.4" x="372.15" y="583.3401">upperLimitDecimal: double</text><rect fill="none" height="3.6" style="stroke:#C82930;stroke-width:0.6;" width="3.6" x="364.95" y="589.1584"/><text fill="#000000" font-family="sans-serif" font-size="8.4" lengthAdjust="spacing" textLength="108.6" x="372.15" y="593.233">lowerLimitDecimal: double</text><rect fill="none" height="3.6" style="stroke:#C82930;stroke-width:0.6;" width="3.6" x="364.95" y="599.0514"/><text fill="#000000" font-family="sans-serif" font-size="8.4" lengthAdjust="spacing" textLength="53.4" x="372.15" y="603.126">precision: int</text><line style="stroke:#181818;stroke-width:0.3;" x1="360.75" x2="485.55" y1="607.2979" y2="607.2979"/></g><!--link AddNewActuatorToDeviceController to ActuatorID--><g id="link_AddNewActuatorToDeviceController_ActuatorID"><path codeLine="89" d="M250.2,135.449 C250.2,189.047 250.2,297.095 250.2,297.095 C250.2,297.095 498.75,297.095 498.75,297.095 C498.75,297.095 498.75,412.403 498.75,460.241 " fill="none" id="AddNewActuatorToDeviceController-to-ActuatorID" style="stroke:#181818;stroke-width:0.6;stroke-dasharray:7.0,7.0;"/><polygon fill="#181818" points="498.75,463.841,501.15,458.441,498.75,460.841,496.35,458.441,498.75,463.841" style="stroke:#181818;stroke-width:0.6;"/><text fill="#000000" font-family="sans-serif" font-size="7.8" lengthAdjust="spacing" textLength="35.4" x="341.022" y="295.036">&#171;creates&#187;</text></g><!--link AddNewActuatorToDeviceController to ActuatorFunctionalityID--><g id="link_AddNewActuatorToDeviceController_ActuatorFunctionalityID"><path codeLine="90" d="M93.762,106.295 C64.662,106.295 40.2,106.295 40.2,106.295 C40.2,106.295 40.2,293.297 40.2,355.841 " fill="none" id="AddNewActuatorToDeviceController-to-ActuatorFunctionalityID" style="stroke:#181818;stroke-width:0.6;stroke-dasharray:7.0,7.0;"/><polygon fill="#181818" points="40.2,359.441,42.6,354.041,40.2,356.441,37.8,354.041,40.2,359.441" style="stroke:#181818;stroke-width:0.6;"/><text fill="#000000" font-family="sans-serif" font-size="7.8" lengthAdjust="spacing" textLength="35.4" x="4.2" y="204.028">&#171;creates&#187;</text></g><!--link AddNewActuatorToDeviceController to DeviceID--><g id="link_AddNewActuatorToDeviceController_DeviceID"><path codeLine="91" d="M266.478,135.437 C266.478,167.321 266.478,213.695 266.478,213.695 C266.478,213.695 759.75,213.695 759.75,213.695 C759.75,213.695 759.75,483.695 759.75,483.695 C759.75,483.695 758.448,483.695 751.632,483.695 " fill="none" id="AddNewActuatorToDeviceController-to-DeviceID" style="stroke:#181818;stroke-width:0.6;stroke-dasharray:7.0,7.0;"/><polygon fill="#181818" points="748.032,483.695,753.432,486.095,751.032,483.695,753.432,481.295,748.032,483.695" style="stroke:#181818;stroke-width:0.6;"/><text fill="#000000" font-family="sans-serif" font-size="7.8" lengthAdjust="spacing" textLength="35.4" x="578.844" y="211.636">&#171;creates&#187;</text></g><!--link AddNewActuatorToDeviceController to ActuatorDTO--><g id="link_AddNewActuatorToDeviceController_ActuatorDTO"><path codeLine="92" d="M155.85,135.425 C155.85,154.031 155.85,175.037 155.85,197.087 " fill="none" id="AddNewActuatorToDeviceController-to-ActuatorDTO" style="stroke:#181818;stroke-width:0.6;stroke-dasharray:7.0,7.0;"/><polygon fill="#181818" points="155.85,200.687,158.25,195.287,155.85,197.687,153.45,195.287,155.85,200.687" style="stroke:#181818;stroke-width:0.6;"/><text fill="#000000" font-family="sans-serif" font-size="7.8" lengthAdjust="spacing" textLength="57" x="98.25" y="166">&#171;uses/creates&#187;</text></g><!--link AddNewActuatorToDeviceController to AssemblerActuatorProperties--><g id="link_AddNewActuatorToDeviceController_AssemblerActuatorProperties"><path codeLine="94" d="M233.922,135.491 C233.922,189.683 233.922,300.587 233.922,350.885 " fill="none" id="AddNewActuatorToDeviceController-to-AssemblerActuatorProperties" style="stroke:#181818;stroke-width:0.6;stroke-dasharray:7.0,7.0;"/><polygon fill="#181818" points="233.922,354.485,236.322,349.085,233.922,351.485,231.522,349.085,233.922,354.485" style="stroke:#181818;stroke-width:0.6;"/><text fill="#000000" font-family="sans-serif" font-size="7.8" lengthAdjust="spacing" textLength="25.8" x="234.522" y="242.926">&#171;uses&#187;</text></g><!--link AddNewActuatorToDeviceController to ActuatorService--><g id="link_AddNewActuatorToDeviceController_ActuatorService"><path codeLine="95" d="M284.382,106.295 C326.91,106.295 377.91,106.295 424.782,106.295 " fill="none" id="AddNewActuatorToDeviceController-ActuatorService" style="stroke:#181818;stroke-width:0.6;"/></g><!--link AssemblerActuatorProperties to ActuatorProperties--><g id="link_AssemblerActuatorProperties_ActuatorProperties"><path codeLine="97" d="M359.55,403.529 C359.55,417.083 359.55,430.559 359.55,445.439 " fill="none" id="AssemblerActuatorProperties-to-ActuatorProperties" style="stroke:#181818;stroke-width:0.6;stroke-dasharray:7.0,7.0;"/><polygon fill="#181818" points="359.55,449.039,361.95,443.639,359.55,446.039,357.15,443.639,359.55,449.039" style="stroke:#181818;stroke-width:0.6;"/><text fill="#000000" font-family="sans-serif" font-size="7.8" lengthAdjust="spacing" textLength="35.4" x="323.55" y="424.222">&#171;creates&#187;</text></g><!--link ActuatorService to FactoryActuator--><g id="link_ActuatorService_FactoryActuator"><path codeLine="99" d="M647.052,165.197 C647.052,196.571 647.052,228.695 647.052,228.695 C647.052,228.695 707.064,228.695 769.656,228.695 " fill="none" id="ActuatorService-FactoryActuator" style="stroke:#181818;stroke-width:0.6;"/></g><!--link ActuatorService to ActuatorRepository--><g id="link_ActuatorService_ActuatorRepository"><path codeLine="100" d="M585.948,165.071 C585.948,187.883 585.948,212.717 585.948,230.477 " fill="none" id="ActuatorService-ActuatorRepository" style="stroke:#181818;stroke-width:0.6;"/></g><!--link ActuatorService to DeviceRepository--><g id="link_ActuatorService_DeviceRepository"><path codeLine="101" d="M708.396,106.295 C715.26,106.295 722.106,106.295 728.88,106.295 " fill="none" id="ActuatorService-DeviceRepository" style="stroke:#181818;stroke-width:0.6;"/></g><!--link ActuatorService to ActuatorFunctionalityRepository--><g id="link_ActuatorService_ActuatorFunctionalityRepository"><path codeLine="102" d="M464.25,165.071 C464.25,185.771 464.25,208.139 464.25,225.371 " fill="none" id="ActuatorService-ActuatorFunctionalityRepository" style="stroke:#181818;stroke-width:0.6;"/></g><!--link FactoryActuator to Actuator--><g id="link_FactoryActuator_Actuator"><path codeLine="104" d="M769.788,282.095 C705.366,282.095 642.9,282.095 642.9,282.095 C642.9,282.095 642.9,313.127 642.9,340.997 " fill="none" id="FactoryActuator-to-Actuator" style="stroke:#181818;stroke-width:0.6;stroke-dasharray:7.0,7.0;"/><polygon fill="#181818" points="642.9,344.597,645.3,339.197,642.9,341.597,640.5,339.197,642.9,344.597" style="stroke:#181818;stroke-width:0.6;"/><text fill="#000000" font-family="sans-serif" font-size="7.8" lengthAdjust="spacing" textLength="35.4" x="639.09" y="290.236">&#171;creates&#187;</text></g><!--link Actuator to ActuatorID--><g id="link_Actuator_ActuatorID"><path codeLine="106" d="M559.548,413.525 C559.548,430.265 559.548,449.771 559.548,463.919 " fill="none" id="Actuator-ActuatorID" style="stroke:#181818;stroke-width:0.6;"/></g><!--link Actuator to ActuatorFunctionalityID--><g id="link_Actuator_ActuatorFunctionalityID"><path codeLine="107" d="M536.862,349.895 C381.66,349.895 111.6,349.895 111.6,349.895 C111.6,349.895 111.6,354.167 111.6,359.447 " fill="none" id="Actuator-ActuatorFunctionalityID" style="stroke:#181818;stroke-width:0.6;"/></g><!--link Actuator to DeviceID--><g id="link_Actuator_DeviceID"><path codeLine="108" d="M706.95,413.525 C706.95,430.265 706.95,449.771 706.95,463.919 " fill="none" id="Actuator-DeviceID" style="stroke:#181818;stroke-width:0.6;"/></g><!--link ActuatorProperties to RangeInt--><g id="link_ActuatorProperties_RangeInt"><path codeLine="110" d="M310.35,517.649 C310.35,531.017 310.35,542.447 310.35,554.705 " fill="none" id="ActuatorProperties-to-RangeInt" style="stroke:#181818;stroke-width:0.6;"/><polygon fill="#181818" points="310.35,558.305,312.75,552.905,310.35,555.305,307.95,552.905,310.35,558.305" style="stroke:#181818;stroke-width:0.6;"/></g><!--link ActuatorProperties to RangeDecimal--><g id="link_ActuatorProperties_RangeDecimal"><path codeLine="111" d="M398.85,517.649 C398.85,529.277 398.85,538.559 398.85,549.785 " fill="none" id="ActuatorProperties-to-RangeDecimal" style="stroke:#181818;stroke-width:0.6;"/><polygon fill="#181818" points="398.85,553.385,401.25,547.985,398.85,550.385,396.45,547.985,398.85,553.385" style="stroke:#181818;stroke-width:0.6;"/></g><!--link Actuator to ActuatorProperties--><g id="link_Actuator_ActuatorProperties"><path codeLine="113" d="M548.352,413.339 C548.352,434.135 548.352,456.695 548.352,456.695 C548.352,456.695 489.648,456.695 437.706,456.695 " fill="none" id="Actuator-ActuatorProperties" style="stroke:#181818;stroke-width:0.6;"/></g><!--SRC=[hLPDJzmm4BtxLrZgPL5hgdACLf4eswsG45H0U-h596QnoDgHxGMjKFzx9nj_9NPI4DrJTlpcvSs7Pw8VkMYfeblSSC7ClcLOAlCW4JBSD0p_FFjoSdo22JwjQopOCpwjp8uQgR2HUCMUUCKGQcdrI3SCQwQUcC8VBlZcmNnNT8zV4EB2C7LFAsRXrwoLcWF37YyLF9Sl2CFlupqNzJS1Rzr_tP-l5ZtuV8Lh-t1KuAlMS2bei-mFI_G7eQgXMdVgBjcpqtOhUy2P54R9fW5D_Ki8jOWRK0g0meTZ3RsKIZ5gc3iw5VKDVMAtCYZ_BV327Qzkhp0DpqU14_v52YEuZTXvNT8jABanYelDy6Iz4rKVCgGbXVMfIUsxjcNgWc-vEHUcm521tjx8vwmzu5UiublQ5BYMkxk6ZTsonwq2gmQLFID4Z6t8MhCjm9IB_OUIy2B3cROf6ASw0DPARgEKpMGRQf6w0tkIULjYrmhGabqftMc1rqF3i652xKDzWwt7rgF-BgAE7x8DwfgZdW3Cj2VaOP7rXYj4y_PFSUuYsEWagXfDJ0Taxgu6td07HXd6Iri3DmA6WVtFSDuHooTxjRp3MHTB564N7xtJHW403riE9foK1i8ZmxiU9OTCH3FH2x57K5xahW29nuCBgnCR9dBQoSEPNC40fLpeQ2vd4mpPk9EoOLJqVXeQqYCzRfIpLCP4rmyrRPWvLA2BQotLL9Ey_JeSPecjzQ6CwV06v-MlgtAqJC3gvwztyNqKERYMoi2dj4RUKxfdsA9sZuWK5Hjss03NzYco-n5_7VtpcNSEYwEHip-q7XxW6BmsvnOhcbXO9BEmXZoM7UV9SkkAp6ypacwpVtvR71-NKOSKUBdi1vakoxSv9oFWpKokwzuX0hPgvxtJJ7yE5A_acDxuZlCrSaZoMORclYLYzSCNnlf7Nm6490i_0yci-WILVDVE4KqjTZJUZN5G4w74l33PWtboTSIUVYEWJ4e9ASFzdZjtrpjGTzovTVGN]--></g></svg>