<?xml version="1.0" encoding="us-ascii" standalone="no"?><svg xmlns="http://www.w3.org/2000/svg" xmlns:xlink="http://www.w3.org/1999/xlink" contentStyleType="text/css" height="854px" preserveAspectRatio="none" style="width:1046px;height:854px;background:#FFFFFF;" version="1.1" viewBox="0 0 1046 854" width="1046px" zoomAndPan="magnify"><defs/><g><text fill="#000000" font-family="sans-serif" font-size="14" font-weight="bold" lengthAdjust="spacing" textLength="696" x="166.25" y="25.1074">UC34: As a Room Owner [or Power User, or Administrator], I want to get the maximum instantaneous</text><text fill="#000000" font-family="sans-serif" font-size="14" font-weight="bold" lengthAdjust="spacing" textLength="622" x="207.25" y="43.7285">temperature difference between a device in the room and the outside, in a given period.</text><!--class MaxTempDifOutsideInsideController--><g id="elem_MaxTempDifOutsideInsideController"><rect codeLine="5" fill="#F1F1F1" height="103.8633" id="MaxTempDifOutsideInsideController" rx="2.5" ry="2.5" style="stroke:#181818;stroke-width:0.5;" width="473" x="539" y="65.2422"/><ellipse cx="658.25" cy="81.2422" fill="#ADD1B2" rx="11" ry="11" style="stroke:#181818;stroke-width:1.0;"/><path d="M661.0156,77.1172 Q661.1719,76.8984 661.3594,76.7891 Q661.5469,76.6797 661.7656,76.6797 Q662.1406,76.6797 662.375,76.9453 Q662.6094,77.1953 662.6094,77.8047 L662.6094,79.2578 Q662.6094,79.8672 662.375,80.1328 Q662.1406,80.3984 661.7656,80.3984 Q661.4219,80.3984 661.2188,80.1953 Q661.0156,80.0078 660.9063,79.4922 Q660.8594,79.1328 660.6719,78.9453 Q660.3438,78.5703 659.7344,78.3516 Q659.125,78.1328 658.5,78.1328 Q657.7344,78.1328 657.0938,78.4609 Q656.4688,78.7891 655.9688,79.5391 Q655.4844,80.2891 655.4844,81.3203 L655.4844,82.4141 Q655.4844,83.6484 656.375,84.4766 Q657.2656,85.2891 658.8594,85.2891 Q659.7969,85.2891 660.4531,85.0391 Q660.8438,84.8828 661.2656,84.4453 Q661.5313,84.1797 661.6719,84.1016 Q661.8281,84.0234 662.0313,84.0234 Q662.3594,84.0234 662.6094,84.2891 Q662.875,84.5391 662.875,84.8828 Q662.875,85.2266 662.5313,85.6328 Q662.0313,86.2109 661.2344,86.5391 Q660.1563,86.9922 658.8594,86.9922 Q657.3438,86.9922 656.1406,86.3672 Q655.1563,85.8672 654.4688,84.8047 Q653.7813,83.7266 653.7813,82.4453 L653.7813,81.2891 Q653.7813,79.9609 654.3906,78.8203 Q655.0156,77.6641 656.1094,77.0547 Q657.2031,76.4297 658.4375,76.4297 Q659.1719,76.4297 659.8125,76.6016 Q660.4688,76.7578 661.0156,77.1172 Z " fill="#000000"/><text fill="#000000" font-family="sans-serif" font-size="14" lengthAdjust="spacing" textLength="226" x="678.75" y="87.0391">MaxTempDifOutsideInsideController</text><line style="stroke:#181818;stroke-width:0.5;" x1="540" x2="1011" y1="97.2422" y2="97.2422"/><rect fill="none" height="6" style="stroke:#C82930;stroke-width:1.0;" width="6" x="547" y="109.0527"/><text fill="#000000" font-family="sans-serif" font-size="14" lengthAdjust="spacing" textLength="430" x="559" y="116.3496">maxTempDifOutsideInsideService: MaxTempDifOutsideInsideService</text><line style="stroke:#181818;stroke-width:0.5;" x1="540" x2="1011" y1="123.8633" y2="123.8633"/><ellipse cx="550" cy="147.9844" fill="#84BE84" rx="3" ry="3" style="stroke:#038048;stroke-width:1.0;"/><text fill="#000000" font-family="sans-serif" font-size="14" lengthAdjust="spacing" textLength="443" x="559" y="142.9707">maxTempDifOutsideInside(SensorDTO insideSensorDTO, SensorDTO</text><text fill="#000000" font-family="sans-serif" font-size="14" lengthAdjust="spacing" textLength="374" x="563" y="161.5918">outsideSensorID, Timestamp start, Timestamp end): double</text></g><!--class MaxTempDifOutsideInsideService--><g id="elem_MaxTempDifOutsideInsideService"><rect codeLine="10" fill="#F1F1F1" height="196.9688" id="MaxTempDifOutsideInsideService" rx="2.5" ry="2.5" style="stroke:#181818;stroke-width:0.5;" width="394" x="271.5" y="229.2422"/><ellipse cx="358.75" cy="245.2422" fill="#ADD1B2" rx="11" ry="11" style="stroke:#181818;stroke-width:1.0;"/><path d="M361.5156,241.1172 Q361.6719,240.8984 361.8594,240.7891 Q362.0469,240.6797 362.2656,240.6797 Q362.6406,240.6797 362.875,240.9453 Q363.1094,241.1953 363.1094,241.8047 L363.1094,243.2578 Q363.1094,243.8672 362.875,244.1328 Q362.6406,244.3984 362.2656,244.3984 Q361.9219,244.3984 361.7188,244.1953 Q361.5156,244.0078 361.4063,243.4922 Q361.3594,243.1328 361.1719,242.9453 Q360.8438,242.5703 360.2344,242.3516 Q359.625,242.1328 359,242.1328 Q358.2344,242.1328 357.5938,242.4609 Q356.9688,242.7891 356.4688,243.5391 Q355.9844,244.2891 355.9844,245.3203 L355.9844,246.4141 Q355.9844,247.6484 356.875,248.4766 Q357.7656,249.2891 359.3594,249.2891 Q360.2969,249.2891 360.9531,249.0391 Q361.3438,248.8828 361.7656,248.4453 Q362.0313,248.1797 362.1719,248.1016 Q362.3281,248.0234 362.5313,248.0234 Q362.8594,248.0234 363.1094,248.2891 Q363.375,248.5391 363.375,248.8828 Q363.375,249.2266 363.0313,249.6328 Q362.5313,250.2109 361.7344,250.5391 Q360.6563,250.9922 359.3594,250.9922 Q357.8438,250.9922 356.6406,250.3672 Q355.6563,249.8672 354.9688,248.8047 Q354.2813,247.7266 354.2813,246.4453 L354.2813,245.2891 Q354.2813,243.9609 354.8906,242.8203 Q355.5156,241.6641 356.6094,241.0547 Q357.7031,240.4297 358.9375,240.4297 Q359.6719,240.4297 360.3125,240.6016 Q360.9688,240.7578 361.5156,241.1172 Z " fill="#000000"/><text fill="#000000" font-family="sans-serif" font-size="14" lengthAdjust="spacing" textLength="211" x="379.25" y="251.0391">MaxTempDifOutsideInsideService</text><line style="stroke:#181818;stroke-width:0.5;" x1="272.5" x2="664.5" y1="261.2422" y2="261.2422"/><rect fill="none" height="6" style="stroke:#C82930;stroke-width:1.0;" width="6" x="279.5" y="273.0527"/><text fill="#000000" font-family="sans-serif" font-size="14" lengthAdjust="spacing" textLength="287" x="291.5" y="280.3496">valueRepository: InstantTimeValueRepository</text><rect fill="none" height="6" style="stroke:#C82930;stroke-width:1.0;" width="6" x="279.5" y="291.6738"/><text fill="#000000" font-family="sans-serif" font-size="14" lengthAdjust="spacing" textLength="187" x="291.5" y="298.9707">configScraper: ConfigScraper</text><rect fill="none" height="6" style="stroke:#C82930;stroke-width:1.0;" width="6" x="279.5" y="310.2949"/><text fill="#000000" font-family="sans-serif" font-size="14" lengthAdjust="spacing" textLength="368" x="291.5" y="317.5918">CONFIG_PROPERTIES = "config/config.properties": String</text><line style="stroke:#181818;stroke-width:0.5;" x1="272.5" x2="664.5" y1="325.1055" y2="325.1055"/><ellipse cx="282.5" cy="358.5371" fill="#84BE84" rx="3" ry="3" style="stroke:#038048;stroke-width:1.0;"/><text fill="#000000" font-family="sans-serif" font-size="14" lengthAdjust="spacing" textLength="358" x="291.5" y="344.2129">getMaxTemperatureDifference(SensorID insideSensorID,</text><text fill="#000000" font-family="sans-serif" font-size="14" lengthAdjust="spacing" textLength="310" x="295.5" y="362.834">SensorID outsideSensorID, Timestamp startTime,</text><text fill="#000000" font-family="sans-serif" font-size="14" lengthAdjust="spacing" textLength="188" x="295.5" y="381.4551">Timestamp  endTime): double</text><rect fill="#F24D5C" height="6" style="stroke:#C82930;stroke-width:1.0;" width="6" x="279.5" y="402.0898"/><text fill="#000000" font-family="sans-serif" font-size="14" lengthAdjust="spacing" textLength="353" x="291.5" y="400.0762">findClosestTemperature(List&lt;InstantTimeValue&gt; values,</text><text fill="#000000" font-family="sans-serif" font-size="14" lengthAdjust="spacing" textLength="151" x="295.5" y="418.6973">long timestamp): double</text></g><!--class SensorDTO--><g id="elem_SensorDTO"><rect codeLine="18" fill="#F1F1F1" height="66.6211" id="SensorDTO" rx="2.5" ry="2.5" style="stroke:#181818;stroke-width:0.5;" width="150" x="700.5" y="294.2422"/><ellipse cx="734.85" cy="310.2422" fill="#ADD1B2" rx="11" ry="11" style="stroke:#181818;stroke-width:1.0;"/><path d="M737.6156,306.1172 Q737.7719,305.8984 737.9594,305.7891 Q738.1469,305.6797 738.3656,305.6797 Q738.7406,305.6797 738.975,305.9453 Q739.2094,306.1953 739.2094,306.8047 L739.2094,308.2578 Q739.2094,308.8672 738.975,309.1328 Q738.7406,309.3984 738.3656,309.3984 Q738.0219,309.3984 737.8188,309.1953 Q737.6156,309.0078 737.5063,308.4922 Q737.4594,308.1328 737.2719,307.9453 Q736.9438,307.5703 736.3344,307.3516 Q735.725,307.1328 735.1,307.1328 Q734.3344,307.1328 733.6938,307.4609 Q733.0688,307.7891 732.5688,308.5391 Q732.0844,309.2891 732.0844,310.3203 L732.0844,311.4141 Q732.0844,312.6484 732.975,313.4766 Q733.8656,314.2891 735.4594,314.2891 Q736.3969,314.2891 737.0531,314.0391 Q737.4438,313.8828 737.8656,313.4453 Q738.1313,313.1797 738.2719,313.1016 Q738.4281,313.0234 738.6313,313.0234 Q738.9594,313.0234 739.2094,313.2891 Q739.475,313.5391 739.475,313.8828 Q739.475,314.2266 739.1313,314.6328 Q738.6313,315.2109 737.8344,315.5391 Q736.7563,315.9922 735.4594,315.9922 Q733.9438,315.9922 732.7406,315.3672 Q731.7563,314.8672 731.0688,313.8047 Q730.3813,312.7266 730.3813,311.4453 L730.3813,310.2891 Q730.3813,308.9609 730.9906,307.8203 Q731.6156,306.6641 732.7094,306.0547 Q733.8031,305.4297 735.0375,305.4297 Q735.7719,305.4297 736.4125,305.6016 Q737.0688,305.7578 737.6156,306.1172 Z " fill="#000000"/><text fill="#000000" font-family="sans-serif" font-size="14" lengthAdjust="spacing" textLength="75" x="753.15" y="316.0391">SensorDTO</text><line style="stroke:#181818;stroke-width:0.5;" x1="701.5" x2="849.5" y1="326.2422" y2="326.2422"/><ellipse cx="711.5" cy="341.0527" fill="none" rx="3" ry="3" style="stroke:#038048;stroke-width:1.0;"/><text fill="#000000" font-family="sans-serif" font-size="14" lengthAdjust="spacing" textLength="124" x="720.5" y="345.3496">sensorName: String</text><line style="stroke:#181818;stroke-width:0.5;" x1="701.5" x2="849.5" y1="352.8633" y2="352.8633"/></g><!--class SensorID--><g id="elem_SensorID"><rect codeLine="22" fill="#F1F1F1" height="66.6211" id="SensorID" rx="2.5" ry="2.5" style="stroke:#181818;stroke-width:0.5;" width="150" x="885.5" y="294.2422"/><ellipse cx="918.05" cy="310.2422" fill="#ADD1B2" rx="11" ry="11" style="stroke:#181818;stroke-width:1.0;"/><path d="M920.8156,306.1172 Q920.9719,305.8984 921.1594,305.7891 Q921.3469,305.6797 921.5656,305.6797 Q921.9406,305.6797 922.175,305.9453 Q922.4094,306.1953 922.4094,306.8047 L922.4094,308.2578 Q922.4094,308.8672 922.175,309.1328 Q921.9406,309.3984 921.5656,309.3984 Q921.2219,309.3984 921.0188,309.1953 Q920.8156,309.0078 920.7063,308.4922 Q920.6594,308.1328 920.4719,307.9453 Q920.1438,307.5703 919.5344,307.3516 Q918.925,307.1328 918.3,307.1328 Q917.5344,307.1328 916.8938,307.4609 Q916.2688,307.7891 915.7688,308.5391 Q915.2844,309.2891 915.2844,310.3203 L915.2844,311.4141 Q915.2844,312.6484 916.175,313.4766 Q917.0656,314.2891 918.6594,314.2891 Q919.5969,314.2891 920.2531,314.0391 Q920.6438,313.8828 921.0656,313.4453 Q921.3313,313.1797 921.4719,313.1016 Q921.6281,313.0234 921.8313,313.0234 Q922.1594,313.0234 922.4094,313.2891 Q922.675,313.5391 922.675,313.8828 Q922.675,314.2266 922.3313,314.6328 Q921.8313,315.2109 921.0344,315.5391 Q919.9563,315.9922 918.6594,315.9922 Q917.1438,315.9922 915.9406,315.3672 Q914.9563,314.8672 914.2688,313.8047 Q913.5813,312.7266 913.5813,311.4453 L913.5813,310.2891 Q913.5813,308.9609 914.1906,307.8203 Q914.8156,306.6641 915.9094,306.0547 Q917.0031,305.4297 918.2375,305.4297 Q918.9719,305.4297 919.6125,305.6016 Q920.2688,305.7578 920.8156,306.1172 Z " fill="#000000"/><text fill="#000000" font-family="sans-serif" font-size="14" lengthAdjust="spacing" textLength="58" x="935.95" y="316.0391">SensorID</text><rect fill="#FFFFFF" height="17.9609" style="stroke:#181818;stroke-width:1.0;stroke-dasharray:2.0,2.0;" width="19" x="1019.5" y="291.2422"/><text fill="#000000" font-family="sans-serif" font-size="12" font-style="italic" lengthAdjust="spacing" textLength="17" x="1020.5" y="305.1914">VO</text><line style="stroke:#181818;stroke-width:0.5;" x1="886.5" x2="1034.5" y1="326.2422" y2="326.2422"/><rect fill="none" height="6" style="stroke:#C82930;stroke-width:1.0;" width="6" x="893.5" y="338.0527"/><text fill="#000000" font-family="sans-serif" font-size="14" lengthAdjust="spacing" textLength="124" x="905.5" y="345.3496">sensorName: String</text><line style="stroke:#181818;stroke-width:0.5;" x1="886.5" x2="1034.5" y1="352.8633" y2="352.8633"/></g><!--class InstantTimeValueRepository--><g id="elem_InstantTimeValueRepository"><rect codeLine="26" fill="#F1F1F1" height="85.2422" id="InstantTimeValueRepository" rx="2.5" ry="2.5" style="stroke:#181818;stroke-width:0.5;" width="335" x="7" y="523.7422"/><ellipse cx="81.25" cy="539.7422" fill="#B4A7E5" rx="11" ry="11" style="stroke:#181818;stroke-width:1.0;"/><path d="M82.2031,536.3828 L82.2031,543.0391 L83.9219,543.0391 Q84.5313,543.0391 84.7969,543.2734 Q85.0625,543.5078 85.0625,543.8984 Q85.0625,544.2734 84.7969,544.5078 Q84.5313,544.7422 83.9219,544.7422 L78.7813,544.7422 Q78.1719,544.7422 77.9063,544.5078 Q77.6406,544.2734 77.6406,543.8828 Q77.6406,543.5078 77.9063,543.2734 Q78.1719,543.0391 78.7813,543.0391 L80.5,543.0391 L80.5,536.3828 L78.7813,536.3828 Q78.1719,536.3828 77.9063,536.1484 Q77.6406,535.9141 77.6406,535.5234 Q77.6406,535.1484 77.9063,534.9141 Q78.1719,534.6797 78.7813,534.6797 L83.9219,534.6797 Q84.5313,534.6797 84.7969,534.9141 Q85.0625,535.1484 85.0625,535.5234 Q85.0625,535.9141 84.7969,536.1484 Q84.5313,536.3828 83.9219,536.3828 L82.2031,536.3828 Z " fill="#000000"/><text fill="#000000" font-family="sans-serif" font-size="14" font-style="italic" lengthAdjust="spacing" textLength="178" x="101.75" y="545.5391">InstantTimeValueRepository</text><line style="stroke:#181818;stroke-width:0.5;" x1="8" x2="341" y1="555.7422" y2="555.7422"/><line style="stroke:#181818;stroke-width:0.5;" x1="8" x2="341" y1="563.7422" y2="563.7422"/><ellipse cx="18" cy="578.5527" fill="#84BE84" rx="3" ry="3" style="stroke:#038048;stroke-width:1.0;"/><text fill="#000000" font-family="sans-serif" font-size="14" lengthAdjust="spacing" textLength="309" x="27" y="582.8496">findBySensorId (SensorID sensorID): List&lt;Value&gt;</text><ellipse cx="18" cy="597.1738" fill="#84BE84" rx="3" ry="3" style="stroke:#038048;stroke-width:1.0;"/><text fill="#000000" font-family="sans-serif" font-size="14" lengthAdjust="spacing" textLength="201" x="27" y="601.4707">findAllEntities(): Iterable&lt;Value&gt;</text></g><!--class ValueRepository--><g id="elem_ValueRepository"><rect fill="#F1F1F1" height="48" id="ValueRepository" rx="2.5" ry="2.5" style="stroke:#181818;stroke-width:0.5;" width="136" x="100.5" y="303.7422"/><ellipse cx="115.5" cy="319.7422" fill="#B4A7E5" rx="11" ry="11" style="stroke:#181818;stroke-width:1.0;"/><path d="M116.4531,316.3828 L116.4531,323.0391 L118.1719,323.0391 Q118.7813,323.0391 119.0469,323.2734 Q119.3125,323.5078 119.3125,323.8984 Q119.3125,324.2734 119.0469,324.5078 Q118.7813,324.7422 118.1719,324.7422 L113.0313,324.7422 Q112.4219,324.7422 112.1563,324.5078 Q111.8906,324.2734 111.8906,323.8828 Q111.8906,323.5078 112.1563,323.2734 Q112.4219,323.0391 113.0313,323.0391 L114.75,323.0391 L114.75,316.3828 L113.0313,316.3828 Q112.4219,316.3828 112.1563,316.1484 Q111.8906,315.9141 111.8906,315.5234 Q111.8906,315.1484 112.1563,314.9141 Q112.4219,314.6797 113.0313,314.6797 L118.1719,314.6797 Q118.7813,314.6797 119.0469,314.9141 Q119.3125,315.1484 119.3125,315.5234 Q119.3125,315.9141 119.0469,316.1484 Q118.7813,316.3828 118.1719,316.3828 L116.4531,316.3828 Z " fill="#000000"/><text fill="#000000" font-family="sans-serif" font-size="14" font-style="italic" lengthAdjust="spacing" textLength="104" x="129.5" y="325.5391">ValueRepository</text><line style="stroke:#181818;stroke-width:0.5;" x1="101.5" x2="235.5" y1="335.7422" y2="335.7422"/><line style="stroke:#181818;stroke-width:0.5;" x1="101.5" x2="235.5" y1="343.7422" y2="343.7422"/></g><!--class Value--><g id="elem_Value"><rect codeLine="31" fill="#F1F1F1" height="66.6211" id="Value" rx="2.5" ry="2.5" style="stroke:#181818;stroke-width:0.5;" width="170" x="380.5" y="532.7422"/><ellipse cx="443.25" cy="548.7422" fill="#B4A7E5" rx="11" ry="11" style="stroke:#181818;stroke-width:1.0;"/><path d="M444.2031,545.3828 L444.2031,552.0391 L445.9219,552.0391 Q446.5313,552.0391 446.7969,552.2734 Q447.0625,552.5078 447.0625,552.8984 Q447.0625,553.2734 446.7969,553.5078 Q446.5313,553.7422 445.9219,553.7422 L440.7813,553.7422 Q440.1719,553.7422 439.9063,553.5078 Q439.6406,553.2734 439.6406,552.8828 Q439.6406,552.5078 439.9063,552.2734 Q440.1719,552.0391 440.7813,552.0391 L442.5,552.0391 L442.5,545.3828 L440.7813,545.3828 Q440.1719,545.3828 439.9063,545.1484 Q439.6406,544.9141 439.6406,544.5234 Q439.6406,544.1484 439.9063,543.9141 Q440.1719,543.6797 440.7813,543.6797 L445.9219,543.6797 Q446.5313,543.6797 446.7969,543.9141 Q447.0625,544.1484 447.0625,544.5234 Q447.0625,544.9141 446.7969,545.1484 Q446.5313,545.3828 445.9219,545.3828 L444.2031,545.3828 Z " fill="#000000"/><text fill="#000000" font-family="sans-serif" font-size="14" font-style="italic" lengthAdjust="spacing" textLength="36" x="463.75" y="554.5391">Value</text><line style="stroke:#181818;stroke-width:0.5;" x1="381.5" x2="549.5" y1="564.7422" y2="564.7422"/><line style="stroke:#181818;stroke-width:0.5;" x1="381.5" x2="549.5" y1="572.7422" y2="572.7422"/><ellipse cx="391.5" cy="587.5527" fill="#84BE84" rx="3" ry="3" style="stroke:#038048;stroke-width:1.0;"/><text fill="#000000" font-family="sans-serif" font-size="14" lengthAdjust="spacing" textLength="144" x="400.5" y="591.8496">getReading(): Reading</text></g><!--class InstantTimeValue--><g id="elem_InstantTimeValue"><rect codeLine="35" fill="#F1F1F1" height="141.1055" id="InstantTimeValue" rx="2.5" ry="2.5" style="stroke:#181818;stroke-width:0.5;" width="259" x="336" y="706.2422"/><ellipse cx="406.75" cy="722.2422" fill="#ADD1B2" rx="11" ry="11" style="stroke:#181818;stroke-width:1.0;"/><path d="M409.5156,718.1172 Q409.6719,717.8984 409.8594,717.7891 Q410.0469,717.6797 410.2656,717.6797 Q410.6406,717.6797 410.875,717.9453 Q411.1094,718.1953 411.1094,718.8047 L411.1094,720.2578 Q411.1094,720.8672 410.875,721.1328 Q410.6406,721.3984 410.2656,721.3984 Q409.9219,721.3984 409.7188,721.1953 Q409.5156,721.0078 409.4063,720.4922 Q409.3594,720.1328 409.1719,719.9453 Q408.8438,719.5703 408.2344,719.3516 Q407.625,719.1328 407,719.1328 Q406.2344,719.1328 405.5938,719.4609 Q404.9688,719.7891 404.4688,720.5391 Q403.9844,721.2891 403.9844,722.3203 L403.9844,723.4141 Q403.9844,724.6484 404.875,725.4766 Q405.7656,726.2891 407.3594,726.2891 Q408.2969,726.2891 408.9531,726.0391 Q409.3438,725.8828 409.7656,725.4453 Q410.0313,725.1797 410.1719,725.1016 Q410.3281,725.0234 410.5313,725.0234 Q410.8594,725.0234 411.1094,725.2891 Q411.375,725.5391 411.375,725.8828 Q411.375,726.2266 411.0313,726.6328 Q410.5313,727.2109 409.7344,727.5391 Q408.6563,727.9922 407.3594,727.9922 Q405.8438,727.9922 404.6406,727.3672 Q403.6563,726.8672 402.9688,725.8047 Q402.2813,724.7266 402.2813,723.4453 L402.2813,722.2891 Q402.2813,720.9609 402.8906,719.8203 Q403.5156,718.6641 404.6094,718.0547 Q405.7031,717.4297 406.9375,717.4297 Q407.6719,717.4297 408.3125,717.6016 Q408.9688,717.7578 409.5156,718.1172 Z " fill="#000000"/><text fill="#000000" font-family="sans-serif" font-size="14" lengthAdjust="spacing" textLength="109" x="427.25" y="728.0391">InstantTimeValue</text><line style="stroke:#181818;stroke-width:0.5;" x1="337" x2="594" y1="738.2422" y2="738.2422"/><rect fill="none" height="6" style="stroke:#C82930;stroke-width:1.0;" width="6" x="344" y="750.0527"/><text fill="#000000" font-family="sans-serif" font-size="14" lengthAdjust="spacing" textLength="104" x="356" y="757.3496">valueID: ValueID</text><rect fill="none" height="6" style="stroke:#C82930;stroke-width:1.0;" width="6" x="344" y="768.6738"/><text fill="#000000" font-family="sans-serif" font-size="14" lengthAdjust="spacing" textLength="109" x="356" y="775.9707">reading: Reading</text><rect fill="none" height="6" style="stroke:#C82930;stroke-width:1.0;" width="6" x="344" y="787.2949"/><text fill="#000000" font-family="sans-serif" font-size="14" lengthAdjust="spacing" textLength="122" x="356" y="794.5918">sensorID: SensorID</text><rect fill="none" height="6" style="stroke:#C82930;stroke-width:1.0;" width="6" x="344" y="805.916"/><text fill="#000000" font-family="sans-serif" font-size="14" lengthAdjust="spacing" textLength="203" x="356" y="813.2129">instantTimeReading: Timestamp</text><line style="stroke:#181818;stroke-width:0.5;" x1="337" x2="594" y1="820.7266" y2="820.7266"/><ellipse cx="347" cy="835.5371" fill="#84BE84" rx="3" ry="3" style="stroke:#038048;stroke-width:1.0;"/><text fill="#000000" font-family="sans-serif" font-size="14" lengthAdjust="spacing" textLength="233" x="356" y="839.834">getInstantTimeReading(): Timestamp</text></g><!--class Reading--><g id="elem_Reading"><rect codeLine="43" fill="#F1F1F1" height="103.8633" id="Reading" rx="2.5" ry="2.5" style="stroke:#181818;stroke-width:0.5;" width="137" x="630" y="724.7422"/><ellipse cx="658.95" cy="740.7422" fill="#ADD1B2" rx="11" ry="11" style="stroke:#181818;stroke-width:1.0;"/><path d="M661.7156,736.6172 Q661.8719,736.3984 662.0594,736.2891 Q662.2469,736.1797 662.4656,736.1797 Q662.8406,736.1797 663.075,736.4453 Q663.3094,736.6953 663.3094,737.3047 L663.3094,738.7578 Q663.3094,739.3672 663.075,739.6328 Q662.8406,739.8984 662.4656,739.8984 Q662.1219,739.8984 661.9188,739.6953 Q661.7156,739.5078 661.6063,738.9922 Q661.5594,738.6328 661.3719,738.4453 Q661.0438,738.0703 660.4344,737.8516 Q659.825,737.6328 659.2,737.6328 Q658.4344,737.6328 657.7938,737.9609 Q657.1688,738.2891 656.6688,739.0391 Q656.1844,739.7891 656.1844,740.8203 L656.1844,741.9141 Q656.1844,743.1484 657.075,743.9766 Q657.9656,744.7891 659.5594,744.7891 Q660.4969,744.7891 661.1531,744.5391 Q661.5438,744.3828 661.9656,743.9453 Q662.2313,743.6797 662.3719,743.6016 Q662.5281,743.5234 662.7313,743.5234 Q663.0594,743.5234 663.3094,743.7891 Q663.575,744.0391 663.575,744.3828 Q663.575,744.7266 663.2313,745.1328 Q662.7313,745.7109 661.9344,746.0391 Q660.8563,746.4922 659.5594,746.4922 Q658.0438,746.4922 656.8406,745.8672 Q655.8563,745.3672 655.1688,744.3047 Q654.4813,743.2266 654.4813,741.9453 L654.4813,740.7891 Q654.4813,739.4609 655.0906,738.3203 Q655.7156,737.1641 656.8094,736.5547 Q657.9031,735.9297 659.1375,735.9297 Q659.8719,735.9297 660.5125,736.1016 Q661.1688,736.2578 661.7156,736.6172 Z " fill="#000000"/><text fill="#000000" font-family="sans-serif" font-size="14" lengthAdjust="spacing" textLength="53" x="676.05" y="746.5391">Reading</text><rect fill="#FFFFFF" height="17.9609" style="stroke:#181818;stroke-width:1.0;stroke-dasharray:2.0,2.0;" width="19" x="751" y="721.7422"/><text fill="#000000" font-family="sans-serif" font-size="12" font-style="italic" lengthAdjust="spacing" textLength="17" x="752" y="735.6914">VO</text><line style="stroke:#181818;stroke-width:0.5;" x1="631" x2="766" y1="756.7422" y2="756.7422"/><rect fill="none" height="6" style="stroke:#C82930;stroke-width:1.0;" width="6" x="638" y="768.5527"/><text fill="#000000" font-family="sans-serif" font-size="14" lengthAdjust="spacing" textLength="79" x="650" y="775.8496">value: String</text><rect fill="none" height="6" style="stroke:#C82930;stroke-width:1.0;" width="6" x="638" y="787.1738"/><text fill="#000000" font-family="sans-serif" font-size="14" lengthAdjust="spacing" textLength="68" x="650" y="794.4707">unit: String</text><line style="stroke:#181818;stroke-width:0.5;" x1="631" x2="766" y1="801.9844" y2="801.9844"/><ellipse cx="641" cy="816.7949" fill="#84BE84" rx="3" ry="3" style="stroke:#038048;stroke-width:1.0;"/><text fill="#000000" font-family="sans-serif" font-size="14" lengthAdjust="spacing" textLength="111" x="650" y="821.0918">getValue(): String</text></g><!--class ConfigScraper--><g id="elem_ConfigScraper"><rect codeLine="50" fill="#F1F1F1" height="159.7266" id="ConfigScraper" rx="2.5" ry="2.5" style="stroke:#181818;stroke-width:0.5;" width="211" x="586" y="486.2422"/><ellipse cx="641.75" cy="502.2422" fill="#ADD1B2" rx="11" ry="11" style="stroke:#181818;stroke-width:1.0;"/><path d="M644.5156,498.1172 Q644.6719,497.8984 644.8594,497.7891 Q645.0469,497.6797 645.2656,497.6797 Q645.6406,497.6797 645.875,497.9453 Q646.1094,498.1953 646.1094,498.8047 L646.1094,500.2578 Q646.1094,500.8672 645.875,501.1328 Q645.6406,501.3984 645.2656,501.3984 Q644.9219,501.3984 644.7188,501.1953 Q644.5156,501.0078 644.4063,500.4922 Q644.3594,500.1328 644.1719,499.9453 Q643.8438,499.5703 643.2344,499.3516 Q642.625,499.1328 642,499.1328 Q641.2344,499.1328 640.5938,499.4609 Q639.9688,499.7891 639.4688,500.5391 Q638.9844,501.2891 638.9844,502.3203 L638.9844,503.4141 Q638.9844,504.6484 639.875,505.4766 Q640.7656,506.2891 642.3594,506.2891 Q643.2969,506.2891 643.9531,506.0391 Q644.3438,505.8828 644.7656,505.4453 Q645.0313,505.1797 645.1719,505.1016 Q645.3281,505.0234 645.5313,505.0234 Q645.8594,505.0234 646.1094,505.2891 Q646.375,505.5391 646.375,505.8828 Q646.375,506.2266 646.0313,506.6328 Q645.5313,507.2109 644.7344,507.5391 Q643.6563,507.9922 642.3594,507.9922 Q640.8438,507.9922 639.6406,507.3672 Q638.6563,506.8672 637.9688,505.8047 Q637.2813,504.7266 637.2813,503.4453 L637.2813,502.2891 Q637.2813,500.9609 637.8906,499.8203 Q638.5156,498.6641 639.6094,498.0547 Q640.7031,497.4297 641.9375,497.4297 Q642.6719,497.4297 643.3125,497.6016 Q643.9688,497.7578 644.5156,498.1172 Z " fill="#000000"/><text fill="#000000" font-family="sans-serif" font-size="14" lengthAdjust="spacing" textLength="91" x="662.25" y="508.0391">ConfigScraper</text><line style="stroke:#181818;stroke-width:0.5;" x1="587" x2="796" y1="518.2422" y2="518.2422"/><rect fill="none" height="6" style="stroke:#C82930;stroke-width:1.0;" width="6" x="594" y="530.0527"/><text fill="#000000" font-family="sans-serif" font-size="14" lengthAdjust="spacing" textLength="92" x="606" y="537.3496">filePath: String</text><rect fill="none" height="6" style="stroke:#C82930;stroke-width:1.0;" width="6" x="594" y="548.6738"/><text fill="#000000" font-family="sans-serif" font-size="14" lengthAdjust="spacing" textLength="185" x="606" y="555.9707">openingMainBlockTag: String</text><rect fill="none" height="6" style="stroke:#C82930;stroke-width:1.0;" width="6" x="594" y="567.2949"/><text fill="#000000" font-family="sans-serif" font-size="14" lengthAdjust="spacing" textLength="178" x="606" y="574.5918">closingMainBlockTag: String</text><rect fill="none" height="6" style="stroke:#C82930;stroke-width:1.0;" width="6" x="594" y="585.916"/><text fill="#000000" font-family="sans-serif" font-size="14" lengthAdjust="spacing" textLength="142" x="606" y="593.2129">propertySplitter: String</text><rect fill="none" height="6" style="stroke:#C82930;stroke-width:1.0;" width="6" x="594" y="604.5371"/><text fill="#000000" font-family="sans-serif" font-size="14" lengthAdjust="spacing" textLength="174" x="606" y="611.834">functionalityProperty: String</text><line style="stroke:#181818;stroke-width:0.5;" x1="587" x2="796" y1="619.3477" y2="619.3477"/><ellipse cx="597" cy="634.1582" fill="#84BE84" rx="3" ry="3" style="stroke:#038048;stroke-width:1.0;"/><text fill="#000000" font-family="sans-serif" font-size="14" lengthAdjust="spacing" textLength="146" x="606" y="638.4551">loadTolerance(): String</text></g><!--reverse link ValueRepository to InstantTimeValueRepository--><g id="link_ValueRepository_InstantTimeValueRepository"><path d="M168.5,369.9222 C168.5,410.1922 168.5,473.4822 168.5,523.5622 " fill="none" id="ValueRepository-backto-InstantTimeValueRepository" style="stroke:#181818;stroke-width:1.0;"/><polygon fill="none" points="168.5,351.9222,162.5,369.9222,174.5,369.9222,168.5,351.9222" style="stroke:#181818;stroke-width:1.0;"/></g><!--reverse link Value to InstantTimeValue--><g id="link_Value_InstantTimeValue"><path d="M465.5,618.0622 C465.5,646.5322 465.5,670.2122 465.5,705.9422 " fill="none" id="Value-backto-InstantTimeValue" style="stroke:#181818;stroke-width:1.0;stroke-dasharray:7.0,7.0;"/><polygon fill="none" points="465.5,600.0622,459.5,618.0622,471.5,618.0622,465.5,600.0622" style="stroke:#181818;stroke-width:1.0;"/></g><!--link MaxTempDifOutsideInsideController to MaxTempDifOutsideInsideService--><g id="link_MaxTempDifOutsideInsideController_MaxTempDifOutsideInsideService"><path codeLine="59" d="M602.25,169.2722 C602.25,187.4122 602.25,208.4222 602.25,229.0822 " fill="none" id="MaxTempDifOutsideInsideController-MaxTempDifOutsideInsideService" style="stroke:#181818;stroke-width:1.0;"/></g><!--link MaxTempDifOutsideInsideController to SensorDTO--><g id="link_MaxTempDifOutsideInsideController_SensorDTO"><path codeLine="60" d="M775.5,169.2722 C775.5,208.2322 775.5,260.3922 775.5,294.0422 " fill="none" id="MaxTempDifOutsideInsideController-SensorDTO" style="stroke:#181818;stroke-width:1.0;stroke-dasharray:7.0,7.0;"/><text fill="#000000" font-family="sans-serif" font-size="13" lengthAdjust="spacing" textLength="42" x="732.5" y="227.6905">&#171;uses&#187;</text></g><!--link MaxTempDifOutsideInsideController to SensorID--><g id="link_MaxTempDifOutsideInsideController_SensorID"><path codeLine="61" d="M948.75,169.2722 C948.75,208.2322 948.75,254.3922 948.75,288.0422 " fill="none" id="MaxTempDifOutsideInsideController-to-SensorID" style="stroke:#181818;stroke-width:1.0;"/><polygon fill="#181818" points="948.75,294.0422,952.75,285.0422,948.75,289.0422,944.75,285.0422,948.75,294.0422" style="stroke:#181818;stroke-width:1.0;"/><text fill="#000000" font-family="sans-serif" font-size="13" lengthAdjust="spacing" textLength="57" x="890.75" y="227.6905">&#171;creates&#187;</text></g><!--link MaxTempDifOutsideInsideService to Value--><g id="link_MaxTempDifOutsideInsideService_Value"><path codeLine="62" d="M465.5,426.4722 C465.5,464.2722 465.5,504.9122 465.5,532.5722 " fill="none" id="MaxTempDifOutsideInsideService-Value" style="stroke:#181818;stroke-width:1.0;stroke-dasharray:7.0,7.0;"/><text fill="#000000" font-family="sans-serif" font-size="13" lengthAdjust="spacing" textLength="42" x="422.5" y="475.5505">&#171;uses&#187;</text></g><!--link MaxTempDifOutsideInsideService to InstantTimeValueRepository--><g id="link_MaxTempDifOutsideInsideService_InstantTimeValueRepository"><path codeLine="63" d="M306.75,426.4722 C306.75,460.3022 306.75,496.4022 306.75,523.4422 " fill="none" id="MaxTempDifOutsideInsideService-InstantTimeValueRepository" style="stroke:#181818;stroke-width:1.0;"/></g><!--link MaxTempDifOutsideInsideService to ConfigScraper--><g id="link_MaxTempDifOutsideInsideService_ConfigScraper"><path codeLine="64" d="M625.75,426.4722 C625.75,446.3322 625.75,466.9822 625.75,486.1122 " fill="none" id="MaxTempDifOutsideInsideService-ConfigScraper" style="stroke:#181818;stroke-width:1.0;"/></g><!--link InstantTimeValue to Reading--><g id="link_InstantTimeValue_Reading"><path codeLine="65" d="M595.29,777.2422 C607.2,777.2422 618.92,777.2422 629.95,777.2422 " fill="none" id="InstantTimeValue-Reading" style="stroke:#181818;stroke-width:1.0;"/></g><!--SRC=[ZLHBRnen4BxpAqQvb2ey3krfHP4IIAkLce20vD9MbRCxW1K_LhOt14Nvxnslzy6I1-MmsFF-lfdnfwrpcOs6mqmmvN8f1ecMmqGmQ_ifPnl3PCS-S9KnEe7W2jq-Gz36RNN7SISGRYTVlaPmOO71Gci9ivr20x-qWRdUqUdMekcH1roaaYjkdM5EcpyzY657ES5fs23zRH4aU-8oby2LTQHY2dLkuRS2Xp93yiiDGihNQpIe4eHxT3j4HPbJVEGauAg8OtmTJAN5HUVEyXHxNibWmn_9WO9ndGuwdG8fNBEd5MMOylKi6CVAVoTQEQE5813F7Q1VNxvjk4JZqqVl1IhrHOppTs9qbwYiDjFLpCCldCfx3neLSL7Y2R9useCLbqXyoGpeQzoX05NwEO9Kv_S2Eoydu9PLLbWVcSXnWPcsdFgrZo0ENV7Hxzgwu91ejUQRPM8OqHl1vF0QB2Qpc-_nZx_pnMn-jLZ5Lqlu1cV1RHZ-1fdHPEuushC8bivmjGcqqOoKTPU3CAtde5jnqMBEKqDqrRfJlFbhuT78FN_-rd1Om5XpbKw4jcHrK4_t9ytsw9YaCHGysYAoq6e3hWh_HcUQHeScdDj2SCCarcmS6HEoqTriN7NjRGUk79ere-Q-tqJ09qTuBHp9oqeywCjzcJE5XdDR7WXEmK20tJXT276bwAcWbdR99gPA686kx5hL5RBdkk4BP2aXy6xbiK5_30Iup0HALAv4q9hZU1e5QJmDKXFYDO4FsFF65RmWvqsoHULOZqbTRlpAobVUsDMrbzfMuueoMoFVpnLthvQWGE7ZDjqjexOMxhaQLO5pvhRjmBHYYYxNZAjBePE75Tkq3HAQxWyDoZNTBpF1dVFhVgXTvofnN2j6olsyD6qZ4PgbAqrFA_CBt89p-ZNkzq-zjATZ30O7snR1Q9JJFe_7_vLzN8-7Tqnebjn7ljN3IYdlGfTFPQiy2EW7h-vfv_OR_6fb-lNqT_u1]--></g></svg>