<?xml version="1.0" encoding="us-ascii" standalone="no"?><svg xmlns="http://www.w3.org/2000/svg" xmlns:xlink="http://www.w3.org/1999/xlink" contentStyleType="text/css" height="649.6px" preserveAspectRatio="none" style="width:1221px;height:649px;background:#FFFFFF;" version="1.1" viewBox="0 0 1221 649" width="1221.6px" zoomAndPan="magnify"><defs/><g><text fill="#000000" font-family="sans-serif" font-size="11.2" font-weight="bold" lengthAdjust="spacing" textLength="271.2" x="469.6" y="20.0859">UC34.1 List of Rooms Inside or Outside of House</text><!--cluster server--><g id="cluster_server"><path d="M6.8,36.5078 L45.2,36.5078 A3,3 0 0 1 47.2,38.5078 L52.8,56.2047 L1214,56.2047 A2,2 0 0 1 1216,58.2047 L1216,642.5078 A2,2 0 0 1 1214,644.5078 L6.8,644.5078 A2,2 0 0 1 4.8,642.5078 L4.8,38.5078 A2,2 0 0 1 6.8,36.5078 " fill="#D3D3D3" style="stroke:#000000;stroke-width:1.2000000000000002;"/><line style="stroke:#000000;stroke-width:1.2000000000000002;" x1="4.8" x2="52.8" y1="56.2047" y2="56.2047"/><text fill="#000000" font-family="sans-serif" font-size="11.2" font-weight="bold" lengthAdjust="spacing" textLength="37.6" x="8" y="50.1938">server</text></g><!--class ListAllRoomsInsideOrOutsideOfHouseController--><g id="elem_ListAllRoomsInsideOrOutsideOfHouseController"><rect codeLine="6" fill="#F1F1F1" height="83.0906" id="ListAllRoomsInsideOrOutsideOfHouseController" rx="2" ry="2" style="stroke:#181818;stroke-width:0.4000000000000001;" width="360.8" x="715.6" y="66.1078"/><ellipse cx="750.64" cy="78.9078" fill="#ADD1B2" rx="8.8" ry="8.8" style="stroke:#181818;stroke-width:0.8000000000000002;"/><path d="M752.8525,75.6078 Q752.9775,75.4328 753.1275,75.3453 Q753.2775,75.2578 753.4525,75.2578 Q753.7525,75.2578 753.94,75.4703 Q754.1275,75.6703 754.1275,76.1578 L754.1275,77.3203 Q754.1275,77.8078 753.94,78.0203 Q753.7525,78.2328 753.4525,78.2328 Q753.1775,78.2328 753.015,78.0703 Q752.8525,77.9203 752.765,77.5078 Q752.7275,77.2203 752.5775,77.0703 Q752.315,76.7703 751.8275,76.5953 Q751.34,76.4203 750.84,76.4203 Q750.2275,76.4203 749.715,76.6828 Q749.215,76.9453 748.815,77.5453 Q748.4275,78.1453 748.4275,78.9703 L748.4275,79.8453 Q748.4275,80.8328 749.14,81.4953 Q749.8525,82.1453 751.1275,82.1453 Q751.8775,82.1453 752.4025,81.9453 Q752.715,81.8203 753.0525,81.4703 Q753.265,81.2578 753.3775,81.1953 Q753.5025,81.1328 753.665,81.1328 Q753.9275,81.1328 754.1275,81.3453 Q754.34,81.5453 754.34,81.8203 Q754.34,82.0953 754.065,82.4203 Q753.665,82.8828 753.0275,83.1453 Q752.165,83.5078 751.1275,83.5078 Q749.915,83.5078 748.9525,83.0078 Q748.165,82.6078 747.615,81.7578 Q747.065,80.8953 747.065,79.8703 L747.065,78.9453 Q747.065,77.8828 747.5525,76.9703 Q748.0525,76.0453 748.9275,75.5578 Q749.8025,75.0578 750.79,75.0578 Q751.3775,75.0578 751.89,75.1953 Q752.415,75.3203 752.8525,75.6078 Z " fill="#000000"/><text fill="#000000" font-family="sans-serif" font-size="11.2" lengthAdjust="spacing" textLength="240" x="766.96" y="83.5453">ListAllRoomsInsideOrOutsideOfHouseController</text><rect fill="#FFFFFF" height="14.3688" style="stroke:#181818;stroke-width:0.8000000000000002;stroke-dasharray:2.0,2.0;" width="42.4" x="1036.4" y="63.7078"/><text fill="#000000" font-family="sans-serif" font-size="9.6" font-style="italic" lengthAdjust="spacing" textLength="40.8" x="1037.2" y="74.8672">controller</text><line style="stroke:#181818;stroke-width:0.4000000000000001;" x1="716.4" x2="1075.6" y1="91.7078" y2="91.7078"/><rect fill="none" height="4.8" style="stroke:#C82930;stroke-width:0.8000000000000002;" width="4.8" x="722" y="101.1563"/><text fill="#000000" font-family="sans-serif" font-size="11.2" lengthAdjust="spacing" textLength="136.8" x="731.6" y="106.9938">roomService: RoomService</text><line style="stroke:#181818;stroke-width:0.4000000000000001;" x1="716.4" x2="1075.6" y1="113.0047" y2="113.0047"/><ellipse cx="724.4" cy="132.3016" fill="#84BE84" rx="2.4" ry="2.4" style="stroke:#038048;stroke-width:0.8000000000000002;"/><text fill="#000000" font-family="sans-serif" font-size="11.2" lengthAdjust="spacing" textLength="340" x="731.6" y="128.2906">getListOfRoomsDTOInsideOrOutsideHouse(HouseDTO houseDTO,</text><text fill="#000000" font-family="sans-serif" font-size="11.2" lengthAdjust="spacing" textLength="220" x="734.8" y="143.1875">boolean areRoomsInside): List&lt;RoomDTO&gt;</text></g><!--class RoomMapperDTO--><g id="elem_RoomMapperDTO"><rect codeLine="11" fill="#F1F1F1" height="53.2969" id="RoomMapperDTO" rx="2" ry="2" style="stroke:#181818;stroke-width:0.4000000000000001;" width="386.4" x="576.4" y="226.9078"/><ellipse cx="720.2" cy="239.7078" fill="#ADD1B2" rx="8.8" ry="8.8" style="stroke:#181818;stroke-width:0.8000000000000002;"/><path d="M722.4125,236.4078 Q722.5375,236.2328 722.6875,236.1453 Q722.8375,236.0578 723.0125,236.0578 Q723.3125,236.0578 723.5,236.2703 Q723.6875,236.4703 723.6875,236.9578 L723.6875,238.1203 Q723.6875,238.6078 723.5,238.8203 Q723.3125,239.0328 723.0125,239.0328 Q722.7375,239.0328 722.575,238.8703 Q722.4125,238.7203 722.325,238.3078 Q722.2875,238.0203 722.1375,237.8703 Q721.875,237.5703 721.3875,237.3953 Q720.9,237.2203 720.4,237.2203 Q719.7875,237.2203 719.275,237.4828 Q718.775,237.7453 718.375,238.3453 Q717.9875,238.9453 717.9875,239.7703 L717.9875,240.6453 Q717.9875,241.6328 718.7,242.2953 Q719.4125,242.9453 720.6875,242.9453 Q721.4375,242.9453 721.9625,242.7453 Q722.275,242.6203 722.6125,242.2703 Q722.825,242.0578 722.9375,241.9953 Q723.0625,241.9328 723.225,241.9328 Q723.4875,241.9328 723.6875,242.1453 Q723.9,242.3453 723.9,242.6203 Q723.9,242.8953 723.625,243.2203 Q723.225,243.6828 722.5875,243.9453 Q721.725,244.3078 720.6875,244.3078 Q719.475,244.3078 718.5125,243.8078 Q717.725,243.4078 717.175,242.5578 Q716.625,241.6953 716.625,240.6703 L716.625,239.7453 Q716.625,238.6828 717.1125,237.7703 Q717.6125,236.8453 718.4875,236.3578 Q719.3625,235.8578 720.35,235.8578 Q720.9375,235.8578 721.45,235.9953 Q721.975,236.1203 722.4125,236.4078 Z " fill="#000000"/><text fill="#000000" font-family="sans-serif" font-size="11.2" lengthAdjust="spacing" textLength="92" x="736.6" y="244.3453">RoomMapperDTO</text><line style="stroke:#181818;stroke-width:0.4000000000000001;" x1="577.2" x2="962" y1="252.5078" y2="252.5078"/><line style="stroke:#181818;stroke-width:0.4000000000000001;" x1="577.2" x2="962" y1="258.9078" y2="258.9078"/><ellipse cx="585.2" cy="270.7563" fill="#84BE84" rx="2.4" ry="2.4" style="stroke:#038048;stroke-width:0.8000000000000002;"/><text fill="#000000" font-family="sans-serif" font-size="11.2" lengthAdjust="spacing" textLength="365.6" x="592.4" y="274.1938">roomIDsToDTOList(Iterable&lt;RoomID&gt; listOfRoomsIDs): List&lt;RoomDTO&gt;</text></g><!--class RoomDTO--><g id="elem_RoomDTO"><rect codeLine="15" fill="#F1F1F1" height="112.8844" id="RoomDTO" rx="2" ry="2" style="stroke:#181818;stroke-width:0.4000000000000001;" width="111.2" x="714" y="365.7078"/><ellipse cx="740.4" cy="378.5078" fill="#ADD1B2" rx="8.8" ry="8.8" style="stroke:#181818;stroke-width:0.8000000000000002;"/><path d="M742.6125,375.2078 Q742.7375,375.0328 742.8875,374.9453 Q743.0375,374.8578 743.2125,374.8578 Q743.5125,374.8578 743.7,375.0703 Q743.8875,375.2703 743.8875,375.7578 L743.8875,376.9203 Q743.8875,377.4078 743.7,377.6203 Q743.5125,377.8328 743.2125,377.8328 Q742.9375,377.8328 742.775,377.6703 Q742.6125,377.5203 742.525,377.1078 Q742.4875,376.8203 742.3375,376.6703 Q742.075,376.3703 741.5875,376.1953 Q741.1,376.0203 740.6,376.0203 Q739.9875,376.0203 739.475,376.2828 Q738.975,376.5453 738.575,377.1453 Q738.1875,377.7453 738.1875,378.5703 L738.1875,379.4453 Q738.1875,380.4328 738.9,381.0953 Q739.6125,381.7453 740.8875,381.7453 Q741.6375,381.7453 742.1625,381.5453 Q742.475,381.4203 742.8125,381.0703 Q743.025,380.8578 743.1375,380.7953 Q743.2625,380.7328 743.425,380.7328 Q743.6875,380.7328 743.8875,380.9453 Q744.1,381.1453 744.1,381.4203 Q744.1,381.6953 743.825,382.0203 Q743.425,382.4828 742.7875,382.7453 Q741.925,383.1078 740.8875,383.1078 Q739.675,383.1078 738.7125,382.6078 Q737.925,382.2078 737.375,381.3578 Q736.825,380.4953 736.825,379.4703 L736.825,378.5453 Q736.825,377.4828 737.3125,376.5703 Q737.8125,375.6453 738.6875,375.1578 Q739.5625,374.6578 740.55,374.6578 Q741.1375,374.6578 741.65,374.7953 Q742.175,374.9203 742.6125,375.2078 Z " fill="#000000"/><text fill="#000000" font-family="sans-serif" font-size="11.2" lengthAdjust="spacing" textLength="53.6" x="754.8" y="383.1453">RoomDTO</text><line style="stroke:#181818;stroke-width:0.4000000000000001;" x1="714.8" x2="824.4" y1="391.3078" y2="391.3078"/><ellipse cx="722.8" cy="403.1563" fill="none" rx="2.4" ry="2.4" style="stroke:#038048;stroke-width:0.8000000000000002;"/><text fill="#000000" font-family="sans-serif" font-size="11.2" lengthAdjust="spacing" textLength="90.4" x="730" y="406.5938">roomName: String</text><ellipse cx="722.8" cy="418.0531" fill="none" rx="2.4" ry="2.4" style="stroke:#038048;stroke-width:0.8000000000000002;"/><text fill="#000000" font-family="sans-serif" font-size="11.2" lengthAdjust="spacing" textLength="80" x="730" y="421.4906">floorNumber: int</text><ellipse cx="722.8" cy="432.95" fill="none" rx="2.4" ry="2.4" style="stroke:#038048;stroke-width:0.8000000000000002;"/><text fill="#000000" font-family="sans-serif" font-size="11.2" lengthAdjust="spacing" textLength="66.4" x="730" y="436.3875">width: double</text><ellipse cx="722.8" cy="447.8469" fill="none" rx="2.4" ry="2.4" style="stroke:#038048;stroke-width:0.8000000000000002;"/><text fill="#000000" font-family="sans-serif" font-size="11.2" lengthAdjust="spacing" textLength="72" x="730" y="451.2844">length: double</text><ellipse cx="722.8" cy="462.7438" fill="none" rx="2.4" ry="2.4" style="stroke:#038048;stroke-width:0.8000000000000002;"/><text fill="#000000" font-family="sans-serif" font-size="11.2" lengthAdjust="spacing" textLength="72" x="730" y="466.1813">height: double</text><line style="stroke:#181818;stroke-width:0.4000000000000001;" x1="714.8" x2="824.4" y1="472.1922" y2="472.1922"/></g><!--class Room--><g id="elem_Room"><rect codeLine="23" fill="#F1F1F1" height="127.7813" id="Room" rx="2" ry="2" style="stroke:#181818;stroke-width:0.4000000000000001;" width="227.2" x="59.2" y="358.1078"/><ellipse cx="144.6" cy="370.9078" fill="#ADD1B2" rx="8.8" ry="8.8" style="stroke:#181818;stroke-width:0.8000000000000002;"/><path d="M146.8125,367.6078 Q146.9375,367.4328 147.0875,367.3453 Q147.2375,367.2578 147.4125,367.2578 Q147.7125,367.2578 147.9,367.4703 Q148.0875,367.6703 148.0875,368.1578 L148.0875,369.3203 Q148.0875,369.8078 147.9,370.0203 Q147.7125,370.2328 147.4125,370.2328 Q147.1375,370.2328 146.975,370.0703 Q146.8125,369.9203 146.725,369.5078 Q146.6875,369.2203 146.5375,369.0703 Q146.275,368.7703 145.7875,368.5953 Q145.3,368.4203 144.8,368.4203 Q144.1875,368.4203 143.675,368.6828 Q143.175,368.9453 142.775,369.5453 Q142.3875,370.1453 142.3875,370.9703 L142.3875,371.8453 Q142.3875,372.8328 143.1,373.4953 Q143.8125,374.1453 145.0875,374.1453 Q145.8375,374.1453 146.3625,373.9453 Q146.675,373.8203 147.0125,373.4703 Q147.225,373.2578 147.3375,373.1953 Q147.4625,373.1328 147.625,373.1328 Q147.8875,373.1328 148.0875,373.3453 Q148.3,373.5453 148.3,373.8203 Q148.3,374.0953 148.025,374.4203 Q147.625,374.8828 146.9875,375.1453 Q146.125,375.5078 145.0875,375.5078 Q143.875,375.5078 142.9125,375.0078 Q142.125,374.6078 141.575,373.7578 Q141.025,372.8953 141.025,371.8703 L141.025,370.9453 Q141.025,369.8828 141.5125,368.9703 Q142.0125,368.0453 142.8875,367.5578 Q143.7625,367.0578 144.75,367.0578 Q145.3375,367.0578 145.85,367.1953 Q146.375,367.3203 146.8125,367.6078 Z " fill="#000000"/><text fill="#000000" font-family="sans-serif" font-size="11.2" lengthAdjust="spacing" textLength="29.6" x="161" y="375.5453">Room</text><rect fill="#FFFFFF" height="14.3688" style="stroke:#181818;stroke-width:0.8000000000000002;stroke-dasharray:2.0,2.0;" width="18.4" x="270.4" y="355.7078"/><text fill="#000000" font-family="sans-serif" font-size="9.6" font-style="italic" lengthAdjust="spacing" textLength="16.8" x="271.2" y="366.8672">root</text><line style="stroke:#181818;stroke-width:0.4000000000000001;" x1="60" x2="285.6" y1="383.7078" y2="383.7078"/><rect fill="none" height="4.8" style="stroke:#C82930;stroke-width:0.8000000000000002;" width="4.8" x="65.6" y="393.1563"/><text fill="#000000" font-family="sans-serif" font-size="11.2" lengthAdjust="spacing" textLength="100.8" x="75.2" y="398.9938">roomName: RoomID</text><rect fill="none" height="4.8" style="stroke:#C82930;stroke-width:0.8000000000000002;" width="4.8" x="65.6" y="408.0531"/><text fill="#000000" font-family="sans-serif" font-size="11.2" lengthAdjust="spacing" textLength="124" x="75.2" y="413.8906">floorNumber: RoomFloor</text><rect fill="none" height="4.8" style="stroke:#C82930;stroke-width:0.8000000000000002;" width="4.8" x="65.6" y="422.95"/><text fill="#000000" font-family="sans-serif" font-size="11.2" lengthAdjust="spacing" textLength="151.2" x="75.2" y="428.7875">dimensions: RoomDimensions</text><rect fill="none" height="4.8" style="stroke:#C82930;stroke-width:0.8000000000000002;" width="4.8" x="65.6" y="437.8469"/><text fill="#000000" font-family="sans-serif" font-size="11.2" lengthAdjust="spacing" textLength="90.4" x="75.2" y="443.6844">houseID: HouseID</text><line style="stroke:#181818;stroke-width:0.4000000000000001;" x1="60" x2="285.6" y1="449.6953" y2="449.6953"/><ellipse cx="68" cy="461.5438" fill="#84BE84" rx="2.4" ry="2.4" style="stroke:#038048;stroke-width:0.8000000000000002;"/><text fill="#000000" font-family="sans-serif" font-size="11.2" lengthAdjust="spacing" textLength="90.4" x="75.2" y="464.9813">identity(): RoomID</text><ellipse cx="68" cy="476.4406" fill="#84BE84" rx="2.4" ry="2.4" style="stroke:#038048;stroke-width:0.8000000000000002;"/><text fill="#000000" font-family="sans-serif" font-size="11.2" lengthAdjust="spacing" textLength="206.4" x="75.2" y="479.8781">getRoomDimensions(): RoomDimensions</text></g><!--class RoomService--><g id="elem_RoomService"><rect codeLine="32" fill="#F1F1F1" height="112.8844" id="RoomService" rx="2" ry="2" style="stroke:#181818;stroke-width:0.4000000000000001;" width="309.6" x="18" y="197.3078"/><ellipse cx="118.6" cy="210.1078" fill="#ADD1B2" rx="8.8" ry="8.8" style="stroke:#181818;stroke-width:0.8000000000000002;"/><path d="M120.8125,206.8078 Q120.9375,206.6328 121.0875,206.5453 Q121.2375,206.4578 121.4125,206.4578 Q121.7125,206.4578 121.9,206.6703 Q122.0875,206.8703 122.0875,207.3578 L122.0875,208.5203 Q122.0875,209.0078 121.9,209.2203 Q121.7125,209.4328 121.4125,209.4328 Q121.1375,209.4328 120.975,209.2703 Q120.8125,209.1203 120.725,208.7078 Q120.6875,208.4203 120.5375,208.2703 Q120.275,207.9703 119.7875,207.7953 Q119.3,207.6203 118.8,207.6203 Q118.1875,207.6203 117.675,207.8828 Q117.175,208.1453 116.775,208.7453 Q116.3875,209.3453 116.3875,210.1703 L116.3875,211.0453 Q116.3875,212.0328 117.1,212.6953 Q117.8125,213.3453 119.0875,213.3453 Q119.8375,213.3453 120.3625,213.1453 Q120.675,213.0203 121.0125,212.6703 Q121.225,212.4578 121.3375,212.3953 Q121.4625,212.3328 121.625,212.3328 Q121.8875,212.3328 122.0875,212.5453 Q122.3,212.7453 122.3,213.0203 Q122.3,213.2953 122.025,213.6203 Q121.625,214.0828 120.9875,214.3453 Q120.125,214.7078 119.0875,214.7078 Q117.875,214.7078 116.9125,214.2078 Q116.125,213.8078 115.575,212.9578 Q115.025,212.0953 115.025,211.0703 L115.025,210.1453 Q115.025,209.0828 115.5125,208.1703 Q116.0125,207.2453 116.8875,206.7578 Q117.7625,206.2578 118.75,206.2578 Q119.3375,206.2578 119.85,206.3953 Q120.375,206.5203 120.8125,206.8078 Z " fill="#000000"/><text fill="#000000" font-family="sans-serif" font-size="11.2" lengthAdjust="spacing" textLength="67.2" x="135" y="214.7453">RoomService</text><rect fill="#FFFFFF" height="14.3688" style="stroke:#181818;stroke-width:0.8000000000000002;stroke-dasharray:2.0,2.0;" width="32.8" x="297.2" y="194.9078"/><text fill="#000000" font-family="sans-serif" font-size="9.6" font-style="italic" lengthAdjust="spacing" textLength="31.2" x="298" y="206.0672">service</text><line style="stroke:#181818;stroke-width:0.4000000000000001;" x1="18.8" x2="326.8" y1="222.9078" y2="222.9078"/><rect fill="none" height="4.8" style="stroke:#C82930;stroke-width:0.8000000000000002;" width="4.8" x="24.4" y="232.3563"/><text fill="#000000" font-family="sans-serif" font-size="11.2" lengthAdjust="spacing" textLength="170.4" x="34" y="238.1938">roomRepository: RoomRepository</text><rect fill="none" height="4.8" style="stroke:#C82930;stroke-width:0.8000000000000002;" width="4.8" x="24.4" y="247.2531"/><text fill="#000000" font-family="sans-serif" font-size="11.2" lengthAdjust="spacing" textLength="138.4" x="34" y="253.0906">factoryRoom: FactoryRoom</text><rect fill="none" height="4.8" style="stroke:#C82930;stroke-width:0.8000000000000002;" width="4.8" x="24.4" y="262.15"/><text fill="#000000" font-family="sans-serif" font-size="11.2" lengthAdjust="spacing" textLength="178.4" x="34" y="267.9875">houseRepository: HouseRepository</text><line style="stroke:#181818;stroke-width:0.4000000000000001;" x1="18.8" x2="326.8" y1="273.9984" y2="273.9984"/><ellipse cx="26.8" cy="293.2953" fill="#84BE84" rx="2.4" ry="2.4" style="stroke:#038048;stroke-width:0.8000000000000002;"/><text fill="#000000" font-family="sans-serif" font-size="11.2" lengthAdjust="spacing" textLength="288.8" x="34" y="289.2844">getListOfRoomsInsideOrOutsideHouse(HouseID houseID,</text><text fill="#000000" font-family="sans-serif" font-size="11.2" lengthAdjust="spacing" textLength="206.4" x="37.2" y="304.1813">boolean areRoomsInside): List&lt;RoomID&gt;</text></g><!--class HouseRepository--><g id="elem_HouseRepository"><rect codeLine="38" fill="#F1F1F1" height="38.4" id="HouseRepository" rx="2" ry="2" style="stroke:#181818;stroke-width:0.4000000000000001;" width="136" x="349.6" y="402.9078"/><ellipse cx="361.6" cy="415.7078" fill="#B4A7E5" rx="8.8" ry="8.8" style="stroke:#181818;stroke-width:0.8000000000000002;"/><path d="M362.3625,413.0203 L362.3625,418.3453 L363.7375,418.3453 Q364.225,418.3453 364.4375,418.5328 Q364.65,418.7203 364.65,419.0328 Q364.65,419.3328 364.4375,419.5203 Q364.225,419.7078 363.7375,419.7078 L359.625,419.7078 Q359.1375,419.7078 358.925,419.5203 Q358.7125,419.3328 358.7125,419.0203 Q358.7125,418.7203 358.925,418.5328 Q359.1375,418.3453 359.625,418.3453 L361,418.3453 L361,413.0203 L359.625,413.0203 Q359.1375,413.0203 358.925,412.8328 Q358.7125,412.6453 358.7125,412.3328 Q358.7125,412.0328 358.925,411.8453 Q359.1375,411.6578 359.625,411.6578 L363.7375,411.6578 Q364.225,411.6578 364.4375,411.8453 Q364.65,412.0328 364.65,412.3328 Q364.65,412.6453 364.4375,412.8328 Q364.225,413.0203 363.7375,413.0203 L362.3625,413.0203 Z " fill="#000000"/><text fill="#000000" font-family="sans-serif" font-size="11.2" font-style="italic" lengthAdjust="spacing" textLength="87.2" x="372.8" y="420.3453">HouseRepository</text><rect fill="#FFFFFF" height="14.3688" style="stroke:#181818;stroke-width:0.8000000000000002;stroke-dasharray:2.0,2.0;" width="21.6" x="466.4" y="400.5078"/><text fill="#000000" font-family="sans-serif" font-size="9.6" font-style="italic" lengthAdjust="spacing" textLength="20" x="467.2" y="411.6672">repo</text><line style="stroke:#181818;stroke-width:0.4000000000000001;" x1="350.4" x2="484.8" y1="428.5078" y2="428.5078"/><line style="stroke:#181818;stroke-width:0.4000000000000001;" x1="350.4" x2="484.8" y1="434.9078" y2="434.9078"/></g><!--class Repository--><g id="elem_Repository"><rect codeLine="41" fill="#F1F1F1" height="53.2969" id="Repository" rx="2" ry="2" style="stroke:#181818;stroke-width:0.4000000000000001;" width="192" x="356" y="226.9078"/><ellipse cx="409.8" cy="239.7078" fill="#B4A7E5" rx="8.8" ry="8.8" style="stroke:#181818;stroke-width:0.8000000000000002;"/><path d="M410.5625,237.0203 L410.5625,242.3453 L411.9375,242.3453 Q412.425,242.3453 412.6375,242.5328 Q412.85,242.7203 412.85,243.0328 Q412.85,243.3328 412.6375,243.5203 Q412.425,243.7078 411.9375,243.7078 L407.825,243.7078 Q407.3375,243.7078 407.125,243.5203 Q406.9125,243.3328 406.9125,243.0203 Q406.9125,242.7203 407.125,242.5328 Q407.3375,242.3453 407.825,242.3453 L409.2,242.3453 L409.2,237.0203 L407.825,237.0203 Q407.3375,237.0203 407.125,236.8328 Q406.9125,236.6453 406.9125,236.3328 Q406.9125,236.0328 407.125,235.8453 Q407.3375,235.6578 407.825,235.6578 L411.9375,235.6578 Q412.425,235.6578 412.6375,235.8453 Q412.85,236.0328 412.85,236.3328 Q412.85,236.6453 412.6375,236.8328 Q412.425,237.0203 411.9375,237.0203 L410.5625,237.0203 Z " fill="#000000"/><text fill="#000000" font-family="sans-serif" font-size="11.2" font-style="italic" lengthAdjust="spacing" textLength="54.4" x="426.2" y="244.3453">Repository</text><rect fill="#FFFFFF" height="14.3688" style="stroke:#181818;stroke-width:0.8000000000000002;stroke-dasharray:2.0,2.0;" width="21.6" x="528.8" y="224.5078"/><text fill="#000000" font-family="sans-serif" font-size="9.6" font-style="italic" lengthAdjust="spacing" textLength="20" x="529.6" y="235.6672">repo</text><line style="stroke:#181818;stroke-width:0.4000000000000001;" x1="356.8" x2="547.2" y1="252.5078" y2="252.5078"/><line style="stroke:#181818;stroke-width:0.4000000000000001;" x1="356.8" x2="547.2" y1="258.9078" y2="258.9078"/><ellipse cx="364.8" cy="270.7563" fill="#84BE84" rx="2.4" ry="2.4" style="stroke:#038048;stroke-width:0.8000000000000002;"/><text fill="#000000" font-family="sans-serif" font-size="11.2" lengthAdjust="spacing" textLength="171.2" x="372" y="274.1938">containsEntityByID(ID id): boolean</text></g><!--class RoomRepository--><g id="elem_RoomRepository"><rect codeLine="46" fill="#F1F1F1" height="53.2969" id="RoomRepository" rx="2" ry="2" style="stroke:#181818;stroke-width:0.4000000000000001;" width="276" x="34.8" y="80.9078"/><ellipse cx="115.8" cy="93.7078" fill="#B4A7E5" rx="8.8" ry="8.8" style="stroke:#181818;stroke-width:0.8000000000000002;"/><path d="M116.5625,91.0203 L116.5625,96.3453 L117.9375,96.3453 Q118.425,96.3453 118.6375,96.5328 Q118.85,96.7203 118.85,97.0328 Q118.85,97.3328 118.6375,97.5203 Q118.425,97.7078 117.9375,97.7078 L113.825,97.7078 Q113.3375,97.7078 113.125,97.5203 Q112.9125,97.3328 112.9125,97.0203 Q112.9125,96.7203 113.125,96.5328 Q113.3375,96.3453 113.825,96.3453 L115.2,96.3453 L115.2,91.0203 L113.825,91.0203 Q113.3375,91.0203 113.125,90.8328 Q112.9125,90.6453 112.9125,90.3328 Q112.9125,90.0328 113.125,89.8453 Q113.3375,89.6578 113.825,89.6578 L117.9375,89.6578 Q118.425,89.6578 118.6375,89.8453 Q118.85,90.0328 118.85,90.3328 Q118.85,90.6453 118.6375,90.8328 Q118.425,91.0203 117.9375,91.0203 L116.5625,91.0203 Z " fill="#000000"/><text fill="#000000" font-family="sans-serif" font-size="11.2" font-style="italic" lengthAdjust="spacing" textLength="84" x="132.2" y="98.3453">RoomRepository</text><rect fill="#FFFFFF" height="14.3688" style="stroke:#181818;stroke-width:0.8000000000000002;stroke-dasharray:2.0,2.0;" width="21.6" x="291.6" y="78.5078"/><text fill="#000000" font-family="sans-serif" font-size="9.6" font-style="italic" lengthAdjust="spacing" textLength="20" x="292.4" y="89.6672">repo</text><line style="stroke:#181818;stroke-width:0.4000000000000001;" x1="35.6" x2="310" y1="106.5078" y2="106.5078"/><line style="stroke:#181818;stroke-width:0.4000000000000001;" x1="35.6" x2="310" y1="112.9078" y2="112.9078"/><ellipse cx="43.6" cy="124.7563" fill="#84BE84" rx="2.4" ry="2.4" style="stroke:#038048;stroke-width:0.8000000000000002;"/><text fill="#000000" font-family="sans-serif" font-size="11.2" lengthAdjust="spacing" textLength="255.2" x="50.8" y="128.1938">findByHouseID(HouseID houseID): Iterable&lt;Room&gt;</text></g><!--class RoomDimensions--><g id="elem_RoomDimensions"><rect codeLine="50" fill="#F1F1F1" height="97.9875" id="RoomDimensions" rx="2" ry="2" style="stroke:#181818;stroke-width:0.4000000000000001;" width="130.4" x="62.8" y="534.1078"/><ellipse cx="74.8" cy="546.9078" fill="#ADD1B2" rx="8.8" ry="8.8" style="stroke:#181818;stroke-width:0.8000000000000002;"/><path d="M77.0125,543.6078 Q77.1375,543.4328 77.2875,543.3453 Q77.4375,543.2578 77.6125,543.2578 Q77.9125,543.2578 78.1,543.4703 Q78.2875,543.6703 78.2875,544.1578 L78.2875,545.3203 Q78.2875,545.8078 78.1,546.0203 Q77.9125,546.2328 77.6125,546.2328 Q77.3375,546.2328 77.175,546.0703 Q77.0125,545.9203 76.925,545.5078 Q76.8875,545.2203 76.7375,545.0703 Q76.475,544.7703 75.9875,544.5953 Q75.5,544.4203 75,544.4203 Q74.3875,544.4203 73.875,544.6828 Q73.375,544.9453 72.975,545.5453 Q72.5875,546.1453 72.5875,546.9703 L72.5875,547.8453 Q72.5875,548.8328 73.3,549.4953 Q74.0125,550.1453 75.2875,550.1453 Q76.0375,550.1453 76.5625,549.9453 Q76.875,549.8203 77.2125,549.4703 Q77.425,549.2578 77.5375,549.1953 Q77.6625,549.1328 77.825,549.1328 Q78.0875,549.1328 78.2875,549.3453 Q78.5,549.5453 78.5,549.8203 Q78.5,550.0953 78.225,550.4203 Q77.825,550.8828 77.1875,551.1453 Q76.325,551.5078 75.2875,551.5078 Q74.075,551.5078 73.1125,551.0078 Q72.325,550.6078 71.775,549.7578 Q71.225,548.8953 71.225,547.8703 L71.225,546.9453 Q71.225,545.8828 71.7125,544.9703 Q72.2125,544.0453 73.0875,543.5578 Q73.9625,543.0578 74.95,543.0578 Q75.5375,543.0578 76.05,543.1953 Q76.575,543.3203 77.0125,543.6078 Z " fill="#000000"/><text fill="#000000" font-family="sans-serif" font-size="11.2" lengthAdjust="spacing" textLength="88" x="86" y="551.5453">RoomDimensions</text><rect fill="#FFFFFF" height="14.3688" style="stroke:#181818;stroke-width:0.8000000000000002;stroke-dasharray:2.0,2.0;" width="15.2" x="180.4" y="531.7078"/><text fill="#000000" font-family="sans-serif" font-size="9.6" font-style="italic" lengthAdjust="spacing" textLength="13.6" x="181.2" y="542.8672">VO</text><line style="stroke:#181818;stroke-width:0.4000000000000001;" x1="63.6" x2="192.4" y1="559.7078" y2="559.7078"/><rect fill="none" height="4.8" style="stroke:#C82930;stroke-width:0.8000000000000002;" width="4.8" x="69.2" y="569.1563"/><text fill="#000000" font-family="sans-serif" font-size="11.2" lengthAdjust="spacing" textLength="66.4" x="78.8" y="574.9938">width: double</text><rect fill="none" height="4.8" style="stroke:#C82930;stroke-width:0.8000000000000002;" width="4.8" x="69.2" y="584.0531"/><text fill="#000000" font-family="sans-serif" font-size="11.2" lengthAdjust="spacing" textLength="72" x="78.8" y="589.8906">length: double</text><rect fill="none" height="4.8" style="stroke:#C82930;stroke-width:0.8000000000000002;" width="4.8" x="69.2" y="598.95"/><text fill="#000000" font-family="sans-serif" font-size="11.2" lengthAdjust="spacing" textLength="72" x="78.8" y="604.7875">height: double</text><line style="stroke:#181818;stroke-width:0.4000000000000001;" x1="63.6" x2="192.4" y1="610.7984" y2="610.7984"/><ellipse cx="71.6" cy="622.6469" fill="#84BE84" rx="2.4" ry="2.4" style="stroke:#038048;stroke-width:0.8000000000000002;"/><text fill="#000000" font-family="sans-serif" font-size="11.2" lengthAdjust="spacing" textLength="96.8" x="78.8" y="626.0844">getHeight(): double</text></g><!--class RoomID--><g id="elem_RoomID"><rect codeLine="57" fill="#F1F1F1" height="53.2969" id="RoomID" rx="2" ry="2" style="stroke:#181818;stroke-width:0.4000000000000001;" width="82.4" x="221.2" y="556.1078"/><ellipse cx="233.2" cy="568.9078" fill="#ADD1B2" rx="8.8" ry="8.8" style="stroke:#181818;stroke-width:0.8000000000000002;"/><path d="M235.4125,565.6078 Q235.5375,565.4328 235.6875,565.3453 Q235.8375,565.2578 236.0125,565.2578 Q236.3125,565.2578 236.5,565.4703 Q236.6875,565.6703 236.6875,566.1578 L236.6875,567.3203 Q236.6875,567.8078 236.5,568.0203 Q236.3125,568.2328 236.0125,568.2328 Q235.7375,568.2328 235.575,568.0703 Q235.4125,567.9203 235.325,567.5078 Q235.2875,567.2203 235.1375,567.0703 Q234.875,566.7703 234.3875,566.5953 Q233.9,566.4203 233.4,566.4203 Q232.7875,566.4203 232.275,566.6828 Q231.775,566.9453 231.375,567.5453 Q230.9875,568.1453 230.9875,568.9703 L230.9875,569.8453 Q230.9875,570.8328 231.7,571.4953 Q232.4125,572.1453 233.6875,572.1453 Q234.4375,572.1453 234.9625,571.9453 Q235.275,571.8203 235.6125,571.4703 Q235.825,571.2578 235.9375,571.1953 Q236.0625,571.1328 236.225,571.1328 Q236.4875,571.1328 236.6875,571.3453 Q236.9,571.5453 236.9,571.8203 Q236.9,572.0953 236.625,572.4203 Q236.225,572.8828 235.5875,573.1453 Q234.725,573.5078 233.6875,573.5078 Q232.475,573.5078 231.5125,573.0078 Q230.725,572.6078 230.175,571.7578 Q229.625,570.8953 229.625,569.8703 L229.625,568.9453 Q229.625,567.8828 230.1125,566.9703 Q230.6125,566.0453 231.4875,565.5578 Q232.3625,565.0578 233.35,565.0578 Q233.9375,565.0578 234.45,565.1953 Q234.975,565.3203 235.4125,565.6078 Z " fill="#000000"/><text fill="#000000" font-family="sans-serif" font-size="11.2" lengthAdjust="spacing" textLength="40" x="244.4" y="573.5453">RoomID</text><rect fill="#FFFFFF" height="14.3688" style="stroke:#181818;stroke-width:0.8000000000000002;stroke-dasharray:2.0,2.0;" width="15.2" x="290.8" y="553.7078"/><text fill="#000000" font-family="sans-serif" font-size="9.6" font-style="italic" lengthAdjust="spacing" textLength="13.6" x="291.6" y="564.8672">VO</text><line style="stroke:#181818;stroke-width:0.4000000000000001;" x1="222" x2="302.8" y1="581.7078" y2="581.7078"/><rect fill="none" height="4.8" style="stroke:#C82930;stroke-width:0.8000000000000002;" width="4.8" x="227.6" y="591.1563"/><text fill="#000000" font-family="sans-serif" font-size="11.2" lengthAdjust="spacing" textLength="44.8" x="237.2" y="596.9938">id: String</text><line style="stroke:#181818;stroke-width:0.4000000000000001;" x1="222" x2="302.8" y1="603.0047" y2="603.0047"/></g><!--class HouseID--><g id="elem_HouseID"><rect codeLine="61" fill="#F1F1F1" height="53.2969" id="HouseID" rx="2" ry="2" style="stroke:#181818;stroke-width:0.4000000000000001;" width="84.8" x="991.2" y="226.9078"/><ellipse cx="1003.2" cy="239.7078" fill="#ADD1B2" rx="8.8" ry="8.8" style="stroke:#181818;stroke-width:0.8000000000000002;"/><path d="M1005.4125,236.4078 Q1005.5375,236.2328 1005.6875,236.1453 Q1005.8375,236.0578 1006.0125,236.0578 Q1006.3125,236.0578 1006.5,236.2703 Q1006.6875,236.4703 1006.6875,236.9578 L1006.6875,238.1203 Q1006.6875,238.6078 1006.5,238.8203 Q1006.3125,239.0328 1006.0125,239.0328 Q1005.7375,239.0328 1005.575,238.8703 Q1005.4125,238.7203 1005.325,238.3078 Q1005.2875,238.0203 1005.1375,237.8703 Q1004.875,237.5703 1004.3875,237.3953 Q1003.9,237.2203 1003.4,237.2203 Q1002.7875,237.2203 1002.275,237.4828 Q1001.775,237.7453 1001.375,238.3453 Q1000.9875,238.9453 1000.9875,239.7703 L1000.9875,240.6453 Q1000.9875,241.6328 1001.7,242.2953 Q1002.4125,242.9453 1003.6875,242.9453 Q1004.4375,242.9453 1004.9625,242.7453 Q1005.275,242.6203 1005.6125,242.2703 Q1005.825,242.0578 1005.9375,241.9953 Q1006.0625,241.9328 1006.225,241.9328 Q1006.4875,241.9328 1006.6875,242.1453 Q1006.9,242.3453 1006.9,242.6203 Q1006.9,242.8953 1006.625,243.2203 Q1006.225,243.6828 1005.5875,243.9453 Q1004.725,244.3078 1003.6875,244.3078 Q1002.475,244.3078 1001.5125,243.8078 Q1000.725,243.4078 1000.175,242.5578 Q999.625,241.6953 999.625,240.6703 L999.625,239.7453 Q999.625,238.6828 1000.1125,237.7703 Q1000.6125,236.8453 1001.4875,236.3578 Q1002.3625,235.8578 1003.35,235.8578 Q1003.9375,235.8578 1004.45,235.9953 Q1004.975,236.1203 1005.4125,236.4078 Z " fill="#000000"/><text fill="#000000" font-family="sans-serif" font-size="11.2" lengthAdjust="spacing" textLength="42.4" x="1014.4" y="244.3453">HouseID</text><rect fill="#FFFFFF" height="14.3688" style="stroke:#181818;stroke-width:0.8000000000000002;stroke-dasharray:2.0,2.0;" width="15.2" x="1063.2" y="224.5078"/><text fill="#000000" font-family="sans-serif" font-size="9.6" font-style="italic" lengthAdjust="spacing" textLength="13.6" x="1064" y="235.6672">VO</text><line style="stroke:#181818;stroke-width:0.4000000000000001;" x1="992" x2="1075.2" y1="252.5078" y2="252.5078"/><rect fill="none" height="4.8" style="stroke:#C82930;stroke-width:0.8000000000000002;" width="4.8" x="997.6" y="261.9563"/><text fill="#000000" font-family="sans-serif" font-size="11.2" lengthAdjust="spacing" textLength="44.8" x="1007.2" y="267.7938">id: String</text><line style="stroke:#181818;stroke-width:0.4000000000000001;" x1="992" x2="1075.2" y1="273.8047" y2="273.8047"/></g><!--class HouseDTO--><g id="elem_HouseDTO"><rect codeLine="65" fill="#F1F1F1" height="53.2969" id="HouseDTO" rx="2" ry="2" style="stroke:#181818;stroke-width:0.4000000000000001;" width="98.4" x="1104.4" y="226.9078"/><ellipse cx="1123.96" cy="239.7078" fill="#ADD1B2" rx="8.8" ry="8.8" style="stroke:#181818;stroke-width:0.8000000000000002;"/><path d="M1126.1725,236.4078 Q1126.2975,236.2328 1126.4475,236.1453 Q1126.5975,236.0578 1126.7725,236.0578 Q1127.0725,236.0578 1127.26,236.2703 Q1127.4475,236.4703 1127.4475,236.9578 L1127.4475,238.1203 Q1127.4475,238.6078 1127.26,238.8203 Q1127.0725,239.0328 1126.7725,239.0328 Q1126.4975,239.0328 1126.335,238.8703 Q1126.1725,238.7203 1126.085,238.3078 Q1126.0475,238.0203 1125.8975,237.8703 Q1125.635,237.5703 1125.1475,237.3953 Q1124.66,237.2203 1124.16,237.2203 Q1123.5475,237.2203 1123.035,237.4828 Q1122.535,237.7453 1122.135,238.3453 Q1121.7475,238.9453 1121.7475,239.7703 L1121.7475,240.6453 Q1121.7475,241.6328 1122.46,242.2953 Q1123.1725,242.9453 1124.4475,242.9453 Q1125.1975,242.9453 1125.7225,242.7453 Q1126.035,242.6203 1126.3725,242.2703 Q1126.585,242.0578 1126.6975,241.9953 Q1126.8225,241.9328 1126.985,241.9328 Q1127.2475,241.9328 1127.4475,242.1453 Q1127.66,242.3453 1127.66,242.6203 Q1127.66,242.8953 1127.385,243.2203 Q1126.985,243.6828 1126.3475,243.9453 Q1125.485,244.3078 1124.4475,244.3078 Q1123.235,244.3078 1122.2725,243.8078 Q1121.485,243.4078 1120.935,242.5578 Q1120.385,241.6953 1120.385,240.6703 L1120.385,239.7453 Q1120.385,238.6828 1120.8725,237.7703 Q1121.3725,236.8453 1122.2475,236.3578 Q1123.1225,235.8578 1124.11,235.8578 Q1124.6975,235.8578 1125.21,235.9953 Q1125.735,236.1203 1126.1725,236.4078 Z " fill="#000000"/><text fill="#000000" font-family="sans-serif" font-size="11.2" lengthAdjust="spacing" textLength="56" x="1136.84" y="244.3453">HouseDTO</text><line style="stroke:#181818;stroke-width:0.4000000000000001;" x1="1105.2" x2="1202" y1="252.5078" y2="252.5078"/><ellipse cx="1113.2" cy="264.3563" fill="none" rx="2.4" ry="2.4" style="stroke:#038048;stroke-width:0.8000000000000002;"/><text fill="#000000" font-family="sans-serif" font-size="11.2" lengthAdjust="spacing" textLength="77.6" x="1120.4" y="267.7938">houseID: String</text><line style="stroke:#181818;stroke-width:0.4000000000000001;" x1="1105.2" x2="1202" y1="273.8047" y2="273.8047"/></g><!--reverse link Repository to HouseRepository--><g id="link_Repository_HouseRepository"><path d="M420.8,295.1638 C420.8,329.2838 420.8,372.7158 420.8,402.7318 " fill="none" id="Repository-backto-HouseRepository" style="stroke:#181818;stroke-width:0.8000000000000002;"/><polygon fill="none" points="420.8,280.7638,416,295.1638,425.6,295.1638,420.8,280.7638" style="stroke:#181818;stroke-width:0.8000000000000002;"/></g><!--link ListAllRoomsInsideOrOutsideOfHouseController to RoomService--><g id="link_ListAllRoomsInsideOrOutsideOfHouseController_RoomService"><path codeLine="72" d="M715.472,142.1078 C546.28,142.1078 319.2,142.1078 319.2,142.1078 C319.2,142.1078 319.2,169.5718 319.2,197.2518 " fill="none" id="ListAllRoomsInsideOrOutsideOfHouseController-RoomService" style="stroke:#181818;stroke-width:0.8000000000000002;"/></g><!--link ListAllRoomsInsideOrOutsideOfHouseController to RoomMapperDTO--><g id="link_ListAllRoomsInsideOrOutsideOfHouseController_RoomMapperDTO"><path codeLine="73" d="M839.2,149.5478 C839.2,174.4038 839.2,200.3958 839.2,222.0278 " fill="none" id="ListAllRoomsInsideOrOutsideOfHouseController-to-RoomMapperDTO" style="stroke:#181818;stroke-width:0.8000000000000002;stroke-dasharray:7.0,7.0;"/><polygon fill="#181818" points="839.2,226.8278,842.4,219.6278,839.2,222.8278,836,219.6278,839.2,226.8278" style="stroke:#181818;stroke-width:0.8000000000000002;"/><text fill="#000000" font-family="sans-serif" font-size="10.4" lengthAdjust="spacing" textLength="33.6" x="804.8" y="185.0105">&#171;uses&#187;</text></g><!--link ListAllRoomsInsideOrOutsideOfHouseController to HouseID--><g id="link_ListAllRoomsInsideOrOutsideOfHouseController_HouseID"><path codeLine="74" d="M1033.6,149.5478 C1033.6,174.4038 1033.6,200.3958 1033.6,222.0278 " fill="none" id="ListAllRoomsInsideOrOutsideOfHouseController-to-HouseID" style="stroke:#181818;stroke-width:0.8000000000000002;stroke-dasharray:7.0,7.0;"/><polygon fill="#181818" points="1033.6,226.8278,1036.8,219.6278,1033.6,222.8278,1030.4,219.6278,1033.6,226.8278" style="stroke:#181818;stroke-width:0.8000000000000002;"/><text fill="#000000" font-family="sans-serif" font-size="10.4" lengthAdjust="spacing" textLength="45.6" x="987.2" y="185.0105">&#171;creates&#187;</text></g><!--link ListAllRoomsInsideOrOutsideOfHouseController to HouseDTO--><g id="link_ListAllRoomsInsideOrOutsideOfHouseController_HouseDTO"><path codeLine="75" d="M1076.664,107.7078 C1119.784,107.7078 1153.6,107.7078 1153.6,107.7078 C1153.6,107.7078 1153.6,179.5638 1153.6,221.7878 " fill="none" id="ListAllRoomsInsideOrOutsideOfHouseController-to-HouseDTO" style="stroke:#181818;stroke-width:0.8000000000000002;stroke-dasharray:7.0,7.0;"/><polygon fill="#181818" points="1153.6,226.5878,1156.8,219.3878,1153.6,222.5878,1150.4,219.3878,1153.6,226.5878" style="stroke:#181818;stroke-width:0.8000000000000002;"/><text fill="#000000" font-family="sans-serif" font-size="10.4" lengthAdjust="spacing" textLength="33.6" x="1119.2" y="125.4985">&#171;uses&#187;</text></g><!--link RoomRepository to RoomService--><g id="link_RoomRepository_RoomService"><path codeLine="77" d="M172.8,134.8278 C172.8,152.3078 172.8,175.6998 172.8,197.0998 " fill="none" id="RoomRepository-RoomService" style="stroke:#181818;stroke-width:0.8000000000000002;"/></g><!--link RoomMapperDTO to RoomDTO--><g id="link_RoomMapperDTO_RoomDTO"><path codeLine="78" d="M769.6,280.7638 C769.6,303.5398 769.6,332.0838 769.6,360.6678 " fill="none" id="RoomMapperDTO-to-RoomDTO" style="stroke:#181818;stroke-width:0.8000000000000002;stroke-dasharray:7.0,7.0;"/><polygon fill="#181818" points="769.6,365.4678,772.8,358.2678,769.6,361.4678,766.4,358.2678,769.6,365.4678" style="stroke:#181818;stroke-width:0.8000000000000002;"/><text fill="#000000" font-family="sans-serif" font-size="10.4" lengthAdjust="spacing" textLength="45.6" x="723.2" y="319.9385">&#171;creates&#187;</text></g><!--link RoomService to HouseRepository--><g id="link_RoomService_HouseRepository"><path codeLine="79" d="M327.768,295.7078 C342.912,295.7078 352.8,295.7078 352.8,295.7078 C352.8,295.7078 352.8,367.1798 352.8,402.6358 " fill="none" id="RoomService-HouseRepository" style="stroke:#181818;stroke-width:0.8000000000000002;"/></g><!--link RoomService to Room--><g id="link_RoomService_Room"><path codeLine="80" d="M172.8,310.2518 C172.8,325.5398 172.8,337.3958 172.8,353.0758 " fill="none" id="RoomService-to-Room" style="stroke:#181818;stroke-width:0.8000000000000002;stroke-dasharray:7.0,7.0;"/><polygon fill="#181818" points="172.8,357.8758,176,350.6758,172.8,353.8758,169.6,350.6758,172.8,357.8758" style="stroke:#181818;stroke-width:0.8000000000000002;"/><text fill="#000000" font-family="sans-serif" font-size="10.4" lengthAdjust="spacing" textLength="33.6" x="138.4" y="330.8825">&#171;uses&#187;</text></g><!--link Room to RoomDimensions--><g id="link_Room_RoomDimensions"><path codeLine="81" d="M128,486.1238 C128,502.0598 128,509.2998 128,524.3798 " fill="none" id="Room-to-RoomDimensions" style="stroke:#181818;stroke-width:0.8000000000000002;"/><polygon fill="#181818" points="128,533.9798,131.2,529.1798,128,524.3798,124.8,529.1798,128,533.9798" style="stroke:#181818;stroke-width:0.8000000000000002;"/><text fill="#000000" font-family="sans-serif" font-size="10.4" lengthAdjust="spacing" textLength="5.6" x="118.3094" y="503.4516">1</text><text fill="#000000" font-family="sans-serif" font-size="10.4" lengthAdjust="spacing" textLength="5.6" x="122.0763" y="525.15">1</text></g><!--link Room to RoomID--><g id="link_Room_RoomID"><path codeLine="82" d="M253.8,486.1238 C253.8,510.4678 253.8,527.3078 253.8,546.3958 " fill="none" id="Room-to-RoomID" style="stroke:#181818;stroke-width:0.8000000000000002;"/><polygon fill="#181818" points="253.8,555.9958,257,551.1958,253.8,546.3958,250.6,551.1958,253.8,555.9958" style="stroke:#181818;stroke-width:0.8000000000000002;"/><text fill="#000000" font-family="sans-serif" font-size="10.4" lengthAdjust="spacing" textLength="5.6" x="254.9203" y="503.4516">1</text><text fill="#000000" font-family="sans-serif" font-size="10.4" lengthAdjust="spacing" textLength="5.6" x="245.9556" y="547.0342">1</text></g><!--SRC=[fLHDRzGm4BtdLupAWIrBTbN1AOeYqOQoaKeZjOKJ5pVnxbfrxCZs0Yl4VsV6-SuAGI67NVlPy-RDXyS99pbykdhpTdK1Dy8wq5kuqxgoa2ahIWxQG7vmpN8B6tsmF7YvTwwsqNfTIwRSePAhGbVhGZ9hmrAmdM5L0FP9g9hX4gHGt1rhud9x7GGrAvxOZeFbvYityE96xFRkWs57-15u4g_adPHUIACZDwsAVEirN6dbZ9OIxUEYNoV80A51itla5WMFV33j9e3bZZlYphUUEdt8P-oUU-5_yH3sxUBr5mMFMalE5333HxhE8oys9WWl9W7y309eeY3i8wjhReWBbIr9MPRQ1uq0cIqonmrxbDpRPsc2kUhLuSK_iOzvRrc5uTux8zGEeQtKsjmUgaTk8X3A8VHDb6uVGQaFw17taglT1DXpgiG0J9r1Z6xSaEB6OICSeOb3Ggy9m8DIL1npfPLjyBJVuw7FS9P6JMSHqHApgfnmnyNvm4w5czfsfsEsgTwswX3RPZ4el-Erji9fSsmuXZt5mGfQ4Hx1zR3fn8wDDrFWfC5-trrP2cteVzTRs1iK7r0fkK6DVEuSouFh1FXtnrM9AHXEC6wVcy7sn8okBEaXCQ7iUv__osEMBb2dA558gz3dEC3Pq1DDqZUGBRT2bPV7DjPvp4WuwVpJnkwh2l7dt5SElt3MmGJDcvYmUH_ZHuNPU9WQfpr0duDBL3Ts9Sh-CGtIkZ2wY-DRCBlMlatotJVvGEZJ-Amn5uRJMVOiuzKgcOwZ2E8OhzWa-GUcJHTF71U6C_S_D5CjmRoXvb5FPognT8DmfcOy0P3avAMEpxlim3Wh7ZYxE0l3L_GtdpMpusvI_G80]--></g></svg>