<?xml version="1.0" encoding="us-ascii" standalone="no"?><svg xmlns="http://www.w3.org/2000/svg" xmlns:xlink="http://www.w3.org/1999/xlink" contentStyleType="text/css" height="394px" preserveAspectRatio="none" style="width:459px;height:394px;background:#FFFFFF;" version="1.1" viewBox="0 0 459 394" width="459px" zoomAndPan="magnify"><defs/><g><!--cluster :SmartHome--><g id="cluster_:SmartHome"><rect fill="none" height="276" rx="2.5" ry="2.5" style="stroke:#181818;stroke-width:1.0;" width="289" x="55.5" y="112"/><rect fill="none" height="10" style="stroke:#181818;stroke-width:1.0;" width="15" x="324.5" y="117"/><rect fill="none" height="2" style="stroke:#181818;stroke-width:1.0;" width="4" x="322.5" y="119"/><rect fill="none" height="2" style="stroke:#181818;stroke-width:1.0;" width="4" x="322.5" y="123"/><text fill="#000000" font-family="sans-serif" font-size="14" font-style="italic" lengthAdjust="spacing" textLength="62" x="169" y="140.1074">&#171;System&#187;</text><text fill="#000000" font-family="sans-serif" font-size="14" font-weight="bold" lengthAdjust="spacing" textLength="84" x="158" y="158.7285">:SmartHome</text></g><text fill="#000000" font-family="sans-serif" font-size="14" lengthAdjust="spacing" textLength="4" x="263.5" y="90.4863">&#160;</text><rect fill="#F1F1F1" height="12" style="stroke:#181818;stroke-width:1.5;" width="12" x="259.5" y="106"/><text fill="#000000" font-family="sans-serif" font-size="14" lengthAdjust="spacing" textLength="4" x="71.5" y="90.4863">&#160;</text><rect fill="#F1F1F1" height="12" style="stroke:#181818;stroke-width:1.5;" width="12" x="67.5" y="106"/><text fill="#000000" font-family="sans-serif" font-size="14" lengthAdjust="spacing" textLength="4" x="210.5" y="90.4863">&#160;</text><rect fill="#F1F1F1" height="12" style="stroke:#181818;stroke-width:1.5;" width="12" x="206.5" y="106"/><text fill="#000000" font-family="sans-serif" font-size="14" lengthAdjust="spacing" textLength="4" x="151.5" y="90.4863">&#160;</text><rect fill="#F1F1F1" height="12" style="stroke:#181818;stroke-width:1.5;" width="12" x="147.5" y="106"/><!--entity BE--><g id="elem_BE"><rect fill="#F1F1F1" height="67.2422" rx="2.5" ry="2.5" style="stroke:#181818;stroke-width:0.5;" width="125" x="203" y="178"/><rect fill="#F1F1F1" height="10" style="stroke:#181818;stroke-width:0.5;" width="15" x="308" y="183"/><rect fill="#F1F1F1" height="2" style="stroke:#181818;stroke-width:0.5;" width="4" x="306" y="185"/><rect fill="#F1F1F1" height="2" style="stroke:#181818;stroke-width:0.5;" width="4" x="306" y="189"/><text fill="#000000" font-family="sans-serif" font-size="14" font-style="italic" lengthAdjust="spacing" textLength="85" x="218" y="213.1074">&#171;Subsystem&#187;</text><text fill="#000000" font-family="sans-serif" font-size="14" lengthAdjust="spacing" textLength="59" x="231" y="231.7285">:Backend</text></g><!--entity FE--><g id="elem_FE"><rect fill="#F1F1F1" height="67.2422" rx="2.5" ry="2.5" style="stroke:#181818;stroke-width:0.5;" width="125" x="135" y="305"/><rect fill="#F1F1F1" height="10" style="stroke:#181818;stroke-width:0.5;" width="15" x="240" y="310"/><rect fill="#F1F1F1" height="2" style="stroke:#181818;stroke-width:0.5;" width="4" x="238" y="312"/><rect fill="#F1F1F1" height="2" style="stroke:#181818;stroke-width:0.5;" width="4" x="238" y="316"/><text fill="#000000" font-family="sans-serif" font-size="14" font-style="italic" lengthAdjust="spacing" textLength="85" x="150" y="340.1074">&#171;Subsystem&#187;</text><text fill="#000000" font-family="sans-serif" font-size="14" lengthAdjust="spacing" textLength="62" x="161.5" y="358.7285">:Frontend</text></g><!--entity WEB--><g id="elem_WEB"><rect fill="#FFFFFF" height="38.6211" rx="2.5" ry="2.5" style="stroke:#FFFFFF;stroke-width:0.5;" width="67" x="7" y="7"/><text fill="#000000" font-family="sans-serif" font-size="14" lengthAdjust="spacing" textLength="47" x="17" y="32.1074">WEB UI</text></g><!--entity CLI--><g id="elem_CLI"><rect fill="#FFFFFF" height="38.6211" rx="2.5" ry="2.5" style="stroke:#FFFFFF;stroke-width:0.5;" width="41" x="412" y="7"/><text fill="#000000" font-family="sans-serif" font-size="14" lengthAdjust="spacing" textLength="21" x="422" y="32.1074">CLI</text></g><!--entity REST--><g id="elem_REST"><rect fill="#FFFFFF" height="38.6211" rx="2.5" ry="2.5" style="stroke:#FFFFFF;stroke-width:0.5;" width="82" x="109.5" y="7"/><text fill="#000000" font-family="sans-serif" font-size="14" lengthAdjust="spacing" textLength="62" x="119.5" y="32.1074">REST API</text></g><!--entity WS--><g id="elem_WS"><rect fill="#FFFFFF" height="38.6211" rx="2.5" ry="2.5" style="stroke:#FFFFFF;stroke-width:0.5;" width="150" x="226.5" y="7"/><text fill="#000000" font-family="sans-serif" font-size="14" lengthAdjust="spacing" textLength="130" x="236.5" y="32.1074">Weather Service API</text></g><!--link P1 to BE--><g id="link_P1_BE"><path d="M267.5,118.22 C267.5,129.97 267.5,156.15 267.5,177.8 " fill="none" id="P1-BE" style="stroke:#181818;stroke-width:2.0;"/></g><!--link P2 to FE--><g id="link_P2_FE"><path d="M70.5,118.14 C70.5,136.05 70.5,187 70.5,187 C70.5,187 179.5,187 179.5,187 C179.5,187 179.5,260.24 179.5,304.88 " fill="none" id="P2-FE" style="stroke:#181818;stroke-width:2.0;"/></g><!--link P3 to BE--><g id="link_P3_BE"><path d="M214.5,118.22 C214.5,129.97 214.5,156.15 214.5,177.8 " fill="none" id="P3-BE" style="stroke:#181818;stroke-width:2.0;"/></g><!--link P4 to BE--><g id="link_P4_BE"><path d="M155.5,118.05 C155.5,135.22 155.5,183 155.5,183 C155.5,183 178.09,183 202.79,183 " fill="none" id="P4-BE" style="stroke:#181818;stroke-width:2.0;"/></g><!--link BE to FE--><g id="link_BE_FE"><path d="M231.5,245.2 C231.5,263.57 231.5,286.25 231.5,304.64 " fill="none" id="BE-FE" style="stroke:#181818;stroke-width:1.0;"/><path d="M224.4289,281.9836 A10,10 0 0 0 238.5711 281.9836" fill="none" style="stroke:#181818;stroke-width:1.5;"/><ellipse cx="231.5" cy="274.9125" fill="#FFFFFF" rx="6" ry="6" style="stroke:#181818;stroke-width:1.5;"/></g><!--reverse link WEB to P2--><g id="link_WEB_P2"><path d="M37.25,58.33 C37.25,83.59 37.25,112 37.25,112 C37.25,112 56.8,112 67.19,112 " fill="none" id="WEB-backto-P2" style="stroke:#181818;stroke-width:2.0;"/><ellipse cx="37.25" cy="52.33" fill="#FFFFFF" rx="6" ry="6" style="stroke:#181818;stroke-width:1.5;"/></g><!--reverse link CLI to P1--><g id="link_CLI_P1"><path d="M432.5,58.33 C432.5,83.59 432.5,112 432.5,112 C432.5,112 302.35,112 271.84,112 " fill="none" id="CLI-backto-P1" style="stroke:#181818;stroke-width:2.0;"/><ellipse cx="432.5" cy="52.33" fill="#FFFFFF" rx="6" ry="6" style="stroke:#181818;stroke-width:1.5;"/></g><!--reverse link WS to P3--><g id="link_WS_P3"><path d="M243,56.33 C243,81.59 243,112 243,112 C243,112 227.58,112 218.67,112 " fill="none" id="WS-backto-P3" style="stroke:#181818;stroke-width:2.0;"/><path d="M234.5428,49.4082 A9,9 0 0 0 251.4572 49.4082" fill="none" style="stroke:#181818;stroke-width:1.5;"/></g><!--reverse link REST to P4--><g id="link_REST_P4"><path d="M153.5,58.33 C153.5,77.47 153.5,93.31 153.5,105.68 " fill="none" id="REST-backto-P4" style="stroke:#181818;stroke-width:2.0;"/><ellipse cx="153.5" cy="52.33" fill="#FFFFFF" rx="6" ry="6" style="stroke:#181818;stroke-width:1.5;"/></g><!--SRC=[RP4_QyCm4CLtVOh3NTh1a7zJ284wsBJGmTGj6Ke7nJuI4rjdPBaGIhzxJr8R9NMbGVBltibFJ_snLftKieMcLcXE7G9fSo0XIcexKgWCB8jMQlD0BS9gLPnwW-rw3Pz208yWYvQ9B8-egiZAXbt_gvGz92dhhVnht9LfKkR_jknFMyVU8EB9jNmwHhCnce_HmX-MJo5-sr5JlSVipwDPGDaFcezLYola65ymdjovBlQgiJHIxHk4Q9icyFheVipRoyhcoMDUB_5pMhp0VUvhzkFgD9JcW1eAr1zrYMVTjX2YFpzbQF3fsNVPQnfKjQ66DDnaRlWQwGhrDUSRX2I6Bfuuwo4lXwpj40wZM-iYPED4rlyt]--></g></svg>